<!-- by TradingView --><svg width="56" height="56" viewBox="0 0 56 56" xmlns="http://www.w3.org/2000/svg"><path fill="#F0F3FA" d="M0 0h56v56H0z"/><path d="M12 40.16c3.1.93 13.73 3.43 28.91.6-.82 1.85-15.46 4.47-28.91-.6Z" fill="#5888A6"/><path d="M36.83 43.04c-5.6.92-17.56 2-20.59-1.1 2.3.81 9.65 2.18 20.6 1.1Z" fill="#5888A6"/><path d="M13.07 40.04a7.3 7.3 0 0 1-.56-3.55c2.68.27 5.6-.68 6.73-1.18v1.18c-.08.4-1.4.84-2.06 1.01 2.59-.13 7.34-2.57 9.4-3.78l.22-2.46.78-8.07v-7.68l-.7-3.84.7-.38 1 8.74c.04 1.35-.56 9.31-.87 13.13 5.46-3.04 10.41-3.58 12.2-3.47L46 25.9l-4.82 4.4c0 .7-.18 1.22-.26 1.39-1.91-1.66-5.14-.52-6.52.25.7-.1 2.37-.33 3.52-.46 1.15-.14.97.42.74.71a17.6 17.6 0 0 0-2.17 4.78c.73-2.03 2.3-4.03 3-4.78.48-.74 1.15-.3 1.43 0-.34.78-1.4 2.77-3 4.56a9.82 9.82 0 0 0-2.35 4.35c-12.85 1.56-20.35-.05-22.5-1.05Z" fill="#595959"/><path d="M27.52 10h-2.7a5.23 5.23 0 0 1-.38 2.69 28.2 28.2 0 0 1 4.55.14c.05-.18.08-.76-.17-1.66a1.53 1.53 0 0 0-1.3-1.17ZM26.8 13.3c-2.41-.02-4.9.22-5.84.34 1 3.71-.41 6.99-1.24 8.16 1.2.15 4.41.29 7.66-.36 3.25-.65 5.19-.27 5.76 0 .12-.47.27-2.07-.15-4.64-.52-3.22-3.16-3.47-6.19-3.5ZM28.04 22.11c-2.74.54-9.08.79-11.91.84 2.65 5 .37 9.27-1.1 10.78 7.8-1.8 12.54-2.02 15.05-1.76.9-.3 2.06-1 2.85-1a14.8 14.8 0 0 0 1.53-5.33c.14-3.3-3-4.2-6.42-3.53Z" fill="#5888A6"/><path d="M35.1 28.75c2.39-8.97-.32-13.48-1.96-14.6 7.69 3.64 9.22 11.52 9.02 15-1.22-1.51-5.21-.9-7.05-.4Z" fill="#5888A6"/></svg>