<!-- by TradingView --><svg width="56" height="56" viewBox="0 0 56 56" xmlns="http://www.w3.org/2000/svg"><path fill="#F0F3FA" d="M0 0h56v56H0z"/><path fill-rule="evenodd" d="M49 20H7v16h42V20Zm-1 1H8v14h40V21Z"/><path d="M45.94 31.11h-2.22l-.02.37c0 .77.44 1.29 1.16 1.29.55 0 .88-.26 1.04-.8l.1.01c-.07.28-.11.37-.23.53-.23.31-.68.49-1.19.49-.98 0-1.58-.55-1.58-1.43 0-.93.67-1.57 1.66-1.57.45 0 .83.16 1.06.44.14.19.18.33.22.67Zm-1.35-1c-.47 0-.73.3-.85.88h1.42c.1 0 .14-.04.14-.16a.7.7 0 0 0-.7-.72ZM33.58 30v-.17H34V29h.7l-.01.83h.76V30h-.75v2c0 .3-.07.8.35.8.22 0 .38-.17.45-.48l.08.02c-.09.46-.33.66-.8.66-.43 0-.76-.21-.78-.65V30h-.42ZM31.36 33v-.08c.26-.03.36-.06.46-.14.13-.1.2-.27.2-.5v-3.06l-.02-.4a.81.81 0 0 0-.1-.43c-.08-.13-.2-.19-.46-.2v-.08l1.25-.11h.06v4.28c0 .45.14.6.61.64V33h-2ZM27.47 30.08 28.6 30h.06v1.9c0 .48.06.92.65.92.58 0 .68-.95.68-1.33v-.37c-.01-.29.05-.7-.2-.9-.07-.04-.14-.06-.33-.07v-.07l1.14-.08h.06l.02 2.26c0 .32.03.37.2.44.08.04.11.05.34.07v.07L30 33v-.45c-.32.33-.47.45-.93.45-.7 0-1.07-.27-1.07-.96v-1.3c0-.3-.07-.42-.2-.51-.08-.05-.15-.07-.32-.08l-.01-.07ZM35.47 30.08 36.6 30h.06v1.9c0 .48.06.92.65.92.58 0 .68-.95.68-1.33v-.37c-.01-.29.05-.7-.2-.9-.07-.04-.14-.06-.33-.07v-.07l1.14-.08h.06l.02 2.26c0 .32.03.37.2.44.08.04.11.05.34.07v.07L38 33v-.45c-.32.33-.47.45-.93.45-.7 0-1.07-.27-1.07-.96v-1.3c0-.3-.07-.42-.2-.51-.08-.05-.15-.07-.32-.08l-.01-.07ZM15.83 31.51l-.19-.1a.94.94 0 0 1-.46-.8c0-.55.57-1 1.27-1 .17 0 .3.02.54.09.14-.45.4-.7.7-.7.18 0 .31.1.31.25 0 .14-.12.24-.28.24-.04 0-.06 0-.15-.03a.57.57 0 0 0-.18-.06c-.13 0-.24.13-.28.33.43.25.61.51.61.88 0 .54-.57 1-1.22 1h-.12l-.21-.03h-.08c-.24 0-.45.12-.45.26 0 .12.18.2.5.22l.4.02c.4.02.71.07.94.15.32.1.5.38.5.74 0 .6-.63 1.03-1.54 1.03-.84 0-1.44-.32-1.44-.75 0-.3.29-.56.64-.56.18 0 .3.05.3.11.01.02 0 .03-.02.03h-.05l-.09-.01c-.2 0-.35.17-.35.42 0 .39.4.65 1 .65.67 0 1.07-.26 1.07-.68 0-.22-.08-.35-.28-.44a.89.89 0 0 0-.3-.09l-.43-.03a5.73 5.73 0 0 1-.9-.13c-.2-.07-.36-.25-.36-.44 0-.12.07-.25.17-.33.1-.09.16-.11.43-.24Zm0-.85c0 .56.2.85.62.85.3 0 .42-.08.55-.33.06-.15.1-.3.1-.52 0-.64-.2-.96-.6-.96-.45 0-.67.33-.67.96ZM10 33v-.1a.75.75 0 0 0 .46-.2c.13-.14.29-.4.44-.8l1.48-3.78.03-.1.06-.02c.03 0 .05.01.05.03l.03.09 1.54 3.78c.16.4.32.68.45.8a.7.7 0 0 0 .46.2v.1h-2.09v-.1c.43-.05.6-.14.6-.36 0-.16-.06-.36-.18-.63l-.35-.87H11.4l-.34.87c-.1.26-.16.47-.16.61 0 .24.17.35.64.38v.1H10Zm2.2-3.98-.75 1.86h1.49l-.75-1.86ZM36.57 28l.01-.08c.33-.04.42-.29.42-.6v-1.15l-.01-.38c0-.18 0-.43-.14-.56-.05-.05-.1-.06-.24-.08v-.07l.97-.08h.04v.44c.22-.28.52-.44.88-.44.62 0 1.17.4 1.17.97v1.36c0 .3.02.55.33.6V28h-1.4v-.08c.33-.04.4-.3.4-.6V26.3c0-.4-.06-1.11-.62-1.11-.66 0-.7.78-.7 1.23v.91c0 .32.06.56.41.6V28h-1.52ZM34.96 27.66c-.06.05-.1.1-.15.12-.18.15-.44.22-.73.22-.55 0-.9-.27-.9-.7 0-.6.63-.79 1.11-.9.4-.1.54-.15.62-.24.06-.07.09-.18.09-.48 0-.41-.17-.58-.55-.58-.29 0-.43.12-.49.44-.04.19-.13.26-.35.26-.17 0-.27-.1-.27-.26 0-.33.47-.54 1.2-.54.75 0 1.2.22 1.2.75v1.7c0 .25.08.36.22.36.08 0 .17-.03.3-.13l.04.06a.8.8 0 0 1-.6.26c-.26 0-.6-.1-.74-.34Zm.04-.77v-.6l-.15.06-.28.11c-.4.18-.73.44-.73.92 0 .27.22.46.5.46.23 0 .45-.12.55-.3.09-.17.11-.3.11-.65ZM31.89 26.97l.11.01c-.18.68-.64 1.02-1.4 1.02-.97 0-1.6-.55-1.6-1.41 0-.93.74-1.59 1.8-1.59.61 0 1.06.22 1.06.53 0 .17-.14.28-.32.28a.37.37 0 0 1-.36-.28l-.04-.16c-.04-.17-.2-.27-.43-.27-.57 0-.99.6-.99 1.4 0 .81.43 1.33 1.12 1.33.55 0 .91-.3 1.05-.86ZM26.89 31.97l.11.01c-.18.68-.64 1.02-1.4 1.02-.97 0-1.6-.55-1.6-1.41 0-.93.74-1.59 1.8-1.59.61 0 1.06.22 1.06.53 0 .17-.14.28-.32.28a.37.37 0 0 1-.36-.28l-.04-.16c-.04-.17-.2-.27-.43-.27-.57 0-.99.6-.99 1.4 0 .81.43 1.33 1.12 1.33.55 0 .91-.3 1.05-.86ZM26.36 28l.01-.09c.25-.02.34-.05.45-.14.12-.11.18-.29.18-.53v-1.4l-.03-.27a.52.52 0 0 0-.2-.31c-.07-.05-.15-.07-.35-.09v-.08L27.7 25h.06v2.24c0 .46.15.63.59.67V28h-2ZM27.5 23a.5.5 0 1 0 0 1 .5.5 0 0 0 .5-.5.5.5 0 0 0-.5-.5ZM21.36 33l.01-.09c.25-.02.34-.05.45-.14.12-.11.18-.29.18-.53v-1.4l-.03-.27a.52.52 0 0 0-.2-.31c-.07-.05-.15-.07-.35-.09v-.08L22.7 30h.06v2.24c0 .46.15.63.59.67V33h-2ZM22.5 28a.5.5 0 1 0 0 1 .5.5 0 0 0 .5-.5.5.5 0 0 0-.5-.5ZM23.36 28l.01-.08c.48-.04.63-.18.63-.6V25.8l-.03-.25a.44.44 0 0 0-.2-.27c-.06-.05-.14-.07-.34-.08v-.07l1.25-.08h.05l.04.54c.17-.23.25-.32.4-.4.16-.11.4-.18.62-.18.33 0 .57.15.57.35 0 .16-.15.27-.34.27-.1 0-.2-.03-.26-.09-.04-.02-.07-.06-.15-.17-.05-.07-.1-.1-.17-.1-.4 0-.69.5-.69 1.15v.91c0 .28.03.37.17.48.11.07.2.1.48.12V28h-2.04ZM18.36 33l.01-.08c.48-.04.63-.18.63-.6V30.8l-.03-.25a.44.44 0 0 0-.2-.27c-.06-.05-.14-.07-.34-.08v-.08l1.25-.07h.05l.04.54c.17-.23.25-.32.4-.4.16-.11.4-.18.62-.18.33 0 .57.15.57.35 0 .16-.15.27-.34.27-.1 0-.2-.03-.26-.09-.04-.02-.07-.06-.15-.17-.05-.07-.1-.1-.17-.1-.4 0-.69.5-.69 1.15v.91c0 .28.03.37.17.48.11.07.2.1.48.12V33h-2.04ZM39.35 33l.02-.08c.48-.04.63-.18.63-.6V30.8l-.03-.25a.44.44 0 0 0-.2-.27c-.06-.05-.14-.07-.34-.08v-.07l1.25-.08h.05l.04.54c.17-.23.25-.32.4-.4.16-.11.4-.18.62-.18.33 0 .56.15.56.35 0 .16-.14.27-.33.27-.1 0-.2-.03-.26-.09-.04-.02-.07-.06-.15-.17-.05-.07-.1-.1-.17-.1-.4 0-.69.5-.69 1.15v.91c0 .28.03.37.17.48.11.07.2.1.48.12V33h-2.05Z"/><path d="M21.38 28v-.1c.44-.04.62-.31.62-.76V24.2h-.52V24H22v-.28c0-.66.1-1.04.34-1.3.23-.26.66-.42 1.11-.42.59 0 .93.2.93.53 0 .17-.13.3-.3.3-.26 0-.31-.17-.37-.37-.06-.2-.21-.32-.39-.32-.4 0-.6.47-.6 1.46v.4h.74v.19h-.74v2.95c0 .44.18.72.62.76v.1h-1.96ZM16 28v-.1a.75.75 0 0 0 .46-.2c.13-.14.29-.4.44-.8l1.48-3.78.03-.1.06-.02c.03 0 .05.01.05.03l.03.09 1.54 3.78c.16.4.32.68.45.8a.7.7 0 0 0 .46.2v.1h-2.09v-.1c.43-.05.6-.14.6-.36 0-.16-.06-.36-.18-.63l-.35-.87H17.4l-.34.87c-.1.26-.16.47-.16.61 0 .24.17.35.64.38v.1H16Zm2.2-3.98-.75 1.86h1.49l-.75-1.86Z"/></svg>