<!-- by TradingView --><svg width="56" height="56" xmlns="http://www.w3.org/2000/svg"><path fill="#0079C1" d="M0 0h56v56H0z"/><path d="M15.4 25l.145.377L11 31h1.996c-.145-.275.036-.651.036-.651l.597-.926h2.784s.108.651.145.891c.036.206-.145.583-.29.686h3.182c-.253-.172-.325-.617-.325-.72-.037-.103-.904-5.28-.904-5.28H15.4z" fill="#fff"/><path d="M23.318 25l.182.375L19 31h2c-.11-.273.029-.678.029-.678l.505-.92h2.804s.146.647.182.886c.036.205-.11.575-.328.712h3.242c-.292-.17-.364-.644-.364-.746-.037-.102-.911-5.254-.911-5.254h-2.84zm9.287 0h-1.711c-.656 0-1.567.307-1.858 1.092-.291.819-1.02 3.48-1.02 3.48-.218.92.328 1.428 1.056 1.428h3.824c.62 0 1.493-.132 1.858-1.19.364-1.057.837-3.07.946-3.548.11-.511.037-1.262-1.128-1.262h-1.967zm4.152 0c.182.239.145.478.11.648-.037.137-1.203 4.504-1.312 4.81-.11.308-.182.445-.364.547h1.53c-.074-.171-.146-.273-.074-.512C36.72 30.254 37.87 26 37.87 26L39 31.005h3s1.57-5.289 1.643-5.527A.787.787 0 0144 25h-1.453c.11.102.146.341.11.512-.037.17-1.315 4.488-1.315 4.488L40 25h-3.243z" fill="#fff"/><path d="M28 19c13.256 0 24 4.03 24 9.02C52 32.97 41.256 37 28 37S4 32.97 4 28.02C4 23.03 14.962 19 28 19v2c-12.783 0-23.005 2.893-23.005 7 0 4.145 9.967 7 23.005 7 13.038 0 23-2.855 23-7 0-4.107-9.962-7-23-7v-2z" fill="#fff"/><path d="M15.871 26.505l-1.446 1.893h1.808l-.362-1.893zm7.99 0l-1.446 1.893h1.808l-.362-1.893zM32.394 26h-.65c-.182 0-.327.234-.399.403-.072.17-.903 3.28-.903 3.28-.073.304.144.317.397.317h1.121c.289 0 .397-.114.47-.317.072-.236.795-2.874.867-3.178.073-.338-.144-.505-.289-.505h-.614z" fill="#0079C1"/></svg>