<!-- by TradingView --><svg xmlns="http://www.w3.org/2000/svg" width="56" height="56"><path fill="#F0F3FA" d="M0 0h56v56H0z"/><path d="M22.8 25.46a2.14 2.14 0 012.91 2.15 2.16 2.16 0 01-3.43 1.53 2.11 2.11 0 01.52-3.68z" fill="#48AA43"/><path d="M35 24.59a2.14 2.14 0 00-2.91 2.14 2.16 2.16 0 003.43 1.54 2.11 2.11 0 00-.52-3.68z" fill="#0067B4"/><path d="M28.93 23.05c-.18 0-.3.22-.32.34-.33 1.34-1.45 5.67-3.99 7.22-2.03 1.24-5.35-.82-6.76-2-.11-.09-.37-.23-.56-.08-.18.14.04.41.17.53 2.36 1.85 4.94 4.16 4.97 5.94.03 1.79-3.48 6.76-3.62 6.96-.13.2-.17.48 0 .6.13.1.33.05.42-.07 1.25-1.52 4.08-4.5 5.39-4.22 1.63.34.36 4.5.29 4.8-.08.27-.18.87.17.93.28.04.54-.35.63-.56 3.01-6.7 3.57-16.16 3.47-20.05 0-.19-.08-.34-.26-.34z" fill="#48AA43"/><path d="M30.32 23.55c-.02-.38-.25-.53-.39-.51-.3.04-.31.36-.28.5.52 6.83-1.2 15.47-1.3 16.05-.1.47.3.52.5.49.12-.04.56-.18 1.33-.49.77-.3 1.17.2 1.27.49l1.53 3.45c.12.3.35.5.52.46.17-.05.18-.27.18-.46.01-1.19.02-3.63 0-3.86-.01-.29.04-.6.66-1 .5-.31 1-.13 1.18 0l4 2.89c.13.07.42.17.56 0 .13-.15-.06-.44-.18-.55l-2.28-2.62c-.54-.62.22-1.08.67-1.23.58-.27 1.44-.88.2-1.08-1.54-.26-2.97-.57-3.49-2.81-.42-1.84 2.77-3.85 4.58-4.98.21-.2.4-.43.21-.64-.21-.24-.54-.02-.67.08-1.2.96-4.08 2.7-6.08 1.95-2.5-.94-2.7-5.66-2.72-6.13z" fill="#0067B4"/><path d="M13.24 11.54c.26 0 .47-.12.47-.27 0-.15-.2-.27-.47-.27-.27 0-.48.12-.48.27 0 .15.21.27.48.27zm2.24.11c0 .17-.23.3-.52.3-.28 0-.52-.13-.52-.3 0-.16.24-.29.52-.29.3 0 .52.13.52.3zm1.33.92c.4 0 .7-.18.7-.4 0-.22-.3-.4-.7-.4-.4 0-.7.18-.7.4 0 .22.3.4.7.4zm2.83.28c0 .3-.43.53-.95.53s-.95-.24-.95-.53c0-.3.43-.54.95-.54s.95.24.95.54zm1.26 1.6c.6 0 1.08-.27 1.08-.61 0-.34-.48-.61-1.08-.61-.6 0-1.08.27-1.08.6 0 .35.48.62 1.08.62zm2.8.68c0 .35-.54.64-1.2.64-.66 0-1.2-.29-1.2-.64 0-.35.54-.64 1.2-.64.66 0 1.2.29 1.2.64zm-.15 2.18c.64 0 1.16-.27 1.16-.61 0-.35-.52-.62-1.16-.62-.64 0-1.16.27-1.16.62 0 .34.52.61 1.16.61zm1.16.96c0 .32-.49.58-1.09.58-.6 0-1.08-.26-1.08-.58 0-.31.49-.57 1.08-.57.6 0 1.09.26 1.09.57zm-1.44 1.95c.49 0 .89-.23.89-.51s-.4-.51-.89-.51-.88.23-.88.5c0 .3.4.52.88.52zm-.06.66c0 .21-.37.4-.82.4-.46 0-.83-.19-.83-.4 0-.22.37-.4.83-.4.45 0 .82.18.82.4zm-1.71 1.37c.35 0 .63-.17.63-.37 0-.2-.28-.37-.63-.37s-.64.17-.64.37c0 .2.29.37.64.37zm-.64.63c0 .19-.27.34-.6.34-.34 0-.61-.15-.61-.34 0-.19.27-.34.6-.34.34 0 .61.15.61.34zm-1.5 1.34c.32 0 .57-.14.57-.32s-.25-.32-.57-.32c-.31 0-.56.14-.56.32s.25.32.56.32zm-.56.7c0 .16-.22.3-.48.3s-.47-.14-.47-.3c0-.18.21-.32.47-.32s.48.14.48.31zm-1.24 1.42c.26 0 .47-.14.47-.3 0-.18-.21-.31-.47-.31-.27 0-.48.13-.48.3 0 .17.21.31.48.31zm-.33 1.28c.26 0 .47-.14.47-.3 0-.17-.21-.31-.47-.31s-.47.14-.47.3c0 .17.21.31.47.31z" fill="#48AA43"/><path d="M15.25 13.56c.22 0 .4-.12.4-.27 0-.16-.18-.28-.4-.28-.22 0-.4.12-.4.28 0 .15.18.27.4.27zm-.97 1.05c.28 0 .5-.13.5-.28 0-.15-.22-.28-.5-.28-.27 0-.49.13-.49.28 0 .15.22.28.5.28zm11.42 7.64c.33 0 .6-.18.6-.4 0-.2-.27-.38-.6-.38-.33 0-.6.17-.6.39 0 .21.27.39.6.39zM41 25.43c0 .22-.27.39-.6.39-.33 0-.6-.17-.6-.4 0-.2.27-.38.6-.38.33 0 .6.17.6.39zm-.26 1.22c0 .19-.23.34-.51.34-.29 0-.52-.15-.52-.34 0-.18.23-.33.52-.33.28 0 .51.15.51.33zm-16.58-4.8c0 .18-.22.31-.48.31s-.47-.13-.47-.3c0-.17.21-.31.47-.31s.48.14.48.3zm-10.19-6.4c0 .22-.3.4-.69.4-.38 0-.7-.18-.7-.4 0-.23.32-.4.7-.4.38 0 .7.17.7.4zm-1.47 1.87c.53 0 .95-.25.95-.54 0-.3-.42-.54-.95-.54-.52 0-.94.24-.94.54 0 .3.42.54.94.54zm.9 1.26c0 .39-.54.7-1.2.7-.66 0-1.2-.31-1.2-.7 0-.39.54-.7 1.2-.7.66 0 1.2.31 1.2.7zm0 2.36c.66 0 1.2-.31 1.2-.7 0-.39-.54-.7-1.2-.7-.67 0-1.2.31-1.2.7 0 .39.53.7 1.2.7zm3.2.35c0 .32-.49.59-1.1.59-.6 0-1.1-.27-1.1-.59 0-.32.5-.58 1.1-.58.61 0 1.1.26 1.1.58zm1.23.7c.44 0 .8-.17.8-.4 0-.21-.36-.4-.8-.4-.43 0-.79.19-.79.4 0 .23.36.4.8.4zm2.3-.27c0 .15-.21.27-.48.27s-.49-.12-.49-.27c0-.15.22-.28.49-.28s.48.13.48.28zm8.24.08c0 .22-.28.4-.64.4-.35 0-.64-.18-.64-.4 0-.22.29-.4.64-.4.36 0 .64.18.64.4zm1.52.45c.5 0 .9-.24.9-.53 0-.29-.4-.52-.9-.52s-.9.23-.9.52c0 .3.4.53.9.53zm10.75 1.82c0 .35-.5.64-1.12.64-.62 0-1.12-.29-1.12-.64 0-.36.5-.64 1.12-.64.62 0 1.12.28 1.12.64zm-8.21-1.63c.62 0 1.12-.28 1.12-.64 0-.35-.5-.64-1.12-.64-.62 0-1.12.29-1.12.64 0 .36.5.64 1.12.64zm6.47.38c0 .38-.55.7-1.22.7-.67 0-1.22-.32-1.22-.7 0-.4.55-.7 1.22-.7.67 0 1.22.3 1.22.7zm-3.65-.14c.67 0 1.21-.31 1.21-.7 0-.39-.54-.7-1.21-.7-.68 0-1.22.31-1.22.7 0 .39.54.7 1.22.7z" fill="#0067B4"/></svg>