<!-- by TradingView --><svg width="56" height="56" viewBox="0 0 56 56" xmlns="http://www.w3.org/2000/svg"><path fill="#F0F3FA" d="M0 0h56v56H0z"/><path fill-rule="evenodd" d="M4 31h1.26l.53-1.48h2.45L8.78 31h1.25l-2.29-6H6.3L4 31Zm3.92-2.35-.88-2.42h-.05l-.88 2.42h1.81ZM17 25v6h4v-1h-3v-5h-1Zm5 6v-6h4v1h-3v1.5h2.77v1H23V30h3v1h-4Zm9.97-1.28L30.28 25H29l2.28 6h1.44L35 25h-1.29l-1.68 4.72h-.06ZM37 25v6h-1v-6h1Zm1 0v6h4v-1h-3v-1.5h2.77v-1H39V26h3v-1h-4Zm6.9 6L43 25h1.18l1.36 4.4h.06l1.3-4.4h1.2l1.3 4.41h.06l1.4-4.41H52l-1.9 6h-1.22l-1.35-4.37h-.05L46.12 31H44.9ZM11 25v6h2.63c1.02 0 2.22-.43 2.22-1.63 0-.79-.6-1.44-1.4-1.48v-.06c.65-.14 1.15-.59 1.15-1.27 0-1.14-1.14-1.56-2.11-1.56H11Zm2.44 5H12v-1.67h1.48c.56 0 1.17.32 1.17.95 0 .65-.68.72-1.2.72Zm-.1-2.45H12V26h1.37c.7 0 1.05.23 1.05.7 0 .58-.56.85-1.08.85Z"/></svg>