<!-- by TradingView --><svg width="56" height="56" viewBox="0 0 56 56" xmlns="http://www.w3.org/2000/svg"><path fill="#F0F3FA" d="M0 0h56v56H0z"/><path d="M27.72 38H14.7L47 14 27.72 38Z" fill="#ADD084"/><path d="M36.6 38H23.67L47 14 36.6 38Z" fill="#6CB545"/><path d="m26.48 35.11-2.99-5.55 7.3-11.93 2.86 10.1-7.17 7.38Z" fill="#46537D"/><path d="M13.16 38h5.16L30.8 17.63 13.16 38Z" fill="#9493B6"/><path d="M9 38h9.52l1.72-14.47L9 38Z" fill="#92CCE8"/><path d="M23.67 38h-5.35l3.26-5.32 1.91-3.12L28.04 38h-4.37Z" fill="#7374A1"/><path d="M19.38 30.82 13.16 38H18.52l.86-7.18Z" fill="#80ABD5"/><path d="M20.24 23.53 18.57 37.6l3.01-4.92 1.91-3.12-1.34-2.5-1.9-3.53Z" fill="#61A2D2"/><path d="M36.6 38H23.67l9.98-10.27L36.6 38Z" fill="#203D76"/></svg>