<!-- by TradingView --><svg xmlns="http://www.w3.org/2000/svg" width="56" height="56"><path fill="#8963C8" d="M0 0h56v56H0z"/><path fill-rule="evenodd" d="M43 26c0 3.92-1.5 7.48-3.96 10.15-2.31 2.74-8.06 8.55-13.5 10.56-.76.34-2.48.66-2.54-.8v-5.76A15 15 0 1143 26zm-24-7a2 2 0 012-2h14a2 2 0 012 2h-1.83c-1.22.04-1.86.8-2.03 1.18l-2.21 4.15c-.19.35-.43.6-.72.6-.28 0-.5-.4-.62-.6l-2.45-4.36c-.55-.97-1.9-.97-2.68-.97h-.02c-2.41 0-3.11.52-3.32.85-.2.33-.22 1.15.54 1.35.77.2.96.95.96 1.3.18 2.15-.06 5.53-.17 7.02l-.04.51c-.05.8-.52 1.15-.75 1.23-.21.07-.65.31-.63.7.01.48.1 1.04 2.68 1.04 2.56 0 2.7-.89 2.72-1.04.02-.16-.1-.55-.67-.78-.46-.19-.56-.94-.55-1.29v-2.82c0-.97.72-.51 1.02.2a71.71 71.71 0 002.24 4.69c.27.41.43.62.7.62.2 0 .5-.34.61-.62a45.59 45.59 0 012.46-4.9c.41-.67.78-.28.78.21v2.62c0 .65-.38 1.08-.57 1.2-.46.4-.54.74-.52.86.03.9 1.38 1.07 2.04 1.05H37a2 2 0 01-2 2H21a2 2 0 01-2-2V19z" fill="#fff"/></svg>