<!-- by TradingView --><svg xmlns="http://www.w3.org/2000/svg" width="56" height="56"><path fill="#9D2135" d="M0 0h56v56H0z"/><path fill-rule="evenodd" d="M27 15.57v8.62c0 .24.16.68.52.24a15.14 15.14 0 0111.68-6.6c.15-.02.44-.12.44-.36 0-.3-.28-.41-.44-.41h-.03c-.49 0-6.54-.11-10.28 2.77l-.77-5.48c-.03-.21-.14-.49-.4-.27-.35.27-.72.97-.72 1.49zm17.4 4.16c-9.16-.48-15.34 6.35-17.28 9.82-6-6.43-11.33-5.8-15.44-5.25-.3.04-.7.13-.68.54.03.4.56.4.86.4 7.2.1 10.68 3.5 12.07 7.48 1.11 3.2.46 7.52 0 9.28h7.65a16.77 16.77 0 01.53-12.45c2.95-6.56 9.42-8.76 12.3-9.03.26-.03.59-.12.59-.41s-.34-.37-.6-.38zm-14.6 9.51c-2.34 3.05-2.54 8.56-2.34 11.44h1.77c-.84-5.61.2-9.84.82-11.26.05-.1.1-.24.05-.32-.06-.08-.23.04-.3.14z" fill="#fff"/></svg>