<!-- by TradingView --><svg width="56" height="56" viewBox="0 0 56 56" xmlns="http://www.w3.org/2000/svg"><path fill="url(#a42tp0d0w)" d="M0 0h56v56H0z"/><path fill-rule="evenodd" d="M6.2 31H4l8.72-10H15v10h-1.5v-1.5H7.48L6.2 31Zm7.3-8.52V28H8.77l4.73-5.52ZM25.04 21H17.5v10h7.54a2.8 2.8 0 0 0 2.75-2.85 2.9 2.9 0 0 0-.94-2.15c.58-.52.94-1.3.94-2.15A2.8 2.8 0 0 0 25.04 21Zm-.26 1.5H19V25h5.78c.67 0 1.22-.48 1.22-1.2s-.55-1.3-1.22-1.3Zm0 4.5H19v2.5h5.78c.67 0 1.22-.56 1.22-1.25S25.45 27 24.78 27Zm8.83 4-5.3-10h2.1l4.5 8.28L39.4 21h2.14l-5.31 10H33.6ZM51 31v-1.5h-4.85c-1.84 0-3.15-1.63-3.15-3.48 0-1.84 1.3-3.52 3.15-3.52H51V21h-5a5 5 0 0 0 0 10h5Z" fill="#fff"/><path fill="#07B" d="M4 33h12v2H4z"/><path fill="#0B9444" d="M16 33h12v2H16z"/><path fill="#39B54A" d="M28 33h12v2H28z"/><path fill="#16A7DE" d="M40 33h12v2H40z"/><defs><linearGradient id="a42tp0d0w" x1="10.42" y1="9.71" x2="68.15" y2="76.02" gradientUnits="userSpaceOnUse"><stop stop-color="#1A1E21"/><stop offset="1" stop-color="#06060A"/></linearGradient></defs></svg>