<!-- by TradingView --><svg width="56" height="56" viewBox="0 0 56 56" xmlns="http://www.w3.org/2000/svg"><path fill="#F0F3FA" d="M0 0h56v56H0z"/><path d="M14.09 37.38c3.89 6.25 11.01 7.68 14.1 7.62-4.05-1.3-6.71-7.4-6.93-9.48-.22-2.07-2.44-5-5.68-3.24-2.6 1.41-2.08 3.99-1.5 5.1Zm10.78 4.8c1.02 1.45 4.3 3.82 9.36 1.7 6.31-2.66 3.56-6.49 3.09-7.07a4.03 4.03 0 0 0-6.26.32c-2.87 3.2-3.84 3.74-6.19 5.05ZM26 40a4 4 0 1 0 0-8 4 4 0 0 0 0 8Z" fill="#F7941D"/><path d="M41.82 23.42c.7-1.63.97-5.7-3.48-8.9-5.57-4-7.36.36-7.6 1.08a4.07 4.07 0 0 0 3.56 5.18c4.22.77 5.18 1.32 7.52 2.64Zm1.61 11.75c3.25-6.61.71-13.46-.96-16.06 1.02 4.14-2.74 9.63-4.38 10.9-1.64 1.28-2.95 4.72.25 6.57 2.55 1.48 4.46-.32 5.1-1.41ZM36 29.74a4 4 0 1 0 0-8 4 4 0 0 0 0 8Z" fill="#8EC63F"/><path d="M26.46 11c-7.32.4-12 5.99-13.44 8.73 3.09-2.93 9.69-2.33 11.6-1.52 1.91.81 5.53.27 5.56-3.43.03-2.97-2.47-3.76-3.72-3.78Zm-9.38 7.18c-1.76.2-5.41 1.94-6 7.42-.74 6.84 3.92 6.27 4.66 6.13a4.07 4.07 0 0 0 2.75-5.66c-1.41-4.08-1.41-5.2-1.41-7.89ZM22 26.26a4 4 0 1 0 0-8 4 4 0 0 0 0 8Z" fill="#2AA9E0"/></svg>