<!-- by TradingView --><svg width="56" height="56" viewBox="0 0 56 56" xmlns="http://www.w3.org/2000/svg"><path fill="#F0F3FA" d="M0 0h56v56H0z"/><path d="M37.38 21.7c-6.62-.72-16.12 3.84-20.04 6.2 2.18-9.32 4.8-11.98 6.1-12.87 1.3-.88 2.62-2.22 8.28-3.55 4.53-1.06 5.37.45 5.23 1.33l.43 8.88Z"/><path d="M38.69 15.48c-1.96-5.2-3.05-4.44-5.23-4.44 3.49.35 2.33 4.29 1.3 6.21L22.58 41.22c1.02 0 4.88.1 8.71.45 3.84.35 6.54-2.81 7.41-4.44l3.05-4.88c1.74-2.84 1.3-5.33.87-6.22-.58-1.63-2.18-6.04-3.92-10.65Z" fill="url(#allg3ztae)"/><path d="M31.23 24.2c3.33-4.55 5.72-9.4 5.72-11.83 0-.1-.02-.18-.05-.26-.47-1.32-1.87-1.07-3-1.07l-.02.06c2.97.62 1.86 4.31.89 6.15l-3.54 6.95Z" fill="#00CDFF"/><path d="M19.96 19.92c2.09-4.26 3.05-4.59 3.48-4.89-4.35 5.77-2.61 12.88-.43 18.2 1.74 4.27 7.4 7.4 10.02 8.44-3.34.44-10.8 1.33-13.94 1.33-3.14 0-4.41-.44-5.23-1.78-1.74-2.84-.44-7.1.43-8.87.88-1.93 3.58-8.17 5.67-12.43Z" fill="url(#bllg3ztae)"/><path d="M20.83 18.14c-.5 1.08-.76 2.23-.87 3.55-.44 5.33.43 11.99 3.48 15.1 2.96 3.01 4.7 4.77 9.58 4.87-2.62-1.04-8.27-4.17-10.01-8.43-2.18-5.32-3.92-12.43.43-18.2l-.12.08c-.4.25-1.2.75-2.5 3.03Z" fill="url(#cllg3ztae)"/><defs><linearGradient id="allg3ztae" x1="38.25" y1="15.03" x2="30.14" y2="41.14" gradientUnits="userSpaceOnUse"><stop stop-color="#AFAFAF"/><stop offset=".22" stop-color="#53494A"/><stop offset="1"/></linearGradient><linearGradient id="bllg3ztae" x1="19.52" y1="19.92" x2="24.95" y2="42.3" gradientUnits="userSpaceOnUse"><stop/><stop offset=".27" stop-color="#8D9391"/><stop offset=".4" stop-color="#71716F"/><stop offset=".72"/></linearGradient><linearGradient id="cllg3ztae" x1="22.57" y1="15.48" x2="36.98" y2="38.36" gradientUnits="userSpaceOnUse"><stop stop-color="#00D5D0"/><stop offset=".27" stop-color="#00D5B0"/><stop offset=".4" stop-color="#00C564"/><stop offset=".72" stop-color="#00B6FF"/><stop offset="1" stop-color="#0101AF"/></linearGradient></defs></svg>