<!-- by TradingView --><svg width="56" height="56" viewBox="0 0 56 56" xmlns="http://www.w3.org/2000/svg"><path fill="#F0F3FA" d="M0 0h56v56H0z"/><path d="m34.57 34.89 1.27 3.5c.3.84.62 1.78.93 2.61 0 0-3.84-.04-4.34 0l-2.13-6H18.5l-2.17 6H12l10.67-28h3.46s1.16 3.23 1.9 4.78l1.93 5.13c.36 1 .71 2.01 1.1 3 .67 1.75 1.37 3.5 2.05 5.24l1.46 3.74ZM28.91 31c-.28-.85-.47-1.57-.9-2.32a75.32 75.32 0 0 0-1.96-5.44c-.4-1.6-1.05-3.1-1.64-4.88-1.56 4.37-3.04 8.43-4.54 12.64h9.04Z" fill="#F95F32"/><path d="M29.92 22.9 28 17.77l1.7-4.32.19-.45h3.46L44 41h-4.36c-.72-2.03-1.44-3.96-2.17-6h-2.94s-.98-2.75-1.46-4h3.06c-1.5-4.26-2.98-8.27-4.5-12.55-.67 1.52-1.03 3.04-1.7 4.45ZM21.53 35h4.15l-2.1 6h-4.32c.69-2.09 1.52-3.99 2.27-6ZM23.02 31l2.33-6.12c.21-.55.36-1.12.67-1.64.74 1.78 1.36 3.6 1.97 5.44-.3.8-.6 1.51-.88 2.32h-4.09Z" fill="#112356"/></svg>