<!-- by TradingView --><svg xmlns="http://www.w3.org/2000/svg" width="56" height="56" viewBox="0 0 56 56"><path fill="#F0F3FA" d="M0 0h56v56H0z"/><path d="M21.33 22.8l-1.67-3.76a9.14 9.14 0 0 0-4.8 3.35 9.42 9.42 0 0 0 0 11.23 9.14 9.14 0 0 0 4.8 3.34l1.67-3.72a12.84 12.84 0 0 0 0-10.44z" fill="#D8354C"/><path d="M44.78 26.09L20.6 12.18a2.06 2.06 0 0 0-2.3.43 2.14 2.14 0 0 0-.46 2.34l1.81 4.08a8.98 8.98 0 0 1 8 1.53A9.27 9.27 0 0 1 31.28 28a9.45 9.45 0 0 1-3.63 7.42 9.06 9.06 0 0 1-8 1.53l-1.79 4.02a2.19 2.19 0 0 0 .44 2.42 2.1 2.1 0 0 0 2.38.42l24.1-13.85A2.1 2.1 0 0 0 46 28.02a2.16 2.16 0 0 0-1.22-1.93z" fill="#DA2027"/></svg>