<!-- by TradingView --><svg width="56" height="56" viewBox="0 0 56 56" xmlns="http://www.w3.org/2000/svg"><path fill="#F0F3FA" d="M0 0h56v56H0z"/><g opacity=".8"><ellipse cx="27.99" cy="28" rx="14.99" ry="17" fill="url(#aipn4jthi)"/><ellipse cx="27.99" cy="28" rx="13.72" ry="15.56" fill="url(#bipn4jthi)"/><ellipse cx="27.99" cy="28" rx="12.48" ry="14.16" fill="url(#cipn4jthi)"/><ellipse cx="27.99" cy="28.4" rx="11.36" ry="12.48" fill="url(#dipn4jthi)"/><ellipse cx="27.99" cy="28.62" rx="9.78" ry="10.47" fill="url(#eipn4jthi)"/><ellipse cx="27.99" cy="28.79" rx="7.35" ry="8.34" fill="#E22A2C"/><ellipse cx="27.99" cy="29.32" rx="5.23" ry="5.4" fill="#F76156"/><ellipse cx="27.99" cy="29.92" rx="3.96" ry="3.7" fill="#E8C8B1"/><ellipse cx="27.99" cy="29.92" rx="2.8" ry="2.62" fill="#FFF3EA"/></g><path d="M29.17 45h-5.1c-.17-1.28-.15-4.37 1.27-6.14 2.42-3.23 10.35-3.43 13.66-3.31 0-2.49 0-8.07-5.17-8.07s-4.66 2.83-4.31 3.3c.35.45.86 2.72-1.75 2.72-2.1 0-2.42-1.73-2.32-2.6 0-4 5.59-4.93 8.38-4.9 7.8 0 9.36 4.7 9.15 7.04V44.9H36.4a7.9 7.9 0 0 0 2.6-4.29v-3.96c-5.74-.38-9.64 2.02-9.97 4.2-.26 1.75-.02 3.53.14 4.15Z" fill="#F0F3FA"/><defs><linearGradient id="aipn4jthi" x1="27.99" y1="11" x2="27.99" y2="45" gradientUnits="userSpaceOnUse"><stop stop-color="#D9A1BA" stop-opacity=".7"/><stop offset="1" stop-color="#DA0E6D"/></linearGradient><linearGradient id="bipn4jthi" x1="27.99" y1="12.44" x2="27.99" y2="43.56" gradientUnits="userSpaceOnUse"><stop stop-color="#E3BFD3"/><stop offset="1" stop-color="#EB2848"/></linearGradient><linearGradient id="cipn4jthi" x1="27.99" y1="13.84" x2="27.99" y2="42.16" gradientUnits="userSpaceOnUse"><stop stop-color="#E5A8B9"/><stop offset="1" stop-color="#C44056"/></linearGradient><linearGradient id="dipn4jthi" x1="27.99" y1="12.82" x2="27.99" y2="40.89" gradientUnits="userSpaceOnUse"><stop stop-color="#D21531" stop-opacity="0"/><stop offset=".76" stop-color="#D21531"/></linearGradient><linearGradient id="eipn4jthi" x1="31.49" y1="40.05" x2="29.7" y2="13.67" gradientUnits="userSpaceOnUse"><stop stop-color="#BF2138"/><stop offset=".59" stop-color="#BF2138" stop-opacity=".41"/><stop offset="1" stop-color="#BF2138" stop-opacity="0"/></linearGradient></defs></svg>