<!-- by TradingView --><svg width="56" height="56" viewBox="0 0 56 56" xmlns="http://www.w3.org/2000/svg"><path fill="#F0F3FA" d="M0 0h56v56H0z"/><path d="M47.67 35A19.61 19.61 0 0 0 33 16h.23c8.4.95 16.61 8.64 16.77 19h-2.33ZM45.97 34.49 46 35H6l.02-.45c.03-.4.06-.55.06-.55h39.84s.04.25.05.49Z" fill="#003A70"/><path d="M45.87 32.5c.09.28.13.5.13.5H10l.12-.45c.14-.5.17-.55.17-.55h35.4c.02 0 .1.2.18.5Z" fill="#003A70"/><path d="M37.55 30a15.49 15.49 0 0 0-14.4-10C15.48 20 9 25.39 8 33H6c1.05-9.53 9.67-17 19.85-17 9 0 16.64 5.72 19.15 14h-7.45Z" fill="#003A70"/></svg>