<!-- by TradingView --><svg width="56" height="56" xmlns="http://www.w3.org/2000/svg"><path fill="#0186C9" d="M0 0h56v56H0z"/><path d="M47 20.442v15.117c0 .244-.186.44-.415.44h-4.172c-.227 0-.413-.196-.413-.44V20.442c0-.244.184-.442.412-.442h4.172c.23 0 .416.198.416.442zM31 28.27c0 2.988 1.804 3.732 4.345 3.732h4.26c.214 0 .395.195.395.44 0 .061-.016.116-.039.173l-1.168 3.118a.408.408 0 01-.368.266L34.602 36c-5.929 0-8.606-2.773-8.606-7.469v-1.064c0-4.694 2.677-7.467 8.606-7.467h3.823c.161 0 .303.11.368.267l1.175 3.13a.44.44 0 01.031.171c0 .244-.173.432-.387.432h-4.26c-2.54 0-4.352.72-4.352 3.706v.565zM7.42 36a.43.43 0 01-.42-.442c0-.034.005-.107.047-.204l6.672-15.1a.421.421 0 01.376-.252h4.49c.234 0 .418.201.418.443a.431.431 0 01-.029.166l-6.688 15.135a.418.418 0 01-.378.254H7.42zM21.24 36a.401.401 0 01-.368-.263l-2.832-6.824a.506.506 0 01-.04-.198c0-.032 0-.118.044-.206l2.177-5.254c.062-.149.2-.255.363-.255.16 0 .3.106.365.26l5.01 12.093a.508.508 0 01.037.192c0 .252-.182.455-.405.455h-4.352z" fill="#F6F8FD"/></svg>