<!-- by TradingView --><svg xmlns="http://www.w3.org/2000/svg" width="56" height="56" viewBox="0 0 56 56"><path fill="#023C6A" d="M0 0h56v56H0z"/><path d="M36.54 32h2.43l2.24-10H38.8l-2.25 10zm5.7-8.24h2.43l.4-1.76h-2.43l-.4 1.76zM40.4 32h2.42l1.58-7h-2.43l-1.57 7zm8.68-7.5c-2.06 0-3.63.04-4.14 2.4-.32 1.5.08 2.18 3.16 2.18.84 0 1.26 0 1.1.73-.11.57-.3.64-1.4.64-.57 0-1.15 0-1.03-.73h-2.43C43.88 32 45.5 32 47.37 32h.1c1.94 0 3.68-.32 4.14-2.47.44-2.06-.64-2.2-3.14-2.25-1.23-.03-1.2-.28-1.13-.64v-.01c.1-.43.14-.63 1.4-.63.36 0 .85.05.85.59h2.3l.06-.27c.39-1.8-1.53-1.82-2.88-1.82zM7.43 30.45c-.37 0-1.06 0-.89-.8.15-.67.63-.76 1.23-.76h1.32l-.14.67c-.17.76-.5.89-1.52.89zm1.5-5.95H8.9c-1.72 0-3.38 0-3.87 2.26h2.43c.14-.65.55-.76 1.16-.76 1.06 0 1 .4.86 1.08l-.1.48H7.25c-1.75 0-2.78.5-3.15 2.16C3.68 31.6 4.6 32 6.3 32c.84 0 1.98-.17 2.38-1.17h.08L8.44 32h2.43l.98-4.66c.55-2.53-.43-2.84-2.92-2.84zm9.5 0h3.18l-3.58 3.77-1.05-2.12 1.46-1.65zm-5.37 0h3.18l.74 1.65L15 28.27l-1.94-3.77zm3.7 7.5l-.71-1.6-1.4 1.6h-3.22L15 28.27l1.05 2.13 1.98-2.13L19.97 32h-3.22zm17.07-4.66c.24-1.1-.16-1.16-.97-1.16-.86 0-1.17.2-1.4 1.16h2.37zm-1.82 2.98c.72 0 1.2-.07 1.39-.77h2.38c-.24 1.05-.74 1.66-1.43 2.02-.71.35-1.63.43-2.7.43-2.92 0-3.4-1-2.82-3.74.6-2.82 1.45-3.76 4.43-3.76 2.77 0 3.44.77 2.8 3.76l-.09.4h-4.8c-.28 1.29-.16 1.66.84 1.66zM25.25 29c-.17.77-.34 1.16-1.37 1.16-.91 0-1.07-.18-.7-1.9.35-1.68.66-1.91 1.52-1.91.5 0 .78.05.91.2.14.16.13.4.03.79h2.43c.56-2.61-.85-2.84-2.98-2.84-3.03 0-3.8 1.27-4.34 3.76-.62 2.9-.13 3.74 2.74 3.74 1.3 0 2.21-.07 2.86-.49.64-.38 1.03-1.25 1.32-2.51h-2.42z" fill="#fff"/></svg>