<!-- by TradingView --><svg xmlns="http://www.w3.org/2000/svg" width="56" height="56"><path fill="#0079C0" d="M0 0h56v56H0z"/><path fill-rule="evenodd" d="M8 36l2.53-16h5.96L19 36h-3.09l-.68-4h-3.45l-.64 4H8zm4.24-7l1.26-6.5 1.33 6.5h-2.59zM30 22.39V26h-3v-2.37c0-.47-.43-.63-.66-.63h-1.67c-.52.02-.67.4-.67.63v8.6c0 .63.43.76.66.77h1.74c.37-.01.6-.37.6-.76V30h3v3.08c0 2.29-2.1 2.92-3.06 2.92h-2.8c-2.45-.1-3.15-1.85-3.14-2.7V22.56c.23-2.01 2.23-2.55 3.14-2.57h2.64c2.53 0 3.26 1.63 3.22 2.39zM32 36V20h5.74l1.76 12.48L41.3 20H47v16h-3V22.57L41.5 36h-4L35 22.57V36h-3z" fill="#fff"/></svg>