<!-- by TradingView --><svg width="56" height="56" viewBox="0 0 56 56" xmlns="http://www.w3.org/2000/svg"><path fill="url(#aj03z501n)" d="M0 0h56v56H0z"/><path fill-rule="evenodd" d="m10 40.47 10.02-23.81a3.85 3.85 0 0 1 3.35-2.17c2.04-.12 3.07 1.58 3.33 2.44-.01.25-.16.8-.64.98-.48.18-.97-.27-1.16-.53-.38-.68-1.5-1.74-2.84-.45l-6.24 14.44c.8-.87 3.49-2.6 7.74-2.6s7.39 2.99 8.43 4.48c1.5 2.07 5.58 6.14 9.94 5.87-2.94-1.94-9.95-8.16-14.5-17.5l-2.79 6.32a.96.96 0 0 1-1.27.17c-.57-.38-.36-1.1-.18-1.42l5.37-12.75A4.1 4.1 0 0 1 32 12c2-.08 3.15 1.63 3.47 2.5L46 39.5c-.87 1.2-4.12 2.82-10.22-.4a18.06 18.06 0 0 1-5.16-4.69c-2.67-3.42-5.78-3.83-7.06-3.83l-1.95 4.61A9.23 9.23 0 0 1 10 40.47Zm18.28-21.11 1.8-4.23c.18-.41.78-1.24 1.86-1.24s1.7 1.09 1.89 1.63l9.4 22.25c-2.15-1.41-7.53-6-11.75-13l-3.2-5.41Zm-15.7 19.7c.82-2.37 3.73-7.33 8.76-8.26l-1.55 3.99a7.36 7.36 0 0 1-7.2 4.26Z" fill="#fff"/><defs><linearGradient id="aj03z501n" x1="28" y1="0" x2="28" y2="56" gradientUnits="userSpaceOnUse"><stop stop-color="#5AB54C"/><stop offset="1" stop-color="#3570B2"/></linearGradient></defs></svg>