<!-- by TradingView --><svg xmlns="http://www.w3.org/2000/svg" width="56" height="56"><path fill="#372341" d="M0 0h56v56H0z"/><path d="M19 33.91h.63V36h.39v-2.09h.63v-.41H19v.41zm4.37.56h-1.24v-.97h-.39V36h.39v-1.16h1.24V36h.39v-2.5h-.39v.97zm2.12.37h.76v-.37h-.76v-.56h1v-.41H25.1V36h1.42v-.41h-1.03v-.75zm2.6-.93h.43c.16 0 .22.04.26.08.05.05.08.12.08.2 0 .07-.03.15-.08.2-.04.04-.1.08-.26.08h-.44v-.56zm.92.79a.65.65 0 00.24-.51.67.67 0 00-.24-.51.7.7 0 00-.47-.18h-.84V36h.38v-1.16h.23l.83 1.16h.46l-.84-1.18a.58.58 0 00.25-.12zm2.8.3h-.63l.32-.8.32.8zm-.18-1.5h-.27l-.98 2.5h.4l.24-.65h.95l.24.65h.4l-.98-2.5zm2.42.41h.5c.14 0 .23.03.3.1.05.06.08.13.08.21 0 .08-.03.16-.09.22-.06.07-.15.1-.28.1h-.51v-.63zm1.03-.21a.74.74 0 00-.5-.2h-.91V36h.38v-1.09h.52c.22 0 .38-.05.5-.16a.7.7 0 00.24-.53.7.7 0 00-.23-.52zm1.76 1.14h.77v-.37h-.77v-.56h1v-.41h-1.38V36h1.41v-.41h-1.03v-.75zm3.76.13c0 .2-.04.34-.14.45a.6.6 0 01-.47.2.6.6 0 01-.46-.2c-.1-.1-.14-.25-.14-.45V33.5H39v1.45c0 .3.08.54.25.73A1 1 0 0040 36a1 1 0 00.74-.32c.17-.19.25-.43.25-.73V33.5h-.38v1.47zm1.4-1.06h.64V36h.38v-2.09h.63v-.41H42v.41zM44.8 36h.38v-2.5h-.38V36zm3.43-.7a.84.84 0 01-.65.32c-.5 0-.85-.36-.85-.87 0-.5.35-.87.82-.87.23 0 .47.1.6.26l.03.02.26-.27-.02-.01c-.21-.24-.54-.38-.87-.38-.69 0-1.2.54-1.2 1.25 0 .72.51 1.25 1.23 1.25.36 0 .71-.17.92-.45l.02-.02-.28-.25-.01.02zm2.47-.58a2.1 2.1 0 00-.35-.18c-.22-.1-.44-.19-.44-.37 0-.2.18-.3.36-.3.14 0 .28.06.4.16l.02.02.23-.29-.02-.02a.97.97 0 00-.64-.24c-.41 0-.73.29-.73.66 0 .22.1.4.3.54.1.07.22.12.33.17.25.1.46.2.46.42 0 .2-.16.33-.37.33a.72.72 0 01-.55-.3l-.02-.02-.27.27.02.02c.2.27.5.41.83.41.44 0 .75-.3.75-.72 0-.23-.1-.42-.31-.56z" fill="#fff"/><path d="M5.97 30.98a10.46 10.46 0 003.65 4.31c.26-.46.44-.95.53-1.46a9.2 9.2 0 01-3.4-5.36 4.64 4.64 0 00-1.6-.13c.16.91.43 1.8.82 2.64" fill="#FAB20B"/><path d="M7.66 19.54a10.62 10.62 0 00-2.63 7.83 4.65 4.65 0 001.51-.51 9.03 9.03 0 012-6.05c-.22-.46-.51-.9-.88-1.27z" fill="#F7960F"/><path d="M8.35 18.84c.38.35.8.63 1.27.83a9.2 9.2 0 016.07-2.3c.2-.42.33-.87.4-1.35a10.52 10.52 0 00-7.74 2.82zm8.8-1.34a9.12 9.12 0 015.53 3.4c.5-.1.97-.3 1.41-.57a10.56 10.56 0 00-7.07-4.25c-.03.49.02.96.13 1.42" fill="#F16319"/><path d="M43.65 23a.8.8 0 100-1.6.8.8 0 000 1.6zM26.7 22v9H28v-9h-1.3zm-10.4 4.34v2.22c-.45.72-1.1 1.15-1.87 1.15a2.17 2.17 0 01-2.13-2.21c0-.7.32-1.34.8-1.74.37-.3.85-.47 1.32-.47 1.02 0 1.65.7 1.88 1.05zm0-2.34v.64a3.1 3.1 0 00-1.9-.64c-.77 0-1.55.27-2.15.76A3.57 3.57 0 0011 27.5a3.43 3.43 0 003.45 3.5c.73 0 1.32-.23 1.85-.64V31h1.4v-7h-1.4zm7.95 4.94l.2-.2.95.9-.18.2a3.66 3.66 0 01-5.12.22A3.41 3.41 0 0119 27.5c0-1.96 1.52-3.5 3.46-3.5.98 0 1.86.36 2.54 1.04l.19.19-.85.97-.21-.2a2.33 2.33 0 00-1.67-.7 2.2 2.2 0 00-2.16 2.2c0 1.24 1.01 2.2 2.27 2.2.63 0 1.2-.26 1.68-.76zm17.46-4.9a3.42 3.42 0 00-2.41.52V24H38v7h1.3v-4.52a2.13 2.13 0 011.86-1.16h.34l.3.05.2-1.3-.29-.04zM43 31v-7h1.3v7H43zm4.58-4.93c0 .36.46.52 1.22.74.93.27 2.2.64 2.2 2.06 0 1.23-.98 2.13-2.33 2.13-.96 0-1.85-.34-2.49-.95l-.18-.18.79-1.03.2.19c.36.3.93.68 1.63.68.53 0 1.08-.28 1.08-.8 0-.5-.49-.66-1.31-.9-.94-.26-2.1-.58-2.1-1.93 0-1.3 1.17-2.08 2.3-2.08 1 0 1.71.4 2.06.64l.21.16-.67 1.1-.23-.15c-.47-.31-.78-.46-1.34-.46-.42 0-1.04.2-1.04.78zM34.6 28.56v-2.22a2.32 2.32 0 00-1.88-1.05c-.47 0-.95.17-1.32.47-.48.4-.8 1.03-.8 1.74a2.17 2.17 0 002.13 2.2c.77 0 1.42-.42 1.87-1.14zm0-3.92V24H36v7h-1.4v-.64c-.53.4-1.12.64-1.86.64a3.4 3.4 0 01-3.44-3.5c0-1.07.46-2.07 1.25-2.74.6-.49 1.38-.76 2.15-.76.73 0 1.34.23 1.9.64z" fill="#fff"/></svg>