<!-- by TradingView --><svg width="56" height="56" viewBox="0 0 56 56" xmlns="http://www.w3.org/2000/svg"><path fill="#F0F3FA" d="M0 0h56v56H0z"/><path d="M21.32 17.8c-.07.64.36 1.24.97 1.32.36.04.7-.1.93-.34.17-.18.28-.42.32-.7.07-.64-.36-1.24-.98-1.32a1.13 1.13 0 0 0-1.24 1.04Zm13.05 1.56c-.61.03-1.13-.48-1.16-1.14-.01-.34.12-.66.33-.89.19-.2.45-.33.74-.34.62-.03 1.13.48 1.16 1.13.03.66-.45 1.21-1.07 1.24Zm2.23-1.62c.29-.3.7-.42 1.11-.3.6.19.93.85.75 1.48-.17.62-.79.98-1.38.8a1.2 1.2 0 0 1-.75-1.48c.05-.2.15-.36.27-.5Zm-6.09.27c-.3.32-.41.82-.25 1.27.23.6.87.9 1.44.67.58-.24.86-.92.64-1.53a1.1 1.1 0 0 0-1.44-.67c-.15.06-.28.15-.39.26Zm9.01 2.97c.5.38 1.2.26 1.56-.27.36-.54.24-1.28-.26-1.66a1.07 1.07 0 0 0-1.44.13l-.12.15c-.35.53-.24 1.27.26 1.65ZM29.5 19.77c.4.5.34 1.25-.13 1.67-.47.42-1.18.36-1.57-.14a1.24 1.24 0 0 1 .13-1.66 1.07 1.07 0 0 1 1.57.13Zm-3.64 2.43c.35-.37.91-.46 1.36-.18.52.34.7 1.07.39 1.62-.32.57-1 .75-1.53.42a1.22 1.22 0 0 1-.22-1.86Zm-1.12 3.07c-.15.15-.26.36-.3.59-.13.64.25 1.27.86 1.4.6.13 1.19-.28 1.32-.92a1.18 1.18 0 0 0-.87-1.4c-.38-.08-.76.05-1.01.33Zm16.37 8.48c.4-.43 1.06-.46 1.5-.06.48.42.54 1.17.14 1.67s-1.1.56-1.57.14a1.23 1.23 0 0 1-.07-1.75Zm-2.14 1.95a1.2 1.2 0 0 0-.22.18c-.35.38-.43.97-.16 1.45.31.56 1 .74 1.52.4.53-.33.7-1.06.39-1.62-.32-.56-1-.74-1.53-.4Zm-13.43-5.14c-.61.08-1.17-.38-1.25-1.03-.04-.38.09-.73.32-.98.17-.18.4-.3.65-.34.61-.08 1.17.38 1.25 1.03.07.65-.36 1.24-.97 1.32Zm9.14 7.64c.07-.64-.36-1.24-.97-1.32-.35-.04-.69.1-.92.34a1.2 1.2 0 0 0-.32.7c-.07.64.36 1.24.97 1.32.61.07 1.17-.39 1.24-1.04Zm3.07-.53c.13.64-.26 1.27-.86 1.4-.6.14-1.19-.27-1.31-.9-.08-.41.04-.82.3-1.09.15-.16.33-.27.55-.32.6-.13 1.2.27 1.32.91Zm6.29-11.24c.59-.19.93-.85.75-1.48a1.1 1.1 0 0 0-1.39-.8c-.18.07-.34.17-.47.3-.28.3-.4.75-.28 1.18.18.62.8.98 1.39.8Zm-2.47-4.92a1.07 1.07 0 0 1 1.7.14c.35.54.24 1.27-.26 1.65-.5.38-1.2.26-1.55-.27a1.24 1.24 0 0 1 .11-1.52Zm2.58 5.86c.62.02 1.1.58 1.07 1.23-.03.65-.54 1.16-1.16 1.14-.61-.03-1.09-.58-1.07-1.23.02-.31.14-.6.33-.8.21-.22.5-.35.83-.34Zm-1.08 5.5a1.1 1.1 0 0 0 1.44-.67c.23-.61-.06-1.3-.63-1.54a1.07 1.07 0 0 0-1.2.27c-.1.11-.18.25-.24.4-.22.62.06 1.3.63 1.54Zm-15 3.5a1.24 1.24 0 0 0 .13-1.67c-.4-.5-1.1-.56-1.56-.13a1.24 1.24 0 0 0-.13 1.66c.4.5 1.1.56 1.57.14Zm2.07-2.57c-.35.37-.9.46-1.36.18a1.23 1.23 0 0 1-.38-1.62c.31-.57 1-.75 1.53-.42a1.22 1.22 0 0 1 .21 1.86Zm1.13-3.07c.14-.15.25-.36.3-.59.13-.64-.26-1.27-.86-1.4-.6-.13-1.2.28-1.32.92-.13.64.26 1.27.86 1.4.38.08.76-.05 1.02-.33ZM14.9 22.24c-.41.44-1.07.47-1.51.07a1.23 1.23 0 0 1-.13-1.67c.4-.5 1.1-.56 1.57-.13.47.42.53 1.17.13 1.66l-.06.07Zm2.52-3.57c-.32-.56-1-.74-1.53-.4-.53.33-.7 1.06-.38 1.62a1.08 1.08 0 0 0 1.74.23c.35-.38.44-.97.17-1.45Zm13.05 6.77c.6-.08 1.16.38 1.24 1.03.04.38-.08.73-.32.98-.17.18-.39.3-.65.34-.6.08-1.16-.38-1.24-1.03-.07-.65.36-1.24.97-1.32Zm-12.22-7.11c-.13-.64.26-1.27.86-1.4.6-.14 1.2.27 1.32.9.07.41-.05.82-.3 1.09-.16.16-.34.27-.57.32-.6.13-1.19-.27-1.31-.91ZM12.6 31.84c.18-.06.34-.16.47-.3.28-.3.4-.74.28-1.17a1.1 1.1 0 0 0-1.39-.8c-.59.19-.92.85-.75 1.48.18.62.8.98 1.39.8Zm1.83 2.65a1.07 1.07 0 0 1-1.7-.15A1.23 1.23 0 0 1 13 32.7c.5-.38 1.2-.26 1.56.27.32.48.26 1.12-.12 1.52Zm2.05.53c-.5-.38-1.2-.26-1.56.27-.36.53-.24 1.28.26 1.66.45.34 1.06.27 1.44-.13l.12-.15c.35-.53.24-1.27-.26-1.65ZM13 27.5a1.2 1.2 0 0 1-.33.79c-.2.22-.5.36-.83.34-.62-.03-1.1-.58-1.07-1.23.03-.65.55-1.16 1.16-1.13.62.02 1.1.57 1.07 1.23Zm12.48 10.49c.3-.32.42-.82.25-1.27a1.1 1.1 0 0 0-1.44-.67c-.57.24-.86.92-.63 1.53.22.61.87.91 1.44.68.15-.07.27-.16.38-.27Zm-7.95-.9c.17-.63.8-.99 1.38-.8.6.18.93.84.76 1.46-.06.2-.15.37-.28.5-.28.3-.7.43-1.1.3a1.2 1.2 0 0 1-.76-1.47Zm-4.6-13.96c-.58-.24-1.23.06-1.45.67-.22.61.06 1.3.63 1.54.43.17.9.05 1.2-.27a1.21 1.21 0 0 0-.38-1.95Zm8.69 13.5c.61-.02 1.13.49 1.16 1.14.01.35-.11.67-.33.9-.19.2-.45.32-.74.34-.61.02-1.13-.49-1.16-1.14-.02-.65.45-1.2 1.07-1.23Z" fill="#EE723C"/><path d="M35.17 15.95c.51.02.93-.4.95-.95.01-.54-.39-.99-.9-1a.88.88 0 0 0-.61.23 1 1 0 0 0-.33.72c-.01.54.38.98.9 1Zm-4.14-.37a1 1 0 0 1-.5 1.27.9.9 0 0 1-1.2-.53c-.15-.4-.03-.85.26-1.11a.9.9 0 0 1 1.44.37Zm-2.58 2.47c.42-.3.53-.91.24-1.35a.89.89 0 0 0-1.35-.2c-.36.33-.43.89-.17 1.3.3.44.86.56 1.28.25Zm-1.8 1.64c.34-.4.33-1.01-.04-1.38a.88.88 0 0 0-1.27 0l-.03.03c-.34.39-.33 1 .03 1.38.37.37.96.36 1.3-.03ZM23.97 31.4a.98.98 0 0 1-.63 1.21.91.91 0 0 1-1.14-.66c-.1-.38.02-.78.29-1.02.1-.08.2-.15.34-.19.48-.15 1 .14 1.14.66ZM41.2 38l.07-.06c.42-.3.99-.2 1.28.25.28.44.18 1.05-.24 1.35-.42.3-.99.2-1.27-.24-.27-.42-.2-.98.16-1.3Zm3.5-3.93a.88.88 0 0 1 1.08-.09c.43.29.57.89.3 1.35a.89.89 0 0 1-1.26.32 1.01 1.01 0 0 1-.11-1.58ZM23.83 20.43a1 1 0 0 0 .12 1.57c.43.28 1 .14 1.26-.32a1 1 0 0 0-.3-1.34.88.88 0 0 0-1.08.09Zm19.31 15.82.03-.02a.89.89 0 0 1 1.23.04c.36.37.38.98.03 1.38-.35.39-.93.4-1.3.03a1.02 1.02 0 0 1 .01-1.43Zm-3.93 2.9a.93.93 0 0 0-.24.15c-.3.27-.41.72-.26 1.12.2.5.73.73 1.2.53a1 1 0 0 0 .5-1.28c-.2-.5-.73-.73-1.2-.53ZM23.55 28.91c.04.54-.34 1-.85 1.05-.5.04-.94-.36-.98-.9a1 1 0 0 1 .32-.82.88.88 0 0 1 .52-.22c.51-.05.95.36 1 .9Zm13.37 10.94a.9.9 0 0 0-.43.21 1 1 0 0 0-.3.92c.09.53.56.88 1.06.78.5-.1.83-.6.74-1.13a.92.92 0 0 0-1.07-.78ZM23.62 26.4c-.07.53-.53.91-1.04.84-.5-.07-.85-.56-.78-1.1a.98.98 0 0 1 .31-.6.87.87 0 0 1 .72-.23c.5.07.85.56.79 1.1Zm0-3.7a.86.86 0 0 0-.9.19 1 1 0 0 0 .29 1.66c.47.18 1-.1 1.16-.6a1 1 0 0 0-.55-1.24Zm10.32 17.58a.88.88 0 0 1 .62-.23c.5.02.9.46.9 1-.02.54-.44.97-.95.95-.5-.01-.9-.46-.9-1a1 1 0 0 1 .33-.72Zm-1.73-.56a.88.88 0 0 0-.8.2.98.98 0 0 0-.3.52.98.98 0 0 0 .67 1.18c.5.12.99-.2 1.11-.72.11-.53-.19-1.05-.68-1.18Zm13.96-12.66a1 1 0 0 1 .32-.81.88.88 0 0 1 .52-.23c.5-.04.95.36.99.9.04.53-.34 1-.85 1.04a.94.94 0 0 1-.98-.9Zm-1.33-4.8a.9.9 0 0 0 1.24.39 1 1 0 0 0 .37-1.33.89.89 0 0 0-1.4-.27c-.33.3-.42.8-.21 1.2Zm1.19 1.3a.9.9 0 0 1 .33-.18c.49-.16 1 .14 1.14.66a.98.98 0 0 1-.62 1.21.91.91 0 0 1-1.14-.66c-.1-.38.02-.78.29-1.02Zm1.1 5.19a.88.88 0 0 0-.71.22c-.17.15-.28.37-.32.61-.06.54.29 1.03.8 1.1.5.07.95-.3 1.02-.84.07-.53-.28-1.02-.78-1.1Zm-1.3 2.87c.23-.22.57-.3.9-.18.47.18.72.74.55 1.24a.9.9 0 0 1-1.17.6 1 1 0 0 1-.29-1.66Zm-.94-12.7c.33.4.28 1.02-.1 1.37a.88.88 0 0 1-1.3-.1 1.02 1.02 0 0 1 .1-1.39.88.88 0 0 1 1.3.12ZM32.8 16.14c.5-.1.83-.6.74-1.13-.1-.53-.57-.88-1.07-.78-.16.03-.3.1-.43.21-.24.22-.37.57-.3.92.08.53.56.88 1.06.78Zm5.82-.58a.92.92 0 0 1-1.1.72.98.98 0 0 1-.69-1.17.98.98 0 0 1 .3-.52c.22-.19.52-.28.81-.2.5.12.8.65.68 1.17Zm3.15 2.88c.4.33.98.25 1.28-.18.31-.42.24-1.04-.16-1.37a.88.88 0 0 0-1.29.18c-.3.43-.23 1.04.17 1.37Zm-.8-1.77a.9.9 0 0 1-1.22.45 1 1 0 0 1-.2-1.62c.27-.24.65-.3.99-.14a1 1 0 0 1 .43 1.3Zm-7.81 8.59a.9.9 0 0 0 .33-.2c.27-.24.4-.63.3-1.01-.15-.52-.66-.82-1.15-.66a.98.98 0 0 0-.62 1.2.9.9 0 0 0 1.14.67Zm-18.41-7.23-.04.03c-.42.3-.98.2-1.27-.25a1.02 1.02 0 0 1 .23-1.35c.42-.3 1-.2 1.28.25a1.02 1.02 0 0 1-.2 1.32Zm14.6 18.28c-.35.4-.34 1.01.03 1.38.35.35.88.36 1.23.04l.07-.07c.35-.39.34-1-.03-1.38a.88.88 0 0 0-1.3.03ZM11.28 21.92a.88.88 0 0 1-1.07.1 1 1 0 0 1-.3-1.35.89.89 0 0 1 1.26-.32 1.01 1.01 0 0 1 .11 1.57Zm16.27 16.03c-.42.3-.52.91-.23 1.35a.89.89 0 0 0 1.35.2c.35-.33.43-.89.16-1.3a.89.89 0 0 0-1.28-.25Zm-2.58 2.47a1 1 0 0 1 .5-1.27.9.9 0 0 1 1.2.53c.15.4.03.85-.26 1.11a.9.9 0 0 1-1.44-.37Zm7.21-4.85a1 1 0 0 0-.12-1.57.89.89 0 0 0-1.25.32 1 1 0 0 0 .3 1.34c.35.23.78.18 1.07-.09ZM12.92 19.7l-.07.07a.88.88 0 0 1-1.23-.04 1.02 1.02 0 0 1-.03-1.38.88.88 0 0 1 1.3-.03c.36.37.37.99.03 1.38Zm3.88-2.84c.1-.04.18-.1.25-.16.3-.27.4-.72.25-1.12a.9.9 0 0 0-1.2-.53 1 1 0 0 0-.5 1.28c.2.5.74.74 1.2.53Zm15.65 10.22c-.04-.54.34-1 .85-1.05.5-.04.95.36.99.9a1 1 0 0 1-.33.82.88.88 0 0 1-.52.22c-.5.05-.95-.36-.99-.9ZM19.08 16.14a.9.9 0 0 0 .43-.21 1 1 0 0 0 .3-.92c-.09-.53-.56-.88-1.06-.78-.5.1-.83.6-.74 1.13.1.53.57.88 1.07.78Zm14.34 12.62c.5.07.85.56.78 1.1a.97.97 0 0 1-.31.6.87.87 0 0 1-.72.23c-.5-.07-.85-.56-.79-1.1.07-.52.53-.9 1.04-.83Zm-1.03 4.53c.32.13.66.05.9-.18a1 1 0 0 0-.29-1.66c-.47-.18-1 .1-1.17.6a1 1 0 0 0 .56 1.24ZM22.06 15.72a.88.88 0 0 1-.62.23c-.5-.02-.9-.46-.89-1 .02-.54.44-.97.94-.95.51.01.91.46.9 1a1 1 0 0 1-.33.72Zm1.73.56c.3.07.6-.01.81-.2.15-.14.25-.31.3-.52a.98.98 0 0 0-.68-1.18.92.92 0 0 0-1.1.72.98.98 0 0 0 .67 1.18ZM9.83 28.94a1 1 0 0 1-.32.81.86.86 0 0 1-.52.23.94.94 0 0 1-.99-.9c-.04-.53.34-1 .85-1.04.5-.04.94.36.98.9Zm1.33 4.8a.9.9 0 0 0-1.24-.39 1 1 0 0 0-.37 1.32.9.9 0 0 0 1.4.28c.33-.3.43-.8.21-1.2Zm-1.18-1.3a.9.9 0 0 1-.34.18c-.49.16-1-.14-1.14-.66a.99.99 0 0 1 .62-1.21.91.91 0 0 1 1.14.66c.1.38-.02.78-.28 1.02Zm-1.11-5.19c.27.04.52-.05.71-.22a1 1 0 0 0 .32-.61c.06-.54-.29-1.03-.8-1.1-.5-.07-.95.3-1.02.84a.96.96 0 0 0 .79 1.1Zm1.3-2.87a.88.88 0 0 1-.9.18 1 1 0 0 1-.55-1.24.9.9 0 0 1 1.17-.6 1 1 0 0 1 .29 1.66Zm10.66 15.67c-.5-.02-.93.41-.94.95-.02.54.38.99.89 1 .23 0 .45-.08.62-.23.2-.18.31-.43.32-.72a.95.95 0 0 0-.9-1Zm-9.72-2.97a1.02 1.02 0 0 1 .1-1.37.88.88 0 0 1 1.3.1c.33.42.28 1.04-.1 1.39a.88.88 0 0 1-1.3-.12Zm12.09 2.78c-.5.1-.83.6-.74 1.14.09.52.56.88 1.06.78.17-.03.31-.1.43-.22.24-.22.37-.56.31-.92a.92.92 0 0 0-1.07-.78Zm-5.83.58a.92.92 0 0 1 1.1-.72c.5.12.8.65.69 1.18a.98.98 0 0 1-.3.51.89.89 0 0 1-.81.2.98.98 0 0 1-.68-1.17Zm-3.14-2.88a.88.88 0 0 0-1.3.18c-.3.42-.23 1.04.18 1.37a.88.88 0 0 0 1.28-.18c.31-.43.24-1.04-.16-1.37Zm.79 1.77a.9.9 0 0 1 1.22-.45 1 1 0 0 1 .2 1.62.88.88 0 0 1-.99.14 1 1 0 0 1-.43-1.3Z" fill="#03476D"/></svg>