<!-- by TradingView --><svg width="56" height="56" xmlns="http://www.w3.org/2000/svg"><path fill="#F0F3FA" d="M0 0h56v56H0z"/><rect x="20" y="11" width="7" height="7" rx="1.5" fill="#153561"/><rect x="29" y="11" width="7" height="7" rx="1.5" fill="#153561"/><rect x="11" y="20" width="7" height="7" rx="1.5" fill="#153561"/><rect x="20" y="20" width="7" height="7" rx="1.5" fill="#153561"/><rect x="29" y="20" width="7" height="7" rx="1.5" fill="#EF331E"/><rect x="38" y="20" width="7" height="7" rx="1.5" fill="#153561"/><rect x="38" y="29" width="7" height="7" rx="1.5" fill="#EF331E"/><rect x="20" y="29" width="7" height="7" rx="1.5" fill="#EF331E"/><rect x="29" y="29" width="7" height="7" rx="1.5" fill="#153561"/><rect x="11" y="29" width="7" height="7" rx="1.5" fill="#153561"/><rect x="20" y="38" width="7" height="7" rx="1.5" fill="#153561"/><rect x="29" y="38" width="7" height="7" rx="1.5" fill="#EF331E"/><path d="M20 24.965C19.383 27.75 17.235 28.9 16.148 29l1.849 2.073c.466-2.734 3.093-3.92 4.327-4.073-.73-.735-2.248-2.035-2.324-2.035z" fill="#153561"/><path d="M29 24.97c-.617 2.785-2.765 3.934-3.852 4.034l1.849 2.074c.466-2.735 3.094-3.921 4.328-4.074-.73-.735-2.249-2.034-2.325-2.034zm6.997 0c.617 2.785 2.765 3.934 3.852 4.034L38 31.078c-.466-2.735-3.094-3.921-4.328-4.074.73-.735 2.249-2.034 2.325-2.034zm-8.999 9c.617 2.785 2.765 3.935 3.852 4.034l-1.849 2.074c-.466-2.735-3.093-3.921-4.327-4.074.73-.735 2.248-2.034 2.324-2.034z" fill="#EF331E"/></svg>