<!-- by TradingView --><svg width="56" height="56" viewBox="0 0 56 56" xmlns="http://www.w3.org/2000/svg"><path fill="#00D874" d="M0 0h56v56H0z"/><path d="M27.36 28.49h2c.12-.35.63-1.05 1.71-1.05 1.36 0 1.93.65 1.93 1.24V29l-3.14.18c-.95.03-2.86.44-2.86 1.91 0 .93.71 1.91 3.29 1.91 1.3 0 2.18-.43 2.71-.88.02.3.31.88 1.3.88.85 0 1.58-.15 1.7-.2v-1.3c-.24-.03-1-.19-1-.66V28.3c-.05-.76-.8-2.29-3.5-2.29-3.36 0-4.14 1.77-4.14 2.49ZM33 30.17c0 .13-.08.33-.3.65-.73 1.02-2.12 1.18-2.38 1.18-.26 0-1.32-.08-1.32-.87 0-.63.7-.84 1.06-.87l2.57-.23c.16-.05.37-.05.37.14ZM8 29v4h2v-4h4v-2h-4v-4H8v4H4v2h4ZM18 26v7h2v-4.44c.44-.45 1.1-.9 1.93-.9 1.57 0 2.07 1.2 2.07 1.54V33h2v-4c0-1-.67-3-3.35-3-1.07 0-1.98.34-2.65.86V26h-2Z" fill="#fff"/><path d="M11 23h5l-.77 2H11v-2ZM11 31h5l-.77 2H11v-2ZM44.97 30.5c-.5 1.45-2.06 2.5-3.9 2.5-2.25 0-4.07-1.57-4.07-3.5s1.82-3.5 4.07-3.5c1.84 0 3.4 1.05 3.9 2.5h-2.06c-.36-.6-1.04-1-1.82-1-1.15 0-2.09.9-2.09 2s.94 2 2.1 2c.77 0 1.45-.4 1.81-1h2.06ZM48 27.5v3.47c0 .68.3 2.03 2.07 2.03a19 19 0 0 0 1.93-.14v-1.48a4.5 4.5 0 0 1-1 .13c-.47 0-1-.27-1-.81v-3.2h1.2L52 26h-2v-2h-2v1.15c0 .45-.5.85-.93.85H46v1.5h2Z" fill="#fff"/></svg>