<!-- by TradingView --><svg width="56" height="56" viewBox="0 0 56 56" xmlns="http://www.w3.org/2000/svg"><path fill="#F0F3FA" d="M0 0h56v56H0z"/><path d="M40.64 16H41v4.71l-.18.03L35 22a6.03 6.03 0 0 1 5.64-6Z" fill="#58D3EE"/><path d="M41 16h.35A6.02 6.02 0 0 1 47 22l-6-1.29V16Z" fill="#04AFE5"/><path d="M41 25h1v9h-1v-9Z"/><path fill-rule="evenodd" d="M9.16 25.04c-.91-.11-1.87 0-2.7.42A4.4 4.4 0 0 0 4 29.17v.68A4.43 4.43 0 0 0 8.46 34c1.2.03 2.78-.58 3.54-1.56V34h1v-9h-1v1.54a5.43 5.43 0 0 0-2.84-1.5ZM8.5 33a3.5 3.5 0 1 0 0-7 3.5 3.5 0 0 0 0 7ZM27.16 25.04c-.91-.11-1.87 0-2.7.42A4.4 4.4 0 0 0 22 29.17v.68A4.43 4.43 0 0 0 26.46 34c1.2.03 2.78-.58 3.54-1.56V34h1v-9h-1v1.54a5.43 5.43 0 0 0-2.84-1.5ZM26.5 33a3.5 3.5 0 1 0 0-7 3.5 3.5 0 0 0 0 7ZM48.16 25.04c-.91-.11-1.87 0-2.7.42A4.4 4.4 0 0 0 43 29.17v.68A4.43 4.43 0 0 0 47.46 34c1.2.03 2.78-.58 3.54-1.56V34h1v-9h-1v1.54a5.43 5.43 0 0 0-2.84-1.5ZM47.5 33a3.5 3.5 0 1 0 0-7 3.5 3.5 0 0 0 0 7Z"/><path d="M18.34 25c-.93-.01-1.85.3-2.6.87a4.48 4.48 0 0 0-1.69 2.9 4.8 4.8 0 0 0 .4 2.78 4.37 4.37 0 0 0 4.45 2.42 4.3 4.3 0 0 0 2.6-1.3l-.44-.4-.35-.32A3.24 3.24 0 0 1 18.33 33 3.42 3.42 0 0 1 15 29.5c0-1.93 1.49-3.5 3.33-3.5.92 0 1.76.4 2.36 1.03a64.84 64.84 0 0 0 .83-.7c-.82-.86-2-1.36-3.18-1.33ZM36.34 25c-.93-.01-1.85.3-2.6.87a4.48 4.48 0 0 0-1.69 2.9 4.8 4.8 0 0 0 .4 2.78 4.37 4.37 0 0 0 4.45 2.42 4.3 4.3 0 0 0 2.6-1.3l-.44-.4-.35-.32A3.24 3.24 0 0 1 36.33 33 3.42 3.42 0 0 1 33 29.5c0-1.93 1.49-3.5 3.33-3.5.92 0 1.76.4 2.36 1.03a64.84 64.84 0 0 0 .83-.7c-.82-.86-2-1.36-3.18-1.33Z"/></svg>