<!-- by TradingView --><svg width="56" height="56" viewBox="0 0 56 56" xmlns="http://www.w3.org/2000/svg"><path fill="#F0F3FA" d="M0 0h56v56H0z"/><path d="m22.09 27-.3-.86H20.2l-.3.86H19l1.54-4h.92L23 27h-.91Zm-1.1-3.07-.56 1.74h1.14L21 23.93H21ZM24 25.47v.08c0 .57.16.85.61.85.34 0 .55-.13.55-.4h.85c-.01 1-1 1-1.4 1-.88 0-1.61-.52-1.61-1.45v-.08c0-.93.67-1.47 1.61-1.47.94 0 1.39.37 1.4 1h-.85c0-.3-.21-.4-.55-.4-.45 0-.61.3-.61.87ZM27.7 27c-.75 0-1.2-.4-1.2-1.2V24h1v1.8c0 .41.13.6.48.6.29 0 .38-.09.52-.24V24h1v3h-1v-.5c-.22.31-.37.5-.8.5Zm3.3 0h-1v-3h1v.48c.18-.32.42-.48.75-.48a1 1 0 0 1 .25.03l-.1.7-.34-.02c-.26 0-.46.1-.56.28V27Z" fill="#104684"/><path d="m33 24 .48.95h.02l.49-.95h.98L34 25.48 35 27h-.97l-.53-1-.52 1H32l1-1.52-.97-1.48H33Z" fill="#D40808"/><path d="M12.12 32c-.71 0-1.12-.32-1.12-.88s.53-.88 1.53-.88H13v-.23c0-.28-.14-.44-.46-.44-.31 0-.48.13-.48.35h-.9c0-.71.86-.91 1.42-.91.64 0 1.42.24 1.42.99v1.2c0 .27.03.57.13.8h-.93c-.2 0-.18-.35-.2-.5-.23.33-.48.5-.88.5Zm-.2-.9c0 .2.16.32.45.32.3 0 .54-.15.63-.33v-.41h-.48c-.38 0-.6.18-.6.42Zm3.58.9h-1v-3h1v.48c.18-.32.42-.48.75-.48a1 1 0 0 1 .25.03l-.1.7-.34-.02c-.26 0-.46.1-.56.28V32Zm4.5-2.12V32h-1v-1.81c0-.42-.16-.59-.51-.59-.25 0-.49.4-.49.4v2h-1v-3h1v.5c.23-.29.47-.5.91-.5.45 0 .82.16.98.5.23-.34.49-.5.94-.5.7 0 1.17.4 1.17 1.19V32h-1v-1.81c0-.43-.16-.59-.5-.59-.27 0-.39.1-.5.28ZM23.61 32c-.71 0-1.12-.32-1.12-.88s.53-.88 1.53-.88h.47v-.23c0-.28-.14-.44-.46-.44-.31 0-.48.13-.48.35h-.9v-.02c-.05-.7.9-.9 1.42-.9.64 0 1.42.27 1.42 1.01v1.2c0 .26.03.56.13.79h-.93c-.08-.15-.18-.35-.2-.5-.23.33-.48.5-.88.5Zm-.2-.9c0 .2.16.32.45.32.15 0 .28-.03.4-.1a.47.47 0 0 0 .23-.23v-.41h-.48c-.38 0-.6.18-.6.42Zm3.58-.64v.09c0 .57.15.85.6.85.34 0 .55-.13.55-.4H29c.02.72-.8 1-1.4 1-.88 0-1.6-.53-1.6-1.45v-.08c0-.92.72-1.47 1.6-1.47.67 0 1.42.35 1.4 1.11v.02h-.85c0-.3-.21-.52-.55-.52-.45 0-.6.28-.6.85Zm4.6-.3c0-.35-.18-.55-.54-.55-.35 0-.55.23-.6.6v.01h1.15v-.07ZM31.15 32c-.85 0-1.64-.5-1.64-1.41v-.11c0-.89.7-1.47 1.56-1.47.92 0 1.46.49 1.46 1.3v.42h-2.05l-.01.02c.03.39.33.65.75.65.35 0 .66-.07.98-.22l.25.48c-.3.21-.76.34-1.3.34ZM34 32c-.75 0-1-.4-1-1.2V29h1v1.8c0 .42 0 .6.34.6.29 0 .52-.09.66-.24V29h1v3h-1v-.47c-.22.31-.58.47-1 .47Zm7.5-1.54v.09c0 .57.12.85.57.85.33 0 .55-.13.55-.4h.84c0 1-1 1-1.4 1-.87 0-1.56-.53-1.56-1.45v-.08c0-.92.69-1.47 1.57-1.47.66 0 1.42.35 1.4 1.11v.02h-.85c0-.3-.22-.52-.55-.52-.45 0-.57.28-.57.85ZM45 32c-.72 0-1.13-.32-1.13-.88s.53-.88 1.53-.88h.6v-.23c0-.28-.27-.44-.59-.44-.31 0-.48.13-.48.35h-.9v-.02c-.05-.7.9-.9 1.42-.9.64 0 1.55.26 1.55 1.01v1.2c0 .25.05.56.15.79h-1.08c-.08-.15-.05-.35-.07-.5-.23.33-.6.5-1 .5Zm-.21-.9c0 .2.16.32.45.32.22 0 .65-.12.76-.33v-.41h-.6c-.4 0-.61.18-.61.42Zm5.78.36v.01c.34 0 .43-.12.43-.3 0-.2-.08-.3-.6-.4-.83-.15-1.4-.4-1.4-.88 0-.73 1.04-.89 1.57-.89.54 0 1.42.3 1.4 1H51c0-.24-.13-.45-.44-.45-.32 0-.56.13-.56.32 0 .3.54.33.74.37.87.14 1.26.4 1.26.9 0 .69-.93.86-1.46.86-.55 0-1.58-.28-1.54-1h1c0 .3.16.46.57.46ZM8.37 29.55c.23-.26.5-.55 1-.55.75 0 1 .54 1 1.32V32h-1v-1.69c0-.41-.13-.58-.5-.58a.59.59 0 0 0-.5.2V32h-1v-4h1v1.55ZM37 28h1v1h.5v.5H38v1.62c0 .2.04.3.24.3l.25-.03.07.53c-.2.05-.38.08-.56.08-.66 0-1-.3-1-.88V29.5h-.5l.01-.5h.5v-1ZM40 29v3h-1v-3h1Zm0-1v.5h-1V28h1Zm8.5 0v4h-1v-4h1ZM5 28.62V30h.33c.5 0 .67-.33.67-.73 0-.4-.17-.65-.67-.65H5Zm.33 1.93H5V32H4v-4h1.33c.79 0 1.69.36 1.69 1.27 0 .92-.9 1.28-1.69 1.28Z" fill="#104684"/></svg>