<!-- by TradingView --><svg width="56" height="56" viewBox="0 0 56 56" xmlns="http://www.w3.org/2000/svg"><path fill="#F0F3FA" d="M0 0h56v56H0z"/><path d="M37 28h-3v4h4v1h-5V23h5v1h-4v3h3v1Zm13 0h-3v4h4v1h-5V23h5v1h-4v3h3v1Zm-5-5h-1v4h1v-4Zm-1 5v2.5L40 23h-1v10h1v-7.5l4 7.5h1v-5h-1Zm-14.5 1H31v2.17c-.23.56-.74.83-1.34.83C28.4 32 28 30.48 28 29.48v-.49h-1v.49c0 1.69.7 3.52 2.66 3.52A2.5 2.5 0 0 0 32 31.52V28h-2.5v1Z" fill="#00B8B5"/><path d="M9.86 30H7.15l-.78 3H5l2.86-10h1.3L12 32.99h-1.37L9.86 30Zm-2.43-1H9.6l-1.06-4.14H8.5L7.43 29ZM28 27.99V26.6c0-.95.34-2.61 1.55-2.61 1.07 0 1.42 1.11 1.45 2h1c-.07-1.54-.73-3-2.46-3-1.96 0-2.54 2-2.54 3.64V28h1v-.01ZM23.86 30h-2.71l-.78 3H19l2.86-10h1.3L26 32.99h-1.37L23.86 30Zm-2.43-1h2.16l-1.06-4.14h-.03L21.43 29Zm-6.45-6H13v5h1v-4h.94c1.69 0 2.06 1.75 2.06 3.1v1.8c0 1.41-.4 3.1-2.12 3.1H14v-3h-1v4h1.93c2.36 0 3.07-2.04 3.07-4.1v-1.78c-.02-2-.69-4.12-3.02-4.12Z" fill="#006788"/></svg>