<!-- by TradingView --><svg xmlns="http://www.w3.org/2000/svg" width="56" height="56"><path fill="#F0F3FA" d="M0 0h56v56H0z"/><path d="M28.14 27h3.04c.37-4.9 3.46-9.03 7.76-10.94A16.3 16.3 0 0036.19 14a16.2 16.2 0 00-8.05 13zm3.04 2h-3.04a16.2 16.2 0 008.05 13c1-.57 1.91-1.3 2.75-2.05A13.1 13.1 0 0131.18 29z" fill="#A92230"/><path d="M33.2 29h3.06a8.08 8.08 0 006 6.8c-.51.92-1.12 1.79-1.8 2.59A11.09 11.09 0 0133.2 29zm3.06-2H33.2c.39-4.33 3.3-7.94 7.25-9.38.68.8 1.29 1.67 1.8 2.6a8.06 8.06 0 00-6 6.78zm2.03 2a6.08 6.08 0 004.86 4.93c.37-.93.66-1.91.85-2.92A3.06 3.06 0 0141.41 29H38.3zm3.13-2H38.3a6.05 6.05 0 014.85-4.92c.37.93.66 1.91.85 2.92-1.2.11-2.2.91-2.58 2z" fill="#A92230"/><path d="M27.86 27h-3.04a13.08 13.08 0 00-7.76-10.94A16.3 16.3 0 0119.81 14a16.2 16.2 0 018.05 13zm-3.04 2h3.04a16.2 16.2 0 01-8.05 13 16.8 16.8 0 01-2.75-2.05A13.1 13.1 0 0024.82 29z" fill="#515B98"/><path d="M22.8 29h-3.06a8.08 8.08 0 01-6 6.8c.51.92 1.12 1.79 1.8 2.59A11.09 11.09 0 0022.8 29zm-3.06-2h3.05a11.08 11.08 0 00-7.25-9.38c-.68.8-1.29 1.67-1.8 2.6a8.06 8.06 0 016 6.78zm-2.04 2a6.06 6.06 0 01-4.85 4.93 15.9 15.9 0 01-.85-2.92c1.2-.11 2.2-.92 2.58-2.01h3.12zm-3.12-2h3.12a6.05 6.05 0 00-4.85-4.92A15.9 15.9 0 0012 25c1.2.11 2.2.91 2.58 2z" fill="#515B98"/></svg>