<!-- by TradingView --><svg width="56" height="56" viewBox="0 0 56 56" xmlns="http://www.w3.org/2000/svg"><path fill="#F0F3FA" d="M0 0h56v56H0z"/><path fill-rule="evenodd" d="M5 23.55A2.5 2.5 0 0 1 7.43 21h41.14A2.5 2.5 0 0 1 51 23.55v8.9A2.5 2.5 0 0 1 48.57 35H7.43A2.5 2.5 0 0 1 5 32.45v-8.9ZM32.7 26.6l.02.39h-2.23c0-.1-.05-.29-.3-.39-.16-.07-.4-.11-.79-.11h-1.22c-.29 0-.5.04-.65.11-.24.1-.32.29-.32.49 0 .33.24.45.57.45H29.55c1.4 0 2.33 0 2.89.46.45.37.54.95.56 1.3v.47c0 .55-.07 1.22-.65 1.66-.58.45-1.77.56-2.75.56h-2.06c-.71 0-1.45-.11-1.92-.54-.38-.34-.62-.66-.62-1.46h2.2c0 .36.54.46 1.22.46h1.38c.65 0 1.06-.14 1.06-.62v-.1c0-.08-.04-.38-.51-.44H27.79c-.53 0-1.53 0-2.01-.35-.48-.35-.73-.77-.73-1.83a3 3 0 0 1 .04-.51c.1-.57.41-1.09 1.2-1.34.83-.27 2-.27 2.66-.27h.89c.54 0 1.87.05 2.38.52.32.3.43.76.47 1.09Zm0 0ZM48 30h.99c0 .86-.4 2-1.57 2h-.9c-.74 0-1.52-.59-1.52-1.84v-2.5c0-.56.4-1.66 1.51-1.66h.87c1.18 0 1.61.94 1.61 1.7v.3H48c0-.31-.2-1-.73-1s-.76.26-.76.75v2.41c0 .55.38.84.76.84.4 0 .73-.4.73-.7V30Zm-4.72.3h.83c0 .66-.4 1.7-1.57 1.7H40.8c-.73 0-1.8-.5-1.8-1.74V27.9c0-.55.68-1.9 1.8-1.9h1.7c.94 0 1.5 1.18 1.5 1.94v1.43h-3.43v.89c0 .55.6.74.98.74h1.02c.5 0 .7-.26.7-.56v-.14ZM35 28v6h13.14c1.09 0 1.86-.8 1.86-1.9v-8.2c0-1.1-.77-1.9-1.86-1.9H35v4.51h1V24h1.67v2.51h.87V28h-.87v2.26c0 .73.48.74.87.74v1h-.87c-.72 0-1.67-.38-1.67-1.83V28h-1Zm5.57.68h1.93v-.76c0-.4-.28-.92-.95-.92a.94.94 0 0 0-.98.92v.76ZM15 29.32v-2.08c0-.06 0-.32-.07-.63-.06-.3-.2-.65-.44-.92-.58-.62-1.57-.69-2.29-.69h-.88c-1.5 0-2.52.05-3.2.4-.56.3-.76.83-.83 1.21-.05.25-.04.39-.04.39h2.19c.02-.21.06-.3.2-.39.15-.09.43-.12.95-.12l.82.01h.11c.36 0 .61.05.8.11.51.2.68.6.68 1.1v.54s-.5-.7-1.78-.7H9.9c-.83 0-1.6.04-2.1.36-.53.33-.74.94-.79 1.4l-.01.22v.38C7 31.19 7.57 32 9.09 32h1.61c.68 0 1.98-.13 2.3-1.2v1.2h2v-2.68Zm-2.06 0c.04.06.06.13.06.2v.2c-.02.39-.42.7-1.85.7h-1.13c-.46 0-1.02-.3-1.02-.66v-.2c0-.06.02-.15.07-.24.12-.19.58-.32 1.2-.32h1.68c.4 0 .88.13 1 .32ZM24 32v-9h-2v3.35A2.49 2.49 0 0 0 19.65 25H19c-.96 0-1.83.36-2.4.86-.23.21-.38.54-.47.88-.1.39-.14.8-.14 1.13v1.51c0 .5.04 1.41.6 1.95.64.61 1.82.67 2.4.67h.76c.7 0 1.21-.12 1.63-.46.47-.38.61-1.03.61-1.03V32h2Zm-4.6-2h.66c1.18 0 1.94-.02 1.94-1.36 0-1.1-.32-1.64-1.47-1.64h-.77c-.9 0-1.76.14-1.76 1.21v.6c0 .99.45 1.19 1.4 1.19Z" fill="#1D1D1B"/><path d="M36 40v-.66h-2.23v-1.1h1.96v-.65h-1.96v-.93H36V36h-3v4h3ZM39 40v-1.95c0-.31-.09-.56-.26-.75A.98.98 0 0 0 38 37c-.18 0-.34.04-.5.1a.85.85 0 0 0-.38.35l-.05-.38h-.6V40h.71v-1.2l.01-.4c.01-.13.04-.26.1-.38a.7.7 0 0 1 .2-.26.5.5 0 0 1 .3-.1c.2 0 .32.04.4.14.07.1.1.23.1.4V40H39ZM42.28 38.52c.01-.18 0-.35-.04-.51-.03-.17-.1-.33-.21-.48a1.17 1.17 0 0 0-.47-.4c-.19-.09-.4-.13-.62-.13-.2 0-.38.03-.54.1-.16.06-.3.15-.4.26-.15.14-.26.31-.33.5a1.84 1.84 0 0 0 0 1.29 1.35 1.35 0 0 0 .75.75 1.55 1.55 0 0 0 1.08 0c.18-.06.33-.16.46-.3a1.19 1.19 0 0 0 .25-.53h-.69a.5.5 0 0 1-.14.24.44.44 0 0 1-.18.11.86.86 0 0 1-.25.03.63.63 0 0 1-.45-.17.67.67 0 0 1-.16-.25.79.79 0 0 1-.05-.31h1.99v-.2Zm-.71-.3h-1.29a.66.66 0 0 1 .15-.44.55.55 0 0 1 .21-.17.7.7 0 0 1 .3-.06c.1 0 .19.02.26.04a.53.53 0 0 1 .32.34.9.9 0 0 1 .05.28ZM44.73 37.7v-.68a1.44 1.44 0 0 0-.22-.02c-.18 0-.35.04-.5.11a.71.71 0 0 0-.34.37L43.6 37H43v3h.72v-1.5a.9.9 0 0 1 .2-.59c.12-.15.31-.23.57-.24a1.04 1.04 0 0 1 .24.03ZM47.8 40.1a.76.76 0 0 0-.08-.35.76.76 0 0 0-.28-.28c-.14-.09-.3-.14-.47-.16a3.67 3.67 0 0 0-.5-.02h-.49a.55.55 0 0 1-.21-.04c-.07-.03-.1-.08-.11-.16 0-.04.02-.08.05-.11a.36.36 0 0 1 .1-.08 1.61 1.61 0 0 0 1.08-.04c.18-.08.33-.19.44-.33a.84.84 0 0 0 .02-1c.02-.07.06-.11.13-.14a.58.58 0 0 1 .28-.03v-.5h-.2a.76.76 0 0 0-.34.08.6.6 0 0 0-.26.25 1.38 1.38 0 0 0-.67-.16c-.35 0-.63.08-.86.25a.87.87 0 0 0-.36.72c0 .14.03.26.08.37.05.11.12.2.22.29a.73.73 0 0 0-.27.23.54.54 0 0 0-.09.3c0 .1.03.18.08.26.05.09.12.15.22.2a.6.6 0 0 0-.36.55c0 .12.03.23.1.33.06.1.15.18.26.25.16.1.33.15.51.18a3.26 3.26 0 0 0 1.21-.04c.22-.05.4-.14.55-.27a.72.72 0 0 0 .22-.54Zm-.99-2.1c0 .15-.04.27-.14.35a.54.54 0 0 1-.38.14.54.54 0 0 1-.39-.14.48.48 0 0 1-.14-.35c0-.15.05-.26.14-.35.1-.1.22-.14.39-.15.16 0 .3.05.38.15.1.09.14.2.14.35Zm.32 2.12c0 .12-.05.2-.14.25a.79.79 0 0 1-.32.1 2.52 2.52 0 0 1-.65 0 .74.74 0 0 1-.3-.1.28.28 0 0 1-.13-.25c0-.08.03-.15.08-.21s.11-.1.19-.12h.56c.1 0 .2 0 .3.02.11 0 .2.03.29.08.07.05.11.12.12.23ZM51 37h-.7l-.74 2.04-.78-2.04H48l1.17 2.81-.17.4a.33.33 0 0 1-.15.16.4.4 0 0 1-.2.05c-.07 0-.13 0-.18-.02a8.3 8.3 0 0 1-.21-.03v.56a2.64 2.64 0 0 0 .55.07c.25 0 .45-.08.6-.21.14-.14.24-.3.31-.5L51 37Z" fill="#68B339"/></svg>