<!-- by TradingView --><svg xmlns="http://www.w3.org/2000/svg" width="56" height="56" viewBox="0 0 56 56"><path fill="#05D8AF" d="M0 0h56v56H0z"/><path d="M4 34.44h48V35H4v-.56Zm27.98-4c1.94.58 1.77 2.56 1.77 2.56h2.33l.82-2h4.2l.8 2H46v-7h2.4c.76 0 1.74 1.04 1.6 2.57V33h1.98v-4.82c0-2.72-1.44-4.17-3.3-4.18H44v7.6L40.62 24h-1.51l-3.2 7.29c0-.98-1.21-1.65-1.21-1.65 1.07.03 2.32-5.24-1.45-5.64H27v6.34h-.43c-.41-.06-.57-.94-.57-1.46V23h22v-2H11.45l1.08 2H24v6.35c0 1.75 1.3 3.6 3.12 3.65H29v-2.56h2.98ZM15 24v7.5h-.06L10.67 21H9.43l-5.3 12h.7l1.12-2.5h6.17l.9 2.5h6.67c1.59-.03 3.3-2.37 3.3-4.56 0-1.76-1.28-4.47-3.3-4.44H15Zm14 2h3.74c1.32.05 1.38 2.5.03 2.5H29V26Zm10.02-.04L40.16 29h-2.4l1.26-3.04ZM17 26h2.14c.55.02 1.86.58 1.86 2.5 0 1.74-1.25 2.52-1.86 2.5H17v-5Zm-7.82-2.92 2.04 5.42h-4.5l2.46-5.42Z" fill="#fff"/></svg>