<!-- by TradingView --><svg width="56" height="56" viewBox="0 0 56 56" xmlns="http://www.w3.org/2000/svg"><path fill="#F0F3FA" d="M0 0h56v56H0z"/><circle cx="41.5" cy="16.5" r="2.5" fill="#293D71"/><circle cx="41.5" cy="28.5" r="2.5" fill="#293D71"/><circle cx="42" cy="41" r="2" fill="#293D71"/><circle cx="23" cy="41" r="2" fill="#293D71"/><circle cx="33" cy="16" r="2" fill="#293D71"/><circle cx="14" cy="16" r="2" fill="#293D71"/><circle cx="15" cy="40" r="3" fill="#293D71"/><path d="M23.5 21.08c1.94 0 3.5-1.58 3.5-3.54A3.52 3.52 0 0 0 23.5 14a3.52 3.52 0 0 0-3.49 3.54v.62c.03 1.21.05 2.49-.65 3.44l-1.86 2.52c-.45.6-1.25.8-2 .8a3.52 3.52 0 0 0-3.5 3.54A3.5 3.5 0 0 0 18.64 30h1.4a3.52 3.52 0 0 0 3.5 2.98h.04c.83-.02 1.71.13 2.26.74l3.62 4.04a3.5 3.5 0 1 0 3.91-1.65v-3.96c0-1.14.73-2.14 1.45-3.12.23-.33.47-.65.68-.97.32-.5.5-1.1.5-1.73A3.42 3.42 0 0 0 32.5 23c-1.93 0-3.5 1.5-3.5 3.33 0 .63.18 1.22.5 1.73.21.32.45.64.68.97.72.98 1.45 1.98 1.45 3.12v3.96c-.34.09-.65.22-.94.4l-3.31-3.7c-.61-.69-.58-1.7-.39-2.6A3.51 3.51 0 0 0 23.53 26c-1.4.01-2.63.83-3.2 2.01h-1.35v-.28c-.03-1.25-.06-2.56.65-3.54l1.66-2.24c.5-.67 1.39-.86 2.21-.86Z" fill="#2899D5"/></svg>