<!-- by TradingView --><svg width="56" height="56" viewBox="0 0 56 56" fill="none" xmlns="http://www.w3.org/2000/svg">
<rect width="56" height="56" fill="#F0F3FA"/>
<path fill-rule="evenodd" clip-rule="evenodd" d="M19 40C25.6274 40 31 34.6274 31 28C31 27.9511 30.9997 27.9022 30.9991 27.8534C30.9902 28.3002 30.825 28.8406 30.4517 29.4943C29.3586 31.3847 26.9227 32.606 24.1152 34.0137C22.3111 34.9182 20.3536 35.8997 18.5003 37.1851C17.6473 37.7742 16.6879 38 15.8747 37.9996C14.8192 38 13.9999 37.5502 14 36.9229C13.9999 36.345 14.6591 35.6033 16.4373 34.8743C21.6633 32.781 26.9976 30.1364 27 27.4688C27.0014 25.9559 25.1269 24.7088 20.9388 23.3923C17.8064 22.448 16 21.1372 15.9967 20.1565C16.0029 19.3923 16.5 19 17.5314 19C19.2913 19 22.1409 20.9303 25.1475 22.9669C26.7 24.0186 28.2944 25.0986 29.8023 25.9559C30.2155 26.1999 30.9396 26.6915 30.996 27.687C30.83 21.2043 25.5228 16 19 16C12.3726 16 7 21.3726 7 28C7 34.6274 12.3726 40 19 40Z" fill="#61B4E4"/>
<path d="M31.5478 29.4943C33.3434 32.5995 38.7707 33.9223 43.508 37.208C44.361 37.7971 45.3205 38.0004 46.1336 38C47.1891 38.0004 48.0001 37.5732 48 36.9458C48.0001 36.368 47.3492 35.6262 45.5711 34.8972C40.345 32.8039 35.002 30.1363 34.9995 27.4688C34.9981 25.9559 36.8726 24.7088 41.0607 23.3923C44.1931 22.448 45.9995 21.1372 46.0028 20.1565C45.9966 19.3923 45.4995 19 44.4681 19C41.7994 19 36.6252 23.4384 32.1973 25.9559C31.767 26.21 30.9995 26.7326 31 27.8131C30.9995 28.2676 31.1632 28.8208 31.5478 29.4943Z" fill="#61B4E4"/>
</svg>
