<!-- by TradingView --><svg width="56" height="56" viewBox="0 0 56 56" xmlns="http://www.w3.org/2000/svg"><path fill="#F0F3FA" d="M0 0h56v56H0z"/><path d="M24.17 18.77c-8.03 2.68-10.38 10.84-7.92 16.2.14.09.25 0 .39-.02a28.02 28.02 0 0 0 4.82-1.8 11.41 11.41 0 0 0 3.51-2.6 55.43 55.43 0 0 0 3.44-4.16c.83-1.13.72-2.2-.03-3.27-.22-.33-.53-.62-.14-1.05 1.03-.08 1.22.96 1.8 1.42.44-.24.44-.62.47-.94a2.76 2.76 0 0 0-.86-2.23c-.56-.55-1.23-1-1.96-1.31a31.23 31.23 0 0 1-3.27-1.7 13.99 13.99 0 0 1-2.82-2.22 6.42 6.42 0 0 1-1.89-3.94c-.04-.7.06-1.4.3-2.04.09.99.3 1.96.64 2.9a7.15 7.15 0 0 0 3.33 3.78c.84.48 1.7.91 2.6 1.29.3.13.62.24.94.32.25.05.5.08.67-.22-.11-.37-.47-.53-.78-.72-.69-.38-1.34-.83-1.94-1.34a3.9 3.9 0 0 1-1.35-2.39 4.84 4.84 0 0 1 .72-3.38l.24-.3c.03-.02.09-.02.14-.05.06.27-.1.51-.16.72-.22.94-.39 1.88-.22 2.88.13.94.58 1.66 1.46 2.09.67.35 1.33.67 2 1.05.5.26 1 .56 1.46.85a6.89 6.89 0 0 1 3.47 5.7c.05.9.22 1.82.36 2.73a7.9 7.9 0 0 0 2.6 4.64c.44.4.91.75 1.27 1.24.22.3.47.61.25.99-.1.18-.24.33-.42.43-.19.1-.4.16-.6.16-.45.01-.89-.06-1.3-.21-.57-.2-1.11-.44-1.64-.73a6.37 6.37 0 0 0-1.85-.67c-.72-.1-1.17.16-1.36.83-.3 1.02-.66 1.99-1.02 2.98-.23.7-.55 1.36-.95 1.99-.13.24-.36.48-.3.83.28.1.44-.06.64-.16l1.16-.75a4 4 0 0 1 .83-.43c.55-.16.91 0 1.14.48.24.6.36 1.24.36 1.88a8.72 8.72 0 0 1-.36 3.16c-.03.09-.12.2-.03.3 3.24-.35 7.25-4.56 8.3-8.64 1.28-4.94-.83-10.73-6.34-13.74-.2-.57-.44-1.13-.72-1.66a13.33 13.33 0 0 1 3.96 22.7A14.25 14.25 0 0 1 28.22 44a14.28 14.28 0 0 1-9.1-3.07 13.49 13.49 0 0 1-4.9-8.05 13.4 13.4 0 0 1 8.62-15c.43.32.87.61 1.33.89Zm.08 23.59c.14.08.2.13.28.13 1.58.3 3.16.59 4.8.32.88-.16 1.13-.32 1.35-1.15.28-1.05.2-2.12.08-3.2 0-.05-.08-.1-.1-.13a.4.4 0 0 0-.4.08c-.44.3-.88.56-1.33.86-.5.32-.93.72-1.3 1.18a5.31 5.31 0 0 1-3.38 1.9Zm10.7-13a3.7 3.7 0 0 0-1.11-1.58c-.06.92.66 1.16 1.1 1.59Z" fill="#074A9B"/></svg>