<!-- by TradingView --><svg xmlns="http://www.w3.org/2000/svg" width="56" height="56"><path fill="#F0F3FA" d="M0 0h56v56H0z"/><path d="M28 19c3.79 0 7.28-1.32 10-3.5A15.92 15.92 0 0028 12c-3.79 0-7.28 1.32-10 3.5 2.72 2.19 6.2 3.5 10 3.5zm.05 25c3.79 0 7.26-1.3 9.95-3.46A15.86 15.86 0 0027.95 37c-3.79 0-7.26 1.3-9.95 3.46A15.9 15.9 0 0028.05 44zm12.49-26A15.87 15.87 0 0144 27.95c0 3.83-1.33 7.34-3.54 10.05A15.87 15.87 0 0137 28.05c0-3.83 1.33-7.34 3.54-10.05zM19 27.86c0-3.8-1.29-7.3-3.45-10.04A16.21 16.21 0 0012 28c0 3.8 1.29 7.3 3.45 10.04A16.21 16.21 0 0019 27.86z" fill="#7119E1"/></svg>