<!-- by TradingView --><svg xmlns="http://www.w3.org/2000/svg" width="56" height="56"><path fill="#F0F3FA" d="M0 0h56v56H0z"/><path d="M19.5 25.75h2v.5h-2v-.5z" fill="#539536"/><path d="M21.38 23l-3.81 5h.63l3.05-4v4H24v-.5h-2.25v-2H24V25h-2.25v-1.5H24V23h-2.62zm6.62.5h-3V23h3v.5zM26.25 28v-4.5h.5V28h-.5zm3-5H32v.5h-2.25V25H32v.5h-2.25v2H32v.5h-2.75v-5z" fill="#539536"/><path fill-rule="evenodd" d="M35.75 23H33.6v5h.5v-2.5h.33L36.3 28h.62l-1.86-2.5h.69a1.25 1.25 0 100-2.5zm0 .5H34.1V25h1.65a.75.75 0 000-1.5z" fill="#539536"/><path d="M38.45 28v-5h.26l3.54 4v-4h.5v5h-.28l-3.52-3.98V28h-.5z" fill="#539536"/><path fill-rule="evenodd" d="M46.66 23h-.32l-2.38 5h.56l.83-1.75h2.3L48.5 28h.55l-2.38-5zm.75 2.75l-.91-1.92-.91 1.92h1.82z" fill="#539536"/><path d="M15 30h3v1l-1.9 3H18v1h-3v-1l1.9-3H15v-1zm5 0v5h3v-1h-2v-1h2v-1h-2v-1h2v-1h-3zm5 0h1l2 2.82V30h1v5h-1l-2-2.85V35h-1v-5zm8 0h-3v1h1v4h1v-4h1v-1z" fill="#05ADEF"/><path fill-rule="evenodd" d="M35.03 30l-1.9 5h1.08l.37-1h1.97l.38 1H38l-1.9-5h-1.07zm1.14 3l-.6-1.6-.6 1.6h1.2z" fill="#05ADEF"/><path d="M41 30h-2v5h1v-2h.48l1.06 2h1.13l-1.12-2.1A1.5 1.5 0 0041 30zm0 2h-1v-1h1a.5.5 0 010 1zm3-2h1v5h-1zm5.2.55c-.62-.71-1.45-.92-2.13-.61-.74.33-1.08 1.19-.62 2 .22.38.55.68.86.92l.35.27.5.4c.24.21.2.53-.03.7a.48.48 0 01-.41.05c-.2-.05-.49-.2-.82-.62l-.8.56c.42.53.88.86 1.35.98.5.12.95.02 1.3-.23.64-.47.85-1.47.1-2.13l-.62-.5-.28-.2c-.29-.23-.5-.43-.61-.64-.2-.36-.04-.62.16-.7.17-.08.55-.11.96.38l.75-.63z" fill="#05ADEF"/><path d="M12.2 29c2.11-.9 4.3-3.5 4.3-5.5 0-1.77-1.64-3.2-3.5-2.2-.64.35-1.03.85-1.25 1.55-.27.87-.23 2.13-.16 3.41.18 1.38.19 3.1-.01 4.74a8.85 8.85 0 01-.42 1.84c-.57 1.64-1.87 3.14-3.78 2.8-1.09-.18-1.97-1.01-1.84-2.48.07-.86.51-1.75 1.2-2.4A5.56 5.56 0 0110 29.4a4.88 4.88 0 00-2.7 2.1c-.53.95-.65 1.95-.15 2.56.9 1.09 2.43.43 3.05-.6.64-1.06.8-2.24.8-3.46 0-2.35-1.1-4.8-.66-7.15.26-1.37 1.21-3.15 3.01-3.5 3.15-.6 5.46 2.87 3.9 5.65a7.6 7.6 0 01-1.7 2.16A10.09 10.09 0 0112.2 29z" fill="#539536"/><path d="M6.75 30.76A5.56 5.56 0 0110 29.4a4.88 4.88 0 00-2.7 2.1c-.25.45-.41.91-.45 1.34-.05.47.04.9.3 1.22.12.15.25.26.39.34 0 0-2.04-.9-1.73-2.3.2-.49.53-.96.94-1.34zM12.2 29c2.12-.9 4.3-3.5 4.3-5.5 0-1.03-.55-1.94-1.37-2.33-.72-.34-1.44-.18-2.13.14 0 0 1.5-1.81 4.3 0 .57 1.09.65 2.46-.04 3.69a7.6 7.6 0 01-1.71 2.16A10.09 10.09 0 0112.2 29z" fill="#05ADEF"/></svg>