<!-- by TradingView --><svg width="56" height="56" viewBox="0 0 56 56" xmlns="http://www.w3.org/2000/svg"><path fill="#F0F3FA" d="M0 0h56v56H0z"/><path fill-rule="evenodd" d="M42 14H14v28h28V14Zm-2 2H16v24h24V16Zm-19 1h1v2.04c1.14.19 2 1 2 1.96 0 .97-.86 1.77-2 1.96v5.08c1.14.19 2 1 2 1.96 0 .97-.86 1.78-2 1.96v1.08c1.14.19 2 1 2 1.96 0 .97-.86 1.77-2 1.96V39h-1v-2.04c-1.14-.19-2-1-2-1.96 0-.97.86-1.77 2-1.96v-1.08c-1.14-.18-2-.99-2-1.96 0-.96.86-1.77 2-1.96v-5.08c-1.14-.19-2-1-2-1.96 0-.97.86-1.77 2-1.96V17Zm7.5 0h-1v6.04c-1.14.19-2 1-2 1.96 0 .97.86 1.77 2 1.96v1.08c-1.14.19-2 1-2 1.96 0 .97.86 1.78 2 1.96v1.08c-1.14.19-2 1-2 1.96 0 .97.86 1.77 2 1.96V39h1v-2.04c1.14-.19 2-1 2-1.96 0-.97-.86-1.77-2-1.96v-1.08c1.14-.18 2-.99 2-1.96 0-.96-.86-1.77-2-1.96v-1.08c1.14-.19 2-1 2-1.96 0-.97-.86-1.77-2-1.96V17Zm5.5 0h1v6.04c1.14.19 2 1 2 1.96 0 .97-.86 1.77-2 1.96v1.08c1.14.19 2 1 2 1.96 0 .97-.86 1.77-2 1.96v1.08c1.14.19 2 1 2 1.96 0 .97-.86 1.77-2 1.96V39h-1v-2.04c-1.14-.19-2-1-2-1.96 0-.97.86-1.77 2-1.96v-1.08c-1.14-.19-2-1-2-1.96 0-.97.86-1.77 2-1.96v-1.08c-1.14-.19-2-1-2-1.96 0-.97.86-1.77 2-1.96V17Z"/></svg>