<!-- by TradingView --><svg width="56" height="56" viewBox="0 0 56 56" xmlns="http://www.w3.org/2000/svg"><path fill="#F0F3FA" d="M0 0h56v56H0z"/><path d="M25.21 13c0 2.25-.84 3-1.67 6.75-.67 3 1.95 4.75 3.34 5.25.83 0 3.6-3.82 2.5-6.75-.83-2.25-3.34-3-4.17-5.25ZM35.07 26.71c-2.88 1.94-5.19 1.25-5.93.75-2.22-1.5 2.97-7.47 5.19-8.97C36.3 17.17 38.78 17 41 17c0 1.5-.31 4.8-1.48 5.98-1.48 1.5-2.23 2.24-4.45 3.73ZM17.62 22c4.87 0 7.62 2.97 8.38 4.45a18.48 18.48 0 0 1-8.38 2.23c-3.66 0-6.6-2.48-7.62-3.71.5 0 1.83-.3 3.05-1.49C14.27 22.3 16.6 22 17.62 22ZM26.76 36.84c-1.22-3.56.5-5.94 1.52-6.68 2.29-.74 4.57 2.23 5.33 5.94.61 2.96-.76 7.17-1.52 8.9 0-2.23-3.8-3.71-5.33-8.16ZM34.55 28c-1.22 0-2.34.75-2.85 1 .51.99 1.78 3 3.62 3 1.83 0 3.88-1.26 4.65-2-.26-.5-2.07-2-3.89-2h-1.53ZM25.42 29.48c.26 1.73-.6 5.04-6.12 4.45.51-2.22 2.45-6.23 6.12-4.45Z" fill="#547727"/></svg>