<!-- by TradingView --><svg xmlns="http://www.w3.org/2000/svg" width="56" height="56" viewBox="0 0 56 56"><path fill="#F0F3FA" d="M0 0h56v56H0z"/><path d="M38 27.58v3.36c0 .03-.02.06-.05.06h-.51c-.03 0-.06-.03-.06-.06v-3.27l-1.95 3.04a.6.6 0 0 1-.5.29h-.14a.61.61 0 0 1-.51-.29l-1.95-3.03v3.26c0 .02 0 .03-.02.04a.06.06 0 0 1-.04.02h-.51l-.04-.02a.05.05 0 0 1-.02-.04v-3.33c0-.26.16-.5.4-.58a.6.6 0 0 1 .4 0c.13.05.23.14.3.25l2 3.11h.1l2-3.11a.6.6 0 0 1 .3-.24.61.61 0 0 1 .69.19c.08.1.11.22.11.35zm2.47.03h4.09c.08 0 .16-.04.21-.1a.3.3 0 0 0 0-.42.32.32 0 0 0-.21-.09h-4.37c-.32 0-.62.13-.84.34-.22.22-.34.5-.35.81v1.44c0 .37.16.73.43 1 .27.26.65.4 1.03.4h4.1c.08 0 .16-.02.22-.08a.3.3 0 0 0 0-.42.32.32 0 0 0-.22-.1h-4.1a.85.85 0 0 1-.58-.23.8.8 0 0 1-.25-.57v-.06c0-.06.03-.12.07-.16.04-.04.1-.06.16-.06h4.7c.08 0 .16-.04.22-.1a.3.3 0 0 0 0-.42.32.32 0 0 0-.22-.1h-4.7a.24.24 0 0 1-.16-.06.23.23 0 0 1-.07-.16v-.05a.8.8 0 0 1 .25-.58.85.85 0 0 1 .59-.23zm11.53.54v1.7c0 .3-.13.6-.35.81a1.2 1.2 0 0 1-.83.34H46v-.6h.55v-2.8H46V27h4.82c.31 0 .61.13.83.34.22.22.35.5.35.81zm-.62 0a.54.54 0 0 0-.17-.38.57.57 0 0 0-.4-.16h-3.63v2.79h3.63c.15 0 .3-.06.4-.16.1-.1.17-.24.17-.39v-1.7z" fill="#DD0374"/><path d="M13.18 27.35a.78.78 0 0 0-.64-.35h-.37a.76.76 0 0 0-.64.36L9.27 31H10l.78-1.27h3.14l.79 1.27h.72l-2.25-3.65zm.37 1.78h-2.4l.9-1.46a.11.11 0 0 1 .05-.05.12.12 0 0 1 .07-.01h.37l.06.01a.1.1 0 0 1 .05.05l.9 1.46zM17.18 27.6h4.37c.08 0 .16-.03.22-.09a.3.3 0 0 0 0-.42.32.32 0 0 0-.22-.09h-4.37c-.31 0-.61.13-.83.34-.22.22-.35.5-.35.81v2.55c0 .08.03.16.1.21a.32.32 0 0 0 .43 0 .3.3 0 0 0 .09-.21v-1.17c0-.06.03-.11.07-.16.04-.04.1-.06.16-.06h4.7c.08 0 .16-.04.22-.1a.3.3 0 0 0 0-.42.32.32 0 0 0-.22-.1h-4.7a.24.24 0 0 1-.16-.06.22.22 0 0 1-.07-.16v-.32c0-.14.06-.28.17-.38.1-.1.24-.16.4-.16zM24.18 27.6h4.37c.08 0 .16-.03.21-.09a.3.3 0 0 0 0-.42.32.32 0 0 0-.21-.09h-4.37c-.31 0-.61.13-.83.34-.23.22-.35.5-.35.81v2.54a.29.29 0 0 0 .08.22.31.31 0 0 0 .23.09.32.32 0 0 0 .22-.1.3.3 0 0 0 .09-.21v-1.17c0-.05.02-.11.07-.15.04-.05.1-.07.16-.07h4.7c.08 0 .16-.03.22-.09a.3.3 0 0 0 0-.43.32.32 0 0 0-.22-.09h-4.7a.24.24 0 0 1-.16-.06.22.22 0 0 1-.07-.16v-.32c0-.14.06-.28.16-.38.11-.1.25-.16.4-.16zM30.31 27a.32.32 0 0 0-.22.09.3.3 0 0 0-.09.21v3.4c0 .08.03.15.1.21a.32.32 0 0 0 .43 0 .3.3 0 0 0 .1-.21v-3.4a.3.3 0 0 0-.1-.21.32.32 0 0 0-.22-.09zM7 24.4a2.6 2.6 0 1 0 0 5.21 2.6 2.6 0 0 0 0-5.22zM4 27a3 3 0 1 1 5.86.9l.82.48-.27.45-.75-.44a3 3 0 0 1-.11.2l.74.43-.27.45-.8-.46A3 3 0 0 1 4 27z" fill="#004852"/><path d="M9.28 27.17l-.07-.05a.27.27 0 0 1-.12-.13A1.3 1.3 0 0 1 9 26.6c-.02-.2-.03-.41-.07-.61-.04-.17-.1-.34-.32-.38-.07-.01-.16-.05-.18-.13a.62.62 0 0 1-.03-.13c0-.1-.04-.2-.1-.28-.1-.12-.21-.22-.39-.2l-.16.03a.07.07 0 0 1-.09-.03.67.67 0 0 0-.11-.11h-.03c-.07.01-.14.03-.18.1a.72.72 0 0 1-.08.11c-.03.02-.05.03-.07 0a.07.07 0 0 0-.04-.04c-.08-.02-.16-.04-.2.05h-.02a.27.27 0 0 0-.34.03c-.07.06-.14.11-.23.08a.61.61 0 0 0-.24 0 .87.87 0 0 0-.18.03l-.25.1a.3.3 0 0 0-.1.07c-.06.07-.1.14-.14.22a.37.37 0 0 1-.25.23h-.02a.36.36 0 0 0-.19.18l-.08.16a.29.29 0 0 0-.03.28l.04.11a.2.2 0 0 1 0 .18l-.02.06c-.03.14-.08.27-.15.4a.42.42 0 0 0-.04.1.12.12 0 0 0 .03.12 1.96 1.96 0 0 1 .16.2.45.45 0 0 0 0 .37c.07.2.25.31.42.28l.23.4c.01.03.03.06.06.07l.23.1c.09.02.1.02.11.1v.1c0 .03 0 .07.02.1a.3.3 0 0 0 .27.16.2.2 0 0 0 .1-.03l.12-.1a.1.1 0 0 1 .16.02l.06.07a.26.26 0 0 0 .18.08.26.26 0 0 0 .19-.07.52.52 0 0 0 .12-.15c.06-.12.17-.15.3-.15.07.01.15-.01.22-.06.1-.07.2-.16.3-.25l.39-.45a.17.17 0 0 1 .23-.05c.08.04.16.06.23-.01a.36.36 0 0 0 .07-.1c.06-.13.13-.25.27-.3.15-.04.2-.1.2-.26 0-.09 0-.18-.1-.24z" fill="url(#af12o0byu)"/><path opacity=".22" d="M9.28 27.17l-.07-.05a.27.27 0 0 1-.12-.13A1.3 1.3 0 0 1 9 26.6c-.02-.2-.03-.41-.07-.61-.04-.17-.1-.34-.32-.38-.07-.01-.16-.05-.18-.13a.62.62 0 0 1-.03-.13c0-.1-.04-.2-.1-.28l-.04-.03a1.1 1.1 0 0 1-.6.94c.17.68-.5 1.47-1.19 1.44-.36 0-.53-.18-.72-.38-.08.02-.16.02-.24.02-.23.01-.46-.06-.65-.19l-.1.23a.42.42 0 0 0-.05.1.12.12 0 0 0 .03.13 1.95 1.95 0 0 1 .16.2.45.45 0 0 0 0 .37c.07.2.25.31.42.28l.23.4c.01.03.03.06.06.07l.23.1c.09.02.1.02.11.1v.1c0 .03 0 .07.02.1a.3.3 0 0 0 .27.16.2.2 0 0 0 .1-.03l.12-.1a.1.1 0 0 1 .08-.02.1.1 0 0 1 .08.04l.06.07a.26.26 0 0 0 .18.08.26.26 0 0 0 .19-.07.52.52 0 0 0 .12-.15c.06-.12.17-.15.3-.15.07.01.15-.01.22-.06.1-.07.2-.16.3-.25l.39-.45a.17.17 0 0 1 .23-.05c.08.04.16.06.23-.01a.36.36 0 0 0 .07-.1c.06-.13.13-.25.27-.3.15-.04.2-.1.2-.26 0-.09 0-.18-.1-.24z"/><g opacity=".65" fill="#fff"><path opacity=".45" d="M5.24 27.94a.2.2 0 0 0 .2-.2.2.2 0 0 0-.2-.2.2.2 0 0 0-.2.2c0 .11.1.2.2.2zM8 26.44c.06 0 .12-.06.12-.12a.12.12 0 0 0-.12-.13.12.12 0 0 0-.13.13c0 .06.06.12.13.12zM8.27 27.21c.16 0 .28-.12.28-.27a.28.28 0 0 0-.28-.28.28.28 0 0 0-.27.28c0 .15.12.27.27.27z"/><path opacity=".44" d="M8.64 26.05c.04 0 .08-.04.08-.08a.08.08 0 0 0-.08-.08.08.08 0 0 0-.08.08c0 .04.03.08.08.08z"/></g><path opacity=".32" d="M6.87 25.45c-.36 0-.74.2-.98.56-.17.27-.23.58-.16.85a.7.7 0 0 0 .36.45c.43.23 1.04.01 1.36-.47.18-.27.24-.58.16-.85a.71.71 0 0 0-.36-.45.81.81 0 0 0-.38-.1z"/><path d="M6.87 25.45c-.36 0-.74.2-.98.56-.17.27-.23.58-.16.85a.71.71 0 0 0 .36.45c.43.23 1.04.02 1.36-.47.18-.27.24-.58.16-.85a.71.71 0 0 0-.36-.45.81.81 0 0 0-.38-.1zm.64 1.42c-.25.38-.66.6-1.04.6a.87.87 0 0 1-.42-.1.79.79 0 0 1-.38-.48c-.08-.3-.02-.62.17-.9.34-.53 1-.75 1.45-.5a.8.8 0 0 1 .4.48c.07.28 0 .61-.18.9z" fill="#ECCCD4"/><defs><linearGradient id="af12o0byu" x1="4.84" y1="26.24" x2="9.24" y2="27.86" gradientUnits="userSpaceOnUse"><stop stop-color="#DD1275"/><stop offset=".11" stop-color="#D81374"/><stop offset=".25" stop-color="#C91772"/><stop offset=".39" stop-color="#B01D6E"/><stop offset=".55" stop-color="#8E2668"/><stop offset=".71" stop-color="#613061"/><stop offset=".88" stop-color="#2C3E59"/><stop offset="1" stop-color="#024852"/></linearGradient></defs></svg>