<!-- by TradingView --><svg width="56" height="56" viewBox="0 0 56 56" xmlns="http://www.w3.org/2000/svg"><path fill="#F0F3FA" d="M0 0h56v56H0z"/><path d="M22.78 12c-3.3 4.3-6.71 10.93-5.3 17.61a9.3 9.3 0 0 1-5.28-4.85c1-5.96 5.12-10.83 10.58-12.76Z" fill="#8AC72C"/><path d="M37.35 14.27A7.31 7.31 0 0 0 32.93 13h-.43C24 13 22.15 24.98 22.48 30.12c6.4.42 11.68-2.9 13.51-4.62-1.2 7.81-9.17 9.08-13 8.74.63 2.28 3 6.68 4.78 9.76h.22C36.83 44 44 36.64 44 27.55c0-5.49-2.62-10.3-6.65-13.28Z" fill="#0073C4"/><path d="M23.98 43.48c-2.07-3-4.66-7.38-6-9.76A10.75 10.75 0 0 1 12 28.48a16.35 16.35 0 0 0 11.98 15Z" fill="#BAE105"/></svg>