<!-- by TradingView --><svg width="56" height="56" viewBox="0 0 56 56" xmlns="http://www.w3.org/2000/svg"><path fill="#FF3B00" d="M0 0h56v56H0z"/><path d="M15.07 15h.85c.2 0 .4.06.57.17.17.12.3.28.38.47l5.04 11.87a1.09 1.09 0 0 1-.08 1 1.04 1.04 0 0 1-.86.49h-.25a1.03 1.03 0 0 1-.95-.65l-.84-1.75a1 1 0 0 0-.95-.6h-5.02a1 1 0 0 0-.95.6l-.86 1.75c-.08.2-.2.36-.38.47a.97.97 0 0 1-.57.18h-.17a1.01 1.01 0 0 1-.86-.48 1.08 1.08 0 0 1-.08-1l5.04-11.88a1.01 1.01 0 0 1 .95-.64Zm2.76 8.23-1.88-4.15a.54.54 0 0 0-.2-.24.52.52 0 0 0-.77.24l-1.7 4.15a.56.56 0 0 0 .04.52.54.54 0 0 0 .44.24h3.58a.52.52 0 0 0 .44-.24.56.56 0 0 0 .05-.52ZM41.93 21h.86a1.05 1.05 0 0 1 .97.64l5.15 11.87a1.07 1.07 0 0 1-.96 1.49h-.26a1.05 1.05 0 0 1-.97-.65l-.85-1.69a1.08 1.08 0 0 0-.98-.66h-5.13c-.4 0-.8.27-.97.65l-.87 1.7a1.06 1.06 0 0 1-.97.65h-.17a1.05 1.05 0 0 1-1.06-.98c-.01-.17.02-.35.09-.51l5.15-11.88a1.06 1.06 0 0 1 .97-.63Zm2.62 8.18-1.73-4.1a.54.54 0 0 0-.5-.33.54.54 0 0 0-.5.33l-1.84 4.1c-.15.36.11.82.5.82h3.57c.38 0 .65-.46.5-.82Z" fill="#fff"/><path d="M16 34.04V34a6.74 6.74 0 0 1 2.07-4.97 7.1 7.1 0 0 1 5.1-2.02 7.75 7.75 0 0 1 4.37 1.13 1.05 1.05 0 0 1 .48.72 1 1 0 0 1-.24.82l-.17.2a1.09 1.09 0 0 1-1.4.19A5.54 5.54 0 0 0 23.06 29C20.5 29 18 31.38 18 33.97V34c0 2.79 2.45 5 5.29 5 .98 0 2.34-.4 3.2-.85a1 1 0 0 0 .51-.9V35.8c0-.3-.21-.81-.5-.81h-2.35c-.57 0-1.15-.43-1.15-1 0-.57.58-1 1.15-1h3.79c.56 0 1.06.47 1.06 1.04v4.36a1.02 1.02 0 0 1-.42.82A8.97 8.97 0 0 1 23.2 41c-4.35 0-7.2-3.02-7.2-6.96Z" fill="#fff"/><path d="M27 20.07c0-.28.1-.56.3-.76.18-.2.44-.31.7-.31h4.92c1.51 0 2.7.44 3.45 1.24a3.15 3.15 0 0 1 .9 2.32v.04a3.34 3.34 0 0 1-1.13 2.6.55.55 0 0 0-.15.2.58.58 0 0 0 .05.53c.05.07.12.13.2.17.54.26 1 .68 1.31 1.22.32.54.47 1.17.45 1.8v.04c0 2.5-1.95 3.84-4.89 3.84h-5.1a.96.96 0 0 1-.72-.31 1.08 1.08 0 0 1-.29-.76V20.07Zm7.94 2.89c0-1.1-.83-1.96-2.32-1.96H29.8c-.64 0-.79.43-.79.72v2.64c0 .28.18.64.8.64h2.65c1.5 0 2.5-.72 2.5-2v-.04Zm-1.98 4.02H29.8c-.6 0-.79.26-.79.54v2.76c0 .28.1.72.8.72h3.33c1.59 0 2.55-.84 2.55-2.1v-.04c0-1.18-.89-1.88-2.72-1.88Z" fill="#fff"/></svg>