<!-- by TradingView --><svg xmlns="http://www.w3.org/2000/svg" width="56" height="56"><path fill="#013764" d="M0 0h56v56H0z"/><path d="M51.28 25.78c-.12-.48-.45-1.3-1.47-1.3-.53 0-1.3.26-1.3.94 0 .83 1.35 1.23 2.15 1.7.74.41 1.34.82 1.34 1.91 0 1.25-1.05 1.97-2.65 1.97a6.1 6.1 0 01-1.86-.26l-.1-1.62h.36c.15.5.5 1.4 1.7 1.4.94 0 1.55-.69 1.55-1.19 0-1.03-1.97-1.54-2.76-2.14a1.5 1.5 0 01-.75-1.38c0-1.36 1.21-1.81 2.4-1.81.55.01 1.11.1 1.65.25l.1 1.53h-.36zm-24.9.64c0-1.7-1.16-2.42-2.46-2.42-2.07 0-2.92 1.18-2.92 3.3 0 2.46 1.25 3.7 3.48 3.7.54.01 1.07-.06 1.58-.22l.11-.5c-.31.13-.65.19-.98.18-2.4 0-3.19-2.13-3.19-3.72h4.38v-.32zM22 26.26c0-.54.48-1.78 1.78-1.78s1.7 1 1.7 1.78H22zm13 3.38v-3.4c0-1.38-.15-2.24-1.68-2.24-1.43 0-2.12 1.41-2.32 1.96V24l-2 .36v.25c.42.03 1 .07 1 .97v4.06c0 .97-.4 1.1-1 1.1V31h3v-.26c-.6 0-1-.13-1-1.1v-1.83c0-1.41 1.05-3.1 1.9-3.1.95 0 1.1.58 1.1 1.86v3.07c0 .83-.4 1.1-1 1.1V31h2.65l.07-.28c-.62-.05-.72-.33-.72-1.08zm9-.19V24l-2 .35v.25c.42.03 1 .07 1 .95v2c0 1.33-.85 2.7-1.75 2.7-.73 0-1.25-.56-1.25-1.77V24l-2 .36v.24c.42.03 1 .08 1 .95v3.24c0 1.36.66 2.2 1.83 2.2 1.48 0 1.99-1.26 2.17-1.74V31l1.94-.33.06-.28c-.41-.03-1-.11-1-.94z" fill="#fff"/><path d="M9.76 30.27a.78.78 0 01-.4.08.43.43 0 01-.35-.42L9 26.32C9 24.96 8.65 24 6.64 24c-1.01 0-2.43.48-2.43 1.43 0 .27.18.53.43.62.48.16 1.01-.22.96-.72 0-.47.12-.85 1.02-.85 1.24 0 1.38 1.08 1.38 2.1v1.9c0 .98-.74 1.9-1.7 1.9-.5 0-1-.5-1-1.27 0-1.05 1.13-1.36 1.96-1.46l.14-.48c-1.27.1-3.4.32-3.4 2.18 0 .94.84 1.7 1.76 1.64.82.04 1.64-.37 2.08-1.06h.03c0 .58.21 1 .92 1.06h.17c.32 0 .7-.26.96-.42l.08-.45a.94.94 0 01-.24.15" fill="#FF328B"/><path d="M16.7 29.73H15c-.45 0-1.17 0-1.17-.6 0-.23.1-.47.26-.65.41.17.86.24 1.3.22 1.73 0 2.64-.84 2.64-2.32a2.33 2.33 0 00-.65-1.76A2.94 2.94 0 0015.6 24c-1.37 0-2.72.41-2.72 2.3 0 1.25.5 1.7.83 1.97-.16.18-.62.74-.62 1.28a1.15 1.15 0 00.57 1.01c.2.12.41.2.64.21h2.44c.72 0 1.26.25 1.26 1 0 1.05-1.15 1.75-2.46 1.75-1.25 0-2.01-.75-2.01-1.62a1.13 1.13 0 01.39-.9l-.55-.2a1.51 1.51 0 00-.78 1.33c0 1.32 1.47 1.87 2.88 1.87 1.91 0 3.53-.94 3.53-2.61 0-1.63-1.6-1.66-2.3-1.66zm-1.27-5.25c1.03 0 1.4.89 1.4 1.99 0 .78-.15 1.74-1.36 1.74-1.04 0-1.4-.9-1.4-2.02 0-.85.22-1.7 1.36-1.7z" fill="#fff"/></svg>