<!-- by TradingView --><svg xmlns="http://www.w3.org/2000/svg" width="56" height="56" viewBox="0 0 56 56"><path fill="#F0F3FA" d="M0 0h56v56H0z"/><path fill-rule="evenodd" d="M42.32 21.56a11.7 11.7 0 0 1-8.8 8.68 11.73 11.73 0 0 1 8.8-8.68zm-12.79 7.38l1.53 1.5A14.1 14.1 0 0 1 45 18.92a14 14 0 0 1-11.69 13.74l7.1 7.34H43v2H32.75L28 36.8 23.27 42H13v-2h2.58l7.1-7.34A14 14 0 0 1 11 18.92a14.1 14.1 0 0 1 13.94 11.52l1.52-1.5A13.8 13.8 0 0 1 28.01 11a13.82 13.82 0 0 1 1.53 17.94zM37.3 40l-5.85-6.16-1.78 1.85L33.72 40h3.58zm-15 0l4.03-4.31-1.73-1.85L18.64 40h3.65zm7.37-7.63l-1.66-1.64-1.68 1.64L28 34.03l1.66-1.66zm-1.66-17.65a11.5 11.5 0 0 0 0 12.29 11.51 11.51 0 0 0 0-12.29zm-14.34 6.84a11.72 11.72 0 0 0 8.81 8.68 11.73 11.73 0 0 0-8.8-8.68z" fill="#D3B76C"/></svg>