<!-- by TradingView --><svg xmlns="http://www.w3.org/2000/svg" width="56" height="56"><path fill="#F0F3FA" d="M0 0h56v56H0z"/><path d="M18 32.54V11a76.94 76.94 0 003.59 14.25c-3.22 2.1-3.59 5.58-3.59 7.3z" fill="#B9C8EA"/><path d="M29.8 17.7L48 28a76.38 76.38 0 00-14.34-3.98c-.57-3.62-2.8-5.71-3.86-6.31z" fill="#939598"/><path d="M36.19 34.64L18 45a73.5 73.5 0 0010.71-10.2c3.49 1.31 6.41.44 7.48-.16z" fill="#77787B"/><path d="M29.77 17.68l-11.8-6.7a73.14 73.14 0 003.62 14.3c3.54-2.1 9.52-1.73 12.07-1.28a8.1 8.1 0 00-3.9-6.32z" fill="#3B7CCA"/><path d="M36.36 34.54L48 28a76.24 76.24 0 00-14.34-4.02c.1 4.07-3.3 8.9-4.97 10.85 3.15 1.52 6.38.45 7.67-.29z" fill="#C7C8CA"/><path d="M18 31.82V45a73.07 73.07 0 0010.71-10.18c-3.63-1.96-6.23-7.2-7.1-9.59a8.22 8.22 0 00-3.61 6.6z" fill="#231F20"/></svg>