<!-- by TradingView --><svg width="56" height="56" viewBox="0 0 56 56" xmlns="http://www.w3.org/2000/svg"><path fill="#47AA42" d="M0 0h56v56H0z"/><path d="m8.22 22 2.97 7.94c.13.37.37.78.81.8V31H8.87v-.25c.77-.03.98-.33.7-1.06L7.4 23.54l.2-.23-2.02 5.5c-.15.37-.24.69-.27.94-.07.74.38.97 1.06 1V31H4v-.25c.54-.14.82-.7 1-1.18L7.8 22H8.22Zm1.28 5.36v.25H5.88l.12-.25h3.5ZM14.78 34c-.5 0-.96-.05-1.4-.14-.56-.12-1.38-.41-1.38-1.12 0-.54.52-.97 1.43-1.19l.1.2c-.38.15-.53.35-.53.75 0 .36.12.8.48 1 .37.2.85.29 1.45.29.9 0 2.36-.27 2.36-1.43 0-.83-.89-.93-1.52-.93h-.94c-.31 0-.6-.03-.87-.08-.49-.09-.9-.36-.9-.9 0-.92 1.18-1.38 1.88-1.66l.16.11c-.37.2-1.1.43-1.1.95 0 .26.2.4.6.4h1.6c1.44 0 3.08 1.07 1.84 2.6-.74.95-2.15 1.15-3.26 1.15Zm.2-5c-1.24 0-2.48-.61-2.48-2 0-1.38 1.24-2 2.48-2 .98 0 2.52.84 2.52 2 0 1.4-1.28 2-2.52 2Zm0-.22c.9 0 1.02-1.1 1.02-1.78 0-.67-.12-1.68-1.02-1.68-.89 0-.98 1.02-.98 1.68 0 .67 0 1.78.98 1.78Zm1.86-2.62-.24-.08c.12-.3.33-.54.64-.76.3-.21.62-.32.95-.32.24 0 .44.07.58.2.15.12.23.3.23.53 0 .25-.08.44-.23.54-.14.11-.3.16-.45.16a.67.67 0 0 1-.4-.13c-.12-.1-.18-.23-.2-.42-.02-.2.05-.45.2-.76l.14.05c-.35.13-.61.28-.78.42-.16.14-.31.33-.44.57ZM22 24v5.79c0 .6.02.94.65.94V31h-2.98v-.27c.46 0 .83-.34.83-.94V25.7c0-.6 0-1.15-.5-1.15v-.4c.71.07 1.31.06 2-.15ZM26.5 21v8.81c0 .6.44.92.94.92V31H24v-.27c.61 0 1-.32 1-.92v-7.28c0-.6-.16-1.12-.85-1.12v-.27c.71.07 1.66.07 2.35-.14ZM37.25 24c.38 0 .7.06.98.17.28.1.48.2.6.28.31.22.5.08.58-.44h.3l-.05 2.22h-.3a2.62 2.62 0 0 0-.9-1.68c-.25-.2-.58-.3-1-.3-.3 0-.56.09-.77.25-.2.16-.31.39-.31.7 0 .25.08.48.25.67.17.18.39.36.65.52l.87.53c.35.22.66.43.93.64.29.21.5.44.67.7.17.26.25.56.25.9 0 .4-.12.73-.35 1-.23.28-.53.49-.9.63a3.59 3.59 0 0 1-2.43 0l-.3-.15a4.9 4.9 0 0 0-.29-.17c-.1-.06-.18-.05-.25.03-.08.08-.13.3-.17.5H35v-3h.35c.13.94.38 2.02.89 2.43.26.2.62.3 1.07.3.18 0 .36-.03.54-.1a1 1 0 0 0 .43-.36c.12-.17.18-.39.18-.66 0-.38-.14-.69-.43-.93a7.82 7.82 0 0 0-1.1-.78l-.92-.6c-.28-.21-.5-.44-.69-.69a1.56 1.56 0 0 1-.26-.91c0-.39.1-.7.3-.95.2-.25.47-.44.8-.56.35-.13.7-.19 1.1-.19ZM49.25 24c.38 0 .7.06.98.17.28.1.48.2.6.28.31.22.5.08.58-.44h.3l-.05 2.22h-.3a2.62 2.62 0 0 0-.9-1.68c-.25-.2-.58-.3-1-.3-.3 0-.56.09-.77.25-.2.16-.31.39-.31.7 0 .25.08.48.25.67.17.18.39.36.65.52l.87.53c.35.22.66.43.93.64.29.21.5.44.67.7.17.26.25.56.25.9 0 .4-.12.73-.35 1-.23.28-.53.49-.9.63a3.59 3.59 0 0 1-2.43 0l-.3-.15a4.9 4.9 0 0 0-.29-.17c-.1-.06-.18-.05-.25.03-.08.08-.13.3-.17.5H47v-3h.35c.13.94.38 2.02.89 2.43.26.2.62.3 1.07.3.18 0 .36-.03.54-.1a1 1 0 0 0 .43-.36c.12-.17.18-.39.18-.66 0-.38-.14-.69-.43-.93a7.82 7.82 0 0 0-1.1-.78l-.92-.6c-.28-.21-.5-.44-.69-.69a1.56 1.56 0 0 1-.26-.91c0-.39.1-.7.3-.95.2-.25.47-.44.8-.56.35-.13.7-.19 1.1-.19Z" fill="#fff"/><circle cx="35.5" cy="32.5" r=".5" fill="#fff"/><path d="M34 24.26V24h-2v.26c.54.03.89.23.93.66.03.2-.02.48-.14.82l-1.15 3.3-1.43-3.81c-.26-.7.08-.96.79-.96V24h-3v.27c.4 0 .64.4.78.71l2.26 5.78-.34.99c-.14.4-.3.73-.71.85a.5.5 0 1 0-.99-.1c0 .38.3.5.48.5.17 0 .35-.03.52-.08.52-.15.77-.68.95-1.15l.42-1.2 1.85-5.34c.13-.37.33-.9.78-.97ZM47 24.26V24h-2v.26c.54.03.89.23.93.66.03.2-.02.48-.14.82l-1.15 3.3-1.43-3.81c-.26-.7.12-.96.83-.96V24H41v.27c.4 0 .64.4.78.71l2.26 5.78-.34.99c-.14.4-.3.73-.71.85a.5.5 0 1 0-.99-.1c0 .38.3.5.48.5.17 0 .35-.03.52-.08.52-.15.77-.68.95-1.15l.42-1.2 1.85-5.34c.13-.37.33-.9.78-.97Z" fill="#fff"/><circle cx="47.5" cy="32.5" r=".5" fill="#fff"/><circle cx="51.5" cy="32.5" r=".5" fill="#fff"/><circle cx="21" cy="22" r="1" fill="#fff"/></svg>