<!-- by TradingView --><svg xmlns="http://www.w3.org/2000/svg" width="56" height="56" viewBox="0 0 56 56"><path fill="#0E3359" d="M0 0h56v56H0z"/><path d="M6.61 26.5H5.4v1.39H4v1.22h1.39v1.4h1.22v-1.4h1.4V27.9H6.6v-1.4Z" fill="#50C4C3"/><path d="M10 25H9v1H8v1h1v1h1v-1h1v-1h-1v-1Z" fill="#BBC330"/><path fill-rule="evenodd" d="M11.8 27c.03-.5.49-1.52 2.11-1.5.55 0 1.46.23 1.47 1.22v2.62c.01.13.1.5.2.66h-1.04c-.03-.07-.1-.32-.1-.44-.17.14-.65.44-1.28.44-.78 0-1.48-.39-1.5-1.29 0-.9.91-1.27 1.7-1.34.78-.07 1.02-.17 1.02-.55s-.46-.5-.73-.5c-.28 0-.8.18-.82.68H11.8Zm2.58.88v.54c-.01.24-.2.73-.9.75-.7.02-.83-.36-.8-.55 0-.16.16-.49.83-.56.66-.07.86-.15.87-.18ZM20.68 27c.03-.5.49-1.52 2.11-1.5.55 0 1.46.23 1.47 1.22v2.62c.01.13.1.5.2.66h-1.04c-.03-.07-.1-.32-.1-.44-.17.14-.65.44-1.28.44-.78 0-1.48-.39-1.5-1.29 0-.9.91-1.27 1.7-1.34.78-.07 1.02-.17 1.02-.55s-.46-.5-.73-.5c-.28 0-.8.18-.82.68h-1.03Zm2.58.88v.54c-.01.24-.2.73-.9.75-.7.02-.83-.36-.8-.55 0-.16.16-.49.83-.56.66-.07.86-.15.87-.18Z" fill="#fff"/><path d="M20 24h-1v2.23a1.7 1.7 0 0 0-1.35-.73c-1.01 0-1.83 1-1.83 2.25 0 1.24.82 2.25 1.83 2.25a1.7 1.7 0 0 0 1.35-.73V30h1v-6Zm-1 3.63v.15c-.03.7-.5 1.27-1.08 1.27-.6 0-1.09-.6-1.09-1.35 0-.74.49-1.34 1.09-1.34.58 0 1.05.56 1.08 1.27ZM25 31.52h1v-2.23c.34.45.82.73 1.35.73 1.02 0 1.84-1.01 1.84-2.25 0-1.25-.82-2.25-1.84-2.25a1.7 1.7 0 0 0-1.35.72v-.72h-1v6Zm1-3.63v-.15c.04-.7.5-1.27 1.09-1.27.6 0 1.08.6 1.08 1.34 0 .74-.49 1.34-1.08 1.34-.58 0-1.05-.56-1.09-1.26ZM30 25.74V24.5h1v1.24h.83v.86H31v1.96c0 .5.55.52.83.47V30H30.8c-.8-.08-.82-.68-.81-.97V26.6h-.7v-.86h.7ZM33.56 24H33v6h.56v-2.53c0-.41.33-1.25 1.2-1.25.7 0 .9.59.92.89V30h.53v-2.98c-.01-.53-.34-1.3-1.32-1.3-.79-.01-1.22.42-1.33.64V24ZM49.35 24h-.56v6h.56v-2.53c0-.41.33-1.25 1.2-1.25.7 0 .91.59.92.89V30H52v-2.98c0-.53-.34-1.3-1.32-1.3-.78-.01-1.21.42-1.33.64V24ZM38.62 30c1 0 1.58-.66 1.77-1.57h-.56c-.16.62-.56 1.06-1.21 1.06-.73 0-1.22-.67-1.28-1.54H40.45v-.2c0-1.24-.73-2.25-1.83-2.25s-1.84 1-1.84 2.25c0 1.24.73 2.25 1.84 2.25Zm1.26-2.62h-2.53c.12-.78.6-1.37 1.27-1.37s1.15.59 1.26 1.37ZM45.3 24h.55v6h-.55zM47.45 24.5h-.55v1.25h-.68v.55h.68v2.84c0 .68.42.86.63.86h.71v-.53c-.05.01-.21.03-.47 0a.35.35 0 0 1-.32-.33V26.3h.8v-.55h-.8V24.5Z" fill="#fff"/><path fill-rule="evenodd" d="M41.15 27c-.02-.5.3-1.5 1.75-1.5.47-.02 1.42.2 1.44 1.2v2.35c0 .13.1.38.45.28v.5c-.3.08-.91.1-.97-.5-.13.23-.58.68-1.37.67-1-.02-1.45-.58-1.46-1.28 0-.71.62-1.2 1.63-1.3 1.02-.1 1.17-.24 1.15-.63-.03-.39-.28-.73-.94-.74-.66-.02-1.07.3-1.09.96h-.59Zm2.63.7v.7a1.25 1.25 0 0 1-1.3 1.09c-.96.02-.93-.79-.86-1.04.05-.18.29-.44 1.07-.53.78-.08 1.05-.19 1.09-.22Z" fill="#fff"/></svg>