<!-- by TradingView --><svg width="56" height="56" viewBox="0 0 56 56" xmlns="http://www.w3.org/2000/svg"><path fill="#F0F3FA" d="M0 0h56v56H0z"/><path d="M19.04 37.3c1.81 0 2.15-1.35 2.09-2.03-.1-.56-.55-1.69-1.64-1.69-1.36 0-5.58-.85-5.58-4.74s3.98-4.14 4.8-4.14c.8 0 2.27-.02 2.4-2.06.13-2.04.78-6.56 7.26-6.56 5.19 0 6.38 4.37 6.33 6.56-.04.69.33 2.06 2.14 2.06 2.26 0 5.16.66 5.16 4.14 0 3.48-3 4.26-4.85 4.26h-4.52c-1.2.07-3.33.87-2.34 3.52 1 2.64 1.63 4.13 1.82 4.38h-6.36c-.4.02-1.12-.52-.85-1.51.27-1 3.26-9.33 4.72-13.37.19-.47.3-1.53-.83-2.02-1.17-.41-1.77.56-1.92 1.1l-5.34 12.97c-.3.68-.74 2.38 0 3.71.93 1.67 2.34 2.12 3.88 2.12h7.04c.6 0 1.93-.28 2.44-1.4.65-1.42.36-2.33 0-2.84a65.99 65.99 0 0 1-1.56-2.64c-.07-.13-.1-.38.28-.3.38.08 2.82.3 4 .41 2.79.02 8.39-1.63 8.39-8.39a7.9 7.9 0 0 0-7.42-8.06C38.23 17.85 35.7 12 28.37 12c-9.16 0-10.42 6.92-11.03 8.78-2.45.1-7.34 1.84-7.34 8.06 0 7.78 8.32 8.47 9.04 8.47Z" fill="url(#abwb011ca)"/><path d="M21.13 35.27c.06.68-.28 2.04-2.09 2.04-.72 0-9.04-.7-9.04-8.47 0-6.22 4.9-7.96 7.34-8.06l.16-.52c.2-.67.47-1.6.94-2.6l3.29 2.07a8.95 8.95 0 0 0-.62 2.91c-.13 2.04-1.6 2.06-2.4 2.06-.82 0-4.8.25-4.8 4.14 0 3.9 4.22 4.74 5.58 4.74 1.1 0 1.55 1.13 1.64 1.69Z" fill="url(#bbwb011ca)"/><path d="M34.38 20.4c-.63-2.08-2.3-4.32-6.01-4.32-5.57 0-6.84 3.34-7.16 5.58l-3.22-2.93C19.01 15.99 21.41 12 28.37 12c4.4 0 7.07 2.11 8.58 4.43-1.1 1.73-2.18 3.42-2.57 3.97Z" fill="url(#cbwb011ca)"/><path d="m32.43 17.37 2.71-3.02a10.6 10.6 0 0 1 3.44 6.43A7.9 7.9 0 0 1 46 28.84c0 6.44-5.1 8.25-8 8.38l-.55-4.13c1.86-.08 4.55-.95 4.55-4.25 0-3.48-2.9-4.14-5.16-4.14-1.8 0-2.18-1.37-2.14-2.06.04-1.43-.46-3.8-2.27-5.27Z" fill="url(#dbwb011ca)"/><defs><linearGradient id="abwb011ca" x1="23.93" y1="32.39" x2="39.88" y2="37.03" gradientUnits="userSpaceOnUse"><stop stop-color="#EEE96D"/><stop offset=".68" stop-color="#F8880B"/><stop offset=".82" stop-color="#EB3618"/></linearGradient><linearGradient id="bbwb011ca" x1="16.27" y1="23.3" x2="21.68" y2="33.05" gradientUnits="userSpaceOnUse"><stop stop-color="#66BFDA"/><stop offset=".51" stop-color="#7AC34E"/><stop offset=".99" stop-color="#F5EA3A"/></linearGradient><linearGradient id="cbwb011ca" x1="18.88" y1="18.51" x2="33.76" y2="13.77" gradientUnits="userSpaceOnUse"><stop offset=".12" stop-color="#65BFD9"/><stop offset=".42" stop-color="#3B54A6"/><stop offset="1" stop-color="#7B3893"/></linearGradient><linearGradient id="dbwb011ca" x1="34.02" y1="17.45" x2="29.88" y2="31.94" gradientUnits="userSpaceOnUse"><stop offset=".05" stop-color="#7A3892"/><stop offset=".25" stop-color="#B6337E"/><stop offset=".93" stop-color="#EA3518"/></linearGradient></defs></svg>