<!-- by TradingView --><svg width="56" height="56" viewBox="0 0 56 56" xmlns="http://www.w3.org/2000/svg"><path fill="url(#a5m02kysa)" d="M0 0h56v56H0z"/><path fill-rule="evenodd" d="M16.89 19H8v12h3v-4h4.06l2.45 4h3.7l-2.67-4.36A4 4 0 0 0 16.9 19Zm-.51 2.42H11v2.98h5.38a1.49 1.49 0 0 0 0-2.98Z" fill="#fff"/><path d="M34 19H23v12h11v-2.57h-8v-2.15h6v-2.56h-6v-2.15h8V19ZM48 21.48V19h-2.38L42 22.64 38.38 19H36v2.48l3.6 3.58-3.6 3.61V31h2.44L42 27.45 45.56 31H48v-2.33l-3.6-3.61 3.6-3.58ZM47.22 34.34a.7.7 0 0 0-.32-.52 1.23 1.23 0 0 0-.7-.19c-.2 0-.37.03-.52.1a.8.8 0 0 0-.34.25.6.6 0 0 0-.12.37c0 .12.02.22.08.3.05.08.13.15.22.21s.18.1.29.14l.3.09.48.12.48.16c.16.06.32.15.46.25s.25.24.34.4c.09.15.13.34.13.56 0 .27-.07.52-.22.73-.14.21-.35.38-.62.5-.27.13-.6.19-.98.19a2.4 2.4 0 0 1-.95-.17 1.47 1.47 0 0 1-.63-.5 1.41 1.41 0 0 1-.25-.75h.74c.01.17.07.32.17.44.1.11.23.2.4.25.15.06.33.09.52.09.2 0 .4-.03.56-.1.16-.07.3-.16.38-.27.1-.12.15-.26.15-.42a.5.5 0 0 0-.13-.35.92.92 0 0 0-.33-.23c-.14-.06-.3-.11-.47-.16l-.58-.15c-.4-.11-.7-.27-.94-.47-.23-.2-.34-.48-.34-.82 0-.28.07-.52.23-.73.15-.2.36-.37.62-.48.26-.12.56-.18.89-.18.33 0 .62.06.88.17.25.12.46.28.6.48.15.2.23.43.23.7h-.71ZM37.7 38v-5h3.08v.65h-2.34v1.52h2.18v.65h-2.18v1.53h2.37V38h-3.1ZM30.58 38v-5h1.75a2 2 0 0 1 .95.2c.25.13.44.32.57.55.12.24.18.51.18.82 0 .3-.06.57-.19.8-.12.24-.3.42-.56.55-.25.12-.57.19-.95.19h-1.32v-.65h1.25c.24 0 .44-.04.59-.1a.69.69 0 0 0 .33-.31c.07-.14.1-.3.1-.48 0-.2-.03-.35-.1-.5a.7.7 0 0 0-.33-.31 1.33 1.33 0 0 0-.6-.11h-.93V38h-.74Zm2.43-2.26L34.22 38h-.84l-1.2-2.26h.83ZM23.5 38h-.78l1.76-5h.86l1.77 5h-.79l-1.39-4.1h-.04L23.5 38Zm.13-2h2.56v.68h-2.56V36ZM15.26 38v-5H16v2.17h2.45V33h.74v5h-.74v-2.18H16V38h-.74ZM10.87 34.34a.7.7 0 0 0-.31-.52 1.23 1.23 0 0 0-.7-.19c-.2 0-.38.03-.53.1a.8.8 0 0 0-.34.25.6.6 0 0 0-.12.37c0 .12.03.22.08.3.06.08.13.15.22.21a3.3 3.3 0 0 0 .6.23l.47.12c.16.04.32.1.48.16.17.06.32.15.46.25s.26.24.34.4c.09.15.13.34.13.56 0 .27-.07.52-.21.73-.14.21-.35.38-.62.5-.27.13-.6.19-.98.19a2.4 2.4 0 0 1-.96-.17 1.47 1.47 0 0 1-.63-.5 1.41 1.41 0 0 1-.25-.75h.74c.02.17.08.32.18.44.1.11.23.2.39.25.16.06.33.09.52.09.21 0 .4-.03.56-.1.17-.07.3-.16.39-.27.1-.12.14-.26.14-.42a.5.5 0 0 0-.12-.35.92.92 0 0 0-.34-.23c-.14-.06-.3-.11-.47-.16l-.58-.15c-.4-.11-.7-.27-.94-.47-.22-.2-.34-.48-.34-.82 0-.28.08-.52.23-.73.16-.2.36-.37.63-.48.26-.12.55-.18.88-.18.34 0 .63.06.88.17.26.12.46.28.6.48.15.2.23.43.24.7h-.72Z" fill="#fff"/><defs><linearGradient id="a5m02kysa" x1="28" y1="0" x2="28" y2="56" gradientUnits="userSpaceOnUse"><stop stop-color="#3102AA"/><stop offset="1" stop-color="#200F46"/></linearGradient></defs></svg>