<!-- by TradingView --><svg xmlns="http://www.w3.org/2000/svg" width="56" height="56" viewBox="0 0 56 56"><path fill="url(#abgoaw32x)" d="M0 0h56v56H0z"/><path d="M22 37.6c-.05 4 2 7.4 2 7.4-2.2-2.41-4-5.3-4-8.44 0-1.1.19-2.24.65-3.4.41-1.03.96-1.95 1.5-2.85.95-1.6 1.85-3.1 1.85-5.01 0-1.4-.68-3-1.57-4.97C21.33 17.9 21 16.3 21 14.67c0-2.19 1.18-3.67 1.18-3.67s-1.48 3.87 1.75 9C25.33 22.22 26 24 26 25.71c0 2.1-.9 4.14-2.65 6.83A9.24 9.24 0 0 0 22 37.59Zm12 0c.05 4-2 7.4-2 7.4 2.2-2.41 4-5.3 4-8.44 0-1.1-.19-2.24-.65-3.4a19.9 19.9 0 0 0-1.5-2.85C32.9 28.7 32 27.2 32 25.3c0-1.4.68-3 1.57-4.97C34.67 17.9 35 16.3 35 14.67c0-2.19-1.18-3.67-1.18-3.67s1.48 3.87-1.75 9C30.68 22.22 30 24 30 25.71c0 2.1.9 4.14 2.65 6.83A9.24 9.24 0 0 1 34 37.59Z" fill="#E6CB72"/><defs><linearGradient id="abgoaw32x" x1="10.42" y1="9.71" x2="68.15" y2="76.02" gradientUnits="userSpaceOnUse"><stop stop-color="#1A1E21"/><stop offset="1" stop-color="#06060A"/></linearGradient></defs></svg>