<!-- by TradingView --><svg width="56" height="56" viewBox="0 0 56 56" xmlns="http://www.w3.org/2000/svg"><path fill="#142F5A" d="M0 0h56v56H0z"/><path fill="#971A37" d="M25 19h8v18h-8z"/><path d="m4 35 2.1-14h2.82L11 35H8.73l-.38-3H6.71l-.38 3H4Zm2.94-5h1.18l-.6-5.27L6.95 30ZM13 35V21h2v14h-2ZM34 35V21h2v14h-2ZM17 35V21h3.5c2.4 0 3.5 1.56 3.5 4 0 1.31-.3 2.5-1.54 3.22L24 35h-2.57l-1.18-6H19v6h-2Zm2-8h1.5c1.13 0 1.5-1.05 1.5-2 0-.86-.44-2-1.5-2H19v4ZM28 35V23h-2v-2h6v2h-2v12h-2ZM38 35V21h2l2 6.74V21h2v14h-2l-2-7.26V35h-2ZM49.06 35C46.51 35 46 32.57 46 30.46v-4.9c0-2.12.5-4.56 3.06-4.56 2.29 0 2.94 1.96 2.94 3.93V26h-2v-1.25c0-.55-.14-1.63-.94-1.63-.81 0-1.06 1.1-1.06 1.68v6.4c0 .56.26 1.67 1.06 1.67s.94-1.12.94-1.67V30h2v.95c0 1.98-.62 4.05-2.94 4.05Z" fill="#FEFEFE"/></svg>