<!-- by TradingView --><svg width="56" height="56" viewBox="0 0 56 56" xmlns="http://www.w3.org/2000/svg"><path fill="#181B1E" d="M0 0h56v56H0z"/><path d="M13.13 27.34s30.8-.44 31.24 0c.42.6 1.7 1.51 1.8 1.57.1.07 1 2.6-2.14 5.41-12.35-.05-17.82 3.12-26.26.22-3.4-1.08-4.2-1.47-4.67-1.92-5.57-4.7.03-5.28.03-5.28Z" fill="#fff"/><path d="M20.43 18c4.75.4 9.35 1.9 13.74 3.7 1.47.61 2.93 1.28 4.37 1.96.4.19.7.24 1.08 0 .22-.13.48-.19.73-.27.1-.03.21-.05.31-.04l2.82.42c.23.04.33.15.33.37.01.82.04 1.64.03 2.46 0 .22 1 1.27 1.16 1.4h-3v6h1.5v-1.84c.42-.02.47-.02.86-.06 1.27-.12 2.1-1.1 2-2.27-.03-.32-.13-.62-.2-.93.1.02.22-.3.33-.28.37.08.39.1.36.47l-.01.2c-.1.49.64 1.02.93 1.34.3.35.32.5-.01.81-.8.76-1.58 1.52-2.42 2.23-.5.44-1.09.8-1.65 1.17-.13.09-.2.15-.19.31.04.8.06 1.6.07 2.39.01.35-.03.4-.41.36-.87-.08-1.74-.2-2.6-.27a1.83 1.83 0 0 1-1.37-.69c-.16-.2-.44-.54-.74-.48-1.69.33-3.4.42-5.12.46-.6.02-1.2 0-1.76 0L31.13 38h-1.06c-1.57 0-4.53-.51-6.16-.74-.41-.06-.87-.02-1.18-.36-.3-.33-.58-.68-.87-1.02-.15-.18-.23-.4-.5-.44a23.36 23.36 0 0 1-5.13-1.36c-.49-.2-.99-.38-1.5-.57.48-1.48.93-2.58 1.41-4.07.57 1.56 1.04 2.83 1.57 4.41.02.06.08.15.13.15h1.46c-.77-2.14-1.52-3.9-2.27-6h-1.46c-.18 0-.25.06-.3.2-.56 1.58-1.25 3.12-1.83 4.68l-.36-.24c-2.11-1.22-4.17-2.95-4.83-5.4-.1-.37-.17-.74-.25-1.11C8 19.19 15.1 18 20.43 18ZM34.5 34v-2.22h2V34H38v-6h-1.52v2.52h-1.99V28H33v6h1.5Zm-12-6v6H24v-2.04c.52-.06.83 0 1.13.66.2.42.25.51.43.93.18.45.18.45.68.45h1.11c-.35-.8-.76-2.1-1.6-2.48l-.01-.06c.88-.3 1.26-.94 1.26-1.93 0-.53-.51-1.34-1.28-1.44-.46-.06-.91-.08-1.38-.09H22.5ZM20 28v6h1.5v-6H20Zm24.3 2.93c.5-.1.71-.42.7-.98 0-.52-.22-.82-.72-.9-.32-.05-.45-.03-.78-.05l.01 2c.35-.02.48-.01.8-.07Zm-19.34-.16c.4-.07.63-.27.63-.8 0-.97-.85-.9-1.59-.97v1.83c.35-.02.66-.02.96-.06Z" fill="#F48322"/><path d="M31.73 28.35c.02.34.01.67.01.98-.42-.1-.82-.21-1.23-.28-.17-.03-.35-.01-.53.02-.25.05-.46.17-.51.42-.06.24-.01.49.22.64.5.32 1.06.51 1.55.83.6.4.84.95.73 1.62-.1.67-.55 1.08-1.24 1.26-.84.24-1.7.21-2.53-.08-.13-.05-.18-.11-.18-.25.02-.36.01-.71.01-1.1.19.12.36.2.51.3.44.3.93.31 1.44.26a.6.6 0 0 0 .55-.46c.08-.26-.03-.48-.26-.63-.57-.36-1.23-.6-1.75-1.05-.74-.65-.67-1.68.07-2.32.58-.5 1.28-.53 2-.5.33.02.67.1 1 .16.06.02.14.12.14.18ZM39 28h1.5v6H39v-6Z" fill="#fff"/></svg>