<!-- by TradingView --><svg xmlns="http://www.w3.org/2000/svg" width="56" height="56"><path fill="#12374B" d="M0 0h56v56H0z"/><path d="M8.61 22h2.66L16 33h-2.6l-1.03-2.5h-4.9l-1 2.5H4l4.61-11zm3.03 6.69l-1.52-3.9a5.4 5.4 0 01-.23-.72l-.08.33a7.5 7.5 0 01-.18.58l-2.15 5.5 4.16-1.79zm16.5-4.19c2.98 0 3.86 2.5 3.8 5H26.2c0 .96.86 2 2.31 2a6 6 0 003-1.04v2.04c-.88.42-1.89.75-3 .75-2.8 0-4.5-1.92-4.5-4.25.01-2.84 1.62-4.5 4.14-4.5zM29.9 28c0-1-.69-1.87-1.8-1.87-1.07 0-1.94.87-1.94 1.87h3.74zM42 21h2v2h-2v-2zm0 4h2v8h-2v-8z" fill="#00B5AF"/><path d="M19.01 21H17v12h2v-4.2s1.93 2.82 2.94 4.2h2.83l-3.63-4.55 3-3.45h-2.59c-.98 1.2-2.54 3.2-2.54 3.2V21zM33 21v12h2v-1.16a2.86 2.86 0 002.6 1.36c2.14 0 3.4-1.8 3.4-4.52 0-2.57-1.25-4.12-3.32-4.12-1.1 0-2.07.6-2.68 1.5V21h-2zm5.8 7.82c0 1.5-.74 2.65-1.8 2.65-1.11 0-1.86-1.17-1.86-2.62 0-1.35.76-2.53 1.9-2.53 1.1 0 1.76 1.18 1.76 2.5zm7.2-2.1a3.95 3.95 0 012.33-.86c1.3 0 1.67.85 1.67 1.92a10.98 10.98 0 00-1.07-.06c-2.61 0-3.93.94-3.93 2.81 0 1.65 1.04 2.72 2.66 2.72 1.04 0 1.82-.39 2.34-1.14V33h2v-5.5c0-2.5-1.92-3.25-3.46-3.25a6.18 6.18 0 00-2.54.54v1.93zm4 2.44c0 .63 0 1.13-.1 1.35-.32.74-.95 1.21-1.67 1.21s-1.21-.46-1.21-1.12c0-.98.83-1.48 2.53-1.48.16 0 .26.01.45.04z" fill="#00B5AF"/></svg>