<!-- by TradingView --><svg width="56" height="56" viewBox="0 0 56 56" xmlns="http://www.w3.org/2000/svg"><path fill="#F0F3FA" d="M0 0h56v56H0z"/><path d="M11 33v-5.38c0-1.21-.8-1.9-2.26-1.9-.9 0-1.9.22-2.67.86l-.8-1.5A6.08 6.08 0 0 1 8.98 24c1.95 0 4.01.91 4.01 3.73V33h-2Zm-2.8 0C6.9 33 5 32.41 5 30.37c0-2.3 2.28-2.75 3.66-2.75h3.14V29H8.81C8.19 29 7 29 7 30.37c0 1.02 1.1 1.13 1.71 1.13 1 0 2.31-.09 2.81-1.36l.35 1.23C11.26 32.95 9.4 33 8.2 33ZM34 33v-9h2v2.55l-.45-.72C36.4 24.41 38.5 24 41 24v1.98c-1.8-.33-5 .55-5 2.7V33h-2ZM46.5 33a4.43 4.43 0 0 1-4.5-4.5c0-2.55 1.95-4.5 4.5-4.5s4.5 1.93 4.5 4.5c0 2.54-1.96 4.5-4.5 4.5Zm0-1.76c1.55 0 2.5-1.26 2.5-2.75 0-1.47-.94-2.75-2.5-2.75-1.54 0-2.5 1.27-2.5 2.75 0 1.47.95 2.75 2.5 2.75ZM16 19h-2v14h2v-4.5l5 4.5h3l-5.5-5 5-4h-3L16 27.7V19ZM33 24h-8v2h8v-2ZM33 31h-8v2h8v-2Z"/><path d="M24 28.5a1 1 0 1 1-2 0 1 1 0 0 1 2 0Z" fill="#F77127"/><path d="M30.83 27.5H25l1.17 1-1.17 1h5.83l1.17-1-1.17-1Z" fill="#2285C6"/></svg>