<!-- by TradingView --><svg xmlns="http://www.w3.org/2000/svg" width="56" height="56" viewBox="0 0 56 56"><path fill="#F0F3FA" d="M0 0h56v56H0z"/><path d="M6.16 25.72l.16-.3a.86.86 0 0 1 .24-.22c.1-.06.23-.11.38-.15.15-.03.33-.05.56-.05.14 0 .28 0 .4.02.13.01.26.04.37.1.11.04.23.11.32.2.1.1.18.23.25.4L11 31H9.02l-.46-1h-2.1l-.47 1H4l2.16-5.28zm.75 2.78h1.2l-.53-1.58-.03-.08-.04-.04-.03.04-.04.08-.53 1.58zM11 25h2v6h-2v-6zm4.53 6l-1.91-2.32a1.14 1.14 0 0 1-.22-1.11.88.88 0 0 1 .14-.31l1.7-2.26h2.43l-2.2 2.48a.8.8 0 0 0-.13.2.55.55 0 0 0-.06.23.81.81 0 0 0 .26.55L18 31h-2.47z" fill="#53555C"/><path d="M21.25 25a4.33 4.33 0 0 1 1.45.25 1.78 1.78 0 0 1 1 .87 2.98 2.98 0 0 1 .3 1.26v1.24c-.02.22-.05.44-.1.65-.04.21-.11.42-.2.6-.1.2-.24.37-.4.53-.18.15-.37.26-.6.34a4.6 4.6 0 0 1-1.45.25l-.75.01h-.74a4.33 4.33 0 0 1-1.45-.25 1.78 1.78 0 0 1-1-.87 2.98 2.98 0 0 1-.3-1.26L17 28v-.62c.02-.23.05-.44.1-.65.04-.22.11-.43.2-.61a1.94 1.94 0 0 1 1-.86 4.6 4.6 0 0 1 1.46-.25l.74-.01h.75zM19 28.64c.08.53.63.86 1.14.9a5.26 5.26 0 0 0 1.05-.05c.36-.1.77-.5.81-.86.04-.4 0-1.24 0-1.24-.04-.37-.46-.75-.81-.85a2.57 2.57 0 0 0-.68-.07c-.6 0-1.43.22-1.51.9v1.27zM34.8 29.5c.14 0 .23-.03.27-.07.04-.05.06-.08.06-.13 0-.1-.05-.17-.12-.2a1.76 1.76 0 0 0-.26-.1l-2.27-.65a1.05 1.05 0 0 1-.42-.2 1.45 1.45 0 0 1-.51-.9 4.87 4.87 0 0 1 0-1.28c.04-.22.14-.41.32-.6.1-.1.22-.18.38-.26.17-.08.37-.11.62-.11h3.67v1.5h-2.79c-.14 0-.4-.04-.4.19 0 .1.05.16.16.2l.33.12 1.96.54c.13.04.27.09.42.16.16.07.28.15.39.26.08.09.16.2.21.31.05.12.1.24.12.36.03.12.04.25.05.37l.01.33c0 .18-.02.38-.04.6-.03.21-.11.41-.24.6a1.07 1.07 0 0 1-.87.45l-.3.01H31.5v-1.5h3.3zM39 31v-4.5h-2V25h6v1.5h-2V31h-2zM44 31v-6h2v6h-2zM46.55 29.5h3.25c.13 0 .23-.03.26-.07.04-.05.06-.08.06-.13 0-.1-.04-.17-.12-.2a1.75 1.75 0 0 0-.25-.1l-2.27-.65a1.05 1.05 0 0 1-.42-.2 1.45 1.45 0 0 1-.51-.9 4.88 4.88 0 0 1 0-1.28c.04-.22.14-.41.32-.6.1-.1.22-.18.38-.26.16-.08.37-.11.62-.11h3.63v1.5h-2.75c-.1 0-.21-.03-.3.02a.18.18 0 0 0-.1.17c0 .1.05.16.17.2.1.05.2.08.32.12l1.96.54c.13.04.27.09.42.16.16.07.28.15.39.26.08.09.16.2.21.31.05.12.1.24.12.36a2.72 2.72 0 0 1 .06.7c0 .18-.02.38-.04.6-.03.21-.11.41-.24.6a1.07 1.07 0 0 1-.86.45l-.3.01h-4v-1.5z" fill="#53555C"/><path d="M19 24.48s4.93-1.02 6 1.52v-1.4s-1-1.27-6-.12zM23.57 22.84s5.2-1 6.33 1.5v-1.38c0 .01-1.06-1.25-6.33-.12z" fill="#CECBCD"/><path d="M26.89 24.33a11 11 0 0 0 2.18.43v-.74c-.62-.17-.98-.32-1.68-.56-1.12-.4-5.65-2.34-10.93.61 0 0 4.96-1.78 8.9-.25l1.53.51z" fill="#C9DC55"/><path d="M31 22v2.25c-.64.01-1.32-.03-2-.18v-1.4l2-.67zm-4 2.5v-1.17l-1.5.48-.5.16v5.15a8 8 0 0 0 .02.47c.02.15.04.3.09.45.04.15.11.28.2.4.07.13.19.23.32.32.16.11.33.19.51.21.19.03.38.04.59.02.2-.02.41-.05.62-.1l.65-.2.65-.23a5.7 5.7 0 0 0 1.2-.7 3.3 3.3 0 0 0 1.04-1.6c.05-.17.08-.34.1-.5l.01-.5-.02-2.61-.38.06c-.57.08-1.12.16-1.6.14v2.88c0 .71-.35 1.22-1 1.44-.14.05-.27.08-.4.08-.5.03-.6-.4-.6-.84V24.5z" fill="#00AEEF"/><path d="M30.86 24.15a8.13 8.13 0 0 1-2.07-.2l-.02.79c.6.04 1.35.02 2.08-.09a12.3 12.3 0 0 0 4.32-1.5s-1.92.94-4.3 1z" fill="#C9DC55"/></svg>