<!-- by TradingView --><svg width="56" height="56" viewBox="0 0 56 56" xmlns="http://www.w3.org/2000/svg"><path fill="#F0F3FA" d="M0 0h56v56H0z"/><path d="M24 14a1 1 0 1 1-2 0 1 1 0 0 1 2 0Zm0 3a1 1 0 1 1-2 0 1 1 0 0 1 2 0Zm7.5-2a.5.5 0 1 0 0-1 .5.5 0 0 0 0 1Zm1.5 6a1 1 0 1 1-2 0 1 1 0 0 1 2 0Zm5 3a1 1 0 1 0 0-2 1 1 0 0 0 0 2Zm5 0a1 1 0 1 1-2 0 1 1 0 0 1 2 0Zm-7 3a1 1 0 1 0 0-2 1 1 0 0 0 0 2Zm-3 1a1 1 0 1 1-2 0 1 1 0 0 1 2 0Zm6 5a1 1 0 1 0 0-2 1 1 0 0 0 0 2Zm5-3.5a.5.5 0 1 1-1 0 .5.5 0 0 1 1 0ZM41.5 32a.5.5 0 1 0 0-1 .5.5 0 0 0 0 1Zm-.5 3.5a.5.5 0 1 1-1 0 .5.5 0 0 1 1 0ZM29.5 37a.5.5 0 1 0 0-1 .5.5 0 0 0 0 1ZM25 42.5a.5.5 0 1 1-1 0 .5.5 0 0 1 1 0Zm1 2.5a1 1 0 1 0 0-2 1 1 0 0 0 0 2Zm9-4.5a.5.5 0 1 1-1 0 .5.5 0 0 1 1 0ZM31 44a1 1 0 1 0 0-2 1 1 0 0 0 0 2Zm8-4a1 1 0 1 1-2 0 1 1 0 0 1 2 0Zm-7 0a1 1 0 1 0 0-2 1 1 0 0 0 0 2ZM21 24a1 1 0 1 1-2 0 1 1 0 0 1 2 0Zm-7-2a1 1 0 1 0 0-2 1 1 0 0 0 0 2Zm-1 5a1 1 0 1 1-2 0 1 1 0 0 1 2 0Zm0 7a1 1 0 1 0 0-2 1 1 0 0 0 0 2Zm3 4.5a.5.5 0 1 1-1 0 .5.5 0 0 1 1 0Zm-.5-2.5a.5.5 0 1 0 0-1 .5.5 0 0 0 0 1Zm8.5 0a1 1 0 1 1-2 0 1 1 0 0 1 2 0Zm-1 4a1 1 0 1 0 0-2 1 1 0 0 0 0 2Zm13-7a1 1 0 1 1-2 0 1 1 0 0 1 2 0Zm-1-17a1 1 0 1 0 0-2 1 1 0 0 0 0 2Zm5 2a1 1 0 1 1-2 0 1 1 0 0 1 2 0Zm-4 3a2 2 0 1 0 0-4 2 2 0 0 0 0 4Zm-7-5a2 2 0 1 1-4 0 2 2 0 0 1 4 0Zm-11 6a2 2 0 1 0 0-4 2 2 0 0 0 0 4Zm-1 7a2 2 0 1 1-4 0 2 2 0 0 1 4 0Zm2 10a2 2 0 1 0 0-4 2 2 0 0 0 0 4Zm8-12.5a1.5 1.5 0 1 1-3 0 1.5 1.5 0 0 1 3 0Zm1.5-4.5a1.5 1.5 0 1 0 0-3 1.5 1.5 0 0 0 0 3Zm7.5 1.5a1.5 1.5 0 1 1-3 0 1.5 1.5 0 0 1 3 0Zm-.5 7.5a1.5 1.5 0 1 0 0-3 1.5 1.5 0 0 0 0 3Zm2.5 5.5a1.5 1.5 0 1 1-3 0 1.5 1.5 0 0 1 3 0ZM28 34a1 1 0 1 0 0-2 1 1 0 0 0 0 2Zm-2-2a1 1 0 1 1-2 0 1 1 0 0 1 2 0Zm-5 2a1 1 0 1 0 0-2 1 1 0 0 0 0 2Z" fill="url(#auelljppv)"/><defs><linearGradient id="auelljppv" x1="39.5" y1="13" x2="19" y2="42.5" gradientUnits="userSpaceOnUse"><stop stop-color="#ED135D"/><stop offset=".22" stop-color="#D5196D"/><stop offset=".46" stop-color="#7D4499"/><stop offset=".7" stop-color="#4287C6"/><stop offset="1" stop-color="#4AC6E0"/></linearGradient></defs></svg>