<!-- by TradingView --><svg width="56" height="56" viewBox="0 0 56 56" xmlns="http://www.w3.org/2000/svg"><path fill="#F0F3FA" d="M0 0h56v56H0z"/><path d="M31 29.02c-.51.08-.97.32-1.35.72-.44.45-.65.98-.65 1.6 0 .44.06.7.25 1.1.14.28.21.38.46.62.43.42.87.61 1.56.68.8.07 1.62.28 2.18.55.75.37 1.14.84 1.44 1.77.13.4.3 1.26.35 1.71.07.67.29 1.16.7 1.57.46.44.92.63 1.58.66.76.03 1.25-.16 1.78-.68.26-.25.34-.36.46-.61.2-.4.24-.63.24-1.08 0-.7-.2-1.16-.73-1.69-.42-.42-.6-.5-1.62-.8a6.46 6.46 0 0 1-2.3-.93c-.7-.52-1.06-1.21-1.5-2.85-.1-.35-.22-.75-.28-.9A2.38 2.38 0 0 0 32 29.08c-.26-.07-.75-.1-1-.06ZM22.96 29.71a2.28 2.28 0 0 1 1.82-.7c.64.04 1.08.24 1.53.7.48.47.69.97.69 1.64 0 .44-.05.7-.24 1.09-.19.39-.43.67-.77.9-.3.2-.53.29-1.37.52-1.82.5-2.48.9-3.02 1.81-.23.4-.42.9-.7 1.85-.31 1.13-.4 1.3-.8 1.73-.52.53-1.01.75-1.7.75a2.37 2.37 0 0 1-2.4-2.48 2.39 2.39 0 0 1 2.25-2.27 9.55 9.55 0 0 0 1.84-.4c1.2-.43 1.73-1.14 2.07-2.78.05-.26.1-.62.12-.8.07-.68.26-1.14.68-1.56ZM16.05 18.82a2.36 2.36 0 0 1 2.04-2.8c1.15-.13 2.17.5 2.54 1.58l.22.74c.3 1.08.5 1.63.81 2.1.53.82 1.2 1.21 2.89 1.67.7.2 1.11.34 1.31.46.08.05.28.22.44.38.33.32.54.7.65 1.12.09.36.06 1.02-.07 1.37-.26.73-.9 1.3-1.65 1.5-.32.08-.89.08-1.2 0a2.35 2.35 0 0 1-1.77-2.14 8.23 8.23 0 0 0-.6-2.34c-.45-.9-1.16-1.33-2.67-1.62a6.41 6.41 0 0 0-.73-.11c-.24 0-.7-.13-1.02-.29a2.35 2.35 0 0 1-1.2-1.62ZM36 16.67a2.4 2.4 0 0 1 1.14-.63c.3-.07.89-.05 1.17.04.38.11.68.3 1 .63.5.48.69.97.69 1.67a2.3 2.3 0 0 1-.86 1.85c-.24.2-.6.37-1.14.52-1.5.42-1.8.53-2.3.82-.16.09-.4.26-.53.39-.6.55-.89 1.17-1.35 2.83-.21.8-.36 1.1-.73 1.47-.3.31-.56.48-.93.62-.33.13-1.03.16-1.38.07a2.2 2.2 0 0 1-1.09-.64c-.48-.49-.69-.99-.69-1.68 0-.43.07-.72.26-1.1.17-.37.6-.8.97-1 .28-.15.73-.28.96-.28.2 0 1.02-.15 1.45-.27 1.61-.43 2.17-1.12 2.55-3.13.05-.25.1-.53.1-.62 0-.26.09-.6.26-.96.13-.27.2-.37.44-.6Z" fill="#0091AC"/><path d="M28 11c1.12-.02 2 .88 2 2 0 1.25-1.35 2.2-1.4 3.5-.03 1.35 1.38 2.2 1.4 3.5a1.94 1.94 0 0 1-2 2c-1.02-.03-1.97-.86-2-1.89-.04-1.45 1.57-2.11 1.5-3.61-.06-1.36-1.46-2.2-1.5-3.5-.03-1.05.95-1.98 2-2ZM28 34c1.12-.02 2 .88 2 2 0 1.25-1.35 2.2-1.4 3.5-.03 1.35 1.38 2.2 1.4 3.5a1.94 1.94 0 0 1-2 2c-1.02-.03-1.97-.86-2-1.89-.04-1.45 1.57-2.11 1.5-3.61-.06-1.36-1.46-2.2-1.5-3.5-.03-1.05.95-1.98 2-2ZM45 28c.02 1.12-.88 2-2 2-1.25 0-2.2-1.35-3.5-1.39-1.35-.04-2.2 1.37-3.5 1.4a1.94 1.94 0 0 1-2-2c.03-1.03.86-1.98 1.89-2 1.45-.05 2.11 1.56 3.61 1.5 1.36-.07 2.2-1.47 3.5-1.5 1.05-.04 1.99.94 2 2ZM22 28c.02 1.12-.88 2-2 2-1.25 0-2.2-1.35-3.5-1.39-1.35-.04-2.2 1.37-3.5 1.4a1.94 1.94 0 0 1-2-2c.03-1.03.86-1.98 1.89-2 1.45-.05 2.11 1.56 3.61 1.5 1.36-.07 2.2-1.47 3.5-1.5 1.05-.04 1.99.94 2 2Z" fill="#23B8BC"/></svg>