<!-- by TradingView --><svg width="56" height="56" viewBox="0 0 56 56" xmlns="http://www.w3.org/2000/svg"><path fill="#F0F3FA" d="M0 0h56v56H0z"/><path d="M28 40H15c.08-3.88 2.96-7 6.5-7s6.42 3.12 6.5 7Z" fill="#F3C944"/><path d="M15 40 8 28a6.58 6.58 0 0 1 9.1 2.5c1.83 3.31 1.03 7.53-2.1 9.5ZM28 16H15c.08 3.88 2.96 7 6.5 7s6.42-3.12 6.5-7Z" fill="#F3C944"/><path d="M15 16 8 28a6.58 6.58 0 0 0 9.1-2.5c1.83-3.31 1.03-7.53-2.1-9.5Z" fill="#F3C944"/><path d="M8 28a6.65 6.65 0 0 1 6.66 0A6.65 6.65 0 0 1 8 28ZM18.07 34.08C18.1 36.43 17.05 38.7 15 40a7.34 7.34 0 0 1 3.07-5.92ZM15 16a7.34 7.34 0 0 0 3.07 5.92C18.1 19.57 17.05 17.3 15 16Z" fill="#EBA439"/><path d="M36 40H23c.08-3.88 2.96-7 6.5-7s6.42 3.12 6.5 7Z" fill="#4FAE86"/><path d="m23 40-7-12a6.58 6.58 0 0 1 9.1 2.5c1.83 3.31 1.03 7.53-2.1 9.5ZM36 16H23c.08 3.88 2.96 7 6.5 7s6.42-3.12 6.5-7Z" fill="#4FAE86"/><path d="m23 16-7 12a6.58 6.58 0 0 0 9.1-2.5c1.83-3.31 1.03-7.53-2.1-9.5Z" fill="#4FAE86"/><path d="M41.21 25c3.28 0 5.9 1.63 6.79 2.44-1.26-.66-2.68.75-3.95 1.56-1.26.81-2.05 2-4.34 2s-3-1.26-3.71-2.15c1.34-.89 4.74-1.63 6-1.78-2.72 0-5.13.55-6 .82A6.37 6.37 0 0 1 41.21 25ZM44 40H31c.08-3.88 2.96-7 6.5-7s6.42 3.12 6.5 7Z" fill="#459A56"/><path d="M30.76 40 24 28a6.58 6.58 0 0 1 9.1 2.5 7.16 7.16 0 0 1-2.34 9.5Z" fill="#459A56"/><path d="M34 34.13a7.08 7.08 0 0 1-3 5.7c.1-2.4 1.27-4.48 3-5.7Z" fill="#357A42"/><path d="M44 16H31c.08 3.88 2.96 7 6.5 7s6.42-3.12 6.5-7Z" fill="#459A56"/><path d="M30.76 16 24 28a6.58 6.58 0 0 0 9.1-2.5 7.16 7.16 0 0 0-2.34-9.5Z" fill="#459A56"/><path d="M24 28a6.65 6.65 0 0 1 6.66 0A6.65 6.65 0 0 1 24 28ZM31 16.16c.1 2.4 1.27 4.5 3 5.71a7.08 7.08 0 0 0-3-5.7Z" fill="#357A42"/></svg>