<!-- by TradingView --><svg xmlns="http://www.w3.org/2000/svg" width="56" height="56"><path fill="#F0F3FA" d="M0 0h56v56H0z"/><path fill-rule="evenodd" d="M6 32.37l2 .91c.03-.92.05-1.5.18-2.28H13v5.05l2 .95V20c-4.56.17-9 6.65-9 12.37zM13 29v-6.29S10.04 24.08 8.6 29H13zm6-8h-2v12h5v-2h-3V21zm7 0h-2v12h2V21zm18 12a6 6 0 100-12 6 6 0 000 12zm0-2c2.3 0 4-1.7 4-4s-1.7-4-4-4-4 1.7-4 4 1.7 4 4 4zm-10.1 2c1.18 0 2.21-.48 3.1-1.17v-2.6A4.26 4.26 0 0133.72 31C31.59 31 30 29.06 30 26.97c0-2.1 1.4-3.97 3.72-3.97.94 0 2.42.3 3.28 1.59v-2.5A4.96 4.96 0 0033.9 21c-3 0-5.9 1.85-5.9 5.97 0 3.75 2.7 6.03 5.9 6.03z" fill="#004C89"/></svg>