<!-- by TradingView --><svg width="56" height="56" viewBox="0 0 56 56" xmlns="http://www.w3.org/2000/svg"><path fill="#F0F3FA" d="M0 0h56v56H0z"/><path fill-rule="evenodd" d="M25 21.55V24h-.58v-5H25v1.64h.05c.1-.19.23-.34.4-.46.19-.11.43-.18.73-.18.26 0 .49.06.69.16.2.1.34.26.45.47.11.2.17.47.17.8V24h-.6v-2.54c0-.3-.07-.52-.23-.69a.85.85 0 0 0-.65-.24c-.2 0-.36.04-.52.12a.88.88 0 0 0-.36.35c-.08.15-.13.33-.13.55ZM39.05 25a1.35 1.35 0 0 1-.43-.07l.15-.49c.14.04.27.05.38.04.1-.01.2-.06.29-.14.09-.08.17-.22.24-.4l.1-.28-1.4-3.66H39l1.06 2.9h.03l1.06-2.9h.64l-1.63 4.17c-.07.18-.16.34-.27.46a.91.91 0 0 1-.37.28c-.14.06-.3.09-.48.09Zm5.35 1.52V26h-.83v-1H43v1h-.61v.52H43v2.45a1 1 0 0 0 .13.58 1 1 0 0 0 .4.34 1.18 1.18 0 0 0 .77.08l.17-.04-.12-.55-.1.02h-.16a.76.76 0 0 1-.25-.03.38.38 0 0 1-.2-.18.81.81 0 0 1-.07-.39v-2.28h.83ZM48 36v-5h-.7v5h.7Zm-7.4 0v-2.38c0-.22.04-.42.12-.58a.9.9 0 0 1 .35-.37.78.78 0 0 1 .44-.13c.28 0 .5.1.66.27.15.17.23.41.23.72V36h.6v-2.5c0-.34-.06-.62-.17-.84a1.1 1.1 0 0 0-.46-.5c-.2-.1-.42-.16-.68-.16-.3 0-.47.06-.65.19-.19.12-.32.28-.41.48h-.06V32H40v4h.6Zm-2.85 0c-.35 0-.65-.08-.92-.25a1.7 1.7 0 0 1-.61-.7 2.3 2.3 0 0 1-.22-1.04c0-.4.07-.76.22-1.06.15-.3.35-.53.61-.7.27-.17.57-.25.92-.25a1.65 1.65 0 0 1 1.54.95c.14.3.22.65.22 1.05s-.08.75-.22 1.05a1.65 1.65 0 0 1-1.54.95Zm0-.53c.27 0 .49-.07.66-.2.17-.14.3-.32.38-.54a2.18 2.18 0 0 0 0-1.45c-.08-.22-.2-.4-.38-.54a1 1 0 0 0-.66-.2.99.99 0 0 0-.65.2c-.17.14-.3.32-.38.54a2.14 2.14 0 0 0 0 1.45c.08.22.2.4.38.53.17.14.39.2.65.2Zm-4.32-3V32h-.83v-1H32v1h-.58v.48H32v2.5a1 1 0 0 0 .16.57c.1.15.24.26.4.34a1.17 1.17 0 0 0 .77.08l.17-.04-.12-.55-.1.02h-.17a.75.75 0 0 1-.25-.03.38.38 0 0 1-.19-.18.82.82 0 0 1-.07-.39v-2.32h.83Zm-4.02.45-.53.15a1 1 0 0 0-.15-.26.72.72 0 0 0-.26-.21.95.95 0 0 0-.43-.09c-.23 0-.43.06-.59.17a.45.45 0 0 0-.23.4c0 .16.05.27.16.36.1.08.27.16.5.21l.58.14c.34.09.6.22.77.39.17.17.25.4.25.66a1 1 0 0 1-.19.6c-.12.17-.3.3-.53.4-.22.11-.49.16-.79.16-.4 0-.72-.09-.98-.26a1.14 1.14 0 0 1-.49-.75l.56-.14c.06.21.16.37.3.47.16.1.36.16.6.16.28 0 .5-.06.66-.18.17-.12.25-.26.25-.43a.45.45 0 0 0-.14-.34.9.9 0 0 0-.44-.2l-.64-.15a1.54 1.54 0 0 1-.78-.4.95.95 0 0 1-.25-.66c0-.22.06-.41.18-.58.13-.17.3-.3.51-.4.22-.1.46-.14.73-.14.39 0 .69.08.9.25.22.17.38.4.47.67ZM25.42 32v4H26v-4h-.58Zm0-.35c.1.07.2.1.3.1.12 0 .22-.03.3-.1a.34.34 0 0 0 0-.54.43.43 0 0 0-.3-.11.44.44 0 0 0-.3.11.35.35 0 0 0-.12.27c0 .1.04.2.13.27ZM30 36v-4h.53v4H30Zm.26-4.24a.44.44 0 0 1-.3-.11.35.35 0 0 1-.13-.27c0-.1.05-.2.13-.27a.44.44 0 0 1 .3-.11c.11 0 .21.04.3.11a.34.34 0 0 1 0 .54.43.43 0 0 1-.3.1Zm4.2.24v4H35v-4h-.54Zm-.04-.35c.08.07.18.1.3.1s.21-.03.3-.1a.34.34 0 0 0 0-.54.43.43 0 0 0-.3-.11.44.44 0 0 0-.3.11.35.35 0 0 0-.12.27c0 .1.04.2.12.27ZM24 34.33V32h.61v4H24v-.72h-.05c-.1.2-.24.37-.44.51s-.45.21-.76.21c-.25 0-.47-.05-.67-.16-.2-.11-.35-.28-.46-.5-.12-.22-.17-.5-.17-.83V32H22v2.47a1 1 0 0 0 .32.69c.16.17.37.25.63.25a1.08 1.08 0 0 0 .88-.47c.1-.16.17-.36.17-.6Zm-4 .97V37h.6v-5H20v.66h-.05a4.5 4.5 0 0 0-.18-.25.97.97 0 0 0-.34-.28 1.2 1.2 0 0 0-.6-.13 1.54 1.54 0 0 0-1.44.93c-.14.3-.2.65-.2 1.05 0 .41.06.76.2 1.06.14.3.33.53.58.7.25.15.53.26.86.26a1.23 1.23 0 0 0 .94-.43c.08-.1.14-.2.18-.27H20Zm-.49-.04a.98.98 0 0 1-.6.18.99.99 0 0 1-.63-.2c-.16-.12-.3-.3-.38-.52a2.1 2.1 0 0 1-.12-.75c0-.27.04-.51.12-.73.08-.22.21-.39.38-.52a1 1 0 0 1 .63-.19 1 1 0 0 1 .98.69 2.21 2.21 0 0 1 0 1.52c-.09.22-.21.4-.38.52Zm-4.2.74a1.7 1.7 0 0 1-.94-.26c-.26-.17-.46-.4-.6-.7a2.4 2.4 0 0 1-.21-1.03c0-.4.07-.74.21-1.05A1.64 1.64 0 0 1 15.3 32c.27 0 .52.05.74.15a1.32 1.32 0 0 1 .8 1.06h-.6a.9.9 0 0 0-.93-.68 1 1 0 0 0-.61.19c-.17.11-.3.28-.4.5a2.14 2.14 0 0 0-.01 1.55c.1.22.23.39.4.51a1.12 1.12 0 0 0 1.04.11.87.87 0 0 0 .5-.6h.6a1.38 1.38 0 0 1-.77 1.05c-.21.1-.46.16-.75.16ZM9 36h.66l.51-1.42h2.1l.51 1.42h.66l-1.9-5h-.64L9 36Zm3.05-2-.81-2.2h-.04l-.81 2.2h1.66Zm35.88-7.08-.54.15a1 1 0 0 0-.15-.26.72.72 0 0 0-.26-.21.96.96 0 0 0-.43-.09c-.24 0-.43.06-.6.17a.47.47 0 0 0-.07.76c.11.08.28.16.5.21l.59.14c.34.09.6.22.77.39.17.17.26.4.26.66 0 .22-.06.42-.2.6-.12.17-.3.3-.52.4-.23.11-.5.16-.8.16-.4 0-.72-.09-.98-.26A1.14 1.14 0 0 1 45 29l.57-.14c.05.21.16.37.3.47.16.1.36.16.6.16.28 0 .5-.06.66-.18.17-.12.25-.26.25-.43a.45.45 0 0 0-.14-.34.9.9 0 0 0-.44-.2l-.64-.15a1.55 1.55 0 0 1-.79-.4.94.94 0 0 1-.25-.66c0-.22.07-.41.19-.58.12-.17.3-.3.5-.4.22-.1.47-.14.74-.14.39 0 .69.08.9.25.23.17.39.4.48.67ZM39 30v-2.38c0-.23.07-.42.16-.58a.9.9 0 0 1 .36-.37c.15-.08.33-.13.52-.13.28 0 .5.1.67.27.16.17.29.41.29.72V30h.56v-2.5c0-.34-.05-.62-.17-.84a1.11 1.11 0 0 0-.47-.5c-.2-.1-.43-.16-.7-.16-.3 0-.55.06-.74.19-.19.12-.33.28-.42.48H39V26h-.58v4H39Zm-3.19 0a1.66 1.66 0 0 1-1.6-.94c-.14-.3-.21-.65-.21-1.04 0-.4.07-.75.22-1.05a1.65 1.65 0 0 1 1.53-.97c.2 0 .4.03.6.1a1.49 1.49 0 0 1 .93.92c.1.25.14.55.14.91v.26H34.6c0 .25.06.47.15.66a1.12 1.12 0 0 0 1.06.62c.16 0 .3-.03.43-.07a.91.91 0 0 0 .33-.2 1 1 0 0 0 .22-.34l.57.16c-.06.2-.16.37-.3.52a1.5 1.5 0 0 1-.54.34c-.2.08-.44.12-.7.12Zm1-2.33H34.6c.01-.18.06-.35.14-.5.09-.2.22-.34.4-.46.17-.12.37-.18.61-.18a.99.99 0 0 1 .93.55c.1.18.14.37.14.6ZM28 26v4h.59v-2.47c0-.2.04-.36.11-.5a.94.94 0 0 1 .32-.36.78.78 0 0 1 .43-.13c.22 0 .4.07.54.21.14.14.21.32.21.55V30h.6v-2.57c0-.26.07-.47.22-.63a.78.78 0 0 1 .62-.25c.2 0 .39.06.54.18.16.13.23.34.23.63V30H33v-2.64c0-.47-.1-.8-.32-1.03-.22-.22-.5-.33-.84-.33-.27 0-.5.06-.7.18-.2.12-.34.28-.44.49h-.04c-.1-.21-.23-.38-.4-.5a1.06 1.06 0 0 0-.62-.17c-.25 0-.46.06-.64.18a.99.99 0 0 0-.38.49h-.05V26H28Zm-.59 0v.48h-.83v2.32c0 .18.03.3.08.4.05.08.11.14.19.17a1 1 0 0 0 .25.04l.16-.01.1-.02.13.55a1.2 1.2 0 0 1-.45.07c-.17 0-.33-.04-.5-.11a1 1 0 0 1-.4-.34 1 1 0 0 1-.14-.58v-2.5h-.6V26h.6v-1h.58v1h.83Zm-3.37 1.07.53-.15c-.09-.28-.25-.5-.47-.67a1.46 1.46 0 0 0-.9-.25c-.28 0-.52.05-.74.14-.21.1-.38.23-.5.4a.95.95 0 0 0-.2.58c0 .27.09.49.26.67.16.17.42.3.78.39l.65.15c.2.04.34.11.43.2.1.1.15.2.15.34 0 .17-.09.31-.25.43-.17.12-.39.18-.67.18-.24 0-.44-.06-.59-.16a.78.78 0 0 1-.3-.47l-.57.14c.07.33.23.58.49.75.26.17.59.26.98.26a2 2 0 0 0 .8-.15c.23-.1.4-.24.53-.41a1 1 0 0 0 .2-.6.9.9 0 0 0-.26-.66 1.6 1.6 0 0 0-.78-.39l-.58-.14c-.23-.05-.4-.13-.5-.21a.42.42 0 0 1-.16-.35c0-.17.07-.3.23-.41.16-.11.36-.17.6-.17.17 0 .31.03.42.09.12.05.2.12.27.2a1 1 0 0 1 .15.27ZM19.3 30a1.66 1.66 0 0 1-1.6-.94c-.14-.3-.21-.65-.21-1.04 0-.4.07-.75.21-1.05a1.65 1.65 0 0 1 1.53-.97c.21 0 .41.03.6.1a1.49 1.49 0 0 1 .93.92c.1.25.15.55.15.91v.26h-2.83c.01.25.06.47.16.66.1.2.24.35.42.46a1.35 1.35 0 0 0 1.06.09.91.91 0 0 0 .34-.2c.09-.1.16-.2.21-.34l.58.16c-.06.2-.16.37-.3.52a1.5 1.5 0 0 1-.54.34 2 2 0 0 1-.71.12Zm1-2.33h-2.2c0-.18.05-.35.13-.5.1-.2.23-.34.4-.46s.38-.18.62-.18a.99.99 0 0 1 .93.55c.09.18.13.37.13.6ZM15.58 30l1.44-4h-.65l-1.07 3.19h-.04L14.18 26h-.65l1.44 4h.61Zm-5-2.38V30H10v-4h.56v.67h.05c.1-.2.23-.36.4-.48.19-.13.42-.19.7-.19.26 0 .49.05.68.16.2.11.34.28.45.5.1.22.16.5.16.83V30h-.58v-2.47c0-.3-.08-.55-.23-.72a.8.8 0 0 0-.64-.26.98.98 0 0 0-.5.12.88.88 0 0 0-.34.37c-.09.16-.13.36-.13.58ZM8.7 30v-5H8v5h.7Zm23.75-6v-4H33v.67h.07c.08-.21.2-.38.39-.5.17-.11.39-.17.64-.17s.49.06.65.18c.17.11.3.28.4.49h.04c.1-.2.25-.37.44-.49.2-.12.43-.18.7-.18.35 0 .7.11.9.33.23.22.33.56.33 1.03V24H37v-2.64c0-.3-.1-.5-.26-.63-.15-.12-.4-.18-.6-.18a.79.79 0 0 0-.63.25.92.92 0 0 0-.22.63V24h-.6v-2.7a.74.74 0 0 0-.21-.55.81.81 0 0 0-.57-.2.8.8 0 0 0-.43.12.94.94 0 0 0-.32.35 1.1 1.1 0 0 0-.16.51V24h-.55Zm-3.22-.25c.27.17.58.25.95.25a1.72 1.72 0 0 0 1.23-.46c.14-.15.24-.32.3-.52l-.57-.16a.92.92 0 0 1-.21.34.9.9 0 0 1-.33.2 1.32 1.32 0 0 1-1.04-.09c-.18-.1-.32-.26-.42-.46a1.5 1.5 0 0 1-.15-.66h2.78v-.26c0-.36-.05-.66-.15-.9a1.46 1.46 0 0 0-.91-.92c-.2-.08-.39-.11-.59-.11a1.6 1.6 0 0 0-1.5.97c-.15.3-.22.65-.22 1.05s.07.74.21 1.04c.15.3.35.53.62.7Zm-.24-2.08c.01-.18.05-.35.13-.5a1.12 1.12 0 0 1 1-.64.98.98 0 0 1 .92.55c.09.18.13.37.13.6h-2.18Zm-7.8 2.07c.26.17.57.26.93.26.28 0 .53-.05.74-.16a1.38 1.38 0 0 0 .76-1.05h-.59a.86.86 0 0 1-.5.6 1.07 1.07 0 0 1-1.02-.11 1.2 1.2 0 0 1-.4-.51 2 2 0 0 1-.14-.79c0-.29.05-.54.14-.76.1-.22.23-.39.4-.5a1 1 0 0 1 .6-.19.9.9 0 0 1 .63.21c.15.14.25.3.3.47h.58a1.33 1.33 0 0 0-.78-1.06 1.7 1.7 0 0 0-.73-.15 1.6 1.6 0 0 0-1.51.96c-.14.3-.22.65-.22 1.04 0 .4.07.73.21 1.04.14.3.34.53.6.7ZM19.6 19v5H19v-5h.59ZM14 24h.6l.46-1.41h1.88l.47 1.41H18l-1.7-5h-.6L14 24Zm2.76-1.95-.74-2.25h-.04l-.74 2.25h1.52Z"/></svg>