<!-- by TradingView --><svg xmlns="http://www.w3.org/2000/svg" width="56" height="56" viewBox="0 0 56 56"><path fill="#F0F3FA" d="M0 0h56v56H0z"/><path d="M30.9 36c-2.93.1-4.92-1.14-6.46-3.32-.73.8-1.38 1.64-2.18 2.3-4.7 4.01-12.08 1.75-13.85-4.23a9.42 9.42 0 0 1 3.21-10.23c1.76-1.36 3.8-1.66 5.96-1.47 3.45.31 5.72 2.3 7.26 5.27 1.92 3.7 3.83 7.25 5.74 10.94.12.21.19.41.33.74Zm-19.63-7.97c-.2 3.8 3.01 5.62 5.57 5.63 3 .02 5.4-2.6 5.47-5.71.05-3.85-2.95-5.6-5.54-5.64a5.54 5.54 0 0 0-5.5 5.72Z" fill="#3E007A"/><path d="M25.1 20a7.21 7.21 0 0 1 6.4 3.38l.71-.96c3.95-5.14 12.27-4.37 14.97 1.54 2.3 5-.37 11.05-6.07 12.36a8.51 8.51 0 0 1-9.54-4.19c-2.18-3.9-4.23-7.68-6.34-11.64-.05-.11-.07-.26-.14-.49Zm19.69 7.72a5.42 5.42 0 0 0-5.69-5.55 5.66 5.66 0 0 0-5.59 5.75c-.03 3.79 3.24 5.5 5.72 5.48a5.6 5.6 0 0 0 5.56-5.68Z" fill="#9C7CB8"/></svg>