<!-- by TradingView --><svg width="56" height="56" xmlns="http://www.w3.org/2000/svg"><path fill="#0F253A" d="M0 0h56v56H0z"/><path d="M27.594 13.622c.302-.227.63.095.756.284.85-.755 1.689-1.414 3.7-1.482 1.61-.054 3.325 1.758 3.98 2.67 3.591 1.685 4.06 5.024 3.847 6.483 1.971 2.974.916 6.328.142 7.633.55 3.41-1.102 5.632-1.996 6.316-.368 3.722-2.678 5.746-3.787 6.293-.74 1.1-1.8 2.035-3.7 2.139-1.521.083-2.313-1.16-2.536-1.792v-5.439c-.153-.011-.504-.084-.547-.335-.044-.252.358-.579.547-.68V17.36c-.146.003-.479-.076-.5-.415-.02-.339.337-.464.5-.484V14.66c-.11-.138-.785-.755-.406-1.039z" fill="#EFBC35"/><path d="M31.967 13.232c-1.678-.058-2.683.94-2.967 1.447v1.882c4.249 0 5.102 4.504 4.797 5.255-.245.6-.588.25-.73 0-.15-3.463-2.78-4.395-4.067-4.429v18.266c.188.408.889 1.196 2.187 1.076 1.622-.15 1.078-.951 1.733-1.502.524-.44.693-.016.712.25-.353.901-1.2 2.077-2.445 2.077-.997 0-1.873-.55-2.187-.825v4.804c.031.483.395 1.49 1.599 1.651 1.204.16 2.049-.7 2.32-1.15-.647.05-2.066.02-2.555-.501-.49-.52-.047-.701.235-.726.94.74 2.649.442 3.386.2 2.388-1.34 3.111-4.245 3.174-5.53-.696-1.36-.73-3.052-.659-3.728.032-.216.16-.635.424-.575.263.06.344.409.352.575-.207 1.322.243 2.436.494 2.828 1.293-2.002 1.156-1.952 1.434-3.828.278-1.877-.9-2.485-1.928-2.653a10.669 10.669 0 01-1.961-.538c-3.312-1.458-2.971-2.992-3.05-2.992-.079 0 0-.493.299-.493.24 0 .337.329.356.493.157 1.02 1.452 1.79 2.08 2.047-.25-.752-.183-1.678-.117-2.047 1-2.172 1.138-3.3 1.197-4.24.047-.753-.49-1.581-.765-1.902-.173-.568.203-.612.412-.564 1.602 1.17 1.008 3.9.51 5.118-.21.286-.644 1.133-.706 2.236-.063 1.103.444 1.713.706 1.88 2.01.133 2.905.835 3.102 1.17 1.083-1.755.595-4.255.216-5.286-.142 1.438-.478 1.978-.628 2.069-.566.384-.651-.16-.623-.481 1.027-4.053.277-5.03 0-6.257-.221-.98-2.55-2.681-3.687-3.409-.184-.531-.973-1.609-2.65-1.668z" fill="#0F253A"/><path d="M16.212 30.44c.053-1.206.653-2.089.946-2.38.698-.194.588.287.378.643-.47.533-.624 1.324-.647 1.788-.377.449-.594.155-.677-.051zM27.126 13.17c-.442-.408-.943-.521-1.138-.526-.39 0-.358.35-.293.525.163.153.602.466 1.057.493.455.026.44-.318.374-.493zM25.154 12.48c-.604-.133-1.124.023-1.308.118-.364.198-.168.49-.025.61.224.053.781.104 1.217-.105.437-.209.26-.502.116-.623zM22.843 12.807c-.538.196-.835.567-.917.729-.153.326.174.449.356.469.201-.07.654-.305.856-.675.202-.37-.112-.503-.295-.523zM21.505 14.206c-.438.205-.639.527-.684.663-.082.273.221.34.383.34.164-.074.521-.3.639-.613s-.176-.39-.338-.39zM23.469 15.206c-.337.171-.494.433-.53.543-.067.221.163.271.287.269.126-.063.4-.25.495-.503.095-.253-.129-.311-.252-.309zM20.883 17.818c-.336.171-.494.433-.53.543-.067.221.163.271.287.269.126-.063.401-.25.495-.503.095-.253-.129-.311-.252-.309zM20.014 19.022c-.288.34-.344.7-.336.837.025.274.295.226.426.168.109-.125.324-.456.316-.778-.009-.321-.275-.285-.406-.227zM19.625 20.58c-.104.434.008.78.077.899.145.233.364.067.455-.045.04-.161.084-.554-.068-.837-.151-.283-.372-.13-.464-.018zM19.953 22.188c.028.482.252.835.36.951.224.226.399.013.458-.122-.008-.179-.087-.607-.332-.885-.246-.278-.427-.078-.486.056zM20.605 23.8c.028.482.253.835.361.951.223.226.398.013.457-.122-.008-.179-.086-.607-.332-.885-.246-.279-.426-.078-.486.056zM21.008 25.273c-.155.43-.09.817-.037.957.112.276.345.153.448.057.06-.159.15-.56.037-.89-.112-.33-.346-.22-.448-.124zM23.422 25.41c-.413.189-.64.507-.703.643-.117.274.133.356.273.362.154-.068.5-.283.656-.595.154-.313-.087-.404-.226-.41zM22.21 26.465c-.451.038-.772.26-.876.366-.202.218.006.38.136.434.168-.012.566-.096.816-.337.25-.242.054-.41-.076-.463zM20.676 26.938c-.451.038-.772.26-.876.366-.202.218.006.38.136.434.168-.012.566-.096.816-.338.25-.24.054-.409-.076-.462zM18.98 27.642c-.428-.147-.81-.072-.948-.016-.271.118-.145.351-.047.452.159.057.558.14.882.02.325-.121.211-.354.114-.456zM24.864 14.763c-.423-.117-.761-.014-.878.052-.228.14-.067.364.042.459.157.045.54.1.817-.045.277-.145.128-.371.02-.466zM26.313 15.21c-.357-.257-.71-.279-.842-.257-.262.05-.188.318-.119.445.132.097.473.282.783.242.31-.039.247-.303.178-.43zM26.825 16.793c-.439-.007-.741.177-.838.27-.186.192.024.37.153.434.163.004.548-.04.78-.249.233-.21.033-.39-.095-.455zM25.401 17.348c-.425.11-.669.368-.737.483-.13.235.12.35.26.378.159-.039.519-.183.688-.447.17-.264-.07-.386-.21-.414zM24.093 18.263c-.364.247-.508.572-.535.704-.044.266.23.29.372.269.136-.09.427-.348.5-.654.072-.306-.195-.34-.337-.32zM23.154 19.813c-.228.378-.224.735-.194.866.07.26.328.166.449.087.086-.14.244-.496.183-.804-.06-.31-.317-.228-.438-.149zM23.005 21.23c-.197.313-.196.605-.171.713.056.213.276.134.379.068.075-.115.211-.41.162-.662-.05-.253-.267-.184-.37-.118zM25.264 22.122c.253.268.535.337.645.338.218-.005.195-.24.156-.356-.094-.1-.344-.305-.6-.316-.255-.012-.24.218-.201.334zM23.823 24.207c-.142.34-.092.63-.05.73.092.2.296.086.386.003.054-.126.14-.44.048-.68-.09-.24-.294-.136-.384-.053zM26.145 22.99c.064.508.323.828.444.924.249.185.415-.086.468-.245-.022-.19-.134-.626-.41-.861-.276-.235-.45.023-.502.182zM26.612 24.537c-.255.442-.242.855-.204 1.006.086.3.382.186.52.092.096-.164.27-.58.193-.936-.077-.355-.371-.256-.509-.162zM26.129 26.086c-.436.261-.624.628-.664.779-.069.303.244.35.41.335.163-.096.516-.373.62-.722.104-.35-.2-.407-.366-.392zM24.837 27.276c-.483.154-.75.468-.822.605-.136.28.159.397.323.42.18-.055.587-.244.767-.56.18-.316-.104-.442-.268-.465zM23.124 28.277c-.483.154-.75.468-.822.605-.136.28.159.397.323.42.18-.055.587-.244.767-.56.18-.316-.104-.442-.268-.465zM21.68 29.624c-.332.386-.397.794-.387.95.029.31.34.254.493.188.125-.143.373-.518.363-.882-.01-.365-.317-.322-.469-.256zM21.023 34.297c-.333.387-.397.794-.387.95.028.31.34.255.492.188.126-.142.374-.518.364-.882-.01-.364-.317-.322-.47-.255zM21.235 31.493c-.067.507.102.883.194 1.008.193.243.424.024.514-.116.028-.188.03-.64-.176-.938-.207-.3-.44-.094-.532.046zM20.355 15.329c-.47.112-.73.387-.801.51-.134.252.15.38.308.412.175-.04.57-.19.748-.473.177-.282-.096-.417-.255-.45zM18.937 16.224c-.467.209-.709.558-.771.707-.117.3.181.389.345.395.175-.075.563-.312.72-.654.158-.343-.13-.442-.294-.448zM17.655 17.592c-.383.367-.51.8-.525.972-.02.342.29.333.448.285.144-.134.444-.503.492-.901.047-.399-.257-.403-.415-.356zM16.059 22.431c-.357.416-.414.84-.398 1 .043.318.387.244.554.167.135-.153.398-.554.374-.928-.024-.375-.363-.315-.53-.239zM15.522 24.247c-.176.52-.073.934.001 1.077.158.279.45.08.576-.054.068-.193.164-.663.003-1.002-.16-.339-.453-.155-.58-.021zM15.4 26.031c-.04.548.164.923.271 1.042.222.23.455-.037.544-.2.017-.203-.008-.683-.248-.97-.24-.287-.478-.034-.567.128z" fill="#EFBC35"/><path d="M16.281 30.89c-.14.532-.008.938.075 1.075.176.268.454.05.57-.093.056-.198.119-.674-.064-1-.184-.327-.464-.124-.58.019zM16.827 22.954c-.082.466.06.812.14.927.17.224.393.023.482-.105.033-.174.053-.588-.127-.863s-.405-.087-.495.041zM17.183 24.294c-.058.386.065.676.134.773.144.19.322.027.393-.078.024-.143.032-.488-.121-.72-.153-.232-.334-.08-.405.025zM25.767 28.853c-.209.328-.214.643-.19.76.054.232.282.157.39.091.079-.121.226-.432.18-.707-.046-.274-.272-.21-.38-.144zM25.385 29.997c-.37.11-.58.344-.637.448-.11.211.111.306.235.326.139-.039.451-.176.595-.414.144-.238-.069-.34-.193-.36zM24.25 30.589c-.38-.068-.67.049-.768.116-.191.14-.034.323.068.397.14.027.482.044.715-.104.234-.15.088-.335-.014-.41zM26.293 33.75c-.264-.285-.566-.367-.684-.373-.237-.003-.22.238-.183.36.097.106.36.326.635.348.276.023.27-.214.232-.336zM16.076 27.764c-.058.386.065.676.134.773.143.19.322.027.393-.078.023-.143.032-.488-.121-.72-.154-.232-.335-.08-.406.025zM16.57 32.758c.104.48.383.786.51.88.258.178.399-.075.437-.224-.037-.178-.183-.593-.472-.819-.29-.227-.438.014-.476.163zM18.876 37.02c-.033.49.151.863.247.988.198.245.403.041.48-.09.015-.183-.01-.621-.226-.92-.215-.3-.424-.11-.501.023zM19.488 38.708c.078.485.34.806.462.906.248.193.402-.052.448-.198-.027-.181-.15-.602-.427-.845-.276-.242-.438-.01-.483.137zM20.555 40.315c.253.42.615.617.765.664.302.085.353-.2.341-.354-.092-.157-.363-.5-.709-.62s-.409.157-.397.31zM21.924 41.433c.311.378.698.52.853.545.311.039.32-.25.287-.4-.114-.142-.432-.443-.792-.51-.36-.067-.382.215-.348.365zM23.033 42.52c.31.378.698.521.853.545.31.04.32-.25.286-.4-.114-.142-.432-.442-.791-.51-.36-.067-.382.216-.348.366zM24.678 43.57c.413.26.825.271.98.245.306-.061.225-.34.146-.471-.152-.098-.548-.282-.91-.232-.363.05-.295.326-.216.458zM26.812 43.689c.478-.09.791-.36.888-.485.186-.254-.06-.404-.206-.448-.178.031-.593.164-.828.448-.234.284 0 .441.146.485zM17.565 34.25c.105.48.384.785.51.879.26.178.4-.075.438-.223-.037-.18-.183-.593-.472-.82-.29-.226-.438.015-.476.164z" fill="#EFBC35"/><path d="M18.414 34.813c-.173.593-.057 1.122.023 1.312.17.376.469.2.597.066.067-.22.157-.77-.017-1.22-.174-.449-.475-.292-.603-.158zM19.297 31.292c-.118.37-.041.677.012.783.112.21.313.078.4-.014.045-.138.106-.476-.009-.73-.115-.253-.317-.131-.403-.04zM20.573 36.141c-.069.383.046.677.112.776.138.193.32.036.395-.067.027-.142.045-.486-.102-.722-.146-.236-.33-.09-.405.013zM21.668 38.035c.158.356.417.533.527.577.222.08.284-.153.288-.28-.057-.133-.234-.427-.488-.538-.253-.112-.323.114-.327.241zM24.177 39.787c.376.09.673-.008.774-.07.2-.127.054-.32-.043-.4-.14-.036-.479-.074-.72.06-.243.135-.108.33-.01.41zM25.673 41.513c.387.003.654-.161.74-.244.165-.17-.02-.326-.133-.382-.144-.003-.483.038-.69.225-.205.186-.03.345.083.401zM22.929 35.299c.108.373.341.584.444.642.21.11.303-.113.323-.238-.038-.14-.175-.455-.411-.6-.236-.144-.336.07-.356.196zM23.876 36.769c.322.38.715.513.872.533.313.03.315-.269.277-.422-.118-.143-.446-.442-.81-.5-.363-.057-.377.235-.34.389zM22.552 39.102c.322.38.715.513.872.533.313.03.315-.269.277-.422-.119-.143-.446-.442-.81-.5-.363-.057-.377.236-.34.389zM23.838 41.75c.47.163.876.078 1.02.015.286-.135.137-.394.027-.506-.173-.063-.606-.153-.948-.017-.343.137-.209.396-.099.509zM25.886 37.442c.494.032.864-.158.987-.257.24-.206.03-.416-.106-.496-.183-.014-.624.014-.92.236-.294.223-.097.437.039.517zM21.9 33.04c-.117.37-.04.676.012.783.112.21.313.077.4-.015.045-.137.107-.476-.008-.729-.116-.253-.317-.132-.404-.04z" fill="#EFBC35"/><path d="M22.69 33.1c-.425.135-.645.405-.703.523-.106.24.163.339.312.357.158-.048.511-.213.655-.485.144-.272-.116-.377-.265-.396zM24.666 32.907c-.458-.126-.812-.012-.93.06-.235.154-.049.4.073.503.17.049.582.106.867-.053.285-.16.112-.406-.01-.51zM19.088 32.958c-.192.474-.114.85-.05.979.134.253.42.07.546-.053.073-.176.186-.605.05-.911-.135-.307-.42-.138-.546-.015zM33.988 37.831c-.897 1.395-2.008 1.43-2.452 1.272-.11 0-.327.066-.327.33s0 .353.327.519c1.85.113 2.887-1.131 3.175-1.768.04-.117.066-.377-.14-.47-.205-.095-.474.038-.583.117zM32.645 31.226c-2.074 0-2.58-1.495-2.573-2.243.04-.092.164-.256.351-.177a.596.596 0 01.312.334c.187 1.165 1.351 1.404 1.91 1.377.097.04.292.166.292.354 0 .19-.195.315-.292.355zM33.358 15.457c-.989-1.173-2.468-.772-3.083-.425-.424.625.113.672.434.617 1.011-.45 1.816.023 2.092.316.74.296.68-.215.557-.508z" fill="#EFBC35"/><path d="M29.483 24.542c-.034-1.756 1.155-2.678 1.754-2.92.413-.226.697.512.338.64-.36.128-1.162.746-1.331 2.28-.17 1.535 1.838 2.963 2.958 3.58.972.538 1.943 1.748 2.091 3.027.118 1.023-.303 2.06-.528 2.451.577.618 1.496 2.013 1.183 2.92-.283.82-.865.385-.803 0 .22-1.364-.74-2.273-1.246-2.557-1.657-.58-2.831-.086-3.212.234-.878.267-.827-.346-.549-.597 1.268-1.142 3.035-.817 3.76-.511.17-.057.516-.524.55-1.94.034-1.415-2.366-2.75-3.38-3.516-.514-.299-1.551-1.334-1.585-3.09zM16.59 22.278c-.159-1.907.15-2.86.325-3.098.05-.082.27-.07.396 0 .102.058.128.205.128.272-.317 1.039-.217 2.316-.128 2.826-.037.138-.17.41-.396.4-.226-.012-.311-.272-.325-.4z" fill="#EFBC35"/></svg>