<!-- by TradingView --><svg xmlns="http://www.w3.org/2000/svg" width="56" height="56" viewBox="0 0 56 56"><path fill="#F0F3FA" d="M0 0h56v56H0z"/><path d="M33 29.46V28h-4v1h2.87a4 4 0 1 1-.44-3.05l.92-.75A5.14 5.14 0 0 0 28.1 23 5.06 5.06 0 0 0 23 28c0 2.76 2.29 5 5.11 5A5.1 5.1 0 0 0 33 29.47Z" fill="#1A63AD"/><path fill-rule="evenodd" d="m4 33 4-10 4 10h-1.28L9.6 30H6.38l-1.13 3H4Zm2.75-4h2.48L8 25.68 6.75 29ZM14 33V23h1v9h3v1h-4Zm6-10v10h1V23h-1Zm20 10a5 5 0 1 0 0-10 5 5 0 0 0 0 10Zm0-1a4 4 0 1 0 0-8 4 4 0 0 0 0 8Zm10.9-6.92.74-.74A2.88 2.88 0 0 0 49.19 23c-1.74 0-2.63 1.27-2.63 2.5 0 1.22 1.38 2.01 2.36 2.52.69.36 2.08 1.2 2.08 2.13 0 .93-.72 1.85-2.08 1.85-1.08 0-1.73-1.24-1.96-1.85l-.96.47c.35.8 1.15 2.38 2.92 2.38A2.9 2.9 0 0 0 52 30.06c0-1.33-1.04-2.18-2.48-2.9-1.44-.7-1.9-1.24-1.9-1.66 0-.8.6-1.5 1.3-1.5.6 0 1.24.1 1.98 1.08Z"/></svg>