<!-- by TradingView --><svg width="56" height="56" viewBox="0 0 56 56" xmlns="http://www.w3.org/2000/svg"><path fill="#F0F3FA" d="M0 0h56v56H0z"/><path fill="#00A2A5" d="M10 22h16v2H10z"/><path fill="#01BFF1" d="M10 27h11v2H10zM35 27h11v2H35zM25 27h6v2h-6z"/><path fill="#F09927" d="M22 46V35h2v11zM22 21V10h2v11zM22 31v-6h2v6z"/><path fill="#EE4D23" d="M32 46V35h2v11zM32 21V10h2v11zM32 31v-6h2v6z"/><path fill="#0070B4" d="M10 32h15v2H10z"/><path fill="#00A2A5" d="M30 22h16v2H30z"/><path fill="#66B444" d="M29 10v15h-2V10zM29 31v15h-2V31z"/><path fill="#0070B4" d="M31 32h15v2H31z"/></svg>