<!-- by TradingView --><svg width="56" height="56" xmlns="http://www.w3.org/2000/svg"><path fill="#E13A3E" d="M0 0h56v56H0z"/><path d="M6.238 33.28c-1.717-.798-1.95-3.773-.464-6.66 1.44-2.843 4.038-4.486 5.756-3.687 1.02.49 1.578 1.777 1.578 3.333.185-1.91-.326-3.464-1.579-4.041-1.949-.89-4.827.93-6.451 4.128-1.625 3.197-1.392 6.528.557 7.416 1.207.577 2.831.044 4.27-1.244-1.3.933-2.691 1.244-3.666.754v.002z" fill="#fff"/><path d="M8.464 28.307l1.578-2.176.232 2.176h-1.81zm-.696.932h2.646l.093.933-.465.044-.36.788h2.785l.22-.788-.277-.044-.093-.355-.695-5.506H10.23l-3.945 5.506-.373.4-.279.044-.355.743h2.046l.214-.743-.418-.045.65-.977h-.002zM14.732 24.888l-.372-.045.218-.805L17.084 24l-.542 1.287-1.485 4.53-.093.4.418.044-.284.739h-2.46l.516-1.183 1.485-4.53.093-.4zM18.4 28.751h-.23L17.393 31h-1.919l.506-1.183 1.508-4.53.092-.4-.412-.044.261-.799L19.896 24l-.535 1.331-1.008 3.109h.229c.297-.14.574-.32.822-.533.21-.123.39-.291.523-.491.134-.2.22-.427.253-.664a.713.713 0 00.026-.32c-.016-.108-.057-.293-.118-.384l1.873-.044c.037.1.054.288.046.393-.091.844-1.188 1.6-1.918 2.043l.868 1.82.32.045L21 31h-1.736l-.865-2.249zM23.643 28.351c.14-.462.65-1.429 1.253-1.429.325 0 .418.21.373.505a.966.966 0 01-.2.445 1.1 1.1 0 01-.403.312c-.318.136-.67.194-1.021.167h-.002zm3.11 1.01c-.76.369-1.6.584-2.46.63-.557 0-.975-.21-.882-.757 1.346.042 3.435-.756 3.62-2.186a.737.737 0 00-.057-.448.829.829 0 00-.316-.35 1.671 1.671 0 00-1.02-.253c-1.035.03-2.017.422-2.74 1.093-.75.598-1.243 1.417-1.392 2.313-.139 1.135.929 1.597 1.996 1.597a8.501 8.501 0 002.878-.546l.373-1.094zM29.647 28.262h.13c.436-.888 1.57-2.265 2.614-2.265a.432.432 0 01.393.134l-.828 1.643a.56.56 0 00-.436-.178c-.784 0-1.655 1.155-2.09 1.776L28.828 31H27l.513-1.317.74-2.442.043-.222-.349-.045.223-.932 2.309-.045-.83 2.266h-.002zM34.363 28.284h.14a5.93 5.93 0 011.02-1.366c.418-.397 1.207-.882 1.764-.882a.81.81 0 01.341.062.772.772 0 01.279.197.7.7 0 01.168.622c-.046.177-.14.441-.186.618l-.278.748h.139a6.373 6.373 0 011.068-1.41 2.92 2.92 0 011.81-.882.888.888 0 01.35.092c.108.054.203.13.278.221a.769.769 0 01.16.656c-.047.22-.093.397-.14.618l-.742 2.204-.093.396.417.044-.217.778h-2.365l.496-1.218.604-1.675c.139-.485.139-.616-.047-.616-.417 0-1.485 1.321-1.764 1.674l-.185.132L36.744 31h-1.81l.45-1.175.603-1.674c.186-.573.047-.617 0-.617-.417 0-1.485 1.322-1.763 1.674l-.093.088L33.495 31h-1.81l.497-1.175.788-2.379.093-.397-.418-.044.278-.881 2.322-.084-.882 2.245zM43.227 28.351c.14-.462.65-1.429 1.254-1.429.325 0 .417.21.417.505a.965.965 0 01-.2.445 1.1 1.1 0 01-.403.311 2.28 2.28 0 01-1.068.168zm3.157 1.01c-.76.368-1.6.584-2.46.63-.557 0-.975-.21-.882-.757 1.346.042 3.434-.757 3.62-2.186a.737.737 0 00-.058-.448.829.829 0 00-.315-.35 1.67 1.67 0 00-1.021-.253c-1.034.03-2.015.422-2.737 1.093-.747.607-1.253 1.42-1.44 2.313-.139 1.135.929 1.597 2.043 1.597a8.499 8.499 0 002.877-.546l.372-1.094zM50.514 26.922a1.466 1.466 0 00-.464-.127.655.655 0 00-.412.1.55.55 0 00-.238.321c-.046.336.325.588.557.756.464.378 1.021.757.928 1.43-.048.25-.157.49-.317.7a1.9 1.9 0 01-.61.518 3.522 3.522 0 01-1.718.378 7.568 7.568 0 01-1.996-.294l.51-1.303.929.042-.093.504c.24.124.513.183.788.169a.729.729 0 00.482-.119.606.606 0 00.26-.386c.047-.338-.278-.546-.464-.713-.417-.378-.974-.798-.882-1.429.043-.259.154-.504.324-.716.17-.213.393-.385.651-.503.538-.222 1.127-.28 1.717-.25.514 0 1.018.132 1.523.216l-.502 1.17-.928-.043-.046-.42v-.001z" fill="#fff"/></svg>