<!-- by TradingView --><svg width="56" height="56" xmlns="http://www.w3.org/2000/svg"><path fill="#14315A" d="M0 0h56v56H0z"/><path d="M27.86 12h.26a.624.624 0 01.614.603l-.175 3.978a.506.506 0 01-.56.494.511.511 0 01-.554-.498l-.175-3.974a.618.618 0 01.59-.603zM23.73 12.58l.252-.066a.624.624 0 01.743.424l.862 3.9a.507.507 0 01-.412.624.511.511 0 01-.677-.335l-1.2-3.806a.618.618 0 01.428-.744M19.88 14.214l.227-.13a.627.627 0 01.832.216l1.835 3.53a.506.506 0 01-.237.711.51.51 0 01-.743-.148l-2.14-3.35a.618.618 0 01.219-.825M16.588 16.785l.186-.186a.627.627 0 01.862 0l2.686 2.936a.506.506 0 01-.044.744.512.512 0 01-.743.048l-2.936-2.686a.618.618 0 010-.856M14.07 20.123l.13-.227a.628.628 0 01.828-.23l3.344 2.139a.506.506 0 01.148.744.513.513 0 01-.713.242l-3.51-1.86a.617.617 0 01-.224-.827M12.51 23.993l.066-.253a.625.625 0 01.743-.436l3.793 1.198a.506.506 0 01.335.67.513.513 0 01-.628.417l-3.864-.856a.617.617 0 01-.427-.744M12 28.141v-.26a.625.625 0 01.606-.625l3.975.175a.504.504 0 01.494.569.51.51 0 01-.498.566l-3.971.178a.616.616 0 01-.606-.603zM12.584 32.275l-.067-.253a.626.626 0 01.423-.744l3.886-.86a.504.504 0 01.625.414.511.511 0 01-.335.677l-3.79 1.194a.616.616 0 01-.742-.428zM14.214 36.123l-.13-.227a.626.626 0 01.216-.834l3.53-1.834a.505.505 0 01.709.238.51.51 0 01-.149.744l-3.343 2.14a.616.616 0 01-.825-.22M16.785 39.412l-.186-.186a.626.626 0 010-.86l2.936-2.686a.505.505 0 01.743.045.51.51 0 01.048.744L17.64 39.4a.616.616 0 01-.855 0M20.122 41.927l-.227-.13a.625.625 0 01-.23-.83l2.14-3.348a.506.506 0 01.743-.15.51.51 0 01.241.715l-1.835 3.528a.617.617 0 01-.825.223M23.993 43.49l-.253-.067a.624.624 0 01-.438-.744l1.2-3.795a.508.508 0 01.669-.335.51.51 0 01.416.614l-.855 3.9a.618.618 0 01-.743.427M28.14 44h-.26a.624.624 0 01-.614-.603l.178-3.977a.506.506 0 01.561-.495.51.51 0 01.554.498l.175 3.974a.618.618 0 01-.595.603zM32.275 43.42l-.253.066a.624.624 0 01-.743-.424l-.862-3.9a.507.507 0 01.412-.624.511.511 0 01.676.335l1.197 3.791a.618.618 0 01-.427.744M36.12 41.786l-.227.13a.627.627 0 01-.832-.215l-1.835-3.532a.507.507 0 01.237-.71.511.511 0 01.743.148l2.14 3.35a.619.619 0 01-.219.825M39.412 39.215l-.186.186a.627.627 0 01-.862 0l-2.686-2.936a.506.506 0 01.044-.744.512.512 0 01.743-.048l2.935 2.686a.618.618 0 010 .856M41.934 35.88l-.13.228a.628.628 0 01-.828.23L37.632 34.2a.505.505 0 01-.149-.744.513.513 0 01.714-.242l3.53 1.834a.618.618 0 01.222.827M43.491 32.007l-.067.254a.625.625 0 01-.743.435l-3.793-1.198a.505.505 0 01-.335-.67.513.513 0 01.628-.417l3.868.856a.617.617 0 01.427.744M44 27.862v.26a.625.625 0 01-.606.622l-3.975-.175a.505.505 0 01-.494-.569.511.511 0 01.498-.566l3.971-.178a.616.616 0 01.606.603M43.42 23.725l.067.253a.626.626 0 01-.423.744l-3.887.86a.504.504 0 01-.624-.414.51.51 0 01.335-.677l3.79-1.194a.616.616 0 01.742.428zM41.786 19.88l.13.228a.626.626 0 01-.216.833l-3.53 1.85a.505.505 0 01-.709-.238.51.51 0 01.149-.745l3.343-2.14a.616.616 0 01.825.22M39.215 16.588l.185.186a.626.626 0 010 .86l-2.935 2.686a.505.505 0 01-.743-.045.51.51 0 01-.048-.744L38.36 16.6a.616.616 0 01.855 0M35.878 14.073l.227.13a.625.625 0 01.23.83l-2.14 3.348a.506.506 0 01-.743.15.51.51 0 01-.241-.715l1.835-3.528a.617.617 0 01.825-.223M32.007 12.51l.253.067a.624.624 0 01.438.744l-1.2 3.795a.506.506 0 01-.669.335.509.509 0 01-.412-.614l.858-3.884a.617.617 0 01.743-.428M27.913 18.303h.163a.372.372 0 01.372.372l-.112 2.475a.316.316 0 01-.35.309c-.181 0-.352-.075-.352-.28l-.108-2.5a.372.372 0 01.372-.372M25.405 18.657l.156-.041a.373.373 0 01.464.264l.535 2.419a.316.316 0 01-.256.372c-.178.048-.371.018-.412-.179l-.744-2.389a.375.375 0 01.132-.397.37.37 0 01.132-.064M23.075 19.646l.141-.081a.371.371 0 01.52.134l1.141 2.195a.316.316 0 01-.148.443c-.16.093-.342.111-.446-.067l-1.345-2.11a.371.371 0 01.137-.514zM21.08 21.206l.115-.116a.372.372 0 01.535 0l1.672 1.827a.315.315 0 01-.03.465c-.13.13-.3.197-.445.052l-1.858-1.693a.372.372 0 010-.532M19.557 23.226l.082-.141a.37.37 0 01.516-.142l2.088 1.336a.314.314 0 01.147.339.317.317 0 01-.054.119c-.093.16-.241.268-.42.164l-2.229-1.158a.372.372 0 01-.137-.513M18.61 25.574l.04-.156a.37.37 0 01.461-.272l2.36.744a.316.316 0 01.207.417c-.048.179-.163.32-.371.268l-2.445-.543a.372.372 0 01-.267-.462M18.301 28.09v-.164a.372.372 0 01.372-.372l2.474.107a.316.316 0 01.308.35c0 .183-.074.354-.282.354l-2.5.108a.371.371 0 01-.372-.372M18.654 30.605l-.04-.157a.374.374 0 01.263-.465l2.419-.536a.316.316 0 01.371.257c.049.179.019.372-.178.413l-2.389.744a.371.371 0 01-.46-.264M19.642 32.926l-.081-.14a.372.372 0 01.133-.518l2.196-1.142a.315.315 0 01.442.148c.093.16.112.343-.067.447l-2.11 1.347a.37.37 0 01-.513-.138M21.206 34.92l-.115-.114a.373.373 0 010-.536l1.828-1.67a.313.313 0 01.364-.053c.039.02.073.048.1.082.13.13.198.301.053.446l-1.69 1.86a.37.37 0 01-.532 0M23.228 36.443l-.141-.082a.37.37 0 01-.19-.377.372.372 0 01.048-.14l1.33-2.088a.316.316 0 01.458-.093c.16.093.267.242.163.42l-1.155 2.233a.372.372 0 01-.513.138M25.587 37.392l-.156-.041a.372.372 0 01-.271-.462l.743-2.359a.316.316 0 01.416-.208c.178.048.32.164.267.372l-.542 2.445a.373.373 0 01-.46.264M28.087 37.697h-.163a.372.372 0 01-.372-.372l.112-2.475a.316.316 0 01.349-.309c.182 0 .353.075.353.28l.108 2.5a.372.372 0 01-.372.372M30.595 37.343l-.156.041a.373.373 0 01-.464-.264l-.539-2.422a.317.317 0 01.256-.372c.179-.049.372-.019.413.178l.743 2.389a.373.373 0 01-.264.461M32.925 36.353l-.142.082a.371.371 0 01-.52-.134l-1.14-2.195a.316.316 0 01.148-.443c.16-.093.342-.111.446.067l1.345 2.11a.373.373 0 01-.137.513zM34.92 34.794l-.115.116a.372.372 0 01-.535 0l-1.672-1.827a.315.315 0 01.03-.465c.13-.13.3-.198.445-.052l1.858 1.693a.374.374 0 010 .532M36.443 32.774l-.082.141a.37.37 0 01-.516.142L33.76 31.72a.314.314 0 01-.147-.339.318.318 0 01.054-.119c.093-.16.241-.268.42-.164l2.229 1.158a.372.372 0 01.137.513M37.39 30.426l-.04.156a.372.372 0 01-.461.272l-2.36-.744a.316.316 0 01-.208-.417c.049-.179.164-.32.372-.268l2.445.543a.37.37 0 01.267.462M37.699 27.91v.164a.372.372 0 01-.372.372l-2.474-.107a.315.315 0 01-.308-.35c0-.183.074-.354.282-.354l2.5-.108a.37.37 0 01.372.372M37.346 25.395l.04.157a.372.372 0 01-.282.476l-2.418.536a.315.315 0 01-.372-.257c-.048-.179-.018-.372.178-.413l2.39-.744a.37.37 0 01.46.264M36.361 23.073l.082.142a.373.373 0 01-.134.517l-2.195 1.142a.316.316 0 01-.443-.148c-.092-.16-.111-.343.067-.447l2.11-1.347a.371.371 0 01.513.138M34.793 21.08l.115.114a.37.37 0 010 .536L33.08 23.4a.314.314 0 01-.464-.029c-.13-.13-.197-.301-.052-.446l1.69-1.86a.37.37 0 01.532 0M32.772 19.557l.141.082a.37.37 0 01.19.377.371.371 0 01-.048.14l-1.33 2.088a.316.316 0 01-.458.093c-.16-.093-.267-.242-.163-.42l1.156-2.233a.372.372 0 01.512-.138M30.417 18.608l.156.041a.373.373 0 01.271.462l-.743 2.359a.316.316 0 01-.427.204c-.178-.048-.32-.163-.268-.372l.543-2.444a.373.373 0 01.46-.265M27.946 22.586h.1a.215.215 0 01.208.23l-.066 1.623a.174.174 0 01-.048.14.171.171 0 01-.138.05.173.173 0 01-.14-.05.174.174 0 01-.05-.14l-.067-1.619a.212.212 0 01.205-.23M26.545 22.79l.097-.025a.213.213 0 01.166.03.216.216 0 01.094.14l.371 1.582a.171.171 0 01-.13.23.175.175 0 01-.23-.133l-.483-1.548a.211.211 0 01.138-.275M25.245 23.341l.085-.048a.217.217 0 01.242.029c.022.019.04.042.052.068l.743 1.436a.172.172 0 01-.067.257.175.175 0 01-.26-.07l-.87-1.37a.214.214 0 01-.001-.242.212.212 0 01.061-.06M24.134 24.212l.071-.07a.213.213 0 01.238-.049c.026.011.05.028.07.048l1.115 1.195a.172.172 0 010 .268.174.174 0 01-.268 0l-1.192-1.098a.211.211 0 01-.019-.309M23.283 25.343l.052-.085a.214.214 0 01.305-.064l1.37.867a.17.17 0 01.071.257.176.176 0 01-.19.097.175.175 0 01-.07-.03l-1.434-.744a.212.212 0 01-.1-.29M22.756 26.653l.026-.097a.216.216 0 01.279-.141l1.549.484a.17.17 0 01.144.155.17.17 0 01-.01.075.175.175 0 01-.235.134l-1.582-.372a.213.213 0 01-.173-.17.212.212 0 01.002-.087M22.589 28.056v-.1a.215.215 0 01.23-.209l1.62.067a.17.17 0 01.19.186.176.176 0 01-.115.18.176.176 0 01-.075.01l-1.62.067a.211.211 0 01-.23-.205M22.785 29.455l-.026-.097a.217.217 0 01.171-.26l1.583-.372a.17.17 0 01.23.13.176.176 0 01-.133.23l-1.546.484a.215.215 0 01-.275-.137M23.358 30.753l-.052-.085a.216.216 0 01.096-.294l1.438-.744a.17.17 0 01.256.067.177.177 0 01-.01.214.175.175 0 01-.06.046l-1.367.867a.214.214 0 01-.301-.06M24.212 31.866l-.07-.07a.214.214 0 01-.048-.239.214.214 0 01.048-.07l1.192-1.117a.172.172 0 01.208-.047.171.171 0 01.06.047.175.175 0 010 .268l-1.115 1.195a.216.216 0 01-.308.018M25.342 32.714l-.086-.048a.215.215 0 01-.063-.305l.866-1.384a.172.172 0 01.256-.071.175.175 0 01.067.26l-.743 1.437a.215.215 0 01-.294.1M26.653 33.243l-.096-.026a.215.215 0 01-.142-.276l.483-1.548a.17.17 0 01.23-.134.176.176 0 01.145.16.176.176 0 01-.01.075l-.372 1.581a.216.216 0 01-.256.171M28.054 33.414h-.1a.215.215 0 01-.209-.23l.067-1.623a.17.17 0 01.186-.19.173.173 0 01.18.115c.009.024.012.05.01.075l.067 1.618a.214.214 0 01-.122.211.212.212 0 01-.083.02M29.455 33.21l-.097.025a.213.213 0 01-.166-.03.217.217 0 01-.094-.14l-.372-1.582a.173.173 0 01.061-.202.17.17 0 01.07-.029.175.175 0 01.23.134l.483 1.548a.213.213 0 01-.138.275M30.755 32.659l-.086.048a.218.218 0 01-.241-.029.215.215 0 01-.052-.068l-.743-1.436a.172.172 0 01.007-.211.17.17 0 01.06-.046.174.174 0 01.26.07l.869 1.37a.212.212 0 01-.06.302M31.866 31.788l-.071.07a.213.213 0 01-.238.049.214.214 0 01-.07-.048l-1.115-1.195a.17.17 0 01-.047-.208.17.17 0 01.047-.06.175.175 0 01.268 0l1.192 1.098a.211.211 0 01.019.309M32.717 30.66l-.053.086a.215.215 0 01-.304.063l-1.371-.867a.171.171 0 01-.07-.256.174.174 0 01.26-.067l1.433.744a.21.21 0 01.124.208.212.212 0 01-.023.082M33.244 29.347l-.026.097a.216.216 0 01-.279.141l-1.545-.469a.172.172 0 01-.134-.23.176.176 0 01.159-.145.175.175 0 01.075.01l1.583.373a.213.213 0 01.17.257M33.411 27.944v.1a.215.215 0 01-.23.209l-1.62-.067a.17.17 0 01-.18-.111.171.171 0 01-.01-.075.175.175 0 01.19-.19l1.62-.067a.211.211 0 01.23.205M33.214 26.545l.026.097a.217.217 0 01-.17.26l-1.583.372a.17.17 0 01-.23-.13.176.176 0 01.133-.23l1.546-.484a.215.215 0 01.275.137M32.646 25.247l.052.085a.214.214 0 01-.029.242.216.216 0 01-.068.052l-1.438.744a.17.17 0 01-.256-.067.176.176 0 01.07-.26l1.368-.867a.214.214 0 01.3.06M31.788 24.134l.07.07a.216.216 0 010 .31l-1.192 1.116a.171.171 0 01-.268 0 .175.175 0 010-.268l1.115-1.195a.216.216 0 01.308-.018M30.658 23.286l.086.048a.214.214 0 01.096.226.217.217 0 01-.033.08l-.866 1.383a.17.17 0 01-.256.071.175.175 0 01-.067-.26l.743-1.437a.215.215 0 01.293-.1M29.347 22.757l.096.026a.214.214 0 01.152.19.217.217 0 01-.01.086l-.483 1.547a.172.172 0 01-.156.145.17.17 0 01-.075-.01.175.175 0 01-.134-.235l.372-1.581a.217.217 0 01.256-.172" fill="#fff"/></svg>