<!-- by TradingView --><svg width="56" height="56" xmlns="http://www.w3.org/2000/svg"><path fill="#F0F3FA" d="M0 0h56v56H0z"/><path d="M30.632 29.04a2.4 2.4 0 11-4.8 0 2.4 2.4 0 014.8 0z" fill="#0E6971"/><path d="M29.758 24.473a1.486 1.486 0 11-2.972 0 1.486 1.486 0 012.972 0z" fill="#BE252A"/><path d="M23.888 23.55a1.257 1.257 0 11-2.515 0 1.257 1.257 0 012.515 0zM27.546 21.493a1.257 1.257 0 11-2.515 0 1.257 1.257 0 012.515 0zM31.66 21.493a1.257 1.257 0 11-2.514 0 1.257 1.257 0 012.515 0zM35.09 23.55a1.257 1.257 0 11-2.514 0 1.257 1.257 0 012.514 0z" fill="#0E6971"/><path d="M38.633 23.893a1.257 1.257 0 11-2.514 0 1.257 1.257 0 012.514 0zM34.854 20.03a1.257 1.257 0 11-2.515 0 1.257 1.257 0 012.515 0zM29.489 18.526a1.257 1.257 0 11-2.515 0 1.257 1.257 0 012.515 0zM24.231 20.007a1.257 1.257 0 11-2.515 0 1.257 1.257 0 012.515 0zM20.344 23.794a1.257 1.257 0 11-2.514 0 1.257 1.257 0 012.514 0zM18.972 29.042a1.257 1.257 0 11-2.514 0 1.257 1.257 0 012.514 0zM20.344 34.41a1.257 1.257 0 11-2.514 0 1.257 1.257 0 012.514 0zM24.231 38.29a1.257 1.257 0 11-2.515 0 1.257 1.257 0 012.515 0z" fill="#BE252A"/><path d="M25.948 41.31a1.029 1.029 0 11-2.057 0 1.029 1.029 0 012.057 0zM32.576 41.382a1.029 1.029 0 11-2.058 0 1.029 1.029 0 012.058 0zM38.176 38.067a1.029 1.029 0 11-2.057 0 1.029 1.029 0 012.057 0zM41.377 32.352a1.029 1.029 0 11-2.058 0 1.029 1.029 0 012.058 0zM41.491 25.836a1.029 1.029 0 11-2.057 0 1.029 1.029 0 012.057 0zM38.176 20.235a1.029 1.029 0 11-2.057 0 1.029 1.029 0 012.057 0zM32.576 16.92a1.029 1.029 0 11-2.058 0 1.029 1.029 0 012.058 0zM25.945 16.92a1.029 1.029 0 11-2.057 0 1.029 1.029 0 012.057 0zM20.345 20.235a1.029 1.029 0 11-2.058 0 1.029 1.029 0 012.058 0zM17.03 25.836a1.029 1.029 0 11-2.058 0 1.029 1.029 0 012.058 0zM17.143 32.352a1.029 1.029 0 11-2.057 0 1.029 1.029 0 012.057 0zM20.345 38.067a1.029 1.029 0 11-2.058 0 1.029 1.029 0 012.058 0z" fill="#0E6971"/><path d="M21.945 41.725a1.029 1.029 0 11-2.058 0 1.029 1.029 0 012.058 0zM29.31 43.681a1.029 1.029 0 11-2.057 0 1.029 1.029 0 012.057 0z" fill="#BE252A"/><path d="M24.623 44.813a.571.571 0 11-1.143 0 .571.571 0 011.143 0zM33.033 44.811a.572.572 0 11-1.143 0 .572.572 0 011.143 0zM40.234 40.582a.572.572 0 11-1.143 0 .572.572 0 011.143 0zM44.463 33.38a.572.572 0 11-1.143 0 .572.572 0 011.143 0zM44.463 24.922a.571.571 0 11-1.143 0 .571.571 0 011.143 0zM40.234 17.72a.572.572 0 11-1.143 0 .572.572 0 011.143 0zM33.033 13.605a.572.572 0 11-1.143 0 .572.572 0 011.143 0zM24.593 13.572a.572.572 0 11-1.143 0 .572.572 0 011.143 0zM17.373 17.72a.572.572 0 11-1.144 0 .572.572 0 011.144 0zM13.143 24.922a.571.571 0 11-1.143 0 .571.571 0 011.143 0zM13.143 33.38a.572.572 0 11-1.143 0 .572.572 0 011.143 0zM17.373 40.582a.572.572 0 11-1.144 0 .572.572 0 011.144 0z" fill="#0E6971"/><path d="M36.462 41.61a1.029 1.029 0 11-2.058 0 1.029 1.029 0 012.058 0zM41.949 36.352a1.029 1.029 0 11-2.058 0 1.029 1.029 0 012.058 0zM43.892 29.151a1.029 1.029 0 11-2.058 0 1.029 1.029 0 012.057 0zM41.942 21.835a1.029 1.029 0 11-2.058 0 1.029 1.029 0 012.058 0zM36.576 16.577a1.029 1.029 0 11-2.057 0 1.029 1.029 0 012.057 0zM29.26 14.64a1.029 1.029 0 11-2.057 0 1.029 1.029 0 012.057 0zM22.059 16.577a1.029 1.029 0 11-2.058 0 1.029 1.029 0 012.058 0zM16.686 21.95a1.029 1.029 0 11-2.057 0 1.029 1.029 0 012.057 0zM14.737 29.151a1.029 1.029 0 11-2.057 0 1.029 1.029 0 012.057 0zM16.686 36.359a1.029 1.029 0 11-2.057 0 1.029 1.029 0 012.057 0zM29.489 39.667a1.257 1.257 0 11-2.515 0 1.257 1.257 0 012.515 0zM34.85 38.339a1.257 1.257 0 11-2.514 0 1.257 1.257 0 012.515 0zM38.748 34.503a1.257 1.257 0 11-2.515 0 1.257 1.257 0 012.515 0zM40.12 29.037a1.257 1.257 0 11-2.515 0 1.257 1.257 0 012.514 0z" fill="#BE252A"/><path d="M37.155 27.12a1.257 1.257 0 11-2.515 0 1.257 1.257 0 012.515 0zM37.148 31.094a1.257 1.257 0 11-2.515 0 1.257 1.257 0 012.515 0zM35.09 34.752a1.257 1.257 0 11-2.514 0 1.257 1.257 0 012.514 0zM31.66 36.81a1.257 1.257 0 11-2.514 0 1.257 1.257 0 012.515 0zM27.546 36.81a1.257 1.257 0 11-2.515 0 1.257 1.257 0 012.515 0zM23.888 34.752a1.257 1.257 0 11-2.515 0 1.257 1.257 0 012.515 0zM21.83 31.094a1.257 1.257 0 11-2.515 0 1.257 1.257 0 012.515 0zM21.83 27.208a1.257 1.257 0 11-2.515 0 1.257 1.257 0 012.515 0z" fill="#0E6971"/><path d="M33.736 26.75a1.486 1.486 0 11-2.972 0 1.486 1.486 0 012.972 0zM33.736 31.437a1.486 1.486 0 11-2.972 0 1.486 1.486 0 012.972 0zM29.717 33.728a1.486 1.486 0 11-2.972 0 1.486 1.486 0 012.972 0zM25.717 31.437a1.486 1.486 0 11-2.972 0 1.486 1.486 0 012.972 0zM25.717 26.75a1.486 1.486 0 11-2.972 0 1.486 1.486 0 012.972 0z" fill="#BE252A"/></svg>