<!-- by TradingView --><svg width="56" height="56" viewBox="0 0 56 56" xmlns="http://www.w3.org/2000/svg"><path fill="#4B4D4C" d="M0 0h56v56H0z"/><path d="M21 18h3v18h-3V18ZM28 18h-3v18h3V18Z" fill="#E3E3E3"/><path fill-rule="evenodd" d="M29 30c0-3.36 2.65-6 6-6 3.36 0 6 2.64 6 6 0 3.37-2.63 6-6 6s-6-2.63-6-6Zm6 3a2.9 2.9 0 0 1-3-3c0-1.74 1.25-3 3-3s3 1.26 3 3-1.28 3-3 3Z" fill="url(#ap1ajzrn0)"/><path fill-rule="evenodd" d="M12.98 24A5.95 5.95 0 0 1 19 29.98V36h-3v-.93c-.97.6-1.88.93-3.02.93C9.68 36 7 33.4 7 29.98A5.92 5.92 0 0 1 12.98 24Zm.02 9a2.9 2.9 0 0 1-3-3c0-1.76 1.25-3 3-3s3 1.27 3 3-1.28 3-3 3Z" fill="#E3E3E3"/><path d="M46 24h2v3h-2v9h-3v-9h-1v-3h1v-6h3v6Z" fill="#E3E3E3"/><defs><linearGradient id="ap1ajzrn0" x1="29.01" y1="30" x2="40.99" y2="30" gradientUnits="userSpaceOnUse"><stop stop-color="#CB004B"/><stop offset=".36" stop-color="#E30613"/><stop offset="1" stop-color="#F18A00"/></linearGradient></defs></svg>