<!-- by TradingView --><svg width="56" height="56" xmlns="http://www.w3.org/2000/svg"><path fill="#F6F8FD" d="M0 0h56v56H0z"/><path d="M17.45 32.136s2.17.557 2.684-.373c1.204-2.182-2.245-9.156-2.245-9.156s4.001 9.027 8.595 13.204c2.516 2.287 5.406 2.425 7.39 1.383 4.05-2.131 9.469-12.724 10.071-13.788.602-1.066-3.941 9.581-5.528 11.976-1.588 2.397-2.956 5.164-8.103 5.324-6.151.192-12.864-8.57-12.864-8.57z" fill="#1F99D6"/><path d="M12 26a2 2 0 114 0 2 2 0 01-4 0z" fill="#BCDCF5"/><path d="M27.195 14.888c2.354-.79 2.394.624.929 2.236-1.258 1.384-4.87 5.057-4.87 5.057s7.405-6.45 9.468-5.802c1.7.532.988 2.873.712 3.725-.272.854-3.611 9.636-15.71 27.895-.132.201 17.785-20.602 18.557-29.437.657-7.507-3.12-6.55-3.394-6.494-3.207.622-5.692 2.82-5.692 2.82z" fill="#1F3462"/></svg>