<!-- by TradingView --><svg width="56" height="56" viewBox="0 0 56 56" xmlns="http://www.w3.org/2000/svg"><path fill="#F0F3FA" d="M0 0h56v56H0z"/><path d="M28.5 37.5c-3.22 0-6.23 2.6-7.97 4.65a15.93 15.93 0 0 0 12.93.9 39.38 39.38 0 0 1-4.96-5.55ZM23.4 12.67c-2.94 6.11-7.06 16.29-7.44 25.87a16 16 0 0 1 7.44-25.87ZM44 28c0 4.75-2.07 9-5.35 11.94A8.9 8.9 0 0 1 36 32c.71-4.26 4.37-8.32 6.7-10.34.83 1.94 1.3 4.09 1.3 6.34Z" fill="#68216D"/><path d="M37.27 22.78c-6.24 3.4-13.9 8.79-16.27 14.72-.33-3.5 0-11.6 4-16 .33.83 1.1 2.7 1.5 3.5l3.5-2c-1.15-1.58-3.22-5.72-3.5-10.93a15.99 15.99 0 0 1 14.91 7.2c1.77-.38 3.67-.53 5.59-.27-3.25.81-5.51 1.62-9.73 3.78Z" fill="#68216D"/></svg>