<!-- by TradingView --><svg width="56" height="56" xmlns="http://www.w3.org/2000/svg"><path fill="#E3711E" d="M0 0h56v56H0z"/><path d="M28.893 20.396a1.269 1.269 0 00-1.841 0L15 34l4.997-1s5.716-6.037 6.887-7.385c.447-.47.782-.615 1.116-.615.335 0 .781.204 1.116.615C30.288 26.846 36.001 33 36.001 33l5 1-12.108-13.604z" fill="#fff"/><path d="M45.99 31.973v-7.837c0-.163 0-1.633-.757-2.939-.92-1.47-2.381-2.285-2.381-2.394-.108 0-.487-.272-1.083-.599-2.76-1.47-9.363-5.007-11.365-5.769-.812-.272-1.57-.435-2.381-.435h-.109c-.757 0-1.57.163-2.38.435-2.057.762-8.606 4.3-11.366 5.77-.596.326-.974.598-1.137.598-.108 0-1.57.925-2.381 2.285-.65 1.415-.65 2.94-.65 2.94v7.836c0 .109-.108 1.633.758 2.939.92 1.47 2.381 2.285 2.381 2.394.109.11.488.272 1.083.599 2.76 1.47 9.255 5.007 11.365 5.769.812.272 1.57.435 2.381.435h.109c.757 0 1.57-.163 2.381-.435 2.057-.762 8.605-4.3 11.366-5.77.595-.326.974-.598 1.136-.598.108 0 1.57-.925 2.381-2.285.758-1.415.65-2.94.65-2.94zM45 32c0 .109 0 1.484-.437 2.204-.596.98-1.67 1.837-1.832 2-.108 0-.162.109-.433.163-8.01 4.354-10.758 5.853-11.84 6.18-.65.272-1.84.453-2.49.453h-.108c-.65 0-1.299-.415-1.948-.633-1.407-.49-5.675-2.517-12.008-6a1.505 1.505 0 00-.324-.163c-.109 0-1.289-.878-1.992-2.02-.513-.834-.588-2.102-.588-2.211v-7.837c0-.109-.072-1.601.524-2.465.595-.98 1.687-1.773 1.85-1.937.107 0 .162-.109.324-.163 6.332-3.483 10.602-5.546 12.009-6.035.65-.272 1.45-.536 2.1-.536h.27c.65 0 1.407.318 2.056.536 1.408.49 5.888 2.644 12.22 6.127 0 0 1.33.927 2.033 2.015.596.98.614 2.458.614 2.458V32z" fill="#fff"/><path d="M37 20c1.111 0 2 .889 2 2s-.889 2-2 2c-1.11 0-2-.889-2-2s.89-2 2-2z" fill="#fff"/></svg>