<!-- by TradingView --><svg width="56" height="56" viewBox="0 0 56 56" xmlns="http://www.w3.org/2000/svg"><path fill="#F0F3FA" d="M0 0h56v56H0z"/><path d="M47 15c-19.82 0-32.26 16-36 24 10.47-15.88 25.25-20.46 31.32-20.77-.37 4.06-2.02 6.3-2.8 6.92C43.26 23.31 46.06 17.62 47 15Z" fill="url(#auugjdhcc)"/><path d="m4 33 3.7-8h.6l3.7 8h-.63l-3.5-7.63h.25L4.63 33H4Zm1.3-2 .2-.5h4.82l.2.5H5.3ZM13 33v-8h.5v8H13ZM15 33v-8h.5v7.5H20v.5h-5ZM21.5 28.75H26v.5h-4.5v-.5Zm0 3.75H27v.5h-6v-8h6v.5h-5.5v7ZM28 33v-8h3.23c1.7 0 3.63.72 3.63 2.7 0 1.97-1.95 2.8-3.63 2.8h-2.87l.14-.27V33H28Zm6.25 0-2.34-2.9h.75L35 33h-.75Zm-5.75-2.74-.14-.26h2.87c1.4 0 2.96-.67 2.96-2.3 0-1.64-1.56-2.17-2.96-2.17h-2.87l.14-.29v5.02ZM40 33a4.01 4.01 0 0 1-2.87-1.14A3.97 3.97 0 0 1 36 29a4.1 4.1 0 0 1 1.13-2.85A4.13 4.13 0 0 1 40 25a4.05 4.05 0 0 1 2.86 1.14A4 4 0 0 1 44 29a4.09 4.09 0 0 1-1.14 2.86A3.85 3.85 0 0 1 40 33Zm0-.53c.5 0 .95-.09 1.36-.26a3.22 3.22 0 0 0 1.8-1.84c.18-.42.27-.87.27-1.37a3.47 3.47 0 0 0-2.07-3.21 3.53 3.53 0 0 0-1.36-.26A3.34 3.34 0 0 0 36.56 29a3.5 3.5 0 0 0 .98 2.48 3.34 3.34 0 0 0 2.46.99ZM45 33v-8h.5l6.16 7.28h-.16V25h.5v8h-.5l-6.16-7.28h.16V33H45Z" fill="#4376AB"/><defs><linearGradient id="auugjdhcc" x1="46.06" y1="15" x2="12.21" y2="38.02" gradientUnits="userSpaceOnUse"><stop stop-color="#4EBB4E"/><stop offset="1" stop-color="#CFDFCB"/></linearGradient></defs></svg>