<!-- by TradingView --><svg xmlns="http://www.w3.org/2000/svg" width="56" height="56" viewBox="0 0 56 56"><path fill="#F0F3FA" d="M0 0h56v56H0z"/><path d="M50 27.18c-10.38-1.22-14.8 1.3-22.96 8.82a42.3 42.3 0 0 0-6.18-5.11l1.1-1.98c1.39.83 2.37 1.54 3.7 2.69.79.69 1.96.68 2.74-.02 4.04-3.7 9.48-7.57 21.6-4.4zM6 27.18c5.66-1.64 9.74-1.26 13.58.51l-1 1.87C12.75 26.24 8.73 26.61 6 27.18z" fill="#389FC8"/><path d="M12 42h2.72a1 1 0 0 0 .93-.63L26 15.33a.97.97 0 0 0-.9-1.33v-1h5.04l4.9 14.11a21.9 21.9 0 0 0-3.18 1.8L27.37 17.1l-8.82 23.56A1 1 0 0 0 19.5 42H23v1H12v-1zM32 42h3.37a1 1 0 0 0 .94-1.35l-2.9-7.62 2.82-2.52 3.76 10.82a1 1 0 0 0 .94.67H43v1H32v-1z" fill="#0E233D"/></svg>