<!-- by TradingView --><svg width="56" height="56" viewBox="0 0 56 56" xmlns="http://www.w3.org/2000/svg"><path fill="#F0F3FA" d="M0 0h56v56H0z"/><mask id="abm1jg5za" maskUnits="userSpaceOnUse" x="20" y="11" width="24" height="30"><path d="m23.45 11-2.49 7.4 4.91 1.63s1.16.4 1.34-.41c0 0 1.46-2.4 1.55-3.97 0 0 .15 5.77 1.13 6.1 0 0 8.92 5.62 13.77 19.21 0 0-1.52-21.47-20.21-29.96Z" fill="#fff"/></mask><g mask="url(#abm1jg5za)"><path d="M21.45 11h-.49v29.96h.49V11Z" fill="#2E70AC"/><path d="M21.93 11h-.48v29.96h.48V11Z" fill="#2E71AD"/><path d="M22.41 11h-.48v29.96h.48V11Z" fill="#2F72AE"/><path d="M22.9 11h-.49v29.96h.49V11Z" fill="#2F74AF"/><path d="M23.38 11h-.48v29.96h.48V11Z" fill="#3075B0"/><path d="M23.86 11h-.48v29.96h.48V11Z" fill="#3076B1"/><path d="M24.34 11h-.48v29.96h.48V11Z" fill="#3177B2"/><path d="M24.83 11h-.49v29.96h.49V11Z" fill="#3178B3"/><path d="M25.3 11h-.47v29.96h.48V11Z" fill="#3279B3"/><path d="M25.8 11h-.5v29.96h.5V11Z" fill="#327AB4"/><path d="M26.27 11h-.48v29.96h.48V11Z" fill="#337CB5"/><path d="M26.76 11h-.49v29.96h.49V11Z" fill="#347DB5"/><path d="M27.24 11h-.48v29.96h.48V11Z" fill="#347EB6"/><path d="M27.72 11h-.48v29.96h.48V11Z" fill="#357FB7"/><path d="M28.2 11h-.48v29.96h.48V11Z" fill="#3580B8"/><path d="M28.69 11h-.49v29.96h.49V11Z" fill="#3680B9"/><path d="M29.17 11h-.48v29.96h.48V11Z" fill="#3680BA"/><path d="M29.65 11h-.48v29.96h.48V11Z" fill="#3781BA"/><path d="M30.14 11h-.49v29.96h.49V11Z" fill="#3782BB"/><path d="M30.62 11h-.49v29.96h.49V11Z" fill="#3884BC"/><path d="M31.1 11h-.48v29.96h.48V11Z" fill="#3885BD"/><path d="M31.58 11h-.48v29.96h.48V11Z" fill="#3986BE"/><path d="M32.07 11h-.49v29.96h.49V11Z" fill="#3987BF"/><path d="M32.55 11h-.48v29.96h.48V11Z" fill="#3A88BF"/><path d="M33.03 11h-.48v29.96h.48V11Z" fill="#3A89C0"/><path d="M33.51 11h-.48v29.96h.48V11Z" fill="#3B8AC0"/><path d="M34 11h-.49v29.96H34V11Z" fill="#3B8BC1"/><path d="M34.48 11H34v29.96h.48V11Z" fill="#3C8CC2"/><path d="M34.96 11h-.48v29.96h.48V11Z" fill="#3C8DC3"/><path d="M35.44 11h-.48v29.96h.48V11Z" fill="#3D8DC4"/><path d="M35.93 11h-.49v29.96h.49V11Z" fill="#3D8EC4"/><path d="M36.4 11h-.47v29.96h.48V11Z" fill="#3E8FC5"/><path d="M36.9 11h-.5v29.96h.5V11Z" fill="#3E90C6"/><path d="M37.37 11h-.48v29.96h.48V11Z" fill="#3F91C6"/><path d="M37.86 11h-.49v29.96h.49V11Z" fill="#3F92C7"/><path d="M38.34 11h-.48v29.96h.48V11Z" fill="#4093C7"/><path d="M38.82 11h-.48v29.96h.48V11Z" fill="#4094C8"/><path d="M39.3 11h-.48v29.96h.48V11Z" fill="#4195C9"/><path d="M39.79 11h-.48v29.96h.48V11Z" fill="#4196CA"/><path d="M40.27 11h-.48v29.96h.48V11ZM40.75 11h-.48v29.96h.48V11Z" fill="#4296CB"/><path d="M41.24 11h-.49v29.96h.49V11Z" fill="#4297CC"/><path d="M41.72 11h-.48v29.96h.48V11Z" fill="#4298CC"/><path d="M42.2 11h-.48v29.96h.48V11Z" fill="#4399CC"/><path d="M42.68 11h-.48v29.96h.48V11Z" fill="#449ACD"/><path d="M43.17 11h-.49v29.96h.49V11Z" fill="#449ACE"/><path d="M43.65 11h-.48v29.96h.48V11Z" fill="#449BCE"/></g><mask id="bbm1jg5za" maskUnits="userSpaceOnUse" x="17" y="19" width="27" height="24"><path d="M44 43S33.45 27.03 17.24 29l3.31-9.17s6.16.48 6.16 4.01l.4 4.62s.68-5.43 2.82-4.69c0 0 8.88 5.57 14.07 19.23Z" fill="#fff"/></mask><g mask="url(#bbm1jg5za)"><path d="M17.8 19.83h-.56V43h.57V19.83Z" fill="#2E70AC"/><path d="M18.38 19.83h-.57V43h.57V19.83Z" fill="#2E71AD"/><path d="M18.95 19.83h-.57V43h.57V19.83Z" fill="#2F72AE"/><path d="M19.52 19.83h-.57V43h.57V19.83Z" fill="#2F74AF"/><path d="M20.09 19.83h-.57V43h.57V19.83Z" fill="#3075B0"/><path d="M20.66 19.83h-.57V43h.57V19.83Z" fill="#3076B1"/><path d="M21.22 19.83h-.56V43h.56V19.83Z" fill="#3177B2"/><path d="M21.8 19.83h-.58V43h.57V19.83Z" fill="#3178B3"/><path d="M22.36 19.83h-.57V43h.57V19.83Z" fill="#3279B3"/><path d="M22.93 19.83h-.57V43h.57V19.83Z" fill="#327AB4"/><path d="M23.5 19.83h-.57V43h.57V19.83Z" fill="#337CB5"/><path d="M24.07 19.83h-.57V43h.57V19.83Z" fill="#347DB5"/><path d="M24.64 19.83h-.57V43h.57V19.83Z" fill="#347EB6"/><path d="M25.2 19.83h-.56V43h.57V19.83Z" fill="#357FB7"/><path d="M25.78 19.83h-.57V43h.57V19.83Z" fill="#3580B8"/><path d="M26.35 19.83h-.57V43h.57V19.83Z" fill="#3680B9"/><path d="M26.92 19.83h-.57V43h.57V19.83Z" fill="#3680BA"/><path d="M27.49 19.83h-.57V43h.57V19.83Z" fill="#3781BA"/><path d="M28.05 19.83h-.56V43h.56V19.83Z" fill="#3782BB"/><path d="M28.62 19.83h-.57V43h.57V19.83Z" fill="#3884BC"/><path d="M29.2 19.83h-.58V43h.57V19.83Z" fill="#3885BD"/><path d="M29.76 19.83h-.57V43h.57V19.83Z" fill="#3986BE"/><path d="M30.33 19.83h-.57V43h.57V19.83Z" fill="#3987BF"/><path d="M30.9 19.83h-.57V43h.57V19.83Z" fill="#3A88BF"/><path d="M31.47 19.83h-.57V43h.57V19.83Z" fill="#3A89C0"/><path d="M32.04 19.83h-.57V43h.57V19.83Z" fill="#3B8AC0"/><path d="M32.6 19.83h-.56V43h.57V19.83Z" fill="#3B8BC1"/><path d="M33.18 19.83h-.57V43h.57V19.83Z" fill="#3C8CC2"/><path d="M33.75 19.83h-.57V43h.57V19.83Z" fill="#3C8DC3"/><path d="M34.32 19.83h-.57V43h.57V19.83Z" fill="#3D8DC4"/><path d="M34.89 19.83h-.57V43h.57V19.83Z" fill="#3D8EC4"/><path d="M35.45 19.83h-.56V43h.56V19.83Z" fill="#3E8FC5"/><path d="M36.02 19.83h-.57V43h.57V19.83Z" fill="#3E90C6"/><path d="M36.6 19.83h-.58V43h.57V19.83Z" fill="#3F91C6"/><path d="M37.16 19.83h-.57V43h.57V19.83Z" fill="#3F92C7"/><path d="M37.73 19.83h-.57V43h.57V19.83Z" fill="#4093C7"/><path d="M38.3 19.83h-.57V43h.57V19.83Z" fill="#4094C8"/><path d="M38.87 19.83h-.57V43h.57V19.83Z" fill="#4195C9"/><path d="M39.44 19.83h-.57V43h.57V19.83Z" fill="#4196CA"/><path d="M40 19.83h-.56V43H40V19.83ZM40.58 19.83H40V43h.57V19.83Z" fill="#4296CB"/><path d="M41.15 19.83h-.57V43h.57V19.83Z" fill="#4297CC"/><path d="M41.72 19.83h-.57V43h.57V19.83Z" fill="#4298CC"/><path d="M42.28 19.83h-.56V43h.56V19.83Z" fill="#4399CC"/><path d="M42.85 19.83h-.57V43h.57V19.83Z" fill="#449ACD"/><path d="M43.42 19.83h-.57V43h.57V19.83Z" fill="#449ACE"/><path d="M44 19.83h-.58V43H44V19.83Z" fill="#449BCE"/></g><path d="M42.97 42.52s-16.26-8.76-30.97 0l4.48-12.22s14.55-2.25 26.49 12.22Z" fill="#2A4B8F"/></svg>