<!-- by TradingView --><svg width="56" height="56" xmlns="http://www.w3.org/2000/svg"><path fill="#FA4616" d="M0 0h56v56H0z"/><path d="M43.614 33.597a47.455 47.455 0 01-11.352-19.586 1.35 1.35 0 00-.488-.73 1.378 1.378 0 00-.838-.281h-5.87a1.401 1.401 0 00-.834.286 1.372 1.372 0 00-.491.725 47.455 47.455 0 01-11.353 19.586 1.41 1.41 0 00-.207 1.658l2.935 5.052c.15.257.38.46.657.576.276.117.583.143.875.073a48.128 48.128 0 0111.353-1.373 46.81 46.81 0 0111.352 1.373c.292.076.602.053.88-.064.277-.117.507-.323.653-.584l2.936-5.053a1.414 1.414 0 00-.208-1.658zm-6.494 4.25l-20.653-4.38a.183.183 0 01-.13-.114.179.179 0 01.026-.17l14.132-15.65a.172.172 0 01.285.052l6.547 20.028a.187.187 0 01-.116.222c-.03.011-.06.015-.091.011z" fill="#fff"/></svg>