<!-- by TradingView --><svg width="56" height="56" viewBox="0 0 56 56" xmlns="http://www.w3.org/2000/svg"><path fill="#F0F3FA" d="M0 0h56v56H0z"/><path fill="#232D6B" d="M20 19h2v11h-2zM17 19h2v11h-2zM23 19h2v11h-2z"/><circle cx="37.13" cy="17" r="2" fill="#61708F"/><path d="M37.9 24.42a5.34 5.34 0 0 0-.63-7.81 6.1 6.1 0 0 0-8.27.6l.89.72a4.88 4.88 0 0 1 6.61-.48c1.97 1.6 2.2 4.4.51 6.25l.9.72Z" fill="url(#aylkmqpxi)"/><path d="M39.64 19.26a3.37 3.37 0 0 0-.36-4.73 3.31 3.31 0 0 0-4.7.36l.5.44a2.65 2.65 0 0 1 3.76-.29 2.7 2.7 0 0 1 .3 3.79l.5.43Z" fill="#61708F"/><path d="M30.9 40 27 31h1.21l3.29 7.28L34.79 31H36l-3.9 9h-1.2ZM38 31h1v9h-1zM42 31h-1v9h1v-5.54c0-.96.44-1.33.66-1.59.36-.43 1-.79 2.16-.6L45 31.2c-1.37-.22-2.35.13-3 .76V31Z" fill="#617090"/><path fill-rule="evenodd" d="M14 28a3 3 0 1 0 0-6 3 3 0 0 0 0 6Zm0 2a5 5 0 1 0 0-10 5 5 0 0 0 0 10ZM31 28a3 3 0 1 0 0-6 3 3 0 0 0 0 6Zm0 2a5 5 0 1 0 0-10 5 5 0 0 0 0 10Z" fill="#232D6B"/><defs><linearGradient id="aylkmqpxi" x1="36.34" y1="16.49" x2="32.46" y2="20.59" gradientUnits="userSpaceOnUse"><stop stop-color="#61708F"/><stop offset="1" stop-color="#61708F" stop-opacity="0"/></linearGradient></defs></svg>