<!-- by TradingView --><svg xmlns="http://www.w3.org/2000/svg" width="56" height="56" viewBox="0 0 56 56"><path fill="#F0F3FA" d="M0 0h56v56H0z"/><path d="M21 34.98a1 1 0 0 1-.98 1.02 1 1 0 0 1-.93-.64L18.16 33H9.95l-1.04 2.36A.94.94 0 0 1 8 36a1 1 0 0 1-1-1c0-.11.05-.25.1-.4l5.33-13.5a1.7 1.7 0 0 1 1.58-1.1c.72 0 1.33.46 1.56 1.1l5.36 13.5c.02.13.07.26.07.38zM17.39 31l-3.38-9.15L10.66 31h6.73zM24 34.95V20.98c0-.53.4-.98.95-.98.5 0 1.05.45 1.05.98V34h6.14c.45 0 .86.64.86 1.12a.9.9 0 0 1-.86.88H25c-.64 0-1-.38-1-1.05zM45.15 20.92c.37-.56.7-.92 1.5-.92.68 0 .91.27.91.58 0 .24-.14.48-.4.85l-4.36 6.16 4.8 6.93c.29.38.4.63.4.84 0 .37-.28.64-1.02.64-.8 0-1.13-.34-1.52-.95L41.43 29l-4.02 6.08c-.37.56-.72.92-1.49.92-.66 0-.92-.27-.92-.58 0-.24.14-.48.42-.87l4.85-6.91-4.25-6.16c-.28-.38-.42-.63-.42-.87 0-.36.3-.6 1-.6.8 0 1.13.31 1.55.94l3.44 5.28 3.56-5.3z" fill="#B8024A"/></svg>