<!-- by TradingView --><svg width="56" height="56" viewBox="0 0 56 56" xmlns="http://www.w3.org/2000/svg"><path fill="#F0F3FA" d="M0 0h56v56H0z"/><path d="M36.51 24h-4.15l4.87-5.17A3.01 3.01 0 0 0 41 15.96a3.01 3.01 0 0 0-6.01 0c0 .35.06.68.17.99L25 27h12.97L27.06 37.5c-.61.62-.55 1.63.13 2.18.59.47 1.44.42 1.97-.11L45 24h-4.16l2.47-2.66c.6-.59.6-1.55 0-2.14-.6-.6-1.57-.6-2.16 0L36.5 24Zm-16.66 8H24l-5.23 5.1c-.23-.07-.48-.1-.74-.1A3.08 3.08 0 0 0 15 40.04a3.01 3.01 0 0 0 6.01 0c0-.35-.06-.68-.17-.99L31 29H18.32l10.62-10.5c.61-.62.55-1.63-.13-2.18a1.49 1.49 0 0 0-1.97.11L11 32h4.53l-2.84 2.66c-.6.59-.6 1.55 0 2.14.6.6 1.57.6 2.16 0l5-4.8Z" fill="url(#arua32bjq)"/><defs><linearGradient id="arua32bjq" x1="45" y1="28" x2="11" y2="28" gradientUnits="userSpaceOnUse"><stop stop-color="#FFBE00"/><stop offset="1" stop-color="#FF8C00"/></linearGradient></defs></svg>