<!-- by TradingView --><svg width="56" height="56" xmlns="http://www.w3.org/2000/svg"><path fill="#0A4D93" d="M0 0h56v56H0z"/><path d="M13 20c-4.968 0-9 3.575-9 7.994C4 32.412 8.032 36 13 36s9-3.588 9-8.006C22 23.575 17.968 20 13 20z" fill="#fff"/><path d="M14.095 31.064c.052-.05-.013-.06.13-.064H16v-2l-3.307.003L10.434 34h2.257l1.403-2.936z" fill="#0A4D93"/><path d="M16.374 23.058c-.259.006-.548.1-.851.304-.759.512-1.868 2.732-2.08 3.638.239 0 2.11-.015 2.18 0l.789-1.506 3.544 7.765c.005-.004.007-.009.013-.012.048-.03.104-.057.15-.09.005-.005.008-.006.013-.012.295-.374.92-1.328 1.077-1.535.162-.216.108-.243-.013-.482a16.39 16.39 0 01-.238-.495 58.988 58.988 0 01-.463-1.028c-.596-1.351-1.17-2.753-1.829-4.073-.46-.922-1.17-2.5-2.292-2.474z" fill="#0A4D93"/><path d="M25 32.997c.03-.24 0-1.558 0-1.984 0-.808.079-2.015 1.002-2.013.925.003.999 1.207.998 2.013V33h2c.029-.286 0-1.531 0-1.987 0-.831.095-1.977 1-2.013.953-.038 1 1.207 1 2.013V33h1.998v-2.765c0-.862.065-1.738-.333-2.419-.327-.56-1.014-.921-1.96-.816-.68.076-1.29.469-1.705 1-.563-.526-1.055-.963-1.878-1-1.418-.064-1.916.801-2.122.92V27h-1.998L23 33l2-.003zM36 30.498l.235.244 1.718 1.774c.117.137.39.468.465.484H41c-.032-.08-1.315-1.472-1.487-1.668-.25-.284-.507-.553-.755-.835-.142-.16-.687-.707-.749-.845C38.105 29.59 41 27 41 27h-2.58c-.152 0-.246.11-.505.385-.121.13-1.816 1.551-1.91 1.615-.022-.011-.009-5.482-.009-6h-1.994L34 33l2-.016v-2.486c0-.005-.003-.002 0 0z" fill="#fff"/><path d="M43 30c0-1.418 1.922-1.38 2-.058.078 1.322-2 1.476-2 .058zm.796-2.992c-3.965.25-3.61 6.244.413 5.984 3.958-.256 3.603-6.237-.413-5.984zM50 28v-1h-2v6h2v-3.24c0-.88 1.122-1.186 2-.76v-2c-.614-.104-1.349.131-1.77.594-.075.081-.228.406-.23.406z" fill="#fff"/></svg>