<!-- by TradingView --><svg xmlns="http://www.w3.org/2000/svg" width="56" height="56" viewBox="0 0 56 56"><path fill="#2E3B6F" d="M0 0h56v56H0z"/><path d="M32.5 19.79h-2.08l.7-.79h15.91l-2.7 3h-1.54l-2 2.01h-1.85l-1.74 1.98h-6.17l-.88-.84.64-.4.61.25h5.42l1.03-.99H35.5l.45-1.01h4.38l1.04-1H34.8l-.66-1h9.52l1.04-1H32.91l-.4-.21zm-.91 2.4l-.81-.75h1.28l-.47.74zM8.33 19h16.14l1.12 1h6.77L35 23.15v.38a10.5 10.5 0 0 0-2.97 0c-.95.25-3.45 1.73-4.64 2.97h-1.4c1.06-1.11 4.06-3.43 5.93-3.8h1.8l-1.5-1.7h-5.63l.8.73-.8.55L24.05 20H10.9l1.15 1h11.94l.7 1H14.08l1.3 1h6.63l.78 1h-5.22l1.16 1h5.48l2.27-2.17.78.62L24.7 26h-6.33l-2.19-2-1.16-.02L12.56 22h-.91l-3.32-3z" fill="#73B64F"/><path d="M7.33 27L5 32h1.42l.5-1.02H9.6l.48 1.02h1.42l-2.4-5H7.33zm1.8 2.96H7.42l.87-1.8.84 1.8zM41.15 27L39 32h1.31l.45-1h2.5l.43 1H45l-2.22-5h-1.63zm1.68 3H41.2l.83-1.83.79 1.83zm-30.65-3H12v5h1v-3.09L14.32 32h1.24L17 28.63V32h1v-5h-1.55l-1.5 3.54L13.42 27h-1.25zm34.28 0H46v5h1v-3.95L49.02 32H51v-5h-1v4.45L47.72 27h-1.26zM20 27h-1v5h5v-1h-4v-1h3.5v-1H20v-1h4v-1h-4zm5 0h4.05c.78 0 1.4.6 1.4 1.36 0 .68-.06 1.27-.64 1.58.41.22.69.65.69 1.15V32h-1v-1.5H26V32h-1v-5zm3.81 1H26v1.5h2.81c.38 0 .69-.34.69-.75s-.3-.75-.69-.75zM31 27h1v5h-1v-5zm2 1.78c0-.98.69-1.78 1.54-1.78h2.42c.85 0 1.54.8 1.54 1.78V29h-1c-.03-.56-.46-1-.98-1h-1.54c-.54 0-.98.48-.98 1.07v.86c0 .6.44 1.07.98 1.07h1.54c.52 0 .95-.44.98-1h1v.22c0 .98-.69 1.78-1.54 1.78h-2.42c-.85 0-1.54-.8-1.54-1.78v-1.44z" fill="#fff"/><path d="M35 35.39V33h.64v2.3c0 .07.05.12.1.12h1.53c.06 0 .1-.05.1-.12V33H38v2.39c0 .34-.23.61-.52.61h-1.96c-.29 0-.52-.27-.52-.61zM11.63 33H11V36h2.5v-.5h-1.87V33zM16 33h.6v.74H16V33zm0 1.19h.6V36H16v-1.81z" fill="#73B64F"/><path d="M19.75 33H22.82v.5H21.6V36H21v-2.5h-1.25V33zm5.81 0H25v3h.56v-1.2h1.88V36H28v-3h-.56v1.2h-1.88V33zM31 33h.58v3H31v-3zm10.58 0H41v3h.58v-1.92l1.18 1.62 1.16-1.72V36h.58v-3h-.58v.03l-1.16 1.78-1.18-1.8z" fill="#fff"/></svg>