<!-- by TradingView --><svg xmlns="http://www.w3.org/2000/svg" width="56" height="56" viewBox="0 0 56 56"><path fill="#F0F3FA" d="M0 0h56v56H0z"/><path d="M24.82 43c3.46 0 6.66-1.2 9.18-3.23V43h10V13H34v3.23l-.3-.23H15.93c-.4.31-.8.65-1.18 1h1.27l-.2-.56.79.56H33.3l.62-.4-3.52 10.1 8.02 6.3h-10.1l-4.04 9.91-.3-.91h-4.5c1.65.65 3.45 1 5.33 1Zm-1.17-2L23 39h-8.25c.82.76 1.71 1.44 2.68 2h6.23Zm-1-3L22 36h-9.7c.43.7.93 1.38 1.48 2h8.88Zm-1-3L21 33H10.84c.24.7.53 1.36.87 2h9.94Zm-10.88-2.2 3.74-2.8h-4.38c.13.96.34 1.9.64 2.8Zm5.08-3.8 2.67-2h-8.49a15.4 15.4 0 0 0 0 2h5.82Zm3.43-3-.73-2h-8.02c-.17.65-.31 1.32-.4 2h9.15Zm-1.09-3-.72-2H11.7a15 15 0 0 0-.87 2h7.35Zm4.01-2 2.35 1.68L27.14 21H22.2Zm6.48-1H20.8L18 18h13.77l-3.1 2Zm-12.3-2 .72 2h-4.82c.44-.7.94-1.38 1.5-2h2.6Zm1.04-3h14.8c-.67-.38-1.36-.72-2.07-1H19.49c-.72.28-1.41.62-2.07 1Zm11.19-1.5a14.67 14.67 0 0 0-7.59 0h7.59Z" fill="#0B57A3"/></svg>