<!-- by TradingView --><svg xmlns="http://www.w3.org/2000/svg" width="56" height="56"><path fill="#F0F3FA" d="M0 0h56v56H0z"/><path d="M16.81 37H9l8-17 3.5 9-3.69 8z" fill="#463A73"/><path d="M26 37l-8-20h9l8 20h-9z" fill="url(#ap2dkyutp)"/><path d="M29.81 19L29 17h8.98l.84 2h-9z" fill="url(#bp2dkyutp)"/><path d="M33.38 28l-.82-2h8.98l.84 2h-9z" fill="url(#cp2dkyutp)"/><path d="M36.9 37l-.9-2h9.06l.94 2h-9.1z" fill="url(#dp2dkyutp)"/><path d="M34.46 31l-.83-2h9.15l.85 2h-9.17z" fill="url(#ep2dkyutp)"/><path d="M35.61 34l-.83-2h9.17l.86 2h-9.2z" fill="url(#fp2dkyutp)"/><path d="M31 22l-.82-2h8.98l.84 2h-9z" fill="url(#gp2dkyutp)"/><path d="M32.13 25l-.81-2h8.98l.84 2h-9z" fill="url(#hp2dkyutp)"/><defs><linearGradient id="ap2dkyutp" x1="24.81" y1="30.56" x2="32.69" y2="28.69" gradientUnits="userSpaceOnUse"><stop stop-color="#483D74"/><stop offset=".85" stop-color="#706A9B"/></linearGradient><linearGradient id="bp2dkyutp" x1="31.5" y1="19" x2="40.63" y2="19" gradientUnits="userSpaceOnUse"><stop stop-color="#7D76A8"/><stop offset=".53" stop-color="#CEC4E0"/><stop offset=".97" stop-color="#D8CDEA"/></linearGradient><linearGradient id="cp2dkyutp" x1="35.06" y1="28" x2="44.19" y2="28" gradientUnits="userSpaceOnUse"><stop stop-color="#7D76A8"/><stop offset=".53" stop-color="#CEC4E0"/><stop offset=".97" stop-color="#D8CDEA"/></linearGradient><linearGradient id="dp2dkyutp" x1="38.69" y1="37" x2="47.81" y2="37" gradientUnits="userSpaceOnUse"><stop stop-color="#7D76A8"/><stop offset=".53" stop-color="#CEC4E0"/><stop offset=".97" stop-color="#D8CDEA"/></linearGradient><linearGradient id="ep2dkyutp" x1="36.18" y1="31" x2="45.47" y2="31" gradientUnits="userSpaceOnUse"><stop stop-color="#7D76A8"/><stop offset=".53" stop-color="#CEC4E0"/><stop offset=".97" stop-color="#D8CDEA"/></linearGradient><linearGradient id="fp2dkyutp" x1="37.33" y1="34" x2="46.66" y2="34" gradientUnits="userSpaceOnUse"><stop stop-color="#7D76A8"/><stop offset=".53" stop-color="#CEC4E0"/><stop offset=".97" stop-color="#D8CDEA"/></linearGradient><linearGradient id="gp2dkyutp" x1="32.68" y1="22" x2="41.8" y2="22" gradientUnits="userSpaceOnUse"><stop stop-color="#7D76A8"/><stop offset=".53" stop-color="#CEC4E0"/><stop offset=".97" stop-color="#D8CDEA"/></linearGradient><linearGradient id="hp2dkyutp" x1="33.82" y1="25" x2="42.95" y2="25" gradientUnits="userSpaceOnUse"><stop stop-color="#7D76A8"/><stop offset=".53" stop-color="#CEC4E0"/><stop offset=".97" stop-color="#D8CDEA"/></linearGradient></defs></svg>