<!-- by TradingView --><svg width="56" height="56" xmlns="http://www.w3.org/2000/svg"><path fill="#243E6E" d="M0 0h56v56H0z"/><path d="M44.706 31.723c-.042.266-.191.555-.456.666-.423.044-1.016.166-1.376-.111l-.074-.4.024-5.267c.296-.489 1.058-.289 1.556-.266.127.044.287.144.329.3l-.003 5.078zm-7.39-3.39c-.159.523-.688.79-1.176.855h-.91v-2.856c.678 0 1.376.012 1.832.535.306.366.402.988.254 1.466zm-10.65 2.29l1.345-2.745 1.396 2.744h-2.742zm22.842-4.685c-.18.523.427.245.608.4.264.077.455.344.508.622l-.022 3.563h-.03l-4.032-4.579h-6.353c.011.111-.021.234.022.322.296.067.742-.067.837.323l-.003 5.577c-.053.101-.074.223-.2.245-.415.077-.943.133-1.219-.29-.603-.855-1.101-1.798-1.8-2.565-.126-.067-.285-.101-.38-.157.603-.087 1.238-.288 1.566-.91.18-.456.127-1.145-.191-1.523-1.503-1.645-4.139-.734-6.256-.989.01.111-.022.234.031.322.276.079.678-.077.837.267l.042 5.555-.095.212c-.18.166-.422.122-.667.133-.274 0-.497-.19-.656-.433l-2.975-5.567c-.137-.178-.17-.466-.402-.534-.328.479-.72.734-1.122 1.09.136.056.158.2.201.322l-1.927 4.022c-.222.445-.56 1.022-1.09 1.066-.106-.055-.255-.121-.286-.266l-.003-5.584c.137-.39.56-.255.868-.322v-.322h-2.647l-2.05 4.607a220.03 220.03 0 01-2.058-4.607h-2.753v.322c.34.055.826-.045.92.4 0 1.755.12 3.718-.102 5.406-.095.201-.296.356-.508.367-.422-.033-.825-.188-1.09-.578l-4.425-8.832L10.51 23c-.391.478-.899.922-1.397 1.333l.254.456-1.328 2.878L4 27.69v.24l3.896.005c-.053.166-.106.344-.212.477H4v.288l3.536.034a1.55 1.55 0 01-.201.456L4 29.21v.244l3.17.023c-.021.177-.132.333-.195.478H4v.267l2.828.033c-.03.167-.139.321-.203.478H4v.289h2.468c-.21.466-.542 1.055-1.039 1.255-.201.21-.868-.022-.614.533h3.15v-.348c-.392-.034-.842.015-1.118-.341-.158-.399.096-.756.233-1.1h2.51v-.288H7.198l.23-.478 2.393-.033v-.267H7.536l.233-.478 2.254-.023v-.266H7.896l.222-.49h2.136v-.288H8.242c.074-.155.13-.344.236-.477l1.958-.034v-.233H8.593c.329-.744.668-1.522.996-2.268.022.013.032.035.053.023l2.446 4.857c.201.599.72 1.099.71 1.755-.223.5-.773.366-1.197.454v.301h6.68c-.011-.11.021-.234-.02-.322a2.43 2.43 0 01-.583-.056c-.212-.067-.371-.3-.435-.511l.018-4.94.053.044 2.567 5.806h.179l2.611-5.85h.053l-.018 5.206c-.137.39-.561.257-.868.322.01.112-.02.234.032.322h5.124v-.322c-.329-.021-.688-.01-.91-.322-.138-.443.222-.733.38-1.088l3.197.022c.202.366.477.688.51 1.122-.201.333-.636.2-.965.266v.3h6.882c0-.11.022-.233-.021-.321-.19-.012-.403.021-.583-.034-.136-.066-.254-.156-.285-.311l.031-2.589c.36-.01.72-.023.985.211l1.81 3.066 8.279-.021c-.01-.111.021-.234-.02-.322-.223.021-.414-.034-.615-.056-.18-.067-.381-.267-.402-.478l.003-4.967h.02L50.697 33h.36l.053-6.096.149-.345c.18-.266.465-.277.741-.3v-.321h-2.492z" fill="#fff"/></svg>