<!-- by TradingView --><svg xmlns="http://www.w3.org/2000/svg" width="56" height="56"><path fill="#F0F3FA" d="M0 0h56v56H0z"/><path d="M43 36.5V13H18.6c-3.64 0-5.6 2.92-5.6 5.78V43h24.5c3.56 0 5.5-2.76 5.5-6.5z" fill="url(#agfjwhnye)"/><path opacity=".95" fill-rule="evenodd" d="M37.13 16.24c.88 0 1.55.06 2.87.93a4.12 4.12 0 00-5.87.1l-1.28 1.23c-.1.08-.2.17-.28.27l-.5.48a4.3 4.3 0 00-.2.2l-.43.4a4.25 4.25 0 00-1.51 3.32A4.24 4.24 0 0031 25.99a4.29 4.29 0 003.7 1.1l-.1.26a4 4 0 01-1.4.25c-.9 0-1.58-.06-2.94-.93a4.26 4.26 0 004.2.99l-.1.17a4.58 4.58 0 01-4.84-.46 4.26 4.26 0 004.55.87l-.02.03a4.58 4.58 0 01-5.35-.14 4.26 4.26 0 004.63.84 4.63 4.63 0 01-5.34-.1c.76.7 1.79 1.13 2.92 1.13a4.27 4.27 0 003.06-1.27l1.29-1.22.28-.27.5-.47.22-.21.6-.58a4.33 4.33 0 00.25-5.96h.02a5.52 5.52 0 00-.05-.04v-.01a4.22 4.22 0 00-3.67-1.06 4 4 0 01.1-.25 4.54 4.54 0 014.31.7 4.23 4.23 0 00-4.17-1.02l.1-.18c.57-.3 1.2-.46 1.88-.46.9 0 1.58.06 2.94.94a4.23 4.23 0 00-4.53-.88c0-.02.02-.03.03-.04a4.54 4.54 0 015.3.17 4.23 4.23 0 00-4.6-.86c.66-.5 1.47-.79 2.35-.79zM37.1 20c-1.32-.85-2-.91-2.9-.91-.3 0-.59.03-.87.1-.09.33-.14.69-.14 1.06 0 .83.28 1.94.9 2.86a4.38 4.38 0 01-1.03-3.86l-.3.1a4.23 4.23 0 00-.35 1.67c0 .85.22 1.97.85 2.91a4.35 4.35 0 01-.82-4.43.94.94 0 00-.22.12 4.11 4.11 0 00-.61 2.16c0 .85.21 1.97.85 2.9a4.35 4.35 0 01-.68-4.77h-.02c-.56.71-.9 1.6-.9 2.58 0 .85.22 1.97.85 2.9a4.35 4.35 0 01-.7-4.71 4.1 4.1 0 00-.84 2.49 5.14 5.14 0 00.84 2.8c1.32.85 2 .95 2.9.95.3 0 .6-.03.88-.1.08-.3.13-.63.13-.97 0-.82-.22-1.89-.86-2.78a4.09 4.09 0 011 3.69l.3-.1c.22-.51.34-1.07.34-1.66 0-.85-.22-1.96-.86-2.9a4.3 4.3 0 01.83 4.41l.23-.11c.38-.63.6-1.36.6-2.15 0-.85-.22-1.96-.85-2.9a4.3 4.3 0 01.68 4.76l.02-.02c.57-.7.9-1.59.9-2.56 0-.84-.22-1.96-.86-2.89a4.3 4.3 0 01.72 4.7c.52-.7.83-1.55.83-2.48 0-.84-.22-1.93-.84-2.86z" fill="#fff"/><path d="M17.18 40c-.63 0-1.15-.23-1.57-.68a2.44 2.44 0 01-.61-1.74c0-.86.26-1.5.82-1.93a3.86 3.86 0 012.4-.65h1.08c0-1.17-.5-1.52-1.49-1.52-.72 0-1.3.13-1.99.52 0 0-.67-.93-.2-1.33.45-.4 1.52-.67 2.51-.67 1.99 0 2.87 1.1 2.87 3.22v1.86c0 1 .14 2.14.3 2.92h-1.47c-.35 0-.41-.68-.41-.78-.66.83-1.9.78-2.24.78zm.55-1.34c1 0 1.42-.56 1.57-.96v-1.26c-.63 0-2.57-.13-2.57 1.14 0 .47.32 1.08 1 1.08zM22 40v-6h.78c.39 0 .82.14.82.68.4-.36.8-.68 1.6-.68.38 0 1.17.08 1.4.68.35-.43.92-.68 1.82-.68.54 0 .98.24 1.24.58.27.36.34.84.34 1.44V40h-1.6v-3.57c0-.65-.4-.93-.76-.93-.67 0-.84.52-.84.52V40h-1.6v-3.57c0-.75-.43-.93-.67-.93-.67 0-.93.52-.93.52V40H22zm10.7 0c-.45 0-2-.2-2-.98 0-.38.22-.7.4-.95.42.5 1.08.68 1.6.68.63 0 .96-.27.96-.68 0-.42-.69-.57-.97-.65-.89-.26-1.9-.35-1.9-1.66 0-1.32 1.3-1.76 2.24-1.76.86 0 1.97.45 1.97 1 0 .3-.28.6-.53.76-.31-.29-.9-.54-1.44-.54-.34 0-.83.15-.83.48 0 .44.5.33 1.55.7.73.24 1.25.68 1.25 1.67 0 1.29-1.03 1.93-2.3 1.93zm5.5 0c-1.78 0-2.68-1.4-2.68-3.04 0-1.64 1.2-2.96 2.88-2.96.83 0 1.35.38 1.5.6.05.06.1.2.1.4 0 .3-.08.6-.26.84-.15-.3-.41-.56-1.08-.56-.37 0-1.46.33-1.46 1.68 0 1.13.74 1.87 1.46 1.87.55 0 .89-.16 1.23-.46 0 0 .11.24.11.55 0 .75-1.08 1.08-1.8 1.08z" fill="#fff"/><defs><linearGradient id="agfjwhnye" x1="50.7" y1="1.19" x2="10.51" y2="44.05" gradientUnits="userSpaceOnUse"><stop offset=".46" stop-color="#009BD9"/><stop offset=".83" stop-color="#243F93"/></linearGradient></defs></svg>