<!-- by TradingView --><svg width="56" height="56" viewBox="0 0 56 56" xmlns="http://www.w3.org/2000/svg"><path fill="#F0F3FA" d="M0 0h56v56H0z"/><path d="M27.07 37.04c-.03-.57.3-1.09.07-1.69-.03-.71 0-1.43.13-2.13-.4-.1-.6-.53-.76-.9l-.07.03c.07.28.07.58 0 .86a.25.25 0 0 1-.2 0 .26.26 0 0 1-.13-.13c-.22.13-.33.3-.5.4-.12-.03-.12-.15-.14-.23-.5-.22.26-.36.07-.63a1.8 1.8 0 0 1-.7-.27.72.72 0 0 1 .11-.5c.24-.14.43.23.6.38.04-.27-.15-.7.13-.94-.02-.12-.1 0-.16-.04-.14.46-.57.07-.87.31-.02.25-.33.2-.44.37a.26.26 0 0 0-.15-.09.25.25 0 0 0-.16.02c-.12.22-.33.14-.43.37-.15-.03-.31.17-.38-.03.19-.1.26-.27.47-.3-.07-.41.28-.73.52-1.02.19-.08.43.05.64-.03.3-.27.02-.63.07-.98.04-.16.21-.2.32-.26h-.03a.05.05 0 0 0 .01-.06v-.01a.1.1 0 0 0-.08-.04l-.08-.02-.02-.01a.52.52 0 0 1-.18-.11c-.19 0-.14.24-.28.32-.24.1-.54.32-.54.61-.09.02-.55.22-.7.18a.15.15 0 0 1-.03.04l-.38-.1c.21-.14-.12-.61.19-.76.15.05.11.2.1.33l.32-.26c.12 0 .07.15.14.23.2-.32.76-.47.97-.81 0-.05.02-.12-.05-.15a.51.51 0 0 1-.52.1c-.16-.45.45-.17.43-.56.08-.05.17-.08.2.05.01.12.02.24.16.22.3.05.3-.4.63-.32l.05-.05c-.02-.22-.45-.24-.24-.49.26.08.44.35.74.17.16.23-.07.6-.2.84a.47.47 0 0 0-.23.07.5.5 0 0 0-.17.2h.03l.1.05c.14 0 .2.12.33.19.02.37-.4.45-.64.59.07.17.2.3.35.39l.12-.2c.24-.29.61-.2.9-.31-.05-.42-.45.07-.52-.32 0-.08-.07-.17.05-.23.5.03.91-.25 1.39-.12l-.06-3.5c-.1-.01-.18-.03-.27-.06-.16.05-.38.22-.3.41-.01.07-.04.12-.08.17a.3.3 0 0 1-.14.1.38.38 0 0 0 .07.32c.12.03.23 0 .26-.15a.57.57 0 0 1 .4.04c-.04.13-.09.25-.23.27-.38-.06-.75-.1-1.13-.1a.42.42 0 0 1-.54.03c0-.07.16-.15.04-.24-.19-.1-.3.04-.35.22-.4.27-.12-.51-.5-.37-.02.15.07.4-.1.5-.25-.06-.51.07-.72-.13-.43-.05-.26.42-.54.54-.38 0-.85-.15-1.14.15-.16 0-.37.17-.5-.05.03-.5-.49-.2-.6-.54-.22-.25.07-.37.25-.42.1-.27-.21-.12-.28-.3 0-.09-.02-.21.1-.24a.6.6 0 0 1 .34.04c.11.05.2.13.27.23.33-.12.52.3.75.25.1-.05.26-.1.17-.25-.2-.14-.12-.41-.22-.59l.29-.48c.02-.05.07-.08.11-.03a.41.41 0 0 1 0 .49c.05.25.22 0 .33.05.15-.03.15.2.26.15.15.07.17-.13.15-.23.04-.12.16-.12.28-.12.16.34.59.17.82.15.07-.1.05-.25.2-.27.23.02.49-.12.7-.03.3-.12-.16-.36.12-.53.33-.03.1-.45.38-.57.28-.32-.22-.34-.31-.59-.1-.2.1-.31.19-.46l-.14-.05c-.24-.03-.3.2-.4.37-.1-.24-.24-.46-.4-.66-.39-.3-.83.03-1.23-.24-.26-.17.11-.3.07-.5.02-.19-.12-.24-.24-.34-.02-.04-.05-.14.02-.17.38.1.52.6.9.79.24-.15-.26-.27.02-.45.12 0 .24-.1.34 0 .04.07.04.2.09.3.16-.1.3.04.43.14.24 0 .57.14.75-.05l.03.02c.02.1.16.13.26.08 0-.1.04-.25.16-.25l.22.15c.17.02.35-.02.5-.12.07-.2-.2-.13-.26-.25-.33.12-.52-.2-.66-.46-.2-.27-.6-.15-.86-.15-.18-.34-.43.2-.6-.12.02-.2-.3-.35-.08-.54.27-.4.67-.02.96-.33-.3-.25-.67-.6-.8-.53-.06.37-.43.34-.6.59-.29.05-.48-.17-.7-.25a.25.25 0 0 1 .07-.27.23.23 0 0 1 .08-.05l.05-.85c.54-.03.05.68.43.9.05.04.14.02.2.02.15-.17-.15-.67.25-.61.28-.1.5.24.75.05.06.01.12.05.16.1.04.04.07.1.08.17.03.15.1.3.18.42.14-.02.39.27.55.11.07-.39-.38-.49-.45-.85.31-.52.33.39.73.14.22.05.2.27.2.45v.03-.03c.03-.24.31-.17.45-.14-.04-.08-.14-.25-.28-.28-.05-.24-.38-.24-.3-.53-.08-.47-.57-.05-.85-.23-.12-.17-.34-.32-.34-.59-.11.03-.23.27-.37.13-.07-.08.02-.15.04-.2-.3-.17.03.27-.18.37-.12.07-.2-.13-.29-.2a1.1 1.1 0 0 1 .05-.54.2.2 0 0 1 .17 0c.09-.3.43-.2.58-.34.03.02.08.02.05.07.38.05.17-.46.36-.68.33-.13.54-.52.96-.35.5.27-.16 1.18.57 1.2.07-.12 0-.27-.12-.36a1.32 1.32 0 0 1 .24-.98c.14-.15.28 0 .44 0 .03-.25-.35-.32-.28-.6 0-.08.03-.16.08-.23a.35.35 0 0 1 .2-.13c.29-.34.52.15.83.17.17.3-.19.4-.3.62.28-.13.28.2.47.29.06-.12.11-.42.35-.27.35 0 .38.42.38.71l.16-.22a.53.53 0 0 1 .5.12c.14.3.44.4.5.71.3.2-.22.45.02.71.33 0 .07-.49.44-.49.15.17.29.32.26.54 0 .14-.11.2-.21.24l.06.1-.06-.1c-.1.05-.16.1-.08.23h.17c0-.04 0-.07-.02-.1l.04.06.04.06.21.35-.06.07c-.04.17-.02.22 0 .25.03.02.06 0 .05-.02 0-.01-.02.04-.05.02a.49.49 0 0 0-.06.04c0 .07-.03.15-.04.23h.13l-.14.06c0 .11 0 .22.1.26l.14-.32c.04 0 .08-.02.11-.05a.22.22 0 0 0 .07-.1l.41.7c-.02.49.19 1.1-.23 1.5-.5.2-.2-.44-.33-.58.09-.11.2-.21.3-.3a.45.45 0 0 0-.3-.1c-.45.38-.05 1.1-.61 1.33a.06.06 0 0 0 0 .05c-.08.02-.2.08-.12.17h.22c.16.05.05.25.12.37l.28-.27.02-.12c.22.02.44.02.66 0 .1.06.2.14.25.24.06.1.09.23.08.35-.11.07-.23.3-.4.2-.18.31-.68-.03-.82.34-.45.12-.9.17-1.28-.15.24-.12.6-.05.78-.17l-.12-.12c-.18-.17-.56-.27-.56-.57.02-.1-.12-.07-.17-.1-.37.18-.7.45-1.17.37-.15.17-.48.23-.45.47h.33a1.32 1.32 0 0 1 1.2-.04c.17.45-.44.12-.63.3-.4.02-.1.36-.14.6-.17.27-.6.13-.76.35l.3.27c.41.3.24-.35.57-.25.17.07.1.25.17.32.19 0 .79-.3 1.1-.3 0-.05 0-.1-.03-.14a.22.22 0 0 0-.1-.1c-.07-.4.37-.22.56-.22.12.14-.14.2 0 .34.2.05.2.34.4.27.15-.05.17-.34.36-.25.21.25.61-.02.85.35v.2c-.24.12-.62-.06-.8.16-.22.05-.38-.24-.62-.07-.23.08-.47.08-.7.01-.6.25-1.57.38-2 .6.07.15.26.18.37.3.36.05.6-.45.9-.12.33-.56.47.4.82.07.22.08.05.35.17.5.14.04.16-.1.3-.18.2-.34.24-.8.6-1.03a.39.39 0 0 1 .11.34c.05.32-.35.35-.3.6.26.14.3-.25.43-.4.28-.2.26.23.38.32.35.12.33.49.54.73l.12-.17c.09.03.16-.17.23-.05-.1.25.36.37.1.6-.27.21-.6.46-.87.14-.28.12-.78.02-.78.46.22.15.48.05.69 0 .28 0 .1.42.37.32.17.08.1.3.08.45h.1c.01-.17-.08-.4.09-.49.2.07.38.18.54.32-.22.15-.38.49-.66.46-.29.25-.69-.04-.9-.2-.17 0-.14.2-.28.28-.12-.1-.33-.15-.36-.34.2-.27-.3-.52.08-.76-.03-.15.14-.32.02-.42a.45.45 0 0 0-.26.22c-.26-.02-.47-.02-.62.25-.35.17-1.03-.25-1.03.37.19.07.37-.27.52-.08.14.32-.15.54-.31.74.16.27-.28.61.02.86.12.31-.28.24-.4.41-.02.1.03.15.03.2.11.15.21-.05.33-.03.21.03.18.27.23.4.24-.05.28.22.47.17v-.03c.03-.15-.14-.3-.25-.34-.1-.15-.05-.4.11-.42.22.03.07.32.26.37.22-.05.12-.3.3-.37a.9.9 0 0 1 .44.57c.14.02.17-.08.23-.15.07-.07.1 0 .15.02.14.54.38-.12.59-.02.37.12.26.54.28.86-.12.24-.5.2-.54.45a.18.18 0 0 0 .03.18l.09.05.1-.01c.02-.1-.03-.27.11-.27.26.59.92-.02 1.23.51a.3.3 0 0 1 .06.24.3.3 0 0 1-.13.21c-.3-.12-.29.25-.54.2a.5.5 0 0 1-.27-.04.52.52 0 0 1-.2-.16c-.24-.12-.44-.46-.71-.27-.45-.12-.29-.6-.62-.85-.19-.03-.37-.35-.59-.2l.07.07a.38.38 0 0 1-.09.45.68.68 0 0 1-.61-.27.9.9 0 0 0 .02-.78c-.07.15.1.37-.05.49-.14.12-.3-.05-.43-.1-.28.25-.68.02-.97-.1a.32.32 0 0 1-.15.16.3.3 0 0 1-.22.01l-.03.06.03 1.83.04.02a.4.4 0 0 0-.04.07l-.07 4.66c.14.75.12 1.52.18 2.26H46L28 10 10 39.96h17l.07-2.92Zm4.35-15.06c.17.16.28-.05.41-.1-.14.05-.25.26-.41.1Z" fill="#018644"/></svg>