<!-- by TradingView --><svg width="56" height="56" viewBox="0 0 56 56" xmlns="http://www.w3.org/2000/svg"><path fill="#F0F3FA" d="M0 0h56v56H0z"/><path fill-rule="evenodd" d="m32 23.04 1.25 1.72c.52-.44 2.52-.76 4.37-.76S40 25.02 40 27h-3.9c-1.66.09-5.1.57-5.1 3.42 0 3.56 3.16 4.58 5.12 4.58A4.68 4.68 0 0 0 40 33.05V35h3v-9.42c-.05-1.53-1.2-4.58-5.39-4.58-2.38 0-4.74 1.36-5.61 2.04ZM40 29h-3.86c-.71.1-2.14.62-2.14 1.88 0 1.58 1.53 2.12 2.73 2.12S40 31.96 40 30.58V29Z" fill="#FA531A"/><path fill-rule="evenodd" d="M45 22.71A17.4 17.4 0 0 0 28.43 11C18.8 11 11 18.61 11 28s7.8 17 17.43 17a17.5 17.5 0 0 0 15.1-8.5h-3.26a10 10 0 1 1 .53-16.64 7.34 7.34 0 0 1 3.9 3.92c.18-.33.27-.77.3-1.07ZM29 14c-4.93 0-14 4.6-14 14s9.07 14 14 14c-10-1.92-12.93-10.13-13-14 .07-3.87 3-12.08 13-14Zm-8 14.5c0-7.71 5.83-11.5 9-11.5-6.43 1.58-7.96 8.32-8 11.5.04 3.18 1.57 9.92 8 11.5-3.17 0-9-3.79-9-11.5Z" fill="#980087"/></svg>