<!-- by TradingView --><svg width="56" height="56" xmlns="http://www.w3.org/2000/svg"><path fill="#0093C9" d="M0 0h56v56H0z"/><path d="M16.022 13.02c-.46.505-1.105 1.196-1.795 1.932 1.012 2.3 3.82 5.568 6.58 7.639.783-.645 1.335-1.289 1.98-1.933-2.025-1.61-5.063-4.188-6.673-7.593.046-.046-.046-.092-.092-.046z" fill="#fff"/><path d="M13.445 15.826c-.46.506-.92 1.012-1.335 1.427-.092.092-.138.23-.092.322.368 2.439 2.669 5.706 5.568 7.777 1.473-.783 1.933-1.381 2.347-1.933-2.531-2.07-5.43-5.338-6.488-7.593.046 0 0 0 0 0z" fill="#949598"/><path d="M36.591 28.067c-8.651 5.844-8.79 14.127-7.685 18.867v.046c0 .046.046 0 .046 0 .092-.599.138-2.715.967-5.292 1.104-3.452 4.003-7.87 9.065-11.689-.92-.69-1.84-1.426-2.393-1.932zM19.979 23.419c-.782.644-1.565 1.38-2.393 1.979 5.062 3.773 7.04 7.546 7.96 11.044.461 1.84.6 3.773.645 5.384 1.197-5.108 2.715-11.919-6.212-18.407z" fill="#54565A"/><path d="M33.738 25.352c-.966.782-2.53 2.07-3.313 2.99a10.975 10.975 0 00-1.887 3.452c0 .046-.046 0-.046 0-.092-3.912-1.288-6.58-2.99-8.605-.783-.967-1.703-1.749-2.67-2.531a78.993 78.993 0 01-1.979 1.932c4.786 3.59 7.547 7.225 7.317 13.484v.92c1.059-3.727 3.451-6.857 7.547-9.756-.736-.644-1.334-1.242-1.979-1.886z" fill="#66BEDF"/><path d="M40.273 18.449l-.322-.322c-.047-.046-.184-.046-.184.046-1.52 3.451-4.004 5.568-6.029 7.179.645.69 1.15 1.334 1.979 1.932 2.9-2.024 5.154-4.831 6.12-7.178-.598-.645-1.15-1.197-1.564-1.657z" fill="#fff"/><path d="M42.619 20.98c-.966 2.3-3.313 5.108-6.028 7.087.598.598.828.92 2.393 1.932 2.99-2.116 4.831-4.923 5.062-7.362 0-.092-.047-.184-.093-.277-.414-.368-.874-.874-1.334-1.38z" fill="#949598"/></svg>