<!-- by TradingView --><svg xmlns="http://www.w3.org/2000/svg" width="56" height="56" viewBox="0 0 56 56"><path fill="url(#a3tyq1eg0)" d="M0 0h56v56H0z"/><path d="M5.39 20v1.67c.38-1.03 1.45-1.13 1.94-1.05v5.52c-.03.45-.43.76-.63.86h3.26a.97.97 0 0 1-.69-.86v-5.52h.83c.54 0 .68.34.68.52v5a.93.93 0 0 1-.53.86h2.82c-.41-.2-.53-.65-.54-.86v-2.63c0-.15.16-.62.8-.63.5 0 .66.45.67.68v2.58a.95.95 0 0 1-.49.86h2.87a1.08 1.08 0 0 1-.63-.86v-2.73c-.01-.54-.37-1.41-1.49-1.41-.89 0-1.52.56-1.73.83V20H5.39Z" fill="#fff"/><path d="M20.92 25.17a2.5 2.5 0 1 1 .07-1.01h-3.25c-.03.65.22 1.91 1.58 1.96.38 0 .97-.13 1.6-.95Zm-2.43-2.75c-.59 0-.75.9-.75 1.31h1.56c-.02-.46-.2-1.3-.8-1.3ZM27.88 33.17a2.5 2.5 0 1 1 .07-1.01h-3.26c-.03.65.22 1.91 1.58 1.96.39 0 .98-.13 1.6-.95Zm-2.43-2.75c-.59 0-.75.9-.76 1.31h1.57c-.02-.46-.2-1.3-.8-1.3ZM41.74 31.1v3.2c-.03.15-.16.5-.42.7h2.76a1.37 1.37 0 0 1-.55-.93v-2.4c0-.26.2-.78.8-.78.49 0 .65.52.67.77v2.41c-.02.48-.35.82-.51.93h2.9a1.38 1.38 0 0 1-.62-.93V31.8c-.06-.85-.37-1.78-1.5-1.79-.91-.01-1.54.59-1.74.89v-.8c-.72.07-2.16.23-2.21.18.25.21.38.64.42.83Z" fill="#fff"/><path fill-rule="evenodd" d="M5 35c.19-.08.6-.39.76-.9.15-.52 1.4-4.28 2-6.1h1.46l2.13 6.32c.15.24.5.57.65 0V31.1c-.03-.19-.16-.6-.41-.82.05.05 1.5-.1 2.21-.18v.79c.2-.3.83-.9 1.73-.89 1.14.01 1.41.94 1.47 1.77v2.32c.03.2.22.65.65.91h-2.9c.17-.1.5-.43.52-.9v-2.45c-.02-.26-.18-.76-.67-.76-.6 0-.8.5-.8.76v2.44c.02.2.16.65.55.91h-5.7c.27-.1.76-.42.58-.9l-.51-1.47h-1.9l-.44 1.28c-.12.35-.04.83.52 1.1H5Zm2.06-3 .67-2.11.76 2.11H7.06Z" fill="#fff"/><path fill-rule="evenodd" d="M20.27 27.29 22.8 27v7.13c0 .17.1.58.55.87h-3.82c-.7 0-2.15-.52-2.22-2.55 0-1.04.61-2.54 2.45-2.45.25.01.85.12 1.25.35v-2.43c0-.17-.13-.54-.73-.63ZM21 31.1v2.96c0 .3-.16.8-.89.45-.73-.36-1-1.3-1-2.2 0-.74.08-1.8 1-1.86.24-.01.74.1.89.65Z" fill="#fff"/><path d="m29.89 30.04-2.18.26c.3.2.4.65.42.85v3.01c0 .46-.28.75-.42.84h2.74c-.45-.33-.56-.7-.56-.84v-2.2c.5-1.1 1.37-.46 1.74 0l.34-1.66c-.99-.82-1.8.23-2.08.85v-1.11ZM34.48 30.15c.48.2.78 0 .87-.12v1.51c-.98-1.55-2-1.12-2.05-.7-.05.42.33.65 1.29 1.01.88.33.97 1.16.98 1.56-.02 1.7-1.63 1.7-2.43 1.5-.54-.23-1-.1-1.14 0v-1.9a4.1 4.1 0 0 0 1.14 1.48c.65.42 1.06-.15 1.06-.44 0-.28-.1-.74-1.06-1.05a1.74 1.74 0 0 1-1.24-1.5c.09-1.72 1.97-1.6 2.58-1.35ZM49.74 30.15c.49.2.78 0 .87-.12v1.51c-.98-1.55-2-1.12-2.05-.7-.05.42.34.65 1.3 1.01.87.33.96 1.16.97 1.56-.02 1.7-1.63 1.7-2.43 1.5-.53-.23-.95 0-1.09.09v-2c.38.82.88 1.33 1.1 1.49.65.42 1.06-.15 1.06-.44 0-.28-.12-.74-1.07-1.05a1.74 1.74 0 0 1-1.24-1.5c.09-1.72 1.97-1.6 2.58-1.35Z" fill="#fff"/><path fill-rule="evenodd" d="M38.61 35c1.62 0 2.94-1.15 2.94-2.56 0-1.41-1.32-2.56-2.94-2.56-1.62 0-2.93 1.15-2.93 2.56 0 1.41 1.31 2.56 2.93 2.56Zm0-.47c.6 0 1.08-.94 1.08-2.09 0-1.14-.48-2.08-1.08-2.08-.6 0-1.07.94-1.07 2.08 0 1.15.48 2.09 1.07 2.09Z" fill="#fff"/><path d="M24.02 22.09c-.91 1-1.7 1.7-1.97 1.9h2.81c1.55 0 1.98-.3 2.38-.6v-.01l2.95-2.7c-.75.5-1.5.44-2.58.35-1.08-.09-2.46-.2-3.6 1.05Zm0 4.32c-.91-1-1.7-1.7-1.97-1.9h2.81c1.55 0 1.98.3 2.38.6l2.95 2.7c-.75-.5-1.5-.43-2.58-.34-1.08.09-2.46.2-3.6-1.06ZM27.43 24c.28-.22 1.06-.9 1.97-1.91 1.13-1.26 2.5-1.15 3.58-1.06H33c1.08.1 1.84.15 2.58-.34l-2.94 2.7c-.41.3-.84.61-2.39.61h-2.8Zm1.97 2.41c-.9-1.01-1.69-1.7-1.97-1.91h2.81c1.55 0 1.98.31 2.38.61l2.95 2.7c-.74-.5-1.5-.44-2.58-.35-1.08.1-2.46.21-3.6-1.05ZM32.65 24c.27-.22 1.05-.9 1.96-1.91 1.13-1.26 2.5-1.15 3.58-1.06h.01c1.08.1 1.84.15 2.58-.34l-2.94 2.7c-.4.3-.84.61-2.39.61h-2.8Zm1.96 2.41c-.9-1.01-1.69-1.7-1.96-1.91h2.8c1.55 0 1.98.31 2.39.61l2.94 2.7c-.74-.5-1.5-.44-2.58-.35-1.08.1-2.46.21-3.59-1.05ZM37.95 24c.28-.22 1.06-.9 1.97-1.91 1.13-1.27 2.5-1.15 3.58-1.06h.01c1.08.1 1.83.15 2.58-.35l-2.94 2.7c-.41.3-.84.62-2.39.62h-2.8Zm1.97 2.41c-.91-1-1.7-1.7-1.97-1.9h2.81c1.55 0 1.98.3 2.38.6l2.95 2.7c-.75-.5-1.5-.43-2.58-.34h-.01c-1.07.09-2.45.2-3.58-1.06ZM51 24.24a6.19 6.19 0 0 1-2.81-1.33 3.3 3.3 0 0 0-4.29.22c-.63.6-1.23.99-1.46 1.1l.2.17c.34.28.87.72 1.26.98l.11.07c.8.53 2.25 1.5 4.18.18 1.48-1.03 2.2-1.22 2.59-1.32l.22-.07Z" fill="#F9B800"/><defs><linearGradient id="a3tyq1eg0" x1="10.42" y1="9.71" x2="68.15" y2="76.02" gradientUnits="userSpaceOnUse"><stop stop-color="#1A1E21"/><stop offset="1" stop-color="#06060A"/></linearGradient></defs></svg>