<!-- by TradingView --><svg width="56" height="56" viewBox="0 0 56 56" xmlns="http://www.w3.org/2000/svg"><path fill="#F0F3FA" d="M0 0h56v56H0z"/><path d="M19.46 13H36.5L45 28l-8.49 15H19.5L11 28.02 19.46 13Zm8.52 5.21a148.84 148.84 0 0 0-4.05 7.26c1.2 2.02 1.6 4.27 1.66 6.68 1.67.1 3.18.2 4.73-.08.2-2.39.6-4.6 1.73-6.65l-4.07-7.21Zm6.28 23.29a17.64 17.64 0 0 1-2.59-3.72c-.64-1.35-.86-2.85-1.3-4.27-1.7.08-3.26.19-4.86-.12a15.14 15.14 0 0 1-1.2 4.46c-.55 1.39-1.63 2.3-2.47 3.65h12.42ZM21 21.6l2.17 2.4 4.76-8.38c1.76 2.87 3.16 5.69 4.85 8.38.92-.81 1.4-1.78 2.25-2.4l-4.12-7.1H25.1c-1.37 2.4-2.7 4.65-4.1 7.1Zm-.91 19.9c2.38-2.45 3.95-5.04 4.1-8.38-1.23-.72-2.46-1.19-3.7-2.09a8.1 8.1 0 0 1-2.31 7.1l1.9 3.36Zm17.68-3.36c-1.88-1.91-2.56-4.22-2.52-6.96-1.2.87-2.31 1.36-3.52 1.88a12.3 12.3 0 0 0 4.23 8.31c.63-1.12 1.2-2.12 1.81-3.23ZM20.17 14.5c-.82 1.48-1.51 2.8-2.4 4.13-1.37 2.02-.65 3.98-.12 6.32 2.05-3.69 4.03-6.9 5.95-10.45h-3.42Zm12.3 0c1.92 3.4 3.77 6.68 5.8 10.06.64-1.82.7-2.62.5-4.95-1.02-1.77-2.04-3.38-3.03-5.11h-3.26Zm3.23 8.25a12.32 12.32 0 0 0-3.97 8.8c2.45-.69 5.47-3.54 5.82-5.5l-1.85-3.3Zm-11.36 8.9c-.25-3.52-1.43-6.42-4.04-8.8-.38.68-.67 1.24-1 1.77-.36.59-.73 1.16-.93 1.8a10.72 10.72 0 0 0 5.97 5.23Zm14.16-3.93c-2.76 2.83-2.22 7.45.05 9.1l2.54-4.57-2.6-4.53Zm-23.52 4.46c.51 1.47 2.03 3.99 2.67 4.5 2.47-1.98 1.94-7.81-.3-8.69l-2.37 4.2Zm25.3-9.82c-.47 1.34-.5 2.67-1.18 3.8l2.75 4.78L43.5 28l-3.22-5.65Zm-24.54 0c-1.32 2-2.26 3.83-3.24 5.62a14.4 14.4 0 0 0 1.7 2.91c.98-1.6 1.9-3.07 2.6-4.65-.5-1.24-.85-2.55-1.06-3.88Z" fill="url(#asfby0bk0)"/><defs><linearGradient id="asfby0bk0" x1="17.13" y1="37.86" x2="38.37" y2="19.5" gradientUnits="userSpaceOnUse"><stop stop-color="#4FEB92"/><stop offset=".18" stop-color="#4DE696"/><stop offset=".39" stop-color="#45D8A2"/><stop offset=".62" stop-color="#3AC1B7"/><stop offset=".85" stop-color="#29A1D3"/><stop offset="1" stop-color="#1D89E8"/></linearGradient></defs></svg>