<!-- by TradingView --><svg width="56" height="56" viewBox="0 0 56 56" xmlns="http://www.w3.org/2000/svg"><path fill="#181B1E" d="M0 0h56v56H0z"/><path d="M27.97 12c8.69 0 15.76 6.91 16.03 15.54V43l-2-.5V27.54A14.01 14.01 0 0 0 28 14c-7.83 0-14 6.23-14 14s6.2 14 14.03 14c1.66 0 3.16-.14 4.66-.68l3.22.7A15.75 15.75 0 0 1 28 44c-8.84 0-16-7.16-16-16s7.08-16 15.97-16Z" fill="#E0FF01"/><path d="M28 15c7.13 0 13.1 5.52 13 12.54V42l-2-.5V27.54c-.27-6-4.89-10.54-11-10.54-6.22 0-11 4.73-11 11s4.73 11 11 11c1.5 0 2.71-.46 4-1v2.04c-1.34.48-2.5.96-4 .96-7.29 0-13-5.66-13-13s5.76-13 13-13Z" fill="#01FE1E"/><path d="M28 18c5.52 0 9.84 4.03 10 9.5V41l-2-.5V27.65A7.74 7.74 0 0 0 28 20c-4.61 0-8 3.39-8 8 0 4.61 3.39 8 8 8 1.55 0 2.77-.25 4-1v2.09A9.87 9.87 0 0 1 18 28c0-5.63 4.32-10 10-10Z" fill="#01D3E6"/><path d="M28 21c3.91 0 6.79 2.64 7 6.5V40l-2-.5v-12c-.21-2.84-2.1-4.5-5-4.5-3.06 0-5 1.94-5 5s1.94 5 5 5c1.72 0 2.98-.27 4-1.5V34c-1.23.86-2.4 1-4 1-4.07 0-7-2.93-7-7s2.93-7 7-7Z" fill="#FF00F8"/></svg>