<!-- by TradingView --><svg width="56" height="56" xmlns="http://www.w3.org/2000/svg"><path fill="#1C4C67" d="M0 0h56v56H0z"/><path d="M15.257 25.99L14.44 24h-4.424l-.758 1.99H8.14l3.638-8.979h.986l3.64 8.98h-1.146zm-3.015-7.711l-1.835 4.718h3.69l-1.855-4.718zM27.198 26L22 18.465V26h-1v-9h1.05L27 24.145V17h1v9h-.802zM40.218 25.991l-.12-1.125s-.613 1.259-2.715 1.259c-2.48 0-4.207-1.797-4.207-4.624 0-2.828 1.952-4.617 4.357-4.617 2.404 0 3.38 1.684 3.38 1.684l-.676.495s-.68-1.416-2.718-1.416-3.41 1.583-3.41 3.846 1.307 3.847 3.353 3.847c2.045 0 2.537-1.33 2.537-1.33V23h-2v-.996h3v3.99l-.781-.003zM47 26v-9h1v9h-1zM14 38v-4h-4v4H8V28h2v4h4v-4h2v10h-2zM22.636 38.15c-2.93 0-4.775-2.018-4.775-5.152 0-3.134 1.848-5.136 4.78-5.136 2.93 0 4.759 2.01 4.759 5.136 0 3.126-1.833 5.153-4.764 5.153zm0-8.247c-1.548 0-2.63 1.32-2.63 3.064 0 1.745 1.074 3.23 2.63 3.23 1.556 0 2.547-1.47 2.547-3.232 0-1.76-.998-3.062-2.547-3.062zM37 38v-6.75L35.154 38h-2.135L31 31.25V38h-2V28h3.132l2.016 7.04 2.03-7.04H39v10h-2zM41 37.985v-9.97h7V30h-5v2h4v2h-4v2h5v1.985h-7z" fill="#fff"/></svg>