<!-- by TradingView --><svg width="56" height="56" viewBox="0 0 56 56" xmlns="http://www.w3.org/2000/svg"><path d="M0 28a28 28 0 1 1 56 0 28 28 0 0 1-56 0Z" fill="#F0F3FA"/><path d="M13.11 31c2.12 4.62 5.33 8.96 7.32 8.99 2.54 0 8.62-4.62 11.7-9H27.5c-2.07 2.01-4.87 4-6.2 4-1.04 0-2.63-1.83-3.87-4h-4.32Z" fill="#002596"/><path fill-rule="evenodd" d="M25.9 11.07c.29-.05.6-.07.92-.07 6.72.01 20.23 10.09 20.18 16.5C46.95 33.4 30.49 45 25.9 45c-5.4-.01-5.96-16.81-5.9-21 .1-7.5 1.57-12.2 5.9-12.93ZM28.25 18c3.35.04 12.83 6.24 12.75 10-.07 3.23-10.03 10-13 9.99-1.48 0-3.09-5.07-3-10 .03-1.83.1-10.03 3.25-10Z" fill="#DF0037"/><path d="M33.12 24.5c-4.25-3.7-11.8-4.5-16.49-4.5h-.32c-2.58-.01-5.31-.02-5.31 3.3 0 2.11.86 4.95 2.11 7.7h4.32c-1.05-1.86-1.85-3.95-1.8-5.36.04-1.67 1.42-1.66 2.72-1.65h.07c1.99.02 11.47.42 11.58 3.43.03.75-1.06 2.16-2.5 3.57h4.64c1.14-1.61 1.87-3.2 1.86-4.5 0-.78-.27-1.46-.88-1.99Z" fill="#002596"/></svg>