<!-- by TradingView --><svg width="56" height="56" viewBox="0 0 56 56" xmlns="http://www.w3.org/2000/svg"><path fill="#F0F3FA" d="M0 0h56v56H0z"/><path d="M23.89 23.3s7.17-7.21 11.46-9.45a16.4 16.4 0 0 0-19.33 3.12 15.96 15.96 0 0 0-3.6 5.86c-.47 1.7-1.46 6.74 3.25 6.74 2.49 0 6.32-4.08 8.22-6.26Zm3.22 17.23s-4.4 3.18-3.11-2.56c.8-3.59 2.1-6.84 3.16-9.47.63-1.6 1.18-2.96 1.47-4.04 0 0 3.35-7.9-2.97-1.7 0 0-6.18 6.83-10.47 11.52-1.52 1.66-.14 3.68.84 4.75a16.42 16.42 0 0 0 19.35 3.1 16.1 16.1 0 0 0 7.11-7.4 15.8 15.8 0 0 0 1.14-10.13c-4.5 4.85-11.8 12.43-16.52 15.93Zm-6.93-9.07a2.1 2.1 0 0 1 1.32-1.96 2.17 2.17 0 0 1 2.33.46 2.1 2.1 0 0 1-1.5 3.6 2.17 2.17 0 0 1-1.99-1.3c-.1-.25-.16-.53-.16-.8Zm22.35-6.86c-2.57 1.94-5.31 3.73-6.26 3.6-2.43-.33.04-6.44.13-6.68a25.33 25.33 0 0 0 1.87-5.72 16.05 16.05 0 0 1 4.45 5.96c.35.76.9 1.94-.2 2.84Z" fill="#19559B"/></svg>