<!-- by TradingView --><svg xmlns="http://www.w3.org/2000/svg" width="56" height="56" viewBox="0 0 56 56"><path fill="#F0F3FA" d="M0 0h56v56H0z"/><path fill-rule="evenodd" d="M8.85 26.74v-2.5A25.63 25.63 0 0 1 16.04 23c3.54 0 7 .74 6.02 4l-1.72 3.55c-.14.44-.01 1.44.48 2.03h.94c.26.08 1.05-.24 2.09-2.11a61.25 61.25 0 0 0 2.39-4.86c.09-.64-.16-1.94-1.87-1.94h1.07c1.81.02 4.4.05 5.42-.3h.06l-.14 1.12c.27-.5 1.88-1.49 6.14-1.49 4.27 0 3.9 2.52 3.19 3.77l-2.13 4.15c-.19.55-.27 1.66.86 1.66h.74v.09c.4-.03 1.12-.28 1.57-1.11.5-.91 2.41-4.97 3.3-6.88.07-.39-.09-1.13-1.12-1.23l.4.02c1.53.08 3.94.21 5.28-.22l-2.9 6.62c-.35.9-.69 2.67.76 2.67V33H30.75c1-.03 2.97-.64 3.85-2.97.92-2.43 1.4-3.77 1.52-4.14.1-.7-.2-2.09-2.17-2.09-1.96 0-3.75 2.13-4.4 3.19-1 1.67-2.52 5.14-.62 5.59V33H15.24l-.1-1.34c-.4.45-2 1.34-5.06 1.34C6.25 33 5 32.32 5 30.83c0-1.49 3.87-4.34 12.47-4.09.23-.29.7-1 .74-1.55.05-.68-.75-1.64-2.74-1.64-.98 0-4.68 1.62-5.86 3.2h-.76zM30.62 33h.13-.13zm12.46-9.57zM10.24 30.4c.53-1.08 2.27-2.84 6.58-2.84-.86 2.58-2.89 4.7-5.44 4.7-.86 0-1.7-1-1.14-1.86z" fill="#0A3F4F"/><path fill-rule="evenodd" d="M9.6 26.74v-2.5c1.2-.42 4.3-1.24 7.1-1.24 3.49 0 6.91.74 5.94 4l-1.7 3.55a2.6 2.6 0 0 0 .47 2.03h1.15c.26.08 1.05-.24 2.1-2.11a61.25 61.25 0 0 0 2.38-4.86c.09-.64-.16-1.94-1.87-1.94 1.66 0 5.3-.12 6.56-.55h.06l-.2 1.37c.27-.5 1.88-1.49 6.14-1.49s3.9 2.52 3.18 3.77l-2.13 4.15c-.18.55-.27 1.66.86 1.66h1.15c.38-.14.84-.43 1.16-1.02.5-.91 2.41-4.97 3.31-6.88.06-.4-.1-1.15-1.17-1.24 1.49.06 4.43.03 5.91-.44l-3.08 6.87c-.35.9-.7 2.67.76 2.67V33H31.55c1-.03 2.97-.64 3.85-2.97.92-2.43 1.4-3.77 1.53-4.14.09-.7-.21-2.09-2.17-2.09S31 25.93 30.36 27c-1 1.67-2.53 5.14-.63 5.59V33H15.9l-.09-1.34c-.4.45-1.97 1.34-5 1.34-3.77 0-5-.68-5-2.17 0-1.49 3.9-4.43 12.38-4.18.23-.29.61-.91.65-1.46.04-.68-1.06-1.62-3.03-1.62-1.96 0-4.84 1.8-6.2 3.17zM31.43 33h.12-.12zm12.45-9.57zM10.97 30.4c.53-1.08 2.24-2.84 6.5-2.84-.85 2.58-2.85 4.7-5.37 4.7-.85 0-1.67-1-1.13-1.86z" fill="#429BB9"/><ellipse rx="1.72" ry="2.3" transform="matrix(.38212 .92411 -.9219 .3874 48.23 20.48)" fill="#EDCD18"/><path d="M47.51 18.93c-.04 2.06 1.09 2.83 1.65 2.95-.84.47-2.76 1.13-3.72 0-.96-1.13.98-2.43 2.07-2.95z" fill="#72030A"/></svg>