<!-- by TradingView --><svg width="56" height="56" viewBox="0 0 56 56" xmlns="http://www.w3.org/2000/svg"><path d="M0 28a28 28 0 1 1 56 0 28 28 0 0 1-56 0Z" fill="#F0F3FA"/><path d="M8.5 23h3L6 33l-2-2 4.5-8Z" fill="url(#aljf4yajg)"/><path d="m16 33-4.5-10-1.67 3L13 33h3Z" fill="url(#bljf4yajg)"/><path d="m10 31 1 2H6l1-2h3Z" fill="url(#cljf4yajg)"/><path d="M33.25 22h1.5c.13 0 .25.07.25.16v1.68c0 .09-.12.16-.25.16h-1.5c-.13 0-.25-.07-.25-.16v-1.68c0-.09.12-.16.25-.16Z" fill="url(#dljf4yajg)"/><path d="M33.25 25h1.5c.13 0 .25.12.25.26v6.48c0 .14-.12.26-.25.26h-1.5a.26.26 0 0 1-.25-.26v-6.48c0-.14.12-.26.25-.26Z" fill="url(#eljf4yajg)"/><path d="M43.85 25h-1.64a.65.65 0 0 0-.46.26l-1.25 1.72v3.04l1.25 1.72c.1.14.3.26.46.26h1.64c.15 0 .2-.12.1-.26L41.6 28.5l2.34-3.24c.1-.14.06-.26-.09-.26ZM26.72 25h-1.44a.28.28 0 0 0-.28.26v6.48c0 .14.13.26.28.26h1.44c.15 0 .28-.12.28-.26v-4.73c.29-.18.73-.38 1.25-.38.75 0 .75.84.75.84v4.25c0 .28.23.28.23.28h1.51c.27 0 .26-.2.26-.2v-4.6c0-1.31-.77-2.2-2.17-2.2-.82 0-1.45.27-1.83.5v-.24c0-.14-.13-.26-.28-.26ZM23 27.33v4.38c0 .29-.27.29-.27.29h-1.5c-.21 0-.23-.23-.23-.23v-.32s-.63.55-1.73.55c-1.86 0-2.27-.77-2.27-2.45 0-1.68 2.93-1.55 2.93-1.55H21v-.66c0-.57-.54-.73-1.07-.73l-1.37.04-.82.04c-.24 0-.24-.23-.24-.23v-.96c0-.16.16-.23.16-.23s1-.27 2.34-.27c2.99 0 3 2.33 3 2.33Zm-2 2.93V29h-1.06c-.94 0-.94.75-.94 1.03v.02c0 .26.18.49.82.49.64 0 1.18-.28 1.18-.28ZM51 27.33v4.38c0 .29-.27.29-.27.29h-1.5c-.21 0-.23-.23-.23-.23v-.32s-.63.55-1.73.55c-1.86 0-2.27-.77-2.27-2.45 0-1.68 2.93-1.55 2.93-1.55H49v-.66c0-.57-.54-.73-1.07-.73l-1.37.04-.82.04c-.24 0-.24-.23-.24-.23v-.96c0-.16.16-.23.16-.23s1-.27 2.34-.27c2.99 0 3 2.33 3 2.33Zm-2 2.93V29h-1.06c-.94 0-.94.75-.94 1.03v.02c0 .26.18.49.82.49.64 0 1.18-.28 1.18-.28Z" fill="#181B1E"/><path d="M38.79 25c.16 0 .36.12.46.26l2.35 3.24h-2.2l-2.34-3.24c-.1-.14-.06-.26.09-.26h1.64Z" fill="url(#fljf4yajg)"/><path d="m39.4 28.5-2.34 3.24c-.1.14-.06.26.09.26h1.64c.16 0 .36-.12.46-.26a689.46 689.46 0 0 0 2.35-3.24h-2.2Z" fill="url(#gljf4yajg)"/><defs><linearGradient id="aljf4yajg" x1="10.77" y1="21.58" x2="3.26" y2="33" gradientUnits="userSpaceOnUse"><stop offset=".06" stop-color="#172C5F"/><stop offset=".86" stop-color="#265495"/></linearGradient><linearGradient id="bljf4yajg" x1="10.85" y1="23" x2="14.02" y2="33.99" gradientUnits="userSpaceOnUse"><stop offset=".18" stop-color="#265495"/><stop offset=".68" stop-color="#172C5F"/></linearGradient><linearGradient id="cljf4yajg" x1="6.42" y1="33.63" x2="11.16" y2="33.65" gradientUnits="userSpaceOnUse"><stop offset=".3" stop-color="#172C5F"/><stop offset=".69" stop-color="#265495"/></linearGradient><linearGradient id="dljf4yajg" x1="34" y1="22" x2="34" y2="24"><stop offset="1" stop-color="#181B1E"/></linearGradient><linearGradient id="eljf4yajg" x1="34" y1="25" x2="34" y2="32"><stop offset="1" stop-color="#181B1E"/></linearGradient><linearGradient id="fljf4yajg" x1="37" y1="25" x2="41.5" y2="28.5" gradientUnits="userSpaceOnUse"><stop stop-color="#182C61"/><stop offset="1" stop-color="#234E8D"/></linearGradient><linearGradient id="gljf4yajg" x1="41.5" y1="28.5" x2="37" y2="32" gradientUnits="userSpaceOnUse"><stop stop-color="#20417C"/><stop offset="1" stop-color="#182C60"/></linearGradient></defs></svg>