<!-- by TradingView --><svg width="56" height="56" viewBox="0 0 56 56" xmlns="http://www.w3.org/2000/svg"><path fill="#F0F3FA" d="M0 0h56v56H0z"/><path d="M42.5 25.94a14.72 14.72 0 0 0-2.57-5.38c-1.86-2.29-4.99-5.37-4.99-8.53a8.02 8.02 0 0 0-2.88 9.77 7.97 7.97 0 0 0 1.74 2.55l.15.2A8.04 8.04 0 0 1 28 37.8a8.04 8.04 0 0 1-5.96-13.24c.1-.13.66-.68.78-.82a8.04 8.04 0 0 0-1.6-11.7l-.05-.03c-.08.25-1.26 3.72-4.68 8.02a15.67 15.67 0 0 0-2.98 5.88 15.33 15.33 0 0 0 1.17 10.92 15.04 15.04 0 0 0 8.16 7.26 14.81 14.81 0 0 0 10.85-.22 15.06 15.06 0 0 0 7.85-7.59 15.18 15.18 0 0 0 .97-10.33Z" fill="#00DDC8"/></svg>