<!-- by TradingView --><svg width="56" height="56" viewBox="0 0 56 56" xmlns="http://www.w3.org/2000/svg"><path fill="#F0F3FA" d="M0 0h56v56H0z"/><path d="M7.67 25.21 5.51 32H4l2.71-7.67a.5.5 0 0 1 .47-.33h.62l-.13 1.21ZM9.48 32l-2.17-6.79L7.18 24h.62c.21 0 .4.13.47.33L11 32H9.48Zm-.1-2.97V30H5.32v-.97h4.06ZM18 24v7.5a.5.5 0 0 1-.5.5h-.71a.5.5 0 0 1-.44-.26l-2.85-5.29V32H12v-7.5c0-.28.22-.5.5-.5h.7c.19 0 .35.1.44.26l2.86 5.3V24H18ZM25 24v7.5a.5.5 0 0 1-.5.5h-.71a.5.5 0 0 1-.44-.26l-2.85-5.29V32H19v-7.5c0-.28.22-.5.5-.5h.7c.19 0 .35.1.44.26l2.86 5.3V24H25ZM52 24v7.5a.5.5 0 0 1-.5.5h-.71a.5.5 0 0 1-.44-.26l-2.85-5.29V32H46v-7.5c0-.28.22-.5.5-.5h.7c.19 0 .35.1.44.26l2.86 5.3V24H52ZM31 31v1h-4.01v-1H31Zm-3.5-7v8h-1a.5.5 0 0 1-.5-.5v-7c0-.28.22-.5.5-.5h1Zm3.5 3.5v1h-4l-.01-1H31Zm0-3.5v1h-4.01v-1H31ZM33.59 24 35 26.85 36.42 24h1.53l-2.1 3.97L38 32h-1.55L35 29.1 33.55 32H32l2.15-4.03-2.1-3.97h1.54ZM45 27.8v.4c0 1.83-.49 3.8-3 3.8-2.5 0-3-1.97-3-3.8v-.4c0-1.82.5-3.8 3-3.8s3 1.98 3 3.8Zm-1.5.2v-.41c0-1.07-.15-2.59-1.5-2.59-1.36 0-1.5 1.73-1.5 2.8v.4c0 1.07 0 2.8 1.5 2.8 1.36 0 1.5-1.94 1.5-3Z" fill="#D8262F"/></svg>