<!-- by TradingView --><svg width="56" height="56" viewBox="0 0 56 56" xmlns="http://www.w3.org/2000/svg"><path fill="#F0F3FA" d="M0 0h56v56H0z"/><path d="m36.93 25.97.34-2.46c-.4-.17-1.5-.51-2.62-.51-2.63 0-3.65 2.46-3.65 3.44 0 .97.44 2.56 2.33 3.33 1.9.77 2.17 1.08 2.17 1.64 0 .56-.42 1.03-1.34 1.03a5.98 5.98 0 0 1-2.87-1.03L31 34.13c.52.29 1.88.87 3.16.87 3.07 0 3.84-2.46 3.84-3.7 0-3.38-4.42-3.27-4.42-4.71 0-.72.58-1.13 1.3-1.13.6 0 1.61.34 2.05.51Z" fill="#0F1B15"/><path d="M10 21.1c0-3.6 2.77-6.24 4.15-7.1-.08.26-.25.92-.25 1.5 0 2.23 3.1 4.46 3.1 6.58s-1 4.1-1.6 4.76c.24-1.2-.43-3.19-.8-4.04l-1.85-5.12c.2 1.14.76 3.8 1.4 5.33.8 1.92.6 3.32.45 3.99-1.95-.73-4.6-2.7-4.6-5.9Z" fill="#86BD41"/><path d="M26.25 29.56c3.48-3.72 2.88-8.45 2.32-10.56-.15.32-.58 1.1-1.09 1.65-1.97 2.1-6.9 1.29-8.79 3.29-1.88 2-2.67 4.79-2.69 5.98.83-1.35 3.24-2.6 4.34-3.05l6.31-3.1c-1.2.89-4.1 2.87-6.06 3.71-2.46 1.06-4.14 2.72-4.59 3.5.65.25-.04.87.85 1.02 2.32-.51 6.6.57 9.4-2.44Z" fill="#006838"/><path d="M20 23v12h2.5v-6.13L28.07 35H29V23h-2.5v6.54L20.77 23H20ZM47.63 31.69c-.64.51-1.47.83-2.38.83-2.04 0-3.75-1.58-3.75-3.52s1.71-3.52 3.75-3.52c.8 0 1.53.24 2.13.65l.4-2.62a6.45 6.45 0 0 0-2.53-.51A6.13 6.13 0 0 0 39 29c0 3.31 2.8 6 6.25 6 .99 0 1.92-.22 2.75-.61l-.37-2.7ZM8 35l4.72-12h.56L18 35h-2.64l-.59-1.5h-3.54l-.59 1.5H8Zm4.21-4h1.58L13 29l-.79 2Z" fill="#0F1B15"/></svg>