<!-- by TradingView --><svg width="56" height="56" viewBox="0 0 56 56" xmlns="http://www.w3.org/2000/svg"><path fill="#F0F3FA" d="M0 0h56v56H0z"/><path d="m6 35 6.36-15h2.07l6.15 15h-3.06l-1.18-3h-6.09l-1.22 3H6Zm5.07-5h4.49l-2.2-5.6-2.3 5.6ZM23 20v15h3V24.97L34.97 35H37V20h-3v10.03L25 20h-2Z" fill="#313032"/><path d="M45.2 20a4.7 4.7 0 0 0-4.88 4.59h1.72c.33-2.32 1.79-3.04 3.16-3.06 1.37-.02 3.02.9 3.08 2.57a4.33 4.33 0 0 1-1.04 2.8L40 35h10v-1.53l-6.46-.03 4.88-5.38c1.69-1.77 1.64-3.44 1.54-4.18a4.53 4.53 0 0 0-4.76-3.87Z" fill="#E43D30"/></svg>