<!-- by TradingView --><svg width="56" height="56" viewBox="0 0 56 56" xmlns="http://www.w3.org/2000/svg"><path fill="#F0F3FA" d="M0 0h56v56H0z"/><path fill-rule="evenodd" d="m28 10 4.54 3.95h5.66l1.7 5.62 5.1 3.38-2.27 5.07L45 33.63 39.91 37l-1.14 5.62h-6.24L28 46l-4.53-3.38H17.8l-1.7-5.61-5.1-3.38 2.27-5.61L11 22.95l5.1-3.38 1.7-5.62h5.66L28 10Zm-4.98 4.5h-4.47l2.23 3.11 2.24-3.1Zm-2 3.97 3.55 1.32-4 2.2.45-3.52Zm-1 3.53.43-3.5-3.52 1.32L20 22Zm-3.25-2.71 3.58-1.34-2.24-3.1-1.34 4.44Zm-.77.97-3.96 2.66 3.96.89v-3.55Zm.32 4.4 1.7 3.34h-3.97l2.27-3.34Zm-2.7 2.8 2.25-3.13-4.04-.9 1.8 4.03Zm0 1.18-1.78 4.4 3.55-1.31-1.78-3.09Zm2.6 3.1 2.24-3.11 1.34 4.44-3.57-1.33Zm3.47 1.88-3.58-1.33.45 4 3.13-2.67ZM16 36.28l-.45-4.03-3.6 1.34L16 36.28Zm.77 1 1.34 4.45 2.24-3.11-3.58-1.33Zm4.25.82-.45-4.02 4.05 2.68-3.6 1.34Zm3.78-.81-3.58 1.33 2.24 3.1 1.34-4.43ZM23.02 42l-2.24-3.04L18.55 42h4.47Zm1.11.43 3.6 2.67v-4l-3.6 1.33Zm4.3-1.87 2.24-3.1 1.34 4.43-3.57-1.33Zm3.44 1.87-3.6-1.34v4.01l3.6-2.67Zm1.11-.43h4.96l-2.7-3.07L32.98 42Zm2.7-3.4 3.6-1.33-.9 4.47-2.7-3.13ZM40 36.33l4.03-2.71L40 32.25v4.07Zm-.78-4.58-3.58 1.33 1.34-4.44 2.24 3.1Zm-1.7-3.32 2.14 2.98 2.37-2.98h-4.51Zm4.86.2-2.28 3.1 4.07 1.36-1.8-4.46Zm-.02-1.13 1.78-3.98-4.01 1.33 2.23 2.65ZM40 24.32v-4.06l4.03 2.7L40 24.32Zm-.77-5.03-1.34-4.45-2.24 3.11 3.58 1.34Zm-4.45-1.34L31.2 19.3l1.34-4.45 2.24 3.11Zm-1.8-3.45 2.24 3.11 2.23-3.1h-4.47Zm-1.07-.37-3.63-3.16v4.51l3.63-1.35ZM28 16.35l-2.24 3.11h4.48L28 16.36Zm3.35 3.47 3.43 2.68v-4.02l-3.43 1.34Zm3.87-1.34v4.02l3.86-2.68-3.86-1.34Zm4.16 1.81-3.6 2.68 3.6 1.33v-4Zm-.19 4.53-3.53-1.31L37 27.45l2.2-2.63ZM36.6 28l-.54-1.6-.54 1.6.54 1.82.54-1.82Zm-1.01 2.18-.46-1.5-.62.9 1.08.6Zm-1.94-.59-1.37.68.34-1.7 1.03 1.02Zm-.42-1.19.85.84.73-.82-1.58-.02Zm1.91-.98.46-1.4-1.07.46.61.94Zm-1.5-.99-1.02 1.02-.34-1.7 1.37.68Zm-1.2-1.21.95-.62.31 1.24-1.25-.62Zm1.87.76-.33-1.28 1.45.8-1.12.48Zm1.26-1.04-1.75-.96-.18-1.77 1.35 1 .58 1.73Zm-3.19-3.67L30.68 20h-1.85l1.5 1.13 2.04.14Zm-2.78 0-1.31-.98v1.3l1.3-.32ZM28 22.34l-1.5 1.16h3.01L28 22.34Zm2.26 1.35 1.17.88-.3-1.17-.87.3Zm1.6-.69 1.2-.87.16 1.55-1.36-.68ZM33 24.2l-1.25-.63.3 1.25.95-.62Zm-1.37 1.22.53 2.59-.52 2.6-2.56 1.4h-2.61l-2.1-1.39-.53-2.61.53-2.05L26.3 24h3.54l1.8 1.41Zm-5.14-2.35.97-.97-1.3-.32.33 1.3Zm-.54.16-.32-1.29-.97.97 1.3.32Zm-1.8-.6-.85-1.17 1.86.17-1.01 1Zm2.26-1.35 1.31-.98v1.3l-1.3-.32Zm.76-1.27H25.3l-1.65.92 2.05.19L27.17 20Zm-4.84 1.61-1.87 1.07-.64 2.13 2.51-.83v-2.37Zm.56 2.58.95-.63v1.58l-.95-.95Zm.68 1.47-.97-.97-.32 1.29 1.3-.32Zm.16.52-1.3.33.98.96.32-1.29ZM22.9 28l-.95-1.21L21.3 28h1.59Zm-2.07-.54.66-.98-1.49-.66.83 1.64Zm-.68-2.18 1.57.7.34-1.4-1.91.7Zm-.68.72-.6 2 .71 2.39.91-2.39-1.02-2Zm1.36 2.7-.78 2.02 1.48-.64-.7-1.39Zm1.55 1.35 1.04-1.38.35 1.72-1.4-.34Zm1.2.87-1.3-.32.33 1.28.97-.96Zm-1.52 1.04-.35-1.36-1.45.63 1.8.73Zm-2.08-.24.5 1.63 2.14 1.42-.4-2.15-2.24-.9Zm2.84 1.11.3 1.63.62-1.32-.92-.3Zm1.78.31 1.39-.34-.35 1.72-1.04-1.38Zm.66 1.8-1.08-1.43-.72 1.55 1.8-.12Zm-1.41.64 1.47.98h1.86l-1.47-1.1-1.86.12Zm2.47-.35 1.41 1.05v-1.76l-1.41.7Zm1.65-1.59.63-1.14H27l.96 1.14ZM25.7 32.3l-1.3-.98v1.3l1.3-.32Zm-1.86.3v-1.17l-.88.87.88.3Zm2.67.38-.35 1.7 1.37-.68-1.02-1.02Zm2.57-.01-.63.93 1.25.31-.62-1.24Zm.6-.02.65 1.27.96-.63-1.6-.64Zm2.48.13v-1.76l1.42 1.05-1.42.7Zm1.42-.09-1.29.64.64.96.65-1.6Zm-1.19 1.79-.58-.87-.88.58 1.46.29Zm-2.71 0-1.4-.35v1.74l1.4-1.4Zm-1.01 1.78h2.01l1.65-1.23-2.02-.4-1.64 1.63Zm4.95-2.2 1.36-1 .53-1.77-1.17 1-.72 1.78Zm.76-2.54 1.19-1-1.19-.68v1.68Zm-.55-1.7-1.42.7 1.42 1.05v-1.76Zm-2.22 1.13-1.88 1.12 1.88.75v-1.87Zm3.17 2.77v4.01l-3.43-1.28 3.43-2.73Zm.46.06v4.01l3.84-1.34-3.84-2.67Zm4.14 2.2v-4.01l-3.6 1.34 3.6 2.67Zm-9.14.72h-4.48L28 40.22 30.24 37Zm-2.68 3.56-2.23-3.1-1.34 4.43 3.57-1.33Zm3.64-3.27 1.34 4.44 2.24-3.11-3.58-1.33ZM23 28.48h-1.77l.71 1.21L23 28.48Zm-4.52-1.16 1.31-4.34-3.05 1.3 1.74 3.04Zm-1.86-3.59 3.05-1.3-3.05-2.15v3.45Zm1.4 4.75h-3.97l1.76 2.88 2.21-2.88Zm6.37-3.34 1.4-1.4-1.4-.34v1.74Zm-1.61-1.54.94-.62-.78-1.1-.16 1.72Zm2.55-4.48 2.23-3.1L24 14.67l1.34 4.44Zm-.53.17-1.34-4.45-2.24 3.11 3.58 1.34Zm-.7-5.16 3.62 1.35v-4.5l-3.63 3.15Zm8.42 7.7-1.75-.12.63.95 1.12-.82ZM30.9 22.9l-.56-.83-.28 1.1.84-.27Zm-1.39.16.33-1.29-1.3.32.97.97ZM33.1 28h1.6l-.64-1.2-.96 1.2Zm4.32 0h4.37l-2.13-2.87L37.42 28Zm-6.75-8.88 1.34-4.44-3.57 1.33 2.23 3.11ZM20.01 34.07l-3.13 2.67 3.58 1.33-.45-4Z" fill="#4D88E0"/><path d="M25 27.16c.8 1.04 2 1.01 2.5.87.4-.35.83.14 1 .43 1.2.69 2.17.57 2.5.43-.4-.7-.83-.86-1-.86.4 0 .83-.58 1-.87-.4-.34-1.17-.14-1.5 0 .4-.34.5-1 .5-1.3-.8 0-1.33.3-1.5.44 0-.7-.33-1.16-.5-1.3-.4.35-.5 1-.5 1.3a7.06 7.06 0 0 0-1.5-.87c0 1.04.33 1.59.5 1.73H25Z" fill="#4D88E0"/></svg>