<!-- by TradingView --><svg xmlns="http://www.w3.org/2000/svg" width="56" height="56" viewBox="0 0 56 56"><path fill="url(#axaqiigru)" d="M0 0h56v56H0z"/><path d="M37.72 33.76a3.4 3.4 0 1 1-2.77-5.65L33.13 25l-8.2-14-4.14 7.03L33.12 39h8.22l-3.11-5.3c-.17.04-.34.05-.5.06zm-11-1.76h-4.79c-.47 0-.65-.31-.42-.72l1.39-2.37.9-1.53-4.24-7.22L16.72 25 9.1 38.02c-.25.44.06.98.57.98H30.6l-3.88-7zm6.69-10.9c1.04-.36 2.16-.55 3.33-.55A10.2 10.2 0 0 1 47 30.65c0 3.04-1.37 5.76-3.53 7.61l-3.3-5.63c.58-.64.93-1.5.89-2.43a3.46 3.46 0 0 0-4.2-3.2l-3.45-5.9z" fill="#23FFFF"/><defs><linearGradient id="axaqiigru" x1="10.42" y1="9.71" x2="68.15" y2="76.02" gradientUnits="userSpaceOnUse"><stop stop-color="#1A1E21"/><stop offset="1" stop-color="#06060A"/></linearGradient></defs></svg>