<!-- by TradingView --><svg width="56" height="56" fill="none" xmlns="http://www.w3.org/2000/svg"><path fill="#F0F3FA" d="M0 0h56v56H0z"/><path fill-rule="evenodd" clip-rule="evenodd" d="M12.067 17.306L7 31h3.568l1.017-3h4.66l-1.051-3h-2.575l1.848-5.292L18.333 31H22l-5.55-15h-2.507a2 2 0 00-1.876 1.306zm30.866 0L48 31h-3.568l-1.017-3h-4.66l1.051-3h2.575l-1.848-5.292L36.667 31H33l5.55-15h2.507a2 2 0 011.876 1.306zM29.5 16H24v15h3v-5h2.5a5 5 0 000-10zm0 3H27v4h2.5a2 2 0 100-4z" fill="#DBA925"/><path fill-rule="evenodd" clip-rule="evenodd" d="M37 31.5V33h1v1h-1v1.5a.5.5 0 00.5.5h.5v1h-.8a1.2 1.2 0 01-1.2-1.2V34h-.582v-1h.282a.3.3 0 00.3-.3v-.5a.7.7 0 01.7-.7h.3zM11.5 35a2.52 2.52 0 01-2.475 2C7.631 37 6.5 35.88 6.5 34.5S7.63 32 9.025 32a2.52 2.52 0 012.475 2h-1.105c-.205-.583-.758-1-1.408-1-.825 0-1.493.672-1.493 1.5S8.162 36 8.987 36c.65 0 1.203-.417 1.408-1H11.5zm2.5 2a2 2 0 100-4 2 2 0 000 4zm0-1a1 1 0 100-2 1 1 0 000 2zm12 1a2 2 0 100-4 2 2 0 000 4zm0-1a1 1 0 100-2 1 1 0 000 2zm18-1a2 2 0 11-4 0 2 2 0 014 0zm-1 0a1 1 0 11-2 0 1 1 0 012 0zm-10.185 2c.465 0 .89-.194 1.21-.512A.7.7 0 0034.7 37h.3v-4h-1v.487A1.71 1.71 0 0032.815 33c-1.001 0-1.813.895-1.813 2s.812 2 1.813 2zM33 36c.532 0 .967-.414 1-.937v-.126a1.001 1.001 0 00-2.003.063c0 .552.449 1 1.003 1zm-12.5-3h-1v5h1v-1.442a1.75 1.75 0 001.156.442c1.018 0 1.844-.895 1.844-2s-.826-2-1.844-2c-.438 0-.84.166-1.156.442V33zm0 2.065c0 .57.447 1.032.998 1.032.551 0 .998-.462.998-1.032 0-.57-.447-1.033-.998-1.033-.551 0-.998.463-.998 1.033zM16.53 33h1.002v.624c.351-.482.971-.618 1.26-.624v1.037c-.716.017-1.095.47-1.26.843V37h-1.001v-4zm13.02 0h-1v4h1v-2.12c.165-.373.544-.826 1.26-.843V33c-.289.006-.908.142-1.26.624V33zm9.439-.31a.595.595 0 100-1.19.595.595 0 000 1.19zm.5.31h-1v4h1v-4zm5.011 0h1v.498a1.42 1.42 0 012.5.922V37h-1v-2.194a.806.806 0 00-1.5-.411V37h-1v-4z" fill="#000"/></svg>