<!-- by TradingView --><svg xmlns="http://www.w3.org/2000/svg" width="56" height="56"><path fill="#015CB7" d="M0 0h56v56H0z"/><path d="M26.2 17.89c-.16.3-.42.52-.73.63a69 69 0 00-6.96 2.51l.99.34.2.08c1.44.49 2.97 1.01 4.66 1.55a42.55 42.55 0 015.14 2h10.95c.71 0 .76 1.02 0 1h-9c.55.31 1.1.65 1.64 1H43.4c.79 0 .79 1 0 1h-8.96c.38.33.69.67.92 1h11.05c.78 0 .78 1 0 1H35.88c.1.33.14.67.11 1h12.46a.5.5 0 010 1H35.74c-.69 1.57-2.62 3.05-5.02 4.35-3.48 1.9-7.8 2.95-10.01 3.5l-.51.11c-1.4.35-2.05-1.95-.65-2.43h.01l1.36-.36c1.4-.37 3.4-.88 5.4-1.62a5071.19 5071.19 0 00-5.68-1.8 42 42 0 01-4.82-1.86 28.6 28.6 0 01-4.45-2.54c-4.69-3.3-1.74-6.54 2.91-9.1 3.77-2.07 8.81-3.68 10.54-4.2a1.18 1.18 0 011.28.44 1.39 1.39 0 01.1 1.4zm3.64 16.09A10.74 10.74 0 0032.55 32h-8.93l2 .63 4.22 1.35zM20.51 31h12.6c.08-.34.01-.68-.23-1h-15c.86.36 1.74.7 2.63 1zm-4.8-2H31.6a26.1 26.1 0 00-1.7-1H13.94c.58.36 1.17.69 1.78 1zm-3.26-2h15.38c-.83-.36-1.67-.7-2.51-1H11.88c.03.34.2.68.57 1zm-.25-2h10.1l-3.31-1.12-.22-.08-3.52-1.19c-1.36.77-2.51 1.59-3.05 2.39z" fill="#fff"/></svg>