<!-- by TradingView --><svg xmlns="http://www.w3.org/2000/svg" width="56" height="56" viewBox="0 0 56 56"><path fill="#831F1A" d="M0 0h56v56H0z"/><path fill-rule="evenodd" d="M42 14H14v28h28V14zm-2.7 17a1 1 0 1 0 0-2 1 1 0 0 0 0 2zm.7 1h-1.3v7H40v-7zm-3.56 5.4a3.09 3.09 0 0 1-2.65 1.6c-1.74 0-3.15-1.57-3.15-3.5s1.41-3.5 3.15-3.5c1.6 0 2.9 1.3 3.13 3h.01v.18a3.92 3.92 0 0 1 .02.43h-.02V36h-5.2c.2 1.14 1.02 2 2.02 2 .77 0 1.43-.5 1.79-1.26l.9.67zM33.75 33c1 0 1.83.86 2.02 2h-4.04c.2-1.14 1.02-2 2.02-2zm-16.83.62l-.46-.97a6 6 0 0 1 2.56-.65c1.36 0 2.98.67 2.98 2.6V39h-1.32v-.98c-.36.33-1.32.98-2.28.98-1.2 0-2.4-.63-2.4-2.06 0-1.42 1.7-2.2 3.02-2.2h1.76c-.02-.61-.4-1.82-1.76-1.82-1.36 0-1.97.46-2.1.7zm3.68 2.08v.94A1.9 1.9 0 0 1 18.76 38c-1.18 0-1.43-.75-1.4-1.13a1.4 1.4 0 0 1 1.48-1.18h1.76zm3.7-3.7H23v10h1.3v-4.34A3.1 3.1 0 0 0 26.81 39c1.76 0 3.19-1.57 3.19-3.5S28.57 32 26.81 32a3.1 3.1 0 0 0-2.51 1.34V32zm0 3.72v-.44C24.4 34 25.35 33 26.51 33c1.23 0 2.22 1.12 2.22 2.5s-1 2.5-2.22 2.5c-1.16 0-2.11-1-2.21-2.28z" fill="#fff"/></svg>