<!-- by TradingView --><svg width="56" height="56" viewBox="0 0 56 56" xmlns="http://www.w3.org/2000/svg"><path fill="#F0F3FA" d="M0 0h56v56H0z"/><path d="m27.83 22.1-3.35-5.65L27.83 11l3.54 5.45-3.54 5.65Z" fill="#30A8BE"/><path d="m32.86 35.58-9.9-16.55L11 39h9.85c1.76 0 3.4-.91 4.35-2.42l1.3-2.06-1.44-2.39-2.1 3.46c-.4.64-1.07 1.41-1.8 1.41H14.7l8.25-13.72 7.67 13.21a5.15 5.15 0 0 0 4.4 2.51H45L33.05 19.03l-3.6 5.85 1.44 1.8 2.16-3.4L41.37 37h-6.7c-.74 0-1.43-.78-1.81-1.42Z" fill="#187AA9"/></svg>