<!-- by TradingView --><svg width="56" height="56" viewBox="0 0 56 56" xmlns="http://www.w3.org/2000/svg"><path fill="#099DFD" d="M0 0h56v56H0z"/><path d="M39 24.5c-.41-.73-.95-1.35-1.8-1.46L37 23v10l.2-.03c1.18-.13 1.82-1.14 1.8-2.35V28c.01-1.42 1.46-2.59 2.85-2.74l.15-.02v-2.23l-.18.02c-1 .12-1.9.57-2.6 1.27M20 31a3 3 0 1 0 0-6 3 3 0 0 0 0 6Zm5-3a5 5 0 0 1-2.25 4.17l.32.3a5 5 0 0 1 0 7.07l-1.41-1.42a3 3 0 0 0-4.25-4.24L16 32.46c.24-.24.5-.45.78-.63A4.99 4.99 0 0 1 20 23h5c-.12.5-.5 1.36-1.18 1.77.73.87 1.18 2 1.18 3.23Z" fill="#F0F3FA"/><path fill-rule="evenodd" d="M31 31a3 3 0 1 0 0-6 3 3 0 0 0 0 6Zm0 2a5 5 0 1 0 0-10 5 5 0 0 0 0 10Z" fill="#F0F3FA"/><path d="M50.33 24.27a5 5 0 1 0-.04 7.5C50.72 32.4 51.53 33 52 33V23c-.54 0-1.25.68-1.67 1.27ZM50 28a3 3 0 1 1-6 0 3 3 0 0 1 6 0ZM12.33 24.27a5 5 0 1 0-.04 7.5C12.72 32.4 13.53 33 14 33V23c-.54 0-1.25.68-1.67 1.27ZM12 28a3 3 0 1 1-6 0 3 3 0 0 1 6 0Z" fill="#F0F3FA"/></svg>