<!-- by TradingView --><svg width="56" height="56" viewBox="0 0 56 56" xmlns="http://www.w3.org/2000/svg"><path fill="#F0F3FA" d="M0 0h56v56H0z"/><path d="M22.73 29.77C22.6 22.72 17.53 21 15 21c2.5.42 3.92 2.4 4.04 13.67.1 9.02 6.08 10.62 8.96 10.3-4.65-.35-5.11-6.39-5.27-15.2Z" fill="#006CBB"/><path d="M33.27 21.77C33.4 14.72 38.47 13 41 13c-2.5.42-4.14 2.4-4.26 13.67-.09 9.02-5.86 10.62-8.74 10.3 4.65-.35 5.11-6.39 5.27-15.2Z" fill="#F04029"/><circle cx="28" cy="25.5" fill="#006CBB" r="3.5"/><circle cx="28" cy="16.5" fill="#F04029" r="3.5"/></svg>