<!-- by TradingView --><svg width="56" height="56" fill="none" xmlns="http://www.w3.org/2000/svg"><path fill="url(#paint0_linear_3186)" d="M0 0h56v56H0z"/><path fill-rule="evenodd" clip-rule="evenodd" d="M9.006 21h.977L15 33h-1.156l-1.622-4H6.779l-1.623 4H4l5.006-12zm.494 1.293L11.816 28H7.184L9.5 22.293zm42.34 2.888c-.807-.692-1.838-1.153-3.156-1.18-1.577-.032-3.221.7-3.284 2.487-.032.909.374 1.79 1.481 2.16.438.146.882.245 1.306.33l.343.069c.305.06.596.117.889.188.205.05.403.105.595.169.638.213 1.001.658.986 1.096-.042 1.197-1.336 1.505-2.33 1.5-1.016-.005-2.434-.388-3.193-1.053l-.477.76c1.009.883 2.443 1.287 3.67 1.293 1.51.008 3.267-.703 3.329-2.46.032-.91-.509-1.79-1.616-2.16a8.445 8.445 0 00-.69-.196 22.39 22.39 0 00-.96-.204c-.107-.02-.212-.041-.315-.062a9.825 9.825 0 01-1.168-.294c-.638-.214-.876-.662-.86-1.1.043-1.249 1.286-1.545 2.294-1.524a3.96 3.96 0 012.507.972l.65-.791zM17 24h-1v12h1v-5c.737 1.206 1.991 2 3.415 2 2.268 0 4.107-2.015 4.107-4.5S22.683 24 20.415 24c-1.424 0-2.678.794-3.415 2v-2zm0 4.506v-.012c.003-1.96 1.396-3.494 3.174-3.494 1.779 0 3.22 1.538 3.22 3.5s-1.441 3.5-3.22 3.5c-1.777 0-3.171-1.535-3.174-3.494zm17 .1c0 .132-.006.264-.017.394h-7.695c.175 1.864 1.556 3 3.26 3 1.146 0 2.156-.445 2.748-1.44l1.047.263A4.413 4.413 0 0129.549 33c-2.446 0-4.43-2.015-4.43-4.5s1.984-4.5 4.43-4.5C31.995 24 34 26.12 34 28.605zM32.818 28c-.237-1.787-1.613-3-3.27-3-1.655 0-3.023 1.213-3.26 3h6.53zM43.5 23a1 1 0 100-2 1 1 0 000 2zM35 21h1v10.151c0 .426.423.849.849.849.343 0 .935-.151 1.151-.21v1.004c-.206.06-.782.206-1.46.206A1.54 1.54 0 0135 31.46V21zm5 0h-1v10.46c0 .85.69 1.54 1.54 1.54.678 0 1.254-.147 1.46-.206V31.79c-.216.059-.808.21-1.151.21-.426 0-.849-.423-.849-.849V21zm3 3h1v9h-1v-9z" fill="#fff"/><defs><linearGradient id="paint0_linear_3186" x1="0" y1="28" x2="51.5" y2="28" gradientUnits="userSpaceOnUse"><stop stop-color="#F76321"/><stop offset="1" stop-color="#B11C44"/></linearGradient></defs></svg>