<!-- by TradingView --><svg xmlns="http://www.w3.org/2000/svg" width="56" height="56" viewBox="0 0 56 56"><path fill="#04B6E1" d="M0 0h56v56H0z"/><path fill-rule="evenodd" d="M28 12a4 4 0 0 0-3.32 6.23L16.23 33.2A4.05 4.05 0 0 0 11 37.03 3.96 3.96 0 0 0 15 41a4.02 4.02 0 0 0 4-3.98c0-.75-.2-1.48-.59-2.1 2.23-.49 5.65-.91 9.6-.92 3.03 0 6.31.18 9.56.95a3.99 3.99 0 0 0 2.65 5.97 4 4 0 1 0-.6-7.67l-8.3-15.03A4 4 0 0 0 28 12zm-1.78 7.58a4 4 0 0 0 3.58 0L37.1 32.8c-3.15-.64-6.26-.8-9.09-.79-3.64 0-6.89.36-9.25.8l7.47-13.22zM30 16a2 2 0 1 1-4 0 2 2 0 0 1 4 0zM15 39a2 2 0 1 0 0-4 2 2 0 0 0 0 4zm28-2a2 2 0 1 1-4 0 2 2 0 0 1 4 0z" fill="#fff"/></svg>