<!-- by TradingView --><svg width="56" height="56" xmlns="http://www.w3.org/2000/svg"><path fill="#008FBE" d="M0 0h56v56H0z"/><path d="M39.78 29.586c.15-.508.224-1.038.22-1.57a5.425 5.425 0 00-.22-1.577 3.7 3.7 0 00-.668-1.267 3.205 3.205 0 00-1.096-.861 3.813 3.813 0 00-3.014 0c-.42.194-.797.484-1.102.848-.302.37-.529.8-.667 1.267a5.358 5.358 0 00-.233 1.59 5.297 5.297 0 00.227 1.57c.138.466.365.897.667 1.266.303.366.68.653 1.102.843a3.872 3.872 0 003.014 0 3.09 3.09 0 001.096-.843c.303-.369.532-.8.673-1.266zM36.517 31c-1.421 0-2.486-1.032-2.517-3-.028-1.719.912-2.998 2.517-3 1.604-.002 2.519 1.61 2.483 3.022C38.964 29.434 37.937 31 36.517 31zM51.78 29.586c.15-.508.224-1.038.22-1.57a5.425 5.425 0 00-.22-1.577 3.7 3.7 0 00-.668-1.267 3.205 3.205 0 00-1.096-.861 3.813 3.813 0 00-3.014 0c-.42.194-.797.484-1.102.848-.302.37-.529.8-.667 1.267a5.358 5.358 0 00-.233 1.59 5.297 5.297 0 00.227 1.57c.138.466.365.897.667 1.266.303.366.68.653 1.102.843a3.872 3.872 0 003.014 0 3.09 3.09 0 001.096-.843c.303-.369.532-.8.673-1.266zM48.517 31c-1.421 0-2.486-1.032-2.517-3-.028-1.719.912-2.998 2.517-3 1.604-.002 2.519 1.61 2.483 3.022C50.964 29.434 49.937 31 48.517 31zM21.177 25.213a3.098 3.098 0 00-1.068-.905 3.264 3.264 0 00-1.486-.306 3.436 3.436 0 00-1.437.306c-.281.138-.57.363-.758.552a4.63 4.63 0 01-.43.378v-.825A.412.412 0 0015.6 24h-.206a.405.405 0 00-.393.413v10.174c0 .226.175.41.393.414h.205c.22 0 .4-.185.4-.414v-3.351a3.577 3.577 0 010-.415c.504.415 1.17.98 2.01 1.135.204.038.409.04.615.044a3.343 3.343 0 001.492-.293c.412-.197.775-.49 1.062-.854a3.71 3.71 0 00.614-1.274 5.597 5.597 0 00.209-1.55 5.437 5.437 0 00-.215-1.548 3.963 3.963 0 00-.608-1.268zM18.527 31c-1.771-.016-2.52-1.612-2.527-3 .002-1.347.953-3.005 2.623-3 1.67.005 2.377 1.687 2.377 3.03.007 1.375-.701 2.986-2.473 2.97zM29.177 25.213a3.098 3.098 0 00-1.068-.905 3.264 3.264 0 00-1.486-.306 3.436 3.436 0 00-1.437.306c-.281.138-.57.363-.758.552a4.63 4.63 0 01-.43.378v-.825A.412.412 0 0023.6 24h-.206a.405.405 0 00-.393.413v10.174c0 .226.175.41.393.414h.205c.22 0 .4-.185.4-.414v-3.351a3.577 3.577 0 010-.415c.503.415 1.17.98 2.01 1.135.204.038.409.04.615.044a3.343 3.343 0 001.492-.293c.412-.197.775-.49 1.062-.854a3.71 3.71 0 00.614-1.274 5.597 5.597 0 00.209-1.55 5.437 5.437 0 00-.215-1.548 3.963 3.963 0 00-.608-1.268zM26.527 31c-1.771-.016-2.52-1.612-2.527-3 .002-1.347.953-3.005 2.623-3 1.67.005 2.377 1.687 2.377 3.03.007 1.375-.701 2.986-2.473 2.97zM41.323 22h.354c.178 0 .323.171.323.383v9.234c0 .212-.145.383-.323.383h-.354c-.178 0-.323-.171-.323-.383v-9.234c0-.212.145-.383.323-.383zM30.15 25.998h.43c.22 0 .42.069.42.282v5.334c0 .211.168.383.384.386h.234a.384.384 0 00.383-.386V26.28c0-.21.161-.279.378-.282h.56a.39.39 0 00.39-.38v-.284c0-.21-.174-.33-.39-.334h-.633c-.215 0-.305-.319-.305-.528v-1.013c0-.52.918-.454 1.328-.454.154 0 .219-.068.219-.276v-.23c0-.285.025-.494-.22-.494-1.077 0-2.328.493-2.328 1.395v1.072c-.003.21-.144.528-.36.528h-.497c-.216.003-.39.13-.39.34v.279c.004.21.18.38.396.38zM43.323 24h.354c.178 0 .323.19.323.423v7.154c0 .233-.145.423-.323.423h-.354c-.178 0-.323-.19-.323-.423v-7.154c0-.233.145-.423.323-.423zM10.948 28.239c-.15.039-.303.069-.457.09-.41.06-.832.116-1.266.162-.403.043-.8.115-1.189.216-.325.08-.625.22-.88.408a.901.901 0 00-.344.76 1.04 1.04 0 00.142.554c.097.16.23.302.393.418.175.12.377.211.594.267.213.06.435.09.66.09.359.002.716-.045 1.058-.14a2.77 2.77 0 00.88-.419c.526-.391.818-.962.796-1.555v-1.058h-.03a.57.57 0 01-.357.207z" fill="#fff"/><path d="M9 23a5 5 0 100 10 5 5 0 000-10zm1.2 8.698c-1.145.385-2.493.273-3.51-.397 0 0-1.49-1.086-.433-2.4.91-1.12 2.597-1.099 3.914-1.261 1.062 0 1.542-.914 1.092-1.897a1.273 1.273 0 00-.45-.504 1.802 1.802 0 00-.667-.258c-.785-.125-1.646-.113-2.316.366a2.137 2.137 0 00-.703 1.152c-.072.229-.198.348-.426.337a.432.432 0 01-.45-.385c.07-.655.438-1.31.96-1.71.638-.484 1.466-.644 2.251-.643.594.002 1.245.158 1.74.487 1.139.783.986 1.812 1.013 3.415.026 1.603-.206 3.089-2.014 3.698z" fill="#fff"/></svg>