<!-- by TradingView --><svg width="56" height="56" xmlns="http://www.w3.org/2000/svg"><path fill="#F0F3FA" d="M0 0h56v56H0z"/><path d="M41.577 19.394a9.145 9.145 0 00-7.932-4.588 9.145 9.145 0 00-7.933 4.588 18.555 18.555 0 017.933-1.769c2.836 0 5.525.635 7.932 1.769z" fill="#EF5530"/><path d="M31.515 12.315a9.144 9.144 0 00-8.853 2.364 9.144 9.144 0 00-2.365 8.853 18.546 18.546 0 014.358-6.859 18.55 18.55 0 016.86-4.358z" fill="#F5911E"/><path d="M19.394 14.424a9.144 9.144 0 00-4.588 7.931 9.144 9.144 0 004.588 7.932 18.552 18.552 0 01-1.769-7.931c0-2.837.635-5.526 1.769-7.932z" fill="#FFCC25"/><mask id="a" maskUnits="userSpaceOnUse" x="12" y="24" width="12" height="13"><path d="M12 24.485h11.532v11.533H12V24.485z" fill="#fff"/></mask><g mask="url(#a)"><path d="M12.315 24.485a9.144 9.144 0 002.364 8.853 9.146 9.146 0 008.853 2.365 18.56 18.56 0 01-6.86-4.358 18.56 18.56 0 01-4.357-6.86z" fill="#B8CF32"/></g><path d="M14.424 36.606a9.144 9.144 0 007.931 4.588 9.145 9.145 0 007.933-4.588 18.556 18.556 0 01-7.933 1.768c-2.836 0-5.525-.634-7.931-1.768z" fill="#1EA34E"/><path d="M24.485 43.685a9.145 9.145 0 008.853-2.364 9.145 9.145 0 002.365-8.853 18.557 18.557 0 01-4.358 6.86 18.553 18.553 0 01-6.86 4.357z" fill="#4290CD"/><path d="M36.606 41.577a9.144 9.144 0 004.588-7.932 9.144 9.144 0 00-4.588-7.933 18.556 18.556 0 011.769 7.933c0 2.836-.635 5.525-1.769 7.931z" fill="#6F54A1"/><path d="M43.685 31.515a9.144 9.144 0 00-2.364-8.853 9.145 9.145 0 00-8.853-2.365c2.504.9 4.853 2.352 6.859 4.358a18.554 18.554 0 014.358 6.86z" fill="#CF1874"/></svg>