<!-- by TradingView --><svg width="56" height="56" xmlns="http://www.w3.org/2000/svg"><path fill="#9F1C30" d="M0 0h56v56H0z"/><path d="M35.861 24.418c-.112-.18-.3-.325-.505-.454-.128-.062-.317-.107-.467.068-.202.236-.095.55.013.701.016.022.031.04.046.054.002.002 0 .004.002.006.081.104.158.212.226.33.226.397.471 1.016.386 1.5a.776.776 0 01-.432.59c-.42.21-.34.421-.545.81-.53 1.005-1.52 1.611-2.587 1.117-.953-.442-1.512-1.474-1.512-2.537v-.019c0-.36.003-.97.172-1.291.203-.388.72-.533 1.022-.818.7-.66 1.617-.753 2.386-.394l.006.003.056.029c.103.044.312.09.435-.203.1-.239-.03-.382-.15-.46a3.294 3.294 0 00-1.382-.304c-.524 0-1.22.02-1.721.18-.513.165-.876.456-1.077.966a9.555 9.555 0 01-.21.488.528.528 0 00.072.377c.114.208.248.39.129.731-.12.34-.477.36-.477.36s-.102.025-.11.23c.003.05.004.1.008.151.07.801.385 1.644.82 2.204a3.208 3.208 0 002.547 1.228c.67 0 1.264-.191 1.76-.512.042-.02.081-.04.116-.061a.401.401 0 01.217-.064c.249-.004.475.155.722.073.278-.093.383-.296.392-.595a.633.633 0 00-.129-.394c-.068-.1-.127-.17-.114-.3.008-.073.04-.146.068-.22.177-.439.268-.91.269-1.384v-.02c0-.435-.131-.646-.263-1.017-.132-.372.03-.797-.189-1.149zm8.86 9.38l-.232-.14a.88.88 0 01-.226-.181.286.286 0 01-.07-.184c0-.074.032-.135.095-.182a.395.395 0 01.244-.071c.175 0 .34.076.491.227v-.355a.83.83 0 00-.485-.154.633.633 0 00-.45.161.548.548 0 00-.173.42c0 .115.03.217.091.305s.164.178.308.269l.23.145c.186.12.278.246.278.379a.264.264 0 01-.094.205.348.348 0 01-.237.082c-.215 0-.404-.107-.567-.321v.398a.906.906 0 00.57.199.61.61 0 00.442-.164.568.568 0 00.17-.428c0-.247-.128-.45-.386-.61zm-3.557.215h.865v-.28h-.865v-.668h.895v-.279h-1.198v2.186h1.227v-.279h-.924v-.68zm-3.64.467a.795.795 0 01-.236-.592c0-.238.08-.437.24-.595a.82.82 0 01.603-.237c.236 0 .477.073.724.219v-.337a1.851 1.851 0 00-.74-.18c-.321 0-.591.108-.81.326-.22.217-.33.485-.33.803 0 .2.048.388.144.56.092.169.227.309.39.406.165.098.365.147.6.147.291 0 .547-.063.769-.188v-.345a1.336 1.336 0 01-.75.245.826.826 0 01-.604-.232zm-2.818.006l-1.424-1.7h-.245v2.189h.284v-1.686l1.413 1.686h.26v-2.189h-.288v1.7zm-4.536-.473h.866v-.28h-.866v-.668h.896v-.279h-1.198v2.186h1.227v-.279h-.925v-.68zm-2.684.962h.302v-2.189h-.302v2.189zm-3.34-.495a.795.795 0 01-.236-.592c0-.238.08-.437.24-.595a.82.82 0 01.603-.237c.235 0 .477.073.724.219v-.337a1.85 1.85 0 00-.74-.18c-.321 0-.592.108-.811.326-.22.217-.329.485-.329.803 0 .2.048.388.144.56.092.169.227.309.39.406.164.098.365.147.6.147.291 0 .547-.063.769-.188v-.345a1.336 1.336 0 01-.75.245.825.825 0 01-.604-.232zm-2.798-.681l-.23-.142a.879.879 0 01-.226-.18.286.286 0 01-.07-.184c0-.074.031-.135.095-.182a.395.395 0 01.243-.071c.176 0 .34.076.492.227v-.355a.83.83 0 00-.486-.154.633.633 0 00-.45.161.547.547 0 00-.173.42c0 .115.03.217.092.305.06.088.163.178.307.269l.23.145c.186.12.279.246.279.379a.26.26 0 01-.095.205.348.348 0 01-.236.082c-.215 0-.404-.107-.568-.321v.398a.91.91 0 00.57.199.61.61 0 00.443-.164.568.568 0 00.17-.428c0-.247-.129-.45-.387-.61zm-3.23.673a.795.795 0 01-.59.24.8.8 0 01-.82-.824c0-.244.078-.444.233-.6a.806.806 0 01.597-.235c.229 0 .423.079.58.237a.797.797 0 01.237.585.815.815 0 01-.237.597zm-.593-1.717c-.326 0-.596.107-.81.32-.213.215-.32.486-.32.813A1.082 1.082 0 0017.509 35c.333 0 .61-.106.829-.317.219-.212.328-.479.328-.802 0-.322-.108-.59-.325-.805a1.114 1.114 0 00-.816-.321zm-3.295 2.22h.302v-2.189h-.302v2.189zm-2.279-.444a.324.324 0 01-.142.125c-.059.027-.171.04-.336.04h-.298v-.694h.282c.15 0 .26.014.33.04a.34.34 0 01.161.124.334.334 0 01.003.365zm-.776-1.466h.26c.258 0 .387.105.387.315a.325.325 0 01-.102.248c-.068.063-.183.095-.344.095h-.201v-.658zm.638.752c.214-.093.322-.247.322-.462a.562.562 0 00-.077-.295.53.53 0 00-.224-.201.935.935 0 00-.408-.073h-.554v2.189h.716a.874.874 0 00.403-.083.612.612 0 00.244-.215.549.549 0 00.083-.3.525.525 0 00-.137-.363.647.647 0 00-.368-.197zm17.521-7.984c.206-.062.285-.203.294-.41.012-.28-.114-.24-.3-.34 0 0-.04-.028-.074-.024-.563.066-.51.952.08.774zm6.203-3.623s-.065-.05-.124-.043c-.938.118-.848 1.698.133 1.38.345-.111.477-.361.491-.73.02-.5-.19-.428-.5-.607zm-.613-.435c.207-.063.286-.203.294-.41.013-.28-.114-.24-.299-.34 0 0-.04-.028-.075-.024-.562.066-.508.952.08.774zm-5.069 7.777s-.066-.05-.125-.044c-.937.118-.848 1.698.134 1.381.345-.112.476-.362.49-.73.02-.5-.19-.428-.499-.607zM52 25v-.984h-5V30h5v-1h-4v-1.503h3v-1h-3V25h4zm-10.407 1.703c-.775-.185-2.093.15-2.093-.907 0-.416.442-.796 1.377-.796.671 0 1.447.233 1.871.47l.278-1.086c-.45-.22-1.262-.384-2.1-.384-1.588 0-2.426.923-2.426 1.796 0 .727.465 1.481 1.471 1.701.636.145 2.029.001 2.029.856 0 .546-.412.647-1.285.647-.786 0-1.5-.27-1.906-.507l-.203 1.019c.38.203 1.244.488 2.109.488 1.42 0 2.285-.619 2.285-1.647 0-.784-.348-1.39-1.407-1.65zM22 25h2v5h1v-5h2v-1h-5v1zm-5.86 2H15v-2h1.14c.731 0 1.36.175 1.36 1 0 .75-.629 1-1.36 1zm.433-3h-2.568v6H15v-2h1.47c1.146 0 2.03-.776 2.03-2 0-1.355-.78-2-1.927-2zM5.817 28L7 25l1.215 3H5.817zm.683-4l-2.52 5.999H5L5.462 29H8.55l.451.999h1L7.5 24h-1z" fill="#fff"/></svg>