<!-- by TradingView --><svg xmlns="http://www.w3.org/2000/svg" width="56" height="56" viewBox="0 0 56 56"><path fill="#F0F3FA" d="M0 0h56v56H0z"/><path d="M28.32 28.61c-8.49 5.79-7.87 14-6.5 17.39C29.34 30.26 41.74 29.12 47 30.52c-1.95-5.99-9.4-5.19-12.87-4.04 2.43-2 6.6-6.46 3.75-8.2-3.37-2.06-8.28-3.06-13.2-3.26-4.9-.2-10.38.93-12.33 1.62-1.78.63-1.43 1.28-1 1.64 1.3 1.04 4.17 3.35 5.11 4.24.95.9 3.04.7 3.97.5l6.12-.99h.02c.8-.16 2.13-.42 2.7.25.57.68 0 1.13-.48 1.22l-7.44 1.4c-1.21.24-1.12.92-.92 1.24l.67 1c.57.63 1.64.55 2.4.46l4.35-.67c.28-.04.87 0 1.06.53.18.53-.32.99-.6 1.15z" fill="#6DC24B"/></svg>