<!-- by TradingView --><svg xmlns="http://www.w3.org/2000/svg" width="56" height="56" viewBox="0 0 56 56"><path fill="#F0F3FA" d="M0 0h56v56H0z"/><path d="M10.8 32c-.74 3.44 0 6 5.7 6 2.75 0 8.44-.31 17.5-5-6.56 5-13.87 9-19.69 9C11.41 42 9 40.37 9 37.37c0-1 0-2.62 1.8-5.37ZM42.2 23c.74-3.44 0-6-5.7-6-2.75 0-8.44.31-17.5 5 6.56-5 13.88-9 19.69-9 2.9 0 5.31 1.63 5.31 4.63 0 1 0 2.62-1.8 5.37Z" fill="#087019"/><path d="M45.66 32c-2.7 0-4.66-1.62-4.66-4.49 0-2.76 2.12-4.46 4.66-4.51a4.8 4.8 0 0 1 2.34.56v1.64s-.88-.5-2.06-.5c-1.75 0-2.94 1.1-2.94 2.81 0 1.74 1.2 2.79 2.94 2.79 1.28 0 2.06-.6 2.06-.6v1.8s-.75.5-2.34.5ZM32.06 23h2l1.54 6 1.48-6H39l-2.2 9h-2.3L33 26l-1.5 6h-2.3L27 23h2.03l1.47 6 1.56-6Z" fill="#A50312"/><path fill-rule="evenodd" d="M18 32h2v-3h1.1c1.9 0 3.4-.92 3.4-2.98 0-2.64-2.22-3.02-3.94-3.02H18v9Zm4.5-6.06c0-.9-.74-1.24-1.6-1.24H20v2.6h1.1c.95 0 1.4-.47 1.4-1.36ZM7 32h2l.6-2h2.82l.58 2h2l-2.91-9H9.93L7 32Zm4.92-3.7-.92-3-.92 3h1.84Z" fill="#A50312"/></svg>