<!-- by TradingView --><svg width="56" height="56" viewBox="0 0 56 56" xmlns="http://www.w3.org/2000/svg"><path fill="#F0F3FA" d="M0 0h56v56H0z"/><path d="m15.8 19 4.08 11.47c.18.51.5 1.12 1.12 1.16V32h-4.3v-.37c.56-.02.92-.12 1.06-.3.16-.2.12-.6-.1-1.23l-3-8.87.26-.33-2.77 7.92c-.2.55-.32 1-.36 1.37-.04.37 0 .65.08.86.1.2.27.35.5.44.23.08.52.13.87.14V32H10v-.37c.23-.06.47-.2.7-.45.23-.25.46-.66.67-1.24L15.24 19H15.81Zm1.76 7.63V27H12.6l.16-.37h4.81ZM23.5 19l5.3.02c2.27 0 4.7 1.37 4.7 3.98 0 2.86-2.55 4-5.11 4h-1.82v-.37h1.63c2.18 0 3.3-1.63 3.3-3.63 0-1.93-.97-3.63-3.1-3.63-.53 0-.88.1-1.05.3-.16.22-.35.68-.35 1.31v9.07c0 1.3.77 1.54 2.02 1.56V32H23.5v-.37c1.14-.06 1.47-.49 1.47-1.58v-9.1c0-1.13-.32-1.55-1.47-1.58V19Z" fill="#636465"/><path d="M49 34.5 7 34v1l42-.5ZM37 25h1.5v.5h-1v6h1v.5H37v-7ZM48.5 25H47v.5h1v6h-1v.5h1.5v-7Z" fill="#720A11"/><path d="M43.42 26.06c.1.1.1.25.02.36l-1.84 2.06 2.33 2.6c.07.07.2.18.36.27.16.1.32.15.46.15s.3-.06.46-.15c.16-.1.3-.2.36-.28a.25.25 0 0 1 .36.36c-.1.1-.27.23-.47.35-.2.11-.45.22-.71.22-.26 0-.52-.1-.71-.22-.2-.12-.37-.26-.47-.35v-.01l-2.3-2.56-1.83 2.06a.25.25 0 0 1-.38-.34l1.87-2.1-1.87-2.06a.25.25 0 1 1 .38-.34l1.82 2.03 1.8-2.03c.1-.1.25-.1.36-.02Z" fill="#636465"/></svg>