<!-- by TradingView --><svg width="56" height="56" viewBox="0 0 56 56" xmlns="http://www.w3.org/2000/svg"><path fill="#F0F3FA" d="M0 0h56v56H0z"/><path d="M13.5 28h-2l1-3 1 3Z" fill="#1C3C6D"/><path fill-rule="evenodd" d="M22.42 21h2.27c1.26 0 2.31 1.24 2.31 2.55v3.54c0 1.3-.96 2.91-2.22 2.91H22.5c-1.26 0-2.5-1.6-2.5-2.9v-3.55c0-1.31 1.16-2.55 2.42-2.55ZM19 24.73v-1.18A3.48 3.48 0 0 1 22.42 20h2.27c1.9 0 3.31 1.59 3.31 3.55v3.54c0 1.96-1.34 3.91-3.22 3.91H22.5c-.96 0-1.86-.51-2.5-1.27V33h-1v-8.27Z" fill="#E57424"/><path d="M12 18.37c.2-.5.8-.5 1 0L18 31h-1.1l-4.2-10.35c-.08-.2-.32-.2-.4 0L8.1 31H7l5-12.63ZM36.88 20H38l-4.24 10.69C33.18 32.05 32.1 33 30.63 33c-.34 0-.69-.06-1.02-.14v-1.04c.51.05 1.05.05 1.54-.11a3.3 3.3 0 0 0 1.79-1.66L36.88 20Zm-6.76 0 3.64 8.86-.61 1.17L29 20h1.13ZM40.14 20 43 24.28 45.86 20H47l-3.43 5.5L47 31h-1.14L43 26.72 40.14 31H39l3.43-5.5L39 20h1.14Z" fill="#E57424"/><path d="M20.18 34h.56L22 37.3l1.26-3.3h.56l-1.57 4h-.5l-1.57-4ZM20 34h.5v4H20v-4Zm3.5 0h.5v4h-.5v-4ZM28 37.5v.5h-2.12v-.5H28ZM26 34v4h-.5v-4h.5Zm2 1.75v.5h-2.12v-.5H28ZM28 34v.5h-2.12V34H28ZM30.04 38h-.9v-.47h.9c.85 0 1.46-.57 1.46-1.41v-.24c0-.82-.57-1.4-1.4-1.4h-.98V34h.97c1.07 0 1.91.83 1.91 1.88v.24c0 1.09-.88 1.88-1.96 1.88Zm-.45-4v4H29v-4h.59ZM33.5 34v4H33v-4h.5ZM37.05 36.7h.57c-.1.87-.82 1.3-1.64 1.3-1.04 0-1.7-.8-1.7-1.8v-.4c0-1.02.7-1.8 1.75-1.8.82 0 1.5.46 1.59 1.3h-.57c-.09-.56-.45-.88-1.02-.88-.53 0-.95.3-1.1.82a2 2 0 0 0-.07.56v.4c0 .69.34 1.38 1.12 1.38.6 0 .97-.28 1.07-.87ZM40 34.4 38.57 38h-.59l1.66-4H40v.4Zm1.2 3.6-1.43-3.6-.01-.4h.38l1.65 4h-.58Zm0-1.42V37h-2.43v-.42h2.44ZM45 37.53V38h-2.16v-.47H45ZM43 34v4h-.5v-4h.5Z" fill="#1C3C6D"/></svg>