<!-- by TradingView --><svg width="56" height="56" viewBox="0 0 56 56" xmlns="http://www.w3.org/2000/svg"><path fill="#F0F3FA" d="M0 0h56v56H0z"/><path d="M25.83 22.03c-.28.02-.56.07-.83.16v7.75c.58.06 1.16.07 1.74.05.42-.01.84-.1 1.24-.27.36-.14.68-.4.9-.75.22-.34.34-.75.34-1.17a2 2 0 0 0-1.12-2l-.07-.02c-.04-.02-.08-.03-.11-.07v-.03l.14-.1c.65-.45.96-1.1.85-1.91-.1-.83-.6-1.3-1.3-1.53a4.59 4.59 0 0 0-1.76-.1h-.02Zm-.12 7.26-.01-.01v-3.2h.32c.47-.01.93-.02 1.4.13.52.18.92.5 1.04 1.11.17.8-.09 1.6-1.04 1.9a4.04 4.04 0 0 1-1.71.07Zm.37-3.86h-.38v-2.7c.86-.36 2.4-.05 2.51 1.05.05.27.02.55-.08.8-.11.24-.29.45-.5.58-.25.16-.53.25-.8.27h-.75ZM14 35h.65l.03-11H14v.2c0 .2 0 .46-.03.63-.15-.2-.34-.38-.55-.53-.94-.6-2.29-.28-2.99.7-.37.56-.58 1.21-.6 1.9a3.14 3.14 0 0 0 1.07 2.63c.3.22.63.37 1 .42.35.06.71.02 1.05-.11.34-.13.65-.35.9-.63.02-.03.09-.07.15-.03V35Zm-.06-8.64v.74c.02.3 0 .43-.04.74-.18.73-.57 1.24-1.29 1.41-.33.09-.68.05-1-.1-.3-.15-.57-.4-.74-.73-.14-.29-.24-.6-.27-.93a2.93 2.93 0 0 1 .24-1.8c.16-.36.42-.65.74-.82.33-.18.7-.23 1.06-.16.35.08.68.28.91.58.24.3.38.68.39 1.07ZM6.65 22h.63l2.64 7.99H9.2l-.9-2.7H5.6L4.72 30H4l2.65-8Zm-.35 3.2-.45 1.38h2.21c-.14-.47-.3-.93-.46-1.39-.23-.68-.46-1.35-.65-2.06-.18.7-.41 1.39-.65 2.07Zm27.56 3.75c.39-.57.58-1.27.56-1.99 0-.21-.02-.43-.05-.64-.21-1.43-1.17-2.35-2.46-2.32-.48 0-.94.16-1.34.45-.39.3-.7.7-.88 1.18-.23.63-.3 1.3-.2 1.97.18 1.41 1.09 2.3 2.17 2.38.41.05.84-.01 1.22-.2.39-.18.72-.46.98-.83Zm-1.26.22a1.54 1.54 0 0 1-2.09-.73 2.98 2.98 0 0 1-.03-2.84c.14-.28.35-.52.6-.69a1.57 1.57 0 0 1 1.69-.01c.25.16.47.39.61.67.5.95.45 2.27-.18 3.1-.16.21-.37.38-.6.5Zm-8.54.83h-.63c-.04-.1-.05-.23-.05-.36 0-.13 0-.26-.05-.35-.05 0-.08.03-.1.07a2 2 0 0 1-.99.59c-.36.08-.74.06-1.08-.06a1.47 1.47 0 0 1-.77-.65c-.18-.3-.25-.66-.22-1.02.02-.33.12-.64.29-.9.17-.28.4-.5.67-.63a3.5 3.5 0 0 1 1.42-.4l.52-.05.21-.01c0-.26-.03-.51-.09-.76-.06-.24-.2-.45-.4-.6a.96.96 0 0 0-.64-.2 2 2 0 0 0-1.37.43h-.06l-.22-.56a2.75 2.75 0 0 1 1.92-.53c1.16.12 1.59 1.3 1.58 2.31v2.8c.02.3.03.63.06.88Zm-.77-3.09a3.79 3.79 0 0 0-1.82.33c-.16.08-.3.21-.4.38-.1.16-.17.35-.18.55-.03.54.16 1 .69 1.13.13.03.27.04.4.02.3-.01.6-.14.83-.36.23-.21.4-.51.45-.84.03-.4.04-.8.02-1.2Zm28.7-2.9h-.7l-1.58 4.52c-.34-1.02-.71-2-1.08-2.97L48.05 24a4 4 0 0 1-.3 0l-.4.01c-.02.07 0 .12.02.16l.02.05.37 1 .27.71a545.3 545.3 0 0 1 1.26 3.4c0 .08 0 .14-.02.21a4 4 0 0 1-.7 1.26 1.4 1.4 0 0 1-.63.45c-.25.09-.51.1-.76.04l-.22-.06-.05-.02c-.07.2-.12.41-.16.62.37.18.78.22 1.17.12.6-.14 1.03-.55 1.37-1.07.27-.42.5-.87.67-1.35l1.4-3.75.62-1.64a.13.13 0 0 0 0-.14Zm-13.67 0 .62-.01H39c.02 1.92 0 6 0 6h-.64v-.88c-.07.01-.1.06-.13.1l-.03.04c-.24.31-.56.54-.91.66-.36.11-.73.1-1.08-.02-.58-.19-.91-.68-1.08-1.32-.08-.31-.13-.63-.13-.95v-3.48c0-.05 0-.1.03-.13h.6c.04.07.05.16.04.26v2.94c0 .3.02.6.06.9.18 1.05.97 1.5 1.77.99.25-.13.45-.35.6-.62.14-.27.21-.58.2-.9v-3.3c-.01-.09 0-.2.02-.29ZM40 30h.73V26.39c0-.35.1-.68.27-.97.18-.28.43-.5.71-.63.69-.29 1.53-.07 1.75.98.06.26.09.53.09.8v3.24c-.01.07-.02.13.02.18h.68v-3.17c0-.28 0-.56-.03-.85a2.33 2.33 0 0 0-.65-1.49c-.77-.73-2.04-.61-2.75.25l-.03.03c-.02.04-.05.08-.1.08l-.02-.35-.03-.49H40v6Zm-24.65-6H16v3.26c0 .33.04.65.1.96.25 1.1 1.03 1.2 1.65.97.3-.11.57-.33.75-.61.19-.29.28-.63.28-.98v-3.32c0-.09 0-.18.03-.27h.65c.02.74.01 1.5.01 2.28 0 1.25 0 2.5.05 3.71h-.65l-.05-.9-.05.06-.19.2c-.25.28-.57.48-.92.57-.35.1-.72.1-1.06-.03-.73-.23-1.07-.85-1.21-1.63a4.6 4.6 0 0 1-.08-.86v-3.2a.35.35 0 0 1 .04-.21Zm29.13.67h.82c.03.1.04.2.03.29v3.43c0 .28.05.56.13.82.08.27.26.49.48.62.49.26.98.19 1.49.01a2.9 2.9 0 0 0-.12-.6l-.3.06c-.1.03-.2.04-.31.04a.54.54 0 0 1-.4-.12.6.6 0 0 1-.21-.37 2.09 2.09 0 0 1-.07-.58V24.9a.35.35 0 0 1 .04-.22h1.07a3.79 3.79 0 0 0-.24-.68H46v-1h-.69v1h-.84a2.9 2.9 0 0 0 0 .67Z" fill="#09A7E1"/></svg>