<!-- by TradingView --><svg xmlns="http://www.w3.org/2000/svg" width="56" height="56" viewBox="0 0 56 56"><path fill="#F0F3FA" d="M0 0h56v56H0z"/><path d="M23.12 13h9.84c-1.36 0-2.87.1-4.34 2.79-.56 1.01-.96 2.12-1.4 3.2l-4.9 12.17c-1.29 3.23-1.2 7.19 1.7 9.4A7.4 7.4 0 0 0 27.6 42h-8.45c-3.9 0-6.47-3.25-6.64-6.81-.1-2 .8-3.66 1.51-5.47a499.5 499.5 0 0 1 5.52-13.73c1.12-2.47 2.85-3.02 3.58-2.99Z" fill="url(#ad2cxyxr1)"/><path d="M32.88 13h-9.84c1.36 0 2.87.1 4.34 2.79.56 1.01.96 2.12 1.4 3.2l4.9 12.17c1.29 3.23 1.2 7.19-1.7 9.4A7.4 7.4 0 0 1 28.4 42h8.45c3.9 0 6.47-3.25 6.64-6.81.1-2-.8-3.66-1.51-5.47a499.5 499.5 0 0 0-5.52-13.73c-1.12-2.47-2.85-3.02-3.58-2.99Z" fill="url(#bd2cxyxr1)"/><defs><linearGradient id="ad2cxyxr1" x1="22.73" y1="13" x2="22.73" y2="42" gradientUnits="userSpaceOnUse"><stop stop-color="#034D72"/><stop offset=".22" stop-color="#0085B6"/><stop offset=".47" stop-color="#01B0EB"/><stop offset=".6" stop-color="#01B1E7"/><stop offset=".78" stop-color="#0593C7"/><stop offset="1" stop-color="#0A5368"/></linearGradient><linearGradient id="bd2cxyxr1" x1="33.27" y1="13" x2="33.27" y2="42" gradientUnits="userSpaceOnUse"><stop stop-color="#888"/><stop offset=".13" stop-color="#CDCDCD"/><stop offset=".22" stop-color="#E3E3E3"/><stop offset=".51" stop-color="#D4D4D4"/><stop offset=".81" stop-color="#9D9D9D"/><stop offset="1" stop-color="#3A3A3A"/></linearGradient></defs></svg>