<!-- by TradingView --><svg width="56" height="56" viewBox="0 0 56 56" xmlns="http://www.w3.org/2000/svg"><path fill="#F0F3FA" d="M0 0h56v56H0z"/><path d="m7 32 10.54-17 9.91 17H22.9l-5.36-8.76-5.4 8.76H7Zm12.12-17 2.34 4h5.52c.9 0 1.62 1.11 1.62 2.03 0 .92-.72 1.97-1.62 1.97H23.5l5.4 9H34l-3.61-5.81c1.06-.37 3.18-2.01 3.18-5.68 0-4.6-3.27-5.51-4.97-5.51h-9.48Z" fill="url(#antw1bfgt)"/><path fill-rule="evenodd" d="M35 32V15h8.23c1.02 0 3.36 1.58 3.36 4.4 0 1.61-1.35 3.2-2.03 3.8A5.1 5.1 0 0 1 47 27.33c0 2.72-2.44 4.66-4.08 4.66H35Zm3-15h3.32C42.8 17 44 18.12 44 19.5S42.8 22 41.32 22H38v-5Zm0 7h3.32C42.8 24 44 25.34 44 27s-1.2 3-2.68 3H38v-6Z" fill="url(#bntw1bfgt)"/><path fill-rule="evenodd" d="M8 34h10v1h-3v5h3v1H8v-1h3v-5H8v-1Zm17.5 7c4.14 0 7.5-1.57 7.5-3.5S29.64 34 25.5 34c-4.14 0-7.5 1.57-7.5 3.5s3.36 3.5 7.5 3.5Zm0-2a1.5 1.5 0 1 0 0-3 1.5 1.5 0 0 0 0 3ZM44 34H33v3h3v-2h2v5h-2v1h8v-1h-2v-5h2v2h3v-3h-3Z"/><defs><linearGradient id="antw1bfgt" x1="8.9" y1="29.44" x2="31.82" y2="29.44" gradientUnits="userSpaceOnUse"><stop stop-color="#FF1202"/><stop offset=".58" stop-color="#910303"/><stop offset="1" stop-color="#FE1301"/></linearGradient><linearGradient id="bntw1bfgt" x1="36.25" y1="24.89" x2="45.81" y2="24.89" gradientUnits="userSpaceOnUse"><stop stop-color="#FF1503"/><stop offset="1" stop-color="#B50101"/></linearGradient></defs></svg>