<!-- by TradingView --><svg xmlns="http://www.w3.org/2000/svg" width="56" height="56" viewBox="0 0 56 56"><path fill="url(#av4npbmqo)" d="M0 0h56v56H0z"/><path fill-rule="evenodd" d="M32.5 23a5.5 5.5 0 1 1-.07 11h-.03a5.49 5.49 0 0 1-5.4-5.66V17.95c0-.53.46-.95 1-.95.52 0 1 .48 1 .95v6.32A5.44 5.44 0 0 1 32.5 23Zm0 9a3.5 3.5 0 1 0 0-7 3.5 3.5 0 0 0 0 7Zm-20.99-9A5.6 5.6 0 0 0 6 28.5c0 2.99 2.55 5.5 5.51 5.5 1.16 0 2.46-.33 3.49-1.23 0 .7.4 1.23 1 1.23a.97.97 0 0 0 1-1.03V28.3A5.4 5.4 0 0 0 11.5 23ZM15 28.5a3.5 3.5 0 1 1-7 0 3.5 3.5 0 0 1 7 0Zm4 .53c0-4.1 1.9-6.03 5.9-6.03.79 0 1.1.47 1.1 1.03 0 .53-.4.97-1.1.97-2.74 0-3.9 1.3-3.9 3.56V33c0 .6-.45 1-1 1s-1-.4-1-1v-3.97Zm30.97 1.3c-.68 2.16-3 3.67-5.47 3.67a5.5 5.5 0 1 1 0-11 5.3 5.3 0 0 1 4.66 2.66c.15.26.24.66.24.88 0 .59-.46 1.1-1.04 1.37l-6.46 2.94A3.1 3.1 0 0 0 44.31 32c1.42 0 2.83-.83 3.38-2.04.27-.58.74-.96 1.31-.96.57 0 1 .5 1 1.05v.01c0 .09 0 .18-.03.27Zm-2.81-4.1-6.13 2.75a3.5 3.5 0 0 1 6.12-2.75Z" fill="#fff"/><defs><linearGradient id="av4npbmqo" x1="-4.5" y1="8" x2="46" y2="56" gradientUnits="userSpaceOnUse"><stop offset=".31" stop-color="#0583FE"/><stop offset="1" stop-color="#04D8FE"/></linearGradient></defs></svg>