<!-- by TradingView --><svg width="56" height="56" viewBox="0 0 56 56" xmlns="http://www.w3.org/2000/svg"><path fill="#323232" d="M0 0h56v56H0z"/><ellipse cx="15.03" cy="30.87" rx=".56" ry=".55" fill="#F18E15"/><ellipse cx="26.8" cy="22.38" rx=".56" ry=".55" fill="#F1AC32"/><ellipse cx="31.37" cy="14.55" rx=".56" ry=".55" fill="#F1AC32"/><ellipse cx="13.07" cy="27.76" rx="1.07" ry="1.06" fill="#F18E15"/><ellipse cx="13.31" cy="23.96" rx="1.31" ry="1.3" fill="#F18E15"/><ellipse cx="22.49" cy="23.33" rx="1.53" ry="1.51" fill="#F1AC32"/><ellipse cx="16.34" cy="20.07" rx="1.99" ry="1.97" fill="#F18E15"/><ellipse cx="18.58" cy="27.56" rx="1.99" ry="1.97" fill="#F1AC32"/><ellipse cx="20.99" cy="17.33" rx="2.25" ry="2.22" fill="#F18E15"/><ellipse cx="23.01" cy="39.84" rx="2.52" ry="2.49" fill="#F1AC32"/><ellipse cx="29.48" cy="41.18" rx="2.86" ry="2.82" fill="#F1AC32"/><ellipse cx="35.65" cy="38.74" rx="2.7" ry="2.67" fill="#F1AC32"/><ellipse cx="39.89" cy="33.92" rx="2.7" ry="2.67" fill="#F1AC32"/><ellipse cx="41.63" cy="27.6" rx="2.37" ry="2.35" fill="#F1AC32"/><ellipse cx="26.38" cy="17.1" rx="2.25" ry="2.22" fill="#F18E15"/><ellipse cx="31.54" cy="19.32" rx="2.25" ry="2.22" fill="#F18E15"/><ellipse cx="18.58" cy="34.97" rx="2.25" ry="2.22" fill="#F1AC32"/><ellipse cx="34.59" cy="23.77" rx="2.15" ry="2.12" fill="#F18E15"/><ellipse cx="34.21" cy="29.25" rx="2.02" ry="2" fill="#F18E15"/><ellipse cx="39.89" cy="21.34" rx="2.02" ry="2" fill="#F1AC32"/><ellipse cx="36.23" cy="16.19" rx="1.33" ry="1.31" fill="#F1AC32"/><ellipse cx="30.76" cy="33.67" rx="1.69" ry="1.67" fill="#F18E15"/><ellipse cx="25.65" cy="34.59" rx="1.3" ry="1.28" fill="#F18E15"/><ellipse cx="22.03" cy="31.31" rx=".7" ry=".69" fill="#F18E15"/></svg>