<!-- by TradingView --><svg width="56" height="56" xmlns="http://www.w3.org/2000/svg"><path fill="#91ABBF" d="M0 0h56v56H0z"/><path fill-rule="evenodd" d="M27.5 44.994c9.113 0 16.5-7.547 16.5-16.856 0-9.309-7.387-16.855-16.5-16.855S11 18.829 11 28.138c0 9.31 7.387 16.856 16.5 16.856zm.665-1.088c8.158 0 14.77-6.755 14.77-15.088 0-8.333-6.612-15.089-14.77-15.089-8.157 0-14.77 6.756-14.77 15.089s6.613 15.088 14.77 15.088z" fill="#fff"/><path fill-rule="evenodd" d="M13.96 47.282c4.018 2.922 13.291-3.342 20.712-13.991 7.42-10.65 10.178-21.651 6.16-24.573-4.02-2.922-13.292 3.342-20.713 13.991C12.7 33.36 9.941 44.36 13.96 47.282zm.571-2.154c3.37 2.45 11.617-3.48 18.421-13.244 6.804-9.765 9.589-19.667 6.219-22.117-3.37-2.45-11.617 3.48-18.421 13.244-6.804 9.765-9.588 19.667-6.219 22.117z" fill="#fff"/></svg>