<!-- by TradingView --><svg xmlns="http://www.w3.org/2000/svg" width="56" height="56"><path fill="url(#ahmd3fupu)" d="M0 0h56v56H0z"/><path d="M15 42h7.6c.78-2.39 3.25-8.08 6.87-11.74L33.16 41H30v1h11v-1h-2.95l-4.78-14.18c1.64-1.43 6.67-4.62 13.73-5.91-2.01-.03-7.65.82-14.1 4.48L27.93 11 17.8 41H15v1zm5.24-4.82l5.85-17.03 2.77 8.03a46.38 46.38 0 00-8.62 9z" fill="url(#bhmd3fupu)"/><defs><linearGradient id="ahmd3fupu" x1="10.42" y1="9.71" x2="68.15" y2="76.02" gradientUnits="userSpaceOnUse"><stop stop-color="#1A1E21"/><stop offset="1" stop-color="#06060A"/></linearGradient><linearGradient id="bhmd3fupu" x1="31" y1="11" x2="31" y2="42" gradientUnits="userSpaceOnUse"><stop stop-color="#fff"/><stop offset="1" stop-color="#BABBC0"/></linearGradient></defs></svg>