<!-- by TradingView --><svg xmlns="http://www.w3.org/2000/svg" width="56" height="56" viewBox="0 0 56 56"><path fill="#F47F22" d="M0 0h56v56H0z"/><path d="M17.16 31l5.2-15.3a5.75 5.75 0 0 1 5.52-3.7c3.34 0 4.63 2.25 5.28 3.7L43 42h-5a1 1 0 0 1-.93-.67l-8.1-22.84c-.1-.3-.48-.88-1.12-.89-.74-.01-1.06.67-1.14.85l-.02.04-.99 3.04c-.91 2.83-2.25 6.97-3.08 9.47h-5.46zM11 31h5v3.5a3.5 3.5 0 0 0 3.5 3.5h1a3.5 3.5 0 0 0 3.5-3.5V31h5v3.5a7.5 7.5 0 0 1-7.5 7.5h-3a7.5 7.5 0 0 1-7.5-7.5V31z" fill="#fff"/></svg>