<!-- by TradingView --><svg xmlns="http://www.w3.org/2000/svg" width="56" height="56" viewBox="0 0 56 56"><path fill="#F0F3FA" d="M0 0h56v56H0z"/><path fill-rule="evenodd" d="M6.72 26 4 31h1.14l.54-1h3.26l.54 1h1.14L7.9 26H6.72Zm.59 1.01L8.39 29H6.23l1.08-1.99ZM41.72 26 39 31h1.14l.54-1h3.26l.54 1h1.14l-2.72-5h-1.18Zm.59 1.01L43.39 29h-2.16l1.08-1.99ZM12.17 26H11v5h1v-3.56l2.31 3.06h.33L17 27.37V31h1v-5h-1.22l-2.3 3.05L12.16 26ZM19 26h5v1h-4v1h2.5v1H20v1h4v1h-5v-5Zm6 0h4.2c.44 0 .8.36.8.8v1.4a.8.8 0 0 1-.8.8h-.7l2 2h-1.41l-2-2H26v2h-1v-5Zm1 2v-1h2.7c.17 0 .3.13.3.3v.4a.3.3 0 0 1-.3.3H26Zm6-2h-1v5h1v-5Zm1 .8c0-.44.36-.8.8-.8h3.9c.44 0 .8.36.8.8v.87l-1 .32V27H34v3h3.5v-.83l1 .17v.86a.8.8 0 0 1-.8.8h-3.9a.8.8 0 0 1-.8-.8v-3.4Zm13.5-.8H46v5h1v-3.3l3.5 3.3h1v-5h-1v3.5l-4-3.5Z" fill="#0072BB"/></svg>