<!-- by TradingView --><svg width="56" height="56" xmlns="http://www.w3.org/2000/svg"><path fill="#F0F3FA" d="M0 0h56v56H0z"/><path d="M14.258 19.044c-.75-2.064.313-4.09.938-4.847 1.5-1.625 4.168-1.25 5.315-.86C21.657 13.73 32 24.282 32 24.282v1.876l-1.47 4.174c-.625 1.25-3.298 1.297-4.627.985-3.569-3.231-10.895-10.209-11.645-12.272z" fill="url(#paint0_linear)"/><path d="M35.023 13.643c1.638-1.501 4.694.021 5.161.582 2.056 1.833 2.201 4.176 1.255 5.274-.946 1.099-10.36 10.613-10.36 10.613-1.264 1.275-3.127 2.99-5.189 1.32-2.062-1.672-6.748-6.566-6.748-6.566 2.616.428 3.764.09 4.515-.526 0 0 9.728-9.195 11.366-10.697z" fill="#91C654"/><circle cx="28" cy="40" r="5" fill="#13699F"/><defs><linearGradient id="paint0_linear" x1="14.373" y1="16.998" x2="32" y2="24.877" gradientUnits="userSpaceOnUse"><stop stop-color="#8ABE52"/><stop offset="1" stop-color="#17763E"/></linearGradient></defs></svg>