<!-- by TradingView --><svg xmlns="http://www.w3.org/2000/svg" width="56" height="56" viewBox="0 0 56 56"><path fill="#1E382F" d="M0 0h56v56H0z"/><path d="M8.27 28c.05 0 .05-.04.03-.07l-.89-2.46c-.05-.13-.1-.13-.14 0l-.83 2.46c-.02.04 0 .07.03.07h1.8zm-.98-3.65c.11-.3.15-.35.2-.35.06 0 .1.05.21.33l.41 1.03 1.78 4.45c.34.8.62.95.81 1 .13.04.25.06.38.06.06 0 .1.01.1.06 0 .05-.09.07-.2.07H9.52c-.18 0-.28-.03-.28-.08 0-.04.02-.06.06-.07.06-.01.12-.1.06-.24l-.88-2.24a.08.08 0 0 0-.08-.05H6.36a.1.1 0 0 0-.09.07L5.71 30c-.08.2-.12.4-.13.6 0 .19.2.27.35.27h.1c.06 0 .09.02.09.06 0 .05-.06.07-.14.07h-1.8c-.12 0-.18-.02-.18-.07 0-.04.04-.06.08-.06.07 0 .2 0 .28-.02.43-.05.62-.4.79-.85l2.14-5.65zm7.49 3.2a.12.12 0 0 1-.02-.06v-3.02a.11.11 0 0 1 .08-.11c.2-.04.42-.06.63-.06 1 0 1.63.7 1.63 1.85 0 .7-.24 1.2-.58 1.43-.2.12-.45.18-.7.17-.34.01-.67-.04-1-.15a.12.12 0 0 1-.04-.04zM14 24.7v3.62c0 .89 0 1.62-.05 2-.03.27-.08.48-.27.51-.1.02-.19.04-.28.04-.06 0-.08.03-.08.06 0 .05.05.08.15.08h2.05c.1 0 .15-.04.15-.08 0-.03-.02-.06-.08-.06a4.2 4.2 0 0 1-.42-.04c-.28-.03-.34-.24-.37-.5-.05-.4-.05-1.12-.05-2v-.23c0-.05.02-.07.07-.07l1.16.01a.15.15 0 0 1 .12.06c.08.1.22.28.37.5l.66.87.11.14c.47.62.78 1.02 1.16 1.22.31.14.68.18 1 .18h.68c.16 0 .22-.03.22-.08 0-.03-.03-.06-.08-.06-.12 0-.25 0-.37-.03a1.96 1.96 0 0 1-1.15-.66 31.9 31.9 0 0 1-1.68-2.02l-.27-.34c.84-.77 1.13-1.46 1.13-2.14a1.62 1.62 0 0 0-.64-1.25A3.32 3.32 0 0 0 15.5 24h-2.17c-.1 0-.15.03-.15.08 0 .04.04.06.07.06.11 0 .22 0 .33.02.3.07.4.22.41.53zm14.33 2c0-1.45 0-1.71.02-2 .02-.33.1-.49.35-.53l.24-.03c.04 0 .07-.02.07-.06 0-.05-.05-.07-.15-.07H26.87c-.1 0-.15.02-.15.07 0 .04.04.06.08.06.1 0 .21 0 .32.03.31.06.39.21.4.52.02.3.02.63.02 2.07v.2c0 .04-.02.05-.05.05h-4c-.02 0-.05 0-.05-.05v-.2c0-1.44 0-1.77.02-2.07.01-.32.09-.48.34-.52l.24-.03c.04 0 .07-.02.07-.06 0-.05-.04-.07-.15-.07H21.97c-.1 0-.15.02-.15.07 0 .04.04.06.08.06.1 0 .21 0 .32.03.31.06.39.21.4.52.02.3.02.56.02 2v1.64c0 .88 0 1.62-.04 2-.04.27-.09.48-.28.51-.09.02-.18.04-.28.04-.06 0-.07.03-.07.06 0 .05.04.07.15.07h2.08c.1 0 .15-.03.15-.07 0-.03-.02-.06-.08-.06l-.42-.04c-.28-.03-.34-.24-.37-.5-.04-.4-.04-1.06-.04-1.94v-.98c0-.04.02-.05.05-.05h4a.05.05 0 0 1 .05.03v1c0 .88 0 1.55-.05 1.93-.04.27-.08.48-.27.51-.1.02-.19.04-.28.04-.06 0-.08.03-.08.06 0 .05.05.07.15.07h2.09c.1 0 .15-.03.15-.07 0-.03-.02-.06-.08-.06l-.42-.04c-.28-.03-.34-.24-.37-.5-.05-.4-.05-1.13-.05-2.01v-1.64zm12.5 3.66c-.46-.42-.83-1.06-.83-2.38v-1.33l-.01-1.97c-.02-.3-.1-.45-.4-.52l-.33-.02c-.04 0-.08-.02-.08-.06 0-.05.05-.07.15-.07H41.36c.1 0 .15.02.15.07 0 .04-.04.06-.07.06-.08 0-.16 0-.24.02-.26.04-.33.2-.35.52-.02.3-.02.55-.02 1.97v1.27c0 1.31.3 1.87.71 2.25a1.9 1.9 0 0 0 1.43.5 2.03 2.03 0 0 0 1.5-.66c.43-.52.53-1.3.53-2.23V24.67c-.02-.3-.1-.45-.41-.52l-.33-.02c-.04 0-.07-.02-.07-.06 0-.05.04-.07.15-.07h1.8c.1 0 .15.02.15.07 0 .04-.04.06-.07.06-.08 0-.16 0-.24.02-.26.06-.33.2-.35.52-.02.3-.02.55-.02 1.97v.97c0 .98-.11 2.07-.87 2.72-.54.46-1.24.7-1.95.67a3 3 0 0 1-1.96-.65zm8.88.65c-.45.01-.89-.07-1.3-.24-.13-.06-.14-.1-.14-.34 0-.35.02-.64.04-.82v-.12c.01-.1.03-.15.08-.15.06 0 .07.03.07.1 0 .11 0 .22.03.33.14.66.78.91 1.43.91a1.34 1.34 0 0 0 .97-.3 1.22 1.22 0 0 0 .42-.89c0-.61-.28-.97-1.12-1.6l-.43-.33c-1.03-.78-1.26-1.34-1.26-1.94 0-.96.77-1.61 2-1.61.31 0 .61.03.9.09.12.03.23.04.35.04.08 0 .1.02.1.07v.06c-.02.12-.04.4-.04.88 0 .14-.02.2-.07.2-.06 0-.07-.04-.08-.1-.02-.16-.06-.31-.13-.45-.05-.1-.31-.48-1.2-.48a1.14 1.14 0 0 0-.85.27 1.04 1.04 0 0 0-.35.77c0 .5.25.83 1.18 1.5l.27.2c1.15.82 1.42 1.38 1.42 2.1 0 .28-.08.57-.22.83-.15.26-.35.48-.6.64-.45.26-.96.4-1.47.38zm-14.4-3.07c0 .03 0 .07-.04.07h-1.8c-.03 0-.05-.03-.03-.07l.83-2.46c.05-.13.1-.13.14 0l.9 2.46zM34.48 24c-.05 0-.09.05-.2.35L32.15 30c-.17.46-.36.8-.8.85l-.27.02c-.04 0-.08.02-.08.06 0 .05.06.07.18.07h1.8c.08 0 .14-.02.14-.07 0-.04-.03-.06-.1-.06h-.09c-.16 0-.35-.08-.35-.26 0-.21.05-.42.13-.61l.56-1.6a.1.1 0 0 1 .1-.08h2.02a.08.08 0 0 1 .08.05l.88 2.24c.06.14 0 .23-.06.24-.04.01-.06.03-.06.07 0 .05.1.07.28.08h1.48c.1 0 .19-.02.19-.07s-.04-.06-.1-.06c-.13 0-.25-.02-.38-.05-.2-.06-.47-.2-.8-1.01-.41-.98-1.27-3.14-1.79-4.45l-.4-1.03c-.12-.28-.16-.33-.22-.33z" fill="#fff"/></svg>