<!-- by TradingView --><svg width="56" height="56" viewBox="0 0 56 56" xmlns="http://www.w3.org/2000/svg"><path fill="#F0F3FA" d="M0 0h56v56H0z"/><path d="m5 32 4.56-8h2.87L17 32h-3.04l-3.56-6.9h1.15L7.98 32H5Zm2.7-1 .76-2h5.04l.75 2H7.71ZM32.5 30v-3l4-3H40l-7.5 6ZM30 32v-8h3v8h-3Zm6.5 0-3-3.5 2-1.5 4.5 5h-3.5Z" fill="#02178C"/><path fill-rule="evenodd" d="M18 24v8h3v-2h3c.33 0 1 .2 1 1v1h3.5c-.17 0-.5-.7-.5-1.5v-1c0-.33-.2-1-1-1 .33 0 1-.4 1-2 0-2-1-2.5-3-2.5h-7Zm3 2v2h3c.5 0 1-.4 1-1s-.5-1-1-1h-3Z" fill="#02158B"/><path d="M45 24h2c2.5 0 4 .89 4 3.11v1.78c0 .89-1 3.11-4 3.11h-2c-2.5 0-4-.98-4-3.11V27.1c0-1.33 1.5-3.11 4-3.11Zm1 2c-1.5 0-2 .7-2 1.5v1c0 .8.4 1.5 2 1.5s2-.7 2-1.5v-1c0-.8-.5-1.5-2-1.5Z" fill="#02158B"/></svg>