<!-- by TradingView --><svg width="56" height="56" viewBox="0 0 56 56" xmlns="http://www.w3.org/2000/svg"><path fill="#0090BF" d="M0 0h56v56H0z"/><path d="M16 22h3v12h-3v-1.9a3.91 3.91 0 0 1-3.5 1.9C9.63 34 7 31.37 7 28c-.04-3.33 2.64-6.06 5.5-6A3.9 3.9 0 0 1 16 23.9V22Zm0 6c0-2.1-1.3-3.48-3-3.48-1.89 0-3 1.76-3 3.48 0 1.97 1.26 3.48 3 3.48 1.7 0 3-1.38 3-3.48ZM30 22.36l-1.23 2.43c-.41-.11-.79-.29-1.65-.29-1.93 0-2.12 1.64-2.12 3.57V34h-3V22h3v1.29c.91-1.1 1.82-1.29 3.3-1.29.55 0 1.35.23 1.7.36ZM49 27.4V34h-3v-6.4c0-1.97-.7-3.01-1.98-3.01-1.3 0-2.02 1.37-2.02 3.3V34h-3v-6.4c0-1.97-.46-3.01-1.74-3.01-1.65 0-2.26 1.95-2.26 3.3V34h-3V22h3v1.98A3.13 3.13 0 0 1 37.85 22c1.55 0 2.7.8 3.34 2.28.64-1.39 1.8-2.28 3.37-2.28C47 22 49 24.02 49 27.4Z" fill="#FEFFFF"/></svg>