<!-- by TradingView --><svg width="56" height="56" viewBox="0 0 56 56" xmlns="http://www.w3.org/2000/svg"><path fill="#6D0020" d="M0 0h56v56H0z"/><path d="M20.12 23H5c0 1.14 1.02 1.5 1.5 1.5h12.36l1.2 4H7.8C6.66 28.5 6 29.52 6 30h14.5c.23.45 1 3 1 3H23l-2.88-10Z" fill="#fff"/><path d="M18 26H6c0 .8 1 1.5 1.5 1.5h9c1.2 0 1.5-1.17 1.5-1.5ZM17 31.5H6.5C5.3 31.5 5 32.52 5 33h10.5c1.2 0 1.5-1.02 1.5-1.5Z" fill="#fff"/><path d="M44.38 31.66 46 26h.72l.05 1.2L45 33h-.72l.1-1.34ZM43 26l1.67 5.64V33H44l-2-7h1Zm5.34 5.62L50 26h1l-2 7h-.67l.01-1.38ZM47 26l1.63 5.68.09 1.32H48l-1.77-5.81.07-1.19h.7ZM30 26h2.37c1.31 0 2.38.71 2.38 2.11 0 .97-.54 1.71-1.45 2.03l-.38.22h-2.1V29.3h1.56c.67 0 1.14-.45 1.14-1.12 0-.7-.45-1.19-1.15-1.19H31v6h-1v-7Zm3.68 7-1.5-3.13h1.3L35 33h-1.32ZM24 26h2.37c1.31 0 2.38.71 2.38 2.11 0 .97-.54 1.71-1.45 2.03l-.38.22h-2.1V29.3h1.56c.67 0 1.14-.45 1.14-1.12 0-.7-.45-1.19-1.15-1.19H25v6h-1v-7Zm3.68 7-1.5-3.13h1.3L29 33h-1.32ZM41 29.33v.35c0 1.53-.71 3.32-2.5 3.32-1.77 0-2.5-1.8-2.5-3.32v-.35c0-1.53.72-3.33 2.5-3.33 1.77 0 2.5 1.8 2.5 3.33Zm-1 .35v-.36c0-.9-.34-2.32-1.5-2.32-1.15 0-1.5 1.43-1.5 2.32v.36c0 .89.35 2.32 1.5 2.32 1.16 0 1.5-1.44 1.5-2.32Z" fill="#FFFBFD"/></svg>