<!-- by TradingView --><svg xmlns="http://www.w3.org/2000/svg" width="56" height="56" viewBox="0 0 56 56"><path fill="url(#aqecgka3c)" d="M0 0h56v56H0z"/><path d="M38.75 38.61l3.18 2.87a14.56 14.56 0 0 1-4.2 3.22l-2.01-3.71 3.03-2.38zm.56-20.5a14.98 14.98 0 0 1-.15 19.86l-3.32-2.99a10.57 10.57 0 0 0-.66-14.65 10.48 10.48 0 1 0-2.28 16.96l2.09 3.92a14.89 14.89 0 0 1-18.64-3.78 14.98 14.98 0 0 1 2.03-20.95 15.04 15.04 0 0 1 20.93 1.64z" fill="#fff"/><defs><linearGradient id="aqecgka3c" x1="10.42" y1="9.71" x2="68.15" y2="76.02" gradientUnits="userSpaceOnUse"><stop stop-color="#1A1E21"/><stop offset="1" stop-color="#06060A"/></linearGradient></defs></svg>