<!-- by TradingView --><svg xmlns="http://www.w3.org/2000/svg" width="56" height="56"><path fill="#F0F3FA" d="M0 0h56v56H0z"/><path fill-rule="evenodd" d="M9 33l2.69-15h2.53L17 33h-2l-.42-2.5h-3.16L11 33H9zm4-12l-1.25 7.5h2.5L13 21zm22.5 12h-2l2.7-15h2.52l2.78 15h-2l-.42-2.5h-3.16L35.5 33zm2-12l-1.24 7.5h2.5L37.5 21zM18 18h3.5a3.5 3.5 0 013.5 3.5V24a3.5 3.5 0 01-1.78 3.05L25.5 33h-2.23l-2.12-5.5H20V33h-2V18zm2 2h1.2c1 0 1.8.8 1.8 1.8v1.9c0 1-.8 1.8-1.8 1.8H20V20zm9.5-2H26v15h2v-5.5h1.15l2.12 5.5h2.23l-2.28-5.95A3.5 3.5 0 0033 24v-2.5a3.5 3.5 0 00-3.5-3.5zm-.3 2H28v5.5h1.2c1 0 1.8-.8 1.8-1.8v-1.9c0-1-.8-1.8-1.8-1.8zM40 18l3 9.94V33h2v-5.06L48 18h-2l-2 7-2-7h-2z" fill="#F9B512"/><path d="M9.4 37.97V35.6H9v-.56h1.48v.56h-.4v2.38H9.4zm2.68 0v-2.94h1.35v.57h-.66v.57h.63v.55h-.63v.68h.7v.57h-1.39zm3.82.03a.85.85 0 01-.6-.2.72.72 0 01-.21-.56v-1.36c0-.29.06-.5.2-.66.13-.15.34-.22.63-.22.24 0 .44.06.6.18.15.12.22.29.22.51v.51h-.67v-.44c0-.08 0-.14-.03-.17s-.07-.05-.12-.05c-.06 0-.1.02-.13.06a.33.33 0 00-.03.16v1.48c0 .07.01.13.04.17.02.03.06.05.12.05.1 0 .15-.08.15-.22v-.54h.68v.56c0 .5-.28.74-.85.74zm2.49-.03v-2.94h.67v1.05h.32v-1.05h.67v2.94h-.67v-1.33h-.32v1.33h-.67zm3.37 0v-2.94h.7l.3 1.4v-1.4h.66v2.94h-.66l-.34-1.47v1.47h-.66zm4.18.03c-.27 0-.48-.07-.62-.22a.85.85 0 01-.21-.61v-1.4c0-.26.07-.45.2-.57.15-.13.36-.2.63-.2s.48.07.62.2c.14.12.21.31.21.57v1.4c0 .27-.07.47-.21.61-.14.15-.35.22-.62.22zm0-.54c.06 0 .1-.02.12-.07a.47.47 0 00.03-.2v-1.43a.33.33 0 00-.03-.16c-.02-.04-.06-.06-.12-.06-.11 0-.17.08-.17.22v1.44c0 .09.01.15.04.2.02.04.07.06.13.06zm2.52.51v-2.94h.67v2.44h.7v.5h-1.37zm3.78.03c-.28 0-.48-.07-.62-.22a.85.85 0 01-.22-.61v-1.4c0-.26.08-.45.22-.57.14-.13.34-.2.62-.2.27 0 .48.07.62.2.14.12.21.31.21.57v1.4c0 .27-.07.47-.21.61-.14.15-.35.22-.62.22zm0-.54c.06 0 .1-.02.12-.07a.47.47 0 00.03-.2v-1.43a.33.33 0 00-.03-.16c-.02-.04-.06-.06-.12-.06-.11 0-.17.08-.17.22v1.44c0 .09.01.15.04.2.02.04.06.06.13.06zm3.21.54c-.24 0-.42-.07-.54-.22-.12-.15-.18-.38-.18-.69v-1.26c0-.28.07-.48.2-.62.15-.14.35-.21.63-.21.22 0 .4.04.52.12.12.07.2.19.25.34.05.14.07.34.07.57h-.66v-.27a.32.32 0 00-.03-.16c-.02-.04-.06-.06-.12-.06-.13 0-.2.07-.2.22v1.43c0 .09.02.15.05.2.02.05.07.07.13.07.07 0 .11-.02.14-.07a.42.42 0 00.04-.2v-.42h-.18v-.51h.82v1.71h-.27l-.11-.24c-.12.18-.3.27-.56.27zm2.6-.03v-2.94h.65v2.94h-.65zm2.33 0v-2.94h1.35v.57h-.66v.57h.63v.55h-.63v.68h.7v.57h-1.39zm3.83.03c-.3 0-.52-.07-.66-.2s-.2-.35-.2-.64v-.29H44v.37c0 .15.05.22.16.22.06 0 .1-.02.13-.05.02-.03.03-.08.03-.15 0-.1-.01-.18-.04-.24a.46.46 0 00-.1-.16 2.58 2.58 0 00-.22-.2l-.29-.25c-.22-.2-.33-.4-.33-.64 0-.25.06-.44.2-.57.13-.13.32-.2.57-.2.3 0 .53.07.66.21.13.14.2.36.2.66h-.69v-.2a.12.12 0 00-.04-.1c-.02-.02-.06-.03-.1-.03-.05 0-.1.01-.12.04a.14.14 0 00-.04.1c0 .1.06.2.19.3l.4.33.22.22c.06.07.1.15.15.25.03.1.05.2.05.34 0 .29-.06.5-.18.66-.13.15-.33.22-.6.22z"/></svg>