<!-- by TradingView --><svg width="56" height="56" viewBox="0 0 56 56" xmlns="http://www.w3.org/2000/svg"><path fill="#F0F3FA" d="M0 0h56v56H0z"/><path d="m20 27-3.31 8-5.64-16.7c-.22-.64.3-1.3 1.02-1.3h3.43c.47 0 1.36.58 1.5 1l3 9Z" fill="url(#ad1npwpf5)"/><path d="m20 27-3 7.1-4.95-15.84c-.22-.63.3-1.26 1.04-1.26h2.75c.48 0 .9.28 1.04.68L20 27Z" fill="url(#bd1npwpf5)"/><path d="M44.5 17h-4.11a.5.5 0 0 0-.48.36l-5.89 20a.5.5 0 0 0 .48.64h4.11a.5.5 0 0 0 .48-.36l5.89-20a.5.5 0 0 0-.48-.64Z" fill="url(#cd1npwpf5)"/><path d="M44.5 17h-3.1a.5.5 0 0 0-.47.36l-5.9 20a.5.5 0 0 0 .47.64h3.1a.5.5 0 0 0 .47-.36l5.9-20a.5.5 0 0 0-.47-.64Z" fill="url(#dd1npwpf5)"/><path d="M31.1 29h-1.04l-2.58-7h1.55v1l2.06 6Z" fill="url(#ed1npwpf5)"/><path d="M17.7 40h-1.03a.5.5 0 0 1-.49-.66l7.88-22c.08-.2.27-.34.5-.34h1.02a.51.51 0 0 0-.48.34l-7.89 22a.5.5 0 0 0 .49.66Z" fill="url(#fd1npwpf5)"/><path fill-rule="evenodd" d="M17.7 40h3.9l2.58-7h7.94l1.03 2.5 2.06-7-4.2-11.16a.51.51 0 0 0-.5-.34h-4.93a.51.51 0 0 0-.48.34l-7.89 22a.5.5 0 0 0 .49.66Zm10.26-17.78L25.73 29h5.15l-2.22-6.78c-.12-.3-.59-.3-.7 0Z" fill="#115830"/><path d="M32.12 33H31.1l1.03 2.5h1.03L32.12 33Z" fill="url(#gd1npwpf5)"/><path fill="#C4C5CA" d="M25 39h18v1H25z"/><defs><linearGradient id="ad1npwpf5" x1="12.27" y1="17" x2="16.41" y2="31.24" gradientUnits="userSpaceOnUse"><stop stop-color="#69696B"/><stop offset="1" stop-color="#C9C9C9"/></linearGradient><linearGradient id="bd1npwpf5" x1="13.29" y1="17" x2="17.16" y2="30.9" gradientUnits="userSpaceOnUse"><stop stop-color="#DCDCDC"/><stop offset="1" stop-color="#A1A1A3"/></linearGradient><linearGradient id="cd1npwpf5" x1="43.62" y1="17" x2="35.56" y2="37.67" gradientUnits="userSpaceOnUse"><stop stop-color="#E1E1E1"/><stop offset="1" stop-color="#757378"/></linearGradient><linearGradient id="dd1npwpf5" x1="43.62" y1="17" x2="35.57" y2="37.69" gradientUnits="userSpaceOnUse"><stop stop-color="#9FA0A2"/><stop offset="1" stop-color="#CDCDCD"/></linearGradient><linearGradient id="ed1npwpf5" x1="28" y1="22.5" x2="30.44" y2="29.05" gradientUnits="userSpaceOnUse"><stop stop-color="#114425"/><stop offset="1" stop-color="#1F7B4A"/></linearGradient><linearGradient id="fd1npwpf5" x1="28" y1="17" x2="20.68" y2="39.63" gradientUnits="userSpaceOnUse"><stop stop-color="#24804F"/><stop offset=".54" stop-color="#247C4E"/><stop offset="1" stop-color="#135E35"/></linearGradient><linearGradient id="gd1npwpf5" x1="32.12" y1="33" x2="32.12" y2="35.5" gradientUnits="userSpaceOnUse"><stop stop-color="#113F24"/><stop offset="1" stop-color="#224833"/></linearGradient></defs></svg>