<!-- by TradingView --><svg xmlns="http://www.w3.org/2000/svg" width="56" height="56" viewBox="0 0 56 56"><path fill="#1C558C" d="M0 0h56v56H0z"/><path d="M51 27.52c-.6-.3-1.22-.52-1.9-.52-1.33 0-2.17.65-2.17 1.6 0 .6.4 1.09 1.31 1.5l1.09.51c.47.21.67.47.67.84 0 .38-.4.77-1.1.77a2.6 2.6 0 0 1-.99-.2c-.24-.09-.4-.18-.77-.44l-.43.77c.66.39 1.3.66 2.07.65 1.34 0 2.22-.65 2.22-1.66 0-.7-.42-1.1-1.54-1.63-1.12-.53-1.3-.64-1.47-.89a.51.51 0 0 1-.08-.3c0-.44.41-.7 1.17-.7.28 0 .56.04.83.11.27.07.52.19.75.35l.34-.76Zm-7.84 3h-2.02l1.02-2.55 1 2.55ZM45.04 33l-2.43-6h-.93l-2.43 6h.95l.67-1.74h2.55l.7 1.74h.92ZM37 33v-6h-1v4.6c-.03-.19-.11-.37-.23-.52L32.47 27h-.97v6h1v-4.55c.04.15.16.3.36.55l3.2 4H37Zm-9-6h-1v6h1v-6Zm-3.42 0h-1.02l-1.67 4.26a.62.62 0 0 0-.08.27c0-.1-.01-.18-.06-.27L19.96 27h-1.02l2.59 6h.5l2.55-6Zm-8.34 1.66c0 .32-.1.54-.33.73-.23.19-.38.24-.99.24H14v-1.87h.92c.68 0 .76.01.95.15.2.14.37.42.37.75ZM17.5 33l-1.64-2.69c.83-.13 1.39-.8 1.39-1.68 0-1.06-.79-1.63-2.22-1.63H13v6h1v-2.61h.84L16.41 33h1.1Zm-8.6-2.48H6.9l1.02-2.55 1 2.55ZM10.8 33l-2.42-6h-.94L5 33h.95l.67-1.74h2.55L9.86 33h.93Z" fill="#fff"/><path d="M27.58 25.65a2.79 2.79 0 0 0 2.6-1.74 2.84 2.84 0 0 0-2.05-3.86 2.78 2.78 0 0 0-2.88 1.21 2.84 2.84 0 0 0 2.33 4.39Z" fill="#F58220"/><path d="M34.4 25.67a2.1 2.1 0 0 0 1.95-1.3 2.13 2.13 0 0 0-1.53-2.9 2.09 2.09 0 0 0-2.16.9 2.13 2.13 0 0 0 1.75 3.3Z" fill="#F89848"/><path d="M40 25.67a1.57 1.57 0 0 0 1.46-.98 1.6 1.6 0 0 0-1.15-2.16 1.56 1.56 0 0 0-1.61.67 1.6 1.6 0 0 0 .2 2c.29.3.69.47 1.1.47Z" fill="#FAB072"/><path d="M44.7 25.67a1.18 1.18 0 0 0 1.09-.73 1.2 1.2 0 0 0-.87-1.63 1.17 1.17 0 0 0-1.21.5 1.2 1.2 0 0 0 .98 1.86Z" fill="#FDC99B"/><path d="M48.69 25.67a.88.88 0 0 0 .82-.55.9.9 0 0 0-.65-1.22.88.88 0 0 0-.91.38.9.9 0 0 0 .4 1.33c.1.04.22.06.34.06Z" fill="#FEDCBD"/></svg>