<!-- by TradingView --><svg width="56" height="56" viewBox="0 0 56 56" xmlns="http://www.w3.org/2000/svg"><path fill="#F0F3FA" d="M0 0h56v56H0z"/><path d="M19.89 12.94A2.05 2.05 0 0 0 18.04 10c-1.13 0-2.04.93-2.04 2.07 0 .76.4 1.42 1 1.78v22.33c-.6.36-1 1.02-1 1.78a2.05 2.05 0 0 0 2.8 1.92l6.97 4.7A2.05 2.05 0 0 0 27.78 47a2.05 2.05 0 0 0 1.9-2.84l14.48-11.81a2.05 2.05 0 0 0 2.84-1.9 2.05 2.05 0 0 0-2.86-1.89L19.89 12.95Zm-.8.9.05-.03 24.2 15.4c-.08.11-.15.24-.21.36l-13.47-.82a2.04 2.04 0 0 0-2.38-1.2l-8.2-13.7Zm-1.09.3h.06l8.2 14.03a2.08 2.08 0 0 0-.44 1.94l-6.4 6.34a2.02 2.02 0 0 0-1.42-.56V14.14Zm1.65 25.08a2.08 2.08 0 0 0 .38-1.73l6.42-6.37c.16.14.35.26.55.34v11.56c-.34.14-.63.37-.85.66l-6.5-4.46Zm9.45 4.14c-.3-.26-.68-.44-1.1-.48V31.6c.96-.1 1.72-.88 1.8-1.86l13.14.92c.04.39.19.74.4 1.03L29.1 43.36Z" fill="#21ABEA"/></svg>