<!-- by TradingView --><svg xmlns="http://www.w3.org/2000/svg" width="56" height="56" viewBox="0 0 56 56" fill="none"><path fill="#F0F3FA" d="M0 0h56v56H0z"/><path d="M17.04 21.55a11.32 11.32 0 0 1 10.22-6.12c4.54 0 8.45 2.95 10.23 6.57H43c-1.93-4.99-6.56-9-12.98-9-6 0-11.1 3.57-13.02 8.55h.04ZM16.19 34.16c1.8 3.68 5.61 6.6 10.18 6.6 4.57 0 8.3-3.07 10.09-6.76H42c-1.94 5.09-6.27 9-12.31 9-6.05 0-11.6-3.76-13.55-8.84h.05Z" fill="#364A72"/><path d="M25.76 15.38c.7.74.65 2.41.7 3.49.04 1.06.98 1.89 1.41 2.5.17.24.35.53.5.79.21-.06.43-.11.64-.15l-.27-1.23c-.32-1.59 1.02-5.03 1.02-5.03-.7-.22-1.42-.38-2.16-.47h-.33c-.5.01-1.01.04-1.51.1Z" fill="#CEC9C7"/><path d="M28.27 15.67c.23.57-.02 2.73-.1 4.1-.03.8.14 1.59.5 2.3l.34-.07c-.27-1-.41-1.14-.25-2.94.13-1.57.46-3.4.46-3.4-.32.03-.64.03-.96 0" fill="url(#aikko0ccj)"/><path d="M24.2 16.64c-.6.18-1.17.4-1.72.66.93.48 1.46 2.07 1.87 3.06.41 1 1.59 1.47 2.22 1.92l.54.41a6 6 0 0 1 .66-.33 19.2 19.2 0 0 1-.6-.93c-.84-1.37-.79-5.03-.79-5.03-.73 0-1.47.08-2.19.23" fill="url(#bikko0ccj)"/><path d="M21.61 18.23c-.52.3-1.02.65-1.5 1.03 1.02.26 1.94 1.69 2.59 2.56.64.87 1.9 1.08 2.63 1.37l.66.3c.17-.17.36-.32.55-.46-.24-.2-.5-.47-.83-.8-1.18-1.15-2.03-4.72-2.03-4.72-.7.18-1.4.42-2.07.72" fill="url(#cikko0ccj)"/><path d="M19.47 20.87c-.42.44-.8.91-1.15 1.4 1.05-.03 2.33 1.07 3.2 1.72.88.65 2.15.49 2.93.56l.64.09c.13-.21.27-.41.43-.6l-.98-.5c-1.46-.77-3.3-3.96-3.3-3.96-.63.37-1.22.8-1.77 1.29Z" fill="url(#dikko0ccj)"/><path d="M20.8 20.9c1.36 1.04 1.4 1.34 2.48 2.21.64.47 1.34.85 2.08 1.13l.16-.2a6.1 6.1 0 0 1-1.99-1.31c-.77-.8-1.42-1.7-1.94-2.68l-.8.86" fill="url(#eikko0ccj)"/><path d="M33.62 32.72c.23.2.5.46.83.79 1.18 1.16 2.03 4.73 2.03 4.73.71-.18 1.4-.42 2.07-.72.52-.3 1.03-.65 1.5-1.03-1.01-.26-1.94-1.69-2.58-2.56-.65-.87-1.91-1.07-2.64-1.37a9 9 0 0 1-.68-.3 5.7 5.7 0 0 1-.53.46" fill="#DDDAD8"/><path d="M33.62 32.71a6.2 6.2 0 0 1 1.57 1.86c.77 1.4 1.28 3.64 1.28 3.64s.93-.14 1.32-.37c-1-1.4-1.46-2.42-2.25-3.57a9.1 9.1 0 0 0-1.72-1.72l-.2.16M25.47 16.9c.51 1.26.4 2.12.81 3.44.29.78.7 1.5 1.25 2.13l.23-.1c-.52-.77-.86-1.24-1.1-2.4-.31-1.54-.05-3.37-.05-3.37l-1.15.3" fill="#9B9696"/><path d="m32.41 33.43.58.91c.86 1.38.8 5.05.8 5.05.73-.01 1.46-.1 2.19-.24.58-.18 1.16-.4 1.71-.66-.93-.48-1.46-2.07-1.87-3.06-.42-1-1.6-1.47-2.23-1.92a9.74 9.74 0 0 1-.52-.41c-.22.12-.43.24-.66.33Z" fill="#D5D1D0"/><path d="M32.41 33.43c.51.75.85 1.23 1.09 2.39.31 1.54.05 3.55.05 3.55.41.04.82.03 1.23-.04-.52-1.27-.49-2.56-.9-3.88a7 7 0 0 0-1.23-2.13l-.24.11" fill="#9B9696"/><path d="M31.16 33.83c.08.3.17.7.27 1.2.33 1.57-1.02 5-1.02 5 .7.23 1.42.38 2.15.47.63.02 1.25-.01 1.86-.09-.7-.74-.65-2.41-.7-3.47-.04-1.07-.98-1.9-1.42-2.52-.16-.23-.33-.5-.47-.75a6.1 6.1 0 0 1-.66.16" fill="url(#fikko0ccj)"/><path d="M31.17 33.83c.26.96.4 1.12.23 2.9-.14 1.57-1 3.3-1 3.3.5.17 1 .3 1.51.38-.23-.57.02-3.02.1-4.39a4.73 4.73 0 0 0-.49-2.27l-.34.08" fill="url(#gikko0ccj)"/><path d="M30.05 34h-.23c0 .31-.03.66-.07 1.18-.1 1.6-2.32 4.61-2.32 4.61.62.38 1.27.7 1.96.96.6.16 1.2.28 1.82.36-.48-.88 0-2.49.25-3.53.24-1.04-.44-2.06-.7-2.77-.1-.27-.19-.52-.27-.81h-.43" fill="url(#hikko0ccj)"/><path d="M29.19 37.06c-.59 1.46-1.35 2.96-1.35 2.96.26.17.54.31.83.42-.06-.61.81-2.62 1.3-3.91.28-.84.33-1.67.14-2.53H29.82c-.07 1.25.1 1.25-.63 3.06" fill="url(#iikko0ccj)"/><path d="M28.08 34.7c-.5 1.53-3.4 3.95-3.4 3.95.5.51 1.07.97 1.66 1.37.54.3 1.1.54 1.68.76-.25-.97.63-2.42 1.12-3.38.5-.96.08-2.1 0-2.85a9.5 9.5 0 0 1-.03-.7c-.24-.04-.48-.1-.72-.16l-.3 1" fill="url(#jikko0ccj)"/><path d="M26.71 36.8a39.99 39.99 0 0 1-1.86 2.03c.22.22.45.42.69.6.14-.6 1.16-1.87 2.05-2.96a5.88 5.88 0 0 0 1.06-2.7l-.26-.07c-.35 1.16-.38 1.57-1.68 3.09Z" fill="url(#kikko0ccj)"/><path d="M26.66 33.9c-.93 1.33-4.46 2.88-4.46 2.88.34.62.74 1.21 1.19 1.76.43.42.89.8 1.38 1.16.05-1 1.33-2.15 2.09-2.93.76-.79.7-2 .86-2.73.03-.17.08-.35.13-.53-.24-.1-.48-.2-.7-.33l-.5.71" fill="url(#likko0ccj)"/><path d="M25.55 32.76c-1.3 1.02-5.13 1.57-5.13 1.57.13.69.34 1.36.6 2 .3.53.62 1.03.98 1.5.35-.93 1.92-1.71 2.88-2.26.97-.55 1.28-1.72 1.63-2.39l.18-.3a6.17 6.17 0 0 1-.65-.52l-.5.4Z" fill="url(#mikko0ccj)"/><path d="M28.7 18.22c-.22 1.04.46 2.06.72 2.77.1.28.2.7.28 1.01h.65c0-.32.03-.83.07-1.39.1-1.6 2.32-4.6 2.32-4.6-.62-.38-1.28-.7-1.97-.96-.6-.16-1.2-.28-1.8-.36.47.89 0 2.5-.26 3.54" fill="url(#nikko0ccj)"/><path d="M30.2 19.26a5.14 5.14 0 0 0-.12 2.74h.27c.06-1.27-.1-1.46.63-3.28.59-1.46 1.35-2.97 1.35-2.97-.26-.16-.54-.3-.83-.41.06.61-.81 2.62-1.3 3.91" fill="url(#oikko0ccj)"/><path d="M31.02 18.39c-.49.95-.07 2.09 0 2.85.03.23.04.5.04.75.24.04.47.1.7.17l.34-1.07c.5-1.53 3.4-3.96 3.4-3.96-.51-.5-1.07-.96-1.67-1.37a13.1 13.1 0 0 0-1.69-.75c.25.97-.63 2.42-1.13 3.38" fill="url(#pikko0ccj)"/><path d="M32.58 19.31c-.9 1.09-1.03 2.8-1.03 2.8l.2.05c.36-1.16.35-1.55 1.75-3.11 1.06-1.2 1.82-2.09 1.82-2.09a7.2 7.2 0 0 0-.69-.6c-.14.6-1.16 1.88-2.05 2.96" fill="url(#qikko0ccj)"/><path d="M33.3 19.02c-.76.79-.7 2-.85 2.74l-.15.6c.23.09.45.2.67.33l.54-.79c.93-1.33 4.45-2.88 4.45-2.88a10.7 10.7 0 0 0-1.18-1.76c-.43-.42-.9-.8-1.38-1.16-.05 1-1.33 2.15-2.1 2.93" fill="url(#rikko0ccj)"/><path d="M34.74 20.17c-1.13.7-1.95 2.42-1.95 2.42l.18.1c.26-.42.56-.82.88-1.18a15.15 15.15 0 0 1 4.01-2.6l-.41-.75c-.33.5-1.59 1.31-2.71 2.01Z" fill="url(#sikko0ccj)"/><path d="M35.28 20.21c-.96.55-1.27 1.73-1.63 2.4a3.6 3.6 0 0 1-.23.37c.22.16.43.33.63.51l.57-.46c1.3-1.03 5.13-1.58 5.13-1.58-.14-.69-.34-1.36-.61-2-.29-.53-.61-1.02-.98-1.5-.35.94-1.92 1.7-2.88 2.26" fill="url(#tikko0ccj)"/><path d="M41.96 34c-1.8 3.62-5.48 6.64-10.07 6.64-4.6 0-8.74-3.02-10.54-6.64H16c1.95 5 7.55 9 13.63 9 6.07 0 10.42-4.01 12.37-9h-.04Z" fill="#3059B0"/><path d="M41.8 34c-1.96 3.96-5.88 7.03-10.5 7.03-2.25-.01-4.45-.64-6.36-1.82A13.12 13.12 0 0 1 20.47 34H20c0 .03.23.44.24.47a12.35 12.35 0 0 0 11.06 6.8c4.73 0 8.72-3.2 10.7-7.27 0 .02 0-.02 0 0h-.2Z" fill="#8E98D4"/><path d="M21.23 24c.59-2.25 1.86-4.2 3.63-5.72a11.74 11.74 0 0 1 13.12-1.47c2.09 1.1 3.66 3.13 4.74 5.19H43c-1.17-2.76-3.02-5.43-5.63-6.98-2.6-1.54-5.18-1.96-8.18-1.96s-6.38 1.48-8.66 3.46A13.89 13.89 0 0 0 16 24h5.23Z" fill="#3059B0"/><path d="M20.28 24a12.12 12.12 0 0 1 17.52-7.64c2.17 1.18 3.93 3.44 5.05 5.64H43c-1.13-2.26-2.9-4.56-5.1-5.77A12.37 12.37 0 0 0 19.96 24h.3Z" fill="#8E98D4"/><path d="M10.97 28.41 9.85 25.2l-1.1 3.21h2.22ZM15 32h-4v-.5c.23-.02.28-.05.5-.1.26-.07.4-.15.4-.25v-.11a.74.74 0 0 0-.05-.17L11.19 29H8.53l-.2.63-.19.61a3.72 3.72 0 0 0-.15.73c0 .13.09.25.27.34.27.12.44.18.74.19v.5H6v-.5c.13-.01.26-.02.4-.05a.98.98 0 0 0 .35-.15c.14-.1.27-.22.37-.37.1-.16.2-.33.25-.52l1.27-3.52 1.4-3.89h1.07l1.67 4.77 1.02 2.9c.04.12.1.23.18.34a1.18 1.18 0 0 0 .66.44c.12.03.24.04.36.05v.5ZM18.53 28.3v-.7c0-.53-.16-1.1-.76-1.1-.15 0-.28.01-.4.1-.3.2-.37.6-.37 1v.72l1.53-.03Zm1.97 2.16a2.64 2.64 0 0 1-1 1.1 2.77 2.77 0 0 1-1.52.44c-.45 0-.9-.07-1.32-.24a2.61 2.61 0 0 1-.94-.64c-.25-.28-.43-.6-.54-.96a3.82 3.82 0 0 1 .01-2.3c.13-.35.32-.67.56-.95.25-.3.57-.52.93-.68a2.9 2.9 0 0 1 1.16-.23c1.62 0 2.66 1.13 2.66 2.43v.37H17c0 .78 0 1.37.27 1.78.29.4.78.62 1.3.62.67 0 1.23-.5 1.55-1.05l.38.31ZM48.03 28.3v-.7c0-.53-.16-1.1-.76-1.1-.15 0-.28.01-.4.1-.3.2-.37.6-.37 1v.72l1.53-.03ZM50 30.45a2.64 2.64 0 0 1-1 1.1 2.77 2.77 0 0 1-1.52.44c-.45 0-.9-.07-1.32-.24a2.61 2.61 0 0 1-.94-.64c-.25-.28-.43-.6-.54-.96a3.82 3.82 0 0 1 .01-2.3c.13-.35.32-.67.56-.95.25-.3.57-.52.93-.68a2.9 2.9 0 0 1 1.16-.23c1.62 0 2.66 1.13 2.66 2.43v.37h-3.5c0 .78 0 1.37.27 1.78.29.4.8.66 1.3.62.67 0 1.23-.5 1.55-1.05l.38.31ZM27 27.16c0 .64-.41 1.14-1 1.14-.53 0-1-.25-1-.87 0-.19.03-.3.07-.47-.5.04-.79.26-1.07.65v3.24c0 .24 0 .47.2.55.23.1.55.18.8.2v.4h-4v-.4l.55-.06c.33-.05.46-.3.45-.62v-3.43c0-.36-.12-.67-.47-.77-.11-.04-.41-.06-.53-.08v-.42l2.85-.22.15.08v.93c.4-.51 1.2-1 1.87-1 .68-.03 1.13.48 1.13 1.15M30.22 32a4.33 4.33 0 0 1-2.36-.66l-.38.66H27v-3h.42c.39 1.05 1.27 2.4 2.68 2.4.77 0 1.58-.59 1.53-1.41 0-.31-.11-.62-.34-.84-.7-.64-1.75-.8-2.6-1.17-.5-.2-.9-.55-1.16-.98a2.75 2.75 0 0 1-.19-2.4 2.53 2.53 0 0 1 1.5-1.39 3.57 3.57 0 0 1 2.42-.01c.31.1.6.23.89.4l.33-.37H33V26h-.47c-.36-1.01-1.06-2.42-2.28-2.4-.72-.03-1.38.55-1.36 1.27 0 .31.1.62.33.84.51.47 1.2.65 1.84.88 1.24.44 2.34.91 2.34 2.69 0 .72-.3 1.43-.85 1.92-.3.25-.64.45-1 .58-.43.15-.89.22-1.34.22M37.4 28.73c-.37.14-.66.3-.97.54-.3.25-.43.63-.43 1.01 0 .43.24.72.66.72.25 0 .57-.13.72-.34l.02-1.93ZM40 32h-1.17a1.8 1.8 0 0 1-.97-.2 1.03 1.03 0 0 1-.42-.6h-.04a2.37 2.37 0 0 1-1.85.8c-.4 0-.78-.14-1.06-.4-.27-.23-.5-.66-.49-1.03a1.6 1.6 0 0 1 .8-1.38c.14-.08.3-.16.46-.22.32-.13.7-.26 1.16-.4.34-.09.67-.2.98-.35v-.56c0-.1 0-.22-.02-.38-.03-.43-.26-.8-.74-.78a.93.93 0 0 0-.65.17c.02.12.05.24.1.35.07.22.1.47.02.7-.1.31-.58.58-.89.58a.92.92 0 0 1-.92-.93c0-.22.09-.43.24-.6.16-.16.36-.3.58-.41a3.9 3.9 0 0 1 1.6-.36c.31 0 .49 0 .8.04.8.11 1.88.63 1.88 2v2.86c-.02.37.24.69.6.68V32ZM44.5 32h-4v-.4c.23-.03.47-.04.69-.12.1-.04.2-.11.24-.21a.88.88 0 0 0 .07-.36v-6.37c0-.43-.19-.75-.6-.86a1.85 1.85 0 0 0-.4-.09v-.43l2.92-.16.08.1v7.74c0 .12.02.24.07.35.05.1.14.17.24.21.21.1.45.18.69.2v.4Z" fill="#364A72"/><defs><linearGradient id="aikko0ccj" x1="28.93" y1="19.03" x2="28.2" y2="19.03" gradientUnits="userSpaceOnUse"><stop stop-color="#817F7F"/><stop offset=".96" stop-color="#9B9696"/></linearGradient><linearGradient id="bikko0ccj" x1="27.9" y1="19.87" x2="22.61" y2="19.87" gradientUnits="userSpaceOnUse"><stop stop-color="#706F71"/><stop offset=".4" stop-color="#D5D1D0"/></linearGradient><linearGradient id="cikko0ccj" x1="24.97" y1="20.36" x2="21.55" y2="22.35" gradientUnits="userSpaceOnUse"><stop stop-color="#706F71"/><stop offset=".4" stop-color="#DDDAD8"/></linearGradient><linearGradient id="dikko0ccj" x1="46126.7" y1="11882.2" x2="46044.1" y2="11972.8"><stop offset="1" stop-color="#DDDAD8"/></linearGradient><linearGradient id="eikko0ccj" x1="7126.78" y1="2836.48" x2="7118.28" y2="2848.18"><stop offset="1" stop-color="#9B9696"/></linearGradient><linearGradient id="fikko0ccj" x1="-11610" y1="-53411.2" x2="-11541" y2="-53411.2" gradientUnits="userSpaceOnUse"><stop offset=".4" stop-color="#CEC9C7"/><stop offset="1" stop-color="#CEC9C7"/></linearGradient><linearGradient id="gikko0ccj" x1="30.6" y1="36.61" x2="31.79" y2="36.61" gradientUnits="userSpaceOnUse"><stop stop-color="#817F7F"/><stop offset=".27" stop-color="#817F7F"/><stop offset="1" stop-color="#9B9696"/></linearGradient><linearGradient id="hikko0ccj" x1="28.77" y1="37" x2="32.6" y2="38.1" gradientUnits="userSpaceOnUse"><stop stop-color="#706F71"/><stop offset=".4" stop-color="#C6C1BF"/><stop offset="1" stop-color="#C6C1BF"/></linearGradient><linearGradient id="iikko0ccj" x1="1830.12" y1="-9050.2" x2="1838.28" y2="-9047.83" gradientUnits="userSpaceOnUse"><stop stop-color="#817F7F"/><stop offset=".96" stop-color="#9B9696"/><stop offset="1" stop-color="#9B9696"/></linearGradient><linearGradient id="jikko0ccj" x1="26.13" y1="35.63" x2="29.32" y2="37.95" gradientUnits="userSpaceOnUse"><stop stop-color="#706F71"/><stop offset=".4" stop-color="#BEB9B8"/><stop offset="1" stop-color="#BEB9B8"/></linearGradient><linearGradient id="kikko0ccj" x1="27.39" y1="36.71" x2="27.99" y2="37.11" gradientUnits="userSpaceOnUse"><stop stop-color="#817F7F"/><stop offset=".44" stop-color="#817F7F"/><stop offset="1" stop-color="#9B9696"/></linearGradient><linearGradient id="likko0ccj" x1="25.26" y1="34.64" x2="27.54" y2="38.14" gradientUnits="userSpaceOnUse"><stop stop-color="#706F71"/><stop offset=".4" stop-color="#B7B2B0"/><stop offset="1" stop-color="#B7B2B0"/></linearGradient><linearGradient id="mikko0ccj" x1="22.77" y1="33.26" x2="24.51" y2="36.68" gradientUnits="userSpaceOnUse"><stop stop-color="#706F71"/><stop offset=".37" stop-color="#B7B2B0"/><stop offset="1" stop-color="#B7B2B0"/></linearGradient><linearGradient id="nikko0ccj" x1="-3478.31" y1="61980.4" x2="-3545.59" y2="61961.1" gradientUnits="userSpaceOnUse"><stop stop-color="#706F71"/><stop offset=".4" stop-color="#C6C1BF"/><stop offset="1" stop-color="#C6C1BF"/></linearGradient><linearGradient id="oikko0ccj" x1="-1552.12" y1="12620.2" x2="-1560.05" y2="12617.9" gradientUnits="userSpaceOnUse"><stop stop-color="#817F7F"/><stop offset=".96" stop-color="#9B9696"/><stop offset="1" stop-color="#9B9696"/></linearGradient><linearGradient id="pikko0ccj" x1="-21205.5" y1="56804.5" x2="-21270.2" y2="56757.5" gradientUnits="userSpaceOnUse"><stop stop-color="#706F71"/><stop offset=".4" stop-color="#BEB9B8"/><stop offset="1" stop-color="#BEB9B8"/></linearGradient><linearGradient id="qikko0ccj" x1="33.96" y1="19.47" x2="33.03" y2="18.88" gradientUnits="userSpaceOnUse"><stop stop-color="#817F7F"/><stop offset=".38" stop-color="#817F7F"/><stop offset="1" stop-color="#9B9696"/></linearGradient><linearGradient id="rikko0ccj" x1="-35702.6" y1="48370" x2="-35758.4" y2="48284.1" gradientUnits="userSpaceOnUse"><stop stop-color="#706F71"/><stop offset=".4" stop-color="#B7B2B0"/><stop offset="1" stop-color="#B7B2B0"/></linearGradient><linearGradient id="sikko0ccj" x1="34.72" y1="20.91" x2="34.27" y2="20.33" gradientUnits="userSpaceOnUse"><stop stop-color="#817F7F"/><stop offset=".56" stop-color="#817F7F"/><stop offset="1" stop-color="#9B9696"/></linearGradient><linearGradient id="tikko0ccj" x1="-28057" y1="38799.2" x2="-28104.4" y2="38706.4" gradientUnits="userSpaceOnUse"><stop stop-color="#706F71"/><stop offset=".37" stop-color="#B7B2B0"/><stop offset="1" stop-color="#B7B2B0"/></linearGradient></defs></svg>