<!-- by TradingView --><svg width="56" height="56" viewBox="0 0 56 56" xmlns="http://www.w3.org/2000/svg"><path fill="#F0F3FA" d="M0 0h56v56H0z"/><path d="m25.1 10.08-.33-.08-1.56.02-.16.04-.48.13c-1.05.3-1.7.95-1.84 2.09-.05.55-.06 1.1-.02 1.65-.24.26-.54.45-.88.55-.52.21-.96.59-1.25 1.08-.28.43-.5.88-.69 1.36a39.5 39.5 0 0 1-2.37 5.3 7.35 7.35 0 0 0-.99 3.65c.01.6 0 1.19-.34 1.7a.67.67 0 0 0-.07.25c-.12.58.13.98.7 1.08.57.1 1.15-.02 1.65-.33.1-.9.14-1.81.14-2.72.92-1.12 2.19-1.6 3.5-2.12l.22-.08c-.12.23-.2.49-.27.74-.16.77-.14 1.54-.13 2.31v.13c.02.67 0 1.34-.06 2.01-.1.87-.46 1.65-.86 2.4a3.37 3.37 0 0 0-.3 2.07c.04.33.12.66.2 1 .11.5.23 1 .23 1.55.18 0 .35.03.52.07.28.05.56.1.84.03l.08-.5c.05-.36.1-.72.17-1.06.12-.67.44-1.15 1.18-1.22a.8.8 0 0 0 .47-.24l.16.14.28.22c.94.69 1.89.67 2.8-.07.46-.38.83-.85 1.19-1.33l.23-.3c.32-.45.7-.86 1.13-1.21.2-.18.44-.3.7-.35l-.22.27c-.16.2-.31.37-.45.57-.3.45-.55.93-.81 1.4-.2.36-.38.72-.6 1.07-.76 1.25-1.82 1.88-3.3 1.64a10.2 10.2 0 0 0-.61-.15c.23 1.63 1.12 2.37 2.72 2.26a6.8 6.8 0 0 0 2.72-.95c.37-.22.74-.42 1.13-.6.04.1 0 .15-.05.2a4.28 4.28 0 0 1-1.64 1.45c-.42.24-.86.44-1.31.65l-.75.35c.28.1.54.21.8.33.7.3 1.37.6 2.18.47a15.4 15.4 0 0 1 2.34-4.2c.2-.25.16-.52.08-.82l-.08-.32-.15-.58c-.07-.37.09-.6.43-.71.13.16.22.35.3.54l.55 1.4c.17.49.4.96.7 1.4.23.34.57.6.97.72a1.66 1.66 0 0 0 1.45-.26.2.2 0 0 0-.21-.03 1.48 1.48 0 0 1-1.58-.53 2.37 2.37 0 0 1-.55-1.68c0-.47.18-.93.5-1.27 1 .63 1.98 1.15 3.13.54.2-.73.07-1.3-.45-1.77l-.46-.4-.38-.34c-.22-.17-.38-.4-.46-.66l.29-.03c.08-.03.09-.09.09-.13 0-.03 0-.06.03-.08l.8.23c.6.19 1.21.38 1.85.46.32-.9.16-1.78 0-2.64l-.04-.17a3.48 3.48 0 0 0-.69-.43 4.7 4.7 0 0 0-2.67-.41c-.54.07-.97 0-1.34-.45a2.04 2.04 0 0 0-1.03-.64 1.34 1.34 0 0 0-1.03.08c.4.5.1.82-.22 1.15a.95.95 0 0 0-.3.73.24.24 0 0 1-.24-.18c-.21-.4-.18-.83-.15-1.27.02-.2.03-.4.02-.6a7.38 7.38 0 0 0-1.31-.12l-.62-.02a7.95 7.95 0 0 1-1.94-.2c-1.06-.27-1.53-1.36-1.04-2.35a.7.7 0 0 1 .44-.42c-.14.63-.13 1.27.05 1.88.41.3.9.5 1.4.55.75.1 1.5.07 2.25.04l.47-.02c.48 0 .97-.02 1.45 0a3.7 3.7 0 0 1 2.5 1.11c.53.53 1.19.58 1.87.37a.86.86 0 0 0-.15-.45c-.56-1-1.18-1.97-1.87-2.89a6.94 6.94 0 0 0-4.3-2.71c-.49-.1-.97-.15-1.46-.18v-.12l.01-.18a9.7 9.7 0 0 0-.22-2.85c-.41-1.56-1.3-2.67-2.9-3.12a6.48 6.48 0 0 0-1.78-.23c-.42-.34-.58-.82-.52-1.52.08-.82.53-1.43 1.22-1.58.31-.06.63-.07.94-.03 1 .1 1.9.51 2.77 1 .95.53 1.8 1.2 2.64 1.88l.9.7 1.1.87c.98.77 1.96 1.54 2.99 2.23.8.53 1.67.8 2.65.66a2.54 2.54 0 0 0 2.18-2.98 1.7 1.7 0 0 0-.54-1.04l-.02.1-.02.13a.8.8 0 0 1-.67.73c-.42.1-.8.35-1.05.7l-.48.6-.4.5c-.49.61-.9.7-1.54.26a46.65 46.65 0 0 1-2.38-1.74 125.7 125.7 0 0 1-2.15-1.75l-1.53-1.26a9.93 9.93 0 0 0-3.3-1.93c-.24-.08-.5-.13-.75-.2Zm4.38 25.47c.03.03.03 0 .03-.03l-.03.03Zm-6.59-9.45c.18-.15.33-.34.44-.55a.8.8 0 0 1-.1.52c-.17.4-.27.82.05 1.21.36.43.83.47 1.33.37.48-.1.93-.3 1.37-.5l.37-.17c.44-.2.9-.32 1.38-.35.5-.02.8.15.93.58a.38.38 0 0 1-.43.08c-.63-.23-1.13 0-1.63.38-.8.6-1.8.9-2.8.86-.56-.02-1.05-.22-1.25-.82-.2-.6-.14-1.15.34-1.61Zm10.92 3.33c.44.06.87.16 1.28.31-.13 0-.26.04-.4.07-.33.1-.67.19-.88-.38Zm2.45-3.27c.34.43.84.72 1.38.81-.3-.74-.53-1.48-.75-2.22-.17-.59-.35-1.17-.56-1.73a4.64 4.64 0 0 0-2.06-2.47 7.2 7.2 0 0 0-5.03-.73.57.57 0 0 0-.38.17 5.37 5.37 0 0 1 3.36.94 8.72 8.72 0 0 1 3.08 3.54l.02.04c.26.58.52 1.16.94 1.65Zm3.16 15.16c-.14.31-.44.38-.75.4-.33.04-.64-.02-.96-.08l-.34-.05c-.37-.05-.75-.1-1.1.1a.36.36 0 0 0-.03-.03.14.14 0 0 1-.02-.06c-.07-.47-.37-.72-.77-.89l-.31-.12a7.5 7.5 0 0 1-.77-.34c-.78-.4-1.04-1-.81-1.85.11-.46.38-.87.75-1.16.57-.44 1.22-.3 1.53.36l.37.9.19.49c.15.37.34.71.58 1.03.34.46.82.65 1.37.7.29.01.57.1.81.27a.5.5 0 0 1 .26.33Zm.2 2.67.12-.24a.58.58 0 0 1 .18-.04c.56.08 1.09-.08 1.61-.25l.1-.03a.8.8 0 0 1 .82.16.3.3 0 0 0 .25.1c.17-.46-.04-.84-.27-1.23l.24.03c.11.02.22.05.33 0a.74.74 0 0 0-.53-.71 2.13 2.13 0 0 0-2.02.38h-.01c-.05.05-.12.1-.1.19l.27.01c.2.01.42.02.62.12-.33.06-.66.04-.98-.05l-.06-.02c-.4-.08-.78-.16-1.13.13-.7-.48-1.61-.56-2.09-.19a10.1 10.1 0 0 1 0 .53c.03.48.24.7.71.72h.73c.37 0 .73.04 1 .33a.18.18 0 0 0 .21.06Zm-8.48-8.74c.27.38.23.77.15 1.16-.1.36-.27.7-.47 1.02-.27.47-.5.96-.52 1.55-.16.03-.32.02-.49 0-.17 0-.35-.02-.54.02l.3-.71c.43-1.06.86-2.1 1.57-3.04ZM19.93 36.8c-.85-.06-1.43.37-1.43 1.06.39.53 1.9.48 2.46.15.13-.67-.33-1.16-1.03-1.21Zm18.76-5.23c0 .59-.21.9-.7 1.06a.93.93 0 0 0-.29-.24c-.13-.05-.29-.03-.68.02 0-.27-.11-.53-.21-.8a1.98 1.98 0 0 1-.2-1.13l.47.19c.58.23 1.15.45 1.61.9Zm-6.48 6.11c-.1.36-.18.73-.23 1.1.38.23.82.3 1.24.22v-1.95c-.52-.04-.84.16-1 .63Zm-.55-1.2a.76.76 0 0 1 .24.72l-.15.69-.04.13c-.07.28-.1.58-.06.87a5 5 0 0 1-.95.06c.27-.85.6-1.67.96-2.47Zm-11.95 2.3c-.4.43-.17 1.38.42 1.59.3-.45.43-.92.27-1.44a.4.4 0 0 0-.3-.28.4.4 0 0 0-.39.13Zm-5.81-8.3a.6.6 0 0 1-.72-.21.88.88 0 0 1-.1-.9.62.62 0 0 1 .63-.28c.26.02.43.24.3.44a.94.94 0 0 0-.11.95Zm4.01 8.43c-.1.32-.08.67.06.97.64-.08.93-.54.78-1.22-.39-.31-.7-.23-.84.25Zm-2.14-9.2c.03.24-.05.44-.13.64l-.1.28a1.6 1.6 0 0 1-.76-.25.44.44 0 0 1-.2-.46.4.4 0 0 1 .3-.32.96.96 0 0 1 .89.1Zm1.58.85h.03c.04-.28-.07-.5-.18-.71l-.14-.33c-.61-.06-.87.3-.69.93.3.18.63.15.98.11Zm17.2 3.64c-.24.21-.48.42-.36.83-.5.07-.72-.2-.57-.64.07-.2.19-.37.35-.5.3-.25.55-.2.76.16l-.17.15Zm-12.34 5.54c-.46-.02-.7-.3-.89-1 .56-.23 1.09.33.89 1Z" fill="#84242F"/></svg>