<!-- by TradingView --><svg xmlns="http://www.w3.org/2000/svg" width="56" height="56"><path fill="#1927A1" d="M0 0h56v56H0z"/><path d="M28.4 26.73c0-.57 0-1.51-.79-1.51-.78 0-.91 1.23-.91 1.94 0 .7.04 1.65.87 1.65.27 0 .55-.19.69-.42.09-.29.13-.57.13-.85v-.8zm.09 3.27v-1h-.05a1.49 1.49 0 01-1.47 1C25.41 30 25 28.43 25 27.1s.41-3.08 2.02-3.08c.55-.04 1.1.24 1.37.71v-2.36L30 22v8h-1.51zm21.68-.28l.13-.45L52 24h-1.28l-1.06 3.33-1.1-3.33H47l2.02 5.6c-.14.55-.37 1.24-.87 1.24H47V32h1.1c1.38 0 1.72-1.13 2.07-2.28zM5.65 32.63c.05.22.2.33.4.33.1 0 .25-.06.25-.16s-.1-.15-.2-.2l-.05-.02a.86.86 0 00-.1-.04c-.26-.08-.85-.27-.85-.72 0-.55.46-.82.95-.82.42 0 .75.22.9.6l-.6.17c-.05-.13-.15-.22-.35-.22-.28 0-.22.32.05.32.53.1.95.3.95.82 0 .54-.55.81-1 .81-.45 0-.9-.27-1-.76l.65-.1zm3.67-.78c0 .22-.21.22-.37.22h-.21v-.5h.2c.17 0 .38.06.38.28zM8 33.5h.74v-.94h.37c.45 0 .89-.32.89-.77 0-.6-.55-.79-1.05-.79H8v2.5zm3.82-.54c-.3 0-.36-.44-.36-.7 0-.23.05-.71.36-.71.32 0 .37.43.37.7 0 .27-.05.7-.37.7zm.16.54c.62-.05 1.04-.6.98-1.25v-.16c-.05-.65-.51-1.14-1.14-1.09h-.1c-.62.06-1.04.6-.99 1.25v.11c0 .65.47 1.14 1.1 1.14h.15zm3.05-1.71c0 .22-.15.22-.31.22h-.32v-.44h.42c.16 0 .21.1.21.22zm-.37.77l.32.94h.85l-.48-1.1c.25-.08.42-.3.42-.67 0-.54-.5-.73-.9-.73h-1.2v2.5h.73v-.94h.26zm3.02.94h-.7v-1.89h-.53V31h1.7v.61h-.47v1.89zm11.4-.9c0 .52-.25.88-.91.88-.54 0-.87-.31-.87-.88V31h.67v1.54c0 .25.1.39.3.39.24 0 .28-.16.28-.44V31h.54v1.6zm1.38.9h.68v-1.89h.48V31h-1.69v.61h.53v1.89zm3.38-1.28c0 .3-.1.72-.58.72v-1.38c.38 0 .58.3.58.66zM33.37 31h-.9v2.5h.95c.73 0 1.17-.58 1.17-1.28 0-.76-.47-1.22-1.22-1.22zm-10.43.22h-.58v.7h-.68v.61h.68v.71h.58v-.7h.67v-.61h-.67v-.71zm19.34.79c.16 0 .32 0 .32-.22 0-.11-.06-.22-.21-.22h-.43V32h.32zm.26 1.49l-.31-.94h-.27v.94h-.74V31h1.22c.39 0 .9.19.9.73 0 .37-.18.6-.43.67l.48 1.1h-.85zm-17.62-1.25c0 .27.05.7.37.7.3 0 .36-.43.36-.7 0-.27-.05-.7-.36-.7-.32 0-.37.48-.37.7zm1.5 0c.06.65-.36 1.2-.98 1.25h-.15c-.63 0-1.1-.49-1.1-1.14v-.1c-.05-.66.37-1.2 1-1.26h.1c.62-.05 1.08.44 1.14 1.09v.16zm9.96.7c-.3 0-.36-.43-.36-.7 0-.22.05-.7.36-.7s.37.43.37.7c0 .27-.06.7-.37.7zm.16.55c.62-.05 1.04-.6.98-1.25v-.16c-.05-.65-.51-1.14-1.14-1.09h-.1c-.62.06-1.04.6-.99 1.25v.11c0 .65.47 1.14 1.1 1.14h.15zm2.42-1.25c0 .27.05.7.37.7.3 0 .36-.43.36-.7 0-.27-.05-.7-.36-.7-.32 0-.37.48-.37.7zm1.5 0c.06.65-.36 1.2-.98 1.25h-.15c-.63 0-1.1-.49-1.1-1.14v-.1c-.05-.66.37-1.2 1-1.26h.1c.62-.05 1.08.44 1.14 1.09v.16zm-20.55.7c-.2 0-.35-.1-.4-.32l-.65.11c.1.49.55.76 1 .76.45 0 1-.27 1-.81 0-.52-.42-.72-.95-.82-.27 0-.33-.32-.05-.32.2 0 .3.09.35.22l.6-.17a.92.92 0 00-.9-.6c-.49 0-.95.27-.95.82 0 .45.59.64.84.72a.86.86 0 01.16.07c.1.04.2.1.2.19 0 .1-.15.16-.25.16zm24.74-.32c.05.22.2.33.4.33.1 0 .25-.06.25-.16s-.1-.15-.2-.2l-.05-.02a.86.86 0 00-.1-.04c-.26-.08-.85-.27-.85-.72 0-.55.46-.82.95-.82.42 0 .75.22.9.6l-.6.17c-.05-.13-.15-.22-.35-.22-.28 0-.22.32.05.32.53.1.95.3.95.82 0 .54-.55.81-1 .81-.45 0-.9-.27-1-.76l.65-.1zM39.53 24v1.06h.05c.28-.67.88-1.06 1.58-1.01.65 0 1.25.39 1.53 1.01.28-.67.93-1.06 1.63-1.01.51 0 1.02.2 1.35.58.35.41.34.96.33 1.47V30h-1.63v-3.1c0-.34 0-.67-.05-1.01-.1-.34-.37-.54-.7-.49a.76.76 0 00-.7.44c-.09.34-.09.72-.09 1.06V30h-1.67v-3.34c.02-.59.04-1.26-.7-1.26-.83 0-.83.87-.83 1.5V30H38v-5.61l1.53-.39zm-5.4 1.06c.73 0 .97.62.97 1.24h-2.06c.1-.67.38-1.24 1.1-1.24zm-1.05 2.5v-.3h3.7a3.7 3.7 0 00-.58-2.25c-.48-.67-1.3-1.01-2.1-1.01-1.78 0-2.8 1.34-2.8 3.07 0 1.73 1.11 2.93 2.84 2.93 1.3.05 2.45-.7 2.69-2h-1.59c-.05.53-.48.8-1 .8h-.1a1.17 1.17 0 01-1.06-1.25zm-10.68-.4l.14-.02v.05c0 .45 0 .87-.24 1.28-.23.35-.59.48-.99.48-.38-.05-.61-.38-.56-.76 0-.8.98-.94 1.65-1.03zm.2 1.84v1h1.6v-3.81c0-.62 0-1.22-.52-1.67a2.95 2.95 0 00-1.8-.52c-1.22 0-2.54.43-2.68 2h1.5a.94.94 0 011-.86c.66 0 .85.4.85 1v.14a7.3 7.3 0 00-2.27.38c-.75.24-1.27.9-1.27 1.72 0 1.1.76 1.62 1.8 1.62a1.9 1.9 0 001.79-1zm-6.19-3c.05-.38-.29-.7-.67-.75h-.14c-.96 0-1.06.91-1.06 1.68 0 .77 0 1.73.96 1.73.48.04.91-.25.91-.66h1.63c-.18 1.33-1.07 2-2.64 2a2.91 2.91 0 01-2.78-2.93c0-1.68 1.06-3.07 2.88-3.07 1.82 0 2.4.85 2.5 2h-1.6zm-8.02-1.94L9.2 27H7.56l.82-2.94zM10.12 30H12l-2.46-8-2.27.59L5 30h1.6l.48-1.67h2.55l.49 1.67z" fill="#fff"/></svg>