<!-- by TradingView --><svg xmlns="http://www.w3.org/2000/svg" width="56" height="56"><path fill="#F0F3FA" d="M0 0h56v56H0z"/><path d="M7 23.54L28.06 15 36 18.24V15h5v5.28l8 3.26V25l-20.94-8.54L7 25v-1.46z" fill="#61BD00"/><path fill-rule="evenodd" d="M19.27 29a.74.74 0 100-1.48.74.74 0 000 1.47zM4 34l3.05-6H8.3l3 6H9.68l-.72-1.41h-2.6L5.64 34H4zm2.86-2.57l.8-1.59.75 1.59H6.86zM12 28h1.43v6H12v-6zm8 1.27h-1.44V34h1.43v-4.73zm-5.42.07v-.57L16 28v1.34h1.46v1.1H16v1.76c-.01.2.14.6.51.6s.59-.21.65-.3l.8.79c-.59.63-1.3.71-1.6.71-1.43-.02-1.8-1.01-1.78-1.5v-2.06H14v-1.1h.58zm8.83-.34c1.2.03 1.9.6 2.1.89l-.84.84c-.64-.46-.87-.54-1.26-.56-.2-.01-.76 0-.8.3-.02.2.66.37 1 .42 1.57.36 2.07.89 2.07 1.59 0 .7-.79 1.52-2.27 1.52-1.25 0-2.12-.6-2.41-.93l.84-.89c1.1.77 1.98.63 2.29.47.18-.1.3-.35-.72-.54-1.27-.24-2.3-.76-2.28-1.58.02-.82.86-1.56 2.28-1.53zm2.75 2.5a2.5 2.5 0 012.5-2.5h.2a2.5 2.5 0 010 5h-.2a2.5 2.5 0 01-2.5-2.5zm1.43-.1a1.17 1.17 0 012.35 0v.13a1.17 1.17 0 01-2.35 0v-.12zM37 29h-1.52v3.14a1.05 1.05 0 01-2.02-.42V29H32v2.93a2.06 2.06 0 003.48 1.5V34H37v-5zm2.48 5v-3.03c.18-.39.65-.77 1.71-.72v-1.24c-.39-.04-1.24.01-1.7.57V29H38v5h1.48zm2.11-2.5a2.5 2.5 0 012.5-2.5h.2c.8 0 1.5.36 1.95.93l-.9.92a1.23 1.23 0 00-2.31.59v.12a1.23 1.23 0 002.29.63l.9.9a2.5 2.5 0 01-1.92.91h-.2a2.5 2.5 0 01-2.5-2.5zm5.2 0a2.5 2.5 0 012.5-2.5h.21a2.5 2.5 0 012.45 3h-3.64a1.23 1.23 0 001.22.8c.26 0 .7-.04 1.1-.36l.8.66a2.5 2.5 0 01-1.93.9h-.2a2.5 2.5 0 01-2.5-2.5zm2.67-1.3c.47 0 .87.27 1.08.65h-2.16c.2-.38.61-.64 1.08-.64z" fill="#465761"/></svg>