<!-- by TradingView --><svg width="56" height="56" viewBox="0 0 56 56" xmlns="http://www.w3.org/2000/svg"><path fill="#1A2959" d="M0 0h56v56H0z"/><path d="M12.84 20.03 12 18l-.83 2.03-2.17.18 1.65 1.43-.5 2.15L12 22.64l1.86 1.15-.5-2.15L15 20.21l-2.17-.18Zm5.23 3.67-.59-1.43-.59 1.43-1.52.12 1.16 1-.35 1.5 1.3-.8 1.3.8-.35-1.5 1.16-1-1.52-.12Zm3.46 1.46.4 1 1.07.09-.81.7.25 1.05-.91-.56-.91.56.24-1.05-.8-.7 1.06-.09.4-1ZM24 21h22v3H24v-3Zm0 4h22v3H24v-3Zm22 4H13v3h33v-3Zm-33 4h33v3H13v-3Z" fill="#fff"/></svg>