<!-- by TradingView --><svg width="56" height="56" viewBox="0 0 56 56" xmlns="http://www.w3.org/2000/svg"><path fill="url(#asjyb0so0)" d="M0 0h56v56H0z"/><path d="M11.02 30.56c0 3.71 2.27 6.72 3.51 7.76-.88-1.2-2.67-4.42-2.77-7.76-.1-3.34 1.49-6.68 2.3-7.93-1.17 1-3.04 3.42-3.04 7.93Z" fill="#8BCFD0"/><path d="M28.43 11c-13.86 0-17.74 12.57-17.41 18.52 2.04-14.07 12.45-17.23 17.4-17.05 1.55.13 8.98.4 13.33 9.36 3.48 7.17-.78 15.02-3.35 18.06a16.4 16.4 0 0 0 4.42-18.66A15.32 15.32 0 0 0 28.42 11Z" fill="#86C7C9"/><path d="M16.24 19.16c-5.89 8.45-3.52 14.93-1.6 17.11-2.58-5.99 0-12.03 1.6-14.3 6-10 15.58-8.14 19.62-5.96-8.24-5.81-17.43 0-19.62 3.15Z" fill="#87C9C8"/><path d="M42.22 27.18c-.21-5.35-3.57-8.02-5.22-8.7 6.42 5.73 4.5 14.25 2.74 17.8.92-.8 2.7-3.75 2.48-9.1Z" fill="#8BCFD0"/><path d="M20.93 42.1c-6.75-3.51-6.8-11.17-5.76-14.92-.85 17.7 14.2 16.6 21.83 13.84-6.16 4.01-12.88 2.96-16.07 1.07Z" fill="#82CCCB"/><path d="M38.92 41.58c-8.57 6.93-16.47 1.2-16.8 1.07 6.93 2.24 12.22.53 14-.6A16.6 16.6 0 0 0 44.2 24.6c1.27 3.22 1.99 11.12-5.27 16.98Z" fill="#8CD0CF"/><path d="M17 34v-5h2.83v1H18v1h1.69v1H18v1h1.84v1H17ZM23.65 29v5h-.77L21 31v3h-1v-5h.92l1.75 2.92V29h.98ZM23.82 30v-1h3.45v1H26v4h-1v-4h-1.18ZM28.63 29v5H27.6v-5h1.02ZM29 30v-1h2.92v1H31v4h-1v-4h-1ZM33 29v5h-1v-5h1ZM35.3 34c.7 0 1.26-.53 1.26-1.19V30.2c0-.66-.57-1.19-1.26-1.19h-1.43a.4.4 0 0 0-.42.4v.17c0 .22.19.43.42.43h1.3c.22 0 .41.05.41.27v.4c0 .22-.19.33-.42.33h-1.13c-.23 0-.42.24-.42.46v.08c0 .22.19.46.42.46h1.13c.23 0 .42.11.42.33v.4c0 .22-.19.27-.42.27h-1.3c-.23 0-.42.25-.42.47v.13c0 .22.19.4.42.4h1.44ZM25.67 24.47a.63.63 0 0 0-.2-.45.74.74 0 0 0-.5-.16.83.83 0 0 0-.37.07.52.52 0 0 0-.23.2.52.52 0 0 0-.07.27.46.46 0 0 0 .19.4c.06.05.13.09.2.12l.26.09.38.1c.18.05.34.11.5.2a1.22 1.22 0 0 1 .65.7 1.52 1.52 0 0 1-.1 1.31c-.13.21-.31.38-.56.5-.23.12-.52.18-.86.18a2 2 0 0 1-.88-.18c-.24-.12-.44-.3-.58-.54a1.8 1.8 0 0 1-.21-.88h.85c0 .17.04.3.11.41.08.11.17.2.3.25.11.05.25.08.4.08.15 0 .28-.03.39-.08a.6.6 0 0 0 .25-.21c.06-.09.1-.2.1-.31 0-.11-.03-.2-.09-.28a.64.64 0 0 0-.24-.19 2.2 2.2 0 0 0-.38-.14l-.45-.13a1.8 1.8 0 0 1-.83-.47c-.2-.21-.3-.5-.3-.86 0-.3.06-.55.2-.77.13-.22.32-.4.56-.51.24-.13.5-.19.8-.19.32 0 .59.06.82.19.23.12.4.3.54.51.12.22.19.48.2.77h-.85Z" fill="#fff"/><path d="M28.99 24.47a.63.63 0 0 0-.21-.45.74.74 0 0 0-.5-.16.83.83 0 0 0-.37.07.52.52 0 0 0-.22.2.52.52 0 0 0-.08.27.46.46 0 0 0 .19.4c.06.05.13.09.21.12l.26.09.37.1c.18.05.35.11.5.2a1.22 1.22 0 0 1 .65.7 1.52 1.52 0 0 1-.1 1.31c-.13.21-.31.38-.55.5-.24.12-.53.18-.87.18a2 2 0 0 1-.87-.18c-.25-.12-.44-.3-.58-.54a1.8 1.8 0 0 1-.22-.88h.85c0 .17.05.3.12.41.07.11.17.2.28.25.13.05.26.08.41.08.15 0 .28-.03.39-.08a.6.6 0 0 0 .26-.21c.06-.09.09-.2.09-.31 0-.11-.03-.2-.08-.28a.64.64 0 0 0-.24-.19 2.2 2.2 0 0 0-.39-.14l-.45-.13a1.8 1.8 0 0 1-.83-.47c-.2-.21-.3-.5-.3-.86 0-.3.06-.55.2-.77.14-.22.32-.4.56-.51.24-.13.51-.19.81-.19.31 0 .58.06.81.19.23.12.41.3.54.51.13.22.2.48.2.77h-.84ZM30 28v-5h2.85v1H31v1h1.7v1H31v1h1.85v1H30ZM33 24v-1h3v1h-1v4h-1v-4h-1ZM39.38 30.47a.63.63 0 0 0-.2-.45.74.74 0 0 0-.5-.16.83.83 0 0 0-.37.07.52.52 0 0 0-.23.2.52.52 0 0 0-.07.27.46.46 0 0 0 .19.4c.06.05.13.09.2.12l.26.09.38.1c.18.05.34.11.5.2a1.22 1.22 0 0 1 .65.7 1.51 1.51 0 0 1-.1 1.31c-.13.21-.31.38-.55.5-.24.12-.53.18-.87.18a2 2 0 0 1-.88-.18c-.24-.12-.44-.3-.58-.54a1.8 1.8 0 0 1-.21-.88h.85c0 .17.05.3.12.41.07.11.16.2.28.25.12.05.26.08.41.08.15 0 .28-.03.39-.08a.6.6 0 0 0 .26-.21c.06-.09.09-.2.09-.31 0-.11-.03-.2-.09-.28a.64.64 0 0 0-.24-.19 2.2 2.2 0 0 0-.38-.14l-.45-.13a1.8 1.8 0 0 1-.83-.47c-.2-.21-.3-.5-.3-.86 0-.3.06-.55.2-.77.13-.22.32-.4.56-.51.24-.13.5-.19.81-.19.3 0 .58.06.8.19.24.12.42.3.55.51.13.22.2.48.2.77h-.85ZM20.4 25.79l.7-2.79h1.1l1.29 4.49c.1.35-.46.64-.76.45l-1.62-1.16-.26 1.22h-1l.47-1.85h1.14l1.2.88-.95-2.77-.41 1.53h-.9Z" fill="#fff"/><defs><linearGradient id="asjyb0so0" x1="10.42" y1="9.71" x2="68.15" y2="76.02" gradientUnits="userSpaceOnUse"><stop stop-color="#1A1E21"/><stop offset="1" stop-color="#06060A"/></linearGradient></defs></svg>