<!-- by TradingView --><svg width="56" height="56" viewBox="0 0 56 56" xmlns="http://www.w3.org/2000/svg"><path fill="#F0F3FA" d="M0 0h56v56H0z"/><path d="M32.87 23c-7.65 0-13.1 1.77-14.87 2.5 2.43-.57 8.82-2 14.87-2C46.91 23.5 51 27.22 51 28.26c0 1.03-1.22 1.98-2.09 2.74 1.83-.67 3.09-1.84 3.09-2.74C52 25.1 42.43 23 32.87 23Z" fill="#606163"/><path d="M7.25 27.32c.18-.2.45-.32.73-.32h.36c.36 0 .66.28.66.62V31H8v-1H6.1l-.87 1H4l3.25-3.68ZM6.96 29H8v-1.2L6.96 29Z" fill="url(#amss5re4o)"/><path d="M10 28.16c0-.64.47-1.16 1.04-1.16H14v1h-2.66a.34.34 0 1 0 0 .69h1.63c.57 0 1.03.52 1.03 1.15 0 .64-.47 1.16-1.04 1.16H10v-1h2.66a.34.34 0 1 0 0-.69h-1.63c-.57 0-1.03-.52-1.03-1.15Z" fill="url(#bmss5re4o)"/><path d="M18 28v-1h-3v1h1v3h1v-3h1Z" fill="url(#cmss5re4o)"/><path d="M32 28v-1h-3v1h1v3h1v-3h1Z" fill="url(#dmss5re4o)"/><path d="M43 27h1v1.5h2V27h1v4h-1v-1.5h-2V31h-1v-4Z" fill="url(#emss5re4o)"/><path d="M19 31v-4h2.5a1.5 1.5 0 0 1 .97 2.64A2 2 0 0 1 23 31h-1.11v-.11c0-.5-.4-.89-.89-.89h-1v1h-1Zm1-2h1.5a.5.5 0 0 0 0-1H20v1Z" fill="url(#fmss5re4o)"/><path fill-rule="evenodd" d="M24.86 27c-.45 0-.8.4-.8.9v2.2c0 .5.35.9.8.9h2.33c.45 0 .81-.4.81-.9v-2.2c0-.5-.36-.9-.8-.9h-2.34ZM27 28h-2v2h2v-2Z" fill="url(#gmss5re4o)"/><path d="M33.89 27H37v1h-3v.64h2v.72h-2V30h3v1h-3.11a.9.9 0 0 1-.89-.9v-2.2c0-.5.4-.9.89-.9Z" fill="url(#hmss5re4o)"/><path d="M42 27h-3.11a.9.9 0 0 0-.89.9v2.2c0 .5.4.9.89.9H42v-1h-3v-2h3v-1Z" fill="url(#imss5re4o)"/><defs><linearGradient id="amss5re4o" x1="6.5" y1="27" x2="6.5" y2="31" gradientUnits="userSpaceOnUse"><stop stop-color="#07395C"/><stop offset="1" stop-color="#10202F"/></linearGradient><linearGradient id="bmss5re4o" x1="12" y1="27" x2="12" y2="31" gradientUnits="userSpaceOnUse"><stop stop-color="#07395C"/><stop offset="1" stop-color="#10202F"/></linearGradient><linearGradient id="cmss5re4o" x1="16.5" y1="27" x2="16.5" y2="31" gradientUnits="userSpaceOnUse"><stop stop-color="#07395C"/><stop offset="1" stop-color="#10202F"/></linearGradient><linearGradient id="dmss5re4o" x1="30.5" y1="27" x2="30.5" y2="31" gradientUnits="userSpaceOnUse"><stop stop-color="#07395C"/><stop offset="1" stop-color="#10202F"/></linearGradient><linearGradient id="emss5re4o" x1="45" y1="27" x2="45" y2="31" gradientUnits="userSpaceOnUse"><stop stop-color="#07395C"/><stop offset="1" stop-color="#10202F"/></linearGradient><linearGradient id="fmss5re4o" x1="21" y1="27" x2="21" y2="31" gradientUnits="userSpaceOnUse"><stop stop-color="#07395C"/><stop offset="1" stop-color="#10202F"/></linearGradient><linearGradient id="gmss5re4o" x1="26.03" y1="27" x2="26.03" y2="31" gradientUnits="userSpaceOnUse"><stop stop-color="#07395C"/><stop offset="1" stop-color="#10202F"/></linearGradient><linearGradient id="hmss5re4o" x1="35" y1="27" x2="35" y2="31" gradientUnits="userSpaceOnUse"><stop stop-color="#07395C"/><stop offset="1" stop-color="#10202F"/></linearGradient><linearGradient id="imss5re4o" x1="40" y1="27" x2="40" y2="31" gradientUnits="userSpaceOnUse"><stop stop-color="#07395C"/><stop offset="1" stop-color="#10202F"/></linearGradient></defs></svg>