<!-- by TradingView --><svg xmlns="http://www.w3.org/2000/svg" width="56" height="56" viewBox="0 0 56 56"><path fill="#F0F3FA" d="M0 0h56v56H0z"/><path d="M22.7 13.6c-7.2 4.8-6.44 11.46-4.24 15.87.53 1.07 2.2.48 2.47-.67.56-2.39 1.96-5.2 5-7.45 3.47-2.59 7.85-2 11.21-.72 1.37.52 2.94-.76 2.23-2.03-4.36-7.85-12.84-7.53-16.67-5z" fill="#1C4B8F"/><path d="M16.48 41.3c7.57 4.18 13.44.18 16.36-3.8.7-.95-.58-2.16-1.73-1.87-2.39.6-5.81.91-9.2-.74-3.9-1.9-5.39-6.05-5.8-9.61-.16-1.45-2.02-2.26-2.83-1.04-4.99 7.46-.82 14.83 3.2 17.05z" fill="#4679B8"/><path d="M43.97 31.77c-.79-8.6-7.4-11.18-12.34-11.35-1.2-.05-1.47 1.69-.58 2.48a13.35 13.35 0 0 1 4.56 8c.62 4.28-2 7.84-4.72 10.18-1.1.95-.73 2.93.73 2.92 9-.08 12.77-7.67 12.35-12.23z" fill="#C4DBF3"/></svg>