<!-- by TradingView --><svg xmlns="http://www.w3.org/2000/svg" width="56" height="56" viewBox="0 0 56 56"><path fill="#F0F3FA" d="M0 0h56v56H0z"/><path d="M19.67 26.5h-3.11l-.9 1.5H14l4.41-7h1.82l1.27 7h-1.58l-.25-1.5Zm-.2-1.2L19 22.45l-1.88 2.85h2.34ZM22 26.54l1.44-.27c.09.22.25.42.47.56.23.12.5.17.76.17.33 0 .93-.03.94-.46 0-.33-.42-.42-.68-.48a7.25 7.25 0 0 1-1.63-.6 1.1 1.1 0 0 1-.5-.93c0-.36.18-.72.48-.97.55-.4 1.24-.56 1.98-.56.55 0 1.1.1 1.57.35.35.21.59.54.67.9l-1.35.32a.71.71 0 0 0-.34-.4c-.24-.12-.5-.18-.78-.17-.3-.02-.73.14-.73.45 0 .3.6.38.9.44.5.1.98.28 1.42.54.16.1.28.24.37.4a1 1 0 0 1 .12.5c0 .22-.05.44-.16.64s-.27.39-.47.53c-.51.36-1.17.5-1.81.5-.65 0-1.25-.1-1.8-.38a1.9 1.9 0 0 1-.87-1.08ZM31.41 26l1.39.3c-.2.5-.58.94-1.08 1.26-.5.3-1.08.44-1.68.43-.31.02-.62-.02-.92-.12a1.96 1.96 0 0 1-1.42-1.92c0-1.07.58-2.06 1.54-2.55.5-.27 1.1-.4 1.7-.4.51 0 1.14.13 1.58.44.2.14.36.32.48.52.11.2.18.41.2.64l-1.5.13c-.03-.52-.4-.75-.87-.73-1.1.01-1.7 1.15-1.63 2.08 0 .5.37.93.84.92.53-.01 1.1-.42 1.37-1ZM38.84 26H35v.08c-.03.6.54.93 1.08.92.48 0 .96-.18 1.2-.63l1.39.24c-.51.93-1.58 1.4-2.6 1.39-1.26.02-2.57-.66-2.57-2.22 0-1.74 1.61-2.84 3.2-2.78.9-.04 1.81.4 2.16 1.26.22.52.16 1.2-.02 1.74Zm-1.34-.8V25c0-.63-.4-1.02-1.01-1-.74 0-1.27.52-1.4 1.23l2.4-.03ZM40.38 23h1.33l-.13.75c.28-.24.6-.43.93-.58.29-.11.6-.17.91-.17.37 0 .74.1 1.01.35.25.24.36.56.37.9-.02.34-.08.67-.16.99l-.6 2.76h-1.42l.62-2.72c.06-.24.11-.49.14-.74.01-.35-.29-.54-.6-.54-.53 0-1.04.43-1.28.89-.16.37-.28.7-.35 1.1L40.7 28h-1.4l1.08-5ZM45.43 24l.24-1h.76l.26-1.05 1.8-.95-.5 2h.94l-.24 1h-.93l-.43 1.91c-.06.22-.08.52-.12.74-.02.28.33.35.53.35h.52l-.27.93c-.27.04-.55.07-.82.07-.67 0-1.67-.25-1.59-1.1.04-.37.11-.73.2-1.09L46.2 24h-.77ZM13 33.64h1.5c-.07.99 1 1.16 1.5 1.16.64 0 1.43.02 1.44-.78 0-.2-.1-.39-.28-.51-.34-.2-.7-.37-1.08-.49-.45-.16-.88-.36-1.3-.58-.55-.3-.8-.87-.78-1.45-.03-1.39 1.43-2.06 2.62-1.99 1.21-.06 2.84.6 2.88 2H18c0-.47-.75-.8-1.34-.8-.48 0-1.16.11-1.16.7-.01.63.76.76 1.29.94.98.3 2.21.8 2.21 1.99 0 .58-.3 1.15-.8 1.53-.62.45-1.42.68-2.22.63-.95.02-2.17-.22-2.72-1.08-.2-.38-.26-.78-.26-1.27ZM20 33.23c0-.42.08-.85.2-1.26a3.86 3.86 0 0 1 2.26-2.62c.57-.24 1.2-.36 1.84-.35.43-.01.85.05 1.25.18.4.14.75.34 1.05.6.3.28.54.6.7.95.15.35.22.73.2 1.11 0 .71-.2 1.42-.58 2.06a3.88 3.88 0 0 1-1.54 1.56c-.67.36-1.44.55-2.22.54a3.45 3.45 0 0 1-1.8-.43 2.47 2.47 0 0 1-1.03-1.06 2.8 2.8 0 0 1-.33-1.28Zm1.5 0c-.03 1.02.89 1.57 1.81 1.57.45 0 .88-.07 1.23-.31A3.48 3.48 0 0 0 26 31.92c.02-1.45-.92-1.72-1.82-1.72-1.54 0-2.67 1.55-2.68 3v.03ZM27.5 36l2.11-7h1.52l-1.72 5.8H33l-.26 1.2H27.5ZM39.15 34.45h-2.96L35.15 36H33.5l4.41-7h1.82L41 36h-1.53l-.32-1.55Zm-.2-1.16-.45-2.82-1.72 2.82h2.18ZM43.09 36H41.5l1.61-7h3.42c.46 0 .93.04 1.38.17.33.1.6.32.78.6.22.32.31.7.3 1.07.01.54-.18 1.07-.58 1.47-.49.42-1.12.68-1.8.72.23.19.43.4.58.65.46.74.86 1.52 1.18 2.32h-1.7c-.14-.4-.4-1.01-.8-1.85-.23-.57-.54-1.15-1.54-1.15h-.59l-.65 3Zm.9-4h2.18c.91 0 1.33-.67 1.33-1.14 0-.66-.87-.66-1.33-.66h-1.75l-.44 1.8Z"/><path d="M15 17.42h-.1a5 5 0 0 0-4.95 4.48A4.02 4.02 0 1 1 15 17.42Z" fill="url(#ayargbzut)"/><path d="M8.5 18c0 1.17.8 2.15 1.88 2.42l3.04-3.04A2.5 2.5 0 0 0 8.5 18Z" fill="#E9AE55"/><circle cx="11" cy="18" r="1.5" fill="#E38F10"/><path d="M29 23c-1.34-3.88-5.9-7-10.49-7A11.61 11.61 0 0 0 7 27.71c0 3.79 1.76 7.15 4.5 9.29-.9-1.6-3.5-4.13-3.5-8.8C8 22 12.9 17 18.99 17c5.04 0 7.75 3.42 8.35 4 .6.58 1.68 2.05 1.66 2Z" fill="#103C82"/><defs><linearGradient id="ayargbzut" x1="8.47" y1="12.97" x2="14.61" y2="22.48" gradientUnits="userSpaceOnUse"><stop offset=".17" stop-color="#F4D6A7" stop-opacity=".18"/><stop offset=".45" stop-color="#F0C585"/></linearGradient></defs></svg>