<!-- by TradingView --><svg xmlns="http://www.w3.org/2000/svg" width="56" height="56" viewBox="0 0 56 56"><path fill="#F0F3FA" d="M0 0h56v56H0z"/><path d="M44 39.7c0 1.82-1.58 3.3-3.53 3.3H15.53C13.58 43 12 41.52 12 39.7V16.3c0-1.82 1.58-3.3 3.53-3.3h24.94c1.95 0 3.53 1.48 3.53 3.3v23.4z" fill="#003A78"/><path d="M40.47 13H15.53C13.58 13 12 14.47 12 16.28v10.76c.4.25 6.54 3.96 16 3.96s15.6-3.7 16-3.95V16.28c0-1.81-1.58-3.28-3.53-3.28z" fill="url(#ab4jhypvl)" fill-opacity=".4"/><path d="M26.5 18.36l-1.63 14.86-10.55 5.26L26.5 18.36zm3 0l1.63 14.86 10.55 5.26L29.5 18.36zM14 40l11.55-6h4.87L42 40H14zM26 33h4l-2-17-2 17z" fill="#F0F3FA"/><defs><linearGradient id="ab4jhypvl" x1="28" y1="31.12" x2="28" y2="9.96" gradientUnits="userSpaceOnUse"><stop stop-color="#fff"/><stop offset=".12" stop-color="#BFC4DD"/><stop offset=".25" stop-color="#8692BC"/><stop offset=".37" stop-color="#586DA2"/><stop offset=".49" stop-color="#36548E"/><stop offset=".59" stop-color="#1C4582"/><stop offset=".69" stop-color="#043D7B"/><stop offset=".76" stop-color="#003A78"/></linearGradient></defs></svg>