<!-- by TradingView --><svg width="56" height="56" viewBox="0 0 56 56" xmlns="http://www.w3.org/2000/svg"><path fill="#F0F3FA" d="M0 0h56v56H0z"/><path d="M30.5 16.38a2.7 2.7 0 0 0-4.72 0L12.46 39.33a1.3 1.3 0 0 1-1.8.49 1.35 1.35 0 0 1-.48-1.84L23.5 14.71a5.32 5.32 0 0 1 9.28 0l13.04 23.27a1.35 1.35 0 0 1-.47 1.84 1.3 1.3 0 0 1-1.8-.49L30.5 16.38Z"/><path d="M20.3 29.36a1.11 1.11 0 0 1 1.58-.06C23.55 30.86 25.73 32 28 32c2.26 0 4.45-1.11 6.13-2.66a1.11 1.11 0 0 1 1.58.07c.41.47.38 1.18-.08 1.6a11.22 11.22 0 0 1-15.27-.04 1.14 1.14 0 0 1-.06-1.6Z"/></svg>