<!-- by TradingView --><svg width="56" height="56" viewBox="0 0 56 56" xmlns="http://www.w3.org/2000/svg"><path d="M41 25c.44.26.89.5 1.32.76l-.01 1.16a10.91 10.91 0 0 1 0 1.13c.02 1.18 0 2.37 0 3.55.02.16-.04.38-.24.39-.36.02-.71 0-1.07 0V25ZM35 25h1.13c.03.3.05.7.13 1 .6-.8 1.73-1.18 2.74-.92v.85a3.3 3.3 0 0 0-2.6 1.18V32H35v-7ZM28.25 25.46c.67-.4 1.5-.55 2.29-.41a2.9 2.9 0 0 1 2.1 1.36c.4.67.38 1.46.34 2.2-.04.13-.2.4-.35.39-1.42 0-2.84.02-4.26 0-.02.44-.04.67.13 1.08.22.5.8.9 1.38.92a7.2 7.2 0 0 0 2.47-.41c.1.33.2.67.27 1-1.12.3-2.34.58-3.51.28a2.67 2.67 0 0 1-1.87-1.46 2.65 2.65 0 0 1-.24-1v-1.83a2.6 2.6 0 0 1 1.25-2.12Zm.96.75c-.5.2-.77.69-.86 1.16-.02.18-.02.45-.02.63 1.1.01 2.2 0 3.31 0 .04-.48-.04-1.07-.38-1.45-.49-.53-1.39-.62-2.05-.34ZM22 22.3c.5-.1.97-.23 1.46-.3v2.61H26c-.08.33-.18.65-.24.97h-2.3v4.16c0 .36.12.76.47.96.27.18.63.18.95.16.3-.04.59-.05.88-.12.06.36.15.72.23 1.08-.86.2-1.79.28-2.63-.01A1.9 1.9 0 0 1 22 30.06V22.3ZM15.22 25.84c.63-.43 1.36-.8 2.17-.84.71-.01 1.48.17 1.98.64.44.41.6 1 .63 1.55v4.1c0 .22.03.45-.08.64-.42.12-.87.04-1.3.07V27.4c0-.37-.1-.77-.39-1.04-.36-.3-.89-.33-1.34-.26-.58.11-1.08.41-1.52.75V32H14v-6.82l1.16.01c.01.22.03.44.06.65ZM6.65 22.62c.6-.75 1.82-.83 2.51-.17.5.45.67 1.14.81 1.78L12 32h-1.34c-.23-.93-.48-1.84-.7-2.76H6.01L5.31 32H4v-.02l1.85-7.17c.22-.74.28-1.58.8-2.2Zm.78 1.07c-.4 1.44-.72 2.9-1.14 4.33l.07.07c1.1-.02 2.21.02 3.32-.02-.4-1.46-.74-2.92-1.12-4.38-.06-.28-.32-.54-.62-.5-.26 0-.45.26-.5.5ZM44.28 25.02c.65-.01 1.3-.03 1.95 0 .93 1.17 1.9 2.3 2.84 3.48-.9 1.12-1.82 2.22-2.73 3.33-.07.09-.14.2-.26.17h-1.81c.95-1.17 1.9-2.34 2.86-3.48-.93-1.2-1.91-2.33-2.85-3.5Z" fill="#4B4E79"/><path d="M50.05 25.01c.65 0 1.3-.03 1.95 0v.02c-.84 1-1.67 2.03-2.5 3.04l-.98-1.18c.51-.62 1.03-1.24 1.53-1.88Zm-1.53 5.1c.33-.39.64-.8.97-1.18.84 1.02 1.68 2.03 2.51 3.06V32h-1.8c-.11.02-.2-.07-.26-.15-.47-.58-.94-1.17-1.42-1.74ZM41.48 21.04c.37-.12.85.03.98.43.07.27.06.61-.16.8-.35.38-1.07.27-1.24-.23-.17-.38.03-.87.42-1Z" fill="#F68921"/></svg>