<!-- by TradingView --><svg xmlns="http://www.w3.org/2000/svg" width="56" height="56" viewBox="0 0 56 56"><path fill="#F0F3FA" d="M0 0h56v56H0z"/><circle cx="33.5" cy="12.5" r="1.5" fill="#54668C"/><circle cx="37.5" cy="42.5" r="1.5" fill="#54668C"/><circle cx="14.5" cy="31.5" r="1.5" fill="#54668C"/><path d="M33.46 15.9a38.2 38.2 0 0 0-.35 8.92c.43 6.16 3.38 13.1 3.82 14.12.05.1.07.2.07.3a.8.8 0 0 1-.41.68.8.8 0 0 1-.37.08.72.72 0 0 1-.62-.34c-.57-.87-4.3-6.45-9-10.13a36.5 36.5 0 0 0-2.66-1.89C22.4 28.77 18.62 31 17.7 31c-.26 0-.5-.2-.62-.45a.82.82 0 0 1-.07-.33c0-.28.18-.54.46-.66 1.06-.45 3.1-1.38 5.1-2.78a74.43 74.43 0 0 0-6.13-3.3.76.76 0 0 1-.33-1.06c.12-.21.32-.42.58-.42h.1l6.52.5c.42.04.7.35.7.77 0 .51-.41.73-.87.73l-2.74-.19a69.4 69.4 0 0 1 3.48 2.01c.57-.46 1.14-.95 1.68-1.48 4.21-4.15 6.21-8.32 6.47-8.9.12-.25.4-.44.68-.44.46 0 .84.44.76.9ZM25.2 26.66c.8.54 1.6 1.1 2.33 1.68a40.62 40.62 0 0 1 6.14 6.17 41.5 41.5 0 0 1-2.05-9.6 40.21 40.21 0 0 1-.02-5.66 36.22 36.22 0 0 1-5 6.14c-.45.45-.92.88-1.4 1.27Z" fill="#F58C30"/></svg>