<!-- by TradingView --><svg width="56" height="56" viewBox="0 0 56 56" xmlns="http://www.w3.org/2000/svg"><path fill="#171731" d="M0 0h56v56H0z"/><path d="M34.75 40a1.29 1.29 0 0 1-.95-.37l-2.06-2.11a1.37 1.37 0 0 1-.4-.97 1.38 1.38 0 0 1 .4-.97l2.25-2.3a1.67 1.67 0 0 0 .48-1.2v-5.11a1.72 1.72 0 0 0-.48-1.2l-2.25-2.3a1.37 1.37 0 0 1-.4-.97 1.4 1.4 0 0 1 .4-.97l2.06-2.11a1.33 1.33 0 0 1 .95-.4 1.3 1.3 0 0 1 .94.4l2.07 2.11a1.37 1.37 0 0 1 .39.97 1.4 1.4 0 0 1-.4.97l-2.24 2.3a1.7 1.7 0 0 0-.35.55c-.09.2-.16.42-.16.65v5.13c0 .22.08.44.16.64.09.21.21.4.37.55l2.24 2.3a1.37 1.37 0 0 1 .4.98 1.4 1.4 0 0 1-.4.97l-2.08 2.1c-.25.24-.6.37-.94.36Zm-13.47 0a1.3 1.3 0 0 1-.95-.37l-2.07-2.11a1.4 1.4 0 0 1 0-1.94l2.25-2.3a1.7 1.7 0 0 0 .49-1.2v-5.11c0-.45-.18-.88-.49-1.2l-2.25-2.3a1.4 1.4 0 0 1 0-1.94l2.07-2.11a1.31 1.31 0 0 1 1.9 0l2.06 2.11a1.4 1.4 0 0 1 0 1.94l-2.25 2.3c-.3.32-.48.75-.48 1.2v5.13a1.72 1.72 0 0 0 .49 1.2l2.25 2.3a1.4 1.4 0 0 1 0 1.94l-2.08 2.1c-.25.23-.59.37-.94.36ZM28 33a1.3 1.3 0 0 1-.95-.4l-2.06-2.12a1.36 1.36 0 0 1-.39-.96 1.37 1.37 0 0 1 .4-.97l2.24-2.3a1.7 1.7 0 0 0 .48-1.2v-5.12c0-.45-.17-.88-.48-1.2l-2.25-2.3a1.4 1.4 0 0 1 0-1.93l2.06-2.1A1.34 1.34 0 0 1 28 12a1.31 1.31 0 0 1 .95.4L31 14.52a1.4 1.4 0 0 1 0 1.93l-2.25 2.3c-.3.32-.48.75-.48 1.2v5.13a1.72 1.72 0 0 0 .48 1.2l2.25 2.3a1.4 1.4 0 0 1 0 1.94l-2.06 2.11c-.26.24-.6.37-.95.36Zm13.75-.17a1.65 1.65 0 0 1-1.2-.51L39 30.75a1.73 1.73 0 0 1-.5-1.24 1.76 1.76 0 0 1 .5-1.24l1.53-1.56a1.7 1.7 0 0 1 2.43 0l1.53 1.56a1.73 1.73 0 0 1 .51 1.24 1.76 1.76 0 0 1-.51 1.24l-1.53 1.57a1.68 1.68 0 0 1-1.22.51Zm-27.48 0a1.65 1.65 0 0 1-1.22-.51l-1.53-1.57a1.73 1.73 0 0 1-.5-1.24 1.76 1.76 0 0 1 .5-1.24l1.53-1.56a1.7 1.7 0 0 1 2.43 0L17 28.27a1.79 1.79 0 0 1 0 2.48l-1.53 1.57a1.68 1.68 0 0 1-1.21.51Z" fill="url(#a3s2yl23p)"/><defs><linearGradient id="a3s2yl23p" x1="11.01" y1="26" x2="44.99" y2="26" gradientUnits="userSpaceOnUse"><stop stop-color="#48D2E5"/><stop offset="1" stop-color="#0C6EE1"/></linearGradient></defs></svg>