<!-- by TradingView --><svg xmlns="http://www.w3.org/2000/svg" width="56" height="56" viewBox="0 0 56 56"><path fill="#F0F3FA" d="M0 0h56v56H0z"/><path d="m47.62 32.6.25-.79c.46.27.93.4 1.4.4.37 0 .64-.07.83-.23.2-.16.3-.37.3-.62a.78.78 0 0 0-.25-.6c-.16-.15-.43-.3-.83-.45-1.03-.37-1.54-.91-1.54-1.62 0-.48.18-.88.55-1.2.37-.33.85-.49 1.45-.49.58 0 1.05.12 1.42.36l-.26.76a2.2 2.2 0 0 0-1.18-.35c-.3 0-.54.08-.71.23a.72.72 0 0 0-.25.56c0 .23.08.4.24.54.16.14.45.28.85.44.51.2.9.43 1.14.7.25.27.37.61.37 1.03 0 .52-.18.94-.56 1.25-.39.32-.92.48-1.59.48a3.2 3.2 0 0 1-1.63-.4ZM47 27v6h-1v-1.1h-.02c-.39.7-1.2 1.1-1.98 1.1-1.39 0-2-1.32-2-2.57V27h1v3.24c0 1.25.49 1.88 1.35 1.88.62 0 1.33-.42 1.55-.99.07-.15.1-.33.1-.54V27h1ZM40.95 31.88l.18.79c-.47.22-1.03.33-1.67.33a2.8 2.8 0 0 1-2.1-.8 2.9 2.9 0 0 1-.8-2.13c0-.9.3-1.63.86-2.2a3.06 3.06 0 0 1 2.27-.87c.59 0 1.08.1 1.46.3l-.24.8a2.63 2.63 0 0 0-1.22-.27 1.9 1.9 0 0 0-1.51.63c-.36.41-.54.93-.54 1.55 0 .65.18 1.18.56 1.56.38.4.87.59 1.45.59.45 0 .88-.1 1.3-.28ZM36 33h-1v-6h1v6ZM31.4 26.11l1.04-.31v1.4H34v.8h-1.56v3c0 .75.26 1.12.79 1.12.25 0 .45-.02.6-.07l.06.8c-.27.1-.59.15-.94.15-.49 0-.87-.15-1.14-.44-.27-.3-.4-.82-.4-1.53V28h-.9v-.8h.9V26.1ZM25 33v-6h.89l.06 1.1h.02c.37-.71 1.15-1.1 1.92-1.1 1.4 0 2.11 1.28 2.11 2.5V33h-1v-3.39c0-.86-.48-1.74-1.46-1.74-.82 0-1.54.79-1.54 1.6V33h-1ZM24 29.34v2.15c0 .56.03 1.15.08 1.51h-.9l-.1-.86h-.03c-.17.25-.42.46-.73.62-.3.16-.65.24-1.04.24-.56 0-1-.16-1.31-.49a1.62 1.62 0 0 1-.47-1.16c0-.7.3-1.23.9-1.6.6-.37 1.48-.55 2.6-.54v-.12c0-.82-.54-1.32-1.33-1.32-.59 0-1.1.14-1.52.43l-.24-.7c.53-.33 1.17-.5 1.92-.5 1.45 0 2.17.95 2.17 2.34Zm-1 1.6v-.99c-1.64-.03-2.44.38-2.44 1.28 0 .32.09.57.27.75.2.16.43.25.71.25.36 0 .66-.1.91-.28.25-.19.4-.4.5-.67.03-.1.05-.21.05-.33ZM17.5 33v-8h1v8h-1ZM35.02 25.2c.13-.14.29-.2.48-.2.2 0 .35.06.47.2.12.11.18.27.18.46 0 .18-.06.34-.18.47a.66.66 0 0 1-.5.18.63.63 0 0 1-.46-.18.69.69 0 0 1-.17-.47c0-.18.06-.34.18-.47ZM14 26.11l1-.32v1.41h1.5v.8H15v2.98c0 .76.25 1.14.78 1.14.25 0 .5-.03.66-.08v.82c-.27.1-.58.14-.94.14-.48 0-.86-.15-1.14-.44-.27-.3-.36-.82-.36-1.53V28h-1v-.8h1V26.1ZM4 33l6.81-12H12v12h-1V22.7L5.15 33H4Z" fill="#00374E"/></svg>