<!-- by TradingView --><svg width="56" height="56" viewBox="0 0 56 56" xmlns="http://www.w3.org/2000/svg"><path fill="#0D2852" d="M0 0h56v56H0z"/><path d="M7 25.63c0 6.04 7 9.12 10.51 9.9-1.9-1.15-5.7-4.62-5.7-9.3 0-8.75 11.22-10.87 16.82-10.83C19.43 13.6 7 18.08 7 25.63Zm18.56 12.96c-8.36 0-14.18-2.11-16.04-3.17C11.36 37.28 17.57 41 27.64 41 40.24 41 49 36.08 49 31.32c0-3.81-3.25-5.82-4.87-6.35 5.42 8.2-8.1 13.62-18.57 13.62Zm-6.58-6.44a.2.2 0 0 0 .02-.07.22.22 0 0 0-.03-.12.1.1 0 0 0-.09-.05.1.1 0 0 0-.1.04 1.6 1.6 0 0 1-.52.62c-.17.14-.38.2-.6.2a.7.7 0 0 1-.43-.13 1.2 1.2 0 0 1-.3-.37 2.18 2.18 0 0 1-.25-.86 4.17 4.17 0 0 1 .02-.98c.03-.21.09-.4.16-.58.08-.19.18-.34.32-.47l.18-.15a.42.42 0 0 1 .22-.06c.08 0 .17.03.27.08s.18.1.24.16a1.9 1.9 0 0 1 .34.88c.03.09.09.13.17.13.06 0 .1-.02.14-.05.05-.03.07-.08.07-.15l-.03-.22a7.55 7.55 0 0 1-.07-.7l-.2-.02a19.5 19.5 0 0 0-.56-.21 1.36 1.36 0 0 0-1.25.21c-.23.18-.4.42-.52.73-.12.3-.18.65-.18 1.03 0 .39.06.73.18 1.03.13.29.31.52.55.69.23.16.52.24.85.24.17 0 .34-.02.5-.05.16-.04.3-.12.45-.24l.23-.22a1.1 1.1 0 0 0 .22-.34Zm1.82-.63a4.22 4.22 0 0 0-.1-.86.95.95 0 0 0-.2-.36.4.4 0 0 0-.32-.15.37.37 0 0 0-.3.14c-.08.1-.14.21-.18.36-.04.14-.06.29-.08.44a3.93 3.93 0 0 0 .08 1.26c.04.14.1.26.19.36.08.1.19.14.33.14.12 0 .23-.04.3-.14.08-.09.14-.2.18-.35a5.15 5.15 0 0 0 .1-.84Zm.62.03c0 .28-.06.53-.16.75-.11.22-.26.39-.44.51-.18.13-.4.19-.63.19-.23 0-.44-.07-.62-.2-.17-.13-.32-.3-.42-.53-.1-.22-.15-.47-.15-.75 0-.29.05-.55.15-.77.1-.23.24-.42.42-.55.19-.13.4-.2.64-.2a1.08 1.08 0 0 1 1.07.74c.09.23.14.5.14.81Zm2.12-.76a.21.21 0 0 0 .03-.1 3.24 3.24 0 0 0-.05-.54c-.01-.06-.04-.1-.1-.12a.3.3 0 0 0-.12-.03c-.17 0-.3.06-.42.18-.12.11-.22.24-.32.39a1.96 1.96 0 0 0-.03-.36.54.54 0 0 0-.03-.13.1.1 0 0 0-.1-.06l-.14.03-.19.05a23.74 23.74 0 0 1-.42.1c-.03.02-.05.05-.05.1s.02.07.07.07h.1a.27.27 0 0 1 .08-.02c.05 0 .08.02.1.06l.04.15v2.13l-.01.1c-.01.03-.04.05-.07.05h-.1l-.08-.01c-.05 0-.07.03-.07.08v.06c.02.02.03.03.05.03h1.12c.05 0 .07-.03.07-.1 0-.05-.02-.08-.06-.08-.03 0-.07 0-.11.02-.04 0-.08 0-.1-.03-.04-.02-.05-.06-.05-.12v-1.48c.02-.14.06-.29.12-.44a.85.85 0 0 1 .23-.34.39.39 0 0 1 .08-.06.18.18 0 0 1 .09-.02c.05 0 .1.03.13.07.03.05.06.1.08.17l.06.17c.01.05.05.08.1.08.03 0 .06-.02.07-.05Zm1.97.45a9.7 9.7 0 0 1 0 .72c0 .14-.03.28-.06.41a.78.78 0 0 1-.16.34.38.38 0 0 1-.31.13.29.29 0 0 1-.23-.1.77.77 0 0 1-.14-.28c-.02-.1-.04-.2-.04-.3v-1.53a.98.98 0 0 1 .19-.32.4.4 0 0 1 .3-.12c.1 0 .17.03.22.1.06.05.1.13.14.24a4.4 4.4 0 0 1 .1.72Zm.5 1.03a2.63 2.63 0 0 0 .06-1.4 1.5 1.5 0 0 0-.2-.43 1.05 1.05 0 0 0-.3-.32.74.74 0 0 0-.42-.12c-.05 0-.11.02-.2.05a2.23 2.23 0 0 0-.41.2 3.23 3.23 0 0 1-.05-.15l-.02-.04c-.02-.04-.04-.06-.06-.06l-.03.01-.04.02a2.98 2.98 0 0 1-.66.17.1.1 0 0 0-.04.02l-.02.05c0 .03.02.05.04.06l.06.01h.18c.04 0 .07.01.08.06v.03l.02.1v3.17c0 .04-.02.07-.03.1a.08.08 0 0 1-.08.04h-.14c-.04 0-.07.02-.07.07 0 .02 0 .04.02.06 0 .02.02.03.04.03l.27-.01a3.37 3.37 0 0 1 .53 0l.26.01c.04 0 .06-.03.06-.09 0-.05-.02-.08-.06-.08h-.08a.5.5 0 0 1-.07 0c-.03 0-.06 0-.07-.04a.36.36 0 0 1-.01-.1v-.38a6.92 6.92 0 0 1 0-.5c.05.05.12.09.2.13.08.03.16.06.22.06.26 0 .48-.07.65-.2.17-.13.3-.3.38-.53Zm4.97-1.58c0 .03-.01.07-.03.1a.08.08 0 0 1-.07.05c-.05 0-.09-.03-.1-.08a4.74 4.74 0 0 1-.14-.34.15.15 0 0 0-.14-.07c-.03 0-.05 0-.08.02a.39.39 0 0 0-.08.06c-.1.08-.18.2-.24.34-.05.15-.08.3-.1.44v.8l-.01.68c0 .06.01.1.04.12.03.02.07.03.1.03l.12-.02c.04 0 .06.03.06.09s-.02.08-.07.08h-.56l-.56.01c-.02 0-.03 0-.04-.03a.16.16 0 0 1-.02-.06c0-.05.03-.08.08-.08h.18c.03 0 .06 0 .07-.04a.26.26 0 0 0 .02-.1V30.7l-.01-.14c0-.05-.02-.1-.04-.15-.02-.04-.05-.06-.1-.06l-.1.01a.35.35 0 0 1-.08.01c-.05 0-.07-.02-.07-.08 0-.04.02-.07.05-.08a.42.42 0 0 1 .13-.03 1.47 1.47 0 0 0 .29-.08 2.02 2.02 0 0 1 .33-.08.1.1 0 0 1 .1.06l.03.13a4 4 0 0 1 .03.36c.1-.15.2-.28.32-.4a.57.57 0 0 1 .42-.17.3.3 0 0 1 .13.03c.05.02.08.06.09.12l.04.27v.27Zm1.4 1.17.03.52-.15.14-.19.14a.37.37 0 0 1-.18.06.24.24 0 0 1-.2-.09.55.55 0 0 1-.09-.21 1.3 1.3 0 0 1-.02-.24c0-.18.04-.33.12-.44.08-.12.18-.2.3-.27.13-.07.26-.12.39-.15v.54Zm1 .9a.1.1 0 0 0 .02-.05v-.04c0-.01-.01-.02-.03-.02a.16.16 0 0 0-.08.03.18.18 0 0 1-.11.04c-.07 0-.12-.03-.14-.09a.87.87 0 0 1-.03-.18v-.2l-.01-.12v-1.16c0-.32-.09-.56-.26-.73a.9.9 0 0 0-.65-.24l-.36.03a.92.92 0 0 0-.34.14.6.6 0 0 0-.23.3l-.03.09v.07c0 .08.02.13.07.16s.1.04.16.04c.04 0 .1 0 .14-.02a.14.14 0 0 0 .1-.13l.01-.1.01-.1c.04-.1.1-.2.17-.26.08-.06.17-.1.27-.1.09 0 .15.04.2.12.04.08.07.18.1.3l.02.33V31.16l-.4.11c-.13.04-.27.08-.4.15-.1.05-.2.12-.29.2a1 1 0 0 0-.24.28.74.74 0 0 0 .02.74c.08.11.17.2.28.25a.79.79 0 0 0 .76-.02c.12-.08.23-.18.33-.3.05.14.11.25.2.32.08.07.19.11.33.11a.46.46 0 0 0 .41-.24Zm-5.05-1.65a4.09 4.09 0 0 1-.07 1.25.93.93 0 0 1-.18.35.4.4 0 0 1-.32.14.43.43 0 0 1-.34-.14.94.94 0 0 1-.2-.36 2.4 2.4 0 0 1-.08-.45 5.29 5.29 0 0 1 0-.8c.02-.16.05-.31.09-.45.04-.15.1-.26.18-.36.08-.1.18-.14.31-.14.14 0 .25.05.34.15.08.1.15.21.19.36.04.14.07.3.08.45Zm.5 1.2c.12-.23.17-.48.17-.76 0-.3-.05-.58-.14-.81-.1-.23-.23-.41-.42-.54-.18-.13-.4-.2-.69-.2-.25 0-.47.07-.66.2a1.3 1.3 0 0 0-.43.55c-.1.22-.16.48-.16.77 0 .28.05.53.16.75.1.22.25.4.43.53.19.13.4.2.65.2.24 0 .45-.06.64-.19.2-.12.34-.3.45-.5Zm9.53-.79a4.09 4.09 0 0 0-.11-.86.94.94 0 0 0-.2-.36.41.41 0 0 0-.33-.15.38.38 0 0 0-.31.14c-.08.1-.14.21-.18.36a3.81 3.81 0 0 0 0 1.7c.04.14.1.26.19.36.08.1.2.14.34.14a.4.4 0 0 0 .32-.14c.08-.09.14-.2.18-.35a4.98 4.98 0 0 0 .1-.84Zm.64.03c0 .28-.05.53-.17.75a1.3 1.3 0 0 1-.45.51c-.19.13-.4.19-.64.19-.25 0-.46-.07-.65-.2-.18-.13-.33-.3-.43-.53-.1-.22-.16-.47-.16-.75 0-.29.05-.55.16-.77.1-.23.25-.42.43-.55.2-.13.41-.2.66-.2.28 0 .51.07.7.2.18.13.32.3.4.54.1.23.15.5.15.81Zm2.69 1.36c0 .06-.03.09-.08.09h-1.05c-.03 0-.04 0-.05-.03a.17.17 0 0 1-.01-.06c0-.06.02-.09.07-.09h.16c.05 0 .07-.01.07-.06v-.93a95.38 95.38 0 0 0-.02-1.23.6.6 0 0 0-.09-.27c-.04-.08-.12-.11-.23-.11a.34.34 0 0 0-.2.08c-.07.06-.14.13-.2.21a.31.31 0 0 0-.04.15l-.02.08v1.95l-.02.05-.03.04c.01.03.03.05.07.05H40.17c.01 0 .03 0 .04.02.02.01.03.03.03.05 0 .07-.03.1-.08.1H39.1c-.02 0-.04 0-.05-.03a.17.17 0 0 1-.01-.06c0-.06.02-.09.07-.09H39.28c.04 0 .07 0 .07-.02l.01-.1v-2.15l-.01-.14c-.01-.05-.04-.07-.08-.07h-.25c-.02-.01-.03-.03-.03-.06s0-.04.02-.05a.1.1 0 0 1 .04-.03.4.4 0 0 1 .1-.02l.1-.01a4.41 4.41 0 0 0 .53-.17c.03 0 .05.03.06.08.03.06.04.12.05.18l.03.13c.09-.1.2-.18.32-.25a.74.74 0 0 1 .37-.14c.2 0 .36.05.47.12.12.06.2.16.25.31.05.14.07.34.07.58a79.59 79.59 0 0 1 0 1.72c0 .04 0 .06.02.08.02.02.05.02.08.02a.3.3 0 0 0 .06 0h.06c.05 0 .07.02.07.08Zm-5.46.09c.05 0 .07-.03.07-.08s-.02-.08-.06-.08h-.21c-.02-.03-.04-.07-.04-.13a162.87 162.87 0 0 1 .01-2.46c0-.04-.02-.07-.07-.07l-.02.01h-.03l-.3.08a4.24 4.24 0 0 1-.53.1c-.04 0-.06.04-.06.08 0 .03 0 .04.02.05l.06.02a.8.8 0 0 0 .13-.01l.12-.01c.04 0 .07.02.07.06l.01.12v2.03c0 .04 0 .07-.02.1 0 .02-.03.04-.07.04h-.08a.7.7 0 0 0-.08-.01c-.05 0-.07.02-.07.08l.01.05c.01.02.03.03.05.03h1.09Zm-.32-3.33a.4.4 0 0 0 .1-.28.4.4 0 0 0-.1-.27.31.31 0 0 0-.24-.12c-.1 0-.18.04-.25.12a.4.4 0 0 0-.1.27c0 .11.03.2.1.28.07.08.15.12.25.12s.17-.04.24-.12Zm-1.34 3.03c0 .05-.02.1-.07.14a.55.55 0 0 1-.16.1 1.19 1.19 0 0 1-.37.06c-.22 0-.38-.06-.47-.17a.92.92 0 0 1-.15-.56V30.2h-.18a.1.1 0 0 0-.08.03c-.02.03-.04.04-.06.04-.03 0-.05-.02-.05-.06l.02-.08a.5.5 0 0 1 .03-.08c0-.02.02-.03.03-.04l.04-.01h.25v-.4l.01-.02a1.6 1.6 0 0 0 .52-.55c.01-.02.03-.03.05-.03.05 0 .07.03.07.08V30h.46l.06.03c.02.01.03.03.03.07 0 .07-.03.1-.1.1H34v2.3a.8.8 0 0 1 0 .06v.12c.03.05.07.08.12.08.06 0 .1 0 .16-.02a.5.5 0 0 0 .15-.05.5.5 0 0 0 .04-.03.08.08 0 0 1 .05-.01c.03 0 .05.01.05.05ZM16 27.35l-.58.17V28h1.68v-.48l-.45-.17v-1.92L18.2 28h.8v-3.32l.47-.17V24H18v.51l.37.17v1.94L16.81 24h-1.4v.51l.59.17v2.67Zm7.18.35c0 .05-.02.1-.07.14a.55.55 0 0 1-.16.1 1.19 1.19 0 0 1-.37.06c-.23 0-.38-.06-.47-.17-.09-.11-.11-.3-.11-.56V25.2h-.23a.1.1 0 0 0-.07.04l-.06.03c-.03 0-.05-.01-.05-.05l.02-.08a.5.5 0 0 1 .03-.08c0-.02.02-.04.03-.04H22v-.42c.08-.05.15-.13.24-.23a1.6 1.6 0 0 0 .25-.33c.01-.02.03-.03.05-.03.05 0 .07.03.07.08l-.01.92h.46a.1.1 0 0 1 .07.03c.02 0 .03.03.03.06 0 .07-.03.1-.1.1h-.46l-.01 2.32c0 .06 0 .11.02.17.02.05.06.08.12.08.05 0 .1 0 .16-.02a.5.5 0 0 0 .15-.05.5.5 0 0 0 .04-.03.08.08 0 0 1 .04-.01c.04 0 .06.01.06.05Zm1.62.3c.05 0 .07-.03.07-.08s-.02-.08-.06-.08h-.22c-.02-.03-.03-.07-.03-.13a162.87 162.87 0 0 1 .01-2.65c0-.04-.02-.06-.07-.06h-.05l-.3.09a4.24 4.24 0 0 1-.53.09c-.04.01-.06.04-.06.09 0 .02 0 .04.02.05l.06.01a.8.8 0 0 0 .12 0l.13-.02c.06 0 .11.13.11.18v2.22c0 .02-.01.05-.03.06l-.02.04c0 .02-.03.04-.07.04h-.08a.7.7 0 0 0-.09-.01c-.04 0-.06.02-.06.08l.01.05c0 .02.02.03.05.03h1.09Zm-.32-3.33a.4.4 0 0 0 .1-.28.4.4 0 0 0-.1-.27.31.31 0 0 0-.25-.12c-.09 0-.17.04-.24.12a.4.4 0 0 0-.1.27c0 .11.03.2.1.28.07.08.15.12.24.12.1 0 .18-.04.25-.12ZM34.27 28c.05 0 .07-.03.07-.08 0-.06-.02-.09-.06-.09-.04 0-.07 0-.12.02-.04 0-.08 0-.1-.03-.04-.01-.05-.05-.05-.1v-.81L34 25.89v-1.21a305.98 305.98 0 0 1-.01-.66.09.09 0 0 0-.05-.02h-.03l-.03.01a10.7 10.7 0 0 0-.53.15l-.13.03a.72.72 0 0 0-.12.03c-.04.01-.06.04-.06.08 0 .05.02.08.07.08l.1-.01a.3.3 0 0 1 .11-.02c.05 0 .08.03.09.08V27.71c0 .08-.03.12-.1.12h-.1l-.1.01c-.03.01-.05.03-.05.07 0 .02 0 .04.02.06 0 .02.02.03.04.03h1.15Zm-4.03 0c.05 0 .07-.03.07-.09s-.02-.09-.06-.09h-.07a.3.3 0 0 1-.06.01c-.03 0-.05 0-.07-.02-.02-.02-.05-.04-.05-.08V25.97c0-.22 0-.4-.05-.54a.53.53 0 0 0-.24-.31.99.99 0 0 0-.48-.1.7.7 0 0 0-.37.12 1.4 1.4 0 0 0-.31.25l-.03-.13a1.06 1.06 0 0 0-.05-.18c-.02-.05-.04-.08-.07-.08l-.03.01-.04.02a21.16 21.16 0 0 1-.46.14.76.76 0 0 1-.1.01.4.4 0 0 0-.1.02.1.1 0 0 0-.04.03l-.01.05c0 .03 0 .05.03.06h.24c.04 0 .07.02.08.07l.01.06.02.08v2.14l-.02.09v.02c-.01.02-.03.03-.08.03H27.73c-.04 0-.07.02-.07.08 0 .02 0 .04.02.06 0 .02.02.03.04.03h1.07c.05 0 .07-.03.07-.1 0-.02 0-.04-.02-.05-.02-.02-.03-.03-.05-.03H28.64c-.03 0-.05 0-.06-.04l-.01-.09v-1.95a1 1 0 0 1 .3-.44.34.34 0 0 1 .22-.08c.1 0 .18.03.23.1a.6.6 0 0 1 .09.28l.02.3v1.86c0 .05-.03.07-.07.07H29.19c-.05 0-.07.02-.07.08l.01.06c.01.02.03.03.05.03h1.06Zm-3.44-1.48a4.22 4.22 0 0 0-.1-.86.95.95 0 0 0-.2-.36.4.4 0 0 0-.32-.15.37.37 0 0 0-.3.14c-.08.1-.14.21-.18.36-.04.14-.06.29-.08.44a3.93 3.93 0 0 0 .08 1.26c.04.14.1.26.19.36.08.1.19.14.33.14.12 0 .23-.04.3-.14.08-.09.14-.2.18-.35a5.15 5.15 0 0 0 .1-.84Zm.62.03c0 .28-.06.53-.16.75-.11.22-.26.39-.44.51-.18.13-.4.19-.63.19-.23 0-.44-.07-.62-.2-.17-.13-.32-.3-.42-.53-.1-.22-.15-.47-.15-.75 0-.29.05-.55.15-.77.1-.23.24-.42.42-.55.19-.13.4-.2.64-.2a1.08 1.08 0 0 1 1.07.74c.09.23.14.5.14.81Zm-6.66.3c0 .18 0 .35.02.53l-.15.14-.19.14a.38.38 0 0 1-.19.06.25.25 0 0 1-.2-.09.55.55 0 0 1-.1-.21 1.27 1.27 0 0 1-.02-.24c0-.18.05-.33.13-.44a.9.9 0 0 1 .3-.27c.13-.07.26-.12.4-.15v.54Zm1.01.9a.09.09 0 0 0 .02-.04v-.04l-.03-.02a.16.16 0 0 0-.09.03.18.18 0 0 1-.11.04c-.07 0-.11-.03-.13-.09a.86.86 0 0 1-.04-.18 10.52 10.52 0 0 1-.01-.64v-.84c0-.32-.09-.56-.26-.73a.93.93 0 0 0-.67-.24l-.36.03a.94.94 0 0 0-.34.14.6.6 0 0 0-.24.3l-.03.09v.07c0 .08.02.13.07.16s.1.04.16.04c.05 0 .1 0 .15-.02a.14.14 0 0 0 .1-.13v-.1l.02-.1c.04-.1.1-.2.17-.26.08-.06.17-.1.28-.1.08 0 .15.04.2.12.04.08.08.18.1.3l.02.33V26.16l-.4.11a1.63 1.63 0 0 0-.7.34c-.1.08-.19.18-.25.29a.73.73 0 0 0 .02.74c.08.11.17.2.29.25.12.06.23.11.35.11.16 0 .3-.06.41-.13.13-.08.24-.18.34-.3.05.14.11.25.2.32.08.07.2.11.34.11a.47.47 0 0 0 .42-.24Zm10.24-.37v-.36l-.01-.16v-.54c-.14.03-.3.08-.43.15a.94.94 0 0 0-.33.27.7.7 0 0 0-.13.44c0 .07 0 .15.02.24.02.08.06.15.1.21.06.06.13.09.22.09.06 0 .13-.02.2-.06l.2-.14.16-.14Zm1.08.33c0 .01 0 .03-.02.05a.52.52 0 0 1-.45.24.58.58 0 0 1-.36-.1.66.66 0 0 1-.21-.33c-.11.12-.23.22-.36.3a.92.92 0 0 1-.82.03.87.87 0 0 1-.31-.26.7.7 0 0 1-.02-.74c.06-.11.15-.2.26-.28a1.76 1.76 0 0 1 .75-.35 31.34 31.34 0 0 1 .45-.1v-.1a4.24 4.24 0 0 0-.04-.5v-.04a.81.81 0 0 0-.11-.29.24.24 0 0 0-.22-.12c-.1 0-.2.04-.3.1a.54.54 0 0 0-.17.27l-.02.1-.01.1c0 .05-.04.1-.1.12a.5.5 0 0 1-.16.02.4.4 0 0 1-.17-.04c-.06-.03-.09-.08-.09-.16l.01-.07.04-.08a.6.6 0 0 1 .25-.31c.11-.07.23-.11.37-.14l.38-.03c.3 0 .53.08.71.24.19.17.28.4.28.73v.84a9.56 9.56 0 0 0 .01.64c.01.06.02.12.05.18.02.06.06.09.14.09a.2.2 0 0 0 .12-.04.18.18 0 0 1 .1-.03s.02 0 .02.02v.04ZM19.86 23h-1.67v-.48l.4-.15-.13-.37H17.3l-.13.36.4.16V23H16v-.48l.38-.16 1.15-3.34.84-.02 1.12 3.36.37.16V23Zm-1.96-3-.41 1.34h.8l-.4-1.34Zm6.37 3c.06 0 .09-.03.09-.09 0-.05-.03-.08-.08-.08h-.11c-.04 0-.08 0-.1-.02a.14.14 0 0 1-.07-.11v-1.74c0-.22 0-.4-.04-.53a.5.5 0 0 0-.22-.33.98.98 0 0 0-.51-.1c-.15 0-.3.03-.42.1s-.24.16-.36.27a.56.56 0 0 0-.28-.27.92.92 0 0 0-.78 0c-.11.06-.27.14-.39.25a.56.56 0 0 1-.01-.13c0-.06 0-.11-.03-.16-.02-.04-.05-.06-.09-.06a1.49 1.49 0 0 1-.67.16c-.05 0-.1.01-.14.03a.16.16 0 0 0-.04.02l-.02.05c0 .03 0 .05.02.07l.06.01h.11l.12-.01c.05 0 .08.02.1.07V22.76c-.02.05-.04.07-.09.07H20.15c-.05 0-.08.03-.08.08l.01.06.06.03h1.16c.05 0 .08-.03.08-.09 0-.05-.03-.08-.07-.08h-.07l-.07.01c-.04 0-.07-.01-.09-.04l-.03-.03c-.02-.02-.05-.04-.05-.07v-2.12c.08-.1.38-.37.53-.37.41 0 .47.55.47.85v.82a67.3 67.3 0 0 1 0 .92c-.02.02-.04.03-.09.03h-.19l-.1.01c-.03 0-.04.03-.04.07l.01.06c.01.02.03.03.05.03h1.14c.05 0 .08-.03.08-.09 0-.05-.02-.08-.07-.08h-.09c-.11 0-.1-.04-.1-.1v-1.96l-.03-.16-.01-.07.03-.05.15-.17c.1-.08.19-.12.28-.12.08 0 .14.02.18.05.2.13.2.51.2.75v1.7c0 .02 0 .04-.02.06v.04c-.01.02-.04.03-.08.03h-.16c-.06 0-.09.03-.09.08 0 .02 0 .04.02.06 0 .02.03.03.05.03h1.15Zm1.92-2a3.16 3.16 0 0 0-.06-.53.6.6 0 0 0-.11-.24.27.27 0 0 0-.23-.1c-.09 0-.17.03-.24.1a.79.79 0 0 0-.17.24 1.52 1.52 0 0 0-.14.4l-.04.13h.99Zm.74 1.25c0 .01 0 .03-.02.05l-.01.04a.8.8 0 0 1-.13.2 1.2 1.2 0 0 1-.96.45c-.27.01-.5-.05-.7-.17-.2-.13-.35-.3-.45-.52a1.9 1.9 0 0 1 0-1.54A1.19 1.19 0 0 1 25.8 20c.31.01.56.1.75.3.2.18.29.45.29.8 0 .09-.04.14-.12.14a18.02 18.02 0 0 1-.9-.01h-.65a3.64 3.64 0 0 0 .02.7c.03.14.07.28.12.4.05.14.12.25.2.34.1.08.2.13.32.13a.9.9 0 0 0 .38-.08c.1-.04.2-.11.28-.2a3 3 0 0 0 .28-.35.07.07 0 0 1 .04-.01c.03 0 .05 0 .07.03.02.02.04.04.04.07Zm2.07-.08a.8.8 0 0 1-.1.43.7.7 0 0 1-.27.24c-.11.06-.24.1-.37.13l-.38.03c-.09 0-.17 0-.25-.03a5.7 5.7 0 0 1-.47-.1 25.7 25.7 0 0 0-.13-.52l-.03-.21c0-.04.01-.07.04-.08a.18.18 0 0 1 .07-.02.1.1 0 0 1 .1.05c.04.08.09.16.12.25.03.08.07.16.14.23a1 1 0 0 0 .2.18c.1.05.17.08.25.08.15 0 .26-.04.34-.12.07-.08.11-.2.11-.37a.44.44 0 0 0-.1-.29 1 1 0 0 0-.24-.2l-.32-.19a3.24 3.24 0 0 1-.32-.2.97.97 0 0 1-.24-.27.74.74 0 0 1-.1-.39c0-.19.05-.34.14-.46.1-.11.22-.2.36-.26a1.28 1.28 0 0 1 .65-.06c.07 0 .13.03.2.06l.12.04c.05.02.1.02.12.02l.13-.01a4.85 4.85 0 0 0 .06.62v.01c0 .04 0 .07-.03.1a.1.1 0 0 1-.07.03c-.04 0-.06 0-.08-.02a8.3 8.3 0 0 0-.17-.37.64.64 0 0 0-.17-.25c-.07-.06-.17-.09-.3-.09a.32.32 0 0 0-.3.17.73.73 0 0 0-.1.37c0 .1.04.19.11.26.07.08.15.14.22.18l.32.17c.12.06.24.14.35.22.11.08.2.17.28.28.07.1.11.22.11.36Z" fill="#fff"/></svg>