<!-- by TradingView --><svg width="56" height="56" viewBox="0 0 56 56" xmlns="http://www.w3.org/2000/svg"><path fill="#F0F3FA" d="M0 0h56v56H0z"/><path d="M34.73 40.3c.49 1.09.76 1.65.8 1.69-.33-1.04-.6-2.5-.8-4.38-.14-1.9.03-3.7.49-5.4.45-1.72 1.44-2.82 2.97-3.3 2.31-.42 3.94-.23 4.87.57.94.8 1.4 1.28 1.4 1.44.48-.7.64-1.55.48-2.54-.16-1.01-.6-1.88-1.34-2.63a8.1 8.1 0 0 0-2.6-1.62l-1.54-.54c-.02-.54-.38-.97-1.07-1.3a8.98 8.98 0 0 0-2.1-.68c-.7-.14-1.09-.2-1.14-.17 1.94.62 2.85 1.3 2.74 2.05-.1.74-.24 1.14-.4 1.18 2.67.6 4.3 1.26 4.87 2 .57.72.8 1.13.69 1.23a7.02 7.02 0 0 0-3.46-.94 5.5 5.5 0 0 0-5.56 4.18c-.47 1.6-.59 3.27-.38 5 .26 1.69.62 3.07 1.08 4.16ZM14.55 28.71c-.94.08-2.13-.05-3.55-.39.05.95.2 1.87.42 2.77 1.3.08 2.68-.06 4.13-.42 0 .03-.34.2-1.04.54-.68.32-1.61.6-2.8.83.29.82.63 1.6 1.05 2.33 1.04-.35 2.07-.9 3.1-1.62a12.87 12.87 0 0 1-2.67 2.37c.45.7.95 1.35 1.51 1.95.79-.67 1.52-1.49 2.2-2.47a13.41 13.41 0 0 1-1.62 3.09l.77.73a20.76 20.76 0 0 0 9.09 4.04c3.47.7 6.64.72 9.54.08l-.54-.27c-.28-.45-.67-1.2-1.17-2.23-.5-1-.77-1.88-.82-2.63l-1.01 2.68h-.02l-.71-4.46-1.35 2.16a.63.63 0 0 1-.14-.12l-.08-3.46-1.34 1.17a.45.45 0 0 1-.06-.19V33.3l-.7.38c-.85-2.16-1.2-4.8-1.03-7.92.4-3.53 1.51-6.23 3.35-8.09a16.24 16.24 0 0 1 5.4-3.77c1.78-.66 2.73-.97 2.85-.93a33.6 33.6 0 0 0-5.45-.97 22 22 0 0 0-3.43 2.24 15.3 15.3 0 0 0-3.75 4.33 12.47 12.47 0 0 0-1.66 6.64c-.08-.05-.23-.8-.45-2.21-.18-1.42.04-3.14.68-5.17.63-2.02 2.16-3.96 4.6-5.83-1.95.1-3.92.5-5.94 1.18a15.15 15.15 0 0 0-1.84 5.29c-.34 2-.06 4.19.84 6.56a12.4 12.4 0 0 1-2.22-5.1 11.1 11.1 0 0 1 .37-5.42c-1.29.73-2.5 1.67-3.62 2.83 0 2.77 1.14 5.53 3.45 8.26-.13 0-.8-.51-2-1.57-1.17-1.04-2.16-2.65-2.96-4.83a19.2 19.2 0 0 0-1.54 2.5l-.29.62c1.08 1.8 2.77 3.3 5.07 4.5a12.14 12.14 0 0 1-5.67-2.87 13.8 13.8 0 0 0-.5 3.08c1.4.82 3.08 1.35 5.03 1.57-.04.04-.53.08-1.48.11Zm20.88-4.3c.06-.2.08-.29.06-.28l1.13-.27c-.03-.08-.5-.23-1.42-.46-.92-.23-2.25-.1-3.98.38l1.62.23c.02.05.17.21.44.48.28.28.7.38 1.26.31.52-.13.82-.27.9-.4Z" fill="#232D5A"/></svg>