<!-- by TradingView --><svg width="56" height="56" viewBox="0 0 56 56" xmlns="http://www.w3.org/2000/svg"><path fill="#F0F3FA" d="M0 0h56v56H0z"/><path d="M23.55 37.1c2.28.87 4.6 1.62 7 2.07 1.75.33 3.5.59 5.28.21.44-.1.87-.24 1.29-.43.57-.25.97-.66 1.04-1.37-.14-.99-.89-1.59-1.62-2.17a17.55 17.55 0 0 0-4.29-2.36 41.02 41.02 0 0 0-8.66-2.4c-2.52-.45-5.06-.6-7.61-.64h-.78L9 25.85c.68 0 1.17-.02 1.67 0 3.05.2 6.1.44 9.12.9 3.24.51 6.44 1.17 9.57 2.15a33.82 33.82 0 0 1 9.18 4.23c1.28.88 2.54 1.81 3.48 3.07.36.47.65 1 .85 1.54.35.95-.03 1.72-.9 2.24a8.5 8.5 0 0 1-4.26 1c-2.9.07-5.8-.31-8.58-1.13a19.9 19.9 0 0 1-4.79-2.05c-.3-.18-.72-.26-.77-.72l-.02.02Z" fill="#D02D2C"/><path d="M39.4 32c-2.8-1.5-5.59-3-8.7-3.9l-1.57-3.46-.98 2.77-6.25-1.28c.08-.21.16-.46.27-.69 1.54-3.25 3.08-7.5 4.63-10.74.14-.3.3-.57.43-.86.5-1.1 1.86-1.03 2.49-.3.15.18.28.38.4.6 1.84 3.33 3.67 7.67 5.51 11.01L39.4 32Zm-17.3 4.32a5.2 5.2 0 0 0 2.1 2.14c-.19.6-.39.9-.6 1.54h-8.94c1.73-3.04 3.44-5.75 5.17-8.8 2.16.01 4.28.17 6.45.76l-1.57 4.89-2.6-.53Z" fill="#1E418C"/></svg>