<!-- by TradingView --><svg width="56" height="56" viewBox="0 0 56 56" xmlns="http://www.w3.org/2000/svg"><path fill="#F0F3FA" d="M0 0h56v56H0z"/><path d="M33.42 21.82c-.08.69-.34 1.25-.63 2.04l-1.3-2.09c-.5-.83-1-1.65-1.68-2.35-1.68-1.72-3.74-2.14-6.01-1.65-2.27.5-3.52 2.09-4.02 4.2-1 4.28-1.2 8.58-.09 12.88l.09.33c.6 2.07 1.61 3.74 4.02 4.13 2.56.4 4.6-.43 6.08-2.5a18.78 18.78 0 0 0 2.64-6.1c1.09-3.92 2.13-8.23 3.2-12.16.35-1.33.59-1.58 2.04-1.55 1.1.02 2.59 0 3.26.46.3.75.13 1.44-.1 2.1-1.34 3.9-2.25 8.27-3.37 12.23a7.25 7.25 0 0 0 1.15 6.44c.94 1.34 2.05 1.62 3.51.9.8-.4 1.47-.98 1.98-1.7.47-.07.7.12.81.6-1.4 1.68-3.13 2.89-5.48 2.94-2.34.05-4-1.26-5.4-2.8-.64-.02-.98.3-1.35.54-4.75 2.95-9.66 2.91-14.63.67a7 7 0 0 1-3.68-3.9c-1.35-3.5-1.92-7.13-1.03-10.8 1.44-5.93 6.13-8.93 12.19-8.66 4 .18 6.4 2.36 7.8 5.8Z" fill="#4D9E2F"/></svg>