<!-- by TradingView --><svg xmlns="http://www.w3.org/2000/svg" width="56" height="56"><path fill="url(#acdmk44er)" d="M0 0h56v56H0z"/><path d="M39.4 14l-.67.29a1.82 1.82 0 00-1.96 3.03l.55-.7a.93.93 0 011.15-1.45l.55-.7.38-.47zm-2.69 3.93l.67-.28a1.82 1.82 0 001.97-3.03l-.55.69a.93.93 0 01-1.16 1.45l-.53.68-.4.5zm3.72 3.28l-.3 1.19.68-.75.8-.86a1.89 1.89 0 011.02-3.22c.57-.08 1.13.1 1.54.44l.8-.85a3.09 3.09 0 00-2.53-.73 3.05 3.05 0 00-2.01 4.78zm5-3.25l.3-1.19-.69.75-.79.86c.29.27.49.63.56 1.05a1.91 1.91 0 11-3.12 1.73l-.8.86c.67.58 1.58.87 2.53.72a3.05 3.05 0 002-4.78zM14 20h-4v2h2v11h2V20zm9.38 5.78A3.37 3.37 0 0021 20a3.38 3.38 0 00-2.38 5.78 4 4 0 104.76 0zm-.88-2.4a1.5 1.5 0 11-3 0 1.5 1.5 0 013 0zM23 29a2 2 0 11-4 0 2 2 0 014 0zm1.82 12.3l.3-1.2a3.05 3.05 0 014.5-4.05l-.8.86a1.88 1.88 0 00-2.54 2.78l-.74.8-.72.8zm5.55-5.63l-.3 1.19a3.05 3.05 0 01-4.5 4.05l.8-.85a1.88 1.88 0 002.54-2.79l.78-.85.68-.75zM36.6 20.7l2.42-1.04-1.49 1.86-1.42 1.8a4.06 4.06 0 00-5.05 6.37l-1.54 1.95a6.54 6.54 0 014.16-11.62 6.5 6.5 0 012.92.68zm-5.92 12.67l-2.43 1.04 1.44-1.8 1.47-1.86a4.06 4.06 0 005.05-6.37l1.55-1.95a6.54 6.54 0 01-4.17 11.62 6.53 6.53 0 01-2.91-.68zm2.55 6.93l.67-.29-.39.5-.54.7a.92.92 0 00-.53-.18.95.95 0 10-.62 1.65l-.55.7a1.86 1.86 0 011.15-3.27c.3 0 .57.07.81.2zm-1.34 3.42l-.67.29.41-.53.52-.66c.15.1.33.17.53.17.52 0 .93-.42.93-.95a.95.95 0 00-.3-.7l.54-.7a1.86 1.86 0 01-1.15 3.27c-.3 0-.57-.07-.81-.2z" fill="#fff"/><defs><linearGradient id="acdmk44er" x1="0" y1="28" x2="56" y2="28" gradientUnits="userSpaceOnUse"><stop stop-color="#77D2EF"/><stop offset="1" stop-color="#2374C3"/></linearGradient></defs></svg>