<!-- by TradingView --><svg width="56" height="56" viewBox="0 0 56 56" xmlns="http://www.w3.org/2000/svg"><path fill="#F0F3FA" d="M0 0h56v56H0z"/><path d="M42.39 28.36c.5.66.77 1.45 1.08 2.2.55 1.25.94 2.57 1.15 3.92a12 12 0 0 1 .1 3.05 7.53 7.53 0 0 1-1.08 3.2 6.32 6.32 0 0 1-3.14 2.6c-1.57.63-3.2.72-4.89.59a19.32 19.32 0 0 1-4.78-1.1c-.97-.34-1.91-.74-2.83-1.2a23.74 23.74 0 0 1-6.9 2.24c-1.6.2-3.21.23-4.79-.25a6.6 6.6 0 0 1-4.9-5.27 11.1 11.1 0 0 1 .28-5.2 21.6 21.6 0 0 1 1.8-4.65c.09-.1.13-.24.12-.37l-.74-1.46a18.68 18.68 0 0 1-1.52-4.25c-.38-1.7-.52-3.42-.06-5.14a6.5 6.5 0 0 1 4.2-4.68c1.42-.53 2.88-.63 4.39-.53 2.26.14 4.38.78 6.45 1.64.55.2 1.08.45 1.58.75a.89.89 0 0 1-.5-.12c-.57-.25-1.16-.46-1.76-.64a13 13 0 0 0-6.28-.47 6.7 6.7 0 0 0-4.18 2.53 7.94 7.94 0 0 0-1.49 4.51 14.3 14.3 0 0 0 .54 4.38c.49 1.84 1.21 3.61 2.15 5.28a28.62 28.62 0 0 0 9.82 10.38c.57.39 1.17.72 1.8.99l.26-.13c1.94-1 3.73-2.26 5.34-3.73a29.09 29.09 0 0 0 5.43-6.55c1.5-2.46 2.6-5.07 3.07-7.92.3-1.79.3-3.58-.3-5.32-.81-2.42-2.58-3.83-5.05-4.4a10.42 10.42 0 0 0-3.47-.14c-1.43.17-2.83.51-4.17 1.02-.34.12-.64.35-1.03.33.33-.22.68-.4 1.06-.52a20.9 20.9 0 0 1 6.06-1.8c1.77-.23 3.53-.2 5.24.43a6.55 6.55 0 0 1 3.94 3.69c.62 1.47.7 3.01.53 4.58a18.75 18.75 0 0 1-2.42 7.05.68.68 0 0 0-.1.49c-.14-.02-.2.07-.26.16l-.8 1.28a30.28 30.28 0 0 1-3.48 4.39 36.92 36.92 0 0 1-7.91 6.36l-1.57.9c.04.04.06.07.09.08 1.87.9 3.81 1.58 5.9 1.8 1.87.2 3.7.14 5.45-.6 1.67-.66 3-1.95 3.7-3.57.83-1.9.81-3.9.46-5.9a17.3 17.3 0 0 0-1.47-4.46.66.66 0 0 1-.12-.45Zm-28.65-.02a18.81 18.81 0 0 0-1.45 3.8c-.47 1.7-.58 3.5-.32 5.24.15 1.08.57 2.1 1.21 3a7.08 7.08 0 0 0 3.57 2.59c1.81.6 3.65.58 5.5.32 1.46-.23 2.89-.65 4.24-1.24.39-.16.76-.35 1.19-.56a35.82 35.82 0 0 1-13.94-13.15Z" fill="#4EA7A7"/><path d="M19 27.97A9.03 9.03 0 0 1 28 19a9 9 0 1 1-9 8.97ZM25.98 15.59c-.47.42-1.06.69-1.57 1.05a35.46 35.46 0 0 0-8.1 7.6c-.06.07-.09.18-.21.15.3-.53.67-1.02 1.09-1.47a31.96 31.96 0 0 1 8.52-7.26.38.38 0 0 1 .28-.07h-.01ZM30.88 16.06c.42.11.74.41 1.09.65a31.37 31.37 0 0 1 8.01 7.77c-.24-.03-.3-.26-.42-.4a34.86 34.86 0 0 0-8.54-7.83c-.07-.05-.18-.08-.16-.2l.02.01ZM16.1 24.4a.7.7 0 0 1-.3.46.52.52 0 0 1 .29-.47ZM30.5 15.87c-.17-.04-.34-.08-.38-.28.16.05.34.07.38.28Z" fill="#4EA7A7"/><path d="M30.5 15.87a.36.36 0 0 1 .38.2.36.36 0 0 1-.38-.2ZM15.8 24.87a.16.16 0 0 1-.13.16c-.02-.12.03-.16.14-.16ZM40.48 25.14c-.13 0-.18-.07-.2-.18.14-.01.17.1.2.18Z" fill="#4EA7A7"/><path d="M24.17 30.03h-4.1l2.93-5.7 2.98 5.7h-1.1L23 26.33 21.8 29h1.75l.63 1.03ZM25 26v-1h5v1h-2v4h-1v-4h-2Zm6-1v5h1v-4h2.45c.29 0 .52.19.52.47 0 .29-.23.53-.52.53H33v1h1.5c.83 0 1.5-.71 1.5-1.53 0-.81-.67-1.47-1.5-1.47H31Z" fill="#F0F3FA"/></svg>