<!-- by TradingView --><svg width="56" height="56" xmlns="http://www.w3.org/2000/svg"><path fill="#3D5567" d="M0 0h56v56H0z"/><path d="M5.017 31.83L8.313 23H9.56c1.096 2.87 3.346 8.723 3.582 9.17.237.447.669.74.855.83-1.072-.005-3.228-.011-3.275 0 .46-.093.493-.413.493-.69 0-.202-.403-1.733-.63-2.31H6.959c-.195.454-.748 1.816-.778 2.31-.03.493.403.665.622.69H4c.493-.18.883-.855 1.017-1.17z" fill="#fff"/><path d="M7.182 29.004l1.485-4 1.513 4H7.182z" fill="#3D5567"/><path d="M12.998 27L15 24.003V26h2v1h-2v3.85c0 .53.206 1.167.901 1.15.695-.017.963-.634 1.098-.878-.034.611-.406 1.843-1.625 1.877-1.219.034-1.394-1.124-1.374-1.708V27h-1.002zM41 27l2-1v1.57c.261-.933 1.67-1.57 2.252-1.57.465 0 .693.137.748.205V28c-.294-.592-.952-.738-1.22-.723-1.122.027-1.748 1.534-1.78 2.206v2.56c0 .666.75.915 1 .957h-3c.57-.1 1.008-.68 1-.956a429.73 429.73 0 010-4.177c.01-.783-.711-.863-1-.867zM17.5 27.005l2-1v1.57c.261-.933 1.67-1.57 2.252-1.57.465 0 .693.136.748.204v1.796c-.294-.592-.952-.739-1.22-.724-1.122.028-1.748 1.535-1.78 2.207v2.56c0 .665.75.915 1 .956h-3c.57-.1 1.008-.679 1-.956a429.73 429.73 0 010-4.177c.01-.783-.711-.863-1-.866zM25 26l-2 .908c.733-.062 1 .57 1 .893.01 1.018.025 3.26 0 4.087s-.59 1.086-.826 1.112H26c-.543-.163-1.005-.81-1-1.112V26zM31.143 23.003c1.48-.043 2.6.4 2.857.628V26c-.238-.574-.993-1.967-2.857-2-1.865-.033-3.106 1.264-3.143 3.901-.037 2.637 1.392 4.084 3.143 4.099 1.75.015 2.442-1.18 2.857-1.659v1.274c-.953 1.191-2.473 1.417-3.114 1.381-4.279-.143-5.008-3.645-4.87-5.095.366-3.875 3.277-4.844 5.127-4.898z" fill="#fff"/><circle cx="24.5" cy="24.743" r=".74" fill="#fff"/><circle cx="31" cy="28" r="1" fill="#fff"/><path d="M35 27.4c0-1.214-.932-1.371-1-1.4h2v3.899C36 30.613 36 32 37.231 32 38.281 32 39 30.841 39 30.341v-3.084c0-.759-.785-1.15-.994-1.254L38 26h2c-.014 1.304-.033 4.144 0 5.07.033.925.736.978 1 .93l-2 .997V32c-.733 1.017-1.901 1.026-2.28.997-1.618.023-1.756-1.428-1.72-2.156V27.4zM49.248 26C51.602 26 52 28.067 52 30h-5c.254 1.109 1.042 2 2.344 2 1.041 0 1.922-.294 2.656-1-.083.696-.92 1.998-2.752 1.998-2.535 0-3.246-2.27-3.246-3.354 0-1.036.461-3.644 3.246-3.644z" fill="#fff"/><path d="M49.215 27c-1.685 0-2.178 1.36-2.215 2h3.982c.112-.694-.29-2-1.767-2z" fill="#3D5567"/></svg>