<!-- by TradingView --><svg width="56" height="56" xmlns="http://www.w3.org/2000/svg"><path fill="#0367A5" d="M0 0h56v56H0z"/><path d="M40 34l1.5-6.997h2l-.011.78c.952-.704 2.198-.81 2.6-.774 2.117.032 2.024 1.855 1.797 2.855L46.966 34H45l.755-3.389c.126-.747-.06-1.794-1.068-1.858-1.008-.064-1.707.923-1.923 1.858L42 34h-2zM12.08 28.247L14.5 23h3L19 34l-5.472-3.448L12 34H9.054l2.265-4.48L5 25.581l7.08 2.665z" fill="#fff"/><path d="M14 29.21L15.59 26l.41 4-2-.79z" fill="#0367A5"/><path d="M21.568 26L22 24h2l-.377 2H25l-.342 2h-1.36c-.168.96-.584 2.858-.698 3.372-.114.513.354.627.507.627H24l-.325 2h-1.966c-1.342.058-1.363-1.68-1.157-2.572L21.288 28H20l.552-2h1.016zM25 34l1.264-7h1.854l-.086.573c.747-.673 1.623-.617 1.968-.505L29.727 29c-1.437-.215-1.877.643-1.954 1.181L27 34h-2zM31.16 26l.414-2h1.938l-.422 2h-1.93zM29.5 34l1.5-6.997h2L31.5 34h-2zM33.294 29.617c.939-2.511 3-2.693 3.916-2.594 2.5.272 2.89 2.274 2.772 3.242-.587 3.913-3.686 3.998-5.163 3.55-.9-.353-2.464-1.688-1.525-4.198z" fill="#fff"/><path d="M35.163 30.216c.485-1.087 1.312-1.266 1.768-1.206.555.073 1.327.353.984 1.656-.342 1.302-1.557 1.433-2.108 1.286-.417-.126-1.129-.65-.644-1.736z" fill="#0367A5"/></svg>