<!-- by TradingView --><svg width="56" height="56" viewBox="0 0 56 56" fill="none" xmlns="http://www.w3.org/2000/svg"><path fill="#F0F3FA" d="M0 0h56v56H0z"/><path d="m23.33 11.78-.28.07-.12.04-.14.04-.08-.34.14-.04.13-.04.28-.07.19-.04.09-.02.14-.03.08-.02.05-.01.29-.06a10.31 10.31 0 0 1 .73-.11l.11-.02c.76-.1 1.52-.14 2.28-.13v.35c-.75 0-1.5.03-2.24.13l-.12.02-.43.06-.12.02-.16.03-.27.05-.04.01-.1.02-.14.03-.27.06Z" fill="url(#avrehr2ba)"/><path d="m31.15 11.95.38.13.26.1.13.05.63.25.13.06.1.04.08.05.19.09.18.08.05.03.14.07.36.19.08.04.1.06.27.15.27.16.35.22.18.12.17.11.34.24.33.25.17.13.1.08.06.05.4-.56-.05-.04a4.4 4.4 0 0 0-.11-.1l-.18-.12-.05-.04-.3-.22-.35-.25-.18-.13-.18-.11-.36-.23-.23-.14-.15-.08-.18-.11a3 3 0 0 0-.2-.1l-.37-.2-.12-.06-.07-.04-.2-.1-.2-.09-.09-.04-.1-.05-.1-.04c-.23-.1-.46-.2-.69-.28l-.18-.07-.22-.08-.4-.14-.41-.13-.29-.08-.12-.03-.17.68a24.3 24.3 0 0 0 .4.1l.4.13Z" fill="url(#bvrehr2ba)"/><path d="m39.48 18.54-.06-.09-.05-.09-.13-.17 1.08-.83.13.19.06.1.07.09.25.39.17.28.07.11.11.2.12.2.02.05.2.36.2.41.04.07.07.14.1.21.1.21.04.1.02.06.02.05-1.21.58-.02-.05-.03-.05-.04-.1-.18-.38-.07-.15v-.02l-.02-.03-.2-.38-.14-.27-.06-.1-.1-.19-.1-.18-.04-.05-.03-.05-.16-.26-.23-.36Z" fill="url(#cvrehr2ba)"/><path d="m25.17 43.5.16.02a2.2 2.2 0 0 0 .27.03l.2.02-.03.42a7.4 7.4 0 0 1-.22-.02l-.1-.01h-.04l-.13-.02-.16-.03.05-.42Z" fill="url(#dvrehr2ba)"/><path d="m37.97 16.4-.12-.1a9.13 9.13 0 0 1-.24-.24l-.25-.22.53-.66.26.23.2.19.06.05.13.13.03.02.1.1.24.25-.58.62-.24-.24a2.16 2.16 0 0 0-.08-.08l-.04-.04Z" fill="url(#evrehr2ba)"/><path d="m13.8 18.71.08-.14.01-.01a.53.53 0 0 1 .04-.06l.05-.06.09-.14.1-.14c0-.02.02-.04.04-.06l.15-.2.19-.25-.25-.22-.2.26-.1.13-.05.07-.02.03-.03.04-.1.14-.01.02-.08.12-.05.07-.04.07-.1.15c-.23.39-.45.8-.63 1.22l.3.14c.17-.4.38-.8.6-1.18Z" fill="url(#fvrehr2ba)"/><path d="m18 14.4-.14.1c-.34.25-.67.53-.98.84l-.22-.25a9.3 9.3 0 0 1 1.02-.88l.14-.1.06-.05.07-.05.05-.03.1-.06.13-.1.07-.04.07-.04.14-.09.27-.15.16.3-.27.15-.14.08-.06.05-.07.04-.14.09-.13.09-.07.05h-.01l-.06.05Z" fill="url(#gvrehr2ba)"/><path d="m11.6 30.79-.05-.29-.05-.3-.02-.14-.01-.14-.04-.3-.02-.19v-.1l-.04-.44v-.14c-.05-.78-.04-1.56.01-2.35l-.33-.02a18.83 18.83 0 0 0-.01 2.5c0 .17.02.33.03.49l.01.09.02.2.04.3v.06l.02.1.02.14.01.12.03.18.05.3.02.14.03.14.33-.06-.03-.15-.03-.14Z" fill="url(#hvrehr2ba)"/><path d="M15.3 38.6a4.5 4.5 0 0 1-.06-.08l-.02-.02-.16-.2-.15-.2-.08-.1-.07-.1-.15-.2-.14-.2-.07-.1-.07-.1-.05-.08-.09-.14-.07-.11-.2-.31-.05-.1a11.7 11.7 0 0 1-.07-.12l-.12-.22-.3.19.12.22.07.11.06.11.2.32.07.12a32.63 32.63 0 0 0 .14.21l.07.11.07.1.15.22.15.2.07.1.08.1.16.2.16.2.01.03.07.07.08.1c.22.26.45.51.69.76l.24-.27c-.23-.24-.45-.48-.66-.73l-.08-.1Z" fill="url(#ivrehr2ba)"/><path d="m17.52 41.02.15-.2a10.54 10.54 0 0 0 1.48 1.06l-.12.22a10.37 10.37 0 0 1-1.51-1.08Z" fill="url(#jvrehr2ba)"/><path d="m20.87 42.46-.14.34a15.27 15.27 0 0 0 2.51.9l.09-.36a15.71 15.71 0 0 1-2.46-.88Z" fill="url(#kvrehr2ba)"/><path d="M12.3 34.55c-.2-.5-.38-1-.54-1.51l.44-.15c.15.5.32.99.52 1.47l-.41.2Z" fill="url(#lvrehr2ba)"/><path d="m11.7 23.63-.03.09-.02.09-.04.18-.03.18-.02.1-.02.08-.03.18-.02.19-.02.09v.09l.41.06.01-.1.01-.08.03-.18.03-.17.01-.09.02-.08.03-.18.04-.17.02-.09.02-.08.04-.17-.4-.12-.05.18Z" fill="url(#mvrehr2ba)"/><path d="m31.65 43.37-.1-.28.67-.21.1.28-.67.21Z" fill="url(#nvrehr2ba)"/><path d="m33.83 41.99.14.29.75-.4-.14-.3-.75.4Z" fill="url(#ovrehr2ba)"/><path d="M27.32 43.61a13.78 13.78 0 0 0 2.59-.29l.07.37a13.81 13.81 0 0 1-2.66.31v-.39Z" fill="url(#pvrehr2ba)"/><path d="m35.03 40.78.22.34 1.14-.78-.22-.35-1.14.79Z" fill="url(#qvrehr2ba)"/><path d="M41.81 36.95h2.03c.8 4.63 2.16 6.4 2.16 6.4h-2.03s-1.37-1.77-2.16-6.4Z" fill="url(#rvrehr2ba)"/><path d="m40.83 22.5.03.11v.03c.02.03.02.07.03.1l.1.5c.06.33.12.67.16 1l.03.26.02.25.03.26v.13l.02.12a32.02 32.02 0 0 0 .02.51V27.95h2.02l-.01-2.83-.01-.14v-.1l-.01-.01v-.04l-.03-.29-.03-.29-.03-.29-.18-1.14-.12-.57c0-.05-.02-.1-.03-.14l-.03-.14-.07-.29-1.97.56.06.25Z" fill="url(#svrehr2ba)"/><path d="M43.29 28.58v1.26c0 2.17.14 4.34.45 6.48h-2.03c-.3-2.14-.46-4.3-.44-6.48h-.01v-1.26h2.03Z" fill="url(#tvrehr2ba)"/><path d="m28.35 12.39-.11-.01c-.3-.04-.6-.06-.89-.06v-.48c.31 0 .63.03.94.06l.12.02.12.01.23.04.23.04.12.02.12.02-.12.47-.1-.02-.12-.03-.21-.03-.22-.04a2.7 2.7 0 0 0-.11-.01Z" fill="url(#uvrehr2ba)"/><path d="m35.27 15.07-.32-.22-.02-.01-.03-.02-.1-.08-.16-.1-.33-.2-.49-.3-.17-.08-.33-.18a14.51 14.51 0 0 0-.34-.16l-.17-.08-.04-.03-.05-.01-.08-.04-.35-.15a3 3 0 0 0-.17-.07l-.45-.17-.08-.03-.44-.11-.2.67.35.11.09.03.08.03.17.07.17.06.17.07.33.14.09.04.04.02.04.02.16.08.09.04.24.11.32.17.16.09.16.1.32.18.13.08.18.11.15.1.1.07c.02 0 .04.02.05.03l.3.2c.4.3.78.6 1.15.93l.44.41.1.1.02.02.04.04.07.06.13.14.12.13.07.07.06.07.25.27.06.07.06.07.12.15.12.14.05.07.06.08.23.3.05.07.04.05.13.17.1.16.06.07c0 .02.02.03.03.05l.02.03.1.15.3.48c.26.43.5.87.7 1.32l.6-.39a15.7 15.7 0 0 0-1.05-1.87l-.1-.15v-.02a1.41 1.41 0 0 0-.05-.06l-.05-.08-.12-.16-.1-.15-.02-.02v-.01l-.04-.05-.06-.08-.24-.3-.06-.08-.3-.37-.07-.08-.06-.07-.32-.36a5.29 5.29 0 0 0-.07-.07l-.26-.27-.07-.07a1.43 1.43 0 0 0-.04-.04l-.03-.03-.1-.1a15.04 15.04 0 0 0-1.64-1.37Z" fill="url(#vvrehr2ba)"/><path d="m40.7 27.26-.02 5.26H38.7l.03-5.26a13.59 13.59 0 0 0-.88-4.74l1.82-.78a15.12 15.12 0 0 1 1.02 5.52Z" fill="url(#wvrehr2ba)"/><path d="m36.05 38.9-.08.07-.98.7-.1.06-.23-.38.1-.07.06-.04.02-.02c.03-.02.16-.1.31-.22l.77-.55.24.38-.1.08Z" fill="url(#xvrehr2ba)"/><path d="m34.04 40.02.15.27a3.52 3.52 0 0 1-.2.12l-.03.02-.08.04-.51.29-.14-.27.1-.06.06-.03.02-.01.01-.01h.01c.03-.03.14-.09.25-.15l.36-.2Z" fill="url(#yvrehr2ba)"/><path d="m30.48 42.6-.1-.43-1.02.23.09.42 1.03-.22Z" fill="url(#zvrehr2ba)"/><path d="M36.22 19.84a12.12 12.12 0 0 0-1.54-1.63l-.1-.09-.35-.29-.16-.12-.2-.16-.22-.15-.11-.07-.05-.04-.06-.03-.22-.15-.11-.07-.34-.2-.06-.03a.93.93 0 0 0-.04-.02h-.01l-.12-.07-.23-.12a9.16 9.16 0 0 0-.23-.11l-.12-.06-.05-.02-.07-.03-.24-.1a8.2 8.2 0 0 0-.38-.16l-.1-.04.6-1.36.03.02c.17.06.34.12.5.2l.27.1a1.27 1.27 0 0 1 .13.07l.13.06.11.06.15.07.38.2.03.01.03.02.44.26.12.07.25.16.06.04.06.04.35.25.4.3.06.05.23.19.11.09.1.1a13.4 13.4 0 0 1 1.7 1.79l.02.01.09.12.06.08.11.15.17.24.02.03.15.22.09.14c.08.11.15.23.22.36l.16.25.13.24v.02l-1.24.79a6.6 6.6 0 0 1-.05-.09l-.08-.15-.14-.23-.2-.31-.09-.14a4.2 4.2 0 0 0-.12-.18l-.03-.04-.15-.22a7.4 7.4 0 0 0-.1-.12l-.06-.09-.08-.1-.01-.01Z" fill="url(#aavrehr2ba)"/><path d="M14.02 21.43a11.1 11.1 0 0 1 2.88-4.13 8.3 8.3 0 0 1 .93-.83l-.38-.45a12.26 12.26 0 0 0-2.33 2.27 11.51 11.51 0 0 0-1.62 2.85 12.1 12.1 0 0 0-.62 2.11l.56.14c.13-.67.33-1.33.58-1.96Z" fill="url(#abvrehr2ba)"/><path d="m24.74 12.44-.06-.48c-.25.04-.5.09-.74.15l.1.47c.23-.06.46-.1.7-.14Z" fill="url(#acvrehr2ba)"/><path d="m21.6 12.99.24.63c-1.09.5-2.12 1.12-3.07 1.85l-.35-.56a15.7 15.7 0 0 1 3.19-1.92Z" fill="url(#advrehr2ba)"/><path d="M13.29 26.51v-.08l.02-.13.03-.25.03-.25.01-.05.01-.08.02-.12.04-.25.09-.48-.49-.1-.08.49-.04.25-.03.13v.08l-.01.05-.04.26-.02.17v.1l-.02.12v.07l-.01.07-.03.26c-.05.7-.05 1.4 0 2.1l.49-.04c-.05-.67-.05-1.35 0-2.02l.03-.3Z" fill="url(#aevrehr2ba)"/><path d="m12.81 31.03.42-.07c.14.96.38 1.9.7 2.82l-.4.15c-.33-.94-.57-1.91-.72-2.9Z" fill="url(#afvrehr2ba)"/><path d="m14.66 34.9-.02-.04-.07-.15-.55.29.06.13.04.07v.02a6.42 6.42 0 0 0 .31.58l.53-.32-.14-.26a17.03 17.03 0 0 0-.13-.26l-.03-.06Z" fill="url(#agvrehr2ba)"/><path d="m17.89 39.4-.3.39-.25-.22-.16-.15-.09-.08.32-.37.08.08.16.14.1.09.14.12Z" fill="url(#ahvrehr2ba)"/><path d="m16.48 37.57-.02-.03a2.42 2.42 0 0 1-.08-.12l-.1-.15-.45.3.1.17a3.73 3.73 0 0 0 .1.15l.1.16.11.15.44-.34-.1-.14-.1-.15Z" fill="url(#aivrehr2ba)"/><path d="M12.08 30.36c-.1-.53-.15-1.07-.19-1.6l.45-.04c.04.52.1 1.04.19 1.56l-.45.08Z" fill="url(#ajvrehr2ba)"/><path d="M21.5 41.15a13.21 13.21 0 0 1-2.24-1.4l-.25.35a15.29 15.29 0 0 0 2.35 1.46l.15-.41Z" fill="url(#akvrehr2ba)"/><path d="m25.12 42.63.07-.43a10.77 10.77 0 0 0 2.22.27v.44a11.5 11.5 0 0 1-2.29-.28Z" fill="url(#alvrehr2ba)"/><path d="m22.99 41.56-.12-.04-.17-.06-.2.59.18.07a3 3 0 0 0 .12.04l.07.02.2.07.18.05.17-.6-.19-.05-.17-.06-.07-.03Z" fill="url(#amvrehr2ba)"/><path d="m32.94 41.4-.6.25.18.48.6-.26-.18-.48Z" fill="url(#anvrehr2ba)"/><path d="M42.92 42.84c-.53-1.01-1.68-3.22-2.25-9.72l-2-.01v.01c.58 6.5 1.72 8.7 2.25 9.71v.01c.1.2.2.37.35.52h2a1.96 1.96 0 0 1-.35-.52Z" fill="url(#aovrehr2ba)"/><path d="M19.88 16.23a17.23 17.23 0 0 0-2.76 2.44l-.34-.3a18.46 18.46 0 0 1 2.9-2.55l.43-.3.1-.06.26-.17h.01l.1-.07.1-.07.22.41-.22.13-.04.03-.07.05-.18.12-.1.06-.4.28Z" fill="url(#apvrehr2ba)"/><path d="m17.08 36.45.2.23.21.22.17.17.05.05-.33.38-.06-.05-.17-.18-.23-.23-.21-.24-.15-.17-.06-.07-.34-.43-.07-.08-.05-.06-.04-.07-.1-.13-.1-.13c0-.02-.02-.03-.03-.05l-.06-.09-.18-.27c0-.02-.02-.03-.03-.05l-.06-.09-.08-.14-.05-.07a15.9 15.9 0 0 1-.12-.2l-.16-.3-.08-.14-.07-.14-.15-.3-.14-.3-.07-.14-.03-.08-.03-.07.45-.21.02.05.04.1.07.14.04.1.09.18.14.28.07.14.08.14.15.28.13.2.03.07.09.13.05.09.02.02.01.02.17.26.06.08.02.03.02.02.2.27c0 .02.02.03.03.05l.04.06.08.1a9.68 9.68 0 0 0 .38.47l.14.15Z" fill="url(#aqvrehr2ba)"/><path d="m30.17 37.12-.1.02-.02.01-.13.03-.04.01-.05.02-.16.04-.25.05-.06.01-.2.04a11.4 11.4 0 0 0-.5.08l-.26.03-.17.01-.1.01.15 1.53h.09l.2-.03.28-.03.4-.06.16-.03.24-.05.32-.06.19-.05.1-.02.15-.04.12-.03c.73-.2 1.45-.48 2.14-.82l.13-.06.38-.2.07-.04.06-.03.12-.07.25-.15.37-.23.06-.04.06-.04.24-.17.12-.08.11-.09.23-.17.06-.05.17-.13.22-.19.18-.16.04-.03.11-.1.04-.03.07-.07.2-.2c.14-.12.26-.25.38-.37l.04-.05-.91-1.15-.08.08-.3.3-.18.18-.07.06-.01.02-.02.01-.1.09-.07.06-.13.11-.2.17-.1.08-.02.02-.03.03-.27.2-.1.07-.32.23-.06.03-.05.04-.11.07-.22.14-.23.13-.11.07-.06.03-.06.03-.23.12-.11.06-.12.06c-.62.3-1.27.55-1.94.74Z" fill="url(#arvrehr2ba)"/><path d="m27.7 41.1-.41-.02-.3-.01-.11-.01a12.09 12.09 0 0 1-.81-.08l-.1-.01-.07-.01h-.04l-.2-.04-.2-.03h-.05l-.15-.03-.4-.08-.08-.02-.13-.02-.2-.05-.1-.02-.3-.08-.4-.11-.19-.06-.2-.06-.39-.13-.04-.01-.34-.13-.2-.07a7.41 7.41 0 0 0-.2-.08l-.23.65.05.02.15.06.2.08.2.07.2.08.41.13.2.07.21.06.41.11.3.07.12.03.2.05.14.03h.05l.02.01.42.09.16.02.05.01.21.03.22.04.1.01.1.01.12.02a12.7 12.7 0 0 0 1.16.1h1.27l-.02-.7a20.66 20.66 0 0 0-.4 0h-.42Z" fill="url(#asvrehr2ba)"/><path d="m34.2 38.76-.41-.83a13.16 13.16 0 0 1-6.3 1.66v.94a13.56 13.56 0 0 0 6.72-1.77Z" fill="url(#atvrehr2ba)"/><path d="M16.4 23.14c.13-.3.26-.61.41-.9l.18-.35.05-.1.08-.15.04-.07.02-.03.1-.18-.6-.39-.09.16-.04.07v.01l-.12.22-.04.08-.2.38a15.56 15.56 0 0 0-1.11 2.94l.68.2c.17-.64.38-1.28.64-1.89Z" fill="url(#auvrehr2ba)"/><path d="M18 32.24a14.66 14.66 0 0 0 1.6 2.5l-.8.66a15.12 15.12 0 0 1-1.86-3.02l-.04-.09a5.93 5.93 0 0 1-.11-.24l-.04-.09-.06-.15.93-.39.05.11.01.03.03.08a5.62 5.62 0 0 0 .11.24l.18.36Z" fill="url(#avvrehr2ba)"/><path d="m14 23.58.57.18c.29-1 .7-1.95 1.23-2.84l-.51-.33c-.55.94-.99 1.94-1.3 2.99Z" fill="url(#awvrehr2ba)"/><path d="m15.86 19.6.07-.1c.1-.15.2-.29.31-.42l.53.45-.24.33-.05.07-.06.08-.01.02-.07.1-.07.1-.04.05-.03.05-.56-.4.03-.06.04-.06.07-.1.08-.11Z" fill="url(#axvrehr2ba)"/><path d="m14.88 28.86.03.42.03.23v.11l.02.07v.04l.03.23.03.17.02.17a3.16 3.16 0 0 0 .02.1l.04.23c.12.6.28 1.18.47 1.75l.64-.23c-.19-.55-.34-1.12-.45-1.7l-.04-.2v-.05l-.02-.07-.05-.32-.03-.22v-.03l-.01-.08-.04-.32-.03-.42-.66.12Z" fill="url(#ayvrehr2ba)"/><path d="m14.54 26.02-.01.1-.01.08-.03.17-.57-.07.02-.2.01-.06.02-.12.03-.18.02-.1.01-.1.15-.83.57.12-.16.92-.05.27Z" fill="url(#azvrehr2ba)"/><path d="m13.91 30.97.04.28a2.86 2.86 0 0 0 .03.18l.03.19.57-.1-.03-.18-.01-.06-.02-.12-.02-.18-.01-.08-.01-.1-.1-.84-.57.07.1.94Z" fill="url(#bavrehr2ba)"/><path d="M19.09 19.22c-.45.48-.86 1-1.23 1.55l-.64-.48c.4-.58.83-1.13 1.3-1.65l.57.58Z" fill="url(#bbvrehr2ba)"/><path d="M14.08 28.08v.17a6.33 6.33 0 0 1 .02.35l.4-.03v-.05l-.01-.2a6.7 6.7 0 0 0 0-.25l-.41.01Z" fill="url(#bcvrehr2ba)"/><path d="M18.77 36.18c.98 1.05 2.14 1.9 3.42 2.53l-.43.75a12.1 12.1 0 0 1-5.45-5.32l-.1-.2a9.25 9.25 0 0 1-.4-.8l.69-.36c.14.31.2.4.28.55l.11.21a12.32 12.32 0 0 0 1.88 2.64Z" fill="url(#bdvrehr2ba)"/><path d="m14.96 26.05-.01.13-.03.25-.02.25-.01.12v.07l-.01.05-.02.25v.25l-.01.32v.18h.6a11.3 11.3 0 0 0 0-.48v-.1l.01-.13.02-.24v-.12l.02-.12.01-.24.03-.23.01-.12.02-.17-.59-.08-.02.16Z" fill="url(#bevrehr2ba)"/><path d="m26.23 40.24-.09-.01-.09-.01-.17-.02-.18-.03-.08-.01-.09-.02-.17-.03.1-.68.16.03.08.01.08.02.17.02.17.02h.08l.09.02.16.01.17.01h.09l.08.01-.04.7-.08-.01h-.1l-.17-.02-.17-.01Z" fill="url(#bfvrehr2ba)"/><path d="m23.85 39.51.12.04.25.07.24.07.13.03.12.03.14-.62-.12-.03-.12-.03-.23-.06-.24-.07-.11-.04-.12-.04-.23-.07-.23-.09-.12-.04-.11-.05-.23-.08-.22.59.24.1.12.04.12.05.24.08.24.08.12.04Z" fill="url(#bgvrehr2ba)"/><path d="m35.72 37.43-.1.08-.1.08-.2.16-.22.15-.1.08-.1.07-.22.15-.33-.54.2-.14.1-.07.1-.07.2-.15.2-.15.1-.08.1-.08.18-.15.19-.17.1-.08.08-.08.4.48-.1.09-.09.08-.2.17-.2.17Z" fill="url(#bhvrehr2ba)"/><path d="m20.07 36.03.14-.17a9.18 9.18 0 0 1-.53-.52l-.15.16c.17.18.35.36.54.53Z" fill="url(#bivrehr2ba)"/><path d="m32.38 40.4.15.44a16.53 16.53 0 0 1-3.09.82l-.07-.46a15.16 15.16 0 0 0 3.01-.8Z" fill="url(#bjvrehr2ba)"/><path d="m20.66 40.15.22-.4a16.85 16.85 0 0 1-2.51-1.9l-.29.34a16.44 16.44 0 0 0 2.58 1.96Z" fill="url(#bkvrehr2ba)"/><path d="M24.51 38.53a10.49 10.49 0 0 1-2.66-1.1l.51-.96a9.43 9.43 0 0 0 4.96 1.28l.03 1.1a10.46 10.46 0 0 1-2.84-.32Z" fill="url(#blvrehr2ba)"/><path d="m18.64 22.35-.93-.62-.14.24-.09.15-.05.1-.09.15-.01.03-.04.07-.12.25-.05.1-.01.03-.06.13-.04.08-.08.18-.1.27-.03.07-.03.06-.05.14a12.14 12.14 0 0 0-.7 4.52c.02.77.13 1.53.3 2.28l1.08-.29a10.46 10.46 0 0 1 .36-6.1l.04-.12.02-.06.03-.06.1-.24.06-.15.04-.08.05-.12.01-.03.05-.08.11-.23.03-.06.01-.03.08-.14.05-.1.07-.12.13-.22Z" fill="url(#bmvrehr2ba)"/><path d="m18.52 20.77.14-.2.2-.26.09-.13.65.56a9.46 9.46 0 0 1-.26.36l-.13.18a3.85 3.85 0 0 0-.12.19l-.7-.5.05-.07.08-.13Z" fill="url(#bnvrehr2ba)"/><path d="m20.8 36.77.18.16a8.73 8.73 0 0 0 .2.14l.49-.72-.07-.05a3.76 3.76 0 0 1-.1-.08l-.18-.14-.2-.17-.13-.12-.55.67.12.1.24.21Z" fill="url(#bovrehr2ba)"/><path d="M24.56 14.15a10.87 10.87 0 0 0-2.93 1.15l-.4-.8a11.72 11.72 0 0 1 7.6-1.37c.38.06.75.14 1.1.23l-.2.88a11.04 11.04 0 0 0-3.1-.36 10.65 10.65 0 0 0-2.07.27Z" fill="url(#bpvrehr2ba)"/><path d="m33.1 19.27.64-.93-.22-.17-.14-.1-.09-.06-.11-.08-.03-.02-.03-.02-.06-.04-.23-.15-.1-.06-.02-.01-.12-.07-.02-.01-.22-.13-.25-.13-.06-.03-.06-.03-.13-.06a10.82 10.82 0 0 0-2.08-.74 10.27 10.27 0 0 0-4.35-.1l.2 1.15a9 9 0 0 1 5.77.75l.12.05.05.03.06.03.22.11.14.09c.03 0 .05.02.07.04l.11.06.04.02.07.04.2.14.06.03.03.02.02.02.1.07.1.06.11.08.2.15Z" fill="url(#bqvrehr2ba)"/><path d="M37.73 24.62a11.92 11.92 0 0 0-1.8-4.06l-.84.65a10.54 10.54 0 0 1 1.83 5l1.05-.1c-.05-.5-.13-1-.24-1.49Z" fill="url(#brvrehr2ba)"/><path d="m26.55 14.45.03.88c.33-.01.66 0 1 .01l.04-.88a13 13 0 0 0-1.07-.01Z" fill="url(#bsvrehr2ba)"/><path d="m34.66 19.12.16.17.24.25.09.1-.62.6a7.93 7.93 0 0 1-.1-.1l-.2-.22-.15-.16a4.07 4.07 0 0 0-.16-.15l.57-.66.06.07.1.1Z" fill="url(#btvrehr2ba)"/><path d="m19.36 17.27.53.75a13.35 13.35 0 0 1 6-2.61l-.14-.93a13.61 13.61 0 0 0-3.35.98c-1.08.47-2.1 1.08-3.04 1.8Z" fill="url(#buvrehr2ba)"/><path d="m29 15.41-.09-.01-.1-.02h-.12l-.22-.03.06-.72.23.03h.12l.12.02.08.02c.05 0 .1 0 .15.02l.29.04.06.02.11.02.07.01.16.04.23.05.17.04.07.02-.17.7-.22-.06-.21-.05-.16-.03h-.03l-.03-.01-.16-.04h-.06l-.22-.04-.13-.02Z" fill="url(#bvvrehr2ba)"/><path d="M38.1 27.25h-1.14l.01 2.58h1.1l.02-2.58Z" fill="url(#bwvrehr2ba)"/><path d="M21.92 17.46a10.66 10.66 0 0 1 2.66-1.09l.25 1.08a9.61 9.61 0 0 0-3.49 1.71c-.34.27-.67.57-.98.88l-.73-.8a11.12 11.12 0 0 1 2.29-1.78Z" fill="url(#bxvrehr2ba)"/><path d="M38 30.95H37c0 .9.04 1.77.09 2.58h.91l.01-2.58Z" fill="url(#byvrehr2ba)"/><path d="M37.91 34.36h.15c.15 1.45.37 2.9.68 4.33h-.84c-.3-1.43-.53-2.88-.68-4.33h-.04.73Z" fill="url(#bzvrehr2ba)"/><path d="M40.18 42.82c-.56-1.07-.99-2.22-1.27-3.4h-.83c.27 1.18.7 2.33 1.26 3.4.1.19.21.36.35.52h.84a1.96 1.96 0 0 1-.35-.52Z" fill="url(#cavrehr2ba)"/><defs><linearGradient id="avrehr2ba" x1="44.24" y1="38" x2="12.13" y2="19.61" gradientUnits="userSpaceOnUse"><stop offset=".54" stop-color="#7002EF"/><stop offset="1" stop-color="#C2187B"/></linearGradient><linearGradient id="bvrehr2ba" x1="44.24" y1="38" x2="12.13" y2="19.61" gradientUnits="userSpaceOnUse"><stop stop-color="#3700FE"/><stop offset=".54" stop-color="#7002EF"/><stop offset="1" stop-color="#C2187B"/></linearGradient><linearGradient id="cvrehr2ba" x1="44.24" y1="38" x2="12.13" y2="19.61" gradientUnits="userSpaceOnUse"><stop stop-color="#3700FE"/><stop offset=".54" stop-color="#7002EF"/></linearGradient><linearGradient id="dvrehr2ba" x1="44.24" y1="38" x2="12.13" y2="19.61" gradientUnits="userSpaceOnUse"><stop stop-color="#3700FE"/><stop offset=".54" stop-color="#7002EF"/></linearGradient><linearGradient id="evrehr2ba" x1="44.24" y1="38" x2="12.13" y2="19.61" gradientUnits="userSpaceOnUse"><stop stop-color="#3700FE"/><stop offset=".54" stop-color="#7002EF"/></linearGradient><linearGradient id="fvrehr2ba" x1="44.24" y1="38" x2="12.13" y2="19.61" gradientUnits="userSpaceOnUse"><stop offset=".54" stop-color="#7002EF"/><stop offset="1" stop-color="#C2187B"/></linearGradient><linearGradient id="gvrehr2ba" x1="44.24" y1="38" x2="12.13" y2="19.61" gradientUnits="userSpaceOnUse"><stop offset=".54" stop-color="#7002EF"/><stop offset="1" stop-color="#C2187B"/></linearGradient><linearGradient id="hvrehr2ba" x1="44.24" y1="38" x2="12.13" y2="19.61" gradientUnits="userSpaceOnUse"><stop offset=".54" stop-color="#7002EF"/><stop offset="1" stop-color="#C2187B"/></linearGradient><linearGradient id="ivrehr2ba" x1="44.24" y1="38" x2="12.13" y2="19.61" gradientUnits="userSpaceOnUse"><stop offset=".54" stop-color="#7002EF"/><stop offset="1" stop-color="#C2187B"/></linearGradient><linearGradient id="jvrehr2ba" x1="44.24" y1="38" x2="12.13" y2="19.61" gradientUnits="userSpaceOnUse"><stop offset=".54" stop-color="#7002EF"/><stop offset="1" stop-color="#C2187B"/></linearGradient><linearGradient id="kvrehr2ba" x1="44.24" y1="38" x2="12.13" y2="19.61" gradientUnits="userSpaceOnUse"><stop stop-color="#3700FE"/><stop offset=".54" stop-color="#7002EF"/></linearGradient><linearGradient id="lvrehr2ba" x1="44.24" y1="38" x2="12.13" y2="19.61" gradientUnits="userSpaceOnUse"><stop offset=".54" stop-color="#7002EF"/><stop offset="1" stop-color="#C2187B"/></linearGradient><linearGradient id="mvrehr2ba" x1="44.24" y1="38" x2="12.13" y2="19.61" gradientUnits="userSpaceOnUse"><stop offset=".54" stop-color="#7002EF"/><stop offset="1" stop-color="#C2187B"/></linearGradient><linearGradient id="nvrehr2ba" x1="44.24" y1="38" x2="12.13" y2="19.61" gradientUnits="userSpaceOnUse"><stop stop-color="#3700FE"/><stop offset=".54" stop-color="#7002EF"/></linearGradient><linearGradient id="ovrehr2ba" x1="44.24" y1="38" x2="12.13" y2="19.61" gradientUnits="userSpaceOnUse"><stop stop-color="#3700FE"/><stop offset=".54" stop-color="#7002EF"/></linearGradient><linearGradient id="pvrehr2ba" x1="44.24" y1="38" x2="12.13" y2="19.61" gradientUnits="userSpaceOnUse"><stop stop-color="#3700FE"/><stop offset=".54" stop-color="#7002EF"/></linearGradient><linearGradient id="qvrehr2ba" x1="44.24" y1="38" x2="12.13" y2="19.61" gradientUnits="userSpaceOnUse"><stop stop-color="#3700FE"/><stop offset=".54" stop-color="#7002EF"/></linearGradient><linearGradient id="rvrehr2ba" x1="44.24" y1="38" x2="12.13" y2="19.61" gradientUnits="userSpaceOnUse"><stop stop-color="#3700FE"/><stop offset=".54" stop-color="#7002EF"/></linearGradient><linearGradient id="svrehr2ba" x1="44.24" y1="38" x2="12.13" y2="19.61" gradientUnits="userSpaceOnUse"><stop stop-color="#3700FE"/><stop offset=".54" stop-color="#7002EF"/></linearGradient><linearGradient id="tvrehr2ba" x1="44.24" y1="38" x2="12.13" y2="19.61" gradientUnits="userSpaceOnUse"><stop stop-color="#3700FE"/><stop offset=".54" stop-color="#7002EF"/></linearGradient><linearGradient id="uvrehr2ba" x1="44.24" y1="38" x2="12.13" y2="19.61" gradientUnits="userSpaceOnUse"><stop offset=".54" stop-color="#7002EF"/><stop offset="1" stop-color="#C2187B"/></linearGradient><linearGradient id="vvrehr2ba" x1="44.24" y1="38" x2="12.13" y2="19.61" gradientUnits="userSpaceOnUse"><stop stop-color="#3700FE"/><stop offset=".54" stop-color="#7002EF"/><stop offset="1" stop-color="#C2187B"/></linearGradient><linearGradient id="wvrehr2ba" x1="44.24" y1="38" x2="12.13" y2="19.61" gradientUnits="userSpaceOnUse"><stop stop-color="#3700FE"/><stop offset=".54" stop-color="#7002EF"/></linearGradient><linearGradient id="xvrehr2ba" x1="44.24" y1="38" x2="12.13" y2="19.61" gradientUnits="userSpaceOnUse"><stop stop-color="#3700FE"/><stop offset=".54" stop-color="#7002EF"/></linearGradient><linearGradient id="yvrehr2ba" x1="44.24" y1="38" x2="12.13" y2="19.61" gradientUnits="userSpaceOnUse"><stop stop-color="#3700FE"/><stop offset=".54" stop-color="#7002EF"/></linearGradient><linearGradient id="zvrehr2ba" x1="44.24" y1="38" x2="12.13" y2="19.61" gradientUnits="userSpaceOnUse"><stop stop-color="#3700FE"/><stop offset=".54" stop-color="#7002EF"/></linearGradient><linearGradient id="aavrehr2ba" x1="44.24" y1="38" x2="12.13" y2="19.61" gradientUnits="userSpaceOnUse"><stop stop-color="#3700FE"/><stop offset=".54" stop-color="#7002EF"/><stop offset="1" stop-color="#C2187B"/></linearGradient><linearGradient id="abvrehr2ba" x1="44.24" y1="38" x2="12.13" y2="19.61" gradientUnits="userSpaceOnUse"><stop offset=".54" stop-color="#7002EF"/><stop offset="1" stop-color="#C2187B"/></linearGradient><linearGradient id="acvrehr2ba" x1="44.24" y1="38" x2="12.13" y2="19.61" gradientUnits="userSpaceOnUse"><stop offset=".54" stop-color="#7002EF"/><stop offset="1" stop-color="#C2187B"/></linearGradient><linearGradient id="advrehr2ba" x1="44.24" y1="38" x2="12.13" y2="19.61" gradientUnits="userSpaceOnUse"><stop offset=".54" stop-color="#7002EF"/><stop offset="1" stop-color="#C2187B"/></linearGradient><linearGradient id="aevrehr2ba" x1="44.24" y1="38" x2="12.13" y2="19.61" gradientUnits="userSpaceOnUse"><stop offset=".54" stop-color="#7002EF"/><stop offset="1" stop-color="#C2187B"/></linearGradient><linearGradient id="afvrehr2ba" x1="44.24" y1="38" x2="12.13" y2="19.61" gradientUnits="userSpaceOnUse"><stop offset=".54" stop-color="#7002EF"/><stop offset="1" stop-color="#C2187B"/></linearGradient><linearGradient id="agvrehr2ba" x1="44.24" y1="38" x2="12.13" y2="19.61" gradientUnits="userSpaceOnUse"><stop offset=".54" stop-color="#7002EF"/><stop offset="1" stop-color="#C2187B"/></linearGradient><linearGradient id="ahvrehr2ba" x1="44.24" y1="38" x2="12.13" y2="19.61" gradientUnits="userSpaceOnUse"><stop offset=".54" stop-color="#7002EF"/><stop offset="1" stop-color="#C2187B"/></linearGradient><linearGradient id="aivrehr2ba" x1="44.24" y1="38" x2="12.13" y2="19.61" gradientUnits="userSpaceOnUse"><stop offset=".54" stop-color="#7002EF"/><stop offset="1" stop-color="#C2187B"/></linearGradient><linearGradient id="ajvrehr2ba" x1="44.24" y1="38" x2="12.13" y2="19.61" gradientUnits="userSpaceOnUse"><stop offset=".54" stop-color="#7002EF"/><stop offset="1" stop-color="#C2187B"/></linearGradient><linearGradient id="akvrehr2ba" x1="44.24" y1="38" x2="12.13" y2="19.61" gradientUnits="userSpaceOnUse"><stop stop-color="#3700FE"/><stop offset=".54" stop-color="#7002EF"/><stop offset="1" stop-color="#C2187B"/></linearGradient><linearGradient id="alvrehr2ba" x1="44.24" y1="38" x2="12.13" y2="19.61" gradientUnits="userSpaceOnUse"><stop stop-color="#3700FE"/><stop offset=".54" stop-color="#7002EF"/></linearGradient><linearGradient id="amvrehr2ba" x1="44.24" y1="38" x2="12.13" y2="19.61" gradientUnits="userSpaceOnUse"><stop stop-color="#3700FE"/><stop offset=".54" stop-color="#7002EF"/></linearGradient><linearGradient id="anvrehr2ba" x1="44.24" y1="38" x2="12.13" y2="19.61" gradientUnits="userSpaceOnUse"><stop stop-color="#3700FE"/><stop offset=".54" stop-color="#7002EF"/></linearGradient><linearGradient id="aovrehr2ba" x1="44.24" y1="38" x2="12.13" y2="19.61" gradientUnits="userSpaceOnUse"><stop stop-color="#3700FE"/><stop offset=".54" stop-color="#7002EF"/></linearGradient><linearGradient id="apvrehr2ba" x1="44.24" y1="38" x2="12.13" y2="19.61" gradientUnits="userSpaceOnUse"><stop offset=".54" stop-color="#7002EF"/><stop offset="1" stop-color="#C2187B"/></linearGradient><linearGradient id="aqvrehr2ba" x1="44.24" y1="38" x2="12.13" y2="19.61" gradientUnits="userSpaceOnUse"><stop offset=".54" stop-color="#7002EF"/><stop offset="1" stop-color="#C2187B"/></linearGradient><linearGradient id="arvrehr2ba" x1="44.24" y1="38" x2="12.13" y2="19.61" gradientUnits="userSpaceOnUse"><stop stop-color="#3700FE"/><stop offset=".54" stop-color="#7002EF"/></linearGradient><linearGradient id="asvrehr2ba" x1="44.24" y1="38" x2="12.13" y2="19.61" gradientUnits="userSpaceOnUse"><stop stop-color="#3700FE"/><stop offset=".54" stop-color="#7002EF"/></linearGradient><linearGradient id="atvrehr2ba" x1="44.24" y1="38" x2="12.13" y2="19.61" gradientUnits="userSpaceOnUse"><stop stop-color="#3700FE"/><stop offset=".54" stop-color="#7002EF"/></linearGradient><linearGradient id="auvrehr2ba" x1="44.24" y1="38" x2="12.13" y2="19.61" gradientUnits="userSpaceOnUse"><stop offset=".54" stop-color="#7002EF"/><stop offset="1" stop-color="#C2187B"/></linearGradient><linearGradient id="avvrehr2ba" x1="44.24" y1="38" x2="12.13" y2="19.61" gradientUnits="userSpaceOnUse"><stop offset=".54" stop-color="#7002EF"/><stop offset="1" stop-color="#C2187B"/></linearGradient><linearGradient id="awvrehr2ba" x1="44.24" y1="38" x2="12.13" y2="19.61" gradientUnits="userSpaceOnUse"><stop offset=".54" stop-color="#7002EF"/><stop offset="1" stop-color="#C2187B"/></linearGradient><linearGradient id="axvrehr2ba" x1="44.24" y1="38" x2="12.13" y2="19.61" gradientUnits="userSpaceOnUse"><stop offset=".54" stop-color="#7002EF"/><stop offset="1" stop-color="#C2187B"/></linearGradient><linearGradient id="ayvrehr2ba" x1="44.24" y1="38" x2="12.13" y2="19.61" gradientUnits="userSpaceOnUse"><stop offset=".54" stop-color="#7002EF"/><stop offset="1" stop-color="#C2187B"/></linearGradient><linearGradient id="azvrehr2ba" x1="44.24" y1="38" x2="12.13" y2="19.61" gradientUnits="userSpaceOnUse"><stop offset=".54" stop-color="#7002EF"/><stop offset="1" stop-color="#C2187B"/></linearGradient><linearGradient id="bavrehr2ba" x1="44.24" y1="38" x2="12.13" y2="19.61" gradientUnits="userSpaceOnUse"><stop offset=".54" stop-color="#7002EF"/><stop offset="1" stop-color="#C2187B"/></linearGradient><linearGradient id="bbvrehr2ba" x1="44.24" y1="38" x2="12.13" y2="19.61" gradientUnits="userSpaceOnUse"><stop offset=".54" stop-color="#7002EF"/><stop offset="1" stop-color="#C2187B"/></linearGradient><linearGradient id="bcvrehr2ba" x1="44.24" y1="38" x2="12.13" y2="19.61" gradientUnits="userSpaceOnUse"><stop offset=".54" stop-color="#7002EF"/><stop offset="1" stop-color="#C2187B"/></linearGradient><linearGradient id="bdvrehr2ba" x1="44.24" y1="38" x2="12.13" y2="19.61" gradientUnits="userSpaceOnUse"><stop stop-color="#3700FE"/><stop offset=".54" stop-color="#7002EF"/><stop offset="1" stop-color="#C2187B"/></linearGradient><linearGradient id="bevrehr2ba" x1="44.24" y1="38" x2="12.13" y2="19.61" gradientUnits="userSpaceOnUse"><stop offset=".54" stop-color="#7002EF"/><stop offset="1" stop-color="#C2187B"/></linearGradient><linearGradient id="bfvrehr2ba" x1="44.24" y1="38" x2="12.13" y2="19.61" gradientUnits="userSpaceOnUse"><stop stop-color="#3700FE"/><stop offset=".54" stop-color="#7002EF"/></linearGradient><linearGradient id="bgvrehr2ba" x1="44.24" y1="38" x2="12.13" y2="19.61" gradientUnits="userSpaceOnUse"><stop stop-color="#3700FE"/><stop offset=".54" stop-color="#7002EF"/></linearGradient><linearGradient id="bhvrehr2ba" x1="44.24" y1="38" x2="12.13" y2="19.61" gradientUnits="userSpaceOnUse"><stop stop-color="#3700FE"/><stop offset=".54" stop-color="#7002EF"/></linearGradient><linearGradient id="bivrehr2ba" x1="44.24" y1="38" x2="12.13" y2="19.61" gradientUnits="userSpaceOnUse"><stop offset=".54" stop-color="#7002EF"/><stop offset="1" stop-color="#C2187B"/></linearGradient><linearGradient id="bjvrehr2ba" x1="44.24" y1="38" x2="12.13" y2="19.61" gradientUnits="userSpaceOnUse"><stop stop-color="#3700FE"/><stop offset=".54" stop-color="#7002EF"/></linearGradient><linearGradient id="bkvrehr2ba" x1="44.24" y1="38" x2="12.13" y2="19.61" gradientUnits="userSpaceOnUse"><stop stop-color="#3700FE"/><stop offset=".54" stop-color="#7002EF"/><stop offset="1" stop-color="#C2187B"/></linearGradient><linearGradient id="blvrehr2ba" x1="44.24" y1="38" x2="12.13" y2="19.61" gradientUnits="userSpaceOnUse"><stop stop-color="#3700FE"/><stop offset=".54" stop-color="#7002EF"/><stop offset="1" stop-color="#C2187B"/></linearGradient><linearGradient id="bmvrehr2ba" x1="44.24" y1="38" x2="12.13" y2="19.61" gradientUnits="userSpaceOnUse"><stop stop-color="#3700FE"/><stop offset=".54" stop-color="#7002EF"/><stop offset="1" stop-color="#C2187B"/></linearGradient><linearGradient id="bnvrehr2ba" x1="44.24" y1="38" x2="12.13" y2="19.61" gradientUnits="userSpaceOnUse"><stop stop-color="#3700FE"/><stop offset=".54" stop-color="#7002EF"/><stop offset="1" stop-color="#C2187B"/></linearGradient><linearGradient id="bovrehr2ba" x1="44.24" y1="38" x2="12.13" y2="19.61" gradientUnits="userSpaceOnUse"><stop stop-color="#3700FE"/><stop offset=".54" stop-color="#7002EF"/><stop offset="1" stop-color="#C2187B"/></linearGradient><linearGradient id="bpvrehr2ba" x1="44.24" y1="38" x2="12.13" y2="19.61" gradientUnits="userSpaceOnUse"><stop stop-color="#3700FE"/><stop offset=".54" stop-color="#7002EF"/><stop offset="1" stop-color="#C2187B"/></linearGradient><linearGradient id="bqvrehr2ba" x1="44.24" y1="38" x2="12.13" y2="19.61" gradientUnits="userSpaceOnUse"><stop stop-color="#3700FE"/><stop offset=".54" stop-color="#7002EF"/><stop offset="1" stop-color="#C2187B"/></linearGradient><linearGradient id="brvrehr2ba" x1="44.24" y1="38" x2="12.13" y2="19.61" gradientUnits="userSpaceOnUse"><stop stop-color="#3700FE"/><stop offset=".54" stop-color="#7002EF"/><stop offset="1" stop-color="#C2187B"/></linearGradient><linearGradient id="bsvrehr2ba" x1="44.24" y1="38" x2="12.13" y2="19.61" gradientUnits="userSpaceOnUse"><stop stop-color="#3700FE"/><stop offset=".54" stop-color="#7002EF"/><stop offset="1" stop-color="#C2187B"/></linearGradient><linearGradient id="btvrehr2ba" x1="44.24" y1="38" x2="12.13" y2="19.61" gradientUnits="userSpaceOnUse"><stop stop-color="#3700FE"/><stop offset=".54" stop-color="#7002EF"/><stop offset="1" stop-color="#C2187B"/></linearGradient><linearGradient id="buvrehr2ba" x1="44.24" y1="38" x2="12.13" y2="19.61" gradientUnits="userSpaceOnUse"><stop stop-color="#3700FE"/><stop offset=".54" stop-color="#7002EF"/><stop offset="1" stop-color="#C2187B"/></linearGradient><linearGradient id="bvvrehr2ba" x1="44.24" y1="38" x2="12.13" y2="19.61" gradientUnits="userSpaceOnUse"><stop stop-color="#3700FE"/><stop offset=".54" stop-color="#7002EF"/><stop offset="1" stop-color="#C2187B"/></linearGradient><linearGradient id="bwvrehr2ba" x1="44.24" y1="38" x2="12.13" y2="19.61" gradientUnits="userSpaceOnUse"><stop stop-color="#3700FE"/><stop offset=".54" stop-color="#7002EF"/><stop offset="1" stop-color="#C2187B"/></linearGradient><linearGradient id="bxvrehr2ba" x1="44.24" y1="38" x2="12.13" y2="19.61" gradientUnits="userSpaceOnUse"><stop stop-color="#3700FE"/><stop offset=".54" stop-color="#7002EF"/><stop offset="1" stop-color="#C2187B"/></linearGradient><linearGradient id="byvrehr2ba" x1="44.24" y1="38" x2="12.13" y2="19.61" gradientUnits="userSpaceOnUse"><stop stop-color="#3700FE"/><stop offset=".54" stop-color="#7002EF"/><stop offset="1" stop-color="#C2187B"/></linearGradient><linearGradient id="bzvrehr2ba" x1="44.24" y1="38" x2="12.13" y2="19.61" gradientUnits="userSpaceOnUse"><stop stop-color="#3700FE"/><stop offset=".54" stop-color="#7002EF"/><stop offset="1" stop-color="#C2187B"/></linearGradient><linearGradient id="cavrehr2ba" x1="44.24" y1="38" x2="12.13" y2="19.61" gradientUnits="userSpaceOnUse"><stop stop-color="#3700FE"/><stop offset=".54" stop-color="#7002EF"/><stop offset="1" stop-color="#C2187B"/></linearGradient></defs></svg>