<!-- by TradingView --><svg width="56" height="56" viewBox="0 0 56 56" xmlns="http://www.w3.org/2000/svg"><path fill="#F0F3FA" d="M0 0h56v56H0z"/><path fill-rule="evenodd" d="M12 17.7a5.7 5.7 0 0 1 5.7-5.7h20.6a5.7 5.7 0 0 1 5.7 5.7v20.6a5.7 5.7 0 0 1-5.7 5.7H17.7a5.7 5.7 0 0 1-5.7-5.7V17.7Zm1 .2c0-2.7 2.2-4.9 4.9-4.9h20.2c2.7 0 4.9 2.2 4.9 4.9v20.2c0 2.7-2.2 4.9-4.9 4.9H17.9a4.9 4.9 0 0 1-4.9-4.9V17.9Zm4.84-3.9h6.49c-2.38 1.79-4.75 5-4.75 9.02 0 3.5 1.56 7.24 2.34 8.68l3.16 1.53c-2.2.14-6.23.8-7.98 1.1-.55.53-.72 1.67-.73 2.17 0 2.7 1.3 4.08 1.96 4.44L23 37.48l2.27.36-.62.48 2.85 1.49h1.3l-.51.88.81-.23.13 1.02.32.52H17.84A3.84 3.84 0 0 1 14 38.16V17.84A3.84 3.84 0 0 1 17.84 14ZM30 42h.9v-.21l-.45-.6h-.33l.5-.73-.17-.18.33-.3h.44v.3h.41l.21-.3h.6l.84.84-1.44-.13-.78.62.09.69h7A3.84 3.84 0 0 0 42 38.16v-17.3l-9.97 9.11-1.78.23-1.22-3.86c3.92-4.77 10.15-5.77 12.97-5.67v-2.83A3.84 3.84 0 0 0 38.16 14H25.17l4.56 16.88c2.36-.48 7.17-1.23 7.59-.34l-.96.09c-.14.04-.34.16 0 .25.28.09.68-.01.95-.08.13-.04.23-.06.28-.06h.05c.25-.01.99-.04.94.96-.09-.1-.36-.3-.8-.3-.31 0-.48.06-.64.12-.12.05-.24.1-.4.1h-.5L32.6 35.5l-.97-.18-1.9 2.03.72 1.34-.73.36-1.3-1.7-.69.5 1.87 1.71 1.62-.64 1.07.64-1.67.1-.9.54v1.37l.28.43Z" fill="#003E87"/></svg>