<!-- by TradingView --><svg xmlns="http://www.w3.org/2000/svg" width="56" height="56"><path fill="#0E447D" d="M0 0h56v56H0z"/><path d="M35.66 34.1s-.08 1.4.36 3.1c.37 1.4 1.04 2.72 1.04 2.72s6.92.37 9.94-5.15l-4.57-3.1s-1.77 4.06-6.77 2.44zm-6.93-15S31.75 16 37.5 16c2.28 0 6.48.66 9.2 5l-4.49 3.32s-1.25-2.5-4.86-2.5c-2.43 0-4.57 1.32-5.16 3.45-.95-4.12-3.46-6.18-3.46-6.18z" fill="#32A2DB"/><path d="M34.92 33.96c-2.21-1.1-3.1-3.68-3.1-5.81 0-6.56-5.15-11.93-12.37-11.93-7 0-12.45 3.9-12.45 12.37 0 10.96 13.11 14.5 20.77 8.54a12.92 12.92 0 01-3.16-6.34c-1.92 5.01-8.25 5.01-10.17 1.18-1.92-4.12-.74-9.86 4.94-9.86 3.97 0 5.52 3.1 5.52 5.74 0 6.55 4.42 12.07 11.2 12.07-.3-.73-.67-1.7-.96-2.94-.3-1.55-.22-3.02-.22-3.02z" fill="#fff"/></svg>