<!-- by TradingView --><svg width="56" height="56" viewBox="0 0 56 56" xmlns="http://www.w3.org/2000/svg"><path fill="#F0F3FA" d="M0 0h56v56H0z"/><path d="M35 11v9h-2v-7H23v8c-1.26.7-1.65 1.46-1.95 2H13v10h15.03c4.6-.15 6.57-3.41 6.97-4.81A6.85 6.85 0 0 1 28.37 35H11V21h10V11h14Z" fill="#01447B"/><path d="M21 45v-9h2v7h10v-8c1.26-.7 1.65-1.47 1.95-2H43V23H27.97c-4.6.15-6.57 3.41-6.97 4.81A6.85 6.85 0 0 1 27.63 21H45v14H35v10H21Z" fill="#3FBBD5"/><circle cx="28" cy="28" fill="#01447B" r="2"/></svg>