<!-- by TradingView --><svg width="56" height="56" viewBox="0 0 56 56" xmlns="http://www.w3.org/2000/svg"><path fill="#181B1E" d="M0 0h56v56H0z"/><circle cx="28" cy="28" r="16" fill="url(#azkn3xb2p)"/><path d="M23.57 16c1.87 0 3.57 1.15 4.59 2.1l.85-.73a1.1 1.1 0 0 1 1.51.12c.38.44.33 1.1-.13 1.46l-.84.73c.8 1.14 1.72 3 1.37 4.82-.06.34-.2.53-.36.5-.04-.01-.17-.25-.37-.62a22.35 22.35 0 0 0-2.12-3.15c-.27-.35-.54-.7-.8-1.07a27.58 27.58 0 0 0-3.7-3.44 2.58 2.58 0 0 1-.57-.47c0-.16.21-.25.57-.25Zm2.23 4 1.2 1.48-10.48 9.29a.9.9 0 0 1-1.3-.11 1 1 0 0 1 .1-1.37L25.8 20ZM36 26.5a.5.5 0 0 1 1 0v1a.5.5 0 0 1-1 0v-1ZM27.73 28c-.32 0-.6.16-.7.4L26 31h-1.27c-.32 0-.6.16-.7.4L23 34h-1.52a.62.62 0 0 0-.59.4L20 37h19l-.89-2.6a.62.62 0 0 0-.6-.4H36l-1.04-2.6c-.1-.24-.37-.4-.69-.4H33l-1.04-2.6c-.1-.24-.37-.4-.69-.4h-3.54ZM33 37l-1.04-2.6c-.1-.24-.37-.4-.69-.4h3.21a.62.62 0 0 0-.59.4L33 37Zm-7 0-.89-2.6a.62.62 0 0 0-.6-.4h3.22c-.32 0-.6.16-.7.4L26 37Zm2.96-5.6c-.1-.24-.37-.4-.69-.4h2.46c-.32 0-.6.16-.7.4l-.53 1.35-.54-1.35ZM39 29.5a.5.5 0 0 0-.5-.5h-1a.5.5 0 0 0 0 1h1a.5.5 0 0 0 .5-.5Z" fill="#3F3F3F"/><defs><linearGradient id="azkn3xb2p" x1="12" y1="24.1" x2="42.46" y2="34.14" gradientUnits="userSpaceOnUse"><stop stop-color="#DBDBDB"/><stop offset="1" stop-color="#B1B1B1"/></linearGradient></defs></svg>