<!-- by TradingView --><svg xmlns="http://www.w3.org/2000/svg" width="56" height="56"><path fill="#F0F3FA" d="M0 0h56v56H0z"/><path d="M19.1 24.77L28 47l8.84-22.64s-.3-2.21-2.4-5.4C33.19 17.09 30.75 13.79 28 12c-4.25 3.01-6.84 7.7-8.9 12.77z" fill="#F05A2A"/><path d="M41 15L28 47s-.54-1.82-1.42-4.13a23.94 23.94 0 01-1.77-7.98c-.1-2.18.05-3.95 1.4-6.92.93-2.06 3.71-5.25 6.15-7.24A35.38 35.38 0 0141 15z" fill="#9556A2"/><path d="M15 15l13 32s.41-1.91.95-4.27c.88-3.88 1.67-9.33-.85-14.68C23.74 18.77 15 15 15 15z" fill="#11A9E9"/><path d="M25 33.73c.3-4.7 2.19-7.44 2.19-7.44s-.82-1.67-2.39-3.56c-1.36-1.63-3.19-3.28-3.19-3.28A35.15 35.15 0 0019 24.88L28 47c-.29-1.02-.6-1.93-.99-3.06-1.1-3.19-2.01-6.73-2.01-10.21z" fill="#1B75BA"/><path d="M37 24.83L28 47s1-6.5 1-10.78c0-5.38-1.82-9.93-1.82-9.93a26.8 26.8 0 013.3-3.96c2.35-2.3 3.97-3.33 3.97-3.33A23.84 23.84 0 0137 24.83z" fill="#763880"/></svg>