<!-- by TradingView --><svg xmlns="http://www.w3.org/2000/svg" width="56" height="56" viewBox="0 0 56 56"><path fill="#FF6E09" d="M0 0h56v56H0z"/><path fill-rule="evenodd" d="M12 32.26c-.8.47-1.74.74-2.75.74A5.13 5.13 0 0 1 4 28c0-2.76 2.35-5 5.25-5 1 0 1.95.27 2.75.74V23h4v10h-4v-.74zM12 28a2 2 0 1 1-4 0 2 2 0 0 1 4 0zm23 5h-4V23h4v1.72c.4-.57 1.56-1.72 4-1.72v3.44c-.24-.13-.9-.39-1.7-.39-1 0-2.3.76-2.3 2.2V33zm10.29 0c.99 0 1.92-.26 2.71-.7v.7h4V23h-4v.7c-.8-.44-1.72-.7-2.71-.7A5.15 5.15 0 0 0 40 28c0 2.76 2.37 5 5.29 5zm.75-3a2 2 0 0 0 2.01-2 2 2 0 0 0-2.01-2 2 2 0 0 0-2.01 2c0 1.1.9 2 2.01 2zM18 23v5.96C18 31.2 19.95 33 22.36 33h2.28c2.4 0 4.36-1.8 4.36-4.04V23h-4v5.53c0 .95-.44 1.73-1.47 1.73h-.06c-1.03 0-1.47-.78-1.47-1.73V23h-4z" fill="#fff"/></svg>