<!-- by TradingView --><svg width="56" height="56" viewBox="0 0 56 56" xmlns="http://www.w3.org/2000/svg"><path fill="#F0F3FA" d="M0 0h56v56H0z"/><path d="M18 33c.88.02 1.56-.45 2-1.2V33h1v-7h-1v3.4c0 1.58-.9 2.6-2 2.6-.98 0-2-.81-2-1.96V26h-1v4.21c0 1.71 1.44 2.79 3 2.79ZM25.85 33c.4 0 .78-.06 1.15-.19v-.96c-.3.1-.6.15-.9.15-.81 0-1.1-.55-1.1-1.55V27h2v-1h-2v-3h-1v3h-1.5v1H24v3.62c0 1.62.56 2.38 1.85 2.38ZM38 22h-1v11h1V22ZM42 33a2.3 2.3 0 0 0 2-1.2V33h1v-7h-1v3.4c0 1.58-.9 2.6-2 2.6-1.5 0-2-.8-2-1.96V26h-1v4.21c0 1.71 1.44 2.79 3 2.79ZM34.75 27.93A3.38 3.38 0 0 0 34 26.8a3.32 3.32 0 0 0-2.24-1.06c-.1.24-.25.46-.43.64-.19.17-.4.3-.64.38a1.57 1.57 0 0 1-1.42-.22l-.26.26c-.31.32-.57.71-.75 1.14a3.98 3.98 0 0 0 0 2.86c.17.43.43.83.75 1.14.33.34.7.6 1.11.8.89.36 1.87.36 2.75 0 .42-.19.8-.46 1.11-.8A3.55 3.55 0 0 0 35 29.36a3.3 3.3 0 0 0-.25-1.43" fill="#004DC3"/><path d="M29.96 24A1 1 0 1 0 31 25a1.02 1.02 0 0 0-1.04-1Z" fill="#5DE585"/><path fill-rule="evenodd" d="M9.5 22h-1L4 33h1.2l1.6-4h4.4l1.6 4H14L9.5 22Zm1.3 6L9 23.5 7.2 28h3.6Z" fill="#004DC3"/><path d="M48.55 33c-1.15 0-2.52-.57-2.55-1.9h1.03c.08.8.79 1.14 1.52 1.14.7 0 1.45-.34 1.45-1.13 0-.92-1.03-1.12-1.73-1.3-1.07-.25-2.27-.6-2.27-1.92 0-1.3 1.34-1.89 2.48-1.89 1.1 0 2.32.54 2.45 1.76h-1.06c-.1-.7-.87-1-1.48-1-.67 0-1.39.36-1.39 1.1 0 .9 1.08 1.08 1.75 1.25 1.06.27 2.25.65 2.25 1.96 0 1.29-1.32 1.93-2.45 1.93Z" fill="#004DC3"/></svg>