<!-- by TradingView --><svg width="56" height="56" viewBox="0 0 56 56" xmlns="http://www.w3.org/2000/svg"><path fill="#F0F3FA" d="M0 0h56v56H0z"/><path d="M13.75 31.4 10 40h8.88c1.37 0 2.6-.79 3.15-2l1.82-4.06-3.63-3.42c-.75-.68-1.35-1.52-3.21-1.52-1.86 0-2.95 1.6-3.26 2.4Z" fill="url(#au5pr3alb)"/><path d="M27.62 29H17.3c1 0 2 .72 2.38 1.08l9.2 8.6c.39.44 1.45 1.32 2.65 1.32 1.43 0 2.95-.57 3.53-.85l-.7-4.87c-1.02-.95-3.3-3.07-4.22-4A4.43 4.43 0 0 0 27.62 29Z" fill="url(#bu5pr3alb)"/><path d="M25.45 24h-9.02c.8-1.95 2.6-6.24 3.27-7.85.67-1.62 2.48-2.1 3.3-2.15h2.93l2.66 7.31c-.25 1.9-2.2 2.58-3.14 2.69Z" fill="url(#cu5pr3alb)"/><path d="M42.12 40H31.7c2.71-.42 2.9-2.63 2.66-3.69-2.56-6.16-7.84-18.85-8.43-20.3-.59-1.45-2.24-1.94-2.99-2.01h10.53c1.44 0 2.73.87 3.26 2.2l8.06 19.85A2.87 2.87 0 0 1 42.12 40Z" fill="url(#du5pr3alb)"/><defs><linearGradient id="au5pr3alb" x1="18.36" y1="29.52" x2="17" y2="40.01" gradientUnits="userSpaceOnUse"><stop offset=".07" stop-color="#2C68B3"/><stop offset="1" stop-color="#2F9CD7"/></linearGradient><linearGradient id="bu5pr3alb" x1="26.19" y1="29" x2="26.19" y2="40" gradientUnits="userSpaceOnUse"><stop offset=".09" stop-color="#4CB9E9"/><stop offset="1" stop-color="#A9DEEB"/></linearGradient><linearGradient id="cu5pr3alb" x1="22.51" y1="14" x2="22.51" y2="24" gradientUnits="userSpaceOnUse"><stop stop-color="#2758A7"/><stop offset="1" stop-color="#2D9CD7"/></linearGradient><linearGradient id="du5pr3alb" x1="33.97" y1="14" x2="33.97" y2="40" gradientUnits="userSpaceOnUse"><stop stop-color="#E1E1E1"/><stop offset=".32" stop-color="#48A5DB"/><stop offset=".69" stop-color="#3D9BD5"/><stop offset="1" stop-color="#4279BD"/></linearGradient></defs></svg>