<!-- by TradingView --><svg width="56" height="56" fill="none" xmlns="http://www.w3.org/2000/svg"><path fill="#F0F3FA" d="M0 0h56v56H0z"/><path d="M23.746 41.527c-4.012-.948-7.66-5.892-2.631-12.016 1.41-1.718 2.325-2.705 3.552-4.044.884-.918 2.08-1.452 3.331-1.467 1.25.026 2.441.562 3.328 1.476 1.276 1.324 2.119 2.283 3.56 4.035 5.028 6.125 1.38 11.069-2.631 12.016a19.168 19.168 0 0 1-8.507 0h-.002ZM28.001 12a4.307 4.307 0 0 0-1.623.304 5.309 5.309 0 0 0-1.797 1.116 71.778 71.778 0 0 0-6.929 7.104c-1.44 1.75-5.625 6.226-5.652 11.224v.097a8.563 8.563 0 0 0 1.056 4.084C16.413 42.14 24.556 43 28 43c3.445 0 11.584-.86 14.944-7.07 3.527-6.521-2.76-13.177-4.596-15.404a71.766 71.766 0 0 0-6.929-7.104 5.31 5.31 0 0 0-1.796-1.116 4.307 4.307 0 0 0-1.594-.304H28" fill="url(#a)"/><defs><linearGradient id="a" x1="12" y1="27.5" x2="44" y2="27.5" gradientUnits="userSpaceOnUse"><stop offset=".2" stop-color="#0BA1D4"/><stop offset=".8" stop-color="#EE7B27"/></linearGradient></defs></svg>