<!-- by TradingView --><svg xmlns="http://www.w3.org/2000/svg" width="56" height="56"><path fill="url(#agci3zcgj)" d="M0 0h56v56H0z"/><path fill-rule="evenodd" d="M19.82 29L18 35h1.09l.47-1.5h1.83l.49 1.5H23l-1.86-6h-1.32zm1.36 3.5l-.73-2.56-.68 2.56h1.4zM34.82 29L33 35h1.09l.47-1.5h1.83l.49 1.5H38l-1.86-6h-1.32zm1.36 3.5l-.73-2.56-.68 2.56h1.4zM25 29h-2v1h2v5h1v-5h2v-1h-3zm4 0h3.5v1H30v1.5h2.33v1H30V34h2.5v1H29v-6z" fill="#02E7A1"/><path d="M27.93 13l-1.79 6.86c.65-.08 2.27-.2 3.53 0L27.93 13zm11.1 2.86l-5.06 5.22c.6.25 2.06.95 3.05 1.76l2.02-6.98zm-17.12 5.22l-5.07-5.22 2.01 6.98c1-.8 2.45-1.51 3.06-1.76zM8.79 24l7 2c-.4.52-1.32 1.85-1.77 3.05L8.79 24zm31.34 1.96l7-2-5.22 5.05a14.06 14.06 0 00-1.78-3.05zM50 35l-7.06-1.78c.05.36.11 1.04.12 1.78H50zm-36.94-1.78L6 35h6.94c0-.74.07-1.42.12-1.78zm9.44-18.38c-.38.1-.6.49-.5.87l.97 3.57 1.37-.37-.97-3.57a.71.71 0 00-.87-.5zm11.3.87a.71.71 0 10-1.37-.38l-.97 3.57 1.37.38.97-3.57zm8.9 4.54c.27.28.26.73-.02 1l-2.63 2.6-1-1 2.63-2.6a.71.71 0 011.01 0zM13.17 21.3a.71.71 0 111-1.01l2.64 2.6-1 1.01-2.64-2.6zm-5.35 8.35a.7.7 0 00.51.86l3.6.91.34-1.38-3.59-.9a.71.71 0 00-.86.5zm39.74.9a.71.71 0 00-.35-1.38l-3.59.9.35 1.38 3.6-.9zM42 35a14 14 0 10-28 0h2.01l-.01-.52C16 28.14 21.37 23 28 23s12 5.14 12 11.48l-.01.52H42z" fill="#FED403"/><defs><linearGradient id="agci3zcgj" x1="10.42" y1="9.71" x2="68.15" y2="76.02" gradientUnits="userSpaceOnUse"><stop stop-color="#1A1E21"/><stop offset="1" stop-color="#06060A"/></linearGradient></defs></svg>