<!-- by TradingView --><svg width="56" height="56" viewBox="0 0 56 56" xmlns="http://www.w3.org/2000/svg"><path fill="#F0F3FA" d="M0 0h56v56H0z"/><path d="M8 18v8.73c8.59 0 15.55 6.83 15.55 15.26C25.6 39.24 28 36.22 28 36.22v-8.03A24.54 24.54 0 0 0 8 18Z" fill="url(#aenol0lva)"/><path d="M28 28.2v8.02s2.22 2.86 4.45 5.77c0-8.43 6.96-15.26 15.55-15.26V18a24.54 24.54 0 0 0-20 10.2Z" fill="url(#benol0lva)"/><path d="M23.55 42h8.9c0-5.14-1.65-9.9-4.46-13.8A23.6 23.6 0 0 0 23.54 42Z" fill="url(#cenol0lva)"/><defs><linearGradient id="aenol0lva" x1="11.12" y1="20.46" x2="29.36" y2="39.04" gradientUnits="userSpaceOnUse"><stop stop-color="#72BF44"/><stop offset="1" stop-color="#D7DF23"/></linearGradient><linearGradient id="benol0lva" x1="46.52" y1="21.94" x2="25.31" y2="38.83" gradientUnits="userSpaceOnUse"><stop stop-color="#D7DF23"/><stop offset="1" stop-color="#72BF44"/></linearGradient><linearGradient id="cenol0lva" x1="23.55" y1="35.1" x2="32.45" y2="35.1" gradientUnits="userSpaceOnUse"><stop stop-color="#39B54A"/><stop offset=".6" stop-color="#5DBB46"/><stop offset="1" stop-color="#72BF44"/></linearGradient></defs></svg>