<!-- by TradingView --><svg xmlns="http://www.w3.org/2000/svg" width="56" height="56" viewBox="0 0 56 56"><path d="M56 0H0v56h56V0Z" fill="#48DEC3"/><path d="M16.8 31.79h2.48c.13.04.04.18.22.31.16.13.15 0 .32.24-.34.26-2.67.14-3.01-.55Zm4.88-3.1c.1-.23.05-.09.14-.17l.1.4-.3-.02c.02-.08.01-.12.06-.2Zm24.91.86c.1-.32.27-.73.41-1.04.19-.42.3-.6.83-.65l-.67 1.69h-.57Zm-29.26 0c.1-.3.23-.6.35-.9.38-.91.17-.8.88-.79l-.67 1.68h-.56ZM39 23.5h-3.44l-.88 2.13h-2.4c-.39.05 0 .08-.31.07-.05 0-.23-.08-.3-.1-1.13-.37-1.94.1-2.64.29l.09-.24-2.43-.02c-.35.02-.15.08-.37.07-.12-.01-.53-.17-.76-.2-1.74-.2-2.3.6-2.91.9l1.19-2.9h-8.39c-.2.07-.06-.04-.22.17l-2.07 2.99-.16.23-.08.11c-.12.13-.02.01-.13.1l.59-3.6H8.23l-1.1 2.53.7.03-1.41 3.44h-.75l-.95 2.3H9.1l.24-.53-.04.54h2.89c.15-.04 1.38-1.78 1.63-2.13l.27-.28c-.15.62-.56 1.18-.68 1.85-.51 3.1 5.1 4.52 7.98 3.39.91-.36.92-.42 1.4-1.05.34-.44.63-1.1.35-1.82.5.04.82.22 1.42.17.5-.04.9-.16 1.32-.35l.04.15c.09.15 2.65-.06 2.89.01.9.28 1.7.28 2.53-.08.14.14 0 .13.5.12h4.29l.31-.7c1.8 1.77 5.09.28 5.23.27l-.16.45h8.67c.17-.05.97-2.08 1.02-2.26h-.59c.3-.9 1.32-2.34.73-3.28-.9-1.44-3.15-.44-3.35-.59-.18-.13-3.41-.05-3.9-.05l-.3.73c-.32-.18-.47-.5-1.28-.72a5.47 5.47 0 0 0-1.82-.14c-1.75.13-2.31.8-2.92.99L39 23.5Z" fill="#FEFEFE"/><path d="M19.82 32.34c-.34.26-2.67.14-3.01-.55h2.47c.13.04.04.18.22.31.16.13.15 0 .32.24Zm1.86-3.65c.1-.23.05-.09.14-.17l.1.4-.3-.02c.02-.08.01-.12.06-.2Zm24.91.86c.1-.32.27-.73.41-1.04.19-.42.3-.6.83-.65l-.67 1.69h-.57Zm-29.26 0c.1-.3.23-.6.35-.9.38-.91.17-.8.88-.79l-.67 1.68h-.56Zm5.81 2.22c.5.04.82.22 1.42.17.5-.04.9-.16 1.32-.35l.04.15c.09.15 2.65-.06 2.89.01.9.28 1.7.28 2.53-.08.14.14 0 .13.5.12h4.29l.31-.7c1.8 1.77 5.09.28 5.23.27l-.16.45h8.67c.17-.05.97-2.08 1.02-2.26h-.59c.3-.9 1.32-2.34.73-3.28-.9-1.44-3.15-.44-3.35-.59-.18-.13-3.41-.05-3.9-.05l-.3.73c-.32-.18-.47-.5-1.28-.72a5.47 5.47 0 0 0-1.82-.14c-1.75.13-2.31.8-2.92.99L39 23.5h-3.44l-.88 2.13h-2.4c-.39.05 0 .08-.31.07-.05 0-.23-.08-.3-.1-1.13-.37-1.94.1-2.64.29l.09-.24-2.43-.02c-.35.02-.15.08-.37.07-.12-.01-.53-.17-.76-.2-1.74-.2-2.3.6-2.91.9l1.19-2.9h-8.39c-.2.07-.06-.04-.22.17l-2.07 2.99-.16.23-.08.11c-.12.13-.02.01-.13.1l.59-3.6H8.23l-1.1 2.53.7.03-1.41 3.44h-.75l-.95 2.3H9.1l.24-.53-.04.54h2.89c.15-.04 1.38-1.78 1.63-2.13l.27-.28c-.15.62-.56 1.18-.68 1.85-.51 3.1 5.1 4.52 7.98 3.39.91-.36.92-.42 1.4-1.05.34-.44.63-1.1.35-1.82Zm12.42-8.76h4.17l-1.02 2.45a6.98 6.98 0 0 1 2.94-.47c.33.03.66.08.98.17.47.12.75.28.96.43l.18-.46H44.61c1.12-.02 3.38-.06 3.65.14.1.08 0-.1.14-.13.87-.17 2.49-.5 3.33.85.6.95.07 2.07-.37 3.02l-.01.04h.5l-.2.65c-.03.12-.38 1.01-.67 1.66-.22.48-.46.87-.68.93l-.07.02h-9.4l.06-.17c-1.08.3-2.9.63-4.27-.27l-.2.42h-4.68c-.2 0-.3 0-.38-.02a.78.78 0 0 1-.11-.03c-.38.13-.76.2-1.14.21-.47.01-.94-.06-1.43-.22l-1.05.03c-.7.03-1.46.06-1.86-.09a4.36 4.36 0 0 1-1.18.27 3 3 0 0 1-.87-.06 2.77 2.77 0 0 1-.56 1.52l-.07.1c-.48.64-.55.72-1.53 1.1a8.1 8.1 0 0 1-4.25.26 7.86 7.86 0 0 1-2.6-.94 3.69 3.69 0 0 1-1.65-1.87 2.7 2.7 0 0 1-.15-.85c-.27.32-.5.57-.62.6H4L5.36 29h.75l1.01-2.47-.73-.02L7.92 23h6.02l-.36 2.19 1.27-1.83.02-.02.04-.06c.04-.07.06-.1.14-.16.1-.08.15-.09.24-.1h.02l.07-.03h9.18l-.92 2.23c.47-.2 1.08-.33 1.97-.22.17.02.37.08.55.13l.16.05c.07-.03.17-.05.34-.06h.03l2.98.03a3.3 3.3 0 0 1 2.15-.04l.1.04c.03 0 .04.02.05.03.07-.03.16-.05.26-.06H34.37l.88-2.12h.3Z" fill="#2C347E"/><path d="M7.93 25.48h.68l-1.88 4.55-.7.02-.5 1.22h3.14c.18-.05.51-1 .57-1.22h-.67c0-.18.43-1.16.69-1.78l.18-.43 1-2.25-.56 5.67h2.14L15.18 27l.44-.6c.21-.3.42-.59.63-.83-.1.43-.73 1.85-.93 2.3-.24.53-.46 1.08-.69 1.63l-.3.72v.03c-.37.88-.69 1.64-.05 2.46 1.41 1.85 5.6 2.23 7.4 1.23.45-.24 1.48-1.32.89-2.09-.28-.35-.52-.34-.95-.32h-.79l-1.2.01.03.03.1.07.08.05c.26.15.8.47.45.98-.46.65-4.15.57-4.2-1.27 0-.32 1.45-3.8 1.76-4.5l.34-.84c.11-.3.16-.44.27-.5.09-.06.22-.06.47-.06h.23l.62-1.42-4.22-.01-3.63 5.23.81-5.25H8.57l-.64 1.43Zm38.92 1.63.35-.92-2.75-.01-.5 1.14.66.01a24.9 24.9 0 0 1-1.17 2.78h-.69l-.44 1.15h3.53a6 6 0 0 1 .16-.38c.12-.28.26-.6.26-.77h-.44c.09-.32.24-.67.4-1.02.1-.2.18-.41.25-.6.56-1.47 1.79-1.26 1.91-.83.1.33-.78 2.25-.92 2.45h-.57l-.44 1.15h3.5l.04-.1c.14-.32.32-.74.41-1.05h-.57c.1-.34.4-1.05.63-1.56l.15-.34.05-.12c.24-.54.6-1.38.02-1.8-.76-.54-2.54-.26-3.45.47-.09.08-.13.13-.16.17-.05.06-.09.1-.22.18Zm-5.76 1.72c.31-.65.51-1.79-.61-1.55-1.45.3-2.51 3.19-.74 2.9.72-.1 1.05-.73 1.35-1.35Zm1.07 1.6c-1.8 1.29-5.74 1.56-5.74-.82 0-.52.19-.88.38-1.26.2-.39.36-.54.58-.75l.15-.15c.32-.32.47-.46.91-.69 2.18-1.14 5.33-1.1 5.33 1.06 0 1.12-1.02 2.18-1.61 2.6Zm-17.3-.75c-.01.41-.43.69-.87.69-.61-.01-.63-.35-.56-.9h-1.67l-.72 1.8h1.58l.23-.5c.06.07.08.13.1.18.03.08.05.14.2.23.12.08.34.15.5.19a3.15 3.15 0 0 0 3.07-1.06c.46-.52.78-1.48-.02-1.9a3.87 3.87 0 0 0-.95-.28c-.44-.09-.86-.18-1.1-.44.01-.42.35-.64.79-.62.56.03.58.34.48.84h1.71l.7-1.72-1.52-.01-.3.43-.03-.05a.55.55 0 0 0-.03-.07c-.49-.72-2.77-.66-3.7.62-1.22 1.7.14 1.97 1.14 2.16l.56.12c.25.08.3.11.4.3Zm4.72.68c.47.03.8-.2.94-.55-.06-.4-.46-.47-.97-.55-.32-.05-.67-.1-1.02-.26-1.28-.55-.26-2.52 1.61-2.9.38-.08.87-.1 1.26-.01.49.1.57.22.8.53l.03.05.23-.5h1.52c-.04.23-.26.7-.43 1.06a16.05 16.05 0 0 0-.18.4c-.04.13-.1.25-.21.28h-1.6c.1-.5.07-.81-.47-.84-.45-.02-1.7.66.19 1 1.33.25 2.12.8 1.09 2.23-.75 1.04-3.3 1.74-3.88.45l-.23.52h-1.59c.06-.22.19-.51.33-.83.14-.32.3-.67.38-.96h1.7c-.08.5-.06.85.5.88Zm4.3-3.03h.62c-.12.4-.4 1.03-.58 1.42a7.8 7.8 0 0 0-.24.58c-.11.28-.22.55-.36.78h-.7c-.04.22-.13.41-.22.61-.08.18-.16.36-.2.55h3.61l.48-1.15h-.59l1.62-3.93-2.9-.01c-.2.04-.54.97-.54 1.15Zm-14.53 0h-.62c.01-.27.31-.88.45-1.15h3l-1.61 3.93.58.01-.49 1.15h-3.6c.07-.24.15-.43.23-.63.07-.17.14-.33.2-.53h.7c.17-.26 1.06-2.4 1.16-2.78Zm.74-1.71h2.34l.64-1.56h-2.32l-.66 1.56Zm17.48.01-2.33-.02.65-1.56h2.32l-.64 1.58Z" fill="#E93526"/><path d="m21.62 28.9.3.02-.1-.4c-.09.08-.03-.06-.14.17-.05.09-.04.13-.06.21Z" fill="#2F3780"/></svg>