<!-- by TradingView --><svg width="56" height="56" xmlns="http://www.w3.org/2000/svg"><path fill="#32B26D" d="M0 0h56v56H0z"/><path d="M10.65 32.998h-3.3l-.35 1h4l-.35-1z" fill="#fff"/><path d="M9 23.996h2.003L14 32.998h-2.002L9 23.996zM8.997 23.996H7l-3 9.002h2l2.997-9.002zM52 23.996h-6.003V26H48v6.998h2V26h2v-2.004zM37 23.996v9.002h6V31h-3.996v-1.5H42v-2h-2.996V26H43v-2.004h-6zM21 23.999l-1.988 6.725L16.999 24l-.003-.003H15l3 9.002h2l3-9h-2zM28 23.996h-2v9.002h2V28l3 4.998h2v-9.002h-2V29l-3-5.004z" fill="#08090D"/></svg>