<!-- by TradingView --><svg width="56" height="56" viewBox="0 0 56 56" xmlns="http://www.w3.org/2000/svg"><path fill="#F0F3FA" d="M0 0h56v56H0z"/><path d="M6.02 26.58h-.04l-.23.58a54.49 54.49 0 0 0-.54 1.36l-.06.25a22.58 22.58 0 0 0-.43 1.17c-.09.03-.17.06-.31.06-.23 0-.41-.1-.41-.29 0-.04 0-.08.02-.12l.06-.16a25.1 25.1 0 0 1 .48-1.22 77.94 77.94 0 0 1 .9-2.1c.1-.05.34-.1.54-.1.28 0 .52.06.58.22a37.84 37.84 0 0 1 1.1 2.76l.32.86c-.08.08-.23.15-.41.15-.27 0-.35-.1-.43-.3l-.34-.93-.09-.3a31.72 31.72 0 0 0-.51-1.37l-.2-.52ZM4.8 29l.27-.58H7l.12.58H4.8ZM10.46 27c.2 0 .34.08.34.26l-1.03 2.66a.78.78 0 0 1-.4.08c-.19 0-.36-.05-.41-.16L7.8 27.15a.5.5 0 0 1 .36-.14c.2 0 .31.07.38.27.26.72.56 1.44.83 2.16.31-.76.57-1.59.79-2.38a.7.7 0 0 1 .3-.05ZM35.03 27c.2 0 .33.08.33.26l-1.02 2.65a.77.77 0 0 1-.4.09c-.17 0-.36-.05-.41-.16l-1.17-2.69a.5.5 0 0 1 .36-.15c.2 0 .32.07.39.28.26.72.56 1.43.83 2.15.3-.75.56-1.58.78-2.37a.7.7 0 0 1 .3-.06ZM12.53 29.52c.36 0 .61-.08.73-.13v-.78l-.82.07c-.45.03-.7.15-.7.41 0 .27.26.43.79.43ZM12.5 27c.92 0 1.5.31 1.5 1v1.43a.3.3 0 0 1-.07.21.65.65 0 0 1-.21.14c-.26.12-.68.22-1.2.22-.95 0-1.52-.3-1.52-.89 0-.53.45-.8 1.22-.86l1.04-.09V28c0-.36-.3-.5-.8-.5-.4 0-.78.1-1.07.2a.58.58 0 0 1-.12-.1.25.25 0 0 1-.05-.16c0-.12.09-.21.25-.28.28-.1.66-.16 1.03-.16ZM18.35 28.32H19v.76c0 .29.33.4.7.4a1.37 1.37 0 0 0 .52-.1c.03.02.06.06.08.1.03.04.05.09.05.14 0 .1-.07.2-.2.26s-.22.11-.56.12c-.59 0-1.24-.2-1.24-.88v-.8Zm.43-.83V27h1.48a.3.3 0 0 1 .05.1c.02.04.03.09.03.14 0 .08-.02.15-.07.19-.05.04-.11.06-.2.06h-1.29Zm.22 1h-.65v-2.45c.12-.03.23-.04.35-.04.28 0 .3.08.3.27v2.21ZM42.35 28.32H43v.77c0 .3.48.4.7.4a1.37 1.37 0 0 0 .52-.1l.09.1c.03.04.04.09.04.14 0 .1-.06.19-.2.26-.13.06-.18.11-.56.11-.59 0-1.24-.2-1.24-.87v-.8Zm.44-.82V27h1.48l.05.1.03.15c0 .08-.02.14-.07.19-.05.04-.11.06-.2.06H42.8Zm.21 1h-.65v-2.44l.33-.06c.32 0 .32.1.32.29v2.2ZM21.2 26.36c0-.2.2-.36.42-.36.23 0 .42.15.42.36 0 .2-.16.36-.42.36-.23 0-.41-.16-.41-.36Zm.14 1.89H22v1.74l-.32.01s-.34-.07-.34-.27v-1.48Zm.66.45-.66-.01v-1.62c.07-.02.15-.07.28-.07.13 0 .22.02.28.07.06.04.1.1.1.21v1.42ZM24.47 29.12c0 .26-.09.47-.27.62-.17.16-.5.26-.83.26-.26 0-.45-.08-.63-.17-.18-.1-.27-.21-.27-.35a.34.34 0 0 1 .15-.29c.1.08.22.14.35.2.13.06.28.1.45.1.33 0 .5-.13.5-.37 0-.1-.03-.18-.08-.24a.53.53 0 0 0-.26-.15l-.38-.1a1.01 1.01 0 0 1-.53-.3.75.75 0 0 1-.18-.5c0-.23.09-.43.26-.59.17-.16.42-.24.75-.24.16 0 .31.02.44.06.14.04.24.09.31.16a.3.3 0 0 1 .11.22c0 .06 0 .12-.03.17a.27.27 0 0 1-.1.1 1.84 1.84 0 0 0-.42-.18 1.09 1.09 0 0 0-.28-.04.64.64 0 0 0-.36.1.27.27 0 0 0-.13.24c0 .07.02.14.07.2s.14.1.26.13l.31.09c.27.07.47.17.6.31.13.14.2.33.2.56ZM41.5 29.12c0 .65-.55.88-1.1.88-.33 0-.9-.12-.9-.52a.34.34 0 0 1 .15-.29c.2.15.47.3.8.3.33 0 .5-.13.5-.37 0-.39-.47-.42-.72-.5a1.01 1.01 0 0 1-.54-.28.75.75 0 0 1-.17-.51c0-.6.55-.83 1-.83.17 0 .32.02.45.06.13.04.24.09.3.16a.3.3 0 0 1 .12.22c0 .06-.01.12-.04.17a.27.27 0 0 1-.1.1 1.84 1.84 0 0 0-.41-.18 1.09 1.09 0 0 0-.28-.04c-.3 0-.5.12-.5.34 0 .07.03.14.08.2s.14.1.25.13c.49.13 1.11.27 1.11.96ZM52 29.12c0 .59-.6.88-1.05.88-.45 0-.95-.12-.95-.52a.34.34 0 0 1 .15-.29c.2.15.47.3.8.3.34 0 .5-.13.5-.37 0-.1-.02-.18-.08-.24a.53.53 0 0 0-.26-.15l-.38-.1a1.02 1.02 0 0 1-.54-.3.74.74 0 0 1-.17-.5c0-.23.09-.43.26-.59.17-.16.49-.24.82-.24.23 0 .51.05.69.22a.3.3 0 0 1 .11.22c0 .06-.01.12-.04.17a.27.27 0 0 1-.1.1c-.2-.13-.45-.22-.7-.22a.65.65 0 0 0-.36.1.27.27 0 0 0-.13.24c0 .07.02.14.07.2s.14.1.26.13l.32.09c.27.07.47.17.6.31.12.14.18.33.18.56ZM27.3 27.4h.7V30h-.33s-.37-.09-.37-.27V27.4Zm.7 1.04h-.7v-2.38c.07-.02.2-.06.33-.06.2 0 .37.09.37.3v2.14ZM36.45 28.83l-.03-.45 1.92-.24c-.02-.38-.3-.66-.8-.66s-.87.33-.88.92l.01.23c.07.56.48.85 1.11.85.38 0 .71-.12.9-.24.06.02.1.06.13.1.04.06.05.1.05.16 0 .1-.05.17-.14.24-.27.2-.7.26-1.03.26-.58 0-1.18-.25-1.47-.7-.15-.23-.22-.51-.22-.84 0-.8.6-1.46 1.55-1.46.8 0 1.45.52 1.45 1.24 0 .1-.03.17-.08.22a.44.44 0 0 1-.23.09l-2.24.28ZM47.5 28.5c0 .88-.62 1.5-1.5 1.5s-1.5-.62-1.5-1.5c0-.87.62-1.5 1.5-1.5.87 0 1.5.63 1.5 1.5Zm-1.5-1c-.5 0-.83.38-.83 1 0 .63.3 1 .83 1s.83-.39.83-1c0-.62-.31-1-.83-1ZM16.35 27c.66 0 1.4.42 1.4 1.17v1.6c0 .11-.18.23-.39.23-.2 0-.36-.12-.36-.22v-1.6c0-.38-.32-.63-.65-.63-.34 0-.59.25-.59.62v1.61c0 .12-.2.22-.38.22-.23 0-.38-.1-.38-.22v-1.6c0-.76.69-1.18 1.35-1.18ZM30.35 27c.66 0 1.4.42 1.4 1.17v1.6c0 .11-.18.23-.39.23-.2 0-.36-.12-.36-.22v-1.6c0-.38-.32-.63-.65-.63-.34 0-.59.25-.59.62v1.61c0 .12-.2.22-.38.22-.23 0-.38-.1-.38-.22v-1.6c0-.76.69-1.18 1.35-1.18ZM49.67 27.03a1.43 1.43 0 0 0-1.49.57 1 1 0 0 0-.18.58v1.62c0 .1.14.2.35.2.12 0 .35-.04.35-.2v-1.62c0-.35.35-.62.68-.62.1 0 .2.02.3.06v-.6Z" fill="#0099A9"/></svg>