<!-- by TradingView --><svg xmlns="http://www.w3.org/2000/svg" width="56" height="56" viewBox="0 0 56 56"><path fill="#F0F3FA" d="M0 0h56v56H0z"/><circle cx="14" cy="36" r="3" fill="url(#avkkjbuch)"/><circle cx="42" cy="20" r="3" fill="url(#bvkkjbuch)"/><path d="M22.18 22.61c-.66-.85-1.84-1.13-2.89-1.45a3.17 3.17 0 0 1-2.29-3A3.2 3.2 0 0 1 20.25 15a3.2 3.2 0 0 1 3.25 3.15c0 1.03-.05 2.17.6 3l8.85 11.47c.55.72 1.53.96 2.44 1.14A3.18 3.18 0 0 1 38 36.85 3.2 3.2 0 0 1 34.75 40a3.2 3.2 0 0 1-3.25-3.15c0-1.01.04-2.11-.59-2.92L22.18 22.6Z" fill="url(#cvkkjbuch)"/><path d="M20.14 32.38c-.76-1.03-2.19-1.29-3.36-1.78l-.3-.15A2.91 2.91 0 0 1 17.9 25c1.6 0 2.9 1.3 2.9 2.91 0 1.04-.1 2.2.46 3.07.74 1.15 1.52 2.2 2.84 2.2l.3.01a2.9 2.9 0 0 1-.3 5.81 2.9 2.9 0 0 1-2.9-2.91c0-1.03.08-2.18-.53-3l-.53-.71Z" fill="url(#dvkkjbuch)"/><path d="M34.14 24.38c-.76-1.03-2.19-1.29-3.36-1.78l-.3-.15A2.91 2.91 0 0 1 31.9 17c1.6 0 2.9 1.3 2.9 2.91 0 1.04-.1 2.2.46 3.07.74 1.15 1.52 2.2 2.84 2.2l.3.01a2.9 2.9 0 0 1-.3 5.81 2.9 2.9 0 0 1-2.9-2.91c0-1.03.08-2.18-.53-3l-.53-.71Z" fill="url(#evkkjbuch)"/><defs><linearGradient id="avkkjbuch" x1="17" y1="34.68" x2="11.79" y2="37.63" gradientUnits="userSpaceOnUse"><stop offset=".08" stop-color="#D1DAF1"/><stop offset=".59" stop-color="#2378BF"/><stop offset="1" stop-color="#0565B2"/></linearGradient><linearGradient id="bvkkjbuch" x1="45" y1="18.68" x2="39.79" y2="21.63" gradientUnits="userSpaceOnUse"><stop offset=".08" stop-color="#D1DAF1"/><stop offset=".59" stop-color="#2378BF"/><stop offset="1" stop-color="#0565B2"/></linearGradient><linearGradient id="cvkkjbuch" x1="31.95" y1="23.94" x2="24.79" y2="29.42" gradientUnits="userSpaceOnUse"><stop stop-color="#F3F6FB"/><stop offset=".39" stop-color="#839ED3"/><stop offset=".73" stop-color="#086AB6"/><stop offset="1" stop-color="#0960A7"/></linearGradient><linearGradient id="dvkkjbuch" x1="23.54" y1="30.01" x2="19.51" y2="33.16" gradientUnits="userSpaceOnUse"><stop stop-color="#F3F6FB"/><stop offset=".39" stop-color="#839ED3"/><stop offset=".73" stop-color="#086AB6"/><stop offset="1" stop-color="#0960A7"/></linearGradient><linearGradient id="evkkjbuch" x1="37.54" y1="22.01" x2="33.51" y2="25.16" gradientUnits="userSpaceOnUse"><stop stop-color="#F3F6FB"/><stop offset=".39" stop-color="#839ED3"/><stop offset=".73" stop-color="#086AB6"/><stop offset="1" stop-color="#0960A7"/></linearGradient></defs></svg>