<!-- by TradingView --><svg xmlns="http://www.w3.org/2000/svg" width="56" height="56" viewBox="0 0 56 56"><path fill="#F0F3FA" d="M0 0h56v56H0z"/><circle cx="20.49" cy="15.15" fill="#00B7AE" r="1.94"/><circle cx="33.53" cy="20.22" fill="#006571" r="2.4"/><circle cx="30.11" cy="29.71" fill="#006571" r="1.94"/><ellipse cx="14.85" cy="25.75" rx="1.85" ry="1.84" fill="#006571"/><ellipse cx="24.1" cy="33.31" rx="1.85" ry="1.84" fill="#01B6AD"/><ellipse cx="17.53" cy="37.64" rx="2.31" ry="2.3" fill="#01B6AD"/><circle cx="22.25" cy="42.71" fill="#01B6AD" r="1.29"/><ellipse cx="30.76" cy="38.84" rx="1.85" ry="1.84" fill="#82C539"/><circle cx="25.67" cy="23.26" fill="#00B7AE" r="1.2"/><circle cx="28.91" cy="12.29" fill="#00B7AE" r="1.29"/><circle cx="36.77" cy="26.95" fill="#82C539" r="1.2"/><circle cx="43.8" cy="34.69" fill="#82C539" r="1.2"/><ellipse cx="38.99" cy="38.19" rx="2.31" ry="2.3" fill="#82C539"/><path d="m28.7 12.27-7.04 2.67-.12-.32 7.03-2.68.12.33ZM25.16 22.8l-4.35-6.36.29-.2 4.35 6.37-.3.2Z" fill="#01B7A8"/><path d="m30.6 28.27 2.4-6.18.32.13-2.4 6.17-.33-.12Z" fill="#006571"/><path d="m38.45 36.3-1.67-8.4.35-.07 1.66 8.4-.34.06ZM40.64 36.86l2.22-1.75.21.27-2.22 1.75-.21-.27Z" fill="#80C43F"/><path d="m32.23 38.48 4.71-.28.02.35-4.71.28-.02-.35Z" fill="#82C539"/><path d="m16 25.86 12.4 3.31-.1.34-12.39-3.32.1-.33Z" fill="#006571"/><path d="m19.1 36.39 3.51-2.3.2.29-3.52 2.3-.19-.3ZM19.04 39.09l2.69 2.76-.25.24-2.69-2.76.25-.24Z" fill="#01B6AD"/></svg>