<!-- by TradingView --><svg xmlns="http://www.w3.org/2000/svg" width="56" height="56" viewBox="0 0 56 56"><path fill="#F0F3FA" d="M0 0h56v56H0z"/><path d="M33.49 41.77l.71-1.27-3.1-5.5h-6.2l-3.1 5.5.71 1.27L26.65 46h2.7l4.14-4.23zM14.14 29h6.25l3.13 5.53-3.1 5.47-7.92-8.1 1.64-2.9zm18.36 5.53L35.63 29h6.24l1.63 2.88-7.93 8.1-3.07-5.45z" fill="#004C82"/><path d="M22.51 14.23l-.71 1.27 3.1 5.5h6.2l3.1-5.5-.71-1.26L29.35 10h-2.7l-4.14 4.23zM20.4 27h-6.26l-1.63-2.88L20.44 16l3.07 5.45L20.4 27zm21.47 0h-6.24l-3.14-5.55 3.07-5.43 7.93 8.12L41.87 27z" fill="#1D96D3"/><path d="M31.1 33l3.1-5-3.1-5h-6.2l-3.1 5 3.1 5h6.2z" fill="#55595B"/></svg>