<!-- by TradingView --><svg xmlns="http://www.w3.org/2000/svg" width="56" height="56" viewBox="0 0 56 56"><path fill="#056CEA" d="M0 0h56v56H0z"/><path d="M43 25.5H31.54C30.56 19.81 28.6 14 20.52 14c-2.2 0-4.86.45-7.52 1.5v2.64a19 19 0 0 1 7.52-1.64c6.1 0 7.68 3.9 8.61 9h-4.87c-8.3 0-11.26 4.37-11.26 8.11 0 4.45 3.5 7.39 8.21 7.39 3.05 0 5.61-1.2 7.48-3.54.79-1 1.42-2.15 1.87-3.5 1.03 3.9 3 6.99 7.92 6.99 1.72 0 3.04-.25 4.52-.85v-2.64a9.02 9.02 0 0 1-4.52 1.04c-4.82 0-5.66-3.72-6.55-10.1 0-.16-.04-.25-.04-.4H43v-2.5ZM27.16 35.9c-1.42 1.76-3.54 2.6-5.95 2.6-3.69 0-5.71-1.74-5.71-4.89 0-2.74 2.22-5.61 8.76-5.61h5.17c.14 3.14-.64 5.96-2.27 7.9Z" fill="#fff"/></svg>