<!-- by TradingView --><svg xmlns="http://www.w3.org/2000/svg" width="56" height="56"><path fill="#ABD47D" d="M0 0h56v56H0z"/><path d="M37 20.5a2.5 2.5 0 11-5 0 2.5 2.5 0 015 0zM19.6 32.7a2.3 2.3 0 11-4.6 0 2.3 2.3 0 014.6 0zM12.15 36a1.85 1.85 0 100-3.7 1.85 1.85 0 000 3.7zM10 32.07a1.25 1.25 0 11-2.5 0 1.25 1.25 0 012.5 0zM7.85 30a.85.85 0 100-1.7.85.85 0 000 1.7zM10 27.5a.5.5 0 11-1 0 .5.5 0 011 0zm18-.5a3 3 0 100-6 3 3 0 000 6zm-2.5 1.78a3 3 0 11-6 0 3 3 0 016 0zM38 27a2 2 0 100-4 2 2 0 000 4zm3.5 2.5a1.5 1.5 0 11-3 0 1.5 1.5 0 013 0zM42 34a1 1 0 100-2 1 1 0 000 2zm3.19.48a.75.75 0 11-1.5 0 .75.75 0 011.5 0zm1.31 1.02a.5.5 0 100-1 .5.5 0 000 1z" fill="#fff"/></svg>