<!-- by TradingView --><svg width="56" height="56" xmlns="http://www.w3.org/2000/svg"><path fill="gold" d="M0 0h56v56H0z"/><path d="M43.831 35.944c.108.135.297-.027.216-.161l-12.484-21.53-2.351-4.065A.42.42 0 0028.86 10a.322.322 0 00-.297.242l-3.405 11.304c-.54 1.776.81 3.552 2.648 3.552h3.405c1.973 0 3.865.862 5.162 2.342l7.458 8.504z" fill="#08090D"/><path d="M22.807 22.273l2.648-8.801c.055-.162-.162-.242-.243-.108l-15.16 26.133c-.108.188-.027.323.054.404.081.08.216.161.405.08l.055-.026 13.457-4.926a2.73 2.73 0 001.433-3.956l-2.027-3.445a6.862 6.862 0 01-.622-5.355z" fill="#08090D"/><path d="M45.642 41.973c.189 0 .297-.134.324-.215.027-.081.081-.216-.054-.377L35.778 29.835c-1.243-1.426-3.54-1.21-4.486.43l-1.918 3.338a6.944 6.944 0 01-3.567 2.987l-14.08 5.14c-.135.055-.108.27.054.27l33.86-.027z" fill="#08090D"/></svg>