<!-- by TradingView --><svg xmlns="http://www.w3.org/2000/svg" width="56" height="56"><path d="M0 28a28 28 0 1156 0 28 28 0 01-56 0z" fill="#F0F3FA"/><path d="M6.98 27.5L5.81 30H4.7l3.74-8h.4l3.74 8h-1.1l-1.17-2.5H6.98zm.47-1h2.4l-1.2-2.54-1.2 2.54zm7.96-.65L13.03 22h1.18L16 24.9l1.8-2.9h1.17l-2.38 3.85L19.16 30h-1.18L16 26.8 14.02 30h-1.18l2.57-4.15zm9.26-2.82a2.94 2.94 0 00-2.69-1.21c-.67.08-1.3.45-1.59 1.15-.27.7-.13 1.37.28 1.98a6.06 6.06 0 001.8 1.6c.69.51 1.1.99 1.23 1.42.13.41 0 .75-.27.98-.58.5-1.53.3-2.07-.17-.23-.2-.46-.5-.7-.97l-.83.53c.36.64.72 1.05 1.09 1.32.91.66 2.3.76 3.18 0 .54-.46.8-1.18.56-1.96-.27-.86-1.1-1.61-2.12-2.27a4.23 4.23 0 01-1.03-1c-.27-.4-.32-.76-.18-1.12.13-.31.4-.5.78-.54.58-.07 1.31.2 1.72.8l.84-.54z" fill="#2D2C32"/><path fill-rule="evenodd" d="M30 29c1.68 0 3-1.32 3-3s-1.32-3-3-3-3 1.32-3 3 1.32 3 3 3zm0 1a4 4 0 100-8 4 4 0 000 8z" fill="#2D2C32"/><path d="M40 27.88l-3.25-6.49-1.4 8.61h1.02l.88-5.4 2.7 5.4h.1l2.7-5.4.88 5.4h1.01l-1.4-8.6L40 27.87zM47 22h-1v8h5v-1h-4v-3h4v-1h-4v-2h4v-1h-4z" fill="#2D2C32"/><path d="M27.95 32.73h-.81V35h-.33v-2.27H26v-.27h1.95v.27zM30.26 35h-.33v-1.2h-1.27V35h-.34v-2.54h.34v1.08h1.27v-1.08h.33V35zm2.02-1.2h-1.1v.93h1.28V35h-1.6v-2.54h1.58v.27h-1.25v.8h1.09v.28zm1.52.15h-.6V35h-.33v-2.54h.83c.29 0 .5.06.66.19.15.13.23.32.23.56 0 .16-.04.3-.13.41-.08.12-.2.2-.35.26l.59 1.1V35h-.36l-.54-1.05zm-.6-.27h.51c.17 0 .3-.04.4-.13.1-.08.14-.2.14-.34 0-.15-.04-.27-.14-.36-.09-.08-.22-.12-.4-.12h-.5v.95zm3.25.63h-1.06l-.23.69h-.35l.97-2.54h.29l.96 2.54h-.34l-.24-.69zm-.96-.27h.86l-.43-1.18-.43 1.18zM37.7 34v1h-.33v-2.54h.93c.55 0 .89.3.89.76 0 .51-.41.78-.9.78h-.59zm0-.27h.6c.3 0 .55-.19.55-.5 0-.3-.2-.5-.53-.5h-.62v1zm3.34.07h-1.1v.93h1.27V35h-1.6v-2.54h1.58v.27h-1.25v.8h1.1v.28zm2.36-1.34v1.7a.8.8 0 01-.22.58.9.9 0 01-.6.26h-.1a.95.95 0 01-.65-.22.8.8 0 01-.25-.61v-1.71h.33v1.7c0 .18.05.32.15.42.1.1.24.15.43.15.18 0 .33-.05.43-.15.1-.1.15-.24.15-.42v-1.7h.33zm2.27.27h-.81V35h-.33v-2.27h-.81v-.27h1.95v.27zM46.4 35h-.33v-2.54h.33V35zm2.47-.83a.92.92 0 01-.3.61.97.97 0 01-.66.22.9.9 0 01-.72-.32c-.18-.21-.27-.5-.27-.85v-.24c0-.24.05-.44.13-.62a.93.93 0 01.89-.55c.27 0 .48.08.64.23.16.14.26.35.29.61h-.34c-.03-.2-.09-.34-.19-.43a.57.57 0 00-.4-.14.6.6 0 00-.5.24c-.12.15-.18.38-.18.67v.24c0 .27.06.49.17.65.11.16.27.24.48.24.18 0 .33-.04.42-.12.1-.09.17-.23.2-.44h.34zm1.19-.32c-.28-.08-.49-.18-.62-.3a.58.58 0 01-.2-.44c0-.2.09-.37.24-.5.16-.12.37-.19.62-.19.18 0 .33.03.47.1.13.07.24.16.31.28a.7.7 0 01.11.38h-.33a.45.45 0 00-.15-.36.6.6 0 00-.4-.13.6.6 0 00-.39.11.36.36 0 00-.14.3c0 .1.05.19.13.26.1.07.24.14.45.2.2.05.37.12.49.19s.2.15.26.25c.06.09.09.2.09.33 0 .2-.08.36-.24.49-.16.12-.37.18-.64.18a1.2 1.2 0 01-.48-.1.83.83 0 01-.35-.27.66.66 0 01-.12-.4h.33c0 .16.06.28.17.37.11.09.26.13.45.13.18 0 .31-.04.4-.1.1-.08.15-.18.15-.3a.34.34 0 00-.13-.28 1.48 1.48 0 00-.48-.2z" fill="#479AAC"/></svg>