<!-- by TradingView --><svg width="56" height="56" xmlns="http://www.w3.org/2000/svg"><path fill="#005F71" d="M0 0h56v56H0z"/><path d="M17.308 24.236s.025.071.028.074l.664-.092v7.573l-.13.018c-.074.01-.222.028-.334.04-.176.02-.2.032-.21.09l-.009.071h2.332v-.074c0-.068-.016-.074-.238-.093a5.054 5.054 0 01-.325-.04L19 31.785v-7.963l-1.692.414zM8.282 24.614c-.007.019.21.701.482 1.513 1.331 3.979 1.767 5.295 1.767 5.326 0 .018-.105.146-.235.287l-.235.257h2.593c-.025-.027-.275-.3-.488-.535a11.709 11.709 0 01-.411-.469c-.022-.033-.862-2.497-1.873-5.476a57.166 57.166 0 00-.485-1.398l-1.115.495zM13.993 25.874v.794h-.803v.154h.801L14 29.019c.009 2.142.012 2.176.077 2.373.17.498.457.73.989.788l.185.022 1.448-.936c0-.01-.018-.04-.037-.068-.037-.05-.059-.044-.287.052-.37.163-.86.28-1.184-.021C15 31.046 15 31.04 15 28.837v-2.015h1v-.155h-1V25.16l-1.007.714zM33 25.868v.8h-.804v.154H33v2.15c0 2.294.003 2.34.167 2.661.056.11.312.524.75.566 0 0 1.364-.864 1.364-.946-.003-.102-.053-.105-.275-.012-.502.21-.708.202-.997-.232L34 28.93v-2.107h1.158v-.154H34V25.15l-1 .717zM22.273 26.668l-1.05.35-.01.53-.006.532h1.038l.167-.686.17-.683.108-.046c.151-.065.615-.087.794-.034.09.025.191.087.275.164.207.2.25.33.24 1.177v.708l-.707.21c-.373.114-.936.29-1.251.386-.54.167-.58.185-.726.321-.303.284-.448.637-.448 1.079.003.781.5 1.291 1.35 1.375l.216.021.77-.516c.423-.28.782-.516.797-.519.015-.003.087.198.154.448.072.247.136.46.146.473.012.01.048-.062.542-.16.875-.174.9-.18.9-.251 0-.068-.01-.071-.115-.056-.238.034-.473.056-.473.044 0-.01-.03-.124-.068-.26-.065-.232-.068-.327-.086-2.005v-1.956c0-.52-.645-.965-1.244-.98l-.433-.012-1.05.346zM24 30.858l-.232.154c-.544.384-1.01.396-1.285.037-.152-.194-.204-.413-.189-.787.01-.279.022-.34.108-.516.177-.353.297-.442.961-.699.319-.12.637-.225.637-.225v2.036zM28 27.703v-1.205l-1.71.494.015.08.695-.098v4.81l-.114.02c-.065.012-.22.027-.34.04-.16.014-.226.01-.226.166h2.205c0-.033-.002-.065-.03-.094-.036-.035-.11-.066-.27-.091L28 31.788v-3.903c.28-.167.708-.636.997-.636.373 0 .803.041.993.39l.019 4.152-.102.018-.241.04c-.118.02-.143.054-.158.161h2.24c-.026-.186-.202-.16-.371-.179a3.321 3.321 0 01-.365-.046C31.009 31.779 31 29.75 31 29.75c0-1.112.015-2.132 0-2.264-.075-.637-.482-.992-1.125-1.03l-.247-.012C28.8 26.862 28 27.703 28 27.703zM42.097 26.527c-.977.28-1.675.8-2.064 1.531-.538 1.014-.436 2.311.25 3.12.405.476 1.06.792 1.768.852l.247.021.29-.156c.328-.178.68-.4.912-.578.364-.283.695-.58.695-.632 0-.07-.025-.07-.14.01-.181.12-.515.27-.7.315a3.393 3.393 0 01-.937.066c-.717-.066-1.263-.424-1.538-.974-.34-.682-.14-1.707.02-2.278.206-.736.68-1.078 1.256-1.123a.87.87 0 01.352.024l.117.04.201.661c.111.365.216.68.235.702l.939.006v-1.099l-.176-.108c-.476-.295-.887-.479-1.267-.476-.12 0-.306.03-.46.076zM47.153 26.798L46 27.147v1.063l1.122-.016.17-.68.17-.68.167-.055c.173-.056.507-.074.67-.034.282.068.611.269.67.547.018.096.028.439.025.837l-.01.674-.873.232c-.408.126-.98.305-1.27.398l-.528.167-.177.185a1.601 1.601 0 00-.271.393c-.084.185-.1.25-.112.55-.009.29-.003.368.056.537.18.538.624.85 1.295.918l.213.019.782-.529c.43-.29.9-.534.9-.534s-.026.253.039.5c.065.248.123.455.13.46.003.007.417-.07.92-.17.884-.175.657-.218.657-.287 0-.067-.01-.07-.115-.055-.065.01-.198.025-.293.037l-.176.018a2.125 2.125 0 01-.161-.377v-1.869c-.013-1.02.018-1.82 0-1.9-.188-.804-.523-1.008-1.364-1.035l-.432-.013-1.05.35zM49 29.968v1.016l-.145.105c-.38.272-.827.39-1.08.353-.545-.084-.807-.952-.486-1.592.17-.333.287-.417.93-.67.315-.12.76-.223.78-.226v1.014zM37.247 26.705c-.52.12-.949.222-.955.226-.006.006-.003.043.01.083l.018.074.269-.056c.15-.03.302-.055.343-.058h.067v4.817l-.13.018c-.073.01-.222.028-.333.04-.176.02-.2.032-.21.09l-.01.071h2.376l-.01-.07c-.009-.063-.033-.072-.33-.106a3.212 3.212 0 01-.33-.05c-.01-.005-.016-1.198-.022-2.65-.007-2.614 0-2.645 0-2.645-.034 0-.234.095-.753.216zM7.225 29.198H9.35c-.012-.03-.05-.185-.05-.185H7.296l-.071.185z" fill="#fff"/><path d="M6.499 30.65l1.297 1.414H5.201l1.298-1.413z" fill="#70D549"/></svg>