<!-- by TradingView --><svg width="56" height="56" viewBox="0 0 56 56" xmlns="http://www.w3.org/2000/svg"><path fill="#F0F3FA" d="M0 0h56v56H0z"/><path d="M19.58 13c.09.11.16.19.22.22 3.07 2 5.8 4.42 8.18 7.23l-.01.04a34.4 34.4 0 0 0-6.46 11.3l-.05.05a58.91 58.91 0 0 1-9.68-3.47c-.25-.12-.41-.32-.78-.35A424.4 424.4 0 0 1 19.58 13Z" fill="#27B9C1"/><path d="M19.58 13.02H36.3c-.06.1-.14.31-.24.38a45.24 45.24 0 0 0-8.08 7.05 37.6 37.6 0 0 0-8.18-7.23.9.9 0 0 1-.22-.2Z" fill="#316399"/><path d="M36.3 13.02c.13-.01.22.14.27.22 1.42 2.43 4.19 7.25 8.3 14.45.2.34.17.64-.1.9-.17-.08-.35-.07-.56.02a56.96 56.96 0 0 1-9.52 3.16c-.07.02-.15.1-.2.16l-.05-.15a34.65 34.65 0 0 0-6.47-11.29l.02-.04a45.24 45.24 0 0 1 8.07-7.05c.1-.07.18-.28.25-.38Z" fill="#EC6F24"/><path d="M11 28.02c.37.03.53.23.78.35a58.91 58.91 0 0 0 9.68 3.47 35.8 35.8 0 0 0-2.16 10.89L11 28.02Z" fill="#008E97"/><path d="m44.77 28.58-8.1 13.96-.16.04c-.06.02-.1 0-.1-.07a38.32 38.32 0 0 0-1.92-10.58c.05-.06.13-.14.2-.16a56.97 56.97 0 0 0 9.52-3.16c.2-.1.4-.1.56-.03Z" fill="#E84728"/><path d="m34.5 31.93-.06-.15a.6.6 0 0 1-.27.1 34.3 34.3 0 0 1-12.66-.09l-.05.05a35.8 35.8 0 0 0-2.16 10.89c-.01.18.09.27.3.27h5.46l11.27-.04c.07 0 .11-.03.15-.09l.18-.33-.15.04c-.06.02-.1 0-.1-.07a38.31 38.31 0 0 0-1.92-10.58Z" fill="url(#asdjsgtdt)"/><defs><linearGradient id="asdjsgtdt" x1="33.71" y1="36.54" x2="21.52" y2="37.38" gradientUnits="userSpaceOnUse"><stop stop-color="#9BAE3C"/><stop offset="1" stop-color="#AEBB37"/></linearGradient></defs></svg>