<!-- by TradingView --><svg width="56" height="56" viewBox="0 0 56 56" xmlns="http://www.w3.org/2000/svg"><path fill="#F0F3FA" d="M0 0h56v56H0z"/><path d="M39 23h-6v1.71h3.41L33 33h6v-1.61h-3.44L39 23Z" fill="#292929"/><path d="M21.23 12.5c-.17.85-.43.6-.54.35-.18 0-.57.08-.64.38-.06.22-.14.26-.28.33-.1.05-.21.11-.37.25s-.15.18-.14.22c0 .07.03.16-.54.67-.74.67-1.58 1.18-1.91 1.35-.8.77-2.75 2.91-4.03 5.3-1.29 2.39-1.72 5.82-1.77 7.23-.12 2.9 1.2 6.28 1.42 6.72.2.45 2.21 4.18 4.94 6.19 2.73 2 6.83 3.29 7.76 3.4.93.12 3.29.26 6.4-.28 2.5-.43 3.7-1.03 4-1.28h-.85c.38-.2.94-.5 1.17-.6l.54.18.81-.19c.21.06.6.12.47-.16a.9.9 0 0 1 0-.7c.14-.06.46-.23.65-.37.19-.15.17.26.14.49.34-.08.75-.63.9-.9.53-.3.7-.71.73-.88l-1.37.89-.89.4.63-.68.26-.6c.53-.43 1.95-1.8 3.33-3.97a15.5 15.5 0 0 0 1.88-4.6c.12-.44.18-.68.24-.63.19.16-.05 1.56-.19 1.87-.1.24.17.67.33.86l.23-1.17c.19-.82.34-2.2.4-2.8.04-.78.11-2.63 0-3.82-.11-1.2-.47-2.46-.63-2.94l-.63-.2-.67-1.26.22-.24c.1-.27-.43-.73-.7-.93v-.56c-.08-.3-.5-.43-.69-.46l-.54-.65-.32-.9c-.1.1-.33.21-.49 0-.12-.15-.04-.25.06-.38a.67.67 0 0 0 .14-.27c.05-.21-.38-.2-.72-.18h-.31c-.2-.02-.72-.68-.95-1l-.26-.47a5.04 5.04 0 0 1-.8-.97c-.46-.19-.48-.48-.43-.6l-.32-.15c-.48.02-.55-.28-.52-.43-.99-.79-3.27-1.6-4.28-1.9-.14.08-.57.2-1.24 0-.83-.26-2.82-.72-5.52-.26a13.43 13.43 0 0 0-4.11 1.3Zm21.26 15.8c0 8.52-6.78 15.43-15.14 15.43s-15.13-6.9-15.13-15.43c0-8.52 6.77-15.42 15.13-15.42 8.36 0 15.14 6.9 15.14 15.42ZM28.11 12.46a15.82 15.82 0 0 1 13.85 8.76 15.34 15.34 0 0 1-.26 14.24 16.25 16.25 0 0 0-.33-14.24c-3.9-7.43-10.84-8.43-13.26-8.76ZM13.67 36.83c-.79-1.15-2.4-4.4-2.47-8.17-.1-4.71 2.64-9.23 3.74-10.1-.92 1.28-2.81 4.74-2.97 8.33 0 .62-.07 1.91-.37 2.07-.06.99.28 3.93 2.07 7.87Z" fill="#757575"/><path d="m16 33 3.93-10.58L24 33h-1.8l-.56-1.53h-3.36L17.74 33H16Zm2.8-3h2.3l-1.17-3.23L18.8 30ZM28.24 23c-2.61-.02-3.13 1.87-3.06 2.82h1.58c.1-.93.88-1.16 1.25-1.16 1.45.12 1.1 1.54.73 1.88L25 31.4V33h6v-1.61h-3.9c1.72-2.63 3.87-3.98 3.77-6.08-.08-1.67-1.79-2.24-2.63-2.31Z" fill="#292929"/></svg>