<!-- by TradingView --><svg width="56" height="56" xmlns="http://www.w3.org/2000/svg"><path fill="#F0F3FA" d="M0 0h56v56H0z"/><path d="M29 13H13v5c8.786-.236 17.398 1.164 20.572 2 1.258-3.502-2.673-6.089-4.572-7z" fill="url(#paint0_linear)"/><path d="M32 22c-3.53-1.414-14.023-2.826-19-3v8c10.18-.514 16.794-3.34 19-5z" fill="url(#paint1_linear)"/><path d="M39.382 13H32c6.019 2.88 6.134 7.235 5.44 9.052C40.547 24.137 42.447 27.04 43 28c.012-2.434.028-8.465 0-11.263-.028-2.797-2.428-3.657-3.618-3.737z" fill="url(#paint2_linear)"/><path d="M36 24c-5.653 4.795-17.654 6.807-22.996 7v9c4.094.619 16.566-1.38 21.625-6.447C38.676 29.501 37.197 25.341 36 24z" fill="url(#paint3_linear)"/><path d="M43 41.365V33c-3.367 7.054-14.044 10.943-19 12h15.108C42.322 45 43 42.689 43 41.365z" fill="url(#paint4_linear)"/><defs><linearGradient id="paint0_linear" x1="33.813" y1="16.581" x2="13.042" y2="15.555" gradientUnits="userSpaceOnUse"><stop stop-color="#0181CA"/><stop offset="1" stop-color="#005CAC"/></linearGradient><linearGradient id="paint1_linear" x1="32.401" y1="21.397" x2="13.052" y2="22.953" gradientUnits="userSpaceOnUse"><stop stop-color="#0581C4"/><stop offset="1" stop-color="#005DAC"/></linearGradient><linearGradient id="paint2_linear" x1="32.878" y1="13" x2="42.762" y2="21.228" gradientUnits="userSpaceOnUse"><stop stop-color="#0181C9"/><stop offset="1" stop-color="#0495DA"/></linearGradient><linearGradient id="paint3_linear" x1="37.329" y1="27.327" x2="12.997" y2="35.821" gradientUnits="userSpaceOnUse"><stop stop-color="#048BD5"/><stop offset="1" stop-color="#005AA8"/></linearGradient><linearGradient id="paint4_linear" x1="23.855" y1="45" x2="42.939" y2="40.051" gradientUnits="userSpaceOnUse"><stop stop-color="#0174C9"/><stop offset="1" stop-color="#0093D6"/></linearGradient></defs></svg>