<!-- by TradingView --><svg width="56" height="56" viewBox="0 0 56 56" fill="none" xmlns="http://www.w3.org/2000/svg">
<rect width="56" height="56" fill="#F0F3FA"/>
<path d="M45.5424 22H46.5011C47.2352 22.0429 47.9636 22.1297 48.6861 22.2604C49.0512 22.3264 49.3642 22.3664 49.7069 22.4056C49.9232 22.4304 49.9953 22.4625 49.982 22.7035C49.9372 23.5073 49.8947 24.3112 49.8544 25.1152C49.8505 25.1941 49.8026 25.2668 49.7106 25.333C49.7001 25.3407 49.691 25.3392 49.6835 25.3285C49.6214 25.2369 49.5697 25.1754 49.5706 25.0562C49.5764 24.1061 49.1526 23.4494 48.2993 23.086C46.87 22.4774 45.3048 22.4724 43.8238 22.8789C42.6917 23.1895 41.8714 23.8794 41.4188 24.9716C40.4872 27.2183 40.7748 29.5982 42.3608 31.4805C43.7092 33.081 45.9213 33.5349 47.9224 33.152C49.037 32.9387 49.5772 32.2298 49.751 31.1578C49.7661 31.065 49.8265 30.9883 49.9265 31.0435C49.9393 31.0507 49.9481 31.0609 49.9528 31.0741L49.9999 31.2036V31.3893C49.8993 31.9681 49.8005 32.5476 49.7035 33.128C49.6364 33.5303 49.3588 33.6566 48.9658 33.7536C48.0241 33.9863 47.0892 34.0077 46.1234 33.9982C44.6658 33.9842 43.297 33.6855 42.069 32.8891C40.7985 32.0652 39.9882 30.8731 39.6706 29.3774C39.275 27.5133 39.6148 25.6739 40.7785 24.148C41.9423 22.6218 43.6813 22.0957 45.5424 22Z" fill="#004E8A"/>
<path d="M23.4121 25.1075C22.1127 27.8958 20.8078 30.6864 19.4973 33.4795C19.4125 33.6603 19.3033 33.8169 19.1696 33.9495C19.1608 33.9584 19.1514 33.9589 19.1417 33.9507C18.9944 33.8271 18.8934 33.7104 18.8387 33.6006C17.8704 31.6546 16.2957 28.4643 14.8076 25.2185C14.8057 25.2143 14.8024 25.2109 14.7984 25.2088C14.7944 25.2067 14.7898 25.2059 14.7853 25.2067C14.7808 25.2074 14.7767 25.2097 14.7735 25.213C14.7704 25.2164 14.7685 25.2206 14.768 25.2252C14.748 25.4079 14.7297 25.5949 14.713 25.786C14.5307 27.8806 14.3537 29.9757 14.1819 32.0712C14.1557 32.3873 14.1478 32.695 14.1398 33.0066C14.1311 33.3668 14.1736 33.6136 14.5525 33.6859C14.7522 33.7237 15.0681 33.7254 15.2152 33.8683C15.2264 33.879 15.2257 33.8889 15.2132 33.8982L15.114 33.973C15.102 33.982 15.0885 34 15.0735 34H13.5655L12.2254 33.9999C12.1617 34.0019 12.0792 33.9645 11.9778 33.8877C11.9661 33.879 11.9664 33.8704 11.9786 33.862C12.0445 33.8162 12.1062 33.7767 12.1916 33.7729C13.1036 33.7321 13.0807 33.2121 13.1636 32.4714C13.548 29.0534 13.9256 25.6345 14.2966 22.2148C14.2996 22.1888 14.3242 22.1427 14.3703 22.0765C14.5942 21.757 14.9201 22.639 14.9989 22.8029C16.3038 25.5085 17.6077 28.2146 18.9104 30.921C19.0766 31.266 19.2449 31.61 19.4156 31.9531C19.4245 31.971 19.4339 31.9713 19.4439 31.9539C19.487 31.8785 19.5339 31.786 19.5848 31.6765C21.0506 28.5157 22.5158 25.3545 23.9802 22.193C24.008 22.1333 24.0831 22.0706 24.2057 22.005C24.2163 21.9994 24.2257 22.0011 24.234 22.0101C24.4162 22.2068 24.3924 22.4179 24.4204 22.668C24.7674 25.7985 25.1106 28.9295 25.4499 32.0611C25.5487 32.9712 25.7383 33.6443 26.7783 33.7221C27.1162 33.7473 27.4539 33.7481 27.7912 33.7246C28.3985 33.6817 28.7057 33.3857 28.93 32.8359C29.1359 32.3317 29.3867 31.672 29.6823 30.8567C31.2763 26.467 32.3073 23.6223 32.7756 22.3224C32.8222 22.1932 32.8926 22.0893 32.9865 22.0105C32.9984 22.0007 33.0119 21.9978 33.0269 22.0017C33.2462 22.0584 33.3979 22.6154 33.4754 22.8177C34.6772 25.9453 35.8812 29.0723 37.0872 32.1986C37.1664 32.4037 37.3073 32.6681 37.5098 32.9918C37.8337 33.5089 38.2622 33.7788 38.8916 33.7628C38.9714 33.7609 39.028 33.7925 39.0617 33.8578C39.0678 33.8696 39.0676 33.8814 39.0612 33.8931C39.0232 33.961 38.9727 34.0008 38.9099 34H36.0284C35.9918 33.9994 35.9386 33.9359 35.8688 33.9079C35.8569 33.9028 35.8521 33.894 35.8546 33.8814C35.8669 33.8208 35.8913 33.7809 35.928 33.7616C36.1406 33.6489 36.1193 33.4845 36.041 33.276C35.5736 32.0311 35.1067 30.7859 34.6404 29.5405C34.6017 29.4371 34.5083 29.4068 34.3987 29.4059C32.7928 29.3961 31.7443 29.3984 31.2533 29.4127C31.1637 29.4152 31.0512 29.5098 31.0182 29.6077C30.6464 30.7153 30.283 31.8257 29.9278 32.9389C29.8078 33.3151 29.9299 33.733 30.3788 33.7561C30.5325 33.7639 30.6559 33.7914 30.749 33.8385C30.7665 33.8475 30.7691 33.8595 30.7569 33.8747C30.6523 34.0041 30.5585 34 30.3713 34H24.9735C24.8263 33.9975 24.0952 33.9163 24.0615 33.762C24.0584 33.7477 24.0612 33.7347 24.0698 33.7229C24.1862 33.5615 24.2364 33.3899 24.2203 33.2083C24.0266 31.0428 23.8285 28.8778 23.6259 26.7134C23.5767 26.1868 23.5164 25.6532 23.445 25.1125C23.4446 25.1088 23.443 25.1053 23.4404 25.1025C23.4379 25.0998 23.4345 25.098 23.4307 25.0975C23.427 25.0969 23.4232 25.0976 23.4198 25.0994C23.4164 25.1012 23.4137 25.104 23.4121 25.1075ZM32.7235 24.3651L31.2946 28.7846C31.2879 28.8051 31.2953 28.8153 31.3167 28.8153H34.3574L34.3625 28.814L34.3665 28.8104L34.3684 28.8055L34.3678 28.8002L32.8185 24.3638C32.8151 24.3538 32.8086 24.3451 32.8 24.339C32.7914 24.3328 32.7811 24.3296 32.7705 24.3298C32.76 24.3299 32.7498 24.3334 32.7413 24.3397C32.7329 24.3461 32.7266 24.355 32.7235 24.3651Z" fill="#004E8A"/>
<path d="M6.94981 22.8248C6.89646 22.4058 6.62837 22.2711 6.26365 22.2596C6.17695 22.257 6.09136 22.2131 6.00688 22.1279C5.99799 22.119 5.99771 22.1099 6.00605 22.1005C6.06524 22.0366 6.11595 22.0047 6.15819 22.0047C7.18997 22.0058 8.22174 22.0043 9.25351 22C9.36481 21.9996 9.44234 22.0428 9.53279 22.0975C9.54473 22.1049 9.54598 22.1137 9.53654 22.124C9.47485 22.1916 9.42663 22.2272 9.3919 22.2309C8.81043 22.2903 8.4974 22.4327 8.4899 23.1028C8.46044 25.6504 8.44835 28.1981 8.45363 30.746C8.45488 31.4631 8.49156 32.3041 8.53158 32.8917C8.55617 33.2521 8.68955 33.6605 9.12722 33.6981C9.3623 33.7182 9.71452 33.7067 9.91334 33.8426C9.93057 33.8546 9.93085 33.8669 9.91418 33.8794L9.77121 33.9889C9.76148 33.9966 9.73828 34 9.73828 34L6.27532 34C6.1864 34.0003 6.1072 33.9595 6.03773 33.8914C6.02689 33.8808 6.02759 33.8711 6.03981 33.8623C6.34576 33.6408 6.71847 33.826 6.84519 33.3547C6.9694 32.8925 6.99524 32.3131 6.99983 31.7504L7 24.5993C7.00042 23.9575 7.02025 23.382 6.94981 22.8248Z" fill="#004E8A"/>
</svg>
