<!-- by TradingView --><svg width="56" height="56" viewBox="0 0 56 56" xmlns="http://www.w3.org/2000/svg"><path fill="#F0F3FA" d="M0 0h56v56H0z"/><path d="M13 17h4.75c1.75 0 3.35 1 3.35 3.02 0 1.56-.61 2.36-1.49 2.77 1.32.43 2.39 1.26 2.39 2.9C22 28 19.95 29 17.95 29H13V17Zm4.33 5c1.32 0 2.28-.33 2.28-1.83 0-1.18-.6-1.79-2.19-1.79H14.5V22h2.83Zm.66 5.5c1.68 0 2.66-.52 2.66-1.86 0-1.65-1.55-2.14-2.89-2.14H14.5v4h3.49ZM27.93 17h1.14L34 29h-1.5l-1.27-3h-5.45l-1.28 3H23l4.93-12Zm2.7 7.5-2.15-5.1-2.15 5.1h4.3Zm7.37-.25L33 17h1.6l4.17 6 4.1-6h1.63l-5 7.23V29H38v-4.75Z" fill="#F6851F"/><path d="M13 31h6v1.5h-4.5v2H18V36h-3.5v3H13v-8Zm7 0h1.5v8H20v-8Zm3 0h3.68c1.56 0 3.06.83 3.06 2.55 0 1.31-.81 2.1-1.97 2.42L30 39h-1.7l-2.06-3H24.5v3H23v-8Zm3.3 3.58c.85 0 1.7-.01 1.7-.95 0-.86-.64-1.13-1.7-1.13h-1.8v2.08h1.8Zm4.7 3.18.82-.98c.74.64 1.48.7 2.45.7.62 0 1.18-.19 1.18-.7 0-.55-.12-.85-1.56-1.18-1.3-.31-2.89-.81-2.89-2.34 0-1.34 1.42-2.26 2.96-2.26 1.12 0 2.02.34 2.8.98L36.05 33c-.7-.52-1.4-.58-2.1-.58-.58 0-1.27.06-1.27.73 0 .6.36.86 1.84 1.22 1.23.3 2.49.85 2.49 2.3 0 1.45-1.14 2.32-2.77 2.32-1.18 0-2.3-.41-3.23-1.24Zm9-5.26h-2.5V31H44v1.5h-2.5V39H40v-6.5Z" fill="#00461C"/></svg>