<!-- by TradingView --><svg xmlns="http://www.w3.org/2000/svg" width="56" height="56"><path fill="#00BEF0" d="M0 0h56v56H0z"/><path d="M37.37 20.07c-1.15-.24-1.29.35-.82 1.41 2.6 5.61.28 11.08-2.2 12.44a2.46 2.46 0 01-.07-.55c-.3-2.66-1.33-4.97-2.03-4.97-.56 0-.21 2.27-.36 4.28-.92-.53-1.48-.9-2.47-.74-1.4.24-3.3 3.15-3.35 2.73-.56-3.36.78-8.53 2.64-9.09.29-.1.82.32 1.93.73.88.33.77-.53.37-.85a4.37 4.37 0 00-4.49-.3c-2.8 1.32-4.06 7.38-2.56 9.85a3.9 3.9 0 002.8 1.9c1.89.2 2.48-.18 3.97-1.99.2.17.45.28.71.34-1.23 3.73-5.85 6.88-6.84 6.34-4.84-3.2-3.5-13.44-.09-22.42a49.7 49.7 0 001.65-5c.51-2.4-2.63-2.9-4.79-1.11-1.57 1.3-3.08 4.27-4.3 7.77-3.91 11.14-2.25 20.52 4.74 22.56 8.05 2.34 11.89-2.55 12.48-7.46.5.06.99.09 1.48.07 2.47-.04 6.03-1.3 7.09-6.6.8-4-1.85-8.64-5.5-9.34z" fill="#fff"/></svg>