<!-- by TradingView --><svg width="56" height="56" xmlns="http://www.w3.org/2000/svg"><path fill="#002D62" d="M0 0h56v56H0z"/><path d="M12.76 26c-.064 0-.26.083-.26.229 0 .285.372.113.494.24.08.083.129.287.073.535-.073.322-1.305 5.02-1.413 5.325-.108.306-.329.341-.488.341-.155 0-.33.236-.142.33.046.02 4.088.016 4.212-.006.684-.11 1.421-.268 1.926-.886.55-.673.76-1.667.38-2.194-.192-.268-1.002-.668-1.002-.668s.728-.217 1.056-.546c.406-.408.57-1.026.569-1.36 0-1.035-1.35-1.34-2.183-1.34H12.76zm3.007.82a.845.845 0 01.379.671c0 .222 0 .606-.229.835-.126.173-.873.688-1.08.688-.156 0-.079-.177-.056-.26.13-.476.254-.944.37-1.428.08-.333.139-.814.616-.507zm-.734 2.91c.463.062.697.538.712.948.05 1.402-1.595 1.651-1.803 1.677-.036 0-.178-.033-.145-.1.177-.384.41-1.328.41-1.328s.246-1.142.381-1.212c.135-.07.307-.005.445.014zM33.537 26c-.062 0-.116.107-.062.198.003.008.452.123.456.123.198 0 .35.214.341.395 0 .248-.633 2.533-.633 2.533s-.844 2.498-1.187 3.317a.753.753 0 01-.55.213c-.163 0-.213.019-.236.09-.017.057.014.088.046.131h1.37c1.356 0 1.368 0 1.403-.032a.104.104 0 00-.001-.154c-.081-.077-.215-.003-.308-.05-.131-.072-.255-.138-.286-.297-.167-.767.859-2.974.859-2.974.546 0 1.095-.017 1.638.057.215.033.282.34.282.505 0 .164.002.177.038.21.063.058.12.041.17-.054l.534-1.949c0-.128-.172-.18-.24-.07-.39.655-.834.796-1.616.793h-.72l.256-1.24c.121-.487.398-1.12.398-1.12.013-.015.222-.02.953-.02.524 0 .94.006.944.014.278 0 .46.118.585.468.04.102.087.244.087.355 0 .104.018.126.096.126.087 0 .122-.107.13-.182.026-.243.18-1.335.18-1.335L38.412 26h-1.817c-.724 0-1.448-.003-2.171 0h-.887zM38.914 26.293c-.324.288-.342.99.21.99.296 0 .528-.317.528-.599a.537.537 0 00-.087-.252c-.143-.204-.439-.322-.651-.14zM47.637 26.525c-.22.122-.342.572-.507.787a3.048 3.048 0 01-1.117.922.444.444 0 00-.191.205c-.094.262.6.169.741.186.083 0-.866 2.096-.866 3.477 0 .287-.043.859.363.898.439.042.82-.081 1.231-.598.054-.068.218-.318.248-.466.01-.058-.082-.158-.139-.123-.22.123-.572.815-.901.521-.564-.47.629-2.967.816-3.693.016-.013.105-.017.306-.016.41.002.529-.426.151-.426-.298 0-.309-.005-.258-.117.176-.406.316-.91.381-1.346.025-.172-.08-.307-.258-.211zM23.654 28.682c-.047.043-.052.055-.052.137 0 .174.254.125.385.133.066.096.059.137.047.244 0 0-.432 2.044-1 3.804l.783.003c.43.003.79 0 .798-.005.008-.004.341-1.285.44-1.589.1-.304.526-1.038.816-1.37.139-.159.265-.291.414-.44.091-.092.347-.311.45-.197.08.093-.11.637-.158.789 0 0-.518 1.616-.554 2.129-.097 1.292 2.107.57 2.474-.164.07-.128.232-.482-.044-.482-.157 0-.432.494-.681.524-.047.047.328-1.225.348-1.348.112-.668.453-1.26.453-1.97a.746.746 0 00-.765-.757c-1.066 0-2.236 1.531-2.236 1.531-.014 0 .118-1.198.318-1.318.024-.014.02-.153-.006-.186-.22-.26-2.055.364-2.23.532zM17.864 31.334c.023 1.048.344 1.367.996 1.473.884.145 1.573-.75 1.636-.88 0 0 .043.36.048.37.17 1.305 1.94.266 2.463-.279.063 0 .106-.348.05-.41-.173-.192-.773.69-.729.191.095-1.207.863-2.345.979-3.598.014-.154-1.547-.364-1.687-.084-.01.018-.075.161-.09.161-.143 0-.325-.32-.508-.368-1.597-.406-3.189 2.083-3.158 3.424zm3.328-2.625c.56.248-.438 1.96-.574 2.232-.094.195-.662.882-.927.754-.268-.134-.125-.743-.022-.977.258-.58.473-1.122.813-1.64.173-.257.401-.462.71-.37z" fill="#fff"/><path d="M30.475 28.474a3.12 3.12 0 00-1.745 2.328c-.098.585-.175 1.112.153 1.512 1.066 1.301 2.62.6 3.326-.314.123-.15.266-.392.322-.58.034-.097-.05-.226-.159-.167-.114.066-.214.224-.295.329-.194.247-.585.468-.7.468-1.27.102-1.076-1.296-.902-2.164.098-.49.703-1.247 1.177-1.174.132.02-.065.555-.07.684-.01.21.199.418.492.418.578 0 1.039-.126 1.068-.794.023-.72-.492-.737-.868-.798-.396-.007-1.158-.052-1.799.252zM37.676 28.417c-.033.031-.06.066-.06.076 0 .044.158.091.182.053.05-.099.396.061.363.212-.032.183-.111.435-.152.579-.169.58-.519 2.184-.519 2.184S36.923 33 37.89 33c.512 0 .82-.443 1.076-.82.04-.061.223-.427.03-.427-.111 0-.796.903-.796.409.236-.832.815-3.395.815-3.395.056-.156.265-.578.156-.694a.323.323 0 00-.125-.079c-.302 0-1.165.225-1.37.423zM41.91 28.223c-.085.084-1.027 1.169-1.031 1.165-.037-.028.258-.874.268-.933.018-.108.16-.382-.066-.382-.457 0-.836.336-1.287.418-.146.026-.217.108-.167.245.2 0 .546-.067.524.227-.025.271-.128.505-.16.767l-.77 3.204c-.053.058-.012.066.384.066h.374s.359-2.02.777-2.855c.068-.144 1.106-1.308 1.106-1.078 0 .525.837.376.85-.143.017-.654-.553-.95-.803-.701zM43.304 28.466c-.205.18-.287.362-.386.6-.329.787.7 1.814 1.193 2.307.469.469.098 1.294-.568 1.294-.52 0-.854-.512-.862-.98-.005-.363-.1-.527-.226-.395-.082.088-.438 1.138-.282 1.138.223 0 .48.405.691.521.265.153.877.151 1.129.049.599-.252.991-.528 1.09-1.195.046-.262.013-.713-.207-.913-.367-.335-1.46-1.483-1.187-2.06.154-.338.721-.387.993-.18.216.17.415.452.415.73 0 .068.058.413.178.323.099-.075.459-1.174.32-1.174-.89 0-1.496-.804-2.29-.065z" fill="#fff"/><path d="M8 20h37v4.868s.375 1.991.4 2.77a4.91 4.91 0 01.002.322v.03L45.4 28l-.771-.016v-.037a11.172 11.172 0 000-.284c-.016-.486-.192-1.115-.378-1.647-.072-.205-.252-.982-.252-.982L44.003 21H9v2h11v4.65h-1V24H8v-4zm11 15v-2h1v2s.06.087.166.248c.183.273.456.638.82 1.002.087.086.199.122.378.105.192-.018.411-.094.653-.19l.112-.046c.08-.033.16-.066.234-.093.108-.041.233-.084.353-.102a.62.62 0 01.477.101c.184.14.22.35.22.497 0 .113-.006.21-.014.291l-.007.076a2.402 2.402 0 00-.009.11.304.304 0 000 .062l.002.001c.016.022.08.086.307.202.218.111.54.25 1.022.443.448.18.719.206.898.186.176-.02.307-.089.49-.203l.06-.038c.17-.108.395-.25.686-.336.337-.1.74-.12 1.27-.015.531.106.902.318 1.062.682.14.323.056.66.012.838l-.008.029a7.183 7.183 0 00-.01.045c.08-.006.189-.021.336-.05a12.91 12.91 0 013.084-.249c.99.05 1.941.248 2.606.691 1.062.708 2.001.646 2.6.048.648-.648 1.375-.662 1.808-.528.384-.141 1.068-.257 1.722.07.13.065.296.048.521-.101.223-.148.42-.376.529-.539l.173-.26.291.116c.34.136.85.38 1.281.677.215.148.426.32.587.509.157.183.303.428.303.715V33H46v7.5l-.426.225c-.16.08-.45.181-.738.118a.712.712 0 01-.439-.29.963.963 0 01-.153-.559c0-.022-.014-.092-.12-.215-.1-.118-.25-.246-.436-.374a6.003 6.003 0 00-.863-.48c-.146.17-.333.351-.547.494-.328.217-.804.393-1.293.149-.47-.236-1.004-.097-1.198 0l-.172.086-.173-.087c-.128-.064-.612-.171-1.097.314-.945.945-2.32.883-3.573.048-.492-.328-1.277-.515-2.216-.562a12.138 12.138 0 00-2.895.234c-.252.05-.463.075-.635.067-.164-.008-.37-.05-.514-.216a.626.626 0 01-.138-.483 2.043 2.043 0 01.066-.322c.053-.212.057-.3.033-.355-.01-.022-.073-.148-.506-.234-.434-.087-.706-.06-.9-.003-.183.054-.317.139-.494.25l-.062.04c-.202.126-.457.274-.812.315-.35.04-.755-.03-1.271-.237a13.712 13.712 0 01-1.088-.473c-.244-.125-.444-.254-.573-.425a.821.821 0 01-.154-.564 3.765 3.765 0 01.017-.212l-.197.079-.13.052c-.24.097-.552.213-.866.243-.327.031-.697-.029-.996-.328a7.417 7.417 0 01-.916-1.12C19.357 35.426 19 35 19 35zm3.642 1.512v-.002.002z" fill="#fff"/></svg>