<!-- by TradingView --><svg width="56" height="56" viewBox="0 0 56 56" xmlns="http://www.w3.org/2000/svg"><path fill="#F0F3FA" d="M0 0h56v56H0z"/><path d="M22.79 12.76a.61.61 0 0 1 .36-.8 16.85 16.85 0 0 1 15.27 2.1c.29.2.34.6.13.88l-9.8 12.69-5.96-14.87Z" fill="#DFB431"/><path d="M30.53 40.88a13.66 13.66 0 0 1-7.22-1 13.31 13.31 0 0 1-5.65-4.48l11.08-7.77 1.79 13.25Z" fill="#A8B242"/><path d="M21.46 15.98a13.5 13.5 0 0 1 20.5 10.43L28.5 27.5l-7.04-11.52Z" fill="#DD6727"/><path d="M43.27 25.96c.35-.04.66.2.69.55a15.06 15.06 0 0 1-4.76 12.16.62.62 0 0 1-.89-.06l-9.57-10.98 14.53-1.67Z" fill="#E49D2B"/><path d="m28.74 27.63 1.75 17.8c.04.36.35.61.7.56 3.38-.44 6.92-1.8 9.58-3.93a.6.6 0 0 0 .23-.46c0-.15-.05-.3-.15-.42l-2-2.24A16.47 16.47 0 0 1 33.5 42l-4.76-14.37Z" fill="#D8493B"/><path d="M14.03 18.45a.61.61 0 0 1-.2-.87 17.97 17.97 0 0 1 5.93-5.46c.3-.17.7-.06.86.25l8.12 15.26-14.71-9.18Z" fill="#654A92"/><path d="M16.13 37.58a.62.62 0 0 1-.88-.1 16.56 16.56 0 0 1-.32-19.25c.2-.28.6-.34.88-.14l12.93 9.54-12.61 9.95Z" fill="#6098CA"/><path d="M20.5 35.82a.61.61 0 0 1-.89-.01 12.17 12.17 0 0 1-3.04-6.47.6.6 0 0 1 .56-.69l11.61-1.02-8.24 8.19Z" fill="#654A92"/><circle cx="28.5" cy="27.5" r="9.5" fill="#fff"/><circle cx="28.5" cy="27.5" r="5.5" fill="#D8493B"/></svg>