<!-- by TradingView --><svg xmlns="http://www.w3.org/2000/svg" width="56" height="56" viewBox="0 0 56 56"><path fill="#F0F3FA" d="M0 0h56v56H0z"/><path d="M39 30.46a1.94 1.94 0 0 1-1.64 2.01c-1.88.33-5.97.53-9.27.53s-7.57-.2-9.45-.53a1.94 1.94 0 0 1-1.64-2V24.2a2.08 2.08 0 0 1 1.64-2.01c.96-.13 1.71-.2 2.67-.19a.7.7 0 0 1 .69.76v4.36c1.94 0 3.99-.12 6.1-.12 1.94 0 3.96.11 5.9.12v-4.36a.7.7 0 0 1 .7-.76c.95 0 1.72.06 2.67.19a2.08 2.08 0 0 1 1.64 2L39 30.47ZM28.1 12a16 16 0 1 0-.2 32 16 16 0 0 0 .2-32Z" fill="#EA2328"/></svg>