<!-- by TradingView --><svg width="56" height="56" viewBox="0 0 56 56" xmlns="http://www.w3.org/2000/svg"><path fill="#F0F3FA" d="M0 0h56v56H0z"/><path d="M12.03 29A16 16 0 1 0 27 12.03v4.01A12 12 0 1 1 16.04 29h-4Z" fill="url(#alsvfsqkj)"/><path d="M26 28h-5v4.67A2.4 2.4 0 0 0 23.47 35h9.83a3.6 3.6 0 0 0 3.7-3.5 3.6 3.6 0 0 0-3.7-3.5H32v2.4c0 .33-.29.6-.64.6h-4.72a.62.62 0 0 1-.64-.6V28Z" fill="url(#blsvfsqkj)"/><path d="M27 24.14c0 .47.41.86.93.86h3.42c.36 0 .65.27.65.6V28h1.25c2.07 0 3.75-1.57 3.75-3.5S35.32 21 33.25 21H27v3.14Z" fill="url(#clsvfsqkj)"/><path d="M24.1 39.35a12 12 0 0 1-3.1-21.1v14.42c0 .66.3 1.25.78 1.68L26 30.73v-18.6c-7.75 1.1-14 7.81-14 15.87a16 16 0 0 0 31 5.57c-2.05 2.99-6.3 7.13-12.1 7.13-2.71 0-4.95-.51-6.8-1.35Z" fill="url(#dlsvfsqkj)"/><defs><linearGradient id="alsvfsqkj" x1="28.01" y1="12" x2="28.01" y2="44" gradientUnits="userSpaceOnUse"><stop stop-color="#CB2D2D"/><stop offset="1" stop-color="#7B2D3B"/></linearGradient><linearGradient id="blsvfsqkj" x1="37" y1="31.46" x2="21.82" y2="31.46" gradientUnits="userSpaceOnUse"><stop stop-color="#CA2D2C"/><stop offset="1" stop-color="#7E2E3B"/></linearGradient><linearGradient id="clsvfsqkj" x1="32" y1="21" x2="32" y2="28" gradientUnits="userSpaceOnUse"><stop stop-color="#CA2D2C"/><stop offset="1" stop-color="#7E2E3B"/></linearGradient><linearGradient id="dlsvfsqkj" x1="19.05" y1="16.43" x2="30.08" y2="40.07" gradientUnits="userSpaceOnUse"><stop offset=".22" stop-color="#7E2D3C"/><stop offset=".66" stop-color="#D73130"/></linearGradient></defs></svg>