<!-- by TradingView --><svg width="56" height="56" viewBox="0 0 56 56" fill="none" xmlns="http://www.w3.org/2000/svg">
<rect width="56" height="56" fill="#F0F3FA"/>
<path fill-rule="evenodd" clip-rule="evenodd" d="M8 19H48V17H8V19Z" fill="#FFD300"/>
<path fill-rule="evenodd" clip-rule="evenodd" d="M8 39H48V37H8V39Z" fill="#FFD300"/>
<path fill-rule="evenodd" clip-rule="evenodd" d="M8 16.5H48V16H8V16.5Z" fill="#2EA64A"/>
<path fill-rule="evenodd" clip-rule="evenodd" d="M8 40H48V39.5H8V40Z" fill="#2EA64A"/>
<path fill-rule="evenodd" clip-rule="evenodd" d="M11.4275 21.4715C11.3758 21.2538 11.2596 21.1107 11.0982 21.0176C10.9433 20.9241 10.7497 20.887 10.5365 20.887C9.975 20.887 9.59425 21.3657 9.59425 21.9504C9.59425 22.7463 10.1299 23.0696 10.5817 23.051C10.9239 23.0385 11.2209 22.8955 11.3629 22.5846H12.8023C12.6604 23.7413 11.5822 24.3445 10.4398 24.3445C8.96801 24.3445 8.16132 23.2935 8.16132 21.9442C8.16132 20.6693 8.9551 19.6556 10.3493 19.6556C10.7239 19.6556 11.1886 19.7613 11.4338 20.0722H11.4467V19.7551H12.6733V21.4715H11.4275Z" fill="#F37920"/>
<path fill-rule="evenodd" clip-rule="evenodd" d="M10.3495 19.8111C9.13724 19.8111 8.32281 20.6683 8.32281 21.9442C8.32281 23.3078 9.15387 24.189 10.4401 24.189C11.384 24.189 12.3911 23.7393 12.6126 22.7401H11.4623C11.291 23.0275 10.9847 23.192 10.5881 23.2065C10.3048 23.2189 10.0196 23.1147 9.81126 22.9224C9.63872 22.7631 9.43293 22.4652 9.43293 21.9504C9.43293 21.2555 9.90762 20.7315 10.5368 20.7315C10.7963 20.7315 11.014 20.7833 11.184 20.8857C11.3554 20.9848 11.4781 21.1295 11.5483 21.316H12.512V19.9106H11.6083V20.2278H11.3669L11.3055 20.1664C11.0455 19.8368 10.508 19.8111 10.3495 19.8111ZM10.4401 24.5C8.98068 24.5 8 23.4728 8 21.9442C8 20.4822 8.94421 19.5001 10.3495 19.5001C10.7111 19.5001 11.0392 19.5853 11.2855 19.7368V19.5996H12.8348V21.627H11.2991L11.2703 21.5061C11.2313 21.3416 11.1503 21.2289 11.0153 21.1508C10.8951 21.0784 10.7348 21.0425 10.5368 21.0425C10.0842 21.0425 9.75574 21.4243 9.75574 21.9504C9.75574 22.271 9.85226 22.5294 10.0346 22.6978C10.1797 22.8319 10.3765 22.9034 10.5749 22.8956C10.7932 22.8877 11.0807 22.8165 11.2153 22.522L11.2578 22.4291H12.984L12.9627 22.6028C12.8019 23.9135 11.5799 24.5 10.4401 24.5Z" fill="#231F20"/>
<path fill-rule="evenodd" clip-rule="evenodd" d="M14.4493 22C14.4493 22.5534 14.8496 23.051 15.4693 23.051C16.0954 23.051 16.4957 22.5534 16.4957 22C16.4957 21.4465 16.0954 20.9491 15.4693 20.9491C14.8496 20.9491 14.4493 21.4465 14.4493 22ZM13.0165 22C13.0165 20.7003 14.1073 19.6555 15.4693 19.6555C16.8379 19.6555 17.9286 20.7003 17.9286 22C17.9286 23.2997 16.8379 24.3446 15.4693 24.3446C14.1073 24.3446 13.0165 23.2997 13.0165 22Z" fill="#F37920"/>
<path fill-rule="evenodd" clip-rule="evenodd" d="M15.4693 21.1045C14.9114 21.1045 14.6106 21.5659 14.6106 22C14.6106 22.434 14.9114 22.8955 15.4693 22.8955C16.0309 22.8955 16.334 22.434 16.334 22C16.334 21.5659 16.0309 21.1045 15.4693 21.1045ZM15.4693 23.2065C14.7957 23.2065 14.2878 22.6878 14.2878 22C14.2878 21.3121 14.7957 20.7935 15.4693 20.7935C16.1463 20.7935 16.6569 21.3121 16.6569 22C16.6569 22.6878 16.1463 23.2065 15.4693 23.2065ZM15.4693 19.811C14.2058 19.811 13.1778 20.7931 13.1778 22C13.1778 23.207 14.2058 24.1889 15.4693 24.1889C16.7363 24.1889 17.767 23.207 17.767 22C17.767 20.7931 16.7363 19.811 15.4693 19.811ZM15.4693 24.4999C14.0276 24.4999 12.855 23.3785 12.855 22C12.855 20.6216 14.0276 19.5 15.4693 19.5C16.9143 19.5 18.0898 20.6216 18.0898 22C18.0898 23.3785 16.9143 24.4999 15.4693 24.4999Z" fill="#231F20"/>
<path fill-rule="evenodd" clip-rule="evenodd" d="M18.1489 19.7551H19.9627L21.5443 22.1119H21.5572V20.6755H21.0151V19.7551H23.3259V20.6755H22.8611V24.245H21.5702L19.9514 21.7613H19.9363H19.9211L19.9177 23.3246H20.4599V24.245H18.1489V23.3246H18.6136V20.6755H18.1489V19.7551Z" fill="#F37920"/>
<path fill-rule="evenodd" clip-rule="evenodd" d="M20.877 20.831L21.3959 21.6043V20.831H20.877ZM21.6594 24.0895H22.6997V20.52H23.1645V19.9107H21.1764V20.52H21.7187V22.2675H21.4695L21.4088 22.1964L19.875 19.9107H18.3103V20.52H18.775V23.4802H18.3103V24.0895H20.2985V23.4802H19.756L19.76 21.6058H20.0104L20.088 21.6788L21.6594 24.0895ZM23.0225 24.4005H21.4809L20.0814 22.2533L20.0795 23.1692H20.6213V24.4005H17.9875V23.1692H18.4522V20.831H17.9875V19.5997H20.0506L20.8535 20.7963V19.5997H23.4873V20.831H23.0225V24.4005Z" fill="#231F20"/>
<path fill-rule="evenodd" clip-rule="evenodd" d="M26.6767 21.4714C26.6252 21.2537 26.509 21.1107 26.3476 21.0175C26.1927 20.9241 25.999 20.8869 25.7859 20.8869C25.2244 20.8869 24.8437 21.3657 24.8437 21.9503C24.8437 22.7463 25.3794 23.0696 25.8313 23.0509C26.1733 23.0385 26.4703 22.8954 26.6123 22.5846H28.0519C27.9097 23.7413 26.8318 24.3445 25.6893 24.3445C24.2176 24.3445 23.4106 23.2935 23.4106 21.9441C23.4106 20.6692 24.2047 19.6556 25.5989 19.6556C25.9732 19.6556 26.438 19.7613 26.6833 20.0721H26.6963V19.7551H27.9226V21.4714H26.6767Z" fill="#F37920"/>
<path fill-rule="evenodd" clip-rule="evenodd" d="M25.5989 19.8111C24.3865 19.8111 23.5719 20.6683 23.5719 21.9442C23.5719 23.3078 24.4031 24.189 25.6893 24.189C26.633 24.189 27.6402 23.7393 27.8618 22.7401H26.7115C26.5402 23.0275 26.234 23.192 25.8375 23.2065C25.554 23.2189 25.2688 23.1147 25.0605 22.9224C24.8879 22.7631 24.6821 22.4651 24.6821 21.9504C24.6821 21.2555 25.1568 20.7315 25.786 20.7315C26.0455 20.7315 26.2633 20.7833 26.4332 20.8857C26.6046 20.9848 26.7273 21.1295 26.7975 21.316H27.7611V19.9106H26.8577V20.2278H26.6162L26.5549 20.1664C26.2949 19.8368 25.7574 19.8111 25.5989 19.8111ZM25.6893 24.5C24.2297 24.5 23.2491 23.4728 23.2491 21.9442C23.2491 20.4822 24.1934 19.5001 25.5989 19.5001C25.9605 19.5001 26.2886 19.5853 26.5349 19.7368V19.5996H28.0839V21.627H26.548L26.5194 21.506C26.4805 21.3416 26.3995 21.2289 26.2645 21.1508C26.1443 21.0784 25.984 21.0425 25.786 21.0425C25.3334 21.0425 25.005 21.4243 25.005 21.9504C25.005 22.271 25.1015 22.5294 25.2839 22.6978C25.429 22.8317 25.6273 22.9026 25.8242 22.8956C26.0426 22.8877 26.3299 22.8165 26.4645 22.522L26.507 22.4291H28.2333L28.212 22.603C28.051 23.9135 26.829 24.5 25.6893 24.5Z" fill="#231F20"/>
<path fill-rule="evenodd" clip-rule="evenodd" d="M30.1246 21.5337H30.9444C31.2606 21.5337 31.4866 21.3657 31.4866 21.1107C31.4866 20.8123 31.2606 20.6755 30.9444 20.6755H30.1246V21.5337ZM28.2592 19.7551H31.3382C32.4355 19.7551 32.913 20.0535 32.913 20.9243C32.913 21.5399 32.6291 21.8695 32.0095 21.9751V21.9875C32.3259 22.0622 32.7842 22.0684 32.7842 22.4913V23.3246H33.1713V24.245H31.3899V23.0945C31.3899 22.7586 31.3318 22.454 30.9057 22.454H30.1246V23.3246H30.5895V24.245H28.2592V23.3246H28.7303V20.6755H28.2592V19.7551Z" fill="#F37920"/>
<path fill-rule="evenodd" clip-rule="evenodd" d="M30.2861 21.3782H30.9445C31.1203 21.3782 31.3252 21.3082 31.3252 21.1108C31.3252 21.0416 31.3252 20.831 30.9445 20.831H30.2861V21.3782ZM30.9445 21.6892H29.9633V20.52H30.9445C31.3785 20.52 31.6481 20.7464 31.6481 21.1108C31.6481 21.4513 31.3588 21.6892 30.9445 21.6892ZM31.5514 24.0895H33.01V23.4802H32.6229V22.4914C32.6229 22.2853 32.4752 22.2361 32.1381 22.1726C32.0803 22.1619 32.024 22.1512 31.971 22.1387L31.8482 22.1096V21.8573L31.9814 21.822C32.5214 21.7299 32.7517 21.4615 32.7517 20.9243C32.7517 20.1759 32.3818 19.9107 31.3383 19.9107H28.4206V20.52H28.8918V23.4802H28.4206V24.0895H30.4282V23.4802H29.9633V22.2986H30.9058C31.5514 22.2986 31.5514 22.8768 31.5514 23.0945V24.0895ZM33.3328 24.4005H31.2286V23.0945C31.2286 22.6822 31.1245 22.6096 30.9058 22.6096H30.2861V23.1692H30.751V24.4005H28.0978V23.1692H28.569V20.831H28.0978V19.5997H31.3383C32.1968 19.5997 33.0745 19.757 33.0745 20.9243C33.0745 21.4161 32.9028 21.7574 32.5521 21.9563C32.7622 22.0359 32.9457 22.1821 32.9457 22.4914V23.1692H33.3328V24.4005Z" fill="#231F20"/>
<path fill-rule="evenodd" clip-rule="evenodd" d="M33.6565 24.245V23.3246H34.102V20.6755H33.6565V19.7551H38.0523V21.4652H37.1099L36.9034 20.6755H35.4962V21.4963H36.3934V22.5038H35.4962V23.3246H36.9034L37.1099 22.4665H38.0523V24.245H33.6565Z" fill="#F37920"/>
<path fill-rule="evenodd" clip-rule="evenodd" d="M33.8179 24.0895H37.8909V22.622H37.2382L37.0318 23.4802H35.3348V22.3483H36.232V21.6519H35.3348V20.52H37.0292L37.2358 21.3098H37.8909V19.9107H33.8179V20.52H34.2634V23.4802H33.8179V24.0895ZM38.2137 24.4005H33.4951V23.1692H33.9406V20.831H33.4951V19.5997H38.2137V21.6208H36.9842L36.7777 20.831H35.6576V21.3409H36.5548V22.6593H35.6576V23.1692H36.7751L36.9817 22.311H38.2137V24.4005Z" fill="#231F20"/>
<path fill-rule="evenodd" clip-rule="evenodd" d="M38.4535 21.4528V19.7551H43.0235V21.4528H42.1585L41.9716 20.6755H41.4357V23.3246H41.9779V24.245H39.4992V23.3246H40.0414V20.6755H39.4992L39.3183 21.4528H38.4535Z" fill="#F37920"/>
<path fill-rule="evenodd" clip-rule="evenodd" d="M39.6605 24.0895H41.8164V23.4802H41.2742V20.52H42.0998L42.2867 21.2973H42.8621V19.9107H38.6148V21.2973H39.1891L39.3698 20.52H40.2027V23.4802H39.6605V24.0895ZM42.1392 24.4005H39.3377V23.1692H39.8799V20.831H39.6284L39.4476 21.6083H38.292V19.5997H43.1849V21.6083H42.0302L41.8432 20.831H41.597V23.1692H42.1392V24.4005Z" fill="#231F20"/>
<path fill-rule="evenodd" clip-rule="evenodd" d="M43.4428 24.245V23.3246H43.8883V20.6755H43.4428V19.7551H47.8386V21.4652H46.8962L46.6898 20.6755H45.2825V21.4963H46.1797V22.5038H45.2825V23.3246H46.6898L46.8962 22.4665H47.8386V24.245H43.4428Z" fill="#F37920"/>
<path fill-rule="evenodd" clip-rule="evenodd" d="M43.6042 24.0895H47.6772V22.622H47.0245L46.818 23.4802H45.121V22.3483H46.0183V21.6519H45.121V20.52H46.8154L47.022 21.3098H47.6772V19.9107H43.6042V20.52H44.0496V23.4802H43.6042V24.0895ZM48 24.4005H43.2814V23.1692H43.7268V20.831H43.2814V19.5997H48V21.6208H46.7704L46.564 20.831H45.4438V21.3409H46.3411V22.6593H45.4438V23.1692H46.5614L46.768 22.311H48V24.4005Z" fill="#231F20"/>
<path fill-rule="evenodd" clip-rule="evenodd" d="M10.2707 27.6318H10.9762C11.4708 27.6318 11.7327 27.3838 11.7327 27.0381C11.7327 26.6173 11.5145 26.3994 10.9762 26.3994H10.2707V27.6318ZM8.16153 30.7127V29.6007H8.69961V26.3994H8.16153V25.2872H11.2745C12.7363 25.2872 13.3473 25.8583 13.3473 27.0156C13.3473 28.1729 12.7363 28.744 11.2745 28.744H10.2707V29.6007H10.8888V30.7127H8.16153Z" fill="#F37920"/>
<path fill-rule="evenodd" clip-rule="evenodd" d="M10.4324 27.4648H10.9763C11.1553 27.4648 11.5712 27.4232 11.5712 27.0381C11.5712 26.7551 11.47 26.5664 10.9763 26.5664H10.4324V27.4648ZM10.9763 27.7988H10.1092V26.2324H10.9763C11.5855 26.2324 11.8944 26.5036 11.8944 27.0381C11.8944 27.5002 11.534 27.7988 10.9763 27.7988ZM8.32327 30.5457H10.7273V29.7677H10.1092V28.577H11.2746C12.6142 28.577 13.1857 28.1099 13.1857 27.0156C13.1857 25.9213 12.6142 25.4542 11.2746 25.4542H8.32327V26.2324H8.86135V29.7677H8.32327V30.5457ZM11.0505 30.8797H8V29.4337H8.53808V26.5664H8V25.1202H11.2746C12.7782 25.1202 13.509 25.7402 13.509 27.0156C13.509 28.2909 12.7782 28.911 11.2746 28.911H10.4324V29.4337H11.0505V30.8797Z" fill="#231F20"/>
<path fill-rule="evenodd" clip-rule="evenodd" d="M13.6675 25.2872H16.2931V26.3994H15.784V28.4658C15.784 29.097 15.9076 29.4878 16.5915 29.4878C17.2749 29.4878 17.406 29.097 17.3987 28.4658V26.3994H16.8896V25.2872H19.5152V26.3994H18.9696V28.4883C18.9696 30.2393 18.2423 30.8329 16.5915 30.8329C14.9404 30.8329 14.2131 30.2393 14.2131 28.601V26.3994H13.6675V25.2872Z" fill="#F37920"/>
<path fill-rule="evenodd" clip-rule="evenodd" d="M13.8292 26.2324H14.3747V28.6012C14.3747 30.1063 14.9755 30.6659 16.5916 30.6659C18.2073 30.6659 18.8081 30.0758 18.8081 28.4885V26.2324H19.3536V25.4542H17.0512V26.2324H17.5604V28.4659C17.5641 28.7961 17.5371 29.1678 17.3084 29.4071C17.1489 29.5738 16.9145 29.655 16.5916 29.655C15.7397 29.655 15.6224 29.0835 15.6224 28.4659V26.2324H16.1315V25.4542H13.8292V26.2324ZM16.5916 30.9999C14.8112 30.9999 14.0515 30.2825 14.0515 28.6012V26.5664H13.506V25.1202H16.4548V26.5664H15.9457V28.4659C15.9457 29.1291 16.0905 29.321 16.5916 29.321C16.8235 29.321 16.9829 29.2724 17.0786 29.1723C17.1925 29.0533 17.2413 28.8358 17.2371 28.4678V26.5664H16.728V25.1202H19.6768V26.5664H19.1313V28.4885C19.1313 30.2723 18.3954 30.9999 16.5916 30.9999Z" fill="#231F20"/>
<path fill-rule="evenodd" clip-rule="evenodd" d="M20.0393 30.7127V29.6005H20.4901V26.3994H20.0393V25.2872H22.5121L23.3995 27.5416H23.414L24.3014 25.2872H26.7743V26.3994H26.3235V29.6005H26.7743V30.7127H24.316V29.6005H24.8542V26.993H24.8397L23.7777 29.6005H23.0358L21.9739 26.993H21.9593V29.6005H22.4976V30.7127H20.0393Z" fill="#F37920"/>
<path fill-rule="evenodd" clip-rule="evenodd" d="M24.4775 30.5457H26.6126V29.7675H26.1618V26.2324H26.6126V25.4542H24.4101L23.5227 27.7086H23.3052L23.2496 27.6046L22.4033 25.4542H20.2008V26.2324H20.6516V29.7675H20.2008V30.5457H22.3359V29.7675H21.7976V26.826H22.0666L22.1228 26.9282L23.1431 29.4335H23.6703L24.7323 26.826H25.0012L25.0158 26.993V29.7675H24.4775V30.5457ZM26.9358 30.8797H24.1543V29.4335H24.6925V27.7848L23.885 29.7675H22.9284L22.1209 27.7848V29.4335H22.6591V30.8797H19.8776V29.4335H20.3284V26.5664H19.8776V25.1202H22.6208L23.4067 27.1168L24.1926 25.1202H26.9358V26.5664H26.485V29.4335H26.9358V30.8797Z" fill="#231F20"/>
<path fill-rule="evenodd" clip-rule="evenodd" d="M29.3711 27.6318H30.0764C30.571 27.6318 30.8329 27.3838 30.8329 27.0381C30.8329 26.6173 30.6147 26.3994 30.0764 26.3994H29.3711V27.6318ZM27.2616 30.7127V29.6007H27.7998V26.3994H27.2616V25.2872H30.3746C31.8366 25.2872 32.4475 25.8583 32.4475 27.0156C32.4475 28.1729 31.8366 28.744 30.3746 28.744H29.3711V29.6007H29.9892V30.7127H27.2616Z" fill="#F37920"/>
<path fill-rule="evenodd" clip-rule="evenodd" d="M29.5327 27.4648H30.0765C30.2554 27.4648 30.6713 27.4232 30.6713 27.0381C30.6713 26.7551 30.5701 26.5664 30.0765 26.5664H29.5327V27.4648ZM30.0765 27.7988H29.2095V26.2324H30.0765C30.6857 26.2324 30.9946 26.5036 30.9946 27.0381C30.9946 27.5002 30.6341 27.7988 30.0765 27.7988ZM27.4232 30.5457H29.8276V29.7677H29.2095V28.577H30.3747C31.7143 28.577 32.2859 28.1099 32.2859 27.0156C32.2859 25.9213 31.7143 25.4542 30.3747 25.4542H27.4232V26.2324H27.9615V29.7677H27.4232V30.5457ZM30.1508 30.8797H27.1V29.4337H27.6382V26.5664H27.1V25.1202H30.3747C31.8784 25.1202 32.6091 25.7402 32.6091 27.0156C32.6091 28.2909 31.8784 28.911 30.3747 28.911H29.5327V29.4337H30.1508V30.8797Z" fill="#231F20"/>
<path fill-rule="evenodd" clip-rule="evenodd" d="M35.4154 30.7127H32.7243V29.6005H33.2842V26.3994H32.7243V25.2872H35.4154V26.3994H34.8553V29.6005H35.4154V30.7127Z" fill="#F37920"/>
<path fill-rule="evenodd" clip-rule="evenodd" d="M32.8859 30.5457H35.2537V29.7675H34.6938V26.2324H35.2537V25.4542H32.8859V26.2324H33.446V29.7675H32.8859V30.5457ZM35.5769 30.8797H32.5626V29.4335H33.1227V26.5664H32.5626V25.1202H35.5769V26.5664H35.017V29.4335H35.5769V30.8797Z" fill="#231F20"/>
<path fill-rule="evenodd" clip-rule="evenodd" d="M35.9536 25.2872H37.9974L39.7793 28.1351H39.7938V26.3994H39.1829V25.2872H41.7866V26.3994H41.2631V30.7127L39.8085 30.7075L37.9759 27.714L37.9657 27.6983H37.9455L37.9465 29.6005H38.5573V30.7127H35.9536V29.6005H36.4772V26.3994H35.9536V25.2872Z" fill="#F37920"/>
<path fill-rule="evenodd" clip-rule="evenodd" d="M36.1152 30.5457H38.3957V29.7675H37.7851L37.7838 27.5313H38.0522L38.1104 27.6213L39.8976 30.5409L41.1015 30.5452V26.2324H41.625V25.4542H39.3445V26.2324H39.9555V28.3021H39.7059L39.6435 28.2258L37.9095 25.4542H36.1152V26.2324H36.6389V29.7675H36.1152V30.5457ZM41.4247 30.8802L39.7193 30.8742L38.1075 28.2413L38.108 29.4335H38.719V30.8797H35.7919V29.4335H36.3156V26.5664H35.7919V25.1202H38.0852L39.6322 27.5924V26.5664H39.0212V25.1202H41.9483V26.5664H41.4247V30.8802Z" fill="#231F20"/>
<path fill-rule="evenodd" clip-rule="evenodd" d="M47.3511 30.7127H46.0202V30.1341C45.6127 30.5699 45.1253 30.833 44.5291 30.833C42.9216 30.833 41.918 29.6907 41.918 28.0526C41.918 26.5196 42.7107 25.1671 44.3472 25.1671C44.8708 25.1671 45.2928 25.2947 45.7145 25.6554V25.2872H47.1183V27.1884H45.7218C45.6272 26.978 45.4819 26.8352 45.3145 26.7375C45.1472 26.6399 44.9435 26.6023 44.7255 26.6023C43.9254 26.6023 43.5324 27.2561 43.5324 28.0075C43.5324 28.7741 43.947 29.3676 44.7182 29.3676C45.1617 29.3676 45.6272 29.1797 45.6854 28.7438H45.0162V27.7145H47.8384V28.7964H47.3511V30.7127Z" fill="#F37920"/>
<path fill-rule="evenodd" clip-rule="evenodd" d="M44.3472 25.334C42.6735 25.334 42.0796 26.7985 42.0796 28.0525C42.0796 29.6402 43.041 30.666 44.529 30.666C45.0466 30.666 45.4962 30.4541 45.9037 30.0181L46.1817 29.7208V30.5456H47.1894V28.6295H47.6767V27.8813H45.1778V28.5769H45.8709L45.8455 28.7668C45.7699 29.3335 45.1909 29.5346 44.7181 29.5346C43.9122 29.5346 43.3708 28.9209 43.3708 28.0074C43.3708 27.0671 43.9151 26.4353 44.7254 26.4353C44.9908 26.4353 45.2158 26.4881 45.3941 26.5921C45.5763 26.6985 45.719 26.8426 45.8195 27.0213H46.9566V25.4542H45.8761V26.0105L45.6113 25.784C45.2425 25.4686 44.8644 25.334 44.3472 25.334ZM44.529 31C42.8705 31 41.7563 29.8155 41.7563 28.0525C41.7563 26.5332 42.5574 25 44.3472 25C44.8177 25 45.2011 25.103 45.5528 25.329V25.1202H47.2799V27.3553H45.6184L45.5751 27.2586C45.5024 27.097 45.3912 26.9741 45.2349 26.8829C45.1057 26.8076 44.9344 26.7693 44.7254 26.7693C43.9641 26.7693 43.694 27.4363 43.694 28.0074C43.694 28.5842 43.963 29.2006 44.7181 29.2006C45.008 29.2006 45.312 29.1096 45.4512 28.9109H44.8546V27.5474H48V28.9635H47.5126V30.8796H45.8585V30.5109C45.46 30.8357 45.0143 31 44.529 31Z" fill="#231F20"/>
<path fill-rule="evenodd" clip-rule="evenodd" d="M8.16159 36.248V35.3263H8.66508V32.673H8.16159V31.7512H10.6003V32.673H10.0965V33.4951H11.8858V32.673H11.3823V31.7512H13.8211V32.673H13.3173V35.3263H13.8211V36.248H11.3823V35.3263H11.8858V34.5041H10.0965V35.3263H10.6003V36.248H8.16159Z" fill="#F37920"/>
<path fill-rule="evenodd" clip-rule="evenodd" d="M11.544 36.0963H13.6595V35.4783H13.1558V32.5212H13.6595V31.9033H11.544V32.5212H12.0475V33.6472H9.93493V32.5212H10.4387V31.9033H8.32327V32.5212H8.82676V35.4783H8.32327V36.0963H10.4387V35.4783H9.93493V34.3524H12.0475V35.4783H11.544V36.0963ZM13.9828 36.4001H11.2207V35.1745H11.7242V34.6562H10.2582V35.1745H10.762V36.4001H8V35.1745H8.50349V32.8251H8V31.5995H10.762V32.8251H10.2582V33.3434H11.7242V32.8251H11.2207V31.5995H13.9828V32.8251H13.4791V35.1745H13.9828V36.4001Z" fill="#231F20"/>
<path fill-rule="evenodd" clip-rule="evenodd" d="M15.4789 33.9997C15.4789 34.554 15.8896 35.0523 16.526 35.0523C17.1688 35.0523 17.5795 34.554 17.5795 33.9997C17.5795 33.4454 17.1688 32.9471 16.526 32.9471C15.8896 32.9471 15.4789 33.4454 15.4789 33.9997ZM14.0075 33.9997C14.0075 32.698 15.1275 31.6516 16.526 31.6516C17.9309 31.6516 19.0509 32.698 19.0509 33.9997C19.0509 35.3014 17.9309 36.3477 16.526 36.3477C15.1275 36.3477 14.0075 35.3014 14.0075 33.9997Z" fill="#F37920"/>
<path fill-rule="evenodd" clip-rule="evenodd" d="M16.5259 33.0991C15.9508 33.0991 15.6405 33.5631 15.6405 33.9997C15.6405 34.4363 15.9508 34.9004 16.5259 34.9004C17.1052 34.9004 17.418 34.4363 17.418 33.9997C17.418 33.5631 17.1052 33.0991 16.5259 33.0991ZM16.5259 35.2042C15.8369 35.2042 15.3172 34.6864 15.3172 33.9997C15.3172 33.3131 15.8369 32.7952 16.5259 32.7952C17.2187 32.7952 17.7413 33.3131 17.7413 33.9997C17.7413 34.6864 17.2187 35.2042 16.5259 35.2042ZM16.5259 31.8036C15.2266 31.8036 14.1693 32.7887 14.1693 33.9997C14.1693 35.2106 15.2266 36.1959 16.5259 36.1959C17.8292 36.1959 18.8892 35.2106 18.8892 33.9997C18.8892 32.7887 17.8292 31.8036 16.5259 31.8036ZM16.5259 36.4997C15.0481 36.4997 13.846 35.3782 13.846 33.9997C13.846 32.6212 15.0481 31.4998 16.5259 31.4998C18.0073 31.4998 19.2125 32.6212 19.2125 33.9997C19.2125 35.3782 18.0073 36.4997 16.5259 36.4997Z" fill="#231F20"/>
<path fill-rule="evenodd" clip-rule="evenodd" d="M19.1236 36.248V35.3263H19.6142V32.673H19.1236V31.7512H21.536V32.673H21.0456V35.3263H22.2981L22.51 34.4543H23.4312V36.248H19.1236Z" fill="#F37920"/>
<path fill-rule="evenodd" clip-rule="evenodd" d="M19.2852 36.0963H23.2695V34.6064H22.6388L22.4269 35.4783H20.884V32.5213H21.3744V31.9033H19.2852V32.5213H19.7758V35.4783H19.2852V36.0963ZM23.5928 36.4001H18.962V35.1745H19.4525V32.8251H18.962V31.5995H21.6976V32.8251H21.2072V35.1745H22.1693L22.3812 34.3026H23.5928V36.4001Z" fill="#231F20"/>
<path fill-rule="evenodd" clip-rule="evenodd" d="M25.744 35.3264H26.2407C27.1488 35.3264 27.6924 34.8842 27.6924 33.9998C27.6924 33.1153 27.1488 32.6731 26.2407 32.6731H25.744V35.3264ZM23.8419 35.3264H24.3126V32.6731H23.8419V31.7513H26.5658C27.9573 31.7513 29.1636 32.2185 29.1636 33.9686C29.1636 35.3513 28.3683 36.2482 26.3604 36.2482H23.8419V35.3264Z" fill="#F37920"/>
<path fill-rule="evenodd" clip-rule="evenodd" d="M25.9056 35.1745H26.2407C26.8292 35.1745 27.5307 34.9707 27.5307 33.9998C27.5307 33.0288 26.8292 32.8251 26.2407 32.8251H25.9056V35.1745ZM26.2407 35.4783H25.5823V32.5213H26.2407C27.2659 32.5213 27.8539 33.0601 27.8539 33.9998C27.8539 34.9394 27.2659 35.4783 26.2407 35.4783ZM24.0035 36.0963H26.3603C28.1379 36.0963 29.0019 35.4003 29.0019 33.9687C29.0019 32.5788 28.205 31.9033 26.5657 31.9033H24.0035V32.5213H24.4742V35.4783H24.0035V36.0963ZM26.3603 36.4001H23.6802V35.1745H24.1509V32.8251H23.6802V31.5995H26.5657C28.3967 31.5995 29.3251 32.3966 29.3251 33.9687C29.3251 35.0779 28.8108 36.4001 26.3603 36.4001Z" fill="#231F20"/>
<path fill-rule="evenodd" clip-rule="evenodd" d="M31.8673 36.248H29.4153V35.3263H29.9256V32.673H29.4153V31.7512H31.8673V32.673H31.3571V35.3263H31.8673V36.248Z" fill="#F37920"/>
<path fill-rule="evenodd" clip-rule="evenodd" d="M29.577 36.0963H31.7058V35.4783H31.1955V32.5213H31.7058V31.9033H29.577V32.5213H30.0873V35.4783H29.577V36.0963ZM32.029 36.4001H29.2538V35.1745H29.764V32.8251H29.2538V31.5995H32.029V32.8251H31.5187V35.1745H32.029V36.4001Z" fill="#231F20"/>
<path fill-rule="evenodd" clip-rule="evenodd" d="M32.4042 31.7512H34.2664L35.8898 34.1117H35.9031V32.673H35.3464V31.7512H37.7191V32.673H37.2419V36.248H35.9163L34.2481 33.7718L34.2331 33.7505H34.2198V35.3263H34.7767V36.248H32.4042V35.3263H32.8812V32.673H32.4042V31.7512Z" fill="#F37920"/>
<path fill-rule="evenodd" clip-rule="evenodd" d="M35.1972 32.825L35.7415 33.6163V32.825H35.1972ZM36.0054 36.0962H37.0801V32.5212H37.5574V31.9032H35.5081V32.5212H36.0647V34.2637H35.8152L35.7541 34.1943L34.1783 31.9032H32.5658V32.5212H33.0428V35.4782H32.5658V36.0962H34.6149V35.4782H34.0582V33.5986H34.3066L34.3829 33.688L36.0054 36.0962ZM37.4034 36.4H35.8273L34.3815 34.2538V35.1744H34.9381V36.4H32.2426V35.1744H32.7195V32.825H32.2426V31.5994H34.3542L35.1848 32.8069V31.5994H37.8807V32.825H37.4034V36.4Z" fill="#231F20"/>
<path fill-rule="evenodd" clip-rule="evenodd" d="M42.7024 36.2481H41.4896V35.7685C41.1185 36.1297 40.6745 36.3477 40.1311 36.3477C38.6665 36.3477 37.7518 35.401 37.7518 34.0433C37.7518 32.7727 38.4742 31.6516 39.9653 31.6516C40.4427 31.6516 40.8268 31.7575 41.2113 32.0565V31.7513H42.4903V33.327H41.2179C41.1318 33.1526 40.9992 33.0343 40.8468 32.9533C40.6944 32.8724 40.509 32.8412 40.31 32.8412C39.5811 32.8412 39.223 33.3831 39.223 34.0059C39.223 34.6412 39.6011 35.1332 40.3034 35.1332C40.7076 35.1332 41.1318 34.9775 41.1848 34.6163H40.5751V33.763H43.1464V34.6599H42.7024V36.2481Z" fill="#F37920"/>
<path fill-rule="evenodd" clip-rule="evenodd" d="M39.9653 31.8035C38.4508 31.8035 37.9135 33.01 37.9135 34.0433C37.9135 35.3509 38.7839 36.1958 40.131 36.1958C40.5988 36.1958 41.0051 36.0216 41.3733 35.6631L41.6513 35.3924V36.0962H42.5408V34.508H42.9848V33.9149H40.7367V34.4644H41.3703L41.3449 34.6371C41.2872 35.0308 40.8782 35.2851 40.3035 35.2851C39.5604 35.2851 39.0613 34.7711 39.0613 34.0059C39.0613 33.2184 39.5632 32.6893 40.3101 32.6893C40.5545 32.6893 40.7619 32.7337 40.9263 32.8212C41.0923 32.9091 41.2227 33.0281 41.3155 33.1751H42.3286V31.9032H41.373V32.3792L41.1083 32.1736C40.7748 31.9143 40.4329 31.8035 39.9653 31.8035ZM40.131 36.4996C38.6113 36.4996 37.5903 35.5125 37.5903 34.0433C37.5903 32.7773 38.3247 31.4997 39.9653 31.4997C40.387 31.4997 40.7328 31.5819 41.0497 31.7617V31.5993H42.6519V33.4789H41.1149L41.0714 33.3911C41.0064 33.2597 40.907 33.1598 40.7672 33.0856C40.6518 33.0243 40.4981 32.9931 40.3101 32.9931C39.6269 32.9931 39.3846 33.5386 39.3846 34.0059C39.3846 34.4776 39.6259 34.9813 40.3035 34.9813C40.5516 34.9813 40.8112 34.9143 40.9421 34.7682H40.4134V33.6111H43.3081V34.8118H42.8641V36.4H41.3281V36.1085C40.9686 36.3682 40.5674 36.4996 40.131 36.4996Z" fill="#231F20"/>
<path fill-rule="evenodd" clip-rule="evenodd" d="M46.4932 33.0156C46.3739 32.8599 46.2281 32.7416 46.0492 32.6544C45.8702 32.5672 45.6582 32.5236 45.3997 32.5236C45.1346 32.5236 44.8165 32.6045 44.8165 32.8474C44.8165 33.2398 45.572 33.2274 46.3275 33.3706C47.083 33.5139 47.8385 33.8128 47.8385 34.8343C47.8385 35.8308 47.0565 36.3477 46.0293 36.3477C45.572 36.3477 45.0816 36.2419 44.7569 35.8868V36.2481H43.5706V34.8343H44.79C44.8893 35.0211 45.0283 35.1581 45.1943 35.2453C45.3599 35.3325 45.5588 35.3761 45.7773 35.3761C46.0889 35.3761 46.4534 35.3138 46.4534 35.0087C46.4534 34.61 45.6911 34.61 44.929 34.4668C44.1668 34.3235 43.405 34.0433 43.405 33.0779C43.405 32.3492 44.0609 31.6516 45.2407 31.6516C45.7509 31.6516 46.1154 31.7575 46.4998 32.0938V31.7513H47.6925V33.0156H46.4932Z" fill="#F37920"/>
<path fill-rule="evenodd" clip-rule="evenodd" d="M44.5951 35.4771L44.8795 35.7878C45.1269 36.0586 45.5139 36.1958 46.0292 36.1958C46.8257 36.1958 47.6767 35.8381 47.6767 34.8343C47.6767 33.909 47.0129 33.6556 46.2954 33.5195C46.1231 33.4868 45.9509 33.4624 45.7841 33.439C45.2035 33.3566 44.6548 33.279 44.6548 32.8474C44.6548 32.5585 44.9472 32.3717 45.3998 32.3717C45.6826 32.3717 45.9193 32.42 46.1234 32.5195C46.301 32.6061 46.4488 32.7191 46.5729 32.8637H47.5308V31.9032H46.6613V32.4427L46.3896 32.205C46.055 31.9123 45.7436 31.8035 45.2405 31.8035C44.1414 31.8035 43.5665 32.4446 43.5665 33.0779C43.5665 33.9374 44.2365 34.1818 44.9608 34.3179C45.1253 34.3488 45.2902 34.3729 45.447 34.396C46.0476 34.4841 46.6149 34.5674 46.6149 35.0086C46.6149 35.2026 46.5061 35.528 45.7772 35.528C45.5273 35.528 45.3046 35.4774 45.1153 35.3779C44.9428 35.2872 44.8014 35.1557 44.6941 34.9862H43.7322V36.0962H44.5951V35.4771ZM46.0292 36.4996C45.5864 36.4996 45.2094 36.4045 44.9184 36.2218V36.4H43.4089V34.6823H44.8898L44.9346 34.7664C45.0168 34.9215 45.1308 35.038 45.273 35.1129C45.4135 35.1867 45.5832 35.2242 45.7772 35.2242C46.1187 35.2242 46.2917 35.1516 46.2917 35.0086C46.2917 34.8274 45.8572 34.7636 45.397 34.6962C45.2359 34.6725 45.0666 34.6476 44.8972 34.6158C44.127 34.471 43.2432 34.1656 43.2432 33.0779C43.2432 32.2936 43.9294 31.4997 45.2405 31.4997C45.6884 31.4997 46.0267 31.5829 46.338 31.7784V31.5993H47.854V33.1675H46.4103L46.362 33.1043C46.2579 32.9685 46.1312 32.8655 45.9747 32.7893C45.8176 32.7127 45.6294 32.6755 45.3998 32.6755C45.2538 32.6755 44.9781 32.7113 44.9781 32.8474C44.9781 33.0176 45.3931 33.0762 45.8323 33.1383C46.0028 33.1626 46.1792 33.1876 46.3592 33.2216C47.0636 33.3553 48 33.6677 48 34.8343C48 35.846 47.2264 36.4996 46.0292 36.4996Z" fill="#231F20"/>
</svg>
