<!-- by TradingView --><svg width="56" height="56" viewBox="0 0 56 56" fill="none" xmlns="http://www.w3.org/2000/svg"><path fill="#F0F3FA" d="M0 0h56v56H0z"/><circle cx="28.11" cy="27.89" r="27.88" transform="rotate(-.22 28.1 27.9)" stroke="#E0E3EB" stroke-width=".25"/><rect x="4.13" y="20.03" width="47.9" height="15.9" rx="1.95" transform="rotate(-.22 4.13 20.03)" stroke="#E0E3EB" stroke-width=".1"/><rect x="8.11" y="16.02" width="39.9" height="23.9" rx="1.95" transform="rotate(-.22 8.11 16.02)" stroke="#E0E3EB" stroke-width=".1"/><rect x="12.1" y="12" width="31.9" height="31.9" rx="1.95" transform="rotate(-.22 12.1 12)" stroke="#E0E3EB" stroke-width=".1"/><rect x="16.08" y="7.99" width="23.9" height="39.9" rx="1.95" transform="rotate(-.22 16.08 7.99)" stroke="#E0E3EB" stroke-width=".1"/><rect x="20.07" y="3.97" width="15.9" height="47.9" rx="1.95" transform="rotate(-.22 20.07 3.97)" stroke="#E0E3EB" stroke-width=".1"/><circle cx="28.11" cy="27.89" r="15.88" transform="rotate(-.22 28.1 27.9)" stroke="#C1C4CD" stroke-width=".25"/><path d="M16 11h6v23h.02a6.5 6.5 0 1 0 .98-3.97v-7.76A12.5 12.5 0 1 1 16.01 33H16V11Zm12.5 28a5.63 5.63 0 0 1-5.5-5.5c0-2.94 2.56-5.5 5.5-5.5s5.5 2.56 5.5 5.5-2.56 5.5-5.5 5.5Z" fill="#EC1F29"/></svg>