<!-- by TradingView --><svg xmlns="http://www.w3.org/2000/svg" width="56" height="56" viewBox="0 0 56 56"><path fill="#F0F3FA" d="M0 0h56v56H0z"/><path d="M9.35 40L9 39.24C19.56 35.09 23.85 20.68 24.68 14H25v9.28C23.01 32.15 13.52 38.97 9.35 40z" fill="#A3DDF5"/><path d="M27.18 12c-.1 0-.18.08-.18.18v27.6c0 .1.08.22.18.22h2.65c.1 0 .17-.12.17-.22v-2.12c0-.24.64-.35.8-.17A7.23 7.23 0 0 0 36.19 40C40.5 40 44 35.9 44 30.85 44 25.8 40.5 22 36.18 22c-2.2 0-4.2.78-5.62 2.5-.08.1-.56.05-.56-.07V12.18c0-.1-.07-.18-.17-.18h-2.65zM30 32.85v-3.72A5.78 5.78 0 0 1 35.4 25c2.96 0 5.6 2.67 5.6 6s-2.64 6-5.6 6a5.8 5.8 0 0 1-5.4-4.15z" fill="#0E2A5B"/></svg>