<!-- by TradingView --><svg width="56" height="56" viewBox="0 0 56 56" fill="none" xmlns="http://www.w3.org/2000/svg">
<rect width="56" height="56" fill="#F0F3FA"/>
<path d="M11 28C11 37.3888 18.6112 45 28 45C37.3888 45 45 37.3888 45 28C45 18.6112 37.3888 11 28 11C18.6112 11 11 18.6112 11 28Z" fill="#6495B9"/>
<g opacity="0.5">
<circle cx="33.1151" cy="24.8815" r="10.4042" fill="#84ABC8"/>
<circle cx="33.1147" cy="24.8815" r="8.03461" fill="#AAC5D8"/>
<circle cx="33.1156" cy="24.8816" r="5.59123" fill="#C6E2F6"/>
<circle cx="33.1153" cy="24.8816" r="3.70804" fill="#E0EAF0"/>
<circle cx="33.1146" cy="24.8816" r="1.64487" fill="#FAFBFD"/>
</g>
<path fill-rule="evenodd" clip-rule="evenodd" d="M24.4799 11.3598C24.8699 11.2798 25.2599 11.2098 25.6599 11.1598C25.7104 11.196 25.7686 11.22 25.8299 11.2298L26.7199 11.2598L26.5899 11.4298C26.288 11.4224 25.9871 11.4664 25.6999 11.5598C25.2699 11.6898 24.6199 11.8198 24.4899 11.3898L24.4799 11.3598ZM21.7399 43.8098C22.0009 43.913 22.2642 44.0097 22.5299 44.0998C22.676 44.0058 22.8132 43.8987 22.9399 43.7798C23.054 43.6483 23.1891 43.5368 23.3399 43.4498C23.4708 43.3812 23.6131 43.3371 23.7599 43.3198C23.8617 43.3081 23.9647 43.3219 24.0599 43.3598C24.4299 43.5198 24.9099 43.5398 25.3099 43.5198C25.6066 43.5061 25.8967 43.4276 26.1599 43.2898C26.4299 43.1198 26.4599 42.9698 26.2899 42.6998C26.1199 42.4398 25.7799 42.1598 25.1399 42.1398C24.3614 42.1298 23.9316 42.4685 23.6018 42.7283L23.5999 42.7298C23.4747 42.841 23.333 42.932 23.1799 42.9998C23.0271 43.0427 22.8683 43.0596 22.7099 43.0498L22.7073 43.0499C22.378 43.0598 22.0193 43.0707 21.7999 43.4198C21.7583 43.4747 21.7311 43.5391 21.7206 43.6072C21.7101 43.6753 21.7167 43.7449 21.7399 43.8098ZM24.0299 44.5298C24.3098 44.6051 24.5935 44.6652 24.8799 44.7098C25.1999 44.5498 25.5599 44.3498 25.5399 44.2498C25.5099 44.0798 25.0099 43.9498 24.6499 44.1798C24.4501 44.3082 24.2431 44.4251 24.0299 44.5298ZM25.0799 12.1798C23.8999 12.1798 23.2299 13.0598 23.1099 13.4298H26.7499C27.0299 13.4298 27.9499 14.4498 28.3999 14.9798C28.4525 15.0418 28.5248 15.0838 28.6047 15.0988C28.6846 15.1138 28.7672 15.1009 28.8387 15.0622C28.9102 15.0235 28.9663 14.9614 28.9974 14.8863C29.0286 14.8113 29.033 14.7277 29.0099 14.6498C28.7299 13.5998 27.8999 12.8698 26.6499 12.8998C26.4799 12.8898 26.3399 12.7798 26.1799 12.6398C25.9199 12.4298 25.6099 12.1798 25.0799 12.1798ZM21.6398 16.7201C21.7876 16.2116 21.9612 15.711 22.1598 15.2201C22.1895 15.1532 22.2351 15.0946 22.2926 15.0492C22.3501 15.0039 22.4178 14.9733 22.4898 14.9601C23.0872 14.818 23.6649 14.6031 24.2098 14.3201C24.4581 14.1943 24.7315 14.1259 25.0098 14.1201C25.3899 14.139 25.7586 14.2562 26.0798 14.4601C26.4469 14.6739 26.8567 14.8036 27.2798 14.8401C28.1898 14.8701 28.6598 15.4601 28.3898 15.9201L28.1298 16.3701C28.1222 16.3838 28.1114 16.3955 28.0984 16.4043C28.0854 16.4131 28.0705 16.4187 28.0549 16.4206C28.0393 16.4226 28.0235 16.4208 28.0087 16.4155C27.9939 16.4102 27.9806 16.4015 27.9698 16.3901L27.0998 15.5701C27.0008 15.4731 26.8836 15.3966 26.7548 15.3451C26.6261 15.2936 26.4885 15.2681 26.3498 15.2701H25.9898C25.934 15.2704 25.8804 15.2919 25.8398 15.3301C25.7925 15.3717 25.7327 15.3963 25.6698 15.4001H24.5298C24.496 15.3996 24.4626 15.3923 24.4316 15.3786C24.4007 15.3648 24.3729 15.3449 24.3498 15.3201C24.3097 15.289 24.2606 15.2715 24.2098 15.2701H23.7998C23.6435 15.2691 23.4885 15.2995 23.3442 15.3596C23.1999 15.4198 23.0692 15.5084 22.9598 15.6201L21.7898 16.8201C21.7736 16.8297 21.755 16.8346 21.7362 16.8341C21.7174 16.8336 21.6991 16.8277 21.6834 16.8173C21.6677 16.8068 21.6553 16.7922 21.6476 16.775C21.6399 16.7578 21.6372 16.7388 21.6398 16.7201ZM22.4498 18.7801C21.1898 19.1001 21.0098 20.5601 21.0798 21.2001V21.2101C21.3298 20.9401 21.5998 20.6401 21.8498 20.3401L21.8655 20.322C22.4498 19.6486 23.0037 19.0101 23.4398 19.0101C24.5519 19.0862 25.6678 19.0862 26.7798 19.0101C26.8153 19.0103 26.8505 19.0034 26.8833 18.9899C26.9162 18.9764 26.946 18.9565 26.9711 18.9314C26.9962 18.9063 27.0161 18.8764 27.0296 18.8436C27.0431 18.8108 27.05 18.7756 27.0498 18.7401C27.0479 18.6761 27.0255 18.6143 26.9859 18.5639C26.9463 18.5136 26.8916 18.4772 26.8298 18.4601C26.5377 18.3622 26.2535 18.2418 25.9798 18.1001C25.6849 17.9506 25.3604 17.8686 25.0298 17.8601C24.638 17.8737 24.2574 17.9947 23.9298 18.2101C23.4769 18.4919 22.9747 18.6853 22.4498 18.7801ZM23.9998 21.9601C24.4698 21.6501 25.1398 21.4001 25.8998 21.8001V21.7901C26.4298 22.0701 26.3998 22.7101 25.7698 22.8101C25.1799 22.9117 24.5746 22.8775 23.9998 22.7101C23.7841 22.653 23.5564 22.6605 23.3448 22.7316C23.1333 22.8027 22.9473 22.9343 22.8098 23.1101L22.7498 23.2001L22.7011 23.2655C22.3655 23.7168 22.0113 24.1931 21.6298 24.4601C21.3798 23.9401 21.1898 22.6201 22.5798 22.3601L22.9198 22.3001L22.9522 22.295C23.3198 22.2371 23.6598 22.1836 23.9998 21.9601ZM22.7798 24.1601C21.4998 24.5001 21.7598 25.4001 22.0598 25.8001C23.0249 24.1287 25.5043 24.6349 26.4947 24.837L26.5098 24.8401H26.5598C26.1698 23.4601 25.2398 23.4401 24.6198 23.6401C24.0098 23.8301 23.3998 24.0001 22.7798 24.1601ZM22.5198 27.1801C22.1898 27.2101 21.9598 26.1901 22.7198 26.0301L23.2698 25.9201C23.5251 25.8946 23.773 25.8199 23.9998 25.7001L24.0398 25.6801L24.063 25.6695C24.5407 25.4504 25.1841 25.1552 26.0598 25.4701C26.6569 25.7031 27.1887 26.077 27.6098 26.5601C26.8827 26.4783 26.1495 26.4649 25.4198 26.5201C25.1379 26.5601 24.8518 26.5601 24.5698 26.5201C24.1413 26.4493 23.7031 26.4629 23.2798 26.5601C23.201 26.5857 23.1283 26.6273 23.0663 26.6824C23.0044 26.7375 22.9545 26.8048 22.9198 26.8801L22.9198 26.8801C22.8198 27.0201 22.7198 27.1601 22.5198 27.1801ZM23.0798 28.7901C23.2298 28.5501 23.5398 28.4001 23.6998 28.4301C24.4828 28.5374 25.2768 28.5374 26.0598 28.4301C26.5683 28.3283 27.0965 28.4211 27.5398 28.6901V28.4301C27.5398 28.0348 27.3539 27.9835 27.0179 27.8907L26.9798 27.8801C26.684 27.8158 26.4004 27.7043 26.1398 27.5501C25.8502 27.3628 25.5146 27.259 25.1698 27.2501C24.8971 27.2499 24.6288 27.3187 24.3898 27.4501C24.0848 27.5989 23.7668 27.7194 23.4398 27.8101L23.2498 27.8501L23.249 27.8503C22.9894 27.9002 22.7798 27.9405 22.7498 28.2901C22.7198 28.6401 22.9398 28.9901 23.0798 28.7901ZM25.0098 29.0801C24.4098 29.0801 23.8998 29.4201 23.5998 29.7001C23.1798 30.0801 23.2198 30.3601 23.7998 30.3601H24.1398C24.6089 30.392 25.0801 30.3583 25.5398 30.2601H25.5598L25.567 30.2584L25.567 30.2584C25.934 30.1691 26.2523 30.0917 26.6298 30.3301C27.1698 30.6963 27.6722 31.115 28.1298 31.5801L28.1498 31.6001L28.1798 31.6301C28.2494 31.7209 28.3484 31.7846 28.4598 31.8101C28.7598 31.8601 28.5698 31.5601 28.4298 31.3801C27.7498 30.4801 26.2098 29.0801 25.0098 29.0801ZM24.8499 30.9199C24.4499 30.9199 23.1099 31.4799 23.5999 31.9999C23.8999 32.3199 24.6299 32.3199 25.2099 32.2499C25.5546 32.205 25.8955 32.1348 26.2299 32.0399C27.1199 32.0399 28.2599 33.4799 28.7299 34.1999C28.7299 34.1234 28.7315 34.0162 28.7333 33.8932L28.7333 33.893C28.738 33.5821 28.7442 33.1693 28.7299 32.8899C28.6899 32.3899 28.1999 31.7099 27.5399 31.7699C27.2045 31.8219 26.8613 31.7658 26.5599 31.6099C25.6999 30.9099 25.3199 30.9099 24.9599 30.9099L24.8499 30.9199ZM23.2499 35.8199C23.5399 35.3599 24.1499 34.6899 24.9799 34.6599C25.3325 34.6585 25.6773 34.7631 25.9699 34.9599C26.4032 35.2455 26.565 35.2595 26.7895 35.279L26.7999 35.2799C27.0277 35.2889 27.2531 35.3293 27.4699 35.3999C27.8499 35.4999 28.2599 35.7599 28.6199 36.2699C28.7599 36.4499 28.7599 36.5799 28.7499 36.7999V37.5499C28.6099 37.5899 28.1499 37.3999 27.3499 36.4699C26.9499 35.9999 26.4899 35.9999 25.8999 36.0099H23.3599C23.3374 36.0106 23.3151 36.0052 23.2954 35.9943C23.2757 35.9833 23.2594 35.9673 23.2481 35.9478C23.2368 35.9283 23.231 35.9061 23.2313 35.8836C23.2316 35.8611 23.2381 35.8391 23.2499 35.8199ZM22.1899 38.6501C22.3808 38.3248 22.5351 37.9794 22.6499 37.6201L22.6498 37.6101C22.7494 37.2518 22.9084 37.2798 23.0775 37.3097L23.0798 37.3101L23.2398 37.3201C23.3319 37.2863 23.4167 37.2354 23.4898 37.1701C23.9058 36.7904 24.4467 36.5769 25.0099 36.5701C25.2266 36.557 25.4436 36.5914 25.6457 36.6709C25.8478 36.7503 26.0301 36.8729 26.1799 37.0301C26.2997 37.1623 26.4511 37.2621 26.6199 37.3201C26.7684 37.3461 26.9192 37.3561 27.0699 37.3501C27.5299 37.3401 28.0899 37.3401 28.5299 38.1101C28.5899 38.3101 28.5099 38.7201 28.3699 38.9601C28.2499 39.1901 28.1799 39.1701 28.0499 38.9901C27.7599 38.6001 27.2899 38.0101 27.0199 37.8801C26.7283 37.7618 26.4139 37.7105 26.0999 37.7301L25.8299 37.7701L25.7699 37.7901C25.3699 37.8701 24.6399 37.9301 24.1299 37.7501C23.4799 37.5201 22.8999 37.9301 22.3599 38.7501C22.3455 38.7704 22.3241 38.7845 22.2999 38.7898C22.2756 38.795 22.2502 38.7909 22.2288 38.7783C22.2075 38.7657 22.1916 38.7456 22.1843 38.7218C22.1771 38.6981 22.1791 38.6725 22.1899 38.6501ZM25.3699 32.8901C25.6599 32.9101 26.0099 33.1201 26.3299 33.3201C26.519 33.4577 26.7281 33.5657 26.9499 33.6401C27.0489 33.6574 27.1494 33.6641 27.2499 33.6601C27.5699 33.6401 27.9699 33.6301 28.4299 34.2401C28.592 34.4492 28.6956 34.6977 28.7299 34.9601L28.8899 35.9801C28.5499 35.7801 28.1699 35.3801 27.8099 34.9801C27.5869 34.7141 27.3428 34.4666 27.0799 34.2401C26.6699 33.9001 26.2399 33.9201 25.7399 34.0201C25.186 34.1496 24.6087 34.1393 24.0599 33.9901C23.5599 33.8501 23.1099 33.5201 23.8299 33.2201C24.3213 33.0254 24.8418 32.9138 25.3699 32.8901ZM29.3499 14.0501C29.1799 13.8601 27.5799 12.2501 27.0799 11.8201C27.1251 11.7507 27.1908 11.6971 27.2678 11.6667C27.3448 11.6362 27.4294 11.6304 27.5099 11.6501C27.8099 11.7201 29.4399 13.5301 29.5099 13.6501C29.5599 13.7601 29.4199 13.9601 29.3499 14.0501ZM21.1099 19.2901L21.0999 19.3001H21.1099L21.1099 19.2901ZM21.7999 18.5201C21.5842 18.7893 21.3539 19.0464 21.1099 19.2901C21.1117 18.1842 21.4227 17.2093 22.3599 16.9501L22.4099 16.9301C22.9999 16.7701 23.5499 16.6201 24.0899 16.2701C24.3539 16.0942 24.6626 15.9971 24.9799 15.9901C25.3213 16.0005 25.6533 16.1043 25.9399 16.2901C26.3799 16.5601 26.9599 16.8401 27.1799 16.8401H27.7699C27.7299 17.0801 27.5799 17.5701 27.3799 17.6001C27.2299 17.6101 27.0799 17.4501 26.9799 17.3001C26.9517 17.2414 26.9078 17.1917 26.8531 17.1564C26.7984 17.1211 26.735 17.1016 26.6699 17.1001H25.9399C25.9037 17.1013 25.8682 17.1099 25.8355 17.1254C25.8028 17.1409 25.7737 17.1629 25.7499 17.1901C25.7058 17.2379 25.6448 17.2667 25.5799 17.2701H24.3999C24.3355 17.2645 24.2752 17.2362 24.2299 17.1901C24.2102 17.1632 24.1847 17.1411 24.1553 17.1255C24.1258 17.1099 24.0932 17.1012 24.0599 17.1001H23.2399C23.0014 17.1001 22.3581 17.8604 21.8103 18.5078L21.7999 18.5201ZM21.4399 21.4701C21.0699 22.1501 21.2199 22.6501 21.3399 22.8101C21.5594 22.6729 21.7956 22.3935 22.0485 22.0944L22.1199 22.0101C22.412 21.6067 22.7664 21.2523 23.1699 20.9601C23.3832 20.8427 23.6286 20.7971 23.8699 20.8301C24.4683 20.8837 25.0699 20.8937 25.6699 20.8601H25.6999C26.0199 20.8401 26.4599 20.8101 26.4599 20.5001C26.456 20.4292 26.4324 20.3607 26.3918 20.3024C26.3511 20.2441 26.2951 20.1983 26.2299 20.1701C26.0089 20.0665 25.798 19.9427 25.5999 19.8001C25.436 19.6892 25.2427 19.6299 25.0449 19.6299C24.847 19.6299 24.6537 19.6892 24.4899 19.8001C23.5699 20.4801 22.8799 20.6201 22.6499 20.6201C22.3999 20.6201 21.7999 20.7901 21.4399 21.4701ZM20.7099 41.6902C20.6011 41.8516 20.5549 42.0471 20.5799 42.2402C20.6499 42.2002 21.2499 41.6902 21.7299 41.2402C21.8998 41.0802 22.0498 40.9103 22.1997 40.7404L22.1999 40.7402L22.6499 40.2602C23.0099 39.9102 23.5999 39.5302 24.2499 39.6802C24.8299 39.8202 25.4899 39.7802 25.7699 39.6802C26.1299 39.5502 26.8999 39.6102 27.1999 39.8802C27.3736 40.0344 27.5103 40.2258 27.5999 40.4402C27.7999 40.4402 28.2299 39.7402 28.0999 39.5902C27.7995 39.2995 27.3488 39.2717 27.03 39.2521L26.9999 39.2502C26.9055 39.2587 26.8103 39.2485 26.7199 39.2202C26.5928 39.1574 26.4777 39.0728 26.3799 38.9702L26.3307 38.9307C25.9831 38.6517 25.4983 38.2625 25.0499 38.3102C24.6899 38.3402 24.3099 38.5802 23.9299 38.8202L23.9299 38.8202C23.5699 39.0502 23.2099 39.2802 22.8499 39.3602C22.0899 39.5202 21.6299 39.7802 21.2999 40.6002C21.1766 40.9987 20.9761 41.3691 20.7099 41.6902ZM21.8298 41.5901C20.8798 42.5301 21.2298 43.1201 21.5298 43.3001L21.5298 43.2901C21.6617 43.1478 21.8479 42.9439 22.0486 42.7243C22.4259 42.3112 22.8544 41.8421 23.0698 41.6201C23.1628 41.5328 23.2733 41.4662 23.394 41.4248C23.5147 41.3834 23.6428 41.3682 23.7698 41.3801C23.8897 41.3902 24.0075 41.4171 24.1198 41.4601C24.1651 41.4759 24.2121 41.4859 24.2598 41.4901C24.8711 41.6374 25.5086 41.6374 26.1198 41.4901C26.1577 41.4685 26.2015 41.4598 26.2448 41.4652C26.2881 41.4706 26.3284 41.4899 26.3598 41.5201C26.4324 41.5996 26.5203 41.6636 26.6183 41.7083C26.7162 41.7529 26.8222 41.7774 26.9298 41.7801C26.9668 41.781 27.0036 41.7744 27.038 41.7606C27.0724 41.7469 27.1036 41.7263 27.1298 41.7001C27.156 41.6739 27.1766 41.6427 27.1903 41.6083C27.2041 41.5739 27.2107 41.5371 27.2098 41.5001C27.203 41.4232 27.1738 41.35 27.1258 41.2896C27.0778 41.2292 27.0132 41.1841 26.9398 41.1601C26.5815 41.011 26.234 40.8373 25.8998 40.6401C25.5698 40.4301 24.7698 40.1401 24.1898 40.6401C23.7301 41.0398 23.4002 41.09 22.9407 41.16L22.9398 41.1601L22.5798 41.2201C22.2977 41.2633 22.0358 41.3925 21.8298 41.5901Z" fill="white"/>
</svg>
