<!-- by TradingView --><svg width="56" height="56" viewBox="0 0 56 56" xmlns="http://www.w3.org/2000/svg"><path fill="#F0F3FA" d="M0 0h56v56H0z"/><path d="M13.6 28.12a9.55 9.55 0 0 1 2.8-6.63 9.36 9.36 0 0 1 13.22 0c1.76 1.75 2.64 4.98 2.67 7.48 0 .17 0 .35-.02.53.86.36 1.69.78 2.5 1.23.26-1.81.24-4.5-.31-6.25a12.15 12.15 0 0 0-7.2-7.7 11.9 11.9 0 0 0-14.3 4.72A12.2 12.2 0 0 0 11.62 32c.75-.58 1.64-1.26 2.23-1.67a9.51 9.51 0 0 1-.26-2.2Z" fill="#F47B20"/><path d="M29.7 27.9C16.79 23.83 9 34.86 9 34.86c7.3-3.1 9.37-1.28 15.62 2.37 7.37 4.3 11.51-.52 12-1.14C45.37 40.3 50 33.89 50 33.89c-7.82 5.13-14.7-4.23-20.3-5.99Zm-9.65 3.2c-.23-.06-.46-.1-.7-.15 5.78-1.03 10 .96 15.94 4.43.45.26.89.48 1.31.69-6.38 4.07-11.93-3.71-16.55-4.96Z" fill="#005CAB"/></svg>