<!-- by TradingView --><svg width="56" height="56" viewBox="0 0 56 56" xmlns="http://www.w3.org/2000/svg"><path fill="#F0F3FA" d="M0 0h56v56H0z"/><path d="M45.99 33.55a2.38 2.38 0 0 0-1.15.37l-1.03 1.04 1.56 2.2c.06.1.16.18.27.23.12.05.18.08.36.08V38h-2.71v-.53h.52c.15 0 .21-.05.21-.15 0-.05-.02-.1-.06-.17l-1.1-1.53-.86.63v.8c0 .15.04.25.17.32s.31.1.55.1V38h-2.67v-.52c.5 0 .75-.14.75-.41v-5.14c0-.28-.25-.4-.75-.4V31H42v4.68l1.93-1.72c.08-.06.12-.13.12-.2 0-.06-.02-.1-.05-.14-.03-.03-.1-.05-.18-.05h-.4V33H46v.55h-.01ZM38.6 37c0 .3.22.44.73.44V38h-2.54v-.56c.4 0 .6-.15.6-.44v-2.13c0-.4-.07-.69-.18-.86a.54.54 0 0 0-.48-.26c-.15 0-.3.04-.45.1a2.03 2.03 0 0 0-.8.67c-.1.16-.2.33-.26.51v1.98c0 .3.19.44.58.44V38H33.3v-.55c.5 0 .71-.15.71-.44v-2.93c0-.29-.2-.42-.71-.42V33h1.94v1.08c.23-.31.5-.57.84-.77.34-.2.72-.31 1.14-.31.44 0 .78.11 1.02.33.24.22.36.6.36 1.1V37ZM32.19 37.04c0 .28.1.4.27.4.08 0 .14-.04.18-.12a.6.6 0 0 0 .06-.28v-.53h.42v.4c0 .4-.1.7-.28.85-.18.16-.4.24-.7.24a.92.92 0 0 1-.4-.08.96.96 0 0 1-.27-.2.91.91 0 0 1-.18-.29 2.4 2.4 0 0 1-.1-.35c-.06.13-.14.25-.26.38-.4.42-1 .54-1.57.54-.55 0-.95-.12-1.2-.36a1.25 1.25 0 0 1-.38-.96 1.14 1.14 0 0 1 .51-1c.16-.11.35-.2.56-.26a9.65 9.65 0 0 1 1.43-.32l.72-.19v-.28c0-.4-.1-.85-.5-1.02a1.03 1.03 0 0 0-.46-.08c-.3 0-.55.03-.75.1-.2.05-.37.14-.48.24.13 0 .25.05.34.13.1.08.14.2.14.33 0 .18-.05.31-.16.42-.1.1-.26.15-.47.15-.2 0-.36-.05-.46-.16a.7.7 0 0 1-.15-.48c0-.15.04-.3.14-.45.09-.15.22-.28.4-.4.17-.12.4-.22.65-.3a4.53 4.53 0 0 1 1.67-.04c.25.05.47.14.66.26.2.13.34.3.46.51.12.22.18.5.18.83v2.37h-.02ZM31 35.27a13.79 13.79 0 0 0-1.6.54c-.18.1-.32.2-.4.32a.73.73 0 0 0-.14.46c0 .22.07.4.21.52.61.49 1.58.13 1.93-.47v-1.37ZM24.9 31c.32 0 .6.02.89.06.27.05.52.13.72.25.2.12.37.3.48.53a2 2 0 0 1 .09 1.47c-.07.16-.16.3-.27.43-.1.13-.24.23-.4.31-.15.08-.3.15-.47.2.52.05.93.22 1.22.5.3.28.46.67.46 1.17 0 .39-.06.72-.16.98-.11.27-.27.48-.48.65-.21.16-.47.28-.78.34-.31.07-.67.11-1.07.11H21v-.54c.52 0 1-.15 1-.44v-5c0-.3-.48-.44-1-.44V31h3.9Zm-1.56.82v2.21h1.41c.35 0 .6-.09.78-.27.18-.18.27-.47.27-.88 0-.35-.09-.62-.27-.8a1.1 1.1 0 0 0-.78-.26h-1.41Zm0 2.83v2.57h1.64c.23 0 .42-.03.57-.1a.93.93 0 0 0 .37-.28c.1-.12.16-.26.2-.42.04-.18.06-.36.06-.58 0-.42-.1-.73-.31-.92-.21-.19-.5-.28-.9-.28h-1.63Z" fill="#404545"/><path d="M39 23c.34 0 .64.02.92.06.29.04.54.12.76.25.22.12.39.3.5.53.13.23.19.53.19.91 0 .21-.03.4-.1.56-.07.17-.16.3-.28.43a1.7 1.7 0 0 1-.41.31c-.16.1-.32.15-.5.2.55.05.97.22 1.28.5.31.27.46.67.46 1.17 0 .4-.05.73-.16.99-.12.26-.28.48-.5.64-.22.16-.49.28-.8.35-.33.07-.7.1-1.12.1H35.2v-.53c.54 0 .8-.15.8-.44v-5c0-.3-.26-.45-.8-.45v-.57L39 23Zm-1.62.82v2.2h1.47c.36 0 .64-.1.81-.28.19-.18.34-.47.34-.86 0-.36-.16-.62-.34-.8-.19-.17-.46-.26-.81-.26h-1.47Zm0 2.83v2.58h1.7c.24 0 .44-.03.6-.1.16-.06.3-.15.39-.27.1-.13.17-.27.2-.43.05-.17.07-.36.07-.56 0-.44-.1-.74-.32-.93-.2-.19-.52-.28-.94-.28h-1.7v-.01ZM34.38 25.37l-.66.05a2.3 2.3 0 0 0-.7-1.22 1.9 1.9 0 0 0-1.33-.46c-.4 0-.74.07-1.03.21-.28.14-.5.34-.7.58-.17.24-.3.54-.39.88a4.73 4.73 0 0 0 .04 2.31c.1.33.25.6.44.83.2.21.42.38.68.49.26.1.56.16.88.16a2.3 2.3 0 0 0 1.48-.44c.37-.29.63-.7.8-1.22l.6.2c-.08.3-.2.57-.35.84a2.63 2.63 0 0 1-1.44 1.23 4.28 4.28 0 0 1-2.57-.02 2.93 2.93 0 0 1-1.86-1.7 3.81 3.81 0 0 1-.27-1.52c0-.61.1-1.14.27-1.59a2.95 2.95 0 0 1 1.82-1.76 4.16 4.16 0 0 1 2.6 0c.35.14.6.31.78.5l.23-.72h.67v2.37h.01ZM25.04 23c.32 0 .63.02.91.06.29.04.54.12.76.25.22.12.39.3.5.53.13.23.19.53.19.91a1.32 1.32 0 0 1-.38.99 1.7 1.7 0 0 1-.41.31c-.16.1-.32.15-.5.2.55.05.97.22 1.28.5.31.27.46.67.46 1.17 0 .4-.06.73-.16.99-.12.26-.28.48-.5.64-.22.16-.49.28-.8.35-.33.07-.7.1-1.12.1H21v-.53c.54 0 1-.15 1-.44v-5c0-.3-.46-.45-1-.45v-.57l4.04-.01Zm-1.63.82v2.2h1.48c.36 0 .63-.1.81-.28.19-.18.27-.47.27-.86 0-.36-.1-.62-.28-.8-.18-.17-.45-.26-.8-.26H23.4Zm0 2.83v2.58h1.71c.24 0 .44-.03.6-.1.16-.06.3-.15.38-.27.1-.13.17-.27.21-.43.05-.17.07-.36.07-.56 0-.44-.1-.74-.32-.93-.2-.19-.53-.28-.94-.28h-1.7v-.01Z" fill="#3D4543"/><path d="M18.03 24.13c.3-.24.66-.48.97-.7V26h-2v-.96c.32-.3.66-.6 1.03-.91ZM28 20v1h-1v-.83c.35-.07.64-.12 1-.17Z" fill="#007481"/><path d="M29.34 17.78C18.14 7.82 8.07 27.81 8.07 27.81c-.38.7-.74 1.44-1.07 2.19 6.27-.02 6.44 0 6.44 0s.2-1.11.49-2.35c.18-.76.37-1.46.56-2.11l.03-.08c.43-1.47.78-2.57 1.18-3.5l.05-.07a18.67 18.67 0 0 1 1.71-3.05c2.6-3.63 6.86-5.51 13.53.93a7.84 7.84 0 0 0-1.65-1.99Z" fill="#00ADBB"/><path d="M16.12 21.71a36.1 36.1 0 0 0-1.96 6.03c1.22-2.03 5.72-8 16.84-7.99 0 .01-7.15-1.68-14.88 1.96Z" fill="#007481"/><path d="M15.57 23.09c-.75 1.96-.75 1.96-1.4 4.66 1.2-2.03 5.7-8 16.83-7.99 0 0-7.72-.32-15.43 3.33Z" fill="#742E89"/></svg>