<!-- by TradingView --><svg xmlns="http://www.w3.org/2000/svg" width="56" height="56" viewBox="0 0 56 56"><path fill="#F0F3FA" d="M0 0h56v56H0z"/><path fill-rule="evenodd" d="M6.87 24H4v7h2.25c.94-.06 2.39-.54 2.4-2.1 0-1.26-1.13-1.66-1.7-1.71.48-.11 1.44-.61 1.46-1.74.01-1.13-1.02-1.44-1.54-1.45Zm-.74.4H5v2.64h.65c.95 0 1.78-.45 1.77-1.5-.01-.85-.87-1.14-1.29-1.14ZM5 27.5h1.23c.46 0 1.4.34 1.4 1.33.02 1.23-.88 1.75-1.92 1.75H5V27.5Z" fill="#262324"/><path fill="#262324" d="M10 25h1v6h-1z"/><path fill="#C92127" d="M44.54 25h1v6h-1z"/><path fill-rule="evenodd" d="M15.15 31c1.73 0 3.14-1.26 3.14-3 0-2-1.3-3-3.14-3C13.3 25 12 26.25 12 28c0 1.84 1.4 3 3.15 3Zm0-.5c1.18 0 2.14-1.05 2.14-2.5 0-1.67-.88-2.5-2.14-2.5-1.26 0-2.15 1.04-2.15 2.5 0 1.54.96 2.5 2.15 2.5Z" fill="#262324"/><path d="M24.7 30.29c-.58.44-1.32.71-2.18.71A3.45 3.45 0 0 1 19 27.5c0-2.1 1.6-3.5 3.52-3.5.77 0 1.68.12 2.36.49l-.3.91a2.54 2.54 0 0 0-1.9-.9c-1.48 0-2.74 1.16-2.68 2.97 0 1.91 1.2 2.97 2.67 2.97.95-.04 1.6-.32 2-.77l.02.62Z" fill="#C92127"/><path fill-rule="evenodd" d="m25.38 31 2.73-6h.25l2.69 6h-1.1L29 28.64h-2.03l-.9 2.36h-.69Zm1.82-2.77.84-2.06.81 2.06H27.2ZM46.33 31l2.73-6h.25L52 31h-1.1l-.95-2.36h-2.03l-.9 2.36h-.69Zm1.83-2.77.83-2.06.81 2.06h-1.64ZM32 31v-6h2.5c.48 0 1.46.28 1.54 1.38.09 1.1-1.17 1.7-1.85 1.7L36.62 31h-1.26L33 28.14V31h-1Zm1-5.7h.98c.34.03 1.03.3 1.07 1.12.06 1.02-.9 1.39-1.55 1.39H33v-2.5ZM38 25h2.97c.8-.02 2.56.5 2.53 2.74-.04 2.79-2 3.26-3.02 3.26H38v-6Zm1 .47c1.26-.2 3.51-.13 3.5 2.2-.01 2.9-1.86 2.99-3.5 2.9v-5.1Z" fill="#C92127"/></svg>