<!-- by TradingView --><svg xmlns="http://www.w3.org/2000/svg" width="56" height="56"><path fill="url(#aqg4xezwn)" d="M0 0h56v56H0z"/><path d="M35.68 18.6c1.29-.2 2.14-1.6 1.92-3.14-.23-1.53-1.46-2.63-2.75-2.44-1.28.2-2.14 1.6-1.91 3.13.11.77.48 1.43.97 1.87l-.94 1.37a2.82 2.82 0 00-3.17 4.62l-1.03 1.5a2.82 2.82 0 00-2.3-.18l-.54-1.3c1.05-.47 1.69-1.52 1.49-2.59-.24-1.27-1.59-2.1-3-1.83-1.42.27-2.38 1.51-2.14 2.79.24 1.27 1.59 2.09 3 1.83l.2-.05.56 1.34a2.82 2.82 0 00-1.42 2.03l-2.01-.15c0-.42-.13-.82-.42-1.15-.67-.79-1.94-.81-2.83-.05-.89.76-1.06 2.01-.38 2.8.67.79 1.94.8 2.83.05.38-.33.63-.75.74-1.18l2.04.15c0 .84.4 1.6 1 2.11l-1.03 1.5a2.82 2.82 0 00-3.18 4.63l-.96 1.38c-.3-.17-.65-.27-1.01-.27-1.3 0-2.36 1.26-2.36 2.81 0 1.56 1.06 2.82 2.36 2.82 1.3 0 2.35-1.26 2.35-2.82 0-.92-.37-1.75-.95-2.26l.96-1.4a2.82 2.82 0 003.18-4.63l1.02-1.49a2.82 2.82 0 002.21.3l.64 1.53c-1.2.65-1.78 1.94-1.32 3 .5 1.12 2 1.54 3.37.95 1.36-.6 2.06-2 1.56-3.12-.47-1.07-1.87-1.5-3.18-1.03l-.62-1.5a2.82 2.82 0 001.57-2.07l2.09.07c-.01.44.13.86.43 1.2.67.76 1.9.78 2.73.04.34-.3.57-.69.67-1.08h2.14c-.07.6.05 1.15.32 1.54l-1.78 2.23a2.17 2.17 0 00-1.52.36c-.87.56-1.23 1.55-.8 2.2.42.65 1.47.72 2.34.15.88-.56 1.23-1.55.8-2.2a1.1 1.1 0 00-.35-.35l1.65-2.05.26.14c.9.35 2.06-.37 2.58-1.62s.2-2.54-.7-2.9c-.9-.35-2.04.38-2.56 1.62-.06.14-.1.27-.14.4h-2.18c0-.42-.14-.83-.43-1.15-.67-.76-1.9-.78-2.73-.04-.34.3-.56.66-.66 1.05L30.24 28v-.02c0-.9-.42-1.7-1.08-2.21l1.02-1.49a2.82 2.82 0 003.19-4.64l.92-1.34c.42.25.9.36 1.39.3zm5.45-.01c.78-.05 1.35-.94 1.28-1.97-.07-1.04-.76-1.83-1.54-1.78-.78.06-1.35.94-1.28 1.98.08 1.03.77 1.83 1.54 1.77zm-12.57 0c-.73 0-1.65-.36-1.62-1.21.03-.65.64-1.29 1.51-1.52 1.02-.26 2.01.13 2.21.87.32 1.15-1.14 1.86-2.1 1.86zm-7.12.36c.45.1 1 .03 1.47-.1.96-.3 2.2-1.2 2.15-2.06a.9.9 0 00-.18-.49c-.46-.64-1.75-.65-2.9-.03-.98.53-1.52 1.36-1.37 2 .06.22.2.38.37.5l-1.25 1.66c-.45-.12-1.05.03-1.58.45a2.6 2.6 0 00-.7.85l-1.82.3a.6.6 0 00-.05-.38.47.47 0 00-.26-.2c-.49-.18-1.37.3-1.98 1.05-.52.66-.66 1.3-.38 1.59.37.37 1.2-.07 1.72-.54.3-.26.6-.64.78-1.01l1.8-.3c-.07.33-.03.65.12.9.38.61 1.34.6 2.14-.03s1.15-1.65.78-2.26a.9.9 0 00-.15-.19l1.29-1.71zm-3.21.05c-.54.43-1.35.78-1.59.31-.18-.35.08-1.04.66-1.67.68-.73 1.53-1.1 1.91-.83.1.06.16.15.18.25.14.54-.56 1.47-1.16 1.94zm-6.48 9.42c-.28.64-.86 1.38-1.35 1.2-.37-.15-.51-.8-.3-1.61.23-.94.84-1.73 1.36-1.77.13-.01.23.01.32.07.42.3.28 1.4-.03 2.1zm-.06 6.24c.44.05.85-.34 1.04-.92l2.49.31c.17.83.82 1.44 1.6 1.44.9 0 1.65-.84 1.65-1.88 0-1.03-.74-1.87-1.65-1.87-.9 0-1.63.82-1.65 1.83l-2.36-.3c.04-.43-.07-.83-.27-1.1l1.44-2.38c.9.3 1.96-.38 2.4-1.56.47-1.24.1-2.56-.84-2.95-.93-.4-2.06.28-2.52 1.52-.41 1.09-.17 2.25.54 2.77l-1.4 2.32a.64.64 0 00-.12-.03c-.51-.06-1 .51-1.1 1.28-.1.78.24 1.45.75 1.52zm26.32-10.43c.9 0 1.64-.84 1.64-1.88s-.73-1.88-1.64-1.88c-.91 0-1.65.84-1.65 1.88s.74 1.88 1.65 1.88zm5.2 5.5c.5.19 1.19-.45 1.56-1.41.37-.97.28-1.9-.2-2.1-.49-.18-1.18.46-1.56 1.43-.37.96-.28 1.9.2 2.08zm-1.68 3.93c-.6.73-1.48 1.08-2 .8-.51-.3-.45-1.11.14-1.84.59-.72 1.48-1.07 1.99-.78.51.28.45 1.1-.13 1.82zM35.6 38.5c.03.5.6.6 1.3.22.7-.38 1.24-1.1 1.21-1.6-.02-.5-.6-.6-1.29-.21-.7.38-1.24 1.1-1.22 1.6zm-3.17 1.43c1.2-.49 1.92-1.5 1.6-2.27-.3-.77-1.54-1-2.74-.5-1.2.48-1.93 1.5-1.61 2.27.2.5.77.76 1.47.76.4 0 .84-.08 1.28-.26zm-6.44.26c1.04 0 1.88-.63 1.88-1.4 0-.78-.84-1.41-1.88-1.41s-1.88.63-1.88 1.4c0 .78.84 1.41 1.88 1.41z" fill="#fff"/><defs><linearGradient id="aqg4xezwn" x1="28" y1="0" x2="28" y2="56" gradientUnits="userSpaceOnUse"><stop stop-color="#0087D4"/><stop offset="1" stop-color="#0078BF"/></linearGradient></defs></svg>