<!-- by TradingView --><svg width="56" height="56" viewBox="0 0 56 56" xmlns="http://www.w3.org/2000/svg"><path fill="#F0F3FA" d="M0 0h56v56H0z"/><path fill-rule="evenodd" d="M9 15h3.7l9.97 13.9c.77-.28 1.6-.52 2.44-.71l-.98-1.37c-.74.24-1.38.5-1.87.73.36-.43.84-.88 1.44-1.33L15.62 15h3.61l6.97 9.71c.63-.3 1.3-.6 2.03-.85L21.77 15h3.54l5.76 8.1c3.23-.6 6.9-.4 10.33 1.39 9.25 4.83 5 10.48 1.71 12.7.85-1.33 3.41-5.64-4.5-9.64A16.83 16.83 0 0 0 32 25.82V28c1.39.26 2.78.72 4.13 1.43 9.24 4.83 4.99 10.49 1.7 12.7.86-1.33 3.42-5.64-4.49-9.64-.73-.37-1.47-.67-2.22-.92L32 32.8v2c8.04 4.71 3.97 10.05.8 12.2.83-1.3 3.26-5.39-3.8-9.28l3 4.18V47l-7.97-11.09c-5.03-.96-9.9.4-12.08 1.44 1.52-1.82 5.33-4.01 9.8-4.6l-1.06-1.48c-1.55.35-2.84.8-3.7 1.22.62-.75 1.64-1.56 2.93-2.3L9 15Zm16.36 17.65c1.15.1 2.31.32 3.47.7l-1.85-2.57a20.51 20.51 0 0 0-2.96 0l1.34 1.87Zm5.79-4.78c-.94-.12-1.87-.16-2.77-.12l-1.2-1.66c.78-.13 1.6-.23 2.47-.28l1.5 2.06ZM27.46 15H32v5.88L27.46 15Z" fill="#717372"/></svg>