<!-- by TradingView --><svg width="56" height="56" viewBox="0 0 56 56" xmlns="http://www.w3.org/2000/svg"><path fill="#181B1E" d="M0 0h56v56H0z"/><path d="M13 13h16.83c.68 0 1.34.27 1.82.76l3.41 3.49a5.59 5.59 0 0 0-1.65-.25H17v20.57l-4-4.01V13Zm5.43 26 4 4h15.89C40.9 43 43 40.9 43 38.3v-1.03c0-1.31-.47-2.58-1.33-3.58l-1.85-2.14A3.18 3.18 0 0 0 43 28.36v-.52c0-1.6-.62-3.13-1.74-4.27l-2.48-2.52c.14.48.22 1 .22 1.54v1.16c0 2.06-1.67 3.25-3.73 3.25H33v1h2.28c2.05 0 3.72 1.8 3.72 3.95v1.21C39 36.4 36.5 39 33.41 39H18.43Zm8.65-17H24v4h6.16c1.02 0 1.84-.74 1.84-1.65v-.7c0-.91-.82-1.65-1.84-1.65h-3.08ZM24 35v-4h6.16c1.02 0 1.84.74 1.84 1.65v.7c0 .91-.82 1.65-1.84 1.65H24Z" fill="#fff"/></svg>