<!-- by TradingView --><svg xmlns="http://www.w3.org/2000/svg" width="56" height="56" viewBox="0 0 56 56"><path fill="#002A50" d="M0 0h56v56H0z"/><path fill-rule="evenodd" d="M26.39 12.65a.94.94 0 0 1-.87.2l-1.53 2.83c.07.06.14.14.19.22l4.97-1.33c0-.08.02-.16.05-.24l-2.81-1.68zm.28-.42l2.8 1.68a.94.94 0 0 1 1.23 0l2.75-1.7h-6.78v.02zm-1.82-.07a.94.94 0 0 1 .92-1.16c.44 0 .8.3.91.7h6.82a.94.94 0 1 1 1.53.95l1.64 2.83.16-.02a.94.94 0 1 1-.77 1.48l-2.19.75v.03a.94.94 0 1 1-1.85.27h-3.76a.94.94 0 0 1-1.57.4l-3.22 1.9a.94.94 0 0 1-1.1 1.15l-1.84 3.3a.93.93 0 0 1-.38 1.54v3.57a.94.94 0 0 1 .54 1.59l1.83 3.1a.95.95 0 0 1 1.15.92c0 .08-.01.16-.03.23l3.18 1.86a.94.94 0 0 1 1.55.42l3.49-.07a.94.94 0 0 1 1.86.28l2.32.9a.94.94 0 0 1 1.63.94l2.81 2.39a.94.94 0 0 1 1.52.74.94.94 0 1 1-1.85.27l-4.79.8a.94.94 0 0 1-1.8.17h-6.9a.94.94 0 0 1-1.8-.53l-5.96-3.41a.94.94 0 0 1-1.33-1.34l-3.34-5.93a.95.95 0 0 1-1.23-.9c0-.45.32-.82.74-.91V24.6a.94.94 0 1 1 .47-1.82l3.39-5.89a.94.94 0 1 1 1.3-1.35l5.95-3.38zm-6.26 4.94c.28-.11.5-.35.58-.64l3.28.14c.02.08.05.16.09.22L18.9 20.5a.95.95 0 0 0-.2-.09l-.1-3.31zm-.55.03l.05.01.1 3.25a.94.94 0 0 0-.7 1.12l-2.84 1.52 3.4-5.9zm-.3 4.82l-2.87 1.53a.94.94 0 0 1-.2.81l1.68 2.8a.95.95 0 0 1 .29-.04l1.34-4.91a.95.95 0 0 1-.25-.19zm.74.3l-1.36 4.94.08.06 1.8-1.47a.93.93 0 0 1 .36-1.19l-.81-2.35h-.07zm.53-.21l.83 2.41h.01c.09 0 .17.01.25.03l1.83-3.27a.94.94 0 0 1-.22-.28l-2.35.44a.94.94 0 0 1-.35.67zm.25-1.16l2.36-.44a.94.94 0 0 1 .9-.86l.4-2.37-.04-.02-3.63 3.67v.02zm4.15-3.56l-.4 2.37c.08.04.15.1.22.16l3.21-1.9a.94.94 0 0 1-.02-.23l-2.29-.79a.94.94 0 0 1-.72.4zm.9-.86l2.24.77a.94.94 0 0 1 1.18-.38l1.55-1.75a.9.9 0 0 1-.02-.04l-4.95 1.33a1 1 0 0 1 0 .07zm5.34-1.01l-1.53 1.72c.07.1.13.2.16.32H32c.03-.1.07-.18.12-.27l-1.6-1.77a.94.94 0 0 1-.88 0zm1.25-.34l1.6 1.77a.94.94 0 0 1 1.22.33l2.17-.74a.96.96 0 0 1 0-.1l-4.96-1.31c0 .02-.02.03-.03.05zm.14-.54l5 1.33a.95.95 0 0 1 .17-.2l-1.64-2.84a.96.96 0 0 1-.82-.25l-2.76 1.7c.03.09.04.17.05.26zm-11.72 11.6l-1.81 1.48a.93.93 0 0 1-.02.74l2.04 1.58a.96.96 0 0 1 .11-.05V26.3a.94.94 0 0 1-.32-.14zm-.14 4.17l-2.02-1.57a.96.96 0 0 1-.06.03l1.36 4.94a.9.9 0 0 1 .07 0l.8-2.32a.93.93 0 0 1-.15-1.08zm.6 1.35L19 33.93c.2.16.34.4.36.69l2.5.45a.94.94 0 0 1 .22-.3l-1.82-3.08a.95.95 0 0 1-.49 0zm2 3.87l-2.52-.45-.02.03 3.61 3.67a.95.95 0 0 1 .1-.06l-.3-2.35a.94.94 0 0 1-.87-.84zm1.37.74l.3 2.37c.3.03.55.2.7.43l2.38-.8a.99.99 0 0 1 .03-.32l-3.18-1.85a.95.95 0 0 1-.23.17zm3.54 2.47l-2.4.8a1.13 1.13 0 0 1 0 .06l4.98 1.29a.95.95 0 0 1 .05-.07l-1.46-1.76a.95.95 0 0 1-1.17-.32zm1.56 0l1.47 1.78a.95.95 0 0 1 .74.02l1.6-1.87a.94.94 0 0 1-.18-.3l-3.5.07c-.03.1-.07.2-.13.3zm4.22.22l-1.62 1.9.02.04 5.01-1.3a.86.86 0 0 1 0-.08l-2.34-.9a.94.94 0 0 1-1.07.34zm3.57 1.12L31 41.4v.01c0 .09 0 .17-.03.24l2.75 1.77a.94.94 0 0 1 .9-.29l1.56-2.85a.94.94 0 0 1-.15-.18zm.6.4l-1.56 2.87c.1.1.19.21.24.35l4.82-.82.04-.1-2.86-2.42a.94.94 0 0 1-.68.12zm-3.13 3.37l-2.78-1.78a.94.94 0 0 1-1.3.02l-2.73 1.77h6.8zm-4.38-2.48a.94.94 0 0 0 .03.29l-2.68 1.75a.94.94 0 0 0-.9-.3l-1.6-2.84a.94.94 0 0 0 .16-.19l4.99 1.29zm-6.67-1.48a.94.94 0 0 0 1.07.6l1.6 2.85a.97.97 0 0 0-.04.04l-5.92-3.38.01-.03 3.28-.08zm.05-.74a.93.93 0 0 0-.08.24l-3.24.08a.94.94 0 0 0-.66-.66l.15-3.26a.94.94 0 0 0 .2-.09l3.63 3.69zm-5.01-4.72a.94.94 0 0 0 .67 1.12l-.14 3.25-.03.01-3.35-5.94 2.85 1.56zm.47-.6a.95.95 0 0 0-.23.16l-2.87-1.58a.93.93 0 0 0-.22-.78l1.74-2.76c.07.02.15.03.22.03l1.36 4.92zm-2.04-6.5a.93.93 0 0 0 .02 1.29l-1.7 2.72v-6.8l1.68 2.8zm7.6-11.9a.95.95 0 0 0-1.06.64l-3.28-.14 5.89-3.36-1.54 2.86z" fill="url(#adh521kml)"/><defs><linearGradient id="adh521kml" x1="29.08" y1="11" x2="27.5" y2="45" gradientUnits="userSpaceOnUse"><stop stop-color="#36C5E9"/><stop offset="1" stop-color="#2299EB"/></linearGradient></defs></svg>