<!-- by TradingView --><svg xmlns="http://www.w3.org/2000/svg" width="56" height="56"><path fill="#F0F3FA" d="M0 0h56v56H0z"/><path fill-rule="evenodd" d="M4 22h4.47c1.5 0 2.7 1.2 2.7 2.7v.38a2.7 2.7 0 01-1.78 2.54 2.8 2.8 0 012.22 2.74v.84A2.8 2.8 0 018.8 34H4V22zm2 1.43h1.5c.94 0 1.7.76 1.7 1.7v.17c0 .94-.76 1.7-1.7 1.7H6v-3.57zm0 4.93h1.77c1 0 1.8.8 1.8 1.8v.64c0 1-.8 1.8-1.8 1.8H6v-4.24z" fill="#2D488D"/><path fill="#2D488D" d="M18.59 25h2v9h-2z"/><path fill="#1A934C" d="M46.5 22h2v12h-2zm3.5 0h2v12h-2z"/><path d="M15 27.84V34h-2v-9h2v1.3c.79-1.4 1.97-1.4 2.5-1.21v1.8c-1.45-.4-2.17.18-2.5.95z" fill="#2D488D"/><path d="M17.94 19.6l-1.33-1.33c.86-.45 1.19-1.03 1.24-1.27l1.36 1.41-1.27 1.19z" fill="#1A934C"/><path d="M21.24 19.6l1.33-1.33c-.86-.45-1.18-1.03-1.24-1.27l-1.36 1.41 1.27 1.19z" fill="#C42324"/><path d="M21.24 20.4l1.33 1.33c-.86.45-1.18 1.03-1.24 1.27l-1.36-1.41 1.27-1.19z" fill="#69308D"/><path d="M17.94 20.4l-1.33 1.33c.86.45 1.19 1.03 1.24 1.27l1.36-1.41-1.27-1.19z" fill="#F89520"/><path fill-rule="evenodd" d="M19.61 21.91a1.9 1.9 0 100-3.81 1.9 1.9 0 000 3.81zm0-1.21a.7.7 0 100-1.39.7.7 0 000 1.39zM22 28c0-.97.62-3.08 3.46-3 2.83.08 2.96 1.7 2.96 2.8v4.52c.02.25.04.63.58.45v1.13c-.69.23-2.13.12-2.4-1.15A2.83 2.83 0 0124.4 34c-1.4 0-2.4-.84-2.4-2.37 0-1.53.66-2.51 2.4-2.8 1.74-.27 1.96-.66 1.96-1.39 0-.72-.3-1.21-1.05-1.21S23.99 26.87 24 28h-2zm4.39 1.44v1.63c0 .52-.3 1.57-1.39 1.6-1.07 0-1.12-1.32-.88-1.89.1-.25.33-.6.88-.8.56-.18 1.18-.44 1.39-.54z" fill="#2D488D"/><path d="M34.4 21c3.12.02 3.7 2.64 3.59 4H36c0-.93 0-2.52-1.76-2.5-2.36.02-2.25 3.4-2.25 5s0 5 2.25 5c1.7 0 1.76-2.33 1.76-3.5h2c0 1.08 0 5-3.74 5-3.78 0-4.17-3.12-4.24-6.5-.08-3.38.48-6.52 4.39-6.5z" fill="#1A934C"/><path fill-rule="evenodd" d="M45.46 28.08c-.02-1.18-.5-3.07-2.95-3.08-3.12-.02-3.51 2.18-3.51 4.5 0 2.34.34 4.5 3.39 4.5 2.88 0 2.99-2.4 2.99-3H43.5c0 .52 0 1.8-1.11 1.8-1.19 0-1.36-1.7-1.39-2.8h4.5v-.17c0-.4 0-1.13-.04-1.75zM43.5 28v-.1c0-.4-.09-1.66-1.18-1.66-1.02 0-1.25 1.2-1.3 2.45h2.48V28z" fill="#1A934C"/></svg>