<!-- by TradingView --><svg width="56" height="56" viewBox="0 0 56 56" xmlns="http://www.w3.org/2000/svg"><path fill="#F0F3FA" d="M0 0h56v56H0z"/><path d="M10.66 25c-.8 0-1.34.55-1.66 1.29V22H8v9h.85l.03-1.22c.3.75.98 1.22 1.78 1.22 1.29 0 2.34-1.16 2.34-2.95 0-1.8-1.07-3.05-2.34-3.05Zm-.2 5C9.54 30 9 29.2 9 28s.55-2 1.46-2c.9 0 1.54.73 1.54 2s-.62 2-1.54 2ZM15 31h1v-6h-1v6Zm7.5-3c0 1.85-1.07 3-2.5 3-1.42 0-2.5-1.15-2.5-3 0-1.83 1.07-3 2.5-3s2.5 1.17 2.5 3Zm-4-.02c0 1.33.58 2.02 1.5 2.02s1.5-.7 1.5-2.02c0-1.3-.56-1.98-1.5-1.98-.92 0-1.5.68-1.5 1.98ZM28 22v4.1a1.67 1.67 0 0 0-1.65-1.1C25.07 25 24 26.26 24 28.05c0 1.79 1.07 2.95 2.35 2.95.79 0 1.25-.2 1.65-.86V31h1v-9h-1Zm-1.47 8c-.92 0-1.53-.68-1.53-1.95S25.6 26 26.53 26c.92 0 1.47.85 1.47 2.05.01 1.19-.55 1.95-1.47 1.95Zm7.05-5c1.4 0 2.42.96 2.42 2.9l-.01.1H31.9c.03 1.34.79 2 1.7 2 .64 0 1.17-.23 1.46-.88l.83.19A2.42 2.42 0 0 1 33.6 31C32.08 31 31 29.9 31 28c0-1.88 1.1-3 2.58-3Zm1.3 2c-.28-.77-.49-1-1.3-1-.83 0-1.16.37-1.38 1h2.67Zm1.78 4h1.16l1.5-2.27 1.5 2.27h1.16l-2.09-3 2.09-3h-1.15l-1.5 2.29-1.5-2.29h-1.17l2.08 2.98L36.66 31Zm9.78-.9a2.1 2.1 0 0 1-1.78.9c-.89 0-1.65-.48-1.66-1.6 0-1.2.88-1.6 2.06-1.82l.29-.04c.49-.05 1.15-.13 1.15-.65 0-.53-.66-.89-1.28-.89-.63 0-1.18.25-1.24.84l-.86-.18c.17-1.13.96-1.66 2.16-1.66 1.07 0 2.22.48 2.22 2v2.4c0 .6.02.6.37.6H48v1h-.48c-.54 0-.92-.34-1.02-.9h-.05ZM44 29.34c0 .6.36.67.88.67.95 0 1.62-.6 1.62-1.92l-1.46.3c-.71.12-1.04.37-1.04.95Z" fill="#0D3D74"/><path d="M16.27 23.42c0 .09-.02.17-.06.26a.58.58 0 0 1-.14.22.58.58 0 0 1-.22.15.84.84 0 0 1-.27.06.57.57 0 0 1-.26-.06.58.58 0 0 1-.22-.15.58.58 0 0 1-.14-.22c-.03-.09-.06-.17-.06-.26 0-.1.01-.18.06-.27a.58.58 0 0 1 .14-.22.58.58 0 0 1 .22-.15c.09-.03.18-.06.26-.06.1 0 .18.02.27.06.08.03.16.1.22.15.05.06.11.13.14.22.04.1.06.18.06.27ZM29.64 33.73c-.2 0-.36.07-.46.2V33h-.39v2.24h.39v-.83c0-.3.16-.37.3-.37.15 0 .26.07.26.29v.9h.4v-.98c0-.34-.2-.52-.5-.52Zm-1.82 0c-.19 0-.36.07-.43.23l-.01-.2H27V36h.39v-.91c.09.14.24.21.43.21.38 0 .68-.29.68-.78 0-.5-.3-.8-.68-.8Zm-.08 1.2c-.22 0-.38-.17-.38-.43s.16-.43.38-.43c.2 0 .37.15.37.43s-.17.43-.37.43Zm3.92-.66v.84l.01.1v.05h-.36l-.03-.17a.6.6 0 0 1-.45.18c-.21 0-.43-.1-.43-.41 0-.31.22-.42.5-.48l.24-.07c.1-.03.13-.06.13-.12 0-.14-.12-.18-.23-.18-.15 0-.25.06-.28.23l-.34-.06c.05-.31.27-.45.65-.45.28 0 .59.09.59.54Zm-.87.57c0 .12.07.17.17.17.2 0 .35-.14.35-.48l-.33.1c-.13.04-.19.1-.19.21Zm1.64-.87-.02-.21h-.37v1.5h.39v-.73c0-.32.14-.42.43-.42v-.37c-.17 0-.36.11-.43.23Zm1.9-.01c.1-.16.25-.23.44-.23.3 0 .49.15.49.48v1.05h-.39v-.95c0-.17-.1-.24-.22-.24-.13 0-.26.07-.26.34v.85H34v-.93c0-.19-.1-.26-.23-.26s-.26.09-.26.37v.82h-.39v-1.5h.39v.17c.09-.13.23-.2.4-.2.2 0 .36.09.44.23Zm2.45.93v-.62c0-.45-.3-.54-.59-.54-.37 0-.59.14-.65.45l.35.06c.03-.17.13-.23.27-.23.12 0 .23.04.23.18 0 .06-.02.1-.13.12l-.23.07c-.28.06-.5.17-.5.48 0 .3.22.41.43.41a.6.6 0 0 0 .45-.18l.03.17h.36V35.1l-.02-.22Zm-.69.12c-.1 0-.17-.05-.17-.17 0-.1.06-.17.19-.2l.33-.1c0 .33-.16.47-.35.47Zm2.4-.3a.67.67 0 0 1-.69.56c-.43 0-.75-.3-.75-.8 0-.46.32-.77.75-.77.36 0 .62.2.7.55l-.37.05c-.04-.19-.17-.26-.33-.26-.21 0-.36.18-.36.44 0 .27.15.45.36.45.17 0 .29-.07.33-.26l.36.05Zm1.6-.23c0-.52-.3-.75-.7-.75-.43 0-.73.3-.73.79 0 .49.3.77.75.77.31 0 .56-.17.66-.48l-.36-.06a.3.3 0 0 1-.3.2c-.2 0-.35-.13-.37-.37h1.04v-.1Zm-.7-.46c.17 0 .29.1.3.33h-.65c.05-.24.16-.33.35-.33Zm1.92.57v-.82h.4v1.5h-.37l-.02-.18a.54.54 0 0 1-.44.21c-.34 0-.52-.2-.52-.52v-1h.39v.9c0 .2.11.28.24.28.18 0 .32-.09.32-.37Zm1.58.67v-.33h-.13c-.1 0-.16-.06-.16-.2v-.66h.3v-.33h-.3v-.48h-.36v.2c0 .24-.08.28-.23.28h-.08v.33h.27v.7c0 .32.16.49.43.49h.26Zm.74-1.98c0 .14-.11.25-.23.25-.13 0-.23-.11-.23-.25s.1-.25.23-.25.23.1.23.25Zm-.04 1.98h-.39v-1.5h.39v1.5Zm1.03.01c.35 0 .62-.2.7-.55l-.37-.05c-.04.19-.15.26-.33.26-.21 0-.36-.18-.36-.45 0-.26.15-.44.36-.44.16 0 .3.07.33.26l.37-.05c-.08-.35-.34-.55-.7-.55-.43 0-.75.3-.75.77 0 .5.32.8.75.8Zm1.53-1.54c.3 0 .6.09.6.54v.62l.01.32v.05h-.36l-.03-.17a.6.6 0 0 1-.45.18c-.21 0-.43-.1-.43-.41 0-.31.22-.42.5-.48l.24-.07c.1-.03.13-.06.13-.12 0-.14-.12-.18-.23-.18-.15 0-.25.06-.28.23l-.34-.06c.05-.31.27-.45.64-.45Zm-.27 1.11c0 .12.07.17.17.17.2 0 .34-.14.35-.48l-.33.1c-.13.04-.19.1-.19.21Zm1.25.42h.4v-2.24h-.4v2.24Zm1.87-.44c0 .34-.27.47-.58.47-.31 0-.56-.14-.59-.42l.33-.1c.03.16.15.22.28.22.1 0 .2-.03.2-.15s-.13-.15-.3-.2l-.15-.05c-.17-.06-.33-.17-.33-.41 0-.31.23-.45.55-.45.26 0 .52.12.58.4l-.34.08c-.04-.14-.13-.19-.24-.19-.1 0-.19.05-.19.14 0 .1.13.13.29.17l.04.02c.22.06.45.15.45.47Z" fill="#02B5F7"/><path d="M27.65 15.46c0 .06-.01.11-.03.17a.53.53 0 0 1-.24.25c-.06.03-.12.03-.18.03a.72.72 0 0 1-.17-.03.52.52 0 0 1-.25-.25c-.03-.06-.03-.11-.03-.17l.03-.18a.53.53 0 0 1 .25-.25c.05-.03.11-.03.17-.03l.18.03c.05.01.1.06.14.1.05.05.08.1.1.15l.03.18Zm-3.25.42-.03.18a.53.53 0 0 1-.25.25c-.05.03-.11.03-.17.03l-.18-.03a.52.52 0 0 1-.24-.25c-.03-.06-.03-.12-.03-.18l.03-.17a.53.53 0 0 1 .24-.25c.06-.03.12-.03.18-.03s.12.01.17.03a.52.52 0 0 1 .25.25l.03.17Zm6.71.05-.03.15a.23.23 0 0 1-.09.11.8.8 0 0 1-.11.1l-.15.02c-.06 0-.1-.01-.14-.03a.23.23 0 0 1-.12-.09l-.09-.11a.53.53 0 0 1-.03-.15l.03-.15a.23.23 0 0 1 .09-.12l.12-.09.14-.02.15.02c.04.02.08.05.11.1l.1.11.02.15Zm2.3 1.1c0 .04 0 .07-.02.1v.02l-.04.07-.02.04a.23.23 0 0 1-.1.05l-.03.01a.25.25 0 0 1-.1.02c-.03 0-.05 0-.08-.02h-.03l-.07-.04a.3.3 0 0 0-.03-.02.24.24 0 0 1-.06-.1v-.03c-.02-.03-.03-.06-.03-.1l.02-.09.01-.02.03-.06.03-.05a.23.23 0 0 1 .1-.06h.03a.25.25 0 0 1 .09-.03l.09.03h.03l.05.03c.01.01.03.03.05.03.03.03.04.06.06.1l.02.12ZM19.84 19a.67.67 0 0 0 0-.48.56.56 0 0 0-.14-.19.44.44 0 0 0-.19-.13.65.65 0 0 0-.46 0 .55.55 0 0 0-.2.13.45.45 0 0 0-.12.2.62.62 0 0 0-.05.23c0 .09.02.16.05.24.03.07.07.13.13.19.04.06.12.1.19.13a.6.6 0 0 0 .23.04.55.55 0 0 0 .42-.18c.06-.04.1-.11.14-.18Zm15.96.15.02-.1c0-.04 0-.08-.03-.11a.24.24 0 0 0-.06-.1.26.26 0 0 0-.1-.08l-.02-.01a.25.25 0 0 0-.1-.02c-.03 0-.05 0-.09.02h-.02l-.03.03a.37.37 0 0 0-.07.05l-.02.04a.27.27 0 0 0-.05.1.25.25 0 0 0-.02.08c0 .04 0 .06.02.1v.02c.02.05.04.08.07.1l.1.08h.02c.04.02.06.03.1.03l.09-.02h.01l.01-.01.03-.02a.37.37 0 0 0 .07-.05.3.3 0 0 1 .02-.04.27.27 0 0 0 .05-.1Zm1.64 1.95c0 .04 0 .06-.02.1v.02l-.05.07a.3.3 0 0 0-.02.03.37.37 0 0 1-.07.06l-.03.02h-.02a.25.25 0 0 1-.1.03l-.09-.02-.02-.01a.44.44 0 0 1-.1-.08.24.24 0 0 1-.06-.1.28.28 0 0 1-.03-.12c0-.03 0-.06.02-.09v-.02l.04-.07.03-.04a.38.38 0 0 1 .07-.05l.03-.02.02-.01.1-.02c.03 0 .05 0 .09.02h.02l.1.08c.03.03.05.06.06.1.02.03.03.08.03.12Zm.88 2.44.01-.1-.01-.08c0-.03-.03-.06-.05-.07-.01-.02-.04-.03-.07-.05l-.09-.01-.09.01c-.03 0-.05.03-.07.05a.32.32 0 0 0-.04.07c-.02.03-.02.06-.02.09s0 .06.02.09c0 .03.03.05.04.07l.07.04c.03.02.06.02.1.02.02 0 .05 0 .08-.02.03 0 .06-.03.07-.04l.05-.07Zm-20.28-2.78c0 .1-.01.17-.04.24a.45.45 0 0 1-.13.2.56.56 0 0 1-.43.17.6.6 0 0 1-.23-.05.45.45 0 0 1-.19-.13.56.56 0 0 1-.17-.43c0-.07.01-.16.04-.23a.45.45 0 0 1 .13-.2.56.56 0 0 1 .42-.17c.08 0 .16.01.24.04.07.03.14.08.19.14a.56.56 0 0 1 .17.42Zm3.72-3.5a.52.52 0 0 0 .04-.21.47.47 0 0 0-.04-.2.53.53 0 0 0-.12-.18c-.05-.06-.11-.1-.17-.12a.51.51 0 0 0-.2-.05.46.46 0 0 0-.2.05.52.52 0 0 0-.18.12c-.06.05-.1.11-.12.17a.52.52 0 0 0-.04.2.53.53 0 0 0 .16.38c.05.07.11.1.17.13.07.03.13.04.2.04.08 0 .15-.01.2-.04a.52.52 0 0 0 .3-.3ZM34.3 36.67a.62.62 0 0 0 .04-.24.56.56 0 0 0-.17-.43.44.44 0 0 0-.2-.13.6.6 0 0 0-.22-.04.56.56 0 0 0-.42.18.45.45 0 0 0-.14.19.67.67 0 0 0 0 .47c.03.07.07.13.13.2a.6.6 0 0 0 .42.18.56.56 0 0 0 .42-.18c.07-.05.11-.13.14-.2Zm-3.2 1.4c0 .08 0 .13-.04.2a.52.52 0 0 1-.3.3.46.46 0 0 1-.2.05.51.51 0 0 1-.2-.05c-.06-.03-.11-.06-.17-.12a.53.53 0 0 1-.12-.17.52.52 0 0 1 0-.41.53.53 0 0 1 .3-.3.46.46 0 0 1 .2-.04c.07 0 .13.01.2.04a.53.53 0 0 1 .3.3c.02.07.04.14.04.2Zm-3.04.65.03-.18c0-.06-.01-.1-.03-.15v-.02a.53.53 0 0 0-.25-.25.72.72 0 0 0-.18-.03c-.05 0-.11 0-.17.03a.52.52 0 0 0-.15.1c-.04.04-.08.09-.1.15a.75.75 0 0 0-.03.17c0 .06 0 .12.03.18a.53.53 0 0 0 .25.25l.17.03c.06 0 .12 0 .18-.03a.52.52 0 0 0 .25-.25Zm-3.7-.8c0 .05 0 .1-.02.15a.23.23 0 0 1-.09.12l-.12.09a.43.43 0 0 1-.14.03.43.43 0 0 1-.15-.03.23.23 0 0 1-.11-.1l-.1-.1a.53.53 0 0 1-.02-.16c0-.04.01-.1.03-.14a.23.23 0 0 1 .09-.12.8.8 0 0 1 .11-.09l.15-.03.14.03c.05.01.1.04.12.09l.09.12.03.14Zm-3.12-1.17a.25.25 0 0 0 .02-.1.46.46 0 0 0-.03-.11.24.24 0 0 0-.06-.1l-.03-.03-.07-.03-.02-.01-.1-.02c-.03 0-.06 0-.09.02h-.02a.24.24 0 0 0-.1.06l-.03.06c-.01.02-.03.03-.03.05l-.01.02-.02.1c0 .03 0 .06.02.09v.02c.02.05.04.08.07.1l.05.04.05.03h.02c.03.02.06.03.1.03l.09-.02.02-.01a.23.23 0 0 0 .1-.06l.02-.04a.27.27 0 0 0 .04-.07l.01-.02Zm-2.21-1.85L19 35l-.01.02a.24.24 0 0 1-.06.1.23.23 0 0 1-.1.06l-.03.01a.25.25 0 0 1-.09.02c-.03 0-.06 0-.09-.02h-.02a.23.23 0 0 1-.1-.07.24.24 0 0 1-.06-.1l-.01-.03-.02-.09c0-.03 0-.06.02-.09v-.03l.04-.07.02-.03a.23.23 0 0 1 .1-.06.27.27 0 0 1 .12-.03l.1.02.02.01.07.04a.3.3 0 0 0 .03.02c.03.03.05.06.06.1v.03c.02.03.03.06.03.1Zm-1.75-2.47.01-.1-.01-.08c0-.03-.03-.06-.05-.08a.32.32 0 0 0-.07-.04l-.09-.01-.08.01c-.03 0-.06.03-.08.04a.33.33 0 0 0-.04.08l-.01.09.01.09.04.07.08.04c.03.02.06.02.08.02.03 0 .06 0 .1-.02.02 0 .05-.03.06-.04a.32.32 0 0 0 .05-.07Z" fill="#0D3D74"/></svg>