<!-- by TradingView --><svg xmlns="http://www.w3.org/2000/svg" width="56" height="56" viewBox="0 0 56 56"><path fill="#F0F3FA" d="M0 0h56v56H0z"/><path d="M17.22 33.66c1.27 2.13 3.03 5.48 5.63 9.52A16 16 0 0 1 12 28.03V27a22.94 22.94 0 0 1 5.2 6.67h.02Zm13.13 7.83c-3.82-5.5-6.28-10.12-7.86-12.82-.94-1.81-4.25-7.52-8.53-8.34-.53.97-.96 1.98-1.27 3.04 1.66.94 3.06 2.3 4.07 3.92 2.61 3.86 5.02 7.86 7.21 11.97A29.67 29.67 0 0 0 27.28 44h.74c1.4 0 2.8-.18 4.15-.55a11 11 0 0 1-1.82-1.97ZM27.4 17.28c2.6 3.86 5.02 7.86 7.22 11.98 1.37 2.54 3.75 6.09 6.68 7.64.68-1.01 1.24-2.1 1.67-3.24a10.73 10.73 0 0 1-1.98-2.11c-3.82-5.52-6.27-10.13-7.84-12.74a22.52 22.52 0 0 0-5.3-6.81c-1.92.01-3.8.37-5.59 1.04 1.43.35 3.08 1.4 5.14 4.27v-.03ZM33 12.8c2.25 3.3 5.74 9.25 6.93 11.57a26.62 26.62 0 0 0 3.97 5.47A16.01 16.01 0 0 0 33 12.8Zm2.67 23.67c-3.82-5.5-6.26-10.13-7.84-12.75-1.35-2.54-7.37-12.74-14.09-6.37l.45.61c.47 0 .96-.09 1.46-.09 1.74 0 3.82.63 6.46 4.43 2.62 3.86 5.03 7.86 7.23 11.98 1.38 2.43 3.76 6.05 6.7 7.58 2.13 1.1 4.56 1.08 7.12-1.28l-.4-.7s-3.65 1.35-7.09-3.41Z" fill="#00A160"/></svg>