<!-- by TradingView --><svg xmlns="http://www.w3.org/2000/svg" width="56" height="56"><path fill="#F0F3FA" d="M0 0h56v56H0z"/><path d="M13.37 19.13L13 16.48c-.43.12-.83.3-1.22.48l1.6 2.17z" fill="url(#a5kc1fxa5)"/><path d="M10.38 21.35l-1.6-2.16c-.3.31-.58.67-.85 1l2.45 1.16z" fill="url(#b5kc1fxa5)"/><path d="M12.22 20.67l-1.86-4.53c-.7.43-1.33.9-1.95 1.4l3.8 3.13z" fill="#5DB997"/><path d="M22.92 22.85l2.66-.53a9.1 9.1 0 00-.57-1.19l-2.09 1.72z" fill="#F9DA03"/><path d="M8.82 24.73l-2.48-1.15c-.11.42-.2.86-.27 1.3l2.75-.15z" fill="#39BAA8"/><path d="M9.38 22.92l-2.1-1.7c-.23.4-.41.8-.57 1.2l2.67.5z" fill="url(#c5kc1fxa5)"/><path d="M20.53 20.02l2.05-1.74c-.33-.28-.7-.53-1.08-.76l-.97 2.5z" fill="url(#d5kc1fxa5)"/><path d="M15.2 18.65l.3-2.65c-.44.04-.86.09-1.29.16l.98 2.5z" fill="url(#e5kc1fxa5)"/><path d="M19.2 16.46l-.34 2.66 1.56-2.18a7.3 7.3 0 00-1.22-.48z" fill="url(#f5kc1fxa5)"/><path d="M8.7 26.58L6 26.11c0 .46.02.9.07 1.34l2.62-.87z" fill="#39BAA8"/><path d="M24.32 20.12a9.16 9.16 0 00-.85-1l-1.58 2.17 2.43-1.17z" fill="url(#g5kc1fxa5)"/><path d="M9.07 28.44l-2.75.2c.1.44.26.86.42 1.29l2.33-1.49z" fill="url(#h5kc1fxa5)"/><path d="M17.06 18.65l.95-2.5-.65-.08-.66-.05.36 2.63z" fill="url(#i5kc1fxa5)"/><path d="M11.07 31.56l-2.34 1.52c.32.34.65.65 1 .92l1.34-2.44zM9.86 30.1l-2.62.9c.23.42.46.79.74 1.16l1.88-2.05z" fill="#39BAA8"/><path d="M17.34 22c1.8 0 3.34.9 3.34 2.79 0 .9-.53 1.68-1.46 2.07A2.48 2.48 0 0121 29.25c0 2.12-1.77 2.75-3.66 2.75H13V22h4.34zM14 26.5h3.62c1.19 0 1.98-.68 1.98-1.71 0-1.12-.78-1.79-1.98-1.79H14v3.5zm0 4.5h3.34c1.39 0 2.66-.4 2.66-1.75-.02-1.25-1.2-1.75-2.59-1.75H14V31zm24.04-6H39v1.1c.43-.82 1.45-1.1 2.24-1.1.95 0 1.96.4 2.34 1.5a2.63 2.63 0 012.47-1.5c1.83 0 2.95 1.18 2.95 3.06v3.92h-1V28.1c0-1.13-.7-2.09-1.99-2.09-1.15 0-2.01.98-2.01 2.11V32h-1v-3.89c0-1.13-.79-2.11-1.94-2.11-1.26 0-2.06.98-2.06 2.11V32h-1l.04-7zM36 30.65V32h1v-7h-1v1.33c-.48-.86-1.57-1.33-2.57-1.33-1.9-.02-3.43 1.26-3.43 3.46S31.5 32 33.41 32c.91 0 2.08-.43 2.59-1.35zm-5-2.13C31 27 32.14 26 33.47 26c3.37 0 3.35 5 0 5A2.42 2.42 0 0131 28.52zm-2.42 2.29A4 4 0 0125.62 32C23.5 32 22 30.63 22 28.47A3.4 3.4 0 0125.55 25c2.1 0 3.7 1.3 3.42 4H23c.12 1.25 1.31 2 2.63 2 .78 0 1.73-.33 2.17-.87l.78.68zM28 28c-.05-1.3-1.06-2-2.42-2-1.46 0-2.37.7-2.58 2h5zm-15 6v.33h1V37h.38v-2.67h.98V34H13zm3.5 1.65h1.68V37h.36v-3h-.36v1.31H16.5V34h-.36v3h.36v-1.35zM21.7 34h-2.06v3h2.13v-.34H20v-1h1.63v-.35H20v-.97h1.7V34zm1.3 1.82h.7l.9 1.18h.45l-.95-1.21c.6-.05.84-.44.84-.88 0-.47-.3-.91-.98-.91h-1.32v3H23v-1.18zm.95-1.48c.44 0 .63.3.63.59 0 .32-.2.57-.63.6H23v-1.2h.95zM28.7 37l-1.3-3h-.43l-1.32 3h.4l.31-.64h1.62l.32.64h.4zm-2.17-1l.68-1.63.66 1.63h-1.34zm3 1h.37v-1.06h.96c1.34-.02 1.34-1.94 0-1.94h-1.32v3zm.38-2.68h.97c.84 0 .84 1.28 0 1.26h-.97v-1.26zm4.87-.32h-2.05v3h2.11v-.34H33.1v-1h1.62v-.35H33.1v-.97h1.69V34zm3.35 1.8V34h-.34v1.8c0 .54-.38.86-.83.86a.81.81 0 01-.84-.86V34h-.36v1.8c0 .81.58 1.2 1.18 1.2.66 0 1.19-.4 1.19-1.2zm.77-1.8v.34h1.02V37h.36v-2.66h.98V34H38.9zm3.47 0H42v3h.37v-3zm1 1.52c0 .76.5 1.48 1.52 1.48.4 0 .79-.17 1.08-.44l-.26-.25c-.22.23-.53.34-.82.34-.77 0-1.15-.56-1.15-1.13-.02-.61.36-1.18 1.15-1.18.3 0 .58.1.8.32l.27-.24a1.5 1.5 0 00-1.07-.42c-1.02 0-1.51.76-1.51 1.52zm3.69-.7c0-.35.4-.48.77-.48.33 0 .67.13.8.32l.27-.15c-.26-.43-.67-.51-1.1-.51-.52 0-1.12.2-1.12.8 0 .57.57.7 1.12.78.44.07.84.17.84.53 0 .42-.47.52-.83.52s-.75-.15-.93-.49l-.3.17c.24.5.72.69 1.23.69.55 0 1.19-.24 1.19-.86s-.58-.76-1.15-.84c-.43-.07-.8-.15-.8-.47z" fill="#666769"/><defs><linearGradient id="a5kc1fxa5" x1="19.21" y1="13.94" x2="6.78" y2="21.73" gradientUnits="userSpaceOnUse"><stop offset=".38" stop-color="#93BE6D"/><stop offset=".5" stop-color="#77B78A"/><stop offset=".64" stop-color="#62B894"/></linearGradient><linearGradient id="b5kc1fxa5" x1="19.35" y1="14.18" x2="6.93" y2="21.96" gradientUnits="userSpaceOnUse"><stop offset=".64" stop-color="#62B894"/><stop offset=".87" stop-color="#44B9A3"/></linearGradient><linearGradient id="c5kc1fxa5" x1="19.82" y1="14.93" x2="7.4" y2="22.71" gradientUnits="userSpaceOnUse"><stop offset=".87" stop-color="#44B9A3"/><stop offset="1" stop-color="#39BAA8"/></linearGradient><linearGradient id="d5kc1fxa5" x1="21.9" y1="18.25" x2="9.48" y2="26.03" gradientUnits="userSpaceOnUse"><stop stop-color="#FFD900"/><stop offset=".13" stop-color="#DAD025"/></linearGradient><linearGradient id="e5kc1fxa5" x1="19.52" y1="14.44" x2="7.09" y2="22.22" gradientUnits="userSpaceOnUse"><stop offset=".13" stop-color="#DAD025"/><stop offset=".38" stop-color="#93BE6D"/><stop offset="1" stop-color="#39BAA8"/></linearGradient><linearGradient id="f5kc1fxa5" x1="20.91" y1="16.66" x2="8.48" y2="24.44" gradientUnits="userSpaceOnUse"><stop stop-color="#FFD900"/><stop offset=".13" stop-color="#DAD025"/><stop offset=".38" stop-color="#93BE6D"/></linearGradient><linearGradient id="g5kc1fxa5" x1="23.09" y1="20.15" x2="10.67" y2="27.93" gradientUnits="userSpaceOnUse"><stop stop-color="#FFD900"/><stop offset=".5" stop-color="#77B78A"/></linearGradient><linearGradient id="h5kc1fxa5" x1="22.56" y1="19.3" x2="10.13" y2="27.08"><stop offset="1" stop-color="#39BAA8"/></linearGradient><linearGradient id="i5kc1fxa5" x1="20.1" y1="15.37" x2="7.67" y2="23.15" gradientUnits="userSpaceOnUse"><stop offset=".13" stop-color="#DAD025"/><stop offset=".38" stop-color="#93BE6D"/></linearGradient></defs></svg>