<!-- by TradingView --><svg width="56" height="56" xmlns="http://www.w3.org/2000/svg"><path fill="#2B5079" d="M0 0h56v56H0z"/><path d="M19.495 24.252a1.228 1.228 0 00-.793.294c-.062.058-.025.122 0 .148.078.08.248.25.3.283a.174.174 0 00.181 0 .564.564 0 01.312-.124.547.547 0 01.358.124c.041.034.126.035.162 0l.29-.283c.045-.046.038-.114 0-.148a1.36 1.36 0 00-.81-.294zM19.513 22c-1.229-.021-2.165.674-2.48 1.025-.06.063-.025.129 0 .154.072.073.232.233.296.286.066.053.125.043.179 0 .252-.275 1.005-.862 2.005-.865 1.249-.004 1.934.828 2.02.882.068.044.137.001.17-.017.07-.07.224-.226.274-.286.05-.06.02-.128 0-.154-.31-.333-1.236-1.002-2.464-1.024z" fill="#0197D4"/><path d="M19.51 23.126c-.82-.014-1.444.447-1.654.68-.04.042-.017.085 0 .102.048.048.31.284.352.32.044.035.093.029.12 0 .167-.183.515-.537 1.181-.54.833-.002 1.132.512 1.189.548.046.029.1.012.122 0 .047-.046.299-.288.332-.328.033-.04.013-.085 0-.102-.207-.22-.824-.665-1.643-.68zM41.482 26c3.065-.045 3.614 3.06 3.505 4.5h-6.409c-.057 1.884 1.697 2.557 3.133 2.5 1.15-.046 2.028-.872 2.354-1.31.567-.334.922.234.807.515-1.042 1.554-2.694 1.84-3.39 1.79-3.265.015-4.004-2.748-3.966-4.13.045-1.27.9-3.819 3.966-3.864z" fill="#0197D4"/><path d="M41.354 26.75c-1.992.012-2.7 1.809-2.854 2.75H44c-.087-.921-.655-2.762-2.646-2.75z" fill="#2B5079"/><path d="M8 33.653V23.227c0-.18.252-.224.379-.224h5.83c.758 0 2.313 1.035 2.373 2.687.06 1.652-.934 2.447-1.439 2.638.631.041 1.84.664 1.857 2.886.017 2.223-2.067 2.78-3.194 2.788-1.7-.009-5.165-.02-5.427 0-.263.02-.362-.224-.379-.349z" fill="#fff"/><path d="M13.743 24H9v4h4.743c.616-.066 1.852-.596 1.869-2.117.017-1.521-1.239-1.846-1.869-1.883zM14.007 29H9v4h5.007c.656-.065 1.974-.563 1.993-2.043.018-1.48-1.321-1.921-1.993-1.957z" fill="#2B5079"/><rect x="19" y="26" width="1" height="8" rx=".5" fill="#fff"/><rect x="46.991" y="22.732" width="1.009" height="11.088" rx=".505" fill="#0197D4"/><rect x="34" y="24" width="1" height="10" rx=".5" fill="#0197D4"/><rect x="30" y="24" width="1" height="9" rx=".5" transform="rotate(-90 30 24)" fill="#0197D4"/><circle cx="26" cy="30" r="4" fill="#fff"/><circle cx="26" cy="30" r="3" fill="#2B5079"/></svg>