<!-- by TradingView --><svg width="56" height="56" fill="none" xmlns="http://www.w3.org/2000/svg"><path fill="#025F9E" d="M0 0h56v56H0z"/><path d="M32.247 27H28v16.466c1.613.19 4.005-.696 5-1.163L32.247 27zM24.014 26H28v1h-3.812l-.96 15.548c-8.695-3.125-10.542-11.17-10.38-14.803L24.014 26zM32.227 25H28v1h4.227l11.01 1.756L42.36 23l-10.134 2zM32 23h-4v1h4v-1zM28 22v-5.54L32 22h-4z" fill="#fff"/><circle cx="28" cy="28" r="15.5" stroke="#fff"/><path d="M28 16.45v-3.57c-10.5.37-13.879 6.923-14.217 10.12L24 25h4v-1h-4v-1h4v-1h-4l4-5.55z" fill="#fff"/></svg>