<!-- by TradingView --><svg xmlns="http://www.w3.org/2000/svg" width="56" height="56"><path fill="#F0F3FA" d="M0 0h56v56H0z"/><path fill-rule="evenodd" d="M9.27 24c-.78 0-1.45.54-1.62 1.3l-.59 2.68h-.01L6 33h4.65c1.16 0 2.22-.7 2.66-1.78a2.34 2.34 0 00-1.05-2.96 2.93 2.93 0 001.6-1.69A1.92 1.92 0 0012.03 24H9.27zm2.06 1.48h-2l-.44 2.3h1.9c.73 0 1.34-.54 1.44-1.25a.92.92 0 00-.9-1.05zm-.45 3.73H8.61l-.47 2.29h2.22c.71 0 1.32-.52 1.43-1.23a.92.92 0 00-.9-1.06zM21.75 24H17.2c-.44-.06-1.37.17-1.63 1.5L14 33h5.94l.34-1.6h-4.16l.52-2.4h3.5l.3-1.45h-3.5l.4-1.95h4.05l.36-1.6zm-1.3 9l4.66-8.2c.16-.28.65-.83 1.28-.8h.75l1.34 9h-1.85l-.24-2.2H23.5L22.3 33h-1.87zm3.64-3.54l1.81-3.3.39 3.3h-2.2zM29 33l1.61-7.63c.1-.44.5-1.33 1.41-1.37h.76l1.36 5 2.98-4.22c.31-.48.84-.78 1.7-.78h.67l-1.84 9h-1.8l1.18-5.74-2.31 3.42c-.17.24-.73.73-1.6.74l-1.1-4.16L30.78 33H29z"/><path d="M45 29a1 1 0 110-2h4a1 1 0 110 2h-4z" fill="#F3D93F"/><path d="M44.85 23.83a1 1 0 01-.78-1.84l3.68-1.55a1 1 0 11.78 1.84l-3.68 1.55z" fill="#94C11F"/><path d="M44.84 32.69a1 1 0 10-.78 1.84l3.69 1.56a1 1 0 10.77-1.85l-3.68-1.55z" fill="#ED672B"/><path d="M42.5 19.06a1 1 0 01-1.4-1.43l3.17-3.1a1 1 0 111.4 1.43l-3.18 3.1z" fill="#00833F"/><path d="M42.5 37.17a1 1 0 00-1.4 1.44l3.17 3.1a1 1 0 001.4-1.43l-3.18-3.1z" fill="#D0323A"/></svg>