<!-- by TradingView --><svg width="56" height="56" viewBox="0 0 56 56" xmlns="http://www.w3.org/2000/svg"><path fill="#F0F3FA" d="M0 0h56v56H0z"/><path d="M27.78 13.33c.32.76.43 1.84-.67 1.99a.65.65 0 0 1-.63-.25c-.43-.53.7-1.65 1.09-2.02.07-.08.12-.06.14.04.01.08.04.17.07.24Z" fill="#D4DA64"/><path d="M28.1 14.54c.13-.38.33-.75.6-1.1a.09.09 0 0 1 .13.01c.25.49.57 1.4-.17 1.67a.45.45 0 0 1-.57-.58Z" fill="#D4DA64"/><path d="M26.34 15.15c.67.32.82.8.44 1.45-.13.23-.3.36-.52.38-1.35.12-1.3-1.29-1.28-2.22 0-.09.04-.12.12-.1.41.14.82.3 1.24.5Z" fill="#B4D377"/><path d="m31.3 21.56.67.05.54.15c.07.02.1 0 .12-.08.05-.64.3-1.2.72-1.66.05-.06.1-.06.16-.01.03.02.04.05.02.09-.31.69-.65 1.6-.17 2.28.53.76.69 1.15.65 2.1 0 .14.03.14.09.03.45-.9 1-1.82 1.33-2.78.2-.6.43-1.19.68-1.79.05-.12.22.07.2.16l-.57 2.22c-.03.13 0 .15.1.05.22-.25.49-.44.8-.58.7-.31 1.4-.6 2.08-.88.79-.32 1.14-.88 1.6-1.72.07-.1.2-.02.18.09-.14.65-.5 1.19-1.08 1.62-.1.08-.09.12.04.12.65 0 1.59.47 1.86 1.15.05.12.01.15-.1.08-.45-.25-.78-.6-1.3-.74a3.3 3.3 0 0 0-2.22.28c-.1.05-.1.08.02.1.73.12 1.26.48 1.6 1.08.13.22.09.25-.12.11-.61-.44-.96-.78-1.79-.89-.29-.03-.55.03-.78.2-1.25.88-1.87 2.3-2.63 3.57-.2.34-.44.68-.72.96-.09.09-.07.11.05.07 1.17-.4 2.35-.71 3.53-.92a8.05 8.05 0 0 1 2.1-.1c.33.03.33.08.02.16l-2.18.5c-.3.07-.3.12.01.15 1.17.11 2.18.48 3.28.85.42.15.88.22 1.37.21 1.62 0 2.87-.7 3.75-2.1l.13-.47c.02-.03.37-.73.35-.37a2.77 2.77 0 0 1-.56 1.65 4.52 4.52 0 0 1-3.76 1.75c-.12 0-.13.03-.03.1.64.37 1.41.76 1.81 1.38.08.12.06.14-.06.06a14.7 14.7 0 0 0-7.1-2.37c-2.63-.16-4.47.83-6.34 2.46a6.28 6.28 0 0 0-1.98 3.76l-.67 3.6a29.53 29.53 0 0 0-.52 5.6c0 .07-.04.11-.11.11h-3.4c-.1 0-.14-.05-.12-.15.35-1.47.8-2.9 1.34-4.32 1.04-2.67 1.94-5.13 2.71-7.4.22-.64-.93-1.48-1.35-1.83a5.17 5.17 0 0 0-2.94-1.2c-2.08-.15-3.57.53-5.26 1.57-.07.04-.1.02-.1-.05 0-.08.02-.14.08-.19.88-.73 1.9-1.31 3.06-1.75a.14.14 0 0 0 .07-.2 2.9 2.9 0 0 0-2.25-1.35 4.86 4.86 0 0 0-4.72 2.24c-.05.06-.2.01-.18-.06a4.64 4.64 0 0 1 4.18-2.86c.15 0 .16-.04.01-.1-.25-.1-.52-.15-.8-.17-.94-.07-1.89-.1-2.86-.07-.08 0-.21-.2-.11-.2l1.94-.29c.1-.01.11-.05.05-.13-.85-1.11-.85-2.32.02-3.63.06-.09.26-.02.21.08-.56 1.2-.43 2.29.42 3.25.28.32.65.5 1.07.55 1.58.23 3.22 1.1 3.98 2.55.03.07.09.1.17.1h1.2c1.9 0 3.1.69 4.41 1.9.09.08.14.07.16-.05.2-1 .35-2.6-.52-3.34a4.56 4.56 0 0 0-4.57-.88c-.2.06-.56.22-1.1.48-.08.04-.13-.13-.08-.17a5.62 5.62 0 0 1 3.65-1.09c.96.06 1.73.38 2.5.87.11.07.14.05.08-.06a6.21 6.21 0 0 0-3.16-3.16c-1.4-.63-2.46-1-3.17-1.14a39.1 39.1 0 0 1-2.46-.52c-.04-.01-.06-.04-.05-.08.02-.06.06-.09.12-.08l1.97.1.64.08 1.82.4c.14.1.3.14.48.13 1.2.39 2.27.99 3.22 1.8.07.06.1.04.11-.05.04-.57.22-1.11.53-1.64.14-.22.2-.46.2-.73-.07-1.9-1.56-2.95-3.36-2.82-.06 0-.13-.13-.07-.15.94-.2 1.83-.1 2.7.26.05.02.09 0 .1-.06a3.5 3.5 0 0 1 .98-2.14c.1-.04.15-.04.17.02.01.05.01.1-.01.13-.57.95-.82 2-.28 3.01.2.36.35.72.46 1.1.03.1.08.1.15.03a5.86 5.86 0 0 1 4.65-1.82.08.08 0 0 1-.03.14c-.25.08-.52.05-.77.1-2.6.54-4.7 2.52-4.6 5.25 0 .3.07.59.21.84 1.09 1.99.85 3.87.4 6-.04.14 0 .16.1.05.36-.4.73-.79 1.17-1.09.76-.5 1.5-1.03 2.23-1.57a3.73 3.73 0 0 0 1.29-1.48c.86-2.04.2-4.02-2.36-4.14-.17 0-.16-.28.01-.27l.6.01Z" fill="#FA502B"/><path d="M31.02 17.75c-.85.52-1.52-.29-1.06-1.07.3-.5.7-.95 1.22-1.37.05-.05.1-.04.13.02.4.73.5 1.93-.29 2.42ZM33.51 15.37c-.01.66.06 1.47-.45 1.94-.32.3-.66.35-1.04.15a.27.27 0 0 1-.13-.18c-.23-.88.88-1.52 1.48-1.98.1-.08.15-.06.14.06Z" fill="#D4DA64"/><path d="M22.57 15.55c-.03-.05 0-.1.06-.11.57 0 2.48-.14 2.22.96-.2.86-1.37.79-1.75.08-.18-.33-.35-.64-.53-.93Z" fill="#B4D377"/><path d="M40.65 17.92a.2.2 0 0 1 0-.2c.23-.45.57-.81 1.02-1.08.05-.03.11 0 .12.05.09.49.2 1.17-.33 1.45-.34.18-.61.1-.8-.22Z" fill="#F4E44B"/><path d="M23.64 17.7c-.47.67-1.35.71-2.09.44a.07.07 0 0 1-.02-.12l1.14-.87c.35-.25.66-.23.93.06a.4.4 0 0 1 .04.49Z" fill="#B4D377"/><path d="M35.24 17.61c-.51.46-1.26 1.07-1.96.55a.2.2 0 0 1-.08-.14c-.05-.47.16-.79.65-.97.49-.18.97.2 1.38.43.07.04.07.08.01.13Z" fill="#D4DA64"/><path d="M28.88 18.89c-.63.16-.75-.54-.5-.95.19-.29.42-.57.71-.85a.06.06 0 0 1 .1.02c.18.59.57 1.55-.3 1.78Z" fill="#B4D377"/><path d="M40.05 17.41c.42.25.83.74.64 1.25-.16.43-.79.4-1.02.08a.23.23 0 0 1-.04-.19l.28-1.08c.02-.08.07-.1.14-.06Z" fill="#F4E44B"/><path d="M25 18c0 1.13-1.62 1.27-2.47 1.3-.03 0-.05-.05-.03-.08.51-.7 1.06-1.48 1.95-1.66.28-.06.55.16.55.44Z" fill="#B4D377"/><path d="M19.94 19.03c.35 1.06-1.25 1.26-1.53.25a2.7 2.7 0 0 1 .02-1.25c.02-.08.06-.1.13-.05.34.2.67.39.98.55.2.1.33.27.4.5Z" fill="#73C397"/><path d="m21.22 20.16-.53-.11c-.77-.4-.66-1.28-.6-2 0-.04.05-.08.1-.07a4.5 4.5 0 0 1 1.65.64c.24.17.33.4.28.73-.09.52-.39.8-.9.8Z" fill="#73C397"/><path d="M26.41 19.16c-.66.41-1.16-.5-1.27-.98a.17.17 0 0 1 .17-.21c.52 0 1.14.06 1.29.67.06.23 0 .4-.19.52Z" fill="#B4D377"/><path d="M33.07 18.51c-.39.4-.92.98-1.55.75a.36.36 0 0 1-.23-.36c.06-.77 1.2-.58 1.71-.47.45.08.58.62.55 1a.52.52 0 0 1-.37.47.49.49 0 0 1-.41-.02c-.21-.12-.27-.28-.16-.5.12-.24.32-.48.6-.71v-.05l-.04-.1c-.03-.04-.06-.05-.1 0Z" fill="#D4DA64"/><path d="M41.33 19.27a.4.4 0 0 1-.36.02c-.24-.11-.28-.35-.15-.57.2-.35.57-.47 1.09-.37.07.02.1.06.07.13-.16.37-.37.64-.65.8Z" fill="#F4E44B"/><path d="M34.72 18.48c.04.5.03 1.53-.77 1.3a.39.39 0 0 1-.21-.13.38.38 0 0 1-.07-.24c0-.38.67-.81.95-.98.04-.03.1 0 .1.05ZM37.46 18.48c.07-.02.1 0 .1.08-.06.6-.06 1.12-.8 1.24a.4.4 0 0 1-.44-.22c-.27-.53.73-1 1.14-1.1Z" fill="#D4DA64"/><path d="M39.59 20.08c-.21.3-.63.7-1.01.4-.53-.41.32-1.53.62-1.87a.08.08 0 0 1 .14.02c.17.42.56 1 .25 1.45Z" fill="#F4E44B"/><path d="M16.71 20c-.1 1.22-1.91.63-1.2-.37.26-.38.62-.7 1.05-.97.1-.06.14-.04.15.07.03.46.03.89 0 1.27ZM17.05 19.89c-.1-.25-.16-.5-.18-.75 0-.07.05-.13.12-.13.34.04.64.14.9.3 1.03.64-.39 1.72-.84.58Z" fill="#73C397"/><path d="M23.5 20.78a.75.75 0 0 1-.47-.13c-.8-1.06 1-1.43 1.74-1.59.1-.02.13.01.09.11-.27.62-.67 1.38-1.35 1.61Z" fill="#B4D377"/><path d="M35.91 19.23c-.16.45-.44.73-.83.85-.26.08-.5-.2-.36-.45.21-.39.57-.58 1.07-.57.12 0 .16.06.12.17ZM36.27 20.9c.14-.87 1.17-1.26 1.83-1.68.06-.04.14.02.14.09-.09.85-.23 1.87-1.22 2.14-.37.11-.83-.1-.75-.56Z" fill="#D4DA64"/><path d="M40.27 20.13c.35-.93 1.37-.84 2.12-.55.06.02.07.1.02.15-.52.39-1 .68-1.47.9a.5.5 0 0 1-.53-.06c-.16-.11-.2-.26-.14-.44Z" fill="#F4E44B"/><path d="M15.33 20.43c.4.44-.04 1.36-.7 1.1-.81-.33-.68-1.07-.66-1.78 0-.07.04-.1.1-.07.56.2.98.45 1.26.75Z" fill="#58BFA2"/><path d="M31.97 21.61c-.31 0-.36-.11-.45-.18-.6-.45.08-1.35.5-1.68.06-.06.13-.05.19.01.64.77.56 1.39-.24 1.85Z" fill="#D4DA64"/><path d="M40.87 20.86c.52-.52 1.09-.5 1.7.02.04.03.03.1-.02.11-.33.13-.67.28-1 .44a.65.65 0 0 1-.55.03.37.37 0 0 1-.13-.6Z" fill="#F4E44B"/><path d="M28.67 21.16c.45-.18.82-.45 1.32-.24.28.12.36.5.14.7-.47.47-1.14.12-1.5-.28-.08-.08-.06-.14.04-.18Z" fill="#B4D377"/><path d="M20.73 21.13c-.22.66-.55 1-1.02 1.01a.4.4 0 0 1-.4-.32.4.4 0 0 1 0-.18c.13-.47.84-.64 1.26-.7.15-.02.2.04.16.2Z" fill="#73C397"/><path d="M15 22.63c-.36.99-1.82.74-1.87-.34-.01-.37-.1-.72-.23-1.05-.05-.1-.02-.15.1-.12.57.13 2.35.57 2 1.51Z" fill="#58BFA2"/><path d="M41.6 21.72c.33-.37 1.04-.48 1.5-.58.12-.02.14.02.07.11-.31.44-.7 1.18-1.32 1.1-.3-.03-.45-.4-.25-.63Z" fill="#F4E44B"/><path d="M21.96 21.25c1.09.13.63 1.25-.04 1.54-.48.21-.94.44-1.4.7-.1.06-.15.02-.15-.1.02-.77.56-2.27 1.59-2.14Z" fill="#73C397"/><path d="M15.75 22.85c-.13-.42.36-1.14.6-1.5.05-.07.1-.07.16-.01.18.2.35.4.5.64.63.92-.91 1.94-1.26.87Z" fill="#58BFA2"/><path d="M39.45 21.62c.73-.07.86.49 1.02 1.02.01.05-.03.1-.08.1-.41.02-1.2 0-1.37-.48-.1-.29.12-.61.43-.64Z" fill="#F4E44B"/><path d="M29.27 22.51c-.25.5-.69.42-1.08.73-.06.05-.15 0-.14-.08.09-.4.23-.74.43-1.01a.5.5 0 0 1 .63-.17c.22.12.28.3.16.53ZM30.86 22c.25.07.34.23.28.48-.18.76-1.13 1.13-1.82 1.42-.03 0-.06-.02-.06-.05.03-.88.5-2.2 1.6-1.86Z" fill="#B4D377"/><path d="M37.18 22.34c.44 0 1.47.14 1.16.82-.18.37-.45.47-.8.29-.33-.17-.4-.63-.48-.95a.13.13 0 0 1 .12-.16Z" fill="#D4DA64"/><path d="M32.66 22.78c.42.6-.44 1.62-.8 2.15-.04.06-.09.07-.14.02a1.9 1.9 0 0 1-.7-1.52c.02-.8 1.08-1.47 1.64-.65Z" fill="#B4D377"/><path d="M16.7 23.78c.18-.38.43-.75.57-1.15.03-.08.08-.1.14-.03.5.5 1.12 1.22.37 1.85-.42.37-1.39-.04-1.08-.67Z" fill="#58BFA2"/><path d="M25.42 24.16c-.9.26-1.2-.83-1.15-1.51 0-.07.05-.1.12-.09.46.11 1.78.38 1.47 1.17a.67.67 0 0 1-.44.43Z" fill="#73C397"/><path d="M45.77 23.33c.15.07.25.22.27.38.05.62-.61 1.15-1.19.76-.6-.4-.2-.88-.2-1.41 0-.16.06-.2.2-.14l.92.4Z" fill="#F4E44B"/><path d="M24.07 23.76a.6.6 0 0 1-.81.43c-.33-.12-.4-.68-.43-.96 0-.1.03-.14.13-.13.31.03.6.1.88.21a.4.4 0 0 1 .23.45Z" fill="#73C397"/><path d="M35 24.45c.32-.7 1.01-.95 1.67-1.21.04-.02.09.02.08.06-.08.78-.43 1.65-1.3 1.76a.43.43 0 0 1-.45-.61Z" fill="#D4DA64"/><path d="M15.1 24.37c-.77.78-1.5-.16-2.01-.62a.07.07 0 0 1-.02-.07.07.07 0 0 1 .05-.04c.44-.1.87-.18 1.3-.23.5-.06 1.14.5.68.96Z" fill="#58BFA2"/><path d="M22.39 24.49c-.75.38-.83-.47-.96-.91-.03-.09 0-.13.1-.14.35-.02 1.13.08 1.2.54.02.21-.09.38-.34.5Z" fill="#73C397"/><path d="M45.83 25.3c-.16-.62.46-1.11.88-1.46a.08.08 0 0 1 .12.03c.23.7.39 1.6-.63 1.69a.35.35 0 0 1-.37-.26Z" fill="#F4E44B"/><path d="M13.25 25.23c-.72.34-1-.63-1.12-1.12-.02-.08 0-.13.1-.13.58.01.98.18 1.22.53a.5.5 0 0 1-.2.72Z" fill="#58BFA2"/><path d="M30.61 25.97c-.71-.19-.55-1.05-.44-1.59.01-.07.05-.1.12-.08.45.13 1.49.56 1.22 1.21-.18.42-.48.58-.9.46Z" fill="#B4D377"/><path d="M40.96 25.08c.34-.63 1.3-.71 1.94-.75.12 0 .15.05.1.15-.32.54-1.08 1.56-1.82 1.23a.46.46 0 0 1-.22-.63Z" fill="#F4E44B"/><path d="M21.44 24.92c-.34.37-1.12.02-1.49-.18a.08.08 0 0 1-.04-.07.08.08 0 0 1 .04-.06 2.5 2.5 0 0 1 1.3-.2.31.31 0 0 1 .26.19.3.3 0 0 1-.07.32Z" fill="#58BFA2"/><path d="m45.34 25.27-.13.48c-.62.44-1.09.4-1.4-.16-.13-.22-.17-.58-.11-1.07 0-.06.04-.1.11-.1.71.03 1.22.31 1.53.85ZM40.51 25.8c-.74.3-.95-.49-.9-1.05 0-.09.05-.12.14-.1.36.1.9.2 1.02.61.08.26 0 .44-.26.54Z" fill="#F4E44B"/><path d="M21.57 26.69c0-.77.58-1.98 1.53-1.64.5.18.16.92-.14 1.11-.38.25-.8.46-1.23.64-.1.05-.16 0-.16-.11ZM25.83 25.32c.21.1.27.27.16.48-.17.35-.44.46-.82.33a.27.27 0 0 1-.17-.15l-.36-.84c-.03-.07 0-.1.07-.1.38 0 .75.1 1.12.28Z" fill="#73C397"/><path d="M32.01 26.92c-.3.1-.54.04-.72-.19a.22.22 0 0 1-.04-.15c.06-.71.87-1.28 1.46-1.53a.1.1 0 0 1 .13.07c.05.69-.1 1.56-.83 1.8Z" fill="#B4D377"/><path d="M23.56 25.87c-.28-.65.6-1.18.9-.57.16.34-.18.84-.37 1.1a.1.1 0 0 1-.07.04.1.1 0 0 1-.07-.02c-.17-.17-.3-.35-.39-.55Z" fill="#73C397"/><path d="M35.83 25.34c-.25.57-.49 1.04-1.18 1.06a.4.4 0 0 1-.36-.57c.26-.47.95-.59 1.45-.61.1 0 .13.04.09.12Z" fill="#D4DA64"/><path d="M42.7 27.58a.86.86 0 0 1-.67-.05.28.28 0 0 1-.15-.2c-.2-.85.77-1.55 1.35-2.04.03-.03.1-.02.11.02.53.88.53 1.92-.64 2.27Z" fill="#F4E44B"/><path d="M30.47 28.23c-.26.11-.5.1-.7-.04-.6-.4.16-1.63.4-2.06.07-.1.15-.13.25-.07.9.55 1.21 1.63.05 2.17Z" fill="#B4D377"/><path d="M16.7 26.6c.49.56-.63 1.4-1.05 1.64a.1.1 0 0 1-.04 0 .1.1 0 0 1-.1-.06c-.18-.65-.14-1.57.68-1.73.21-.04.39 0 .51.15Z" fill="#27B8B2"/><path d="M18.88 28.27c-1.03.5-1.38-1.01-1.4-1.67 0-.08.03-.11.1-.11.68.01 1.8.29 1.87 1.09.03.26-.16.5-.57.69Z" fill="#58BFA2"/><path d="M11.37 27.79c-.1-.06-.11-.12-.02-.19.46-.36.91-.58 1.36-.67.42-.08 1.02.23.8.73-.33.81-1.52.45-2.14.13ZM13.86 28.11c.31-.36.38-.62.86-.79a.38.38 0 0 1 .42.13c.33.42-.07.8-.49.84l-.75.08c-.16.02-.09-.2-.04-.26Z" fill="#27B8B2"/><path d="M42.8 28.43a3.54 3.54 0 0 1 2.5-.74.1.1 0 0 1 .07.17c-.5.55-1.04 1-1.62 1.38-.3.2-.62.19-.94-.03a.42.42 0 0 1-.1-.1c-.19-.25-.16-.48.08-.68Z" fill="#F4E44B"/><path d="M15.55 28.91c.58-.42 1.13-.79 1.68-.85.54-.07.97.55.46.96-.6.48-1.4.16-2.1.07-.08 0-.11-.12-.04-.18ZM11.02 29.59c.13-.4.33-.77.61-1.12.2-.25.47-.33.82-.22l.06.03c.3.18.35.42.13.72-.32.42-.82.67-1.5.75-.12.02-.17-.04-.12-.16Z" fill="#27B8B2"/><path d="M43.77 29.47c.38-.48 1-.63 1.58-.54.06.01.08.08.05.12-.26.35-.95 1.18-1.47.98a.37.37 0 0 1-.16-.56Z" fill="#F4E44B"/><path d="M16.92 29.96c-.5.47-1.2.04-1.61-.33a.08.08 0 0 1 .02-.12c.52-.2 1-.23 1.44-.12.26.06.34.4.15.57Z" fill="#27B8B2"/><path d="M44.83 29.89a.28.28 0 0 1 .32-.23l.45.07c.33.05.7.32.64.69l-.01.07c-.06.37-.5.52-.83.47l-.45-.07a.28.28 0 0 1-.23-.32l.1-.68Z" fill="#F4E44B"/></svg>