<!-- by TradingView --><svg width="56" height="56" viewBox="0 0 56 56" xmlns="http://www.w3.org/2000/svg"><path fill="#F0F3FA" d="M0 0h56v56H0z"/><path d="M26.33 11.07c.48-.04.96-.07 1.44-.07l.01.93c-.45 0-.9.03-1.36.07l-.09-.93Zm1.78.86V11c.49 0 .97.03 1.45.07l-.1.93c-.44-.04-.9-.06-1.35-.07Zm-3.54-.6c.47-.1.95-.17 1.42-.22.04.3.08.61.1.92-.44.06-.9.13-1.34.21-.06-.3-.13-.6-.18-.91Zm-3.4 1.07c.43-.2.89-.37 1.34-.52l.3.88c-.43.16-.85.31-1.27.5l-.37-.86Zm12.21-.52c.46.15.9.32 1.35.52l-.37.85-1.28-.49.3-.88Zm-8.57.66c.44-.1.88-.16 1.32-.21l.1.91c-.4.05-.82.11-1.23.2l-.19-.9Zm4.85.7.1-.9c.44.04.88.1 1.32.2l-.18.89a25.6 25.6 0 0 0-1.24-.2Zm5.38-.7c.44.2.87.41 1.29.65l-.46.81c-.4-.21-.8-.42-1.22-.61l.4-.85Zm-15.47.65c.41-.24.84-.45 1.28-.65l.39.84c-.4.2-.81.4-1.21.62l-.46-.8Zm11.82-.58c.44.09.87.2 1.3.34l-.29.87c-.4-.12-.8-.23-1.2-.32.06-.3.12-.6.2-.9Zm-3.3.83c.42 0 .82.02 1.23.07l-.08.9-1.15-.05v-.92Zm-3.03.28c.4-.08.8-.14 1.21-.18l.1.9-1.13.18-.18-.9Zm4.56-.18c.41.04.81.1 1.22.18l-.19.9-1.13-.17.1-.91Zm-9.44.72c.38-.22.78-.42 1.18-.6l.38.83c-.38.18-.74.37-1.11.57l-.45-.8Zm14.35-.6c.4.18.8.38 1.19.6l-.46.8c-.36-.2-.73-.39-1.11-.57l.38-.83Zm-10.95.44c.39-.12.78-.22 1.18-.3l.2.89c-.37.09-.74.18-1.1.3-.1-.3-.2-.6-.28-.89Zm7.55-.3c.4.08.8.18 1.18.3-.08.3-.18.6-.27.88l-1.1-.3c.05-.3.12-.6.19-.89Zm-8.98.84c.37-.17.75-.31 1.14-.44l.29.87-1.07.41-.37-.84Zm10.45-.44c.4.13.77.28 1.15.44l-.37.84c-.35-.15-.7-.28-1.07-.4l.3-.88Zm-14.82.14c.2.25.37.5.56.76-.36.27-.71.56-1.05.85l-.63-.7c.36-.32.73-.62 1.12-.9Zm12.98 5.35.3-.87c.25.08.5.18.74.28l-.37.84-.67-.25Zm-11.05-.6c.23.2.42.45.63.67-.23.21-.45.43-.66.65-.23-.2-.46-.4-.68-.62.23-.24.46-.48.7-.7Zm15.85.67c.2-.23.4-.46.62-.68.25.23.48.47.71.71l-.68.62-.65-.65Zm-18.36.29c.23-.3.46-.6.71-.87l.7.61c-.23.26-.45.53-.66.8l-.75-.54Zm5.98-.5c.23-.13.47-.25.71-.36l.38.84-.63.33-.46-.8Zm8.44.48.38-.84c.24.11.48.23.7.36a61 61 0 0 1-.45.8l-.63-.32Zm5.67-.24.69-.6c.25.27.48.56.71.86l-.74.54c-.22-.27-.43-.54-.66-.8Zm-16.57.03c.22-.2.46-.39.7-.57l.55.73-.64.52-.61-.68Zm13.75-.57c.25.18.48.37.7.57l-.6.68-.64-.52.54-.73Zm-6.42.28c.23 0 .45.01.68.03l-.09.93-.6-.03v-.93Zm-12 .04.75.53c-.22.31-.43.63-.63.96l-.8-.47c.21-.35.44-.69.67-1.02Zm11.1 0c.24-.03.46-.04.7-.04v.93l-.6.03-.1-.93Zm11.95.53.75-.53c.23.33.46.67.66 1.02l-.79.47c-.2-.33-.4-.65-.62-.96Zm-12.82-.4c.22-.05.45-.09.68-.12l.1.93-.6.1-.18-.92Zm2.65-.11c.23.02.46.06.69.1-.06.3-.12.61-.2.91l-.6-.1.11-.91Zm-6.6.5c.21-.15.43-.3.66-.43l.47.8-.6.39-.54-.75Zm3.09-.18c.21-.07.44-.12.66-.18l.2.91-.58.16c-.1-.3-.2-.6-.28-.89Zm4.19.73.2-.9c.23.04.45.1.67.17l-.28.89-.6-.16Zm-9.7-.02c.2-.23.4-.44.63-.64l.62.67-.58.58-.68-.61Zm4.7-.4c.2-.1.4-.17.61-.24l.3.88-.56.21c-.12-.28-.29-.56-.36-.85Zm6.06-.24c.21.07.43.15.64.24l-.37.85a44.9 44.9 0 0 0-.57-.21l.3-.88Zm4.06.67.62-.67c.23.2.44.41.64.64-.22.2-.44.41-.68.61l-.58-.58Zm1.65-.05.69-.61c.22.25.43.5.64.78l-.74.55c-.2-.25-.39-.49-.6-.72Zm-14.85.13c.2-.18.4-.35.61-.5l.55.74-.55.45-.61-.7Zm12.22-.5c.21.15.42.32.62.5l-.62.69-.55-.45.55-.74Zm7.18.47.8-.44c.22.38.42.77.6 1.18l-.83.38a20.8 20.8 0 0 0-.57-1.12Zm-17.14-.09.6-.3c.14.27.27.55.4.84l-.55.27-.45-.8Zm7.32.54.38-.85.62.31-.46.81-.54-.27Zm1.17-.43c.2.11.39.24.58.37l-.54.76-.51-.34.47-.8Zm-9.25.37.58-.38.47.8-.5.34-.55-.76Zm4.25-.3.57-.03.01.92-.5.03-.08-.92Zm.76-.03.58.03-.1.92-.5-.03.02-.92Zm-8.87.73c.18-.24.37-.47.57-.7l.69.61-.53.64-.73-.55Zm7.35-.6.58-.08.1.91-.5.08-.18-.9Zm2.28-.08.57.09-.19.9a61.3 61.3 0 0 1-.49-.08l.1-.91Zm6.67.6.68-.61c.2.22.4.45.57.7a37 37 0 0 1-.74.54c-.16-.22-.34-.43-.51-.64Zm-20.24-.56.8.46c-.19.33-.36.67-.52 1.01l-.84-.38c.17-.37.35-.73.56-1.09Zm18.68.7.62-.68c.2.18.39.37.56.57l-.68.62-.5-.5Zm5.96-.25.8-.45c.2.36.38.72.56 1.09l-.84.38-.52-1.02Zm-19.07.14c.18-.2.37-.39.56-.57l.63.68-.51.5a59 59 0 0 1-.68-.61Zm4.99-.36.56-.15.2.9c-.16.05-.32.1-.48.13-.1-.3-.2-.58-.28-.88Zm3.55.75.2-.9.56.15c-.08.3-.18.59-.27.88a39.1 39.1 0 0 0-.49-.13Zm-11.86 0c.18-.3.36-.58.56-.85.25.18.5.35.74.54-.17.25-.34.5-.5.77-.27-.15-.54-.3-.8-.47Zm19.63-.32.75-.53c.2.28.38.56.55.84-.26.17-.53.32-.8.47l-.5-.78Zm-6.83-.37.54.2-.37.85-.47-.17.3-.88Zm-5.2.2.53-.2.3.88-.47.17-.37-.84Zm-12.79-.1.86.37c-.17.42-.34.84-.49 1.27l-.88-.3c.15-.45.32-.9.51-1.34Zm10.05.4c.17-.15.35-.3.53-.43.19.24.38.5.55.75l-.46.38-.62-.7Zm10.68-.43c.18.13.36.28.53.43l-.61.7-.47-.38.55-.75Zm-8.63.47c.17-.1.34-.18.52-.26l.38.84-.44.23-.46-.8Zm6.6-.26.5.26c-.14.27-.3.54-.45.8l-.44-.22.38-.84Zm-15.21 1.02c.15-.33.32-.67.51-.99l.8.46c-.17.3-.32.6-.47.92-.28-.13-.57-.25-.84-.39Zm23.02-.53a46 46 0 0 1 .8-.46c.2.32.36.66.51 1l-.84.38c-.15-.31-.3-.62-.47-.92Zm-25.37-.18.84.37c-.16.38-.31.77-.45 1.16l-.87-.29c.13-.42.3-.83.48-1.24Zm28.2.37.83-.37c.19.4.34.82.48 1.24l-.87.3c-.13-.4-.28-.79-.45-1.17Zm-19.93.16.49-.49.63.7c-.15.13-.29.27-.43.42l-.69-.63Zm2.05-.17.49-.32.46.8-.41.27-.54-.75Zm7.44.47.46-.79c.17.1.33.2.49.32l-.53.75-.42-.28Zm1.88-.1.63-.69c.17.16.34.32.5.5l-.7.62-.43-.44ZM27.4 22l.47-.03v.89l-.39.02-.08-.88Zm.63-.03.47.03-.09.88-.4-.02.02-.89Zm-10.68.07.8.45c-.14.28-.29.55-.42.83l-.84-.38c.14-.3.3-.6.46-.9Zm9.42.05.46-.08c.04.3.08.6.1.88l-.38.07-.18-.87Zm1.79.8.1-.87.46.07-.18.87-.38-.06Zm-2.4-.64c.15-.05.3-.09.46-.12l.19.86-.39.1-.26-.85Zm3.12-.13.45.13-.26.84-.38-.1.19-.87Zm-6.12.43.44-.37c.18.25.37.48.54.73-.1.14-.25.22-.38.33l-.6-.69Zm8.58.38.55-.75.45.37-.61.69-.4-.31Zm-6.17-.47.44-.16.28.83-.37.14a51.6 51.6 0 0 1-.35-.8Zm4.32-.17.44.17-.36.81-.36-.14.28-.84Zm-10.3.76c.13-.23.27-.45.43-.66l.75.53-.4.6-.79-.47Zm14.04-.04.7-.61c.15.17.3.35.43.53l-.75.55-.38-.47Zm1.5-.1.74-.53c.16.22.3.44.44.67l-.8.47-.39-.6ZM25 22.76l.42-.2.37.8-.35.17c-.15-.25-.3-.5-.44-.77Zm5.47-.21.42.21-.44.77-.35-.18.37-.8Zm7 .11c.16.26.3.53.42.8l-.83.38-.38-.73.8-.45Zm-19.47.8a8 8 0 0 1 .42-.8l.8.45c-.14.24-.26.49-.38.73l-.84-.37Zm4.61-.37.41-.4.62.68-.35.35c-.23-.2-.46-.4-.68-.63Zm10.26-.4.41.41-.68.62-.35-.35.62-.68Zm-8.4.4.4-.25.44.76-.33.22-.51-.72Zm6.56-.25.4.26-.52.72c-.1-.08-.22-.15-.33-.22l.45-.76Zm12.3.36c.3-.1.6-.2.9-.28.14.45.26.92.36 1.39l-.9.2c-.11-.44-.23-.88-.36-1.31Zm-22.31-.09.75.54c-.1.17-.22.34-.33.5a57.7 57.7 0 0 1-.8-.46c.12-.2.24-.39.38-.57Zm13.1.54.76-.54c.13.2.26.38.37.58a47 47 0 0 1-.8.47c-.1-.17-.22-.34-.33-.5Zm-6.6-.45.35-.02.01.7h-.3l-.07-.68Zm.5-.02.36.02-.06.69-.3-.02v-.69Zm-11.24.02.85.37-.34.86-.87-.3.36-.93Zm7.19.29.37-.3.52.71-.3.25-.6-.66Zm3.04-.22.36-.05.08.68-.3.05-.14-.68Zm1.51-.05.36.05-.13.68-.3-.05.07-.68Zm2.5.68.54-.7.37.28-.6.67-.3-.25Zm7.25-.34.84-.36c.14.3.25.62.36.94l-.87.29c-.1-.3-.22-.58-.33-.87Zm-19.16.4c.11-.23.23-.47.36-.7l.8.45-.32.64-.84-.39Zm3.01-.28.37-.45.7.61-.32.39-.75-.55Zm10.6.16.68-.6c.13.14.26.29.37.44l-.74.55-.32-.39Zm2.9-.12.8-.46c.13.23.25.47.36.7l-.84.39c-.1-.22-.21-.43-.33-.63Zm-23.12.85c.1-.43.21-.86.34-1.28l.88.27c-.12.4-.22.8-.32 1.21l-.9-.2Zm14.02-1.17.35-.1.15.68-.3.07-.2-.65Zm2.35.58.15-.68.35.1-.2.65-.3-.07Zm-2.83-.4.35-.14.22.65-.3.11-.27-.63Zm3.25.51.22-.65.34.13-.27.63-.3-.1Zm-5.77-.17.33-.32.6.64-.28.28-.65-.6Zm7.92.33.6-.66.34.33-.66.6-.28-.27Zm-5.85-.45.32-.17.3.63-.29.13-.33-.6Zm4.39-.17.32.16-.33.6-.28-.13.29-.63ZM14 23.64l.88.28-.3 1.1-.89-.2c.09-.4.2-.79.31-1.18Zm3.58.88c.1-.29.2-.57.32-.85l.84.37-.3.76-.86-.28Zm19.57-.48.84-.37c.12.28.23.56.32.85-.29.1-.58.2-.87.28l-.3-.76Zm3.86-.12.88-.28c.12.4.23.79.31 1.18l-.9.2c-.09-.37-.18-.74-.3-1.1Zm-19.3.38.3-.48.76.53-.27.42-.8-.47Zm11.41.05.76-.53.31.48-.8.47-.27-.42Zm-12.58-.5.8.46-.26.54c-.29-.12-.57-.26-.85-.39l.3-.6Zm4.62.2.3-.2.36.6-.26.17-.4-.57Zm4.92.4.35-.6.3.2-.4.57-.25-.17Zm4.46-.14.81-.46c.12.2.22.4.32.61l-.85.39-.28-.54Zm-19.65.78c.07-.37.17-.73.28-1.08l.88.28c-.1.33-.18.66-.26 1l-.9-.2Zm8.52-1.05.66.58-.25.3-.7-.52c.09-.13.19-.25.29-.36Zm8.4.58.68-.59.29.37-.71.53-.25-.3Zm8.03-.33.88-.28c.12.35.2.72.29 1.08l-.9.2c-.09-.34-.17-.67-.27-1Zm-20.82-.13c.28.11.57.24.85.37l-.26.66c-.3-.1-.59-.19-.88-.3.09-.24.18-.49.29-.73Zm5.74.2.29-.22.4.55-.23.2-.46-.53Zm6.08-.22.3.22-.46.53a27.5 27.5 0 0 0-.25-.2l.41-.55Zm5.18.39.85-.37c.11.24.2.49.29.74l-.88.3-.26-.67Zm-19.94.82c.07-.33.15-.65.26-.97l.88.28c-.1.29-.17.59-.24.89l-.9-.2Zm22.6-.7.87-.27c.11.32.19.64.26.97l-.9.2-.23-.9Zm-17.33.32.26-.51.8.45-.22.44-.84-.38Zm3.05-.25.25-.26.47.5-.22.23-.5-.47Zm9.08.2.8-.46.27.51-.85.39-.22-.45Zm-2.71.05.46-.5.27.25-.51.47-.22-.22Zm-8-.04c.07-.14.16-.27.25-.4l.72.51-.21.33-.77-.44Zm9.38.11.72-.51c.1.13.18.26.26.4l-.76.44c-.08-.1-.15-.22-.22-.33Zm-20.93-.41.92.19c-.09.44-.15.89-.21 1.34l-.93-.1c.06-.49.13-.96.22-1.43Zm8.68.66c.07-.22.15-.44.24-.65l.86.38-.22.56-.88-.3Zm15-.27.85-.37c.1.2.17.42.25.64l-.89.29-.21-.56Zm-17.4-.28.88.28c-.08.26-.15.53-.21.8l-.9-.2c.06-.3.14-.59.23-.88Zm20.02.28.87-.28c.1.29.17.58.23.87l-.9.2-.2-.79Zm-13.22-.2.52.46-.2.24-.55-.42.23-.28Zm6.77.46.52-.46.23.28-.55.42-.2-.24Zm11.5-.22c.29-.06.59-.13.89-.18.09.43.16.87.2 1.31l-.9.1c-.06-.41-.12-.82-.2-1.23Zm-19.9 0c.27.14.53.29.78.44l-.17.34c-.28-.11-.55-.23-.81-.36l.2-.42Zm9.77.44.77-.44.21.42-.8.37-.18-.35Zm-19 .83c.04-.4.1-.81.18-1.21l.9.18-.17 1.13-.91-.1Zm5.02-.45c.06-.26.12-.52.2-.77.3.09.6.18.88.28l-.18.69-.9-.2Zm2.81-.74c.29.11.57.24.85.36l-.18.47-.88-.3.21-.53Zm12.5.36.85-.36c.08.17.15.35.2.54l-.87.29-.18-.46Zm2.58-.11c.3-.1.58-.2.88-.28.08.25.15.5.2.77l-.9.2-.18-.7Zm5.01-.09.9-.18c.09.4.15.8.2 1.2-.3.05-.61.08-.92.11-.05-.38-.1-.75-.18-1.13Zm-17.57.23.2-.31.56.4-.17.26-.59-.35Zm7.55.09.56-.4.2.3-.6.36-.16-.26Zm-16.7.84c.05-.37.1-.73.18-1.1l.91.19c-.07.34-.11.68-.16 1.02l-.92-.1Zm25.52-.91.9-.19c.09.37.14.73.18 1.1-.3.04-.61.08-.92.1-.04-.33-.1-.67-.16-1.01Zm-20.5.59c.04-.22.1-.44.17-.66l.9.28-.17.58-.9-.2Zm-3.8.46.16-1c.3.07.6.12.9.2l-.14.9-.91-.1Zm23.11-.81.9-.18c.07.33.12.66.16 1l-.92.1-.14-.92Zm-16.74.28.17-.44.81.35-.13.37-.85-.28Zm1.48-.42c.21.1.41.22.6.33l-.13.28-.63-.29.16-.32Zm7.86.33.6-.33.17.32-.63.3-.14-.29Zm1.1 0 .82-.35.17.43-.84.29-.14-.37ZM21 25.85l.9.27-.14.49-.9-.2.14-.56Zm13 .28c.3-.1.59-.2.89-.28l.14.55c-.3.08-.6.14-.9.2l-.13-.47Zm3.78-.1.9-.18c.05.3.1.59.13.89l-.9.1-.13-.8Zm-1.2.25.9-.19c.05.26.1.52.13.79l-.92.1-.12-.7Zm-13.21.16.12-.34.64.27-.11.3-.65-.23Zm8.4-.07.63-.27.13.34-.66.22-.1-.29Zm-9.71.3.12-.45.85.26-.1.38a28.4 28.4 0 0 1-.87-.2Zm10.8-.19.84-.26c.05.15.1.3.13.45l-.87.2a15.9 15.9 0 0 1-.1-.39Zm-13.25-.14.92.18-.1.6-.92-.1c.02-.23.06-.46.1-.68Zm15.76.18.91-.18c.05.22.08.45.1.67-.3.04-.61.08-.92.1l-.1-.59Zm8.63-.04.93-.09c.05.48.07.96.07 1.44h-.93c0-.45-.03-.9-.07-1.35Zm-31.8.03.9.09c-.03.41-.05.83-.06 1.24h-.91c0-.45.02-.89.06-1.33Zm30.59.09.91-.09c.04.44.07.88.07 1.33h-.92c-.01-.4-.03-.83-.06-1.24Zm-22.06.55.09-.57.9.19-.07.49-.92-.1Zm2.5-.22.1-.36.65.2-.08.3-.67-.14Zm8.69-.15.65-.2.1.35-.68.15-.07-.3Zm2.24-.01.91-.19.1.57-.93.1-.08-.48Zm-20.82 1.08c0-.4.02-.82.07-1.22l.91.09-.06 1.14-.92-.01Zm27.01-1.02.92-.08c.04.37.06.74.06 1.11h-.92l-.06-1.03ZM33 27l.87-.17.08.46-.89.1A16.9 16.9 0 0 0 33 27Zm-17.15-.14.91.1c-.02.3-.04.6-.04.92l-.92-.01c0-.34.02-.67.05-1Zm6.11.43.08-.46.87.18-.07.38-.88-.1Zm17.19-.34.92-.09.05 1-.92.02-.05-.93Zm-22.09.03.92.09-.05.82-.91-.01c0-.3.01-.6.04-.9Zm20.88.09c.3-.04.6-.07.91-.09.03.3.04.6.05.9h-.92l-.04-.81Zm-14.73 0 .67.13-.04.3-.7-.08.07-.35Zm8.82.13.68-.14.05.37-.68.07-.05-.3Zm4.69-.02.92-.08.04.79h-.92l-.04-.7Zm-18.49.7c0-.26.02-.52.04-.78l.92.08-.03.72-.93-.01Zm1.26-.66.93.08-.03.6h-.93c0-.23.01-.46.03-.68Zm16 .08.93-.09.03.69h-.93l-.03-.6Zm-14.8.6.03-.57.92.1-.02.49-.93-.01Zm13.58-.48.92-.09.03.58h-.93l-.02-.49Zm-1.19.12.88-.09.03.47h-.89l-.02-.38Zm-11.13-.09c.3.02.59.05.88.09l-.02.39-.89-.01c0-.16.02-.31.03-.47Zm1.19.12c.23.01.45.04.68.06l-.01.3h-.7l.03-.36Zm8.95.06.68-.07.03.37h-.7v-.3Zm-11.4.46h.93l.02.49-.92.09-.03-.58Zm1.24-.01h.88l.02.38-.88.09-.02-.47Zm1.2-.01h.68l.01.3-.68.06-.02-.36ZM37.54 15.1l.56-.76c.39.29.76.6 1.12.91-.2.24-.41.47-.63.7-.34-.3-.69-.58-1.05-.85ZM36 14.43c.39.22.76.46 1.12.72l-.53.75c-.34-.25-.7-.47-1.05-.7l.46-.77Zm-9.3.29c.37-.04.74-.06 1.11-.06l.01.92c-.34.01-.69.02-1.03.05l-.1-.91Zm-5.91.6c.35-.2.71-.39 1.09-.56l.38.84c-.34.16-.68.33-1.02.52l-.45-.8Zm4.52-.4c.37-.08.74-.14 1.1-.17l.11.91-1.03.16-.18-.9Zm4.08.74.1-.91c.38.04.75.1 1.11.17l-.18.9-1.03-.16Zm4.65-.9c.37.17.73.36 1.08.56-.14.27-.3.54-.45.8-.33-.18-.67-.36-1.02-.52l.39-.84Zm-3.16.22c.36.08.72.17 1.08.29l-.28.87c-.33-.1-.67-.18-1-.26l.2-.9Zm-13.39 1.2c.34-.3.68-.58 1.04-.84l.54.73c-.33.26-.65.52-.97.8l-.6-.7Zm14.74-.83c.35.12.7.26 1.04.4l-.37.85c-.32-.13-.64-.26-.97-.37l.3-.88Zm4.61.72c.18-.25.36-.5.55-.73.35.26.7.54 1.03.84l-.6.68-.98-.79Zm-14.2-.31c.34-.15.7-.28 1.05-.4l.29.87c-.33.11-.65.24-.97.37l-.37-.84Zm-3.14.38c.33-.24.67-.47 1.03-.67l.46.8-.96.61-.53-.74Zm7.32-.21c.33-.03.67-.05 1-.05l.01.92c-.3 0-.62.02-.93.04l-.08-.91Zm1.27-.05c.33 0 .67.02 1 .05l-.08.91c-.31-.02-.62-.04-.93-.04v-.92Zm-6.7.5c.32-.19.65-.35 1-.5l.38.83c-.32.15-.62.3-.93.47l-.45-.8Zm11.75.33.39-.84c.34.16.67.32 1 .5l-.46.81c-.3-.17-.61-.32-.93-.47Zm-7.58-.6c.32-.06.66-.11 1-.15l.1.9-.92.15-.18-.9Zm3.8-.15c.33.04.67.08 1 .16l-.19.9c-.3-.06-.61-.1-.92-.15l.1-.91Zm-5.04.47c.32-.1.65-.18.98-.26l.2.9c-.3.07-.6.14-.9.23l-.28-.87Zm6.3-.26c.32.07.65.16.97.26l-.28.87-.9-.23.2-.9Zm-12.32.91c.3-.27.62-.53.95-.77l.55.74c-.3.23-.6.47-.89.72-.2-.23-.41-.45-.6-.69Zm17.81-.03.55-.74c.33.25.65.5.95.78l-.61.68c-.29-.25-.58-.49-.89-.72Zm-12.98-.18c.3-.13.63-.25.95-.36l.29.87c-.3.1-.59.21-.87.33l-.37-.84Zm8.42.51.3-.87c.3.11.63.23.93.36-.12.29-.24.57-.37.84a20.3 20.3 0 0 0-.86-.33Zm-16.38-.63.7.62c-.3.34-.58.7-.86 1.05l-.75-.55c.28-.39.59-.76.9-1.12Zm24.87.62.7-.62c.32.36.63.73.91 1.11-.24.2-.5.38-.75.56-.27-.36-.56-.7-.86-1.05Zm-18.05.07c.3-.17.6-.32.9-.46l.38.83-.82.43-.46-.8Zm11.03-.46c.3.14.6.3.9.46-.14.27-.3.53-.45.8-.28-.15-.55-.3-.83-.42l.38-.84Zm-6.09.16c.3-.03.6-.04.9-.05l.01.92c-.27 0-.55.02-.82.04l-.09-.9Zm1.14.87.01-.92c.3 0 .6.02.9.05l-.09.91-.82-.04Zm-2.27-.7c.3-.06.6-.11.9-.14l.1.9-.81.13c-.08-.3-.13-.6-.19-.9Zm3.42-.14c.3.03.6.07.9.14a63 63 0 0 1-.19.9l-.81-.14.1-.9Zm-12.01.98c.27-.3.56-.59.87-.86l.62.67c-.28.26-.55.53-.82.81l-.67-.62Zm1.9-.15c.28-.25.57-.49.86-.7.2.23.37.48.56.73-.28.21-.54.43-.8.66l-.62-.7Zm16.28.03.55-.74c.3.22.59.46.86.7l-.6.7a25 25 0 0 0-.81-.66Zm1.83-.07.61-.67c.31.27.6.56.87.86l-.67.62c-.27-.28-.54-.55-.81-.8Zm-12.53-.37c.29-.09.58-.17.87-.23l.2.9-.8.2-.27-.87Zm-9.44 1.01c.27-.36.55-.7.85-1.03l.68.6c-.27.32-.54.64-.79.97-.25-.17-.5-.35-.74-.54Zm5.67-.48c.27-.2.55-.38.84-.55.16.26.32.52.47.8-.26.15-.52.32-.78.5l-.53-.75Zm12.76.24.47-.8c.29.18.57.36.84.56l-.53.75c-.26-.17-.51-.35-.78-.5ZM23.61 18c.27-.12.55-.23.84-.32l.3.86-.78.3-.36-.84Zm7.83-.32c.29.09.57.2.85.32l-.37.84-.77-.3.3-.86Zm.69 1.25c.12-.28.24-.56.38-.83.27.13.54.26.8.41l-.45.8a20.3 20.3 0 0 0-.73-.38Zm-18.87.43c.24-.41.5-.81.79-1.2l.76.54-.74 1.13a48.4 48.4 0 0 1-.8-.47Zm27.82-.66c.26-.18.5-.37.76-.54.28.39.55.79.8 1.2l-.82.47c-.23-.38-.48-.76-.74-1.13Zm-22.98.28c.25-.27.51-.54.8-.79l.61.68c-.25.24-.5.48-.73.73l-.68-.62Zm18.28-.1c.2-.24.41-.46.62-.69.28.25.55.52.8.8l-.69.61c-.24-.24-.48-.5-.73-.73Zm-16.47.04c.25-.23.51-.44.78-.64.2.24.37.5.55.74-.24.19-.48.38-.72.59-.2-.23-.41-.46-.6-.7Zm7.13-.56c.27-.02.53-.04.8-.04v.92c-.23 0-.47.02-.71.04l-.1-.92Zm1.02-.04c.26 0 .53.02.8.04l-.1.92-.71-.04v-.92Zm6.6.7c.17-.25.35-.5.54-.74.27.2.53.42.78.64l-.61.69-.72-.6Zm-8.63-.51c.26-.06.52-.1.79-.13l.1.92-.7.1-.19-.9Zm3.04-.13c.27.03.53.07.79.13l-.19.9-.7-.11.1-.92Zm-12.85.95c.25-.33.5-.64.78-.94l.69.6c-.25.3-.5.59-.73.89l-.74-.55Zm13.86-.78.76.2c-.08.3-.18.6-.27.88l-.7-.18.2-.9Zm-8.46.57c.24-.18.5-.34.75-.5l.47.8c-.24.14-.46.3-.7.45l-.52-.75Zm11.43.3.47-.8.76.5-.54.75c-.22-.16-.45-.3-.69-.45Zm-8.95-.31c.24-.1.49-.2.74-.28l.3.87-.68.25-.36-.84Zm8 8.96.69.01-.02.36-.69-.06.02-.3Zm1 .01.88.01-.02.47-.89-.09.03-.39Zm1.19.01h.92c0 .2-.01.4-.03.59l-.92-.1.03-.49Zm-19.73.06h.93c0 .34.02.68.05 1.02l-.92.1c-.04-.38-.05-.75-.06-1.12Zm1.23 0c.3-.02.61-.02.92-.02 0 .31.02.62.04.93l-.91.09a15 15 0 0 1-.05-1Zm1.22-.02h.91l.05.81-.92.1c-.03-.3-.04-.61-.04-.91Zm1.21-.01h.93c0 .23.02.47.04.7l-.93.1a9.33 9.33 0 0 1-.04-.8Zm1.23-.01h.93l.03.6-.93.08a8.76 8.76 0 0 1-.03-.68Zm16.06 0h.93c0 .23 0 .46-.03.69l-.93-.1.03-.6Zm1.2.72.03-.72h.93c0 .27-.02.54-.04.8l-.92-.08Zm1.26-.7h.91c0 .3-.02.6-.04.9l-.91-.1.04-.8Zm1.22 0 .92.01c0 .34-.03.67-.05 1l-.92-.08.05-.93Zm1.22.01.92.01c0 .37-.02.74-.06 1.11l-.92-.09c.03-.34.04-.68.06-1.03Zm-28.29.03h.92c0 .4.03.83.06 1.24l-.9.09c-.06-.44-.07-.88-.08-1.33Zm1.22 0c.3-.02.61-.02.92-.02l.06 1.14-.91.1c-.05-.41-.06-.82-.07-1.23Zm30.73 0 .93.01c0 .48-.02.96-.07 1.44l-.93-.1c.03-.44.06-.9.07-1.35Zm-20.93.41.69-.08.04.3-.67.14-.06-.36Zm8.93-.08.69.08-.06.36-.68-.13.05-.3Zm-10.12.22.9-.1.05.38-.87.18-.08-.46Zm11.1-.1.89.1-.07.46c-.3-.05-.58-.12-.87-.18l.06-.38Zm-12.32.23.92-.1.08.5-.91.18a6.9 6.9 0 0 1-.09-.58Zm13.43.4.09-.5.91.1c-.02.2-.05.39-.09.58l-.9-.19Zm-14.66-.25.93-.11.1.6-.92.18a7.61 7.61 0 0 1-.1-.67Zm15.96-.11.93.1-.1.68-.92-.18.09-.6Zm-12.23.19.67-.15.08.3-.65.2a15.9 15.9 0 0 1-.1-.35Zm8.69.15.07-.3.68.15-.1.35-.65-.2Zm4.77-.2.92.1-.13.78-.9-.18.1-.7Zm-19.61.24.9-.1.14.8-.9.2c-.06-.3-.1-.6-.14-.9Zm4.98.07.87-.2.1.38-.84.27c-.05-.15-.1-.3-.13-.45Zm10.9-.19c.3.06.59.12.87.2l-.12.44-.85-.26.1-.38Zm-17.1.25.92-.1.14.92-.9.18c-.07-.33-.11-.66-.15-1Zm7.5.17.66-.22.1.29-.62.27-.13-.34Zm8.4.07.11-.3.66.23-.14.34c-.2-.1-.42-.18-.62-.27Zm-17.1-.1.9-.1c.06.34.1.68.17 1.02l-.9.19c-.08-.37-.14-.74-.18-1.1Zm6.2.06.9-.2c.05.16.1.32.13.48-.3.1-.59.2-.88.28-.06-.18-.11-.37-.15-.56Zm13.14.28.13-.48.9.2-.14.56-.89-.28Zm6.32-.44.92.1c-.04.37-.1.74-.17 1.1l-.9-.18.15-1.02Zm-26.88.24.91-.1c.05.38.11.75.18 1.13l-.9.18c-.09-.4-.15-.8-.2-1.2Zm28.1-.1.92.1c-.05.4-.11.8-.2 1.21l-.9-.19c.07-.37.13-.75.18-1.12Zm-21.88.29.9-.2.16.58-.89.28a6.9 6.9 0 0 1-.17-.66Zm2.57.07.85-.28.14.37-.82.35-.17-.44Zm10.45.1.14-.38.84.28c-.05.15-.1.3-.17.44-.27-.1-.54-.23-.81-.35Zm2.5.21c.04-.2.1-.39.15-.58l.9.2a9 9 0 0 1-.17.66l-.89-.28Zm-22.95-.43.9-.1c.06.4.12.82.2 1.23l-.9.18c-.1-.43-.15-.87-.2-1.31Zm11.32.22.63-.3.14.28-.6.34a8.7 8.7 0 0 1-.16-.32Zm8.16-.3.63.3c-.05.1-.1.21-.17.32-.2-.1-.4-.22-.6-.34l.14-.27Zm10.85 1.2c.08-.4.14-.81.2-1.23l.9.1c-.04.45-.11.89-.2 1.32l-.9-.18ZM11 29.95l.93-.1c.05.45.13.9.2 1.34l-.9.19c-.1-.47-.18-.95-.23-1.43Zm7.46.18.9-.2.18.7-.88.27-.2-.77Zm17.89.5.18-.7.9.2c-.05.26-.12.52-.2.77l-.88-.28Zm-15.29-.3.88-.29.18.46-.85.37a7.89 7.89 0 0 1-.2-.54Zm12.89-.29.88.3-.2.53c-.3-.11-.57-.24-.86-.36l.18-.47Zm-11.48.49.8-.37.19.35-.78.44a6.1 6.1 0 0 1-.21-.42Zm1.32-.05.6-.35.16.26-.56.4-.2-.31Zm7.55-.09.17-.26.59.35-.2.3c-.19-.12-.37-.26-.56-.39Zm1.1.12.18-.35.8.37-.2.42c-.27-.14-.52-.3-.78-.44Zm-15.17-.11c.3-.08.6-.14.9-.2l.2.79-.87.28c-.09-.3-.16-.58-.23-.87Zm20.45-.2c.3.06.6.12.9.2-.06.29-.14.58-.23.87l-.87-.28.2-.8Zm-17.83.52.9-.3.2.57-.85.37c-.09-.2-.17-.42-.25-.64Zm15.22-.3.89.3-.25.64-.85-.37.21-.56Zm-19.03.24.9-.2.23.9-.87.27c-.1-.32-.19-.65-.26-.97Zm22.83-.2.9.2c-.07.33-.15.65-.25.97-.3-.08-.59-.18-.88-.27l.23-.9Zm-14.84.44.56-.41.2.24-.53.45-.23-.28Zm7-.17.2-.24.55.41-.23.29-.52-.46Zm-9.72.3.84-.38.22.45-.8.45c-.1-.17-.18-.34-.26-.51Zm1.41.06.77-.46.21.33c-.23.18-.48.35-.72.52-.1-.13-.18-.26-.26-.4Zm9.4-.12.2-.34.77.46-.25.39c-.25-.16-.48-.34-.73-.51Zm1.54-.32.85.39a5.9 5.9 0 0 1-.27.51l-.8-.45.22-.45Zm-18.82.27.9-.2c.09.34.17.67.27 1-.3.1-.58.2-.88.28-.11-.36-.2-.72-.29-1.08Zm25.22-.2.91.2c-.08.36-.17.72-.29 1.08l-.88-.28c.1-.33.18-.66.26-1Zm-21.36.39.87-.3.26.67-.85.37c-.1-.24-.2-.5-.28-.74Zm5.66.18.5-.47.22.22-.46.5c-.1-.08-.18-.16-.26-.25Zm6.37-.25.22-.22.5.47-.26.26-.46-.51Zm5.25.44c.1-.22.18-.44.26-.66l.88.29c-.08.25-.18.5-.29.74l-.85-.37Zm-12.9.13.7-.53.25.3-.66.6a9.8 9.8 0 0 1-.3-.37Zm8.7-.22.25-.3c.24.16.48.34.7.52l-.29.36-.66-.58Zm-7.06.25.46-.52.24.2-.42.55-.28-.23Zm5.67-.32.25-.2.45.52-.28.23-.42-.55Zm-12.85.17.87-.29.3.77-.85.36c-.12-.27-.22-.55-.32-.84Zm2.64.06c.28-.14.57-.26.85-.39l.28.54-.81.46-.32-.61Zm14.32.15.28-.54c.28.13.57.25.85.39l-.31.6c-.28-.14-.55-.3-.82-.45Zm-12.84 0 .8-.46.27.42a90 90 0 0 1-.75.53 6.2 6.2 0 0 1-.32-.48Zm11.7-.46.8.47-.32.48-.76-.53.27-.42Zm-7.84.15.26.17-.35.6-.31-.2.4-.57Zm4.52.17.26-.17.4.56-.31.2-.35-.6Zm-6.57.53.66-.6.28.28-.6.65-.34-.33Zm8.21-.6.66.6c-.11.12-.22.23-.34.33-.2-.2-.4-.43-.6-.65l.28-.27Zm11.96.02.92.2c-.1.47-.23.93-.37 1.4l-.9-.29c.14-.43.25-.87.35-1.3Zm-17.76.11.28.14-.29.63-.32-.17.33-.6Zm3.77.14.28-.14.33.6-.32.17-.29-.63Zm8.9-.17.88.29c-.1.32-.22.63-.36.94a39 39 0 0 1-.84-.36l.33-.87Zm-19.48.46.84-.38.33.64-.8.45a8.39 8.39 0 0 1-.37-.7Zm16.83-.38.84.38c-.1.24-.23.48-.36.7-.27-.14-.54-.3-.8-.45l.32-.63Zm-13.82.67.75-.55.3.39-.68.6-.37-.44Zm4.2-.52.28.1-.22.66-.34-.13.27-.63Zm2.97.1.29-.1.27.63-.34.12-.22-.65Zm3.42.26.31-.4.75.56-.36.44-.7-.6Zm-12.07.15.8-.47.34.5-.76.55a7.9 7.9 0 0 1-.38-.58Zm3.91-.46.31.24-.52.72-.37-.3.58-.66Zm6.48.25.3-.25.6.66-.37.3-.53-.71Zm-15.77.15.88-.3c.11.33.24.65.37.97l-.85.37c-.15-.34-.28-.7-.4-1.04Zm11.26.35.2-.65.3.07-.15.68a28.6 28.6 0 0 1-.35-.1Zm2.35-.58.3-.07.2.65-.35.1-.15-.68Zm10.88-.07.88.3c-.12.35-.25.7-.4 1.04l-.85-.37c.14-.32.26-.64.37-.97Zm-12.6.1.3.05-.08.68-.36-.06.13-.67Zm1.3.05.3-.05.14.67-.37.06-.08-.68Zm-.88.01.32.02-.01.68-.37-.01.06-.69Zm.44.02.3-.02c.03.23.06.46.07.69-.12 0-.24 0-.36.02l-.01-.7Zm-10 .4.83-.37.37.73-.8.44a11.2 11.2 0 0 1-.4-.8Zm12.57-.13.33-.22.52.72-.4.26-.45-.76Zm6.47-.24c.28.11.56.24.84.37-.12.28-.26.54-.4.8-.28-.14-.54-.3-.8-.44l.36-.73Zm-12.58.74.5-.72.34.22-.45.76a4.52 4.52 0 0 1-.4-.26Zm8.13-.62.68.62c-.13.14-.26.28-.4.4a29.5 29.5 0 0 1-.63-.67l.35-.35Zm-10 .62.7-.62c.1.12.23.23.34.35l-.62.68a7.07 7.07 0 0 1-.41-.4Zm-8.5-.27.88-.3c.12.37.26.72.4 1.08l-.84.36c-.16-.37-.3-.75-.44-1.14Zm26.4.78c.15-.36.29-.71.42-1.07l.87.29c-.13.38-.26.76-.43 1.12-.3-.06-.57-.23-.85-.34Zm-20.92-.48.8-.47.4.6-.76.53c-.15-.21-.3-.43-.44-.66Zm5.86-.46.35.17-.37.8a4.92 4.92 0 0 1-.42-.2l.44-.77Zm4.67.17.35-.17.43.76a6.2 6.2 0 0 1-.42.22l-.36-.8Zm5.01.42.4-.6.79.47c-.13.23-.28.45-.44.66l-.75-.53Zm-1.5-.1.39-.46.75.55a7.6 7.6 0 0 1-.44.53c-.23-.2-.47-.4-.7-.62Zm-16.73.08.84-.38c.14.27.27.55.42.82-.26.16-.53.3-.8.45-.17-.28-.32-.59-.46-.9Zm12.71-.2.37-.14.36.81-.44.17-.29-.84Zm8.14.64c.15-.27.29-.55.42-.82l.84.38c-.14.3-.3.6-.46.9l-.8-.46Zm-24.8-.47.88-.28c.14.39.28.78.45 1.16l-.84.37c-.18-.41-.34-.82-.48-1.25Zm10.21.42.61-.69.4.31-.56.74-.45-.36Zm2.42.09c.1-.28.23-.55.35-.82l.37.15-.29.83-.43-.16Zm6.17-.47.39-.31.6.69c-.14.13-.29.25-.44.36l-.55-.74Zm9.89.84c.16-.38.3-.77.44-1.16l.87.28c-.13.43-.3.84-.48 1.25l-.83-.37Zm-15.2-1 .38.1-.2.87-.45-.12a37 37 0 0 1 .26-.85Zm2.66.1.38-.1.26.84-.45.12-.2-.86Zm-2.14.03.39.06-.1.88-.47-.07c.05-.3.12-.58.18-.87Zm1.61.06.38-.06.18.87a17 17 0 0 1-.46.07l-.1-.88Zm-16.78.33.88-.3c.15.43.31.85.5 1.26l-.87.38c-.2-.44-.36-.89-.51-1.34Zm9.92.32.69-.63.43.43-.63.68a8.28 8.28 0 0 1-.49-.48Zm5.78-.63.4.02-.01.88-.48-.02.09-.88Zm.54.02.4-.02.08.88-.47.02-.01-.88Zm5.48-.02c.24.2.46.42.7.63l-.5.48-.63-.68c.15-.14.3-.28.43-.43Zm3.07-.02.79.46c-.15.26-.32.51-.5.76l-.74-.53.45-.69Zm-20.8.46.85-.38c.15.31.3.62.47.92l-.8.46c-.19-.33-.35-.66-.51-1Zm7.98.36.54-.75c.13.1.27.18.41.27l-.46.8a6.9 6.9 0 0 1-.49-.32Zm7.44-.48.41-.27.54.75a6.9 6.9 0 0 1-.48.31l-.47-.79Zm8.08-.26c.29.12.57.25.84.38-.15.34-.32.67-.5 1l-.8-.46.46-.92Zm-19.12.62c.24-.2.5-.37.74-.55l.45.55-.69.6c-.18-.19-.34-.4-.5-.6Zm14.4 0 .45-.55c.25.17.5.36.74.55-.15.2-.32.41-.5.6l-.69-.6Zm-10.16.53.46-.81.44.23-.38.84a7.38 7.38 0 0 1-.52-.26Zm6.2-.58.45-.23.46.8-.51.27-.4-.84Zm-15.92.32.84-.38c.16.34.33.68.52 1.01l-.8.46c-.2-.36-.4-.72-.56-1.1Zm7.67.3c.2-.24.4-.47.62-.7l.46.39-.55.74a8.2 8.2 0 0 1-.53-.43Zm10.13-.32.47-.38.61.7c-.17.15-.35.3-.53.43-.19-.24-.37-.5-.55-.75Zm7.91-.36.85.38c-.17.37-.36.73-.56 1.09l-.8-.46c.18-.33.35-.67.51-1.01Zm-22.9.49.8-.46.5.77-.75.53c-.2-.27-.38-.55-.55-.84Zm20.14-.46.79.46c-.17.3-.36.57-.55.85l-.75-.54c.17-.25.34-.5.5-.77Zm-12.18.1.47.17-.3.88a5.49 5.49 0 0 1-.54-.21l.37-.84Zm4.54.17.47-.18.37.85a7.5 7.5 0 0 1-.54.2l-.3-.87Zm-9.18.59c.22-.22.45-.43.68-.63l.5.5-.62.69c-.2-.18-.38-.37-.56-.56Zm13.1-.13c.18-.16.35-.33.51-.5.23.2.46.41.68.63-.18.19-.36.38-.56.55l-.62-.68Zm2.09-.48.73.54c-.17.25-.37.48-.57.7l-.68-.6.52-.64Zm-16.82.55c.24-.2.49-.37.73-.55l.53.64-.69.6c-.2-.22-.39-.45-.57-.7Zm6.9-.47.48.12-.2.9a7.13 7.13 0 0 1-.56-.14c.08-.3.18-.59.27-.88Zm3.27.12.49-.13.28.88-.57.15-.2-.9Zm-5.76 0 .5.32c-.15.27-.3.54-.47.8-.2-.11-.39-.24-.58-.37l.55-.76Zm8.23.32c.17-.1.34-.22.5-.33l.55.76c-.19.13-.38.26-.58.37l-.47-.8Zm-5.1-.28.49.07-.1.92c-.2-.02-.39-.05-.57-.09l.18-.9Zm1.98.08.5-.08.18.9-.57.1c-.04-.31-.08-.62-.1-.92Zm12.24 1.02c.2-.37.39-.74.57-1.12l.83.38c-.18.4-.38.8-.6 1.18-.27-.14-.54-.3-.8-.45Zm-13.56-1 .5.02c0 .3 0 .61-.02.92l-.57-.03.09-.92Zm.66.02.5-.03.09.92-.58.03-.01-.92Zm-3.79.25.54.28-.38.85c-.21-.1-.42-.2-.61-.32l.45-.8Zm6.87.28.54-.28.46.81c-.2.12-.4.22-.62.32a40.4 40.4 0 0 1-.38-.85Zm2.64-.27.62.69c-.2.18-.4.35-.62.5l-.55-.74.55-.45Zm-12.22.69.61-.69.55.45-.55.74a8.87 8.87 0 0 1-.61-.5Zm-9.1-.2.85-.39c.2.41.4.82.63 1.21l-.82.46c-.24-.41-.46-.84-.66-1.28Zm5.76.16.74-.55c.19.25.38.49.59.72-.24.2-.46.41-.7.6a11.8 11.8 0 0 1-.63-.77Zm18.19.17c.2-.23.4-.47.59-.72l.73.55c-.2.27-.4.53-.63.78l-.7-.6Zm6.23-.72.85.39c-.2.44-.42.86-.66 1.28L42 35.9c.22-.4.42-.8.62-1.2Zm-22.7.7.67-.62.58.59-.62.67c-.22-.2-.44-.42-.64-.64Zm14.82-.03c.2-.2.4-.39.58-.59.24.2.46.41.68.62-.2.23-.41.44-.64.64l-.62-.67Zm-19.35.06c.26-.16.52-.32.8-.47.19.33.4.64.62.95l-.75.54c-.24-.33-.47-.67-.67-1.02Zm9.2.37.37-.85.57.21-.3.88a9.7 9.7 0 0 1-.64-.24Zm5.8-.64.56-.21.37.85c-.21.09-.43.17-.64.24l-.3-.88Zm-8.06.76.54-.75.6.39-.47.8a8.65 8.65 0 0 1-.67-.44Zm10.11-.36.6-.39.54.75c-.21.16-.44.3-.67.44l-.47-.8Zm-6.73-.34.58.16-.2.9c-.23-.05-.44-.1-.66-.17.08-.3.18-.6.28-.89Zm3.9.16.6-.16.27.89c-.21.07-.43.12-.66.17l-.2-.9Zm-12.4.6c.25-.2.5-.38.75-.56.2.28.43.55.65.8l-.69.62c-.25-.28-.48-.57-.7-.87Zm9.08.35.18-.91.6.09-.1.92a8.57 8.57 0 0 1-.68-.1Zm2.55-.82.6-.1.19.92c-.23.04-.46.08-.69.1l-.1-.92Zm9.12-.09.74.55c-.22.3-.46.6-.71.87l-.7-.61c.24-.26.46-.53.67-.8Zm-17.23.78.6-.69.65.53-.55.73c-.24-.18-.47-.37-.7-.57Zm13.2-.17.65-.52.6.7c-.22.19-.45.38-.7.56-.18-.25-.37-.49-.54-.74Zm6.17.6c.24-.35.47-.7.68-1.05l.8.46c-.23.38-.47.76-.73 1.12l-.75-.53ZM19 36.2l.68-.63c.21.23.43.45.66.66l-.62.67a9.71 9.71 0 0 1-.72-.7Zm4.18.24.46-.8.63.32-.38.84c-.24-.11-.48-.24-.7-.36Zm8.44-.48.64-.33.45.8c-.23.14-.47.26-.7.37l-.4-.84Zm-.86.34.67-.26.37.85c-.24.1-.5.2-.74.28l-.3-.87Zm-6.67.59.37-.85c.22.1.45.18.67.26l-.3.87c-.25-.08-.5-.18-.74-.28Zm-1.94-.76.69.46c-.16.26-.3.52-.47.78a9.43 9.43 0 0 1-.75-.5l.53-.74Zm16.78-.01.74.54c-.24.33-.5.65-.77.95l-.7-.6c.25-.3.5-.59.73-.9Zm-20.83.9.68-.63c.24.26.48.5.73.74-.2.22-.4.45-.62.67-.28-.24-.54-.5-.8-.78Zm1.81.06.61-.69.72.59-.55.74c-.27-.2-.53-.42-.78-.64Zm9.97-.53.69-.19.28.88c-.26.08-.51.15-.77.2l-.2-.9Zm4.77.43c.25-.19.49-.39.72-.59l.61.69c-.25.22-.51.44-.78.64l-.55-.74Zm1.73.15.74-.74.67.63c-.25.27-.51.53-.79.78l-.62-.67Zm-10.16-.54.7.11-.1.92-.79-.13.19-.9Zm2.75.11.7-.11.19.9c-.26.05-.52.1-.79.13l-.1-.92Zm-5.94 0 .74.37-.38.83c-.28-.12-.55-.26-.8-.41l.44-.8Zm9.1.37.73-.38.45.8c-.26.15-.53.28-.8.41l-.38-.83Zm-5-.35.71.04v.92c-.27 0-.53-.02-.8-.04l.09-.92Zm.92.04.71-.04.1.92c-.27.02-.54.04-.8.04l-.01-.92Zm-12.8.63.73-.55c.26.34.52.66.8.97l-.7.6c-.29-.32-.57-.67-.84-1.02Zm18.42.24.78-.5.53.74c-.27.2-.55.38-.84.55l-.47-.79Zm-2.52-.18a20 20 0 0 0 .77-.29l.37.84c-.28.12-.56.23-.85.32l-.29-.87Zm-13.28-.23c.27.27.54.55.82.8l-.62.68c-.3-.27-.6-.56-.87-.86l.67-.62Zm1.23.77.61-.69c.26.23.53.45.8.66l-.55.74c-.3-.23-.58-.46-.86-.7Zm16.28-.03c.27-.21.54-.43.8-.66l.61.7c-.28.24-.57.48-.86.7-.2-.25-.37-.5-.55-.74Zm-10.7.44.28-.87.8.2-.2.9c-.3-.07-.6-.14-.88-.23Zm5.46-.66.8-.21c.1.28.18.58.27.87-.28.09-.57.16-.86.23-.09-.3-.14-.6-.2-.9Zm-15.9.38.76-.56.86 1.06c-.23.2-.46.42-.7.61-.32-.35-.63-.72-.91-1.1Zm25.8.5c.29-.35.58-.7.85-1.06l.76.56c-.29.39-.6.76-.92 1.12l-.7-.62Zm-17.6-.87c.27.15.54.29.82.42l-.38.84c-.3-.14-.6-.3-.9-.46l.45-.8Zm10.2.42.82-.42.45.8c-.29.17-.6.32-.9.46l-.38-.84Zm-6.67-.38c.27.04.54.09.82.12l-.1.91c-.3-.03-.6-.08-.9-.14l.18-.9Zm3.14.12.81-.12.18.9c-.3.05-.59.1-.89.13l-.1-.9Zm-2.1.03.82.04v.91c-.3 0-.6-.02-.9-.04l.08-.91Zm11.02.99c.3-.3.6-.58.88-.89.24.2.46.41.68.62-.3.33-.61.64-.94.94l-.62-.67Zm-17.83-.07.53-.75.87.57c-.15.26-.3.53-.47.79-.32-.19-.63-.4-.93-.61Zm14.09-.18.87-.57.54.75c-.3.22-.62.42-.94.61l-.47-.8Zm-2.75-.07c.29-.1.58-.22.86-.33l.37.83c-.3.14-.62.25-.94.37l-.3-.87Zm4.56.33.9-.72.6.68c-.3.27-.62.53-.95.78l-.55-.74Zm-12.98.17.37-.84c.28.12.57.23.87.33l-.3.88c-.31-.11-.63-.23-.94-.37Zm1.47-.43c.3.1.6.17.9.24l-.2.9a13.3 13.3 0 0 1-.98-.26l.28-.88Zm5.81.24.9-.24c.1.3.2.59.28.88-.32.1-.65.19-.98.26l-.2-.9Zm2.74.36c.3-.15.62-.3.92-.47.16.26.3.53.45.8-.32.18-.65.35-1 .5l-.37-.83Zm5.71.54c.33-.31.65-.63.97-.96l.69.64c-.33.35-.67.69-1.02 1l-.64-.68ZM25.73 39l.92.14-.1.91c-.34-.04-.68-.09-1-.16l.18-.9Zm3.51.14.92-.14.19.9c-.33.06-.67.11-1 .15l-.1-.9Zm-9.22-.02.96.63-.46.79c-.36-.2-.7-.43-1.03-.67l.53-.75Zm14.9.63c.32-.2.64-.41.95-.63l.54.75c-.33.24-.68.46-1.03.67l-.47-.8Zm-6.85-.54c.3 0 .62-.02.93-.04l.09.9c-.34.04-.68.06-1.01.06l-.01-.92Zm-5.07.2.97.37-.3.87c-.34-.12-.69-.23-1.02-.4.07-.28.24-.56.35-.84Zm-1.77.48c.34.18.68.36 1.02.52l-.38.83c-.38-.16-.74-.35-1.1-.55l.46-.8Zm2.71.85a30 30 0 0 1 .28-.88c.33.1.67.19 1 .27l-.2.9c-.36-.08-.72-.18-1.07-.29Zm6.73-.61 1-.26.28.87c-.36.11-.72.21-1.09.29l-.19-.9Zm-14 .62.62-.7c.34.3.69.59 1.05.86-.18.26-.37.5-.56.75-.39-.28-.76-.58-1.12-.9Zm2.11.1.53-.74 1.05.69-.46.79c-.39-.23-.76-.47-1.12-.73Zm16.75-.05c.36-.22.7-.45 1.05-.69l.53.75c-.36.26-.73.5-1.11.72l-.47-.78Zm-10.05-.61c.34.06.68.11 1.03.15l-.1.92c-.37-.04-.74-.1-1.1-.17l.18-.9Zm1.2 1.1.1-.92c.34.03.69.05 1.03.06v.92c-.38 0-.75-.02-1.12-.06Zm1.4-.86 1.04-.05.09.9c-.37.05-.75.06-1.12.07v-.92Zm-5.57.1c.35.14.71.28 1.07.4l-.29.87c-.39-.12-.77-.27-1.14-.43l.36-.84Zm9.8.4c.36-.12.72-.25 1.07-.4l.37.84c-.38.16-.76.31-1.15.43l-.29-.86Zm-11.68.02 1.11.57c-.12.28-.24.55-.38.83-.4-.18-.8-.38-1.18-.6.14-.27.3-.54.45-.8Zm13.52.57c.38-.18.75-.37 1.11-.57l.46.8c-.39.22-.78.41-1.19.6l-.38-.83Zm-10.57.38.28-.87 1.1.29-.2.9c-.4-.1-.8-.2-1.18-.32Zm12.57-.06c.39-.23.76-.48 1.14-.74l.54.76c-.4.28-.8.55-1.2.79l-.48-.8Zm-10.9-.46c.37.07.75.13 1.12.18l-.1.91c-.4-.04-.81-.1-1.21-.19l.18-.9Zm4.27.18c.38-.05.76-.1 1.13-.18l.19.9c-.4.09-.8.15-1.22.2l-.1-.92Zm-1.43.09c.38 0 .76-.03 1.15-.06l.08.91c-.4.04-.81.07-1.22.07l-.01-.92Zm-8.52 1.17.46-.82c.4.23.8.43 1.2.62l-.38.85c-.44-.2-.86-.41-1.28-.65Zm15.08-.2c.42-.19.82-.4 1.22-.61l.46.81c-.42.24-.85.46-1.29.65l-.39-.85ZM25 42.56c.4.08.82.15 1.24.2l-.1.9a13.8 13.8 0 0 1-1.33-.2l.19-.9Zm4.66.2c.41-.05.83-.12 1.24-.2l.18.9c-.44.1-.88.16-1.32.2l-.1-.9Zm-8.12-.01c.42.17.84.34 1.27.48l-.3.89c-.45-.15-.9-.33-1.34-.52.11-.28.24-.57.37-.85Zm5 .04c.42.03.83.06 1.25.07v.91c-.45 0-.9-.03-1.34-.07l.1-.9Zm4.92.9c.44-.1.88-.22 1.31-.35.1.3.2.59.28.89-.45.14-.92.26-1.39.36l-.2-.9Zm-1.66.27c.45-.05.9-.12 1.34-.2l.19.9c-.47.1-.95.17-1.43.23l-.1-.93Zm-3.38.04c.45.04.9.06 1.36.07V45c-.49 0-.97-.03-1.45-.08l.1-.92Z" fill="#1A8BCB"/></svg>