<!-- by TradingView --><svg width="56" height="56" viewBox="0 0 56 56" xmlns="http://www.w3.org/2000/svg"><path fill="#F0F3FA" d="M0 0h56v56H0z"/><path d="M45.97 31.83A7.99 7.99 0 0 0 39 27.5h-.46c0 2.53-1.22 5.74-2.99 7.5H42v-4.1c1.16.33 2.44.79 3.46 1.39.32.23.65-.1.5-.46ZM27.96 38a10.3 10.3 0 0 1-6.48-2H14v2.66c0 .74.6 1.34 1.34 1.34h25.32c.74 0 1.34-.6 1.34-1.34V36h-7.51c-1.8 1.39-4.07 2-6.53 2ZM28 17c3.78 0 7.03 1.83 8.9 5H42c0-4.44-5.74-8-12.8-8h-2.36C19.74 14 14 17.56 14 22h5.1c1.82-3.17 5.17-5 8.9-5ZM14 35h6.46c-.55-.55-1.1-1.56-1.52-2.25-.51-.83-.88-1.7-1.16-2.63-.28 0-.56.05-.83.05-1.11 0-2.18-.14-3.15-.42a13.43 13.43 0 0 1-3.24-1.39c-.33-.18-.7.14-.51.51A8.12 8.12 0 0 0 14 32.38V35ZM18.38 23H14v3h3.46a9.6 9.6 0 0 1 .92-3ZM42 26v-3h-4.46c.47.83.79 2.05.97 3H42Z"/><path d="m27.98 17 2.22 7H37l-5.44 4.27 2 6.73-5.58-4-5.53 4 2-6.73L19 24h6.8l2.18-7Z" fill="#8EC13F"/></svg>