<!-- by TradingView --><svg width="56" height="56" viewBox="0 0 56 56" xmlns="http://www.w3.org/2000/svg"><path fill="#F0F3FA" d="M0 0h56v56H0z"/><path d="m26.12 36.9-2.54-7.12c.14-1.52.48-4.8.75-5.86.35-1.33 3-5.5 4.02-5.65.83-.11 1.15.25 1.21.44l2.91 6.67-3.15 9.11c-.35.84-1.2 2.58-1.83 2.77-.63.2-1.17-.16-1.37-.37Z" fill="url(#amcoy0ti5)"/><path d="M18.13 40H8c5.25-5.3 5.33-11.16 7.37-16.52 1.65-4.33 2.8-5.44 3.23-5.48h9.72c.9 0 1.25.59 1.31.88-1.87-1.5-3.55 2.86-4.15 5.23a463.82 463.82 0 0 1-4.27 12.22A8.62 8.62 0 0 1 18.13 40Z" fill="url(#bmcoy0ti5)"/><path d="M21.27 19.05h-2.74c-1.34 1.3-2.41 4.34-2.78 5.7h2.02c.4-.76 1.25-2.74 1.62-3.64h.33l1.55-2.06Z" fill="#EEEDF2"/><path fill-rule="evenodd" d="M16 32v-7h3.24c1.12 0 2.03 1.02 2.03 2.28 0 1-.58 1.86-1.39 2.16l1.34 2.16v.4h-1.69l-1.28-2.44h-.87V32H16Zm1.4-5.5h1.4c.44 0 .8.4.8.88 0 .5-.36.89-.8.89h-1.4V26.5Z" fill="url(#cmcoy0ti5)"/><path d="M25.63 22.74c-1.11 3.32-3.52 10.47-4.26 12.6a12.9 12.9 0 0 1-2.4 4.17c3.15-1.67 5.74-12.63 7.38-17.46 1.32-3.87 2.68-3.7 3.27-3.18-1.84-1.95-3.38 1.74-3.99 3.87Z"/><path d="M27.43 38c-.7 0-1.21-.77-1.38-1.16 1.4 1.8 2.92-.65 3.5-2.1 1.39-4.18 4.27-12.88 4.7-14.23.42-1.36 2.37-3.57 3.29-4.51H48c-.8.83-2.6 2.82-3.47 4.07-1.08 1.56-4.46 12.42-5.35 14.96-.7 2.02-1.74 2.82-2.17 2.97h-9.58Z" fill="url(#dmcoy0ti5)"/><path d="M28.32 36.2c-.91 1.54-1.92.94-2.31.44.11.27.48.81 1.02.81 1.33.05 2.46-2.17 2.87-3.28 1.32-3.9 4.07-12 4.5-13.22.45-1.22 2.32-3.81 3.2-4.95-.86.94-2.7 2.98-3.2 3.6-.48.61-1.77 4.81-2.36 6.84-.86 2.6-2.81 8.21-3.72 9.76Z"/><path d="M37.08 37h-2.45c.6-.52 2.27-3.29 3.03-4.6l1.83-.4-1.06 3.09A4.69 4.69 0 0 1 37.08 37Z" fill="#F2F2F2"/><path fill-rule="evenodd" d="M33 32h1.36l.56-1.62h2.25l.45 1.5H39L36.67 25H35.5L33 32Zm3.74-3-.62-2.05-.71 2.05h1.33Z" fill="url(#emcoy0ti5)"/><defs><linearGradient id="amcoy0ti5" x1="24.48" y1="29.66" x2="31.62" y2="29.66" gradientUnits="userSpaceOnUse"><stop stop-color="#0293CA"/><stop offset=".5" stop-color="#A2E4FE"/><stop offset="1" stop-color="#0578A3"/></linearGradient><linearGradient id="bmcoy0ti5" x1="18.82" y1="18" x2="18.82" y2="40" gradientUnits="userSpaceOnUse"><stop stop-color="#4E5164"/><stop offset=".28" stop-color="#FFFEFD"/><stop offset=".72" stop-color="#CBCACF"/><stop offset="1" stop-color="#6A677A"/></linearGradient><linearGradient id="cmcoy0ti5" x1="18.64" y1="25" x2="18.64" y2="32" gradientUnits="userSpaceOnUse"><stop stop-color="#681312"/><stop offset=".35" stop-color="#FD0506"/><stop offset=".57" stop-color="#FC0A06"/><stop offset="1" stop-color="#780202"/></linearGradient><linearGradient id="dmcoy0ti5" x1="37.02" y1="16" x2="37.02" y2="38" gradientUnits="userSpaceOnUse"><stop stop-color="#47495E"/><stop offset=".16" stop-color="#A3A1AC"/><stop offset=".75" stop-color="#F4F3F8"/><stop offset="1" stop-color="#686D80"/></linearGradient><linearGradient id="emcoy0ti5" x1="36" y1="25" x2="36" y2="32" gradientUnits="userSpaceOnUse"><stop stop-color="#641F1A"/><stop offset=".4" stop-color="#FC0704"/><stop offset=".63" stop-color="#E70004"/><stop offset="1" stop-color="#601510"/></linearGradient></defs></svg>