<!-- by TradingView --><svg width="56" height="56" viewBox="0 0 56 56" xmlns="http://www.w3.org/2000/svg"><path fill="#F0F3FA" d="M0 0h56v56H0z"/><path d="M4.62 27.03H6.7c.82 0 1.67.34 1.68 1.3 0 .98-.98 1.16-1.74 1.16H4.62v-2.46Zm0-2.84h2.02c.76 0 1.55.38 1.55 1.28 0 .88-.76 1.1-1.49 1.1H4.62V24.2Zm2.02-.4H4.15V30h2.5c1.03 0 2.2-.4 2.2-1.66 0-.71-.44-1.34-1.2-1.55.6-.2.98-.69.98-1.32 0-1.17-.97-1.68-1.99-1.68ZM9.88 25.6V30h.43v-2.58c0-.8.61-1.45 1.4-1.46.26 0 .51.06.74.2l.19-.35c-.29-.17-.6-.26-.92-.25-.55 0-1.15.23-1.42.82l-.02-.78h-.4ZM13.7 25.58V30h-.43v-4.42h.43ZM17.94 25.92c-.33-.24-.78-.4-1.21-.4-1.11 0-2.01.77-2.01 2.12 0 1.17.77 2.1 2 2.1.8 0 1.63.38 1.63 1.31s-.76 1.31-1.62 1.31c-.86 0-1.6-.47-1.6-1.36h-.43c0 1.1.9 1.79 2.03 1.79s2.03-.57 2.03-1.74c0-.75-.41-1.28-1.17-1.56a2.06 2.06 0 0 0 1.16-1.85c0-.7-.23-1.14-.53-1.47l.41-.5-.27-.24-.42.49Zm-1.21.03c.88 0 1.6.6 1.6 1.7 0 .9-.72 1.67-1.6 1.67-.98 0-1.59-.78-1.59-1.68 0-1.13.71-1.69 1.59-1.69ZM19.7 24v6h.43v-2.43c0-.91.63-1.62 1.53-1.62.96 0 1.34.61 1.34 1.51V30h.45v-2.54c0-1.14-.6-1.92-1.8-1.92-.6 0-1.19.25-1.54.87V24h-.4ZM25.12 24.33v1.27h-.91v.4h.9v2.61c0 .86.3 1.4 1.21 1.4.27 0 .54-.08.8-.22l-.14-.35c-.21.1-.45.18-.66.18-.66 0-.79-.42-.79-1V26H27v-.4h-1.45V24.3l-.42.04Z"/><path d="M32.56 24.87a3.4 3.4 0 0 0-2.3-.87C28.1 24 27 25.48 27 27.09c0 1.5.94 2.91 3.27 2.91 1.08 0 1.85-.38 2.46-1.03v-2.4H30v.96h1.66v1.01c-.48.36-.9.46-1.4.46-1.53 0-2.12-.97-2.12-1.91 0-1.17.8-2.1 2.13-2.1.53 0 1.15.2 1.57.57l.72-.69Z" fill="url(#ahur4z25g)"/><path d="M33.6 25.85V30h1.08v-2.25c0-.74.52-1.02 1.08-1.02.35 0 .56.1.78.26l.48-.86a1.73 1.73 0 0 0-1.12-.39c-.44 0-.89.08-1.22.58l-.08-.47h-1Z" fill="url(#bhur4z25g)"/><path d="M41.74 28.21c.17-1.65-.74-2.48-2.2-2.48-1.4 0-2.3.88-2.3 2.1 0 1.29.88 2.17 2.38 2.17.67 0 1.42-.24 1.88-.68l-.7-.62c-.24.23-.76.37-1.16.37-.76 0-1.23-.36-1.3-.86h3.4Zm-3.38-.82c.16-.52.64-.78 1.22-.78.62 0 1.06.26 1.13.78h-2.35Z" fill="url(#chur4z25g)"/><path d="M46.89 28.21c.17-1.65-.74-2.48-2.2-2.48-1.41 0-2.31.88-2.31 2.1 0 1.29.89 2.17 2.39 2.17.66 0 1.41-.24 1.87-.68l-.69-.62c-.24.23-.76.37-1.16.37-.76 0-1.23-.36-1.3-.86h3.4Zm-3.38-.82c.16-.52.63-.78 1.22-.78.61 0 1.06.26 1.13.78H43.5Z" fill="url(#dhur4z25g)"/><path d="M52 30v-2.24c0-1.27-.82-1.97-1.84-1.97-.55 0-1 .2-1.43.6l-.08-.55h-.96V30h1.07v-2.18c0-.62.45-1.13 1.11-1.13.7 0 1.05.46 1.05 1.08V30H52Z" fill="url(#ehur4z25g)"/><path d="M12.29 24.63c-.58-.23-1.78-1.08-1.4-2.64.14-.6.4-.91.65-1.2.31-.38.59-.7.51-1.5 1.07 1.53 1.82 2.88 1.62 3.8l-.2.67c-.16.45-.3.9-.23 1.43-.5-.34-1.5-1.67-1.19-3.87a4.46 4.46 0 0 0 .24 3.31Zm2.22.16c.49.01 1.62-.22 1.83-1.46.08-.47-.01-.78-.1-1.07-.1-.36-.2-.68.1-1.24-1.24.78-2.2 1.5-2.34 2.23l-.06.54c-.04.38-.07.74-.28 1.1.45-.08 1.59-.73 2.05-2.4a3.49 3.49 0 0 1-1.2 2.3Z" fill="#ABD904"/><path d="M28.13 33.4c-.22.25-.52.38-.8.38-.75 0-1.13-.6-1.14-1.27 0-.7.38-1.3 1.13-1.3.3 0 .58.12.8.37l.14-.13c-.26-.3-.6-.44-.94-.44-.88 0-1.33.73-1.32 1.5 0 .79.46 1.49 1.32 1.49.34 0 .68-.16.94-.45l-.13-.14ZM29.9 31c-.86 0-1.29.71-1.29 1.5 0 .76.43 1.5 1.3 1.5.86 0 1.29-.73 1.3-1.5 0-.78-.44-1.5-1.3-1.5Zm0 .2c.74 0 1.11.63 1.11 1.3 0 .65-.37 1.3-1.1 1.3-.73 0-1.1-.65-1.1-1.3 0-.69.36-1.3 1.1-1.3ZM32.82 32.84c.56 0 .83-.42.83-.89 0-.45-.29-.95-.84-.95h-1.13v3h.2v-1.15h.7l.88 1.15h.26l-.9-1.16Zm-.95-1.63h.94c.42 0 .63.4.62.74 0 .4-.2.69-.65.69h-.9V31.2ZM35.18 31.22c.86 0 .86 1.52 0 1.52h-.93v-1.52h.93Zm0 1.73c1.12 0 1.12-1.95 0-1.95h-1.12v3h.2v-1.05h.92ZM37.64 31c-.86 0-1.3.71-1.3 1.5 0 .76.44 1.5 1.3 1.5.87 0 1.3-.73 1.3-1.5 0-.78-.43-1.5-1.3-1.5Zm0 .2c.74 0 1.1.63 1.1 1.3 0 .65-.36 1.3-1.1 1.3-.73 0-1.1-.65-1.1-1.3 0-.69.37-1.3 1.1-1.3ZM40.55 32.84c.57 0 .84-.42.84-.89 0-.45-.29-.9-.85-.9h-1.13V34h.2v-1.15h.7L41.2 34h.26l-.9-1.16Zm-.94-1.59h.93c.43 0 .63.36.63.7 0 .4-.2.69-.65.69h-.91v-1.39ZM44.05 34l-1.15-3h-.22l-1.15 3h.21l.28-.76h1.53l.29.76h.21Zm-1.95-.97.69-1.77.69 1.77H42.1ZM44.7 34h.19v-2.8h.93V31h-2.06v.2h.93V34ZM46.4 34v-3h-.2v3h.2ZM48.22 31c-.86 0-1.3.71-1.3 1.5 0 .76.44 1.5 1.3 1.5.87 0 1.3-.73 1.3-1.5 0-.78-.43-1.5-1.3-1.5Zm0 .2c.74 0 1.1.63 1.1 1.3 0 .65-.36 1.3-1.1 1.3-.73 0-1.1-.65-1.1-1.3 0-.69.37-1.3 1.1-1.3ZM50 31v3h.19v-2.45L51.92 34H52v-3h-.2v2.45L50.09 31h-.09Z"/><defs><linearGradient id="ahur4z25g" x1="40.18" y1="29.78" x2="40.18" y2="26.05" gradientUnits="userSpaceOnUse"><stop stop-color="#93BA05"/><stop offset="1" stop-color="#ADDB04"/></linearGradient><linearGradient id="bhur4z25g" x1="40.18" y1="29.78" x2="40.18" y2="26.05" gradientUnits="userSpaceOnUse"><stop stop-color="#93BA05"/><stop offset="1" stop-color="#ADDB04"/></linearGradient><linearGradient id="chur4z25g" x1="40.18" y1="29.78" x2="40.18" y2="26.05" gradientUnits="userSpaceOnUse"><stop stop-color="#93BA05"/><stop offset="1" stop-color="#ADDB04"/></linearGradient><linearGradient id="dhur4z25g" x1="40.18" y1="29.78" x2="40.18" y2="26.05" gradientUnits="userSpaceOnUse"><stop stop-color="#93BA05"/><stop offset="1" stop-color="#ADDB04"/></linearGradient><linearGradient id="ehur4z25g" x1="40.18" y1="29.78" x2="40.18" y2="26.05" gradientUnits="userSpaceOnUse"><stop stop-color="#93BA05"/><stop offset="1" stop-color="#ADDB04"/></linearGradient></defs></svg>