<!-- by TradingView --><svg xmlns="http://www.w3.org/2000/svg" width="56" height="56" viewBox="0 0 56 56"><path fill="#F0F3FA" d="M0 0h56v56H0z"/><path d="M32 24.5c0-.28.22-.5.5-.5h2.7c.28 0 .5.22.5.5V27h.6v-2.5c0-.28.22-.5.5-.5h2.7c.28 0 .5.22.5.5v3.69S41.18 27 43.02 27c.91.01 1.78.3 2.07.3.36 0 .76-.3 1.1-.3h.11v-1.17c0-.45.36-.83.8-.83h2.01c.45 0 .89.38.89.83v1.47h.18a.8.8 0 0 1 .82.8v1.11a.8.8 0 0 1-.82.79h-.38v.12l.47.37c.17.15.23.37.23.6v1c0 .45-.33.91-.78.91H47.57c-.43 0-.84-.19-.84-.5 0 0-.01.5-.71.5-.5 0-.68-.31-1.04-.3-.37.02-.84.3-1.96.3C40.6 33 40 31.69 40 31.69v.83c0 .27-.22.48-.5.48h-2.7c-.28 0-.5-.2-.5-.48V29.7h-.6v2.8a.5.5 0 0 1-.5.5h-2.7a.5.5 0 0 1-.5-.5v-8ZM8 33v-6.18s-1.62.63-2.4.4a.46.46 0 0 1-.3-.4c-.02-.68 1.5-1.6 1.5-1.6s-.67-1.07-1.14-1.73c-.39-.53-1-.91-1.38-1.27a.79.79 0 0 1-.28-.58c0-.18.05-.34.12-.49a6.08 6.08 0 0 1 2.49-2.23 6.74 6.74 0 0 1 3.51-.92c.37 0 .66.36.7.67.08.46.22 1.3.37 1.78.2.72.75 1.44.75 1.44s1.75-.66 2.5.48c.12.2.16.44.15.63 0 .8-.87 1.34-.87 1.34s.45.27.72.5c.26.23.56.57.56.57v-1.75c0-.45.32-.66.76-.66h2.05c.44 0 .89.2.89.66V27h1.91c.45 0 .8.28.8.73v.15l.32-.56c.15-.25.41-.32.7-.32h1.74c.8 0 .83.88.83.88.84-.61 1.7-.88 2.7-.88 1.72 0 2.6.5 3.04 1.05.12.14.26.34.26.53 0 .1-.04.2-.1.3l-.88 1.04.78.95c.07.08.14.17.17.28a.9.9 0 0 1 .03.23c0 .15-.03.3-.13.42A3.92 3.92 0 0 1 27.9 33c-2 0-2.91-.98-2.91-.98v.2c0 .45-.3.78-.73.78h-2.3c-.23 0-.48-.15-.48-.37v-.1s-.63.47-1.55.47-1.23-.52-1.3-.47c-.16.1-.12.47-.88.47h-1.89c-.44 0-.87-.4-.87-.84 0-.13-.5.84-2.07.84H8Z" fill="#1F437B"/><path fill-rule="evenodd" d="M8.7 32.3v-5.77s1.3-.38 2.24-.75c.77-.3 1.9-.93 1.9-.93s.74.21 1.24.7c.68.65.94 1.36.68 2.24-.1.34-.53.74-.53.74a2.16 2.16 0 0 1 .23 3.08c-.62.69-1.96.69-1.96.69H8.7Zm1.9-4.48v-1.37h1.47s.55.13.53.71c-.02.58-.53.66-.53.66H10.6Zm0 1.49V31h1.61s.79-.11.79-.82c0-.72-.79-.87-.79-.87H10.6Z" fill="#50BCEB"/><path d="M15.7 23.7H18v8.6h-2.3v-8.6ZM18.7 27.7H21v2.75c0 .05.03.05.06.05.22 0 .58-.8.58-.8l.56-1.42v-.58h2.1v4.6h-2.1v-1.7c-.33.72-1.02 1.7-2.14 1.7-1.22 0-1.36-1.2-1.36-1.2v-3.4Z" fill="#50BCEB"/><path d="M13.23 22.16c-.84-.23-1.43.32-1.43.32s-.68-.94-.91-1.67c-.58-1.78-.13-1.94-.7-2.32-.56-.37-2.37.36-3.23.74-.7.31-2.43 1.58-2.43 2.26 0 .52 1.45 1.7 1.74 2.07.53.68 1.04 1.92 1.04 1.92s-1.56.89-1.04 1.16c.23.12.82.03 1.36-.16l4.27-1.53s2.1-.8 2.1-1.86c0-.2.05-.71-.77-.93Z" fill="#009ADB"/><path d="M13.21 22.14c-.7-.19-1.55.4-1.55.4l.34.39s-.63.78-1.8 1.48c-.87.52-1.63 1.03-2.68 1.03h-.33S6 26.19 6 26.63c0 .07.02.13.1.17.4.2.96-.14 1.34-.27 0 0 2.14-.9 3.76-1.64 1.17-.52 2.6-.82 2.6-1.9v-.06c0-.22-.03-.64-.59-.79Z" fill="#006CB8"/><path d="M7.2 25.37s.38.55 2.57-.62c1.34-.71 2.39-1.8 2.39-1.8l-.43-.54s-.35-.49-.62-1.07c0 0-1.14 1.09-2 1.62-.92.57-2.53 1.15-2.53 1.15.35.62.62 1.26.62 1.26Z" fill="#8CC5DE"/><path d="M7.76 18.9s.76 1.53 1.33 2.5c.2.34.4.75.66 1.14l.82-.68c-.2-.4-.42-.77-.58-1.12-.4-.9-.9-2.27-.9-2.27l-1.33.42Z" fill="#36ABDF"/><path d="m11.54 23.54-.71.56s-.55-.75-1.09-1.58l.83-.68c.47.88.97 1.7.97 1.7Z" fill="#BFDCEB"/><path d="M6.6 24.14a5.56 5.56 0 0 0-.4-.65c-.08-.1-.26-.28-.48-.5-.5-.5-1.19-1.17-1.19-1.53 0-.19.15-.43.37-.68 0 0 1.43 1.24 2.06 2.25.15.24.3.53.43.82l-.78.3Z" fill="#00759A"/><path d="M7.5 25.53c.14.02.46-.04.57-.1 0 0-.33-.83-.69-1.63l-.8.3c.34.65.6 1.33.6 1.33.06.04.18.08.32.1Z" fill="#6DA4C9"/><path fill-rule="evenodd" d="M46 27.56v4.83s-.73-.39-1.12-.39c-.42 0-.67.07-.93.15-.25.08-.51.15-.96.15-1.5 0-2.96-.87-2.99-2.28-.04-1.46 1.5-2.32 3.12-2.32.42 0 .67.08.92.15.23.08.47.15.84.15.38 0 1.12-.44 1.12-.44ZM43.86 29v2h-.75c-.5 0-.97-.49-.97-1.02 0-.54.49-.98.97-.98h.75Z" fill="#50BCEB"/><path d="M49.3 25.62H47V28h-.7v1.3h.7v1.55c0 .73.55 1.37 1.26 1.37h1.54V31c-.33 0-.42-.01-.5-.3v-1.4h1V28h-1v-2.38ZM27.97 32.3a3 3 0 0 0 2.33-1l-.6-.75c-.24.44-.75.75-1.41.75-.59 0-1.02-.28-1.29-.65l1.93-.43v-.46L27 29.42c.27-.37.65-.72 1.4-.72.9 0 1.23.63 1.23.63l.67-.75s-.75-.88-2.33-.88c-1.63 0-2.95 1.03-2.95 2.3 0 1.27 1.32 2.3 2.95 2.3ZM32.7 24.7H35v3h2v-3h2.3v7.6H37V29h-2v3.3h-2.3v-7.6Z" fill="#50BCEB"/></svg>