<!-- by TradingView --><svg width="56" height="56" xmlns="http://www.w3.org/2000/svg"><path fill="#F0F3FA" d="M0 0h56v56H0z"/><path d="M12 25.654V42l1.24-9.34v-8.217L12 25.654z" fill="#97D700"/><path d="M16.343 21.416l-1.595 1.557-1.507 9.686L12 42l2.66-9.427 1.683-11.157z" fill="#88D312"/><path d="M20.687 17.178l-1.95 1.903-4.078 13.492L12 42l3.989-9.34 4.698-15.482z" fill="#79CF25"/><path d="M25.385 12.595L15.989 32.66 12 42l5.319-9.081L28.044 10l-2.659 2.595z" fill="#6ACB37"/><path d="M12 42l6.56-8.649L31.5 13.373l-.975-.865-13.207 20.41L12 42z" fill="#5BC74A"/><path d="M12 42l7.8-8.13 14.804-17.383-.886-.952L18.56 33.351 12 42z" fill="#4CC35C"/><path d="M12 42l8.953-7.438 16.665-15.135-.975-.951L19.8 33.87 12 42z" fill="#43C168"/><path d="M12 42l10.105-6.66 18.35-13.145-.887-.865-18.615 13.232L12 42z" fill="#39BE73"/><path d="M12 42l11.08-5.708 20.3-11.243-.976-.952L22.105 35.34 12 42z" fill="#30BC7F"/><path d="M12 42l12.055-4.757L44 28.94v-1.383l-20.92 8.735L12 42z" fill="#26B98B"/><path d="M12 42l12.942-3.632L44 32.659v-1.383l-19.945 5.967L12 42z" fill="#1CB796"/><path d="M12 42l13.74-2.508L44 36.032V34.65l-19.058 3.718L12 42z" fill="#13B5A2"/><path d="M12 42l14.537-1.297L44 39.059v-1.297l-18.26 1.73L12 42z" fill="#0AB2AD"/><path d="M12 42h32v-1.297H26.537L12 42z" fill="#00B0B9"/></svg>