<!-- by TradingView --><svg width="56" height="56" viewBox="0 0 56 56" xmlns="http://www.w3.org/2000/svg"><path fill="#F0F3FA" d="M0 0h56v56H0z"/><path d="M9.21 32c-.86 0-1.56-.28-2.05-.98l-.16.04V32H6v-8h1v2.94l.16.04c.49-.7 1.2-.98 2.05-.98 1.76 0 2.79 1.34 2.79 3s-1.03 3-2.79 3Zm-.24-.68c1.2 0 2.03-1 2.03-2.32 0-1.32-.82-2.32-2.03-2.32S7 27.68 7 29c0 1.32.76 2.32 1.97 2.32ZM13.5 25c-.3 0-.5-.19-.5-.5s.2-.5.5-.5.5.19.5.5-.2.5-.5.5ZM13 32h1v-6h-1v6Z" fill="#D52327"/><path d="M34.5 25c-.3 0-.5-.19-.5-.5s.2-.5.5-.5.5.19.5.5-.2.5-.5.5ZM34 32h1v-6h-1v6ZM42.5 25c-.3 0-.5-.19-.5-.5s.2-.5.5-.5.5.19.5.5-.2.5-.5.5ZM42 32h1v-6h-1v6Z" fill="#2E2D2E"/><path d="M18 32c-1.75 0-3-1.17-3-3s1.25-3 3-3c1.73 0 3 1.17 3 3s-1.27 3-3 3Zm0-.73c1.1 0 2-.85 2-2.27s-.9-2.27-2-2.27c-1.11 0-2 .85-2 2.27s.89 2.27 2 2.27Z" fill="#D52327"/><path d="M27 32h-.82c-.23 0-.32-.06-.39-.24L25.06 30h-4.13l-.72 1.76c-.07.18-.17.24-.39.24H19l3.45-8h1.1L27 32Zm-2.21-2.76L23.06 25h-.13l-1.73 4.24h3.59ZM29 32h-1v-5h-1v-.64h1v-.66c0-1.26.5-1.7 1.39-1.7.24 0 .46.05.61.1v.4c0 .13-.06.18-.2.18-.8 0-.8.23-.8 1.07v.6h1V27h-1v5ZM32 32h-1v-5h-1v-.64h1v-.66c0-1.26.5-1.7 1.39-1.7.24 0 .46.05.61.1v.4c0 .13-.06.18-.2.18-.8 0-.8.23-.8 1.07v.6h1V27h-1v5ZM41 32h-1v-3.55c0-1.15-.36-1.7-1.37-1.7-.98 0-1.63.87-1.63 2.14V32h-1v-6h1v1.02l.1.05A2.04 2.04 0 0 1 38.93 26c1.37 0 2.07.67 2.07 2.26V32ZM46.25 32c-.98 0-1.25-.43-1.25-1.68V27h-1v-.62h1v-.87l.54-.51H46v1.38h1V27h-1v3.29c0 .87-.03 1.04.8 1.04.14 0 .2.06.2.18v.39c-.17.05-.49.1-.75.1ZM7.22 33.4V36h-.46v-2.6H6V33h2v.4h-.78ZM9 36v-3h2v.4H9.44v.82h1.43v.4H9.44v.98H11v.4H9ZM36 36v-3h2v.4h-1.56v.82h1.43v.4h-1.43v.98H38v.4h-2ZM13 35.84c-.16.1-.39.16-.68.16-.83 0-1.32-.73-1.32-1.5 0-.8.48-1.5 1.32-1.5.24 0 .46.05.68.15v.45a1.26 1.26 0 0 0-.68-.22c-.62 0-.86.53-.86 1.1 0 .56.25 1.14.88 1.14.22 0 .44-.08.66-.22v.44ZM15.62 36v-1.38h-1.21V36H14v-3h.4v1.22h1.22V33H16v3h-.38ZM18.66 36l-1.3-2.21V36H17v-3h.39l1.21 2.1V33h.4v3h-.34ZM23 34.48c0 .87-.62 1.52-1.5 1.52-.87 0-1.5-.64-1.5-1.5s.64-1.5 1.5-1.5c.84 0 1.5.62 1.5 1.48Zm-.46 0c0-.61-.4-1.1-1.04-1.1-.65 0-1.04.48-1.04 1.1 0 .62.4 1.14 1.04 1.14s1.04-.52 1.04-1.13ZM29 34.48c0 .87-.62 1.52-1.5 1.52-.87 0-1.5-.64-1.5-1.5s.64-1.5 1.5-1.5c.84 0 1.5.62 1.5 1.48Zm-.46 0c0-.61-.4-1.1-1.04-1.1-.65 0-1.04.48-1.04 1.1 0 .62.4 1.14 1.04 1.14s1.04-.52 1.04-1.13ZM24 36v-3h.47v2.6H26v.4h-2ZM33 35.75c-.43.17-.84.25-1.23.25-.88 0-1.77-.49-1.77-1.47 0-1 .89-1.53 1.81-1.53.38 0 .75.06 1.1.18v.45a2.77 2.77 0 0 0-1.1-.24c-.67 0-1.3.38-1.3 1.12 0 .7.62 1.1 1.27 1.1.26 0 .5-.04.7-.12v-.74h-.75v-.38H33v1.38ZM41 35.2c0 .25-.12.45-.37.6-.22.13-.5.2-.83.2-.29 0-.55-.04-.78-.13v-.43c.3.13.57.2.8.2.17 0 .31-.03.43-.1.14-.07.21-.18.21-.3 0-.14-.07-.27-.23-.38a4.96 4.96 0 0 0-.5-.3c-.49-.28-.73-.55-.73-.81 0-.25.11-.44.34-.57.2-.12.46-.18.77-.18.23 0 .45.04.7.11v.41a1.95 1.95 0 0 0-.71-.17.76.76 0 0 0-.38.1c-.12.06-.18.15-.18.27 0 .1.07.2.23.31.04.04.21.14.5.3.49.28.73.57.73.86ZM34 33h1v.38h-.27v2.24H35V36h-1v-.38h.27v-2.24H34V33Z" fill="#2E2D2E"/><path d="M32 17a1 1 0 1 0 0-2 1 1 0 0 0 0 2Zm-2 0a1 1 0 1 1-2 0 1 1 0 0 1 2 0Zm-4 2a1 1 0 1 0 0-2 1 1 0 0 0 0 2Zm-2 0a1 1 0 1 1-2 0 1 1 0 0 1 2 0Zm-2 2a1 1 0 1 1-2 0 1 1 0 0 1 2 0Zm26 0a1 1 0 1 0 2 0 1 1 0 0 0-2 0Zm-1-1a1 1 0 1 1 0-2 1 1 0 0 1 0 2Zm-4-2a1 1 0 1 0 2 0 1 1 0 0 0-2 0Zm-2 0a1 1 0 1 1 0-2 1 1 0 0 1 0 2Zm-4-2a1 1 0 1 0 2 0 1 1 0 0 0-2 0Zm-2 1a1 1 0 1 0 0-2 1 1 0 0 0 0 2Z" fill="url(#ajsfkyy1t)"/><defs><linearGradient id="ajsfkyy1t" x1="22.21" y1="21.64" x2="50" y2="21.64" gradientUnits="userSpaceOnUse"><stop stop-color="#2F2E2E"/><stop offset="1" stop-color="#B8B9B8"/></linearGradient></defs></svg>