<!-- by TradingView --><svg width="56" height="56" xmlns="http://www.w3.org/2000/svg"><path fill="#059BD8" d="M0 0h56v56H0z"/><path d="M31.34 19.777c0 1.336-.004 2.676 0 4.012.005.83.018 1.659.04 2.488.018.56.053 1.12.084 1.677.017.29.035.578.07.87.03.273.083.546.127.82.022.147.048.3.08.448.017.072.039.148.078.21.018.027.08.036.119.045.026.005.057-.018.083-.018.4-.013.804-.04 1.204-.035.312.004.624.035.932.071.312.036.623.08.935.14.277.049.554.12.83.183.216.05.436.094.65.157.26.076.51.17.765.26.15.054.303.107.448.17.185.08.365.166.545.256.114.053.224.116.33.184.351.215.685.452.874.838.105.215.127.457.097.695-.066.51-.317.928-.66 1.29a3.846 3.846 0 01-.887.7c-.25.143-.496.291-.751.412-.264.126-.54.22-.813.323a6.817 6.817 0 01-.51.175c-.215.063-.43.12-.645.18-.167.044-.339.093-.506.134a10.71 10.71 0 01-.404.085c-.237.045-.47.094-.707.134-.255.04-.514.068-.769.099-.299.036-.597.076-.896.108-.132.013-.264.022-.391.035-.334.023-.668.05-1.002.072-.07.005-.136 0-.206.005-.057.004-.088-.023-.093-.081a.679.679 0 01-.008-.094c-.014-.251-.031-.502-.044-.753-.013-.216-.018-.43-.035-.65-.04-.556-.084-1.108-.128-1.663-.026-.341-.048-.677-.074-1.018-.018-.238-.04-.48-.062-.717-.03-.35-.061-.7-.097-1.05-.008-.102-.026-.2-.04-.304-.012-.112-.017-.22-.03-.332-.013-.12-.035-.242-.053-.363 0-.009-.004-.018-.004-.027-.026-.25-.048-.502-.08-.748-.034-.274-.074-.547-.109-.816-.04-.282-.07-.565-.114-.843-.04-.25-.084-.506-.128-.757-.03-.18-.052-.359-.079-.538l-.132-.807-.092-.579c-.04-.224-.083-.452-.127-.676-.026-.144-.053-.287-.075-.43a33.785 33.785 0 01-.127-.718c-.035-.188-.062-.376-.101-.56-.04-.202-.088-.404-.128-.605-.03-.148-.052-.292-.079-.44l-.118-.591a25.28 25.28 0 00-.11-.56c-.013-.077.022-.113.088-.14.382-.148.764-.296 1.15-.439.414-.157.827-.305 1.244-.462.193-.071.387-.148.58-.224.079-.031.101-.018.097.076 0 .184-.01.368-.01.556v.13h-.026zm2.074 12.444c-.162-.009-.18.014-.176.13 0 .014.005.031.005.045l.118.883.053.363c.04.273.08.551.114.825.031.228.057.457.088.686.013.085.075.107.14.058.155-.112.304-.229.458-.34.25-.184.496-.373.747-.557.254-.192.51-.38.764-.573.14-.108.286-.215.426-.328.048-.035.048-.071-.009-.094-.206-.094-.408-.193-.615-.287-.202-.09-.413-.174-.615-.26-.136-.058-.272-.12-.413-.174a20.945 20.945 0 00-.742-.27c-.119-.049-.255-.08-.343-.107zM11.114 22.122c0 .524-.01 1.049 0 1.573.021 1.072.043 2.147.079 3.219.013.466.048.937.079 1.403.017.246.044.488.07.73.018.17.035.341.07.511.044.225.097.444.154.664.03.116.07.134.189.107.009 0 .018-.004.026-.004.44-.013.879-.031 1.314-.036.21 0 .426.014.633.04.272.032.54.081.812.126.308.05.611.103.914.161.176.036.352.086.523.13a13.931 13.931 0 011.094.328c.18.062.36.13.536.206.154.067.307.148.457.22.285.138.549.309.8.506.17.139.329.296.43.493.114.224.15.475.119.726-.04.305-.141.587-.304.847a3.26 3.26 0 01-.62.709 5.451 5.451 0 01-1.22.789c-.308.148-.633.269-.954.394a8.237 8.237 0 01-.558.193c-.193.058-.386.108-.58.157-.188.05-.377.103-.566.143-.154.036-.308.054-.466.085-.18.036-.356.077-.54.103-.264.04-.528.081-.791.113-.317.04-.637.08-.958.116a8.258 8.258 0 01-.47.036c-.356.022-.716.05-1.072.072-.132.009-.132 0-.14-.135-.023-.38-.049-.757-.07-1.138l-.067-.978-.092-1.214c-.022-.265-.035-.534-.057-.798-.035-.413-.075-.82-.114-1.233-.018-.197-.036-.39-.058-.587-.03-.265-.065-.525-.096-.79-.031-.26-.049-.524-.08-.784-.026-.242-.065-.488-.096-.73-.04-.3-.079-.596-.123-.897-.04-.255-.088-.51-.127-.766-.031-.198-.053-.395-.08-.588-.03-.21-.07-.42-.105-.632-.048-.304-.1-.605-.15-.91-.034-.228-.07-.452-.11-.681-.06-.323-.126-.645-.188-.973-.035-.197-.066-.394-.101-.587-.035-.193-.08-.385-.119-.583-.03-.152-.057-.309-.088-.461l-.118-.601c-.044-.22-.092-.44-.132-.663-.018-.086.044-.113.105-.135.238-.09.47-.18.708-.269.22-.085.44-.166.659-.246.167-.063.338-.13.505-.198.224-.085.444-.166.668-.25.092-.037.18-.072.272-.104a.736.736 0 01.14-.045c.084-.018.106.005.102.09-.009.251-.013.502-.022.758-.005.192-.005.38-.005.573v1.681c-.013.014-.017.014-.021.014zm2.056 10.1c-.15-.005-.172.022-.159.134.014.094.031.188.044.286.018.108.027.22.044.328l.093.587c.035.246.066.498.096.749.04.282.084.564.123.851.013.081.075.108.14.063.023-.013.04-.036.062-.05.312-.232.62-.465.932-.699.237-.179.474-.363.716-.542.215-.161.43-.314.646-.48.088-.067.079-.103-.014-.148l-.118-.053-.694-.296c-.264-.117-.527-.238-.795-.345-.26-.103-.528-.198-.791-.287-.119-.054-.242-.076-.325-.099zM43.303 21.032c.15.018.304.032.453.05.08.009.119.072.123.148.03.39.057.775.084 1.165l.079 1.291c.022.332.044.664.07.995.035.435.07.87.1 1.3.014.162.023.328.032.489.022.31.052.619.074.928.031.38.053.762.084 1.138.022.328.044.655.07.982.022.336.044.668.07 1.004l.106 1.287c.04.529.075 1.058.118 1.587.036.47.075.941.115 1.412.008.098-.01.12-.106.139-.395.062-.79.071-1.186.004-.088-.018-.118-.058-.123-.143-.035-.462-.075-.924-.114-1.386-.013-.134-.026-.268-.035-.403-.027-.318-.049-.636-.08-.95-.035-.35-.087-.695-.122-1.045-.036-.318-.062-.64-.097-.959-.044-.412-.092-.825-.14-1.242a26.092 26.092 0 00-.07-.573c-.04-.274-.084-.543-.12-.816-.03-.22-.052-.44-.083-.66-.04-.295-.088-.59-.127-.887-.036-.25-.062-.502-.102-.753-.035-.233-.083-.466-.118-.7-.03-.187-.053-.38-.084-.573-.04-.256-.087-.506-.127-.762-.035-.206-.061-.417-.097-.623-.04-.21-.083-.421-.123-.632-.035-.188-.066-.381-.096-.57-.01-.053.008-.09.07-.098.04-.004.08-.022.119-.022.36-.036.724-.068 1.085-.1.1-.008.202 0 .303 0-.005-.008-.005-.012-.005-.021zM23.13 21.037c.1.009.25.022.4.045.087.013.122.08.13.161.014.126.027.251.032.377l.079 1.394c.022.35.048.7.074 1.049.031.421.07.838.102 1.26.048.613.092 1.228.136 1.837.044.583.083 1.161.123 1.744.022.336.044.677.074 1.013.04.47.088.937.123 1.408.036.457.062.91.097 1.367.03.43.07.865.101 1.295.018.238.026.475.04.713.004.04.017.08.026.121.018.076-.009.112-.088.126a3.35 3.35 0 01-1.015.031c-.074-.009-.15-.014-.22-.036-.03-.009-.07-.05-.07-.076-.03-.296-.052-.596-.083-.892-.03-.336-.066-.668-.101-1.004-.013-.14-.022-.283-.035-.422-.027-.327-.049-.65-.084-.977-.035-.323-.083-.64-.123-.964-.035-.318-.057-.636-.096-.95-.04-.327-.088-.654-.128-.982-.03-.25-.053-.506-.083-.757-.035-.278-.084-.552-.123-.83 0-.013-.005-.022-.005-.035-.03-.256-.057-.511-.092-.767a38.37 38.37 0 00-.145-.99c-.03-.216-.07-.426-.101-.637-.035-.247-.066-.489-.11-.735-.061-.359-.127-.717-.189-1.08-.035-.216-.061-.435-.1-.65-.036-.193-.076-.381-.115-.574-.022-.117-.048-.229-.062-.345-.004-.027.022-.077.044-.086a.559.559 0 01.176-.035c.351-.036.707-.068 1.059-.1.105-.008.206-.008.351-.017zM47.982 32.67c0 .775.005 1.546 0 2.321 0 .292-.017.579-.021.87 0 .063-.031.094-.088.099-.044.004-.093.004-.137.004-.311.014-.623.027-.935.045-.119.004-.233.018-.352.027-.075.009-.105-.023-.114-.103a26.068 26.068 0 00-.075-.83c-.04-.354-.088-.708-.123-1.062-.04-.377-.061-.758-.096-1.138-.022-.283-.049-.565-.075-.848l-.066-.735c-.026-.287-.053-.57-.075-.856a231 231 0 01-.127-1.74c-.009-.16 0-.156.162-.17.343-.027.686-.076 1.029-.09a8.26 8.26 0 01.817.028c.136.008.162.134.175.246.018.148.031.296.04.448.017.31.035.619.04.928.017.852.026 1.7.039 2.55-.009.005-.013.005-.018.005zM22.19 35.328c.003.26 0 .22-.251.264-.295.054-.593.094-.888.135-.127.018-.255.03-.382.044-.066.01-.088-.035-.097-.09-.04-.21-.074-.425-.114-.636-.03-.157-.066-.314-.096-.47-.04-.193-.075-.386-.11-.579-.04-.197-.075-.39-.115-.587-.04-.202-.07-.403-.11-.6-.03-.162-.065-.319-.096-.48-.035-.184-.075-.368-.105-.552-.058-.318-.106-.636-.163-.95-.04-.206-.088-.408-.123-.614-.03-.18-.053-.363-.084-.543-.03-.192-.066-.385-.096-.578-.031-.183-.062-.363-.088-.547-.018-.107 0-.125.105-.148.246-.049.492-.09.734-.147.281-.072.571-.086.857-.108.096-.005.193-.005.285.004.106.01.18.09.198.211.053.35.11.7.158 1.049.04.274.075.547.106.825.04.354.066.708.105 1.062.044.448.097.897.14 1.345.036.363.058.726.084 1.085.026.336.044.668.075 1.004.017.206.048.403.07.6zM39.499 28.577c-.005-.148-.009-.153.132-.18.224-.049.452-.085.672-.143.272-.072.553-.072.83-.112a.775.775 0 01.418.045c.043.018.087.076.1.125.124.484.19.982.233 1.48.027.309.07.618.102.927.04.377.07.749.105 1.125.044.444.097.888.136 1.327.035.381.053.767.084 1.148.022.327.048.659.074.986 0 .027.014.05.022.076.022.094-.022.157-.118.17l-.791.108c-.193.027-.382.063-.576.099-.087.013-.114-.01-.131-.094-.036-.184-.084-.372-.12-.556-.021-.108-.03-.22-.052-.327-.044-.238-.096-.475-.14-.713-.066-.34-.123-.686-.19-1.027-.039-.206-.087-.416-.127-.623a7.63 7.63 0 01-.074-.439c-.035-.188-.066-.372-.101-.56-.044-.238-.084-.471-.128-.709-.04-.215-.088-.434-.127-.65-.027-.13-.049-.264-.07-.394a74.948 74.948 0 01-.154-.986c-.005-.027-.005-.063-.01-.103zM27.751 32.746v2.483c0 .215-.018.426-.022.641 0 .054-.026.08-.075.09-.021.004-.04.004-.061.009-.316.013-.637.031-.953.044-.132.01-.264.023-.396.027-.114.005-.132-.013-.14-.125-.014-.161-.022-.327-.04-.493-.022-.26-.048-.525-.075-.785-.03-.318-.07-.636-.1-.959-.053-.538-.106-1.071-.154-1.61-.04-.42-.07-.846-.106-1.268a56.396 56.396 0 01-.07-.892l-.08-1.125v-.08c.01-.122.027-.135.15-.144.356-.032.707-.072 1.063-.094.198-.014.396.004.593.013a.857.857 0 01.26.05c.04.013.087.067.096.112.035.174.07.35.075.529.026 1.192.044 2.384.066 3.577h-.03zM47.75 26.142v1.291c0 .09-.027.117-.115.103-.259-.027-.518-.058-.777-.085-.07-.009-.075-.054-.075-.108-.009-.282-.013-.564-.022-.842-.013-.578-.022-1.16-.035-1.739-.004-.13.004-.139.127-.13.25.013.506.027.756.045.136.009.163.031.163.17.004.43 0 .86 0 1.29-.005.005-.014.005-.022.005zM26.508 25.726v-.977c0-.112.009-.126.118-.117.25.013.501.018.747.05.163.017.194.026.194.201-.014.807-.018 1.613-.04 2.416-.009.29.018.246-.237.224a16.126 16.126 0 01-.65-.072c-.058-.005-.066-.045-.07-.094-.01-.256-.027-.516-.032-.771-.004-.287 0-.574 0-.86h-.03zM20.458 24.367h.387c.11 0 .132.018.145.13.026.251.048.502.07.753.04.457.075.91.11 1.367.009.121.009.247.017.368 0 .027.005.058.014.085.026.112.008.134-.106.134-.255-.004-.51-.009-.764-.009-.057 0-.08-.026-.084-.076-.017-.116-.04-.237-.052-.354-.036-.3-.066-.605-.097-.91l-.066-.645c-.022-.229-.048-.457-.07-.686 0-.013-.005-.031-.005-.044-.017-.081-.004-.104.084-.108.132 0 .272 0 .417-.005 0 .005 0 .005 0 0zM40.672 24.367h.395c.114 0 .14.032.15.144.04.515.083 1.026.123 1.542.026.345.057.69.083 1.035.009.098-.013.12-.11.116-.162-.009-.32-.027-.483-.031a.984.984 0 00-.228.022c-.106.018-.141-.004-.154-.112-.035-.26-.066-.524-.097-.784-.026-.22-.035-.44-.07-.654a5.747 5.747 0 01-.07-.668c-.01-.166-.04-.327-.062-.493-.009-.08.026-.112.101-.112.15.004.286 0 .422-.005 0 .005 0 .005 0 0zM25.862 24.672h.088c.075-.004.11.032.114.108.026.56.048 1.125.08 1.685.012.296.043.592.06.883.01.139-.004.148-.144.152-.176.01-.352.023-.523.032-.123.009-.15-.01-.163-.13-.035-.337-.066-.677-.1-1.013-.023-.247-.049-.489-.071-.735-.022-.21-.044-.417-.07-.628-.005-.053-.031-.103-.022-.152.004-.036.044-.094.074-.099.229-.044.457-.08.686-.116-.009.004-.009.009-.009.013zM40.092 27.12c.004.165-.004.17-.171.188-.176.018-.352.049-.527.076-.07.009-.093-.014-.106-.085-.057-.3-.127-.601-.189-.901-.035-.17-.061-.345-.097-.516-.04-.188-.087-.372-.123-.56-.04-.192-.07-.385-.1-.578-.005-.022.03-.063.052-.072.242-.067.479-.125.72-.188.115-.027.154.01.172.13.04.273.088.547.132.816.026.183.048.363.074.547.044.313.093.622.137.936.008.072.017.14.026.206zM19.14 27.393c-.022-.023-.066-.054-.079-.095a8.955 8.955 0 01-.1-.47c-.05-.233-.093-.466-.137-.7l-.092-.488c-.035-.17-.075-.34-.11-.51a5.4 5.4 0 01-.07-.368c-.005-.027.03-.08.057-.09.232-.067.46-.125.694-.184.15-.035.193-.004.215.18.03.22.048.439.08.659.034.242.083.484.118.726.035.25.066.497.1.748.014.103.04.202.058.3.022.117 0 .17-.106.189-.197.04-.4.067-.628.103zM46.405 27.025v.377c0 .063-.022.098-.088.103-.197.009-.395.022-.593.036-.079.004-.118-.018-.123-.103-.017-.202-.04-.404-.061-.6-.04-.341-.084-.678-.128-1.018-.004-.027 0-.058-.004-.09l-.066-.618a1.161 1.161 0 01-.004-.247c.004-.031.04-.08.066-.085.254-.04.51-.076.764-.112.075-.009.101.027.105.099l.08 1.322c.017.327.035.65.052.936z" fill="#fff"/></svg>