<!-- by TradingView --><svg width="56" height="56" viewBox="0 0 56 56" fill="none" xmlns="http://www.w3.org/2000/svg">
<rect width="56" height="56" fill="#F0F3FA"/>
<path d="M34.9999 41C40.0153 41 44.3674 38.1598 46.5355 34H44.221C42.2583 37.0102 38.8615 39 34.9999 39C31.1384 39 27.7416 37.0102 25.7789 34H23.4644C25.6324 38.1598 29.9845 41 34.9999 41Z" fill="#A4ECA3"/>
<path fill-rule="evenodd" clip-rule="evenodd" d="M32.5356 34C30.3675 38.1598 26.0154 41 21 41C15.9846 41 11.6325 38.1598 9.46442 34H11.7789C13.7416 37.0102 17.1384 39 21 39C24.8616 39 28.2584 37.0102 30.2211 34H32.5356ZM32.5356 22C30.3675 17.8402 26.0154 15 21 15C15.9846 15 11.6325 17.8402 9.46442 22H11.7789C13.7416 18.9898 17.1384 17 21 17C24.8616 17 28.2584 18.9898 30.2211 22H32.5356ZM8 28C8 26.6044 8.21992 25.2601 8.627 24H10.7499C10.2657 25.2397 10 26.5888 10 28C10 29.4112 10.2657 30.7603 10.7499 32H8.627C8.21992 30.7399 8 29.3956 8 28Z" fill="#32C5B3"/>
<path d="M46.5355 22C44.3674 17.8402 40.0153 15 34.9999 15C29.9845 15 25.6324 17.8402 23.4644 22H25.7789C27.7416 18.9898 31.1384 17 34.9999 17C38.8615 17 42.2583 18.9898 44.221 22H46.5355Z" fill="#A4ECA3"/>
<path d="M47.9999 28C47.9999 29.3956 47.78 30.7399 47.3729 32H45.2501C45.7343 30.7603 46 29.4112 46 28C46 26.5888 45.7343 25.2397 45.2501 24H47.3729C47.78 25.2601 47.9999 26.6044 47.9999 28Z" fill="#32C5B3"/>
<path d="M24.7499 24C24.2657 25.2397 24 26.5888 24 28C24 29.4112 24.2657 30.7603 24.7499 32H22.627C22.2199 30.7399 22 29.3956 22 28C22 26.6044 22.2199 25.2601 22.627 24H24.7499Z" fill="#32C5B3"/>
<path fill-rule="evenodd" clip-rule="evenodd" d="M13.7323 24H9.38477V28.2281H13.7323C14.8998 28.2281 15.8463 27.2816 15.8463 26.114C15.8463 24.9465 14.8998 24 13.7323 24ZM13.0001 25H10.0001V27H13.0001C13.5524 27 14.0001 26.5523 14.0001 26C14.0001 25.4477 13.5524 25 13.0001 25Z" fill="#32C5B3"/>
<path fill-rule="evenodd" clip-rule="evenodd" d="M14.1938 32H9.38477V27.7719H14.1938C15.3614 27.7719 16.3078 28.7184 16.3078 29.886C16.3078 31.0535 15.3614 32 14.1938 32ZM13.0001 31H10.0001V29H13.0001C13.5524 29 14.0001 29.4477 14.0001 30C14.0001 30.5523 13.5524 31 13.0001 31Z" fill="#32C5B3"/>
<path d="M31 24V32H33V27.5L35.0781 31H35.9219L38 27.5V32H40V24H38.1719L35.5 28.3661L32.8281 24H31Z" fill="#32C5B3"/>
</svg>
