<!-- by TradingView --><svg width="56" height="56" viewBox="0 0 56 56" xmlns="http://www.w3.org/2000/svg"><path fill="#2E008C" d="M0 0h56v56H0z"/><path d="M27 15.8V12c-11.4 1.22-11.76 11.17-10.5 16 .5-2.29 2.25-6.86 6-7.62 3.58-.73 4.5-3.3 4.5-4.57ZM27 40.19V44c-11.4-1.22-11.76-11.17-10.5-16 .5 2.29 2.25 6.86 6 7.62 3.58.73 4.5 3.3 4.5 4.57ZM29 15.8V12c11.4 1.22 11.76 11.17 10.5 16-.5-2.29-2.25-6.86-6-7.62-3.58-.73-4.5-3.3-4.5-4.57ZM29 40.19V44c11.4-1.22 11.76-11.17 10.5-16-.5 2.29-2.25 6.86-6 7.62-3.58.73-4.5 3.3-4.5 4.57Z" fill="#fff"/><circle cx="28" cy="28" r="3" fill="#F4A020"/></svg>