<!-- by TradingView --><svg xmlns="http://www.w3.org/2000/svg" width="56" height="56"><path fill="#F0F3FA" d="M0 0h56v56H0z"/><path d="M43 30.03c0 8.05-6.36 14.62-14.33 14.97.05-5.2.75-12.9 10.07-14.48v-2.55c-4.54-.15-13.35 3.04-13.14 16.85a14.9 14.9 0 01-2.85-.75c-.4-5.65 2.21-17.14 14.47-19.26l-2.41-2.55c-5.61 1.08-15.32 6.1-14.43 20.68a15.06 15.06 0 01-2.97-2.3c-.69-4.96 1.28-14.78 14.36-21.28l-3.59-3.58c-5.2 3.95-12.46 10.86-13.97 20.17A14.92 14.92 0 0113 30.03c0-7.6 8.3-14.45 13-18.34A73.5 73.5 0 0028 10c.5.45 1.18 1.01 1.98 1.67C34.55 15.42 43 22.36 43 30.03zm-4.83 3.66c-1.36.02-4.47 1.22-5.97 5.85 1.35-.23 4.43-1.73 5.97-5.85z" fill="url(#a33isqdp0)"/><defs><linearGradient id="a33isqdp0" x1="28" y1="10" x2="28" y2="45" gradientUnits="userSpaceOnUse"><stop stop-color="#8AF321"/><stop offset="1" stop-color="#15AACC"/></linearGradient></defs></svg>