<!-- by TradingView --><svg xmlns="http://www.w3.org/2000/svg" width="56" height="56" viewBox="0 0 56 56"><path fill="url(#aa3q5pgwz)" d="M0 0h56v56H0z"/><path d="M50.88 28.13c.53.96 1.12 2.05 1.12 3.25 0 1.75-.86 2.79-1.83 3.31a3.5 3.5 0 0 1-1 .31h-.09a.62.62 0 0 1-.6-.47.54.54 0 0 1-.01-.24.62.62 0 0 1 .52-.5c.42-.07 1.77-.41 1.77-2.37a4.6 4.6 0 0 0-.62-2.01l-.29-.54-.06-.13-.42-.79-.05-.11-.06-.12-.25.66c-.33.81-.73 1.9-.75 1.96A2.57 2.57 0 0 1 45.82 32c-.7 0-1.36-.29-1.77-.87l-.08-.14a3.99 3.99 0 0 1-2.55 1 3 3 0 0 1-2.16-.84 2.86 2.86 0 0 1-1.98.85c-.55 0-1.06-.18-1.43-.5-.13-.11-.24-.23-.34-.37a1.94 1.94 0 0 1-.3-.72c-.08-.41-.02-.87.17-1.34l.22-.62.43-1.2-.16-.06a.6.6 0 0 0-.03-.02l-.04-.01c-.47-.2-.96-.53-1.32-.97l-.04.1a4.9 4.9 0 0 0-.07.18l-.68 1.76c-.18.5-.35.95-.5 1.3l-.03.1-.27.7A2.57 2.57 0 0 1 30.45 32c-.45 0-.87-.13-1.22-.35a1.9 1.9 0 0 1-.54-.52c-.4-.57-.44-1.3-.14-2.06l.16-.43c.09-.27.2-.6.33-.92l.02-.05.02-.06a5.37 5.37 0 0 1-1.84.57 3.71 3.71 0 0 1-.7 1.99 4.17 4.17 0 0 1-3.2 1.83c-.94 0-1.76-.36-2.34-1.01l-.06-.08a3.08 3.08 0 0 1-.06-.08l-.08-.12a1.09 1.09 0 0 0-.03-.05l-.03-.05c-.39.71-1 1.18-1.76 1.33a2.3 2.3 0 0 1-1.54-.16c-.26-.13-.49-.31-.67-.53-.52.53-1.22.75-1.95.75-.6 0-1.18-.27-1.55-.75-.47.5-1.15.75-1.83.75a2.2 2.2 0 0 1-1.44-.5l-.02-.02a1.79 1.79 0 0 1-.39-.47c-.7.6-1.6.99-2.54.99a3.18 3.18 0 0 1-2.33-1.02 3.22 3.22 0 0 1-.68-2.57c.06-.4.2-.78.38-1.13C5.1 26.02 6.27 25 7.91 25a3.16 3.16 0 0 1 2.46 1.2l.12.2.21-.54.13-.34a.4.4 0 0 1 .12-.17c.1-.08.23-.14.35-.14h.64c.2 0 .29.14.22.32l-1.32 3.55v.02c-.04.07-.24.57-.27.75-.06.35.06.63.31.8.15.07.33.12.53.12.75 0 1.1-.47 1.27-.88l1.85-4.63 1.18-2.95c.09-.16.3-.3.47-.3h.65c.2 0 .27.16.22.31l-1.27 3.15-1.4 3.49-.04.13c-.08.22-.23.63-.26.77-.04.24 0 .44.1.6l.11.1c.15.14.37.22.64.22.28 0 .51-.08.7-.19.22-.13.37-.32.48-.52l.09-.18.13-.33c.34-.9 1.26-3.31 2.08-5.4l1.05-2.66.47-1.18a.54.54 0 0 1 .47-.32h.64c.2 0 .29.14.22.32l-.57 1.45a2295.52 2295.52 0 0 1-2.17 5.48c-.4 1-.67 1.82-.67 1.82l-.15.4c-.06.14-.1.28-.12.37a.81.81 0 0 0 .05.49l.06.1c.11.18.31.28.55.32l.19.01c.74 0 1.1-.48 1.26-.88l.12-.3.22-.56.77-1.98c.59-1.53 1.29-3.35 1.84-4.73.06-.18.28-.31.47-.31h.64c.2 0 .3.14.22.31-.28.74-.57 1.46-.93 2.36l-.3.77c.46-.19.94-.3 1.44-.3a3.04 3.04 0 0 1 2.55 1.3v.02h.01c.12.17.2.34.27.52.49-.05 1-.2 1.46-.43.41-.2.85-.73 1.17-1.12l.14-.17c.09-.1.26-.2.4-.25l.2-.01h.65c.2 0 .3.13.22.3l-.38 1.03c-.16.45-.33.93-.48 1.3-.2.5-.38 1-.52 1.4l-.2.5c-.06.17-.09.32-.1.47 0 .18.04.34.12.46.14.2.4.32.73.32.76 0 1.11-.48 1.28-.88l.02-.06.4-1.07 1.14-2.93.43-1.07.05-.13a.54.54 0 0 1 .47-.32h.63a.3.3 0 0 1 .11.02h.03l.01.02h.03c.06.05.1.12.11.25v.1c0 .81.94 1.24 1.13 1.32h.01a3.15 3.15 0 0 0 .49.18c.14.05.28.12.4.23.05.07.1.13.14.22a.8.8 0 0 1 0 .67l-.02.04-.32.85c-.16.4-.32.89-.4 1.14l-.06.15c-.14.37-.14.7.02.92.08.12.2.2.35.26.12.04.25.07.39.07h.1a1.59 1.59 0 0 0 1.18-.7 3.09 3.09 0 0 1-.18-1.14l.04-.5c.02-.16.06-.3.1-.44l.03-.1a2.73 2.73 0 0 1 .05-.15 4.05 4.05 0 0 1 1.07-1.55l.03-.03a.37.37 0 0 0 .03-.03 3.9 3.9 0 0 1 2.56-1 3.12 3.12 0 0 1 2.33 1.01c.1.13.2.25.28.39l1.02-2.46.72-1.74a.56.56 0 0 1 .47-.32h.64c.2 0 .3.14.22.32l-1.47 3.67-1.31 3.26a3.59 3.59 0 0 0-.18.54v.03a.83.83 0 0 0 .03.48l.07.12c.15.2.4.32.73.32.75 0 1.1-.48 1.27-.88l1.4-3.67c.7-1.69 1.5-1.9 2.14-1.9a1.45 1.45 0 0 1 .63.16c.03.03.06.05.07.08.02.04.01.08 0 .14l-.23.57v.01a.1.1 0 0 1-.05.06.28.28 0 0 1-.06.03h-.02-.02c-.45.03-.74.26-.82.66-.1.56.3 1.3.75 2.13zm-8.16 2.27a2.91 2.91 0 0 0 1.34-2.31 1.82 1.82 0 0 0-.4-1.16 1.7 1.7 0 0 0-1.32-.59c-.5 0-.97.17-1.38.45-.34.24-.63.55-.83.92a3.02 3.02 0 0 0-.32 1.59c.05.33.17.62.37.86.2.24.47.4.78.5.17.06.36.08.55.08.41 0 .82-.11 1.17-.32h.01s.02 0 .03-.02zm-20.8-.23c.22.27.5.44.85.53.15.04.3.06.48.06 1.2 0 2.34-1.13 2.53-2.36.08-.57-.05-1.1-.38-1.48a1.59 1.59 0 0 0-.58-.43 1.9 1.9 0 0 0-.74-.15c-.6 0-1.17.24-1.63.63-.21.2-.4.42-.55.67l-.01.02-.01.01-.03.05a.77.77 0 0 1-.04.08l-.02.03a8.94 8.94 0 0 0-.15.38c-.03.1-.07.22-.09.37-.08.57.05 1.2.37 1.6zm-16.14.01c.32.37.8.58 1.34.58 1.12 0 2.18-.98 2.48-2.08l.06-.28a2.03 2.03 0 0 0-.37-1.57 1.71 1.71 0 0 0-1.33-.59c-1.36-.03-2.36 1.1-2.55 2.34a2.17 2.17 0 0 0 .37 1.6zm25.5-6c-.03.02-.07.02-.1.02a.76.76 0 0 1-.59-.28.8.8 0 0 1-.16-.62c.07-.47.48-.84.93-.9h.1a.4.4 0 0 1 .04 0h.04c.45.06.74.44.67.9-.07.46-.48.84-.94.89z" fill="#fff"/><defs><linearGradient id="aa3q5pgwz" x1="10.42" y1="9.71" x2="68.15" y2="76.02" gradientUnits="userSpaceOnUse"><stop stop-color="#1A1E21"/><stop offset="1" stop-color="#06060A"/></linearGradient></defs></svg>