<!-- by TradingView --><svg xmlns="http://www.w3.org/2000/svg" width="56" height="56" viewBox="0 0 56 56"><path fill="#F0F3FA" d="M0 0h56v56H0z"/><path fill-rule="evenodd" d="M35.6 33.05L28 46l-7.62-13H23c.83 0 3.99-.04 3.99-3.22 0-2.55-2.37-3.44-3.56-3.57 1.04-.07 3.06-.8 3.06-3.16 0-2.36-1.77-3.02-2.68-3.05H19v.53h1v11.82L11 17h34l-8 13.65c-.03-1.54-1.92-2.77-3.03-3.26-.37-.15-.97-.64-.97-1.39 0-.75.65-.98 1-1 1.24 0 1.89 1.27 2 2l.5.2v-2.7H36c0 .47-.25.62-.38.64-.6-.45-1.3-.64-1.57-.64-.29 0-2.05.09-2.05 2.7 0 1.54 1.28 2.37 2.34 3.05.74.47 1.37.88 1.37 1.42 0 1.03-.92 1.3-1.38 1.3-1.49 0-1.86-2.04-1.87-2.97H32v3.5h.35c0-.5.3-.6.45-.58.66.4 1.78.78 2.8.13zM31 19h-4v.5h1v16.43c0 2.14-.79 2.21-1.2 2.21-.31 0-.4-.25-.4-.38.48 0 .58-.48.6-.76 0-.37-.11-1-.9-1-.8 0-1.06.85-1.09 1.24 0 1.61 1.33 1.77 2 1.76 2.63 0 3.08-3.42 2.99-5.13V19.51h1V19zm-9 7v-5.5c1.66 0 2.02.96 2 1.44v2.2c0 1.5-1.33 1.86-2 1.86zm0 6.5v-6c2.08 0 2.53 1.05 2.5 1.57v2.4c0 1.64-1.67 2.04-2.5 2.03zM32 24v-3h2l-2 3z" fill="#BD3326"/></svg>