<!-- by TradingView --><svg width="56" height="56" xmlns="http://www.w3.org/2000/svg"><path fill="url(#paint0_linear)" d="M0 0h56v56H0z"/><path d="M42 14.403V12H15.025v9.502a97.738 97.738 0 018.65 7.972C29.138 23.795 35.285 18.771 42 14.403zM42 29.038v-4.041C37.675 28.6 33.691 32.75 30.163 37.12c.683.982 1.48 1.856 2.162 2.84 2.846-3.933 6.147-7.537 9.675-10.922zM25.838 31.986c.683.874 1.48 1.638 2.162 2.512 4.212-4.914 8.878-9.392 14-13.215V17.68c-5.919 4.15-11.382 8.956-16.162 14.307zM25.838 37.12c-.683-.874-1.48-1.857-2.163-2.731a25.795 25.795 0 00-2.163 2.73c.797.983 1.48 1.857 2.163 2.84.683-.874 1.366-1.857 2.163-2.84zM28 40.068c-.683.983-1.48 1.966-2.162 3.058h4.211c-.683-1.092-1.366-2.075-2.049-3.058zM19.35 40.068c-.683.983-1.366 1.966-2.049 3.058h4.212c-.683-1.092-1.48-2.075-2.163-3.058zM34.374 43.017H42v-9.61c-2.731 3.057-5.35 6.224-7.626 9.61zM15.025 39.959c.683-.983 1.365-1.857 2.048-2.84-.683-.873-1.365-1.747-2.048-2.511v5.351zM19.236 34.498c.683-.873 1.48-1.747 2.162-2.512-2.048-2.293-4.21-4.368-6.373-6.443v4.368c1.48 1.42 2.845 2.949 4.211 4.587z" fill="#FAB834"/><defs><linearGradient id="paint0_linear" x1="10.418" y1="9.712" x2="68.147" y2="76.017" gradientUnits="userSpaceOnUse"><stop stop-color="#1A1E21"/><stop offset="1" stop-color="#06060A"/></linearGradient></defs></svg>