<!-- by TradingView --><svg width="56" height="56" viewBox="0 0 56 56" xmlns="http://www.w3.org/2000/svg"><path fill="#F0F3FA" d="M0 0h56v56H0z"/><path d="M28 41c10.5 0 19-5.82 19-13s-8.5-13-19-13S9 20.82 9 28s8.5 13 19 13ZM13 24c6.35-1.5 14.15-2 19.24-2 6.35 0 6.88 2 6.88 2.5a5 5 0 0 1-.49 1.1c-.68 1.35-1.7 3.4-.57 3.4.74 0 1.59-.54 2.5-1.12 1.05-.66 2.19-1.38 3.32-1.38 1.7 0 2.12.33 2.12.5-.35 0-1.16.1-1.59.5l-.25.27C43.12 28.95 39.51 33 33.29 33c-5.82 0-18-2-23.29-4h16.94c.53 0 1.8-.2 2.65-1 .85-.8 1.06-1.33 1.06-1.5.17-.33.2-1.1-1.06-1.5C28 24.5 22.5 24 13 24Z" fill="#00477E"/></svg>