<!-- by TradingView --><svg xmlns="http://www.w3.org/2000/svg" width="56" height="56" viewBox="0 0 56 56"><path fill="url(#aoyihdcgv)" d="M0 0h56v56H0z"/><path d="m28 9-14 9.5L28 28l14-9.5L28 9Z" fill="url(#boyihdcgv)"/><path d="M42 18.5 28 28v19l14-9.5v-19Z" fill="url(#coyihdcgv)"/><path d="m28 28-14-9.5v19L28 47V28Z" fill="url(#doyihdcgv)"/><path d="M28 43V28l11-7.5v15L28 43Z" fill="url(#eoyihdcgv)"/><path d="m28 13-11 7.5L28 28l11-7.5L28 13Z" fill="url(#foyihdcgv)"/><path d="m28 28-11-7.5v15L28 43V28Z" fill="url(#goyihdcgv)"/><path fill-rule="evenodd" d="m28 9 14 9.5v19L28 47l-14-9.5v-19L28 9Zm-13.8 9.75 13.7 9.3V46.7l-13.7-9.3V18.75Zm13.9 27.94 13.7-9.3V18.75l-13.7 9.3V46.7ZM28 27.88l13.72-9.32L28 9.24l-13.72 9.32L28 27.88Z" fill="#8FA888"/><defs><linearGradient id="aoyihdcgv" x1="50.5" y1="7" x2="8.5" y2="48.5" gradientUnits="userSpaceOnUse"><stop stop-color="#636267"/><stop offset=".95" stop-color="#0C0111"/></linearGradient><linearGradient id="boyihdcgv" x1="14" y1="19" x2="42" y2="19" gradientUnits="userSpaceOnUse"><stop offset=".14" stop-color="#2C5F22"/><stop offset=".33" stop-color="#589337"/><stop offset=".49" stop-color="#6DB235"/><stop offset=".68" stop-color="#508C34"/><stop offset=".88" stop-color="#2D5F23"/></linearGradient><linearGradient id="coyihdcgv" x1="41" y1="21.5" x2="29" y2="45.5" gradientUnits="userSpaceOnUse"><stop stop-color="#2E6024"/><stop offset=".29" stop-color="#5F9B3B"/><stop offset=".48" stop-color="#679741"/><stop offset=".7" stop-color="#558C38"/><stop offset="1" stop-color="#296221"/></linearGradient><linearGradient id="doyihdcgv" x1="15" y1="20" x2="28" y2="46" gradientUnits="userSpaceOnUse"><stop stop-color="#2D6023"/><stop offset=".31" stop-color="#538D35"/><stop offset=".51" stop-color="#65A23B"/><stop offset=".71" stop-color="#558B37"/><stop offset="1" stop-color="#2A6322"/></linearGradient><linearGradient id="eoyihdcgv" x1="39" y1="30" x2="28" y2="30" gradientUnits="userSpaceOnUse"><stop stop-color="#5E5E5C"/><stop offset=".5" stop-color="#160D0E"/><stop offset="1" stop-color="#000600"/></linearGradient><linearGradient id="foyihdcgv" x1="39" y1="21" x2="17" y2="21" gradientUnits="userSpaceOnUse"><stop offset=".16" stop-color="#030104"/><stop offset=".29" stop-color="#242324"/><stop offset=".49" stop-color="#545454"/><stop offset=".67" stop-color="#1E1916"/><stop offset=".85" stop-color="#070C0B"/></linearGradient><linearGradient id="goyihdcgv" x1="28" y1="33" x2="17" y2="33" gradientUnits="userSpaceOnUse"><stop stop-color="#666467"/><stop offset=".13" stop-color="#5D5D5E"/><stop offset=".43" stop-color="#1C1714"/><stop offset="1" stop-color="#040108"/></linearGradient></defs></svg>