<!-- by TradingView --><svg width="56" height="56" xmlns="http://www.w3.org/2000/svg"><path fill="#3A7C96" d="M0 0h56v56H0z"/><path d="M9 30.75c0 .978-.936 1.44-1.832 1.405l.197-2.986C8.459 29.2 9 29.66 9 30.75zm-1.53-3.18l.179-2.724c.86-.004 1.594.202 1.594 1.19 0 1.063-.762 1.57-1.773 1.534zM7.212 34c2.085 0 3.879-1.052 3.879-3.352 0-.8-.42-1.873-1.145-2.272 1.184-.895 1.29-1.939 1.29-2.694 0-1.448-1.001-2.68-3.254-2.68h-2.26L5 34h2.212zm34.499-9.143l-.187 2.847h.26c1.015 0 1.466-.812 1.466-1.747 0-.814-.556-1.1-1.297-1.1h-.242zM41.11 34h-2.046l.72-11h2.19c1.987 0 3.371 1.024 3.371 2.956 0 .67-.254 2.309-1.678 3.024L45.22 34h-2.193l-1.58-5.113L41.112 34zm7.426-2l.456-7c1.729.015 1.936 1.893 1.86 3.253C50.775 29.63 50.447 32 48.537 32zm-33.834-9l-3.321 11h2.878l.521-2h-.612l1.545-6.123L15.98 30h.57l-.11 4h2.322l-1.849-11h-2.212zm5.86 0h2.224l-.667 9h2.257l-.136 2h-4.4l.721-11zm5.557 0l-.722 11h4.4l.136-2h-2.257l.667-9H26.12zm7.74 0h2.21l1.85 11h-2.322l.109-4h-.57l-.267-4.123L33.325 32h.613l-.522 2h-2.878l3.321-11zm14.286 11c3.953 0 4.703-3.676 4.839-5.833.072-1.153-.057-3.442-1.645-4.502-.687-.458-1.502-.665-3.022-.665h-1.244l-.709 11h1.781z" fill="#fff"/></svg>