<!-- by TradingView --><svg xmlns="http://www.w3.org/2000/svg" width="56" height="56" viewBox="0 0 56 56"><path fill="#137DA5" d="M0 0h56v56H0z"/><path fill-rule="evenodd" d="M14.3 38l15.44-3.17 13.5 3.06-10.77-3.06H52l-20.33-.5c.1-.1.26-.67.12-2.08-.18-1.77-.88-2.93-1.69-3.5-.5-.36-.65-.6-.85-.93-.12-.2-.25-.42-.49-.71-.5-.63-.55-1-.5-1.1.96-1.93 2.69-2.15 3.22-2.07.43.06 1.54.14 2.04.18a7.95 7.95 0 0 0 2.96-.4l.22-.07.06-.01c.12-.03.18-.04.2-.02.01.02-.02.08-.08.2l-.02.04c-.12.24.18.24.35.21.78-.13 2.6-.3 3.64.07 1.03.36 2.42.43 3 .42l1.45-.07c.39.1.7.04.8 0 .42-.18 1.24-.3 1.6-.35.22-.02.59-.17.25-.55-.42-.47-2.3-1.5-2.65-1.67l-.16-.08a8.2 8.2 0 0 0-2.93-.98c-1.18-.11-1.49-.25-1.5-.3l.14-.1c.28.1 2.29.11 3.25.1l-.1-.31a3.74 3.74 0 0 1-1.46-.7c-.1-.18-.51-.57-1.36-.67-.85-.1-1.7-.5-2.01-.7a4.43 4.43 0 0 0-1.4-.34c-.32.03-.66-.05-.8-.09-.7-.27-1.17-.2-1.32-.12-.32.1-1.13.3-1.88.2-.75-.08-2.26-.03-2.92 0-.66-.18-1.22-.26-1.7-.33a6.23 6.23 0 0 1-1.2-.24c-.7-.25-1.43-.34-1.61-.19a.68.68 0 0 1-.4.15c-1.6 0-2.14.21-2.62.4l-.07.03c-.4.16-.17.24 0 .26a6.4 6.4 0 0 1 1.64 0c.39.1.24.22.12.27-.26.04-.87.11-1.17.04-.3-.06-1.11-.12-1.81-.17l-.56-.04a12.13 12.13 0 0 0-2 .09c-.18.04-.45.1-1.3.08-1.43-.03-2.15.4-2.46.81-.24.34-.67.49-.86.52-.74.12-1.81.37-2.26.48-1.47.56-2.18 1-2.13 1.14.04.1.34.05.8-.03l.7-.12c.66-.1.32.14.08.27-2.31 1-4.16 1.98-4.57 2.53-.33.44.03.51.25.5.53-.08 1.68-.19 2.05 0 .36.17.69.12.8.07 1.12-.31 1.64-.26 1.76-.19.14.2.62.49 1.46.11 1.04-.46 5.23-1.08 5.64-.87.32.17.62.23.73.24.81-.02 3.3.73 3.73 1.4.44.67 1.62 1.53 2.5 2.07.7.43 1.67 1.33 2.07 1.72 2.68 2.45.6 4.6-.79 5.37L4 34.83h22.55L14.31 38zm14.16-14.6c-.8.33-2.24.15-3.58-.02a17.2 17.2 0 0 0-1.96-.18c1.12.37 1.6.8 2.05 1.2.35.3.67.58 1.25.79 1.03.37 1.92-1.03 2.24-1.78zM12.26 30c-.57-.01-1.01.36-1.16.54l.2.22.02-.02c.08-.1.36-.44.93-.46.61-.01.72.55.7.83-.05 0-.32.05-1.04.23-.9.22-.91.69-.91.9 0 .25.2.75.96.76.61 0 .92-.38 1-.57V33h.3v-2.1c-.02-.46-.3-.88-1-.9zm.7 1.91v-.54c-.06.03-.14.04-.34.08l-.52.1c-.48.08-.73.36-.75.55-.04.28.15.66.7.63a.97.97 0 0 0 .91-.82zm3.88-1.37c.15-.18.59-.55 1.15-.54.7.02.99.44 1.02.9V33h-.32v-.57c-.07.19-.38.57-1 .57-.76 0-.95-.5-.95-.76 0-.21.02-.68.91-.9.71-.18 1-.23 1.04-.23.02-.28-.09-.84-.7-.83-.57.02-.85.36-.93.46l-.02.02-.2-.22zm1.86.83v.54a.97.97 0 0 1-.92.82c-.54.03-.73-.35-.7-.63.03-.19.28-.47.76-.56l.52-.1c.2-.03.28-.04.34-.07zM24.99 30c-.57-.01-1 .36-1.15.54l.2.22.01-.02c.09-.1.36-.44.94-.46.6-.01.72.55.7.83-.05 0-.33.05-1.04.23-.9.22-.92.69-.92.9 0 .25.2.75.96.76.62 0 .92-.38 1-.57V33H26v-2.1c-.03-.46-.3-.88-1.01-.9zm.7 1.91v-.54c-.05.03-.13.04-.33.08l-.52.1c-.49.08-.73.36-.76.55-.04.28.15.66.7.63a.97.97 0 0 0 .91-.82zm-9.44.36c-.22.44-.61.73-1.06.73-.68 0-1.24-.67-1.24-1.5s.56-1.5 1.24-1.5c.44 0 .82.28 1.04.7l-.29.09c-.17-.31-.44-.51-.75-.51-.5 0-.92.54-.92 1.22 0 .68.41 1.23.92 1.23.33 0 .62-.23.78-.57l.28.1zm4.66.73c.45 0 .84-.3 1.06-.73l-.28-.1c-.16.33-.45.56-.78.56-.5 0-.92-.55-.92-1.23 0-.68.41-1.22.92-1.22.31 0 .58.2.75.5l.29-.09c-.22-.41-.6-.69-1.04-.69-.68 0-1.24.67-1.24 1.5s.56 1.5 1.24 1.5zm1.76-3H23v3h-.33v-3zM34 29h.31v1.53c.22-.32.55-.52.9-.52.67 0 1.21.67 1.21 1.5s-.54 1.5-1.2 1.5c-.36 0-.69-.2-.9-.52V33H34v-4zm1.22 3.74c.5 0 .9-.55.9-1.23 0-.68-.4-1.23-.9-1.23s-.9.55-.9 1.23c0 .68.4 1.23.9 1.23zM37.5 29h.3v4h-.3v-4zm-14.65.25c.14 0 .25-.11.25-.25a.26.26 0 0 0-.25-.26.26.26 0 0 0-.26.26c0 .14.11.25.26.25zM39 30h.31v1.9a.79.79 0 0 0 1.57.06V30h.33v3h-.33v-.52A1 1 0 0 1 39 32v-2zm5.38 2.3c-.23.42-.63.7-1.1.7-.7 0-1.28-.67-1.28-1.5s.58-1.5 1.28-1.5c.71 0 1.29.67 1.29 1.5v.13H42.32c.05.61.46 1.1.96 1.1.33 0 .62-.22.8-.55l.29.11zm-2.04-.96h1.9c-.06-.6-.47-1.06-.95-1.06-.49 0-.89.46-.95 1.06z" fill="#fff"/></svg>