<!-- by TradingView --><svg xmlns="http://www.w3.org/2000/svg" width="56" height="56" viewBox="0 0 56 56"><path fill="#00ABF2" d="M0 0h56v56H0z"/><path d="m27.4 17.18-8.6 4.42-6.1-3.5 14.26-7.8c.32-.19.67-.3 1.04-.3s.75.11 1.07.3l14.23 7.8-6.1 3.5-8.56-4.42c-.2-.1-.42-.18-.64-.18-.22 0-.41.08-.6.18Zm-8.66 16.94L27 38.78V46l-13.94-7.95A2.06 2.06 0 0 1 12 36.22V20l6 3.5V32.97c0 .23.13.46.25.66.11.2.28.37.49.49ZM29 38.78l8.26-4.66c.2-.12.38-.29.5-.49.11-.2.24-.43.24-.66V23.5l6-3.5v16.22a2.04 2.04 0 0 1-1.06 1.83L29 46v-7.22Zm-2.67-13.27a3 3 0 1 1 3.34 4.98 3 3 0 0 1-3.34-4.98Z" fill="#fff"/></svg>