<!-- by TradingView --><svg xmlns="http://www.w3.org/2000/svg" width="56" height="56" viewBox="0 0 56 56"><path fill="url(#ahtsdwf1q)" d="M0 0h56v56H0z"/><path d="M7 31h2.28c1.09 0 1.72-.69 1.72-1.71a1.5 1.5 0 0 0-1.15-1.52c.42-.2.68-.66.68-1.27 0-.81-.61-1.5-1.58-1.5H7v6Zm1-5h.85c.36 0 .66.35.65.73 0 .38-.3.77-.65.77H8V26Zm0 2.5h1.28c.38 0 .73.36.72.74 0 .4-.34.76-.72.76H8v-1.5Zm4 2.5h1v-2h.01l1.55 2H16l-1.7-2c.7-.18 1.3-1.06 1.3-2.08 0-1.14-.61-1.92-1.52-1.92H12v6Zm1-3v-2h.88c.36 0 .73.37.73.92 0 .58-.37 1.08-.73 1.08H13Zm4-3h1v6h-1v-6Zm6.25 3.03c0-1.7-1.01-3.03-2.6-3.03H19v6h1.66c1.58 0 2.59-1.27 2.59-2.97Zm-1 0c0 1-.58 1.97-1.52 1.97H20v-4h.73c.94 0 1.52 1.03 1.52 2.03ZM34 31h-3v-6h3v1h-2v1.5h2v1h-2V30h2v1Zm2-6h-1v6h3v-1h-2v-5Zm3 0h1v6h-1v-6Zm3 2.25L44 31h1v-6h-1v3.75L42 25h-1v6h1v-3.75ZM49 31h-3v-6h3v1h-2v1.5h2v1h-2V30h2v1Zm-22 0a3 3 0 0 0 3-3h-3v1h1.73a2 2 0 1 1 0-2h1.1A3 3 0 1 0 27 31Z" fill="#fff"/><defs><linearGradient id="ahtsdwf1q" x1="7" y1="9" x2="42" y2="52" gradientUnits="userSpaceOnUse"><stop offset=".7"/><stop offset="1" stop-color="#373E24"/></linearGradient></defs></svg>