<!-- by TradingView --><svg width="56" height="56" xmlns="http://www.w3.org/2000/svg"><path fill="#009277" d="M0 0h56v56H0z"/><path d="M17 30.555V27h-1v.403c-.344-.213-.835-.484-1.349-.503-1.822-.07-2.893 1.128-2.893 2.543 0 1.366 1.067 2.512 2.87 2.542.933.015 1.781-.687 1.781-.687l.72.657.694-.664-.823-.736zm-2.288.474c-1.14.097-1.94-.735-1.94-1.564 0-.84.748-1.743 1.972-1.594.514.063 1.001.417 1.256.73v1.687c-.267.336-.775.697-1.288.741zM40 30.555V27h-1v.36c-.343-.213-1.078-.441-1.591-.46-1.822-.07-2.893 1.128-2.893 2.543 0 1.366 1.067 2.512 2.869 2.542.933.015 2.006-.694 2.006-.694l.722.664.695-.664-.808-.736zm-2.53.474c-1.14.097-1.94-.735-1.94-1.564 0-.84.748-1.743 1.972-1.594.513.063 1.243.373 1.498.687v1.773c-.267.336-1.017.654-1.53.698zm-31.078.952c1.766 0 2.869-1.176 2.869-2.542 0-1.415-1.075-2.613-2.893-2.543-.513.02-1.029.247-1.368.46v-2.349H4v5.548s.622 1.426 2.392 1.426zM5 30.331v-1.773c.255-.314.758-.624 1.27-.687 1.225-.15 1.973.758 1.973 1.594 0 .829-.8 1.665-1.94 1.564A2.02 2.02 0 015 30.331zm26.25 1.65c1.767 0 2.87-1.176 2.87-2.542 0-1.415-1.075-2.613-2.893-2.543-.514.02-.888.247-1.227.46V25h-1v5.555s.485 1.426 2.25 1.426zM30 30.331v-1.773c.255-.314.616-.624 1.13-.687 1.224-.15 1.971.758 1.971 1.594 0 .829-.8 1.665-1.94 1.564-.512-.044-.894-.362-1.161-.698zm22 .224L52.008 25h-1.016L51 27.356c-.343-.213-.85-.44-1.364-.46-1.822-.07-2.893 1.128-2.893 2.543 0 1.366 1.118 2.561 2.888 2.561A2.564 2.564 0 0052 30.555zm-2.303.474c-1.14.097-1.94-.735-1.94-1.564 0-.84.748-1.743 1.972-1.594.513.063 1.016.373 1.271.687v1.773a2 2 0 01-1.303.698zM11 25v7h-1v-7h1zm9.636 6.989c-1.463 0-2.752-1.087-2.756-2.543-.004-1.467 1.289-2.557 2.756-2.557.88 0 1.547.351 2.008.806 0 0-.72.624-.784.669-.141-.16-.61-.493-1.224-.493-.913 0-1.697.687-1.693 1.572.004.877.792 1.564 1.693 1.56.618-.003 1.07-.306 1.268-.526l.744.705c-.46.467-1.196.807-2.012.807zm22.984-.975c.61 0 1.097-.242 1.38-.477V27h1v3.537l.682.716-.695.665-.565-.512s-.728.594-1.806.594C41.82 32 41 30.596 41 29.435V27h1v2.346c.004.761.488 1.668 1.62 1.668zM23.396 25h1.078v6.989h-1.078V25zm3.669 1.964h1.345l-2.432 2.538 2.679 2.408h-1.463l-2.558-2.404 2.429-2.542z" fill="#fff"/></svg>