<!-- by TradingView --><svg width="56" height="56" xmlns="http://www.w3.org/2000/svg"><path fill="url(#paint0_linear)" d="M0 0h56v56H0z"/><path d="M26 35V25h3v1.441c.936-1.214 2.673-1.467 3.334-1.441 2.524.031 3.666 2.064 3.666 2.958V35h-3v-5.231c0-.593-.583-1.769-1.98-1.769s-2.04 1.198-2.02 1.769V35h-3z" fill="#fff"/><path fill-rule="evenodd" d="M9 20v15h3v-1.354c.314.451 1.652 1.354 3.313 1.354C17.39 35 20 33.333 20 29.73c0-3.605-2.91-4.73-4.687-4.73-1.42 0-2.9.793-3.313 1.224V20H9zm5.5 12.447c1.38 0 2.5-1.096 2.5-2.447s-1.12-2.447-2.5-2.447S12 28.65 12 30s1.12 2.447 2.5 2.447z" fill="#fff"/><ellipse cx="27.485" cy="21.5" rx="1.485" ry="1.5" fill="#fff"/><path fill="#fff" d="M21 20h3v15h-3zm17 15V20h3v9.2l3.744-4.2h3.983l-4.302 4.607L49 35h-4.256L41 30.41V35h-3z"/><defs><linearGradient id="paint0_linear" x1="10.418" y1="9.712" x2="68.147" y2="76.017" gradientUnits="userSpaceOnUse"><stop stop-color="#1A1E21"/><stop offset="1" stop-color="#06060A"/></linearGradient></defs></svg>