<!-- by TradingView --><svg width="56" height="56" viewBox="0 0 56 56" xmlns="http://www.w3.org/2000/svg"><path fill="#01356C" d="M0 0h56v56H0z"/><path fill-rule="evenodd" d="M4 26h4.81a1.19 1.19 0 0 1 .87 2 1.18 1.18 0 0 1-.87 2H4v-4Zm1 1h4v.5H5V27Zm0 1.47h4V29H5v-.53Z" fill="#fff"/><path d="m10.52 26 1 .37V30h-1v-4ZM25 26l1 .37V30h-1v-4Z" fill="#fff"/><path fill-rule="evenodd" d="M13.34 26c-.74 0-1.34.56-1.34 1.26v1.48c0 .7.6 1.26 1.34 1.26h3.32c.74 0 1.34-.56 1.34-1.26v-1.48c0-.7-.6-1.26-1.34-1.26h-3.32ZM17 27h-4v2h4v-2Z" fill="#fff"/><path d="M19 28.74V26l1 .32V29h4v1h-3.87c-.62 0-1.13-.56-1.13-1.26ZM27 26.94V30h1v-3.06l3.18 2.79c.68.58 1.82.16 1.82-.67V26h-1v3.06l-3.18-2.8c-.68-.57-1.82-.15-1.82.68ZM35.25 26h4.18l-.29 1H35v.5h3.57v1H35v.5h4.14l.29 1h-4.18c-.7 0-1.25-.56-1.25-1.25v-1.5c0-.69.56-1.25 1.25-1.25Z" fill="#fff"/><path fill-rule="evenodd" d="M44.78 26H40v4h1v-1.56h3.78c.07 0 .15 0 .22-.02V30h1v-1.43a.87.87 0 0 0-.3-.56c.19-.21.3-.49.3-.79 0-.67-.55-1.22-1.22-1.22Zm.22 1h-4v.51h4V27Z" fill="#99ADC4"/><path d="M47.68 26h-1.39l1.82 1.98L46.29 30h1.39l1.46-1.71 1.6 1.71H52l-1.74-2.02L52 26h-1.37l-1.5 1.68L47.69 26Z" fill="#99ADC4"/></svg>