<!-- by TradingView --><svg width="56" height="56" viewBox="0 0 56 56" xmlns="http://www.w3.org/2000/svg"><path fill="#181B1E" d="M0 0h56v56H0z"/><path d="M32.97 24.67c5.9-1.97 9.81-4.6 11.03-5.67-1.55 2.6-5.57 5.34-7.38 6.38.92-.2 2.86-.58 3.25-.58-2.37 2.47-4.33 3.29-5.24 3.29-1.6 2.62-3.57 3.91-5.96 3.91-2.4 0-3.2-1.37-3.76-1.37-.57 0-.94.19-1.91.8.23-1.48 1.48-2.37 1.9-2.71 1.55 1.1 3.83 2.02 6.16.79 2.34-1.24 1.91-3.7 1.91-4.84Z" fill="#EA3359"/><path d="M31.11 37.8c-3.44-1-5.5-3.13-6.11-4.06a5.7 5.7 0 0 1 1.99-.74c3.22 1.3 4.61.4 5.51 0 4.13 10.16 3.7 14.34 3.18 15-.96-7.16-3.49-9.69-4.57-10.2ZM19.14 17.95l-8.14.34v.54c1.18-.06 4.2-.08 6.8.4A5.04 5.04 0 0 1 21.96 24c2.07-2.2 6.12-3.78 7.05-4.17-.16-1.7-1.66-4.83-4.98-4.83a5.77 5.77 0 0 0-4.88 2.95Z" fill="#FFFEFB"/><path d="M21 27.87c0 1.52.94 2.72 1.41 3.13 0-2.31 1.94-3.9 2.91-4.42.37.83 1.68 2.42 3.24 2.42 2.94 0 2.77-2.6 2.77-3.6-1.26 1-2.61.04-3.13-.55.9-.4 4-1.75 9.3-4.02C44.13 18 45 13.66 45 12c-3.91 6-11.52 8.43-16.8 10.38-5.27 1.96-7.2 3.59-7.2 5.49Z" fill="#EA3359"/></svg>