<!-- by TradingView --><svg xmlns="http://www.w3.org/2000/svg" width="56" height="56" viewBox="0 0 56 56"><path fill="#E10626" d="M0 0h56v56H0z"/><path d="M24.08 9s5.63 4.69 4.86 8.84c-.1.56-.4 1.22-.75 1.96-.78 1.72-1.75 3.82-.78 5.84 1.5 3.13 2.28 9.15-4.47 7.6-6.67-1.54-6.15-9.32-1.2-13.42 5.02-4.16 3.33-8.74 2.34-10.82zm5.14 14.05c-.14 1.16.27 2.32.7 3.54.73 2.09 1.53 4.35-.32 7.06-2.02 2.96 1.08 7.13 5.06 6.37 4.37-.83 5.45-3.46 5.33-6.51-.14-3.66-1.6-4.83-4.78-7.4l-.6-.47c-3.89-3.15-.88-9.1-.88-9.1s-4.1 3.03-4.51 6.51zm-3.68 12.5c-4.56-.1-6.95-1.8-8.18-3.24-.28-.33-.7 2.34.13 4.6l.03.08c.79 2.09 2.02 5.37 6.73 7.05 4.02 1.43 9.65 1.68 12.9-2.27.71-.88-.19-.56-1.17-.21l-.05.02a8.15 8.15 0 0 1-7.33-1.34c-1.54-1.23-1.88-2.54-2.13-3.46-.2-.73-.32-1.22-.93-1.23z" fill="#fff"/></svg>