<!-- by TradingView --><svg width="56" height="56" viewBox="0 0 56 56" xmlns="http://www.w3.org/2000/svg"><path fill="#F0F3FA" d="M0 0h56v56H0z"/><path d="M27 17c-3.03 0-9 2.9-9 12 0 5.15 2.65 10 8.35 10C31.28 39 40 35.87 40 30c0-6.02-6.66-13-13-13ZM16 29c0-10.3 6.97-14 11-14 7.43 0 15 7.89 15 15 0 7.06-9.55 11-15.65 11C19.55 41 16 35.25 16 29Z" fill="#55A647"/><path d="M26.86 14C23.07 14 15 17.89 15 29.07 15 35.44 18.74 42 25.79 42 31.89 42 43 37.4 43 30.14 43 22.71 34.67 14 26.86 14ZM13 29.07C13 16.7 22.07 12 26.86 12 35.76 12 45 21.62 45 30.14 45 38.6 33.06 44 25.79 44 17.64 44 13 36.55 13 29.07Z" fill="#55A647"/><circle cx="33" cy="28" r="3" fill="#55A647"/></svg>