<!-- by TradingView --><svg xmlns="http://www.w3.org/2000/svg" width="56" height="56"><path fill="#F0F3FA" d="M0 0h56v56H0z"/><path fill-rule="evenodd" d="M6.78 26H5l-1 4h2.18c.47 0 .83-.02 1.05-.07.32-.07.58-.22.77-.44.2-.22.3-.47.3-.74 0-.4-.23-.75-.68-.87.27-.05.49-.15.64-.31.36-.38.32-1.1-.14-1.37-.35-.2-.8-.2-1.21-.2h-.13zm-1.19 1.64l.24-1h.83a3.03 3.03 0 01.42.03c.25.03.4.18.4.44 0 .35-.3.47-.6.51-.1.02-.21.02-.35.02H5.6zm-.42 1.7l.28-1.04h1.09l.2.01c.28.02.55.14.55.45 0 .42-.38.53-.74.57l-.4.02h-.98zm4.52.66l.84-4H9.5l-.84 4H9.7zm5.86 0l.94-4h1.43l.73 2.94L20.74 26h1.46l-.93 4h-.97l.77-3.22L18.8 30H18l-.83-3.23-.63 3.23h-.99zm10.72-3.32l.17-.68h-3.57l-1 4h3.63l.18-.7h-2.6l.24-1.04h2.37l.17-.65H23.5l.22-.93h2.56zm.93-.68h1.97c.69 0 1.68.09 1.68.98 0 .64-.46 1.06-1.07 1.14.32.1.48.32.48.64 0 .1 0 .22-.02.4l-.01.5c0 .15.02.26.06.34h-1.02a.68.68 0 01-.05-.27 7.64 7.64 0 01.03-.55c.03-.24.07-.56-.16-.68-.12-.06-.31-.1-.58-.1h-.9l-.38 1.6H26.2l1-4zm.85.66l-.27 1.15h.97l.4-.02c.39-.06.66-.25.66-.68 0-.36-.3-.45-.82-.45h-.94zM32.03 30l.97-4h-1.03L31 30h1.03zm9.38-4l1.09 4h-1.1l-.4-1.38h-1.58L38.46 30h-1.1l2.8-4h1.25zm-1.61 2h1.05l-.25-1.09h-.14L39.8 28zm-29.08-.86l-.35 1.37C10.02 29.93 11.5 30 12.5 30h.5c1 0 2-.04 2.28-1.14l.35-1.37C16 26.15 14.29 26 13.32 26c-1.01 0-2.3 0-2.6 1.14zm.92.37l-.22 1c-.18.8.6.96 1.2.98.75.02 1.54-.13 1.74-1l.22-1c.18-.8-.6-.96-1.2-.98-.75-.02-1.54.13-1.74 1zM35.61 26c-1 0-2.23 0-2.53 1.14l-.34 1.37C32.36 29.9 34.07 30 35.03 30c1 0 2.27 0 2.58-1.14l.09-.36h-1.01c-.2.8-.9 1.01-1.63 1-.6-.03-1.48-.13-1.28-1l.22-.99c.18-.83.93-1.02 1.66-1 .6.02 1.44.14 1.25.99h1.04c.38-1.4-1.33-1.5-2.3-1.5h-.04z" fill="#09488D"/><path d="M53 27.59c0-3.43-17.17-3.92-26-3.43 3.49.26 7.5.2 11.5.62C51 26.12 52.16 29.83 42 31.3a78.7 78.7 0 01-9 .71c3 0 20-.49 20-4.41z" fill="#F4002B"/></svg>