<!-- by TradingView --><svg width="56" height="56" xmlns="http://www.w3.org/2000/svg"><path fill="#F0F3FA" d="M0 0h56v56H0z"/><path d="M32.43 23.794l-3 8.206h.642l1.05-2.977h2.616L34.795 32h.635l-3-8.206zm-.004 1.76l1.056 2.772h-2.105l1.049-2.772zM43.741 32h.597v-8h-.597v8zM24.986 27.565L22 23.909 22.003 32h.567v-6.414l2.41 2.963 2.454-2.978V32H28v-8.096l-3.014 3.66zM46.783 24.996v6.931h.598V25.81L52 32.096v-8.06h-.598v6.147l-4.619-6.28v1.093zM37.597 24.696h2.293v.002c.67 0 1.212.623 1.225 1.398v.132c-.013.774-.556 1.397-1.225 1.397v.003h-2.293v-2.932zM41.326 32H42l-1.65-3.746c.74-.223 1.298-.97 1.36-1.882h.003v-.044c.002-.043.005-.085.005-.129h-.005v-.075h.005c0-.043-.003-.086-.005-.129v-.002C41.654 24.881 40.862 24 39.89 24H37v7.999h.597v-3.677h2.106L41.326 32zM8.268 29.834h-.006c0 .813-.568 1.472-1.269 1.472H4.598v-2.979l2.478.011v.003c.432 0 .807.243 1.026.638.092.223.16.448.16.713h.006v.142zm-1.375-5.136v.002c.67 0 1.216.625 1.227 1.4v.126c-.011.775-.556 1.406-1.227 1.406H4.598v-2.934h2.295zm1.969 4.943a2.289 2.289 0 00-.257-1.044 1.891 1.891 0 00-.62-.692c.41-.355.687-.905.73-1.531h.003v-.045c.002-.042.005-.085.005-.128h-.005v-.075h.005c0-.044-.003-.086-.005-.13v-.002c-.06-1.111-.852-1.993-1.825-1.993v.003L4 24v8h3.004v-.001c1.016-.007 1.839-.952 1.859-2.127h.002v-.231h-.003zM16.798 31.398c-1.529 0-2.796-1.25-3.019-2.884h-.003a3.69 3.69 0 01-.01-.935h.002c.186-1.679 1.472-2.98 3.03-2.98 1.56 0 2.843 1.294 3.029 2.973a3.688 3.688 0 01-.01.948c-.223 1.633-1.49 2.878-3.019 2.878zm-3.65-2.884c.229 2.019 1.775 3.58 3.65 3.58 1.876 0 3.423-1.563 3.651-3.581a4.649 4.649 0 00.007-.947c-.189-2.064-1.753-3.662-3.658-3.662-1.9 0-3.464 1.604-3.658 3.662h-.003a4.623 4.623 0 00.007.947" fill="#263D96"/><ellipse cx="11.079" cy="24.601" rx=".803" ry=".52" fill="#F15029"/><ellipse cx="11.079" cy="26.859" rx=".803" ry=".225" fill="#ED192E"/><ellipse cx="11.079" cy="28.771" rx=".803" ry=".354" fill="#AA118E"/><ellipse cx="11.079" cy="30.133" rx=".803" ry=".466" fill="#3A3899"/><ellipse cx="11.079" cy="31.43" rx=".803" ry=".57" fill="#062849"/><ellipse cx="11.079" cy="27.604" rx=".803" ry=".158" fill="#EC047C"/><ellipse cx="11.079" cy="28.081" rx=".803" ry=".158" fill="#EC047C"/></svg>