<!-- by TradingView --><svg width="56" height="56" viewBox="0 0 56 56" xmlns="http://www.w3.org/2000/svg"><path fill="#0F3066" d="M0 0h56v56H0z"/><path fill-rule="evenodd" d="M4 32v-8h3.3c.62 0 1.12.09 1.53.26a2 2 0 0 1 .92.73c.2.3.3.66.3 1.06a1.64 1.64 0 0 1-.73 1.4c-.22.15-.47.26-.76.32v.08a1.9 1.9 0 0 1 1.82 1.94 2.03 2.03 0 0 1-1.29 1.92c-.42.2-.94.29-1.56.29H4Zm2-1.38h1.17c.49 0 .84-.1 1.07-.27a.9.9 0 0 0 .33-.73 1.05 1.05 0 0 0-.64-.98c-.2-.1-.44-.15-.72-.15H6v2.13Zm0-3.27h1.04c.24 0 .45-.04.64-.12.19-.09.34-.2.44-.36a.9.9 0 0 0 .17-.54c0-.29-.1-.52-.32-.7-.2-.17-.5-.26-.9-.26H6v1.98ZM11.76 32h1.9l.5-1.5h3.24l.51 1.5h1.9l-2.89-8h-2.28l-2.88 8Zm5.13-3-1.07-3.17h-.07L14.67 29h2.22ZM29 24v8h-1.53L24 27.33V32h-2v-8h1.55L27 28.45V24h2Zm13 8v-8h-2v8h2Zm5.65-5.27L45.87 24h-2.39l2.72 4-2.77 4h2.4l1.82-2.73h.07L49.54 32H52l-2.76-4 2.7-4h-2.42l-1.8 2.73h-.07ZM38 32v-8h-2v4.45L32.55 24H31v8h2v-4.67L36.47 32H38Z" fill="#fff"/></svg>