<!-- by TradingView --><svg width="56" height="56" viewBox="0 0 56 56" xmlns="http://www.w3.org/2000/svg"><path fill="#F0F3FA" d="M0 0h56v56H0z"/><circle cx="41" cy="15" r="2" fill="#EB5128"/><path d="M27 34h5.93c.59 0 1.07-.4 1.07-1v-7h7.93c.59 0 1.07-.48 1.07-1.07V17h-4v-4h-7.79c-.59 0-1.21.48-1.21 1.07V30h-3v4Zm7-17h5v5h-5v-5Z" fill="#7AB640"/><path fill-rule="evenodd" d="M26 26h3v-4h-6c-.6 0-1 .48-1 1.07V30h-8c-.6 0-1 .62-1 1.21v10.72c0 .59.48 1.07 1.07 1.07h10.86c.59 0 1.07-.48 1.07-1.07V26Zm-4 8h-5v5h5v-5Z" fill="#7AB640"/></svg>