<!-- by TradingView --><svg width="56" height="56" viewBox="0 0 56 56" xmlns="http://www.w3.org/2000/svg"><path fill="#F0F3FA" d="M0 0h56v56H0z"/><path d="M28.4 12c-2.28 0-4.45.49-6.4 1.36A14.77 14.77 0 0 1 40.33 27H44c-.25-8.33-7.14-15-15.6-15ZM20 15.38c1-.27 2.06-.42 3.15-.42 6.65 0 12.08 5.33 12.4 12.04H39c-.25-7.22-6.06-13-13.19-13-2.08 0-4.06.5-5.81 1.38ZM34 27h-3.57c-.34-5.06-4.74-9.07-10.12-9.07-.8 0-1.57.1-2.31.26A11.3 11.3 0 0 1 23.07 17c5.88 0 10.67 4.44 10.93 10Zm-14-7c-4.22 0-7.68 3.08-8 7h16c-.32-3.92-3.78-7-8-7Z" fill="url(#aznxq33xh)"/><path d="M28.4 44c-2.28 0-4.45-.49-6.4-1.36A14.77 14.77 0 0 0 40.33 29H44c-.25 8.33-7.14 15-15.6 15ZM20 40.62c1 .27 2.06.42 3.15.42 6.65 0 12.08-5.33 12.4-12.04H39c-.25 7.22-6.06 13-13.19 13-2.08 0-4.06-.5-5.81-1.38ZM34 29h-3.57c-.34 5.06-4.74 9.07-10.12 9.07-.8 0-1.57-.1-2.31-.26A11.3 11.3 0 0 0 23.07 39c5.88 0 10.67-4.44 10.93-10Zm-14 7c-4.22 0-7.68-3.08-8-7h16c-.32 3.92-3.78 7-8 7Z" fill="url(#bznxq33xh)" fill-opacity=".2"/><defs><linearGradient id="aznxq33xh" x1="43.88" y1="19.66" x2="12" y2="19.66" gradientUnits="userSpaceOnUse"><stop stop-color="#F04043"/><stop offset="1" stop-color="#FFCA08"/></linearGradient><linearGradient id="bznxq33xh" x1="43.88" y1="36.34" x2="12" y2="36.34" gradientUnits="userSpaceOnUse"><stop stop-color="#F04043"/><stop offset="1" stop-color="#FFCA08"/></linearGradient></defs></svg>