<!-- by TradingView --><svg width="56" height="56" viewBox="0 0 56 56" xmlns="http://www.w3.org/2000/svg"><path fill="#F0F3FA" d="M0 0h56v56H0z"/><path d="M50.18 28.35c-1.07 0-2.08-.71-2.08-1.84 0-1.12 1.03-1.85 2.09-1.85.57 0 1.2.17 1.81.5v-.76c-.66-.27-1.3-.4-1.84-.4-1.43 0-2.76 1.02-2.76 2.52 0 1.52 1.32 2.48 2.75 2.48.7 0 1.31-.14 1.85-.42v-.77c-.6.35-1.2.54-1.82.54ZM42 29h3v-.7h-2.3v-1.52H45v-.63h-2.3v-1.48H45V24h-3v5Zm-6.49-4.3h1.79V29h.7v-4.3h1.78V24H35.5v.7ZM32.3 29h.7v-5h-.7v5Zm-3-1.16L26 24h-.7v5h.7v-3.83L29.3 29h.7v-5h-.7v3.84ZM20 29h3v-.7h-2.3v-1.52H23v-.63h-2.3v-1.48H23V24h-3v5Zm-3.78-2.14c.16.06.3.15.38.27.09.13.14.26.14.41a.7.7 0 0 1-.13.41.8.8 0 0 1-.34.28 2.4 2.4 0 0 1-.81.09h-.76v-1.56h.72c.36 0 .62.03.8.1Zm.07-1.48a.7.7 0 0 1-.24.55c-.16.15-.44.21-.83.21h-.52v-1.47h.66c.63 0 .93.23.93.7Zm.4 3.37c.27-.13.47-.29.6-.49s.2-.42.2-.67c0-.31-.11-.59-.33-.8a1.54 1.54 0 0 0-.89-.45c.52-.2.78-.55.78-1.03 0-.25-.07-.47-.19-.66-.12-.19-.3-.33-.53-.45-.25-.1-.57-.2-1-.2H14v5h1.73c.39.02.72-.13.97-.25ZM15.12 32.42a.3.3 0 0 1-.06.17.31.31 0 0 1-.14.12 1.1 1.1 0 0 1-.33.03h-.3v-.63h.28c.14 0 .25 0 .33.04.07.02.12.06.16.11.04.05.06.1.06.16Zm-.29-.65c-.06.06-.17.08-.34.08h-.2v-.6h.26c.25 0 .38.1.38.29.01.1-.03.17-.1.23Zm.46.35a.59.59 0 0 0-.36-.18c.21-.09.32-.22.32-.42 0-.11-.02-.2-.08-.28a.52.52 0 0 0-.22-.18c-.1-.04-.23-.06-.4-.06H14v2h.7c.17 0 .3-.02.4-.07a.56.56 0 0 0 .24-.2.47.47 0 0 0 .08-.28.42.42 0 0 0-.13-.33Z" fill="#717173"/><path d="M19 31h-.3v2h.3v-2ZM23.76 32c0 .21-.07.38-.21.53a.74.74 0 0 1-.54.21.71.71 0 0 1-.76-.73c0-.21.07-.38.21-.53.15-.14.33-.2.56-.2.21 0 .39.07.53.21.14.13.21.3.21.5Zm.29 0c0-.28-.1-.52-.3-.71-.2-.2-.45-.29-.74-.29-.3 0-.56.1-.75.29-.2.2-.3.43-.3.72 0 .28.1.52.3.7.2.19.44.29.74.29s.56-.1.76-.29a.97.97 0 0 0 .29-.7ZM27.92 31.57c0 .1-.03.18-.1.23a.4.4 0 0 1-.26.08h-.26v-.62h.24c.26 0 .38.1.38.3Zm.3 0c0-.17-.05-.32-.17-.41a.61.61 0 0 0-.44-.16H27v2h.3v-.86h.18c.19 0 .33-.02.42-.07.1-.04.17-.1.24-.2a.59.59 0 0 0 .08-.3ZM32.66 31.87H31.3V31H31v2h.3v-.87h1.36V33H33v-2h-.34v.87ZM37.31 32.16h-.63l.3-.72.33.72ZM38 33l-.91-2h-.2L36 33h.3l.26-.59h.87l.27.59h.3ZM41.86 31.73a.34.34 0 0 1-.13.11.92.92 0 0 1-.3.04h-.23v-.63h.2c.14 0 .25.01.31.03.07.03.11.06.15.11.03.05.05.1.05.17a.62.62 0 0 1-.05.17Zm.73 1.27-.1-.15c-.05-.05-.1-.14-.18-.25l-.26-.38a.93.93 0 0 0-.2-.17c.11-.04.2-.1.27-.19a.48.48 0 0 0 .08-.3c0-.17-.06-.3-.18-.41-.12-.1-.3-.15-.5-.15H41v2h.2v-.87h.17c.1 0 .16 0 .2.03.05.02.1.05.14.1l.17.2.1.16.08.15.06.07c0 .01 0 .02.02.02l.08.14h.37ZM46 31.83l-.7-.83H45v2h.3v-1.56l.67.78h.06l.67-.78V33h.3v-2h-.3l-.7.83ZM51.3 32.16h-.63l.3-.72.33.72Zm.7.84-.91-2h-.2L50 33h.3l.26-.59h.87l.27.59h.3Z" fill="#636E99"/><path d="M11.27 27.45c-.31-.4-.8-.89-1.54-1.45 3.85 3.67-6.14 2.33-3.17 6.35.31.46.84 1.01 1.64 1.65l-.16-.2c-3.16-3.78 6.65-2.41 3.23-6.35Z" fill="#717173"/><path d="M8.34 21c8.81 6.5-7.5 4.3-2.8 9.73l.22.27c-9.28-7.23 8.32-4.73 2.58-10Z" fill="#F89829"/></svg>