<!-- by TradingView --><svg xmlns="http://www.w3.org/2000/svg" width="56" height="56"><path fill="#F0F3FA" d="M0 0h56v56H0z"/><path d="M11 31h1v-6h-1v6zm5-6c-1.9 0-3 1.2-3 3.03 0 1.83 1.19 2.97 3 2.97 1.87 0 3-1.09 3-3 0-1.89-1.17-3-3-3zm0 5c-1.36 0-2-.72-2-1.97 0-1.38.65-2.03 2-2.03s2 .6 2 2c.03 1.37-.67 2-2 2zm35-5v2.5h-5V31h1v-2.55h4V31h1v-6h-1zm-18 1h4v-1h-4v1zm6.15-.25c-.48.49-.73 1.21-.73 2.25 0 .54.07 1.03.2 1.41.11.37.29.68.53.9.23.24.54.41.92.52.38.11.83.17 1.36.17H45v-1h-3.33c-.78 0-1.4-.07-1.75-.4-.36-.34-.5-.9-.5-1.6 0-.69.14-1.2.5-1.55.35-.36 1.23-.45 2-.45H45v-1h-3.56c-1.03 0-1.8.26-2.29.75zM31 28.5h6v-1h-6v1zm0 2.5h6v-1h-6v1zM9.64 25.45a1.2 1.2 0 00-.46-.32A1.78 1.78 0 008.5 25H4v1h4.34c.45 0 .65.32.65.73 0 .42-.18.77-.65.77H4V31h4.5c.27 0 .5-.04.68-.12.19-.07.34-.18.46-.3.12-.14.21-.3.27-.47.06-.18.09-.37.09-.58V29c0-.6-.63-.98-.87-.98L9.12 28l.01-.01c.25 0 .87-.38.87-.99v-.51c0-.2-.03-.4-.09-.57a1.3 1.3 0 00-.27-.48zM9 29.28c0 .52-.16.72-.65.72H5v-1.5h3.45c.39.03.55.28.55.78z" fill="#3C9673"/><path d="M28.5 31h-1v-5H25v-1h6v1h-2.5v5zM20 31v-6h1l4 4.5V27h1v4h-1l-4-4.5V31h-1z" fill="#BECD33"/></svg>