<!-- by TradingView --><svg xmlns="http://www.w3.org/2000/svg" width="56" height="56" viewBox="0 0 56 56"><path fill="#F0F3FA" d="M0 0h56v56H0z"/><path fill-rule="evenodd" d="M28 45a17 17 0 1 0 0-34 17 17 0 0 0 0 34zm5.83-3.17a15 15 0 1 0-15.3-2.2 7.04 7.04 0 0 1-1.19-1.7c-3.78-10.86 3.5-15.77 7.61-16.87a11.68 11.68 0 0 0-4.98 10.26c.72 9.49 9.55 12.04 13.86 10.5zm-2.55-1.74c-3.87-1.17-6.68-4.59-6.68-8.61 0-5 4.31-9.05 9.63-9.05.8 0 1.6.1 2.35.27a9.7 9.7 0 0 0-5.3-1.56 9.55 9.55 0 0 0-9.63 9.47 9.55 9.55 0 0 0 9.62 9.48h.01z" fill="#181A2F"/></svg>