<!-- by TradingView --><svg width="56" height="56" viewBox="0 0 56 56" xmlns="http://www.w3.org/2000/svg"><path fill="#F0F3FA" d="M0 0h56v56H0z"/><path d="m41 13-4.24.93c-3.15.68-6.08 1.32-8.97 2.1a6.37 6.37 0 0 0-4.47 4.6c-.83 2.95-1.05 5.98-1.14 9.3.91 0 1.8.03 2.68.05 1.94.04 3.81.08 5.66-.1 3.2-.31 5.55-2.02 6.6-5.18l2.58-7.8L41 13Zm-.44 26.61c-.91-.57-1.8-1.16-2.69-1.73a106.4 106.4 0 0 0-6.15-3.81 5.58 5.58 0 0 0-6.03.24c-1.34.9-2.6 1.92-3.87 2.92l-1.67 1.32c6.82 8.59 9.01 8.25 20.41 1.06Zm-25.2-8.77c5.12-4.52 5.16-5.19.9-12.38-5.36 3.94-5.67 7.32-.9 12.38Z" fill="#84BE32"/></svg>