<!-- by TradingView --><svg width="56" height="56" xmlns="http://www.w3.org/2000/svg"><path fill="#C41230" d="M0 0h56v56H0z"/><path d="M31.245 17a1.004 1.004 0 01.73.381L45 29.663v-4.23l-11.15-9.81c-.51-.475-.737-.609-.985-.622h-9.163c-.596 0-1.078 0-1.373.341l-8.353 7.89-1.734-1.574 7.47-7.403c.63-.67 1.098-1.214 2.122-1.254h11.239c.33 0 .65-.009.903.203L45 23.652V22.28c0-.85-.086-2.51-.622-3.113l-8.032-7.624c-.71-.743-1.446-1.54-2.758-1.54H21.834a1.687 1.687 0 00-1.298.49l-8.742 8.855c-.315.308-.784.716-.784 1.151v3.862l12.558 12.257a1.26 1.26 0 00.944.382h5.716c.555 0 1.392-.877 1.814-1.265l6.024-6.5 1.975 1.873-6.453 7.056a2.576 2.576 0 01-1.914.763h-7.129a1.82 1.82 0 01-1.265-.389L11.01 26.35v2.263a3.233 3.233 0 00.87 2.476l9.673 8.988c.542.542.944.924 1.432.924h9.057c1.064 0 2.001-.822 3.16-2.073l6.331-6.42 1.915 1.734v.308l-7.336 7.507c-.444.444-.535.56-.886.725-.35.165-.736.24-1.122.219H23.267c-1.158 0-1.767-.71-2.337-1.252l-9.913-9.535v1.238c0 1.199-.017 2.7-.017 2.7l8.96 8.744c.67.623 1.118 1.025 1.88 1.105h12.933c.428 0 .83-.442 1.138-.723.435-.388.79-.77.796-.776L45 35.708v-4.104L32.55 19.91a2.39 2.39 0 00-1.572-.93h-5.67a.95.95 0 00-.743.254L17.37 26.49l-1.82-1.787 6.693-6.873c.3-.301.662-.532 1.061-.675.4-.144.697-.155 1.249-.155h6.693zm-6.573 5.542c.255-.3.613-.493 1.004-.542h3.89c.302.054.59.169.848.337 2.204 1.436 4.115 3.792 6.166 5.492l-5.154 5.234c-.435.442-.926.937-1.09.937h-5.048l-6.4-6.098s4.686-4.282 5.778-5.36" fill="#fff"/></svg>