<!-- by TradingView --><svg xmlns="http://www.w3.org/2000/svg" width="56" height="56" viewBox="0 0 56 56"><path fill="#F0F3FA" d="M0 0h56v56H0z"/><path d="M12 19.1 28.05 10 44 19.1v17.88L28.05 46 12 36.98V19.09Z" fill="#012A4A"/><circle cx="28" cy="27.92" r="14.99" fill="url(#adzxgnpyn)"/><circle cx="28" cy="28" r="15" transform="rotate(-90 28 28)" fill="url(#bdzxgnpyn)" fill-opacity=".5"/><circle cx="28" cy="28" r="12" fill="url(#cdzxgnpyn)"/><circle cx="28" cy="28" r="9" fill="#CE916F"/><circle cx="28" cy="28" r="5" fill="#F35437"/><path d="m22.49 26.07 10.29-13.41.83.51-4 7.5 4.4-2.1-6.91 12.99 2.99-1.03-7.97 12.14-.73-.39 2.93-7.13-3.54 1.52 6.47-12.17-4.76 1.57Z" fill="#F0F3FA"/><defs><linearGradient id="adzxgnpyn" x1="28" y1="12.93" x2="28" y2="42.92" gradientUnits="userSpaceOnUse"><stop stop-color="#0C426E"/><stop offset=".5" stop-color="#3774AB"/><stop offset="1" stop-color="#0C426E" stop-opacity="0"/></linearGradient><linearGradient id="bdzxgnpyn" x1="28" y1="13" x2="28" y2="43" gradientUnits="userSpaceOnUse"><stop stop-color="#0C426E"/><stop offset=".5" stop-color="#3774AB"/><stop offset="1" stop-color="#0C426E" stop-opacity="0"/></linearGradient><linearGradient id="cdzxgnpyn" x1="28" y1="16" x2="28" y2="40" gradientUnits="userSpaceOnUse"><stop stop-color="#3671A9"/><stop offset=".48" stop-color="#5D92CB"/><stop offset="1" stop-color="#3671A9"/></linearGradient></defs></svg>