<!-- by TradingView --><svg xmlns="http://www.w3.org/2000/svg" width="56" height="56"><path fill="url(#a0v0r0uib)" d="M0 0h56v56H0z"/><path d="M31.63 14.06a15.4 15.4 0 00-3.07.36c-1.03-.29-2.1-.43-3.16-.42C17.57 14 11 19.9 11 28.14a13.7 13.7 0 004.04 9.77 12.97 12.97 0 0012.38 3.67c1.03.29 2.1.43 3.16.42C38.38 42 45 36.1 45 27.9a13.8 13.8 0 00-4.03-9.8 12.93 12.93 0 00-9.34-4.04zM23 39.98c-5.56-1.01-9.54-6.26-9.5-11.84a11.7 11.7 0 0111.4-11.66h.19c5.64 0 11.93 4.56 11.91 10.66 0 3.47-2.74 6.88-6.43 6.75h-.1a7 7 0 003.03-5.84c0-4.63-3.53-8.49-8.2-8.49-5.02 0-8.7 4.1-8.7 9a13.22 13.22 0 007.23 11.5c-.17-.02-.67-.05-.83-.08zm5.03-6.83A5.96 5.96 0 0125 28a5.82 5.82 0 012.96-5.16A5.98 5.98 0 0131 28a5.83 5.83 0 01-2.97 5.16zm2.88 6.38c-2.25.03-4.46-.59-6.36-1.79a10.92 10.92 0 01-5.21-9.19c0-3.46 2.36-6.6 6.08-6.46h.1a7.5 7.5 0 00-3.05 6.12 8.15 8.15 0 007.9 8.21h.3a8.91 8.91 0 008.83-8.99c-.01-2.14-.7-4.25-1.74-6.13a14.2 14.2 0 00-5.63-5.36c.2.03.68.05.88.08 5.55 1 9.5 6.21 9.49 11.77a11.7 11.7 0 01-11.43 11.74h-.16z" fill="#fff"/><defs><linearGradient id="a0v0r0uib" x1="10.42" y1="9.71" x2="68.15" y2="76.02" gradientUnits="userSpaceOnUse"><stop stop-color="#1A1E21"/><stop offset="1" stop-color="#06060A"/></linearGradient></defs></svg>