<!-- by TradingView --><svg width="56" height="56" viewBox="0 0 56 56" xmlns="http://www.w3.org/2000/svg"><path fill="#F0F3FA" d="M0 0h56v56H0z"/><path fill-rule="evenodd" d="M14.7 24h-4.66l-1 5.17L8 35h4.42a3.7 3.7 0 0 0 3.61-3.07 2.32 2.32 0 0 0-2.25-2.76h-.36c1.74 0 3.23-1.15 3.54-2.7.26-1.27-.84-2.47-2.25-2.47Zm-3.33 5.8h1.1c.73 0 1.28.6 1.1 1.94-.13.93-1.04 2.4-1.96 2.4h-1.08l.84-4.33Zm2-4.84h-1.1l-.75 3.9h1.08c.92 0 1.74-1.04 1.87-1.96.19-1.36-.36-1.94-1.1-1.94Z" fill="#0C3F81"/><path d="M18 30.72c0-4.47 3.84-6.34 5.75-6.72.43.11.93.55-.43 1.39-1.7 1.04-2.61 3.49-2.61 5.33 0 1.85.32 3.39 2.61 3.39 1.84 0 2.7-.9 3.06-1.49l1.31 1.13c-.6.47-2.1 1.25-4.51 1.25-3.82 0-5.18-1.93-5.18-4.28Z" fill="#0C3F81"/><path d="m28.38 33-1.42-1.25a7.23 7.23 0 0 0 1.27-4.09A2.66 2.66 0 0 0 26 24.9c.1-.18.4-.6.7-.9 1.53.23 4.3 1.09 4.3 4.09 0 2.4-1.75 4.27-2.62 4.91ZM40 24.8l-1.06 1.68c0-.2-.7-1.48-2.07-1.48-1.38 0-1.87 1.05-1.87 1.69 0 .63.11 1.15 1.34 1.68 1.83.86 2.66 1.78 2.66 2.88 0 .88-.63 2.12-1.02 2.63A7.92 7.92 0 0 1 35.11 36 10.5 10.5 0 0 1 31 34.83L32 33c.1.58.69 1.57 2.3 1.57 2.02 0 2.57-1.41 2.57-1.93 0-.77-.3-.9-1.76-1.67-1.54-.8-2.61-1.6-2.61-2.8 0-2.36 2.6-4.17 4.54-4.17 1.55 0 2.62.54 2.96.8Z" fill="#0C3F81"/><path d="M47 25.73c0 6.07-6.62 7.87-10.03 8.01-.27.43-2.69 1.2-3.86 1.54.78.3.39.72 3.39.72 6.87 0 11.5-4.76 11.5-9.66s-3.75-6.83-5-7.34c1.89 1.27 4 3.3 4 6.73Z" fill="#0C3F81"/><path d="m39 16.62-1.7 2.76c-.61-.13-2.13-.38-3.27-.38-6.5 0-9.03 4.61-9.03 7.71 0 3.1 2.57 6.34 3.5 7.29-3.2-1.86-5.76-6.48-5.48-9 .88-7.04 8.98-9 11.7-9 2.18 0 3.76.41 4.28.62Z" fill="#898A86"/></svg>