<!-- by TradingView --><svg width="56" height="56" xmlns="http://www.w3.org/2000/svg"><path fill="#0A4D66" d="M0 0h56v56H0z"/><path d="M25.501 23.074c5.922-8.012 12.55-8.313 16.499-2.139-5.953-1.61-10.274-1.088-15.878 2.614l-.158.102c-.16-.209-.305-.364-.463-.577zm-7.084 14.615c-.81-2.238-.287-4.91.284-6.546a14.544 14.544 0 013.142-4.898 17.658 17.658 0 001.66 1.922 18.308 18.308 0 00-1.64 5.77c-.271 3.19 1.05 8.54 5.829 8.27-1.031.14-2.077.164-3.114.071-.321-.055-.634-.12-.936-.192l-1.285-.304a6.916 6.916 0 01-2.491-1.64 6.058 6.058 0 01-1.452-2.454" fill="#05B6EE"/><path d="M32.287 33.81l.03.03a15.026 15.026 0 011.676 1.925 8.36 8.36 0 011.724 3.678c.11.667.011 1.348-.286 1.966a3.707 3.707 0 01-1.398 1.531 8.83 8.83 0 01-5.053 1.02 10.7 10.7 0 01-5.09-1.459 7.128 7.128 0 003.508.549c1.881-.258 3.074-1.656 3.661-3.196.355-.98.558-2 .602-3.03a8.844 8.844 0 00-.555-3.977l-.016.923a20.842 20.842 0 00-2.773-2.05 27.687 27.687 0 01-2.6-1.876c-2.409-1.969-4.6-4.48-5.287-7.41a6.932 6.932 0 01.104-3.687 14.113 14.113 0 012.049-3.578 9.103 9.103 0 00-1.566 1.892 5.644 5.644 0 01.03-2.88 2.882 2.882 0 01.949-1.414c.46-.379 1.033-.63 1.648-.722a4.15 4.15 0 011.656.088c.537.14 1.034.387 1.452.722-1.875.902-3.444 2.244-4.54 3.886-.106.172-.201.348-.292.528-.047.097-.09.196-.133.295-.051.12.004.198.054.316.171.41.361.816.574 1.21.369.672.784 1.32 1.243 1.945 1.011 1.4 2.15 2.721 3.26 4.057a47.19 47.19 0 013.292 4.32 18.53 18.53 0 011.283 2.276c.31.692.576 1.401.794 2.123zm-10.85-15.333a6.293 6.293 0 00-.343 1.411l.954-.134c-.108-.23-.521-1.047-.612-1.277zm-.356 1.739c-.055.493-.034.99.064 1.479l1.66-.631s-.502-.827-.627-1.025l-1.097.177zm.1 1.869c.089.439.213.871.374 1.293l2.205-.89c-.114-.165-.65-.983-.76-1.15l-1.818.744v.003zm.555 1.602c.18.472.417.925.707 1.35l2.532-1.035c-.145-.19-.802-1.053-.976-1.245l-2.263.93zm.882 1.657c.134.2.525.764 1.042 1.387l2.5-1.277c-.501-.603-.827-1.038-.987-1.202l-2.555 1.092zm1.286 1.66c.378.475.81.915 1.286 1.312l2.278-1.32-1.097-1.271-2.467 1.278zm1.572 1.57c.403.397.84.763 1.31 1.095l1.874-1.113c-.324-.442-.656-.879-.995-1.312l-2.189 1.333v-.003zm1.604 1.33c.215.162 1.219.82 1.433.973l1.192-.785c-.291-.429-.584-.855-.88-1.281l-1.745 1.094v-.002zm2.01 1.387c.104.067.697.492.802.56l.615-.433c-.116-.207-.535-.86-.656-1.063l-1.112.713c.117.077.235.152.351.223zm1.925 1.375v-.014s-.31-.76-.408-.964l-.428.319c.28.216.559.436.833.659" fill="#fff"/></svg>