<!-- by TradingView --><svg width="56" height="56" xmlns="http://www.w3.org/2000/svg"><path fill="#B5333C" d="M0 0h56v56H0z"/><circle cx="28" cy="28" r="16" fill="#fff"/><path d="M41.272 35.894l-2.74-5.505-.006-.002c1.367-1.363 3.018-3.357 3.018-6.722 0-1.817-.298-3.245-.862-4.493a15.391 15.391 0 012.772 8.826c0 2.89-.806 5.582-2.182 7.896zm-4.444 4.795v-9.43l3.17 6.484a15.501 15.501 0 01-3.17 2.946zM16.49 38.367c.039-.013.083-.028.118-.037l.002-.002.219-.074v-.017c2.013-.744 3.824-2.55 4.24-5.15v8.761a15.474 15.474 0 01-4.58-3.481zm-1.624-18.595v16.456a15.391 15.391 0 010-16.456zm6.203-5.62v8.146c-.51-2.676-2.983-4.102-4.614-4.628a15.532 15.532 0 014.614-3.518zm6.898 6.554c-.573-3.034-2.18-5.36-4.777-7.43a15.438 15.438 0 014.777-.761v8.19zm8.86-3.68c3.603 2.567 4.202 9.089 0 12.498V17.026zm-6.33-4.287c1.546.255 3.013.737 4.37 1.413v4.133c-.764-2.257-2.222-4.033-4.37-5.546zm4.37 13.82v15.29a15.419 15.419 0 01-4.938 1.5V32.892c1.176-.628 3.739-2.673 4.938-6.334zM29.93 14.606c5.202 3.238 5.01 12.505 0 16.15v-16.15zM27.968 25.86v17.624c-1.727 0-3.385-.296-4.935-.818v-9.732c1.152-.637 4.07-2.763 4.935-7.074zm-4.935-10.246c4.51 2.935 4.893 11.813 0 15.22v-15.22zM18.826 27.67l-.008-.013s1.795-1.081 2.252-3.307v6.637c-.387-2.022-1.91-3.09-2.244-3.317zm-1.996-.637v-7.387c3.172 1.28 3.7 5.508 0 7.387zm0 9.182v-7.808c3.577 1.926 3.257 6.176 0 7.808zM8 8v40h40V8H8z" fill="#B5333C"/></svg>