<!-- by TradingView --><svg width="56" height="56" viewBox="0 0 56 56" xmlns="http://www.w3.org/2000/svg"><path fill="#F0F3FA" d="M0 0h56v56H0z"/><path fill-rule="evenodd" d="M37 11H19v34h18V11ZM17 9v38h22V9H17Z" fill="#F3721C"/><path fill-rule="evenodd" d="M29.62 13H23v9h-2v1h.64c1.06.1 1.33 1.28 1.36 1.83v15.35c.03 1.38-.81 1.78-1.27 1.82H21v1h7v-1h-.93c-1.13-.16-1.1-1.24-1.07-1.8V34h3.29c1.52-.1 5.75-1.18 5.75-5.85 0-3.75-3.33-5.48-4.99-5.87 1.38-.47 4.17-2.2 4.32-5.4.15-3.22-3.1-3.93-4.75-3.88Zm-1.3 1H26v8h2.32c.63-.06 3.2-1.21 3.18-4.53A3.32 3.32 0 0 0 28.32 14ZM26 24.82c0-.58.27-1.74 1.37-1.76 1.38-.03 4.7 1.79 4.63 5.74-.06 3.16-2.08 4.12-3.08 4.2-.97.05-2.92-.38-2.92-2.53v-5.65Z"/></svg>