<!-- by TradingView --><svg width="56" height="56" viewBox="0 0 56 56" xmlns="http://www.w3.org/2000/svg"><path fill="#F0F3FA" d="M0 0h56v56H0z"/><path d="M38.32 25.57c.42.28.9.41 1.42.41.4 0 .73-.07.98-.2.25-.14.45-.3.59-.48.15-.18.26-.34.33-.48h.11V26H43v-9h-1.28v3.29h-.08c-.4-.74-1.03-1.29-1.89-1.29-1.87 0-2.75 1.88-2.75 3.55 0 .71.12 1.33.35 1.84.24.51.56.9.97 1.18Zm2.64-.98c-.25.2-.57.29-.93.29-.38 0-.7-.1-.96-.3a1.9 1.9 0 0 1-.58-.85c-.13-.35-.2-.75-.2-1.2 0-1.08.48-2.3 1.74-2.3.74 0 1.25.4 1.52 1.1.13.34.2.74.2 1.2 0 .47-.07.88-.2 1.23-.14.35-.33.63-.6.83ZM15.56 31h-1.33a2.2 2.2 0 0 0-.28-.78 2.1 2.1 0 0 0-1.2-.9 2.66 2.66 0 0 0-2.15.27c-.4.25-.71.62-.94 1.11-.23.5-.35 1.1-.35 1.8 0 .71.12 1.31.35 1.8.23.5.54.87.94 1.12a2.74 2.74 0 0 0 2.14.27 2.3 2.3 0 0 0 1.2-.89c.14-.22.24-.52.3-.8h1.33c-.07.43-.21.89-.42 1.25a3.28 3.28 0 0 1-1.87 1.54c-.4.14-.85.21-1.34.21-.75 0-1.43-.18-2.03-.54a3.77 3.77 0 0 1-1.4-1.55A5.29 5.29 0 0 1 8 32.5c0-.94.17-1.74.51-2.4a3.74 3.74 0 0 1 3.43-2.1c.47 0 .9.07 1.3.2a3.44 3.44 0 0 1 1.9 1.52c.21.36.35.8.43 1.28ZM31 30v7h1.3v-7H31Zm.05-.71a.8.8 0 0 0 .58.22.8.8 0 0 0 .57-.22.7.7 0 0 0 .24-.53.7.7 0 0 0-.24-.54.8.8 0 0 0-.57-.22.81.81 0 0 0-.58.22.7.7 0 0 0-.23.54c0 .2.08.38.23.53ZM47 28h-1.3v9H47v-9Zm-7.35 8.76c.37.16.77.24 1.22.24.4 0 .73-.05 1-.16.29-.11.52-.25.7-.41.17-.17.3-.33.4-.5h.05V37h1.35v-4.64c0-.5-.09-.9-.27-1.2-.18-.31-.4-.55-.69-.72a2.7 2.7 0 0 0-.9-.34 4.51 4.51 0 0 0-2.11.08c-.4.11-.74.3-1.03.55-.3.25-.52.58-.68 1L40 32c.1-.24.28-.46.55-.65.27-.2.63-.3 1.1-.3.44 0 .78.11 1 .32.23.21.34.51.34.9v.03c0 .16-.06.27-.18.34s-.3.12-.57.15l-1.04.12c-.33.04-.66.1-.98.17-.33.07-.62.18-.88.32-.26.15-.47.34-.62.59-.16.24-.23.56-.23.94 0 .44.1.82.31 1.12.21.3.5.54.86.7Zm2.5-1.03c-.27.14-.6.21-.98.21-.39 0-.71-.08-.96-.24a.83.83 0 0 1-.38-.74.8.8 0 0 1 .2-.57c.12-.14.3-.25.52-.33.22-.07.46-.13.73-.16a61.45 61.45 0 0 1 .95-.13l.47-.1a.73.73 0 0 0 .29-.13v.87c0 .27-.07.52-.22.75-.14.24-.35.42-.62.57ZM37.35 30v1H36v3.8c0 .27.05.47.12.61a.6.6 0 0 0 .29.28c.12.04.25.07.39.07a13.9 13.9 0 0 0 .45-.06l.23 1.15-.32.1a2.3 2.3 0 0 1-1.46-.14 1.66 1.66 0 0 1-.7-.64 2 2 0 0 1-.27-1.08V31H34v-1h.73v-2H36v2h1.36ZM24 39v-9h1.25v1.14h.1c.08-.14.19-.3.33-.47.14-.18.33-.34.58-.47.25-.13.57-.2.98-.2a2.56 2.56 0 0 1 2.4 1.54 5.65 5.65 0 0 1 0 3.89A2.56 2.56 0 0 1 27.25 37c-.4 0-.72-.08-.97-.21a1.85 1.85 0 0 1-.6-.47 3.5 3.5 0 0 1-.32-.47h-.08V39H24Zm1.25-5.67c0 .45.07 1.14.2 1.48.14.35.33.62.59.81.25.2.56.29.93.29.38 0 .7-.1.96-.3.25-.2.45-.48.58-.83.13-.34.2-1.02.2-1.45 0-.43-.07-.82-.2-1.16-.13-.34-.32-.6-.58-.8-.26-.2-.58-.3-.96-.3-.37 0-.69.1-.94.29-.26.18-.45.45-.58.78-.13.34-.2.74-.2 1.19Zm-7.38 3.43c.34.16.72.24 1.13.24.36 0 .68-.05.94-.16a1.97 1.97 0 0 0 1-.91H21V37h1.25v-4.64c0-.5-.08-.9-.25-1.2a1.88 1.88 0 0 0-.64-.72 2.4 2.4 0 0 0-.83-.34 3.9 3.9 0 0 0-1.97.08 2.39 2.39 0 0 0-1.58 1.55l1.2.28c.25-.63.88-.94 1.53-.94.73 0 1.29.45 1.29 1.2v.04a.4.4 0 0 1-.2.34c-.11.07-.3.12-.54.15l-.96.12c-.3.04-.61.1-.91.17-.3.07-.58.18-.82.32A1.6 1.6 0 0 0 17 34c-.14.24-.21.56-.21.94 0 .44.1.82.29 1.12.2.3.46.54.8.7Zm2.32-1.03a1.8 1.8 0 0 1-.91.21c-.36 0-.66-.08-.9-.24a.85.85 0 0 1-.35-.74c0-.24.06-.43.18-.57.13-.14.29-.25.5-.33.2-.07.42-.13.67-.16a53.4 53.4 0 0 1 .88-.13c.17-.03.31-.06.44-.1a.86.86 0 0 0 .3-.13v.87c0 .27-.1.52-.23.75-.13.24-.33.42-.58.57ZM32.74 26c-.42 0-.8-.08-1.14-.24-.34-.16-.6-.4-.8-.7a2 2 0 0 1-.3-1.12c0-.38.07-.7.22-.94.14-.25.33-.44.58-.59a3 3 0 0 1 .82-.32c.3-.08.6-.13.92-.17l.96-.12c.25-.03.43-.08.54-.15.11-.07.17-.18.17-.34v-.03c0-.39-.1-.69-.32-.9-.21-.2-.52-.31-.94-.31-.43 0-.78.1-1.02.29-.25.2-.42.41-.52.65l-1.2-.28a2.39 2.39 0 0 1 1.58-1.55 3.67 3.67 0 0 1 1.98-.08c.3.06.58.17.84.34s.47.4.64.72c.17.3.25.7.25 1.2V26h-1.26v-1.07h-.05a1.87 1.87 0 0 1-1.02.9 2.2 2.2 0 0 1-.93.17Zm.28-1.06c.35 0 .66-.07.9-.21a1.5 1.5 0 0 0 .8-1.32v-.87a.66.66 0 0 1-.27.13c-.13.04-.28.07-.45.1a52.31 52.31 0 0 1-.88.13c-.25.03-.48.09-.69.16-.2.08-.36.19-.49.33a.84.84 0 0 0-.18.57c0 .32.12.57.36.74.23.16.53.24.9.24Zm-7.6.62c.45.3.98.44 1.58.44.6 0 1.13-.15 1.58-.44.45-.29.8-.7 1.05-1.22s.37-1.13.37-1.83c0-.7-.12-1.32-.37-1.85a2.9 2.9 0 0 0-1.05-1.22c-.45-.3-.98-.44-1.58-.44-.6 0-1.13.15-1.58.44-.45.29-.8.7-1.05 1.22a4.27 4.27 0 0 0-.37 1.85c0 .7.12 1.3.37 1.83.25.52.6.93 1.05 1.22Zm2.56-1c-.26.22-.58.33-.98.33-.39 0-.72-.1-.98-.32a2.07 2.07 0 0 1-.57-.87 3.7 3.7 0 0 1-.18-1.2c0-.43.06-.83.18-1.19.13-.36.32-.66.57-.88.26-.22.59-.33.98-.33.4 0 .72.11.98.33.25.22.44.52.57.88.12.36.18.76.18 1.2 0 .43-.06.83-.18 1.19-.13.36-.32.65-.57.87ZM20 26v-7h1.24v1.2h.06a1.73 1.73 0 0 1 1.67-1.2 5.2 5.2 0 0 1 .55.03v1.29a2.49 2.49 0 0 0-.67-.08c-.3 0-.57.06-.8.2-.24.13-.43.31-.57.55-.13.23-.2.5-.2.8V26H20Zm-8-9v9h3.36c.68 0 1.23-.1 1.67-.32.44-.21.76-.5.97-.86.2-.37.31-.78.31-1.24 0-.47-.09-.86-.27-1.19a2.05 2.05 0 0 0-.7-.75 1.71 1.71 0 0 0-.84-.29v-.09c.26-.07.5-.18.73-.33.23-.16.4-.36.54-.62.14-.25.2-.57.2-.95 0-.44-.1-.84-.3-1.2-.2-.35-.5-.64-.92-.84-.4-.21-.92-.32-1.54-.32H12Zm3.23 7.84h-1.9V22h1.95c.35 0 .66.02.91.16a1.51 1.51 0 0 1 .81 1.35c0 .38-.14.7-.41.95-.27.25-.73.38-1.36.38Zm-.14-3.95h-1.77v-2.73h1.8c.53 0 .92.12 1.18.37.25.26.38.57.38.94a1.33 1.33 0 0 1-.79 1.25c-.23.12-.5.17-.8.17Z"/></svg>