<!-- by TradingView --><svg width="56" height="56" viewBox="0 0 56 56" xmlns="http://www.w3.org/2000/svg"><path fill="url(#adyu5d2yz)" d="M0 0h56v56H0z"/><path fill-rule="evenodd" d="M26 35.26v2.78c0 .34-.12.63-.42.86L21.43 42c-.25.23-.41.52-.43.83 0 .14.01.28.07.42.18.46.6.75 1.14.75h10.57c.55 0 .97-.29 1.15-.75.03-.09.05-.25.07-.34v-.08a1 1 0 0 0-.43-.84l-4.15-3.04c-.3-.22-.42-.51-.42-.86v-2.83l5.65 3.54c.26.22.6.34.95.34.36 0 .73-.1 1.04-.34l7.82-5.64c.36-.28.54-.68.54-1.14V23.7c0-.46-.18-.86-.54-1.14L28.99 10.34c-.3-.23-.65-.34-.99-.34-.34 0-.67.11-.94.34L11.54 22.38c-.36.3-.54.7-.54 1.15v8.6c0 .46.18.86.54 1.15l7.58 5.52a1.63 1.63 0 0 0 1.99 0L26 35.26ZM32 32v-9.98s3.87-.07 5.2.06c1.34.12 2.6.81 2.6 2.51.01 1.7-1.2 2.2-1.2 2.2s1.4.37 1.4 2.38c0 2.45-2.67 2.83-2.67 2.83H32Zm-6-11v3.33l-9.94 8.09-2.28-1.66L26 21Zm-5.43 14.7L26 31.34V28l-7.68 6.07 2.25 1.64ZM26 17.34V14l-12 9.48V27l12-9.67Z" fill="#F0F3FA"/><path d="M34 23.5V26h2.53s1.08-.08 1.08-1.32-1.08-1.18-1.08-1.18H34ZM34 28v2.5h2.65s1.35.16 1.35-1.2c0-1.36-1.47-1.3-1.47-1.3H34Z" fill="#F0F3FA"/><defs><linearGradient id="adyu5d2yz" x1="48.5" y1="5" x2="2" y2="47.5" gradientUnits="userSpaceOnUse"><stop offset=".04" stop-color="#0056DB"/><stop offset=".71" stop-color="#0034A1"/></linearGradient></defs></svg>