<!-- by TradingView --><svg xmlns="http://www.w3.org/2000/svg" width="56" height="56"><path fill="#F0F3FA" d="M0 0h56v56H0z"/><path d="M9.77 19h36.36c.85 0 1.6.54 1.88 1.34l2.94 7.33a1 1 0 010 .66L48 35.66A2 2 0 0146.13 37H9.8a2 2 0 01-1.9-1.34l-2.84-7.35a1 1 0 010-.66l2.82-7.31A2 2 0 019.77 19zm36.36-1H9.77a3 3 0 00-2.84 2l-2.81 7.32a2 2 0 000 1.32l2.85 7.35A3 3 0 009.8 38h36.32a3 3 0 002.84-2l2.93-7.34a2 2 0 000-1.32L49 20c-.43-1.2-1.6-2-2.87-2zm-35.74 2H45.6a2 2 0 011.88 1.3l2.45 6.35a1 1 0 010 .7l-2.45 6.35A2 2 0 0145.6 36H10.4a2 2 0 01-1.88-1.3l-2.44-6.35a1 1 0 01-.07-.34 1 1 0 01.07-.36l2.44-6.35A2 2 0 0110.4 20z" fill="#D10843"/><path fill-rule="evenodd" d="M32.25 32h2.52v-.21c0-.07-.05-.13-.11-.14-.2-.03-.65-.13-.65-.55v-2.56c0-.4.08-.54.37-.54h.5c.06 0 .12-.05.12-.12v-.32c0-.07-.06-.13-.12-.13a38 38 0 01-.57 0c-.16 0-.31-.18-.31-.38v-2.6c0-.42.15-.98.68-.98.25 0 .38.14.46.29.08.15.09.31.06.35-.1.07-.2.25-.2.39 0 .34.26.5.5.5.35 0 .5-.3.5-.63 0-.86-.65-1.37-1.47-1.37-.93.02-1.53.87-1.53 2.11v1.94c0 .28-.25.38-.37.38h-.53c-.06 0-.1.06-.1.13v.32c0 .07.04.12.1.12h.45c.31 0 .45.07.45.44v2.68c0 .4-.42.5-.62.52-.06.01-.13.07-.13.14V32zm-18.81-4.32l-.18-.08c.27-.2.45-.4.7-.65.33-.37.5-.82.5-1.25-.01-.68-.28-1.31-1.06-1.55-.34-.1-.6-.15-1.14-.15H9v.3c0 .08.06.14.13.14h.4c.33 0 .47.04.47.34v6.39c0 .34-.2.44-.55.45h-.32a.13.13 0 00-.13.13V32a288.73 288.73 0 013.08 0c.34 0 .68-.01 1.01-.06 1.03-.14 1.71-.73 1.87-1.58.04-.17.04-.3.04-.5 0-.84-.36-1.53-1.14-1.97-.14-.08-.29-.15-.42-.2zm.13 1.96c.04 1.31-1.28 2.13-2.57 1.93v-3.75c1.28-.32 2.53.57 2.57 1.82zm-.3-3.76c0 1.29-1.18 1.44-2.27 1.44v-2.78c1.09-.23 2.26.23 2.26 1.34zM26 31.1V24h-2v.22c0 .07.04.13.1.13h.02c.31 0 .88 0 .88.48v3.37a2.29 2.29 0 00-.98-.19c-.97 0-2.02.58-2.02 1.96 0 1.24.8 2.04 1.95 2.04.34 0 .71-.12 1.05-.4v.4h1.64v-.1c.02-.16.03-.3-.18-.3-.38-.02-.46-.05-.46-.5zm-1.93-2.62c.7 0 .93.83.93 1.47s-.2 1.46-.93 1.5c-.72.04-1.08-.83-1.07-1.5 0-.72.3-1.47 1.07-1.47zm6.44 2.67c.67.13 1.02.66 1.02 1.24 0 1.2-1.33 1.6-2.33 1.6-.7 0-2.17-.28-2.17-1.12 0-.43.12-.66.5-.86.18-.1.25-.16.18-.4-.1-.4-.04-.75.36-1.03.07-.05.09-.1.09-.15 0-.05-.05-.1-.15-.14-.55-.22-.97-.66-.98-1.24-.01-.58.37-1 .87-1.23.74-.34 1.51-.33 2.29-.17.26.06.43.02.43-.2 0-.12-.1-.2-.2-.25-.34-.15-.45-.46-.36-.75.1-.29.33-.44.7-.43.36 0 .55.4.53.72-.03.33-.22.59-.4.84l-.05.07c-.15.21-.17.32.03.54.23.25.32.55.32.86 0 .98-.84 1.53-1.79 1.53h-.53c-.16 0-.3.04-.33.22-.04.17.19.26.33.29.28.03.52.02.75.01.3 0 .57-.01.9.05zm-.1 2.18c.39-.26.37-.7-.05-.91-.33-.16-.7-.17-1.06-.18-.33 0-.66-.01-.97-.13-.22-.09-.42.04-.5.28-.15.4.02.84.44 1.01.66.27 1.52.36 2.14-.07zm-1.21-3.16c.63 0 .9-.63.9-1.12-.01-.5-.34-1.12-.9-1.1-.55.02-.86.6-.86 1.1.01.47.23 1.12.86 1.12zM15.35 32v-.24c0-.07.05-.12.1-.13h.04c.3 0 .51 0 .51-.5V28.81c0-.39-.24-.4-.5-.39-.06 0-.15-.06-.15-.13V28h.89c.19 0 .38 0 .56.03.11.02.25.05.3.16.13.21.23.3.36.18.2-.21.43-.36.71-.37.28-.01.51.15.58.42.12.46 0 .96-.58.98a.53.53 0 01-.4-.21.44.44 0 00-.34-.19.44.44 0 00-.43.45v1.72c0 .44.24.45.5.46h.08c.05 0 .1.06.1.13V32h-2.33zm3.95-.23V32h2.34v-.2c0-.08-.04-.14-.1-.15-.19-.03-.54-.13-.54-.52v-1.65a1130.8 1130.8 0 000-.99c0-.25 0-.37-.06-.43s-.17-.06-.4-.06H19.3v.26c0 .08.04.14.1.13h.01c.27 0 .58-.02.58.4v2.31c0 .4-.4.5-.59.53-.06 0-.1.07-.1.14zm1.06-4.24a.75.75 0 01-.77-.76.79.79 0 01.8-.77c.41 0 .75.34.76.74 0 .44-.35.8-.8.79zM39.5 30c0 1.3-1 2-2.25 2-1.24 0-2.25-.75-2.25-2s1-2 2.25-2c1.24 0 2.25.7 2.25 2zm-1.35.04c0 .88-.33 1.56-.9 1.56-.57 0-.9-.68-.9-1.56 0-.89.25-1.64.9-1.64s.9.75.9 1.64z" fill="#fff"/><path d="M39.56 32v-.24c0-.07.05-.12.1-.13.32 0 .55.01.55-.5V28.8c0-.39-.24-.4-.5-.39-.06 0-.15-.06-.15-.13V28h.89c.19 0 .38 0 .56.03.11.02.25.05.3.16.13.21.23.3.36.18.2-.21.43-.36.71-.37.28-.01.51.15.58.42.1.39 0 .96-.58.98a.53.53 0 01-.4-.21.44.44 0 00-.34-.19.44.44 0 00-.43.45v1.72c0 .48.29.45.58.46.05 0 .1.06.1.13V32h-2.33zM47 24v7.1c0 .45.09.48.46.5.21 0 .14.2.14.4H46v-.4c-.34.28-.7.4-1.05.4-1.15 0-1.95-.8-1.95-2.04 0-1.38 1.05-1.96 2.03-1.96.35 0 .7.05.97.19V24.84c0-.48-.58-.47-.89-.48-.06 0-.11-.06-.11-.13V24h2zm-1 5.96c0-.64-.22-1.47-.93-1.47-.77 0-1.06.75-1.07 1.47 0 .67.35 1.54 1.07 1.5.73-.04.93-.86.93-1.5z" fill="#fff"/></svg>