<!-- by TradingView --><svg width="56" height="56" xmlns="http://www.w3.org/2000/svg"><path fill="#1595D3" d="M0 0h56v56H0z"/><path d="M38.48 28.139c0-.067.099-.12.148-.139h2.56c.051 0 .16.028.175.139.015.111-.11.153-.176.16a.522.522 0 00-.528.437c.003 1.711.008 5.198 0 5.46-.01.328.388.408.507.439.12.03.177.074.177.2 0 .106-.075.151-.124.165h-2.502c-.245 0-.288-.11-.278-.164-.011-.074.033-.23.301-.263a.39.39 0 00.347-.377c-.006-1.695-.015-5.16 0-5.46.016-.3-.3-.416-.459-.437-.05-.026-.148-.093-.148-.16zM37.56 34.056c.007-.852-.556-1.054-.839-1.048a.749.749 0 00-.717.712c-.053.539.485.7.76.713.117.019.32.151.195.525-.123.375-.54.834-.734 1.017-.02.035-.05.118 0 .178.05.059.134.024.169 0 .386-.344 1.16-1.245 1.167-2.097zM31.291 30.793c.537-.128 1.294-.55 1.606-.745.145-.087.184-.036.185 0v.454c0 .068 0 .113.061.113.05 0 .136-.076.173-.113.428-.397.877-.468 1.049-.454.56-.022 1.671.417 1.634 2.354-.037 1.937-1.235 2.584-1.83 2.598a1.823 1.823 0 01-.766-.174c-.22-.108-.306-.01-.321.051-.002.316-.006.911 0 1.342.005.43.435.512.65.5.066.018.2.077.2.16 0 .081-.075.115-.113.121h-2.7c-.14 0-.22-.24.134-.282.354-.04.464-.23.475-.32-.007-1.494-.017-4.564 0-4.9.016-.336-.235-.43-.363-.434-.07-.004-.213-.033-.23-.113-.017-.08.097-.139.156-.158z" fill="#fff"/><path d="M33.625 30.722c-.4-.017-.536.217-.554.336v2.773c.028.285.213.662.692.662.607 0 .671-1.04.714-1.988.043-.948-.352-1.763-.852-1.783z" fill="#1595D3"/><path d="M21.07 30.003a2.823 2.823 0 011.276.256v1.207c0 .134.023.361-.237.39-.26.03-.367-.184-.408-.353-.098-.397-.341-1.175-.632-1.175-.444 0-.755.855-.764 2.118-.009 1.264.717 1.789 1.203 1.794.39.005.639-.404.714-.61.03-.058.115-.17.212-.153.097.017.108.15.101.214-.22 1.175-1.132 1.308-1.617 1.308-.613.03-2.034-.538-2.034-2.427 0-2.057 1.494-2.53 2.185-2.569zM48.79 30.003a2.823 2.823 0 011.277.256v1.207c0 .134.023.361-.238.39-.26.03-.366-.184-.407-.353-.098-.397-.341-1.175-.632-1.175-.445 0-.755.855-.764 2.118-.01 1.264.716 1.789 1.203 1.794.39.005.638-.404.714-.61.03-.058.114-.17.212-.153.097.017.108.15.101.214-.22 1.175-1.132 1.308-1.618 1.308-.612.03-2.033-.538-2.033-2.427 0-2.057 1.494-2.53 2.185-2.569zM11.748 30c-1.782.036-2.388 1.055-2.468 1.56-.064.399.205.463.348.445.26-.041.825-.262.988-.81.205-.687.49-.865.767-.865.22 0 .335.19.365.285v1.07c0 .142-.244.309-.365.374-1.622.633-2.103 1.364-2.103 1.934 0 .57.348 1.007.962 1.007.71 0 1.197-.54 1.506-.847.285.827.71.847 1.042.847.918 0 1.069-.779 1.069-.847 0-.108-.018-.187-.071-.25-.043-.05-.107-.02-.134 0-.056.093-.205.284-.347.313-.143.028-.196-.196-.205-.312-.006-.639-.015-2.116 0-2.915.018-.998-1.283-.989-1.354-.989z" fill="#fff"/><path d="M11.747 33.22v-.87c0-.11-.12-.08-.179-.052-.833.39-.915 1.019-.915 1.139 0 .12.03.756.558.681.422-.06.533-.624.536-.898z" fill="#1595D3"/><path d="M41.26 22c1.485 0 1.776 1.29 1.736 1.935-.002.151-.149.192-.222.193-.602.002-1.858.005-2.06 0-.202-.005-.237.098-.229.15-.082 1.537.68 1.926 1.303 1.962.498.028.787-.383.869-.593.023-.063.1-.186.223-.167.122.019.128.15.116.214-.344 1.03-1.3 1.299-1.736 1.305-1.804.052-2.242-1.69-2.26-2.46-.017-.77.404-2.539 2.26-2.539z" fill="#fff"/><path d="M41.345 22.317c-.668.055-.815.83-.82 1.238 0 .367.71.238.903.16.127-.05.354-.184.403-.74.048-.557-.304-.67-.486-.658z" fill="#1595D3"/><path d="M34.174 22.754c.285-.055 1.1-.514 1.473-.736.086-.05.113.016.116.056-.008.117-.02.387 0 .523.021.136.108.113.149.085.454-.564 1.058-.677 1.303-.664.976 0 1.193.843 1.18 1.264-.004.87-.01 2.687 0 2.993.011.305.274.4.404.41.06.018.183.076.2.16.016.082-.09.136-.145.152h-1.973c-.187 0-.233-.079-.233-.118-.014-.065.001-.195.171-.195s.222-.17.226-.257v-3.04c.01-.212-.094-.633-.582-.633s-.606.352-.603.528c.002.988.005 3.001 0 3.145-.006.145.166.232.253.258.062.03.184.11.178.194-.005.083-.093.113-.137.118-.58.002-1.777.006-1.925 0-.148-.006-.185-.081-.185-.118-.014-.053.004-.167.185-.195a.314.314 0 00.26-.257c-.002-.92-.005-2.819 0-3.04.006-.223-.208-.311-.315-.327-.048-.007-.15-.042-.172-.125-.021-.083.106-.155.172-.18zM14.174 30.754c.285-.055 1.1-.514 1.473-.736.086-.05.113.016.116.056-.008.117-.02.387 0 .523.021.136.108.113.149.085.454-.564 1.058-.677 1.303-.664.976 0 1.193.843 1.18 1.264-.004.87-.01 2.687 0 2.993.011.305.274.4.404.41.06.018.183.076.2.16.016.083-.09.136-.145.152h-1.973c-.187 0-.233-.079-.233-.118-.014-.065.001-.194.171-.194s.222-.172.226-.258v-3.04c.01-.212-.094-.633-.582-.633s-.606.352-.603.528c.002.988.005 3.001 0 3.146-.006.144.166.231.253.257.062.03.184.11.178.194-.005.083-.093.113-.137.118-.58.002-1.777.005-1.925 0-.148-.006-.185-.081-.185-.118-.014-.053.004-.167.185-.194a.314.314 0 00.26-.258c-.002-.92-.005-2.819 0-3.04.006-.223-.208-.311-.315-.327-.048-.007-.15-.042-.171-.125-.022-.083.105-.155.17-.18zM41.866 30.754c.28-.055 1.081-.514 1.447-.736.084-.05.111.016.114.056a3.17 3.17 0 000 .523c.02.136.106.113.146.085.446-.564 1.039-.677 1.28-.664.957 0 1.17.843 1.158 1.264-.005.87-.011 2.687 0 2.993.01.305.269.4.397.41.058.018.179.076.195.16.016.083-.088.136-.142.152h-1.937c-.183 0-.229-.079-.229-.118-.013-.065.002-.194.168-.194.167 0 .218-.172.222-.258v-3.04c.01-.212-.093-.633-.572-.633-.478 0-.594.352-.591.528.002.988.005 3.001 0 3.146-.006.144.163.231.248.257.061.03.18.11.175.194-.005.083-.092.113-.134.118-.57.002-1.745.005-1.89 0-.146-.006-.182-.081-.182-.118-.014-.053.004-.167.181-.194a.312.312 0 00.256-.258c-.002-.92-.005-2.819 0-3.04.005-.223-.204-.311-.31-.327-.047-.007-.146-.042-.168-.125-.021-.083.103-.155.168-.18zM31.354 22.763c.399-.104 1.224-.548 1.587-.757.123-.032.16.072.162.128-.004 1.28-.009 3.908 0 4.184.009.276.301.353.446.356.062.007.184.05.184.173a.14.14 0 01-.143.152 102.95 102.95 0 00-2.061 0c-.175.01-.244-.062-.257-.099-.035-.06-.045-.188.192-.226.236-.037.306-.174.312-.237-.004-.914-.01-2.798 0-3.024.01-.226-.237-.322-.362-.342-.07-.013-.212-.064-.212-.155 0-.09.101-.14.152-.153zM28.608 20.413c.474-.063 1.247-.293 1.575-.4.14-.039.177.017.18.05-.005 1.987-.011 6.024 0 6.28.01.256.3.332.445.338.059.018.18.08.186.184.007.104-.092.133-.142.134a97.81 97.81 0 00-2.133 0c-.272.01-.31-.085-.294-.134-.004-.053.05-.164.294-.184.243-.02.306-.164.307-.234a1532.89 1532.89 0 010-5.352c.005-.294-.254-.375-.383-.378-.075-.003-.224-.036-.228-.141-.005-.105.127-.153.193-.163z" fill="#fff"/><path d="M23.519 20.448c.49-.046 1.18-.303 1.465-.427.162-.066.215.039.221.1v4.3l1.159-1.148c.082-.08.227-.22.227-.354 0-.117-.17-.173-.268-.188-.064-.011-.19-.056-.195-.144-.004-.088.108-.135.165-.147a92.447 92.447 0 011.639 0c.12.006.137.08.13.115.007.032.003.1-.065.112a2.828 2.828 0 00-.313.104c-.49.264-.778.514-.993.684-.171.137-.155.254-.126.296.404.805 1.242 2.465 1.364 2.665.123.2.285.296.351.32.05.007.153.045.16.136a.111.111 0 01-.095.128h-2.018c-.128 0-.205-.053-.208-.128-.003-.075.085-.136.196-.183.089-.037.085-.104.072-.132l-.727-1.507c-.067-.11-.21-.329-.242-.329-.031 0-.155.117-.213.175v1.552c0 .203.225.276.337.288.047.01.144.053.151.136.008.083-.078.12-.122.128a129.17 129.17 0 00-2.07 0c-.19.007-.226-.082-.219-.128-.003-.045.052-.147.298-.188.246-.042.294-.175.288-.236-.007-1.692-.017-5.135 0-5.38.016-.243-.13-.326-.206-.337-.12-.004-.359-.036-.364-.126-.006-.09.145-.142.22-.157zM6.435 20c-1.436-.03-2.157.322-2.338.5-.034.023-.102.085-.097.16a.126.126 0 00.097.114c.033-.003.141-.006.317 0 .176.005.217.125.216.184v5.252c0 .273-.253.382-.38.403-.062.025-.187.102-.182.212.006.109.124.161.183.173h3.058c.535-.044 1.622-.483 1.688-1.88.067-1.398-1.184-1.836-1.818-1.881.992-.11 1.57-.672 1.559-1.503-.012-.83-.508-1.697-2.303-1.734zM6.435 28.002c-1.436-.03-2.157.321-2.338.5-.034.022-.102.085-.097.16a.126.126 0 00.097.113c.033-.002.141-.005.317 0 .176.006.217.125.216.185v5.252c0 .273-.253.382-.38.402-.062.026-.187.103-.182.212.006.11.124.162.183.174h3.058c.535-.045 1.622-.484 1.688-1.88.067-1.398-1.184-1.837-1.818-1.882.992-.11 1.57-.671 1.559-1.502-.012-.83-.508-1.698-2.303-1.734zM9.613 22.863a14.52 14.52 0 001.419-.812c.144-.092.206-.038.218 0v.769c.002.056.02.167.08.167s.1-.082.113-.124c.491-.854.894-.77 1.096-.77.201 0 .765.165.765.894 0 .73-.475.87-.628.896-.153.024-.573-.025-.62-.44-.04-.331-.157-.414-.21-.414-.368.086-.449.494-.444.688-.005.713-.012 2.218 0 2.536.013.318.387.409.573.415.072.008.217.05.217.149 0 .1-.103.163-.148.182h-2.43c-.162.013-.197-.116-.194-.182 0-.05.055-.158.274-.19.22-.034.328-.263.355-.374-.003-.76-.007-2.349 0-2.627.008-.349-.25-.431-.436-.431-.185 0-.193-.1-.193-.166 0-.053.129-.133.193-.166zM27.511 30.863a14.524 14.524 0 001.419-.812c.144-.092.206-.038.218 0v.769c.002.056.02.167.08.167s.1-.082.113-.124c.491-.854.894-.77 1.095-.77.202 0 .766.165.766.894 0 .73-.475.87-.629.896-.153.024-.572-.025-.62-.44-.039-.331-.156-.414-.21-.414-.367.086-.448.494-.443.688-.005.713-.013 2.218 0 2.536.013.318.387.409.572.414.073.009.218.05.218.15 0 .1-.103.163-.148.182h-2.43c-.162.013-.197-.116-.194-.182 0-.05.055-.158.274-.191.22-.033.328-.262.355-.373a245.4 245.4 0 010-2.627c.008-.349-.25-.431-.436-.431-.185 0-.193-.1-.193-.166 0-.053.129-.133.193-.166z" fill="#fff"/><ellipse cx="15.758" cy="24.5" rx="2.268" ry="2.5" fill="#fff"/><path d="M6.152 22.82v-2.202c0-.07.07-.206.354-.196.355.012.728.302.753 1.309.024 1.007-.57 1.284-.832 1.322-.21.03-.271-.143-.275-.234zM6.143 30.84v-2.191c0-.07.07-.205.352-.195.353.012.726.3.75 1.303.024 1.002-.567 1.277-.829 1.315-.21.03-.27-.142-.273-.232zM6.152 26.298v-2.575c0-.081.084-.24.423-.229.423.015.869.353.898 1.531.03 1.178-.68 1.502-.993 1.546-.251.035-.323-.167-.328-.273zM6.143 34.303V31.74c0-.081.084-.24.42-.228.422.014.866.351.895 1.524.029 1.172-.676 1.494-.989 1.538-.25.035-.322-.166-.326-.271z" fill="#1595D3"/><ellipse cx="20.71" cy="24.5" rx="2.268" ry="2.5" fill="#fff"/><ellipse cx="24.946" cy="32.5" rx="2.268" ry="2.5" fill="#fff"/><ellipse rx=".824" ry="2.235" transform="rotate(-4.051 354.128 -210.645) skewX(-.057)" fill="#1595D3"/><ellipse rx=".824" ry="2.235" transform="rotate(-4.051 356.844 -280.655) skewX(-.057)" fill="#1595D3"/><ellipse rx=".824" ry="2.235" transform="rotate(-4.051 471.825 -336.549) skewX(-.057)" fill="#1595D3"/><ellipse cx="32.455" cy="20.786" rx=".78" ry=".786" fill="#fff"/><ellipse cx="51.219" cy="34.214" rx=".78" ry=".786" fill="#fff"/></svg>