<!-- by TradingView --><svg width="56" height="56" fill="none" xmlns="http://www.w3.org/2000/svg"><path fill="#0F73B7" d="M0 0h56v56H0z"/><path d="M8.642 38.785c-.196-2.505 3.502-8.905 14.592-15.202 10.939-6.21 20.408-9.897 24.124-8.148 2.489 1.173-2.269 8.148-14.057 15.26-8.393 5.822-24.355 11.97-24.659 8.09zm38.716 0c.196-2.505-3.502-8.905-14.592-15.202-10.939-6.21-20.408-9.897-24.124-8.148-2.489 1.173 2.269 8.148 14.057 15.26 8.393 5.822 24.355 11.97 24.659 8.09z" stroke="#fff"/><circle cx="17.5" cy="16.5" r="3.5" fill="#fff"/><circle cx="17.5" cy="39.5" r="3.5" fill="#fff"/></svg>