<!-- by TradingView --><svg width="56" height="56" viewBox="0 0 56 56" xmlns="http://www.w3.org/2000/svg"><path fill="#F0F3FA" d="M0 0h56v56H0z"/><circle cx="34" cy="16" r="2" fill="#174785"/><circle cx="34" cy="40" r="2" fill="#174785"/><circle cx="28.5" cy="13.5" r="1.5" fill="#174785"/><circle cx="27" cy="42" r="2" fill="#174785"/><circle cx="21.5" cy="16.5" r="1.5" fill="#174785"/><circle cx="21" cy="40" r="2" fill="#174785"/><ellipse cx="38.18" cy="35" rx="1.94" ry="2" fill="#174785"/><circle cx="16.5" cy="20.5" r="1.5" fill="#174785"/><circle cx="16.5" cy="35.5" r="2.5" fill="#174785"/><circle cx="14.5" cy="27.5" r="2.5" fill="#174785"/><circle cx="31" cy="35" r="2" fill="#174785"/><path d="M42.4 16.47A2.32 2.32 0 0 0 44 14.3c0-1.27-1.1-2.3-2.45-2.3-1.36 0-2.45 1.03-2.45 2.3 0 .33.07.65.2.93.1.74-.08 2.53-1.3 4.68l.19.09c.8-1.2 2.74-3.32 4.2-3.53Z" fill="#FA7C01"/><circle cx="41" cy="28" r="2" fill="#174785"/><path d="M26.62 23.19a2.83 2.83 0 0 0-.95-3.83 2.68 2.68 0 0 0-3.7 1.07c-.93 1.64.68 3.03 0 4.25-.7 1.22-2.67.49-3.6 2.13a2.83 2.83 0 0 0 .96 3.83c1.29.76 2.94.28 3.7-1.07.93-1.64-.68-3.03 0-4.25.7-1.22 2.67-.49 3.6-2.13ZM30.67 28.84c.67-1.23.29-2.8-.86-3.5a2.34 2.34 0 0 0-3.3.96c-.81 1.51.62 2.79.01 3.9-.6 1.13-2.37.45-3.19 1.96a2.65 2.65 0 0 0 .86 3.5c1.14.7 2.62.27 3.3-.96.81-1.51-.62-2.79-.01-3.9.6-1.13 2.37-.45 3.19-1.96Z" fill="#174785"/><path d="M30.25 19.33a2.55 2.55 0 0 0-.9 3.5c.48.81 1.23 1 1.93 1.16.6.15 1.17.28 1.47.8.3.52.14 1.07-.04 1.66-.2.69-.42 1.43.05 2.24a2.58 2.58 0 0 0 3.5.98 2.5 2.5 0 0 0 1.25-2.24 2.62 2.62 0 0 0-.58-1.57c-.05-.88.88-2.13 1.07-3.2-.67.67-1.7 2.38-2.9 2.38-.57 0-1.03-.29-1.34-.83-.3-.52-.14-1.07.04-1.66.2-.69.42-1.43-.05-2.24a2.58 2.58 0 0 0-3.5-.98Z" fill="#FA7C01"/></svg>