<!-- by TradingView --><svg width="56" height="56" viewBox="0 0 56 56" xmlns="http://www.w3.org/2000/svg"><path fill="#F0F3FA" d="M0 0h56v56H0z"/><path d="M14 30.92c.12-11.22 7.9-15.4 11.77-16.08 2.32 6.96.14 13.94-1.9 17.78a9.53 9.53 0 0 0-.76 7.28 8.98 8.98 0 0 0 9.6 6.62c-1.16.43-3.01.5-3.8.48C17.29 45.53 14.13 35.67 14 30.92Z" fill="#81162B"/><path d="M26.73 9c-1.3 0-2.52.22-2.96.33 2.15 2.54 3.7 5 4.13 10.49.43 5.5-3.12 10.8-2.66 14.88.46 4.08 3.82 6.52 5.44 6.44 1.63-.08 3.02-1.77 2.98-3.26-.04-1.5-.31-1.8-1.58-3.18-1.28-1.37-4.14-2.4-4.18-5.85-.03-2.76 2.33-4.53 3.52-5.06-1.78 3.88 1.39 5.88 3.98 8.52 2.07 2.1 1.93 4.42 1.6 5.31 4.1-3.73 5.04-9.7 5-12.22C41.07 10.22 28.37 9 26.73 9Z" fill="#B5985A"/></svg>