<!-- by TradingView --><svg xmlns="http://www.w3.org/2000/svg" width="56" height="56" viewBox="0 0 56 56"><path fill="#F0F3FA" d="M0 0h56v56H0z"/><path d="M28.81 18.75c.24.22.5.54.74.94.55-1.4 1.7-3.16 3.3-4.78C35.18 12.5 37.62 11 39 11c.63 0 1 .55 1 1.12 0 .9-.2 2.58-1.5 3.88.45-.6.5-1.31.5-1.64 0-.33 0-.86-.6-.86-1.3 0-3.5 1.48-6.39 4.78-.72.83-1.37 1.65-1.91 2.43.19.4.37.85.52 1.32.5 1.47.7 2.88.56 3.7l.43.9-.95.37.01-.33-.67-.02v-.47c-.66-.54-1.4-1.83-1.92-3.38-.14-.4-.25-.79-.33-1.16a36.3 36.3 0 0 0-1.75-.31c-5-.76-9.5-.42-9.5.82 0 .57 1.2 1.25 2.5 1.85-2.77-.72-5.1-1.82-5-2.88.12-1.24 2.92-2.12 6.53-2.12 2.4 0 4.72.43 6.99 1.19-.03-.4-.02-.75.03-1.02a.96.96 0 0 1-.2.01c-.49-.01-.86-.38-.85-.83 0-.26.22-.48.45-.62.03-.43.42-.73.9-.73.23 0 .45.08.6.23h.1c.48.01.76.37.75.81 0 .32-.2.59-.49.7ZM37 24v3h-2v2.5h2v5.79c0 2.59 2.56 4.18 5 4.71l1-2.31c-.82-.31-3-1.14-3-2.75V29.5h2V27h-2v-4l-3 1Zm-7 3h-3v13h3v-7.81s.2-2.7 2.25-2.69c.9 0 1.25.5 1.25.5l.5-2.78s-.5-.23-1.4-.22c-1 0-2.21.69-2.6 1.56V27Zm1.94 3c-.67 0-.72.64-.72.64l.43 1.22a75.05 75.05 0 0 0 2.58 6.62c.25.52.48.52.6.52.17 0 .19-.32.19-.6 0-.85-.43-2.44-.81-3.84l-.15-.55a82.49 82.49 0 0 0-1.13-3.62s-.32-.39-1-.39ZM42 20.7c0 1.02-2.34 2.3-5.37 2.3-2.47 0-4.57-.44-5.63-1 8.02.72 10-.81 10-1.56s-2.5-1.3-4.97-1.25a13 13 0 0 0 .57-.08c.35-.06.7-.11 1.06-.11 2.8 0 4.34.69 4.34 1.7Zm-21.3 9.17c-.35.09-.68.13-.95.13-.36 0-.64-.12-.8-.3a.91.91 0 0 1-.15-.2c-2.2.1-3.8 1.9-3.8 4.05 0 2.2 1.95 3.95 4 3.95 2.34 0 4-1.75 4-3.95 0-1.61-.9-3.04-2.3-3.68Zm2.86-1.42c1.5 1.2 2.44 3 2.44 5.02C26 37 23 40 19.3 40c-1.78 0-3.34-.44-4.3-1.41V40h-3V23h3v5.83c.55-.86 2.4-1.83 4.3-1.83h.34c.35-.44.8-.92 1.36-1.43.25-.22.45-.35.68-.5.14-.08.3-.18.46-.3-.84.75-1.58 1.56-2.07 2.27.95.1 1.84.4 2.62.83 1.41-.9 3.12-2.45 4.81-4.87-.06 1.11-1.29 3.1-3.1 4.76-.28.26-.56.49-.84.7Z" fill="#061E44"/></svg>