<!-- by TradingView --><svg width="56" height="56" viewBox="0 0 56 56" xmlns="http://www.w3.org/2000/svg"><path fill="#322C2C" d="M0 0h56v56H0z"/><path d="M8 28h.36c1.74 0 2.83.32 2.83 2.27 0 1.52-.6 2.74-2.42 2.74-.3.01-.47-.01-.77-.06V28Zm0-5.02c.34-.04.54-.11.89-.11 1.24 0 1.95.5 1.95 1.84 0 1.68-.96 2.29-2.48 2.29H8v-4.02Zm-2.67 0c.1.47.14.94.11 1.41v7.89c0 .53-.06.83-.34.98l-.54.32V34H9.01c2.78.08 4.74-1.74 4.74-3.87 0-2-1.24-2.8-3.43-2.88v-.03c1.57-.53 3.04-1.12 3.04-2.88 0-1.96-1.67-2.36-3.24-2.34-1.32.02-5 .02-6.12 0v.64s1.16-.13 1.33.34Zm11.15 6.25c-.75.12-1.27.39-1.92.79a2.19 2.19 0 0 0-.79 1.83c0 1.23.63 2.17 1.9 2.15.51.01.81-.15 1.26-.41.44-.26.82-.63 1.07-1.08V34h3v-.92l-.15-.05c-.55-.05-.83-.28-.85-.71V28.04c.05-1.85-1.04-2.5-2.54-2.52a4.63 4.63 0 0 0-2.88 1.15v1.19l.5.12.28-.67c.13-.42.76-.43 1.06-.43 1.28 0 1.56.82 1.56 2.04l-1.5.3ZM18 31.69c-.35.43-.88.7-1.43.77-1.67.03-1.78-2 .65-2.62l.78-.2v2.05Zm9.15-3.66.14-2.1c-.67-.3-1.4-.43-2.13-.4-1.99 0-3.5.72-3.5 2.7 0 1.08.6 1.82 1.8 2.12l1.46.36c.63.15 1.08.37 1.08 1.13 0 .83-.7 1.3-1.47 1.3-.8 0-1.87-.2-2.01-.9l-.2-1.2h-.67v2.44c.85.32 1.75.52 2.66.52 1.75 0 3.58-.97 3.58-2.97 0-1.43-.78-1.96-2.17-2.27l-1.4-.31c-.64-.14-.93-.42-.93-.97 0-.75.6-1.12 1.59-1.12.54 0 1.32.31 1.4.67l.16 1h.61ZM42 30v-1.44c0-2.02-1.25-3.04-3.15-3.04-.51 0-3.94.25-3.82 4.44.08 2.48 1.39 4.04 3.87 4.04.97.01 1.91-.29 2.73-.79l.38-.82-.21-.27a3.9 3.9 0 0 1-1.84.6c-1.77 0-2.69-1.04-2.69-2.72 0 0 4.73.05 4.73 0Zm-3.38-3.52c1.26 0 1.4 1.5 1.4 2.52h-2.87c0-1.64.48-2.52 1.47-2.52Zm-4.69 1.55.14-2.1c-.67-.3-1.4-.44-2.14-.4-1.99 0-3.51.72-3.51 2.7 0 1.08.61 1.82 1.8 2.12l1.48.36c.63.15 1.07.36 1.07 1.12 0 .84-.7 1.3-1.47 1.3-.8 0-1.86-.19-2.01-.9l-.2-1.19h-.66l-.01 2.44c.85.32 1.75.52 2.66.52 1.75 0 3.58-.97 3.58-2.98 0-1.42-.78-1.95-2.16-2.26l-1.4-.31c-.65-.14-.94-.42-.94-.97 0-.75.6-1.12 1.58-1.12.55 0 1.34.3 1.4.67l.18 1h.61Zm9.63 3.76c0 1.56.64 2.2 2.19 2.2a1.42 1.42 0 0 0 1.04-.3l.83-1.02-.13-.34c-.24.14-.51.22-.79.22-.76 0-1.06-.24-1.06-1.11V27H48v-1h-2.36v-.94c0-.8-.04-2.05-.02-2.12l-.24-.17-1.8.87.02 2.38-1.12.58v.4h1.08v4.8Zm4.44 0c0 1.56.57 2.2 2.13 2.2a1.4 1.4 0 0 0 1.04-.3l.83-1.02-.13-.34c-.24.14-.5.22-.79.22-.77 0-1.08-.24-1.08-1.11V27h2v-1h-2v-3.06l-.24-.17c-.51.24-1.76.87-1.76.87v8.16Z" fill="#fff"/></svg>