<!-- by TradingView --><svg width="56" height="56" fill="none" xmlns="http://www.w3.org/2000/svg"><path fill="#61BC47" d="M0 0h56v56H0z"/><path fill-rule="evenodd" clip-rule="evenodd" d="M10.049 30.5H6.5v-2.327h3.549c.745 0 1.289.487 1.289 1.132 0 .63-.544 1.195-1.29 1.195zm-.33-3.903H6.5V24.5h3.219c.73 0 1.117.549 1.117 1.08 0 .544-.386 1.017-1.117 1.017zM4 28.173h1V32h5.234C11.81 32 13 30.996 13 29.391c0-1.146-.673-1.891-1.604-2.192.673-.3 1.103-.96 1.103-1.792 0-1.605-1.219-2.407-2.594-2.407H5v3.597H4v1.576zm25-1.789h1V32h1.5v-5.616h1.026V25H31.5v-2l-1.5.393V25h-1v1.384zm-9.648 1.43c-.298-1.016-1.041-1.551-1.932-1.551-.893 0-1.623.562-1.853 1.55h3.785zm1.296 2.567c-.783 1.002-1.864 1.605-3.04 1.619C15.325 32 14 30.257 14 28.5c0-1.756 1.325-3.5 3.608-3.5C18.973 25 21 26.14 21 28.733V29h-5.433c.082 1.016 1.014 1.737 2 1.737.758 0 1.406-.371 1.892-1.029l1.19.673zM22 25h1.5v1.042h.027c.395-.634 1.025-1.042 1.92-1.042C26.833 25 28 26.197 28 27.887V32h-1.5v-3.788c0-1.24-.537-1.747-1.474-1.747-.909 0-1.526.605-1.526 1.719V32H22v-7zm13.5-2v6.074c0 .787.128 1.067.563 1.32l.786.448L36.204 32C34.701 31.285 34 30.758 34 29.342V23h1.5zm4.919 3.263c.892 0 1.635.535 1.933 1.55h-3.785c.23-.988.96-1.55 1.852-1.55zM40.608 32c1.176-.014 2.257-.617 3.04-1.62l-1.189-.672c-.486.658-1.134 1.029-1.892 1.029-.987 0-1.919-.721-2-1.737H44v-.267C44 26.139 41.973 25 40.608 25 38.325 25 37 26.744 37 28.5c0 1.757 1.325 3.5 3.608 3.5zM45 25h1.5v4.012c0 1.137.59 1.614 1.46 1.614 1.1 0 1.54-.701 1.54-1.754V25H51v6.607C51 33.684 49.548 35 47.92 35c-1.275 0-2.065-.575-2.703-1.333l1.194-.758c.449.45.897.716 1.508.716.937 0 1.751-.994 1.751-2.185v-.365h-.027c-.556.645-1.072.925-1.982.925C46.195 32 45 30.864 45 28.956V25z" fill="#fff"/></svg>