<!-- by TradingView --><svg xmlns="http://www.w3.org/2000/svg" width="56" height="56"><path fill="url(#ap3wyrnbg)" d="M0 0h56v56H0z"/><path d="M37.18 26.04c-1.2-2.4-3-4.28-5.35-5.69l-.23-.11c-.26-.12-.6-.29-.6-.42V12c3.95.16 6.1 1.86 6.48 7H44v6h-6v2.44l-.13-.22c-.34-.56-.57-.94-.69-1.18zm-3.28-2.8a11.8 11.8 0 013.5 8.52c0 2.84 2.28 5.52 5.19 6.12a21.43 21.43 0 001.41.24V44l-1.25-.22a23.4 23.4 0 01-2.59-.53c-5-1.42-9.1-6.22-9.16-11.21a11.81 11.81 0 000-.54 6.47 6.47 0 00-6.5-6.5 6.5 6.5 0 00-5.36 2.82l-.14-.05v-6.6c0-.27.58-.64.89-.77a13.1 13.1 0 0114 2.85zM18 31.49V17.6c-.03-3.08-2.68-5.51-6-5.6v18.88c0 1.26.05 2.57.43 3.76 1.93 6.2 7.04 9.54 13.72 9.02a11.9 11.9 0 007.27-3.23l-3.13-5.96-.02.04-.04.05A6.5 6.5 0 0118 31.5v-.02z" fill="#fff"/><defs><linearGradient id="ap3wyrnbg" x1="0" y1="28" x2="56" y2="28" gradientUnits="userSpaceOnUse"><stop stop-color="#0290C6"/><stop offset="1" stop-color="#283B91"/></linearGradient></defs></svg>