<!-- by TradingView --><svg xmlns="http://www.w3.org/2000/svg" width="56" height="56" viewBox="0 0 56 56"><path fill="red" d="M0 0h56v56H0z"/><path fill-rule="evenodd" d="M7.96 23.46v.88c0 .17.13.47.49.45.35-.03.45-.25.47-.38v-1.1c-.01-.06.07-1.17 3.07-1.15 2.4 0 2.92 1 2.88 1.51v1.76c.03.18.18.53.53.53.34 0 .46-.3.47-.45V23.6c.03-1.6-.96-1.9-1.8-2.15l-.06-.02.54-1.9c.05-.14.05-.44-.3-.5-.36-.07-.54.1-.59.19l-.86 2.08a28.9 28.9 0 0 0-2.81.13c-1.66.28-2.04 1.48-2.03 2.04zm7.68 2.97c-.25-.27-.57-.2-.68-.1-.3.2-.14.5-.06.58.24.22.6.73.7 1.31.1.58.3.62.42.57.9-.32-.08-2.01-.38-2.36zM6.6 35.66c-.1.1-.37.1-.67-.1-.75-.48-1.55-2.12-.66-2.44.12-.04.33-.01.43.57a2 2 0 0 0 .96 1.4c.08.08.24.39-.06.57zm-.86-2.93c-.28.15-.97.25-1.48-.52-.64-.97-.24-3.56 2.78-6.23 3-2.64 6.2-1.47 6.79-.95.58.5.98 1.34 0 2l-8.1 5.7zm-.07-.89c-.2.1-.55.21-.9-.3-.43-.62.67-3.01 2.73-4.75 2.35-1.97 4.98-1.75 5.44-1.53.52.24.66.87 0 1.3l-7.27 5.28zm9.76-2.34c-2.2 1.19-6.2 4.13-7.92 5.46-.22.23-.56.87-.14 1.62.4.75 1.5.31 2 0 1.3-.9 3.48-2.45 5.05-3.58l-.08 1.86c-.06 1.03-.94 1.24-1.36 1.21h-2.25c-.47.03-.6.34-.6.49 0 .33.36.43.54.44h2.15c.78 0 2.11-.03 2.32-1.3a9.2 9.2 0 0 0 .08-2.61c-.12-.33-.3-.38-.48-.33.72-.52 1.27-.93 1.47-1.1.77-.67.98-1.24.61-1.97-.3-.59-1.05-.37-1.39-.2zm-7.22 5.96c-.2.17-.17.36-.12.44.14.13.33.05.41 0 1.88-1.12 5.43-4 6.97-5.3.1-.08.27-.27.16-.39-.1-.11-.33-.04-.44 0a117.1 117.1 0 0 0-6.98 5.25zm10.37-13.9c0-.21.18-.57 1.02-.53.84.05 1.52.07 1.76.08h1.87c.6-.03 1.8.25 1.86 1.63.02.25-.1.9-.77 1.46.34.12 1.04.5 1.18 1.08v-.85c.01-.09-.06-.28-.4-.41-.44-.16-.18-.7 0-.71.22-.1.98-.3 2.16-.33.16-.02.48.03.5.42v2.8c-.01.21.1.65.55.65.46 0 .6-.47.6-.7v-1.67c0-.12-.08-.38-.28-.46-.26-.1-.35-.62 0-.76a7.44 7.44 0 0 1 2.14-.28c.11 0 .34.1.35.48v2.92c0 .1.04.33.2.37.14.04.25.18.29.25.15-.08.47-.3.48-.53v-1.73c0-.07-.05-.24-.22-.3-.2-.08-.62-.52-.14-.87.39-.29 1.74-.5 2.37-.59.1 0 .31.08.31.38 0 .37.13.43.23.32a.74.74 0 0 0 .05-.08c.12-.2.38-.62 1.08-.62.82 0 1.14.73 1.15.88.12-.38.75-1.15 2.3-1.18.28 0 .93.06 1.35.2.53.18 1.07-.14 1.37-.34.31-.2.59.03.57.41-.03.38-.3.67-.58.97l-.01.02c.03.09.07.34 0 .63a2.87 2.87 0 0 1 2.69-1.69c.43.01 1.44.22 2.03 1 .03-.11.28-.4 1.05-.63.77-.23 1.39-.25 1.6-.23.07.01.2.1.22.36.02.31.06.47.23.28.09-.22.44-.64 1.1-.64.82 0 1.18.7 1.16 1.28a1.2 1.2 0 0 1-1.14 1.19c-.57.04-.93-.47-1.03-.73-.06-.07-.18-.15-.22.15a10.7 10.7 0 0 0-.04 1.72c.03.26.25.33.35.34.16.04.46.2.44.52-.01.41-.7.7-1.97.61-1.26-.1-1.78-.28-1.79-.82a3.07 3.07 0 0 1-4.1.07c.06.73-.5 2.2-3.2 2.2-.9.02-2.69-.24-2.64-1.4a1 1 0 0 1 .57-.66c-.46-.37-1.04-1.26.3-1.82-.2-.17-.64-.6-.66-.93-.06.23-.35.7-1.06.75a1 1 0 0 1-1.07-.75c-.08-.05-.22-.08-.23.2l-.02.28c-.03.38-.08.94.02 1.43 0 .07.07.23.32.3.32.1.88.72-.1 1.03-.96.31-2.95.2-3.25-.45-.25.17-1.05.54-2.21.6-.1.02-.32-.03-.32-.33.03-.16-.08-.48-.37-.27-.16.2-.68.6-1.43.6-.95 0-1.64-.62-1.6-1.65-.13.5-.77 1.52-2.31 1.52H19.6c-.55.01-1.09.02-1.06-.53 0-.1.09-.33.35-.5.25-.15.33-.4.33-.5.07-.63.2-2.3.11-3.95-.01-.13-.11-.42-.38-.48a.47.47 0 0 1-.38-.47zm3.16.9c-.01-.13.05-.37.4-.27.45.13.56.64.56.88s-.07.94-.7.96c-.1 0-.26-.04-.26-.24v-1.33zm.04 2.89c-.01-.13.06-.37.47-.27.52.13.65.64.64.88 0 .23-.08.93-.82.95-.1 0-.29-.03-.29-.23v-1.33zm17.68-.05c.32 0 .57-.42.57-.94s-.25-.94-.57-.94c-.32 0-.58.42-.58.94s.26.94.58.94zm-1.15 2.59c.2.03.8.1 1.56.07.15-.02.46.02.46.3 0 .33-.47.41-.93.42-.46 0-1.16-.16-1.24-.54-.05-.25.08-.26.15-.25zm1.41-1.94a2.6 2.6 0 0 0 2.14-1.07c-.23.73-.02 1.46.12 1.73a3.25 3.25 0 0 0-1.67-.16c-.84.13-1.74.06-1.78-.33-.02-.21.3-.2.67-.18.17.01.36.02.52 0zm4.36-1.19c-.1 0-.28-.03-.27-.22.03-.23.16-.68.63-.7.48-.01.6.63.61.7.01.07-.01.2-.2.22h-.77zm2.8-.39c.13.03.39.2.36.63v1.55c-.03.1-.15.33-.46.42.04-.21 0-.64-.37-.6-.1.01-.32.07-.5.18-.24.15-1.6.51-1.93-.5-.05-.14-.07-.41.25-.4h2.26c.16.01.48-.11.48-.75 0-.11-.04-.38-.09-.53zm-23.47 4.76h-3.49c-1.04-.45-1.42.38-1.71 1.12-.29.75.04 1.42.57 1.42.4 0 .58-.24.86-.61l.28-.37c.29-.35.55.06.55.36l-.06 3.17c-.01.32-.28.5-.42.55-.88.38-.4.86-.07 1.02.28.14 2.72.4 3.49 0s.33-.9 0-1.02c-.27-.1-.38-.4-.4-.55l-.09-3.17c-.05-.61.49-.75.82 0 .26.6.69.67.87.62 1.48-.56.16-2.39-.24-2.6-.24-.14-.73-.04-.96.06zm3.57 1.55c.77-.14 1.33-.62 1.25-1.07-.08-.44-.77-.7-1.54-.56-.77.14-1.33.62-1.25 1.07.08.45.77.7 1.54.56zm-1.66 1.25c.02-.54 1.73-.87 2.58-.97.31 0 .35.3.34.44v2.99c0 .25.19.45.29.51.44.41.22.74.06.86-.98.42-2.8.2-3.09-.06-.28-.26-.08-.63.15-.76.18-.1.27-.34.29-.45v-1.56c0-.17-.03-.52-.3-.58-.26-.05-.32-.3-.32-.42zm3.48-.04c-.03-.22.43-.73 2.52-1.02.12 0 .35.05.35.35 0 .38.08.61.32.36s.67-.7 1.46-.7c.62 0 1.04.35 1.17.53.07.11.28.4.4.22.14-.22.58-.76 1.48-.76s1.4.66 1.47 1.48v2.2c0 .12.06.4.3.52.29.14.31.7-.38.82-.7.12-1.99.09-2.36-.15-.3-.19-.15-.53-.04-.67.06-.1.17-.34.17-.57V33c0-.18-.1-.54-.43-.55-.32-.02-.42.36-.44.55v1.5c0 .15.05.48.22.57.22.1.27.72-.35.82-.62.1-1.76.17-2.29-.15-.1-.07-.23-.31-.05-.67.07-.1.22-.36.22-.57V33c-.01-.19-.12-.55-.45-.55s-.42.42-.42.63v1.42c.02.09.07.33.18.52.14.25.27.71-.4.87-.68.16-2.2.17-2.4-.15-.2-.32-.13-.5.06-.72l.02-.02c.18-.2.24-.27.26-.5v-1.83c-.03-.1-.15-.35-.34-.45-.2-.1-.25-.26-.25-.33zm11.95-1.1c-.86.03-2.58.6-2.63 2.66-.05 2.07 1.73 2.56 2.63 2.55.54 0 1.74-.25 2.18-1.25.02-.08.02-.28-.11-.38-.16-.12-.4-.09-.45-.06l-.03.02c-.12.08-.49.33-1 .33-.6 0-1.06-.4-1.15-.85-.03-.08-.01-.24.3-.26h2.15c.15 0 .45-.15.46-.7 0-.7-.62-2.06-2.35-2.06zm-.34 1.89c-.1 0-.29-.04-.27-.22.02-.24.15-.7.63-.7.47-.02.6.62.61.7.01.06-.01.2-.2.22h-.77z" fill="#fff"/></svg>