<!-- by TradingView --><svg xmlns="http://www.w3.org/2000/svg" width="56" height="56"><path fill="#05C1A1" d="M0 0h56v56H0z"/><path d="M8.42 26.8v-.77a2 2 0 00-.54-1.48C7.52 24.18 7 24 6.29 24H4v9h2.37c.7 0 1.23-.18 1.59-.54.36-.36.54-.86.54-1.5v-.8c0-.9-.35-1.46-1.06-1.7.65-.25.98-.8.98-1.66zM5 25h1.21c.74 0 1.23.4 1.23 1.22v.47c0 .82-.38 1.31-1.23 1.31H5v-3zm2.5 5.39v.37C7.5 31.58 7 32 6.29 32H5v-3h1.29c.85 0 1.21.56 1.21 1.39zm3.5-6.4h-1v9h1v-9zm6 .01v1h-2v8h-1v-8h-2v-1h5zm25 1v-1h-5v1h2v8h1v-8h2zm-22-1h2.34c.71 0 1.25.18 1.61.55a2 2 0 01.55 1.47v4.93c0 .63-.18 1.13-.53 1.5-.36.37-.89.55-1.6.55H20v-9zm3.55 2.28c0-.8-.42-1.28-1.26-1.28H21v7h1.29c.84 0 1.26-.39 1.26-1.21v-4.51zM27 24h-1v9h1v-9zm2 1.95c0-.6.2-1.08.62-1.42.42-.35 1.06-.53 1.93-.53a6 6 0 011.66.22v1.05a5.6 5.6 0 00-1.66-.27c-.57 0-.97.11-1.22.3-.24.2-.33.47-.33.85v4.8c0 .72.41 1.05 1.3 1.05.57 0 .95-.07 1.2-.25v-3.17h1v3.9a4.4 4.4 0 01-2.13.52C29.8 33 29 32.38 29 31.13v-5.18zM36 24h-1v9h1v-9zm5.5 9l2.07-9h1.36L47 33h-1l-1.76-8-1.74 8h-1zm7.5-9h-1v9h4v-1h-3v-8z" fill="#fff"/></svg>