<!-- by TradingView --><svg xmlns="http://www.w3.org/2000/svg" width="56" height="56" viewBox="0 0 56 56"><path fill="#F0F3FA" d="M0 0h56v56H0z"/><path d="M19.06 43C15.7 43 13 40.83 13 37.6 13 31.43 19.76 26 26 26c-2 2.31-2.02 4.56-2 6.13.07 4.24 3 7.28 3 7.28A11.06 11.06 0 0 1 19.06 43Z" fill="#5970B4"/><path d="M37.06 13c1.8 0 3.45.6 4.63 1.76.88.86 1.31 2.28 1.31 3.93 0 2.38-1.03 5.24-3.39 7.54-3.03 2.95-5.38 3.8-8.61 3.77 1-2.69.99-4.62 1-5.69.05-4.46-3-7.68-3-7.68A11.05 11.05 0 0 1 37.06 13Z" fill="#F8931F"/><path d="M37.44 43C31 43 26 36.64 26 31.12c0-.75.07-1.54.25-2.12 1.02 1.8 3 2.98 5.1 3C36.3 32 39 29 39 29c2 1.8 4 5.18 4 8.25C43 40.39 41.3 43 37.44 43Z" fill="#E564A5"/><path d="M14.29 14.68A5.6 5.6 0 0 1 18.56 13C24.91 13 30 19 30 24.64c0 .45-.06.94-.14 1.36-1.14-1.41-3.19-2-4.95-2-4.39 0-7.67 3-7.67 3C15 25.52 13 21.82 13 18.68c0-1.5.35-2.92 1.29-4Z" fill="#31B885"/></svg>