<!-- by TradingView --><svg width="56" height="56" viewBox="0 0 56 56" xmlns="http://www.w3.org/2000/svg"><path fill="#234E70" d="M0 0h56v56H0z"/><path d="M48 22v2h-3v10h-3V24h-3v-2h9ZM28 28c0-3.26 2.29-6 5.66-6 2.58 0 4.7 1.5 5.34 4h-3.01c-.45-.98-1.3-1.38-2.36-1.38C31.75 24.62 31 26.3 31 28c0 1.7.75 3.39 2.63 3.39 1.06 0 1.91-.42 2.36-1.4H39a5.26 5.26 0 0 1-5.34 4C30.29 34 28 31.28 28 28ZM27 22v2h-3v10h-3V24h-3v-2h9ZM14.83 27.85A2.91 2.91 0 0 1 17 30.73C17 32.9 15.26 34 13.26 34H8V22h5.08c1.9 0 3.66 1.03 3.66 3.11 0 1.25-.7 2.35-1.91 2.74ZM11 27h1.55c.92 0 1.45-.7 1.45-1.5 0-.81-.54-1.5-1.45-1.5H11v3Zm1.74 5c.94 0 1.26-.5 1.26-1.5 0-.86-.44-1.5-1.26-1.5H11l-.03 3h1.77Z" fill="#fff"/></svg>