<!-- by TradingView --><svg width="56" height="56" viewBox="0 0 56 56" xmlns="http://www.w3.org/2000/svg"><path fill="#F0F3FA" d="M0 0h56v56H0z"/><path d="M32.18 13.37c-.66-.63-3.44-2.61-4.33-2.35a9.9 9.9 0 0 0-4.04 2.35c-.07.06-.06.1.03.13a9.99 9.99 0 0 1 4.05 2.24c.06.05.12.05.19 0a10.5 10.5 0 0 1 4.07-2.26c.08-.02.09-.06.03-.11Zm-16.45 3.02a11.06 11.06 0 0 0-1.08 4.2c0 .11.04.14.14.08a10.31 10.31 0 0 1 4.47-1.27c.05 0 .08-.03.09-.09a11.1 11.1 0 0 1 1.3-4.54.07.07 0 0 0-.03-.06h-.04c-1.15.03-4.28.51-4.85 1.68Zm24.2-.47c.09.05.15.12.2.2.73 1.4 1.13 2.9 1.18 4.5 0 .08-.03.1-.1.06a10.4 10.4 0 0 0-4.48-1.29c-.07 0-.1-.04-.11-.12a10.05 10.05 0 0 0-1.3-4.45c-.04-.08-.02-.12.08-.12 1.61.05 3.12.46 4.53 1.22Zm-13.08 1.1a.12.12 0 0 0-.04-.09 9.27 9.27 0 0 0-4.16-2.07.14.14 0 0 0-.15.07 8.97 8.97 0 0 0-1.5 4.4.15.15 0 0 0 .12.16c1.4.18 2.7.67 3.86 1.47.07.04.1.03.13-.05.3-1.4.87-2.67 1.71-3.81a.12.12 0 0 0 .03-.09Zm4.1 3.97-.02.01h-.02l-.01-.01-.01-.02a9.76 9.76 0 0 0-1.73-3.88c-.04-.06-.04-.1.01-.15a9.04 9.04 0 0 1 4.16-2.06c.08-.01.14.01.18.08a9.12 9.12 0 0 1 1.49 4.4.1.1 0 0 1-.02.08.1.1 0 0 1-.07.04c-1.44.2-2.76.7-3.96 1.51Zm-13.98 5.89h.01a11.75 11.75 0 0 1 3.9-1.76c.08-.02.1-.06.05-.12a8.98 8.98 0 0 1-1.48-3.9.1.1 0 0 0-.04-.07.1.1 0 0 0-.06-.02 9.2 9.2 0 0 0-4.43 1.48.17.17 0 0 0-.07.18 8.93 8.93 0 0 0 2.12 4.2Zm24.14-4.35.04.05c0 .02.01.04 0 .07a9.35 9.35 0 0 1-2.08 4.2c-.04.05-.09.05-.14.01a9.64 9.64 0 0 0-3.8-1.71c-.1-.02-.11-.07-.06-.14a9.37 9.37 0 0 0 1.47-3.9.13.13 0 0 1 .15-.11c1.65.24 2.98.59 4.42 1.53Zm-30.07 5.19c-.34 1.04 1.51 3.62 2.22 4.36.05.05.1.05.13 0 .12-.17.26-.47.4-.88.36-1.03 1-2.06 1.92-3.1.05-.05.05-.1 0-.16a10.42 10.42 0 0 1-2.25-4.1c-.02-.07-.06-.08-.1-.03a10.18 10.18 0 0 0-2.32 3.9Zm31.51-3.93a.03.03 0 0 1 .03-.03h.01l.02.01c.7.75 2.7 3.52 2.35 4.55a10.41 10.41 0 0 1-2.32 3.9c-.06.06-.1.05-.12-.03a10.07 10.07 0 0 0-2.24-4.08c-.05-.06-.05-.12 0-.18a10.6 10.6 0 0 0 2.27-4.14Zm-21.66 7.1a9.82 9.82 0 0 1-3.84-1.72c-.05-.04-.1-.03-.13.01a9.2 9.2 0 0 0-2.08 4.18c-.02.07 0 .13.07.16a9.36 9.36 0 0 0 4.4 1.5c.08 0 .13-.03.14-.1.2-1.43.69-2.73 1.49-3.91.04-.06.02-.1-.05-.11Zm20.16 2.67a9.34 9.34 0 0 1-4.41 1.46.1.1 0 0 1-.07-.02.1.1 0 0 1-.04-.07 8.94 8.94 0 0 0-1.49-3.92c-.04-.06-.02-.1.05-.1 1.4-.3 2.67-.87 3.83-1.72.05-.04.1-.03.16.02a8.96 8.96 0 0 1 2.05 4.15c.02.08-.01.15-.08.2Zm-18.5 7.6c.02 0 .05.01.07 0a9.26 9.26 0 0 0 4.19-2.06c.05-.05.06-.1.01-.16a9.66 9.66 0 0 1-1.7-3.8c-.02-.1-.07-.12-.15-.06a8.93 8.93 0 0 1-3.88 1.47c-.07.01-.1.05-.1.12a9.1 9.1 0 0 0 1.56 4.49Zm12.38-4.6a.08.08 0 0 1 .07.1 9.2 9.2 0 0 1-1.5 4.42.16.16 0 0 1-.17.08 9.19 9.19 0 0 1-4.16-2.06c-.06-.05-.07-.1-.02-.17a9.43 9.43 0 0 0 1.72-3.81c.02-.08.06-.1.12-.05a9.2 9.2 0 0 0 3.94 1.5Zm-15.69.06a9.98 9.98 0 0 1-4.5-1.3c-.06-.02-.1 0-.09.05a10.5 10.5 0 0 0 1.26 4.6c.03.07.08.12.15.16 1.4.74 2.9 1.14 4.49 1.2.1 0 .12-.05.07-.13a11.1 11.1 0 0 1-1.27-4.48c0-.06-.04-.1-.1-.1Zm16.1 4.6c.74-1.39 1.21-2.86 1.26-4.45 0-.08.04-.13.12-.13 1.6-.09 3.09-.51 4.48-1.28.08-.05.11-.02.11.06a10.1 10.1 0 0 1-1.21 4.54.38.38 0 0 1-.16.15 10.06 10.06 0 0 1-4.54 1.22c-.08 0-.1-.03-.06-.1Zm-3.11 1.34-.02-.01a10.13 10.13 0 0 1-4.14-2.27c-.06-.04-.11-.04-.17 0a9.91 9.91 0 0 1-4.1 2.28.09.09 0 0 0 0 .13 10.69 10.69 0 0 0 3.97 2.27c1.01.32 3.72-1.63 4.46-2.32a.05.05 0 0 0 .01-.05l-.01-.03Z" fill="#231F20"/></svg>