<!-- by TradingView --><svg width="56" height="56" viewBox="0 0 56 56" xmlns="http://www.w3.org/2000/svg"><path fill="#D0FF25" d="M0 0h56v56H0z"/><path d="M27.93 24.64C27.52 22.1 25.8 18 19.7 18c-8.33 0-9.8 6.81-9.7 11 .08 4.18 2.52 9.7 9.1 10h5.3c.35 0 .59-.28.59-.62v-1.76c0-.34.32-.62.66-.62h1.72c.34 0 .62-.28.62-.62V33.5c0-.34-.28-.5-.62-.5h-2.01c-.32 0-.46.2-.54.5-.36 1.48-1.54 2.5-4.7 2.5-3.93 0-6.55-2.86-6.55-7 0-4.14 1.16-8 6.13-8 3.38 0 4.4 2.37 4.81 3.68.1.32.39.32.72.32H27.34c.36 0 .65 0 .59-.36ZM44 23.34V21.6c0-.34-.23-.61-.58-.61h-1.7c-.36 0-.72-.27-.72-.61V18.6c0-.34-.2-.61-.56-.61h-5.16c-1.91.12-5.73 1.48-5.73 5.95 0 5.1 5.43 5.77 7.53 6.02l.49.06h.03c1.53.24 4 .62 4 3.01 0 2.41-2.02 2.83-4.03 2.96-1.55.02-4.6-.62-5.1-3.58-.06-.32-.34-.42-.67-.42h-2.2c-.34 0-.62.1-.6.42.15 2.5 1.98 6.55 8.57 6.57 2.43.1 7.32-.95 7.43-5.95.12-5.4-4.45-5.88-6.77-6.13-.37-.04-.68-.07-.9-.12l-.38-.07c-1.66-.32-3.95-.76-3.95-3 0-2.37 2.24-2.75 4.33-2.72 1.94.03 3.32.75 3.86 2.48.08.27.34.52.63.52h1.6c.35 0 .58-.32.58-.66Z"/></svg>