<!-- by TradingView --><svg width="56" height="56" viewBox="0 0 56 56" xmlns="http://www.w3.org/2000/svg"><path fill="#F0F3FA" d="M0 0h56v56H0z"/><path fill-rule="evenodd" d="M28 35a5 5 0 1 0 0-10 5 5 0 0 0 0 10Zm0-2a3 3 0 1 0 0-6 3 3 0 0 0 0 6Z" fill="#673E98"/><path fill-rule="evenodd" d="M9 30v-4.23c-.06-.78-.52-2.45-.97-3.33-.03-.07.02-.14.1-.13.49.13 1.3.47 1.66 1.17.16-1.25-.38-3.41-3.76-6.33-.07-.06-.01-.17.07-.15 2.44.77 6.58 2.53 6.47 8.2a5 5 0 1 1-1.5 8.85c-.12.52-.58.91-1.14.91-.65 0-.93-.52-.93-1.16V30Zm8 0a3 3 0 1 1-6 0 3 3 0 0 1 6 0Z" fill="#3AAC49"/><rect x="20" y="25" width="2" height="10" rx="1" fill="#673E98"/><ellipse cx="21" cy="22.33" rx="1.34" ry="1.33" fill="#673E98"/><circle cx="7" cy="21" fill="#F7941D" r="1"/><path d="M34 21v11.52c.04.81.75 2.45 3.22 2.48 3.08.03 2.91-1.63 2.65-2.06-.27-.42-1-.46-1.63-.23-.63.23-2.1.69-2.24-.62V27h3a1 1 0 1 0 0-2h-3v-4a1 1 0 1 0-2 0Z" fill="#673E98"/><path fill-rule="evenodd" d="M49.38 33.89A4.7 4.7 0 0 1 46.19 35C44.02 35 41 33.87 41 29.85c0-3.98 3.33-4.85 4.78-4.85 1.44 0 4.13.9 4.22 4.68.01.46-.37.81-.83.81h-6.03c.09.86.86 2.56 3.19 2.5.33-.02.99-.18 1.6-.43.56-.23 1.32-.04 1.57.5.13.29.1.62-.12.83Zm-6.07-5.28a2.4 2.4 0 0 1 2.4-1.6c1.3 0 2.02 1.06 2.06 1.6H43.3Z" fill="#673E98"/></svg>