<!-- by TradingView --><svg width="56" height="56" viewBox="0 0 56 56" xmlns="http://www.w3.org/2000/svg"><path fill="#F0F3FA" d="M0 0h56v56H0z"/><path d="m17.17 44.42.41-.88c.52-1.06 1.02-2.12 1.55-3.17.11-.22.05-.31-.14-.42l-5.48-3.15c-.34-.2-.51-.45-.51-.86V20.06c0-.4.16-.67.5-.86l9.82-5.66c1.37-.78 2.74-1.57 4.1-2.37.4-.22.76-.23 1.14 0 2.06 1.19 4.12 2.37 6.17 3.57.25.14.4.07.57-.09l3.35-3c.06-.05.12-.1.23-.12l-.1.24-1.84 3.75c-.18.37-.18.37.19.59l5.4 3.11c.33.19.47.44.47.8v15.92c0 .4-.16.66-.51.86-3.75 2.15-7.5 4.32-11.24 6.48l-2.73 1.57a.99.99 0 0 1-1.06-.01c-2.08-1.2-4.15-2.39-6.22-3.6-.2-.11-.34-.1-.5.06-1.12 1.02-2.25 2.02-3.37 3.02l-.16.13-.04-.03ZM32.74 16.9c-.12-.08-.2-.14-.3-.19l-3.9-2.25c-.38-.22-.7-.21-1.08 0a2869.1 2869.1 0 0 1-11.03 6.33c-.4.23-.43.52-.43.98v12.5c0 .44.03.72.41.92l4.01 2.17c.1.06.2.1.32.14l.1-.23c.3-.72.57-1.44.87-2.15.08-.21.04-.31-.15-.42-.79-.43-1.57-.9-2.35-1.33-.22-.12-.21-.27-.21-.54v-9.66c0-.25-.03-.4.19-.52l1.6-.91c2.25-1.3 4.51-2.59 6.76-3.9.34-.19.61-.2.95 0 .56.36 1.15.67 1.72 1 .16.1.27.1.41-.03l1.8-1.6.31-.3Zm-9.5 22.18.23.16 3.7 2.12c.86.5.8.5 1.66 0l10.83-6.2c.33-.2.34-.45.34-.83V21.67c0-.37 0-.63-.32-.81l-3.94-2.25c-.07-.05-.15-.08-.24-.12l-.2.37c-.32.66-.63 1.33-.97 1.99-.13.24-.07.34.15.46l2.34 1.34c.2.12.18.26.18.5v9.69c0 .25.02.4-.2.52l-8.42 4.86c-.24.13-.44.15-.68 0l-1.91-1.09c-.16-.1-.27-.1-.41.03-.48.45-.98.88-1.47 1.31l-.67.61Zm9.98-20.2-.06-.04-.76.71-3.81 3.65c-1.14 1.1-2.29 2.18-3.44 3.26-.19.18-.2.3-.05.52.4.55.76 1.13 1.16 1.67.17.24.17.42.05.67l-3.34 6.78-.59 1.23c.1 0 .16-.05.22-.1l3.5-3.3 4.74-4.43c.17-.16.2-.27.05-.47l-1.24-1.8c-.1-.14-.11-.25-.04-.41l2.8-6.16.81-1.78Z" fill="#FFB531"/></svg>