<!-- by TradingView --><svg width="56" height="56" viewBox="0 0 56 56" xmlns="http://www.w3.org/2000/svg"><path fill="url(#actyhfd0y)" d="M0 0h56v56H0z"/><path d="M14 16h-2v7h2a2 2 0 1 1 2.29 1.98 6 6 0 1 0 2.67 5.77h-2.03a4 4 0 1 1-1.05-3.53 8.54 8.54 0 0 0 2.01-.7A4 4 0 1 0 14 19.55V16Z" fill="url(#bctyhfd0y)"/><path d="M19 30.25h-2a4.06 4.06 0 0 0-.09-1.08 7.66 7.66 0 0 0 1.93-.53 6.02 6.02 0 0 1 .15 1.61Z" fill="url(#cctyhfd0y)"/><path d="M18.71 28.15c-.66.3-1.37.46-1.93.54-.13-.37-.3-.7-.52-1.01a9.89 9.89 0 0 0 2-.57c.18.33.33.68.45 1.04Z" fill="url(#dctyhfd0y)"/><path d="M17 30.24v.01Zm-4.24-4.23a4 4 0 1 0 4.17 4.74h.06a4.5 4.5 0 1 1-4.23-4.74Z" fill="url(#ectyhfd0y)"/><path d="M16.29 24.98A2 2 0 1 0 14 22.76 2.5 2.5 0 1 1 16.5 25l-.21-.02Z" fill="url(#fctyhfd0y)"/><path d="M23 22h-2v5h2v-5Z" fill="#fff"/><circle cx="22" cy="20" r="1" fill="#fff"/><path d="M28 31h-2v5h2v-5Z" fill="#fff"/><circle cx="27" cy="29" r="1" fill="#fff"/><path d="M40 31h-2v5h2v-5Z" fill="#fff"/><circle cx="39" cy="29" r="1" fill="#fff"/><path d="M24 22h-.5v-1l1.5-2h1v1h2v2h-2v2.5c0 .8.67 1 1 1h1V27h-2c-1.6 0-2-1.33-2-2v-3ZM22 28h-2v8h2v-4c0-1.5 1-2 2-2h1v-2c-1.5 0-2.8.8-3 1v-1ZM43 28h-2v8h2v-5.71c0-.58.5-1.29 1.5-1.29s1.5.71 1.5 1.29V36h2v-6c0-1.14-.75-2-2.5-2-1.4 0-2.3.76-2.5 1.14V28ZM35 32a2 2 0 1 1-4 0 2 2 0 0 1 4 0Zm0-3.46a4 4 0 1 0 0 6.93V36c0 .5-.5 1.5-1.5 1.5-.8 0-1.67-.67-2-1l-1 1c1 1 2.17 1.5 3 1.5 2.8 0 3.5-2 3.5-3v-8h-2v.54Z" fill="#fff"/><defs><linearGradient id="actyhfd0y" x1="10.42" y1="9.71" x2="68.15" y2="76.02" gradientUnits="userSpaceOnUse"><stop stop-color="#1A1E21"/><stop offset="1" stop-color="#06060A"/></linearGradient><linearGradient id="bctyhfd0y" x1="6.5" y1="26" x2="20" y2="26" gradientUnits="userSpaceOnUse"><stop stop-color="#B0F"/><stop offset=".27" stop-color="#7F30FF"/><stop offset=".49" stop-color="#029EFF"/><stop offset="1" stop-color="#00EFFF"/></linearGradient><linearGradient id="cctyhfd0y" x1="6.5" y1="26" x2="20" y2="26" gradientUnits="userSpaceOnUse"><stop offset=".49" stop-color="#029EFF"/><stop offset="1" stop-color="#00EFFF"/></linearGradient><linearGradient id="dctyhfd0y" x1="6.5" y1="26" x2="20" y2="26" gradientUnits="userSpaceOnUse"><stop offset=".49" stop-color="#029EFF"/><stop offset="1" stop-color="#00EFFF"/></linearGradient><linearGradient id="ectyhfd0y" x1="9" y1="29" x2="15.5" y2="33.5" gradientUnits="userSpaceOnUse"><stop stop-color="#430085"/><stop offset="1" stop-color="#106AF2"/></linearGradient><linearGradient id="fctyhfd0y" x1="15" y1="20.5" x2="17.5" y2="25" gradientUnits="userSpaceOnUse"><stop stop-color="#05AAFF"/><stop offset="1" stop-color="#012FFF"/></linearGradient></defs></svg>