<!-- by TradingView --><svg width="56" height="56" viewBox="0 0 56 56" xmlns="http://www.w3.org/2000/svg"><path fill="#F0F3FA" d="M0 0h56v56H0z"/><path d="M14.09 38.95a.78.78 0 0 0 0 .73.7.7 0 0 0 .66.3h3.44a1.93 1.93 0 0 0 1.66-1.07l1.1-2.25c.05-.14 5.38-10.67 6.47-12.96.2-.4.35-.6.57-.6.23 0 .39.23.49.47.79 1.85 6.47 12.93 6.53 13.06l1.14 2.3c.14.32.39.59.7.76.29.2.63.3.98.3h3.44a.69.69 0 0 0 .66-.3.73.73 0 0 0-.06-.73l-13.14-26.5a.86.86 0 0 0-.76-.46.85.85 0 0 0-.75.46L14.09 38.95Z" fill="#1A5092"/></svg>