<!-- by TradingView --><svg width="56" height="56" viewBox="0 0 56 56" xmlns="http://www.w3.org/2000/svg"><path fill="#F0F3FA" d="M0 0h56v56H0z"/><path d="M6 21h44v.5H28.49c-.67 0-.79.28-.81.9-.03.84-.05 1.7-.05 2.54v6.87c.02.73-.07 1.45-.27 2.15A4.63 4.63 0 0 1 25 36.78c-.42.2-.88.27-1.34.18v-1.38l.14-.1.13.09a1.48 1.48 0 0 0 1.25.18.87.87 0 0 0 .48-.27.9.9 0 0 0 .22-.51c.05-.43.11-.85.12-1.28V22.85c0-.4-.03-1.32-.6-1.35H6V21Z" fill="url(#amf0p3zhe)"/><path d="M6.05 23.47v-.46h5.45c.35 0 .69.06 1.02.16.45.14.84.44 1.09.85.25.41.35.9.27 1.38-.14 1-.7 1.67-1.59 2.07-.26.11-.53.2-.82.3.33.06.65.1.95.17.29.07.57.17.83.3a2.13 2.13 0 0 1 1.15 1.82 3.32 3.32 0 0 1-1.46 3.12 4.3 4.3 0 0 1-2.7.82H6.68l-.01-.36.56-.3c.02-.22.06-.45.07-.68.03-.81.05-1.63.06-2.44v-3.87l-.01-1.81c0-.2-.03-.4-.04-.58a.38.38 0 0 0-.1-.24.35.35 0 0 0-.2-.12c-.22-.05-.43-.07-.65-.1l-.3-.03ZM9 33.19c.74.24 1.39.2 2.13.01.32-.08.61-.23.86-.45s.45-.5.58-.81c.28-.64.34-1.36.18-2.05-.18-.82-.65-1.35-1.46-1.55a6.7 6.7 0 0 0-2.3-.12v4.97Zm0-9.48v3.85c.1 0 .02.01.12.02.63 0 1.26.02 1.88-.15.68-.2 1.14-.64 1.3-1.36.06-.23.08-.47.08-.71.01-.37-.1-.74-.32-1.04-.22-.3-.53-.5-.88-.58a4.37 4.37 0 0 0-1.54-.12c-.26.03-.38.06-.64.1Z" fill="url(#bmf0p3zhe)"/><path d="M38.56 23.44V23h4.37v.44l-.38.03c-.2.02-.4.02-.6.05-.28.04-.37.14-.42.41a3 3 0 0 0-.05.5l-.02 5.17c0 .47.03.94.08 1.41.08.88.54 1.49 1.38 1.76 1.06.35 2.46.34 3.52-.03.87-.3 1.36-.92 1.47-1.84.06-.48.08-.97.09-1.46V24.7a8.29 8.29 0 0 0-.07-.87.47.47 0 0 0-.25-.26.45.45 0 0 0-.17-.04l-.72-.06-.24-.01V23H50v.43c-.3.05-.43.05-.74.09-.33.04-.45.17-.49.52-.02.2-.03.42-.03.63 0 1.27 0 2.54-.02 3.8-.01.8-.05 1.59-.08 2.38a3.08 3.08 0 0 1-2.27 2.86c-.85.25-2 .34-2.87.26a5.76 5.76 0 0 1-1.6-.34c-1.83-.67-1.88-2.34-1.9-4.02v-3.55c0-.7.04-1.42-.03-2.12a.4.4 0 0 0-.1-.26.39.39 0 0 0-.25-.13c-.23-.04-.46-.06-.7-.08l-.36-.03Z" fill="url(#cmf0p3zhe)"/><path d="M18.05 23v.47c-.13 0-.25.02-.37.03-.2.01-.42.02-.62.05-.31.04-.42.13-.47.44-.04.2-.05.4-.05.59-.01 1.8-.02 3.6-.01 5.4-.02.5.04 1 .17 1.5a1.76 1.76 0 0 0 1.04 1.17 5.66 5.66 0 0 0 3.64.1c.93-.3 1.45-.94 1.55-1.9.06-.5.06-1.02.07-1.54v-4.26c0-.32 0-.64-.02-.96-.02-.36-.16-.5-.52-.55-.23-.03-.46-.03-.7-.05l-.23-.01V23h3.75v.46l-.22.03-.77.06c-.31.04-.44.18-.47.5a18 18 0 0 0-.04 1.13c-.01 1.27 0 2.54-.02 3.8-.01.72-.05 1.44-.12 2.14-.13 1.2-.85 1.98-1.93 2.45-.65.26-1.34.4-2.04.41a6.72 6.72 0 0 1-2.7-.36 3.8 3.8 0 0 1-.66-.32 2.37 2.37 0 0 1-1.17-1.86c-.05-.59-.13-1.17-.14-1.75v-4.75c0-.3.02-.59 0-.88-.03-.35-.16-.47-.51-.51-.2-.03-.4-.04-.6-.05l-.36-.03v-.44l4.52-.03Z" fill="url(#dmf0p3zhe)"/><path d="M32 33.5v.5h-3.36v-.5l.53-.05c.13 0 .25-.04.35-.1.1-.08.19-.18.24-.3.26-.54.52-1.08.76-1.63l3.5-8.2.1-.22h.48l.54 1.29 3.07 7.38c.19.45.4.88.6 1.32.05.14.15.26.27.34a.7.7 0 0 0 .42.12c.11 0 .23.02.37.04V34l-3.98-.01v-.5l.65-.04a2.97 2.97 0 0 0 .52-.09.25.25 0 0 0 .12-.18v-.1a1.39 1.39 0 0 0-.09-.34l-.9-2.3a.74.74 0 0 0-.05-.08h-4.31l-.38.9-.48 1.15-.14.43c-.1.39.02.55.4.6l.77.06Zm2.02-8.36h-.06l-1.87 4.55h3.77l-1.84-4.55Z" fill="url(#emf0p3zhe)"/><defs><linearGradient id="amf0p3zhe" x1="6" y1="29" x2="50" y2="29" gradientUnits="userSpaceOnUse"><stop stop-color="#9E041F"/><stop offset="1" stop-color="#5E000D"/></linearGradient><linearGradient id="bmf0p3zhe" x1="6.05" y1="28.5" x2="14.41" y2="28.5" gradientUnits="userSpaceOnUse"><stop stop-color="#9E041F"/><stop offset="1" stop-color="#5E000D"/></linearGradient><linearGradient id="cmf0p3zhe" x1="38.56" y1="28.5" x2="49.93" y2="28.5" gradientUnits="userSpaceOnUse"><stop stop-color="#9E041F"/><stop offset="1" stop-color="#5E000D"/></linearGradient><linearGradient id="dmf0p3zhe" x1="13.53" y1="28.5" x2="25.28" y2="28.5" gradientUnits="userSpaceOnUse"><stop stop-color="#9E041F"/><stop offset="1" stop-color="#5E000D"/></linearGradient><linearGradient id="emf0p3zhe" x1="28.64" y1="28.5" x2="39.87" y2="28.5" gradientUnits="userSpaceOnUse"><stop stop-color="#9E041F"/><stop offset="1" stop-color="#5E000D"/></linearGradient></defs></svg>