<!-- by TradingView --><svg width="56" height="56" viewBox="0 0 56 56" xmlns="http://www.w3.org/2000/svg"><path fill="#211C83" d="M0 0h56v56H0z"/><path d="M25 12c-3.08 0-5.66.34-6.6.5v1.16h.7c1.32 0 1.9 1.06 1.9 2.38v23.98c0 1.31-.58 2.38-1.9 2.38h-.13V44h7.95l-1.8-3.88c-.17-.35-.15-.73-.13-1.12l.01-.4V28.53c0-.6.27-1.09.87-1.09h.92c3.8 0 5.58 2.5 6 3.76l1.55-3.28a5.89 5.89 0 0 0-2.9-1.78c-.1-.03-.11-.21-.02-.25C32.8 25.32 35 23.4 35 19.05c0-7.08-5.72-7.06-9.57-7.05H25Zm0 12.94v-9.87c0-.59.46-1.06 1.04-1.06h.86c1.7-.1 5.1.93 5.1 5.84 0 4.92-3.4 6.15-5.1 6.15h-.86c-.58 0-1.04-.47-1.04-1.06Zm-12-6.85V17h7.5v1.1c-.95-.07-2.66.16-1.88 1.6l1.88 3.8V31l-5.39-11.75c-.16-.39-.8-1.16-2.11-1.16ZM28.48 46l-3.15-7.28v-8.06l4.51 8.95 7.94-19.47c.6-1.48-.7-1.98-1.43-2.04h-.82V17H43v1.1h-1.19c-.64 0-1.2.7-1.39 1.04L29.58 46h-1.1Zm2.83-2.93 4.88-12.23c.58 2.11 1.25 6.92-.75 9.28a7.5 7.5 0 0 1-4.13 2.95Z" fill="#fff"/></svg>