<!-- by TradingView --><svg width="56" height="56" viewBox="0 0 56 56" xmlns="http://www.w3.org/2000/svg"><path fill="#F0F3FA" d="M0 0h56v56H0z"/><path d="M26.39 17h3.15a9.16 9.16 0 0 0-.6 3h-1.87c0-.62-.15-2.08-.68-3Zm-13.5 10.41-4.89.8V24h1.76l.24-1.06c4.57-4.23 12.73-5.22 16.24-5.19l.35 1.55c-10.31.79-13.43 5.74-13.7 8.11ZM10.18 21H7c.34.7.56 1.88.63 2.52h1.86c.17-1.45.53-2.2.69-2.52Zm32.93 6.41 4.89.8V24h-1.76L46 22.94c-4.57-4.23-12.73-5.22-16.24-5.19l-.35 1.55c10.31.79 13.43 5.74 13.7 8.11ZM45.82 21H49c-.34.7-.56 1.88-.63 2.52h-1.86a6.98 6.98 0 0 0-.69-2.52Z" fill="#6D4D54"/><path d="M26.39 39h3.15a9.16 9.16 0 0 1-.6-3h-1.87c0 .62-.15 2.08-.68 3ZM43.1 28.6l4.89 1.2V32h-1.76L46 33.06c-4.57 4.23-12.73 5.22-16.24 5.19l-.35-1.55c10.31-.79 13.43-5.73 13.7-8.11ZM45.82 35H49a9.06 9.06 0 0 1-.63-2.52h-1.86a6.97 6.97 0 0 1-.69 2.52Zm-32.93-6.41L8 29.65V32h1.76l.24 1.06c4.57 4.23 12.73 5.22 16.24 5.19l.35-1.55c-10.31-.79-13.43-5.73-13.7-8.11ZM10.18 35H7c.34-.7.56-1.88.63-2.52h1.86c.17 1.45.53 2.2.69 2.52ZM42.86 27.4a119.65 119.65 0 0 0-29.9 0v1.16c11.66-2.63 24.8-1.1 29.9 0V27.4Z" fill="#9E8783"/></svg>