<!-- by TradingView --><svg xmlns="http://www.w3.org/2000/svg" width="56" height="56" viewBox="0 0 56 56"><path fill="#F0F3FA" d="M0 0h56v56H0z"/><path fill-rule="evenodd" d="M42 14H14v2h26v26h2V14Zm-26 7v21h-2V19h16a7 7 0 1 1 0 14h-9v5h-2v-7h11a5 5 0 0 0 0-10H16Zm0 19h12.5a6.5 6.5 0 0 0 6.5-6.25 7.04 7.04 0 0 0 1.63-1.59A7.5 7.5 0 0 1 29.5 42H16v-2Zm3-17h11a3 3 0 1 1 0 6H19v-6Zm2 2h8a1 1 0 1 1 0 2h-8v-2Zm8.5 13H21v-2h9c1.49 0 2.72-.54 2.96-1.25h.03A3.5 3.5 0 0 1 29.5 38Zm7.5 2c-.6.8-1.37 1.5-2.26 2H40v-2h-3Z"/></svg>