<!-- by TradingView --><svg width="56" height="56" viewBox="0 0 56 56" xmlns="http://www.w3.org/2000/svg"><path fill="#F0F3FA" d="M0 0h56v56H0z"/><path d="M26 28.08c-3.5-7.29-10.12-9.09-13-9.08v7.43c1.4.05 3.2 1.01 3.93 1.5-1.65.96-3.3 1.4-3.93 1.51V37c3.33-.43 10.58-2.83 13-8.92Z" fill="url(#af2bwpy21)"/><path d="M22.13 22.84c1.45 1.3 2.8 3.02 3.87 5.24a12.11 12.11 0 0 1-3.53 4.78 16.57 16.57 0 0 0-5.44-4.91c1.28-.65 3.98-2.55 5.1-5.11Z" fill="#008B3E"/><path d="M28.08 30c-7.29 3.5-9.09 10.12-9.08 13h7.43c.05-1.4 1.01-3.2 1.5-3.93.96 1.65 1.4 3.3 1.51 3.93H37c-.43-3.33-2.83-10.58-8.92-13Z" fill="url(#bf2bwpy21)"/><path d="M22.84 33.87c1.3-1.45 3.02-2.8 5.24-3.87 1.95.78 3.53 2.05 4.78 3.53-1.29.9-3.65 2.95-4.91 5.44-.65-1.28-2.55-3.98-5.11-5.1Z" fill="#008B3E"/><path d="M30 27.92c3.5 7.29 10.12 9.09 13 9.08v-7.43c-1.4-.05-3.2-1.01-3.93-1.5 1.65-.96 3.3-1.4 3.93-1.51V19c-3.33.43-10.58 2.83-13 8.92Z" fill="url(#cf2bwpy21)"/><path d="M33.87 33.16A16.63 16.63 0 0 1 30 27.92a12.11 12.11 0 0 1 3.53-4.78c.9 1.29 2.95 3.65 5.44 4.91-1.28.65-3.98 2.55-5.1 5.11Z" fill="#008B3E"/><path d="M27.72 26c7.28-3.49 9.09-10.12 9.07-13h-7.42c-.05 1.4-1.02 3.2-1.5 3.93A13.12 13.12 0 0 1 26.35 13H18.8c.44 3.33 2.83 10.58 8.93 13Z" fill="url(#df2bwpy21)"/><path d="M32.95 22.13A16.63 16.63 0 0 1 27.72 26a12.12 12.12 0 0 1-4.78-3.52c1.28-.9 3.65-2.96 4.9-5.45.66 1.28 2.55 3.98 5.11 5.1Z" fill="#008B3E"/><defs><linearGradient id="af2bwpy21" x1="19.5" y1="19" x2="19.5" y2="37" gradientUnits="userSpaceOnUse"><stop stop-color="#517ABD"/><stop offset=".27" stop-color="#7EA5D7"/><stop offset=".73" stop-color="#7DA4D7"/><stop offset="1" stop-color="#5B82C2"/></linearGradient><linearGradient id="bf2bwpy21" x1="19" y1="36.5" x2="37" y2="36.5" gradientUnits="userSpaceOnUse"><stop stop-color="#517ABD"/><stop offset=".27" stop-color="#7EA5D7"/><stop offset=".73" stop-color="#7DA4D7"/><stop offset="1" stop-color="#5B82C2"/></linearGradient><linearGradient id="cf2bwpy21" x1="36.5" y1="37" x2="36.5" y2="19" gradientUnits="userSpaceOnUse"><stop stop-color="#517ABD"/><stop offset=".27" stop-color="#7EA5D7"/><stop offset=".73" stop-color="#7DA4D7"/><stop offset="1" stop-color="#5B82C2"/></linearGradient><linearGradient id="df2bwpy21" x1="36.79" y1="19.5" x2="18.79" y2="19.5" gradientUnits="userSpaceOnUse"><stop stop-color="#517ABD"/><stop offset=".27" stop-color="#7EA5D7"/><stop offset=".73" stop-color="#7DA4D7"/><stop offset="1" stop-color="#5B82C2"/></linearGradient></defs></svg>