<!-- by TradingView --><svg xmlns="http://www.w3.org/2000/svg" width="56" height="56"><path fill="#F0F3FA" d="M0 0h56v56H0z"/><path d="M29.02 43.99c-.61.03-1.23.02-1.84-.02a17 17 0 015.01-11.02A17.28 17.28 0 0144 27.86c.01.61 0 1.23-.06 1.84a15.47 15.47 0 00-10.44 4.55A15.27 15.27 0 0029.02 44z" fill="url(#akdygu5hz)"/><path d="M22.91 43.1c.38-4.63 2.2-9.55 6.37-13.72a21.78 21.78 0 0113.83-6.42c.2.6.38 1.2.51 1.8a19.99 19.99 0 00-13.03 5.92 19.8 19.8 0 00-5.88 12.93c-.6-.13-1.2-.3-1.8-.51z" fill="url(#bkdygu5hz)"/><path d="M31.34 12.4c.6.14 1.21.32 1.8.53a21.78 21.78 0 01-6.42 13.89 21.59 21.59 0 01-13.78 6.37c-.21-.6-.39-1.2-.53-1.8a19.8 19.8 0 0013-5.88 20 20 0 005.93-13.1z" fill="url(#ckdygu5hz)"/><path d="M26.73 12.03a16.1 16.1 0 011.83-.01 17.26 17.26 0 01-5.07 11.55 17.11 17.11 0 01-11.47 5.04c-.04-.6-.03-1.22 0-1.83a15.3 15.3 0 0010.16-4.51 15.46 15.46 0 004.55-10.24z" fill="url(#dkdygu5hz)"/><path d="M22.17 13c.63-.23 1.28-.43 1.93-.58a13 13 0 01-3.86 7.87 12.89 12.89 0 01-7.83 3.84c.15-.66.35-1.3.58-1.94a11.22 11.22 0 005.95-3.2c1.9-1.9 2.87-4.03 3.23-5.99z" fill="url(#ekdygu5hz)"/><path d="M33.66 43.07c-.65.23-1.32.42-2 .57a14.4 14.4 0 014.14-7.82 14.27 14.27 0 017.83-4.11c-.15.67-.34 1.34-.58 1.99a12.63 12.63 0 00-5.95 3.43 12.78 12.78 0 00-3.44 5.94z" fill="url(#fkdygu5hz)"/><path d="M43.63 31.71c-.14.6-.3 1.2-.51 1.8a24.04 24.04 0 01-14-6.6 24.03 24.03 0 01-6.6-14.04c.6-.2 1.2-.37 1.8-.5a22.1 22.1 0 006.09 13.26 22.1 22.1 0 0013.22 6.08z" fill="url(#gkdygu5hz)"/><path d="M12.77 22.8c-.19.6-.34 1.2-.47 1.8 6.2.53 11.02 4.03 13.06 6.07a22.14 22.14 0 016.07 13.02c.6-.12 1.2-.28 1.8-.47a24.06 24.06 0 00-6.58-13.83c-2.2-2.2-7.26-5.9-13.88-6.58z" fill="url(#hkdygu5hz)"/><path d="M12.04 29.02c5 .75 8.54 3.22 10.16 4.84 1.6 1.6 4.07 5.13 4.83 10.1.61.05 1.23.06 1.85.04a20.63 20.63 0 00-5.4-11.43 20.64 20.64 0 00-11.47-5.4c-.03.61-.01 1.23.03 1.85z" fill="url(#ikdygu5hz)"/><path d="M28.85 12.04a18.75 18.75 0 004.86 10.3 18.74 18.74 0 0010.26 4.86c.04.61.05 1.23.02 1.85a20.65 20.65 0 01-11.57-5.42A20.66 20.66 0 0127 12.02a14.3 14.3 0 011.85.02z" fill="url(#jkdygu5hz)"/><path d="M13.23 33.94c-.27-.65-.5-1.3-.67-1.97 2.6.33 5.54 1.57 8.05 4.2a13.46 13.46 0 013.7 7.35c-.67-.17-1.33-.38-1.97-.63a11.78 11.78 0 00-3.04-5.47 11.77 11.77 0 00-6.07-3.48z" fill="url(#kkdygu5hz)"/><path d="M33.62 13.1c.36 2.09 1.42 4.4 3.56 6.44A11.7 11.7 0 0043 22.66c.24.64.43 1.29.58 1.94a13.4 13.4 0 01-7.66-3.74 13.38 13.38 0 01-4.23-8.37c.65.16 1.3.37 1.93.61z" fill="url(#lkdygu5hz)"/><defs><linearGradient id="akdygu5hz" x1="43.84" y1="27.67" x2="28.21" y2="43.73" gradientUnits="userSpaceOnUse"><stop stop-color="#335A7A"/><stop offset=".51" stop-color="#5D9ED2"/><stop offset="1" stop-color="#2B4B64"/></linearGradient><linearGradient id="bkdygu5hz" x1="23.78" y1="42.47" x2="42.5" y2="23.52" gradientUnits="userSpaceOnUse"><stop stop-color="#818B37"/><stop offset=".58" stop-color="#D1D745"/><stop offset="1" stop-color="#828836"/></linearGradient><linearGradient id="ckdygu5hz" x1="14.23" y1="32.78" x2="32.85" y2="14.39" gradientUnits="userSpaceOnUse"><stop stop-color="#919A3A"/><stop offset=".41" stop-color="#DDE447"/><stop offset="1" stop-color="#6F7630"/></linearGradient><linearGradient id="dkdygu5hz" x1="12.65" y1="27.5" x2="27.94" y2="13.05" gradientUnits="userSpaceOnUse"><stop stop-color="#244259"/><stop offset=".59" stop-color="#5EA0D5"/><stop offset="1" stop-color="#386183"/></linearGradient><linearGradient id="ekdygu5hz" x1="13.55" y1="23.21" x2="23.75" y2="13.34" gradientUnits="userSpaceOnUse"><stop stop-color="#263D72"/><stop offset=".48" stop-color="#3B4F97"/><stop offset="1" stop-color="#293B73"/></linearGradient><linearGradient id="fkdygu5hz" x1="32.7" y1="43.03" x2="43" y2="32.73" gradientUnits="userSpaceOnUse"><stop stop-color="#273E73"/><stop offset=".49" stop-color="#4054A2"/><stop offset="1" stop-color="#2B3E78"/></linearGradient><linearGradient id="gkdygu5hz" x1="20.18" y1="15.23" x2="40.67" y2="35.92" gradientUnits="userSpaceOnUse"><stop stop-color="#7C8736"/><stop offset=".61" stop-color="#DCE348"/><stop offset="1" stop-color="#7F8535"/></linearGradient><linearGradient id="hkdygu5hz" x1="11.96" y1="22.48" x2="33.08" y2="44.43" gradientUnits="userSpaceOnUse"><stop stop-color="#7C8736"/><stop offset=".46" stop-color="#DCE247"/><stop offset="1" stop-color="#7F8535"/></linearGradient><linearGradient id="ikdygu5hz" x1="13.07" y1="26.1" x2="29.92" y2="42.95" gradientUnits="userSpaceOnUse"><stop stop-color="#2B4A63"/><stop offset=".39" stop-color="#5EA0D6"/><stop offset="1" stop-color="#2B4E6B"/></linearGradient><linearGradient id="jkdygu5hz" x1="25.91" y1="13.11" x2="42.92" y2="30.11" gradientUnits="userSpaceOnUse"><stop stop-color="#244259"/><stop offset=".63" stop-color="#5EA1D7"/><stop offset="1" stop-color="#355D7E"/></linearGradient><linearGradient id="kkdygu5hz" x1="13.2" y1="31.33" x2="24.85" y2="42.98" gradientUnits="userSpaceOnUse"><stop stop-color="#233C70"/><stop offset=".54" stop-color="#3F539F"/><stop offset="1" stop-color="#25386D"/></linearGradient><linearGradient id="lkdygu5hz" x1="30.98" y1="13.2" x2="42.99" y2="25.2" gradientUnits="userSpaceOnUse"><stop stop-color="#243C70"/><stop offset=".52" stop-color="#4055A2"/><stop offset="1" stop-color="#1F3163"/></linearGradient></defs></svg>