<!-- by TradingView --><svg width="56" height="56" viewBox="0 0 56 56" xmlns="http://www.w3.org/2000/svg"><path fill="#F0F3FA" d="M0 0h56v56H0z"/><path fill-rule="evenodd" d="M4 24h4.31a1.98 1.98 0 0 1 .83 3.77 2.21 2.21 0 0 1-.9 4.23H4v-8Zm2 1.43h1.28a.88.88 0 1 1 0 1.76H6v-1.76Zm0 3.07h1.38a.99.99 0 0 1 0 1.98H6V28.5ZM14.25 32c1.92.02 3.25-1.34 3.25-3s-1.23-2.98-3.25-3c-2.02-.02-3.25 1.34-3.25 3s1.33 2.98 3.25 3Zm0-1.42c.75 0 1.26-.71 1.26-1.58 0-.87-.47-1.57-1.25-1.58-.79 0-1.26.71-1.26 1.58 0 .87.51 1.57 1.26 1.58Z" fill="#00593E"/><path d="m19.04 32-1.9-6h2.1l1.08 4.28L21.35 26h2.47l.99 4 1-4h2.04l-1.82 6h-2.3l-1.12-4.49L21.5 32h-2.45ZM48 26h-2v6h2v-3.43a1 1 0 0 1 2 0V32h2v-3.76a2.24 2.24 0 0 0-4-1.38V26ZM28 26h2v.84a2.22 2.22 0 0 1 3.76.45 2.23 2.23 0 0 1 4.24.94V32h-2v-3.32a1 1 0 1 0-2 0V32h-2v-3.32a1 1 0 0 0-2 0V32h-2v-6Z" fill="#00593E"/><path fill-rule="evenodd" d="M39.54 26.52c.3-.18 1.2-.53 2.5-.52 1.64.01 2.83.97 2.96 2.26v3.77h-2v-.9c-.22.3-.9.9-1.96.9-1.33 0-2.25-.84-2.27-1.93-.01-1.08 1.4-1.84 2.27-1.84h1.9c.02-.27-.23-.83-1.36-.88-1.13-.06-1.83.27-2.04.43v-1.3Zm3.37 2.88c-.04.43-.34 1.3-1.27 1.4-1.16.12-1.22-1.16.08-1.4h1.19Z" fill="#00593E"/></svg>