<!-- by TradingView --><svg width="56" height="56" xmlns="http://www.w3.org/2000/svg"><path fill="url(#paint0_linear)" d="M0 0h56v56H0z"/><path d="M38.53 28.18l-.055.005a9.154 9.154 0 01-.469.033h-.025a13.185 13.185 0 01-.447.01h-.008c-.09 0-.181-.001-.272-.004-.019 0-.037-.002-.055-.003a9.164 9.164 0 01-.24-.012c-.014 0-.027-.002-.04-.003a9.27 9.27 0 01-.581-.058l-.019-.003-.016-.001c-.987-.134-1.912-.414-2.798-.739l-.01-.004-.336-.135-.709-.296c-.81-.34-1.648-.692-2.509-.964a7.004 7.004 0 00-1.972-.326h-.051l-.016-.001h-.005c-.32-.01-.64.008-.957.056a7.558 7.558 0 00-1.114.226c.111-.141.221-.284.328-.428.204-.272.364-.617.488-1.054.044-.154.147-.512.021-.868.024-.021.047-.044.072-.065.2-.128.384-.28.547-.453a8.873 8.873 0 011.992-1.15c1.1-.456 2.43-.75 3.932-.6 3.99.403 5.527 1.25 8.34-1.86C38.714 14.988 33.706 12 28 12c-6.4 0-11.923 3.76-14.481 9.19.705.682 2.123 1.358 4.887.737a3.879 3.879 0 011.852-.467 3.869 3.869 0 011.851.467c4.784 1.075 5.54-1.736 5.54-1.736 0 1.99-.794 2.866-1.997 3.232.103.04.189.08.259.126.256.164.302.378.188.775-.087.305-.21.62-.397.871-.457.614-.962 1.192-1.448 1.785-.003.004-.005.002-.004.016.01.099.095.148.185.106l.078-.038c.819-.395 1.653-.663 2.502-.77a6.42 6.42 0 012.756.252c1.081.34 2.122.811 3.173 1.243l.343.138c.96.384 1.936.711 2.976.78a9.55 9.55 0 001.27.087c.343 0 .746-.016 1.066-.046.003.726.003 1.452 0 2.176v7.14a.732.732 0 01-.75.758c-.385-.01-.69-.332-.712-.716l-.048-.861a13.702 13.702 0 00-1.201-4.073l-.695 2.204c-.228.721-.452 1.432-.675 2.144l-.25.841a.657.657 0 01-.878.42.648.648 0 01-.399-.659s.432-3.56.231-5.436c-1.822 1.154-3.806 1.605-5.928 1.64l-.164 3.749v.08a.677.677 0 01-.739.675.697.697 0 01-.614-.613l-.157-1.123-.402-2.582h-.09l-.353 2.514-.142 1.164a.693.693 0 01-.813.598.708.708 0 01-.568-.676l-.055-1.363c-.045-.927-.09-1.84-.14-2.752-.005-.097-.087-.193-.146-.282l-.008-.013a10.05 10.05 0 01-1.246-2.667c-.2-.672-.4-1.345-.597-2.018.522-.202 1.011-.592 1.079-.705.069-.114-.07-.237-.204-.156-.154.096-.58.27-.781.287-.48.041-.965.025-1.448.019-.59-.008-.96-.39-.982-.981-.008-.245.01-.51-.076-.729-.353-.906-.605-1.83-.622-2.808-.004-.19-.064-.273-.198-.298-.368.013-.73.02-1.077.015-1.635-.024-2.992-.327-3.576-1.687A15.95 15.95 0 0012 28c0 8.837 7.164 16 16 16 8.837 0 16-7.164 16-16 0-.706-.046-1.4-.135-2.082-1.163.973-2.938 2.027-5.334 2.262" fill="#75C154"/><defs><linearGradient id="paint0_linear" x1="10.418" y1="9.712" x2="68.147" y2="76.017" gradientUnits="userSpaceOnUse"><stop stop-color="#1A1E21"/><stop offset="1" stop-color="#06060A"/></linearGradient></defs></svg>