<!-- by TradingView --><svg width="56" height="56" viewBox="0 0 56 56" xmlns="http://www.w3.org/2000/svg"><path fill="url(#a1lflo31h)" d="M0 0h56v56H0z"/><path fill-rule="evenodd" d="M29 12.03A16 16 0 0 0 12.73 32.8l1.77-1.06A14.01 14.01 0 0 1 27 14.03v5.02a9 9 0 0 1 9.86 10.55l1.82 1.03A11.02 11.02 0 0 0 29 17.04v-5Zm2 2.3a14 14 0 0 1 9.44 20.1c-.61-.41-1.14-.8-1.64-1.17-.8-.6-1.55-1.15-2.54-1.7A9 9 0 0 1 22.2 34.9l-1.6 1.25a10.99 10.99 0 0 0 16.3-1.67c.9.6 1.5 1.1 2.07 1.6.56.48 1.1.94 1.88 1.46A16 16 0 0 0 31 12.28v2.04ZM17 28a11 11 0 0 1 8-10.59V24a5 5 0 1 1-1.98 3.5H23v-6.98a9 9 0 0 0-2.18 12.9s-2.55 1.06-4.63 2.1a13.99 13.99 0 0 0 21.67 2.42l1.7 1.13a16 16 0 0 1-26.1-4.38c1.05-.63 2-1.08 3.02-1.57l1.44-.7C17.33 31.07 17 29.57 17 28Zm14 0a3 3 0 1 1-6 0 3 3 0 0 1 6 0Z" fill="url(#b1lflo31h)"/><defs><linearGradient id="a1lflo31h" x1="10.42" y1="9.71" x2="68.15" y2="76.02" gradientUnits="userSpaceOnUse"><stop stop-color="#1A1E21"/><stop offset="1" stop-color="#06060A"/></linearGradient><linearGradient id="b1lflo31h" x1="28" y1="12" x2="28" y2="44" gradientUnits="userSpaceOnUse"><stop stop-color="#EE7A00"/><stop offset="1" stop-color="#E94F07"/></linearGradient></defs></svg>