<!-- by TradingView --><svg xmlns="http://www.w3.org/2000/svg" width="56" height="56"><path fill="#F0F3FA" d="M0 0h56v56H0z"/><path d="M10 41.28a7.48 7.48 0 014.3-1.43c2.88 0 3.58.88 5.43 2 1.53.92 2.52 1.09 4.9.4-1 .79-2.17 1.35-3.4 1.63a6.2 6.2 0 01-3.24-.26c-1.03-.39-1.7-1.17-2.53-1.81a4.36 4.36 0 00-2.16-.87 8.83 8.83 0 00-1.62-.06c-.32.02-.64.07-.96.16l-.46.13a.84.84 0 00-.26.11z" fill="#196FAB"/><path d="M43 41.62a15.63 15.63 0 00-4.73-1.77 12.2 12.2 0 00-6.63.92c-.68.33-1.37.61-2.08.85-1.29.34-2.26-.14-3.25-.64a7.09 7.09 0 00-2.37-1.01 7.23 7.23 0 00-3.99.98l-.39.24c1.1-.25 2.3-.6 3.42-.3.46.15.88.39 1.23.7 1.26 1.08 2.72 2.4 4.5 2.4a6.47 6.47 0 003.63-1.02c.19-.11.4-.2.58-.32l.52-.3a13.37 13.37 0 012.45-1.1 8.2 8.2 0 011.79-.34 14 14 0 015.32.71zM29.37 26.44l8.24-5.15-8.59 4.76-.08-1.02 3.12-9.42-3.6 9.25-5.03-8.81L28 25.08l-.05.8-9.32-3.42 9.08 3.87-8.16 3.43 8.36-3.01-.55 10.27-3.16 1.8 2.67-.3-.98 1.07 2.73-.39 2.71.39-.97-1.07 2.69.32L29.8 37l-.72-10.15 8.31 1.6-8.02-2z" fill="#8F806C"/><path d="M34.62 12.9c.4-1.16-.55-2.9-.55-2.9a3.56 3.56 0 00-2.23 1.83c-.63 1.38.5 3.08.5 3.08.35-.12 1.89-.84 2.28-2zm-3.6 2.6s.75-1.37.15-2.36a2.74 2.74 0 00-1.85-1.22s-.58 1.4-.19 2.26a3.01 3.01 0 001.9 1.33zm1.94.75c.7.38 1.52.47 2.28.24.85-.4 1.3-1.85 1.3-1.85a2.7 2.7 0 00-2.18-.3c-1.09.37-1.4 1.91-1.4 1.91zm-5.22 5.57c-.13.27-.17.57-.11.86a1.02 1.02 0 00.78-.3 1.03 1.03 0 00.14-.89c-.3 0-.6.12-.8.33zm3.8 1.94c0-.4-.48-.64-.48-.64a1.04 1.04 0 00-.3.75c.03.32.46.64.46.64a.99.99 0 00.31-.75zm-5.76.6a1 1 0 01-.28.3 1.29 1.29 0 01-.42-.7 1.12 1.12 0 01.41-.75s.46.33.42.75c-.01.14-.06.28-.13.4zm8.53-7.21c.3.11.56.28.78.5 0 0-.63 1.06-1.38 1.24a2.41 2.41 0 01-1.77-.64s.54-1.16 1.47-1.24c.3-.02.62.03.9.14zm-3.18 2.78c.29.3.68.47 1.1.47.47-.06.91-.7.91-.7a1.44 1.44 0 00-1.03-.49c-.6.01-.98.72-.98.72zm.5 1.33c.13.08.24.18.33.3 0 0-.37.44-.74.45a1.12 1.12 0 01-.77-.42s.33-.46.76-.46c.15.02.29.06.42.13zm-1.43-5.5c.66.69.33 1.93.33 1.93a2.4 2.4 0 01-1.75-.73 2.9 2.9 0 01-.26-1.84 2.23 2.23 0 011.68.64zM28.7 18c-.05.4.03.8.24 1.15a1.53 1.53 0 001.13.36 1.42 1.42 0 00-.28-1.19 1.42 1.42 0 00-1.1-.32zm.12 2.19c.14.03.28.08.4.17a1.03 1.03 0 01.27.85 1.1 1.1 0 01-.85-.2 1.33 1.33 0 01-.25-.81c.14-.04.29-.04.43-.01zm-3.15-8.17s.77 1.3.5 2.2a3.03 3.03 0 01-1.68 1.6s-.93-1.26-.48-2.33a2.78 2.78 0 011.66-1.47zm-.34 3.94c-.56.77-.05 1.92-.05 1.92a2.45 2.45 0 001.63-.94c.38-.64 0-1.85 0-1.85a2.23 2.23 0 00-1.58.87zm.58 3.06c.02-.21.09-.41.2-.6a1.44 1.44 0 011.03-.46c.1.38.07.8-.08 1.16-.28.31-.66.5-1.07.53-.07-.2-.1-.42-.08-.63zm1.82 1.07a1 1 0 00-.79.27 1.04 1.04 0 00-.14.89c.3 0 .6-.1.82-.31.13-.26.17-.56.1-.85zm-5.08-3.26c-.64.47-1.45.66-2.23.53-.89-.28-1.54-1.61-1.54-1.61a2.73 2.73 0 012.12-.6c1.13.2 1.65 1.68 1.65 1.68zm-1.91 1.66s.76.96 1.52 1a2.46 2.46 0 001.67-.86s-.69-1.08-1.62-1.03a2.2 2.2 0 00-1.57.89zm3.16 1.12c.59-.06 1.07.58 1.07.58-.24.34-.6.57-1.02.64a1.8 1.8 0 01-1-.58 1.44 1.44 0 01.95-.64zm1.25 2.65c.3-.07.54-.26.7-.52a1.02 1.02 0 00-.81-.35 1.03 1.03 0 00-.66.52c.21.2.48.32.77.35zm-2.04-9.92c.6 1.07.11 2.72-.04 3.05 0 0-2-.24-2.57-1.64a3.75 3.75 0 01.1-2.92s1.92.44 2.51 1.5zm17 9.39c-1.01-.4-2.14.53-2.14.53.3.71.86 1.27 1.56 1.57.86.22 2.04-.55 2.04-.55a2.74 2.74 0 00-1.46-1.55zm-1.34 2.85c-.56.21-1.18.23-1.76.04-.49-.37-.82-.93-.92-1.55a2.05 2.05 0 011.8 0 2.2 2.2 0 01.88 1.5zm-3.78.25c.35.14.74.16 1.1.05a1.41 1.41 0 00-.47-1 1.3 1.3 0 00-1.14-.08 1.52 1.52 0 00.51 1.03zm-.85.68a1.2 1.2 0 01-.8-.1c-.2-.21-.32-.49-.33-.78a.96.96 0 01.84.13 1 1 0 01.3.75zm2.82-4.98s1.35-.54 1.5-1.63a2.76 2.76 0 00-.64-2.03s-1.26.64-1.46 1.53c-.08.77.14 1.53.6 2.13zm-.76-.3c.1.89-.87 1.59-.87 1.59-.49-.39-.81-.95-.9-1.57a2.7 2.7 0 01.87-1.5 2.22 2.22 0 01.9 1.47zm-1.8 1.59a1.38 1.38 0 00-.63-.9c-.27.26-.44.6-.48.98.08.4.3.74.63.96 0 0 .58-.48.48-1.04zm-1.8.76c.1.11.16.24.2.38a.98.98 0 01-.28.75 1.16 1.16 0 01-.53-.64c.01-.28.12-.54.3-.75a1 1 0 01.32.26zm8.55-1.74c.96-.64 1.26-2.46 1.26-2.46a3.4 3.4 0 00-2.73 0c-1.26.6-1.4 2.56-1.4 2.56.34.09 1.9.5 2.87-.1zm-21.67-1.45c.19.74.09 1.53-.28 2.2 0 0-1.4-.35-1.72-1.37a2.75 2.75 0 01.33-2.11s1.33.45 1.67 1.28zm2.15 1.53c-.13-.72-1.09-1.36-1.09-1.36a2.2 2.2 0 00-.63 1.61c.05.91 1.1 1.45 1.1 1.45.42-.46.64-1.07.62-1.7zm1.4 1.5c-.02.4-.2.77-.48 1.04 0 0-.64-.4-.64-.97a1.4 1.4 0 01.48-.99s.59.45.63.91zm1.03 1.73c.23-.18.37-.45.41-.74-.05-.27-.2-.52-.4-.7a1 1 0 00-.42.69c-.04.42.41.75.41.75zm-7.78-.91c.92-.54 2.18.21 2.18.21-.18.75-.64 1.4-1.28 1.8-.82.35-2.08-.25-2.08-.25a2.73 2.73 0 011.18-1.76zm4.18.76s-1.13-.36-1.77.25a2.23 2.23 0 00-.63 1.63c.57.13 1.17.05 1.7-.2.44-.45.69-1.05.7-1.68zm1.67.5c.02.4-.11.78-.37 1.08-.32.2-.69.27-1.06.22a1.42 1.42 0 01.32-1.06 1.25 1.25 0 011.1-.24zm1.36 1.4c.16-.23.23-.53.2-.82a.93.93 0 00-.8.25 1.04 1.04 0 00-.17.8c.27.01.54-.07.77-.23zm-7.33-6.01c1.07.4 1.69 1.92 1.77 2.26 0 0-1.59 1.08-2.83.44a3.47 3.47 0 01-1.64-2.25s1.64-.85 2.7-.45zm15.37 6.13c-.09.22-.1.46-.04.68a.68.68 0 00.62-.3.7.7 0 00.05-.7.9.9 0 00-.63.32zm-.43 2.18a.96.96 0 01.2-.67s.44.19.48.54a.84.84 0 01-.21.64s-.4-.22-.47-.5zm5.9 1.06a2.5 2.5 0 00.07 1.88c.4.46.96.76 1.56.86a2.35 2.35 0 000-1.8c-.42-.85-1.63-.94-1.63-.94zm-1.94.9c-.1-.53 0-1.07.3-1.51 0 0 .94.3 1.1 1.05a1.86 1.86 0 01-.3 1.44s-.9-.4-1.1-.99zm-1.1-2c-.2.28-.28.62-.23.95.1.37.63.64.63.64a1.17 1.17 0 00.26-.9c-.08-.45-.67-.68-.67-.68zm-1.6.32c0-.25.08-.49.24-.67 0 0 .41.21.44.56 0 .24-.08.47-.25.64 0 0-.38-.25-.43-.53zm6.84-1a2.27 2.27 0 00.74-1.64 2.66 2.66 0 00-1.76.08 2.49 2.49 0 00-.83 1.68s1.15.46 1.85-.13zm-1.85-1.2c-.05.25-.15.48-.3.69a1.7 1.7 0 01-1.43.46c-.08-.52.05-1.06.34-1.5.4-.28.9-.43 1.39-.4.05.24.05.5 0 .75zm-2.17-.31c-.32 0-.62.12-.86.32a1.3 1.3 0 00-.16.96 1.06 1.06 0 00.89-.36 1.22 1.22 0 00.13-.92zm-2.4 1a.96.96 0 01.06-.7c.17-.17.38-.28.62-.3a.86.86 0 01-.04.68.78.78 0 01-.63.32zm7.5.9c-1.13-.37-2.3.74-2.3.74.11.27.84 1.44 1.78 1.64.93.19 2.16-.76 2.16-.76a2.94 2.94 0 00-1.64-1.62zm-14.7.22a.9.9 0 01.26-.28c.2.18.33.42.36.68a.98.98 0 01-.37.64s-.4-.3-.36-.68a.92.92 0 01.12-.36zm-.26-1.85a1.1 1.1 0 00-.71-.17.76.76 0 00.2.74.73.73 0 00.73.16 1.02 1.02 0 00-.22-.73zm-5.87 2.62s-1.14.65-2 .14a2.4 2.4 0 01-1.05-1.6s1.16-.5 1.9-.18c.57.37.99.96 1.15 1.64zm1.2-1.96a2.38 2.38 0 00-1.55-.23 2.01 2.01 0 00.56 1.48 1.87 1.87 0 001.61.26c0-.57-.23-1.11-.62-1.51zm.85-.1c.33-.03.68.04.97.21.22.28.33.63.3.98a1.16 1.16 0 01-1-.23 1.25 1.25 0 01-.27-.95zm2.54-.04c-.2-.15-.45-.22-.7-.22a.94.94 0 00.15.72.86.86 0 00.72.24c.04-.26-.02-.53-.17-.74zm-5.57 6c-.05-.32-.03-.66.05-.98.29-.95 1.57-1.21 1.57-1.21.34.6.43 1.32.25 1.99-.32.74-1.53 1.14-1.53 1.14-.17-.28-.29-.6-.34-.93zm2.25-1.84a2.04 2.04 0 00.59 1.46s.87-.56 1-1.2a2.2 2.2 0 00-.55-1.54s-.99.49-1.04 1.28zm1.84-1.12c0-.52.59-.86.59-.86.25.25.4.59.41.95-.04.41-.57.8-.57.8a1.28 1.28 0 01-.43-.9zm1.97-1.44a.87.87 0 00-.37.64.96.96 0 00.37.64s.36-.32.37-.64a1 1 0 00-.37-.64zm-9.63 3.27s.56-1.59 1.5-2c.95-.39 2.3.22 2.57.4 0 0-.4 1.7-1.62 2.04a3.04 3.04 0 01-2.45-.44z" fill="#69B354"/></svg>