<!-- by TradingView --><svg width="56" height="56" viewBox="0 0 56 56" xmlns="http://www.w3.org/2000/svg"><path fill="#F0F3FA" d="M0 0h56v56H0z"/><path d="M48 23h2v7.08c0 2.5-2.17 3.92-4.5 3.92-2.34 0-4.5-1.4-4.5-3.92V23h2v6.67c0 1.42 1.13 2.33 2.5 2.33s2.5-.91 2.5-2.33V23ZM30 23h2.25L35 28l2.75-5H40l-4 6.9V34h-2v-4.1L30 23ZM29 23v11h-2V23h2ZM18.08 34H16l3.8-11h2.4L26 34h-2.08L21 25.26 18.08 34Zm.07-4.6h5.68V31h-5.68v-1.6ZM7 34V23h4.1c1.76 0 3.48.9 3.48 2.85 0 1.18-.74 2.06-1.87 2.34v.11c1.4.08 2.29 1.38 2.29 2.7 0 2.06-1.8 3-3.66 3H7Zm2-1.66h2.03c.96 0 2-.37 2-1.5 0-1.08-.93-1.73-1.95-1.73H9v3.23Zm0-4.66h1.86c.93 0 1.78-.58 1.78-1.57 0-.99-.83-1.47-1.73-1.47H9v3.04Z"/></svg>