<!-- by TradingView --><svg width="56" height="56" xmlns="http://www.w3.org/2000/svg"><path fill="#0057C5" d="M0 0h56v56H0z"/><path d="M24.307 21H4v10.856C4 34.232 5.817 34.948 6.725 35H27V24.281c-.056-2.578-1.72-3.27-2.693-3.281zM51.997 35.004H29v-10.54c0-2.177-1.457-2.962-2-3.464h21.71c2.748.07 3.337 1.998 3.287 2.933v11.07z" fill="#fff"/><path d="M44 31v-6h1.5l2.997 3.5V25h1.508v6H48.5l-3-3.5V31H44zM36.995 29v-4H38.5v3.428c0 .31.518 1.06 1.5 1.072.982.012 1.5-.673 1.5-1.072V25h1.502v4c-.019.656-.652 1.975-3.002 2-2.35.024-2.98-1.323-3.005-2zM14.796 25L12 31h1.5l.601-1.277h2.802L17.5 31h1.498l-2.793-6h-1.409z" fill="#0057C5"/><path d="M14.68 28.57l.788-1.88.85 1.88H14.68z" fill="#fff"/><path d="M9.514 25H5.998v6h3.928c.4 0 1.093-.81 1.071-1.704-.022-.894-.723-1.298-1.071-1.389.229-.029.684-.346.673-1.389C10.588 25.476 9.926 25 9.514 25z" fill="#0057C5"/><path d="M8.802 26.16H7.5v1.135h1.302a.787.787 0 00.33-.622.526.526 0 00-.33-.512zM9.083 28.57H7.5v1.134h1.583c.132-.072.396-.298.396-.621 0-.324-.264-.477-.396-.513z" fill="#fff"/><ellipse cx="22.61" cy="28" rx="3.01" ry="3" fill="#0057C5"/><ellipse cx="22.61" cy="28" rx="1.498" ry="1.5" fill="#fff"/><path d="M36 25h-5v1.5h3l-3 3V31h5v-1.5h-3l3-3V25z" fill="#0057C5"/></svg>