<!-- by TradingView --><svg width="56" height="56" viewBox="0 0 56 56" xmlns="http://www.w3.org/2000/svg"><path fill="#F0F3FA" d="M0 0h56v56H0z"/><path d="M24 26.4h1v1.06c0 .85-.7 1.54-1.55 1.54h-4.9c-.85 0-1.55-.69-1.55-1.54v-3.92c0-.85.7-1.54 1.55-1.54h4.9c.85 0 1.55.69 1.55 1.54v.95h-1v-1.12c0-.29-.38-.37-.67-.37H18.5c-.29 0-.49.08-.49.37v4.23c0 .28.2.4.49.4h4.84c.29 0 .67-.12.67-.4v-1.2Zm7 .17h1v.99c0 .27.29.44.56.44h3.95c.27 0 .49-.17.49-.44V26.5a.5.5 0 0 0-.5-.5h-4.27c-.68 0-1.23-.56-1.23-1.25v-1.5c0-.7.55-1.25 1.23-1.25h4.54c.68 0 1.23.56 1.23 1.25V24h-1v-.5a.5.5 0 0 0-.5-.5h-4a.5.5 0 0 0-.5.5v.95c0 .27.23.55.5.55h4.27c.68 0 1.23.5 1.23 1.2v1.55c0 .7-.55 1.25-1.23 1.25h-4.54c-.68 0-1.23-.56-1.23-1.25v-1.18Z" fill="#000028"/><path d="m17.63 40-.89-6.5c3.5-.66 10.49-3.88 10.49-11.5 1.36 10.76-5.83 16.48-9.6 18Z" fill="url(#a3fymoafl)"/><path d="m38.13 40 .9-6.5c-3.5-.66-10.5-3.88-10.5-11.5-1.36 10.76 5.84 16.48 9.6 18Z" fill="url(#b3fymoafl)"/><path opacity=".5" fill="#000028" d="M4 30h48v2H4z"/><defs><linearGradient id="a3fymoafl" x1="27.4" y1="28.57" x2="17.86" y2="32.34" gradientUnits="userSpaceOnUse"><stop stop-color="#E39E00"/><stop offset="1" stop-color="#E39E00" stop-opacity="0"/></linearGradient><linearGradient id="b3fymoafl" x1="28.37" y1="28.57" x2="37.91" y2="32.34" gradientUnits="userSpaceOnUse"><stop stop-color="#C6B7CD"/><stop offset="1" stop-color="#C6B7CD" stop-opacity="0"/></linearGradient></defs></svg>