<!-- by TradingView --><svg xmlns="http://www.w3.org/2000/svg" width="56" height="56" viewBox="0 0 56 56"><path fill="#F0F3FA" d="M0 0h56v56H0z"/><path d="M9.6 29.4a3 3 0 0 1-1.08 1.17 3 3 0 0 1-1.55.43 2.77 2.77 0 0 1-2.1-.88A2.97 2.97 0 0 1 4 27.97c0-.85.3-1.56.88-2.13a2.83 2.83 0 0 1 2.1-.84c.57 0 1.09.15 1.56.44.45.29.8.68 1.05 1.16h-.65a2.26 2.26 0 0 0-2.01-1.04c-.65 0-1.2.23-1.66.7-.46.46-.7 1.02-.72 1.67-.01.68.22 1.27.7 1.77a2.3 2.3 0 0 0 2.86.43c.36-.2.64-.44.84-.74h.64ZM13.47 28.8c0-.43-.16-.8-.46-1.1-.3-.31-.65-.46-1.07-.46-.44 0-.8.15-1.11.46-.31.3-.47.68-.47 1.11-.01.43.13.81.43 1.13a1.49 1.49 0 0 0 2.22.04c.32-.33.47-.72.46-1.18Zm.53.04V31h-.53v-.75a2 2 0 0 1-3.06.08c-.4-.41-.6-.9-.6-1.48 0-.6.22-1.11.64-1.54.43-.43.94-.63 1.53-.6.57.01 1.06.23 1.46.65.4.42.58.91.56 1.48ZM23.47 28.8c0-.43-.16-.8-.46-1.1-.3-.31-.65-.46-1.07-.46-.44 0-.8.15-1.11.46-.31.3-.46.68-.47 1.11-.01.43.13.81.43 1.13a1.49 1.49 0 0 0 2.22.04c.32-.33.47-.72.46-1.18Zm.53.04V31h-.53v-.75a2 2 0 0 1-3.06.08c-.4-.41-.6-.9-.6-1.48 0-.6.22-1.11.65-1.54.42-.43.93-.63 1.52-.6.57.01 1.06.23 1.46.65.4.42.58.91.56 1.48ZM39.48 28.8c-.01-.43-.17-.8-.46-1.1-.3-.31-.66-.47-1.08-.47-.43 0-.8.16-1.11.46-.3.31-.46.68-.47 1.12 0 .43.13.8.43 1.13a1.49 1.49 0 0 0 2.22.04c.32-.33.47-.72.47-1.18Zm.52.04V31h-.52v-.75a2 2 0 0 1-3.07.08c-.4-.41-.6-.9-.6-1.48 0-.6.22-1.12.65-1.54.42-.43.93-.63 1.52-.6.58.01 1.06.23 1.47.65.4.42.57.91.55 1.48ZM18.53 28.82c-.01-.43-.17-.8-.47-1.11a1.5 1.5 0 0 0-1.12-.47c-.42 0-.78.16-1.07.46-.3.31-.45.68-.46 1.11-.02.46.13.85.46 1.19a1.5 1.5 0 0 0 2.23-.04c.29-.32.43-.7.43-1.14Zm.54.04c0 .58-.2 1.07-.6 1.49-.39.41-.87.63-1.44.65-.59.02-1.1-.19-1.54-.62a2 2 0 0 1-.63-1.53V25.5h.55v1.94a2 2 0 0 1 1.5-.73c.59-.02 1.1.18 1.52.61.43.43.64.95.64 1.54ZM25.54 25.5H25V31h.54v-5.5ZM30.07 28.54a1.55 1.55 0 0 0-1.55-1.3c-.39 0-.73.12-1.03.36-.3.24-.48.55-.55.94h3.13Zm.54.46h-3.67a1.56 1.56 0 0 0 1.6 1.45c.65 0 1.11-.3 1.39-.9h.58A2.1 2.1 0 0 1 28.53 31a2 2 0 0 1-1.49-.62 2.07 2.07 0 0 1-.66-1.5c-.01-.6.2-1.13.65-1.57.45-.45.98-.65 1.58-.62a2.1 2.1 0 0 1 1.42.68c.4.4.59.87.59 1.37V29h-.01ZM33 31c-1 0-1.55-.42-1.55-1.27V25.5H32v1.3h1v.51h-1v2.32c0 .61.37.92 1 .92V31ZM35.31 31c-1 0-1.55-.42-1.55-1.27V25.5h.55v1.3h1v.51h-1v2.32c0 .61.37.92 1 .92V31Z" fill="#801518"/><path d="M45.22 29.24c-.04-.72-.57-1.24-1.47-1.24H42.5v2.5h1.28c.72 0 1.49-.44 1.44-1.26Zm-1.46-3.73H42.5v2h1.29c.56 0 1.17-.32 1.17-.94 0-.65-.6-1.06-1.2-1.06Zm2 3.78c.02.48-.16.89-.54 1.22-.38.33-.81.49-1.32.49H42v-6h1.7c.47 0 .88.14 1.23.42.37.3.55.67.55 1.12 0 .54-.23.95-.68 1.25.61.29.93.8.96 1.5ZM47 27h-.54v4H47v-4ZM51.46 28.81c-.02-.43-.17-.8-.47-1.1-.3-.31-.65-.47-1.07-.47-.43 0-.8.15-1.11.46-.3.31-.46.68-.47 1.12 0 .43.13.81.43 1.14.29.32.65.5 1.07.5.45.03.83-.13 1.15-.47.32-.33.48-.72.47-1.18Zm.54.05c0 .59-.21 1.1-.64 1.52a2 2 0 0 1-1.53.62 2 2 0 0 1-1.44-.65c-.4-.41-.6-.9-.6-1.48 0-.6.22-1.11.64-1.54.43-.43.94-.63 1.53-.62.57.02 1.05.24 1.45.66.4.42.59.91.59 1.49ZM47.14 26.08a.4.4 0 0 1-.8 0 .4.4 0 0 1 .8 0Z" fill="#383C41"/></svg>