<!-- by TradingView --><svg width="56" height="56" viewBox="0 0 56 56" xmlns="http://www.w3.org/2000/svg"><path fill="#F0F3FA" d="M0 0h56v56H0z"/><path d="M15.19 27.73c.09-7.03 5.95-12.7 13.11-12.7 3.26 0 6.14 1.1 8.47 3.02a4.5 4.5 0 0 0 2.6.91H43a17.25 17.25 0 0 0-15.26-7.94A17.13 17.13 0 0 0 11 28.1c0 2.2.47 3.98 1.2 5.9h4.57c-1.03-2.01-1.68-3.9-1.58-6.27Z" fill="#0096D6"/><path d="M39 37c-.93 0-1.4.14-2.14.7a13.33 13.33 0 0 1-6.86 3V28h3.23c1.5 0 2.77-.97 2.77-2.53V25h-6.02A3.41 3.41 0 0 0 32 22c0-1.92-1.45-3.5-3.5-3.5S25 19.9 25 21.91c0 1.37.65 2.54 1.86 3.09H21v.47c0 1.56.98 2.53 2.47 2.53H27v12.8c-2.6-.28-5.2-1.37-7.16-2.93a3.9 3.9 0 0 0-2.6-.87H13.6c3.07 4.84 8.47 8 14.7 8 6.23 0 11.72-3.07 14.7-8h-4ZM28.5 20.37c.84 0 1.5.63 1.5 1.45s-.66 1.49-1.5 1.49-1.5-.67-1.5-1.49.66-1.45 1.5-1.45Z" fill="#005587"/></svg>