<!-- by TradingView --><svg width="56" height="56" viewBox="0 0 56 56" xmlns="http://www.w3.org/2000/svg"><path fill="#F0F3FA" d="M0 0h56v56H0z"/><path d="M17.67 23.73a35.3 35.3 0 0 0 3.3-5.23c.05-.1.03-.21-.06-.25-.06-.03-.12 0-.17.05a30.59 30.59 0 0 0-3.34 5.23.19.19 0 0 0 .02.22c.07.07.19.06.25-.02Zm-1.85-.56c.67-2.6.95-4.88 1.02-5.97 0-.1-.06-.2-.16-.2-.07 0-.11.05-.13.11a29.78 29.78 0 0 0-1.06 5.99c0 .08.03.15.1.19.1.04.2-.02.23-.12Zm-2.02.06c-.35-2.66-1-5.05-1.35-6.09-.03-.1-.12-.17-.22-.12-.05.02-.08.09-.08.15.15 2.04.91 4.84 1.32 6.13.03.07.09.13.17.13.1 0 .17-.1.16-.2Zm-1.61.58a35.08 35.08 0 0 0-3.56-5.05c-.07-.08-.18-.1-.25-.02-.05.04-.04.12-.02.17a30.63 30.63 0 0 0 3.55 5.1c.05.05.13.08.2.05.1-.04.13-.16.08-.25Zm-1.42 1.31a33.7 33.7 0 0 0-5.21-3.15c-.1-.05-.21-.02-.24.08-.02.06 0 .12.05.16a29.24 29.24 0 0 0 5.22 3.2c.07.03.15.02.2-.04a.17.17 0 0 0-.02-.25Zm-.63 1.72a32.4 32.4 0 0 0-5.94-1.11c-.1-.01-.2.05-.2.16 0 .06.05.12.1.14a28.3 28.3 0 0 0 5.97 1.14c.08 0 .15-.03.18-.1a.17.17 0 0 0-.1-.23ZM10 28.78a33.18 33.18 0 0 0-5.73 1.99c-.1.04-.15.15-.1.24.03.06.1.08.16.07a28.76 28.76 0 0 0 5.76-1.97c.07-.03.11-.1.1-.18 0-.1-.1-.17-.2-.15Zm.59 1.87a34 34 0 0 0-4.94 3.6c-.07.08-.1.2-.02.27.04.04.11.04.17.01a28.6 28.6 0 0 0 4.97-3.59.19.19 0 0 0 .06-.2.16.16 0 0 0-.24-.09Zm1.46 1.4a35.37 35.37 0 0 0-3.2 5.3c-.04.1-.02.22.07.26.06.02.13-.01.17-.06a30.64 30.64 0 0 0 3.23-5.3.19.19 0 0 0-.02-.22.17.17 0 0 0-.25.02Zm1.53.62a36.21 36.21 0 0 0-1.21 6.12c-.01.1.05.2.15.21.06 0 .11-.05.13-.1.69-1.92 1.11-4.8 1.25-6.15a.17.17 0 0 0-.1-.19.16.16 0 0 0-.22.1Zm2.42.25a36.2 36.2 0 0 0 1.7 5.95c.04.1.14.16.23.11.06-.03.08-.1.07-.16-.27-2-1.2-4.74-1.68-5.98-.03-.08-.1-.13-.17-.13-.1.01-.17.1-.15.2Zm1.53-12.61-.98 2.74c-.03.1.01.19.1.22.08.03.17 0 .2-.09l1.18-2.66a.28.28 0 0 0-.12-.36.27.27 0 0 0-.38.15Zm-3.39-1.28.16 4.04c0 .13.1.22.2.22.11-.01.2-.1.2-.22l.1-4.05c0-.19-.12-.35-.3-.37-.2-.02-.36.16-.36.38Zm-2.77 1.67 1.32 2.72c.04.09.14.12.22.08a.18.18 0 0 0 .08-.22l-1.14-2.81a.27.27 0 0 0-.33-.17.28.28 0 0 0-.15.4Zm-3.18 1.09 3.05 2.8c.07.07.17.06.23 0a.18.18 0 0 0 0-.24l-2.9-2.95a.27.27 0 0 0-.36-.04c-.13.1-.14.3-.02.43ZM5.8 28.52l4.04-.3c.1-.01.16-.1.16-.19a.17.17 0 0 0-.16-.16l-4.04.1a.26.26 0 0 0-.28.24c-.02.17.11.32.28.31Zm2.85 6.2 2.78-3.09a.18.18 0 0 0 0-.24.16.16 0 0 0-.22 0L8.28 34.3c-.1.1-.13.26-.04.38.1.14.29.15.4.03ZM15.4 37l-.34-4.12c0-.1-.08-.17-.17-.17a.17.17 0 0 0-.16.17l.13 4.12c0 .15.1.27.24.29.16.02.3-.12.3-.3ZM7.37 25.18l2.9 1.03c.09.03.18 0 .22-.1a.17.17 0 0 0-.09-.21l-2.8-1.23a.27.27 0 0 0-.36.1.28.28 0 0 0 .14.4Zm.27 6.47 2.76-1.4a.17.17 0 0 0 .08-.22.16.16 0 0 0-.2-.1l-2.83 1.2a.28.28 0 0 0-.18.34c.04.16.22.25.37.18ZM12 35.58l1.03-2.99c.03-.09 0-.19-.1-.22a.16.16 0 0 0-.2.08l-1.21 2.9c-.07.14-.02.3.1.37.14.09.32.02.39-.14Z" fill="#F09421"/><path d="m16.54 29.7.46.47a2.9 2.9 0 0 1-2.06.83A3.02 3.02 0 0 1 12 27.97 3.01 3.01 0 0 1 14.94 25c.74 0 1.47.26 2.05.82l-.45.48a2.27 2.27 0 0 0-1.6-.64 2.34 2.34 0 0 0 0 4.67c.58 0 1.16-.2 1.6-.64Zm4.47-4.7L24 31h-.9l-.58-1.15h-3.04L18.9 31H18l3.01-6Zm-1.2 4.2h2.39l-1.19-2.39-1.2 2.38Zm10.43-4.14H31V31l-4.25-4.25v4.19H26V25l4.24 4.25v-4.19ZM34 25h1.79c1.78 0 3.21 1.34 3.21 3s-1.43 3-3.21 3H34v-6Zm.71 5.33h1.08c1.37 0 2.5-1.04 2.5-2.33 0-1.3-1.13-2.33-2.5-2.33H34.7v4.66ZM46 25.67h-3.26v2h2.8v.66h-2.8v2H46V31h-4v-6h4v.67Zm2.72 4.66H52V31h-4v-6h.72v5.33Z" fill="#0C1C3E"/></svg>