<!-- by TradingView --><svg width="56" height="56" xmlns="http://www.w3.org/2000/svg"><path fill="#B6953E" d="M0 0h56v56H0z"/><path d="M16.783 19.197c.099-.148.321-.519 1.013-.444 0 .642.025 1.606-.025 2.125-.024.321-.296.297-.222.618.123.074.989.099 1.335.05 0 0 .32-.124 0-.42-.1-.15-.05-2.3-.05-2.324.173 0 .52-.025.52 0-.05.494.197.494.37.173.025-.124.568-.742.445-.964-.025-.025-.247 0-.247 0-.248.099-.272.148-.346.173-.445.025-1.038.025-2.225 0-.074-.173-.197-.099-.247-.099-1.013 1.236-.568 1.137-.321 1.112zm3.287 0c.025.248-.025 1.755-.025 1.854-.346.223-.173.445-.173.445.346 0 1.112.05 1.137 0 .025-.247-.05-.173-.123-.37-.124-.322-.1-.89-.075-.99.445-.864 1.014 1.854.05 2.373-.099.05-.297.297.173.198 1.829-1.013 1.186-3.905-.247-3.164 0-1.581.099-1.408-.89-.716-.148.271.148.247.173.37zm-4.968 10.48c-.296.099-.741.519-1.631.593-1.804.173-2.867-.346-3.955-1.508-.939-.988-1.161-2.62-1.186-3.262-.025-3.658 1.606-5.734 3.46-5.734 2.521-.074 3.782 2.373 4.227 3.065.593.074.865-.223.865-.223-.248-1.631-1.41-3.93-1.706-4.177a.506.506 0 00-.272 0c-.197.124-.815.692-.766.692-2.274-.42-5.19-.815-7.217 2.719-.593 1.038-.865 1.829-.914 3.114-.124 2.818 1.458 6.105 5.24 6.45 1.087.1 2.2.1 3.089-.32 1.409-.668 1.483-1.088 1.483-1.113-.668-.32-.668-.296-.717-.296zm8.379-8.181c.741-.124.914-.396.914-.396.173-.247-.024-.32-.148-.222-.816.569-1.137-.124-1.162-.198.1-.024.544-.173 1.285-.494-.024-.074-.148-.741-.79-.816-1.73-.197-1.879 2.225-.1 2.126zm-.322-1.755c.198-.025.346.099.396.396-.198.049-.346.148-.569.123-.099-.074-.024-.494.173-.519zm18.858 7.613c1.038.024 2.101.024 2.126-.025.173-.37.148-.593-.247-.643-.148-.024-.074-.247-.148-.346-.025-.024-.05-.346-.05-.692 0 .074.173-.321.42-.37.346.049.989 1.853 1.26 2.026.371.05 1.261.025 1.484-.025.272-.716-.297-.271-.865-1.458-.865-1.829-.915-1.705-.025-2.1.494-.223.395-.495.124-.544-2.423-.346-1.904.346-1.928.296.074.198.766.148-.272 1.038 0 0-.124.025-.124-.024-.024-.643-.024-3.906-.024-4.499-.1-.173-.495-.074-1.904.865.025.05 0 .272.05.297.074.05.494.148.519.395 0 3.263-.025 4.597 0 4.82-.272.37-.544.346-.569.519-.024.272.124.47.173.47zm-18.932-3.386c0 .346 0 .518.05.642.271.717 1.038.816 1.581.989.668.247 1.162.321 1.137.642-.024.1-.247.495-1.26.297-.42-.074-.618-.173-1.335-.742-.024 0-.321-.024-.296 0 .123.52.247.791.79 1.706.025 0 .297-.025.297-.025.42-.568.47-.247 1.335-.148 2.076.222 3.09-2.25.05-2.867-.643-.1-1.459-.569-.816-.816.716-.272 1.78.494 1.68.445.94.494.643-.025.272-.643-.643-1.062-.618-.296-1.038-.32-.321-.026-.321-.1-1.236-.124-.395.024-1.21.32-1.21.963zm11.345 3.41c1.557-.074 1.829-.865 1.952-1.137.05-.123-.173-.42-.346-.222-1.705 1.804-2.694-.074-2.669-.816 0-.692.247-1.68 1.038-1.606 0 0 .544-.223.94 1.137.42.494.617-.05.889-.865.124-.371-.643-.767-1.829-.816-1.236-.05-2.57 1.013-2.521 2.274.099 1.903 1.532 2.026 2.546 2.051zm-1.582 7.316c-1.705 1.804-2.694-.074-2.67-.816 0-.692.248-1.68 1.039-1.606 0 0 .543-.222.939 1.137.395.494.618-.05.89-.865.123-.37-.643-.766-1.83-.816-1.235-.05-2.57 1.014-2.52 2.274.099 1.903 1.532 2.027 2.545 2.051 1.557-.074 1.83-.865 1.953-1.136.074-.124-.148-.42-.346-.223zm-11.962-7.316c1.186-.074 1.977-.766 2.076-.988.099-.173-.075-.396-.297-.272-1.26.79-1.977.741-2.546-.371.247-.173 2.348-.84 2.57-1.013.15-.124-.32-.89-.642-1.187-.37-.321-.766-.519-1.582-.47-2.99.297-2.595 4.425.42 4.301zm-.544-3.682c.47-.075.89.47.89.914-.075.099-1.187.569-1.335.272-.173-.247-.173-1.038.445-1.186zm9.49 3.682c1.187-.074 1.953-.766 2.077-.988.099-.173-.074-.396-.297-.272-1.26.79-1.977.741-2.546-.371.248-.173 2.348-.84 2.57-1.013.15-.124-.32-.89-.642-1.187-.37-.321-.766-.519-1.581-.47-2.991.297-2.596 4.425.42 4.301zm-.543-3.682c.47-.075.89.47.865.914-.074.099-1.186.569-1.335.272-.148-.247-.148-1.038.47-1.186zm19.55 3.682c1.186-.074 1.953-.766 2.076-.988.099-.173-.074-.396-.297-.272-1.26.79-1.977.741-2.545-.371.247-.173 2.348-.84 2.57-1.013.148-.124-.321-.89-.642-1.187-.371-.321-.767-.519-1.582-.47-2.99.297-2.62 4.425.42 4.301zm-.544-3.682c.47-.075.89.47.89.914-.074.099-1.186.569-1.335.272-.173-.247-.173-1.038.445-1.186zm-30.647-.173c-.37-.322-.766-.52-1.582-.47-3.015.321-2.645 4.449.395 4.3 1.187-.074 1.978-.766 2.077-.988.098-.173-.075-.396-.297-.272-1.26.79-1.977.741-2.546-.37.247-.174 2.348-.841 2.57-1.014.174-.124-.296-.89-.617-1.186zm-2.175 1.384c-.149-.272-.149-1.063.47-1.187.469-.074.89.47.89.915-.1.099-1.212.543-1.36.272zm21.058 1.26c0 .643.197 1.162 1.73 1.236 1.458-.148 1.31-.643 1.804-.198 1.162.47 1.656-.074 1.656-.445 0-.296-.544-.05-.742-.272-.543-1.087-.519-3.51-2.397-3.386-.05 0-.643-.148-1.656.594 0 0-.346.593.198.519.05-.05 1.73-1.063 1.804.494-1.112.123-2.397.198-2.397 1.458zm1.878-.816c.445-.049.198-.024.692.025-.025 0 .742.89-.05 1.285-1.556.149-1.087-1.26-.642-1.31zm-14.41 7.984c.47.074.248-.42.075-1.162-.173-.766-.396-1.36-1.112-.717.024.025-.322.075-.322.075-.074.024-1.705.024-1.458-.05-.025 0-.123-.395-.123-1.137 0-.865.197-.94 1.804-1.112 2.002.05 3.534.099 4.424.519.123.05.766.05.914-.099.42-.395.569-1.508-.617-1.656-1.582-.42-3.98-.074-5.71.198.52-.074-1.755.494-4.078.296-1.335-.098-1.31-.42-1.31-.42-.544-.79-1.73-.148-1.483.915.074.37.89 1.063 2.966.642.37-.074.643-.098 1.26-.098 0 5.214.025 8.18 0 8.205.05-.025-1.334 2.224-.247 1.903.297-.074 2.175-1.409 2.497-1.631.321-.346-.346-.544-.346-1.038v-3.905c0-.297.148-.272.148-.272s1.31-.099 1.854.05c.37.098.939.518.865.494zm12.31 1.73c-1.014.667-1.014-.173-1.039-.173 0-.1-.099-1.335-.025-2.076 0 0 .05-.173.198-.223.124-.05.742-.025 1.063-.05.173-.345.148-.666.123-.666-.395-.05-1.038.024-1.359-.05-.05-.395-.05-.989-.05-1.458-.024 0-.271 0-.296-.025-1.112 1.162-1.409 1.508-1.68 1.78-.124.642.543.271.518.617.272 1.508-.939 3.189 1.36 3.288 1.78.024 1.952-1.26 1.186-.964zm14.21-2.793c.025-.099 0-.297.025-.395-1.804-.149-2.224.024-2.224.049.025.099 0 .198.025.296.024.075.42.272.42.297.222.52-.52 1.631-.692 1.879.148.222-.593-.668-.791-1.928.099-.075.321-.1.346-.223.099-.42-.198-.494-1.137-.445-.395.025-.865 0-1.137.124 0 .074 0 .272-.025.346.1.074.223.099.322.222.271.322 1.285 2.497 1.557 3.288-.025.024.025.098 0 .123-2.15 3.114-4.054 2.496-3.93 1.434.074-.173-.173-.52-.84-.297-.396.198-.52.593-.47.816.593 2.2 3.905 1.285 5.907-1.236.643-.791 1.73-2.323 2.25-3.905.098-.272.37-.42.395-.445zm-7.043 3.757c.024-.124.173.05.099-.371-.025-.173-.396-.223-.47-.42-.099-.272-.074-1.31 0-1.607-.05.272.321-1.063 1.162-.272a.62.62 0 01.098.173c.223.05.173.025.371-.098-.05-.643 1.112-1.656-.247-1.533-.741.074-.94.445-1.285.766h-.1c.026-1.112-.395-.741-.889-.445-.346.198-.593.322-.89.544.025.05 0 .198 0 .272.124.074.297.099.371.223.173.271.223 1.359.099 1.828-.05.248-.519.42-.593.594-.025.074.025.222 0 .296.717.149 1.409.05 2.274.05zm-4.77-4.251c-1.41.123-2.15.964-2.15 2.15 0 1.804 1.73 2.546 3.608 2.051 2.496-.79 1.236-4.448-1.458-4.201zm1.038 3.608c-1.582.766-2.398-2.818-1.385-3.065 1.335-.296 2.225 2.645 1.385 3.065zm-10.875-.099s-.247.05-.371-.024c-.198-.124-.297-.767-.42-1.063-.47-1.137-.396-2.472-2.101-2.447-.618-.025-1.607.519-1.68.79-.124.495.271.421.271.421.915-.692 1.533-.297 1.533-.321.37.519.271.84.271.815-2.372-.099-2.422 1.187-2.422 1.335-.024 1.087.816 1.31 1.582 1.31.47 0 1.063-.05 1.31-.247.396-.346.396.024.692.099 1.854.494 1.829-.816 1.335-.668zm-2.447.1c-1.187.271-1.31-1.187-.52-1.336 1.064-.247 1.212 1.162.52 1.335zM11.37 29.478c.025.074 0 .198.025.223.05.049.296-.025.37-.05.99-.494 2.274-1.582 2.2-3.806v-.223c.025-.914-.568-2.471-1.606-2.52-.322-.025-.668.098-1.088.37 0-1.013.025-1.582 0-2.57h-.222c-.495.296-1.038.618-1.483.964.024.098-.025.197 0 .32 0 .075.445.199.445.347 0 .074.024 3.09-.05 3.856-.05.37-.346.395-.47.543 0 0-.049.445.124.445h1.953c.148-.099.123-.148.123-.37-.05-.05-.296-.297-.346-.495-.123-.519-.148-1.532-.099-1.952.025-.198.223-.371.322-.445.05-.05.296 0 .321-.025.025-.025.297.346.346.445.272.568.47 1.656.445 2.2-.05 2.298-1.137 2.52-1.31 2.743z" fill="#FFF8EE"/></svg>