<!-- by TradingView --><svg width="56" height="56" viewBox="0 0 56 56" xmlns="http://www.w3.org/2000/svg"><path fill="#F0F3FA" d="M0 0h56v56H0z"/><circle cx="21" cy="16" r="3" fill="#472F8F"/><circle cx="21" cy="40" r="3" fill="#472F8F"/><circle cx="15" cy="28" r="3" fill="#472F8F"/><circle cx="41" cy="28" r="3" fill="#472F8F"/><circle cx="35" cy="16" r="3" fill="#472F8F"/><circle cx="35" cy="40" r="3" fill="#472F8F"/><circle cx="28" cy="28" r="3" fill="#472F8F"/><path d="M26.5 22.5a1.5 1.5 0 1 1-3 0 1.5 1.5 0 0 1 3 0ZM32.5 22.5a1.5 1.5 0 1 1-3 0 1.5 1.5 0 0 1 3 0ZM36 28a1.5 1.5 0 1 1-3 0 1.5 1.5 0 0 1 3 0ZM23 28a1.5 1.5 0 1 1-3 0 1.5 1.5 0 0 1 3 0ZM26.5 33.5a1.5 1.5 0 1 1-3 0 1.5 1.5 0 0 1 3 0ZM32.5 33.5a1.5 1.5 0 1 1-3 0 1.5 1.5 0 0 1 3 0Z" fill="#F35823"/></svg>