<!-- by TradingView --><svg width="56" height="56" viewBox="0 0 56 56" xmlns="http://www.w3.org/2000/svg"><path fill="#F0F3FA" d="M0 0h56v56H0z"/><path d="m51.72 26.4-.31.95c-.45-.36-1.04-.35-1.25-.35-.21 0-.96.06-.96.54 0 .47.78.86 1.17 1 .54.17 1.63.78 1.63 1.81 0 1.29-1.22 1.65-2.05 1.65-.67 0-1.58-.3-1.95-.46l.42-1c.31.2 1.04.46 1.46.46.52 0 .97-.32.97-.65s-.1-.62-1.11-1.12c-1.01-.5-1.74-.92-1.74-1.78S49.04 26 49.95 26c.72 0 1.48.26 1.77.4ZM15.47 32v-.53c-.16-.08-.47-.37-.47-.9v-2.4A2.11 2.11 0 0 0 12.72 26c-1.02 0-1.7.36-1.91.53l.36.84c.2-.18.8-.54 1.55-.54.94 0 1.28.54 1.28 1.27v.1a1.9 1.9 0 0 0-.98-.2c-.74 0-2.55.7-2.55 2.2 0 1.5 1.54 1.8 1.95 1.8.37 0 1.18-.18 1.66-.86.15.4.52.86 1.39.86ZM14 29.16v.97c-.35.59-1.05.87-1.42.87-.4 0-1.1 0-1.1-.77 0-.76 1.07-1.23 1.7-1.23.39 0 .68.09.82.16ZM46.47 32v-.53c-.16-.08-.47-.37-.47-.9v-2.4A2.11 2.11 0 0 0 43.72 26c-1.02 0-1.7.36-1.91.53l.36.84c.2-.18.8-.54 1.55-.54.94 0 1.28.54 1.28 1.27v.1a1.9 1.9 0 0 0-.98-.2c-.74 0-2.55.7-2.55 2.2 0 1.5 1.54 1.8 1.95 1.8.37 0 1.18-.18 1.66-.86.15.4.52.86 1.39.86ZM45 29.16v.97c-.35.59-1.05.87-1.42.87-.4 0-1.1 0-1.1-.77 0-.76 1.07-1.23 1.7-1.23.39 0 .68.09.82.16ZM17 30.22V23h1v6.82c0 .87.67 1.16 1 1.2V32c-1.57 0-1.99-1.19-2-1.78ZM20 30.22V23h1v6.82c0 .87.67 1.16 1 1.2V32c-1.57 0-1.99-1.19-2-1.78ZM25 27.65V32h-1v-3.98c0-.8-.67-.99-1-1.02v-1c1.57 0 1.99 1.1 2 1.65ZM35 27.65V32h-1v-3.98c0-.8-.67-.99-1-1.02v-1c1.57 0 1.99 1.1 2 1.65Z" fill="#3D89CA"/><circle cx="24.5" cy="24.5" r=".5" fill="#3D89CA"/><path d="m8.5 27.43.5-.8A3.43 3.43 0 0 0 7.09 26c-1.1 0-3.07.79-3.09 2.98v.04C4.02 31.22 6 32 7.09 32c.87 0 1.64-.42 1.91-.63l-.5-.8c-.2.14-.76.43-1.41.43C5.57 31 5 30 5 29c0-.87.57-2 2.09-2 .65 0 1.21.29 1.41.43Z" fill="#3D89CA"/><circle cx="34.5" cy="24.5" r=".5" fill="#3D89CA"/><path fill-rule="evenodd" d="M31 23h-1v3.72a1.63 1.63 0 0 0-1.4-.72c-1.25 0-2.6 1.32-2.6 3.08 0 1.75 1.09 2.92 2.4 2.92.82 0 1.34-.33 1.6-.6v.6h1v-9Zm-1 7.32v-2.58a1.46 1.46 0 0 0-1.24-.74c-.85 0-1.76.87-1.76 2.05 0 1.17.62 1.95 1.76 1.95.91 0 1.2-.45 1.24-.68Z" fill="#3D89CA"/><path d="M38 27v3.04c.03.35.25.96.92.96.5 0 .8-.17.88-.25l.2 1.07c-.17.06-.68.18-1.3.18-.79 0-1.7-.71-1.7-1.78V27h-1v-1h1v-1.57l1-.43v2h2v1h-2Z" fill="#3D89CA"/></svg>