<!-- by TradingView --><svg width="56" height="56" fill="none" xmlns="http://www.w3.org/2000/svg"><path fill="#F0F3FA" d="M0 0h56v56H0z"/><path fill-rule="evenodd" clip-rule="evenodd" d="M45 28c0 8.837-7.163 16-16 16-8.507 0-13.251-6.627-17.75-12.912C10.5 30.038 9.755 28.998 9 28c.754-.998 1.499-2.039 2.25-3.088C15.75 18.628 20.494 12 29 12c8.837 0 16 7.163 16 16zm-15 0c0-1.914-.424-3.828-1.304-5.552C26.354 25.291 25 28 25 28s1.354 2.709 3.696 5.552C29.576 31.828 30 29.914 30 28z" fill="url(#paint0_linear_3186)"/><path d="M44.203 23H28.96c-.083-.186-.17-.37-.264-.552-.152.185-.3.369-.444.552H12.628c4.12-5.646 8.726-11 16.372-11 7.09 0 13.104 4.612 15.203 11z" fill="url(#paint1_linear_3186)"/><path d="M28.696 22.447C26.414 25.247 25 28 25 28H9c.71-.938 1.419-1.92 2.136-2.913 2.323-3.22 4.657-6.578 7.603-9.087 5.568 1.193 8.553 3.86 9.957 6.447z" fill="url(#paint2_linear_3186)"/><path d="M28.696 33.553C26.414 30.753 25 28 25 28H9c.71.938 1.419 1.92 2.136 2.913 2.323 3.22 4.657 6.578 7.603 9.087 5.568-1.193 8.553-3.86 9.957-6.447z" fill="url(#paint3_linear_3186)"/><path d="M45 28c0-4.779-2.095-9.068-5.417-12-4.505 0-8.299 3.306-10.887 6.448C29.576 24.172 30 26.086 30 28c0 1.914-.424 3.828-1.304 5.552C31.284 36.694 35.078 40 39.583 40A15.961 15.961 0 0045 28z" fill="url(#paint4_linear_3186)"/><defs><linearGradient id="paint0_linear_3186" x1="28.895" y1="35.059" x2="26.966" y2="43.993" gradientUnits="userSpaceOnUse"><stop stop-color="#004065"/><stop offset="1" stop-color="#003154"/></linearGradient><linearGradient id="paint1_linear_3186" x1="27.947" y1="12" x2="28.34" y2="23.003" gradientUnits="userSpaceOnUse"><stop stop-color="#1F827A"/><stop offset="1" stop-color="#027290"/></linearGradient><linearGradient id="paint2_linear_3186" x1="28" y1="22" x2="13.5" y2="26.5" gradientUnits="userSpaceOnUse"><stop stop-color="#7CA580"/><stop offset="1" stop-color="#3C775C"/></linearGradient><linearGradient id="paint3_linear_3186" x1="28" y1="34" x2="13.5" y2="29.5" gradientUnits="userSpaceOnUse"><stop stop-color="#4DA582"/><stop offset="1" stop-color="#85BD7F"/></linearGradient><linearGradient id="paint4_linear_3186" x1="45" y1="28" x2="30.5" y2="28" gradientUnits="userSpaceOnUse"><stop stop-color="#003F65"/><stop offset="1" stop-color="#005981"/></linearGradient></defs></svg>