<!-- by TradingView --><svg xmlns="http://www.w3.org/2000/svg" width="56" height="56" viewBox="0 0 56 56"><path fill="#F0F3FA" d="M0 0h56v56H0z"/><path d="M7.67 22.7c.94 0 2.05.08 2.55.14h.1c.1 0 .25-.03.25-.23v-.16c-.02-.17-.16-.3-.33-.31h-.08c-.83-.1-1.66-.14-2.5-.14C6.3 22 4 22.6 4 26.55v1.9C4 32.42 6.3 33 7.67 33c.83 0 1.66-.05 2.5-.14h.05c.18 0 .32-.14.33-.3v-.17c0-.2-.12-.23-.25-.23h-.1c-.5.06-1.6.13-2.55.13-1.88 0-2.91-1.36-2.91-3.84v-1.92c.01-2.46 1.05-3.82 2.93-3.82ZM14.7 25a16 16 0 0 0-2.1.14c-.17.01-.39.07-.39.3v.1c0 .18.18.27.33.27l.29-.02c.62-.07 1.25-.1 1.88-.1 1.34 0 1.8.52 1.8 2.03v.46h-1.08c-2.59 0-3.7.67-3.7 2.27v.18c0 .72.22 2.37 2.32 2.37a5.3 5.3 0 0 0 2.46-.7v.36c0 .19.16.34.34.34h.07c.19 0 .34-.15.34-.34v-4.94c.02-1.28-.28-2.72-2.55-2.72Zm-2.22 5.44c0-1.2.74-1.6 2.95-1.6h1.08v2.77a5 5 0 0 1-2.48.72c-1.03 0-1.55-.58-1.55-1.7v-.2ZM19.69 22h-.14a.31.31 0 0 0-.32.31v10.36a.3.3 0 0 0 .3.33h.16c.17 0 .31-.14.31-.31V22.33a.3.3 0 0 0-.3-.33h-.01ZM33.86 32.55l-3.02-9.81a1 1 0 0 0-1-.74c-.48-.01-.9.3-1.02.75l-3.03 9.8c-.02.05-.02.11-.02.16-.01.13.1.27.24.29h.22c.12-.02.25-.1.28-.23l1.2-3.89h4.16l1.22 3.89c.04.12.16.21.29.23h.17c.14.01.27-.08.3-.22v-.04c.04-.08.04-.13.01-.19Zm-4.01-9.86c.14 0 .23.08.28.25l1.59 5.17h-3.77l1.6-5.2c.05-.13.11-.22.3-.22ZM41.96 25c-.81.03-1.63.2-2.36.56-.78-.73-1.95-.77-3.6.02v-.17c.02-.17-.13-.4-.3-.41h-.15c-.17 0-.31.22-.31.4v7.27c0 .2.1.33.28.33h.2c.16 0 .28-.14.28-.33v-6.4a5.37 5.37 0 0 1 2.06-.6c.9 0 1.33.56 1.33 1.72v5.28c0 .2.1.33.27.33h.22c.17 0 .28-.12.28-.33V27.4c0-.43-.06-.85-.2-1.25.6-.3 1.25-.45 1.93-.47 1.16 0 1.67.54 1.67 1.78v5.22a.3.3 0 0 0 .3.33h.16c.17 0 .31-.14.31-.31v-5.25c-.03-1.57-.88-2.44-2.37-2.44ZM49.01 25c-.84.02-1.7.11-2.52.28-.16.02-.29.14-.27.32V35.67a.3.3 0 0 0 .3.33h.16c.17 0 .32-.14.32-.31V33a11 11 0 0 0 2.01.2C51 33.2 52 32 52 29.62v-.97c.02-2.35-1.05-3.64-2.99-3.64Zm0 7.52c-.68 0-1.35-.07-2.01-.2v-6.47c.66-.11 1.35-.18 2.01-.2 1.54 0 2.23.92 2.23 2.97v.98c0 2.02-.69 2.92-2.23 2.92Z"/><path d="m26.07 19-4.53 17h.8l4.53-17h-.8Z" fill="#02ABCA"/></svg>