<!-- by TradingView --><svg xmlns="http://www.w3.org/2000/svg" width="56" height="56"><path fill="#F0F3FA" d="M0 0h56v56H0z"/><path d="M42 20.98c0 2.56-1.97 3.84-2.96 4.48-9.24-11.56-20.23-8.8-24.57-5.97.6-.8 5.54-7.9 14.68-7.47 9.14.43 12.85 6.4 12.85 8.96z" fill="#F0806B"/><path d="M42 35.02c0-2.56-1.97-3.84-2.96-4.48-9.24 11.56-20.23 8.8-24.57 5.97.6.8 5.54 7.9 14.68 7.47C38.3 43.55 42 37.58 42 35.02z" fill="#DFE719"/><path d="M25.57 19.56C21.73 20.83 19 24.13 19 28c0 3.87 2.73 7.17 6.57 8.44-1.1.36-2.27.56-3.5.56C16.5 37 12 32.97 12 28s4.5-9 10.07-9c1.23 0 2.4.2 3.5.56z" fill="#557D4B"/></svg>