<!-- by TradingView --><svg width="56" height="56" viewBox="0 0 56 56" xmlns="http://www.w3.org/2000/svg"><path fill="#8A1E41" d="M0 0h56v56H0z"/><path d="M27.56 37.44c1.25 0 2.6-.48 3.68-.94l.58 1.5h9.93c-.25.34-.51.68-.79 1h-8.75l1.17 3h4.27A17 17 0 0 1 36 43h-2.24l.23.58A14.99 14.99 0 0 1 27.56 45C18.41 45 11 37.39 11 28s7.41-17 16.56-17c2.12 0 3.66.2 5.52.94L32.67 13H36a17 17 0 0 1 1.64 1h-5.37l-1.56 4h11.03c.24.32.46.66.67 1H30.33l-.01.03-.08-.03h-5.48a9.26 9.26 0 0 0-5 4h24.5c.1.33.19.66.27 1h-25.3a9.62 9.62 0 0 0-.87 4H45c0 .34-.01.67-.03 1H18.41a9.55 9.55 0 0 0 1.34 4h24.5c-.1.34-.22.67-.34 1H20.45a9.1 9.1 0 0 0 7.11 3.44Z" fill="#fff"/></svg>