<!-- by TradingView --><svg width="56" height="56" xmlns="http://www.w3.org/2000/svg"><path fill="#F0F3FA" d="M0 0h56v56H0z"/><path d="M10 28.996C10 30.318 8.67 31 7.66 31 6.21 31 5 29.618 5 28.001 5 26.385 6.219 25 7.66 25c1.046 0 2.34.83 2.34 2h1c0-2.006-1.74-3-3.34-3C5.636 24 4 25.813 4 28.001 4 30.191 5.637 32 7.66 32 9.242 32 11 30.966 11 28.996h-1zM14.289 31c-.949 0-1.773-.911-1.773-1.983 0-1.09.824-2.017 1.773-2.017.948 0 1.744.965 1.744 2.027C16.024 30.079 15.228 31 14.29 31zM16 26.902c-.215-.27-.425-.489-.731-.64a2.297 2.297 0 00-.98-.262c-1.548 0-2.765 1.336-2.765 3.017 0 1.672 1.217 2.983 2.765 2.983a2.26 2.26 0 00.981-.24c.306-.152.516-.373.73-.646V32h1.002v-6H16v.902zM20.498 26a2.009 2.009 0 00-.8.184 2.037 2.037 0 00-.677.469V26H18v6h1v-3.602c0-.794.605-1.396 1.374-1.396.653 0 1.096.33 1.203.994h.95C22.384 26.74 21.679 26 20.497 26z" fill="#EF3742"/><path d="M7 27h1v2H7v-2zM8.906 28a.5.5 0 100-1 .5.5 0 000 1zM6.094 28a.5.5 0 100-1 .5.5 0 000 1z" fill="#EF3742"/><path d="M44.522 31.996c-1.314 0-2.522-.984-2.522-2.34V26h1v3.656c0 .843.715 1.344 1.522 1.344.8 0 1.478-.5 1.478-1.344v-3.655h1v3.655c0 1.356-1.165 2.34-2.478 2.34zm-10.962 0c-1.313 0-2.56-.985-2.56-2.34V26h1v3.656c0 .843.754 1.344 1.56 1.344.801 0 1.44-.501 1.44-1.344V26h1v3.656c0 1.356-1.126 2.34-2.44 2.34zm16.212-3.744c-1.091-.176-1.288-.323-1.288-.628 0-.388.5-.693 1.136-.693.662 0 1.37.514 1.38 1.069h1c0-1.226-1.092-2.075-2.371-2.075-1.503 0-2.183.895-2.183 1.727 0 1.099.823 1.44 2.156 1.634 1.289.176 1.398.382 1.398.714 0 .406-.47 1-1.301 1-.76 0-1.32-.4-1.32-1H47.33c0 1.193 1.017 1.995 2.368 1.995 1.36 0 2.301-.868 2.301-1.995.009-1.293-.958-1.545-2.228-1.748zM26 28v1h2.783a2.66 2.66 0 00.17-.535c.03-.146.04-.316.047-.465h-3z" fill="#2DB1E3"/><path d="M29 29c0 1.2-.859 2-2.264 2C25.27 31 24 29.598 24 28c0-1.607 1.27-3 2.736-3 .994 0 2.264.794 2.264 2.001h1C30 25 28.267 24 26.737 24 24.687 24 23 25.802 23 28s1.688 4 3.737 4C28.292 32 30 31.015 30 29h-1zm10.26-3c-.618-.007-.872.247-1.26.654V26h-1v6.004h1v-3.6c0-.795.373-1.404 1.143-1.404.653 0 1.184.335 1.291 1l1.038-.002C41.329 26.742 40.44 26 39.259 26z" fill="#2DB1E3"/><path d="M26.5 27.487a.5.5 0 100-1 .5.5 0 000 1zM28 27.487a.5.5 0 100-1 .5.5 0 000 1z" fill="#2DB1E3"/></svg>