<!-- by TradingView --><svg xmlns="http://www.w3.org/2000/svg" width="56" height="56"><path fill="#241C71" d="M0 0h56v56H0z"/><path d="M35.33 18.74a6.8 6.8 0 01.98-4.05c-1.52-1.09-3.06-1.48-4.24-.6-2.01 1.52-.91 5.05 1.05 6.88 1.39 1.3 2.9 1.92 4.16 1.69-1.09-.61-1.8-2.05-1.95-3.92z" fill="#79CEDE"/><path d="M44.33 16.63a2.85 2.85 0 00-2.54-.65c.14.62.22 1.24.25 1.87.14 3.18-.86 4.48-2.2 4.94 1.1.37 2.38.08 3.87-1.72 1.3-1.58 1.8-3.34.62-4.44zm-6.67-.78c.51.5.97 1.06 1.36 1.66a5.15 5.15 0 012.77-1.53c-.4-1.68-1.28-2.88-2.67-2.97-1.17-.08-2.14.63-2.81 1.67.48.35.93.75 1.35 1.17z" fill="#A66BF9"/><path d="M38.57 22.04c-.36.32-.8.54-1.28.62.45.26.97.37 1.49.33.36-.02.71-.09 1.06-.2a3.89 3.89 0 01-1.27-.75z" fill="#A66BF9"/><path d="M38.75 17.84l.27-.33a10.95 10.95 0 00-2.71-2.82 6.8 6.8 0 00-.98 4.05c.16 1.87.86 3.3 1.96 3.92.48-.08.92-.3 1.28-.62-1.12-1.02-.98-2.66.18-4.2z" fill="#1D54CE"/><path d="M42.04 17.85a9.92 9.92 0 00-.25-1.87 5.15 5.15 0 00-2.77 1.53c1.27 1.98.74 3.37-.3 4.41l-.14.12.23.19c.31.24.66.43 1.04.56 1.33-.46 2.33-1.76 2.19-4.94z" fill="#5E40DD"/><path d="M38.57 22.04l.14-.12c1.05-1.04 1.58-2.43.3-4.4-.1.1-.19.2-.27.32-1.15 1.54-1.3 3.18-.17 4.2z" fill="#1825C6"/><path d="M41 30.01v-.1c.02-1.87-.83-3.84-2.68-4.57a5.39 5.39 0 00-3.85.03c-1.89.74-2.99 2.66-2.97 4.65A4.91 4.91 0 0036.51 35c1.6.02 3.15-.67 4.1-1.97l-1.33-1.06a3.29 3.29 0 01-2.76 1.44 3.02 3.02 0 01-3.02-2.87h7.48c.02-.18.02-.35.02-.53zm-4.57-3.53A2.5 2.5 0 0139 29h-5.5c0-1.42 1.43-2.53 2.93-2.52zM44 25v1.87c.22-1.17 1.52-1.87 2.68-1.87 1.5-.04 2.75 1.01 3.12 2.42.14.5.2 1.02.2 1.55V35h-2v-5.4c0-1.29-.18-3.03-1.82-2.97-1.66-.06-2.25 1.79-2.18 3.2V35h-2V25h2zm-20.5 4.92v.1c0 .17 0 .35-.02.52H16a3.02 3.02 0 003.02 2.88c1.1.02 2.14-.54 2.76-1.44l1.33 1.06A4.97 4.97 0 0119 35a4.91 4.91 0 01-5-4.98 4.88 4.88 0 012.96-4.65 5.39 5.39 0 013.85-.02c1.85.72 2.7 2.69 2.68 4.57zM21.51 29a2.5 2.5 0 00-2.58-2.52c-1.5 0-2.93 1.1-2.93 2.52h5.51zm-9.25-1.33a2.6 2.6 0 00-2.2-1.19c-.75 0-1.6.42-1.57 1.34.02.76 1.3 1.1 2.01 1.24 1.53.35 3.18 1.06 3.13 2.89.08 2.1-1.98 3.06-3.79 3.05A4.9 4.9 0 016 33.31l1.35-1.14a3.11 3.11 0 002.53 1.32c.83 0 1.85-.3 1.8-1.32.02-1.02-1.43-1.31-2.25-1.47l-.08-.02c-1.33-.32-2.9-1.2-2.85-2.77-.03-1.37 1.01-2.41 2.28-2.74 1.1-.29 2.25-.2 3.3.24.6.23 1.11.63 1.48 1.16l-1.3 1.1zm15.3-1.2a2.6 2.6 0 012.2 1.2l1.3-1.1a3.27 3.27 0 00-1.48-1.17 5.12 5.12 0 00-3.3-.23C25 25.5 23.97 26.53 24 27.9c-.04 1.57 1.52 2.45 2.85 2.78l.08.01c.82.17 2.27.46 2.25 1.48.05 1.02-.97 1.32-1.8 1.32-1 0-1.96-.5-2.53-1.32L23.5 33.3a4.9 4.9 0 003.84 1.7c1.81 0 3.87-.94 3.79-3.05.05-1.83-1.6-2.54-3.13-2.89-.71-.14-1.99-.48-2.01-1.24-.04-.92.82-1.34 1.56-1.34z" fill="#fff"/></svg>