<!-- by TradingView --><svg xmlns="http://www.w3.org/2000/svg" width="56" height="56" viewBox="0 0 56 56"><path fill="#F0F3FA" d="M0 0h56v56H0z"/><path d="M50.77 31.18c.15-.35.23-.74.23-1.12v-6.12A2.95 2.95 0 0 0 48.05 21h-6.1A2.94 2.94 0 0 0 39 23.94v6.12A2.94 2.94 0 0 0 41.94 33h6.11a2.94 2.94 0 0 0 2.72-1.82zm-6.56-6.74a4.45 4.45 0 0 1 4.03-1.92 4.46 4.46 0 0 1-.35 4.42 4.45 4.45 0 0 0-3.68-2.5zm-.35 4.43a4.45 4.45 0 0 1-3.67-2.5l.02-.01a4.45 4.45 0 0 1 4-1.92 4.46 4.46 0 0 0-.35 4.43zm0 0a4.46 4.46 0 0 0 4.02-1.9l.01-.03a4.46 4.46 0 0 1-.33 4.48 4.43 4.43 0 0 1-3.7-2.55zM5 33l1.09-12h2.98l1.52 5.9c.17.6.3 1.23.4 1.85.1-.6.24-1.21.42-1.91L12.98 21h2.98L17 33h-2.29l-.43-6.51-.06-.92-.26.01-.2.75L11.92 33H9.93L8.28 26.6l-.25-1h-.25l-.06 1.03-.4 6.38H5zm18.8-2h-1.9c-1.4 0-1.97-.74-2.2-2h5v-.33c0-2.52-.56-4.67-3.5-4.67-2.42 0-3.5 2.46-3.5 4.57 0 2.69 1.58 4.43 4.01 4.43h.94l1.16-2zm-4.1-3.49c0-.86.48-1.84 1.5-1.84 1.18 0 1.5.8 1.5 1.84h-3zM33.62 26c1.16 0 1.39 0 1.39 1.44a6.95 6.95 0 0 0-.59-.02c-2.7 0-4.07.93-4.07 2.92 0 1.7 1.03 2.66 2.91 2.66.7 0 1.34-.2 1.75-.5v.5h2v-6c0-.89 0-1.3-.07-1.52-.33-.95-1.23-1.48-2.66-1.48h-1.52l-1.16 2h2.02zM35 29v1.67c-.33.37-.9.63-1.32.63-.56 0-1.18-.37-1.18-1.03 0-1.26 1.49-1.27 2.49-1.28H35zm-9 1c0 2.25 1.03 3 2.17 3H29v-2h-.24c-.6 0-.75 0-.76-1.52V26h1.9l1.18-2H28v-2l-2 .61V24h-1v2h1v4z" fill="#004990"/></svg>