<!-- by TradingView --><svg width="56" height="56" viewBox="0 0 56 56" xmlns="http://www.w3.org/2000/svg"><path fill="#2F58A8" d="M0 0h56v56H0z"/><path d="M21.5 33.43a28.95 28.95 0 0 0 22.2-4.4c.36-.27.3-.6.3-.6l-.01-3.53c0-.26-.13-.24-.23-.05-.33.6-1.23 1.13-2.23 1.42-.9.26-1.67.37-2.26.46-.27.05-.37-.05-.42-.22a9.8 9.8 0 0 1-.2-.8c-.07-.32.14-.3.28-.25.67.18.99.17 1.5-.06.96-.42.94-1.32.19-1.72-.5-.27-1.12-.46-1.68-.7-.36-.15-.68-.25-1.21-.53a2.35 2.35 0 0 1-1.08-.91c-.4-.77.03-1.56.7-2.02a8.62 8.62 0 0 1 3.36-1.38c.17-.02.3.02.39.18.14.25.2.43.25.69.03.17-.17.17-.41.13-.57-.11-1.34.3-1.66.51-.26.17-.57.44-.42.83.07.19.32.28.57.32 1.74.32 3.58.5 4.38 1.87.06.1.17.11.17-.02V21.4c0-1.08-.16-2.41-1.3-3.9a7.07 7.07 0 0 0-5.1-2.5H18.37a7.1 7.1 0 0 0-5.08 2.55 5.88 5.88 0 0 0-1.28 3.9v7.65c0 .23.01.23.27.4 1.25.9 2.94 1.76 4.82 2.59.2.09.33-.11.09-.22-.15-.06-.51-.34-.7-.56-.61-.72-.76-.82-1.3-1.93-1.93-3.94.97-6.83 2.85-7.78 1.38-.7 2.74-.9 4.25-.9.29 0 .44.04.58.25.25.36.6 1.05.59 1.65 0 .24-.25.26-.41.07-.16-.2-.46-.4-.7-.47-1.32-.31-2.3-.28-3.35.49-1.3.95-1.48 2.57-1.17 3.98.45 2 1.48 3.14 2.56 4.08.5.43 1.47.8 2.25.77.63-.04 1.26-.4 1.6-.78.17-.18.22-.28.25-.5-.3-.45-.4-.97-.31-1.6.09-.75.45-1.13.95-1.7a9.78 9.78 0 0 1 1.55-1.39c.27-.14.55.27.45.5-.23.53-.86 1.28-.82 2.2.01.51.2.9.49 1.22.32.35 1.1.51 1.66.18.62-.37.79-.9.47-1.74-.45-1.2-.73-1.84-1.2-3.06-.13-.34-.34-.75-.64-.8-.63-.1-1.2-.02-1.8.48-.16.13-.44.55-.6.43-.28-.22-.38-.79-.22-.92.5-.41 1.5-.82 2.3-1.06 1.13-.34 2.67-.4 3.18.84.39.95.43 1.2.61 1.7.43 1.15.7 2.24 1.77 2.52.72.18 1.74-.16 2.45-.6.9-.55.79-1.37.03-1.77-.5-.27-1.12-.46-1.68-.7-.36-.14-.68-.24-1.2-.52a2.34 2.34 0 0 1-1.08-.92c-.4-.76.03-1.56.7-2.01a8.61 8.61 0 0 1 3.36-1.39c.16-.02.29.02.38.19.14.24.2.41.25.67.04.13-.16.19-.4.14-.49-.1-1.35.33-1.67.51-.26.16-.57.45-.42.83.08.19.32.28.58.33 1.74.31 3.5.37 4.42 1.83.34.53.56 1.36.09 2.1-.56.89-1.38 1.32-2.56 1.7-1.16.36-2.05.62-2.78.95-1.29.6-1.89.59-2.5.28-.34-.18-.47-.26-.58-.04-.35.67-.61 1.1-1.3 1.42-.9.42-1.74.5-2.5.25-.4-.13-.5.22-.73.45-.67.66-.98 1-1.8 1.24-.68.2-1.22.26-1.84.26-.26 0-.25.15-.04.2Zm22.5-.16v-.03 1.31a5.9 5.9 0 0 1-1.3 3.9 7.07 7.07 0 0 1-5.07 2.52L18.4 41a7.06 7.06 0 0 1-5.08-2.5A5.95 5.95 0 0 1 12 34.6v-2.53c0-.18.08-.25.3-.12a30.53 30.53 0 0 0 10.34 4.23c4.38.84 8.9.93 13.67-.25 3.46-.86 5.6-1.84 7.4-2.77.21-.11.29-.07.29.11Z" fill="#fff"/></svg>