<!-- by TradingView --><svg width="56" height="56" viewBox="0 0 56 56" xmlns="http://www.w3.org/2000/svg"><path fill="#9D2136" d="M0 0h56v56H0z"/><path d="M4 24.4c0-.7.24-1.7.93-2.44.6-.65 1.44-.96 2.54-.96.2 0 .71.01 1.2.1a9.36 9.36 0 0 0 .87.14c.08 0 .1.05.1.12v.1a3.66 3.66 0 0 0-.04.66v.33c-.02.14-.02.26-.02.31-.01.12-.02.21-.1.21s-.08-.11-.08-.2c0-.35-.14-.7-.35-.89-.27-.25-.88-.5-1.6-.5-1.28 0-1.74.49-1.9.65-.64.67-.73 1.54-.73 2.3 0 .82.3 1.65.82 2.24a2.8 2.8 0 0 0 2.14.97c.52 0 1.08-.05 1.42-.43.16-.2.27-.58.3-.74 0-.1.02-.16.1-.16.04 0 .06.05.06.16 0 .07-.1.84-.18 1.14-.06.19-.07.2-.23.28-.36.16-1 .21-1.5.21-1.19 0-2.06-.3-2.74-.96C4.34 26.4 4 25.5 4 24.4Zm44.41-2.25c0-.1.1-.15.16-.15h3.2c.03 0 .06.01.06.08 0 .01 0 .06-.02.1v.04c-.02.06-.04.16-.05.27l-.02.12-.02.35c0 .13-.04.16-.08.16-.03 0-.08-.01-.08-.12a.91.91 0 0 0-.07-.28c-.04-.17-.1-.23-.56-.26l-.88-.01h-.15s-.02 0-.02.05v2.1c0 .07.01.07.02.07.11 0 1.03 0 1.22-.02.2 0 .33-.03.4-.12.04-.06.08-.09.12-.09.01 0 .05.02.05.09l-.01.12-.02.1c-.01.08-.03.16-.03.26l-.01.12-.02.3-.01.14c0 .05-.02.12-.09.12-.07 0-.07-.11-.07-.15l-.03-.22v-.01c-.04-.1-.08-.22-.41-.24a16.1 16.1 0 0 0-1.09-.04c-.03 0-.03.01-.03.04V26.96c0 .32.05.48.24.56.11.06.31.09.65.09h.05c.16 0 .41 0 .62-.06.25-.08.31-.24.38-.58.02-.06.04-.15.1-.15.09 0 .09.11.09.17l-.1.8c-.03.2-.1.21-.4.21h-2.84c-.04 0-.14-.03-.14-.11 0-.04.05-.08.1-.08.06 0 .13-.01.18-.03.13-.04.19-.1.2-.7v-4.45c-.01-.21-.02-.32-.25-.37l-.1-.01h-.12c-.07 0-.13-.05-.12-.1Zm-5.12.31a3.09 3.09 0 0 0-.34 4.73c.8.73 1.78.81 2.44.81.45 0 1.1-.1 1.53-.35.08-.05.08-.07.08-.28V25.6c.01-.26.1-.4.3-.43l.12-.01c.1 0 .13-.06.13-.09 0-.07-.1-.07-.14-.07h-.31l-.31.01h-.52l-.45-.01c-.08 0-.15.01-.15.07 0 .04.05.09.12.09h.2c.27.05.3.14.3.74v1.3c0 .13-.07.2-.13.25a2.46 2.46 0 0 1-2.64-.68c-.2-.21-.74-1-.74-2.05 0-.85.24-1.54.69-1.9a2.1 2.1 0 0 1 1.5-.46c.9 0 1.5.3 1.7.6.1.2.14.46.15.55v.02c.02.05.03.11.08.11.08 0 .1-.06.1-.18 0-.57 0-.88.03-1.03l.01-.14c0-.04 0-.09-.08-.09-.17-.01-.5-.05-.63-.08l-.06-.01h-.01c-.28-.06-.62-.12-1.12-.12-.47 0-1.2.05-1.85.46Zm-2.65.43c.33.35.71 1 .71 1.99 0 1.18-.56 1.94-.8 2.2a2.8 2.8 0 0 1-2.21.92h-2.38c-.04 0-.13-.05-.13-.14 0-.04.03-.08.1-.08a.7.7 0 0 0 .14-.02h.05c.1-.03.16-.16.2-.41.03-.3.03-.84.03-1.44v-1.63l-.01-1.68c-.01-.23-.07-.35-.3-.4l-.1-.01-.14-.01c-.06 0-.11-.04-.11-.08 0-.07.05-.1.15-.1h1.98c.75-.01 2-.03 2.82.89ZM37 25.07v1.43c0 .25 0 .66.15.86.13.23.54.34 1.2.34.69 0 1.29-.24 1.7-.71.33-.38.53-1.03.53-1.81 0-1.05-.44-1.68-.7-1.96-.72-.81-1.57-.88-2.32-.88-.12 0-.36.03-.4.06l-.05.02c-.06.03-.11.06-.11.11v2.54ZM32.51 28h2.07c.12 0 .13-.06.13-.08 0-.07-.04-.08-.11-.08l-.31-.04c-.2-.06-.23-.14-.27-.41a8.84 8.84 0 0 1-.02-.97V22.6c0-.27.04-.38.25-.42l.04-.01h.04c.02 0 .05 0 .07-.02h.01c.05-.02.1-.03.1-.08 0-.08-.08-.07-.13-.07h-1.52c-.07 0-.14 0-.14.07s.07.08.11.08l.06.01a.3.3 0 0 1 .06 0l.06.02c.15.02.21.13.23.4V25.67c0 .7 0 1.34-.03 1.67-.02.23-.05.39-.17.42a.64.64 0 0 1-.16.03l-.13-.01h-.08c-.18-.04-.22-.09-.4-.31l-.22-.26c-.35-.4-.74-.93-1.22-1.59l-.29-.38a2.4 2.4 0 0 0 .87-1.75c0-.67-.38-1.05-.5-1.14-.4-.32-.92-.36-1.37-.36h-1.75c-.1 0-.12.05-.12.08s.01.09.11.09h.2c.24.06.3.19.32.43V25.95c0 .6 0 1.25-.03 1.53-.02.22-.07.3-.2.33-.05.02-.12.02-.17.02-.06 0-.12.02-.12.08 0 .08.06.1.14.1h1.63c.1 0 .13-.12.13-.16 0-.03-.02-.03-.07-.03h-.16l-.14-.01c-.25-.04-.28-.2-.3-.42l-.01-.35v-1.58h.01l.82.02c.03 0 .04 0 .07.03h.01l.25.35.55.79.1.14.07.1.04.06c.33.46.54.77.84.91.18.08.36.14.75.14Zm-3.47-5.57c.1-.02.29-.04.49-.04.73-.01 1.17.56 1.17 1.52 0 .54-.15.96-.4 1.14a.87.87 0 0 1-.54.14c-.29 0-.63-.05-.73-.13-.02 0-.03-.04-.03-.09V22.5c0-.04.02-.06.04-.06Zm-5.68-.35c0-.02.03-.08.15-.08h1.66c.55 0 .97.15 1.22.44.26.29.29.63.29.75 0 .71-.38 1.14-.68 1.41.3.11.59.3.81.55.28.32.43.7.43 1.11 0 .84-.6 1.74-1.9 1.74h-1.72c-.1 0-.13-.07-.13-.11 0-.07.05-.1.13-.1h.15c.11-.04.17-.16.2-.43.03-.35.03-.96.03-1.69V22.6c-.01-.23-.07-.35-.32-.4a2.13 2.13 0 0 1-.2-.02c-.12 0-.13-.07-.12-.1Zm1.35 2.78h-.02v.39l.01 1.67v.1c.03.33.03.42.25.53.2.12.54.12.6.12.44 0 .95-.26.95-1.01 0-.25-.05-1.1-.7-1.6a.94.94 0 0 0-.55-.2l-.28-.01-.26.01Zm1.3-1.22c0-.61-.24-1.32-.93-1.32-.06 0-.23.01-.3.04-.09.01-.09.02-.09.05v2.06c0 .04 0 .05.02.06.05.02.15.03.4.03.41 0 .55-.03.7-.22.13-.18.2-.44.2-.7Zm-4.78.07.36 3.79c0 .12-.03.22-.05.23-.05.02-.09.07-.09.1 0 .07.07.14.27.17h1.31c.04 0 .15 0 .15-.1 0-.05-.06-.08-.12-.08h-.07c-.1-.01-.24-.03-.35-.06-.3-.08-.36-.54-.38-.77l-.53-4.73v-.02c-.01-.12-.03-.24-.1-.24s-.1.08-.14.16l-2.09 4.65-2.2-4.65c-.06-.12-.1-.16-.15-.16-.06 0-.1.08-.11.24l-.55 4.98c-.05.4-.13.56-.3.58a.7.7 0 0 1-.1.02h-.06c-.08 0-.13.04-.13.08 0 .1.08.1.15.1h1.32c.07 0 .16 0 .16-.1 0 0-.01-.06-.1-.08h-.07l-.07-.01-.1-.01c-.16-.04-.18-.2-.18-.24 0-.14 0-.22.02-.34l.29-3.4.85 1.88.04.1c.03.03.23.45.4.85l.18.36c.12.26.22.49.27.57l.06.1c.12.24.16.3.21.3.07 0 .11-.06.22-.32l1.78-3.95Zm-5.6 4.2c0 .07-.08.09-.15.09h-1.25c-.16 0-.24-.03-.24-.1 0-.02.03-.06.08-.08 0 0 .06-.02 0-.16l-.64-1.85c-.01-.02-.02-.03-.05-.03h-1.5c-.03 0-.04 0-.07.06l-.37 1.13c-.08.27-.13.5-.13.64 0 .15.07.21.25.21h.06c.1 0 .12.06.12.08 0 .06-.09.1-.15.1h-1.45c-.05 0-.16 0-.16-.08 0-.04.04-.08.13-.08.03 0 .1 0 .16-.02.35-.02.49-.32.62-.7l1.66-4.8c.1-.26.12-.32.2-.32.04 0 .08.05.18.3l.1.27.3.86.18.48c.37 1.05.84 2.37 1.1 3.02.28.73.53.85.61.9.1.03.22.03.27.03.08 0 .11.03.13.05Zm-2.35-2.52-.65-2.01a.15.15 0 0 0-.02-.07.15.15 0 0 0-.03.07l-.63 2.01v.03h1.33v-.03ZM40.42 31c0 .03 0 .14.08.14 0 .01.06-.02.06-.13v-.63l.01-.31c0-.06-.02-.12-.07-.12l-.09.02h-.03l-.04.01c-.1.02-.27.02-.46.02h-2.84l-.53-.02a.95.95 0 0 1-.23-.07.45.45 0 0 1-.08-.02.17.17 0 0 0-.06-.02c-.03 0-.07.06-.1.17v.08l-.03.1c-.08.43-.13.7-.12.74 0 .07.02.1.06.1.04 0 .07-.02.1-.07v-.03l.12-.26c.1-.2.22-.28.75-.3H38v3.29c0 .7-.07 1.36-.1 1.69-.04.33-.07.41-.2.44l-.18.01c-.08 0-.11.04-.11.09 0 .08.07.08.14.08l.62-.03h.2c.16.01.53.03.86.03.07 0 .14-.02.14-.1 0-.04-.04-.08-.13-.08-.06 0-.22-.01-.31-.04-.2-.06-.21-.17-.24-.39-.02-.29-.03-.84-.03-1.72v-3.25h.79c.83.02.92.1.96.46l.01.12ZM4 32h10v.14H4V32Zm38 0h10v.13H42V32Zm-21.04-2.24.01-.73c.01-.07.01-.14-.05-.14l-.07.02a3.09 3.09 0 0 1-.75.1H17l-.65-.07a.77.77 0 0 1-.26-.08h-.02l-.03-.02a.16.16 0 0 0-.06-.01c-.05 0-.07.08-.1.18l-.03.15c-.05.25-.15.75-.15.83 0 .1.05.11.06.11.05 0 .07-.02.1-.1l.13-.3c.13-.2.31-.27.82-.28h.31l.3-.02H18v4.51c0 .6 0 1.08-.02 1.37-.02.25-.07.46-.22.5-.05.01-.16.04-.25.04-.06 0-.08.04-.08.08 0 .1.1.1.16.1.17 0 .49-.01.67-.03H18.5c.18.02.56.03.91.03.13 0 .16-.06.16-.1 0-.04-.02-.08-.08-.08-.08 0-.25-.01-.37-.04-.22-.03-.28-.2-.3-.5-.04-.38-.04-1.1-.04-2V29.4c.17 0 .33 0 .5.02l.51.01c.85.01.99.26 1 .48v.11c.01.13.02.18.09.18.02 0 .07-.01.07-.15l.01-.3ZM26.85 36c.09 0 .17 0 .17-.08.02-.03 0-.1-.1-.1h-.25c-.24-.05-.48-.12-.88-.56-.24-.27-.5-.65-.81-1.08-.22-.3-.45-.64-.71-.98.77-.66.88-1.36.88-1.7 0-.66-.39-1.03-.5-1.13-.42-.3-.94-.37-1.4-.37h-1.77c-.1 0-.12.08-.12.1 0 .04 0 .09.11.09h.11l.09.01c.25.05.3.17.32.41l.01.83v2.65c0 .53 0 1.12-.03 1.37-.03.21-.08.3-.2.32l-.17.01c-.07 0-.13.03-.13.08 0 .08.06.13.14.13h1.65c.11 0 .13-.09.13-.13 0-.04-.03-.08-.13-.08h-.1l-.14-.01c-.26-.04-.28-.2-.3-.41-.04-.33-.04-1.11-.04-1.82v-.14l.86.02c.04 0 .05 0 .08.03h.01l.12.2c.41.7 1.14 1.95 1.75 2.23.18.08.37.11.77.11h.58Zm-4.11-5.57c.1-.03.28-.04.48-.04.75-.02 1.2.55 1.2 1.48 0 .53-.15.94-.42 1.12a.9.9 0 0 1-.54.13c-.29 0-.63-.05-.74-.12-.02-.01-.02-.04-.02-.1v-2.42c0-.04.01-.05.04-.05Zm8.4-.35c0 .04-.04.08-.1.08l-.15.02c-.2.02-.25.15-.26.43l-.01 1.65v.8c0 .82-.08 1.82-.68 2.38a2 2 0 0 1-1.52.56c-.67 0-1.2-.19-1.55-.56-.42-.43-.62-1.06-.62-2.05v-1.13c0-1.2 0-1.4-.02-1.65 0-.26-.05-.4-.29-.42h-.06l-.14-.01c-.08 0-.11-.04-.11-.08 0-.09.07-.1.15-.1h1.63c.06 0 .13 0 .13.08 0 .06-.06.08-.12.08-.05 0-.13 0-.19.02-.18.02-.22.15-.23.42v2.74c0 1.21.23 1.62.5 1.88.29.28.63.41 1.07.41.48 0 .84-.16 1.12-.5.32-.41.31-1.07.31-1.7v-2.81c-.01-.25-.02-.38-.28-.42h-.1l-.14-.01c-.04 0-.1-.04-.1-.08 0-.1.1-.1.14-.1h1.5c.04 0 .14 0 .12.07Zm2.98 5.6c-.41.22-.96.32-1.57.32-.56 0-.99-.07-1.38-.2-.17-.06-.17-.12-.17-.33 0-.37.02-.64.03-.8v-.04c0-.06.02-.15.13-.15.1 0 .1.08.1.1 0 .06 0 .16.03.27.19.73 1.17.78 1.46.78.9 0 1.38-.46 1.38-.93 0-.47-.25-.77-1.12-1.32l-.46-.27c-1.12-.7-1.34-1.18-1.34-1.7 0-.85.85-1.41 2.14-1.41.36 0 .65.01.94.07l.18.02.2.01c.08 0 .15.02.15.09v.06l-.01.18c-.01.15-.03.36-.03.63 0 .1 0 .2-.1.2-.07 0-.08-.04-.1-.08v-.07l-.01-.02c-.02-.09-.04-.23-.13-.35-.1-.16-.43-.4-1.26-.4-.7 0-1.17.32-1.17.82 0 .4.24.65 1.2 1.22l.28.16c1.26.75 1.51 1.24 1.51 1.84 0 .38-.22.92-.88 1.3Z" fill="#fff"/></svg>