<!-- by TradingView --><svg width="56" height="56" viewBox="0 0 56 56" xmlns="http://www.w3.org/2000/svg"><path fill="#F0F3FA" d="M0 0h56v56H0z"/><path d="M12 33.86v-14.5c0-.28.14-.53.38-.67l12.7-7.51c.85-.5 1.92.11 1.92 1.1v8.51l-6 3.53v6.43l-7.32 4.11c-.76.4-1.68-.14-1.68-1Z" fill="#72F6F8"/><path d="M29 39.9V26c0-.26.14-.5.38-.63l12.7-7.2c.85-.48 1.92.1 1.92 1.06v8.15l-6 3.38v6.17l-7.32 3.94c-.76.39-1.68-.14-1.68-.97Z" fill="#CAC3F9"/><path d="M29.2 11.68c-.43.27-.73.77-.73 1.42v5.95c0 .66.36 1.26.94 1.58l4.07 2.43c.61.34.99.97.99 1.66v5.3l7.73 4.42c.6.3 1.33-.12 1.33-.78V18.92c0-.18-.1-.35-.26-.44l-12.4-6.82a1.73 1.73 0 0 0-1.66.02Zm-.24-.39c.58-.36 1.36-.4 2.13-.04l12.41 6.83c.31.18.5.5.5.84v14.74c0 1.01-1.1 1.66-2.02 1.18L34 30.27v-5.55c0-.52-.29-1-.75-1.27l-4.08-2.42A2.27 2.27 0 0 1 28 19.05V13.1c0-.8.37-1.45.96-1.8Z" fill="url(#aipf04okf)"/><path d="M27.04 45.78c.51.3 1.15.3 1.67 0l12.27-7.14c1.56-.9 1.25-2.04-.37-2.85l-5.94-3.6a1.8 1.8 0 0 0-1.7.04l-4.3 2.62c-.5.3-1.11.3-1.61.02l-4.64-2.64a1.8 1.8 0 0 0-1.7-.04l-5.47 2.74a2.26 2.26 0 0 0-.12 3.97l11.9 6.88Z" fill="url(#bipf04okf)"/><defs><linearGradient id="aipf04okf" x1="36" y1="11" x2="36" y2="35" gradientUnits="userSpaceOnUse"><stop stop-color="#A0F2E6"/><stop offset="1" stop-color="#758FD9"/></linearGradient><linearGradient id="bipf04okf" x1="13.98" y1="37.07" x2="42.01" y2="37.07" gradientUnits="userSpaceOnUse"><stop stop-color="#64C8F3"/><stop offset="1" stop-color="#703DFA"/></linearGradient></defs></svg>