<!-- by TradingView --><svg width="56" height="56" viewBox="0 0 56 56" xmlns="http://www.w3.org/2000/svg"><path fill="#850129" d="M0 0h56v56H0z"/><path d="M14 22.68v1.95h-.45a3.33 3.33 0 0 0-2.77-1.56c-1.94-.04-3.82 1.56-3.78 5.15.04 3.6 1.95 4.85 3.78 4.85 1.46 0 2.64-.86 3.05-1.3l.17.13v1.17c-.85.74-2.61.93-3.22.93-.6 0-6.66.21-6.78-5.48-.12-5.7 4.38-6.48 6.6-6.52a6.82 6.82 0 0 1 3.4.68Z" fill="#fff"/><path fill-rule="evenodd" d="M18.5 32c2.49 0 4.5-1.6 4.5-4 0-2.79-2.01-4-4.5-4S14 25.4 14 28c0 2.2 1.37 4 4.5 4Zm0-.65c1.38 0 2.5-1.33 2.5-3.33 0-2.32-1.12-3.33-2.5-3.33S16 25.86 16 28.02c0 1.84.76 3.33 2.5 3.33ZM32.5 32c2.49 0 4.5-1.6 4.5-4 0-2.79-2.01-4-4.5-4S28 25.4 28 28c0 2.2 1.37 4 4.5 4Zm0-.65c1.38 0 2.5-1.33 2.5-3.33 0-2.32-1.12-3.33-2.5-3.33S30 25.86 30 28.02c0 1.84.76 3.33 2.5 3.33Z" fill="#fff"/><path d="M23.52 32c.2-4 0-8 0-8h2c-.3 4.2-.15 7-.15 7H28v1h-4.48ZM37.4 24c-.01 4.76-.15 7.32-.22 8h1.18c-.1-.8-.13-4.05-.13-5.57L43.5 32h.97c-.02-3.66.13-6.86.2-8H43.5c.16.86.17 4.03.15 5.5L38.48 24h-1.07ZM47.77 29.05 45.1 24h1.86l1.91 3.96L50.91 24H52l-2.86 4.82.13 3.18H47.6l.18-2.95Z" fill="#fff"/></svg>