<!-- by TradingView --><svg width="56" height="56" viewBox="0 0 56 56" xmlns="http://www.w3.org/2000/svg"><path fill="#F0F3FA" d="M0 0h56v56H0z"/><path d="M10.55 20.16c.29.1.54.23.76.37.14.08.24.1.3.03.08-.06.13-.33.16-.56H12v2h-.23c-.1-.54-.25-.99-.72-1.33-.18-.16-.4-.28-.66-.36a2.52 2.52 0 0 0-.78-.12c-1.52 0-2.11 1.53-2.11 2.81 0 1.3.65 2.81 2.17 2.81.25 0 .5-.04.76-.11.27-.08.48-.2.65-.35.22-.17.37-.36.46-.58.08-.23.18-.4.23-.77H12v2h-.23c-.03-.23-.08-.5-.14-.55-.06-.06-.17-.06-.32.02-.25.14-.51.27-.8.38-.27.1-.63.15-1.07.15C7.64 26 6 24.95 6 23c0-1.89 1.5-3 3.6-3 .4 0 .64.05.95.16ZM16.26 20l2.16 5.3c.1.24.28.51.58.53V26h-2.5v-.17c.53-.02.74-.18.52-.7l-1.56-4.02.16-.18-1.43 3.5c-.11.28-.18.51-.2.7-.07.53.3.69.77.7V26H13v-.17c.4-.08.62-.5.76-.83l2.04-5h.46Zm.77 3.57v.17h-2.65l.09-.17h2.56ZM20 20h3.17c1.06 0 2.83.27 2.83 1.68 0 1.55-1.86 1.9-3.06 1.9h-1.07v-.17h.96c1.05 0 1.67-.6 1.67-1.64 0-.98-.49-1.6-1.51-1.6-.53 0-.49.3-.49.83v4c0 .72.29.81.9.82V26H20v-.17c.56-.03 1-.16 1-.76v-4.2c0-.6-.44-.69-1-.7V20ZM34 27h6.5v10H34V27Z" fill="#08276A"/><path d="M37.5 28H49v1H37.5a2.43 2.43 0 0 0-2.5 2.5c0 1.19.65 2.5 2 2.5.9 0 2-.45 2-1.5 0-1.02-.53-1.5-1.5-1.5-.1 0-.5 0-.5.5 0 .3.2.5.5.5v1c-.84 0-1.5-.5-1.5-1.5 0-.5.45-1.5 1.5-1.5 1.5 0 2.5.96 2.5 2.5 0 1.62-1.53 2.5-3 2.5-1.9 0-3-1.76-3-3.5 0-1.98 1.52-3.5 3.5-3.5Z" fill="#DE9C01"/><path d="M30 20v.17c-.35 0-.5.05-.5.63V25c0 .58.16.83.5.83V26h-2.5v-.17c.55-.03.5-.24.5-.83v-4.2c0-.58-.29-.63-.5-.63V20H30ZM37 20v2h-.23c-.19-.91-.47-1.41-.91-1.64-.22-.1-.5-.17-.85-.17h-.26v4.84c0 .72.33.79.99.8V26h-3.48v-.17c.65-.01.99-.08.99-.8v-4.84h-.27c-.34 0-.63.06-.85.17-.44.23-.68.73-.86 1.64H31v-2h6ZM40.26 20l2.16 5.3c.1.24.28.51.58.53V26h-2.5v-.17c.53-.02.74-.18.52-.7l-1.56-4.02.16-.18-1.43 3.5c-.11.28-.18.51-.2.7-.07.53.3.69.77.7V26H37v-.17c.4-.08.62-.5.76-.83l2.04-5h.46Zm.77 3.57v.17h-2.65l.09-.17h2.56ZM46.72 20v.17c-.55.01-.72.16-.72.71v4.27c0 .49.12.66.6.66h.53c.24 0 .45-.04.63-.12.65-.29.9-1.03 1-1.69H49v2h-5v-.17c.53-.03.5-.4.5-.83v-4.1c0-.4.04-.72-.5-.73V20h2.72ZM6 31h2.54c.84 0 2.01.29 2.01 1.34 0 .85-.83 1.33-1.56 1.48v.02c.87.08 2.01.46 2.01 1.52C11 36.58 9.78 37 8.74 37H6v-.17c.52-.03.5-.2.5-.73v-4.2c0-.51.02-.71-.5-.73V31Zm2.4.17c-.4 0-.4.29-.4.73v4.2c0 .47-.05.7.44.7.9 0 1.06-.44 1.06-1.3 0-.9-.35-1.5-1.22-1.5H7.5v-.14h.74c.29 0 .55-.1.7-.23.33-.27.42-.72.42-1.2 0-.84-.28-1.26-.96-1.26ZM15.26 31l2.16 5.3c.1.24.28.51.58.53V37h-2.5v-.17c.53-.02.74-.18.52-.7l-1.56-4.02.16-.18-1.43 3.5c-.11.28-.18.51-.2.7-.07.53.3.69.77.7V37H12v-.17c.4-.08.62-.5.76-.83l2.04-5h.46Zm.77 3.57v.17h-2.65l.09-.17h2.56ZM25 31v.17c-.63.05-.79.24-.79.8L24.3 37h-.4L20 32.5v3.15c0 .66.07 1.12.8 1.18V37H19v-.17c.62-.07.79-.55.79-1.12v-3.9c0-.53-.25-.63-.79-.64V31h1.6l3.4 4v-2.96c0-.7-.07-.82-.8-.87V31H25ZM31.68 31v.17c-.4.07-.8.25-1.23.74l-1.71 1.96.4-.6 2.16 3.04c.2.26.37.4.7.52V37h-2.38v-.17c.29-.01.6-.05.37-.38l-1.32-1.95c-.1-.15-.18-.26-.26-.33a.53.53 0 0 0-.22-.14 1 1 0 0 0-.3-.06v-.16c.26-.02.49-.08.69-.2.2-.1.4-.27.6-.5l.63-.75c.23-.24.36-.46.41-.63.1-.35-.11-.55-.6-.56V31h2.06Zm-3.05 0v.17c-.53.01-.63.2-.63.73v4.2c0 .54.1.7.63.73V37H26v-.17c.23 0 .5-.18.5-.72v-4.2c0-.53.03-.73-.5-.74V31h2.63Z" fill="#08276A"/><path fill="#DE9C01" d="M6 28h28v1H6z"/></svg>