<!-- by TradingView --><svg width="56" height="56" xmlns="http://www.w3.org/2000/svg"><path fill="#F0F3FA" d="M0 0h56v56H0z"/><path d="M24.067 19c-1.578-.01-2.41.523-3.448 1.297a2.45 2.45 0 00-.36.36c-.803.894-1.342 2.052-1.707 3.384-.531-.088-1.266.028-1.797-.06-.04-.09-.02-.239-.06-.33-.51-.485-1.292-.809-2.186-.898-.16-.016-.377.042-.51-.09-.078-.19.062-.434-.06-.599-.084-.125-.381-.037-.479-.15.047-.176.24-.456.18-.838-.039-.131-.22-.12-.27-.24.238-1.333-1.923-1.41-2.186-.509-.072.247.043.522-.06.779-.035.09-.134.122-.15.21-.086.472.34.617.24 1.018-.322.141-.654 0-.959.09-.253.075-.428.38-.688.39-.04-.32.063-.497.06-.78-.167-.213-.653-.166-.839 0 .119.52.115 1.29.06 1.887-.141.22-.394.451-.45.75-.029.157.024.305 0 .448-.023.148-.155.286-.21.45-.04.12-.024.247-.059.329-.097.226-.39.353-.3.719-.205.49-.473.921-.539 1.557-.034.338.14.695.09 1.019-.03.195-.245.451-.18.749-.146.043-.355.024-.479.09-.086.143-.055.403-.06.628v.66c-.012.45.088.79.06 1.257.05.17.05.549 0 .719.03.639-.03 1.187-.21 1.617.131.06.306.075.36.21-.021.294.107.414.09.599-.055.593-1.015.71-.959 1.348.031.345.576.502.9.48.51-.038.874-.624 1.107-.84.318.069.304-.195.54-.21.173.45.475.992 1.048 1.05 1.018.1.647-1.457.27-1.948-.14-.18-.375-.175-.24-.479.153.122.108-.228.21-.33.368-.098 1.064-.099 1.707-.09.07.643.004 1.47.479 1.618.176-.073.105-.394.12-.629-.069-.051-.011-.228-.03-.33 0-2.082-.287-2.368.12-.838.11 0 .26-.377.389-.36-.092.475.054.908.12 1.319.162.008.178.025.33 0 .257-1.13.133-2.642.299-3.864.055 1.388.448 2.44.808 3.564.115.359.224.843.42 1.048.192.203.68.373 1.138.51.68.203 1.318.419 1.977.389.12-.006.248-.098.389-.12.128-.02.231.025.33 0 .121-.03.213-.13.329-.15.091-.014.212.043.3.03.087-.013.148-.12.269-.15.09-.021.199.026.27 0 .16-.058.35-.25.539-.329.264-.111.42-.163.598-.3.253-.815.462-1.674.69-2.515 3.102 3.129 8.523 4.372 14.915 4.073 3.333-.156 6.066-.997 8.446-2.486 2.231-1.395 4.011-3.82 4.194-7.128v-.36c-.09-2.775-1.208-4.472-2.606-5.87-1.392-1.389-3.35-2.203-5.694-2.306-1.286-.057-2.32.206-3.325.45-.846.204-1.656.558-2.575.598-.644.028-1.287-.163-1.917-.18-.159.168-.133.422-.24.6-.264.438-1.087.633-1.827.568-1.228-.107-2.047-.864-2.995-1.467A7.044 7.044 0 0024.064 19h.003z" fill="#561B0D"/><path d="M24.004 19.299c-.09.001-.18.004-.27.01-1.469.091-2.52.788-3.235 1.557-.792.853-1.24 1.828-1.618 3.205.172.038.345.075.54.09.464-1.983 1.884-4.055 4.103-4.223 1.37-.104 2.457.44 2.965 1.408.062.118.069.323.18.449.12.136.395.085.509.27-.005.235-.22.12-.33.12-.772 0-1.479-.026-2.126.239-.277.113-.399.352-.749.3.194-.45.763-.48.928-.9.154-.386-.03-.858-.269-1.047-.47-.374-1.234.01-1.557.269-1.637 1.304-1.157 4.296-.06 5.66.624.779 1.671 1.42 2.905 1.259.668-.088.76-.516 1.288-.78-.314 1.203-1.447 1.993-2.905 2.098a3.837 3.837 0 01-2.157-.45c-.134-.07-.316-.193-.39-.15.03 1.178-.084 2.213-.09 3.355.502.594 1.12 1.124 1.738 1.618.601.48 1.255 1.082 2.186 1.108.09-1.807-.03-3.824.06-5.63.419-.243.887-.376 1.168-.72.2-.243.768-1.265.39-1.408-.23-.086-.542.446-.81.6-.237.136-.463.231-.778.18-.052-.26.006-.604-.06-.9-.046-.205-.214-.325-.18-.479.68-.107 1.486-.06 2.247-.06.759 0 1.576-.029 2.127.21.662.287 1.104 1.295.868 2.097-.208.705-.955.888-1.797 1.018 1.086.003 1.93.308 2.516.779.065.053.102.208.21.15-.086-.79.102-1.556.509-1.977.172-.18.587-.44.898-.48.477-.06.733.252 1.168.27.187.008.386-.136.57-.06.003 1.162-.157 2.57.03 3.624-.439-.04-1.052.093-1.348-.09-.261.206-.742.206-1.109.09 0-.016-.024-.034-.03 0 .504 2.272-.669 3.795-2.456 4.164 4.026.668 9.276.495 12.37-.9-3.557.044-4.945-2.082-5.81-4.731-.065.406-.039 1.135.03 1.408h-1.378c.15-.495.09-1.156.09-1.857 0-.793.055-1.483-.15-1.918 1.327.028 2.738-.25 3.025.75.22.764-.412 1.094-1.048 1.227.254.096.62-.037.779-.03.113.626.307 1.17.569 1.648-.074-1.179.205-2.736-.12-3.595.717.083 1.568-.104 2.246.03.555.11.971.726.78 1.318-.137.42-.621.476-1.05.66.266.015.483-.018.72-.03.16.708.455 1.28.748 1.856-.51-.019-1.097.04-1.557-.03-.006-.643-.273-1.025-.48-1.467-.017.502-.058 1.144.03 1.497H38.38c.301.798.798 1.377 1.437 1.917.553.467 1.406 1.054 2.276 1.108.9.056 1.641-.503 2.217-.898.708-.486 1.215-.935 1.677-1.468.96-1.106 1.787-2.646 1.827-4.433.02-.917-.216-1.856-.51-2.605-.84-2.146-2.76-3.834-5.6-3.834-2.032 0-3.376.793-4.642 1.677.256-.063.445-.194.719-.24.224 1.094.448 2.188.958 2.996h-1.528c-.236-.682-.377-1.46-.629-2.127.011.474-.114 1.25-.03 1.737.029.162.143.237.12.36h-1.617c.066-.128.075-.218.09-.39.119-1.368.045-3.07-.09-4.223a8.952 8.952 0 001.498-.33c.035.604.025 1.253.06 1.858 1.47-.92 3.033-1.928 5.63-1.767 1.846.115 3.292.962 4.223 2.037a7.554 7.554 0 011.797 4.462c.099 1.774-.57 3.154-1.288 4.283-1.285 2.022-3.38 3.282-5.84 4.044-3.782 1.17-9.335 1.036-13.268.06-2.507-.623-4.43-1.764-5.99-3.264-.093-.091-.225-.267-.299-.21-.046.143-.032.346-.09.479 3.159 3.356 9.475 4.724 15.905 4.073 3.066-.31 5.54-1.199 7.547-2.576 1.848-1.266 3.602-3.53 3.745-6.38.145-2.925-1.1-4.957-2.576-6.319-1.384-1.276-3.127-2.202-5.751-2.186-1.04.006-1.95.21-2.816.42-1.406.34-2.815.953-4.492.449-.196.915-1.106 1.275-2.337 1.168-1.319-.116-2.18-.94-3.204-1.558-.902-.546-2.155-1.016-3.502-.998l-.003-.001zm-11.69.613c-.192 0-.373.056-.471.175.214.235.791.108.719.63-.294.064-.363-.097-.54-.15-.068.061-.103.156-.09.3.242.07.723.052.66.329.171.008.354.004.449.09.014.094-.054.105-.03.21-.187.022-.282.136-.45.179-.057-.072-.083-.176-.18-.21-.093.077-.172.348-.059.45.147-.003.176-.124.33-.12.135.034.148.19.269.24.108-.125.314-.14.39-.36-.023-.068-.115-.066-.12-.15.042-.077.052-.187.09-.27-.292-.064.038-.569-.18-.688-.202-.033-.264.076-.45.06.007-.057-.033-.067-.03-.12.05-.14.293-.087.39-.18-.031-.266-.378-.417-.697-.415zm-.411 1.703c-.048.045-.104.155.03.15-.015-.094.07-.122-.03-.15zm.759.46c-.026-.005-.055 0-.1.02-.042.095.179.075.18.03-.032-.027-.054-.044-.08-.05zm.349.169c-.19.049-.297.132-.48.12.027.119.027.15 0 .27.242.186.564-.16.48-.39zm.6 0c.019.14-.059.378.089.39v-.39h-.09zm-4.464.12c-.048.258.073.347.12.509-.043.087-.147.271-.06.39.168-.17.305-.595.15-.9h-.21zm30.975.007c.066.003.134.01.203.023.703.125 1.15.89 1.019 1.887-.43.069-.988.01-1.468.03-.005.54.206.933.6.928.44-.006.375-.633.898-.51-.145.512-.266 1.081-.66 1.379-.443.335-1.252.237-1.676-.12-.425-.358-.587-1.17-.54-1.797.066-.865.632-1.863 1.624-1.82zm2.933.008c.925.017 1.703.194 1.613 1.153-.05.532-.52.697-1.138.779.2.131.487.053.75.03.15.708.513 1.362.778 1.857H43.53c-.039-.63-.3-1.039-.48-1.528-.103.394-.096 1.141.031 1.497h-1.408c.1-.44.06-1.132.06-1.857 0-.788.08-1.497-.15-1.916.336.008.705-.008 1.068-.014.136-.003.271-.003.404 0zm-16.694.031c1.032-.012 1.962.057 2.074.912.088.676-.462.982-1.198 1.049.212.129.563.02.809 0 .141.707.506 1.35.748 1.857h-1.527c.01-.64-.31-.948-.45-1.438-.105.36-.101 1.116.03 1.438H25.44c-.023-.745.22-2.463.06-3.355-.031-.172-.188-.292-.18-.45.34.005.696-.008 1.04-.013zm7.4.015c.31.008.636.095.964.268-.026.376.043 1.046-.03 1.468-.427.059-.33-.432-.42-.69-.093-.27-.297-.63-.539-.628-.697.008-.54 2.433.21 2.456.365.011.413-.418.869-.51.282 1.112-1.19 1.912-2.097 1.378-.94-.552-1.027-2.318-.3-3.144.353-.401.825-.61 1.342-.598zm-3.54.042c.063.002.126.007.19.017.378.055.673.284 1.288.18.049 1.044-.102 2.534.09 3.534-.387.025-1.085.108-1.378-.06-1.287.53-1.99-.704-1.856-2.007.091-.893.736-1.693 1.667-1.664zm12.94.37a.615.615 0 00-.14.006 4.39 4.39 0 000 1.138c.726.105.79-1.095.14-1.144zm-30.497.004c-.137.038-.005.345-.133.392-.11.018-.14-.198-.24-.09.053.056.099.12.09.239-.066.023-.117.063-.21.06-.011.192.172.188.18.36.2-.231.455-.562.39-.959a.16.16 0 00-.077-.002zm27.523.027c-.351.013-.41.653-.37 1.024.165.128.476.038.598-.06.067-.306.05-.657-.06-.929a.399.399 0 00-.168-.035zm-26.771.011c-.06.003-.11.026-.135.084a.903.903 0 01.18.45c-.017.083-.116.083-.18.12-.022.09.03.108.03.179.102.022.05-.11.12-.12.075.025.095.105.15.15.06-.24.115-.484.12-.779a.597.597 0 00-.285-.084zm13.58.01a.49.49 0 00-.267.044c.019.351-.038.777.03 1.078.732.207.777-1.042.237-1.122zm-13.895.074c-.006.086.008.152.06.18 0-.07.052-.088.03-.18h-.09zm1.212.02c-.13.008-.24.06-.343.04-.093.1-.222.514 0 .569.129-.06.037-.342.21-.36-.011.053-.091.186-.03.21.033-.096.085.03.06.09.151.032.124-.115.18-.18.015.116-.055.147-.03.27.21-.008.23-.21.359-.3-.04.094-.053.276.03.33.284-.05.555-.313.898-.12a2.22 2.22 0 00-.599.06c.011.329.228.452.42.6-.002.15.102.196.269.179-.038-.198.108-.212.21-.27.064-.076-.028-.17.03-.21.216.034.16.34.419.33.258-.361-.37-.887-.899-1.078-.252-.091-.637-.013-.898-.06-.052-.01-.102-.079-.15-.09a.468.468 0 00-.136-.01zm-4.357.01c-.21.12-.341.317-.509.48-.057.181-.014.465-.24.479-.118-.01.023-.093-.06-.12-.36.261-.164.83.06 1.048-.176.034-.38.039-.538.09-.093.237-.275.385-.24.749.103.126.312.146.36.329-.44-.123-.682.193-.69.6.274.025.501.097.69.209.111-.077.091-.21.03-.33.208-.176.501-.143.449-.449-.039-.222-.446-.35-.51-.569.211-.052.268.18.39.12.017-.237-.23-.209-.33-.33.292-.047.664.104.809-.18-.127.008-.237-.002-.27-.09a.698.698 0 01.18-.358c.317-.042.446-.252.45-.51.003-.29-.267-.466-.27-.719.128-.065.218.052.39.03.113-.146-.003-.414-.15-.479zm20.401.05c-.844-.021-.629 2.697.055 2.526.16-.3.09-.788.09-1.228 0-.467.046-.944-.06-1.288a.447.447 0 00-.085-.01zm-19.683.07c-.525-.023-.273 1.003.15.689.04-.214-.085-.484-.15-.69zm.48.24c-.085.12.031.255 0 .419.222.059.56-.055.808.03-.106-.172-.266-.387-.569-.27-.097-.043-.106-.173-.24-.18zm1.901.04c-.18-.003-.403.366-.104.559.082-.098.132-.228.269-.27-.01-.208-.083-.286-.165-.288zm1.63.357c-.111-.004-.22.054-.297.202.173.066.297.181.27.449.086.12.392.12.48 0 .052-.33-.207-.641-.453-.65zm-2.41.365c-.495-.027-.372.695-.283.915-.156 0-.292-.318-.36-.21-.021.161-.007.273-.089.42.234-.005.383.075.629.06.069-.081.06-.24.18-.27-.055.264-.126.514-.27.689-.008-.102.023-.243-.03-.3-.056.007-.066-.034-.12-.03-.34.313.001.836 0 1.258.222.152.638.065.929.03.117-.444-.116-.938.03-1.318.087.033.112.127.24.12.094-.484-.21-.57-.3-.868.104-.086.263-.117.3-.27-.125-.025-.223-.077-.39-.06-.126.114-.153.326-.27.45-.204-.064-.162-.421-.09-.6a.646.646 0 00-.107-.016zm1.817.015a.597.597 0 00-.243.061c.028.519-.583 1.197-.12 1.498.056-.204-.034-.553.15-.63.043.296-.188.646.09.75-.003-.63.558-.99.36-1.618-.054-.049-.145-.065-.237-.06zm3.344.466a2.006 2.006 0 00-1.25.374c.638.1 1.18-.05 1.497-.36a2.941 2.941 0 00-.247-.014zm1.472.027a3.778 3.778 0 00-1.794.407c.452-.01.907.163 1.318.09.336-.06.564-.366.808-.48a4.705 4.705 0 00-.332-.017zm-2.603.047c-.156.004-.288.032-.36.12.092.029.121.12.27.09.06-.04.117-.083.09-.21zm3.277.086a.687.687 0 00-.521.214c.23.056.649.053.718-.15a.42.42 0 00-.197-.064zm.575.297c-.05.003-.098.026-.108.066.035.006.033.048.03.09h.21c.047-.112-.048-.161-.132-.156zm-4.635.03c-.106-.004-.205.05-.175.186.083.047.345.059.389-.03.004-.092-.108-.153-.214-.157zm4.284.065a.365.365 0 00-.207.032v.09c.073.057.251.028.33 0 .01-.077-.05-.113-.123-.122zm-3.785.024c-.09.007-.166.052-.135.157.09.022.4.107.36-.09-.03-.044-.134-.074-.225-.067zm3.263.003c-.104-.005-.216.041-.223.124.065.15.222.047.389.06.031-.122-.063-.179-.166-.184zm-5.914.005c-.124.12-.16.473-.09.688.15-.113.133-.54.18-.659-.039-.001-.042-.038-.09-.03zm5.304.023a.425.425 0 00-.242.066c-.036.222.39.242.419.06.004-.093-.081-.125-.177-.126zm-2.06.023c-.04.002-.083.006-.13.013v.18c.108.063.324.016.48.03v-.18a1.016 1.016 0 00-.35-.043zm.818.006c-.197-.002-.382.026-.259.247h.45a.291.291 0 000-.24c-.058-.002-.125-.006-.191-.007zm.85.007a1.683 1.683 0 00-.45.03c-.025.085.042.078.03.15.126.08.302-.007.45 0 .021-.091-.052-.088-.03-.18zm2.246 0c-.936.404-2.39.443-3.654.42-.029.079-.058.256 0 .33 1.318.154 2.84.006 3.774-.42-.08-.07-.024-.276-.12-.33zm-5.301.15c-.022.16-.063.202-.03.36.448.13 1.059.258 1.557.24-.086-.074-.073-.285 0-.36-.556-.033-1.045-.133-1.527-.24zm-3.924.18c.009.16-.043.382.12.39.072-.11-.046-.242-.03-.39h-.09zm.24 0c-.05.112-.073.423.12.39-.026-.145-.017-.324-.12-.39zm5.48.21c.074-.005.145-.005.18.03v.12c-.11.087-.27-.029-.18-.15zm3.325.18c.263.585.266 1.43.54 2.006.047-.629-.32-1.358-.45-2.007h-.09zm-.39.089c.087.634.257 1.441.33 2.186.157.007.233-.066.3-.15-.1-.767-.218-1.519-.57-2.036h-.06zm-4.851.03c-.018.741-.017 1.562.18 2.216.071-.697.143-1.393.18-2.126-.1-.05-.246-.054-.36-.09zm4.467.065c-.124-.01-.266.024-.334.085.275.573.255 1.442.33 2.216.18-.02.35-.048.479-.12.04-.765-.243-1.45-.36-2.156a.403.403 0 00-.115-.025zm-3.752.051a.31.31 0 00-.086.004 45.06 45.06 0 00-.21 2.396c.13.03.242.077.42.06.063-.758.123-1.67.09-2.426-.09.007-.139-.027-.214-.034zm.748.052c-.119-.002-.225.019-.235.102-.124.694-.031 1.606-.06 2.396.213-.023.334.045.539.03-.013-.862.007-1.69.06-2.486a1.75 1.75 0 00-.305-.042zm-2.99.012c-.005.484-.093 1.045-.03 1.497.078-.493.307-.986.269-1.497h-.24zm4.702 0c-.123-.003-.246-.006-.33.03-.15.706.02 1.593 0 2.366.125.062.384.033.48-.03-.01-.711-.017-1.68-.15-2.366zm.718 0a1.38 1.38 0 00-.389.03c-.013.732.13 1.567.15 2.366a.81.81 0 00.51-.15c-.055-.784-.056-1.622-.27-2.247zm-1.887.03v2.456c.146.065.421.029.54-.03v-2.426h-.54zm3.84.623c-.002 0-.004.002-.006.006.091.278.11.628.21.898-.017-.107-.005-.255-.03-.39-.027-.143-.138-.516-.174-.514zm25.033.006h.06c.149 1.47-.21 3.188-.03 4.582.024.187.125.346.18.45h-1.797c.223-.462.15-1.394.15-2.397 0-.945.06-1.843-.12-2.336a4.606 4.606 0 001.557-.3zm-37.55.067c-.118-.009-.213.135-.216.531-.048.116-.329.168-.15.33.052.06.108-.13.24-.09.013.326-.009.688.15.869.053-.386-.157-1.035.239-1.078.041.283-.13.604.15.659.225-.441-.152-1.201-.413-1.221zm4.486.052c-.1.15-.21.29-.21.54.039.04.13.03.21.03.045-.126.053-.446 0-.57zm14.976.03c-.038.013-.061.04-.06.09.02.66-.04 1.397.03 2.007 1.267.184 1.216-2.138.03-2.096zm-18.72.27c.065.335-.044.843.24.958a.285.285 0 00-.09.24c.195.274.392.546.899.51.1.159.13.388.27.508-.004-.119.042-.305.03-.449-.063-.7-.727-1.672-1.348-1.767zm39.806.36v.359c.05-.052.05-.308 0-.36zm-37.897.1c-.255.013-.509.194-.59.379.023.006.034.025.03.06.19.069.52-.002.718.06.088-.117-.155-.111-.15-.24.085.005.125.055.21.06-.001-.12-.115-.124-.18-.18.096-.004.23.03.21-.09a.494.494 0 00-.248-.05zm10.162.229c-1.084.713-2.645.95-4.373 1.019-.416.659.582.572 1.108.538 1.383-.088 2.671-.487 3.384-1.018-.056-.163-.047-.392-.12-.54zm21.57.099c.782-.022 1.536.615 1.313 1.878h-1.468c.019.547.203.996.689.928.37-.051.323-.62.809-.509-.114.519-.237 1.033-.6 1.348-.455.396-1.332.301-1.767-.12-.68-.66-.662-2.375.03-3.085.278-.285.64-.43.995-.44zm.204.454c-.42-.029-.415.655-.419 1.004.157.15.443.067.6-.03.102-.281.071-.763-.09-.958a.478.478 0 00-.09-.016zm-3.3.01a.625.625 0 00-.144.006c-.068.331-.011.787-.03 1.168.747.132.846-1.122.175-1.174zm-27.07.006c-.017.323-.117.562-.12.899.103.06.133.04.27.03.049-.244.049-.685 0-.929h-.15zm23.78.046a.647.647 0 00-.149.014v1.168c.72.137.836-1.16.148-1.182zm-3.244.081c-.74.062-.596 2.617.13 2.539.081-.732.152-1.778.03-2.516a.393.393 0 00-.16-.023zm-17.751.083c-.084.173.012.4.03.569.418.071.799.18 1.258.21-.084-.079-.125-.43 0-.6-.491.002-.868-.11-1.288-.18zm5.9.21c-.055.962-.022 2.173-.06 3.054.26-.778.054-2.022.12-2.995-.006-.034-.033-.047-.06-.06zm-.27.18c-.106.93-.064 2.17-.09 3.084.235-.804.098-2.138.09-3.085zm-3.942.029a.143.143 0 01.08.03v.15c-.04.042-.17.042-.21 0-.029-.116.049-.185.13-.18zm3.554.15a.522.522 0 00-.3.12c.015.425-.02.88 0 1.317.03.63-.03 1.285.12 1.798.34-.286.188-1.038.24-1.678.04-.493.085-1.16-.06-1.557zm-.715.206c-.101.01-.167.057-.273.063.043 1.055-.105 2.3.12 3.175.097.018.139-.02.209-.03.196-.863.146-2.255.06-3.205a.44.44 0 00-.116-.003zm-4.527.123v.09c-.002.765.082 1.397.18 2.036.069.451.135.973.48 1.169-.02-1.009-.128-2.19-.21-3.235-.165-.005-.298-.042-.45-.06zm3.804.03c-.105.065-.348-.009-.45.06.06 1.078.012 2.265.12 3.295a1.51 1.51 0 00.51-.12c-.044-.771.005-1.681-.03-2.456-.012-.271 0-.58-.15-.779zm-3.025.06c.092 1.096.046 2.33.24 3.325.154-.023.227.052.33 0-.048-1.061-.036-2.181-.09-3.235a.977.977 0 00-.48-.09zm2.277.06c-.202-.001-.362.038-.54.06.021 1.107.068 2.188.12 3.264.11.056.26-.068.42-.06v-3.264zm-1.173.003a1.375 1.375 0 00-.355.027c.047 1.081.075 2.182.15 3.235.184.025.342.077.569.06.04-1.019-.012-2.204-.03-3.265a1.31 1.31 0 00-.334-.057zm-7.094.267c-.178.367-.143.838-.36 1.258-.1.196-.327.296-.389.479-.154.456.025 1.091-.06 1.587-.02.113-.153.239-.15.36.006.187.196.52.42.479.118-1.475.382-2.756.6-4.103-.04 0-.029-.053-.061-.06zm17.671 0a.151.151 0 00-.09.09c.008 1.73.048 3.426.03 5.181 2.62.534 2.993-3.392 1.498-4.732-.346-.31-.894-.513-1.438-.54zm-15.934.055a.425.425 0 00-.21.034v.09c.146.02.314.057.39-.06-.026-.04-.1-.06-.18-.064zm.33.094c-.247.193-.165.714-.18 1.138.07-.18.01-.488.03-.718.084-.027.182-.038.24-.09-.105-.035-.066-.214-.09-.33zm-1.258.27c-.074.026.009.209-.06.24h.12c-.025-.075.058-.258-.06-.24zm.24 0c-.047.043-.027.153-.03.24h.12c.004-.115.017-.238-.09-.24zm-.45.06c-.043.046-.063.117-.09.18h.12c-.017-.053.036-.177-.03-.18zm10.513 1.737c0 .04-.052.027-.06.06-.666.578-2.222.937-3.445.988-.468.02-.936-.044-.748.48.703.112 1.608.031 2.396-.15.648-.15 1.564-.426 1.797-.899a.734.734 0 00.06-.48zm-5.241.988c-.007.236.072.387.15.54.265-.006.443.075.718.06-.086-.08-.125-.43.06-.54-.348.018-.593-.066-.928-.06zm4.971.18c-.128.42-.294.963-.269 1.438.09-.442.325-1.05.27-1.438zm-3.803.09c.032.06.158.199.21.06.082.056-.025.173-.09.18-.126.01-.192-.146-.12-.24zm3.414.12c-.054.485-.265.973-.21 1.467.176-.413.22-.959.3-1.467h-.09zm-.36.09c-.27.378-.213 1.083-.329 1.617.285-.065.248-.46.3-.72.059-.296.138-.615.15-.898h-.12zm-.45.178c-.078.011-.128.052-.208.061-.087.502-.168 1.01-.18 1.587.342-.017.281-.445.33-.718.054-.312.139-.65.15-.929a.324.324 0 00-.091 0zm-.568.151c-.142.027-.271.068-.419.09v1.587c.142.013.216-.043.33-.06.026-.504.23-1.145.09-1.617zm-2.665.12c.021.66-.025 1.64.479 1.707-.02-.59-.045-1.173-.15-1.677-.084-.036-.206-.033-.33-.03zm.88.027a.563.563 0 00-.251.032c.038.57.047 1.172.15 1.678h.479c.016-.53.016-1.21-.09-1.707-.087.007-.19 0-.288-.003zm.647.003c-.09.445-.025 1.13 0 1.647.173.013.286-.034.42-.06v-1.587h-.42zm-1.887.03c-.023.103-.007.398.09.479.046-.143.022-.402-.09-.48zm-6.619.06c-.152.053-.308-.015-.42.03-.002.092.037.142.06.209.213.013.368-.032.36-.24zm11.112.838c-.872.625-2.065.93-3.444 1.048v.24c1.337.177 2.46-.374 3.354-.839.045-.145.158-.221.15-.42-.007-.023-.025-.034-.06-.03zm-11.08.518a.067.067 0 00-.031 0 .06.06 0 00-.03.021c.146.24-.011.5-.15.629.016.233.178.32.33.42-.081.079-.195.125-.21.27.043.105.132.165.119.328.074.026.16.04.27.03.094-.138.287-.473.09-.629-.005.156.03.35-.09.39-.149-.142.069-.327.06-.54-.005-.11-.159-.498-.18-.718-.006-.06-.1-.185-.177-.2zm-.233.003c-.103-.007-.245.097-.158.198.02-.11.156-.104.24-.15-.017-.031-.047-.046-.082-.048zm-2.232.068c-.084.002-.16.17-.263.19-.035.129.099.168.03.24-.397.042-.616.261-.659.658.295.199.443-.17.69-.21.035-.083.032-.206.03-.329h.18c-.044-.22.095-.393.029-.539a.068.068 0 00-.037-.01zm2.19.1c-.096-.005-.19.066-.176.18.11-.03.152-.127.27-.15a.179.179 0 00-.094-.03zm.077.129a.146.146 0 00-.042.002c-.096.017-.203.116-.121.198.042-.077.096-.142.24-.12-.006-.052-.037-.076-.077-.08zm8.013.29c.07-.01.115.005.15.03v.15h-.18c-.004-.074-.004-.144.03-.18zm2.097.06c-.121.009-.234.026-.27.12.058.128.301.03.27-.12zm-.62.18c-.09-.003-.193.047-.159.15.106-.014.288.049.27-.09-.01-.038-.058-.059-.111-.06zm-.542.12c-.056-.008-.117.033-.186.03v.12c.13.01.217-.023.24-.12a.095.095 0 00-.054-.03zm-.486.06c-.169.01-.4-.042-.389.15.108.018.421.062.39-.15zm-11.74.06c-.516.255.401 1.006.419.299-.279.039-.286-.193-.42-.3z" fill="#F9A61A"/></svg>