<!-- by TradingView --><svg width="56" height="56" xmlns="http://www.w3.org/2000/svg"><path fill="#006649" d="M0 0h56v56H0z"/><path d="M39.4 27.824c-2.494.958-5.064 1.695-7.625 2.252.377 2.505.58 5.173.532 7.966a42.917 42.917 0 005.959-1.675c1.022-2.31 1.544-5.136 1.135-8.543zM37.36 38.088a45.18 45.18 0 01-5.097 1.324 46.708 46.708 0 01-.352 3.955 16.162 16.162 0 004.418-3.814c.364-.457.71-.945 1.03-1.465zM34.667 42.333c1.136-1.164 3.773-3.26 4.576-4.907.767-.29 2.757-1.76 3.09-2.093C41 38 38 40.667 34.667 42.333zM39.958 35.707c.822-2.362 1.164-5.151.721-8.396a40.972 40.972 0 003.182-1.497c.092.694.139 1.402.139 2.121 0 2.331-.499 4.546-1.395 6.544a36.6 36.6 0 01-2.647 1.228zM40.455 25.957a39.107 39.107 0 003.16-1.523 15.952 15.952 0 00-3.535-6.99c-.878.403-1.754.776-2.626 1.12 1.342 1.984 2.42 4.422 3 7.393zM36.167 19.053a52.695 52.695 0 01-6.659 1.942c.992 2.505 1.544 4.93 2.05 7.764 2.576-.564 5.152-1.311 7.637-2.285-.556-3.03-1.657-5.473-3.028-7.421zM36.638 17.451c.82-.317 1.644-.66 2.47-1.031A15.945 15.945 0 0029.452 12a18.31 18.31 0 017.187 5.451zM35.315 17.942a51.392 51.392 0 01-6.273 1.79c-1.232-3.197-2.624-5.775-3.818-7.557 4.443.158 8.16 3.46 10.09 5.767zM30.968 38.299a46.601 46.601 0 00-.502-7.954 66.137 66.137 0 01-5.36.811c-1.659.183-3.283.303-4.848.37.642 2.805 1.794 5.305 3.258 7.514a51.342 51.342 0 004.673-.334 48.914 48.914 0 002.779-.407zM30.251 29.029a47.63 47.63 0 00-2.06-7.76 53.367 53.367 0 01-8.607.965c-.176 2.292-.082 4.927.407 7.927l.007.042a71.8 71.8 0 004.962-.372 64.745 64.745 0 005.291-.802zM27.717 20.003c-1.28-3.274-2.721-5.85-3.897-7.517-.439.12-.87.256-1.294.41-1.224 1.827-2.344 4.46-2.804 8a52.05 52.05 0 007.995-.893zM30.513 43.739c.2-1.383.331-2.744.402-4.078-.867.148-1.726.27-2.57.37-1.34.157-2.647.258-3.905.311a28.702 28.702 0 003.243 3.59 16.126 16.126 0 002.83-.193zM20.437 13.832c-.943 1.863-1.708 4.217-2.06 7.09a48.852 48.852 0 01-4.67-.186 16.071 16.071 0 016.73-6.904zM18.248 22.257c-.17 2.344-.072 5.002.406 7.988a70.945 70.945 0 01-6.51-.149 16.155 16.155 0 01-.144-2.16c0-2.09.4-4.086 1.129-5.916 1.567.155 3.284.245 5.12.237zM18.903 31.573c-2.365.06-4.568.003-6.516-.124a15.958 15.958 0 003.757 7.23c1.641.218 3.612.367 5.8.377a23.826 23.826 0 01-3.041-7.483zM22.821 40.386a50.425 50.425 0 01-5.103-.191c2.204 1.85 5.103 3.138 8.949 3.805-.994-1.034-2.991-2.4-3.846-3.614z" fill="#fff"/></svg>