<!-- by TradingView --><svg width="56" height="56" viewBox="0 0 56 56" xmlns="http://www.w3.org/2000/svg"><path fill="#015DAA" d="M0 0h56v56H0z"/><path d="M9.56 30.41c-.59.37-1.35.59-2.18.59C5.51 31 4 29.88 4 28.5S5.51 26 7.38 26c.83 0 1.6.22 2.18.59v1.14c-.4-.51-1.2-.86-2.1-.86-1.33 0-2.46.73-2.46 1.63 0 .9 1.13 1.63 2.45 1.63.91 0 1.7-.35 2.11-.86v1.14ZM33.4 30.41c-.58.37-1.31.59-2.12.59-1.81 0-3.28-1.12-3.28-2.5s1.47-2.5 3.28-2.5c.8 0 1.54.22 2.12.59v1.14c-.4-.51-1.17-.86-2.05-.86-1.29 0-2.33.73-2.33 1.63 0 .9 1.04 1.63 2.33 1.63.88 0 1.65-.35 2.05-.86v1.14Z" fill="#fff"/><path fill-rule="evenodd" d="M14.4 26H11v5h1v-1.69h2.07L15.09 31h1.14l-1.12-1.85a1.66 1.66 0 0 0-.72-3.15Zm-.1 1H12v1.4h2.3a.7.7 0 0 0 0-1.4Z" fill="#fff"/><path d="M47 26v1h2v4h1v-4h2v-1h-5ZM18 26h-1v5h5v-1h-4v-1h3v-1h-3v-1h4v-1h-4ZM35 26h-1v5h5v-1h-4v-1h3v-1h-3v-1h4v-1h-4ZM25.18 26c1.07.03 1.85.27 2.11.39l-.1.88c-.25-.15-1-.35-1.82-.4-.81-.05-1.61.12-1.63.4-.01.27.3.48 1.44.64 1.15.16 2.43.44 2.42 1.58-.01 1.14-1.18 1.53-2.56 1.5a9.44 9.44 0 0 1-2.42-.35v-1c.38.14 1.47.48 2.42.47.96-.02 1.53-.23 1.5-.62-.02-.4-.63-.5-1.5-.62-.86-.13-2.28-.3-2.33-1.45-.05-1.16 1.13-1.45 2.47-1.42ZM40 26v5h1v-3.2l5 3.2v-5h-1v3.2L40 26Z" fill="#fff"/></svg>