<!-- by TradingView --><svg width="56" height="56" viewBox="0 0 56 56" xmlns="http://www.w3.org/2000/svg"><path fill="#F0F3FA" d="M0 0h56v56H0z"/><path d="m27.98 11.4-.7 1.94-6.92-.5c4.96-2.87 12.46-2.27 17.09.98a17.68 17.68 0 0 1 5.72 6.53c2.86 5 2.24 12.44-.99 17.08a17.1 17.1 0 0 1-17.6 7.23 17.76 17.76 0 0 1-8.55-4.62l2.64-.17-.4 1.44c3.22-2.14 6.44-4.62 9.64-6.94 3.35 2.24 6.45 4.7 9.77 6.99-1.06-3.8-2.48-7.59-3.63-11.44l9.7-6.92H31.73l-3.75-11.6Z" fill="#0038A8"/><path d="M27.17 13.7c-.24.7-.46 1.43-.7 2.15l-9.53-.77 1.04-.8c3.12-.12 6.06-.48 9.19-.58Zm-12.03 3.2c3.74-.25 7.5-.47 11.2-.71l-.74 2.18-10.94-.9.48-.58Zm-1.8 2.5c4.01-.14 8.2-.57 12.22-.74l-.7 2.2-11.83-.92.3-.53Zm10.99 1.74h.4l-.5 1.86H12.28l2.02 1.4c0-.02-2.86-.25-2.86-.25.18-.74.4-1.48.67-2.19l12.22-.82Zm-9.46 3.66 2.65 1.95-6.43-.46.17-1.31 3.61-.18Zm6 4.38L11 28.36v-.86l7.05-.4 2.81 2.08Zm.36.24.62.46-.5 1.78-10.06-.75c-.07-.28-.1-.57-.12-.86l10.06-.63Zm-9.24 4.26a6.56 6.56 0 0 1-.3-1.08l9.54-.58-.75 2.36-8.5-.7Zm7.67 3.25-6.4-.53-.65-1.28 7.75-.45-.7 2.26Zm-.12.29-.74 2.36-3.47-.24-1.32-1.74 5.53-.38Z" fill="#0038A8"/></svg>