<!-- by TradingView --><svg width="56" height="56" viewBox="0 0 56 56" xmlns="http://www.w3.org/2000/svg"><path fill="#0096D5" d="M0 0h56v56H0z"/><path d="M23 28a8 8 0 1 1-3.3-6.48l-1.76 2.44A5 5 0 1 0 20 27.95l.12.13 2.46-2.63A8 8 0 0 1 23 28Z" fill="#FFFCFC"/><path d="M28 36a8 8 0 0 0 7.57-10.59l-2.34 2.67-.23-.28v.2a5 5 0 0 1-9.52 2.14c-.12.62-.67 1.79-1.53 3.09A7.98 7.98 0 0 0 28 36Zm-7.44-5.06L23 27.7a5 5 0 0 1 8.02-3.68l1.77-2.42a8 8 0 0 0-12.24 9.34Z" fill="#FFFCFC"/><path d="M41 36a8 8 0 0 0 7.66-10.32L46 28.5l-.02-.03a5 5 0 0 1-9.5 1.67 9.12 9.12 0 0 1-1.47 3.16A7.98 7.98 0 0 0 41 36Zm-7.4-4.96 2.4-3.17a5 5 0 0 1 8.12-3.78l1.83-2.38a8 8 0 0 0-12.35 9.32Z" fill="#FFFCFC"/></svg>