<!-- by TradingView --><svg width="56" height="56" viewBox="0 0 56 56" xmlns="http://www.w3.org/2000/svg"><path fill="#F0F3FA" d="M0 0h56v56H0z"/><path d="M13 28c0-8.84 7.01-16 15.66-16h9.85c.4 0 .62.45.4.78l-1.3 2a.49.49 0 0 1-.4.22h-8.55c-7.03 0-12.72 5.82-12.72 13s5.7 13 12.72 13h4.96c.39 0 .62.45.4.78l-1.3 2a.49.49 0 0 1-.4.22h-3.66C20 44 13 36.84 13 28Zm7 0c0-4.42 3.38-8 7.55-8h6.2c.38 0 .6.45.4.78l-1.27 2a.47.47 0 0 1-.39.22h-4.94a4.87 4.87 0 0 0-4.72 5c0 2.76 2.12 5 4.72 5h9.98c.37 0 .6.45.39.78l-1.26 2a.47.47 0 0 1-.4.22h-8.7C23.37 36 20 32.42 20 28Z" fill="#3CB464"/></svg>