<!-- by TradingView --><svg width="56" height="56" viewBox="0 0 56 56" xmlns="http://www.w3.org/2000/svg"><path fill="#1C9AD5" d="M0 0h56v56H0z"/><path fill-rule="evenodd" d="M22 27a8 8 0 1 0 0-16 8 8 0 0 0 0 16Zm0-2a6 6 0 1 0 0-12 6 6 0 0 0 0 12ZM38.5 36a5.5 5.5 0 1 0 0-11 5.5 5.5 0 0 0 0 11Zm0-2a3.5 3.5 0 1 0 0-7 3.5 3.5 0 0 0 0 7ZM23.5 46a5.5 5.5 0 1 0 0-11 5.5 5.5 0 0 0 0 11Zm0-2a3.5 3.5 0 1 0 0-7 3.5 3.5 0 0 0 0 7Z" fill="#fff"/><path d="m34.49 28.9-7.8-5.69 1.4-1.86 7.8 5.68-1.4 1.86ZM25.95 37.24l7.9-5.55 1.35 1.9-7.89 5.53-1.36-1.88Z" fill="#fff"/></svg>