<!-- by TradingView --><svg xmlns="http://www.w3.org/2000/svg" width="56" height="56" viewBox="0 0 56 56"><path fill="#F0F3FA" d="M0 0h56v56H0z"/><path d="M34.93 23.87c.7.72 1.64 1.13 2.63 1.13h2.02c3.06 0 4.55-3.8 2.34-6l-4.47-4.43A5.38 5.38 0 0 0 33.66 13h-9.22l10.5 10.87Z" fill="url(#aajwuaogh)"/><path d="M21.9 13.02c-.55.07-1.07.33-1.48.75l-6.5 6.62a3.27 3.27 0 0 0-.1 4.43l1.4 1.57a2.99 2.99 0 0 0 4.42.1l7.59-7.88-5.32-5.59Z" fill="url(#bajwuaogh)"/><path d="m35 42.98-5.13-5.33 5.2-5.8c.62-.65 1.52-.85 2.4-.85h2.9c.4 0 .8.1 1.13.35 1.73 1.35 2.06 4.34.48 5.86l-5.03 4.85c-.53.52-1.22.84-1.95.92Z" fill="url(#cajwuaogh)"/><path d="M32.48 43 19.52 29.62a2.83 2.83 0 0 0-4.02-.06l-1.52 1.47a3.27 3.27 0 0 0-.08 4.58l6.17 6.4c.6.64 1.42.99 2.28.99h10.13Z" fill="#454F8C"/><defs><linearGradient id="bajwuaogh" x1="26.42" y1="19.03" x2="12.98" y2="21.92" gradientUnits="userSpaceOnUse"><stop stop-color="#D7282F"/><stop offset="1" stop-color="#F26A25"/></linearGradient><linearGradient id="cajwuaogh" x1="41.83" y1="32.02" x2="32.67" y2="39.72" gradientUnits="userSpaceOnUse"><stop stop-color="#A3B2D0"/><stop offset="1" stop-color="#585D8E"/></linearGradient><radialGradient id="aajwuaogh" cx="0" cy="0" r="1" gradientUnits="userSpaceOnUse" gradientTransform="rotate(-155.36 23.56 6.58) scale(17.4883 28.5979)"><stop stop-color="#D7282F"/><stop offset="1" stop-color="#F76A35"/></radialGradient></defs></svg>