<!-- by TradingView --><svg width="56" height="56" viewBox="0 0 56 56" fill="none" xmlns="http://www.w3.org/2000/svg">
<rect width="56" height="56" fill="#F0F3FA"/>
<path fill-rule="evenodd" clip-rule="evenodd" d="M11.2413 20.2238C9.0633 22.3531 8.00873 25.0304 8.00005 28.0119C7.98268 34.1583 13.1068 39.0073 19.1068 38.9918C24.5912 38.9775 30.6372 34.3523 31 28.5964C31.2235 25.0375 32.931 21.8409 37.0502 22C40.4495 22.1313 42.9787 24.5714 43 28C43.0202 31.2645 40.7995 34 37.6079 34C33.9816 34 32.3989 32.8057 32.3518 32.8575C32.3256 32.8866 32.0369 33.4378 31.7102 34.0828C31.3837 34.7276 30.8601 35.6078 30.547 36.0387L29.9774 36.8223L31.0812 37.4667C31.6881 37.8212 32.7696 38.3081 33.4844 38.5489C34.5874 38.9202 35.0669 38.9884 36.6524 38.9997C39.7099 39.0213 42.5067 37.9677 44.673 35.8265C48.1703 32.3692 48.9707 27.5367 46.7871 23.0621C44.9109 19.2171 40.8604 16.9944 36.6524 17.0242C33.2896 17.048 30.095 18.5693 28.0149 21.2621C26.4793 23.2498 25.8669 24.965 25.6233 27.9607C25.3262 31.6151 22.8712 34.0096 19.0255 34C15.5606 33.9913 13 31.4808 13 28.0119C13 24.513 15.5083 22 19.0255 22C20.8732 22 21.7638 22.1591 22.9151 23.028L23.6192 23.5591L23.8897 22.8587C24.0385 22.4734 24.5568 21.3066 25.0378 20.5492L25.9125 19.1721L25.3121 18.7975C23.4743 17.6513 21.7048 17.0984 19.5941 17.0104C16.4316 16.8787 13.5146 18.0013 11.2413 20.2238Z" fill="#202020"/>
<circle cx="37" cy="28" r="2" fill="#E92C32"/>
</svg>
