<!-- by TradingView --><svg width="56" height="56" viewBox="0 0 56 56" fill="none" xmlns="http://www.w3.org/2000/svg"><path fill="#F0F3FA" d="M0 0h56v56H0z"/><path d="M25.26 13c.1.12.3.2.45.18l.6-.1a.54.54 0 0 0 .37-.31l.22-.58a.59.59 0 0 0-.07-.5l-.37-.5a.53.53 0 0 0-.45-.19l-.6.1a.53.53 0 0 0-.22.1.56.56 0 0 0-.16.21l-.22.59a.6.6 0 0 0 .07.5l.38.5ZM30.1 13.07a.53.53 0 0 1-.46-.19l-.33-.44a.59.59 0 0 1-.07-.5l.2-.52c.05-.15.22-.3.37-.32l.54-.08a.51.51 0 0 1 .27.05h.01l.02.01a.57.57 0 0 1 .15.13l.33.44a.58.58 0 0 1 .07.5l-.2.52a.56.56 0 0 1-.15.2.53.53 0 0 1-.23.12l-.53.08ZM33.9 13.91c.07.03.16.05.24.04l.32-.05a.53.53 0 0 0 .34-.24.6.6 0 0 0 .04-.08l.12-.32a.6.6 0 0 0-.07-.5l-.2-.26a.53.53 0 0 0-.46-.2l-.32.06a.53.53 0 0 0-.22.1.56.56 0 0 0-.16.21l-.12.32a.6.6 0 0 0 .07.5l.2.27c.06.07.13.12.21.15ZM37.77 16.06c.08.03.16.04.24.03l.37-.05a.54.54 0 0 0 .38-.32l.14-.36a.58.58 0 0 0-.08-.5l-.23-.3a.54.54 0 0 0-.45-.2l-.36.06a.54.54 0 0 0-.38.32l-.14.36a.6.6 0 0 0 .07.5l.23.3c.06.07.13.12.2.16ZM35.1 18.37a.52.52 0 0 1-.45-.2l-.47-.6a.58.58 0 0 1-.07-.51l.28-.73a.56.56 0 0 1 .16-.21c.06-.05.14-.1.22-.11l.75-.12a.52.52 0 0 1 .45.2l.47.61c.1.13.12.35.07.5l-.28.73a.56.56 0 0 1-.24.27.53.53 0 0 1-.14.05l-.74.12Z" fill="#1A936F"/><path d="M27.54 20.5c.1.12.3.2.45.18l1.02-.16a.53.53 0 0 0 .23-.1.57.57 0 0 0 .15-.21l.38-1.01a.55.55 0 0 0 .02-.1.6.6 0 0 0-.1-.4l-.63-.85a.54.54 0 0 0-.46-.2l-1.02.17a.54.54 0 0 0-.38.31l-.38 1.01a.6.6 0 0 0 .07.5l.65.86Z" fill="url(#ac1rznx5l)"/><path d="M25 24.3c.07.04.16.05.24.04l1.13-.17a.53.53 0 0 0 .23-.11.56.56 0 0 0 .15-.2l.42-1.12a.6.6 0 0 0-.07-.5l-.7-.94a.52.52 0 0 0-.46-.19l-1.13.18a.53.53 0 0 0-.23.1.56.56 0 0 0-.15.21L24 22.72a.6.6 0 0 0 .07.5l.71.94a.55.55 0 0 0 .2.15Z" fill="url(#bc1rznx5l)"/><path d="M29.42 25.15a.53.53 0 0 1-.45-.19l-.8-1.07a.6.6 0 0 1-.08-.5l.48-1.27a.57.57 0 0 1 .28-.28l.02-.01a.7.7 0 0 1 .08-.03l1.29-.2c.15-.02.35.06.45.19l.81 1.07c.1.13.13.35.07.5l-.47 1.27a.54.54 0 0 1-.38.32l-1.3.2Z" fill="url(#cc1rznx5l)"/><path d="M31.9 21.31c.08.04.16.05.24.04l.97-.15a.53.53 0 0 0 .23-.11.57.57 0 0 0 .15-.2l.36-.96a.6.6 0 0 0-.07-.5l-.6-.8a.54.54 0 0 0-.24-.16h-.01a.52.52 0 0 0-.21-.03l-.97.15a.53.53 0 0 0-.23.11.56.56 0 0 0-.15.2l-.36.96a.6.6 0 0 0 .07.5l.61.8a.54.54 0 0 0 .2.15Z" fill="url(#dc1rznx5l)"/><path d="M38.8 19.84a.53.53 0 0 1-.3-.18l-.26-.35a.59.59 0 0 1-.07-.5l.15-.42a.56.56 0 0 1 .38-.31l.43-.07c.15-.02.35.06.45.2l.27.34a.58.58 0 0 1 .07.5l-.16.42a.58.58 0 0 1-.15.2.53.53 0 0 1-.23.11l-.42.07a.51.51 0 0 1-.13 0l-.01-.01h-.02Z" fill="url(#ec1rznx5l)"/><path d="M41.24 18.69c.08.03.16.04.25.03l.14-.02a.54.54 0 0 0 .38-.31l.05-.15a.6.6 0 0 0-.07-.5l-.09-.11a.53.53 0 0 0-.45-.2l-.14.03a.53.53 0 0 0-.31.2.57.57 0 0 0-.07.11l-.06.14a.6.6 0 0 0 .07.5l.1.13c.05.06.12.11.2.15Z" fill="url(#fc1rznx5l)"/><path d="M36.13 22.35a.52.52 0 0 1-.45-.19l-.5-.66a.58.58 0 0 1-.07-.5l.3-.79a.55.55 0 0 1 .04-.08.56.56 0 0 1 .34-.23l.8-.13h.02a.42.42 0 0 1 .05 0 .5.5 0 0 1 .17.04c.08.03.15.08.2.15l.5.66a.58.58 0 0 1 .08.5l-.3.8a.57.57 0 0 1-.15.2.53.53 0 0 1-.23.1l-.8.13Z" fill="url(#gc1rznx5l)"/><path d="M39.17 23.4c.05.02.11.03.17.02l.54-.08a.53.53 0 0 0 .23-.11.56.56 0 0 0 .15-.2l.2-.53a.6.6 0 0 0-.07-.5l-.34-.45a.52.52 0 0 0-.45-.19l-.54.09a.53.53 0 0 0-.22.1.56.56 0 0 0-.16.21l-.2.53a.6.6 0 0 0 .07.5l.34.45a.54.54 0 0 0 .28.17Z" fill="url(#hc1rznx5l)"/><path d="M42.25 22.77a.53.53 0 0 1-.46-.18l-.26-.35a.6.6 0 0 1-.07-.5l.15-.42c.06-.16.23-.3.38-.32l.43-.06a.52.52 0 0 1 .45.18l.27.35c.1.13.12.35.07.5l-.16.42a.57.57 0 0 1-.15.2.53.53 0 0 1-.23.12l-.43.06Z" fill="url(#ic1rznx5l)"/><path d="M22.16 13.3a.52.52 0 0 1-.45-.2l-.2-.26a.58.58 0 0 1-.07-.5l.12-.31c.06-.15.23-.3.38-.32l.32-.04a.52.52 0 0 1 .45.18l.2.27c.1.12.13.35.07.5l-.12.3a.56.56 0 0 1-.15.21.53.53 0 0 1-.23.11l-.32.05Z" fill="url(#jc1rznx5l)"/><path d="M26.57 16.38c.1.13.3.21.45.19l.7-.11a.54.54 0 0 0 .37-.32l.27-.69a.59.59 0 0 0-.07-.5l-.44-.58a.52.52 0 0 0-.45-.19l-.7.1a.53.53 0 0 0-.39.32l-.26.7a.6.6 0 0 0-.02.25c.01.1.05.17.1.25l.44.58Z" fill="url(#kc1rznx5l)"/><path d="M31.08 17.28a.52.52 0 0 1-.45-.19l-.47-.61a.59.59 0 0 1-.08-.5l.28-.74c.06-.15.23-.3.38-.32l.75-.11a.52.52 0 0 1 .4.14l.02.01v.01l.02.01V15l.48.61a.57.57 0 0 1 .1.25.6.6 0 0 1-.03.26l-.28.73a.56.56 0 0 1-.23.26h-.01l-.01.01a.52.52 0 0 1-.13.04l-.74.12Z" fill="url(#lc1rznx5l)"/><path d="M23.63 19.83c.1.13.3.21.45.19l.8-.13a.53.53 0 0 0 .23-.1.56.56 0 0 0 .15-.21l.3-.8a.6.6 0 0 0 0-.31v-.04a.68.68 0 0 0-.07-.15l-.5-.66a.52.52 0 0 0-.46-.19l-.8.13a.54.54 0 0 0-.38.31l-.3.8a.6.6 0 0 0 .07.5l.5.66Z" fill="url(#mc1rznx5l)"/><path d="M23.1 16.34a.52.52 0 0 1-.45-.19l-.31-.41a.58.58 0 0 1-.07-.5l.18-.5a.56.56 0 0 1 .16-.2c.06-.06.14-.1.22-.12l.5-.08c.16-.02.36.06.46.19l.32.42a.58.58 0 0 1 .07.5l-.2.5a.57.57 0 0 1-.15.2.53.53 0 0 1-.22.11l-.5.08Z" fill="url(#nc1rznx5l)"/><path d="M18.9 15.89c.1.12.3.2.45.18l.42-.06a.53.53 0 0 0 .23-.11.56.56 0 0 0 .15-.2l.16-.42a.6.6 0 0 0-.07-.5l-.27-.35a.54.54 0 0 0-.32-.18h-.13l-.42.05a.53.53 0 0 0-.38.32l-.16.42a.6.6 0 0 0 .08.5l.26.35Z" fill="url(#oc1rznx5l)"/><path d="M16.75 16.09a.52.52 0 0 1-.45-.2l-.15-.18a.59.59 0 0 1-.07-.5l.08-.23a.57.57 0 0 1 .16-.2c.06-.05.14-.1.22-.11l.23-.04a.51.51 0 0 1 .45.2l.14.18a.58.58 0 0 1 .07.5l-.08.23a.54.54 0 0 1-.38.31l-.22.04Z" fill="url(#pc1rznx5l)"/><path d="M19.76 19.53a.54.54 0 0 0 .25.04l.53-.09a.53.53 0 0 0 .22-.1.57.57 0 0 0 .16-.21l.2-.53a.59.59 0 0 0-.07-.5l-.34-.44a.52.52 0 0 0-.45-.19l-.53.09a.53.53 0 0 0-.38.31l-.2.52a.59.59 0 0 0 .07.5l.34.45c.05.06.12.12.2.15Z" fill="url(#qc1rznx5l)"/><path d="M16.47 19.31a.52.52 0 0 1-.34-.18l-.28-.38a.59.59 0 0 1-.07-.5l.18-.45a.56.56 0 0 1 .24-.26c.04-.03.09-.04.14-.06l.45-.06a.52.52 0 0 1 .42.15l.01.01.02.02.29.38c.1.13.12.35.07.5l-.17.45a.54.54 0 0 1-.38.31l-.45.07h-.13Z" fill="url(#rc1rznx5l)"/><path d="M20.85 23.58c.07.03.16.05.24.04l.94-.15a.54.54 0 0 0 .38-.31l.34-.92a.6.6 0 0 0-.07-.5l-.58-.78a.52.52 0 0 0-.45-.19l-.94.15a.53.53 0 0 0-.22.11.56.56 0 0 0-.16.2l-.35.93a.6.6 0 0 0-.01.06v.05a.6.6 0 0 0 .09.39l.58.77c.06.07.13.12.2.15Z" fill="url(#sc1rznx5l)"/><path d="M33.68 25.75a.53.53 0 0 1-.45-.18l-.7-.94a.58.58 0 0 1-.07-.5l.41-1.1c.06-.16.23-.3.38-.32l1.13-.17a.52.52 0 0 1 .24.03c.08.04.15.09.2.15l.71.94a.58.58 0 0 1 .07.5l-.41 1.1a.54.54 0 0 1-.38.32l-1.13.17Z" fill="url(#tc1rznx5l)"/><path d="M37.36 26.65h.1l.81-.12a.53.53 0 0 0 .38-.32l.3-.79a.6.6 0 0 0-.07-.5l-.5-.67a.53.53 0 0 0-.46-.19l-.81.13a.53.53 0 0 0-.23.1.56.56 0 0 0-.15.21l-.3.8a.6.6 0 0 0 .07.5l.5.66a.54.54 0 0 0 .33.19h.03Z" fill="url(#uc1rznx5l)"/><path d="M41.14 27.12a.52.52 0 0 1-.45-.19l-.47-.62a.58.58 0 0 1-.07-.5l.28-.74a.56.56 0 0 1 .16-.2c.06-.06.14-.1.22-.12l.75-.11a.52.52 0 0 1 .45.18l.48.63a.58.58 0 0 1 .07.5l-.28.74a.56.56 0 0 1-.24.26.53.53 0 0 1-.14.05l-.76.12Z" fill="url(#vc1rznx5l)"/><path d="M43.85 26.2c.1.13.3.22.45.2l.21-.04a.53.53 0 0 0 .39-.31l.07-.21a.59.59 0 0 0-.07-.5l-.13-.18a.54.54 0 0 0-.34-.18h-.12l-.2.03a.53.53 0 0 0-.38.31l-.08.21a.6.6 0 0 0 .07.5l.13.18Z" fill="url(#wc1rznx5l)"/><path d="M11.9 23.63a.53.53 0 0 1-.45-.2l-.01-.01a.58.58 0 0 1-.07-.5v-.03c.06-.15.23-.3.38-.32h.03a.52.52 0 0 1 .45.18l.02.03c.1.12.13.35.07.5v.02a.56.56 0 0 1-.16.2.53.53 0 0 1-.23.12h-.03Z" fill="url(#xc1rznx5l)"/><path d="M13.43 19.2c.1.13.3.21.45.19l.14-.02a.53.53 0 0 0 .32-.22.58.58 0 0 0 .06-.1l.06-.14a.58.58 0 0 0-.07-.5l-.1-.13a.53.53 0 0 0-.44-.18l-.15.02a.53.53 0 0 0-.23.11.56.56 0 0 0-.15.2l-.05.15a.6.6 0 0 0 .07.5l.09.12Z" fill="url(#yc1rznx5l)"/><path d="M17.26 23.18a.52.52 0 0 1-.46-.18l-.4-.54a.6.6 0 0 1-.07-.5l.24-.63a.57.57 0 0 1 .15-.2c.07-.06.15-.1.23-.12l.64-.1a.52.52 0 0 1 .45.2l.4.52c.1.13.13.36.07.5l-.24.64a.56.56 0 0 1-.15.2.53.53 0 0 1-.23.11l-.63.1Z" fill="url(#zc1rznx5l)"/><path d="M13.61 22.68c.1.13.3.21.45.2v-.01l.42-.07a.54.54 0 0 0 .38-.31l.16-.42a.6.6 0 0 0-.07-.5l-.27-.35a.52.52 0 0 0-.45-.18l-.42.06a.52.52 0 0 0-.13.05h-.01l-.01.01-.02.01-.02.02a.57.57 0 0 0-.19.23l-.15.41a.6.6 0 0 0 .07.5l.26.35Z" fill="url(#aac1rznx5l)"/><path d="M18.67 26.9a.52.52 0 0 1-.46-.19l-.46-.62a.58.58 0 0 1-.07-.5l.27-.73c.06-.15.23-.3.38-.32l.75-.11c.15-.03.36.06.45.18l.47.62a.58.58 0 0 1 .07.5l-.28.74a.54.54 0 0 1-.38.32l-.74.11Z" fill="url(#abc1rznx5l)"/><path d="M22.25 27.53a.51.51 0 0 0 .15.04h.04a.5.5 0 0 0 .05 0l1.03-.15a.54.54 0 0 0 .38-.32l.38-1a.59.59 0 0 0-.07-.51l-.65-.85a.53.53 0 0 0-.45-.19l-1.02.16-.05.01-.01.01a.46.46 0 0 0-.06.02.56.56 0 0 0-.26.28l-.38 1a.59.59 0 0 0 .07.5l.64.85c.06.07.13.12.2.15Z" fill="url(#acc1rznx5l)"/><path d="M26.64 28.38a.52.52 0 0 1-.46-.18l-.69-.92a.59.59 0 0 1-.07-.5l.4-1.09a.56.56 0 0 1 .21-.23v-.01h.02l.02-.02a.53.53 0 0 1 .14-.05l1.1-.17a.53.53 0 0 1 .46.18l.69.92c.1.12.12.35.07.5l-.4 1.09a.57.57 0 0 1-.16.2.53.53 0 0 1-.23.11l-1.1.17Z" fill="url(#adc1rznx5l)"/><path d="M30.74 29.15h.01l.02.01.02.01h.03c.05.02.11.03.17.02l1.2-.18a.55.55 0 0 0 .37-.32l.44-1.17a.6.6 0 0 0 .03-.22v-.04a.58.58 0 0 0-.1-.24l-.74-.98a.52.52 0 0 0-.45-.19l-1.2.18a.53.53 0 0 0-.22.11.56.56 0 0 0-.15.2l-.45 1.18a.6.6 0 0 0 .07.5l.75.98c.05.07.12.12.2.15Z" fill="url(#aec1rznx5l)"/><path d="M35.3 29.97a.52.52 0 0 1-.34-.08l-.01-.01-.02-.01v-.01l-.02-.02a.45.45 0 0 1-.06-.05l-.6-.8a.6.6 0 0 1-.08-.5l.36-.95c.06-.16.23-.3.38-.32l.97-.15a.52.52 0 0 1 .45.18l.6.8c.1.13.13.36.08.5l-.36.96a.56.56 0 0 1-.16.2.53.53 0 0 1-.22.11l-.97.15Z" fill="url(#afc1rznx5l)"/><path d="M39.04 30.53c.07.03.16.04.24.04l.8-.13a.54.54 0 0 0 .38-.31l.3-.79a.6.6 0 0 0-.07-.5l-.5-.67a.52.52 0 0 0-.45-.19l-.8.13a.54.54 0 0 0-.39.32l-.3.78a.6.6 0 0 0 .08.5l.5.67a.56.56 0 0 0 .2.15Z" fill="url(#agc1rznx5l)"/><path d="M43 30.34a.53.53 0 0 1-.46-.2l-.25-.33a.6.6 0 0 1-.07-.5l.15-.4c.05-.15.22-.29.37-.31l.4-.07a.52.52 0 0 1 .46.2l.26.33a.58.58 0 0 1 .07.5l-.16.4a.55.55 0 0 1-.38.31l-.4.06Z" fill="url(#ahc1rznx5l)"/><path d="M43.32 34.12h.1l.4-.06a.52.52 0 0 0 .3-.2h.02v-.02l.01-.01a.57.57 0 0 0 .05-.09l.15-.4a.6.6 0 0 0-.07-.5l-.25-.34a.52.52 0 0 0-.46-.19l-.4.07a.53.53 0 0 0-.36.27l-.03.04-.15.4a.6.6 0 0 0 .07.5l.26.35a.55.55 0 0 0 .28.17l.08.01Z" fill="url(#aic1rznx5l)"/><path d="M40.5 34.26a.52.52 0 0 1-.46-.19l-.4-.53a.58.58 0 0 1-.07-.5l.24-.63a.56.56 0 0 1 .15-.2c.07-.06.15-.1.23-.12l.64-.1a.52.52 0 0 1 .45.2l.4.52.05.08v.02a.54.54 0 0 1 .04.14.6.6 0 0 1-.02.26l-.23.63a.57.57 0 0 1-.16.2.53.53 0 0 1-.22.12l-.64.1Z" fill="url(#ajc1rznx5l)"/><path d="M36.85 34.27a.54.54 0 0 0 .11 0l.82-.13a.54.54 0 0 0 .38-.32l.3-.8a.6.6 0 0 0-.07-.5l-.51-.68a.52.52 0 0 0-.45-.2l-.83.14a.55.55 0 0 0-.38.31l-.3.8a.6.6 0 0 0 .07.51l.52.68a.54.54 0 0 0 .34.19Z" fill="url(#akc1rznx5l)"/><path d="M32.7 33.33a.53.53 0 0 1-.45-.19l-.64-.85a.58.58 0 0 1-.07-.5l.38-1a.57.57 0 0 1 .15-.2c.07-.06.15-.1.23-.12l1.02-.15a.52.52 0 0 1 .45.18l.64.85c.1.13.12.35.07.5l-.38 1v.02l-.02.02a.51.51 0 0 1-.05.08.56.56 0 0 1-.3.2l-1.03.16Z" fill="url(#alc1rznx5l)"/><path d="M28.03 32.22c.08.03.16.05.24.04l1.18-.18a.57.57 0 0 0 .38-.32l.43-1.15a.6.6 0 0 0-.07-.5l-.73-.98a.52.52 0 0 0-.45-.18l-1.18.18a.54.54 0 0 0-.38.31l-.43 1.16a.6.6 0 0 0 .07.5l.73.97c.06.07.13.12.2.15Z" fill="url(#amc1rznx5l)"/><path d="M23.73 32.16a.52.52 0 0 1-.33-.09h-.02l-.02-.02a.55.55 0 0 1-.08-.08l-.85-1.11a.58.58 0 0 1-.09-.25v-.01a.39.39 0 0 1 0-.06c0-.06 0-.13.02-.19l.5-1.31a.56.56 0 0 1 .26-.28.52.52 0 0 1 .12-.04l1.34-.2a.5.5 0 0 1 .24.03c.08.03.15.08.2.15l.85 1.1a.57.57 0 0 1 .1.25.6.6 0 0 1-.03.26l-.5 1.32a.56.56 0 0 1-.15.2.53.53 0 0 1-.23.12l-1.33.2Z" fill="url(#anc1rznx5l)"/><path d="M19.83 29.96c.1.13.3.21.45.19l.76-.12a.57.57 0 0 0 .38-.32l.28-.74a.6.6 0 0 0-.07-.5l-.48-.62a.52.52 0 0 0-.45-.19l-.75.12a.57.57 0 0 0-.38.31l-.28.74a.6.6 0 0 0 .07.5l.47.63Z" fill="url(#aoc1rznx5l)"/><path d="M15.16 26.74a.52.52 0 0 1-.46-.19l-.36-.48a.58.58 0 0 1-.07-.5l.21-.58a.57.57 0 0 1 .16-.2c.06-.06.14-.1.22-.11l.59-.1a.52.52 0 0 1 .42.16l.01.02h.01v.01l.38.49c.1.13.12.35.07.5l-.22.57a.56.56 0 0 1-.26.28.53.53 0 0 1-.12.04l-.58.09Z" fill="url(#apc1rznx5l)"/><path d="M11.82 26.58c.1.12.3.2.45.18l.32-.04a.53.53 0 0 0 .22-.12.56.56 0 0 0 .16-.2l.11-.31a.59.59 0 0 0-.07-.5l-.2-.27a.53.53 0 0 0-.45-.18l-.31.05h-.04l-.01.01h-.03l-.02.02a.56.56 0 0 0-.28.29l-.12.3a.59.59 0 0 0 .07.5l.2.27Z" fill="url(#aqc1rznx5l)"/><path d="M16.99 30.86a.52.52 0 0 1-.46-.19l-.57-.75a.54.54 0 0 1-.05-.1.59.59 0 0 1-.02-.4l.34-.9a.57.57 0 0 1 .38-.31l.9-.15a.52.52 0 0 1 .46.19l.58.76c.1.12.12.35.07.5l-.35.9a.56.56 0 0 1-.38.3l-.9.15Z" fill="url(#arc1rznx5l)"/><path d="M19.86 34.41a.55.55 0 0 0 .2.02l1.14-.18a.55.55 0 0 0 .38-.31l.43-1.13a.58.58 0 0 0-.07-.5l-.72-.96a.52.52 0 0 0-.46-.19l-1.14.18h-.03l-.02.01a.56.56 0 0 0-.18.1.56.56 0 0 0-.15.2l-.43 1.14a.6.6 0 0 0 .07.5l.72.95a.53.53 0 0 0 .06.06h.01l.01.02h.01a.53.53 0 0 0 .17.09Z" fill="url(#asc1rznx5l)"/><path d="M26.17 35.02h-.09a.52.52 0 0 1-.36-.2l-.54-.7a.59.59 0 0 1-.07-.5l.32-.84a.56.56 0 0 1 .16-.2c.06-.06.14-.1.22-.12l.86-.13a.52.52 0 0 1 .45.19l.54.7c.1.13.12.36.07.5l-.32.85a.54.54 0 0 1-.05.09.53.53 0 0 1-.33.23l-.86.13Z" fill="url(#atc1rznx5l)"/><path d="M22.89 37.23a.4.4 0 0 0 .03 0l1.04-.16a.55.55 0 0 0 .38-.31l.39-1.02a.6.6 0 0 0 .02-.26v-.02a.57.57 0 0 0-.1-.23l-.65-.86a.52.52 0 0 0-.45-.19l-1.04.16a.55.55 0 0 0-.38.32l-.38 1.02a.6.6 0 0 0 .07.5l.65.86a.55.55 0 0 0 .36.2h.06Z" fill="url(#auc1rznx5l)"/><path d="M29.87 36.4a.52.52 0 0 1-.45-.2l-.57-.75a.58.58 0 0 1-.07-.5l.33-.9c.06-.16.23-.3.39-.32l.91-.15c.15-.02.36.06.45.2l.58.75a.58.58 0 0 1 .07.5l-.34.9a.56.56 0 0 1-.15.2.53.53 0 0 1-.23.12l-.92.14Z" fill="url(#avc1rznx5l)"/><path d="M33.6 37.45c.1.13.3.21.46.19l.97-.16a.55.55 0 0 0 .38-.31l.37-.96a.6.6 0 0 0-.07-.5l-.62-.81a.54.54 0 0 0-.45-.2l-.98.16a.53.53 0 0 0-.23.11.56.56 0 0 0-.15.2l-.36.97a.6.6 0 0 0 .07.5l.61.81Z" fill="url(#awc1rznx5l)"/><path d="M38.22 38.1a.52.52 0 0 1-.45-.18l-.4-.54a.6.6 0 0 1-.08-.5l.24-.63c.06-.15.23-.29.38-.31l.63-.1a.52.52 0 0 1 .45.18l.4.53c.1.13.13.36.08.5l-.24.64a.55.55 0 0 1-.38.31l-.63.1Z" fill="url(#axc1rznx5l)"/><path d="M40.96 37.4c.1.12.3.2.45.18v-.01l.43-.07a.54.54 0 0 0 .38-.31l.15-.41a.6.6 0 0 0-.07-.5l-.27-.35a.53.53 0 0 0-.45-.19l-.42.07a.54.54 0 0 0-.38.31l-.16.42a.6.6 0 0 0 .07.5l.27.35Z" fill="url(#ayc1rznx5l)"/><path d="M35.04 41.63a.53.53 0 0 1-.45-.18l-.58-.77a.6.6 0 0 1-.07-.5l.34-.9c.05-.15.22-.3.37-.32l.93-.14a.52.52 0 0 1 .45.19l.57.76c.1.13.13.35.07.5l-.34.9a.55.55 0 0 1-.38.32l-.92.14Z" fill="url(#azc1rznx5l)"/><path d="M38.16 40.56c.1.13.3.21.45.19h.07a.55.55 0 0 0 .38-.33l.02-.06a.6.6 0 0 0-.07-.5l-.04-.06a.54.54 0 0 0-.32-.19h-.2a.56.56 0 0 0-.38.33l-.03.06a.6.6 0 0 0 .08.5l.04.06Z" fill="url(#bac1rznx5l)"/><path d="M32.46 44.34a.54.54 0 0 1-.2-.04.54.54 0 0 1-.2-.15l-.42-.55a.58.58 0 0 1-.07-.5l.24-.66a.56.56 0 0 1 .16-.2c.06-.06.14-.1.22-.12l.67-.1c.15-.02.35.06.45.19l.42.55.01.02.01.01a.57.57 0 0 1 .07.21.6.6 0 0 1-.02.26l-.25.66a.55.55 0 0 1-.38.31l-.66.1h-.05Z" fill="url(#bbc1rznx5l)"/><path d="M30.31 40.56c.1.13.3.21.45.19l1.15-.18a.53.53 0 0 0 .22-.11.56.56 0 0 0 .16-.2l.42-1.14a.6.6 0 0 0-.07-.5l-.72-.95a.52.52 0 0 0-.45-.19l-1.14.18a.53.53 0 0 0-.23.11.56.56 0 0 0-.15.2l-.43 1.14a.6.6 0 0 0 .08.5l.71.95Z" fill="url(#bcc1rznx5l)"/><path d="M26.73 38.96a.52.52 0 0 1-.45-.19l-.54-.71a.58.58 0 0 1-.07-.5l.32-.85v-.03h.02v-.02a.53.53 0 0 1 .35-.27l.86-.13c.16-.02.36.07.45.2l.54.7a.58.58 0 0 1 .07.5l-.31.86a.56.56 0 0 1-.16.2.53.53 0 0 1-.22.11l-.86.13Z" fill="url(#bdc1rznx5l)"/><path d="M22.84 41.02c.08.03.16.04.25.03l.98-.14a.53.53 0 0 0 .22-.11.56.56 0 0 0 .16-.21l.36-.97a.59.59 0 0 0-.07-.5l-.61-.81a.53.53 0 0 0-.45-.19l-.98.15a.53.53 0 0 0-.23.11.56.56 0 0 0-.15.2l-.37.97a.58.58 0 0 0 .07.5l.62.82c.05.06.12.11.2.15Z" fill="url(#bec1rznx5l)"/><path d="M27.42 42.64a.52.52 0 0 1-.45-.18l-.47-.62a.58.58 0 0 1-.07-.5l.28-.74a.56.56 0 0 1 .33-.3.5.5 0 0 1 .05-.02l.75-.11a.5.5 0 0 1 .25.03c.08.03.15.09.2.15l.47.62a.58.58 0 0 1 .08.5l-.28.74a.54.54 0 0 1-.38.32l-.75.11Z" fill="url(#bfc1rznx5l)"/><path d="M29.57 44.92c.08.03.16.04.24.03l.37-.05a.54.54 0 0 0 .23-.12.57.57 0 0 0 .15-.2l.14-.36a.6.6 0 0 0-.07-.5l-.23-.32a.52.52 0 0 0-.46-.18l-.37.06a.56.56 0 0 0-.37.31l-.14.37a.59.59 0 0 0 .07.5l.23.3c.06.07.13.12.2.16Z" fill="url(#bgc1rznx5l)"/><path d="M27.13 45a.52.52 0 0 1-.45-.19l-.04-.05a.58.58 0 0 1-.07-.5l.02-.07a.58.58 0 0 1 .38-.31l.07-.01c.15-.03.35.06.45.18l.04.06a.58.58 0 0 1 .06.5l-.02.06a.55.55 0 0 1-.38.32h-.06Z" fill="url(#bhc1rznx5l)"/><path d="M23.55 44.53c.1.13.3.21.45.19l.86-.14a.53.53 0 0 0 .22-.1.56.56 0 0 0 .16-.21l.32-.85a.6.6 0 0 0-.08-.5l-.53-.7a.54.54 0 0 0-.37-.2h-.08l-.86.14a.53.53 0 0 0-.3.18l-.01.01a.54.54 0 0 0-.07.12l-.32.84a.6.6 0 0 0 .07.5l.54.72Z" fill="url(#bic1rznx5l)"/><path d="M19.78 42.8a.52.52 0 0 1-.45-.19l-.44-.58a.58.58 0 0 1-.07-.5l.26-.68a.56.56 0 0 1 .15-.2c.07-.06.14-.1.23-.12l.7-.1a.52.52 0 0 1 .45.18l.43.58a.58.58 0 0 1 .07.5l-.25.68a.56.56 0 0 1-.16.2.53.53 0 0 1-.22.12l-.7.1v.01Z" fill="url(#bjc1rznx5l)"/><path d="M18.99 38.34c.08.03.16.04.25.03l.91-.14a.53.53 0 0 0 .23-.1.56.56 0 0 0 .15-.21l.34-.9a.6.6 0 0 0-.07-.51l-.57-.76a.52.52 0 0 0-.46-.2l-.91.15a.55.55 0 0 0-.38.32l-.35.9a.6.6 0 0 0 .08.5l.57.77c.06.06.13.12.2.15Z" fill="url(#bkc1rznx5l)"/><path d="M16.98 40.14a.52.52 0 0 1-.45-.2l-.36-.46a.58.58 0 0 1-.07-.5l.21-.57c.06-.15.23-.3.38-.32l.57-.08c.15-.03.35.06.45.19l.35.46a.58.58 0 0 1 .07.5l-.2.56a.56.56 0 0 1-.38.32l-.57.09Z" fill="url(#blc1rznx5l)"/><path d="M13.93 38.28c.1.13.3.21.45.2v-.01l.32-.05a.52.52 0 0 0 .21-.1h.01a.56.56 0 0 0 .16-.21l.12-.31a.6.6 0 0 0-.08-.5l-.2-.27a.53.53 0 0 0-.36-.19h-.09l-.31.05a.55.55 0 0 0-.38.32l-.12.3a.6.6 0 0 0 .07.51l.2.26Z" fill="url(#bmc1rznx5l)"/><path d="M16.44 35.14a.53.53 0 0 1-.45-.19l-.56-.74a.57.57 0 0 1-.1-.24.6.6 0 0 1 .03-.26l.33-.88a.56.56 0 0 1 .28-.28.54.54 0 0 1 .1-.04l.9-.13a.5.5 0 0 1 .24.03c.08.04.15.09.2.15l.56.74c.1.13.13.36.08.5l-.34.88a.56.56 0 0 1-.33.3.48.48 0 0 1-.05.02l-.9.14Z" fill="url(#bnc1rznx5l)"/><path d="M13.87 30.87c.08.03.16.04.25.03l.47-.07a.55.55 0 0 0 .38-.32l.18-.46a.6.6 0 0 0-.07-.5l-.3-.4a.51.51 0 0 0-.45-.19l-.47.08a.53.53 0 0 0-.23.1.56.56 0 0 0-.15.21l-.18.47a.59.59 0 0 0 .07.5l.3.4c.05.06.12.11.2.15Z" fill="url(#boc1rznx5l)"/><path d="M11.73 31.26a.52.52 0 0 1-.45-.18l-.18-.23a.58.58 0 0 1-.07-.5l.1-.27c.06-.15.23-.29.38-.31l.27-.05c.16-.02.36.06.45.19l.18.23a.58.58 0 0 1 .08.5l-.1.27a.56.56 0 0 1-.16.2.53.53 0 0 1-.22.11l-.28.04Z" fill="url(#bpc1rznx5l)"/><path d="M12.9 34.67c.09.12.3.2.44.18h.01l.46-.07a.55.55 0 0 0 .38-.31l.17-.45a.58.58 0 0 0-.07-.5l-.29-.38a.52.52 0 0 0-.45-.19l-.45.07a.55.55 0 0 0-.38.32l-.18.45a.59.59 0 0 0 .07.5l.28.38Z" fill="url(#bqc1rznx5l)"/><defs><radialGradient id="ac1rznx5l" cx="0" cy="0" r="1" gradientUnits="userSpaceOnUse" gradientTransform="matrix(0 1.98448 -1.88926 0 -8.28 35.5)"><stop stop-color="#114B5F"/><stop offset="1" stop-color="#1A936F"/></radialGradient><radialGradient id="bc1rznx5l" cx="0" cy="0" r="1" gradientUnits="userSpaceOnUse" gradientTransform="matrix(0 1.98448 -1.88926 0 -8.28 35.5)"><stop stop-color="#114B5F"/><stop offset="1" stop-color="#1A936F"/></radialGradient><radialGradient id="cc1rznx5l" cx="0" cy="0" r="1" gradientUnits="userSpaceOnUse" gradientTransform="matrix(0 1.98448 -1.88926 0 -8.28 35.5)"><stop stop-color="#114B5F"/><stop offset="1" stop-color="#1A936F"/></radialGradient><radialGradient id="dc1rznx5l" cx="0" cy="0" r="1" gradientUnits="userSpaceOnUse" gradientTransform="matrix(0 1.98448 -1.88926 0 -8.28 35.5)"><stop stop-color="#114B5F"/><stop offset="1" stop-color="#1A936F"/></radialGradient><radialGradient id="ec1rznx5l" cx="0" cy="0" r="1" gradientUnits="userSpaceOnUse" gradientTransform="matrix(0 1.98448 -1.88926 0 -8.28 35.5)"><stop stop-color="#114B5F"/><stop offset="1" stop-color="#1A936F"/></radialGradient><radialGradient id="fc1rznx5l" cx="0" cy="0" r="1" gradientUnits="userSpaceOnUse" gradientTransform="matrix(0 1.98448 -1.88926 0 -8.28 35.5)"><stop stop-color="#114B5F"/><stop offset="1" stop-color="#1A936F"/></radialGradient><radialGradient id="gc1rznx5l" cx="0" cy="0" r="1" gradientUnits="userSpaceOnUse" gradientTransform="matrix(0 1.98448 -1.88926 0 -8.28 35.5)"><stop stop-color="#114B5F"/><stop offset="1" stop-color="#1A936F"/></radialGradient><radialGradient id="hc1rznx5l" cx="0" cy="0" r="1" gradientUnits="userSpaceOnUse" gradientTransform="matrix(0 1.98448 -1.88926 0 -8.28 35.5)"><stop stop-color="#114B5F"/><stop offset="1" stop-color="#1A936F"/></radialGradient><radialGradient id="ic1rznx5l" cx="0" cy="0" r="1" gradientUnits="userSpaceOnUse" gradientTransform="matrix(0 1.98448 -1.88926 0 -8.28 35.5)"><stop stop-color="#114B5F"/><stop offset="1" stop-color="#1A936F"/></radialGradient><radialGradient id="jc1rznx5l" cx="0" cy="0" r="1" gradientUnits="userSpaceOnUse" gradientTransform="matrix(0 1.98448 -1.88926 0 -8.28 35.5)"><stop stop-color="#114B5F"/><stop offset="1" stop-color="#1A936F"/></radialGradient><radialGradient id="kc1rznx5l" cx="0" cy="0" r="1" gradientUnits="userSpaceOnUse" gradientTransform="matrix(0 1.98448 -1.88926 0 -8.28 35.5)"><stop stop-color="#114B5F"/><stop offset="1" stop-color="#1A936F"/></radialGradient><radialGradient id="lc1rznx5l" cx="0" cy="0" r="1" gradientUnits="userSpaceOnUse" gradientTransform="matrix(0 1.98448 -1.88926 0 -8.28 35.5)"><stop stop-color="#114B5F"/><stop offset="1" stop-color="#1A936F"/></radialGradient><radialGradient id="mc1rznx5l" cx="0" cy="0" r="1" gradientUnits="userSpaceOnUse" gradientTransform="matrix(0 1.98448 -1.88926 0 -8.28 35.5)"><stop stop-color="#114B5F"/><stop offset="1" stop-color="#1A936F"/></radialGradient><radialGradient id="nc1rznx5l" cx="0" cy="0" r="1" gradientUnits="userSpaceOnUse" gradientTransform="matrix(0 1.98448 -1.88926 0 -8.28 35.5)"><stop stop-color="#114B5F"/><stop offset="1" stop-color="#1A936F"/></radialGradient><radialGradient id="oc1rznx5l" cx="0" cy="0" r="1" gradientUnits="userSpaceOnUse" gradientTransform="matrix(0 1.98448 -1.88926 0 -8.28 35.5)"><stop stop-color="#114B5F"/><stop offset="1" stop-color="#1A936F"/></radialGradient><radialGradient id="pc1rznx5l" cx="0" cy="0" r="1" gradientUnits="userSpaceOnUse" gradientTransform="matrix(0 1.98448 -1.88926 0 -8.28 35.5)"><stop stop-color="#114B5F"/><stop offset="1" stop-color="#1A936F"/></radialGradient><radialGradient id="qc1rznx5l" cx="0" cy="0" r="1" gradientUnits="userSpaceOnUse" gradientTransform="matrix(0 1.98448 -1.88926 0 -8.28 35.5)"><stop stop-color="#114B5F"/><stop offset="1" stop-color="#1A936F"/></radialGradient><radialGradient id="rc1rznx5l" cx="0" cy="0" r="1" gradientUnits="userSpaceOnUse" gradientTransform="matrix(0 1.98448 -1.88926 0 -8.28 35.5)"><stop stop-color="#114B5F"/><stop offset="1" stop-color="#1A936F"/></radialGradient><radialGradient id="sc1rznx5l" cx="0" cy="0" r="1" gradientUnits="userSpaceOnUse" gradientTransform="matrix(0 1.98448 -1.88926 0 -8.28 35.5)"><stop stop-color="#114B5F"/><stop offset="1" stop-color="#1A936F"/></radialGradient><radialGradient id="tc1rznx5l" cx="0" cy="0" r="1" gradientUnits="userSpaceOnUse" gradientTransform="matrix(0 1.98448 -1.88926 0 -8.28 35.5)"><stop stop-color="#114B5F"/><stop offset="1" stop-color="#1A936F"/></radialGradient><radialGradient id="uc1rznx5l" cx="0" cy="0" r="1" gradientUnits="userSpaceOnUse" gradientTransform="matrix(0 1.98448 -1.88926 0 -8.28 35.5)"><stop stop-color="#114B5F"/><stop offset="1" stop-color="#1A936F"/></radialGradient><radialGradient id="vc1rznx5l" cx="0" cy="0" r="1" gradientUnits="userSpaceOnUse" gradientTransform="matrix(0 1.98448 -1.88926 0 -8.28 35.5)"><stop stop-color="#114B5F"/><stop offset="1" stop-color="#1A936F"/></radialGradient><radialGradient id="wc1rznx5l" cx="0" cy="0" r="1" gradientUnits="userSpaceOnUse" gradientTransform="matrix(0 1.98448 -1.88926 0 -8.28 35.5)"><stop stop-color="#114B5F"/><stop offset="1" stop-color="#1A936F"/></radialGradient><radialGradient id="xc1rznx5l" cx="0" cy="0" r="1" gradientUnits="userSpaceOnUse" gradientTransform="matrix(0 1.98448 -1.88926 0 -8.28 35.5)"><stop stop-color="#114B5F"/><stop offset="1" stop-color="#1A936F"/></radialGradient><radialGradient id="yc1rznx5l" cx="0" cy="0" r="1" gradientUnits="userSpaceOnUse" gradientTransform="matrix(0 1.98448 -1.88926 0 -8.28 35.5)"><stop stop-color="#114B5F"/><stop offset="1" stop-color="#1A936F"/></radialGradient><radialGradient id="zc1rznx5l" cx="0" cy="0" r="1" gradientUnits="userSpaceOnUse" gradientTransform="matrix(0 1.98448 -1.88926 0 -8.28 35.5)"><stop stop-color="#114B5F"/><stop offset="1" stop-color="#1A936F"/></radialGradient><radialGradient id="aac1rznx5l" cx="0" cy="0" r="1" gradientUnits="userSpaceOnUse" gradientTransform="matrix(0 1.98448 -1.88926 0 -8.28 35.5)"><stop stop-color="#114B5F"/><stop offset="1" stop-color="#1A936F"/></radialGradient><radialGradient id="abc1rznx5l" cx="0" cy="0" r="1" gradientUnits="userSpaceOnUse" gradientTransform="matrix(0 1.98448 -1.88926 0 -8.28 35.5)"><stop stop-color="#114B5F"/><stop offset="1" stop-color="#1A936F"/></radialGradient><radialGradient id="acc1rznx5l" cx="0" cy="0" r="1" gradientUnits="userSpaceOnUse" gradientTransform="matrix(0 1.98448 -1.88926 0 -8.28 35.5)"><stop stop-color="#114B5F"/><stop offset="1" stop-color="#1A936F"/></radialGradient><radialGradient id="adc1rznx5l" cx="0" cy="0" r="1" gradientUnits="userSpaceOnUse" gradientTransform="matrix(0 1.98448 -1.88926 0 -8.28 35.5)"><stop stop-color="#114B5F"/><stop offset="1" stop-color="#1A936F"/></radialGradient><radialGradient id="aec1rznx5l" cx="0" cy="0" r="1" gradientUnits="userSpaceOnUse" gradientTransform="matrix(0 1.98448 -1.88926 0 -8.28 35.5)"><stop stop-color="#114B5F"/><stop offset="1" stop-color="#1A936F"/></radialGradient><radialGradient id="afc1rznx5l" cx="0" cy="0" r="1" gradientUnits="userSpaceOnUse" gradientTransform="matrix(0 1.98448 -1.88926 0 -8.28 35.5)"><stop stop-color="#114B5F"/><stop offset="1" stop-color="#1A936F"/></radialGradient><radialGradient id="agc1rznx5l" cx="0" cy="0" r="1" gradientUnits="userSpaceOnUse" gradientTransform="matrix(0 1.98448 -1.88926 0 -8.28 35.5)"><stop stop-color="#114B5F"/><stop offset="1" stop-color="#1A936F"/></radialGradient><radialGradient id="ahc1rznx5l" cx="0" cy="0" r="1" gradientUnits="userSpaceOnUse" gradientTransform="matrix(0 1.98448 -1.88926 0 -8.28 35.5)"><stop stop-color="#114B5F"/><stop offset="1" stop-color="#1A936F"/></radialGradient><radialGradient id="aic1rznx5l" cx="0" cy="0" r="1" gradientUnits="userSpaceOnUse" gradientTransform="matrix(0 1.98448 -1.88926 0 -8.28 35.5)"><stop stop-color="#114B5F"/><stop offset="1" stop-color="#1A936F"/></radialGradient><radialGradient id="ajc1rznx5l" cx="0" cy="0" r="1" gradientUnits="userSpaceOnUse" gradientTransform="matrix(0 1.98448 -1.88926 0 -8.28 35.5)"><stop stop-color="#114B5F"/><stop offset="1" stop-color="#1A936F"/></radialGradient><radialGradient id="akc1rznx5l" cx="0" cy="0" r="1" gradientUnits="userSpaceOnUse" gradientTransform="matrix(0 1.98448 -1.88926 0 -8.28 35.5)"><stop stop-color="#114B5F"/><stop offset="1" stop-color="#1A936F"/></radialGradient><radialGradient id="alc1rznx5l" cx="0" cy="0" r="1" gradientUnits="userSpaceOnUse" gradientTransform="matrix(0 1.98448 -1.88926 0 -8.28 35.5)"><stop stop-color="#114B5F"/><stop offset="1" stop-color="#1A936F"/></radialGradient><radialGradient id="amc1rznx5l" cx="0" cy="0" r="1" gradientUnits="userSpaceOnUse" gradientTransform="matrix(0 1.98448 -1.88926 0 -8.28 35.5)"><stop stop-color="#114B5F"/><stop offset="1" stop-color="#1A936F"/></radialGradient><radialGradient id="anc1rznx5l" cx="0" cy="0" r="1" gradientUnits="userSpaceOnUse" gradientTransform="matrix(0 1.98448 -1.88926 0 -8.28 35.5)"><stop stop-color="#114B5F"/><stop offset="1" stop-color="#1A936F"/></radialGradient><radialGradient id="aoc1rznx5l" cx="0" cy="0" r="1" gradientUnits="userSpaceOnUse" gradientTransform="matrix(0 1.98448 -1.88926 0 -8.28 35.5)"><stop stop-color="#114B5F"/><stop offset="1" stop-color="#1A936F"/></radialGradient><radialGradient id="apc1rznx5l" cx="0" cy="0" r="1" gradientUnits="userSpaceOnUse" gradientTransform="matrix(0 1.98448 -1.88926 0 -8.28 35.5)"><stop stop-color="#114B5F"/><stop offset="1" stop-color="#1A936F"/></radialGradient><radialGradient id="aqc1rznx5l" cx="0" cy="0" r="1" gradientUnits="userSpaceOnUse" gradientTransform="matrix(0 1.98448 -1.88926 0 -8.28 35.5)"><stop stop-color="#114B5F"/><stop offset="1" stop-color="#1A936F"/></radialGradient><radialGradient id="arc1rznx5l" cx="0" cy="0" r="1" gradientUnits="userSpaceOnUse" gradientTransform="matrix(0 1.98448 -1.88926 0 -8.28 35.5)"><stop stop-color="#114B5F"/><stop offset="1" stop-color="#1A936F"/></radialGradient><radialGradient id="asc1rznx5l" cx="0" cy="0" r="1" gradientUnits="userSpaceOnUse" gradientTransform="matrix(0 1.98448 -1.88926 0 -8.28 35.5)"><stop stop-color="#114B5F"/><stop offset="1" stop-color="#1A936F"/></radialGradient><radialGradient id="atc1rznx5l" cx="0" cy="0" r="1" gradientUnits="userSpaceOnUse" gradientTransform="matrix(0 1.98448 -1.88926 0 -8.28 35.5)"><stop stop-color="#114B5F"/><stop offset="1" stop-color="#1A936F"/></radialGradient><radialGradient id="auc1rznx5l" cx="0" cy="0" r="1" gradientUnits="userSpaceOnUse" gradientTransform="matrix(0 1.98448 -1.88926 0 -8.28 35.5)"><stop stop-color="#114B5F"/><stop offset="1" stop-color="#1A936F"/></radialGradient><radialGradient id="avc1rznx5l" cx="0" cy="0" r="1" gradientUnits="userSpaceOnUse" gradientTransform="matrix(0 1.98448 -1.88926 0 -8.28 35.5)"><stop stop-color="#114B5F"/><stop offset="1" stop-color="#1A936F"/></radialGradient><radialGradient id="awc1rznx5l" cx="0" cy="0" r="1" gradientUnits="userSpaceOnUse" gradientTransform="matrix(0 1.98448 -1.88926 0 -8.28 35.5)"><stop stop-color="#114B5F"/><stop offset="1" stop-color="#1A936F"/></radialGradient><radialGradient id="axc1rznx5l" cx="0" cy="0" r="1" gradientUnits="userSpaceOnUse" gradientTransform="matrix(0 1.98448 -1.88926 0 -8.28 35.5)"><stop stop-color="#114B5F"/><stop offset="1" stop-color="#1A936F"/></radialGradient><radialGradient id="ayc1rznx5l" cx="0" cy="0" r="1" gradientUnits="userSpaceOnUse" gradientTransform="matrix(0 1.98448 -1.88926 0 -8.28 35.5)"><stop stop-color="#114B5F"/><stop offset="1" stop-color="#1A936F"/></radialGradient><radialGradient id="azc1rznx5l" cx="0" cy="0" r="1" gradientUnits="userSpaceOnUse" gradientTransform="matrix(0 1.98448 -1.88926 0 -8.28 35.5)"><stop stop-color="#114B5F"/><stop offset="1" stop-color="#1A936F"/></radialGradient><radialGradient id="bac1rznx5l" cx="0" cy="0" r="1" gradientUnits="userSpaceOnUse" gradientTransform="matrix(0 1.98448 -1.88926 0 -8.28 35.5)"><stop stop-color="#114B5F"/><stop offset="1" stop-color="#1A936F"/></radialGradient><radialGradient id="bbc1rznx5l" cx="0" cy="0" r="1" gradientUnits="userSpaceOnUse" gradientTransform="matrix(0 1.98448 -1.88926 0 -8.28 35.5)"><stop stop-color="#114B5F"/><stop offset="1" stop-color="#1A936F"/></radialGradient><radialGradient id="bcc1rznx5l" cx="0" cy="0" r="1" gradientUnits="userSpaceOnUse" gradientTransform="matrix(0 1.98448 -1.88926 0 -8.28 35.5)"><stop stop-color="#114B5F"/><stop offset="1" stop-color="#1A936F"/></radialGradient><radialGradient id="bdc1rznx5l" cx="0" cy="0" r="1" gradientUnits="userSpaceOnUse" gradientTransform="matrix(0 1.98448 -1.88926 0 -8.28 35.5)"><stop stop-color="#114B5F"/><stop offset="1" stop-color="#1A936F"/></radialGradient><radialGradient id="bec1rznx5l" cx="0" cy="0" r="1" gradientUnits="userSpaceOnUse" gradientTransform="matrix(0 1.98448 -1.88926 0 -8.28 35.5)"><stop stop-color="#114B5F"/><stop offset="1" stop-color="#1A936F"/></radialGradient><radialGradient id="bfc1rznx5l" cx="0" cy="0" r="1" gradientUnits="userSpaceOnUse" gradientTransform="matrix(0 1.98448 -1.88926 0 -8.28 35.5)"><stop stop-color="#114B5F"/><stop offset="1" stop-color="#1A936F"/></radialGradient><radialGradient id="bgc1rznx5l" cx="0" cy="0" r="1" gradientUnits="userSpaceOnUse" gradientTransform="matrix(0 1.98448 -1.88926 0 -8.28 35.5)"><stop stop-color="#114B5F"/><stop offset="1" stop-color="#1A936F"/></radialGradient><radialGradient id="bhc1rznx5l" cx="0" cy="0" r="1" gradientUnits="userSpaceOnUse" gradientTransform="matrix(0 1.98448 -1.88926 0 -8.28 35.5)"><stop stop-color="#114B5F"/><stop offset="1" stop-color="#1A936F"/></radialGradient><radialGradient id="bic1rznx5l" cx="0" cy="0" r="1" gradientUnits="userSpaceOnUse" gradientTransform="matrix(0 1.98448 -1.88926 0 -8.28 35.5)"><stop stop-color="#114B5F"/><stop offset="1" stop-color="#1A936F"/></radialGradient><radialGradient id="bjc1rznx5l" cx="0" cy="0" r="1" gradientUnits="userSpaceOnUse" gradientTransform="matrix(0 1.98448 -1.88926 0 -8.28 35.5)"><stop stop-color="#114B5F"/><stop offset="1" stop-color="#1A936F"/></radialGradient><radialGradient id="bkc1rznx5l" cx="0" cy="0" r="1" gradientUnits="userSpaceOnUse" gradientTransform="matrix(0 1.98448 -1.88926 0 -8.28 35.5)"><stop stop-color="#114B5F"/><stop offset="1" stop-color="#1A936F"/></radialGradient><radialGradient id="blc1rznx5l" cx="0" cy="0" r="1" gradientUnits="userSpaceOnUse" gradientTransform="matrix(0 1.98448 -1.88926 0 -8.28 35.5)"><stop stop-color="#114B5F"/><stop offset="1" stop-color="#1A936F"/></radialGradient><radialGradient id="bmc1rznx5l" cx="0" cy="0" r="1" gradientUnits="userSpaceOnUse" gradientTransform="matrix(0 1.98448 -1.88926 0 -8.28 35.5)"><stop stop-color="#114B5F"/><stop offset="1" stop-color="#1A936F"/></radialGradient><radialGradient id="bnc1rznx5l" cx="0" cy="0" r="1" gradientUnits="userSpaceOnUse" gradientTransform="matrix(0 1.98448 -1.88926 0 -8.28 35.5)"><stop stop-color="#114B5F"/><stop offset="1" stop-color="#1A936F"/></radialGradient><radialGradient id="boc1rznx5l" cx="0" cy="0" r="1" gradientUnits="userSpaceOnUse" gradientTransform="matrix(0 1.98448 -1.88926 0 -8.28 35.5)"><stop stop-color="#114B5F"/><stop offset="1" stop-color="#1A936F"/></radialGradient><radialGradient id="bpc1rznx5l" cx="0" cy="0" r="1" gradientUnits="userSpaceOnUse" gradientTransform="matrix(0 1.98448 -1.88926 0 -8.28 35.5)"><stop stop-color="#114B5F"/><stop offset="1" stop-color="#1A936F"/></radialGradient><radialGradient id="bqc1rznx5l" cx="0" cy="0" r="1" gradientUnits="userSpaceOnUse" gradientTransform="matrix(0 1.98448 -1.88926 0 -8.28 35.5)"><stop stop-color="#114B5F"/><stop offset="1" stop-color="#1A936F"/></radialGradient></defs></svg>