<!-- by TradingView --><svg width="56" height="56" viewBox="0 0 56 56" xmlns="http://www.w3.org/2000/svg"><path fill="#F0F3FA" d="M0 0h56v56H0z"/><ellipse cx="28" cy="28" rx="22" ry="9" fill="#2B368C"/><path d="M27.35 24a8.06 8.06 0 0 1 5.33 2v.15l-.1.12c-.94-.5-3.1-1.44-4.77-1.44-2.25 0-4.81 1.43-4.81 3.12 0 .95 1 1.62 2.52 1.62 3.28 0 8.31-3.65 8.31-3.65S36.41 24 39.01 24C42.3 24 45 25.94 45 28.02c0 2.09-2.67 3.98-5.99 3.98a8.06 8.06 0 0 1-5.32-2v-.15l.1-.12c.93.5 3.1 1.44 4.76 1.44 2.25 0 4.9-1.43 4.9-3.12 0-.95-1.1-1.62-2.6-1.62-3.3 0-8.32 3.65-8.32 3.65S29.95 32 27.35 32c-2.18 0-4.12-.86-5.17-2.06a7.74 7.74 0 0 1-5.2 2.06C13.72 32 11 30.06 11 27.98c0-2.09 2.67-3.98 5.99-3.98a8.12 8.12 0 0 1 5.26 1.94C23.31 24.8 25.2 24 27.35 24Zm-5.33 2.22c-.8-.48-2.79-1.39-4.57-1.39-2.25 0-4.9 1.43-4.9 3.12 0 .95 1.1 1.62 2.6 1.62 1.51 0 2.69-.38 6.3-2.26.1-.38.3-.75.57-1.1Z" fill="#FEFEFE"/><path d="M11.03 27.58c-.02.13-.03.27-.03.4 0 2.08 2.71 4.02 5.99 4.02 2.62 0 4.56-1.4 5.2-2.05 1.04 1.19 2.98 2.05 5.16 2.05 2.6 0 5.18-1.92 5.18-1.92s5.02-3.65 8.31-3.65c1.52 0 2.6.67 2.6 1.62 0 .15-.02.3-.06.44h1.58c.02-.16.04-.31.04-.47 0-2.08-2.71-4.02-5.99-4.02-2.6 0-5.18 1.92-5.18 1.92s-5.03 3.65-8.31 3.65C24 29.57 23 28.9 23 27.95c0-.12.01-.25.04-.37h-2.11c-3.2 1.65-4.34 1.99-5.77 1.99-1.52 0-2.6-.67-2.6-1.62 0-.12.01-.25.04-.37h-1.57Z" fill="#2B368C" fill-opacity=".5"/></svg>