<!-- by TradingView --><svg width="56" height="56" viewBox="0 0 56 56" xmlns="http://www.w3.org/2000/svg"><path fill="#F0F3FA" d="M0 0h56v56H0z"/><path d="M25 13.4c0-1.88 1.34-3.4 3-3.4s3 1.53 3 3.4v29.2c0 1.88-1.34 3.4-3 3.4s-3-1.52-3-3.4V13.4Z" fill="#7BC142"/><path d="M33 19.3c0-1.82 1.34-3.3 3-3.3s3 1.48 3 3.3v9.4c0 1.82-1.34 3.3-3 3.3s-3-1.48-3-3.3v-9.4Z" fill="#5A4B83"/><path d="M17 25.45c0-1.9 1.34-3.45 3-3.45s3 1.55 3 3.45v8.1c0 1.9-1.34 3.45-3 3.45s-3-1.55-3-3.45v-8.1Z" fill="#1EB787"/></svg>