<!-- by TradingView --><svg width="56" height="56" viewBox="0 0 56 56" xmlns="http://www.w3.org/2000/svg"><path fill="#F0F3FA" d="M0 0h56v56H0z"/><path d="m16.04 31.08-.54-.53a11.55 11.55 0 0 1-1.32-1.44c-3.31-4.62-.76-10.73 4.62-12.2a9.06 9.06 0 0 1 1.73-.28 10.28 10.28 0 0 1 6.17 1.62 13.36 13.36 0 0 1 4.08 4.3c1.48 2.8-.15 5.41-2.36 7.12l-.36.29c-.04.03-.07.02-.1 0l-1.88-1.89c-.05-.05-.04-.07.03-.07h2.8c.03 0 .05-.03.08-.04a.17.17 0 0 0 .05-.05l.89-1.05v-.02a.05.05 0 0 0-.02-.05h-.02c-1.53 0-3.08-.12-4.63-.12-.24 0-.3-.04-.38-.26a4.81 4.81 0 0 1-.26-1.04c0-.03.01-.05.04-.05h5.76c.04 0 .06-.03.07-.07.06-.39.05-.77-.02-1.16a.13.13 0 0 0-.05-.07c-.02-.02-.05-.02-.08-.02h-5.62c-.03 0-.05-.03-.04-.06.08-.45.36-1.14.54-1.56a.08.08 0 0 1 .09-.05l4.64-.02a.04.04 0 0 0 .03-.04v-.02l-.02-.02c-.17-.29-.78-1.23-1.05-1.23h-2.8c-.03 0-.04-.03-.02-.06.39-.5.67-.7 1.16-1.12.06-.06.06-.11 0-.16l-1.19-.89c-.02-.01-.05-.02-.07 0-.34.22-.62.5-.85.81-1.02 1.09-2 2.7-2.14 4.19-.57 3.36 1.26 5.05 3.53 7.14l.11.1c.03.03.03.05 0 .08l-.93.9c-2.89 2.7-4.12 6.27-1.35 9.63a12.46 12.46 0 0 0 1.82 1.79l.04-.02 1.07-1.06c.06-.05.05-.1 0-.15a9.48 9.48 0 0 1-2.13-2.3c-1.1-1.72-.83-3.3.24-4.93a11.76 11.76 0 0 1 2.51-2.73c.03-.02.06-.02.08 0l.48.43c.55.53 1.14 1.37 1.61 1.97a.04.04 0 0 1 0 .05l-.01.02h-.03l-3.15-.01a.1.1 0 0 0-.08.04l-.86 1.2v.03a.05.05 0 0 0 .02.05H30.82c.32 0 .47.6.52.8.03.13-.02.2-.14.2h-5.84c-.04 0-.06 0-.06.05v1.24c0 .05.03.07.08.07l5.92.03c.1 0 .13.05.11.14-.06.24-.28 1.2-.66 1.2a74.5 74.5 0 0 0-2.22-.02 68.35 68.35 0 0 1-2.47 0 .06.06 0 0 0-.03.06c0 .02 0 .03.02.04l1.03 1.15c.03.03.06.04.1.04h2.64c.13 0 .16.1.08.2-.11.14-.28.31-.5.51-.82.74-1.66 1.46-2.52 2.17-.03.02-.03.04 0 .06l1.2 1.05a.06.06 0 0 0 .08 0l.68-.58c1.39-1.17 2.74-2.3 3.6-3.92 1.92-3.58-.5-6.93-3.08-9.3a.08.08 0 0 1 0-.13c2.03-1.56 3.93-4.08 3.71-6.75-.22-2.76-2.68-5.45-4.87-6.99a12.26 12.26 0 0 0-2.13-1.25A11.63 11.63 0 0 0 20 15.06c-2.9.3-5.6 1.74-7.4 4.38A9.15 9.15 0 0 0 14 31.39a886.45 886.45 0 0 0 7.57 7.36.02.02 0 0 0 .01-.03 4.07 4.07 0 0 1-.08-2.23c0-.03 0-.06-.03-.08-1.77-1.81-3.6-3.57-5.43-5.33Zm18.49 5.33c1.77-1.81 3.6-3.57 5.43-5.33l.54-.53c.61-.59 1.05-1.07 1.32-1.44 3.31-4.62.76-10.73-4.62-12.2a9.84 9.84 0 0 0-7.07.85.07.07 0 0 1-.07 0l-1.29-1.03a.05.05 0 0 1 .01-.08c4.98-2.85 11.3-2.06 14.62 2.79A9.15 9.15 0 0 1 42 31.39a886.45 886.45 0 0 1-7.57 7.36.02.02 0 0 1-.01-.03c.24-.74.26-1.48.08-2.23 0-.03 0-.06.03-.08Z" fill="url(#ahra2b1i4)"/><defs><linearGradient id="ahra2b1i4" x1="12.84" y1="26.74" x2="43.55" y2="27.44" gradientUnits="userSpaceOnUse"><stop stop-color="#273466"/><stop offset="1" stop-color="#59B5CA"/></linearGradient></defs></svg>