<!-- by TradingView --><svg width="56" height="56" viewBox="0 0 56 56" xmlns="http://www.w3.org/2000/svg"><path d="M0 28a28 28 0 1 1 56 0 28 28 0 1 1-56 0Z" fill="#F0F3FA"/><path d="M39.88 43H16.12A3.12 3.12 0 0 1 13 39.88V16.12C13 14.4 14.4 13 16.12 13h23.76C41.6 13 43 14.4 43 16.12v23.76C43 41.6 41.6 43 39.88 43Z" fill="#79C000"/><path d="M31.27 30a3.26 3.26 0 0 1-3.11 2.34C25.77 32.34 24 30.47 24 28c0-2.15 1.36-4.34 4-4.34A3.36 3.36 0 0 1 31.27 26h4.42l-.1-.51a7.93 7.93 0 0 0-7.6-5.49c-2.03 0-4.05.82-5.55 2.25a7.81 7.81 0 0 0-2.44 5.7A8.06 8.06 0 0 0 28.02 36c3.5 0 6.33-2 7.56-5.38l.12-.62h-4.43ZM21 13h1v3h-1v-3Zm13 0h1v3h-1v-3Zm-1.5 0h-1v3h1v-3Zm-9 0h1v3h-1v-3Zm3.5 0h-1v3h1v-3Zm2 0h1v3h-1v-3Zm-8 27h1v3h-1v-3Zm13 0h1v3h-1v-3Zm-1.5 0h-1v3h1v-3Zm-9 0h1v3h-1v-3Zm3.5 0h-1v3h1v-3Zm2 0h1v3h-1v-3Z" fill="#333F48"/></svg>