<!-- by TradingView --><svg width="56" height="56" viewBox="0 0 56 56" xmlns="http://www.w3.org/2000/svg"><path fill="#F0F3FA" d="M0 0h56v56H0z"/><path d="M42 33.56c0-1.54 2.46-1.59 3.5-1.6v-.19c0-.76-.19-.95-.9-.95-.76 0-1.32.16-1.97.39l-.36-.55a5.38 5.38 0 0 1 2.75-.66c1.29 0 1.98.33 1.98 1.74v2.65h1v.48c-.16.03-.6.06-.9.09a7.7 7.7 0 0 1-.75.04c-.51 0-.85-.07-.85-.44v-.23c-.42.34-.7.67-1.53.67-.9 0-1.97-.43-1.97-1.44Zm3.5.35V32.5c-1.38 0-1.76.38-1.76.94 0 1.12 1.1.9 1.76.47ZM21 33.56c0-1.54 2.46-1.59 3.5-1.6v-.19c0-.76-.19-.95-.9-.95-.76 0-1.32.16-1.97.39l-.36-.55a5.38 5.38 0 0 1 2.75-.66c1.29 0 1.98.27 1.98 1.68v2.65l1 .06v.48c-.16.03-.6.06-.9.09a7.7 7.7 0 0 1-.75.04c-.51 0-.85-.07-.85-.44v-.23c-.42.34-.7.67-1.53.67-.9 0-1.97-.43-1.97-1.44Zm3.5.35V32.5c-1.38 0-2 .38-2 .94 0 1.12 1.35.9 2 .47ZM33 34.47l.5-.08v-3.44l-.5-.16v-.6l1.78-.19.11.07.14.29v.37c.45-.43.92-.71 1.53-.71.66 0 1.32.2 1.52.65.47-.42.86-.65 1.47-.65 1.07 0 1.95.57 1.95 1.95v2.42l.5.08V35h-2.73v-.53l.73-.08V32c0-.63-.37-1.24-1.07-1.24-.33 0-.43.17-.71.38.04.22.03.5.03.84v2.41l.6.08V35H36.2v-.53l.54-.08v-2.41c0-.6-.11-1.22-.8-1.22-.37 0-.64.2-.95.44v3.2l.69.07V35H33v-.53ZM28 34.48l1-.08v-3.45l-.98-.15v-.6l2.1-.2h.03l.35.38v.7c.26-.66.49-1.08 1.13-1.08.14 0 .27.02.37.05v1.32c-.2-.12-.44-.19-.72-.19-.48 0-.43.12-.78.35v2.87l1 .08V35H28v-.52Z" fill="#13185A"/><path d="m16 28.76-.81-.11v-.46l1.77-.19h.03l.5.16v2.24c.54-.43.92-.65 1.56-.65 1.1 0 1.45.68 1.45 1.91v2.76l.69.07V35h-2.8v-.51l.6-.08v-2.76c0-.7.09-1.17-.58-1.17-.38 0-.59.18-.91.41v3.52l.34.08V35h-2.46v-.51l.62-.07v-5.66ZM9 28.76l-1-.13V28h3.79c1.43 0 3.21.28 3.21 2.05 0 1.86-1.87 2.48-3.45 2.48-.42 0-.86 0-1.05-.03v1.85l1.7.09V35H8v-.56l1-.1v-5.58Zm1.5 3.15c.18.03.6.04 1.03.04 1.05 0 1.72-.54 1.72-1.88 0-1.04-.55-1.5-1.72-1.5-.22 0-.44.01-.68.04l-.35.02v3.28ZM45.5 27c-1.11 0-1.5-.36-1.5-1.19V22h-1v-.51c1.02-.28 1.22-.42 1.64-1.49h.86v1.24H48V22h-2.5v2.96c0 .67.23 1.14.95 1.14.45 0 .98-.09 1.3-.2l.25.56c-.73.4-1.68.54-2.5.54ZM41.01 21.4a.95.95 0 0 1-.6-.17.57.57 0 0 1-.23-.47c0-.22.08-.4.26-.54.17-.15.4-.22.68-.22.29 0 .5.06.66.19.14.12.22.27.22.46 0 .23-.09.41-.26.55-.17.14-.4.2-.72.2Zm-.55 1.6-.46-.16v-.58l1.74-.2h.02l.24.17v4.17l1 .08V27h-3v-.52l.46-.22V23ZM37.76 27c-.36 0-.76-.04-.76-.5v-.23a3.2 3.2 0 0 1-1.81.72c-1.29 0-1.71-.52-1.71-1.83v-2.43L33 22.6v-.49l1.73-.11.27.12v3.04c0 .84.19 1.11.9 1.11.46 0 .7-.11 1.1-.38v-3.16l-.6-.13v-.48l1.63-.12h.03l.56.12v4.25H39l-.01.5-.44.06c-.26.04-.43.07-.79.07ZM29.77 27C28.6 27 28 25.93 28 24.68c0-1.58 1.1-2.57 2.41-2.57.2 0 .4.02.59.06v-1.42l-.8-.12v-.46l2.11-.17h.02l.23.18v6.21H33v.48c-.39.09-1.15.13-1.4.13-.18 0-.3-.03-.38-.1-.07-.05-.1-.16-.1-.34v-.23c-.14.2-.34.36-.58.48-.24.13-.5.19-.77.19Zm.42-.7c.18 0 .34-.04.47-.1.14-.09.26-.18.34-.29v-3.06c-.04-.06-.12-.1-.25-.15a1.24 1.24 0 0 0-.39-.05c-.68 0-.84.34-.84 1.73 0 1.13.08 1.92.67 1.92ZM22 22.95l-1-.16v-.6l2.32-.19h.03l.29.18-.02.34v.2c.64-.46 1.04-.7 1.88-.7 1.34 0 1.5.83 1.5 2.03v2.42h1V27h-3.24v-.53l.61-.07v-2.42c0-.68 0-1.25-.64-1.22-.43 0-.61.15-1.1.44v3.2l.4.07V27h-2.96v-.53l.93-.08v-3.44ZM15.5 24.52c0-1.47 1.1-2.52 2.56-2.52 1.47 0 2.44 1.01 2.44 2.48A2.44 2.44 0 0 1 17.94 27c-1.47 0-2.44-1-2.44-2.48Zm2.52 1.92c.7 0 .98-.71.98-1.96 0-1.32-.25-1.92-1-1.92-.72 0-1 .71-1 1.96 0 1.3.26 1.92 1.02 1.92ZM12.11 27C9.93 27 8 25.9 8 23.52 8 21.18 10.2 20 12.3 20a38.96 38.96 0 0 1 2.68.25L14.85 22h-1.08l-.37-1.17a1.12 1.12 0 0 0-.44-.17 4.2 4.2 0 0 0-.81-.06c-1.57 0-2.4 1.52-2.4 2.9 0 1.41.81 2.9 2.44 2.9.36 0 .63-.02.81-.07.2-.06.36-.13.5-.23l.51-.95.99.08-.23 1.42c-.17.01-.33.04-.5.07l-.3.06c-.3.07-.6.12-.87.16-.27.04-.6.06-.99.06Z" fill="#13185A"/></svg>