<!-- by TradingView --><svg xmlns="http://www.w3.org/2000/svg" width="56" height="56" viewBox="0 0 56 56"><path fill="#F0F3FA" d="M0 0h56v56H0z"/><path d="M10.47 30.68c-.42.2-.92.32-1.47.32-1.79 0-3-1.24-3-2.5S7.21 26 9 26c.54 0 1.03.11 1.45.3l.49-.86A4.43 4.43 0 0 0 9 25c-2.2 0-4 1.57-4 3.5S6.8 32 9 32c.65 0 1.27-.14 1.82-.38l-.35-.94Z" fill="#55565A"/><path fill-rule="evenodd" d="M15.25 31c1.58 0 2.75-1.18 2.75-2.5S16.83 26 15.25 26s-2.75 1.18-2.75 2.5 1.17 2.5 2.75 2.5Zm0 1c2.07 0 3.75-1.57 3.75-3.5S17.32 25 15.25 25c-2.07 0-3.75 1.57-3.75 3.5s1.68 3.5 3.75 3.5ZM21 25h-1v7h2.5a3.5 3.5 0 1 0 0-7H21Zm0 6h1.5a2.5 2.5 0 0 0 0-5H21v5Z" fill="#55565A"/><path d="M27 27c0-1.1.9-2 2-2h4v1h-4a1 1 0 0 0-1 1v1h3v1h-3v1a1 1 0 0 0 1 1h4v1h-4a2 2 0 0 1-2-2v-3Z" fill="#55565A"/><path d="M34 26c.6 0 1.77.25 2.64 1.16a5 5 0 0 1 .92 1.6l.03.08c.25.6.53 1.27 1.03 1.84C39.8 32 41.24 32 41.98 32H42v-1c-.72 0-1.77-.01-2.62-.99-.4-.44-.62-.98-.89-1.6v-.04a5.93 5.93 0 0 0-1.13-1.9A4.87 4.87 0 0 0 34 25v1Zm8 0c-.6 0-1.77.25-2.64 1.16-.23.24-.4.5-.56.8l-.44-1.16A4.87 4.87 0 0 1 42 25v1Zm-5.38 4.01c.2-.22.41-.46.55-.73 0 0 .34.65.53.96-.1.15-.2.3-.32.44C36.2 32 34.76 32 34.02 32H34v-1c.72 0 1.77-.01 2.62-.99Z" fill="#509E48"/><path fill="#55565A" d="M43 25h1v7h-1zM46.33 25.43a4.57 4.57 0 0 1 2.4-.43c1.16.08 2.29.52 2.85 1.02l-.66.75a4.3 4.3 0 0 0-2.27-.77 3.58 3.58 0 0 0-1.86.32c-.33.17-.46.4-.48.58-.03.18.04.38.26.54.46.34 1.07.42 1.87.47l.2.01c.7.04 1.52.1 2.23.43.46.23.8.54.99.92.35.75.02 1.44-.48 1.9-.48.44-1.2.73-1.9.8a5.48 5.48 0 0 1-4.31-1.27l.65-.75a4.48 4.48 0 0 0 3.56 1.03 2.42 2.42 0 0 0 1.33-.55c.3-.28.34-.52.24-.74-.05-.1-.19-.27-.52-.44a4.96 4.96 0 0 0-2.05-.34 4.38 4.38 0 0 1-2.4-.66c-.5-.37-.74-.92-.67-1.48.08-.55.45-1.05 1.02-1.34Zm.23.45Zm0 0Z"/></svg>