<!-- by TradingView --><svg width="56" height="56" viewBox="0 0 56 56" xmlns="http://www.w3.org/2000/svg"><path fill="#F0F3FA" d="M0 0h56v56H0z"/><path d="M23.05 12.78c-.38.12-.75.26-1.12.41L28.3 32h1.26l-6.5-19.22Z" fill="url(#a3cy5ypk5)"/><path d="M33.68 32h-2.02l-.57-1.68 10.6-10.6c.6.99 1.1 2.05 1.47 3.16L33.68 32Z" fill="url(#b3cy5ypk5)"/><path d="M40.15 32h-3.59l7.18-6.9a16.08 16.08 0 0 1 .23 3.84L40.15 32Z" fill="url(#c3cy5ypk5)"/><path d="M32.25 40H31l1.17 3.45c.38-.1.76-.22 1.13-.35L32.25 40Z" fill="url(#d3cy5ypk5)"/><path d="M35.15 42.32 34.36 40h4.22c-1.03.91-2.18 1.7-3.43 2.32Z" fill="url(#e3cy5ypk5)"/><path d="M31.19 43.68 29.94 40h-2.28L29 43.97a16 16 0 0 0 2.19-.29Z" fill="url(#f3cy5ypk5)"/><path d="m27.96 44-1.36-4h-1.28l1.34 3.94c.43.04.86.06 1.3.06Z" fill="url(#g3cy5ypk5)"/><path d="M25.56 43.81 24.26 40h-1.28l1.2 3.54c.45.11.91.2 1.38.27Z" fill="url(#h3cy5ypk5)"/><path d="M23.01 43.2 21.93 40h-2.28l.69 2.05c.85.46 1.74.85 2.67 1.16Z" fill="url(#i3cy5ypk5)"/><path d="M19 41.24 18.6 40h-1.17c.5.44 1.03.86 1.59 1.24Z" fill="url(#j3cy5ypk5)"/><path d="M16.94 32h2.28l-4.41-13.05c-.55.8-1.03 1.64-1.43 2.53L16.94 32Z" fill="url(#k3cy5ypk5)"/><path d="M12.82 22.94 15.88 32H14.6l-2.34-6.91c.14-.74.33-1.46.56-2.15Z" fill="url(#l3cy5ypk5)"/><path d="M12 27.46a16.6 16.6 0 0 0 .5 4.54h1.05L12 27.46Z" fill="url(#m3cy5ypk5)"/><path d="M15.53 17.97 20.28 32h1.28l-5.1-15.08c-.32.34-.63.69-.93 1.05Z" fill="url(#n3cy5ypk5)"/><path d="M17.25 16.15 22.62 32h1.28l-5.65-16.69c-.34.27-.67.54-1 .84Z" fill="url(#o3cy5ypk5)"/><path d="M19.1 14.7 24.95 32h2.29L21 13.6c-.66.32-1.3.7-1.9 1.1Z" fill="url(#p3cy5ypk5)"/><path d="M40.53 18.05 30.38 28.21l-5.39-15.93a15.97 15.97 0 0 1 15.54 5.77Z" fill="url(#q3cy5ypk5)"/><path d="M17.84 38c-1.45 0-2.84-.95-2.84-2.5s1.4-2.5 2.84-2.5c.92 0 1.66.3 2.16.86l-.78.66c-.36-.38-.8-.57-1.32-.57-.9 0-1.9.33-1.9 1.55s1 1.55 1.9 1.55c.53 0 .96-.2 1.32-.58l.78.67c-.5.56-1.24.86-2.16.86ZM21 38l1.99-5H24L26 38h-1.08l-1.63-4.41h.4L22.06 38H21Zm1.06-1 .27-1h2.3l.27 1h-2.84ZM27 38v-5h2.5c1.47 0 2.5.69 2.5 2.5S30.98 38 29.5 38H27Zm1-1h1c.92 0 2 0 2-1.5S29.92 34 29 34h-1v3ZM33 38v-5h1v5h-1ZM35 38v-.94l4-3.56v.5h-4v-1h5v1l-4 3.5V37h4v1h-5Z" fill="#0C3A74"/><defs><linearGradient id="a3cy5ypk5" x1="34" y1="12.5" x2="15.5" y2="39" gradientUnits="userSpaceOnUse"><stop stop-color="#1F3E64"/><stop offset="1" stop-color="#5C86AC"/></linearGradient><linearGradient id="b3cy5ypk5" x1="34" y1="12.5" x2="15.5" y2="39" gradientUnits="userSpaceOnUse"><stop stop-color="#1F3E64"/><stop offset="1" stop-color="#5C86AC"/></linearGradient><linearGradient id="c3cy5ypk5" x1="34" y1="12.5" x2="15.5" y2="39" gradientUnits="userSpaceOnUse"><stop stop-color="#1F3E64"/><stop offset="1" stop-color="#5C86AC"/></linearGradient><linearGradient id="d3cy5ypk5" x1="34" y1="12.5" x2="15.5" y2="39" gradientUnits="userSpaceOnUse"><stop stop-color="#1F3E64"/><stop offset="1" stop-color="#5C86AC"/></linearGradient><linearGradient id="e3cy5ypk5" x1="34" y1="12.5" x2="15.5" y2="39" gradientUnits="userSpaceOnUse"><stop stop-color="#1F3E64"/><stop offset="1" stop-color="#5C86AC"/></linearGradient><linearGradient id="f3cy5ypk5" x1="34" y1="12.5" x2="15.5" y2="39" gradientUnits="userSpaceOnUse"><stop stop-color="#1F3E64"/><stop offset="1" stop-color="#5C86AC"/></linearGradient><linearGradient id="g3cy5ypk5" x1="34" y1="12.5" x2="15.5" y2="39" gradientUnits="userSpaceOnUse"><stop stop-color="#1F3E64"/><stop offset="1" stop-color="#5C86AC"/></linearGradient><linearGradient id="h3cy5ypk5" x1="34" y1="12.5" x2="15.5" y2="39" gradientUnits="userSpaceOnUse"><stop stop-color="#1F3E64"/><stop offset="1" stop-color="#5C86AC"/></linearGradient><linearGradient id="i3cy5ypk5" x1="34" y1="12.5" x2="15.5" y2="39" gradientUnits="userSpaceOnUse"><stop stop-color="#1F3E64"/><stop offset="1" stop-color="#5C86AC"/></linearGradient><linearGradient id="j3cy5ypk5" x1="34" y1="12.5" x2="15.5" y2="39" gradientUnits="userSpaceOnUse"><stop stop-color="#1F3E64"/><stop offset="1" stop-color="#5C86AC"/></linearGradient><linearGradient id="k3cy5ypk5" x1="34" y1="12.5" x2="15.5" y2="39" gradientUnits="userSpaceOnUse"><stop stop-color="#1F3E64"/><stop offset="1" stop-color="#5C86AC"/></linearGradient><linearGradient id="l3cy5ypk5" x1="34" y1="12.5" x2="15.5" y2="39" gradientUnits="userSpaceOnUse"><stop stop-color="#1F3E64"/><stop offset="1" stop-color="#5C86AC"/></linearGradient><linearGradient id="m3cy5ypk5" x1="34" y1="12.5" x2="15.5" y2="39" gradientUnits="userSpaceOnUse"><stop stop-color="#1F3E64"/><stop offset="1" stop-color="#5C86AC"/></linearGradient><linearGradient id="n3cy5ypk5" x1="34" y1="12.5" x2="15.5" y2="39" gradientUnits="userSpaceOnUse"><stop stop-color="#1F3E64"/><stop offset="1" stop-color="#5C86AC"/></linearGradient><linearGradient id="o3cy5ypk5" x1="34" y1="12.5" x2="15.5" y2="39" gradientUnits="userSpaceOnUse"><stop stop-color="#1F3E64"/><stop offset="1" stop-color="#5C86AC"/></linearGradient><linearGradient id="p3cy5ypk5" x1="34" y1="12.5" x2="15.5" y2="39" gradientUnits="userSpaceOnUse"><stop stop-color="#1F3E64"/><stop offset="1" stop-color="#5C86AC"/></linearGradient><linearGradient id="q3cy5ypk5" x1="34" y1="12.5" x2="15.5" y2="39" gradientUnits="userSpaceOnUse"><stop stop-color="#1F3E64"/><stop offset="1" stop-color="#5C86AC"/></linearGradient></defs></svg>