<!-- by TradingView --><svg width="56" height="56" viewBox="0 0 56 56" fill="none" xmlns="http://www.w3.org/2000/svg">
<rect width="56" height="56" fill="#F0F3FA"/>
<path d="M13.0528 33.4896C12.2807 33.827 11.3943 33.9971 10.3878 33.9971C9.46998 33.9971 8.6236 33.8525 7.84871 33.5633C7.07096 33.2741 6.39901 32.8629 5.82714 32.3327C5.25812 31.8024 4.8092 31.1673 4.48609 30.4272C4.16298 29.6871 4 28.8733 4 27.983C4 27.0728 4.16584 26.2476 4.49467 25.5076C4.8235 24.7675 5.281 24.138 5.86145 23.6191C6.4419 23.1002 7.12529 22.7004 7.9059 22.4197C8.68937 22.1418 9.53288 22 10.4364 22C11.2742 22 12.0977 22.1418 12.9098 22.4253C13.719 22.7089 14.3767 23.1257 14.8799 23.673L12.9355 25.5387C12.3829 24.81 11.3895 24.5 10.5 24.5C8.53502 24.5 7 26.0583 7 28C7 29.9343 8.52863 31.5 10.5 31.5C11.4647 31.5 12.4127 31.108 13.0042 30.3195L15 32.12C14.471 32.6956 13.8248 33.1522 13.0528 33.4896Z" fill="#41669B"/>
<path d="M36.0528 33.4896C35.2807 33.827 34.3943 33.9971 33.3878 33.9971C32.47 33.9971 31.6236 33.8525 30.8487 33.5633C30.071 33.2741 29.399 32.8629 28.8271 32.3327C28.2581 31.8024 27.8092 31.1673 27.4861 30.4272C27.163 29.6871 27 28.8733 27 27.983C27 27.0728 27.1658 26.2476 27.4947 25.5076C27.8235 24.7675 28.281 24.138 28.8615 23.6191C29.4419 23.1002 30.1253 22.7004 30.9059 22.4197C31.6894 22.1418 32.5329 22 33.4364 22C34.2742 22 35.0977 22.1418 35.9098 22.4253C36.719 22.7089 37.3767 23.1257 37.8799 23.673L35.9355 25.5387C35.3829 24.81 34.3895 24.5 33.5 24.5C31.535 24.5 30 26.0583 30 28C30 29.9343 31.5286 31.5 33.5 31.5C34.4647 31.5 35.4127 31.108 36.0042 30.3195L38 32.12C37.471 32.6956 36.8248 33.1522 36.0528 33.4896Z" fill="#41669B"/>
<path d="M17 34V22H25V24.5H20V26.5H25V29H20V31.5H25V34H17Z" fill="#87B049"/>
<path d="M49 28C49 26.0549 47.4606 24.5 45.5 24.5C43.5333 24.5 42 26.0582 42 28C42 29.9536 43.5082 31.5 45.5 31.5C47.4931 31.5 49 29.9585 49 28ZM52 27.9519C52 28.8536 51.8361 29.6759 51.5111 30.4216C51.1861 31.1674 50.7316 31.8054 50.1535 32.3356C49.5754 32.8659 48.8852 33.277 48.0885 33.5662C47.2918 33.8555 46.4232 34.0001 45.4914 34.0001C44.5595 34.0001 43.6967 33.8555 42.9029 33.5662C42.1091 33.277 41.4246 32.8659 40.8465 32.3356C40.2684 31.8054 39.8139 31.1674 39.4889 30.4216C39.1639 29.6759 39 28.8536 39 27.9519C39 27.0417 39.1639 26.2194 39.4889 25.485C39.8139 24.7506 40.2684 24.1267 40.8465 23.6107C41.4246 23.0946 42.1119 22.7005 42.9029 22.4198C43.6967 22.1419 44.5595 22.0029 45.4914 22.0029C46.4232 22.0029 47.2889 22.1419 48.0885 22.4198C48.8881 22.6976 49.5754 23.0946 50.1535 23.6107C50.7316 24.1267 51.1861 24.7506 51.5111 25.485C51.8389 26.2165 52 27.0388 52 27.9519Z" fill="#41669B"/>
</svg>
