<!-- by TradingView --><svg width="56" height="56" viewBox="0 0 56 56" xmlns="http://www.w3.org/2000/svg"><path fill="#401C7E" d="M0 0h56v56H0z"/><path d="M19 22h-1v8.03c0 1.48.71 1.97 1.66 1.97.29.01.57-.04.84-.15l-.06-1.04c-.2.16-.4.19-.69.19-.5 0-.75-.06-.75-1.07V22Zm-9.13 3.38A3.92 3.92 0 0 0 8.13 25C5.9 25 5 26.47 5 28.54 5 30.88 6.1 32 8.15 32c.63.01 1.26-.1 1.85-.34l-.11-1c-.53.23-1.1.35-1.67.34C6.54 31 6 30.41 6 28.5c0-1.59.31-2.5 2.15-2.5.55 0 1.1.14 1.58.39l.14-1.01Zm17 0a3.92 3.92 0 0 0-1.75-.38C22.9 25 22 26.47 22 28.54c0 2.34 1.1 3.46 3.15 3.46.63.01 1.26-.1 1.85-.34l-.11-1c-.53.23-1.1.35-1.67.34-1.68 0-2.22-.59-2.22-2.5 0-1.59.31-2.5 2.15-2.5.55 0 1.1.14 1.58.39l.14-1.01Zm-10 3.62H12c0 1.25.47 2 2 2a7 7 0 0 0 2.63-.52l.12 1.02c-.75.34-1.56.51-2.38.5-2.24 0-3.37-1.07-3.37-3.5 0-1.94.73-3.5 3.04-3.5 1.83 0 2.96 1 2.96 2.95 0 .3-.04.76-.13 1.05ZM12 28h4c0-1.4-.53-2-1.99-2S12 26.61 12 28Zm23 3.5c-.97.34-1.98.51-3.02.5-1.73 0-2.98-.52-2.98-2.74V25h1v4.24c0 1.69.75 1.76 2 1.76.73.02 1.32-.09 2-.32V25h1v6.5Zm3-6.5h-1v7h1v-7Zm2-2h1v2h2v1h-2v3.46c0 1.12.35 1.54 1.17 1.54.52 0 1.04-.1 1.51-.32l.12.97c-.5.23-1.06.35-1.62.35-1.27 0-2.18-.66-2.18-2.54V23Zm10 2-1.83 4.92L46 25h-1l2.72 6.2c-.44 1.13-1 1.9-2.2 1.8l.19 1c1.7.08 2.37-1.44 2.87-2.72L51 25h-1ZM37.7 22.04a.47.47 0 0 0-.19-.04.48.48 0 0 0-.36.15.5.5 0 0 0-.15.36c0 .14.06.26.16.35a.5.5 0 0 0 .68 0c.1-.1.15-.21.16-.35a.5.5 0 0 0-.14-.36.48.48 0 0 0-.16-.11Z" fill="#fff"/></svg>