<!-- by TradingView --><svg xmlns="http://www.w3.org/2000/svg" width="56" height="56" viewBox="0 0 56 56"><path fill="#F0F3FA" d="M0 0h56v56H0z"/><path d="M4 29.12c-.01.84.53 1.88 1.48 1.88H10v-1H7.1C6.58 30 6 29.33 6 28.86v-1.65c0-.62.44-1.21 1.09-1.21H10v-1H5.46C4.33 25.02 4 26.3 4 27.2v1.92zM38 26v-1h-6v1h2v5h2v-5h2zm-10.28-1L30 28.72V25h1v6h-2.25L26 27.28V31h-1v-6h2.72zM23 28.77L20.64 25H18v6h1v-3.72L21.67 31H24v-6h-1v3.77zM17 26h-2.89c-.69 0-1.2.47-1.11 1.48h4v1.04h-4c-.07.9.54 1.48 1.11 1.48H17v1h-4.5c-.96 0-1.5-1.03-1.5-1.88v-2.24c0-.85.54-1.88 1.5-1.88H17v1zm26.6 1.08c0 .07 0 .15-.03.22a.59.59 0 0 1-.11.19c-.05.05-.1.1-.16.12a.42.42 0 0 1-.19.04H41v-1.5h2.11c.06 0 .13.01.19.04a.5.5 0 0 1 .16.13.6.6 0 0 1 .1.18c.03.08.04.15.04.23v.35zm1.4.02v-.4c0-1.19-.73-1.7-1.33-1.7H39v6h2v-2.32h.64l.93 2.32H45l-.9-2.39c.27-.1.5-.3.67-.58.17-.27.22-.6.23-.93zm3.36 1.9a1 1 0 0 0 .4.7c.14.1.29.16.45.16h.54c.11 0 .22-.03.33-.08.1-.06.2-.14.28-.23.08-.1.15-.22.19-.35.04-.13.07-.27.07-.41V27.2c0-.14-.03-.27-.07-.4-.04-.13-.1-.25-.19-.35a.88.88 0 0 0-.28-.23.73.73 0 0 0-.33-.09h-.54c-.15 0-.3.05-.43.14a1.16 1.16 0 0 0-.44.93v1.7l.02.1zm3.16-3.5c.28.31.45.75.47 1.21l.01 2.45c0 .49-.16.95-.44 1.3-.28.35-.66.54-1.05.54h-3.02c-.38 0-.74-.18-1.02-.5a2.04 2.04 0 0 1-.47-1.22v-2.45c0-.49.16-.95.44-1.3.28-.34.66-.53 1.06-.53h3c.38 0 .74.18 1.02.5z" fill="#3261A4"/></svg>