<!-- by TradingView --><svg width="56" height="56" xmlns="http://www.w3.org/2000/svg"><path fill="#009577" d="M0 0h56v56H0z"/><path d="M17.988 16.75a1938.609 1938.609 0 00-3.67 7.448C13.6 25.655 13 26.978 13 27.128c0 .595.317.182 1.051-1.358.417-.877 2.102-4.286 3.737-7.563a809.797 809.797 0 003.02-6.091c.033-.066-.067-.116-.2-.116-.201 0-1.002 1.457-2.62 4.75zM23.943 12.86c-.216.48-1.468 3.03-2.769 5.678-1.301 2.631-3.687 7.431-5.271 10.659-2.653 5.329-3.153 6.488-2.77 6.454.067 0 1.001-1.804 2.086-4.005 4.77-9.732 8.991-18.289 9.292-18.835.4-.728.4-.811.083-.811-.15 0-.434.38-.65.86zM27.564 13.787c-.484.977-2.203 4.453-3.82 7.73-1.619 3.277-3.754 7.597-4.738 9.6-.985 2.002-2.736 5.56-3.904 7.894C13.951 41.361 13 42.951 13 43h3.904l.884-1.87c.467-1.225 1.318-3.46 1.885-4.966a12473.39 12473.39 0 015.555-14.647c1.251-3.228 1.969-5.28 1.885-5.462-.033-.116.334-1.026.818-2.003.984-1.97 1.017-2.052.717-2.052-.117 0-.617.811-1.084 1.787zM30.067 16.916c-1.335 2.714-3.237 6.57-4.221 8.573s-2.87 5.793-4.17 8.441c-3.537 7.15-4.221 8.888-4.221 9.07h3.105l1.149-2.615c.617-1.639 1.735-4.551 2.452-6.455 2.002-5.247 3.32-8.722 4.104-10.84.384-1.043.834-2.202.984-2.55.15-.364.234-.761.184-.893-.084-.216.784-2.053 2.952-6.373.5-.993.584-1.274.384-1.274-.183 0-1.068 1.622-2.702 4.916zM36.372 12.364c-.084.215-1.552 3.211-3.27 6.67a2828.4 2828.4 0 00-4.788 9.683c-.917 1.87-2.902 5.875-4.404 8.92-1.501 3.03-2.736 5.28-2.736 5.363h2.913s1.425-3.012 5.762-14.532c.65-1.738 1.335-3.525 1.502-3.972.183-.463.316-.976.3-1.159-.017-.347.55-1.588 3.52-7.514a243.038 243.038 0 001.851-3.757c0-.033-.116-.066-.25-.066-.15 0-.317.165-.4.364zM39.692 13.87c-.5 1.01-2.403 4.866-4.22 8.557a2171.73 2171.73 0 00-4.789 9.682c-.8 1.639-2.369 4.833-3.486 7.084A76.808 76.808 0 0125.21 43h2.603s.634-1.192 1.201-2.698a215 215 0 011.502-3.972c.25-.679.767-2.02 1.134-2.98.367-.96 1.05-2.763 1.535-4.005.467-1.257.817-2.35.767-2.432-.067-.1.684-1.788 1.668-3.774 3.82-7.763 5.405-10.99 5.405-11.073 0-.033-.1-.066-.2-.066-.117 0-.634.844-1.134 1.87zM42.61 16.17c-.633 1.308-2.685 5.463-4.553 9.236a3091.21 3091.21 0 00-4.371 8.855 444.19 444.19 0 01-2.736 5.512C29.982 41.726 29.63 43 29.63 43h2.017l.337-.877c2.603-6.786 4.188-11.172 4.17-11.47 0-.199.902-2.234 2.036-4.502 5.722-11.553 6.072-12.33 5.705-12.33-.066 0-.65 1.059-1.284 2.35zM43.545 22.46c-.084.215-1.235 2.582-2.57 5.264C34.854 40.12 33.353 42.883 33.353 43h1.822c.084-.149.714-1.655 1.414-3.525.718-1.87 1.435-3.757 1.602-4.188.183-.43.284-.893.233-1.01-.05-.115 1.151-2.714 2.653-5.76 1.501-3.028 2.786-5.726 2.853-5.974.133-.546-.184-.612-.384-.083zM43.762 30.388c-.2.265-6.406 12.612-6.406 12.612h1.768l.534-1.953c.5-1.274.918-2.582.951-2.913.033-.331.634-1.738 1.318-3.111 1.468-2.897 2.135-4.453 2.069-4.685-.034-.099-.134-.066-.234.05z" fill="#fff"/></svg>