<!-- by TradingView --><svg xmlns="http://www.w3.org/2000/svg" width="56" height="56"><path fill="#F0F3FA" d="M0 0h56v56H0z"/><path d="M28.96 27l-.5 1.53L28 27h-1.5l1.36 3-.43 1.31h1.52L30.42 27h-1.46z" fill="#0091FD"/><path d="M25.46 27.43V27H24v3h1.46v-1.46c0-.36.53-.48 1.06-.32V27c-.4 0-.84.12-1.06.43zM21.88 27v1.84a.3.3 0 01-.1.18.28.28 0 01-.38 0 .3.3 0 01-.1-.18V27h-1.46v2.07c0 .44.29.93 1.05.93.47 0 .73-.19.99-.63V30h1.46v-3h-1.46zm-6.74 0c-.47 0-.73.19-.98.63V27h-1.47v3h1.47v-1.84a.3.3 0 01.1-.18.29.29 0 01.37 0 .3.3 0 01.1.18V30h1.46v-2.07c0-.44-.29-.93-1.05-.93zm4.09 1v-1h-.77v-1H17v1h-.3v1h.3v.96c0 .74.36 1.04 1.04 1.04.3 0 .7-.04.96-.15v-.93c-.22.08-.54.11-.54-.19V28h.77zm-7.1.74l.01-.24c0-.93-.61-1.5-1.77-1.5-1.15 0-1.76.57-1.76 1.5s.61 1.5 1.76 1.5c1.11 0 1.6-.37 1.73-1h-1.3c0 .2-.19.3-.4.3-.06 0-.11 0-.16-.02a.39.39 0 01-.13-.08.35.35 0 01-.09-.12.32.32 0 01-.02-.14v-.2h2.13zM10 28.02c0-.09.05-.17.12-.24a.43.43 0 01.55 0 .4.4 0 01.12.24v.13H10v-.13zm-4.24-.24c0 .71.06 1.08.46 1.08.3 0 .44-.12.44-.74h1.53C8.2 29.2 7.71 30 6.15 30 4.75 30 4 29.23 4 27.78c0-1.44.74-2.32 2.15-2.32 1.56 0 2.04.8 2.04 1.92H6.66c0-.7-.14-.8-.44-.8-.4 0-.46.43-.46 1.2z" fill="#0091FD"/><path d="M31.59 27h.5l1.01 3h-.44l-.23-.73h-1.2L31 30h-.4l.99-3zm.24.37h-.01l-.49 1.55h1l-.5-1.55zM33.64 30v-3h.4v2.65h1.13V30h-1.53zm1.92-3h.4v1.79c0 .7.21.87.58.87s.58-.17.58-.87V27h.4v1.77c0 .88-.32 1.23-.98 1.23-.66 0-.98-.35-.98-1.23V27zm3.18 3h-.37v-3h.64l.78 2.49h.01l.8-2.49h.65v3h-.4v-2.65L39.98 30h-.38l-.85-2.65h-.01V30zm3.66 0H42v-3h.4v3zm3.07-3v3h-.54l-1.23-2.58V30h-.36v-3h.56l1.21 2.54V27h.36zm.85 0h.4v1.79c0 .7.22.87.6.87s.6-.17.6-.87V27h.4v1.77c0 .88-.33 1.23-1 1.23-.68 0-1-.35-1-1.23V27zm3.08 3H49v-3h.67l.82 2.49.82-2.49H52l.01 3h-.41v-2.65L50.7 30h-.4l-.89-2.65V30z" fill="#898B8C"/></svg>