<!-- by TradingView --><svg xmlns="http://www.w3.org/2000/svg" width="56" height="56" viewBox="0 0 56 56"><path fill="#F0F3FA" d="M0 0h56v56H0z"/><path d="M27.98 11c.35 0 .68.01 1.02.03v6.74c4.53.45 8.2 3.84 9.04 8.23h-2.3A8 8 0 0 0 27 20.06v-7.03a15 15 0 0 0-3 29.43v1.91a16.94 16.94 0 0 1-13-16.45C11 18.58 18.6 11 27.98 11z" fill="#36547C"/><path d="M28.02 45c-.35 0-.68-.01-1.02-.03v-7.02a10 10 0 0 1-2-19.5v2.13A8 8 0 1 0 35.75 30h2.05a10 10 0 0 1-8.8 7.95v5.02a15 15 0 0 0 3-29.43v-1.91c7.46 1.78 13 8.47 13 16.45C45 37.42 37.4 45 28.02 45z" fill="#FE7447"/></svg>