<!-- by TradingView --><svg width="56" height="56" viewBox="0 0 56 56" xmlns="http://www.w3.org/2000/svg"><path fill="#F0F3FA" d="M0 0h56v56H0z"/><path d="M26.73 26.23c-.21 0-.58-.34-1-1.08-.33-.59-.5-.89-.53-.97C21.1 22.86 11.53 19.38 6 16c1.94 1.68 7.66 5.88 15.06 9.23L8.73 20.36c3.04 1.75 9.63 5.3 13.03 6.37-3.23-.92-9.26-2.73-11.87-3.85 2.72 1.44 9 4.52 12.7 5.58l-11.47-3.23c2.21 1.08 7.74 3.49 12.09 4.5l-10.7-1.99c1.8.63 6.56 2.1 11.14 2.98h-9.29c1.83.33 6.32 1 9.66 1-.74.4-2.2 1.2-2.2 1.25v.42c-.26.03-.76.08-.75 0a.8.8 0 0 0-.84-.71c-.55 0-.65.36-.64.53.19-.07.63-.18.93 0 .3.19.27.92.22 1.26l.86-.77h.48c-.04.13.04.4.72.4a5.3 5.3 0 0 0 2.2-.89l-3.62 4.67c1.05-.69 3.42-2.59 4.49-4.67l-2.66 6.1 3.1-4.3-1.68 5.9 2.1-4.07-.52 5.66 1.09-3.04L28 44l.7-4.54 1.09 3.04-.52-5.66 2.1 4.07-1.68-5.9 3.1 4.3-2.66-6.1c1.07 2.08 3.44 3.98 4.49 4.67L31 33.21c.45.3 1.52.88 2.2.88.68 0 .76-.26.72-.4h.48l.86.78c-.05-.34-.08-1.07.22-1.26.3-.18.74-.07.93 0 .01-.17-.1-.53-.64-.53a.8.8 0 0 0-.84.71c.01.08-.5.03-.75 0v-.42c0-.06-1.46-.85-2.2-1.24 3.34 0 7.83-.68 9.66-1.02h-9.3a89.2 89.2 0 0 0 11.15-2.97l-10.7 1.98c4.35-1 9.88-3.41 12.1-4.49L33.4 28.46c3.7-1.06 9.98-4.14 12.7-5.58-2.61 1.12-8.64 2.93-11.87 3.85 3.4-1.07 9.99-4.62 13.03-6.37l-12.33 4.87C42.34 21.88 48.06 17.68 50 16c-5.53 3.38-15.1 6.86-19.2 8.18l-.53.97c-.42.74-.79 1.08-1 1.08l-.05.04c-.3-.24-.61-.6-.61-1.06 0-.65.76-.69 1.14-.63-.3-.52-.8-.5-1-.42-.22.12-.67.28-.67 0s.27-.32.41-.31a.73.73 0 0 0-.54-.23c-.28 0-.54.15-.64.23l-.64.12c.18.11.54.5.54 1.17 0 .45-.24.84-.47 1.1Z"/></svg>