<!-- by TradingView --><svg xmlns="http://www.w3.org/2000/svg" width="56" height="56" viewBox="0 0 56 56"><path fill="#293D96" d="M0 0h56v56H0z"/><path d="M17 27.38c0-5.94 3.74-9.05 7.19-10.63L22.37 12C15.88 15 12 20.88 12 27.38 12 36.5 18.88 43 27 43c9 0 15.08-6.16 15-15h-5a9.8 9.8 0 0 1-10 10c-6.63 0-10-5.88-10-10.63Z" fill="#FDB228"/><path d="M39 28h3c0 6.84-3.63 12.01-9.2 14.05l.83 1.95C40.69 40.81 44 34.83 44 28.03 44 19.17 36.76 13 29 13c-8.93 0-15 6.81-15 15h5c0-5.32 4-10 10-10 4 0 9.98 3.44 10 10Z" fill="#E32726"/></svg>