<!-- by TradingView --><svg width="56" height="56" viewBox="0 0 56 56" xmlns="http://www.w3.org/2000/svg"><path fill="#F0F3FA" d="M0 0h56v56H0z"/><path d="M12.08 26.6c-.02-1.21.26-2.37.64-3.51a15.8 15.8 0 0 1 3.42-5.77 16.8 16.8 0 0 1 3.3-2.74l.25-.14.53.3.45-.16 2.23.75c.14.24.27.64.76.67.45.04.72-.18.9-.53l2.07-.22c.18.13.44.28.81.09l.24-.41 1.64-.78c.35.18.73.33 1.13.03.38-.29.35-.67.22-1.09l.95-.78c3.16.6 6.06 2.08 8.35 4.28-.24.19-.39.05-.55-.06-.31-.22-.62-.44-.95-.64-.32-.2-.67-.35-1.02-.54l-.32-.54c-.38-.15-.64-.07-.83.11l-2.33-.31c-.55-.78-1.32-.72-1.71.17l-1.95.6-.33-.13c-.35-.02-.5.15-.6.62l-1.37 1c-.53-.14-1.07-.3-1.62-.41-3.81-.76-7.22.07-10.2 2.5a10.74 10.74 0 0 0-3.44 4.97c-.21.63-.31 1.3-.47 1.94l-.21.72.01.01Z" fill="url(#a0z5brg4w)"/><path d="M37.56 25.68c-.64-.08-.86.04-1.16.6a2.64 2.64 0 0 1-.85-1.1 6.3 6.3 0 0 1-.35-.9 11.49 11.49 0 0 0-3.03-4.83c.3-.22.67-.26.98-.34.24.1.45.27.65.27s.4-.18.66-.3c.71.09 1 .18 1.6.53-.17.5-.2 1.01.3 1.39a1.08 1.08 0 0 0 1.24.1c.3.4.5.86.58 1.35-.3.19-.6.39-.62.8-.01.41.23.65.62.84a3.59 3.59 0 0 1-.62 1.59Z" fill="url(#b0z5brg4w)"/><path d="M35.68 17.02c-.04.13-.04.2-.07.22l-1.3 1.2-.5-.2-.48.17-1.25-.73-.16-.67.85-1.3c.56-.02.56-.02 1.04-.28l1.87 1.6Z" fill="url(#c0z5brg4w)"/><path d="m39.06 23.83.14-.39.05-.2-.18-.49.7-.81.57.11 1.69 1.6-.1.69-1.05.51a3.29 3.29 0 0 0-.5-.1 1.4 1.4 0 0 0-.36.08l-.96-1Z" fill="url(#d0z5brg4w)"/><path d="m25.34 12.66.04.7-1.11 1.12h-1.11l-1.01-1.26c.91-.39 1.87-.67 2.85-.85l.34.29Z" fill="url(#e0z5brg4w)"/><path d="M41.95 26.92c-.5.32-1.05.52-1.64.6l.16-1.6.65-.88.92-.42.5.3c-.1.69-.3 1.37-.6 2Z" fill="url(#f0z5brg4w)"/><path d="m38.24 20.38-.32-.96 1.49-1.3.38.16.06.11.11 2.28c0 .14-.02.29-.04.43-.63-.21-1.16-.5-1.68-.72Z" fill="url(#g0z5brg4w)"/><path d="M43.21 20.98c.65 1.05 1 2.13.67 3.34a3.82 3.82 0 0 1-1.51 2.22l.4-1.55c.4-.15.8-.3.83-.83.02-.5-.31-.71-.69-.87l-.24-1.8.54-.5Z" fill="url(#h0z5brg4w)"/><path d="m37.7 19.24-.8-.18-.46-1.46.23-.34 2.41.11.13.55-1.52 1.32Z" fill="url(#i0z5brg4w)"/><path d="m30.06 12.1-.06.56c-.38.14-.76.28-.9.73l-2.59-.5-.12-.35.3-.42c1.12-.15 2.25-.16 3.37-.02Z" fill="url(#j0z5brg4w)"/><path d="m41.9 19.96-.3.39-.06.47-.94.36-.31-.16v-2.78l.32-.27c.45.45.95 1.2 1.28 2Z" fill="url(#k0z5brg4w)"/><path d="M40.02 27.57c-.55.04-1.06.06-1.57-.12l-.48-.49.13-.69 1.83-.7.25.1c.03.64-.12 1.25-.16 1.9Z" fill="url(#l0z5brg4w)"/><path d="m36.7 17-.34-.4.27-.63.75-.4c.75.3 1.45.72 2.07 1.24l-.26.28-2.48-.1Z" fill="url(#m0z5brg4w)"/><path d="m42.47 21.53.24 1.7-.24.15-.2.08-1.72-1.58.14-.44.94-.34c.11.1.23.19.36.27.15.07.31.12.48.16Z" fill="url(#n0z5brg4w)"/><path d="m29.1 13.6.1.35c-.5.3-1 .55-1.54.75l-.75-.36-.58-.9.21-.34 2.55.5Z" fill="url(#o0z5brg4w)"/><path d="m25.6 13.52.59.06.57.89-.26.55c-.6.16-1.22.23-1.85.2l-.21-.5 1.15-1.2Z" fill="url(#p0z5brg4w)"/><path d="m31.69 16.86-.6.1-.75-.8.13-.58a7.13 7.13 0 0 1 1.8-.56l.28.5-.86 1.34Z" fill="url(#q0z5brg4w)"/><path d="M36.39 15.82c-.21.29-.14.75-.63.9l-1.81-1.53.03-.27c.44-.1 1.4.01 2.13.23l.28.67Z" fill="url(#r0z5brg4w)"/><path d="M28.3 16.95c.32-.37.74-.6 1.1-.83l.83.22.72.77-.12.33c-.88.07-1.76.12-2.52-.5Z" fill="url(#s0z5brg4w)"/><path d="m36.63 19.16-.36.24-1.9-.61c.4-.49.94-.8 1.36-1.27l.44.15.46 1.49Z" fill="url(#t0z5brg4w)"/><path d="m37.94 26.03-.17-.19.71-1.73.36-.11 1 1.09c.03.03.02.09.04.19l-1.94.75Z" fill="url(#u0z5brg4w)"/><path d="M22.96 15.05a6.82 6.82 0 0 1-2.12-.66l-.03-.58 1.05-.5c.4.52.83.96 1.14 1.5.03.04-.01.12-.04.24Z" fill="url(#v0z5brg4w)"/><path d="m38.88 22.58-.43-.12-.6-1.5.21-.35 1.5.67c.16.64-.48.84-.68 1.3Z" fill="url(#w0z5brg4w)"/><path d="m31.06 18.53.21-.44.66-.18 1.35.8c-.1.1-.18.18-.26.21-.34.12-.7.22-1.06.34l-.9-.73Z" fill="url(#x0z5brg4w)"/><path d="M42.62 19.86h-.5a.95.95 0 0 1-.07-.1l-1.15-1.8c-.1-.14-.2-.26-.08-.49.68.74 1.29 1.54 1.8 2.4Z" fill="url(#y0z5brg4w)"/><path d="M29.75 17.68h1.12l.24.3-.23.41-1.13-.71Z" fill="url(#z0z5brg4w)"/><path d="m30.18 12.76.1-.65.95.14-.65.69-.4-.18Z" fill="url(#aa0z5brg4w)"/><path d="m26.4 12.11-.18.3-.67.06-.16-.18 1.01-.18Z" fill="url(#ab0z5brg4w)"/><path d="M12.1 29.6a11.7 11.7 0 0 0 9.21 9.92c1.85.42 3.77.38 5.6-.1a11.85 11.85 0 0 0 8.07-7.14 9.15 9.15 0 0 0 4.42-1.8c.47.18.92.17 1.3-.18.38-.36.45-.79.24-1.27l.2-.29h.13c1.67.78 2.58 2.04 2.64 3.86 0 .6-.13 1.19-.4 1.73a16.38 16.38 0 0 1-11.99 9.36c-.68.14-1.39.15-2.08.25-.89.12-1.77.04-2.65-.04a16.35 16.35 0 0 1-4.78-1.19 16.37 16.37 0 0 1-5.5-3.71 15.4 15.4 0 0 1-3.94-6.84c-.18-.67-.32-1.35-.46-2.03a2.67 2.67 0 0 1 0-.53Z" fill="url(#ac0z5brg4w)"/><path d="M36.62 29.42h2.15l.4.99a8.48 8.48 0 0 1-4.07 1.65 4.3 4.3 0 0 1 1.52-2.64Z" fill="url(#ad0z5brg4w)"/><path d="M37.22 29.11a2.9 2.9 0 0 1 1.75-.68l.23.27-.29.41h-1.7Z" fill="url(#ae0z5brg4w)"/><path d="m40.37 28.45.5.15v.21l-.55-.3.05-.06Z" fill="url(#af0z5brg4w)"/><path d="M39.4 28.38h.39l-.02.05c-.12.05-.24.21-.38-.05Z" fill="#3AAEDA"/><path d="M24.62 20.33c.09 0 4.48-.76 4.48-.76s-.68-1.01-.97-1.07c-.3-.06-6.8-.52-6.9-.52-.09 0-4.04 2.35-4.04 2.35s-1.65 2.5-1.65 2.6c0 .08-1.14 4.56-1.12 5.1.01.53.55 4.63.7 4.78.15.15 4.8 3.48 4.8 3.48l3.56 1.36 3.39.13 2.72-.83 2.28-2.08-1.9.1-.97.17c-.34.16-.7.3-1.06.4-1.62.35-3.89.4-4.03.4a7.7 7.7 0 0 1-1.53-.38c-.24-.13-1.6-.43-1.6-.43l-.3-.65s-.47-1.14-.53-1.2c-.06-.06-.21-2.95-.24-3.02-.03-.07-.12-1.84-.15-1.93-.03-.09-.72-1.29-.7-1.46.04-.17 1.33-2.55 1.39-2.73.06-.17.09-1.6.18-1.68.09-.1 2.72-1.55 2.87-1.75.15-.2 1.32-.38 1.32-.38Z" fill="#fff"/><path d="M14.18 33.09a8.36 8.36 0 0 1-1.07-2.64 10.53 10.53 0 0 1 2.1-9.4 10.75 10.75 0 0 1 6.78-3.88 11.08 11.08 0 0 1 10.03 3.38.74.74 0 0 1-.46-.14 9.56 9.56 0 0 0-3.06-.95c-.01-.07-.07-.1-.14-.12a11.42 11.42 0 0 0-3.54-.72c-2.66 0-4.94.95-6.81 2.8a8.93 8.93 0 0 0-2.65 5.15 9.22 9.22 0 0 0 5.07 9.63c1.03.53 2.16.86 3.32.99 2.6.3 4.92-.35 6.99-1.87.69-.5 1.32-1.09 2.04-1.56l.22-.11a.22.22 0 0 1-.04.22 11.19 11.19 0 0 1-9.9 4.58c-1.46-.1-2.88-.48-4.2-1.1a10.37 10.37 0 0 1-3.08-2.26c-.14-.14-.24-.37-.51-.34.05-.25-.1-.4-.3-.49 0-.13-.05-.21-.2-.2 0-.08 0-.16-.1-.19a.1.1 0 0 0-.03-.07.11.11 0 0 0-.07-.03c0-.08 0-.17-.1-.2v.01c0-.08 0-.17-.1-.2a.13.13 0 0 0-.03-.06.14.14 0 0 0-.07-.04l-.01-.02v-.03c.01-.03 0-.06-.01-.08a.16.16 0 0 0-.07-.06Z" fill="#4BBFDF"/><path d="M22.4 33.57c1.13 1.2 2.62 1.67 4.21 1.91.43.07.88.01 1.33.05-.63.31-1.3.5-2 .56a8.6 8.6 0 0 1-5.16-.96 8.08 8.08 0 0 1-4.21-5.56 7.7 7.7 0 0 1 1.64-6.7 8.33 8.33 0 0 1 5.15-3.03c.48-.08.96-.03 1.43-.14.03-.01.08.05.11.08a.33.33 0 0 1-.21.18 8.2 8.2 0 0 0-3.7 2.69 7.75 7.75 0 0 0-.48 9c.43.7.97 1.32 1.58 1.86.09.08.17.25.3.06Z" fill="#4BBFDF"/><path d="M22.4 33.57c-.14.19-.22.02-.3-.06a8.43 8.43 0 0 1-1.6-1.85 7.75 7.75 0 0 1 .48-9.01 8.2 8.2 0 0 1 3.84-2.76.33.33 0 0 0 .08-.11c.42 0 .82-.14 1.22-.22.79-.15 1.59-.09 2.38-.1 1.06.18 2.1.44 3.06.95.13.1.3.15.46.14.23.12.36.33.53.5-.1.1-.17.03-.23-.01-2.34-1.57-4.8-1.5-7.26-.38a7.68 7.68 0 0 0-4.63 5.94 8.13 8.13 0 0 0 1.97 6.97Z" fill="#13A6C0"/><path d="M15.27 34.75c.27-.03.37.2.5.34.88.93 1.93 1.7 3.1 2.26 1.3.62 2.73 1 4.18 1.1a11.19 11.19 0 0 0 9.96-4.68l-.01-.12H33c.07 0 .1-.03.1-.1.12 0 .12-.09.12-.17.06-.08.1-.17.2-.2h.01c.04.4-.06.78-.27 1.11-1.64 2.5-3.9 4.21-6.93 4.8a10.7 10.7 0 0 1-8.76-2.06A11.56 11.56 0 0 1 15.4 35c-.06-.07-.14-.14-.13-.25ZM14.96 34.26c.22.1.36.24.3.49-.17-.12-.32-.25-.3-.49ZM14.66 33.87c.12.03.12.11.1.2a.17.17 0 0 1-.08-.08.16.16 0 0 1-.02-.12Z" fill="#3183B6"/><defs><linearGradient id="a0z5brg4w" x1="44.15" y1="19.21" x2="12.71" y2="19.58" gradientUnits="userSpaceOnUse"><stop stop-color="#3AAEDA"/><stop offset=".9" stop-color="#14367C"/></linearGradient><linearGradient id="b0z5brg4w" x1="44.18" y1="22.58" x2="12.75" y2="22.95" gradientUnits="userSpaceOnUse"><stop stop-color="#3AAEDA"/><stop offset=".9" stop-color="#14367C"/></linearGradient><linearGradient id="c0z5brg4w" x1="44.12" y1="16.82" x2="12.68" y2="17.19" gradientUnits="userSpaceOnUse"><stop stop-color="#3AAEDA"/><stop offset=".9" stop-color="#14367C"/></linearGradient><linearGradient id="d0z5brg4w" x1="44.19" y1="23.35" x2="12.76" y2="23.72" gradientUnits="userSpaceOnUse"><stop stop-color="#3AAEDA"/><stop offset=".9" stop-color="#14367C"/></linearGradient><linearGradient id="e0z5brg4w" x1="44.08" y1="13.21" x2="12.64" y2="13.57" gradientUnits="userSpaceOnUse"><stop stop-color="#3AAEDA"/><stop offset=".9" stop-color="#14367C"/></linearGradient><linearGradient id="f0z5brg4w" x1="44.22" y1="26.03" x2="12.79" y2="26.4" gradientUnits="userSpaceOnUse"><stop stop-color="#3AAEDA"/><stop offset=".9" stop-color="#14367C"/></linearGradient><linearGradient id="g0z5brg4w" x1="44.15" y1="19.57" x2="12.72" y2="19.93" gradientUnits="userSpaceOnUse"><stop stop-color="#3AAEDA"/><stop offset=".9" stop-color="#14367C"/></linearGradient><linearGradient id="h0z5brg4w" x1="44.2" y1="23.75" x2="12.76" y2="24.11" gradientUnits="userSpaceOnUse"><stop stop-color="#3AAEDA"/><stop offset=".9" stop-color="#14367C"/></linearGradient><linearGradient id="i0z5brg4w" x1="44.13" y1="18.18" x2="12.7" y2="18.54" gradientUnits="userSpaceOnUse"><stop stop-color="#3AAEDA"/><stop offset=".9" stop-color="#14367C"/></linearGradient><linearGradient id="j0z5brg4w" x1="44.07" y1="12.53" x2="12.63" y2="12.89" gradientUnits="userSpaceOnUse"><stop stop-color="#3AAEDA"/><stop offset=".9" stop-color="#14367C"/></linearGradient><linearGradient id="k0z5brg4w" x1="44.15" y1="19.54" x2="12.72" y2="19.9" gradientUnits="userSpaceOnUse"><stop stop-color="#3AAEDA"/><stop offset=".9" stop-color="#14367C"/></linearGradient><linearGradient id="l0z5brg4w" x1="44.23" y1="26.53" x2="12.8" y2="26.89" gradientUnits="userSpaceOnUse"><stop stop-color="#3AAEDA"/><stop offset=".9" stop-color="#14367C"/></linearGradient><linearGradient id="m0z5brg4w" x1="44.11" y1="16.26" x2="12.68" y2="16.63" gradientUnits="userSpaceOnUse"><stop stop-color="#3AAEDA"/><stop offset=".9" stop-color="#14367C"/></linearGradient><linearGradient id="n0z5brg4w" x1="44.18" y1="22.26" x2="12.75" y2="22.62" gradientUnits="userSpaceOnUse"><stop stop-color="#3AAEDA"/><stop offset=".9" stop-color="#14367C"/></linearGradient><linearGradient id="o0z5brg4w" x1="44.08" y1="13.71" x2="12.65" y2="14.08" gradientUnits="userSpaceOnUse"><stop stop-color="#3AAEDA"/><stop offset=".9" stop-color="#14367C"/></linearGradient><linearGradient id="p0z5brg4w" x1="44.09" y1="14.17" x2="12.65" y2="14.53" gradientUnits="userSpaceOnUse"><stop stop-color="#3AAEDA"/><stop offset=".9" stop-color="#14367C"/></linearGradient><linearGradient id="q0z5brg4w" x1="44.11" y1="15.85" x2="12.67" y2="16.22" gradientUnits="userSpaceOnUse"><stop stop-color="#3AAEDA"/><stop offset=".9" stop-color="#14367C"/></linearGradient><linearGradient id="r0z5brg4w" x1="44.1" y1="15.71" x2="12.67" y2="16.07" gradientUnits="userSpaceOnUse"><stop stop-color="#3AAEDA"/><stop offset=".9" stop-color="#14367C"/></linearGradient><linearGradient id="s0z5brg4w" x1="44.12" y1="16.64" x2="12.68" y2="17.01" gradientUnits="userSpaceOnUse"><stop stop-color="#3AAEDA"/><stop offset=".9" stop-color="#14367C"/></linearGradient><linearGradient id="t0z5brg4w" x1="44.14" y1="18.37" x2="12.7" y2="18.74" gradientUnits="userSpaceOnUse"><stop stop-color="#3AAEDA"/><stop offset=".9" stop-color="#14367C"/></linearGradient><linearGradient id="u0z5brg4w" x1="44.21" y1="24.95" x2="12.78" y2="25.31" gradientUnits="userSpaceOnUse"><stop stop-color="#3AAEDA"/><stop offset=".9" stop-color="#14367C"/></linearGradient><linearGradient id="v0z5brg4w" x1="44.08" y1="13.95" x2="12.65" y2="14.31" gradientUnits="userSpaceOnUse"><stop stop-color="#3AAEDA"/><stop offset=".9" stop-color="#14367C"/></linearGradient><linearGradient id="w0z5brg4w" x1="44.17" y1="21.53" x2="12.74" y2="21.9" gradientUnits="userSpaceOnUse"><stop stop-color="#3AAEDA"/><stop offset=".9" stop-color="#14367C"/></linearGradient><linearGradient id="x0z5brg4w" x1="44.14" y1="18.45" x2="12.7" y2="18.81" gradientUnits="userSpaceOnUse"><stop stop-color="#3AAEDA"/><stop offset=".9" stop-color="#14367C"/></linearGradient><linearGradient id="y0z5brg4w" x1="44.14" y1="18.64" x2="12.71" y2="19.01" gradientUnits="userSpaceOnUse"><stop stop-color="#3AAEDA"/><stop offset=".9" stop-color="#14367C"/></linearGradient><linearGradient id="z0z5brg4w" x1="44.13" y1="17.88" x2="12.7" y2="18.25" gradientUnits="userSpaceOnUse"><stop stop-color="#3AAEDA"/><stop offset=".9" stop-color="#14367C"/></linearGradient><linearGradient id="aa0z5brg4w" x1="44.07" y1="12.37" x2="12.63" y2="12.74" gradientUnits="userSpaceOnUse"><stop stop-color="#3AAEDA"/><stop offset=".9" stop-color="#14367C"/></linearGradient><linearGradient id="ab0z5brg4w" x1="44.06" y1="12.09" x2="12.63" y2="12.46" gradientUnits="userSpaceOnUse"><stop stop-color="#3AAEDA"/><stop offset=".9" stop-color="#14367C"/></linearGradient><linearGradient id="ac0z5brg4w" x1="44.34" y1="36.27" x2="12.91" y2="36.63" gradientUnits="userSpaceOnUse"><stop stop-color="#3AAEDA"/><stop offset=".9" stop-color="#14367C"/></linearGradient><linearGradient id="ad0z5brg4w" x1="44.28" y1="30.65" x2="12.84" y2="31.02" gradientUnits="userSpaceOnUse"><stop stop-color="#3AAEDA"/><stop offset=".9" stop-color="#14367C"/></linearGradient><linearGradient id="ae0z5brg4w" x1="44.26" y1="28.71" x2="12.82" y2="29.08" gradientUnits="userSpaceOnUse"><stop stop-color="#3AAEDA"/><stop offset=".9" stop-color="#14367C"/></linearGradient><linearGradient id="af0z5brg4w" x1="44.25" y1="28.59" x2="12.82" y2="28.96" gradientUnits="userSpaceOnUse"><stop stop-color="#3AAEDA"/><stop offset=".9" stop-color="#14367C"/></linearGradient></defs></svg>