<!-- by TradingView --><svg width="56" height="56" viewBox="0 0 56 56" xmlns="http://www.w3.org/2000/svg"><path fill="#005EB8" d="M0 0h56v56H0z"/><path d="m34 22.5-2.03 3.19A6.72 6.72 0 0 0 27.29 24c-4.24 0-6.67 2.53-7.29 3 2.08-4.64 5.65-6 8.44-6 2.22 0 4.63 1 5.56 1.5Z" fill="#fff"/><path d="m31 26.64-1.8 3a9.17 9.17 0 0 0-4.5-1.17c-3.35 0-6.1 2.1-6.7 2.53 1.29-3.47 5.02-6 7.8-6 2.24 0 4.4 1.1 5.2 1.64Z" fill="#fff"/><path fill-rule="evenodd" d="M28 45a17 17 0 1 0 0-34 17 17 0 0 0 0 34Zm0-1a16 16 0 1 0 0-32 16 16 0 0 0 0 32Z" fill="#fff"/><path d="M34.33 21.74 37 17.5c-.3.2-1.27.63-2.84.63-1.97 0-2.5-1.13-5.03-1.13-4.33 0-6.47 4.74-7.13 6 .44-.59 3.24-3 6.43-3 2.55 0 5 1.24 5.9 1.74ZM24 32.76a1.96 1.96 0 0 0-1.57-.76c-1.05 0-2.41.86-2.43 2.98 0 1.44.84 3.02 2.43 3.02.85 0 1.4-.5 1.57-.76 0-.15 0-.72-.08-.72h-.05c-.05 0-.1-.02-.18.04-.47.32-.71.44-1.26.44-1.3 0-1.42-1.24-1.43-2 0-.76.13-2 1.43-2 .55 0 .79.12 1.26.44.08.06.13.05.18.04h.05c.08 0 .08-.57.08-.72ZM28 32.25c0-.14-.1-.25-.23-.25h-2.54c-.13 0-.23.11-.23.25v5.5c0 .14.1.25.23.25h2.54c.13 0 .23-.11.23-.25v-.5c0-.14-.1-.25-.23-.25H26v-1.5h1.27c.13 0 .23-.11.23-.25v-.5c0-.14-.1-.25-.23-.25H26V33h1.77c.13 0 .23-.11.23-.25v-.5ZM32 32.17c0-.1-.07-.17-.15-.17h-2.7c-.08 0-.15.08-.15.17v.66c0 .1.07.17.15.17H30v4.83c0 .1.07.17.15.17h.7c.08 0 .15-.08.15-.17V33h.85c.08 0 .15-.08.15-.17v-.66ZM32.38 32.12a.08.08 0 0 1 .07-.12h.7c.03 0 .05.02.07.05l1.28 2.68 1.26-2.68a.08.08 0 0 1 .07-.05h.72c.06 0 .1.06.07.12L35 35.5v2.33c0 .1-.07.17-.16.17h-.68a.17.17 0 0 1-.16-.17V35.5l-1.62-3.38Z" fill="#fff"/></svg>