<!-- by TradingView --><svg width="56" height="56" viewBox="0 0 56 56" xmlns="http://www.w3.org/2000/svg"><path fill="#F0F3FA" d="M0 0h56v56H0z"/><path d="M44 16.82 42.01 11c-3.95 6.71-9.85 7-12.92 7-3.07 0-7.03-.29-11.86 2.4A9.9 9.9 0 0 0 12.2 31l4.6 9.53C19.86 44.1 22.94 45 25.57 45c2.1 0 4.1-.6 4.83-.9l-3.08-7.15c.59-.45 2.29-1.43 4.4-1.8 2.63-.44 7.01.46 9.2-1.33A12.38 12.38 0 0 0 44 30.24l-1.32-5.82c-2.2 3.13-6.42 4.08-8.18 4.08-1.76 0-4.65-.5-6.4-.5-1.4 0-3.48 1.5-4.29 2.24l3.08 6.7c-6.67 2.15-10.39 0-11.41-1.33.44-5.37 5.26-10.74 11.84-11.19 6.59-.45 7.9 0 12.3-1.79A6.68 6.68 0 0 0 44 16.82Z" fill="#0067A6"/></svg>