<!-- by TradingView --><svg width="56" height="56" viewBox="0 0 56 56" xmlns="http://www.w3.org/2000/svg"><path fill="#F0F3FA" d="M0 0h56v56H0z"/><path d="M26 19.1V14c-7.87 0-14 5.42-14 12.82 0 9.5 9.33 16.75 14 19.18v-6.25c-3-2.02-9-7.53-9-13.45 0-5.92 6-7.26 9-7.2ZM29 14h15l-1.82 5H34v6h6l-1.75 5H34v12.72L29 46V14Z" fill="#005A41"/><path d="M25.57 23.56 25.22 25c-.12-.26-.58-.78-1.51-.78-1.16 0-1.16 1.11-1.16 1.34 1.11-.5 1.86.22 1.86.55 0 .33-.35.78-1.05.78-.55 0-1-.37-1.16-.56-.23.26-.7.98-.7 1.78 0 1 1.4 1.89 2.21 1.89s1.97-.56 1.97-1c0-.44-.11-.89-.81-.89-.56 0-1.08.3-1.28.45.2-.56.75-1.56 1.4-1.56.8 0 1.62.78 1.97.78.34 0 .46-.11 1.04-.45-.58 1.56-1.16 1.45-1.62 1.34 0 1.44-1.74 2.33-3.25 2.33-1.5 0-3.13-.89-3.13-2.56 0-1.33 1.24-2.33 1.86-2.66-.12 0-.35-.16-.35-.78 0-.78 1.16-2 2.2-2 .83 0 1.58.37 1.86.56Z" fill="#005A41"/></svg>