<!-- by TradingView --><svg width="56" height="56" xmlns="http://www.w3.org/2000/svg"><path fill="#0079C1" d="M0 0h56v56H0z"/><path d="M28 12c-8.848 0-16 7.152-16 16 0 8.848 7.152 16 16 16 8.848 0 16-7.152 16-16 0-8.811-7.152-16-16-16zm8.037 3.982l1.032.884 1.143-.7-.516 1.253 1.069.885-1.4-.074-.517 1.29-.332-1.326-1.364-.074 1.18-.738-.295-1.4zm-8.516-2.36l.405-1.29.406 1.29h1.364l-1.106.848.442 1.327-1.106-.81-1.106.81.443-1.327-1.106-.848h1.364zm-9.807 2.544l1.143.737 1.07-.885-.332 1.364 1.18.738-1.365.073-.332 1.328-.516-1.29-1.4.073 1.032-.885-.48-1.253zm-4.313 11.207l.221-1.364-1.18-.627 1.328-.184.22-1.364.627 1.254 1.365-.185-.996.959.59 1.216-1.216-.663-.96.958zm3.244 7.927l-.147 1.4-.7-1.18-1.328.296.922-.996-.7-1.18 1.29.554.921-1.033-.147 1.364 1.253.553-1.364.221zm7.853 6.783l-1.29-.48-.848 1.07.073-1.364-1.29-.48 1.327-.405.037-1.401.774 1.143 1.327-.369-.848 1.106.738 1.18zm9.548.553l-.811-1.07-1.29.48.774-1.143-.848-1.106 1.327.369.774-1.143.037 1.401 1.327.406-1.29.479v1.327zm6.452-7.263l-.7 1.18-.148-1.364-1.364-.295 1.253-.553-.147-1.364.921 1.032 1.29-.553-.7 1.18.922.995-1.327-.258zm.848-10.36l.626-1.253.222 1.364 1.327.185-1.18.627.221 1.363-.995-.958-1.217.664.59-1.217-.995-.959 1.4.185zM28.148 39.356c-6.268 0-11.355-5.088-11.355-11.355s5.087-11.355 11.355-11.355c6.267 0 11.354 5.088 11.354 11.355s-5.087 11.355-11.355 11.355z" fill="#fff"/><path d="M30.507 22.396c-.11-.626-.258-1.069-.332-1.548 0-.037-.037-.037-.037-.074-.11-.295-.258-.442-.553-.48a8.726 8.726 0 00-1.106-.073l.332-.516v-.037c-.369.074-.958.258-1.438.184-.553-.073-1.032.41-1.032.853V21h-.737s-1.032-.074-1.07.774l-.073 1.07s.184-.332.737-.332h.516c.185 0 .369.11.369.294.037 1.07-.627 2.194-1.88 2.194h-6.489l6.931 12h7.19l6.783-12h-5.899c-1.254.037-2.028-1.756-2.212-2.604zm-2.876 1.254c0-.295.222-.516.517-.516.294 0 .516.22.516.516v.958H27.63v-.958zm.037 1.511h.996l.331.774h-1.659l.332-.774zm1.585 6.01v.184h-2.212v-.184c0-2.139.296-3.945.664-4.756.148-.037.295-.037.443-.037.147 0 .258 0 .405.037l.037.037c.405.774.663 2.617.663 4.718zm-2.064-4.572c-.369 1.07-.627 2.728-.627 4.608v.185H24.72v-.258c0-2.175 1.032-3.982 2.47-4.535zM31 34h-6v-2h6v2zm.576-2.645h-1.88v-.184c0-1.88-.258-3.576-.664-4.609v-.037c1.475.553 2.544 2.397 2.544 4.572.037.11 0 .147 0 .258z" fill="#fff"/><path d="M25.604 31.023c.22 0 .405-.295.405-.627s-.184-.627-.405-.627c-.222 0-.443.296-.443.627.037.369.221.627.442.627zM30.5 32.571h-1.253v.812H30.5v-.812zM28.148 29.806c-.222 0-.443.295-.443.627s.184.627.443.627c.22 0 .442-.295.442-.627-.037-.369-.221-.627-.442-.627zM28.658 32.571h-1.253v.812h1.253v-.812zM30.654 31.023c.221 0 .443-.295.443-.627s-.185-.627-.443-.627c-.22 0-.442.296-.442.627 0 .369.184.627.442.627zM26.783 32.571H25.53v.812h1.253v-.812z" fill="#fff"/></svg>