<!-- by TradingView --><svg width="56" height="56" viewBox="0 0 56 56" xmlns="http://www.w3.org/2000/svg"><path fill="#F0F3FA" d="M0 0h56v56H0z"/><path d="M37.33 41.63c1.1 0 2.16-.42 2.94-1.18a4.01 4.01 0 0 0 1.22-2.87V18.8c0-1.08-.44-2.1-1.22-2.87a4.21 4.21 0 0 0-2.94-1.19h-18.8c-1.1 0-2.15.43-2.93 1.2a4.01 4.01 0 0 0-1.22 2.86v18.77c0 1.07.44 2.1 1.22 2.87a4.21 4.21 0 0 0 2.94 1.18h18.8Z" fill="#fff"/><path d="M37.44 42H18.56a4.62 4.62 0 0 1-3.23-1.31A4.47 4.47 0 0 1 14 37.52V18.53c0-1.2.47-2.34 1.33-3.19A4.64 4.64 0 0 1 18.56 14h18.88a4.62 4.62 0 0 1 3.23 1.31A4.47 4.47 0 0 1 42 18.48v18.99a4.35 4.35 0 0 1-1.3 3.22A4.5 4.5 0 0 1 37.44 42ZM18.56 15c-1 0-1.95.24-2.65.93-.7.7-.9 1.63-.91 2.6v18.99c0 .97.21 1.91.91 2.6.7.69 1.66.88 2.65.88h18.88c1 0 1.94-.2 2.65-.88.7-.69.9-1.63.91-2.6V18.53c0-.97-.21-1.9-.91-2.6a3.66 3.66 0 0 0-2.65-.93H18.56Z" fill="#296795"/><path d="M37.24 40a2.78 2.78 0 0 0 2.55-1.68c.14-.33.21-.69.21-1.04V18.72a2.68 2.68 0 0 0-1.7-2.52c-.34-.13-.7-.2-1.06-.2H18.76a2.78 2.78 0 0 0-2.55 1.68c-.14.33-.21.69-.21 1.04v18.56a2.68 2.68 0 0 0 1.7 2.52c.34.13.7.2 1.06.2h18.48Z" fill="#A9BBD3"/><path d="M17.4 23.19c-.48.05-1.02-.16-1.46-.69-.64-.8-1.02-2.74.5-3.58h.04c5.3-2.59 11.56-2.38 16.53-2.27 0 0 2.05 5.9 2.38 9.12a11.91 11.91 0 0 0 3.56 7.22.6.6 0 0 0 .38-.16c.27-.16.16-.05.43-.2a1.33 1.33 0 0 1 1.73.41c.38.64.27 1.16-.1 1.58-2.28 2.7-9.4 6.33-13.35 6.07 0 0-.48.1-1.62-.16-1.19-.27-2.8-2.22-4.8-9.07-.54-1.63-.87-6.06-1.73-9.22l-.22.1s-1.24.74-2.16.85h-.1Z" fill="#fff"/><path d="M27.66 40.9c-.45-.02-.9-.08-1.35-.16-1.62-.37-3.24-3.37-4.96-9.17-.29-1.19-.5-2.38-.65-3.59-.27-1.79-.54-3.8-.97-5.48-.17.1-1.3.74-2.22.84h-.32c-.54 0-1.03-.26-1.46-.73a2.9 2.9 0 0 1-.54-2.38 2.02 2.02 0 0 1 1.13-1.42h.06c4.2-2.06 9.07-2.32 13.17-2.32.98 0 1.9 0 2.81.05h.7l.06.1c0 .06 2.05 5.97 2.38 9.18.37 3.85 2.8 6.43 3.45 7.06a.2.2 0 0 0 .16-.1l.06-.05c.1-.06.16-.1.21-.1.06 0 .06-.06.22-.11.22-.12.46-.2.7-.22a1.52 1.52 0 0 1 1.24.69c.44.63.38 1.27-.1 1.8-2.33 2.73-9.46 6.32-13.5 6.1h-.28ZM20 21.92l.05.21c.49 1.8.8 3.9 1.08 5.75.22 1.47.38 2.8.6 3.53 1.67 5.59 3.23 8.6 4.7 8.9 1.13.27 1.56.17 1.56.17h.05c3.9.2 10.97-3.33 13.18-5.96.38-.42.38-.9.1-1.37a1.1 1.1 0 0 0-.91-.53 1 1 0 0 0-.54.16c-.16.1-.22.1-.27.16-.05 0-.05.05-.16.05a.8.8 0 0 1-.49.21h-.1l-.06-.05a12.16 12.16 0 0 1-3.62-7.33c-.27-2.95-2.05-8.12-2.32-8.96h-.43c-.92 0-1.84-.05-2.81-.05-4.1 0-8.86.26-13.02 2.26h-.05a1.69 1.69 0 0 0-.92 1.22 2.7 2.7 0 0 0 .49 2.1c.37.43.8.69 1.3.64h.1c.92-.1 2.1-.8 2.1-.8l.39-.31Zm7.02 18.92c-.32.01-.64-.06-.92-.2-1.57-.7-2.97-3.43-4.75-9.13a32.1 32.1 0 0 1-.65-3.63c-.49-3.32-1.14-7.86-2.7-8.86a1.17 1.17 0 0 0-1.03-.16c-.65.27-1.13.64-1.35 1.27-.27.79 0 1.79.43 2.26.54.69 1.2.69 1.62.53.43-.2.87-.74.76-1.58-.38.1-1.19.26-2.22.53l-.16.05-.05-.21c-.22-.9-.06-1.63.38-2a1.22 1.22 0 0 1 1.13-.21 1.83 1.83 0 0 1 1.24 1.53c.22 1-.16 1.84-.92 2.2-.7.32-1.5.06-2.05-.62a2.95 2.95 0 0 1-.48-2.64 2.17 2.17 0 0 1 1.62-1.42 1.58 1.58 0 0 1 1.3.2c1.72 1.11 2.32 5.54 2.86 9.07.21 1.53.43 2.85.64 3.59 1.73 5.53 3.14 8.27 4.54 8.9a2.2 2.2 0 0 0 1.73-.05c1.24-.52.97-1.79.86-2.21-.27-.95-1.08-1.9-2-1.84-.7.05-1.24.42-1.45 1a1.77 1.77 0 0 0 .2 1.79 1.45 1.45 0 0 0 1.46.53 1.11 1.11 0 0 0 .92-.74c.07-.17.1-.35.1-.53l-2.37.42-.05-.16c-.11-.58 0-1.68 1.02-1.84a1.4 1.4 0 0 1 1.35.42 2.02 2.02 0 0 1 .27 1.85 1.48 1.48 0 0 1-1.24.95c-.76.1-1.4-.16-1.78-.69-.49-.58-.54-1.48-.27-2.16.32-.69.92-1.1 1.78-1.21 1.08-.1 2.05.95 2.38 2.1.27.95.1 2.11-1.08 2.64-.33.18-.7.27-1.08.26Zm.05-3.74h-.27c-.76.16-.76.9-.76 1.27L28.1 38c-.06-.2-.15-.4-.27-.58a1 1 0 0 0-.76-.32Zm-10-17.29a.89.89 0 0 0-.48.16c-.32.26-.38.8-.27 1.48.97-.27 1.68-.43 2-.53a1.43 1.43 0 0 0-1.24-1.1Zm21.5 13.44c-.05-.05-3.24-2.95-3.67-7.32-.32-2.9-2.05-8.17-2.38-9.02h-.7c-4.75-.1-10.58-.2-15.55 2.22l-.16-.32c5.07-2.42 10.96-2.32 15.77-2.27h.97l.05.1c0 .06 2.1 6.02 2.43 9.23.44 4.22 3.57 7.07 3.57 7.07l-.33.31Zm-10.9 3h-.7v-.36c2.9.16 7.93-.63 12.52-3.27.65-.37 1.62-.37 2.1.32l-.32.2c-.32-.47-1.08-.47-1.62-.2a25.8 25.8 0 0 1-11.99 3.32Zm.1 4.65c-.25 0-.5-.01-.75-.06l.05-.36c4.6.42 12.04-3.38 14.15-5.9.43-.54.43-1.01.1-1.54l.33-.2a1.5 1.5 0 0 1-.1 1.94c-2.11 2.48-9.08 6.12-13.78 6.12ZM17.51 23.3l-.05-.22c.91-.1 2.32-.95 2.32-.95l.1.21s-1.4.8-2.37.95Zm5.35 2.15s-.87-2.53 1.46-5.74l.16.05c-1.3 1.58-1.84 4.06-1.3 5.32-.08.15-.19.27-.32.37Zm-.16.21-.06-.16c-.05-.1-.86-2.63 1.51-5.9l.06-.1.54.15-.16.21c-1.3 1.7-1.73 4.06-1.3 5.17l.05.05-.05.06c-.1.19-.25.35-.43.47l-.16.05Zm.21-.73v.1c.06 0 0-.05 0-.1Zm1.3 2.1c1.08 1.27 4.64 1.69 6.59-3.16l.32-.42c.32.42-2.97 7.12-7.07 3.8l.16-.22Zm2.16 1.32c-.81 0-1.62-.32-2.43-.95l-.11-.1.38-.58.16.2c.38.48 1.13.75 1.89.75.86 0 2.97-.37 4.37-3.85l.06-.05.48-.58.17.15c.05.06.21.27-.27 1.22-.7 1.42-2.43 3.8-4.7 3.8Zm4.26 7.43c-2.1-3.9-1.4-9.59.98-9.54 2.37.06 1.4 7.07-1.62 7.07-2.43.05-4.27-2.43-3.78-6.7l-.33.05c-.43 1.32-.05 7.17 3.73 7.23 3.89.05 4.75-8.12 1.89-7.91-2.43.21-3.3 5.74-1.3 9.8h.43Zm-.54.21-.05-.1c-.29-.6-.52-1.21-.7-1.85a3.3 3.3 0 0 1-2.54-1.47c-1.4-1.9-1.4-5.11-1.13-5.96l.05-.1.7-.06v.21c-.38 3.43.7 5.9 2.76 6.44-.49-2.53-.17-5.07.86-6.38.43-.53.92-.85 1.46-.9 1.08-.1 1.83.9 1.89 2.58.1 2.17-.97 5.28-3.24 5.64.2.58.43 1.14.7 1.7l.16.25h-.92Zm-4.15-9c-.17 1.1-.06 3.68 1.18 5.37a2.93 2.93 0 0 0 2.16 1.32c0-.06-.05-.16-.05-.22-2.32-.47-3.56-2.95-3.3-6.48Zm4 6.53c0 .05.05.1.05.16a2.43 2.43 0 0 0 1.4-.74c-.4.36-.91.57-1.46.58Zm-.12-.37h.11c1.78 0 2.76-2.64 2.81-4.48 0-1.06-.27-2.22-1.13-2.22h-.06c-.38 0-.75.21-1.08.58-.97 1.11-1.19 3.7-.65 6.12Z" fill="#296795"/><path d="M20.54 30.83v2.27s2.05 2.74 2.1 3.21c.1.42-.05 1.1-.6 1.1h-5.12c-.54 0-.7-.68-.6-1.1.11-.47 2.1-3.21 2.1-3.21v-2.27h2.12Z" fill="#fff"/><path d="M22.05 37.58h-5.13a.88.88 0 0 1-.6-.27c-.27-.31-.27-.74-.21-1.05.1-.48 1.72-2.69 2.1-3.27v-2.37h2.49v2.37c.43.58 2.05 2.74 2.1 3.27.06.31 0 .79-.21 1.05a.56.56 0 0 1-.54.26Zm-3.46-6.6v2.17l-.05.05c-.76 1.06-2.06 2.85-2.11 3.16a.9.9 0 0 0 .16.74.3.3 0 0 0 .27.16H22a.3.3 0 0 0 .27-.16.95.95 0 0 0 .17-.74c-.06-.31-1.36-2.1-2.11-3.16l-.06-.05v-2.16H18.6Z" fill="#296795"/><path d="M19.78 30.83c1.57-3.16 2.7-6.22 10.64-13.07 2.64-2.27 4.75-3.27 5.67-3.54 4.1-1.05 7.4-3.63 8.7-5.58 0 .26.03.53.1.79l-.21.74-.98 1.2.38.11a16.5 16.5 0 0 1-1.94 1.48c.3.02.59.1.86.21-.32.16-1.94.53-2.7.95.49.26 1.51.32 1.51.32s-1.78.94-2.59 1.42c.16.1.87-.27 1.19-.21-.38.9-.92.9-1.51 1.32.21.15.97.2.97.2s-1.51 1.64-4.8 2.17c.16 0 .53.1 1.67.31-.8.5-1.68.87-2.6 1.11.33.21-.26.69-.26.69s-.98.84-1.46.84c.16.16.32.21.64.37-.8.47-1.24.47-1.62.68.26.07.5.17.7.32l-1.07.21c.32.21.48.42.75.58-.48.1-1.13.21-1.13.21s-1.08-.05-2.1-.05c.01.27.07.53.15.79 0 0-1.56.68-2.64.84.05.16.48.53.48.53s-1.5.26-2 .26c.11.27-.21.58-.21.58a18.6 18.6 0 0 0-4.21 3.17l-.27-.06" fill="#FDF6DC"/><path d="m20.1 30.99-.37-.1.05-.11-.16-.1c.1-.27.27-.54.38-.8 1.45-2.95 2.97-6 10.26-12.33 2.53-2.22 4.7-3.33 5.72-3.59 3.94-.9 7.3-3.43 8.59-5.43l.32-.53v.64c0 .25.04.5.11.73v.06l-.27.84-.81 1c.05 0 .1.06.16.06l.22.1-.16.21c-.17.21-.92.8-1.57 1.21.22.06.38.1.43.1l.38.17-.32.16c-.29.1-.58.19-.87.26-.43.16-1.02.32-1.46.53.35.1.72.15 1.08.15l.65.06-.54.31-1.56.85h.1l.22.05-.1.21c-.22.49-.6.88-1.09 1.1-.1.11-.16.17-.21.17.16.05.43.05.59.1l.38.05-.27.27c-.06.05-1.3 1.37-4 2.05.22.06.49.1.76.16l.43.1-.38.27a8.5 8.5 0 0 1-2.43 1.05v.06c0 .31-.38.63-.43.68-.34.3-.72.55-1.14.74.11.05.17.1.27.16l.27.16-.27.15c-.35.23-.73.4-1.13.53-.05 0-.05 0-.1.05.1.07.2.12.32.16l.32.21-.38.1a7.27 7.27 0 0 0-.66.18l.01.02v.02c.11.1.22.16.33.26l.32.21-.43.11-1.13.21c-.06 0-.98-.05-1.95-.05l.11.52.05.16-.16.06c-.05 0-1.35.58-2.37.79.05.1.16.15.27.26l.32.26-.38.06c-.05 0-1.19.2-1.83.26-.05.2-.14.38-.27.53l-.06.05c-.32.16-2.05 1.1-4.16 3.11v-.05ZM44.57 9.16c-1.46 1.9-4.6 4.22-8.48 5.22-.81.21-2.92 1.16-5.56 3.48-7.24 6.27-8.75 9.33-10.21 12.23-.05.13-.12.26-.22.37 2-1.85 3.62-2.8 4.05-2.95.1-.1.16-.23.17-.37l-.11-.26h.32c.27 0 1.03-.11 1.57-.16a1.6 1.6 0 0 1-.27-.37l-.06-.21.22-.06c.86-.1 2.05-.58 2.43-.73-.07-.23-.1-.46-.1-.69v-.2h.2c1.03 0 2.11.04 2.17.04l.7-.1-.05-.05a2.33 2.33 0 0 0-.38-.32l-.54-.21.48-.05c.22-.06.44-.06.6-.11a.33.33 0 0 0-.22-.05l-.43-.1.38-.22c.17-.1.35-.16.54-.21.26-.07.52-.18.75-.32a.62.62 0 0 1-.37-.26l-.27-.32h.43c.27 0 .97-.42 1.35-.79.16-.15.32-.31.32-.37l-.38-.2.44-.11a8.34 8.34 0 0 0 2.16-.85c-.4-.1-.8-.16-1.2-.2v-.38a9.82 9.82 0 0 0 4.44-1.9c-.23-.03-.45-.1-.65-.2l-.22-.16.22-.16c.16-.14.34-.24.54-.32.3-.15.56-.36.76-.63-.11 0-.17.05-.27.05-.33.1-.54.16-.7.06l-.33-.1.27-.17c.54-.31 1.51-.84 2.1-1.16-.35-.05-.7-.15-1.02-.31l-.27-.16.27-.16c.49-.26 1.3-.53 1.89-.74.1-.05.16-.05.27-.1-.1 0-.16-.06-.27-.06h-.65l.54-.31a16.9 16.9 0 0 0 1.68-1.21h-.06l-.32-.06 1.19-1.37.21-.68c0-.1-.01-.18-.05-.27ZM18.97 34.2s.27 0 .32-.05c0-1.32.87-3.32.87-3.32l-.33-.05a11.5 11.5 0 0 0-.86 3.42Zm.1.16h-.26v-.16c.05-1.32.8-3.42.86-3.53l.06-.16.7.16-.11.21s-.81 2-.86 3.27v.05c-.06.16-.33.16-.38.16Zm2.6 1.74c-.1-.26-.92-1.37-1.35-1.95h-1.78c-.44.58-1.25 1.69-1.35 1.95-.17.32.05.69.54.69h3.45c.44 0 .65-.37.49-.69Zm-.97.9h-3.03c-.32 0-.54-.1-.65-.32a.84.84 0 0 1-.05-.63c.1-.32.97-1.43 1.4-2l.06-.06h1.94l.06.05c.5.64.98 1.31 1.4 2a.55.55 0 0 1-.05.64.72.72 0 0 1-.65.32h-.43Zm-1.08-.37h1.5a.43.43 0 0 0 .39-.16.23.23 0 0 0 0-.26c-.11-.22-.81-1.22-1.3-1.85h-1.57c-.48.63-1.18 1.58-1.3 1.85a.23.23 0 0 0 0 .26c.06.1.17.16.39.16h1.89Z" fill="#296795"/></svg>