<!-- by TradingView --><svg width="56" height="56" viewBox="0 0 56 56" xmlns="http://www.w3.org/2000/svg"><path d="M0 28a28 28 0 1 1 56 0 28 28 0 0 1-56 0Z" fill="#01416F"/><path d="M11 26.5c-.02-.13 0-1.13 0-1.13S10.4 25 8.85 25C7.28 25 6 25.32 6 27v2c0 1.5 1.57 2 2.79 2s2.21-.52 2.21-.52v-1.23s-.74.23-1.57.25c-.84.03-1.43-.6-1.43-1.09v-.91c0-.5.5-1 .94-1 1.02.02 2.06 0 2.06 0ZM12 25h2v4h2v-4h2v4.5s0 1.5-1.42 1.5H13.5S12 31 12 29.5V25ZM19 23h2v6s.28.34 1 .34v1.38s-.1.28-1.29.28A1.7 1.7 0 0 1 19 29.5V23ZM23 23h2v6s.28.34 1 .34v1.38s-.1.28-1.29.28A1.7 1.7 0 0 1 23 29.5V23ZM29 25h-2v6h2v-6ZM30 25h2v1c.44-.26 1.54-1 2.43-1 1.17 0 1.57.77 1.57 1v5h-2v-3.82s-.7-.51-2 .19V31h-2v-6ZM44 25h2v1c.44-.26 1.54-1 2.43-1 1.17 0 1.57.77 1.57 1v5h-2v-3.82s-.25-.18-.73-.18c-.32 0-.75.09-1.27.37V31h-2v-6ZM43 27v4h-2v-1s-.21 1-1.94 1c-1.89 0-2.06-.9-2.06-2.36 0-1.14 1.21-1.14 1.21-1.14H41c-.02-.56-.58-1-.77-1h-2.71l-.2-1.14S38.6 25 40.76 25 43 27 43 27Zm-2 2.06v-.56h-1.81c-.12 0-.18.09-.19.21-.02.3.27.82.76.81.69-.01 1.24-.46 1.24-.46ZM17 36v-4h.5l2 3v-3h.5v4h-.5l-2-3v3H17ZM29 32h.5v3c0 .5.24.5.5.5h2v.5h-2.5s-.5.04-.5-.5V32ZM40 32.5V32h-2c-.5 0-1 .1-1 1v2.2c0 .2.28.8 1 .8.88 0 1.29.07 1.5-.38V36h.5v-2h-.5v1.14s-.28.36-1 .36-.86-.36-.86-.5v-2s.13-.5.76-.5H40ZM41 32h.5l.75 1.76L43 32h.5l-1 2.41V36H42v-1.59L41 32Z" fill="#F0F3FA"/><path fill-rule="evenodd" d="M16 34c0-1.27-.28-2-1.5-2-1.2 0-1.5.78-1.5 2s.38 2 1.5 2c1.13 0 1.5-.73 1.5-2Zm-.5 0c0-.94-.25-1.5-1-1.5s-.98.61-1 1.5c0 .9.3 1.5 1 1.5s1-.56 1-1.5ZM28 34c0-1.27-.28-2-1.5-2-1.2 0-1.5.78-1.5 2s.38 2 1.5 2c1.13 0 1.5-.73 1.5-2Zm-.5 0c0-.94-.25-1.5-1-1.5s-.98.61-1 1.5c0 .9.3 1.5 1 1.5s1-.56 1-1.5ZM36 34c0-1.27-.28-2-1.5-2-1.2 0-1.5.78-1.5 2s.38 2 1.5 2c1.13 0 1.5-.73 1.5-2Zm-.5 0c0-.94-.25-1.5-1-1.5s-.98.61-1 1.5c0 .9.3 1.5 1 1.5s1-.56 1-1.5Z" fill="#F0F3FA"/><path d="M24 32.5V32h-1.5c-1 0-1.5.5-1.5 1.5v1c0 1 .5 1.5 1.5 1.5H24v-.5h-1.5c-.78 0-1-.24-1-1v-1c0-.76.22-1 1-1H24Z" fill="#F0F3FA"/><path d="m30 17 2 2-4 5-4-5 2-2h4Z" fill="#009FD8"/><path d="m28 23-3-4 1-1h4l1 1-3 4Z" fill="#F0F3FA"/><path d="M28 18.5h1.5l.5.5-2 2.5v-3Z" fill="#003F6E"/></svg>