<!-- by TradingView --><svg width="56" height="56" xmlns="http://www.w3.org/2000/svg"><path fill="#FFF200" d="M0 0h56v56H0z"/><path d="M5 28.876C5 30.595 5.951 31 7.55 31h2.862c1.782 0 2.134-.778 2.134-1.767v-.552h-1.775c0 .73-.24.81-1.039.81H7.838c-.84 0-1.015-.323-1.015-1.175v-.632c0-.73.175-1.176 1.11-1.176h1.935c.528 0 .832.122.832.543v.163h1.774C12.49 25.55 12.162 25 9.636 25H7.55C5.951 25 5 25.405 5 27.124v1.752z" fill="#000"/><path d="M13 28.876v-1.752c0-1.718.9-2.124 2.415-2.124h2.695c1.515 0 2.416.405 2.416 2.124v1.752c0 1.719-.901 2.124-2.416 2.124h-2.695C13.901 31 13 30.595 13 28.876zm1.616-1.192v.632c0 .852.166 1.176.961 1.176h2.437c.795 0 .986-.324.986-1.176v-.632c0-.73-.191-1.176-1.077-1.176h-2.255c-.886 0-1.052.446-1.052 1.176z" fill="#000"/><path d="M21 28.876c0 1.719.974 2.124 2.61 2.124h2.185c2.046 0 2.93-.08 2.93-1.767v-1.67H24.65v1.216h2.258v.17c0 .567-.474.64-.949.64h-1.94c-.916 0-1.153-.219-1.153-1.224v-.73c0-1.005.237-1.224 1.154-1.224h1.972c.58 0 .916.005.916.589h1.784v-.119c0-1.143-.286-1.881-2.348-1.881H23.61c-1.636 0-2.61.405-2.61 2.124v1.752zM29.373 31H31v-4.36L34.38 31H37v-6h-1.667v4.359h-.015L32.06 25h-2.687v6zM38 31h6v-1.442h-4.346v-.961h4.026v-1.243h-4.026v-.962H44V25h-6v6zM44.414 31h2.383l1.91-2.18 1.91 2.18H53l-2.838-3.008L52.8 25h-2.294l-1.799 2.097L46.908 25h-2.294l2.638 2.992L44.414 31z" fill="#000"/></svg>