<!-- by TradingView --><svg xmlns="http://www.w3.org/2000/svg" width="56" height="56"><path fill="#004770" d="M0 0h56v56H0z"/><path fill-rule="evenodd" d="M10.9 26.5l-.17-3h-.24c-.05.22-.28.6-.78.4a4.46 4.46 0 00-1.83-.4c-.7 0-3.85.58-3.88 4.79-.01 1.59.78 4.76 4.02 4.7A3.8 3.8 0 0011 31.26l-.23-.28c-.32.44-1.22 1.33-2.3 1.38-1.35.07-3.1-.83-3.1-4.06 0-3.24 1.64-4.2 2.72-4.21 1.08-.01 2.18.88 2.4 2.42h.4zm6.1 2c0 1.93-1.34 3.5-3 3.5s-3-1.57-3-3.5 1.34-3.5 3-3.5 3 1.57 3 3.5zm-1 0c0 1.72-.9 3.12-2 3.12s-2-1.4-2-3.12c0-1.72.9-3.12 2-3.12s2 1.4 2 3.12zM37 32c1.66 0 3-1.57 3-3.5S38.66 25 37 25s-3 1.57-3 3.5 1.34 3.5 3 3.5zm0-.38c1.1 0 2-1.4 2-3.12 0-1.72-.9-3.12-2-3.12s-2 1.4-2 3.12c0 1.72.9 3.12 2 3.12zM17 32v-.22c.26 0 .8-.1.81-1v-4.87c0-.23-.15-.7-.81-.67V25h1.7l1.98 5.28 1.9-5.28h1.71v.24c-.24 0-.74.15-.74.75v5c-.02.27.1.79.74.79V32H22v-.22c.26-.03.67-.13.67-.7v-5.09L20.48 32h-.12l-2.15-5.75V31c0 .23.19.72.79.78V32h-2zm11.26-7l.22 2h-.26c-.27-1.1-.9-1.6-1.63-1.58a.94.94 0 00-.9.65c-.1.32 0 1.14 1.32 1.86 1.32.7 1.64 1.76 1.64 2.2 0 1.75-1.57 1.87-1.81 1.87a2.7 2.7 0 01-1.15-.3c-.4-.19-.51.08-.52.24h-.27L24.65 30h.25c.45 1.63 1.73 1.63 1.84 1.63.18 0 .84-.16.9-1.11.06-.76-.7-1.44-1.14-1.68-.6-.34-1.7-1-1.73-2.13-.03-1.41 1.3-1.71 1.73-1.71.45 0 .75.15.96.25l.07.04c.4.1.5-.15.5-.29h.23zm.81 0h4.84l.09 2h-.25c0-.43-.2-1.48-1.12-1.52H32v5.5c0 .33.28.73 1 .77V32h-3v-.25c.27 0 1-.08 1-.76v-5.5h-.76c-.32 0-.97.48-1 1.51H29l.07-2zm16.52 0l.08 2.3h-.24c-.33-1.38-1.18-1.87-1.91-1.87-.7 0-2.17.54-2.22 2.88-.05 2.34 1.16 3.17 2.3 3.22.93.04 1.71-.66 1.99-1.02l.17.2A2.94 2.94 0 0143.37 32c-2.58-.07-3.12-2.49-3.06-3.69.12-2.88 2.4-3.31 3.06-3.31.53 0 1.11.2 1.34.29.44.1.61-.15.64-.29h.24zm.41 0h2.5v.25c-.26-.02-.78.08-.8.64v2.39l1.91-2.1c.27-.33.59-.95-.31-.93V25h2.3v.25c-.25 0-.82.12-1.18.64L48.64 28l2.37 3.07c.16.21.58.64.99.65V32h-2.7v-.27c.31.02.86-.06.55-.49-.23-.37-.95-1.4-1.93-2.58l-.23.17v2.25c.01.22.18.65.82.65V32H46v-.27c.27 0 .8-.12.8-.65v-5.2c-.02-.2-.19-.63-.8-.63V25z" fill="#fff"/></svg>