<!-- by TradingView --><svg width="56" height="56" viewBox="0 0 56 56" xmlns="http://www.w3.org/2000/svg"><path fill="#006790" d="M0 0h56v56H0z"/><path d="m22.56 31.26 1.48 1.2c-.83 1.18-3.3 3.54-6.6 3.54C13.34 36 8 33.5 8 26.05 8 18.59 14.01 17 16.95 17c2.1 0 3.83 1 4.44 1.5l.21-.5h1.48l.38 5h-1.31c-.53-1.45-2.32-4.5-5.2-4.5-3.59 0-3.95 5.61-3.95 8.5 0 2.89 1.8 7.04 4.97 7.04a5.37 5.37 0 0 0 4.6-2.78ZM29 20a2 2 0 1 1-4 0 2 2 0 0 1 4 0Zm-5.5 4.22V25H25v9h-1.5v2h7v-2H29V22.96l-5.5 1.26Zm7.5.28v8.47c.05 1.01.88 3.03 3.76 3.03.77-.03 2.53-.36 3.43-1.42l-.94-.93c-.26.16-.86.46-1.21.46-.44 0-1.04-.12-1.04-1.14V24.5h.94l5.42 12.28c-.33.61-.76 1.15-1.58 2.05.1-.42-.47-1.83-2.17-1.83-1.35 0-1.58 1.29-1.61 1.83 0 1.72 1.57 2.16 2.44 2.17 1.74 0 3.47-2.1 4.12-3.15L48 24.5H49V23h-5v1.5h1.9c-.6 1.48-1.59 4.27-2.42 6.67L40 23h-5v-4l-4 1.08V23h-1v1.5h1Z" fill="#fff"/></svg>