<!-- by TradingView --><svg width="56" height="56" viewBox="0 0 56 56" xmlns="http://www.w3.org/2000/svg"><path fill="#F0F3FA" d="M0 0h56v56H0z"/><path d="M19.58 28.41V23H19v6h3v-.59h-2.42ZM38.95 28.75l-1.28-5.38-.1-.37-.17.32-2.4 4.5-2.4-4.5-.17-.32-.07.37-1.31 5.38L31 29h.64l.03-.18.98-4.21 2.23 4.16.12.2.12-.2 2.23-4.16.98 4.2.03.19H39l-.05-.25ZM44 28.42a2.46 2.46 0 0 1-2.43-2.44c0-1.34 1.1-2.45 2.43-2.45a2.46 2.46 0 0 1 2.43 2.45c0 1.33-1.1 2.44-2.43 2.44ZM44 23c-1.63 0-3 1.38-3 3s1.37 3 3 3 3-1.38 3-3c0-1.64-1.37-3-3-3ZM16.9 28.82l-2.8-5.57L14 23l-.12.25-2.78 5.57L11 29h.66l.02-.07 2.3-4.6 2.31 4.6.05.07H17l-.1-.18ZM29.4 28.8l-2.8-5.57-.12-.23-.12.23-2.77 5.59-.09.18h.66l.02-.1 2.3-4.6 2.34 4.6.02.1h.66l-.1-.2ZM52 27.27c-.02-.92-.77-1.34-1.4-1.72-.53-.32-.97-.58-1.02-1.05a.83.83 0 0 1 .37-.76c.33-.25.84-.3 1.33-.11l.16.06v-.58l-.1-.02a2.17 2.17 0 0 0-1.78.22c-.37.27-.56.67-.56 1.19 0 .82.65 1.18 1.28 1.54.58.33 1.11.62 1.14 1.27 0 .36-.12.65-.37.85-.35.27-.96.36-1.59.22l-.16-.04V28.89l.1.03c.72.18 1.5.06 2-.32.41-.3.62-.78.6-1.33ZM4 25.99C4 27.62 5.48 29 7.25 29c.6 0 1.18-.16 1.68-.45l.07-.04v-.71l-.22.15c-.45.31-.98.47-1.53.47-1.4 0-2.6-1.12-2.6-2.43 0-1.32 1.2-2.43 2.6-2.43a2.68 2.68 0 0 1 1.73.6v-.7l-.08-.01A3.34 3.34 0 0 0 7.23 23C5.48 23 4 24.36 4 25.99ZM14.79 34h-.58L13 31h.52l.98 2.63L15.51 31H16l-1.21 3ZM6 31h-.37v3H6v-3ZM8 31h.5l2.13 2.42V31H11v3h-.5l-2.13-2.45V34H8v-3ZM39 31h.5l2.13 2.42V31H42v3h-.5l-2.13-2.45V34H39v-3ZM18 31h2v.38h-1.48v.89h1.35v.37h-1.35v.98H20V34h-2v-3ZM23.84 31.4a1.6 1.6 0 0 0-.67-.11c-.25 0-.63.08-.63.4 0 .21.2.32.38.4.47.2 1.08.4 1.08 1.02 0 .7-.73.89-1.3.89-.25 0-.46-.06-.7-.11v-.39s.54.16.8.16c.29 0 .66-.15.66-.49 0-.21-.18-.38-.38-.43-.44-.2-1.08-.35-1.08-.94s.65-.8 1.14-.8c.27 0 .5.06.76.11l-.06.29ZM49.84 31.4a1.6 1.6 0 0 0-.67-.11c-.25 0-.63.08-.63.4 0 .21.2.32.38.4.47.2 1.08.4 1.08 1.02 0 .7-.73.89-1.3.89-.25 0-.46-.06-.7-.11v-.39s.54.16.8.16c.29 0 .66-.15.66-.49 0-.21-.18-.38-.38-.43-.44-.2-1.08-.35-1.08-.94s.65-.8 1.14-.8c.27 0 .5.06.76.11l-.06.29ZM26.8 31.38H26V31h2v.38h-.8V34h-.39v-2.63ZM30 31h.64l.87 2.51.85-2.51H33v3h-.4v-2.6L31.7 34h-.38l-.91-2.6V34H30v-3ZM35 31h2v.38h-1.48v.89h1.35v.37h-1.35v.98H37V34h-2v-3ZM44.82 31.38H44V31h2v.38h-.8V34h-.38v-2.63Z" fill="#093C71"/></svg>