<!-- by TradingView --><svg xmlns="http://www.w3.org/2000/svg" width="56" height="56" viewBox="0 0 56 56"><path fill="#F0F3FA" d="M0 0h56v56H0z"/><path d="M12.23 26H10v-2H9v5h1v-2h2.23M4 26.5v.02A2.45 2.45 0 0 0 6.53 29c.83 0 1.4-.23 1.97-.81l-.64-.71c-.4.35-.76.52-1.33.52C5.64 28 5 27.33 5 26.5c0-1.16.98-1.5 1.44-1.5.46 0 .78.08 1.33.45l.7-.75c-.53-.49-1.1-.7-1.9-.7A2.48 2.48 0 0 0 4 26.5ZM32.5 25.83v-.02c0-1.03-.74-1.81-1.89-1.81H28.5v5h1v-1.4h1c1.22 0 2-.72 2-1.77Zm-3-.83h1.02c.63 0 .98.3.98.84 0 .52-.38.77-.96.77H29.5M45.03 26.94 46.4 29h1.19l-1.93-2.87.03-.03 1.8-2.1h-1.22l-1.78 2.1V24h-1v5h1v-1.49l.5-.61" fill="#10376F"/><path d="M33.8 32H36l-.13.47H34.2l-.21.79h1.48l-.12.46h-1.49l-.21.8h1.7l-.13.48H33M36.71 32h.43l.9 2.12.5-2.12H39l-.71 3h-.39l-.92-2.18-.52 2.18H36M39.8 32H42l-.13.47H40.2l-.21.79h1.48l-.12.46h-1.5l-.2.8h1.7l-.13.48H39M42.75 32h1c.4 0 .67.1.85.3a.79.79 0 0 1 .2.56 1 1 0 0 1-.25.68c-.2.2-.44.32-.7.36l.52 1.1h-.56l-.48-1.05h-.58L42.5 35H42l.75-3Zm.75 1.49c.3 0 .52-.08.65-.23a.5.5 0 0 0 .14-.36.41.41 0 0 0-.1-.27c-.09-.1-.24-.15-.46-.15h-.61l-.25 1M45 33.75c.01-.47.2-.91.51-1.24.32-.33.75-.51 1.2-.51.58 0 .9.25 1.09.51l-.36.33a.93.93 0 0 0-.34-.29.88.88 0 0 0-.43-.08c-.66 0-1.16.6-1.16 1.27 0 .5.34.8.78.8.2 0 .4-.05.59-.15l.16-.62h-.7l.12-.44h1.17l-.37 1.39c-.3.19-.65.29-1 .28-.64 0-1.26-.42-1.26-1.25ZM48.93 33.8 48.3 32h.55l.42 1.35L50.4 32H51l-1.59 1.86-.28 1.14h-.5" fill="#666668"/><path d="M22.5 27.52v-.01c0-.86-.61-1.24-1.65-1.49-.98-.23-1.02-.32-1.02-.59 0-.16.14-.43.72-.43.43 0 .73.12 1.24.43l.6-.79a2.78 2.78 0 0 0-1.84-.64c-1.1 0-1.73.58-1.73 1.43v.02c0 .77.48 1.16 1.5 1.4.92.22 1.16.25 1.16.65v.01c0 .3-.43.49-.9.49-.56 0-.9-.17-1.45-.56l-.63.83c.62.47 1.28.73 2.09.73 1.18 0 1.91-.56 1.91-1.48ZM26.53 28l.4 1H28l-2.05-5h-.9L23 29h1.05l.4-1h2.08Zm-1.03-2.81.7 1.81h-1.37M41.33 28l.4 1h1.07l-2.05-5h-.9l-2.05 5h1.05l.4-1h2.08Zm-1.03-2.81L41 27h-1.37" fill="#10376F"/><path d="M52 30H13v-6h-1v7h39.12" fill="#8FC645"/><path d="M52 27v-1h-2.5v-1H52v-1h-3.5v5H52v-1h-2.5v-1M37 27v-1h-2.5v-1H37v-1h-3.5v5H37v-1h-2.5v-1M17.5 27v-1H15v-1h2.5v-1H14v5h3.5v-1H15v-1" fill="#10376F"/></svg>