<!-- by TradingView --><svg width="56" height="56" viewBox="0 0 56 56" xmlns="http://www.w3.org/2000/svg"><path fill="#F0F3FA" d="M0 0h56v56H0z"/><path d="m32.19 26.13.68-.06c0-1.03-.36-1.94-.68-2.86.06-1.1.09-2.2.2-3.3.1-1.04.1-2.1 0-3.16a.85.85 0 0 1 .08-.58c1.97.16 3.82.78 5.63 1.54 1.26.49 2.45 1.13 3.56 1.9 1.46 1.05 2.48 2.37 2.33 4.3a5.44 5.44 0 0 1-1.5 3.1c-1.87 2.21-4.35 3.44-7.06 4.3a1.4 1.4 0 0 1-.87-.5 19 19 0 0 0-2.92-2.68l-.28-.56.32-1.25.51-.19Z" fill="#205FA0"/><path d="M28.8 42.84a8.09 8.09 0 0 0 3.72-2.57c1.68-2.27 2.2-5.19-.03-7.67-.07-.1-.13-.2-.18-.32.91-.34 1.86-.59 2.82-.74a31.08 31.08 0 0 1 5.14 9.07c.29.75.45 1.54.48 2.33.05 1.9-1 3-2.89 3.06-1.8.05-3.51-.43-5.18-1.05a22.74 22.74 0 0 1-3.55-1.79c-.13-.07-.32-.1-.33-.32Z" fill="#DF9015"/><path d="m21.54 19.26-2.7.57a10.8 10.8 0 0 1 1.46-3.41 19.9 19.9 0 0 1 4.7-5.35 4.7 4.7 0 0 1 2.38-1.04c1.46-.18 2.54.5 3.3 1.66a8.88 8.88 0 0 1 1.57 4.33c-.59 0-1.18.02-1.77 0-2.28-.07-4.4.5-6.4 1.49-.93.46-1.86.93-2.54 1.75Z" fill="#C0156E"/><path d="M35.13 31.54c-.96.15-1.9.4-2.82.74-2.22-1.98-4.93-2.94-7.73-3.72-.99-.27-1.93-.66-2.81-1.18-1-.6-1.3-1.24-1.08-2.22.17-.78.84-1.27 1.87-1.4a4.88 4.88 0 0 1 1.76.07c1.19.27 2.03.9 2.2 2.3h5.68l-.53.19-.32 1.25.28.56c1.06.79 2.04 1.69 2.92 2.68.22.27.53.45.88.5l-.3.23Z" fill="#3F2666"/><path d="M13.56 24.82c-.49 5.3 2.08 7.58 7.2 8.82 1.21.3 2.44.47 3.6.92.74.28 1.44.64 1.93 1.25.9 1.13.21 2.9-1.25 3.4-.4.14-.85.1-1.21.37-1.18-.6-2.15-1.49-3.16-2.3a40.77 40.77 0 0 1-7.05-6.95 7.74 7.74 0 0 1-1.55-2.96c-.28-1.23.3-2.2 1.5-2.55Z" fill="#DF9015"/><path d="M21.54 19.26a7.3 7.3 0 0 1 2.54-1.74c2.01-1 4.13-1.55 6.4-1.48h1.77l.2.14a.85.85 0 0 0-.08.59c.11 1.05.11 2.11 0 3.16-.1 1.1-.13 2.2-.2 3.29-1.47-2.66-3.94-3.6-6.75-3.99-1.29-.16-2.6-.14-3.88.03Z" fill="#3F2666"/></svg>