<!-- by TradingView --><svg width="56" height="56" xmlns="http://www.w3.org/2000/svg"><path fill="#F0F3FA" d="M0 0h56v56H0z"/><path d="M26.983 30.969c-6.586.15-12.18.665-15.804 1.45-.634.139-4.636.715-3.381 1.955.757.746 3.261 1.434 7.102 1.949 1.687.225 4.665.496 4.61.432-.01-.012-.647-.073-.973-.126-3.497-.568-5.437-1.348-5.442-2.18 0-.164.426-.056.587-.226 1.083-1.15 5.742-1.79 13.362-2.207 2.485-.134 4.1-.078 7.923-.108 1.772-.014 4.439.135 5.662.124 1.47-.011 2.665-.009 3.518.014 1.172.03 1.565.047 2.457.103.158.01.277.01.27 0-6.13-.953-9.162-1.11-10.864-1.155-1.402-.036-7.747-.053-9.027-.025z" fill="#E7A614"/><path d="M11.375 23.022c-1.432.082-2.655.53-3.675 1.346-1.211.967-1.79 2.267-1.689 3.787.08 1.179.543 2.141 1.406 2.93.98.895 2.18 1.394 3.693 1.536.456.041 1.553.017 1.959-.048 1.16-.18 2.035-.53 2.838-1.133 1.04-.78 1.628-1.761 1.793-2.982a5.947 5.947 0 00-.037-1.478c-.173-.933-.639-1.737-1.399-2.427-1.037-.94-2.327-1.444-3.933-1.533a5.485 5.485 0 00-.956.002zm1.522 1.201c1.004.174 1.785.545 2.47 1.172.304.28.656.791.81 1.18.343.866.292 1.992-.127 2.824-.362.719-1.078 1.36-1.91 1.708-.63.26-1.214.374-2.068.395-1.62.041-2.831-.35-3.711-1.203a3.2 3.2 0 01-.956-1.696c-.07-.306-.086-.965-.033-1.314.12-.791.497-1.452 1.148-2.022.67-.586 1.529-.947 2.566-1.078.41-.05 1.433-.033 1.811.034zM31.325 24.13c-.42.026-.57.043-.88.096-.96.166-1.704.547-2.085 1.068-.25.345-.357.856-.27 1.295.13.637.54 1.01 1.365 1.242.6.167 1.071.218 2.81.302.586.029 1.124.08 1.42.135.56.106.941.33 1.108.646.07.135.077.167.077.377 0 .205-.007.243-.07.369-.101.2-.207.31-.432.458-.45.299-1.051.439-1.994.468-1.271.038-2.424-.196-3.38-.683a5.61 5.61 0 01-.404-.226 2.068 2.068 0 00-.157-.097c-.005 0-.092.111-.196.246a24.18 24.18 0 01-.308.398l-.116.152.21.137c.431.28.989.531 1.567.707 1.204.364 2.989.44 4.277.179 1.264-.254 2.05-.866 2.233-1.742.048-.22.046-.663-.002-.88-.167-.755-.736-1.172-1.961-1.438-.586-.127-1.274-.207-3.162-.366-.873-.073-1.199-.16-1.462-.391-.164-.145-.214-.256-.214-.487 0-.169.01-.21.072-.323a.905.905 0 01.164-.208c.22-.188.649-.337 1.184-.412.376-.05 1.394-.073 1.802-.036.806.074 1.693.313 2.289.62l.157.079.354-.367c.41-.424.405-.364.032-.564-.743-.396-1.494-.613-2.473-.716a11.712 11.712 0 00-1.555-.039zM44.41 24.13c-1.41.084-2.456.5-2.934 1.169-.14.198-.215.374-.265.617-.08.398-.002.888.188 1.185.345.542 1.22.86 2.636.96.2.012.705.04 1.122.06 1.49.072 1.995.164 2.412.434.2.13.27.207.354.386.058.123.068.174.068.35-.003.17-.012.229-.068.347a1.05 1.05 0 01-.412.468c-.458.306-1.069.45-2.029.48-1.119.034-2.185-.152-3.072-.54a6.777 6.777 0 01-.803-.427l-.063-.041-.3.39a7.831 7.831 0 00-.296.403c0 .036.432.297.772.463.914.451 1.93.673 3.256.714 1.724.056 3.044-.284 3.726-.96.398-.395.577-.873.55-1.488a1.562 1.562 0 00-.222-.789c-.378-.646-1.3-.988-3.174-1.177-.193-.019-.784-.074-1.314-.12-1.107-.1-1.252-.116-1.488-.198-.225-.075-.35-.152-.473-.285a.554.554 0 01-.174-.422.64.64 0 01.203-.494c.224-.227.608-.371 1.237-.466.417-.06 1.681-.06 2.106 0 .738.109 1.456.321 1.99.591l.147.073.335-.35c.186-.193.34-.364.345-.379.002-.014-.085-.077-.193-.14-.745-.424-1.58-.675-2.586-.776a12.046 12.046 0 00-1.582-.039zM21.093 25.15c-.716 1.316-2.173 3.993-2.807 5.154-.314.576-.57 1.054-.565 1.06.005.008.287.008.63 0l.622-.011.642-1.353H25c.217.294.372.627.546.948l.224.417h.625c.342 0 .624-.005.624-.01s-.28-.523-.622-1.15c-1.375-2.52-2.426-4.453-2.477-4.544a72.137 72.137 0 00-.396-.731l-.344-.632h-1.624l-.463.851zm1.684.672C23.14 26.5 24.5 29 24.5 29h-2.136c-1.087 0-2.21.007-2.21.007s1.605-2.792 2.046-3.607c.092-.169.172-.306.176-.306.005 0 .184.328.4.728zM38 27.831v3.534h1l.005-3.534.007-3.831H38v3.831zM31.252 31.799c-6.14.13-11.358.577-14.737 1.257-1.273.258-2.18.528-2.824.841-.519.256-.757.497-.757.772 0 .16.07.285.246.446.706.647 3.041 1.242 6.623 1.689 1.572.195 4.008.42 3.958.364a6.345 6.345 0 00-.567-.099c-3.261-.492-5.07-1.167-5.075-1.889 0-.142.056-.253.205-.4 1.01-.996 5.883-1.811 12.988-2.173 2.318-.116 3.84-.154 7.405-.18 1.652-.013 3.936-.03 5.077-.04 1.37-.01 2.484-.007 3.28.013 1.093.026 1.46.04 2.292.089.147.01.258.01.25 0-.03-.034-1.285-.188-2.264-.28-2.072-.188-4.407-.306-7.682-.388a428.562 428.562 0 00-8.418-.022z" fill="#004890"/></svg>