<!-- by TradingView --><svg xmlns="http://www.w3.org/2000/svg" width="56" height="56" viewBox="0 0 56 56"><path fill="#F0F3FA" d="M0 0h56v56H0z"/><path d="M13.28 32.75c-.43.88-1.22 2.25-3.21 2.25A3.89 3.89 0 0 1 6 31.03C6 28.1 8.52 27 10.25 27c1.05 0 1.93.28 2.75.54v2.02l-.2.3-.28-.08c-.13-.89-.4-2.23-2.26-2.23-1.3 0-2.49.93-2.49 3.47 0 1.7.65 3.29 2.6 3.29 1.42 0 2-.96 2.44-1.55l.38-.17.1.16ZM13.6 32.2c0-1.17 1.05-2.57 2.9-2.57 1.68 0 2.85 1.1 2.85 2.7 0 1.51-1.16 2.67-2.93 2.67-1.85.01-2.82-1.32-2.82-2.8Zm2.98 2.3c.65 0 1.27-.66 1.27-1.87 0-1.28-.42-2.5-1.44-2.5-.92 0-1.28.85-1.28 1.78-.03 1.7.57 2.6 1.45 2.6Z" fill="#414042"/><path d="M20.25 28.43c0-.42-.03-.66-.47-.66h-.3l-.1-.14.33-.3 2.02-.33-.05 3.85c.49-.5 1.16-1.07 1.99-1.07 1.57 0 1.86 1.17 1.86 1.97v1.86c0 .9.13.93 1.02 1.01l.08.09-.28.29H23.1l-.1-.13.29-.25c.61-.13.7-.18.7-1.01V32c0-.73-.25-1.44-1.07-1.44-1.02 0-1.17.9-1.17 1.44v1.6c0 .92.11.94.9 1.02l.08.09-.28.29h-3.11l-.09-.13.28-.25c.61-.13.71-.18.71-1.01v-5.18ZM31.4 34.2c-.17.1-1 .8-2.5.8-1.4 0-2.41-.92-2.41-2.56 0-1.8 1.08-2.82 2.67-2.82.91 0 2.34.54 2.34 1.83 0 .2-.01.36-.08.55h-3.41c.04 1.1.43 2.21 1.49 2.21.96 0 1.48-.47 1.9-.76l.13.07-.13.68ZM30 31.6c0-.77-.2-1.49-.9-1.49-.82 0-1.1.73-1.1 1.55l2-.07ZM32.88 31.1c0-.43-.05-.67-.47-.67h-.31l-.09-.15.32-.31 2.05-.35-.12 1.48.02.03c.33-.76.84-1.5 1.38-1.5.28 0 .55.18.8.31l.13.19-.66 1.16c-.36-.37-.51-.6-.82-.6-.73 0-.73 1.23-.73 1.56v1.32c0 .93.13.96.92 1.04l.06.09-.26.3h-3.13l-.09-.13.3-.26c.6-.13.7-.18.7-1.04V31.1ZM43.26 35h-1.97c.05-.45.07-.85.13-1.21l-.02-.03c-.22.28-.83 1.24-1.97 1.24-1.31 0-1.92-.85-1.92-2.39v-1.6c0-.4 0-.61-.41-.61h-.3l-.1-.14.32-.31L39 29.6v3.54c0 .48.33 1.1 1.08 1.1.84 0 1.14-.96 1.14-1.61v-1.61c0-.4-.05-.61-.48-.61h-.3l-.09-.14.32-.3 2.05-.35v3.8c0 .92.23 1.07.7 1.15l.07.11-.23.32ZM47.22 31.11c-.18-.46-.46-1-1.25-1-.48 0-.83.29-.83.65 0 .43.32.53 1.1.76.9.28 1.76.57 1.76 1.68 0 1.35-1.26 1.8-2.23 1.8s-1.58-.3-2.03-.5c.04-.18.04-.33.04-.51s0-.36-.04-.58l.35-.3.12.05c.16.47.49 1.35 1.42 1.35.53 0 .92-.4.92-.81 0-.52-.53-.68-1.06-.87-.66-.2-1.58-.49-1.58-1.54 0-1.17 1.08-1.69 2-1.69.92 0 1.53.3 1.72.39-.03.3-.04.43-.04.92l-.21.22h-.16v-.02Z" fill="#414042"/><path d="M36.5 20.26c4.97-.77 7.05 3.07 7.46 6.5-.2-1.32 1.03-4.45.92-7.02-1.83-.44-4.57-.4-8.38.52Z" fill="#05749D"/><path d="M35.75 17.95c-.8.81-1.55 1.75-2.25 2.73a21.79 21.79 0 0 1 3-.95c3.8-.97 6.53-1.04 8.36-.61-.29-5.45-5.22-5.13-9.11-1.17Z" fill="#00B2D2"/><path d="M45.53 19.8c.11 2.58-1.11 5.72-.92 7.02.04.25.13.43.3.53.32.2.72.13 1.13-.11 2.23-1.38 2.74-6.64-.51-7.43Z" fill="#B72126"/><path d="M28.4 27.42c1.26.9 3.42-1.65 4.57-3.19a43.8 43.8 0 0 1 3.06-3.76c-5.84 1.46-9.55 5.57-7.63 6.95Z" fill="#F26722"/></svg>