<!-- by TradingView --><svg width="56" height="56" viewBox="0 0 56 56" xmlns="http://www.w3.org/2000/svg"><path fill="#F0F3FA" d="M0 0h56v56H0z"/><path d="M15.34 24.89c-5.2 2.3-8.15 5.18-7.32 8.06 1.29 4.47 11.05 6.26 22.41 4.36 11.37-1.89 18.62-5.78 18.25-10.55-.13-1.76-1.5-3.65-4.2-4.6 0 0-.07-.02-.06-.06.01-.05.08-.03.08-.03 3.52 1.02 4.9 2.69 5.36 4.71 1.17 5.08-5 11-19.2 13.37-14.19 2.36-22.94-.38-24.51-5.82-.93-3.25 2.52-6.9 9.08-9.61 0 0 .14-.05.17.03s-.06.14-.06.14Z" fill="#0B4B8C"/><path d="M17.72 18c.28 0 1.24.07 1.96.22 1.77.32 1.8.41 1.8 2.26 0 .2 0 .26-.15.26-.62 0-.9-2.09-3.57-2.09-2.53 0-4.75 2.59-4.75 6.65 0 3 1.41 6.04 4.59 6.04 1.74 0 2.53-.87 3.01-1.52.46-.63.64-1.02.84-1.02.1 0 .24.09.24.18 0 1.13-.28 1.78-.38 2.02-.12.32-1.75 1-3.57 1-3.76 0-7.13-2.52-7.13-6.85 0-3.54 2.27-7.15 7.1-7.15ZM26 23.77c0 .57.17.75.65.75h5.06c1.22 0 1.29-.04 1.29-.31v-4.32c0-.84.06-.96-1.13-1.16-.32-.05-.6-.1-.6-.34 0-.39.34-.39.67-.39h4.5c.23 0 .66 0 .66.32 0 .34-.34.32-1.33.4-.41.03-.77.3-.77.94V30.4c0 .63.43.84 1.05.86.55.02 1.03.05 1.03.41 0 .3-.41.32-.67.32H31.3c-.2 0-.45-.05-.45-.3 0-.34.52-.4 1.03-.43.96-.07 1.13-.38 1.13-1.84v-3.57c0-.5-.1-.54-1.06-.56H28c-1.65 0-2 .13-2 .54v4.57c0 .56.58.7 1.43.86.25.05.76.1.76.43 0 .25-.33.3-.5.3h-5.2c-.16 0-.6 0-.6-.25 0-.36.6-.39 1.01-.48.65-.14 1.1-.23 1.1-1V19.84c0-.88 0-.9-1.26-1.11-.27-.05-.55-.1-.55-.43 0-.25.25-.3.5-.3h4.6c.53 0 .67.07.67.32 0 .38-.56.36-1.06.4-.5.06-.9.3-.9.96v4.1ZM44.47 21.3c0 .1-.07.18-.2.18-.74 0 0-2.74-2.96-2.74-1.7 0-2.38.96-2.38 2.02 0 3.13 6.54 2.72 6.54 7.2 0 2.8-2.03 4.04-4.66 4.04-.37 0-1.37-.18-2.11-.33-1.36-.28-1.6-.67-1.6-2 0-.58.07-1.89.5-1.89.57 0 .1.63.75 1.83.21.39.95 1.65 2.78 1.65 2.07 0 2.9-1.26 2.9-2.35 0-3.3-6.53-3.08-6.53-7.26 0-1.82 1.35-3.65 4.11-3.65.3 0 .75.02 1.18.1 1.68.34 1.68.57 1.68 1.4v1.8Z"/></svg>