<!-- by TradingView --><svg width="56" height="56" viewBox="0 0 56 56" xmlns="http://www.w3.org/2000/svg"><path fill="#F0F3FA" d="M0 0h56v56H0z"/><path fill-rule="evenodd" d="M10.58 30.8c-.7.74-1.66 1.2-2.74 1.2A3.92 3.92 0 0 1 4 28c0-2.2 1.72-4 3.84-4 1.05 0 2 .44 2.7 1.14l-.4.23a3.04 3.04 0 0 0-2.2-.96C6.18 24.4 4.74 26 4.74 28c0 1.98 1.44 3.6 3.22 3.6.93 0 1.77-.45 2.36-1.16l.27.36ZM12 32v-8h.74v3.2h4.52V24H18v8h-.74v-4.4h-4.52V32H12Zm7.4 0H19l2.96-6.93L21.5 24h.74l3.49 8H25l-.96-2.17h-3.73L19.4 32Zm2.73-6.49 1.74 3.93h-3.39l1.65-3.93Zm4.39-1.1V32H27v-6.94L32 32v-8h-.46v6.14L27.14 24h-.86l.24.4ZM46.53 32v-7.6l-.24-.4h.86l4.4 6.14V24H52v8l-5-6.94V32h-.47Zm-9.76-6.9-.31.24c-.45-.58-.76-.92-1.38-.92-.63 0-1.39.35-1.39 1.23s.67 1.35 1.51 1.79c.85.43 1.87 1.24 1.87 2.4 0 1.15-.7 2.16-2.16 2.16-1.16 0-1.94-.92-2.18-1.38l.32-.22c.34.61 1.18 1.15 1.7 1.15.53 0 1.66-.22 1.66-1.52 0-1.08-.8-1.54-1.64-2.03-.18-.1-.36-.2-.54-.32-1-.63-1.15-1.3-1.15-1.86 0-.54.43-1.82 1.74-1.82 1.05 0 1.73.74 1.95 1.1ZM46 28a4 4 0 1 1-8 0 4 4 0 0 1 8 0Zm-.83 0c0 2-1.42 3.63-3.17 3.63s-3.17-1.62-3.17-3.63c0-2 1.42-3.63 3.17-3.63s3.17 1.62 3.17 3.63Z" fill="#3C495D"/></svg>