<!-- by TradingView --><svg width="56" height="56" viewBox="0 0 56 56" fill="none" xmlns="http://www.w3.org/2000/svg">
<rect width="56" height="56" fill="#FFE100"/>
<path fill-rule="evenodd" clip-rule="evenodd" d="M36.9148 23.6185C36.4002 24.4017 36.3346 25.0453 36.3661 25.2693C36.7193 24.6166 37.4825 23.2231 37.7095 22.8699C37.8143 22.707 37.8907 22.5937 37.9492 22.5069L37.9492 22.5069C38.0492 22.3587 38.0969 22.2879 38.1447 22.1789C38.2204 22.0061 38.6366 21.4687 39.1286 20.8736C39.4693 20.4616 40.0096 19.9114 40.3662 19.5483C40.5245 19.3871 40.6467 19.2627 40.699 19.2037C40.7456 19.1511 40.8206 19.0267 40.9142 18.8712C41.1626 18.4588 41.5423 17.8285 41.8721 17.7449C42.3262 17.6297 41.3045 19.7603 41.0207 20.1826C40.7369 20.6049 40.226 21.0656 39.9611 21.2383C39.8056 21.3397 39.787 21.3684 39.7829 21.3748C39.7823 21.3757 39.782 21.3762 39.7816 21.3763C39.7812 21.3764 39.7808 21.3762 39.78 21.3759C39.7776 21.375 39.7715 21.3727 39.753 21.3727C39.6773 21.3727 39.7341 21.891 40.226 22.1789C40.3365 22.2436 40.4203 22.2947 40.484 22.3336C40.6152 22.4136 40.6612 22.4417 40.68 22.4291C40.6902 22.4223 40.6925 22.4038 40.696 22.3752C40.6969 22.368 40.6978 22.3601 40.699 22.3516C40.7179 22.2173 41.4559 21.6414 41.8721 21.3727C42.2051 21.1577 42.7173 20.8608 42.9317 20.7393C43.184 20.5025 43.7188 19.9753 43.8399 19.7603C43.961 19.5453 43.2849 19.8499 42.9317 20.0291C42.9191 19.0693 42.9014 17.073 42.9317 16.7659C42.962 16.4588 43.247 16.2669 43.3858 16.2093C43.4426 15.8062 43.488 15 43.2155 15C42.8749 15 42.1749 15.6718 41.3045 16.6316C40.7032 17.2946 39.1447 19.9089 38.0265 21.7848L38.0264 21.7848L38.0263 21.785C37.5259 22.6244 37.1137 23.3159 36.9148 23.6185ZM17.8008 22.9944C17.9849 22.9477 18.3532 22.5928 18.3532 21.5467C18.3532 20.2391 18.031 20.0523 17.1563 20.0523C16.2817 20.0523 10.0755 23.4396 10.0755 32.476C9.99695 33.9423 10.3206 36.8747 12.2435 36.8747C14.1663 36.8747 15.0869 36.4922 15.3069 36.301C16.2985 35.3938 18.5411 33.0101 19.5789 30.7326L19.2082 33.7943C19.3229 34.0271 19.6795 34.5195 20.1878 34.6269C20.7693 34.7498 21.24 33.2752 21.7013 31.8301L21.7014 31.8295C21.7441 31.6959 21.7866 31.5626 21.8292 31.4309C22.2316 30.1847 23.1793 27.6708 23.6029 26.5697C23.497 28.1901 23.317 31.4953 23.4441 31.7532C23.4726 31.811 23.4986 31.8715 23.5244 31.9316L23.5245 31.9317C23.6426 32.2064 23.7584 32.476 24.1059 32.476C24.5295 32.476 26.0005 30.3433 26.0853 25.945C25.7265 27.3461 24.9545 30.1712 24.7369 30.2632C24.4649 30.3782 24.6009 28.4007 24.6009 28.4007V25.945C24.6036 25.6905 24.5083 25.1815 24.1059 25.1815C23.6029 25.1815 22.0396 27.21 21.3596 29.3204C21.3992 27.9083 21.5459 24.5186 21.8161 22.2573C22.1538 19.4306 22.4916 16.5183 22.1538 15.1907C21.7739 17.1608 20.9971 21.2465 20.9296 21.829C20.8876 22.1904 20.7304 23.2093 20.5315 24.4985L20.5314 24.499L20.5314 24.4991C20.3297 25.8067 20.085 27.3925 19.8741 28.8528C18.7202 31.0227 15.9649 35.3626 14.1749 35.3626C13.7197 35.5451 12.6962 35.6985 12.2435 34.8522C11.6775 33.7943 12.0132 30.6655 12.7306 27.9235C13.448 25.1815 15.7566 21.4775 16.7787 21.2695C17.246 21.1745 17.2055 21.5268 17.1583 21.9374C17.1023 22.4249 17.0368 22.9944 17.8008 22.9944ZM38.826 18.3846C38.7432 18.4326 38.6024 18.471 38.7018 18.2405C38.8012 18.01 39.1101 16.5118 39.2521 15.7914C39.2876 15.7794 39.4118 15.7302 39.6248 15.6294C39.8911 15.5033 40.4946 15.6474 40.5124 15.7914C40.5266 15.9067 39.3941 17.5682 38.826 18.3846ZM27.0496 23.6316C27.3632 22.4472 27.732 22.2543 27.8772 22.3058C28.1237 22.4025 28.0988 23.0698 28.0556 23.3913C27.6292 24.9999 26.9745 28.1395 27.7673 27.8298C28.2949 27.6237 28.7714 25.8403 29.2013 24.2312C29.579 22.8178 29.9207 21.5389 30.2295 21.5817C30.7705 21.6566 30.5987 22.9842 30.5188 23.6012C30.5012 23.7374 30.4881 23.839 30.4881 23.8848C30.4881 23.9482 30.461 24.1101 30.4273 24.3124C30.3259 24.9196 30.1637 25.891 30.4881 25.6579C30.9205 25.3472 32.4881 21.8924 32.6907 21.015C32.8529 20.3131 33.4843 20.2351 33.7798 20.2839C33.3132 21.8863 32.5782 25.0328 33.371 24.7988C34.1638 24.5648 35.6089 20.584 36.2324 18.6228C36.3413 18.5124 36.657 18.2379 37.0489 18.0236C37.4408 17.8094 37.525 17.9344 37.5181 18.0236C37.7825 19.4413 36.1207 23.6316 35.8186 24.1923C35.5768 24.6409 35.4415 26.15 35.404 26.8484C35.9992 26.3519 36.6981 26.1117 37.4557 25.8513C37.8889 25.7023 38.3414 25.5468 38.8045 25.333C43.2948 23.26 48.9751 21.8197 49.5756 21.8535C50.1921 21.8882 50.0037 22.3892 49.8325 22.6353C45.2428 23.1218 37.9522 26.8971 34.8807 28.724C34.7607 30.2449 34.5088 33.3477 34.4609 33.591C34.4129 33.8344 33.9868 34.2399 33.7798 34.4123C33.6999 34.618 33.5881 35.0823 33.7798 35.2945C33.9564 35.49 33.7424 36.7068 33.6177 37.4155L33.6177 37.4156L33.6177 37.4156C33.5733 37.6682 33.5402 37.8562 33.5402 37.9105V39.1577C33.5402 39.4497 33.4689 39.8436 33.4332 40.004V40.9062C33.3985 40.935 33.2904 41.0003 33.1357 41.031C33.0997 41.0382 33.0753 41.0413 33.0597 41.0433C33.0443 41.0453 33.0375 41.0462 33.0369 41.0487C33.0363 41.0507 33.0394 41.0536 33.0449 41.0588C33.0636 41.0766 33.1101 41.1207 33.1357 41.2422C33.1558 41.3378 33.1514 41.553 33.1469 41.7774V41.7774C33.1395 42.1389 33.1316 42.5241 33.225 42.4708C33.3461 42.4017 33.4856 41.7251 33.5402 41.3955C33.6201 41.8224 33.7798 42.8232 33.7798 43.4107C33.7798 43.9983 33.3504 43.6556 33.1357 43.4107C33.1357 44.98 33.0467 48.0943 32.6907 47.9978C32.3825 47.9141 32.5013 44.2972 32.6034 41.1883L32.6034 41.1881C32.6487 39.8091 32.6907 38.5302 32.6907 37.7038C32.6907 35.5525 32.9874 31.1067 33.1357 29.1527C31.2791 30.308 27.5061 32.6711 27.2674 32.8821C27.0286 33.093 24.9656 34.4014 23.964 35.0293C23.506 35.3809 22.5084 36.084 22.1816 36.084H21.5875C18.9758 37.6411 13.552 40.8832 12.75 41.3955C11.9479 41.9078 11.7226 41.8601 11.7103 41.7722C11.1161 42.3247 9.94276 43.279 10.0022 42.6763C10.0764 41.9229 17.2059 37.8545 17.5401 37.7038C17.7629 37.6034 17.8206 37.436 17.8784 37.2685C17.9073 37.1848 17.9361 37.1011 17.9856 37.0258C18.1045 36.845 28.4049 30.8198 33.5402 27.8298L33.7798 25.333C33.6346 25.5097 33.2135 25.8633 32.6907 25.8633C32.168 25.8633 31.9357 25.0825 31.8849 24.6922C31.5509 25.5834 30.7523 27.3658 30.2295 27.3658C29.7068 27.3658 29.489 26.5998 29.4454 26.2168L29.293 26.3494C28.9009 27.6088 27.8772 29.4649 27.2674 29.4649C26.6575 29.4649 26.3308 28.2496 26.3308 27.3658C26.3308 26.4819 26.6575 25.112 27.0496 23.6316ZM40.4846 25.1991C40.9145 25.014 41.8472 24.6042 42.1392 24.4462C42.5042 24.2488 43.2828 23.9279 43.3436 23.9402C43.4044 23.9526 43.4166 24.1377 43.1611 24.2611C42.9056 24.3845 42.0297 24.7918 41.6769 24.9029C41.5853 24.9317 41.4608 24.9806 41.3268 25.0331L41.3268 25.0331L41.3268 25.0332C40.9447 25.1831 40.4846 25.3635 40.4846 25.1991ZM33.5339 33.4445C33.5454 33.1919 33.586 32.6655 33.6555 32.581C33.7423 32.4752 33.916 32.3695 34.0029 32.581C34.0724 32.7501 33.8002 33.3446 33.6555 33.6207L33.5339 33.4445Z" fill="#E50019"/>
</svg>
