<!-- by TradingView --><svg xmlns="http://www.w3.org/2000/svg" width="56" height="56"><path fill="#F0F3FA" d="M0 0h56v56H0z"/><path fill-rule="evenodd" d="M37.4 31c1.43 0 2.6-1.12 2.6-2.5S38.83 26 37.4 26a2.56 2.56 0 00-2.62 2.5c0 1.38 1.17 2.5 2.61 2.5zm0-1a1.5 1.5 0 001.51-1.5c0-.83-.68-1.5-1.52-1.5a1.5 1.5 0 00-1.52 1.5c0 .83.68 1.5 1.52 1.5z" fill="#023D54"/><path d="M8.41 26.82l-.62.8c-.22-.3-.82-.61-1.3-.62-.61-.01-1.43.46-1.49 1.48C4.94 29.51 6.02 30 6.43 30c.46 0 1.1-.26 1.3-.54l.66.75A2.55 2.55 0 014 28.5a2.55 2.55 0 114.41-1.68zM33 26h1v5h-1z" fill="#023D54"/><path fill-rule="evenodd" d="M29 26h-1v5h1v-1.5h1.25a1.75 1.75 0 100-3.5H29zm0 1v1.5h1.25a.75.75 0 000-1.5H29zm-9-1h1v.7a1.65 1.65 0 012.9.36 1.6 1.6 0 013.1.54V31h-1v-3a1 1 0 00-2 0v3h-4v-5zm1 2a1 1 0 112 0v3h-2v-3z" fill="#023D54"/><path d="M42 26h-1v5h1v-3.01a1 1 0 012 .01v3h1v-3.33a1.67 1.67 0 00-3-1.01V26zM9 26h1v2h2v-2h1v5h-1v-2h-2v2H9v-5z" fill="#023D54"/><path fill-rule="evenodd" d="M14 31l1.35-3.5h2.3L19 31h-1.18l-.42-1h-1.8l-.4 1H14zm1.88-1.8l.62-1.58.6 1.58h-1.22z" fill="#023D54"/><path d="M16.49 24.5l-.95 2.5h1.9l-.95-2.5zM47.4 26H46l1.84 2.2c.03.05.1.08.15.08h.82v-.71l-1.26-1.5a.2.2 0 00-.16-.07zm0 5H46l1.84-2.2a.2.2 0 01.15-.08h.82v.71l-1.26 1.5a.2.2 0 01-.16.07z" fill="#DF4B21"/><path d="M50.6 26H52l-1.84 2.2a.2.2 0 01-.15.08h-.82v-.71l1.26-1.5a.2.2 0 01.16-.07zm0 5H52l-1.84-2.2a.2.2 0 00-.15-.08h-.82v.71l1.26 1.5c.04.04.1.07.16.07z" fill="#023D54"/></svg>