<!-- by TradingView --><svg xmlns="http://www.w3.org/2000/svg" width="56" height="56" viewBox="0 0 56 56"><path fill="#F0F3FA" d="M0 0h56v56H0z"/><path fill="#F4BD06" d="M10 30h36v8H10z"/><path d="M15.55 26c1.12 0 2.01-.21 2.45-.42l-.29-1.05c-.48.22-1.17.47-1.9.47-2.24 0-3.81-1.32-3.81-3.46 0-2.3 1.65-3.54 3.81-3.54.77 0 1.45.23 1.9.44l.29-1.06a5.21 5.21 0 0 0-2.19-.38C12.96 17 11 18.85 11 21.58c0 2.86 1.96 4.42 4.55 4.42zM20 19.4c.45 0 .71-.36.7-.71A.68.68 0 0 0 20 18c-.41 0-.7.32-.7.69 0 .36.3.71.7.71zm-.5.6v6h1v-6h-1zm2.5 0h1v1a2.5 2.5 0 0 1 2-1c1.42 0 2.5 1.07 2.5 2.78 0 2.03-1.12 3.2-2.5 3.2-.8 0-1.65-.43-2-.98v3h-1v-8zm1.08 3.85c.2.71.96 1.35 1.73 1.35 1.13 0 1.69-1.08 1.69-2.37 0-1.13-.56-2.03-1.7-2.03-.72 0-1.52.65-1.72 1.41-.04.13-.08.29-.08.43v.77l.07.38v.06zM30 18h-1v8h1v-3.67c0-.8.8-1.53 1.56-1.53 1.01 0 1.44.8 1.44 1.68V26h1v-3.64c0-1.88-1.38-2.36-2.06-2.36-.68 0-1.58.4-1.94 1v-3zm6 5.3c0 1.42 1.09 1.9 2.22 1.9.81 0 1.19-.13 1.61-.3l.17.74c-.4.17-.91.36-1.9.36-1.93 0-3.1-1.16-3.1-2.9 0-1.73 1.1-3.1 2.92-3.1 2.04 0 2.58 1.79 2.58 2.85v.45H36zm3.49-.7c0-.66-.38-1.8-1.66-1.8-1.14 0-1.83 1.06-1.83 1.8h3.49zM43 20h-1v6h1v-3.13c0-.18.01-.35.04-.5.14-.8.82-1.37 1.59-1.37H45v-1h-.3c-.82 0-1.51.62-1.7 1.28V20zM15.4 34.2v.04l.1 1.76h.5l-.24-4h-.65l-.7 1.94c-.17.5-.31.94-.41 1.34h-.02c-.1-.41-.23-.85-.4-1.34L12.93 32h-.65L12 36h.48l.1-1.71c.04-.6.07-1.27.08-1.77h.01c.11.47.27.99.46 1.55l.63 1.9h.39l.69-1.94c.2-.55.36-1.05.5-1.52 0 .5.04 1.14.07 1.7zM20 36v-4h-.5v4h.5zm11-4v4h-.5v-4h.5zm4 0v4h.5v-3.2l2.04 3.2H38v-4h-.5v3.12l-2-3.12H35zm-11 4v-4h.5l2 3.12V32h.5v4h-.46l-2.04-3.2V36H24zm18.88 0c.49 0 .9-.13 1.12-.22V34h-1.2v.43h.74v1.05c-.1.06-.32.1-.63.1-.85 0-1.41-.59-1.41-1.58 0-.98.58-1.58 1.47-1.58.37 0 .61.08.8.17l.12-.41a2.12 2.12 0 0 0-.91-.18c-1.23 0-1.97.85-1.98 2.02 0 .61.2 1.14.51 1.46.36.37.81.52 1.37.52z"/></svg>