<!-- by TradingView --><svg width="56" height="56" xmlns="http://www.w3.org/2000/svg"><path fill="#F0F3FA" d="M0 0h56v56H0z"/><path d="M48 37H8v1.997h40V37z" fill="#3C94C9"/><path d="M48 35.005H8v2h40v-2z" fill="#F0BE4A"/><path d="M9.614 41h36.772c.9-.064 1.614-.932 1.614-1.997v-.007H8v.007c0 1.065.714 1.933 1.614 1.996z" fill="#D35143"/><path d="M46.28 15H9.717C8.77 15 8 15.724 8 16.615V35h40V16.617c0-.893-.77-1.617-1.72-1.617z" fill="#00467F"/><path d="M22.765 26.754c0-1.089-.588-1.722-1.052-1.722a.798.798 0 00-.634.27c-.314.346-.435.761-.435 1.481 0 .575.042.95.314 1.375.17.267.394.427.797.427.664-.002 1.01-.823 1.01-1.83zm.535-1.533c.474.465.698.98.698 1.562 0 .555-.244 1.09-.627 1.505-.414.454-1.021.712-1.695.712-.639 0-1.182-.179-1.638-.712-.445-.515-.546-.93-.546-1.534 0-.475.244-1.167.849-1.64.496-.398 1.021-.476 1.434-.476.676-.002 1.182.256 1.525.583zm11.529.806c.216 0 .34-.06.34-.138 0-.298-.103-.883-.64-.883-.505 0-.815.359-.948 1.023h1.248v-.002zm-1.276.664c0 1.013.752 1.607 1.339 1.607.639 0 1.03-.26 1.248-.577.042-.07.083-.07.125-.048l.152.087c.052.03.073.07 0 .199-.217.378-.742 1.052-1.875 1.052-.66 0-1.123-.139-1.485-.536-.473-.528-.579-1.023-.579-1.638 0-.543.065-.913.506-1.468.433-.536.896-.735 1.792-.735 1.176 0 1.558 1.183 1.558 1.59 0 .148-.103.157-.29.157h-2.493v.31h.002zm4.173-.313c0-.466-.081-.627-.392-.788l-.186-.102c-.06-.02-.081-.04-.081-.08v-.06c0-.04.02-.06.081-.092l1.253-.578c.064-.02.104-.042.167-.042.063 0 .082.062.094.123l.093.727h.043c.352-.566.788-.911 1.243-.911.332 0 .54.224.54.506 0 .284-.292.547-.56.547a.835.835 0 01-.354-.08.472.472 0 00-.289-.081c-.124 0-.31.081-.435.294a1.122 1.122 0 00-.126.496v1.953c0 .324.083.425.29.425h.458c.061 0 .082.02.082.07v.234c0 .05-.02.072-.074.072-.073 0-.529-.032-1.285-.032-.725 0-1.13.032-1.21.032-.054 0-.074-.02-.074-.072v-.222c0-.062.02-.082.092-.082h.364c.164 0 .268-.08.268-.274v-1.983h-.002zM41 27.644c-.01-.04 0-.07.03-.08l.19-.058c.041-.01.071-.01.09.03l.331.554c.181.3.372.533.864.533.391 0 .712-.235.712-.603 0-.397-.262-.576-.962-.773-.68-.199-1.224-.535-1.224-1.24 0-.436.162-.793.512-1.042.35-.237.631-.327 1.043-.327.491 0 .792.121.973.22.15.078.18.119.19.177l.131.678c.008.039.008.09-.01.109l-.19.09c-.03.01-.062 0-.081-.041l-.486-.54c-.12-.128-.301-.305-.63-.305-.372 0-.692.218-.692.564 0 .407.3.528.903.684.462.118.743.237 1.003.515.22.218.3.458.3.795 0 .833-.684 1.427-1.673 1.427-.533 0-.972-.17-1.084-.257-.04-.041-.07-.07-.079-.11l-.161-1zm-9.114 1.949h-.417c-.104 0-.45-.073-.469-.274v-3.932c.01-.088-.005-.134-.066-.134a.713.713 0 00-.249.067c-.177.076-1.206.463-1.351.528-.053.021-.074.045-.074.089v.123c0 .043.01.076.104.097.478.134.637.355.637.686v1.568c0 .307.01.662 0 .993-.01.177-.247.19-.247.19l-.263.017c-.443 0-.561-.018-.561-.018-.229 0-.407-.153-.43-.354-.02-.329 0-1.4 0-1.906v-1.656c0-.606-.022-2.883 0-3.478 0-.154-.158-.199-.158-.199s-1.137.571-1.551.705c-.066.022-.084.065-.084.087v.131c0 .048 0 .068.063.091l.208.065c.333.11.502.288.522.662.02.285 0 1.233 0 2.005v3.493c0 .309-.105.354-.207.354 0 0-.157.018-.537.018-.382 0-.53-.018-.53-.018-.232 0-.205-.1-.226-.3v-7.04c0-.154-.067-.253-.128-.253-.043 0-.104.022-.23.065-.333.22-1.144.506-1.56.64-.064.022-.084.065-.084.087v.131c0 .048 0 .068.063.091l.206.065c.333.11.711.329.733.703.023.286 0 1.233 0 2.005v3.452c0 .309-.314.354-.418.354h-.396c-.123 0-.145.022-.145.09v.207c0 .065.02.11.084.11.04 0 2.035-.02 3.997-.02 1.892 0 3.752.02 3.792.02.064 0 .084-.045.084-.11v-.223c-.008-.052-.03-.074-.112-.074zm-12.91-2.099c-.07-.06-.193-.157-.201-.166-.013-.011-.05-.002-.061.011-.474.535-1.357.996-2.463.996-.514 0-1.132-.076-1.837-.74-.79-.76-.984-1.879-.984-2.467 0-1.365.707-2.732 2.415-2.732.834 0 1.39.304 1.86.702.447.417.705.89.833 1.233.031.076.063.113.115.097l.203-.058c.044-.01.055-.04.044-.097-.04-.283-.253-1.8-.253-1.968 0-.134-.021-.152-.15-.152-.127 0-.15 0-.17.057l-.085.246c-.021.075-.063.075-.214 0-.384-.188-1.175-.456-2.158-.456-1.282 0-2.2.456-2.78 1.005A3.452 3.452 0 0012 25.547c0 .835.363 1.934 1.154 2.561.664.53 1.432.892 2.8.892 1.407 0 2.389-.668 3.037-1.417.012-.015.016-.063-.015-.09zM31 23.5a.5.5 0 11-1 0 .5.5 0 011 0z" fill="#fff"/></svg>