<!-- by TradingView --><svg xmlns="http://www.w3.org/2000/svg" width="56" height="56" viewBox="0 0 56 56"><path fill="#F0F3FA" d="M0 0h56v56H0z"/><path d="M10.91 21.01c7.38.3 9.42 3.35 9.51 4.83a13.82 13.82 0 0 0-7.54-2.57c-3.8-.15-5.8.79-6.03 2.35-.18 1.25 1.12 2.38 1.79 2.78-3.95-1.2-4.73-3.27-4.63-4.16.26-2.81 4.71-3.32 6.9-3.23z" fill="url(#a02kz5r1o)"/><path fill-rule="evenodd" d="M15.6 26h1.17l-1 6H14.6l1-6zm2.3 0l-.95 6h1.13l.66-3.98L21.28 32h.88l1.07-6h-1.26l-.7 4-2.53-4h-.84zm10.64 4.58c-1.1 1.4-2.94 1.84-4.13.97-1.19-.87-1.27-2.72-.17-4.13 1.09-1.4 2.94-1.84 4.13-.97.36.27.62.62.77 1.03l-1.08.49c-.11-.29-.3-.53-.57-.7-.78-.47-1.91-.09-2.53.86-.62.96-.49 2.12.3 2.6.73.45 1.8.13 2.43-.73h-1.38l.28-1h2.67c-.1.54-.34 1.09-.72 1.58zM31.6 26H30.4l-.73 3.42a2.14 2.14 0 0 0 2.1 2.58c1.34 0 2.49-.98 2.7-2.3l.59-3.7h-1.26l-.61 3.89c-.1.64-.66 1.11-1.3 1.11-.66 0-1.14-.6-1.02-1.23L31.6 26zm4.32 0l-.99 6h2.88l.3-1h-1.79l.82-5h-1.22zm2.36 6l3.35-6h.91l1.37 6h-1.3l-.25-1h-2.22l-.56 1h-1.3zm2.32-2l1.15-2.21.45 2.21h-1.6zm3.86-4H48.14l-.28 1h-1.19l-.83 5h-1.17l.82-5h-1.35l.32-1zm4.5 0h-.25l-1 6H50.98l.23-1h-2.14l.25-1.54h1.9l.22-1h-1.95l.24-1.46h2.05l.23-1h-3.03zM10.2 31.3c.82.84 2.18.91 3.35.28l.08-1.12c-.7.6-1.65.74-2.3.25-.78-.58-.84-1.8-.14-2.75.7-.94 1.9-1.23 2.67-.65.15.1.26.23.36.37l.26-1.3c-1.08-.69-2.7-.43-3.83.7-1.3 1.26-1.5 3.15-.45 4.22z" fill="#343A74"/><defs><linearGradient id="a02kz5r1o" x1="4" y1="23.94" x2="19.5" y2="24.21" gradientUnits="userSpaceOnUse"><stop stop-color="#FA9422"/><stop offset="1" stop-color="#F6CB34"/></linearGradient></defs></svg>