<!-- by TradingView --><svg xmlns="http://www.w3.org/2000/svg" width="56" height="56"><path fill="#F0F3FA" d="M0 0h56v56H0z"/><path d="M7.5 27a1.5 1.5 0 101.13 2.5l.74.66a2.5 2.5 0 11-.05-3.38l-.72.69A1.5 1.5 0 007.5 27zm14 0a1.5 1.5 0 101.12 2.5l.75.66a2.5 2.5 0 11-.05-3.38l-.72.69a1.5 1.5 0 00-1.1-.47zm3.5-1h1v1.5h-1V26zm15 0h1v5h-1zm-15 3.5h1V31h-1v-1.5zM10 26h1v2h2v-2h1v5h-1v-2h-2v2h-1v-5zm5.5 0H15v5h3.5v-1H16v-1h2v-1h-2v-1h2.5v-1h-3zM47 26v1h1.5v4h1v-4H51v-1h-4z"/><path fill-rule="evenodd" d="M31 26h-1v5h1v-2h1a1.5 1.5 0 000-3h-1zm0 2h1a.5.5 0 000-1h-1v1zm5.5 2a1.5 1.5 0 100-3 1.5 1.5 0 000 3zm0 1a2.5 2.5 0 100-5 2.5 2.5 0 000 5z"/><path d="M42 26h1l2 3.14V26h1v5h-1l-2-3.13V31h-1v-5z"/><path d="M26.12 27.97l2.1-1.97.3.32-2.24 2.09h-.16v-.44zm-2.65 0v.44h2.65v-.44h-2.65zm2.65 1.05l2.1 1.98.3-.32-2.24-2.09h-.16v.43zm-2.65 0v-.43h2.65v.43h-2.65zm5.19-2.54l.28.3-1.85 1.7 1.85 1.74-.28.3-2.16-2.04 2.16-2z" fill="#FF6062"/></svg>