<!-- by TradingView --><svg width="56" height="56" xmlns="http://www.w3.org/2000/svg"><path fill="#09253A" d="M0 0h56v56H0z"/><path d="M12 12v32h12.673c-3.528-1.538-8.053-5.476-7.873-13.349.22-9.618 7.269-13.211 9.691-13.211h2.835c-1.357.274-4.553 1.417-6.492 3.794-2.423 2.972-3.657 7.406-3.245 11.2.411 3.795 2.651 6.812 4.434 7.909 1.783 1.097 7.954 3.754 11.566-5.343H44V12H12z" fill="#fff"/><path d="M42.08 37.417c-1.493-.015-4.489-.036-4.526 0-2.24 4.8-5.302 5.989-6.857 6.583h.96c6.4-.731 9.57-4.678 10.423-6.583zM44 27H33.623c-.366-2.048-2.317-3.891-3.246-4.714 2.633-.44 4.632 1.678 5.303 2.714l4.82.049c-2.048-3.95-6.36-4.744-8.157-4.546-2.27.152-7.085 2.514-7.863 8.366-.841 6.326 1.965 9.95 3.474 10.971-.731.256-1.798.107-2.24 0-1.097-.198-3.492-1.682-4.297-6.034-.805-4.352.731-8.366 1.6-9.829a11.806 11.806 0 0110.469-6.491c6.034 0 9.478 5.287 10.514 8V27z" fill="#D3A02A"/></svg>