<!-- by TradingView --><svg xmlns="http://www.w3.org/2000/svg" width="56" height="56"><path fill="#F0F3FA" d="M0 0h56v56H0z"/><path d="M35 42.42c5.18-2.64 9-8.25 9-14.46 0-3.13-.9-6.06-2.47-8.52L32 27.57V39h3v3.42zm-14 0c-5.16-2.65-9-8.27-9-14.46 0-3.13.9-6.04 2.46-8.5l9.54 8.1V39h-3v3.42z" fill="#00AC5A"/><path d="M22 44h12v-4h-3V27.66h-6V40h-3v4z" fill="url(#a2phj5ozz)"/><path d="M27 44V27.57a2.52 2.52 0 00-.86-2.04l-9.65-8.67c2.9-3 6.98-4.86 11.49-4.86 4.53 0 8.62 1.88 11.53 4.9l-9.66 8.63a2.3 2.3 0 00-.85 2.04V44h-2z" fill="#165393"/><defs><linearGradient id="a2phj5ozz" x1="28" y1="27.66" x2="28" y2="44.94" gradientUnits="userSpaceOnUse"><stop stop-color="#fff" stop-opacity="0"/><stop offset=".86" stop-color="#53699A"/></linearGradient></defs></svg>