<!-- by TradingView --><svg width="56" height="56" viewBox="0 0 56 56" xmlns="http://www.w3.org/2000/svg"><path fill="#F0F3FA" d="M0 0h56v56H0z"/><path fill-rule="evenodd" d="M48 28c0 6.63-8.95 12-20 12S8 34.63 8 28c0-9.12 13.1-12 20-12 11.05 0 20 5.37 20 12Zm-7 5c-1.86 3.45-6.06 5.75-10.66 6.4a7.7 7.7 0 0 0 2.6-2.4h3.08c.91 0 1.65-.72 1.65-1.61V33H41Zm-3.33-.37h3.52c.63-1.3 1-2.96 1.02-4.44h-4.54v4.44Zm0-4.82h4.54a9.3 9.3 0 0 0-.9-3.81h-3.64v3.81Zm0-4.18V20.6c0-.89-.74-1.61-1.65-1.61h-2.98a7.3 7.3 0 0 0-2.7-2.4c4.71.67 8.98 3.45 10.79 7.03h-3.46ZM32.57 19A5.8 5.8 0 0 0 28 16.43 5.8 5.8 0 0 0 23.42 19h9.16Zm-9.61 0a7.3 7.3 0 0 1 2.7-2.4c-4.71.67-9.36 3.45-11.17 7.03H18V24h-3.69a9.3 9.3 0 0 0-.9 3.81H18v.38h-4.6A8.34 8.34 0 0 0 14.44 32H18V20.61c0-.89.74-1.61 1.65-1.61h3.3ZM18 32.37h-3.38c1.86 3.45 6.44 6.38 11.04 7.03a7.7 7.7 0 0 1-2.6-2.4h-3.4c-.92 0-1.66-.72-1.66-1.61v-3.02ZM23.54 37c1.22 1.6 2.77 2.57 4.46 2.57s3.24-.98 4.46-2.57h-8.92Zm17.93-4c-1.48 2.89-4.64 4.93-8.1 6.12 5.52-.94 10.03-3.05 12.35-6.12h-4.25Zm.18-.37h4.34a8.65 8.65 0 0 0 1.51-4.44h-4.88a11.56 11.56 0 0 1-.97 4.44Zm4.5-8.63a7.31 7.31 0 0 1 1.35 3.81h-4.88a9.7 9.7 0 0 0-.86-3.81h4.4Zm-12.78-7.12c3.56 1.22 6.78 3.75 8.22 6.75h4.32c-2.27-3.2-6.87-5.78-12.54-6.75ZM13 27.81a9.7 9.7 0 0 1 .86-3.81H9.5c-.79 1.23-.89 2.43-.93 3.81H13Zm-4.43.38A6.27 6.27 0 0 0 9.73 32h4.24a8.68 8.68 0 0 1-.97-3.81H8.57Zm14.06 10.93c-3.46-1.19-7-3.86-8.47-6.75H10c2.32 3.07 7.11 5.8 12.63 6.75Zm-8.6-15.5c1.44-3 5.04-5.52 8.6-6.74-5.67.97-10.61 3.56-12.88 6.75h4.28Z" fill="#C31A1B"/><path d="M33.83 23.6c.63.02 1.27.02 1.94 0 .42 0 1.12.05 1.2.54.02.1.03.2.03.33 0 .45-.21 1.07-.63 1.18-.23.06-.4-.95-.9-1a14.2 14.2 0 0 0-1.87-.03c-.94.04-.96 1.14-.78 1.75.12.4.18.63.8.63h1.89c.83-.05.5-1.02 1.06-1 .51.02.45 1.13.39 1.42-.1.4-.36.54-.78.58H33.5a.93.93 0 0 0-.74.67c-.12.64.04 1.63.92 1.65h1.61c.35 0 .7-.24 1.04-.12.5.18.67.54.5 1.07-.13.46-.29.86-.47 1.21-.12.23-.2.22-.27-.03-.13-.47-.22-.84-.78-1a3.34 3.34 0 0 0-1.96.02c-.29.1-.43.28-.43.57 0 .52.02 1.1-.18 1.59-.17.41-.7.51-.96.13-.27-.38-.2-1.12-.2-1.56 0-.64-.74-1.3-.3-1.94.4-.54.5-1.12.35-1.76-.11-.45-.85-.94-.56-1.43.11-.19.35-.3.4-.53.09-.34.14-.78.14-1.3s-.43-.48-.58-.86c-.16-.43.29-1.33.82-1.38.58-.05 1.3.58 1.98.6Z" fill="#F0F3FA"/><path fill-rule="evenodd" d="M23.62 25.62c.05-.2.38-.62.5-.62.22 0 .25.34.22.53a3.1 3.1 0 0 0-.03 1.01c.07.52-.44 1.73-.01 2.05.46.35 1.21 0 1.58-.34.32-.3.4-.67.22-1.14l-.46-1.33c-.14-.4-.14-.78.57-.78s.63 1.7.65 2.22c0 .3.09.77.47.78h.19c.68.02 1.48 0 1.48.78v4.12c0 .42.26.84.54 1.03.18.13.22.37.06.53-.23.22-.6.63-.6.99 0 .62.91.58 1.33.51.94-.15 1.9-.25 2.88-.3.72-.03 1.45.16 2.18.3.13.03.25.04.37.04.6 0 1.04-.31 1-1.06-.02-.24-.07-1.65-.46-1.64-.22.02-.25.33-.27.52-.07.76-.58 1.14-1.36 1.05-.89-.1-1.7-.3-2.41-.3-.52 0-1.04.07-1.58.07-.38 0-.94-.5-.54-.86.29-.25.39-.52.33-.91a15.5 15.5 0 0 1-.2-2.76l.09-3.27c0-.2.02-.42.04-.63a8 8 0 0 0 .04-.7c0-.8.02-1.58.07-2.35.02-.49.56-.99.94-1.27a.16.16 0 0 1 .17-.02c.33.16.7.13 1.1.13H36c.33-.01.62-.19.46-.51a1.37 1.37 0 0 0-1.04-.49h-2.61c-.5.02-.84.02-1.17.38-.58.62-1.03-.49-1.2-.84a.54.54 0 0 0-.44-.32c-.39-.05-.62.33-.8.64-.14.23-.3.43-.6.48a5.8 5.8 0 0 1-1.63.12c-.64-.06-.72-.54-.96-1-.27-.48-1.3-.61-1.69-.26-.32.3-.39.79-.79 1.02-.85.49-1.92 0-2.53-.63-.32-.33-.72-.75-1.18-.32a5 5 0 0 0-.75.92.47.47 0 0 0-.08.24c0 .08.01.16.06.24.26.53.52 1 .5 1.6a408.6 408.6 0 0 0-.03 10.42v.04c0 .44 0 2.27.75 2.27.72 0 .68-1.2.72-1.76V29.6c-.1-1.31-.2-2.59-.26-3.83-.03-.78-.01-1.5.07-2.14.04-.36.14-.7.3-1 .23-.47.73-.63 1.26-.63.43 0 .97.1 1.3.24.17.07.33.2.33.38 0 .05 0 .1-.03.14-.1.3-.53.45-.83.5-.74.13-1.12.57-1.14 1.32-.06 1.67-.01 3.45.14 5.34.04.53.33.8.86.83 1.07.03 2.33-.13 3.35.22.72.25.91 1.48.87 2.15-.08 1.16-1.88 1.64-2.83 1.5-.59-.08-1.15-.55-.85-1.18.1-.2.3-.28.5-.3l1.14-.14c.47-.06.72-.53.21-.8a4.9 4.9 0 0 0-2.12-.6c-.7-.03-1.05.26-1.16.87-.07.4-.11.89-.11 1.38 0 .48.05.96.17 1.36.2.64.68.73 1.27.67h.02c1.21-.11 2.4-.11 3.6-.07.23 0 .45.02.62-.12.39-.3.25-1.09.16-1.48a5.09 5.09 0 0 1-.1-2.37c.14-.59.26-1.1.26-1.78 0-.46-.68-.62-1.05-.66-.64-.07-1.4-.09-2.28-.05-.6.02-.97-.22-1.1-.75a6.25 6.25 0 0 1 .05-2.98Zm3.6-2.48c.48.1.72.37.77.88.05.54.03 1.1.1 1.65.04.46.16 1.08.85.83.24-.08.28-.38.3-.6.02-.62.03-1.35.02-2.21-.01-.5-.04-1.34-.7-1.4a3.6 3.6 0 0 0-1.87.28.17.17 0 0 0-.07.25c.13.18.38.28.6.32Z" fill="#F0F3FA"/></svg>