<!-- by TradingView --><svg xmlns="http://www.w3.org/2000/svg" width="56" height="56" viewBox="0 0 56 56"><path fill="#F0F3FA" d="M0 0h56v56H0z"/><path d="M31.64 38.56h.4a24.26 24.26 0 0 0-.76 4.4c6.92-1.29 13.57-8.44 12.63-17.09a24.97 24.97 0 0 0-12.27 12.69Zm-7.1 0h-.4c.34 1.46.57 2.94.68 4.44-7.13-1.37-13.71-8.33-12.72-17.34 5.44 2.8 9.8 7.34 12.44 12.9Z" fill="#261C02"/><path d="m26.25 13.07 1.88 25.47h.07s.02-9.77.27-14.29l.58-11.21s-.3-.04-1.25-.04c-.52 0-1.03.02-1.55.07Zm2.41 25.47h.11c.36-4.8 1.02-9.59 1.99-14.3 1.2-6.02 2.03-10.35 2.03-10.35a9.3 9.3 0 0 0-1.39-.44c-.85-.21-1.47-.33-1.47-.33s-.54 6.7-.83 11.11c-.46 7.23-.44 14.3-.44 14.3Zm5.05-24.34s-1.54 7.34-2.5 11.73c-1.21 5.5-2.02 12.6-2.02 12.6h.12c.7-3.91 1.64-7.79 2.83-11.59 1.6-4.78 4.1-11.28 4.1-11.28s-.52-.39-1.12-.75c-.46-.26-.93-.5-1.41-.7Z" fill="#0069AA"/><path d="M37.01 16.22s-2.81 6.82-4.52 11.63a72 72 0 0 0-2.72 10.69h.13a53.12 53.12 0 0 1 3.56-10.2c1.73-3.43 3.63-6.76 5.7-9.98l-.88-.98c-.44-.48-1.27-1.16-1.27-1.16Z" fill="#0069AA"/><path d="M39.8 19.2s-4.34 6.31-6.08 9.98c-1.42 3-2.54 6.14-3.35 9.36h.09a38.3 38.3 0 0 1 4.16-8.76 42.79 42.79 0 0 1 6.77-7.71c-.19-.45-.4-.9-.63-1.32-.34-.6-.96-1.55-.96-1.55Z" fill="#0069AA"/><path d="M41.78 23.05a40.24 40.24 0 0 0-7.3 8.17 30.09 30.09 0 0 0-3.5 7.32h.1a26.94 26.94 0 0 1 4.97-7.87 31.19 31.19 0 0 1 6.36-5.1s-.09-.57-.25-1.26c-.1-.43-.23-.85-.38-1.26Zm-16.4-9.81 1.17 12.84 1.11 12.46h-.07s-1.04-6.88-2.18-12.31A561.84 561.84 0 0 0 22.65 14c.38-.17.77-.31 1.17-.42.57-.16 1.56-.35 1.56-.35Zm-3.53 1.1s2.34 9.35 3.13 12.77c.94 4.03 2.14 11.43 2.14 11.43h-.13a98.64 98.64 0 0 0-3.12-11.38c-2.19-6.51-4.37-11.44-4.37-11.44a9.9 9.9 0 0 1 1.02-.68l1.34-.7" fill="#0069AA"/><path d="M18.78 16.29s3.1 7.33 4.4 10.76a92.01 92.01 0 0 1 3.32 11.49h-.15s-.87-4.34-4.25-10.93a77.72 77.72 0 0 0-5.4-9.3c.3-.36.61-.71.96-1.04l1.12-.98" fill="#0069AA"/><path d="M16.1 19.14c2.14 3.16 4.13 6.41 5.95 9.77a51.98 51.98 0 0 1 3.8 9.63h-.12a37.84 37.84 0 0 0-4.54-9.08 48.19 48.19 0 0 0-6.56-7.86s.35-.68.65-1.2c.3-.53.81-1.26.81-1.26" fill="#0069AA"/><path d="M14.23 22.55a48.7 48.7 0 0 1 6.86 7.91 32.6 32.6 0 0 1 4.1 8.08h-.1s-1.1-3.12-4.95-7.63a24.46 24.46 0 0 0-6.68-5.6s.15-.73.33-1.36c.17-.62.44-1.4.44-1.4" fill="#0069AA"/></svg>