<!-- by TradingView --><svg width="56" height="56" viewBox="0 0 56 56" xmlns="http://www.w3.org/2000/svg"><path fill="#F0F3FA" d="M0 0h56v56H0z"/><path d="m35.98 20.24-.8.23c-.44-.69-.93-1.35-1.48-1.96a43.7 43.7 0 0 1 4.12-1.58c-1.55.23-3.08.6-4.56 1.1-.39-.39-.78-.76-1.2-1.1.04-.11.13-.14.2-.18a24.99 24.99 0 0 1 4.23-1.93 25.03 25.03 0 0 1 1.96-.68c-.07-.02-.13-.03-.17.02-1.67.24-3.3.68-4.87 1.3l-.75.34-.03-.03a18.76 18.76 0 0 1 3.73-3.38l.35-.21c.1 0 .14-.05.18-.12a.14.14 0 0 0-.17.03c-.77.33-1.52.72-2.23 1.16a10.92 10.92 0 0 0-3.8 4.28 17.01 17.01 0 0 0-1.52 4.73 31.12 31.12 0 0 0-.45 5.19c.2-1.12.4-2.25.65-3.37.61-.46 1.26-.9 1.93-1.28.43 1.33.7 2.7.81 4.1-.54.23-1.1.43-1.67.6-.55.19-1.12.34-1.69.45a.23.23 0 0 0-.05.2c-.02.78-.01 1.55-.06 2.33-.17 2.81-.8 5.5-2.24 7.99-.32.54-.67 1.06-1.07 1.55a10.9 10.9 0 0 1-1.78-2.32l.37-1.24c.32-1.19.54-2.4.67-3.6.17-1.51.18-3.02.2-4.53.02-.92.03-1.83.14-2.75.17-1.63.56-3.23 1.16-4.77a14.7 14.7 0 0 1 7.98-8.2 14.2 14.2 0 0 1 5.6-1.23l1.1-.05a.4.4 0 0 1 .22.03c0 .37.02.75 0 1.12-.03.95-.12 1.9-.27 2.83a15.9 15.9 0 0 1-3.61 8.04l-.41.44c-.35-1.1-.83-2.15-1.42-3.14.23-.13.46-.25.7-.35.06 0 .11-.02.12-.08a.08.08 0 0 0-.07-.02.08.08 0 0 0-.05.04Zm.26-.06-.03-.02c-.02 0-.03.02 0 .03l.03-.01Z" fill="#3F7B32"/><path d="M19.73 32.51a.74.74 0 0 0-.24.5c-.03.1-.02.22.02.33.05.1.12.19.22.24l.24.18a.7.7 0 0 1 .3.36c.06.15.06.31 0 .46-.06.26-.18.5-.23.77-.05.26-.02.53.08.78.11.24.3.45.52.6.28.14.58.21.9.22.15 0 .3.03.46.06.2.37.41.75.63 1.11.48.8 1.04 1.53 1.67 2.21.9.96 1.93 1.8 3.06 2.49.93.57 1.9 1.06 2.92 1.46 1.35.53 2.74.95 4.16 1.25.75.16 1.51.28 2.27.42 0 .06-.05.05-.08.05a51.04 51.04 0 0 1-5.33-.91A32.55 32.55 0 0 1 27.65 44c-1.6-.57-3.1-1.3-4.53-2.2a16.07 16.07 0 0 1-3.88-3.42 14.12 14.12 0 0 1-3-6.83 19.33 19.33 0 0 1 .72-9.12c.55-1.59 1.4-3.07 2.5-4.36a15.42 15.42 0 0 1 4.66-3.63c.45.23.89.5 1.3.82-.19.19-.38.36-.59.52a10.3 10.3 0 0 0-1.46 1.59c-.55.73-1.13 1.44-1.66 2.19a13.15 13.15 0 0 0-2.06 4.54.87.87 0 0 0 .1.64c.27.42.38.87.17 1.35-.13.29-.31.54-.53.77a15.9 15.9 0 0 1-1.7 1.55c-.46.37-.41.81.12 1.1.2.08.41.14.63.18l.62.14a.7.7 0 0 1 .33.17c.16.35.09.72.02 1.08-.02.16-.07.31-.13.46a.61.61 0 0 0 .15.7c.08.09.18.17.3.27Z" fill="#68B337"/><path d="M28.66 42.58c-.45-.24-.87-.51-1.28-.81l1-.9C31.63 37.7 33.08 33.44 33 29a19.66 19.66 0 0 0-2.3-8.98l-.09-.2c.31-.83.64-1.68 1.15-2.45.23.14.43.3.6.5a15 15 0 0 1 1.8 2.09c1.8 2.56 2.8 5.62 2.84 8.74a15.4 15.4 0 0 1-2.97 9.44 14.7 14.7 0 0 1-2.92 2.9c-.7.51-1.43.99-2.2 1.4l-.25.14Zm.32-27.39c-.42.4-.8.78-1.18 1.18a16.63 16.63 0 0 0-3.06-2.2 20.84 20.84 0 0 0-3.8-1.63 28.41 28.41 0 0 0-4.79-1.08.37.37 0 0 1-.15-.05c.23-.04.46-.04.69.01.5.1 1 .14 1.49.23l1.32.22a39.98 39.98 0 0 1 5.08 1.32c1.3.44 2.56.99 3.78 1.64.2.1.39.22.62.36Z" fill="#68B337"/><path d="M16.38 45.3a.9.9 0 0 1-.01-.12V45a11.53 11.53 0 0 0 5.25-3.71c.47.35.93.68 1.43 1.01a15.9 15.9 0 0 1-6.67 3Z" fill="#3F7B32"/><path d="M27.4 13.89c-.38-.19-.8-.28-1.22-.47a27.45 27.45 0 0 1 6.4-1.86 51 51 0 0 1 4.35-.55.27.27 0 0 1 .22.04c-3.39.56-6.67 1.31-9.75 2.84ZM25 43.32l1 .48c-3 1.14-6.08 1.75-9.22 2.08 1.41-.28 2.83-.54 4.2-.95 1.4-.4 2.74-.94 4.01-1.6Z" fill="#68B337"/><path d="M29.66 22.78c.2-.8.38-1.54.63-2.33.29.52.54 1.06.75 1.61l-1.38.72Z" fill="#3F7B32"/><path d="M36.72 12.1a.14.14 0 0 1 .17-.03.23.23 0 0 1-.18.11l.01-.09Z" fill="#68B337"/></svg>