<!-- by TradingView --><svg xmlns="http://www.w3.org/2000/svg" width="56" height="56" viewBox="0 0 56 56"><path fill="#F0F3FA" d="M0 0h56v56H0z"/><path d="M18.02 42.63c-2.63-2.1-6.5-8.67-1.83-17.58C20.87 16.15 28 9 28 9s7.13 7.14 11.81 16.05c4.68 8.91.8 15.47-1.83 17.58 2.65-3.38 1.77-9.01.27-12.34-2.2-4.9-6.9-10.9-10.25-14.08-3.35 3.18-8.04 9.18-10.25 14.08-1.5 3.33-2.38 8.96.27 12.34ZM28 47c-2.64 0-8.94-2.69-8.94-9.06 0-5.03 5.92-12.89 8.94-15.3 3.02 2.41 8.94 10.27 8.94 15.3 0 6.37-6.3 9.06-8.94 9.06Z" fill="url(#a34proy1k)"/><defs><linearGradient id="a34proy1k" x1="28" y1="9" x2="28" y2="47" gradientUnits="userSpaceOnUse"><stop stop-color="#8DC63F"/><stop offset=".5" stop-color="#6679A3"/></linearGradient></defs></svg>