<!-- by TradingView --><svg width="56" height="56" viewBox="0 0 56 56" xmlns="http://www.w3.org/2000/svg"><path fill="#F0F3FA" d="M0 0h56v56H0z"/><path fill="#9BD1DB" d="M18.5 19H21v2h-2.5z"/><path fill="#043762" d="M18.5 31H21v2h-2.5z"/><path fill="#068BAA" d="M18.5 21H21v10h-2.5z"/><path fill="#9BD1DB" d="M21.5 35H24v-2.48h-2.5z"/><path fill="#043762" d="M21.5 23H24v-2h-2.5z"/><path fill="#068BAA" d="M21.5 33H24V23h-2.5z"/><path fill-rule="evenodd" d="M41 21h-2.5v12H41v-7h1.5v7H45v-9h-4v-3Zm2.75 2.5a1.25 1.25 0 1 0 0-2.5 1.25 1.25 0 0 0 0 2.5ZM31.01 29h-5.07c0 .35.25 2 2.03 2 1.43 0 2.61-.68 3.03-1v2.22c-.89.66-2.39.8-3.03.78-3.3 0-4.31-2.53-4.44-4H22v-1.5h1.58c.28-1.6 1.33-3.5 4.18-3.5 2.1 0 3.23 1.07 3.78 2.31A4.66 4.66 0 0 1 35.6 24c1.36 0 2.17.5 2.4.76v1.92c-.28-.31-1.16-.68-2.4-.68-1.55 0-2.6 1.62-2.6 2.64S34.15 31 35.6 31a4.7 4.7 0 0 0 2.4-.65v1.91a4.2 4.2 0 0 1-2.4.74c-1.42 0-4.39-.76-4.59-4Zm-5.11-1.5h3.74c-.1-.5-.63-1.5-1.82-1.5-1.2 0-1.78 1-1.92 1.5ZM11 24.76v1.4c.56-1.15 1.69-2.16 3.76-2.16 3.68 0 4.35 3.27 4.23 5h-6.05c0 .35.25 1.96 2.03 1.96 1.43 0 2.61-.64 3.03-.96v2.22c-.89.66-2.39.8-3.03.78-2.2 0-3.39-1.13-3.97-2.31v1.57a4.2 4.2 0 0 1-2.4.74C7.13 33 4 32.18 4 28.64 4 25.1 6.89 24 8.6 24c1.36 0 2.17.5 2.4.76ZM8.6 26c1.03 0 1.81.33 2.21.62a5.37 5.37 0 0 0 .07 3.8c-.4.23-1.25.58-2.28.58-1.45 0-2.2-1.34-2.2-2.36 0-1.02.65-2.64 2.2-2.64Zm4.3 1.5h3.74c-.11-.5-.63-1.5-1.82-1.5-1.2 0-1.78 1-1.92 1.5Zm38.43-.59v-2.14c-.26-.25-1.12-.77-2.55-.77-1.78 0-3.13 1.25-3.13 2.64 0 1.38.88 2.2 2.09 2.62l.25.08c1.08.38 1.8.63 1.8 1.06 0 .46-.57.5-1.3.5-.75 0-1.9-.22-2.99-1.26v2.64c.36.24 1.53.72 3.28.72 2.2 0 3.22-1.33 3.22-2.78 0-1.46-1.2-2.24-2.2-2.55l-.35-.1c-.86-.26-1.56-.48-1.56-.93 0-.52 1.55-.98 3.44.27Z" fill="#02365D"/></svg>