<!-- by TradingView --><svg width="56" height="56" viewBox="0 0 56 56" xmlns="http://www.w3.org/2000/svg"><path fill="url(#asud0kdb3)" d="M0 0h56v56H0z"/><path d="M34 26.59 36.86 22H40v12h-3v-6.89l-2.98 4.7H34v-5.22Z" fill="#0072BC"/><path d="M4 27.98v.04A5.78 5.78 0 0 0 9.7 34c2.4 0 3.82-1.1 4.85-2.6l-2.29-1.73c-.66.84-1.35 1.33-2.5 1.33C8.22 31 7 29.7 7 27.98 7 26.3 8.23 25 9.77 25c1.05 0 1.76.44 2.4 1.25l2.29-1.86A5.3 5.3 0 0 0 9.79 22C6.45 22 4 24.63 4 27.98ZM31.06 22 34 26.59v5.21h-.05L31 27.11V34h-3V22h3.06ZM15 22h3v9h5v3h-8V22Zm29 7h2.38c1.05 0 1.62.33 1.62 1v.03c0 .7-.64.97-1.6.97H44v-2Zm2.03-4c.93 0 1.44.24 1.44.91v.05c0 .7-.55 1.04-1.5 1.04H44v-2h2.03Zm.7-3H41v12h5.78c2.67 0 4.22-1.25 4.22-3.32v-.02c0-1.65-.88-2.47-2.23-2.95a2.76 2.76 0 0 0 1.72-2.67v-.02c0-.82-.28-1.45-.72-1.95-.65-.7-1.62-1.07-3.04-1.07ZM24 28.61v5.37l3 .02V24l-.04.05L24 28.6ZM27 22l-.04.05L24 27v-5h3Z" fill="#fff"/><defs><linearGradient id="asud0kdb3" x1="10.42" y1="9.71" x2="68.15" y2="76.02" gradientUnits="userSpaceOnUse"><stop stop-color="#1A1E21"/><stop offset="1" stop-color="#06060A"/></linearGradient></defs></svg>