<!-- by TradingView --><svg width="56" height="56" fill="none" xmlns="http://www.w3.org/2000/svg"><path fill="#F0F3FA" d="M0 0h56v56H0z"/><path d="M8 28c0-5.701 7.787-10.33 17.77-11 4.992 1.677 7.455 3.823 8.054 5.768-.067 0-.666.067-.732.067-14.51 1.811-20.766 5.433-20.766 8.988 0 2.28 2.795 4.628 8.652 6.506C13.458 36.72 8 32.695 8 28z" fill="#014896"/><path d="M8 28c0-5.701 7.787-10.33 17.77-11 4.992 1.677 7.455 3.823 8.054 5.768-.067 0-.666.067-.732.067-14.51 1.811-20.766 5.433-20.766 8.988 0 2.28 2.795 4.628 8.652 6.506C13.458 36.72 8 32.695 8 28z" stroke="#014896" stroke-width=".063" stroke-miterlimit="3.864"/><path d="M21.378 31.555c.2-3.555 3.727-5.903 12.579-7.78v.067c0 3.42-3.461 5.835-12.58 7.713z" fill="#27AB48"/><path d="M21.378 31.555c.2-3.555 3.727-5.903 12.579-7.78v.067c0 3.42-3.461 5.835-12.58 7.713z" stroke="#27AB48" stroke-width=".105" stroke-miterlimit="3.864"/><path d="M33.225 17.335C41.744 18.61 48 22.902 48 28c0 5.768-8.12 10.53-18.37 11-5.39-1.878-7.853-4.36-8.186-6.573.067 0 .932-.067.999-.067 14.509-1.677 20.565-5.165 20.565-8.518-.066-2.281-3.194-4.696-9.783-6.507z" fill="#014896"/><path d="M33.225 17.335C41.744 18.61 48 22.902 48 28c0 5.768-8.12 10.53-18.37 11-5.39-1.878-7.853-4.36-8.186-6.573.067 0 .932-.067.999-.067 14.509-1.677 20.565-5.165 20.565-8.518-.066-2.281-3.194-4.696-9.783-6.507z" stroke="#014896" stroke-width=".063" stroke-miterlimit="3.864"/></svg>