<!-- by TradingView --><svg xmlns="http://www.w3.org/2000/svg" width="56" height="56" viewBox="0 0 56 56"><path fill="#F0F3FA" d="M0 0h56v56H0z"/><path d="M46.83 29.05C30.64 14.48 21.53 11.9 21.3 12c-2.73 7.19-.5 23.99.93 25.02 1.4 1 17.6-2.58 24.57-7.23a.47.47 0 0 0 .04-.74z" fill="#195795"/><path d="M20.84 36.91C18.96 34.4 18.83 23.36 19 18.16 16.12 27.32 15.13 38.28 15 42.6l5.84-5.7z" fill="#58A0D7"/><path d="M21.54 38.16L16.2 43c5.99-.47 21.41-3.58 29.85-11.84-8.43 5.03-20.18 7.14-24.5 7z" fill="#123459"/></svg>