<!-- by TradingView --><svg width="56" height="56" viewBox="0 0 56 56" xmlns="http://www.w3.org/2000/svg"><path fill="#181B1E" d="M0 0h56v56H0z"/><circle cx="28" cy="28" r="16" fill="url(#adtp2140n)"/><path fill-rule="evenodd" d="M20.2 29a3.24 3.24 0 0 1-3.2-3.28c0-1.48.95-2.73 2.26-3.14a4.25 4.25 0 0 1 4.17-3.7c.61 0 1.2.14 1.72.38.71-1.9 2.5-3.26 4.61-3.26 2.58 0 4.7 2.03 4.91 4.62h.05a4.14 4.14 0 0 1 4.08 4.2c0 2.25-1.73 4.1-3.91 4.18H33v4h2a2 2 0 1 1 .27 1H32v-5h-4v7.06a2 2 0 1 1-1 0V29h-3v5h-3.27a2 2 0 1 1 .27-1h2v-4h-2.8Zm3.6-8.2c-1.05 0-1.91.82-2.02 1.86a.4.4 0 0 1-.43.35.4.4 0 0 1-.35-.44A2.84 2.84 0 0 1 23.8 20c.55 0 1.07.17 1.51.46a.4.4 0 0 1 .12.55.39.39 0 0 1-.54.12c-.32-.2-.7-.33-1.1-.33Zm12.41 3.73c.16-.7-.24-1.44-.94-1.69-.27-.1-.54-.1-.8-.04a.38.38 0 0 1-.46-.28.38.38 0 0 1 .28-.46c.39-.1.82-.08 1.23.06a2.23 2.23 0 0 1 1.43 2.59.37.37 0 0 1-.45.28.38.38 0 0 1-.29-.46Zm-5.74-5.57c1.12.4 1.8 1.48 1.71 2.6a.4.4 0 0 0 .38.44.4.4 0 0 0 .43-.37A3.39 3.39 0 0 0 29.38 18a.4.4 0 1 0 .05.8c.34-.02.7.02 1.04.15Z" fill="#3F3F3F"/><defs><linearGradient id="adtp2140n" x1="44" y1="28" x2="12" y2="28" gradientUnits="userSpaceOnUse"><stop stop-color="#B1B1B1"/><stop offset="1" stop-color="#E5E5E5"/></linearGradient></defs></svg>