<!-- by TradingView --><svg xmlns="http://www.w3.org/2000/svg" width="56" height="56"><path fill="#F0F3FA" d="M0 0h56v56H0z"/><path d="M17.64 24.5a11.8 11.8 0 00-3.24-.5C10.56 24 8 26 8 28.43 8 31.6 10.56 32 12.75 32c.83 0 3.15-.3 4.25-1.02l-.46 3.32c-1.95.73-3.79.7-4.82.7C7.62 35 5 32.2 5 28.8c0-5.7 5.98-7.8 11.54-7.8h1.56l-.46 3.5z" fill="#024B9A"/><path d="M27.1 35h-9.4l1.68-14h3.5l-1.4 11h5.99l-.37 3z" fill="#FAC641"/><path d="M32.34 27h2.24c1.46 0 2.42-.55 2.42-1.6 0-.6-.09-1.4-1.48-1.4h-2.56L31.8 35h-3.35l1.68-14h5.66c1.35 0 4.21.48 4.21 3.63C40 27.8 37.78 30 34.25 30h-.9l-1.01-3zM50 24.44c-.73-.26-2.36-.44-3.01-.44-1.37 0-2.49.16-2.49 1.03 0 1.5 5 2.2 5 5.86 0 2.68-2.51 4.11-5.75 4.11-.88 0-2.25-.09-3.75-.73V31.1c1.37.7 2.54.9 3.6.9 1.05 0 2.4-.31 2.4-1.54 0-1.54-5-3-5-5.63 0-3.16 2.94-3.83 5.76-3.83H50v3.44z" fill="#024B9A"/></svg>