<!-- by TradingView --><svg xmlns="http://www.w3.org/2000/svg" width="56" height="56" viewBox="0 0 56 56"><path fill="#F0F3FA" d="M0 0h56v56H0z"/><path d="M32 27a3 3 0 1 0 0-6 3 3 0 0 0 0 6Z" fill="#0D1466"/><path d="M24 27a3 3 0 1 0 0-6 3 3 0 0 0 0 6ZM40 27a3 3 0 1 0 0-6 3 3 0 0 0 0 6ZM16 27a3 3 0 1 0 0-6 3 3 0 0 0 0 6ZM24 19a3 3 0 1 0 0-6 3 3 0 0 0 0 6ZM32 19a3 3 0 1 0 0-6 3 3 0 0 0 0 6ZM24 35a3 3 0 1 0 0-6 3 3 0 0 0 0 6ZM32 35a3 3 0 0 0 3-3c0-1.66-1.43-3-3.09-3A2.93 2.93 0 0 0 29 32a3 3 0 0 0 3 3ZM40 35a3 3 0 1 0 0-6 3 3 0 0 0 0 6ZM16 35a3 3 0 1 0 0-6 3 3 0 0 0 0 6ZM24 43a3 3 0 1 0 0-6 3 3 0 0 0 0 6ZM32 43a3 3 0 1 0 0-6 3 3 0 0 0 0 6Z" fill="#8BD0E2"/></svg>