<!-- by TradingView --><svg width="56" height="56" viewBox="0 0 56 56" xmlns="http://www.w3.org/2000/svg"><path fill="#F0F3FA" d="M0 0h56v56H0z"/><path fill-rule="evenodd" d="M28 41a14 14 0 1 0 0-28 14 14 0 0 0 0 28Zm0-.36a13.64 13.64 0 1 0 0-27.28 13.64 13.64 0 0 0 0 27.28Z" fill="#1F2D4C"/><path fill-rule="evenodd" d="M28 40.23a13.23 13.23 0 1 0 0-26.46 13.23 13.23 0 0 0 0 26.46Zm0-.45a12.78 12.78 0 1 0 0-25.56 12.78 12.78 0 0 0 0 25.56Z" fill="#1F2D4C"/><path d="M28 39.36a12.36 12.36 0 1 0 0-24.72 12.36 12.36 0 0 0 0 24.72Zm0-.35A12.01 12.01 0 1 0 28 15a12.01 12.01 0 0 0 0 24Z" fill="#1F2D4C"/><circle cx="28" cy="27" fill="url(#a2c3w1zbf)" r="12.01"/><path fill-rule="evenodd" d="m14 30.67 3.08-4.37 1.24.38 5.1-5.19 1.47-.14L27.93 17l3.61 4.93.88.26 2.36 2.65 1.24-.33 1.73 2.6.96.16 3.29 2.9V41H14V30.67Zm13.86-11.74-.5.66v.47l-.6.38.98 3.32-1.04.4 2.76 1.46 2.3 2.89-.11-1.77-2.27-3.17L31.76 25l.8-.14 1.71 1.47-1.76-2.77-1.74-.15-1.95-1.06 2.32.35-1.37-1.55-1.1-.48-.8-1.75Zm-8.06 9.63.85-1.33v-.91l2.12-2.23-.43-.4 1.4-1.41 1.17.93 1.34-.93-.52 1.8-2.13.2-1.07 3.45-2.73.83Zm15.06-.84.44-1.77.99 1.36.97.41 1.21 1.96-1.5-.95-1.57.48.13-.48-.67-1Z" fill="#F0F3FA"/><path fill-rule="evenodd" d="M11.14 32.34h-.08c-.06-.35-.34-1.04-1.07-1.04-.9 0-1.47.95-1.47 1.69s.36 1.66 1.38 1.66c.82 0 1.11-.59 1.16-.88h.08v.88a2.9 2.9 0 0 1-1.15.35C9.5 35 8 34.7 8 33.15a2.04 2.04 0 0 1 3.14-1.82v1Zm32.62.66h-.07a.95.95 0 0 0-.94-.78c-.8 0-1.3.72-1.3 1.27 0 .56.33 1.25 1.22 1.25.72 0 .98-.44 1.02-.66h.07v.66c-.19.09-.66.26-1 .26-.45 0-1.76-.23-1.76-1.4 0-1.15 1.07-1.6 1.75-1.6.54 0 .9.16 1.01.25V33Zm-31.71-.87V32h1.38v.13c-.15.01-.43.07-.43.22v2.4h1.25l.28-.8h.12V35h-2.6v-.12c.14 0 .44-.03.44-.2v-2.33c-.02-.08-.13-.22-.44-.22ZM15.6 32v.11c.3 0 .4.15.4.22v2.38c0 .1-.27.14-.4.15V35h1.2v-.14c-.21 0-.33-.1-.36-.15v-2.38c0-.16.24-.2.37-.22V32H15.6Zm1.99 3v-.1c.14 0 .41-.06.41-.25v-2.33c-.02-.06-.1-.18-.3-.18V32h.97l1.1 2.23L20.94 32h.94v.14c-.14 0-.41.03-.41.21v2.3c.03.09.17.25.47.25v.1h-1.31v-.1c.14-.01.37-.09.37-.25v-2.2L19.77 35h-.18l-1.2-2.42v2.07c.02.09.12.25.39.25v.1h-1.19Zm5.1 0v-.1c.08 0 .25-.07.37-.3.14-.27 1.17-2.6 1.17-2.6h.27l1.14 2.6c.04.1.18.3.43.3v.1h-1.26v-.1c.17 0 .5-.07.39-.3l-.3-.6h-1.24l-.28.6c-.02.1.02.3.39.3v.1h-1.08Zm1.09-1.27h1l-.51-1.08-.5 1.08ZM26.25 32v.88h.12c0-.22.07-.65.41-.65h.72l.05.1v2.38c0 .1-.26.14-.39.15V35h1.21v-.14c-.22 0-.33-.1-.37-.15v-2.37c0-.05.03-.08.06-.11h.65c.3 0 .39.43.4.65h.13V32h-2.99Zm3.85.13V32h2.42v.8h-.07c0-.19-.1-.56-.41-.56H31v1.1h.85l.17-.4h.09v1.01h-.09l-.17-.38H31v1.19h1.26l.26-.6h.14V35H30.1v-.08c.13 0 .4-.05.4-.22v-2.4c-.03-.06-.14-.17-.4-.17Zm3.46-.99V31h1.7c.35 0 1.03.21 1.03.98 0 .6-.41.91-.79 1.06l1.02 1.48c.19.25.4.34.5.36V35h-.93l-1.04-1.85h-.52v1.53c.06.05.23.14.44.14V35h-1.4v-.17c.13-.02.4-.07.43-.14v-3.34c0-.07-.1-.2-.44-.2Zm.95.2v1.5c.42.04 1.25-.05 1.25-.76s-.83-.79-1.25-.73ZM38.67 35c.93 0 1.68-.67 1.68-1.5S39.6 32 38.67 32c-.92 0-1.67.67-1.67 1.5s.75 1.5 1.67 1.5Zm.22-.2c.6-.08.98-.73.86-1.45-.13-.72-.7-1.24-1.3-1.15-.59.08-.97.73-.85 1.45s.7 1.24 1.3 1.15Zm7.93-2.57-1.4 1.21 1.6 1.56H48v-.13c-.25 0-.63-.18-.7-.26l-1.33-1.3 1.4-1.2h.22V32h-1.13v.1c.24 0 .34.09.36.13ZM44.57 32v.14c.34 0 .43.17.43.26v2.26c0 .1-.29.18-.43.21V35h1.27v-.13c-.26 0-.39-.14-.42-.21V32.4c0-.17.28-.24.42-.26V32h-1.27Z" fill="#1E2D4C"/><path opacity=".7" fill="#4B6E95" d="M16 38h24v2H16z"/><path fill="#1E2D4C" d="M12 36h32v.3H12z"/><defs><linearGradient id="a2c3w1zbf" x1="28" y1="14.99" x2="28" y2="39.01" gradientUnits="userSpaceOnUse"><stop stop-color="#1F2D4C"/><stop offset=".59" stop-color="#41638E"/></linearGradient></defs></svg>