<!-- by TradingView --><svg xmlns="http://www.w3.org/2000/svg" width="56" height="56"><path fill="#696C71" d="M0 0h56v56H0z"/><path d="M6.4 27.53c-.18.94-.13 1.83 1.04 1.83 1.02 0 1.38-1.27 1.4-1.36h2.2a4.07 4.07 0 01-3.87 3C5.18 31 4.04 30 4 28.36A4.3 4.3 0 018.25 24c2.15 0 3.17.95 3.04 2.68h-2.2c.07-.7-.32-1.1-1.04-1.1-.8 0-1.42.66-1.66 1.95zM11 31l1.36-7h2.15l-1.37 7H11zm38.21-3.84c.5 0 .87.4.78.84h-1.94c.1-.5.52-.84 1.16-.84zm-.48 2.7c-.56 0-.98-.3-.87-.86h4.06c.37-1.71-.58-3-2.57-3-1.72 0-3.24 1-3.55 2.55-.31 1.59.84 2.45 2.56 2.45 1.25 0 2.68-.38 3.29-1.56H49.6a1.1 1.1 0 01-.88.42zM18.15 28c.09-.43-.27-.84-.78-.84-.64 0-1.06.33-1.16.84h1.94zm-2.13 1c-.11.56.3.86.87.86.34 0 .67-.14.88-.42h2.03c-.6 1.18-2.03 1.56-3.28 1.56-1.72 0-2.88-.86-2.56-2.45C14.26 27 15.8 26 17.51 26c1.99 0 2.94 1.29 2.57 3h-4.06zm6.75 1.08c-.41 0-.63-.17-.58-.41.08-.42.49-.5.97-.6.24-.04.51-.1.76-.2-.08.67-.42 1.2-1.15 1.2zm3.4-2.03c.22-1.16.23-2.05-2.26-2.05-2.07 0-2.92.63-3.11 1.67h2s.12-.67.79-.67c.54 0 .73.24.66.59-.07.35-.66.42-1.38.5-1.14.11-2.58.27-2.84 1.61-.2 1.02.6 1.47 1.6 1.47a3.4 3.4 0 002.17-.66V31h2v-.06c-.19-.18-.15-.34-.1-.56l.03-.13.44-2.2zM29.34 27h.03c.44-.77 1.04-.98 1.87-1l.17.02.1.02-.37 1.98-.15-.02-.28-.03c-.89 0-1.4.21-1.6 1.3L28.77 31h-2.15l.95-5h1.96l-.2 1.01zm7.75.45c-.21 1.1-.77 1.91-1.78 1.91-1.13 0-1.2-1.06-1.04-1.9.16-.85.67-1.85 1.74-1.85 1.03-.02 1.25.94 1.08 1.84zM36.33 24c-2.24 0-4.02 1.36-4.42 3.45C31.48 29.7 32.74 31 35 31c2.12 0 4.01-1.27 4.44-3.54.34-1.75-.54-3.46-3.1-3.46zm5.5 2.9a2.7 2.7 0 012-.9c1.41 0 1.93.75 1.66 2.08L44.92 31h-2.14l.5-2.58c.1-.47.04-.9-.56-.9-.66 0-.9.38-1.03 1L41.21 31h-2.14l.95-5h1.96l-.15.9z" fill="#fff"/></svg>