<!-- by TradingView --><svg xmlns="http://www.w3.org/2000/svg" width="56" height="56"><path fill="#F0F3FA" d="M0 0h56v56H0z"/><path d="M38 29.29c-.11-2.47-3.35-4.68-8-5.5v7.63c1.92.24 3.75.84 5.38 1.83.33-.2.64-.43.93-.67h.03a4.57 4.57 0 001.66-3.3z" fill="url(#a4yo1dguj)"/><path d="M37.96 31.91a5.32 5.32 0 01-1.81 1.82l-.33.22-.35.22c-2.23 1.3-5.36 2.04-8.75 2.04A17.7 17.7 0 0118 34.09v8.65c2.22 1.42 5.46 2.26 8.73 2.26C32.83 45 38 42.24 38 38.97v-7.12l-.04.06z" fill="url(#b4yo1dguj)"/><path d="M19 16.82a4.43 4.43 0 001.56 3.07l.2.17c2.25-1.6 5.69-2.52 9.38-2.52 1.98-.02 3.96.27 5.86.84V11.9c-1.89-.6-3.86-.9-5.84-.89-6.1 0-11.07 2.6-11.16 5.82z" fill="url(#c4yo1dguj)"/><path d="M20.79 21.15l-.36-.27a8.69 8.69 0 01-.8-.7c-.24-.24-.45-.5-.63-.77v5.98c0 2.86 4.1 5.37 10 5.9v-7.62c-3.61-.32-6.32-1.2-8.21-2.52z" fill="url(#d4yo1dguj)"/><path d="M37 22.62a15.6 15.6 0 01-4 1 9.97 9.97 0 014 2.46v-3.46z" fill="url(#e4yo1dguj)"/><defs><linearGradient id="a4yo1dguj" x1="30" y1="28.52" x2="38" y2="28.52" gradientUnits="userSpaceOnUse"><stop stop-color="#6396A9"/><stop offset="1" stop-color="#0A587C"/></linearGradient><linearGradient id="b4yo1dguj" x1="38" y1="38.43" x2="18" y2="38.43" gradientUnits="userSpaceOnUse"><stop stop-color="#96C8E0"/><stop offset="1" stop-color="#0A587C"/></linearGradient><linearGradient id="c4yo1dguj" x1="19" y1="15.53" x2="36" y2="15.53" gradientUnits="userSpaceOnUse"><stop stop-color="#FDCA1E"/><stop offset="1" stop-color="#BD6C11"/></linearGradient><linearGradient id="d4yo1dguj" x1="19" y1="25.35" x2="29" y2="25.35" gradientUnits="userSpaceOnUse"><stop stop-color="#BD6C11"/><stop offset="1" stop-color="#ECB31C"/></linearGradient><linearGradient id="e4yo1dguj" x1="33" y1="23.98" x2="37" y2="23.9" gradientUnits="userSpaceOnUse"><stop stop-color="#BD6C11"/><stop offset="1" stop-color="#DCA81F"/></linearGradient></defs></svg>