<!-- by TradingView --><svg xmlns="http://www.w3.org/2000/svg" width="56" height="56"><path fill="#1383C2" d="M0 0h56v56H0z"/><path d="M10 27.2c3.77-.37 11.82-1.64 13.86-3.77 2.04-2.12 3.02-9.84 3.26-13.43h.19v9.37c0 1.67-.05 5.49-.58 7.33-1.05.3-4.43.85-9.53.7H10v-.2zm0 1.6c3.77.38 11.82 1.65 13.86 3.77 2.04 2.12 3.02 9.84 3.26 13.43h.19v-9.36c0-1.68-.05-5.5-.58-7.34-1.05-.3-4.43-.84-9.53-.69H10v.2zm22.14-5.37c2.04 2.13 10.09 3.4 13.86 3.77v.2h-7.2c-5.1.15-8.48-.4-9.53-.7-.53-1.84-.58-5.66-.58-7.33V10h.2c.23 3.6 1.2 11.31 3.25 13.43zM46 28.81c-3.77.37-11.82 1.64-13.86 3.76-2.04 2.12-3.02 9.84-3.26 13.43h-.19v-9.36c0-1.68.05-5.5.58-7.34 1.05-.3 4.43-.84 9.53-.69H46v.2z" fill="#fff"/></svg>