<!-- by TradingView --><svg width="56" height="56" viewBox="0 0 56 56" xmlns="http://www.w3.org/2000/svg"><path fill="#F0F3FA" d="M0 0h56v56H0z"/><path fill-rule="evenodd" d="M25.8 29.68c.12-.24.29-.96 0-2-.35-1.28-1.94-3.5-2.66-4.3-.57-.63-3.18-4.15-4.41-5.82-.27-.37-.73-1.19-.4-1.5.33-.3 1.31.97 1.77 1.56l.2.26c.2.22 3.43 4.4 5.02 6.47-.1-1.03-.4-3.47-.88-5.05l-.37-1.25c-.63-2.06-1.45-4.78-1.27-5.01.21-.3 1.13 1.23 1.53 2.4.33.92 2.29 8.06 3.23 11.52.05.16.21.43.42.24.18-.17.43-1.03.84-2.42l.55-1.85c.6-1.98 1.86-5.82 2.42-7.5.24-.52.78-1.58 1.04-1.65.33-.09.15 1.76-.25 3.3l-2.37 8.97c-.1.67-.09 1.6.8 0 .9-1.6 2.16-4.15 2.68-5.23.62-.76 2.04-2.3 2.71-2.34.69-.03-2.55 5.87-3.91 8.35-.31.57-.53.96-.57 1.06-.26.54-.17.83 1.46 0 1.63-.84 8.13-3.7 9.48-4.21 1.35-.52 3.05-.48 2.98 0-.04.27-.8.49-1.78.77-.74.22-1.61.47-2.41.8-1.5.64-5.93 2.67-7.96 3.61.73-.17 2.96-.75 6.09-1.66 3.9-1.15 6.58-1.8 7.2-1.33.62.49-4.36 2.18-7.2 3 2.18.05 6.5.3 6.3.8-.15.38-1.04.42-2.48.48-.95.04-2.14.1-3.51.26-2.77.32-6.6.91-8.17 1.16 0 .12.31.44 1.46.77s8.03 3.04 11.33 4.36c1.15.48 3.42 1.57 3.28 2.16-.1.42-1.56-.14-3.5-.88-1.42-.55-3.11-1.2-4.71-1.63-.98-.26-1.86-.5-2.66-.74-2.3-.65-3.94-1.12-5.2-1.12h-8.55l-10.5 3.76c-1.86.46-4.5.82-.2-1.46a54.88 54.88 0 0 1 10.7-4.22 54.08 54.08 0 0 0-7.57-.81c-.97 0-2.3.1-3.6.2-2.64.19-5.28.38-5.2-.2.12-.87 2.26-1.14 4.99-1.14.63 0 1.34.03 2.12.07 2.6.1 5.95.24 9.73-.56a69.88 69.88 0 0 0-8.33-3.93c-5.22-2.1-7.36-4.69-2.85-3.27 3.62 1.13 10.27 4.97 13.14 6.75Zm5.51 2.93 4.3 1.52c.1.11.22.33 0 .33-.1 0-.34-.12-.64-.26-.44-.21-1-.49-1.44-.52l-.38-.02c-.8-.02-2-.05-1.84-1.05Z" fill="#F8A434"/><path fill-rule="evenodd" d="M25.8 27.69c.29 1.03.12 1.75 0 1.99-1.8-1.12-5.08-3.04-8.17-4.6-.3.53-.57 1.1-.8 1.67a66.2 66.2 0 0 1 7.01 3.38c-2.9.62-5.55.68-7.8.62a12.52 12.52 0 0 0 .02 1.01c2.35.04 5.82.55 7.31.81a53.26 53.26 0 0 0-6.71 2.34c.2.6.44 1.17.73 1.72l5.98-2.14h8.55c1.26 0 2.9.47 5.2 1.12.7.2 1.45.42 2.28.64a12 12 0 0 0 .57-1.42 146.97 146.97 0 0 0-6.59-2.49c-1.15-.33-1.46-.65-1.46-.77a242.38 242.38 0 0 1 8.62-1.22c-.03-.5-.09-.99-.18-1.47l-.58-.02.55-.16c-.1-.53-.25-1.04-.42-1.54l-.13.04c-3.13.91-5.36 1.49-6.09 1.66 1.4-.64 3.91-1.8 5.84-2.67-.14-.3-.29-.61-.45-.9-2.24.98-4.77 2.12-5.7 2.6-1.63.83-1.72.54-1.46 0a151.54 151.54 0 0 0 3.55-6.67c-.45-.32-.9-.6-1.38-.86l-.4.46c-.52 1.08-1.78 3.64-2.67 5.23-.9 1.6-.91.67-.8 0l1.73-6.58c-.45-.14-.9-.25-1.38-.34l-1.2 3.8-.55 1.85c-.4 1.39-.66 2.25-.84 2.42-.2.19-.37-.08-.42-.24-.54-1.98-1.41-5.17-2.12-7.7-.32.07-.63.16-.93.26.43 1.58.72 3.85.81 4.83l-3-3.89-.98.6a55.97 55.97 0 0 0 1.8 2.32c.72.8 2.31 3.02 2.66 4.3Zm9.82 6.44-4.3-1.52c-.16 1 1.02 1.03 1.83 1.05l.38.02c.44.03 1 .3 1.44.52.3.14.54.26.65.26.21 0 .09-.22 0-.33Z" fill="#FCBC1C"/><path fill-rule="evenodd" d="M25.8 27.69c.29 1.03.12 1.75 0 1.99-1.3-.8-3.37-2.03-5.59-3.24-.27.47-.5.97-.7 1.49 2.13.98 3.67 1.8 4.33 2.2-1.72.37-3.36.54-4.88.6a9.22 9.22 0 0 0 .04 1.23c1.73.19 3.44.45 4.38.61-.83.21-2.27.65-4 1.27.2.63.46 1.24.78 1.8l3.21-1.15h8.55c1.15 0 2.62.4 4.62.96.29-.53.53-1.1.7-1.69a75.39 75.39 0 0 0-3.86-1.42c-1.15-.33-1.46-.65-1.46-.77 1.14-.18 3.47-.54 5.72-.85a9.16 9.16 0 0 0-.54-2.76c-1.71.47-2.91.78-3.4.9l3.18-1.46c-.14-.32-.3-.63-.47-.93-1.32.6-2.46 1.13-3.03 1.42-1.63.83-1.72.54-1.46 0a253.82 253.82 0 0 0 2.2-4.06 9.36 9.36 0 0 0-1.45-.94 87.3 87.3 0 0 1-1.65 3.16c-.9 1.6-.91.67-.8 0l.99-3.78c-.5-.15-1-.28-1.53-.35a120.19 120.19 0 0 0-.86 2.86c-.4 1.39-.66 2.25-.84 2.42-.2.19-.37-.08-.42-.24l-1.35-4.91c-.39.09-.77.2-1.13.33.12.8.2 1.52.24 1.97l-1.2-1.56c-.34.17-.67.36-1 .58l.02.01c.72.8 2.31 3.02 2.66 4.3Zm9.82 6.44-4.3-1.52c-.16 1 1.02 1.03 1.83 1.05l.38.02c.44.03 1 .3 1.44.52.3.14.54.26.65.26.22 0 .09-.22 0-.33Z" fill="#FDC50E"/><path d="M25.8 27.69c.29 1.03.12 1.75 0 1.99-.82-.51-1.95-1.19-3.23-1.92-.25.42-.46.88-.6 1.36.86.44 1.5.79 1.87 1.01-.73.16-1.45.28-2.15.37a6.63 6.63 0 0 0 .09 1.82l1.6.25c-.37.1-.86.23-1.44.41.2.62.47 1.2.82 1.73l.61-.22h8.55c.55 0 1.18.1 1.9.25.18-.27.34-.55.49-.85a2.7 2.7 0 0 0-.78-.21l-.38-.02c-.8-.02-2-.05-1.84-1.05l3.08 1.09c.13-.29.24-.59.32-.9-.63-.23-1.1-.4-1.33-.46-1.15-.33-1.46-.65-1.46-.77.67-.1 1.77-.28 3.02-.46v-.03c0-.85-.16-1.67-.46-2.42-.35.1-.61.16-.79.2l.73-.34c-.13-.31-.3-.62-.48-.91l-.56.28c-1.63.83-1.72.54-1.46 0a1185.31 1185.31 0 0 0 .9-1.64c-.42-.38-.88-.7-1.38-.97l-.42.77c-.9 1.6-.91.67-.8 0l.3-1.17a6.65 6.65 0 0 0-1.62-.36l-.08.26c-.4 1.39-.66 2.25-.84 2.42-.2.19-.37-.08-.42-.24l-.64-2.32c-.8.17-1.53.47-2.2.9a9 9 0 0 1 1.08 2.15Z" fill="#FDD461"/><path d="M25.9 28.11c.14.8 0 1.37-.1 1.57-.24-.16-.52-.33-.82-.5a3.8 3.8 0 0 0 1.63 5.32h3.38c.6-.3 1.1-.73 1.47-1.26-.13-.15-.2-.35-.15-.63l.43.15c.16-.3.27-.64.33-.98-.1-.1-.15-.16-.15-.2l.19-.04a3.8 3.8 0 0 0-3.81-4.26c-.9 0-1.74.31-2.4.83Z" fill="#FEEAB0"/><path d="M29.78 34.5h-3.63a2.35 2.35 0 0 1-.58-1.55c0-1.3 1.07-2.37 2.4-2.37a2.38 2.38 0 0 1 2.38 2.37c0 .59-.21 1.13-.57 1.54Z" fill="#fff"/></svg>