<!-- by TradingView --><svg width="56" height="56" viewBox="0 0 56 56" xmlns="http://www.w3.org/2000/svg"><path fill="#F0F3FA" d="M0 0h56v56H0z"/><path d="M20.45 32.85C17.76 29.57 16 26.12 16 23.14c0-2.91 2.06-5.14 5-5.14 3.87 0 5 2.7 5 3.5a2 2 0 1 0 4 0c0-2.41 4.3-3.5 6-3.5 2.78 0 4 2.51 4 5 0 2.59-.88 4.5-2.57 6.48a2 2 0 0 0 3.03 2.6c2.29-2.67 3.54-5.51 3.54-9.02V23c0-4.69-2.99-9-8-9-2.87 0-5.77 1.02-7.83 3.05C26.71 15.35 24.34 14 21 14c-5.12 0-9 4.06-9 9.14 0 3.82 1.89 7.62 4.27 10.86h5.16c-.33-.37-.66-.76-.98-1.15ZM23.37 36h-5.5a39.89 39.89 0 0 0 8.83 7.7 2 2 0 0 0 2.1-3.4 33.55 33.55 0 0 1-5.43-4.3Z" fill="#7AB92B"/></svg>