<!-- by TradingView --><svg width="56" height="56" fill="none" xmlns="http://www.w3.org/2000/svg"><path fill="#003D79" d="M0 0h56v56H0z"/><path fill-rule="evenodd" clip-rule="evenodd" d="M20.515 30.97a15.574 15.574 0 003.238 4.053 16.378 16.378 0 01-1.534-2.248c-4.021-7.22-1.738-16.313 5.25-20.775a15.796 15.796 0 00-5.624 1.158C17.89 18.3 17.38 25.282 20.515 30.97zm-1.772.988c-2.897-5.177-3.101-11.444-.511-16.757-7.021 5.45-8.316 15.565-2.829 22.58 5.283 6.778 14.996 8.242 22.017 3.27-.886.136-1.806.204-2.726.204-6.612.034-12.713-3.542-15.95-9.297zm8.214.545c-3.067-5.484-1.09-12.397 4.363-15.462a11.114 11.114 0 016.816-1.397c.648.511 1.227 1.09 1.772 1.703a11.538 11.538 0 00-7.668 1.26c-5.113 2.895-7.226 9.196-4.874 14.577a11.979 11.979 0 01-.409-.681zm-2.965-.715a12.51 12.51 0 001.295 1.907c-.017-.034-.043-.068-.068-.102a.707.707 0 01-.068-.102c-3.613-6.437-1.296-14.611 5.146-18.221a13.867 13.867 0 014.772-1.6 18.18 18.18 0 00-3.75-1.329c-.715.238-1.43.579-2.113.954-6.543 3.678-8.861 11.954-5.214 18.493zm5.623 1.362c2.25 4.017 7.121 5.822 11.449 4.224l.003-.001c3.579-5.109 3.92-11.784.818-17.2a9.401 9.401 0 00-3.613-.956 9.638 9.638 0 00-3.749.582 9.331 9.331 0 00-5.312 4.995 9.403 9.403 0 00.404 8.356z" fill="#fff"/></svg>