<!-- by TradingView --><svg xmlns="http://www.w3.org/2000/svg" width="56" height="56"><path fill="#F0F3FA" d="M0 0h56v56H0z"/><path d="M33.16 35l-5.93-13h-4.2l5.94 13h4.19z" fill="#0062AF"/><path d="M26 30.7L21.91 22h-4.2l-3.81 7.2-.29.5-.1.16a3.19 3.19 0 01-5.24.19 3.38 3.38 0 011.38-5.18 3.19 3.19 0 013.68 1l1.67-3.4a6.73 6.73 0 00-10.38 2.6 7.13 7.13 0 001.3 7.77 6.78 6.78 0 007.56 1.57 6.87 6.87 0 003.27-2.99l2.87-5.64L24 35l2-4.3z" fill="#44515A"/><path d="M33.76 24.62a3.21 3.21 0 012.51 1.2l1.67-3.37a6.74 6.74 0 00-8.96.55l1.72 3.8a3.3 3.3 0 013.06-2.18zM45.1 21a6.82 6.82 0 00-5.78 3.17c-.44.7-.82 1.43-1.13 2.2-.15.37-1.07 2.43-1.7 3.39a3.26 3.26 0 01-3.88 1.3l1.73 3.8a6.71 6.71 0 005.03-2.96 6.93 6.93 0 006.08 3.1 6.83 6.83 0 005.74-3.7 7.08 7.08 0 00-2.69-9.4 6.86 6.86 0 00-3.4-.9zm0 10.55a3.46 3.46 0 01-3.24-2.2 3.6 3.6 0 01.76-3.86A3.48 3.48 0 0148.59 28c0 .94-.37 1.84-1.03 2.5a3.48 3.48 0 01-2.47 1.05z" fill="#A8B0B8"/></svg>