<!-- by TradingView --><svg width="56" height="56" viewBox="0 0 56 56" xmlns="http://www.w3.org/2000/svg"><path fill="url(#admxitmwx)" d="M0 0h56v56H0z"/><path d="M9.84 32C7.54 32 6 30.47 6 28.1 6 25.5 7.24 24 9.76 24c1.03 0 2.1.24 2.73 1.09l1.27-1.31A4.86 4.86 0 0 0 9.84 22C6.39 22 4 24.55 4 28.1 4 30.97 6.2 34 9.76 34c2.56 0 3.9-1.53 4.24-2l-1.28-1.53A3.35 3.35 0 0 1 9.84 32ZM35.76 32C33.5 32 32 30 32 28.1c0-2.32 1.5-4.1 3.84-4.1 1.03 0 2.07.47 2.7 1.3l1.22-1.53A4.88 4.88 0 0 0 35.84 22C32.39 22 30 24.55 30 28.1c0 2.87 2.2 5.9 5.76 5.9 2.56 0 3.9-1.53 4.24-2l-1.31-1.53A3.43 3.43 0 0 1 35.76 32M52 22H41v2h4.5v10h2V24H52v-2ZM22 30l-3-8h-3v12h2v-8.5l3.48 8.5h1.04L26 25.5V34h2V22h-2.5L22 30Z" fill="#F58F24"/><defs><linearGradient id="admxitmwx" x1="10.42" y1="9.71" x2="68.15" y2="76.02" gradientUnits="userSpaceOnUse"><stop stop-color="#1A1E21"/><stop offset="1" stop-color="#06060A"/></linearGradient></defs></svg>