<!-- by TradingView --><svg width="56" height="56" viewBox="0 0 56 56" xmlns="http://www.w3.org/2000/svg"><path d="M21.42 19.58a11.6 11.6 0 0 0-8.5 3.37c.11-.46.38-1.07.38-1.07.83-1.86 3.26-5.46 9.53-5.28 9.47.28 14.5 7.74 14.5 7.74.84-.81 1.55-1.63 2.13-2.4 0 0-4.63-7.85-15.38-7.85-2.4 0-4.36.63-5.76 1.28a15.89 15.89 0 0 1 4.79-2.52c10.9-3.42 17.92 6.72 17.92 6.72.52-.92.74-1.54.74-1.54a17 17 0 0 0-29.16 17.2l.4-1.01c-.2-.53-.83-2.26-1-3.67-.26-2.23.1-7.62 8.1-7.62s11.46 6.56 11.46 6.56c1.9-1.3 3.18-2.6 3.18-2.6s-3.97-7.31-13.33-7.31ZM34.6 36.44a11.6 11.6 0 0 0 8.5-3.38c-.11.46-.38 1.07-.38 1.07-.83 1.86-3.26 5.46-9.54 5.28-9.46-.28-14.49-7.75-14.49-7.75-.84.82-1.55 1.64-2.13 2.4 0 0 4.62 7.86 15.38 7.86 2.38 0 4.36-.63 5.76-1.28a15.92 15.92 0 0 1-4.79 2.52c-10.9 3.42-17.92-6.72-17.92-6.72-.53.92-.74 1.54-.74 1.54a17 17 0 0 0 29.16-17.2L43 21.8c.2.53.83 2.26 1 3.67.26 2.22-.41 7.62-8.09 7.62-8 0-11.47-6.56-11.47-6.56-1.9 1.3-3.18 2.6-3.18 2.6s3.97 7.32 13.33 7.32Z" fill="#0F264D"/></svg>