<!-- by TradingView --><svg width="56" height="56" xmlns="http://www.w3.org/2000/svg"><path fill="url(#paint0_linear)" d="M0 0h56v56H0z"/><path d="M24.426 27.04s-.958.959 0 1.917l2.617 2.617s.958.958 1.916 0l2.615-2.615s.958-.958 0-1.916l-2.616-2.617s-.958-.959-1.917 0" fill="#F0553B"/><path d="M23.025 32.229l-4.372-4.236 4.35-4.215s1.037-1.004 0-2.009l-1.54-1.492s-1.038-1.005-2.075 0l-6.927 6.711s-1.037 1.005 0 2.01L14 30.49l.008.007 5.401 5.232s1.037 1.006 2.074 0l1.541-1.492s1.037-1.005 0-2.01zM43.54 27L32.645 16.446s-1.037-1.005-2.074 0l-1.54 1.492s-1.038 1.004 0 2.01l8.314 8.055-8.306 8.048s-1.037 1.005 0 2.01l1.54 1.492s1.037 1.004 2.074 0l10.885-10.545s1.037-1.005 0-2.01z" fill="#fff"/><defs><linearGradient id="paint0_linear" x1="10.418" y1="9.712" x2="68.147" y2="76.017" gradientUnits="userSpaceOnUse"><stop stop-color="#1A1E21"/><stop offset="1" stop-color="#06060A"/></linearGradient></defs></svg>