<!-- by TradingView --><svg xmlns="http://www.w3.org/2000/svg" width="56" height="56" viewBox="0 0 56 56"><path fill="#F0F3FA" d="M0 0h56v56H0z"/><path fill-rule="evenodd" d="M33.17 18.12c.46-.22 1.7-.82 2.98-1.51l.11-.06c.56-.3 1.7-.92 2.46-1.56 1.92-1.58-.64-1.98-2-1.98-1.58-.04-3.38.07-5.24.31-9.4 1.22-20.62 5.8-15.45 12.8a6.65 6.65 0 0 0-2.89 3.68c-.9 3.58 2.71 6.27 5.37 7.92A36.01 36.01 0 0 0 35.67 43c1.47.03 2.55-.1 3.34-.34 2.7-.82 2.39-3.21.67-4.65-1.32-1.11-3.92-2.85-8.58-5.19a63.25 63.25 0 0 1-11.64-7.45c3.82-2.5 10.62-5.82 13.54-7.17l.17-.08ZM18.6 24.33c-.35-.12-.83-.73-.85-1.51-.03-.71.24-1.33.66-1.88 1.13-1.46 3.04-2.45 4.68-3.26 2.42-1.2 5.27-2.2 7.72-2.83 1.53-.4 3.1-.7 4.67-.88 2.1-.26 3.5-.16 3.05.55-.35.54-3.88 2.22-7.34 3.75a163 163 0 0 0-12.59 6.06Zm8.78 9.58c-3.64-1.83-7.46-3.81-10.4-6.65-.94.64-2.11 1.93-2.12 3.49 0 1.68 1.66 3.23 3.55 4.46a38.6 38.6 0 0 0 9.14 4.14 29.07 29.07 0 0 0 6.29 1.42c1.6.14 6.56.56 3.64-1.42-2.5-1.7-5.37-3.1-8.14-4.47l-1.96-.97Z" fill="url(#ay1eaedl5)"/><path d="M36.15 16.6A66.42 66.42 0 0 1 33 18.2c-2.92 1.35-9.7 4.67-13.52 7.16-.35-.3-.69-.62-.97-.97l.1-.06a163 163 0 0 1 12.58-6.06c3.46-1.53 7-3.2 7.34-3.75.38-.6-.36-1.23-.93-1.46l.27.03c1.2.19 2.3.71.85 1.9-.76.64-1.9 1.25-2.46 1.56l-.11.06Z" fill="url(#by1eaedl5)"/><path d="m16.07 26.1-.04.02a6.65 6.65 0 0 0-2.89 3.68c-.9 3.58 2.71 6.27 5.37 7.92A36 36 0 0 0 35.67 43c1.47.03 2.55-.1 3.34-.34 2.11-.64 2.38-2.25 1.57-3.6 0 0-.58.9-1.76 1.42-1.4.61-3.05.46-4.56.33l-.42-.04-.27-.02a29.07 29.07 0 0 1-6.02-1.4 38.6 38.6 0 0 1-9.14-4.14c-1.89-1.23-3.55-2.78-3.55-4.46 0-1.56 1.18-2.85 2.12-3.5l.05-.03a10.6 10.6 0 0 1-.96-1.13Z" fill="url(#cy1eaedl5)"/><defs><linearGradient id="ay1eaedl5" x1="13" y1="14.89" x2="38.97" y2="39.7" gradientUnits="userSpaceOnUse"><stop stop-color="#00B4D0"/><stop offset=".17" stop-color="#02AAC5"/><stop offset=".35" stop-color="#04A0BA"/><stop offset="1" stop-color="#C70041"/></linearGradient><linearGradient id="by1eaedl5" x1="38.08" y1="14.23" x2="39.29" y2="40.19" gradientUnits="userSpaceOnUse"><stop stop-color="#00B4D0"/><stop offset=".54" stop-color="#1C355E"/></linearGradient><linearGradient id="cy1eaedl5" x1="38.08" y1="14.23" x2="39.29" y2="40.19" gradientUnits="userSpaceOnUse"><stop stop-color="#00B4D0"/><stop offset=".54" stop-color="#1C355E"/><stop offset="1" stop-color="#E7004C"/></linearGradient></defs></svg>