<!-- by TradingView --><svg width="56" height="56" viewBox="0 0 56 56" fill="none" xmlns="http://www.w3.org/2000/svg">
<rect width="56" height="56" fill="#F0F3FA"/>
<path fill-rule="evenodd" clip-rule="evenodd" d="M16.9829 25H14.4589C13.8605 23.8614 12.7019 23.5914 12.1975 23.6086C9.54001 23.6086 7.05852 26.1559 7.05852 27.8894C7.05852 29.2763 8.6434 29.8198 9.43583 30H18.5139C15.9473 29.99 15.9465 27.9731 16.0195 27.7049C16.2266 26.7578 17.1607 25.0547 19.5298 25.0547C20.3126 25.0249 21.7889 25.4085 21.9795 27.108L22.4163 25H23.8523L24.6056 28.4091H24.8646L26.9127 25H28.3723L27.3365 30H28.5109L29.3996 26H28.4964L28.6831 25H31.7339L31.4973 26H30.4898L29.7678 30H30.8597L31.9773 25H34.9433L34.6997 26H32.708L32.4979 27H33.9347L33.7608 28H32.2878L32.0776 29H33.926L33.7254 30H46.1455L45.8253 32H9.85198C7.94059 32 5 31.064 5 28.133C5 25.202 8.70025 22 12.3025 22C15.1843 22 16.6235 24.0066 16.9829 25ZM21.3804 30H18.5498C20.0913 29.9932 21.2582 29.0462 21.7476 28.2275L21.3804 30ZM23.8523 30H22.4163L23.1461 26.8409L23.8523 30ZM26.1829 30H24.8646L26.9127 26.8409L26.1829 30ZM17.013 27.6082C17.1509 27.0337 17.7733 26.0009 19.3518 26.0009C19.9101 25.9816 20.9977 26.2495 20.9977 27.4756C20.9977 27.9727 20.066 29 18.6877 29C16.9648 29 16.9642 27.7712 17.013 27.6082ZM39.3018 30L40.3458 25H41.5092L41.1214 27H42.9261L43.3437 25H44.5071L43.5376 30H42.2997L42.7173 28H40.9275L40.5397 30H39.3018ZM46.5054 30H48.0635L47.7577 32H46.1996L46.5054 30ZM48.5077 30L49.7163 30L49.4105 32L48.2018 32L48.5077 30ZM50.9613 30L50.0763 30L49.7705 32L50.6555 32L50.9613 30ZM51.3213 30L52.0244 30L51.7186 32L51.0155 32L51.3213 30ZM53 30L52.3843 30L52.0785 32L52.6942 32L53 30Z" fill="#231F20"/>
<ellipse opacity="0.6" cx="11.5" cy="27.25" rx="3" ry="2.75" fill="#1577AB"/>
<path d="M10.2096 28.202C10.0766 28.3038 9.94838 28.7873 9.90089 29.0163C9.82772 29.3121 9.54474 28.7364 9.44976 28.5583C9.35478 28.3802 9.16483 28.2784 9.06985 28.0239C8.97488 27.7695 8.61871 27.7313 8.55935 27.1969C8.51186 26.7694 8.81658 26.4251 8.97487 26.3063C9.14108 26.5353 9.50674 27.0341 9.6397 27.1969C9.80591 27.4005 10.2096 27.286 10.3995 27.375C10.5895 27.4641 10.3758 28.0748 10.2096 28.202Z" fill="#1073AC"/>
<path d="M11.2306 26.4464C11.2686 26.253 11.6817 25.8993 11.8835 25.7466C12.0774 25.5982 12.5294 25.2962 12.7858 25.2759C13.1064 25.2504 13.2844 25.4031 13.3913 25.4922C13.4981 25.5812 13.9968 26.1665 14.0799 26.281C14.163 26.3955 14.068 26.5227 13.9968 26.5736C13.9255 26.6245 13.6762 27.0571 13.3913 27.0571C13.1064 27.0571 13.4388 27.5151 13.3913 27.6932C13.3438 27.8713 13.237 28.1894 13.0351 28.4057C12.8333 28.622 12.7858 28.6983 12.6196 28.8892C12.4534 29.08 12.394 28.6347 12.2516 28.4693C12.1091 28.3039 12.2041 27.9222 12.1447 27.6932C12.0854 27.4642 12.0497 27.2352 11.8835 27.0571C11.7173 26.879 11.5036 26.9935 11.3849 26.9298C11.2662 26.8662 11.1831 26.6881 11.2306 26.4464Z" fill="#1073AC"/>
<path fill-rule="evenodd" clip-rule="evenodd" d="M37.6848 25.0016C35.3157 25.0016 34.3816 26.7229 34.1745 27.6803C34.1014 27.952 34.1023 30 36.6881 30C38.0587 30 39.1351 29.2483 39.7055 28.5H38.3112C37.9407 28.7829 37.4385 29 36.8483 29C35.2435 29 35.2429 27.7712 35.2883 27.6082C35.4168 27.0337 35.9966 26.0009 37.4669 26.0009C37.8017 25.9885 38.341 26.0951 38.6826 26.5H40.009C39.5901 25.2699 38.371 24.9752 37.6848 25.0016Z" fill="black"/>
</svg>
