<!-- by TradingView --><svg width="56" height="56" viewBox="0 0 56 56" xmlns="http://www.w3.org/2000/svg"><path fill="#F0F3FA" d="M0 0h56v56H0z"/><path d="m30.5 25 9 .01 4.5 8L39.5 41l-9-.01-4.5-8L30.5 25Z" fill="url(#aiqgzn5or)"/><path d="m28.74 14 7.5.01 3.76 7L36.26 28l-7.5-.01-3.76-7L28.74 14Z" fill="url(#biqgzn5or)"/><path d="M28.5 23h5l2.5 4.5-2.5 4.5h-5l-2.84-4.6L28.5 23Z" fill="#1A59B0"/><path d="m35.73 28-6.97-.01-1.5-2.78L28.5 23h5L36 27.5l-.27.5Z" fill="#458ACE"/><path d="M22.5 12h5.34l2.67 4.52-2.66 4.5h-5.33l-2.67-4.51L22.5 12Z" fill="#B2D4ED"/><path d="m29.02 14 1.5 2.52-2.67 4.5h-2.83L25 21 28.74 14h.28Z" fill="#4E8CC9"/><path d="M36.5 21h5l2.5 4.5-2.5 4.5h-5L34 25.5l2.5-4.5Z" fill="#4AA8ED"/><path d="m41.9 29.29-.4.71h-5L34 25.5l.27-.5 5.22.01 2.41 4.28Z" fill="#2770BF"/><path d="M40 21v.01L36.26 28h-.87L34 25.5l2.5-4.5H40Z" fill="#2868B0"/><path d="M24.25 36h4.5L31 40l-2.25 4h-4.5L22 40l2.25-4Z" fill="url(#ciqgzn5or)"/><path d="M30.48 40.93 27.7 36h1.05L31 40l-.52.93Z" fill="#2C6FB8"/><path d="M12.74 25h5.5L21 29.5 18.26 34h-5.5L10 29.5l2.74-4.5Z" fill="#4AA8ED"/><path d="m16.74 16 9.5.01 4.76 8.5L26.26 33l-9.5-.01-4.76-8.5L16.74 16Z" fill="url(#diqgzn5or)"/><path d="M17.25 22h4.5L24 26l-2.25 4h-4.5L15 26l2.25-4Z" fill="url(#eiqgzn5or)"/><path d="m18.87 33-2.11-.01-4.25-7.6.23-.39h5.5L21 29.5 18.87 33Z" fill="#478CCD"/><path d="m28.47 19.99-.62 1.04-5.33-.01-2.67-4.51.3-.5h6.09L28.47 20Z" fill="#387EC4"/><path d="m29.06 28-.3-.01-3.76-7 1.97-3.68 4.03 7.2L29.06 28Z" fill="#2769B5"/><path d="M18.5 28h7l3.5 6.5-3.5 6.5h-7L15 34.5l3.5-6.5Z" fill="url(#fiqgzn5or)"/><path d="m20.08 28 .92 1.5-2.74 4.5h-3l3.23-6h1.59Z" fill="#2B70BD"/><path d="m28.2 36-2.7 5h-2.94L22 40l2.25-4h3.95Z" fill="#2772C3"/><path d="M28.04 31.18 26.95 33l-10.16-.01-.52-.87L18.65 28h7.48l1.91 3.18Z" fill="#004091" fill-opacity=".7"/><path d="M29.25 29h4.5L36 33l-2.25 4h-4.5l-2.38-4 2.38-4Z" fill="#1A59B0" fill-opacity=".7"/><defs><linearGradient id="aiqgzn5or" x1="29" y1="26.5" x2="43" y2="37.5" gradientUnits="userSpaceOnUse"><stop stop-color="#62B0EB"/><stop offset=".83" stop-color="#2868AF"/></linearGradient><linearGradient id="biqgzn5or" x1="38.5" y1="14" x2="25.5" y2="25" gradientUnits="userSpaceOnUse"><stop stop-color="#4E8FC7"/><stop offset="1" stop-color="#94C6EC"/></linearGradient><linearGradient id="ciqgzn5or" x1="26.5" y1="36" x2="26.5" y2="44" gradientUnits="userSpaceOnUse"><stop stop-color="#9DCBED"/><stop offset="1" stop-color="#85B9DF"/></linearGradient><linearGradient id="diqgzn5or" x1="16.5" y1="17" x2="26" y2="32" gradientUnits="userSpaceOnUse"><stop stop-color="#569ED8"/><stop offset="1" stop-color="#79B7E6"/></linearGradient><linearGradient id="eiqgzn5or" x1="19.5" y1="22" x2="19.5" y2="30" gradientUnits="userSpaceOnUse"><stop stop-color="#488ECD"/><stop offset="1" stop-color="#66A7DD"/></linearGradient><linearGradient id="fiqgzn5or" x1="24" y1="31" x2="20" y2="39" gradientUnits="userSpaceOnUse"><stop stop-color="#63A9DD"/><stop offset="1" stop-color="#4289CD"/></linearGradient></defs></svg>