<!-- by TradingView --><svg width="56" height="56" viewBox="0 0 56 56" xmlns="http://www.w3.org/2000/svg"><path fill="#181B1E" d="M0 0h56v56H0z"/><path d="M16.08 22.85a11.98 11.98 0 0 1 3.84-1.44c2.25-.47 4.18-1.03 6.08-2.26l2.86-1.84a7.79 7.79 0 0 1 4.17-1.3c1.62.03 3.14.42 4.57 1.16.64.34 1.07.87 1.65 1.59l.27.32c.9 1.11 1.72 2.26 2.45 3.46.05.09.03.13-.07.13h-.36a.24.24 0 0 1-.22-.13c-.7-1.25-1.56-2.33-2.45-3.43l-.43-.55c-.94-1.17-2.2-1.63-3.64-1.92a7.3 7.3 0 0 0-3.92.2c-.52.17-.97.44-1.44.7-.15.1-.3.18-.46.27-.25.14-.49.29-.71.45a22.14 22.14 0 0 1-8.73 3.69c-.72.14-1.6.45-2.6.95-.28.13-.54.1-.83.08-.14-.01-.15-.06-.03-.13Zm15.05-5.12c-1.55.68-3 1.7-4.38 2.78a7.21 7.21 0 0 1-4.68 1.7c-.09 0-.1-.2 0-.22.5-.1 1.02-.22 1.52-.35 1-.25 2.03-.77 3.08-1.55l.22-.17c1.45-1.08 2.96-2.21 4.6-2.75 1.82-.6 3.31.47 4.73 1.65 1.47 1.23 2.78 2.35 3.76 4.05.08.13-.1.13-.18.13h-.02a.25.25 0 0 1-.23-.12l-.15-.24c-.13-.2-.26-.39-.43-.57a28.67 28.67 0 0 0-4.38-3.87c-1.15-.83-2.22-1.01-3.46-.47Zm-.75 2.44c-1.48.38-3.03 1-4.65 1.84-.53.28-1.07.54-1.64.78-.12.06-.12.1.01.12.53.11 1 .07 1.42-.14a51.43 51.43 0 0 1 4.3-1.82c.83-.31 1.66-.4 2.53-.34 1.3.1 2.2 1.02 2.8 2.24.03.05.06.09.1.11.04.03.09.04.14.04h.5c.1-.01.14-.06.08-.17-.83-1.57-1.67-2.7-3.56-2.81-.8-.05-1.47 0-2.03.15Zm-2.32 2.59c1.5-1.15 3.16-2.33 4.83-1.46.49.25.85.7 1.08 1.35.06.17.02.25-.11.25l-.28-.02c-.12 0-.21-.08-.28-.21-.32-.71-.82-1.07-1.5-1.07-.86 0-1.53.47-2.25 1l-.18.12c-.43.3-.86.36-1.3.18-.09-.04-.1-.09-.01-.14Zm3.17 15.02-.78.03a51.34 51.34 0 0 1-7.85-.36c-1.4-.19-2.79-.44-4.18-.76a9.63 9.63 0 0 1-1.63-.52c-1.07-.47-2.17-.98-2.52-2.12-.03-.09-.13-.04-.18 0-.08.05-.1.12-.08.2.35.98 1.2 1.41 2.1 1.87l.12.06c.46.24.98.43 1.56.58a35.72 35.72 0 0 0 6.17 1.02 52.6 52.6 0 0 0 13.62-.48c1.75-.3 3.63-.78 5.13-1.65.21-.12.38-.28.56-.43.18-.17.37-.34.6-.47a.24.24 0 0 0 .09-.07.21.21 0 0 0 .04-.1c.01-.15-.01-.31-.07-.48-.04-.09-.27-.08-.24.02.03.14.03.29 0 .43a.2.2 0 0 1-.12.15c-.27.13-.48.3-.7.47-.22.18-.44.36-.72.5-1.09.53-2.11.9-3.07 1.12-2.02.48-3.8.67-5.71.87-.7.07-1.42.1-2.14.12Zm-12.9-1.72c-.81-.28-2-1-2.25-1.84-.02-.09 0-.15.1-.18.06-.03.15-.06.18.03.1.41.29.72.55.91l.09.07c.56.43 1.14.87 1.91 1.04 6.83 1.34 16.27 2.36 22.7-1.48.16-.13.19-.27.1-.45-.04-.06.03-.14.1-.1.11.04.19.1.23.2a.3.3 0 0 1-.1.32c-6.05 4.05-17.01 3.31-23.61 1.48Zm21.21-1.95c0 .15.06.27.18.37.06.05.06.1 0 .14-.2.17-.42.23-.65.3-.16.05-.32.1-.49.2-4.92 2.13-11.57 1.9-16.58.96a9.4 9.4 0 0 1-2.62-.96c-.3-.16-.55-.41-.72-.77a.73.73 0 0 0-.3-.3c-.1-.06-.16-.05-.2 0a.25.25 0 0 0-.02.27c.24.49.61.85 1.12 1.08.97.45 2 .77 3.1.97 5.44.96 11.35 1.04 16.45-1.16.36-.16.72-.3 1.08-.42.17-.06.24-.25.15-.39a1.4 1.4 0 0 0-.33-.36c-.07-.05-.17-.01-.17.07Zm-1.93.3-.22-.22a.09.09 0 0 1 .01-.14.1.1 0 0 1 .06-.01c.28-.03.48.07.6.3.06.12.03.27-.07.36a.35.35 0 0 1-.12.07c-4.57 1.44-8.9 2.01-13.82 1.26-1.06-.16-3.9-.7-3.97-1.86 0-.08.03-.12.11-.12h.42a.2.2 0 0 1 .12.04c.03.03.05.06.06.1.89 2.78 12.46 2.23 16.75.48.12-.04.15-.18.07-.26Zm-14.63-.14a.41.41 0 0 0-.14-.2l-.24.01h-.2c-.02 0-.04 0-.06.03a.08.08 0 0 0-.02.08c.11.4.4.57.8.78.6.3 1.35.43 2.01.53 1.15.19 2.29.33 3.4.41.48.04.93-.02 1.38-.07.24-.03.48-.06.73-.07 1.12-.08 2.19-.31 3.27-.55l.7-.16c.4-.08.74-.28 1.02-.58.1-.1.15-.23.15-.38l-.01-.05a.06.06 0 0 0-.06-.02c-.05 0-.07.03-.09.06-.15.4-.46.7-.95.86-.06.02-.1-.1-.03-.13.4-.14.65-.37.78-.7.01-.05-.18-.12-.2-.02-.27.7-1.24.93-2.02 1.12l-.57.15c-.44.14-1.04.17-1.56.2l-.37.02-.82.1c-.63.09-1.25.17-1.9.04-.58-.12-1.17-.22-1.75-.31-.54-.1-1.08-.18-1.6-.29a3.57 3.57 0 0 1-1.53-.7.32.32 0 0 1-.12-.16Zm10.28.37c.15-.07.16-.2.17-.33 0-.07.01-.13.04-.2.03-.08.08-.09.12 0a.4.4 0 0 1 .06.24c0 .07-.04.13-.1.18-.3.26-.72.42-1.22.48-.18.02-.37.05-.56.1-.96.2-2.02.32-3.18.33-1 0-2.03-.22-3-.42-.42-.1-.8-.26-1.15-.5a.63.63 0 0 1-.12-.1c-.15-.17-.15-.29-.02-.37a.13.13 0 0 1 .17.04c.38.58.98.74 1.69.87l.17.04c.99.19 1.84.35 2.91.29 1.16-.07 2.23-.2 3.2-.38.27-.06.54-.15.82-.27Zm-2.15-.57c-.03-.03-.06-.03-.09 0 0 .01-.16 0-.28 0l-.14-.02a2.4 2.4 0 0 1-.87.43l-1.76.06c-.3 0-.6-.15-.9-.46-.06-.06-.1-.05-.11.04-.02.1.01.19.09.27.04.04.03.07-.02.1a.28.28 0 0 1-.27.03 3.46 3.46 0 0 1-.82-.46c-.08-.07-.12-.05-.1.05.08.4.88.6 1.24.66.6.11 1.34.15 2.18.13h.03c.96-.03 1.7-.05 2.51-.55.08-.04.12-.1.15-.18.02-.1 0-.1-.07-.04-.24-.02-.33.05-.4.1-.09.06-.13.08-.37-.16ZM15 24.74l-.4 2.17a6.97 6.97 0 0 0-3.19-.91A2.36 2.36 0 0 0 9 28.4c0 1.23 1.47 2.6 2.88 2.6 1.12 0 2.28-.83 2.73-1.23v2.32a5 5 0 0 1-2.9.91C9.94 33 7 31.86 7 28.4c0-3.44 2.76-4.4 4.54-4.4 1.43 0 2.9.5 3.46.74Zm1 2.76a3.5 3.5 0 1 1 7 0V33h-2v-5.5a1.5 1.5 0 0 0-3 0V33h-2v-5.5ZM36.5 24a3.5 3.5 0 0 0-3.5 3.5V33h2v-5.5a1.5 1.5 0 0 1 3 0V33h2v-5.5a3.5 3.5 0 0 0-3.5-3.5Zm4.5 2.5a3.5 3.5 0 0 0 2.5 3.36V33h2v-3.14A3.5 3.5 0 0 0 48 26.5V24h-2v2.5a1.5 1.5 0 0 1-3 0V24h-2v2.5Zm-16 3.3V24h6v2h-4v1.36h4V29h-4v1.1c0 .5.37.9.83.9H31v2h-3.04C26.32 33 25 31.56 25 29.8Z" fill="#1A81BF"/></svg>