<!-- by TradingView --><svg width="56" height="56" viewBox="0 0 56 56" fill="none" xmlns="http://www.w3.org/2000/svg">
<rect width="56" height="56" fill="#F0F3FA"/>
<path fill-rule="evenodd" clip-rule="evenodd" d="M26.0597 11.118C22.493 11.633 19.5753 12.9181 17.0043 15.1062C12.6639 18.8002 10.4099 24.5113 11.1335 29.9808C11.5296 32.9741 12.5938 35.6656 14.2951 37.9768C19.1495 44.5719 27.9434 46.8332 35.4816 43.425C37.2677 42.6175 38.7503 41.6114 40.4196 40.0743L40.921 39.6126L40.6265 39.2975C40.4645 39.1241 40.295 38.9823 40.2498 38.9823C40.2047 38.9823 39.9058 39.235 39.5855 39.5439C38.1081 40.9687 36.6578 41.9163 34.453 42.8976C33.875 43.1549 32.5646 43.5502 31.4446 43.8052C30.5195 44.0159 30.1299 44.045 28.2356 44.0453C26.3563 44.0457 25.9444 44.0155 25.0267 43.8103C21.7915 43.0869 19.0254 41.6268 16.8312 39.4843C12.7633 35.5121 11.0637 29.8755 12.3035 24.4671C12.6292 23.0461 13.4888 20.9194 14.1888 19.8029C15.3082 18.0171 17.2437 15.9311 18.7145 14.925C23.2466 11.8251 28.4952 11.0571 33.5456 12.7547C35.4561 13.3969 37.4487 14.54 38.9402 15.8494C39.3342 16.1954 39.7235 16.4784 39.8052 16.4784C39.8869 16.4784 40.052 16.3519 40.172 16.1971L40.3902 15.9158L39.753 15.3225C38.896 14.5243 37.2315 13.3992 36.0073 12.7903C34.9885 12.2836 33.2578 11.6497 32.3797 11.4615C30.2951 11.0146 27.7376 10.8757 26.0597 11.118ZM25.9793 13.5667C20.1643 14.4201 15.2875 18.8062 13.9078 24.4236C13.4533 26.2739 13.349 28.4924 13.6345 30.2365C14.401 34.9191 17.2564 38.8318 21.4668 40.9689C23.59 42.0467 25.8349 42.582 28.2265 42.5809C30.713 42.5798 32.8097 42.0807 35.0045 40.9676C38.5132 39.188 41.1014 36.1896 42.3249 32.4869C43.1088 30.1145 43.2175 27.1126 42.6118 24.5615C41.5468 20.0759 38.2642 16.2928 33.8791 14.4975C31.4987 13.5229 28.6028 13.1817 25.9793 13.5667ZM28.1798 16.1817C28.3759 16.2997 28.5365 16.4367 28.5365 16.4859C28.5365 16.5352 28.3898 16.6531 28.2106 16.7481C27.8262 16.9515 28.0075 17.0687 28.4304 16.89C28.6524 16.7962 28.7597 16.798 28.9168 16.8981C29.0838 17.0045 29.1626 16.997 29.3755 16.8547C29.7404 16.6109 29.8401 16.6398 29.8401 16.9899C29.8401 17.2318 29.8839 17.2967 30.0473 17.2967C30.1612 17.2967 30.339 17.2506 30.4423 17.1941C30.6984 17.0544 30.8028 17.2466 30.6396 17.5576C30.4634 17.8934 29.9598 18.1114 29.1907 18.1846C28.2405 18.2752 28.3551 18.5242 29.3469 18.5242C29.8512 18.5242 29.9747 18.6529 29.7198 18.9129C29.5486 19.0875 29.8064 19.0749 30.3415 18.8823C30.9765 18.6537 31.0738 18.6757 31.0221 19.0357C30.9866 19.2824 31.0143 19.3426 31.1636 19.3426C31.2734 19.3426 31.3916 19.4563 31.453 19.6208C31.5943 19.9999 31.3636 20.1609 30.6792 20.1609C30.3896 20.1609 30.1228 20.2104 30.0861 20.2708C30.0419 20.344 29.7706 20.3571 29.2779 20.31C28.7955 20.2639 28.5365 20.2756 28.5365 20.3435C28.5365 20.4837 29.0894 20.6723 29.5006 20.6723C29.7304 20.6723 29.8662 20.7354 29.9404 20.8769C29.9994 20.9894 30.1169 21.0815 30.2014 21.0815C30.313 21.0815 30.3363 21.1416 30.2864 21.3019C30.2199 21.5158 30.2361 21.5203 30.8374 21.4563C31.4376 21.3923 31.4559 21.3974 31.4256 21.6194C31.3971 21.8286 31.4404 21.8513 31.9209 21.8796C32.3556 21.9051 32.4474 21.9435 32.4474 22.1C32.4474 22.261 32.5058 22.2816 32.8355 22.2365C33.0569 22.2061 33.2517 22.2296 33.2889 22.2912C33.3801 22.4417 32.8117 23.0757 32.4479 23.2294C32.0888 23.3811 32.0653 23.4893 32.3722 23.5773C32.5855 23.6386 32.5877 23.6482 32.4113 23.754C32.3087 23.8157 31.88 23.9234 31.4586 23.9936C30.7382 24.1134 30.7093 24.128 30.9748 24.2379C31.13 24.3022 31.3895 24.3548 31.5514 24.3548C31.7132 24.3548 31.8457 24.3999 31.8457 24.4551C31.8457 24.6217 31.3614 24.6928 30.6444 24.6315C30.2572 24.5983 29.9248 24.6161 29.8692 24.6729C29.8071 24.7362 29.6204 24.7377 29.3546 24.6767C28.9961 24.5946 28.938 24.6047 28.9408 24.7492C28.9488 25.1708 29.4302 25.48 30.0783 25.48C30.3269 25.48 30.5615 25.5316 30.5997 25.5948C30.6932 25.7489 31.599 25.6362 32.3314 25.3793C32.8839 25.1857 32.902 25.1854 33.0294 25.3709C33.1344 25.5238 33.2431 25.55 33.5807 25.5038L34.0014 25.4462L33.6788 25.821C33.5013 26.0272 33.3801 26.2594 33.4093 26.3371C33.4779 26.5197 34.3108 26.6315 34.9544 26.5444C35.6682 26.4478 35.5928 26.627 34.7538 27.0215C34.3677 27.203 34.0518 27.3897 34.0518 27.4363C34.0518 27.5941 34.5434 27.8508 34.953 27.9068C35.419 27.9706 35.5279 28.0811 35.3455 28.3053C35.2421 28.4324 35.2429 28.4777 35.3497 28.545C35.4222 28.5907 35.4529 28.6753 35.4179 28.7331C35.3829 28.7908 35.4109 28.8621 35.4802 28.8916C35.5701 28.9296 35.5503 28.9909 35.4115 29.1049C35.0684 29.3867 33.3696 29.3182 31.6165 28.9518C30.793 28.7798 30.0971 28.6616 30.0699 28.6893C29.8944 28.8685 32.1757 29.6684 32.8736 29.6724C33.2527 29.6745 33.2201 29.8007 32.7302 30.2285L32.311 30.5945L32.655 30.5921C32.8442 30.5907 33.1794 30.5461 33.4 30.4929C33.7173 30.4164 33.8244 30.4277 33.9125 30.5465C33.9737 30.6292 34.1203 30.6968 34.2384 30.6968C34.5836 30.6968 34.4894 30.8385 33.9265 31.1654C33.4837 31.4227 33.395 31.5234 33.3686 31.8C33.3414 32.0847 33.2993 32.1289 33.0553 32.1289C32.9002 32.1289 32.5815 32.0598 32.3471 31.9754C31.7778 31.7706 31.646 31.7869 31.9289 32.0274C32.2738 32.3206 32.792 32.4345 33.7833 32.4351L34.6679 32.4357L34.6357 32.717C34.6053 32.9821 34.6236 32.9963 34.9544 32.9629C35.1474 32.9434 35.475 32.868 35.6825 32.7955C36.0787 32.6568 36.2601 32.7492 36.0644 32.9899C36.0035 33.0646 35.9807 33.1976 36.0137 33.2854C36.0544 33.3937 35.9757 33.4965 35.7677 33.6063C35.4117 33.794 35.245 34.0645 35.2803 34.3968C35.3026 34.607 35.2432 34.645 34.7286 34.7498C34.106 34.8766 33.6507 35.1233 33.6507 35.3338C33.6507 35.6159 33.9106 35.8023 34.3449 35.8321C34.5888 35.8488 34.8039 35.9111 34.8231 35.9705C34.8767 36.1372 34.2208 36.4116 33.4633 36.5391C32.8939 36.6351 32.6386 36.6256 31.9459 36.4824C31.2782 36.3444 31.0974 36.3361 31.034 36.4406C30.914 36.6387 30.3869 36.3439 29.5547 35.6133C29.1661 35.2722 28.8345 34.993 28.8176 34.993C28.8009 34.993 28.8027 36.2099 28.8218 37.6972L28.8565 40.4013L28.4403 40.5156C28.0217 40.6306 27.2876 40.5753 27.0237 40.4091C26.9096 40.3371 26.8819 39.9482 26.8819 38.4234C26.8819 37.3806 26.8666 36.5274 26.8481 36.5274C26.8295 36.5274 26.5362 36.8048 26.1962 37.1439C24.9372 38.3997 24.1986 38.6881 25.2861 37.4991C25.6464 37.1053 25.9888 36.6956 26.047 36.5886C26.1487 36.4021 26.1415 36.4024 25.8656 36.5961C25.2446 37.0322 23.6584 37.5457 23.412 37.3904C23.3388 37.3443 23.6117 37.1624 24.1103 36.9252C24.9927 36.5052 25.8289 35.962 25.8289 35.809C25.8289 35.751 25.735 35.7506 25.5875 35.8078C25.4549 35.8592 25.0825 35.9283 24.7602 35.9612C23.1737 36.1232 23.114 36.1178 23.191 35.8177C23.228 35.6731 23.162 35.6181 22.8891 35.5659C22.4232 35.4767 22.0082 35.2575 21.7269 34.9521C21.4404 34.641 21.5241 34.4816 21.9741 34.4816C22.4098 34.4816 22.408 34.3885 21.9669 34.097C21.3971 33.7204 21.5148 33.6434 22.5448 33.7188C24.1083 33.8332 25.5913 33.5112 26.2038 32.9244C26.5445 32.5978 26.4772 32.5097 26.0545 32.7292C25.3799 33.0798 24.6153 33.2543 23.78 33.2483C22.7546 33.241 22.2598 33.0804 22.2928 32.7657C22.3059 32.6409 22.2833 32.5483 22.2426 32.5596C22.202 32.5711 21.9736 32.5467 21.735 32.5056C21.199 32.4132 21.2218 32.2013 21.7754 32.128L22.1687 32.0759L21.6172 31.8072C20.967 31.4904 20.6394 31.2509 20.7299 31.1586C20.7658 31.122 21.0365 31.0728 21.3315 31.0492C22.5912 30.9483 23.2101 30.8723 23.8233 30.7435C25.4699 30.3973 25.792 30.2196 24.6822 30.2697C23.9056 30.3048 22.8619 30.0591 22.0935 29.6603C21.4922 29.3482 21.644 29.1632 22.5028 29.1615C23.6264 29.1594 24.5184 28.9184 23.7057 28.8365C23.217 28.7872 23.2612 28.5923 23.7945 28.4436C24.3423 28.2907 25.2901 27.8029 25.1391 27.7516C25.0838 27.7327 24.8667 27.7661 24.6566 27.8256C24.1235 27.9766 23.2775 27.9615 22.8843 27.7939C22.5292 27.6426 22.0902 27.1522 22.149 26.9725C22.1686 26.9124 22.3469 26.8773 22.5453 26.8948C22.8669 26.923 22.8998 26.9036 22.8514 26.7146C22.8013 26.5191 22.8402 26.5029 23.3603 26.5029C23.9369 26.5029 24.0416 26.4233 23.769 26.1924C23.483 25.9503 23.7793 25.8648 24.1358 26.0866C24.5974 26.3736 25.273 26.3659 25.7286 26.0685L26.0796 25.8394L25.732 25.805C25.5338 25.7853 25.2809 25.6649 25.1433 25.5246C24.9174 25.2941 24.914 25.2746 25.0898 25.2165C25.7006 25.0149 26.23 24.6302 26.23 24.3881C26.23 24.2027 26.0209 24.2178 25.4321 24.446C25.0022 24.6127 24.9164 24.6192 24.814 24.4933C24.7356 24.3969 24.5825 24.3654 24.3645 24.4007C24.1828 24.4302 24.0068 24.4095 23.9736 24.3547C23.91 24.2494 24.3079 24.0452 25.5027 23.5698C26.2795 23.2608 26.7211 22.9804 26.6099 22.867C26.5723 22.8286 26.1443 22.8716 25.6587 22.9624C24.6191 23.1571 23.6496 23.1744 23.1051 23.0079C22.6027 22.8544 22.6598 22.7023 23.2698 22.5687C23.7006 22.4744 23.7364 22.4467 23.5887 22.3221C23.4971 22.2448 23.4222 22.1479 23.4222 22.1066C23.4222 22.0653 23.8848 22.0044 24.4501 21.9712C25.4643 21.9118 26.23 21.7417 26.23 21.5758C26.23 21.5289 26.0435 21.4907 25.8155 21.4907C25.1626 21.4907 24.3247 21.2045 24.3247 20.9815C24.3247 20.9402 24.6082 20.8795 24.9548 20.8465C25.3012 20.8135 25.7186 20.7268 25.8824 20.6538C26.1697 20.5259 26.1575 20.5202 25.5281 20.4921C24.6478 20.4526 24.5528 20.4125 24.767 20.171C24.9281 19.9894 24.9186 19.9776 24.555 19.908C23.9989 19.8017 23.4985 19.5672 23.5713 19.447C23.6061 19.3895 23.8719 19.3426 24.1618 19.3426C24.6866 19.3426 25.7972 19.1698 25.9694 19.0614C26.0191 19.0301 25.9801 18.945 25.8827 18.8723C25.7193 18.7504 25.7303 18.7247 26.0251 18.5419C26.2009 18.4329 26.343 18.312 26.341 18.2732C26.339 18.2344 26.1009 18.0795 25.8118 17.9288C25.5228 17.778 25.2729 17.6087 25.2565 17.5525C25.2387 17.491 25.5133 17.4502 25.9453 17.4502C26.79 17.4502 26.9478 17.2851 26.3103 17.0683C25.7257 16.8696 25.7494 16.6533 26.3655 16.5634C26.6331 16.5244 27.0166 16.3769 27.2179 16.2359C27.6705 15.9184 27.7362 15.9147 28.1798 16.1817ZM26.444 19.5566C26.2235 19.7387 26.2211 19.7517 26.4072 19.7517C26.6238 19.7517 26.8917 19.4947 26.7609 19.4122C26.7166 19.3843 26.574 19.4492 26.444 19.5566ZM28.8373 22.4977C28.8373 22.8166 29.2076 23.1597 29.4733 23.087C29.5923 23.0545 29.7799 23.027 29.8902 23.0259C30.064 23.0243 30.051 22.9916 29.7928 22.7807C29.6288 22.647 29.4353 22.5607 29.3628 22.5891C29.2903 22.6175 29.1424 22.5589 29.0342 22.4589C28.8443 22.2837 28.8373 22.2852 28.8373 22.4977ZM30.2618 26.9807C30.9117 27.3531 32.6659 27.7014 32.4982 27.4247C32.4645 27.3691 32.2354 27.2032 31.989 27.0558C31.6325 26.8427 31.5116 26.8129 31.3968 26.91C31.3176 26.9771 31.1954 26.9957 31.1253 26.9515C31.0551 26.9074 30.7803 26.8661 30.5147 26.86C30.0705 26.8497 30.0502 26.8594 30.2618 26.9807ZM26.5058 28.1981C26.2114 28.361 26.1853 28.4206 26.3164 28.6316C26.3975 28.762 26.4648 28.6928 26.7696 28.1651C26.8609 28.0072 26.8477 28.0088 26.5058 28.1981ZM26.1799 31.2063C26.0144 31.2514 25.4857 31.3692 25.0049 31.4681C24.5242 31.567 24.1558 31.6891 24.1862 31.7395C24.2167 31.7898 24.1905 31.8938 24.1282 31.9705C23.962 32.1747 26.219 31.4271 26.4757 31.1929C26.583 31.095 26.5898 31.0947 26.1799 31.2063ZM29.4357 32.7897C29.6618 33.0676 30.9731 33.8951 31.8194 34.294C32.7327 34.7243 32.9088 34.7729 32.5847 34.5049C32.4671 34.4076 32.1625 34.0849 31.9078 33.7877C31.6531 33.4905 31.4446 33.3178 31.4446 33.4041C31.4446 33.6278 31.3486 33.6061 30.4724 33.1832C29.2746 32.6051 29.2905 32.6112 29.4357 32.7897ZM26.3805 34.1315C25.9257 34.5249 25.7815 34.5582 25.6384 34.3026C25.5477 34.1407 25.5064 34.1556 25.2072 34.4583L24.8763 34.7931L25.202 34.727C25.4094 34.6847 25.5845 34.7088 25.6846 34.7935C25.819 34.9074 25.9159 34.8507 26.357 34.4009C26.9536 33.7923 26.9683 33.623 26.3805 34.1315ZM29.8401 34.3674C29.8401 34.5347 30.641 35.1976 30.8432 35.1976C31.202 35.1976 31.0794 35.0412 30.3184 34.5288C29.9109 34.2545 29.8401 34.2305 29.8401 34.3674Z" fill="#37615D"/>
</svg>
