<!-- by TradingView --><svg width="56" height="56" viewBox="0 0 56 56" xmlns="http://www.w3.org/2000/svg"><path fill="#0F4D48" d="M0 0h56v56H0z"/><path d="m7.94 32.39-.43.53c-.23-.16-.49-.3-.76-.3-.47 0-.96.38-.96.88s.5.9.96.9c.3 0 .57-.17.84-.37l.41.53c-.34.3-.76.44-1.25.44C5.9 35 5 34.44 5 33.5c0-.95.9-1.5 1.77-1.5.47 0 .86.13 1.17.39ZM10.87 32 12 35h-.76l-.17-.49H9.93l-.17.49H9l1.14-3h.73Zm-.37.84-.36 1.06h.72l-.36-1.06ZM16 32v3h-.84l-1.44-1.73V35H13v-3h.85l1.4 1.72V32H16ZM20 32v3h-.84l-1.33-1.73V35H17v-3h.85l1.32 1.72V32H20ZM22.87 32 24 35h-.76l-.17-.49h-1.14l-.17.49H21l1.14-3h.73Zm-.37.84-.36 1.06h.72l-.36-1.06ZM27 33v1h-2v-1h2ZM32.72 32v2.34H34V35h-2v-3h.72ZM43.88 32.81c0 .28-.16.5-.49.64.4.14.61.38.61.71 0 .27-.12.48-.37.62-.24.15-.53.22-.86.22H41v-3h1.7c.32 0 .6.07.83.21.23.15.35.35.35.6Zm-1.3.93h-.8v.65h.8c.14 0 .25-.03.34-.08a.28.28 0 0 0 .13-.25c0-.1-.04-.19-.13-.24a.63.63 0 0 0-.33-.08Zm-.06-1.13h-.74v.62h.74c.13 0 .24-.03.32-.08a.26.26 0 0 0 .12-.24c0-.1-.04-.18-.12-.23a.62.62 0 0 0-.32-.07ZM46.87 32 48 35h-.76l-.17-.49h-1.14l-.17.49H45l1.14-3h.73Zm-.37.84-.36 1.06h.72l-.36-1.06ZM49.72 32v2.34H51V35h-2v-3h.72ZM30.4 32.92l.4-.53c-.3-.26-.67-.39-1.12-.39-.47 0-.87.14-1.2.42-.32.28-.48.64-.48 1.08 0 .43.16.78.48 1.07.31.29.7.43 1.17.43.56 0 1-.2 1.35-.6v-1.12h-.72V34.18c-.2.11-.4.17-.6.17a.83.83 0 0 1-.62-.25.84.84 0 0 1-.24-.6.8.8 0 0 1 .23-.59.83.83 0 0 1 .62-.23c.26 0 .5.08.72.24Z" fill="#FAFFFF"/><path d="M17.5 13h1v3.3l2.5 1.44v2.88l4.46 3 2.04-1.14V20h1v2.44l2.5 1.47v2.64l2 1.43L36 26l2.5 1.99 2.5-1.99 3 2.25-.4.76-2.6-2-2.5 1.99L36 27l-3 1.98-2.21-1.56L28 29l-2.6-1.47-1.52.83-.37-.74 1.49-.8v-2.5l-4.39-2.97-2.11 1.17v2.35l2.26 1.41-.42.7-2.4-1.42-2.54 1.41-.4-.7 2.5-1.41V22.6l-2.5-1.5v-3.37l2.5-1.45V13ZM16 18.21v2.43l2 1.2 2-1.2v-2.43l-2-1.2-2 1.2Zm10 6.17v2.43l2 1.2 2-1.2v-2.43l-2-1.2-2 1.2Z" fill="url(#atg0rnhsr)"/><circle cx="37" cy="33" r="2" fill="url(#btg0rnhsr)"/><path d="M36.64 34.28c.32.04.58.46.68.7a2 2 0 0 0 1.18-.65l.17-.29a3 3 0 0 0 .21-.38c.05-.12.05-.27.05-.43 0-.16 0-.32.06-.47a2 2 0 0 0-1.42-1.68c-.35.21-.72.46-.81.61l-.14.2c-.09.13-.13.2-.12.32.01.1-.05.18-.12.27-.06.08-.12.16-.13.25 0 .09-.1.2-.2.34-.13.18-.28.4-.3.6-.05.34.46.55.89.61Zm.3-1.79c.05-.03.5-.11.88 0a4.43 4.43 0 0 0 .51.15c.22.07.33.19.43.47.07.22.06.4.05.46a2.51 2.51 0 0 0-.99-.52l-.07-.01c-.5-.11-.91-.2-.81-.55Z" fill="url(#ctg0rnhsr)"/><defs><linearGradient id="atg0rnhsr" x1="29.5" y1="13" x2="29.5" y2="29" gradientUnits="userSpaceOnUse"><stop stop-color="#D5E6B4"/><stop offset="1" stop-color="#3D7972"/></linearGradient><linearGradient id="btg0rnhsr" x1="37" y1="31" x2="37" y2="35" gradientUnits="userSpaceOnUse"><stop offset=".22" stop-color="#92E3FA"/><stop offset="1" stop-color="#08419F"/></linearGradient><linearGradient id="ctg0rnhsr" x1="37.36" y1="31.08" x2="37.36" y2="34.97" gradientUnits="userSpaceOnUse"><stop stop-color="#DAFA6B"/><stop offset="1" stop-color="#85AF27"/></linearGradient></defs></svg>