<!-- by TradingView --><svg width="56" height="56" viewBox="0 0 56 56" xmlns="http://www.w3.org/2000/svg"><path fill="#F0F3FA" d="M0 0h56v56H0z"/><path fill-rule="evenodd" d="M29.56 10.64a2.2 2.2 0 0 0-3.12 0l-5.8 5.8a2.2 2.2 0 0 0 0 3.12l5.8 5.8a2.2 2.2 0 0 0 3.12 0l5.8-5.8a2.2 2.2 0 0 0 0-3.12l-5.8-5.8Zm0 3.43a2.2 2.2 0 0 0-3.12 0l-2.37 2.37a2.2 2.2 0 0 0 0 3.12l2.37 2.37a2.2 2.2 0 0 0 3.12 0l2.37-2.37a2.2 2.2 0 0 0 0-3.12l-2.37-2.37ZM29.56 30.64a2.2 2.2 0 0 0-3.12 0l-5.8 5.8a2.2 2.2 0 0 0 0 3.12l5.8 5.8a2.2 2.2 0 0 0 3.12 0l5.8-5.8a2.2 2.2 0 0 0 0-3.12l-5.8-5.8Zm0 3.43a2.2 2.2 0 0 0-3.12 0l-2.37 2.37a2.2 2.2 0 0 0 0 3.12l2.37 2.37a2.2 2.2 0 0 0 3.12 0l2.37-2.37a2.2 2.2 0 0 0 0-3.12l-2.37-2.37ZM19.56 20.64a2.2 2.2 0 0 0-3.12 0l-5.8 5.8a2.2 2.2 0 0 0 0 3.12l5.8 5.8a2.2 2.2 0 0 0 3.12 0l5.8-5.8a2.2 2.2 0 0 0 0-3.12l-5.8-5.8Zm0 3.43a2.2 2.2 0 0 0-3.12 0l-2.37 2.37a2.2 2.2 0 0 0 0 3.12l2.37 2.37a2.2 2.2 0 0 0 3.12 0l2.37-2.37a2.2 2.2 0 0 0 0-3.12l-2.37-2.37Z" fill="#395676"/><path fill-rule="evenodd" d="M39.56 20.64a2.2 2.2 0 0 0-3.12 0l-5.8 5.8a2.2 2.2 0 0 0 0 3.12l5.8 5.8a2.2 2.2 0 0 0 3.12 0l5.8-5.8a2.2 2.2 0 0 0 0-3.12l-5.8-5.8Zm0 3.43a2.2 2.2 0 0 0-3.12 0l-2.37 2.37a2.2 2.2 0 0 0 0 3.12l2.37 2.37a2.2 2.2 0 0 0 3.12 0l2.37-2.37a2.2 2.2 0 0 0 0-3.12l-2.37-2.37Z" fill="#179CD7"/><path d="m23.98 20.22 1.64 1.64-3.28 3.28-1.65-1.64 3.29-3.28ZM25.54 34.06 23.9 35.7l-3.29-3.28 1.65-1.64 3.28 3.28Z" fill="#395676"/></svg>