<!-- by TradingView --><svg width="56" height="56" viewBox="0 0 56 56" fill="none" xmlns="http://www.w3.org/2000/svg">
<rect width="56" height="56" fill="#F0F3FA"/>
<path d="M28.2209 11C15.6587 11 11.506 21.4969 11 26.7454C11.8065 22.8559 15.4879 15.0769 23.7615 15.0769C32.6044 15.0769 34.8784 21.5126 34.91 24.7304C34.91 33.8027 27.1614 35.446 23.2871 35.1336C23.8564 36.68 26.3233 39.7729 31.6366 39.7729C41.0868 39.7729 43.7656 31.4628 43.9237 27.3078C44.1288 21.9206 40.7832 11 28.2209 11Z" fill="#0154A3"/>
<path d="M27.7791 44.9999C40.3413 44.9999 44.4939 34.503 45 29.2545C44.1935 33.144 40.5121 40.923 32.2385 40.923C23.3956 40.923 21.1216 34.4874 21.09 31.2696C21.09 22.1972 28.8386 20.5539 32.7129 20.8663C32.1436 19.3199 29.6767 16.2271 24.3634 16.2271C14.9132 16.2271 12.2344 24.5371 12.0762 28.6922C11.8284 35.2051 15.2168 44.9999 27.7791 44.9999Z" fill="#8B8C91"/>
</svg>
