<!-- by TradingView --><svg width="56" height="56" viewBox="0 0 56 56" xmlns="http://www.w3.org/2000/svg"><path fill="#F0F3FA" d="M0 0h56v56H0z"/><path d="m17.57 11 10.39 10.39L38.34 11c1.19 1.71.1 4.99-1.3 6.4l-9.08 9.08-9.09-9.08c-1.4-1.41-2.28-4.6-1.3-6.4Zm20.86 34L28.05 34.61 17.65 45c-1.17-1.71-.1-4.99 1.31-6.4l9.09-9.08 9.08 9.08c1.4 1.41 2.28 4.6 1.3 6.4Z" fill="#057398"/><path d="M21.39 28.04 11 38.44c1.8.97 4.99.1 6.4-1.31l9.08-9.09-9.08-9.08c-1.41-1.4-4.69-2.48-6.4-1.3l10.39 10.38Z" fill="#099EC9"/><path d="M34.61 27.96 45 17.56c-1.8-.97-4.99-.1-6.4 1.31l-9.08 9.09 9.08 9.08c1.41 1.4 4.69 2.48 6.4 1.3L34.61 27.96Z" fill="#F1592A"/></svg>