<!-- by TradingView --><svg width="56" height="56" viewBox="0 0 56 56" xmlns="http://www.w3.org/2000/svg"><path fill="#F0F3FA" d="M0 0h56v56H0z"/><path d="M51.85 26h-2c-.29 0-.44.13-.46.28L48.75 31h-2.7l.63-4.72c.02-.15-.11-.28-.4-.28h-2l.13-1H52l-.15 1Z" fill="#008BD2"/><path d="M44.37 31H41.1a4.7 4.7 0 0 1-2.93-.88c-.77-.6-1.1-1.3-.99-2.12.11-.82.63-1.53 1.56-2.12.96-.6 2.06-.9 3.18-.88h3.25l-.14 1h-3.26c-.25-.01-.5.1-.72.23-.22.14-.4.33-.52.56-.17.39-.28.8-.32 1.21-.07.4-.07.8 0 1.2.13.5.48.8 1.04.8h3.25l-.14 1ZM32.02 29.96c-.04.3-.23.54-.59.74-.36.2-.76.3-1.17.3-.53 0-.9-.11-1.13-.34L26.44 28l-.22 1.46L24.3 31l.67-4.96c.04-.3.24-.54.6-.74.35-.2.75-.3 1.16-.3.53 0 .9.11 1.13.34L30.55 28l.26-1.93c.15-1.11.26-1.07 1.34-1.07h.54l-.67 4.96Z" fill="#008BD2"/><path d="M26.15 29.96c-.04.29-.23.54-.59.74-.36.2-.76.3-1.17.3-.53 0-.9-.11-1.13-.34L20.57 28l-.4 3h-1.74l.67-4.95c.04-.3.24-.54.6-.74.35-.2.75-.3 1.16-.3.53 0 .9.11 1.13.34L24.68 28l.2-1.34L26.83 25l-.68 4.96Z" fill="#008AD2"/><path d="M15.41 28.01v-.03c.08-.4.08-.8 0-1.2-.12-.48-.47-.73-1.03-.73a1.35 1.35 0 0 0-1.24.73c-.18.38-.3.79-.33 1.2v.03c-.08.4-.08.81 0 1.21.13.49.47.73 1.04.73a1.34 1.34 0 0 0 1.23-.73c.18-.38.29-.79.33-1.2Zm3.05-.01c-.11.82-.63 1.53-1.57 2.12-.96.6-2.06.9-3.18.88a4.7 4.7 0 0 1-2.93-.88c-.77-.6-1.1-1.3-.99-2.12.11-.82.63-1.53 1.56-2.12.96-.6 2.06-.9 3.17-.88 1.2 0 2.17.3 2.95.88.77.59 1.1 1.3.99 2.12Z" fill="#008BD2"/><path d="M11.28 31H7.94a4.7 4.7 0 0 1-2.93-.88c-.77-.6-1.1-1.3-.99-2.12.1-.82.63-1.53 1.56-2.12A5.8 5.8 0 0 1 8.76 25h3.33c-.45.16-.9.37-1.3.64-.19.12-.37.21-.54.36H8.62c-.25-.01-.5.1-.72.23-.22.13-.4.33-.52.56-.18.38-.29.79-.33 1.21-.07.4-.07.8 0 1.2.13.5.48.8 1.04.8h1.63c.13.15.28.24.43.36.35.27.73.48 1.13.64Z" fill="#008AD2"/><path d="M35.34 25h1.33c.73 0 .57 1.41-.27 1.41h-1.26l.2-1.4Zm-.41 1.41H31.7l.26-1.4h3.15l-.18 1.4Z" fill="#008BD2"/><path d="M35.16 27.28h1.26c.73 0 .57 1.41-.27 1.41h-1.3l.19-1.4h.12ZM34.6 28.7h-1.26c-.74 0-.58-1.42.26-1.42h1.2l-.18 1.41h-.03Z" fill="#86C129"/><path d="M34.83 29.54h1.25c.73 0 .57 1.4-.27 1.4h-1.28l.19-1.4h.1ZM34.26 30.95h-1.25c-.74 0-.58-1.4.26-1.4h1.22l-.19 1.4h-.04Z" fill="#F08300"/></svg>