<!-- by TradingView --><svg xmlns="http://www.w3.org/2000/svg" width="56" height="56"><path fill="#F0F3FA" d="M0 0h56v56H0z"/><path fill-rule="evenodd" d="M31.5 24H30v1.5h-1V27h1v3.23c.06 1.47 1.18 1.78 1.94 1.77.62-.01.96-.19 1.06-.27v-1.35c-1.09.72-1.45.03-1.5-.4V27H33v-1.5h-1.5V24zm-6.05 1c-.78 0-1.48.35-1.95.9V25H22v7h1.5v-4.07a1.5 1.5 0 013 .07v4H28v-4.45A2.55 2.55 0 0025.45 25zm-11.31 5.84A3.52 3.52 0 018 28.5a3.51 3.51 0 016.2-2.28l-1.12 1.03c-.36-.5-.92-.82-1.56-.82-1.08 0-1.96.93-1.96 2.07 0 1.14.88 2.07 1.96 2.07.64 0 1.2-.32 1.56-.82l1.06 1.09zm3.7 1.16a3.5 3.5 0 100-7 3.5 3.5 0 000 7zm0-1.43c1.07 0 1.94-.93 1.94-2.07 0-1.14-.87-2.07-1.94-2.07-1.08 0-1.95.93-1.95 2.07 0 1.14.87 2.07 1.95 2.07zM49 24h1.5v1.5H52V27h-1.5v2.98c.05.43.41 1.12 1.5.4v1.35c-.1.08-.44.26-1.06.27-.76.01-1.88-.3-1.94-1.77V27h-1v-1.5h1V24zm-8.37 5a3.5 3.5 0 10-.48 1.33l-1.1-.82c-.05.16-.19.34-.52.62-.35.3-.83.46-1.33.46-.5 0-.97-.17-1.33-.46-.35-.3-.54-.71-.54-1.13h5.3zm-2.28-2.13c.33.28.52.6.52 1h-3.54c0-.4.18-.72.51-1 .34-.27.79-.43 1.26-.43s.92.16 1.25.43zM42.52 25h-1.86l2.58 3.5-2.58 3.5h1.86l1.64-2.24L45.81 32h1.85l-2.57-3.5 2.57-3.5h-1.85l-1.65 2.24L42.52 25z" fill="#0E55E4"/><path d="M12.12 22a.5.5 0 100-1 .5.5 0 000 1zm2.49-.28a.5.5 0 11-1 0 .5.5 0 011 0zm1.81.87a.5.5 0 11-1 0 .5.5 0 011 0zm-5.73-.88a.5.5 0 11-1 0 .5.5 0 011 0zm-2.27 1.22a.5.5 0 100-1 .5.5 0 000 1zm-1.05.5a.5.5 0 11-1 0 .5.5 0 011 0zM5.64 25.4a.5.5 0 100-1 .5.5 0 000 1zm-.29 1.26a.5.5 0 11-1 0 .5.5 0 011 0zm-.85 2.33a.5.5 0 100-1 .5.5 0 000 1zm.76 1.33a.5.5 0 11-1 0 .5.5 0 011 0zm.24 2.16a.5.5 0 100-1 .5.5 0 000 1zm1.81 1.04a.5.5 0 11-1 0 .5.5 0 011 0zm1.11 1.55a.5.5 0 100-1 .5.5 0 000 1zm2.25.2a.5.5 0 11-1 0 .5.5 0 011 0zm1.39.73a.5.5 0 100-1 .5.5 0 000 1zm2.54-.82a.5.5 0 11-1 0 .5.5 0 011 0zm1.32-.28a.5.5 0 100-1 .5.5 0 000 1z" fill="#EB8A39"/></svg>