<!-- by TradingView --><svg xmlns="http://www.w3.org/2000/svg" width="56" height="56"><path fill="url(#aftuclgmu)" d="M0 0h56v56H0z"/><path d="M7.02 29.61c.26-2.05 7.56-1.83 15.76.55 5.47 1.59 5.1 2.84 5.08 2.94-.02.1-.14.22-.43.14-9.75-2.88-9.06 1.04-17.47-1.06-1.31-.43-3.14-.96-2.94-2.57z" fill="#DF7A1B"/><path d="M28.03 31.5s-.63-5.02-4.84-11.12c-4.44-6.43-6.46-2.33-4.37.54 1.83 2.53 4.61 4.9 6.32 7.55.86 1.33 2.93 4.58 2.89 3.03zm1.71 2.48c.6-.18 4.56-.52 6.59.83a77.66 77.66 0 015.98 4.33c1.04.89 2.45-.2 1.2-2.53-1.26-2.32-6.02-5.41-10.42-4.46-1.87.41-2.88.63-3.83 1.26-.86.59-.12.74.48.57z" fill="#E31A21"/><path d="M40 26.83c-2.73-1.27-8.38.97-10.7 4.72-.47.84 2.1 1.47 5.94-1.17 3.85-2.65 6.37-2.8 4.76-3.55zm-11.38 7.6c-.39-1.1-2.14-1.12-4.3 1.13-2.15 2.24-2.41 5.48-1.9 6.32.49.85 2.16-3.15 3.58-4.39 1.43-1.25 3-2 2.62-3.06z" fill="#F3776E"/><path d="M28.58 30.96s-.02-.23-.01-.3c.2-.98 1.47-7.08 4.61-11.24 2.94-3.85 5.1-6.54 7.77-4.96 1.72 1.04-.89 4.98-4.93 7.77-6.03 4.16-7.01 10.7-7.44 8.73zm3.47 3.92c.93 1.2.82 2.5.96 3.44.3 2.04 3.38 1.92 2.98-.95-.32-2.36-3.43-6.05-6.57-4.06-1.02.62-.42.84.24.68 0 0 1.32-.5 2.39.89z" fill="#FCB914"/><defs><linearGradient id="aftuclgmu" x1="10.42" y1="9.71" x2="68.15" y2="76.02" gradientUnits="userSpaceOnUse"><stop stop-color="#1A1E21"/><stop offset="1" stop-color="#06060A"/></linearGradient></defs></svg>