<!-- by TradingView --><svg xmlns="http://www.w3.org/2000/svg" width="56" height="56"><path fill="#A9F4F7" d="M0 0h56v56H0z"/><circle cx="16.42" cy="23.42" r=".34"/><circle cx="15.69" cy="24.15" r=".34"/><circle cx="14.99" cy="24.86" r=".34"/><circle cx="14.22" cy="24.24" r=".34"/><circle cx="14.79" cy="23.39" r=".34"/><circle cx="15.35" cy="22.56" r=".34"/><circle cx="14.13" cy="21.88" r=".34"/><circle cx="13.74" cy="22.83" r=".34"/><circle cx="13.35" cy="23.76" r=".34"/><circle cx="12.4" cy="23.47" r=".34"/><circle cx="12.6" cy="22.49" r=".34"/><circle cx="12.79" cy="21.5" r=".34"/><circle cx="11.41" cy="21.36" r=".34"/><circle cx="11.41" cy="22.38" r=".34"/><circle cx="11.41" cy="23.39" r=".34"/><circle cx="10.42" cy="23.47" r=".34"/><circle cx="10.23" cy="22.49" r=".34"/><circle cx="10.03" cy="21.5" r=".34"/><circle cx="8.69" cy="21.88" r=".34"/><circle cx="9.11" cy="22.83" r=".34"/><circle cx="9.48" cy="23.76" r=".34"/><circle cx="8.6" cy="24.24" r=".34"/><circle cx="8.03" cy="23.39" r=".34"/><circle cx="7.49" cy="22.56" r=".34"/><circle cx="6.4" cy="23.42" r=".34"/><circle cx="7.13" cy="24.15" r=".34"/><circle cx="7.84" cy="24.86" r=".34"/><circle cx="7.22" cy="25.62" r=".34"/><circle cx="6.38" cy="25.07" r=".34"/><circle cx="5.53" cy="24.52" r=".34"/><circle cx="4.88" cy="25.73" r=".34"/><circle cx="5.81" cy="26.12" r=".34"/><circle cx="6.75" cy="26.51" r=".34"/><circle cx="6.46" cy="27.46" r=".34"/><circle cx="5.47" cy="27.26" r=".34"/><circle cx="4.48" cy="27.06" r=".34"/><circle cx="4.34" cy="28.46" r=".34"/><circle cx="5.34" cy="28.46" r=".34"/><circle cx="6.37" cy="28.46" r=".34"/><circle cx="6.46" cy="29.43" r=".34"/><circle cx="6.75" cy="30.39" r=".34"/><circle cx="7.23" cy="31.25" r=".34"/><circle cx="6.37" cy="31.83" r=".34"/><circle cx="5.53" cy="32.39" r=".34"/><circle cx="6.41" cy="33.47" r=".34"/><circle cx="7.13" cy="32.74" r=".34"/><circle cx="7.85" cy="32.02" r=".34"/><circle cx="8.61" cy="32.65" r=".34"/><circle cx="8.04" cy="33.49" r=".34"/><circle cx="7.48" cy="34.33" r=".34"/><circle cx="8.71" cy="35" r=".34"/><circle cx="10.04" cy="35.38" r=".34"/><circle cx="10.23" cy="34.4" r=".34"/><circle cx="10.43" cy="33.42" r=".34"/><circle cx="11.42" cy="33.49" r=".34"/><circle cx="11.42" cy="34.52" r=".34"/><circle cx="11.42" cy="35.55" r=".34"/><circle cx="12.79" cy="35.38" r=".34"/><circle cx="12.6" cy="34.4" r=".34"/><circle cx="12.4" cy="33.41" r=".34"/><circle cx="13.34" cy="33.11" r=".34"/><circle cx="13.73" cy="34.06" r=".34"/><circle cx="14.12" cy="34.99" r=".34"/><circle cx="15.35" cy="34.34" r=".34"/><circle cx="14.78" cy="33.49" r=".34"/><circle cx="14.23" cy="32.66" r=".34"/><circle cx="14.98" cy="32.02" r=".34"/><circle cx="15.7" cy="32.75" r=".34"/><circle cx="16.41" cy="33.45" r=".34"/><circle cx="9.09" cy="34.06" r=".34"/><circle cx="9.48" cy="33.12" r=".34"/><circle cx="5.81" cy="30.77" r=".34"/><circle cx="4.88" cy="31.16" r=".34"/><circle cx="5.47" cy="29.63" r=".34"/><circle cx="4.48" cy="29.84" r=".34"/><path d="M13.4 30.12a2.5 2.5 0 11-.1-3.35l-.63.79a1.5 1.5 0 10.02 1.86l.72.7zM16 26h1v5h-1zm9 0v5h4v-1h-3v-1h3v-1h-3v-1h3v-1h-4zm12 0h1v5h-1z"/><path fill-rule="evenodd" d="M44.43 30.1a2.5 2.5 0 11-.14-3.35l-.64.79a1.5 1.5 0 00-2.65.96 1.5 1.5 0 002.38 1.21v-1.29h1.06v1.67h-.01zM19 26h1l2 3.1V26h1v5h-1l-2-3.21V31h-1v-5zm13 0h-1v5h2.04c.7 0 1.96-.75 1.96-2.58 0-1.76-1.36-2.42-1.96-2.42H32zm0 1v3h.92c.38 0 1.08-.33 1.08-1.57 0-1.01-.64-1.43-.96-1.43H32zm14-1h1l1.55 2.11L50 26h1v5h-1v-3.1L48.55 30 47 27.8V31h-1v-5z"/></svg>