<!-- by TradingView --><svg width="56" height="56" viewBox="0 0 56 56" xmlns="http://www.w3.org/2000/svg"><path fill="#F0F3FA" d="M0 0h56v56H0z"/><path d="M39 25a20.78 20.78 0 0 0-27 0c4.79-2.54 9.44-4.01 13.5-4 7.5.03 12.98 3.6 13.5 4Z" fill="#0076BE"/><path d="M8 25c1.5 0 2.67.65 3 2h-.96c-.38-.75-.97-1-2-1C6.36 26 6 27.4 6 28.59 6 29.77 6.5 31 8.15 31c1.23 0 1.7-.73 1.9-1.62H11A2.88 2.88 0 0 1 8.03 32C5.76 32 5 30.03 5 28.43 5 27 5.78 25 8 25ZM14 31c.82 0 1-.68 1-1.5 0-1.13-.24-1.5-1-1.5-.75 0-1 .76-1 1.57 0 .8.3 1.43 1 1.43Zm.02-4c1.33 0 1.98 1.18 1.98 2.38 0 1.31-.6 2.62-2.07 2.62C12.6 32 12 30.77 12 29.59c0-1.25.61-2.59 2.02-2.59ZM44 31c.83 0 1-.68 1-1.5 0-1.13-.24-1.5-1-1.5-.75 0-1 .76-1 1.57 0 .8.3 1.43 1 1.43Zm.02-4c1.33 0 1.98 1.18 1.98 2.38 0 1.31-.6 2.62-2.07 2.62C42.6 32 42 30.77 42 29.59c0-1.25.61-2.59 2.02-2.59ZM17 27h1v.8c.46-.57.75-.8 1.39-.8 1.16 0 1.61.81 1.61 1.86V32h-1v-2.82c0-.8-.15-1.18-.77-1.18-1.03 0-1.23.81-1.23 1.7V32h-1v-5ZM22 27h1v.8c.46-.57.75-.8 1.39-.8 1.16 0 1.61.81 1.61 1.86V32h-1v-2.82c0-.8-.15-1.18-.77-1.18-1.03 0-1.23.81-1.23 1.7V32h-1v-5ZM47 27h1v.8c.46-.57.75-.8 1.39-.8 1.16 0 1.61.81 1.61 1.86V32h-1v-2.82c0-.8-.15-1.18-.77-1.18-1.03 0-1.23.81-1.23 1.7V32h-1v-5ZM29.07 27c1.48 0 1.93 1 1.93 3h-3c0 .5.5 1 1.02 1 .51 0 .83-.09.98-.65h1c-.11 1-1.09 1.65-2.05 1.65-1.32 0-1.95-1.27-1.95-2.44C27 28 27.68 27 29.07 27Zm.93 2c-.06-.7-.36-1-1-1s-.98.34-1 1h2ZM34.12 27c1.1 0 1.8.82 1.88 2.01h-1c-.1-.6-.29-1-.93-1-.63 0-1.08.59-1.08 1.5s.5 1.5 1.08 1.5c.66 0 .76-.34.93-1h1c-.08 1.17-.85 1.99-1.99 1.99-1.3 0-2.01-1.3-2.01-2.5 0-1.27.67-2.5 2.12-2.5ZM37 26h1v1h1v1h-1v2.64c0 .28.18.36.43.36H39v.93c-.5.07-.6.07-.86.07-.72 0-1.14-.27-1.14-1v-3h-1v-1h1v-1ZM40 26h1v1h-1v-1ZM41 28h-1v4h1v-4Z" fill="#4D4D4F"/></svg>