<!-- by TradingView --><svg width="56" height="56" viewBox="0 0 56 56" xmlns="http://www.w3.org/2000/svg"><path fill="#002173" d="M0 0h56v56H0z"/><path d="M43.38 23.68c.27.1.53.06.72-.14a.13.13 0 0 1 .17-.02l.1.08c.06.04.06.08.01.12-.25.22-.53.3-.83.27-.63-.06-.98-.54-.91-1.13a.92.92 0 0 1 .57-.78c.37-.13.77-.1 1.1.12.08.06.08.12 0 .18l-.04.03c-.08.06-.16.06-.24-.01a.53.53 0 0 0-.46-.14.76.76 0 0 0-.6 1c.08.2.21.35.41.42ZM29.34 22.61c-.02-.03-.03-.02-.03.01v1.3c0 .04-.01.06-.05.07h-.18c-.05 0-.08-.01-.08-.06v-1.84c0-.01 0-.03.02-.04a.07.07 0 0 1 .04-.03c.12-.02.36-.06.43.1l.55 1.27c.02.06.05.06.07 0l.39-.9a2.8 2.8 0 0 0 .17-.43l.03-.02c.11-.04.23-.05.38-.03l.04.03c.02.01.02.03.02.05v1.81c0 .03 0 .05-.02.06a.09.09 0 0 1-.06.03h-.14c-.05.01-.08-.01-.08-.07v-1.4h-.05l-.01.01c-.15.47-.37.92-.55 1.36-.03.07-.08.1-.15.1-.1.02-.15-.06-.18-.13-.12-.32-.26-.64-.4-.95-.05-.1-.08-.21-.16-.3ZM33.57 23.77l.99-.01.04.01.01.04v.13a.05.05 0 0 1-.05.06H33.3c-.01 0-.03 0-.04-.02a.05.05 0 0 1-.01-.04v-1.89l.01-.03a.06.06 0 0 1 .04-.02h1.22l.03.02.02.04v.12a.05.05 0 0 1-.01.04l-.02.01h-.02l-.94.01a.06.06 0 0 0-.04.02.05.05 0 0 0-.02.04v.49l.02.04.04.01h.88a.06.06 0 0 1 .04.02l.01.02V23.05c0 .01 0 .03-.02.04a.06.06 0 0 1-.04.01h-.87a.05.05 0 0 0-.06.06v.55a.05.05 0 0 0 .02.04.06.06 0 0 0 .04.02ZM40.54 22h-.17a.06.06 0 0 0-.06.06v1.88c0 .03.02.06.06.06h.17c.04 0 .06-.03.06-.06v-1.88a.06.06 0 0 0-.06-.06ZM51 23.83v.1a.05.05 0 0 1-.03.06h-.02l-1.1.01a.05.05 0 0 1-.05-.05v-1.9l.02-.03.04-.02h.16l.02.01.01.02v.02l.02 1.67.01.04.04.01h.83l.03.02.02.04ZM6.66 28.6c-.04 0-.06.02-.06.06v3.74l.01.03.04.02h7.29l.02.02.04.02v1.42c0 .06-.05.09-.11.09h-8.7l-.14-.01c-.02 0-.03 0-.04-.02L5 33.94v-11.9c0-.03.01-.04.04-.04h8.9c.01 0 .03 0 .04.02l.02.04v1.4c0 .05-.03.08-.08.08H6.64a.04.04 0 0 0-.03 0 .04.04 0 0 0 0 .03V27h6.84l.03.03.02.03v1.5l-.02.03-.03.01h-6.8Z" fill="#fff"/><path fill-rule="evenodd" d="m36.5 22.04-.01.03v1.86c0 .02 0 .04.02.05l.05.02h.74a1.05 1.05 0 0 0 .72-.29.97.97 0 0 0 .3-.69v-.05c0-.26-.12-.5-.3-.69-.2-.18-.46-.28-.72-.28h-.74a.08.08 0 0 0-.05.02l-.02.02Zm.32.25a.05.05 0 0 0-.02.04v1.35s0 .02.02.03l.03.02h.34c.2 0 .4-.08.55-.2.15-.13.23-.3.23-.49v-.08a.64.64 0 0 0-.23-.48.85.85 0 0 0-.55-.2h-.34l-.03.01ZM46.41 23.91l.16-.37a.05.05 0 0 1 .05-.03h.85a.1.1 0 0 1 .09.06l.15.34c.03.06.08.1.15.09h.13c.07 0 .1-.04.07-.1l-.8-1.82c-.04-.09-.15-.08-.23-.08h-.01c-.07 0-.11.04-.14.1l-.82 1.8c-.03.07 0 .1.06.1h.15c.07 0 .12-.03.14-.09Zm.62-1.45-.32.74v.02a.03.03 0 0 0 .02.02h.65a.04.04 0 0 0 .03-.01.03.03 0 0 0 0-.03l-.32-.74-.01-.02h-.04l-.01.02Z" fill="#fff"/><path d="M16.56 27.62v6.31c0 .04-.03.07-.07.07h-1.43c-.02 0-.03 0-.04-.02a79841.23 79841.23 0 0 1 0-8.96.06.06 0 0 1 .04-.02h1.84a.04.04 0 0 1 .03.02l4.46 6.3c.07.1.1.1.1-.03v-6.25a.04.04 0 0 1 .05-.04h1.37c.02 0 .05.01.06.03.02.01.03.03.03.06v8.84c0 .02 0 .04-.02.05a.07.07 0 0 1-.05.02H21.2a.11.11 0 0 1-.1-.05l-4.47-6.34-.01-.01h-.02a.04.04 0 0 0-.04.02ZM28.26 31.35l.03-.07a1253.98 1253.98 0 0 1 2.37-6.26.1.1 0 0 1 .06-.02h1.7a.03.03 0 0 1 .03.01.03.03 0 0 1 0 .03l-3.5 8.85c-.03.05-.06.1-.12.1L27.5 34h-.02l-.01-.02L24 25.05v-.03a.04.04 0 0 1 .04-.02h1.75a.11.11 0 0 1 .1.07l2.28 6.28c.03.08.06.08.1 0ZM46.8 28.48A2075.05 2075.05 0 0 0 49.06 25h1.92c.01.01.02.08 0 .1l-3.37 5.05a.13.13 0 0 0-.02.07v3.7a.07.07 0 0 1-.02.06.07.07 0 0 1-.05.02h-1.43c-.04 0-.07-.02-.07-.06l-.01-.12v-3.15c0-.2 0-.35-.03-.44a.84.84 0 0 0-.12-.24 1771.96 1771.96 0 0 1-3.25-4.97.03.03 0 0 1 .03-.02h1.98a.06.06 0 0 1 .05.03l2.13 3.44v.01h.01Z" fill="#fff"/><path fill-rule="evenodd" d="M37.13 25.03c-1.08 0-2.38.58-3.2 1.67a4.71 4.71 0 0 0-.76 4.05 4.37 4.37 0 0 0 4.6 3.24 4.4 4.4 0 0 0 4.16-3.65 4.7 4.7 0 0 0-1.02-3.85c-.88-1-2-1.46-3.13-1.47-.2-.03-.45-.02-.65 0Zm-2.1 6c.27.5.65.88 1.14 1.14.25.13.49.23.77.28.32.05.64.06.94.03.94-.11 1.73-.7 2.14-1.53.22-.46.33-.96.34-1.5 0-.24-.06-.53-.12-.77a2.79 2.79 0 0 0-3.28-2.11c-.96.17-1.73.83-2.07 1.73-.1.27-.17.52-.2.76-.02.3-.02.58 0 .86.04.37.15.74.35 1.11Z" fill="#fff"/></svg>