<!-- by TradingView --><svg xmlns="http://www.w3.org/2000/svg" width="56" height="56" viewBox="0 0 56 56"><path fill="#1946B9" d="M0 0h56v56H0z"/><path d="M38.02 16.72h-.26L32 27.5V20h3v-3h-9.4c.18-.2.36-.42.54-.66.27-.34.54-.7.83-.96L24.19 14c-3.18 2.99-4.73 7.16-5.64 9.61l-.19.51-2.91-8.08-3.04.71L17.1 29h2.72l.18-.63c.56-2.06 1.4-5.11 2.99-8.2V29h3v-9h3v9h5.93l.99-2h4.05l1.01 2 3.12-.82-6.08-11.46zM36.8 24.7l1.08-2.29L39 24.7h-2.2zM17.8 30.68l-1.54 2.67a2.26 2.26 0 0 0-1.82-.78c-1.04 0-2.12.8-2.12 2.17 0 .56.22 1.09.62 1.48.4.4.93.63 1.5.65a2.6 2.6 0 0 0 1.9-.62l1.46 2.71A4.97 4.97 0 0 1 14.43 40 5.43 5.43 0 0 1 9 34.74a5.3 5.3 0 0 1 5.43-5.33 5.2 5.2 0 0 1 3.36 1.27zm17.88 2.67l1.54-2.67a5.2 5.2 0 0 0-3.36-1.27 5.3 5.3 0 0 0-5.43 5.33A5.43 5.43 0 0 0 33.85 40c1.56 0 2.65-.41 3.36-1.04l-1.46-2.71a2.6 2.6 0 0 1-1.9.62 2.2 2.2 0 0 1-1.5-.65c-.4-.4-.62-.92-.62-1.48a2.12 2.12 0 0 1 2.12-2.17c.69 0 1.3.18 1.82.78zm11.12 0a4.14 4.14 0 0 0-3.12.09s-1.69-2.13-4.35-.74c-.28-.41-.61-.65-.86-.83l-.14-.1c.5-.74 1.8-2.03 4.1-2.03 2.96 0 4.14 2.62 4.37 3.62zm.12.45a4.34 4.34 0 0 0-3.28.2 3.35 3.35 0 0 0-4.39-.75 4.17 4.17 0 0 0-1.14-1.1c-2.34 3.44.17 7.9 3.7 7.85a4.8 4.8 0 0 0 3.4-1.35 5.2 5.2 0 0 0 1.7-4.85zm-22.76-.35a4.14 4.14 0 0 1 3.12-.09c-.23-1-1.41-3.62-4.37-3.62-2.3 0-3.6 1.3-4.1 2.04l.14.1c.25.17.58.41.86.83a3.44 3.44 0 0 1 4.35.74zm-.04.56a4.34 4.34 0 0 1 3.28-.2 5.2 5.2 0 0 1-1.7 4.84 4.8 4.8 0 0 1-3.4 1.35c-3.54.05-6.05-4.4-3.71-7.85.5.33.9.75 1.14 1.1a3.35 3.35 0 0 1 4.39.76z" fill="#9BDBF5"/></svg>