<!-- by TradingView --><svg width="56" height="56" viewBox="0 0 56 56" fill="none" xmlns="http://www.w3.org/2000/svg">
<rect width="56" height="56" fill="#F0F3FA"/>
<path fill-rule="evenodd" clip-rule="evenodd" d="M15.1523 40.7504C14.8554 40.5254 14.0505 40.2105 13.2059 40.7504C12.1502 41.4253 12.4471 43 13.4368 43C14.4265 43 20.7606 42.1001 26.4019 36.4761C26.204 37.0867 26.1314 38.308 27.4246 38.308C29.0411 38.308 32.769 35.8655 33.8246 34.0658L34.0556 34.6122C33.3298 35.437 31.8782 37.5238 31.8782 39.2721C31.8782 41.4574 33.2968 41.7788 34.0556 41.7788C34.8143 41.7788 38.2123 40.3005 38.2123 36.4761C38.1573 35.9941 37.6713 34.8371 36.1669 34.0658C36.1009 32.5447 36.1933 29.2196 37.0906 28.7311C38.3223 28.8382 41.3661 29.0525 43.6886 29.0525C46.5917 29.0525 49 28.1205 49 27.4456C49 26.7707 45.8 24.8103 43.4907 23.8784C41.1814 22.9464 38.6742 21.0824 38.6742 19.9255C38.6742 18.7685 40.0927 18.2222 40.8185 18.2222C41.1856 18.2222 41.5779 18.6003 41.9615 18.97C42.3363 19.3312 42.7027 19.6843 43.0288 19.6684C43.1162 19.6641 43.1966 19.6621 43.2704 19.6603C43.7539 19.6483 43.9525 19.6433 43.9525 19.0578C43.9525 18.3829 43.2268 17.226 41.0824 17.226C38.9381 17.226 35.3422 17.9973 35.3422 19.9255C35.3422 21.8537 40.2247 24.3926 40.8185 24.6818C41.4123 24.971 44.2165 26.6743 43.9525 27.0599C43.6886 27.4456 38.1793 27.0921 36.8927 25.4852C36.5738 25.2388 35.8766 24.5725 35.6391 23.8784C35.3422 23.0107 35.2762 22.85 34.5504 22.143C33.9698 21.5773 31.4713 19.4434 30.2947 18.4472C30.3607 18.083 30.2683 17.2195 29.371 16.6796C28.4737 16.1397 27.3916 16.219 26.9627 16.3261C26.039 16.1226 24.0134 15.7155 23.3008 15.7155C22.4101 15.7155 17.4616 17.0653 17.4616 20.6646C17.4946 21.2753 17.9697 22.715 19.606 23.5891C19.463 24.4997 19.408 26.52 20.3317 27.317C18.5943 27.4777 14.7169 27.9855 13.107 28.7311C12.879 28.8552 12.4476 28.9775 12.5453 28.4744C12.6431 27.9712 13.284 27.1541 13.5923 26.8085C13.7668 26.978 14.3008 27.317 15.0406 27.317C15.738 27.317 16.3211 26.6993 16.8968 26.0893C17.0846 25.8904 17.2717 25.6922 17.4616 25.5166C18.2339 24.8027 18.2339 23.1878 16.9252 22.4909C15.6165 21.7939 14.1333 22.3719 12.5453 24.4117C11.275 26.0436 10.3641 27.5734 10.0675 28.1344C9.94534 28.4234 9.90346 29.1509 10.7131 29.7493C11.7252 30.4972 12.493 30.7352 13.7145 30.7352C14.3602 30.7352 15.8592 30.3362 17.263 29.9625C18.5147 29.6293 19.6908 29.3163 20.1185 29.3243C21.0259 29.3413 21.9332 30.2252 21.8111 30.4802C21.763 30.5806 21.636 30.4886 21.4553 30.3579C21.1771 30.1565 20.7718 29.863 20.3317 30.0382C19.606 30.3272 18.5829 30.9902 19.1937 31.5511C19.5753 31.9017 20.0932 31.907 20.526 31.9115C20.7858 31.9142 21.0149 31.9166 21.1655 31.9931C21.5668 32.1971 21.5668 32.792 21.0433 32.911C20.8933 32.9451 20.5454 33.1971 20.0819 33.5328C18.9282 34.3683 17.0581 35.7228 15.7386 35.5288C13.889 35.2568 13.9762 34.8148 14.6218 34.4069C14.9257 34.2149 15.16 34.2751 15.383 34.3325C15.6337 34.397 15.8701 34.4578 16.1749 34.1519C16.2303 34.0962 16.2863 34.0412 16.3412 33.9871C16.8564 33.4804 17.2797 33.064 16.3494 33.064C15.3198 33.064 13.3894 33.5909 13.107 34.7978C12.8245 36.0047 13.2259 36.8887 14.6218 36.9227C16.0178 36.9567 19.1064 36.4807 20.5373 35.6988C21.682 35.0732 23.9109 34.1009 24.8822 33.6929L24.862 33.718C22.8592 36.2056 18.2008 41.9915 14.4001 41.9915C13.8516 41.9915 14.673 41.1641 15.1523 40.7504ZM23.5658 17.2414C23.7322 17.2414 23.8671 17.0647 23.8671 16.8466C23.8671 16.6286 23.7322 16.4518 23.5658 16.4518C23.3993 16.4518 23.2644 16.6286 23.2644 16.8466C23.2644 17.0647 23.3993 17.2414 23.5658 17.2414ZM23.2034 19.2033C23.2034 19.5117 23.0125 19.7618 22.7771 19.7618C22.5416 19.7618 22.3507 19.5117 22.3507 19.2033C22.3507 18.8949 22.5416 18.6448 22.7771 18.6448C23.0125 18.6448 23.2034 18.8949 23.2034 19.2033ZM21.3635 20.6496C21.5989 20.6496 21.7898 20.4509 21.7898 20.2057C21.7898 19.9605 21.5989 19.7618 21.3635 19.7618C21.128 19.7618 20.9372 19.9605 20.9372 20.2057C20.9372 20.4509 21.128 20.6496 21.3635 20.6496ZM20.2022 20.4921C20.2022 20.7373 20.0113 20.936 19.7759 20.936C19.5404 20.936 19.3495 20.7373 19.3495 20.4921C19.3495 20.247 19.5404 20.0482 19.7759 20.0482C20.0113 20.0482 20.2022 20.247 20.2022 20.4921ZM27.195 22.1818C26.7832 22.7595 25.335 23.3853 24.6624 23.626C25.1977 24.4685 24.4977 25.6318 23.88 26.033C23.3858 26.3539 22.5484 26.6348 22.1915 26.7351L22.4592 27.4371L27.8333 24.4885L27.195 22.1818ZM15.5819 23.7263C15.1701 23.967 14.2847 25.0568 13.8935 25.5717C14.1132 25.7455 14.6348 26.0691 14.9642 25.9728C15.376 25.8525 16.1791 24.8897 16.2614 24.4284C16.3438 23.967 16.0967 23.4254 15.5819 23.7263ZM21.1958 24.4667C21.1187 24.3123 21.0544 24.0035 21.4143 24.0035C21.8641 24.0035 22.7637 23.8783 23.0335 23.8032C23.3034 23.7281 23.6761 23.7406 23.5348 24.2288C23.5192 24.2827 23.5036 24.3397 23.4875 24.3987C23.3574 24.8747 23.1925 25.4779 22.7123 25.5559C22.5542 25.5815 22.4281 25.6169 22.3214 25.6468C22.0636 25.719 21.9189 25.7595 21.7098 25.5559C21.4734 25.3255 21.2686 24.7338 21.1958 24.4667ZM31.0618 31.8855C30.712 32.3589 28.4054 34.4654 27.2958 35.4595C27.0043 36.1695 27.2958 37.0453 27.7818 37.282C28.2677 37.5187 28.8994 37.0453 30.7946 35.4595C32.6897 33.8737 32.5925 31.1991 32.2038 31.1281C31.815 31.0571 31.4992 31.2938 31.0618 31.8855ZM35.64 36.6491C35.4133 37.05 34.8562 37.8693 34.4411 37.9391C34.0259 38.0088 33.7313 38.0727 33.6358 38.096C33.5464 38.5434 33.4748 39.4556 33.9042 39.5254C34.4411 39.6125 37.0894 38.0611 35.64 36.6491ZM28.4466 17.4628C28.4466 17.6885 28.307 17.8715 28.1347 17.8715C27.9624 17.8715 27.8227 17.6885 27.8227 17.4628C27.8227 17.2371 27.9624 17.0542 28.1347 17.0542C28.307 17.0542 28.4466 17.2371 28.4466 17.4628ZM32.2458 25.8086C32.5334 25.8086 32.7665 25.5032 32.7665 25.1265C32.7665 24.7498 32.5334 24.4444 32.2458 24.4444C31.9582 24.4444 31.7251 24.7498 31.7251 25.1265C31.7251 25.5032 31.9582 25.8086 32.2458 25.8086ZM35.5592 26.7029C35.5592 26.9624 35.3986 27.1728 35.2005 27.1728C35.0024 27.1728 34.8418 26.9624 34.8418 26.7029C34.8418 26.4434 35.0024 26.233 35.2005 26.233C35.3986 26.233 35.5592 26.4434 35.5592 26.7029ZM34.483 29.4906C34.6812 29.4906 34.8418 29.2802 34.8418 29.0207C34.8418 28.7612 34.6812 28.5508 34.483 28.5508C34.2849 28.5508 34.1243 28.7612 34.1243 29.0207C34.1243 29.2802 34.2849 29.4906 34.483 29.4906ZM37.6847 27.9907C37.6847 28.3 37.4933 28.5508 37.2572 28.5508C37.0211 28.5508 36.8296 28.3 36.8296 27.9907C36.8296 27.6814 37.0211 27.4306 37.2572 27.4306C37.4933 27.4306 37.6847 27.6814 37.6847 27.9907ZM33.2545 29.0207C33.4526 29.0207 33.6133 28.8103 33.6133 28.5508C33.6133 28.2912 33.4526 28.0808 33.2545 28.0808C33.0564 28.0808 32.8958 28.2912 32.8958 28.5508C32.8958 28.8103 33.0564 29.0207 33.2545 29.0207ZM31.4441 28.5508C31.4441 28.9736 31.1824 29.3164 30.8597 29.3164C30.5369 29.3164 30.2752 28.9736 30.2752 28.5508C30.2752 28.1279 30.5369 27.7851 30.8597 27.7851C31.1824 27.7851 31.4441 28.1279 31.4441 28.5508ZM29.3045 29.9526C29.5362 29.9526 29.724 29.7066 29.724 29.4032C29.724 29.0997 29.5362 28.8538 29.3045 28.8538C29.0729 28.8538 28.8851 29.0997 28.8851 29.4032C28.8851 29.7066 29.0729 29.9526 29.3045 29.9526ZM29.3433 32.2451C29.3433 32.5766 29.1382 32.8454 28.8851 32.8454C28.6321 32.8454 28.4269 32.5766 28.4269 32.2451C28.4269 31.9136 28.6321 31.6449 28.8851 31.6449C29.1382 31.6449 29.3433 31.9136 29.3433 32.2451ZM26.3032 28.8039C26.6415 28.8039 26.9158 28.4445 26.9158 28.0013C26.9158 27.5581 26.6415 27.1988 26.3032 27.1988C25.9649 27.1988 25.6906 27.5581 25.6906 28.0013C25.6906 28.4445 25.9649 28.8039 26.3032 28.8039ZM25.6906 30.2057C25.6906 30.649 25.4163 31.0083 25.078 31.0083C24.7397 31.0083 24.4654 30.649 24.4654 30.2057C24.4654 29.7625 24.7397 29.4032 25.078 29.4032C25.4163 29.4032 25.6906 29.7625 25.6906 30.2057ZM23.8528 32.2959C24.1911 32.2959 24.4654 31.9366 24.4654 31.4934C24.4654 31.0502 24.1911 30.6909 23.8528 30.6909C23.5144 30.6909 23.2402 31.0502 23.2402 31.4934C23.2402 31.9366 23.5144 32.2959 23.8528 32.2959ZM22.9495 28.9668C22.9495 29.364 22.7038 29.6859 22.4006 29.6859C22.0975 29.6859 21.8517 29.364 21.8517 28.9668C21.8517 28.5697 22.0975 28.2478 22.4006 28.2478C22.7038 28.2478 22.9495 28.5697 22.9495 28.9668Z" fill="url(#paint0_linear_5723_200385)"/>
<path fill-rule="evenodd" clip-rule="evenodd" d="M32.8178 20.5219L28.3694 10L15 41H32.3347C32.1461 40.8106 32.122 40.2562 31.9403 40H16.5535L28.3735 12.0454L31.701 19.7365L32.8178 20.5219ZM36.8339 40C36.5681 40.2184 36.0025 40.7965 35.6725 41H42L36.4443 29.5538L36.2431 30.7978L40.3907 40H36.8339Z" fill="#40B7EA"/>
<defs>
<linearGradient id="paint0_linear_5723_200385" x1="18.7639" y1="17.8856" x2="32.4303" y2="39.1684" gradientUnits="userSpaceOnUse">
<stop stop-color="#2186A2"/>
<stop offset="1" stop-color="#09405B"/>
</linearGradient>
</defs>
</svg>
