<!-- by TradingView --><svg width="56" height="56" viewBox="0 0 56 56" xmlns="http://www.w3.org/2000/svg"><path fill="#F0F3FA" d="M0 0h56v56H0z"/><path d="M27.66 14.78c-2 1.93-3.3 4.23-3.91 6.93a.27.27 0 0 1-.07.12.28.28 0 0 1-.12.08l-3.54 1.2a.15.15 0 0 1-.19-.1 17 17 0 0 1 7.87-12.96.35.35 0 0 1 .39 0c8.89 5.71 10.8 16.87 4.07 25.01a.26.26 0 0 1-.31.08 12.55 12.55 0 0 1-2.9-1.83.2.2 0 0 1-.02-.16.2.2 0 0 1 .04-.07c4.95-5.54 4.56-12.92-.55-18.28a.53.53 0 0 0-.38-.16.54.54 0 0 0-.38.14Z" fill="#0089D0"/><path d="M19.62 41h-.84a18.72 18.72 0 0 1-7.64-2.07.27.27 0 0 1-.1-.1.26.26 0 0 1-.04-.14c.55-10.46 9.64-17.52 20.12-15.87a.22.22 0 0 1 .18.22l-.08 3.2a.19.19 0 0 1-.07.13.2.2 0 0 1-.14.05c-.77-.04-1.6-.2-2.28-.22-6.63-.26-11.98 3.73-13.67 9.97a.49.49 0 0 0 .05.38c.06.11.17.2.3.23 2.72.78 5.42.72 8.1-.18a.27.27 0 0 1 .28.07 15.69 15.69 0 0 0 2.95 2.45.08.08 0 0 1 0 .09l-.04.03A18.98 18.98 0 0 1 19.62 41Z" fill="#00AEEF"/><path d="M24.09 28.16c2.52 6.79 9.06 10.57 16.31 8.68.73-.19.53-.6.38-1.12-.68-2.46-2-4.55-3.95-6.24a.32.32 0 0 1-.1-.3l.65-3.69a.12.12 0 0 1 .07-.08.11.11 0 0 1 .1.01A16.87 16.87 0 0 1 45 38.67a.28.28 0 0 1-.16.28c-9.37 4.59-20.3.72-24-8.97a.42.42 0 0 1 .2-.53l2.74-1.4a.22.22 0 0 1 .3.11Z" fill="#006CB7"/></svg>