<!-- by TradingView --><svg xmlns="http://www.w3.org/2000/svg" width="56" height="56"><path fill="#F0F3FA" d="M0 0h56v56H0z"/><circle cx="8.44" cy="34.69" r="1.09" fill="#4D9B45"/><circle cx="6.6" cy="32.75" r=".99" fill="#4D9B45"/><circle cx="10.69" cy="36.17" r=".99" fill="#4D9B45"/><circle cx="5.31" cy="30.33" r=".91" fill="#4D9B45"/><circle cx="13.27" cy="37.09" r=".91" fill="#4D9B45"/><circle cx="4.78" cy="27.7" r=".78" fill="#4D9B45"/><circle cx="6.77" cy="28.43" r=".82" fill="#8FC740"/><circle cx="7.49" cy="30.53" r=".72" fill="#8FC740"/><circle cx="8.72" cy="32.4" r=".66" fill="#8FC740"/><circle cx="10.39" cy="33.84" r=".58" fill="#8FC740"/><circle cx="12.38" cy="34.85" r=".5" fill="#8FC740"/><circle cx="14.54" cy="35.23" r=".4" fill="#8FC740"/><circle cx="6.67" cy="26.25" r=".85" fill="#8FC740"/><circle cx="7.09" cy="24.05" r=".8" fill="#8FC740"/><circle cx="10.06" cy="22.15" r=".73" fill="#4D9B45"/><circle cx="11.45" cy="20.99" r=".73" fill="#4D9B45"/><circle cx="13.06" cy="20.2" r=".67" fill="#4D9B45"/><circle cx="14.86" cy="19.94" r=".58" fill="#4D9B45"/><circle cx="16.61" cy="20.05" r=".51" fill="#4D9B45"/><circle cx="18.29" cy="20.71" r=".46" fill="#4D9B45"/><circle cx="19.76" cy="21.72" r=".41" fill="#4D9B45"/><circle cx="20.93" cy="23.1" r=".36" fill="#4D9B45"/><circle cx="8.08" cy="22.06" r=".69" fill="#8FC740"/><circle cx="9.03" cy="23.64" r=".63" fill="#4D9B45"/><circle cx="8.42" cy="25.28" r=".56" fill="#4D9B45"/><circle cx="8.26" cy="27.11" r=".5" fill="#4D9B45"/><circle cx="8.61" cy="28.84" r=".4" fill="#4D9B45"/><circle cx="9.33" cy="30.49" r=".35" fill="#4D9B45"/><circle cx="9.49" cy="20.38" r=".61" fill="#8FC740"/><circle cx="11.34" cy="19.17" r=".5" fill="#8FC740"/><circle cx="13.44" cy="18.46" r=".42" fill="#8FC740"/><circle cx="15.68" cy="18.36" r=".36" fill="#8FC740"/><circle cx="15.96" cy="37.16" r=".78" fill="#4D9B45"/><circle cx="4.9" cy="24.92" r=".7" fill="#4D9B45"/><circle cx="21.04" cy="35.33" r=".63" fill="#4D9B45"/><circle cx="18.63" cy="36.56" r=".7" fill="#4D9B45"/><circle cx="5.7" cy="22.36" r=".52" fill="#4D9B45"/><circle cx="23.06" cy="33.52" r=".46" fill="#4D9B45"/><circle cx="7.21" cy="20.04" r=".4" fill="#4D9B45"/><path fill-rule="evenodd" d="M48.84 23l-.24 2h-1.23l-.14 1h1.2l-.55 3.96c-.13.7 0 2.08 1.56 2.04a7.38 7.38 0 001.55-.2V31h-1.14c-.26 0-.75-.37-.6-1.12l.53-3.88h2.08l.14-1h-2.08l.26-2h-1.34zm-31.15 2.36c-.74-.25-2.83-.66-4.21 0-1.35.64-1.81 3.28-1.72 4.54.05.8.5 2.16 2.81 2.1a9.87 9.87 0 002.41-.35l-.14-.77c-.88.12-2.78.25-3.4-.2-.62-.46-.22-2.5.04-3.41.13-.4.45-1.27 2.04-1.27h1.96l.21-.64zm.45 2.32c.46-2.38 2.4-2.68 3.61-2.68 2.71 0 2.81 1.75 2.76 2.9-.04 1.04-.45 3.23-1.77 3.74a4.87 4.87 0 01-3.9-.09c-.48-.26-1.23-1.08-.7-3.87zm1.34.23c.35-1.68 1.37-1.91 2.07-1.91 1.55 0 1.62.82 1.58 2.07-.02.74-.4 2.34-1.16 2.7a2.6 2.6 0 01-2.3-.07c-.35-.24-.6-.82-.2-2.79zm12.61-2.58c-1.29-.25-4.03-.6-5.05 0-1.29.76-1.48 2.5-1.54 3.06v.1c-.02.06-.02.12-.03.2-.17 1.3-.41 3.2 1.78 3.31.55.03 1.96-.24 3.16-1.7-.1.2-.37.83-.55 1.74-.27 1.35-1.57 1.78-4.7 1.63l-.12.9a9 9 0 002.3.19c1.38-.05 3.45-.33 3.84-2.9l.91-6.53zm-1.4.72c-.8-.07-2.55-.12-3.07.26-.52.39-.69 1.29-.77 1.74-.27 1.51-.43 3.05.77 2.94 1.07-.09 1.73-.71 2.55-1.54l.52-3.4zM35.9 32c1.66-.1 2.37-.3 2.52-.4l-.16-.74c-.9.14-2 .16-2.42.15-1.74 0-1.78-1.16-1.74-1.8l3.16-.33c1.74-.36 1.88-1.58 1.87-2.28-.01-.6-.35-1.59-2.53-1.59-2.12 0-3.5.7-3.78 3.06-.22 1.9.18 2.7.4 3.03.3.5 1.03 1 2.68.9zm-1.5-4.66l-.18.93 2.33-.22c1.04-.1 1.16-.74 1.25-1.36.09-.61-.66-.68-1.25-.68-1.69 0-2.06.8-2.16 1.33zM40.5 25l-.95 7h1.32l.6-4.44.33-.25c.62-.48 1.67-1.28 2.42-1.31.72-.03.73.73.67 1.17L44.22 32h1.32c.2-1.37.6-4.21.68-4.68v-.01c.09-.6.33-2.24-1.46-2.3-1.44-.06-2.8 1.04-3.3 1.6l.1-1.61H40.5zm-7.37 8h-.83v2h.83c.32 0 .56-.21.57-.56.01-.27-.22-.45-.33-.5.1 0 .3-.1.3-.46 0-.34-.32-.48-.54-.48zm-.14.41h-.22v.36H33c.05 0 .14-.05.14-.18a.16.16 0 00-.14-.18zm-.22.8H33c.05 0 .15.05.14.18 0 .12-.1.17-.14.17h-.22v-.36z" fill="#1E4E42"/><path fill="#1E4E42" d="M34.32 33h.49v2h-.49zm7.33 0h.49v2h-.49zm1.67 0h-.49v2h1.08v-.45h-.59v-.36h.59v-.45h-.59v-.29h.59V33h-.59zm6.09 0h-.49v2H50v-.45h-.59v-.36h.6v-.45h-.6v-.29h.6V33h-.6z"/><path fill-rule="evenodd" d="M36.33 33c-.5 0-.9.4-.9.9v.2a.9.9 0 101.8 0v-.2c0-.5-.4-.9-.9-.9zm0 .45c-.2 0-.37.16-.37.37v.4a.37.37 0 10.74 0v-.4c0-.2-.17-.37-.37-.37z" fill="#1E4E42"/><path d="M38.5 33c.21.01.46.11.56.16l-.15.41a.72.72 0 00-.4-.15c-.12 0-.23.01-.24.15 0 .14.16.17.23.18.19.05.56.23.56.62 0 .49-.42.63-.72.63s-.44-.1-.54-.15v-.43c.12.05.4.14.54.15.14 0 .21-.06.21-.15 0-.1-.08-.15-.2-.2-.17-.08-.56-.21-.56-.65 0-.41.45-.58.71-.57zm12.8 0c.2.01.46.11.55.16l-.14.41a.72.72 0 00-.41-.15c-.1 0-.22.01-.23.15 0 .14.15.17.23.18.19.05.55.23.55.62 0 .49-.42.63-.71.63-.3 0-.45-.1-.55-.15v-.43c.13.05.4.14.55.15.14 0 .21-.06.21-.15 0-.1-.08-.15-.21-.2-.16-.08-.55-.21-.55-.65 0-.41.45-.58.71-.57zm-10.37 1.9a.92.92 0 01-.42.1.98.98 0 01-.96-1c0-.55.43-1 .96-1 .2 0 .38.06.54.17l-.16.38a.47.47 0 00-.31-.13c-.28 0-.51.26-.51.58 0 .32.23.58.5.58a.5.5 0 00.36-.16v.48zm7.32 0a.92.92 0 01-.42.1.98.98 0 01-.96-1c0-.55.43-1 .96-1 .2 0 .39.06.54.17l-.15.38a.47.47 0 00-.32-.13c-.28 0-.5.26-.5.58 0 .32.22.58.5.58.14 0 .26-.06.35-.16v.48zM44.54 33v2h.42v-1.4l.65 1.4h.66v-2h-.42v1.36L45.18 33h-.64z" fill="#1E4E42"/></svg>