<!-- by TradingView --><svg width="56" height="56" xmlns="http://www.w3.org/2000/svg"><path fill="#0077C0" d="M0 0h56v56H0z"/><path d="M27.621 12.41c.566.165 2.083.854 2.395 1.155L29.435 17H29c-1.067-3.136-8.532-6.244-9 5.322-.375 9.253 4.143 10.945 6 10.679V20c2.27-.017 6.46 0 6.887 0 .75 0 4.38.728 4.49 6.006.086 4.223-2.764 6.116-4.2 6.534 1.608-.191 4.823.507 4.823 4.832s-3.24 6.013-5.074 6.424C31.092 44.207 26 44 26 44v-9c-3.175-.082-5.218-1.282-6.285-2-1.256-.845-4.049-4.156-3.674-10.679.375-6.523 4.106-9.295 5.884-9.772 1.975-.723 3.779-.693 5.696-.138z" fill="#fff"/><path d="M34 27c.079-5.382-3.404-5.352-5-5v11c1.353.036 4.921-.618 5-6zM35 37.463c.19-4.306-4.413-3.121-6-2.463v7c1.742.095 5.81-.232 6-4.537z" fill="#0077C0"/></svg>