<!-- by TradingView --><svg width="56" height="56" viewBox="0 0 56 56" xmlns="http://www.w3.org/2000/svg"><path fill="#F0F3FA" d="M0 0h56v56H0z"/><path d="m35.95 17.9-7.86-7.88c-.06-.03-.15-.03-.18 0L20.05 18a.15.15 0 0 0-.05.1c0 .04.02.07.05.08l1.74 1.77c.03.03.06.05.1.05A9.7 9.7 0 0 1 28 18c2.19 0 4.27.62 6.02 1.97.03.03.06.03.09.03s.06 0 .09-.03l1.74-1.89c.03-.01.05-.05.05-.08a.15.15 0 0 0-.05-.1Z" fill="#EE7623"/><path d="M19.98 33.98A9.66 9.66 0 0 1 18 28c0-2.17.65-4.3 1.95-6.02a.2.2 0 0 0 0-.19l-1.76-1.74c-.06-.07-.15-.07-.18 0l-7.96 7.85a.15.15 0 0 0-.05.1c0 .03.02.06.05.08l7.9 7.89c.03.03.06.03.1.03.02 0 .05 0 .08-.03l1.82-1.81c.06-.06.06-.12.03-.18Z" fill="#002F6C"/><path d="m35.95 37.87-1.8-1.82c-.06-.07-.12-.07-.18 0A9.84 9.84 0 0 1 28 38a9.77 9.77 0 0 1-5.97-1.95.2.2 0 0 0-.18 0l-1.8 1.82c-.07.06-.07.15 0 .18l7.86 7.92c.03.03.06.03.09.03s.06 0 .09-.03l7.86-7.92c.07-.06.07-.12 0-.18Z" fill="#92BA1F"/><path d="m45.96 27.9-7.85-7.85A.15.15 0 0 0 38 20a.15.15 0 0 0-.1.05L34.5 24c-1.44-2.15-3.9-4-6.5-4-4.25 0-8 3.78-8 8 0 4.22 3.75 8 8 8 2.57 0 5.06-1.88 6.5-4l3.4 3.97c.04.03.07.03.1.03s.06 0 .1-.03l7.83-7.86c.09-.06.09-.15.03-.2Z" fill="#0374C1"/></svg>