<!-- by TradingView --><svg width="56" height="56" xmlns="http://www.w3.org/2000/svg"><path fill="#0092CE" d="M0 0h56v56H0z"/><path d="M20.113 31.471a2.625 2.625 0 010 3.69l-.85.855a2.573 2.573 0 01-3.66 0l-5.846-5.892a2.625 2.625 0 010-3.689l.85-.856a2.569 2.569 0 013.655-.004l.004.004 5.847 5.892zm-.583-11.21a2.575 2.575 0 00-3.66 0l-.85.858a2.623 2.623 0 000 3.688l5.845 5.893a2.573 2.573 0 003.66 0l.85-.855a2.625 2.625 0 000-3.69L19.53 20.26zm15.598 5.2a2.575 2.575 0 00-3.66 0l-.85.857a2.623 2.623 0 000 3.69l5.845 5.892a2.575 2.575 0 003.66 0l.85-.857a2.624 2.624 0 000-3.69l-5.845-5.892zm5.269-5.309a2.584 2.584 0 00-3.661 0l-.85.858a2.618 2.618 0 000 3.689l5.846 5.892a2.573 2.573 0 003.66 0l.85-.856a2.622 2.622 0 00.002-3.688l-.003-.002-5.844-5.893zm-9.729-5.843a2.626 2.626 0 000-3.69l-.85-.856a2.572 2.572 0 00-3.658 0l-5.846 5.893a2.623 2.623 0 000 3.688l.85.858a2.584 2.584 0 003.66 0l5.847-5.893h-.003zm5.269 5.31a2.623 2.623 0 000-3.688l-.85-.857a2.573 2.573 0 00-3.66 0l-5.846 5.893a2.625 2.625 0 000 3.688l.85.858a2.573 2.573 0 003.66 0l5.846-5.894zm-5.259 15.416a2.624 2.624 0 000-3.69l-.85-.856a2.573 2.573 0 00-3.66 0l-5.846 5.893a2.623 2.623 0 000 3.688l.851.858a2.575 2.575 0 003.66 0l5.845-5.893zm5.267 5.312a2.634 2.634 0 000-3.69l-.851-.858a2.575 2.575 0 00-3.66 0L25.59 41.69a2.621 2.621 0 000 3.688l.85.856a2.572 2.572 0 003.659.003l.002-.003 5.846-5.892-.001.003z" fill="#fff"/></svg>