<!-- by TradingView --><svg width="56" height="56" xmlns="http://www.w3.org/2000/svg"><path fill="#0862B7" d="M0 0h56v56H0z"/><path d="M34.367 14.433c-4.495-1.65-10.448.571-11.065 5.08-.587 4.31 2.007 6.744 7.474 7.825 5.671 1.12 5.022 6.075 3.596 7.741-2.286 2.674-5.791 2.934-8.578 1.971-5.63-1.462-9.866-6.865-8.768-13.656 1.126-6.904 6.79-10.311 12.626-10.298A15.172 15.172 0 0028 13c-8.284 0-15 6.716-15 15 0 8.283 6.716 15 15 15 8.286 0 15-6.717 15-15 0-6.005-3.536-11.171-8.633-13.567z" fill="#fff"/></svg>