<!-- by TradingView --><svg width="56" height="56" xmlns="http://www.w3.org/2000/svg"><path fill="#00A7CF" d="M0 0h56v56H0z"/><path d="M4 23h1l2.5 3 2.5-3h1v7h-1v-5l-2.5 2.739L5 25v5H4v-7zm7.996 2H13v1.358c.397-.8.98-1.4 1.996-1.36V26C13.804 26 13 26.944 13 28.425V30h-1.004v-5zM49 25h1.004v1.358c.397-.8.981-1.4 1.996-1.36V26c-1.191 0-1.996.944-1.996 2.425V30H49v-5zm-35 4h1v1h-1v-1zm4-2.48c0-1.924 1.4-3.52 3.36-3.52 1.2 0 1.92.45 2.6 1.064l-.52.936c-.56-.532-1.2-1-2.08-1-1.48 0-2.361.965-2.361 2.52 0 1.556.921 2.48 2.361 2.48.92 0 1.52-.386 2.16-1l.48.812C23.32 29.55 22.56 30 21.36 30c-1.96.04-3.36-1.515-3.36-3.48zm7 1.019C25 26.172 26.055 25 27.502 25c1.446 0 2.5 1.133 2.5 2.5 0 1.366-1.054 2.499-2.5 2.499-1.447.04-2.502-1.093-2.502-2.46zm4 0c-.002-.769-.61-1.56-1.538-1.539-.928.022-1.465.77-1.465 1.5 0 .729.511 1.5 1.465 1.5.954 0 1.54-.693 1.538-1.461zm2.003 0c0-1.367 1.055-2.539 2.501-2.539 1.447 0 2.502 1.133 2.502 2.5 0 1.366-1.056 2.499-2.502 2.499-1.446.04-2.501-1.093-2.501-2.46zm4 0c-.002-.769-.61-1.56-1.538-1.539-.928.022-1.465.77-1.465 1.5 0 .729.511 1.5 1.465 1.5.954 0 1.54-.693 1.538-1.461zM37.017 25H38v1c.132-.521.713-1 1.642-1 1.17 0 2.382.902 2.382 2.51 0 1.568-1.17 2.51-2.382 2.51-.929 0-1.642-.568-1.642-1.02v3h-.983v-7zm3.98 2.51c0-.773-.547-1.51-1.476-1.51-.929 0-1.52.751-1.52 1.51 0 .758.61 1.49 1.52 1.49s1.475-.718 1.475-1.49zM43 27.48c0-1.395 1.078-2.48 2.543-2.48C47.095 25 48 26.124 48 27.52V28h-4c.155.704 1.225.998 1.699 1 .474.002 1.25-.256 1.681-.643l.448.752c-.518.542-1.401.891-2.199.891-1.2 0-2.629-.892-2.629-2.52zm3.999-.48c0-.73-.8-.997-1.456-1-.657-.003-1.543.258-1.543 1h2.999zm-33.003 8.5c0-1.831 1.316-3.5 3.372-3.5 1.028 0 1.686.326 2.385.855l-.123.162c-.617-.529-1.275-.854-2.262-.854-1.933 0-3.167 1.628-3.167 3.296 0 1.75 1.152 3.297 3.167 3.297 1.028 0 1.85-.448 2.426-.936v-2.117h-2.508V35.5H20v2.442c-.658.57-1.563 1.058-2.673 1.058-2.098 0-3.331-1.587-3.331-3.5zm8.074-1.376h.21v1.57c.21-.826.965-1.694 2.056-1.694v.207h-.042c-1.26 0-2.014 1.363-2.014 2.272V39h-.21v-4.876zm2.328 2.416c0-1.37 1.007-2.54 2.602-2.54 1.552 0 2.601 1.129 2.601 2.5 0 1.33-1.007 2.499-2.601 2.499-1.553.04-2.602-1.129-2.602-2.46zm4.994 0c0-1.29-.966-2.338-2.392-2.338-1.385 0-2.35 1.048-2.35 2.297 0 1.25.965 2.298 2.392 2.298 1.384.04 2.35-1.007 2.35-2.257zm1.31.27V34h.21v2.768c0 1.24.63 2.065 1.888 2.065 1.091 0 1.972-.95 1.972-2.106V34h.21v5h-.168v-1.447a2.06 2.06 0 01-2.014 1.446c-1.343.04-2.098-.868-2.098-2.19zm6.35-2.688h.21v1.5C37.554 34.69 38.393 34 39.569 34c1.427 0 2.476 1.136 2.476 2.515 0 1.38-1.05 2.515-2.476 2.515-1.175 0-2.014-.69-2.308-1.623V40h-.21v-5.878zm4.741 2.434c0-1.298-.923-2.353-2.266-2.353-1.342 0-2.307 1.054-2.307 2.312 0 1.258.965 2.312 2.307 2.312 1.385.04 2.266-.973 2.266-2.271z" fill="#fff"/></svg>