<!-- by TradingView --><svg width="56" height="56" xmlns="http://www.w3.org/2000/svg"><path fill="#356395" d="M0 0h56v56H0z"/><path d="M13.797 25.902l-5.716 4.2v5.6l5.716 4.2 5.717-4.2v-5.6l-5.717-4.2z" fill="url(#paint0_linear)"/><path d="M13.748 25.838L8 30.063v5.68L13.797 40l5.797-4.259v-5.679l-5.797-4.26-.049.037zm.049.163l5.636 4.14v5.521l-5.636 4.14-5.635-4.14v-5.52L13.797 26z" fill="#9D1535"/><path d="M25.008 25.954l-5.582 4.148v5.6l5.782 4.2 5.782-4.2v-5.6l-5.982-4.148z" fill="url(#paint1_linear)"/><path d="M24.955 25.858l-5.61 4.204v5.68L25.168 40 31 35.741v-5.679l-5.997-4.24-.048.036zm.048.142c.095.07 5.76 4.095 5.824 4.141v5.521l-5.66 4.14-5.66-4.14v-5.52c.064-.047 5.401-4.073 5.496-4.142z" fill="#9D1535"/><path d="M30.83 16.099l-5.743 4.2v5.6l5.918 4.223 5.569-4.223v-5.6l-5.744-4.2z" fill="url(#paint2_linear)"/><path d="M30.776 16.036L25 20.259v5.68l6.004 4.237 5.645-4.238v-5.68L30.824 16l-.048.036zm.048.162l5.663 4.14v5.521c-.064.047-5.388 4.09-5.483 4.159-.095-.07-5.778-4.112-5.842-4.159v-5.521l5.662-4.14z" fill="#9D1535"/><path d="M42.203 16.099l-5.717 4.2v5.6l5.717 4.2 5.717-4.2v-5.6l-5.717-4.2z" fill="url(#paint3_linear)"/><path d="M42.154 16.036l-5.749 4.223v5.68l5.797 4.258L48 25.94v-5.68L42.202 16l-.048.036zm.048.162l5.637 4.14v5.521L42.202 30l-5.635-4.14v-5.521l5.635-4.14z" fill="#9D1535"/><defs><linearGradient id="paint0_linear" x1="19.514" y1="32.901" x2="8.081" y2="32.901" gradientUnits="userSpaceOnUse"><stop stop-color="#A5273A"/><stop offset=".477" stop-color="#DA8F90"/><stop offset="1" stop-color="#FBE7E7"/></linearGradient><linearGradient id="paint1_linear" x1="30.99" y1="32.901" x2="19.426" y2="32.901" gradientUnits="userSpaceOnUse"><stop stop-color="#A5273A"/><stop offset=".466" stop-color="#DA8F90"/><stop offset="1" stop-color="#FBE7E7"/></linearGradient><linearGradient id="paint2_linear" x1="36.574" y1="23.099" x2="25.087" y2="23.099" gradientUnits="userSpaceOnUse"><stop stop-color="#A5273A"/><stop offset=".477" stop-color="#DA8F90"/><stop offset="1" stop-color="#FBE7E7"/></linearGradient><linearGradient id="paint3_linear" x1="47.92" y1="23.099" x2="36.486" y2="23.099" gradientUnits="userSpaceOnUse"><stop stop-color="#A5273A"/><stop offset=".477" stop-color="#DA8F90"/><stop offset="1" stop-color="#FBE7E7"/></linearGradient></defs></svg>