<!-- by TradingView --><svg width="56" height="56" viewBox="0 0 56 56" xmlns="http://www.w3.org/2000/svg"><path fill="#F0F3FA" d="M0 0h56v56H0z"/><path d="m37.58 30-4.25 8h-10.6L17 28l5.73-10.02 10.6.02 4.25 7.98L45 26l-7.4-13.01c-.36-.61-1-.99-1.7-.99H20c-.7 0-1.35.38-1.7.99l-8.04 14a2.01 2.01 0 0 0 0 2.02l8.04 14c.35.61 1 .99 1.7.99H35.9c.7 0 1.34-.38 1.7-.99L45 30h-7.42Z" fill="#003970"/><path d="m35 28-3.5-6h-7l3.5 6h7Z" fill="#3498DB"/><path d="m28 28-3.5 6h7l3.5-6h-7Z" fill="#003970"/><path d="M24.5 22 21 28l3.5 6 3.5-6-3.5-6Z" fill="#0075A8"/></svg>