<!-- by TradingView --><svg width="56" height="56" viewBox="0 0 56 56" xmlns="http://www.w3.org/2000/svg"><path fill="#F0F3FA" d="M0 0h56v56H0z"/><path d="m22.8 39.44 4.14-8.56a.97.97 0 0 1 1.75-.07l4.48 8.57c.4.71-.08 1.62-.86 1.62H23.7c-.74 0-1.23-.84-.9-1.56Z" fill="#103154"/><path fill-rule="evenodd" d="M37.15 39.98c.67 1.06 2.11 1.36 3.01.48 4.5-4.44 5.94-11.82 3.99-17.72a17.26 17.26 0 0 0-16.89-11.73c-7.55.3-14.15 5.7-16 13-.96 6.6.69 12.58 5.34 16.54.97.82 2.4.46 3.03-.64l7.34-12.95a1.1 1.1 0 0 1 1.9-.04l8.28 13.06ZM18.32 19.61a14.58 14.58 0 0 0-2.6 7.96.55.55 0 0 1-1.11 0c0-2.3.77-5.74 2.8-8.6 2.06-2.9 5.4-5.2 10.47-5.2 5.06 0 8.53 2.3 10.72 5.18 2.18 2.86 3.1 6.3 3.1 8.62a.55.55 0 0 1-1.1 0c0-2.09-.85-5.29-2.88-7.95a11.85 11.85 0 0 0-9.84-4.75c-4.67 0-7.69 2.1-9.56 4.74Zm2.37 7.96c0-1.3.37-3.1 1.44-4.58 1.06-1.44 2.82-2.6 5.75-2.6 2.92 0 4.68 1.2 5.74 2.67a8.08 8.08 0 0 1 1.45 4.51.55.55 0 0 0 1.1 0c0-1.38-.4-3.43-1.65-5.16-1.26-1.75-3.36-3.12-6.64-3.12-3.27 0-5.37 1.32-6.64 3.05a9.13 9.13 0 0 0-1.66 5.23.55.55 0 0 0 1.11 0Z" fill="#01B0F3"/></svg>