<!-- by TradingView --><svg width="56" height="56" viewBox="0 0 56 56" xmlns="http://www.w3.org/2000/svg"><path fill="#F0F3FA" d="M0 0h56v56H0z"/><ellipse cx="24.79" cy="26.55" rx=".79" ry=".82" fill="#FFAC50"/><ellipse cx="26.27" cy="25.27" rx=".79" ry=".82" fill="#FFAC50"/><ellipse cx="28.02" cy="24.82" rx=".79" ry=".82" fill="#FFAC50"/><ellipse cx="29.94" cy="25.18" rx=".79" ry=".82" fill="#FFAC50"/><ellipse cx="31.38" cy="26.23" rx=".66" ry=".68" fill="#FFAC50"/><ellipse cx="32.34" cy="28.05" rx=".66" ry=".68" fill="#FFAC50"/><ellipse cx="32.34" cy="30.05" rx=".66" ry=".68" fill="#FFAC50"/><ellipse cx="31.56" cy="31.77" rx=".48" ry=".5" fill="#FFAC50"/><ellipse cx="30.16" cy="33.14" rx=".48" ry=".5" fill="#FFAC50"/><ellipse cx="28.33" cy="33.5" rx=".48" ry=".5" fill="#FFAC50"/><ellipse cx="26.32" cy="33.23" rx=".39" ry=".41" fill="#FFAC50"/><ellipse cx="25" cy="31.95" rx=".39" ry=".41" fill="#FFAC50"/><ellipse cx="34.28" cy="23.97" rx=".72" ry=".76" fill="#074578"/><ellipse cx="33.2" cy="22.74" rx=".72" ry=".76" fill="#074578"/><ellipse cx="32.02" cy="21.89" rx=".72" ry=".76" fill="#074578"/><ellipse cx="30.85" cy="21.23" rx=".72" ry=".76" fill="#074578"/><ellipse cx="29.49" cy="20.85" rx=".72" ry=".76" fill="#074578"/><ellipse cx="28.14" cy="20.66" rx=".63" ry=".66" fill="#074578"/><ellipse cx="26.73" cy="20.8" rx=".59" ry=".61" fill="#074578"/><ellipse cx="25.56" cy="21.18" rx=".59" ry=".61" fill="#074578"/><ellipse cx="24.2" cy="21.84" rx=".59" ry=".61" fill="#074578"/><ellipse cx="23.12" cy="22.69" rx=".59" ry=".61" fill="#074578"/><ellipse cx="22.21" cy="23.64" rx=".59" ry=".61" fill="#074578"/><ellipse cx="21.36" cy="24.91" rx=".54" ry=".57" fill="#074578"/><ellipse cx="20.9" cy="26.14" rx=".54" ry=".57" fill="#074578"/><ellipse cx="20.63" cy="27.65" rx=".54" ry=".57" fill="#074578"/><ellipse cx="20.54" cy="29.16" rx=".54" ry=".57" fill="#074578"/><ellipse cx="20.77" cy="30.44" rx=".5" ry=".52" fill="#074578"/><ellipse cx="21.22" cy="31.85" rx=".5" ry=".52" fill="#074578"/><ellipse cx="21.94" cy="33.08" rx=".5" ry=".52" fill="#074578"/><ellipse cx="22.71" cy="34.26" rx=".45" ry=".47" fill="#074578"/><ellipse cx="23.8" cy="35.11" rx=".45" ry=".47" fill="#074578"/><ellipse cx="24.97" cy="35.87" rx=".45" ry=".47" fill="#074578"/><ellipse cx="26.33" cy="36.34" rx=".45" ry=".47" fill="#074578"/><ellipse cx="27.59" cy="36.53" rx=".45" ry=".47" fill="#074578"/><ellipse cx="28.95" cy="36.53" rx=".36" ry=".38" fill="#074578"/><ellipse cx="30.31" cy="36.15" rx=".36" ry=".38" fill="#074578"/><ellipse cx="31.57" cy="35.68" rx=".36" ry=".38" fill="#074578"/><ellipse cx="32.84" cy="34.83" rx=".36" ry=".38" fill="#074578"/><ellipse cx="33.83" cy="33.88" rx=".27" ry=".28" fill="#074578"/><ellipse cx="34.64" cy="32.66" rx=".27" ry=".28" fill="#074578"/><ellipse cx="35.19" cy="31.43" rx=".27" ry=".28" fill="#074578"/><ellipse cx="35.64" cy="30.01" rx=".27" ry=".28" fill="#074578"/><ellipse cx="35.73" cy="28.59" rx=".27" ry=".28" fill="#074578"/><ellipse cx="18.63" cy="21.73" rx="1.09" ry="1.08" fill="#43C2BB"/><ellipse cx="20.26" cy="20.03" rx="1.09" ry="1.08" fill="#43C2BB"/><ellipse cx="22.07" cy="18.69" rx="1.09" ry="1.08" fill="#43C2BB"/><ellipse cx="24.06" cy="17.7" rx="1.09" ry="1.08" fill="#43C2BB"/><ellipse cx="26.1" cy="17.12" rx=".95" ry=".94" fill="#43C2BB"/><ellipse cx="28.36" cy="16.94" rx=".95" ry=".94" fill="#43C2BB"/><ellipse cx="30.45" cy="17.12" rx=".95" ry=".94" fill="#43C2BB"/><ellipse cx="32.53" cy="17.66" rx=".95" ry=".94" fill="#43C2BB"/><ellipse cx="34.48" cy="18.6" rx=".91" ry=".9" fill="#43C2BB"/><ellipse cx="36.2" cy="19.85" rx=".82" ry=".81" fill="#43C2BB"/><ellipse cx="37.65" cy="21.47" rx=".82" ry=".81" fill="#43C2BB"/><ellipse cx="38.92" cy="23.26" rx=".82" ry=".81" fill="#43C2BB"/><ellipse cx="39.73" cy="25.23" rx=".82" ry=".81" fill="#43C2BB"/><circle cx="40.18" cy="27.29" fill="#43C2BB" r=".72"/><circle cx="40.28" cy="29.44" fill="#43C2BB" r=".72"/><circle cx="39.91" cy="31.5" fill="#43C2BB" r=".72"/><circle cx="39.19" cy="33.65" fill="#43C2BB" r=".72"/><circle cx="38.19" cy="35.44" fill="#43C2BB" r=".72"/><circle cx="36.92" cy="37.15" fill="#43C2BB" r=".72"/><circle cx="35.11" cy="38.49" fill="#43C2BB" r=".72"/><circle cx="33.21" cy="39.48" fill="#43C2BB" r=".63"/><circle cx="31.22" cy="40.19" fill="#43C2BB" r=".63"/><circle cx="29.04" cy="40.46" fill="#43C2BB" r=".54"/><circle cx="26.87" cy="40.46" fill="#43C2BB" r=".54"/><circle cx="24.79" cy="40.01" fill="#43C2BB" r=".54"/><ellipse cx="22.75" cy="39.25" rx=".5" ry=".49" fill="#43C2BB"/><ellipse cx="20.85" cy="38.09" rx=".5" ry=".49" fill="#43C2BB"/><circle cx="19.44" cy="36.61" fill="#43C2BB" r=".45"/><circle cx="18.08" cy="34.91" fill="#43C2BB" r=".45"/><circle cx="17.09" cy="33.03" fill="#43C2BB" r=".45"/><ellipse cx="16.59" cy="30.83" rx=".41" ry=".4" fill="#43C2BB"/><ellipse cx="16.41" cy="28.77" rx=".41" ry=".4" fill="#43C2BB"/><ellipse cx="16.68" cy="26.44" rx=".41" ry=".4" fill="#43C2BB"/><ellipse cx="17.4" cy="24.47" rx=".41" ry=".4" fill="#43C2BB"/><ellipse cx="38.99" cy="16.59" rx="1.48" ry="1.47" fill="#074578"/><ellipse cx="36.55" cy="14.8" rx="1.34" ry="1.33" fill="#074578"/><ellipse cx="33.87" cy="13.43" rx="1.34" ry="1.33" fill="#074578"/><ellipse cx="31" cy="12.6" rx="1.34" ry="1.33" fill="#074578"/><ellipse cx="28.14" cy="12.33" rx="1.34" ry="1.33" fill="#074578"/><ellipse cx="25.18" cy="12.51" rx="1.25" ry="1.24" fill="#074578"/><ellipse cx="22.5" cy="13.34" rx="1.25" ry="1.24" fill="#074578"/><ellipse cx="19.82" cy="14.53" rx="1.25" ry="1.24" fill="#074578"/><circle cx="17.42" cy="16.27" fill="#074578" r="1.15"/><circle cx="15.48" cy="18.38" fill="#074578" r="1.15"/><ellipse cx="13.96" cy="20.81" rx="1.11" ry="1.1" fill="#074578"/><ellipse cx="12.85" cy="23.46" rx="1.11" ry="1.1" fill="#074578"/><ellipse cx="12.11" cy="26.3" rx="1.11" ry="1.1" fill="#074578"/><ellipse cx="12.02" cy="29.24" rx="1.02" ry="1.01" fill="#074578"/><ellipse cx="12.57" cy="32.08" rx="1.02" ry="1.01" fill="#074578"/><ellipse cx="13.4" cy="34.74" rx="1.02" ry="1.01" fill="#074578"/><circle cx="14.88" cy="37.21" fill="#074578" r=".92"/><circle cx="16.73" cy="39.5" fill="#074578" r=".92"/><circle cx="19.04" cy="41.33" fill="#074578" r=".92"/><circle cx="21.53" cy="42.71" fill="#074578" r=".92"/><ellipse cx="24.21" cy="43.63" rx=".83" ry=".82" fill="#074578"/><ellipse cx="27.17" cy="44.18" rx=".83" ry=".82" fill="#074578"/><ellipse cx="30.08" cy="44.04" rx=".79" ry=".78" fill="#074578"/><ellipse cx="32.85" cy="43.49" rx=".79" ry=".78" fill="#074578"/><ellipse cx="35.48" cy="42.34" rx=".74" ry=".73" fill="#074578"/><ellipse cx="37.98" cy="40.78" rx=".65" ry=".64" fill="#074578"/><ellipse cx="40.1" cy="38.77" rx=".65" ry=".64" fill="#074578"/><circle cx="41.81" cy="36.43" fill="#074578" r=".6"/><circle cx="43.11" cy="33.87" fill="#074578" r=".6"/><circle cx="43.98" cy="31.07" fill="#074578" r=".55"/><circle cx="44.45" cy="28.41" fill="#074578" r=".55"/><circle cx="44.26" cy="25.75" fill="#074578" r=".55"/><circle cx="43.71" cy="23.19" fill="#074578" r=".55"/><circle cx="42.69" cy="21.08" fill="#074578" r=".46"/><circle cx="41.49" cy="19.25" fill="#074578" r=".46"/></svg>