<!-- by TradingView --><svg xmlns="http://www.w3.org/2000/svg" width="56" height="56"><path d="M0 28a28 28 0 1156 0 28 28 0 01-56 0z" fill="#F0F3FA"/><path d="M27.8 25.58c-.07 0-.14-.07-.17-.14l-1.43-13.2c0-.05 0-.1.03-.12a.19.19 0 01.12-.05l.56-.05c.04 0 .1 0 .12.05.02.03.05.08.05.12l.87 13.22v.05c0 .05-.07.12-.15.12z" fill="url(#a3ihw4jtd)"/><path d="M27.34 25.66c-.07 0-.14-.05-.14-.13L23.48 12.8c-.02-.05 0-.1.03-.12.02-.05.04-.07.1-.07l.55-.15c.05 0 .1 0 .12.03.05.02.08.04.08.1l3.15 12.85.03.07a.21.21 0 01-.2.15z" fill="url(#b3ihw4jtd)"/><path d="M26.93 25.8c-.05 0-.12-.02-.15-.1l-5.85-11.9c-.02-.05-.02-.07 0-.12a.29.29 0 01.08-.1l.5-.24c.05-.03.08-.03.13 0 .05.02.07.04.1.1l5.34 12.12c.02.02.02.05.02.1-.02.07-.1.14-.17.14z" fill="url(#c3ihw4jtd)"/><path d="M26.52 26.04a.13.13 0 01-.12-.07l-7.85-10.71c-.02-.03-.02-.08-.02-.13 0-.04.02-.07.07-.1l.46-.33c.03-.03.08-.03.12-.03.05 0 .08.03.1.08l7.36 11 .05.1c0 .12-.08.2-.17.2z" fill="url(#d3ihw4jtd)"/><path d="M26.18 26.34c-.05 0-.08-.03-.12-.05l-9.57-9.19a.19.19 0 01-.05-.12c0-.05.03-.1.05-.12l.41-.41a.19.19 0 01.12-.05c.05 0 .08.02.13.05l9.15 9.57c.05.02.07.07.07.12-.02.12-.1.2-.2.2z" fill="url(#e3ihw4jtd)"/><path d="M25.89 26.68c-.03 0-.08 0-.1-.03l-11.02-7.38c-.03-.03-.05-.08-.08-.1 0-.05 0-.1.03-.12l.34-.47c.02-.04.07-.07.1-.07.04 0 .1 0 .12.03l10.68 7.82c.05.02.07.07.07.15.03.1-.05.17-.14.17z" fill="url(#f3ihw4jtd)"/><path d="M25.64 27.06c-.02 0-.05 0-.07-.02l-12.14-5.35a.19.19 0 01-.1-.1c-.02-.04-.02-.09 0-.11l.25-.51a.19.19 0 01.1-.1c.04-.03.09 0 .11 0l11.88 5.85c.07.03.1.08.1.15.04.12-.03.2-.13.2z" fill="url(#g3ihw4jtd)"/><path d="M25.5 27.48h-.05l-12.87-3.16c-.05 0-.07-.05-.1-.07-.02-.05-.02-.08-.02-.13l.14-.55c0-.05.05-.08.08-.1.05-.03.07-.03.12-.03l12.72 3.72c.07.03.12.07.12.17.03.07-.05.15-.14.15z" fill="url(#h3ihw4jtd)"/><path d="M25.42 27.94l-13.25-.88c-.05 0-.08-.02-.12-.04a.19.19 0 01-.05-.13l.05-.55c0-.05.02-.08.04-.13a.19.19 0 01.13-.04L25.4 27.6c.1 0 .15.07.15.17.02.1-.05.17-.13.17z" fill="url(#i3ihw4jtd)"/><path d="M12.24 29.83l-.1-.02a.19.19 0 01-.05-.12l-.04-.56c0-.05 0-.1.04-.12a.19.19 0 01.13-.05l13.18-.9c.1 0 .17.05.17.15 0 .1-.05.17-.15.17l-13.18 1.45z" fill="url(#j3ihw4jtd)"/><path d="M12.6 32.43l-.14-.55c-.02-.08 0-.18.12-.2l12.9-3.16c.07-.02.16.03.19.12.02.1-.03.17-.12.2l-12.75 3.7c-.08 0-.2-.02-.2-.1z" fill="url(#k3ihw4jtd)"/><path d="M13.6 35.06l-.24-.51c-.05-.09.01-.18.1-.22l12.13-5.35a.2.2 0 01.22.08c.05.07 0 .17-.07.22l-11.9 5.88c-.09.03-.19 0-.24-.1z" fill="url(#l3ihw4jtd)"/><path d="M15.18 37.49h-.03c-.04 0-.07-.03-.1-.07l-.33-.47c-.03-.04-.03-.07-.03-.12 0-.05.03-.07.08-.1l11.02-7.38a.16.16 0 11.17.27l-10.7 7.84c-.03.03-.06.03-.08.03z" fill="url(#m3ihw4jtd)"/><path d="M16.98 39.6c-.05 0-.08-.02-.13-.05l-.4-.4a.19.19 0 01-.06-.13c0-.05.03-.07.05-.12l9.62-9.16a.15.15 0 01.21 0c.08.07.08.17 0 .22l-9.17 9.57c-.03.05-.08.05-.13.07z" fill="url(#n3ihw4jtd)"/><path d="M19.14 41.33c-.03 0-.08 0-.1-.03l-.46-.34c-.05-.02-.05-.07-.08-.1 0-.04 0-.1.03-.12l7.84-10.69c.05-.07.15-.1.22-.05s.1.15.05.22l-7.38 11.03c-.03.03-.08.08-.1.08h-.02z" fill="url(#o3ihw4jtd)"/><path d="M21.54 42.66c-.02 0-.05 0-.07-.02l-.51-.24c-.05-.03-.08-.05-.08-.1-.02-.05-.02-.1 0-.12l5.86-11.9c.04-.08.12-.13.21-.08.08.05.13.12.08.22l-5.34 12.15a.19.19 0 01-.1.1h-.05z" fill="url(#p3ihw4jtd)"/><path d="M24.16 43.59h-.05l-.56-.15a.34.34 0 01-.1-.07c-.02-.05-.02-.07-.02-.12l3.72-12.74c.02-.07.12-.12.2-.12.07.03.14.12.11.2l-3.15 12.88c0 .04-.05.07-.08.1l-.07.02z" fill="url(#q3ihw4jtd)"/><path d="M26.9 44c-.02 0-.02 0 0 0l-.58-.05c-.05 0-.07-.02-.12-.05-.02-.02-.05-.07-.02-.12l1.43-13.2c0-.09.1-.14.17-.14.1 0 .14.07.14.17l-.87 13.24c0 .05-.02.08-.05.13-.02.02-.07.02-.1.02z" fill="url(#r3ihw4jtd)"/><path d="M29.09 44c-.05 0-.07-.02-.1-.05a.19.19 0 01-.05-.12l-.87-13.24c0-.1.05-.17.15-.17.1 0 .17.05.17.14l1.43 13.2c0 .05 0 .1-.03.12a.19.19 0 01-.12.05l-.58.07z" fill="url(#s3ihw4jtd)"/><path d="M31.66 43.47l-3.15-12.88c-.03-.1.02-.17.12-.2.07-.02.17.03.2.12l3.7 12.74c0 .13-.05.18-.17.2l-.46.13c-.08.02-.24 0-.24-.11z" fill="url(#t3ihw4jtd)"/><path d="M34.29 42.6l-5.35-12.16a.2.2 0 01.08-.22c.07-.05.17 0 .22.08l5.85 11.9c.05.1-.04.2-.13.24l-.41.2c-.1.05-.2.08-.26-.05z" fill="url(#u3ihw4jtd)"/><path d="M36.74 41.28l-7.38-11.03a.16.16 0 01.26-.17l7.85 10.71c.06.07.02.19-.05.22l-.42.31c-.07.05-.21.05-.26-.04z" fill="url(#v3ihw4jtd)"/><path d="M38.88 39.55l-9.16-9.57c-.05-.07-.05-.17 0-.22.07-.07.17-.07.22 0l9.57 9.19c.07.07.06.16 0 .24l-.37.36c-.08.08-.18.09-.27 0z" fill="url(#w3ihw4jtd)"/><path d="M40.6 37.43l-10.56-7.79a.16.16 0 01.17-.27l11.02 7.39c.1.1.08.18 0 .28l-.31.42c-.13.13-.2.05-.32-.03z" fill="url(#x3ihw4jtd)"/><path d="M42.18 35.13l-11.9-5.85c-.07-.05-.12-.13-.07-.22.05-.08.12-.12.22-.08l12.14 5.35c.06.03.13.15.1.22l-.25.5c-.06.11-.17.13-.24.08z" fill="url(#y3ihw4jtd)"/><path d="M43.2 32.58l-12.73-3.72c-.07-.02-.12-.12-.12-.2.03-.06.12-.14.2-.11l12.87 3.16c.04 0 .07.04.1.07.02.05.02.07.02.12l-.15.56c-.03.12-.12.14-.2.12z" fill="url(#z3ihw4jtd)"/><path d="M43.78 29.86l-13.2-1.43c-.1 0-.15-.1-.15-.17 0-.1.07-.15.17-.15l13.23.87c.05 0 .07.03.12.05.02.03.05.08.05.12l-.05.56c0 .05-.03.08-.05.12-.05.03-.1.03-.12.03z" fill="url(#aa3ihw4jtd)"/><path d="M30.6 27.96c-.08 0-.15-.07-.17-.14 0-.1.04-.17.14-.17l13.19-1.44c.04 0 .1 0 .12.03.02.02.04.07.04.12l.05.56c0 .05 0 .1-.05.12a.19.19 0 01-.12.05l-13.2.87z" fill="url(#ab3ihw4jtd)"/><path d="M30.52 27.53c-.07 0-.14-.05-.14-.13-.03-.1.02-.17.12-.19l12.72-3.72c.05-.02.1 0 .12.03.05.02.08.05.08.1l.14.55c0 .05 0 .1-.02.12-.03.05-.05.08-.1.08l-12.87 3.16h-.05z" fill="url(#ac3ihw4jtd)"/><path d="M30.38 27.09c-.05 0-.12-.03-.15-.1-.05-.07 0-.17.07-.22l11.9-5.85c.05-.03.07-.03.12 0 .05.02.08.05.1.07l.24.51c.03.05.03.1 0 .12a.19.19 0 01-.1.1l-12.13 5.34c-.03.03-.03.03-.05.03z" fill="url(#ad3ihw4jtd)"/><path d="M30.13 26.7a.13.13 0 01-.12-.07.16.16 0 01.05-.22l10.68-7.85c.03-.02.08-.05.13-.02.04 0 .07.02.1.07l.33.46c.03.05.03.07.03.12 0 .05-.03.07-.08.1l-11.02 7.39-.1.02z" fill="url(#ae3ihw4jtd)"/><path d="M29.84 26.34c-.05 0-.07-.03-.12-.05-.07-.08-.07-.17 0-.22l9.18-9.57a.19.19 0 01.12-.05c.05 0 .1.02.12.05l.41.4c.03.03.05.08.05.13s-.02.07-.05.12l-9.59 9.16c-.02.03-.07.03-.12.03z" fill="url(#af3ihw4jtd)"/><path d="M29.5 26.04c-.02 0-.07 0-.1-.02a.16.16 0 01-.04-.22l7.38-11.03c.02-.02.07-.07.1-.07.04 0 .1 0 .12.02l.46.34.07.1c0 .05 0 .1-.02.12L29.65 26c-.05.02-.1.04-.15.04z" fill="url(#ag3ihw4jtd)"/><path d="M29.11 25.83c-.02 0-.04 0-.07-.03-.07-.05-.12-.12-.07-.22l5.34-12.15a.19.19 0 01.1-.1c.05-.02.1-.02.12 0l.5.25c.06.02.08.05.08.1.03.05 0 .1 0 .12l-5.85 11.9c-.02.1-.07.13-.15.13z" fill="url(#ah3ihw4jtd)"/><path d="M28.7 25.66h-.05c-.07-.03-.14-.13-.12-.2l3.16-12.9c.02-.03.05-.07.07-.07.05-.03.07-.03.12-.03l.56.15c.05 0 .07.05.1.07.02.05.02.07.02.12l-3.71 12.76a.15.15 0 01-.15.1z" fill="url(#ai3ihw4jtd)"/><path d="M28.24 25.58c-.1 0-.17-.1-.17-.17l.87-13.24c0-.05.03-.07.05-.12a.19.19 0 01.12-.05l.59.05c.05 0 .07.02.12.05.02.02.05.07.02.12l-1.43 13.2c-.02.11-.07.16-.17.16z" fill="url(#aj3ihw4jtd)"/><defs><linearGradient id="a3ihw4jtd" x1="28.02" y1="12.58" x2="26.5" y2="25.08" gradientUnits="userSpaceOnUse"><stop stop-color="#5B7E96"/><stop offset=".22" stop-color="#7E9DB3"/><stop offset=".48" stop-color="#BDD5E9"/><stop offset=".68" stop-color="#A7C2D7"/><stop offset=".83" stop-color="#6A8BA3"/><stop offset="1" stop-color="#5C7F97"/></linearGradient><linearGradient id="b3ihw4jtd" x1="27.71" y1="13" x2="27.08" y2="25.31" gradientUnits="userSpaceOnUse"><stop stop-color="#5B7E96"/><stop offset=".22" stop-color="#7E9DB3"/><stop offset=".48" stop-color="#BDD5E9"/><stop offset=".68" stop-color="#A7C2D7"/><stop offset=".83" stop-color="#6A8BA3"/><stop offset="1" stop-color="#5C7F97"/></linearGradient><linearGradient id="c3ihw4jtd" x1="27.36" y1="13.83" x2="26.99" y2="25.5" gradientUnits="userSpaceOnUse"><stop stop-color="#5B7E96"/><stop offset=".22" stop-color="#7E9DB3"/><stop offset=".48" stop-color="#BDD5E9"/><stop offset=".68" stop-color="#A7C2D7"/><stop offset=".83" stop-color="#6A8BA3"/><stop offset="1" stop-color="#5C7F97"/></linearGradient><linearGradient id="d3ihw4jtd" x1="26.5" y1="26" x2="29.36" y2="21.32" gradientUnits="userSpaceOnUse"><stop stop-color="#5B7E96"/><stop offset=".22" stop-color="#7E9DB3"/><stop offset=".38" stop-color="#ADC7DC"/><stop offset=".48" stop-color="#BCD4E8"/><stop offset=".6" stop-color="#ADC7DC"/><stop offset=".72" stop-color="#84A2B9"/><stop offset="1" stop-color="#5C7F97"/></linearGradient><linearGradient id="e3ihw4jtd" x1="26" y1="26" x2="27.72" y2="20.13" gradientUnits="userSpaceOnUse"><stop stop-color="#5B7E96"/><stop offset=".22" stop-color="#7E9DB3"/><stop offset=".38" stop-color="#ADC7DC"/><stop offset=".48" stop-color="#BCD4E8"/><stop offset=".6" stop-color="#ADC7DC"/><stop offset=".72" stop-color="#84A2B9"/><stop offset="1" stop-color="#5C7F97"/></linearGradient><linearGradient id="f3ihw4jtd" x1="26" y1="26.5" x2="26.36" y2="19.59" gradientUnits="userSpaceOnUse"><stop stop-color="#5B7E96"/><stop offset=".22" stop-color="#7E9DB3"/><stop offset=".38" stop-color="#ADC7DC"/><stop offset=".48" stop-color="#BCD4E8"/><stop offset=".6" stop-color="#ADC7DC"/><stop offset=".72" stop-color="#84A2B9"/><stop offset="1" stop-color="#5C7F97"/></linearGradient><linearGradient id="g3ihw4jtd" x1="25.5" y1="27" x2="24.85" y2="20.42" gradientUnits="userSpaceOnUse"><stop stop-color="#5B7E96"/><stop offset=".22" stop-color="#7E9DB3"/><stop offset=".38" stop-color="#ADC7DC"/><stop offset=".48" stop-color="#BCD4E8"/><stop offset=".6" stop-color="#ADC7DC"/><stop offset=".72" stop-color="#84A2B9"/><stop offset="1" stop-color="#5C7F97"/></linearGradient><linearGradient id="h3ihw4jtd" x1="25.5" y1="27.5" x2="24.42" y2="21.82" gradientUnits="userSpaceOnUse"><stop stop-color="#5B7E96"/><stop offset=".22" stop-color="#7E9DB3"/><stop offset=".38" stop-color="#ADC7DC"/><stop offset=".48" stop-color="#BCD4E8"/><stop offset=".6" stop-color="#ADC7DC"/><stop offset=".72" stop-color="#84A2B9"/><stop offset="1" stop-color="#5C7F97"/></linearGradient><linearGradient id="i3ihw4jtd" x1="25.5" y1="28" x2="25.06" y2="24.79" gradientUnits="userSpaceOnUse"><stop stop-color="#5B7E96"/><stop offset=".22" stop-color="#7E9DB3"/><stop offset=".38" stop-color="#ADC7DC"/><stop offset=".48" stop-color="#BCD4E8"/><stop offset=".6" stop-color="#ADC7DC"/><stop offset=".72" stop-color="#84A2B9"/><stop offset="1" stop-color="#5C7F97"/></linearGradient><linearGradient id="j3ihw4jtd" x1="25.39" y1="28.05" x2="24.24" y2="25.08" gradientUnits="userSpaceOnUse"><stop stop-color="#5B7E96"/><stop offset=".22" stop-color="#7E9DB3"/><stop offset=".38" stop-color="#ADC7DC"/><stop offset=".48" stop-color="#BCD4E8"/><stop offset=".6" stop-color="#ADC7DC"/><stop offset=".72" stop-color="#84A2B9"/><stop offset="1" stop-color="#5C7F97"/></linearGradient><linearGradient id="k3ihw4jtd" x1="25.5" y1="28.5" x2="21.64" y2="24.22" gradientUnits="userSpaceOnUse"><stop stop-color="#5B7E96"/><stop offset=".22" stop-color="#7E9DB3"/><stop offset=".38" stop-color="#ADC7DC"/><stop offset=".48" stop-color="#BCD4E8"/><stop offset=".6" stop-color="#ADC7DC"/><stop offset=".72" stop-color="#84A2B9"/><stop offset="1" stop-color="#5C7F97"/></linearGradient><linearGradient id="l3ihw4jtd" x1="25.5" y1="29" x2="17.86" y2="25.5" gradientUnits="userSpaceOnUse"><stop stop-color="#5B7E96"/><stop offset=".22" stop-color="#7E9DB3"/><stop offset=".38" stop-color="#ADC7DC"/><stop offset=".48" stop-color="#BCD4E8"/><stop offset=".6" stop-color="#ADC7DC"/><stop offset=".72" stop-color="#84A2B9"/><stop offset="1" stop-color="#5C7F97"/></linearGradient><linearGradient id="m3ihw4jtd" x1="26" y1="29.5" x2="15.92" y2="28.42" gradientUnits="userSpaceOnUse"><stop stop-color="#5B7E96"/><stop offset=".22" stop-color="#7E9DB3"/><stop offset=".38" stop-color="#ADC7DC"/><stop offset=".48" stop-color="#BCD4E8"/><stop offset=".6" stop-color="#ADC7DC"/><stop offset=".72" stop-color="#84A2B9"/><stop offset="1" stop-color="#5C7F97"/></linearGradient><linearGradient id="n3ihw4jtd" x1="26" y1="30" x2="15.44" y2="32.57" gradientUnits="userSpaceOnUse"><stop stop-color="#5B7E96"/><stop offset=".22" stop-color="#7E9DB3"/><stop offset=".38" stop-color="#ADC7DC"/><stop offset=".48" stop-color="#BCD4E8"/><stop offset=".6" stop-color="#ADC7DC"/><stop offset=".72" stop-color="#84A2B9"/><stop offset="1" stop-color="#5C7F97"/></linearGradient><linearGradient id="o3ihw4jtd" x1="26" y1="30.5" x2="16.46" y2="36.4" gradientUnits="userSpaceOnUse"><stop stop-color="#5B7E96"/><stop offset=".22" stop-color="#7E9DB3"/><stop offset=".38" stop-color="#ADC7DC"/><stop offset=".48" stop-color="#BCD4E8"/><stop offset=".6" stop-color="#ADC7DC"/><stop offset=".72" stop-color="#84A2B9"/><stop offset="1" stop-color="#5C7F97"/></linearGradient><linearGradient id="p3ihw4jtd" x1="26.5" y1="31" x2="18.98" y2="39.85" gradientUnits="userSpaceOnUse"><stop stop-color="#5B7E96"/><stop offset=".22" stop-color="#7E9DB3"/><stop offset=".38" stop-color="#ADC7DC"/><stop offset=".48" stop-color="#BCD4E8"/><stop offset=".6" stop-color="#ADC7DC"/><stop offset=".72" stop-color="#84A2B9"/><stop offset="1" stop-color="#5C7F97"/></linearGradient><linearGradient id="q3ihw4jtd" x1="27" y1="31" x2="22.33" y2="41.77" gradientUnits="userSpaceOnUse"><stop stop-color="#5B7E96"/><stop offset=".22" stop-color="#7E9DB3"/><stop offset=".48" stop-color="#BDD5E9"/><stop offset=".68" stop-color="#A7C2D7"/><stop offset=".83" stop-color="#6A8BA3"/><stop offset="1" stop-color="#5C7F97"/></linearGradient><linearGradient id="r3ihw4jtd" x1="28" y1="31" x2="26.49" y2="43.5" gradientUnits="userSpaceOnUse"><stop stop-color="#5B7E96"/><stop offset=".22" stop-color="#7E9DB3"/><stop offset=".48" stop-color="#BDD5E9"/><stop offset=".68" stop-color="#A7C2D7"/><stop offset=".83" stop-color="#6A8BA3"/><stop offset="1" stop-color="#5C7F97"/></linearGradient><linearGradient id="s3ihw4jtd" x1="28.5" y1="31" x2="29.5" y2="43.5" gradientUnits="userSpaceOnUse"><stop stop-color="#5B7E96"/><stop offset=".22" stop-color="#7E9DB3"/><stop offset=".38" stop-color="#ADC7DC"/><stop offset=".48" stop-color="#BCD4E8"/><stop offset=".6" stop-color="#ADC7DC"/><stop offset=".72" stop-color="#84A2B9"/><stop offset="1" stop-color="#5C7F97"/></linearGradient><linearGradient id="t3ihw4jtd" x1="32.07" y1="30.99" x2="27.39" y2="41.77" gradientUnits="userSpaceOnUse"><stop stop-color="#5B7E96"/><stop offset=".22" stop-color="#7E9DB3"/><stop offset=".48" stop-color="#BDD5E9"/><stop offset=".68" stop-color="#A7C2D7"/><stop offset=".83" stop-color="#6A8BA3"/><stop offset="1" stop-color="#5C7F97"/></linearGradient><linearGradient id="u3ihw4jtd" x1="34.39" y1="30.78" x2="31.35" y2="42.07" gradientUnits="userSpaceOnUse"><stop stop-color="#5B7E96"/><stop offset=".22" stop-color="#7E9DB3"/><stop offset=".48" stop-color="#BDD5E9"/><stop offset=".68" stop-color="#A7C2D7"/><stop offset=".83" stop-color="#6A8BA3"/><stop offset="1" stop-color="#5C7F97"/></linearGradient><linearGradient id="v3ihw4jtd" x1="36.55" y1="30.53" x2="34.59" y2="41.18" gradientUnits="userSpaceOnUse"><stop stop-color="#5B7E96"/><stop offset=".22" stop-color="#7E9DB3"/><stop offset=".48" stop-color="#BDD5E9"/><stop offset=".68" stop-color="#A7C2D7"/><stop offset=".83" stop-color="#6A8BA3"/><stop offset="1" stop-color="#5C7F97"/></linearGradient><linearGradient id="w3ihw4jtd" x1="38.41" y1="30.16" x2="37.16" y2="39.61" gradientUnits="userSpaceOnUse"><stop stop-color="#5B7E96"/><stop offset=".22" stop-color="#7E9DB3"/><stop offset=".48" stop-color="#BDD5E9"/><stop offset=".68" stop-color="#A7C2D7"/><stop offset=".83" stop-color="#6A8BA3"/><stop offset="1" stop-color="#5C7F97"/></linearGradient><linearGradient id="x3ihw4jtd" x1="39.98" y1="29.72" x2="39.23" y2="37.59" gradientUnits="userSpaceOnUse"><stop stop-color="#5B7E96"/><stop offset=".22" stop-color="#7E9DB3"/><stop offset=".48" stop-color="#BDD5E9"/><stop offset=".68" stop-color="#A7C2D7"/><stop offset=".83" stop-color="#6A8BA3"/><stop offset="1" stop-color="#5C7F97"/></linearGradient><linearGradient id="y3ihw4jtd" x1="41.22" y1="29.25" x2="40.83" y2="35.23" gradientUnits="userSpaceOnUse"><stop stop-color="#5B7E96"/><stop offset=".22" stop-color="#7E9DB3"/><stop offset=".48" stop-color="#BDD5E9"/><stop offset=".68" stop-color="#A7C2D7"/><stop offset=".83" stop-color="#6A8BA3"/><stop offset="1" stop-color="#5C7F97"/></linearGradient><linearGradient id="z3ihw4jtd" x1="42.01" y1="28.73" x2="41.85" y2="32.65" gradientUnits="userSpaceOnUse"><stop stop-color="#5B7E96"/><stop offset=".22" stop-color="#7E9DB3"/><stop offset=".48" stop-color="#BDD5E9"/><stop offset=".68" stop-color="#A7C2D7"/><stop offset=".83" stop-color="#6A8BA3"/><stop offset="1" stop-color="#5C7F97"/></linearGradient><linearGradient id="aa3ihw4jtd" x1="43.64" y1="28.12" x2="41.19" y2="23.8" gradientUnits="userSpaceOnUse"><stop stop-color="#5B7E96"/><stop offset=".22" stop-color="#7E9DB3"/><stop offset=".38" stop-color="#ADC7DC"/><stop offset=".48" stop-color="#BCD4E8"/><stop offset=".6" stop-color="#ADC7DC"/><stop offset=".72" stop-color="#84A2B9"/><stop offset="1" stop-color="#5C7F97"/></linearGradient><linearGradient id="ab3ihw4jtd" x1="43.8" y1="26.21" x2="42.67" y2="23.26" gradientUnits="userSpaceOnUse"><stop stop-color="#5B7E96"/><stop offset=".22" stop-color="#7E9DB3"/><stop offset=".38" stop-color="#ADC7DC"/><stop offset=".48" stop-color="#BCD4E8"/><stop offset=".6" stop-color="#ADC7DC"/><stop offset=".72" stop-color="#84A2B9"/><stop offset="1" stop-color="#5C7F97"/></linearGradient><linearGradient id="ac3ihw4jtd" x1="43.39" y1="23.47" x2="39.5" y2="19.19" gradientUnits="userSpaceOnUse"><stop stop-color="#5B7E96"/><stop offset=".22" stop-color="#7E9DB3"/><stop offset=".38" stop-color="#ADC7DC"/><stop offset=".48" stop-color="#BCD4E8"/><stop offset=".6" stop-color="#ADC7DC"/><stop offset=".72" stop-color="#84A2B9"/><stop offset="1" stop-color="#5C7F97"/></linearGradient><linearGradient id="ad3ihw4jtd" x1="33.27" y1="21.16" x2="33.3" y2="26.9" gradientUnits="userSpaceOnUse"><stop stop-color="#5B7E96"/><stop offset=".22" stop-color="#7E9DB3"/><stop offset=".38" stop-color="#ADC7DC"/><stop offset=".48" stop-color="#BCD4E8"/><stop offset=".6" stop-color="#ADC7DC"/><stop offset=".72" stop-color="#84A2B9"/><stop offset="1" stop-color="#5C7F97"/></linearGradient><linearGradient id="ae3ihw4jtd" x1="32.77" y1="18.88" x2="32.83" y2="26.45" gradientUnits="userSpaceOnUse"><stop stop-color="#5B7E96"/><stop offset=".22" stop-color="#7E9DB3"/><stop offset=".38" stop-color="#ADC7DC"/><stop offset=".48" stop-color="#BCD4E8"/><stop offset=".6" stop-color="#ADC7DC"/><stop offset=".72" stop-color="#84A2B9"/><stop offset="1" stop-color="#5C7F97"/></linearGradient><linearGradient id="af3ihw4jtd" x1="32.11" y1="16.87" x2="32.2" y2="26.03" gradientUnits="userSpaceOnUse"><stop stop-color="#5B7E96"/><stop offset=".22" stop-color="#7E9DB3"/><stop offset=".38" stop-color="#ADC7DC"/><stop offset=".48" stop-color="#BCD4E8"/><stop offset=".6" stop-color="#ADC7DC"/><stop offset=".72" stop-color="#84A2B9"/><stop offset="1" stop-color="#5C7F97"/></linearGradient><linearGradient id="ag3ihw4jtd" x1="31.34" y1="15.18" x2="31.49" y2="25.69" gradientUnits="userSpaceOnUse"><stop stop-color="#5B7E96"/><stop offset=".22" stop-color="#7E9DB3"/><stop offset=".38" stop-color="#ADC7DC"/><stop offset=".48" stop-color="#BCD4E8"/><stop offset=".6" stop-color="#ADC7DC"/><stop offset=".72" stop-color="#84A2B9"/><stop offset="1" stop-color="#5C7F97"/></linearGradient><linearGradient id="ah3ihw4jtd" x1="30.47" y1="13.85" x2="30.71" y2="25.43" gradientUnits="userSpaceOnUse"><stop stop-color="#5B7E96"/><stop offset=".22" stop-color="#7E9DB3"/><stop offset=".38" stop-color="#ADC7DC"/><stop offset=".48" stop-color="#BCD4E8"/><stop offset=".6" stop-color="#ADC7DC"/><stop offset=".72" stop-color="#84A2B9"/><stop offset="1" stop-color="#5C7F97"/></linearGradient><linearGradient id="ai3ihw4jtd" x1="29.52" y1="13.03" x2="29.93" y2="25.23" gradientUnits="userSpaceOnUse"><stop stop-color="#5B7E96"/><stop offset=".22" stop-color="#7E9DB3"/><stop offset=".38" stop-color="#ADC7DC"/><stop offset=".48" stop-color="#BCD4E8"/><stop offset=".6" stop-color="#ADC7DC"/><stop offset=".72" stop-color="#84A2B9"/><stop offset="1" stop-color="#5C7F97"/></linearGradient><linearGradient id="aj3ihw4jtd" x1="28.51" y1="12.58" x2="29.49" y2="25.09" gradientUnits="userSpaceOnUse"><stop stop-color="#5B7E96"/><stop offset=".22" stop-color="#7E9DB3"/><stop offset=".38" stop-color="#ADC7DC"/><stop offset=".48" stop-color="#BCD4E8"/><stop offset=".6" stop-color="#ADC7DC"/><stop offset=".72" stop-color="#84A2B9"/><stop offset="1" stop-color="#5C7F97"/></linearGradient></defs></svg>