<!-- by TradingView --><svg xmlns="http://www.w3.org/2000/svg" width="56" height="56" viewBox="0 0 56 56"><path fill="#F0F3FA" d="M0 0h56v56H0z"/><path d="m20.17 37.76 4.42.27c2.32.11 4.26.22 5.72.22 5.4 0 8.3-1.48 9.97-3.3a8.16 8.16 0 0 0 2.27-5.16c0-.27-.05-.71-.05-.77-.24-5.93-8.15-5.93-8.58-5.93h-1.3c-1.54.08-3.09.06-4.63-.06-1.89-.22-2.05.55-1.94.06.6-2.91 5.88-1.59 5.88-1.59l6.63.17L41 16s-14.14-.16-16.4 0c-2.27.16-6.4 1.65-6.73 6.92-.32 5.28 6.45 5.72 10.55 6.1l5.5-.05c4.15-.22-.73 3.28-.73 3.28-.33 2.8 1.44-2.13 1.44-2.13-1.35.22-9.98-.11-10.68-.33l-3.78 7.97Z" fill="#1350A1"/><path d="m12 43 14.27-23h9.8c4.1 0 8.93 2.52 8.93 8.19 0 .4-.02.81-.06 1.25C44.3 36 39.38 40 31.3 40H19.94l-1.82 3H12Zm17.53-7c4.32.15 9.52-.24 11.28-5.56.15-.44.19-.9.19-1.38C41 26 38.93 24 35.75 24h-6.22l-6.9 12h6.9Z" fill="#58C2AB"/><path d="m37 12-2.06 4h-9.56c-3.72 0-6.6 2.02-7.32 6-.07.39-.06.76-.06 1.12C18 26.1 21.33 28 24.48 28h9.73S36 28 36 30c0 1.28-.99 2-2.43 2h-5.88c-2.5 0-5.22-.08-6.92-.44-3.07-.65-6.77-2.89-6.77-7.94 0-1.25.1-2.68.6-4.3a9.66 9.66 0 0 1 4.34-5.38C21.62 12.26 23.6 12 26.25 12H37Z" fill="#25A8E0"/></svg>