<!-- by TradingView --><svg width="56" height="56" viewBox="0 0 56 56" xmlns="http://www.w3.org/2000/svg"><path fill="#F0F3FA" d="M0 0h56v56H0z"/><path d="M21.76 20.49c.07.04.13.1.17.18.04.08.07.16.07.25-.03.68-.06 1.3 0 1.96 0 .24-.08.43-.16.43s-.19-.16-.25-.35c-.63-2.54-3.42-3.54-5.7-3.54C11.52 19.38 9 23.49 9 27.85c.1 4.33 2.87 8.59 7.23 8.58 2.27.14 4.6-1.03 5.34-3.43.1-.37.19-.46.27-.46.08 0 .16.21.16.4-.09.75-.21 1.49-.38 2.22a.58.58 0 0 1-.23.3 9.8 9.8 0 0 1-5.28 1.53c-4.73.17-8.96-3.71-9.1-8.83C6.88 22.9 11.3 19 16.1 19c1.86.05 4 .6 5.65 1.49Z" fill="#0275AD"/><path d="M48.5 36.4c-.7-.16-.93-.54-1.67-2.24a231.4 231.4 0 0 1-5.23-12.59v.02c-.35-.74-.62-1.52-.8-2.33-.05-.14-.11-.26-.25-.26-.55 1.06-1 2.19-1.26 2.76-1.65 3.96-3.15 8.07-5.07 11.89l-.58-.73a57.56 57.56 0 0 1-3.32-4.98c-.05-.12-.14-.29-.1-.43 1.77-.57 3.82-1.8 3.78-3.95-.07-3.04-3.55-4.56-6.05-4.56h-5.37c-.5 0-.58.14-.58.22 0 .19.27.25.54.3 1.23.2 1.4.57 1.46 1.31v6.38c0 3.48.01 5.8-.09 7.6-.08 1.1-.38 1.48-1.28 1.64-.43.09-.63.14-.63.3 0 .17.19.25.55.25h4.8c.28 0 .65-.07.65-.25s-.17-.22-.49-.28c-1.05-.16-1.2-.42-1.3-.72a14.4 14.4 0 0 1-.21-2.63c-.03-1.14 0-4.7 0-4.94.04-.1.14-.18.25-.18.49-.03.89 0 1.37.1.34.12.64.33.87.62.15.17.58.9 1.12 1.68.98 1.4 2.3 3.3 3.26 4.43.95 1.13 2.15 2.17 4.1 2.17.38.01.76-.03 1.13-.11.26-.1.4-.19.4-.28 0-.1-.2-.22-.44-.22a3.49 3.49 0 0 1-2.29-1.1l-.7-.7.15-.58c.45-1.38 1.03-2.58 1.68-4.01h6c.36.7 2.1 4.72 2.1 5.28 0 .47-.17 1-1.42 1.17-.22 0-.58.13-.58.3 0 .18.2.25.5.25h4.94c.16 0 .56-.05.56-.3.01-.12-.2-.24-.5-.3Zm-11.28-7.63c.65-1.91 1.82-4.67 2.6-6.6.76 1.67 1.87 4.74 2.75 6.83h-5.3c-.07 0-.05-.18-.05-.23Zm-10.24-9.3c2.37 0 5.02 1.65 5.02 4.42-.05 1.25-.95 2.39-1.97 3.02-.58.35-2.27.45-3.08.45-.27 0-.53 0-.8-.03-.1 0-.15-.16-.15-.44 0-1.03-.03-6.3 0-6.82.04-.6.46-.6.98-.6Z" fill="#0275AD"/></svg>