<!-- by TradingView --><svg xmlns="http://www.w3.org/2000/svg" width="56" height="56" viewBox="0 0 56 56"><path fill="#005180" d="M0 0h56v56H0z"/><path d="M17.35 35.6c.74-.74 5.24-4.8 6.42-5.45-.5 0-.81-1.1.33-2a11.4 11.4 0 0 1-4.01-2.58c-1.33-1.32-2.6-2.98-3.06-4.8a.65.65 0 0 1 0-.29c.05-.29.32-.47.61-.48h2.06c.37 0 .49.3.78.44a.81.81 0 0 0 1.17-.74.82.82 0 0 0-.8-.81.8.8 0 0 0-.65.31.65.65 0 0 1-.5.25h-2.05a.66.66 0 0 1-.65-.65v-3.05a.66.66 0 0 1 .65-.65h2.05a.65.65 0 0 1 .5.25.8.8 0 0 0 1.22.07.82.82 0 0 0-.58-1.4.8.8 0 0 0-.64.32.65.65 0 0 1-.5.25h-2.05a.66.66 0 0 1-.65-.64v-2.36a.66.66 0 0 1 .65-.59.64.64 0 0 1 .65.6v1.7h1.12a2.1 2.1 0 0 1 2.91.06c.4.39.67.92.67 1.49 0 .56-.27 1.1-.66 1.49a2.1 2.1 0 0 1-2.92.05H18.3v1.76h1.12a2.1 2.1 0 0 1 2.91.06c.4.4.67.94.67 1.5s-.27 1.1-.66 1.5a2.1 2.1 0 0 1-2.92.05h-.9c.46 1.27 1.5 2.44 2.46 3.4C23.22 26.94 26.82 28 31.66 28c1.06.01 2.13 0 3.16-.26l-.42-.76a2.1 2.1 0 0 1-1.52-2.36 2.12 2.12 0 0 1 2.16-1.79 2.1 2.1 0 0 1 1.7 1c.28.44.38.97.28 1.5l.66 1.05a7.82 7.82 0 0 0 1.29-1.26.64.64 0 0 1 1.03.47.65.65 0 0 1-.13.44l-.19.2a8.11 8.11 0 0 1-1.85 1.63.63.63 0 0 1-.5.09.67.67 0 0 1-.4-.29l-1.18-1.87a.67.67 0 0 1-.05-.57.84.84 0 0 0-.07-.71.83.83 0 0 0-1.13-.26.82.82 0 0 0 .34 1.5.63.63 0 0 1 .5.31l1.05 1.71a.65.65 0 0 1-.33.95c-1.4.48-2.88.7-4.36.67h-.8c.76.69 1.55 1.33 2.38 1.92.77.5 5.3 2.67 5.96 3.78.68 1.1-.56 3.21-1.3 3.34-.65.12-5.1-.65-6.54-.81-1.12-.13-1.26.08-1.52.74-.34.85-.75 3.93-.87 4.21-.18.42-.37.47-.8.4-2.18-.11-4.31-.66-6.27-1.6-2-1-3.64-2.56-4.75-4.5-.34-.7-.19-.9.16-1.27z" fill="#fff"/></svg>