<!-- by TradingView --><svg xmlns="http://www.w3.org/2000/svg" width="56" height="56" viewBox="0 0 56 56"><path fill="#00B67E" d="M0 0h56v56H0z"/><path d="M48 26v3.84c.04 1.1.83 1.45 2 1.16v1.9c-.35.07-.69.1-1 .1h-.28c-1.67-.09-2.72-1.16-2.72-3.13V26h-2v-2h2v-2h2v2h2v2h-2ZM19.79 24c.22 0 .5.04.71.11V26a4.66 4.66 0 0 0-.52-.12c-1.11-.15-2.98.83-2.98 2.72V33h-2v-9h2v1.73c.48-1.22 1.63-1.73 2.79-1.73ZM22 24h2v9h-2v-9ZM43 24v9h-2v-1s-.5 1-2.5 1C37 33 35 31.92 35 29.52V24h2v5c0 1.22 1 2 2 2 1.07 0 2-.58 2-2.15V24h2ZM24 22a1 1 0 1 1-2 0 1 1 0 0 1 2 0ZM31.82 29.43a2.5 2.5 0 1 1-.05-1.98l1.84-.89-.02-.03a4.51 4.51 0 0 0-5.14-2.4A4.53 4.53 0 0 0 25 28.6 4.49 4.49 0 0 0 29.63 33a4.54 4.54 0 0 0 4.05-2.73l.02-.04-1.88-.8ZM11.82 29.44a2.5 2.5 0 1 1-.05-1.99l1.84-.88-.02-.04a4.51 4.51 0 0 0-5.14-2.4A4.53 4.53 0 0 0 5 28.6 4.49 4.49 0 0 0 9.64 33a4.54 4.54 0 0 0 4.04-2.73l.02-.04-1.88-.8Z" fill="#fff"/></svg>