<!-- by TradingView --><svg xmlns="http://www.w3.org/2000/svg" width="56" height="56" viewBox="0 0 56 56"><path fill="#F0F3FA" d="M0 0h56v56H0z"/><path fill-rule="evenodd" d="M12.2 28.76A4.25 4.25 0 0 1 9.16 30C6.87 30 5 28.2 5 26s1.87-4 4.17-4c1.23 0 2.33.5 3.1 1.31l-1.06 1.1a2.67 2.67 0 0 0-2.04-.93A2.57 2.57 0 0 0 6.55 26a2.57 2.57 0 0 0 2.62 2.52c.8 0 1.5-.34 1.99-.87l1.03 1.11zM42.23 30c2.3 0 4.18-1.8 4.18-4s-1.87-4-4.18-4c-2.3 0-4.17 1.8-4.17 4s1.87 4 4.17 4zm0-1.48A2.57 2.57 0 0 0 44.87 26a2.57 2.57 0 0 0-2.63-2.52A2.57 2.57 0 0 0 39.62 26a2.57 2.57 0 0 0 2.62 2.52zM21 22h3.56A2.47 2.47 0 0 1 27 24.5a2.5 2.5 0 0 1-1.72 2.39l1.7 3.11H25.4l-1.65-3H22.5v3.03H21V22zm1.5 1.5h1.87c.62 0 1.13.45 1.13 1s-.5 1-1.13 1H22.5v-2zM36 22h1.41v8H36v-8zm11 0h1.54v6.63H52V30h-5v-8zM4 32h7.94l4.53-9.9 5.03 11.4.68-1.5H52v1H22.99l-1.67 3-4.82-11-1.86 4h1.57l.6 1h-2.64l-1.4 3H4v-1zm26.72-10H28v8h2.72c2.24 0 4.06-1.8 4.06-4s-1.82-4-4.06-4zm.39 1.5H29.5v5h1.6c1.33 0 2.4-1.12 2.4-2.5s-1.07-2.5-2.4-2.5z" fill="#044970"/></svg>