<!-- by TradingView --><svg width="56" height="56" viewBox="0 0 56 56" xmlns="http://www.w3.org/2000/svg"><path fill="#F0F3FA" d="M0 0h56v56H0z"/><path d="M28.5 44a3.5 3.5 0 1 0 0-7 3.5 3.5 0 0 0 0 7ZM23.3 39.42c1.06-.98.9-2.86-.37-4.2-1.27-1.33-3.16-1.62-4.23-.64-1.06.98-.9 2.86.37 4.2 1.27 1.33 3.16 1.62 4.23.64Z" fill="#0069AB"/><path d="M39.31 37.32c1.06-1.49.88-3.28-.4-4.01-1.27-.73-3.16-.12-4.22 1.37-1.06 1.49-.88 3.28.4 4.01 1.27.73 3.16.12 4.22-1.37Z" fill="#89C0E8"/><path d="M21.03 30.09c.05-1.63-.92-2.99-2.17-3.02-1.25-.04-2.3 1.25-2.35 2.88-.05 1.64.92 2.99 2.17 3.03 1.25.03 2.3-1.26 2.35-2.9Z" fill="#0069AB"/><path d="M38.8 29.86c1.18-.46 1.55-1.9.83-3.2-.72-1.3-2.26-1.98-3.43-1.52-1.18.46-1.55 1.9-.83 3.2.72 1.3 2.26 1.98 3.43 1.52Z" fill="#89C0E8"/><path d="M23.08 25.23c.93-.88 1.2-2.13.6-2.81-.6-.68-1.83-.52-2.76.35-.93.88-1.2 2.13-.6 2.81.6.68 1.83.52 2.76-.35Z" fill="#0069AB"/><path d="M33.78 22.6c.5-.58.12-1.52-.86-2.13-.98-.6-2.19-.63-2.7-.06-.5.57-.12 1.51.86 2.12.98.6 2.19.63 2.7.06Z" fill="#89C0E8"/><path d="M26.95 20.8c.79-.33 1.23-.96.98-1.4-.25-.44-1.09-.53-1.88-.2-.79.33-1.23.96-.98 1.4.25.44 1.09.53 1.88.2ZM31.82 18.88c.81-.25 1.32-.86 1.14-1.35-.17-.48-.97-.67-1.78-.42-.81.26-1.32.87-1.14 1.36.17.48.97.67 1.78.41ZM36.58 17.98c.83-.1 1.46-.61 1.42-1.15-.05-.55-.75-.91-1.58-.81-.83.1-1.46.61-1.42 1.15.05.55.75.91 1.58.81Z" fill="#0069AB"/><path d="M25.96 17.5c.2-.47-.3-1.08-1.1-1.36s-1.62-.12-1.82.35c-.2.48.3 1.1 1.1 1.37.8.28 1.62.12 1.82-.35ZM21.02 16.25c.1-.5-.51-1.03-1.35-1.17-.84-.14-1.6.16-1.7.67-.08.5.52 1.03 1.36 1.17.84.14 1.6-.16 1.7-.67ZM14.54 17c.83-.03 1.48-.5 1.46-1.06-.02-.55-.72-.97-1.54-.94-.83.03-1.48.5-1.46 1.06.02.55.72.97 1.54.94Z" fill="#89C0E8"/></svg>