<!-- by TradingView --><svg xmlns="http://www.w3.org/2000/svg" width="56" height="56" viewBox="0 0 56 56"><path fill="url(#a2djg0i40)" d="M0 0h56v56H0z"/><path d="M46.16 29.11a.4.4 0 0 1 .28-.11h3.16c.22 0 .4.18.4.4v3.16a.4.4 0 0 1-.12.29l-1.05 1.03a.4.4 0 0 1-.28.12H45.4a.4.4 0 0 1-.4-.4v-3.18c0-.1.04-.21.12-.29l1.04-1.02zm.36.5l-.92.9v2.89h2.87l.93-.92V29.6h-2.88zM33 22h-1v5h1v-5zm-.92-1.02a.6.6 0 0 0 .43.16c.17 0 .31-.05.42-.16a.57.57 0 0 0 .18-.42.5.5 0 0 0-.18-.4.57.57 0 0 0-.42-.16.58.58 0 0 0-.6.58c0 .16.06.29.17.4zM10.38 27c-.64 0-1.22-.14-1.74-.42A3.18 3.18 0 0 1 7 23.72c0-.62.15-1.18.44-1.67.29-.5.7-.9 1.21-1.17.52-.29 1.1-.43 1.74-.43.5 0 .95.08 1.37.25.41.17.76.42 1.05.75l-.59.57a2.34 2.34 0 0 0-1.8-.72A2.36 2.36 0 0 0 8 23.72c0 1.41 1.05 2.41 2.42 2.41.71 0 1.31-.2 1.8-.71l.6.57c-.3.33-.65.58-1.07.75-.42.17-.87.26-1.37.26zM15 22.77c.27-.56.83-.77 1.59-.77v1h-.2c-.48 0-.85.12-1.12.41-.27.28-.27.68-.27 1.2V27h-1v-5h1v.77zM36.69 27l2.06-5h-1.07l-1.42 3.51L34.82 22h-1.07l2.06 5h.88zm-5.54-.34c-.25.22-.65.34-1.05.34-.98 0-1.55-.55-1.55-1.53V22.8h-.8V22h.8v-1h1v1H31v.8h-1.45v2.53c0 .53.29.82.65.82.26 0 .5-.08.68-.23l.27.74zm-4.7-4.16c-.38-.33-.9-.5-1.6-.5-.41 0-.8.06-1.16.17-.36.1-.67.26-.93.46l.36.73a2.67 2.67 0 0 1 1.6-.53c.82 0 1.28.3 1.28 1.12V24h-1.52c-.91 0-1.87.51-1.87 1.56 0 .43.17.78.5 1.04.35.27.8.4 1.37.4.66 0 1.14-.15 1.52-.58V27h1v-3.01c0-.66-.18-1.16-.56-1.5zm-.9 3.54c-.26.15-.56.22-.9.22-.46 0-1.13-.18-1.13-.74 0-.5.39-.72 1.16-.72H26v.65c-.11.27-.2.44-.45.6zM22 24.52l-.04.48H18c.1.65.82 1.15 1.7 1.15.6 0 1.08-.2 1.45-.59l.53.65a2.2 2.2 0 0 1-.85.59c-.34.13-.71.2-1.13.2-.53 0-1-.1-1.41-.31a2.37 2.37 0 0 1-1.29-2.2c0-.47.1-.9.32-1.28s.52-.68.9-.89a2.6 2.6 0 0 1 1.3-.32c.48 0 .9.1 1.28.32.38.21.67.5.88.9.21.37.32.81.32 1.3zm-2.48-1.7c-.84 0-1.42.54-1.52 1.37h3.03c-.1-.82-.69-1.37-1.51-1.37zM43.96 25l.04-.48c0-.49-.1-.93-.32-1.3a2.2 2.2 0 0 0-.88-.9 2.5 2.5 0 0 0-1.28-.32c-.48 0-.91.1-1.3.32-.38.21-.68.5-.9.9-.21.37-.32.8-.32 1.28s.11.9.33 1.29c.23.38.55.68.96.9.4.2.88.31 1.4.31.43 0 .8-.07 1.14-.2.34-.14.62-.34.85-.6l-.53-.64c-.37.4-.85.6-1.45.6-.88 0-1.6-.5-1.7-1.16h3.96zM40 24.2c.1-.84.68-1.38 1.52-1.38.82 0 1.41.55 1.51 1.37H40z" fill="#fff"/><path d="M26 31h1v5h-1v-5zm.51-.86a.6.6 0 0 1-.43-.16.55.55 0 0 1-.16-.4c0-.16.05-.3.16-.4a.58.58 0 0 1 .43-.18c.17 0 .31.05.42.16.12.1.17.24.17.4a.57.57 0 0 1-.59.58zM32 31h1v5h-1v-5zm.51-.86a.6.6 0 0 1-.43-.16.55.55 0 0 1-.16-.4c0-.16.05-.3.16-.4a.58.58 0 0 1 .43-.18c.17 0 .31.05.42.16.12.1.18.24.18.4a.57.57 0 0 1-.6.58zM30.1 36c.4 0 .8-.12 1.06-.34l-.28-.74c-.18.15-.41.23-.68.23-.36 0-.64-.29-.64-.82v-2.54H31V31h-1.44v-1h-1v1h-.82v.8h.82v2.67c0 .98.57 1.53 1.54 1.53zm-9.26-5c.7 0 1.23.17 1.6.5.38.33.56.83.56 1.49V36h-1v-.58c-.38.43-.86.58-1.52.58-.57 0-1.02-.13-1.36-.4-.34-.26-.5-.6-.5-1.04 0-1.04.94-1.56 1.86-1.56H22v-.05c0-.81-.47-1.12-1.28-1.12a2.67 2.67 0 0 0-1.6.53l-.36-.73c.26-.2.57-.36.93-.46.36-.11.74-.17 1.15-.17zm-.2 4.27c.35 0 .65-.08.9-.23.26-.15.34-.31.46-.59v-.64h-1.32c-.78 0-1.16.2-1.16.71 0 .57.67.75 1.12.75zM17.96 34l.04-.47c0-.5-.1-.93-.32-1.32a2.2 2.2 0 0 0-.88-.88 2.5 2.5 0 0 0-1.28-.33c-.48 0-.91.11-1.3.33-.38.2-.68.5-.9.88-.21.39-.32.81-.32 1.29s.11.91.33 1.3c.23.37.55.67.96.89.4.2.88.31 1.4.31.43 0 .8-.07 1.14-.2.34-.14.62-.33.85-.6l-.53-.64c-.37.4-.85.6-1.45.6-.88 0-1.6-.5-1.7-1.16h3.96zM14 33.2c.1-.84.68-1.38 1.52-1.38.82 0 1.41.55 1.51 1.38H14zm25 .32l-.04.48H35c.1.65.82 1.15 1.7 1.15.6 0 1.08-.2 1.45-.59l.53.65a2.2 2.2 0 0 1-.85.59c-.34.13-.71.2-1.13.2-.53 0-1-.1-1.41-.31a2.37 2.37 0 0 1-1.29-2.2c0-.47.1-.9.32-1.28s.52-.68.9-.89a2.6 2.6 0 0 1 1.3-.32c.48 0 .9.1 1.28.32.38.21.67.5.88.9.21.37.32.81.32 1.3zm-2.48-1.7c-.84 0-1.42.54-1.52 1.37h3.03c-.1-.82-.69-1.37-1.51-1.37zM25 29h-1v7h1v-7zm16.92 7c-.68 0-1.46-.14-2-.57l.36-.78c.48.34 1.1.5 1.7.5.76 0 1.02-.14 1.02-.58 0-.47-.5-.53-.89-.58l-.2-.03c-.85-.14-1.91-.46-1.91-1.5C40 31.4 41.19 31 42.09 31c.6 0 1.26.11 1.76.44l-.36.8a2.5 2.5 0 0 0-1.4-.39c-.74 0-1.09.18-1.09.58 0 .5.55.59.97.65l.2.03c.84.15 1.83.43 1.83 1.44 0 1.1-1.18 1.45-2.08 1.45zm-31.67-2l1.38 2h1.18l-1.51-2.2c.45-.16.8-.4 1.04-.75s.36-.77.36-1.26c0-.69-.23-1.16-.7-1.55a2.97 2.97 0 0 0-1.96-.59h-2.5V36h1v-2h1.71zm1.47-2.2c0 1.05-.79 1.38-1.71 1.38H8.55v-2.66H10c.86 0 1.7.24 1.7 1.27z" fill="#3BB7BF"/><defs><linearGradient id="a2djg0i40" x1="10.42" y1="9.71" x2="68.15" y2="76.02" gradientUnits="userSpaceOnUse"><stop stop-color="#1A1E21"/><stop offset="1" stop-color="#06060A"/></linearGradient></defs></svg>