<!-- by TradingView --><svg width="56" height="56" viewBox="0 0 56 56" xmlns="http://www.w3.org/2000/svg"><path fill="#F0F3FA" d="M0 0h56v56H0z"/><path d="M42 28.07v-.02A4.92 4.92 0 0 1 47 23c2.85 0 5 2.23 5 5s-2.15 5-5.02 5A4.92 4.92 0 0 1 42 28.07Zm1.5-.07c0 2 1.44 3.5 3.48 3.5A3.46 3.46 0 0 0 50.5 28c0-1.89-1.4-3.5-3.5-3.5a3.41 3.41 0 0 0-3.5 3.5ZM40.51 26h-1.7a3.42 3.42 0 0 0-2.85-1.5 3.34 3.34 0 0 0-3.46 3.47A3.38 3.38 0 0 0 36 31.5c1.46 0 2.93-.47 3.25-2h-3.57l-.83-1.5H41c0 2.77-2.2 5-5 5s-5-2.2-5-5.03A4.9 4.9 0 0 1 35.98 23a5 5 0 0 1 4.53 3ZM23 23l1 1.48V33h1.5v-5l3.35 5h1.65l-2.33-3.72c1.52-.27 2.33-1 2.33-3 0-2.54-1.85-3.28-4-3.28H23Zm2.5 5v-3.52h1.13c1.3 0 2.37.27 2.37 1.8 0 1.64-1.1 1.72-2.5 1.72h-1ZM12.32 30H14c-.62 1.76-2.49 3-4.76 3A5.07 5.07 0 0 1 4 27.99 5.04 5.04 0 0 1 9.22 23a5 5 0 0 1 4.8 3h-1.7c-.32-.63-1.35-1.49-3.11-1.5-2.12 0-3.71 1.53-3.71 3.49 0 2 1.61 3.51 3.72 3.51a3.6 3.6 0 0 0 3.1-1.5ZM16.39 23l.91 1.43L14 33h1.62l.86-2.36h4.01l.89 2.36H23l-3.79-10h-2.82Zm2.08 1.85 1.61 4.5H16.9l1.58-4.5Z" fill="#DD653C"/></svg>