<!-- by TradingView --><svg xmlns="http://www.w3.org/2000/svg" width="56" height="56" viewBox="0 0 56 56"><path fill="url(#axcjyjj4k)" d="M0 0h56v56H0z"/><path d="M38.45 16c4.2 0 7.82 2.5 9.55 6a9.64 9.64 0 0 0-9.52-8A9.81 9.81 0 0 0 29 22c1.77-3.4 5.34-6 9.45-6Zm1.8 3.5a1.5 1.5 0 1 1-3 0 1.5 1.5 0 0 1 3 0Zm-.75 13.15c-.01.57-.03 1.51.43 1.82.24.16.64.33.92.33.06 0 .15.03.15.09a.1.1 0 0 1-.12.11h-5.6c-.31 0-.63-.02-.94-.06-1.23-.2-2.03-1.48-2.63-2.5l-.12-.23c-.36-.66-1.22-2.21-1.72-2.21H28v.58c0 2.65-1.95 4.38-4.45 4.42C20.5 35 19 32.96 19 30.2v-5.24c0-.47.01-.95-.21-1.37-.17-.27-.76-.4-1.06-.39h-.04c-.07 0-.19 0-.19-.08 0-.12.15-.12.23-.12h4.03c.09 0 .24 0 .24.1 0 .04-.03.1-.13.1-.44 0-.98.05-1.18.4-.2.43-.2.9-.2 1.38l.01.18v5.42c0 1.81.9 3.42 3.28 3.42 2.4 0 3.22-1.92 3.22-3.93V24.88c.01-.9.02-1.68-.88-1.68-.06 0-.12-.02-.12-.08 0-.12.15-.12.23-.12h3.83c1.67 0 2.94 1 2.94 2.81 0 1.35-.7 2.77-1.66 3.69l.84 1.14c.74 1.02 1.47 2.02 2.31 2.99a4.26 4.26 0 0 0 2.23 1.17c.25-.02.73-.16.9-.33.4-.38.39-1.26.38-1.83v-7.7c.01-.46.02-1-.17-1.39-.16-.28-.63-.32-.96-.34a7.28 7.28 0 0 1-.16-.01c-.1 0-.23-.01-.23-.1 0-.1.15-.1.24-.1h4.05c.08 0 .23 0 .23.1 0 .07-.1.1-.3.1-.28 0-.88.08-1 .37-.2.45-.2 1.01-.2 1.5v7.58ZM28 25.15v4.03c.09.35 1.32.33 1.76.32h.11c1.48 0 2.13-1.64 2.13-2.88 0-1.58-.8-2.62-2.55-2.62H28v1.15ZM8.78 33.37c.6.55 1.29.96 2.04 1.22.78.28 1.72.41 2.82.41.94 0 2.4-.21 2.8-.75.4-.54.56-1.33.56-2 0-.07 0-.25-.1-.25-.04 0-.08.04-.1.08l-.07.28-.05.18c-.44 1.46-2 1.46-3.04 1.46a4.9 4.9 0 0 1-5.14-5.18c0-2.37 1.45-4.82 4.54-4.82 1.86-.02 3.7.58 3.7 2.75 0 .16.06.25.14.25.07 0 .12-.12.12-.21v-3.26a.16.16 0 0 0-.03-.06.27.27 0 0 0-.15-.05 9.99 9.99 0 0 1-.76-.1c-.97-.17-1.93-.32-2.92-.32-.95 0-1.88.14-2.72.48A5.78 5.78 0 0 0 7 28.82c0 1.67.52 3.4 1.78 4.55Zm33.22.17v.55c.69.66 1.8.9 2.32.91 1.9 0 3.68-.9 3.68-3.17 0-.9-.32-1.7-.92-2.37-.48-.53-.98-.91-1.5-1.3-.41-.31-.84-.64-1.26-1.05-.44-.42-.82-.83-.82-1.45 0-1.07.76-1.7 1.8-1.66.58-.02.95.1 1.4.44.46.35.68.96.8 1.43.02.13.08.13.12.13.08 0 .08-.24.08-.34v-2.14s0-.13-.12-.11c-.27 0-.57-.09-.9-.18-.4-.11-.81-.23-1.24-.23-.99 0-1.61.26-2.2.77a2.85 2.85 0 0 0-.95 2.12c0 1.42.62 2.26 2.03 3.43l.78.57c.9.63 1.9 1.34 1.9 2.27 0 1.22-1.16 1.84-2.34 1.84-1.12 0-2.09-.53-2.32-1.69-.04-.2-.05-.42-.05-.56 0-.1 0-.19-.11-.19-.1 0-.18.18-.18.4v1.58Z" fill="#fff"/><defs><linearGradient id="axcjyjj4k" x1="61" y1="28" x2="0" y2="28" gradientUnits="userSpaceOnUse"><stop offset=".18" stop-color="#4D7FB0"/><stop offset=".74" stop-color="#00528E"/></linearGradient></defs></svg>