<!-- by TradingView --><svg width="56" height="56" viewBox="0 0 56 56" xmlns="http://www.w3.org/2000/svg"><path fill="#F0F3FA" d="M0 0h56v56H0z"/><path d="M42.83 21.95a1.1 1.1 0 0 0-1.78-.36c-.3.3-.4.77-.23 1.17A13.99 13.99 0 0 1 42 28c-.02 7.4-6.57 14.02-14 14a14 14 0 0 1-4.08-.62l12.76-13.53a1.08 1.08 0 0 0 0-1.53 1.08 1.08 0 0 0-1.53 0L21.73 40.5A14.62 14.62 0 0 1 14 28.1C13.94 20.65 20.55 14 28 14c1.46 0 2.94.23 4.37.7L19.32 28.15a1.08 1.08 0 0 0 0 1.53 1.08 1.08 0 0 0 1.53 0L34.9 15.4l.02-.03.17-.18c.26-.26.37-.6.31-.93-.05-.33-.27-.6-.6-.76A15.96 15.96 0 0 0 28 12c-8.73.02-16 7.26-16 16 0 8.7 7.24 15.97 15.94 16H28c9 0 15.9-7.6 16-16 .02-2-.36-4.05-1.17-6.05Z" fill="#215085"/><path d="M32.7 23.3a1.04 1.04 0 0 0-1.49 0l-8.9 8.92a1.04 1.04 0 0 0 0 1.47 1.04 1.04 0 0 0 1.48 0l8.9-8.9a1.04 1.04 0 0 0 0-1.48Z" fill="#8CC541"/></svg>