<!-- by TradingView --><svg xmlns="http://www.w3.org/2000/svg" width="56" height="56" viewBox="0 0 56 56"><path fill="#DB2532" d="M0 0h56v56H0z"/><path d="M48.3 23.05c-2.21-.25-4.7.5-6.57 1.81 1.74-.9 3.7-1.3 5.65-1.15 3.21.34 4.57 2.51 3.03 4.84-1.54 2.32-5.38 3.95-8.59 3.61a7.27 7.27 0 0 1-.77-.13c.52.21 1.07.35 1.62.42 3.25.38 7.14-1.42 8.69-4.02 1.55-2.6.18-5.03-3.07-5.38" fill="#fff"/><path d="M18.12 28.02c.38-.04.74-.16 1.06-.37a.79.79 0 0 0 .37-.65.66.66 0 0 0-.16-.44c-.37-.38-.92-.52-1.43-.56H15v4h1.5v-3.6s.68 0 .87.02c.15.01.3.04.44.1.1.03.2.11.25.22.06.12.09.25.08.39a.66.66 0 0 1-.32.6c-.2.15-.46.22-.72.2L18.93 30h1.16c-.66-.63-1.36-1.3-1.97-1.98zM6.2 26.76a2.88 2.88 0 0 1 2.3-.29c.26.08.5.21.72.38h.13a1.31 1.31 0 0 1 .2-.56c-.12-.04-.25-.08-.38-.1l-.47-.1c-.33-.05-.69-.09-1.02-.09-1.36 0-3.76.34-3.68 2.14C4 29.7 6.26 30.02 7.41 30c.64.01 1.28-.1 1.9-.25a.92.92 0 0 1 .06-.24l.13-.22-.12-.04c-.1.07-.22.13-.34.17a4.17 4.17 0 0 1-1.33.24 3.3 3.3 0 0 1-.8-.1 2.37 2.37 0 0 1-.7-.28c-.2-.13-.37-.3-.5-.5-.14-.22-.21-.47-.2-.73 0-.27.05-.53.19-.76.12-.22.3-.4.5-.53zM23.6 26h-.71l-2.63 4h.9l1.74-2.87L24.66 30h1.51l-2.58-4zm-13.1 0v4H14a3.6 3.6 0 0 1 0-.5h-2c-.02-.22 0-1.5 0-1.5h1.27v-.3H12v-1.14h2V26h-3.5zM46 26v2.73L42 26h-1v4h1c-.01-.04-.01-2.63 0-2.74 1.43.9 4 2.74 4 2.74h.99l.01-4h-1zm-6.54.5c-.35-.17-.72-.3-1.1-.37a6.78 6.78 0 0 0-2.85.03c-.4.08-.77.22-1.12.43-.28.16-.52.37-.71.63-.17.22-.26.5-.26.77 0 .33.1.64.28.9.72.96 2.14 1.12 3.24 1.11 1.18.01 3.56-.39 3.55-2 0-.3-.1-.62-.28-.87a1.88 1.88 0 0 0-.75-.63zm-.67 2.16c-.1.22-.26.4-.45.55-.19.15-.41.27-.65.33a3.3 3.3 0 0 1-1.53.03 1.88 1.88 0 0 1-.63-.27 1.3 1.3 0 0 1-.42-.5 1.67 1.67 0 0 1-.16-.74 1.65 1.65 0 0 1 1.16-1.59c.27-.1.56-.14.85-.13.28 0 .55.04.82.1.23.07.44.18.63.32.17.13.32.29.42.47.1.2.15.43.15.66a2 2 0 0 1-.19.77zM31 28v1.58a4.76 4.76 0 0 1-1.86-.05c-.26-.07-.5-.18-.7-.33-.2-.13-.34-.3-.44-.5-.1-.19-.16-.4-.15-.61-.01-.53.3-1.02.73-1.3.23-.16.49-.27.75-.33a3.71 3.71 0 0 1 1.94.05c.27.09.52.22.74.4h.12l.12-.27c.05-.09.1-.18.14-.29a7.57 7.57 0 0 0-2.24-.34c-1.3 0-3.9.3-3.84 2.12-.03 1.62 2.45 1.87 3.66 1.87.8 0 1.72-.08 2.53-.24V28H31z" fill="#fff"/></svg>