<!-- by TradingView --><svg width="56" height="56" viewBox="0 0 56 56" xmlns="http://www.w3.org/2000/svg"><path fill="#F0F3FA" d="M0 0h56v56H0z"/><path fill-rule="evenodd" d="m11.8 20.83 2.13-1.9.14.14L12 20.9l1.07.36 3.89-1.35.06.18-3.63 1.27 1.62.54H19v.2h-3.38l5.41 1.8-.06.2-5.99-2h-3.71l-1 .35L8.53 24l-.7 1.13-.5 2.01.04 1.14.95 2.3 1.54 1.76 4.2 2.56-.1.18-3.65-2.23 2.28 2.57-.15.14-2.7-3.07-.86-.52 1.22 2.98-.18.08-1.32-3.23-1.1-.68L7.6 34h-.2l-.12-3-.8-.48-.38 1.5-.2-.04.4-1.57-1.44-.88.93-1.49L4.86 27l1.29-1.14-.78-1.91 1.59-.55-.06-1.49h1.52l.5-2.03 1.6.53.9-1.45.17.1-.88 1.41 1.09.37Zm-.18.15-1.02-.34-.78 1.26h.77l1.03-.92Zm-1.26 1.12H9.7l-.26.43.73-.26.2-.17Zm-.58.52-.51.18-.38.61.9-.8Zm-1.42 1.26.6-.98-.64.22-.25 1.02.3-.26Zm-.56.5.3-1.18-.94.33.06 1.36.58-.52Zm-.57.77.49-.43-.09.34-.38.61-.02-.52Zm-.2-.09-.06-1.46-1.34.46.68 1.65.72-.65Zm-.64.84.65-.58.03.65-.4.64-.28-.7Zm-.16.14-1.09.97.76.85.64-1.04-.31-.78Zm.4 1-.6.98.67.76.25-.98-.31-.76Zm.45 1.07-.22.85.35.39-.05-1.02-.08-.22Zm.3.77.04.7.48.56-.51-1.26Zm.75 1.82-.7-.8.04 1 .99.6-.33-.8Zm.62.97.52.32-.73-.83.2.51Zm-1.48-.9-.05-1.1-.42-.47-.28 1.11.75.46Zm-.92-.56.3-1.2-.73-.81-.78 1.27 1.2.74Zm.76-3.08-.08.34-.26-.64.31-.5.03.8Zm.18-.68.18-.76-.2.34.02.42Zm.69-1.95v-.02H8l-.02.02Zm-.82-1.18 1-.35.21-.87H7.1l.06 1.22Zm1.42-1.22-.2.8.76-.27.32-.53h-.88Zm1-.2.83-1.33-1.34-.44-.44 1.77h.96Zm1.65 0h-.34l.95-.85.94.31-1.55.54Zm.61 0h2.54l-1.3-.43-1.24.43Z" fill="url(#a1wbxn50d)"/><circle cx="21" cy="24" r="1" fill="#1A8C9A"/><circle cx="19" cy="22" r="1" fill="#1A8C9A"/><circle cx="17" cy="20" r="1" fill="#1A8C9A"/><circle cx="14" cy="19" r="1" fill="#1A8C9A"/><path d="M12.5 19a1 1 0 1 1-2 0 1 1 0 0 1 2 0Z" fill="#1A8C9A"/><circle cx="9" cy="20" r="1" fill="#1A8C9A"/><circle cx="7" cy="22" r="1" fill="#1A8C9A"/><path d="M6.5 24.13a1 1 0 1 1-2 0 1 1 0 0 1 2 0Z" fill="#1A8C9A"/><circle cx="5" cy="27" r="1" fill="#1A8C9A"/><path d="M6 29.5a1 1 0 1 1-2 0 1 1 0 0 1 2 0Z" fill="#589AAD"/><circle cx="6" cy="32" r="1" fill="#84ADB8"/><path d="M8.5 34.13a1 1 0 1 1-2 0 1 1 0 0 1 2 0Z" fill="#A9C4CB"/><circle cx="10" cy="35" r="1" fill="#D5DDE6"/><path d="M12.67 25C11.02 25 10 26.51 10 28c0 1.54.97 2.99 2.67 2.99.67 0 1.28-.14 1.96-.36l.08 1.01a5.8 5.8 0 0 1-2.11.36C10.23 32 9 30.25 9 28s1.43-4 3.76-4c.8 0 1.59.18 2.24.5l-.54.97a4.27 4.27 0 0 0-1.8-.47ZM18.48 26a2.48 2.48 0 0 1 .52.06l-.1 1.17a2 2 0 0 0-.47-.06 1.3 1.3 0 0 0-.97.44 2.37 2.37 0 0 0-.46 1.31V32h-1v-6h1v1.15c.1-.21.22-.4.37-.58.14-.17.3-.3.49-.41.19-.1.4-.16.62-.16ZM21 26v6h-1v-6h1ZM39 26v6h-1v-6h1ZM24.97 26c1.32 0 2.03.87 2.03 2.16V32h-1v-3.6c0-.93-.57-1.38-1.32-1.38-1.2 0-1.68 1.03-1.68 2.05V32h-1v-6h1v1c.38-.63 1.24-1 1.97-1ZM30.58 26c1.53 0 2.42 1.16 2.42 2.62v.66h-3.77c.03 1.13.56 1.72 1.57 1.72.66 0 1.32-.12 1.91-.39v1c-.6.29-1.24.39-1.9.39-1.76 0-2.81-1.26-2.81-2.96 0-1.58.85-3.04 2.58-3.04Zm0 1c-.75 0-1.24.43-1.32 1.4h2.57c-.01-.77-.4-1.4-1.25-1.4ZM36.03 31.03c.34 0 .7-.07.97-.15v.91c-.3.12-.79.21-1.29.21-1.14 0-1.71-.78-1.71-1.95V27L33 27v-1h1v-1h1v1h2v1h-2v3.18c0 .58.51.85 1.03.85ZM42.4 32c-1.71 0-2.4-1.42-2.4-2.97 0-1.59.76-3.03 2.51-3.03.63 0 1.14.16 1.49.35l-.33.98c-.38-.17-.8-.3-1.17-.3-1.1 0-1.5 1.1-1.5 2 0 .88.4 1.95 1.47 1.95.57 0 1-.17 1.4-.42v1.07c-.39.25-.8.37-1.46.37ZM49 30.24c0 1.28-1.12 1.76-2.24 1.76-.76 0-1.27-.11-1.76-.35v-1.06c.55.27 1.14.41 1.76.41.76 0 1.24-.33 1.24-.76 0-1.35-3-.87-3-2.67 0-1.15 1.1-1.57 2.1-1.57.66 0 1.24.15 1.81.42l-.36.92A3.7 3.7 0 0 0 47 27c-.6 0-1 .13-1 .5 0 .58 1 .81 1.42.99.82.33 1.58.77 1.58 1.75Z" fill="#687070"/><circle cx="38.5" cy="24.5" r=".5" fill="#687070"/><path fill="#1A8B9B" d="M33 33h19v2H33z"/><defs><linearGradient id="a1wbxn50d" x1="8.5" y1="19.5" x2="14" y2="35" gradientUnits="userSpaceOnUse"><stop stop-color="#606565"/><stop offset="1" stop-color="#F1F3F5"/></linearGradient></defs></svg>