<!-- by TradingView --><svg width="56" height="56" xmlns="http://www.w3.org/2000/svg"><path fill="url(#paint0_linear)" d="M0 0h56v56H0z"/><path d="M8.135 33c1.164 0 2.203-.393 2.904-1.157l-.643-.613c-.645.663-1.346.77-2.25.77C6.237 32 5 30.865 5 29s1.237-3.004 3.146-3.004c.904 0 1.605.11 2.25.762l.643-.612C10.338 25.382 9.299 25 8.146 25 5.762 25 4 26.697 4 29s1.762 4 4.135 4zM18.003 33l-1.547-2.825c1.03-.458 1.547-1.26 1.547-2.497 0-1.532-.993-2.678-3.004-2.678H12v8h1v-2.63H15.526L17 33h1.003zm-3.004-3.544h-1.976L13 25.996h1.976c1.085 0 2.024.618 2.024 1.682 0 1.18-.953 1.778-2.001 1.778zM35 25v6.349L29 25h-1v8h1v-6.346L35 33h1v-8h-1zM49.051 33C51.074 33 52 32.011 52 30.854c0-2.865-5-1.834-5-3.72 0-.786.735-1.134 2.22-1.134.701 0 1.399.128 2.077.567l.375-.87c-.632-.439-1.559-.697-2.451-.697C47.21 25 46 25.977 46 27.135c0 2.91 4.91 1.946 5 3.719 0 .775-.469 1.146-1.949 1.146-1.04 0-1.82-.266-2.385-.816l-.552.793C46.7 32.584 47.864 33 49.05 33z" fill="#F6F8FD"/><path d="M41.005 33C43.291 33 45 31.303 45 29s-1.709-4-3.995-4C38.698 25 37 26.708 37 29s1.698 4 4.005 4zM41 32c-1.84 0-3-1.124-3-3s1.16-3 3-3c1.829 0 3 1.124 3 3s-1.171 3-3 3z" fill="#8CC63F"/><path d="M23.005 33C25.291 33 27 31.303 27 29s-1.709-4-3.995-4C20.698 25 19 26.708 19 29s1.698 4 4.005 4zM23 32c-1.84 0-3-1.124-3-3s1.16-3 3-3c1.829 0 3 1.124 3 3s-1.171 3-3 3z" fill="#F6F8FD"/><defs><linearGradient id="paint0_linear" x1="10.418" y1="9.712" x2="68.147" y2="76.017" gradientUnits="userSpaceOnUse"><stop stop-color="#1A1E21"/><stop offset="1" stop-color="#06060A"/></linearGradient></defs></svg>