<!-- by TradingView --><svg width="56" height="56" xmlns="http://www.w3.org/2000/svg"><path fill="url(#paint0_linear)" d="M0 0h56v56H0z"/><path d="M9.423 26.391c.68 0 1.326.341 1.685.82l.035.034c.018.017.036.034.036.051.233.29.61.461 1.022.461a1.35 1.35 0 00.923-.367c.245-.234.383-.55.385-.88 0-.324-.125-.615-.34-.837C12.273 24.615 11.197 24 9.405 24c-2.814 0-4.93 1.861-4.93 4.475 0 2.647 2.116 4.508 4.948 4.508 1.81 0 2.867-.598 3.763-1.554.197-.222.323-.495.323-.803 0-.161-.032-.322-.097-.471a1.223 1.223 0 00-.28-.4 1.292 1.292 0 00-.419-.266 1.344 1.344 0 00-.494-.092c-.395 0-.735.17-.969.427-.43.41-.913.802-1.81.802-1.29 0-2.025-.888-2.025-2.151-.018-1.213.7-2.084 2.008-2.084zm12.206-1.827c-.448-.223-.753-.274-1.416-.223-1.183.103-2.097.889-2.259 1.076-.053-.717-.68-1.298-1.451-1.298-.384 0-.752.143-1.027.398a1.37 1.37 0 00-.443.969v6.097c.018.751.663 1.35 1.47 1.35.383 0 .752-.143 1.027-.399a1.37 1.37 0 00.442-.968v-1.657c0-2.254 1.38-2.835 2.151-2.852.067 0 .172.022.297.048.242.05.56.117.832.072.19-.033.371-.1.534-.2.162-.098.302-.227.412-.378a1.33 1.33 0 00.238-1.046 1.446 1.446 0 00-.288-.58 1.533 1.533 0 00-.52-.41zm8.46 3.962c-.018 1.28-.77 2.169-2.043 2.169-1.273 0-2.062-.906-2.062-2.17 0-1.297.789-2.168 2.062-2.168 1.272 0 2.043.87 2.043 2.169zm2.921-.017c0-2.63-2.168-4.509-4.965-4.509-2.795 0-4.982 1.878-4.982 4.509 0 2.613 2.186 4.474 4.983 4.474 2.796 0 4.964-1.861 4.964-4.474zm6.453-2.118c.681 0 1.326.341 1.684.82l.036.034c.019.017.036.034.036.051.233.29.61.461 1.022.461.346-.002.678-.134.923-.367.245-.233.384-.55.386-.88 0-.324-.126-.615-.341-.837C42.313 24.615 41.237 24 39.463 24c-2.814 0-4.947 1.861-4.947 4.475 0 2.647 2.115 4.508 4.947 4.508 1.81 0 2.868-.598 3.764-1.554.197-.222.323-.495.323-.803 0-.161-.033-.322-.097-.471a1.224 1.224 0 00-.28-.4 1.293 1.293 0 00-.42-.266 1.344 1.344 0 00-.494-.092 1.3 1.3 0 00-.968.427c-.43.41-.914.802-1.828.802-1.291 0-2.026-.888-2.026-2.151.019-1.213.735-2.084 2.026-2.084zm13.012 3.74c0-1.844-1.648-2.425-2.957-2.716l-.323-.066c-1.014-.206-1.487-.302-1.487-.736 0-.342.322-.512.968-.512.68 0 1.308.307 1.738.649.197.188.466.29.771.29.148 0 .295-.027.433-.08a1.13 1.13 0 00.367-.234c.105-.1.188-.219.244-.35a1.015 1.015 0 00-.292-1.198c-.734-.717-1.792-1.178-3.28-1.178-1.935 0-3.495.785-3.495 2.732 0 1.793 1.38 2.443 2.617 2.75.308.075.577.135.81.186.876.194 1.234.273 1.234.65 0 .36-.305.53-1.237.53-.735 0-1.416-.256-1.99-.683l.019.018a1.19 1.19 0 00-1.596.05 1.024 1.024 0 00-.179 1.264c0 .017.018.034.018.034a.36.36 0 00.072.103c.01.01.018.022.026.034a.237.237 0 00.037.045l.007.008c.014.017.03.038.055.05l.054.05c.789.667 1.918 1.179 3.656 1.179 2.85 0 3.71-1.298 3.71-2.869z" fill="#fff"/><defs><linearGradient id="paint0_linear" x1="10.418" y1="9.712" x2="68.147" y2="76.017" gradientUnits="userSpaceOnUse"><stop stop-color="#1A1E21"/><stop offset="1" stop-color="#06060A"/></linearGradient></defs></svg>