<!-- by TradingView --><svg xmlns="http://www.w3.org/2000/svg" width="56" height="56"><path fill="url(#ab55kpsou)" d="M0 0h56v56H0z"/><path d="M31.51 18.36c.47-2.17-2.08-7.36-2.08-7.36 13.11 8.26 9.47 13.07 9.47 13.07-.74-3.56-7.39-5.71-7.39-5.71zm-3.32 4.77c-.3-1.48-.74-2.94-1.32-4.34l-4.33-2.9s2.24 3.51 1.9 5.82l3.75 1.42zm-8.05-.76a27.3 27.3 0 011.15 3.72l-3.42-.85c.36-2.3-1.82-5.1-1.82-5.1l4.1 2.23zm23.7 9.35c-1-4.16-16.25-14.9-16.25-14.9a18.99 18.99 0 01.22 18.44 23.75 23.75 0 00.77-9.04l-.05-.5-7.32-4.9a18.8 18.8 0 011.51 5.98 18.8 18.8 0 01-1.74 9.83c.65-2.62.85-5.33.6-8.01-.04-.12-.04-.22-.04-.33l-6.84-3.65a15.6 15.6 0 01.64 11.75c-.7 2.08-1.85 4-3.34 5.61 29.21-12.42 30.4-4.24 30.4-4.24s2.2-2.9 1.44-6.04z" fill="#fff"/><defs><linearGradient id="ab55kpsou" x1="10.42" y1="9.71" x2="68.15" y2="76.02" gradientUnits="userSpaceOnUse"><stop stop-color="#1A1E21"/><stop offset="1" stop-color="#06060A"/></linearGradient></defs></svg>