<!-- by TradingView --><svg width="56" height="56" xmlns="http://www.w3.org/2000/svg"><path fill="#F0F3FA" d="M0 0h56v56H0z"/><path d="M14.985 33.022h-1V25H15v1.19c.463-.66 1.53-1.04 2.438-1.04.156 0 .312.01.466.03l.096.014.002 1.1-.138-.035a3.077 3.077 0 00-.7-.07c-1.098 0-2.175 1.103-2.175 2.262l-.004 4.57zM29.863 33.008c1.287 0 2.216-.4 3.013-1.296l.069-.077-.836-.708-.082.083c-.59.627-1.135.99-2.167.99-1.45 0-2.86-1-2.86-3h6c.166-2.329-1.031-4-3.5-4-2.228 0-3.5 1.57-3.5 4 0 2.232 1.58 4.008 3.863 4.008zM27 28c.13-1.139 1.285-2 2.5-2 1.127 0 2.444.862 2.5 2h-5z" fill="#2C2F33"/><path d="M20 25h-1v8h1v-8z" fill="#2C2F33"/><path d="M24.227 33.116c-.4 0-.99-.04-1.458-.398-.51-.386-.769-1.064-.769-2.012v-7.28h1V25h2.007L25 26h-2v4.5c0 1.5.654 1.563 1.215 1.563.223.006.445-.009.666-.042l.128-.021v1.02l-.082.02c-.23.056-.464.081-.7.076zM38.09 33.116a3.943 3.943 0 002.816-1.155 4.09 4.09 0 001.173-2.92 4.09 4.09 0 00-1.173-2.92 4.014 4.014 0 00-5.63 0 4.09 4.09 0 00-1.172 2.92 4.09 4.09 0 001.173 2.925 3.945 3.945 0 002.813 1.15zm0-7.116c1.57-.02 2.91 1.463 2.91 3.047 0 1.453-1.253 2.914-2.91 2.914-1.567 0-2.814-1.4-2.814-2.914 0-1.505 1.246-3.064 2.814-3.047zM9.015 33c-2.138.016-4.042-1.79-4.015-3.957-.029-2.212 1.792-4.092 4.015-4.075 1.139 0 2.126.397 2.856 1.148l-.812.729c-.53-.553-1.234-.845-2.044-.845-2.7-.035-3.662 3.222-1.94 5.037 1.058 1.097 2.937 1.061 3.98-.036l.813.929c-.727.75-1.713 1.07-2.853 1.07z" fill="#2C2F33"/><path d="M19.644 21.777a1.006 1.006 0 11-.014-2.013 1.006 1.006 0 01.014 2.013z" fill="url(#paint0_linear)"/><path d="M51.495 33.546a1.006 1.006 0 11-.015-2.012 1.006 1.006 0 01.015 2.012z" fill="url(#paint1_linear)"/><path d="M49 32h-2.5c-.5 0-1.5-.5-1.5-1.645v-7.784c0-2.071-.62-2.57-2.5-2.571H22v1h20.5c1.568 0 1.5.337 1.5 1.687v7.82C44 32 45.5 33 46.388 33H49v-1z" fill="#F68C21"/><defs><linearGradient id="paint0_linear" x1="11.074" y1="21.007" x2="56.126" y2="21.007" gradientUnits="userSpaceOnUse"><stop stop-color="#F68C21"/><stop offset="1" stop-color="#F16324"/></linearGradient><linearGradient id="paint1_linear" x1="199.058" y1="326.338" x2="1297.43" y2="326.338"><stop stop-color="#F68C21"/></linearGradient></defs></svg>