<!-- by TradingView --><svg xmlns="http://www.w3.org/2000/svg" width="56" height="56" viewBox="0 0 56 56"><path fill="#F0F3FA" d="M0 0h56v56H0z"/><path d="M20.96 26.8c7.93-12.27 19.36-13.91 22.13-9.74 2.27 3.48-.5 10.14-4.77 14.6-8.3 8.64-18.47 10.38-22.95 8.13a8.06 8.06 0 0 1-4.3-8.26c.53-6.28 6.49-10.98 11.48-13.6-3.7 2.78-6.33 5.3-7.87 9.86-.76 2.24-.29 6.26 2.45 7.65 5.63 2.78 14.63-1.69 19.25-5.73 5.54-4.86 7.65-9.18 6-11.88-1.67-2.7-11.4-1.76-21.42 8.97z" fill="url(#a41ji12h2)"/><path d="M20.96 26.8c8.47-9.06 16.8-11.03 20.11-9.93.45-.23.91-.42 1.38-.59-3.62-3.1-14.1-.91-21.49 10.52z" fill="url(#b41ji12h2)"/><path d="M37.35 29.26a17.16 17.16 0 0 0-10.93-4.85l-.92.86-.86.76-.1.1h.36c4.12.23 8.04 1.82 11.16 4.52A36.52 36.52 0 0 1 44.9 41h.1a35.27 35.27 0 0 0-7.65-11.74z" fill="#0464A0"/><defs><linearGradient id="a41ji12h2" x1="13.8" y1="39.77" x2="39.14" y2="15.92" gradientUnits="userSpaceOnUse"><stop offset=".23" stop-color="#69C130"/><stop offset=".32" stop-color="#65C037"/><stop offset=".44" stop-color="#5BBE4A"/><stop offset=".58" stop-color="#49BB6A"/><stop offset=".74" stop-color="#31B696"/><stop offset=".91" stop-color="#12B0CD"/><stop offset="1" stop-color="#00ADEE"/></linearGradient><linearGradient id="b41ji12h2" x1="25.27" y1="22.22" x2="38.96" y2="16.07" gradientUnits="userSpaceOnUse"><stop offset=".23" stop-color="#0464A0"/><stop offset=".38" stop-color="#046AA7"/><stop offset=".6" stop-color="#037CBA"/><stop offset=".86" stop-color="#019AD9"/><stop offset="1" stop-color="#00ADEE"/></linearGradient></defs></svg>