<!-- by TradingView --><svg width="56" height="56" xmlns="http://www.w3.org/2000/svg"><path fill="#EE3524" d="M0 0h56v56H0z"/><path d="M39.999 43.017c0 .253-.1.497-.282.68-.182.183-.43.292-.692.303H32.88a.964.964 0 01-.652-.313.898.898 0 01-.223-.67v-5.996c0-.516.34-1.021.875-1.021h6.146c.266.02.514.136.695.326.18.19.28.438.279.695v5.996zM30 33.167c0 .536-.534.836-1.048.836h-5.93c-.515 0-1.022-.3-1.022-.836V26.95c.021-.264.139-.508.329-.684a.975.975 0 01.692-.262h5.93c.515 0 1.049.411 1.049.946v6.217zM40 33.162c0 .536-.44.836-.974.836H32.88a.786.786 0 01-.876-.836v-6.213a.874.874 0 01.876-.945h6.146a.955.955 0 01.974.945v6.213zM19.999 23.052a.899.899 0 01-.904.948h-6.15a.934.934 0 01-.945-.948v-6.215c0-.534.413-.831.945-.831h6.15a.807.807 0 01.904.831v6.215zM30 23.05c0 .535-.534.95-1.048.95h-5.93a.977.977 0 01-.694-.264A1.049 1.049 0 0122 23.05v-6.219c0-.535.506-.832 1.021-.832h5.93c.515 0 1.049.297 1.049.832v6.219zM40 23.052a.957.957 0 01-.974.948H32.88a.877.877 0 01-.876-.948v-6.215a.784.784 0 01.876-.831h6.146c.534 0 .974.297.974.831v6.215z" fill="#000"/></svg>