<!-- by TradingView --><svg width="56" height="56" xmlns="http://www.w3.org/2000/svg"><path fill="#F0F3FA" d="M0 0h56v56H0z"/><path d="M32.093 29.514C27.529 32.81 29.006 37.878 30.315 40h1.778c-.744-3.305-.704-5.926 2.067-7.875 2.772-1.949 6.74-.449 8.352.49L44 30.9c-2.067-1.836-7.343-4.684-11.907-1.387zM23.454 36H12c.608 2.394 2.355 3.664 3.152 4H27c-1.036-2.82-2.796-3.842-3.546-4z" fill="#D00412"/><path d="M25.647 30.634l-9.58-5.049c-.574 2.357.314 4.236.83 4.88l9.91 5.223c.408-2.918-.603-4.585-1.16-5.054z" fill="#EB6100"/><path d="M29.714 25.15l-6.695-7.31c-1.378 2.005-1.277 3.977-1.054 4.713l6.926 7.56c1.437-2.566 1.147-4.378.823-4.964z" fill="#FCC902"/><path d="M35.77 23.329L33.602 14c-1.923.977-2.675 2.656-2.81 3.373l2.242 9.65c2.206-1.412 2.743-3.051 2.736-3.694z" fill="#EB6100"/><path d="M43.285 23.969l.557-8.083c-2.087.284-3.263 1.44-3.59 1.983l-.577 8.36c2.474-.56 3.438-1.74 3.61-2.26z" fill="#D00412"/></svg>