<!-- by TradingView --><svg width="56" height="56" viewBox="0 0 56 56" xmlns="http://www.w3.org/2000/svg"><path fill="#142246" d="M0 0h56v56H0z"/><path d="m13.63 14 14.47 3.23.01.18c.08 1.23.2 2.33.52 3.4a8.88 8.88 0 0 0 2 3.44 20.23 20.23 0 0 0 4.09 3.33c4.63 3 7.3 8.05 8.14 10.36.63.05 1.07.33 1.36.68.3.37.44.81.47 1.11l.02.27h-2.97l-.05-.19A6.1 6.1 0 0 0 40.61 38c-.7-.89-1.76-2.02-3.33-3.29a11.83 11.83 0 0 0-5.25-2.26c-1.6-.3-3.07-.32-4.05-.25.93 2.3.08 3.9-.61 4.53.02.26.16.5.35.72.2.23.44.4.62.5.82.01 1.37.29 1.7.67.35.38.46.83.45 1.15V40h-2.57c-.8-.18-1.52-.7-2.09-1.25a8.06 8.06 0 0 1-1.26-1.55l-.06-.1.05-.13c.4-.86.3-1.52.06-2-.2-.38-.53-.66-.8-.83-1.73 2.68-5.05 3.12-7.1 2.89-.76-.09-1.24.11-1.55.37-.25.2-.39.47-.45.68.7.54.77 1.35.7 1.72l-.03.2H12.1l.03-.27c.2-2.3 1.49-4 2.13-4.58l.08-.08.11.01c1.09.08 2.14-.3 2.97-.83.42-.27.77-.56 1.03-.84.27-.29.44-.54.5-.73.15-.38.46-.95.78-1.48.1-.18.22-.36.33-.53a35.9 35.9 0 0 1-3.04 1.48c-.77.33-1.55.63-2.29.84-.73.2-1.42.33-2 .31a3.96 3.96 0 0 1-2.94-1.18 2.8 2.8 0 0 1-.17-3.72 2.95 2.95 0 0 1 2.14-1.03c.84-.07 1.47.25 1.91.67.44.41.7.93.8 1.28l-.49.14c-.08-.29-.3-.72-.66-1.06a1.91 1.91 0 0 0-1.52-.54c-.87.07-1.44.42-1.79.85-.36.43-.5.97-.5 1.44 0 .45.17 1.1.66 1.64.48.53 1.28.98 2.57 1.02.5.02 1.14-.1 1.85-.3.7-.2 1.47-.48 2.23-.8 1.5-.65 2.96-1.43 3.86-1.96 1.9-1.8 4.69-2.54 5.87-2.7a6.87 6.87 0 0 0 3.25-1.97l.4.3a7.36 7.36 0 0 1-3.52 2.15h-.04c-1.12.15-3.81.87-5.61 2.57-.22.32-.55.83-.87 1.35a9.67 9.67 0 0 0-.73 1.4c-.1.27-.32.58-.6.89a6.06 6.06 0 0 1-4.3 1.84 7.02 7.02 0 0 0-1.87 3.93h2.28c0-.32-.15-.8-.65-1.12l-.13-.09.02-.16c.06-.32.25-.77.67-1.12a2.47 2.47 0 0 1 1.93-.48c2.02.23 5.19-.24 6.72-2.85l.11-.2.21.1c.4.17.93.56 1.25 1.16.3.59.4 1.37 0 2.3.23.37.63.88 1.12 1.35.53.51 1.16.95 1.81 1.1h1.96a1.27 1.27 0 0 0-.3-.57c-.23-.26-.65-.5-1.39-.5h-.06l-.05-.03a2.98 2.98 0 0 1-.81-.63c-.27-.3-.5-.7-.49-1.17v-.11l.1-.07c.55-.45 1.52-1.97.43-4.34l-.14-.3.34-.04c1-.12 2.7-.12 4.53.22 1.84.35 3.85 1.05 5.48 2.36 1.6 1.3 2.7 2.45 3.4 3.37.62.78.97 1.41 1.12 1.82h2.01a1.41 1.41 0 0 0-1.45-1.08h-.18l-.06-.17c-.74-2.17-3.39-7.28-8-10.26a20.92 20.92 0 0 1-4.14-3.36l-10.66-2.02c.06.66.55 1.79 2.33 2.37l5.5 1.02-.1.49-5.53-1.03h-.01c-2.3-.75-2.78-2.38-2.7-3.17l.03-.27 10.63 2.01a9.12 9.12 0 0 1-1.6-2.95l-11.18-2.24c.15.74.83 1.93 2.79 2.3l6.85 1.32-.1.49-6.85-1.32c-2.52-.48-3.22-2.23-3.23-3.1v-.3l11.57 2.31a16 16 0 0 1-.42-2.92l-13.35-2.98c.12.43.36.96.73 1.44a3.26 3.26 0 0 0 2.26 1.27l7.43 1.47-.1.48-7.4-1.46a3.77 3.77 0 0 1-2.59-1.46c-.55-.7-.82-1.5-.9-2.03l-.07-.36Zm23.72 2.24.2.01a7.58 7.58 0 0 1 4.18 1.97l.08.07v.7L45 21.5l-.72 1.22-.23-.22a.93.93 0 0 0-.54-.2c-.22-.02-.39.04-.47.17a.57.57 0 0 0-.12.32c0 .09.02.18.07.26.1.18.3.31.42.37l.26.12-.76 1.13-.2-.12c-1-.56-1.73-.6-2.24-.45-.44.13-.74.39-.9.62a8.21 8.21 0 0 1 1.02 7.78l-.46-.2a7.75 7.75 0 0 0-1.07-7.43l-.1-.12.08-.14c.2-.36.62-.8 1.29-.98a3.3 3.3 0 0 1 2.42.38l.2-.3c-.14-.1-.29-.24-.4-.41a.98.98 0 0 1-.14-.52c0-.2.07-.4.21-.6.23-.31.6-.4.93-.38.2.02.41.08.6.17l.2-.35-3.05-2.39v-.73a7.2 7.2 0 0 0-3.58-1.73L37.4 18l-.28-.12a5.85 5.85 0 0 0-3.47-.3l.45.96-.27.09c-.4.13-1.03.45-1.6.95-.5.44-.94 1.02-1.12 1.74h.91l-.08.3c-.1.41-.43 1.47-.91 2.47l-.46-.2c.37-.78.65-1.59.8-2.08h-.86l.04-.28c.16-1 .72-1.77 1.34-2.32a5.57 5.57 0 0 1 1.52-.95l-.45-.97.26-.1c.81-.28 1.67-.3 2.4-.2.57.07 1.07.2 1.44.33l.29-1.08Zm-6.16 23.55c-.53-3.32.1-6 .49-6.94l.46.18c-.34.84-.94 3.34-.48 6.48h2.2c-.06-.4-.35-.99-1.2-1.2l-.19-.05v-.2c.02-.88.44-2.98 2.03-4.39l.34.37a6 6 0 0 0-1.85 3.85 1.94 1.94 0 0 1 1.4 1.88l-.02.23h-3.14l-.04-.2Z" fill="#fff"/></svg>