<!-- by TradingView --><svg width="56" height="56" viewBox="0 0 56 56" xmlns="http://www.w3.org/2000/svg"><path fill="#F0F3FA" d="M0 0h56v56H0z"/><path d="M48 14.02H30.3c-6.07-.3-18.43 2.39-19.29 15.49C10.8 33.81 13.48 42.73 26 44c1.18 0 4.07-.15 6.26-.84-5.72.17-17.2-2.32-17.32-13.65-.24-4.2 2.36-12.72 14.63-13.51h10.98c1.53.03 5.16-.37 7.46-1.98Zm-6.8 15.85c-.32-10.33-10.7-11.62-15.42-10.63 3.66.48 10.65 2.04 10.7 10.18.04 8.13-6.54 9.9-9.84 9.75a9.96 9.96 0 0 0 4.67 1.03 10.34 10.34 0 0 0 9.89-10.33Zm-21.3-.27c.2-6.62 6.97-7.45 10.05-6.81-2.39.3-6.94 1.3-6.97 6.52-.03 5.22 4.26 6.35 6.4 6.26a6.58 6.58 0 0 1-3.04.65 6.67 6.67 0 0 1-6.44-6.62Z" fill="#F58026"/></svg>