<!-- by TradingView --><svg xmlns="http://www.w3.org/2000/svg" width="56" height="56" viewBox="0 0 56 56"><path fill="#F0F3FA" d="M0 0h56v56H0z"/><path fill-rule="evenodd" d="M4 22h11.5v12H4V22Zm2.39 6c0-2.2 1.59-4 3.76-4 1.35 0 2.15.5 2.91 1.23l-.4.43a3.45 3.45 0 0 0-2.53-1.14c-1.8 0-3.18 1.52-3.18 3.45V28c0 1.96 1.38 3.49 3.18 3.49 1.09 0 1.83-.42 2.6-1.2l.38.38c-.8.8-1.65 1.34-2.99 1.34-2.15 0-3.73-1.77-3.73-4Zm9.78-6h11.5v12h-11.5V22Zm2.97 8.71.37-.42c.83.79 1.6 1.16 2.7 1.16 1.13 0 1.9-.65 1.9-1.54v-.02c0-.82-.4-1.3-2.13-1.65-1.8-.38-2.53-1.01-2.53-2.18v-.02c0-1.16 1.03-2.04 2.43-2.04 1.09 0 1.8.32 2.58.94l-.35.46a3.13 3.13 0 0 0-2.24-.86c-1.1 0-1.84.64-1.84 1.46V26c0 .83.4 1.32 2.2 1.7 1.72.37 2.46 1.02 2.46 2.14v.02c0 1.25-1.05 2.13-2.49 2.13a4.55 4.55 0 0 1-3.06-1.29ZM39.84 22h-11.5v12h11.5V22Zm-10.18 2.03h-.59L31.62 32h.42l2.06-6.88L36.17 32h.41l2.56-7.97h-.54l-2.2 7.03L34.32 24h-.4l-2.07 7.06-2.2-7.03ZM40.5 22H52v12H40.5V22Zm2.39 6V28c0-2.2 1.6-4 3.76-4 1.35 0 2.15.5 2.91 1.24l-.4.42a3.45 3.45 0 0 0-2.53-1.13c-1.8 0-3.18 1.51-3.18 3.45v.02c0 1.95 1.38 3.49 3.18 3.49 1.09 0 1.82-.43 2.6-1.2l.38.38c-.8.8-1.65 1.34-2.99 1.34-2.16 0-3.73-1.77-3.73-4Z" fill="#82888F"/></svg>