<!-- by TradingView --><svg width="56" height="56" viewBox="0 0 56 56" xmlns="http://www.w3.org/2000/svg"><path fill="#F0F3FA" d="M0 0h56v56H0z"/><path d="M22.67 12.82a34.87 34.87 0 0 0-5.42 4.44A32.7 32.7 0 0 0 10 28a29.38 29.38 0 0 0 1.9 3.87A48 48 0 0 1 26.6 15.12a44.75 44.75 0 0 0-3.92-2.3M33.33 43.18a34.96 34.96 0 0 0 5.41-4.43A32.68 32.68 0 0 0 46 28a29.37 29.37 0 0 0-1.91-3.87A48.06 48.06 0 0 1 29.4 40.88c1.27.84 2.58 1.6 3.93 2.3Z" fill="#62A043"/><path d="M12.82 33.33a34.87 34.87 0 0 0 4.43 5.41A32.7 32.7 0 0 0 28 46a29.31 29.31 0 0 0 3.86-1.91A47.91 47.91 0 0 1 15.11 29.4a44.36 44.36 0 0 0-2.3 3.93M43.17 22.67a34.77 34.77 0 0 0-4.43-5.42A32.7 32.7 0 0 0 27.99 10a29.31 29.31 0 0 0-3.86 1.91A48.06 48.06 0 0 1 40.88 26.6c.83-1.27 1.6-2.58 2.3-3.92" fill="#655C59"/><path d="M21.1 28.72c-.9.9-1.64 1.69-2.24 2.34A49.23 49.23 0 0 0 28 39.61c.7-.52 1.4-1.06 2.09-1.63a72.44 72.44 0 0 1-8.99-9.26Z" fill="#62A043"/><path d="M28.7 34.9c.9.9 1.7 1.64 2.35 2.24A49.26 49.26 0 0 0 39.6 28c-.52-.7-1.06-1.4-1.63-2.09a72.48 72.48 0 0 1-9.26 8.99Z" fill="#655C59"/><path d="M34.9 27.29c.88-.9 1.63-1.7 2.23-2.35A49.3 49.3 0 0 0 28 16.4c-.7.52-1.4 1.07-2.09 1.63a72.47 72.47 0 0 1 9 9.27" fill="#62A043"/><path d="M27.28 21.1c-.9-.89-1.69-1.64-2.34-2.24A49.35 49.35 0 0 0 16.39 28c.52.7 1.06 1.4 1.63 2.1a72.54 72.54 0 0 1 9.26-9Z" fill="#655C59"/></svg>