<!-- by TradingView --><svg width="56" height="56" viewBox="0 0 56 56" xmlns="http://www.w3.org/2000/svg"><path fill="#F0F3FA" d="M0 0h56v56H0z"/><path d="M24 14a1 1 0 1 0 0-2 1 1 0 0 0 0 2Zm8.97.48c.67 0 1.22-.56 1.22-1.24 0-.69-.55-1.24-1.22-1.24-.67 0-1.21.55-1.21 1.24 0 .68.54 1.24 1.21 1.24Zm-13.2.27c0 .33-.26.6-.58.6a.59.59 0 0 1-.59-.6c0-.33.27-.6.59-.6.32 0 .58.27.58.6Zm3.19.95a.7.7 0 0 0 .7-.7.7.7 0 0 0-.7-.71.7.7 0 0 0-.7.7c0 .4.32.71.7.71Zm15.14-.74c0 .33-.26.6-.58.6a.59.59 0 0 1-.59-.6c0-.32.26-.59.59-.59.32 0 .58.27.58.6Zm-17.35.49c.22 0 .4-.19.4-.42a.42.42 0 0 0-.4-.42.42.42 0 0 0-.41.42c0 .23.18.42.4.42Zm1.29.14c0 .18-.14.32-.31.32a.31.31 0 0 1-.3-.32c0-.17.13-.31.3-.31.17 0 .3.14.3.31Zm9.92 1.54c.5 0 .9-.41.9-.92s-.4-.93-.9-.93-.9.42-.9.93c0 .5.4.92.9.92Zm4.76-1.4c0 .23-.18.41-.41.41a.41.41 0 0 1-.4-.41c0-.23.18-.42.4-.42.23 0 .4.19.4.42Zm-7.06 1.36a.7.7 0 0 0 .69-.7.7.7 0 0 0-.7-.71.7.7 0 0 0-.68.7c0 .39.3.7.69.7Zm4.86-.74c0 .33-.26.59-.57.59a.58.58 0 0 1-.58-.59c0-.32.26-.59.58-.59.31 0 .57.27.57.6Zm.73.16c.17 0 .3-.14.3-.3a.31.31 0 0 0-.3-.32c-.17 0-.3.14-.3.31 0 .17.13.31.3.31Zm-12.51.34c0 .33-.27.6-.59.6a.59.59 0 0 1-.58-.6c0-.33.26-.6.58-.6.32 0 .59.27.59.6Zm1.28.27c.17 0 .3-.14.3-.31a.31.31 0 0 0-.3-.32c-.17 0-.31.15-.31.32s.14.31.3.31Zm3.78.08a.7.7 0 0 1-.7.7.7.7 0 0 1-.69-.7c0-.39.31-.7.7-.7.38 0 .69.31.69.7Zm-11.86.8c.33 0 .59-.26.59-.59 0-.32-.26-.6-.59-.6a.59.59 0 0 0-.58.6c0 .33.26.6.58.6Zm20.5-.37c0 .39-.3.7-.68.7a.7.7 0 0 1-.7-.7c0-.39.32-.7.7-.7a.7.7 0 0 1 .69.7Zm-11.35.41c.22 0 .4-.18.4-.41a.41.41 0 0 0-.4-.42.41.41 0 0 0-.41.42c0 .23.18.41.4.41Zm6.25.15c0 .39-.3.7-.69.7a.7.7 0 0 1-.69-.7.7.7 0 1 1 1.38 0Zm-11.5 1.93c.67 0 1.2-.55 1.2-1.24 0-.68-.53-1.24-1.2-1.24-.68 0-1.22.56-1.22 1.24 0 .69.54 1.24 1.22 1.24Zm-2.76-1.4c0 .22-.18.41-.4.41a.42.42 0 0 1-.42-.42c0-.23.18-.42.41-.42.23 0 .41.19.41.42Zm9.62.58c.23 0 .41-.19.41-.42a.42.42 0 0 0-.4-.42.42.42 0 0 0-.42.42c0 .23.18.42.41.42Zm3.13.88c0 .57-.46 1.04-1.03 1.04-.56 0-1.02-.47-1.02-1.04 0-.58.46-1.05 1.02-1.05.57 0 1.03.47 1.03 1.05Zm12.43.82a1 1 0 1 0 0-2 1 1 0 0 0 0 2Zm-24.9-1.08c0 .18-.13.32-.3.32a.31.31 0 0 1-.31-.32c0-.17.14-.31.3-.31.18 0 .32.14.32.31Zm17.12.72c.22 0 .4-.2.4-.42a.41.41 0 0 0-.4-.42c-.23 0-.41.19-.41.42 0 .23.18.42.4.42Zm3.34-.37c0 .23-.18.41-.4.41a.41.41 0 0 1-.42-.41c0-.23.19-.42.41-.42.23 0 .4.19.4.42Zm-11.16.62c.17 0 .31-.14.31-.31a.32.32 0 0 0-.31-.32.32.32 0 0 0-.31.32c0 .17.14.31.3.31Zm5.22.2c0 .39-.3.7-.69.7a.7.7 0 0 1-.7-.7c0-.39.32-.7.7-.7.38 0 .7.31.7.7Zm7.96.79a.7.7 0 0 0 .69-.7.7.7 0 0 0-.7-.7.7.7 0 0 0-.68.7c0 .38.3.7.69.7Zm-17.97-.49c0 .4-.31.7-.7.7a.7.7 0 0 1-.69-.7c0-.39.31-.7.7-.7.38 0 .69.31.69.7Zm11.59.55c.32 0 .58-.26.58-.6 0-.32-.26-.58-.58-.58a.59.59 0 0 0-.58.59c0 .33.26.6.58.6Zm-14.06-.16c0 .51-.4.92-.9.92s-.9-.41-.9-.92c0-.5.4-.92.9-.92s.9.41.9.92Zm18.57.29c.32 0 .58-.26.58-.6 0-.32-.26-.58-.58-.58a.59.59 0 0 0-.58.59c0 .33.26.59.58.59ZM12 21.86v.28c.3.83.8 1.06 1.46.69 1.63-.91-.88-3-1.46-.97Zm13.24.76c.45 0 .81-.37.81-.83a.83.83 0 0 0-.81-.84.83.83 0 0 0-.82.84c0 .46.36.83.82.83Zm-9.16-.76c0 .4-.3.7-.69.7a.7.7 0 0 1-.7-.7c0-.39.32-.7.7-.7.38 0 .7.31.7.7Zm19.52 1.6c.62 0 1.13-.52 1.13-1.15 0-.63-.5-1.15-1.13-1.15-.62 0-1.12.52-1.12 1.15 0 .63.5 1.15 1.12 1.15Zm-7.5-1.66c0 .33-.26.59-.58.59a.58.58 0 0 1-.57-.59c0-.32.25-.59.57-.59.32 0 .58.27.58.59Zm4.3 1.13c.23 0 .41-.19.41-.42a.41.41 0 0 0-.4-.41.41.41 0 0 0-.42.41c0 .23.19.42.41.42Zm-15.04-.32c0 .17-.14.31-.3.31a.31.31 0 0 1-.32-.31c0-.18.14-.32.31-.32.17 0 .31.14.31.32Zm21.7 3.32c.91 0 1.66-.76 1.66-1.7 0-.93-.75-1.68-1.66-1.68-.92 0-1.66.75-1.66 1.69 0 .93.74 1.69 1.66 1.69ZM22 23.16c0 .23-.18.42-.41.42a.42.42 0 0 1-.41-.42c0-.23.18-.42.4-.42.24 0 .42.2.42.42Zm2.63 1.96c.56 0 1.02-.47 1.02-1.05 0-.58-.46-1.04-1.02-1.04-.57 0-1.03.46-1.03 1.04 0 .58.46 1.05 1.03 1.05Zm2.73-1.43c0 .23-.19.41-.41.41a.41.41 0 0 1-.41-.41c0-.23.18-.42.4-.42.23 0 .42.19.42.42Zm4.24 1.44c.5 0 .9-.41.9-.92 0-.5-.4-.92-.9-.92s-.9.41-.9.92c0 .5.4.92.9.92Zm-13.9-1.15c0 .24-.18.43-.4.43a.42.42 0 0 1-.42-.43c0-.23.18-.42.41-.42.23 0 .42.2.42.42Zm12.01.97a.7.7 0 0 0 .7-.7.7.7 0 0 0-.7-.7.7.7 0 0 0-.69.7c0 .39.31.7.7.7Zm-6.64.61c0 .69-.54 1.24-1.21 1.24-.67 0-1.21-.55-1.21-1.24 0-.68.54-1.23 1.21-1.23.67 0 1.21.55 1.21 1.23Zm11.43.65c.5 0 .9-.41.9-.92s-.4-.92-.9-.92-.91.41-.91.92.4.92.9.92Zm-6.85-1.18c0 .23-.18.42-.41.42a.42.42 0 0 1-.41-.42c0-.24.18-.43.41-.43.23 0 .41.2.41.43Zm9.07 1.5c.32 0 .58-.27.58-.6 0-.32-.26-.59-.58-.59a.58.58 0 0 0-.58.6c0 .32.26.58.58.58ZM19 27.5a1.5 1.5 0 1 1-3 0 1.5 1.5 0 0 1 3 0Zm9.1-.3a.7.7 0 0 0 .7-.7.7.7 0 0 0-.7-.7.7.7 0 0 0-.68.7c0 .39.3.7.69.7Zm5.86 0c0 .38-.3.7-.68.7a.7.7 0 0 1-.7-.7c0-.4.31-.71.7-.71a.7.7 0 0 1 .68.7Zm-4.52 1.48a.7.7 0 0 0 .7-.7.7.7 0 0 0-.7-.71.7.7 0 0 0-.69.7c0 .4.31.7.7.7Zm6.22.11c0 .46-.36.84-.82.84a.82.82 0 0 1-.81-.84c0-.46.36-.83.81-.83.46 0 .82.37.82.83Zm-3.82 2.72c.92 0 1.66-.75 1.66-1.68 0-.94-.74-1.7-1.66-1.7-.9 0-1.65.76-1.65 1.7 0 .93.74 1.68 1.65 1.68Zm-9.82-1.95c0 .64-.5 1.15-1.13 1.15-.62 0-1.13-.51-1.13-1.15 0-.63.5-1.15 1.13-1.15.62 0 1.13.52 1.13 1.15Zm2.75.67a.7.7 0 0 0 .7-.7.7.7 0 0 0-.7-.71.7.7 0 0 0-.7.7c0 .4.32.71.7.71Zm13.8-.36c0 .4-.3.7-.69.7a.7.7 0 0 1-.69-.7c0-.39.31-.7.7-.7.37 0 .68.31.68.7Zm-21 .91c.33 0 .59-.26.59-.59 0-.33-.26-.6-.58-.6a.59.59 0 0 0-.58.6c0 .33.26.6.58.6Zm-2.7-.04c0 .58-.46 1.04-1.02 1.04-.57 0-1.03-.46-1.03-1.04 0-.58.46-1.04 1.03-1.04.56 0 1.02.46 1.02 1.04Zm24.97 1.24c.5 0 .9-.42.9-.93 0-.5-.4-.92-.9-.92s-.9.41-.9.92.4.93.9.93Zm-11.71 0c0 .92-.74 1.68-1.66 1.68-.91 0-1.65-.76-1.65-1.69 0-.93.74-1.69 1.65-1.69.92 0 1.66.76 1.66 1.7Zm1.23-.06a.7.7 0 0 0 .7-.7.7.7 0 0 0-.7-.7.7.7 0 0 0-.69.7c0 .39.31.7.7.7Zm14.64.43v-.7c-.24-.9-1.36-1.2-1.98-.58-1.44 1.45 1.27 3.3 1.98 1.28Zm-27.08-.74c.17 0 .3-.14.3-.31a.31.31 0 0 0-.3-.32.31.31 0 0 0-.31.32c0 .17.14.31.3.31Zm16.94.3c0 .17-.14.31-.31.31a.31.31 0 0 1-.31-.31c0-.18.14-.32.3-.32.18 0 .32.14.32.32Zm-17.72 1.18a.7.7 0 0 0 .69-.7.7.7 0 0 0-.7-.72.7.7 0 0 0-.69.71c0 .4.31.7.7.7Zm5.88-.1c0 .53-.43.97-.96.97a.97.97 0 0 1-.96-.98c0-.54.43-.98.96-.98s.96.44.96.98Zm7.17.87a.7.7 0 0 0 .7-.7.7.7 0 0 0-.7-.7.7.7 0 0 0-.69.7c0 .39.31.7.7.7Zm6.17-.83c0 .33-.26.6-.58.6a.59.59 0 0 1-.58-.6c0-.33.26-.6.58-.6.32 0 .58.27.58.6Zm-20.01.7a.3.3 0 0 0 .3-.3.3.3 0 0 0-.3-.32.3.3 0 0 0-.3.31c0 .17.13.31.3.31Zm16.66.65c0 .5-.4.92-.9.92s-.91-.41-.91-.92c0-.52.4-.93.9-.93s.91.41.91.93Zm3.96-.12c.18 0 .31-.15.31-.32a.31.31 0 0 0-.3-.31c-.18 0-.31.14-.31.31 0 .17.13.32.3.32Zm-20.8.2c0 .23-.19.42-.41.42a.42.42 0 0 1-.41-.42c0-.24.18-.42.4-.42.23 0 .42.18.42.42Zm18.95 2.08c.67 0 1.21-.55 1.21-1.24 0-.68-.54-1.24-1.21-1.24-.67 0-1.21.56-1.21 1.24 0 .69.54 1.24 1.21 1.24Zm-5.64-1.6c0 .46-.37.83-.82.83a.83.83 0 0 1-.82-.83c0-.46.37-.84.82-.84.45 0 .82.38.82.84Zm8.55.01c.23 0 .4-.18.4-.41a.41.41 0 0 0-.4-.42c-.22 0-.4.19-.4.42 0 .23.18.41.4.41Zm2.35.16c0 .38-.3.7-.69.7a.7.7 0 0 1-.7-.7c0-.4.32-.71.7-.71.38 0 .7.32.7.7Zm-20.76 1.88c.67 0 1.21-.55 1.21-1.24 0-.68-.54-1.24-1.21-1.24-.67 0-1.22.56-1.22 1.24 0 .69.55 1.24 1.22 1.24Zm-3.5-.97c0 .32-.26.59-.58.59a.59.59 0 0 1-.58-.6c0-.32.26-.59.58-.59.32 0 .58.27.58.6Zm6.3 2.22c.5 0 .9-.42.9-.93 0-.5-.4-.92-.9-.92s-.91.42-.91.92c0 .51.4.93.9.93Zm6.58.26a1.5 1.5 0 1 1-3 0 1.5 1.5 0 0 1 3 0Zm-4.02.12a.7.7 0 0 0 .7-.7.7.7 0 0 0-.7-.7.7.7 0 0 0-.69.7c0 .38.31.7.7.7Zm-3.91-.6c0 .33-.26.6-.58.6a.59.59 0 0 1-.58-.6c0-.33.26-.6.58-.6.32 0 .58.27.58.6Zm11.88 1.56c.5 0 .9-.41.9-.92 0-.5-.4-.92-.9-.92s-.9.41-.9.92c0 .5.4.92.9.92Zm-1.58-.92c0 .38-.31.7-.7.7a.7.7 0 0 1-.68-.7c0-.4.3-.7.69-.7a.7.7 0 0 1 .69.7Zm5.03 1.52a.7.7 0 0 0 .69-.7.7.7 0 0 0-.7-.7.7.7 0 0 0-.68.7c0 .39.3.7.69.7Zm-13.9-.1c0 .46-.36.84-.81.84a.83.83 0 0 1-.82-.84c0-.46.37-.83.82-.83.45 0 .82.37.82.83Zm15.04 2.77c.57 0 1.02-.47 1.02-1.04 0-.58-.45-1.05-1.02-1.05-.56 0-1.02.47-1.02 1.05 0 .57.46 1.04 1.02 1.04ZM21 44h.4c.76-.25 1.06-.72.89-1.42-.36-1.5-2.55-.87-2.16.6.11.42.4.7.87.82Z" fill="#367765"/></svg>