<!-- by TradingView --><svg xmlns="http://www.w3.org/2000/svg" width="56" height="56"><path fill="#F0F3FA" d="M0 0h56v56H0z"/><circle cx="33.5" cy="16.5" r="5.5" fill="url(#a2xzvksh0)"/><ellipse cx="21.73" cy="20.73" rx="4.61" ry="5.13" fill="url(#b2xzvksh0)"/><ellipse cx="16.56" cy="30.78" rx="3.77" ry="4.92" transform="rotate(-12.29 16.56 30.78)" fill="url(#c2xzvksh0)"/><ellipse cx="21.66" cy="40.14" rx="3.23" ry="4.37" transform="rotate(-25.83 21.66 40.14)" fill="url(#d2xzvksh0)"/><ellipse cx="29.99" cy="42.9" rx="2.78" ry="3.36" transform="rotate(-41.18 29.99 42.9)" fill="url(#e2xzvksh0)"/><ellipse cx="35.7" cy="40.12" rx="2.29" ry="2.9" transform="rotate(-18.88 35.7 40.12)" fill="url(#f2xzvksh0)"/><ellipse cx="39.46" cy="35.42" rx="1.65" ry="2.31" transform="rotate(6.52 39.46 35.42)" fill="url(#g2xzvksh0)"/><ellipse cx="37.86" cy="31.02" rx="1.57" ry="1.75" transform="rotate(21.14 37.86 31.02)" fill="url(#h2xzvksh0)"/><ellipse cx="34.3" cy="29.37" rx="1.08" ry="1.48" transform="rotate(32.5 34.3 29.37)" fill="url(#i2xzvksh0)"/><ellipse cx="28.86" cy="41.42" rx="1.78" ry="1.17" transform="rotate(-33.72 28.86 41.42)" fill="url(#j2xzvksh0)"/><ellipse cx="33.5" cy="13.65" rx="3.88" ry="2.38" fill="url(#k2xzvksh0)"/><ellipse cx="22.03" cy="18.1" rx="3.27" ry="2.23" transform="rotate(9.6 22.03 18.1)" fill="url(#l2xzvksh0)"/><path d="M16.18 26.32c2.02.14 2.94 1.58 2.94 2.11 0 .53-1.13 1.37-3.3 1.51-2.18.14-2.56-.82-2.56-1.1 0-.5.86-2.67 2.92-2.52z" fill="url(#m2xzvksh0)"/><path d="M20.27 36.33c1.68-.27 2.55.68 2.68 1.15.33 1.15-1.5 2.3-2.68 2.34-.63.02-1.76-.3-1.62-1.53a2.31 2.31 0 011.62-1.96z" fill="url(#n2xzvksh0)"/><path d="M35.34 37.63c.85-.06 1.52.55 1.52.92 0 .38-.46.88-1.52 1.06-1.06.2-1.48-.26-1.5-.64-.01-.39.44-1.26 1.5-1.34z" fill="url(#o2xzvksh0)"/><path d="M39.16 33.71c1.5.11 1.79 1.2 1.58 1.5-.3.42-2.3-.1-2.3-.8 0-.4.37-.7.72-.7z" fill="#D56D48"/><ellipse cx="38.25" cy="30.45" rx="1.08" ry=".79" transform="rotate(41.52 38.25 30.45)" fill="#C7664E"/><ellipse cx="34.67" cy="28.82" rx=".7" ry=".56" transform="rotate(41.52 34.67 28.82)" fill="#9C5D55"/><defs><linearGradient id="a2xzvksh0" x1="35.08" y1="14.85" x2="29.36" y2="20.08" gradientUnits="userSpaceOnUse"><stop stop-color="#63297A"/><stop offset="1" stop-color="#8B2680"/></linearGradient><linearGradient id="b2xzvksh0" x1="21.73" y1="15.6" x2="19.33" y2="25.06" gradientUnits="userSpaceOnUse"><stop stop-color="#452B7D"/><stop offset="1" stop-color="#4C2B7E"/></linearGradient><linearGradient id="c2xzvksh0" x1="16.56" y1="25.87" x2="16.56" y2="35.7" gradientUnits="userSpaceOnUse"><stop offset=".08" stop-color="#2A2A82"/><stop offset="1" stop-color="#4476BA"/></linearGradient><linearGradient id="d2xzvksh0" x1="21.66" y1="35.77" x2="21.66" y2="44.51" gradientUnits="userSpaceOnUse"><stop stop-color="#287755"/><stop offset="1" stop-color="#45A547"/></linearGradient><linearGradient id="e2xzvksh0" x1="29.99" y1="39.54" x2="29.99" y2="46.26" gradientUnits="userSpaceOnUse"><stop stop-color="#F69D30"/><stop offset="1" stop-color="#F3D80E"/></linearGradient><linearGradient id="f2xzvksh0" x1="36.63" y1="37.4" x2="34.85" y2="42.6" gradientUnits="userSpaceOnUse"><stop stop-color="#D64635"/><stop offset="1" stop-color="#FAAE17"/></linearGradient><linearGradient id="g2xzvksh0" x1="39.46" y1="33.11" x2="39.46" y2="37.73" gradientUnits="userSpaceOnUse"><stop stop-color="#C12026"/><stop offset="1" stop-color="#F37423"/></linearGradient><linearGradient id="h2xzvksh0" x1="37.86" y1="29.26" x2="37.86" y2="32.77" gradientUnits="userSpaceOnUse"><stop stop-color="#AA232A"/><stop offset="1" stop-color="#E15124"/></linearGradient><linearGradient id="i2xzvksh0" x1="34.3" y1="27.89" x2="34.3" y2="30.86" gradientUnits="userSpaceOnUse"><stop stop-color="#774243"/><stop offset="1" stop-color="#CA2628"/></linearGradient><linearGradient id="j2xzvksh0" x1="28.86" y1="40.24" x2="28.86" y2="42.59" gradientUnits="userSpaceOnUse"><stop stop-color="#F8AD54"/><stop offset="1" stop-color="#F7BF5C"/></linearGradient><linearGradient id="k2xzvksh0" x1="34.61" y1="11.28" x2="30.97" y2="15.28" gradientUnits="userSpaceOnUse"><stop stop-color="#80257D"/><stop offset="1" stop-color="#8B247E"/></linearGradient><linearGradient id="l2xzvksh0" x1="22.03" y1="15.87" x2="22.03" y2="20.32" gradientUnits="userSpaceOnUse"><stop stop-color="#69287F"/><stop offset="1" stop-color="#682880"/></linearGradient><linearGradient id="m2xzvksh0" x1="16.19" y1="26.31" x2="16.19" y2="29.96" gradientUnits="userSpaceOnUse"><stop stop-color="#5B579B"/><stop offset="1" stop-color="#606AA9"/></linearGradient><linearGradient id="n2xzvksh0" x1="19.88" y1="36.28" x2="21.89" y2="39.37" gradientUnits="userSpaceOnUse"><stop stop-color="#52876A"/><stop offset="1" stop-color="#5D956B"/></linearGradient><linearGradient id="o2xzvksh0" x1="35.35" y1="37.63" x2="35.35" y2="39.66" gradientUnits="userSpaceOnUse"><stop stop-color="#E07325"/><stop offset="1" stop-color="#EE9521"/></linearGradient></defs></svg>