<!-- by TradingView --><svg width="56" height="56" viewBox="0 0 56 56" xmlns="http://www.w3.org/2000/svg"><path fill="#F0F3FA" d="M0 0h56v56H0z"/><path d="M29.34 36.5c-.27.03.28 0 0 0C25.4 36.5 21 33 21 28c0-6 4.4-10 8.34-10 .1 0-.1 0 0 0l1.38-4.7a.95.95 0 0 0-.81-1.23c-.53-.04-1.06-.07-1.6-.07-9 0-16.31 7.16-16.31 16s7.3 16 16.32 16c.83 0 1.65-.06 2.45-.18.6-.09.95-.7.75-1.27l-2.18-6.05ZM37.87 16c-.52.67-3.35 3.2-4.03 2.7-.68-.5 1.05-3.84 1.56-4.5.52-.66 1.49-.8 2.17-.3.68.5.81 1.44.3 2.1ZM42.3 22.33c-.71.45-4.26 1.9-4.73 1.2-.46-.7 2.33-3.26 3.05-3.71a1.57 1.57 0 0 1 2.14.44c.46.7.26 1.62-.46 2.07ZM42.45 30.03c-.85.01-4.64-.59-4.66-1.42-.02-.82 3.75-1.57 4.6-1.58.86-.02 1.56.64 1.58 1.47.02.83-.66 1.51-1.52 1.53ZM39.57 36.98c-.71-.45-3.49-3.04-3.02-3.73.47-.69 4.01.78 4.72 1.23.71.46.91 1.39.44 2.08-.47.7-1.43.88-2.14.42ZM35.25 41.4c-.49-.67-2.07-4.08-1.37-4.55.7-.47 3.42 2.17 3.9 2.85.5.68.32 1.62-.38 2.09-.7.47-1.67.3-2.15-.38Z" fill="#FC7F2F"/></svg>