<!-- by TradingView --><svg xmlns="http://www.w3.org/2000/svg" width="56" height="56" viewBox="0 0 56 56"><path fill="#F0F3FA" d="M0 0h56v56H0z"/><path d="M21 19.36A8.74 8.74 0 0 0 12.9 28a8.74 8.74 0 0 0 8.1 8.64V19.36z" fill="#6FC7C1"/><path d="M21 16.51A11.6 11.6 0 0 0 10 28a11.6 11.6 0 0 0 11 11.49v-3a8.5 8.5 0 0 1 0-16.98v-3z" fill="#00A191"/><path d="M24 19.35a8.67 8.67 0 0 1 0 17.3v-17.3z" fill="#AAD8A5"/><path d="M24 16.5a11.52 11.52 0 0 1 0 23v-3.18a8.5 8.5 0 0 0 0-16.97V16.5z" fill="#4AB95C"/><path d="M43 19.35a8.67 8.67 0 0 0 0 17.3v-17.3z" fill="#AAD8A5"/><path d="M43 16.5a11.52 11.52 0 0 0 0 23v-3.02a8.5 8.5 0 0 1 0-16.96V16.5z" fill="#4AB95C"/></svg>