<!-- by TradingView --><svg width="56" height="56" xmlns="http://www.w3.org/2000/svg"><path fill="#F0F3FA" d="M0 0h56v56H0z"/><path d="M19.212 41c-2.07 0-3.566-.75-4.056-1.076 4.084 1.3 16.815-2.992 22.67-5.3l3.229-.526C34.945 36.618 22.864 41 19.212 41z" fill="#5F0000"/><path d="M39.05 25.653c-.492.11-1.162-.322-1.435-.552h1.436c.57 0 3.304-2.756 4.238-4.18.748-1.14-.6-2.62-1.367-3.217 1.025.544 2.812 2.021 1.755 3.584-1.322 1.953-4.011 4.227-4.626 4.365z" fill="#C01C22"/><path d="M37.856 25.233l-1.26-1.052c-.34-.282-.333-.808.22-1.416.453-.498 2.253-2.401 2.296-3.05.034-.52-.823-.344-1.256-.192-9.063 2.869-18.345 10.042-20.89 13.706-.51.617-1.46 1.923-1.46 2.684 0 .762.634 1.162.95 1.267-3.399-.665-4.282-3.73-3.905-4.467 3.422-6.691 15.074-12.866 20.472-15.116 1.113-.531 3.667-1.593 4.98-1.593 1.312 0 3.345 1.235 4.197 1.852.696.487 1.915 1.783 1.23 3.076-.856 1.617-3.16 3.407-4.001 4.176-.673.615-1.329.34-1.573.125z" fill="url(#paint0_linear)"/><path d="M12.004 35.228c-.044-.88.291-1.98.464-2.421 3.2 4.136 2.149 4.46 6.858 4.707 4.709.246 16.544-3.094 21.06-3.82-7.252 3.147-18.325 6.983-21.859 6.983-6.114-.386-6.469-4.348-6.523-5.449z" fill="url(#paint1_linear)"/><defs><linearGradient id="paint0_linear" x1="42.949" y1="18.669" x2="13.21" y2="35.057" gradientUnits="userSpaceOnUse"><stop stop-color="#6A0000"/><stop offset="1" stop-color="#BC1A20"/></linearGradient><linearGradient id="paint1_linear" x1="12" y1="36.742" x2="39.872" y2="33.896" gradientUnits="userSpaceOnUse"><stop stop-color="#6A0000"/><stop offset="1" stop-color="#BC1A20"/></linearGradient></defs></svg>