<!-- by TradingView --><svg xmlns="http://www.w3.org/2000/svg" width="56" height="56"><path fill="#F0F3FA" d="M0 0h56v56H0z"/><path d="M13.14 32.31c.9 0 1.76-.24 2.5-.67l-.62-1.7c-.51.38-1.13.6-1.8.6-1.75 0-3.18-1.54-3.22-3.45L8.32 25.1a5.42 5.42 0 00-.34 1.9c0 2.93 2.31 5.3 5.16 5.3zM11 22.19a5.02 5.02 0 014.52.12L14.9 24a3 3 0 00-2.56-.38L11 22.2z"/><path d="M5.36 18.14c2.1 1.53 7.2 5.23 7.2 6.88 0 .5-.1.97-.31 1.3L4.5 17.5c.1.09.41.32.86.64zm.01 2.33c2.09 1.65 7.26 5.73 7 7.32-.01.28-.12.94-.43 1.39L4.7 19.93l.68.54z" fill="url(#a1bicmwld)"/><path d="M17 22h2v10h-2zm4 0v1.6h2V32h2v-8.4h2V22h-6zm8 0h2v10h-2zm6 0h-2v6a4 4 0 008 0v-6h-2v6.32a2 2 0 01-4 0V22zm10.98 0c1.44.04 2.37.38 2.65.55l-.5 1.45a6.03 6.03 0 00-2.34-.52c-.85 0-1.58.39-1.56 1.18.02.64 1.05 1.05 1.56 1.18 2.54.57 3.26 2.23 3.2 2.97.05 2.55-2.47 3.21-4.12 3.19a7.82 7.82 0 01-2.87-.55l.56-1.64c.56.23 1.57.42 2.54.46.97.05 1.9-.45 1.9-1.24 0-.8-.81-1.11-1.5-1.34-.67-.23-3.38-.92-3.26-2.98.12-2.07 1.95-2.75 3.74-2.7z"/><path fill-rule="evenodd" d="M12.4 34H12v3h.62v-.98h.37a1.01 1.01 0 000-2.02h-.58zm.22.43v1.07h.22a.53.53 0 000-1.07h-.22zm5.64-.43h-.6v3h.6v-1.3h1.01V37h.61v-3h-.6v1.08h-1.02V34zM35 34h.7l.73 1.76.7-1.76h.73v3h-.61v-1.88l-.49 1.21h-.67l-.48-1.15V37H35v-3zm-5.06 0h-.4v3h.61v-1.15h.3l.6 1.15h.7l-.67-1.29A.92.92 0 0030.6 34h-.65zm.44 1.47h-.23v-1.04h.23a.52.52 0 010 1.04zM23.46 37l.99-3h.66l.97 3h-.72l-.21-.6h-.78l-.21.6h-.7zm.99-1.18l.31-.97.34.97h-.65zM42.39 34l-.99 3h.7l.21-.6h.77l.2.6H44l-.96-3h-.65zm.3.86l-.3.97h.64l-.33-.97z"/><defs><linearGradient id="a1bicmwld" x1="4.11" y1="18.02" x2="11.1" y2="25.24" gradientUnits="userSpaceOnUse"><stop stop-color="#295654"/><stop offset="1" stop-color="#397593"/></linearGradient></defs></svg>