<!-- by TradingView --><svg width="56" height="56" viewBox="0 0 56 56" xmlns="http://www.w3.org/2000/svg"><path fill="#F0F3FA" d="M0 0h56v56H0z"/><path fill-rule="evenodd" d="M43 12H13v32h30V12Zm-27 7v-4h14v4h-.51c-.04-1.01-.57-2.89-2.37-3H24v16c0 .5.13 1.44 2 1.37V34h-6v-.63c.8.03 2-.2 2-1.36V16h-3.35c-.7.1-2.1.68-2.08 3H16Zm16 3h-6v.56c2 0 2 1.05 2 1.5v13.6c-.03 2.08-.63 2.38-1.01 2.35-.39-.03-.96-.1-1.1-1.23-.11-.9-.8-1.3-1.13-1.39-.5-.11-1.72.05-1.76 1.6-.04 1.57 1.98 2 2.89 2.01 3.65-.15 4.2-3.68 4.11-5.42v-11.5c0-1.26 1.26-1.6 2-1.52V22Zm1-3h6v.6c-.64-.07-1.94.13-2 1.43v14.8c-.04.52.32 1.57 2 1.57v.6h-6v-.6c.68.08 1.96-.13 2-1.57V29h-2.5a.5.5 0 0 1 0-1H35v-6.97c.04-.48-.24-1.43-2-1.43V19Z"/></svg>