<!-- by TradingView --><svg xmlns="http://www.w3.org/2000/svg" width="56" height="56"><path fill="#F0F3FA" d="M0 0h56v56H0z"/><path d="M52 27.85c-.17-3.87-12.37-5.5-16.51-5.85l-.04.06-3.94 7.1-1.8-3.16h-1.04l2.84 5 4.56-8.14c8.36.77 14.3 2.71 14.3 4.99 0 3.1-10.03 5.61-22.39 5.61-1.6 0-3.18-.04-4.69-.12l-.29.53c1.6.08 3.27.13 4.98.13C41.25 34 52 31.25 52 27.85zm-12 .2c0-.89.1-1.34.36-1.61.28-.3.8-.44 1.6-.44h2.54v.76h-2.43c-.9 0-1.07.22-1.07 1.33 0 .61.08.92.33 1.05.17.09.4.13.74.13h2.43V30h-2.64c-.7 0-1.16-.1-1.42-.34-.32-.28-.44-.72-.44-1.61zM38.46 30h1.05l-2.84-5-2.84 5h1.05l.47-.84H38l.47.84zm-1.79-3.2l.97 1.72H35.7l.96-1.72z" fill="#00A0B4"/><path d="M4 27.85c0-1.91 3.4-3.62 8.73-4.75v1.03c-4.37.93-7.1 2.25-7.1 3.72 0 1.46 2.73 2.78 7.1 3.7v1.04C7.4 31.46 4 29.76 4 27.85zM27.57 26l.43.76h-2.43c-.77 0-1.02.16-1.07.89h3v.63h-3c.02.49.11.74.33.86.17.09.4.13.74.13H28V30h-2.64c-.7 0-1.15-.1-1.42-.34-.32-.28-.44-.72-.44-1.61 0-.89.1-1.34.36-1.61.28-.3.8-.44 1.6-.44h2.11zM23 29.2v.8h-1v-.6c0-.53-.15-.65-.78-.65H19V30h-1v-4h3.47c.72 0 1.04.08 1.27.32.17.19.26.5.26.96 0 .39-.07.65-.23.82-.13.15-.33.21-.83.27.4.03.49.05.61.1.27.13.45.35.45.74zm-1-1.78c0-.56-.1-.67-.8-.67H19v1.27h2.19c.69 0 .81-.12.81-.6zm-5 1.07V26h-1v2.13c-.01 1.09-.46 1.13-1.53 1.13-1.15 0-1.47-.1-1.47-1.19V26h-1v2.36c0 .73.06 1 .27 1.23.3.33.71.41 2.1.41 1.43 0 1.78-.04 2.12-.23.39-.22.51-.52.51-1.28z" fill="#FF6E32"/></svg>