<!-- by TradingView --><svg width="56" height="56" xmlns="http://www.w3.org/2000/svg"><path fill="#818286" d="M0 0h56v56H0z"/><path d="M14.05 37h8.764c.287-.077.12-.522 0-.715-1.12-2.112-3.41-6.57-3.611-6.869-.201-.299-.49-.41-.608-.416h-3.67c-.147 0-.29-.177-.269-.53.017-.282.185-.47.269-.47H19s.477 0 .58.262L24 37h7.005l4.14-8.73s.105-.27.395-.27h8.235c1.057-.03 3.171-.432 3.171-3.293s-2.114-3.663-3.17-3.707H30.607s-.24 0-.308.218L27.834 27c-.27.219-.529 0-.529 0l-2.994-5.782C24.124 21 23.782 21 23.782 21h-9.996c-2.648 0-6.747 2.843-6.782 8.286-.035 5.442 4.683 7.423 7.046 7.714z" fill="#fff"/><path d="M43.391 29h-7.338c-.339 0-.573.3-.647.449l-3.383 7.102c-.116.37.248.449.248.449h11.12c1.17.008 3.528-.773 3.607-3.963.08-3.19-2.371-4.02-3.607-4.037z" fill="#fff"/></svg>