<!-- by TradingView --><svg width="56" height="56" xmlns="http://www.w3.org/2000/svg"><path fill="#ECBD4D" d="M0 0h56v56H0z"/><path d="M24.723 20.337c1.311-.145 2.447.004 2.865.138l.004.002c.11.035.223.071.223.182 0 .113-.105.2-.168.207-1.97.012-5.941.028-6.076 0-.134-.027-.056-.103 0-.138.767-.12 2.42-.31 3.152-.391zM23.198 21.52c1.312-.144 2.447.004 2.866.138l.004.002c.109.035.223.071.223.182 0 .113-.106.2-.168.207-1.97.012-5.942.028-6.076 0-.134-.027-.056-.103 0-.137.767-.12 2.42-.311 3.151-.392zM21.695 22.556c1.312-.145 2.447.003 2.866.138l.004.001c.109.035.223.072.223.183 0 .113-.106.2-.168.207-1.97.011-5.942.028-6.076 0-.134-.028-.056-.104 0-.138.767-.12 2.42-.31 3.151-.391zM20.341 23.739c1.311-.145 2.447.004 2.865.138l.004.001c.11.035.223.072.223.183 0 .113-.105.2-.168.207-1.969.012-5.941.028-6.076 0-.134-.027-.056-.103 0-.138.767-.12 2.42-.31 3.152-.391zM18.754 24.922c1.311-.145 2.447.004 2.865.138l.004.001c.11.035.223.072.223.183 0 .113-.105.2-.168.207-1.969.012-5.941.028-6.076 0-.134-.027-.056-.103 0-.138.767-.12 2.421-.31 3.152-.391zM17.378 26.105c1.311-.144 2.447.004 2.865.138l.004.002c.11.035.223.071.223.182 0 .113-.105.2-.168.207-1.969.012-5.941.028-6.075 0-.135-.027-.056-.103 0-.138.766-.12 2.42-.31 3.151-.39zM15.939 27.054c1.31-.144 2.447.004 2.865.139h.004c.11.036.223.072.223.184s-.105.199-.168.207c-1.97.011-5.942.027-6.076 0-.134-.028-.056-.104 0-.138.767-.12 2.42-.311 3.152-.392zM14.5 28.238c1.31-.145 2.446.004 2.864.138l.005.001c.109.035.223.072.223.183 0 .113-.106.2-.168.207-1.97.012-5.942.028-6.076 0-.135-.027-.056-.104 0-.138.766-.12 2.42-.31 3.151-.391zM13.04 29.42c1.31-.144 2.446.005 2.864.139l.005.001c.109.035.222.072.222.183 0 .113-.105.2-.167.207-1.97.012-5.942.028-6.076 0-.135-.027-.056-.103 0-.138.766-.12 2.42-.31 3.151-.391zM11.727 30.604c1.31-.145 2.447.004 2.865.138l.004.001c.11.036.223.072.223.183 0 .113-.105.2-.168.207-1.97.012-5.941.028-6.076 0-.134-.027-.056-.103 0-.138.767-.12 2.42-.31 3.152-.391zM10.04 31.787c1.31-.144 2.446.004 2.864.138l.005.002c.109.035.223.071.223.182 0 .113-.106.2-.168.207-1.97.012-5.942.028-6.076 0-.135-.027-.056-.103 0-.138.766-.12 2.42-.31 3.151-.39zM8.568 32.97c1.31-.144 2.446.004 2.865.138l.004.002c.11.035.223.071.223.182 0 .113-.105.2-.168.208-1.97.011-5.942.027-6.076 0-.134-.028-.056-.104 0-.139.767-.12 2.42-.31 3.152-.39zM7.226 34.153c1.31-.144 2.447.004 2.865.139h.004c.11.036.223.072.223.184s-.105.199-.168.207c-1.97.011-5.941.027-6.076 0-.134-.028-.056-.104 0-.138.767-.12 2.42-.311 3.152-.392zM13.04 34.455c1.31-.144 2.446.004 2.864.139h.005c.109.036.222.072.222.184s-.105.199-.167.207c-1.97.011-5.942.027-6.076 0-.135-.028-.056-.104 0-.138.766-.12 2.42-.311 3.151-.392zM14.5 33.414c1.31-.145 2.446.003 2.864.138l.005.001c.109.035.223.072.223.183 0 .112-.106.2-.168.207-1.97.011-5.942.028-6.076 0-.135-.028-.056-.104 0-.138.766-.12 2.42-.31 3.151-.391zM15.939 32.23c1.31-.145 2.447.003 2.865.137l.004.002c.11.035.223.071.223.182 0 .113-.105.2-.168.208-1.97.011-5.942.027-6.076 0-.134-.028-.056-.104 0-.138.767-.12 2.42-.311 3.152-.392zM17.378 31.045c1.311-.144 2.447.004 2.865.138l.004.002c.11.035.223.071.223.182 0 .113-.105.2-.168.208-1.969.011-5.941.027-6.075 0-.135-.028-.056-.104 0-.139.766-.12 2.42-.31 3.151-.39zM18.754 29.861c1.311-.144 2.447.004 2.865.139h.004c.11.036.223.072.223.184s-.105.2-.168.207c-1.969.011-5.941.027-6.076 0-.134-.028-.056-.104 0-.138.767-.12 2.421-.311 3.152-.392zM20.341 28.817c1.311-.145 2.447.004 2.865.138l.004.001c.11.035.223.072.223.183 0 .113-.105.2-.168.207-1.969.012-5.941.028-6.076 0-.134-.027-.056-.103 0-.138.767-.12 2.42-.31 3.152-.391zM21.913 27.633c1.311-.145 2.447.004 2.865.138l.005.001c.109.035.223.072.223.183 0 .113-.106.2-.168.207-1.97.012-5.942.028-6.076 0-.135-.027-.056-.103 0-.138.766-.12 2.42-.31 3.151-.391zM23.198 26.407c1.312-.144 2.447.004 2.866.138l.004.002c.109.035.223.071.223.182 0 .113-.106.2-.168.207-1.97.012-5.942.028-6.076 0-.134-.027-.056-.103 0-.138.767-.12 2.42-.31 3.151-.39zM24.577 25.363c1.311-.145 2.447.003 2.865.138l.005.001c.109.035.223.072.223.183 0 .113-.106.2-.168.207-1.97.012-5.942.028-6.076 0-.135-.028-.056-.104 0-.138.766-.12 2.42-.31 3.151-.391zM28.33 24.18c-1.311-.145-2.447.004-2.865.138l-.004.001c-.11.035-.223.072-.223.183 0 .113.105.2.168.207 1.969.012 5.941.028 6.076 0 .134-.027.056-.103 0-.138-.767-.12-2.421-.31-3.152-.391zM28.098 19.06c-1.312-.145-2.447.003-2.866.137l-.004.002c-.109.035-.223.071-.223.182 0 .113.106.2.168.208 1.97.011 5.942.027 6.076 0 .134-.028.056-.104 0-.138-.767-.12-2.42-.311-3.151-.392zM31.366 20.337c-1.311-.145-2.447.004-2.865.138l-.004.002c-.11.035-.223.071-.223.182 0 .113.105.2.168.207 1.969.012 5.941.028 6.076 0 .134-.027.056-.103 0-.138-.767-.12-2.42-.31-3.152-.391zM32.76 21.52c-1.31-.144-2.446.004-2.864.138l-.005.002c-.109.035-.223.071-.223.182 0 .113.106.2.168.207 1.97.012 5.942.028 6.076 0 .135-.027.056-.103 0-.137-.767-.12-2.42-.311-3.151-.392zM34.216 22.556c-1.312-.145-2.447.003-2.865.138l-.005.001c-.109.035-.223.072-.223.183 0 .113.106.2.168.207 1.97.011 5.942.028 6.076 0 .135-.028.056-.104 0-.138-.766-.12-2.42-.31-3.151-.391zM35.81 23.739c-1.31-.145-2.447.004-2.865.138l-.004.001c-.11.035-.223.072-.223.183 0 .113.105.2.168.207 1.97.012 5.942.028 6.076 0 .134-.027.056-.103 0-.138-.767-.12-2.42-.31-3.152-.391zM37.17 24.922c-1.311-.145-2.447.004-2.865.138l-.005.001c-.109.035-.223.072-.223.183 0 .113.106.2.168.207 1.97.012 5.942.028 6.076 0 .135-.027.056-.103 0-.138-.766-.12-2.42-.31-3.151-.391zM38.854 25.803c-1.31-.144-2.447.004-2.865.138l-.004.002c-.11.035-.223.071-.223.182 0 .113.105.2.168.208 1.97.011 5.941.027 6.076 0 .134-.028.056-.104 0-.138-.767-.12-2.42-.311-3.152-.392zM40.329 26.986c-1.311-.144-2.447.004-2.865.139h-.004c-.11.036-.223.072-.223.184s.105.2.168.207c1.969.011 5.941.027 6.075 0 .135-.028.056-.104 0-.138-.766-.12-2.42-.311-3.151-.392zM41.51 27.936c-1.312-.145-2.447.004-2.865.138l-.005.001c-.109.035-.223.072-.223.183 0 .113.106.2.168.207 1.97.012 5.942.028 6.076 0 .134-.028.056-.104 0-.138-.767-.12-2.42-.31-3.151-.391zM42.993 29.119c-1.311-.145-2.447.004-2.865.138l-.004.001c-.11.035-.223.072-.223.183 0 .113.105.2.168.207 1.969.012 5.941.028 6.076 0 .134-.027.055-.103 0-.138-.767-.12-2.42-.31-3.152-.391zM44.476 30.302c-1.31-.145-2.447.004-2.865.138l-.004.001c-.11.036-.223.072-.223.183 0 .113.105.2.168.207 1.97.012 5.942.028 6.076 0 .134-.027.056-.103 0-.138-.767-.12-2.42-.31-3.152-.391zM45.932 31.347c-1.31-.144-2.446.004-2.865.138l-.004.002c-.11.035-.223.071-.223.183s.105.199.168.207c1.97.011 5.942.027 6.076 0 .134-.028.056-.104 0-.138-.767-.12-2.42-.311-3.152-.392zM47.636 32.531c-1.312-.144-2.447.004-2.866.138l-.004.002c-.109.035-.223.071-.223.182 0 .113.106.2.168.208 1.97.011 5.942.027 6.076 0 .135-.028.056-.104 0-.138-.767-.12-2.42-.311-3.151-.392zM48.774 33.576c-1.31-.144-2.447.004-2.865.139h-.004c-.11.036-.223.072-.223.184s.105.199.168.207c1.97.011 5.941.027 6.076 0 .134-.028.056-.104 0-.138-.767-.12-2.42-.311-3.152-.392zM42.993 34.18c-1.311-.144-2.447.004-2.865.138l-.004.002c-.11.035-.223.071-.223.182 0 .113.105.2.168.208 1.969.011 5.941.027 6.076 0 .134-.028.055-.104 0-.139-.767-.12-2.42-.31-3.152-.39zM41.317 33.111c-1.311-.144-2.447.004-2.865.139h-.004c-.11.036-.223.072-.223.184s.105.2.168.207c1.97.011 5.941.027 6.076 0 .134-.028.056-.104 0-.138-.767-.12-2.42-.311-3.152-.392zM40.026 31.928c-1.311-.145-2.447.003-2.865.138l-.004.001c-.11.035-.223.072-.223.183 0 .112.105.2.168.207 1.97.011 5.941.027 6.076 0 .134-.028.056-.104 0-.138-.767-.12-2.42-.31-3.152-.391zM38.351 30.858c-1.31-.144-2.447.004-2.865.139h-.004c-.11.036-.223.073-.223.184 0 .112.105.2.168.207 1.97.011 5.942.027 6.076 0 .134-.028.056-.104 0-.138-.767-.12-2.42-.311-3.152-.392zM37.17 29.723c-1.311-.145-2.447.004-2.865.138l-.005.001c-.109.035-.223.072-.223.183 0 .113.106.2.168.207 1.97.012 5.942.028 6.076 0 .135-.027.056-.103 0-.138-.766-.12-2.42-.31-3.151-.391zM35.696 28.515c-1.311-.145-2.447.004-2.865.138l-.004.001c-.11.035-.223.072-.223.183 0 .113.105.2.168.207 1.97.012 5.941.028 6.076 0 .134-.027.056-.103 0-.138-.767-.12-2.42-.31-3.152-.391zM34.01 27.38c-1.31-.145-2.446.003-2.864.137l-.005.002c-.109.035-.223.071-.223.182 0 .113.106.2.168.207 1.97.012 5.942.028 6.076 0 .135-.027.056-.103 0-.138-.767-.12-2.42-.31-3.151-.39zM32.651 26.383c-1.311-.145-2.447.004-2.865.138l-.004.001c-.11.035-.223.072-.223.183 0 .113.105.2.168.207 1.97.012 5.941.028 6.076 0 .134-.028.056-.104 0-.138-.767-.12-2.42-.31-3.152-.391zM31.145 25.247c-1.31-.145-2.447.003-2.865.138l-.004.001c-.11.035-.223.072-.223.183 0 .112.105.2.168.207 1.97.011 5.942.027 6.076 0 .134-.028.056-.104 0-.138-.767-.12-2.42-.31-3.152-.391z" fill="#fff"/><path d="M36.52 29.407c-.028.561-.537.776-.788.813-.873 0-.774-.796-.615-1.194.128-.205 0-.541-.51-.443-.893.172-.893 1.304-.928 1.993-.035.69.301 1.809 1.23 1.686.742-.099 1.12-.829 1.217-1.181l.394.197C36.277 32.606 35.418 33 34.55 33c-.98 0-2.502-.738-2.46-2.424.047-1.82 1.253-2.497 2.518-2.571 1.264-.074 1.948.701 1.913 1.402zM26.617 28.528V28H29.2v.528c-.466 0-.518.259-.485.388l1.068 2.457c.223-.579.704-1.84.844-2.263.14-.422-.42-.564-.718-.582V28h2.096v.528c-.427 0-.598.259-.63.388L29.713 33h-.767a1527.41 1527.41 0 00-1.796-4.084.625.625 0 00-.534-.388zM21.818 29.34c.066.532.545.685.776.694.778.035.801-.541.715-.834-.222-.111-.226-.278-.2-.347 0-.107.14-.326.7-.346.56-.021.757.453.785.693v.834c-2.354.334-2.982 1.092-3.018 1.81-.036.719.543 1.154 1.533 1.154.792 0 1.454-.42 1.687-.631.122.429.662.656 1.096.631.434-.024.85-.403.902-.59.052-.186.02-.22 0-.317a.105.105 0 00-.11-.09c-.07.051-.25.16-.415.187-.166.027-.204-.218-.203-.344.01-.603.022-1.949 0-2.505-.027-.695-.776-1.245-2.07-1.332-1.293-.087-2.26.666-2.178 1.332z" fill="#000"/><path d="M24.59 31.411v-.877c-1.159.254-1.455.73-1.458.935-.07.295-.044.883.62.867.664-.015.836-.623.839-.925z" fill="#ECBD4D"/><path d="M20.77 25l.087 3h-.444c-.072-.353-.737-2.633-2.105-2.471-1.368.162-1.517 2.212-1.56 3.334-.043 1.122.214 3.59 1.832 3.446 1.295-.115 1.81-1.608 1.905-2.34l.515.208c-.2 1.314-1.145 2.885-2.763 2.821-1.618-.064-3.28-1.202-3.236-4.135C15.044 25.93 17.206 25 18.237 25c.824 0 1.47.353 1.69.529l.4-.529h.444z" fill="#000"/><ellipse cx="39.339" cy="30.5" rx="2.495" ry="2.5" fill="#000"/><ellipse cx="39.346" cy="30.53" rx="1.013" ry="2.054" fill="#ECBD4D"/></svg>