<!-- by TradingView --><svg width="56" height="56" viewBox="0 0 56 56" xmlns="http://www.w3.org/2000/svg"><path fill="#1172B9" d="M0 0h56v56H0z"/><path d="M20 23h3.89l.56 1.3c.7 1.6 1.38 3.2 2.15 4.75.18.47.78.6 1.25.66.47.05.9-.16 1.3-.38.15-.14.24-.32.34-.5l.1-.18c.71-1.38 1.33-2.8 1.95-4.23.2-.47.4-.95.62-1.42H36l-1.03 2.33c-.7 1.6-1.4 3.2-2.14 4.8a4.62 4.62 0 0 1-1.3 1.6A5.35 5.35 0 0 1 28.01 33a5.5 5.5 0 0 1-3.69-1.36 4.39 4.39 0 0 1-1.16-1.48c-.64-1.4-1.26-2.82-1.88-4.24L20 23Zm20.16.01H46.96c.32-.01.64-.02.94.1 1.54.45 3.09 1.44 3.78 2.89h-10.8c-.71.53-1.4 1.13-1.44 2.03.02.92.74 1.45 1.46 1.97h5.97c.73.01 1.25-.26 1.48-1H46v-2h6c0 1.22-.15 2.77-.81 3.8a5.05 5.05 0 0 1-3.44 2.18l-.37.02h-7.1c-.18 0-.35-.07-.52-.14a6.53 6.53 0 0 1-3.03-2.36 4.55 4.55 0 0 1-.42-4.11c.64-1.62 2.19-2.78 3.85-3.38Zm-32.43.23-.38.15a4.96 4.96 0 0 0-3.26 5.44c.24 1.2.93 2.31 1.94 3.05A6.1 6.1 0 0 0 8.62 33h7.02c.87-.19 1.7-.55 2.42-1.06.98-.7 1.7-1.74 1.8-2.93h-3.54l-.08.1c-.32.35-.75.84-1.2.9h-6c-.7-.11-1.3-1.04-1.47-1.67-.22-.9.51-2.26 1.47-2.33a493.96 493.96 0 0 1 5.87 0c.41-.02.8.4 1.12.76l.23.24H20c-.3-.9-.74-1.83-1.4-2.53a4.72 4.72 0 0 0-3.11-1.46H8.7c-.34-.04-.66.1-.97.23Z" fill="#fff"/></svg>