<!-- by TradingView --><svg width="56" height="56" xmlns="http://www.w3.org/2000/svg"><path fill="#FFF601" d="M0 0h56v56H0z"/><rect x="4" y="20" width="48" height="16" rx="8" fill="#48B92B"/><rect x="6" y="22" width="44" height="12" rx="6" fill="#FFF601"/><path d="M35.85 26h-3.556c-.398.095-.286.5 0 .583.229.065.577.566.723.808L35.207 33h1.379l2.033-4.7c2.14-4.54 3.605-5.834 5.102-6.83 1.198-.795 2.317-.697 2.708-.563-1.828.559-4.574 2.851-4.852 3.112-.222.208-.03.26.093.26.518-.277 1.583-.4 2.05-.426 2.037-.334 3.04-1.453 3.514-1.988.474-.536.809-.573 1.18-.733.298-.128.177-.282.08-.342-1.42-.604-1.945-.942-4.14-.723-2.052.206-4.155 2.97-4.943 4.472l-2.825 5.353c-.246-.696-.776-2.198-.935-2.633-.159-.435.066-.601.198-.63.476-.332.199-.534 0-.629zM32 27.877c0-1.635-1.392-1.878-2.254-1.878-2.895 0-2.953 1.122-2.953 1.435 0 .403.276.969.996.913.72-.056.97-.47.955-.713 0-.526-.062-.995.642-.995.529 0 .57.322.614.486v1.568a3.642 3.642 0 00-1.017-.19c-1.865 0-2.939.98-2.982 2.349C25.958 32.22 27.324 33 28.506 33c.945 0 1.596-.448 1.804-.672.389.506.779.637 1.08.6.302-.037.563-.056 1.019-.26.249-.11.358-.217.23-.34L32 31.935v-4.058zM24.73 23.003c-.966.283-1.696.445-2.168.49-.55.053-.391.486-.107.55.467.068.521.553.545.787v7.098c0 .313-.206.415-.377.585-.303.395.028.527.317.477.685-.12 1.84-.05 2.56 0 .47 0 .343-.41.113-.477-.415-.12-.585-.44-.613-.585v-8.34c.045-.522-.159-.608-.27-.585zM15.424 23.33c.719.293 1.089-.132 1.364-.271.338-.171.434.07.44.213.042.702.123 2.144.11 2.298-.018.193-.193.269-.325.294a.271.271 0 01-.299-.141c-.333-.585-1.25-1.738-2.25-1.663-1.249.093-2.339.572-2.464 4.034-.125 3.462 2.173 3.907 2.854 3.907.544 0 1.147-.242 1.25-.352-.123-.426-.113-.896-.104-1.078.153-1.663 1.714-2.054 2.478-2.068.611-.01 1.374.129 1.522.2v-1.038c0-.399-.109-1.093-.87-1.062-.95.04-.721.796-.79 1.062-.07.266-.221.679-.931.758-.71.08-1.037-.572-.958-.93.078-.36.18-1.371 2.68-1.49 2-.097 2.87 1.003 2.87 1.49V32c.387.163.442.319.442.49-.16.244-.446.393-1.098.495-.652.102-1.225-.372-1.43-.622-.3.181-1.078.558-1.796.622-.719.064-1.464-.303-1.747-.494a5.16 5.16 0 01-2.112.494c-4.325-.332-5.206-3.444-5.206-4.892 0-5.27 5.472-5.13 6.37-4.764z" fill="#004D17"/><path d="M18 30.612c0-1.274.611-1.41 1.053-1.41.246 0 .947 0 .947 1.41 0 1.343-.723 1.382-.947 1.391-.223.01-1.053 0-1.053-1.39zM28 30.605c0-1.275.611-1.411 1.053-1.411.246 0 .947 0 .947 1.411 0 1.344-.723 1.383-.947 1.392-.223.01-1.053 0-1.053-1.392z" fill="#FFF601"/><ellipse cx="42.5" cy="29.5" rx="3.5" ry="3.501" fill="#004D17"/><ellipse cx="42.5" cy="29.5" rx="1.5" ry="2.857" fill="#FFF601"/></svg>