<!-- by TradingView --><svg xmlns="http://www.w3.org/2000/svg" width="56" height="56"><path fill="#F0F3FA" d="M0 0h56v56H0z"/><path d="M9 22h-.14c-.03.2-.13.43-.33.43-.14 0-.34-.11-.46-.16A2.82 2.82 0 006.9 22c-1.5 0-2.8 1.32-2.9 3-.08 1.74 1.27 3 2.97 3 .63 0 1.45-.28 2.03-.97v-.51c-.48.64-1.38 1.13-2.03 1.06C6 27.48 5 26.78 5 25c0-1.57 1.12-2.62 2.16-2.62.86 0 1.53.7 1.7 1.62H9v-2zm2.3 3h2.1v1.9c0 .71 0 .94-.75.94V28h2.53v-.16c-.74 0-.74-.23-.74-.95v-3.78c0-.72 0-.95.74-.95V22h-2.53v.16c.74 0 .74.23.74.95v1.52h-2.08V23.1c0-.72-.05-.95.69-.95V22H9.52v.16c.74 0 .74.23.74.95v3.78c0 .72 0 .95-.74.95V28H12v-.16c-.74 0-.7-.23-.7-.95V25zm7.98-2.84c.7 0 .73.28.73 1.01v2.64c0 .8-.3 1.76-1.3 1.76-.9 0-1.14-.62-1.14-1.28V23.1c0-.72 0-.95.74-.95V22h-2.53v.16c.75 0 .75.23.75.95v2.88c0 1.31.47 2.01 1.78 2.01 1.82 0 2.03-1.43 2.03-2.26v-2.57c0-.73.03-1.01.73-1.01V22h-1.8v.16zm4.02.18h.5c.73 0 1.2.38 1.2 1.3 0 .73-.4 1.25-1.32 1.25h-.37v-2.55zm0 2.85h.35L25.33 28h1.64v-.16c-.3 0-.42-.18-.62-.5L25 25.09a1.47 1.47 0 001.18-1.44c0-1.14-.77-1.65-1.95-1.65h-2.7v.16c.73 0 .73.23.73.95v3.78c0 .72 0 .95-.74.95V28h2.53v-.16c-.74 0-.74-.23-.74-.95v-1.7zM41 23.1c0-.71 0-.94.74-.94V22h-2.48v.16c.74 0 .74.23.74.95v3.78c0 .72 0 .95-.74.95V28h2.48v-.16c-.74 0-.74-.23-.74-.95v-3.78zm6.12 2.9h-.16c-.45 1.52-1.02 1.66-2.05 1.66-.82 0-.91 0-.91-.9v-3.65c0-.72.03-.95.83-.95V22h-2.58v.16c.74 0 .75.23.75.95v3.78c0 .72-.01.95-.75.95V28h4.67l.2-2zM52 26h-.15c-.43 1.56-1.01 1.66-2 1.66-.8 0-.85 0-.85-.92v-3.6c0-.74 0-.98.77-.98V22H47.3v.16c.7 0 .7.24.7.97v3.73c0 .74 0 .98-.7.98V28h4.51l.19-2z"/><path d="M44.98 34h-.15c-.43 1.56-1.01 1.66-2 1.66-.8 0-.83 0-.83-.92v-3.6c0-.74-.01-.98.75-.98V30h-2.47v.16c.7 0 .72.24.72.97v3.73c0 .74-.01.98-.72.98V36h4.51l.2-2z" fill="#4C9FC8"/><path d="M34.56 25h2.09v1.87c0 .73 0 .97-.75.97V28h2.53v-.16c-.74 0-.74-.24-.74-.97v-3.74c0-.73 0-.97.74-.97V22H35.9v.16c.75 0 .75.24.75.97v1.5h-2.1v-1.5c0-.73 0-.97.75-.97V22h-2.53v.16c.75 0 .75.24.75.97v3.74c0 .73 0 .97-.75.97V28h2.53v-.16c-.74 0-.74-.24-.74-.97V25zM32 22h-.14c-.03.2-.13.43-.33.43-.14 0-.34-.11-.46-.16A2.82 2.82 0 0029.9 22c-1.5 0-2.82 1.32-2.9 3-.09 1.74 1.27 3 2.97 3 .7 0 1.45-.28 2.03-.97v-.51c-.5.67-1.37 1.13-2.03 1.06C29 27.48 28 26.78 28 25c0-1.57 1.12-2.62 2.16-2.62.86 0 1.53.7 1.7 1.62H32v-2z"/><path d="M15.86 30H16v2h-.14c-.17-.92-.88-1.62-1.75-1.62-1.05 0-2.11 1.06-2.11 2.62 0 1.78.96 2.47 1.94 2.58.87.1 1.54-.38 2.06-1.05v.5a2.5 2.5 0 01-2.06.97c-1.72 0-3.03-1.27-2.94-3 .09-1.66 1.33-3 2.85-3a2.95 2.95 0 011.24.33c.12.05.29.13.4.13.21 0 .34-.26.37-.46zm3.7 4.3l.33.9.01.05c.04.1.06.17.06.3 0 .29-.38.29-.6.29V36h2.26v-.16c-.4 0-.59-.5-.73-.88l-.02-.07L19 30h-.07l-1.76 4.58-.06.14c-.17.47-.4 1.08-.86 1.12V36H18v-.16c-.38-.03-.73-.07-.73-.5 0-.16.06-.32.13-.52l.01-.04.18-.48h1.96zm-.12-.33h-1.72l.96-2.56.76 2.56zM24 30.34h.2c.68 0 1.1.47 1.1 1.25 0 .8-.37 1.34-1.09 1.34H24v-2.59zm0 2.93h.46c1.55 0 2.08-.8 2.08-1.66 0-1.07-.8-1.61-1.89-1.61h-2.37v.16c.71 0 .72.24.72.97v3.74c0 .73 0 .97-.72.97V36h2.49v-.16c-.72 0-.77-.24-.77-.97v-1.6zm5.72-3.1c-.72 0-.72.23-.72.96v3.74c0 .73 0 .97.72.97V36h-2.44v-.16c.72 0 .72-.24.72-.97v-3.74c0-.73 0-.97-.72-.97V30h2.44v.16zm3.68.17c.58 0 .9.2 1.1 1.25h.14V30h-4.28v1.61h.14c.2-1.05.52-1.27 1.1-1.27h.4v4.58c0 .7 0 .92-.7.92V36h2.4v-.15c-.7 0-.7-.22-.7-.92v-4.59h.4zm4.65 4.86l-.34-.94h-1.9l-.18.48c-.07.21-.14.43-.14.6 0 .43.29.47.67.5V36h-1.68v-.16c.46-.04.68-.66.85-1.13l.07-.17L37.16 30h.07l1.86 4.85.03.1c.14.38.33.89.72.89V36h-2.31v-.16c.21 0 .6 0 .6-.29 0-.13-.03-.2-.07-.3l-.01-.05zm-2.11-1.26h1.66l-.76-2.31-.9 2.3z" fill="#4C9FC8"/></svg>