<!-- by TradingView --><svg width="56" height="56" xmlns="http://www.w3.org/2000/svg"><path fill="#FF4A6A" d="M0 0h56v56H0z"/><path d="M28 12l-14 8.15v15.688L28 44l14-8.162V20.15L28 12zm12 23l-12 7-12-7V21l12-7 12 7v14z" fill="#fff"/><path d="M27 37.844a.145.145 0 01-.22.127l-7.56-4.579A.465.465 0 0119 33v-8.857c0-.115.121-.184.22-.127l7.56 4.579c.132.08.22.23.22.392v8.857zM35.93 22.63l-7.624 4.294a.633.633 0 01-.603 0l-7.625-4.294a.147.147 0 010-.26l7.625-4.294a.633.633 0 01.603 0l7.625 4.294c.092.068.092.203 0 .26zM35.933 34.129l-6.708 3.85c-.101.057-.225-.01-.225-.122v-7.714c0-.112.124-.179.225-.123l6.708 3.851c.09.056.09.19 0 .258z" fill="#fff"/></svg>