<!-- by TradingView --><svg width="56" height="56" viewBox="0 0 56 56" xmlns="http://www.w3.org/2000/svg"><path fill="#F0F3FA" d="M0 0h56v56H0z"/><path d="M9.18 27C7.98 27 7 27.93 7 29.08v1.84C7 32.07 7.98 33 9.18 33H12v-1H9.93c-1.04 0-1.46-.62-1.46-1.39V29.4c0-.77.42-1.39 1.46-1.39H12v-1H9.18ZM37 30.9c0 1.44 1.07 2.1 2.03 2.1h.8c.96 0 2.17-.66 2.17-2.1V27h-1.44v3.32c0 1.43-.58 1.68-1 1.68h-.15c-.4 0-1-.25-1-1.68V27H37v3.9Z" fill="#808082"/><path fill-rule="evenodd" d="M15.42 33c2.29.03 2.98-1.34 2.98-3s-.64-3.04-2.98-3c-2.34.05-2.98 1.34-2.98 3s.69 2.97 2.98 3Zm-.02-1c1.21.03 1.57-.9 1.57-2s-.33-2.04-1.57-2c-1.23.02-1.57.9-1.57 2s.37 1.98 1.57 2ZM27.68 33c2.3.03 2.98-1.34 2.98-3s-.64-3.04-2.98-3c-2.34.05-2.98 1.34-2.98 3s.69 2.97 2.98 3Zm-.01-1c1.2.03 1.57-.9 1.57-2s-.34-2.04-1.57-2c-1.24.02-1.58.9-1.58 2s.37 1.98 1.58 2ZM22.12 27H19v6h3.12a2.32 2.32 0 0 0 2.32-2.31V29.3A2.32 2.32 0 0 0 22.12 27Zm-.32 1h-1.4v4h1.4c.69 0 1.2-.64 1.2-1.43v-1.14c0-.79-.51-1.43-1.2-1.43ZM34.59 27H31v6h1.41v-2.26h1.5c.95.3 1.17 1.6 1.15 2.26h1.38c.03-1.63-.56-2.28-1.02-2.46a1.87 1.87 0 0 0-.83-3.54Zm-.33 1H32.4v1.53h1.85a.77.77 0 0 0 0-1.53Z" fill="#808082"/><path d="M44.35 27H48v1h-3.37c-.38 0-.69.38-.69.76 0 .37.31.67.7.67h1.69c1 0 1.67.8 1.67 1.79 0 .98-.67 1.78-1.67 1.78h-3.79v-1h3.47c.38 0 .7-.4.7-.77 0-.38-.32-.68-.7-.68h-1.66c-1 0-1.8-.8-1.8-1.78s.8-1.77 1.8-1.77ZM15.2 40l-2.57-6h1.48l1.76 4.43L17.6 34h1.5l-2.63 6H15.2ZM17.68 40l2.56-6h1.3l2.61 6h-1.5l-.54-1.38h-2.4L19.15 40h-1.48Zm2.46-2.48h1.54l-.76-1.95-.78 1.95ZM24 38.1V34h1.44v3.93c0 .52.19 1.07.7 1.07H28v1h-2.18c-1 0-1.82-.85-1.82-1.9ZM28.55 38.1V34H30v3.93c0 .52.18 1.07.68 1.07h1.87v1h-2.18c-1 0-1.82-.85-1.82-1.9ZM32.7 36.08c0-1.15.9-2.08 2-2.08H37v1h-1.6c-.95 0-1.35.62-1.35 1.39v.1H37v1h-2.95v.12c0 .77.4 1.39 1.35 1.39H37v1h-2.3c-1.1 0-2-.93-2-2.08v-1.84ZM38.9 34h-1.55l2.28 3.34V40H41v-2.66L43.3 34h-1.57l-1.47 2.25L38.89 34Z" fill="#808082"/><path d="M18.57 17.1A27.64 27.64 0 0 0 6 16.43c4.66 0 10.08 1.04 12.21 1.56 7.26 2.18 11.99 2.08 13.44 1.76-1.36.17-6.22-.66-13.08-2.65Z" fill="#B70719"/><path d="M18.21 18.4C12.64 16.92 7.75 17.36 6 17.76c.94.23 2.8-.66 11.66 1.51 7.1 1.75 10.91 1.5 11.93 1.16-1.12.08-4.41-.17-11.38-2.03Z" fill="#B70719"/><path d="M15.8 19.27a28.42 28.42 0 0 0-9.8-.25c4.1.11 8.33.83 9.94 1.18 5.74 1.44 9.98 1.33 11.38 1.1-2.58-.12-6.42-.93-11.52-2.03ZM6.14 20.43c1.21-.34 4.83-.78 9.66.16 5.98 1.17 8.27 1.54 9.38 1.41h.03-.03c-1.55.19-5.65.3-10.01-.7-4.39-1.02-8.1-.87-9.03-.87ZM14.73 21.75a22.3 22.3 0 0 0-8.59 0c.97-.2 4.46-.05 7.8.64 3.33.7 7.47.65 9.13.54a84.88 84.88 0 0 1-8.34-1.18ZM13.63 22.93a21.6 21.6 0 0 0-7.49.17c.92-.06 3.5-.07 6.48.33 2.98.4 6.67.32 8.14.23-1.03-.03-3.9-.22-7.13-.73ZM6.3 24.36c1.27-.37 5.49-.88 12.27 0-1.32.17-5.61.4-12.26 0ZM33.65 16.49c-5.94-.15-9.79.75-10.97 1.21 1.68-.33 6.23-.94 10.97-.7 4.74.22 9.07.56 10.64.7-1.07-.34-4.7-1.07-10.64-1.21Z" fill="#B70719"/><path d="M33.23 17.17c-4.73-.26-7.8.54-8.75.97 4.4-.98 13.17-.4 17.01 0-.78-.22-3.53-.71-8.26-.97Z" fill="#B70719"/><path d="M26.13 18.53a25.02 25.02 0 0 1 12.1 0c-2.3-.22-7.93-.54-12.1 0Z" fill="#B70719"/><path d="M27.84 18.93c1.28-.35 4.54-.83 7.32 0-2.17-.07-6.68-.18-7.32 0ZM29.35 19.4a3.44 3.44 0 0 1 2.87 0c-.46.08-1.67.2-2.87 0ZM35.33 19.32c7.45-1.58 12.88-.94 14.67-.43-10.99-.43-19.85 2.58-22.47 3.7-2.1.88-6.06 2.04-7.78 2.5 2.1-1.26 8.13-4.19 15.58-5.77Z" fill="#B70719"/><path d="M35.33 20.66A52.72 52.72 0 0 0 23.8 25.1c.81 0 6.25-1.98 12.68-3.87 5.14-1.51 11.15-1.5 13.52-1.32-3.65-1.18-8.63-.69-14.67.75Z" fill="#B70719"/><path d="M38.4 21.23c-3.94.7-8.63 2.87-10.49 3.87l10.5-3.08A37.16 37.16 0 0 1 50 20.83c-3.7-.79-6.67-.48-11.6.4Z" fill="#B70719"/><path d="M40.5 22.02a52.6 52.6 0 0 0-8.4 2.8c.28.1 1.84-.07 5.92-1.44C42.1 22 47.7 21.72 50 21.75c-2.32-.83-5.77-.52-9.5.27Z" fill="#B70719"/><path d="M43.46 22.59a29.34 29.34 0 0 0-7.33 2.24c1.93 0 3.26-.66 3.56-.66 2.84-1.23 8.06-1.45 10.31-1.4-.91-.25-3.5-.64-6.54-.18Z" fill="#B70719"/><path d="M40.2 24.83c1.86-.83 6.36-2.2 9.5-1.1-2.23.15-7.27.57-9.5 1.1ZM44.44 24.83c1.12-.44 3.73-1.06 5.27 0h-5.27Z" fill="#B70719"/></svg>