<!-- by TradingView --><svg width="56" height="56" viewBox="0 0 56 56" xmlns="http://www.w3.org/2000/svg"><path fill="#F0F3FA" d="M0 0h56v56H0z"/><path d="M13.42 26H16c-.21-1.55-1.65-5-5.7-5C5.24 21 4 24.78 4 27.55S5.12 34 10.3 34a5.54 5.54 0 0 0 5.7-5h-2.58c-.07.86-.79 2.5-3.12 2.5-2.9 0-3.8-2.07-3.8-3.95 0-1.9.98-4.05 3.8-4.05a3 3 0 0 1 3.12 2.5Zm3.08-5 5.47 13h2.06l5.47-13h-2.86l-3.62 8.58L19.36 21H16.5ZM31 21v13h2.5v-5.5h2.43l3.2 5.5H42l-3.2-5.61c1.61-.4 2.7-1.8 2.7-3.57 0-2.11-1.53-3.82-3.65-3.82H31Zm2.5 2h3.6c1.05 0 1.9.78 1.9 1.75s-.85 1.75-1.9 1.75h-3.6V23Zm12.42 1h-3.06l3.06 4h3.26L52 24h-2.82l-1.72 2.52L45.92 24Zm0 10h-3.06l3.06-4h3.26L52 34h-2.82l-1.72-2.52L45.92 34Z" fill="#0A1438"/></svg>