<!-- by TradingView --><svg width="56" height="56" viewBox="0 0 56 56" xmlns="http://www.w3.org/2000/svg"><path fill="#F0F3FA" d="M0 0h56v56H0z"/><path fill-rule="evenodd" d="m18.48 25.49-.58.18c-.43-1.7-2.3-4.04-5.05-4.04S8 23.87 8 27.37s2.31 6.56 5.6 6.56a6.3 6.3 0 0 0 4.99-2.57l.41.44a7.38 7.38 0 0 1-6.43 3.2C10.67 35 6 33.33 6 28.08S10.1 21 12.85 21c2.2 0 3.82.83 4.35 1.25l.33-.85h.37l.58 4.09ZM20 21v1h.84c.4 0 .77.24.93.62l5.49 12.15c.06.14.19.23.33.23.15 0 .29-.1.35-.23l5.26-12.22A.88.88 0 0 1 34 22h1v-1h-6v1h1.25c.4 0 .7.43.54.83l-3.27 8.27-3.23-8.48c-.1-.3.1-.62.41-.62H26v-1h-6Zm17 0v1h1.7c.16 0 .3.14.3.3v11.41c0 .17-.14.29-.3.29H37v1h6.29c.55 0 6.71-.16 6.71-7.18 0-5.6-4.47-6.88-6.71-6.82H37Zm5.02.5c-.84 0-1.03.64-1.02.96v10.3c0 .96.68 1.74 1.52 1.74h.1c.61 0 5.38-.13 5.38-6.69 0-6.35-4.64-6.32-5.88-6.3h-.1Z" fill="#EE2B37"/></svg>