<!-- by TradingView --><svg width="56" height="56" viewBox="0 0 56 56" xmlns="http://www.w3.org/2000/svg"><path fill="url(#amefju1ww)" d="M0 0h56v56H0z"/><path fill-rule="evenodd" d="M16 29v4.73c-3.37 1.04-5.85 2.33-7 3.27 2.5-.96 9.62-2.89 18.13-2.89 8.52 0 16.8 1.93 19.87 2.89-1.2-.95-3.94-2.44-8-3.55v-3.02a26.48 26.48 0 0 0-5-4.01V18.8L28.41 15 24 18.8v3.5l-2-1.13-3 3.09v1.78L16 29Zm16-3.74v-4.72c-.25-.62-1.53-2.27-4-3.9v6.81c1.24.47 2.6 1.07 4 1.81Zm-4-.21V32c4.13.03 7.69.59 10.6 1.35-1.84-2.2-5.67-6.15-10.6-8.3Zm-7 7.5c-.69.12-1.35.25-2 .4v-5.9l2 .62v4.88Zm3-.38c-.68.06-1.35.14-2 .23V21.87l2 1.15v9.15Z" fill="#CCA545"/><defs><linearGradient id="amefju1ww" x1="10.42" y1="9.71" x2="68.15" y2="76.02" gradientUnits="userSpaceOnUse"><stop stop-color="#1A1E21"/><stop offset="1" stop-color="#06060A"/></linearGradient></defs></svg>