<!-- by TradingView --><svg width="56" height="56" xmlns="http://www.w3.org/2000/svg"><path fill="#00263D" d="M0 0h56v56H0z"/><path fill-rule="evenodd" d="M36.756 32.085c-.01.13-.01.904-.01.904H40V23h-3v3.046s-.102-.403-.387-.708c-.274-.294-.915-.338-.915-.338h-5.983s-.387.022-.672.316c-.305.24-.356.534-.356.534h-.183s-.072-.164-.407-.512c-.346-.36-.814-.338-.814-.338h-5.79s-.296.033-.52.283c-.254.283-.325.523-.325.523h-.153s-.05-.283-.315-.534c-.275-.261-.692-.272-.692-.272h-6.126s-.448.022-.631.218c-.224.229-.275.523-.275.523s-.071-.24-.305-.49c-.193-.218-.702-.251-.702-.251h-6.89c-.305 0-.559.272-.559.599v6.802c0 .327.254.599.56.599h6.98s.245-.076.54-.403c.274-.294.305-.545.305-.545s.061.273.336.589c.234.283.529.359.529.359h3.389s.244-.109.366-.24c.132-.141.265-.392.265-.392V33h3.398v-.664s.133.305.285.424c.194.164.397.24.397.24h6.136s.417-.087.702-.349c.214-.185.265-.599.265-.599h.183s.02.316.254.589c.306.359.662.359.662.359h6.177s.254.01.63-.283c.275-.207.377-.545.397-.632zm-11.641-1.939l-3.195.011s-.468.022-.825-.24c-.457-.326-.549-.685-.549-.685l.01 1.459 3.084-.01s.366.576 1.17.566c.55 0 .814-.262.814-.6 0-.337-.509-.5-.509-.5zm7.755 1.046a.863.863 0 00.885-.654l3.104.022-.01-.56h-4.987s.102 1.192 1.008 1.192zm-.143-4.06c-.916 0-.886.868-.886.868h1.841s-.162-.867-.955-.867zm-16.434 3.243s.397.076.58.011c.214-.076.407-.261.397-.436 0 0 .122.349-.153.796-.214.359-.458.49-.753.49-.366 0-.712-.142-.712-.447 0-.24.224-.414.64-.414zm8.497-3.362c-.6 0-.886.163-.886.534 0 .403.565.453.565.453h2.33s.54-.044 1.028.196c.437.229.758 1.134.758 1.134V27.48h-2.839c-.003 0-.007-.008-.015-.023-.051-.096-.238-.445-.941-.445zm-9.29.48s.315-.49 1.027-.49c.509 0 .926.228.916.522 0 .566-.417.475-.417.475h-3.663s-.275.065-.53.338c-.173.185-.346 1.1-.346 1.1L9.5 29.45v1.198s-.075.638-1.106.638c-.712 0-1.393-.638-1.393-.638v-3.122s.731-.534 1.393-.534c.641 0 1.106.588 1.106.588v.741h2.887v-.828H15.5zM47.93 32.847c.224-.206.295-.348.295-.348v.5h3.42a1.403 1.403 0 01-.55-1.132l-.085-5.462c0-.773-.235-1.405-.957-1.405h-5.11s-.346.12-.642.381c-.244.218-.301.567-.301.567V23h-3.743v9.99h3.083v-.981h.163s.081.37.397.697c.305.316.682.283.682.283h2.849s.285.055.499-.142zm-1.394-5.257s.397-.479.906-.457c.6.022.926.196.936.534-.051.333-.306.333-.56.333h-3.134s-.458.098-.784.37c-.285.24-.498 1.428-.498 1.428v-2.186l3.134-.022zm1.394 2.753c-.184.065-.58-.011-.58-.011-.418 0-.642.174-.642.413 0 .305.346.447.713.447.295 0 .54-.13.753-.49.275-.447.153-.795.153-.795 0 .163-.194.36-.397.436z" fill="#fff"/></svg>