<!-- by TradingView --><svg width="56" height="56" viewBox="0 0 56 56" xmlns="http://www.w3.org/2000/svg"><path fill="url(#am2ikpl02)" d="M0 0h56v56H0z"/><path d="m44 37-4.1 4H13l3.97-4H44ZM12 24.5c0-4.8 3.66-8.5 8.62-8.5 3.2 0 5.98 1.67 7.32 4.15l-3.63 2.1A4.12 4.12 0 0 0 20.6 20a4.5 4.5 0 1 0 0 9c1.7 0 3.1-.92 3.75-2.24L28 28.82A8.38 8.38 0 0 1 20.62 33 8.38 8.38 0 0 1 12 24.5Z" fill="#fff"/><path d="m39.08 33-3.56-5.17-3.6 5.17H27l6.04-8.67L27.26 16h4.92l3.34 4.8 3.33-4.8h4.89l-5.78 8.3L44 33h-4.92Z" fill="#fff"/><defs><linearGradient id="am2ikpl02" x1="0" y1="28" x2="56" y2="28" gradientUnits="userSpaceOnUse"><stop stop-color="#8360E5"/><stop offset=".5" stop-color="#E87097"/><stop offset="1" stop-color="#F88D46"/></linearGradient></defs></svg>