<!-- by TradingView --><svg width="56" height="56" viewBox="0 0 56 56" xmlns="http://www.w3.org/2000/svg"><path fill="#F0F3FA" d="M0 0h56v56H0z"/><path d="M24.41 12.25c-3.05.83-5.88 3.28-7.41 6.4-.65 1.33-.84 2-1.11 4.03l-.05.34-.89-.07a5.78 5.78 0 0 0-4.82 1.95A7.1 7.1 0 0 0 8 29.75a9.1 9.1 0 0 0 1.1 4.87c.8 1.37 2.54 2.93 4.25 3.8.8.41 2.49 1.01 3.66 1.3.92.24 1 .24 11.75.27 9.52.03 10.92.01 11.68-.14 3.36-.64 5.8-2.33 6.88-4.74.55-1.23.8-2.96.6-4.12a7.94 7.94 0 0 0-4.53-5.95 7.7 7.7 0 0 0-2.33-.56h-.37l-.06-.76a7.2 7.2 0 0 0-2.06-4.64 7.4 7.4 0 0 0-4.11-2.25c-.84-.16-.85-.17-.95-.53-.33-1.21-1.7-2.76-3.07-3.45a7.3 7.3 0 0 0-3.81-.85c-1.06 0-1.52.06-2.23.25Zm5.36 2c1.1.24 1.96.73 2.83 1.62l.77.78-1.12.08c-2.75.18-4.95 1.06-6.65 2.65a10.5 10.5 0 0 0-1.86 2.53 15 15 0 0 0-1.15 7.4c.23 1.8 1.21 4.64 2.3 6.62l.45 1.07h-1.06l-.78-1.37c-2.16-3.1-3.73-6.44-4.28-9.1-.8-3.8.71-8.02 3.7-10.37 2.02-1.58 4.8-2.36 6.85-1.91Zm5.94 5.47c1.2.31 2.07.84 3.08 1.87a5.13 5.13 0 0 1 1.58 2.52c.07.34.06.37-.16.37a8.1 8.1 0 0 0-2.3.8c-1.25.64-2.46 1.7-3.39 2.95a7 7 0 0 0-.9 1.44c0 .03.3-.18.64-.49a12.2 12.2 0 0 1 4.48-2.53 5.99 5.99 0 0 1 2.71-.02 5.25 5.25 0 0 1 3 2.87c1.38 2.9.07 5.9-3.15 6.99-1.39.46-1.69.51-8.5.51h-6.57c-.11-.38-.67-3.9-.83-5.07-.22-1.55-.16-4.21.14-5.62a8.96 8.96 0 0 1 2.32-4.6 7.2 7.2 0 0 1 3.79-1.99c.97-.21 3.25-.22 4.06 0Zm-19.86 4.32.1 1.13c.3 2.71 1.55 5.5 3.62 8.13.77.97 2.13 2.63 2.76 3.1l.7.6h-2.06c-1.75.02-2.34-.13-3.23-.32a9.96 9.96 0 0 1-5.36-2.96 5.53 5.53 0 0 1-1.78-4.3 5.44 5.44 0 0 1 4.33-5.4c.88-.2.92-.2.92.02Z" fill="#1191CB"/></svg>