<!-- by TradingView --><svg width="56" height="56" xmlns="http://www.w3.org/2000/svg"><path fill="#103657" d="M0 0h56v56H0z"/><path d="M21.205 24.122l6.792-3.894V12L14 20.013l7.205 4.11z" fill="#4C8ECB"/><path d="M28 36l6.807-3.944L42 28v8.111L28.01 44 28 36zM27.997 20.228l6.798 3.889 7.188-4.12L27.997 12v8.228z" fill="#2E73AF"/><path d="M28.003 36L21 32.003l-7 4.01L28.003 44v-8z" fill="#4C8ECB"/><path d="M21.205 31.894v-7.772L14 20.013l.022 16 7.183-4.12z" fill="#2E73AF"/><path d="M27.997 20l7 4.004V32l-7-3.998V20z" fill="#808184"/><path d="M28 20l-7 4.01V32l7-3.998v-7.996" fill="#58595B"/></svg>