<!-- by TradingView --><svg width="56" height="56" viewBox="0 0 56 56" xmlns="http://www.w3.org/2000/svg"><path fill="#F0F3FA" d="M0 0h56v56H0z"/><path d="M34.24 24.91c.42 0 .76-.35.76-.78a.77.77 0 0 0-.76-.78.77.77 0 0 0-.75.78c0 .43.33.78.75.78ZM36.1 23.62c.54 0 .97-.45.97-1 0-.56-.43-1-.97-1a.99.99 0 0 0-.97 1c0 .55.44 1 .97 1ZM38.37 21.8c.64 0 1.16-.53 1.16-1.2 0-.66-.52-1.2-1.16-1.2-.64 0-1.16.54-1.16 1.2 0 .67.52 1.2 1.16 1.2ZM40.69 19.87c.72 0 1.31-.6 1.31-1.36 0-.75-.59-1.36-1.31-1.36-.73 0-1.32.61-1.32 1.36 0 .75.59 1.36 1.32 1.36ZM32.82 26.15c.35 0 .64-.3.64-.66a.65.65 0 0 0-.64-.67c-.36 0-.65.3-.65.67 0 .36.3.66.65.66ZM31.37 27.3c.3 0 .54-.26.54-.57a.56.56 0 0 0-.54-.57c-.3 0-.55.25-.55.57 0 .31.24.56.55.56ZM30.15 28.32c.23 0 .43-.2.43-.44 0-.25-.2-.45-.43-.45-.24 0-.43.2-.43.45 0 .24.2.44.43.44Z"/><path d="M35.59 42.94c-.87.6-1.82 1-2.8 1.35-2.05.74-4.18.81-6.3.62a14.92 14.92 0 0 1-8.11-3.38 17.05 17.05 0 0 1-5.76-8.94 15.7 15.7 0 0 1-.46-6.57 17.6 17.6 0 0 1 5.4-10.56 15.92 15.92 0 0 1 8.9-4.3c4.7-.62 9.01.55 12.77 3.61.78.63.87 1.54.31 2.23-.61.75-1.45.8-2.26.1a14.14 14.14 0 0 0-5.95-3.06c-2.77-.7-5.67-.48-8.32.6a14.4 14.4 0 0 0-8.53 9.04 15.93 15.93 0 0 0-.39 9.16 15.48 15.48 0 0 0 4.71 7.77c3.71 3.29 8 4.4 12.8 3.58 1.37-.24 2.67-.75 3.99-1.25Z" fill="#1980D5"/><path d="M33.53 39.94a8.34 8.34 0 0 1-4.1 1.27c-2.62.22-5.23-.42-7.47-1.82-2.24-1.4-4-3.49-5.05-5.98-2.82-6.68.22-14.64 6.7-17.5 4.73-2.06 9.17-1.38 13.3 1.69.67.5.8 1.25.36 1.83-.47.61-1.12.66-1.8.1a10.6 10.6 0 0 0-8.31-2.6c-3.4.37-6.1 2.08-8.06 4.98a11.5 11.5 0 0 0-2.01 6.94c.14 4.54 2.12 8.02 5.9 10.32 2.8 1.7 5.82 2.02 8.96 1.18.53-.14 1.04-.34 1.58-.41Z" fill="#1980D5"/><path d="M31.29 37.81c-4.23 1.9-9.6-.43-11.73-4.88-2.78-5.81.2-12.9 6.22-14.63a9.73 9.73 0 0 1 9.06 1.77c.58.44.69.95.33 1.43-.37.52-.88.53-1.47.05a8.4 8.4 0 0 0-10.67-.24 9.45 9.45 0 0 0-3.35 9.32 9.16 9.16 0 0 0 6.05 7c1.14.42 2.36.57 3.56.42.67-.08 1.35-.06 2-.24Z" fill="#1980D5"/><path d="M33.62 22.88c-.3.81-.68.95-1.3.46a6.22 6.22 0 0 0-7.32-.51 6.85 6.85 0 0 0-3.02 6.95A6.84 6.84 0 0 0 28 35.54c.5.06 1.63.1 2.12-.05-2.5 1.06-6.6-.15-8.33-3.97-1.74-3.84.01-8.6 3.77-10.24 2.93-1.29 7.8-.3 8.06 1.6Z" fill="#1980D5"/><path d="M32.23 24.4c-.28.64-.47.7-1 .3a4.51 4.51 0 0 0-6.56.97 5.02 5.02 0 0 0-.13 5.55c.34.55.78 1.02 1.3 1.4.55.39 1.15.67 1.8.84-.51.12-.68.11-.94.02a5.25 5.25 0 0 1-2.53-2 5.55 5.55 0 0 1-.95-3.15 5.56 5.56 0 0 1 3.52-5.21 5.18 5.18 0 0 1 5.04.69c.3.2.29.21.45.6Z" fill="#1980D5"/></svg>