<!-- by TradingView --><svg width="56" height="56" viewBox="0 0 56 56" xmlns="http://www.w3.org/2000/svg"><path fill="#01183D" d="M0 0h56v56H0z"/><path d="M15.55 29.52a1.4 1.4 0 0 1-1.21.6c-.94 0-1.6-.67-1.6-1.62 0-.96.66-1.62 1.6-1.62a1.43 1.43 0 0 1 1.2.6l.1.14.74-.5-.08-.13c-.4-.64-1.09-.99-1.96-.99-1.49 0-2.56 1.05-2.56 2.5 0 1.44 1.07 2.5 2.56 2.5.86 0 1.56-.35 1.96-.99l.08-.13-.74-.5-.1.14ZM26.46 29.52a1.4 1.4 0 0 1-1.21.6c-.94 0-1.6-.67-1.6-1.62 0-.96.66-1.63 1.6-1.63a1.43 1.43 0 0 1 1.2.61l.1.14.74-.5-.08-.13c-.4-.64-1.09-.99-1.96-.99-1.49 0-2.56 1.05-2.56 2.5 0 1.44 1.07 2.5 2.56 2.5.87 0 1.56-.35 1.96-.99l.08-.13-.74-.5-.1.14ZM29.92 30.05a.93.93 0 0 1-.35.06c-.42 0-.57-.2-.57-.68V24h-1v5.48c0 .95.55 1.52 1.47 1.52.22 0 .43-.04.63-.1l.12-.05-.08-.9-.22.1ZM35.08 28.35a2.35 2.35 0 0 0-2.4-2.35 2.4 2.4 0 0 0-2.46 2.5c0 1.47 1.08 2.5 2.62 2.5a2.46 2.46 0 0 0 1.9-.81l.1-.11-.58-.65-.12.14a1.63 1.63 0 0 1-1.3.55c-.71 0-1.26-.33-1.52-.9l3.76-.73v-.14Zm-1-.47-2.9.55c0-.92.62-1.58 1.5-1.58a1.41 1.41 0 0 1 1.4 1.03ZM37 26.57V26h-1v5h1v-2.53c0-.97.47-1.53 1.35-1.53h.31V26h-.16c-.66 0-1.14.2-1.5.57ZM40.5 26h-1v5h1v-5ZM39.98 24a.62.62 0 0 0-.59.76c.03.12.09.23.18.32a.61.61 0 0 0 .94-.11.64.64 0 0 0-.1-.8.61.61 0 0 0-.43-.17ZM43.93 26a2.43 2.43 0 0 0-2.53 2.5c0 1.44 1.07 2.5 2.53 2.5a2.43 2.43 0 0 0 2.53-2.5c0-1.46-1.06-2.5-2.53-2.5Zm1.56 2.5c0 .94-.64 1.62-1.56 1.62-.9 0-1.56-.67-1.56-1.62 0-.96.64-1.63 1.56-1.63s1.56.67 1.56 1.63ZM49.76 26a2.62 2.62 0 0 0-1.76.58V26h-1v5h1v-2.6c0-.94.63-1.4 1.62-1.4.89 0 1.38.34 1.38 1.21V31h1v-2.85c.01-1.35-.83-2.15-2.24-2.15Z" fill="#fff"/><path d="m9.8 29.6-4.26 1.53-.22-.9 4.49-.65v.02Zm.17-2.67-4.07-2c-.15.27-.25.56-.3.86l4.37 1.15v-.01Zm.9-1.54-3.03-3.44-.6.68 3.61 2.77.01-.01ZM9.73 27.8l-4.4-1.14-.14.9 4.54.26v-.02Zm-.05.89-4.53-.26.04.93 4.5-.65-.01-.02Zm2.59-4.38-1.48-4.3c-.29.07-.56.2-.8.38l2.27 3.93Zm4.95.81 3.35-3.05c-.19-.25-.41-.46-.67-.62l-2.7 3.66.02.01Zm-1.28-.92L17.92 20l-.85-.3-1.12 4.48Zm-2.82-.16-.64-4.58-.88.22 1.5 4.36h.02Zm-2.79 2.07-3.62-2.77-.47.79 4.08 2 .01-.02Zm3-6.74.64 4.55H14l.25-4.57c-.3-.05-.61-.04-.91.02Zm2.65.13-.89-.15-.25 4.63h.01L16 19.5Zm-1.63 13.58-.25 4.59c.3.04.6.03.9-.04l-.64-4.55h-.01Zm1.84-.31 1.48 4.3c.3-.07.57-.2.81-.38l-2.27-3.92h-.02Zm-.92.26.64 4.56.88-.22-1.5-4.35h-.02Zm-4.15-1.15-3.35 3.06c.18.24.4.45.66.62l2.7-3.67h-.01Zm-4.48 1.69.53.73 3.37-3.08-3.9 2.35Zm5.98-.78-1.95 4.15c.26.16.54.27.84.32l1.12-4.46Zm-.8-.38-2.72 3.7.77.48c.67-1.41 1.33-2.79 1.97-4.17h-.02Z" fill="#FFDA00"/><path d="m17.45 23.15 2.7-3.68c-.22-.2-.48-.37-.77-.47l-1.94 4.14h.01ZM10.91 23.83 8.63 19.9c-.27.13-.51.3-.71.53l2.98 3.4h.01ZM4 32.83c.07.29.2.57.36.81l3.85-2.32L4 32.82ZM11.98 39.85l.89.15.25-4.63h-.01l-1.13 4.48ZM21 28.48c0 .99-.63 1.52-1.6 1.52-.89 0-1.4-.4-1.4-1.32V26h-1v2.74c0 1.48.86 2.26 2.33 2.26.6.02 1.17-.2 1.61-.57v.06c0 1.11-.45 1.51-1.52 1.51a2.44 2.44 0 0 1-1.71-.54l-.05-.05c-.18.22-.38.42-.6.6l-.06.1.1.1c.5.49 1.4.79 2.35.79 1.71 0 2.55-.85 2.55-2.59V26h-1v2.48Z" fill="#fff"/></svg>