<!-- by TradingView --><svg xmlns="http://www.w3.org/2000/svg" width="56" height="56" viewBox="0 0 56 56"><path fill="#F0F3FA" d="M0 0h56v56H0z"/><path d="M27.5 12v7H14l13.5-7z" fill="#1E817E"/><path d="M26.88 28.29c-2.13 1.18-6.4 3.56-6.45 3.6l-6.71-10.93 13.16 7.33zM27.5 43.65V28.98l-6.75 3.72 6.75 10.95z" fill="#3AC0BE"/><path d="M20 33.1l-6.63 3.65L26.57 44 20 33.1zM13 35.95v-14.4l6.63 10.8-6.63 3.6zM28.5 12v7H42l-13.5-7z" fill="#1E817E"/><path d="M27.5 20v7.5L14.29 20H27.5zm1 0v7.5L41.71 20H28.5z" fill="#7DD1E1"/><path d="M29.12 28.29c2.13 1.18 6.4 3.56 6.45 3.6l6.71-10.93-13.16 7.33zM28.5 43.65V28.98l6.75 3.72-6.75 10.95z" fill="#3AC0BE"/><path d="M36 33.1l6.63 3.65L29.43 44 36 33.1zM43 35.95v-14.4l-6.63 10.8 6.63 3.6z" fill="#1E817E"/></svg>