<!-- by TradingView --><svg xmlns="http://www.w3.org/2000/svg" width="56" height="56"><path fill="#F0F3FA" d="M0 0h56v56H0z"/><circle cx="28" cy="28" r="18" fill="#8BD1F0"/><path d="M18.57 20.68c-3.54 5-4.17 15.21-4.17 15.21a13.92 13.92 0 01-3.53-9.3A13.97 13.97 0 0128.02 13s-6.69 3.79-9.45 7.68z" fill="#34BBEB"/><path d="M28 40.3c5.59 0 13.58-4.52 13.58-4.52-1.99 5.41-7.32 9.28-13.57 9.28s-11.59-3.87-13.58-9.28c0 0 8 4.51 13.58 4.51zm17.1-13.7a13.92 13.92 0 01-3.47 9.2s-.7-9.37-3.8-14.18c-2.78-4.33-9.9-8.63-9.9-8.63a14.01 14.01 0 013.19-.37c7.72 0 13.97 6.26 13.97 13.98z" fill="#34BBEB"/><path d="M18.2 21.22a15.3 15.3 0 019.83-8.23c5.52 1.29 8.7 5.94 9.66 8.14a17.45 17.45 0 00-19.48.09z" fill="#24A7DB"/><path d="M18.25 21.18c-5.03 4.2-4.69 11.44-3.83 14.55 3.5 4.96 10.58 5.07 13.61 4.55-10.81-3.6-11.03-14.18-9.78-19.1z" fill="#24A7DB"/><path d="M37.68 21.12c4.96 4.96 4.69 11.81 3.92 14.61-3.68 4.92-10.64 5.1-13.61 4.54 10.17-2.98 10.73-14.03 9.7-19.15z" fill="#24A7DB"/><path d="M37.4 20.65c-7.92-6.88-15.84-2.87-18.78 0-2.78 3.67-1.33 9.57-.26 12.07a12.26 12.26 0 009.67 7.6c5.9-1.1 8.66-5.54 9.32-7.6 2.78-5.4 1.22-10.3.06-12.07z" fill="#229ED4"/><path d="M28.34 19c-4.55-.04-7.66 2.46-8.65 3.71-2.97 10 4.35 14.68 8.38 15.76 9.68-3.08 9.6-11.79 8.34-15.76-.8-1.22-4.4-3.68-8.07-3.7z" fill="#F0F3FA"/></svg>