<!-- by TradingView --><svg xmlns="http://www.w3.org/2000/svg" width="56" height="56" viewBox="0 0 56 56"><path fill="#F0F3FA" d="M0 0h56v56H0z"/><path d="M13 24.67a5.58 5.58 0 0 0-2.67-.67C7.4 24 5 26.24 5 29s2.39 5 5.33 5c.97 0 1.89-.24 2.67-.67v-2.17c-.62.52-1.47.84-2.4.84C8.69 32 7 30.8 7 29c0-1.76 1.69-3 3.6-3 .93 0 1.78.32 2.4.84v-2.17ZM33 24.67a5.58 5.58 0 0 0-2.67-.67C27.4 24 25 26.24 25 29s2.39 5 5.33 5c.97 0 1.89-.24 2.67-.67v-2.17c-.62.52-1.47.84-2.4.84-1.91 0-3.6-1.2-3.6-3 0-1.76 1.69-3 3.6-3 .93 0 1.78.32 2.4.84v-2.17ZM18.57 32.6 14.64 24h2.2l2.83 6.2 2.82-6.2h2.2L18.3 38h-2.2l2.47-5.4ZM35 19h2v15h-2V19Z" fill="#3AD4C4"/><path d="M42.5 32.73a1.5 1.5 0 1 1-3 0 1.5 1.5 0 0 1 3 0ZM50 25.05a1.4 1.4 0 1 1-2.8 0 1.4 1.4 0 0 1 2.8 0Z" fill="#303CA2"/><path d="M49.44 26.7a1.9 1.9 0 0 1-2.47-2.3 4.98 4.98 0 0 0-5.47 1.03L43 26.77a3 3 0 0 1 4.43 4l1.48 1.35a4.98 4.98 0 0 0 .54-5.42ZM48.57 32.5l-1.48-1.35A2.99 2.99 0 0 1 42 29c0-.7.24-1.35.65-1.86l-1.49-1.35a4.98 4.98 0 0 0-.74 5.21 1.85 1.85 0 0 1 2.3 2.45 4.98 4.98 0 0 0 5.85-.95Z" fill="#3AD4C4"/></svg>