<!-- by TradingView --><svg xmlns="http://www.w3.org/2000/svg" width="56" height="56" viewBox="0 0 56 56"><path fill="#F0F3FA" d="M0 0h56v56H0z"/><path d="M20.42 34.3A12.33 12.33 0 0 1 18 26.79a11.6 11.6 0 0 1 2.75-7.4c-.75.36-1.46.8-2.12 1.3-5.38 4.1-6.54 11.7-2.63 16.94 3.92 5.25 11.5 6.17 16.91 2.06.62-.5 1.2-1.05 1.75-1.64-1.56.71-3.25.96-4.94.96-3.68 0-7.1-1.7-9.3-4.7Z" fill="#60636A"/><path d="M43.22 25.67a7.27 7.27 0 0 1-1.96 2.14c-.72.54-1.53.96-2.38 1.25a3.16 3.16 0 0 0-2.26 2.57 11.49 11.49 0 0 1-2.79 6.05C31.53 40.27 28.7 42 25.2 42 19.26 42 14 36.35 14 30.6c0-2.26.42-4.51 1.59-6.46a11.41 11.41 0 0 1 4.92-4.46c1.07-.5 2.2-.68 3.36-.68 1.06 0 2.14.12 3.2.28a2.7 2.7 0 0 0 1.56-.2c1.2-.56 1.35-1.84 2.2-2.73.89-.95 2-1.9 3.23-2.3.43-.12.86-.2 1.28-.3A16.44 16.44 0 0 0 27.81 12C19.44 12 12 19.44 12 27.81 12 36.67 19 44 28.42 44 37.13 44 44 36.24 44 27.8c0-1-.11-2-.3-3-.18.26-.3.56-.48.86Z" fill="#9FCC3B"/><path d="M35.1 17.23c-.7.23-1.32.63-1.83 1.17-.19.23-.39.46-.58.74a4.47 4.47 0 0 0 6.02 6.26 4.59 4.59 0 0 0 2.02-2.36 4.48 4.48 0 0 0-5.62-5.8Z" fill="#60636A"/></svg>