<!-- by TradingView --><svg width="56" height="56" viewBox="0 0 56 56" xmlns="http://www.w3.org/2000/svg"><path fill="#F0F3FA" d="M0 0h56v56H0z"/><path d="M39 33.4c0-1.81-.36-3.02-.55-3.4-3.05 3.63-8.9 6.8-11.45 7.93V47c9.27-3.4 12-11.33 12-13.6Z" fill="#0D3E8A"/><path d="M29.1 13H16c2.73 3.35 10.9 8.38 17.45 11.18C38.7 26.4 40 30.32 40 32v-8.94c0-4.47-7.27-8.57-10.9-10.06Z" fill="url(#anr2utfpb)"/><path d="M19 22c0-.55.5-1 1.11-1h5.56L29 23h-8.89c-.61 0-1.11-.45-1.11-1ZM20 29c0-.55.49-1 1.1-1h15.26L38 30H21.1c-.61 0-1.1-.45-1.1-1ZM20 36c0-.55.51-1 1.14-1h13.72c.63 0 1.14.45 1.14 1" fill="#F59E0C"/><defs><linearGradient id="anr2utfpb" x1="18.18" y1="15.24" x2="39.58" y2="23.27" gradientUnits="userSpaceOnUse"><stop stop-color="#0D3E8A"/><stop offset="1" stop-color="#4183C3"/></linearGradient></defs></svg>