<!-- by TradingView --><svg xmlns="http://www.w3.org/2000/svg" width="56" height="56"><path fill="#F0F3FA" d="M0 0h56v56H0z"/><path d="M25.48 30.2A9.99 9.99 0 0016 17a10 10 0 00-9.48 13.2A2.5 2.5 0 007.5 35H10a9.96 9.96 0 0012 0h2.5a2.5 2.5 0 00.98-4.8z" fill="#07E"/><path d="M49.48 30.2A9.99 9.99 0 0040 17a10 10 0 00-9.48 13.2 2.5 2.5 0 00.98 4.8H34a9.96 9.96 0 0012 0h2.5a2.5 2.5 0 00.98-4.8z" fill="#00A82D"/><path d="M43.76 18.94c-5.46-.92-9.56 1.24-10.93 2.44-.28-.28-.97-.85-1.54-.92-.71-.1-.83.64-.8 1.22.02.57-.17 1.42-.3 1.9-.12.4-.13.7-.12.79.03.46.46 1.37 1.93 1.34 1.48-.04 1.89-.8 1.91-1.18 1.37 1 4.56 2.88 6.42 2.33 1.86-.56 3.33-3.26 3.83-4.54 1.63 1.27 3.45-.2 3.75-.64.3-.44.09-1.08-.5-1.38-.6-.3-1.16-.97-1.46-1.8-.24-.66-.76-.81-.99-.8-.8.05-1.13.85-1.2 1.24z" fill="#fff"/><path d="M44.97 17.85c-.34.02-.59.2-.76.43-.17.23-.27.5-.3.68l-.02.15-.15-.02c-5.42-.92-9.47 1.23-10.81 2.4l-.1.1-.1-.1a4.45 4.45 0 00-.64-.52 2.1 2.1 0 00-.82-.36.51.51 0 00-.34.05.49.49 0 00-.18.22c-.1.21-.13.51-.12.8.03.6-.16 1.46-.3 1.95-.1.37-.12.65-.11.73.01.2.11.5.38.76.26.24.7.45 1.4.44 1.41-.04 1.75-.76 1.76-1.04l.02-.27.22.16c.68.5 1.8 1.21 3 1.73.6.26 1.2.47 1.77.58.57.11 1.09.12 1.52 0a4.97 4.97 0 002.34-1.95 11.8 11.8 0 001.39-2.5l.07-.19.16.12c.76.6 1.57.55 2.23.3a3.52 3.52 0 001.3-.9c.24-.35.1-.9-.45-1.17a3.38 3.38 0 01-1.52-1.88c-.21-.59-.67-.7-.84-.7zm-.01-.3c.28-.01.87.17 1.13.9.3.8.82 1.43 1.38 1.71.65.33.93 1.07.56 1.6a3.82 3.82 0 01-1.45 1.02 2.5 2.5 0 01-2.36-.22c-.27.64-.73 1.55-1.34 2.4a5.25 5.25 0 01-2.5 2.04c-.5.15-1.07.13-1.67.01a8.99 8.99 0 01-1.83-.6A17.01 17.01 0 0134 24.8c-.16.46-.72 1.03-2 1.07-.77.01-1.29-.21-1.62-.53a1.5 1.5 0 01-.47-.95c-.01-.12 0-.43.12-.83.14-.48.32-1.32.3-1.87-.02-.3 0-.65.13-.93a.79.79 0 01.31-.35.8.8 0 01.53-.1c.32.05.66.23.94.42.23.15.44.32.59.46 1.47-1.23 5.5-3.26 10.8-2.41.06-.2.17-.45.33-.67.21-.28.53-.52.98-.55z"/><path d="M31.4 25.03c-.68.11-1.04-.4-1.19-.67.07.43.3 1.11 1.57 1.19 1.27.08 2.02-.48 2.06-1.25 2.23 1.66 4.51 2.62 6 2.52 2.2-.33 3.7-3.3 4.24-4.73.3.36 1 .59 1.46.59 1.6 0 2.75-1.29 2.28-1.76-.15.55-.72 1.1-1.72 1.27-.8.14-1.57-.65-1.86-1.05-1.48 3.76-3.6 4.87-4.47 4.95-2.83.45-5.63-1.76-6.68-2.92-.15 1.26-.85 1.73-1.7 1.86z" fill="#DADADA"/><ellipse cx="38.96" cy="21.69" rx="1.66" ry=".72" transform="rotate(-16.56 38.96 21.7)" fill="#DADADA"/><ellipse cx="34.63" cy="21.36" rx=".28" ry=".4"/><ellipse cx="42.31" cy="19.57" rx=".28" ry=".4" transform="rotate(-33.56 42.31 19.57)"/><ellipse cx="38.78" cy="21.41" rx="1.83" ry=".54" transform="rotate(-16.56 38.78 21.4)"/><ellipse cx="38.95" cy="21.18" rx=".81" ry=".21" transform="rotate(-16.56 38.95 21.18)" fill="#fff"/><circle cx="37.81" cy="21.52" r=".18" fill="#fff"/><path d="M43.5 21.32l.02.04c.03.06.05.15.06.2l.2-.02a1.04 1.04 0 00-.08-.27.34.34 0 00-.1-.12.17.17 0 00-.18-.02c-.1.04-.14.15-.15.23l.01.2c-.06.21-.3.6-.87 1.04-.59.44-1.51.91-2.9 1.27-1.4.35-2.5.37-3.28.26a2.9 2.9 0 01-1.45-.55.935.935 0 00-.16-.2.417.417 0 00-.3-.15c-.12.01-.2.1-.24.18a.64.64 0 00-.08.22l.2.03c0-.04.02-.1.05-.16a.14.14 0 01.09-.07c.02 0 .07.02.14.09.06.05.1.12.14.17v.01l.01.01c.24.23.76.5 1.57.61.82.12 1.93.1 3.35-.26a8.38 8.38 0 002.98-1.3c.6-.46.89-.9.95-1.19v-.04c0-.04-.02-.1-.01-.15l.02-.06zm-4.32 6.08a5.8 5.8 0 00-2.63-.43c0 2.38.53 3.35.79 3.54a6.43 6.43 0 002.19-1.57c.9.1 1.66-.14 1.92-.27.96.26 2.13.35 2.6.37a5.26 5.26 0 00-.78-3.54c-.9.37-1.78 1.2-2.1 1.55-1.93.09-1.9.35-2 .35z"/><path d="M36.9 27.13c1.09.07 2 .35 2.32.48l.08.35-1.1.3h1.22v.63c-.96.86-1.75 1.12-2.02 1.14-.55-.82-.57-2.28-.5-2.9zm6.82 1.65c-1.09-.07-2-.35-2.32-.48l-.08-.35 1.1-.3H41.2v-.63c.96-.86 1.75-1.12 2.02-1.14.55.82.57 2.28.5 2.9zm-2.85-1.58c-.69.02-1.19.2-1.35.29-.06.66.13 1.11.23 1.25.57.08 1.15-.14 1.37-.26.01-.66-.25-1.23-.25-1.28z" fill="#C8161D"/><path d="M36.43 31.25l.12-.3.28.1-.08.2h2.72v.3h-2.83c-.13.31-.28.68-.42.97h1.15v-.67h.3v.67h1.63v.3h-1.63V34a.58.58 0 01-.18.35.8.8 0 01-.56.2v-.3c.19 0 .3-.06.35-.12a.28.28 0 00.1-.15v-1.15h-1.64l.1-.22c.14-.26.32-.68.47-1.05h-.8v-.3h.92zm-3.78 0h-1.83v.3h3.95v-.3h-1.82V31h-.3v.25zm11.15 2.81V31h.3v3.08c0 .12-.1.24-.24.32-.15.08-.37.13-.7.13v-.3c.3 0 .47-.05.55-.1.07-.03.09-.06.09-.07zm2.98-2.81V31h.3v.25h1.65v.6h-.3v-.3h-3.07v.3h-.3v-.6h1.72zm-5.82.15h-.73v-.3h2.32v.3h-1.28a5.08 5.08 0 01-.38.89h1.15l-.2-.37.26-.14.32.6.12.22-.27.14-.08-.15h-2.1l.39-.27c.04-.03.1-.1.15-.18l.16-.3c.07-.15.12-.3.17-.44zm1.97 2.35v-2.16h.3v2.16h-.3zm-12.07-1.98h3.9v1.13h-1.8l-.01 1.09c-.01.1-.07.24-.2.35a.9.9 0 01-.6.2v-.3c.22 0 .34-.07.4-.12a.25.25 0 00.1-.15V32.9h-1.79v-1.13zm.3.3v.53h3.3v-.53h-3.3zm15.36.12h-.95v-.3h2.62v.3h-1.16a3.72 3.72 0 00.23 1.21c.14.36.06.63-.11.82-.16.19-.39.28-.55.31l-.06-.3c.12-.02.28-.09.38-.2.08-.09.13-.2.1-.36-.49.22-1.38.6-1.98.7l-.06-.29a10.3 10.3 0 001.96-.7 4.01 4.01 0 01-.1-.37c-.39.25-1.08.6-1.82.67l-.02-.3a3.82 3.82 0 001.77-.7 4.2 4.2 0 01-.03-.28c-.1.07-.2.14-.33.2-.32.18-.77.33-1.38.4l-.04-.3a3.62 3.62 0 001.53-.51zm1 .4h1.24v.3h-.83c.05.16.13.34.22.52.15.28.32.54.52.7l-.19.23a2.5 2.5 0 01-.6-.79 4.5 4.5 0 01-.3-.76l-.06-.2zm-6.3.58v-.42h.3v.42h.76v.3h-.76v.76h.88v.3h-2.17v-.3h1v-.76h-.85v-.3h.84zm-5.25.6c.12-.27.2-.58.25-.77l.29.06a4.79 4.79 0 01-.5 1.25.87.87 0 01-.32.3l-.12-.28c.06-.03.12-.09.2-.2.07-.1.14-.22.2-.36zm-1.93.1c-.12-.3-.2-.61-.24-.81l.3-.06a4.69 4.69 0 00.4 1.12c.06.1.13.18.19.22l-.17.25c-.11-.07-.2-.19-.28-.31a2.68 2.68 0 01-.2-.42zm4.64-.06a3.4 3.4 0 01-.2-.76l.3-.04c.02.16.08.43.18.69.1.27.25.51.43.65l-.18.24a1.8 1.8 0 01-.53-.78zm-7.83.54c.48-.4.62-1.06.63-1.32h.3c-.01.32-.16 1.07-.73 1.55l-.2-.23zm-14.4-13.01c-1.15-.03-1.57-1.06-1.63-1.55.7-.1 2.17-.62 2.82-.87.27.25.28.73.27.87-.08 1.27-1 1.56-1.46 1.55zm-.25-3.76c.64 0 1.02.36 1.13.54a7.6 7.6 0 01-2.58 1.4c-.06-.1-.07-.4-.07-.52.05-.87.7-1.42 1.51-1.42z" fill="#fff"/><path d="M17.3 18.13a7.66 7.66 0 01-2.48 1.36c2.86-.62 3.62-1.45 3.63-1.78-.5.03-.97.29-1.14.42z" fill="#FA0"/><path d="M20.41 19.79c.05-.4-.2-.52-.34-.54-.13 0-.27.17-.32.25-.79 1.48-1.93 2.03-2.41 2.03h-2.78c-1.3 0-2.53 1.31-2.82 1.82a.6.6 0 000 .59c.14.25.42.1.54 0 .72-1.07 1.31-1.15 1.86-1.16.45-.01.64.14.68.22v1.56a1.79 1.79 0 01-1.71 1.4c-.64.03-1.3-.49-1.54-.75-.32.55-.95 1.73-.96 1.96-.01.3.2.43.35.42.13-.01.58-.36.78-.54.5.47 2.28.73 3.5-.3.97-.81 1.9-.96 2.23-.92 1.64.02 2.53 1.66 2.77 2.48.74-.5 2.24-1.56 2.27-1.8.04-.3-.16-.36-.3-.35-.1.01-.86.18-1.22.26-.87-1.93-2.48-2.23-3.17-2.14v-1.62c2.24-.69 2.52-2.39 2.59-2.87z" fill="#fff"/><path d="M23.59 28.7l-.63-1.21c-1.4.52-3.3 1.52-7.68 1.69-2.78.1-4.65-.57-5.23-.91l-.36.43c.7.61 2.96 1.84 6.34 1.8a18.68 18.68 0 007.56-1.8zm-4.79 3.08h-.68v-.3h.72l.19-.53.28.1-.15.43h1.02v1.06h.25v.3h-1.4l-.85 1.44-.26-.15.77-1.3h-.75v-.3h.86v-.75zm.3 0v.76h.78v-.76h-.78zm-2.33 2.48l.39-3.28.3.04-.39 3.27-.3-.03zm-2.88-2.48V31h.3v.78h1.17v.3H14.2v.4l1.08 1.07-.21.21-1.02-1.02-1.09 1.03-.2-.22 1.14-1.08v-.39h-1.23v-.3h1.23zm8.98-.3h-.58v.3h1.23v.09h-1.23v.3h1.23v.1h-1.23v.3h1.03l-.95.98.22.21 1.08-1.12 1.01 1.12.22-.2-.9-1h1v-.3h-1.18v-.1h1.17v-.3h-1.17v-.08h1.17v-.3h-.4V31h-.3v.48h-1.12V31h-.3v.48zm-13.77.3V31h.3v.78h1.17v.3H9.4v.4l1.08 1.07-.21.21-1.02-1.02-1.09 1.03-.2-.22 1.14-1.08v-.39H7.87v-.3H9.1zm2.82-.35h-.14v-.3h.44v.43h.12v.3h-.42v-.43zm-4.8 0H7v-.3h.43v.43h.13v.3h-.43v-.43zm14.42 0h-.13v-.3h.43v.43h.13v.3h-.43v-.43zm-5.15.95l.17-.56.28.08-.16.56-.29-.08zm1.05 0l.17-.56.28.08-.16.56-.29-.08zm-5.52.03h-.32v-.3h.62v1.87h3.35v.3h-3.65v-1.87zm9.62 0h-.31v-.3h.61v1.87h3.36v.3h-3.66v-1.87zm-14.42 0h-.31v-.3h.61v1.87h3.36v.3H7.12v-1.87zm13.1 1.89l-.81-1.02.23-.19.82 1.02-.24.19z" fill="#fff"/></svg>