<!-- by TradingView --><svg width="56" height="56" viewBox="0 0 56 56" xmlns="http://www.w3.org/2000/svg"><path fill="#F0F3FA" d="M0 0h56v56H0z"/><path fill-rule="evenodd" d="M4.05 22c.07.26.45.78 1.45.78.69 0 1.19-.11 1.64-.22.38-.08.72-.16 1.11-.16.86 0 1.75.67 1.75 1.92v4.82A5.71 5.71 0 0 0 8.17 31l-.04-.02c-.28-.24-1-.84-1.9-.84-1.17 0-1.6.41-1.6 1 0 .57.97.9 1.45.48-.03.13-.2.38-.66.38-.57 0-1.28-.41-1.28-1.28C4.14 29.85 5 29 6.5 29h.29V23.88c-.27.07-.57.13-.95.13-.86 0-2.12-.28-1.8-2Zm2.88 7.01v-1.84c.05-.03.13-.07.24-.1.16-.05.38-.08.67-.08.38 0 .68.11.86.22v2.25c-.18-.16-.8-.4-1.77-.45Zm1.77-3.08v1.13c-.2-.11-.5-.2-.86-.2a2.56 2.56 0 0 0-.91.16v-1.05c.05.03.12.06.2.08.18.05.41.09.71.09.37 0 .66-.1.86-.21Zm0-.15c-.18.1-.48.22-.86.22-.29 0-.51-.04-.67-.08a1.1 1.1 0 0 1-.24-.1v-1.98h.01c.3-.08.59-.15.95-.15.6 0 .81.56.81.85v1.24Zm-2.4-1.11v2.6c0 1.3-1.15 1.76-1.71 1.83.37-.28.4-.73.41-.92V27h-.22c-.14-.03-.46 0-.58.41a1.2 1.2 0 0 1-.14-.59c0-.36.31-.82.77-.82H5v-.5c0-1.03 1.1-1.34 1.62-1.37a.7.7 0 0 0-.32.54Zm5.2 1.32a.5.5 0 0 0 .5-.5.5.5 0 0 0-.5-.49.5.5 0 0 0-.5.54 2.79 2.79 0 0 0 .97 1.96c-.72.24-1.39.77-1.39 1.8.01.36.28 1.2 1.25 1.68l1.23-.95 1.15.95 1.17-1.16-.14-.1-.26.3-.68-.43v-3.46l.29-.18-1.48-.92-.52.56a5.9 5.9 0 0 1-.32.3.93.93 0 0 1-.52.19.7.7 0 0 1-.34-.08h.09Zm1.5 1.33c-.26 0-.57.04-.87.13a2.62 2.62 0 0 1-.94-1.45c.11.11.29.2.56.2a1.07 1.07 0 0 0 .65-.24l.6.45v.9Zm-1.08 1.64c0-.75.26-1.37 1.08-1.47v2.35l-.43.35a1.52 1.52 0 0 1-.65-1.23Zm10.1-3.46a.5.5 0 0 1-.5.5h-.08c.08.04.2.08.34.08a.93.93 0 0 0 .57-.22l.26-.27.53-.56 1.48.92-.32.18v3.46l.71.44.26-.3.14.09-1.17 1.16-1.17-.94-1.21.94c-.6-.3-.92-.72-1.1-1.09L19.75 31l-1.24-1.03.2-.21V23c-.02-.15-.1-.5-.25-.67l.07-.07c.13.11.4.4.4.69.09-.27.49-.83 1.43-.96a1.4 1.4 0 0 0-.35.87v6.65l.5.39.19-.23a1.4 1.4 0 0 1-.08-.38c0-1.03.67-1.56 1.39-1.8a2.79 2.79 0 0 1-.97-2c0-.28.22-.5.5-.5.27 0 .5.22.5.5Zm.14 1.95c.29-.08.58-.12.84-.13v-.91l-.57-.45-.05.04c-.17.12-.37.2-.6.2a.74.74 0 0 1-.56-.2 2.67 2.67 0 0 0 .94 1.45Zm.84.04c-.8.11-1.05.73-1.05 1.47 0 .65.43 1.09.65 1.23l.4-.33V27.5Zm-7.18 2.48.18-.21V23c-.02-.15-.08-.5-.23-.67l.06-.07c.14.11.42.4.42.69.08-.27.48-.83 1.42-.96-.11.12-.37.47-.37.87v6.65l.52.39.33-.4.14.16L17.06 31l-1.24-1.03ZM27.84 25c-.42.47-1.23.76-1.79.97l-.35.13v1.54l1.35.62-1.26 1.92h.01c-.28.24-.44.55-.44.9 0 .66.6.88.91.92l.16-.19c-.57-.03-.83-.32-.83-.72 0-.4.3-.63 1.08-.63.63 0 1.04.4 1.16.54a6.07 6.07 0 0 1 1.46-1.15v-2.4l-1.17-.6.59-.88a3 3 0 0 0 .94-1.55c0-.47-.27-.46-.4-.4.06.06.18.21.18.4 0 .23-.2.94-.78.94-.47 0-.74-.23-.82-.36Zm.61 1.12-.76 1.17-.69-.41v-1.05c.26.27.75.38.97.4.17 0 .34-.05.48-.11ZM26.07 30l1.4-2.15.53.36v1.74a1.3 1.3 0 0 0-.7-.24c-.47 0-.9.1-1.23.29Zm4.95-6.74c-.4 0-.5.41-.5.62-.1-.08-.28-.35-.28-.75 0-.5.45-1.13 1.3-1.13.7 0 1.2.47 1.37.7l1.35 2.13a2.7 2.7 0 0 0 1.72.14H36V23.6c-.64-.05-1.1-.3-1.32-.47l-.43.43-.1-.1.86-.86.5-.61.07.05c.26.2.77.56 1.14.56.4 0 .77-.14.9-.2-.08.45-.4 1.2-1.41 1.2h-.01v1.27l.11.07a.33.33 0 0 1-.1.08h-.01v5.45h-.25l-2.2-3.52a3.6 3.6 0 0 0-.83-.14c-.37 0-.75.15-.92.23v1.83c.75.02 1.28.26 1.57.54l.24-.24.1-.1.04-.03.05.05.05.05-.03.03-.1.1a112.21 112.21 0 0 0-.97.95l-.12.14c-.15-.1-.6-.27-1.18-.27-.73 0-1 .36-1 .84s.45.93 1 .93c.43 0 .6-.13.62-.2l.06.08c-.06.09-.28.25-.68.25-.5 0-1.65-.14-1.65-1.38 0-1.18.97-1.69 1.8-1.74v-2.34c-.32 0-.8.07-.91.43a.85.85 0 0 1-.2-.55c0-.36.3-.86.83-.86h.28v-1.7l-.16-.23c-.27-.4-.53-.41-.62-.37ZM36 27.55l-1.61-2.52a3 3 0 0 0 1.61.08v2.44Zm-4-.65c.2-.09.56-.21.92-.21.22 0 .49.05.73.1L32 24.18v2.72Zm5-.52c.64-.33 2-1.06 2.31-1.38l1.02 1.84-1.02.75-1.01.77v1.1l1.15.65.59-.54.09.1-1.4 1.3-.04.03-1.85-1.01.16-.2v-3.41Zm1.3 1.8.95-.71-.95-1.64v2.36Zm4.24-4c-.17-.04-.52-.03-.52.37 0 .22.19.34.4.48.27.18.58.38.58.85v3.6l.7.64.3-.23v-3.6l-.58-.38.93-.91.95.75v3.68l.61.68.09-.08V26.3l-.55-.38.93-.91 1.23.91-.31.38v3.06l-2.1 1.61-1.18-.91-1.22.95-1.48-1.22.38-.3v-3.24c-.02-.09-.23-.34-.45-.57C41 25.4 41 25.09 41 25v-.02c0-.04.05-.99 1.33-.99.08 0 .23.05.2.18Zm7.64.82c-.41.46-1.23.76-1.8.96l-.38.14v1.54l1.39.62-1.27 1.92h.02c-.28.24-.44.55-.44.9 0 .66.6.88.9.92l.17-.19c-.58-.03-.83-.32-.83-.72 0-.4.29-.63 1.07-.63.63 0 1.04.4 1.17.54a6.07 6.07 0 0 1 1.46-1.15v-2.4l-1.17-.6.58-.88c.55-.4.85-1.17.95-1.55 0-.47-.27-.46-.4-.4.05.06.18.21.18.4 0 .23-.2.94-.78.94-.47 0-.74-.23-.82-.36Zm.61 1.12-.77 1.17-.68-.41v-1.05c.26.27.75.38.97.4.17 0 .33-.05.48-.11ZM48.4 30l1.41-2.15.53.36v1.74a1.3 1.3 0 0 0-.7-.24c-.48 0-.9.1-1.24.29Z"/></svg>