<!-- by TradingView --><svg xmlns="http://www.w3.org/2000/svg" width="56" height="56" viewBox="0 0 56 56"><path fill="url(#avhvmtuzm)" d="M0 0h56v56H0z"/><path fill-rule="evenodd" d="M14.75 20.34L37.95 16l2.9 20.72L18.64 40l-3.9-19.66zm2.69 1.78L36 18.64l2.23 16.09-17.7 2.68-3.1-15.29z"/><path d="M19.1 35.9c7.04-1.17 9.61-4.24 9.07-7.4-.55-3.17-4.02-5.23-11.04-4.07-7.02 1.16-9.6 4.23-9.06 7.4a4.61 4.61 0 0 0 2.37 3.26l.3 3.29c0 .17.09.6.3.64.22.02.46-.2.56-.32l2.2-2.58c1.48.17 3.25.12 5.3-.22z"/><path d="M46.87 29.03a4.55 4.55 0 0 0 1.06-3.8c-.55-3.17-4.02-5.23-11.04-4.07-7.01 1.16-9.6 4.23-9.06 7.4.55 3.16 4.17 5.2 11.04 4.06 2.15-.35 3.88-.88 5.23-1.54l2.83 1.72c.13.08.43.22.62.12.2-.09.14-.53.09-.7l-.77-3.2z"/><path d="M25.97 28.87c.33 1.93-1.74 3.88-7.2 4.78-5.34.89-8.08-.27-8.42-2.2-.33-1.93 1.76-3.88 7.21-4.79 5.46-.9 8.08.28 8.41 2.2zM45.74 25.6c.33 1.92-1.75 3.88-7.21 4.78-5.34.89-8.08-.27-8.41-2.2-.33-1.93 1.75-3.88 7.2-4.79 5.46-.9 8.08.28 8.42 2.2z" fill="#fff"/><ellipse cx="18.77" cy="29.94" rx="2.35" ry="2.3"/><ellipse cx="37.43" cy="26.86" rx="2.35" ry="2.3"/><defs><linearGradient id="avhvmtuzm" x1="28" y1="0" x2="28" y2="56" gradientUnits="userSpaceOnUse"><stop stop-color="#F7A201"/><stop offset="1" stop-color="#F2BE2C"/></linearGradient></defs></svg>