<!-- by TradingView --><svg xmlns="http://www.w3.org/2000/svg" width="56" height="56" viewBox="0 0 56 56"><path fill="#18D961" d="M0 0h56v56H0z"/><path fill-rule="evenodd" d="M5 23.96C5 22.88 5.88 22 6.96 22H10a6 6 0 0 1 0 12H6.96A1.96 1.96 0 0 1 5 32.04v-8.08zM8.5 25h1.1a3 3 0 1 1 0 6H8.5v-6zM19 22.4c-1.5.37-1.56 1.5-1.4 2.02.3 1 1.4 1.04 2.1.87.57-.13 1.62-.27 2.07-.29 2.01 0 2.26 1.3 2.13 1.9a7.05 7.05 0 0 0-2.63-.38c-2.13.1-4.73.98-4.69 3.7.05 2.73 2.26 3.81 4.31 3.78a4.74 4.74 0 0 0 3.2-1.24c.33.97 1.35 1.27 1.83 1.24a1.75 1.75 0 0 0 1.66-1.75V26.4c-.1-3.62-3.5-4.4-5.3-4.4-.68 0-1.79.03-3.28.4zm5.08 7.3v-.64c-.06-.08-.55-.32-1.95-.32-1.54 0-1.88.62-1.98.96-.19.62-.07 1.71 1.68 1.64 1.75-.06 2.23-1.12 2.25-1.64zm14.58-7.54c.88.4 1.26 1.43.86 2.3l-3.94 8.47a1.75 1.75 0 0 1-.99.91c-.88.4-1.92.01-2.32-.86l-3.94-8.47c-.4-.87-.02-1.9.85-2.3.88-.4 1.92-.01 2.32.86l2.41 5.17 2.43-5.22a1.76 1.76 0 0 1 2.32-.86zM40 28.17c.21-5.1 3.84-6.24 5.63-6.17 3.51 0 5.39 3.49 5.37 5.36-.01 1.5-1.25 1.63-1.87 1.64h-5.8c.23 1.23 1.7 2.03 2.82 2 .9-.03 1.68-.4 1.95-.64.3-.16 1.02-.32 1.5.15.48.48.52.86.52 1.14-.36 1.86-3.26 2.4-4.5 2.35-5.24-.2-5.64-5.4-5.62-5.83zm5.6-3.31c1.57 0 2 1.46 2.02 2.14h-4.15c.05-.72.48-2.14 2.13-2.14z" fill="#fff"/></svg>