<!-- by TradingView --><svg width="56" height="56" viewBox="0 0 56 56" xmlns="http://www.w3.org/2000/svg"><path fill="#F0F3FA" d="M0 0h56v56H0z"/><path d="M42.53 20.56c0 .01.01.01 0 0 .13.02.24-.04.28-.17l1.1-4a.22.22 0 0 0-.19-.28l-.65-.1a.24.24 0 0 0-.27.2l-.47 4.12c0 .1.07.22.2.23ZM40.17 20.75c.12-.04.18-.16.16-.27l-1.16-3.99a.24.24 0 0 0-.3-.15l-.63.2a.23.23 0 0 0-.14.3l1.77 3.8c.05.1.18.15.3.11ZM38.22 22.03c.08-.1.08-.22-.01-.31l-3.1-2.92a.25.25 0 0 0-.34.02l-.43.47c-.1.1-.07.25.03.33l3.51 2.44c.12.08.26.07.34-.03ZM37.2 24.07a.23.23 0 0 0-.17-.26l-4.2-1.05c-.13-.03-.27.05-.3.18l-.11.62c-.03.12.07.25.2.27l4.33.44c.12 0 .23-.09.25-.2ZM45.2 27.69c-.09.1-.09.22 0 .3l3.1 2.92c.09.09.25.09.35-.01l.42-.48c.1-.1.07-.24-.03-.32l-3.51-2.45c-.12-.07-.26-.06-.34.04 0-.01 0 0 0 0ZM46.21 25.64c-.02.12.05.23.18.27l4.2 1.04c.13.04.27-.04.3-.18l.1-.62c.03-.12-.06-.24-.2-.26l-4.32-.45c-.13 0-.23.08-.26.2ZM46.02 23.4c.04.12.16.17.29.14l4.19-1.1c.13-.03.2-.17.16-.29l-.22-.59c-.05-.12-.18-.18-.31-.13l-3.98 1.68c-.12.04-.17.16-.13.29ZM44.67 21.54c.1.08.25.08.33-.01l3.05-2.95c.1-.09.1-.24 0-.32l-.52-.41a.24.24 0 0 0-.33.03l-2.57 3.35c-.07.1-.05.23.04.3Z" fill="#FFB600"/><path d="m44.92 27.23-.87-.6-.14.16.76.72c.05.04.14.04.19-.01l.04-.05c.02 0 .03-.03.04-.04.04-.06.03-.15-.02-.18Z" fill="#FF9015"/><path d="M48.39 27.43 44.45 26a.33.33 0 0 1-.04.08l-.05.1 3.67 1.98c.12.07.27.03.33-.09l.08-.16.08-.17c.06-.11-.01-.25-.13-.3Z" fill="#FFB600"/><path d="m45.74 25.39-1.07-.12-.03.2 1.04.26c.07.02.14-.02.15-.09l.01-.05.01-.06c0-.08-.04-.14-.11-.14Z" fill="#FF9015"/><path d="M49.13 24.29a.93.93 0 0 0-.02-.18c-.01-.13-.14-.21-.27-.2l-4.17.62.01.2 4.22-.02c.14 0 .24-.11.23-.24v-.18Z" fill="#FFB600"/><path d="m45.68 23.57-.02-.05-.03-.06c-.02-.06-.1-.1-.17-.06l-.98.4.06.2 1.05-.27c.08-.02.11-.09.09-.16Z" fill="#FF9015"/><path d="m47.95 20.98-.1-.15a.72.72 0 0 0-.12-.15.25.25 0 0 0-.34-.04l-3.27 2.52.11.17 3.64-2.04c.11-.06.15-.2.08-.3Z" fill="#FFB600"/><path d="m43.72 22.75.76-.73a.12.12 0 0 0-.02-.18c0-.01-.03-.02-.04-.05l-.05-.03a.13.13 0 0 0-.18.02l-.64.83.17.14Z" fill="#FF9015"/><path d="M45.08 18.53a1.2 1.2 0 0 0-.18-.08l-.17-.08a.24.24 0 0 0-.31.12l-1.52 3.75.1.04.09.05 2.08-3.5a.22.22 0 0 0-.1-.3Z" fill="#FFB600"/><path d="m42.36 22.07.26-.99c.03-.06-.02-.13-.1-.14l-.06-.01-.06-.01c-.07-.01-.14.03-.15.1l-.11 1.02.22.03Z" fill="#FF9015"/><path d="m41.36 22.03.2-.01-.02-4.02a.23.23 0 0 0-.24-.22l-.2.01c-.07 0-.12.01-.18.03a.24.24 0 0 0-.2.25l.64 3.96Z" fill="#FFB600"/><path d="m40.6 22.2.2-.06-.29-.99a.13.13 0 0 0-.16-.08l-.06.02-.05.03c-.07.02-.1.1-.07.15l.44.94Z" fill="#FF9015"/><path d="M40.1 22.46 37.97 19a.24.24 0 0 0-.33-.07l-.16.1a.74.74 0 0 0-.15.1.22.22 0 0 0-.05.33l2.65 3.12.17-.1Z" fill="#FFB600"/><path d="m39.5 22.93-.76-.72c-.04-.05-.14-.05-.18 0l-.05.05-.03.05c-.05.05-.04.13.02.17l.87.6.14-.15ZM38.79 24.24l-1.04-.26a.12.12 0 0 0-.16.1v.05l-.02.05c-.01.07.04.14.12.14l1.06.11.04-.19Z" fill="#FF9015"/><path d="m39 23.64.05-.09-3.67-1.99a.24.24 0 0 0-.32.09c-.04.06-.06.11-.08.17l-.08.16c-.06.12 0 .26.12.3l3.94 1.45.05-.09Z" fill="#FFB600"/><path d="M5.07 31.92a.27.27 0 0 1-.07-.2v-6.45c0-.09.02-.15.07-.2.04-.05.1-.07.18-.07h1.5a3.13 3.13 0 0 1 2.83 1.69c.28.53.42 1.12.42 1.8 0 .68-.14 1.28-.42 1.81A3.15 3.15 0 0 1 6.75 32h-1.5a.29.29 0 0 1-.18-.08Zm1.68-.4a2.65 2.65 0 0 0 2.4-1.47c.23-.46.34-.99.34-1.56 0-.57-.1-1.09-.35-1.54a2.73 2.73 0 0 0-.98-1.08 2.56 2.56 0 0 0-1.41-.38H5.5v6.02h1.25ZM14.78 27.33c.38.21.68.52.9.9.21.38.32.8.32 1.28v2.22c0 .08-.02.15-.07.2a.26.26 0 0 1-.2.07.27.27 0 0 1-.19-.07.26.26 0 0 1-.07-.2v-.76c-.2.32-.47.57-.81.75a2.56 2.56 0 0 1-2.43-.05 2.36 2.36 0 0 1-.9-.9c-.22-.38-.33-.8-.33-1.26 0-.48.1-.9.33-1.29.21-.38.52-.68.9-.9.38-.21.8-.32 1.28-.32.46 0 .88.1 1.27.33Zm-.28 3.9c.3-.16.53-.4.7-.7.17-.31.26-.65.26-1.02 0-.38-.09-.72-.26-1.02a1.9 1.9 0 0 0-1.7-.98 1.9 1.9 0 0 0-1.7.98c-.18.3-.27.64-.27 1.02 0 .37.09.71.26 1.01a1.9 1.9 0 0 0 1.7.97c.38.01.72-.08 1-.25ZM21.5 27.24a.4.4 0 0 1-.04.12l-2.9 6.48c-.06.11-.13.16-.2.16l-.13-.02c-.1-.05-.16-.12-.16-.2a.4.4 0 0 1 .03-.13l.87-1.93-.03-.06-1.9-4.27a.33.33 0 0 1-.04-.15c0-.08.05-.16.15-.2a.3.3 0 0 1 .14-.04c.09 0 .16.05.2.16l1.77 3.95 1.77-3.94c.05-.11.12-.16.2-.16l.12.03c.1.04.15.12.15.2ZM25.72 31.54A3.5 3.5 0 0 1 24 28.5a3.49 3.49 0 0 1 1.72-3.04A3.5 3.5 0 0 1 27.5 25a3.49 3.49 0 0 1 3.03 1.72c.3.53.46 1.12.46 1.77a3.5 3.5 0 0 1-1.72 3.05 3.6 3.6 0 0 1-3.56 0Zm3.3-.45a2.8 2.8 0 0 0 1.07-1.07 3 3 0 0 0 .39-1.53c0-.55-.13-1.05-.4-1.51a2.8 2.8 0 0 0-1.06-1.07c-.45-.26-.96-.39-1.51-.39-.56 0-1.07.13-1.53.4a2.8 2.8 0 0 0-1.07 1.06c-.26.45-.39.96-.39 1.51 0 .56.13 1.07.4 1.53.25.45.6.82 1.06 1.07a3 3 0 0 0 1.53.39c.55 0 1.06-.13 1.51-.4ZM35.03 27.27c.3.18.54.44.71.8.17.33.26.75.26 1.23v2.43a.3.3 0 0 1-.06.2.21.21 0 0 1-.18.07.23.23 0 0 1-.17-.07.28.28 0 0 1-.06-.2V29.3c0-.57-.14-1-.44-1.3-.28-.3-.65-.45-1.1-.45-.29 0-.55.06-.77.18-.23.12-.41.3-.55.51-.13.22-.2.47-.2.72v2.76a.3.3 0 0 1-.06.2.21.21 0 0 1-.17.07.23.23 0 0 1-.18-.08.28.28 0 0 1-.06-.2v-4.38c0-.09.02-.15.06-.2.05-.04.1-.07.18-.07.07 0 .13.03.17.07.04.05.06.11.06.2v.46a1.86 1.86 0 0 1 1.51-.79c.4 0 .75.1 1.05.27ZM40.8 27.3c.38.2.67.5.88.86.21.36.32.61.32 1.09 0 .07-.03.13-.08.18a.3.3 0 0 1-.21.07h-4.1c.01.36.12.83.3 1.11.2.28.43.5.73.66.31.16.65.23 1.04.23a2.42 2.42 0 0 0 1.38-.44.34.34 0 0 1 .21-.07c.07 0 .13.01.17.05.07.05.1.12.1.2a.2.2 0 0 1-.08.16 3.14 3.14 0 0 1-1.79.6 3 3 0 0 1-1.38-.32c-.4-.2-.72-.5-.95-.88a2.49 2.49 0 0 1-.34-1.3c0-.48.1-.9.32-1.3.21-.37.5-.68.89-.88.38-.21.82-.32 1.31-.32.5-.01.91.09 1.29.3Zm-2.55.66c-.35.32-.56.53-.63 1.04h3.81c-.04-.51-.24-.73-.58-1.04a1.86 1.86 0 0 0-1.32-.46c-.5-.01-.94.15-1.28.46Z" fill="#1B538C"/></svg>