<!-- by TradingView --><svg xmlns="http://www.w3.org/2000/svg" width="56" height="56" viewBox="0 0 56 56"><path fill="#0068D9" d="M0 0h56v56H0z"/><path d="M12 32V21H9.5v4a2.5 2.5 0 0 0-2.04-1C5.61 24 3.98 25.66 4 28.17 4 30.5 5.47 32 7.3 32c1 0 1.95-.43 2.42-1.25h.05l.1 1.25H12zm-3-5.7c.42.32.52.74.5 1.23v.98c0 .92-.46 1.5-1.42 1.49-1 0-1.65-.64-1.65-1.9 0-1.18.56-2.1 1.66-2.1.34 0 .66.09.92.3zm7.46 5.7c2.05 0 4.04-1.28 4.04-4.08 0-2.31-1.57-3.92-3.9-3.92-2.47 0-4.1 1.6-4.1 4.06 0 2.47 1.72 3.94 3.96 3.94zm.04-1.5c-1.02 0-1.5-1.19-1.5-2.5 0-1.13.37-2.5 1.5-2.5 1.08 0 1.5 1.38 1.5 2.5 0 1.4-.56 2.5-1.5 2.5zm10.68 1.14c-.42.2-1.22.36-2.12.36-2.48 0-4.06-1.52-4.06-3.92 0-2.24 1.53-4.08 4.39-4.08.62 0 1.23.1 1.81.3l-.38 1.77a3.25 3.25 0 0 0-1.33-.24c-1.25 0-2.06.9-2.05 2.15 0 1.4.94 2.15 2.1 2.15.47.01.93-.07 1.36-.25l.28 1.76zm4.58-1.4c-1.07 0-2.02-.48-2.08-1.47v-.27h4.74l.04-.18c.03-.17.04-.25.04-.5 0-1.89-.9-3.82-3.28-3.82-2.56 0-3.72 2.15-3.72 4.1 0 2.4 1.43 3.9 3.93 3.9 1 0 1.91-.16 2.66-.49l-.3-1.61c-.65.23-1.34.34-2.03.33zm-.68-4.66c1.06 0 1.3.84 1.3 1.42h-2.71c.06-.63.45-1.42 1.41-1.42zM35 21h2.5v4.25c.64-.66 1.43-1.25 2.33-1.25 1.84 0 3.19 1.68 3.17 3.97 0 2.69-1.75 4.03-3.52 4.03-.9 0-1.78-.32-2.32-1.2h-.03l-.1 1.2H35V21zm2.46 7.66c0 .14.02.28.05.41.15.62.75.92 1.4.93 1.03 0 1.66-.6 1.66-1.94 0-1.16-.54-2.06-1.66-2.06a1.5 1.5 0 0 0-.9.33c-.26.2-.43.49-.5.8-.03.14-.05.29-.05.43v1.1zM47.96 32C50 32 52 30.72 52 27.92c0-2.31-1.57-3.92-3.9-3.92-2.47 0-4.1 1.6-4.1 4.06 0 2.47 1.72 3.94 3.96 3.94zm.06-1.7c-1.01 0-1.52-.99-1.52-2.3 0-1.13.4-2.3 1.52-2.3 1.08 0 1.48 1.18 1.48 2.3 0 1.4-.54 2.3-1.48 2.3z" fill="#fff"/></svg>