<!-- by TradingView --><svg width="56" height="56" viewBox="0 0 56 56" xmlns="http://www.w3.org/2000/svg"><path fill="#F0F3FA" d="M0 0h56v56H0z"/><path fill-rule="evenodd" d="m7 28 .25-5h3.5c.63.03 1.89.56 1.89 2.46 0 2.37-2.39 2.54-2.99 2.54H7Zm1.76-1 .12-3h1.04c.34 0 1.02.27 1.02 1.29 0 1.28-.88 1.71-1.2 1.71h-.98Zm5.88-.75h2.89c.12-.75-.1-2.25-2.03-2.25a2.17 2.17 0 0 0-2.36 2.25c.01.58.5 1.75 2.36 1.75.38 0 1.22-.04 1.51-.16l.15-1.13c-.18.12-.71.35-1.37.35-.82 0-1.15-.54-1.15-.81Zm.13-.73h1.28c0-.21-.13-.65-.57-.65-.44 0-.66.44-.71.65Zm9.3-1.3.07 1-.17-.04c-.25-.07-.6-.18-.89-.18-.45 0-1.08.4-1.08 1.09 0 .68.7.91 1 .91.18 0 .53-.12.8-.22l.27-.08-.24 1.1c-.17.06-.66.2-1.23.2-.7 0-2.05-.23-2.05-1.91 0-1.69 1.3-2.09 2.45-2.09.22 0 .75.04 1.07.23ZM18.43 23l-.33 5h1.6l.3-5h-1.57Zm6.9 1.25-.16.96c.28-.13.98-.4 1.5-.4.5 0 .68.24.71.38-.24.14-.73.36-1.6.56-1.45.33-1.22 1.21-1.17 1.38.05.17.33.87 1.63.87.46 0 .82-.12 1.09-.27V28h1.5c.03-.7.1-2.33.1-2.88 0-.69-.58-1.12-1.55-1.12-.77 0-1.68.17-2.04.25Zm1.24 2.25c.3-.09.58-.22.8-.33l-.02.73c-.17.12-.41.23-.7.23-.56 0-.7-.44-.08-.63Zm3.64-1.5-.14 2.05c-.03.32.2.95 1.37.95.25 0 .8-.03 1.07-.14l.19-1.13c-.05.07-.21.2-.5.2-.34 0-.53-.03-.53-.56l.05-1.37h.98v-1h-.93l.06-1-1.51.34-.05.66h-.62l-.08 1h.64Zm3.3-2-.23 4.99h1.52l.1-1.78c.17-.52.49-1 .92-1 .42 0 .62.44.66.66L36.32 28h1.56l.12-2.63c0-1.18-1.01-1.4-1.52-1.37-.81 0-1.25.28-1.48.6l.1-1.6h-1.6Z" fill="#002D62"/><path d="M50.83 29H52v1h-1.17c-.21.3-.62.5-1.08.5-.46 0-.87-.2-1.08-.5h-1.05v-1h1.05c.21-.3.62-.5 1.08-.5.46 0 .87.2 1.08.5Z" fill="url(#anh5sohkx)"/><path fill-rule="evenodd" d="M43.76 35c2.13 0 3.86-2.46 3.86-5.5S45.89 24 43.76 24s-3.85 2.46-3.85 5.5 1.72 5.5 3.85 5.5Zm-.01-1c1.52 0 2.75-2.01 2.75-4.5S45.27 25 43.75 25 41 27.01 41 29.5s1.23 4.5 2.75 4.5Zm0-1c1.24 0 2.25-1.57 2.25-3.5S45 26 43.75 26c-1.24 0-2.25 1.57-2.25 3.5s1 3.5 2.25 3.5Zm0-1c.69 0 1.25-1.12 1.25-2.5s-.56-2.5-1.25-2.5-1.25 1.12-1.25 2.5.56 2.5 1.25 2.5Zm.01-1.51c.4 0 .72-.42.72-.95 0-.52-.32-.94-.72-.94-.4 0-.72.42-.72.94 0 .53.32.95.72.95Z" fill="#A4AECA"/><path d="M39.33 29h3.95c.3 0 .53.22.53.5s-.24.5-.53.5h-3.95c-.21.3-.62.5-1.08.5-.46 0-.87-.2-1.08-.5H6v-1h31.17c.21-.3.62-.5 1.08-.5.46 0 .87.2 1.08.5Z" fill="url(#bnh5sohkx)"/><path opacity=".4" d="M28 31H7v2h21v-2Zm11 0h-9v2h9v-2Z" fill="#002D62"/><defs><linearGradient id="anh5sohkx" x1="49.81" y1="28.6" x2="49.81" y2="30.47" gradientUnits="userSpaceOnUse"><stop offset=".25" stop-color="#A1ACC8"/><stop offset=".47" stop-color="#F1F4F7"/><stop offset=".85" stop-color="#8E9BBD"/></linearGradient><linearGradient id="bnh5sohkx" x1="24.91" y1="28.6" x2="24.91" y2="30.47" gradientUnits="userSpaceOnUse"><stop offset=".28" stop-color="#9FAAC7"/><stop offset=".51" stop-color="#F3F5F8"/><stop offset=".73" stop-color="#9FAAC7"/></linearGradient></defs></svg>