<!-- by TradingView --><svg width="56" height="56" viewBox="0 0 56 56" xmlns="http://www.w3.org/2000/svg"><path fill="#F0F3FA" d="M0 0h56v56H0z"/><path d="m28.03 14 13.52 6.35-.27.55-13.25-6.22L14.4 21.1l-.26-.55L28.03 14Zm16.92 8.64.27-.55 3.25 1.53c1.24.5 2.73 1.62 3.3 3.1.28.75.33 1.6-.01 2.48a6.32 6.32 0 0 1-2.25 2.67l-.02.01-6.85 3.75H13.41l-6.56-3.47a5.96 5.96 0 0 1-2.67-3.06 4.46 4.46 0 0 1 2.02-4.96l3.57-1.56.25.57-3.49 1.52a3.8 3.8 0 0 0-1.76 4.24 5.35 5.35 0 0 0 2.39 2.71l6.4 3.38h28.92l6.67-3.63a5.7 5.7 0 0 0 2.03-2.39c.29-.73.25-1.42 0-2.04a5.44 5.44 0 0 0-2.95-2.75l-3.28-1.55ZM34.03 40H22.06L28 43l6.04-3Z" fill="#030067"/><path fill-rule="evenodd" d="M10.35 19a.6.6 0 0 0-.6.6v5.8c0 .33.27.6.6.6h1.56c1.91 0 3.46-1.57 3.46-3.5S13.82 19 11.9 19h-1.56Zm1.5 1.42h-.66v4.23h.67a2.1 2.1 0 0 0 2.09-2.12 2.1 2.1 0 0 0-2.1-2.11Z" fill="#030067"/><path d="M10.47 19.72v5.24c0 .13-.1.24-.23.24a.24.24 0 0 1-.24-.24v-5.32c0-.22.18-.4.4-.4h1.26c.5.01 1.25.19 1.86.7.62.51 1.08 1.35 1 2.63-.06 1.3-.67 2.03-1.43 2.4-.73.34-1.57.34-2.12.23a.24.24 0 0 1 .1-.48c.48.1 1.2.1 1.82-.2.6-.28 1.1-.85 1.16-1.97.06-1.14-.33-1.83-.83-2.24a2.65 2.65 0 0 0-1.57-.6h-1.18Z" fill="#E6C97B"/><path fill-rule="evenodd" d="M14.12 27a.6.6 0 0 0-.61.6v5.8c0 .33.27.6.6.6h1.62a3.53 3.53 0 0 0 3.55-3.5c0-1.93-1.59-3.5-3.55-3.5h-1.61Zm1.55 1.42H15v4.23h.67c1.2 0 2.15-.95 2.15-2.12 0-1.17-.96-2.11-2.15-2.11Z" fill="#030067"/><path d="M14.3 27.72v5.24c0 .13-.1.24-.24.24a.24.24 0 0 1-.25-.24v-5.32c0-.22.18-.4.4-.4h1.31c.52.01 1.3.19 1.92.7.63.51 1.1 1.35 1.03 2.63-.07 1.3-.7 2.03-1.47 2.39-.76.35-1.62.34-2.19.23a.24.24 0 0 1-.19-.28.24.24 0 0 1 .29-.19c.5.1 1.25.1 1.88-.2.6-.28 1.13-.85 1.2-1.97.06-1.14-.35-1.83-.86-2.24a2.77 2.77 0 0 0-1.62-.6h-1.2Z" fill="#E6C97B"/><path fill-rule="evenodd" d="M19.48 26a3.52 3.52 0 0 0 3.54-3.5c0-1.93-1.59-3.5-3.54-3.5a3.52 3.52 0 0 0-3.54 3.5c0 1.93 1.58 3.5 3.54 3.5Zm0-1.44c1.15 0 2.08-.92 2.08-2.06 0-1.14-.93-2.06-2.08-2.06s-2.09.92-2.09 2.06c0 1.14.94 2.06 2.09 2.06Z" fill="#030067"/><path d="M19.26 19.69a2.6 2.6 0 0 0-2.6 2.58 2.6 2.6 0 0 0 2.6 2.58c.77 0 1.3-.22 1.76-.72.09-.1.24-.1.33-.01.1.09.1.23.02.33-.57.6-1.23.86-2.11.86a3.06 3.06 0 0 1-3.07-3.04 3.06 3.06 0 0 1 3.07-3.04c1.7 0 3.08 1.36 3.08 3.04 0 .65-.12 1.1-.5 1.6a.24.24 0 0 1-.32.06.23.23 0 0 1-.05-.33 2 2 0 0 0 .4-1.33 2.6 2.6 0 0 0-2.61-2.58Z" fill="#E6C97B"/><path fill-rule="evenodd" d="M23.26 34a3.5 3.5 0 1 0 0-7 3.5 3.5 0 0 0 0 7Zm0-1.44a2.06 2.06 0 1 0 0-4.12 2.06 2.06 0 0 0 0 4.12Z" fill="#030067"/><path d="M23.04 27.69a2.58 2.58 0 1 0 0 5.16c.76 0 1.28-.22 1.74-.72a.23.23 0 0 1 .34.32c-.56.6-1.2.86-2.08.86a3.04 3.04 0 1 1 3.04-3.04c0 .65-.11 1.1-.48 1.6a.23.23 0 0 1-.38-.27c.3-.41.4-.76.4-1.33a2.58 2.58 0 0 0-2.58-2.58Z" fill="#E6C97B"/><path d="M24.68 19a.7.7 0 0 1 .69.7v3.48c0 .78.6 1.4 1.36 1.4.75 0 1.27-.62 1.27-1.4v-3.47c0-.4.4-.71.77-.71a.7.7 0 0 1 .69.7v3.48A2.77 2.77 0 0 1 26.73 26 2.77 2.77 0 0 1 24 23.18v-3.47c0-.4.3-.71.68-.71Z" fill="#030067"/><path d="M24.49 19.22c.13 0 .23.1.23.23v3.57c0 1.02.82 1.84 1.82 1.84s1.82-.82 1.82-1.84v-3.57c0-.13.1-.23.23-.23s.24.1.24.23v3.57a2.3 2.3 0 0 1-2.29 2.31 2.3 2.3 0 0 1-2.28-2.31v-3.57c0-.13.1-.23.23-.23Z" fill="#E6C97B"/><path d="M37.01 34c.4 0 .71-.31.71-.7v-3.46c0-.77.63-1.4 1.41-1.4.78 0 1.41.63 1.41 1.4v3.46c0 .39.32.7.71.7.4 0 .75-.31.75-.7v-3.46a2.85 2.85 0 0 0-5.7 0v3.46c0 .39.32.7.71.7Z" fill="#030067"/><path d="M36.8 33.28c.13 0 .2-.1.2-.23V29.5c0-1.02.87-1.84 1.9-1.84 1.01 0 1.84.82 1.84 1.84v3.55c0 .12.11.23.24.23s.24-.1.24-.23V29.5c0-1.28-1.04-2.3-2.33-2.3a2.32 2.32 0 0 0-2.33 2.3v3.55c0 .12.11.23.24.23Z" fill="#E6C97B"/><path fill-rule="evenodd" d="M30.41 19.6c0-.33.27-.6.6-.6h2.05c1 0 1.8.82 1.8 1.83 0 .55-.24 1.05-.63 1.39.67.31 1.14 1 1.14 1.8 0 1.1-.87 1.98-1.95 1.98h-2.41a.6.6 0 0 1-.6-.6v-5.8Zm1.59.84h.72c.34 0 .62.29.62.64 0 .35-.28.64-.62.64H32v-1.28ZM32 23h.97c.4 0 .71.44.71.84 0 .4-.32.72-.71.72H32V23Z" fill="#030067"/><path d="M32.9 19.72a3.07 3.07 0 0 0-1.44-.09.24.24 0 0 1-.28-.18v5.47a.24.24 0 1 1-.47 0V19.4c0-.14.1-.24.23-.24.12 0 .22.09.24.2.01-.1.09-.18.19-.2.44-.09 1.1-.09 1.67.1.57.19 1.1.6 1.13 1.36.01.38-.08.7-.26.96-.17.25-.41.42-.67.53-.5.23-1.1.25-1.48.2a.24.24 0 0 1-.21-.27.24.24 0 0 1 .26-.2c.34.03.84.01 1.24-.17.2-.08.36-.2.47-.37.11-.16.18-.37.18-.67-.02-.47-.33-.75-.8-.91Zm.5 2.5c.08-.11.23-.13.34-.05.13.1.34.25.5.5.17.24.29.57.29 1.02 0 .34-.06.84-.51 1.2s-1.21.54-2.5.41a.24.24 0 0 1-.22-.26.24.24 0 0 1 .26-.21c1.25.12 1.87-.07 2.16-.3.29-.24.34-.55.34-.84 0-.35-.1-.59-.21-.75a1.59 1.59 0 0 0-.4-.39.24.24 0 0 1-.04-.33Z" fill="#E6C97B"/><path d="M37.02 19c.34 0 .62.29.62.65v5.06h1.96c.35 0 .62.29.62.64 0 .36-.27.65-.62.65h-2.42a.8.8 0 0 1-.78-.8v-5.55c0-.36.28-.65.62-.65Z" fill="#030067"/><path d="M36.78 19.15c.13 0 .23.1.23.24V25c0 .14-.1.25-.23.25a.24.24 0 0 1-.23-.24v-5.6c0-.14.1-.25.23-.25Zm.29 5.85c0-.14.1-.24.23-.24h1.9c.13 0 .23.1.23.24 0 .13-.1.24-.23.24h-1.9a.24.24 0 0 1-.23-.24Z" fill="#E6C97B"/><path d="M41 19.81c0-.45.36-.81.81-.81h3.53a.65.65 0 0 1 0 1.3H42.3V22h3.04c.36 0 .65.3.65.67 0 .36-.29.65-.65.65H42.3v1.38h3.04a.65.65 0 0 1 0 1.3h-3.53a.81.81 0 0 1-.81-.81V19.8Z" fill="#030067"/><path d="M41.55 19.18c.13 0 .24.11.24.25v5.33h2.95a.24.24 0 0 1 0 .49H41.7a.4.4 0 0 1-.4-.41v-5.41c0-.14.1-.25.24-.25Zm.27.25c0-.14.11-.25.25-.25h2.82a.24.24 0 0 1 0 .49h-2.82a.24.24 0 0 1-.25-.24Zm0 2.93c0-.13.11-.24.25-.24h2.29a.24.24 0 0 1 0 .49h-2.3a.24.24 0 0 1-.24-.25Z" fill="#E6C97B"/><path d="M27.75 27.03c.32-.11.68.07.79.4l1.42 4.27 1.06-3.33a.77.77 0 0 1 1.47 0l1.05 3.3 1.35-4.23c.1-.34.46-.52.78-.4.32.1.5.46.4.8l-1.8 5.6a.77.77 0 0 1-1.47 0l-1.05-3.29-1.05 3.3a.77.77 0 0 1-1.46.01l-1.87-5.61a.64.64 0 0 1 .38-.82Z" fill="#030067"/><path d="M27.74 27.33c.12-.04.25.03.3.15l1.75 5.1 1.06-3.1a.23.23 0 0 1 .3-.14c.12.06.17.2.12.32l-1.14 3.3a.38.38 0 0 1-.72-.03l-1.82-5.3a.24.24 0 0 1 .15-.3Zm7.48.1c.12.05.18.19.14.31l-1.6 5.1a.38.38 0 0 1-.72.01L31.3 28.5a.24.24 0 0 1 .13-.31c.12-.05.26.01.3.13l1.66 4.17 1.53-4.9c.04-.12.17-.18.3-.14Z" fill="#E6C97B"/><path d="M14.33 39V36.5h.5v2.48h-.5ZM15.94 39V36.5h.42l1.28 1.79h-.2V36.5h.5v2.48h-.42l-1.28-1.79h.2V39h-.5ZM19.5 39v-2.02h-.7v-.47h1.89v.47h-.7v2.01h-.5ZM22.02 37.51h1.05v.45h-1.05v-.45Zm.04 1.02h1.18V39h-1.68v-2.48h1.64v.46h-1.14v1.56ZM24.24 39V36.5h.94c.2 0 .36.04.5.11s.25.17.33.3c.07.14.11.3.11.49 0 .18-.04.34-.11.48a.76.76 0 0 1-.33.3c-.14.07-.3.11-.5.11h-.66l.22-.25v.94h-.5Zm1.38 0-.54-.9h.53l.55.9h-.54Zm-.88-.89-.22-.27h.63c.16 0 .27-.04.35-.11a.44.44 0 0 0 .11-.32.43.43 0 0 0-.11-.32c-.08-.07-.2-.11-.35-.11h-.63l.22-.28v1.41ZM26.84 39l.96-2.49h.5l.97 2.48h-.53l-.8-2.19h.2l-.79 2.2h-.51Zm.48-.54.13-.44h1.12l.13.44h-1.38ZM31.1 39.03c-.17 0-.32-.03-.47-.09a1.11 1.11 0 0 1-.37-.27c-.1-.11-.19-.25-.25-.4a1.47 1.47 0 0 1-.08-.52 1.28 1.28 0 0 1 .33-.92 1.13 1.13 0 0 1 .84-.36c.2 0 .36.04.51.11a1 1 0 0 1 .38.33l-.32.34a.75.75 0 0 0-.24-.22.67.67 0 0 0-.58-.02.63.63 0 0 0-.22.17.78.78 0 0 0-.15.25 1 1 0 0 0-.04.32 1 1 0 0 0 .04.32c.04.1.09.18.15.25a.63.63 0 0 0 .5.22.63.63 0 0 0 .54-.29l.32.34c-.1.14-.23.25-.38.33-.15.08-.32.11-.51.11ZM33.36 39v-2.02h-.69v-.47h1.89v.47h-.7v2.01h-.5ZM35.43 39V36.5h.5v2.48h-.5ZM37.7 39l-.94-2.49h.54l.81 2.2h-.31l.83-2.2h.5l-.94 2.48h-.5ZM40.37 37.51h1.04v.45h-1.04v-.45Zm.04 1.02h1.18V39H39.9v-2.48h1.63v.46h-1.13v1.56Z" fill="#030067"/></svg>