<!-- by TradingView --><svg width="56" height="56" viewBox="0 0 56 56" xmlns="http://www.w3.org/2000/svg"><path fill="#F0F3FA" d="M0 0h56v56H0z"/><path d="M5.46 27.11v-3.92h.7c1.1 0 2.11.4 2.11 1.96s-1.02 1.96-2.1 1.96h-.71Zm3.72 2.01a2.75 2.75 0 0 0-2.2-1.85c1.5-.11 2.68-.61 2.68-2.12 0-1.77-1.63-2.15-3.48-2.15H4v8h1.55c-.07-.8-.1-1.23-.1-2.06V27.3h.29c.99 0 1.48.29 2.03 1.89.5 1.48 1.47 1.81 3.26 1.81v-.17c-.91 0-1.35-.43-1.85-1.71ZM13.43 26.18c.8 0 1.15.67 1.15 1.6h-2.51c.14-1.06.64-1.6 1.36-1.6Zm.5 4.51c-1.28 0-1.91-1.05-1.91-2.28 0-.15 0-.3.04-.45h3.78c-.01-1.03-.88-1.96-2.39-1.96-1.42 0-2.73.92-2.73 2.5 0 1.6 1.28 2.5 2.83 2.5 1.4 0 2.18-.76 2.54-1.96h-.17c-.35 1.1-1.08 1.65-2 1.65ZM22.07 23.2H20.7c-.48-.15-1.3-.2-1.86-.2-1.23 0-1.84.59-1.84 2.82v.52h-.95v.18H17V29c0 .64 0 1.06-.1 2.01h1.39c-.1-.95-.1-1.37-.1-2.01v-2.47h1.28v-.18H18.2l-.01-.48c-.62-1.85-.4-2.67.46-2.67.62 0 1.2.54 1.65.77.18.09.34.08.47 0 .03.45.03.82.03 1.24V29c0 .64 0 1.17-.1 2.01h1.37c-.09-.84-.07-1.37-.07-2.01V25.2c0-.64-.02-1.17.07-2ZM25.3 26.18c.8 0 1.15.67 1.15 1.6h-2.51c.15-1.06.64-1.6 1.36-1.6Zm.5 4.51c-1.27 0-1.91-1.05-1.91-2.28 0-.15 0-.3.04-.45h3.78c-.01-1.03-.88-1.96-2.39-1.96-1.42 0-2.73.92-2.73 2.5 0 1.6 1.28 2.5 2.83 2.5 1.4 0 2.18-.76 2.54-1.96h-.17c-.35 1.1-1.08 1.65-2 1.65ZM31.68 30.65c-1.25 0-1.74-1.06-1.74-2.28 0-1.4.43-2.19 1.44-2.19.83 0 1.02.57 1.1.96.1.55.71.66 1.01.24-.22-.7-.93-1.38-2.17-1.38-1.52 0-2.68.9-2.68 2.5 0 1.61 1.16 2.5 2.63 2.5 1.48 0 2.13-.95 2.46-2h-.16c-.3.98-.92 1.65-1.89 1.65ZM43.43 30.82c-1.11 0-1.68-.85-1.68-2.32 0-1.46.57-2.32 1.68-2.32 1.11 0 1.68.86 1.68 2.32 0 1.47-.57 2.32-1.68 2.32Zm0-4.82c-1.72 0-2.98.95-2.98 2.5S41.7 31 43.43 31s2.99-.95 2.99-2.5-1.27-2.5-2.99-2.5ZM50.62 31H52v-3.05c0-1.4-.66-1.95-1.66-1.95-1 0-1.78.63-2.14 1.29.01-.33.03-.67.08-1.09H46.9c.1.81.1 1.32.1 1.98v.85c0 .66 0 1.16-.1 1.97h1.38c-.09-.81-.09-1.3-.09-1.97v-1.41c.34-.69 1.01-1.3 1.71-1.3.57 0 .82.43.82 1.24v1.41c0 .66 0 1.06-.1 2.03ZM39.26 24h-1c0 .67.28 1.37.96 1.66l.96.01v-.01c-.95 0-.92-.78-.92-1.66ZM36.4 24h-1.03c0 1.13.05 2.13-1.3 2.13h-.14v.2H35v2.8c0 .56 0 1-.1 1.87h1.38c-.09-.99-.09-1.42-.09-2.1v-2.57h1.06v-.2h-1.98c.96-.36 1.12-1.27 1.12-2.13ZM39.56 26h-1.38c.1.85.1 1.37.1 2.06v.89c0 .69 0 1.2-.1 2.05h1.38c-.1-.85-.1-1.36-.1-2.05v-.89c0-.69 0-1.21.1-2.06Z" fill="#2E4A5A"/></svg>