<!-- by TradingView --><svg xmlns="http://www.w3.org/2000/svg" width="56" height="56" viewBox="0 0 56 56"><path fill="#F0F3FA" d="M0 0h56v56H0z"/><path fill="#A2A300" d="M7 31h42v1H7z"/><path fill-rule="evenodd" d="M7 19h42v12H7V19zm4.54 3H11v5.61c0 1-.74 1.06-1.1.97l.1.42c1.33.07 1.58-.9 1.54-1.39V22zm7.27 3c0 1.66-1.36 3-3.04 3a3.02 3.02 0 0 1-3.04-3c0-1.66 1.36-3 3.04-3a3.02 3.02 0 0 1 3.04 3zm-.47 0a2.56 2.56 0 1 1-5.13 0 2.56 2.56 0 0 1 5.13 0zm-2.6-1.92l-.21 1.46-.77-.56.6.78-1.55.2 1.55.22-.6.74.77-.56.22 1.5.21-1.5.73.56-.54-.74 1.5-.22-1.5-.2.58-.78-.77.6-.21-1.5zm.06 1.77l-.05-.24-.05.24-.2-.13.12.2-.23.05.23.06-.12.2.2-.13.05.23.05-.23.2.13-.12-.2.23-.06-.23-.05.13-.2-.2.13zM20 22h.5v3.52a2 2 0 1 0 4 0V22h.5v3.5a2.5 2.5 0 0 1-5 0V22zm8.47 0h-2v6H27v-2.87h.87c.25 0 .77.13 1.12.66l1.48 2.2h.58l-1.49-2.26c-.12-.18-.4-.55-.68-.73a1.53 1.53 0 0 0-.41-3zm-.13.42H27v2.26h1.34a1.13 1.13 0 1 0 0-2.26zM31.78 28v-6h.52l4.42 5.18V22h.51v6h-.51l-4.42-5.2V28h-.52zm6.82-6h-.32v6H41.59v-.39h-2.8V25.2h2.8v-.38h-2.8v-2.42h2.8V22H38.6zm3.35 0l2.34 2.75V28h.53v-3.25L47.2 22h-.68l-1.98 2.33L42.6 22h-.64z" fill="#7F7569"/><path d="M7 32h42v5H7v-5z" fill="#8E9FA6"/><path fill="#D7D7D7" d="M10 34h36v1H10z"/></svg>