<!-- by TradingView --><svg width="56" height="56" viewBox="0 0 56 56" xmlns="http://www.w3.org/2000/svg"><path fill="#F0F3FA" d="M0 0h56v56H0z"/><path d="M22 13c0-.54.26-.99.67-1a.8.8 0 0 1 .4.12l21 11.73c.57.32.93.92.93 1.57v2.57L26 17c-.62-.33-1-.19-1 .5v14.1l-2.8 1.37c-.24.12-.2-.2-.2-.47V13Zm-5 2.55c0-.68.4-1.3 1.03-1.61L20 12.8V35.5c0 .68.38.82 1 .5l13-7 2.86 1.4c.28.12.3.5.03.65l-18.5 10.02c-.62.34-1.39-.1-1.39-.79V15.55ZM39 31.5a.89.89 0 0 0 .02-1.55L27 23v-2.5c0-.28.75-.64 1-.5l15.9 9.16a1.78 1.78 0 0 1 0 3.12L23.47 43.76c-.54.3-1.2.32-1.77.05L19 42.5l20-11Z" fill="#AF2719"/></svg>