<!-- by TradingView --><svg width="56" height="56" viewBox="0 0 56 56" xmlns="http://www.w3.org/2000/svg"><path fill="#B4293B" d="M0 0h56v56H0z"/><path d="M14.26 18h26.4a13.59 13.59 0 0 0-11.23-1.36h-6.34l-1.3.36h-6.47l-1.06 1ZM42.2 18.6c.65.5 1.68 1.55 2.11 2H10.66l.48-.68h6.14l.58-.68h6.63l.86-.64H42.2ZM46.42 23.19a8.73 8.73 0 0 0-1.34-1.95H22.23l-.67.58h-6.24l-.53.69H9.03l-.48.68h37.87ZM47.82 26c-.23-.74-.74-1.64-.96-2h-26.7l-.38.6h-5.95l-.43.64H7.3l-.34.76h40.86ZM48.63 28.46a4.47 4.47 0 0 0-.62-1.86H19.25l-.33.64h-6.24l-.3.39h-5.9c-.23.15-.32.62-.33.83h42.48ZM48.73 31c.23-.67.1-1.52 0-1.86H18.52v.63h-6.47v.46H6l.1.77h42.63ZM48.7 33.4c.27-.53.31-1.3.3-1.63H18.67V32h-6.42v.66H6.24l.12.73H48.7ZM48.3 36c.25-.56.35-1.37.36-1.7H18.84v.33H12.8v.46H7.02l.37.91h40.9Z" fill="#fff"/></svg>