<!-- by TradingView --><svg width="56" height="56" viewBox="0 0 56 56" xmlns="http://www.w3.org/2000/svg"><path fill="#F0F3FA" d="M0 0h56v56H0z"/><path d="M19 35h2V22h-2v13ZM26 30.9c0 1.24.85 2.1 2.55 2.1.66 0 1.95 0 2.45-.5V29h2v5.43c-1.36.38-2.97.57-4.33.57-3.16 0-4.67-1.3-4.67-3.8v-5.4c0-2.59 1.55-3.8 4.9-3.8 1.05 0 2.55.11 3.71.42l-.27 1.92a17.57 17.57 0 0 0-3.63-.34c-1.7 0-2.71.84-2.71 2.13v4.78ZM36 35h2V22h-2v13Z" fill="#454849"/><path d="M42 31v-9h9l-9 9Z" fill="#7CBB60"/><path d="M11.76 22H7v2h4.51c1.63 0 2.49.83 2.49 2.08v4.84c0 1.25-.86 2.08-2.49 2.08H9v-7.6l-2 2.45V35h4.76C14.9 35 16 33.36 16 31.5v-6c0-1.88-1.1-3.5-4.24-3.5Z" fill="#454849"/></svg>