<!-- by TradingView --><svg width="56" height="56" viewBox="0 0 56 56" xmlns="http://www.w3.org/2000/svg"><path fill="#F0F3FA" d="M0 0h56v56H0z"/><path d="M28.01 11c3.4 0 6 2.61 6 6L34 19 32 20v-3c0-2.3-1.7-4-4-4s-4 1.7-4 4v7h-6.94a4.4 4.4 0 0 0-4.05 4.91c.1 1.04 1.38 3.09 4 3.09 1.34 0 3.32-.73 5.37-1.77 2-1.01 3.91-2.23 5.04-3.04a43.6 43.6 0 0 1 5.3-3.2C34.8 22.93 37.15 22 39 22a5.61 5.61 0 0 1 4.82 2.36A6.65 6.65 0 0 1 45 28c0 .94-.3 2.28-1.2 3.48a6.62 6.62 0 0 1-4.67 2.51h-.02l-12 1c-1.97.27-3.1 2.14-3.1 4.01 0 2.3 1.7 4 4 4s4-1.7 4-4h2c0 3.39-2.6 6-6 6a5.9 5.9 0 0 1-6-6c0-2.87 1.9-5.62 4.88-6h.02l11.99-1a4.63 4.63 0 0 0 3.3-1.73c.6-.8.8-1.7.8-2.27 0-.58-.2-1.62-.81-2.49C41.6 24.7 40.66 24 39 24c-1.34 0-3.31.73-5.37 1.77-2 1.01-3.9 2.23-5.04 3.04a43.6 43.6 0 0 1-5.3 3.2C21.23 33.07 18.88 34 17.02 34c-3.77 0-5.81-2.95-6-4.91A6.42 6.42 0 0 1 16.94 22h5.09v-5c0-3.39 2.6-6 6-6Z" fill="#142B5E"/></svg>