<!-- by TradingView --><svg width="56" height="56" viewBox="0 0 56 56" xmlns="http://www.w3.org/2000/svg"><path fill="#0A1C2A" d="M0 0h56v56H0z"/><path fill-rule="evenodd" d="M4 22.34c0-.19.15-.34.34-.34H6.5a3.5 3.5 0 1 1 0 7H4.34a.34.34 0 0 1-.34-.34v-6.32ZM5 28v-5h1.66C7.96 23 9 24.12 9 25.5S7.95 28 6.66 28H5Zm41-5.66c0-.19.15-.34.34-.34h2.15a3.5 3.5 0 1 1 0 7h-2.15a.34.34 0 0 1-.34-.34v-6.32Zm1 .66h1.66c1.3 0 2.34 1.12 2.34 2.5S49.95 28 48.66 28H47v-5Zm-35.67-1a.34.34 0 0 0-.33.34v6.32c0 .19.15.34.33.34h.34c.18 0 .33-.15.33-.34v-6.32a.34.34 0 0 0-.33-.34h-.34Zm2.38 6.76 2.9-6.59c.04-.1.14-.17.25-.17.11 0 .21.07.26.17l2.93 6.59c.05.11-.03.24-.15.24h-.8a.16.16 0 0 1-.15-.1l-.39-.9h-3.42l-.4.9a.16.16 0 0 1-.14.1h-.74c-.12 0-.2-.13-.15-.24ZM15.57 27h2.55l-1.28-2.93L15.57 27ZM21 28.8l1.29-6.6c.02-.11.13-.2.26-.2.1 0 .2.06.25.16l2.14 5.06 2.18-5.03a.32.32 0 0 1 .29-.19c.15 0 .28.1.31.24L29 28.8c.02.1-.07.2-.18.2h-.74a.17.17 0 0 1-.17-.14l-.84-4.25-1.61 4.1A.49.49 0 0 1 25 29a.49.49 0 0 1-.45-.28l-1.82-4.11-.71 4.25a.17.17 0 0 1-.18.14h-.66c-.11 0-.2-.1-.18-.2Zm12.5.2a3.5 3.5 0 1 0 0-7 3.5 3.5 0 0 0 0 7Zm0-1a2.5 2.5 0 1 0 0-5 2.5 2.5 0 0 0 0 5Zm4.67 1a.17.17 0 0 1-.17-.17v-6.66c0-.1.08-.17.17-.17h.2c.05 0 .1.02.13.06L43 26.9v-4.74c0-.1.04-.17.13-.17h.7c.1 0 .17.07.17.17v6.66c0 .1-.08.17-.17.17h-.48a.18.18 0 0 1-.13-.06L39 24.2v4.64c0 .1-.04.17-.13.17h-.7Z" fill="#FAFDFB"/><path d="M23.33 31a.34.34 0 0 0-.33.34V34h-4v-2.66a.34.34 0 0 0-.33-.34h-.34a.34.34 0 0 0-.33.34v6.32c0 .19.15.34.33.34h.34c.18 0 .33-.15.33-.34V35h4v2.66c0 .19.15.34.33.34h.34c.18 0 .33-.15.33-.34v-6.32a.34.34 0 0 0-.33-.34h-.34Zm3 0a.34.34 0 0 0-.33.34v6.32c0 .19.15.34.33.34h.34c.18 0 .33-.15.33-.34v-6.32a.34.34 0 0 0-.33-.34h-.34ZM29 37.83v-6.66c0-.1 0-.17.1-.17h.72c.1 0 .18.08.18.17V37h2.84c.09 0 .16.1.16.19v.64c0 .1-.07.17-.16.17H29.1c-.1 0-.1-.08-.1-.17Zm5-6.66v6.66c0 .1 0 .17.1.17h3.73c.1 0 .17-.08.17-.17v-.64c0-.1-.07-.19-.17-.19H35v-5.83c0-.1-.09-.17-.18-.17h-.72c-.1 0-.1.08-.1.17Z" fill="#FAFDFB"/></svg>