<!-- by TradingView --><svg width="56" height="56" viewBox="0 0 56 56" xmlns="http://www.w3.org/2000/svg"><path fill="url(#ajfdlpkac)" d="M0 0h56v56H0z"/><path d="M17.05 14 17 13h9.45C32.36 13 43 14.15 43 27.42 43 40.35 33.55 43 26.45 43H17v-1h9.45C30 42 39 41.27 39 27.42 39 16.35 30.83 13.81 26.5 14h-9.45Z" fill="#fff"/><path d="M24 36.49V16c-1.8 1.4-5.5 2.15-7 2.34v.59c3.15 0 3 1.56 3 2.34v15.22c0 1.87-1.06 3.12-2 3.51h8c-1.35-.47-2-1.76-2-3.51ZM28 32h-1l3-4v3h3.5l-.5 1h-3v5.6c0 .4.07 1.4 1 1.4.93 0 2.42-1 3-1.4-.58.8-2.1 2.4-3.5 2.4-2 0-2.5-1.5-2.5-2.4V32ZM33 19v-2a3.9 3.9 0 0 0-2.82-1c-1.27 0-3.18.61-3.18 2.44 0 1.84 1.9 3.06 3.18 3.67 1.14.55 1.91 1.22 1.91 1.83 0 1.23-.82 2.06-2.09 2.06-1.5 0-2.5-1.5-3-2.5v2c.21.4.96 1.5 3 1.5 2.55 0 4-1.83 4-3.06 0-1.22-.64-2.44-3.18-3.66-1.44-.7-1.91-1.43-1.91-1.84 0-.4.25-1.44 1.27-1.44s2.4 1.39 2.82 2Z" fill="#fff"/><defs><linearGradient id="ajfdlpkac" x1="10.42" y1="9.71" x2="68.15" y2="76.02" gradientUnits="userSpaceOnUse"><stop stop-color="#1A1E21"/><stop offset="1" stop-color="#06060A"/></linearGradient></defs></svg>