<!-- by TradingView --><svg width="56" height="56" xmlns="http://www.w3.org/2000/svg"><path fill="#005A9C" d="M0 0h56v56H0z"/><path d="M44.725 31.486c.74.355 1.393.514 2.57.514.907 0 1.705-.335 1.705-.837 0-1.808-5-.652-5-4.163 0-2.34 2.521-3 4.639-3 1.008 0 2.218.177 2.958.39l-.79 1.981c-.772-.248-1.126-.371-1.933-.371-.706 0-1.874.233-1.874.801 0 1.56 5 .532 5 4.008C52 33.325 49.68 34 47.294 34c-1.008 0-2.218-.142-3.193-.425M40 32v-2h4v-2h-4v-2h4v-2h-7v3.212C36.29 24.73 33.65 24 30.546 24H27v2l3 3v-3h.614c2.09 0 3.386.993 3.386 3 0 1.97-1.228 3-3.386 3H30v-3l-3 3v2h3.546c3.036 0 5.745-.912 6.454-3.358V34h7v-2" fill="#fff"/><path d="M20 29.3c.067 1.485.478 2.7 2 2.7s1.899-1.215 2-2.7h3.376c-.135 2.898-1.99 4.7-5.364 4.7-2.8 0-4.54-1.343-5.012-3.463V34h-3v-3.463C13.292 32.94 10.949 34 7.913 34H4v-4.7h3V32h.98c2.024 0 2.919-.968 3.02-2.7M20 28.7c.067-1.52.572-2.7 2-2.7 1.427 0 1.899 1.18 2 2.7h3.376c-.135-2.933-1.956-4.7-5.363-4.7-2.834 0-4.406 1.237-5.013 3.286V24h-3v3.322C13.325 24.919 10.983 24 7.88 24H4v4.7h3V26h.98c1.957 0 2.885.968 3.02 2.7" fill="#fff"/></svg>