<!-- by TradingView --><svg width="56" height="56" viewBox="0 0 56 56" xmlns="http://www.w3.org/2000/svg"><path fill="#F0F3FA" d="M0 0h56v56H0z"/><path fill-rule="evenodd" d="M5 32h2.55c2.63 0 3.95-2.07 3.95-4.52 0-2.36-1.27-4.48-3.83-4.48H5v9Zm2.49-1H6v-7h1.6c2.04 0 2.9 1.63 2.9 3.48 0 1.93-.92 3.52-3.01 3.52Zm5.48-6.72c.15.15.32.22.53.22.2 0 .38-.07.53-.22a.72.72 0 0 0 .22-.53c0-.2-.07-.38-.22-.53a.72.72 0 0 0-.53-.22c-.2 0-.38.07-.53.22a.72.72 0 0 0-.22.53c0 .2.07.38.22.53ZM25.29 26v-1H24v-2h-1v2h-1v1h1v4.35c0 .37.04.68.21.93.18.24.4.42.66.54a1.95 1.95 0 0 0 1.26.14l.27-.08-.2-.88-.16.04-.27.01c-.14 0-.27-.02-.4-.06a.62.62 0 0 1-.32-.28c-.06-.1-.06-.26-.05-.45V26h1.29ZM34 29.45V32h-1v-9h1v5.26h.09L36.86 25h1.21l-2.69 3.12L38.27 32h-1.24l-2.37-3.2-.66.65ZM42.18 32c-2 0-3.18-1.57-3.18-3.47C39 26.7 40.11 25 42.07 25 44 25 45 26.6 45 28.39V29h-4.94c.12 1.14.86 2 2.12 2 .74 0 1.43-.27 1.7-1l1.01.29c-.36 1.17-1.56 1.71-2.71 1.71Zm1.75-4h-3.88c.04-1.11.87-2.07 2.02-2.07 1.12 0 1.86.98 1.86 2.07Zm3.07-.16V32h-1.02v-7H47v1.17A1.92 1.92 0 0 1 48.85 25c1.5 0 2.15 1.26 2.15 2.6V32h-1v-4.32c0-.9-.45-1.68-1.43-1.68-1.06 0-1.57.87-1.57 1.84ZM29 32c-1.94 0-3-1.7-3-3.5 0-1.79 1.05-3.5 3-3.5s3 1.72 3 3.5c0 1.8-1.06 3.5-3 3.5Zm0-1c1.4 0 2-1.27 2-2.5 0-1.21-.6-2.5-2-2.5s-2 1.29-2 2.5c0 1.23.6 2.5 2 2.5Zm-8.52-4.4-.88.27c-.06-.16-.14-.3-.24-.46a1.2 1.2 0 0 0-.43-.37c-.18-.1-.42-.14-.7-.14-.39 0-.71.1-.97.29a.86.86 0 0 0-.39.71c0 .26.1.47.27.62.18.15.45.27.82.37l.95.25c.56.15.99.37 1.26.67.28.3.42.69.42 1.16 0 .39-.1.74-.31 1.04-.21.3-.5.55-.87.73a3 3 0 0 1-1.3.26 2.7 2.7 0 0 1-1.6-.45 2 2 0 0 1-.8-1.31l.92-.25c.09.36.25.64.5.82.24.18.57.27.97.27.45 0 .81-.1 1.08-.3.27-.21.4-.46.4-.75a.81.81 0 0 0-.23-.6 1.44 1.44 0 0 0-.7-.36l-1.06-.26a2.5 2.5 0 0 1-1.28-.68c-.27-.32-.4-.7-.4-1.17 0-.38.1-.72.3-1.02.2-.3.47-.52.82-.69.35-.17.75-.25 1.2-.25.63 0 1.12.15 1.48.44.36.3.61.68.77 1.16ZM13 32v-7h1v7h-1Z"/></svg>