<!-- by TradingView --><svg xmlns="http://www.w3.org/2000/svg" width="56" height="56"><path fill="url(#acxetxr4v)" d="M0 0h56v56H0z"/><path fill-rule="evenodd" d="M51.59 23v6.2c0 .11.1.32.41.33V30h-2.15v-.47c.15-.02.45-.12.45-.32v-5.26h-.45v-.38a10.4 10.4 0 001.74-.57zm-32.85 6.21v-6.18c-.55.25-1.39.48-1.74.57v.37h.45v5.24c0 .2-.3.3-.45.32V30h2.15v-.47c-.3 0-.4-.22-.41-.32zM4 23.5h3.31c.8-.01 2.38.62 2.42 3.2.03 2.6-1.6 3.28-2.42 3.3H4v-.41h.26c.16 0 .38-.06.38-.35v-4.87c0-.16-.08-.36-.38-.37H4v-.5zm2 .6c.77-.15 2.3.18 2.24 2.73C8.17 30 6.27 29.57 6 29.13V24.1zm4.35 3.17a.67.67 0 010-.74c.26-.4.92-1.04 1.78-1.03.72.01 1.27.3 1.3 1.22v2.4c.01.1.1.25.36.06l.21.3c-.16.16-.58.48-1 .52-.53.04-.86-.41-.87-.51 0-.03-.05 0-.12.06-.18.15-.55.45-1.06.45-.73 0-.95-.58-.95-1.08 0-.43.26-1.16 2.13-1.65v-.88c-.01-.11-.1-.35-.38-.36-.27 0-.43.24-.48.36v.39c-.07.12-.36.4-.92.5zm1.8.48v1.2a.52.52 0 01-.44.24c-.24 0-.35-.2-.38-.31v-.32c0-.18.14-.6.81-.81zm33.82-1.22a.67.67 0 000 .74c.56-.1.85-.37.92-.5v-.38c.05-.12.21-.37.48-.36.28.01.37.25.38.36v.88c-1.87.49-2.13 1.22-2.13 1.65 0 .5.22 1.08.95 1.08.51 0 .88-.3 1.06-.45.07-.06.12-.1.12-.06.01.1.34.55.87.5.42-.03.84-.35 1-.5l-.21-.3c-.27.18-.35.03-.36-.07v-2.4c-.03-.91-.58-1.2-1.3-1.22-.86-.01-1.52.63-1.78 1.03zm1.8 2.42v-1.2c-.68.2-.83.63-.82.81v.32c.03.1.14.31.38.31.23 0 .38-.16.43-.24zM16 24.25c0 .42-.28.75-.64.75-.35 0-.63-.33-.63-.75 0-.41.28-.75.63-.75.36 0 .64.34.64.75zm0 1.25v3.74c.01.1.11.3.41.3V30h-2.15v-.45c.15-.03.45-.12.45-.31v-2.82h-.45v-.37c.35-.08 1.19-.3 1.74-.55zm5.24 0h-2.07v.5h.2l1.58 4.2-.46.58c-.81 0-.99.32-1 .52-.01.2.07.7.68.7.5 0 .86-.7 1.07-1.22L22.98 26h.24v-.5h-1.3v.5h.36l-.65 2.52a12.25 12.25 0 01-.68-2.52h.29v-.5zM26 23h2.63v.5h-.23c-.12 0-.37.1-.4.46v4.51c0 1.52-1.22 3.53-2.64 3.53a.78.78 0 01-.7-.37l.7-1.06.57.42c.23.11.67.07.7-1v-6.03c-.02-.15-.1-.46-.4-.46H26V23zm4.71 7c1.1 0 1.98-1 1.98-2.25 0-1.24-.89-2.25-1.98-2.25-1.09 0-1.97 1-1.97 2.25 0 1.24.88 2.25 1.97 2.25zm0-.48c.39 0 .7-.8.7-1.79 0-.98-.31-1.78-.7-1.78-.38 0-.7.8-.7 1.78 0 .99.32 1.79.7 1.79zm3.82-4.02v3.33c0 .25.35.62.91.09v-2.7c-.02-.07-.09-.2-.22-.2h-.16v-.4l1.67-.12v3.42c0 .1.07.32.28.3h.15v.37c-.3.05-1.05.21-1.66.41l-.06-.6c-.16.2-.65.6-1.27.6-.78 0-.93-.66-.93-1.08V26.3c0-.1-.07-.29-.26-.29h-.14v-.4l1.7-.12zm8.18 1.12c.56-.55.99-.17.99.08v2.7s0 .2-.16.2h-.07v.4h1.93v-.4h-.15c-.2 0-.25-.5-.26-.6v-1.6l.01-.78c0-.44-.16-1.12-.94-1.12-.62 0-1.18.42-1.35.62l-.06-.62c-.6.2-1.35.37-1.65.43v.36h.14c.22 0 .28.22.29.33v2.77s0 .2-.17.2H41V30h2.09v-.4h-.15c-.14 0-.21-.14-.23-.2v-2.78zm-5.09-.52c.4-.13 1.26-.44 1.57-.6v.94h.15c.04-.3.29-.89.94-.87.42 0 .57.34.57.67 0 .25-.2.63-.57.63a.74.74 0 01-.54-.22c-.12.05-.38.22-.55.51v2.11c0 .1.11.29.55.29V30h-2.12v-.44c.18 0 .51-.06.5-.29v-2.62c-.04-.07-.19-.21-.5-.21v-.34z" fill="#fff"/><defs><linearGradient id="acxetxr4v" x1="10.42" y1="9.71" x2="68.15" y2="76.02" gradientUnits="userSpaceOnUse"><stop stop-color="#1A1E21"/><stop offset="1" stop-color="#06060A"/></linearGradient></defs></svg>