<!-- by TradingView --><svg xmlns="http://www.w3.org/2000/svg" width="56" height="56" viewBox="0 0 56 56"><path fill="#F0F3FA" d="M0 0h56v56H0z"/><path d="M22 20H6v7h1.32a3 3 0 0 1 .76.1l-.04-.1h.43l.11.28a3 3 0 0 1 .43.24L8.82 27h.43l.4 1.1c.42.52.67 1.18.67 1.9v.82l.37 1.13L11.9 27h1.12l1.23 4.85L15.43 27h.42l-1.6 6.42-1.54-6.04h-.49l-1.48 6.04-.52-1.63c-.06.2-.14.4-.23.58l.41 1.23h.68l1.38-5.21 1.44 5.2h.71L16.26 27h1.84l.63 1.89a3.29 3.29 0 0 1 1.63-1.62c.63-.27 1.24-.3 1.64-.26V20zm0 7.42c-.34-.04-.9-.03-1.48.22-.6.26-1.2.78-1.6 1.8l.3.87c.03-.36.12-.71.27-1.04A2.48 2.48 0 0 1 22 27.8v-.38zm0 .78a2.41 2.41 0 0 0-1.37.33c-.36.22-.61.54-.78.91a2.97 2.97 0 0 0-.05 2.28c.24.56.65.87 1.08 1.03.42.15.85.16 1.12.13V28.2zm0 5.08c-.33.04-.8.01-1.26-.16-.25-.1-.5-.23-.72-.42l.2.58c.58.3 1.34.36 1.78.3v-.3zm0 .7c-.42.05-1.05 0-1.62-.2l.08.22h-.41l-2.24-6.6h-1.24l-.97 3.9 1.33-3.3h.58l1.28 3.77h-3.3l-.12.46h3.48l.69 1.77h-.45l-.52-1.37h-2.96l-.5 1.37H13.6l-1.13-4.08L11.38 34h-1.26l-.4-1.2a3 3 0 0 1-2.4 1.2H6v2h16v-2.02zM6 33.6h1.32a2.6 2.6 0 0 0 2.6-2.6v-1a2.6 2.6 0 0 0-2.6-2.6H6v.38h1.03a2.5 2.5 0 0 1 2.5 2.5v.44a2.5 2.5 0 0 1-2.5 2.5H6v.38zm0-.78h1.03a2.1 2.1 0 0 0 2.1-2.1v-.44a2.1 2.1 0 0 0-2.1-2.1H6v4.64zm11.2-4.41L16 31.37h2.24l-1.01-2.96h-.03z" fill="#0E3487"/><path fill-rule="evenodd" d="M23 20v4h1.05c1.04-.01 1.7-.86 1.7-1.88v-.25c0-1-.66-1.87-1.68-1.87H23zm.5 3.58v-3.16c.98 0 1.75.28 1.75 1.46v.23c0 1.17-.77 1.47-1.75 1.47zm2.83.42h.5v-4h-.5v4zm4.01-.56c-.13.18-.3.33-.54.42-.23.1-.5.14-.8.14-.31 0-.59-.07-.83-.22a1.5 1.5 0 0 1-.56-.64c-.13-.27-.2-.6-.2-.95v-.34c0-.59.14-1.04.4-1.37.27-.32.65-.48 1.13-.48.4 0 .71.1.96.31.24.21.39.5.44.89h-.5c-.1-.52-.4-.78-.9-.78-.33 0-.59.12-.76.37a1.8 1.8 0 0 0-.26 1.04v.32c0 .44.1.79.29 1.05.2.25.46.38.79.38.19 0 .35-.02.5-.06a.76.76 0 0 0 .34-.22v-.87H29V22h1.34v1.44zM31 24h.5v-4H31v4zm3.72-3.58H33.5V24H33v-3.58h-1.22V20h2.94v.42zM35.4 23H37l.35 1h.52l-1.46-4h-.43l-1.45 4h.51l.36-1zm1.44-.44h-1.29l.65-1.87.64 1.87zm1.83 1.02h1.8V24h-2.3v-4h.5v3.58zm-5.46 2.53h-1V28h-.5v-4h1.44c.73 0 1.2.37 1.2 1.17a.8.8 0 0 1-.42.66l.03.03c.08.1.36.4.36.97v.8s0 .26.12.37h-.65v-.93s0-.5-.12-.7c-.12-.21-.25-.26-.25-.26h-.2zm-1-.46h.74c.44 0 .9-.1.9-.55 0-.5-.37-.67-.83-.68h-.8v1.23zM25.02 24l-1.03 3.29L23.3 24h-.5l.91 4h.45l-1.45 4h.52l.35-1h1.6l.36 1h.51l-1.45-4h-.43l1.09-3.34L26.42 28h.45l.92-4h-.5l-.67 3.3-1.08-3.3H25zm5.83 3.13c.13-.29.2-.62.2-1v-.25c0-.38-.07-.71-.2-1-.12-.28-.3-.5-.53-.65-.23-.15-.5-.23-.8-.23a1.42 1.42 0 0 0-1.34.89c-.13.29-.2.62-.2 1v.27c.01.37.08.7.2.97.13.28.31.5.54.65.23.15.5.22.8.22.3 0 .57-.07.8-.22.23-.15.41-.37.53-.65zm-.58-2.31c.18.24.27.6.27 1.06v.28c0 .45-.1.8-.27 1.04a.88.88 0 0 1-.75.36.89.89 0 0 1-.76-.38 1.8 1.8 0 0 1-.27-1.05v-.29c0-.44.1-.78.27-1.02a.88.88 0 0 1 .75-.38c.33 0 .58.13.76.38zm6.84 2.76h-1.8V24h-.5v4h.35v2.7a.9.9 0 0 1-.23.65c-.15.15-.37.23-.65.23s-.5-.08-.65-.23a.9.9 0 0 1-.23-.66V28h-.5v2.7c.01.4.14.73.38.96.25.23.58.34 1 .34h-1.01v4h.5v-1.58h.9c.42 0 .75-.1.98-.3.23-.2.35-.5.35-.88 0-.36-.12-.69-.36-.9a1.39 1.39 0 0 0-.97-.34h-.26c.38-.03.69-.16.91-.4.22-.23.34-.53.34-.9V28h.59v4h.5v-4h.36v-.42zm.57.42v-4h1.07c1.04 0 1.67.84 1.68 1.82v.32c0 1.02-.66 1.85-1.7 1.86h-.03c.23.01.42.07.6.16a1.15 1.15 0 0 1 .64 1.02h-.5a.71.71 0 0 0-.22-.55.88.88 0 0 0-.62-.2.9.9 0 0 0-.58.16.56.56 0 0 0-.2.46c0 .16.06.3.2.4.13.12.35.22.66.3.32.1.57.2.75.3.17.12.3.25.4.4.08.14.12.3.12.5 0 .32-.12.58-.36.77-.24.19-.56.28-.96.28-.26 0-.5-.05-.73-.15-.23-.1-.4-.25-.53-.42a1.05 1.05 0 0 1-.18-.61h.5c0 .23.09.42.26.56.17.13.4.2.68.2.26 0 .47-.05.6-.17a.54.54 0 0 0 .22-.45c0-.19-.07-.34-.2-.44a2.2 2.2 0 0 0-.7-.3 2.36 2.36 0 0 1-.95-.47.9.9 0 0 1-.29-.69c0-.3.12-.56.36-.76.22-.18.5-.28.83-.3h-.82zm.5-3.58v3.16c.98 0 1.75-.28 1.75-1.45v-.3c0-1.18-.77-1.4-1.75-1.4zm-7.67 9.79h1.21s.12.1.24.3c.13.2.13.58.13.58v.9h.65c-.12-.1-.12-.37-.12-.37v-.77c0-.56-.28-.81-.37-.89l-.02-.03c.24-.1.42-.54.42-.77 0-.78-.48-1.16-1.2-1.16h-.52c.22 0 .43-.05.62-.14h1.31v-.47h-.75c.07-.1.12-.19.17-.3.11-.26.17-.59.17-.96v-.25c0-.38-.06-.71-.19-1-.12-.28-.3-.5-.53-.65-.23-.15-.5-.23-.8-.23a1.42 1.42 0 0 0-1.35.89c-.12.28-.19.62-.19.99v.28c0 .37.07.7.2.97.25.54.75.87 1.34.87H30v4h.5v-1.8zm.74-.45h-.74v-1.33h.81c.46 0 .82.18.82.67 0 .43-.45.66-.9.66zm-5.76 1.9c.25-.22.4-.54.44-.95h-.5c-.05.32-.15.55-.3.68-.14.13-.36.19-.64.19a.83.83 0 0 1-.72-.37 1.75 1.75 0 0 1-.26-1.01v-.38c0-.45.1-.8.27-1.03a.9.9 0 0 1 .76-.37c.26 0 .46.07.6.21.15.14.25.36.3.67h.5c-.05-.4-.19-.72-.43-.95a1.35 1.35 0 0 0-.97-.35c-.3 0-.57.07-.8.22-.24.15-.42.36-.54.63-.13.28-.19.6-.19.96v.37c0 .55.13 1 .4 1.33.28.33.64.49 1.08.49.42 0 .75-.11 1-.33zm3.76-.53c.12-.29.19-.62.19-1v-.25c0-.38-.07-.71-.2-1-.12-.28-.3-.5-.53-.65-.23-.15-.5-.23-.8-.23a1.42 1.42 0 0 0-1.34.89c-.13.28-.19.62-.19.99v.28c0 .37.07.7.2.97.13.28.3.5.54.65.23.15.5.22.8.22.3 0 .57-.07.8-.22.23-.15.4-.37.53-.65zm-.58-2.32c.18.25.27.6.27 1.06v.3c0 .44-.1.8-.28 1.03a.88.88 0 0 1-.75.36.89.89 0 0 1-.76-.38 1.8 1.8 0 0 1-.27-1.05v-.29c0-.44.1-.78.28-1.03a.88.88 0 0 1 .75-.37c.32 0 .58.13.76.37zm5.1 1.2h.9c.27 0 .47-.07.61-.2.15-.13.22-.32.22-.56a.84.84 0 0 0-.22-.6.83.83 0 0 0-.58-.22h-.93V34zm-10.02-3.45h1.3l-.65-1.87-.65 1.87zm5.36.15c-.05.41-.2.73-.45.96-.25.22-.58.33-1 .33-.44 0-.8-.16-1.08-.5-.26-.32-.4-.77-.4-1.32v-.37c0-.36.06-.68.19-.96.13-.27.3-.48.54-.63.23-.15.5-.22.8-.22.4 0 .73.12.97.35.24.23.39.55.43.95h-.5c-.05-.3-.15-.53-.3-.67a.84.84 0 0 0-.6-.2.9.9 0 0 0-.75.36 1.7 1.7 0 0 0-.28 1.03v.38c0 .42.09.76.26 1 .17.26.42.38.73.38.27 0 .49-.06.63-.2.15-.12.25-.35.3-.67h.5zm2.57-1.9c.18.25.27.6.27 1.06v.3c0 .44-.1.8-.27 1.03a.88.88 0 0 1-.75.36.88.88 0 0 1-.76-.38 1.8 1.8 0 0 1-.27-1.05v-.29c0-.44.1-.78.27-1.03a.88.88 0 0 1 .75-.37c.33 0 .59.13.76.38zM40.38 32h.5v-4h-.5v4zm3.73-3.58h-1.22V32h-.5v-3.58h-1.22V28h2.94v.42zm.4 3.58H45v-4h-.5v4zm4.06-1.87c0 .38-.06.71-.19 1-.12.28-.3.5-.53.65-.23.15-.5.22-.8.22-.3 0-.57-.07-.8-.22a1.5 1.5 0 0 1-.54-.65c-.13-.28-.2-.6-.2-.97v-.28c0-.37.07-.7.2-1 .12-.28.3-.5.53-.65.24-.15.5-.23.8-.23.3 0 .57.08.8.23.24.15.42.37.54.65.13.29.19.62.19 1v.25zm-.5-.26c0-.46-.09-.81-.27-1.06a.89.89 0 0 0-.76-.37.88.88 0 0 0-.75.37c-.18.25-.27.6-.28 1.03v.29c0 .44.1.8.28 1.05.18.26.43.38.76.38.32 0 .57-.12.75-.36.17-.24.27-.59.27-1.04v-.29zM51.5 32h.5v-4h-.5v3.07L49.58 28h-.5v4h.5v-3.05L51.5 32z" fill="#0E3487"/></svg>