<!-- by TradingView --><svg width="56" height="56" xmlns="http://www.w3.org/2000/svg"><path fill="url(#paint0_linear)" d="M0 0h56v56H0z"/><path d="M41 23h-5.78c.498.183.75.755.78 1.253v3.508c-.05.507-.336 1.002-.78 1.238h3.622c-.593-.144-.841-.82-.842-1.365v-1.35c.769 0 1.844.147 2 1.005v-2.744c-.308.77-1.2.951-2 .952V24c.812 0 2.703-.179 3 .845V23zm1 0v2.272c.121-.936 1.136-1.349 2-1.272v3.837c-.049.531-.36 1.023-.85 1.162h3.75c-.631-.113-.9-.574-.9-1.162V24c.87 0 1.846.277 2 1.25V23h-6zm-10.437 5.691c-.094.087-.2.16-.314.214l-.2.094h4.17a.695.695 0 01-.195-.075 2.137 2.137 0 01-.572-.484 2.67 2.67 0 01-.288-.434 3.981 3.981 0 01-.225-.51l-.303-.915-.41-1.234L32.438 23h-3.461c.11.028.215.07.314.124.088.053.169.119.24.195a.716.716 0 01.17.649 2.13 2.13 0 01-.097.322c-.098.26-.173.466-.225.618-.015.047-.032.09-.05.132l-.625 1.642-.155.42a12.42 12.42 0 01-.233.577c-.086.2-.177.388-.273.563-.07.139-.16.265-.27.374a3.753 3.753 0 01-.468.33.841.841 0 00-.084.053h3.114a.954.954 0 01-.558-.353 1.115 1.115 0 01-.21-.637.945.945 0 01.034-.21 3.613 3.613 0 01.18-.54 3.79 3.79 0 00.074-.195h1.75l.058.169c.025.072.05.146.078.221a6.064 6.064 0 01.122.375.76.76 0 01-.037.51 1.149 1.149 0 01-.262.353zm-1.517-2.34l.62-1.948.65 1.949h-1.27z" fill="#61B510"/><path d="M25.508 26.007c.59-.275 1.015-.951.956-1.605-.063-1.091-1.256-1.403-2.174-1.402h-4.057c.722.185.766.937.767 1.552v3.074c-.003.54-.24 1.135-.752 1.373h3.601c-.804-.298-.863-1.135-.849-1.883v-.824c.184 0 .33 0 .514-.002.924 2.195 1.246 2.71 2.166 2.71h2.023c-.692 0-1.578-1.65-2.195-2.992zM23 25.475V24h.38c.523-.03 1.119.145 1.119.754 0 .61-.666.746-1.153.728-.177-.005-.183-.007-.346-.007z" fill="#61B510"/><path d="M21.135 16.506a1.587 1.587 0 00-.912 1.35h-.002a1.553 1.553 0 00-1.476-.178 1.574 1.574 0 00.463.725c.166.147.362.257.574.322-.235.367-.545.68-.91.918a1.099 1.099 0 01-.527.176 1.18 1.18 0 01-1.186-.62 1.179 1.179 0 01-1.5.519 3.076 3.076 0 01-1.402-1.818l.027-.002a1.55 1.55 0 001.168-.76c.027-.045.051-.091.073-.139a1.553 1.553 0 00-1.516-.194c.016-.552-.395-1.384-.9-1.686a1.994 1.994 0 00-.198-.1L12.866 15l-.03.04c-.04.051-.077.106-.11.162-.297.51-.215 1.427.063 1.904a1.552 1.552 0 00-1.236.907 1.548 1.548 0 001.517.184l.025-.011a3.095 3.095 0 01-.17 1.9c-.002-.002-.002-.005-.003-.008l-.014.046a2.968 2.968 0 01-.203.385 1.186 1.186 0 01-1.569.265 1.206 1.206 0 01-.754 1.112 1.168 1.168 0 01-.33.078 3.046 3.046 0 01-1.404-.37 1.572 1.572 0 00.437-1.218 2.79 2.79 0 00-.029-.263c-.539.068-.984.553-1.208.813h-.002c-.297-.26-.844-.725-1.444-.679a1.57 1.57 0 00-.4.12 20.231 20.231 0 013.123 2.93c.538.622 1.457 1.876 1.458 1.875.24.225.558.345.885.335a.088.088 0 00.075-.083c.004-.033-.052-.052-.081-.065a.703.703 0 01-.445-.499c-.174-.547 1.449-1.534 3.82-2.14 2.37-.607 4.275-.534 4.385.03a.716.716 0 01-.152.654c-.02.025-.06.07-.039.097a.088.088 0 00.105.038c.292-.15.513-.41.616-.722 0 0 .255-1.554.43-2.36a20.174 20.174 0 011.347-4.066 1.54 1.54 0 00-.394.115" fill="#F7760D"/><path d="M13 23.853c1.28-.552 2.387-.85 3.767-1.036 0 0 2.692.267 2.692 3.454 0 3.187-2.248 5.006-5.307 5.006-3.06 0-4.673-1.36-4.673-2.809s1.033-1.68 1.514-1.68c.48 0 1.348.438 1.348 1.573 0 0-.865-.214-.865.54 0 .755 1.022 1.224 2.424 1.224 1.4 0 3.38-.619 3.38-3.378 0-2.944-1.341-3.075-2.28-3.075v5.05a.47.47 0 00.145.323.468.468 0 00.336.12s-.36.403-1.581.403c-1.222 0-1.56-.403-1.56-.403s.66.07.66-.444v-4.868z" fill="#61B510"/><path d="M43.763 33.098c-.341-.078-.811-.3-.763-.75.052-.489.667-.644 1.071-.636.879.012 1.326.599 1.929 1.158v-2.114s-.154.404-.81.404c-.582-.015-1.018-.213-1.616-.195-1.105-.002-2.62.632-2.574 1.905-.025.506.385 1.007.851 1.232.908.437 1.957.518 2.804.955.18.089.42.27.347.501-.078.358-.597.43-.93.442-.36.018-.719-.096-1.06-.21-.733-.265-1.574-.652-2.012-1.31V37c.386-.218.877-.287 1.316-.295.67-.01 1.312.264 1.988.264 1.126-.002 2.76-.575 2.696-1.913-.184-1.584-2.008-1.676-3.237-1.958zm-10.753-.816c0-.095.006-.197.015-.307.01-.11.03-.217.06-.323.028-.102.069-.2.121-.292a.81.81 0 01.203-.233.63.63 0 01.295-.127h-2.707c.15.008.292.063.41.157a.955.955 0 01.25.334c.063.137.105.282.125.431.022.144.033.29.034.436v2.685L29.278 31H26.21a.643.643 0 01.405.153c.104.094.185.21.236.342.056.14.093.285.111.435a3.4 3.4 0 01.03.428c0 .06 0 .148.003.266v2.843a6.483 6.483 0 01-.033.67c-.01.099-.03.196-.06.29a.945.945 0 01-.124.258.705.705 0 01-.28.237c-.03.012-.061.023-.093.033a.985.985 0 00-.085.03.178.178 0 01-.044.015h2.648a3.39 3.39 0 01-.188-.108 1.59 1.59 0 01-.155-.113 1.022 1.022 0 01-.129-.124 1.079 1.079 0 01-.221-.495 3.079 3.079 0 01-.052-.547V32.97L30.676 37h3.028a.632.632 0 01-.295-.127.81.81 0 01-.203-.233 1.271 1.271 0 01-.122-.292 1.783 1.783 0 01-.059-.323 3.482 3.482 0 01-.014-.307v-3.436zm-8.01.031c.02-.514.181-1.133.716-1.313h-3.527c.573.163.832.918.811 1.438v3.028c0 .48-.051.967-.423 1.313l-.059.046c-.864-.367-1.765-1.273-2.431-2.358-.393-.64-.837-1.486-1.206-2.225.347-.453.68-.874.947-1.196A3.81 3.81 0 0121.727 30h-2.878s.264.394-.117.874L17 33.278v-2.015c-.623.28-1.305.482-2 .533v3.6c-.027.6-.36 1.51-1.1 1.602h4.018c-.805-.168-.918-1.342-.918-1.975l.457-.883c.146.256.3.522.461.786.764 1.26 1.373 2.074 2.34 2.074l5.443-.002c-.505-.21-.695-.743-.701-1.276v-3.41zm13 2.597v.834c-.089.24-.525.397-.782.379-.53 0-.978-.436-1.082-.96v.004a5.14 5.14 0 01-.018-2.29c.11-.51.676-1.019 1.23-1.028.946-.043 2.305.591 2.652 1.534v-2.65c-.087.264-.18.436-.45.553-.245.083-.495.067-.748.027-.45-.066-.867-.265-1.323-.311a4.346 4.346 0 00-.439-.022 3.892 3.892 0 00-.885.099 3.144 3.144 0 00-.792.3 2.72 2.72 0 00-.662.503 2.581 2.581 0 00-.396.54l-.004.007a4.265 4.265 0 00-.271 2.48 3.172 3.172 0 00.275.727 2.485 2.485 0 001.486 1.219c.36.109.735.157 1.11.143.17-.006.34-.03.505-.073.171-.044.345-.093.52-.146.174-.054.349-.105.526-.154.17-.047.344-.076.52-.084.168-.007.337.013.5.059.175.052.394.277.528.4v-1.736c.002-.506.097-1.102.642-1.264h-3.294c.497.047.673.445.652.91z" fill="#fff"/><defs><linearGradient id="paint0_linear" x1="10.418" y1="9.712" x2="68.147" y2="76.017" gradientUnits="userSpaceOnUse"><stop stop-color="#1A1E21"/><stop offset="1" stop-color="#06060A"/></linearGradient></defs></svg>