<!-- by TradingView --><svg xmlns="http://www.w3.org/2000/svg" width="56" height="56" viewBox="0 0 56 56"><path fill="#F0F3FA" d="M0 0h56v56H0z"/><path d="M12 22h-2v3.61c-.15-.12-.7-.36-1.5-.38-.98-.03-3.41.45-3.5 3.38-.03 1.1.56 3.32 3.2 3.39.65.02 1.73-.21 2.11-1.2.01.52.5 1.51 2.33 1.08v-1.24c-.22.01-.64-.13-.64-.78V22zm-2 5.22v1.62c.01.48-.24 1.45-1.37 1.47-1.41.03-1.64-1.21-1.63-1.7.01-.5.24-1.79 1.63-1.79.5 0 1.01.16 1.37.4z" fill="#1D1D1B"/><path fill="#46277D" d="M15 27h2v2h-2z"/><path d="M20 29.36V22h2v7.51c-.01 1.05.84 1.09 1.3.97l.12 1.4c-.48.1-1 .12-1.2.12-1.95.05-2.22-1.62-2.22-2.64zM48 29.36V22h2v7.51c-.01 1.05.9 1.09 1.37.97l.13 1.4a5.7 5.7 0 0 1-1.24.12c-1.98.05-2.26-1.62-2.26-2.64z" fill="#1D1D1B"/><path fill-rule="evenodd" d="M27.5 32a3.5 3.5 0 1 0 0-7 3.5 3.5 0 0 0 0 7zm0-1.8c.83 0 1.5-.76 1.5-1.7s-.67-1.7-1.5-1.7-1.5.76-1.5 1.7.67 1.7 1.5 1.7z" fill="#1D1D1B"/><path d="M38.5 30.77A3.76 3.76 0 0 1 35.68 32 3.6 3.6 0 0 1 32 28.5a3.6 3.6 0 0 1 3.69-3.5c1.13 0 2.15.49 2.83 1.26l-1.5 1.16c-.3-.45-.79-.73-1.34-.73-.93 0-1.68.8-1.68 1.8s.75 1.8 1.68 1.8c.54 0 1.02-.27 1.33-.7l1.48 1.18zM39.76 25.7a6.08 6.08 0 0 1 3.18-.7c2.08.04 3.03 1.33 3.06 2.43v2.77c0 .23.1.66.63.58v1.15c-.73.15-2.2.11-2.21-1.04-.18.35-.87 1.05-2.19 1.1-1.65.08-2.77-.93-2.77-2.25 0-1.2.8-2.21 2.77-2.26.3 0 1.07.08 1.77.43 0-.54-.03-1.35-1.54-1.37-.36 0-1.25.1-1.99.45l-.71-1.3zm4.23 3.44a2.1 2.1 0 0 0-1.24-.41c-.75 0-1.29.4-1.29.96 0 .56.55.81 1.1.79.56-.02 1.43-.33 1.43-1.34z" fill="#1D1D1B"/></svg>