<!-- by TradingView --><svg xmlns="http://www.w3.org/2000/svg" width="56" height="56" viewBox="0 0 56 56"><path fill="#F0F3FA" d="M0 0h56v56H0z"/><path d="M36.77 21.58c0-.56-1.19-.51-1.29-.58-.1-.07-1.93-3.11-7.02-3.11-1.95-.14-4.29.2-6.95 1.55 0 0-3.98-1.76-7.04.86-.43.37.13.36.13.36s1.59.29 2.59 1.37c0 0-8.18 7.67-7.09 17.95 0 0 1.17-10.6 13.27-15.62 2.19-.9 4.39-2.11 11-2.23h.45l1.61-.01c.38 0 .34.02.34-.54z" fill="#C2E4F1"/><path d="M42.06 24.3c.18-.53-.95-.9-1.02-1-.07-.1-.8-3.62-5.58-5.45a13.15 13.15 0 0 0-7.04-1.02s-3.17-3.08-6.89-1.72c-.53.2 0 .39 0 .39s1.4.83 1.99 2.2c0 0-10.2 4.3-12.53 14.34 0 0 4.57-9.55 17.58-9.92 2.34-.07 4.8-.42 11.06 1.84l.42.16 1.52.56c.36.14.3.14.5-.38z" fill="#47A7DD"/><path d="M22.62 31c1.2 0 2.06.77 2.06 2.02 0 .77-.3 1.69-.9 2.28-.43.43-1.04.7-1.71.7-1.21 0-2.08-.77-2.08-2.02 0-.77.3-1.69.92-2.29.43-.42 1.03-.69 1.7-.69zm-5 0c.86 0 1.43.32 1.8.67.33.33.5.77.5 1.34a3.1 3.1 0 0 1-.83 2.11c-.52.5-1.26.88-2.29.88H15l1.2-5h1.42zm9.41 0l-.86 3.6H28l-.34 1.4h-3.34l1.2-5h1.51zm3.53 0c.77 0 1.29.25 1.6.57.25.24.4.58.4.97 0 .53-.17 1.04-.55 1.41-.4.4-1.01.62-1.77.62h-.48L29.43 36h-1.51l1.2-5h1.44zm4.13 0l-.43 2h1.18l.44-2h1.5l-1.2 5h-1.5l.43-2h-1.18l-.43 2h-1.52l1.2-5h1.51zm4.6 0l-1.2 5h-1.5l1.2-5h1.5zm1.83 0l.84 2.26.55-2.26H44l-1.2 5h-1.37l-.89-2.36-.56 2.36h-1.5l1.2-5h1.44zm-18.6 1.31c-.2 0-.39.08-.54.24-.3.29-.47.92-.47 1.33 0 .53.24.8.65.8.2 0 .39-.07.54-.23.3-.3.48-.92.48-1.33 0-.52-.25-.8-.66-.8zm-4.97.1h-.17l-.54 2.18h.19c.4 0 .72-.12.94-.32.25-.25.4-.75.4-1.11 0-.3-.07-.44-.19-.55-.13-.13-.33-.2-.63-.2zm12.97-.1h-.2l-.28 1.14h.2c.25 0 .47-.05.61-.19s.2-.35.2-.5a.42.42 0 0 0-.12-.32c-.1-.1-.25-.13-.4-.13zM43.92 37.31L44 37h-1.48l-.54 2h1.5l.08-.31h-1.14l.14-.54h1l.09-.31h-1l.14-.53h1.13zM45.37 38.41L44.68 37h-.33l-.54 2h.35l.4-1.45.7 1.45h.3l.54-2h-.35l-.38 1.41zM47.91 37.33L48 37h-1.64l-.09.33h.64L46.46 39h.35l.46-1.67h.64zM40.48 37l.32 1.02.9-1.02h.4l-.57 2h-.36l.42-1.47-.92 1.01h-.02l-.34-1.01L39.9 39h-.35l.58-2h.36zM38.21 37l.69 1.46.38-1.46h.35l-.54 2h-.3l-.7-1.5-.4 1.5h-.35l.54-2h.33zM37.45 37l-.58 2h-.35l.57-2h.36zM34.9 37l-.1.3h-.64l-.48 1.7h-.35l.48-1.7h-.64l.09-.3h1.64zM31 37l-.1.31h-1.2l-.16.53h1.08l-.1.3h-1.07l-.16.55h1.23l-.09.31h-1.61l.58-2H31zM29.18 37l-.1.33h-.67L27.93 39h-.37l.48-1.67h-.68l.1-.33h1.72zM26.01 37l.65 1.41.37-1.41h.33l-.51 2h-.29l-.67-1.45-.37 1.45h-.34l.52-2H26zM25.18 37l-.1.31h-1.2l-.16.53h1.08l-.1.3h-1.07l-.16.55h1.24l-.1.31H23l.58-2h1.6z" fill="#0064A4"/><path fill-rule="evenodd" d="M32.22 37c.28 0 .48.06.61.18.1.09.15.21.15.35 0 .17-.07.32-.18.42a.97.97 0 0 1-.5.23l.44.82h-.4l-.43-.8h-.42l-.26.8h-.28l.54-2h.73zm-.46.3h.44c.16 0 .27.03.34.09.05.04.07.1.07.17a.3.3 0 0 1-.1.22c-.1.09-.26.14-.48.14h-.46l.19-.62zM35.96 37l.32 2h-.36l-.08-.45h-.95l-.34.45h-.39l1.46-2h.34zm-.86 1.26l.64-.96.03.48.03.48h-.7z" fill="#0064A4"/><path d="M35.59 17.07c-.1-.2-2.08-4.02-5.91-4.07-.56 0-.12.37-.12.37s1.03 1.28 1.14 2.78c0 0-10.98.38-16.45 8.98 0 0 7.4-7.33 19.75-3.02 2.23.77 4.66 1.33 9.8 5.69l.34.3 1.25 1.07c.29.26.24.24.58-.19.35-.42-.6-1.18-.63-1.3-.03-.12.43-3.69-3.47-7.11a13.54 13.54 0 0 0-6.28-3.49z" fill="#0064A4"/></svg>