<!-- by TradingView --><svg width="56" height="56" viewBox="0 0 56 56" xmlns="http://www.w3.org/2000/svg"><path fill="#F0F3FA" d="M0 0h56v56H0z"/><path fill-rule="evenodd" d="M43.3 32.86 32.76 13.82a5.44 5.44 0 0 0-9.52 0L12.7 32.86A5.48 5.48 0 0 0 17.46 41h21.08a5.48 5.48 0 0 0 4.76-8.14Zm-9.66-19.53a6.44 6.44 0 0 0-11.28 0L11.82 32.38A6.48 6.48 0 0 0 17.46 42h21.08c4.92 0 8.03-5.3 5.64-9.62L33.64 13.33Z" fill="#2B11CD"/><path d="M26 22h-5.5v3c.4 0 1 .5 1 1v9c0 .8-.67 1-1 1v3H32c1.5 0 6-1.5 6-8.5 0-6-4-8.5-6-8.5h-1c1 1.83 3 6.1 3 8.5 0 3-2 6.5-6 6.5s-5-4-5-6.5 2-6.5 3-8.5Z" fill="#EC0601"/><path d="M28.5 17C26.38 26 24 27.96 24 31c0 2.5 1.8 3.67 2.5 4-1-1-1.5-2.8-1.5-4 0-2 2-4.5 3.5-6 1.5 1.5 3.5 4 3.5 6 0 1.5-.5 3-1.5 4 .7-.33 2.5-1.6 2.5-4s-2.38-5-4.5-14Z" fill="#2B11CD"/><path d="M26 31.5c0 1.2.74 2.17 1.11 2.5-.18-.5-.55-1.2-.55-2 0-1 1.2-2.5 1.94-3 .56.5 1.94 2 1.94 3 0 .8-.37 1.5-.55 2A3.64 3.64 0 0 0 31 31.5c0-1.2-1.76-3.5-2.5-4.5-.93 1-2.5 3.3-2.5 4.5Z" fill="#2B11CD"/><path d="M27 32.5c0 .5.83 1.5 1 1.5 0 0-.5-.54-.5-1 0-1 .5-1.5 1-2 .5.5 1 1.09 1 2 0 .5-.5 1-.5 1 .5 0 1-1.04 1-1.5 0-1-1-2-1.5-2.5-.5.5-1.5 1.5-1.5 2.5Z" fill="#2B11CD"/></svg>