<!-- by TradingView --><svg width="56" height="56" viewBox="0 0 56 56" xmlns="http://www.w3.org/2000/svg"><path fill="url(#a4wlmujk4)" d="M0 0h56v56H0z"/><path d="M32 19h-4v4h-3.32C23.65 23 22 24.24 22 25.23v9.58c0 1.06 1.5 2.19 2.6 2.19H32V19Zm-6 6h2v10h-2V25Z" fill="#F0F3FA"/><path d="M28 13v3.74c5.6 0 13.33 5.08 13.33 11.02 0 5.93-7.4 11.34-13.12 11.34v.9C36.53 40 45 34.01 45 26.73 45 19.45 37.6 13 28 13ZM28 43v-3.74c-5.6 0-13.33-5.08-13.33-11.02 0-5.93 7.4-11.34 13.12-11.34V16C19.47 16 11 21.99 11 29.27 11 36.57 18.41 43 28 43Z" fill="#F0F3FA"/><defs><linearGradient id="a4wlmujk4" x1="10.42" y1="9.71" x2="68.15" y2="76.02" gradientUnits="userSpaceOnUse"><stop stop-color="#1A1E21"/><stop offset="1" stop-color="#06060A"/></linearGradient></defs></svg>