<!-- by TradingView --><svg width="56" height="56" xmlns="http://www.w3.org/2000/svg"><path fill="#F0F3FA" d="M0 0h56v56H0z"/><path d="M35.4 27.374l-.502-1.068a.257.257 0 00-.466 0l-2.75 6.332a.254.254 0 00.23.362h.97a.471.471 0 00.425-.27L35.4 27.8a.5.5 0 000-.426z" fill="#FF9648"/><path d="M9.097 33H5l-.008-1.463h4.106a.448.448 0 00.449-.448v-4.186a.448.448 0 00-.449-.447H5V25h4.106A1.903 1.903 0 0111 26.903v4.186A1.904 1.904 0 019.097 33zM29.183 33h-.919a.261.261 0 01-.26-.27v-5.82a.448.448 0 00-.447-.448h-3.104a.448.448 0 00-.449.448v5.82a.27.27 0 01-.269.27h-.929a.26.26 0 01-.249-.27v-5.82a1.901 1.901 0 011.896-1.903h3.104a1.903 1.903 0 011.902 1.903v5.807a.267.267 0 01-.167.263.268.268 0 01-.109.02zM15.884 26.463h3.851a.269.269 0 00.27-.27v-.924a.257.257 0 00-.257-.257h-3.864a1.903 1.903 0 00-1.904 1.9v4.185A1.903 1.903 0 0015.884 33h3.851a.261.261 0 00.261-.261v-.933a.269.269 0 00-.269-.27h-3.843a.448.448 0 01-.449-.446v-1.392h4.09a.27.27 0 00.27-.269v-.914a.269.269 0 00-.27-.27h-4.09v-1.334a.448.448 0 01.449-.448zM36.407 25.463h-.976a.25.25 0 00-.226.358l3.237 6.91a.466.466 0 00.421.269h.974a.254.254 0 00.23-.362l-3.23-6.89a.472.472 0 00-.43-.285zM42 31.072c0 .505.2.989.557 1.345.357.357.72.558 1.224.558h3.944a.279.279 0 00.279-.278v-.989a.258.258 0 00-.26-.26h-3.842a.447.447 0 01-.447-.448v-5.73a.269.269 0 00-.262-.27h-.924a.27.27 0 00-.269.27v5.802zM51.735 25h-.924a.265.265 0 00-.266.265v7.47c0 .146.12.265.266.265h.924a.265.265 0 00.266-.265v-7.47a.265.265 0 00-.266-.265z" fill="#888"/></svg>