<!-- by TradingView --><svg width="56" height="56" fill="none" xmlns="http://www.w3.org/2000/svg"><path fill="#F0F3FA" d="M0 0h56v56H0z"/><path fill-rule="evenodd" clip-rule="evenodd" d="M6.956 34.529c.227.987.882 1.471 1.977 1.471h38.033c1.09 0 1.737-.484 1.971-1.471a9620.977 9620.977 0 013.047-12.823.572.572 0 00-.628-.702L27.96 23.628 4.644 21.004a.57.57 0 00-.628.696l.637 2.786c.625 2.742 1.51 6.622 2.303 10.043zm41.097-.35c-.153.633-.48.82-1.191.814L9.045 35c-.712.006-1.044-.188-1.197-.821C6.404 28.179 5 22 5 22l22.973 2.528L51 22s-1.504 6.18-2.947 12.179z" fill="#363"/><path d="M42.49 35.72c0 .708-.608 1.28-1.362 1.28H14.772c-.748 0-1.363-.572-1.363-1.28v-.44c0-.708.608-1.28 1.363-1.28h26.356c.748 0 1.362.572 1.362 1.28v.44z" fill="#363"/><path d="M15.72 34.602c0-.026.02-.045.048-.045h.608c.48 0 .875.377.875.844a.866.866 0 01-.875.852h-.608a.045.045 0 01-.047-.046v-1.605zm.636 1.287a.48.48 0 00.487-.494.478.478 0 00-.487-.487h-.24v.98h.24z" fill="#fff"/><path fill-rule="evenodd" clip-rule="evenodd" d="M15.76 34.596c-.002.001-.003.003-.003.006v1.605c0 .004.001.005.003.007 0 0 .003.002.008.002h.608a.83.83 0 00.838-.815c0-.446-.376-.808-.838-.808h-.608c-.005 0-.007.002-.008.003zm-.075.006c0-.047.037-.081.083-.081h.608c.5 0 .911.391.911.88a.903.903 0 01-.911.888h-.608a.081.081 0 01-.083-.082v-1.605zm.394.306c0-.02.016-.037.036-.037h.24c.302 0 .524.231.524.524 0 .299-.222.53-.523.53h-.24a.036.036 0 01-.037-.036v-.981zm.072.036v.908h.205c.26 0 .451-.197.451-.457a.442.442 0 00-.451-.451h-.205z" fill="#fff"/><path d="M19.482 34.531c.501 0 .902.39.902.87 0 .481-.4.871-.902.871-.5 0-.895-.383-.895-.87 0-.481.394-.87.895-.87zm0 1.352a.492.492 0 00.501-.481.498.498 0 00-.995 0c-.007.266.22.48.494.48z" fill="#fff"/><path fill-rule="evenodd" clip-rule="evenodd" d="M19.482 34.567a.843.843 0 00-.859.835c0 .466.377.834.86.834.481 0 .865-.375.865-.834 0-.46-.384-.835-.866-.835zm-.931.835c0-.502.41-.907.931-.907.52 0 .938.405.938.907s-.418.907-.938.907-.931-.399-.931-.907zm.4 0a.534.534 0 011.068 0 .529.529 0 01-.537.517c-.292 0-.537-.229-.53-.518zm.531-.451a.456.456 0 00-.458.45v.002c-.006.244.203.443.458.443.256 0 .465-.2.465-.444a.462.462 0 00-.465-.451z" fill="#fff"/><path d="M21.8 34.602c0-.026.02-.045.047-.045h.308c.026 0 .046.02.046.045v.981a.3.3 0 00.308.306c.18 0 .314-.137.314-.306v-.98c0-.027.02-.046.046-.046h.308c.026 0 .046.02.046.045v1c0 .371-.32.67-.714.67-.395 0-.709-.305-.709-.67v-1z" fill="#fff"/><path fill-rule="evenodd" clip-rule="evenodd" d="M21.84 34.596c-.002 0-.003.003-.003.006v1c0 .343.296.634.672.634.376 0 .678-.285.678-.633v-1a.009.009 0 00-.002-.007.011.011 0 00-.008-.003h-.308c-.004 0-.006.001-.008.003l-.002.006v.981c0 .19-.15.342-.35.342a.336.336 0 01-.344-.342v-.98a.009.009 0 00-.002-.007c-.002-.002-.004-.003-.008-.003h-.308c-.004 0-.007.001-.008.003zm-.076.006c0-.047.038-.082.083-.082h.308c.045 0 .083.035.083.082v.981c0 .15.11.27.27.27.162 0 .278-.121.278-.27v-.98c0-.048.038-.083.083-.083h.308c.046 0 .083.035.083.082v1c0 .393-.34.706-.751.706-.413 0-.745-.32-.745-.705v-1z" fill="#fff"/><path d="M25.535 34.531c.207 0 .44.085.608.227.02.02.026.046.006.066l-.2.2a.046.046 0 01-.067 0 .472.472 0 00-.327-.116.492.492 0 00-.494.487c0 .267.22.481.494.481a.528.528 0 00.22-.039v-.143h-.16a.045.045 0 01-.047-.045v-.228c0-.026.02-.045.047-.045h.501c.027 0 .047.02.047.045v.65c0 .013-.007.032-.02.039 0 0-.254.156-.621.156-.495 0-.896-.383-.896-.864a.904.904 0 01.909-.87z" fill="#fff" stroke="#fff" stroke-width=".073" stroke-miterlimit="10" stroke-linecap="round" stroke-linejoin="round"/><path d="M27.673 34.602c0-.026.02-.045.047-.045h.294c.026 0 .046.02.046.045v.61h.722v-.61c0-.026.02-.045.046-.045h.294c.027 0 .047.02.047.045V36.2c0 .026-.02.046-.047.046h-.294a.045.045 0 01-.046-.046v-.636h-.715v.636c0 .026-.02.046-.047.046h-.294a.045.045 0 01-.047-.046v-1.598h-.006z" fill="#fff"/><path fill-rule="evenodd" clip-rule="evenodd" d="M27.715 34.594V36.2c0 .004.002.006.003.007s.004.003.008.003h.294a.012.012 0 00.008-.003c.002-.001.003-.003.003-.007v-.636c0-.02.016-.037.036-.037h.715c.02 0 .036.017.036.037v.636c0 .004.001.006.002.007.002.001.004.003.008.003h.294c.005 0 .007-.002.009-.003a.009.009 0 00.002-.007v-1.598a.009.009 0 00-.002-.006c-.002-.002-.004-.003-.009-.003h-.294c-.004 0-.006.001-.008.003l-.002.006v.61c0 .02-.016.037-.036.037h-.722a.036.036 0 01-.036-.036v-.61c0-.004-.001-.006-.002-.007-.002-.002-.004-.003-.008-.003h-.299zm-.072.03a.036.036 0 01-.006-.022c0-.047.037-.082.083-.082h.294c.045 0 .083.035.083.082v.575h.648v-.575c0-.047.038-.082.083-.082h.294c.046 0 .084.035.084.082V36.2a.081.081 0 01-.084.082h-.294a.081.081 0 01-.083-.082v-.6h-.642v.6a.081.081 0 01-.083.082h-.294a.081.081 0 01-.083-.082v-1.577z" fill="#fff"/><path d="M30.733 34.57c0-.026.02-.046.046-.046h.06l.996.93v-.858c0-.026.02-.046.047-.046h.3c.027 0 .047.02.047.046v1.624c0 .026-.02.046-.047.046h-.04a.071.071 0 01-.033-.013l-.99-.962v.91c0 .026-.019.045-.046.045h-.294a.045.045 0 01-.046-.045V34.57z" fill="#fff"/><path fill-rule="evenodd" clip-rule="evenodd" d="M30.771 34.563c-.001.002-.002.003-.002.007v1.63c0 .004.001.006.002.007.002.001.004.003.008.003h.294c.005 0 .007-.002.008-.003a.009.009 0 00.003-.006v-.91a.036.036 0 01.061-.026l.988.96.005.002.006.002h.038c.005 0 .007-.001.008-.002a.009.009 0 00.003-.007v-1.624a.009.009 0 00-.003-.007s-.003-.002-.008-.002h-.3c-.005 0-.007.001-.009.002a.009.009 0 00-.002.007v.857a.036.036 0 01-.061.027l-.985-.92h-.046c-.004 0-.006.002-.008.003zm1.374 1.666zm0 0zm-.01-.002zm-1.439-1.657c0-.047.037-.082.083-.082h.06c.01 0 .019.004.025.01l.935.872v-.774c0-.047.037-.082.083-.082h.3c.046 0 .083.035.083.082v1.624a.081.081 0 01-.083.082h-.04a.068.068 0 01-.016-.002.146.146 0 01-.013-.004.087.087 0 01-.03-.017m0 0l-.927-.902v.824a.081.081 0 01-.083.081h-.294a.081.081 0 01-.083-.081V34.57" fill="#fff"/><path d="M33.779 34.602c0-.026.02-.045.047-.045h.307c.027 0 .047.02.047.045v.981a.3.3 0 00.307.306c.18 0 .314-.137.314-.306v-.98c0-.027.02-.046.047-.046h.307c.027 0 .047.02.047.045v1c0 .371-.32.67-.715.67-.394 0-.708-.305-.708-.67v-1z" fill="#fff"/><path fill-rule="evenodd" clip-rule="evenodd" d="M33.818 34.596a.009.009 0 00-.003.006v1c0 .343.296.634.672.634.377 0 .679-.285.679-.633v-1a.008.008 0 00-.003-.007c-.001-.002-.004-.003-.008-.003h-.307c-.005 0-.007.001-.008.003-.002 0-.003.003-.003.006v.981c0 .19-.15.342-.35.342a.336.336 0 01-.343-.342v-.98a.009.009 0 00-.003-.007c-.001-.002-.004-.003-.008-.003h-.307c-.005 0-.007.001-.008.003zm-.075.006c0-.047.037-.082.083-.082h.307c.046 0 .083.035.083.082v.981c0 .15.111.27.271.27a.27.27 0 00.278-.27v-.98c0-.048.037-.083.083-.083h.307c.046 0 .083.035.083.082v1c0 .393-.34.706-.751.706-.413 0-.744-.32-.744-.705v-1z" fill="#fff"/><path d="M36.952 34.908h-.354a.045.045 0 01-.047-.046v-.266c0-.026.02-.046.047-.046h1.109c.027 0 .047.02.047.046v.266c0 .026-.02.046-.047.046h-.354V36.2c0 .026-.02.045-.047.045h-.3a.045.045 0 01-.047-.045v-1.293h-.007z" fill="#fff"/><path fill-rule="evenodd" clip-rule="evenodd" d="M36.59 34.59l-.002.006v.266c0 .003 0 .005.002.007l.008.002h.36c.02 0 .037.017.037.037V36.2c0 .003.001.005.003.006 0 .001.003.003.008.003h.3c.005 0 .007-.002.008-.003.002-.001.003-.003.003-.006v-1.293c0-.02.016-.037.036-.037h.354c.005 0 .007-.001.008-.002s.003-.003.003-.007v-.266c0-.003-.002-.005-.003-.007l-.008-.002h-1.109l-.008.002zm-.075.006c0-.047.038-.082.083-.082h1.109c.046 0 .083.035.083.082v.266a.081.081 0 01-.083.082h-.318v1.257a.081.081 0 01-.083.081h-.3a.081.081 0 01-.083-.081v-1.257h-.325a.081.081 0 01-.083-.082v-.266z" fill="#fff"/><path d="M39.07 36.019l.12-.201c.02-.033.067-.026.087-.013.007.006.187.13.354.13.1 0 .174-.059.174-.143 0-.104-.087-.182-.254-.247-.214-.085-.48-.247-.48-.533 0-.24.193-.48.574-.48.26 0 .46.13.534.181.027.02.027.059.013.078l-.127.188c-.02.026-.06.046-.086.033-.02-.013-.207-.143-.354-.143-.087 0-.16.059-.16.123 0 .091.073.156.273.234.194.078.501.221.501.553 0 .246-.22.5-.588.5-.327 0-.5-.13-.56-.189-.034-.032-.041-.039-.02-.071z" fill="#fff" stroke="#fff" stroke-width=".073" stroke-miterlimit="10" stroke-linecap="round" stroke-linejoin="round"/><path d="M35.329 26.538h12.373c.674 0 1.215-.546 1.202-1.221 0 0 0-.052-.007-.078-.013-.091-.14-.163-.194-.091-.146.208-.647.208-.968.208h-12.42c-2.07 0-3.827 2.41-4.235 2.917.2-.559.595-1.853.588-2.3-.013-.673-.534-.935-1.07-.973a1.993 1.993 0 00-.807.108c-.067.026-.04.136.026.15.207.038.602.188.455.76-.014.084-1.65 5.859-1.65 5.859-.02.058.026.123.093.123h1.156c.04 0 .08-.026.087-.065.113-.396.574-1.797.58-1.81.262-.806.736-1.332 1.103-1.332.174 0 .254.097.26.214.007.266-.373 1.09-.534 1.694-.2.76.267 1.299 1.016 1.299.781 0 1.129-.396 1.543-1.157.174-.318.848-1.94.975-2.343.127.026.334.052.501.065l-.287 1.15c-.08.312-.167.617-.167.949-.007.474.167 1.016.742.994.634 0 1.028-.41 1.262-.689a1.21 1.21 0 001.11.689c.6 0 1.102-.221 1.47-.682l-.155.526a.088.088 0 00.087.11h.842c.04 0 .074-.026.08-.065l.628-2.26c.12-.319.515-.546.735-.546.107 0 .167.065.127.214l-.695 2.54a.088.088 0 00.087.11h.849c.04 0 .073-.025.08-.064l.608-2.222c.14-.305.514-.585.734-.585.1 0 .154.072.12.221-.006.026-.213.754-.273.975-.36 1.325-.027 1.715.681 1.715.495 0 .895-.267 1.15-.61.206.48.68.61 1.102.61.888 0 1.342-.578 1.536-.87.034-.046.02-.111-.013-.144a.809.809 0 00-.127-.084c-.04-.026-.1-.02-.127.013-.214.26-.481.487-.969.487-.427 0-.588-.429-.594-.728 0-.045 0-.078.006-.11 1.216 0 1.77-.721 1.757-1.293-.006-.455-.24-.916-.928-.916-1.176 0-1.844 1.215-1.824 2.203 0 .058.02.344.047.474-.114.143-.341.318-.541.318s-.248-.214-.22-.455c.073-.682.386-1.416.38-1.936-.007-.22-.114-.604-.648-.604-.434 0-.895.26-1.183.61-.026-.22-.053-.61-.6-.61a1.47 1.47 0 00-1.076.494l.106-.384a.088.088 0 00-.087-.11h-.801a.079.079 0 00-.08.065s-.468 1.663-.481 1.715c-.508 1.176-1.076 1.274-1.503 1.274-.395 0-.602-.54-.568-.916 1.008 0 1.77-.463 1.757-1.23-.007-.494-.28-.903-.949-.903-1.283 0-1.804 1.392-1.79 2.146 0 .123.013.324.026.422-.04.078-.254.318-.514.318-.387 0-.38-.922.234-2.716l.026-.065c.02-.052-.02-.11-.08-.11-.267.006-1.015.078-1.436-.078 0-.007.14-.65-.535-.65-.327 0-.567.208-.56.481.006.403.313.559.487.637-.287.844-.588 1.394-.869 2.018-.267.591-.507.76-.68.76-.161 0-.208-.11-.215-.24-.006-.461.662-1.33.642-2.376-.007-.41-.314-.65-.708-.65a1.43 1.43 0 00-.835.267c.006-.013 1.189-1.63 3.547-1.63zm11.517 1.897c.14 0 .18.176.18.3.014.662-.413 1.097-.995 1.136.094-.753.415-1.436.815-1.436zm-8.25-.001c.194 0 .2.266.187.428-.034.449-.308.853-.996.925.094-.747.435-1.353.809-1.353zM18.908 26.455h8.972c.675 0 1.216-.546 1.202-1.221 0 0 0-.053-.006-.079-.014-.09-.134-.181-.194-.09-.127.194-.528.207-.849.207h-9.132a.956.956 0 01.194.592.966.966 0 01-.187.59zM18.052 26.455a.6.6 0 00.608-.591.6.6 0 00-.608-.591.6.6 0 00-.607.59.6.6 0 00.607.592z" fill="#BF001F"/><path d="M28.073 28h-.835a.092.092 0 00-.087.065l-.574 1.95c-.187.605-.428.916-.668.916-.247 0-.274-.298-.22-.558l.654-2.256c.014-.058-.026-.117-.086-.117h-.835a.092.092 0 00-.088.065l-.04.136-.327 1.1c-.06.234-.127.455-.18.656-.12.435-.475.702-.548.747a2.28 2.28 0 01-.428.227c.234-.344.388-.67.501-1.19.2-.974-.026-1.74-.761-1.74-.28 0-.588.084-.849.395l.067-.285a.088.088 0 00-.087-.11h-.788c-.04 0-.074.025-.08.058l-.034.097-.56 1.976c-.088.319-.322.52-.448.611-.087.059-.18.11-.274.15.147-.28.16-.566.16-.683-.013-.74-.32-1.105-.327-1.619a.758.758 0 01.133-.48c.034-.052.007-.11-.046-.11h-.462a.176.176 0 00-.146.077c-.208.338-.936 1.255-1.377 1.957-.287.039-.56.344-.447.682-.047.059-.174.22-.354.22-.134 0-.174-.226-.047-.7.006-.027.006-.04.006-.04l.608-2.093a.084.084 0 00-.08-.104h-.781c-.067 0-.14.026-.167.098l-.027.104s-.501 1.735-.588 2.047c-.087.312-.36.566-.575.566-.38 0-.367-.911.22-2.64l.028-.064c.02-.052-.02-.11-.08-.11-.268.006-1.01.04-1.43-.117.027-.13.053-.65-.575-.65-.327 0-.588.26-.527.592.046.286.313.448.494.526-.294.903-.748 1.822-.976 2.284-.086.182-.34.533-.6.533-.319 0-.159-.483-.103-.641.179-.5.555-1.331.55-2.007 0-.22-.134-.702-.695-.702-.36 0-.615.098-.855.273 0 0 1.142-1.624 3.5-1.624h2.279a1.013 1.013 0 01-.194-.591.984.984 0 01.194-.591h-2.298c-2.071 0-3.788 2.41-4.196 2.917.2-.56.595-1.78.588-2.23-.013-.683-.552-.942-1.096-.973a1.987 1.987 0 00-.781.11c-.067.026-.04.136.026.15.208.038.602.188.455.76-.014.084-1.65 5.857-1.65 5.857-.02.058.026.123.093.123h1.156c.04 0 .08-.026.087-.065l.744-2.266c.261-.669.607-.947.94-.947.353 0 .267.338.186.611-.167.546-.307.822-.46 1.38-.241.878.474 1.287 1.095 1.287.875 0 1.203-.617 1.463-1.156.294-.605.855-1.972.976-2.375.126.026.34.052.507.065-.006.02-.214.806-.287 1.105-.08.311-.167.617-.167.948-.007.41.154 1.007.788 1.007.414 0 .742-.169.976-.435.02-.026.04-.046.06-.072.02.085.06.17.113.234.16.195.408.267.668.267.421 0 .795-.28.942-.455.147.234.455.455 1.043.455.046 0 .093 0 .14-.007.581-.026 1.202-.214 1.65-.52l-.074.254-.374 1.351c-.02.059.027.124.094.124h.828c.04 0 .08-.026.087-.065l.388-1.43c.133.189.367.293.861.293.742 0 1.437-.28 1.878-.741.053.455.394.74.735.74.213 0 .567-.025.855-.357 0 0-.107.39-.147.488-.916 0-1.604.487-1.59 1.02.006.364.427.623.881.623 1.05 0 1.377-.675 1.604-1.202.153.026.548.124.655.156.046.013.087-.013.1-.058l.053-.163c.014-.045-.006-.11-.046-.123l-.635-.169 1.042-3.659c.007-.084-.033-.143-.094-.143zm-8.965 3.152c-.147 0-.274-.078-.274-.15 0-.11.167-.181.16-.44 0-.137-.066-.345-.2-.41.094-.137.701-.872.701-.872.097.498.327 1.04.067 1.538-.107.207-.278.334-.454.334zm4.215-1.8c-.16.955-.447 1.631-.915 1.631-.247 0-.347-.26-.247-.63.14-.494.24-.807.274-.924.114-.396.307-.799.655-.799.187 0 .32.195.233.722zm1.951 3.444c-.12 0-.2-.078-.207-.175-.006-.345.535-.54.889-.553-.187.449-.32.728-.682.728z" fill="#BF001F"/></svg>