<!-- by TradingView --><svg width="56" height="56" xmlns="http://www.w3.org/2000/svg"><path fill="#1E4BA1" d="M0 0h56v56H0z"/><path d="M14.1 29.772c.431 0 .763-.157.994-.472.23-.314.346-.76.346-1.34 0-.579-.115-1.024-.346-1.335-.231-.314-.563-.471-.994-.471-.431 0-.764.157-.998.471-.232.311-.347.756-.347 1.335 0 .58.115 1.026.347 1.34.234.315.567.472.998.472zm2.887-1.812c0 .848-.238 1.573-.714 2.177-.476.6-1.198.9-2.168.9-.969 0-1.692-.3-2.168-.9-.476-.604-.714-1.33-.714-2.177 0-.833.238-1.555.714-2.166s1.2-.916 2.168-.916c.97 0 1.692.305 2.168.916.476.61.714 1.333.714 2.166zM21.385 27c-.028-.215-.098-.276-.212-.449-.166-.233-.423-.35-.771-.35-.497 0-.837.253-1.02.758-.096.268-.144.625-.144 1.07 0 .424.048.765.145 1.022.176.48.507.72.993.72.345 0 .59-.095.735-.285.145-.19.233-.438.264-.742h1.505a2.562 2.562 0 01-.486 1.303c-.462.66-1.147.99-2.054.99-.907 0-1.575-.275-2.003-.826-.427-.55-.641-1.265-.641-2.145 0-.992.236-1.764.709-2.314.472-.551 1.124-.827 1.956-.827.707 0 1.284.163 1.733.488.452.324.73.993.802 1.587h-1.511zM31.666 28.426c.048.357.143.624.285.8.258.322.702.482 1.33.482.375 0 .68-.042.915-.127.445-.162.668-.464.668-.906a.671.671 0 00-.332-.598c-.22-.138-.567-.26-1.04-.366l-.807-.185c-.793-.184-1.342-.383-1.645-.599-.514-.36-.771-.923-.771-1.69 0-.698.248-1.28.745-1.742.497-.463 1.226-.694 2.189-.694.803 0 1.488.22 2.054.657.569.434.867 1.066.895 1.896H34.62c-.027-.47-.227-.803-.6-1-.248-.131-.557-.197-.926-.197-.41 0-.738.085-.983.254a.815.815 0 00-.367.71c0 .28.12.488.362.625.155.092.486.2.993.323l1.314.323c.576.142 1.011.33 1.304.567.456.367.683.899.683 1.595 0 .713-.267 1.306-.802 1.78-.53.469-1.283.704-2.256.704-.993 0-1.774-.232-2.343-.694-.57-.466-.854-1.105-.854-1.918h1.521zM39 24.374h-1.5V23H39v1.374zM37.5 25H39v6h-1.5v-6zM42.832 29.597c.345 0 .636-.132.874-.397.238-.269.357-.694.357-1.277 0-.547-.114-.964-.341-1.25a1.09 1.09 0 00-.906-.429c-.517 0-.874.249-1.07.747-.104.265-.156.591-.156.98 0 .335.055.634.165.895.2.487.56.731 1.077.731zm-.368-4.672c.283 0 .53.044.74.133.359.151.575.43.796.837V25h1.507v5.54c0 .745-.123 1.306-.368 1.684-.42.65-1.228.975-2.421.975-.721 0-1.31-.145-1.765-.434-.455-.29-.707-.723-.755-1.298h1.604c.041.176.109.303.202.381.158.138.426.207.802.207.531 0 .886-.182 1.066-.546.117-.233.128-.625.128-1.176v-.37c-.141.247-.246.432-.408.556-.293.23-.674.344-1.143.344-.725 0-1.304-.26-1.739-.779-.43-.522-.647-1.229-.647-2.118 0-.858.21-1.579.627-2.162.417-.586 1.009-.879 1.774-.879zM50.013 24.925c.583 0 1.06.157 1.428.472.373.31.56.828.56 1.552V31h-1.512v-3.675c0-.304-.04-.537-.119-.7-.145-.296-.42-.445-.828-.445-.5 0-.843.218-1.03.652-.096.23-.144.523-.144.88V31H47v-6h1.321v.916c.19-.297.37-.51.538-.641.304-.233.689-.35 1.154-.35zM5.5 24.413v5.2h1.516c.752 0 1.277-.388 1.573-1.163.163-.425.244-.931.244-1.518 0-.811-.123-1.433-.368-1.865-.241-.436-.724-.654-1.449-.654H5.5zM7.286 23c.472.007.865.094 1.18.203.534.183.967.52 1.298 1.01.266.396.447.825.543 1.286.097.462.145.901.145 1.319 0 1.06-.203 1.956-.61 2.691-.552.991-1.404 1.487-2.556 1.487H4V23h3.286zM25.474 25v3.565c0 .33.037.579.11.746.132.294.39.442.773.442.491 0 .827-.21 1.01-.629.093-.227.14-.527.14-.9V25H29v6h-1.432v-.949a2.866 2.866 0 00-.101.16 1.056 1.056 0 01-.192.235c-.225.213-.444.359-.656.437a2.1 2.1 0 01-.737.117c-.814 0-1.362-.31-1.645-.927-.158-.341-.237-.844-.237-1.508V25h1.474z" fill="#fff"/></svg>