<!-- by TradingView --><svg xmlns="http://www.w3.org/2000/svg" width="56" height="56"><path fill="#D61D24" d="M0 0h56v56H0z"/><path fill-rule="evenodd" d="M37 23c.64 0 1.16-.45 1.16-1s-.52-1-1.17-1c-.64 0-1.16.45-1.16 1s.52 1 1.16 1zm-21 6l2.2-7h2.62L23 29h-2.36l-.31-1.35H18.6L18.33 29H16zm2.9-2.8l.57-2.66.55 2.65h-1.13zM24 22h4v1.62h-1v3.76h1V29h-4v-1.62h1v-3.76h-1V22zm12 2v5h2v-5h-2zm-7-1.78V29h2v-2.7l1.5 2.7H35l-1.71-2.77L34.87 24h-2.2L31 26.3V22l-2 .22zm16 0V29h-2v-.54a2.8 2.8 0 01-1.45.54c-.72 0-2.26-.3-2.26-2.48 0-2.16 1.64-2.54 2.38-2.52.54 0 1.07.25 1.33.4V22l2 .22zm-2.1 4.27c0 .7-.51 1.26-.9 1.26-.56 0-.73-.57-.73-1.26 0-.7.23-1.27.72-1.27.4 0 .9.42.9 1.27zm8.1-.06c0-1.95-1.58-2.43-2.47-2.43-.94 0-2.62.42-2.62 2.43 0 2.1 1.66 2.57 2.62 2.57.85 0 2.47-.5 2.47-2.57zm-3.26-.53a.64.64 0 111.28 0v1.2a.64.64 0 01-1.28 0v-1.2zM10.38 23c0 .33-.23.6-.54.67l-.14 3.42c.4.04.75.26.98.56l2.99-1.57a.68.68 0 11.15.27l-2.99 1.57a1.41 1.41 0 01-.01 1.19l2.82 1.78a.68.68 0 011.15.48.68.68 0 11-1.32-.23l-2.82-1.77a1.4 1.4 0 01-1.07.54l-.13 3.35a.68.68 0 11-.3-.02l.13-3.36c-.4-.07-.74-.32-.95-.65l-3 1.57a.68.68 0 01-.65.87.68.68 0 11.5-1.14l3.02-1.58a1.41 1.41 0 01.08-1.08l-2.95-1.86a.68.68 0 11.17-.26l2.94 1.86c.23-.29.57-.48.96-.52l.14-3.43a.68.68 0 11.84-.66zm38.65 8h-.15l-1.63 4h.33l.44-1.08h1.9l.44 1.08h.32l-1.65-4zm.76 2.62h-1.65l.81-2.04.84 2.04zM17.3 31.3v1.88c.63 0 1.12-.02 1.46-.14.18-.06.3-.16.4-.28.09-.13.14-.3.15-.56a.73.73 0 00-.16-.53.95.95 0 00-.47-.26c-.38-.11-.88-.11-1.38-.11zm0 2.18c.62 0 1.16-.02 1.56-.16.22-.08.41-.2.54-.39.14-.19.2-.43.21-.72.01-.31-.07-.55-.23-.74a1.24 1.24 0 00-.62-.35c-.43-.12-.98-.12-1.46-.12H17v4h.3v-1.52zm18-2.18v1.58c.4.02.75 0 1.02-.02.35-.04.58-.12.73-.24.13-.1.2-.26.2-.5 0-.25-.06-.4-.16-.52a.87.87 0 00-.45-.23c-.33-.08-.75-.08-1.2-.08h-.14zm0 1.88V35H35v-4h.43c.44 0 .9 0 1.28.08.23.06.45.16.6.33a1 1 0 01.24.7c0 .31-.1.56-.31.74-.16.13-.38.21-.65.26L37.87 35h-.36l-1.24-1.84c-.28.02-.6.03-.97.02zM23.3 31H23v4h.3v-1.97h2.24V35h.3v-4h-.3v1.73H23.3V31zm7.04 0h.14l1.65 4h-.32l-.44-1.07h-1.9L29.03 35h-.33l1.64-4zm-.75 2.63h1.65l-.83-2.05-.82 2.05zM41.04 31h.36l1.2 3.03L43.8 31h.34l.51 4h-.32l-.43-3.44-1.23 3.09h-.1l-1.28-3.14-.43 3.49h-.32l.5-4z" fill="#fff"/></svg>