<!-- by TradingView --><svg width="56" height="56" xmlns="http://www.w3.org/2000/svg"><path fill="#08090D" d="M0 0h56v56H0z"/><path d="M30.965 14H15.057l1.568 5h14.34C32.46 19 34 20.889 34 22.425V25H20.13C15.646 25 12 28.963 12 33.573S15.647 42 20.13 42h10.835C35.448 42 39 38.182 39 33.573V22.425C39 17.817 35.448 14 30.965 14zM34 34.247C34 35.783 32.46 37 30.965 37H20.13C18.635 37 17 35.728 17 33.573 17 31.056 18.635 30 20.13 30H34v4.247z" fill="url(#paint0_linear)"/><path d="M47 25h-5v5h6.5L47 25z" fill="#EC008C"/><defs><linearGradient id="paint0_linear" x1="11.575" y1="28" x2="47.509" y2="28" gradientUnits="userSpaceOnUse"><stop offset=".017" stop-color="#FDD815"/><stop offset=".105" stop-color="#FCA91D"/><stop offset=".263" stop-color="#F98932"/><stop offset=".474" stop-color="#F45454"/><stop offset=".728" stop-color="#ED0D83"/><stop offset=".771" stop-color="#EC008C"/></linearGradient></defs></svg>