<!-- by TradingView --><svg xmlns="http://www.w3.org/2000/svg" width="56" height="56"><path fill="#F0F3FA" d="M0 0h56v56H0z"/><path d="M33.63 13.54a10.34 10.34 0 0112.2 4.42c.16.23.35.72-.21.91-.9.04-3.15.67-5.07 2.82.3.63.9 2.59.92 5.36a14.47 14.47 0 01-12.53 14.17A6.45 6.45 0 0123.35 46c-.23.04-.66-.01-.51-.57.77-1.07 1.52-3.74-1.64-5.85-1.82-.67-5.47-3.02-5.54-7.07 0-.58.2-1.58.83-2.5-4.3-1.11-5.94-.3-6.22.26-.83 1.85 2.58 4.34 4.39 5.36-2.07-.77-6-3.42-5.64-5.36.45-2.43 5.41-1.54 7.88-.78.37-.41.85-.79 1.46-1.06a13.58 13.58 0 01-6.12-2.08c-.2-.15-.56-.56-.3-1.01a18.15 18.15 0 017.87-9.57 4.16 4.16 0 014.24-1.9l.13-.04c.74-.23 4.5-1.38 9.45-.28z" fill="#231815"/><path d="M25.42 14.38c.39.21.76.57.91.73h4.64c2.48 0 4.67 1.12 5.46 1.68l.4-.12-1.71-1.77 3.09-.85c-1.84-.3-3.8.16-4.54.45-3.16-.9-6.81-.45-8.25-.12zm14.11 7.06c1.16-1.39 2.92-2.5 3.65-2.87-.66-.18-2.71 1-3.65 1.6l-1.37-1.6-.68.6 1.26 2.15 1.69 4.1c.03-1.26-.6-3.18-.9-3.98z" fill="#BCBCBC"/><path d="M19.31 17.1c-3.67 2.4-5.94 6.67-6.62 8.5 3.2 2.25 8.27 2.81 12.74.4 3.58-1.93 5.36-5.83 5.8-7.54.44 1.13.58 3.07.6 3.9a11.1 11.1 0 01-4.23 8.26l.65.77a8.29 8.29 0 001.44-1.14c-1.36 2.4-4.32 3.31-5.63 3.47 1.92 1.5 4.1 1.63 4.94 1.5a7 7 0 005.88-4.68c-.56 3.94-3.95 5.39-5.57 5.62-1.06 3.74-4.62 4.12-6.26 3.84 1.81 1.56 1.49 3.93 1.1 4.93 2.82-.63 3.9-3.22 4.1-4.44C38.94 38.86 40.8 29.34 40.53 26c-.21-2.47-1.84-5.69-2.63-6.98.26.24 1.04 1.25 1.4 1.73 1.53-1.42 4.32-2.39 5.52-2.7a9.29 9.29 0 00-5.7-3.93c-1.7-.3-3.69.39-4.47.77.7.38 1.5 1.27 1.82 1.67-2.75-2.44-7.9-1.99-10.15-1.45.86 1.13.9 2.18.98 2.86 0 3.23-2.49 3.87-3.83 3.74-3.7-.24-4.31-3.17-4.16-4.61z" fill="#F0F3FA"/><path d="M31.1 20.86c-1.76 4.36-6.16 6.55-8.15 7.1.93.17 2.23.78 2.76 1.07l-.25-1.47c.83.67 2.6 1.92 3 1.6.43-.34.04-2.24-.2-3.14.44.43 1.43 1.22 1.82.9.4-.3.22-2.08.09-2.93.3.28.66.3.8.27.65-.27.34-2.57.12-3.4z" fill="#F0F3FA"/><ellipse cx="23.85" cy="18.28" rx="3.55" ry="3.51" fill="#BCBCBC"/><ellipse cx="23.95" cy="18.24" rx="3.2" ry="3.17" fill="#F0F3FA"/><path d="M25.56 17c.36 0 .68.13.92.35a2.67 2.67 0 10-4.7-.71l.12-.01c.43 0 .79.35.79.79 0 .43-.36.78-.8.78a.8.8 0 01-.59-.26 2.64 2.64 0 002.65 2.85c.93 0 1.75-.47 2.22-1.18a1.4 1.4 0 01-2-1.24c0-.75.62-1.37 1.4-1.37z" fill="#231815"/><path d="M27.65 31.82a8.57 8.57 0 00-3.96-3.1c-1.77 1.04-5.23 4.02-5.6 8.11 2.4 2.83 6 2.7 7.54 2.27a4.32 4.32 0 002.86-2.83c-1.34.04-4.4-.45-5.88-2.67-.23-.28-.46-.84.53-.82.86.07 2.98-.03 4.51-.96zm-9.78 4.73c.05-1.1.5-3.54 1.88-5.3-.6-.29-1.93-.91-2.7-1.13-.7 1.01-1.7 3.13.8 6.41l.02.02zm-.46-6.9c.64.23 1.98.75 2.8 1.12.51-.5 1.9-1.64 3.36-2.1-2.76-1.07-5.62.32-6.16.98z" fill="#F8C100"/></svg>