<!-- by TradingView --><svg xmlns="http://www.w3.org/2000/svg" width="56" height="56" viewBox="0 0 56 56"><path d="M56 0H0v56h56V0Z" fill="#F0F3FA"/><path d="M44 26H12v3h32v-3Z" fill="#F79727"/><path fill-rule="evenodd" d="M28 12a8 8 0 1 1 0 16 8 8 0 0 1 0-16Zm0 2.68a5.32 5.32 0 1 1 0 10.64 5.32 5.32 0 0 1 0-10.64Z" fill="#F79727"/><path d="M13.5 38.5c2.5 0 3-1.06 3-2.5s-.5-2.5-3-2.5v5ZM12 40v-8h1.85c1.3 0 2.31.36 3.05 1.07A3.9 3.9 0 0 1 18 36c0 .74-.15 1.4-.44 1.98a3.66 3.66 0 0 1-2.32 1.88c-.38.1-.84.14-1.4.14H12ZM21 37.5h2L22 35l-1 2.5ZM18 40l4-8 4 8h-2l-.5-1h-3l-.5 1h-2ZM27.5 33.46v2.21c.55 0 1.68.04 2.15-.29.28-.2.35-.48.35-.84 0-.38-.07-.65-.34-.83-.47-.3-1.62-.25-2.16-.25ZM26 40v-8h2.24c1.76 0 3.26.59 3.26 2.5 0 1.04-.23 1.68-1.15 2.06L33 40h-2.37l-2.32-3h-.81v3H26ZM34 40v-8h2v8h-2ZM38.5 36c0 1.5 1 2.5 2 2.5s2-1 2-2.5-1-2.5-2-2.5-2 1-2 2.5ZM37 36c0-1.98 1.4-4 3.5-4 2.15 0 3.5 2.03 3.5 4 0 1.98-1.4 4-3.5 4-2.12 0-3.5-2.04-3.5-4Z" fill="#4D5550"/></svg>