<!-- by TradingView --><svg xmlns="http://www.w3.org/2000/svg" width="56" height="56" viewBox="0 0 56 56"><path fill="#F0F3FA" d="M0 0h56v56H0z"/><path d="m16.78 31-.08-.67c-.22.31-.76.67-1.67.67-.92 0-2.03-.88-2.03-2.47 0-1.59 1.13-2.53 2.2-2.53.43-.02 1.22.14 1.5.53V24h1.6v7h-1.52Zm-1.12-4c-.57 0-1.06.57-1.06 1.37 0 .8.5 1.33 1.06 1.33s1.04-.52 1.04-1.33c0-.8-.47-1.37-1.04-1.37ZM24 29h-3.4c0 .61.35 1 .92 1 .48 0 .74-.28.88-.63h1.57c-.19.98-1.2 1.63-2.42 1.63C20 31 19 30 19 28.5s.96-2.5 2.52-2.5 2.48.84 2.48 2.28V29Zm-1.6-1c0-.56-.35-1-.86-1-.59 0-.93.5-.94 1h1.8ZM28.4 27.57a1.56 1.56 0 0 0-.42-.04c-.78 0-1.38.47-1.38 1.3V31H25v-5h1.47l.13.81c.27-.54.9-.8 1.37-.81.13 0 .3.02.43.05v1.52ZM30.87 26l.13.83c.3-.54.83-.83 1.44-.83.59 0 1.13.3 1.35.85.33-.56.94-.85 1.58-.85 1 0 1.63.69 1.63 1.78V31h-1.6v-3.28c0-.45-.32-.72-.72-.72-.46 0-.68.34-.68.94V31h-1.6v-3.28c0-.46-.32-.72-.73-.72-.4 0-.67.35-.67.97V31h-1.6v-5h1.47ZM45.6 27v2.17c0 .35.32.5.7.5.13 0 .17-.02.3-.04v1.26c-.3.07-.52.1-.83.11-1.23 0-1.77-.53-1.77-1.7V27h-.6v-1h.6v-1h1.6v1h1v1h-1ZM42.6 27.85V31h-1.49l-.11-.7c-.3.47-.75.7-1.44.7-1.08 0-1.56-.52-1.56-1.4 0-1.1.84-1.6 3-1.6v-.09c0-.52-.15-.91-.6-.91-.4 0-.62.27-.65.6h-1.6c0-1.03.94-1.6 2.38-1.6s2.07.64 2.07 1.85ZM41 28.89c-1 0-1.4.16-1.4.56s.3.55.59.55c.52 0 .81-.38.81-.82v-.29ZM52 27.85V31h-1.49l-.11-.7c-.3.47-.75.7-1.44.7-1.08 0-1.56-.52-1.56-1.4 0-1.1.84-1.6 3-1.6v-.09c0-.52-.15-.91-.6-.91-.4 0-.62.27-.65.6h-1.6c0-1.03.94-1.6 2.38-1.6s2.07.64 2.07 1.85Zm-1.6 1.04c-1 0-1.4.16-1.4.56s.3.55.59.55c.52 0 .81-.38.81-.82v-.29Z" fill="#494D69"/><path d="M4 24h7v1.5H4V24ZM4 29.5h7V31H4v-1.5ZM4 26.7h7v1.5H4v-1.5Z" fill="#5CCDF5"/></svg>