<!-- by TradingView --><svg xmlns="http://www.w3.org/2000/svg" width="56" height="56"><path fill="#EA0B2A" d="M0 0h56v56H0z"/><path d="M40.36 36.91C28.68 33.96 23.6 29.4 23.6 29.4s5 8 12.85 11.15l.45.17.12.04.44.15a.6.6 0 00.35.02c.12-.03.22-.1.3-.18l2.57-2.95a.53.53 0 00.1-.52.55.55 0 00-.17-.23.6.6 0 00-.26-.13zm3.05-11.65c-.63-.08-1.27-.12-1.91-.13-4.72 0-17.25 2.15-17.25 2.15l19.08 2.56h.03l.03-.01a.5.5 0 00.3-.46c.05-.54.24-2.4.3-3.4a.65.65 0 00-.14-.46.72.72 0 00-.44-.25zm-19.16-.7c5.95-5.17 16.2-7 17.24-7.2a.6.6 0 00.25-.11.53.53 0 00.13-.72 52.8 52.8 0 00-2.35-3.07.61.61 0 00-.65-.17l-.08.02-.04.02v-.01l-.6.21c-7.41 2.67-11.94 8.37-13.9 11.02zm-3 0c.09-.66.43-2.1.59-2.55 1.98-5.47 6.31-9.55 8.08-11.05.1-.08.16-.18.19-.3a.53.53 0 00-.04-.33.55.55 0 00-.23-.26.6.6 0 00-.35-.07l-3.75.3c-.13 0-.26.03-.38.07a.34.34 0 00-.17.11l-.62.76a9.23 9.23 0 00-.58.8l-.32.48c-.95 1.57-2.93 6.13-2.42 12.03zm-1.89.26s-1.92-3.33-2.14-7.62l-.01-.44a.59.59 0 00-.13-.36.65.65 0 00-1.03.03 18.68 18.68 0 00-1.57 3.2.57.57 0 00.01.47c.94 2.09 4.87 4.72 4.87 4.72zm-5.4 8.5a.56.56 0 00-.1.43c.05.37.37 2.29.87 3.46.2.43.64.36.65.36.37 0 .52-.54.65-.9.92-3.18 3.24-7.28 3.24-7.28s-3.71 1.9-5.3 3.92zm15.18 9.94l-.27-.27-.03-.03c-6.7-6.25-7.51-13.28-7.51-13.28s-1.5 10.26 4.15 16.2c.12.1.3.14.44.11l4.18-.63.1-.03a.54.54 0 00.16-.9c-.42-.38-.82-.77-1.22-1.17zm-10.27-16.4l-1.93-.39c-.41-.08-2.51-.56-3.39-1.3a2 2 0 01-.17-.16.66.66 0 00-.6-.17h-.03c-.1.03-.2.09-.28.16a.6.6 0 00-.16.28c-.15.53-.35 2.48-.3 2.87.02.13.11.23.28.33l.19.05.11-.01c.9-.12 3.44-.86 4.48-1.18l1.8-.47z" fill="#fff"/></svg>