<!-- by TradingView --><svg width="56" height="56" fill="none" xmlns="http://www.w3.org/2000/svg"><path fill="url(#paint0_linear_3186)" d="M0 0h56v56H0z"/><path fill-rule="evenodd" clip-rule="evenodd" d="M29.327 23c1.217 0 1.668.5 1.668 1.768 0 .026 0 .058.002.095.002.083.005.191 0 .31-.012.388-.09.72-.433.925.411.283.42.762.43 1.231l.002.058c.004.194.004.412.004.653C31 29 30.868 30 29.5 30H27.486v-7h1.841zm-.322 1.243v1.229h.322c.383 0 .36-1.229.02-1.229h-.342zm0 2.424v1.89h.322c.51 0 .537-1.89 0-1.89h-.322zM47 30v-7h-1.388v1.345c-.276-.182-.54-.348-.885-.345-.394.003-.772.201-.95.552-.168.33-.197.63-.197 2.32 0 1.04.014 1.636.077 2.07.096.658.475 1.053 1.155 1.058.357.003.567-.047.82-.278V30H47zm-2-4.73c0-.161.153-.27.306-.27s.306.108.306.27l.012 1.535v1.845c0 .27-.155.349-.31.35-.157.001-.314-.076-.314-.35v-3.38zM34.12 24c-.382 0-.88.217-1.12.485V24h-1.416l.012 6H33v-4.695c0-.205.237-.312.367-.305.163 0 .366.124.366.305v1.327H35v-1.82c-.02-.555-.441-.812-.88-.812zm3.179 0c.539.008 1.113.091 1.443.573.253.37.258.61.258 3.14V30h-1.405v-.282s-.269.282-.912.282c-.397 0-.792-.205-.957-.586-.095-.218-.113-.533-.113-1.204 0-.933.023-.988.237-1.291.233-.333.64-.543 1.042-.751.246-.128.49-.254.692-.407v-.293c0-.396-.126-.468-.285-.468-.16 0-.31.123-.31.54v.244h-1.325c.004-.09.006-.18.007-.27.003-.267.007-.53.086-.788.183-.595 1-.734 1.542-.726zm.296 3.937l-.011-.947c-.358.219-.6.507-.608.947-.003.182-.002.363-.002.545v.225c0 .257.208.293.309.293.1 0 .312-.044.312-.293v-.77zM41.879 24c-.621 0-.879.381-.879.381V24h-1.4v6H41v-4.72c0-.187.154-.276.312-.28.163-.004.33.084.33.28V30H43v-5.196c0-.468-.5-.804-1.121-.804zm7.823.025a3 3 0 00-.419-.025c-.143.002-.28.016-.41.042-.719.145-1.208.655-1.208 1.44 0 .842.562 1.319 1.207 1.812.51.39.761.735.717 1.38-.017.242-.139.326-.306.326-.183 0-.26-.113-.283-.325-.007-.063-.005-.143-.003-.255.001-.069.003-.15.003-.246v-.584h-1.406v1.085c0 .895.894 1.32 1.69 1.325.834.006 1.62-.453 1.703-1.325.012-.13.016-.27.01-.414-.032-.941-.472-1.45-1.218-1.998-.69-.509-.779-.66-.779-.945 0-.225.14-.319.283-.318.145 0 .29.099.291.319v.552H51c0-.871-.25-1.71-1.298-1.846z" fill="#fff"/><path d="M4 31.866c8.454-.7 16.268-.824 23-.866 8.01 0 16.044-.119 24 1 0 0-24.031-1.182-44.48 2H4v-2.134z" fill="#E31937"/><path d="M15.836 23l-1.389.005-.15.694h1.366l.173-.699z" fill="#FFC424"/><path fill-rule="evenodd" clip-rule="evenodd" d="M9.566 23.458c-.159-.233-.373-.354-.725-.41-.146-.023-.765-.048-1.374-.048H6.358c-.22 1.094-.44 2.25-.66 3.406-.231 1.22-.464 2.44-.697 3.594H6c.667.007 1.286.006 1.449-.021.578-.097 1.125-.488 1.35-.952.142-.291.249-.827.46-1.89l.16-.807c.435-2.152.45-2.43.147-2.872zM6.75 28.657c0-.052.51-2.875.783-4.194l.043-.211h.264c.33 0 .428.076.428.332 0 .248-.642 3.633-.735 3.839-.098.217-.233.234-.536.234H6.75z" fill="#FFC424"/><path d="M12.83 23.999c.238-.003.501.064.647.266.163.225.153.442-.06 1.495-.104.509-.188.935-.188.935h-1.315s.141-.699.165-.825c.144-.74.118-.873-.097-.873h-.21L10.792 30H9.42c.28-1.537.584-3.075.889-4.61L10.584 24h1.387l-.084.353s.557-.349.943-.353z" fill="#FFC424"/><path fill-rule="evenodd" clip-rule="evenodd" d="M22.78 24.616c-.126-.24-.324-.4-.56-.498a1.772 1.772 0 00-.71-.12 2.587 2.587 0 00-.764.137 2.072 2.072 0 00-.596.307c-.41.318-.616.77-.917 2.223-.184.892-.275 1.56-.297 1.917-.058.926.544 1.423 1.425 1.418.811-.005 1.583-.405 1.846-1.205.047-.145.136-.52.199-.795h-1.372c-.064.299-.153.708-.173.76-.13.335-.637.369-.609-.04.01-.133.045-.345.108-.71l.176-1.015h2.016l.157-.687c.206-.976.227-1.396.07-1.692zm-1.748.506a.328.328 0 01.289-.125c.08.009.168.047.204.125.051.11.013.3-.12.874h-.659s.083-.616.286-.874z" fill="#FFC424"/><path d="M25.12 24.431c.287-.247.591-.44.988-.432.506.01.87.285.89.812.012.301-.029.514-.32 1.954-.201.992-.602 3.235-.602 3.235h-1.373s.201-1.26.44-2.442c.238-1.182.434-2.181.435-2.268.003-.212-.105-.295-.218-.293-.188.005-.284.106-.362.256-.035.066-.139.492-.284 1.161-.258 1.187-.709 3.586-.709 3.586h-1.374l1.18-6.001h1.36l-.051.433zM17.288 23.999h-1.355L15.641 30h1.692l2.169-6.001h-1.364l-1.083 3.088.233-3.088zM14.246 23.999h1.353L14.38 30H13l1.246-6.001z" fill="#FFC424"/><defs><linearGradient id="paint0_linear_3186" x1="10.418" y1="9.712" x2="68.147" y2="76.017" gradientUnits="userSpaceOnUse"><stop stop-color="#1A1E21"/><stop offset="1" stop-color="#06060A"/></linearGradient></defs></svg>