<!-- by TradingView --><svg xmlns="http://www.w3.org/2000/svg" width="56" height="56" viewBox="0 0 56 56"><path fill="#0593DF" d="M0 0h56v56H0z"/><path d="M20.89 12h-2.51l-2.46 2.46c-.58.58-1.44 2.3-.25 4.54.3.52 1.36 1.91 3.22 3.37l1.28-1.22c-1-.79-3.12-2.54-3.62-3.27-.63-.9-.36-1.3-.15-1.51L20.89 12Zm-2.92 0h-1.84l.94.84.9-.84Zm3.44 0H28a16 16 0 1 1 0 32h-4.14l-1.68-2H28a14 14 0 1 0 0-28h-6.43l-1.15-.92 1-1.08ZM24 17h4a11 11 0 0 1 0 22h-4v-2h4a9 9 0 1 0 0-18h-4v-2Zm-.59.72c.06-1.72-2.19-3.6-3.32-4.31l-1.15 1.1c1.2.86 3.6 2.79 3.55 3.62-.06.83-1 2.05-1.47 2.55l-5.1 5.21c-1.37 1.96-.91 3.75-.51 4.4l1.2 2.09 1.32-1.17c-.13-.1-.58-.53-1.33-1.47-.75-.93-.2-1.75.17-2.04.55-.5 2.06-1.92 3.7-3.66 2.06-2.17 2.88-4.16 2.94-6.32Zm-1.3 4.9a4.65 4.65 0 0 1 1.35 3.06 7.7 7.7 0 0 1-1.86 4.72c-.79.91-3.77 4.02-5.16 5.46-.25.22-.6.81 0 1.5s2.71 2.73 3.69 3.67l-1.3 1.2a18.95 18.95 0 0 1-3.16-3.76 4.57 4.57 0 0 1 .32-4.78c.63-.9 2.8-2.92 3.81-3.81.92-.9 2.75-2.97 2.72-4.1a1.48 1.48 0 0 0-.41-.7c-.26-.24-.83-.87-1.08-1.16l1.08-1.3ZM19.8 32.9l-1.23 1.27a29.21 29.21 0 0 1 3.68 3.63c.24.32.17.7 0 1.13-.79 1.91-3.63 4.02-5.27 5.08h2.82c2.55-1.8 3.54-3.93 3.58-5.9a4.37 4.37 0 0 0-1.3-3.17l-2.28-2.04ZM23.4 44h-2.27l-.38-.29 1.34-1.23L23.39 44Z" fill="#fff"/></svg>