<!-- by TradingView --><svg width="56" height="56" viewBox="0 0 56 56" xmlns="http://www.w3.org/2000/svg"><path fill="#445680" d="M0 0h56v56H0z"/><path d="M32.05 23.2c.12-.54-.11-1.2-.67-1.2h-3.67c-.57 0-.94.66-1.07 1.2l-.4 1.68c-.13.55.13.72.66.85l4.51.99c1.9.42 3.3 1.58 2.83 3.56l-.77 3.21A4.55 4.55 0 0 1 29.02 37H23.3c-2.14 0-3.28-1.44-2.78-3.5l.54-2.5h3.57l-.37 1.8c-.13.55.1 1.2.66 1.2h3.98c.56 0 .94-.65 1.07-1.2l.45-1.88c.12-.55-.14-.72-.67-.84l-4.5-1c-1.9-.41-3.3-1.58-2.83-3.55l.72-3.02A4.53 4.53 0 0 1 27.59 19h5.4c2.15 0 3.28 1.44 2.79 3.5l-.5 2.5h-3.57l.33-1.8ZM19.8 19h-9.56L7.29 31.53l4.15-2.06L13.11 22h4.97c.56 0 .8.7.67 1.25l-2.24 9.5c-.13.55-.5 1.25-1.07 1.25H6.8L6 37h9.56a4.55 4.55 0 0 0 4.46-3.55l2.57-10.9c.48-2.1-.65-3.55-2.79-3.55ZM47.1 19h-6.04a4.54 4.54 0 0 0-4.45 3.5L33.99 33.5c-.5 2.07.65 3.5 2.79 3.5h6.05a4.54 4.54 0 0 0 4.45-3.5L48.7 28h-6.43l2.13 2.15-.63 2.64c-.12.55-.5 1.21-1.06 1.21H38.5c-.57 0-.8-.66-.67-1.2l2.28-9.6c.13-.54.5-1.2 1.07-1.2h4.2c.57 0 .8.66.67 1.2l-.39 1.8h3.67l.55-2.5c.5-2.07-.64-3.5-2.78-3.5Z" fill="#fff"/></svg>