<!-- by TradingView --><svg width="56" height="56" viewBox="0 0 56 56" xmlns="http://www.w3.org/2000/svg"><path d="M0 28a28 28 0 1 1 56 0 28 28 0 0 1-56 0Z" fill="#F0F3FA"/><path d="M33.95 13.14a15.96 15.96 0 0 0-10.68-.43A9.17 9.17 0 0 0 22 17c0 2.99 2.18 5.9 3 6.5 1.05-.28 8.25-3.77 8.95-10.36Zm1.96.95a20.61 20.61 0 0 1-3.52 5.95C28.56 24.71 27 25 27 25s1.72 1.4 3.57 2.84a5.5 5.5 0 0 1 8.05 6.67c.55.62 1.5 1.74 2.27 2.98a16 16 0 0 0-4.98-23.4Zm1.12 27.12c-.2-.93-.6-2.18-1.42-3.63A5.48 5.48 0 0 1 28 32.5c0-1.02.28-1.97.76-2.8l-3.26-3.2-.2.13c-1.16.76-6.3 4.1-6.3 10.1 0 2.42.99 4.33 2.23 5.77a15.93 15.93 0 0 0 15.8-1.3Zm-21.97-3.8c-.04-.35-.06-.67-.06-.91 0-.93.47-5.84 4.22-8.75C23 24.81 24 24.5 24 24.5s-4.48-3.39-4.96-9.76a15.98 15.98 0 0 0-3.98 22.67ZM30 32.5c0-.54.12-1.05.34-1.5H35c-.27-.05-1.37-.82-2.66-1.8a3.5 3.5 0 0 1 4.32 4.8H33c.58.64 1.08 1.26 1.5 1.85A3.5 3.5 0 0 1 30 32.5Z" fill="#00457C"/></svg>