<!-- by TradingView --><svg xmlns="http://www.w3.org/2000/svg" width="56" height="56" viewBox="0 0 56 56"><path fill="url(#antmtfugr)" d="M0 0h56v56H0z"/><path d="M44.74 27.2V25H39v.32h1v6.36h-1V32h5.74v-2.2h-.3l-.24.73c-.2.6-.5.97-.9 1.1-.14.04-.28.05-.44.05h-1.43v-3.11h2.24v-.35h-2.24v-2.9h1.43c.6 0 1.02.3 1.27.93l.09.22.22.72h.3zM38.48 30.04c0-.64-.36-1.18-1.07-1.62-.1-.06-.5-.26-1.22-.6-.64-.33-1.05-.65-1.2-.96a1.12 1.12 0 0 1-.13-.5c0-.46.22-.77.66-.93.17-.07.35-.1.55-.1A1.62 1.62 0 0 1 37.79 27h.4v-1.95c-.2 0-.33.07-.36.21l-.01.18c-.6-.3-1.23-.44-1.92-.44-.87 0-1.54.23-2 .7-.3.3-.45.67-.45 1.1 0 .63.35 1.16 1.06 1.59a83 83 0 0 0 1.24.62c.67.32 1.08.64 1.23.96.09.16.13.32.13.5 0 .52-.25.88-.73 1.08-.2.08-.42.12-.66.12-.9 0-1.49-.44-1.77-1.32a3.8 3.8 0 0 1-.15-.81h-.4v2.37c.18 0 .3-.06.33-.17.02-.07.03-.17.03-.32.58.39 1.27.58 2.06.58.93 0 1.64-.24 2.14-.72.34-.34.52-.76.52-1.24zM25 32c-.07-.2-.17-.3-.3-.32h-.99v-6.36h.35c.56 0 .96.28 1.2.86l.1.29.3.97H26V25h-6v2.44h.35l.3-.97c.18-.6.48-.97.89-1.1.12-.04.26-.05.41-.05h.34v6.36H21V32h4zM20 32c0-.18-.05-.28-.15-.3a.5.5 0 0 0-.13-.02h-.34L16.81 25h-.68l-2.43 6.68H13V32h2c0-.18-.05-.28-.15-.3a.58.58 0 0 0-.12-.02h-.59l.62-1.68h2.6l.64 1.68h-.76V32H20zm-2.77-2.36h-2.35l1.17-3.28 1.18 3.28zM33 32c0-.18-.05-.28-.15-.3a.5.5 0 0 0-.12-.02h-.35L29.81 25h-.68l-2.42 6.68H26V32h2c0-.18-.06-.28-.16-.3a.58.58 0 0 0-.12-.02h-.58l.6-1.68h2.6l.65 1.68h-.76V32H33zm-2.77-2.36h-2.35l1.17-3.28 1.18 3.28zM52 32c0-.18-.05-.28-.15-.3a.5.5 0 0 0-.13-.02h-.34L48.81 25h-.68l-2.43 6.68H45V32h2c0-.18-.05-.28-.15-.3a.58.58 0 0 0-.12-.02h-.59l.62-1.68h2.6l.64 1.68h-.76V32H52zm-2.77-2.36h-2.35l1.17-3.28 1.18 3.28z" fill="#fff"/><path d="M4 23v.4h1v8.2H4v.4h4.33c1.36 0 2.48-.42 3.36-1.26.87-.83 1.3-1.9 1.3-3.22 0-1.68-.61-2.93-1.85-3.74A5.08 5.08 0 0 0 8.31 23H4zm4.33.4c1.2 0 2.03.6 2.4 1.78.18.6.27 1.36.27 2.27 0 2.3-.62 3.63-1.78 4.01-.27.09-.56.13-.9.13H7v-8.18h1.33z" fill="#3CA4D0"/><path d="M4 23.4V23h4.31c1.08 0 2.03.26 2.83.78 1.24.81 1.86 2 1.86 3.67l-2 .01c0-.92-.09-1.69-.27-2.29a2.32 2.32 0 0 0-2.4-1.77H7v4.09l-2 .01v-4.1H4z" fill="#F3992F"/><defs><linearGradient id="antmtfugr" x1="10.42" y1="9.71" x2="68.15" y2="76.02" gradientUnits="userSpaceOnUse"><stop stop-color="#1A1E21"/><stop offset="1" stop-color="#06060A"/></linearGradient></defs></svg>