<!-- by TradingView --><svg xmlns="http://www.w3.org/2000/svg" width="56" height="56" viewBox="0 0 56 56"><path fill="#F0F3FA" d="M0 0h56v56H0z"/><path d="M11.4 28.86c0-1.15 1.15-1.45 2.04-1.45H14c0-.44-.3-.61-.83-.61-.43 0-.9.14-1.24.37l-.35-.7a3.26 3.26 0 0 1 1.67-.47c.57 0 1 .13 1.31.4.31.27.44.64.44 1.12V30h-1v-.58c-.2.31-.68.58-1.17.58-.69 0-1.43-.36-1.43-1.14Zm1.1-.12c0 .32.25.56.58.56.6 0 .92-.47.92-1.08V28h-.2c-.95 0-1.3.34-1.3.74ZM16 26.8v1.67c0 1.06.7 1.53 1.82 1.53H18v-.97h-.2c-.46 0-.8-.12-.8-.64v-1.6h1V26h-1v-1h-1v1h-.7v.8h.7Z" fill="#125A92"/><path d="M29 26.8v1.92c0 1.06.71 1.28 1.83 1.28H31v-.8h-.19c-.46 0-.81-.12-.81-.64V26.8h1V26h-1v-1h-1v1h-.7v.8h.7ZM24 29.2l.58-.79c.41.35.93.59 1.47.59.37 0 .95-.17.95-.64 0-.72-1.38-1.04-1.86-1.27a1.57 1.57 0 0 1-.94-1.4c0-1.15 1.08-1.7 1.98-1.69.64 0 1.34.2 1.82.62l-.55.83a1.95 1.95 0 0 0-1.3-.45c-.38 0-.95.14-.95.64s.65.74 1 .87c.77.3 1.8.67 1.8 1.72 0 1.24-1.04 1.77-1.97 1.77a2.9 2.9 0 0 1-2.03-.8ZM36 30v-4h1v1.16c.22-.6.5-1.16 1.6-1.16v1c-.7 0-1.6.63-1.6 1.45V30h-1Z" fill="#218CB7"/><path d="M4 26.5h2v1H4v-1Z" fill="#1D8ABD"/><path d="M6 27.5V30h2.13c1.9 0 2.87-1 2.87-3 0-2.01-.98-3-2.87-3H6v2.5h1V25h1.06c1.1 0 1.94.53 1.94 2 0 1.46-.83 2-1.94 2H7v-1.5H6Z" fill="#125A92"/><path fill-rule="evenodd" d="M45.09 31.2c-.63 0-1.06-.22-1.36-.4l-.27.67c.35.28 1.1.53 1.64.53.98 0 2.4-.42 2.4-2.28V26h-1v.49l.01.02c-.27-.3-.8-.51-1.4-.51-1.01 0-1.81.88-1.81 2 0 1.22.9 2 1.79 2 .55 0 1.14-.24 1.41-.63V30c-.02.84-.78 1.2-1.41 1.2Zm.32-2c.62 0 1.09-.5 1.09-1.2 0-.78-.47-1.2-1.1-1.2-.6 0-1.07.53-1.07 1.2 0 .67.46 1.2 1.08 1.2Z" fill="#218CB7"/><path d="M18.4 28.86c0-1.15 1.15-1.45 2.04-1.45H21c0-.44-.3-.61-.83-.61-.43 0-.9.14-1.24.37l-.35-.7a3.26 3.26 0 0 1 1.67-.47c.57 0 1 .13 1.31.4.31.27.44.64.44 1.12V30h-1v-.58c-.2.31-.68.58-1.17.58-.69 0-1.43-.36-1.43-1.14Zm1.1-.12c0 .32.25.56.58.56.6 0 .92-.47.92-1.08V28h-.2c-.95 0-1.3.34-1.3.74Z" fill="#125A92"/><path d="M39 28.86c0-1.15 1.15-1.45 2.04-1.45h.56c0-.44-.3-.61-.83-.61-.43 0-.9.14-1.24.37l-.35-.7a3.26 3.26 0 0 1 1.67-.47c.57 0 1 .13 1.31.4.31.27.44.64.44 1.12V30h-1v-.58c-.2.31-.68.58-1.17.58-.69 0-1.43-.36-1.43-1.14Zm1.1-.12c0 .32.25.56.58.56.6 0 .92-.47.92-1.08V28h-.2c-.95 0-1.3.34-1.3.74ZM48.2 27.98c0-1.3.97-1.98 1.94-1.98.98 0 1.86.66 1.86 1.7v.6h-2.78c0 .47.51.9 1.01.9a1.9 1.9 0 0 0 1.36-.53l.41.69c-.64.51-1.16.64-1.77.64a1.96 1.96 0 0 1-2.03-2.02Zm1.02-.38H51c0-.4-.33-.8-.86-.8-.52 0-.92.47-.92.8Z" fill="#218CB7"/><path fill-rule="evenodd" d="M31.4 28.78a2 2 0 0 0 .46.65 2.25 2.25 0 0 0 2.98 0 2 2 0 0 0-1.5-3.43 2 2 0 0 0-1.93 2.78Zm1.95.22a1 1 0 1 0 0-2 1 1 0 0 0 0 2Z" fill="#218CB7"/></svg>