<!-- by TradingView --><svg width="56" height="56" viewBox="0 0 56 56" xmlns="http://www.w3.org/2000/svg"><path fill="#E64526" d="M0 0h56v56H0z"/><path d="M32 39.24v2.52c0 .13.1.24.23.24h2.16A4.62 4.62 0 0 0 39 37.35V31h1.53a3.45 3.45 0 0 0 2.45-5.9L29.55 11.64a2.2 2.2 0 0 0-3.1 0L13.02 25.1a3.45 3.45 0 0 0 2.45 5.9H17v6.35c0 2.57 1.83 4.65 4.4 4.65h2.58c1.76 0 3.02-1.42 3.02-3.18V31.5c0-.27.38-.49.65-.49h4.12c.13 0 .23-.1.23-.24v-2.55c0-.14-.1-.21-.23-.21h-4.12c-.27 0-.65-.25-.65-.52v-.65c0-1.22.9-2.83 2.1-2.83h2.68c.14 0 .22-.15.22-.28v-2.47c0-.13-.08-.25-.22-.25h-2.67C26.27 21 24 23.58 24 26.42v12.06c0 .27-.24.52-.5.52h-2.52a1 1 0 0 1-.98-1v-8.44c0-.81-.52-1.56-1.33-1.56h-2.35c-.4 0-1.03-.24-1.03-.64 0-.2.08-.38.22-.52l11.8-11.82a.98.98 0 0 1 1.38 0l11.8 11.82c.14.14.22.32.22.52 0 .4-.33.64-.74.64h-2.7c-.81 0-1.27.75-1.27 1.56v8.46c0 .54-.63.98-1.17.98h-2.6c-.13 0-.23.1-.23.24Z" fill="#fff"/></svg>