<!-- by TradingView --><svg xmlns="http://www.w3.org/2000/svg" width="56" height="56"><path fill="#F0F3FA" d="M0 0h56v56H0z"/><path d="M18.1 12h19.8a6.09 6.09 0 016.1 6.09v19.82A6.09 6.09 0 0137.9 44H18.1a6.1 6.1 0 01-6.1-6.1V18.1a6.09 6.09 0 016.1-6.1z" fill="#50C800"/><path d="M44 32.52v-9.23a7.23 7.23 0 00-1.56-2.35c.06-.99-.16-2-.68-2.89a1 1 0 00-1.6-.16l-1.04 1.14h-.02a5.16 5.16 0 00-.56-3.09c-.31-.6-1-.7-1.48-.22l-4.97 5.02-.17.17h-.01c-2.16 1.96-5.53 2.04-7.58.25a7 7 0 00-.4-.4l-4.98-5.04c-.48-.48-1.17-.38-1.49.22-.5.96-.69 2.03-.56 3.07h-.03l-1.02-1.12a1 1 0 00-1.61.16c-.5.88-.73 1.86-.68 2.83A7.3 7.3 0 0012 23.14v9.52A7.26 7.26 0 0018.65 37h.32a7.26 7.26 0 006.62-4.27l2.37-.01h2.48A7.26 7.26 0 0037.07 37h.22A7.26 7.26 0 0044 32.52z" fill="#8EE000"/><path d="M19 21.5c2.76 0 5 2.26 5 5.05v2.99a5.02 5.02 0 01-5 5.05c-2.76 0-5-2.26-5-5.05v-3a5.02 5.02 0 015-5.04zm18 0c2.76 0 5 2.26 5 5.05v2.99a5.02 5.02 0 01-5 5.05c-2.76 0-5-2.26-5-5.05v-3a5.02 5.02 0 015-5.04z" fill="#F0F3FA"/><path d="M19.5 24.4c1.38 0 2.5 1.07 2.5 2.4v2.55c0 1.33-1.12 2.4-2.5 2.4a2.45 2.45 0 01-2.5-2.4V26.8c0-1.33 1.12-2.4 2.5-2.4z" fill="#4B4B4B"/><path d="M28 30.2a2.74 2.74 0 012.75 2.75v.96a2.74 2.74 0 11-5.5 0v-.96A2.74 2.74 0 0128 30.21z" fill="#F48000"/><path d="M24.21 33.21a3.85 3.85 0 013.9-3c1.76 0 3.36 1.29 3.68 3v.15c0 .1-.04.15-.14.14l-3.54.63h-.21l-3.55-.64c-.1.02-.14-.03-.14-.14v-.14z" fill="#FFC200"/><path d="M27.42 30.8a2.46 2.46 0 011.18.02c.41.1.7.48.7.9 0 .34-.28.62-.62.62h-1.36a.62.62 0 01-.62-.62c0-.43.3-.8.72-.91z" fill="#FFE747"/><path d="M36.5 24.4c1.38 0 2.5 1.07 2.5 2.4v2.55c0 1.33-1.12 2.4-2.5 2.4a2.45 2.45 0 01-2.5-2.4V26.8c0-1.33 1.12-2.4 2.5-2.4z" fill="#4B4B4B"/><path d="M17.56 27.3a1.54 1.54 0 100-3.08 1.54 1.54 0 000 3.09zm16.6 0a1.54 1.54 0 100-3.08 1.54 1.54 0 000 3.09z" fill="#F0F3FA"/></svg>