<!-- by TradingView --><svg width="56" height="56" xmlns="http://www.w3.org/2000/svg"><path fill="#F0F3FA" d="M0 0h56v56H0z"/><path fill-rule="evenodd" d="M4 25h3.041C7.95 25 10 25.82 10 28.363 10 31.131 8.079 32 7.041 32H4v-7zm1 1.003h1.689C7.42 25.959 9 26.457 9 28.456 9 30.558 7.497 31.013 6.689 31H5v-4.997z" fill="#95D70A"/><path d="M13.996 28.254L12 25h-1l2.5 4.194V32h1v-2.806L17 25h-1l-2.004 3.254zM18.002 25v7H19v-5.32L23 32h1.006v-7H23v5.246L19 25h-.998z" fill="#95D70A"/><path d="M28 25l-3 7h1l2.5-5.5L31 32h1l-3-7h-1zm7 7l-3-7h1l2.5 5.5L38 25h1l-3 7h-1z" fill="#007CBB"/><path d="M38.24 32l3-7h1l3 7h-.997l-.913-2h-3.169l-.913 2H38.24zm3.494-5.553L40.596 29h2.318l-1.18-2.553z" fill="#95D70A"/><path d="M47 25h-1l2.227 3.5L46 32h1l2-3 2 3h1l-2.215-3.5L52 25h-1l-2 3-2-3z" fill="#95D70A"/></svg>