<!-- by TradingView --><svg width="56" height="56" viewBox="0 0 56 56" xmlns="http://www.w3.org/2000/svg"><path fill="#F0F3FA" d="M0 0h56v56H0z"/><path d="m9 39 7.11-22h4.68l7.2 22h-4.13l-1.63-5H14l-1.54 5H9Zm5.93-8h6.32l-3.24-9.96L14.93 31Z"/><path d="M37.33 17c5.25.07 7.32 3.05 7.7 4.54l-3.72 1.01A4.77 4.77 0 0 0 37.33 20c-1.5-.04-4.33.6-4.33 2.85s4.02 2.74 5.81 3.01c6.92 1.14 7.1 5.04 7.19 6.32.08 1.27-.97 6.78-8.67 6.82-6.17.03-8.79-3.57-9.33-5.38l3.9-.98c.3.68 1.44 3.36 5.43 3.36C41.3 36 42 34.01 42 33.07c0-.39.05-2.38-5.6-3.44-5.64-1.06-7.31-3.85-7.4-6.06-.09-2.2 1.76-6.65 8.33-6.57Z" fill="#EC5823"/></svg>