<!-- by TradingView --><svg xmlns="http://www.w3.org/2000/svg" width="56" height="56"><path fill="url(#ahtrlv00p)" d="M0 0h56v56H0z"/><path d="M13.76 33C16.8 33 19 31.5 19 28.54c0-2.95-2.3-4.54-5.24-4.54H11v9h2.76zm0-12c4.9 0 8.24 3.23 8.24 7.46v.04c0 4.23-3.38 7.5-8.24 7.5H8V21h5.76zM27 28.4L22 21h3.44l5.05 7.4-5.05 7.6H22l5-7.6zm9-7.4h-3.48l-3.3 4.23 1.74 2.57L36 21zm-6.71 10.41L32.55 36H36l-4.94-7.03-1.77 2.44zM38 21v15h10v-3h-7V21h-3z" fill="#fff"/><defs><linearGradient id="ahtrlv00p" x1="10.42" y1="9.71" x2="68.15" y2="76.02" gradientUnits="userSpaceOnUse"><stop stop-color="#1A1E21"/><stop offset="1" stop-color="#06060A"/></linearGradient></defs></svg>