<!-- by TradingView --><svg width="56" height="56" viewBox="0 0 56 56" xmlns="http://www.w3.org/2000/svg"><path fill="#03456C" d="M0 0h56v56H0z"/><path d="m15.4 20.01-.11-.01H9v16h6.4c4.4-.14 6.6-2.79 6.6-7.97 0-5.19-2.22-7.98-6.6-8.02Zm1.36 13.23c-.4.94-1.2 1.76-2.2 1.76H13V21h1.55c.99 0 1.83.86 2.22 1.78.4.95.61 2.7.61 5.22 0 2.52-.2 4.29-.62 5.24ZM43.02 20H36v16h5v-7h1.55c4.29-.04 6.45-1.18 6.45-4.3 0-3.11-2-4.7-5.98-4.7Zm-.47 7.9c-.24.05-.5.1-.78.1H41v-7h.77c.28 0 .54.02.78.08 1.19.28 1.81 1.8 1.81 3.55 0 1.87-.62 2.95-1.81 3.26Z" fill="#fff"/><path d="m39 14-8.42 12.15L35.14 36h-5.58l-2.53-5.55L19 41 17 40.95l9.23-12.19L21.97 20h5.6l2.2 4.45L37 14h2Z" fill="#fff"/></svg>