<!-- by TradingView --><svg width="56" height="56" viewBox="0 0 56 56" xmlns="http://www.w3.org/2000/svg"><path fill="#F0F3FA" d="M0 0h56v56H0z"/><path d="M10.06 23C12.9 23 15 25.3 15 28c0 2.71-2.1 5-4.94 5H6V23h4.06Zm0 8A2.9 2.9 0 0 0 13 28c0-1.54-1.3-3-2.94-3H8v6h2.06Zm11.44 2-.7-2h-3.63l-.67 2H14l3.5-10h3L24 33h-2.5Zm-3.7-4h2.4L19 25l-1.2 4Z" fill="#21376C"/><path d="M32 33h-2.5l-2-3.5-2 3.5H23l3-5.13L23 23h2.5l2 3 2-3H32l-3 4.87L32 33Zm15.4 0-1.9-3H44v3h-2V23h3.95C47.8 23 49 24.6 49 26.5c0 1.57-.53 2.16-1.77 2.8L50 33h-2.6ZM44 25v3h1.87c.67 0 1.13-.5 1.13-1.5s-.46-1.5-1.13-1.5H44Z" fill="#21376C"/><path fill-rule="evenodd" d="M31 28a5 5 0 1 0 9.99.01A5 5 0 0 0 31 28Zm5-3c-.26 1.43-.78 1.85-1.22 2.22-.43.34-.78.63-.78 1.66 0 1.7 1.33 2.12 2 2.12.67 0 2-.42 2-2.12 0-1.03-.35-1.32-.78-1.66-.44-.37-.96-.8-1.22-2.22Z" fill="#21376C"/></svg>