<!-- by TradingView --><svg xmlns="http://www.w3.org/2000/svg" width="56" height="56" viewBox="0 0 56 56"><path fill="#F0F3FA" d="M0 0h56v56H0z"/><path d="M16.44 19c-1.93 0-3.84.86-5.44 2.1v7.32c0 .38-.15.58-.5.58s-.5-.24-.5-.58v-7.89A9.53 9.53 0 0 1 16.44 18c5.43 0 8.79 3.88 12.03 7.63l.34.4c.14.15.2.26.19.47 0 .3-.22.5-.51.5-.2 0-.35-.12-.5-.28l-1.1-1.23C24.1 22.39 21.09 19 16.44 19Zm.38 3c-.83 0-2.05.13-2.82.84v5.65c0 .35-.25.51-.5.51s-.5-.16-.5-.5v-6.1c.9-.96 2.46-1.4 3.82-1.4 3.09 0 6.03 2.78 7.97 5.04.13.13.21.3.21.44 0 .3-.21.51-.5.51a.59.59 0 0 1-.45-.2C22.5 24.9 19.44 22 16.82 22ZM45 34.9a9.16 9.16 0 0 1-5.44 2.1c-4.65 0-7.68-3.38-10.45-6.49L28 29.28c-.15-.16-.3-.28-.49-.28-.3 0-.5.2-.51.5 0 .2.05.32.18.47l.35.4c3.24 3.75 6.6 7.63 12.03 7.63 2.46 0 4.57-.9 6.44-2.53v-7.9c0-.33-.16-.57-.5-.57-.35 0-.5.2-.5.58v7.33Zm-5.82-.9c.83 0 2.05-.13 2.82-.84V27.5c0-.35.25-.51.5-.51.24 0 .5.16.5.5v6.1c-.91.96-2.46 1.4-3.82 1.4-3.1 0-6.04-2.78-7.97-5.04a.66.66 0 0 1-.21-.44c0-.3.2-.51.5-.51.14 0 .32.06.45.2C33.5 31.1 36.55 34 39.18 34Z" fill="#024D96"/><path d="M39.15 18c-2.91 0-5.36 1.67-7.19 3.24a21.6 21.6 0 0 0-2.86 2.94.59.59 0 0 0-.1.34c0 .16.07.29.2.38.1.07.2.1.31.1.16 0 .33-.09.43-.22.78-1 1.75-2 2.67-2.78 1.77-1.52 3.99-3 6.54-3 2.07 0 4.27.96 5.99 2.2.25.18.53.18.73-.06.08-.1.13-.22.13-.34a.44.44 0 0 0-.18-.34c-1.87-1.4-4.35-2.46-6.67-2.46Zm-6.02 6.22C35 22.56 37.07 21 39.56 21c1.51 0 2.94.62 4.16 1.5.11.09.28.23.28.42a.5.5 0 0 1-.1.32c-.16.24-.46.3-.77.09A6.45 6.45 0 0 0 39.56 22c-2.07 0-3.89 1.3-5.76 2.97a54.3 54.3 0 0 0-3.89 3.84.56.56 0 0 1-.4.19.5.5 0 0 1-.34-.12.52.52 0 0 1-.17-.39c0-.12.05-.27.13-.36a54.86 54.86 0 0 1 4-3.9ZM16.43 35c2.5 0 4.56-1.56 6.43-3.22a54.86 54.86 0 0 0 4-3.91.56.56 0 0 0 .14-.36.52.52 0 0 0-.17-.39.5.5 0 0 0-.35-.12c-.14 0-.3.08-.4.19a54.25 54.25 0 0 1-3.88 3.84C20.32 32.7 18.5 34 16.44 34c-1.3 0-2.52-.6-3.57-1.33-.31-.21-.6-.15-.78.1a.5.5 0 0 0-.09.3c0 .2.17.34.28.43a7.17 7.17 0 0 0 4.16 1.5Zm.42 3c2.91 0 5.35-1.67 7.19-3.24.98-.84 2.03-1.89 2.86-2.94.07-.09.1-.23.1-.34 0-.16-.07-.29-.2-.38a.5.5 0 0 0-.32-.1.56.56 0 0 0-.42.22c-.78 1-1.75 2-2.67 2.78-1.77 1.52-3.99 3-6.54 3-2.07 0-4.28-.96-6-2.2-.24-.18-.53-.18-.72.06a.51.51 0 0 0-.13.34c0 .13.07.26.18.34 1.87 1.4 4.34 2.46 6.67 2.46Z" fill="#9A9A9B"/></svg>