<!-- by TradingView --><svg xmlns="http://www.w3.org/2000/svg" width="56" height="56" viewBox="0 0 56 56"><path fill="#F0F3FA" d="M0 0h56v56H0z"/><path fill-rule="evenodd" d="M32.1 15H29v9h3.1a3.2 3.2 0 0 0 3.2-3.2v-2.6a3.2 3.2 0 0 0-3.2-3.2Zm-.6 1h-1.2v7h1.2a2.5 2.5 0 0 0 2.5-2.5v-2a2.5 2.5 0 0 0-2.5-2.5ZM13.1 15H10v9h3.1a3.2 3.2 0 0 0 3.2-3.2v-2.6a3.2 3.2 0 0 0-3.2-3.2Zm-.6 1h-1.2v7h1.2a2.5 2.5 0 0 0 2.5-2.5v-2a2.5 2.5 0 0 0-2.5-2.5Z" fill="#1E2A47"/><path d="M18.56 20.45 15.84 15h1.41l1.95 4.22 2-4.22h1.3l-2.71 5.45V24h-1.23v-3.55Z" fill="#1E2A47"/><path fill-rule="evenodd" d="m20.87 24 2.95-9h1.64l2.77 9h-1.29l-.75-2.47h-3.24L22.2 24h-1.33Zm2.3-3.34 1.47-4.43 1.32 4.43h-2.79Z" fill="#1E2A47"/><path fill="#1E2A47" d="M36 15.04h1.3V24H36zM38 18.26a3.22 3.22 0 0 1 6.39-.58h-1.4a1.85 1.85 0 0 0-3.69.17v3.3a1.85 1.85 0 1 0 3.7 0V21h1.43a3.22 3.22 0 0 1-6.43-.22v-2.52Z"/><path d="M10 25h36v3H34v17h-3V28h-6v17h-3V28H10v-3Z" fill="#7D2521"/></svg>