<!-- by TradingView --><svg width="56" height="56" viewBox="0 0 56 56" xmlns="http://www.w3.org/2000/svg"><path fill="#F0F3FA" d="M0 0h56v56H0z"/><path d="M16.85 24.96h2.07c0-7.96 6.58-10.61 9.87-10.94-8.3-.4-11.08 5.8-11.42 8.95h-.52c-1.56 0-8.31 1-8.83 8.95-.41 6.37 5.37 8.62 8.3 8.95 5.9.17 19.01.3 24.41-.5 5.4-.79 7.1-5.96 7.27-8.45-.83 4.78-5.2 6.96-7.27 7.46l-24.4-.5c-2.08 0-6.23-1.39-6.23-6.96s4.5-6.96 6.75-6.96Z" fill="url(#ahksirnde)"/><path d="M26 32.5c-1.2.4-2.83.17-3 0 .33.5 1.5 1.5 3.5 1.5C28 34 35 25.5 38 26c1.63.27 2.5 1 3.5 3 2-2.5-2-4.5-3-5-3.5 1-11 8-12.5 8.5Z" fill="url(#bhksirnde)"/><path d="M27 20h-2l-1 5h4c2.8 0 3.83-2.67 4-4 .4-4-2.5-5-4-5h-2l-.5 2H28c1 0 2 1 2 3 0 1.6-1.33 2-2 2h-1.5l.5-3Z" fill="url(#chksirnde)"/><path d="M32 18a3.39 3.39 0 0 0-2-2h8l-.5 2h-2l-2 7h-2l2-7H32Z" fill="url(#dhksirnde)"/><path d="M24 32.5c0 1.2 1.67 1.33 2.5 1.5-1.5 1-2.78 1-3.5 1-1 0-2-1-2-2s1-3 5-3 9 2 12 2c2.4 0 3.33-1.67 3.5-2.5.4-2.8-1.83-4.83-3-5.5H41c2.5 0 5.5 3 5 6s-2.5 6.5-7 7-12-5.5-13.5-5.5c-1.2 0-1.5.5-1.5 1Z" fill="url(#ehksirnde)"/><defs><linearGradient id="ahksirnde" x1="7.5" y1="33.91" x2="44.32" y2="38.24" gradientUnits="userSpaceOnUse"><stop stop-color="#0E67AF"/><stop offset=".28" stop-color="#2498C7"/><stop offset="1" stop-color="#2B70A4"/></linearGradient><linearGradient id="bhksirnde" x1="39.5" y1="25" x2="26.5" y2="33.5" gradientUnits="userSpaceOnUse"><stop stop-color="#208BD1"/><stop offset=".5" stop-color="#ADDAED"/><stop offset="1" stop-color="#156EB2"/></linearGradient><linearGradient id="chksirnde" x1="25" y1="21.5" x2="32" y2="21.5" gradientUnits="userSpaceOnUse"><stop stop-color="#2AB26F"/><stop offset="1" stop-color="#305D8B"/></linearGradient><linearGradient id="dhksirnde" x1="31" y1="21.5" x2="37" y2="21.5" gradientUnits="userSpaceOnUse"><stop stop-color="#2AB26F"/><stop offset=".54" stop-color="#315E8C"/><stop offset="1" stop-color="#305D8B"/></linearGradient><linearGradient id="ehksirnde" x1="43.5" y1="25" x2="21.5" y2="34" gradientUnits="userSpaceOnUse"><stop stop-color="#198BCA"/><stop offset=".14" stop-color="#2CAEE2"/><stop offset=".23" stop-color="#2190D5"/><stop offset=".51" stop-color="#5DC8F4"/><stop offset=".82" stop-color="#016DB5"/><stop offset=".89" stop-color="#43A7D9"/><stop offset="1" stop-color="#0D67A6"/></linearGradient></defs></svg>