<!-- by TradingView --><svg width="56" height="56" viewBox="0 0 56 56" xmlns="http://www.w3.org/2000/svg"><path fill="#F0F3FA" d="M0 0h56v56H0z"/><path d="M23.9 19.01A5.02 5.02 0 0 0 19 13a5 5 0 0 0-1.08 9.88c2.25 1.37 5.01 4.02 5.1 8.49l.15-.07A4.77 4.77 0 0 0 28 36.48c2.68 0 4.86-2.1 4.86-4.68 0-2.18-1.54-4-3.63-4.53-2.29-1.46-5.17-4.24-5.33-8.26Z" fill="#115DA9"/><path d="M32.08 18.88a5 5 0 1 1 6.22 3.95 9.9 9.9 0 0 0-5.35 8.47 5 5 0 1 1-5.92-4.21c2.26-1.51 4.94-4.29 5.05-8.21Z" fill="#E12526"/><circle r="4" transform="matrix(-1 0 0 1 28 42)" fill="#115DA9"/></svg>