<!-- by TradingView --><svg width="56" height="56" viewBox="0 0 56 56" xmlns="http://www.w3.org/2000/svg"><path fill="#051731" d="M0 0h56v56H0z"/><path d="M21 20h14v2.4c1.27-1.5 3.6-2.4 6.27-2.4 3.2 0 5.37.95 6.06 1.42l-1.66 3.66A9.34 9.34 0 0 0 41.6 24c-2.07 0-2.6.54-2.6.88 0 .6 1.06.8 2.24 1 .55.1 1.12.2 1.63.36 4.33 1.15 5.13 2.64 5.13 4.4 0 .56-.15 1.3-.52 2.04-2.1-2.09-6.83-5.5-13.45-6.97v-.08l-.07.07c-1.8-.4-3.74-.65-5.8-.7l1.04-1h-7.27c.26.44.47.92.64 1.4-1.73.3-3.34.73-4.8 1.24A4 4 0 0 0 14 24h-1v4.82a22.06 22.06 0 0 0-5 3.83V20h7a7.98 7.98 0 0 1 6 2.7V20ZM8 33.07V36h7a7.98 7.98 0 0 0 6-2.7V36h14v-1.1c1.04.56 2.9 1.1 5.87 1.1 3.74 0 5.65-1.56 6.51-3.13-1.66-1.62-5.9-4.17-12.68-5.3.82 1.13 2.33 1.64 4.23 2.12l1.72.42c1.67.4 2.35.55 2.35 1.08 0 .67-1.27.81-2.53.81-1.27 0-3.74-.75-5-1.36L34.9 32h-6.84l4.43-4.73a45.18 45.18 0 0 0-6.41-.25l-3.43 3.33a8 8 0 0 0 .31-3.1c-1.8.19-3.46.5-4.96.88A4 4 0 0 1 14 32h-1v-2.14a18.12 18.12 0 0 0-5 3.2Z" fill="#fff"/></svg>