<!-- by TradingView --><svg width="56" height="56" viewBox="0 0 56 56" xmlns="http://www.w3.org/2000/svg"><path fill="#F0F3FA" d="M0 0h56v56H0z"/><path fill-rule="evenodd" d="M50 20H6v4h28v1H6v9h23.08c.2.42.46.78.74 1H25.6l-.7 1H50V20ZM8 29v-2h4v1H9v1h3v1H9v1h4l-.4 1H8v-2H7v-1h1Zm40-5v1h-3v4h3v1h-3v3h4v1h-5v-4h-1v-1h1v-5h4Zm-12 2h-1v8h1v-8Zm-1-2h1v1h-1v-1Zm-7 4h1.49c.11-.34.18-.5.51-1h-5v1h2v4h1v-4Zm-12.43-1H19v1h-1.36L19 32h-1.3l-.34-1h-1.83l-1.1 3H13l2.2-6H14v-1h1.57Zm1.45 3-.54-1.59L15.9 30h1.12Zm6.2-1.64.78-.64c-.19-.24-.82-.72-1.86-.72-1.3 0-1.86.87-1.86 1.5 0 .64.67 1.12 1.5 1.4.85.26 1 .41 1 .71s-.43.49-.78.49c-.28 0-.98-.32-1.3-.49l-.7.7c.3.23 1.13.69 2 .69 1.09 0 2-.66 2-1.39 0-.72-.46-1.26-1.23-1.53l-.28-.1c-.6-.2-.98-.33-.98-.62 0-.34.24-.46.63-.46.3 0 .85.3 1.09.46ZM34 28l-.77.89c-.24-.21-.78-.63-1.09-.63-.39 0-.63.16-.63.63 0 .4.37.58.98.88l.28.13c.77.38 1.23 1.14 1.23 2.15S33.09 34 32 34c-.87 0-1.7-.65-2-.97l.7-.97a3.9 3.9 0 0 0 1.3.67c.35 0 .77-.25.77-.67 0-.42-.14-.63-.98-1.01s-1.5-1.06-1.5-1.94c0-.89.55-2.11 1.85-2.11 1.04 0 1.67.67 1.86 1.01ZM37 24h3a3 3 0 0 1 3 3v4a3 3 0 0 1-3 3h-3V24Zm1 1h2a2 2 0 0 1 2 2v4a2 2 0 0 1-2 2h-2v-8Z"/><path d="M9.72 22.02h-.3a.32.32 0 0 0-.12-.2.35.35 0 0 0-.11-.06.47.47 0 0 0-.36.05.4.4 0 0 0-.16.17.63.63 0 0 0-.05.28c0 .11.02.2.05.28a.4.4 0 0 0 .16.18c.06.04.14.05.22.05l.14-.01a.37.37 0 0 0 .1-.05.32.32 0 0 0 .14-.2h.29a.59.59 0 0 1-.4.47.8.8 0 0 1-.27.03.75.75 0 0 1-.37-.09.64.64 0 0 1-.26-.25.83.83 0 0 1-.09-.41c0-.16.03-.3.1-.4.06-.12.14-.2.25-.26.11-.06.23-.1.37-.1.09 0 .17.02.24.04.08.02.15.06.2.1.06.05.11.1.15.16.04.07.06.14.08.22ZM9.93 22.94v-1.43h.61c.13 0 .23.02.31.05.09.04.15.1.2.17.04.06.06.14.06.24 0 .09-.02.17-.06.24a.42.42 0 0 1-.2.15.8.8 0 0 1-.31.06h-.44v-.22h.4a.5.5 0 0 0 .18-.03.2.2 0 0 0 .1-.08.23.23 0 0 0 .03-.12c0-.06 0-.1-.03-.13a.21.21 0 0 0-.1-.09.48.48 0 0 0-.18-.03h-.27v1.22h-.3Zm.84-.65.4.65h-.33l-.39-.65h.32ZM11.6 22.94h-.28l.52-1.43h.34l.52 1.43h-.29l-.4-1.14-.4 1.14Zm.02-.56h.78v.2h-.78v-.2ZM13 22.94v-1.43h.94v.21h-.68v.4h.62v.21h-.62v.61H13ZM14.16 21.72v-.21h1.24v.21h-.48v1.22h-.28v-1.22h-.48ZM17.52 21.93a.2.2 0 0 0-.1-.15.35.35 0 0 0-.19-.05.4.4 0 0 0-.15.03.22.22 0 0 0-.1.06.16.16 0 0 0 0 .18.2.2 0 0 0 .06.06l.08.04.1.02.14.04a1 1 0 0 1 .16.05l.14.08a.35.35 0 0 1 .14.29c0 .09-.02.16-.07.23a.45.45 0 0 1-.2.15.8.8 0 0 1-.3.05.82.82 0 0 1-.31-.05.46.46 0 0 1-.2-.15.45.45 0 0 1-.08-.25h.27c0 .05.02.1.05.13.02.03.06.05.1.07.05.02.1.03.16.03s.12-.01.16-.03a.25.25 0 0 0 .1-.07.17.17 0 0 0 .05-.11.14.14 0 0 0-.04-.1.26.26 0 0 0-.1-.06.95.95 0 0 0-.14-.05l-.17-.04a.7.7 0 0 1-.3-.14.32.32 0 0 1-.1-.25c0-.09.02-.16.07-.23a.48.48 0 0 1 .2-.15.71.71 0 0 1 .28-.05c.11 0 .2.01.29.05.08.04.14.09.19.15.05.06.07.14.07.22h-.26ZM18.1 22.94v-1.43h.6a.7.7 0 0 1 .3.06.44.44 0 0 1 .26.41c0 .1-.02.18-.07.25a.44.44 0 0 1-.19.17.72.72 0 0 1-.31.06h-.4v-.22h.36a.4.4 0 0 0 .18-.03.23.23 0 0 0 .1-.1.27.27 0 0 0 .03-.13c0-.05 0-.1-.03-.13a.22.22 0 0 0-.1-.1.41.41 0 0 0-.18-.03h-.27v1.22h-.29ZM19.77 21.5v1.44h-.3v-1.43h.3ZM20.06 22.94v-1.43h.6c.13 0 .24.02.32.05.09.04.15.1.2.17.04.06.06.14.06.24 0 .09-.02.17-.07.24a.42.42 0 0 1-.2.15.8.8 0 0 1-.3.06h-.44v-.22h.4a.5.5 0 0 0 .17-.03.2.2 0 0 0 .1-.08.23.23 0 0 0 .04-.12c0-.06-.01-.1-.03-.13a.21.21 0 0 0-.1-.09.48.48 0 0 0-.19-.03h-.27v1.22h-.29Zm.84-.65.4.65h-.33l-.4-.65h.33ZM21.8 21.5v1.44h-.28v-1.43h.29ZM22.17 21.72v-.21h1.17v.21h-.45v1.22h-.27v-1.22h-.45ZM24.42 21.93a.2.2 0 0 0-.1-.15.38.38 0 0 0-.2-.05c-.07 0-.12.01-.16.03a.23.23 0 0 0-.1.06.16.16 0 0 0-.04.1l.02.08a.2.2 0 0 0 .07.06l.09.04.1.02.15.04.17.05.16.08c.04.04.08.08.1.12.03.05.04.1.04.17 0 .09-.02.16-.07.23a.47.47 0 0 1-.21.15.9.9 0 0 1-.33.05.91.91 0 0 1-.33-.05.48.48 0 0 1-.21-.15.43.43 0 0 1-.09-.25h.3c0 .05.01.1.04.13s.07.05.12.07c.05.02.1.03.17.03a.5.5 0 0 0 .16-.03.27.27 0 0 0 .12-.07.17.17 0 0 0 .04-.11.13.13 0 0 0-.04-.1.27.27 0 0 0-.1-.06l-.15-.05-.18-.04a.77.77 0 0 1-.32-.14.31.31 0 0 1-.11-.25c0-.09.02-.16.07-.23a.5.5 0 0 1 .22-.15.8.8 0 0 1 .3-.05c.11 0 .21.01.3.05s.15.09.2.15c.05.06.08.14.08.22h-.28ZM29.31 22.02h-.3a.33.33 0 0 0-.13-.2.38.38 0 0 0-.12-.06.51.51 0 0 0-.38.05.41.41 0 0 0-.17.17.6.6 0 0 0-.05.28c0 .11.02.2.05.28.04.08.1.14.17.18.07.04.15.05.24.05l.13-.01a.4.4 0 0 0 .12-.05.33.33 0 0 0 .14-.2h.3a.53.53 0 0 1-.07.2.6.6 0 0 1-.15.16.7.7 0 0 1-.21.1.88.88 0 0 1-.27.04.83.83 0 0 1-.39-.09.66.66 0 0 1-.27-.25.8.8 0 0 1-.1-.41c0-.16.04-.3.1-.4.07-.12.16-.2.27-.26a.92.92 0 0 1 .64-.06c.09.02.16.06.22.1a.56.56 0 0 1 .23.38ZM29.6 22.94v-1.43h.61c.12 0 .23.02.31.05.09.04.15.1.2.17.04.06.06.14.06.24 0 .09-.02.17-.06.24a.42.42 0 0 1-.2.15.8.8 0 0 1-.31.06h-.44v-.22h.4a.5.5 0 0 0 .18-.03.2.2 0 0 0 .1-.08.23.23 0 0 0 .03-.12c0-.06 0-.1-.03-.13a.21.21 0 0 0-.1-.09.48.48 0 0 0-.18-.03h-.27v1.22h-.3Zm.84-.65.4.65h-.33l-.4-.65h.33ZM31.3 22.94H31l.58-1.43h.37l.58 1.43h-.32l-.44-1.14h-.02l-.43 1.14Zm.02-.56h.87v.2h-.87v-.2ZM32.8 22.94v-1.43h1.03v.21h-.73v.4h.66v.21h-.66v.61h-.3ZM34.12 21.72v-.21h1.24v.21h-.48v1.22h-.28v-1.22h-.48ZM38.2 22.02h-.3a.33.33 0 0 0-.13-.2.38.38 0 0 0-.13-.06.51.51 0 0 0-.38.05.41.41 0 0 0-.16.17.6.6 0 0 0-.06.28c0 .11.02.2.06.28.04.08.1.14.16.18.07.04.15.05.24.05l.14-.01a.4.4 0 0 0 .12-.05.33.33 0 0 0 .14-.2h.3a.53.53 0 0 1-.07.2.6.6 0 0 1-.15.16.7.7 0 0 1-.21.1.88.88 0 0 1-.27.04.83.83 0 0 1-.39-.09.66.66 0 0 1-.27-.25.8.8 0 0 1-.1-.41c0-.16.03-.3.1-.4.07-.12.16-.2.27-.26a.92.92 0 0 1 .64-.06c.08.02.16.06.22.1a.56.56 0 0 1 .23.38ZM38.74 22.94h-.32l.58-1.43h.37l.58 1.43h-.32l-.44-1.14h-.01l-.44 1.14Zm0-.56h.88v.2h-.87v-.2ZM41.55 21.5v1.44h-.27l-.8-.98v.98h-.31v-1.43h.27l.8.97v-.97h.31ZM43.22 21.5v1.44h-.27l-.79-.98h-.01v.98h-.3v-1.43h.26l.8.97h.01v-.97h.3ZM43.88 21.5v1.44h-.3v-1.43h.3ZM45.63 21.5v1.44h-.26l-.75-.98h-.01v.98h-.3v-1.43h.27l.75.97h.01v-.97h.29ZM47.06 22a.36.36 0 0 0-.25-.24.51.51 0 0 0-.37.04.41.41 0 0 0-.16.18.6.6 0 0 0-.06.28c0 .1.02.2.06.28.04.08.1.14.16.18.07.04.15.05.24.05a.5.5 0 0 0 .22-.04c.06-.03.1-.07.14-.12a.34.34 0 0 0 .05-.19l.07.01h-.45v-.2h.67v.17c0 .13-.03.24-.1.33a.59.59 0 0 1-.24.21.84.84 0 0 1-.36.07.84.84 0 0 1-.4-.09.66.66 0 0 1-.26-.26.8.8 0 0 1-.1-.4c0-.12.02-.22.06-.32a.68.68 0 0 1 .4-.38c.09-.04.18-.05.3-.05.08 0 .17 0 .25.03a.7.7 0 0 1 .2.1c.07.05.12.1.16.16a.5.5 0 0 1 .07.2h-.3ZM26 21l.22.7h.73l-.59.42.23.69-.59-.43-.59.43.23-.7-.6-.42h.74L26 21Z" fill="#fff"/><path d="m7 34 .22.7h.73l-.59.42.23.69-.59-.43-.59.43.23-.7-.6-.42h.74L7 34ZM24 34l.22.7h.73l-.59.42.23.69-.59-.43-.59.43.23-.7-.6-.42h.74L24 34ZM8.04 35.93v-1.37h.53c.1 0 .2.02.27.06.07.04.13.1.16.16.04.07.06.15.06.24 0 .08-.02.16-.06.23a.4.4 0 0 1-.17.16.58.58 0 0 1-.27.06h-.35v-.2h.32c.06 0 .11-.02.15-.04a.2.2 0 0 0 .1-.09.27.27 0 0 0 .02-.12c0-.05 0-.1-.03-.13a.2.2 0 0 0-.09-.09.34.34 0 0 0-.15-.03h-.24v1.16h-.25ZM10.52 35.28c0 .15-.03.28-.08.39a.59.59 0 0 1-.23.24.6.6 0 0 1-.31.09.6.6 0 0 1-.32-.09.6.6 0 0 1-.22-.24.85.85 0 0 1-.08-.39c0-.15.03-.28.08-.38a.6.6 0 0 1 .22-.25.6.6 0 0 1 .32-.09.59.59 0 0 1 .54.33c.05.11.08.24.08.4Zm-.25 0c0-.1-.01-.2-.05-.27a.34.34 0 0 0-.33-.22.34.34 0 0 0-.32.22.67.67 0 0 0-.05.27c0 .1.02.2.05.27.03.07.08.13.13.17.06.03.12.05.2.05.07 0 .14-.02.2-.05.05-.04.1-.1.12-.17a.67.67 0 0 0 .05-.27ZM10.8 35.93v-1.37h.54c.11 0 .2.02.28.06.08.04.13.09.17.15.04.07.06.14.06.23s-.02.16-.06.23a.38.38 0 0 1-.17.15.66.66 0 0 1-.28.05h-.38v-.2h.35c.06 0 .11-.01.15-.03a.18.18 0 0 0 .1-.08.23.23 0 0 0 .02-.12.24.24 0 0 0-.03-.12.19.19 0 0 0-.09-.08.4.4 0 0 0-.16-.03h-.23v1.16h-.26Zm.75-.62.35.62h-.29l-.35-.62h.29ZM12.05 34.77v-.2h1.09v.2h-.42v1.16h-.25v-1.16h-.42ZM13.36 35.93v-1.37h.25v1.16h.62v.2h-.87ZM14.7 35.93h-.25l.47-1.37h.3l.47 1.37h-.26l-.36-1.09-.36 1.09Zm.02-.54h.7v.2h-.7v-.2ZM17.07 34.56v1.37h-.21l-.63-.93v.93h-.25v-1.37h.22l.62.93h.01v-.93h.24ZM17.84 35.93h-.48v-1.37h.5c.13 0 .25.03.36.09.1.05.17.13.23.23.05.1.08.22.08.37 0 .14-.03.26-.08.36a.56.56 0 0 1-.24.24.77.77 0 0 1-.37.08Zm-.22-.22h.21c.1 0 .18-.01.25-.05a.34.34 0 0 0 .15-.15.6.6 0 0 0 .05-.26.6.6 0 0 0-.05-.26.33.33 0 0 0-.15-.16.5.5 0 0 0-.24-.05h-.22v.93ZM21 35.28a.8.8 0 0 1-.08.39.6.6 0 0 1-.23.24.66.66 0 0 1-.34.09.62.62 0 0 1-.57-.33.81.81 0 0 1-.08-.39.8.8 0 0 1 .08-.38.6.6 0 0 1 .24-.25c.1-.06.2-.09.33-.09s.24.03.34.09c.1.06.17.14.23.25.06.1.09.23.09.38Zm-.25 0c0-.1-.02-.2-.05-.27a.37.37 0 0 0-.14-.16.37.37 0 0 0-.2-.06.37.37 0 0 0-.21.06c-.06.04-.11.1-.14.16a.64.64 0 0 0-.05.27c0 .1.01.2.05.27.03.07.08.13.14.17.05.03.12.05.2.05.08 0 .15-.02.2-.05.07-.04.11-.1.15-.17a.64.64 0 0 0 .05-.27ZM21.23 35.93v-1.37h.53c.11 0 .2.02.28.06.07.04.13.09.17.15.04.07.06.14.06.23s-.02.16-.06.23a.38.38 0 0 1-.17.15.66.66 0 0 1-.28.05h-.38v-.2h.34c.07 0 .12-.01.16-.03a.19.19 0 0 0 .1-.08A.23.23 0 0 0 22 35a.24.24 0 0 0-.03-.12.19.19 0 0 0-.09-.08.4.4 0 0 0-.16-.03h-.24v1.16h-.25Zm.73-.62.36.62h-.3l-.34-.62h.28Z"/></svg>