<!-- by TradingView --><svg width="56" height="56" viewBox="0 0 56 56" xmlns="http://www.w3.org/2000/svg"><path fill="#013668" d="M0 0h56v56H0z"/><path d="m16.73 35 .04-.12c.01-.42 0-.78 0-1.12a7.27 7.27 0 0 1 .22-2.44c.57-2.5 2.35-4.24 4.37-6.22l.78-.76c1.52-1.48 3.09-2.95 4.66-4.42 1.26-1.17 2.51-2.35 3.74-3.53-2.58-2.2-3.68-3.14-4.24-3.6l-.6-.51-.32-.28c-2.8 2.46-5.93 5.52-8.16 7.7l-.54.53-.36.34c-2.78 2.62-5 4.7-4.13 8.75.49 2.23 1.41 3.13 3.13 4.54.29.26.6.5.9.74l.5.4Zm9.68 9h1.24c-.2-.26-.4-.46-.62-.67-.42-.4-.89-.84-1.41-1.87-1.33-2.67-.88-5.96 1.59-8.44a176.99 176.99 0 0 1 1.96-1.95c1.11-1.08 3.32-3.24 8.6-8.43L32.56 18c-.73.7-1.5 1.41-2.27 2.11s-1.54 1.4-2.24 2.09l-.85.85-.7.68-5.88 5.78c-1.85 2.42-1.85 6.17-.35 8.84.4.72 2.56 2.66 3.31 3.27.18.16.18.16.36.36l.63.5c.63.49 1.36 1.05 1.84 1.52Zm10.84-7.62L29.51 44c-.61-.29-1.43-2.03-1.65-2.65-1.56-4.1 1.57-7.17 4.26-9.8l1.18-1.17L39.84 24l.02.02c.15.1.27.25 5.14 4.74l-7.75 7.62Z" fill="#F0F3FA"/></svg>