<!-- by TradingView --><svg xmlns="http://www.w3.org/2000/svg" width="56" height="56"><path fill="url(#aks25t0fd)" d="M0 0h56v56H0z"/><path d="M4.82 25.02A3 3 0 017.65 23h5.76l-.23 2h-5.2a1 1 0 100 2h4.97l-.24 2H7.32a1 1 0 100 2h4.98l-.25 2H6.8a2.8 2.8 0 01-1.52-5.16 2.96 2.96 0 01-.46-2.82zm17.23 1.76a2.8 2.8 0 01-1.11 1.38A3 3 0 0118.57 33H12.7l1.36-10h5.37a2.8 2.8 0 012.63 3.78zM16.08 25l-.27 2h3.1a1 1 0 000-2h-2.83zm-.8 6h2.97a1 1 0 100-2h-2.7l-.27 2zm5.75 2l3.93-8.3c.36-.79 1.09-1.75 2.51-1.7 1.43.05 1.94.7 2.17 1.46L31 33h-2.24l-.43-2H24.7l.97-2h2.4l-.59-3.32c-.04-.26-.13-.46-.24-.46-.12 0-.24.2-.36.46L23.34 33h-2.31zm11.66-7.81L31.59 33h2.08l.13-.92c.33-2.34.84-5.88.92-6.27.13-.56.37-.62.5-.62.22 0 .38.25.51.87.1.5.53 3.5.74 4.95.12.88.77 2.03 2.58 1.99 1.8-.04 2.35-1.09 2.56-2l1.24-8h-2.18l-1.03 6.65c-.1.72-.2 1.16-.6 1.16-.4 0-.51-.3-.6-1.05l-.22-1.86c-.12-1.16-.23-2.16-.34-2.71a2.44 2.44 0 00-2.5-2.19 2.7 2.7 0 00-2.7 2.19zM52 23h-5.21c-1.1 0-3.95 1.42-4.13 5.76C42.5 33 45.31 33 46.8 33h1.74c.86-.05 2.64-.83 2.86-3.59.02-.8-.34-2.32-1.9-2.41h-1.7l-.4 2h1.25c.16.02.47.24.47.74 0 .62-.47 1.26-.97 1.26h-1.73c-.61 0-1.45-.6-1.41-2.24.05-2.03 1.07-3.76 2.4-3.76h4.15l.45-2z"/><defs><linearGradient id="aks25t0fd" x1="46.43" y1="6.98" x2="8.19" y2="48.96" gradientUnits="userSpaceOnUse"><stop stop-color="#64CFDB"/><stop offset="1" stop-color="#C8E44E"/></linearGradient></defs></svg>