<!-- by TradingView --><svg width="56" height="56" viewBox="0 0 56 56" xmlns="http://www.w3.org/2000/svg"><path fill="#00543A" d="M0 0h56v56H0z"/><path d="m24.5 21 1-4H21c-4.5 0-6.15 2.94-6.5 4-.5 1.5-.17 2.5 0 3H14c-3 0-6 2.47-6 7 0 3.5 3 6 5 6h7l1-4h-6c-1 0-3-.5-3-2.5s2-2.5 3-2.5h7.5l1-4H21c-.67 0-2-.3-2-1.5s1.33-1.5 2-1.5h3.5ZM28.5 17H35c4.5 0 6.15 2.94 6.5 4 .5 1.5.17 2.5 0 3h.5c3 0 6 2.47 6 7 0 3.5-3 6-5 6H28l-1 4-4.5-1 6-23Zm.5 16h12c1 0 3-.5 3-2.5S42 28 41 28H30.25L29 33Zm2.25-9H35c.67 0 2-.3 2-1.5S35.67 21 35 21h-3l-.75 3Z" fill="#B6985A"/></svg>