<!-- by TradingView --><svg width="56" height="56" viewBox="0 0 56 56" xmlns="http://www.w3.org/2000/svg"><path fill="url(#azqrmbg5j)" d="M0 0h56v56H0z"/><path d="M38 36V20h3.44c3.33 0 4.56 1.89 4.56 5.06v5.8c0 3.16-1.17 5.14-4.53 5.14H38Zm3-2h.47c1.35 0 1.53-1.45 1.53-2.58v-6.98c0-1.13-.27-2.44-1.56-2.44H41v12ZM27.08 36c-3.1 0-4.08-2.43-4.08-5.19v-5.6c0-2.77.96-5.21 4.08-5.21 2.77 0 3.92 1.92 3.92 4.5V26h-3.02v-1.72c0-.73.01-2.28-.98-2.28-1.01 0-1 1.59-1 2.34v7.32c0 .75 0 2.34 1 2.34s.98-1.6.98-2.34V30H31v1.37c0 2.58-1.1 4.63-3.92 4.63ZM10 36V20h6.96l.04 2h-3.96L13 27h3v2h-3v5h4v2h-7Z" fill="#F0F3FA"/><circle cx="19.5" cy="34.5" r="1.5" fill="#F0F3FA"/><circle cx="34.5" cy="34.5" r="1.5" fill="#F0F3FA"/><circle cx="48.5" cy="34.5" r="1.5" fill="#F0F3FA"/><defs><linearGradient id="azqrmbg5j" x1="10.42" y1="9.71" x2="68.15" y2="76.02" gradientUnits="userSpaceOnUse"><stop stop-color="#1A1E21"/><stop offset="1" stop-color="#06060A"/></linearGradient></defs></svg>