<!-- by TradingView --><svg xmlns="http://www.w3.org/2000/svg" width="56" height="56"><path fill="#093254" d="M0 0h56v56H0z"/><path d="M36 17V9l-6.93 7.15L28.7 20l7.3-3zm-6.1 1.52l.2-2L35 11.4v5.02l-5.1 2.09zM20 9l5.73 5.82L22.4 22 20 19V9zm1 9.54l1.18 1.68 2.36-5.19L21 11.46v7.08zM33 28a5 5 0 11-10 0 5 5 0 0110 0zm-2.6 13l5.6 6V37l-2.2-3-3.4 7zm3.6-5.06l1 1.48v7.08l-3.4-3.6 2.4-4.96zM10 21h8l3 7.4-4-.37L10 21zm7.4 6l2.12.35-2.2-5.32H12.3L17.4 27zM38 36h8l-7-7-4-.4 3 7.4zm-1.53-6.31l2.12.35L43.7 35h-5.01l-2.21-5.31zM10 36l5.78-5.55L23 33.71 20 36H10zm9.66-1l1.4-1.03L16 31.64 12.36 35h7.3zM20 47v-8.19L27.4 36l-.4 3.79L20 47zm6.03-7.58l.2-2L21 39.5v5.01l5.03-5.1zM40.23 26L46 20H36l-3 2.5 7.24 3.5zm-5.37-3.61L36.43 21h7.12L40 24.58l-5.14-2.19z" fill="#fff"/></svg>