<!-- by TradingView --><svg width="56" height="56" viewBox="0 0 56 56" xmlns="http://www.w3.org/2000/svg"><path fill="#F0F3FA" d="M0 0h56v56H0z"/><path d="M26.78 12.27c.19-.09.37-.2.56-.27l.67.27c.04.02.08 0 .11 0 .21-.1.42-.18.62-.26.05-.02.09.01.13.03l.6.3c.26-.06.51-.15.77-.21l.63.39c.03.03.08 0 .12 0l.59-.13c.03 0 .08-.02.11 0 .2.15.38.3.57.43.04.04.11.01.16.01.22-.02.44-.06.66-.06l.56.5c.26.02.53 0 .8 0l.52.56.78.06c.18.2.31.43.5.62l.76.12.4.65.77.2.35.68c.24.1.5.16.73.26.12.22.2.46.3.69 0 .02.02.04.05.05.22.1.46.19.67.3.08.25.14.5.23.74l.68.38.16.76.64.44c.03.25.05.51.1.77l.6.5v.77l.4.37c1.1.28 2.22.53 3.34.8l2.58.61c-.26.4-.5.81-.73 1.23-.27.5-.55.98-.81 1.48s-.54 1-.76 1.53c-.1.24-.18.49-.2.75-.03.37.08.72.2 1.07.35 1.02.87 1.97 1.35 2.93l.74 1.41h-5.84c-.12-.01-.18.1-.25.17-.03.27-.02.53-.03.79l-.59.48c-.06.25-.06.52-.1.77-.2.16-.42.29-.63.44-.03.02-.02.06-.03.1l-.14.67-.64.35c-.06.03-.06.1-.08.14l-.19.63c-.21.1-.43.2-.64.28-.03.02-.07.03-.08.06l-.28.7-.66.22c-.03.02-.09.02-.1.07l-.33.63c0 .03-.05.03-.08.04-.23.06-.46.1-.68.17-.16.2-.28.44-.42.66l-.7.1c-.04.01-.08.01-.1.05l-.46.59-.68.04c-.04 0-.07 0-.1.02-.19.18-.34.39-.53.56-.27 0-.53-.03-.8 0l-.56.5-.73-.08c-.05-.01-.09.03-.13.05l-.54.42-.78-.15-.63.39c-.03.02-.07 0-.1 0l-.6-.19c-.03 0-.08-.03-.12 0l-.65.32c-.25-.07-.49-.2-.74-.27-.24.08-.48.19-.72.28-.22-.1-.44-.23-.67-.33a.08.08 0 0 0-.08 0l-.7.2-.66-.4c-.27.03-.52.12-.78.14l-.6-.45c-.04-.02-.09 0-.13 0-.22.03-.44.06-.66.07-.2-.15-.38-.34-.58-.5-.27-.02-.53 0-.8 0l-.46-.51-.08-.06c-.25-.03-.51-.02-.76-.06-.16-.19-.3-.4-.46-.58-.03-.04-.08-.04-.12-.05l-.6-.09c-.03 0-.08 0-.1-.04l-.37-.6c-.02-.04-.08-.04-.11-.05l-.67-.16-.35-.69c-.24-.1-.5-.17-.75-.26-.1-.24-.2-.48-.28-.72l-.72-.32-.22-.74c-.22-.14-.46-.25-.69-.38l-.16-.76c-.2-.16-.43-.3-.64-.45-.03-.25-.05-.5-.1-.76-.18-.17-.39-.33-.6-.5v-.76a.69.69 0 0 0-.2-.18H7.17c.48-.93.93-1.87 1.32-2.83a13 13 0 0 0 .58-1.72c.06-.24.11-.49.12-.74 0-.28-.06-.57-.14-.84a12 12 0 0 0-.65-1.67c-.42-.89-.89-1.75-1.39-2.6l5.69-1.35c.12-.03.25-.05.37-.09l.36-.35.02-.77.54-.44c.03-.03.07-.06.07-.1l.08-.73.63-.44c.08-.25.11-.5.17-.76l.6-.34c.04-.02.09-.04.1-.08l.21-.7c.24-.11.49-.2.72-.33l.29-.71c.24-.09.5-.16.73-.26.13-.22.23-.44.35-.66.02-.04.07-.04.11-.05.22-.06.44-.1.66-.17l.4-.61a.08.08 0 0 1 .05-.05l.7-.1c.05 0 .08-.06.1-.1l.42-.53.77-.05c.19-.18.35-.39.54-.57l.69.01c.04 0 .1.01.13-.03l.48-.44c.03-.02.06-.06.1-.05l.69.08c.07.02.12-.05.17-.09.18-.12.33-.26.51-.37.26.04.5.11.76.15l.67-.4.7.2c.07.04.13-.03.2-.06Zm-5.44 3.2c-.38.22-.77.43-1.14.67a14.2 14.2 0 0 0-5.83 7.47h.56a13.78 13.78 0 0 1 5.67-7.1c.44-.26.88-.53 1.34-.74a13.82 13.82 0 0 1 12.39.16 13.79 13.79 0 0 1 6.7 7.68h.55a14.37 14.37 0 0 0-20.24-8.13Zm5.79-.75a13.48 13.48 0 0 0-11.88 8.93h25.47a13.47 13.47 0 0 0-13.6-8.93Zm-18.8 8.89h4.14c.07.01.1-.06.13-.1.1-.13.23-.24.31-.38l-.03-.6c-1.52.36-3.03.7-4.54 1.08Zm34.9-1.05-.03.57c.1.17.26.32.39.48h4.01c-.2-.06-.41-.1-.62-.15l-3.75-.9ZM7.82 24.37c.04.17.15.48.22.63h39.88c.04 0 .1-.17.11-.21l.23-.42H7.82Zm.1 8.63c7.4 0 14.8.1 22.2.1 5.96 0 11.93-.1 17.9-.1-.07-.15-.15-.2-.23-.35H8.15c-.08.15-.16.2-.23.35Zm7.1 1a14.38 14.38 0 0 0 25.91 0h-.59a13.76 13.76 0 0 1-11.66 7.58 13.84 13.84 0 0 1-13.06-7.57h-.6Zm.96 0a13.48 13.48 0 0 0 15.41 6.87A13.47 13.47 0 0 0 40 34H15.98Z" fill="#231F20"/><path d="M45.76 26.56c.12-.04.26.02.31.14.07.14.02.33-.14.39-.13.05-.3-.03-.33-.17-.05-.13.02-.31.16-.36Zm-.05.08v.38h.07a1 1 0 0 1 .01-.18c.09.05.1.2.22.19l-.1-.16c.07-.04.12-.12.07-.2-.07-.05-.18-.02-.27-.03ZM13.63 27.16c.33-.07.7-.07 1 .1.29.16.47.46.55.77.1.41.1.84.03 1.25-.06.4-.23.8-.57 1.02-.3.2-.67.2-1.02.16v-3.3ZM18.43 29c.27-.01.58-.04.82.14.25.19.29.53.24.82-.04.2-.17.4-.37.48-.22.09-.46.08-.7.05V29Z" fill="#231F20"/><path d="m27.13 14.72.33-.02c.13.04.24.1.34.18.1.07.23.06.34.1.25.1.42.32.57.53.05.08.07.18.15.22.12.03.26.02.37.08.16.11.26.3.35.47.14.26.31.51.4.8.04.13.02.28.09.4.06.1.1.22.17.32.52.85.95 1.76 1.24 2.71.24.79.39 1.62.33 2.44-.01.15-.07.29-.1.43.05-.12.07-.25.12-.37.03-.06.09-.1.14-.13.1-.05.2-.1.3-.18-.13.03-.24.1-.35.15a1.2 1.2 0 0 1 1.19-1.35l.34.02c-.38-.13-.8-.05-1.18.02.2-.28.53-.44.83-.58.19-.09.37-.17.54-.27-.23.04-.45.12-.66.2-.32.12-.66.27-.87.55-.1.13-.13.3-.16.46-.03-.07-.06-.14-.07-.21 0-.1.05-.17.06-.26-.04-.09-.1-.16-.1-.25.04-.5.31-.95.65-1.32.14-.17.32-.3.46-.48-.2.15-.38.34-.56.52-.27.26-.49.58-.69.9a.58.58 0 0 1-.06-.25c.01-.1-.12-.14-.14-.25-.1-.32-.06-.66.03-.97.12-.4.3-.76.44-1.15.13-.36.23-.75.17-1.14-.04.33-.1.67-.23.97-.15.36-.35.69-.49 1.04-.07.18-.11.36-.16.54-.16-.3-.14-.65-.04-.96.08-.31.25-.61.27-.94-.22.41-.3.88-.52 1.3a1.25 1.25 0 0 0-.33-.71c-.08-.08-.05-.21-.14-.28-.1-.07-.12-.2-.19-.3-.01-.04-.05-.07-.04-.1a1 1 0 0 1 .32-.65c.17-.15.4-.25.6-.36.3-.16.6-.33.9-.52.04-.04.09-.07.15-.1.08.03.14.1.22.13.08.02.17.03.23.1.18.19.27.45.47.64.13.11.3.16.41.3.17.2.2.47.26.72.08.32.25.62.35.93.1.34.16.68.23 1.02.05.22.11.44.08.66-.02.13-.08.26-.05.4.04.25.19.48.15.74-.01.17-.13.3-.26.4.12.23.1.5.03.73a.95.95 0 0 1-.37.5c-.09.06-.2.09-.28.14-.05.02-.1.05-.16.04h-.6c.08-.07.15-.15.22-.24-.19.09-.35.28-.58.25H30.6v-.48l-.12.47h-.66c.12-.22.28-.43.42-.65-.19.14-.34.3-.49.48l-.15.17-.16.01.1-.23c-.1.07-.16.15-.25.22-.2.02-.41 0-.62 0 .38-.76.8-1.5 1.08-2.3-.18.31-.34.63-.5.94-.25.45-.5.9-.73 1.36h-.76c.28-1.11.74-2.17 1.17-3.24.08-.2.18-.41.24-.63a5.4 5.4 0 0 0-.58 1.09c-.38.9-.66 1.86-1 2.78h-.17a6.44 6.44 0 0 1 .27-3.1c.19-.53.46-1.04.8-1.5l.32-.4c-.28.16-.5.41-.72.65.12-.39.32-.75.38-1.15.02-.15.01-.3-.03-.45-.1.44-.21.87-.38 1.28-.24.6-.53 1.17-.77 1.77-.06.16-.1.32-.17.48-.12-.6-.03-1.22 0-1.83.01-.41 0-.83-.13-1.23-.02.68.05 1.37-.14 2.03-.12-.48-.38-.91-.52-1.4-.06-.2-.07-.41-.05-.63h-.12c-.06-.2 0-.41-.14-.58 0 .45.1.89.22 1.31.19.64.44 1.26.63 1.9.24.8.36 1.66.25 2.49-.52-.97-.87-2.02-1.2-3.06l-.52-1.57c-.04.08-.05.22-.16.24-.08.02-.13-.07-.17-.12-.13-.18-.14-.4-.24-.59 0 .18.05.34.1.51.13.47.34.92.6 1.34.28.46.41.99.53 1.51a4 4 0 0 0 .48 1.15c.18.32.37.62.52.95h-.93c-.22-.54-.41-1.1-.6-1.66-.12-.31-.21-.64-.37-.94.24.87.5 1.73.71 2.6h-.31c-.28-.38-.53-.79-.74-1.21.04.21.15.4.25.6l.38.61h-1.42c-.09 0-.18.02-.26-.03-.44-.31-.88-.64-1.26-1.02.21.46.65.76 1.06 1.05H22c-.06-.23-.03-.49-.16-.7-.1-.2-.27-.34-.36-.54a1.55 1.55 0 0 1-.09-.57c0-.32-.01-.66.04-.98.03-.24.1-.47.15-.7.04-.2-.08-.36-.1-.54a1.3 1.3 0 0 1 .09-.56c.05-.14.15-.27.18-.42.05-.2.12-.38.13-.59.02-.32.17-.64.43-.83.13-.12.31-.08.46-.06.35.08.7.26.94.52.1.12.2.28.18.44 0 .1-.06.17-.11.24a1.06 1.06 0 0 0-.3-.65c.1.34.21.7.2 1.07 0 .18-.04.36-.13.52a2.6 2.6 0 0 0-.5-1.27.93.93 0 0 0-.35-.29c.23.36.47.72.61 1.12.13.33.2.7.14 1.05-.14-.36-.31-.71-.6-.98a.8.8 0 0 0-.28-.16c.18.2.38.38.51.61.35.55.45 1.2.39 1.84a8.26 8.26 0 0 0-1.2-1.29c.25.35.55.66.8 1.02.33.45.61.97.64 1.53-.16-.12-.3-.26-.44-.4-.35-.37-.69-.75-1.06-1.1.1.22.29.4.43.6.06.08.1.18.12.27-.26-.1-.49-.27-.75-.36.1.12.23.2.36.28.37.2.77.36 1.08.64.14.13.24.28.3.45-.16 0-.33-.05-.5-.02.23.04.45.1.68.12.12.22.22.44.38.63-.06-.15-.15-.28-.21-.43a6.38 6.38 0 0 1-.5-2.95c.06-.81.24-1.63.6-2.37.07-.12.09-.26.14-.39.13-.27.33-.5.58-.68.07-.04.08-.13.11-.2a.78.78 0 0 1 .27-.4c.11-.08.26-.09.4-.11.09-.2.18-.43.4-.5.12-.05.26.04.36-.05.08-.07.12-.17.2-.25a.94.94 0 0 1 .46-.3ZM30.98 34.04c.22-.07.48-.05.66.1.16.14.23.36.23.57v1.4c0 .21 0 .44-.13.62a.55.55 0 0 1-.36.25c-.21.03-.45.02-.62-.13-.17-.16-.21-.4-.21-.63v-1.48c0-.15.02-.32.1-.45.08-.12.2-.21.33-.25Zm.16.38c-.1.02-.14.14-.14.24V36.3c0 .07 0 .14.04.2.07.1.23.11.32.02.06-.07.06-.18.07-.28v-1.51c0-.1 0-.2-.08-.28-.05-.06-.14-.06-.21-.04Zm-10.91-.4c.18-.04.4-.01.54.12.16.14.23.37.25.58a19 19 0 0 0-.21.03l-.21.03-.01-.05a.55.55 0 0 0-.08-.24c-.07-.09-.22-.09-.3-.02-.1.1-.09.27-.03.39.09.2.24.36.4.51.13.15.27.3.36.47.13.28.15.63-.03.89-.25.37-.88.36-1.1-.03a.95.95 0 0 1-.15-.5l.14-.03.27-.04v.05c.03.12.05.25.14.33.11.08.3.06.36-.07.1-.14.03-.31-.06-.44-.09-.14-.2-.26-.32-.38-.13-.14-.26-.27-.36-.43a.9.9 0 0 1-.1-.68.7.7 0 0 1 .5-.5Zm12.62 0c-.23-.05-.5 0-.67.17-.14.16-.18.38-.18.58v1.25c0 .23 0 .46.1.66.07.15.21.26.37.3.25.04.54 0 .7-.21.16-.21.16-.41.16-.64V36H32.88v.34c0 .08-.03.17-.1.22a.23.23 0 0 1-.24 0c-.07-.06-.1-.16-.1-.25v-1.6c0-.08.01-.17.07-.24.09-.11.3-.08.35.07.03.1.02.2.02.3V35h.45v-.11c0-.18 0-.35-.07-.51a.57.57 0 0 0-.41-.36ZM21.5 34h.5v3h-.5v-3Zm.87 0h-.17v3h.4V34.7c.11.76.24 1.53.38 2.29h.2l.22-1.2.19-1.03c-.02.18-.02.37-.02.56V37H24l-.01-1.67-.01-1.33h-.59l-.12.77-.18 1.17c-.01-.16-.04-.31-.06-.47l-.03-.15-.08-.48-.14-.84h-.41Zm2.18 0h.71c.19 0 .4.1.49.28.12.22.11.5.1.75-.02.24-.08.5-.27.66-.13.1-.28.1-.43.1H25V36.98h-.45V34Zm.44 1.04v.3h.1c.07 0 .16 0 .23-.05.08-.07.09-.19.1-.3v-.08c0-.13 0-.26-.06-.37-.07-.1-.2-.1-.31-.1h-.06v.6ZM26.44 34H26v3h1.1v-.45h-.67V34Zm.61 0h.44l.1.46.1.38v.02c.02.11.05.23.09.34.08-.31.15-.63.21-.94l.06-.25h.44l-.23.8-.26.92V37h-.44v-1.1c0-.1-.03-.2-.05-.29a160.43 160.43 0 0 0-.2-.68l-.26-.93Zm2.17 0H29v3h1.1v-.44h-.66V34h-.22Zm4.69 0h.57l.25 1.66.2 1.33h-.44l-.08-.57v-.07h-.43l-.03.17-.07.48h-.42l.2-1.39.25-1.6Zm.26.82-.05.45-.09.73h.32l-.06-.54c-.03-.27-.05-.54-.1-.79l-.02.15Zm1.26-.82H35v3h1.1v-.44h-.67V34Z" fill="#64AE3D"/><path fill-rule="evenodd" d="M43 31v-5h.74c.43 1.02.73 2.02 1.04 3.05l.22.7c-.04-.8-.03-1.63-.01-2.46L45 26h.61v5h-.66c-.45-1.1-.84-2.28-1.21-3.41l-.05-.15a2.23 2.23 0 0 0-.12-.33c.04.92.04 1.87.04 2.8V31H43Zm-22 0v-5h.6V30.2h1.15V31H21Zm-10.62 0v-5h2v.8H11v1.25h1.3v.73H11v1.43h1.45v.8h-2.08Zm16.55-3.78c.17-.42.47-.8.87-1.02a1.84 1.84 0 0 1 1.72.03l-.07.36-.07.37c-.3-.2-.67-.25-1.01-.19-.33.06-.61.3-.77.6-.22.44-.26.95-.22 1.43.03.43.16.83.49 1.14.3.29.75.33 1.13.18v-1.16h-.59v-.71h1.21a351.81 351.81 0 0 1 0 2.41c-.42.21-.9.32-1.37.26a1.5 1.5 0 0 1-.93-.47c-.38-.4-.54-.9-.6-1.45a3.9 3.9 0 0 1 .21-1.78ZM13 30.94v-4.82c.4-.08.8-.12 1.2-.1.4.03.83.17 1.12.49.38.38.54.94.59 1.48.04.6 0 1.23-.21 1.8a1.8 1.8 0 0 1-.88 1 3.2 3.2 0 0 1-1.82.15Zm5-4.82v4.82c.48.07.93.1 1.4-.02.32-.08.6-.3.75-.6.2-.38.23-.84.12-1.25a1.1 1.1 0 0 0-.63-.75c.1-.08.22-.15.3-.26.22-.27.3-.62.26-.96-.02-.29-.13-.58-.35-.77-.2-.2-.49-.3-.76-.3-.38-.03-.72 0-1.09.1ZM33.49 31v-4.88c.38-.09.77-.12 1.16-.1.32.03.65.14.86.41.24.31.3.74.27 1.13-.04.43-.25.87-.62 1.07.25.15.37.45.43.74l.13.68c.05.32.1.65.18.95h-.64c-.1-.32-.15-.69-.2-1.03l-.04-.2c-.03-.21-.07-.42-.18-.6-.07-.13-.21-.16-.35-.17a4.1 4.1 0 0 0-.38 0v2h-.62Zm2.88-2.47v2.4c.6.09 1.24.14 1.81-.13.39-.17.68-.52.85-.92.24-.57.3-1.21.26-1.83a2.43 2.43 0 0 0-.6-1.54 1.58 1.58 0 0 0-1.07-.48c-.42-.03-.84 0-1.25.09v2.4ZM16.46 26v5H17v-5h-.54Zm6.76 0v5h2.07v-.79H24v-1.43h1.14v-.73H24V26.8h1.22V26h-2ZM30 31c.19-.81.37-1.66.55-2.5l.55-2.5h.8l.6 2.71.51 2.3h-.67c-.07-.25-.12-.51-.17-.77l-.15-.68h-1.07l-.18.87-.11.57H30Zm9.84-2.5V31H42v-.79h-1.54v-1.43h1.3v-.73h-1.3V26.8H42V26h-2.17v2.5ZM18.7 26.6v1.27c.63.13.94-.21.94-.62 0-.33-.32-.8-.94-.66Zm.02 3.72v-1.45c.7-.17 1.07.36 1.07.74 0 .46-.35.85-1.07.71Zm-5.05-3.56v3.47c.98.23 1.64-.12 1.64-1.83 0-1.36-.74-1.87-1.64-1.64Zm17.37 2.16h.91l-.47-1.95-.44 1.95ZM37 26.76v3.47c.98.23 1.64-.12 1.64-1.83 0-1.36-.75-1.87-1.64-1.64Zm-2.97 1.47v-1.6c.1-.04.34-.11.63-.11.36 0 .46.49.46.84v.05c0 .36 0 .94-1.09.82Z" fill="#F0F3FA"/><path opacity=".7" fill="#64AE3D" d="M23 38h10v2H23z"/></svg>