<!-- by TradingView --><svg xmlns="http://www.w3.org/2000/svg" width="56" height="56"><path fill="url(#a3n3kvi4b)" d="M0 0h56v56H0z"/><path d="M25 19v2h2a1.96 1.96 0 00-2-2zm0 4h2v11h-2V23zm23.48 4.57c-1.06-.25-3.52-.22-3.48-1.67-.05-1.13 1.39-1.35 2.25-1.36 1.13 0 2.32.53 2.38 1.8h1.9a3.89 3.89 0 00-.42-1.62c-.76-1.43-2.52-1.73-4-1.72-1.78 0-4.17.92-4.11 3.03-.16 2.66 3.48 2.7 5.3 3.2.78.2 1.75.63 1.7 1.6.05 1.33-1.47 1.58-2.48 1.59-1.3 0-2.79-.9-2.8-2.42h-1.86c0 2.87 2.3 4.01 4.56 4 2.03 0 4.67-.91 4.58-3.4.07-1.94-1.92-2.68-3.52-3.03zm-16.87 4.7c-.52-.04-.62-.45-.61-.92V24.6h2V23h-2v-3h-2v3h-1v1.6h1v7.07c-.05 1.72 1.2 2.35 2.74 2.33h1.15a4.6 4.6 0 01-.8-1.7l-.48-.04zM42 30.42V25.9c.1-2.27-2.23-2.89-4.04-2.89-2.22 0-4.51 1.08-4.54 3.52h1.76c.08-1.47 1.32-2.04 2.67-2 1.13 0 2.21.42 2.15 1.76.04.63-.3 1-.84 1.13-1.64.42-3.59.26-5.03 1.26a2.76 2.76 0 00-1.13 2.4c-.06 2 1.8 2.92 3.55 2.92 1.42.01 2.85-.5 3.77-1.62-.09.9.56 1.62 1.5 1.62.42 0 .81-.05 1.18-.23-.96-.95-1.07-2.07-1-3.35zm-2-.32a2.27 2.27 0 01-1.57 2.15c-.48.17-.98.25-1.49.23-.95 0-1.98-.43-1.94-1.54-.07-1.22 1-1.76 2.02-1.9 1.02-.16 2.1-.1 2.98-.7v1.76zM22 19v5.3a2.62 2.62 0 00-.52-.61 4.1 4.1 0 00-1.86-.8 5.33 5.33 0 00-3.05.36 4.42 4.42 0 00-2.01 1.9c.5.86.9 1.77 1.16 2.72.14-1.77 1.25-3.51 3.2-3.51 1.36 0 2.57 1.04 2.93 2.52.25.98.25 2 .01 2.98-.34 1.45-1.6 2.55-2.84 2.55-.52.01-1.03-.1-1.5-.33l-.2-.12a4.26 4.26 0 002.74 1.83c.26-.06.52-.14.77-.25.65-.4 1-.7 1.17-1.13V34h2V19h-2zM9.33 32.28c-1.1 0-2.26-.72-2.66-1.65l5.36-4.02c-.53-1.52-1.25-2.93-2.65-3.81h-.05A5.48 5.48 0 004 28.4C4 31.49 6.4 34 9.33 34a5.3 5.3 0 004.4-2.44c-.38-.73-.73-1.45-.95-2.24a3.55 3.55 0 01-3.45 2.96zm0-7.76c.73 0 1.43.23 2.01.66l-5.28 3.97c-.44-2.24 1.03-4.64 3.27-4.63z" fill="#fff"/><path d="M9.5 22.8c5.34 2.77 1.88 12.29 10.37 11.04-6.38-1.12-2.43-10.9-10.37-11.04z" fill="url(#b3n3kvi4b)"/><defs><linearGradient id="a3n3kvi4b" x1="10.42" y1="9.71" x2="68.15" y2="76.02" gradientUnits="userSpaceOnUse"><stop stop-color="#1A1E21"/><stop offset="1" stop-color="#06060A"/></linearGradient><linearGradient id="b3n3kvi4b" x1="14.68" y1="33.95" x2="14.68" y2="22.8" gradientUnits="userSpaceOnUse"><stop offset=".02" stop-color="#F36A10"/><stop offset=".99" stop-color="#FFB700"/></linearGradient></defs></svg>