<!-- by TradingView --><svg width="56" height="56" fill="none" xmlns="http://www.w3.org/2000/svg"><path fill="#F0F3FA" d="M0 0h56v56H0z"/><path fill-rule="evenodd" clip-rule="evenodd" d="M24 18.953v17.113c4.465 1.903 7.752.98 10.117-.888C36.734 33.112 38 29.818 38 27.376c0-7.018-6.676-11.734-14-8.423zm-2.233-2.181C31.047 11.87 41 17.7 41 27.376c0 3.354-1.833 7.477-5.123 10.076-3.4 2.685-8.273 3.68-14.071.842L21 37.9V17.177l.767-.405z" fill="#155A91"/><path d="M34.887 29h-18.12l-.883-.468H15V25.37h.884V25h.441v-1H18v-1h.534v3.231H19v-.878h.592V27h.947v-1H23v.67l.5-.67H26v.67l.592-.67H29v.67l.684-.67H33v1h1.102l.66-1h1.882l-1.757 3z" fill="#268BDE"/><path d="M37.013 40.141A14.14 14.14 0 0128.5 43C20.571 43 14 36.364 14 28s6.571-15 14.5-15c3.12 0 6.03 1.027 8.412 2.783l1.738-2.448A17.093 17.093 0 0028.5 10C18.835 10 11 18.059 11 28s7.835 18 17.5 18c3.89 0 7.483-1.306 10.39-3.514l-1.877-2.345z" fill="#268BDE"/></svg>