<!-- by TradingView --><svg xmlns="http://www.w3.org/2000/svg" width="56" height="56" viewBox="0 0 56 56"><path fill="#F0F3FA" d="M0 0h56v56H0z"/><path d="M26 12v4h-6v10h6v4h-6v10h6v4h-8.32A1.7 1.7 0 0 1 16 42.3V13.7c0-.94.75-1.7 1.68-1.7H26z" fill="#60A845"/><path d="M28 16v-4h5.32C37.5 12 41 15.57 41 19.97v2.06c0 2.1-1 4-2.76 5.43a7.71 7.71 0 0 1 3.76 6.5v2.07c0 4.4-3.07 7.97-8.1 7.97H28v-4h3.78c3.35 0 6.22-1.86 6.22-4.79v-.24c0-2.94-2-4.97-5.35-4.97H28v-4h3.56c2.78 0 5.44-1.8 5.44-4.73v-.24c0-2.94-2.66-5.03-5.44-5.03H28z" fill="#4A4F55"/></svg>