<!-- by TradingView --><svg width="56" height="56" viewBox="0 0 56 56" xmlns="http://www.w3.org/2000/svg"><path fill="#6A2264" d="M0 0h56v56H0z"/><path d="M16 28.15v-.6C20.03 28.72 27.82 31 27.99 31c.2 0 1.01-.14 1.01-1.08 0-.76-.63-1.22-.95-1.35L16 25.45v-.54L30.45 22l10.74 2.36c.27.12.81.6.81 1.63 0 1.02-.68 1.64-1.01 1.82L28.49 32 16 28.15Z" fill="#fff"/><path d="M10 22.52c1.34 5.06 1.85 14.13 1.94 18.33.07.07.2.15.34.15.1 0 .22-.04.33-.15 1.53-2.5 1.41-6.17 1.39-9.51-.03-3.68-.04-6.95-.04-7.73 3.59-.77 11.15-4.63 14.48-6.61 5.11 2.16 15.5 6.2 16.09 6.2.59 0 1.22-.64 1.47-.96L28.44 14c-5.01 2.3-15.7 7.2-18.44 8.52Z" fill="#fff"/><path d="M28.86 33.58 16 29.34v2.42L28.86 36 42 31.42V29l-13.14 4.58Z" fill="#fff"/><path d="M41.5 33c.28.2.68.7.68 1.6 0 1.06-.68 1.7-1.02 1.88L28.58 42 16 36.62V36c3.01.91 8.07 3.23 10.54 4.36.85.4 1.4.64 1.44.64.2 0 1.02-.14 1.02-1.12 0-.78-.63-1.25-.95-1.4L16 33.84v-.56l12.72 4.4L41.5 33Z" fill="#fff"/></svg>