<!-- by TradingView --><svg xmlns="http://www.w3.org/2000/svg" width="56" height="56"><path fill="#F0F3FA" d="M0 0h56v56H0z"/><path d="M33.03 42c4.82-1.95 7.46-6.46 8.04-9h-3.89c-1.42 4.98-6.34 6.62-9.1 6.62-7.9 0-10.22-6-10.52-6.93-.41-1.27.6-2.85 2.73-2.1 1.77.63 5.62.8 7.37.83 6.73 0 11.13-3.3 12.98-10.16l.26-.96c.51-1.92.83-3.08 1.1-3.78V42h-8.97zM22.4 42H14v-9.16c1.4 4.12 4.08 7.57 8.4 9.16zM14 23.27c1.09-3.6 4.62-7.94 9.58-9.27H14v9.27zm9.36-5.47c-4.87 1.9-6.27 7.56-6.36 10.15.5-.87 3.16-.7 4.43-.52 4.61.97 8.74.52 10.37 0 4.58-1.63 5.59-5.97 5.99-7.87A5.45 5.45 0 0139 17c-2.23.59-5.38.56-9.24.2-3.1-.3-5.56.28-6.4.6z" fill="#7EC044"/></svg>