<!-- by TradingView --><svg xmlns="http://www.w3.org/2000/svg" width="56" height="56"><path fill="url(#apbjeiv0h)" d="M0 0h56v56H0z"/><path d="M21.14 26h4.95l-1.56 7h-1.65l.06-1.73-.01.01A5.59 5.59 0 0118.87 33c-2.86 0-5.01-1.97-4.13-5.97.68-3.1 3.11-6.03 7.09-6.03h.03c3.63 0 4.56 2.43 4.35 4h-2.47c.1-.45-.43-2.03-2.18-2.03-1.76 0-3.66 1.17-4.3 4.1-.7 3.1.9 3.91 2.58 3.91.55 0 2.55-.46 3.63-2.98H20.7l.43-2zM13 30a4.65 4.65 0 01-4.46 3c-2.47 0-4.12-1.16-3.35-4.68.23-1.03 1.3-4.32 5.15-4.32 1.73 0 3.93.7 3.08 4.61l-.09.39H7.32c-.08.64-.25 2.2 1.62 2.2.64 0 1.42-.43 1.7-1.2H13zm-1.72-2.45c.17-1.38-.63-1.7-1.38-1.7-1.08 0-1.82.58-2.2 1.7h3.58zm22.85 5.11c-.26-.1-.45-.54-.23-1.56l1-4.62c.47-2.1-1.71-2.48-2.95-2.48-1.8 0-3.74.38-4.58 3h2.23c.18-.5.52-1.2 1.68-1.2.6 0 1.5.05 1.3 1-.1.48-.58.62-.95.67l-2.15.3c-1.51.22-2.79 1.07-3.15 2.74-.39 1.77.8 2.49 2.13 2.49 1.56 0 2.46-.7 3.1-1.24-.06.49-.04.84 0 1.24h2.5l.07-.34zm-3.62-3.58c1-.15 1.4-.3 1.67-.47l-.23 1.1c-.23 1.04-1.41 1.69-2.43 1.69-.45 0-1.02-.25-.85-1.03.2-.94.96-1.14 1.84-1.29zM39.6 24l-1.86 9h-2.31l1.86-9h2.31zm.22-1H37.5l.46-2h2.3l-.45 2zm5.5 10h2.31l1.3-6.06C49.31 25 48.2 24 46.48 24c-1.67 0-2.54.99-2.97 1.52h-.03l.28-1.52h-2.22l-1.86 9h2.3l1.08-5.03c.28-1.34 1.22-1.97 2.24-1.97 1.47 0 1.27 1.03 1.14 1.67L45.3 33z" fill="#fff"/><defs><linearGradient id="apbjeiv0h" x1="10.42" y1="9.71" x2="68.15" y2="76.02" gradientUnits="userSpaceOnUse"><stop stop-color="#1A1E21"/><stop offset="1" stop-color="#06060A"/></linearGradient></defs></svg>