<!-- by TradingView --><svg width="56" height="56" xmlns="http://www.w3.org/2000/svg"><path fill="#E9AF10" d="M0 0h56v56H0z"/><path d="M14.57 12A2.57 2.57 0 0012 14.57v8.515c.932-.65 2.156-1.485 2.435-1.614l-1.725.102c.925-.564 2.99-1.752 3.857-1.996h-1.658c1.049-.586 3.308-1.793 3.958-1.928h-2.199c1.725-.88 6.157-2.632 10.08-2.605 3.924.027 6.258.508 6.935.745l2.097 3.957c1.725-.067 5.392.42 6.258 2.91.866 2.489-.924 5.164-1.928 6.19.36-1.083-.183-3.248-5.243-3.248-.744.113-2.632.704-4.228 2.165-1.994 1.825-4.493 6.99 2.477 16.237h8.313A2.57 2.57 0 0044 41.43V14.57A2.57 2.57 0 0041.43 12H14.57z" fill="#fff"/><path d="M31.653 18.765l-3.957-.845 2.57 2.097 1.387-1.252z" fill="#fff"/></svg>