<!-- by TradingView --><svg width="56" height="56" viewBox="0 0 56 56" xmlns="http://www.w3.org/2000/svg"><path d="M0 28a28 28 0 1 1 56 0 28 28 0 1 1-56 0Z" fill="url(#arplpwywe)"/><path d="M16.89 18.1c-6.72 6.57-6.51 13.38.62 20.43 7.13 7.05 14.05 7.29 20.76.71L46 31.68l-4.68-4.63-7.72 7.57c-3.44 3.34-7.38 3.27-11.4-.7-4-3.96-4.22-7.65-.86-10.98l3.75-3.67c1.02-1 2.67-1 3.69.01 1.01 1 1.34 2.63.32 3.63L23.88 28l4.68 4.63 5.22-5.1c3.62-3.55 3.3-9.3-.3-12.86a9.35 9.35 0 0 0-13.07-.03L16.9 18.1Z" fill="#fff"/><defs><linearGradient id="arplpwywe" x1="10.42" y1="9.71" x2="68.15" y2="76.02" gradientUnits="userSpaceOnUse"><stop stop-color="#1A1E21"/><stop offset="1" stop-color="#06060A"/></linearGradient></defs></svg>