<!-- by TradingView --><svg width="56" height="56" viewBox="0 0 56 56" xmlns="http://www.w3.org/2000/svg"><path fill="#F0F3FA" d="M0 0h56v56H0z"/><path d="M37.71 14.26c-.3-.02-.34.14-.14.49.27.47.82 1.15 1.64 2.05.29.32.5.71.72 1.07.05.08.11.1.19.04.07-.06.14-.1.2-.1a9.6 9.6 0 0 1 .7 5.1c-.01-.1-.06-.13-.15-.11a.14.14 0 0 0-.1.06.14.14 0 0 0-.02.1c.04.38-.03.72-.2 1.03-.13.2-.04.45-.14.67-.24.56-.5 1.12-.76 1.67a8.94 8.94 0 0 1-2.04 2.49c-.36.3-.72.56-1.08.8-.3.22-.67.39-1.1.52a.4.4 0 0 0-.18.11.28.28 0 0 1-.3.09.26.26 0 0 0-.19.02c-.12.07-.18.19-.17.36-1.2.21-2.4.3-3.63.26-1.95-.06-3.9-.16-5.85-.3-.67-.06-1.64.04-2.91.29-.12-.14-.46-.1-1 .08-.14.05-.22 0-.25-.13-.02-.06.06-.12.21-.18a7.03 7.03 0 0 1 2.38-.46 33.8 33.8 0 0 1 3.7.13c1.1.1 2.14-.02 3.24.11.82.1 1.64-.11 2.46-.1.55 0 1.07-.07 1.59-.24a9.46 9.46 0 0 0 3.82-2.37c.2-.2.36-.42.47-.67.11-.25.26-.49.43-.72.48-.63.72-1.48.98-2.25.29-.83.4-1.7-.1-2.43a12.89 12.89 0 0 0-7.91-5.56c-2.17-.54-4.46-.5-6.86.12-1.5.38-2.9 1.05-4.24 2a13.12 13.12 0 0 0-4.68 6.48c-.16.45-.08.5.24.13.4-.46.64-1.04 1.1-1.47.5-.46.97-.93 1.4-1.4.1-.1.16-.25.27-.33a12.5 12.5 0 0 1 2.48-1.56c.64-.27 1.27-.6 1.93-.8 1.15-.37 1.91-.57 2.29-.63 2.2-.34 4.18.16 5.92 1.5a9.35 9.35 0 0 0-5.98-.87c-2.95.6-5.45 1.98-7.5 4.14-2.03 2.14-3.12 4.96-2.35 7.94-.1-.05-.16.06-.18.33 0 .11.01.23.04.36a13.36 13.36 0 0 0 8.96 9.43c.37.12.74.2 1.12.25.37.05.75.1 1.13.17 1.12.2 2.43.12 3.54.02 1.43-.12 2.85-.55 4.28-1.26.98-.5 2.14-.97 3.5-1.41.78-.26 2.03-.92 3.75-1.97-.4.6-.91 1.1-1.55 1.52-1.1.71-2.18 1.24-3.24 1.56-.03.01-.04.03-.03.06l.01.06c.02.04.05.06.09.05 1.1-.25 2.14-.62 3.12-1.11.42-.2.45-.15.11.16a9.89 9.89 0 0 1-3.24 1.98 19.6 19.6 0 0 1-8.83 1.09c-.67-.07-1.34-.16-1.99-.26-.15-.02-.16 0-.04.1l.26.18c.05.11.03.19-.07.24a2.1 2.1 0 0 0-.21.13c-.07.05-.07.08.01.1l.96.29c.22.06.55.1.98.12.47.03.85.15 1.14.37a25.87 25.87 0 0 1-12.58-3.77.09.09 0 0 0-.1.09c.01.55.4 1.2.7 1.68a.02.02 0 0 1-.01.03h-.02c-3.23-2.87-5.61-6.3-6.53-10.38a13.82 13.82 0 0 1 0-5.92c.2-.2.33-.44.42-.73.1-.37.18-.63.25-.78.32-.67.46-1.38.77-2.03.81-1.7 1.86-3.2 3.14-4.52.27-.27.56-.5.88-.69.4-.24.77-.52 1.1-.84.22-.2.45-.38.72-.53l.78-.45a21.72 21.72 0 0 1 3.85-1.7 15.26 15.26 0 0 1 8.3-.03c1.48.4 2.82.89 4.11 1.64.2.1.32.06.4-.13a.21.21 0 0 0-.03-.19l-.18-.29c-.55-1.6-.03-2.92.66-4.25.15-.28.21-.27.18.05a6.16 6.16 0 0 0 1.04 4Z" fill="#ED8322"/><path d="m35.83 14.45.18.29c.04.06.05.12.02.19-.07.2-.2.24-.39.13a16.25 16.25 0 0 0-4.1-1.64 15.25 15.25 0 0 0-8.3.03 21.72 21.72 0 0 0-4.64 2.15c-.27.15-.5.33-.71.53-.34.32-.7.6-1.11.84-.32.19-.61.42-.88.7a16.72 16.72 0 0 0-3.14 4.5c-.31.66-.46 1.37-.77 2.04-.07.15-.15.41-.25.78-.09.3-.23.54-.42.73.03-.38.09-.73.17-1.04a16.8 16.8 0 0 1 5.8-8.87 15.78 15.78 0 0 1 9.58-3.65c3.07-.11 6.06.66 8.96 2.3ZM37.71 14.26l2.62 3.54a.57.57 0 0 0-.21.11c-.08.05-.14.04-.2-.04-.22-.36-.42-.75-.7-1.07-.83-.9-1.38-1.58-1.65-2.05-.2-.35-.15-.51.14-.5Z" fill="#F4AB1D"/><path d="M22.2 30.97a3.4 3.4 0 0 0-1.48.66c-.19.15-.26.12-.21-.12.13-.73.2-1.46.51-2.14.98-2.15 2.72-3.18 5.23-3.1.86.03 1.77.08 2.71.14 1.68.11 4-.72 4.68-2.46a2.5 2.5 0 0 0 .04-1.9 4.77 4.77 0 0 0-1.61-1.83 7.48 7.48 0 0 0-5.92-1.5c-.38.06-1.14.27-2.29.63-.66.2-1.29.53-1.93.8-.63.26-1.46.78-2.48 1.56-.1.08-.18.22-.27.32-.43.48-.9.95-1.4 1.41-.46.43-.7 1-1.1 1.47-.32.37-.4.32-.24-.13.99-2.79 2.55-4.95 4.68-6.48a12.64 12.64 0 0 1 4.24-2c2.4-.62 4.68-.66 6.86-.12 3.38.84 6.02 2.7 7.92 5.56.48.73.38 1.6.1 2.43-.27.77-.51 1.62-1 2.25-.16.23-.3.47-.42.72-.11.25-.27.47-.47.67a9.46 9.46 0 0 1-3.82 2.37c-.52.17-1.05.25-1.59.24-.82-.01-1.64.2-2.46.1-1.1-.13-2.15-.02-3.24-.11a33.8 33.8 0 0 0-3.7-.13c-.82.02-1.61.17-2.38.46-.15.06-.23.12-.21.18.03.14.11.18.25.13.54-.19.88-.22 1-.08Z" fill="#F4AB1D"/><path d="M41 23.04c-.4 3.73-2.7 6.68-6.41 7.68 0-.17.05-.3.17-.36a.26.26 0 0 1 .2-.02c.11.03.2 0 .29-.09a.4.4 0 0 1 .18-.11c.43-.13.8-.3 1.1-.51.36-.25.72-.52 1.08-.81a8.95 8.95 0 0 0 2.04-2.5c.26-.54.52-1.1.76-1.66.1-.22.01-.46.13-.67.18-.3.25-.65.21-1.03 0-.03 0-.06.03-.1a.14.14 0 0 1 .09-.06c.09-.02.14.01.15.1l-.01.14ZM19.54 28.54c.54-1.15 1.27-2.19 1.44-3.5.02-.17.08-.18.16-.02.31.59.45 1.17.4 1.75-.05.84-.63 1.69-1.01 2.44-.27.53-.4 1.17-.34 1.75.02.25-.05.29-.22.1-.7-.78-.84-1.62-.43-2.52Z" fill="#F4AB1D"/><path d="m36.24 38.92-.58-.01c-.31-.03-.58.15-.87.1-.21-.04-.22-.11-.02-.2a46.1 46.1 0 0 0 3.12-1.57c.55-.3 1.2-.75 1.6-1.25a10 10 0 0 1 .98-1.06c.33-.3.65-.67.95-1.1.28-.4.6-.8.94-1.2.82-.92 1.5-2 2.03-3.26.06-.14.1-.28.12-.43.02-.08-.02-.12-.1-.1l-.22.04c.41-1.08.6-2.2.55-3.35 0-.04.02-.06.06-.06.04 0 .06.01.07.05.47 3.3-.34 6.2-2.44 8.72a17 17 0 0 1-6.2 4.68Z" fill="#ED8322"/><path d="M23.92 29.64c.4 0 .73-.33.73-.73 0-.4-.33-.72-.73-.72-.41 0-.74.32-.74.72 0 .4.33.73.74.73Z" fill="#BE1D2D"/><path d="M36.24 38.92c-.42.24-.85.44-1.3.6-.03.02-.04.05-.03.08.01.04.04.06.07.05a22.47 22.47 0 0 0 8.13-3.46c-.19.55-.43.93-.73 1.16a21.03 21.03 0 0 1-3.76 1.97c-1.34.44-2.5.91-3.49 1.4A11.85 11.85 0 0 1 30.85 42a14.43 14.43 0 0 1-4.67-.2 7.03 7.03 0 0 1-1.12-.24 13.36 13.36 0 0 1-8.96-9.43 1.14 1.14 0 0 1-.04-.36c.02-.27.08-.38.18-.33a9.26 9.26 0 0 0 5.53 5.58 18.57 18.57 0 0 0 20.31-4.7 11.5 11.5 0 0 0 2.11-3.43l.22-.04c.08-.02.12.02.1.1-.02.15-.06.3-.12.43a11.92 11.92 0 0 1-2.03 3.26c-.34.4-.66.8-.94 1.2-.3.43-.62.8-.95 1.1a10 10 0 0 0-.99 1.06c-.4.5-1.04.95-1.59 1.25a46 46 0 0 1-3.12 1.57c-.2.09-.2.16.02.2.29.05.56-.13.87-.1.2.01.4.02.58 0ZM27.05 42.74c2.54.52 5 .73 7.4.65.45-.02.46.03.02.13-1.5.37-3.03.52-4.61.47a1.96 1.96 0 0 0-1.14-.37 4.82 4.82 0 0 1-.98-.12l-.96-.28c-.08-.03-.08-.06-.01-.11l.21-.13c.1-.05.12-.13.07-.24Z" fill="#F4AB1D"/></svg>