<!-- by TradingView --><svg width="56" height="56" viewBox="0 0 56 56" xmlns="http://www.w3.org/2000/svg"><path fill="#008EFF" d="M0 0h56v56H0z"/><path d="M20.89 30.48 20.17 34H17l2.63-12c-.86.16-1.68.03-2.14-.31l.27-1.27c1.24.19 2.9-.3 4.14-1.42l1.5.23-1.9 8.43c.87-.3 1.73-.76 2.39-1.25.64-.46 1.07-.86 1.07-1.27 0-.1-.03-.17-.06-.25a.93.93 0 0 1-.09-.42c0-.83.66-1.47 1.5-1.47 1.01 0 1.69.7 1.69 1.72 0 .7-.41 1.59-2 2.92-.4.34-.9.7-1.43 1.04l.9 1.93c.47 1.06.9 1.57 1.67 1.57.2 0 .39-.04.6-.1l-.34 1.35c-.28.25-.96.57-1.83.57-1.13 0-1.87-.5-2.5-1.97l-.9-2.03c-.42.19-.87.35-1.28.48ZM36.32 27c.7 0 1.34-.54 1.34-1.46 0-1.27-1.36-2.53-4.01-2.53-2.25 0-4.25 1.24-4.25 3.36 0 1.76 1.41 2.64 2.62 3.04 1.52.5 2.05.8 2.05 1.46 0 .73-.59 1.17-1.69 1.17-.86 0-1.45-.38-1.61-1.17a1.22 1.22 0 0 0-1.22-1.01c-.7 0-1.31.5-1.31 1.45 0 1.36 1.4 2.7 4.08 2.7 2.9 0 4.57-1.46 4.57-3.38 0-1.48-1-2.35-2.85-3-1.41-.49-2.05-.75-2.05-1.46 0-.69.61-1.11 1.55-1.11.78 0 1.31.24 1.54.95.18.62.59 1 1.24 1Zm12.68.65c0-2.71-1.86-4.64-4.93-4.64C40.5 23 38 25.88 38 29.34c0 2.73 1.84 4.66 4.93 4.66 3.55 0 6.07-2.88 6.07-6.36Zm-3.08-.02c0 2.27-1.1 4.31-2.9 4.31-1.43 0-2.05-1.2-2.05-2.49 0-2.27 1.14-4.34 2.9-4.34 1.45 0 2.05 1.2 2.05 2.52Zm-33.71 4.25c-1.4 0-2.23-.59-2.41-1.78 4.42.22 6.85-1.89 6.85-4.13 0-1.34-1.02-2.96-3.73-2.96C9.94 23 7 25.25 7 29.32 7 32.38 9.22 34 11.71 34c2.13 0 3.57-.87 4.29-2.27l-1.33-.97c-.57.77-1.43 1.11-2.46 1.11Zm1.79-5.7c0 1.06-1.1 2.14-4.16 2.1.32-2.03 1.59-3.2 2.85-3.2.74 0 1.3.38 1.3 1.1Z" fill="#fff"/></svg>