<!-- by TradingView --><svg width="56" height="56" viewBox="0 0 56 56" xmlns="http://www.w3.org/2000/svg"><path fill="#F0F3FA" d="M0 0h56v56H0z"/><path d="M28.85 9.5c.14 0 .25-.1.25-.25 0-.14-.11-.25-.25-.25a.25.25 0 0 0-.24.25c0 .14.1.26.24.26ZM26.76 11.9c.19 0 .34-.15.34-.35 0-.2-.15-.35-.34-.35a.35.35 0 0 0-.34.35c0 .2.15.36.34.36ZM29.6 13.69c.23 0 .43-.2.43-.45s-.2-.45-.44-.45-.43.2-.43.45.2.45.43.45ZM26.3 15.02a.6.6 0 0 0 .59-.61.6.6 0 0 0-.59-.61.6.6 0 0 0-.58.61c0 .34.26.61.58.61ZM23.56 15.38a.5.5 0 0 0 .48-.5.5.5 0 0 0-.48-.5.5.5 0 0 0-.48.5c0 .28.21.5.48.5ZM31.32 17a.5.5 0 0 0 .48-.5.5.5 0 0 0-.48-.5.5.5 0 0 0-.49.5c0 .28.22.5.49.5ZM27 18.5c.42 0 .75-.35.75-.78a.75.75 0 0 0-.74-.77c-.4 0-.74.35-.74.77 0 .43.33.77.74.77ZM23.1 19.42c.45 0 .82-.38.82-.86a.84.84 0 0 0-.82-.86.84.84 0 0 0-.83.86c0 .48.37.86.83.86ZM33.77 19.7c.28 0 .5-.23.5-.52a.51.51 0 0 0-.5-.53c-.27 0-.5.24-.5.53 0 .29.23.52.5.52ZM20.37 19.73c.18 0 .34-.15.34-.35 0-.2-.16-.36-.34-.36a.35.35 0 0 0-.35.36c0 .2.16.35.35.35ZM28.76 21.83c.46 0 .83-.4.83-.87a.85.85 0 0 0-.83-.87.85.85 0 0 0-.84.87c0 .48.38.87.84.87ZM23.84 23.27c.58 0 1.05-.5 1.05-1.1 0-.61-.47-1.1-1.05-1.1-.58 0-1.06.49-1.06 1.1 0 .6.48 1.1 1.06 1.1ZM36.2 22.39c.26 0 .48-.23.48-.5 0-.28-.22-.5-.48-.5a.49.49 0 0 0-.48.5c0 .27.22.5.48.5ZM19.9 23.64a.6.6 0 0 0 .6-.62.6.6 0 0 0-.6-.62.6.6 0 0 0-.58.62c0 .34.26.62.59.62ZM31.2 24.56a.9.9 0 0 0 .88-.92.9.9 0 0 0-.89-.93.9.9 0 0 0-.88.93c0 .5.4.92.88.92ZM17.81 24.1c.14 0 .25-.12.25-.26a.25.25 0 0 0-.25-.26.25.25 0 0 0-.25.26c0 .14.11.25.25.25ZM25.56 26.65a1.2 1.2 0 0 0 1.18-1.23 1.2 1.2 0 0 0-1.18-1.22 1.2 1.2 0 0 0-1.17 1.22c0 .68.53 1.23 1.17 1.23ZM37.95 25.59c.24 0 .44-.2.44-.46 0-.25-.2-.46-.44-.46s-.44.2-.44.46c0 .25.2.46.44.46ZM33.63 27.24c.46 0 .83-.39.83-.87a.85.85 0 0 0-.83-.86.85.85 0 0 0-.83.86c0 .48.37.87.83.87ZM20.65 27.44c.4 0 .74-.35.74-.78a.76.76 0 0 0-.74-.78.76.76 0 0 0-.75.78c0 .43.34.78.75.78ZM28.02 29.4c.68 0 1.23-.57 1.23-1.27 0-.7-.55-1.28-1.23-1.28-.67 0-1.22.57-1.22 1.28 0 .7.55 1.27 1.22 1.27ZM17.35 27.87c.2 0 .35-.16.35-.36 0-.2-.16-.37-.35-.37-.2 0-.35.16-.35.37 0 .2.16.36.35.36ZM38.67 29.11c.18 0 .33-.15.33-.34 0-.2-.15-.35-.33-.35a.34.34 0 0 0-.33.35c0 .19.14.34.33.34ZM35.38 30.38c.4 0 .74-.34.74-.77a.76.76 0 0 0-.74-.77c-.4 0-.74.34-.74.77s.33.77.74.77ZM22.39 30.77c.46 0 .83-.39.83-.86a.85.85 0 0 0-.83-.87.85.85 0 0 0-.83.87c0 .47.37.86.83.86ZM30.46 32.06a1.2 1.2 0 0 0 1.17-1.23 1.2 1.2 0 0 0-1.17-1.23 1.2 1.2 0 0 0-1.18 1.23c0 .68.53 1.23 1.18 1.23ZM18.07 31.6c.24 0 .43-.2.43-.45s-.2-.46-.43-.46c-.24 0-.44.2-.44.46 0 .25.2.45.44.45ZM24.82 33.52a.9.9 0 0 0 .87-.91.9.9 0 0 0-.87-.91.9.9 0 0 0-.87.91c0 .5.39.91.87.91ZM38.2 32.67c.13 0 .24-.11.24-.26a.25.25 0 0 0-.24-.25.25.25 0 0 0-.25.25c0 .15.11.26.25.26ZM36.11 33.82c.31 0 .56-.26.56-.59a.58.58 0 0 0-.56-.59.58.58 0 0 0-.56.6c0 .32.25.58.56.58ZM32.18 35.17c.59 0 1.07-.5 1.07-1.1 0-.62-.48-1.12-1.07-1.12-.58 0-1.06.5-1.06 1.11 0 .62.48 1.11 1.06 1.11ZM19.81 34.88a.5.5 0 0 0 .48-.5.5.5 0 0 0-.48-.5.5.5 0 0 0-.48.5c0 .28.22.5.48.5ZM27.27 36.19c.46 0 .83-.4.83-.87a.85.85 0 0 0-.83-.87.85.85 0 0 0-.83.87c0 .48.37.87.83.87ZM22.25 37.6c.28 0 .5-.24.5-.53 0-.3-.22-.53-.5-.53s-.5.24-.5.53c0 .3.22.53.5.53ZM35.65 37.24c.18 0 .33-.16.33-.35 0-.2-.15-.35-.33-.35a.34.34 0 0 0-.34.35c0 .2.15.35.34.35ZM32.92 38.56c.46 0 .83-.39.83-.87a.85.85 0 0 0-.83-.86.85.85 0 0 0-.83.86c0 .48.37.87.83.87ZM29.01 39.33c.41 0 .74-.34.74-.77a.76.76 0 0 0-.74-.78.76.76 0 0 0-.74.78c0 .43.33.77.74.77ZM24.7 40.28c.27 0 .48-.22.48-.5 0-.27-.21-.5-.47-.5a.49.49 0 0 0-.48.5c0 .28.22.5.48.5ZM32.46 41.88c.26 0 .47-.22.47-.5 0-.27-.2-.49-.47-.49a.49.49 0 0 0-.48.5c0 .27.22.5.48.5ZM29.73 42.34c.31 0 .57-.26.57-.6 0-.32-.26-.59-.57-.59a.58.58 0 0 0-.57.6c0 .33.25.6.57.6ZM26.44 43.47c.24 0 .43-.2.43-.45s-.2-.45-.43-.45c-.24 0-.43.2-.43.45s.19.45.43.45ZM29.26 44.89c.19 0 .34-.16.34-.35 0-.2-.15-.35-.34-.35a.34.34 0 0 0-.33.35c0 .2.15.35.33.35ZM26.98 46.5c-.09.12-.07.29.04.36.1.08.26.04.34-.08.08-.13.06-.29-.05-.36-.1-.08-.25-.04-.33.08Z" fill="#B7803A"/></svg>