<!-- by TradingView --><svg xmlns="http://www.w3.org/2000/svg" width="56" height="56" viewBox="0 0 56 56"><path fill="#F0F3FA" d="M0 0h56v56H0z"/><path d="M28.12 11 9 29.83l5.13 5.06 13.99-13.77L40.15 33h3.42L28.12 17.75 14.14 31.53l-1.72-1.7 15.7-15.46 17.19 16.9L47 29.58 28.12 11Z" fill="#D21C5B"/><path d="m15.85 36.57 5.13 5.06 7.14-7.03 5.15 5.4h3.47l-8.62-8.77-7.17 7-1.68-1.66 8.85-8.7L38.4 38.04 43.57 33h-3.42l-1.7 1.65-10.33-10.16-12.27 12.08Z" fill="#E9692F"/><path d="M22.7 43.31 24.4 45l3.7-3.65 3.47 3.43L36.74 40h-3.47l-1.68 1.4-3.47-3.42-5.42 5.33Z" fill="#F89E1E"/></svg>