<!-- by TradingView --><svg width="56" height="56" viewBox="0 0 56 56" xmlns="http://www.w3.org/2000/svg"><path fill="#F0F3FA" d="M0 0h56v56H0z"/><path fill-rule="evenodd" d="M21 21h-3v13h3V21ZM8.98 29.5h6.94c.33-1.82-.19-5.5-4.83-5.5-4.65 0-5.3 3.63-5.04 5.45.07 1.51 1.3 4.55 5.58 4.55 1.9 0 3.54-.6 4.13-.9v-2.55A5.91 5.91 0 0 1 11.89 32c-1.96 0-2.76-1.69-2.9-2.5Zm.06-1.5H13c.03-.67-.28-2-1.8-2s-2.06 1.33-2.15 2Zm23.94 1.5h6.94c.33-1.82-.19-5.5-4.83-5.5-4.65 0-5.3 3.63-5.04 5.45.07 1.51 1.3 4.55 5.57 4.55 1.9 0 3.55-.6 4.14-.9v-2.55A5.91 5.91 0 0 1 35.89 32c-1.96 0-2.76-1.69-2.9-2.5Zm.06-1.5H37c.03-.67-.28-2-1.8-2s-2.06 1.33-2.15 2ZM24 26v5.38c.02.88.73 2.62 3.36 2.62.86 0 1.85-.21 2.24-.32V31.6a3 3 0 0 1-1.6.43c-.95 0-1-.62-1-1.26V26h2v-2h-2v-2h-3v2h-2v2h2Zm17-5h3v7.75L46.77 25H50l-3.23 3.94L50 34h-3.02l-2.44-4-.54.73V34h-3V21Z" fill="#4D9739"/></svg>