<!-- by TradingView --><svg width="56" height="56" viewBox="0 0 56 56" xmlns="http://www.w3.org/2000/svg"><path fill="#F0F3FA" d="M0 0h56v56H0z"/><path d="M27.2 12c-2.47 1.93-5.25 4.64-5.79 7.04-.61 2.77 1.18 4.13 2.5 5.13.7.54 1.27.97 1.27 1.47 0 .63-.66 1.07-1.72 1.79a21.9 21.9 0 0 0-5.34 4.8 18.63 18.63 0 0 0-2.99 5.28A16 16 0 0 1 27.2 12Zm6.6 1.07c-3.31.67-7.21 1.91-7.21 4.56 0 1.88.82 2.83 1.65 3.77.82.94 1.64 1.88 1.64 3.76 0 1.9-2.36 3.8-4.72 5.68-2.35 1.87-4.69 3.75-4.69 5.63 0 2.14 1.1 4.72 2.14 6.6a16 16 0 0 0 11.19-30Z" fill="url(#ahwpg0ifg)"/><defs><linearGradient id="ahwpg0ifg" x1="12" y1="26.58" x2="44" y2="27.05" gradientUnits="userSpaceOnUse"><stop stop-color="#FBAA1A"/><stop offset="1" stop-color="#E25D24"/></linearGradient></defs></svg>