<!-- by TradingView --><svg xmlns="http://www.w3.org/2000/svg" width="56" height="56" viewBox="0 0 56 56"><path fill="#FC4F00" d="M0 0h56v56H0z"/><path d="M20.08 18c1.2-2 5.22-5.98 11.7-6 1.8 0 5.45.61 8.08 3.66v1.54l-1.26-.4a12.3 12.3 0 0 0-8.42-3.38c-4.3 0-8.52 3.03-10.1 4.58Zm-2.86 19.63A12.87 12.87 0 0 0 27.72 43c1.78 0 6.08-.85 9.1-4.34-1.27 1-4.7 3-8.31 3.05-4.51.05-7.94-2.45-9.78-4.97L17.45 36l-.23 1.63ZM17.4 19 9 37h3.2l6.55-14.76L21.82 29h-4.43l-.9 2.5h6.48l2.45 5.5h3.34l-8.38-18h-3ZM30 19h15v2.25L33.86 34.5H45V37H30v-2.22L41.42 21.5H30V19Z" fill="#fff"/></svg>