<!-- by TradingView --><svg width="56" height="56" viewBox="0 0 56 56" xmlns="http://www.w3.org/2000/svg"><path fill="#F0F3FA" d="M0 0h56v56H0z"/><path d="M40.75 35.49a5.16 5.16 0 0 1-3.82-4.63c-10.85 6.85-18.74 5.4-21.04 3.36-2.3-2.04-1.58-8.1 9.28-13.68 8.68-4.47 13-3.87 14.06-3 2.16 2.75-5.65 7.27-9.82 9.18l.55.6c12.95-5.9 13.76-10.47 12.55-12-3.5-3.32-13.83.41-18.56 2.7-12.32 6.77-14.39 13.62-13.88 16.2-.24 1.57 1.09 8.29 11.88 7.75a37.89 37.89 0 0 0 18.8-6.48Z" fill="#EE4C26"/><ellipse cx="42.34" cy="30.04" rx="3.66" ry="3.62" fill="#22336B"/><ellipse cx="41.9" cy="29.54" rx="2.73" ry="2.71" fill="#434F81"/><ellipse cx="41.58" cy="29.19" rx="2.05" ry="2.03" fill="#7A77A1"/><ellipse cx="41.58" cy="29" rx="1.24" ry="1.23" fill="#B1AFC7"/></svg>