<!-- by TradingView --><svg width="56" height="56" viewBox="0 0 56 56" xmlns="http://www.w3.org/2000/svg"><path fill="url(#aa5szpu3a)" d="M0 0h56v56H0z"/><path d="M25 9h6v3h6.2c1.54 0 2.8 1.23 2.8 2.75v27.5A2.78 2.78 0 0 1 37.2 45H18.8a2.78 2.78 0 0 1-2.8-2.75v-27.5A2.78 2.78 0 0 1 18.8 12H25V9Zm-2.5 13a1.5 1.5 0 1 0 0-3 1.5 1.5 0 0 0 0 3Zm11 0a1.5 1.5 0 1 0 0-3 1.5 1.5 0 0 0 0 3Zm-2.23 5h-6.54l-1.02 2.05L22.67 27c-.93.07-1.67.84-1.67 1.77v8.46c0 .98.8 1.77 1.8 1.77h10.4c1 0 1.8-.8 1.8-1.77v-8.46c0-.93-.74-1.7-1.67-1.77l-1.02 2.05L31.27 27Zm-2.77 2s-1.7 2.64-2.5 4h1.5v4l2.5-4h-1.5v-4Z" fill="#2BB7B7"/><defs><linearGradient id="aa5szpu3a" x1="10.42" y1="9.71" x2="68.15" y2="76.02" gradientUnits="userSpaceOnUse"><stop stop-color="#1A1E21"/><stop offset="1" stop-color="#06060A"/></linearGradient></defs></svg>