<!-- by TradingView --><svg width="56" height="56" viewBox="0 0 56 56" xmlns="http://www.w3.org/2000/svg"><path d="M0 28a28 28 0 1 1 56 0 28 28 0 1 1-56 0Z" fill="#F0F3FA"/><path d="M34.99 15a5.61 5.61 0 0 0-5.66 4.87c0 .23.09.7.45.8.36.08.54-.32.59-.53a4.28 4.28 0 0 1 4.24-3.43 3.73 3.73 0 0 1 3.49 2.31c.13.4.71 1.62 1.8 1.64.88.02.94-.63.86-.95-1.14-3.74-3.8-4.71-5.77-4.71Z" fill="url(#a2yybgmef)"/><path d="M34.37 26.5c3.98 0 5.52-3.42 5.66-5 0-.24-.1-.73-.46-.81-.36-.1-.54.32-.58.53-.29 1.59-1.8 3.58-4.25 3.52a3.74 3.74 0 0 1-3.48-2.37c-.14-.4-.72-1.67-1.81-1.68-.87-.02-.93.64-.85.97 1.14 3.84 3.8 4.84 5.77 4.84Z" fill="url(#b2yybgmef)"/><circle cx="35" cy="22" r="2" fill="#307FE2"/><path fill-rule="evenodd" d="M22.2 26a.2.2 0 0 0-.2.2v7.6c0 .11.09.2.2.2h1.03a.2.2 0 0 0 .18-.12l.2-.44c.45.35 1.01.56 1.62.56 1.54 0 2.79-1.34 2.79-3s-1.25-3-2.8-3c-.57 0-1.1.19-1.54.5v-2.3a.2.2 0 0 0-.2-.2H22.2Zm4.3 5.08c0 .81-.63 1.47-1.4 1.47-.78 0-1.42-.66-1.42-1.47 0-.81.64-1.47 1.41-1.47.78 0 1.41.66 1.41 1.47ZM13.52 34c.07 0 .13-.06.13-.14v-3.3c0-.58.47-1.05 1.04-1.05.57 0 1.03.47 1.03 1.05v3.3c0 .08.06.14.14.14h1.33c.07 0 .13-.06.13-.14v-3.3c0-.58.47-1.05 1.04-1.05.57 0 1.03.47 1.03 1.05v3.3c0 .08.06.14.14.14h1.33c.07 0 .14-.06.14-.14v-3.77c0-1.16-.93-2.09-2.06-2.09h-.4c-.67 0-1.26.32-1.64.82-.37-.5-.97-.82-1.63-.82h-.4c-.5 0-.96.18-1.32.48a1.38 1.38 0 0 1-.04-.11.9.9 0 0 0-.1-.23.37.37 0 0 0-.29-.14h-.98a.14.14 0 0 0-.14.14v5.72c0 .08.06.14.14.14h1.38Zm-5.43 0c.8 0 1.5-.29 2-.76a.13.13 0 0 0 .02-.18l-.63-.84c-.05-.07-.16-.08-.22-.02a2.1 2.1 0 0 1-1.21.38c-.63 0-1.17-.43-1.38-1.03h4.17c.07 0 .13-.05.14-.12l.02-.36C11 29.4 9.8 28 8.09 28A3.04 3.04 0 0 0 5 31c0 1.66 1.38 3 3.09 3Zm1.3-3.64H6.7c.23-.56.75-.94 1.35-.94.6 0 1.12.38 1.35.94ZM31.84 34c.8 0 1.5-.29 2-.76a.13.13 0 0 0 .02-.17l-.63-.85c-.06-.07-.16-.07-.23-.02a2.1 2.1 0 0 1-1.2.38c-.64 0-1.18-.42-1.39-1.03h4.18c.07 0 .13-.05.14-.11l.02-.37c0-1.66-1.21-3.07-2.91-3.07a3.04 3.04 0 0 0-3.1 3c0 1.66 1.39 3 3.1 3Zm1.3-3.64h-2.7c.24-.55.76-.94 1.36-.94.6 0 1.12.39 1.35.94Zm8.87-3.9c0-.1.07-.19.17-.2l1.25-.22a.2.2 0 0 1 .23.2V28h1.15c.1 0 .2.09.2.2v1.17a.2.2 0 0 1-.2.2h-1.15v4.23a.2.2 0 0 1-.2.2H42.2a.2.2 0 0 1-.2-.2v-4.23h-.8a.2.2 0 0 1-.2-.2V28.2c0-.11.09-.2.2-.2h.8v-1.55Zm-1.66 6.63a.2.2 0 0 1-.02.26 3 3 0 1 1-.02-4.72c.08.07.1.18.03.26l-.58.85c-.07.1-.22.11-.32.04a1.56 1.56 0 0 0-2.49 1.21 1.56 1.56 0 0 0 2.46 1.24c.1-.07.23-.06.3.03l.64.83Zm7.58.9c.56 0 1.08-.15 1.52-.43l.2.34c.03.06.1.1.17.1h.99a.2.2 0 0 0 .2-.2v-5.6a.2.2 0 0 0-.2-.2h-.96a.2.2 0 0 0-.2.14l-.1.36a2.86 2.86 0 0 0-1.62-.5A2.96 2.96 0 0 0 45 31c0 1.65 1.3 3 2.92 3Zm.14-1.57c.78 0 1.41-.64 1.41-1.42 0-.79-.63-1.43-1.4-1.43-.79 0-1.42.64-1.42 1.43 0 .78.63 1.42 1.41 1.42Z" fill="#2E008B"/><defs><linearGradient id="a2yybgmef" x1="40.54" y1="19.51" x2="29.33" y2="19.74" gradientUnits="userSpaceOnUse"><stop stop-color="#FC673D"/><stop offset="1" stop-color="#BD199F"/></linearGradient><linearGradient id="b2yybgmef" x1="28.91" y1="22.36" x2="39.76" y2="22.36" gradientUnits="userSpaceOnUse"><stop stop-color="#307ADF"/><stop offset="1" stop-color="#2E038D"/></linearGradient></defs></svg>