<!-- by TradingView --><svg xmlns="http://www.w3.org/2000/svg" width="56" height="56"><path fill="#F0F3FA" d="M0 0h56v56H0z"/><path d="M19.77 25c-.95 0-1.55.07-2.22.6-.63-.5-1.47-.6-2.35-.6-1.5 0-3.14.6-3.2 2.33V32h2v-4.57c0-.62.46-.75 1.27-.75.77 0 1.23.13 1.23.72V32h2v-4.47c0-.72.53-.79 1.27-.79.66 0 1.23.03 1.23.76V32h2v-4.57c0-1.06-.6-2.43-3.23-2.43zM7.4 25c1.45 0 2.32.23 2.83.66.47.43.74 1.26.77 2.52V29H6c.03.83.1 1.05.25 1.18h.01c.15.12.28.23 1.27.23H11V32H7.57c-1.45 0-2.36-.23-2.86-.73-.47-.5-.71-1.4-.71-2.82 0-1.33.24-2.19.7-2.69.51-.5 1.39-.76 2.7-.76zM6 27.59h3c0-.6-.17-.75-.21-.8h-.01c-.07-.06-.34-.2-1.31-.2-.98 0-1.22.17-1.28.23-.04.04-.16.2-.19.77zM48.4 25c1.45 0 2.32.23 2.83.66.47.43.74 1.26.77 2.52V29h-5c.03.83.1 1.05.25 1.18h.01c.15.12.28.23 1.27.23H52V32h-3.43c-1.45 0-2.36-.23-2.86-.73-.47-.5-.71-1.4-.71-2.82 0-1.33.24-2.19.7-2.69.51-.5 1.39-.76 2.7-.76zM47 27.59h3c0-.6-.17-.75-.21-.8h-.01c-.07-.06-.34-.2-1.31-.2-.98 0-1.22.17-1.28.23-.04.04-.16.2-.19.77zm-16.5 2.88h-2.92c-1.07 0-1.22-.11-1.34-.23-.13-.12-.24-.53-.24-1.76 0-1.03.07-1.57.24-1.72.11-.12.27-.23 1.03-.23h3.23V25h-3.16c-1.24 0-2.14.27-2.62.73-.58.6-.72 1.82-.72 2.72 0 .96.14 2.26.72 2.82.48.46 1.38.73 2.75.73h3.03v-1.53zm1.2-4.77c.48-.47 1.38-.7 2.8-.7s2.32.23 2.8.7c.6.53.7 1.85.7 2.85 0 1.4-.24 2.29-.7 2.75-.48.47-1.34.7-2.8.7-1.42 0-2.32-.23-2.8-.7-.46-.43-.7-1.36-.7-2.75 0-1 .1-2.29.7-2.85zm2.8 4.77c1.1 0 1.28-.2 1.28-.2l.03-.04c.06-.13.19-.4.19-1.65 0-1.26-.13-1.69-.22-1.79 0 0-.17-.2-1.28-.2-1.1 0-1.28.2-1.28.2-.1.13-.22.53-.22 1.8 0 1.42.22 1.68.22 1.68s.17.2 1.28.2zm4.5-3c0-.59.23-2.47 3.22-2.47h2.28v1.55h-2.4c-.36 0-1.1.17-1.1 1.29V32h-2v-4.52z" fill="#848490"/></svg>