<!-- by TradingView --><svg width="56" height="56" fill="none" xmlns="http://www.w3.org/2000/svg"><path fill="#F0F3FA" d="M0 0h56v56H0z"/><path d="M15.318 31.459a5.5 5.5 0 1 0-2.16 1.287c-.11.008-.221.012-.334.012C10.636 32.758 9 31.138 9 29c0-1.955 1-4 3.5-4s3.5 2 3.483 5H10c.087.727 1.25 2 2.5 2s2.051-.692 2.5-1l.318.459Z" fill="#ED812D"/><path d="M12.5 26c1.744 0 2.5 1.5 2.5 3h-5c0-1.5.676-3 2.5-3Z" fill="#ED812D"/><path d="M21.5 25c1.372 0 2.5 1.133 2.5 2.286V33h-1v-5.714c0-.318-.2-1.286-1.4-1.286s-2.216.614-2.6 1.286V33h-1v-8h1v1.143c.448-.588 1.715-1.143 2.5-1.143Z" fill="#F18233"/><path d="M25 31.5V23l1-1v8c0 .932-.191 1.988 1 1.988v1c-.628 0-2 .01-2-1.488ZM30 25v7.972l-1 .01V25.01l1-.01ZM42.5 25c1.362 0 2.5 1 2.5 2.5V33h-1v-5.5c0-1-.75-1.5-2-1.5-1.191 0-2 1.5-2 1.5V33h-1V23l1-1v4.5s1.309-1.5 2.5-1.5ZM50 33h-.5c-.9 0-1.5-.5-1.5-2v-5h-.982v-1H48v-2l1-1v3h1v1h-1v5c0 1 .404 1 1 1v1ZM38 26c-.449.143-1.143.171-2.083.171C36.794 26.524 37 27.194 37 28c0 1.564-1.166 2-2.5 2h-1.167c-.292.168-.328.382-.328.642 0 .395.306.358.995.358h1c1.75 0 3 .832 3 2.01 0 1.586-2.197 1.99-3.696 1.99C32.691 35 31 34.63 31 33h1c0 1.008 1.32 1 2.304 1 .847 0 2.696-.051 2.696-.99 0-.573-.833-1.01-2-1.01h-1c-.927 0-2 0-2-1 0-.428.054-.929.629-1.265-.792-.363-1.129-.841-1.129-1.735 0-1.593 1.396-2.433 2.789-2.433.824 0 1.461-.046 1.91-.139.46-.092.93-.235 1.41-.428L38 26Zm-3.696.36c-1.005 0-1.804.648-1.804 1.64 0 .938.887 1.358 1.804 1.358 1.034 0 1.696-.35 1.696-1.358 0-.974-.673-1.64-1.696-1.64ZM30.5 23.134a1 1 0 1 1-2 0 1 1 0 0 1 2 0Z" fill="#CD3027"/></svg>