<!-- by TradingView --><svg width="56" height="56" viewBox="0 0 56 56" xmlns="http://www.w3.org/2000/svg"><path fill="#181B1E" d="M0 0h56v56H0z"/><path d="M35.44 16.95c2.47 3.6 6.17 5.4 6.14 10.3-.02 2.96-2.02 3.04-2.9 6.48-.71 2.85-.13 2.62-2.22 4.42-1.86 1.61-5.11 2.3-8.32 2.32-3.27 0-6.5-.71-8.12-1.9-2.37-1.75-5.82-7.42-5.5-11.5.04-.57.15-1.11.36-1.6 2.68-6.47 2.36-7.95 9.67-10.35 1.39-.46 2.7-.68 3.94-.7 2.48-.02 5.1.85 6.95 2.53ZM12 26.6c0 4.08 1.94 8.88 3.96 11.51 2.58 3.35 7.37 4.89 12.06 4.88 5.16 0 10.2-1.87 12.1-5.23 1.05-1.87.6-3.32 1.8-5.28 1.73-2.85 2.08-1.87 2.08-6.32 0-1.64-.96-4.24-1.63-5.44-.89-1.57-2.2-2.46-3.44-3.68-3.41-3.32-6.5-5.03-10.2-5.05-2.2-.01-4.6.56-7.41 1.73-4.81 2-5.5 3.23-7.25 7.43-.57 1.38-2.07 4-2.07 5.45Z" fill="#79C70D"/><path fill-rule="evenodd" d="M22.5 29a4.5 4.5 0 1 0 0-9 4.5 4.5 0 0 0 0 9Zm0-2a2.5 2.5 0 1 0 0-5 2.5 2.5 0 0 0 0 5Z" fill="#79C70D"/></svg>