<!-- by TradingView --><svg xmlns="http://www.w3.org/2000/svg" width="56" height="56" viewBox="0 0 56 56"><path fill="#F0F3FA" d="M0 0h56v56H0z"/><path d="M5 30.68V31h6.66c.14-.7.33-1.4.52-2.07h-.4c-.09.29-.3.8-.62 1.45H7.53v-3.76h2.52l.26 1.07h.37l-.01-.64-.02-.65.02-.67.01-.66h-.37l-.26.93H7.53v-3.34h2.95c.18.5.3.95.38 1.27h.38a239.61 239.61 0 0 1-.19-1.93H5v.48l1.28.24v7.72L5 30.68zm22.15-5.17l2.42 5.36c-.38.64-.8 1.2-1.23 1.66-.43.47-.9.86-1.38 1.15l.62.24c.17.05.3.08.38.08.35 0 .96-.8 1.82-2.43a43.56 43.56 0 0 0 2.57-6.06l.92-.15V25H30.6v.36l.98.15c-.1.52-.29 1.13-.53 1.83-.24.7-.54 1.47-.9 2.3l-1.83-4.13 1.11-.15V25h-3.28v.36l1 .15zM13 30.75V31h3v-.25l-1-.14v-4.2l.96-.41c.29-.1.54-.15.74-.15.98 0 1.3.64 1.3 1.56v3.2l-1 .14V31h3v-.25l-1-.14v-3.36c0-.78-.12-1.34-.4-1.67-.3-.32-.77-.49-1.43-.49a6.21 6.21 0 0 0-.47.03l-1.7 1V25l-.53.18c-.55.18-.99.33-1.47.44v.3l1 .08v4.61l-1 .14zm33.86-3.83h2.9a1.72 1.72 0 0 0-.4-1.14 1.27 1.27 0 0 0-1-.42c-.4 0-.74.13-1 .4a2 2 0 0 0-.5 1.16zM51 29.41a10.37 10.37 0 0 1-1.31 1.42 3.42 3.42 0 0 1-1.01.17c-.87 0-1.55-.26-2.02-.78a3.19 3.19 0 0 1-.7-2.2c0-.96.21-1.7.65-2.23.44-.53 1.06-.79 1.85-.79.65 0 1.18.17 1.6.5a1.5 1.5 0 0 1 .61 1.47c-.02.09-.04.2-.08.31h-3.75v.24c0 .84.19 1.5.56 1.98.38.48.9.72 1.54.72.37 0 .7-.08 1-.25.3-.18.58-.44.83-.8l.23.24zm-6.64.41l.46-.77-.28-.18c-.23.5-.5.84-.77 1.04-.28.2-.63.3-1.06.3-.61 0-1.1-.23-1.44-.68a3.08 3.08 0 0 1-.53-1.9c0-.7.15-1.24.44-1.65.3-.4.69-.61 1.17-.61.31 0 .55.08.72.25.18.16.26.39.26.68a2.03 2.03 0 0 1-.04.45l.04.06.42-.14.58-.14a26.99 26.99 0 0 0 .02-.4c0-.34-.17-.62-.51-.82-.34-.2-.8-.31-1.37-.31-.86 0-1.52.26-2 .78-.46.52-.7 1.25-.7 2.2 0 1 .23 1.75.7 2.26.46.5 1.15.76 2.06.76.28 0 .52-.03.75-.1.22-.05.43-.14.61-.26.1-.2.26-.46.47-.82zm-10.31.72c0-.2-.02-.43-.04-.69-.02-.26-.05-.57-.1-.92h.39c.04.54.2.96.47 1.26.27.29.64.44 1.1.44.37 0 .68-.1.9-.28.24-.2.35-.44.35-.75 0-.27-.08-.5-.24-.68a1.5 1.5 0 0 0-.7-.43l-.3-.1a4.38 4.38 0 0 1-1.37-.58 1.32 1.32 0 0 1-.35-.49c-.08-.2-.12-.4-.12-.63 0-.5.17-.9.51-1.22.35-.31.8-.47 1.37-.47a2.73 2.73 0 0 1 1.6.51 17.6 17.6 0 0 0 .05 1.3h-.4c0-.46-.1-.82-.33-1.07-.22-.27-.53-.4-.93-.4-.32 0-.58.1-.78.27-.2.17-.3.4-.3.66 0 .45.43.82 1.3 1.1l.26.09c.56.19.96.41 1.2.67.24.26.36.59.36 1 0 .55-.2 1-.6 1.35-.4.35-.91.52-1.56.52-.32 0-.63-.04-.93-.12-.3-.07-.56-.19-.81-.34zm-12.8-.66l.03.68c.25.16.53.27.82.35.3.08.6.12.92.12a2.3 2.3 0 0 0 1.57-.52c.4-.35.6-.8.6-1.36 0-.4-.12-.74-.36-1a2.9 2.9 0 0 0-1.2-.67 6.83 6.83 0 0 1-.26-.08c-.87-.28-1.31-.65-1.31-1.11 0-.26.1-.48.3-.66.2-.17.47-.26.79-.26.4 0 .7.13.93.39.22.26.33.62.33 1.08h.4a27.52 27.52 0 0 1-.06-1.3 2.73 2.73 0 0 0-1.6-.52c-.56 0-1.01.16-1.36.48-.34.3-.52.71-.52 1.22 0 .22.04.43.12.63.09.2.2.35.35.48.2.17.66.37 1.38.6l.3.08c.3.1.54.25.7.44.16.18.24.4.24.67 0 .31-.12.56-.35.75a1.4 1.4 0 0 1-.9.28c-.47 0-.84-.14-1.1-.44-.28-.3-.44-.71-.48-1.26h-.38l.1.93z" fill="#2E4A6A"/></svg>