<!-- by TradingView --><svg width="56" height="56" viewBox="0 0 56 56" xmlns="http://www.w3.org/2000/svg"><path fill="#F0F3FA" d="M0 0h56v56H0z"/><path d="M46.03 29.76c1.14.18 2.16.4 3.07.66a17.51 17.51 0 0 1 2.9 1.12l-.21-.06a40.6 40.6 0 0 0-9.36-1.33 26.22 26.22 0 0 0-9.62 1.42l-2.44.73c-.9.26-1.7.48-2.42.67-2.48.64-5.06.98-7.76 1.03-2.58.04-5.19-.2-7.81-.7-1.1-.2-2.19-.5-3.24-.87a9.98 9.98 0 0 1-4.12-2.53 4.1 4.1 0 0 1-.82-1.28c-.2-.5-.25-1-.16-1.49.1-.57.33-1.12.68-1.65a8.37 8.37 0 0 1 3.34-2.9c1.62-.8 3.56-1.3 5.83-1.48 2.24-.19 4.35-.11 6.32.22a6.5 6.5 0 0 1 .9.23c.03.04.02.06-.03.06l-1-.03a14.14 14.14 0 0 0-5.48.89l-1.16.4c-.42.17-.8.35-1.13.53-.35.2-.65.39-.9.55a8.07 8.07 0 0 0-1.73 1.57 2.72 2.72 0 0 0-.48 1.3c-.02.24 0 .47.05.69.05.23.14.44.27.64.26.4.58.74.95 1.02.59.45 1.27.84 2.04 1.17.64.27 1.22.49 1.73.65.57.18 1.14.33 1.72.43 1.45.26 2.72.42 3.81.47a31.86 31.86 0 0 0 8.4-.77l2.95-.68c2.54-.57 5.03-.92 7.48-1.04 2.61-.14 5.09-.02 7.43.36Z" fill="#0162A7"/><path d="M15.8 29.18c.56.24 1.12.43 1.7.58a29.63 29.63 0 0 0 8.84.87c.02 0 .02 0 .01.02 0 .02-.01.02-.03.03a23.97 23.97 0 0 1-10.39.1 11.25 11.25 0 0 1-4.77-2.03 3.9 3.9 0 0 1-.68-.69 1.81 1.81 0 0 1-.2-1.98 3.2 3.2 0 0 1 1.15-1.33 9.46 9.46 0 0 1 3.23-1.38c1.04-.23 2.08-.36 3.13-.38.07 0 .07.02 0 .04l-.57.28c-.9.45-1.63.9-2.22 1.34-.41.32-.71.67-.9 1.08a2.34 2.34 0 0 0 .5 2.64c.3.32.71.59 1.2.8Z" fill="#19903E"/><path d="M48.5 31.52c-1.21-.07-2.4-.12-3.58-.17a39.94 39.94 0 0 0-3.95.07c-2.14.13-4.27.39-6.39.77l-2.36.42c-.12.02-.12 0-.02-.05 1.01-.55 2.02-.97 3.04-1.25 1.14-.31 2.27-.53 3.4-.65a27.48 27.48 0 0 1 9.44.69l.22.05.22.05c.18.06.17.08-.02.07Z" fill="#FFD006"/><path fill-rule="evenodd" d="M19 27v-4h3v.36h-2.6V25h2.4v.36h-2.4V27H19Zm4-4h-.3v.58h.3V23Zm0 1h-.3v3h.3v-3Zm.7 0h.3v.6c.22-.3.57-.63 1-.6v.28c-.26 0-.77.18-1 .84V27h-.3v-3Zm1.78 2.06h-.36c.2.87.92.94 1.32.94s1.2-.17 1.2-.86-.7-.8-1.37-.88c-.65-.08-.65-.37-.65-.47v-.02c0-.1.03-.5.76-.5.57 0 .78.37.8.55h.35c-.19-.6-.63-.82-1.09-.82-.45 0-1.16.16-1.16.74s.43.78 1.21.87c.78.1.8.45.8.53 0 .1 0 .56-.85.56-.68 0-.93-.43-.96-.64Zm3.22.34v-2.1H28V24h.7v-1h.3v1h.65v.3H29v2c0 .45.44.41.67.34v.3c-.86.23-.99-.26-.97-.54ZM31 23h.42l1.15 3.55 1.2-3.55h.43l1.19 3.55L36.6 23H37l-1.42 4h-.42l-1.2-3.55L32.74 27h-.4L31 23Zm6.09 1.88h-.36c.03-.3.3-.88 1.18-.88.86 0 1.1.57 1.1.85V27h-.31v-.6c-.16.3-.48.6-1.03.6a1 1 0 0 1-1.07-.98c0-.74.68-.99 1.02-1.02h1.08c0-.16-.03-.72-.8-.72-.68 0-.82.4-.81.6Zm1.61.43v.54c-.14.36-.45.86-.97.86-.77 0-.85-.58-.85-.73 0-.15.16-.67.85-.67h.97ZM39.76 24h-.42l1.23 3h.38l1.24-3h-.38l-1.03 2.51L39.76 24Zm3.77 0c1.26 0 1.5 1.04 1.47 1.56h-2.63c.03.59.4 1.13 1.16 1.13.6 0 .95-.37 1.05-.55h.35c-.1.28-.5.86-1.4.86-1.21 0-1.52-.96-1.53-1.44-.02-.52.26-1.56 1.53-1.56Zm1.12 1.26h-2.27c.03-.2.2-.97 1.15-.97.77 0 1.07.64 1.12.97Z" fill="#0162A7"/><path opacity=".5" fill="#0162A7" d="M19 28h10v1H19z"/></svg>