<!-- by TradingView --><svg xmlns="http://www.w3.org/2000/svg" width="56" height="56" viewBox="0 0 56 56"><path fill="#F0F3FA" d="M0 0h56v56H0z"/><path d="M30 14h-4v11h4V14zM44 27.39L42 31l-2-4c0 6.78.02 10.92-8.04 11H24c-5.37.14-8-1.6-8-6.97l-2-3.64-1.99 3.64v2.93a7.32 7.32 0 0 0 2.57 5.97c2.82 2.3 9.05 2.06 9.4 2.05h7.98s6.5.34 9.4-2.04a7.19 7.19 0 0 0 2.57-5.68l.07-6.87z" fill="#4DAA50"/><path d="M41.41 17.1C38.49 14.7 32 15.02 32 15.02v4c2.46.06 8.12.54 8 4.2v1.12L42 28l2-3.68v-1.4a7.58 7.58 0 0 0-2.59-5.82zM14.58 17.1A7.26 7.26 0 0 0 12 23.03v5l1.99-3.7 2 3.7v-4.84c-.04-3.67 5.49-4.09 8-4.17v-4s-6.5-.31-9.42 2.1z" fill="#235BA8"/></svg>