<!-- by TradingView --><svg width="56" height="56" viewBox="0 0 56 56" xmlns="http://www.w3.org/2000/svg"><path fill="#FD4B47" d="M0 0h56v56H0z"/><path fill-rule="evenodd" d="M18.7 17c-2.44 0-3.93 1.12-4.76 2.47a6.67 6.67 0 0 0-.94 3.32c0 .61 0 2.83 2.08 4.78 1.93 1.81 5.47 3.21 11.87 3.13-.3 3-1.8 5.06-3.55 6.18-2.02 1.3-4.27 1.3-5.65.3-.68-.49-1-1-1.13-1.45-.15-.47-.13-1 .02-1.54a6.19 6.19 0 0 1 1.7-2.72c.44-.39.48-1.05.1-1.49a1.03 1.03 0 0 0-1.46-.1c-.8.71-1.9 2.12-2.34 3.75a4.89 4.89 0 0 0 0 2.72c.29.96.91 1.82 1.9 2.54 2.25 1.63 5.44 1.38 7.96-.22a9.59 9.59 0 0 0 3.5-4.02 9.59 9.59 0 0 0 3.5 4.02c2.52 1.6 5.7 1.85 7.96.22.99-.72 1.61-1.58 1.9-2.54.3-.94.23-1.88 0-2.72a8.28 8.28 0 0 0-2.34-3.75 1.03 1.03 0 0 0-1.47.1c-.37.44-.33 1.1.1 1.49.58.51 1.4 1.58 1.71 2.72.15.55.17 1.07.02 1.54-.14.46-.45.96-1.13 1.45-1.38 1-3.63 1-5.65-.3a8.03 8.03 0 0 1-3.55-6.18c6.4.08 9.94-1.32 11.87-3.13A6.35 6.35 0 0 0 43 22.79c0-.65-.15-2.05-.94-3.32-.83-1.35-2.32-2.47-4.76-2.47-3.5 0-7.44 2.25-9.3 6.79-1.86-4.54-5.8-6.79-9.3-6.79Zm10.34 11.6v-.07c.45-6.57 4.9-9.43 8.26-9.43 1.7 0 2.54.73 3 1.48.52.83.63 1.8.63 2.2v.01c0 .45 0 1.9-1.42 3.23-1.38 1.3-4.3 2.66-10.47 2.58Zm-2.08-.07c-.45-6.57-4.9-9.43-8.26-9.43-1.7 0-2.54.73-3 1.48-.52.83-.63 1.8-.63 2.2v.01c0 .45 0 1.9 1.42 3.23 1.38 1.3 4.3 2.66 10.47 2.58v-.07Z" fill="#FFF4F4"/></svg>