<!-- by TradingView --><svg xmlns="http://www.w3.org/2000/svg" width="56" height="56" viewBox="0 0 56 56"><path fill="#F0F3FA" d="M0 0h56v56H0z"/><path d="M21.51 32c.94 0 2.49-.14 2.49-1.37 0-1.63-2.8-1.98-3.75-2.25-1.54-.45-2.95-1.35-2.95-3.13 0-2.1 2.08-3.25 4.04-3.25 1.67 0 3 .53 4.3 1.57 0 0-.6 1.15-.92 1.68a5.63 5.63 0 0 0-3.2-1.25c-.91 0-2.22.16-2.22 1.25 0 1.1 1.6 1.27 2.35 1.49 1.8.51 4.35 1.04 4.35 3.6C26 32.91 24 34 21.5 34A6.66 6.66 0 0 1 17 32.2s.67-1.26.93-1.69C19 31.34 20.1 32 21.5 32ZM32.51 32c.94.03 2.49-.14 2.49-1.37 0-1.63-2.8-1.98-3.75-2.25-1.54-.45-2.95-1.35-2.95-3.13 0-2.1 2.08-3.27 4.04-3.25 1.67.02 3 .53 4.3 1.57 0 0-.6 1.15-.92 1.68a5.63 5.63 0 0 0-3.2-1.25c-.91 0-2.22.16-2.22 1.25 0 1.1 1.6 1.27 2.35 1.49 1.8.51 4.35 1.04 4.35 3.6C37 32.91 35 34 32.5 34A6.66 6.66 0 0 1 28 32.2s.67-1.26.93-1.69A6.1 6.1 0 0 0 32.5 32ZM7 34V22h8v2H9v3h6v2H9v3h6v2H7ZM45 22h-2.13L38 34h2.3L45 22ZM47.63 34H50l-4.69-11.5-1.06 2.84L47.63 34Z" fill="#24649C"/><circle cx="44" cy="30.5" r="1.5" fill="#E5542B"/></svg>