<!-- by TradingView --><svg width="56" height="56" viewBox="0 0 56 56" xmlns="http://www.w3.org/2000/svg"><path fill="#F0F3FA" d="M0 0h56v56H0z"/><path fill-rule="evenodd" d="M28 37a9 9 0 1 0 0-18 9 9 0 0 0 0 18Zm0-3a6 6 0 1 0 0-12 6 6 0 0 0 0 12Z" fill="#BEE7E6"/><path d="M30 11h-4v3.14A14 14 0 0 0 14.14 26H11v4h3.14A14 14 0 0 0 26 41.86V45h4v-3.14c3.06-.44 5.8-1.87 7.89-3.95l-2.94-2.72A10 10 0 0 1 18.2 30h6.34a4 4 0 1 0 0-4H18.2a10 10 0 0 1 16.86-5.08 30.14 30.14 0 0 0 2.77-2.76l.19.06A13.96 13.96 0 0 0 30 14.14V11Zm11 15v4h4v-4h-4Z" fill="#25ADAA"/></svg>