<!-- by TradingView --><svg xmlns="http://www.w3.org/2000/svg" width="56" height="56"><path d="M0 28a28 28 0 1156 0 28 28 0 01-56 0z" fill="#F0F3FA"/><path d="M10.5 28.52c0-1.94-1.46-3.52-3.25-3.52C5.45 25 4 26.58 4 28.52c0 1.95 1.46 3.53 3.25 3.53 1.06 0 2.16-.55 2.75-1.4l-.5-.42a2.8 2.8 0 01-2.25 1.17c-1.44 0-2.6-1.29-2.6-2.88h5.85zm-3.25-2.87c1.23 0 2.26.95 2.53 2.22H4.72c.27-1.27 1.3-2.22 2.53-2.22z" fill="#1EA9E1"/><path fill-rule="evenodd" d="M17.05 30.6c-.59.85-1.53 1.4-2.6 1.4-1.8 0-3.25-1.57-3.25-3.5s1.46-3.5 3.25-3.5c1.8 0 3.25 1.57 3.25 3.5v5.09h-.65v-3zm0-2.1c0 1.57-1.16 2.85-2.6 2.85-1.44 0-2.6-1.28-2.6-2.85s1.16-2.85 2.6-2.85c1.44 0 2.6 1.28 2.6 2.85z" fill="#1EA9E1"/><path d="M19.35 25h-.65v4.26A2.73 2.73 0 0021.43 32c1.5 0 2.72-1.23 2.72-2.74V25h-.65v4.26c0 1.15-.93 2.09-2.07 2.09a2.08 2.08 0 01-2.08-2.1V25zm16.3 0H35v4.26A2.73 2.73 0 0037.73 32c1.5 0 2.72-1.23 2.72-2.74V25h-.65v4.26c0 1.15-.93 2.09-2.07 2.09a2.08 2.08 0 01-2.08-2.1V25zM28 24h.65v8H28v-8zm2.35 0H31v8h-.65v-8zm-4.67.33a.4.4 0 00.4-.4.4.4 0 00-.4-.4.4.4 0 00-.4.4c0 .22.18.4.4.4zM26 25h-.65v7H26v-7zm7.33-.68a.4.4 0 00.4-.4.4.4 0 00-.4-.4.4.4 0 00-.4.4c0 .22.18.4.4.4zm.32.68H33v7h.65v-7zM42 27.52a2.5 2.5 0 114.67-1.24 2.5 2.5 0 014.68 1.24V32h-.65v-4.48c0-1.03-.83-1.87-1.85-1.87S47 26.5 47 27.52V32h-.65v-4.48c0-1.04-.83-1.87-1.85-1.87s-1.85.84-1.85 1.87V32H42v-4.48z" fill="#1EA9E1"/><path d="M5.6 23.8c9.06-8.08 26.4-.87 26.4-.87s-17.28-8.68-27.38-.24a.74.74 0 00.99 1.1zm45.16 9.4c-9.06 8.08-26.4.87-26.4.87s17.28 8.68 27.38.24a.74.74 0 00-.99-1.1z" fill="#7CC242"/></svg>