<!-- by TradingView --><svg width="56" height="56" viewBox="0 0 56 56" xmlns="http://www.w3.org/2000/svg"><path d="M0 28a28 28 0 1 1 56 0 28 28 0 0 1-56 0Z" fill="#0A508E"/><path d="M9 32H4v-8h5v1.71H6V27h3v1.57H6v1.72h3V32ZM16 32h-2l-1.66-3.43H12V32h-2v-8h2.72c1.29 0 2.82.54 2.78 2.29 0 1.51-.86 2.1-1.42 2.28L16 32Zm-3.53-6.56H12v1.99h.47c.56 0 1.03-.4 1.03-.97 0-.7-.47-1.02-1.03-1.02ZM25 32h-2.05l-.57-1.71h-2.86L18.96 32H17l3-8h2l3 8Zm-3-3-1-3-1 3h2ZM28.38 32c-.97 0-1.84-.41-2.38-1l.78-1.14c.49.58.72.64 1.21.64.5 0 1.01-.3 1.01-.82s-.6-.74-.9-.87c-1.04-.47-2.1-.81-2.1-2.5 0-1.53 1.51-2.31 2.73-2.31.79.02 1.68.4 2.27 1l-.67 1.24c-.4-.46-.75-.74-1.33-.74-.5 0-1 .15-1 .75 0 .77 1.05 1.02 1.54 1.23.82.32 1.48.98 1.46 2A2.5 2.5 0 0 1 28.38 32Z" fill="#F0F3FA"/><path d="M52 29h-6.15l-.74-2h6.16l.73 2Z" fill="#53C1B1"/><path d="M44.95 32H47l-1.13-3h-5.75L39 32h1.96l.56-1.71h2.86l.57 1.71Zm-4.08-5h1.8l.33-1 .33 1h1.8L44 24h-2l-1.13 3ZM36.02 30.29c.66 0 1.25-.27 1.67-.7l.8 1.58A4.08 4.08 0 0 1 32.1 29h1.84a2.32 2.32 0 0 0 2.09 1.29ZM33.93 27a2.32 2.32 0 0 1 3.65-.7l.7-1.62a4.08 4.08 0 0 0-6.2 2.32h1.85Z" fill="#F0F3FA"/></svg>