<!-- by TradingView --><svg width="56" height="56" xmlns="http://www.w3.org/2000/svg"><path fill="#0C3A78" d="M0 0h56v56H0z"/><path d="M20.317 24.688a3.199 3.199 0 01-4.118-1.912 3.228 3.228 0 01.842-3.475c.31-.286.674-.508 1.07-.653l17.571-6.44a3.161 3.161 0 013.476.834c.285.314.503.683.644 1.083a3.104 3.104 0 01-.842 3.407c-.31.276-.673.486-1.066.619l-17.577 6.537zM20.316 34.245a3.196 3.196 0 01-3.464-.84 3.217 3.217 0 01-.844-2.313 3.226 3.226 0 011.034-2.234c.31-.286.673-.508 1.069-.652l17.57-6.433a3.15 3.15 0 013.477.826c.285.314.503.683.643 1.084a3.099 3.099 0 01-.84 3.406c-.311.275-.674.485-1.067.617l-17.578 6.54zM20.316 43.8a3.198 3.198 0 01-3.468-.837 3.219 3.219 0 01-.549-3.536 3.215 3.215 0 011.812-1.666l17.57-6.431a3.148 3.148 0 013.477.824c.285.314.503.682.643 1.083a3.1 3.1 0 01-.84 3.407c-.311.276-.674.486-1.067.617l-17.578 6.54z" fill="#fff"/></svg>