<!-- by TradingView --><svg width="56" height="56" xmlns="http://www.w3.org/2000/svg"><path fill="#0079C1" d="M0 0h56v56H0z"/><path d="M16 9h24v35.946c0 .205-.247.256-.346.154L36 42.738v-5.854l1.926-1.387c.247-.154.346-.36.346-.564 0-.103-.1-.309-.346-.463L29 28.616v-4.93l1.666-1.9c.149-.205.198-.307.198-.41 0-.103 0-.206-.148-.309l-.74-.564-.89-1.746-2.617-1.9-1.037.154v-5.186c.099-.103.149-.206.149-.309 0-.205-.15-.36-.396-.36-.148 0-.346.155-.346.36 0 .103.062.206.161.309v5.237l-2.284.36-3.21 3.954-.04.055c-.117.16-.158.216-.158.355 0 .103.05.308.199.411L21 23.276v3.934l-4.556 5.36c-.197.206-.444.155-.444-.154V9z" fill="#FFFFFE"/><path d="M20.642 21.684c-.05.05-.05.102 0 .154l.297.256c.016 0 .027.006.038.012.022.011.044.023.11-.012l1.235-1.488 3.9-.72 2.865 2.055c.05.051.147.051.197 0l.346-.412c.05-.05.05-.102 0-.153l-.346-.309-.888-1.643-1.976-1.386-3.407.565c-.075.026-.112.038-.13.064-.018.026-.018.064-.018.14 0 .104.098.104.197.104l2.914-.463c.098 0 .197.052.197.31 0 .255 0 .306-.247.358l-3.753.668-1.53 1.9zM20.774 47h5.235c.296 0 .395-.051.395-.257 0-.103-.099-.205-.296-.36l-5.383-3.594h-.001c-.148-.103-.296-.205-.443-.205-.1 0-.281.051-.281.359v3.44c0 .411.33.617.774.617zM27.71 27.98l-.557-.462c-.099-.052-.153-.103-.153-.308v-4.16c0-.462.07-.77.464-.77.395 0 .536.308.536.77v4.776c0 .205-.19.205-.29.154zM37.234 46.743L23.26 37.346l-.032-.022c-.13-.09-.227-.147-.227-.337v-1.233c0-.41.18-.422.457-.257l16.345 10.99c.148.102.198.205.198.256 0 .206-.149.257-.494.257h-1.58c-.248 0-.395-.051-.692-.257zM30.37 37.295l-1.827.513c-.148.052-.246.052-.394.052-.198 0-.495-.206-.692-.514-.247-.36-.543-.821-.543-1.387 0-.514.296-1.13 1.185-1.13 1.185 0 1.925.822 2.37 1.438.247.36.297.514.297.668 0 .205-.149.308-.396.36z" fill="#FFFFFE"/><path d="M22.42 29.643l-6.074 7.446c-.149.205-.346.154-.346-.103v-1.9c0-.256.05-.36.149-.462l6.518-8.062c.197-.257.346-.308.493-.308.149 0 .346.103.593.256l12.444 8.063c.148.103.297.257.297.411 0 .205-.05.257-.248.41L35 36.32v1.078c0 .309-.284.36-.432.257L23.21 30.208c-.247-.154-.247-.257-.247-.462v-.154c0-.205-.05-.308-.197-.308-.078 0-.125.063-.238.216l-.108.143z" fill="#FFFFFE"/><path d="M35.309 47h-6.667c-.346 0-.444-.051-.74-.257l-7.161-4.827c-.13-.08-.191-.12-.22-.175-.027-.05-.027-.114-.027-.236V41.3c0-.154-.05-.206-.148-.206-.099 0-.247.206-.395.411l-3.457 4.263c-.024.025-.049.054-.073.082-.074.087-.149.174-.223.174-.148 0-.198-.05-.198-.307v-2.568c0-.134.037-.19.111-.303l.016-.024.021-.033 4.346-5.392v-.41c0-.308.148-.36.396-.206l14.517 9.706c.296.153.296.513-.098.513zM26.002 26.35v-3.948c0-.41-.4-.82-1-.82s-1 .41-1 .82v2.974c0 .358.066.461.2.512l1.4.667c.133.051.4.051.4-.205zM22.998 25.33v-1.952c0-.308-.11-.616-.499-.616-.39 0-.5.308-.5.616v2.773c0 .206.167.309.333.103l.555-.565c.111-.102.111-.154.111-.36z" fill="#FFFFFE"/></svg>