<!-- by TradingView --><svg xmlns="http://www.w3.org/2000/svg" width="56" height="56" viewBox="0 0 56 56"><path fill="#F0F3FA" d="M0 0h56v56H0z"/><path d="m16 29.66.17-.41C20.1 21.83 30.03 15 38.86 15c1.32 0 2.43.2 3.18.68 1.13.65 1.96 1.83 1.96 3.06 0 2.25-1.73 4.5-3.27 6.06a18.42 18.42 0 0 1-5.6 4.03c-5.41 2.58-11.5 4.2-17.57 4.17-3.67-.02-8.5-.76-8.56-4.62a4.9 4.9 0 0 1 1.66-3.56c2.79-2.41 7.28-3.72 11.34-4.02-.83.66-1.55 1.34-2.24 2-2.34.6-7.76 2.08-7.76 4.83 0 2.52 4.83 3.37 6.6 3.37 5.36 0 8.2-1.3 11.37-2.76a74.4 74.4 0 0 1 2.4-1.06c2.25-1 5.34-3.11 6.32-5.46.2-.42.31-.82.31-1.19 0-.38-.1-.72-.38-1A2.1 2.1 0 0 0 37.1 19c-2.5.02-4.8 1.56-6.3 2.57-2.91 1.97-5.14 5.3-7 8.09-1.32.25-2.5.34-4.05.34-1.54 0-3.01-.15-3.76-.34ZM41.5 25l-.15.22c-.37.53-.7 1-1.26 1.4.72.81.91 1.66.91 2.48 0 1.03-.62 2.04-1.44 2.96-3.2 3.17-6.95 4.95-11.65 4.94-2.82 0-4.76-.64-4.91-3.5-1.07.32-2.81.5-4.03.5-1.22 0-2.75-.02-3.97-.5 0 5.61 4.4 8.5 9.63 8.5C32.38 42 44 35.85 44 29.1c0-1.5-.58-2.83-2.5-4.1Zm-5.8-.62a18.92 18.92 0 0 0-5.53-1.42 8.8 8.8 0 0 1 1.66-1.21c1.87.23 3.51.54 5.37 1.36-.22.21-.49.42-.75.64-.27.2-.53.42-.75.63Z" fill="#ECB11B"/></svg>