<!-- by TradingView --><svg width="56" height="56" viewBox="0 0 56 56" xmlns="http://www.w3.org/2000/svg"><path fill="#F0F3FA" d="M0 0h56v56H0z"/><path d="M25 23c-.53 0-.86.2-.98.59L22 30h1.56a.2.2 0 0 0 .13-.05.24.24 0 0 0 .07-.12l.31-1.1h1.86l.3 1.09.08.13a.2.2 0 0 0 .14.05H28l-2.02-6.41c-.12-.4-.45-.59-.98-.59Zm.47 4h-.94l.48-1.6.46 1.6ZM32.85 28H31v-4.81c0-.1-.07-.19-.16-.19h-1.68c-.09 0-.16.09-.16.19v6.05c-.01.37.24.77.65.76h3.2c.09 0 .15-.1.15-.19V28.2c0-.08-.05-.18-.15-.19ZM43.77 23h-2.02a.75.75 0 0 0-.75.76v6.06c0 .1.07.18.17.18h2.55c2 .03 3.28-1.64 3.28-3.54 0-1.86-1.28-3.49-3.23-3.46ZM45 26.47c0 1.03-.36 1.98-1.38 1.92H43v-3.78h.69c1.03-.04 1.31.89 1.31 1.86ZM37 23c-.53 0-.86.2-.98.59L34 30h1.55c.05 0 .1-.02.13-.05a.27.27 0 0 0 .09-.13l.3-1.1h1.86l.3 1.1c.02.05.05.1.09.13a.2.2 0 0 0 .13.05H40l-2.01-6.41c-.13-.4-.46-.59-.99-.59Zm.47 4.1h-.95l.48-1.7.47 1.7ZM52 24.32v-1.14c0-.1-.07-.18-.15-.18h-3.22c-.4-.01-.64.4-.63.76v6.06c0 .1.07.18.15.18h3.7c.08 0 .15-.08.15-.18v-1.14c0-.1-.07-.18-.15-.18h-2.28V27h1.29c.07 0 .14-.08.14-.18v-.64c0-.1-.07-.18-.14-.18h-1.29v-1.5h2.28c.08 0 .15-.08.15-.18ZM8 24.32v-1.14c0-.1-.07-.18-.14-.18H4.63c-.4-.01-.64.4-.63.76v6.06c0 .1.07.18.15.18h3.7c.08 0 .15-.08.15-.18v-1.14c0-.1-.07-.18-.14-.18H5.57V27h1.29c.07 0 .14-.08.14-.18v-.64c0-.1-.07-.18-.14-.18H5.57v-1.5h2.29c.07 0 .14-.08.14-.18ZM20.96 28.5l-.93-.91a.14.14 0 0 0-.1-.04.15.15 0 0 0-.1.04 2 2 0 0 1-1.5.76c-.98.04-1.33-.85-1.33-1.84 0-1.01.4-1.92 1.4-1.87.52-.01 1.03.3 1.27.77l.04.07 1.22-.84a.18.18 0 0 0 .05-.24 3.15 3.15 0 0 0-3.15-1.37c-1.77.26-2.83 1.79-2.83 3.53 0 1.83 1.23 3.52 3.2 3.44a3.54 3.54 0 0 0 2.77-1.3.15.15 0 0 0-.01-.2ZM12.04 25.74c-.34-.1-1.04-.26-1.04-.72 0-.38.45-.51.76-.49.48.01.95.16 1.36.43l.06.05.6-1.21a.19.19 0 0 0 0-.13.18.18 0 0 0-.06-.1 3.74 3.74 0 0 0-2.04-.57c-1.24-.06-2.5.78-2.44 2.1-.01.86.53 1.46 1.26 1.83.41.2 1.55.3 1.54.95-.01.42-.32.56-.66.53-.55 0-1.07-.21-1.49-.59a.15.15 0 0 0-.12-.03.15.15 0 0 0-.1.07l-.64 1.06a.16.16 0 0 0 .02.2c.61.56 1.4.85 2.21.88 1.3 0 2.73-.7 2.74-2.17 0-1.33-1-1.8-1.96-2.09Z"/><path d="M51.77 32H4.23c-.06 0-.12-.05-.16-.15A.87.87 0 0 1 4 31.5c0-.13.02-.26.07-.35.04-.1.1-.15.16-.15h47.54c.06 0 .12.05.16.15.05.09.07.22.07.35 0 .13-.02.26-.07.35-.04.1-.1.15-.16.15Z" fill="#C4C8C9"/><path d="M34 36.89V33.1a.1.1 0 0 1 .04-.08.15.15 0 0 1 .1-.03h.72c.04 0 .07.01.1.03a.1.1 0 0 1 .04.08v3.78a.1.1 0 0 1-.04.08.16.16 0 0 1-.1.03h-.72a.16.16 0 0 1-.1-.03.1.1 0 0 1-.04-.08ZM40.1 33h.8c.05 0 .1.04.1.1v3.65c0 .03-.01.07-.04.1a.24.24 0 0 1-.1.08.74.74 0 0 1-.33.07.92.92 0 0 1-.35-.05.62.62 0 0 1-.23-.17L38 34.3v2.6c0 .02-.01.05-.03.06a.12.12 0 0 1-.07.03h-.8c-.02 0-.05 0-.07-.03a.08.08 0 0 1-.03-.06v-3.6c0-.04 0-.09.03-.13a.29.29 0 0 1 .11-.1c.1-.06.23-.08.36-.08.13 0 .27.02.39.07.1.07.2.16.28.26l1.83 2.3V33.1c0-.02.01-.05.03-.06a.12.12 0 0 1 .07-.03ZM44.62 37c-1.05.04-1.62-1-1.62-1.97 0-1.03.6-2.07 1.67-2.03.5 0 1 .26 1.28.74.01.02.02.05.01.08 0 .03-.02.05-.04.07l-.34.26a.09.09 0 0 1-.07.02.1.1 0 0 1-.06-.05.88.88 0 0 0-.76-.45C44 33.64 44 34.5 44 35c0 .5-.01 1.33.66 1.3.34 0 .67-.17.9-.45a.1.1 0 0 1 .03-.03.09.09 0 0 1 .07 0 .1.1 0 0 1 .03.03l.28.3.03.09c0 .03 0 .06-.03.08-.34.44-.84.69-1.35.68ZM48.5 37a.5.5 0 0 1-.36-.14.46.46 0 0 1-.14-.35.46.46 0 0 1 .13-.36.5.5 0 0 1 .37-.15.52.52 0 0 1 .37.15.48.48 0 0 1 .13.36.47.47 0 0 1-.3.46.5.5 0 0 1-.2.03Z" fill="#003B87"/></svg>