<!-- by TradingView --><svg width="56" height="56" xmlns="http://www.w3.org/2000/svg"><path fill="#F0F3FA" d="M0 0h56v56H0z"/><path d="M37.43 24.521l4.552-.69-.148-1.83h-2.862l-1.542 2.52zM4.799 30h7.26l.441-2H8.094l.35-1h3.807l.576-2H8.914l.336-.998h4.176L14 22H7l-2.201 8zM26.033 22.062c-1.438.208-2.573.987-3.092 2.121-.326.72-.334 1.335-.022 1.846.311.505.875.779 2.187 1.06 1.246.268 1.394.327 1.453.557.104.437-.326.72-1.164.771-.934.052-1.809-.29-2.024-.8l-.081-.208c-.555.302-2.173 1.208-2.173 1.208-.06.06.29.541.608.838 1.357 1.256 3.867 1.09 5.443.349.66-.312 1.32-.92 1.63-1.506.268-.511.339-.941.339-.941l-2.114.445 1.113-.408 1.038-.408c0-1.249-1.562-1.695-2.488-1.89-.564-.12-1.098-.26-1.187-.312-.237-.119-.222-.43.023-.66.56-.514 2.104-.206 2.543.348l.155.2c.31-.207 1.854-1.32 1.854-1.32 0-.163-.719-.778-1.134-.963-.764-.356-1.869-.475-2.907-.327zM30.779 22l-.549 2h2.003l-.501 1.893 2.632-.705.352-1.188h1.98l.497-2h-6.414zM45.5 22l-.6 2h3.753c1 0 .878 1.5-.445 1.5H44.5L43.128 30h2.495l.683-3h.741l.808 3h2.773l-1.097-3 .378-.17c.593-.274 1.06-.652 1.372-1.127C51.97 24.68 52 22 50 22h-4.5zM12.694 30h2.313l1.153-4.497L17.654 30h2.685l2.013-8h-2.325l-1.224 4.897L17.41 22h-2.661l-2.054 8zM36.503 25.96L33.796 30h2.707l1.742-3H40v3h2.768l-.548-4.515-5.717.475zM34.105 26.2c0-.004-2.521.404-2.521.404L30.582 30h2.603l.92-3.804c-.008 0 0 0 0 .003zM47.573 31.834c-1.572.111-3.003.207-3.188.215l-.334.007-.608 1.454c-.334.808-.6 1.468-.586 1.483.008.014 2.076.014 4.583.007l4.56-.022-.549-1.69-.549-1.684-.237.007c-.133.008-1.52.104-3.092.223z" fill="#211B4B"/><path d="M35.858 32.62L34.678 35h7l1.135-2.758-6.955.378z" fill="#3D355E"/><path d="M11.118 34.333C8.783 34.518 4 35 4 35h6.896l.222-.667z" fill="#C4C4C4"/><path d="M17.68 35l.482-1.186c-1.383.11-5.747.37-5.747.37l-.333.816h5.598z" fill="#959499"/><path d="M26.023 35l.704-1.705-7.378.444L18.793 35h7.23z" fill="#6DACE2"/><path d="M33.363 35l.927-2.187-6.302.407-.779 1.78h6.154z" fill="#3697DB"/></svg>