<!-- by TradingView --><svg width="56" height="56" xmlns="http://www.w3.org/2000/svg"><path fill="#FDE134" d="M0 0h56v56H0z"/><path d="M32 32c-2.466 0-2.883 3-5.978 3H5.775l32.178-15.532L52.923 32H32z" fill="#1B458F"/><path d="M38.208 17.638L6.178 34h19.84c2.265 0 3-3 6.306-3h20.647L38.208 17.638z" fill="#fff"/><path d="M7.26 25l-.192 1h1.885l-.2 1H6.826l-.226 1h2.263l-.213 1.002H5l.957-4.287c.076-.408.294-.715.507-.715h3.142l-.214 1H7.26zM9.09 29.002L10.084 24h1.236l-.996 5.002H9.089zM12.313 28.084c.662-.076 1.228-.421 1.347-1.017a.66.66 0 00-.58-.819h-.456l-.367 1.842.056-.006zm1.23-2.754c1.298 0 1.544 1 1.402 1.713-.244 1.226-1.526 1.959-2.797 1.959H10.84L11.836 24h1.236l-.265 1.33h.736zM15.66 25l.183-1h1.236l-.183 1H15.66zm-.813 4.002l.731-3.61h1.236l-.732 3.61h-1.235zM19.413 25l-.177 1h-.693l-.293 1.498c-.042.227.014.487.307.502h.45l-.48 1.002h-.576c-.72 0-1.15-.259-.98-1.187L17.307 26h-.295l.177-1h.295l.173-.924 1.317-.5L18.72 25h.693zM23.528 25h-.331c-.115.016-.256.105-.283.241-.019.092.011.17.05.233.02.032.042.061.065.088l.065.077.816 1.09c.284.347.535.684.44 1.15-.085.422-.492 1.123-1.705 1.123H21V28h1.48c.115-.016.26-.096.287-.233a.311.311 0 00-.05-.232.747.747 0 00-.064-.088l-.066-.076-.79-1.084c-.275-.354-.526-.69-.432-1.157.085-.422.492-1.13 1.706-1.13h1.56l-.271 1h-.832zM30.196 26c-.267 0-.412-.028-.444.146a.24.24 0 00.024.148.541.541 0 00.03.053l.026.044.45.708c.167.26.28.54.218.865-.09.478-.554 1.036-1.181 1.036h-1.304L28 28h.582c.108 0 .291-.006.395-.05a.231.231 0 00.113-.152c.014-.075-.018-.152-.046-.208-.03-.056-.067-.111-.088-.148l-.425-.695c-.169-.27-.29-.523-.228-.853.047-.25.37-.894 1.246-.894h1.305l-.174 1h-.484zM33.459 25l-.177 1h-.692l-.294 1.613c-.041.222.014.372.308.387h.449l-.48 1.002h-.576c-.72 0-1.15-.252-.98-1.157L31.354 26h-.295l.176-1h.296l.148-.773 1.302-.353L32.766 25h.693zM42.436 26.483L41.981 29H40.78l.416-2.307c.088-.547.085-.68-.494-.693h-.244l-.548 3h-1.201l.548-3h-.87l-.549 3h-1.2l.73-4h3.913c1.11 0 1.346.47 1.155 1.483zM44.71 26c-.266 0-.411-.004-.444.175a.257.257 0 00.025.15.554.554 0 00.029.056l.026.044.45.726c.168.267.28.554.219.887a1.21 1.21 0 01-1.182.962H42.53l-.114-.996h.68c.049 0 .366.007.41-.012a.162.162 0 00.099-.124.354.354 0 00-.047-.213c-.03-.058-.066-.115-.087-.152l-.426-.713c-.168-.277-.29-.536-.228-.874.048-.257.37-.916 1.246-.916h1.306l-.175 1h-.484z" fill="#1B458F"/><path d="M24.203 30c.094-.067.19-.17.344-.41l.727-1.092L24.557 25h1.34l.267 1.993.909-1.993h1.357l-2.543 4.651c-.11.202-.368.348-.52.349h-1.164zM35.421 25.887c-.765 0-.904.83-.819 1.099.386-.044.959-.334 1.048-.722.037-.186.053-.377-.229-.377zm-.334 2.007c.127.056.393.136.84.11h.44L35.91 29h-.837c-1.304 0-1.821-1.413-1.673-2.334.178-1.098.714-1.744 2.12-1.744 1.351 0 1.402.757 1.263 1.424-.177.845-.882 1.238-1.691 1.474-.017.004-.027.02-.027.038 0 .017.01.032.021.036z" fill="#1B458F"/></svg>