<!-- by TradingView --><svg width="56" height="56" xmlns="http://www.w3.org/2000/svg"><path fill="#007AC3" d="M0 0h56v56H0z"/><path d="M37 25h-1v5.997h1V25zM29 31v-6h3.034c.633 0 1.966.542 1.966 2 0 1.217-.91 1.788-1.32 1.947L34 31h-1.254l-1.279-2H30v2h-1zM16 30.997V25h3.091c.689 0 1.908.615 1.908 2.047C21 28.467 19.766 29 19.091 29H17v1.997h-1z" fill="#fff"/><path d="M17 28v-2h2.109c.355 0 .891.433.891 1.007 0 .574-.477.993-.806.993H17zM30 28v-2h2.14c.376 0 .86.389.86.961 0 .507-.453 1.039-.86 1.039H30z" fill="#007AC3"/><path d="M9.04 25h-5v1h5v-1zM27 30h-5v1h5v-1zM4.016 31.013V27.5H9v1H5v1.495h4v1.018H4.016zM21.985 28.5v-3.485H27V26h-4v1.5h4v1h-5.015zM12.514 25c1.07-.01 1.913.429 2.2.65-.207.267-.639.802-.698.802-.818-.459-1.202-.452-1.502-.452-.218 0-1.392 0-1.369.732.024.732 1.329.709 2.013.854.735.156 1.899.557 1.84 1.565-.075 1.26-1.098 1.846-2.574 1.846-1.213 0-2.107-.513-2.424-.814l.729-.803c.64.573 1.648.62 1.946.62.297 0 1.325-.114 1.325-.849s-1.523-.756-2.266-.93c-.565-.131-1.657-.521-1.645-1.49.014-1.158 1.086-1.718 2.425-1.73z" fill="#fff"/><ellipse cx="42.5" cy="28.003" rx="3.5" ry="3" fill="#fff"/><path d="M45 28c0 1.105-1.082 2-2.476 2S40 29.105 40 28s1.13-2 2.524-2c1.394 0 2.476.895 2.476 2z" fill="#007AC3"/><path d="M47 31v-6l4 3.43V25h1v6l-4-3.359V31h-1z" fill="#fff"/></svg>