<!-- by TradingView --><svg width="56" height="56" viewBox="0 0 56 56" xmlns="http://www.w3.org/2000/svg"><path fill="#8E744B" d="M0 0h56v56H0z"/><path d="M14 36V14h9v5h-4v4h4v5h-4v3h2.55c.81.02 2.61-.3 3.31-3.72l.24-1.26C25.96 21.46 27.35 14 33.98 14H42v5h-7.31c-1.36.01-4.22.56-4.84 4.21l-.13.82C28.95 28.69 27.74 36 22.7 36H14Zm0 1v5h9.3c3.77 0 10.72-4.87 10.72-12.46l.05-.51c.17-1.8.42-4.54 2.93-4.54V30h-1.37c-.05.93-.37 3.57-1.25 5H37v7h5V20h-5.63c-2.1 0-4.6 1.05-5.39 6l-.07.62C30.64 29.24 29.85 37 21.6 37H14Z"/></svg>