<!-- by TradingView --><svg width="56" height="56" viewBox="0 0 56 56" xmlns="http://www.w3.org/2000/svg"><path fill="#F0F3FA" d="M0 0h56v56H0z"/><path fill-rule="evenodd" d="M21 20a5 5 0 0 1 4.16 7.77l-4.06 7.77a.86.86 0 0 1-.75.46.87.87 0 0 1-.86-.89v-.03c0-.16.04-.31.12-.45l2.63-4.78A5 5 0 1 1 21 20Zm0 1.5a3.5 3.5 0 1 1 0 7 3.5 3.5 0 0 1 0-7Zm-6.5 2a3.5 3.5 0 0 1-1.54 2.9 5 5 0 1 1-3.92 0 3.5 3.5 0 1 1 5.46-2.9Zm-3.5 2a2 2 0 1 0 0-4 2 2 0 0 0 0 4Zm0 9a3.5 3.5 0 1 0 0-7 3.5 3.5 0 0 0 0 7Z" fill="#9EACB4"/><path fill-rule="evenodd" d="M27 20.86c0-.47.34-.86.75-.86s.75.39.75.86v6.57A4.98 4.98 0 0 1 37 31a5 5 0 1 1-10-.16v-9.98Zm5 13.64a3.5 3.5 0 1 0 0-7 3.5 3.5 0 0 0 0 7ZM51 31a5 5 0 1 1-10 0 5 5 0 0 1 10 0Zm-1.5 0a3.5 3.5 0 1 1-7 0 3.5 3.5 0 0 1 7 0ZM38 26.81c0-.56.34-.81.75-.81s.75.25.75.81v8.35c0 .56-.34.84-.75.84s-.75-.28-.75-.84v-8.35Zm.75-2.31a.75.75 0 1 0 0-1.5.75.75 0 0 0 0 1.5Z" fill="#2796DB"/></svg>