<!-- by TradingView --><svg xmlns="http://www.w3.org/2000/svg" width="56" height="56" viewBox="0 0 56 56"><path fill="#F0F3FA" d="M0 0h56v56H0z"/><path d="m27 19-.51 4.95c-1.44.12-5.04 1.17-7.94 4.4-2.9 3.25-1.4 7.12-.29 8.65-2.02-.68-5.6-3.52-3.74-9.48 1.86-5.96 9.1-8.16 12.48-8.52Z" fill="url(#avqimvsez)"/><path d="m27 31-.2 3.56c-1.03.09-5.48 1.4-7.6 3.96-4.13 5 3.11 7.06 4.4 7.47-1.66 0-9.32.52-7.25-8.2C17.5 33.02 24.56 31.3 27 31Z" fill="url(#bvqimvsez)"/><path d="m39 23.01-.82 3.66c-1.06-.08-5.8.54-8.37 2.84-5.07 4.5 1.91 7.85 3.14 8.49-1.68-.28-9.63-1.16-6.02-9.86 1.98-4.76 9.55-5.24 12.07-5.13Z" fill="#9CC742"/><path d="m42 12.04-1.34 4.72c-1.63-.14-5.83.23-9.59 2.85-3.76 2.63-2.67 6.67-1.66 8.36-2.16-1.03-5.74-4.44-2.73-9.9 3.01-5.46 11.47-6.3 15.32-6.03Z" fill="url(#cvqimvsez)"/><defs><linearGradient id="avqimvsez" x1="24.45" y1="19.83" x2="18.26" y2="35.85" gradientUnits="userSpaceOnUse"><stop stop-color="#243796"/><stop offset="1" stop-color="#1768A1"/></linearGradient><linearGradient id="bvqimvsez" x1="21.5" y1="31" x2="13.7" y2="44.11" gradientUnits="userSpaceOnUse"><stop stop-color="#1768A0"/><stop offset="1" stop-color="#1268A5"/></linearGradient><linearGradient id="cvqimvsez" x1="33.76" y1="12" x2="33.76" y2="27.97" gradientUnits="userSpaceOnUse"><stop stop-color="#69B246"/><stop offset="1" stop-color="#80BE3F"/></linearGradient></defs></svg>