<!-- by TradingView --><svg width="56" height="56" viewBox="0 0 56 56" xmlns="http://www.w3.org/2000/svg"><path fill="#F0F3FA" d="M0 0h56v56H0z"/><path d="M7.8 26H4.2a.2.2 0 0 0-.2.2v4.6c0 .11.09.2.2.2h3.6a.2.2 0 0 0 .2-.2v-.1a.2.2 0 0 0-.2-.2H5.2a.2.2 0 0 1-.2-.2v-1.6c0-.11.09-.2.2-.2h2.6a.2.2 0 0 0 .2-.2v-.1a.2.2 0 0 0-.2-.2H5.2a.2.2 0 0 1-.2-.2v-1.1c0-.11.09-.2.2-.2h2.6a.2.2 0 0 0 .2-.2v-.1a.2.2 0 0 0-.2-.2ZM10.69 26h-.5c-.15 0-.24.19-.15.33l3.02 4.58c.08.12.25.12.32-.01l2.6-4.59c.07-.13-.02-.31-.18-.31h-.03a.2.2 0 0 0-.17.1l-2.2 3.76a.19.19 0 0 1-.34 0l-2.2-3.76a.2.2 0 0 0-.17-.1Z" fill="#142249"/><path fill-rule="evenodd" d="M17.2 31h.49a.2.2 0 0 0 .16-.1l.68-1.15h3.4l.67 1.15c.04.06.1.1.17.1h.04c.15 0 .24-.18.16-.31l-2.59-4.59a.19.19 0 0 0-.32-.01l-3.02 4.58c-.1.14 0 .33.16.33Zm4.43-1.75-1.24-2.1a.19.19 0 0 0-.33 0l-1.24 2.1h2.81Z" fill="#142249"/><path d="M34 26.5a.5.5 0 0 0-1 0v4a.5.5 0 0 0 1 0v-4Z" fill="#142249"/><path fill-rule="evenodd" d="M42.68 29.86c.54-.38.82-.87.82-1.36 0-.49-.28-.98-.82-1.36a3.8 3.8 0 0 0-2.18-.64 3.8 3.8 0 0 0-2.18.64c-.54.38-.82.87-.82 1.36 0 .49.28.98.82 1.36a3.8 3.8 0 0 0 2.18.64 3.8 3.8 0 0 0 2.18-.64ZM40.5 31c1.93 0 3.5-1.12 3.5-2.5S42.43 26 40.5 26 37 27.12 37 28.5s1.57 2.5 3.5 2.5Z" fill="#142249"/><path d="M27 24.5c-.4-2 .17-3.83.5-4.5-.67.83-2 3-2 5 0 2.5 2.5 6 3 8 .4 1.6-.17 2.67-.5 3 .73-.73 1.5-2 1.5-4 0-4-2-5-2.5-7.5Z" fill="url(#aekp2e4vd)"/><path d="M30.5 25.5c.4-1.6.17-2.67 0-3 0 1-1 3-2 4.5s-5 5-6 8c-.8 2.4-.33 4.33 0 5 0-2 .5-3.5 3-7s4.5-5.5 5-7.5Z" fill="url(#bekp2e4vd)"/><path d="M51 29.5 46 26v4.5a.5.5 0 0 0 1 0v-3l5 3.5v-4.5a.5.5 0 0 0-1 0v3Z" fill="#142249"/><defs><linearGradient id="aekp2e4vd" x1="27.5" y1="20" x2="27.5" y2="36" gradientUnits="userSpaceOnUse"><stop stop-color="#739CC8"/><stop offset="1" stop-color="#00275E"/></linearGradient><linearGradient id="bekp2e4vd" x1="30.5" y1="23.5" x2="22.5" y2="36.5" gradientUnits="userSpaceOnUse"><stop stop-color="#658EBC"/><stop offset="1" stop-color="#022658"/></linearGradient></defs></svg>