<!-- by TradingView --><svg width="56" height="56" viewBox="0 0 56 56" xmlns="http://www.w3.org/2000/svg"><path fill="#323243" d="M0 0h56v56H0z"/><path d="M47.58 22.92a10.13 10.13 0 0 0-3.81-3.6 11.08 11.08 0 0 0-10.47 0 10.06 10.06 0 0 0-2.92 2.41l-8.93 9.64c-.42.4-.87.77-1.33 1.12-.78.49-1.69.73-2.6.71a4.9 4.9 0 0 1-3.68-1.48 5.2 5.2 0 0 1-1.44-3.76 5.17 5.17 0 0 1 1.43-3.73 4.84 4.84 0 0 1 3.68-1.48 4.71 4.71 0 0 1 3.2 1.13l3.3-3.51c-.5-.4-1.02-.77-1.55-1.12A9.83 9.83 0 0 0 17.43 18c-1.84-.01-3.64.45-5.24 1.33A10.02 10.02 0 0 0 8.4 22.9a9.86 9.86 0 0 0 3.77 13.77c1.6.89 3.4 1.35 5.24 1.33 1.76.03 3.49-.41 5-1.28.56-.36 1.1-.75 1.6-1.17l4.53-4.67 6.13-6.32.05-.06.2-.23a5.07 5.07 0 0 1 7.11-.08l.1.1c.96 1 1.48 2.35 1.44 3.73a5.06 5.06 0 0 1-9.14 3.12 4.85 4.85 0 0 1-.9-2.72l-4.23 4.27.2.37a9.83 9.83 0 0 0 3.76 3.61 11.13 11.13 0 0 0 10.5 0c1.57-.85 2.88-2.1 3.8-3.6A9.54 9.54 0 0 0 49 27.98a9.42 9.42 0 0 0-1.42-5.07Z" fill="#16CA94"/></svg>