<!-- by TradingView --><svg xmlns="http://www.w3.org/2000/svg" width="56" height="56"><path fill="#F0F3FA" d="M0 0h56v56H0z"/><path d="M42.5 27h2v5h1v-5h2v-1h-5v1z" fill="#4D78BC"/><path d="M4 26h4v1H5v1.52h2.45v.94H5V31h3v1H4v-6zm11 0h4v1h-3v1.52h2.45v.94H16V31h3v1h-4v-6z" fill="#23346B"/><path d="M48 26h4v1h-3v1.52h2.45v.94H49V31h3v1h-4v-6z" fill="#4D78BC"/><path d="M8.79 26h1.2l1.6 4.45L13.25 26h1.12L12 32h-.9l-2.31-6z" fill="#23346B"/><path fill-rule="evenodd" d="M20 26h2.25a1.75 1.75 0 01.43 3.45l1.4 2.55h-1.14l-1.37-2.5H21V32h-1v-6zm2.25 2.5H21V27h1.25a.75.75 0 010 1.5z" fill="#23346B"/><path d="M29.92 31a3.11 3.11 0 00-2.3-5.25A3.12 3.12 0 0027.5 32H31v-1h-1.08zm-.17-2.13a2.13 2.13 0 11-4.25 0 2.13 2.13 0 014.25 0zM32.5 26h-1v4a2.25 2.25 0 004.5 0v-4h-1v4a1.25 1.25 0 11-2.5 0v-4z" fill="#4D78BC"/><path fill-rule="evenodd" d="M39.63 31.13a2.13 2.13 0 100-4.26 2.13 2.13 0 000 4.25zm0 1a3.12 3.12 0 100-6.25 3.12 3.12 0 000 6.25z" fill="#4D78BC"/></svg>