<!-- by TradingView --><svg xmlns="http://www.w3.org/2000/svg" width="56" height="56"><path fill="url(#ajr2b0lhx)" d="M0 0h56v56H0z"/><path d="M7.3 31.01a3.3 3.3 0 002.7-1.4l-.37-.3a2.82 2.82 0 01-5.15-1.41h6.12a3.32 3.32 0 00-3.3-3.5 3.3 3.3 0 100 6.61zm2.82-3.55H4.49a2.83 2.83 0 015.63 0zm25 3.54a3.3 3.3 0 002.7-1.41l-.36-.3a2.82 2.82 0 01-5.16-1.4h6.12v-.2a3.3 3.3 0 10-3.3 3.3zm2.82-3.56H32.3a2.83 2.83 0 015.63 0zM48.7 31a3.3 3.3 0 002.7-1.41l-.37-.3a2.82 2.82 0 01-5.15-1.4h6.11v-.2a3.3 3.3 0 10-3.3 3.3zm2.81-3.56h-5.63a2.83 2.83 0 015.63 0zm-38.2 3.57l-3.14-6.38h.55l2.75 5.58 2.73-5.58h.56L13.61 31h-.3zM23 22.6l-.2-2.6-.21 2.68a3.5 3.5 0 10.82.85l-.09-.19 2.6-.21-2.6-.22 1.04-1.35-1.34 1.05zm-.95.33l-2.39.2 2.61.21-1.09 1.4 1.4-1.1.21 2.61.2-2.42a3 3 0 11-.94-.9zm17.35 1.7h-.45V31h.44v-5.16c.84-.8 2.02-.91 2.5-.88 1.79.13 2.24 1.4 2.24 2.02V31h.47v-4.02c-.08-1.42-1.1-2.47-2.71-2.48a3.76 3.76 0 00-2.5.84v-.71z" fill="#fff"/><path d="M31.3 27.7v-.22h-.43v.22a2.88 2.88 0 11-.53-1.67l.34-.27a3.3 3.3 0 10.14 3.67v1.66c-.1.77-.77 2.33-2.66 2.4a3.3 3.3 0 01-2.35-.85l-.41.33A4.03 4.03 0 0028.16 34c1.8 0 3-1.54 3.14-2.91V27.7z" fill="#fff"/><defs><linearGradient id="ajr2b0lhx" x1="47.17" y1="7.57" x2="10.31" y2="50.44" gradientUnits="userSpaceOnUse"><stop stop-color="#0197A7"/><stop offset="1" stop-color="#834A9D"/></linearGradient></defs></svg>