<!-- by TradingView --><svg xmlns="http://www.w3.org/2000/svg" width="56" height="56" viewBox="0 0 56 56"><path fill="#F0F3FA" d="M0 0h56v56H0z"/><path d="M27.84 21.24l-2.8 8.28a.34.34 0 0 1-.13.17.36.36 0 0 1-.41 0 .34.34 0 0 1-.13-.17l-2.88-8.28a.34.34 0 0 0-.12-.17.36.36 0 0 0-.2-.07H8.34c-.1 0-.18.04-.25.1a.33.33 0 0 0-.1.24v12.32c0 .1.04.18.1.24.07.07.16.1.25.1h9.3c.19 0 .35-.16.35-.34v-1.9a.35.35 0 0 0-.35-.35H11.4a.36.36 0 0 1-.25-.1.33.33 0 0 1-.1-.24v-2.13c0-.09.04-.2.1-.26.07-.06.16-.1.25-.1h5.27c.2 0 .33-.13.33-.31v-1.94a.33.33 0 0 0-.03-.13.34.34 0 0 0-.2-.19l-.13-.01h-5.26a.37.37 0 0 1-.25-.11.33.33 0 0 1-.1-.24l.02-1.73c0-.1.04-.18.1-.24.07-.07.16-.1.25-.1h7.38c.07 0 .14.02.2.06.06.04.1.1.13.16l3.8 9.98c.02.07.07.12.13.16.05.04.12.06.2.06h2.72c.07 0 .14-.02.2-.06.06-.04.1-.1.13-.16l4.69-12.32a.33.33 0 0 0-.04-.31.35.35 0 0 0-.3-.15h-2.46a.36.36 0 0 0-.21.07c-.06.04-.1.1-.13.17z" fill="#072A3D"/><path d="M31.67 36.23c.04-.08.11-.14.19-.17a.3.3 0 0 1 .24.02 4.17 4.17 0 0 0 2.15.56c.52.04 1.04-.15 1.44-.52a2.21 2.21 0 0 0 .52-1.58.38.38 0 0 0-.04-.17.34.34 0 0 0-.12-.13.3.3 0 0 0-.32 0c-.55.3-1.15.44-1.76.42-.58.01-1.15-.1-1.68-.33-.47-.21-.9-.53-1.24-.94-.35-.42-.61-.91-.78-1.44a5.84 5.84 0 0 1-.27-1.83c0-.71.12-1.43.37-2.1a4.5 4.5 0 0 1 2.62-2.66 5.6 5.6 0 0 1 2.06-.36c.7 0 1.39.07 2.07.2.52.1 1.16.2 1.67.39.06.02.12.06.16.12.04.07.05.14.06.21L39 34.36a4.7 4.7 0 0 1-1.3 3.51A4.6 4.6 0 0 1 34.41 39c-.7.01-1.39-.07-2.06-.24a5 5 0 0 1-1.33-.58.35.35 0 0 1-.16-.22.38.38 0 0 1 .03-.27l.77-1.46zm4.56-8.36a.38.38 0 0 0-.07-.21.33.33 0 0 0-.17-.13 3.15 3.15 0 0 0-.97-.12 2.14 2.14 0 0 0-2.16 1.61c-.1.33-.15.66-.14 1-.03.6.13 1.17.45 1.65.17.2.37.36.6.47.24.1.49.15.74.13.46.04.91-.12 1.27-.43a1.88 1.88 0 0 0 .45-1.37v-2.6zM40 29.99a5.13 5.13 0 0 1 1.39-3.53c.45-.46.98-.83 1.58-1.07A5.2 5.2 0 0 1 45 25c.7 0 1.38.12 2.03.39a4.74 4.74 0 0 1 2.6 2.65c.24.62.36 1.28.36 1.95a5.14 5.14 0 0 1-1.4 3.53A4.87 4.87 0 0 1 45 35a5.1 5.1 0 0 1-3.61-1.48 4.9 4.9 0 0 1-1.4-3.53zm5 2.52a2.1 2.1 0 0 0 1.67-.78c.2-.24.34-.52.43-.81a3.13 3.13 0 0 0 0-1.86c-.1-.29-.24-.56-.43-.8A2.1 2.1 0 0 0 45 27.5c-.34 0-.67.07-.97.22-.27.13-.51.32-.7.55-.2.24-.34.51-.43.8a2.93 2.93 0 0 0 .43 2.67c.19.24.43.43.7.57.3.14.63.21.97.2z" fill="#31647E"/></svg>