<!-- by TradingView --><svg width="56" height="56" viewBox="0 0 56 56" xmlns="http://www.w3.org/2000/svg"><path fill="#F0F3FA" d="M0 0h56v56H0z"/><path d="M32 13H11v9h12.24c3.42-5.89 7.23-5.8 8.76-5.11V13Z" fill="url(#ajesfrqaw)"/><path d="M22.57 25H11v11h6.25c.7-5.79 7.5-6.1 10.8-5.74l.42-1.06c-4.98 1.21-6-2.3-5.9-4.2Z" fill="url(#bjesfrqaw)"/><path d="M20.42 36.57c.62-3.21 4.6-3.64 6.52-3.45-.61 1.95-2.33 5.84-4.28 5.76-1.95-.08-2.3-1.57-2.24-2.3Z" fill="url(#cjesfrqaw)"/><path d="M30.5 19.44c-1.66-.06-3.32 1.74-3.94 2.64h3.14c2.63-.3 2.87-2.58.8-2.64Z" fill="url(#djesfrqaw)"/><path d="M45 30V19H34.7c.46 4.44-3.41 6.02-5.41 6h-3.55c-.08 2.56 2.6 1.7 3.95.95.44-.32 1.53-.83 2.33-.3.8.52.74 1.31.61 1.64L31.41 30H45Z" fill="url(#ejesfrqaw)"/><path d="M45 43V33H30.3l-2.1 4.96c-1.19 2.64-4.04 3.76-5.2 3.99V43h22Z" fill="url(#fjesfrqaw)"/><defs><linearGradient id="ajesfrqaw" x1="11" y1="24.72" x2="32.09" y2="24.72" gradientUnits="userSpaceOnUse"><stop stop-color="#68BC4C"/><stop offset=".53" stop-color="#41818D"/><stop offset="1" stop-color="#2E65AC"/></linearGradient><linearGradient id="bjesfrqaw" x1="11" y1="24.72" x2="32.09" y2="24.72" gradientUnits="userSpaceOnUse"><stop stop-color="#68BC4C"/><stop offset=".53" stop-color="#41818D"/><stop offset="1" stop-color="#2E65AC"/></linearGradient><linearGradient id="cjesfrqaw" x1="20.41" y1="36.87" x2="26.73" y2="35.44" gradientUnits="userSpaceOnUse"><stop stop-color="#4BB2A3"/><stop offset="1" stop-color="#AFD52E"/></linearGradient><linearGradient id="djesfrqaw" x1="26.73" y1="22.08" x2="31.89" y2="20.77" gradientUnits="userSpaceOnUse"><stop stop-color="#51B49D"/><stop offset="1" stop-color="#B4D629"/></linearGradient><linearGradient id="ejesfrqaw" x1="25.32" y1="29.81" x2="45" y2="32.53" gradientUnits="userSpaceOnUse"><stop stop-color="#4AB2A5"/><stop offset="1" stop-color="#B7D726"/></linearGradient><linearGradient id="fjesfrqaw" x1="25.32" y1="29.81" x2="45" y2="32.53" gradientUnits="userSpaceOnUse"><stop stop-color="#4AB2A5"/><stop offset="1" stop-color="#B7D726"/></linearGradient></defs></svg>