<!-- by TradingView --><svg xmlns="http://www.w3.org/2000/svg" width="56" height="56" viewBox="0 0 56 56"><path fill="#0F4A44" d="M0 0h56v56H0z"/><path fill-rule="evenodd" d="M36 32V21h2.5v11H36Zm-18.9-8 2.4 5 2.4-5H25l-4 8h-3l-4-8h3.1ZM34 27.98C34 30.2 32.26 32 29.5 32c-2.94 0-4.5-1.8-4.5-4.02 0-2.21 1.74-3.98 4.5-3.98s4.5 1.77 4.5 3.98Zm-2.5.02a2 2 0 1 1-3.98 0 2 2 0 0 1 3.99 0Zm-22 4c2.32 0 3.92-1.27 4.37-3h-2.63a2 2 0 0 1-3.68-.6H14v-.57C13.92 25.68 12.19 24 9.5 24 6.74 24 5 25.77 5 27.98 5 30.2 6.56 32 9.5 32Zm1.95-4.5a2 2 0 0 0-3.86 0h3.86ZM47 32l1.5-3h-3l-2.4-5H40l4 8h3Zm3-6-1 2h-3.02l.96-2H50Zm-2.58-1h3.08l.5-1h-3.1l-.48 1Z" fill="#fff"/></svg>