<!-- by TradingView --><svg xmlns="http://www.w3.org/2000/svg" width="56" height="56" viewBox="0 0 56 56"><path fill="#F0F3FA" d="M0 0h56v56H0z"/><path d="M10.49 23H6v8h4.49v-1.52H7.54v-1.96h2.95V26H7.54v-1.48h2.95V23ZM15.03 31 12 23h1.72l2.1 5.56L17.88 23h1.74l-2.99 8h-1.6Z" fill="#00529B"/><path d="M12 32h.63v1.09H14v-1.1h.63v3H14v-1.27h-1.37V35H12v-3ZM6.63 32h.77a.86.86 0 1 1 0 1.7h-.77v-.54h.65a.31.31 0 0 0 0-.62h-.65V32Zm0 0H6v3h.63v-3Z" fill="#58595B"/><path fill-rule="evenodd" d="m18.58 35 1.38-3h.71l1.35 3h-.82l-.26-.62h-1.28l-.27.62h-.81Zm1.26-1.18.46-.93.4.93h-.86Z" fill="#58595B"/><path d="M24.07 34.43c2.08-.1 4.67-2.99 4.67-6.57 0-3.39-2.8-6.2-4.68-6.29h.15c2.27 0 5.73 2.85 5.73 6.3 0 3.63-3.21 6.56-5.73 6.56h-.14Z" fill="#DCE0EF"/><path d="M35.46 43c5.15-.21 11.55-6.96 11.55-15.32 0-7.9-6.9-14.47-11.56-14.67l.36-.01C41.42 13 50 19.65 50 27.68 50 36.17 42.04 43 35.8 43h-.34Z" fill="#B4BEDD"/><path d="M31.52 39.96c3.87-.17 8.69-5.55 8.69-12.22 0-6.3-5.2-11.53-8.7-11.7h.27c4.22 0 10.67 5.3 10.67 11.7 0 6.77-5.98 12.22-10.67 12.22h-.26Z" fill="#DCE0EF"/><path d="M27.51 36.68c2.81-.12 6.3-4.03 6.3-8.87 0-4.57-3.76-8.37-6.3-8.49h.2c3.06 0 7.74 3.84 7.74 8.5 0 4.9-4.35 8.86-7.75 8.86h-.19Z" fill="#C1C9E3"/><path fill-rule="evenodd" d="M24.83 31.22c2.4 0 4.33-1.89 4.33-4.22a4.28 4.28 0 0 0-4.33-4.22A4.28 4.28 0 0 0 20.49 27a4.28 4.28 0 0 0 4.34 4.22Zm0-1.45A2.8 2.8 0 0 0 27.67 27a2.8 2.8 0 0 0-2.84-2.77A2.8 2.8 0 0 0 21.98 27a2.8 2.8 0 0 0 2.85 2.77Z" fill="#00529B"/><path d="M34.7 23h2.02l-2.97 3.8h.04l3.28 4.2h-2.01l-2.52-3.22V31H31v-8h1.54v2.76L34.7 23ZM43 23h-4.54v8H43v-1.52h-3v-1.96h3V26h-3v-1.48h3V23Z" fill="#00529B"/><path d="M26 32h.61v3H26v-3Zm1.55 1.68a.86.86 0 0 0-.2-1.68h-.74v.54h.63a.31.31 0 1 1 0 .63h-.63v.54h.2l.77 1.29h.75l-.78-1.32Z" fill="#58595B"/><path fill-rule="evenodd" d="m39.7 35 1.38-3h.72l1.35 3h-.83l-.25-.62h-1.28l-.27.62h-.81Zm1.27-1.18.46-.93.4.93h-.86Z" fill="#58595B"/><path d="m32.53 32-.7 3h.77l.39-1.76.68 1.76h.67l.66-1.76.37 1.76h.77l-.62-3h-.73L34 33.98l-.8-1.98h-.68Z" fill="#58595B"/></svg>