<!-- by TradingView --><svg width="56" height="56" xmlns="http://www.w3.org/2000/svg"><path fill="#C62018" d="M0 0h56v56H0z"/><path d="M22 12h4v13.999l-4 .87V12zM17 12h4v15.064l-4 .87V12zM12 14a2 2 0 012-2h2v16.13L12 29V14zM34 44h-4V30.001l4-.87V44zM39 44h-4V28.936l4-.87V44zM44 42a2 2 0 01-2 2h-2V27.87l4-.87v15zM12 34v-4h13.999l.87 4H12zM12 39v-4h15.064l.87 4H12zM14 44a2 2 0 01-2-2v-2h16.13l.87 4H14zM44 22v4H30.001l-.87-4H44zM44 17v4H28.936l-.87-4H44zM42 12a2 2 0 012 2v2H27.87L27 12h15z" fill="#fff"/></svg>