<!-- by TradingView --><svg xmlns="http://www.w3.org/2000/svg" width="56" height="56" viewBox="0 0 56 56"><path fill="#F0F3FA" d="M0 0h56v56H0z"/><path d="M42.73 34.41a15.84 15.84 0 0 1-20.96 8.25l-.04-.02-.02-.01L27.14 30h9.91a2.5 2.5 0 1 0 0-1h-9.91l-4.33-9.22 1.35-.64-1.7-3.62-3.6 1.66 1.7 3.63 1.35-.6 4.35 9.3-5.46 12.7-.21-.13a12.7 12.7 0 0 0-.12-.06l-.08-.04a9.43 9.43 0 0 1-.53-.3l-.39-.25a7.62 7.62 0 0 1-.54-.36 13.7 13.7 0 0 1-1.33-1.03l-.07-.07a9.86 9.86 0 0 1-.99-.95 15.97 15.97 0 0 1-2.9-4.15l-.1-.2a14 14 0 0 1-.61-1.5l-.14-.4a8.08 8.08 0 0 1-.44-1.63l-.01-.07-.02-.07a6.96 6.96 0 0 1-.15-.9 5.78 5.78 0 0 1-.05-.38l-.03-.2v-.03l-.01-.17a6.64 6.64 0 0 1-.04-.4l-.03-.54-.01-.58a15.83 15.83 0 0 1 22.23-14.46 16.15 16.15 0 0 1 8.5 21.07zM39.5 31a1.5 1.5 0 1 0 0-3 1.5 1.5 0 0 0 0 3z" fill="#F60"/></svg>