<!-- by TradingView --><svg width="56" height="56" xmlns="http://www.w3.org/2000/svg"><path fill="#FA4B06" d="M0 0h56v56H0z"/><circle cx="28.122" cy="14.374" r="3.839" fill="#fff"/><path d="M27.815 27.732s-5.681-8.504-6.295-9.271c-.188-.234-.565-.461-.922-.461h-4.606l6.756 10.5L12 48s.266-.056.46-.154c.105-.052.355-.346.355-.346l15-18.232v-1.536zM27.815 29.268s6.043 8.504 6.657 9.271c.188.234.565.461.922.461H40l-7.118-10.5L43.63 9s-.266.056-.46.154c-.106.052-.355.346-.355.346l-15 18.232v1.536z" fill="#fff"/></svg>