<!-- by TradingView --><svg width="56" height="56" xmlns="http://www.w3.org/2000/svg"><path fill="#F0F3FA" d="M0 0h56v56H0z"/><path d="M27.503 30.519c.079-.549.079-1.21.079-1.783 0-.312 0-.624-.026-.923-.026-.274-.066-.636-.066-.885-.642-5.474-3.406-10.2-6.76-14.115a15.513 15.513 0 00-.446-.511c-.078-.088-.144-.175-.222-.262-.55-.599-1.31-1.434-1.86-1.97-.119-.112-.158-.137-.237-.237C17.77 9.608 16.17 8.075 16 8c.131.05 1.232 1.284 1.454 1.546.236.262.472.549.695.836.222.286.445.56.668.86a36.794 36.794 0 012.41 3.64c1.39 2.407 2.739 5.587 3.342 8.68.707 3.627.733 7.169-.092 10.76a28.72 28.72 0 01-1.454 4.55 31.674 31.674 0 01-1.743 3.53c-.079.124-.236.361-.275.498.13-.062.51-.436.642-.548.55-.524 1.205-1.297 1.677-1.87.747-.911 1.297-1.796 1.9-2.819 1.297-2.257 1.952-4.6 2.28-7.144z" fill="#3B8CE6"/><path d="M27.49 26.915c0 .25.039.611.065.886.026.299.026.61.026.922 0 .586 0 1.235-.078 1.783l.091.374c.668 3.442 2.853 6.833 4.973 9.502 1.139 1.421 1.845 2.157 3.075 3.478l.942.96c.144.163.328.312.485.462l1.452 1.384c.183.162.327.287.498.449l.98.885-1.295-1.471c-3.075-3.554-5.915-7.918-7.511-12.245-1.06-2.855-1.623-6.346-.694-9.501.72-2.444 2.827-4.95 4.895-6.434-.59.15-2.264 1.072-2.735 1.397-1.728 1.172-3.023 2.356-4.07 4.177-.903 1.546-.981 2.743-1.1 2.992z" fill="#EE6F2E"/><path d="M28.588 17.788c-.981.125-1.675 1.085-1.845 2.045-.091.573 0 1.197.275 1.596.89 1.347 2.853.411 3.14-1.459.184-1.097-.392-2.32-1.57-2.182z" fill="#3B8CE6"/></svg>