<!-- by TradingView --><svg width="56" height="56" xmlns="http://www.w3.org/2000/svg"><path fill="#F0F3FA" d="M0 0h56v56H0z"/><path d="M20.395 14.104c.76-.506 3.024-1.593 5.996-1.896l3.159 2.187c-.848.408-3.282 1.382-6.23 2.012l-2.925-2.303zm-7.559 18.975c5.544-.309 17.748-1.795 22.212-5.267l7.628 1.855c-3.349 2.361-13.237 7.42-23.565 8.34-4.355-2.213-6.073-3.494-6.275-4.928z" fill="url(#paint0_linear)"/><path d="M13.14 22.006c4.983-.262 16.077-1.662 20.593-5.162l6.142 2.683c-3.042 2.12-11.401 6.527-20.504 7.203-1.628-.904-5.154-3.114-6.23-4.724zm21.536 16.23c-.632.482-2.79 1.676-6.362 2.596l6.809 1.447c.756-.334 2.634-1.373 4.093-2.857l-4.54-1.187z" fill="#3B393A"/><path d="M25.899 12.142c3.352-.556 11.226.226 15.906 7.794-2.467-.386-9.102-2.487-15.906-7.794zm-4.908 1.513c2.545 3.027 10.566 9.214 22.281 9.745.35 1.048.967 3.835.63 6.601-9.038-1.676-13.137-2.62-28.132-12.19.596-.838 2.474-2.843 5.22-4.156zm21.863 20.107c-14.601-.347-25.88-8.007-29.695-11.794-.696 1.348-1.062 4.252-1.159 5.536 9.628 7.787 18.855 10.01 24.795 11.442.87.21 1.67.402 2.39.592 2.587-2.58 3.524-4.926 3.67-5.776zm-29.813-.01c9.01 5.909 12.569 6.646 22.21 8.458-4.702 2.6-16.552 4.148-22.21-8.458z" fill="url(#paint1_linear)"/><defs><linearGradient id="paint0_linear" x1="24.26" y1="12.903" x2="31.736" y2="36.296" gradientUnits="userSpaceOnUse"><stop stop-color="#2259A3"/><stop offset="1" stop-color="#214987"/></linearGradient><linearGradient id="paint1_linear" x1="13.318" y1="19.85" x2="40.958" y2="36.51" gradientUnits="userSpaceOnUse"><stop stop-color="#FAE637"/><stop offset="1" stop-color="#EA4938"/></linearGradient></defs></svg>