<!-- by TradingView --><svg width="56" height="56" xmlns="http://www.w3.org/2000/svg"><path fill="#00918D" d="M0 0h56v56H0z"/><path d="M31 19H13v1h3v20h-3v1h18v-6h-1c0 3.758-1.927 4.952-2.942 5H20v-9h3c1.391 0 2.048 1.94 2 3h1v-8h-1c0 2.66-1.469 3.12-2 3h-3v-9h5.971c2.725 0 3.908 3.507 4.029 5h1v-6z" fill="#fff"/><path d="M45 18.405c0 1.405-1.681 1.347-2.463 1.087-1.154-.1-2.783 2.602-3.512 3.98 0 4.565 1.34 6.069 2.01 6.069.537 0 2.253-2.462 2.848-3.724.4-.846 1.117-.53 1.117 0-.571 2.058-2.915 5.761-5.193 5.895-2.278.134-2.885-3.47-2.903-5.29-1.21 1.615-3.853 4.623-4.58 4.845-1.293.394-1.747 0-1.894-.107-1.382-1.011-.506-2.789.722-2.622.983.134 1.415.724 1.508 1.003l3.908-4.622c0-5.234-.706-6.18-1.563-6.013-.396.077-1.466 2.017-2.117 2.834-.428.463-1.189 1.364-1.234.785C31.6 21.801 33.832 17 36.122 17c1.831 0 2.699 3.038 2.903 4.523 1.162-2.183 2.786-3.582 3.512-4.158C43.362 16.712 45 17 45 18.405z" fill="#fff"/></svg>