<!-- by TradingView --><svg width="56" height="56" fill="none" xmlns="http://www.w3.org/2000/svg"><path fill="url(#paint0_linear_3186)" d="M0 0h56v56H0z"/><path d="M40.6 14H15.4c-.258 0-.4.21-.4.467V36l5.18-4.379c.526-.525.82-1.236.82-1.98v-9.174c0-.257.209-.467.467-.467H40.6c.259 0 .401-.21.401-.467v-5.066c0-.257-.142-.467-.4-.467zm-4.067 11H26.467a.468.468 0 00-.467.467v5.066c0 .257.209.467.467.467h10.066c.258 0 .467-.21.467-.467v-5.066a.469.469 0 00-.467-.467zm4.066 11H15l4.716 5.181a2.791 2.791 0 001.977.819h18.904c.258 0 .403-.21.403-.467v-5.066c.002-.26-.142-.467-.4-.467z" fill="#fff"/><defs><linearGradient id="paint0_linear_3186" x1="56" y1="28" x2="0" y2="28" gradientUnits="userSpaceOnUse"><stop stop-color="#2A086A"/><stop offset="1" stop-color="#3D1092"/></linearGradient></defs></svg>