<!-- by TradingView --><svg width="56" height="56" xmlns="http://www.w3.org/2000/svg"><path fill="#00529B" d="M0 0h56v56H0z"/><path d="M36 35v-9.997h1v.363c.285-.235 1.28-.34 1.524-.363 1.754-.069 2.377.984 2.47 1.52V35H40v-8.234c-.033-.288-.749-.766-1.476-.766s-1.465.478-1.524.766V35h-1zM23.298 28.1c-.067-1.247 1.364-2.586 2.088-3.1l.614.508c-1.145.757-1.686 1.952-1.715 2.401-.022.345.071 1.192.624 1.822.552.63 1.106 1.372 1.091 1.852-.054 1.723-1.624 3.04-2.331 3.472L23 34.477c1.36-1.023 2-2.017 2-2.547 0-.53-.253-.86-.913-1.87-.66-1.008-.828-1.69-.789-1.96zM22 25h-1v10h1V25zM29 25h-1v10h1V25zM17 35l-2-10h1l1.58 7L19 25h1l-2 10h-1zM39 24.002v-2.991h1v2.675h1v.316h-2zM25.5 24.005v-3h1v3h-1zM25 21h-3v.384h1V24h1v-2.616h1V21zM19.008 21.582V24H20v-.924h1V24h1v-2.418c-.049-.179-.462-.547-1.431-.582-.97-.034-1.522.375-1.561.582zM35.251 21.584v2.418h.995v-.924h1.002v.924h1.003v-2.418c-.049-.179-.463-.548-1.435-.582-.972-.034-1.525.375-1.565.582z" fill="#fff"/><path d="M20 21.613v1.103h1v-1.103c-.02-.1-.153-.3-.516-.3-.362 0-.474.2-.484.3zM36.247 21.642v1.103h1v-1.103c-.02-.1-.153-.3-.516-.3-.362 0-.474.2-.484.3z" fill="#00529B"/><path d="M27.794 15.006c-7.213.088-13.535 4.036-15.794 5.999 2.097-1.271 8.19-3.831 15.794-3.901 7.603-.07 13.972 2.571 16.206 3.9-2.397-2.036-8.994-6.086-16.206-5.998zM27.794 40.999C20.58 40.91 14.259 36.963 12 35c2.097 1.271 8.19 3.83 15.794 3.9 7.603.071 13.972-2.57 16.206-3.9-2.397 2.036-8.994 6.087-16.206 5.999z" fill="#fff"/><path d="M15 24v-3h1v.21c1.176-.375 1.804.104 2.001.39V24H17v-2.319c-.606-.324-.864-.135-1 0V24h-1zM31.5 24v-3h1v.21c1.176-.375 1.804.104 2.001.39V24H33.5v-2.319c-.606-.324-.864-.135-1 0V24h-1z" fill="#fff"/><ellipse cx="32.5" cy="30" rx="2.5" ry="5" fill="#fff"/><ellipse cx="32.497" cy="30.003" rx="1.5" ry="4" fill="#00529B"/><ellipse cx="29" cy="22.5" rx="2" ry="1.5" fill="#fff"/><ellipse cx="29" cy="22.5" rx="1" ry="1.2" fill="#00529B"/></svg>