<!-- by TradingView --><svg xmlns="http://www.w3.org/2000/svg" width="56" height="56"><path fill="#3F215B" d="M0 0h56v56H0z"/><path d="M40.97 37.25a7.5 7.5 0 00-2.05-7.55l-6.42-6.25-6.18-6.42c-.97-1.1-3.68-3-7.1-2.12a15.5 15.5 0 019.07-2.88 15.8 15.8 0 0115.66 15.94 15.95 15.95 0 01-2.98 9.28z" fill="#83939E"/><circle cx="28" cy="28" r="12" fill="#C2007A"/><path d="M36.88 41a7.3 7.3 0 01-7.45-2.09l-6.15-6.51-6.33-6.28a7.52 7.52 0 01-2.08-7.19A15.96 15.96 0 0012 28.1 15.8 15.8 0 0027.7 44c3.43 0 6.6-1.1 9.18-3z" fill="#F6821F"/><path d="M32.14 16.77c-1.56-.34-3.28.03-1.43 1.93 3.44 2.52 4.38 3.47 6.47 6.7 1.83 1.91 2.07 0 1.67-1.68-.66-2.8-3.88-6.34-6.71-6.95z" fill="#D23D97"/></svg>