<!-- by TradingView --><svg width="56" height="56" viewBox="0 0 56 56" xmlns="http://www.w3.org/2000/svg"><path fill="#F0F3FA" d="M0 0h56v56H0z"/><path d="M22 32a11.94 11.94 0 0 0 12 0c-.3.71-5.8 8.63-12 0Z" fill="#FF5100"/><path fill-rule="evenodd" d="M28 45a17 17 0 1 0 0-34 17 17 0 0 0 0 34Zm5.66-21.14L28 18l-5.66 5.86a8.5 8.5 0 0 0 0 11.71 7.8 7.8 0 0 0 11.32 0 8.5 8.5 0 0 0 0-11.71Z" fill="url(#avn4rwfh3)"/><path d="m28 18 5.62-6.05a17 17 0 0 1-6.65 33.02l.27-7c2.3.22 4.66-.58 6.42-2.4a8.5 8.5 0 0 0 0-11.71L28 18Z" fill="url(#bvn4rwfh3)"/><defs><linearGradient id="avn4rwfh3" x1="28.68" y1="11" x2="28.68" y2="45" gradientUnits="userSpaceOnUse"><stop stop-color="#FFB400"/><stop offset=".85" stop-color="#FF4A01"/></linearGradient><linearGradient id="bvn4rwfh3" x1="35.99" y1="11.95" x2="35.99" y2="45" gradientUnits="userSpaceOnUse"><stop stop-color="#FF2600"/><stop offset="1" stop-color="#FF5100"/></linearGradient></defs></svg>