<!-- by TradingView --><svg width="56" height="56" viewBox="0 0 56 56" xmlns="http://www.w3.org/2000/svg"><path fill="#F0F3FA" d="M0 0h56v56H0z"/><path d="M26.3 28.67a.77.77 0 0 1 .44-.38.8.8 0 0 1 .58 0c.18.08.33.23.41.4.08.18.09.39.02.57-.62 1.42-.75 3-.37 4.5a7.13 7.13 0 0 0 2.48 3.8.77.77 0 0 1 .3.52.74.74 0 0 1-.17.57.78.78 0 0 1-.54.28.8.8 0 0 1-.58-.19 8.64 8.64 0 0 1-3-4.62 8.42 8.42 0 0 1 .44-5.44Zm11.38 11.49a.8.8 0 0 1-.59-.04.77.77 0 0 1-.4-.42.74.74 0 0 1 .02-.57.77.77 0 0 1 .42-.4 7.4 7.4 0 0 0 2.42-1.44.79.79 0 0 1 .56-.2.8.8 0 0 1 .54.24.75.75 0 0 1 .2.55.74.74 0 0 1-.24.52 8.86 8.86 0 0 1-2.94 1.75Zm7.21-11.61a.75.75 0 0 1-.29.5.8.8 0 0 1-1.1-.12.74.74 0 0 1-.16-.56l.06-.44.04-.43c.03-.2.13-.37.29-.5a.8.8 0 0 1 1.08.1c.13.14.2.34.19.53a90.48 90.48 0 0 1-.1.93v-.01Zm-12.6-8.62a.74.74 0 0 1-.04-.57c.07-.18.2-.34.38-.43a.8.8 0 0 1 .58-.06c.2.05.36.18.47.35l.15.29.15.29c.07.18.08.38 0 .56a.77.77 0 0 1-.4.42.8.8 0 0 1-.57.03.78.78 0 0 1-.45-.36l-.12-.26-.15-.26Zm1.22 3.28c-.04-.2 0-.4.12-.56.11-.17.3-.29.5-.32a.8.8 0 0 1 .58.1c.17.12.3.3.33.5a13 13 0 0 1-1.26 8.73.8.8 0 0 0 .1.91c.12.12.26.21.42.26a.88.88 0 0 0 .79-.16.81.81 0 0 0 .2-.25 14.51 14.51 0 0 0 1.24-3.18c.07-.18.2-.33.37-.42a.8.8 0 0 1 1.02.25c.11.16.15.35.12.54a16.28 16.28 0 0 1-1.36 3.49 2.4 2.4 0 0 1-1.4 1.05c-.6.17-1.23.1-1.77-.16a2.36 2.36 0 0 1-1.17-1.3c-.21-.55-.2-1.17.05-1.71a11.5 11.5 0 0 0 1.12-7.76Zm-14.45 16a.77.77 0 0 1-.38.99.8.8 0 0 1-.59.04.78.78 0 0 1-.44-.37c-.7-1.43-1.21-2.94-1.51-4.5a.73.73 0 0 1 .09-.6.77.77 0 0 1 .51-.35.8.8 0 0 1 .62.14.76.76 0 0 1 .3.53c.28 1.43.75 2.82 1.4 4.13Zm-1.69-7.17c0 .2-.08.4-.22.53a.8.8 0 0 1-1.1 0 .74.74 0 0 1-.23-.53c0-1.9.3-3.8.91-5.61.07-.2.21-.35.4-.44a.8.8 0 0 1 1.05.33.74.74 0 0 1 .04.58 15.93 15.93 0 0 0-.85 5.14Zm16.9 10.31a.8.8 0 0 1 .56.23.75.75 0 0 1 .21.54.74.74 0 0 1-.24.53.78.78 0 0 1-.55.21l-.42-.01c-.15 0-.29-.02-.42-.03a.79.79 0 0 1-.5-.28.74.74 0 0 1 .1-1.04.8.8 0 0 1 .54-.19l.37.03.36.01Zm5.88-18.86c-.02-.2.03-.4.16-.56a.8.8 0 0 1 1.1-.13c.16.13.27.3.3.5a19.03 19.03 0 0 1-.9 8.4.77.77 0 0 1-.39.43.8.8 0 0 1-.59.04.78.78 0 0 1-.44-.37.74.74 0 0 1-.06-.57c.85-2.5 1.13-5.13.82-7.74Zm-8.47-7a.74.74 0 0 1-.07 1.05.8.8 0 0 1-1.08-.03 11.96 11.96 0 0 0-4.7-3.08c-.42-.16-.85-.3-1.29-.4a.78.78 0 0 1-.47-.35.74.74 0 0 1-.09-.57c.05-.2.18-.36.36-.47a.8.8 0 0 1 .6-.08 13.6 13.6 0 0 1 4.94 2.33c.65.48 1.25 1.02 1.8 1.6Zm-12.05 2.2c.2-.03.4 0 .57.1.17.1.29.27.34.46.05.19.02.38-.07.55-.1.17-.26.3-.45.36a5.76 5.76 0 0 0-2.77 1.62.78.78 0 0 1-.55.27.8.8 0 0 1-.58-.2.76.76 0 0 1-.25-.54.74.74 0 0 1 .23-.55 7.13 7.13 0 0 1 3.53-2.07Zm-6.1 19.61a.74.74 0 0 1 .07-.56c.1-.17.26-.3.45-.36a.8.8 0 0 1 .59.05c.18.1.31.24.38.43l.1.33.13.33a.78.78 0 0 1-.5.94.8.8 0 0 1-.58-.03.77.77 0 0 1-.4-.41l-.13-.36c-.05-.17-.1-.29-.11-.36Z" fill="#243A83"/><path d="M21.41 42.42a.74.74 0 0 1-.09 1.06.8.8 0 0 1-1.1-.09l-.45-.53-.42-.55a.74.74 0 0 1 .18-1.06.8.8 0 0 1 1.09.18 11.35 11.35 0 0 0 .8.99ZM38.55 26.51c-.01.2-.1.4-.26.53a.8.8 0 0 1-1.1-.06.74.74 0 0 1-.2-.55c.12-2.17-.25-4.34-1.08-6.36a15.09 15.09 0 0 0-3.72-5.35.76.76 0 0 1-.27-.53.74.74 0 0 1 .22-.56.78.78 0 0 1 .56-.23.8.8 0 0 1 .56.22 16.56 16.56 0 0 1 4.1 5.89 16.12 16.12 0 0 1 1.19 7ZM31.5 40.34a.77.77 0 0 1-.44-.39.73.73 0 0 1-.03-.58.77.77 0 0 1 .4-.42.8.8 0 0 1 .6-.03c.7.25 1.45.4 2.2.42.22 0 .41.1.55.24a.74.74 0 0 1-.04 1.07.8.8 0 0 1-.56.2 9.38 9.38 0 0 1-2.68-.5ZM19.28 24.72a.77.77 0 0 1-.46.38.8.8 0 0 1-.6-.05.76.76 0 0 1-.38-.44.74.74 0 0 1 .05-.58c.5-.91 1.34-1.6 2.36-1.91a4.16 4.16 0 0 1 3.06.24 3.95 3.95 0 0 1 2 2.28 3.8 3.8 0 0 1-.23 2.97 10.3 10.3 0 0 0-1.12 3.69.75.75 0 0 1-.29.5.8.8 0 0 1-1.09-.1.74.74 0 0 1-.18-.55 11.38 11.38 0 0 1 1.29-4.23 2.35 2.35 0 0 0-1.04-3.3 2.54 2.54 0 0 0-3.37 1.1Z" fill="#03B8E6"/><path d="M30.81 11.39a.77.77 0 0 1 .37.48.73.73 0 0 1-.1.58.77.77 0 0 1-.51.34.8.8 0 0 1-.6-.13l-.22-.14-.23-.13a.74.74 0 0 1-.24-1.02c.1-.17.28-.3.47-.34a.8.8 0 0 1 .58.06 8.26 8.26 0 0 1 .48.3ZM28.98 32.86a.73.73 0 0 1 .08-.6.77.77 0 0 1 .51-.35.8.8 0 0 1 .62.13.76.76 0 0 1 .31.52 3.93 3.93 0 0 0 2.37 2.85 4.23 4.23 0 0 0 3.96-.34 4.03 4.03 0 0 0 1.36-1.49.76.76 0 0 1 .45-.37.8.8 0 0 1 .84.23.75.75 0 0 1 .18.55c0 .1-.04.2-.08.28a5.55 5.55 0 0 1-1.88 2.06A5.78 5.78 0 0 1 30 35.09a5.46 5.46 0 0 1-1.03-2.23ZM13.47 21.27a.77.77 0 0 1-.45.38.8.8 0 0 1-.6-.05.76.76 0 0 1-.38-.44.73.73 0 0 1 .05-.58 9.9 9.9 0 0 1 .73-1.18.8.8 0 0 1 1.09-.19c.17.12.28.3.32.49.04.2 0 .4-.13.57a8.64 8.64 0 0 0-.63 1ZM12.72 29.1c.03-.2.13-.38.3-.5a.8.8 0 0 1 1.1.12c.12.16.18.36.15.56a18.84 18.84 0 0 0 .03 5.13c.03.2-.02.4-.15.56a.8.8 0 0 1-1.1.15.75.75 0 0 1-.3-.5 20.76 20.76 0 0 1-.03-5.52ZM30.86 41.44c.2.07.36.2.44.4.09.17.1.38.02.57a.77.77 0 0 1-.4.42.8.8 0 0 1-.6.03 10.19 10.19 0 0 1-1.36-.58 12.1 12.1 0 0 1-3.91-3.08 11.66 11.66 0 0 1-2.54-5.45.73.73 0 0 1 .12-.59.77.77 0 0 1 .51-.32.8.8 0 0 1 .6.14.77.77 0 0 1 .31.51 9.8 9.8 0 0 0 .22.96 10.17 10.17 0 0 0 2 3.8 10.55 10.55 0 0 0 4.6 3.18ZM26.32 17.9a.74.74 0 0 1-.24-1.05.8.8 0 0 1 1.08-.23 10.28 10.28 0 0 1 4.52 5.96c.69 2.47.4 5.09-.8 7.36a.77.77 0 0 1-.45.38.8.8 0 0 1-.6-.05.76.76 0 0 1-.39-.44.74.74 0 0 1 .05-.58 8.49 8.49 0 0 0 .68-6.27 8.75 8.75 0 0 0-3.85-5.08Z" fill="#1F72B5"/><path d="M16.4 18.61a.8.8 0 0 1-1.09-.2.74.74 0 0 1 .2-1.05A10.78 10.78 0 0 1 24.35 16a.77.77 0 0 1 .33.5.73.73 0 0 1-.15.58.77.77 0 0 1-.54.3.8.8 0 0 1-.31-.03 9.29 9.29 0 0 0-7.27 1.26ZM37.49 16.29a.74.74 0 0 1-.1-.58.8.8 0 0 1 1.43-.22 19.67 19.67 0 0 1 2.15 4.68.73.73 0 0 1-.24.82.8.8 0 0 1-.88.08.78.78 0 0 1-.37-.47 17.98 17.98 0 0 0-2-4.31ZM14.4 23.77a.76.76 0 0 1 .43-.42.8.8 0 0 1 .87.18.76.76 0 0 1 .2.56c0 .1-.02.2-.07.3a26.29 26.29 0 0 0-.8 2.04.74.74 0 0 1-.36.51.8.8 0 0 1-1.12-.33.74.74 0 0 1 0-.62 26.58 26.58 0 0 1 .85-2.21ZM21.92 12.42a.8.8 0 0 1 .55.24.75.75 0 0 1 .21.54.74.74 0 0 1-.24.53.79.79 0 0 1-.56.2h-.49a.8.8 0 0 1-.56-.21.75.75 0 0 1-.01-1.07.8.8 0 0 1 .55-.23h.55ZM42.65 35.94a.76.76 0 0 1-.45.38.8.8 0 0 1-.83-.22.75.75 0 0 1-.2-.54c.01-.1.04-.2.09-.29a21.36 21.36 0 0 0 1.44-3.61.75.75 0 0 1 .37-.46.8.8 0 0 1 1.07.3.74.74 0 0 1 .07.57c-.2.65-.43 1.3-.7 1.97a20.9 20.9 0 0 1-.86 1.9ZM22.54 20.35a.79.79 0 0 1-.5-.32.74.74 0 0 1 .2-1.06.8.8 0 0 1 .58-.12 7.5 7.5 0 0 1 2 .66c1.26.63 2.3 1.6 3 2.8.7 1.19 1.04 2.55.95 3.92a.75.75 0 0 1-.27.5.8.8 0 0 1-1.08-.06.74.74 0 0 1-.2-.53 5.43 5.43 0 0 0-.97-3.43 5.72 5.72 0 0 0-3.71-2.36ZM20.79 25.47c.1-.17.26-.3.46-.37a.8.8 0 0 1 .6.05c.18.1.31.25.38.44.06.2.04.4-.05.58A13.1 13.1 0 0 0 20.92 35c.62 3 2.28 5.7 4.7 7.66.16.13.26.31.28.51.02.2-.05.4-.18.56a.8.8 0 0 1-1.1.1 14.91 14.91 0 0 1-5.23-8.53c-.7-3.34-.2-6.8 1.4-9.83Z" fill="#F08A1E"/></svg>