<!-- by TradingView --><svg width="56" height="56" viewBox="0 0 56 56" xmlns="http://www.w3.org/2000/svg"><path fill="#F0F3FA" d="M0 0h56v56H0z"/><path d="M34 22.45c-1.67 0-3 1.33-3 2.95v1.37c0 .13-.14.23-.27.23a.23.23 0 0 1-.23-.23V25.4c0-1.88 1.58-3.4 3.5-3.4h.23a3.45 3.45 0 0 1 3.27 3.4V33h-.46v-7.6A3 3 0 0 0 34 22.45Z" fill="#50A8F4"/><path fill-rule="evenodd" d="m4 32.41.48-1c.21.2.8.61 1.47.61.84 0 .98-.61.37-.81L6 31.1c-.7-.17-1.8-.45-1.8-1.67C4.2 28.3 5.45 28 6.07 28c.35 0 1.17.13 1.61.52l-.47.97c-.16-.17-.6-.52-1.14-.52-.67 0-.74.24-.74.47 0 .23.41.42.85.54.44.12 1.67.47 1.67 1.57S6.79 33 5.95 33c-.67 0-1.58-.4-1.95-.59ZM8 28h4v1h-1.5v4h-1v-4H8v-1Zm6.5 5a2.5 2.5 0 1 0 0-5 2.5 2.5 0 0 0 0 5Zm0-1a1.5 1.5 0 1 0 0-3 1.5 1.5 0 0 0 0 3Zm4.5 1h-1v-5h.78L21 30.96V28h1v5h-.85L19 30.11V33Zm4 0h3v-1h-2v-1h1.5v-1H24v-1.01h2V28h-3v5Zm6.68-5H27v5h2.45c.28 0 1.55-.15 1.55-1.23 0-.87-.6-1.22-.91-1.28.22-.16.65-.61.65-1.18 0-1.04-.7-1.3-1.06-1.31Zm-.48 1H28v1h1.2a.5.5 0 1 0 0-1Zm.2 2H28v1h1.4c.34 0 .6-.22.6-.5s-.26-.5-.6-.5Zm2.6 2h1v-1.5h.58l.8 1.5h1.23l-.92-1.63c.54-.31.81-1.14.81-1.58 0-1.36-1-1.76-1.48-1.79H32v5Zm1-4h.88c.38 0 .69.34.69.75s-.3.75-.69.75H33V29Zm7.67-1h-2.08v5h2.08c.7-.07 2.13-.74 2.13-2.5S41.42 28 40.67 28Zm-1 1.02v3.01h1.01c.34-.05 1.03-.41 1.03-1.52 0-1.1-.66-1.49-1.03-1.49h-1Zm7.2.7.8-.65A2.29 2.29 0 0 0 45.83 28c-1.2 0-2.46.98-2.46 2.56A2.37 2.37 0 0 0 45.71 33c.58 0 1-.26 1.27-.52V33H48v-2.6h-2v.81h.98v.17c-.3.32-.75.66-1.27.66-.93 0-1.3-.88-1.3-1.48s.4-1.54 1.36-1.54c.55 0 .98.47 1.1.7ZM52 28h-3v5h3v-1h-2v-1.12h1.68v-.84H50V29h2v-1ZM26 20.25c0-.14.12-.25.27-.25h15.46c.15 0 .27.11.27.25s-.12.25-.27.25H41v.5h.73c.15 0 .27.11.27.25s-.12.25-.27.25H26.27c-.15 0-.27-.11-.27-.25s.12-.25.27-.25H27v-.5h-.73c-.15 0-.27-.11-.27-.25Zm13.5.25h1v.5h-1v-.5Zm-.5.5v-.5h-1.5v.5H39Zm-3.5-.5H37v.5h-1.5v-.5Zm-.5.5v-.5h-1.5v.5H35Zm-3.5-.5H33v.5h-1.5v-.5Zm-.5.5v-.5h-1.5v.5H31Zm-3.5-.5H29v.5h-1.5v-.5ZM26 22.22c0-.12.11-.22.25-.22.64 0 1.58.2 2.37.77.8.58 1.4 1.54 1.38 3 0 .13-.12.23-.25.23-.14 0-.25-.1-.24-.23.02-1.34-.52-2.15-1.2-2.64a3.76 3.76 0 0 0-2.07-.68c-.13 0-.24-.1-.24-.23Zm16 0c0-.12-.11-.22-.25-.22-.64 0-1.58.2-2.37.77-.8.58-1.4 1.54-1.38 3 0 .13.12.23.25.23.14 0 .25-.1.24-.23-.02-1.34.52-2.15 1.2-2.64.68-.5 1.51-.67 2.07-.68.13 0 .24-.1.24-.23Z"/></svg>