<!-- by TradingView --><svg width="56" height="56" xmlns="http://www.w3.org/2000/svg"><path fill="#F0F3FA" d="M0 0h56v56H0z"/><path d="M46.094 34.855c.092-.09.2-.163.284-.262a1.393 1.393 0 00.23-1.394 1.146 1.146 0 00-.276-.412c-.133-.127-.341-.16-.518-.198-.42-.09-.853-.11-1.278-.176-.425-.067-.9-.178-1.123-.583.367-.018.668-.335.932-.557l.491-.415c.239-.2.531-.402.651-.699.044-.11-.003-.217-.035-.324a3.418 3.418 0 00-.111-.325 2.058 2.058 0 00-.31-.538c-.342-.419-.86-.643-1.362-.81a1.1 1.1 0 00.165-.585 1.24 1.24 0 00-.138-.586c-.233-.463-.69-.786-1.14-1.018-.396.325-.91.656-1.444.506-.483-.136-.837-.576-1.141-.948-.236-.288-.462-.585-.701-.872.367-.37.736-.736 1.102-1.105-.415-.515-.89-1.042-1.514-1.294-.59-.238-1.218-.138-1.782.125a.81.81 0 01-.028-.154.347.347 0 01.05-.133c.046-.092.09-.185.135-.28l.296-.607a13.484 13.484 0 00-.994-.646 3.538 3.538 0 00-.792-.373.658.658 0 00-.42-.011c-.12.065-.23.148-.323.247l-.364.306a.728.728 0 01-.154.13.473.473 0 01-.158 0 3.192 3.192 0 01-1-.288 16.422 16.422 0 01-2.047-1.09 9.45 9.45 0 01.337-.526c.092-.122.176-.25.252-.383a.424.424 0 00.067-.303.515.515 0 00-.238-.263 3.103 3.103 0 00-.553-.267c-.209-.083-.408-.19-.612-.284-.174-.08-.402-.21-.6-.148a.876.876 0 00-.27.178 7.819 7.819 0 01-.633.468c-.264-.788-1.056-1.441-1.83-1.688-.37-.117-.79-.148-1.147.031a2.86 2.86 0 00-.517.397l-.413.351a2.815 2.815 0 00-.52.494c-.019.025-.043.092-.07.108-.027.016-.102.004-.146 0-.12-.008-.24-.019-.36-.037a1.68 1.68 0 01-.624-.208 1.364 1.364 0 01-.492-.556c-.177-.351-.24-.735-.305-1.118-.05-.293-.509-.419-.755-.485-.583-.155-1.35-.206-1.847.201-.07.057-.137.116-.206.176l-.101.088c-.062.051-.053.06-.123.007a2.336 2.336 0 00-1.155-.476 2.218 2.218 0 00-1.16.166 2.846 2.846 0 00-.649.46c-.29.246-.61.478-.878.748a1.449 1.449 0 00-.406.832c-.01.053-.018.09.011.133.041.046.087.087.138.122.346.285.755.485 1.148.696a10.572 10.572 0 01.43.242c.037.03.078.055.122.074a1.185 1.185 0 01-.334.113.667.667 0 01-.34-.11 2.732 2.732 0 01-.524-.382c-.345-.309-.645-.66-.973-.985-.284-.284-.608-.59-1.002-.708-.393-.118-.739.049-1.043.303-.305.255-.585.494-.878.74-.52.415-1.01.867-1.467 1.352a8.148 8.148 0 00-1.49 2.483l4.491.889c-.086.342-.17.686-.26 1.03-.908-.335-1.777-.757-2.69-1.073a4.454 4.454 0 00-.159-.054c-.052-.017-.063-.021-.104.013l-.12.096-.207.176c-.144.12-.287.243-.43.364-.152.112-.291.24-.418.378a1.989 1.989 0 00-.326.622 2.583 2.583 0 00-.067 1.538c.072.263.223.498.434.671a1.168 1.168 0 00.619.243c.09.018.11.09.161.164-.512.343-.55 1.012-.373 1.55.105.308.264.596.47.85a2.287 2.287 0 00.5.478c.076.049.162.08.252.093.729.144 1.413-.178 2.085-.408.181-.063.365-.12.552-.165a1.6 1.6 0 00.252-.087.73.73 0 01.213-.055c.331-.033.623.183.85.4.313.318.598.661.853 1.027l.418.566c.147.2.311.387.448.597-.332-.028-.686-.05-1.002.072a1.954 1.954 0 00-.531.37c-.242.204-.484.408-.726.614a1.91 1.91 0 00-.572.86c2.493 2.245 1.334 2.36 5.132 1.347.04.076.128.181.096.266a.913.913 0 01-.078.156c-.078.12-.166.232-.262.337-.203.229-.425.441-.606.688-.097.133-.296.441-.147.607a.646.646 0 00.138.08l.168.1.298.182.567.358c.327.217.668.411 1.021.582.252.113.542.215.822.172.224-.036.37-.184.535-.327l.402-.34c.146-.121.295-.24.436-.367.294-.266.404-.684.479-1.054.183.103.39.179.58.266l.606.278 1.167.537 2.346 1.076-1.758 2.4c.79.215 1.515.616 2.309.816.34.101.7.12 1.05.057.29-.068.503-.238.725-.425.169-.142.333-.29.505-.426.156.423.236.948.555 1.287.408.434 1.085.384 1.626.424.628.044 1.327.046 1.834-.381.26-.221.522-.443.787-.665.105-.08.203-.17.293-.267a.879.879 0 00.164-.281.49.49 0 00.045-.174.556.556 0 00-.081-.164c-.23-.437-.547-.818-.844-1.207.305 0 .614-.038.918-.057l.957-.06 1.239 3.09a6.998 6.998 0 001.64-.272c.263-.083.517-.195.757-.334a3.41 3.41 0 00.34-.23c.06-.045.115-.107.178-.146.081-.051.229-.026.333-.042.13-.019.26-.051.384-.097.225-.085.436-.202.627-.348.226-.172.435-.355.647-.536.249-.212.498-.425.75-.63l.024-.018a.097.097 0 00.013-.008l.012-.008s.023-.02.021-.02l.013-.008a.104.104 0 00.012-.009.032.032 0 01.012-.01c.01.003.014-.005.01-.01a.114.114 0 00.013-.008l.013-.008.023-.017c.011.002.015-.006.011-.01a.097.097 0 00.013-.008.03.03 0 01.011-.01.03.03 0 00.012-.01.097.097 0 01.012-.008s.002-.007.011-.01l.024-.016.012-.008a.114.114 0 01.013-.009l.021-.02a.105.105 0 01.013-.008l.012-.008a.03.03 0 01.012-.01c.01.002.014-.006.01-.01l.013-.008a.087.087 0 01.012-.008l.024-.017c.01.002.014-.006.01-.01l.013-.008a.032.032 0 01.012-.01.03.03 0 00.011-.01l.013-.008s.001-.007.01-.01l.024-.017a.105.105 0 00.013-.008l.012-.008s.002-.008.011-.01l.024-.018a.092.092 0 00.012-.008.03.03 0 01.012-.01l.023-.018.013-.009a.087.087 0 00.012-.008l.013-.01c.01.003.014-.005.01-.01a.105.105 0 00.013-.008s.002-.008.012-.01l.024-.017.012-.009a.104.104 0 00.013-.008l.012-.01c.012.003.017-.005.012-.009l.013-.008s.001-.008.011-.01l.024-.018.013-.008.012-.008.013-.01c.011.002.016-.005.012-.01a.087.087 0 01.012-.008l.012-.008.025-.018.012-.008s.002-.009.012-.01c.001-.007.018-.015.022-.02a.105.105 0 01.012-.008l.013-.008.013-.01c.01.002.014-.005.01-.01l.013-.008a.093.093 0 01.012-.008l.024-.018c.01.002.014-.006.01-.01l.013-.008.013-.01a.03.03 0 00.012-.01l.012-.008c-.033-.006-.094-.073-.124-.097l-.126-.101a2.967 2.967 0 00-.221-.166 9.63 9.63 0 00-.62-.385c-.455-.26-.92-.5-1.36-.782a4.298 4.298 0 01-.672-.504.658.658 0 01-.113-.111c-.03-.044-.02-.076 0-.126a.71.71 0 01.079-.139c.015-.023.096-.147.12-.146.025 0 .109.087.13.105l.123.108c.081.075.16.151.237.228.16.162.316.33.473.494.283.32.608.601.967.833a2.498 2.498 0 00.417.197.227.227 0 00.191.001c.23-.079.446-.195.638-.344.334-.259.648-.544.97-.815.32-.271.623-.568.762-.98a1.158 1.158 0 00-.289-1.209zm-7.113-3.76a2.17 2.17 0 01-.324.274c-.114.095-.226.192-.34.288l-.336.282a4.455 4.455 0 00-.373.367c-.141.131-.271.273-.39.424a.7.7 0 00-.138.448.76.76 0 00.174.36 1.45 1.45 0 00-.436-.044.597.597 0 00-.173.063c-.196.09-.391.184-.58.29-.22.132-.429.284-.621.454l-.727.614c-.247.21-.545.5-.5.86l-1.626-.172c.146-.736-.273-1.544-.846-1.986a1.763 1.763 0 00-1.241-.386c-.222.025-.419.147-.61.265-.16.097-.31.206-.452.327-.13.114-.268.225-.402.338l-.206.176c-.059.05-.09.09-.169.086a1.669 1.669 0 01-.556-.156c-.363-.144-.717-.311-1.071-.474-.814-.378-1.627-.755-2.443-1.126a.628.628 0 00.104-.155l.106-.163c.072-.112.142-.224.208-.34.111-.181.198-.377.259-.582a.776.776 0 00-.016-.5c-.086-.195-.264-.308-.437-.422-.41-.272-.855-.548-1.338-.666a.985.985 0 00-.76.076c-.232.138-.41.427-.692.46-.281.034-.552-.168-.762-.328-.532-.406-.981-.924-1.411-1.431-.31-.366-.611-.742-.904-1.118.204-.177.452-.297.718-.345.241-.06.508-.084.72-.22.19-.123.311-.365.388-.573a.894.894 0 00.054-.508c-.073-.329-.373-.536-.658-.672a5.66 5.66 0 00-1.224-.38c-.468-.106-.944-.187-1.406-.32-.008-.159-.034-.319-.052-.477.22.1.456.163.696.184.245.024.49-.015.715-.115.255-.126.49-.289.696-.484l.436-.367c.21-.151.4-.329.565-.528a1.185 1.185 0 00-.002-1.34c.4.31.79.671 1.245.895a1.05 1.05 0 001.106-.055c.26-.188.51-.391.747-.61.1-.088.2-.17.301-.254l.151-.127c.045-.037.09-.074.13-.114.063-.055.08-.092.164-.092.69.017 1.33.35 2.016.384-.008.981.892 1.871 1.88 1.817.413-.027.63-.336.938-.555.244-.176.488-.012.71.111.272.156.552.293.832.43.625.304 1.283.601 1.797 1.08a.856.856 0 00-.338.653.955.955 0 00.286.616 1.863 1.863 0 001.471.554c.29-.033.562-.161.772-.365l2.242 2.055c-.197.285-.464.487-.694.738-.182.198-.245.412-.112.66.117.195.265.37.438.52.176.165.384.295.61.38.31.114.63.106.95.173.424.09.632.45.759.838l-.018.01z" fill="#8F2328"/><path d="M46.066 34.839a.052.052 0 00-.008-.008 1.225 1.225 0 00.163-.124c.597-.531.601-1.523.014-1.995l-.012-.01c-.804-.315-1.882-.177-2.498-.545a.912.912 0 01-.337-.336 1.362 1.362 0 01-.143-.757c.011-.177.036-.353.075-.526.285.14.549.325.842.397.27.078.593-.065.851-.265l.026-.022.02-.014a.195.195 0 00.021-.02l.04-.034.07-.068c.162-.164.273-.337.285-.454-.163-.66-.378-1.097-.852-1.433a3.958 3.958 0 00-.952-.462l-.028-.006c.352-.656.13-1.322-.58-1.86l-.058-.041-.047-.034a3.856 3.856 0 00-.428-.255l-.012.01a4.147 4.147 0 01-.19.149l-.086.059c-.605.412-1.054.403-1.47.147l-.014-.008c-.319-.201-.615-.547-.944-.957-.178-.224-.365-.465-.57-.713l.07-.072c.024-.024.048-.047.071-.072.104-.101.202-.2.298-.298l.5-.504.161-.162c-.349-.426-.706-.807-1.094-1.069l-.066-.042c-.578-.363-1.252-.464-2.117-.067l-.019.01a12.968 12.968 0 01-.033-.173l.488-1.01-.181-.125c-.03-.021-.058-.04-.087-.058l-.142-.097a15.219 15.219 0 00-.306-.197c-1.02-.642-1.384-.662-1.59-.498a.614.614 0 00-.12.137c-.131.19-.225.436-.576.484l-.047.005c-.3.023-.774-.093-1.574-.48a20.29 20.29 0 01-1.598-.883l-.026-.016c.46-.818.955-1.095.452-1.448l-.04-.023a3.947 3.947 0 00-.625-.294c-.882-.42-1.012-.508-1.27-.329l-.025.017c-.098.07-.216.174-.399.314l-.076.058c-.075.053-.157.111-.25.167l-.016.011c-.177-.504-.604-.995-1.11-1.334-.049-.031-.096-.062-.146-.092l-.061-.034c-.607-.343-1.288-.457-1.776-.128a1.198 1.198 0 00-.11.087l-.01.009a1.305 1.305 0 00-.154.166c-.154.21-.26.453-.31.708l.543.465a7.624 7.624 0 00-1.334-.144l-.037-.002-.04-.008c-.403-.024-.76-.066-1.054-.236-.404-.237-.691-.716-.82-1.725a.408.408 0 00-.19-.214l-.043-.026c-.534-.307-1.803-.5-2.373 0a.834.834 0 00-.256.418 2.366 2.366 0 00-.39-.3l-.064-.036c-.78-.438-1.763-.388-2.376.079-.03.02-.059.045-.086.068l-.016.015a1.447 1.447 0 00-.482.996c.543.54 1.43.824 2.15 1.351-.48.146-.78.378-1.092.558-.073.042-.147.08-.224.116l-.015.007c-.114.051-.233.09-.356.112a1.438 1.438 0 01-.413-.18l-.027-.018c-.649-.417-1.263-1.307-1.907-1.76l-.03-.02c-.441-.304-.897-.388-1.396.03l-.05.044c-.022.02-.043.039-.065.062-.306.244-.583.488-.848.738a7.81 7.81 0 00-1.915 2.928l4.492.888-.341 1.347-.2.794a8.746 8.746 0 01-.72-.237l-.035-.007c-.976-.36-2.034-.868-2.904-1.145l-.011.01-.041.032a1.12 1.12 0 00-.16.172c-.632.819-.784 2.898.73 3.047.03.015.045.061.117.162-1.017.72-.228 2.36.666 2.923 1.044.31 1.863-.335 2.953-.558.676-.391 1.242.253 2.006 1.281.439.59.943 1.306 1.57 2.025-.6.16-1.177.082-1.692.039l-.032-.007c-.498-.04-.94-.04-1.29.256l-.034.027a1.23 1.23 0 00-.14.158 2.146 2.146 0 00-.314.612c2.483 2.25 1.326 2.366 5.125 1.352l.113.216c-.16.565-1.396 1.33-1.11 1.837 1.442.826 2.619 1.86 3.313 1.35a.071.071 0 01.013-.012l.02-.015c.213-.174.378-.509.488-1.05a8.72 8.72 0 00.142-1.29l3.075 1.413 2.508 1.153c-.565.768-1.113 1.511-1.756 2.39 1.574.426 3.659 1.97 4.463-.29.543 1.235.28 1.992 2.107 2.004.561.052 1.455.099 1.949-.293a.913.913 0 00.34-.589c-.227-.492-.585-.924-.92-1.361a6.532 6.532 0 01-.535-.78l1.419-.087c.665-.042 1.315-.084 2.012-.125l1.252 3.087c1.062-.074 2.098-.247 2.941-1.006.6.01 1.047-.236 1.454-.563l.109-.087a1.07 1.07 0 00.096-.089c.34-.298.666-.632 1.048-.881l.013-.01c-.209-.16-.327-.267-.447-.348l-.027-.017a5.69 5.69 0 00-.156-.105c-.487-.318-1.1-.616-1.643-.947l-.089-.055c-.08-.05-.157-.1-.232-.154l-.085-.06a3.424 3.424 0 01-.52-.44.717.717 0 01.213-.377c.08-.088.164-.171.253-.25.264-.241.576-.483.746-.658.888.676 1.419 1.703 2.48 2.027.275-.08.532-.212.756-.391l.012-.01.032-.028c.021-.018.042-.035.062-.054l.057-.051c.037-.034.073-.07.106-.107.497-.523.72-1.264.125-1.87zm-7.085-3.744a.05.05 0 01-.01.01l-.012.01a.082.082 0 00-.011.01l-.011.008-.012.01-.01.01-.012.009-.01.009-.012.01-.012.009-.01.01-.012.008-.01.01-.012.01-.012.01-.01.008-.012.01a.082.082 0 00-.01.01l-.012.01-.012.008a.098.098 0 01-.01.01l-.012.01-.011.009-.01.009-.012.01-.011.009-.007.005-.011.01-.01.008-.012.01a.076.076 0 00-.01.01l-.012.008-.012.01a.083.083 0 01-.01.01l-.012.01-.01.008-.012.01-.012.01a.076.076 0 01-.01.01l-.012.008-.01.01-.012.01-.012.009-.01.01-.012.008a.07.07 0 00-.01.01l-.012.01-.012.01-.01.008-.012.01a.07.07 0 00-.01.01l-.012.009-.011.008a.083.083 0 01-.01.01l-.013.01-.01.009-.012.01-.011.009a.082.082 0 01-.01.01l-.013.01-.01.008-.011.01-.012.01-.01.01-.012.008a.082.082 0 00-.01.01l-.012.01-.012.009-.01.008-.012.01a.082.082 0 00-.01.01l-.012.01-.012.008a.07.07 0 01-.01.01l-.012.01a.05.05 0 00-.01.01l-.012.008-.012.01a.07.07 0 01-.01.01l-.012.009-.01.009-.012.01-.012.009-.01.01-.012.008a.076.076 0 00-.01.01l-.012.01-.012.01-.01.008-.011.01-.012.01c-.241.206-.448.47-.677.683-.288.366-.248.646-.044.883h.005l.009.01a1.432 1.432 0 00-.476-.04 5.33 5.33 0 00-1.092.597c-.02.014-.037.03-.055.045l-.01.02-.02.015-.01.01a.076.076 0 00-.011.01l-.012.008-.011.01a.083.083 0 01-.011.01l-.012.01-.01.008-.012.01-.011.01-.011.01-.011.008-.011.01-.012.01-.011.009-.01.008-.012.01-.007.005v.005l-.012.01-.012.009a.098.098 0 01-.01.01l-.012.01a.076.076 0 00-.01.009l-.012.008-.012.01-.01.01-.012.01-.012.01-.01.008-.012.01-.01.01-.012.008-.011.01a.07.07 0 01-.011.01l-.012.009a.11.11 0 00-.01.01l-.012.008a.07.07 0 00-.01.01l-.012.01-.011.008a.109.109 0 01-.01.01l-.013.01a.07.07 0 00-.01.01l-.012.008-.023.017-.011.01-.012.01-.01.008-.012.01-.011.01-.011.01-.012.009-.011.008a.07.07 0 01-.01.01l-.012.01a.047.047 0 00-.01.01l-.012.008-.012.01a.076.076 0 01-.01.01l-.012.009-.01.009-.012.01-.012.009-.01.01-.012.008-.01.01-.012.01-.012.01-.01.008-.012.01a.076.076 0 00-.01.01l-.012.01-.012.008a.047.047 0 01-.01.01l-.012.01a.045.045 0 00-.01.009l-.012.009-.011.01a.076.076 0 01-.011.009l-.012.01-.01.008-.012.01-.011.01-.01.01-.012.008-.011.01-.012.01-.011.009-.01.009c-.25.209-.4.452-.401.761l-.002.01-1.624-.169a.063.063 0 00.003-.013c.114-.825-.327-1.633-.969-2.058a1.653 1.653 0 00-1.31-.27 5.075 5.075 0 00-.54.308l-.063.042-.046.033-.044.032a2.803 2.803 0 00-.122.095l-.038.03-.01.01-.012.01-.011.01a.09.09 0 01-.011.01l-.011.008-.011.01-.012.01a.076.076 0 00-.01.01l-.012.009-.011.008-.011.01-.012.01-.01.008-.012.01-.011.01-.01.01-.012.009-.012.009a.076.076 0 01-.01.01l-.012.009-.01.009-.012.01-.012.009a.083.083 0 01-.01.01l-.012.01-.01.008-.012.01-.012.01-.008.005-.011.01a.082.082 0 00-.01.01l-.012.01-.012.008a.047.047 0 01-.01.01l-.012.01a.076.076 0 00-.01.01l-.012.008-.012.01-.01.01-.012.009a.047.047 0 00-.01.01l-.012.008-.012.01-.01.01-.012.008-.01.01-.012.01-.012.01-.01.009-.011.009-.012.01a.076.076 0 01-.01.009l-.012.009a.109.109 0 01-.01.01l-.012.009-.011.01-.012.01-.011.008-.01.01-.012.01a.047.047 0 00-.011.01l-.011.008-.008.007-.01.01-.002.006c-.241.027-.648-.145-1.674-.62-.59-.272-1.382-.643-2.464-1.136.595-.892 1.037-1.598.386-2.047a9.936 9.936 0 00-.61-.388c-1.108-.635-1.516-.445-1.802-.196l-.012.01a.076.076 0 01-.01.01l-.012.008-.01.01-.012.01-.012.009-.01.009-.012.01a.082.082 0 00-.01.009l-.012.01-.011.01-.01.008-.012.01a.047.047 0 00-.011.01l-.012.009-.011.009a.082.082 0 01-.01.01l-.012.009a.047.047 0 00-.011.01l-.011.008-.012.01a.082.082 0 01-.01.01l-.012.008-.01.01-.012.01a.076.076 0 00-.01.01l-.013.01-.011.008a.083.083 0 00-.01.01l-.015.008a.482.482 0 01-.196.063c-.336.03-.898-.273-2.087-1.658-.242-.282-.51-.609-.808-.987l-.182-.232.02-.018c.488-.463 1.29-.265 1.593-.715 1.17-1.764-1.694-1.87-3.047-2.276a.058.058 0 00.003-.013l-.05-.463.012.002a2.09 2.09 0 001.08.174c.27-.067.522-.19.74-.361l.012-.01.012-.009a.124.124 0 01.01-.01l.012-.009.01-.01.012-.008.012-.01.01-.01.012-.01a.14.14 0 00.01-.01l.012-.008a.082.082 0 00.01-.01l.012-.01.012-.008a.098.098 0 01.01-.01l.012-.01.011-.009a.098.098 0 00.011-.01l.012-.008.01-.01.012-.01.011-.008a.109.109 0 01.01-.01l.013-.01.01-.01.012-.009.011-.008.01-.01.012-.01a.123.123 0 00.011-.01l.011-.008.012-.01.01-.01.012-.01.01-.008.012-.01.012-.01a.109.109 0 00.01-.009l.012-.009a.123.123 0 01.01-.01l.005-.004.011-.01.01-.008.012-.01.011-.01.012-.01.011-.008a.109.109 0 01.01-.01l.012-.01a.098.098 0 00.01-.01l.012-.008.012-.01.01-.01.012-.009.01-.009.012-.01.012-.009a.098.098 0 00.01-.01l.012-.008.01-.01.012-.01.012-.01.01-.008.012-.01.01-.01.012-.009.012-.008a.109.109 0 01.01-.01l.012-.01a.047.047 0 00.01-.01l.012-.008.011-.01.011-.01.012-.01.01-.008.012-.01.011-.01a.109.109 0 00.011-.009l.011-.009.012-.01a.09.09 0 01.01-.009l.012-.01.01-.008.012-.01.012-.01a.11.11 0 00.01-.01L20.3 23a.098.098 0 01.011-.01l.012-.01.011-.01.01-.008.017-.014a1.337 1.337 0 00.111-.101c.406-.41.456-.978.127-1.49l.034.026c1.135.873 1.639 1.434 2.586.605l.01-.01.012-.01a.09.09 0 00.011-.009l.011-.009.012-.01.01-.009.012-.01.012-.01.01-.008.012-.01.01-.01.012-.008.012-.01a.082.082 0 01.01-.01l.012-.009.01-.009.012-.01.012-.009a.082.082 0 01.01-.01l.012-.008a.098.098 0 01.01-.01l.012-.01.011-.01a.082.082 0 01.011-.01l.012-.008.01-.01.012-.01.01-.008.012-.01.011-.01.011-.009.012-.01.011-.008a.07.07 0 01.01-.01l.012-.01a.124.124 0 00.01-.01l.012-.008.012-.01a.07.07 0 01.01-.01l.012-.009.01-.009.012-.01.012-.009a.076.076 0 01.01-.01l.012-.008.01-.01.012-.01.012-.01.01-.008.012-.01.01-.01.012-.009.011-.008a.076.076 0 01.011-.01l.012-.01a.083.083 0 00.01-.01l.012-.008.011-.01a.076.076 0 01.011-.01l.012-.01.01-.008.012-.01.011-.01.01-.01.012-.008a.07.07 0 00.01-.01l.013-.01.011-.009.01-.008.012-.01a.082.082 0 00.01-.01l.012-.01.012-.008a.082.082 0 01.01-.01l.012-.01a.098.098 0 00.01-.01l.012-.008.012-.01a.082.082 0 01.01-.01l.012-.009.01-.009.012-.01.012-.009a1.387 1.387 0 00.078-.066c.023-.02.054-.046.08-.071l.072-.068c.666-.007 1.474.353 2.08.383-.01 1.091 1.061 1.988 2.08 1.792a1.09 1.09 0 00.367-.218l.01-.009.012-.01.01-.01.013-.009.011-.008a.047.047 0 01.01-.01l.012-.01.01-.01.012-.008.012-.01a.09.09 0 01.01-.01l.012-.01.01-.008.012-.01.012-.01a.098.098 0 01.01-.01l.012-.008a.098.098 0 01.01-.01l.012-.009a.083.083 0 00.01-.01l.012-.01.012-.008.01-.01.012-.01.01-.008.012-.01.012-.01.01-.01.012-.008.011-.01a.076.076 0 01.011-.01l.012-.009.01-.009c.16-.1.34-.124.604.053.897.534 2.013.9 2.734 1.57-1.194 1.021 1.075 2.444 2.091 1.542l.012-.01.012-.009a.082.082 0 01.01-.01l.012-.008a.082.082 0 00.01-.01l.012-.01.012-.01.01-.008.01-.009 2.243 2.055c-.59.847-1.519.89-.254 2.023 1.046.786 1.745-.065 2.194 1.256l.009.029-.012.006z" fill="#E71E2A"/><path d="M36.794 29.797c-1.266-1.127-.335-1.176.254-2.023l-2.242-2.055-.01.01-.01.008-.012.01-.012.01a.082.082 0 01-.01.009l-.012.009a.082.082 0 00-.01.01l-.012.009-.012.01c-1.016.902-3.285-.521-2.09-1.543-.723-.67-1.84-1.03-2.73-1.569-.265-.177-.444-.153-.605-.052l-.01.008-.012.01a.098.098 0 00-.01.01l-.012.01-.011.008-.011.01-.012.01-.011.009-.01.009-.012.01-.011.01-.011.008-.012.01a.09.09 0 01-.01.01l-.012.009a.122.122 0 00-.011.01l-.011.008a.09.09 0 00-.011.01l-.012.01-.011.01-.01.008-.012.01a.09.09 0 00-.01.01l-.012.009-.012.008-.01.01-.012.01a.047.047 0 00-.01.01l-.012.008-.012.01-.01.01-.012.01-.01.008c-.108.096-.233.17-.368.218-1.013.197-2.09-.7-2.08-1.792-.606-.03-1.415-.388-2.08-.383l-.07.068a1.909 1.909 0 01-.082.072l-.071.06a.019.019 0 00-.007.005l-.012.01-.011.01-.01.008-.012.01a.076.076 0 00-.011.01l-.012.01-.011.008a.083.083 0 01-.01.01l-.012.01a.076.076 0 00-.01.01l-.012.008-.012.01a.077.077 0 01-.01.01l-.012.009-.01.008-.012.01-.012.01a.076.076 0 01-.01.01l-.012.008-.01.01-.012.01-.012.009-.01.009-.012.01a.076.076 0 00-.01.01l-.012.009-.011.008a.09.09 0 01-.011.01l-.012.01a.07.07 0 00-.01.01l-.012.008-.011.01-.011.01-.012.01-.01.008-.012.01-.011.01-.01.009-.012.009a.07.07 0 00-.01.01l-.013.009-.011.01-.01.008-.012.01a.082.082 0 00-.01.01l-.012.01-.012.008a.123.123 0 01-.01.01l-.012.01a.082.082 0 00-.01.01l-.012.008-.012.01-.01.009-.012.01-.012.01-.01.008-.012.01-.01.01-.012.008a.082.082 0 00-.01.01l-.012.01-.012.009a.109.109 0 00-.01.01l-.012.008a.076.076 0 00-.01.01l-.012.01-.012.01-.01.008-.012.01a.076.076 0 00-.01.01l-.012.01-.011.008-.01.01-.013.01-.01.008-.012.01-.011.01-.01.009-.012.01-.012.008a.07.07 0 01-.01.01l-.012.01-.01.01c-.947.828-1.451.268-2.587-.606l-.033-.027c.33.518.274 1.085-.127 1.49a.56.56 0 01-.051.05l-.06.052-.017.014-.01.009-.012.01-.012.009a.105.105 0 00-.02.016l-.01.008a.109.109 0 01-.011.01l-.012.01-.011.01-.01.008-.012.01a.076.076 0 00-.011.01l-.012.009-.011.009a.11.11 0 01-.01.01l-.012.009-.012.01-.01.008-.012.01-.01.01-.012.01-.012.008a.047.047 0 01-.01.01l-.012.01a.11.11 0 00-.01.01l-.012.008-.012.01-.01.01-.012.009-.01.008-.012.01-.012.01-.01.01-.012.008a.123.123 0 01-.01.01l-.012.01-.012.01-.01.008-.011.01-.011.01-.012.009-.011.008a.109.109 0 01-.01.01l-.012.01a.098.098 0 00-.011.01l-.011.008-.012.01-.01.01-.012.01-.01.008-.018.015-.011.01a.098.098 0 00-.011.01l-.012.008a.098.098 0 01-.01.01l-.012.01-.011.009-.01.009-.012.01-.011.01-.012.009-.011.008a.122.122 0 01-.01.01l-.012.01-.01.01-.012.008-.012.01-.01.01-.012.01a.123.123 0 00-.01.009l-.012.008-.012.01-.01.01-.012.009a.098.098 0 01-.01.01l-.012.009-.012.01a.109.109 0 00-.01.01l-.012.008-.012.01a.083.083 0 01-.01.01l-.012.008a.098.098 0 01-.01.01l-.012.01-.01.009-.012.01-.011.008-.011.01-.012.01a.098.098 0 00-.01.01l-.012.008-.011.01a1.96 1.96 0 01-.74.36c-.37.04-.743-.02-1.081-.173l-.012-.002.05.463-.023-.005-.05-.462-.024-.237a88.387 88.387 0 00-.13-1.193c.832.326 1.42.822 2.274.722.267-.067.517-.188.735-.356a1.405 1.405 0 00.11-.101c.405-.4.468-.957.163-1.468-.207-.346-.582-.674-1.134-.918.2-.041.397-.1.588-.174.398-.147.74-.294 1.084-.158 1.457 1.032 1.977 1.863 2.98 1.066.024-.018.048-.038.072-.06.024-.023.055-.046.081-.071l.073-.068c.264-.262.509-.544.73-.843.306-.071.662-.023 1.025.059.476.107.965.27 1.364.29-.009 1.092 1.062 1.989 2.08 1.793.566-.185.713-.904 1.344-.481.243.145.501.278.764.406.708.35 1.444.676 1.97 1.165-1.233 1.055 1.218 2.533 2.182 1.451l1.027.94 1.225 1.121c-.59.848-1.52.897-.254 2.024.997.748 1.675.006 2.128 1.083.101.257.178.524.227.796a1.168 1.168 0 00-1.166.26c-.45-1.322-1.144-.472-2.19-1.256z" fill="#B41D23"/><path d="M24.994 30.608a7.64 7.64 0 00-.622-.378c-1.107-.635-1.514-.445-1.8-.197l-.012.01a.09.09 0 01-.01.01l-.012.008-.01.01-.012.01-.012.01-.01.008-.012.01a.09.09 0 00-.01.01l-.012.01-.012.009-.01.009-.012.01a.047.047 0 00-.01.009l-.012.01-.012.008a.098.098 0 01-.01.01l-.012.01a.047.047 0 00-.01.01l-.012.008-.012.01a.098.098 0 01-.01.01l-.012.008-.01.01-.012.01a.09.09 0 00-.01.01l-.012.009-.012.008a.082.082 0 00-.01.01.48.48 0 01-.206.068c-.34-.008-.875-.373-2.028-1.671l-.06.012-3.242.639c.439.589.943 1.306 1.57 2.025-.614.165-1.206.078-1.726.036-.497-.04-.939-.04-1.29.256a.498.498 0 00-.033.028 1.822 1.822 0 00-.462.774c2.494 2.245 1.335 2.36 5.132 1.347l.114.216c-.16.566-1.397 1.33-1.11 1.837 1.442.826 2.618 1.86 3.313 1.35l.013-.01.02-.017c.213-.175.378-.509.488-1.05.08-.426.126-.857.141-1.289l3.076 1.413 1.096-2.465.002-.013c-.588-.271-1.378-.642-2.456-1.135.603-.897 1.04-1.591.394-2.05zM43.925 38.35c-.809-.563-2.051-1.056-2.7-1.744a.719.719 0 01.212-.377c.08-.088.164-.172.253-.25l-1.959-1.445c-.182.199-.383.368-.519.501a4.46 4.46 0 01-.226-.182c-.231-.197-.442-.412-.652-.61-.352-.335-.7-.628-1.128-.73a1.425 1.425 0 00-.45-.035c-.431.195-.821.378-1.1.607-.02.014-.038.03-.055.045l-.011.01-.019.016c-.427.394-.517.905.07 1.745l-1.42-.145 1.284 2.645 2.011-.12 1.245 3.088c1.063-.074 2.1-.247 2.942-1.006.6.01 1.047-.235 1.454-.563l.109-.086.095-.083c.34-.299.666-.634 1.048-.883l.012-.008c-.236-.194-.357-.306-.496-.39zM37.798 28.914c.996.75 1.675.007 2.127 1.083l3.32 1.066c.012-.177.037-.353.075-.526.285.14.55.325.843.396.27.078.592-.065.85-.265l.026-.02.02-.016a.187.187 0 00.022-.02l.04-.034.069-.069c.162-.163.273-.336.286-.453-.248-1.007-.618-1.494-1.841-1.893.427-.8.005-1.612-1.114-2.19l-.012.01a4.258 4.258 0 01-.19.149l-.086.06c-1.079.733-1.668.13-2.428-.82l-2.979.398 1.225 1.122c-.59.846-1.52.895-.253 2.022zM31.045 17.7c-.884-.42-1.014-.507-1.272-.329l-.025.017c-.097.07-.216.173-.399.315l-.076.057a7.219 7.219 0 01-.267.183c-.403-1.162-2.126-2.239-3.093-1.586a1.169 1.169 0 00-.11.087l-.01.009-.01.008a1.626 1.626 0 00-.455.866l.544.465a7.898 7.898 0 00-1.373-.15l-.042-.002 1.639 2.565c.476.108.964.271 1.364.29-.009 1.092 1.061 1.989 2.08 1.793.566-.184.713-.902 1.344-.48.243.145.501.277.764.406l1.23-1.847a20.6 20.6 0 01-1.624-.898c.59-1.045 1.23-1.203-.21-1.769zM17.442 23.768a88.484 88.484 0 00-.13-1.193c.832.326 1.42.822 2.275.722.267-.067.517-.188.735-.356.02-.016.04-.034.06-.052a.632.632 0 00.05-.05c.404-.399.468-.956.162-1.467-.206-.346-.581-.673-1.134-.917.2-.042.397-.1.588-.175l-2.677-1.699a2.537 2.537 0 01-.24.123 1.595 1.595 0 01-.357.112c-1.287-.312-2.384-3.126-3.774-1.95l-.05.043-.065.062c-1.283 1.032-2.122 2.032-2.76 3.667l4.491.889-.34 1.347 3.166.894z" fill="#EE7A2B"/></svg>