<!-- by TradingView --><svg width="56" height="56" viewBox="0 0 56 56" xmlns="http://www.w3.org/2000/svg"><path fill="#F0F3FA" d="M0 0h56v56H0z"/><path d="M4 30.6c.5-.03.7-.1.7-.6v-5.08c0-.51-.2-.54-.7-.58V24h3.83l.3 1.35H7.7c-.2-.96-.5-.94-1.37-.94h-.4c-.23 0-.28.05-.28.34v2.26s.05.07.23.07c.52.01.71-.14.82-.81H7v1.94h-.3c-.1-.68-.28-.8-.82-.8-.14 0-.22.06-.22.06v2.52c0 .52.05.58.68.62V31H4v-.4Zm8.07-3.48c.08.02.13-.07.13-.07.33-.37.5-.47.65-.47.3 0 .42.19.42.49 0 .15-.45.36-.53.3-.17-.11-.26-.14-.38-.14 0 0-.36.32-.36.85v2.16c0 .4.05.42.39.46v.3h-1.74v-.3c.31-.03.35-.07.35-.46v-2.72c0-.57-.23-.56-.35-.58v-.2l1.29-.03s.06.33.13.41Zm20 0c.08.02.13-.07.13-.07.33-.37.5-.47.65-.47.3 0 .42.19.42.49 0 .15-.44.36-.52.3-.17-.11-.27-.14-.38-.14 0 0-.37.32-.37.85v2.16c0 .4.05.42.4.46v.3h-1.77v-.3c.32-.03.37-.07.37-.46v-2.72c0-.57-.13-.56-.24-.58v-.2l1.18-.03s.06.33.13.41Zm-8.45 0c.08.02.13-.07.13-.07.33-.37.5-.47.65-.47.3 0 .42.19.42.49 0 .15-.44.36-.52.3-.17-.11-.27-.14-.38-.14 0 0-.37.32-.37.85v2.15c0 .4.06.42.4.46V31H22.2v-.31c.32-.03.37-.06.37-.46v-2.7c0-.58-.25-.57-.36-.6v-.2l1.29-.02s.05.33.12.41Zm-2.06 2.53c-.1.32-.35.85-.77.85-.6 0-.95-.46-.95-1.26v-.18H22v-.02c-.02-1.84-.4-2.53-1.42-2.55-.96 0-1.7.96-1.71 2.26 0 .77.21 1.42.62 1.82.28.28.62.42 1 .42.89 0 1.28-.83 1.43-1.33v-.01h-.35Zm-.5-1.2c0 .14-.03.22-.07.26-.03.03-.08.04-.15.04h-.99c.01-.96.14-1.56.4-1.8.1-.09.2-.13.33-.13.33 0 .49.55.48 1.63Zm26.65-1.33c.08.02.13-.07.13-.07.33-.37.5-.47.65-.47.3 0 .42.19.42.49 0 .15-.45.36-.53.3-.17-.11-.26-.14-.38-.14 0 0-.37.32-.37.85v2.16c0 .4.06.42.4.46v.3h-1.75v-.3c.32-.03.37-.07.37-.46v-2.72c0-.57-.25-.56-.36-.58v-.2l1.3-.03s.05.33.12.41Zm-2.04 2.53c-.1.32-.35.85-.77.85-.6 0-.95-.46-.95-1.26v-.18h2.16v-.02c-.02-1.84-.4-2.53-1.42-2.55-.96 0-1.7.96-1.71 2.26-.01.77.21 1.42.62 1.82.28.28.62.42 1 .42.89 0 1.28-.83 1.43-1.33v-.01h-.35Zm-.5-1.2c0 .14-.03.22-.07.26-.03.03-.08.04-.15.04h-1c.02-.96.15-1.56.4-1.8.1-.09.2-.13.34-.13.33 0 .49.55.47 1.63Zm-19.12 2.3.2-.04c.37-.1.37-.05.37-1.17v-4.11c0-1.1 0-1.07-.38-1.15l-.2-.03V24h2.43s1.65-.13 1.65 1.33c0 1.05-.62 1.44-1.05 1.6v.02c.84.15 1.46.72 1.45 1.9-.03 1.5-1.06 2.15-2.38 2.15h-2.1v-.26Zm1.48-3.9h.3c.61 0 1.16-.2 1.16-1.26 0-.76-.42-1.23-1.05-1.23-.13 0-.27.02-.4.07v2.43Zm-.05 3.66c.2.1.56.06.78.06.84 0 1.07-1.13 1.07-1.61 0-1.22-.47-1.73-1.44-1.73h-.35l-.06 3.28Zm9.28-1.85c0 1.6-.92 2.34-1.74 2.34-1.1 0-1.75-1.11-1.75-2.16 0-1.55.99-2.38 1.78-2.38 1 0 1.7 1.06 1.7 2.2Zm-1.7 1.93c.25 0 .57-.25.57-1.67 0-1.3-.27-2.05-.72-2.05-.3 0-.6.52-.6 1.57 0 1.24.3 2.15.75 2.15Zm3.37-3.78v2.68c0 .4.01.81.29.81.2 0 .3-.34.3-.34l.08.2c-.12.52-.34.84-.8.84-.76 0-.93-.6-.93-1.5V26.8h-.42v-.23c.57-.21.95-.75 1.1-1.5h.38v1.4h.48v.33h-.48Zm12.05 4.17c-.31-.03-.8-.18-.89-.26l-.2.2h-.2l-.07-1.37h.33c0 .32.01.26.04.38.1.36.63.73 1.04.73.7 0 .82-.6.21-1.11l-.89-.67c-.87-.67-.7-2.44.69-2.44.25 0 .61.05.95.19l.07-.1.31.06-.05 1.34-.26-.02c-.04-.17.02-.25-.08-.55-.14-.42-.43-.6-.73-.6-.44 0-.56.31-.56.52 0 .58.8 1.1.7 1.02-.32-.23.45.37.66.56.99.93.22 2.25-1.07 2.12ZM10 30.24v-2.32c0-.73-.25-1.19-1.2-1.27a2.3 2.3 0 0 0-.19-.01c-.89 0-1.16.36-1.16.77 0 .19.12.47.46.47.24 0 .43-.23.43-.38 0-.3-.18-.23-.23-.43.03-.15.12-.19.25-.19.45 0 .64.2.64.9v.33c-.68.26-2.13.56-2.13 1.81 0 .75.59 1.08 1.14 1.08.07 0 .49 0 .83-.4.09.24.22.33.35.37.12.04.81.03 1.1.03v-.3c-.32-.07-.29-.15-.29-.46Zm-1-.53c0 .56-.22.82-.5.82-.2 0-.5-.16-.5-.82 0-.67.55-1.13 1-1.23v1.23Zm9.8.97c-.25-.03-.3-.12-.3-.53v-2.18c0-.45-.02-.65-.09-.85-.12-.37-.47-.58-.87-.58-.37 0-.7.2-.95.56-.15-.39-.39-.57-.79-.57-.38 0-.64.16-.88.52 0-.16-.03-.47-.03-.47l-1.06.08-.01.25h.05c.07 0 .1.02.1.04.07.07.04.29.03.62v2.58c0 .41-.01.5-.24.53h-.04V31h1.54v-.32h-.05c-.24-.03-.21-.12-.21-.53v-2.02c0-.3-.02-.58.03-.71.07-.16.2-.27.36-.27.13 0 .24.08.3.2.07.14.09.4.09.76v2.02c0 .42-.01.53-.24.55h-.04V31h1.6v-.31h-.05c-.25-.04-.27-.14-.27-.56v-2c0-.3.02-.57.07-.71.07-.16.14-.26.29-.26.13 0 .24.07.3.2.07.13.08.39.08.75v2.04c0 .41-.01.5-.24.53h-.05V31h1.61v-.32h-.04Zm23.74-.45v-2.3c0-.56-.05-.8-.18-1.01-.15-.24-.51-.37-.83-.37-.42 0-.74.18-1.04.6V24l-1.32.06v.2c.12.03.36.02.36.6v5.37c0 .4-.14.46-.25.46V31h1.45v-.31c-.08 0-.24-.06-.24-.46v-2.02c0-.7.18-1.14.56-1.14.17 0 .32.2.4.36.07.17.09.35.09.84v1.96c0 .4-.06.46-.18.46V31h1.46v-.31c-.23 0-.28-.06-.28-.46Z"/></svg>