<!-- by TradingView --><svg width="56" height="56" viewBox="0 0 56 56" xmlns="http://www.w3.org/2000/svg"><path fill="#F0F3FA" d="M0 0h56v56H0z"/><path d="M45.44 30.5a2.5 2.5 0 0 1-2.3-1.5h-4.1c.4 3.15 3.4 5 6.46 5 3.32 0 6.5-2.52 6.5-6s-3.18-6-6.5-6c-3.22 0-6.5 1.94-6.5 6h3.94a2.5 2.5 0 1 1 2.5 2.5ZM5 25v-3h10v4H9v1h6v4H9v3H5v-9Zm14.27 9 1.24-5H16.6l-1.77 5h4.45Zm3.89 0-1.2-5h3.98l1.85 5h-4.63Zm.37-12 2.07 6h-3.86l-.43-1.94-.58 1.94h-3.82l2.17-6h4.45ZM32 29l2.84 4.99L40 34l-3.3-5H32Zm-4 0v5h4v-5h-4Zm10.12-1c.21-.4.28-1.22.28-1.67 0-.55-.08-1.1-.25-1.6a3.83 3.83 0 0 0-2.3-2.36 6.13 6.13 0 0 0-2.2-.37H28v6h4v-2.47h.1l1.18.01c.28.02.53.05.73.12.2.07.36.18.46.35.1.16.16.38.16.68 0 .52-.29 1.21-.8 1.31h4.29Z" fill="#024666"/></svg>