<!-- by TradingView --><svg xmlns="http://www.w3.org/2000/svg" width="56" height="56" viewBox="0 0 56 56"><path fill="#F0F3FA" d="M0 0h56v56H0z"/><path d="m14 21.21 28-6.13V14H14v7.21ZM34.63 17.65v3.05l2.37-.45v7.1l3-.75v-7.08l2-.47v-3.08l-7.37 1.68ZM25.67 19.69l-2.87 10.8 3.32-.74.28-1.24 2.37-.55.25 1.14 3.35-.77-2.85-9.5-3.85.86Zm2.54 5.84-1.26.3.63-3.13.63 2.83ZM14 22.34V32.5l3-.7v-2.93l2.28-.5v-2.92l-2.28.5v-1.26l3.29-.73-.04-3.04L14 22.34ZM14 33.6V35h28v-7.66L14 33.6ZM14 42h28v-1H14v1Z"/><path fill-rule="evenodd" d="M14 40h1.83c.77 0 1.5-.26 1.44-1.18-.04-.63-.58-.91-.58-.91s.58-.51.28-1.25c-.2-.52-.76-.66-1.24-.66H14v4Zm1.25-2.77h.37c.1 0 .17.08.17.17 0 .1-.07.17-.17.17h-.37v-.34Zm.46 1.23h-.46v.38h.46c.11 0 .2-.08.2-.19 0-.1-.09-.19-.2-.19Z"/><path d="M18.72 40H20v-1.06h.18c.06 0 .5 1.06.5 1.06h1.46l-.78-1.36c.5-.4.73-1.12.43-1.75-.4-.84-1.08-.86-1.9-.89h-1.17v4Zm1.54-2.21H20v-.55h.24c.44 0 .57.55.02.55ZM23.57 40h1.37l.1-.47h.94l.1.47h1.36l-1.15-4h-1.55l-1.17 4Zm2.2-1.48h-.5l.25-1.14.25 1.14ZM28.85 40h1.25v-1.58L31.12 40h1.31v-4h-1.25v1.72L30.14 36h-1.29v4ZM34.22 40h.93c.35 0 .57 0 .73-.02 1.01-.08 1.7-.98 1.7-1.97 0-.98-.53-1.7-1.44-1.95a4.98 4.98 0 0 0-1.08-.06h-.84v4Zm1.66-2.7c.3.12.46.46.37.87-.07.36-.34.6-.66.6h-.12v-1.54h.12c.07 0 .2.03.3.07ZM40.11 36.04c-.43.1-.84.43-.96.8-.09.25-.07.67.04.87.13.25.38.44.89.68.27.13.48.19.48.28 0 .18-.33.15-.78-.07l-.26-.12-.56 1.03s.16.12.34.2c.42.2.83.29 1.2.29.84 0 1.47-.45 1.47-1.22 0-.54-.28-.88-1-1.18-.18-.08-.31-.13-.39-.18-.15-.12-.1-.2.13-.2.13 0 .3.08.45.14l.23.1c.05-.06.57-1.04.57-1.04.02 0-.52-.28-.88-.37a2.6 2.6 0 0 0-.97-.01Z"/></svg>