<!-- by TradingView --><svg xmlns="http://www.w3.org/2000/svg" width="56" height="56" viewBox="0 0 56 56"><path fill="#F0F3FA" d="M0 0h56v56H0z"/><path fill="#1D3164" d="M4 24h16v1H4z"/><path fill="#6FA5C3" d="M21 24h15v1H21z"/><path fill="#C8CDD1" d="M37 24h15v1H37z"/><path d="M6 27H4v4h.5v-2H6v-.5H4.5v-1H6V27Zm3.26.14c-.24-.1-.5-.15-.77-.14a1.92 1.92 0 0 0-1.85 1.23 2 2 0 0 0-.14.79 1.97 1.97 0 0 0 .56 1.41 1.93 1.93 0 0 0 1.4.57 2 2 0 0 0 1.9-1.21c.1-.25.15-.52.14-.78a1.98 1.98 0 0 0-.57-1.44c-.2-.19-.42-.34-.67-.43ZM7 29.02c0-.78.63-1.52 1.51-1.52.89 0 1.49.75 1.49 1.5 0 .78-.66 1.5-1.5 1.5-.76 0-1.5-.7-1.5-1.48ZM27 27a1.92 1.92 0 0 1 1.43.57 1.9 1.9 0 0 1 .57 1.44 1.94 1.94 0 0 1-.58 1.42 2 2 0 0 1-1.46.57 1.86 1.86 0 0 1-1.4-.57 1.9 1.9 0 0 1-.56-1.41 2 2 0 0 1 .57-1.45c.37-.38.85-.57 1.42-.57Zm.01.5c-.89 0-1.51.74-1.51 1.52s.74 1.48 1.5 1.48c.84 0 1.5-.72 1.5-1.5 0-.75-.6-1.5-1.49-1.5ZM11 27v4h.5v-1.74h.2c.13-.01.27.01.39.06.1.06.18.13.26.21.12.12.22.25.31.4l.2.3.16.3.11.15.04.05.17.27H14l-.2-.29a8.3 8.3 0 0 1-.33-.51 7.07 7.07 0 0 0-.5-.76 1.8 1.8 0 0 0-.37-.34.98.98 0 0 0 .65-.99c0-.15-.01-.3-.07-.44a1 1 0 0 0-.27-.37c-.23-.2-.54-.3-.93-.3H11Zm.5.5h.23c.2-.01.4 0 .59.05.2.07.43.23.43.56 0 .39-.19.47-.36.55l-.04.02c-.1.05-.3.07-.58.07h-.27V27.5Zm2-.5h3v.5h-1.25V31h-.5v-3.5H13.5V27Zm5.5 0h-2v4h2v-.51h-1.5v-1.24H19v-.52h-1.5v-1.22H19V27Zm3.24 4H21v-4h.96c.24-.01.48.04.7.13.16.08.3.2.39.37.1.16.14.35.14.54 0 .4-.2.67-.56.84.24.04.46.17.63.36.16.18.24.42.24.67 0 .2-.05.38-.14.54-.11.17-.26.3-.43.4-.22.1-.45.16-.7.15Zm-.27-3.5h-.47v1.22h.37c.36 0 .83-.19.82-.63 0-.38-.27-.59-.72-.59Zm.04 1.72h-.51v1.28h.54c.42 0 .96-.05.96-.64 0-.23-.2-.48-.41-.56a1.6 1.6 0 0 0-.58-.08ZM24.5 27H24v4h.5v-4Zm11.2 0h.5v4h-.5v-4Zm-5.53 2.06.39.26c.3.21.44.44.44.68 0 .14-.04.28-.14.36a.56.56 0 0 1-.4.14c-.35 0-.69-.18-.96-.57v.71c.27.24.63.36.97.36a1 1 0 0 0 1.03-1.06c0-.44-.22-.8-.65-1.09l-.39-.25c-.2-.12-.46-.3-.46-.56 0-.34.18-.55.54-.54.29 0 .6.14.86.4v-.63a1.45 1.45 0 0 0-.85-.27c-.28-.01-.55.09-.76.29a1.04 1.04 0 0 0-.3.75c0 .2.06.38.16.54.15.2.32.36.52.48Zm4.83.99v.61a2.6 2.6 0 0 1-1.33.34c-.37.01-.72-.08-1.04-.26A2.06 2.06 0 0 1 31.7 29a2.02 2.02 0 0 1 .57-1.43 1.95 1.95 0 0 1 1.4-.58c.45.02.8.07 1.33.32v.6a2.2 2.2 0 0 0-1.3-.42c-.83 0-1.5.66-1.5 1.51 0 .8.7 1.49 1.5 1.49.46 0 .91-.17 1.3-.45Zm12 .61v-.61c-.39.28-.84.45-1.3.45-.8 0-1.5-.68-1.5-1.49 0-.85.67-1.51 1.5-1.51.44 0 .88.13 1.3.42v-.6c-.52-.25-.88-.3-1.32-.32a1.86 1.86 0 0 0-1.4.58 1.91 1.91 0 0 0-.58 1.43 2.06 2.06 0 0 0 .93 1.73c.32.18.67.27 1.04.26.46 0 .92-.1 1.33-.34ZM37 27h2v.5h-1.5v1.2H39v.5h-1.5v1.3H39v.5h-2v-4Zm12.5 0h-2v4h2v-.5H48v-1.3h1.5v-.5H48v-1.2h1.5V27Zm-7 0h.5v4h-.44l-2.36-3.08V31h-.5v-4h.41l2.39 3.1V27Zm8.17 2.06.39.26c.3.21.44.44.44.68 0 .14-.04.28-.14.36a.56.56 0 0 1-.4.14c-.35 0-.69-.18-.96-.57v.71c.27.24.63.36.97.36A1 1 0 0 0 52 29.94c0-.44-.22-.8-.65-1.09l-.39-.25c-.2-.12-.46-.3-.46-.56 0-.34.18-.55.54-.54.29 0 .6.14.86.4v-.63a1.45 1.45 0 0 0-.85-.27c-.28-.01-.55.09-.76.29a1.04 1.04 0 0 0-.3.75c0 .2.06.38.16.54.15.2.32.36.52.48Z" fill="#1D3164"/></svg>