<!-- by TradingView --><svg width="56" height="56" viewBox="0 0 56 56" xmlns="http://www.w3.org/2000/svg"><path fill="#F0F3FA" d="M0 0h56v56H0z"/><path d="M44 28c0 4.82-2.13 9.15-5.5 12.08-1.94-.7-5.5-2.89-5.5-6.66 0-2.13.65-2.98 1-3.42-1.1.61-3 2.14-3 5.58 0 2.56 1.1 5.54 2.1 7.59a15.98 15.98 0 0 1-10.2 0c.27-12 5.84-14.17 9.16-14.17 3.33 0 4.94 1.02 4.94 1.97 0 .68-.3 1.2-.46 1.46l-.04.07c.63-.45 2-1.74 2-3.65 0-1.76-.82-3.17-1.24-3.9-.16-.26-.26-.44-.26-.52 0-.24.17-.47.24-.56l.76-1.06C36.83 20.86 33.26 17 28.27 17 23.3 17 18.02 20.22 16 22c1.5-.64 5.1-1.64 7.7-1.64 4.5 0 7.4 2.47 8.36 3.64-.4.42-1.15 1-1.5 1 .15-.54.06-1.11 0-1.4-.24.43-.96 1.4-1.9 1.4-1.18 0-1.66-1.32-1.66-1.88 0-.45.1-.9.22-1.12a16.24 16.24 0 0 0-15.2 6.77L12 28a16 16 0 1 1 32 0Z" fill="#EB1C24"/><path d="M21 35c0-6.28 2.86-10.62 4.3-12-.12 2.6 1.41 3.1 2.09 3.1.67 0 .84-.03 1.61-.17A13.25 13.25 0 0 0 21 35Z" fill="#EB1C24"/></svg>