<!-- by TradingView --><svg width="56" height="56" viewBox="0 0 56 56" xmlns="http://www.w3.org/2000/svg"><path fill="#F0F3FA" d="M0 0h56v56H0z"/><path d="M44.23 27.87a16.34 16.34 0 0 1-16.5 16.18 16.34 16.34 0 0 1-16.5-16.18 16.34 16.34 0 0 1 16.5-16.17 16.34 16.34 0 0 1 16.5 16.17Z" fill="#15204C"/><path d="M36 21v-5H23v7.95c-5.75 1.53-6.84 5.87-6.84 5.87a8.7 8.7 0 0 0 1 7.4 10.71 10.71 0 0 0 8.47 4.5 10.16 10.16 0 0 0 7.67-3.29l-3.34-2.6a7.47 7.47 0 0 1-4.93 1.58 5.28 5.28 0 0 1-4.15-2.95S19 31.2 23 28.35V35h4v-6.99c1.32.21 2.46.75 3.16 1.93l3.67-2.82a11.92 11.92 0 0 0-6.33-3.38V21H36Z" fill="#FFD500"/><path style="mix-blend-mode:multiply" opacity=".25" d="m23 16 2.5 2.5v7.39s-5.33 0-6.92 4.7a6.2 6.2 0 0 0 .62 5.66 8.21 8.21 0 0 0 4.7 3.19c2.15.45 4.39.08 6.28-1.04l3.15.05a10.16 10.16 0 0 1-7.68 3.29 10.71 10.71 0 0 1-8.47-4.5 8.7 8.7 0 0 1-1-7.4s1.1-4.36 6.85-5.86L23 16Z" fill="url(#ap5u2z0az)"/><path style="mix-blend-mode:multiply" opacity=".18" d="m23 16 2.5 2.5h9L36 16H23Z" fill="url(#bp5u2z0az)"/><path d="m36 16.1-1.5 2.4 1.5 2.4v-4.8Z" fill="#0F244F" style="mix-blend-mode:multiply" opacity=".25"/><path style="mix-blend-mode:multiply" opacity=".25" d="M27 28.02V35h-1.5v-9.11l1.5 2.13Z" fill="url(#cp5u2z0az)"/><path style="mix-blend-mode:multiply" opacity=".32" d="M25.5 25.89s3.16-.19 5.06 1.44l3.22-.21-3.67 2.83c-.54-1.08-1.9-1.85-3.11-1.95l-1.5-2.11Z" fill="url(#dp5u2z0az)"/><path style="mix-blend-mode:multiply" opacity=".3" d="M25.5 18.5v7.22l2-2.15V21H36l-1.54-2.5H25.5Z" fill="url(#ep5u2z0az)"/><path style="mix-blend-mode:multiply" opacity=".18" d="m22.67 28.7 2.65-2.81a7.6 7.6 0 0 0-5.6 2.6 6.76 6.76 0 0 0-1.3 6.3 7.78 7.78 0 0 0 5.47 4.68 9.6 9.6 0 0 0 6.3-1.04l-.2-2.55s-2.99 2.35-5.87 1.38a5.2 5.2 0 0 1-3.6-3.84s-.66-2.48 2.15-4.72Z" fill="#0F244F"/><path d="M28 11a17 17 0 1 0 0 34 17 17 0 0 0 0-34Zm0 32.76a15.76 15.76 0 1 1 0-31.52 15.76 15.76 0 0 1 0 31.52Z" fill="#FFD500"/><defs><linearGradient id="ap5u2z0az" x1="16.9" y1="20.79" x2="24.89" y2="33.91" gradientUnits="userSpaceOnUse"><stop stop-color="#0F244F"/><stop offset=".16" stop-color="#867C28"/><stop offset=".24" stop-color="#BAA217"/><stop offset=".31" stop-color="#E0BE0A"/><stop offset=".36" stop-color="#F7CF03"/><stop offset=".4" stop-color="#FFD500"/><stop offset=".65" stop-color="#FBD201"/><stop offset=".7" stop-color="#EEC906"/><stop offset=".76" stop-color="#D9B90C"/><stop offset=".81" stop-color="#BCA316"/><stop offset=".86" stop-color="#968723"/><stop offset=".92" stop-color="#676532"/><stop offset=".97" stop-color="#313D44"/><stop offset="1" stop-color="#0F244F"/></linearGradient><linearGradient id="bp5u2z0az" x1="23" y1="17.25" x2="36" y2="17.25" gradientUnits="userSpaceOnUse"><stop stop-color="#0F244F"/><stop offset="1" stop-color="#FFD500"/></linearGradient><linearGradient id="cp5u2z0az" x1="26.31" y1="21.99" x2="26.31" y2="34.49" gradientUnits="userSpaceOnUse"><stop offset=".35" stop-color="#B69F18"/><stop offset=".69" stop-color="#626134"/><stop offset="1" stop-color="#0F244F"/></linearGradient><linearGradient id="dp5u2z0az" x1="25.32" y1="27.92" x2="33.83" y2="27.92" gradientUnits="userSpaceOnUse"><stop stop-color="#FFD500"/><stop offset=".54" stop-color="#0F244F"/></linearGradient><linearGradient id="ep5u2z0az" x1="28.33" y1="18.61" x2="30.22" y2="22.22" gradientUnits="userSpaceOnUse"><stop offset=".18" stop-color="#0F244F"/><stop offset=".29" stop-color="#283747"/><stop offset=".52" stop-color="#6A6731"/><stop offset=".86" stop-color="#D1B30F"/><stop offset="1" stop-color="#FFD500"/></linearGradient></defs></svg>