<!-- by TradingView --><svg width="56" height="56" viewBox="0 0 56 56" xmlns="http://www.w3.org/2000/svg"><path fill="#F0F3FA" d="M0 0h56v56H0z"/><path d="M29 33.92v9.32l3.94-3.94 4.7 4.7 2.85-2.85-8.59-8.6c-.8.7-1.8 1.18-2.9 1.37Zm-2 0v9.32l-3.94-3.94-4.7 4.7-2.47-2.47 8.63-8.64c.73.52 1.57.87 2.48 1.03Zm-15 3.72 2.47 2.47 8.64-8.63A5.97 5.97 0 0 1 22.08 29h-9.32l3.94 3.94-4.7 4.7ZM22.08 27h-9.32l3.94-3.94-4.7-4.7 2.85-2.85 8.6 8.59c-.7.8-1.18 1.8-1.37 2.9Zm2.9-4.19-8.71-8.72L18.36 12l4.7 4.7L27 12.76v9.32c-.72.12-1.4.38-2.02.73Zm4.02-.73v-9.32l3.94 3.94 4.7-4.7 2.47 2.47-8.63 8.64A5.97 5.97 0 0 0 29 22.08Zm3.9 2.44 8.63-8.63L44 18.36l-4.7 4.7L43.24 27h-9.32a5.97 5.97 0 0 0-1.03-2.48ZM33.91 29h9.32l-3.94 3.94 4.7 4.7-2.1 2.1-8.71-8.72c.35-.62.6-1.3.73-2.02Zm-4.19-2h3.24c-.47-2.28-2.5-4-4.93-4A5.02 5.02 0 0 0 23 28c0 2.76 2.25 5 5.04 5a5.03 5.03 0 0 0 4.93-4h-3.24a2 2 0 1 1 0-2Z" fill="#CE313C"/></svg>