<!-- by TradingView --><svg width="56" height="56" fill="none" xmlns="http://www.w3.org/2000/svg"><path fill="#063" d="M0 0h56v56H0z"/><path d="M35 39.5c8.513-5.79 11.073-4.904 12.754-4.53C47.5 36.5 43 39.5 41 39.5h-6z" stroke="#fff"/><path d="M38.494 34.97C41.63 32.28 45.5 32 45.5 32s-.187 2.054-.56 2.614" stroke="#fff"/><path d="M42.525 29.367s-2.428.747-2.91 1.494l-1.121 4.109 3.361-2.615c.857-1.307.67-2.988.67-2.988zM41.855 32.355c.373-.435 1.382-1.456 2.428-2.054 1.045-.597 2.217-.801 4.965-.373 0 0-1.248 4.072-4.248 4.572M39.114 27.5c0 7.972-5.453 14.287-12.012 14.287S15.09 35.472 15.09 27.5s5.453-14.287 12.012-14.287c6.56 0 12.012 6.315 12.012 14.287z" stroke="#fff"/><path d="M27 37V16.5c0-1.345 1.285-1.139 1.783-.952 5.789 2.054 7.293 7.173 7.47 7.705.247.747-.187.747-.56.747h-1.681c-.3 0-.623-.249-.747-.373-.125-.125-3.265-3.41-3.265-3.41V36c2.092-1.046 4-3.77 4-4.952s.012-3.6.012-4.048c0-.448.488-1 .988-1h1c1 0 1 1 1 1v4.048C37 34.596 32.5 39 31 39h-2c-1.5 0-2-1-2-2zM26 19v-3.452c-4.669 1.12-7.675 4.818-8.422 10.645-.747 5.826 2.163 11.126 4.59 12.807H26c.5 0 .475-.388.108-.56-4.78-2.241-5.42-8.514-5.108-11.44h4.253c.598 0 .747-.442.747-.566V24.5c0-.448-.56-.5-.747-.5H21.5c.747-2.69 3.317-4.627 4.5-5z" fill="#fff"/><path d="M11.898 28.994s1.758.56 2.132 1.307l1.68 4.856-3.921-3.175c-.56-.747.11-2.988.11-2.988z" stroke="#fff"/><path d="M8.91 31.982c.234-.008 2.241-.187 3.362.373 0 0 2.728 1.645 4.372 3.735C17.451 37.116 19 39.5 19 39.5s-1 0-3.103-1.169c-3.735-2.8-6.266-3.453-6.623-3.93-.56-.746-.364-2.42-.364-2.42z" stroke="#fff"/><path d="M11.789 32.169c0-.934-2.437-1.669-3.289-1.669H6s.264 1.528.5 2 .886 1.38 3.5 2.5M13.095 36.464S10.35 35.5 9.5 35.5h-3s.356.777 1.29 1.898c.934 1.12 2.405 2.102 3.71 2.102H19" stroke="#fff"/></svg>