<!-- by TradingView --><svg xmlns="http://www.w3.org/2000/svg" width="56" height="56" viewBox="0 0 56 56"><path fill="#2CA9DF" d="M0 0h56v56H0z"/><path d="M28 44a16 16 0 0 0 16-16.53A14.95 14.95 0 1 1 28.52 12L28 12a16 16 0 0 0 0 32Z" fill="#fff"/><path d="M38.26 36.78a13.43 13.43 0 1 0-18.85-18.85 13.33 13.33 0 0 1 18.85 18.85Z" fill="#fff"/><path d="M34.45 37.77a11.52 11.52 0 0 0-13.98-18.3 11.95 11.95 0 0 1 16.67 10.82 11.7 11.7 0 0 1-2.7 7.48Z" fill="#fff"/><path d="M28.96 39.04A9.24 9.24 0 1 0 18.56 24a9.14 9.14 0 0 1 10.4 15.04Z" fill="#fff"/><circle cx="24" cy="31" r="2" fill="#fff"/></svg>