<!-- by TradingView --><svg width="56" height="56" viewBox="0 0 56 56" xmlns="http://www.w3.org/2000/svg"><path fill="#00481A" d="M0 0h56v56H0z"/><path d="M18.46 33.12c8.24-1.25 8.44-7.09 7.51-9.85-.8-1.13-.83-.14-.75.5 1.01 3.32-1.54 7.36-6.76 7.23-4.19-.1-4.97-2.59-4.84-3.82 0-5.42 10.34-7.2 15.51-7.18h8.93c-6.04 1.47-9.57 6.82-10.58 9h-1.25l-.73 1h1.47c-.5.7-1.7 2.42-2.44 4.23-.92 2.26-4.1 5.76-7 5.85-2.31.07-3.17-1.26-3.3-1.94a2.22 2.22 0 0 0 1.23-1.42c.2-.94.11-2.8-1.84-2.77-1.95.04-2.56 1.86-2.62 2.77.44 3.42 4.54 4.28 6.54 4.28 9.68-.81 13.6-7.55 14.35-11H34v1.33L35.58 29h-3.36c2.83-5.97 5.96-8 7.18-8.18 3.95.37 7.82.05 7.59-1.8-.18-1.47-1.61-1.96-2.3-2.02H31.43c-11.13.32-19.05 4.74-18.77 10.41.22 4.53 3.95 5.7 5.8 5.71Z" fill="#fff"/></svg>