<!-- by TradingView --><svg width="56" height="56" viewBox="0 0 56 56" xmlns="http://www.w3.org/2000/svg"><path fill="#002841" d="M0 0h56v56H0z"/><path d="M44.99 31c-.34 0-.66-.05-.98-.14-.3-.1-.55-.22-.73-.36l.36-.78a2.48 2.48 0 0 0 1.41.44c.3 0 .51-.05.64-.14a.4.4 0 0 0 .2-.35.3.3 0 0 0-.13-.28.96.96 0 0 0-.35-.14 7.04 7.04 0 0 0-.5-.1 6.6 6.6 0 0 1-.53-.1 1.96 1.96 0 0 1-.49-.2 1.1 1.1 0 0 1-.35-.38 1.2 1.2 0 0 1-.14-.61c0-.29.07-.53.22-.73.15-.21.35-.37.61-.48.27-.12.59-.18.95-.18.27 0 .55.04.82.1.28.07.51.16.7.29l-.37.78c-.2-.13-.39-.21-.58-.26a2.3 2.3 0 0 0-.58-.07c-.29 0-.5.05-.64.14-.14.1-.2.21-.2.36 0 .13.04.23.13.3.1.06.21.11.36.15.14.04.3.07.48.1.18.02.36.06.54.1.17.06.34.13.48.22.15.08.28.2.37.35.09.16.13.36.13.6 0 .28-.07.52-.22.72-.15.2-.36.37-.63.48-.28.11-.6.17-.98.17ZM33 31v-6h2.34c.58 0 1.09.13 1.52.38.44.25.78.6 1.03 1.04.24.45.37.97.37 1.58 0 .6-.13 1.13-.37 1.58-.25.44-.59.8-1.03 1.04-.43.25-.94.38-1.52.38H33Zm1-1h1.3c1.19 0 1.95-.8 1.95-2 0-1.22-.78-2-1.96-2H34v4ZM30.46 31c-.46 0-.82-.12-1.07-.37-.25-.25-.39-.62-.39-1.11v-3.95h1v3.92c0 .21.04.37.14.49.1.11.25.17.43.17.22 0 .4-.06.55-.18l.27.73c-.11.1-.25.18-.42.23a1.8 1.8 0 0 1-.51.07Zm-2.13-3.6v-.82H31v.82h-2.67ZM26.12 31c-.47 0-.87-.1-1.22-.29-.35-.2-.61-.47-.8-.81a2.39 2.39 0 0 1-.29-1.17c0-.44.1-.83.28-1.16a2.08 2.08 0 0 1 1.88-1.1c.4 0 .77.1 1.08.29.32.18.57.45.75.79a2.53 2.53 0 0 1 .27 1.36V29h-3.48v-.62h2.96l-.39.21c0-.25-.04-.47-.14-.67a1.17 1.17 0 0 0-1.05-.62c-.24 0-.45.06-.63.17-.18.1-.32.26-.43.46-.1.2-.14.42-.14.69v.16c0 .27.05.5.17.7.11.21.27.37.48.48.21.1.45.16.72.16.23 0 .45-.04.63-.11.2-.08.36-.2.5-.37l.53.64c-.2.23-.43.41-.71.54-.29.12-.6.18-.97.18ZM40.97 31c-.46 0-.87-.1-1.22-.29-.34-.2-.61-.47-.8-.81a2.39 2.39 0 0 1-.29-1.17c0-.44.1-.83.28-1.16a2.08 2.08 0 0 1 1.88-1.1c.4 0 .77.1 1.09.29.31.18.56.45.75.79a2.53 2.53 0 0 1 .26 1.36V29h-3.48v-.62h2.96l-.38.21c0-.25-.05-.47-.15-.67a1.17 1.17 0 0 0-1.05-.62c-.24 0-.45.06-.63.17-.18.1-.32.26-.42.46-.1.2-.15.42-.15.69v.16c0 .27.05.5.17.7.11.21.28.37.48.48.21.1.45.16.72.16.24 0 .45-.04.64-.11.18-.08.35-.2.5-.37l.52.64c-.19.23-.43.41-.71.54-.28.12-.6.18-.97.18ZM19.8 30.04l.02-1.27 2.23-2.24h1.17l-1.9 2.08-.52.44-1 .99ZM19 31v-6h1v6h-1Zm3.15 0-1.52-1.95.61-.8 2.1 2.75h-1.2ZM48.46 30.04l.02-1.27 2.24-2.24h1.17l-1.9 2.08-.52.44-1 .99Zm-.8.96v-6h1v6h-1Zm3.15 0-1.52-1.95.62-.8L52 31h-1.19ZM16 31v-4.48h1v1.24l-.18-.36c.13-.3.32-.53.59-.7.27-.15.6-.23 1-.23v1a.45.45 0 0 0-.11-.01l-.11-.01c-.37 0-.67.11-.89.35-.21.23-.3.57-.3 1.03V31h-1ZM14 31v-.93l-.03-.21.03-1.57c0-.3-.12-.53-.3-.7-.18-.17-.46-.25-.83-.25-.25 0-.49.03-.73.11a1.8 1.8 0 0 0-.6.32l-.4-.75c.23-.18.5-.32.83-.4.33-.1.67-.15 1.03-.15.63 0 1.13.16 1.47.47.35.3.53.77.53 1.41V31h-1Zm-1.36 0c-.33 0-.62-.06-.86-.17a1.4 1.4 0 0 1-.58-.47 1.3 1.3 0 0 1-.02-1.36c.11-.2.3-.35.58-.47.27-.11.63-.17 1.07-.17h1.28v.69h-1.2c-.36 0-.6.06-.71.17a.54.54 0 0 0-.19.41c0 .2.08.34.23.45.15.11.35.17.62.17.25 0 .47-.06.67-.18.2-.11.38-.28.47-.51l.14.62c-.1.26-.28.46-.53.6-.26.15-.58.22-.97.22ZM4 31v-6h.84l2.39 4.38h-.44L9.14 25h.84v6H9v-4.35h.22l-2 3.66h-.45l-2.04-3.66H5V31H4Z" fill="#fff"/></svg>