<!-- by TradingView --><svg width="56" height="56" viewBox="0 0 56 56" xmlns="http://www.w3.org/2000/svg"><path d="M11.5 21 8 26l-3-1 6.5-4 6.5 4-3 1 3 5-6.5 1.5L15 26l-3.5-5Z" fill="#375F90"/><path d="M11.5 32.5 8 26l-3 5 6.5 1.5Z" fill="#476891"/><path d="m8 26-3-1v6l3-5Z" fill="#07507B"/><path d="M15 26H8l3.5-5 3.5 5Z" fill="#054F80"/><path d="m18 25-3 1 3 5v-6Z" fill="#074E7A"/><path d="M15 26H8l3.5 6.5L15 26Z" fill="#6D80A1"/><path d="M11.5 35v-2.5L18 31l-6.5 4Z" fill="#385E8B"/><path d="M11.5 32.5 5 31l6.5 4v-2.5Z" fill="#004B7C"/><path fill-rule="evenodd" d="M24 24h1v5h2v-5h4c1 .17 3 1.2 3 4s-2 3.83-3 4h-4v-2h-2v2h-1v-2h-4v-1l4-5Zm4 7h3c.67-.17 2-1 2-3s-1.33-2.83-2-3h-3v6Zm-4-2h-2.5l2.5-3v3Z" fill="#055185"/><path d="M35 32v-8h1l3 3 3-3h1v8h-1v-6.5l-3 3-3-3V32h-1ZM51 24h-7v1h3v7h1v-7h3v-1Z" fill="#01BACF"/></svg>