<!-- by TradingView --><svg width="56" height="56" viewBox="0 0 56 56" xmlns="http://www.w3.org/2000/svg"><path fill="#F0F3FA" d="M0 0h56v56H0z"/><path d="M32.7 23.5h-.45a.25.25 0 1 1 0-.5h4a.25.25 0 1 1 0 .5h-.95a.3.3 0 0 0-.3.3V30c0 1.5 1.4 2.5 3 2.5s2.5-1.5 2.5-2.5v-6.2a.3.3 0 0 0-.3-.3h-.95a.25.25 0 1 1 0-.5h3a.25.25 0 1 1 0 .5h-.95a.3.3 0 0 0-.3.3V30c0 1.5-1 3-4 3s-4-1.5-4-3v-6.2a.3.3 0 0 0-.3-.3ZM50 25.75v-2.5a.25.25 0 0 0-.25-.25c-.14 0-.25.12-.34.23-.17.18-.52.25-.79.27a.36.36 0 0 1-.22-.08 3.52 3.52 0 0 0-1.9-.42C45 23 43 24 43 25.5c0 2.5 2.06 3.01 4 3.5 2 .5 2 1 2 1.5 0 1-.5 2-2.5 2a2.98 2.98 0 0 1-2.97-2.26c-.03-.13-.14-.24-.27-.24a.26.26 0 0 0-.26.26v2.49a.25.25 0 1 0 .5 0c0-.53.05-.71.38-.74a.3.3 0 0 1 .21.07c.56.47 1.78.92 2.41.92 3.5 0 4.5-1 4.5-3 0-1.63-2-2.5-4-3-1.46-.36-2.5-.5-2.5-2 0-1 1.33-1.5 2-1.5 2.18 0 2.87 1.37 2.98 2.25.02.14.13.25.27.25s.25-.11.25-.25Z" fill="#003A78"/><path d="M12.8 23H5.2a.2.2 0 0 0-.2.2v.1c0 .11.09.2.2.2h.6c.11 0 .2.09.2.2v8.6a.2.2 0 0 1-.2.2h-.6a.2.2 0 0 0-.2.2v.1c0 .11.09.2.2.2h4.1a.2.2 0 0 0 .2-.2v-.1a.2.2 0 0 0-.2-.2H8.2a.2.2 0 0 1-.2-.2v-4.1c0-.11.09-.2.2-.2H10c.68 0 .93.84.99 1.3 0 .11.1.2.21.2h.1a.2.2 0 0 0 .2-.2v-3.1a.2.2 0 0 0-.2-.2h-.1c-.11 0-.2.09-.2.2-.08 1.03-.69 1.3-1 1.3H8.2a.2.2 0 0 1-.2-.2v-3.6c0-.11.09-.2.2-.2H11c1.11 0 1.45 1.43 1.5 2.3 0 .11.09.2.2.2h.1a.2.2 0 0 0 .2-.2v-2.6a.2.2 0 0 0-.2-.2ZM19.3 23h-4.6a.2.2 0 0 0-.2.2v.1c0 .11.09.2.2.2h1.1c.11 0 .2.09.2.2v8.6a.2.2 0 0 1-.2.2h-1.1a.2.2 0 0 0-.2.2v.1c0 .11.09.2.2.2h4.6a.2.2 0 0 0 .2-.2v-.1a.2.2 0 0 0-.2-.2h-1.1a.2.2 0 0 1-.2-.2v-8.6c0-.11.09-.2.2-.2h1.1a.2.2 0 0 0 .2-.2v-.1a.2.2 0 0 0-.2-.2Z" fill="#013E77"/><path d="M20.75 23h5.75c1.5 0 4.5.9 4.5 4.5 0 4.5-2.5 5.5-4.5 5.5h-5.75a.25.25 0 1 1 0-.5h.95a.3.3 0 0 0 .3-.3v-8.4a.3.3 0 0 0-.3-.3h-.95a.25.25 0 1 1 0-.5Zm3.25.8v8.4c0 .17.13.3.3.3h2.2c1 0 2.5-1.1 2.5-3.5v-2c0-2-.9-3.5-2.5-3.5h-2.2a.3.3 0 0 0-.3.3Z" fill="#003A78"/></svg>