<!-- by TradingView --><svg width="56" height="56" viewBox="0 0 56 56" xmlns="http://www.w3.org/2000/svg"><path fill="#F0F3FA" d="M0 0h56v56H0z"/><path d="M15.83 19H27.4l-1.36 3h-7.98l-1.4 3.41c5.24-.84 6.52 1.61 6.5 2.94 0 4.23-5.05 8.79-9.86 8.65-3.85-.12-5.14-2.71-5.3-4l3.35-1.84c.22.8 1.14 2.43 3.16 2.47 2.53.04 4.43-2.05 4.57-3.57.12-1.21-1.28-2-1.99-2.06H12l3.84-9Z" fill="#373938"/><path d="M33.35 12h2.3L22.56 44H20.3l13.06-32ZM48 19H35.84l-1.46 3h12.16L48 19ZM42.37 34H29.79l-1.46 3H40.9l1.47-3ZM43 26H32.86l-1.46 3h10.12L43 26Z" fill="#A9D400"/></svg>