<!-- by TradingView --><svg width="56" height="56" xmlns="http://www.w3.org/2000/svg"><path fill="#005DAA" d="M0 0h56v56H0z"/><path d="M42.557 25.632c.429.486.443.883.443 1.368h-7c-.238-2.427-1.205-4.677-3.538-6.132-1.905-1.28-4.62-1.412-6.953-.883-2.952.97-5.23 3.658-5.469 6.57L20 27h-7c.048-.662.033-.927.51-1.368 0 0 10.157-9.573 14.49-13.632l14.557 13.632z" fill="#fff"/><path d="M24 23v12l2-1.42v-5.015l1.589-1.42v-2.65L26 25.915v-1.23l2-1.893V31l4 4v-3l-2-1.637v-1.211L32 31v-3l-2-1.423V25.31L32 27v-3.004L28.41 20h-.778L24 23z" fill="#fff"/><path d="M42.524 30.368C43 29.882 43 29.485 43 29h-7c-.238 2.427-1.238 4.676-3.572 6.132-1.904 1.28-4.618 1.412-6.952.883-2.952-.927-5.238-3.618-5.476-6.53V29h-7c0 .838 0 1.015.476 1.456A3896.742 3896.742 0 0128 44l14.524-13.632z" fill="#fff"/></svg>