<!-- by TradingView --><svg xmlns="http://www.w3.org/2000/svg" width="56" height="56" viewBox="0 0 56 56"><path fill="url(#alr4wqwld)" d="M0 0h56v56H0z"/><path d="M28.5 36.07A12.14 12.14 0 0 0 39.97 23.6a12.5 12.5 0 1 0-15.9 12.03l-1.7 1.11-.62 2.9 2.62 1.07-.11 1.35a.86.86 0 0 0 1.7.24l.27-1.36c1.21-.78 3.63-2.38 3.61-2.51-.02-.14-.43-1.4-.63-2.02l-.71-.35z" fill="#fff"/><path d="M38.15 17.07l3.57-.06a2.03 2.03 0 0 1 1.88.87 2.15 2.15 0 0 1 .21 2.11l-5.18 19.1a4.19 4.19 0 0 1-3.86 2.9H26l.5-2.85h1.37c.43.01.79-.2.79-.61 0-.43-.36-.8-.79-.79h-1.14l.3-1.75c11.6 0 15.58-11.53 11.13-18.92zM23.31 39.02h1.44L24.22 42h-7.98a2.11 2.11 0 0 1-1.84-.93 2.3 2.3 0 0 1-.24-2.15l2.47-9.07c1.77 3.1 5.27 5.35 8.76 6.15l-.37 1.52h-1.71c-.43-.01-.79.37-.79.81 0 .44.36.7.79.7z" fill="#A4A4CE"/><path d="M17.08 22.18a10.5 10.5 0 1 0 20.84 2.64 10.5 10.5 0 0 0-20.84-2.64z" fill="#BCDB88"/><defs><linearGradient id="alr4wqwld" x1="9.98" y1="7.19" x2="38.28" y2="52.05" gradientUnits="userSpaceOnUse"><stop offset=".13" stop-color="#35286A"/><stop offset="1" stop-color="#5F325A"/></linearGradient></defs></svg>