<!-- by TradingView --><svg width="56" height="56" xmlns="http://www.w3.org/2000/svg"><path fill="#FFC700" d="M0 0h56v56H0z"/><path d="M6.478 23.165c.446-.162.997-.175 1.467-.16.208.005.416.015.62.049.105.019.21.042.303.096.082.048.14.142.131.239-.014.18-.024.36-.04.539-.012.102-.017.21-.067.301a.165.165 0 01-.147.082c-.36.004-.724-.055-1.083-.004-.266.037-.53.156-.695.37-.21.267-.27.616-.285.946-.01.277-.003.1-.005.377h1.464c.106.002.223.022.3.1.073.075.088.183.09.282v.557c0 .098-.02.205-.095.276-.084.08-.206.097-.317.098H6.678l-.001 5.323c0 .11-.03.231-.125.299-.086.062-.198.067-.301.064h-.885c-.102 0-.214-.024-.283-.103-.067-.076-.082-.182-.083-.28v-5.302h-.598c-.102-.002-.214-.014-.294-.084-.082-.072-.105-.185-.107-.289-.002-.186 0-.373 0-.56a.377.377 0 01.096-.281.4.4 0 01.283-.1H5c-.007-.608 0-.771.171-1.36.099-.34.254-.67.493-.937a1.94 1.94 0 01.814-.538zM50.155 23.01c.082-.01.184-.025.25.036.053.063.046.15.05.226v7.322c.006.217.011.436.066.649a.673.673 0 00.228.378c.14.106.324.136.499.138.167.007.334-.026.5-.008.092.01.14.095.154.174.032.192.058.386.087.579.012.079.024.166-.024.238-.072.112-.21.162-.337.194-.274.065-.56.065-.84.062-.374-.012-.758-.07-1.091-.243a1.428 1.428 0 01-.588-.563c-.162-.28-.235-.6-.276-.915-.054-.429-.042-.861-.044-1.292v-6.259c0-.1.003-.212.071-.296.075-.09.195-.13.306-.163.329-.09.655-.189.989-.257zM38.95 23.665c.385-.06.79.12 1.002.43a.856.856 0 01.088.833 1.013 1.013 0 01-.92.594 1.004 1.004 0 01-.776-.332c-.263-.3-.288-.756-.095-1.095.14-.244.416-.398.701-.43zM10.001 26.469c.555-.364 1.236-.481 1.89-.468.593.008 1.206.122 1.705.454.298.197.54.47.71.782.193.349.3.738.36 1.13.053.375.072.755.05 1.132-.014.178-.038.37-.153.513-.095.117-.252.156-.397.156h-3.733c.006.345.042.715.256 1 .198.27.526.403.846.463.427.079.865.071 1.296.033.302-.03.6-.093.89-.186.107-.03.213-.075.326-.078.08.016.128.088.172.149.108.17.18.36.238.55.028.098.06.212-.003.303-.095.144-.258.221-.41.288-.38.152-.788.225-1.193.273-.49.055-.985.045-1.475-.008-.417-.05-.834-.143-1.214-.327a2.252 2.252 0 01-.73-.547 2.51 2.51 0 01-.484-.88 4.97 4.97 0 01-.214-1.326c-.028-.713.016-1.445.269-2.119.191-.516.53-.987.998-1.287zm1.494.878c-.304.042-.602.192-.775.45-.237.348-.281.794-.284 1.203h2.653c.004-.269-.003-.552-.078-.813-.075-.275-.236-.537-.485-.687-.306-.188-.684-.202-1.031-.153zM17.694 26.095a5.131 5.131 0 011.46-.075c.152.018.314.034.449.119.07.043.111.128.095.211-.032.252-.084.5-.124.75-.019.102-.05.224-.15.272-.107.044-.224.009-.334 0-.552-.07-1.138.008-1.621.3v4.926c-.002.106-.02.221-.093.301-.071.076-.178.1-.277.1h-.92c-.103 0-.217-.027-.285-.112-.068-.087-.075-.203-.077-.309v-5.616a4.46 4.46 0 011.877-.867zM22.142 26.121a4.563 4.563 0 011.12-.12c.232.002.467.006.696.054.1.023.21.055.277.14.042.052.04.124.032.187-.034.23-.079.456-.116.684-.016.09-.033.186-.092.257a.213.213 0 01-.178.07c-.148-.006-.293-.035-.44-.04-.482-.028-1.022.066-1.44.318-.002 1.636 0 3.272-.001 4.907-.001.109-.014.227-.086.313-.07.083-.184.109-.287.109h-.881c-.112-.001-.237-.037-.298-.139-.069-.115-.058-.255-.06-.384.002-1.84 0-3.678.002-5.517a4.44 4.44 0 011.752-.839zM27.14 26.023a5.926 5.926 0 011.288.026c.402.057.802.17 1.152.38.233.137.439.319.606.53.221.281.373.611.472.953.114.387.163.789.186 1.19.02.517.008 1.038-.084 1.548-.103.587-.327 1.177-.762 1.601-.26.257-.587.44-.934.555a4.192 4.192 0 01-1.175.19 5.213 5.213 0 01-1.297-.103 2.727 2.727 0 01-.945-.394 2.224 2.224 0 01-.677-.731 3.436 3.436 0 01-.396-1.155 7.312 7.312 0 01-.06-1.752c.057-.642.204-1.303.59-1.834.3-.42.756-.712 1.249-.856.256-.079.52-.123.787-.148zm.28 1.31c-.227.02-.46.07-.652.198a1.05 1.05 0 00-.391.523c-.113.303-.147.628-.167.949-.02.463-.02.929.035 1.39.04.288.104.584.267.832a.96.96 0 00.514.382c.258.083.533.091.802.08.28-.012.574-.067.8-.243.192-.15.308-.373.375-.602.105-.358.127-.733.138-1.104.004-.507.007-1.023-.123-1.516-.076-.296-.24-.591-.521-.737-.33-.17-.715-.174-1.077-.152zM43.09 26.115c.45-.11.916-.127 1.376-.108.762.034 1.527.185 2.221.508.132.062.191.13.313.21v4.122c.004.197-.018.402.054.59a.388.388 0 00.256.24c.194.062.398.002.597.019.094.006.144.1.158.183.039.216.072.434.099.653a.276.276 0 01-.046.211c-.074.1-.194.15-.31.184a2.577 2.577 0 01-.719.072 1.218 1.218 0 01-.812-.302 1.221 1.221 0 01-.391-.608c-.427.505-1.07.794-1.72.881-.416.05-.843.04-1.253-.053a2.3 2.3 0 01-.941-.442 2.266 2.266 0 01-.587-.727 3.708 3.708 0 01-.357-1.148 7.204 7.204 0 01-.06-1.499c.043-.642.172-1.299.51-1.857.165-.27.383-.51.64-.695.29-.21.625-.35.972-.434zm.2 1.4c-.274.155-.435.446-.51.742-.12.483-.117.985-.115 1.48.01.433.035.88.209 1.284.114.27.336.501.62.595.332.109.697.093 1.032.007a1.43 1.43 0 00.863-.63c.028-.043.013-.098.017-.146V27.57a2.833 2.833 0 00-.984-.239c-.383-.021-.792-.011-1.132.184zM31.154 26.113c.061-.084.169-.113.266-.112h1.058c.133 0 .28.039.365.152.098.13.132.297.185.45.448 1.407.899 2.813 1.346 4.22.487-1.471.97-2.944 1.455-4.416.044-.121.087-.256.193-.334.107-.076.242-.074.366-.072.299.001.598-.002.896.001.17.005.311.196.24.364-.132.373-.28.74-.419 1.112l-1.96 5.149c-.04.102-.076.212-.154.291-.07.068-.168.083-.26.082h-.799a.412.412 0 01-.307-.11c-.114-.12-.157-.285-.217-.436l-2.156-5.708c-.044-.13-.11-.252-.137-.387-.017-.083-.013-.177.04-.246zM38.605 26.004c.304-.008.609 0 .913-.004.111-.003.235.016.316.103.08.086.1.211.1.326v6.161c0 .118-.023.25-.116.33-.088.076-.21.082-.32.08l-.858-.001c-.111-.001-.234-.042-.295-.144-.068-.11-.061-.245-.062-.37v-6.034c0-.113.013-.235.083-.326a.337.337 0 01.239-.121z" fill="#fff"/></svg>