<!-- by TradingView --><svg width="56" height="56" xmlns="http://www.w3.org/2000/svg"><path fill="#FFC845" d="M0 0h56v56H0z"/><path d="M15 24.44c-.232-.112-.621-.287-1.057-.214-.436.073-.944.404-.944.775V26H15l-.342 2h-1.66v6H10v-6H9v-2h1v-1.31c0-2.4 1.803-2.69 3.057-2.69 1.022 0 2.21.225 2.943.562l-1 1.879zM23.835 26h-.83v2h.846c1.014 0 1.154-.584 1.147-1-.006-.416-.233-1-1.163-1zM26 34l-1.243-2.798C24.308 30.17 23.652 30 23.005 30v4H20V24h4c3.404 0 4.517 1.191 4.517 2.856 0 1.721-1.046 2.596-2.408 2.797.4.1.88.559 1.162 1.076.383.675 1.348 2.525 1.729 3.271h-3zM33.573 34c-1.868 0-3.327-.36-4.573-.874l1.122-1.941c.889.401 2.223.776 3.487.776 1.245 0 1.878-.359 1.878-.886 0-.43-.569-.8-1.422-.967l-1.417-.343c-1.797-.36-3.025-.91-3.025-2.575 0-1.914 2.028-3.19 4.804-3.19 1.727 0 2.944.362 4.048.958l-1.53 1.761c-.837-.43-1.556-.694-2.41-.694-.82 0-1.535.538-1.535.927 0 .318.298.637 1.224.817l1.263.25c1.335.264 3.513.503 3.513 2.444C39 32.78 36.793 34 33.573 34zM47.657 26H45v8h-3v-8h-3v-2h9l-.343 2zM16 26v8h3V24l-3 2z" fill="#000"/></svg>