<!-- by TradingView --><svg width="56" height="56" viewBox="0 0 56 56" xmlns="http://www.w3.org/2000/svg"><path fill="#F0F3FA" d="M0 0h56v56H0z"/><path d="m28 30 5 5-5 5v-3h-8v-4h8v-3ZM17 41l-6-6 11-11 6 6H17v11Zm3 3v-4h8l-6 6-2-2Z" fill="url(#ak4utuahl)"/><path d="m41 17 5 5-5 5v-3h-8v-4h8v-3ZM30 28l-6-6 11-11 6 6H30v11Zm3 3v-4h8l-6 6-2-2Z" fill="url(#bk4utuahl)"/><defs><linearGradient id="ak4utuahl" x1="22" y1="24" x2="22" y2="46" gradientUnits="userSpaceOnUse"><stop stop-color="#01BAF2"/><stop offset="1" stop-color="#005CAC"/></linearGradient><linearGradient id="bk4utuahl" x1="35" y1="11" x2="35" y2="33" gradientUnits="userSpaceOnUse"><stop stop-color="#A4CD49"/><stop offset="1" stop-color="#028843"/></linearGradient></defs></svg>