<!-- by TradingView --><svg width="56" height="56" xmlns="http://www.w3.org/2000/svg"><path fill="#00968F" d="M0 0h56v56H0z"/><path d="M43.454 35.59a.133.133 0 01-.106-.052c-.087-.1-8.456-10.203-11.512-13.263-2.787-2.79-12.054-10.344-12.158-10.433a.139.139 0 01.175-.216c.095.078 9.382 7.652 12.178 10.45 3.068 3.072 11.446 13.184 11.529 13.287a.14.14 0 01-.017.195.146.146 0 01-.09.032zM36.173 44.457a.146.146 0 01-.09-.032c-.1-.083-10.2-8.473-13.268-11.542-2.798-2.801-10.363-12.085-10.438-12.191a.142.142 0 01-.03-.165.142.142 0 01.149-.076.142.142 0 01.096.062c.075.095 7.632 9.382 10.421 12.172 3.057 3.054 13.148 11.442 13.243 11.525a.14.14 0 01-.09.247h.007z" fill="#F6F8FD"/><path d="M20.554 43.667a.14.14 0 01-.106-.049.14.14 0 01.017-.195c.103-.086 10.192-8.465 13.251-11.525 2.787-2.793 10.332-12.068 10.418-12.172a.138.138 0 01.195-.02.14.14 0 01.02.195c-.074.092-7.64 9.393-10.438 12.192-3.065 3.072-13.153 11.46-13.268 11.542a.129.129 0 01-.09.032zM11.697 36.377a.129.129 0 01-.09-.031.134.134 0 01-.017-.196c.084-.1 8.461-10.214 11.53-13.283 2.795-2.802 12.082-10.376 12.177-10.45a.139.139 0 01.175.215c-.092.075-9.37 7.64-12.158 10.43-3.056 3.063-11.428 13.166-11.511 13.266a.13.13 0 01-.107.05z" fill="#F6F8FD"/><path d="M33.807 41.449a.106.106 0 01-.094-.115c0-.098.927-9.818.927-14.149 0-3.948-.881-12.421-.89-12.504a.103.103 0 01.092-.115.1.1 0 01.115.092c0 .086.892 8.568.892 12.527 0 4.34-.918 14.08-.93 14.169a.101.101 0 01-.071.091.1.1 0 01-.04.004z" fill="#F6F8FD"/><path d="M41.342 22.166c-.098 0-9.807-.928-14.133-.928-3.943 0-12.014.844-12.094.861a.103.103 0 01-.103-.053.102.102 0 01-.012-.038.103.103 0 01.092-.115c.083 0 8.163-.862 12.117-.862 4.334 0 14.064.92 14.153.928a.104.104 0 01.094.112.106.106 0 01-.114.095zM27.198 34.834c-3.955 0-12.034-.836-12.118-.845a.105.105 0 01-.07-.038.105.105 0 01-.021-.077.098.098 0 01.073-.09.098.098 0 01.041-.001c.08 0 8.151.844 12.095.844 4.325 0 13.079-.836 13.165-.844a.1.1 0 01.115.091.107.107 0 01-.095.115c-.086.01-8.851.845-13.185.845z" fill="#F6F8FD"/><path d="M22.13 41.449a.106.106 0 01-.104-.095c0-.098-.927-9.83-.927-14.169 0-3.96.88-12.441.89-12.527a.104.104 0 01.114-.092.1.1 0 01.092.114c0 .084-.887 8.557-.887 12.505 0 4.33.916 14.051.925 14.149a.103.103 0 01-.092.115h-.012zM38.66 38.038a.207.207 0 01-.197-.144c-.032-.097-3.103-9.562-4.816-13.533-1.561-3.62-5.608-10.859-5.654-10.939a.209.209 0 01.08-.287.209.209 0 01.287.08c.046.08 4.102 7.336 5.672 10.976 1.722 3.989 4.798 13.474 4.83 13.571a.213.213 0 01-.201.276z" fill="#F6F8FD"/><path d="M13.206 28.007a.213.213 0 01-.203-.266.206.206 0 01.1-.128c.08-.046 7.462-4.192 11.11-5.763 3.983-1.725 13.598-4.848 13.698-4.885a.206.206 0 01.222.064.21.21 0 01-.095.332c-.098.032-9.692 3.161-13.659 4.865-3.622 1.572-10.992 5.71-11.084 5.755a.183.183 0 01-.089.026zM18.235 38.822a.21.21 0 01-.175-.318.21.21 0 01.111-.09c.084-.028 8.381-2.634 11.994-4.197 3.967-1.724 12.27-6.267 12.359-6.322a.21.21 0 01.2.368c-.091.049-8.408 4.612-12.392 6.336-3.637 1.569-11.951 4.183-12.034 4.21a.264.264 0 01-.063.014z" fill="#F6F8FD"/><path d="M27.669 43.09a.212.212 0 01-.187-.116c-.043-.086-4.428-8.703-6.15-12.694-1.57-3.638-4.214-12.068-4.242-12.149a.21.21 0 01.294-.24.21.21 0 01.104.114c.03.09 2.667 8.49 4.228 12.111 1.722 3.974 6.087 12.577 6.13 12.663a.209.209 0 01-.025.236.21.21 0 01-.066.051.23.23 0 01-.086.023z" fill="#F6F8FD"/><path d="M16.765 41.621a.24.24 0 01-.077 0 .287.287 0 01-.19-.345c.037-.126 3.731-12.74 5.33-16.783 1.46-3.686 6.991-14.332 7.049-14.441a.285.285 0 01.287-.224.287.287 0 01.204.482c-.055.106-5.574 10.726-7.023 14.39-1.588 4.005-5.276 16.597-5.319 16.723a.287.287 0 01-.26.198zM29.58 9.638a.339.339 0 100-.678.339.339 0 000 .678zM30.085 8.678a.339.339 0 100-.678.339.339 0 000 .678zM16.46 42.707a.339.339 0 100-.678.339.339 0 000 .678zM16.177 43.73a.339.339 0 100-.677.339.339 0 000 .677zM26.914 46.12a.287.287 0 01-.25-.41c.06-.118 6.004-11.81 7.594-15.826 1.452-3.664 4.71-15.18 4.744-15.298a.287.287 0 01.534.152c-.031.118-3.297 11.663-4.758 15.35-1.605 4.042-7.56 15.757-7.617 15.875a.287.287 0 01-.247.158zM39.505 14.054a.339.339 0 10-.001-.678.339.339 0 000 .678zM39.775 13.026a.339.339 0 10-.001-.678.339.339 0 000 .678zM26.483 47.04a.339.339 0 100-.678.339.339 0 000 .678zM26.012 48a.339.339 0 100-.678.339.339 0 000 .678z" fill="#F6F8FD"/><path d="M41.342 39.552a.415.415 0 01-.08 0c-.127-.037-12.727-3.735-16.765-5.335-3.682-1.474-14.316-7.014-14.422-7.069a.288.288 0 01.256-.494c.106.057 10.716 5.58 14.373 7.034 4.018 1.595 16.589 5.281 16.715 5.318a.287.287 0 01-.077.546zM9.292 26.645a.339.339 0 100-.678.339.339 0 000 .678zM8.339 26.048a.339.339 0 100-.678.339.339 0 000 .678zM42.283 39.854a.339.339 0 100-.678.339.339 0 000 .678zM43.313 40.118a.339.339 0 100-.677.339.339 0 000 .677zM45.833 29.39a.286.286 0 01-.126-.03c-.118-.06-11.796-6.01-15.808-7.605C26.242 20.3 14.73 17.04 14.62 17.008a.287.287 0 01.15-.537c.117.034 11.65 3.304 15.331 4.767 4.039 1.603 15.74 7.565 15.857 7.625a.287.287 0 01-.126.526zM13.737 16.804a.339.339 0 100-.678.339.339 0 000 .678zM12.696 16.568a.339.339 0 100-.677.339.339 0 000 .677zM46.706 29.855a.339.339 0 100-.678.339.339 0 000 .678zM47.661 30.323a.339.339 0 100-.678.339.339 0 000 .678z" fill="#F6F8FD"/></svg>