<!-- by TradingView --><svg width="56" height="56" viewBox="0 0 56 56" xmlns="http://www.w3.org/2000/svg"><path fill="#164273" d="M0 0h56v56H0z"/><path d="M28 16H9v24h5V29h7.93a14.04 14.04 0 0 1 .19-4H14v-5h10.14A14.76 14.76 0 0 1 28 16Z" fill="#F0F3FA"/><path d="m46.77 21.37-3.95 2.16c-.9-1.91-3.57-3.53-6.26-3.53C31 20 29 24.47 29 27.8c0 3.32 1.73 8.2 7.56 8.2 4.47 0 6.1-3.36 6.44-5h-6v-4h11c0 7.01-3.69 13-12.02 13C27.64 40 24 34.47 24 28c0-7.5 5.6-12 12.81-12 6.01 0 9.02 3.58 9.96 5.37Z" fill="#F0F3FA"/></svg>