<!-- by TradingView --><svg width="56" height="56" viewBox="0 0 56 56" xmlns="http://www.w3.org/2000/svg"><path fill="url(#axnivyac0)" d="M0 0h56v56H0z"/><path fill-rule="evenodd" d="M28 44a16 16 0 1 0 0-32 16 16 0 0 0 0 32Zm0-26-5.69 1.23L28 20.46l5.69-1.23L28 18Zm-.81 2.88-7.32-1.24 2.9 6.7 4.42-5.46Zm.81.82-4.47 5.34h8.94L28 21.7Zm7.72-2.06-2.49 6.7-4.42-5.46 6.9-1.24ZM19.05 20l2.86 6.63L15 24.57 19.05 20Zm3.04 8-6.75-2 11.82 15-5.07-13Zm5.74 12-4.3-12.14h8.94L27.83 40Zm12.5-14-6.42 2-5.07 13 11.48-15Zm-6.24.63L41 24.66l-4.06-4.62-2.85 6.57Z" fill="url(#bxnivyac0)"/><defs><linearGradient id="axnivyac0" x1="10.42" y1="9.71" x2="68.15" y2="76.02" gradientUnits="userSpaceOnUse"><stop stop-color="#1A1E21"/><stop offset="1" stop-color="#06060A"/></linearGradient><linearGradient id="bxnivyac0" x1="12" y1="24.1" x2="42.46" y2="34.14" gradientUnits="userSpaceOnUse"><stop stop-color="#DBDBDB"/><stop offset="1" stop-color="#B1B1B1"/></linearGradient></defs></svg>