<!-- by TradingView --><svg xmlns="http://www.w3.org/2000/svg" width="56" height="56" viewBox="0 0 56 56"><path fill="#446CA9" d="M0 0h56v56H0z"/><path d="M28.1 48c.73 0 1.78-1.3 3.02-3.4.06.3.12.58.19.84 7.68-9.85 9.66-18.93 9.69-22.23-.29.1-.57.22-.84.34.43-3.27-.54-6.44-2.47-8.9a5.07 5.07 0 0 1 1.35-1.6c-.66.17-1.55.43-2.21.62a12.21 12.21 0 0 0-8.8-3.67c-3.53 0-6.62 1.44-8.8 3.68l-2.24-.64c.33.25.96.85 1.36 1.64a11.83 11.83 0 0 0-2.45 8.9l-.9-.37c.03 3.3 2.01 12.38 9.7 22.23l.22-1.06c1.3 2.24 2.42 3.62 3.18 3.62z" fill="#fff"/><circle cx="22" cy="18" r="2" fill="#426CAB"/><ellipse cx="34" cy="18" rx="2" ry="2" fill="#426CAB"/><path d="M38.61 21.62c0 4.44-2.73 8.25-6.61 9.83a21.07 21.07 0 0 0-1.25 11.21l-2.71 3.74-2.65-3.74c.5-4.6-.17-8.3-1.35-11.17a10.62 10.62 0 0 1-6.45-12.14v.17a4.32 4.32 0 0 0 8.5 1.07l1.97 2.76 1.91-2.42a4.33 4.33 0 0 0 8.43-1.45c.14.7.21 1.4.21 2.14zm-3.05-7.45a10.61 10.61 0 0 0-15.15-.02c4.99.9 7 5.06 7.65 6.64 2.46-4.55 3.88-5.89 7.5-6.62z" fill="#426CAB"/></svg>