<!-- by TradingView --><svg width="56" height="56" xmlns="http://www.w3.org/2000/svg"><path fill="#065EF0" d="M0 0h56v56H0z"/><path d="M6.466 28v3h-1.67v-3H4v-1.2h.796c0-.356.017-.65.052-.82.034-.173.119-.337.255-.492a1.27 1.27 0 01.549-.36c.23-.086.538-.128.925-.128.416 0 .741.03 1.122.09v1.001h-.513c-.514 0-.72-.027-.72.309v.4H7.7V28H6.466zm3.7-3v1.2H8.31V25h1.856zm0 1.794V31H8.31v-4.206h1.856zM17.106 25l-2.313 6h-1.848l-2.356-6h2.542l.9 2.773c.073.2.14.398.197.594.021-.068.052-.154.094-.26.008-.015.035-.087.08-.215l.93-2.892h1.773zm4.581 4.154l2.223.134c0 .387-.524.883-.846 1.112-.558.396-1.433.6-2.387.6-1.063 0-1.91-.29-2.542-.849-.633-.561-.949-1.257-.949-2.086 0-.86.312-1.585.936-2.177.624-.592 1.457-.888 2.499-.888 1.008 0 1.823.279 2.443.837.624.558.936 1.317.936 2.279 0 .079-.002.345-.006.484h-4.272c.009.362.074.51.206.688.133.173.425.387.797.387.388 0 .796-.099.962-.521zm-.166-1.765c-.004-.389-.086-.725-.255-.857a.945.945 0 00-.62-.203c-.587 0-.88.404-.88 1.06h1.755zM27 31v-6h3.022c.628 0 1.086.16 1.374.48.287.319.431.656.431 1.066 0 .299-.084.57-.253.813-.165.24-.414.434-.745.524.77.188 1.155.654 1.155 1.398 0 .446-.136.844-.41 1.196-.27.349-.85.523-1.74.523H27zm1.627-3.729h.902c.212 0 .362-.054.45-.163a.544.544 0 00.13-.347c0-.334-.19-.434-.597-.434h-.885v.944zm0 2.393h.946c.22 0 .382-.055.484-.163a.533.533 0 00.004-.752c-.099-.117-.282-.175-.55-.175h-.884v1.09zm8.45.009V31H32.67v-6h4.409v1.355h-2.895v.9h2.44v1.332h-2.44v1.086h2.895zm5.04-.387V31h-4.171v-6h1.827v4.286h2.344zM52 25l-1.579 6h-1.535l-.832-3.31-.785 3.31h-1.6l-1.584-6h1.718l.833 3.46.811-3.46h1.44l.88 3.46L50.6 25H52z" fill="#fff"/><path fill-rule="evenodd" d="M42 28.429A1.714 1.714 0 1042 25a1.714 1.714 0 000 3.429zm0-.858a.857.857 0 100-1.714.857.857 0 000 1.714z" fill="#fff"/></svg>