<!-- by TradingView --><svg width="56" height="56" xmlns="http://www.w3.org/2000/svg"><path fill="#294ED6" d="M0 0h56v56H0z"/><path d="M10 27h4.47c.092-.713.276-1.334.53-2H8v12h2v-5h4v-2h-4v-3zM18 27c.157-.75.504-1.63.95-2.244a5.183 5.183 0 011.667-1.484 4.99 4.99 0 012.112-.625c.74-.047 1.58.075 2.271.353.194-1.636.86-3.144 2.05-4.235 1.192-1.091 2.726-1.767 4.316-1.765 1.59.002 3.123.68 4.312 1.773C36.867 19.867 37.808 21.364 38 23c.894-.394 1.689-.543 2.656-.451.968.092 1.898.43 2.708.986a6.02 6.02 0 011.935 2.198c.46.887.68 2.277.701 2.886.02.608-.06 3.13-1 4.381h2c.839-1.295 1.008-2.821 1-4.381a8.407 8.407 0 00-.681-3.34 8.142 8.142 0 00-1.941-2.758 7.796 7.796 0 00-2.86-1.692 7.596 7.596 0 00-3.278-.33 8.766 8.766 0 00-3.148-4.007A8.295 8.295 0 0031.319 15a8.3 8.3 0 00-4.76 1.536 8.775 8.775 0 00-3.114 4.037 7.007 7.007 0 00-5.03 1.772c-1.294 1.149-2.151 2.91-2.416 4.655H18zM18 28h-2v9h2v-9z" fill="#fff"/><path d="M19 28h2l2 6 2-6h2l-3 9h-2l-3-9zM38 37l2.356-4c-.184.04-.752.01-.94 0C37.663 32.914 36 31.589 36 29.233 36 26.734 37.894 25 40 25c2.074 0 4 1.639 4 4.217-.005.5-.095.996-.265 1.465a6.94 6.94 0 01-.67 1.32L40 37h-2zm2-9.995c-1.264 0-2 1.071-2 1.995 0 1.194.865 2 2 2 1.247 0 2-1.125 2-2 0-1.158-.909-1.995-2-1.995zM34 34c-.403.554-1.442 1-2.26 1-1.48 0-2.647-1.026-2.74-1.57h7c0-.375-.003-.672 0-1.014C36 30.3 34.274 28 31.538 28 28.881 28 27 30.178 27 32.553a4.31 4.31 0 00.337 1.704c.227.54.562 1.032.986 1.446.424.413.928.741 1.483.964.555.222 1.15.336 1.75.333 1.924 0 4.084-1.111 4.444-3h-2zm-2.446-4c1.025 0 2.213.654 2.446 2h-5c.39-1.56 1.792-2 2.554-2z" fill="#fff"/></svg>