<!-- by TradingView --><svg width="56" height="56" viewBox="0 0 56 56" xmlns="http://www.w3.org/2000/svg"><path fill="#59585D" d="M0 0h56v56H0z"/><path fill-rule="evenodd" d="M23.77 15.27c.44 1.83.9 3.78 1.38 5.67a78.82 78.82 0 0 1-5.38 1.45c.2-2.16.63-3.96.99-5a22.42 22.42 0 0 0-2.03 5.22c-1.62.33-3.04.5-4 .43 1.65-3.8 4.98-6.7 9.04-7.77Zm4.83 5.55c-.43.18-.94.38-1.5.58a125.35 125.35 0 0 1 2.49 7.46c2.03-.8 4.22-1.75 6.24-2.73-1.6-5.14-6.17-9.5-8.43-11.03 3.52 1.58 7.37 4.68 9.8 10.36 1.1-.57 2.12-1.13 2.99-1.68a13.74 13.74 0 0 0-15.47-8.73c.66 1.74 1.36 3.6 2.02 5.39l1.52-.5v-.02c0-.73.58-1.32 1.29-1.32.7 0 1.28.6 1.28 1.32a1.3 1.3 0 0 1-1.28 1.33c-.38 0-.71-.17-.95-.43Zm13.85 3.12a15.02 15.02 0 0 1-9.6 18.26c.42 1.88.8 3.57 1.06 4.8l-1.65-4.61a15 15 0 0 1-15.1-4.03c-3.13-.08-5.16-.75-5.16-1.72 0-2.03.77-3.27 1.73-4a14.99 14.99 0 0 1-.21-8.56c-.87-.2-1.42-.6-1.48-1.3-.18-2.07 2.73-4.22 5.68-5.7a14.99 14.99 0 0 1 5.7-3.36c-.43-1.82-.8-3.46-1.07-4.72l1.77 4.5a15.02 15.02 0 0 1 15.7 5.26c2.3-.32 4.22-.13 4.96 1.1.7 1.18-.37 2.62-2.33 4.08ZM27.3 42.27c-3.73 0-7.12-1.49-9.6-3.9 1.53 0 3.29-.13 5.17-.42a18.23 18.23 0 0 0 5.7 4.26c-.42.04-.85.06-1.27.06Zm-10.6-5c1.47.17 3.35.2 5.54-.06a21.83 21.83 0 0 1-3.42-5.98c-.9-2.34-.84-4.99-.38-7.4-1.58.29-3.04.44-4.17.35a13.71 13.71 0 0 0 2.43 13.1Zm11.97 4.93a25.32 25.32 0 0 1-4.59-4.45c1.9-.35 3.9-.86 5.94-1.55l1.9 5.27c-1.03.37-2.12.62-3.25.73Zm-5.14-5.17c1.9-.3 4-.8 6.22-1.57l-1.7-4.67c-.71.24-1.35.44-1.9.59-.1.28-.28.53-.54.73-.7.54-1.7.39-2.23-.33a1.67 1.67 0 0 1 .32-2.3 1.57 1.57 0 0 1 2.43.67c.47-.16.97-.34 1.49-.54A93.04 93.04 0 0 1 25.42 22a58.93 58.93 0 0 1-5.73 1.59c-.12 2.22.02 4.74.66 7.18.6 2.29 1.8 4.44 3.19 6.27Zm9.08 4.17c-.4-1.76-.84-3.64-1.28-5.48 1.8-.68 3.6-1.52 5.34-2.52a26.26 26.26 0 0 1-.85 6.1c-.98.78-2.05 1.42-3.2 1.9Zm-1.47-6.26c1.79-.7 3.64-1.58 5.54-2.66a23.43 23.43 0 0 0-.5-4.76c-2.12 1-4.32 1.9-6.25 2.61.38 1.43.8 3.08 1.21 4.8Zm7.98-3.3-1.03.7a22.8 22.8 0 0 1-2 6.74 13.7 13.7 0 0 0 4.52-13.91c-.9.54-1.89 1.08-2.92 1.6.47 1.48.59 3.06.49 4.62l.64-.41v-.12c0-.53.34-.97.76-.97s.76.44.76.97c0 .54-.34.98-.76.98a.65.65 0 0 1-.46-.2ZM13.28 36c.14.46 1.16.94 2.87 1.2a14.98 14.98 0 0 1-2.16-3.83c-.74.6-1.07 1.42-.71 2.63ZM40.3 19.42c1.12.01 2.05.25 2.63.83.56.56.12 1.36-.96 2.27-.44-1.1-1-2.14-1.67-3.1ZM16.55 18.3a14.98 14.98 0 0 0-2.65 4.56c-.36-.15-.54-.4-.48-.77.2-1.33 1.52-2.67 3.13-3.8Z" fill="#fff"/></svg>