<!-- by TradingView --><svg width="56" height="56" viewBox="0 0 56 56" xmlns="http://www.w3.org/2000/svg"><path fill="#F0F3FA" d="M0 0h56v56H0z"/><path d="M39.97 29.18c3.01 1.76 5.13 4.38 7.03 7.3-.1.1-.21.2-.33.28a18.95 18.95 0 0 1-7.7 3.1c-1.67.28-3.4.14-5.01-.43a9.48 9.48 0 0 1-4.9-4.2c-.3-.5-.56-1.05-.85-1.58l-.2-.39-.25.46c-.45.96-1 1.86-1.64 2.7A8.98 8.98 0 0 1 18 39.94c-3.14-.21-5.97-1.42-8.6-3.14-.14-.09-.26-.2-.41-.31a28.43 28.43 0 0 1 3.12-4.13 16.15 16.15 0 0 1 3.92-3.19A18.54 18.54 0 0 1 13.53 24c-.4-1.25-.7-2.54-.88-3.85-.03-.18-.03-.36-.04-.59 3.37-.35 6.66-.36 9.9.94 1.43-3.14 3-6.17 5.65-8.49a30.65 30.65 0 0 1 3.07 4c.93 1.4 1.7 2.9 2.3 4.48 3.2-1.29 6.48-1.27 9.78-.94.14.75-.35 3.1-1.03 5.05a18.38 18.38 0 0 1-2.31 4.59Zm-12.44-3.89c.05-3.79.15-7.57.14-11.41-1.45 1.22-3.74 5.41-4.28 7.05 1.8.96 3.25 2.49 4.14 4.36Zm5.16 2.37 8.87-7.19-.05-.11c-2.62-.17-5.19 0-7.7 1.04.38 2.25-.16 4.28-1.12 6.26Zm-18.2-7.3-.04.12 8.86 7.18c-.96-1.99-1.5-4.02-1.12-6.26a17 17 0 0 0-7.7-1.04Zm19.74 12.73c1.96.6 10.53 2.48 10.97 2.43l-.22-.32a23.02 23.02 0 0 0-2.5-2.91 14 14 0 0 0-2.52-2c-.16-.1-.33-.18-.51-.27a7.55 7.55 0 0 1-2.35 2c-.9.51-1.88.8-2.87 1.07Zm-23.42 2.4.06.12 10.91-2.46.03-.1A8.46 8.46 0 0 1 16.53 30c-2.38 1.34-4.14 3.32-5.72 5.48Zm26.74 3.47c1.66.2 6.3-1.28 7.46-2.4l-10.59-2.38-.05.1a10.19 10.19 0 0 1 3.18 4.68Zm-15.96-4.78L11 36.57A15.52 15.52 0 0 0 18.43 39c.35-.97.73-1.87 1.31-2.64.57-.75 1.21-1.44 1.85-2.19Zm7.1-20.11c-.16.57-.22 10.5-.07 11.06a9.2 9.2 0 0 1 4.06-4.25 25.29 25.29 0 0 0-3.99-6.81Zm13.54 7.22-.11-.07a49244.96 49244.96 0 0 0-8.42 6.87v.03l.04.05a8.8 8.8 0 0 1 5.37.58 18.67 18.67 0 0 0 3.12-7.46Zm-25.29 7.45a9.13 9.13 0 0 1 5.39-.6 754.44 754.44 0 0 0-8.53-6.97c.3 2.44 1.82 6.12 3.14 7.57Zm10.5 2.25c.04-.13.06-.26.07-.39.04-1-.05-2.02-.26-3a8.39 8.39 0 0 0-3.75-5.5 4.3 4.3 0 0 0-.4-.2 1 1 0 0 0-.07.16l-.03.27a7.6 7.6 0 0 0 .48 3.24c.7 1.9 1.89 3.43 3.3 4.8.2.2.41.38.67.62Zm5.5-9.14a7.9 7.9 0 0 0-3.3 3.33 10.88 10.88 0 0 0-1.14 5.8c.1-.06.2-.13.28-.2.66-.7 1.37-1.38 1.98-2.14a9.85 9.85 0 0 0 2.18-4.81c.09-.66.1-1.32 0-1.98Zm-3.93 11.18c.82 3.05 4.66 6.08 7.5 5.91-.71-2.76-3.87-5.63-7.5-5.91Zm-9.49 5.9c1.1.12 2.97-.55 4.26-1.54a10.9 10.9 0 0 0 3.28-4.38c-4.14.4-7 3.64-7.54 5.92Zm18.9-9.4a7.41 7.41 0 0 0-4.61-.38c-1.68.4-3.86 1.69-4.48 2.63 3.2 1.02 6.73.42 9.09-2.25Zm-20.8.04c2.45 2.82 6.39 3.2 9.05 2.16-2.53-2.6-6.23-3.52-9.05-2.16Z" fill="#2F2A2B"/></svg>