<!-- by TradingView --><svg xmlns="http://www.w3.org/2000/svg" width="56" height="56"><path fill="#1F3366" d="M0 0h56v56H0z"/><path d="M42.83 16H13.36c-1.48 0-1.53 1.24-1.18 1.85L14.43 22h27.16l2.1-3.94c.84-1.77-.22-2.1-.86-2.05z" fill="#00EFFF"/><path d="M17.68 28l-3.25-6h7.47l3.23 6h-7.45z" fill="#0F7B83"/><path d="M20.93 34l-3.25-6h20.6l-3.3 6H20.94z" fill="#18E69B"/><path d="M24.18 40l-3.25-6h7.42l3.22 6h-7.39z" fill="#1B7754"/><path d="M27.01 45.25L24.18 40h7.38l-2.53 5.25c-.33.53-.54.73-.96.75-.43.01-.67-.13-1.06-.75z" fill="#31E041"/></svg>