<!-- by TradingView --><svg xmlns="http://www.w3.org/2000/svg" width="56" height="56" viewBox="0 0 56 56"><path fill="#F0F3FA" d="M0 0h56v56H0z"/><path d="M17.84 30C17 30 16 29.34 16 28.26v-3.6c0-.37.3-.66.67-.66.37 0 .63.3.63.66v3.52c0 .28.28.52.57.52h8.46c.37 0 .67.28.67.64 0 .37-.3.66-.67.66h-8.5ZM29.3 24.65a.65.65 0 1 0-1.3 0v2.65c0 1.49 1.19 2.7 2.65 2.7h5.7A2.68 2.68 0 0 0 39 27.3v-2.65a.65.65 0 1 0-1.3 0v2.52c0 .84-.61 1.53-1.44 1.53h-5.52c-.83 0-1.44-.7-1.44-1.53v-2.52ZM41.31 24.08c-.83-.23-1.17.09-1.23.27-.1.22-.08.73.83 1.02 1.14.36 1.98.93 1.98 1.62 0 .69-1.03 1.41-1.98 1.62-.76.16-.92.55-.9.72-.01.32.24.9 1.3.58 1.33-.4 2.94-1.48 3-2.92.04-1.43-1.95-2.64-3-2.91ZM50.69 24.08c.83-.23 1.17.09 1.23.27.1.22.08.73-.83 1.02-1.13.36-1.98.93-1.98 1.62 0 .69 1.03 1.41 1.98 1.62.76.16.92.55.9.72.01.32-.24.9-1.3.58-1.33-.4-2.94-1.48-3-2.92-.04-1.43 1.95-2.64 3-2.91Z"/><circle cx="46" cy="27" fill="#1CA3DC" r="1"/><path fill-rule="evenodd" d="M30.3 31.8H30V34h.3v-1h1.38a.6.6 0 1 0 0-1.2H30.3Zm0 .3v.58h1.36a.29.29 0 0 0 0-.57H30.3Z" fill="#818285"/><path d="M49.7 31.8h1.7a.6.6 0 1 1 0 1.2h-.2l.76 1h-.39l-.75-1H50v1h-.3v-2.2Zm.3.88h1.38a.29.29 0 1 0 0-.57H50v.57Z" fill="#818285"/><path fill-rule="evenodd" d="M35.75 34c.63 0 1.14-.5 1.14-1.1 0-.6-.51-1.1-1.14-1.1-.63 0-1.14.5-1.14 1.1 0 .6.51 1.1 1.14 1.1Zm0-.3c.46 0 .83-.36.83-.8 0-.44-.37-.8-.83-.8a.82.82 0 0 0-.83.8c0 .44.37.8.83.8Z" fill="#818285"/><path d="m40 34-.82-2.2h.37l.62 1.67.6-1.67h.37l.63 1.67.6-1.67h.4l-.82 2.2h-.33l-.67-1.65-.6 1.65H40ZM45.3 31.8H45V34h2.29v-.3H45.3v-.64H47v-.3h-1.7v-.66h1.99v-.3H45.3Z" fill="#818285"/><path d="M4 26.91C4 25.07 5.35 24 6.72 24h7.6c.38 0 .68.3.68.66 0 .36-.3.64-.67.64H6.58c-.3 0-1.28.26-1.28 1.46v2.58c0 .37-.26.66-.63.66a.67.67 0 0 1-.67-.66v-2.43Zm2.65-.21a.65.65 0 1 0 0 1.3h6.7a.65.65 0 1 0 0-1.3h-6.7Z"/></svg>