<!-- by TradingView --><svg width="56" height="56" viewBox="0 0 56 56" xmlns="http://www.w3.org/2000/svg"><path fill="#333" d="M0 0h56v56H0z"/><path d="M10 27v.4H8v.89h2v.4H8V30H7v-3h3ZM13 29.5h2v.5h-3v-3h1v2.5ZM18 27.5v.78h2v.4h-2v.82h2v.5h-3v-3h3v.5h-2ZM24 28.5l1 1.5h-1l-.5-1-.5 1h-1l1-1.5-1-1.5h1l.5 1 .5-1h1l-1 1.5ZM28.52 30C28 30 27 29.86 27 29.16h1c.03.26.05.43.52.43.49 0 .48-.2.48-.45 0-.4-.4-.42-.67-.47-.48-.09-1.32-.19-1.32-.83 0-.7.96-.84 1.48-.84s1.43.14 1.51.8h-1c-.02-.22-.14-.4-.59-.4-.4 0-.41.17-.41.44 0 .37.41.4.66.45.48.09 1.34.2 1.34.85 0 .69-.97.86-1.48.86ZM35 27v.5h-1V30h-1v-2.5h-1V27h3ZM38 27.5v.78h2v.4h-2v.82h2v.5h-3v-3h3v.5h-2ZM43 27.5v.78h2v.4h-2v.82h2v.5h-3v-3h3v.5h-2ZM47.98 29.5H50v.5h-3v-3h.98v2.5Z" fill="#FAFAFA"/></svg>