<!-- by TradingView --><svg width="56" height="56" viewBox="0 0 56 56" xmlns="http://www.w3.org/2000/svg"><path fill="#F0F3FA" d="M0 0h56v56H0z"/><path d="M40.99 12.13c-.2-.09-.42-.13-.63-.13H14v29.96c0 1.17 1.14 2.05 2.1 2.04 1.16-.02 2.83-.01 4.27-.01H42V13.67a1.65 1.65 0 0 0-1.01-1.54ZM15 28V13h17v15H15Zm8 1h10v-2h8v16H23V29Zm-8 .58V29h3v11h4v3h-5.75c-.64 0-1.26-.5-1.25-1.29v-.26a56.44 56.44 0 0 0 .08.28v-.03l-.08-.25c.02-3.23.01-7.15 0-10.52v-1.35Zm26-15.54V26h-3V16h-5v-3h6.98c.64 0 1.02.38 1.02 1.04Zm-25.98 9.3v.12-.24.12ZM30.23 41 26 32.43v5.68c0 1 .2 1.99 1 1.99v.9h-3v-.9c1.09.03 1.05-.88 1.01-1.76l-.01-.27V32.3c0-1 0-1.39-1-1.39V30h4.22l3.24 7.23L34.74 30H39v.9h-.24c-.8 0-.79.31-.77.97l.01.38v6.67c-.03.44-.06 1.08.76 1.08H39v1h-5v-.9c.85 0 1-1 1-1.35V32.3L30.84 41h-.6ZM24 24.55V21h.96c.46 0 .77.37.94.58.18.2.28.78.3 1.42h.8v-4.27h-.8c-.03.6-.14.99-.3 1.18-.13.14-.32.12-.58.1l-.34-.01H24v-4h1.95c1.46 0 1.75.76 2.05 2h1v-3h-9.62v1h.2c.58 0 .95.07 1.13.29.19.21.29.6.29 1.14v7.12c0 .53-.1.91-.28 1.13-.17.23-.55.34-1.13.34h-.18V27h6.32v-.98h-.25c-.58 0-.96-.11-1.15-.32-.18-.22-.33-.6-.33-1.15Z" fill="#0060AB"/></svg>