<!-- by TradingView --><svg width="56" height="56" viewBox="0 0 56 56" xmlns="http://www.w3.org/2000/svg"><path fill="#0063A7" d="M0 0h56v56H0z"/><path d="M4 32v-8h5v.71H4.66v2.95H8v.67H4.66V32H4Zm14.03-8h2.57c1.58 0 2.63.98 2.63 2.48 0 1.22-.7 2.1-1.8 2.37L23.48 32h-.79l-2-3H18.7v3H18l.03-8Zm.66.71v3.55h2c1.1 0 1.88-.72 1.88-1.78 0-1.07-.78-1.77-1.97-1.77H18.7ZM25 31.94V24h.6l2.85 4.72L31.31 24H32v8h-.7v-6.66l-2.58 4.18h-.54l-2.57-4.18V32H25v-.06Zm9.64-7.23v2.95h3.7v.67h-3.7v2.93h3.86V32H34v-8h4.42v.71h-3.78ZM40 24h2.58c1.57 0 2.62.98 2.62 2.48 0 1.22-.7 2.1-1.8 2.37L45.47 32h-.79l-2-3h-2.01v3H40v-8Zm.66.71v3.55h2c1.11 0 1.88-.72 1.88-1.78 0-1.07-.77-1.77-1.96-1.77h-1.92Zm6.66 4.97c.1 1 .98 1.67 2.08 1.67 1.15 0 1.92-.7 1.95-1.53.02-1.15-1.03-1.44-1.97-1.7-1.19-.3-2.46-.47-2.46-2.14.01-1.33 1.13-1.98 2.47-1.98 1.3 0 2.38.7 2.44 2h-.65c-.08-.9-.84-1.35-1.8-1.35-1 0-1.79.48-1.8 1.33-.02 1.1.91 1.25 1.9 1.5 1.17.28 2.55.75 2.52 2.34-.01 1.12-1.02 2.17-2.59 2.18-1.47 0-2.65-.9-2.74-2.32h.65Z" fill="#fff"/><path d="m14.46 29.36-.03-.02c.15 0 .29-.04.43-.09a.1.1 0 0 1 .07 0c.08.05.16.1.2.15.2.18.33.37.43.6.03.08-.03.16-.1.14-.18-.03-.34-.1-.5-.18a.1.1 0 0 1-.04-.05 1.46 1.46 0 0 0-.46-.55Zm-.8.06-.03-.01c.15-.03.29-.08.43-.15a.1.1 0 0 1 .08 0c.07.02.15.06.2.1.22.14.36.32.47.54.04.07-.01.15-.09.15a1.7 1.7 0 0 1-.5-.1.1.1 0 0 1-.04-.04c-.14-.21-.3-.36-.52-.49Zm.7-.24c-.07-.04.07-.15.1-.18.18-.13.32-.27.44-.46a.1.1 0 0 1 .05-.04c.22-.08.43-.1.65-.08.08.01.11.1.07.16-.13.2-.3.35-.48.45-.22.13-.62.3-.83.15Zm-.86.1c-.06-.03.06-.17.1-.2.15-.15.28-.32.38-.52a.1.1 0 0 1 .05-.04c.21-.11.42-.17.64-.17.08 0 .13.09.09.16-.12.2-.28.37-.45.5-.2.15-.58.4-.8.27Zm-.67.28-.03-.02c.15-.03.3-.09.43-.17a.09.09 0 0 1 .07 0c.08.02.17.04.23.07.22.13.38.28.51.48.05.07 0 .16-.07.16-.18.02-.35.01-.54-.03a.1.1 0 0 1-.05-.04 1.5 1.5 0 0 0-.55-.45Zm-.8.2h-.02c.15-.06.27-.13.4-.23.02-.01.05-.02.08-.01.07.02.16.04.22.07.23.11.4.26.55.45.05.06.01.15-.06.16-.18.03-.36.03-.54 0a.1.1 0 0 1-.06-.04 1.36 1.36 0 0 0-.56-.4Zm.62-.33c-.09-.04.05-.17.07-.2.16-.17.28-.34.37-.55a.1.1 0 0 1 .03-.05c.2-.12.4-.2.62-.23.08-.01.13.07.1.14-.1.21-.24.41-.4.56-.19.19-.56.44-.8.33Zm-.82.23c-.08-.03.04-.18.07-.21.13-.19.24-.37.32-.6l.03-.04c.19-.14.38-.23.6-.28.08-.01.14.07.1.14-.08.22-.2.43-.35.58-.18.19-.52.5-.77.4Zm-.58.42h-.03c.14-.07.26-.17.38-.28a.1.1 0 0 1 .07-.02c.07 0 .16.01.22.03.24.09.41.22.57.4.05.06.03.15-.05.17a1.6 1.6 0 0 1-.52.05.1.1 0 0 1-.06-.02 1.17 1.17 0 0 0-.58-.33Zm-.19-.1c-.08-.01.03-.17.05-.2.12-.21.22-.42.28-.65a.1.1 0 0 1 .02-.05c.18-.16.36-.28.58-.35.08-.02.15.05.12.13-.07.23-.19.45-.32.62-.16.2-.47.57-.73.5Zm-.56.47h-.03c.14-.07.26-.18.37-.3a.1.1 0 0 1 .07-.02l.23.01c.24.06.42.16.6.33.04.05.03.14-.04.17-.17.07-.34.1-.53.11a.1.1 0 0 1-.06-.02 1.28 1.28 0 0 0-.61-.28Zm5.02-1.47c.06-.02.14.01.2.03.25.07.46.19.64.36.06.05.04.15-.03.17a1.5 1.5 0 0 1-.83.04c-.02 0-.05-.03-.05-.03s-.2-.18-.24-.24c-.06-.04-.06-.14.01-.17.03-.02.17-.12.3-.16Zm-4.39.05c-.16.07-.6.43-.6.43l-.34.84-.3.1-.24.09-.1.05h-.02l-.1.06c-.3.16-.58.37-.82.61a5.3 5.3 0 0 0-1.1 1.65.1.1 0 0 0 .06.13c.05.02.1 0 .12-.05.25-.6.58-1.16 1.02-1.61.23-.24.49-.45.77-.62l.1-.06h.01l.11-.05a2.54 2.54 0 0 1 .7-.24c.23-.03.47-.34.6-.55.12-.19.22-.43.27-.66.01-.08-.06-.15-.14-.12Z" fill="#FAA21E"/><path d="M15 28.04 13.4 24 13.4 24h-.68l-.01.01-1.83 4.6-.04.09c0 .02.01.03.03.02.26-.15.45-.16.54-.14.03 0 .07 0 .1-.03a.71.71 0 0 1 .07-.05.28.28 0 0 0 .1-.12l1.36-3.44c.01-.02.03-.02.04 0l1.2 3.06h.03c.06.01.2-.03.26-.04.08 0 .16 0 .23.06.05.03.06.07.12.06.02 0 .05 0 .07-.02.02 0 .02-.01.02-.02Z" fill="#3DB3E3"/><path d="m16.63 32-.74-1.68h-.02a.34.34 0 0 1-.26.15c-.12.01-.23-.02-.35-.05-.01 0-.03 0-.02.02l.68 1.56h.7Zm-6.6-1.28L9.49 32h.7l.52-1.19c.03 0-.58-.34-.66-.09Z" fill="#fff"/></svg>