<!-- by TradingView --><svg xmlns="http://www.w3.org/2000/svg" width="56" height="56"><path fill="#0276E5" d="M0 0h56v56H0z"/><path d="M19.56 26.13c-.3-.29-1.24-.17-3.04-.07.36-1.52.61-2.85 1.28-3.88 3.09.17 6.88.61 11.24.6 8.56-.03 8.64-3.24 8.64-3.24-3.65 1.06-8.65.74-12.44.4-4.75-.45-9.5-1.55-13.43-.5-4.64 1.26-5.09 4.73-4.92 6.22 1.86-2.46 4.38-3.34 7.6-3.52a20 20 0 01.96-.03c-.59.62-1.04 1.6-1.51 3.12l-.3.96c-3.97.35-4.74 2.18-4.51 2.66.24.5 1.65-.16 3.4-.36l.33-.03c-.68 1.79-1.44 3.06-2.66 3.81-1.86 1.14-3.81.61-4.2.3.15 2.08 3.26 3.22 5.9 1.76 2.12-1.16 3.34-3.94 4-6.02.59 0 1.17-.02 1.75-.06 1.6-.1 2.3-1.75 1.9-2.12zm32-2.34a.62.62 0 00-.79.42.65.65 0 00.03.46c-.6.55-1.15.96-1.45.87-.37-.13-.09-1.16.28-2.1a.68.68 0 00.76-.48.7.7 0 00-.45-.88.68.68 0 00-.86.45.7.7 0 00.18.71c-.5.91-1 1.7-1.45 1.56h-.02c-.45-.15-.42-1.1-.3-2.13a.69.69 0 00.55-.48.7.7 0 00-.44-.88.68.68 0 00-.86.45.7.7 0 00.33.84c-.23.98-.6 2-.97 1.87-.29-.1-.5-.75-.68-1.55a.64.64 0 00.32-.63.65.65 0 00-.43-.55.62.62 0 00-.8.42.65.65 0 00.24.72.6.6 0 00.25.1l.1 2.7 4.38 1.43 1.62-2.13a.62.62 0 00.87-.38.64.64 0 00-.4-.8z" fill="#fff"/><path d="M46.55 31.3c-.81 1.44-1.97 2.18-2.59 1.65-.62-.54-.46-2.16.35-3.6.81-1.46 1.97-2.2 2.59-1.66.61.54.46 2.15-.35 3.6zm-1.1-5s-1.04.4-1.76 1.09c-.25.23-.49.48-.7.75a7.8 7.8 0 00-1.12 2.07s-.42.89-.73 1.33c-.3.44-.86.85-1.09 1-.26.13-.53.23-.81.32-1.85.54-2.2-.8-1.78-1.44.15-.23 1.17-1.02 1.88-1.61 1.35-1.14 2.28-1.86 2.92-2.52.68-.69.24-1.07-.28-1.16-1.31-.23-1.91.12-2.3.45-.45.4-3.2 3.74-3.2 3.74s4.47-8.71 5.2-10.21c.6-1.24-2.3-1.4-3.1.37-.46 1.03-3.66 8.5-4.05 9.43-.72 1.7-.76 1.96-1.12 2.25v.02l-.03.01c-.35.3-.83.55-1.15.55-.2 0-.31-.12-.34-.36-.04-.24 0-.54.08-.92a18.3 18.3 0 01.84-2.31l.3-.7a42.56 42.56 0 00.36-.9c.11-.44.09-.83-.02-1.09-.12-.25-.32-.37-.61-.37-.3 0-.57.08-.83.23-.28.16-.54.34-.8.66a30.15 30.15 0 00-1.14 1.46 64.8 64.8 0 00-1.1 1.43h-.17l.09-.25.17-.43a83.48 83.48 0 00.62-1.6c.05-.16.1-.28.11-.37.08-.32.08-.59 0-.78-.07-.2-.26-.3-.58-.3-.32 0-.6.1-.82.28-.23.18-.42.42-.54.69a46.15 46.15 0 00-1.95 5.07c-.42.21-.85.4-1.3.53-.17.05-.38.09-.5-.04-.1-.1-.1-.25-.09-.39.07-.7.37-1.36.65-2.01.48-1.1.93-2.2 1.35-3.32.05-.14.1-.3.05-.43-.07-.23-.33-.3-.56-.34-.49-.06-1.05-.01-1.37.37-.1.13-.17.29-.24.44l-1.63 3.75c-.34.79-.76 1.65-1.56 1.93-.14.05-.3.08-.43.02-.17-.08-.26-.28-.26-.47 0-.2.07-.38.15-.55l1.83-4.5c.04-.08.2-.47.2-.65a.32.32 0 00-.17-.28c-.43-.2-.95-.07-1.33.2-.61.43-.95 1.13-1.25 1.8-.33.73-.67 1.47-.97 2.22-.35.86-.72 1.7-.9 2.6-.1.47-.08 1.07.25 1.4.22.22.54.29.85.3 1.23.04 2.39-.62 3.29-1.48.03.46.1.98.47 1.23.24.16.54.16.82.13a6.2 6.2 0 001.66-.46c.22-.09.44-.18.66-.29 0 .1 0 .2.03.28.03.17.11.31.23.42.12.1.3.16.55.16.19 0 .37-.05.54-.14.17-.09.34-.26.52-.5l3.44-4.66h.14c-.18.44-.34.89-.5 1.34-.14.38-.26.77-.36 1.16a4.97 4.97 0 00-.17 2.08c.1.48.32.72.64.72s.64-.05.96-.14a6.16 6.16 0 001.56-.7l-.03.3c0 .26.03.31.15.43.11.1.24.12.49.12.19 0 .25-.02.42-.14.16-.12.72-.97 1.16-1.58l.24-.3c-.16.75.18 1.85 1.2 2.02 1.01.16 2.64-.07 4.74-1.72.04.23.1.45.17.65.15.39.4.7.72.95.33.24.76.36 1.3.36.38 0 .75-.07 1.12-.2.37-.13.72-.31 1.05-.53.34-.24.66-.5.94-.8a7.56 7.56 0 002.08-5.18s-.04-.85-.15-.93c-.12-.08-3.3-1.06-3.3-1.06" fill="#fff"/></svg>