<!-- by TradingView --><svg width="56" height="56" viewBox="0 0 56 56" xmlns="http://www.w3.org/2000/svg"><path fill="#F0F3FA" d="M0 0h56v56H0z"/><path d="M18.43 20.56c-3.58 0-7.11-3.7-8.43-5.56 1.45 4.83 5.3 9 10 9s8.66-3.33 12.85-3.33c4.18 0 6.92 3.44 7.15 3.22-2.67-5.39-5.23-6.83-8.49-6.83-3.25 0-8.6 3.5-13.08 3.5ZM21.43 29.56c-3.58 0-7.11-3.7-8.43-5.56 1.45 4.83 5.3 9 10 9s8.66-3.33 12.85-3.33c4.18 0 6.92 3.44 7.15 3.22-2.67-5.39-5.23-6.83-8.49-6.83-3.25 0-8.6 3.5-13.08 3.5Z" fill="#35A34C"/><path d="M24.43 37.56c-3.58 0-7.11-3.7-8.43-5.56 1.45 4.83 5.3 9 10 9s8.66-3.33 12.85-3.33c4.18 0 6.92 3.44 7.15 3.22-2.67-5.39-5.23-6.83-8.49-6.83-3.25 0-8.6 3.5-13.08 3.5Z" fill="#35A34C"/></svg>