<!-- by TradingView --><svg width="56" height="56" viewBox="0 0 56 56" xmlns="http://www.w3.org/2000/svg"><path fill="#F0F3FA" d="M0 0h56v56H0z"/><path fill-rule="evenodd" d="M4 31v-7h7v1.5H6V27h5v1.5H6V31H4Zm7.96-6c.44-.6 1.17-1 2-1h5.08c.83 0 1.56.4 2 1h-9.08Zm-.28.5c-.07.16-.12.33-.15.5H21.47a2.32 2.32 0 0 0-.15-.5h-9.64Zm9.82 1h-2.58c.05.1.08.2.08.32v.43h2.5v-.75Zm0 1.25H19v.43c0 .12-.03.22-.08.32h2.58v-.75ZM21.47 29h-9.94c.03.17.08.34.15.5h9.64c.07-.16.12-.33.15-.5Zm-.43 1h-9.08c.44.6 1.17 1 2 1h5.08c.83 0 1.56-.4 2-1Zm-9.54-1.5h2.58a.65.65 0 0 1-.08-.32v-.43h-2.5v.75Zm0-1.25H14v-.43c0-.12.03-.22.08-.32H11.5v-.12.87ZM22 31v-7h2.89L29 28.91V24h2v7h-3.06L24 26.28V31h-2Zm9.5 0H34l.81-1.5h4.29l.77 1.5h2.63l-3.9-7h-3.2l-3.9 7Zm6.82-3L37 25.47 35.63 28h2.69ZM43 31v-7h6.81a2.17 2.17 0 0 1 1.04 4.08c.64.22 1.15.83 1.15 1.56V31h-2v-1.35c0-.42-.3-.65-.7-.65H45v2h-2Zm2-5.5h4a1 1 0 1 1 0 2h-4v-2Z" fill="#DE261E"/></svg>