<!-- by TradingView --><svg width="56" height="56" fill="none" xmlns="http://www.w3.org/2000/svg"><path fill="#F0F3FA" d="M0 0h56v56H0z"/><path fill-rule="evenodd" clip-rule="evenodd" d="M22.794 15H15v7.794A14.047 14.047 0 0 1 22.794 15Zm10.412 0A14.047 14.047 0 0 1 41 22.794V15h-7.794ZM41 33.206A14.047 14.047 0 0 1 33.206 41H41v-7.794ZM22.794 41A14.047 14.047 0 0 1 15 33.206V41h7.794ZM16.04 29c.483 6.054 5.322 11 11.96 11 7 .127 12-5 12-12 0-6.719-5.5-12-12-12-6.611-.12-11.438 5.339-11.954 11H28v2H16.04ZM13 13v30h30V13H13Z" fill="#CD1E2B"/></svg>