<!-- by TradingView --><svg width="56" height="56" fill="none" xmlns="http://www.w3.org/2000/svg"><path fill="#3A4043" d="M0 0h56v56H0z"/><path fill-rule="evenodd" clip-rule="evenodd" d="M5.057 22h5.888c.028 0 .056.028.06.058L11 23.433c0 .033-.024.067-.055.067H7.057c-.032 0-.057.02-.057.05v2.396c0 .034.025.054.057.054h3.416c.032 0 .058.034.058.067v1.374c0 .032-.026.056-.058.056H7.057c-.032 0-.057.029-.057.06v3.384c0 .032-.024.059-.055.059H5.057C5.023 31 5 30.973 5 30.94v-8.883c0-.03.023-.057.057-.057zm21.691 3.892c-1.84-.544-2.885-1.025-2.748-1.815.133-.784 1.3-.738 2.191-.674.884.069 1.604.25 2.127.41.015.006.037-.002.044-.03.027-.144.082-.407.136-.667.053-.258.106-.512.13-.642.003-.032-.023-.049-.042-.052-1.077-.27-2.059-.44-3.231-.42-2.2.035-3.221.853-3.35 2.562-.073.997.676 2.1 2.226 2.576.197.06.391.117.58.172 1.296.381 2.325.683 2.189 1.455-.142.75-1.362.834-2.4.78-.913-.051-1.676-.253-2.253-.413-.037-.01-.065.008-.073.042-.026.193-.084.573-.133.898l-.071.475c-.001.036.029.067.048.07.715.158 1.992.381 3.544.381 2.112 0 3.204-.836 3.328-2.438.099-1.242-.535-2.161-2.242-2.67zm8.998 0c-1.84-.544-2.885-1.025-2.748-1.815.133-.784 1.3-.738 2.191-.674.884.069 1.604.25 2.127.41.015.006.037-.002.044-.03.027-.143.081-.405.135-.664v-.003c.055-.258.108-.512.132-.642.002-.032-.024-.049-.043-.052-1.077-.27-2.059-.44-3.231-.42-2.2.035-3.221.853-3.35 2.562-.073.997.676 2.1 2.226 2.576.197.06.391.117.58.172 1.296.381 2.325.683 2.189 1.455-.142.75-1.362.834-2.4.78-.913-.051-1.676-.253-2.253-.413-.037-.01-.065.008-.073.042-.026.193-.084.573-.133.898l-.071.475c-.001.036.029.067.048.07.715.158 1.992.381 3.544.381 2.112 0 3.204-.836 3.328-2.438.099-1.242-.535-2.161-2.242-2.67zM41.95 22h-1.895c-.034 0-.054.025-.054.058v8.887c0 .03.02.055.053.055h1.896c.03 0 .051-.024.051-.055v-8.887c0-.033-.022-.058-.051-.058zm5.122 7.5h3.867c.037 0 .061.01.062.046l.002 1.4c-.002.03-.03.054-.064.054h-5.88c-.033 0-.062-.023-.062-.055V22.06c0-.037.029-.06.062-.06h1.891c.036 0 .051.023.051.06v7.366c0 .03.038.074.071.074zM16.167 22C13.47 22 12 23.723 12 26.5c0 2.776 1.472 4.5 4.167 4.5s4.165-1.724 4.165-4.5c0-2.818-1.432-4.5-4.165-4.5zm0 7.5c-1.831 0-2.167-1.4-2.167-3 0-1.596.336-3 2.167-3 1.829 0 2.164 1.404 2.164 3 0 1.6-.335 3-2.164 3zm2.447 6.44h.748v1.568c-.192.159-.415.28-.667.365a2.39 2.39 0 01-.764.127c-.367 0-.698-.085-.99-.254a1.87 1.87 0 01-.693-.713A2.139 2.139 0 0116 36c0-.383.083-.726.248-1.028a1.81 1.81 0 01.697-.712c.297-.173.63-.26 1.001-.26.31 0 .592.057.845.171.252.114.465.28.636.498l-.525.53c-.253-.291-.558-.437-.915-.437-.226 0-.427.052-.602.155a1.064 1.064 0 00-.41.437 1.38 1.38 0 00-.146.646c0 .24.049.453.147.64.097.189.232.336.404.443.175.103.374.155.597.155.235 0 .448-.056.637-.166v-1.133zm4.724 1.994l-.683-1.078h-.753v1.078h-.819v-3.868h1.532c.313 0 .585.057.814.172.232.114.41.276.536.486.124.21.187.458.187.746 0 .287-.064.535-.193.745a1.22 1.22 0 01-.535.476l.793 1.243h-.88zm-.015-2.464c0-.218-.064-.383-.193-.498-.128-.117-.315-.176-.56-.176h-.668v1.348h.667c.246 0 .433-.06.561-.177.129-.118.193-.284.193-.497zm3.156 2.27c.296.173.628.26.996.26.367 0 .697-.087.99-.26a1.87 1.87 0 00.693-.712c.169-.306.253-.649.253-1.028 0-.38-.084-.72-.253-1.022a1.859 1.859 0 00-.692-.718 1.912 1.912 0 00-.991-.26c-.368 0-.7.087-.996.26a1.86 1.86 0 00-.693.718A2.095 2.095 0 0025.538 36c0 .38.083.722.248 1.028.169.302.4.54.693.712zm1.562-.657a1.063 1.063 0 01-.566.155c-.21 0-.398-.052-.567-.155a1.127 1.127 0 01-.399-.442 1.408 1.408 0 01-.141-.641c0-.24.047-.453.141-.64a1.086 1.086 0 01.966-.598c.209 0 .397.054.566.16.168.104.3.25.394.437.098.188.147.402.147.641 0 .24-.049.453-.147.64a1.09 1.09 0 01-.394.443zm4.518.917c-.505 0-.9-.153-1.183-.459-.28-.305-.42-.742-.42-1.309v-2.166h.82V36.2c0 .692.262 1.039.788 1.039.256 0 .452-.083.587-.25.134-.169.202-.432.202-.79v-2.132h.809v2.166c0 .567-.142 1.004-.425 1.31-.28.305-.672.458-1.178.458zm5.718-3.762c-.23-.115-.5-.172-.814-.172h-1.532v3.868h.82v-1.067h.712c.314 0 .585-.055.814-.165.233-.114.411-.277.536-.486.125-.214.187-.463.187-.746 0-.288-.062-.536-.187-.746a1.243 1.243 0 00-.536-.486zm-.298 1.729c-.128.114-.315.171-.561.171h-.668v-1.342h.668c.246 0 .433.059.56.176.129.115.193.28.193.498 0 .213-.064.379-.192.497z" fill="#fff"/></svg>