<!-- by TradingView --><svg width="56" height="56" viewBox="0 0 56 56" xmlns="http://www.w3.org/2000/svg"><path fill="#F0F3FA" d="M0 0h56v56H0z"/><path d="M8 19h10.66l.33 5H13v2h4.98a.01.01 0 0 1 .02.02v4.97l-.03.01h-4.96c-.02 0-.01 0-.01.03v5.94c0 .02 0 .03-.02.03H8V19ZM41.47 22.84v.01a.01.01 0 0 0 .01 0h.01L43.42 19l.01-.01h5.1v.03l-4.5 8.58a.04.04 0 0 0 0 .03L49 36.96c0 .02 0 .04-.02.04h-5.24c-.02 0-.03-.02-.04-.04l-2.27-4.49a.01.01 0 0 0-.02 0l-2.25 4.5c0 .02-.02.03-.04.03h-5.1l-.01-.02a.02.02 0 0 1 0-.02l4.87-9.26v-.03l-4.6-8.64V19l.01-.01H39.57v.02l1.9 3.82Z" fill="#004C97"/><path d="M27.5 37a8.1 8.1 0 0 1-3.25-.69 8.49 8.49 0 0 1-2.76-1.95 9.05 9.05 0 0 1-1.84-2.92 9.46 9.46 0 0 1 1.84-9.8A8.27 8.27 0 0 1 27.5 19c2.25 0 4.42.95 6.01 2.64A9.28 9.28 0 0 1 36 28c0 2.39-.9 4.68-2.49 6.36A8.27 8.27 0 0 1 27.5 37ZM26 31.62c0 .9.78 1.66 1.67 1.56.58-.07 1.1-.47 1.28-1.04.05-.14.05-.3.05-.49v-7.43c0-.1 0-.22-.04-.35-.35-1.14-1.72-1.61-2.51-.6-.22.28-.45.65-.45 1v7.35Z" fill="#004C97"/></svg>