<!-- by TradingView --><svg width="56" height="56" xmlns="http://www.w3.org/2000/svg"><path fill="url(#paint0_linear)" d="M0 0h56v56H0z"/><path d="M20.489 31.8c.032-.632.17-2.269.796-3.986.626-1.723 1.727-3.506 3.646-4.51.273-.146.663-.232 1.107-.232.748 0 1.614.248 2.261.745.653.502 1.096 1.215 1.102 2.258 0 .491-.102 1.058-.353 1.706-.663 1.221-.941 2.188-.946 3.014a3.182 3.182 0 00.604 1.89c.155.222.326.416.502.605 1.08 1.583 2.256 2.55 3.507 3.198.77.4 1.561.686 2.374.934a7.595 7.595 0 01-.374.011c-1.32 0-2.85-.297-4.037-.6a38.148 38.148 0 01-1.47-.41 19.107 19.107 0 01-.566-.184l-.888-.313.401.859c.797 1.723 2.15 2.641 3.427 3.143.262.103.524.195.78.27-1.277-.027-2.598-.28-3.608-.534-.54-.135-.99-.27-1.31-.367a16.104 16.104 0 01-.492-.168l-.914-.335.422.88a4.972 4.972 0 001.535 1.853 11.466 11.466 0 01-1.716-.491c-1.257-.481-2.027-1.07-2.668-1.583-1.331-1.08-2.94-2.884-3.138-7.394.01-.016.01-.108.016-.26zm13.702 4.007c1.438.222 2.79.233 3.357.368.722.162 1.604.578 2.331 1.215.727.643 1.294 1.49 1.449 2.544.032.216.048.47.048.74.005.961-.246 2.139-.871 2.927a4.11 4.11 0 00-.412-.61c-.492-.594-1.369-1.205-2.694-1.226a41.717 41.717 0 00-.904-.011c-.62 0-1.32.01-2.09.027h-.022c-.032 0-1.245.06-1.277.06a26.299 26.299 0 01-2.374 0c-.01 0-.016-.006-.027-.006a5.592 5.592 0 01-1.609-.567 4.577 4.577 0 01-1.337-1.064c1.134.33 3.016.778 4.855.778.786 0 1.56-.081 2.283-.297l1.4-.422-1.422-.35c-.69-.168-1.834-.282-2.999-.746-.914-.367-1.818-.924-2.502-1.88 1.24.367 3.432.924 5.346.93.802 0 1.556-.098 2.197-.368l1.038-.443-1.08-.308c-1.38-.394-2.641-.729-3.79-1.328a8.363 8.363 0 01-.632-.368 10.22 10.22 0 001.738.405zm.22-9.619c0-1.464-.38-3-1.044-4.188H35l3 4.5-3 4.5h-2.231c1.042-1.361 1.641-2.905 1.641-4.812zm7.692 13.632c-.187-1.28-.877-2.295-1.71-3.03-.84-.734-1.824-1.199-2.679-1.393-.743-.162-2.02-.162-3.41-.378-1.38-.21-2.818-.632-3.76-1.523a11.076 11.076 0 01-.026-.027.268.268 0 00-.048-.044l-.118-.118h-.005l-.01-.011a5.12 5.12 0 00.347-.205c.84-.584 1.555-1.286 1.973-1.81V34H40v-3h-1l1.5-2 1.5 2h-1v3h7v-3h-2l-3-4.5 3-4.5h2v-3h-7v3h1l-1.5 2c.027-.027-1.5-2-1.5-2h1v-3h-7v2.586c-1.46-2.165-3.354-3.558-6.69-3.586-3.335-.028-6.31 2.22-6.31 3.44V19H8v3h2v9H8v3h7v-3h-2v-3h4v-3h-4v-3h3v2h2.543c-.225.75-.348 1.346-.348 2.172 0 1.215.262 2.37.733 3.408l.005-.005c.23.496.502.966.823 1.404-.07.653-.07 1.07-.07 1.08v.016c.177 4.7 1.979 6.838 3.438 7.994.652.524 1.524 1.188 2.882 1.701 1.144.438 2.63.767 4.64.864.032.006.06.006.06.011v-.005c.352.016.72.027 1.111.027.417 0 .855-.011 1.31-.027.048 0 1.235-.06 1.294-.065h.005c.76-.016 1.454-.027 2.058-.027.321 0 .62.005.888.01 1.101.028 1.716.487 2.112.946.192.232.32.464.4.632.038.086.065.156.08.2.011.021.011.043.017.054l.005.01.16.6.47-.394c1.193-1.01 1.54-2.658 1.546-3.932 0-.303-.021-.594-.059-.854z" fill="#F60"/><defs><linearGradient id="paint0_linear" x1="10.418" y1="9.712" x2="68.147" y2="76.017" gradientUnits="userSpaceOnUse"><stop stop-color="#1A1E21"/><stop offset="1" stop-color="#06060A"/></linearGradient></defs></svg>