<!-- by TradingView --><svg width="56" height="56" viewBox="0 0 56 56" xmlns="http://www.w3.org/2000/svg"><path fill="#2872DB" d="M0 0h56v56H0z"/><path d="M15.7 27H26v3H15.7v-3Zm.3 11h-3V18h14v3H16v17ZM35.5 38c-2.55 0-5.53-.62-7.5-2.33l1.2-2.8A10.3 10.3 0 0 0 35.5 35c1.64 0 4.5-.38 4.5-2.5 0-2.06-2.97-2.65-4.5-3-3.18-.75-6.5-2.1-6.5-6 0-4.12 3.39-5.5 6.97-5.5 2.15 0 4.45.5 6.25 1.72l-1.1 2.8A10.05 10.05 0 0 0 35.94 21c-1.7 0-3.94.38-3.94 2.5 0 2.11 2.68 2.63 4.24 3.03 3.16.72 6.76 1.81 6.76 5.7 0 4.12-3.94 5.77-7.5 5.77Z" fill="#fff"/></svg>