<!-- by TradingView --><svg width="56" height="56" viewBox="0 0 56 56" xmlns="http://www.w3.org/2000/svg"><path fill="#F0F3FA" d="M0 0h56v56H0z"/><path d="M13 13h11.46l.03.07-.36.22-.78.49a10.5 10.5 0 0 0-2.65 2.2A6.35 6.35 0 0 0 19.4 22a2.54 2.54 0 0 1-.44 2.4 10.6 10.6 0 0 0-1.4 2.28c-.31.77-.57 1.52-.22 2.37l-.14.05-.26.08a2.36 2.36 0 0 0-1.78 2.1 3.54 3.54 0 0 0 1.29 2.96c.23.2.5.37.78.53l.35.22.17.1.08.04c-.01.31-.23.34-.43.36l-.52.02-.39.01c-.3 0-.6.04-.9.08a1.55 1.55 0 0 0-1.16.9l-.06.3.42-.03.85-.05c.97 0 1.93.16 2.83.5.8.28 1.44.8 2.05 1.37l1.64 1.49.92.83c.56.5 1.24.8 1.96 1.02.74.22 1.48.46 2.22.7.2.08.4.2.54.36H13V13Zm11.75 4.86c.12.05.24.1.35.18 1.07.9 2.11 1.8 3 2.89a.83.83 0 0 1 .2.7c-.03.2-.12.39-.24.54l-.61.67c-.18.19-.36.37-.53.57-.2.22-.38.47-.53.73a1.9 1.9 0 0 0-.25 1.51 3.54 3.54 0 0 0 2 2.42c.2.07.41.13.63.17a4.32 4.32 0 0 0 .4-1.43l.06-.3c.2-1 .8-1.74 1.6-2.32.51-.39 1.08-.45 1.66-.1.13.06.26.14.39.22.68.53 1.35 1.07 2 1.63a.6.6 0 0 1-.14.59 5.88 5.88 0 0 0-1.39 2.39c-.15.46-.02.9.2 1.32a.82.82 0 0 0 .7.49c.17-.14.34-.3.5-.46.54-.67.86-1.46 1.18-2.25l.1-.22.12-.3.07-.14c.27.12.23.3.19.45v.02l-.1.35c-.05.12-.09.25-.12.38l-.06.6c.4.11.74.02 1.07-.07.15-.04.3-.08.45-.1a1.44 1.44 0 0 0-.33-1.83 22.3 22.3 0 0 0-.53-.39l-.25-.17.05-.32c.3-.08.5.06.7.2.12.08.23.15.36.2a5.67 5.67 0 0 0 1.81-.47c.1-.05.19-.15.26-.25l.1-.12c-.1-.42-.35-.7-.62-1-.2-.22-.42-.45-.56-.75l.36-2.06-.44-.2-.21.54-.28 1.16-.2.86c-.03.12-.08.24-.13.36-.33-.02-.32-.22-.28-.4l.14-.6.07-.3c.14-.56-.01-.88-.62-1.19l-.14.12c-.11.09-.23.18-.33.29-.28.26-.56.4-.96.25-.15-.05-.34 0-.52.06L35 23l-.16.06c-.16.06-.33.13-.56.02.17-.35.42-.63.68-.92.27-.32.55-.64.75-1.04h-1.04l-.04-.37c.57-.43 1.22-.42 1.91-.4h.2c.01-.18.02-.37 0-.56l-.31-1.63-.03-.12c-.1-.44-.3-.86-.6-1.21-.18-.25-.38-.47-.61-.67l-.32-.26c-1.4-1.14-2.82-2.28-4.61-2.8a1.36 1.36 0 0 1-.2-.1h12.86c.1.4.13 29.42.02 29.98h-4.91l-.56-.74-1.29-1.74a9.25 9.25 0 0 0-2.81-2.67 4.29 4.29 0 0 0-.56-.23c-.08.35-.04.72.13 1.04l.56 1.28.34.77.36.84.32.74a.75.75 0 0 1 .04.66 1.22 1.22 0 0 1-.24-.09l-.57-.35c-.93-.58-1.87-1.15-2.8-1.74a4.42 4.42 0 0 1-1.28-1.35l-.09-.13-.85-1.32a5.66 5.66 0 0 0-2.23-2.1 64.3 64.3 0 0 0-1.6-.8 142.46 142.46 0 0 1-1.26-.62.44.44 0 0 1-.28-.48c.1-.22.28-.24.47-.25a.85.85 0 0 0 .78-.74c.08-.43.02-.88-.15-1.29a5.72 5.72 0 0 0-.56-1.08c-.63-.88-.63-1.83-.33-2.8.24-.76.66-1.41 1.1-2.06.65-1 .88-2.08.6-3.25a4.9 4.9 0 0 0-.26-.63h-.12a2.3 2.3 0 0 0-.15.39c-.13.74-.55 1.4-1.15 1.85-.3.25-.58.52-.85.8-.7.71-.83 1.6-.79 2.54.03.56.24 1.1.58 1.54.7.95.7 2.02.3 3.1-.29.75-.98.83-1.5.2l-.16-.2c-.18-.24-.37-.49-.7-.61l-.27.14c-.1.82 0 1.01.97 1.97-.16.2-.36.2-.58.12a2.91 2.91 0 0 1-1.91-2.32c-.25-1.25.1-2.38.73-3.44.44-.76 1-1.45 1.66-2.05a7.33 7.33 0 0 0 2.28-4.04c.16-.74.28-1.5.4-2.25.06-.45.23-.88.5-1.26.15-.17.32-.34.5-.48Zm9.11 14.88.02.22c.01.15.02.29.05.42.12.73-.3 1.11-1 .89a9.59 9.59 0 0 1-1.36-.56c-.96-.45-1.97-.82-3-1.09-.5-.14-1.02-.2-1.55-.17-.23.01-.47.03-.63.27.19.33.5.5.8.67h.01l.37.2c.22.1.45.22.65.36.43.28.85.58 1.27.87l.9.63c.3.22.62.42.95.58 1.22.53 2.76.06 3.66-.9a1.39 1.39 0 0 0 .3-1.6c-.22-.48-.6-.77-1.1-.97l-.34.18Zm1-1.41a5 5 0 0 1 1 1.38l.16.31.2.3a1.04 1.04 0 0 0 .94.47c.71-.52.8-.9.37-1.64l-.02-.05c-.34-.48-.35-.93.06-1.38.18-.2.36-.42.27-.75-.19-.25-.4-.5-.77-.44-.44.05-.87.15-1.27.31-.62.29-.86.86-.95 1.49ZM31.5 17.67a.4.4 0 0 0-.28.13l.01.44c.03.22.08.43.16.64.3.69.34 1.46.14 2.18-.06.25-.08.5-.08.75a.78.78 0 0 0 .34.7c.19-.01.37-.05.54-.11.31-.13.6-.3.9-.47.69-.44.78-.74.57-1.54a4.42 4.42 0 0 0-1.22-2.01c-.24-.23-.5-.44-.8-.62a.4.4 0 0 0-.28-.1Z" fill="#1A4379"/></svg>