<!-- by TradingView --><svg width="56" height="56" viewBox="0 0 56 56" xmlns="http://www.w3.org/2000/svg"><path fill="#F0F3FA" d="M0 0h56v56H0z"/><circle cx="28" cy="28" r="16" fill="#13216A"/><path fill-rule="evenodd" d="M25 24v13h10.83c1.74 0 2.17-1.27 2.17-1.91V32.4c0-1.53-1.2-1.91-1.8-1.91 1.44 0 1.8-1.27 1.8-1.91v-2.3c0-1.83-1.93-2.29-2.89-2.29H25Zm3 2v3.5h6a1 1 0 0 0 1-1V27c0-.5-.42-1-1-1h-6Zm0 5.5V35h6c.39 0 1-.5 1-1.06V32.5c0-.5-.42-1-1-1h-6Z" fill="#6CAEDF"/><path d="M31 19H18v13h3v-6h6v-2h-6v-3h10v-2Z" fill="#fff"/><path d="M45 28a17 17 0 1 1-34 0 17 17 0 0 1 34 0ZM28 44a16 16 0 1 0 0-32 16 16 0 0 0 0 32Z" fill="#6BADDE"/></svg>