<!-- by TradingView --><svg width="56" height="56" viewBox="0 0 56 56" xmlns="http://www.w3.org/2000/svg"><path fill="#275D38" d="M0 0h56v56H0z"/><path d="M20.1 20h-.28l.36.25v-.13L20.1 20Zm-3.61 0c0 .96.05 3.09.2 4 .16.91.53 2.33.7 2.93.88.68 2.84 2.22 3.57 3.03v-2.09l-2.57-2c-.22-.16-.68-.56-.73-.82l.84.68c.07 0 .21.03.31.12l1.37.91.82.54v-.53l-1.88-1.35c-.2-.14-.63-.46-.85-.6-.28-.2-.82-.72-.71-.93.16.16.5.5.6.54.1.05.52.3.7.42l.71.57.26.03 1.17.82v-.9l-1.23-.77c-.2-.2-.73-.65-1.13-.92-.5-.33-1.28-.97-1.34-1.36.13.18.49.58.87.76.47.21 1.33.7 1.8 1.18l1.03.6v-.9c-.3-.14-1-.52-1.42-.88-.15-.14-.38-.3-.63-.47-.62-.42-1.35-.93-1.34-1.32-.02-.05.07-.02.5.39.53.52.98.77 1.12.8l.27.18c.34.22.91.6 1.5.78v-.71c-.41-.23-1.34-.76-1.72-1.03-.38-.26-.82-.53-.99-.63a3.26 3.26 0 0 1-.36-.26c-.14-.1-.35-.24-.32-.34.06.06.25.2.44.26.24.07.52.21.7.34.11.1.63.35 1 .53l.34.17.4.28.16.11.35.11a1.1 1.1 0 0 1-.15-.29l-.03-.2c-.1-.1-.35-.3-.5-.38l-.8-.38a9.35 9.35 0 0 1-1.41-1.01h-1.62Zm1.88 0c.55.37 1.78 1.15 2.29 1.36l-.28-.7-1-.65h-1.01Zm-4.73 0h-1.77c.16.6.5 1.92.56 2.43.08.64.53 1.76.69 2.13.15.37 1.02.83 1.57 1.06.43.18 1.17.6 1.5.78l-.17-1.08c-.25-.19-.77-.58-.89-.65a3.69 3.69 0 0 0-.31-.16 2.36 2.36 0 0 0-.5-.32 4.2 4.2 0 0 1-.78-.51c-.23-.17-.4-.45-.47-.58.1.13.81.5 1.2.7l.2.1 1.46.85-.07-.5a28.46 28.46 0 0 1-1.94-1.22c-.14-.07-.34-.16-.58-.36a1.26 1.26 0 0 1-.47-.65c.09.22.98.73 1.27.84.24.1 1.2.59 1.65.82l-.06-.52c-.26-.16-.77-.49-.81-.49-.05 0-.19-.07-.29-.18-.08-.1-.16-.1-.2-.1a2.7 2.7 0 0 0-.61-.49 4.07 4.07 0 0 1-.84-.78l2.65 1.55v-.48c-.57-.39-1.8-1.21-2.2-1.41-.4-.2-.65-.56-.72-.71.14.11.5.39.84.56l2.06 1.06v-.5L13.64 20Zm.55 0 1.47.74v-.41l-.47-.32h-1Zm-6.1 0 1 2.66c.09.2.37.64.8.76.42.13 1.59.64 2.12.88.02-.12-.02-.41-.41-.6-.49-.22-2.1-1.24-2.22-1.46.13.09.44.27.63.34.23.08 1.14.41 1.66.76v-.19a16.3 16.3 0 0 1-1.13-.76l-.36-.25c-.41-.28-.97-.65-.98-.92.38.25 1.19.76 1.42.87.23.1.7.39.91.51v-.48a10 10 0 0 0-1.18-.8c-.39-.19-1.31-.76-1.37-1.09.26.18.87.56 1.2.71.32.15.93.5 1.2.65l-.2-.79-1.43-.8H8.1Zm2.21 0 .78.42-.13-.42h-.65Zm-2.25 5.03V23.7c.24 0 .74 0 .88-.05.7.46 2.4 1.3 3.18 1.67-.44.1-1.34.3-1.48.31l-.51.14-.44.13c-.21.05-.46.17-.7.28l-.13.07c-.23.1-.63.16-.8.18v-.24c.35-.09.55-.23.7-.35.11-.08.2-.14.3-.16.24-.03.5-.1.63-.16a.43.43 0 0 1 .19-.04c.05 0 .1 0 .1-.04.01-.05-.12-.08-.19-.08-.3.16-.54.17-.68.18-.07 0-.12 0-.14.02-.07.04-.63.24-.9.34v-.58l1.03-.44c-.45-.04-.88.09-1.04.15ZM17 28.5a4.87 4.87 0 0 0-1.74.08c-.38.13-.47.2-.5.24-.03.02-.04.03-.09.03-.12 0-.27 0-.46.03-.1.02-.25.09-.39.15s-.27.12-.32.11a.44.44 0 0 1-.15-.04c0 .04 0 .12-.06.12-.07 0-2.4 1.04-2.83 1.33l-.44-.28c.23-.2.77-.64 1.1-.79.34-.15.72-.36.86-.45-.23-.01-.82.06-1.38.45-.56.4-.81.53-.87.55l-.45-.41.52-.34.66.15-.4-.29c.15-.13.55-.42.85-.54l.46-.2c.04-.04.05-.1-.21 0l-.56.2-.2-.16c.3-.13.96-.4 1.31-.45.45-.06-.33-.08-.84.04-.4.1-.63.2-.7.24l-.33-.21c.18-.1.58-.3.8-.35.22-.04.55-.06.69-.06a2.07 2.07 0 0 0-.69-.1c-.22.02-.86.25-1.16.37l-.14-.13.68-.3a.42.42 0 0 0 .2-.13 1.04 1.04 0 0 0-.58.06c-.24.1-.47.22-.56.27l-.34-.33c.28-.07.88-.23 1.06-.31.22-.1.97-.41 1.27-.41.3 0 1.79.51 2.85 1.07a4.02 4.02 0 0 0-2.38-1.17c.05-.04.2-.11.44-.11.26 0 .82.18 1.04.25l.08.02c.1.03 1.96.7 2.65 1.5.02-.06.02-.2-.22-.37-.3-.22-1.72-1.16-2.31-1.38.92.07 3.05.76 3.78 2.05Zm-8.21-.76-.3-.29-.42.26.3.24.42-.2Zm.15.2v-.01a.14.14 0 0 1 .16 0c.07.06-.05.13-.19.19s-.23.05-.23.02c.06-.1.22-.19.26-.2Zm.44.72-.22-.23.34-.22.35.19c-.01 0-.04 0-.1.03l-.37.23ZM8 28.45l.12.1.19-.13-.14-.12-.17.15Zm.55.6-.2-.2.29-.19.21.18-.3.2Zm.29.2.17.2.43-.27-.22-.16-.38.22Zm.94-.23-.23-.16c.19-.11.58-.34.66-.34.08 0 .23.08.3.13l-.73.37Zm-1.37.53.14.17-.33.2-.1-.18.29-.2Zm.47.97-.38-.38.34-.22.41.35-.37.25Zm-.8-.13.35.36-.35.23v-.6Zm.63 1.24-.34-.36.44-.24.4.3-.5.3Zm.53-.86.35.33.44-.28-.44-.31-.35.26Zm-.65.85h-.3l.08.13.22-.13Zm-.08 1.42.32.33.26-.12c-.06-.1-.26-.27-.58-.2Zm1.01.01-.2-.3.5-.17.24.25-.54.22Zm-1.32.97.2.24.34-.2-.18-.17-.36.13Zm1.08-.14-.18-.17.26-.13.14.12-.22.18Zm.57-.5.1.11.57-.3-.14-.13-.53.32Zm1.26.89-.79-.55.54-.3.85.6-.6.25ZM9.76 34l.59.54-.17.14-.6-.53.18-.15Zm-.66.38-.28.12.65.5.18-.11-.55-.51Zm-1.04.48.62.4-.2.12-.42-.24v-.28Zm1.42.98-.42-.24-.06.1.32.2.16-.06Zm.3-.5.2-.16.44.26-.28.14-.36-.24Zm.96-.55-.17.14.33.31.24-.12-.4-.33Zm.76-.27.57-.3.39.24-.57.34-.4-.28Zm2.03.45-.82-.32-.46.32.57.41.71-.41Zm-.3.63.79.23.5-.5-.63-.22-.65.5Zm2.1.39h-.84l.52-.58.63.17-.53-.26.65-.62.46.5-.9.79Zm.55-1.32.56.34.44-.4-.46-.37-.54.43Zm1.2-.15-.54-.37.22-.2a.76.76 0 0 0-.3.01c-.13.04-.57.34-.83.53l-.16.1-.77.56-.46-.27a52.56 52.56 0 0 1 1.73-1.22c-.28-.03-.94.31-1.18.45l-.87.59-.68-.36c-.03.01-.03 0 .2-.14.22-.14 1.17-.62 1.61-.85-.08 0-.3.04-.54.12-.3.11-1.56.71-1.56.73l-.27-.16.32-.15a.4.4 0 0 0 .21-.28l.46-.16c.06-.02.1-.06.15-.11.07-.08.16-.17.34-.21.25-.07.44-.35.5-.48-.24.13-.78.41-.97.48-.19.06-.98.48-1.35.69l-.9-.62c.4-.2 1.26-.62 1.45-.7.18-.08.41-.22.5-.28-.2.03-.73.22-1.1.36l-.36.13c-.14.04-.63.23-.86.32l-.2-.27.83-.43c.3-.14.96-.44 1.26-.5.31-.06.47-.04.5-.02-.01-.04-.07-.13-.16-.13-.12 0-.94.13-1.14.17-.15.04-1.1.52-1.55.75l-.24-.25c.1-.1.42-.32.77-.45.44-.16 1.03-.6 1.28-.85.2-.2.71-.52.95-.66l.93.43.69.38c.25.14.58.35.71.44l-.04-.18a11.1 11.1 0 0 0-.74-.46c-.13-.1-.3-.22-.46-.3-.2-.1-.54-.34-.69-.45a9 9 0 0 1 .58-.12c.75.18 3.12 1.8 3.7 2.2l.11.07c.18.12.26.09.27.05a17.1 17.1 0 0 0-3.66-2.51l.53-.03c.19.07.64.24.98.34.35.1 1.67.99 2.29 1.42l.09-.05c-.48-.4-1.53-1.21-1.88-1.37l-.93-.4c.3 0 .9-.04.93-.04.04 0 1.5.97 2.1 1.42.49.36 1.17 1.07 1.45 1.37v-.15l-.21-.2v-.16a.78.78 0 0 1-.26-.18c-.07-.09-.38-.51-.38-.55 0-.03-.65-.54-.91-.7-.21-.13-.8-.59-1.07-.8 1.7.17 2.92 1.97 3.32 2.85h-.11l-1.26.38c-.17-.09-.52-.27-.56-.22-.06.06.35.28.37.28l-.51.3c-.18-.17-.6-.51-.84-.6-.25-.09-.4-.06-.45-.04l1.06.68c-.1.09-.3.26-.32.26a2.48 2.48 0 0 0-.98-.66c.07.18.55.57.79.75l-.94.68Zm-5.83.95.17-.16.73.5-.1.11-.8-.45Zm-.13.52-.37-.26-.2.1.2.16h.37Zm5.4.01h.49l-.2-.21-.29.21Zm1.91 0h-.48l.29-.21.2.21Zm-1.33-.48.3.37.5-.31-.4-.44-.4.38Zm1.06-.13-.45-.37.34-.21.4.37-.29.21Zm.1-.69.53.32.22-.15-.5-.31-.26.14Zm.52 1.16a1.8 1.8 0 0 1-.24-.27l.16-.11.26.26-.18.12Zm.35-.64.33.27.17-.17-.3-.24-.2.14Zm.92-.04-.36-.26.4-.12.37.27-.41.1Zm-1.1-.84.52.36.34-.1c-.02 0-.45-.28-.67-.41l-.2.15Zm1.12 1.65-.34-.34.19-.1.44.44h-.3Zm.27-.62.63.49v-.33l-.4-.35-.23.19Zm.64-.31c-.31-.25-1.08-.79-1.43-1.02l.52-.21.91.73v.5Zm-.5-1.3.51.4v-.5l-.5.1Z" fill="#6BBE4A"/><path fill-rule="evenodd" d="M40 24.9v-4.8c0-.05.05-.1.12-.1h1.23c.06 0 .11.05.11.1v3.59h1.96c.06 0 .12.05.12.1v1.1c0 .06-.06.11-.12.11h-3.3c-.07 0-.12-.05-.12-.1ZM29.5 20.1c0-.06.05-.1.12-.1h1.26c.07 0 .12.04.12.1V22h1.5v-1.89c0-.06.05-.1.12-.1h1.26c.07 0 .12.04.12.1v4.78c0 .06-.05.11-.12.11h-1.26a.11.11 0 0 1-.12-.1V23H31v1.9c0 .05-.05.1-.12.1h-1.26a.11.11 0 0 1-.12-.1V20.1Zm-5.6 4.86L22 20.15c-.02-.07.04-.15.12-.15h1.16c.05 0 .1.03.11.07l.9 2.2.77-2.2a.12.12 0 0 1 .11-.07h.7c.04 0 .09.03.1.08l.76 2.19.94-2.2a.12.12 0 0 1 .1-.07h1.11c.08 0 .14.08.11.15l-1.9 4.82c0 .02-.03.03-.05.03h-.58a.06.06 0 0 1-.05-.03l-.89-2.1-.92 2.1c0 .02-.03.03-.05.03h-.59a.06.06 0 0 1-.05-.03Zm15.6-2.47a2.5 2.5 0 1 1-5 0 2.5 2.5 0 0 1 5 0Zm-1.5 0c0 .69-.45 1.25-1 1.25s-1-.56-1-1.25.45-1.25 1-1.25 1 .56 1 1.25Zm6.67 2.5a.17.17 0 0 1-.17-.16v-4.68c0-.09.08-.16.17-.16h3.16c.1 0 .17.07.17.16v.97c0 .09-.08.16-.17.16H46V22h1.11c.1 0 .17.06.17.15v.9c0 .08-.08.16-.17.16H46v.49h1.83c.1 0 .17.07.17.16v.98c0 .09-.08.16-.17.16h-3.16ZM33 30.89V26.1c0-.06.05-.11.12-.11h2.98c.4 0 1.22.33 1.22 1.7 0 1-.49 1.41-.93 1.54l.98 1.67c.02.04 0 .09-.05.09h-1.34c-.02 0-.04-.02-.05-.04l-.94-1.67h-.54v1.6c0 .06-.06.11-.12.11h-1.21c-.07 0-.12-.05-.12-.11ZM34.43 27h1.13c.2 0 .36.16.36.36v.28c0 .2-.16.36-.36.36h-1.13v-1ZM22 26.16v4.68c0 .09.08.16.18.16h4.1c.1 0 .17-.07.17-.16v-.98c0-.09-.08-.16-.18-.16h-2.76v-.5h1.31c.1 0 .18-.07.18-.16v-.88c0-.09-.08-.16-.18-.16h-1.31v-.71h2.76c.1 0 .18-.07.18-.16v-.97c0-.09-.08-.16-.18-.16h-4.1c-.1 0-.17.07-.17.16ZM27.12 31h1.2c.04 0 .08-.03.1-.07l.16-.34h2.2l.17.35c.02.03.06.06.1.06h1.21c.09 0 .15-.08.11-.15L30.1 26.1a.18.18 0 0 0-.16-.1h-.47a.18.18 0 0 0-.17.1l-2.28 4.75c-.03.07.02.15.1.15Zm3.1-1.58-.55-1.11-.53 1.11h1.07Zm7.9-3.42c-.07 0-.12.05-.12.11v1c0 .06.05.11.12.11h1.36v3.67c0 .06.06.11.14.11h1.22c.08 0 .14-.05.14-.11v-3.67h1.4c.07 0 .12-.05.12-.11v-1c0-.06-.05-.11-.12-.11h-4.26ZM43 30.86c0 .08.07.14.15.14h1.32c.08 0 .15-.06.15-.14V29h1.76v1.86c0 .08.07.14.15.14h1.32c.08 0 .15-.06.15-.14v-4.72c0-.08-.07-.14-.15-.14h-1.32c-.08 0-.15.06-.15.14V28h-1.76v-1.86c0-.08-.07-.14-.15-.14h-1.32c-.08 0-.15.06-.15.14v4.72Zm4.96 1.63-.6.63a1.8 1.8 0 0 0-.96-.4c-.45 0-.66.21-.66.37 0 .15.09.37.9.56.81.18 1.36.61 1.36 1.17 0 .56-.5 1.18-1.65 1.18-.93 0-1.62-.38-1.85-.57l.62-.61c.3.28.99.45 1.19.45.2 0 .68-.01.68-.37 0-.27-.27-.35-.58-.45l-.3-.1-.22-.08c-.47-.17-1.18-.42-1.18-1.08 0-.77.68-1.19 1.67-1.19.79 0 1.38.32 1.58.49ZM22 36v-4h2.11c.44.01 1.3.24 1.3 1.01 0 .48-.4.8-.6.89.27.06.82.35.82.97 0 .77-.79 1.13-1.46 1.13H22Zm1-3.31h1.01a.48.48 0 0 1 0 .96H23v-.96Zm0 1.62h1.14c.3 0 .54.21.54.48 0 .26-.24.48-.54.48H23v-.96ZM26 32v4h1v-1.34h.62l.94 1.34h1.15l-1.02-1.46c.47-.17.92-.5.92-1.17 0-1.05-.97-1.35-1.46-1.37H26Zm1 .76h1c.34 0 .61.27.61.6 0 .33-.27.64-.6.64H27v-1.24ZM31 36h-1l1.75-4h.99l1.74 4h-1.03l-.43-1h-1.59L31 36Zm1.23-2.84.49 1.14h-.98l.49-1.14ZM35 36h1v-2.42L38.07 36H39v-4h-1v2.32L36 32h-1v4Zm6.74-4H40v4h1.74c.75-.03 2.26-.47 2.26-2.04C44 32.4 42.5 32 41.74 32Zm.13.75H41v2.5h.87A1.2 1.2 0 0 0 43 33.98c0-.98-.75-1.23-1.13-1.23Z" fill="#fff"/></svg>