<!-- by TradingView --><svg width="56" height="56" viewBox="0 0 56 56" xmlns="http://www.w3.org/2000/svg"><path fill="#F0F3FA" d="M0 0h56v56H0z"/><path fill-rule="evenodd" d="M28 33c3.1 0 5.9-1.28 7.89-3.33a9 9 0 1 1-15.78 0c2 2.05 4.8 3.33 7.89 3.33Zm0-2a8.98 8.98 0 0 0 6.7-3 8.98 8.98 0 0 0-13.4 0 8.98 8.98 0 0 0 6.7 3Zm0-8c3.1 0 5.9 1.28 7.89 3.33a9 9 0 1 0-15.78 0c2-2.05 4.8-3.33 7.89-3.33Zm9.8 4a11 11 0 1 0-19.6 0H13c-.62 0-1 .45-1 1s.38 1 1 1h5.2a11 11 0 1 0 19.6 0h5.25c.62 0 .95-.45.95-1s-.33-1-.95-1H37.8Z" fill="#1A303B"/></svg>