<!-- by TradingView --><svg xmlns="http://www.w3.org/2000/svg" width="56" height="56" viewBox="0 0 56 56"><path fill="#F0F3FA" d="M0 0h56v56H0z"/><path d="M6 28.17c0-3.63 1.8-5.88 4-7.87a8.67 8.67 0 0 0 .45 9.85c6.47 8.92 19.12 10.54 24.63 10.24C11.91 43.7 6 32.69 6 28.17z" fill="#06A0E6"/><path d="M50 27.83c0 3.63-1.8 5.88-4 7.87 2.6-4.3.78-8.36-.45-9.85-6.47-8.92-19.12-10.54-24.63-10.24C44.1 12.3 50 23.31 50 27.83z" fill="#D9C271"/><path d="M21.58 19h9.54l-1.17 4h-5.37l-.85 5h4.77l-1.06 4h-4.25l-.81 4h-3.7l2.9-17z" fill="#EA1A3A"/><path d="M37.42 22.6c.26-3.6-3.34-3.7-5.28-3.57L30.96 23c1.34 0 2.31.44 2.01 2.57-.24 1.7-1.24 2.43-1.86 2.43H29.6l-1.13 4h1.76c1.53.04 1.59 1.13 1.43 1.82L31.23 36h3.83l.58-2.66c.62-2.3-.78-3.54-1.56-3.87 2.2-.82 3.01-2.36 3.34-6.87z" fill="#06A0E6"/></svg>