<!-- by TradingView --><svg xmlns="http://www.w3.org/2000/svg" width="56" height="56" viewBox="0 0 56 56"><path fill="#41BF47" d="M0 0h56v56H0z"/><path d="M26.32 33.04l-1.58.44c.13.4.26 1.12.26 2.09V40h2v-4.71c.33-.4.45-.6.84-.6.19 0 .34.05.5.14l.49-1.64a1.55 1.55 0 0 0-1.24-.04c-.33.17-.75.54-1 .9 0-.4-.1-.72-.27-1zM20.2 31H20v9h2v-4h2v-1.5h-2V32h2.76l.11-.59c-1.75-.12-3.33-.1-4.67-.41zm-4.31 10.58l.85 1c.83-.34 1.86-1.08 2.14-2.27.1-.39.12-.63.12-1.89V31h-2v7.63c0 1.03.1 1.42-.04 1.78-.18.4-.6.87-1.07 1.17zM31.5 38.5c-1.63 0-1.78-4 0-4 1.86 0 1.6 4 0 4zm3.1-1.78c0-1.14-.24-1.93-.78-2.59A2.88 2.88 0 0 0 31.5 33c-1.82 0-3 1.55-3 3.78 0 2.23 1.2 3.22 3.03 3.22 2.1.03 3.06-1.4 3.06-3.28zm4.2-1.22c0 .65-.39 1-1.08 1-.62 0-1.03-.29-1.03-1 0-.67.38-1.05 1.04-1.05.67 0 1.07.38 1.07 1.05zm3.12-1.52l-.73-1.17c-.4.38-.9.6-1.39.6-.69 0-1.34-.41-2.04-.41-1.72 0-2.84 1.02-2.84 2.48 0 1.05.47 1.71 1.45 1.98-.4.1-.83.3-1.02.53a.99.99 0 0 0-.2.65c0 .22.05.42.13.58.1.15.22.28.39.35.31.12.82.2 1.6.22l.75.01c.49.03.73.11.93.2.18.12.31.37.31.64 0 .28-.16.55-.42.72-.24.16-.62.23-1.12.23-.81 0-1.27-.3-1.27-.87 0-.24.03-.3.08-.45h-1.62c-.07.14-.15.33-.15.72 0 .48.18.9.55 1.25.6.6 1.6.76 2.55.76 1.05 0 2.07-.25 2.66-.91.37-.41.54-.87.54-1.46a2 2 0 0 0-.58-1.52c-.47-.45-1-.62-2.04-.63l-.95-.02c-.18 0-.3-.07-.3-.16 0-.2.25-.36.71-.58l.26.01c1.44 0 2.48-.88 2.48-2.1 0-.48-.13-.84-.4-1.17.22.03.3.04.46.04.47 0 .84-.15 1.22-.52zM18.73 22.35c-2.2.54-3.7 1.6-3.7 2.82 0 .75.57 1.44 1.52 1.98a2.7 2.7 0 0 1-.44-1.45c.02-1.25 1-2.42 2.62-3.35zM42 27.11c0-.8-.5-1.53-1.32-2.14.07.25.12.5.12.75 0 2.27-3.18 4.23-7.7 5.05.5.05 1.03.08 1.58.08 4.04-.02 7.32-1.68 7.32-3.74zm-2.6-1.24c0-.84-.72-1.61-1.95-2.25.29.35.44.72.44 1.1 0 2.03-4.3 3.67-9.62 3.67-5.3 0-9.62-1.64-9.62-3.67 0-.26.07-.5.2-.74-.85.57-1.33 1.21-1.33 1.9 0 2.2 4.9 3.98 10.93 3.98 6.04 0 10.94-1.81 10.94-3.99zm-4.77-.11c-2.24 1.43-9.1 1.99-12.05.14-2.32-1.45-1.52-3.75-8.15-8.8-.87-.66.17-1.37.81-.91.65.45.06.56 1.37 1.87 2.65 2.65 2.62.27 3.03 1.18.88 1.89 2.81 3.79 2.81 3.79 1.95 1.27 3.5 1.54 6.36-.4 1.82-1.23 1.07 1.96 5.53-.35 1.62-.84 1.55-.27 3.2-2.58.7-.95 2 .74.52.97-.6.1-1.6.74-2.03 1.77-.62 1.53-.36 2.66-1.4 3.32zm-12.38-3.89c-.55-.25-1.13-1.19-1.35-1.56.62-.6.37-1.61 0-2.16-.34-.56-.76-.4-1.22-.91-.47-.51.18-1.84.77-.82 2.22 3.82 3.69 2.24 5.5 2 1.73-.22 3.27.73 3.74-1.96.08-.44.51-.53.55.18.04.73.32 2.5 1.27 2.72a2.1 2.1 0 0 0 1.94-.47c.22-.25.35-.22.44.41.1.63.35 1.5 1.69.53 2.74-1.96 1.95-2.72 3.03-3.23.6-.29 1.57.65.18 1.35-1.99 1.01-2.2 2.25-3.45 3.04-2.1 1.32-1.46.05-4.85-.43-1.31-.18-1.72 1.27-2.74.85-2.33-.96-3.97-.77-5.5.46zm7.34-7.08c.09.58.18.57.39.61.2.06.47-.27.47-.58.01-.32-.14-.5-.44-.5-.32.02-.43.17-.42.47zm10.2 1.04c.25.23.91.08 1.07-.1.4-.44.4-.7.2-1-.2-.3-.63-.25-1.06.06-.43.32-.34.91-.2 1.04zm-.17 2.92c-.21.28-.23.49-.07.64.16.16.5.3.73.12.23-.2.23-.47.04-.7-.2-.25-.48-.25-.7-.06zM18.69 15.3c.32.1.47.4.73.06.14-.17.15-.4-.03-.65-.1-.15-.63-.26-.85-.04-.22.22-.02.58.15.63zm-6.47-.19c.58.36.96.9 1.4.42.15-.17.33-.46.01-1.04-.23-.43-1-.6-1.25-.43-.28.15-.61.78-.16 1.05zm5.34 2.75c.18.19.5.18.69.07.18-.12.15-.4-.03-.65-.1-.15-.44-.24-.66 0-.22.23-.12.44 0 .58z" fill="#fff"/></svg>