<!-- by TradingView --><svg width="56" height="56" viewBox="0 0 56 56" xmlns="http://www.w3.org/2000/svg"><path fill="#02557C" d="M0 0h56v56H0z"/><path d="M12 18.78 37.22 12 44 37.22 18.78 44 12 18.78Zm6.56 4.47-.73.2-.94-3.46c.27-.1.54-.2.82-.27 1.26-.34 1.74-.39 2.73 1.01l.18-.04a21.89 21.89 0 0 1-.54-2.04v-.03a408 408 0 0 1-3.03.82l-1.08.3-1.41.35.05.17c.56-.05.68.16 1.01 1.4l1.34 5.06c.36 1.32.38 1.58-.15 1.82l.05.18a60.54 60.54 0 0 1 2.81-.77l-.05-.18c-.58.06-.7-.18-1.04-1.5l-.66-2.43.68-.18c.87-.23 1.38-.32 1.82.41l.18-.04a15.63 15.63 0 0 1-.6-2.24l-.18.04c.06 1-.52 1.21-1.26 1.42Zm10.17 1.79c.46.18.98.2 1.46.05v.01c.64-.17.72-.3.72-.3l-.03-.1c-.62-.03-2.82-2.22-3.64-3.2 1.22-.81 1.6-1.67 1.32-2.68-.38-1.4-1.7-2.07-3.85-1.5l-.55.17-.98.27-1.45.37.04.18c.57-.06.7.15 1.03 1.38l1.35 5.06c.35 1.32.37 1.58-.17 1.82l.05.18a34.54 34.54 0 0 1 2.86-.77l-.05-.17c-.59.05-.7-.19-1.06-1.5l-.53-2.04.4-.1.99 1c1.05 1.11 1.56 1.64 2.09 1.87Zm4.7-5.4c.44.1.9.07 1.33-.07 1.59-.43 2.34-1.73 2.02-2.9-.35-1.31-1.74-2.12-3.88-1.54l-.49.14a40.14 40.14 0 0 1-2.48.65l.05.18c.58-.05.7.18 1.05 1.5l1.32 4.92c.36 1.32.38 1.59-.16 1.83l.05.18a38.35 38.35 0 0 1 2.84-.77l-.05-.18c-.57.05-.7-.16-1.02-1.39l-1.73-6.44c.16-.12.35-.2.54-.25 1.08-.3 1.84.25 2.2 1.6.32 1.16.19 2.05-.77 2.31-.25.07-.51.09-.77.04l-.05.18Zm-9.37-1.42c.15-.12.34-.21.53-.25 1.03-.28 1.7.3 2.08 1.74.36 1.37.1 2.1-1.02 2.4l-.52.15-1.07-4.04Z" fill="#fff"/></svg>