<!-- by TradingView --><svg xmlns="http://www.w3.org/2000/svg" width="56" height="56"><path fill="#F0F3FA" d="M0 0h56v56H0z"/><path d="M22.18 33.82c-2.46 0-4.93-.6-7.22-1.96-.6-.34-1.2-.77-1.79-1.2a14.17 14.17 0 004.08 8.09l4.93-4.93z" fill="#9B65C3"/><path d="M24.14 41.04a14.02 14.02 0 01-1.96-7.22l-4.93 4.93a14.17 14.17 0 008.08 4.08 9.32 9.32 0 01-1.19-1.79z" fill="#BF63C6"/><path d="M14.96 31.86a14.02 14.02 0 007.22 1.96c0-5.02 2.64-9.87 7.23-12.6l-16.24 9.45c.51.42 1.1.85 1.79 1.19z" fill="#3278B2"/><path d="M14.96 21.23a14.04 14.04 0 00-1.79 9.44l16.24-9.44a14.2 14.2 0 01-14.45 0z" fill="#45A4EC"/><path d="M29.41 21.23l11.23-6.46c-.17-.09-.26-.26-.43-.34l-25.27 6.82a14.23 14.23 0 0014.47-.02z" fill="#08C7FB"/><path d="M38.34 14H27.46a14.5 14.5 0 00-12.52 7.26l25.29-6.83a4.39 4.39 0 00-1.89-.43z" fill="#59F2F6"/><path d="M22.18 33.82c0 2.46.6 4.93 1.96 7.22.34.6.77 1.2 1.2 1.79l9.43-16.24a14.66 14.66 0 01-12.59 7.23z" fill="#D33C4E"/><path d="M34.77 26.59l-9.44 16.24a13.95 13.95 0 009.35-1.79 14.4 14.4 0 01.1-14.45z" fill="#EE5A24"/><path d="M40.6 14.73l-11.26 6.49a14.44 14.44 0 00-7.16 12.6l18.75-18.75a.76.76 0 00-.33-.34z" fill="#25C16F"/><path d="M22.18 33.82c5.02 0 9.87-2.64 12.6-7.23l6.45-11.23c-.08-.08-.22-.12-.3-.3L22.18 33.83z" fill="#8BDF55"/><path d="M41.23 15.36L34.67 26.6a14.38 14.38 0 00.01 14.45l6.84-25.23c-.1-.22-.2-.29-.29-.46z" fill="#FB0"/><path d="M34.69 41.04A14.54 14.54 0 0042 28.46v-10.8a3.3 3.3 0 00-.48-1.84l-6.83 25.22z" fill="#FFA800"/></svg>