<!-- by TradingView --><svg width="56" height="56" viewBox="0 0 56 56" xmlns="http://www.w3.org/2000/svg"><path fill="#F0F3FA" d="M0 0h56v56H0z"/><path d="M30.92 21H29l1.56 1.09-.6 1.91 1.54-1.2 1.55 1.2-.6-1.91L34 21h-1.92l-.58-2-.58 2ZM32.92 14H31l1.56 1.09-.6 1.91 1.54-1.2 1.55 1.2-.6-1.91L36 14h-1.92l-.58-2-.58 2ZM27.42 10H25.5l1.56 1.09-.6 1.91L28 11.8l1.55 1.2-.6-1.91L30.5 10h-1.92L28 8l-.58 2ZM21.92 14H20l1.56 1.09-.6 1.91 1.54-1.2 1.55 1.2-.6-1.91L25 14h-1.92l-.58-2-.58 2ZM23.92 21H22l1.56 1.09-.6 1.91 1.54-1.2 1.55 1.2-.6-1.91L27 21h-1.92l-.58-2-.58 2Z" fill="#DCAB38"/><path d="M19.5 42.5H19v.5h.5c.23 0 .5 0 .5-.25 0-.21-.28-.26-.5-.25Zm0-1.5H19v.5h.5c.22 0 .5-.03.5-.25 0-.24-.27-.25-.5-.25Zm.58 3h-2.03l-.04-.01-.01-.07v-3.87c0-.03.02-.05.06-.05h1.89c.67 0 1.05.37 1.05 1 0 .4-.08.87-.5 1 .46.04.5.57.5 1 0 .61-.27 1-.92 1ZM24.93 41.8l-.38.83h.78l-.4-.84ZM27 43.98l-.05.01h-1.09l-.02-.04c-.08-.17-.14-.44-.21-.6h-1.36c-.07.15-.14.45-.2.58a.1.1 0 0 1-.02.05l-.08.01h-.93c-.04 0-.05-.03-.03-.08.61-1.28 1.23-2.66 1.91-3.9 0-.02.03-.02.07-.02l.07.01c.64 1.27 1.28 2.64 1.92 3.91L27 44ZM32.98 44c-.01 0-.03 0-.05-.02L30 42v1.99l-.04.01h-.9c-.01 0-.03 0-.04-.02a.06.06 0 0 1-.01-.04c-.02-1.25 0-2.44 0-3.86l.01-.05h.05L32 42v-1.99l.04-.01h.9l.05.01v.06a193.82 193.82 0 0 1-.01 3.93ZM38 43.99l-.05.01h-.91l-.04-.01a1.03 1.03 0 0 0-.03-.06c-.2-.43-.4-.99-.63-1.41l-.34.64v.79c0 .04 0 .05-.04.05h-.93s-.03-.02-.03-.05v-3.9c0-.03.03-.04.03-.05H35.97c.03 0 .03 0 .03.05v1.8s.6-1.26.9-1.83c.02-.02.04-.02.07-.02h.9c.05 0 .06.01.04.06-.34.5-.67 1.16-1 1.67.3.71.71 1.5 1.07 2.2.02.02.02.05.02.06ZM18 46h20v-1H18v1ZM20.88 36.31c-.09.16-.2.29-.34.4-.15.1-.32.17-.5.22-.2.05-.4.07-.62.07-.38 0-.68-.07-.92-.22a1.2 1.2 0 0 1-.49-.64c-.02-.06-.01-.1.02-.11l.69-.28.04-.01.02.03c.01.06.04.11.08.17a.75.75 0 0 0 .59.3c.37 0 .56-.13.56-.39a.34.34 0 0 0-.15-.28c-.1-.07-.27-.13-.52-.16h-.07l-.07-.01a1.62 1.62 0 0 1-.46-.11 1.11 1.11 0 0 1-.36-.23 1 1 0 0 1-.23-.35c-.06-.13-.08-.29-.08-.46 0-.19.03-.36.09-.5.06-.16.15-.3.27-.4.13-.1.28-.2.47-.26a2 2 0 0 1 .64-.09c.37 0 .66.08.89.24.22.15.37.35.44.59v.06c0 .02-.02.03-.04.03l-.64.27c-.04.01-.06 0-.07-.02a.55.55 0 0 0-.09-.17.81.81 0 0 0-.14-.14.67.67 0 0 0-.19-.1.59.59 0 0 0-.2-.04c-.2 0-.33.03-.4.1a.33.33 0 0 0-.11.26c0 .13.05.23.16.29.11.06.3.12.54.16h.09l.1.03c.36.05.63.17.83.37.2.19.29.46.29.82 0 .22-.04.4-.12.56ZM25.96 34H25v2.95c0 .04 0 .05-.03.05h-.9c-.05 0-.07 0-.07-.05V34h-.96c-.04 0-.04 0-.04-.03v-.91c0-.03 0-.06.04-.06h2.92c.03 0 .04.02.04.06v.91c0 .03-.01.03-.04.03ZM29.93 34.84l-.38.86h.78l-.4-.86ZM32 36.99l-.05.01h-1.09l-.02-.05a6.4 6.4 0 0 1-.21-.5h-1.36a6.51 6.51 0 0 0-.22.54l-.08.01h-.93c-.04 0-.05-.03-.03-.08l.32-.67c.1-.24.22-.48.34-.72a103.65 103.65 0 0 1 1.25-2.52L30 33l.07.01A192.56 192.56 0 0 1 32 37ZM35.83 34H35v1h.83c.35-.02.66-.15.66-.5 0-.31-.29-.5-.67-.5ZM38 36.96c0 .03-.03.04-.06.04h-1.17c-.04 0-.08-.05-.13-.12l-.7-.88H35v.95c0 .04 0 .05-.04.05h-.9c-.05 0-.06 0-.06-.05v-3.9c0-.03 0-.05.02-.05H36c.8 0 1.5.64 1.5 1.5 0 .45-.06.81-.5 1l.95 1.34c.04.06.06.1.05.12ZM18 39h20v-1H18v1ZM18 32h20v-1H18v1ZM21 26.9a.1.1 0 0 1-.1.1H19v.5h1.9c.06 0 .1.04.1.1v.8a.1.1 0 0 1-.1.1H19v1.4a.1.1 0 0 1-.1.1h-.8a.1.1 0 0 1-.1-.1v-3.82c0-.07.02-.08.06-.08h2.84c.06 0 .1.04.1.1v.8Zm3.94 3.1h-.88c-.05 0-.06 0-.06-.05v-3.9c0-.05 0-.05.06-.05h.88c.06 0 .06 0 .06.05v3.9c0 .04 0 .05-.06.05Zm4.54-.07c-.03.05-.06.07-.1.07-.03 0-.05-.01-.08-.06-.7-1.27-1.39-2.54-2.04-3.83-.05-.09-.05-.11.03-.11h1.06c.06 0 .1.02.12.06.3.7.63 1.4.95 2.1.3-.68.61-1.37.87-2.08.02-.05.06-.08.12-.08h.97c.08 0 .09.01.04.11l-1.94 3.82Zm8.51.06-.06.01h-2.85l-.06-.01-.01-.07v-3.9s.02-.02.05-.02h2.87l.06.02.01.06v.86c0 .05-.02.06-.07.06H36v.5h1.99l.01.07V28.5l-.06.01H36v.5h1.93l.06.01V29.92c.01.02 0 .04 0 .07Z" fill="#101215"/></svg>