<!-- by TradingView --><svg width="56" height="56" viewBox="0 0 56 56" xmlns="http://www.w3.org/2000/svg"><path fill="#F0F3FA" d="M0 0h56v56H0z"/><path d="M8.35 25.9c2.85-1.15 10.34-2.34 17.5 2.13 8.96 5.58 15.35 3.29 17.7 1.9-1.89 2.44-8.58 5.95-20.2.6-1.05-.49-1.95-1-2.82-1.51-2.77-1.61-5.38-3.12-12.18-3.12ZM4 28.13c2.85-1.15 10.6-2.12 17.76 2.34 8.95 5.58 15.1 4.1 17.45 2.71-1.9 2.43-8.64 5.04-20.27-.32-1.08-.5-2-1.04-2.9-1.57-2.72-1.62-5.3-3.16-12.04-3.16Z" fill="#115A77"/><path d="M31.38 23.35c-4.38 2.08-7.9 1.93-9.11 1.6 2.97 2.07 7.67 1.7 12.02 0a21.85 21.85 0 0 1 9.06-1.23c-1.48-1.22-6.5-2.97-11.97-.37Zm4.04 2.18c-4.38 2.08-7.9 1.93-9.1 1.6 2.96 2.07 7.67 1.7 12.02 0a21.85 21.85 0 0 1 9.05-1.23c-1.48-1.22-6.5-2.97-11.97-.37Zm-4.5 3.77c1.2.34 4.73.5 9.1-1.59 5.48-2.6 10.5-.85 11.98.37a21.85 21.85 0 0 0-9.06 1.23c-4.35 1.7-9.06 2.07-12.02 0Z" fill="#7EC7BC"/></svg>