<!-- by TradingView --><svg width="56" height="56" xmlns="http://www.w3.org/2000/svg"><path fill="#F0F3FA" d="M0 0h56v56H0z"/><path d="M30 20.5a8.5 8.5 0 11-17 0 8.5 8.5 0 0117 0z" fill="#D42E24"/><path d="M11 27.765s6.13 3.284 11.081 3.153c3.087-.082 5.224-.694 7.726-1.243 2.502-.548 6.194-1.34 8.537-1.261 2.153.072 6.453 1.25 9.655 4.671 0 0-3.765-3.21-9.978-3.126 0 0-2.974.063-7.797 1.304-5.844 1.504-8.978 1.197-8.978 1.197S15.09 32.452 11 27.765" fill="#D42E24"/><path d="M11 30.381s6.13 3.284 11.081 3.153c3.087-.082 5.224-.695 7.726-1.243 2.502-.548 6.194-1.34 8.537-1.262 2.153.073 6.453 1.252 9.655 4.672 0 0-3.765-3.21-9.978-3.126 0 0-2.974.063-7.797 1.304-5.844 1.504-8.978 1.197-8.978 1.197S15.09 35.068 11 30.38" fill="#D42E24"/><path d="M12 41h1v-2h2v-1h-2v-1.37h2V36h-3v5zM17 35.74h-1v.764h1v-.763zM16 41h1v-4h-1v4zM17.716 41h.96v-1.778c0-.981.419-1.558 1.196-1.558.148 0 .324.016.48.07v-.68c-.184-.032-.314-.054-.573-.054-.5 0-.908.291-1.14.697h-.018V37h-.905v4z" fill="#737477"/><path d="M20.518 40.855l-.046-.02.058-.785.095.05c.33.173.81.26 1.05.26.193 0 .403-.032.562-.111.157-.078.256-.194.256-.365 0-.133-.096-.242-.284-.35a4.301 4.301 0 00-.527-.232l-.167-.067c-.256-.103-.52-.22-.721-.384-.204-.165-.346-.38-.346-.675 0-.422.197-.738.514-.944.315-.205.747-.302 1.222-.302.415 0 .754.069 1.098.152l.061.014-.093.775-.09-.045a2.077 2.077 0 00-.436-.127 2.666 2.666 0 00-.448-.06c-.215 0-.412.037-.551.107-.138.07-.211.166-.211.288 0 .156.1.27.283.373.144.08.324.146.518.218l.176.065c.256.097.521.212.723.383a.922.922 0 01.344.736c0 .436-.216.754-.54.96-.32.206-.747.3-1.177.3-.446 0-.912-.036-1.323-.215z" fill="#737477"/><path d="M26.68 37.009h-1.197v-1.01l-.995.226v.784h-.886v.677h.886v2.245c0 .768.627 1.114 1.525 1.114.277 0 .546-.06.74-.105v-.603c-.13.068-.323.136-.592.136-.398 0-.678-.241-.678-.685v-2.102h1.196v-.677z" fill="#737477"/><path d="M32.58 35.911l.062.017-.157.803-.074-.022c-.47-.144-.72-.206-1.192-.206-.255 0-.525.036-.729.131-.2.094-.33.24-.33.468 0 .2.142.35.397.488.186.1.416.187.664.28.092.034.187.07.283.108.348.136.704.297.975.533.273.238.457.553.457.991 0 .566-.282.962-.73 1.213-.442.248-1.046.355-1.7.355-.462 0-.914-.103-1.34-.21l-.06-.016.112-.815.08.025c.312.1.859.242 1.32.242.255 0 .56-.056.799-.18.237-.125.398-.311.398-.571 0-.245-.148-.418-.4-.566-.21-.124-.481-.223-.77-.329l-.172-.064c-.347-.129-.704-.275-.974-.491-.273-.22-.46-.512-.46-.928 0-.474.243-.837.633-1.078.387-.24.919-.36 1.51-.36.431 0 .946.058 1.398.182zM35.67 41.07c-1.454 0-2.476-.928-2.476-2.07 0-.601.25-1.121.686-1.489.436-.367 1.055-.58 1.79-.58.73 0 1.346.213 1.781.58.435.368.685.888.685 1.49 0 1.14-1.022 2.07-2.466 2.07zm0-3.43c-.893 0-1.41.669-1.41 1.36 0 .326.108.667.337.925.227.256.578.436 1.073.436.49 0 .838-.18 1.064-.436.228-.258.337-.599.337-.925 0-.692-.519-1.36-1.401-1.36z" fill="#737477"/><path d="M38.498 41h1v-5.5h-1V41z" fill="#737477"/><path d="M40.532 38.134l-.098.065-.06-.743.045-.02c.442-.206.97-.353 1.584-.353.682 0 1.2.13 1.55.4.353.27.447.673.447 1.19v1.52c0 .418.013.705.03.807H43v-.412c-.25.222-.653.482-1.358.482-.515 0-.963-.087-1.284-.283a1.034 1.034 0 01-.517-.932c0-.503.355-.824.803-1.016.447-.192 1.006-.265 1.46-.265.317 0 .594 0 .896.012a.831.831 0 00-.29-.592c-.155-.143-.418-.223-.846-.223-.48 0-.993.14-1.332.363zm1.184 2.248c.42 0 .723-.101.92-.261.196-.159.364-.38.364-.634v-.255a15.675 15.675 0 01-.266-.006c-.085-.004-.169-.007-.26-.007-.234 0-.636.014-.977.107-.17.047-.32.111-.426.199a.412.412 0 00-.164.33c0 .16.098.29.256.384.157.094.365.143.553.143z" fill="#737477"/><path d="M45 41h1v-1.778c0-.981.378-1.594 1.156-1.594.148 0 .323.015.48.07v-.645c-.184-.03-.314-.053-.572-.053-.5 0-.832.291-1.064.697V37h-1v4z" fill="#737477"/></svg>