<!-- by TradingView --><svg width="56" height="56" viewBox="0 0 56 56" xmlns="http://www.w3.org/2000/svg"><path fill="#F0F3FA" d="M0 0h56v56H0z"/><path d="M4 31v-7h2v5.5h3V31H4Z" fill="#D70F46"/><path d="M17 31v-7h6v1.5h-4V27h3v1.5h-3V31h-2Z"/><path d="M10 31v-7h4c.98 0 2 .5 2 2 0 .73-.29 1.26-1 1.5.83.2 1 .68 1 1.5 0 1.11-.54 2-2 2h-4Zm2-1.5h1c1 0 1-.23 1-.75 0-.42 0-.75-1-.75h-1v1.5Zm0-2.5h1c1.01 0 1-.35 1-.75 0-.43 0-.75-1-.75h-1V27Z" fill="#D70F46"/><path d="M27 31c-2.5 0-3-1.15-3-3 0-1.86.5-3 3-3 2.42 0 3 1.14 3 3 0 1.85-.56 3-3 3Zm0-1.5c.99 0 1-.48 1-1.3v-.4c0-.82-.11-1.3-1-1.3s-1 .48-1 1.3v.4c0 .81 0 1.3 1 1.3ZM33.5 31c-1.48 0-2.5 0-2.49-2H33c0 .31.17.5.5.5.33 0 .5-.07.5-.5 0-.5-3-.5-3-2 0-1.88 1-2 2.55-2 1.92 0 2.45.5 2.45 2h-2c0-.45-.08-.5-.5-.5-.3 0-.5.12-.5.5 0 .5 3 .5 3 2.06 0 1.45 0 1.94-2.5 1.94ZM38.9 31c-.9 0-1.9-.51-1.9-1.5V27h-.5v-1.5h.5V24h2v1.5h1V27h-1v2.21c0 .38.1.59.5.59h.5v1.03c-.37.1-.71.17-1.1.17ZM44 31c-2.5 0-3-.71-3-3 0-2.3 1-3 3.06-3 2.33 0 2.94 1.12 2.94 2.97v.38h-4.01c0 .84 0 1.15 1.01 1.15.59 0 1.24 0 1.24-.5h1.75c0 1.6-.99 2-2.99 2Zm-1-3.64h2c0-.36-.35-.86-1-.86-.73 0-1 .5-1 .86ZM48 31v-6h2v1c.3-.62.64-1 1.35-1 .28 0 .54.06.65.12v1.6h-.62c-.94 0-1.38.57-1.38 1.5V31h-2Z"/></svg>