<!-- by TradingView --><svg xmlns="http://www.w3.org/2000/svg" width="56" height="56"><path fill="#0171BB" d="M0 0h56v56H0z"/><ellipse cx="25.87" cy="23.03" rx="5.76" ry="5.52" transform="rotate(11.06 25.87 23.03)" fill="#878988"/><path fill-rule="evenodd" d="M31.04 24.08a5.58 5.58 0 01-6 4.36l.3-2.02c-.97-.17-1.71-.33-2.28-.45a3.85 3.85 0 001.45 2.15 3.73 3.73 0 01-1.81-2.23c-.65-.16-1.02-.27-1.23-.34.4.03.78.05 1.15.09a8.25 8.25 0 01-.28-3.09l.01-.03c-.5-.11-.84-.2-1-.25l1.03.07c.2-1.12.59-2.01 1.04-2.7-.66-.14-1.06-.24-1.26-.3.47.02.95.06 1.4.1.93-1.27 2.1-1.77 2.67-1.77-.57.12-1.58.62-2.37 1.8 1.1.11 2.03.25 2.5.36.13-.84.26-1.59.37-2.16 1.67.42 3.01 1.5 3.75 2.87l-1.24-.21a3.8 3.8 0 00-1.85-2.36c.43.25 1.07.97 1.42 2.29l-2.45-.42-.07.37 2.62.45c.14.73.2 1.62.1 2.68l-3.13-.53-.05.39 3.13.52a7.15 7.15 0 01-.9 2.75l-2.66-.44-.05.39 2.48.4a3.78 3.78 0 01-2.16 1.6c.54 0 1.6-.44 2.5-1.55l.6.1-.25-.43-.1-.01c.47-.68.87-1.58 1.09-2.72l1.53.25v.02zm-5.64 1.95l.42-2.83a112.4 112.4 0 01-3.02-.59 8.46 8.46 0 00.17 3.06c1.08.1 1.94.24 2.43.36zm.9-5.82l-.42 2.6c-.5-.12-1.74-.3-3.05-.43.15-1.12.48-2 .88-2.67l2.58.5zm4.79 3.48l-1.52-.26a8.4 8.4 0 00-.21-2.7l1.33.24c.37.84.52 1.78.4 2.73v-.01z" fill="#fff"/><path d="M17.04 23.75c.1-2.08 2.77-3.44 4.13-3.98l-.29.44c-3.05 1.33-3.61 3.1-3.56 3.77.47 3.04 5.8 2.04 8.32 1.02v.34c-1.22.54-3.32.84-4.3.93-.52.05-4.41.16-4.3-2.52zm17.33-3.12a64.51 64.51 0 01-5.69 3.28v.27c1.5-.67 4.15-2.22 5.28-2.96l-2.13 3.11 3.02-3.42 1.18 1.35-.82-1.63 1.27-.74-1.4.26.24-1.9-.72 1.9-2.98-.68 2.75 1.16zM4 33l2.38-7h5.38l-.74 1.75h-2.9L7.66 29h2.38l-.59 1.62H7.09L6.27 33H4zm7.56-6l-1.42 3.74c-.3.75-.31 2.26 2.06 2.26 1.14 0 2.74-.05 3.52-1.75L17.15 27h-1.92l-1.28 3.74c-.17.41-.48.74-1.16.8-.35.02-.97-.13-.7-.93.28-.8 1.02-2.74 1.36-3.6h-1.9zm6.2 0h4.78l-.51 1.57H19.2l-.21.68h2.35l-.53 1.47h-2.36l-.28.8h2.94L20.6 33h-4.88l2.04-6zm21.93 0h-4.78l-2.03 6h4.87l.5-1.49h-2.94l.29-.79h2.35l.54-1.47h-2.36l.22-.68h2.82L39.7 27zm-18.63 6l2.09-6h1.9l-1.53 4.43h2.54L25.49 33h-4.43zm23.75-3.72c.26-.72.27-2.17-1.75-2.27-2.52-.13-4.12 2.11-4.36 3.88-.25 1.76 1.5 2.14 2.42 2.11.92-.03 2.39-.5 3.38-2.4h-1.75c-.15.33-.63.98-1.37.97-.74-.01-.76-.76-.67-1.13.17-.67.8-2.01 1.86-1.99.27 0 .74.18.5.83h1.74zM44.22 33l2.13-6h1.91l-.74 2h1.79l.74-2H52l-2.09 6h-1.93l.78-2.26h-1.79L46.16 33h-1.94zM28.9 26h6.13l-.6 1.72H32.5L30.73 33h-2.28l1.8-5.28H28.2l.69-1.72z" fill="#fff"/></svg>