<!-- by TradingView --><svg width="56" height="56" viewBox="0 0 56 56" xmlns="http://www.w3.org/2000/svg"><path fill="#F0F3FA" d="M0 0h56v56H0z"/><path d="M22.14 22.06c-.07-.05-.13-.05-.17 0a.07.07 0 0 0 0 .07.4.4 0 0 1-.02.24.09.09 0 0 0 0 .07c.16.28-.02.36-.26.4-.24.03-.4.18-.46.44 0 .03 0 .05.03.06.25.14.4.35.45.63 0 .03.01.06.03.08.27.3.45.64.56 1.02.01.03.02.03.05.01.37-.35.84-1.05.5-1.56a.06.06 0 0 1 0-.03l.01-.04.3-.45a.05.05 0 0 1 .04-.02h.02l.02.01c.08.06.17.09.27.06a.08.08 0 0 1 .07.02l.4.37a.1.1 0 0 1 .02.13c-.24.3-.49.6-.57.98a3.5 3.5 0 0 1-.22.7l.03.04c-.03-.01-.05 0-.06.03-.18.45-.36.89-.74 1.14a.06.06 0 0 1-.06 0 2.79 2.79 0 0 1-1.1-.9c-.1-.14-.18-.24-.24-.28.02-.06.01-.1-.02-.14a.06.06 0 0 0-.07-.01c-.1.03-.13.09-.09.15-.03 0-.05 0-.06.02a9.5 9.5 0 0 0-1.16 1.9.13.13 0 0 0 .08.12c.96.44 2.43 1.22 2.93 2.24.01.02.01.05 0 .07l-.5.88c-.58.75-1.12 1.53-1.63 2.33-.05.1-.1.21-.14.33-.12.3-.02.67.05.97 0 .02.02.04.04.06l.74.67c.02.02.03.05.02.08 0 .13-.06.2-.16.2-.62.07-1.16-.1-1.54-.6-.2-.26-.44-.45-.78-.48a.03.03 0 0 1-.02-.05c.18-.37.42-.66.71-.88.26-.54.61-1.19.73-1.77a1.9 1.9 0 0 1 .9-1.37.07.07 0 0 0 0-.06 4.28 4.28 0 0 0-2.4-.58.06.06 0 0 0-.05.03c-.36.65-1.11 1.98-1.8 2.29-.47.2-.94.46-1.41.78-.05.03-.07.07-.07.12-.01-.02-.02-.03-.04-.03l-.03.01c-.52.4-1.08.85-1.25 1.53-.09.36-.12.56-.35.8a.1.1 0 0 0-.02.04v.04c.02.2.17.55.05.76a.06.06 0 0 1-.05.03c-.71 0-.86-.45-.94-1.1-.05-.35-.1-.69-.18-1.03 0-.03 0-.05.03-.06l.86-.37a.1.1 0 0 1 .08 0 .1.1 0 0 0 .07 0 14.5 14.5 0 0 0 .96-1.27c.16-.39.41-.7.76-.9.27-.17.63-.2.84-.48.1-.14.16-.25.16-.32.05-.62.18-1.21.4-1.78a.8.8 0 0 0 .05-.32c-.03-.74.24-1.32.8-1.75.52-.4.74-1.92.85-2.55 0-.02 0-.04-.03-.05l-1.13-.53h-.03c-.4.49-.92 1.44-.75 2.05.05.16.19.28.28.43.01.01.02.03.01.04l-.09.56a.05.05 0 0 1-.05.04c-.2-.03-.38-.02-.56.05l-.06-.01c-.4-.27-.29-.94-.13-1.31.04-.1.06-.2.06-.3 0-.73.1-1.33.36-2.03.3-.44.72-.6 1.27-.65.23.02.44.07.63.12.4.13.7.06 1.07.32.02.02.05.02.07.01.34-.08.74-.02.85-.34a.36.36 0 0 0-.02-.26c-.04-.1-.09-.18-.14-.25 0-.1 0-.21-.03-.35-.07-.4.09-.68.47-.8.75-.26 1.51-.02 1.5.92l.01.07c.1.15.17.32.19.5Z" fill="#1C1E23"/><path d="M21.95 21.56c.1.15.17.32.19.5.77.25 1.44.68 2.02 1.3.02.02.04.02.06 0l3.63-3.1c.02 0 .02-.03 0-.05a8.27 8.27 0 0 0-6.55-3.2c-4.95-.2-9.48 2.03-11.84 6.53a12.11 12.11 0 0 0-1.04 8.82c1.4 4.7 5.8 5.99 10.1 5.57 1.43-.14 2.74-.46 3.95-.96a7.77 7.77 0 0 0 3.54-2.71c.08-.12.13-.26.16-.42.5-2.83 1-5.96 1.5-8.8 0-.03 0-.04-.03-.04h-4.3c-.04-.01-.06.01-.07.04-.17.45-.45 1.17-.83 1.42a.06.06 0 0 1-.06 0 2.79 2.79 0 0 1-1.1-.9c-.1-.14-.18-.24-.24-.28h-.18c-.03 0-.05 0-.06.02a9.5 9.5 0 0 0-1.16 1.9.13.13 0 0 0 .04.09l.04.03c.96.44 2.43 1.22 2.93 2.24.01.02.01.05 0 .07l-.5.88-.3 1.68c0 .03-.02.05-.04.06-.38.25-.8.44-1.29.6-.05.1-.1.2-.14.32-.11.28-.02.65.04.94l.01.03c0 .02.02.04.04.06l.74.67c.02.02.03.05.03.08-.02.13-.07.2-.17.2-.62.07-1.16-.1-1.54-.6-.2-.26-.44-.45-.78-.48h-.01a.03.03 0 0 1-.01-.03v-.02c.18-.37.42-.66.71-.88-1.49.14-2.76.23-4.1-.56-.01-.02-.02-.03-.04-.03l-.03.01c-.52.4-1.08.85-1.25 1.53l-.01.07c-.08.31-.13.5-.34.73a.1.1 0 0 0-.02.08c0 .06.02.13.04.21.05.19.1.4.01.55a.06.06 0 0 1-.05.03c-.71 0-.86-.45-.94-1.1-.04-.35-.1-.69-.18-1.03 0-.03 0-.05.03-.06l.86-.37a.1.1 0 0 1 .08 0 .1.1 0 0 0 .07 0 14.5 14.5 0 0 0 .96-1.27c-1.26-1.45-1.29-3.09-.92-4.89.35-1.69 1.2-3.3 2.66-4.27.3-.44.72-.6 1.27-.65.78-.28 1.6-.41 2.46-.4 0-.1 0-.21-.03-.35-.07-.4.09-.68.47-.8.75-.26 1.51-.02 1.5.92l.01.07Zm-.8 13.68Z" fill="url(#awfgsey1u)"/><path d="M35.03 38h-7.86l2.33-12.94c0-.03.02-.06.05-.06h5.4c.02 0 .03.03.03.05l-1.53 7.83c0 .05.02.12.07.12h.8c3.23.08 6.3-.7 7.43-4.16.85-2.56.56-6.2-2.64-6.77a6.5 6.5 0 0 0-1.04-.07h-8.2c-.04 0-.06-.05-.06-.1l.8-4.85c.01-.02.03-.05.06-.05h8.5A8.82 8.82 0 0 1 48 26.01c-.13 6.82-6.17 12.02-12.97 11.99Z" fill="url(#bwfgsey1u)"/><defs><linearGradient id="awfgsey1u" x1="47.7" y1="21.78" x2="22.37" y2="40.6" gradientUnits="userSpaceOnUse"><stop stop-color="#FC2F0E"/><stop offset="1" stop-color="#EFED4C"/></linearGradient><linearGradient id="bwfgsey1u" x1="47.7" y1="21.78" x2="22.37" y2="40.6" gradientUnits="userSpaceOnUse"><stop stop-color="#FC2F0E"/><stop offset="1" stop-color="#EFED4C"/></linearGradient></defs></svg>