<!-- by TradingView --><svg width="56" height="56" viewBox="0 0 56 56" xmlns="http://www.w3.org/2000/svg"><path fill="#F0F3FA" d="M0 0h56v56H0z"/><path d="M27 17v3.35L22.08 23H22v3l5-2.42v3.16L19 31v-8h-3l11-6Zm-8 16.48V39l3-1.7V31h-3v.7c-3.09.55-5.93 1.39-7 1.78v.93h3.12l3.88-.93Z" fill="#CC1720"/><path d="M12 12h32v23.5c-.7-.32-1.8-.73-3.16-1.15L37 33.43V39l-3-1.7V31h3v.66c1.06.19 2.07.4 3 .64V16H16v14.7c-1.94.36-3.24.83-4 1.2V12Zm25 19v-8h3l-11-6v3.35L33.92 23H34v3l-5-2.42v3.16L37 31Z" fill="url(#a0t1qvr0v)"/><path d="M44 44H12V33.9l1.52-.03c.93-.02 1.82-.05 2.48-.04V40h24v-4.04c1.32.27 2.56.73 3.5 1.08l.5.18V44Z" fill="#CC1720"/><path d="M26 33.53c0-.85.9-1.53 2-1.53s2 .68 2 1.53V37h-4v-3.47Z" fill="#6D6E72"/><defs><linearGradient id="a0t1qvr0v" x1="28" y1="12" x2="28" y2="39.35" gradientUnits="userSpaceOnUse"><stop stop-color="#3A3A3C"/><stop offset="1" stop-color="#7F8084"/></linearGradient></defs></svg>