<!-- by TradingView --><svg width="56" height="56" viewBox="0 0 56 56" xmlns="http://www.w3.org/2000/svg"><path fill="#F0F3FA" d="M0 0h56v56H0z"/><path d="M25.38 17.39a3.68 3.68 0 0 1-5.27.03 3.78 3.78 0 0 1 1.19-6.13 3.74 3.74 0 0 1 4.1.83 3.62 3.62 0 0 1-.01 5.27Z" fill="url(#ab32etkmu)"/><path d="m26.07 45.9 13.78-13.34a3.77 3.77 0 0 0-.02-5.42 4.04 4.04 0 0 0-5.6-.02l-.01.01-13.77 13.34a3.76 3.76 0 0 0 0 5.4 4.07 4.07 0 0 0 5.61.04l.02-.01Z" fill="url(#bb32etkmu)"/><path d="m27.46 19.02-7.31 7.06a3.67 3.67 0 0 0-.02 5.3 3.98 3.98 0 0 0 5.5.02l.02-.01 7.31-7.07a3.67 3.67 0 0 0 .02-5.3 3.98 3.98 0 0 0-5.5-.02l-.02.02Z" fill="url(#cb32etkmu)"/><path d="M39.8 32.8a3.88 3.88 0 0 1-4.33.9 4.03 4.03 0 0 1-1.34-6.52 3.96 3.96 0 0 1 5.65.01 3.86 3.86 0 0 1 .02 5.62v-.01Z" fill="#0BC11C"/><defs><linearGradient id="ab32etkmu" x1="16.39" y1="21.04" x2="24.78" y2="12.51" gradientUnits="userSpaceOnUse"><stop stop-color="#0BC11C" stop-opacity="0"/><stop offset=".87" stop-color="#0BC11C"/></linearGradient><linearGradient id="bb32etkmu" x1="31.14" y1="30.98" x2="16.29" y2="42.16" gradientUnits="userSpaceOnUse"><stop offset=".14" stop-color="#0BC11C" stop-opacity="0"/><stop offset=".64" stop-color="#0BC11C" stop-opacity=".8"/><stop offset="1" stop-color="#0BC11C"/></linearGradient><linearGradient id="cb32etkmu" x1="18.26" y1="48.34" x2="45.09" y2="27.48" gradientUnits="userSpaceOnUse"><stop stop-color="#0BC11C" stop-opacity="0"/><stop offset=".87" stop-color="#0BC11C"/></linearGradient></defs></svg>