<!-- by TradingView --><svg width="56" height="56" viewBox="0 0 56 56" xmlns="http://www.w3.org/2000/svg"><path fill="url(#arwd00bci)" d="M0 0h56v56H0z"/><path fill-rule="evenodd" d="M20.93 28.56c.59-1.75 1.4-3.35 2.4-4.8.02-.02.04-.03.06-.01.02 0 .03.02.02.04a17.68 17.68 0 0 0-1.74 5.57c-.37 2.76 0 5.42 1.1 7.98.8 1.85 1.75 3.43 2.86 4.75.16.2.36.35.58.46 1.42.7 2.78 1.5 4.1 2.37a8.16 8.16 0 0 1 2.86 2.97c.08.16.13.15.13-.03a20.02 20.02 0 0 0-1.96-9.28c-.05-.12-.02-.14.08-.06 1.02.77 2.03 1.7 3.03 2.79.08.08.12.07.12-.05-.1-3.18-.96-5.68-2.57-7.5a8.2 8.2 0 0 1-2.11-4.71.1.1 0 0 1 .05-.1.1.1 0 0 1 .1 0c1.49.77 2.78 1.86 3.87 3.27.4.54.62 1.18.62 1.95 0 .04.02.08.06.1a.1.1 0 0 0 .11-.01 6.62 6.62 0 0 0 2.46-3.13c.02-.06 0-.1-.06-.12-.44-.18-.85-.4-1.24-.65a.36.36 0 0 0-.2-.06c-.21-.01-.42.03-.6.13-.21.1-.42.13-.64.07-.23-.07-.36-.2-.4-.43-.03-.2 0-.43.1-.65a.2.2 0 0 1 .12-.11c.23-.08.46-.07.69 0 .24.1.59.26 1.03.5l.8.4c.3.12.6.2.87.24.32.04.68-.06 1.08-.3.25-.15.55-.38.92-.7.06-.05.07-.1.02-.16l-.14-.17a3.52 3.52 0 0 1-.42-.6 1.14 1.14 0 0 1-.1-.71c0-.06.03-.1.07-.15.1-.1.2-.14.29-.13.14.02.2.1.2.25-.03.38.14.75.52 1.1.05.05.1.06.16.02.3-.22.52-.45.65-.7.16-.3.16-.58-.01-.85l-3.03-4.8a1 1 0 0 1-.15-.62l.01-.21c.04-.4.05-.7.03-.88-.02-.32-.1-.6-.22-.86a7.6 7.6 0 0 0-.46-.76.27.27 0 0 1-.03-.24 4.12 4.12 0 0 0-.07-2.6 5.6 5.6 0 0 0-1.89-2.24 11.4 11.4 0 0 0-2.56-1.49c-.15-.06-.18-.02-.08.1.33.45.55.96.66 1.54.02.11-.01.13-.1.05a7.9 7.9 0 0 0-4.67-2.23 9.78 9.78 0 0 0-6.72 1.35c-.2.13-.18.18.06.17 1.62-.1 3.17.1 4.65.56.2.07.42.17.63.3.13.09.12.13-.04.12a27.27 27.27 0 0 0-7.14.4c-.38.09-.68.23-.9.43a14.79 14.79 0 0 0-4.73 8.26c-.03.16 0 .18.11.05a18 18 0 0 1 8.3-5.6c.38-.12.4-.09.04.1a18.32 18.32 0 0 0-5.26 4.24 15.06 15.06 0 0 0-3.26 5.92c-.06.2-.06.4-.03.6a14.87 14.87 0 0 0 3.89 7.85 21.89 21.89 0 0 0 3.54 3.05c.17.11.22.08.14-.11a17.18 17.18 0 0 1-1.4-5.59c-.13-1.95.12-3.84.74-5.65Zm13.74-4.65c.11.18.08.21-.1.09l-.38-.27h-.03l-.02.04v.02a2.55 2.55 0 0 0 2.28.57c.28-.08.53.01.75.28l.04-.03c.03-.03.03-.06 0-.08a6.5 6.5 0 0 0-.15-.12 2.13 2.13 0 0 1-.55-.57c-.16-.3-.3-.6-.44-.91a2.31 2.31 0 0 0-1.02-1.13 3.2 3.2 0 0 0-1.52-.39c-.08 0-.09.02 0 .05l.04.02.1.05c.24.1.4.17.5.24.18.1.31.23.4.37.04.05.05.11.02.17-.25.59-.23 1.12.08 1.6Z" fill="#E5AC14"/><defs><linearGradient id="arwd00bci" x1="28" y1="0" x2="28" y2="56" gradientUnits="userSpaceOnUse"><stop stop-color="#171516"/><stop offset=".52" stop-color="#2E2E38"/><stop offset="1" stop-color="#18181A"/></linearGradient></defs></svg>