<!-- by TradingView --><svg width="56" height="56" xmlns="http://www.w3.org/2000/svg"><path fill="#00599B" d="M0 0h56v56H0z"/><path d="M16.541 20.37l-.111-.775a.25.25 0 00-.046-.108.107.107 0 00-.089-.045H15v3.562h.989c.036 0 .067-.018.092-.054a.227.227 0 00.05-.099l.073-.379h.392V24h-.392l-.073-.396a.227.227 0 00-.05-.1c-.028-.035-.059-.053-.092-.053h-.99v2.973c0 .041.014.081.04.12.027.038.07.06.126.066l.835.033V27h-3v-.357l.82-.033c.085-.009.18-.095.18-.186v-6.815c0-.098-.033-.181-.172-.195L13 19.392V19h4v1.37h-.459zm5.004 1.037a.168.168 0 00-.126.066.213.213 0 00-.039.12l.001 3.393c0 1.342-.695 2.014-2.02 2.014-.651 0-.999-.163-1.314-.502-.315-.338-.472-.84-.472-1.506l-.001-3.394a.2.2 0 00-.043-.12c-.025-.038-.066-.06-.123-.066L17 21.38V21h2v.38l-.375.024a.168.168 0 00-.127.066.213.213 0 00-.039.12l.001 3.175c0 .716.21 1.735 1.112 1.735 1.02 0 1.344-.852 1.344-1.732v-3.176a.19.19 0 00-.047-.12.169.169 0 00-.127-.066l-.449-.032V21h1.71v.373l-.458.034zm1.024 5.595v-.363l.282-.017c.107-.01.149-.087.149-.186v-4.822c.028.039 0-.04 0 0-.026-.038.005-.144-.14-.185l-.283-.05v-.363h2.01v.363l-.42.033a.181.181 0 00-.13.066.2.2 0 00-.042.12L24 26.589l1.252-.01a.177.177 0 00.108-.041.158.158 0 00.065-.103l.127-.938H26v1.495l-3.431.01zm7.968-4.495l-.112-.936a.198.198 0 00-.046-.103.1.1 0 00-.084-.04L29 21.432v4.99c0 .22.497.208.672.22v.363l-2.325-.014v-.35c.128-.019.65-.03.65-.224l.003-4.99-1.3-.015a.122.122 0 00-.093.04.177.177 0 00-.042.104l-.108.936H26V21h5.002v1.507h-.465zm6.295 1.533c0 .409-.062.794-.184 1.154a2.94 2.94 0 01-.523.945 2.474 2.474 0 01-.807.636 2.354 2.354 0 01-1.049.23c-.386 0-.738-.074-1.056-.222a2.42 2.42 0 01-.81-.627c-.226-.267-.4-.58-.523-.941a3.672 3.672 0 01-.185-1.184c0-.413.05-.847.171-1.208.12-.36.292-.674.515-.94.223-.27.492-.482.807-.636a2.407 2.407 0 011.064-.23c.39 0 .741.078 1.057.234.317.157.587.37.81.64.226.27.398.584.519.945.123.36.194.793.194 1.203zm-.91.007c0-.344-.045-.715-.114-1.018a2.622 2.622 0 00-.311-.796 1.586 1.586 0 00-.519-.536 1.297 1.297 0 00-.718-.198c-.285 0-.532.066-.742.198-.21.132-.384.312-.522.54-.139.226-.241.49-.308.793-.066.3-.09.665-.09 1 0 .34.034.661.1.966.07.303.172.568.307.797.139.228.31.41.515.544.208.135.451.203.73.203.285 0 .53-.068.738-.203.21-.134.384-.315.522-.54a2.61 2.61 0 00.308-.792c.069-.303.103-.622.103-.958zm6.223-2.631c-.115.01-.145.084-.145.185V27h-.63l-2.92-4.517v3.94c0 .085.046.176.157.187l.393.033V27h-1.646v-.357l.45-.033a.187.187 0 00.173-.186l-.005-4.823a.19.19 0 00-.046-.12.169.169 0 00-.127-.066l-.465-.032V21h1.56v.23l2.571 4.093v-3.722a.185.185 0 00-.165-.185l-.4-.034V21h1.683v.383l-.438.033zM11.57 30.508l-.111-.933a.25.25 0 00-.046-.108.107.107 0 00-.089-.045H10V33h.872c.077 0 .128-.051.142-.13l.073-.367h.392v1.499h-.392l-.073-.414a.227.227 0 00-.05-.1c-.028-.035-.06-.053-.092-.053H10v2.983c0 .084.043.175.154.186l.846.033V37H8v-.363l.801-.017c.143-.014.199-.086.199-.185v-6.828c0-.1-.076-.173-.199-.185L8 29.372V29h4v1.508h-.43zM12 37v-.363l.393-.066c.056-.006.097-.028.123-.066a.2.2 0 00.042-.12l.002-4.832a.183.183 0 00-.042-.116c-.026-.036-.067-.056-.123-.062H12l.002-.371H14v.371l-.379-.008a.17.17 0 00-.123.062.183.183 0 00-.042.115l-.002 4.833a.2.2 0 00.043.12c.028.038.069.06.123.066l.38.074V37h-2zm7.53-5.6a.169.169 0 00-.126.066.213.213 0 00-.039.12L19.364 37h-.666l-2.89-4.402-.038 3.82c0 .041.013.081.039.12a.17.17 0 00.127.066l.45.033V37h-1.703v-.363l.45-.033a.169.169 0 00.127-.066.19.19 0 00.046-.12l.001-4.832a.19.19 0 00-.046-.12.169.169 0 00-.127-.066l-.465-.033v-.363h1.56v.21l2.578 4.109.042-3.738a.2.2 0 00-.042-.12.165.165 0 00-.123-.065L18 31.367v-.363h2v.363l-.47.033zm3.907 5.6v-.363l.504-.041c.02 0 .04-.014.058-.042a.165.165 0 00.027-.082c0-.011-.001-.018-.004-.02L23.507 35h-1.802l-.455 1.426a.06.06 0 00-.003.025c0 .033.012.066.038.1.028.03.054.045.077.045l.638.04V37h-2v-.363l.646-.103 1.832-5.53h.592l1.825 5.406a.394.394 0 00.05.116c.018.019.056.034.115.045l.354.066V37h-1.977zm-.825-4.497l-.681 1.86h1.381l-.7-1.86zm7.844-1.103a.168.168 0 00-.127.066.213.213 0 00-.038.12L30.293 37h-.615l-2.928-4.402v3.82c0 .041.013.081.039.12a.17.17 0 00.127.066l.45.033V37h-1.703v-.363l.45-.033a.168.168 0 00.127-.066.19.19 0 00.046-.12l-.002-4.832a.19.19 0 00-.046-.12.169.169 0 00-.127-.066l-.465-.033v-.363h1.56v.21l2.578 4.109.042-3.738a.2.2 0 00-.042-.12.165.165 0 00-.123-.065L29 31.367v-.363h2v.363l-.544.033zM36 36.67c-.01.005-.118.026-.207.062-.09.033-.206.07-.35.111a5.89 5.89 0 01-.495.107c-.185.033-.377.05-.577.05-.294 0-.754-.038-1.005-.116a2.568 2.568 0 01-.68-.313 2.513 2.513 0 01-.538-.483 3.11 3.11 0 01-.392-.61 3.198 3.198 0 01-.238-.702c-.053-.248-.08-.5-.08-.76 0-.436.056-.93.19-1.292.133-.363.32-.674.56-.933.241-.261.53-.463.869-.606.338-.146.898-.181 1.31-.181a3.497 3.497 0 01.734.087c.123.027.252.061.388.103.136.04.352.088.511.14v1.131h-.542l-.115-.574a.269.269 0 00-.058-.12.31.31 0 00-.076-.074l-.031-.017a2.615 2.615 0 00-.304-.123 1.402 1.402 0 00-.215-.054 1.245 1.245 0 00-.253-.025c-.27 0-.6.037-.83.145-.231.107-.43.265-.6.474a2.336 2.336 0 00-.4.78c-.094.308-.132.757-.132 1.161 0 .394.045.746.135 1.056.092.311.224.575.395.793.172.217.38.383.627.499.245.113.608.148.92.148a1.464 1.464 0 00.58-.116l.054-.029a.251.251 0 00.1-.07.226.226 0 00.05-.099l.18-.72H36v1.17zm.51.326v-.363l.32-.03c.115-.01.166-.104.166-.185l.004-4.82c0-.092-.092-.169-.177-.177l-.313-.03v-.387h1.978v.371l-.33.046c-.107.011-.158.095-.158.178v4.82c0 .082.058.174.166.185l.322.02v.372H36.51zM42 37v-.371l.395-.042c.021 0 .04-.013.058-.04a.164.164 0 00.027-.083c0-.011-.001-.018-.004-.021L42 35h-1.756l-.442 1.414a.06.06 0 00-.004.025.16.16 0 00.039.099c.028.03.053.045.076.045l.496.041v.372L38.7 37v-.371l.457-.103 1.83-5.522h.592l1.827 5.398a.391.391 0 00.05.115c.018.02.056.035.115.046l.354.066V37H42zm-.886-4.497l-.705 1.86h1.406l-.7-1.86zm3.306 4.501v-.371l.453-.037c.114-.012.127-.105.127-.186v-4.824c0-.082-.009-.175-.123-.186l-.458-.033v-.363l2.17-.017v.363l-.42.033a.188.188 0 00-.172.186L46 36.563l1.243.016a.176.176 0 00.108-.041.158.158 0 00.065-.103l.127-.934H48V37l-3.58.004z" fill="#fff"/></svg>