<!-- by TradingView --><svg width="56" height="56" viewBox="0 0 56 56" xmlns="http://www.w3.org/2000/svg"><path fill="#F0F3FA" d="M0 0h56v56H0z"/><path d="M27.9 37H25v-6h2.83c1.3 0 1.9.78 1.9 1.66 0 .52-.19.9-.63 1.2v.01c.57.21.9.73.9 1.4 0 1.08-.75 1.73-2.1 1.73Zm-.24-5H26v1.5h1.65c.81 0 1.1-.3 1.1-.77 0-.54-.37-.73-1.1-.73Zm.13 2.39H26V36h1.8c.9 0 1.2-.22 1.2-.8-.02-.58-.36-.81-1.2-.81Z" fill="#717171"/><path d="M21 27h-1.32l-.8-1.52c-.24-.47-.63-.48-1.35-.48H16v2h-1v-6h2.64c1.22 0 2.36.59 2.36 1.88 0 .63-.17 1.2-.72 1.45 0 .01.03.04.1.08.12.1.36.27.52.55L21 27Zm-5-5v2h1.77c.86 0 1.23-.49 1.23-1-.02-.66-.42-1-1.15-1H16Z" fill="#1F3464"/><path d="M37 37h-.93l-.6-1.39h-2.93L31.93 37H31l2.59-6h.82l2.6 6Zm-4-2.38h2L34 32l-1 2.62ZM44 37h1v-6h-1v6Zm3.77 0H49l-2.81-3.02 2.7-2.96h-1.2l-2.63 2.96 2.7 3.02Zm-5.55 0h.76l.02-6h-1v4.15l-3.24-4.13H38V37h1v-4.22L42.22 37Z" fill="#717171"/><path d="M43 25.97A3.52 3.52 0 0 0 45.59 27c1.69 0 2.41-.84 2.41-1.76 0-.77-.56-1.4-1.7-1.7l-.89-.24c-.87-.24-1.12-.4-1.12-.64 0-.27.32-.66 1.21-.66.62 0 1.21.4 1.58.85l.8-.85c-.59-.65-1.39-1-2.37-1-1.55 0-2.38.76-2.38 1.7 0 1 .88 1.37 1.84 1.64l1 .27c.73.19.88.47.88.66 0 .34-.33.7-1.22.7-.63 0-1.27-.32-1.83-.85l-.8.85ZM39.5 27c1.7 0 2.5-1.03 2.5-2.8l-.01-3.2H41v3.3c0 1.12-.51 1.7-1.5 1.7-1.03 0-1.5-.56-1.5-1.7V21h-1v3.2c0 1.78.8 2.8 2.5 2.8ZM31 27v-5h2v-1h-5v1h2v5h1Zm-9-1.03A3.52 3.52 0 0 0 24.59 27c1.67 0 2.41-.84 2.41-1.76 0-.77-.56-1.4-1.7-1.7l-.89-.24c-.87-.24-1.12-.4-1.12-.64 0-.27.32-.66 1.21-.66.62 0 1.21.4 1.58.85l.8-.85c-.59-.65-1.39-1-2.37-1-1.55 0-2.38.76-2.38 1.7 0 1 .88 1.37 1.84 1.64l1 .27c.73.19.88.47.88.66 0 .34-.33.7-1.22.7-.63 0-1.27-.32-1.83-.85l-.8.85ZM13 27h1v-6h-1v6Zm-5-3v-2h4v-1H7v6h1v-2h3v-1H8Z" fill="#1F3464"/></svg>