<!-- by TradingView --><svg xmlns="http://www.w3.org/2000/svg" width="56" height="56"><path fill="#095ECB" d="M0 0h56v56H0z"/><path d="M40.95 13H15.03A2.04 2.04 0 0013 15.04v25.92A2.04 2.04 0 0015.04 43h25.92A2.04 2.04 0 0043 40.96V15.04A2.04 2.04 0 0040.95 13zM33 32.33c0 .36-.3.67-.67.67h-3.66a.68.68 0 01-.67-.67v-3.66c0-.36.3-.67.67-.67h3.66c.35 0 .67.3.67.66v3.67zm5-9.98c0 .35-.32.65-.67.65h-10.6A3.78 3.78 0 0023 26.75v10.6c0 .37-.31.65-.67.65h-3.67a.65.65 0 01-.66-.64V25.49A7.47 7.47 0 0125.47 18h11.87a.7.7 0 01.66.68v3.67z" fill="#fff"/></svg>