<!-- by TradingView --><svg width="56" height="56" viewBox="0 0 56 56" xmlns="http://www.w3.org/2000/svg"><path fill="url(#a2rdoub2n)" d="M0 0h56v56H0z"/><path d="M14 27V17h4v1.5h-2V21h2v1.5h-2V27h-2ZM19 27V17h2v10h-2ZM23 27V17h2.6c1.8 0 3.4.5 3.4 2.5 0 1-.38 2.19-1.39 2.62L29 27h-2.1l-1.12-4.45h-.76L25 27h-2Zm2-6h.64c.93 0 1.36-.37 1.36-1.25 0-.81-.39-1.25-1.27-1.25H25V21Z" fill="#fff"/><path fill-rule="evenodd" d="m25.51 22.35 1.13 4.45h2.1l-1.39-4.88c1-.43 1.39-1.62 1.39-2.62 0-2-1.61-2.5-3.4-2.5h-2.6v10h2l.02-4.45h.75Zm-.97 4.25.02-4.45h1.11l1.13 4.45h1.67l-1.36-4.79.16-.07c.9-.39 1.27-1.46 1.27-2.44 0-.93-.37-1.49-.94-1.83a4.5 4.5 0 0 0-2.27-.47h-2.4v9.6h1.6Zm0-5.6v-2.9h.93c.47 0 .85.12 1.1.38.26.26.37.64.37 1.07 0 .47-.12.85-.4 1.1-.28.26-.68.35-1.17.35h-.83Zm.83-.2c.93 0 1.37-.37 1.37-1.25 0-.81-.39-1.25-1.27-1.25h-.73v2.5h.63Z" fill="#131619"/><path d="M33.15 27c-.68 0-1.25-.1-1.71-.32a2.3 2.3 0 0 1-1.04-1 4.27 4.27 0 0 1-.4-1.71l1.95-.3c.01.41.06.75.13 1.02.08.26.2.46.36.6.16.13.36.2.6.2.3 0 .49-.09.59-.25a.96.96 0 0 0 .16-.55c0-.41-.11-.75-.34-1.02a4.86 4.86 0 0 0-.87-.85l-1.16-.87c-.4-.3-.74-.65-1-1.04a2.51 2.51 0 0 1-.4-1.42c0-.8.27-1.41.8-1.84a3.42 3.42 0 0 1 2.2-.65c.56 0 1.02.08 1.38.24.35.16.63.38.82.65.2.27.34.56.41.88.08.31.13.62.15.94l-1.93.25c-.02-.3-.05-.56-.1-.78a.94.94 0 0 0-.24-.53c-.12-.13-.3-.2-.55-.2-.27 0-.46.1-.59.27a.91.91 0 0 0-.2.57c0 .34.1.63.27.85.18.22.43.45.74.69l1.12.86c.47.36.86.76 1.2 1.22.33.45.5 1 .5 1.67 0 .46-.12.87-.36 1.24a2.4 2.4 0 0 1-1 .87c-.42.2-.91.31-1.49.31Z" fill="#fff"/><path fill-rule="evenodd" d="M31.88 24.49a4.41 4.41 0 0 1-.14-1.01l-1.94.29c.03.69.17 1.26.4 1.7.23.45.58.78 1.04 1 .45.22 1.02.33 1.7.33.58 0 1.08-.1 1.5-.31.43-.21.76-.5 1-.87s.36-.78.36-1.24a2.7 2.7 0 0 0-.51-1.67 5.69 5.69 0 0 0-1.2-1.22l-1.12-.86a4.88 4.88 0 0 1-.73-.69c-.18-.22-.27-.5-.27-.85 0-.21.07-.4.2-.57.12-.18.32-.26.59-.26.24 0 .43.06.54.19.13.13.21.3.25.53a5.22 5.22 0 0 1 .1.78l1.93-.25a4.79 4.79 0 0 0-.15-.94 2.27 2.27 0 0 0-.41-.88c-.2-.27-.47-.49-.83-.65a3.35 3.35 0 0 0-1.37-.24c-.93 0-1.66.22-2.2.65-.53.43-.8 1.04-.8 1.84 0 .56.13 1.04.39 1.42.26.39.6.73 1.01 1.04l1.15.87c.37.29.66.57.88.85.23.27.34.61.34 1.02 0 .2-.05.4-.16.55-.1.16-.3.24-.6.24a.95.95 0 0 1-.6-.19 1.29 1.29 0 0 1-.35-.6Zm1.52-1.15c.27.31.4.7.4 1.15 0 .24-.07.47-.2.66-.16.25-.44.33-.76.33-.28 0-.52-.07-.73-.23-.2-.18-.33-.41-.42-.7-.07-.25-.11-.52-.13-.84l-1.55.23c.05.59.17 1.07.36 1.44.22.4.53.7.95.92.42.2.96.3 1.63.3.55 0 1.01-.1 1.4-.3.4-.19.7-.45.92-.79.22-.33.33-.7.33-1.13a2.5 2.5 0 0 0-.47-1.55c-.32-.45-.7-.84-1.15-1.18l-1.13-.86a5.07 5.07 0 0 1-.77-.72c-.2-.27-.3-.6-.3-.98 0-.26.07-.49.23-.69a.88.88 0 0 1 .75-.34c.27 0 .52.07.69.25.16.16.26.38.3.63l.08.6 1.53-.2a4.63 4.63 0 0 0-.13-.72c-.06-.3-.19-.57-.37-.8v-.01a1.76 1.76 0 0 0-.75-.59 3.16 3.16 0 0 0-1.29-.22c-.9 0-1.58.21-2.08.6-.47.39-.72.94-.72 1.7 0 .52.12.95.35 1.3.25.36.58.7.97.99l1.15.88c.38.28.68.57.91.87Z" fill="#121417"/><path d="M38.5 27v-8.5H37V17h5v1.5h-1.5V27h-2ZM10.46 39 9 29h2l.73 6.11.77-6.11h2l.8 6.1.7-6.1h2l-1.45 10H14.5l-1-6.33-1 6.33h-2.04Z" fill="#fff"/><path fill-rule="evenodd" d="M10.77 28.8H9l1.23 10h2.04l1.23-6.33.77 6.33h2.05l1.45-10h-2l-.47 6.7-1.03-6.7h-2l-.57 6.7-.93-6.7Zm1.68.2-.75 7-1.1-7H9l1.4 9.6h1.7l1.4-6.6.94 6.6h1.7l1.4-9.6h-1.6l-.64 7-1.2-7h-1.65Z" fill="#101216"/><path d="m18 39 2-10h3l2 10h-2.16l-.37-2h-1.8l-.48 2H18Zm2.84-3.44h1.37l-.7-4.04-.67 4.04ZM27.5 39v-8.5H26V29h5v1.5h-1.5V39h-2ZM36 39c-2.05 0-3-1.25-3-3.24v-3.5c0-2 .91-3.26 3-3.26 1.83 0 3 .96 3 2.82V33h-2v-1.28c0-.63-.22-1.22-1-1.22-.82 0-1 .65-1 1.32v4.42c0 .67.2 1.26 1 1.26.79 0 1-.64 1-1.28V35h2v1.08c0 1.87-1.12 2.92-3 2.92Z" fill="#fff"/><path fill-rule="evenodd" d="M32.89 32.06v3.5c0 .97.23 1.72.68 2.23.44.51 1.13.81 2.12.81.9 0 1.6-.25 2.06-.7.47-.45.74-1.13.74-2.02V35h-1.6v1.02c0 .33-.06.7-.24.99-.19.3-.5.49-.96.49-.46 0-.78-.17-.97-.47a1.82 1.82 0 0 1-.23-.99v-4.42c0-.35.04-.72.22-1.02.19-.3.5-.5.98-.5.45 0 .76.17.96.46.18.27.24.63.24.96v1.08h1.6v-.98c0-.89-.28-1.53-.75-1.96a2.98 2.98 0 0 0-2.05-.66c-1 0-1.7.3-2.13.8-.45.52-.67 1.28-.67 2.26Zm-.2 3.5c0 1.99.94 3.24 3 3.24 1.88 0 3-1.05 3-2.92V34.8h-2v1.22c0 .64-.22 1.28-1 1.28-.8 0-1-.6-1-1.26v-4.42c0-.67.18-1.32 1-1.32.78 0 1 .59 1 1.22v1.28h2v-1.18c0-1.86-1.18-2.82-3-2.82-2.09 0-3 1.25-3 3.26v3.5Z" fill="#131619"/><path d="M41 39V29h2v4h2v-4h2v10h-2v-4.5h-2V39h-2Z" fill="#fff"/><path d="M42.4 28.5h.2v4.4H45v.2h-2.6v-4.6Zm4 9.9v-9.9h.2v10.1h-2.1v-.2h1.9Zm-4-4H45v.2h-2.4v4H41v-.2h1.4v-4Z" fill="#101216"/><path d="M30.6 29v1.2h-1.4v8.4h-1.9v-8.4H26V30h1.5v8.4H29V30h1.4v-1h.2ZM41.6 17v1.2h-1.4v8.4h-1.9v-8.4H37V18h1.5v8.4H40V18h1.4v-1h.2Z" fill="#131519"/><path d="m22.6 28.48 2.02 10.12h-1.9l-.4-2h-1.74l-.5 2H18v-.2h1.92l.5-2h2.06l.4 2h1.5l-1.98-9.88.2-.04Z" fill="#131619"/><path d="m21.48 30.98.84 4.62h-1.94l1.1-4.62Zm-.86 4.42h1.46l-.6-3.86-.86 3.86Z" fill="#131619"/><path d="M17.6 16.5v1.7h-2v2.6h2.1v1.4h-2.1v4.4h-2.1v-.2h1.9V22h2.1v-1h-2.1v-3h2v-1.5h.2Z" fill="#191C20"/><path d="M20.7 16v10.72h-2v-.22h1.8V16h.2Z" fill="#131619"/><defs><linearGradient id="a2rdoub2n" x1="10.42" y1="9.71" x2="68.15" y2="76.02" gradientUnits="userSpaceOnUse"><stop stop-color="#1A1E21"/><stop offset="1" stop-color="#06060A"/></linearGradient></defs></svg>