<!-- by TradingView --><svg width="56" height="56" viewBox="0 0 56 56" xmlns="http://www.w3.org/2000/svg"><path fill="#F0F3FA" d="M0 0h56v56H0z"/><path d="M30.82 28.67H28.3c0-.58-.22-.67-.73-.67-.28 0-.56.05-.56.41 0 .43.38.78 1.29 1 1.69.4 2.71 1.43 2.71 2.75 0 1.31-.96 2.84-3.62 2.84-2.83 0-3.43-2.05-3.38-3h2.6c0 .78.34 1 .78 1s.62-.16.62-.48c0-.45-.15-.73-1.4-1.14-1.24-.4-2.6-1.14-2.6-2.71S25.42 26 27.71 26c2.42 0 3.08 1.78 3.11 2.67ZM6 23h7v3H9v2h3v3H9v4H6V23ZM14 35v-9h3v9zM18 26v9h3v-4.9c.1-.45.4-1.1 1.09-1.1H23v-3h-.69c-.32.05-.97.44-1.31 1.57V26h-3ZM14 25v-2h3v2zM33 26v-3h3v3h1v2h-1v4.63c0 .2.13.37.33.37H37v1.88c-.28.04-1.07.12-1.67.12-1.4 0-2.36-.49-2.33-2.11V28h-1v-2h1Z" fill="#727175"/><path d="M44.5 33a6.5 6.5 0 1 0-6-9h.58c1.28 0 2.42-.65 2.42-1.89V22H44v10.98l.5.02ZM41 31.98A6.5 6.5 0 0 1 38.02 26H41v5.98Z" fill="#DA4435"/></svg>