<!-- by TradingView --><svg width="56" height="56" viewBox="0 0 56 56" xmlns="http://www.w3.org/2000/svg"><path fill="#F0F3FA" d="M0 0h56v56H0z"/><path fill="#F4183C" d="M9 20h38v1H9z"/><path fill="#211F20" d="M9 21h38v1H9z"/><path fill="#F4183C" d="M18 22h29v1H18zM18 24h29v1H18zM18 26h29v1H18zM18 28h29v1H18zM18 30h29v1H18zM18 32h29v1H18zM18 34h29l-.15 1H18v-1ZM18 36h28.26s-.29.56-.88 1H19.06c-.56-.38-1.06-1-1.06-1ZM20.04 38H44.2s-.65.56-1.27 1h-21.4c-.59-.38-1.49-1-1.49-1Z"/><path fill="#211F20" d="M9 23h29v1H9zM9 25h29v1H9zM9 27h29v1H9zM9 29h29v1H9zM9 31h29v1H9zM9 33h29v1H9zM9 35h29l-.83 1H9.8L9 35ZM10.86 37h25.99l-1.4 1H12.08c-.7-.48-1.22-1-1.22-1ZM13.98 39h20.37l-3.02 1H16.36c-.97-.3-2.38-1-2.38-1Z"/><path d="m28.8 41-2.83-1h5.47l-2.64 1Z" fill="#F4183C"/></svg>