<!-- by TradingView --><svg width="56" height="56" viewBox="0 0 56 56" xmlns="http://www.w3.org/2000/svg"><path fill="url(#ansuhpr4c)" d="M0 0h56v56H0z"/><path d="M22.24 25.2A1.5 1.5 0 1 1 20 26.5c0-1.1.83-1.64 1.5-2 .67-.36 2.04-.5 3.5-.5 2.5 0 5 .5 5 2v7.5l1 1v.5h-4.5l-.5-1.5c-.17.5-1.5 1.5-3.5 1.5-2.5 0-3.5-1.5-3.5-2.5s.5-3.5 4.5-3.5H26v-2c0-.67 0-2-2-2-1 0-1.76.2-1.76.2ZM26 30h-1.5c-.5 0-1.5.3-1.5 1.5s1 1.5 1.5 1.5H26v-3ZM43.24 25.2A1.5 1.5 0 1 1 41 26.5c0-1.1.83-1.64 1.5-2 .67-.36 2.04-.5 3.5-.5 2.5 0 5 .5 5 2v7.5l1 1v.5h-4.5l-.5-1.5c-.17.5-1.5 1.5-3.5 1.5-2.5 0-3.5-1.5-3.5-2.5s.5-3.5 4.5-3.5H47v-2c0-.67 0-2-2-2-1 0-1.76.2-1.76.2ZM47 30h-1.5c-.5 0-1.5.3-1.5 1.5s1 1.5 1.5 1.5H47v-3ZM38 21a2 2 0 1 1-4 0 2 2 0 0 1 4 0ZM32 26v-1l3-1h3v10l1 .5v.5h-6.5v-.5L34 34v-8h-2ZM17.5 22c-.5-.67-1.7-2-4.5-2-4.5 0-9 2-9 7.5S8.5 35 13 35c1.5 0 4.2-.7 5-1.5V28h-6v.5l2 .5v5h-1c-1.67-.17-5-2.1-5-6.5s3-6.5 5-6.5c.75 0 1.83.13 2.6.54A2 2 0 1 0 18 23.5c0-.57-.12-1.14-.5-1.5Z" fill="#F0F3FA"/><defs><linearGradient id="ansuhpr4c" x1="56" y1="0" x2="0" y2="56" gradientUnits="userSpaceOnUse"><stop offset=".2" stop-color="#715195"/><stop offset="1" stop-color="#0CBEC4"/></linearGradient></defs></svg>