<!-- by TradingView --><svg width="56" height="56" viewBox="0 0 56 56" xmlns="http://www.w3.org/2000/svg"><path fill="#F0F3FA" d="M0 0h56v56H0z"/><path d="M11.18 21c.64 0 1.2.18 1.73.53.08.05.15.08.19.08.12 0 .2-.28.24-.61h.21c-.03.63-.03 1.39-.03 2.02h-.22a4.7 4.7 0 0 0-.18-.72c-.07-.23-.2-.42-.37-.57a2.15 2.15 0 0 0-1.5-.56C9.74 21.17 9 22.75 9 24c0 1.43.66 2.84 2.3 2.84.32 0 .93-.09 1.1-.41.03-.07.1-.15.1-.25v-.8c0-.67-.38-.8-1.01-.8v-.17H14v.16c-.45.02-.5.3-.5.7V27h-.15c-.01-.1-.04-.3-.08-.42-.04-.1-.1-.16-.18-.16-.04 0-.1 0-.14.03-.05.01-.13.05-.24.12-.44.26-.9.43-1.5.43C9.4 27 8 25.98 8 24.09 8 22.29 9.38 21 11.18 21ZM18 21c1.75 0 3 1.2 3 2.95A2.95 2.95 0 0 1 18 27c-1.76 0-3-1.19-3-2.95A2.95 2.95 0 0 1 18 21Zm-.03.15c-1.44 0-1.97 1.7-1.97 2.83 0 1.16.6 2.87 2.03 2.87 1.42 0 1.97-1.73 1.97-2.87 0-1.14-.62-2.83-2.03-2.83ZM33 29c1.75 0 3 1.2 3 2.95A2.95 2.95 0 0 1 33 35c-1.76 0-3-1.19-3-2.95A2.95 2.95 0 0 1 33 29Zm-.03.15c-1.44 0-1.97 1.7-1.97 2.83 0 1.16.6 2.87 2.03 2.87 1.42 0 1.97-1.73 1.97-2.87 0-1.14-.62-2.83-2.03-2.83ZM25 21v.17c-.55.01-1 .27-1 .83v4.24c0 .53.21.57.53.57h.61c1.08 0 1.52-.83 1.64-1.81H27v2h-5v-.17c.55-.03 1-.06 1-.63V22c0-.55-.45-.82-1-.83V21h3ZM30.63 21C32.9 21 34 22.1 34 24c0 1.99-1.59 3-3.45 3H28v-.17c.54-.03 1-.17 1-.73v-4.2c0-.55-.46-.72-1-.73V21h2.63Zm-.16.15c-.52 0-.47.2-.47.71v4.24c0 .52-.04.75.48.75 1.8 0 2.52-1.21 2.52-2.85 0-1.63-.77-2.85-2.53-2.85ZM40 21v1.63h-.22c-.1-.88-.63-1.44-1.58-1.44h-.65c-.52 0-.55.41-.55.81v4.27c0 .54.03.54.55.54h.61c1.06 0 1.48-.82 1.62-1.81H40v2h-5v-.17c.55-.03 1-.16 1-.73v-4.2c0-.55-.45-.72-1-.73V21h5Zm-1.75 3V24.17h-1.7V24h1.7Zm.27-1 .03 2h-.22c-.1-.6-.28-.83-.99-.83V24c.7 0 .83-.44.97-1h.21ZM47 21v.17c-.61.03-.74.34-.74.9V27h-.31L42 21.8v4.05c0 .67.33.94 1 .98V27h-2v-.17c.6-.05.74-.37.74-.94v-4c0-.55-.2-.7-.74-.72V21h1.6l3.4 4.4V22.1c0-.64-.34-.91-1-.94V21h2ZM12.17 29l2.22 5.3c.1.26.3.51.61.53V35h-2.35v-.17c.53-.02.75-.17.53-.7l-1.64-4.1.15-.15-1.52 3.65c-.1.26-.17.47-.2.64-.05.53.34.65.8.66V35H9v-.17c.25-.05.52-.24.75-.78l2.1-5.05h.32Zm.95 3.57v.17h-2.7l.08-.17h2.62ZM16 29h2.68c.92 0 2.32.3 2.32 1.5 0 1.3-1.5 1.6-2.53 1.6l-.72-.03v-.16l.63.02c.92 0 1.62-.47 1.62-1.43 0-.9-.63-1.33-1.52-1.33-.5 0-.48.2-.48.7v4.23c0 .56.47.7 1 .73V35h-3v-.17c.54-.02 1-.17 1-.73v-4.24c0-.53-.45-.68-1-.7V29Zm1.76 2.93c.32.01.4.05.6.06a19.1 19.1 0 0 1 .86.08c.47.05.8.16 1.02.33.22.17.37.42.45.76l.24.85c.05.24.11.4.18.5.07.1.17.16.3.16.1 0 .18-.03.24-.08.07-.05.14-.11.22-.2l.13.1c-.14.17-.3.3-.45.39-.16.08-.37.12-.63.12-.27 0-.5-.06-.7-.18-.19-.13-.32-.37-.4-.72l-.19-.83a4.36 4.36 0 0 0-.19-.61.96.96 0 0 0-.29-.42c-.12-.1-.3-.15-.53-.15l-.84-.02-.02-.14ZM23 29h2.68c.92 0 2.32.3 2.32 1.5 0 1.3-1.5 1.6-2.53 1.6l-.72-.03v-.16l.63.02c.92 0 1.62-.47 1.62-1.43 0-.9-.63-1.33-1.52-1.33-.5 0-.48.2-.48.7v4.23c0 .56.47.7 1 .73V35h-3v-.17c.54-.02 1-.17 1-.73v-4.24c0-.53-.45-.68-1-.7V29Zm1.76 2.93c.32.01.4.05.6.06a19.1 19.1 0 0 1 .86.08c.47.05.8.16 1.02.33.22.17.37.42.45.76l.24.85c.05.24.11.4.18.5.07.1.17.16.3.16.1 0 .18-.03.24-.08.07-.05.14-.11.22-.2l.13.1c-.14.17-.3.3-.45.39-.16.08-.37.12-.63.12-.27 0-.5-.06-.7-.18-.19-.13-.32-.37-.4-.72l-.19-.83a4.36 4.36 0 0 0-.19-.61.96.96 0 0 0-.29-.42c-.12-.1-.3-.15-.53-.15l-.84-.02-.02-.14ZM45 29v.17c-.4.09-.66.46-.79.82L42.45 35h-.33l-2.03-5.32c-.1-.24-.26-.5-.55-.51V29H42v.17c-.37 0-.72.05-.76.24-.01.1.02.25.1.47l1.4 3.8-.16.2 1.21-3.35c.13-.35.19-.62.17-.81 0-.4-.43-.54-.96-.55V29h2Zm-6.75 0v.17c-.3.02-.43.12-.43.33 0 .1.04.22.1.38l1.49 3.9-.25.24 1.3-3.56.15.2L39.04 35h-.32l-2.08-5.3c-.1-.27-.32-.51-.64-.53V29h2.25Z" fill="#A68012"/><path fill-rule="evenodd" d="m48.25 27.7-.45-.87L52 28l-4.2 1.17.45-.88H7.67l-.81.71H4l.57-1L4 27h2.86l.8.7h40.59ZM5.21 28l-.29-.5h1.7l.57.5-.57.5h-1.7l.29-.5Z"/></svg>