<!-- by TradingView --><svg width="56" height="56" viewBox="0 0 56 56" xmlns="http://www.w3.org/2000/svg"><path fill="#F0F3FA" d="M0 0h56v56H0z"/><path d="M12 36a7.96 7.96 0 0 0 7.93-9H13a2 2 0 0 0-2 2h6.92a6 6 0 1 1-.78-4.09l1.83-.72A8.01 8.01 0 0 0 12 20.16c-4.42 0-8 3.55-8 7.92A7.96 7.96 0 0 0 12 36Z" fill="url(#atc2mzkpz)"/><path d="M33 36h-2.26L26 25.07l-3.67 8.72A3.66 3.66 0 0 1 19 36l7-16 7 16Z" fill="url(#btc2mzkpz)"/><path d="M34 20c1.1 0 2 1.07 2 2.38V36h-2V20Z" fill="url(#ctc2mzkpz)"/><path d="M40 36h-2V20l11 11.02V20c1.1 0 2 1.07 2 2.38V36L40 25.06V36Z" fill="url(#dtc2mzkpz)"/><defs><linearGradient id="atc2mzkpz" x1="12" y1="20.16" x2="12" y2="36" gradientUnits="userSpaceOnUse"><stop stop-color="#26616E"/><stop offset="1" stop-color="#63B3B0"/></linearGradient><linearGradient id="btc2mzkpz" x1="26" y1="20" x2="26" y2="36" gradientUnits="userSpaceOnUse"><stop stop-color="#26616E"/><stop offset="1" stop-color="#63B3B0"/></linearGradient><linearGradient id="ctc2mzkpz" x1="35" y1="20" x2="35" y2="36" gradientUnits="userSpaceOnUse"><stop stop-color="#26616E"/><stop offset="1" stop-color="#63B3B0"/></linearGradient><linearGradient id="dtc2mzkpz" x1="45.5" y1="20" x2="45.5" y2="36" gradientUnits="userSpaceOnUse"><stop stop-color="#26616E"/><stop offset="1" stop-color="#63B3B0"/></linearGradient></defs></svg>