<!-- by TradingView --><svg width="56" height="56" viewBox="0 0 56 56" xmlns="http://www.w3.org/2000/svg"><path fill="#F0F3FA" d="M0 0h56v56H0z"/><path fill-rule="evenodd" d="M40.25 22.5a.75.75 0 1 0 0-1.5.75.75 0 0 0 0 1.5ZM41 28v-5h-1.5v5H41Zm-30.47-6.4-.4 1.13c-.4-.77-1.1-1.13-2.1-1.13-1.01 0-2.42.96-2.42 3.03a2.7 2.7 0 0 0 2.42 2.83c.55 0 .8-.16.95-.24L9 27.2V25h1.53v2.59c-.58.13-1.89.41-2.5.41C7.26 28 4 27.65 4 24.83 4 22 6.17 21 7.92 21c1.4 0 2.32.4 2.61.6Zm2.5 3.9H16c.06-.85-.3-2.5-2.15-2.5-2.33 0-2.34 2.35-2.34 2.73 0 .37.21 2.27 2.47 2.27.89 0 1.5-.4 1.7-.6l.1-.47c-.21.16-.77.47-1.36.47-.73 0-1.38-.56-1.38-1.9Zm.01-.5h1.56c0-.5-.14-1.5-.77-1.5s-.79 1-.79 1.5Zm13.45.5h-2.96c0 1.34.65 1.9 1.38 1.9.59 0 1.15-.31 1.35-.47l-.1.47c-.19.2-.8.6-1.7.6A2.28 2.28 0 0 1 22 25.73c0-.38.01-2.73 2.34-2.73 1.86 0 2.21 1.65 2.15 2.5Zm-1.4-.5h-1.55c0-.5.16-1.5.79-1.5s.78 1 .77 1.5ZM17 28h1.5v-3.46c.13-.28.37-.54.75-.54.64 0 .75.5.75.8V28h1.5v-3.2c0-.85-.4-1.8-1.56-1.8a1.9 1.9 0 0 0-1.44.65V23H17v5Zm32 0h-1.5v-5H49v.7c.26-.31.75-.7 1.46-.7 1.14 0 1.54.95 1.54 1.8V28h-1.5v-3.2c0-.3-.09-.9-.71-.9-.43 0-.67.38-.79.74V28Zm-22 0h1.5v-3.06c.13-.3.36-.55.72-.55.3 0 .5.14.62.33l.15-1.72h-.1c-.65 0-1.12.52-1.39.93V23H27v5Zm3.99-3.68-.17-.59c.22-.24.92-.73 1.95-.73 1.25 0 1.69.88 1.73 1.32v2.58c0 .46.35.64.54.67v.16c-.12.1-.5.27-.97.27s-.76-.46-.84-.69c-.33.42-.94.69-1.31.69-1.1 0-1.92-.17-1.92-1.31 0-1.07 1.43-1.36 2.05-1.48l.12-.03c.52-.11.83-.36.83-.61s0-.88-.71-.88c-.57 0-1.1.42-1.3.63Zm2.01 2.5V25.4c-1.2.18-1.5.8-1.5 1.1 0 .27.12.83.68.83s.78-.34.82-.5Zm-.19 5.91.17.59c.2-.21.72-.63 1.29-.63.7 0 .7.63.7.88s-.3.5-.81.61l-.13.03c-.6.12-2.03.41-2.03 1.48 0 1.14.81 1.31 1.9 1.31.37 0 .98-.27 1.3-.69.09.23.37.69.84.69s.84-.18.96-.27v-.16a.66.66 0 0 1-.54-.67v-2.58c-.04-.44-.47-1.32-1.7-1.32-1.04 0-1.73.49-1.95.73ZM35 34.4v1.42c-.04.17-.28.51-.84.51-.55 0-.68-.56-.67-.84 0-.29.33-.9 1.51-1.1Zm1-12.68V23h-.5v.5h.5v3.3c.04.4.41 1.2 1.34 1.2.41 0 1.18-.22 1.37-.33v-.4a.56.56 0 0 1-.42.17c-.28 0-.79-.27-.79-.97V23.5h.5V23h-.5v-2l-1.5.72Zm11 3.78a2.5 2.5 0 1 1-5 0 2.5 2.5 0 0 1 5 0Zm-1.5 0c0 1.1-.45 2-1 2-.56 0-1-.9-1-2s.44-2 1-2c.55 0 1 .9 1 2ZM21.77 30l-2.76 7h.9l.75-2h2.23l.73 2h1.66l-2.7-7h-.8Zm.93 4.5h-1.86l.93-2.52.93 2.52Zm8.8-3.75a.75.75 0 1 1-1.5 0 .75.75 0 0 1 1.5 0Zm0 1.25v5H30v-5h1.5Zm-2.61.49-.34.9c-.24-.55-.64-.9-1.07-.9-.43 0-.79.16-.79.54s.45.61.79.75l.14.05c.45.16 1.44.5 1.44 1.5 0 1.14-1.06 1.67-1.92 1.67a2.3 2.3 0 0 1-1.37-.42l.13-.3v-.63h.28c.14.33.43.79.96.79s.95-.08.95-.52c0-.36-.63-.66-.95-.76-.45-.2-1.37-.77-1.37-1.52 0-.94.68-1.64 1.64-1.64.76 0 1.3.32 1.48.49Z" fill="#415E74"/></svg>