<!-- by TradingView --><svg width="56" height="56" viewBox="0 0 56 56" xmlns="http://www.w3.org/2000/svg"><path fill="#F0F3FA" d="M0 0h56v56H0z"/><path fill-rule="evenodd" d="M15 21a3 3 0 1 1-.17-1h-1.46a1.7 1.7 0 1 0 0 2H12v-1.3h2.99l.01.3Zm4 3a3 3 0 1 0 0-6 3 3 0 0 0 0 6Zm0-1.3a1.7 1.7 0 1 0 0-3.4 1.7 1.7 0 0 0 0 3.4Zm5-4.7h1.3v4.7H28V24h-4v-6Zm5 4.05v-4.01h1.3v3.68c0 .61.46.98 1.09.98h.17c.63 0 1.14-.37 1.14-.98v-3.68H34v4c0 1.1-.91 1.96-2.04 1.96h-.92A1.98 1.98 0 0 1 29 22.05ZM38.84 18H36v6h3.13c1.03 0 1.87-.76 1.87-1.7v-.12c0-.53-.27-1-.69-1.32.25-.28.4-.65.4-1.04v-.12c0-.94-.84-1.7-1.87-1.7Zm-.11 1.3H37.3v1.2h1.43c.38 0 .68-.27.68-.6 0-.33-.3-.6-.68-.6Zm.16 2.1H37.3v1.3h1.6c.38 0 .7-.3.7-.65 0-.36-.32-.65-.7-.65ZM14.83 31a3 3 0 1 1 0-2h-1.46a1.7 1.7 0 1 0 0 2h1.46ZM44 27h1.3v4.7H48V33h-4v-6Zm-27.26 6h-1.17v-.63l2.7-5.37h.75l2.65 5.59V33h-1.26l-.42-1h-2.8l-.45 1Zm1.89-4.25.81 1.95h-1.68l.87-1.95ZM36.75 33h1.17l.45-1h2.8l.42 1h1.26v-.41L40.2 27h-.74l-2.71 5.37V33Zm3.87-2.3-.81-1.95-.87 1.95h1.68ZM25.7 27H23v6h1.38v-1.7h1.32c1.27 0 2.3-.84 2.3-2 0-1.34-1.03-2.3-2.3-2.3Zm-.1 1.3h-1.3V30h1.3c.6 0 1.1-.32 1.1-.87s-.5-.83-1.1-.83ZM29 27h1.3v6H29v-6Zm3 1v-1h4.7v1H35v5h-1.3v-5H32Zm16 8H9v4h39v-4Z" fill="#231F20"/></svg>