<!-- by TradingView --><svg width="56" height="56" viewBox="0 0 56 56" xmlns="http://www.w3.org/2000/svg"><path fill="#F0F3FA" d="M0 0h56v56H0z"/><circle cx="32" cy="21" r="4" fill="#FED104"/><path d="m23.02 17.8 9.92 6.45 2.98-2.48L48 29.13l-1.04 1.7-10.86-6.61-2.46 2.04-5 4-1.24-1.56 3.91-3.13-8.26-5.37-13.92 9.6L8 28.16 23.02 17.8Z" fill="#00895F"/><path d="M18 34.99c-3.2 0-7.33-1.66-9-2.5 1.83 2 7 5.88 13 5.48 7.5-.5 10.5-2.98 15-2.98 3.6 0 8.17 1 10 1.49-3-1.5-7-4.48-13-4.48-4 0-12 2.99-16 2.99Z" fill="#0092CF"/></svg>