<!-- by TradingView --><svg width="56" height="56" viewBox="0 0 56 56" xmlns="http://www.w3.org/2000/svg"><path fill="#F0F3FA" d="M0 0h56v56H0z"/><path fill-rule="evenodd" d="M44 15H12v26h32V15Zm-22.36 6.33H22V20l-.17-.12c-.43-.31-1.2-.88-3.1-.88-2.04 0-3.73 1.6-3.73 4.12 0 2.51 1.91 3.88 4.08 3.88 1.74 0 2.69-.58 2.92-.88v-2.56l.55-.32V23H20.3v.24l.71.32v2.2c-.22.23-.92.67-1.92.67-1.25 0-3.08-1.24-3.08-3.39 0-2.14 1.33-3.28 3.16-3.28s2.37 1.02 2.48 1.57Zm8.67-.16h.4v-1.43a6.51 6.51 0 0 0-2.83-.74A4 4 0 0 0 24 23.17c0 2.96 2.52 3.83 4.2 3.83a4.8 4.8 0 0 0 2.8-.9v-1.5h-.28c-.24.6-1.08 1.83-2.51 1.83-1.8 0-3.21-1.68-3.21-3.38s1.54-3.31 2.88-3.31c1.35 0 2.28.32 2.43 1.43ZM32 19v.58l.5.42v6.21l-.5.4V27h1.69v-.4l-.69-.39v-5.72L36.01 27h.3L39 20.5v5.71l-.68.4V27h2.18v-.4l-.5-.39v-6.63h.5V19h-1.62l-2.48 6.08L33.82 19H32Z" fill="#3D76A4"/></svg>