<!-- by TradingView --><svg width="56" height="56" viewBox="0 0 56 56" xmlns="http://www.w3.org/2000/svg"><path fill="#F0F3FA" d="M0 0h56v56H0z"/><path d="M28.01 14.33c-.78 0-1.56.06-2.3.2l-1.08-3.2A17 17 0 1 1 12.3 21.5L10 20.36l4.55-2.71.04-.06L17 16.16v7.7L15.3 23a13.67 13.67 0 1 0 12.72-8.67Z" fill="#193465"/><path d="m19.9 32.48 7.36 3.77 7.3-3.37v-3.99l2.58-1.64-2.88-3.7-7-3.69-7.15 3.51-2.4 3.93 2.2 1.01v4.17Z"/><path d="m20.4 23.85-2 3.32 7.2 3.22 1.25-2.98-6.44-3.56Z" fill="#C16B30"/><path d="M26.97 35.59v-7.15l-1.07 2.59-5.53-2.46v3.66l6.6 3.36ZM34.1 24.1l2.36 2.98-6.25 4.1-2.71-3.5 6.6-3.59Z" fill="#C16B30"/><path d="M27.5 35.59v-7.15l2.71 3.27 3.89-2.49v3.45l-6.6 2.92Z" fill="#C16B30"/><path d="m25.55 21.21-4.65 2.34 4.65 2.58v-4.91ZM27.3 20.3l-1.37.72v5.28l1.48.9 6.3-3.47-6.41-3.44Z" fill="#713712"/></svg>