<!-- by TradingView --><svg width="56" height="56" viewBox="0 0 56 56" xmlns="http://www.w3.org/2000/svg"><path fill="#F0F3FA" d="M0 0h56v56H0z"/><circle cx="13.5" cy="37.5" r="3.5" fill="#E6211A"/><circle cx="42.5" cy="18.5" r="3.5" fill="#E59838"/><path d="M20.03 36A13.36 13.36 0 0 1 16 26.42C16 19.01 22.03 13 29.46 13c3.73 0 7.1 1.51 9.54 3.96l-2.8 2.8a9.5 9.5 0 0 0-13.4 13.46L20.02 36Z" fill="#E59838"/><path d="M35.97 20A13.36 13.36 0 0 1 40 29.58C40 36.99 33.97 43 26.54 43c-3.73 0-7.1-1.51-9.54-3.96l2.8-2.8a9.5 9.5 0 0 0 13.4-13.46L35.98 20Z" fill="#E6211A"/></svg>