<!-- by TradingView --><svg xmlns="http://www.w3.org/2000/svg" width="56" height="56"><path fill="url(#awexghmkk)" d="M0 0h56v56H0z"/><path d="M38.43 30c-.21 0-.43-.22-.43-.5s.22-.5.43-.5h4.13c.2 0 .44.22.44.5s-.23.5-.44.5h-4.13z" fill="#F2591A"/><path d="M38.44 26.5c-.21 0-.44-.22-.44-.5s.23-.5.44-.5h4.11c.2 0 .45.22.45.5s-.24.5-.45.5h-4.11z" fill="#F3A00F"/><path d="M38.45 23c-.21 0-.45-.22-.45-.5s.24-.5.45-.5h4.1c.2 0 .45.22.45.5s-.25.5-.46.5h-4.1z" fill="#FBC208"/><path d="M9.98 23.65A3.13 3.13 0 008.07 23C6.51 23 5 24.03 5 26c0 1.57 1.03 3 3.07 3 .7 0 1.58-.27 1.93-.64V26.5H7.74c-.23 0-.46-.28-.46-.5 0-.22.23-.5.46-.5h2.85c.23 0 .41.16.41.38v2.74a.4.4 0 01-.05.2l-.1.12-.1.08c-.74.64-1.68.98-2.67.98A4.01 4.01 0 014 26a3.9 3.9 0 011.25-2.9A4.2 4.2 0 018.07 22c1.04 0 2 .39 2.76 1.12.08.08.16.19.16.26 0 .22-.13.55-.5.55-.18 0-.34-.14-.5-.28zM16 23a2.96 2.96 0 00-3 3c0 1.76 1.48 3 3 3a3 3 0 003-3 2.98 2.98 0 00-3-3zm-.05 7A3.97 3.97 0 0112 26a4.01 4.01 0 013.95-4H16a3.97 3.97 0 014 4 4 4 0 01-3.91 4h-.14zm6.05-.42c0 .23.18.42.41.42h4.18c.23 0 .41-.27.41-.5 0-.23-.18-.5-.41-.5H23v-6.58c0-.23-.27-.42-.5-.42-.23 0-.5.19-.5.42v7.16zm8-.58h2.44c1.6 0 2.56-1.17 2.56-3 0-1.57-.85-3-2.56-3H30v6zm-.6 1a.4.4 0 01-.4-.42V22.4c.01-.22.18-.4.4-.4h3.04a3.39 3.39 0 012.8 1.48A4.63 4.63 0 0136 26c0 2.28-1.53 4-3.56 4H29.4zM46 23.87l5.25 5.98a.42.42 0 00.75-.25v-7.18c0-.23-.27-.42-.5-.42-.23 0-.5.19-.5.42v5.66l-5.25-5.92c-.12-.1-.23-.17-.36-.16-.2.03-.37.2-.39.4v7.18c0 .23.27.42.5.42.23 0 .5-.19.5-.42v-5.71zM4.14 32.5h47.72c.08 0 .14-.11.14-.25s-.06-.25-.14-.25H4.14c-.08 0-.14.11-.14.25s.06.25.14.25zM9.9 34v2h1.26v-.27h-.97v-.6h.83v-.27h-.83v-.59h.97V34H9.9zm4.13 2l-.92-1.4V36h-.3v-2h.28l.91 1.4V34h.3v2h-.27zm2.73 0v-1.73h.54V34h-1.39v.27h.55V36h.3zm2.14 0v-2h1.27v.27h-.97v.59h.83v.27h-.83v.6h.97V36H18.9zm3.25-1.73h.44c.2 0 .34.12.34.32s-.14.3-.34.3h-.44v-.62zm.37.89l.42.84h.35l-.45-.88c.22-.07.4-.25.4-.54 0-.34-.25-.58-.62-.58h-.77v2h.3v-.84h.37zm3.1-.89V36h-.3v-1.73h-.55V34h1.39v.27h-.55zm2.36 1.07l.3-.89.3.89h-.6zm.69.26l.14.4h.32l-.73-2h-.24l-.73 2h.32l.14-.4h.78zm1.95-1.6h.3v2h-.3v-2zm2.54.6l.92 1.4h.28v-2h-.3v1.4l-.92-1.4h-.28v2h.3v-1.4zm4.29 1.4v-1.34l-.46.98h-.22l-.47-.98V36H36v-2h.3l.58 1.24.57-1.24h.3v2h-.3zm2.05-2v2h1.26v-.27h-.96v-.6h.82v-.27h-.82v-.59h.96V34H39.5zm4.16 2l-.92-1.4V36h-.3v-2h.28l.91 1.4V34h.3v2h-.27zm2.64 0v-1.73h.55V34h-1.4v.27H46V36h.3z" fill="#fff"/><defs><linearGradient id="awexghmkk" x1="10.42" y1="9.71" x2="68.15" y2="76.02" gradientUnits="userSpaceOnUse"><stop stop-color="#1A1E21"/><stop offset="1" stop-color="#06060A"/></linearGradient></defs></svg>