<!-- by TradingView --><svg width="56" height="56" viewBox="0 0 56 56" xmlns="http://www.w3.org/2000/svg"><path fill="#F0F3FA" d="M0 0h56v56H0z"/><path fill-rule="evenodd" d="M31.75 13.32a2.66 2.66 0 1 0 0-5.32 2.66 2.66 0 0 0 0 5.32Zm.94 2.77c1.65.79 3.45 1.93 4.15 2.4.63.4.65 2.06-.89 1.06l-3.48-2.26-1.4 6.42 4.67 5.27c2.7 2.79 3.3 6.02 3.26 7.28-.26 7.23-8.47 8.28-12.55 7.9-.48 1.35-2.2 4-5.23 3.83-3.04-.17-2.15-4.02-1.33-5.92l-2.44-1.86c-.27-.2-.7-.73-.25-1.22.46-.49 1.03-.2 1.26 0 .51.63 1.6 1.46 2.07 1.8.84-1.47 1.9-1.98 2.34-2.05L22 41.6l1.3.68c.6-1.2 1.56-4.79 1.97-6.43l-4.05-4.7c-3.07-3.16-3.73-6.65-3.67-8 .78-6.53 8.1-7.74 11.68-7.52l.5-2.65c1.36.99 2.84.82 3.41.62l-.45 2.48Zm-2.58 6.89 1.48-7.68-1.22-.14-1.39 6.63 1.13 1.19Zm-1.92-2.1.8-3.96c-.55-.07-1.69.1-1.96 1.3s.66 2.27 1.16 2.66Zm-.2 18.23-.85 3.65c.48.09 1.52-.04 1.85-1.21.34-1.18-.52-2.11-1-2.44Zm-.85-1-1-1.21c-1.18 6.14-3.17 8.44-4.25 8.46-.86.02-.97-1.72-.91-2.6-.47-.57-.77.13-.86.56-.68 2.63.67 3.4 1.44 3.45 3.43.05 5.15-5.75 5.58-8.65Zm-5.58 4.79 1.18.57c-.18.3-.64.85-1 .6-.37-.26-.28-.89-.18-1.17Zm.63-3.2c-.45.23-1 1.07-1.21 1.47l.58.24.63-1.7Z" fill="#DB261C"/></svg>