<!-- by TradingView --><svg xmlns="http://www.w3.org/2000/svg" width="56" height="56"><path fill="#F9E548" d="M0 0h56v56H0z"/><path d="M9 24c1.12 0 2.11.5 2.37 1.63h2.09c-.27-2.28-2.3-3.63-4.48-3.63C5.82 22 4 24.64 4 27.6 4 30.4 5.68 33 8.68 33c1.37 0 2.34-.57 3.2-1.58l.2 1.58h1.42v-6H9v2h2.61c-.2 1.34-1.24 2-2.61 2-1.99 0-3-1.62-3-3.36C6 25.87 6.91 24 9 24zm38.5 1.75c0 1.44-1.2 1.75-2.45 1.75H42V24h3.1c1.27 0 2.4.35 2.4 1.75zM42 33v-4.5h3.1c.64 0 1.34.2 1.78.73.05.08.56 1.05 1.1 2.12-.83 1.35-1.75 2.85-1.78 2.93-.14.3-.45.54-.55.61V35h1.1c.15-.17.3-.45.45-.72l.02-.03 1.23-1.98c.5 1 .94 1.87.99 2 .16.31.3.6.47.73H51a2.44 2.44 0 01-.55-.7l-.78-1.6-.65-1.32a121.5 121.5 0 011.5-2.35c.14-.17.3-.3.48-.4v-.13h-.11c-.37 0-1.03-.01-1.18.17l-.16.2-.21.31-.78 1.25-.5-1.05a1.8 1.8 0 00-1.12-1.15 2.67 2.67 0 001.56-2.53c0-2.07-1.62-2.7-3.42-2.7H41v10h1zm-4-3.9c0-1.07-.64-2.36-1.98-2.34-1.33 0-2.02 1.2-2.02 2.28 0 1.1.67 2.3 2.02 2.3 1.32 0 1.98-1.16 1.98-2.24zm0-2.94V23h2v10h-2v-1.28A3 3 0 0135.41 33C33.22 33 32 31.04 32 29.17c0-2.05 1.1-4.17 3.56-4.17.88 0 1.97.47 2.44 1.16zm-19.16.5c1.31 0 1.8 1.2 1.8 2.34 0 1.15-.48 2.36-1.8 2.36-1.34 0-1.84-1.2-1.84-2.36 0-1.15.51-2.34 1.84-2.34zM15 29c0 2.3 1.51 4 3.85 4s3.85-1.7 3.85-4c0-2.29-1.53-4-3.85-4-2.33 0-3.85 1.7-3.85 4zm13.95 0c0-1.14-.5-2.34-1.82-2.34S25.3 27.85 25.3 29c0 1.17.5 2.36 1.83 2.36s1.82-1.2 1.82-2.36zm-1.8 4c-2.34 0-3.85-1.7-3.85-4s1.52-4 3.85-4c2.32 0 3.85 1.71 3.85 4 0 2.3-1.52 4-3.85 4z"/></svg>