<!-- by TradingView --><svg width="56" height="56" xmlns="http://www.w3.org/2000/svg"><path fill="#BD1B21" d="M0 0h56v56H0z"/><path d="M16 33.743v-12.47s-.027-.183.27-.352c.918-.523 3.882-2.21 4.23-2.421.166-.1.5-.224.5-.5v-3.5s0-.303-.5-.035c-1 .535-6.582 3.826-7 4.035-.418.209-.5.305-.5.5v16.5c0 .5.127.773.5 1 3.261 1.98 5.933 3.591 7 4.234.5.266.5-.076.5-.076V20.746s0-.354-.418-.103c-.439.263-1.204.72-2.209 1.304-.44.256-.373.476-.373.476v12.363s.037.23-.25.106c-.285-.123-1.482-.756-1.482-.756S16 34 16 33.743zM23 17v-3.5c0-.417-.01-.518.24-.637.134-.064 2.26-1.363 4.527-2.73.214-.128.456 0 .456 0l4.55 2.73S33 13 33 13.367V41.5c0 .414.11.552-.5.934-.315.197-4 2.265-4.09 2.319-.349.21-.378.197-.735 0C24.5 43 24.5 43 23.5 42.434c-.579-.328-.5-.434-.5-.934V20c0-.4-.054-.53.312-.758C24.5 18.5 24.5 18.5 26.5 17.122c.285-.197.5-.048.5.378v22.715c0 .82 1.98.957 1.98 0l.02-25.43c0-.41-.73-.684-1-.547-.236.12-3.883 2.33-4.794 2.883C23 17.246 23 17 23 17zM35 23.694v-9.385s0-.207.346 0c1.36.816 6.328 3.794 7.408 4.43a.513.513 0 01.246.416v3.578s0 .268-.336.044c-.676-.451-3.378-2.134-4.33-2.726C38 19.844 38 20 38 20.5v1c0 .5-.016.524.374.755.884.522 4.29 2.904 4.29 2.904s.336.21.336.46V36s0 .281-.218.377c-.016.007-5.565 3.233-7.282 4.23-.5.291-.5-.107-.5-.107V27c0-.5.296-.294.296-.294l2.423 1.692s.281.194.281.434V34.5c0 .5.284.358.284.358l1.404-.702S40 34 40 33.5v-6c0-.178-.268-.317-.268-.317l-4.4-2.96S35 24 35 23.692z" fill="#fff"/></svg>