<!-- by TradingView --><svg width="56" height="56" viewBox="0 0 56 56" xmlns="http://www.w3.org/2000/svg"><path fill="#F0F3FA" d="M0 0h56v56H0z"/><path fill-rule="evenodd" d="M28 41a13 13 0 1 0 0-26 13 13 0 0 0 0 26Zm2.78-22.1c.98.49 2.4 1.3 3.46 2.12.54.41.96.8 1.19 1.14.24.36.18.48.15.51-.1.16-.4.32-.99.43-.52.09-1.15.12-1.84.14l-2.42-2.17-.66.75 1.66 1.49c-.47.03-.93.08-1.35.17-.77.17-1.55.5-1.93 1.24-.4.8.02 1.53.51 2.07l.33.32c-.36.03-.7.07-1 .12-.41.07-.8.16-1.11.31-.3.14-.63.37-.75.75-.18.52.03 1.03.3 1.43.28.4.7.8 1.14 1.17.45.36.94.7 1.43 1a50.1 50.1 0 0 1-5.88.06l-.04 1c1.98.1 5.2.11 7.6-.23a9.85 9.85 0 0 0 2.15-.51c.54-.21 1.1-.56 1.26-1.14.2-.8-.33-1.48-.86-1.98-.39-.38-.89-.75-1.4-1.1.67-.03 1.3-.05 1.85-.1.4-.04.77-.09 1.07-.17.15-.04.3-.1.43-.18.13-.07.28-.19.37-.37.3-.59.01-1.18-.32-1.59a4.34 4.34 0 0 0-1.4-1.08l-.45.9c.45.22.84.52 1.07.81.21.26.23.4.21.48a5.25 5.25 0 0 1-1.08.2c-.6.06-1.34.08-2.12.1l-.63.02-.36.01c-.43-.31-.8-.62-1.07-.91-.43-.46-.46-.73-.35-.94.16-.32.55-.56 1.24-.71.68-.15 1.52-.18 2.4-.21h.05c.73-.03 1.49-.06 2.12-.17.63-.1 1.3-.32 1.66-.86.37-.56.14-1.18-.17-1.62a6.64 6.64 0 0 0-1.4-1.37A23.95 23.95 0 0 0 31.23 18l-.44.9Zm-2.73 9.31c.57-.1 1.27-.14 2.02-.18l.46.33.14.1c.68.47 1.32.91 1.77 1.35.52.5.63.8.58 1.02-.02.06-.15.25-.66.45-.44.18-1.05.32-1.77.43-.73-.38-1.71-.97-2.49-1.6a4.88 4.88 0 0 1-.94-.95c-.2-.3-.21-.48-.19-.55v-.01l.04-.04c.03-.03.1-.07.19-.11.2-.1.48-.17.85-.24Zm3.1 5.1c.2.2.42.5.52.79.1.3.05.42-.02.5-.05.04-.17.12-.43.2-.24.09-.57.16-.95.23-.78.14-1.77.23-2.86.3-2.17.12-4.66.12-6.41.12v1c1.75 0 4.26 0 6.47-.13 1.1-.06 2.13-.16 2.97-.3.41-.07.8-.16 1.1-.27.3-.1.6-.24.81-.45.47-.47.42-1.08.26-1.53a3.29 3.29 0 0 0-.76-1.18l-.7.71Z" fill="#36BA92"/><path d="M34.33 20.57a22.97 22.97 0 0 0-3.47-2.12l.45-.9c1.01.51 2.5 1.35 3.63 2.23.56.43 1.07.9 1.4 1.37.3.44.54 1.06.16 1.63-.36.53-1.03.75-1.65.86-.64.1-1.4.13-2.12.16h-.06c-.87.03-1.71.06-2.4.21-.7.15-1.08.4-1.24.71-.1.2-.07.48.35.94.27.3.65.6 1.08.91a63.97 63.97 0 0 1 .98-.03c.79-.02 1.53-.04 2.13-.1a5.26 5.26 0 0 0 1.08-.2c.01-.07 0-.22-.21-.48-.24-.28-.63-.59-1.08-.81l.45-.9c.54.28 1.06.66 1.4 1.09.33.4.61 1 .32 1.58-.09.18-.24.3-.37.38-.13.07-.28.13-.43.17-.3.09-.67.14-1.07.17-.54.05-1.18.07-1.84.1.5.35 1 .72 1.4 1.1.53.5 1.05 1.19.85 1.98-.15.59-.71.93-1.26 1.14-.58.23-1.33.4-2.16.52-2.39.34-5.6.32-7.6.22l.06-1c1.55.08 3.84.1 5.87-.05-.48-.3-.98-.65-1.42-1a5.84 5.84 0 0 1-1.14-1.18c-.27-.4-.48-.9-.31-1.43.13-.38.45-.6.75-.75.31-.14.7-.24 1.1-.3.32-.06.65-.1 1-.13l-.31-.32c-.5-.54-.91-1.27-.51-2.06.37-.75 1.15-1.08 1.92-1.24.42-.1.88-.15 1.35-.18l-1.66-1.49.67-.74 2.42 2.16c.69-.02 1.32-.05 1.84-.14.6-.1.88-.26.99-.43.02-.03.08-.15-.16-.5a5.71 5.71 0 0 0-1.18-1.15Zm-4.18 7.02c-.75.03-1.45.08-2.01.18a3.5 3.5 0 0 0-.86.23.76.76 0 0 0-.19.12.2.2 0 0 0-.03.03c-.03.09-.03.25.18.56.2.3.53.62.95.96.77.63 1.76 1.22 2.48 1.6a8.49 8.49 0 0 0 1.77-.44c.52-.2.64-.38.66-.45.05-.2-.05-.52-.57-1.02-.46-.44-1.1-.88-1.78-1.35l-.14-.1-.46-.32Zm1.6 6.06a2.3 2.3 0 0 0-.52-.8l.7-.7c.3.29.6.72.76 1.17.16.45.21 1.07-.25 1.53-.21.21-.5.35-.81.45-.31.11-.7.2-1.1.27-.84.15-1.88.24-2.98.3-2.2.13-4.71.13-6.46.13v-1c1.75 0 4.23 0 6.4-.12 1.09-.07 2.08-.16 2.86-.3.39-.06.71-.14.96-.22.26-.1.38-.17.42-.21.07-.07.12-.2.02-.5Z" fill="#3691EE"/><path d="M39.9 35c-2.4 4.18-6.89 7-12.03 7-7.67 0-13.9-6.27-13.9-14s6.23-14 13.9-14a13.9 13.9 0 0 1 12.98 9H44a16.9 16.9 0 0 0-16.13-12A16.94 16.94 0 0 0 11 28c0 9.39 7.55 17 16.87 17 6.84 0 12.73-4.1 15.38-10H39.9Z" fill="#3691EE"/></svg>