<!-- by TradingView --><svg width="56" height="56" viewBox="0 0 56 56" xmlns="http://www.w3.org/2000/svg"><path fill="#F0F3FA" d="M0 0h56v56H0z"/><path d="M28.3 40.7c-.98.12-1.98.15-2.97.1-2.6-.16-5.1-1.16-7.1-2.85a17.29 17.29 0 0 1-5.04-7.37c-.83-.42-1.04-1.23-1.14-2.1-.16-1.4.07-2.79.39-4.15a23.42 23.42 0 0 1 2.33-6.2c.38-.73.9-1.39 1.53-1.93.23-.2.5-.37.78-.49a1 1 0 0 1 1.24.37c.16.23.28.48.35.75l.4-.56a9.68 9.68 0 0 1 3.28-3.06 4.88 4.88 0 0 1 3.74-.48c.93-.3 1.9-.5 2.86-.62 3.78-.46 7.15.51 10.06 3.02A13.34 13.34 0 0 1 42 18.78c.4.75.5 1.5.03 2.27-.12.19-.26.36-.43.5.58.27.86.78 1.11 1.31.5 1.09.75 2.25.94 3.42.23 1.23.35 2.48.35 3.74a11.78 11.78 0 0 1-3.08 7.95l-.5.58c0 1.06-.6 1.89-1.44 2.58-1 .8-2.16 1.32-3.37 1.73a21.76 21.76 0 0 1-6.29 1.13 8.38 8.38 0 0 1-2.19-.17 1.66 1.66 0 0 1-.88-.54c-.3-.34-.27-.68.1-.95a3.4 3.4 0 0 1 1.27-.52l.11-.03c-.06-.5.34-.72.58-1.03v-.05Z" fill="#050708"/><path d="m20.32 36.09-.3-.23a10.95 10.95 0 0 1-3.9-5.55 12.1 12.1 0 0 1-.7-3.81c0-1.73.42-3.38 1.05-4.97.05 0 .07 0 .05.05l-.1.58c0 .07 0 .15-.02.22l-.03.22a17.76 17.76 0 0 0-.32 3.83c.06 1.61.39 3.16 1.13 4.6l.16.26.05.05.02.05a7.61 7.61 0 0 0 .08.19.5.5 0 0 1 .07.1l.03.05.01.02c.05.04.05.1.1.15l.1.15a1.04 1.04 0 0 1-.08-.13.7.7 0 0 0-.05-.07.33.33 0 0 0-.05-.1l-.05-.06a.25.25 0 0 0-.06-.09l-.04-.07a.3.3 0 0 1-.03-.05l-.02-.07-.01-.06c-.02-.03-.06-.05-.07-.09l-.1-.16c-.01-.04-.04-.08-.06-.11a12.61 12.61 0 0 1-.73-2.07l-.05-.24c0-.08-.04-.15-.04-.23l-.04-.16a.5.5 0 0 1 0-.06l-.04-.19a.52.52 0 0 1-.01-.09l-.03-.15a.4.4 0 0 1-.01-.05.9.9 0 0 1-.01-.16l-.03-.18a1.23 1.23 0 0 1-.03-.23.78.78 0 0 0-.03-.25 1.18 1.18 0 0 1-.03-.24v-.16c0-.67-.03-1.34.06-2 .03-.1.04-.18.05-.28l.01-.07a.62.62 0 0 0 .04-.2.81.81 0 0 1 .03-.2l.06-.3c0-.05.02-.1.03-.14a.9.9 0 0 0 .02-.13l.05-.24a.14.14 0 0 1 .08-.12c.2-.75.46-1.48.76-2.2.02-.02.03-.02.05 0l-.16.73c.02.06.02.11 0 .17l-.01.07-.02.18c-.15.78-.3 1.57-.38 2.36a12.59 12.59 0 0 0 .03 3.49c.02-.12-.03-.23-.02-.35 0-.07.02-.14.07-.2.04-2 .33-3.98.87-5.9l.06-.16c.05 0 .07 0 .05.06l-.06.57v.2l-.01.08a10.3 10.3 0 0 0-.17 4.54 1.74 1.74 0 0 1 .07-.32.2.2 0 0 1 .06-.1l.1-.59c.02-.02.03-.02.04 0l.06.3.06.09c.11.46.15.93.25 1.39.04.27.15.52.3.73l.09-.47a.12.12 0 0 1 .05-.04.08.08 0 0 1 .05.02l.08.1.06.06.04.04.02.02a.7.7 0 0 1 .04.04l.02.02.03.06.02.02.01.07c.05.23.17.45.35.62.2.24.44.43.72.56.29.14.55.34.82.5a1.55 1.55 0 0 0 1.3.21c.6-.18 1.23-.3 1.86-.39a.3.3 0 0 1 .1.03c.03 0 .04.02.05.04v.04a.23.23 0 0 1-.1.16h-.08l-.03.03a.25.25 0 0 1-.03.02l-.02.02a.45.45 0 0 0-.13.1l-.04.03-.01.02a.4.4 0 0 1-.09.06l-.06.05-.04.03a.49.49 0 0 1-.04.03l-.02.02-.04.02a.52.52 0 0 0-.06.04l-.04.04-.03.03-.02.02a.41.41 0 0 1-.08.06l-.06.05c-.02 0-.03.02-.04.03a.54.54 0 0 1-.08.06l-.06.04c-.02 0-.03.02-.04.03l-.02.02-.03.03-.02.02a.42.42 0 0 1-.08.06l-.06.04-.04.03-.02.02-.03.04-.02.02a.51.51 0 0 1-.03.04.21.21 0 0 1-.08.06l-.05.02-.02.01-.04.03-.03.02-.04.02a.46.46 0 0 0-.08.07.66.66 0 0 1-.04.04l-.02.01a.46.46 0 0 1-.04.04l-.02.02c-.02 0-.03.02-.05.03a.77.77 0 0 0-.06.05l-.04.03-.02.02-.04.04-.02.01a.45.45 0 0 1-.08.07l-.06.03c0 .02-.02.03-.03.04l-.02.01-.03.03-.02.02a.55.55 0 0 1-.04.04l-.01.01a.26.26 0 0 1-.04.03.21.21 0 0 1-.04.03l-.06.04-.03.03-.02.02a.58.58 0 0 1-.04.03l-.01.02a.55.55 0 0 1-.04.03l-.01.02a.54.54 0 0 1-.04.03l-.01.02a.27.27 0 0 1-.04.03.2.2 0 0 1-.04.02l-.06.04a.93.93 0 0 0-.08.08l-.02.02a.48.48 0 0 1-.04.03l-.01.02a.55.55 0 0 1-.04.03l-.01.02a.51.51 0 0 1-.04.03l-.01.02a.54.54 0 0 1-.03.03l-.02.02a.46.46 0 0 1-.03.03l-.02.02a.51.51 0 0 1-.03.03l-.02.02a.55.55 0 0 1-.03.03l-.02.02a.55.55 0 0 1-.03.03l-.02.02-.03.03-.02.02-.04.04-.01.02-.04.04a.52.52 0 0 0-.06.08l-.01.02-.02.03a.42.42 0 0 1-.03.04l-.02.02-.03.03a.5.5 0 0 0-.04.07l-.03.04-.03.08-.02.05.01.14.04.06.06.06a1.48 1.48 0 0 0 .1.07l.05.03.02.02.06.05.02.01.03.01.07.04.04.03.04.03.02.01.08.03.05.02.1.04.14.02.1.02c.09.03.19.03.28 0h.06l.14-.04a.82.82 0 0 0 .25-.13l.02-.02c.02 0 .03-.02.05-.03a.5.5 0 0 0 .08-.06l.05-.06a.68.68 0 0 0 .06-.08.4.4 0 0 1 .07-.09l.01-.01a.58.58 0 0 0 .04-.07l.03-.04a.33.33 0 0 1 .03-.04l.01-.01.03-.04a.55.55 0 0 0 .04-.06.2.2 0 0 1 .03-.04l.03-.04.02-.01a.48.48 0 0 1 .03-.04l.02-.02a.43.43 0 0 1 .03-.03l.05-.05a.91.91 0 0 0 .03-.06l.03-.04a.3.3 0 0 1 .03-.04l.02-.01a.48.48 0 0 1 .03-.04l.02-.02a.51.51 0 0 1 .03-.03l.02-.02a.52.52 0 0 1 .03-.03l.02-.02a.56.56 0 0 1 .03-.03l.02-.02a.67.67 0 0 1 .07-.07l.02-.02.03-.03.02-.02a.4.4 0 0 1 .03-.04l.05-.05.05-.05.05-.05.05-.04.05-.06a1 1 0 0 0 .06-.1l.03-.03.02-.02a.44.44 0 0 1 .03-.03l.02-.02a.5.5 0 0 1 .03-.03l.01-.01a.5.5 0 0 1 .04-.04l.01-.01a.5.5 0 0 1 .04-.04l.01-.01a.5.5 0 0 1 .03-.04l.02-.01a.47.47 0 0 1 .03-.03l.02-.02a.5.5 0 0 1 .03-.03l.02-.02a.47.47 0 0 1 .03-.03l.02-.02a.52.52 0 0 1 .03-.03l.01-.02a.5.5 0 0 1 .04-.03l.01-.02a.47.47 0 0 1 .04-.03l.01-.01a.5.5 0 0 1 .03-.04l.02-.01a.52.52 0 0 1 .03-.04l.02-.01a.5.5 0 0 1 .03-.04l.02-.01a.47.47 0 0 1 .03-.03l.02-.02a.47.47 0 0 1 .03-.03l.01-.02a.5.5 0 0 1 .04-.03l.01-.02a.5.5 0 0 1 .03-.03l.02-.02a.5.5 0 0 1 .03-.03l.02-.02a.52.52 0 0 1 .03-.03l.02-.01a.5.5 0 0 1 .03-.04l.02-.01a.47.47 0 0 1 .03-.04l.02-.01a.5.5 0 0 1 .03-.04l.01-.01a.5.5 0 0 1 .04-.03l.01-.02a.47.47 0 0 1 .03-.03l.02-.02a.47.47 0 0 1 .03-.03l.02-.02a.52.52 0 0 1 .03-.03l.02-.02a.52.52 0 0 1 .03-.03l.02-.02a.5.5 0 0 1 .03-.03l.01-.01a.5.5 0 0 1 .04-.04l.01-.01a.52.52 0 0 1 .04-.04l.01-.01a.5.5 0 0 1 .03-.04l.02-.01a.45.45 0 0 1 .03-.03l.02-.02a.5.5 0 0 1 .03-.03l.02-.02a.52.52 0 0 1 .03-.03l.02-.02a.5.5 0 0 1 .03-.03l.01-.02a.47.47 0 0 1 .04-.03l.01-.02a.52.52 0 0 1 .04-.03l.01-.01a.5.5 0 0 1 .03-.04l.02-.01a.5.5 0 0 1 .03-.04l.02-.01a.5.5 0 0 1 .03-.04l.02-.01a.54.54 0 0 1 .03-.04l.02-.01a.54.54 0 0 1 .03-.04l.02-.01a.5.5 0 0 1 .03-.04l.02-.01.03-.04.01-.01a.4.4 0 0 1 .04-.04l.05-.05.05-.05.05-.05.06-.06.06-.07a.26.26 0 0 1 .14-.08c.63.11 1.24.28 1.84.5.7.22 1.37.52 2 .88l.11.08c.02 0 .03.02.05.04l.05.07.03.04.02.02a.53.53 0 0 1 .06.08l.04.07.03.04.01.02.03.04a.6.6 0 0 0 .08.1l.03.05.02.02.03.04a.8.8 0 0 0 .08.1l.02.02.03.04.02.02.03.03.02.02a.5.5 0 0 1 .03.04l.02.01.04.04.01.01.04.04.02.02.03.03.02.02.04.03.02.02a.9.9 0 0 0 .06.05l.03.01.02.02a.4.4 0 0 1 .04.03l.02.02.04.04.02.02a.5.5 0 0 0 .08.06l.03.01.02.02a.8.8 0 0 0 .14.1l.04.03.01.01.06.04.05.02.03.03.03.02.06.04a.2.2 0 0 1 .05.03c.03.04.01.1.05.14l.23.36c.35.58.6 1.2.78 1.86.24 1 .14 1.94-.53 2.76a5 5 0 0 1-1.84 1.36c-1.1.49-2.28.78-3.49.87-.9.1-1.8.02-2.68-.23a9.73 9.73 0 0 1-1.96-.88c-.18-.18-.42-.3-.46-.62.3.02.6.07.89.18.7.28 1.44.43 2.2.45.27.02.54-.05.77-.2 0-.15-.13-.13-.2-.15-.95-.25-1.9-.5-2.82-.84-.2-.07-.4-.16-.6-.25-.66-.37-1.33-.75-1.96-1.16Z" fill="#F7EE22"/><path d="m24.1 29.67.08-.05a.18.18 0 0 1 .05-.08.16.16 0 0 0 .03-.06l.02-.03c.62-.47 1.21-1 1.76-1.55.16-.15.29-.33.36-.53a.2.2 0 0 0-.26-.01c-.79.42-1.57.84-2.22 1.48a.8.8 0 0 0-.17.2c-.2.4-.55.58-.97.63-.58.09-1.15.03-1.63-.3-.55-.39-1.12-.71-1.67-1.09a1.54 1.54 0 0 1-.3-.24l-.02-.02-.04-.04a.77.77 0 0 0-.07-.06l-.02-.02-.01-.02a.26.26 0 0 0-.03-.05.72.72 0 0 1-.05-.05.5.5 0 0 1-.05-.05l-.06-.09-.09-.08-.04-.07a1.38 1.38 0 0 1-.44-.74 1.94 1.94 0 0 0-.06-.16l-.04-.13a1.44 1.44 0 0 1-.06-.37c0-.13.04-.25.05-.37a.71.71 0 0 1 .41-.53c.27-.14.56-.2.86-.2.23-.05.47.03.7-.05a2.9 2.9 0 0 1 .5 0c.1.04.2.05.29.04a1.5 1.5 0 0 1 .28.03c.08.02.16.03.24.02a1.3 1.3 0 0 1 .25.03c.1.02.2.03.3.02h.52a.73.73 0 0 0 .24-.03l.1-.01c.05 0 .1-.02.15-.04.1-.02.2-.02.3-.05h.09a.62.62 0 0 0 .25-.04 1.3 1.3 0 0 0 .3-.06c.1 0 .2-.02.3-.04l.1-.02c.08 0 .16 0 .24-.03a.68.68 0 0 1 .13-.02c.07 0 .14 0 .2-.03l.07-.01c.1 0 .18-.01.27-.04l.1-.01c.08 0 .16-.01.23-.03l.1-.02h.09c.05 0 .1 0 .15-.02a.4.4 0 0 1 .05-.02h.16l.18-.03.06-.02.2-.01c.06 0 .11-.02.17-.04l.18-.04c1.01-.17 2.03-.28 3.05-.42l1.6-.23c.1-.01.2 0 .3-.03l.13-.02.09-.02.11-.04.06-.02a1.05 1.05 0 0 0 .15-.05c.03 0 .06-.02.08-.03a1.08 1.08 0 0 0 .15-.07c.03 0 .05-.02.07-.03l.05-.02.06-.03.07-.04.04-.02a1.56 1.56 0 0 0 .11-.05l.05-.03.05-.02.04-.03a.6.6 0 0 1 .05-.02l.05-.02.02-.01.05-.02a1.38 1.38 0 0 0 .1-.06l.08-.04.1-.06.1-.06.1-.06.02-.01.05-.03.15-.09a.36.36 0 0 1 .05-.03l.07-.03.05-.03a.68.68 0 0 0 .07-.05.29.29 0 0 1 .05-.03.3.3 0 0 1 .06-.02.7.7 0 0 1 .26.01l.12.03c.06 0 .1 0 .16.02l.12.03a.7.7 0 0 1 .09.02l.11.04c.03 0 .06 0 .09.02l.11.02.1.03.17.06a1.79 1.79 0 0 1 .14.04l.1.04.1.04.05.01.08.04.04.02.11.03.06.02a1.58 1.58 0 0 1 .3.1.56.56 0 0 1-.03.8c-.35.33-.74.6-1.16.82-1.2.68-2.53.98-3.85 1.3-.17.03-.35.07-.52.12l-.46.13c-.02 0-.03.01-.07.06.02.3.12.58.27.84a4.44 4.44 0 0 0 1.83 1.62l.06.04.05.03.06.03.05.03a3 3 0 0 0 .07.03l.02.01.02.01.1.05a3.27 3.27 0 0 0 .39.17 1 1 0 0 1 .1.05l.09.04c.02 0 .04.02.05.03l.18.06a.9.9 0 0 1 .06.03l.34.13a6.93 6.93 0 0 0 .44.16l.1.04.12.04.06.02.11.04c.03 0 .05.02.08.03l.08.02.07.04.05.02a1.35 1.35 0 0 0 .13.04l.1.04a1.55 1.55 0 0 0 .19.06h.02l.11.04.08.03.07.03.08.02.07.03.08.02.07.03.08.02.08.02c.04.02.08.02.11.02h.28l.05-.02.05-.04.01-.02a.5.5 0 0 0 .04-.04.3.3 0 0 0 .01-.09v-.26c0-.07 0-.14-.03-.2a.8.8 0 0 1-.02-.15.82.82 0 0 0-.03-.21 1.06 1.06 0 0 1 0-.37c0-.04.02-.08.04-.1 0-.02 0-.03.02-.04l.02-.03a.3.3 0 0 1 .06-.04.47.47 0 0 1 .32-.03l.12.04.05.02.13.04.1.05.07.04.04.02.06.03.04.02a.97.97 0 0 0 .1.06c.03 0 .05.02.07.03h.03l.02.02.09.05.08.05.03.02.02.01a3.07 3.07 0 0 0 .1.06l.07.05.04.03h.02l.03.02a.66.66 0 0 1 .09.05l.05.04.07.04.05.03.06.04.05.03a3 3 0 0 0 .12.07l.07.05.04.02.07.04a2.03 2.03 0 0 0 .22.1l.02.02h.03c.02.02.05.02.07.03l.06.02.07.04.08.03c.03 0 .05.01.08.03l.12.05a2.68 2.68 0 0 1 .2.09.3.3 0 0 1 .05.03.8.8 0 0 1 .08.08c.04.04.06.09.06.14v.11l-.01.05a.32.32 0 0 1-.05.07.31.31 0 0 0-.04.06l-.02.04a.95.95 0 0 0-.03.07l-.02.04-.02.08-.02.1a2.07 2.07 0 0 0 0 .8l.03.09.07.2.02.05.06.1.05.09.02.02.02.05.07.08.03.04.02.02.04.04.02.02.03.06c.03.04.06.09.07.14.24.24.23.37-.05.56l-.22.13a.35.35 0 0 1-.17.12l-.14.05a2.86 2.86 0 0 0-.28.1l-.08.02-.09.03-.18.05a.7.7 0 0 1-.12.02.72.72 0 0 0-.12.03l-.12.02a4.7 4.7 0 0 1-.5.1c-.07 0-.14.02-.2.04l-.15.01a.74.74 0 0 0-.21.03c-.07.02-.15.02-.22.02-.1 0-.2 0-.3.03-.07.02-.15.02-.23.02h-.15a.9.9 0 0 1-.08 0h-.55c-.08 0-.16 0-.23-.02l-.3-.05-.2-.05c-.1-.04-.21-.03-.29-.12a17.38 17.38 0 0 1-3.94-1.64c-.02-.02-.07-.01-.1-.05h.01a.7.7 0 0 1-.05-.04c-.03-.03-.07-.02-.1-.05a.68.68 0 0 1-.05-.05 1.77 1.77 0 0 1-.14-.1l-.06-.04-.09-.06a.64.64 0 0 1-.05-.05l-.05-.04c-.01-.02-.04-.03-.06-.04-.02-.03-.06-.04-.08-.06a.38.38 0 0 1-.05-.05.5.5 0 0 1-.05-.05.62.62 0 0 1-.05-.05.56.56 0 0 1-.04-.05.56.56 0 0 1-.05-.05.63.63 0 0 1-.05-.05.51.51 0 0 1-.05-.05c-.02-.01-.02-.04-.04-.06a.96.96 0 0 1-.06-.06l-.04-.07a.68.68 0 0 1-.05-.05l-.06-.08-.04-.07a1.93 1.93 0 0 1-.1-.15v.01a.63.63 0 0 1-.05-.05.13.13 0 0 1-.02-.05 1.56 1.56 0 0 1-.07-.1 7.23 7.23 0 0 1-.81-1.12 8.27 8.27 0 0 1-.95-1.8c-.05-.15-.09-.3-.1-.46a.28.28 0 0 0-.14-.25c-.2-.02-.28.13-.37.26a13.07 13.07 0 0 1-1.77 2l-.06.05-.06.06-.05.05a1.02 1.02 0 0 0-.09.1l-.02.04a.34.34 0 0 1-.05.05.38.38 0 0 1-.05.05.4.4 0 0 1-.05.05.49.49 0 0 1-.05.05.49.49 0 0 1-.04.04.5.5 0 0 1-.05.05.5.5 0 0 1-.05.05.49.49 0 0 1-.05.05.48.48 0 0 1-.05.05.5.5 0 0 1-.05.05.45.45 0 0 1-.05.05.5.5 0 0 1-.05.05.5.5 0 0 1-.04.05.5.5 0 0 1-.05.04.5.5 0 0 1-.05.05.5.5 0 0 1-.05.05.5.5 0 0 1-.05.05.49.49 0 0 1-.05.05.5.5 0 0 1-.04.05.5.5 0 0 1-.05.05.5.5 0 0 1-.05.05.5.5 0 0 1-.05.05.49.49 0 0 1-.05.04.49.49 0 0 1-.05.05.44.44 0 0 1-.05.05.51.51 0 0 1-.04.05.54.54 0 0 1-.05.05.6.6 0 0 1-.05.05.7.7 0 0 1-.05.05.7.7 0 0 1-.05.05.66.66 0 0 1-.05.05.68.68 0 0 1-.05.04.7.7 0 0 1-.04.05.7.7 0 0 1-.05.05.68.68 0 0 1-.05.05.7.7 0 0 1-.05.05.68.68 0 0 1-.05.05.66.66 0 0 1-.05.05.7.7 0 0 1-.04.05.7.7 0 0 1-.05.05.72.72 0 0 1-.05.04.66.66 0 0 1-.05.05.68.68 0 0 1-.05.05.68.68 0 0 1-.05.05l-.05.05a.68.68 0 0 1-.04.05c-.02.01-.02.04-.04.06l-.05.05-.05.05-.06.06a.65.65 0 0 0-.07.07.21.21 0 0 0-.05.06.1.1 0 0 1-.03.04.35.35 0 0 1-.04.05.13.13 0 0 1-.05.03c-.02.01-.03.05-.05.07a.5.5 0 0 1-.05.05.6.6 0 0 1-.05.04.45.45 0 0 1-.05.05.82.82 0 0 1-.04.05l-.05.05a.6.6 0 0 1-.07.09.38.38 0 0 0-.05.06c0 .02-.02.03-.03.05a.57.57 0 0 1-.05.05.78.78 0 0 1-.04.05 2.2 2.2 0 0 1-.1.14l-.05.05c-.03.02-.02.07-.05.1a.66.66 0 0 1-.05.05.58.58 0 0 1-.12.13l-.1.11-.07.05a.14.14 0 0 1-.05.03l-.1.07h.01a.12.12 0 0 1-.09.02.24.24 0 0 1-.15.05c-.05 0-.08.03-.12.05h-.2a.21.21 0 0 0-.16-.05.23.23 0 0 1-.16-.05c-.03 0-.07 0-.1-.03h.01c-.04-.04-.11 0-.15-.04l-.05-.05c-.02-.03-.07-.02-.1-.05h.01l-.07-.04-.08-.06a.62.62 0 0 1-.05-.05.52.52 0 0 1-.07-.05l-.11-.12a.2.2 0 0 1 0-.22h-.01c.03-.02.02-.07.05-.1l.07-.1.03-.04.05-.05.04-.07a.92.92 0 0 1 .06-.06l.04-.07a.5.5 0 0 1 .05-.05.5.5 0 0 1 .05-.04.5.5 0 0 1 .05-.05.5.5 0 0 1 .05-.05.5.5 0 0 1 .04-.05.5.5 0 0 1 .05-.05.49.49 0 0 1 .05-.05.46.46 0 0 1 .05-.05.42.42 0 0 1 .05-.05.34.34 0 0 1 .05-.05.1.1 0 0 1 .04-.02.37.37 0 0 0 .08-.07.57.57 0 0 1 .07-.05l.05-.05a.48.48 0 0 1 .05-.05.55.55 0 0 1 .05-.05.43.43 0 0 1 .05-.05 2.13 2.13 0 0 1 .15-.1h-.01l.05-.04a.55.55 0 0 1 .05-.05.42.42 0 0 1 .05-.05 2.06 2.06 0 0 1 .15-.1h-.01l.05-.05a.6.6 0 0 1 .05-.05.12.12 0 0 1 .04-.02.6.6 0 0 0 .08-.08l.07-.04a.6.6 0 0 1 .05-.05.11.11 0 0 1 .04-.03.6.6 0 0 0 .09-.07l.07-.05a.63.63 0 0 1 .04-.05.15.15 0 0 1 .08-.05l.06-.02a.2.2 0 0 1 .06-.08.54.54 0 0 1 .05-.04 1.94 1.94 0 0 1 .15-.1h-.01a.7.7 0 0 1 .05-.05.5.5 0 0 1 .05-.05 1.83 1.83 0 0 1 .15-.1h-.01a.65.65 0 0 1 .05-.05l.15-.1a.64.64 0 0 1 .05-.04.47.47 0 0 1 .05-.05l.08-.06.06-.04a.71.71 0 0 1 .05-.05l.15-.1a.63.63 0 0 1 .05-.04h-.01a.44.44 0 0 1 .05-.05l.08-.06.07-.04a.71.71 0 0 1 .05-.05.09.09 0 0 1 .07-.02Z" fill="#F0F3FA"/><path d="M24.94 24.75a.46.46 0 0 1-.2.03c-.07 0-.15-.02-.22.03a.7.7 0 0 1-.18.02.22.22 0 0 0-.17.04c-.1.02-.2-.03-.28.03-.1.06-.2-.02-.3.05h.01c-.06.04-.12.02-.18.02h-.11c-.12.07-.25.03-.37.08a.14.14 0 0 1-.1.02c-.04 0-.08-.01-.12.03-.05.03-.1.01-.16.02h-.62a1 1 0 0 1-.31-.02.51.51 0 0 0-.23-.03c-.08 0-.16.02-.23-.02-.07-.06-.16-.02-.24-.03h-.1l-.25-.05h-.3a.8.8 0 0 1-.3-.14c-.06-.03-.1-.1-.17-.11l-.15-.11a.3.3 0 0 0-.05-.05.14.14 0 0 0-.07-.05c-1-.83-1.2-1.95-1.06-3.16.2-1.96.99-3.68 2.22-5.2a7.49 7.49 0 0 1 2.68-1.96.85.85 0 0 1 .5-.1c.08.02.15.05.09.16-.08.18-.2.34-.36.45-.49.34-.95.72-1.36 1.16-.3.33-.6.66-.69 1.12-.01.06-.1.16.06.17a.21.21 0 0 1 .09-.03c.74-.6 1.44-1.29 2.23-1.83a12.23 12.23 0 0 1 5.56-2.13c1.58-.18 3.1.14 4.61.56 2.4.67 4.3 2.08 5.84 4.03l.05.08.05.05c0 .03.02.06.05.08l.05.05.05.07c0 .03.02.06.04.07l.05.05a.2.2 0 0 1 .03.05l.07.1.06.05.03.07.05.08.03.05.07.1v-.01l.05.05.05.08.05.07a.07.07 0 0 1 .02.05.07.07 0 0 1-.03.05c-.45-.46-.87-.94-1.36-1.37-.13-.1-.25-.22-.38-.34a.46.46 0 0 0-.05-.06.31.31 0 0 0-.05-.04.14.14 0 0 0-.07-.05l-.05-.05a.24.24 0 0 1-.08-.05c0-.02-.03-.03-.04-.05a.32.32 0 0 0-.05-.05.14.14 0 0 0-.07-.05l-.05-.04a.24.24 0 0 1-.08-.06.37.37 0 0 0-.05-.04.14.14 0 0 0-.07-.05l-.06-.03a.26.26 0 0 0-.06-.07l-.07-.05a.53.53 0 0 0-.12-.1l-.08-.05a.5.5 0 0 0-.12-.1.8.8 0 0 0-.06-.04.88.88 0 0 0-.08-.05l-.07-.05a.28.28 0 0 0-.13-.08.37.37 0 0 0-.14-.1.36.36 0 0 0-.15-.1.45.45 0 0 0-.15-.1l-.24-.15a3.36 3.36 0 0 0-.37-.23l-.65-.35c-.62-.27-1.26-.5-1.91-.7a9.46 9.46 0 0 0-2.35-.32h-.27c-.04 0-.09.02-.11 0 .02.02.07 0 .11 0h.28a7.77 7.77 0 0 1 2.39.4l.13.04a2.92 2.92 0 0 0 .3.1 2.12 2.12 0 0 0 .3.1c.25.12.55.14.75.36 1.48.67 2.8 1.63 3.91 2.82.26.27.5.56.74.84l.06.08.1.1c0 .03.02.06.04.08.02.01.04.04.05.07l.05.05c0 .03.02.05.05.07l.05.07.04.05.05.08a.7.7 0 0 0 .06.08.47.47 0 0 0 .09.11c.03.03.02.07.05.1l.05.05.05.08.04.07.07.1a.08.08 0 0 1-.02.1c-.28-.23-.48-.53-.73-.78l-1.25-1.23a.35.35 0 0 0-.07-.06l-.03-.03a.21.21 0 0 0-.06-.06.15.15 0 0 0-.06-.05l-.11-.1a.49.49 0 0 1-.07-.05.72.72 0 0 0-.05-.04.3.3 0 0 0-.05-.05.28.28 0 0 0-.05-.05.14.14 0 0 0-.07-.05l-.04-.05a.25.25 0 0 1-.08-.05.32.32 0 0 0-.05-.05.28.28 0 0 0-.05-.05l-.09-.07a.18.18 0 0 1-.05-.02.39.39 0 0 0-.05-.05l-.07-.05a.54.54 0 0 0-.12-.1 1.15 1.15 0 0 0-.2-.15l-.07-.05a.5.5 0 0 0-.12-.1v.01l-.15-.1-.14-.1c-.1-.05-.21-.12-.3-.2a3.63 3.63 0 0 0-.36-.21l-.9-.42h-.02l.12.06.04.03.03.02.1.07c.03.02.06.06.08.1a23.6 23.6 0 0 1 4.3 3.94l.16.19c.03.07.02.1-.07.1l-.8-.74a.34.34 0 0 0-.09-.07v-.02a.16.16 0 0 0-.08-.06l-.22-.19a.4.4 0 0 0-.05-.06.34.34 0 0 0-.05-.05.14.14 0 0 0-.07-.05l-.05-.04a.27.27 0 0 1-.08-.05c0-.02-.03-.04-.04-.05a.31.31 0 0 0-.05-.05.14.14 0 0 0-.07-.05l-.05-.05a.24.24 0 0 1-.08-.05.38.38 0 0 0-.05-.04.15.15 0 0 0-.07-.06l-.04-.04a.23.23 0 0 1-.08-.05.58.58 0 0 0-.11-.1.99.99 0 0 0-.08-.05.5.5 0 0 0-.05-.05l-.07-.05a.52.52 0 0 0-.13-.1c-.01-.01-.05-.02-.07-.05a.51.51 0 0 0-.12-.09l-.07-.05-.08-.05c-.01-.02-.04-.03-.07-.05a.28.28 0 0 0-.12-.08.37.37 0 0 0-.15-.1.47.47 0 0 0-.15-.1.8.8 0 0 0-.24-.15 2.79 2.79 0 0 0-.7-.37l.02.05v.02c.23.3.54.5.79.77-.1.04-.17 0-.25-.04l-1.32-.61c-.3-.14-.6-.22-.93-.26h-.02c-.05.02 0 .03 0 .05.04.04.07.09.09.14.26.24.56.45.88.61l-.08.02-.04.02-.1-.01c-.31-.07-.61-.17-.9-.3a1.73 1.73 0 0 0-1.6.13c-.32.18-.67.3-1 .46a4.01 4.01 0 0 1-.74.01c-.11 0-.22 0-.33.03a.74.74 0 0 1-.18.02.64.64 0 0 0-.26.03l-.16.01h-.1l-.15.03c-.08.02-.15.02-.22.05a.46.46 0 0 1-.07.01.94.94 0 0 0-.18.04.69.69 0 0 1-.16.02.74.74 0 0 0-.21.03 1.3 1.3 0 0 0-.21.05l-.21.05-.2.05a1.42 1.42 0 0 0-.21.05 1.06 1.06 0 0 0-.2.05l-.12.02-.24.07-.1.03a.47.47 0 0 1-.06.02 1.06 1.06 0 0 0-.15.05.65.65 0 0 0-.2.05.33.33 0 0 0-.1.05.15.15 0 0 1-.07.03.25.25 0 0 0-.1.03.36.36 0 0 1-.17.05.5.5 0 0 0-.14.02 1.36 1.36 0 0 0-.16.07l-.11.04-.11.04c-.03 0-.06.02-.08.03a.61.61 0 0 1-.05.02l-.08.04a.35.35 0 0 1-.05.02l-.07.02-.05.02-.07.04a.33.33 0 0 1-.05.02l-.07.02-.05.02-.07.03a.3.3 0 0 1-.05.02.99.99 0 0 0-.14.05l-.1.04h-.03a.38.38 0 0 1-.06.02.73.73 0 0 0-.1.03.42.42 0 0 1-.06.01 1.04 1.04 0 0 0-.2.05l-.2.04a.42.42 0 0 1-.08.02c-.05 0-.1 0-.14.02a.72.72 0 0 1-.18.03h-.1c-.04 0-.1.02-.14.04a1.07 1.07 0 0 1-.2.02.64.64 0 0 0-.2.03 1.91 1.91 0 0 1-.28.02.7.7 0 0 0-.25.03.81.81 0 0 1-.18.02c-.1 0-.19 0-.28.03a2.5 2.5 0 0 1-.33.02c-.07 0-.14 0-.2.02a.48.48 0 0 1-.07.02h-.2l-.13.02a.82.82 0 0 1-.18.02l-.14.02a.45.45 0 0 1-.05.02 1.04 1.04 0 0 0-.19.05l-.1.03-.07.03a.45.45 0 0 1-.05.02.65.65 0 0 0-.06.03l-.03.03-.04.03-.01.02-.04.03-.01.02-.03.04-.02.02a.44.44 0 0 0-.03.1.34.34 0 0 0 0 .18l.05.14.03.07.03.05.03.07.02.04a.8.8 0 0 0 .07.1l.02.03.02.04a.5.5 0 0 0 .04.06l.03.04c.02 0 .03.02.04.03l.01.02.04.03.02.02.03.04.01.01c.03.03.04-.02.06 0 .04 0 .06.03.08.06l.04.04.01.02a.3.3 0 0 0 .07.04l.07.04a.64.64 0 0 0 .13.11l.02.02.06.04.05.02.04.02c.02 0 .04.02.05.03l.05.02.05.02.04.03.05.02.07.03.05.02.08.01c.04 0 .09.02.13.05l.06.05.04.03a.5.5 0 0 0 .06.03l.04.03.07.03.05.02.07.02a.2.2 0 0 1 .12.13l.02.05.01.02.03.04.02.02.03.04.02.01.03.04.02.02a.5.5 0 0 1 .03.03l.02.02.04.03.02.01.07.03.06.05c.02.01.03.03.03.05l.01.02c.02.04.03-.01.04 0a.08.08 0 0 1 .07.03l.03.04.01.02a.3.3 0 0 0 .06.04.2.2 0 0 1 .04.02l.06.05.05.02.04.02.05.03.04.02a1.41 1.41 0 0 0 .12.06l.07.03a2.26 2.26 0 0 0 .25.09.59.59 0 0 0 .35.09h.1c.06.02.12.03.19.03h.35l.14-.03.18-.04.14-.04.08-.03.05-.02.06-.03a.3.3 0 0 1 .05-.03l.06-.03.04-.02.06-.03.02-.01.05-.03a.47.47 0 0 0 .05-.04l.04-.03a.44.44 0 0 1 .08-.07.64.64 0 0 0 .09-.06l.03-.04.02-.01.04-.04.02-.02a.9.9 0 0 1 .03-.03l.02-.02.04-.03.01-.02a.83.83 0 0 1 .04-.04l.02-.01c0-.02.02-.03.03-.04l.02-.02.04-.04.01-.02a1.46 1.46 0 0 0 .08-.11.49.49 0 0 1 .04-.05l.02-.02.03-.04.02-.02a.75.75 0 0 0 .05-.06l.01-.03.02-.02a.43.43 0 0 1 .03-.04l.02-.02a.64.64 0 0 0 .04-.06l.02-.04a.47.47 0 0 1 .03-.04l.02-.02.03-.03a.43.43 0 0 0 .04-.06l.02-.05.03-.07a.2.2 0 0 1 .06-.08.74.74 0 0 1 .04-.04l.02-.02a.4.4 0 0 0 .06-.08l.01-.02.02-.03a.42.42 0 0 1 .03-.04l.02-.02a.65.65 0 0 0 .06-.08.4.4 0 0 1 .07-.08l.01-.02a.71.71 0 0 1 .04-.03l.02-.02a.54.54 0 0 1 .03-.03l.02-.02a.47.47 0 0 1 .03-.03l.02-.02a.52.52 0 0 1 .03-.03l.02-.02a.53.53 0 0 1 .03-.03l.02-.02a.27.27 0 0 1 .03-.03.2.2 0 0 1 .04-.03.75.75 0 0 0 .1-.07 1.06 1.06 0 0 0 .15-.1 2.14 2.14 0 0 0 .18-.07l.13-.05.14-.04.06-.02h.08c.05 0 .1-.01.14-.03l.05-.01.11-.01c.05 0 .1-.01.14-.03l.05-.01.2-.04.06-.02h.12l.12-.03.06-.02c.07 0 .14-.01.2-.03a.4.4 0 0 1 .07-.01.18.18 0 0 1 .16.04c.02.06 0 .13-.03.19-.28.62-.55 1.25-.96 1.8-.33.43-.77.74-1.18 1.08-.44.37-.9.7-1.4 1-.04.02-.1 0-.13.04-.05.04-.11.01-.17.02-.07.01-.15-.02-.22.03h.01a.3.3 0 0 1-.14.02h-.1a.21.21 0 0 0-.17.04h-.17a.22.22 0 0 0-.17.05c-.08.02-.17-.01-.24.03Z" fill="#EB2028"/><path d="m32.77 28.94-.05-.03a.52.52 0 0 0-.1-.1c-.1-.13-.2-.28-.24-.45-.22-.63-.41-1.28-.57-1.93-.01-.1-.05-.18-.1-.25-.19-.09-.39.14-.58-.01l2.25-.57a8.81 8.81 0 0 0 3.18-1.6.7.7 0 0 0 .24-.65c-.02-.08-.1-.1-.15-.15 0-.05-.03-.03-.05-.02l-.23-.09c-.02-.04-.04-.01-.07 0a.07.07 0 0 1-.08-.05c-.01-.04-.04-.01-.06 0l-.04-.04a.04.04 0 0 0-.06-.02l-.09-.03c-.04-.05-.1-.02-.15-.05-.02-.04-.06-.03-.1-.02l-.19-.07c-.02-.04-.06-.04-.1-.02-.03 0-.07 0-.09-.03a.07.07 0 0 0-.1-.02l-.1-.04a.09.09 0 0 0-.1-.01.08.08 0 0 1-.09-.03c-.06-.06-.13-.03-.2-.03-.03 0-.06.01-.09-.02a.42.42 0 0 0-.34 0h.01a.18.18 0 0 0-.06.04l-.04.04a.05.05 0 0 0-.06.02l-.04.03c-.03-.02-.04 0-.05.03l-.2.11a.04.04 0 0 0-.04.02c-.03.02-.09.01-.1.07l-.1.05c-.05 0-.08.04-.13.04a.17.17 0 0 0-.05.04.6.6 0 0 0-.06.05l-.04.03a.04.04 0 0 0-.06.01h.01c-.03.02-.08.02-.1.06-.03.01-.08 0-.1.05-.03.01-.07 0-.1.04h.01c-.03.02-.08.01-.1.05-.03.02-.08.01-.1.06l-.04.02c-.03-.02-.05 0-.06.02l-.04.03c-.02 0-.05-.03-.06.02-.03.05-.1.04-.14.07-.04 0-.07-.01-.1.02-.04.04-.11 0-.14.06-.04.03-.12-.02-.15.05l-.05.02c-.05-.01-.1-.03-.14.02a.42.42 0 0 1-.29.05c-.12-.16-.07-.33-.04-.5a7.36 7.36 0 0 1 1.74-3.53.22.22 0 0 1-.2-.02c-.01-.13.1-.13.18-.16.15-.06.32-.1.48-.17.3-.1.6-.24.77-.56a.13.13 0 0 0 .13.03c.95-.37 1.84-.15 2.7.26a9.72 9.72 0 0 1 2.96 2.38l.29.36a.04.04 0 0 0 .01.05l.05.05a.3.3 0 0 0 .05.04c.02.03.02.08.05.1a.3.3 0 0 0 .05.05c.02.05.06.1.1.15l.04.05.06.08c0 .02.02.04.04.06l.05.09.05.06.06.1c.01.07.07.1.1.16l.2.38c.12.2.2.42.3.62.32.8.44 1.64.51 2.5.03.27.04.57-.22.78-.16-.03-.17-.18-.22-.3-.22-.46-.26-1-.44-1.48-.14-.4-.33-.8-.56-1.18a1.1 1.1 0 0 0-.27-.3.25.25 0 0 0-.05-.06.39.39 0 0 0-.16-.1.14.14 0 0 0-.13 0c-.04.1.02.19.04.28.27.86.54 1.71.77 2.58.13.52.2 1.06.22 1.6.03.43.07.87.06 1.3-.01.96-.14 1.9-.37 2.83a.53.53 0 0 1-.12.26.06.06 0 0 1-.07 0 .17.17 0 0 0-.05-.05c-.05-.01-.06-.06-.08-.1a.04.04 0 0 0-.02-.04c-.02-.03-.01-.09-.07-.1l-.05-.1c0-.02.02-.05-.02-.06-.05-.04-.06-.12-.08-.18.04-.08-.03-.14-.04-.21a3.1 3.1 0 0 1 .02-.73.16.16 0 0 0 .02-.14l.03-.05a.05.05 0 0 0 .02-.05l.03-.04c.01-.02.03-.03.01-.06l.03-.04a.16.16 0 0 0 .06-.06c.05-.04.02-.1.02-.14l-.06-.14v-.02c.01-.05-.04-.02-.04-.04a.18.18 0 0 0-.08-.03h.01c-.02-.05-.07-.04-.1-.06-.02-.03-.05-.03-.1-.02-.04-.03-.1-.01-.13-.07a.08.08 0 0 0-.1-.03l-.05-.03c-.03-.03-.07-.03-.1-.04-.03-.06-.1-.01-.15-.05a.04.04 0 0 0-.05-.02l-.04-.03c-.01-.02-.03-.04-.05-.02l-.05-.03a.05.05 0 0 0-.05-.02l-.04-.03a.05.05 0 0 0-.06-.02l-.09-.06c-.01-.02-.02-.05-.05-.03l-.05-.03c0-.01 0-.02-.02-.02h-.03l-.1-.07c0-.02-.01-.05-.05-.03l-.04-.03a.14.14 0 0 0-.06-.05c0-.04-.06-.03-.1-.05h.01a.04.04 0 0 0-.05-.02l-.04-.03a.17.17 0 0 0-.06-.05v.01c-.01-.05-.06-.04-.1-.06h.01a.04.04 0 0 0-.05-.02l-.1-.05c0-.06-.06-.05-.1-.07v-.01l-.01-.01h-.03l-.05-.03a.05.05 0 0 0-.05-.02l-.04-.03a.05.05 0 0 0-.06-.02l-.04-.03a.05.05 0 0 0-.05-.02l-.05-.03c-.03-.04-.08-.03-.11-.05a.13.13 0 0 1-.13-.05c0-.04-.03-.02-.05-.01l-.1-.04a.08.08 0 0 0-.1-.01l-.24.04h-.02l-.02.03v-.01a.04.04 0 0 0-.02.02v.03l-.02.05a.62.62 0 0 0-.01.44.24.24 0 0 1 .04.19.22.22 0 0 0 .03.22v.14l.01.33c.01.02 0 .04-.02.04a.15.15 0 0 0-.06.06.16.16 0 0 0-.05.05c-.13.05-.26 0-.4.03l-.08-.03c-.03-.05-.07-.03-.1-.02l-.05-.02a.07.07 0 0 0-.05-.04.07.07 0 0 0-.06.01l-.04-.02c-.02-.04-.06-.04-.1-.03l-.04-.03a.09.09 0 0 0-.1-.02l-.05-.03c-.04-.05-.1-.01-.15-.05a.04.04 0 0 0-.05-.01h-.05a.08.08 0 0 1-.04-.04c0-.04-.03-.01-.05 0l-.1-.05c0-.04-.03-.01-.05 0l-.09-.05c-.01-.04-.03-.01-.06 0l-.04-.03c-.02-.04-.06-.05-.1-.03l-.05-.02c-.03-.07-.1-.02-.15-.06-.03-.06-.1-.01-.15-.05a.13.13 0 0 1-.13-.05.04.04 0 0 0-.05-.01.1.1 0 0 1-.1-.04.05.05 0 0 0-.05-.01l-.05-.02c-.03-.07-.1-.03-.15-.07a.98.98 0 0 1-.4-.16h-.03a.35.35 0 0 1-.19-.08.05.05 0 0 0-.05-.02l-.05-.02c-.03-.05-.08-.04-.12-.06a.36.36 0 0 1-.22-.1l-.02-.01h-.03l-.14-.08c-.03-.04-.07-.03-.1-.05l-.02-.02h-.03l-.04-.03c-.02-.01-.03-.03-.06-.02l-.04-.02-.02-.03h-.03Z" fill="#2D3690"/><path d="M34.54 18.9a.4.4 0 0 1-.24.38c-.3.17-.6.3-.93.39a.5.5 0 0 0-.25.1.32.32 0 0 1-.22.12 30.1 30.1 0 0 1-2.85.54.44.44 0 0 0-.25.02h.01c-.08.06-.19 0-.27.05a.24.24 0 0 1-.1.02c-.07 0-.13 0-.2.03h.01c-.08.05-.19 0-.27.05-.03.03-.08.02-.13.02s-.11-.01-.16.02c-.04.04-.08.03-.13.03s-.1 0-.14.02c-.05.05-.13 0-.19.05a.14.14 0 0 1-.1.03l-.17.07a.16.16 0 0 1-.05.03.91.91 0 0 1-.1.07.12.12 0 0 1-.04.03 1.4 1.4 0 0 1-.1.07.32.32 0 0 1-.05.05.31.31 0 0 1-.05.04.29.29 0 0 1-.05.05.29.29 0 0 1-.05.05.3.3 0 0 1-.04.05.33.33 0 0 1-.05.05.47.47 0 0 1-.05.05l-.1.15a.35.35 0 0 1-.05.05l-.03.06c-.03.02-.04.06-.06.08a.22.22 0 0 1-.07.06l-.03.06c0 .03-.02.06-.05.08l-.07.1-.03.04a.41.41 0 0 1-.04.05c-.03.03-.02.08-.05.1a.28.28 0 0 1-.05.05l-.04.06-.06.09a.3.3 0 0 1-.05.05.34.34 0 0 1-.04.04l-.1.15a.26.26 0 0 1-.05.05.27.27 0 0 1-.05.05.3.3 0 0 1-.05.05.29.29 0 0 1-.05.05.29.29 0 0 1-.05.04.3.3 0 0 1-.04.05c-.03.03-.07.03-.09.07a.65.65 0 0 1-.1.08.35.35 0 0 1-.06.05l-.08.06-.06.04c-.02.03-.07.02-.1.05-.02.02-.07.02-.1.05-.02.02-.06.02-.1.04h.01c-.02.03-.06.03-.09.03-.06.05-.15.03-.21.09H25c-.05 0-.08.05-.13.05h-.53a.24.24 0 0 0-.17-.04c-.05-.01-.1 0-.14-.03-.04-.04-.1 0-.14-.05-.04-.04-.1 0-.15-.05a1.7 1.7 0 0 1-.16-.07.1.1 0 0 1-.08-.03c-.03-.02-.07-.01-.1-.05-.02-.02-.07-.01-.1-.05h.01a.46.46 0 0 1-.1-.06.16.16 0 0 1-.05-.03c-.02-.03-.07-.02-.1-.05l-.06-.06-.02-.01a.08.08 0 0 1-.06-.03.3.3 0 0 1-.06-.06l-.06-.03a.14.14 0 0 1-.08-.06.28.28 0 0 1-.05-.05.3.3 0 0 1-.04-.04.33.33 0 0 1-.05-.05.33.33 0 0 1-.05-.05.3.3 0 0 1-.05-.05.14.14 0 0 1-.05-.07.14.14 0 0 0-.12-.12.16.16 0 0 1-.07-.05c-.03-.03-.07-.02-.1-.05-.02-.03-.07-.02-.1-.05-.02-.03-.07-.02-.1-.05a.12.12 0 0 0-.11-.05c-.04-.02-.1-.02-.13-.05-.02-.02-.07-.02-.1-.05h.01c-.03-.02-.07-.02-.1-.05l-.1-.04c-.02-.03-.07-.02-.1-.05-.02-.03-.07-.02-.1-.05h.01a.3.3 0 0 0-.07-.05.14.14 0 0 1-.08-.06.05.05 0 0 0-.03-.03.05.05 0 0 0-.04 0 .14.14 0 0 1-.07-.06.36.36 0 0 1-.06-.06l-.08-.06a.08.08 0 0 1-.06-.03.22.22 0 0 1-.04-.05.22.22 0 0 1-.05-.04.22.22 0 0 1-.05-.05c-.02-.02-.03-.06-.06-.08l-.04-.07a.12.12 0 0 1-.03-.05.5.5 0 0 1-.06-.1c-.03-.02-.03-.07-.05-.1-.04-.03-.02-.1-.07-.14a.27.27 0 0 0-.05-.15v-.14c.05-.03.03-.1.07-.15a.3.3 0 0 1 .05-.05.28.28 0 0 1 .05-.04.3.3 0 0 1 .05-.05c.02-.03.06-.02.1-.05h-.01a.1.1 0 0 1 .08-.03c.05-.03.11-.05.17-.06.05-.06.13 0 .19-.06.04-.04.09-.02.13-.02.07 0 .13 0 .18-.02v-.01a.22.22 0 0 1 .12-.02c.1 0 .18 0 .27-.03h.01c.07-.04.14-.01.2-.02.11 0 .22 0 .33-.02.09-.03.18-.04.28-.03.1.01.2 0 .3-.04h.26c.08-.02.17.02.24-.04a16.9 16.9 0 0 1 .24-.01c.06 0 .13-.01.19-.04a.2.2 0 0 1 .06-.02h.1c.05 0 .1.02.15-.02.03-.04.08-.02.13-.03a.2.2 0 0 0 .16-.04c.06-.02.13.02.2-.03h-.01c.05-.05.14 0 .2-.05.02-.03.07-.02.1-.02.04 0 .07 0 .09-.03.04-.04.1 0 .15-.04.03-.05.1-.01.14-.05.02-.03.07-.03.1-.05.03-.05.1 0 .14-.05.03-.03.07-.02.1-.05.04-.05.1 0 .15-.05.02-.03.06-.02.1-.05h-.01a.1.1 0 0 1 .08-.02c.06-.05.14-.04.2-.08.03-.03.08-.01.11-.04.04-.04.1-.02.14-.07.05 0 .09-.02.13-.03a.13.13 0 0 0 .14-.05.24.24 0 0 1 .13-.03h.03c.04-.07.12-.03.16-.07a.1.1 0 0 1 .08-.02c.04 0 .08 0 .11-.03.04-.04.1 0 .15-.04a.12.12 0 0 1 .09-.03c.09-.05.2-.04.29-.09.04-.02.1 0 .15-.03.05-.06.14 0 .2-.05.03-.04.08-.02.13-.03l.3-.08c.06-.03.14.01.2-.04.03-.04.08-.02.13-.02.08-.02.15-.07.24-.05.05 0 .1 0 .14-.02.08-.05.17-.01.24-.06.09-.05.2.01.29-.04a12.82 12.82 0 0 1 .21-.03c.07 0 .14.02.2-.02.06-.05.13-.02.19-.03.1.01.2 0 .3-.04H30.95l.59-.01a.55.55 0 0 1 .24-.02c.1.01.19.04.27.09.78.06 1.55.28 2.25.64l.24.2Z" fill="#F0F3FA"/><path d="M38.4 34.18a.23.23 0 0 1 .19-.03.15.15 0 0 0 .15-.01.23.23 0 0 1 .19-.04c.05 0 .1.04.15-.02a.09.09 0 0 1 .1-.02c.04.01.1 0 .14.02a.1.1 0 0 1 .03.08c0 .03 0 .05-.02.07l-.17.35a12.12 12.12 0 0 1-8.08 6 .4.4 0 0 1-.2 0l-.63.11c-.05.02-.06 0-.05-.05 1.62-.57 3.2-1.22 4.65-2.16.05-.1.14-.14.22-.2a.4.4 0 0 0 .14-.12.16.16 0 0 1 .12-.08c.02 0 .03.02.05.03a.06.06 0 0 1 0-.06c.31-.23.59-.5.88-.75l-.03.01c-.46.34-.94.64-1.44.91a25.83 25.83 0 0 1-3.45 1.6.97.97 0 0 0-.17.03c-.1.03-.2.05-.3.05l-.71.2c-.06.03-.07 0-.05-.04 1.4-.58 2.73-1.3 4-2.12.07-.06.17-.09.21-.19a.3.3 0 0 0 .04-.04l.1-.11c.16-.1.28-.26.45-.35.02 0 .02 0 .01-.01l-.03.02a4.37 4.37 0 0 0-.54.26l-.04-.01h-.03c-.16-.01-.26.1-.4.15-.04.02-.05 0-.04-.05l1.3-1.19c.16-.13.28-.3.36-.5 0-.09.07-.14.1-.24-.17.06-.33.14-.48.24-.02 0-.04.02-.05.03l-.03.01A.32.32 0 0 1 35 36h-.03c-.15.02-.23.14-.34.2a.04.04 0 0 1-.05.01h-.02c.18-.31.4-.58.66-.81.3-.3.5-.7.53-1.13 0-.08 0-.17.09-.2.1 0 .2.03.29.07.06.06.15.01.21.05.1.01.19-.01.27.05.07.06.15.02.22.03.04 0 .09 0 .13-.02h.47c.03.02.07.02.1.02h.13c.1.01.21 0 .31-.04a.9.9 0 0 1 .17 0c.09-.02.18.02.27-.04Z" fill="#2D3690"/><path d="M16.45 19.72c.16-.23.26-.49.44-.69.02-.02.03-.02.04 0l-.37.88a.2.2 0 0 1-.02.1l-.05.1a1.55 1.55 0 0 0-.05.15l-.04.07-.02.04a1.57 1.57 0 0 0-.09.2c0 .04-.02.07-.03.11l-.02.06-.04.14a25 25 0 0 0-.89 2.5c-.12.44-.19.9-.19 1.35 0 .58-.02 1.16 0 1.73.1 1.85.3 3.67.9 5.43.17.54.4 1.05.7 1.52.5.9 1.27 1.56 2 2.23.88.8 1.84 1.51 2.85 2.13.05.03.13.04.12.13-.44.22-.88.27-1.32 0l-.24-.15-.12-.07a.57.57 0 0 0-.15-.12 12.43 12.43 0 0 1-4.91-6.46 13.56 13.56 0 0 1-.77-4.93c.12-1.56.47-3.08 1.04-4.52.25-.64.51-1.27.82-1.88.04 0 .07 0 .04.05l-.36 1a1 1 0 0 1-.06.32l-.04.1-.05.1a1.65 1.65 0 0 0-.1.29 1.05 1.05 0 0 0-.1.25l-.05.17-.03.08-.02.05a.7.7 0 0 0-.03.1l-.02.05a.86.86 0 0 0-.03.1l-.02.05a.88.88 0 0 0-.03.1l-.02.04a.43.43 0 0 0-.03.1c0 .02 0 .04-.02.05a.48.48 0 0 0-.03.1l-.02.06a.47.47 0 0 0-.02.11l-.02.06c-.02.04-.02.09-.05.13a.55.55 0 0 0-.03.12.3.3 0 0 0-.01.05c0 .07-.03.13-.05.18a.3.3 0 0 1-.02.07.38.38 0 0 0-.01.15v-.13a.65.65 0 0 0 .03-.09.63.63 0 0 0 .05-.19l.05-.16.09-.3c.3-.9.65-1.78 1.07-2.64l.07-.1c0-.02.02-.03.03-.05a1.17 1.17 0 0 0 .06-.12l.06-.13.05-.1a.2.2 0 0 1 .08-.07Z" fill="#F7EE22"/><path d="m30.25 42.16.08-.01c.08-.1.21-.1.31-.15l1.81-.4c.43-.1.86-.22 1.28-.35l.3-.1a.73.73 0 0 1 .1-.04h.02-.02a5.97 5.97 0 0 1-.43.14c-1.06.33-2.15.56-3.25.7a.7.7 0 0 0-.36.01c-.16.04-.32-.02-.48 0a1981.98 1981.98 0 0 0-.79-.03.02.02 0 0 1 .02-.01c1.61-.24 3.22-.48 4.78-.98.73-.24 1.35-.66 1.97-1.08a21.56 21.56 0 0 0 3.67-3.02 8.42 8.42 0 0 0 2.13-3.28 19.92 19.92 0 0 0 .7-5.57v-.35l.58.57c.05.07.07.16.12.23.05.35.07.7.05 1.06-.02.6-.07 1.19-.16 1.77a11.07 11.07 0 0 1-2 5.08c-.6.83-1.27 1.62-1.99 2.36a11.3 11.3 0 0 1-3.39 2.28c-.46.2-.93.38-1.4.53l-.16.02-.06.02a.35.35 0 0 0-.1.05.18.18 0 0 1-.08.03.3.3 0 0 0-.08.02.17.17 0 0 1-.08.03c-.03 0-.07 0-.1.02a.18.18 0 0 1-.08.03.44.44 0 0 0-.17.01 1 1 0 0 0-.2.05 1.1 1.1 0 0 0-.2.05 1.07 1.07 0 0 0-.2.05 1.13 1.13 0 0 0-.2.06c-.07 0-.15.02-.22.04l-.24.05-.46.1c-.09.04-.17-.02-.26 0l-.61.06c-.06 0-.13.07-.15-.05Z" fill="#2D3690"/><path d="m40 33.88.04-.02c.04 0 .08.03.1-.02.06-.06.13-.04.2-.07.04 0 .1-.01.12.05-.07.3-.2.59-.37.84-.68 1.19-1.52 2.29-2.48 3.26-.93.91-2.02 1.64-3.21 2.15-.7.3-1.41.5-2.13.74l-.2.01c-.05.03-.12-.02-.18.01l-.62.11c-.05.01-.06 0-.05-.05l.96-.35c.06-.11.18-.11.27-.17l.14-.04a.97.97 0 0 0 .1-.05l.05-.03.1-.07c1.25-.53 2.41-1.23 3.47-2.08.94-.73 1.74-1.63 2.37-2.65.18-.28.31-.59.47-.88l.17-.38a.13.13 0 0 0 .02-.1.06.06 0 0 1 .03-.06c0-.03.02-.03.04-.02.05 0 .11.04.15-.02l.1-.03a.2.2 0 0 0 .2-.04c.05-.01.1.02.14-.04Z" fill="#2D3690"/><path d="M13.2 27.14c.3-3.26 1.13-6.33 3.1-9.01a4.72 4.72 0 0 1 .72-.82l.01.01-.23.44c-.03.04 0 .1-.04.15l-.02.05-.06.07a.69.69 0 0 0-.04.07l-.03.06-.03.09a35.21 35.21 0 0 0-1.67 3.22c-.3.7-.45 1.44-.66 2.17-.25.82-.46 1.66-.69 2.48a1.1 1.1 0 0 0-.06.2 1.2 1.2 0 0 0-.04.15c0 .07-.04.14-.1.2l-.1.52c-.05.01-.07 0-.06-.05Z" fill="#F7EE22"/><path d="m37.72 40.69-.58.3a.24.24 0 0 1-.12.1l-.1.06a14.9 14.9 0 0 1-7.39 1.9c-.5.01-1-.02-1.5-.11a.55.55 0 0 1-.22-.1c-.18 0-.36-.03-.53-.08.74-.04 1.42-.07 2.1-.12 1.1-.08 2.22-.1 3.28-.4 1.61-.48 3.22-.96 4.8-1.54l.2-.06c.06-.02.07 0 .06.05Z" fill="#2D3690"/><path d="M19.23 28.02c.3.24.63.46.97.64.29.17.56.36.83.55a2.3 2.3 0 0 0 2.12.3.8.8 0 0 0 .48-.39c.2-.3.45-.57.76-.77a11.58 11.58 0 0 1 1.9-1.1c.07-.01.14 0 .2.02a.64.64 0 0 1-.18.4c-.58.72-1.3 1.29-2.03 1.83a.13.13 0 0 0-.15-.01c-.68.1-1.35.24-2.01.42a1.32 1.32 0 0 1-1.02-.13c-.45-.24-.86-.54-1.32-.77a1.2 1.2 0 0 1-.44-.44.99.99 0 0 1-.24-.52c0-.03 0-.05.02-.07a.04.04 0 0 1 .03-.02.04.04 0 0 1 .03.02l.05.04Z" fill="#050708"/></svg>