<!-- by TradingView --><svg xmlns="http://www.w3.org/2000/svg" width="56" height="56"><path fill="#0865A6" d="M0 0h56v56H0z"/><path fill-rule="evenodd" d="M11 19a3 3 0 00-3 3v10.23A2.77 2.77 0 0010.77 35H13v.84c0 1.23-.72 2.16-1.58 2.16H10v1h1.42c1.89 0 2.58-1.9 2.58-2.88V22a3 3 0 00-3-3zm2 15h-2.28C9.77 34 9 33.23 9 32.28V22a2 2 0 114 0v12zm23-15a3 3 0 00-3 3v10a3 3 0 006 0V22a3 3 0 00-3-3zm0 1a2 2 0 00-2 2v10a2 2 0 104 0V22a2 2 0 00-2-2zm9-1a3 3 0 00-3 3v13h1V22a2 2 0 114 0v13h1V22a3 3 0 00-3-3zm-25 0a3 3 0 00-3 3v10a3 3 0 006 0v-1h-1v1a2 2 0 11-4 0V22a2 2 0 114 0v6h1v-6a3 3 0 00-3-3zm2 8h-2v1h2v-1zm5 8V21.89c.05-.92.72-2.79 2.94-2.89H31v1h-1.06c-1.2 0-1.9 1.18-1.94 2.9V35h-1z" fill="#fff"/></svg>