<!-- by TradingView --><svg width="56" height="56" xmlns="http://www.w3.org/2000/svg"><path fill="#F0F3FA" d="M0 0h56v56H0z"/><path d="M27.997 12c-2.215 0-3.523 3.443-3.9 5.143 5.46 3.875 6.539 8.576 6.396 10.442C34.63 19.808 30.924 12 27.998 12z" fill="#1396D2"/><path d="M39.3 16.715c-1.564-1.57-4.923-.067-6.392.865 1.112 6.607-1.45 10.692-2.872 11.908 8.422-2.558 11.33-10.698 9.264-12.773z" fill="#2566AF"/><path d="M16.64 39.33c1.564 1.57 4.923.068 6.392-.865-1.113-6.607 1.45-10.692 2.872-11.908-8.422 2.558-11.33 10.698-9.264 12.773z" fill="#A4CD48"/><path d="M28.034 43.996c2.214-.002 3.52-3.445 3.895-5.146-5.463-3.87-6.547-8.57-6.406-10.437-4.129 7.78-.416 15.586 2.51 15.583z" fill="#52B956"/><path d="M16.746 16.7c-1.564 1.569-.054 4.927.882 6.396 6.596-1.131 10.683 1.424 11.902 2.843-2.578-8.424-10.716-11.314-12.784-9.24zm22.596 22.612c1.564-1.57.054-4.928-.881-6.397-6.597 1.131-10.684-1.424-11.903-2.843 2.578 8.424 10.716 11.314 12.784 9.24z" fill="#00AF9F"/><path d="M43.977 28.023c.013-2.217-3.418-3.546-5.114-3.934-3.903 5.443-8.605 6.497-10.468 6.344 7.745 4.185 15.566.52 15.582-2.41z" fill="#1396D2"/><path d="M12.023 27.887c-.013 2.217 3.418 3.546 5.114 3.934 3.903-5.444 8.605-6.498 10.468-6.344-7.745-4.185-15.566-.52-15.582 2.41z" fill="#52B956"/></svg>