<!-- by TradingView --><svg width="56" height="56" viewBox="0 0 56 56" fill="none" xmlns="http://www.w3.org/2000/svg">
<rect width="56" height="56" fill="#1B5EA8"/>
<path fill-rule="evenodd" clip-rule="evenodd" d="M8.5 25.9375V32.3333C8.33636 33.1042 7.54681 34.7167 5.69772 35C5.56136 34.9653 5.77273 34.4583 7 32.7083V31.9331C5.875 32.1414 4.01636 31.9792 4 30.5625V26.2755C4.075 25.8102 4.55227 25.05 5.86136 25H7.375C7.70227 25.0278 8.5 25.2083 8.5 25.9375ZM6.42168 25.8831L7 26.5788V30.9272L6.42168 31.3999L5.5 30.4611V26.6658L6.42168 25.8831Z" fill="#FFB309"/>
<path d="M14.5 31.4534V25.3138C13.9613 24.76 13.2304 25.0831 13 25.3138V30.2875L12.0377 30.8887L11.5 30.2875V25.3138C10.8621 24.7454 10.2244 25.077 10 25.3138V30.5061C10.1063 31.581 11.4884 32 11.7365 32C11.935 32 12.776 31.7571 13.1718 31.6356L13.7742 32L14.5 31.4534Z" fill="#FFB309"/>
<path d="M24.5 31.4534V25.3138C23.9613 24.76 23.2304 25.0831 23 25.3138V30.2875L22.0377 30.8887L21.5 30.2875V25.3138C20.8621 24.7454 20.2244 25.077 20 25.3138V30.5061C20.1063 31.581 21.4884 32 21.7365 32C21.935 32 22.776 31.7571 23.1718 31.6356L23.7742 32L24.5 31.4534Z" fill="#FFB309"/>
<path d="M46.9965 31.4534V25.3138C46.4579 24.76 45.7269 25.0831 45.4965 25.3138V30.2875L44.5343 30.8887L43.9965 30.2875V25.3138C43.3586 24.7454 42.721 25.077 42.4965 25.3138V30.5061C42.6029 31.581 43.985 32 44.233 32C44.4315 32 45.2726 31.7571 45.6683 31.6356L46.2708 32L46.9965 31.4534Z" fill="white"/>
<path d="M16 25.849V31.6528C16.5535 32.2816 17.249 31.9148 17.5 31.6528V26.4939C18.0088 26.4133 19.4148 26.3528 19.3334 25.6475C19.2683 25.0832 18.2521 25.2377 17.567 25.3855C17.5466 25.2444 17.3675 24.9704 16.814 25.0026C16.2605 25.0349 16.0407 25.5803 16 25.849Z" fill="#FFB309"/>
<path d="M26.4999 26.6087V31.6096C27.157 32.3166 27.747 31.9042 27.9992 31.6096V26.6087L29.123 26.4579C29.7108 25.8715 29.3679 25.4519 29.123 25.3154H28.5395C27.6058 24.7636 28.0496 23.5335 28.3882 22.9874C28.8276 22.3695 29.7281 20.9871 29.8146 20.4008C29.901 19.8144 29.3175 19.9984 29.0149 20.1636L27.394 21.9312C26.8537 22.4916 26.6592 23.785 26.5512 24.5394C26.4647 25.143 26.1117 25.4232 25.946 25.4879C25.2718 26.0052 26.0605 26.4507 26.4999 26.6087Z" fill="white"/>
<path fill-rule="evenodd" clip-rule="evenodd" d="M32.3113 25C31.311 25 30.5 25.8132 30.5 26.8164V30.1836C30.5 31.1868 31.311 32 32.3113 32H33.1887C34.189 32 35 31.1868 35 30.1836V26.8164C35 25.8132 34.189 25 33.1887 25H32.3113ZM32.75 26C32.3358 26 32 26.3358 32 26.75V30.25C32 30.6642 32.3358 31 32.75 31C33.1642 31 33.5 30.6642 33.5 30.25V26.75C33.5 26.3358 33.1642 26 32.75 26Z" fill="white"/>
<path d="M38.6714 25C40.1994 25 40.6522 26.0526 40.6875 26.5789C40.6875 26.8011 40.6133 27.2701 40.3162 27.3684C39.9448 27.4912 39.4319 27.1052 39.2727 26.5789C39.1454 26.1579 38.8188 26.0175 38.6714 26C38.1904 26 38.0177 26.3859 38 26.5789V30.1929C38 30.4911 38.1479 31.0421 38.6714 31C39.1949 30.9579 39.2904 30.456 39.2727 30.1929C39.2786 29.7777 39.4602 28.9578 40.1393 28.9999C40.8184 29.042 40.9528 29.6607 40.9351 29.9648C40.9057 30.6373 40.4117 31.9858 38.6714 31.9999C36.9312 32.0139 36.5472 31.0116 36.5 30.5087V26.7543C36.5 26.2105 36.7614 25 38.6714 25Z" fill="white"/>
<path d="M51.7287 26.3084C51.7422 26.6485 51.3971 26.8426 51.2229 26.8971C50.8351 26.8971 50.498 26.7172 50.4642 26.3084C50.4305 25.8996 50.127 25.6707 49.8741 25.6543C49.6212 25.638 49.3009 25.8669 49.3009 26.3084C49.3009 26.7499 49.5033 27.1751 50.6328 27.8128C51.7624 28.4506 51.9816 29.4317 51.9984 29.8242C52.0153 30.2166 51.931 32.0481 50.0259 31.999C48.5018 31.9598 48.0421 30.9906 48.0028 30.511C48.0028 30.2166 48.1208 29.6312 48.5929 29.6443C49.0649 29.6574 49.2616 30.0204 49.3009 30.2003C49.2504 30.6091 49.2942 31.4202 49.8741 31.394C50.5991 31.3613 50.616 30.5764 50.6328 30.2003C50.6497 29.8242 50.4642 29.3827 49.5033 28.8267C48.5423 28.2707 48.0534 27.5839 48.0028 26.7172C47.9522 25.8505 48.5928 24.9839 49.8741 25.0002C51.1554 25.0166 51.7118 25.8833 51.7287 26.3084Z" fill="white"/>
</svg>
