<!-- by TradingView --><svg width="56" height="56" viewBox="0 0 56 56" xmlns="http://www.w3.org/2000/svg"><path fill="#F0F3FA" d="M0 0h56v56H0z"/><path d="M42 27.02c0-1.05.6-2.72 1.66-3.07l-.32-.95c-1.55.52-2.34 2.47-2.34 3.93V32h1v-4.98Z" fill="#2F2E34"/><path fill-rule="evenodd" d="M17 31a3 3 0 1 0 0-6 3 3 0 0 0 0 6Zm0 1a4 4 0 1 0 0-8 4 4 0 0 0 0 8ZM35 31a3 3 0 1 0 0-6 3 3 0 0 0 0 6Zm0 1a4 4 0 1 0 0-8 4 4 0 0 0 0 8ZM48 31a3 3 0 1 0 0-6 3 3 0 0 0 0 6Zm0 1a4 4 0 1 0 0-8 4 4 0 0 0 0 8ZM11 28a3 3 0 1 1-6 0 3 3 0 0 1 6 0Zm0 2.65A3.99 3.99 0 0 1 4 28a4 4 0 1 1 8 .06V32c0 1.9-1.76 3-3.5 3-.75 0-1.93-.22-2.85-1.15l.7-.7c.68.67 1.57.85 2.15.85 1.19 0 2.5-.65 2.5-2v-1.35ZM29 28a3 3 0 1 1-6 0 3 3 0 0 1 6 0Zm0 2.65A3.99 3.99 0 0 1 22 28a4 4 0 1 1 8 .1V32c0 1.9-1.76 3-3.5 3-.75 0-1.93-.22-2.85-1.15l.7-.7c.68.67 1.57.85 2.15.85 1.19 0 2.5-.65 2.5-2v-1.35Z" fill="#2F2E34"/></svg>