<!-- by TradingView --><svg width="56" height="56" xmlns="http://www.w3.org/2000/svg"><path fill="#F0F3FA" d="M0 0h56v56H0z"/><path d="M21 32.002c0-5.744 4.318-9.097 7-14.002 3.008 4.778 7 10.54 7 14.002 0 4.203-4.289 6-7.002 6-5.626 0-6.998-4.553-6.998-6z" fill="#EC1C2D"/><path fill-rule="evenodd" d="M27.998 41.995c7.731 0 13.998-6.267 13.998-13.997C41.996 20.267 35.73 14 27.998 14 20.268 14 14 20.267 14 27.998c0 7.73 6.267 13.997 13.998 13.997zm0 2c8.835 0 15.998-7.162 15.998-15.997C43.996 19.162 36.833 12 27.998 12 19.163 12 12 19.162 12 27.998c0 8.835 7.163 15.997 15.998 15.997z" fill="#0063A8"/></svg>