<!-- by TradingView --><svg width="56" height="56" viewBox="0 0 56 56" xmlns="http://www.w3.org/2000/svg"><path fill="#F0F3FA" d="M0 0h56v56H0z"/><path fill="#00146A" d="M20 16h3v3h-3zM38 26.27c0-3.6 2.25-5.1 3.37-5.27H35v11h-.02c-.18 1.52-1.41 4-5.29 4-1.14 0-2.94-.32-3.69-.48v-2.94a8.2 8.2 0 0 0 3.31.83c1.47 0 2.31-.69 2.52-1.41h-2.69c-1.42 0-4.14-.72-4.14-5.65 0-3.94 2.43-5.32 3.64-5.35H23v11h-3V21h-3v11h-.02c-.18 1.52-1.41 4-5.29 4-1.14 0-2.94-.32-3.69-.48v-2.94a8.2 8.2 0 0 0 3.31.83c1.47 0 2.31-.69 2.52-1.41h-2.69C9.72 32 7 31.28 7 26.35c0-3.94 2.43-5.32 3.64-5.35H7v15h42V21h-1v9.49L49 32h-4v-1.06A5.6 5.6 0 0 1 42.1 32c-1.66 0-4.1-1.23-4.1-5.73Zm5.46-2.89c.68 0 1.2.18 1.54.37v5.12c-.36.23-.9.46-1.54.46-1.2 0-2.4-.83-2.4-2.8 0-1.97 1.09-3.15 2.4-3.15ZM14 23.71c-.4-.17-.9-.3-1.52-.3-1.57 0-2.48 1.47-2.48 3.28 0 1.81 1.07 2.82 2.25 2.82.88 0 1.5-.23 1.75-.38V23.7Zm16.48-.3c.62 0 1.13.13 1.52.3v5.42c-.25.15-.87.38-1.75.38-1.18 0-2.25-1.01-2.25-2.82 0-1.81.91-3.29 2.48-3.29Z"/></svg>