<!-- by TradingView --><svg width="56" height="56" xmlns="http://www.w3.org/2000/svg"><path fill="url(#paint0_linear)" d="M0 0h56v56H0z"/><path d="M35 39V18h1v21h-1zm6 0V18h1v21h-1zm6 0V18h1v21h-1z" fill="#fff"/><path d="M19.025 38c4.832 0 8.86-3.437 9.774-8H17v-1h12.951c-.49 5.604-5.195 10-10.926 10-6.058 0-10.968-4.91-10.968-10.968s4.91-10.969 10.968-10.969c4.244 0 7.925 2.41 9.749 5.937h-1.142a9.964 9.964 0 00-8.607-4.937c-5.505 0-9.968 4.463-9.968 9.969 0 5.505 4.463 9.968 9.968 9.968z" fill="#fff"/><defs><linearGradient id="paint0_linear" x1="10.418" y1="9.712" x2="68.147" y2="76.017" gradientUnits="userSpaceOnUse"><stop stop-color="#1A1E21"/><stop offset="1" stop-color="#06060A"/></linearGradient></defs></svg>