<!-- by TradingView --><svg xmlns="http://www.w3.org/2000/svg" width="56" height="56"><path fill="#F0F3FA" d="M0 0h56v56H0z"/><path fill-rule="evenodd" d="M16 19h23v23H16V19zm5.99 13c1.98-.06 1.84 1.6 1.52 2.43h-1.59l.13-.53c.07-.22.09-.67-.37-.68a.72.72 0 00-.7.55l-.75 3.37c-.07.37-.03.64.48.65.4 0 .6-.35.65-.53l.28-1.03h-.6l.25-1.23h2.16l-.85 4h-1.08l.07-.74c-.39.62-1.22.75-1.6.74-1.39.01-1.48-1.2-1.35-1.8l.7-3.24c.15-.74.66-1.9 2.65-1.96zm4.03 2H24.6l-1.02 5h1.4l1.04-5zm1.45-2h1.42l-1.44 7h-1.41l1.43-7zm-1.06 0H25l-.27 1.26h1.42L26.4 32zm2.76 3.64c.04-.58.55-1.72 2.32-1.64.63 0 1.64.14 1.28 1.6l-.54 2.56c-.03.16-.08.68 0 .84H30.9v-.57c-.2.2-.72.58-1.22.57-.63 0-1.1-.36-1.06-.98.04-.62.34-1.44 1.4-1.84l.34-.1c.48-.12 1.14-.29 1.14-.82.02-.11-.12-.26-.35-.26-.4 0-.6.27-.63.64h-1.34zm2.05.94c-.04.48-.26 1.44-.82 1.43-.7-.02-.5-1.08.82-1.43zm3.43-3.98l-.32 1.4h-.54l-.23 1h.57l-.57 2.72c-.11.5-.17 1.27.92 1.28.2-.01.66-.04.86-.1l.24-.9h-.31c-.14.02-.36-.03-.28-.37.07-.35.4-1.93.53-2.63h.67l.21-1h-.65l.3-1.4h-1.4z" fill="#1B1B4D"/><path d="M44.47 28.76c-2.23 1.77-7.62-.41-12.27-5.03-4.62-4.6-6.81-9.91-5.1-12.16-.17.12-.33.25-.48.4-2.44 2.42-.51 8.26 4.3 13.05 4.8 4.78 10.68 6.7 13.12 4.27.16-.16.3-.34.43-.53z" fill="#9EA2A5"/><path d="M27.1 11.58c2.04-1.62 6.72.06 11.06 3.9l1.28-1.29c-4.55-3.94-9.68-5.36-11.92-3.14-.16.16-.3.34-.42.53zm14.6 4.86l1.92-1.77-.8-.88-4.65 3.73 1.19 1.4 1.07-1.2c3.88 4.31 5.61 8.98 4.03 11.05.17-.12.33-.25.48-.4 2.25-2.23.79-7.39-3.24-11.93z" fill="#9EA2A5"/></svg>