<!-- by TradingView --><svg width="56" height="56" viewBox="0 0 56 56" xmlns="http://www.w3.org/2000/svg"><path fill="#F0F3FA" d="M0 0h56v56H0z"/><path fill-rule="evenodd" d="M10.15 24.58c1.04 0 1.83.43 2.11 1.42h1.67c-.27-1.9-1.9-3-3.8-3C7.38 23 6 25.54 6 28c0 2.54 1.4 5 4.17 5C12.5 33 14 31.19 14 28.94V28h-4v1.5h2.4a2.15 2.15 0 0 1-2.22 1.92C8.33 31.42 8 29.58 8 27.99c0-1.55.32-3.4 2.15-3.4ZM22 33h-6V23h2v8.5h4V33Zm1 0h1.87l.82-2.5h3.62l.82 2.5H32l-3.42-10h-2.17L23 33Zm5.82-4-1.28-3.95h-.08L26.18 29h2.64ZM41 26h-1.66a2.15 2.15 0 0 0-2.16-1.42C35.35 24.58 35 26.43 35 28c0 1.58.33 3.42 2.18 3.42 1.08 0 1.82-.4 2.16-1.42H41c-.26 1.96-1.87 3-3.84 3-2.77 0-4.16-2.5-4.16-5s1.4-5 4.16-5c2.03 0 3.59 1 3.84 3Zm7-3h2v6.44c0 2.24-1.89 3.56-4 3.56-2.12 0-4-1.31-4-3.56V23h2v6.29c0 1.27.76 2.12 2 2.12s2-.85 2-2.12V23Z"/></svg>