<!-- by TradingView --><svg xmlns="http://www.w3.org/2000/svg" width="56" height="56"><path fill="#F0F3FA" d="M0 0h56v56H0z"/><path fill-rule="evenodd" d="M14 28a5 5 0 11-.25-1.59h-1.63a3.5 3.5 0 10.04 3.09H8.4V28H14zm10 1.5a3.5 3.5 0 11-7 0 3.5 3.5 0 017 0zm-1.5 0a2 2 0 11-4 0 2 2 0 014 0zM15 23h1.5v10H15V23zm25.5 0H39v10h1.5V23zm-14 0H25v10h1.5v-.65c.33.3 1.02.69 2.08.65 1.63-.07 2.92-1.04 2.92-3.58 0-2.52-1.7-3.42-3.1-3.42-.92 0-1.57.35-1.9.61V23zm0 4.85v3.25c.35.28 1 .64 1.69.6 1.03-.05 1.81-.49 1.81-2.2 0-1.65-.96-2.13-1.81-2.14a3.34 3.34 0 00-1.69.49zM34.96 26a4.32 4.32 0 00-2.67.73l.54 1.07a4 4 0 012.02-.45c1.43.01 1.68 1.03 1.65 1.54a4.51 4.51 0 00-1.81-.45c-1.88-.03-2.64 1.06-2.69 2.3-.04 1.24 1.03 2.29 2.52 2.26 1.19-.02 1.75-.48 1.98-.7v.7H38v-4.1c-.15-2.05-1.3-2.85-3.04-2.9zm-1.46 4.68c0-1.34 2.05-.94 3-.58v1.03c-.92.44-3 .91-3-.45z" fill="#3F4145"/><path fill-rule="evenodd" d="M47 33a5 5 0 005-5.11l-1.56.76a3.5 3.5 0 01-6.2 1.5l6.15-3.01 1.37-.67A5 5 0 1047 33zm2.8-7.11a3.5 3.5 0 00-6.18 3.02l6.17-3.02z" fill="#EF5827"/></svg>