<!-- by TradingView --><svg xmlns="http://www.w3.org/2000/svg" width="56" height="56"><path fill="#F0F3FA" d="M0 0h56v56H0z"/><path d="M25.5 31.8c-.77 0-.5 1.3 0 1.3 1.3 0 2-.6 2.5-.6-2 0-2.07-.7-2.5-.7z" fill="#2460A3"/><path fill-rule="evenodd" d="M25.24 32.85c.08.12.17.17.26.17a4.18 4.18 0 001.8-.4l.17-.06a3.22 3.22 0 01-1.35-.34l-.3-.2-.07-.05c-.1-.06-.17-.1-.25-.1-.17 0-.27.07-.33.17a.64.64 0 00-.07.4c.01.15.07.3.14.41zm2.76-.43c-1 0-1.5-.17-1.8-.34-.12-.06-.2-.12-.28-.17l-.09-.06a.58.58 0 00-.33-.13c-.22 0-.37.1-.46.24a.8.8 0 00-.1.5c.03.17.09.35.18.48s.22.23.38.23a4.33 4.33 0 001.86-.41l.25-.1c.15-.05.28-.08.39-.08v-.16z" fill="#F0F3FA"/><path d="M28 31.5c.65 0 1.2-.42 1.41-1H28v-1h2.45a2.51 2.51 0 01-2.45 3 2.5 2.5 0 111.43-4.55l-.52.86A1.5 1.5 0 1028 31.5z" fill="#2460A3"/><path d="M30.2 33c-.8-.8-1.8-.53-2.3-.43.52-.26 1.08-.67 1.67-.75.78-.1 1.43.36 1.43.68.17.5-.3 1-.8.5z" fill="#2460A3"/><path fill-rule="evenodd" d="M30.54 32.07a1.6 1.6 0 00-.96-.17c-.28.03-.56.15-.83.3l-.39.2c.54-.07 1.27-.07 1.9.55.11.11.22.17.31.18a.3.3 0 00.23-.06c.13-.1.2-.32.13-.55v-.02c0-.06-.03-.13-.1-.2a1 1 0 00-.29-.23zm.54.42a.5.5 0 00-.14-.3 1.1 1.1 0 00-.33-.25 1.76 1.76 0 00-1.05-.19c-.3.04-.6.16-.88.31l-.4.21-.02.02c-.13.07-.26.15-.4.21l.05.14c.03 0 .07 0 .1-.02.53-.1 1.42-.29 2.14.43.13.14.27.2.4.23.13.02.25-.02.35-.1.18-.14.26-.42.18-.7z" fill="#F0F3FA"/><path fill-rule="evenodd" d="M28 33.8a3.8 3.8 0 100-7.6 3.8 3.8 0 000 7.6zm0 .7a4.5 4.5 0 100-9 4.5 4.5 0 000 9z" fill="#2560A6"/><path d="M23.1 29a5.02 5.02 0 000 2H8.81L6.9 29h16.2zm1.9-3a5.02 5.02 0 00-1.58 2H5.92L4 26h21zm-1.58 6A5 5 0 0025 34H11.7l-1.92-2h13.64zM31 34h13.3l1.92-2H32.58A5 5 0 0131 34zm1.9-3h14.29l1.92-2H32.9a5.02 5.02 0 010 2zm-.32-3h17.5L52 26H31c.69.52 1.24 1.2 1.58 2z" fill="#2460A3"/></svg>