<!-- by TradingView --><svg width="56" height="56" viewBox="0 0 56 56" xmlns="http://www.w3.org/2000/svg"><path fill="#F0F3FA" d="M0 0h56v56H0z"/><path d="M6.38 22.5H9l19.5 6h23.41c.06-.33.09-.66.09-1 0-2.87-2.2-5.5-5.83-7.51L46 20l-2 .5c.33 0 .9.1.5.5-.23.23-.47.14-.75.02-.33-.13-.72-.29-1.25-.02-.5.25-.88.25-1.19.25-.31 0-.56 0-.81.25-.27.27.04.4.4.53.28.12.6.24.6.47 0 .25.37.38.75.5.37.13.75.25.75.5s.12.5.25.75c.12.25.25.5.25.75 0 .4-.67.83-1 1l-12-.5L20 24c-.67-.17-2-.7-2-1.5s1-.67 1.5-.5c0-.17.2-.5 1-.5.5 0 .62-.13.75-.25.12-.13.25-.25.75-.25.17-.5.7-1.5 1.5-1.5H25c.16 0 .27 0 .37-.02.23-.03.45-.14 1.13-.48.8-.4 2 .17 2.5.5 0-.33.3-1 1.5-1s1.5.33 1.5.5c.17-.17.6-.5 1-.5.25 0 .5-.13.75-.25.25-.13.5-.25.75-.25 0-.37.1-.98.38-1.52C32.7 16.17 30.4 16 28 16c-9.52 0-17.74 2.65-21.62 6.5Z" fill="url(#ax0jd3qzw)"/><path d="m9.01 22.4 19.5 6h23.32c.04-.3.07-.6.07-.9 0-2.81-2.15-5.4-5.75-7.41h-.13l-1.52.39a.6.6 0 0 1 .07.03c.08.05.16.12.17.24 0 .1-.06.21-.17.32a.53.53 0 0 1-.44.17 1.44 1.44 0 0 1-.41-.12h-.01a1.94 1.94 0 0 0-.52-.16c-.19-.02-.4 0-.65.13-.52.26-.91.26-1.23.26-.31 0-.52 0-.74.22-.06.06-.07.1-.07.11 0 .02 0 .03.03.06l.16.1.24.1c.15.06.3.12.43.2.12.08.24.2.24.36 0 .07.05.13.18.2.13.08.31.14.5.2.2.07.39.13.53.22.15.08.29.2.29.38 0 .22.11.45.24.7v.02c.13.24.26.5.26.78 0 .13-.05.25-.13.36-.07.1-.17.21-.28.3-.22.19-.47.34-.65.43l-.02.01-12.03-.5-10.51-1.5a4.91 4.91 0 0 1-1.28-.53c-.42-.25-.8-.61-.8-1.07 0-.22.07-.4.2-.51a.81.81 0 0 1 .45-.2c.29-.04.62.01.87.08.08-.23.4-.47 1.08-.47.24 0 .38-.03.48-.07a.6.6 0 0 0 .2-.15.8.8 0 0 1 .26-.2c.12-.04.27-.07.49-.08.1-.25.26-.6.5-.9.27-.32.63-.6 1.07-.6H25l.36-.01c.2-.04.4-.13 1.1-.48.43-.22.96-.17 1.43-.03.4.11.77.3 1.03.45.04-.17.13-.36.31-.53.25-.23.65-.4 1.27-.4.6 0 1 .08 1.24.2.14.06.24.14.3.23.09-.08.2-.16.32-.23.19-.1.41-.2.64-.2.22 0 .45-.11.7-.24h.02c.2-.11.44-.23.68-.25.01-.36.1-.87.33-1.35-2.13-.3-4.4-.46-6.73-.46-4.75 0-9.17.66-12.9 1.8-3.6 1.11-6.54 2.67-8.47 4.5H9Zm-2.63.1.1-.1C10.41 18.6 18.57 16 28 16c2.35 0 4.63.16 6.78.47l.1.01A3.42 3.42 0 0 0 34.5 18c-.25 0-.5.13-.75.25-.25.13-.5.25-.75.25-.34 0-.71.24-.91.42A1.6 1.6 0 0 0 32 19a.2.2 0 0 0-.03-.1c-.11-.18-.5-.4-1.47-.4-1.08 0-1.43.54-1.49.89l-.01.11a3.03 3.03 0 0 0-.1-.06c-.54-.34-1.65-.82-2.4-.44-.68.34-.9.45-1.13.48-.1.02-.21.02-.37.02h-1.5c-.8 0-1.33 1-1.5 1.5-.5 0-.63.13-.75.25-.13.13-.25.25-.75.25-.66 0-.91.23-.98.4a.28.28 0 0 0-.02.1 2.4 2.4 0 0 0-.1-.03c-.52-.15-1.4-.22-1.4.53 0 .8 1.33 1.33 2 1.5l10.5 1.5 12 .5c.33-.17 1-.6 1-1 0-.25-.13-.5-.25-.75-.13-.25-.25-.5-.25-.75s-.38-.38-.75-.5c-.38-.13-.75-.25-.75-.5 0-.23-.32-.35-.6-.47-.36-.14-.67-.26-.4-.53.25-.25.5-.25.81-.25.31 0 .69 0 1.19-.25.53-.27.92-.1 1.25.02.28.12.52.21.75-.02.29-.29.07-.42-.2-.47l-.3-.03 2-.5.17-.01C49.8 22 52 24.63 52 27.5c0 .34-.03.67-.09 1H28.5L9 22.5H6.38Z" fill="#000B04"/><path d="M28.5 23.5c-1.2 0-3.5 1-4.5 1.5l4.5 1.5 7-1c-1.83-.67-5.8-2-7-2Z" fill="#75A484"/><path fill-rule="evenodd" d="M24.13 24.94 24 25l4.5 1.5 7-1-.2-.07c-1.9-.69-5.64-1.93-6.8-1.93-1.15 0-3.32.92-4.37 1.44Zm.13.04 4.25 1.42 6.58-.94c-.91-.33-2.16-.75-3.36-1.11-.68-.21-1.34-.4-1.91-.53a6.59 6.59 0 0 0-1.32-.22c-.58 0-1.44.24-2.3.56-.72.27-1.44.58-1.94.82Z" fill="#000B04"/><path d="M28 25c-1.2 0-4.17 1-5.5 1.5L27 28l5.5-1c-1-.67-3.3-2-4.5-2Z" fill="#09B092"/><path fill-rule="evenodd" d="m22.65 26.44-.15.06L27 28l5.5-1-.12-.08C31.32 26.23 29.15 25 28 25c-1.16 0-3.96.93-5.35 1.44Zm.15.06 4.2 1.4 5.24-.95c-.5-.33-1.22-.75-1.96-1.11-.42-.2-.85-.4-1.24-.53-.4-.13-.76-.21-1.04-.21-.58 0-1.61.25-2.67.56-.93.27-1.86.6-2.53.84Z" fill="#000B04"/><path d="M36 24.5c-2 0-6.83 2-9 3l7.5 1 11-2.5c-2.33-.5-7.5-1.5-9.5-1.5Z" fill="#7FC89D"/><path fill-rule="evenodd" d="m27.17 27.42-.17.08 7.5 1 11-2.5-.23-.05c-2.43-.51-7.33-1.45-9.27-1.45-1.95 0-6.59 1.9-8.83 2.92Zm.19.03 7.14.95L45.03 26c-1.16-.24-2.8-.56-4.42-.84A33.83 33.83 0 0 0 36 24.6c-.49 0-1.15.12-1.92.32-.76.2-1.62.49-2.48.8a62.06 62.06 0 0 0-4.24 1.73Z" fill="#000B04"/><path d="m7 22-1 1 3.5 2.5L15 24l-6-2H7Z" fill="#73A484"/><path fill-rule="evenodd" d="m6 23 3.5 2.5L15 24l-6-2H7l-1 1Zm1.04-.9-.89.89 3.37 2.4 5.13-1.4-5.67-1.89H7.04Z" fill="#000B04"/><path d="M20 23c-2.8-.4-8.17 1.17-10.5 2l1 1H19l5 2h6c-1.67-.67-7.2-4.6-10-5Z" fill="#7DC097"/><path d="m19.02 25.9 5 2h5.52c-.4-.2-.9-.49-1.46-.82l-.87-.52-1.83-1.07a38.7 38.7 0 0 0-2.91-1.54 9.62 9.62 0 0 0-2.48-.85c-1.38-.2-3.41.09-5.4.54-1.89.42-3.73.99-4.9 1.4l.85.86h8.48Zm-8.52.1-1-1a28 28 0 0 1 .1-.04C12 24.12 17.24 22.61 20 23c1.86.27 4.92 2.09 7.26 3.48A36.06 36.06 0 0 0 30 28h-6l-5-2h-8.5ZM34.5 28.5 36 25l2 3.5h-3.5Z" fill="#000B04"/><path d="M18 25c-3.2 0-5.67 1-6.5 1.5L16 30l15.5-1c-3.17-1.33-10.3-4-13.5-4ZM45 25c-2 0-9 3.17-12 4.5l9.5.5 9-1.5v-2C50 26 47 25 45 25Z" fill="#11925C"/><path fill-rule="evenodd" d="M11.6 26.45a4 4 0 0 0-.1.05L16 30l15.5-1-.2-.09C28.02 27.55 21.12 25 18 25c-3.09 0-5.5.93-6.4 1.45Zm.08.06 4.35 3.39 15.04-.97a90.1 90.1 0 0 0-6.34-2.33c-2.58-.84-5.15-1.5-6.73-1.5-3.03 0-5.4.9-6.32 1.41ZM33 29.5l9.5.5 9.1-1.57v-2C50.1 25.93 47 25 45 25c-1.9 0-8.28 2.84-11.5 4.28l-.5.22Zm.42-.08 9.07.48 9.01-1.56V26.5c-.75-.25-1.57-.54-2.84-.84A17.58 17.58 0 0 0 45 25.1c-.48 0-1.28.2-2.27.51-.98.32-2.13.75-3.32 1.23a184.9 184.9 0 0 0-5.87 2.53l-.12.05Z" fill="#000B04"/><path d="m20.5 30 1.5-4 1 2.5.5-1 2 3.5-5-1Z" fill="#000B04"/><path d="M31 27.5c-3.2 0-6.67 1.33-8 2l1 1.5h11.5l4-2c-1.5-.5-5.3-1.5-8.5-1.5Z" fill="#08A590"/><path fill-rule="evenodd" d="m23.09 29.46-.09.04 1 1.5h11.5l4-2-.13-.04A31.02 31.02 0 0 0 31 27.5c-3.13 0-6.52 1.28-7.91 1.96Zm.06.08.9 1.36h11.43l3.76-1.88A30.86 30.86 0 0 0 31 27.6c-3.1 0-6.46 1.26-7.85 1.94Z" fill="#000B04"/><path d="m47.5 28.5-8 .5c-1 .17-3.2.6-4 1-1 .5-1.5 0-4.5 0s-4 1.5-4 2.5 2.5 1 2.5 2-2 1-2 2.5c0 1.2 1 1.83 1.5 2 12 0 23-6 23-11.5h-2c-.8 0-2 .67-2.5 1Z" fill="#26AB6E"/><path fill-rule="evenodd" d="m47.5 28.5-8 .5c-1 .17-3.2.6-4 1-.58.29-.99.24-1.8.15A22.6 22.6 0 0 0 31 30c-3 0-4 1.5-4 2.5 0 .5.63.75 1.25 1 .63.25 1.25.5 1.25 1 0 .45-.4.7-.85.97-.54.33-1.15.7-1.15 1.53 0 1.2 1 1.83 1.5 2 11.93 0 22.87-5.93 23-11.4v-.1h-2c-.8 0-2 .67-2.5 1Zm4.4-.9H50c-.38 0-.86.16-1.32.37-.46.2-.88.45-1.12.61l-.03.02-8.02.5c-.5.08-1.3.23-2.06.41-.78.18-1.52.39-1.9.58-.53.26-.93.26-1.56.2l-.31-.04A22.5 22.5 0 0 0 31 30.1c-2.97 0-3.9 1.47-3.9 2.4 0 .2.12.36.35.51.22.15.52.27.84.4.31.12.63.25.87.41.25.17.44.38.44.68 0 .29-.15.5-.35.68-.15.13-.35.26-.55.38l-.15.09c-.5.3-.95.66-.95 1.35 0 .57.24 1 .54 1.32.29.3.64.5.88.58 5.98 0 11.7-1.5 15.93-3.68a18.08 18.08 0 0 0 5.07-3.67c1.18-1.3 1.85-2.64 1.88-3.95Z" fill="#000B04"/><path d="m8.5 24 1-1.5 1.5 2-1 .5-1.5-1Z" fill="#000B04"/><path d="M11 25c-1.6-.8-4-1.67-5-2-1 1-1.83 3.17-2 4.5 0 6 10.5 10 15.5 10.5 0-.17.2-.7 1-1.5 1-1 5.5-1 5.5-2 0-1.34-1.5-1-1.5-2 0-.8 2.5-1.33 3.5-1.5-4.83-1.67-15.4-5.2-17-6Z" fill="#68C08E"/><path d="M24 32.5c0-.8 2.5-1.5 4-1.5-.17.17-.5.7-.5 1.5 0 1 2.5 1 2.5 2s-2 1-2 2.5c0 1.2.5 1.83 1 2-4.4 0-8.17-.67-9.5-1 0-.5.33-1.33.5-1.5 1-1.5 5.5-1 5.5-2s-1.5-1-1.5-2Z" fill="url(#bx0jd3qzw)"/><path d="M20.08 36.56v.01a3.5 3.5 0 0 0-.47 1.35c1.34.33 4.86.94 9 .98-.4-.32-.71-.95-.71-1.9 0-.8.55-1.2 1.05-1.52l.15-.1c.2-.12.38-.23.52-.35.18-.16.28-.32.28-.53 0-.2-.12-.36-.35-.51a4.8 4.8 0 0 0-.84-.4c-.31-.12-.63-.25-.87-.41-.25-.17-.44-.38-.44-.68 0-.64.2-1.13.39-1.4-.7.03-1.6.2-2.32.44-.4.14-.75.3-1 .47-.25.18-.37.34-.37.49 0 .44.32.66.7.92h.02c.36.25.78.53.78 1.08 0 .17-.1.3-.24.4-.14.09-.33.16-.55.22-.38.1-.87.17-1.4.25l-.27.04c-.63.1-1.27.2-1.83.38s-1 .42-1.23.77ZM27.86 31H28a2.39 2.39 0 0 0-.5 1.5c0 .5.63.75 1.25 1 .63.25 1.25.5 1.25 1 0 .45-.4.7-.85.97-.54.33-1.15.7-1.15 1.53 0 1.03.37 1.64.79 1.9.07.04.14.08.21.1h-.24c-4.3-.02-7.95-.67-9.26-1 0-.5.33-1.33.5-1.5.54-.8 2.09-1.03 3.4-1.23 1.14-.17 2.1-.3 2.1-.77 0-.5-.38-.75-.75-1-.38-.25-.75-.5-.75-1 0-.78 2.35-1.46 3.86-1.5Z" fill="#000B04"/><path d="M25 36.5c-.8 0-1 .67-1 1h1c.4 0 .83-.33 1-.5 0-.17-.2-.5-1-.5ZM27.5 34.5c-.8 0-1 .33-1 .5H28c.17-.17.3-.5-.5-.5Z" fill="#B8ABA2"/><path d="M24.28 36.93c-.1.15-.16.33-.17.47H25c.17 0 .36-.07.54-.17.15-.09.27-.2.35-.27-.03-.11-.2-.36-.89-.36-.37 0-.59.15-.72.33ZM26 37c-.17.17-.6.5-1 .5h-1v-.1c.04-.35.27-.9 1-.9.8 0 1 .33 1 .5Zm1.5-2.4c-.58 0-.8.18-.87.3h1.33a.36.36 0 0 0 .05-.09c.02-.04.02-.06.01-.08 0-.02-.03-.05-.11-.08a1.29 1.29 0 0 0-.41-.05Zm.5.4h-1.5c0-.03 0-.06.02-.1.07-.17.32-.4.98-.4.8 0 .67.33.5.5ZM17 24.5l1-2 1 2h-.5l1 1H19l1 2h-.5l.5 1h-.5l1 1H20l1 1.5h-.5l1 1c-1.6.4-3-.17-3.5-.5-.8.8-2.67.67-3.5.5l1-1H15l1-1.5h-.5l.5-1h-.5l1-1H16l1-2h-.5l1-1H17ZM43.5 29l1.5-3.5 1.5 3.5h-3Z" fill="#000B04"/><path d="m46 30 1-4 2 4h-3Z" fill="#000B04"/><path d="M35 16.5c-2.21-.33-4.56-.5-7-.5-13.25 0-24 5.15-24 11.5S14.75 39 28 39s24-5.15 24-11.5c0-2.88-2.21-5.52-5.87-7.53L46 20l-.53.18c3.85 2.01 6.03 4.61 6.03 7.32 0 2.87-2.45 5.62-6.75 7.68C40.5 37.22 34.57 38.5 28 38.5s-12.5-1.28-16.75-3.32c-4.3-2.06-6.75-4.8-6.75-7.68 0-2.87 2.45-5.62 6.75-7.68C15.5 17.78 21.43 16.5 28 16.5c2.35 0 4.62.16 6.77.47l.23-.47Z" fill="#000B04"/><defs><linearGradient id="ax0jd3qzw" x1="29.19" y1="16" x2="29.19" y2="28.5" gradientUnits="userSpaceOnUse"><stop stop-color="#ED705C"/><stop offset="1" stop-color="#ED9740"/></linearGradient><linearGradient id="bx0jd3qzw" x1="24.5" y1="31" x2="24.5" y2="39" gradientUnits="userSpaceOnUse"><stop stop-color="#007ECB"/><stop offset="1" stop-color="#65BDEF"/></linearGradient></defs></svg>