<!-- by TradingView --><svg width="56" height="56" viewBox="0 0 56 56" xmlns="http://www.w3.org/2000/svg"><path fill="#F0F3FA" d="M0 0h56v56H0z"/><path fill-rule="evenodd" d="M28 41a13 13 0 1 0 0-26 13 13 0 0 0 0 26Zm0-3a10 10 0 1 0 0-20 10 10 0 0 0 0 20Z" fill="#A90533"/><path fill-rule="evenodd" d="M28 35a7 7 0 1 0 0-14 7 7 0 0 0 0 14Zm0-1a6 6 0 1 0 0-12 6 6 0 0 0 0 12Z" fill="#A90533"/><path fill-rule="evenodd" d="M46 28a18 18 0 1 1-36 0 18 18 0 0 1 36 0Zm-1 0a17 17 0 1 1-34 0 17 17 0 0 1 34 0Zm-13.58 0a3.42 3.42 0 1 1-6.84 0 3.42 3.42 0 0 1 6.84 0Zm-.36 0a3.06 3.06 0 1 1-6.12 0 3.06 3.06 0 0 1 6.12 0Zm-.34 0a2.72 2.72 0 1 1-5.44 0 2.72 2.72 0 0 1 5.44 0Zm-.3 0a2.42 2.42 0 1 1-4.84 0 2.42 2.42 0 0 1 4.84 0ZM30 28a2 2 0 1 1-4 0 2 2 0 0 1 4 0Z"/><path fill-rule="evenodd" d="M28 32a4 4 0 1 0 0-8 4 4 0 0 0 0 8Zm0-.8a3.2 3.2 0 1 0 0-6.4 3.2 3.2 0 0 0 0 6.4ZM30.83 11.39c.72.1 2.2.4 3.27.86.06.02.1.1.07.16a.13.13 0 0 1-.18.08l-.5-.2a.3.3 0 0 0-.39.2l-.75 2.42 1.69.71c.18.08.66.13 1.17-.24.03 0 .3.16.41.24l-.6.87a12.73 12.73 0 0 0-4.74-1.7.13.13 0 0 1-.11-.13c0-.07.06-.13.13-.12l.5.03c.07.04.21.04.3-.24l.5-2.32c0-.05-.07-.17-.35-.26a2.68 2.68 0 0 0-.44-.09c-.09-.01-.15-.1-.12-.19.02-.05.08-.09.14-.08ZM19.9 13.98l.1.2c.13.24.64.45.64.19v-.26c-.06-.5.8-.92 1.23-1.07l.92 2.06a.3.3 0 0 1-.14.4l-.33.16a.13.13 0 0 0 .1.24l2.3-.83a.12.12 0 0 0-.07-.22l-.3.05a.3.3 0 0 1-.33-.2l-.76-2.16c-.02-.02.1-.1.72-.2.5-.1.89.1 1.09.29.07.06.18.1.27.08.14-.04.21-.19.16-.32l-.17-.41a.22.22 0 0 0-.23-.14c-1.74.18-4.01 1.24-5.1 1.85a.22.22 0 0 0-.1.29Zm-2.39 5.16c-.14-.77-.4-2.4-.4-3.25 0-.14.05-.26.15-.35l.17-.16a.5.5 0 0 1 .4-.13c.7.09 2.05.37 3.3.97l.47-.2c.06-.02.13 0 .17.06.05.07.02.17-.06.2-.45.24-1.28.7-1.93 1.21a.12.12 0 0 1-.15 0 .12.12 0 0 1-.02-.16c.07-.1.16-.2.24-.27.05-.05.03-.13-.02-.15l-.67-.23-1.26 1.1c.05.23.12.48.2.7.02.04.07.05.1.03l.29-.27a.13.13 0 0 1 .19 0c.05.06.04.14 0 .2-.3.28-.82.8-1.2 1.29a.13.13 0 0 1-.18.03.14.14 0 0 1-.03-.2c.11-.14.24-.33.24-.42Zm.33-1.66.95-.91c-.38-.1-.78-.19-1.06-.18 0 .23.03.64.1 1.1Zm-5.71 5.9a16 16 0 0 1 2.23-4.64l.68.37c-.06.1-.19.33-.22.34h-.05c-.16-.01-.67-.04-.9.45-.17.4-.47.97-.65 1.31-.04.08 0 .17.07.2l.83.38.33-.63a.53.53 0 0 0-.1-.63.79.79 0 0 1 .23-.38l.88.49c.02.03.02.13-.04.2-.07.08-.13.17-.15.21-.1-.03-.34-.07-.46.06-.11.12-.31.54-.43.8l.82.35c.18.08.39 0 .48-.17l.66-1.3c.02-.2.02-.67-.17-.97 0-.04.16-.22.24-.3l.72.62c-.5.76-1.58 2.6-1.98 4.02a.13.13 0 0 1-.17.1.13.13 0 0 1-.09-.17l.08-.27a.3.3 0 0 0-.2-.37l-1.94-.66a.53.53 0 0 0-.32.34l-.1.32a.15.15 0 0 1-.19.1.14.14 0 0 1-.1-.17Zm2.47 4.76c.02.63.14 1.8.22 2.42a.12.12 0 0 1-.24.04l-.07-.34a.3.3 0 0 0-.34-.24l-1.97.33a.3.3 0 0 0-.24.34l.08.49a.12.12 0 0 1-.07.13.12.12 0 0 1-.16-.08c-.32-1.13-.33-2.5-.33-3.5 0-1.04.29-1.95.9-1.95.5 0 .73.8.8 1.19.2-.55.92-1.27 1.22-1.4.2-.09.3-.4.34-.64.01-.06.07-.1.14-.08a.1.1 0 0 1 .07.11l-.28 1.59-.74.82c-.28.3-.62.73-.69.94a1.2 1.2 0 0 0 0 .54l.85-.09a.3.3 0 0 0 .27-.3v-.32c0-.07.05-.13.12-.13.06 0 .12.06.12.13Zm-1.67.7c-.34 0-1.04.05-1.12.06v-.72c0-.17 0-.95.54-.95.43 0 .56.52.58.78v.82Zm-.7 4.32c0 .15-.05 1.16.68 2.43.77 1.33 1.9 2.36 2.96 1.94 1.05-.42.7-2.02.48-2.67-.1-.3-.38-.91-.67-1.56-.34-.77-.7-1.57-.77-1.84-.1 0-.72.18-1.01.27l-.28-.7-.18.1c.12.58.44 1.94.84 2.8h.21l-.21-.67c.02-.08.1-.25.3-.3l.05-.01c.22-.06.42-.12.61.31l.09.19c.3.62.97 1.98-.3 2.74-1.13.68-2-.94-2.29-1.83a1.35 1.35 0 0 1 .41-1.61l-.18-.55-1.1.33.14.5.22.12v.01Zm31.75-.58a16 16 0 0 0 .75-5.1.14.14 0 0 0-.14-.13.15.15 0 0 0-.15.15v.34c0 .22-.14.37-.2.41l-2.06-.05a.3.3 0 0 1-.3-.3v-.27a.13.13 0 0 0-.13-.13.13.13 0 0 0-.13.14c.04 1.48-.45 3.55-.7 4.43l.86.37c.06-.1.16-.32.15-.36a1.6 1.6 0 0 1-.45-.86l.25-1.45c.03-.2.2-.33.4-.3.23.02.55.05.9.1-.05.27-.12.73-.18.88-.08.16-.32.2-.43.19 0 .04-.03.16-.07.25-.05.09-.01.17 0 .2l1 .2c.1-.16.12-.35.11-.42a.53.53 0 0 1-.29-.58l.13-.7.9.12c.09 0 .15.09.13.17-.07.38-.18 1.01-.24 1.44-.07.55-.55.67-.71.7a.25.25 0 0 0-.05.02 1.6 1.6 0 0 0-.11.39l.76.15ZM39.5 16.09c-.84.1-2.44.52-3.2.73-.09.01-.29-.1-.44-.19a.14.14 0 0 0-.2.05.13.13 0 0 0 .05.17c.52.33 1.1.8 1.42 1.06a.13.13 0 1 0 .16-.2l-.29-.26c-.03-.03-.02-.08.02-.1.21-.11.45-.2.68-.28l1.22 1.14-.17.7c-.01.05-.09.07-.14.03l-.29-.21a.12.12 0 0 0-.16.04c-.03.04-.02.1.01.14.57.6 1.12 1.38 1.4 1.8.04.08.14.1.2.04a.14.14 0 0 0 .04-.17l-.23-.44c.47-1.32.6-2.7.62-3.4a.5.5 0 0 0-.17-.38l-.17-.15a.48.48 0 0 0-.36-.12Zm-.51 1.75-1-.86c.43-.12.84-.2 1.08-.22.03.29-.01.68-.08 1.08Zm.89 3.5c.27.51.76 1.53 1.04 2.3.02.06.1.1.16.07.06-.02.1-.09.07-.15l-.13-.42a.22.22 0 0 1 .13-.27l.67-.28c.07.01.13.05.19.12.11.15.16.24.17.27a4.13 4.13 0 0 1-.63 1.64c-.01.01-.06 0-.14-.2a3.34 3.34 0 0 0-.07-.17c-.03-.05-.07-.06-.12-.03h-.02a.15.15 0 0 0-.08.17c.15.65.4 1.85.43 2.49 0 .06.05.12.12.12.07 0 .12-.06.12-.12v-.47l1.18-2.62.9 1.1c.17.23.38.88.48 1.25.01.05.06.09.1.09a.1.1 0 0 0 .12-.12A12.3 12.3 0 0 0 44 23.3a.1.1 0 0 0-.12-.05.1.1 0 0 0-.06.13l.1.29c0 .05 0 .17-.13.2-.09.04-.3-.2-.4-.33l-1.04-1.05v-.12l.81-.34c.07 0 .23.07.34.4l.11.3c.03.08.11.11.18.07.05-.03.08-.1.07-.15a10.6 10.6 0 0 0-1.3-2.84.1.1 0 0 0-.15-.04.1.1 0 0 0-.05.15l.26.48c.02.08 0 .25-.24.35-.25.1-1.25.65-1.72.9a.3.3 0 0 1-.35-.09l-.23-.33a.12.12 0 0 0-.16-.04.11.11 0 0 0-.04.15Zm.97 11.25.8.29c.04.01.06.05.04.1l-.1.26a.08.08 0 0 1-.07.05c-.1.01-.26.06-.44.17a2.8 2.8 0 0 0-.89.98c-.17.37-.33 1.16.07 1.07.4-.1.65-.38.98-.77l.16-.2c.36-.45.95-1.19 1.44-1.19.57 0 .55.9.53.98v.02a4.45 4.45 0 0 1-1.36 2.58v.27c0 .02 0 .03-.02.05l-.2.25a.07.07 0 0 1-.1.02l-.6-.39a.07.07 0 0 1-.02-.1l.22-.34a.08.08 0 0 1 .08-.03c.19.01.57-.07.86-.48.4-.57.86-1.41.45-1.58-.37-.14-.85.63-1 .89l-.05.06c-.1.14-.76 1.1-1.54 1.1-.79 0-.78-1.13-.45-1.82.32-.7.71-1.3 1.08-1.66l-.08-.32v-.06l.13-.17a.07.07 0 0 1 .08-.03ZM25.64 19.56a5.26 5.26 0 0 1 1.97-.4l.05.35a.52.52 0 0 1-.16 0l-.01-.01c-.04-.07-.15-.26-.36-.22-.16.04-.41.08-.56.1-.03.01-.05.05-.04.09l.08.41.27-.04c.1-.02.16-.1.17-.21.03-.02.1-.04.18-.01l.06.46c-.01.01-.04.04-.08.04a.4.4 0 0 0-.1 0c-.01-.05-.06-.15-.13-.16l-.34.05.08.4c.02.1.1.16.17.14l.56-.1c.07-.04.21-.17.26-.32h.15l-.02.45a5.7 5.7 0 0 0-1.72.33c-.02.01-.05 0-.06-.04-.01-.03 0-.07.02-.08l.1-.04c.06-.02.1-.1.07-.17l-.26-.92a.18.18 0 0 0-.18-.02l-.12.04c-.03.02-.07 0-.08-.04 0-.03 0-.07.03-.08Zm-1.45.5c.48-.34.88-.34.93-.34l.05-.1.2-.06.14.47-.21.09a.49.49 0 0 0-.64-.15c-.34.14-.95.54-.67 1.03.32.54.84.22 1.08.08l.07-.04c.16-.09.14-.18.1-.27v-.03a.18.18 0 0 0-.12-.12l-.26.1v-.1c.33-.18.85-.34 1.07-.4l.05.07-.27.14c.04.12.12.39.12.44-.1.03-.4.2-.7.36-.25.14-.48.27-.6.32-.24.1-.86.29-1.04-.17-.19-.45.2-.96.7-1.32Zm-3.42 7.7c0-.26 0-.75.04-1.02 0-.02-.02-.05-.05-.06-.03 0-.06.02-.07.05l-.02.13c0 .07-.07.11-.14.1l-.4-.01c0-.05 0-.16.03-.23.03-.04.11-.09.21-.13.07-.04.15-.07.2-.12l.4-.29.2-.73c0-.01 0-.03-.02-.04.17-.62.64-1.41.85-1.74l-.3-.27a.53.53 0 0 0-.11.13.7.7 0 0 1 .07.42l-.28.56a.16.16 0 0 1-.21.08l-.36-.16c.06-.11.14-.29.19-.34.05-.06.15-.04.2-.03l.06-.09a.1.1 0 0 0 .02-.09l-.38-.2a.34.34 0 0 0-.1.16c.07.07.1.18.04.27l-.14.27-.36-.16a.06.06 0 0 1-.03-.09l.29-.56c.1-.22.31-.2.38-.2H21c.02 0 .08-.1.1-.15l-.3-.15c-.59.87-.87 1.66-.96 2 0 .03.01.06.04.07.04.01.07 0 .08-.04l.05-.14c.03-.1.1-.13.13-.14l.85.28c.06.02.1.1.08.16l-.03.12c-.01.02 0 .05.02.06l-.01.04c-.04.1-.1.28-.18.3-.14.03-.53.17-.66.38 0-.17-.07-.5-.3-.54-.29-.04-.48.31-.54.74-.06.42-.14.99-.05 1.48 0 .03.03.05.06.04.03 0 .05-.03.05-.05l-.01-.2c0-.08.05-.13.13-.13h.95c.07 0 .14.05.14.12l.01.14c0 .03.03.05.06.05s.06-.02.06-.05Zm-1.32-.89.53.05.05-.34c.01-.11-.02-.34-.22-.37-.26-.03-.3.3-.31.36l-.05.3Zm16.01 2.41c.07-.35.1-.86.11-1.11 0-.03.03-.05.06-.05s.05.02.05.05l.02.18c.02.08.09.1.12.11l.9.03c.14.02.18-.04.2-.08v-.24c0-.03.02-.05.05-.05.03 0 .05.02.05.05.04.62-.07 1.15-.13 1.38-.01.03-.04.05-.06.05-.04 0-.07-.03-.06-.07l.02-.14c.04-.15-.01-.21-.04-.23l-.4-.05a.29.29 0 0 0-.04.05l.18.63c0 .07.04.21.08.22.06.01.09-.03.1-.05l.03-.13c0-.03.03-.04.05-.04.03 0 .05.03.04.05-.03.31-.28.9-.43 1.2a.05.05 0 0 1-.07.03.05.05 0 0 1-.02-.06 2 2 0 0 0 .1-.59l-.11-.62-1.1.74-.1.18a.06.06 0 0 1-.08.02.06.06 0 0 1-.03-.07 8 8 0 0 0 .41-1.05c.01-.03.04-.05.07-.05h.02c.02 0 .04.02.03.04v.09c-.02.09 0 .1 0 .1.25-.09.54-.36.65-.49l-.01-.14a.14.14 0 0 0-.05-.1l-.34-.03a.1.1 0 0 0-.11.07l-.05.2c0 .02-.03.04-.06.04a.06.06 0 0 1-.05-.07Zm-.02-2.27c0 .56.25.94.41 1.1.03.03.08.02.1 0a.08.08 0 0 0 0-.1 1.32 1.32 0 0 1-.35-.86.7.7 0 0 1 .7-.76c.29 0 .62.25.62.72s-.12.57-.22.65c-.1.07-.17.14-.17.23 0 .1.06.1.3.1.22 0 .22-.05.22-.13v-.01a.2.2 0 0 0-.03-.12l-.01-.02.04-.69c0-.92-.55-1.3-.9-1.3-.34 0-.7.4-.7 1.19Zm.65-1.48c-.4.24-1.02-.07-1.37-.68-.35-.62-.31-1.3.09-1.54.4-.23 1.02.08 1.37.69.36.61.32 1.3-.09 1.53Zm-.27-.48a.71.71 0 0 1-.97-.28.71.71 0 0 1 .24-.98c.33-.19.76-.06.97.28.2.35.09.79-.24.98Zm-3.49-3.21.29.14.81-1.1-.25-.23.08-.09c.32.2 1.05.74 1.4 1.2.45.57.47 1 .13 1.35-.34.35-.9.17-1.17-.09-.21-.2-.95-.81-1.29-1.08v-.1Zm.8.48c.03-.04.58-.7.86-1.01.34.24.94.82.36 1.3-.58.49-1.07.02-1.22-.29ZM21 29.94l.17.26.05-.08c-.15-.4-.49-1.3-.58-1.59-.1-.36-.5-.79-.96-.65-.47.13-.67.51-.57 1.23.08.57.44 1.4.62 1.74l.11-.04-.1-.33 1.26-.54Zm-1.53-.1 1.25-.45c.03-.34-.16-1-.9-.86-.75.13-.52.92-.35 1.3Zm2.6-6.15.14-.27-1.06-.75-.24.24-.08-.07c.21-.31.75-1.03 1.21-1.38.57-.43 1-.46 1.34-.15.33.32.14.85-.12 1.12-.21.21-.82.93-1.1 1.26h-.1Zm.49-.77-.98-.8c.25-.33.83-.91 1.3-.37.46.54-.01 1.02-.32 1.17Zm8.68-1.84c-.3-.03-.44-.22-.47-.3 0-.04.02-.08.03-.1l.24-.23c.04-.05.25-.04.35-.03l-.47-.23c-.06-.02-.18-.07-.2-.04-.03.02.02.09.05.11.09.16-.02.31-.18.2-.12-.08-.17-.28-.18-.37.14 0 .43-.07.43-.26 0-.24-.43-.42-.7-.42-.25 0-.39.1-.39.22 0 .1.04.23.06.29-.41.12-.52.34-.52.43 0 .52.74.55 1.12.5.13.21.46.34.62.34.13 0 .2-.02.21-.03v-.08Zm-.92-1.19a.17.17 0 1 0 0-.33.17.17 0 0 0 0 .33Zm-.4.24.3.46c.02.04.03.1-.1.1-.15 0-.41-.13-.41-.35 0-.18.13-.21.2-.2Z" fill="#A90533"/><path fill-rule="evenodd" d="m27.78 22.76.17.1v.6l-.15.14h.62l-.18-.17v-.18l.29-.02c.2 0 .63-.02.63-.2 0-.22-.4-.35-1.38-.27Zm.75.38c.12 0 .22-.06.22-.14 0-.09-.1-.15-.22-.15s-.22.01-.22.15c0 .13.1.14.22.14Zm-3.05.33h.13l.33.51-.02.2.38-.21-.2-.05-.24-.4c0-.02.01-.09.06-.09a12.66 12.66 0 0 0 .68.37c.02-.02.09-.08.11-.15l.25-.6c.02 0 .07.03.09.13l.06.36-.12.15.58-.1a.69.69 0 0 1-.14-.2l-.07-.48.12-.14-.46.06a.5.5 0 0 0-.19.13l-.15.4c0 .01 0 .06-.04.07-.04.02-.14 0-.19-.02l-.47-.23-.5.3Zm-.44 1.37c.4-.32.6-.75.47-.97-.13-.22-.56-.14-.96.18-.4.31-.6.74-.47.96.14.22.57.14.96-.17Zm-.04-.07c.22-.18.32-.47.2-.65-.1-.18-.38-.18-.6 0-.23.17-.32.47-.2.64.1.18.38.19.6 0Zm-.83 1.49c.2-.35.2-.67.17-.82 0-.03-.03-.04-.06-.02a.06.06 0 0 0-.03.06c.02.13.02.4-.12.64-.2.34-.5.34-.65.25-.16-.09-.25-.35-.08-.64.16-.3.27-.32.35-.34.08-.01.15-.03.18-.09s0-.08-.13-.16c-.12-.07-.14-.03-.17.01v.01c-.03.04-.03.07-.03.09v.01l-.27.42c-.33.57-.17.98.02 1.1.19.1.53-.03.82-.52Zm4.96-2.61-.14.05c.04 0 .3.1.41.15v-.2l.12-.1c.12.02.31.09.42.22v.15l-.12.06.46.28-.06-.14v-.8a.74.74 0 0 0-.32-.21c-.17.04-.59.37-.77.54Zm.81-.04c-.08-.04-.22-.1-.29-.17.1-.07.17-.13.18-.12l.1.14.02.03v.12Zm.8.76-.2.04.35.31v-.2c.1-.12.32-.35.34-.33l.12.65c-.02.1-.05.3 0 .38.05.08.15.07.19.06l.51-.34c.07-.02.17.01.2.03l-.35-.43.05.2a.67.67 0 0 1-.2.2c-.13.07-.14-.02-.16-.22l-.02-.18c-.05-.32-.1-.44-.17-.58-.08-.15-.3-.22-.32-.22V24l-.35.37Zm1.7.84c.1.13.3.43.32.65-.02-.01-.07-.03-.13 0-.07.05-.18.17-.15.23.03.05.22.24.28.21.05-.02.07-.08.07-.12.07.08.19.3.13.58l-.02-.02c-.06-.1-.27-.39-.54-.4-.25 0-.34.13-.35.19l-.17-.44c.22-.04.64-.26.55-.88Z" fill="#A90533"/><path opacity=".3" d="M33.15 35.87a8.2 8.2 0 0 1-4.94 1.45c-4.44 0-6.67-2.44-7.47-3.74l1.55-.95c.55.9 2.26 2.88 5.92 2.88a6.4 6.4 0 0 0 3.88-1.11c.8-.58 1.32-1.27 1.76-1.87l.09-.12 1.46 1.08-.1.13c-.44.6-1.1 1.5-2.15 2.25ZM35.28 42.6c-1.63.93-3.86 1.63-7.01 1.63-6.33 0-9.51-2.75-10.68-4.27l1.44-1.1c.84 1.09 3.5 3.55 9.24 3.55 2.87 0 4.78-.63 6.11-1.4 1.25-.7 2.04-1.56 2.69-2.26l.13-.14 1.33 1.23-.14.16c-.65.7-1.6 1.74-3.11 2.6Z" fill="#A90533"/></svg>