<!-- by TradingView --><svg width="56" height="56" viewBox="0 0 56 56" xmlns="http://www.w3.org/2000/svg"><path fill="#F0F3FA" d="M0 0h56v56H0z"/><path d="m38.1 20.4-.6.56.68 2.27-1.99-1.1-.69.55 2.22 1.25-2.37 1.96-.61-.86.84-.7-.61-.8-.85.71-.68-.94.84-.7-.61-.86-4.3 3.68 4.14 3.36.77-.94c.53 0 .92.47 1.15.94l-.77.94.46.4c1-.95 2.37-1.57 3.75-1.57 2.91 0 5.13 2.42 5.13 5.4 0 .94-.23 2.03-.77 2.9l.77.62c0 .55-.54 1.17-1.07 1.33l-.77-.63a5.16 5.16 0 0 1-8.88-3.76c0-.93.3-1.95.7-2.81l-.54-.4-.77 1.03c-.54-.08-1-.47-1.15-1.02l.77-.86-3.45-2.98v4.7H30c.15.23.23.47.23.7 0 .24-.08.55-.23.79h-1.15v.54c2.53.47 4.67 2.67 4.67 5.33a5.57 5.57 0 0 1-4.67 5.4v.94a1.79 1.79 0 0 1-1.76 0v-.94a5.44 5.44 0 0 1-4.6-5.4c0-2.66 2-4.86 4.6-5.25v-.62h-1.22a1.34 1.34 0 0 1-.23-.79c0-.3.07-.54.23-.78h1.22v-4.7l-3.52 2.98.77.86a1.4 1.4 0 0 1-1.15 1.02l-.77-1.02-.46.47c.46.86.77 1.8.77 2.82a5.2 5.2 0 0 1-5.13 5.32 5.27 5.27 0 0 1-3.75-1.57l-.77.63c-.46-.16-1-.78-1.07-1.33l.77-.63a6.27 6.27 0 0 1-.77-2.9c0-2.97 2.22-5.4 5.13-5.4 1.38 0 2.76.63 3.75 1.57l.46-.31-.77-.94c.16-.47.62-.86 1.15-.94l.77.94 4.13-3.36-4.29-3.68-.6.86.83.7-.6.86-.85-.7-.61.78.69.55-.62.86-2.3-1.96 2.15-1.25-.61-.55-2 1.1.62-2.11-.61-.55-.77 2.42-2.37-1.95.61-.78.84.7.7-.78-.85-.79.61-.78.85.63.6-.78-1.83-1.41c.15-.63.54-1.1 1.15-1.49l9.72 8.14v-5.4h-1v1.02h-.99v-1.02h-1v1.02h-.99V16.1l2.3 1.02v-.86l-2.15-.94 2.15-.86v-.78l-2.3.94v-3.13h1v1.1h1v-1.1h.99v1.1h1v-2.43c.3-.08.6-.16.91-.16.3 0 .61.08.84.16v13.38l9.72-8.14c.54.4.92.86 1.15 1.49l-1.83 1.48.6.79.85-.63.61.78-.84.79.61.78.84-.7.62.78-2.38 1.95-.68-2.5ZM18.29 35.13c0 .86.61 1.41 1.38 1.49l-1.23.94a2.65 2.65 0 0 1-1.6-2.27c0-.31.07-.47.15-.7h-.23c-1.15 0-2.07-1.1-2.3-2.2l1.3-1.01v.39c0 .7.69 1.33 1.38 1.33.76 0 1.45-.63 1.45-1.41 0-.94-.69-1.57-1.6-1.57-1.69 0-3.37 1.72-3.37 3.92 0 .62.15 1.25.38 1.8l.77-.63c.53.23.91.78 1.07 1.4l-.77.63a4.1 4.1 0 0 0 2.6.94c2 0 3.53-1.64 3.53-3.05 0-.86-.54-1.56-1.38-1.56-.92.15-1.53.78-1.53 1.56Zm10.4 3.13c0 .78.62 1.41 1.39 1.41.53 0 .76-.23 1.15-.55v1.65a2.2 2.2 0 0 1-1.23.31c-.84 0-1.53-.24-1.99-1.02-.46.78-1.22 1.02-2.07 1.02-.38 0-.84-.08-1.22-.31V39.1c.38.4.61.55 1.15.55.76 0 1.37-.63 1.37-1.4 0-.79-.45-1.42-1.3-1.42-1.45 0-2.06 1.41-2.06 2.74A3.92 3.92 0 0 0 27 43.42v-.94c.31-.16.62-.16.85-.16.3 0 .6 0 .92.16v.94c1.68-.24 3.13-2.04 3.13-3.84 0-1.33-.53-2.74-2.06-2.74-.62-.07-1.15.63-1.15 1.41Zm8.74-6.5c0 .71.76 1.42 1.45 1.42s1.38-.63 1.38-1.34v-.39l1.22 1.02c-.23 1.25-1.3 2.27-2.52 2.2.07.23.07.46.07.7 0 .94-.76 1.95-1.6 2.27l-1.15-1.02c.76-.08 1.38-.63 1.38-1.49s-.7-1.4-1.46-1.4c-.84 0-1.38.7-1.38 1.56 0 1.02 1.23 3.05 3.6 3.05.92 0 1.84-.31 2.53-.94l-.77-.62c.16-.63.54-1.18 1.07-1.41l.77.62c.3-.55.46-1.17.46-1.8 0-1.72-1.3-3.91-3.37-3.91-.92 0-1.68.55-1.68 1.49Z"/></svg>