<!-- by TradingView --><svg xmlns="http://www.w3.org/2000/svg" width="56" height="56" viewBox="0 0 56 56"><path fill="#F0F3FA" d="M0 0h56v56H0z"/><path d="M39 38.6c-3.77 4-8.19 4.4-12.59 4.4A15.46 15.46 0 0 1 11 27.5a15.46 15.46 0 0 1 18.08-15.27c1.02.18 1.6 1.2 1.38 2.21-.25 1.12-1.41 1.78-2.55 1.64A11.52 11.52 0 0 0 15 27.5C14.99 33.85 20.15 39 26.52 39c5.01 0 9.96-.93 12.18-7.69.04-.1.06-.2.08-.31H34a2 2 0 1 1 0-4h7a2 2 0 0 1 2 2v12a2 2 0 1 1-4 0v-2.4zM40.99 25a2 2 0 0 0 1.99-2 2 2 0 0 0-2-2A2 2 0 0 0 39 23a2 2 0 0 0 1.99 2z" fill="#2A4246"/></svg>