<!-- by TradingView --><svg width="56" height="56" viewBox="0 0 56 56" xmlns="http://www.w3.org/2000/svg"><path fill="#2B94A7" d="M0 0h56v56H0z"/><path d="M21.05 19c-2.1 0-5.05.89-7.47 2.61C11.12 23.37 9 26.13 9 29.92a9.9 9.9 0 0 0 4.17 8.1 15.53 15.53 0 0 0 6.64 2.8l1.12.18.48-1.01a72 72 0 0 1 4.07-7.32c.82.32 1.73.56 2.62.74 1.5.31 3.13.48 4.5.48 4.59 0 7.91-2.29 10.14-5.02a19.9 19.9 0 0 0 3.88-8.08L47 19H21.05Zm7.66 11.5a15 15 0 0 1-1.52-.39 39.62 39.62 0 0 1 4-4.88c1.68-1.71 3.26-2.83 4.63-3.25h7.34A16.89 16.89 0 0 1 40.4 27c-1.83 2.23-4.36 3.91-7.8 3.91a20.4 20.4 0 0 1-3.9-.41Zm-7.66-8.52h9.21c-.42.37-.84.77-1.24 1.18a44.86 44.86 0 0 0-4.94 6.17l-4.54-.9 3.12 3.09a76.81 76.81 0 0 0-3.46 6.13 12.45 12.45 0 0 1-4.2-2A6.94 6.94 0 0 1 12 29.92c0-2.56 1.4-4.51 3.33-5.89 1.97-1.4 4.3-2.05 5.7-2.05Z" fill="#FFFEFF"/></svg>