<!-- by TradingView --><svg width="56" height="56" xmlns="http://www.w3.org/2000/svg"><path fill="#F0F3FA" d="M0 0h56v56H0z"/><path d="M47.389 16.203H8.459v23.35h38.93v-23.35z" fill="#F58800"/><path d="M8 16.004V40h40V16.004H8zm39 22.992H33v-5.235c-.866-.05-2.325-.22-3.293-.369-3.261-.646-3.974-.795-4.382-.944-.408-.149-2.344-.894-2.599-1.043-.255-.149-1.885.547-3.16.894a48.456 48.456 0 01-2.649.646c-.458.05-1.987.447-2.548.348-.56-.1-.458-.547-.305-.696.204-.149.255 0 .255.1s-.102.199 0 .248c.101.05.509.05.662 0 .153-.05 3.618-.447 6.828-1.838 0 0-2.497-1.391-3.72-1.788-1.223-.398-1.12-.249-1.223-.299-.102-.05-2.038-1.093-2.395-1.192-.305-.149 0-.546.459-.348.459.249 1.172.696 1.325.745.153.05.815.348 1.172.448.407.099.662.149 1.987.745 1.325.646.611.397 1.58.795.968.397 1.223.695 1.528.745 0 0 1.07-.546 1.784-.696.713-.149 1.172-.496 1.325-.546.152-.1 1.273-.596 2.293-.795 1.019-.199.458-.248.458-.248s-1.223-.15-1.783-.547c-.56-.397-4.688-4.77-4.841-4.918-.153-.15-.357-.497-.153-.646.204-.15.713.05.764.1.051.049 4.485 1.937 5.453 2.483.968.497 3.668 2.087 3.872 2.137.204.099 1.153.347 1.306.397l.01-4.57c-.153-.348-.255-.696-.357-.994-.306-1.044-.21-1.283-.21-1.482 0-.198.108-.605.465-.307l.102.1L33 17h14v21.996zM31.847 28.524c.204 0 .95.099 1.153.099v-.348a27.3 27.3 0 01-.592-.05c-.153-.05-1.07.249-.56.299zm-2.344-.299c1.427.05 1.936-.347 1.936-.347.204-.1.051-.298-.305-.447-.357-.15-1.478-.845-1.784-.994-.305-.15-2.344-1.292-2.7-1.49-.306-.2-.408-.1-1.121-.448-.714-.397-2.803-1.192-2.803-1.192-.102.15.153.398.306.547.102.149 1.172 1.142 1.885 1.937.764.795 2.14 1.888 2.14 1.888.867.596 2.497.547 2.446.547zm1.07.746c-.611-.15-1.019-.1-1.223-.05-.204.05-1.426.398-1.885.497-.51.1-1.529.596-1.987.894-.459.298-2.14.745-2.14.745.917.547 3.363 1.193 3.923 1.342.56.149 1.325.298 2.446.447.662.1 2.07.298 3.293.348v-4.198c-.815.1-2.07.074-2.427-.025zm5.503 4.62c1.988-.1 3.414-.894 3.414-.894.612-.15.765-.348.867-.348 1.12-.546 2.547-2.385 2.751-2.683.102-.149.102-.646 0-.795-.102-.149-.407-.794-.662-1.093-.255-.298-.51-.347-.713-.447-.204-.1-.51-.198-.867-.298-.306-.1-.306-.149-1.732-.348-1.478-.248-3.118.448-3.118.448-.306.05-.459 0-.459 0-.407-.398-.356-1.938-.356-1.938-.051-1.242-.765-2.733-.765-2.733-.51-1.39-1.181-1.847-1.436-2.046l.01 2.331c.356.895.968 2.1.968 2.1.611 1.143.866 2.484.866 2.484-.51.1-1.742.348-1.844.348v.596c.102.05.56.199.662.249.102.05-.356.099-.662.099v.373c.662 0 .936.024 1.14.024.459.05.713.398.917.497.204.1.663.1.51-.149-.153-.248-.153-.348-.051-.397.153-.05.459-.447.102-.447h-.815s0-.547.05-.646c0 0 2.14-.547 3.058-.596 0 0-.051.546 0 .645.05.1 1.681 3.826 1.63 4.124-.05.298.153.199-.203.348-.357.149-1.274.596-3.975.795-1.07.099-1.599.05-2.363 0v.567c1.936.05 3.076-.17 3.076-.17zm-1.69-8.396s-1.927-2.832-1.673-3.826c0 0 1.876 2.137 1.927 3.727.051.05-.05.298-.255.099zm-.195 3.18c-.05.149-.255 0-.662-.348 0 0 .407-.05.56-.05.153-.05.153.248.102.398zm4.127-.597s0-.347.051-.546c0 0 2.191 0 3.465.845 0 0 1.274.844.765 1.54-.51.695-1.784 1.937-2.038 2.086-.255.15-.306.05-.46-.1-.203-.148-1.375-2.334-1.782-3.825zm1.937 2.286c.153.1.458.149.611-.05.153-.199.204-.695.102-.845-.102-.149-.357-.149-.459-.05-.152.15.102.398-.101.448-.153.05-.204-.15-.153-.348 0 0-.153-.397-.357-.149a.587.587 0 000 .646c.102.149.204.248.357.348z" fill="#00463E"/></svg>