<!-- by TradingView --><svg width="56" height="56" viewBox="0 0 56 56" xmlns="http://www.w3.org/2000/svg"><path fill="#F0F3FA" d="M0 0h56v56H0z"/><path fill-rule="evenodd" d="M6 23.38c.03 1.18.64 3.54 2.82 3.54.3.02 1.05-.05 1.52-.49s.83.14.95.49h.15V24h.83v-.2H9.45v.2h1.07v1.69c-.13.33-.65 1-1.7 1-1.32 0-1.7-1.42-1.7-2.68v-1.6c.1-.74.62-2.21 2.05-2.21 1.79 0 1.96 1.9 1.96 2.13h.31V20h-.31c.02.17 0 .56-.28.56-.11 0-.2-.06-.31-.14-.22-.16-.54-.38-1.37-.38-1.25 0-3.17.85-3.17 3.34Zm6.63-3.02V20H14v6.76h.75V27h-2.12v-.24h.63v-6.4h-.63ZM29.4 20v.36h.6v6.4h-.6V27h2.13v-.24h-.73V20h-1.4Zm-10.12 4.5c0 1.38-.87 2.5-1.96 2.5-1.08 0-1.96-1.12-1.96-2.5s.88-2.5 1.96-2.5c1.09 0 1.96 1.12 1.96 2.5Zm-.8 0c0 1.23-.51 2.23-1.16 2.23-.64 0-1.16-1-1.16-2.23s.52-2.23 1.16-2.23c.65 0 1.17 1 1.17 2.23Zm1.13-4.14V20H21v3.17c.31-.7.87-1.17 1.5-1.17.98 0 1.77 1.12 1.77 2.5S23.48 27 22.5 27c-.63 0-1.19-.47-1.5-1.17v.93h.74V27H19.6v-.24h.63v-6.4h-.63Zm3.84 4.14c0 1.23-.54 2.23-1.21 2.23-.67 0-1.21-1-1.21-2.23s.54-2.23 1.2-2.23c.68 0 1.22 1 1.22 2.23ZM21.4 37v-.36h-.64v-6.4h.64V30h-2.13v.24H20v.92c-.31-.7-.87-1.16-1.5-1.16-.98 0-1.77 1.12-1.77 2.5s.8 2.5 1.77 2.5c.63 0 1.19-.46 1.5-1.16v2.8h-1V37h2.4Zm-2.63-6.73c-.67 0-1.21 1-1.21 2.23s.54 2.23 1.2 2.23c.67 0 1.22-1 1.22-2.23s-.55-2.23-1.21-2.23Zm6.51-6.44a.55.55 0 0 1-.42-.56c0-.49.47-1.27 1.57-1.27s1.57.93 1.57 1.63v2.35c.02.26.2.76.7.76v.23c-.4 0-1.23-.15-1.33-.82v-.02c-.46.73-.94.87-1.24.87-.32 0-1.42-.09-1.42-1.28 0-1.14 1.44-1.44 2.4-1.63l.26-.06v-.6c.01-.39-.18-1.17-1-1.17-.81 0-.97.42-.94.63a.6.6 0 0 1 .36.54c0 .32-.34.4-.5.4Zm2.09.46c-1.51.28-1.92.95-1.94 1.32-.02.37.1 1.11.8 1.11.57 0 .96-.67 1.14-1.16V24.3Zm6.83.16v2.35h.2c-.03-.15 0-.43.32-.43.18 0 .45.13.75.27.35.17.75.36 1.07.36.59 0 1.96-.33 1.96-2.1 0-1.5-1.36-1.97-2.45-2.35l-.58-.21c-1.12-.46-1.13-2.06.48-2.06 1.29 0 1.74 1.26 1.81 1.9h.16l-.1-2.18h-.2c0 .62-.24.5-.64.3-.27-.13-.6-.3-.98-.3-.94 0-1.8.67-1.8 1.86 0 1.2 1.18 1.65 1.27 1.68l1.98.91c.74.36 1.14 2.35-.91 2.35-1.64 0-2.11-1.57-2.15-2.35h-.19Zm8.7-.62a.55.55 0 0 1-.41-.56c0-.49.46-1.27 1.57-1.27 1.1 0 1.56.93 1.56 1.63v2.35c.03.26.2.76.71.76V27c-.4 0-1.24-.18-1.33-.85v-.03c-.47.74-.95.88-1.25.88-.32 0-1.42-.09-1.42-1.28 0-1.14 1.45-1.44 2.4-1.63l.27-.06v-.6c0-.39-.18-1.17-1-1.17-.82 0-.97.42-.95.63a.6.6 0 0 1 .36.54c0 .32-.33.4-.5.4Zm2.1.45c-1.52.29-1.93.96-1.95 1.33-.02.37.11 1.11.8 1.11.58 0 .97-.68 1.15-1.17v-1.27ZM48 27h-1.4v-.23h.7v-4.54h-.72V22H48v1.12c.18-.43.6-1.12 1.1-1.12.7 0 .9.68.9 1 0 .32-.14.4-.41.4a.42.42 0 0 1-.44-.41c0-.16.1-.4.14-.49-.2-.22-.72-.27-1.29 1.17v3.1h.8V27H48Zm-7.53-5v4.23c.01.17.11.5.45.5.41 0 .8-.4.88-1.47h.17c.03.58-.14 1.74-1.1 1.74-.95 0-1.19-1.18-1.19-1.77L39.7 22h-.89v-.21h.89v-1.31l.78-.48v1.79h.97V22h-.97ZM6.08 35h1.95v-.24h-.84l.54-2.13h1.82l.86 2.13h-.93V35h2.75v-.24h-.89L8.81 28l-1.93 6.76h-.8V35Zm3.38-2.6-1.02-2.53-.65 2.53h1.67Zm19.6 2.46v-1.68h.13c.02.56.33 1.68 1.38 1.68 1.31 0 1.06-1.43.58-1.68l-1.27-.65a1.3 1.3 0 0 1-.81-1.2c0-.85.55-1.33 1.15-1.33.24 0 .46.12.63.21.26.14.41.23.41-.21h.13l.07 1.55h-.1c-.05-.45-.34-1.35-1.17-1.35-1.03 0-1.03 1.14-.3 1.47l.36.15c.7.27 1.57.61 1.57 1.68 0 1.27-.87 1.5-1.25 1.5-.21 0-.46-.14-.7-.26-.18-.1-.35-.2-.47-.2-.2 0-.23.21-.2.32h-.13Zm15.86-2.36c0 1.38-.88 2.5-1.96 2.5-1.09 0-1.96-1.12-1.96-2.5s.87-2.5 1.96-2.5c1.08 0 1.96 1.12 1.96 2.5Zm-.8 0c0 1.23-.52 2.23-1.16 2.23-.65 0-1.17-1-1.17-2.23s.52-2.23 1.17-2.23c.64 0 1.16 1 1.16 2.23Zm-31.84.13c.01-.88.43-2.63 1.97-2.63 1.03 0 1.36.81 1.39 1.22 0 .18-.06.52-.35.52-.37 0-.46-.26-.46-.45 0-.16.12-.48.17-.62 0-.16-.18-.47-.8-.47-.76 0-1.08.93-1.08 2.43s.44 2.01 1.19 2.01c.74 0 1.13-.65 1.28-1.58h.22c-.08.65-.5 1.94-1.5 1.94-1.26 0-2.03-1.1-2.03-2.37Zm9.3-2.35V30H23v3.85c0 .27.15.8.63.8.44 0 1.05-.62 1.37-1.02v-3.4h-.91V30h1.64v4.75h.62V35H25v-.85c-.28.34-.85.85-1.47.85-.87 0-1.3-.59-1.3-1.28v-3.44h-.66Zm4.68-.04V30h1.58v4.75h.6V35H27v-4.76h-.74ZM28 28.5a.5.5 0 1 1-1 0 .5.5 0 0 1 1 0Zm8.76 5.6V30h.96v-.23h-.96V28l-.76.56v1.21h-.91V30H36v3.37c0 .7.2 1.63 1.16 1.63s1.13-1.32 1.1-2h-.17c-.09 1.25-.47 1.69-.89 1.69-.33 0-.43-.4-.44-.59Zm12.65.9v-.28h-.65v-3.44c0-.7-.44-1.28-1.3-1.28-.61 0-1.17.5-1.46.83V30h-1.37v.25h.62V35h1.65v-.24H46v-3.4c.33-.4.92-1 1.35-1 .49 0 .64.52.65.79V35h1.41Zm-17.15-5v.24H33V35h1.44v-.25h-.6V30h-1.58Zm1.24-1a.5.5 0 1 0 0-1 .5.5 0 0 0 0 1Zm4.76 1v.24H39V35h1.44v-.25h-.6V30h-1.58Zm1.24-1a.5.5 0 1 0 0-1 .5.5 0 0 0 0 1Z"/></svg>