<!-- by TradingView --><svg width="56" height="56" viewBox="0 0 56 56" xmlns="http://www.w3.org/2000/svg"><path fill="#F0F3FA" d="M0 0h56v56H0z"/><path d="M18.53 35H8.4a.38.38 0 0 1-.34-.57L20 14.2a.39.39 0 0 1 .66 0l5.15 8.42c.26.43.27.97.01 1.4l-6.05 10.3c-.26.43-.72.69-1.23.69ZM42.53 26.28c.21-.37.73-.37.94 0l4.46 7.89c.2.37-.05.83-.47.83h-8.92c-.42 0-.67-.46-.47-.83l4.46-7.9ZM23.23 36.36l4.93 8.39c.2.34.69.33.89 0l11.74-20.37c.28-.48.28-1.07 0-1.55l-5.08-8.64a.39.39 0 0 0-.67 0L23.22 34.68c-.3.52-.3 1.16.01 1.68Z" fill="#003AB5"/></svg>