<!-- by TradingView --><svg width="56" height="56" viewBox="0 0 56 56" xmlns="http://www.w3.org/2000/svg"><path fill="#F0F3FA" d="M0 0h56v56H0z"/><path d="m28.02 41.8-.1-.06-11.66-6.79-.1-.03V21.12l.1-.07 11.66-6.79.06-.06.1.06 11.66 6.79.1.06V34.9l-.1.06-11.66 6.79-.06.06Z" fill="#00AEEF"/><path d="m27.98 14.4 11.7 6.81v13.61l-11.66 6.79-11.66-6.79v-13.6l11.62-6.83Zm.04-.4-.17.1-11.69 6.82-.16.1V35.02l.16.1 11.66 6.78.16.1.17-.1 11.69-6.82.16-.1V20.98l-.16-.1-11.7-6.78-.12-.1Z" fill="#231F20"/><path d="M27.98 13 41 20.48V35.5l-12.98 7.53L15 35.54V20.52l12.98-7.53Zm0-2-.87.5-13.24 7.53-.87.48v16.98l.87.5 13.28 7.5.87.51.87-.5 13.24-7.53.87-.5v-.96l-.03-15.02v-.98l-.87-.48-13.25-7.52-.87-.51Z" fill="#231F20"/></svg>