<!-- by TradingView --><svg width="56" height="56" viewBox="0 0 56 56" xmlns="http://www.w3.org/2000/svg"><path fill="#F0F3FA" d="M0 0h56v56H0z"/><path d="M16.18 17.23c1.5-1.4 6-4.23 12-4.23C35.68 13 45 18.19 45 30.34c-.22 1.95-1.1 6.6-2.95 9.6h-8.63c.3-.9.87-3.64.13-4.23-.88-.68-3.06-.17-4.05.18l-2.27 2.84a823.4 823.4 0 0 1-11.05-21.5Z" fill="#F57D03"/><path d="M27.64 40h-13.6c-6.39-9.86-1.23-19.42 2.12-22.79 9.38.63 13.96 9.3 13.96 14.41 0 4.1-1.65 7.3-2.48 8.38Z" fill="#01547E"/><path d="M16.54 16.9a.91.91 0 0 0-.6 1.13c.14.48.64.76 1.1.61L25.84 16a.91.91 0 0 0 .6-1.13.89.89 0 0 0-1.11-.6l-8.78 2.64Zm-.3 3.1c-.56.2-.84.75-.61 1.2.22.47.86.67 1.42.46l10.7-3.5c.55-.2.83-.74.6-1.2-.22-.46-.86-.66-1.42-.45L16.23 20Zm.72 3.95c-.23-.46.04-1 .6-1.22l10.4-3.98c.56-.21 1.2-.01 1.43.44.23.46-.04 1-.6 1.22l-10.4 3.97c-.56.22-1.2.02-1.43-.43Zm1.93.84c-.5.2-.73.69-.53 1.1.2.42.77.6 1.26.4l9.14-3.62c.5-.2.73-.69.53-1.1-.2-.42-.77-.6-1.26-.4l-9.14 3.62Zm2.07 2.37c-.15-.3 0-.66.35-.81l6.5-2.88c.35-.15.76-.04.92.26.15.29 0 .65-.35.8l-6.5 2.88c-.35.15-.76.04-.92-.25Zm2.96 4.19c-.34.18-.47.55-.29.83.18.28.6.36.94.18l6.24-3.4c.34-.18.47-.56.29-.84-.18-.28-.6-.35-.94-.17l-6.24 3.4Zm-.08 2.26c-.2-.31-.06-.73.3-.94l6.88-3.78c.37-.2.83-.11 1.03.2.2.31.06.73-.31.94l-6.87 3.78c-.37.2-.84.11-1.03-.2Zm.84.52c-.37.2-.5.62-.3.93.19.31.65.4 1.02.2l6.87-3.78c.37-.2.51-.62.32-.94-.2-.3-.66-.4-1.03-.2l-6.88 3.79Zm1 1.65c-.17-.24-.05-.57.26-.73l5.75-2.98c.31-.17.7-.1.86.14.16.24.04.57-.27.73l-5.75 2.99c-.31.16-.7.1-.86-.15Zm1.1.32c-.23.11-.31.34-.2.5.12.17.39.21.6.1l4.07-2.06c.22-.1.3-.33.19-.5-.12-.16-.39-.2-.6-.1l-4.07 2.06Zm-2.4-8.46c.02-.26.17-.53.35-.6l3.24-1.23c.17-.07.3.09.28.35-.03.25-.18.52-.36.59l-3.24 1.23c-.17.07-.3-.09-.28-.34Zm1.65 1.1c-.12.05-.23.28-.25.5-.01.23.08.36.2.3l2.25-1.06c.12-.06.23-.29.25-.5.01-.23-.07-.36-.2-.3l-2.25 1.06Z" fill="#F0F3FA"/></svg>