<!-- by TradingView --><svg width="56" height="56" viewBox="0 0 56 56" xmlns="http://www.w3.org/2000/svg"><path fill="#F0F3FA" d="M0 0h56v56H0z"/><path d="M32.13 14.6c0 1.3-1.38 1.4-2.06 1.4h-8.81C17.69 16 17 18.36 17 19.43v15c0 3.43 2 5.57 5.5 5.57h13.95c4.13 0 4.55-4.14 4.55-5.57V27h-3.2s-.8-.4-.8-1.46c0-1 .53-1.61.53-1.61h6.44c.82 0 1.03.71 1.03 1.07v10.5c0 5.14-4.27 7.5-8.53 7.5H22.5C15.13 43 13 37.64 13 34.43v-15c0-5.14 5.5-6.43 8.26-6.43h8.8c.7 0 2.07.32 2.07 1.6Z"/><circle cx="29" cy="28" r="6" fill="#50914E"/></svg>