<!-- by TradingView --><svg width="56" height="56" viewBox="0 0 56 56" xmlns="http://www.w3.org/2000/svg"><path fill="#F0F3FA" d="M0 0h56v56H0z"/><path d="M36 23.5 28 28l8 4.5 8-4.5-8-4.5Z" fill="url(#azm5bjgk0)"/><path d="M28 37v9l16-9v-9l-16 9Z" fill="url(#bzm5bjgk0)"/><path d="m44 28-8 4.5 8 4.5v-9Z" fill="url(#czm5bjgk0)"/><path d="m28 37-8-4.5v-9L12 19v18l16 9v-9Z" fill="#B40028"/><path d="m28 10-16 9 8 4.5 8-4.5 8 4.5 8-4.5-16-9Z" fill="url(#dzm5bjgk0)"/><defs><linearGradient id="azm5bjgk0" x1="28" y1="28" x2="44" y2="28" gradientUnits="userSpaceOnUse"><stop stop-color="#2B619E"/><stop offset="1" stop-color="#00234B"/></linearGradient><linearGradient id="bzm5bjgk0" x1="28" y1="37" x2="37.52" y2="37" gradientUnits="userSpaceOnUse"><stop stop-color="#0AA5E1"/><stop offset="1" stop-color="#3175BA"/></linearGradient><linearGradient id="czm5bjgk0" x1="36" y1="32.5" x2="52.6" y2="32.5" gradientUnits="userSpaceOnUse"><stop offset="0" stop-color="#3273BE"/><stop offset="1" stop-color="#00234B"/></linearGradient><linearGradient id="dzm5bjgk0" x1="43.65" y1="16.75" x2="12.8" y2="16.75" gradientUnits="userSpaceOnUse"><stop stop-color="#3273BE"/><stop offset="1" stop-color="#0AA5E1"/></linearGradient></defs></svg>