<!-- by TradingView --><svg width="56" height="56" viewBox="0 0 56 56" xmlns="http://www.w3.org/2000/svg"><path fill="#F0F3FA" d="M0 0h56v56H0z"/><path d="m28.03 36.5-4.55 2.78-1.24-1.81L10 17.91a7.87 7.87 0 0 1 6.68-3.67l11.9 18.88-.55 3.37Z" fill="url(#a2sc5xbbe)"/><path d="m27.97 19.5 4.55-2.78 1.23 1.8L46 38.09a7.87 7.87 0 0 1-6.68 3.67l-11.9-18.88.55-3.37Z" fill="url(#b2sc5xbbe)"/><path d="M46 17.85c-1.85-2.6-5.06-3.61-6.44-3.8l-14.2 22.56c-.92 1.61-2.49 1.23-3.16.83 1.52 2.49 3.34 4.56 5.9 4.56 2.03 0 3.67-1.54 4.24-2.3L46 17.84Z" fill="url(#c2sc5xbbe)"/><path d="M10 38.15c1.85 2.6 5.06 3.61 6.44 3.8l14.2-22.56c.92-1.61 2.49-1.23 3.16-.83-1.52-2.49-3.34-4.56-5.9-4.56-2.03 0-3.67 1.54-4.24 2.3L10 38.16Z" fill="url(#d2sc5xbbe)"/><defs><linearGradient id="a2sc5xbbe" x1="12.55" y1="15.36" x2="25.6" y2="36.79" gradientUnits="userSpaceOnUse"><stop stop-color="#59B6D5"/><stop offset=".4" stop-color="#65B6D4"/><stop offset=".88" stop-color="#8CC389"/><stop offset="1" stop-color="#85AD92"/></linearGradient><linearGradient id="b2sc5xbbe" x1="43.45" y1="40.64" x2="30.4" y2="19.21" gradientUnits="userSpaceOnUse"><stop stop-color="#BC93BF"/><stop offset=".4" stop-color="#AA9CBD"/><stop offset=".88" stop-color="#89A4BF"/><stop offset="1" stop-color="#8596AA"/></linearGradient><linearGradient id="c2sc5xbbe" x1="43.39" y1="15.54" x2="25.48" y2="41.13" gradientUnits="userSpaceOnUse"><stop stop-color="#A3D157"/><stop offset=".61" stop-color="#93CD9A"/><stop offset="1" stop-color="#78CFE2"/></linearGradient><linearGradient id="d2sc5xbbe" x1="12.61" y1="40.46" x2="30.52" y2="14.87" gradientUnits="userSpaceOnUse"><stop stop-color="#4EBECC"/><stop offset=".61" stop-color="#9CA9C9"/><stop offset="1" stop-color="#BC97C0"/></linearGradient></defs></svg>