<!-- by TradingView --><svg width="56" height="56" xmlns="http://www.w3.org/2000/svg"><path fill="#06AFEA" d="M0 0h56v56H0z"/><path d="M4.01 28.88c0 1.72 1.004 2.124 2.703 2.124h2.258c2.12 0 3.029-.078 3.029-1.768v-1.674l-4-.06V29h2c0 .566-.374.593-.86.593H7.135c-.947 0-1.136-.215-1.136-1.222v-.729c0-1.008.19-1.227 1.136-1.227h2.04c.598 0 .826.182.826.581h2v-.186c0-1.147-.334-1.806-2.463-1.806H6.705c-1.691 0-2.703.403-2.703 2.124v1.752h.008zM13.01 31.004H19V29.56h-4v-.959h3.68v-1.244H15v-.96h4v-1.394h-5.99v6zM21 31h1.996v-4.008h.016L26.202 31h2.79L29 25h-1.995v3.997h-.016L23.791 25H21v6zM30.01 27.003l1.994.019V31H34v-3.997h2V25h-5.99v2.003zM37 31.002h6v-1.444h-4v-.96h3.68v-1.244H39v-.96h4v-1.396h-6v6.004zM44.004 31h2.214l1.78-2.18 1.78 2.18H52l-2.642-3.004L51.815 25h-2.136l-1.68 2.1-1.674-2.1H44.19l2.456 2.996L44.005 31z" fill="#F6F8FD"/></svg>