<!-- by TradingView --><svg xmlns="http://www.w3.org/2000/svg" width="56" height="56" viewBox="0 0 56 56"><path fill="#B61F36" d="M0 0h56v56H0z"/><path d="M11.73 19.28c.65 0 .71.5.76 1.3H14c0-1.52-.59-2.58-2.3-2.58C9.55 18 9 19.79 9 21.61c0 2 .7 3.39 2.5 3.39.52 0 1.17-.21 1.56-.65l.34.65h.6v-3.54h-2.26v1.16h.88c0 .43-.3 1.1-.9 1.1-.81 0-.72-1.1-.72-2.26 0-1.07 0-2.18.73-2.18Zm5.1 1.72h-.35v-1.72h.3c.58 0 1.13.05 1.13.77 0 .55-.43.95-1.09.95Zm1.67.63a1.83 1.83 0 0 0 1.16-1.68c0-1.35-1.01-1.95-2.32-1.95h-2.6v7h1.74v-3h.59l.86 3h1.73l-1.16-3.37Zm4-2.35c.8 0 .8.94.8 2.3 0 1.35 0 2.15-.8 2.15s-.8-.8-.8-2.16c0-1.35 0-2.3.8-2.3Zm0 5.72c2.02 0 2.7-1.67 2.7-3.43 0-1.75-.64-3.57-2.7-3.57s-2.69 1.82-2.69 3.57c0 1.64.83 3.43 2.69 3.43Zm5.63 0c1.51 0 2.42-1 2.42-2.5l-1.52-.14c-.04.85-.19 1.38-.83 1.38-.81 0-.88-.75-.88-2.16 0-1.27.1-2.3.84-2.3.64 0 .75.8.75 1.26h1.64c0-1.42-.75-2.54-2.42-2.54-2.13 0-2.7 1.92-2.7 3.57 0 1.79.58 3.43 2.7 3.43Zm7.3-1.39h-2.68v-1.42h1.82v-1.33h-1.82v-1.53h2.68V18H31v7h4.43v-1.39Zm2.6-2.61h-.35v-1.73h.3c.58 0 1.13.06 1.13.78 0 .55-.43.95-1.09.95Zm2.83 4-1.16-3.37a1.83 1.83 0 0 0 1.16-1.68c0-1.35-1.01-1.95-2.32-1.95H36v7h1.68v-3h.58l.87 3h1.73Zm3.59-7-1.03 2.84-.99-2.84h-1.82l1.8 4.34V25h1.75v-2.76L46 18h-1.55ZM15.95 27.39c.24-.45.58-.72 1.17-.72.64 0 .94.3 1.16.73.29.52.4 1.25.4 2.02 0 .7-.1 1.63-.4 2.2-.23.42-.55.7-1.14.7-.58 0-.93-.22-1.2-.72a5.17 5.17 0 0 1-.38-2.18c0-.71.1-1.47.39-2.03ZM17.14 33c2.02 0 2.38-2.1 2.38-3.58 0-1.5-.37-3.42-2.38-3.42-2.07 0-2.43 2.01-2.43 3.42 0 1.34.33 3.58 2.43 3.58Zm5.05 0c2.09 0 2.09-1.5 2.09-2.5V26h-.78v4.54c0 .88 0 1.77-1.28 1.77-1.23 0-1.22-.84-1.22-1.73V26h-.82v4.58c0 1 .04 2.42 2.01 2.42Zm4 0H27v-6.32h1.51V26h-3.84v.68h1.5V33Zm6.12-.67h-2.49V26H29v7h3.31v-.67Zm1.21-2.65h2.04V29h-2.04v-2.33h2.65V26H32.7v7h3.55v-.67h-2.73v-2.65Zm2.98-3H38V33h.84v-6.32h1.51V26H36.5v.68Z" fill="#fff"/><path d="M15.15 37.14c-.31.03-.72.38-.69.74.19.14.45.04.67-.04l.2-.07v-.13c-.02-.2-.03-.48-.18-.5Zm.97.37.05-.02c.23-.11.34.14.34.24.06.35-.3.44-.61.53l-.16.04-.2.07c-.4.13-.94.32-1.3.08-.29-.16-.44-.8-.25-1.1.18-.27.67-.73 1.07-.76.17-.01.35.03.47.28.13-.07.16-.6.14-.72-.15-.23-.52-.06-.68 0l-.02.02c-.02 0-.07.05-.14.1-.12.1-.3.23-.45.27-.09.02-.16 0-.2-.1-.22-.58.56-.92 1.05-.98h.2c1.05 0 .67 1.5.5 2.1.06.02.13-.01.2-.05Zm2.83-1.45c.02.13 0 .28-.13.29l-.17.02-.03.01c-.64.15-1.02.65-1.14 1.17-.04.15-.03.35-.03.55 0 .24 0 .47-.05.63-.07.1-.25.04-.35-.02a.42.42 0 0 1-.2-.29 8.08 8.08 0 0 1-.08-2.18c.01-.11.07-.22.16-.24.1-.01.16-.01.27.1.11.12.09.3.06.47l-.02.21c.02-.09.48-.63.65-.75.18-.12.4-.2.47-.21.2-.03.48.05.59.24Zm18.99-.08c.2-.15.36-.21.43-.23.11-.04.26-.01.33.09.22.4-.07.47-.27.5-.25.15-.54.4-.69.66-.18.3-.19.6-.2.91 0 .22-.01.43-.07.64a.55.55 0 0 1-.4-.01c-.15-.1-.17-.6-.19-.92v-.18l-.02-.22c-.03-.41-.06-.78 0-1.19.02-.1.13-.2.17-.2.35-.05.33.5.32.75v.01c.03-.1.49-.54.59-.61Zm-24.97 1.1c.22-.18.35-.47-.05-.62-.46-.2-.9-.16-1.48-.06-.01.47-.03.97.02 1.44l.2-.08a3.8 3.8 0 0 0 1.31-.67Zm-1.37-3.4-.02.18-.01.1-.05.44v.23c-.03.38-.04.73-.04 1.12a3.3 3.3 0 0 1 1.62.13c.37.19.63.42.66.76 0 .28 0 .41-.16.69-.1.15-.24.28-.38.37a5.95 5.95 0 0 1-1.63.8c.03.15 0 .26-.15.36-.22.08-.34-.02-.42-.13l-.1.03-.15.05c-.2.05-.32.04-.4 0-.08-.04-.2-.35-.15-.52.06-.14.36-.19.57-.22l.1-.02c-.06-.56-.06-.93-.05-1.53l-.19.07c-.14.04-.32.1-.48.18l-.13.07c-.13.08-.28.17-.41.18-.2.02-.32-.16-.32-.17l-.02-.03c-.03-.06-.07-.15-.03-.27.24-.42 1.21-.63 1.63-.7a43.79 43.79 0 0 1 .03-1.44c.01-.28.03-.6.06-.89l.06-.35c.02-.1.09-.25.24-.25.1 0 .26.05.3.14.09.19.06.36.03.5l-.01.12Zm31.06 3.35c.1-.14.03-.18-.01-.2-.38-.1-1.12.27-.98.75.3 0 .77-.2 1-.55Zm.13 1.02c.21-.08.42-.2.62-.34.08-.05.15-.01.2.02l.02.01c.14.14.1.28 0 .44-.08.1-.2.16-.32.22l-.03.01c-.2.1-.43.13-.66.15h-.06c-.3.01-.67.03-.95-.15l-.04-.02c-.07-.05-.16-.1-.25-.22-.5.12-.99-.06-1.3-.4a1.08 1.08 0 0 0-.22.2 1.2 1.2 0 0 0-.27.56c-.18.03-.34-.03-.39-.1a7.78 7.78 0 0 1-.18-2.14v-.19c0-.52.02-1.22.22-1.7.04-.1.17-.12.25-.07.24.13.17.59.1.95l-.04.3c-.04.59-.04 1.24.04 1.82a.65.65 0 0 1 .15-.15c0-.14.05-.2.09-.25.05-.05.1-.06.17-.07h.04c.1-.07.2-.2.3-.32.03-.05.06-.1.1-.13l.01-.02.28-.27c.18-.18.34-.08.39-.03.24.24-.27.74-.56 1.02l-.13.12c.21.28.47.39.77.34-.03-.3.02-.58.28-.87a1 1 0 0 1 .38-.28h.01c.35-.18.86-.28 1.21-.07.32.21.22.57.16.7-.18.46-.61.8-1.1.9.21.13.53.07.71.03Zm2.7-2.13c.06 0 .1 0 .19.03.07.05.12.14.13.23.01.1-.03.22-.14.28-.05.04-.13.03-.2.03h-.21c-.28 0-.52 0-.73.08-.06.38 0 .94.07 1.32a2.38 2.38 0 0 1 .02.71c-.01.07-.03.16-.16.2-.15.03-.32-.16-.34-.34a4.76 4.76 0 0 1-.18-1.38v-.44c-.04-.03-.1-.03-.16-.02-.08 0-.17 0-.22-.08-.06-.22-.07-.47.25-.5.16-.01.16-.05.17-.25v-.15c.03-.34.07-.64.22-.95.07-.06.18-.07.25-.07.16 0 .23.17.17.4 0 .14-.03.34-.06.54l-.06.41a18.96 18.96 0 0 0 .99-.05Zm-11.75-.02v.02c.06.3.04.63.02.95-.02.34-.05.67.02 1l.03.13c.04.18.1.43-.03.53-.5.23-.55-.9-.55-1.14v-.25a7.37 7.37 0 0 1 .01-.57c.02-.14.03-.28 0-.37-.02-.06-.13 0-.16.03-.32.22-.5.75-.63 1.1l-.04.11c-.12.32-.19.58-.26.9-.1.06-.18.03-.25 0-.16-.1-.23-.27-.24-.46-.03-.3-.01-.7.05-1.08.05-.38.06-.72-.12-.82-.31.1-.55.74-.59.91a5.5 5.5 0 0 0-.14 1.72c-.3.24-.53-.23-.54-.44a38.76 38.76 0 0 0-.15-2.11c-.06-.33-.12-.65-.12-.97 0-.12.06-.16.09-.16a.49.49 0 0 1 .34.04c.08.04.1.15.1.2.06.3.1.56.13.88.08-.16.21-.33.28-.4.12-.13.36-.26.53-.24.54.05.64.72.7 1.13.14-.24.46-.79.81-1.02.26-.16.56-.17.7.29l.01.09Zm-8.69-.92.03.03s.09.08.08.2c0 .15-.03.22-.14.28-.19.08-.34-.07-.47-.23a.5.5 0 0 1-.07-.24c0-.12.05-.18.13-.23.18-.03.31.09.44.2Zm9.52 2.49c.18.4.71.32 1.09.24l.21-.06c-.05-.44-.5-.72-.92-.66-.21.03-.46.24-.38.48Zm1.87-.02H36.51c.02.01.04.02.07.06.12.16.09.3.03.49-.22.28-1.2.36-1.53.3h-.04c-.27-.05-.54-.1-.8-.36-.68-.9.22-1.56.94-1.5.3.02.62.22.7.39a.64.64 0 0 0 .02-.19c-.02-.2-.12-.4-.28-.44a1.07 1.07 0 0 0-.69.02c-.1.04-.19.07-.34-.02-.09-.05-.18-.34.08-.49.11-.06.24-.09.41-.11.21-.03.47-.03.67.05.54.21.72 1.1.58 1.76 0 .07.06.05.11.04Zm-14.68.7c.07.05.13.06.4.02.28-.04.8-.2.9-.3-.18-.2-.49-.25-.78-.18-.11.03-.32.12-.42.21-.06.06-.11.17-.1.24Zm2.06-.49.06-.02c.1-.03.21.08.25.14.03.07.04.2-.01.39-.03.09-.16.16-.38.2a4.8 4.8 0 0 0-.87.24c-.24.09-.46.16-.68.18-.4.06-.95-.1-1.02-.57-.12-.9 1.3-1.35 1.94-.88.11-.24.14-.63 0-.85-.04-.05-.07-.1-.13-.12-.35-.05-.91.2-1.17.51-.06.08-.2.24-.4.13-.1-.14-.15-.23.06-.59a1.9 1.9 0 0 1 1.53-.66c.63.28.82 1.23.57 1.97l.25-.07Zm.9-1.56h.02c.09 0 .18 0 .23.03.1.08.15.2.12.3-.15.5-.1.97-.06 1.45.03.24.05.49.05.74 0 .24-.2.35-.36.2a1.5 1.5 0 0 1-.2-.45 4.67 4.67 0 0 1 .02-2.1c.04-.16.13-.17.19-.17Zm1.74 1.11c.28-.41.57-.84 1.1-.98.67-.2.7.75.73 1.4 0 .21 0 .39.03.5.07.23.1.37.02.56a.25.25 0 0 1-.21.1c-.2-.04-.25-.15-.3-.3-.04-.13-.06-.3-.07-.47v-.38c.01-.28.03-.56-.04-.83-.38.01-.68.46-.88.76l-.04.06c-.15.21-.3.5-.44.78l-.11.23-.06.02c-.13.05-.26.1-.36-.12-.14-.22-.2-.6-.24-.92l-.03-.23c-.05-.2-.04-.4-.04-.62v-.39c-.02-.15.05-.22.14-.21.34.01.38.4.41.7l.02.11c.01.14.02.56 0 .72.14-.14.25-.32.37-.49Zm-6.96.67c.22-.2.4-.36.56-.63.03-.06.09-.19.07-.26-.32-.17-.75.23-.95.42-.08.08-.58.63-.36.78.12.07.5-.15.68-.31Zm.59-1.54c.17-.18.63-.17.59.14 0 .2.12.83.18 1.18l.04.21c.17 1.07.28 2.21-.57 2.93-.2.18-.67.26-.92.15-.45-.18-.77-.69-.46-1.03.08-.06.26-.04.29.05l.03.07c.1.22.2.43.47.37.29-.1.42-.29.56-.53.24-.44.24-.97.18-1.44-.01-.12-.04-.42-.08-.57l-.14.17-.03.03c-.41.4-1.53 1.17-1.93.35a2.6 2.6 0 0 1-.08-.3c-.05-.7.79-1.48 1.34-1.7.21-.08.3-.08.44-.08h.09Z" fill="#F1AF1D"/></svg>