<!-- by TradingView --><svg width="56" height="56" viewBox="0 0 56 56" xmlns="http://www.w3.org/2000/svg"><path fill="#F0F3FA" d="M0 0h56v56H0z"/><path d="M9 27.2c0 8.26 10.89 11.57 16.33 12.18 0 .64-.84 1.35-1.26 1.62h9.4c.7-.72 2.06-2.52 2.06-3.98 0-1.82-1.07-3.36-1.51-4.17a4.93 4.93 0 0 1-.28-2.38l-4.22 2.25 3.08-3.78L29.67 27h4.55l2.37-3h-7.81c-3.68 3.36-3.48 5.26-3.48 6.22 0 .97.03 1.6.76 3.64a6.7 6.7 0 0 1 .26 3.7A12.95 12.95 0 0 1 14.65 26l5.4-10.02c-9.18 2.6-11.19 8.56-11.04 11.22Z" fill="url(#aul4xayqg)"/><path d="M13.36 23.72c0 5.7 3.85 9.6 5.78 10.82-1.1-1.17-3.28-4.28-3.28-7.35C15.86 22.1 20 17 27.28 17c5.83 0 9.13 3.35 10.05 5h6.8c-3.63-4.77-10.46-7-16.51-7-6.05 0-14.26 1.59-14.26 8.72Z" fill="url(#bul4xayqg)"/><path d="M43.3 24H37v3h4.55L37 29.05v3.35l-2.43-1.92a9.06 9.06 0 0 0 1.75 3.2c.66.72 1.98 2.5 1.98 3.78a3.7 3.7 0 0 1-.93 2.54h8.28c.12-.5.35-1.87.35-2.63 0-4.47-4.02-6.47-4.02-9.14 0-2.14.88-3.83 1.32-4.23Z" fill="url(#cul4xayqg)"/><defs><linearGradient id="aul4xayqg" x1="9.51" y1="25.53" x2="35.12" y2="26.36" gradientUnits="userSpaceOnUse"><stop stop-color="#EEBD01"/><stop offset="1" stop-color="#BD8D26"/></linearGradient><linearGradient id="bul4xayqg" x1="14.85" y1="21.69" x2="40.24" y2="23.91" gradientUnits="userSpaceOnUse"><stop stop-color="#BA8222"/><stop offset="1" stop-color="#F3BB04"/></linearGradient><linearGradient id="cul4xayqg" x1="40.28" y1="24.35" x2="40.28" y2="39.83" gradientUnits="userSpaceOnUse"><stop stop-color="#D2291E"/><stop offset="1" stop-color="#9D211F"/></linearGradient></defs></svg>