<!-- by TradingView --><svg width="56" height="56" xmlns="http://www.w3.org/2000/svg"><path fill="#40B4E5" d="M0 0h56v56H0z"/><mask id="a" maskUnits="userSpaceOnUse" x="24" y="15" width="24" height="10"><path d="M48 25V15H24v10h24z" fill="#fff"/></mask><g mask="url(#a)"><path d="M46.118 18.726h-1.554l1.396 1.295h-2.596c-.648-2.081-3.024-2.96-4.517-2.6-.502-1.223-2.01-1.656-3.092-1.298-.64-.805-2.028-1.396-3.266-1.396-1.785 0-3.436 1.036-4.152 2.617-2.01.253-3.337 1.664-3.337 3.341 0 1.904 1.72 3.452 3.938 3.452.51 0 1.134-.11 1.562-.334.93.596 2.255.924 3.568.924 1.364 0 2.737-.348 3.759-.957 1.02.682 2.446.466 3.266-.44.447-.493.643-1.127.643-1.786a2.316 2.316 0 00-2.332-2.312 2.77 2.77 0 00-1.847.668l.72 1.004a1.541 1.541 0 011.062-.422c.493 0 1.076.297 1.102 1.08.024.696-.598 1.239-1.169 1.239-.57 0-1.03-.216-1.365-.627-.98.835-2.581 1.185-3.839 1.185-1.725 0-2.867-.602-3.44-1.013-.437.269-1.164.424-1.69.424-1.448 0-2.541-.935-2.541-2.084 0-1.083 1.118-2.12 2.868-2.105.398-1.446 1.723-2.49 3.224-2.487 1.514.002 2.254.755 2.828 1.554.362-.394 1.294-.572 1.951-.183.554.33.812.841.8 1.47.581-.279 1.993-.451 2.924.216.932.668 1.18 1.339 1.282 2.238h3.68l-1.385 1.337h1.554L48 20.703l-1.882-1.977z" fill="#fff"/></g><path d="M37.17 32.016c-1.044 0-1.404-.652-1.404-1.505 0-.836.36-1.505 1.403-1.505 1.046 0 1.404.669 1.404 1.505 0 .853-.358 1.505-1.404 1.505zM30 31.632c-.265.234-.626.384-1.125.384-1.046 0-1.435-.652-1.435-1.505 0-.852.39-1.505 1.434-1.505.5 0 .86.134 1.126.369v2.257zm-1.252 6.387c-.66.075-.982-.19-.982-.624 0-.813.882-1.285 1.754-1.49.158-.037.315-.075.473-.115-.11 1.47-.69 2.165-1.245 2.23zm-8.423-6.003c-1.045 0-1.403-.652-1.403-1.505 0-.836.358-1.505 1.403-1.505 1.044 0 1.403.669 1.403 1.505 0 .853-.359 1.505-1.403 1.505zM13 31.632c-.264.234-.54.384-1.04.384-1.044 0-1.434-.652-1.434-1.505 0-.852.39-1.505 1.434-1.505.5 0 .776.134 1.04.369v2.257zm-1.175 6.379c-.661.075-.982-.19-.982-.625 0-.813.891-1.276 1.763-1.48.156-.037.315-.076.472-.116-.11 1.47-.698 2.157-1.253 2.22zM37.169 27c-2.696 0-3.928 1.421-3.928 3.51 0 .501.114 1.082.258 1.458a5.768 5.768 0 01-.96.707V27h-2.22v.668c-.434-.397-1.018-.668-1.897-.668-.973 0-1.746.256-2.319.704-.827.147-1.94.251-3.047.06-.64-.488-1.543-.764-2.73-.764-2.698 0-3.93 1.421-3.93 3.51 0 .519.076.995.231 1.42-.197.192-.508.442-1.003.745V27h-2.219v.668c-.37-.397-1.044-.668-1.897-.668C9.2 27 8 28.421 8 30.51 8 32.603 9.2 34 11.507 34c.443 0 .992-.071 1.493-.312v.303c-.201.079-.307.148-.773.262-1.11.271-3.616.92-3.616 3.19 0 1.589 1.446 2.557 3.195 2.557 1.749 0 3.818-1.346 3.818-4.891v-.332c.741-.376 1.523-.855 2.114-1.42.63.424 1.484.643 2.587.643 2.697 0 3.929-1.398 3.929-3.489 0-.28-.023-.549-.069-.804.266.015.533.012.798-.01a4.85 4.85 0 00-.068.814c0 2.09 1.2 3.489 3.508 3.489.433 0 1.297-.177 1.577-.312v.303c-.155.082-.426.158-.858.262-1.11.27-3.607.93-3.607 3.198 0 1.589 1.447 2.549 3.195 2.549 1.75 0 3.808-1.346 3.808-4.891v-.332c.73-.37 1.498-.84 2.086-1.393.625.407 1.466.616 2.545.616 2.698 0 3.93-1.398 3.93-3.489 0-2.242-1.273-3.511-3.93-3.511z" fill="#fff"/></svg>