<!-- by TradingView --><svg width="56" height="56" xmlns="http://www.w3.org/2000/svg"><path fill="#71B2C9" d="M0 0h56v56H0z"/><g opacity=".8"><path opacity=".59" d="M27.963 37.905c-5.901 0-10.701-4.815-10.701-10.735 0-5.92 4.8-10.736 10.7-10.736 5.902 0 10.702 4.816 10.702 10.736.012 5.92-4.788 10.735-10.701 10.735zm0-21.372c-5.852 0-10.602 4.779-10.602 10.637 0 5.858 4.763 10.636 10.602 10.636s10.602-4.778 10.602-10.636-4.75-10.637-10.602-10.637z" fill="#fff"/></g><g opacity=".8"><path opacity=".59" d="M29.992 39.27c-.94 0-1.893-.124-2.82-.372a10.818 10.818 0 01-6.582-5.064c-2.994-5.2-1.212-11.865 3.971-14.856a10.819 10.819 0 0114.808 3.971c2.994 5.201 1.213 11.866-3.97 14.857a10.755 10.755 0 01-5.407 1.464zm-.037-21.67c-1.868 0-3.7.485-5.357 1.453-5.134 2.966-6.89 9.581-3.934 14.72a10.755 10.755 0 009.328 5.386c1.819 0 3.662-.46 5.357-1.44 5.134-2.966 6.89-9.581 3.934-14.72a10.674 10.674 0 00-6.52-5.026c-.94-.248-1.88-.372-2.808-.372z" fill="#fff"/></g><g opacity=".8"><path opacity=".59" d="M28.383 39.357c-2.981 0-5.876-1.216-7.868-3.611-1.781-2.147-2.573-4.903-2.226-7.757.346-2.855 1.793-5.473 4.057-7.372 4.689-3.91 11.493-3.5 15.167.93 3.675 4.431 2.846 11.208-1.83 15.13-2.153 1.787-4.751 2.68-7.3 2.68zm1.275-21.334c-2.512 0-5.097.881-7.238 2.656-2.251 1.874-3.674 4.48-4.02 7.31-.346 2.83.433 5.56 2.202 7.682 1.967 2.37 4.837 3.575 7.794 3.575 2.511 0 5.097-.882 7.237-2.656 4.64-3.885 5.468-10.6 1.819-14.993-1.968-2.358-4.838-3.574-7.794-3.574z" fill="#fff"/></g><g opacity=".8"><path opacity=".59" d="M26.244 39.083c-2.03 0-3.922-.62-5.493-1.824-2.128-1.638-3.378-4.158-3.526-7.099-.148-2.941.841-5.945 2.759-8.464 1.93-2.52 4.565-4.245 7.422-4.878 2.87-.62 5.617-.062 7.757 1.576 2.128 1.639 3.378 4.158 3.526 7.1.148 2.94-.841 5.944-2.759 8.464-1.93 2.52-4.565 4.244-7.422 4.877-.767.161-1.522.248-2.264.248zm-5.419-1.898c2.103 1.625 4.837 2.171 7.67 1.55 2.845-.62 5.456-2.332 7.373-4.84 1.905-2.494 2.883-5.485 2.747-8.402-.136-2.916-1.386-5.41-3.489-7.024-2.103-1.626-4.825-2.172-7.67-1.551-2.845.62-5.456 2.333-7.373 4.84-1.905 2.494-2.883 5.485-2.747 8.402.137 2.904 1.374 5.399 3.489 7.024z" fill="#fff"/></g><g opacity=".8"><path opacity=".59" d="M26.342 40.002c-5.443 0-9.872-5.213-9.872-11.63 0-6.416 4.43-11.628 9.872-11.628 5.444 0 9.873 5.212 9.873 11.629 0 6.416-4.43 11.629-9.873 11.629zm0-23.147c-5.393 0-9.773 5.176-9.773 11.53 0 6.354 4.38 11.53 9.773 11.53 5.394 0 9.774-5.176 9.774-11.53 0-6.354-4.38-11.53-9.774-11.53z" fill="#fff"/></g><g opacity=".8"><path opacity=".59" d="M27.32 39.767c-1.943 0-3.922-.472-5.765-1.452a12.133 12.133 0 01-5.877-6.988c-.965-2.99-.705-6.143.743-8.873l.05.024-.05-.024c1.447-2.73 3.909-4.704 6.928-5.573 3.018-.856 6.235-.509 9.055 1.005 5.815 3.116 8.116 10.227 5.122 15.862-2.029 3.835-6.025 6.019-10.206 6.019zm-.668-23.246c-1.089 0-2.19.15-3.254.46-2.994.856-5.43 2.817-6.866 5.522-1.435 2.706-1.695 5.833-.742 8.8.965 2.966 3.03 5.423 5.827 6.925 5.764 3.09 12.878 1.055 15.847-4.53 2.97-5.585.693-12.634-5.084-15.725-1.807-.955-3.774-1.452-5.728-1.452z" fill="#fff"/></g><g opacity=".8"><path opacity=".59" d="M28.841 37.198c-5.357 0-9.711-4.754-9.711-10.6C19.13 20.754 23.485 16 28.84 16c5.357 0 9.712 4.753 9.712 10.599 0 5.833-4.355 10.599-9.712 10.599zm0-21.111c-5.295 0-9.612 4.716-9.612 10.5 0 5.795 4.317 10.499 9.612 10.499s9.613-4.716 9.613-10.5c0-5.795-4.318-10.5-9.613-10.5z" fill="#fff"/></g><g opacity=".8"><path opacity=".59" d="M26.825 39.37c-1.237 0-2.487-.212-3.687-.646-2.758-.98-4.96-2.99-6.222-5.634-1.25-2.656-1.41-5.635-.42-8.403a10.928 10.928 0 015.616-6.242l.024.05-.024-.05c2.647-1.254 5.616-1.415 8.375-.422 2.759.98 4.96 2.99 6.223 5.634 1.249 2.656 1.41 5.635.42 8.402a10.928 10.928 0 01-5.616 6.243 10.783 10.783 0 01-4.689 1.067zM26.8 17.49c-1.583 0-3.167.359-4.651 1.054a10.73 10.73 0 00-5.567 6.18 10.813 10.813 0 00.42 8.328 10.72 10.72 0 006.161 5.585c2.734.98 5.678.832 8.301-.422a10.731 10.731 0 005.567-6.18 10.812 10.812 0 00-.42-8.328 10.72 10.72 0 00-6.161-5.585 10.858 10.858 0 00-3.65-.633z" fill="#fff"/></g><path d="M7.477 27.547c0 .887-.444 1.95-1.465 1.963-1.127-.013-1.503-1.17-1.477-2.126.024-.893.462-1.84 1.477-1.84 1.074.014 1.465 1.08 1.465 2.003zm0-1.538C7.18 25.382 6.664 25 5.947 25 4.563 25.012 3.99 26.303 4 27.52c0 1.197.591 2.457 1.93 2.481.627 0 1.227-.342 1.547-.88.045 1.098-.31 2.367-1.53 2.399-.611 0-1.143-.23-1.298-.862h-.535c.071.9 1.03 1.327 1.833 1.342 1.423-.02 2.056-1.236 2.028-2.578V25h-.498v1.009zM10.962 30.001c1.363-.013 2-1.247 2.008-2.471 0-1.262-.623-2.506-2.008-2.53-1.375.024-2.004 1.278-2.004 2.53.009 1.216.646 2.457 2.004 2.471zm1.473-2.471c0 .936-.398 1.968-1.473 1.98-1.062-.013-1.469-1.06-1.469-1.98 0-.94.397-2.02 1.47-2.044 1.106.013 1.482 1.077 1.472 2.044zM13.676 28.405c.055.923.72 1.585 1.649 1.596.859 0 1.75-.403 1.763-1.37 0-.852-.674-1.17-1.388-1.349-.501-.108-1.387-.267-1.387-.933.005-.518.359-.845 1.003-.863.647 0 1.064.388 1.143 1.045h.51c-.15-1.002-.678-1.552-1.644-1.531-.804.01-1.547.533-1.547 1.398 0 .864.733 1.053 1.387 1.304.56.112 1.388.212 1.388.937 0 .592-.545.863-1.07.871-.731.018-1.164-.35-1.297-1.105h-.51zM17.855 28.405c.055.923.72 1.585 1.649 1.596.858 0 1.75-.403 1.762-1.37 0-.923-.684-1.173-1.387-1.349-.494-.106-1.388-.28-1.388-.933.006-.518.36-.845 1.004-.863.647 0 1.064.388 1.143 1.045h.51c-.15-1.002-.679-1.552-1.644-1.531-.804.01-1.547.533-1.547 1.398 0 .843.712 1.044 1.387 1.304.543.109 1.388.22 1.388.937 0 .592-.545.863-1.07.871-.731.018-1.164-.35-1.297-1.105h-.51zM25.086 27.41v.734c-.02.88-.746 1.366-1.58 1.366-.493 0-.928-.326-.938-.84.011-.616.418-.949 1.22-.999.435-.023.873-.09 1.298-.26zm-3.052 1.243c.01.811.651 1.348 1.444 1.348.642-.006 1.173-.22 1.608-.733.006.162.033.31.082.442.085.218.33.279.543.279.147 0 .32-.063.396-.089v-.424c-.207.077-.347.085-.42.027-.08-.056-.115-.186-.107-.39l.008-2.6c-.014-.96-.644-1.513-1.575-1.513-.985 0-1.685.604-1.78 1.606h.51c.101-.71.545-1.132 1.257-1.12.688.01 1.203.442 1.062 1.283-.082.316-.553.333-.82.372-.953.133-2.208.278-2.208 1.512zM27.339 27.349c0-.213.022-.437.065-.672.104-.599.52-1.19 1.17-1.19.677 0 .952.52.952 1.145V30h.502v-2.651c0-.213.023-.437.07-.672.097-.603.537-1.19 1.187-1.19.677 0 .935.52.935 1.145V30h.502v-3.09c0-.917-.24-1.91-1.355-1.91-.634 0-1.097.36-1.404.96-.196-.602-.67-.95-1.295-.96-.595.006-1.016.341-1.313.89h-.016V25h-.502v5h.502v-2.651zM34.175 27.203c.091-.817.545-1.704 1.456-1.717.925.012 1.367.872 1.367 1.717h-2.823zm3.358.45c-.038-1.718-.672-2.641-1.902-2.653-1.339.025-1.991 1.338-1.991 2.547-.01 1.26.612 2.43 1.991 2.454.984-.01 1.63-.642 1.87-1.57h-.56c-.185.714-.621 1.073-1.31 1.08-1.007-.013-1.456-.96-1.456-1.857h3.358zM39.043 27.574c-.005-.542.093-1 .294-1.375.207-.368.584-.611 1.137-.611V25c-.357 0-.645.13-.868.275-.223.15-.404.413-.543.787h-.02V25h-.498v5h.498v-2.426zM41.863 27.512c0-.893.437-2 1.46-2.026 1.146.013 1.527 1.206 1.478 2.185-.016.899-.458 1.84-1.477 1.84-1.052-.014-1.461-1.094-1.461-1.999zm0 1.538h.016c.287.547.879.938 1.502.951 1.405-.024 1.959-1.195 1.959-2.462 0-1.212-.573-2.515-1.93-2.539-.638 0-1.228.378-1.547.934V23h-.502v7h.502v-.95zM46.989 30v-5h-.502v5h.502zm.049-6v-1h-.551v1h.55zM49.992 30.001c1.363-.013 2-1.247 2.008-2.471 0-1.262-.623-2.506-2.008-2.53-1.375.024-2.004 1.278-2.004 2.53.009 1.216.646 2.457 2.004 2.471zm1.473-2.471c0 .936-.398 1.968-1.473 1.98-1.062-.013-1.469-1.06-1.469-1.98 0-.94.397-2.02 1.47-2.044 1.105.013 1.482 1.077 1.472 2.044z" fill="#fff"/></svg>