<!-- by TradingView --><svg xmlns="http://www.w3.org/2000/svg" width="56" height="56" viewBox="0 0 56 56"><path fill="#203864" d="M0 0h56v56H0z"/><path fill-rule="evenodd" d="M37.62 20.54L33.05 31.8a.33.33 0 0 1-.31.21.33.33 0 0 1-.31-.21l-2.89-7.05c-.12-.31-.41-.63-.54-.74h.85c.3 0 .58.18.7.47l2.21 5.36 3.78-9.35c.12-.29.4-.48.7-.48h.96c-.23 0-.49.36-.58.54zM40 27h1.15c.22 0 .43.1.56.28l1.08 1.4.99-1.38c.13-.19.35-.3.58-.3h1.13a2.1 2.1 0 0 0-.77.6l-1.34 1.84 1.39 1.8a7.02 7.02 0 0 0 2.23-.5 9.4 9.4 0 0 1-2.9 1.18l-1.31-1.67-1.07 1.45a.71.71 0 0 1-.57.3h-1.57c-.3 0-.58-.24-.58-.52v-.21a2.5 2.5 0 0 1-4.27-1.77A2.5 2.5 0 0 1 39 27.73v-.38c-.03-.12-.12-.35-.32-.35h.82c.17.02.5.16.5.53v4c.01.1.09.27.27.32.1-.03.22-.1.34-.21.11-.12.81-1.07 1.59-2.15l-1.6-2.04c-.12-.15-.43-.45-.6-.45zm-20-1.45v-1.12c0-.15-.2-.43-.86-.43h-2.58A3.87 3.87 0 0 0 13 28.06c0 3.02 2.72 3.89 4.08 3.94h3.42c-.13-.07-.5-.3-.5-.68V28.3c0-.43-.25-.79-.69-.79h-2.4c-.44 0-.91.36-.91.8v.8c.04-.17.33-.5.7-.5h2.22c.04 0 .08.03.08.07V31h-2.07c-.98-.07-2.92-.75-2.92-2.94 0-2.2 1.86-2.96 2.79-3.06h2.69c.17.04.52.22.52.55zM22.65 32H26c-.15 0-.25-.1-.31-.21-.04-.07-.05-.14-.06-.22l-.03-.14c-.07-.22-.26-.43-.48-.43h-2.24c-.85 0-1.36-.73-1.36-1.39 0-.65.35-1.61 1.57-1.61.97 0 1.4.82 1.5 1.28h-1.2a.52.52 0 0 0-.51.52v.89c0-.34.33-.42.49-.42h1.46c.36 0 .65-.3.65-.66 0-2.09-1.56-2.61-2.4-2.61-.83 0-2.58.48-2.58 2.61 0 1.7 1.43 2.3 2.14 2.39zM31 29.5a2.5 2.5 0 1 1-5 0 2.5 2.5 0 0 1 5 0zm-1 0a1.5 1.5 0 1 1-3 0 1.5 1.5 0 0 1 3 0zm8.63 0a1.5 1.5 0 1 1-3 0 1.5 1.5 0 0 1 3 0zM50 28.13c0-2.19-4.87-4.56-12.86-5.6l.43-.95C46.86 22.8 51 25.78 51 27.38c0 1.63-1.96 2.78-2.93 3.15C50 29.13 50 28.5 50 28.14v-.01zm-21.6-7.11c2.72 0 5.18.13 7.38.35l-.38.96c-2.15-.21-4.5-.33-7-.33C15.37 22 7 25.17 7 28.13c0 2.36 5.59 4.23 8.4 4.87C12.02 33 4 30.27 4 27.38c0-2.9 8.62-6.36 24.4-6.36z" fill="#fff"/></svg>