<!-- by TradingView --><svg xmlns="http://www.w3.org/2000/svg" width="56" height="56"><path fill="#F0F3FA" d="M0 0h56v56H0z"/><path d="M19.4 23.7c3.67.32 6.88 2.37 8.02 3.35l-.24 2.67c-1.2-1.06-4.45-3.27-7.78-3.6-3.34-.32-6.98 1.28-8.38 2.12 3.79 4.55 7.68 5.34 9.63 5.4 1.55.06 3.29-.22 3.96-.37-1.09-1.94-5.16-3.38-7.05-3.86 6.06-.58 9.63 2.77 10.66 4.51a14.74 14.74 0 01-7.57 2.22C13.56 35.8 9.26 30.25 8 27.53c1.46-1.44 6.81-4.24 11.4-3.83z" fill="#91C850"/><path d="M30.95 19.93c-3.44 5.39-1.43 16.96 0 22.07l2.3-2.16c-3.28-10.2-1.66-16.4-.44-18.23 2-2.98 6.87-3.5 8.65-3.27 0 8.04-5.77 9.99-8.65 9.96v2.74c10.67-1.35 11.77-10.53 11-14.96-7.7-.61-11.78 2.31-12.86 3.85z" fill="#169347"/></svg>