<!-- by TradingView --><svg width="56" height="56" viewBox="0 0 56 56" xmlns="http://www.w3.org/2000/svg"><path fill="#F0F3FA" d="M0 0h56v56H0z"/><path fill-rule="evenodd" d="M27 13H13v14h14V13Zm-12 7c0 2.87 2.78 5 5.52 5 .76 0 1.37-.27 1.97-.54.48-.22.95-.43 1.51-.5.11-.03.18-.07.21-.13a.38.38 0 0 0 .06-.19c0-.05-.02-.1-.06-.14v-.01c-.08-.13-.21-.34-.21-.49v-1l.03-.32c.04-.53.08-1.02.67-1.16a.5.5 0 0 0 .2-.1c.06-.04.1-.1.1-.18 0-.1-.04-.15-.1-.18a.33.33 0 0 0-.19-.06h-3.88a.5.5 0 0 0-.2.06.2.2 0 0 0-.11.18c0 .07.04.14.12.2a.6.6 0 0 0 .22.1c.8.08 1.22.67 1.16 1.55V23c-.05.97-.55 1.3-1.49 1.3-2.37 0-3.53-2.26-3.53-4.3 0-2.07 1.52-4.3 3.76-4.3 1.3 0 2.2.59 2.74 1.75a2 2 0 0 0 .14.25c.05.07.13.1.24.1a.2.2 0 0 0 .17-.09.3.3 0 0 0 .07-.2 17.94 17.94 0 0 0-.17-1.7.3.3 0 0 0-.07-.18.42.42 0 0 0-.17-.11 8.44 8.44 0 0 0-3.03-.52c-2.9 0-5.68 1.95-5.68 5Z" fill="#003064"/><path fill-rule="evenodd" d="M43 13H29v14h14V13ZM32 24.8c0 .13.17.2.34.2h3.64c.13 0 .32-.05.32-.21 0-.17-.12-.25-.37-.29-.63-.15-.93-.43-.93-1.13V16.3c0-.45.82-.73 1.17-.73 1.43 0 1.83 1.2 1.83 2.43 0 .9-.08 2.78-1.32 2.78a3.63 3.63 0 0 1-.63-.05c-.05 0-.1.03-.17.08-.06.04-.1.09-.1.15 0 .09.07.17.2.25.13.07.31.11.56.11 2.03 0 3.46-1.28 3.46-3.32 0-2.06-2.06-3-3.83-3h-3.79c-.13 0-.38.13-.38.29 0 .11.1.24.38.3.5.11.62.8.62 1.23v6.64c0 .67-.03.91-.63 1.04-.25.05-.37.15-.37.3ZM27 29H13v14h14V29ZM15 40.76c0 .16.17.21.39.21h3.02c.25 0 .36-.12.36-.23 0-.13-.12-.23-.37-.3-.51-.14-.94-.39-.83-.97.07-.41.2-.81.33-1.21l.18-.56c.04-.19.11-.26.23-.26h2.5c.2 0 .25.05.3.21.2.64.37 1.32.48 1.98.07.45-.21.68-.89.8-.2.03-.37.14-.37.3 0 .14.22.26.34.26h2l2.01.01c.1 0 .32-.11.32-.23 0-.17-.13-.26-.37-.32-.37-.1-.67-.24-.93-.55a2 2 0 0 1-.3-.62c-.88-2.74-2.9-8.26-2.9-8.26-.86 0-1.18.96-1.42 1.68l-.06.18s-1.6 4.37-2.47 6.53a1.7 1.7 0 0 1-1.18 1.01c-.2.08-.37.15-.37.34ZM20.62 37h-1.93c-.18 0-.3-.29-.24-.48l1.17-3.36c.04-.13.08-.2.1-.2.02 0 .06.08.1.21l.96 3.35c.04.16.04.48-.16.48Z" fill="#83ABF1"/><path fill-rule="evenodd" d="M43 29H29v14h14V29Zm-12 7.09c0 3.16 3.1 4.91 5.96 4.91 1.27 0 2.4-.17 3.2-.49.13-.05.23-.1.3-.16a.66.66 0 0 0 .15-.26 6.31 6.31 0 0 0 .39-1.61c0-.16-.07-.24-.22-.24s-.27.07-.36.22a3.43 3.43 0 0 1-3.18 1.88A4.2 4.2 0 0 1 33 36c0-2.16 1.98-4.34 4.2-4.34 1.5 0 2.6.56 3.05 2.01.04.1.1.18.2.22.1.03.2.03.28-.01a.21.21 0 0 0 .11-.23 11.43 11.43 0 0 0-.13-1.74.42.42 0 0 0-.13-.28.64.64 0 0 0-.27-.16 9.5 9.5 0 0 0-2.9-.47C34.47 31 31 32.76 31 36.09Z" fill="#003064"/></svg>