<!-- by TradingView --><svg width="56" height="56" viewBox="0 0 56 56" xmlns="http://www.w3.org/2000/svg"><path fill="#F0F3FA" d="M0 0h56v56H0z"/><path d="M12 20.33a9.08 9.08 0 0 1 3.64-.99c-.32-1.55.23-2.9.8-4.28-.48-.13-.95-.08-1.3-.48-.43-.71-.36-1.27.22-1.7a1.18 1.18 0 0 1 1.55.14c.48.5.41 1.13-.2 1.83.05.21.25.2.4.26.7.24 1.38.56 2 .96.5.32.95.68 1.25 1.25.56-.36.97-.86 1.53-1.13l1.75-.81c0 1.12-.06 2.16.02 3.27-3.34.6-6.5 1.93-9.25 3.89-.77-.8-1.6-1.55-2.48-2.23a1.34 1.34 0 0 1-1.48.5c-.7-.43-.94-.92-.7-1.51.12-.27.32-.5.6-.63.26-.13.57-.16.85-.09.63.17.91.72.8 1.75Z" fill="#EED646"/><path d="M18.82 20.6c.61-.36 1.3-.53 1.98-.76.92-.3 1.87-.52 2.87-.75.16.62.12 1.3.47 1.97-3.27.04-6.13.91-8.41 3.28l-.48-.71c-.15-.23-.32-.45-.47-.66a.4.4 0 0 1 .23-.31 45.43 45.43 0 0 1 3.57-2.02.9.9 0 0 1 .25-.05c-.12.17-.27.33-.27.58a.76.76 0 0 0 .4.48c.22.02.45.03.66-.22a.69.69 0 0 0-.12-.79.79.79 0 0 0-.68-.03Zm-2.21 2.61c0-.53-.11-.76-.43-.81a.59.59 0 0 0-.4.08c-.12.08-.21.2-.25.33-.09.33.09.56.59.77.2-.06.38-.19.49-.37Zm6.84-2.92a.7.7 0 0 0-.27-.5c-.26-.07-.53-.11-.77.13a.71.71 0 0 0-.08.55.66.66 0 0 0 .57.38c.31-.05.48-.25.55-.56ZM23.92 15.29a1.17 1.17 0 0 1-.8-.36 1.14 1.14 0 0 1-.21-1.25 1.14 1.14 0 0 1 .65-.6c.14-.05.3-.07.44-.06.65 0 1.2.5 1.2 1.11-.03.69-.5 1.2-1.28 1.16Z" fill="#EED646"/><path d="M16.61 23.21a.86.86 0 0 1-.5.37c-.5-.21-.67-.44-.58-.77a.57.57 0 0 1 .25-.33c.12-.07.26-.1.4-.08.32.05.44.28.43.81ZM18.82 20.6a.79.79 0 0 1 .68.04.7.7 0 0 1 .12.8c-.2.24-.44.23-.67.21a.77.77 0 0 1-.4-.48c0-.25.16-.4.28-.58l-.01.02ZM23.45 20.29c-.07.31-.24.51-.55.56a.68.68 0 0 1-.56-.38.7.7 0 0 1 .07-.55c.24-.24.5-.2.77-.13a.72.72 0 0 1 .27.5Z"/><path d="M12.05 21.21c-1.35.56-2.38.29-2.87-.7a1.81 1.81 0 0 1 .78-2.4c1.03-.56 2-.17 2.79 1.14.66-.25 1.36-.43 2.06-.54a9.3 9.3 0 0 1 .65-3.06c-1.24-.93-1.55-1.74-1.07-2.67a1.9 1.9 0 0 1 2.23-.9c1.02.34 1.42 1.2 1.18 2.56.97.4 1.9.9 2.7 1.67a9 9 0 0 1 1.91-1.14c-.3-.61-.41-1.23-.06-1.85a1.88 1.88 0 0 1 2.45-.8c.43.2.76.56.94 1 .4 1-.07 1.85-1.4 2.5-.31 1.9-.02 4.18.73 5.47.39.09.62-.21.9-.4.55-.06.88.23 1.07.68.37.79.5 1.66.37 2.52-.03.23-.13.45-.07.68.09.2.36.18.46.49-.08.73-.09 1.56-.34 2.37-.12.4-.37.68-.8.75a1 1 0 0 1-1.07-.48c-.34-.55-.7-1.1-.9-1.7-.33-1-1-1.86-1.9-2.43a1.13 1.13 0 0 1-1.06-.29c-.57.17-1.18.2-1.76.05-.16.42-.45.77-.83 1-.4.25-.68.62-.81 1.06-.08.25-.25.45-.4.67a8.7 8.7 0 0 0 .05 2.05c.08.56.04 1.13-.13 1.66-.25.92-.32 1.82.1 2.71.13.28.16.59.1.89-.1.56.09 1.01.46 1.42l.52.57c.27.26.5.57.66.9.5.07.97.22 1.46.33 1.16.25 2.67-.62 3.04-1.83.2-.61.52-1.17.7-1.79.03-.14.2-.22.23-.41-.12-.2-.36-.25-.58-.34a3 3 0 0 1-.85-.46c-.75-.65-.64-1.69.22-2.16.17-.1.36-.17.55-.2.47-.1.93-.23 1.37-.41.33-.14.69-.16 1.02-.05.27.09.56.11.83.18.26.05.51.12.76.2 1.26.43 1.53 1.35.73 2.4-.15.14-.36.07-.5.18-.18.15-.34.32-.53.49-.06.94-.21 1.87-.36 2.8-.07.5-.06 1 .03 1.48.09.47.1.95.05 1.42-.1.78-.58 1.24-1.25 1.25a1.1 1.1 0 0 1-.95-.49c-.17-.24-.32-.5-.5-.78-.5.45-1.17.52-1.66.92-.2.14-.44.2-.69.18h-2.29c-.1 0-.22 0-.32-.03-1.08-.42-2.2-.75-3.04-1.58a3.44 3.44 0 0 1-.99-1.56c-.1-.4-.23-.79-.64-1.01.12-.52-.03-.95-.26-1.38A2.23 2.23 0 0 1 15 32.4c.07-.3-.03-.6-.12-.89a3.89 3.89 0 0 1-.15-1.9c.15-.87.18-1.75.28-2.63.02-.3.08-.6.17-.88.31-.92 0-1.69-.54-2.41-.38-.5-.82-.95-1.3-1.36-.42-.38-.85-.74-1.3-1.12Zm6.78-.62a.9.9 0 0 0-.25.05 45.46 45.46 0 0 0-3.72 2.14.39.39 0 0 0-.08.2c.15.2.32.42.47.65l.48.71c2.28-2.37 5.14-3.24 8.4-3.28-.34-.68-.3-1.35-.46-1.97-1 .23-1.95.44-2.87.75-.67.23-1.37.4-1.98.77l.01-.02ZM12 20.33c.12-1.03-.16-1.58-.79-1.75a1.23 1.23 0 0 0-1.44.72c-.25.59-.01 1.08.7 1.5a1.36 1.36 0 0 0 1.47-.5c.88.7 1.71 1.44 2.48 2.24a22.89 22.89 0 0 1 9.26-3.89c-.09-1.11-.02-2.15-.03-3.27l-1.74.81c-.57.27-.98.77-1.54 1.13-.3-.57-.76-.93-1.25-1.25-.62-.4-1.3-.72-2-.96-.15-.06-.35-.05-.4-.26.62-.7.68-1.32.2-1.83a1.18 1.18 0 0 0-1.54-.13c-.6.42-.66.98-.24 1.69.36.4.83.35 1.3.48-.56 1.38-1.11 2.73-.79 4.28a9.07 9.07 0 0 0-3.65.99Zm11.93-5.04c.77.04 1.25-.47 1.27-1.16.02-.6-.54-1.1-1.19-1.11a1.17 1.17 0 0 0-1.1.66 1.12 1.12 0 0 0 .58 1.5c.14.07.3.1.44.1ZM35.64 32.14c-.03 1.56-.37 3.05-.03 4.51.5.36 1.11.28 1.6.59.07.28.22.53.44.72.3.26.3.65.06 1-.13.2-.29.38-.43.57-.22.14-.48.2-.75.2l-1.63.01c-.86-.03-1.7.04-2.54.2-.82.17-1.3-.03-1.54-.53a1.58 1.58 0 0 1 .48-1.92c.3-.2.64-.37 1-.48.18-.06.36-.14.57-.23-.08-.4-.06-.82.08-1.2a.95.95 0 0 0-.01-.64 3.32 3.32 0 0 1-.13-1.78 9.4 9.4 0 0 0-.02-2.45.74.74 0 0 1-.03-.32c.22-.6.01-1.18-.12-1.77a2.6 2.6 0 0 1 .2-1.76c-.38-.4-.46-.86-.47-1.34 0-.43-.18-.84-.49-1.15-.43-.46-.85-.93-1.44-1.2-.25-.1-.42-.32-.34-.56.14-.46.23-.97.67-1.28a.95.95 0 0 1 .87-.16c.41.12.84.22 1.3.33.49-.15 1.01-.15 1.5.02l.78-.27c.48.25 1 .2 1.52.15.83-.1 1.67.01 2.44.3.64.24 1.28.43 1.93.62.73.21 1.24.78 1.67 1.4.2.3.4.6.69.84.38.31.45.78.5 1.23.07.77.02 1.55-.17 2.3-.1.38-.29.73-.52 1.04-.12.13-.22.27-.3.42-.21.62-.72.95-1.24 1.27a7.11 7.11 0 0 1-3.21 1.2c-.22.02-.44.07-.65-.01-.76-.3-1.5-.17-2.24.13Zm-.62-7.4c.2.55.74 1.03.28 1.66.26.55.22 1.03-.28 1.41l.87 1.28h1.52a23 23 0 0 0 1.5-.12.6.6 0 0 0 .35-.16c.26-.27.58-.33.94-.36.45-.03.7-.29.8-.71.43-1.56-.62-3.33-2.22-3.62a9.18 9.18 0 0 0-3.41.1c-.14.17-.28.28-.35.51Z"/></svg>