<!-- by TradingView --><svg width="56" height="56" viewBox="0 0 56 56" xmlns="http://www.w3.org/2000/svg"><path fill="#F0F3FA" d="M0 0h56v56H0z"/><path d="M36 17.48a3.7 3.7 0 0 1-.94 2.4c-.49.54-1.08.92-1.78 1.03-.38.06-.77.12-1.15.07a3.34 3.34 0 0 1-1.86-.88c-.35-.33-.7-.66-.9-1.13a4.34 4.34 0 0 1-.31-2.47c.1-.73.38-1.36.88-1.85.24-.24.52-.42.85-.42l-.62.66a.9.9 0 0 1 .07.1c.5-.22.98-.45 1.48-.64.44-.16.88-.32 1.35-.13.03.02.07.01.11.01.04 0 .07-.01.11-.06l-.37-.1v-.05l.11-.02c.2-.01.38.04.58.02.2-.01.44.2.66.3.79.37 1.22 1.12 1.56 1.9.16.37.18.84.16 1.27Z" fill="#BA2332"/><path d="M42 35.72C42 41.47 36 45 30.8 45c-1.1 0-2.17-.1-3.21-.32a3.6 3.6 0 0 1 .2-2.68c1 .23 2.05 0 3.12 0 3.91 0 8.13-2.14 8.13-6.41C39.04 27.5 23 28.4 23 18.38c0-4.62 5.14-6.52 8.89-6.37-3.05 0-6.96 1.95-6.89 5.34.2 9.52 17 7.84 17 18.36Z" fill="#BA2332"/><path d="m36.83 12.45-.03.04c-2-.58-3.9-1.3-6.04-1.13A15.59 15.59 0 0 0 16.6 29.91c.22 1.2.58 2.34 1.05 3.41a2.8 2.8 0 0 0-2.25 1.49 17.2 17.2 0 0 1-1.4-6.78c0-.73 0-1.56.14-2.27C15.23 17.48 22.5 11 30.76 11c2.24 0 4.12.44 6.07 1.45Z" fill="#20BEC3"/><path d="M27.59 44.68A16.82 16.82 0 0 1 15.4 34.8a2.8 2.8 0 0 1 2.26-1.48 14.81 14.81 0 0 0 10.14 8.64 3.65 3.65 0 0 0-.2 2.7h-.01Z" fill="#3050A3"/><path d="M17.65 33.33c-.82.07-1.64.45-2.25 1.48-.56-1.3-.97-2.69-1.2-4.14.74-.7 1.62-.67 2.43-.67.22 1.2.55 2.26 1.02 3.33Z" fill="#218DBE"/><path d="M32.22 44.93c-.45.08-.97.07-1.42.07-1.1 0-2.19-.11-3.22-.32a3.7 3.7 0 0 1 .2-2.7c1.22.02 2.06.02 3.13.02.25 0 .5 0 .76-.02h.01c-.2.83-.16 2.1.54 2.95Z" fill="#742F68"/></svg>