<!-- by TradingView --><svg xmlns="http://www.w3.org/2000/svg" width="56" height="56" viewBox="0 0 56 56"><path fill="url(#agbvrxorg)" d="M0 0h56v56H0z"/><path d="M24.93 16 27 20v-4h-2.07Zm-2.32 0 3.04 4.23-.98-4.23h-2.06ZM29 16v4l2.07-4H29Zm-6.55 0H11v7h7.33l-5.94-1.63L20.44 23l-7.02-2.93 7.59 2.28-6.3-3.53 7.02 2.93-5.42-4.01 6.3 3.52-4.49-4.45 5.42 4.02-3.46-4.78 4.49 4.45-2.12-4.5Zm5.52 4 .93-4h-1.85l.92 4Zm5.52-4-2.06 4.5 4.49-4.45-3.46 4.78 5.42-4.02-4.49 4.45 6.3-3.52-5.42 4.01 7.02-2.93-6.3 3.53 7.59-2.28L35.56 23l8.05-1.63L37.67 23H45v-7H33.5Zm-2.21 0-.98 4.23L33.34 16h-2.06Zm3.93 13a19.18 19.18 0 0 0-11.23 5.01c.47 0 .9.05 1.37.1h.13A19.58 19.58 0 0 1 36.55 29h-1.34Zm-4.07-5c5.41.67 10.86 2.53 10.86 5h-1.8a18.7 18.7 0 0 0-11.48 5.53c.46.05.93.15 1.4.25C33.65 30.72 39.57 29 45 29v-5H31.14Zm6.65 5h1.13c-.15-2.57-4.53-4.33-9.58-5h-.72c5 .67 9.06 2.43 9.17 5Zm.1 7h.77c3.15 0 5.31-.65 6.34-1.01v-4.16c-3.2 1.13-5.77 2.96-7.1 5.17Zm-3.9-.5.45.04c1.9-2.77 5.82-5.31 10.56-6.18v-.15c-5.25.67-9.68 3.26-11.85 6.19.3.06.57.08.84.1Zm.09-6.5h1.13c-.1-2.57-3.35-4.33-8.14-5h-.51c4.58.67 7.42 2.43 7.52 5Zm-8.96-5h-.42c4.12.67 5.62 2.43 5.67 5l-.54.04a19.12 19.12 0 0 0-11.26 5.23l1.75-.15A19.41 19.41 0 0 1 31.55 29c0-2.62-1.9-4.33-6.43-5Zm-1.76 0H11v12c.67-.26 1.8-.65 3.25-1.01C16.82 31.86 22.08 29.26 28 29c0-2.6-.52-4.33-4.64-5Zm7.74 12.95c2.95.7 5.48 1.05 7.6 1.05 2.94 0 5.06-.55 6.3-1v3H11v-1.95l.57-.2c1.65-.6 5.68-1.85 11.16-1.85 2.53 0 5.32.25 8.37.95Z" fill="#fff"/><defs><linearGradient id="agbvrxorg" x1="35.25" y1="62.75" x2="26" y2="-9.5" gradientUnits="userSpaceOnUse"><stop offset=".22" stop-color="#C4A959"/><stop offset=".38" stop-color="#9B9E83"/><stop offset=".48" stop-color="#84979B"/><stop offset=".63" stop-color="#748A97"/><stop offset=".81" stop-color="#3E5F7C"/></linearGradient></defs></svg>