<!-- by TradingView --><svg xmlns="http://www.w3.org/2000/svg" width="56" height="56"><path fill="url(#asm3owzla)" d="M0 0h56v56H0z"/><path d="M5 36h10v-7H5v7zm12 0h10v-7H17v7z" fill="#4B9ED9"/><path d="M29 36h10v-7H29v7z" fill="#295DA6"/><path d="M41 36h10v-7H41v7zM9.5 21a.5.5 0 010 1H7a1 1 0 00-1 1v2a1 1 0 001 1h6.5c.5 0 .5-.45.5-1h-2a.5.5 0 010-1h2.5a.5.5 0 01.5.5v.5c0 1.1-.4 2-1.5 2H7a2 2 0 01-2-2v-2a2 2 0 012-2h2.5z" fill="#fff"/><path fill-rule="evenodd" d="M18 22a2 2 0 00-2 2v1a2 2 0 002 2h5a2 2 0 002-2v-1a2 2 0 00-2-2h-5zm0 1a1 1 0 00-1 1v1a1 1 0 001 1h5a1 1 0 001-1v-1a1 1 0 00-1-1h-5zm26-1a2 2 0 00-2 2v1a2 2 0 002 2h5a2 2 0 002-2v-1a2 2 0 00-2-2h-5zm0 1a1 1 0 00-1 1v1a1 1 0 001 1h5a1 1 0 001-1v-1a1 1 0 00-1-1h-5zm-17.43-2a.57.57 0 00-.57.57v4.93a.5.5 0 001 0V25h7a2 2 0 100-4h-7.43zm.43 3h7a1 1 0 100-2h-7v2z" fill="#fff"/><path d="M39 22a2 2 0 00-2 2v2.5a.5.5 0 001 0V24a1 1 0 011-1h1.5a.5.5 0 000-1H39z" fill="#fff"/><defs><linearGradient id="asm3owzla" x1="10.42" y1="9.71" x2="68.15" y2="76.02" gradientUnits="userSpaceOnUse"><stop stop-color="#1A1E21"/><stop offset="1" stop-color="#06060A"/></linearGradient></defs></svg>