<!-- by TradingView --><svg width="56" height="56" viewBox="0 0 56 56" xmlns="http://www.w3.org/2000/svg"><path fill="url(#arllpe3bb)" d="M0 0h56v56H0z"/><path d="M14.86 19.35a1.13 1.13 0 0 1-.37-1.66 16.95 16.95 0 0 1 27.02 0c.4.55.22 1.32-.37 1.66l-5.13 2.97c-.36.21-.81.21-1.18 0l-6.62-3.84a.94.94 0 0 0-.95 0l-6.36 3.68c-.36.22-.82.22-1.18 0l-4.86-2.81ZM26 43.78c0 .69-.8 1.24-1.49 1.14C16.33 43.68 11 36.6 11 28.05c0-2.16.4-4.22 1.13-6.13a1.12 1.12 0 0 1 1.62-.54l4.74 2.75c.37.21.51.6.51 1.03v7.53c0 .33.26.65.56.82l5.63 3.8c.36.21.81.6.81 1.03v5.44Zm2 .07c0 .68.72 1.22 1.39 1.14C37.84 44.01 45 36.8 45 28.05c0-2.16-.4-4.22-1.13-6.13a1.12 1.12 0 0 0-1.62-.54l-4.73 2.74-4.69 2.6a.91.91 0 0 0 .09 1.64l3.08 1.3v3.2c0 .33-.17.65-.46.82l-6.8 3.63c-.36.21-.74.6-.74 1.03v5.51Z" fill="#fff"/><defs><linearGradient id="arllpe3bb" x1="0" y1="28" x2="68.74" y2="9.71" gradientUnits="userSpaceOnUse"><stop stop-color="#3979DE"/><stop offset="1" stop-color="#62C9EF"/></linearGradient></defs></svg>