<!-- by TradingView --><svg xmlns="http://www.w3.org/2000/svg" width="56" height="56" viewBox="0 0 56 56"><path fill="#F0F3FA" d="M0 0h56v56H0z"/><path d="M30 28h6l-11 4.5s6.39-1.4 10.06-2.75c4.5-1.64 8.94-4.75 8.94-8C44 17.07 36.6 16 33.4 16 18.1 16 11 21.62 11 21.62v-.43S21.5 14 34.03 14C39.1 14 47 15.16 47 20.3c0 1.43-.6 2.57-1.53 3.62-2.8 3.17-7.7 5.14-7.7 5.14l-2.08 8.93C31.54 39.52 27.1 40 22.7 40c-2.74 0-6.31-.62-8.3-2.34a6.66 6.66 0 0 1-2.4-5.19c0-.77.14-1.5.24-2.14C13.44 22.76 21.88 20 27.56 20c4.8 0 11.44.58 11.44 5.32 0 .32-.04.31-.1.68h-8.13s-.34-2-3.61-2c-2.67 0-5.97 1.99-7 6.44-.11.5-.16.96-.16 1.37.02 3.61 2.4 4.2 5.08 4.19 1.75 0 3.8-.54 3.8-.54L29.5 33H24l6-5Z" fill="#E21F25"/></svg>