<!-- by TradingView --><svg xmlns="http://www.w3.org/2000/svg" width="56" height="56" viewBox="0 0 56 56"><path fill="#F0F3FA" d="M0 0h56v56H0z"/><path fill-rule="evenodd" d="M18 12a6 6 0 0 0-6 6v20a6 6 0 0 0 6 6h20a6 6 0 0 0 6-6V18a6 6 0 0 0-6-6H18zm0 2a4 4 0 0 0-4 4v20a4 4 0 0 0 4 4h20a4 4 0 0 0 4-4V18a4 4 0 0 0-4-4H18z" fill="url(#akrkhz5uv)"/><path d="M18.47 16a2.24 2.24 0 0 1 2.12 1.66l-1.48.24c-.1-.66-.57-.8-.74-.78-.64.03-.86.77-.87 1.41-.01.65.39 1.28.87 1.28.38 0 .69-.35.74-.52h-.81v-1.1h2.3V21h-.8l-.18-.54c-.28.41-1 .53-1.32.54-1.5 0-2.3-1.12-2.3-2.39 0-1.26.75-2.65 2.47-2.6z" fill="#001A53"/><path fill-rule="evenodd" d="M16 22h2.79a1.5 1.5 0 0 1 0 3H17.5v2H16v-5zm1.5 1h.82a.5.5 0 1 1 0 1h-.82v-1z" fill="#001A53"/><path d="M27.41 16h-.91v5H30v-1h-2v-1h1.64v-1H28v-1h2v-1h-2.59zM31.77 16h-.98v5h3.57v-1h-2.07v-1H34v-1h-1.7v-1h2.06v-1h-2.59z" fill="#001A53"/><path fill-rule="evenodd" d="M24.2 16h-2.95v5h1.5v-2h.44l.8 2h1.7l-.86-2.14A1.5 1.5 0 0 0 24.2 16zm-.54 1h-.91v1h.9a.5.5 0 0 0 0-1zM23.95 22H21v5h1.5v-2h.44l.8 2h1.71l-.86-2.14a1.5 1.5 0 0 0-.64-2.86zm-.54 1h-.91v1h.91a.5.5 0 1 0 0-1z" fill="#001A53"/><path d="M35 16v5h1.5v-2.47L38.14 21h1.36v-5H38v2.31L36.53 16H35z" fill="#001A53"/><path fill-rule="evenodd" d="M28.41 27a2.46 2.46 0 0 0 2.42-2.5c0-1.38-1.08-2.5-2.42-2.5A2.46 2.46 0 0 0 26 24.5c0 1.38 1.08 2.5 2.41 2.5zm0-1c.47 0 .84-.67.84-1.5s-.37-1.5-.84-1.5c-.46 0-.83.67-.83 1.5s.37 1.5.83 1.5z" fill="#001A53"/><path fill-rule="evenodd" d="M42 31.37a7.93 7.93 0 0 0-4.2-1.38c-2.35-.04-9.9 1.56-10.8 11.33-.02 1.36.32 4.22 1.87 5.68a3.03 3.03 0 0 1 1.94-3.6l.75-.29c2.9-1.08 8.37-3.13 10.44-7.74v-4zm-1.98 2.05a5.88 5.88 0 0 0-5.8 1.45 7.18 7.18 0 0 0-2.2 5.68c1.04.33 3.86.67 5.98-1.56 1.81-1.9 2.3-4.57 2.02-5.57z" fill="url(#bkrkhz5uv)"/><path d="M16 30v-1.5h3l-.37 1.5H16zM19.83 29l-.27 1h8.95l.29-1h-8.97zM29.63 29l-.27 1h4.36l.28-1h-4.37zM22.02 32l-.28 1h7.45l.29-1h-7.46zM16 32v1h4.72l.28-1h-5z" fill="#5D60AB"/><defs><linearGradient id="akrkhz5uv" x1="12" y1="27.61" x2="44" y2="28" gradientUnits="userSpaceOnUse"><stop stop-color="#72A434"/><stop offset="1" stop-color="#1C6E27"/></linearGradient><linearGradient id="bkrkhz5uv" x1="42.42" y1="35.03" x2="27" y2="35.55" gradientUnits="userSpaceOnUse"><stop stop-color="#1C6E27"/><stop offset="1" stop-color="#72A434"/></linearGradient></defs></svg>