<!-- by TradingView --><svg width="56" height="56" viewBox="0 0 56 56" fill="none" xmlns="http://www.w3.org/2000/svg">
<rect width="56" height="56" fill="#F0F3FA"/>
<path d="M31.9406 41.9999L15.0735 42C14.4451 42 14 41.5051 14 40.931C14 35.8681 14 30.987 14 25.9242C14 25.872 14.1309 25.8198 14.1309 25.7676C14.6022 25.7154 15.0735 25.6632 15.5448 25.611C15.5972 25.6632 15.6495 25.7676 15.6495 25.8198C16.0685 26.8115 16.9587 27.229 17.8489 26.8115C18.6868 26.4461 19.001 25.5588 18.6868 24.6193C18.6344 24.5149 18.6344 24.4106 18.5821 24.3062C19.577 23.6798 21.2578 22.7403 21.9909 21.853L22.0433 33.6489C22.0433 34.9016 22.3051 35.267 23.5619 35.1104C25.1329 34.9538 26.285 35.4236 27.1752 36.7284C27.8036 37.6157 28.6415 38.3986 29.3746 39.2337C29.5841 39.4947 29.8459 39.7035 30.1601 39.9123C31.0504 40.5386 31.7835 40.2254 31.9406 39.1294C32.0977 38.0333 32.0453 36.885 31.993 35.7889C31.993 35.267 32.1501 35 32.6737 35C33.7211 35 34.8405 35.012 35.8878 35C35.8355 35.2088 35.626 35.3012 35.4689 35.4056C33.2695 37.0236 32.0977 39.2858 31.9406 41.9999ZM17.2205 28.7427C16.6969 28.8471 16.3303 29.1602 16.3303 29.7344C16.3827 30.3085 16.7492 30.6217 17.2729 30.6217C17.8489 30.5695 18.1631 30.2041 18.1631 29.6822C18.1631 29.0558 17.7442 28.7949 17.2205 28.7427ZM18.1631 34.0143C18.0584 33.4924 17.8489 33.127 17.2205 33.127C16.5921 33.1792 16.3303 33.4924 16.3303 34.0665C16.3303 34.5884 16.6445 34.9538 17.2729 34.9538C17.8489 34.9538 18.1108 34.5884 18.1631 34.0143Z" fill="#5B05FE"/>
<path d="M30.788 15H41.0046C41.633 15 41.9996 15.7875 41.9996 16.4138C41.9996 16.4138 41.9996 21.8529 41.9996 24.1495C41.9996 24.7758 41.633 25 41.0046 25C40.062 25 38.1194 25 37.1768 25C36.5484 25 36.2342 24.7758 36.1818 24.1495C36.1818 23.5231 36.1818 22.8968 36.1818 22.2705C36.1818 21.2788 35.8676 21.0522 34.8726 21C32.9351 21 31.0499 21 29.1123 21C29.1647 19.2776 29.8454 16.4092 30.788 15Z" fill="#09FEFE"/>
<path d="M22.0433 21.8007C21.3102 22.688 19.6294 23.6275 18.6344 24.2539C16.9587 23.1056 15.7575 23.7125 15.5481 25.6437C15.0768 25.6959 14.4713 25.9132 14 25.9654C14 25.9654 14 24.567 14 24.0451C14 24.0451 14 18.713 14 16.5208C14 15.5291 14.288 15 15.283 15C17.5347 15.0522 23.0383 15 23.0383 15C23.3001 16.6702 22.9859 19.6086 22.3575 21.1222C22.2004 21.331 22.0957 21.5398 22.0433 21.8007Z" fill="#06FD08"/>
<path d="M31.9404 41.9999C32.0975 39.2858 33.1972 37.0414 35.449 35.4234C35.6061 35.319 35.8156 35.2146 35.8679 35.0059C37.4913 34.3795 40.167 33.7532 41.9999 33.962L41.9998 40.9309C41.9998 41.5573 41.6856 41.9999 41.0572 41.9999L31.9404 41.9999Z" fill="#FD02FE"/>
<path d="M22.3066 21.1724C22.935 19.6066 22.8452 16.6739 22.5833 15.0037C22.5833 15.0037 24.7664 15 25.5519 15C25.709 15 25.9184 15.0313 26.0232 14.8747C26.1279 14.6138 25.9184 14.5094 25.7613 14.405C25.0282 13.7265 24.3475 13.3369 23.6143 12.6584C23.5096 12.554 23.3525 12.4496 23.2478 12.293C22.9336 11.8755 22.8288 11.4579 23.2478 11.0925C23.6143 10.7272 24.0333 10.8316 24.3475 11.1969C25.29 12.0842 26.285 12.6304 27.1752 13.6221C27.7513 14.2484 28.1178 14.144 28.6939 13.6743C30.1078 12.4738 31.5217 11.6145 32.9356 10.414C33.4069 9.99646 33.8782 9.78768 34.3495 10.3096C34.7684 10.8316 34.3495 11.2491 33.9829 11.5623C32.7261 12.6062 31.4693 13.3611 30.1601 14.405C30.003 14.5094 29.7936 14.6905 29.8459 15.0037H30.8409C29.8983 16.4129 29.2175 19.3298 29.1652 21C27.3323 21 25.4471 21 23.6143 21C23.143 21 22.6732 21.0158 22.3066 21.1724Z" fill="#5B05FE"/>
<path d="M42.0002 33.9619C40.2197 33.8053 37.4847 34.4146 35.8614 35.041C36.385 34.2581 36.1825 33.3356 36.0778 32.5005C36.0254 31.9263 35.4494 31.8219 34.9257 31.8219C32.9881 31.7175 32.9881 31.7175 32.9881 29.7864C32.9881 27.1244 32.831 27.0344 35.4494 27.0344C36.8633 27.0344 39.3295 27.0344 40.7434 27.0344C41.5289 27.0344 42.0002 27.3843 42.0002 28.2194V33.9619Z" fill="#5B05FE"/>
<path d="M29.6147 30C30.3525 30 31.0376 30 31.7754 30C32.2497 30 32.4079 30.2306 32.3025 30.6918C32.0916 31.9025 30.7214 33.0556 29.562 32.9979C28.3498 32.9403 27.085 31.7872 26.9269 30.5765C26.8742 30.173 27.0323 30 27.4012 30C28.139 30 28.8768 30 29.6147 30Z" fill="#5B05FE"/>
<path d="M27.1752 26.3415C27.0705 26.9679 26.7563 27.3854 26.1803 27.4376C25.6042 27.4898 25.1329 27.0723 25.0806 26.4459C25.0282 25.8196 25.4471 25.402 26.0755 25.3499C26.7039 25.3499 27.0181 25.7674 27.1752 26.3415Z" fill="#5B05FE"/>
<path d="M32.9883 26.394C32.8836 27.0204 32.517 27.4379 31.8886 27.4379C31.3126 27.3857 30.8413 27.0204 30.8936 26.394C30.946 25.7677 31.3126 25.4023 31.941 25.4023C32.6217 25.4023 32.8836 25.8721 32.9883 26.394Z" fill="#5B05FE"/>
</svg>
