<!-- by TradingView --><svg width="56" height="56" viewBox="0 0 56 56" xmlns="http://www.w3.org/2000/svg"><path fill="#F0F3FA" d="M0 0h56v56H0z"/><path d="m34.65 31.9 2.54-9.63h.04a2.42 2.42 0 0 1 1.71 2.93l-1.32 5.01a2.4 2.4 0 0 1-2.97 1.68Z" fill="url(#a3ys0d32x)"/><path d="M40.48 32a2.4 2.4 0 0 1-1.71-2.97l.75-2.79h.03a2.42 2.42 0 0 1 1.72 2.93L40.48 32Z" fill="url(#b3ys0d32x)"/><path d="m31.3 31.9 1.85-7.05h.04a2.42 2.42 0 0 1 1.71 2.93l-.64 2.4a2.4 2.4 0 0 1-2.97 1.71Z" fill="url(#c3ys0d32x)"/><path d="M36.44 21.34c-.03-.43-.6-1.25-.96-1.32-.36-.1-.61.28-.9.6-.28.36-.43.5-.6.61-.19.11-.4.25-.47.47-.04.18.21.29.14.6-.1.4-.64.22-.82.87-.1.39.64 1.14 1.86 1.46.53.14 1.14-.28 1.32-.93.14-.64.5-1.82.43-2.36Z" fill="url(#d3ys0d32x)"/><path d="m44.54 32 2.73-4.53c.07-.14.28-.14.36 0l1.25 2.08h-1.4c-.79 0-1.4.72-1.4 1.45h3.63l.25.31c.25.42.71.7 1.22.7H52l-4.02-6.75a.58.58 0 0 0-.96 0L43 32h1.54ZM13 28.5c0 1.94 1.6 3.5 3.6 3.5h.8c2 0 3.6-1.56 3.6-3.5S19.4 25 17.4 25h-.8c-2 .03-3.6 1.6-3.6 3.5Zm4.4 2.15h-.8a2.2 2.2 0 0 1-2.2-2.15c0-1.18 1-2.15 2.2-2.15h.8a2.2 2.2 0 0 1 2.2 2.15c0 1.18-1 2.15-2.2 2.15ZM5.42 28.5c0-1.18 1-2.15 2.2-2.15h3c.78 0 1.38-.62 1.38-1.35H7.6A3.6 3.6 0 0 0 4 28.5C4 30.44 5.64 32 7.6 32h2.98A1.4 1.4 0 0 0 12 30.65V29.4c0-.76-.68-1.4-1.42-1.4H7.2c0 .76.64 1.4 1.39 1.4h1.77c.11 0 .22.1.22.2v.84c0 .1-.1.2-.22.2H7.6c-1.2 0-2.17-.96-2.17-2.14ZM27.14 29.9c1.18-.37 1.97-1.84 1.61-3.16A2.4 2.4 0 0 0 26.4 25h-3.36c-.79 0-1.4.63-1.4 1.35V32H23v-5.47c0-.1.14-.21.24-.21h3.15c.47 0 .86.28 1 .7.22.69-.32 1.6-1 1.6h-1.36c-.79 0-1.4.65-1.4 1.38h1.65l1.9 1.56c.25.25.6.44 1 .44h1.4l-2.44-2.1Z" fill="#3C3C3B"/><defs><linearGradient id="a3ys0d32x" x1="31.87" y1="26.03" x2="41.34" y2="28.52" gradientUnits="userSpaceOnUse"><stop stop-color="#0D66C6"/><stop offset="1" stop-color="#6011C5"/></linearGradient><linearGradient id="b3ys0d32x" x1="31.64" y1="26.93" x2="41.11" y2="29.41" gradientUnits="userSpaceOnUse"><stop stop-color="#0D66C6"/><stop offset="1" stop-color="#6011C5"/></linearGradient><linearGradient id="c3ys0d32x" x1="31.32" y1="28.14" x2="40.79" y2="30.63" gradientUnits="userSpaceOnUse"><stop stop-color="#0D66C6"/><stop offset="1" stop-color="#6011C5"/></linearGradient><linearGradient id="d3ys0d32x" x1="32.99" y1="21.79" x2="42.46" y2="24.27" gradientUnits="userSpaceOnUse"><stop stop-color="#0D66C6"/><stop offset="1" stop-color="#6011C5"/></linearGradient></defs></svg>