<!-- by TradingView --><svg width="56" height="56" viewBox="0 0 56 56" xmlns="http://www.w3.org/2000/svg"><path fill="#11375E" d="M0 0h56v56H0z"/><path d="M22.85 23c.23.02.24-.02.01-.1a6.93 6.93 0 0 1-1.58-.75 2.26 2.26 0 0 1-.65-.64c-.1-.15-.24-.41-.41-.77l-.08-.17c-.07-.15-.12-.15-.14.02l-.06.44c-.01.1-.05.1-.1.03a10.75 10.75 0 0 1-1.89-3.25 4.51 4.51 0 0 1 .11-3.55c.1-.2.22-.36.37-.5a.06.06 0 0 1 .06-.01c.03 0 .04.02.04.05.16 1.68.52 3.14 1.07 4.39a5.97 5.97 0 0 0 2.97 3.27c.17.07.19.04.05-.08a3.67 3.67 0 0 1-1.17-2.9c0-.27-.08-.3-.27-.1-.1.14-.2.28-.26.43-.01.02-.02.03-.04.03s-.03-.01-.03-.02a15.9 15.9 0 0 1-1.31-3.15c-.18-.6-.25-1.2-.23-1.79.01-.6.13-1.17.35-1.68A3.64 3.64 0 0 1 22.3 10c.11-.02.15.02.1.13-1.4 3.07-.94 5.56 1.37 7.5.33.27.8.62 1.44 1.03.77.51 1.2 1.27 1.29 2.28l.02.38c.02.37.05.65.09.84.05.3.15.56.29.76.26.39.63.75 1.1 1.08.35.24.81.5 1.38.79.52.25 1.05.65 1.59 1.2.34.34.55.74.62 1.2.03.18.03.4.02.65 0 .16-.03.4-.06.7-.03.22.02.24.15.05.17-.25.31-.54.42-.86.02-.05.05-.07.1-.04.36.2.78.4 1.25.61.29.12.72.3 1.3.51.55.2.95.37 1.2.48.64.26 1.2.64 1.7 1.12.54.52.91 1.08 1.12 1.7.03.08.05.08.06-.01.07-.73-.22-1.4-.86-2.04a5.93 5.93 0 0 0-1.97-1.26c-.78-.32-1.6-.64-2.44-.95-.27-.1-.55-.24-.85-.4-.4-.23-.67-.54-.78-.9a2.35 2.35 0 0 1-.1-.56v-.66c0-.06-.02-.1-.07-.12l-.42-.16c-.03-.01-.04-.04-.03-.07.17-.5.43-.92.76-1.26.05-.05.05-.1 0-.14l-.19-.15a.3.3 0 0 1-.1-.17.3.3 0 0 1 .01-.18c.11-.3.26-.55.44-.76l1.1-1.22a.12.12 0 0 0 .04-.1.12.12 0 0 0-.06-.1 2.24 2.24 0 0 1-1.08-2.49c.02-.1.05-.1.1-.01.43.83 1.03 1.18 1.78 1.04l.66-.13c.56-.13.98-.2 1.26-.22.47-.03.9.03 1.27.17.36.13.77.22 1.26.26 1.09.09 1.67.66 1.74 1.73 0 .07-.02.09-.09.04a2.95 2.95 0 0 0-.58-.31c-.3-.12-.65-.13-1.05 0-.35.1-.66.26-.93.49a3.9 3.9 0 0 0-1.08 1.47c-.3.68-.27 1.32.06 1.95.26.48.73.97 1.4 1.46l1.5 1.1a.2.2 0 0 1 .08.13c.05.2.13.43.26.67a9.91 9.91 0 0 0 .6 1.04c.26.45.42 1.1.47 1.95.01.08-.02.1-.09.04l-.47-.37a.1.1 0 0 0-.07-.02.1.1 0 0 0-.07.04.4.4 0 0 0-.07.18 7.88 7.88 0 0 1-.94 3.12l-.55 1.02c-.04.07-.08.08-.12 0-.06-.08-.1-.17-.13-.26-.05-.16-.13-.17-.22-.03-.3.47-.89.87-1.76 1.2-.4.16-.7.36-.9.6-.21.27-.33.61-.34 1.02 0 .05-.03.08-.08.08a.24.24 0 0 1-.15-.05c-.07-.04-.1-.03-.08.05 0 .03.02.05.03.07.24.29.54.53.88.72.07.04.08.08.03.14a.96.96 0 0 0-.2.36.1.1 0 0 0 .03.1l.77.69c.02.01.02.03.02.05 0 .01-.01.03-.03.03-.1.05-.22.08-.34.09-.3.03-.3.1-.03.2.42.14.8.16 1.14.06.5-.16.94-.22 1.3-.2.43.05.81.23 1.13.56.19.2.29.4.3.6 0 .24-.14.41-.43.51-.02.01-.04 0-.07 0a.07.07 0 0 1-.03-.06 1.49 1.49 0 0 0-.12-.51c-.01-.03-.03-.04-.06-.04s-.05.01-.06.04l-.22.5a.09.09 0 0 1-.06.05h-.04c-.06 0-.09-.04-.09-.1v-.42a.1.1 0 0 0-.1-.1c-.22.03-.39.11-.51.25-.39.41-.86.57-1.41.46-.78-.15-1.57-.34-2.36-.57a.73.73 0 0 0-.57.04 2 2 0 0 0-.45.4.07.07 0 0 1-.07.02.07.07 0 0 1-.05-.05c-.1-.33-.09-.56.04-.72a.77.77 0 0 1 .24-.18 4.66 4.66 0 0 1 .53-.23c.06-.02.1-.07.1-.14.03-.33.01-.62-.06-.88-.1-.37-.3-.55-.6-.54h-.19a.12.12 0 0 1-.1-.1c-.1-.35-.25-.69-.43-1a1.57 1.57 0 0 0-.47-.52c-.14-.1-.35-.2-.62-.31-.07-.03-.08-.07-.06-.13.1-.2.2-.36.34-.46a5.26 5.26 0 0 0 2.02-3.02c0-.02 0-.03-.02-.04l-.05-.01-.04.01-.03.06c-.24.54-.47.94-.67 1.21-.37.49-.73.68-1.1.56-.53-.18-.94-.3-1.21-.36-.46-.11-.88-.16-1.28-.15-.02 0-.04 0-.05-.02a.06.06 0 0 1-.01-.06l.14-.37v-.05a7.9 7.9 0 0 0-2 .17c-.79.21-1.26.6-1.42 1.16a20.78 20.78 0 0 1-.23.74 1 1 0 0 1-.39.47l-1.03.58a.15.15 0 0 0-.09.15c.03.48.17.94.45 1.38.29.46.65.78 1.1.96.14.06.31.1.5.11h.53c.36 0 .63.01.8.05.67.14.96.62.89 1.44a.25.25 0 0 1-.19.23l-.32.1c-.13.04-.2 0-.19-.14.03-.58-.13-.99-.49-1.22-.07-.05-.1-.04-.06.05.1.2.15.42.18.62.04.26.02.47-.05.63a.12.12 0 0 1-.12.08l-2.67-.01c-.13 0-.22-.06-.26-.18l-.09-.28a7.77 7.77 0 0 0-.3-.8c-.13-.3-.3-.53-.49-.72a.1.1 0 0 0-.1-.03.1.1 0 0 0-.08.08l-.08.35c-.02.08-.05.09-.1 0a4.8 4.8 0 0 0-1.02-1.34c-.33-.27-.67-.54-1.02-.8-.14-.1-.25-.23-.34-.38a.13.13 0 0 1 0-.13c.18-.33.45-.57.8-.72l.47-.2c.55-.2.94-.39 1.19-.54.41-.26.69-.56.82-.91.05-.1.02-.13-.08-.07l-.43.28-.8.5c-.3.16-.6.3-.87.4-.61.22-1.22.42-1.83.6-.1.02-.16-.01-.2-.1-.06-.18-.17-.3-.33-.34a.67.67 0 0 0-.47.06c-.67.32-1.15.74-1.44 1.27-.07.11-.12.24-.16.4l-.08.4c-.04.25-.08.44-.12.55-.07.2-.17.36-.3.5a.08.08 0 0 0-.02.1c.02.04.05.06.09.06.34 0 .68.04 1 .1.4.07.75.17 1.04.3.77.35 1.14.88 1.1 1.58 0 .05-.02.07-.08.08l-.47.02c-.06 0-.1-.03-.13-.1l-.35-.97a.06.06 0 0 0-.05-.03l-.05.01a.4.4 0 0 0-.03.04 8.84 8.84 0 0 0 .01.94c0 .02 0 .05-.02.06a8.16 8.16 0 0 1-1.4.1c-.56-.03-.95-.16-1.17-.4a33.08 33.08 0 0 0-.4-.41.94.94 0 0 0-.41-.21 7.27 7.27 0 0 0-.7-.1c-.13-.02-.17-.09-.14-.2.23-.81.44-1.57.61-2.27.07-.3.1-.64.1-1l-.1-1-.08-.61c0-.03 0-.05.02-.07a.09.09 0 0 1 .06-.03 4.32 4.32 0 0 0 1.93-.57 3.33 3.33 0 0 0 1.31-1.42c.2-.4.15-.44-.15-.1a4.32 4.32 0 0 1-2.27 1.4 4.61 4.61 0 0 1-3.18-.33c-.5-.26-.91-.6-1.24-1.03a4.42 4.42 0 0 1-.86-1.99c-.1-.78.04-1.46.45-2.06.35-.52.91-.9 1.67-1.13.3-.1.64-.17 1.04-.23a23.52 23.52 0 0 1 1.64-.18c.48-.06.9-.24 1.25-.56.2-.18.3-.37.35-.58.04-.2.02-.4-.07-.6a1.8 1.8 0 0 0-.35-.54 1.96 1.96 0 0 0-1.72-.64c-.43.04-.85.15-1.24.34-.48.22-1 .3-1.56.25-.46-.05-.97-.2-1.53-.44-.08-.04-.08-.07.01-.1.56-.14 1.1-.36 1.6-.65.37-.22.81-.34 1.34-.35.12 0 .14-.05.05-.13l-.22-.22c-.08-.08-.06-.1.05-.1l.72.1c.4.03.69.06.88.1.32.05.59.12.81.22.69.28 1.26.82 1.7 1.6.16.26.25.54.26.82.02.27-.02.53-.13.78-.1.24-.26.46-.47.65-.2.2-.45.34-.73.45-.29.1-.62.2-1 .26-.24.05-.6.1-1.06.15l-.89.11c-.55.09-1.01.27-1.37.55-.33.26-.55.59-.67.98a2.3 2.3 0 0 0-.02 1.22 3.48 3.48 0 0 0 2.4 2.47 2.6 2.6 0 0 0 1.61-.06c.47-.16.92-.46 1.35-.89.35-.35.7-.78 1.07-1.28a34.25 34.25 0 0 0 1.27-1.9c.2-.3.39-.54.6-.73.29-.28.56-.41.8-.4.17 0 .36.06.59.16l.59.3.42.22a8.42 8.42 0 0 0 5.25.57v-.01a.05.05 0 0 1-.01-.04c0-.01 0-.02-.02-.03a28.7 28.7 0 0 1-2.04-.19c-.76-.1-1.44-.24-2.04-.42a6.41 6.41 0 0 1-3.38-2.2c-.06-.07-.04-.1.05-.06.99.4 1.83.6 2.52.63a2.7 2.7 0 0 0 2.28-.92c.12-.13.1-.17-.07-.1-.39.15-.7.26-.95.33-.33.1-.63.16-.91.18a2.88 2.88 0 0 1-1.84-.48c-.18-.12-.25-.07-.2.13v.16c0 .05-.02.07-.07.05-.62-.2-1.17-.5-1.65-.9a3.59 3.59 0 0 1-1.1-1.45c-.05-.15-.02-.17.1-.06.43.37 1.02.7 1.77.97.63.22 1.3.4 2 .5.4.06.76.06 1.1 0 .38-.08.7-.23.97-.46.06-.05.05-.07-.02-.05l-.54.15c-.53.16-1.06.18-1.6.07-.53-.11-1.01-.34-1.46-.7a1.36 1.36 0 0 1-.2-.22l-.2-.23c-.05-.03-.08-.02-.1.03l-.1.34c0 .05-.04.06-.09.04-2.17-1.15-3.23-2.55-3.2-4.22.01-.15.05-.16.12-.03a7.35 7.35 0 0 0 2.5 2.6 6.19 6.19 0 0 0 3.56.9l.03-.06c0-.01 0-.02-.02-.03-.53-.12-1.08-.24-1.66-.34-.52-.1-.96-.36-1.3-.79-.13-.15-.29-.2-.47-.12a.2.2 0 0 1-.15 0c-.28-.1-.53-.27-.75-.5a7.98 7.98 0 0 1-1.53-2.46 3.75 3.75 0 0 1-.1-2.77c.05-.12.1-.12.14 0 .29.84.65 1.64 1.1 2.38.51.83 1.08 1.51 1.7 2.06a4.36 4.36 0 0 0 2.8 1.15Z" fill="#fff"/><path d="M30.4 24.7a9.24 9.24 0 0 0-1-.52c-.39-.18-.67-.33-.86-.44a3.04 3.04 0 0 1-1.37-1.62 7.36 7.36 0 0 1-.26-1.17 8.24 8.24 0 0 0-.22-1.05 3.3 3.3 0 0 0-.91-1.4 8.14 8.14 0 0 0-1.42-1.04 1.18 1.18 0 0 1-.49-.58c-.1-.23-.13-.48-.1-.75.13-1.98.98-3.52 2.54-4.62a.05.05 0 0 1 .06 0 75.37 75.37 0 0 1-.1 1.66c-.08.7.1 1.44.54 2.26.38.71.87 1.34 1.48 1.88l1.16 1.02c.42.37.66.83.71 1.36.03.21.02.46-.01.74l-.13.76c-.1.52-.16.9-.17 1.16-.01.43.05.81.2 1.15.16.36.32.73.47 1.11.06.16.02.19-.12.1Z" fill="#fff"/><path d="M35.15 20.65c.31-.25.73-.4 1.25-.46.12-.02.15.03.09.13-.15.25-.35.43-.58.54-.29.14-.54.1-.76-.11a.06.06 0 0 1-.02-.05c0-.02 0-.04.02-.05Z" fill="#11375E"/><path d="M39.8 39.33c-.15-.01-.17.04-.06.15.2.17.44.3.75.39.18.05.47.1.85.14l.43.06c.27.04.52.15.74.32.22.16.37.34.44.54.08.22.06.41-.07.58-.15.2-.42.33-.81.4-.03.01-.06 0-.07-.02a.06.06 0 0 1-.01-.07c.26-.48.18-.78-.24-.9a2.2 2.2 0 0 0-.6-.06 8.42 8.42 0 0 0-.86.06.1.1 0 0 1-.11-.06l-.02-.04a7.3 7.3 0 0 0-.25-.41 1.52 1.52 0 0 0-.28-.31 1.4 1.4 0 0 0-.9-.27h-.13c-.29-.01-.5 0-.65.03-.02 0-.04 0-.05-.02a.05.05 0 0 1-.01-.06c.11-.29.18-.54.2-.76a1.2 1.2 0 0 0-.45-1.06 4.08 4.08 0 0 0-.62-.45.16.16 0 0 0-.13-.02c-.15.03-.3.1-.45.2-.1.06-.16.04-.2-.07l-.13-.5c-.01-.05 0-.1.02-.15a.22.22 0 0 1 .11-.1 9.65 9.65 0 0 0 1.86-1.04 10.3 10.3 0 0 1 .07.1c.19.44.34.75.46.95.2.34.42.61.67.83.02.01.03.03.02.05 0 .02-.02.04-.04.04l-.26.03c-.06 0-.1.04-.13.1a.15.15 0 0 0 .01.16c.16.23.36.43.6.62a8.71 8.71 0 0 0 .74.5c.07.05.06.08-.02.1-.14.03-.27.03-.41.02Z" fill="#fff"/></svg>