<!-- by TradingView --><svg xmlns="http://www.w3.org/2000/svg" width="56" height="56" viewBox="0 0 56 56"><path fill="#F0F3FA" d="M0 0h56v56H0z"/><path d="M26.22 41c-8.23-1.47-10.32-7.43-10-11.85h-.68c-.5 0-.99 0-1.48-.06H14c.3 5.4 3.93 10.93 12.22 11.91zm-9.27-15.04c2.89-6.45 10.56-6.26 13.94-2.33.13.18.31.36.43.55a6.5 6.5 0 0 0 3.32-4.67c-8.9-7.61-18.61-1.6-20.33 6.14-.13.5-.19.98-.25 1.48.5-.07.98-.07 1.48-.07.18 0 .61 0 1.04-.06.12-.37.25-.73.37-1.04z" fill="#358640"/><path d="M17.08 29.2c-.56 4.22 1.49 9.48 9.54 11.8-6.87-3-7.87-7.64-7.3-10.57-.32-.13-.63-.3-.87-.5l-.87-.6v-.07c-.13-.06-.31-.06-.5-.06zm3.9-3.85a9.3 9.3 0 0 1 6.02.98c1.17-.73 2.29-1.9 2.47-3-2.9-1.7-7.37-2.32-10.6 1.53a7.3 7.3 0 0 0-1.1 1.9 6.68 6.68 0 0 1 3.22-1.4z" fill="#6CB545"/><path d="M12.92 28.21c.31.31 2.17.25 3.47.31.93.06 1.12.14 1.8.64.74.8 3.6.93 4.52.8l.62-.18c1.05-.62 2.3-.7 3.53-.7l.8-.08c5.77 0 11.9 1.63 9.73 5.42a13.15 13.15 0 0 1-17.96 4.9 13.1 13.1 0 0 1-6.45-9.74c-.06-.31-.06-1-.06-1.37zM27.54 27l-.8-.15c-1.24 0-2.3-.05-3.41-.67l-.62-.2s-3.82-.12-4.63.69c-.68.5-.88.67-1.75.74-1.24.12-3.22 0-3.47.3 0-.37.06-1.05.06-1.36A13 13 0 0 1 27.48 15c4.1.5 7.68 2.91 9.73 6.45 2.23-2.23 1.3-6.2-2.6-8A16 16 0 1 0 43.96 27H27.54z"/></svg>