<!-- by TradingView --><svg width="56" height="56" viewBox="0 0 56 56" xmlns="http://www.w3.org/2000/svg"><path fill="url(#aclwxctiw)" d="M0 0h56v56H0z"/><circle cx="28" cy="28" r="16" fill="url(#bclwxctiw)"/><path fill-rule="evenodd" d="M37.48 23H18.52c-.29 0-.52-.22-.52-.5V21.5c0-.3.19-.57.48-.68l9.5-3.81 9.54 3.8c.3.12.48.4.48.69v1.02c0 .27-.23.49-.52.49ZM24 20.5c0-.28.28-.5.63-.5h6.74c.35 0 .63.22.63.5s-.28.5-.63.5h-6.74c-.35 0-.63-.22-.63-.5ZM23 24h-3v6h3v-6Zm-4.22 9.5a.76.76 0 0 0-.78.74v1.02c0 .41.35.74.78.74h18.44c.43 0 .78-.33.78-.74v-1.02c0-.41-.35-.74-.78-.74H18.78ZM26.5 24h3v6h-3v-6Zm9.5 0h-3v6h3v-6Zm-17 7.84c0-.47.4-.84.88-.84h3.24c.49 0 .88.37.88.84V33h-5v-1.16Zm7.38-.84a.86.86 0 0 0-.88.84V33h5v-1.16c0-.47-.4-.84-.88-.84h-3.24Zm5.62.84c0-.47.4-.84.88-.84h3.24c.49 0 .88.37.88.84V33h-5v-1.16Z" fill="#3F3F3F"/><defs><linearGradient id="aclwxctiw" x1="10.42" y1="9.71" x2="68.15" y2="76.02" gradientUnits="userSpaceOnUse"><stop stop-color="#1A1E21"/><stop offset="1" stop-color="#06060A"/></linearGradient><linearGradient id="bclwxctiw" x1="12" y1="24.1" x2="42.46" y2="34.14" gradientUnits="userSpaceOnUse"><stop stop-color="#DBDBDB"/><stop offset="1" stop-color="#B1B1B1"/></linearGradient></defs></svg>