<!-- by TradingView --><svg xmlns="http://www.w3.org/2000/svg" width="56" height="56"><path fill="#F0F3FA" d="M0 0h56v56H0z"/><path d="M23.03 21.6L28 11l-9.85 3.36 4.88 7.24z" fill="#2AAAE1"/><path d="M34.75 23.59L28 11l9.95 3.36 6 8.47-9.2.76z" fill="#0772B9"/><path d="M23.02 21.6L28 11l6.77 12.55-6.67 4.4-5.08-6.36z" fill="#FFCF03"/><path d="M12 22.76l6.15-8.4 4.88 7.23-7.8 7.06L12 22.76z" fill="#8DBF44"/><path d="M12 33.15V22.76l3.24 5.87L12 33.15z" fill="#0882C5"/><path d="M18.11 41.64L12 33.16l3.24-4.58 4.97 2.6-2.1 10.46z" fill="#FFCF03"/><path d="M20.14 31.16l-4.9-2.54 7.78-7.03 5.06 6.33-7.94 3.24z" fill="#EB5B27"/><path d="M28 35.88l-7.86-4.72 7.86-3.2v7.92z" fill="#0882C5"/><path d="M28 35.91v-7.96l6.77-4.41.64 6.48-2.4 3.23L28 35.91z" fill="#EB5B27"/><path d="M44 22.78l-9.23.78.63 6.44 8.6 3.28v-10.5z" fill="#0882C5"/><path d="M37.93 41.6L35.41 30 44 33.26l-6.07 8.33z" fill="#0772B9"/><path d="M32.93 33.26L35.4 30l2.53 11.6-5.01-8.33z" fill="#02538A"/><path d="M28 45v-9.14l4.93-2.61 5.01 8.34L28 45z" fill="#0882C5"/><path d="M28 45l-7.8-13.8 7.8 4.68V45z" fill="#47AC4C"/><path d="M18.11 41.65l2.1-10.46L28 45l-9.9-3.35z" fill="#0971B8"/></svg>