<!-- by TradingView --><svg width="56" height="56" xmlns="http://www.w3.org/2000/svg"><path fill="#F0F3FA" d="M0 0h56v56H0z"/><path d="M6.645 26h2.357v.716h-2.1c-.31 0-.902.156-.902 1.23 0 1.154.582 1.382.902 1.354H8a19.888 19.888 0 010-.716c.006-.162-.221-.223-.31-.234h-.788v-.7a60.02 60.02 0 011.842 0c.8.012 1 .394 1 .584V30h-3.1C4.774 30 4 28.67 4 27.945 4 26.546 5.758 26 6.645 26z" fill="#1A6740"/><path fill-rule="evenodd" d="M10.51 26h2.852c.759-.01 2.474.228 2.516 1.154.016.34-.277.9-1.542 1.115L16.399 30h-2.256l-1.716-1.453V30H10.51v-4zm1.908.697h.684c.28 0 .754.121.762.448.007.326-.482.507-.762.507h-.684v-.955z" fill="#1A6740"/><path d="M17.541 26h3.495v.714h-2.459v.937h2.459v.722h-2.459v.905h2.459V30H17.54c-.686-.038-.817-.577-.796-.841v-2.373c0-.641.53-.791.796-.786zm4.942 0h3.494v.714H23.52v.937h2.458v.722H23.52v.905h2.458V30h-3.494c-.687-.038-.817-.577-.797-.841v-2.373c0-.641.531-.791.797-.786zm4.066.757V30h1.186v-2.085c.468.416 1.53 1.354 2.03 1.781.498.427.925.326 1.11.167l.802-.735-3.243-2.766c-.35-.316-.736-.372-.884-.36-.784.005-.994.505-1.001.755z" fill="#1A6740"/><path d="M41.13 26.757V30h1.185v-2.085c.469.416 1.53 1.354 2.03 1.781.499.427.925.326 1.11.167l.802-.735-3.242-2.766c-.351-.316-.736-.372-.885-.36-.784.005-.994.505-1 .755zM31.663 26h-2.475l2.475 2.326V26z" fill="#95C340"/><path d="M46.243 26H43.77l2.474 2.326V26z" fill="#1A6740"/><path fill-rule="evenodd" d="M32.512 26v3.43c-.021.186.16.56 1.049.566.89.007 2.043.003 2.508 0l.245-.485h2.332l.249.485h1.975l-1.75-3.427c-.113-.243-.407-.537-1.088-.567-.68-.03-1.121.304-1.246.567l-1.407 2.763h-.782a.275.275 0 01-.26-.268 196.65 196.65 0 010-3.064h-1.825zm4.973 1.236l-.796 1.561h1.592l-.796-1.56zM46.637 26H49.4c1.116 0 2.578.666 2.599 2 .02 1.334-1.474 2-2.599 2h-2.764v-4zm2.001.705h.616c.25-.016.757.219.746 1.295-.011 1.076-.508 1.302-.746 1.302h-.616v-2.597z" fill="#95C340"/></svg>