<!-- by TradingView --><svg width="56" height="56" viewBox="0 0 56 56" xmlns="http://www.w3.org/2000/svg"><path fill="#F0F3FA" d="M0 0h56v56H0z"/><path d="M7 27.55V29h1v2.4A3.73 3.73 0 0 1 5.57 28a3.63 3.63 0 0 1 3.88-3.57V23h-.2A5.13 5.13 0 0 0 4 28c0 2.76 2.35 5 5.25 5h.2v-4H10v-1.45H7ZM19.49 31.54c-.7 0-1.27-1.13-1.27-2.54 0-1.4.56-2.54 1.27-2.54.7 0 1.27 1.13 1.27 2.54 0 1.4-.57 2.54-1.27 2.54Zm0-6.54c-1.55 0-2.8 1.8-2.8 4s1.25 4 2.8 4c1.54 0 2.79-1.8 2.79-4s-1.25-4-2.8-4ZM13.23 31.54c-.7 0-1.27-1.13-1.27-2.54 0-1.4.57-2.54 1.27-2.54.7 0 1.28 1.13 1.28 2.54 0 1.4-.57 2.54-1.28 2.54Zm0-6.54c-1.54 0-2.79 1.8-2.79 4s1.25 4 2.8 4c1.54 0 2.79-1.8 2.79-4s-1.25-4-2.8-4ZM52 30.62c0-.7-.3-1.16-.76-1.67-.34-.38-.83-.76-1.2-1.12a1.07 1.07 0 0 1-.31-.89c.01-.13.13-.56.55-.62.56-.08.97.27.97.27l.5-1.23-.19-.1a2.93 2.93 0 0 0-1.84-.19c-.61.14-1.06.53-1.22.83a2.1 2.1 0 0 0-.17 1.6c.13.58.48 1.12.98 1.53.11.1.66.48.9.74.18.19.32.46.35.74.04.3-.1.65-.23.78-.17.16-.41.24-.64.29-.43.1-1.13.07-1.13.07V33s.46.01 1.23-.09c.73-.1 1.5-.44 1.92-1.1.24-.38.3-.82.29-1.19ZM35 33h-1.44v-8H35v8ZM45.48 29.64H47v-1.35h-1.52v-1.93h1.89L47.36 25H44v7.99l3.36.01v-1.35h-1.88v-2.01ZM31 30.27V26.3h2V25h-2v-1l-1.47.01v1H28v1.29h1.53v4.07c0 1.72 1.4 2.63 3.47 2.63v-1.29s-.7 0-.89-.03c-1.05-.21-1.1-.67-1.11-1.4ZM26.47 29a2.61 2.61 0 0 1-1.94 2.42v-4.86A2.48 2.48 0 0 1 26.48 29Zm-2.7-4c-.26 0-.47 0-.76.02H23V33l.7.01c2.3 0 4.3-1.8 4.3-4s-1.91-4-4.23-4ZM36 25v8h1.52v-6.18c.07.1.32.24.44.4.27.37.47.86.6 1.26l.14.5.03.15.01.05.02.12h1.47l.02-.12.02-.05.03-.15.14-.5c.13-.4.33-.9.6-1.25.12-.17.42-.32.5-.4V33h1.45l.01-8H41.53s-.75.5-1.32 1.08c-.3.3-.53.72-.7 1.08h-.01a4.52 4.52 0 0 0-.71-1.08c-.57-.59-1.32-1.07-1.32-1.08" fill="#A91A2D"/></svg>