<!-- by TradingView --><svg xmlns="http://www.w3.org/2000/svg" width="56" height="56"><path fill="#ED1C24" d="M0 0h56v56H0z"/><path d="M19 29.33c-.83.02-2.44.12-2.44 1.3 0 .62.42 1.04 1.2 1.04.67 0 .99-.25 1.24-.47v-1.87zm.42 3.67l-.27-.65a2.8 2.8 0 01-2.03.82c-1.37 0-2.44-.94-2.44-2.4 0-1.53 1.21-2.64 3.1-2.7L19 28c0-1-.6-1.41-1.4-1.5a3.47 3.47 0 00-2.6.97V25.7a5.37 5.37 0 013.05-.88c1.84 0 2.95 1.32 2.95 3.28v2.93c0 1.08.03 1.63.14 1.97h-1.72zm19.13-6.65c-.95 0-1.53.88-1.53 1.65h3.02c0-.73-.49-1.65-1.5-1.65zm-1.49 3.24c.03 1.2 1 2.06 2.2 2.06.73 0 1.66-.4 2.34-.77v1.53c-.87.64-1.75.89-2.67.89-2.71 0-3.93-2.07-3.93-4.25 0-2.32 1.38-4.25 3.6-4.25 2.1 0 3.47 1.66 3.47 4.2v.6h-5zM28 25c-1.07-.33-2.17.06-3 .8V25h-2v8h2v-5.5c.75-.84 2.06-1.13 3-.84V25zm6 0c-1.07-.33-2.17.06-3 .8V25h-2v8h2v-5.5c.75-.84 2.06-1.13 3-.84V25zm18 1.55V25h-1v-2h-2v2h-3v-2l-2-.03V25h-1v1.55h1v4.6c0 1.45 1.2 2.23 3 2.23v-1.63c-.78 0-1-.4-1-.97v-4.23h3v4.6c0 1.45 1.2 2.23 3 2.23v-1.63c-.78 0-1-.4-1-.97v-4.23h1zM13.01 27H9l2 1.56v2.72a3.6 3.6 0 01-1.25.22c-5.01 0-4.73-7.85.25-7.85 1.09 0 2.2.23 3 .64v-1.74A9.64 9.64 0 009.81 22 5.65 5.65 0 004 27.86a5.02 5.02 0 005.27 5.21c1.46 0 2.81-.34 3.73-.78v-.01l.01-5.28z" fill="#fff"/></svg>