<!-- by TradingView --><svg width="56" height="56" viewBox="0 0 56 56" xmlns="http://www.w3.org/2000/svg"><path fill="#F0F3FA" d="M0 0h56v56H0z"/><path d="m18.73 24.72-.45 1.9a8.72 8.72 0 0 0-3.16-.62C13.5 26 11 27.07 11 30.05A3.76 3.76 0 0 0 14.67 34c1.01 0 1.12-.18 1.33-.27V31h-2v-2h5v6.46c-.57.18-2.15.54-3.88.54C11.52 36 8 34.56 8 30.05 8 25.53 12.15 24 14.94 24c2.24 0 3.46.48 3.79.72ZM20 24h3v4.76A3 3 0 0 0 25 34a3 3 0 0 0 2-5.24V24h3v7.52c0 2.82-2.24 4.48-5 4.48s-5-1.66-5-4.48V24Zm14 0h-3v12h8v-2h-5V24Zm6 12h3v-5h5v-2h-5v-3h5v-2h-8v12Z" fill="#ABACAD"/><path d="M21.55 19.73c2.83.7 3.48 3.8 3.45 5.27-.56-1.11-2.09-3.45-3.7-3.87-3.57-.84-4.35-3.1-4.3-4.13.34.62 1.72 2.02 4.55 2.73Z" fill="#FF9200"/><path d="M29.64 17c-3.36 0-3.8 4.67-3.6 7 .69-6.27 5.6-6.44 7.96-5.75A8.36 8.36 0 0 0 29.64 17Z" fill="#875E3E"/><path d="M27 16.7c-1.17 1-1.41 3.95-1.38 5.3-.21-.15-.62-.81-.62-2.3 0-1.85 1.08-3.7 1.46-3.7.39 0 .54.44.54.7Z" fill="#875E3E"/><path d="M40.11 18c4.05 0 6.28-1.16 6.89-1.83-1.16 1.28-4.2 3.83-7.06 3.83-3.58 0-4.45-2-5.67-2.78-.97-.63-3.25-.61-4.27-.52a5 5 0 0 1 2.35-.7c3.84 0 4.19 2 7.76 2Z" fill="#FF9200"/></svg>