<!-- by TradingView --><svg width="56" height="56" viewBox="0 0 56 56" xmlns="http://www.w3.org/2000/svg"><path fill="#F0F3FA" d="M0 0h56v56H0z"/><path d="M10 26.84c0 6.02 4.21 9.82 6.32 10.97l.8-1.48c-1.82-1.1-5.45-4.52-5.45-9.5 0-4.97 3.77-8.36 5.66-9.44l-1-1.39A12.63 12.63 0 0 0 10 26.84Zm18 14.1c-10.12 3.33-16.07-2-17.78-5.09l1.23-1.09c4.6 6.77 12.46 5.9 15.81 4.6.21.53.65 1.58.74 1.58Zm-14.61-17.9 1.48.65c-1.07 3.2-1.1 9.96 7.4 11.34v1.67c-4.49 0-11.9-4.37-8.88-13.66Z" fill="#F9A11B"/><path d="m27.6 23.17.25-1.46a7.3 7.3 0 0 0-2.98-.71C22.28 21 19 22.63 19 26.83S22.74 32 24.74 32c1.6 0 2.84-.44 3.26-.66V26h-4v1.39h2.5v3.07c-2.94.58-6-.39-6-3.63 0-3.24 2.46-4.34 4.24-4.34 1.42 0 2.5.45 2.86.68Zm2.47 6.73-.3 1.57c.54.18 1.8.53 2.6.53 1 0 3.7-.53 3.7-2.93 0-2.39-1.55-3.07-2.92-3.57-1.38-.51-1.77-.97-1.77-1.74 0-.78.8-1.38 1.92-1.38.9 0 1.6.42 1.83.63l.4-1.43a4.42 4.42 0 0 0-2.38-.58c-1.57 0-3.38 1.02-3.38 2.76 0 1.74.86 2.66 2.4 3.24 1.55.58 2.05 1.13 2.05 1.83 0 .7-.34 1.7-1.84 1.7-1.2 0-2.04-.42-2.3-.63ZM37 21v11h6v-1.5h-4.5v-3.45h4V25.6h-4v-3.1H43V21h-6Z" fill="#016097"/></svg>