<!-- by TradingView --><svg width="56" height="56" viewBox="0 0 56 56" xmlns="http://www.w3.org/2000/svg"><path fill="#F0F3FA" d="M0 0h56v56H0z"/><path d="M23.78 35.16c-.39.15-2.14.84-5.02.84-3.05 0-6.79-.92-6.79-5.25 0-6.73 9.6-17.74 23.88-17.74C38.9 12.9 45 14.15 45 20c-.02.44-.18 1.51-.63 2.29-.03 0-.07-.08-.13-.22-.38-.85-1.73-3.85-7.72-3.85-7 0-15.72 6.66-15.72 12.52 0 2.26 2.02 3.86 3.03 4.38l-.05.03ZM11.5 33.93c-.22.13-.51.5-.51 1.55S12.04 43 20.74 43s17.29-5.73 21.6-13H45l-3.69-6.02L32.76 30h2.4c-2.2 2.64-8.52 7.88-16.34 7.88-4.28 0-6.65-2.63-7.3-3.95Z" fill="#0069B6"/></svg>