<!-- by TradingView --><svg width="56" height="56" viewBox="0 0 56 56" xmlns="http://www.w3.org/2000/svg"><path fill="#F0F3FA" d="M0 0h56v56H0z"/><path d="M15.28 27v1.5H9.43V27h5.85ZM10 22v11H8V22h2Zm7 0v11h-2V22h2ZM23.44 23.57 20.14 33h-1.99l4.15-11h1.27l-.13 1.57ZM26.19 33l-3.3-9.43-.14-1.57h1.28l4.16 11h-2ZM26 29l.04 1.54h-6L20 29h6ZM33.72 23.57 30.42 33h-1.98l4.14-11h1.28l-.14 1.57ZM36.48 33l-3.3-9.43-.15-1.57h1.28l4.17 11h-2Zm-.16-4v1.54h-6V29h6ZM46.1 29.37H48c-.2 2.32-2.08 3.63-4.32 3.63C40.8 33 39 30.63 39 27.95v-.9c0-2.7 1.86-5.05 4.74-5.05 2.28 0 4.02 1.37 4.26 3.68h-1.9c-.14-1.38-.94-2.2-2.36-2.2C41.76 23.48 41 25.3 41 27v1c0 1.65.7 3.53 2.68 3.53 1.41 0 2.25-.76 2.42-2.16Z"/></svg>