<!-- by TradingView --><svg width="56" height="56" xmlns="http://www.w3.org/2000/svg"><path fill="#F0F3FA" d="M0 0h56v56H0z"/><circle cx="27.956" cy="28.452" r="12.16" fill="#FFE59E"/><path d="M44.025 29.5c-.741.028-2.025-.012-2.487-.077l.008-.305c-.096 7.424-6.144 12.925-13.59 12.925-7.18 0-13.06-5.568-13.557-12.622-.69.303-1.62.83-2.399.579.826 8.114 7.624 14.19 15.956 14.19 8.58 0 15.593-6.228 16.069-14.69zM43.243 23.048c-.93.429-2.013.458-2.668.349-2.005-5.003-6.9-8.536-12.62-8.536-5.654 0-10.502 3.454-12.55 8.366l-2.706-.27C14.843 16.587 20.864 12 27.956 12c7.126 0 13.17 4.631 15.287 11.048z" fill="#5D9731"/><path d="M18.303 18.611v.172l.194.009c.212.008.332.035.41.09.104.07.097-.09.093 2.242-.004 1.755-.007 2.33-.024 2.361-.05.1-.198.149-.48.161l-.192.008V24h2.313l-.004-.172-.005-.17-.167-.01c-.182-.008-.302-.035-.364-.084-.078-.062-.077-.27-.077-1.363v-1.009l.035-.033.034-.035h.992c.831 0 .866.001.9.028l.035.026.004.995c.003.685-.001 1.245-.013 1.284-.018.073-.083.132-.173.16-.038.012-.15.025-.248.03l-.179.008V24h2.289a.75.75 0 00.01-.172v-.17l-.184-.01c-.27-.013-.407-.055-.473-.142L23 23.467v-4.496l.03-.04c.066-.088.198-.128.47-.14l.192-.008v-.345H21.387v.35h.123c.161.001.33.032.388.07.103.072.098.018.098.983v.866l-.04.033-.038.034h-.843c-.463 0-.984-.004-1.002-.009-.073-.02-.073-.022-.073-.928 0-.912-.001-.901.077-.963.06-.047.172-.074.36-.084l.171-.01.005-.172.004-.17H18.304v.173zM26.521 19.39c-.402 1.114-.731 2.263-1.134 3.372-.177.488-.295.875-.835.948V24h1.552v-.29c-.16-.008-.432.013-.516-.163-.046-.095-.032-.18.098-.575.116-.354.136-.624.227-.658.026-.01.265-.015.695-.015.729 0 .743.001.796.09.023.038.133.55.189.719.051.148.105.347-.019.47-.127.128-.343.123-.512.135 0 .032-.006.287.012.287h2.485v-.29c-.204-.042-.4-.105-.531-.28-.078-.107-.087-.124-.252-.528-.272-.671-.467-1.371-.744-2.044l-.434-1.056c-.104-.254-.21-.547-.312-.802h-.636c-.047.115-.086.272-.129.39zm.16 1.171l.311.775c.105.26.195.497.2.525.009.073-.027.114-.109.131-.072.014-.916.017-1.012.005-.052-.008-.07-.017-.083-.044-.017-.038-.004-.084.176-.605l.227-.658c.134-.396.148-.434.16-.434.004 0 .062.137.13.305zM30.376 19.147l.004.151.21.01c.285.012.347.03.392.116.02.038.022.222.018 2.314l-.004 1.845-.044.04c-.057.05-.138.066-.383.078l-.196.01V24h2.24c.005 0 .01-.064.01-.144v-.143l-.202-.01c-.305-.015-.393-.051-.422-.174-.017-.072-.016-3.99.001-4.063.015-.066.066-.112.147-.135.03-.01.151-.02.266-.025l.21-.008v-.294L31.279 19l-.907-.003.004.15zM33.514 19.152v.151l.165.008c.245.01.357.07.395.207.022.084.012 3.885-.012 3.952-.054.16-.156.217-.41.232l-.152.008V24h1.637v-.294H35c-.411-.001-.52-.077-.55-.379-.017-.164-.018-3.404-.003-3.404L37.113 24h.639l.003-2.088.004-2.43.033-.051c.053-.085.133-.114.335-.12l.171-.006V19l-.758.003-.76.004v.294l.19.008c.268.013.333.045.394.193l.032.079.004 1.59c.001.686-.002 1.248-.008 1.248-.008 0-.072-.084-.143-.186-.073-.1-.24-.335-.37-.52-.53-.744-.887-1.589-1.412-2.326L35.19 19h-1.677v.152zM12.004 23.412c-.845.079-1.423.304-1.971.767-.357.3-.694.814-.845 1.288-.298.932-.24 1.964.158 2.752.269.531.685.95 1.192 1.197.579.283 1.343.378 2.011.253a4.951 4.951 0 001.798-.755 3.52 3.52 0 00.187-.137l.05-.04-.092-.142-.126-.201c-.02-.033-.041-.058-.048-.056a2.983 2.983 0 00-.18.102 6.484 6.484 0 01-.742.367c-.675.262-1.315.27-1.803.023-.31-.158-.577-.446-.749-.811-.403-.858-.386-2.276.04-3.18.236-.502.58-.838.994-.97.16-.051.255-.065.44-.065.419 0 .734.129 1.023.417.279.278.469.659.585 1.17l.008.037.094-.021c.053-.01.172-.021.266-.021.143-.003.172-.007.172-.024a7.766 7.766 0 01-.035-1.666c.008-.042.02-.036-.189-.081-.42-.09-.996-.17-1.44-.197a9.675 9.675 0 00-.798-.006zM42.383 24.086a.538.538 0 00-.01.137v.129l.184.01c.2.012.312.034.385.08.095.058.088-.096.088 2.099 0 1.974 0 1.99-.028 2.037-.054.09-.247.142-.52.142h-.11V29h4.151l.01-.207c.021-.448.078-.856.183-1.298.02-.081.035-.155.035-.165 0-.02-.232-.074-.247-.059a2.465 2.465 0 00-.07.221c-.221.762-.463 1.069-.94 1.19-.11.028-.156.031-.52.031-.448 0-.517-.011-.594-.09l-.042-.044-.004-2.037-.003-2.035.046-.046a.283.283 0 01.104-.062c.064-.018.408-.042.589-.043h.116l-.004-.137-.005-.136-1.393-.004a51.319 51.319 0 00-1.401.007zM39.378 24.407l-.05.137-.235.65-.728 2.015c-.3.836-.344 1.216-.467 1.348a.472.472 0 01-.31.152l-.11.017V29l.703-.003.702-.004.004-.134.004-.135-.137-.008c-.168-.008-.254-.038-.313-.105-.044-.049-.045-.052-.038-.162.016-.25.256-1.084.256-1.084s.025-.004.718 0c.618.005.625.005.668.035.037.025.058.069.129.26.094.25.124.636.137.747.021.177-.127.29-.408.309l-.132.008V29h2.294v-.279l-.066-.01c-.251-.035-.429-.182-.54-.451-.106-.25-.542-1.593-.95-2.59-.322-.784-.416-1.014-.45-1.091a4.52 4.52 0 01-.058-.143l-.027-.067h-.581l-.015.038zm-.069 1.085c0 .003.038.1.086.214.533 1.311.527 1.297.461 1.35-.03.025-.063.027-.538.027-.375 0-.51-.005-.523-.017-.035-.035-.056.034.343-1.133.082-.245.155-.445.162-.445.005 0 .01.001.01.004zM28.923 24.42c-.792.038-1.317.408-1.462 1.026-.078.339-.037.679.114.932.072.124.264.308.41.393.176.103.313.152.858.305.461.128 1.073.557.978 1.11a.625.625 0 01-.17.36c-.14.146-.33.22-.595.234-.532.028-.936-.28-1.24-.947l-.072-.16-.053.004c-.13.01-.307.04-.304.052a7.328 7.328 0 01.112.957l.009.206.13.01c.13.01.28.032.663.098.646.11 1.168.063 1.579-.143.24-.12.425-.303.533-.526.168-.35.193-.874.094-1.25-.104-.394-.349-.635-.822-.807a9.462 9.462 0 00-.482-.142c-.77-.209-.835-.233-.972-.36a.466.466 0 01-.164-.345.555.555 0 01.186-.483c.144-.132.326-.196.595-.207.292-.013.51.052.721.211.177.133.36.418.44.68l.033.108c.004.007.322-.028.332-.037a.314.314 0 00-.004-.113 10.538 10.538 0 01-.063-.83l-.01-.261h-.128c-.07 0-.233-.013-.365-.028-.208-.024-.744-.06-.783-.053a2.101 2.101 0 01-.098.007zM14.84 24.519a.55.55 0 00-.01.14v.13h.082c.123 0 .294.026.361.056.11.049.104-.093.1 1.792l-.005 1.963-.039.034c-.057.049-.167.075-.341.085l-.158.008v.276L16.715 29l1.884-.004.01-.14c.018-.242.067-.62.118-.893.026-.144.047-.27.047-.28 0-.012-.047-.023-.156-.034a1.581 1.581 0 00-.16-.013l-.096.19c-.267.537-.547.796-.94.876-.167.034-.8.027-.868-.011-.092-.05-.088-.004-.088-.888v-1.085l.034-.034c.046-.046.1-.053.389-.046.274.007.331.02.433.09.096.067.151.184.18.383.008.057.018.409.022.434l.007.046.15-.004c.14-.004.15-.005.146-.032-.001-.015-.01-.475-.018-.677-.015-.35-.001-1.025.022-1.086.008-.021-.006-.024-.145-.024h-.152l-.009.081a.845.845 0 01-.1.312.504.504 0 01-.238.16c-.096.031-.5.044-.603.022-.125-.028-.118.018-.118-.765 0-.672 0-.689.03-.724.049-.064.098-.07.566-.063.385.007.445.01.541.037.287.078.45.245.61.62.031.075.058.142.058.15 0 .04.043.052.182.056l.144.003-.01-.13a15.5 15.5 0 01-.037-.834v-.184H16.7c-1.018 0-1.856.004-1.86.01zM19.457 24.789c.154 0 .419-.024.518.128.028.046.028.34.025 1.996l-.004 1.67c-.149.136-.35.13-.539.141V29H22.701l.008-.214a5.99 5.99 0 01.144-1.063.793.793 0 00.03-.168c-.007-.021-.266-.06-.29-.045-.007.004-.014.018-.014.028 0 .011-.028.11-.063.223-.151.486-.305.721-.554.846-.283.143-.713.239-.958-.014L21 26.92c-.003-1.827-.007-2.023.077-2.068.19-.095.465-.06.676-.067v-.277h-2.296v.28zM23.093 24.519a.551.551 0 00-.01.14v.13h.067c.129 0 .317.029.378.057.109.053.1-.085.1 1.782v1.962l-.039.04c-.054.054-.162.083-.35.093l-.158.008.005.135.004.134h3.763l.01-.119c.029-.358.08-.729.138-1.025.04-.202.046-.186-.088-.198a2.802 2.802 0 01-.158-.016c-.042-.007-.043-.006-.132.177-.261.533-.56.815-.947.889-.13.023-.695.028-.805.004a.24.24 0 01-.112-.055l-.04-.039v-1.9l.034-.034c.046-.046.1-.053.389-.046.217.005.267.011.329.035.19.075.264.211.305.552l.008.081h.145c.08 0 .149-.004.152-.01a.84.84 0 00-.006-.13 18.702 18.702 0 01-.002-1.284l.012-.116-.147.005-.147.004-.017.098c-.036.215-.088.316-.197.384-.112.072-.185.087-.445.094-.253.009-.337-.004-.386-.053-.025-.025-.027-.052-.027-.72v-.694l.04-.04c.055-.055.106-.06.579-.053.358.007.424.012.517.037.294.08.456.247.621.645l.075.176h.302l-.005-.042c-.02-.257-.03-.448-.039-.746l-.01-.352H24.95c-1.017 0-1.853.004-1.857.01zM30.965 24.526a5.29 5.29 0 00-.012.29c-.009.289-.03.483-.086.769-.02.096-.032.177-.03.18.015.013.334.087.345.08a.036.036 0 00.014-.028c0-.011.025-.098.056-.192.136-.411.119-.65.36-.76.08-.036.26-.076.339-.076H32v1.734c0 1.889.004 2.082-.077 2.136-.061.04-.196.061-.394.061h-.186V29h2.314v-.28h-.177c-.302 0-.427-.037-.462-.14-.012-.036-.017-.757-.017-2.061L33 24.789h.049c.073 0 .249.039.323.071.175.074.323.224.43.432.06.115.191.473.191.52 0 .013.006.027.013.033.012.007.333-.069.347-.081a.798.798 0 00-.023-.137c-.063-.291-.099-.636-.099-.917v-.201h-1.685c-1.4 0-1.58.017-1.58.017zM34.93 24.512c-.007.029-.01.21-.004.238.007.037.01.039.107.039.147 0 .325.023.38.049.097.047.092-.068.092 1.776 0 1.84.005 2.018-.09 2.063-.063.03-.211.05-.365.05h-.126V29H37.162l.005-.134.005-.135-.201-.008c-.244-.008-.323-.032-.363-.108-.025-.046-.026-.403-.026-1.998 0-1.38.003-1.669.02-1.708.033-.081.166-.118.451-.119l.101-.001.008-.047c.005-.023.007-.085.005-.135l-.005-.091-1.114-.004c-.615-.002-1.118 0-1.118 0zM19.83 33.066c-.422.035-.8.09-1.307.194-.609.123-.84.18-.84.21 0 .028.021.025.235-.028.31-.078 1-.211 1.381-.267.17-.024.59-.063.694-.063.081 0 .12-.016.105-.04-.01-.015-.132-.018-.267-.006zM19.97 33.42c-.468.026-.788.07-1.369.191-.355.073-.425.095-.397.123.004.005.138-.02.3-.054a9.26 9.26 0 011.187-.184c.07-.005.144-.01.166-.014.023-.002.16-.01.305-.015a2.26 2.26 0 00.263-.018c0-.046-.067-.05-.454-.028zM19.921 33.527a9.66 9.66 0 00-.685.081c-.37.06-1.027.202-1.044.224-.01.013-.025.018-.039.013-.039-.015-.19.024-.205.052-.019.033-.007.033.134-.002a14.95 14.95 0 011.504-.28c.235-.023.251-.026.251-.049 0-.01.013-.02.028-.02.017 0 .028.01.028.022 0 .018.01.02.044.014a.938.938 0 01.126-.008c.072 0 .082-.003.082-.029 0-.025-.008-.028-.08-.025l-.144.007zM20.565 34.115c-.473.035-1.105.137-1.728.277-.249.056-.29.068-.298.09-.005.015.002.016.027.01a11.993 11.993 0 00.838-.17 2.85 2.85 0 00.343-.048c.214-.038.569-.085.63-.085.027 0 .048-.007.048-.015 0-.012.015-.013.045-.007.024.004.122.004.217 0 .165-.01.172-.012.172-.041 0-.036.02-.036-.294-.011z" fill="#455A21"/><path d="M26.864 38.848c-.536-1.157-.786-4.02 2.5-6.212 4.107-2.741 9.821-3.838 14.107-.549-3.3.43-22.252 6.983-14.465 12.608-.178.488-.714 1.17-1.428 0-.893-1.461-1.786-3.289-3.393-4.933-1.607-1.645-7.5-2.924-10.714-4.203.992-.54 2.745-1.102 4.7-.98-.238-.548-.95-2.236-.95-4.136 1.276.06 4.793.771 6.161 2.971.345-.89 1.026-1.801 2.232-2.606.892-.365 3.035-1.096 3.571-1.462.179-.121.061 1.823-.179 2.559-.178.548-2.44 3.228-3.392 4.568-.417.609-.858 2.156.714 4.202l.357.366.179-2.193z" fill="#5F7238"/></svg>