<!-- by TradingView --><svg width="56" height="56" xmlns="http://www.w3.org/2000/svg"><path fill="#F0F3FA" d="M0 0h56v56H0z"/><path d="M19.845 49l6.683-17.523c2.6-3.272 5.37-4.372 6.43-4.513L19.845 49z" fill="#37B34A"/><ellipse cx="29" cy="15.998" rx="3" ry="2.998" fill="#37B34A"/><path d="M14.63 29.418c1.383 1.433 4.49.444 5.87-.23-3.152 2.515-5.685 1.67-6.557.934-.64-.548-1.595-2.288-.297-4.87 1.299-2.58 3.91-4.298 5.053-4.834 1.083-.549 3.747-1.317 5.741 0 1.994 1.317 1.862 4.98 1.025 7.066l-7.451 17.988 3.482-17.41c.313-1.464.918-4.113-.655-4.911-1.573-.798-3.766.588-4.666 1.381-1.091 1.032-2.93 3.454-1.546 4.886z" fill="#0080C7"/><path d="M37.461 16.532c4.8-2.403 9.693-.7 11.54.45-6.483-1.426-12.2 4.471-14.247 7.599 1.938-.13 5.71.354 5.292 3.333-.418 2.98-3.97 4.945-5.692 5.556 2.437-1.393 3.436-3.404 3.63-4.235.195-.9-.178-2.78-3.23-3.093-3.053-.312-6.36.931-7.631 1.592v-.21c1.452-1.274 2.615-3.334 3.015-4.205.441-1.261 2.523-4.384 7.323-6.787z" fill="#37B34A"/></svg>