<!-- by TradingView --><svg width="56" height="56" viewBox="0 0 56 56" xmlns="http://www.w3.org/2000/svg"><path fill="#F0F3FA" d="M0 0h56v56H0z"/><path d="m12.81 32.9-.25-.17c-1.72-1.04-3.36-2.75-3.72-4.77l-.06-.36c-.44-3.01 3.03-5.56 5.2-6.8 5.72-3.24 12.82-3.93 19.28-3.2a60.79 60.79 0 0 1 7.97 1.54v-.02c0-.03 0-.05-.04-.06l-.57-.23c-2.38-1.07-4.78-2.01-7.37-2.42a37.06 37.06 0 0 0-18.32 1.89c-.72.27-1.42.59-2.12.94-3.61 1.84-7.1 5.38-5.34 9.69.83 2.05 3.35 3.23 5.22 4h.06c.03-.03.05-.04.06-.03Zm0 0ZM36.68 21H31l8.9 14.9-.14 1.1H45l-9.1-15.26.78-.74Zm-1.12 12.92L32 37h4.13v-.68l-.63.04.07-2.44Zm4.62-12.18-.66-.74h5.03l-4.2 3.7-.17-2.96ZM17 31.77V21c3.06.16 3 1.72 3 1.72V28h7v-4.67c.2-2.52 3-2.33 3-2.33v16h-3v-6h-8.9l-1.1.77ZM21 35a2 2 0 1 1-4 0 2 2 0 0 1 4 0Z" fill="#E6212C"/></svg>