<!-- by TradingView --><svg width="56" height="56" viewBox="0 0 56 56" xmlns="http://www.w3.org/2000/svg"><path fill="#F0F3FA" d="M0 0h56v56H0z"/><path d="M29.05 24.45v-.32c0-.07.05-.13.12-.13h2.38c.11 0 .23.01.33.06.17.08.41.24.62.51.1.13.44.52.88 1.01A69.6 69.6 0 0 1 36 28.65v-3.5a.59.59 0 0 0-.59-.58h-.6a.13.13 0 0 1-.13-.12v-.32c0-.07.06-.13.13-.13h2.69c.07 0 .13.06.13.13v.32c0 .07-.06.12-.13.12h-.25a.58.58 0 0 0-.57.58v6.32c0 .1-.07.2-.16.24l-.68.27a.26.26 0 0 1-.1.02h-.01a.26.26 0 0 1-.21-.1l-4.92-6.15v5.07c0 .32.26.57.58.57h.6c.1 0 .18.09.18.2v.22c0 .1-.08.19-.19.19h-2.53a.2.2 0 0 1-.2-.2v-.22c0-.1.1-.19.2-.19h.12c.31 0 .63-.25.64-.56v-5.8c0-.25-.13-.46-.38-.46h-.45a.13.13 0 0 1-.12-.12ZM4.13 24h3.93c.07 0 .13.06.13.13v.27c0 .07-.06.13-.13.13h-.14a.59.59 0 0 0-.58.59v2.75c0 .07.06.13.13.13h2.02c.07 0 .13-.06.13-.13v-2.75a.59.59 0 0 0-.59-.6h-.15a.13.13 0 0 1-.13-.12v-.27c0-.07.06-.13.13-.13h3.99c.07 0 .13.06.13.13v.27c0 .07-.06.13-.13.13h-.2c-.32 0-.67.26-.67.59v5.68c0 .32.35.59.67.59h.2c.07 0 .13.05.13.13v.35c0 .07-.06.13-.13.13h-4a.13.13 0 0 1-.12-.13v-.35c0-.07.06-.13.13-.13h.15c.32 0 .59-.27.59-.6v-2.06a.13.13 0 0 0-.13-.13H7.47a.13.13 0 0 0-.13.13v2.07c0 .32.26.59.58.59h.14c.07 0 .13.05.13.13v.35c0 .07-.06.13-.13.13H4.13a.13.13 0 0 1-.13-.13v-.35c0-.07.06-.13.13-.13h.12c.32 0 .75-.27.75-.6v-5.67c0-.33-.43-.6-.75-.6h-.12A.13.13 0 0 1 4 24.4v-.27c0-.07.06-.13.13-.13Zm9.19 7.5v.37c0 .07.05.13.12.13h2.16c.07 0 .13-.06.13-.13v-.34a.13.13 0 0 0-.13-.13h-.47a.39.39 0 0 1-.37-.49l.49-1.81c0-.03.03-.1.06-.1h2.15c.03 0 .05.07.06.1l.52 1.8c.08.25-.1.5-.37.5h-.53a.13.13 0 0 0-.13.13v.34c0 .07.06.13.13.13h4c.07 0 .13-.06.13-.13v-.34a.13.13 0 0 0-.13-.13h-.04a.45.45 0 0 1-.43-.31l-2.18-7a.13.13 0 0 0-.13-.09H16.2c-.06 0-.1.04-.13.09l-2.3 7.06a.36.36 0 0 1-.35.25.1.1 0 0 0-.1.1Zm2.2-3.07a.07.07 0 0 1-.07-.08l.9-3.33.96 3.32a.07.07 0 0 1-.07.09h-1.73Zm5.45-4.23v.2c0 .1.1.2.2.21.28.06.45.23.5.33l1.9 3.87v2.15c0 .25-.2.46-.46.46h-.43a.2.2 0 0 0-.2.2v.18c0 .11.09.2.2.2h4.28c.1 0 .2-.09.2-.2v-.19a.2.2 0 0 0-.2-.2h-.46c-.24 0-.5-.2-.5-.45v-2.15l2.17-4.22h.22c.11 0 .2-.08.2-.2v-.2a.2.2 0 0 0-.2-.19h-2.2c-.11 0-.19.09-.19.2v.2c0 .1.08.2.18.2h.51a.4.4 0 0 1 .35.54l-1.29 3-1.3-3.28a.2.2 0 0 1 .17-.27h.35c.1 0 .2-.08.2-.2v-.2a.2.2 0 0 0-.2-.19h-3.8a.2.2 0 0 0-.2.2Zm17.2 0v.22c0 .1.1.2.2.2h.27c.2 0 .36.17.36.38v6.11c0 .22-.15.4-.36.4h-.36a.13.13 0 0 0-.13.13v.23c0 .07.05.13.13.13h6.4v-2.14a.13.13 0 0 0-.12-.14h-.36a.13.13 0 0 0-.13.14c-.05 1.23-.92 1.56-1.35 1.57h-.67a.58.58 0 0 1-.58-.6v-2.2h1.07c.41 0 .89.34.89.75 0 .07.05.12.11.12h.34c.08 0 .12-.06.12-.13v-2.1c0-.07-.04-.13-.12-.13h-.34a.11.11 0 0 0-.11.11c0 .41-.33.75-.87.75h-1.1v-3.22c0-.04.04-.07.07-.07h.84c1.13 0 1.42.96 1.42 1.55 0 .07.06.14.14.14h.37c.07 0 .12-.06.13-.13l.12-2.13a.13.13 0 0 0-.13-.14h-6.05a.2.2 0 0 0-.2.2Zm12.96 2.41h.2a.2.2 0 0 0 .2-.16l.22-1.95a.19.19 0 0 0-.14-.2c-.48-.12-1.44-.3-2.42-.3-1.38 0-3.19.35-3.19 2.47 0 .46.28 1.53 1.42 2.1 1.43.72 2.45 1.3 2.45 2.07 0 .77-.76.81-1.25.81-.47 0-1.67-.33-1.77-1.73-.01-.1-.1-.2-.2-.2h-.27a.2.2 0 0 0-.2.18l-.13 1.77c0 .08.04.15.12.18.37.14 1.23.35 2.5.35 1.81 0 3.33-.73 3.33-2.5 0-1.18-1.3-2.05-1.94-2.34-.66-.23-1.97-.9-1.97-1.74 0-1.02 2.57-1.4 2.84 1.01.01.1.1.18.2.18Z" fill="#D94042"/></svg>