<!-- by TradingView --><svg width="56" height="56" viewBox="0 0 56 56" xmlns="http://www.w3.org/2000/svg"><path fill="#F0F3FA" d="M0 0h56v56H0z"/><path d="M17.44 31.1c-2.27 1.94-3.29.8-3.51 0-.33-.93.13-1.47.4-1.61l4.5-2.3c.97-3.5 2.94-10.62 3.16-11.13.27-.63.4-.76 2.16 0 1.4.61 1.27 2.17 1.03 2.88l-1.89 6.1 5.05-2.2c.96-3.43 2.94-10.47 3.2-11.22.3-.94.58-.85 2.24 0 1.34.68 1.28 2.1 1.09 2.74l-2.26 6.91c3-1.45 9.7-3.48 11.85-.76 2.27 2.87-3.12 6.23-6.13 8.3 1.7.43 2.54 1.32 2.75 1.7 2.02 4.03-6.33 8.93-10.76 10.87-1.06.46-3.88 1.77-4.1.76-.22-1 .47-1.33 1.17-1.7 8.06-4.27 10.94-7.05 10.45-8.62-.5-1.57-4.46 0-5.23.45-.76.45-2.34 1.3-2.92-.45-.47-1.4.55-2.14 1.12-2.33 7.52-3.15 10.99-6.11 10.81-7.28-.14-.93-1.68-.63-2.43-.36l-7.97 2.7-5.54 14.27c-.29.83-1.1 2.4-2.07 2.07-.98-.33-.62-1.75-.32-2.43l4.1-12.34-5.67 2.7-5.23 12.92-.01.04c-.37.86-1.08 2.56-2.15 2.16-.86-.32-.63-1.33-.4-1.8l3.5-11.04Z" fill="#03386F"/><path d="M16.72 30.16c-2.27 1.94-3.29.8-3.51 0-.33-.94.13-1.47.4-1.62l4.5-2.29c.97-3.5 2.94-10.63 3.16-11.13.27-.63.4-.76 2.16 0 1.4.6 1.28 2.17 1.04 2.87l-1.9 6.1 5.05-2.2c.96-3.42 2.94-10.46 3.2-11.22.31-.94.58-.85 2.25 0 1.33.69 1.27 2.11 1.08 2.74l-2.25 6.92c3-1.46 9.7-3.48 11.84-.77 2.27 2.88-3.12 6.24-6.12 8.3 1.69.44 2.53 1.32 2.74 1.71 2.02 4.03-6.33 8.92-10.76 10.87-1.06.46-3.88 1.77-4.1.76-.21-1 .47-1.33 1.17-1.7 8.06-4.27 10.95-7.05 10.45-8.62-.5-1.58-4.46 0-5.22.44-.77.45-2.35 1.3-2.93-.44-.47-1.4.55-2.14 1.13-2.34 7.52-3.14 10.98-6.1 10.8-7.27-.14-.94-1.68-.63-2.43-.36l-7.97 2.7-5.54 14.27c-.28.82-1.1 2.39-2.07 2.06-.97-.32-.62-1.75-.31-2.42l4.1-12.35-5.68 2.7-5.22 12.93-.02.03c-.37.87-1.08 2.56-2.15 2.17-.86-.33-.63-1.34-.4-1.8l3.51-11.04Z" fill="#A60634"/></svg>