<!-- by TradingView --><svg width="56" height="56" viewBox="0 0 56 56" xmlns="http://www.w3.org/2000/svg"><path fill="#F0F3FA" d="M0 0h56v56H0z"/><path d="M13.07 18.06c4.45-4.44 11.71-4.5 16.7-.31-.25-.3-.51-.59-.8-.87-4.98-4.98-12.85-5.2-17.57-.48-4.72 4.7-4.5 12.56.49 17.53.28.29.57.55.87.8-4.2-4.99-4.14-12.23.31-16.67Z" fill="#003C4B"/><path d="M37 35h2.43c.66 0 2.57.05 2.57-1.97C42 31.2 40.26 31 39.43 31H37v4Zm0-8h1.82c.72 0 2.18.1 2.18-1.57 0-1.59-1.38-1.43-2.18-1.43H37v3Zm-5-8h6.28c3.44 0 5.03.34 6.52 2.04.9.97 1.2 2.24 1.2 3.46 0 1.62-.7 3.27-2.36 4.24 3.28 1.19 3.36 4 3.36 4.88 0 1.67-.63 3.51-1.87 4.56C43.25 39.8 41.9 40 38.47 40H32V19Z" fill="#A5BBC3"/><path d="M15 19h5v8h7v-8h5v21h-5v-8h-7v8h-5V19Z" fill="#E32526"/></svg>