<!-- by TradingView --><svg width="56" height="56" viewBox="0 0 56 56" xmlns="http://www.w3.org/2000/svg"><path fill="#008677" d="M0 0h56v56H0z"/><path d="M14 12h22.78A4.21 4.21 0 0 1 41 16.2v23.6c0 2.32-1.9 4.2-4.22 4.2H18.95a5.63 5.63 0 0 1-3.06-1.17A5.08 5.08 0 0 1 14 38.7c-.02-2.6.99-5.31 1.95-7.84l.1-.24C17 28.1 18 25.83 18 23.82c0-3.26-1.47-8.45-4-11.82Zm1.76 1A20.32 20.32 0 0 1 19 23.82c0 2.2-1.06 4.65-1.98 7.05l-.13.34c-.98 2.56-1.91 5.1-1.89 7.47.02 1.68.7 2.72 1.5 3.37.84.65 1.84.91 2.5.95h17.78A3.21 3.21 0 0 0 40 39.8V16.2c0-1.76-1.44-3.2-3.22-3.2H15.76Z" fill="#fff"/><path d="M17.63 14h19.45c1.06 0 1.92.85 1.92 1.9v24.2c0 1.05-.86 1.9-1.92 1.9h-17.5c-1.22-.07-3.55-.77-3.58-4.08.77-4.7 4-10.38 4-13.24 0-3.38-.04-6.08-2.37-10.68Zm11.65 3.34-.37 9.85-4.7-5.44 4.16 6.17-7.17.54 7.17.55-4.16 6.06 4.7-5.33.37 9.83.41-9.83 4.81 5.53-4.25-6.26 7.55-.55-7.55-.54 4.16-6.17-4.72 5.44-.41-9.85Z" fill="#fff"/></svg>