<!-- by TradingView --><svg xmlns="http://www.w3.org/2000/svg" width="56" height="56" viewBox="0 0 56 56"><path d="M56 0H0v56h56V0Z" fill="#F0F3FA"/><path fill-rule="evenodd" d="M26.58 45.5c.6.61 1.1 1.1 1.44 1.5.3-.35.73-.78 1.24-1.31 3.23-3.32 9.94-10.21 11.31-20.75.47-3.63.49-7.17-.82-11.67-13-3.68-23.46 0-23.46 0-4.61 17.3 5.8 27.74 10.3 32.23Zm-8.87-29.9c-4.73 14.53 7.36 26.44 10.34 29.1 2.78-2.6 14.85-13.9 10.4-29.01-11.13-3.12-20.74-.08-20.74-.08Zm10.36 4.14a2.1 2.1 0 1 0 0-4.2 2.1 2.1 0 0 0 0 4.2ZM29.3 21h-2.38a.38.38 0 0 0-.38.37v19.26c0 .2.17.37.38.37h2.38c.21 0 .38-.17.38-.37V21.37c0-.2-.17-.37-.38-.37Z" fill="#008DEC"/><path d="M27.99 44.74a36.46 36.46 0 0 1-9.5-13.1 23.56 23.56 0 0 1-1.2-14.97l.33-1.14.02-.05.05-.01c.03-.01 9.64-3.05 20.8.08l.05.01.02.06c2.23 7.58.32 14.21-2.5 19.27a40.74 40.74 0 0 1-7.93 9.84l-.07.07-.07-.06Zm-9.3-13.17c2 4.92 5.4 9.39 9.37 12.95a40.42 40.42 0 0 0 7.82-9.73c2.8-5 4.69-11.56 2.5-19.06a39.75 39.75 0 0 0-20.58-.08 21.54 21.54 0 0 0-.58 2.21c-.99 4.7-.3 9.38 1.46 13.71Z" fill="#026EBA"/><path d="M26.54 27.58c.91.35 2.08.73 3.14 1.38v1.31a14.32 14.32 0 0 0-3.14-1.51v-1.18Zm3.14-3.1c-1.05-.45-2.07-.9-3.14-1.27v1.36c.95.34 2.32.72 3.14 1.14v-1.24Zm-3.14 9.54c.87.58 1.8 1.2 2.1 1.67.51.78-1.8 2.1-1.68 3.19.11 1.1.84 1.08.84 1.08s-.96-1.13.06-2.08c1.02-.95 2.14-1.82.89-3.24-.81-.92-1.6-1.37-2.21-1.77v1.15Z" fill="#FEFEFE"/><path d="M26.47 28.03c-.26-.1-2.25-.95-2.01-2.28.18-1.03.77-1.35 1.87-1.8-1.09-.39-5.39-1.38-5.04-2.91.35-1.56 3-1.25 3-1.25s.64-.53 1.23.02c.6.56.93.34.93.52 0 .17-.14.66-.89.9-.74.23-1.33-.25-1.94-.1-.62.17.45.6.65.7 1.79.72 2.5.84 4.35 1.64l1.06.45V22.6c.62-.21 1.24-.42 2.1-.77.21-.09 1.28-.53.66-.69-.61-.16-1.2.33-1.95.09-.74-.24-.87-.72-.88-.9 0-.17.34.04.93-.51.59-.55 1.23-.03 1.23-.03s2.65-.3 3 1.25c.35 1.53-3.93 2.52-5.03 2.9 1.09.46 1.68.78 1.86 1.8.22 1.23-1.44 2.05-1.92 2.25v-1.18c1.02-.4 1.13-1.02.16-1.57-.79-.45-2.28-.86-3.3-1.22v1.06c-1 .46-1.56 1.18-.17 1.73 1.17.47 2.81.95 4.11 2 1.3 1.06 1.43 2.84.57 3.58-.31.28-.82.62-1.37.98V32.2c.27-.18.5-.36.66-.58.57-.74.45-1.3-.72-2.1s-2.9-1.4-3.15-1.5Zm.07.12c-.33.2-.66.41-.96.66-1.3 1.06-1.43 2.83-.57 3.58.85.75 3.12 1.96 3.63 2.74.52.79-1.8 2.1-1.68 3.2.11 1.1.84 1.08.84 1.08s-.96-1.14.06-2.08c1.02-.95 2.15-1.82.89-3.24-1.26-1.42-2.46-1.73-3.03-2.47-.77-.99-.04-1.6.82-2.16v-1.3Z" fill="#787779"/><path d="M40.55 16.8c1.06 8.17-.7 14.67-3.49 19.36-3.3 5.53-7.03 8.8-7.95 9.69l-1.1-1.1c2.78-2.59 14.85-13.9 10.4-29-10.66-2.8-19.17-.58-19.9-.4-.84.26-.79-.07-1.12 1.35-.26 1.27-.53 2.54-.57 3.8h-.1a21.54 21.54 0 0 1 1.1-6.18c6.29-1.94 14.3-1.73 20.56.03.7.76 1.48 1.75 2.17 2.46Z" fill="#026EBA"/></svg>