<!-- by TradingView --><svg width="56" height="56" xmlns="http://www.w3.org/2000/svg"><path fill="#0C4378" d="M0 0h56v56H0z"/><path d="M25 11h-9v32h25.996V28.305c0-2.914-1.15-5.181-1.725-5.95-.636-1.154-2.982-3.461-7.269-3.461S25.719 20.846 25 22V11z" fill="#fff"/><path d="M28.812 27.207c6.33.025 7.789 3.155 7.726 4.793H31c0-1.7-2.188-1.672-3.109-1.196-1.443 1-.488 1.732.17 1.972.187.037 1.284.261 4.17.861 3.4.707 4.836 1.844 4.769 5.086-.045 2.177-1.901 3.962-2.775 4.277H24.26c-2.525-.467-3.22-3.654-3.261-5h6c0 1.226 1.143 2.214 2.29 2.172.919-.032 1.464-.395 1.765-.896.416-.512.143-1.664-4.268-2.18-4.412-.516-5.494-3.511-5.483-4.944-.135-1.659 1.177-4.97 7.508-4.945z" fill="#0C4378"/></svg>