<!-- by TradingView --><svg xmlns="http://www.w3.org/2000/svg" width="56" height="56" viewBox="0 0 56 56"><path fill="#F0F3FA" d="M0 0h56v56H0z"/><path d="M14.18 19.58c.11-.62-.54-1.33-.94-1.58 2.97.93 1.53 3.02.44 3.95a98.8 98.8 0 0 1-6.74 4.44c-1.15.66-1.5 2.54-1.41 3.31-1.86-3.13 1.63-5.3 4-6.5 1.55-.98 4.54-3 4.65-3.62z" fill="#00929F"/><path d="M10.37 22.7c0-2.06 1.29-2.81 1.93-2.93-4.32-.5-4.19 3.32-3.58 5.29.34 1.77.83 5.48 0 6.18-.84.7-2.24-.53-2.83-1.24.37.96 1.64 2.77 3.69 2.35 2.04-.41 1.37-6.61.79-9.66z" fill="url(#a2owvvxpo)"/><path d="M17 22h-2v10h2v-4.2h1.84l.96-.97L19 26H17v-4zm5 0h2v10h-2v-4.2h-2.27l.95-.97-.81-.83H22v-4zm8.04 1.87h3.68L33.13 22h-3.2A4.96 4.96 0 0 0 25 27c0 2.76 2.2 5 4.92 5h5.5l-.4-2.07h-4.98a3 3 0 0 1-2.99-3.03 3 3 0 0 1 2.99-3.03zm4.7-1.87h2.23l2.2 10h-2.03l-2.4-10zm5.22 9.06l-.99-4.27L40.23 22h2.51l2.1 10h-2.1l-1.3-6.87-1.48 5.93zm4.79-4.08l.98 4.02L48 22h-2.1l-1.15 4.98z" fill="#6A747C"/><path fill-rule="evenodd" d="M30.75 34v-.5h-.5v.5h.5zm-.04 2.93v-2.44h-.46v2.44h.46zM27.45 34h1.3c.29 0 .52.23.52.51s-.23.51-.52.51h-1.3v-1.02zM27 35.48v-1.92h1.75a.96.96 0 1 1 .61 1.71.96.96 0 0 1-.5 1.79H27v-1.58zm.45.1h1.42c.28 0 .51.23.51.51 0 .29-.23.51-.51.51h-1.42v-1.02zm13.8-2.08v.5h-.5v-.5h.5zm-.04 1V37h-.45v-2.5h.45zm-8.84 2.03c.46 0 .83-.37.83-.82a.82.82 0 0 0-.83-.82.82.82 0 0 0-.82.82c0 .45.37.82.82.82zm0 .45c.71 0 1.28-.57 1.28-1.27 0-.7-.57-1.27-1.28-1.27-.7 0-1.28.57-1.28 1.27 0 .7.58 1.27 1.28 1.27zm4.65-1.27c0 .45-.37.82-.83.82a.82.82 0 0 1-.82-.82.82.82 0 0 1 1.65 0zm.45 0c0 .7-.57 1.27-1.28 1.27-.7 0-1.28-.57-1.28-1.27 0-.7.58-1.27 1.28-1.27.71 0 1.28.57 1.28 1.27zm2.28.02c0 .44-.35.77-.76.77a.77.77 0 0 1-.76-.77c0-.44.36-.77.76-.77s.76.33.76.77zm.08.93a1.25 1.25 0 1 1 0-1.86v-.27h.45v2.4c-.04.37-.41.93-1.38.93-.45 0-.74-.09-.92-.22a.54.54 0 0 1-.24-.44h.45v.02l.06.06c.07.05.24.12.65.12.74 0 .9-.38.93-.5v-.24zm-5.33.26v-3.37H34v3.37h.5zm10.06-2.47a1 1 0 0 1 .48-.1c.31 0 .54.09.69.23.14.15.2.32.2.44l-.45.02c0-.04-.02-.1-.08-.16-.05-.05-.15-.1-.36-.1-.13 0-.2.02-.26.04a.22.22 0 0 0-.09.1.3.3 0 0 0-.03.15v.03l.05.1c.04.04.14.12.4.25l.25.13.08.03.26.15a.7.7 0 0 1 .22.2c.06.1.08.2.08.3 0 .22-.1.41-.28.54-.18.13-.41.2-.68.2-.25 0-.48-.05-.65-.15-.18-.1-.3-.26-.3-.46h.46c0 .02 0 .06.07.1.08.03.21.07.42.07.2 0 .33-.04.4-.1.07-.05.1-.11.1-.2l-.01-.07a.27.27 0 0 0-.08-.08 2.13 2.13 0 0 0-.22-.11l-.07-.04-.28-.13a1.82 1.82 0 0 1-.52-.36c-.1-.1-.12-.2-.13-.27l-.01-.02a.7.7 0 0 1 .07-.46c.05-.1.14-.2.27-.27zm-1.67 2.08c.22 0 .43-.1.58-.24l.38.26a1.28 1.28 0 0 1-2.24-.84 1.28 1.28 0 1 1 2.31-.75l-.41.2a.83.83 0 0 0-1.45.55c0 .45.37.82.83.82z" fill="#82A446"/><defs><linearGradient id="a2owvvxpo" x1="9.09" y1="28.44" x2="11.7" y2="28.74" gradientUnits="userSpaceOnUse"><stop stop-color="#92B559"/><stop offset="1" stop-color="#B3CD55"/></linearGradient></defs></svg>