<!-- by TradingView --><svg xmlns="http://www.w3.org/2000/svg" width="56" height="56"><path fill="url(#afdvtb04c)" d="M0 0h56v56H0z"/><path d="M10 16h36L27.98 48 10 16zm34.22 1h-32.5L28 45.73 44.22 17zM24.27 37.04l.09-.33v.01c.03-.14-.01-.42-.12-.42s-.21.07-.24.25l.27.49zm.16-1.22l-.17.1h-.02a3 3 0 00-.36.48v-.03l.66-.95c.1-.12.2-.17.26-.12.04.03-.02.15-.08.25a1.7 1.7 0 00-.04.08c-.03.07-.14.13-.25.19zm10.16-7.14l.17-.03.42.57h.08l.06-.09-.68-.89-2.51-1.21-2.72-.85-.03-.24 1.23.27.55-.13-.07-.44h.16l.12.42h.28l.05-.43h.13l.04.4s.39.29.35.13l-.03-.13c-.04-.11-.07-.22 0-.24.1-.04.15.3.15.3l.45-.22-.24-.12.24-.16.22.1.22-.15-.43-.16.03-.12.39.09c.05.03.46.15.28-.04-.18-.1-.36-.17-.55-.24-.06-.07-.1-.12 0-.12.05 0 .21.06.4.12.2.07.44.15.5.15.14 0 .18-.1.06-.1a3.53 3.53 0 01-1.1-.3 2.13 2.13 0 00-.64-.06l-1.38-.05c-.08-.01-.03-.24.08-.25h.24c.15.03.25.05.36-.19l.44.31c.06.04.13-.1.06-.1a.65.65 0 01-.28-.2c-.05-.08 0-.12.1-.12.26.16.28.02.3-.1 0-.06.02-.12.07-.12.1-.02.2-.04.3-.03l.17-.43-.4-.15v-.14l.5-.17-.46-.1.1-.18.72.17c.04.01-.17-.11-.34-.21a8.23 8.23 0 01-.18-.11s-.07-.1.08-.1c.07 0 .21.07.36.14.14.07.3.14.37.14.15 0 .23-.15.03-.15a2.05 2.05 0 01-.63-.24c-.1-.05-.04-.14.1-.14.06 0 .22.08.4.16.2.09.41.19.5.19.18 0 .55-.12.12-.23-.25-.06-.5-.15-.73-.25l1.1.16v-.16L33.5 22l-2.37.57-1.25.78-.7.71-.16-.17.61-.62-.12-.34.77-.38-.04-.08-.2.08v-.44l.64-.07-.55-.13.07-.2.62.06-.14-.28.26-.2-.69.25h-.21l.2-.18.7-.22.02-.13-.74.23v-.09l.58-.24.08-.12-.47.1v-.1l.73-.57-.97.38v-.05l.96-.57v-.13l-1.92 1.1-.44.37-.65.88-.2-.13.9-1.14v-.19l-.37.25-.09-.13.46-.36-.07-.2-.28.2h-.14l.03-.28.4-.21-.08-.09-.39.2-.1-.11.33-.24-.12-.12-.43.31-.1-.1.3-.26-.06-.15.44-.28v-.09l-.44.31-.04-.12.29-.19v-.05l-.48.25-.09-.08.55-.4-.36.1-.11-.1.28-.19v-.1l-.41.17v-.07c.1-.05.19-.1.28-.17 0 0 .06-.14 0-.11-.1.06-.18.13-.26.2l.04-.14.04-.1.2-.12s0-.23-.06-.14a1 1 0 01-.2.1c-.06.14-.1.28-.14.43h-.06v-.17c-.06 0-.16.08-.11.12.07.06.04.14.02.22l-.01.05.18.22-.2.24-.26-.16.1.32-.23-.19-.15.2.47.24-.04.17-.64-.17-.15.13.75.27v.24l-.83-.34-.08.15.62.52v.08l-.69-.39s-.16.35-.03.48c.19.13.39.25.6.34l-.55-.04.04.47.63.83-.13.27-.9-1.05-1.35-1.05-1.09.29v.1l.64-.12h.2l-.02.15-.68.17.03.13.66-.2h.07v.11l-.84.3.68-.05.04.25-.44.42.06.1.83-.72.08.15-.7.68.06.07.6-.57.11.14-.6.57.18.05.06-.03.36-.36.13.13-.36.34.16.07.28-.24.08.22-.18.17v.3l.34.37-.17.28.33.36-.16.18-.28-.31h-.18l-.87-1-1.43-.63-.51-.05-.06.15.54.08.06.13-.38-.09-.72.2v.12l.43-.13.07.2-.32.02.02.14h.12l.36-.14.18.11-.54.2.1.15.38-.13v.14l-.32.1.25.1.21.15.22-.15.1.09-.13.44.03.04.23-.42.08.12-.18.41.18.36.32.07.24.2.18.57h.05v-.57h.16v.57h.34l.42-.47.08.11-.16.17.12.36 1.5.35v.2l-1.43-.3s-2.79.83-2.83.83l-.25.15-.21.13-.4.34.1.15.37-.36.36-.22c.13-.05.26-.1.38-.12V27l-1.72 1.35.05.1.5-.24-.3.43h.23l.55-.77.72-.56.08.18-.7.51-.45.61.2.12h.34l.32-.38.13.08-.16.19h.24l.36-.51h.13l-.22.44h.18l.33-.57.09.14-.23.36h.14l.27-.57.12-.04-.17.56h.12l.2-.68h.08l-.1.65h.16l.08-1h.18l-.12.9h.35l.1-.51h.11l.64.27.45-.19.75-.7.09.3-.6.5-1.56 2.63.3.05.4-.87.1.09-.17.57.36-.24.07-.65h.05l.06.57.15-.04.04-.56h.12l.1.43h.2l.06-.65h.1v.5h.13v-.9l.21-.08.1-.38h.08l.05.11.12-.03.05-.34h.04l.3 2-1.46 3.46.07 1.7c-.5.1-.96.77-1.2 1.17l-.28.46c-.07.12-.09.15-.15.2L28.09 44l3.66-6.52c-.1-.03-.2.06-.3.15-.1.1-.2.19-.3.14-.09-.03-.07-.11 0-.2.16-.19.32-.4.45-.61.03-.05-.67.45-.81.61-.14.16-.26.33-.37.5.16-.45.36-.88.6-1.3.09-.15.42-.51.77-.89.5-.53 1.04-1.11 1-1.25v-.01c-.03-.14-.06-.27-.26-.04-.12.13-.37.44-.6.74l-.46.57c-.06.08-.12.19-.17.3-.08.14-.15.27-.23.27a.42.42 0 00-.3.14c-.08.1-.58.56-.63.48-.03-.05.1-.2.23-.36.09-.1.18-.21.22-.3.23-.39.42-.8.55-1.25l-.08-.27a4.66 4.66 0 00-.55 1.16c-.07.2-.18.43-.28.43-.1 0-.1-.1-.03-.28l.12-.31c.17-.45.36-.91.5-1.35.04-.16-.06-.27-.16-.05-.13.29-.23.6-.34.9-.16.46-.32.93-.57 1.34l-.17.31c-.05.1-.08.18-.12.2-.07.03-.06-.12 0-.24.02-.05.07-.11.13-.18.11-.15.25-.32.21-.4-.05-.1-.13-.2-.2-.1a.34.34 0 01-.27.16.6.6 0 00-.3.23c-.07.1-.21.3-.28.26-.17-.09.82-.96.9-1.02.06-.04.01-.12-.13-.04l-.2.13c-.1.1-.22.18-.27.16-.08-.04-.06-.16.06-.24.22-.12.42-.25.62-.4.02-.06-.07-.15-.15-.1-.23.16-.46.3-.7.44l1.04-2.97-.49-5.43.28-.04.26.89.1.1.26-.95.15.05-.12.92.16.09.12-.57h.13l-.08.59h.2l.15-.52v-.5h.1l.1.44-.15.57h.11l.23-.57h.12l-.15.7.28.36.12-.57h.1l.03.33.24.2.33.05-.08-.4h.12l.34.56h.15s.25.4.36.4c.1 0 .03-.33 0-.42v-.01c-.01-.07.07-.1.15-.07.08.03.15.3.15.3l.34-.03.36.27-.04-.47.17.1v.26l.43-.2.17.24.1-.05-.63-.88zm-3.88 8.4c-.01.03-.44.8-.45.77-.06-.2.07-.39.18-.56l.13-.2c.05-.08.14-.08.14 0zm-4.78-.22c.02-.05.09 0 .09 0v.03l-.03.06a.12.12 0 01-.06.02.18.18 0 010-.1zm.03-1.28v.16c-.14.08-.53.45-.8.7l-.3.28c-.19-.3.9-1.08 1.1-1.14zm-.55 1.16c-.07.12-.14.25-.24.16v-.1c0-.05-.02-.11.05-.16a5 5 0 00.23-.27c.17-.19.34-.4.54-.52v.57l-.06.07c-.09.09-.21.22-.29.2l-.05-.05c-.03-.03-.04-.05-.1-.03l-.08.13zm.17.29a.1.1 0 01.1.07c0 .08-.39.24-.39.2 0-.07.11-.17.3-.27zm1.62-1.66c.23-.02-.06.26-.2.26l-.01-.26h.21zm1.78-7.77l.15 5.43-1.41 3.2c-.24.07-.48.12-.72.15v-.41c.27-.17.53-.36.77-.57.06-.1.12-.2.15-.3.03-.04-.05-.14-.12-.04a.75.75 0 00-.04.07c-.04.07-.06.12-.17.12h-.62l-.04-1.86 1.16-3.1-.43-2.04.2-.13v-.32h.12l.05.43.16-.1-.05-.47.12-.1.09.34.24-.57.07.34.32-.07z" fill="#fff"/><defs><linearGradient id="afdvtb04c" x1="10.42" y1="9.71" x2="68.15" y2="76.02" gradientUnits="userSpaceOnUse"><stop stop-color="#1A1E21"/><stop offset="1" stop-color="#06060A"/></linearGradient></defs></svg>