<!-- by TradingView --><svg width="56" height="56" viewBox="0 0 56 56" xmlns="http://www.w3.org/2000/svg"><path fill="url(#azfrj1utz)" d="M0 0h56v56H0z"/><path d="M10 17h9v7h2v-7h7.36c-2.47 1.23-3.18 2.91-3.18 4.78 0 1.38.49 2.99 1.72 4.53-3.17 2.2-4.12 3.93-4.12 6.51 0 2.58 1.06 4.75 4.3 6.18H21v-8h-2v8h-9V17Z" fill="#F18B21"/><path d="M34.33 36.76c0 .03 1.7 2.29 1.67 2.24h-5.4a6.75 6.75 0 0 0 3.73-2.24Zm.83-14.94c0 1.97-1 3.5-3.19 5.3l2.72 3.66c.64-1.19.85-2.67 1.06-3.78h3.29v.94c0 1.38-1.32 4.75-2.16 5.83l3.9 5.23H46v-6h-5v-3h5v-5h-5v-3h5v-5H31.97c2.46.84 3.2 3.04 3.2 4.82Zm-8.6 10.68c0 1.52.95 2.98 2.82 2.98.6.02 1.17-.11 1.7-.39.53-.27.98-.68 1.32-1.18l-3.55-4.83c-1.61 1.14-2.29 2.11-2.29 3.43Zm2.07-10.75c0 .96.79 1.94 1.5 2.71 1.26-1.01 1.67-1.66 1.67-2.67 0-.84-.39-1.76-1.55-1.76a1.56 1.56 0 0 0-1.15.5 1.73 1.73 0 0 0-.47 1.23v-.01Z" fill="#fff"/><defs><linearGradient id="azfrj1utz" x1="10.42" y1="9.71" x2="68.15" y2="76.02" gradientUnits="userSpaceOnUse"><stop stop-color="#1A1E21"/><stop offset="1" stop-color="#06060A"/></linearGradient></defs></svg>