<!-- by TradingView --><svg width="56" height="56" fill="none" xmlns="http://www.w3.org/2000/svg"><path fill="url(#paint0_linear)" d="M0 0h56v56H0z"/><path d="M8 25.994h1.5V23h3v3H14v-7h-1.5v3h-3v-3H8v6.994zM20.726 26h1.5v-7h-1.5v7zM16.907 21.03a2.584 2.584 0 00-2.142 2.06c-.148.769.134 1.654.692 2.193.792.75 2.222.943 3.31.43.423-.2.901-.728.901-.728l-1.19-.683c-.47.697-1.801.545-2.144 0A.649.649 0 0116.25 24H20v-.423c0-1.13-.616-2.047-1.616-2.406-.436-.154-1.054-.212-1.477-.14zm1.101 1.327c.282.18.385.393.527.648h-2.23c.007-.097.243-.52.471-.648.309-.18.885-.222 1.232 0zM24.905 21.03a2.584 2.584 0 00-2.141 2.06c-.148.769.134 1.654.691 2.193.793.75 2.223.943 3.31.43.423-.2.901-.728.901-.728l-1.19-.683c-.47.697-1.8.545-2.143 0a.649.649 0 01-.085-.302h3.75v-.423c0-1.13-.615-2.047-1.615-2.406-.437-.154-1.055-.212-1.477-.14zm1.101 1.327c.283.18.386.393.527.648h-2.23c.007-.097.243-.52.472-.648.308-.18.885-.222 1.232 0zM31.5 21c-.593 0-1.042.209-1.5.545V21h-1.556v5H30v-1.607c.04-1.73.137-1.822.447-2 .309-.124.627-.112.84.108.212.22.212 1.087.212 1.846V26H33v-4c0-.677-.905-1-1.5-1zM21.535 27.133c-.664.254-.968.757-1.035 1.551V29H20v1h.5v4h1.499L22 30h1v-1h-.98l-.02-.142c0-.456.233-.599.824-.56l.176.02v-.619c0-.501.02-.666-.068-.699-.235-.084-1.074.01-1.397.133zM26 28h1.802v6h1.423v-6h1.77v-1H26v1zM14 31.502c0 1.62 1.441 2.547 2.792 2.517 1.35-.029 2.594-.884 2.594-2.517s-1.157-2.461-2.594-2.503c-1.438-.042-2.77.968-2.792 2.503zm3.357-.942c.3.205.503.48.494.929-.01.449-.208.72-.494.905-.286.185-.899.201-1.212 0-.361-.232-.545-.536-.545-.905 0-.466.259-.847.681-1.015.272-.11.776-.12 1.076.086zM34.003 31.493c0 1.613 1.441 2.536 2.792 2.507 1.35-.03 2.594-.88 2.594-2.507 0-1.625-1.157-2.45-2.594-2.491-1.438-.042-2.77.963-2.792 2.491zm3.357-.938c.3.204.503.479.494.925-.01.447-.208.718-.494.902-.286.184-.899.2-1.212 0-.361-.232-.545-.534-.545-.901 0-.464.259-.844.681-1.011.272-.11.776-.119 1.076.085z" fill="#fff"/><path d="M30.491 29l-.002 3 .002 2h1.51v-1.376c.028-1.155.104-1.466.21-1.654.2-.342.72-.448 1.28-.448v-.759l.003-.763c-.6-.035-1.004.27-1.494.552V29l-.673-.002c-.568 0-.836.002-.836.002zM39.5 29l1.895 4.933L40.751 36l1.638.002L44.998 29h-1.5l-1.256 3L41 29h-1.5z" fill="#fff"/><path d="M9 28v10h37.997V18H35" stroke="#A3A5A8" stroke-width="2"/><defs><linearGradient id="paint0_linear" x1="10.418" y1="9.712" x2="68.147" y2="76.017" gradientUnits="userSpaceOnUse"><stop stop-color="#1A1E21"/><stop offset="1" stop-color="#06060A"/></linearGradient></defs></svg>