<!-- by TradingView --><svg xmlns="http://www.w3.org/2000/svg" width="56" height="56"><path fill="#F0F3FA" d="M0 0h56v56H0z"/><path d="M11.8 29.5a1 1 0 01.87-.5h4.04a1 1 0 01.88 1.48l-2.17 4a1 1 0 01-.88.52h-4.18a1 1 0 01-.86-1.5l2.3-4zm-2.47-6.26a.5.5 0 01.43-.24h2.9a.5.5 0 01.43.75l-1.76 3a.5.5 0 01-.43.25h-3a.5.5 0 01-.43-.76l1.86-3z" fill="#58CBE5"/><path d="M41 19.66c-3-.14-4.43 2.54-4.77 3.9a12.63 12.63 0 006.83 4.27c1.49.3 4.2-.2 3.92-2.16-.34-2.46-2.23-5.83-5.98-6z" fill="url(#ai3ivm1jc)"/><path d="M44.04 20.04C42.95 19.03 39.7 17 35.35 17c-5.43 0-11.11 3.88-15.14 9.87-.48.71-.91 1.43-1.3 2.13h3.88a1 1 0 01.88 1.47l-2.15 4a1 1 0 01-.88.53h-3.6c-.02 2.38 1.32 4 4.53 4 7.09 0 10.1-3.93 10.97-7.07.7-2.52 1.16-5.01 1.3-5.94.5-3.16 3.2-8.77 10.2-5.95z" fill="url(#bi3ivm1jc)"/><defs><linearGradient id="ai3ivm1jc" x1="37.45" y1="21.83" x2="45.94" y2="26.47" gradientUnits="userSpaceOnUse"><stop stop-color="#432468"/><stop offset="1" stop-color="#652A83"/></linearGradient><linearGradient id="bi3ivm1jc" x1="38.18" y1="29.34" x2="18.06" y2="29.63" gradientUnits="userSpaceOnUse"><stop offset=".1" stop-color="#82369D"/><stop offset="1" stop-color="#934E9E"/></linearGradient></defs></svg>