<!-- by TradingView --><svg width="56" height="56" fill="none" xmlns="http://www.w3.org/2000/svg"><path fill="#EA6A2C" d="M0 0h56v56H0z"/><path fill-rule="evenodd" clip-rule="evenodd" d="M15 21.98v4.023h-2V22v-.148c.006-.632.013-1.375-.803-1.375-.93 0-1.197.65-1.197 1.814v3.712H9V17h2v2.76c.535-.528.977-.76 1.729-.76C14.59 19 15 20.465 15 21.98zm3-.183h2.584c-.058-.853-.486-1.333-1.234-1.333s-1.22.449-1.35 1.333zM22.621 23h-4.665c0 .712.504 1.5 1.444 1.5s1.316-.5 1.316-.5h1.813c-.529 1.484-1.912 2-3.213 2C17.211 26 16 24.55 16 22.5c0-1.668 1.148-3.5 3.4-3.5 2.424 0 3.253 1.895 3.221 4zm4.346-2.448c-.994 0-1.53.707-1.53 2.148 0 .97.45 1.814 1.53 1.814 1.141 0 1.535-.996 1.535-1.97 0-.963-.443-1.992-1.535-1.992zm3.533 1.993c0 1.955-1.03 3.458-3.069 3.458-.838 0-1.48-.372-1.931-1.06V28h-2v-9h1.944v1.152c.467-.714 1.157-1.152 2.031-1.152 1.925 0 3.025 1.59 3.025 3.545zm7.5 3.458V19h2v7.003h-2zm2-8.503c.027 1.296-2.026 1.27-2 0 0-1.248 2-1.271 2 0zM14 34.586c0-1.394-.495-2.086-1.474-2.086C11.34 32.5 11 33.593 11 34.586c0 .992.454 1.95 1.576 1.95 1.074 0 1.424-1.04 1.424-1.95zm2 0C15.942 36.273 14.96 38 13.047 38c-.886 0-1.54-.256-2.047-.965V38H9v-9h2v2.983c.479-.67 1.194-.983 2.025-.983 1.987 0 3.037 1.774 2.975 3.586zm2.5-3.585v4.19c0 .733.137 1.352.99 1.352 1.06 0 1.51-.833 1.51-1.75V31h2v7h-2v-1.072c-.498.699-1.208 1.072-2.096 1.072-1.76 0-2.404-1.269-2.404-2.81V31h2zm9.5 0v1.818c-.705-.08-1.421-.093-1.795.615-.137.262-.205.665-.205 1.209V38h-2v-7h2v1.281c.532-.876.94-1.337 2-1.28zm12 3.436c0-.944-.36-1.9-1.482-1.886-1.118 0-1.518.925-1.518 1.886 0 .963.372 2.068 1.505 2.068 1.104 0 1.495-1.104 1.495-2.068zm0-2.404V29h2v9h-2v-1.053c-.478.761-1.3 1.053-2.2 1.053-1.83 0-2.8-1.79-2.8-3.433C35 32.755 36.065 31 38.119 31 39.474 31 40 32.033 40 32.033zm-7.556 2.568c-.339.21-.702.275-1.064.338l-.158.028-.077.014c-.556.096-1.156.2-1.156.874 0 .527.354.858.877.858.952 0 1.558-.513 1.578-1.453v-.66zM32.5 38V37.1c-.566.609-1.307.9-2.15.9-1.2 0-2.133-.782-2.133-2.014 0-1.524 1.219-1.971 2.536-2.137.075-.01.168-.016.272-.023.556-.039 1.426-.1 1.426-.71 0-.46-.396-.692-1.154-.692-.64 0-1.051.256-1.153.89h-1.71C28.539 31.679 29.803 31 31.357 31c1.39 0 3.144.5 3.144 2.065V38h-2zM47 34.6a1.91 1.91 0 01-.344.17c-.227.08-.477.117-.728.156-.358.054-.719.109-1.02.283-.456.264-.61.949-.163 1.301.482.383 1.287.182 1.747-.133.326-.224.495-.526.508-1.118v-.66zm0 3.4V37.1c-.566.609-1.307.9-2.15.9-1.2 0-2.132-.782-2.132-2.014 0-.833.323-1.329.97-1.702.486-.279 1.036-.333 1.581-.388.466-.047.93-.093 1.349-.278.255-.107.382-.275.382-.503-.006-.46-.446-.691-1.202-.691-.641 0-1.051.256-1.154.89h-1.71C43.039 31.679 44.303 31 45.858 31c1.39 0 3.13.46 3.13 2.065v3.109C48.987 36.389 49 38 49 38h-2zM33.044 24.324c-.125-.128-.206-.346-.244-.652H31C31 25.398 32.658 26 34.133 26c1.414 0 3.077-.538 3.077-2.218 0-.496-.174-.909-.523-1.24-.353-.326-.883-.57-1.59-.731-1.061-.226-1.68-.385-1.855-.478a.448.448 0 01-.261-.429c0-.157.082-.294.246-.411.165-.117.44-.175.828-.175.47 0 .803.116 1 .35.103.13.168.305.193.526h1.775C36.863 19.568 35.511 19 34.027 19c-1.33 0-2.822.708-2.822 2.225 0 .515.158.91.474 1.184.315.279.859.51 1.63.696 1.072.245 1.691.419 1.858.52.362.22.307.715-.06.894-.207.1-.486.15-.836.15-.597 0-1.006-.114-1.227-.344z" fill="#fff"/></svg>