<!-- by TradingView --><svg width="56" height="56" viewBox="0 0 56 56" xmlns="http://www.w3.org/2000/svg"><path fill="#AB2229" d="M0 0h56v56H0z"/><path fill-rule="evenodd" d="M40.97 34.47c-4.36 5.27-11.54 8.68-17.97 8.52-6.33-.15-12.02-4.34-12-10.99.02-5.46 3.1-10.33 7.43-13.77L18.2 18l.3.16c4.07-3.2 9.21-5.14 13.99-5.16 6.36-.02 12.35 3.96 12.5 10.69.09 3.94-1.44 7.58-3.9 10.63l.8.68-.93-.53Zm-1.05-.6C35.77 38.8 29.09 42.02 23 42c-5.88-.03-11.38-3.8-11.48-10-.08-5.32 2.93-10.09 7.2-13.47l.57.61c-5.86 4.58-7.97 11.5-4.67 16.04 3.53 4.85 11.92 5.12 18.74.6 1.53-1 2.84-2.17 3.93-3.42l2.63 1.5Zm.26-.32A16.25 16.25 0 0 0 44 23.69c.13-6.54-5.2-10.38-11.5-10.34-4.59.04-9.6 1.93-13.58 5.02l.83.43a20.32 20.32 0 0 1 3.35-2v-.02.01c6.25-2.96 13.12-2.23 16.22 2.03a8.75 8.75 0 0 1 1.32 7.14l.22.05-.04.16-.04.16-.22-.05a14.4 14.4 0 0 1-2.67 5.34l2.3 1.93ZM22.93 17.24a20.21 20.21 0 0 0-2.84 1.73l3.25 1.7a8.92 8.92 0 0 1 .4-.28l-.8-3.15Zm.9 3.45-.02.01-.17.12.25.13-.07-.26Zm.47.47-.17-.66.5-.3.6 1.36-.08.04-.85-.44Zm-.25-.96-.79-3.05 1.25 2.79c-.16.08-.31.16-.46.26Zm1.19-.3.9 1.31c.3-.09.6-.15.89-.18l1.1-1.77c-.93 0-1.92.22-2.9.65Zm1.09 1.6.76 1.11.14.07 1.92-.94a3.55 3.55 0 0 0-2.82-.24Zm-3.04-4.44 1.78 2.6a7.6 7.6 0 0 1 3.21-.66l2.3-3.72a17.6 17.6 0 0 0-7.3 1.78ZM37.2 31.04a14.2 14.2 0 0 0 2.61-4.92l-.21-.05c-2.35-.2-5.5-.45-7.59-.6-.13.27-.3.54-.47.81l5.66 4.76Zm-.73.86-6.62-3.79a9 9 0 0 1-.47.35l2.37 7.2a20.37 20.37 0 0 0 4.72-3.76Zm-5.44-6.05.28-.43-.86-.06.58.49Zm-1.33-1.12a2.8 2.8 0 0 0 .34-1.57l-1.22.83.88.74Zm-1.57-1.32 1.68-.96a1.87 1.87 0 0 0-.37-.48l-1.91.93.6.51Zm-.7-2.4h.5l.9-1.7a5.48 5.48 0 0 0-.33-.04L27.44 21Zm1.22-1.99 2.27-3.67-1.95 3.71-.32-.04Zm.68.37-.7 1.75a3 3 0 0 1 .89.41l1.89-.93a3.64 3.64 0 0 0-2.08-1.23Zm2.39 1.08a4.22 4.22 0 0 0-2.3-1.32L31 15.28c2.6.05 4.95.81 6.63 2.28l-5.9 2.91Zm-9.57 1.7.67.7-1.18-.05c.16-.22.33-.44.51-.65Zm3.19 3.36-.43-.45-2.03 1.1a1.87 1.87 0 0 0 .3.47l2.25-1.06-.1-.06Zm-2.58 1.32c-.1-.15-.2-.3-.26-.47l-1.64.9c.05.13.12.26.2.38l1.7-.8Zm-1.51 1.1 1.73-.83c.21.22.47.4.75.54l-.2-.08-.7 1.5a3.46 3.46 0 0 1-1.58-1.14Zm-.55-.12a3.7 3.7 0 0 1-.17-.38l-6.83 3.7 7-3.32Zm-7.1 3.73 7.27-3.44.09.13c.41.59.98 1.03 1.65 1.32l-3.43 7.45-.29.47a8.23 8.23 0 0 1-3.98-2.87 7.4 7.4 0 0 1-1.3-3.06Zm-.05-.34c-.36-2.65.57-5.64 2.55-8.34l4.64.94a5.01 5.01 0 0 0-.38 3.09l-6.8 4.3Zm9.9-4.32 2.18-1.04.8 1.4c-1.15.32-2.27.2-2.98-.36Zm.15-3.2.7.73-1.58 1c-.02-.58.18-1.2.57-1.78l.3.04Zm-1 .49c-.22.5-.3 1-.27 1.48l-1.66 1.04a4.5 4.5 0 0 1 .38-2.83l1.54.3Zm.14-.31.16-.3-1.59-.23a6.6 6.6 0 0 0-.11.22l1.54.3Zm-6.41-1.29a18.3 18.3 0 0 1 3.2-3.2l2.41 2.56a7.8 7.8 0 0 0-.65.86l-4.95-.22h-.01Zm.16.03 4.4.89.1-.2-4.5-.69Zm11.02 4.15.06.04-.04.02-.02-.06Zm.67.39.5.29.17.5c-.21.15-.43.29-.66.4l-.42-.96.41-.23Zm.95.54.05.03-.04.02-.01-.05Zm2.8-6.96 5.96-2.94-5.74 3.3a3.7 3.7 0 0 0-.22-.35v-.01Zm-7.73 7.1c.75.23 1.64.21 2.54-.04l.56.99a7.11 7.11 0 0 1-3.07.56l.72-1.18-.3-.17-.8 1.32a4.97 4.97 0 0 1-.4-.07l.75-1.4Zm7.47-3.12-1.26-.2c.05-.16.09-.32.11-.48l1.3.29-.15.39Zm.26-.7-1.37-.31c.02-.3-.01-.58-.09-.84l1.54-1.04c.17.68.14 1.42-.08 2.18Zm-.11-2.73-1.63.94a2.4 2.4 0 0 0-.38-.45l1.8-.88c.08.13.15.26.21.4Zm-8.66 8.48-3.22 6 3.58-5.9a5.08 5.08 0 0 1-.36-.1Zm.72.16-4.66 7.67c3.48 1.1 8 .54 12.14-1.72l-3.7-6.47a7.2 7.2 0 0 1-3.78.52Zm4.6-.91 2.95 6.82h.02l-2.36-7.18c-.2.13-.4.25-.61.36Zm3.81-4.2 5.91.94-5.8-1.3-.1.36Zm.2-.68 7.4 1.65c.64-2.52.32-5-1.12-6.98a7.51 7.51 0 0 0-.86-.98l-5.54 3.75c.3.79.33 1.67.12 2.56Z" fill="#FDFDFD"/></svg>