<!-- by TradingView --><svg width="56" height="56" viewBox="0 0 56 56" xmlns="http://www.w3.org/2000/svg"><path fill="#F0F3FA" d="M0 0h56v56H0z"/><path d="M45 28a17 17 0 1 1-34 0 17 17 0 0 1 34 0Z" fill="#C30F23"/><path fill-rule="evenodd" d="M28 44a16 16 0 1 0 0-32 16 16 0 0 0 0 32Zm0 1a17 17 0 1 0 0-34 17 17 0 0 0 0 34Z" fill="#EDC500"/><path d="M43.92 23H33.49l-.81 2h11.24v-2ZM20.83 33h-8.28l-.62-1h6.06l3.99-9h3.3l-1.77 4h2.94l1.76-4h3.36l-3.93 9h1.91l2.47-6h7.3l-1.06 2h-4.23l-2.24 5h-7.98l2.2-5h-2.95l-2.23 5Z" fill="#EDC500"/></svg>