<!-- by TradingView --><svg width="56" height="56" viewBox="0 0 56 56" xmlns="http://www.w3.org/2000/svg"><path fill="#F0F3FA" d="M0 0h56v56H0z"/><path fill-rule="evenodd" d="M12 12h32v32H12V12Zm1 1h30v10.55c-.3.07-.9.08-1.26-.36-.3-.37-.6-.42-.93-.47-.21-.04-.44-.08-.71-.2-.37-.16-.07-.32.34-.56.38-.21.87-.48 1.05-.87.31-.64-1.4-.26-2.3 0 .22-.3.62-1.1.45-1.88-.16-.78-1.13-.67-1.6-.52-.7-1.15-2.68-1.3-2.37-.63.31.66.17 1.15-.6.63-.49-.34-.34-.49-.18-.66.1-.09.19-.18.19-.32 0-.38-.46-1.85-1.78-1.85-1.33 0-1.47 0-1.85.67-.38.66-.52.49-.84-.5-.25-.77-1.03-.43-1.4-.17.43.5.81 1.54-.4.67-.99-.7-2.79-1.06-3.57-1.15-.52-.72-1.47-.65-2.32-.59-.28.02-.54.04-.78.03-.62-.02-.62.3-.62.6 0 .17 0 .34-.11.44-.1.1-.15.21-.2.34-.11.25-.22.51-.81.54-.47.02-.33.19-.16.4.15.18.32.4.16.57-.14.16-.32.08-.55-.03-.34-.15-.79-.36-1.4.03-.84.53-.17 1.22.27 1.5-.85-.23-1.7.13-2.97.66l-.76.32c-1.14.47-1.75-.02-1.99-.46V13Zm0 9.84v3.48c.16.14.4.23.7.18.37-.07.64.07.84.17.22.12.36.18.45-.17l.74-2.72c-.62.2-1.97.28-2.45-.94H13Zm0 7.92V43h3.2l8.14-.99a1.8 1.8 0 0 0 1.64-1.67c0-.1.02-.19.04-.3.24-1.81.8-6.01-.78-7.2-.8-.6-.88-1.03-.96-1.43-.08-.43-.16-.81-1.16-1.29-1.92-.9-2.3-.9-2.97-.45-.31.22-.78.2-1.17.18-.43-.02-.78-.04-.74.27 0 .1.02.2.04.28.06.38.09.52-.46.66-.17.05-.33.12-.51.2-.54.22-1.15.47-1.86.05-.45-.27-.7-.12-.92 0-.24.14-.44.25-.83-.25-.3-.38-.53-.41-.7-.3ZM38.9 43H43V28.88l-1.26-.46v2.02c-.5-.41-1.72-.92-2.72.28-.68.8-.96.55-1.2.34-.2-.18-.37-.33-.72.25-.71 1.16-1.03.86-1.52.39l-.12-.11a6.2 6.2 0 0 1-.44-.48c-.38-.45-.76-.88-1.16-.67-.45.22 0 .86.28 1.15l-1.19.52a4.86 4.86 0 0 1-1.26-1.4c-.24.02-.76.15-.9.6a4.41 4.41 0 0 1-1.01-1.36 5.53 5.53 0 0 0-.98 4.32l.16 1.06c.3 2 .46 3 .82 6.54 2.22.33 6.64.94 9.12 1.13ZM25.71 25.12c-.32.16-.7.66.3 1.34.53.37 1.04.88 1.47 1.33.57.57 1.02 1.03 1.3.92.49-.2.88-2.05.23-2.69-.64-.63-1.3-.38-1.73-.1-.43.27-1.26.14-1.57-.8Zm4 3.88.44-1.85c.02-.15.2-.4.76-.22.19.06.33.09.43.11.3.06.36.08.45.49.08.33.34.38.6.44.2.04.39.09.5.23l.2.29c.16.27.3.51.65.51-.04.2-.22.52-.61.3a2.82 2.82 0 0 0-1.9-.39c-.69.07-1.3.1-1.51.1Zm-1.53 1.24-.9 2.29c-1.08-.24-1.44-.79-1.9-1.78a2.24 2.24 0 0 0-1.89-1.35c-.28-.03-.64-.18-1.02-.33-.44-.18-.9-.36-1.23-.36-.61 0-.76-.34-.63-.8.1-.36.46-.07.63.13.14-.4.47-.64.61-.71.87-.35 1.46-.8 1.64-.98.22.04.76.09 1.2 0 .47-.1 1.98 1.49 2.79 2.34.11.12.2.23.29.31.53.55.5 1.06.41 1.24Z" fill="#13519E"/></svg>