<!-- by TradingView --><svg width="56" height="56" viewBox="0 0 56 56" xmlns="http://www.w3.org/2000/svg"><path fill="#F0F3FA" d="M0 0h56v56H0z"/><path d="M20.9 29.14c.64-.04 3.02-1.38 5.21-1.74.2-.97 3.88-6.4 4.64-7.34A6.02 6.02 0 0 1 35.43 18c3.42 0 5.57 2.1 5.57 5.38 0 2.71-1.4 4.5-3.5 5.62 0 .06 1.44 3.13 1.65 3.41 3.1-.43 5.85-5.75 5.85-8.91 0-5.83-4.5-9.5-9.5-9.5-3 0-5.22 1-6.78 2.7-1.67 1.82-6.25 9.71-7.82 12.44Z" fill="#3B515E"/><path d="M19.37 32.06c-.52 1.13-1.34 2.73-1.37 4.14-.26 5.47 4.62 9.95 10 9.8v-4c-3.49-.13-6.08-2.44-6-5.74.06-2.73 2.57-5.24 2.92-6.56-1.46.12-3.51 2.27-5.55 2.36Z" fill="#3B515E"/><path d="M20.38 33c3.15.03 4.7-1.97 7.49-2 3.25-.04 5.98 1.96 6.13 5.17.16 3.37-2.6 5.69-6 5.83v4a9.9 9.9 0 0 0 10-9.83c0-5.46-5.22-9.2-10.47-9.17-2.86.02-5 2-7.12 2-3.13-.01-5.4-2.27-5.41-5.61 0-3.06 2.07-5.34 5.1-5.39 1.95-.03 2.5.63 3.61 1.21.1-.05 2.24-2.78 2.3-2.94-.59-1.18-3.81-2.1-5.76-2.1a9.19 9.19 0 0 0-9.25 9A9.5 9.5 0 0 0 20.38 33Z" fill="#F7B52D"/></svg>