<!-- by TradingView --><svg width="56" height="56" viewBox="0 0 56 56" xmlns="http://www.w3.org/2000/svg"><path fill="#F52D62" d="M0 0h56v56H0z"/><path d="M33 30v8h-.95L27 31.67V38h-1v-8h.96L32 36.3V30h1ZM37.42 34.44 36 35.93V38h-1v-8h1v4.46L40.08 30h1.2l-3.16 3.6L41.5 38h-1.24l-2.83-3.56ZM42 37.01l.4-.87c.58.53 1.58.86 2.58.86 1.36 0 2.02-.47 2.02-1.16 0-1.92-5-.7-5-3.61 0-1.21 1.13-2.23 3.18-2.23.91 0 1.86.25 2.5.7l-.37.9a3.98 3.98 0 0 0-2.13-.6c-1.32 0-2.18.51-2.18 1.19 0 1.92 5 .72 5 3.6 0 1.2-.96 2.21-3.03 2.21a4.67 4.67 0 0 1-2.97-.99ZM15 18v8h-1v-3H9v3H8v-8h1v4h5v-4h1ZM15 30v8h-1v-3H9v3H8v-8h1v4h5v-4h1ZM22.25 23.39H18.5L17.35 26h-1.18l3.64-8h1.14l3.65 8H23.4l-1.14-2.61Zm-.43-.95-1.44-3.27-1.45 3.27h2.89ZM22.25 35.39H18.5L17.35 38h-1.18l3.64-8h1.14l3.65 8H23.4l-1.14-2.61Zm-.43-.95-1.44-3.27-1.45 3.27h2.89ZM30.87 26l-1.64-2.62-.38.01H27V26h-1v-8h2.84c1.89 0 3.04 1.05 3.04 2.8 0 1.23-.59 2.12-1.61 2.52L32 26h-1.13Zm-.02-5.29c0-1.14-.7-1.71-2.03-1.71H27v3.43h1.82c1.33 0 2.03-.58 2.03-1.72ZM36 19h-3v-1h7v1h-3v7h-1v-7ZM48 25v1h-6v-8h6v1h-5v3h4v1h-4v2h5Z" fill="#fff"/></svg>