<!-- by TradingView --><svg xmlns="http://www.w3.org/2000/svg" width="56" height="56"><path fill="#F0F3FA" d="M0 0h56v56H0z"/><path d="M48 25h-2v-2h6v2h-2v6h-2v-6zm-7 0h-2v-2h6v2h-2v6h-2v-6zm-9-2h5v1.48h-3.44v1.63H37v1.58h-3.44v1.82H37V31h-5v-8zM4 23h2v3h2v-3h2v8H8v-3H6v3H4v-8zm20 0h3.33c1.6 0 2.67.68 2.67 1.95 0 1-.35 1.39-.9 1.77.65.3 1.09.91 1.09 2.01 0 1.81-1.47 2.27-3.1 2.27H24v-8zm4.19 5.53c0-.57-.3-1.1-1.27-1.1H26v2.21h.86c1.01 0 1.33-.54 1.33-1.1zm-.19-3.4c0-.47-.49-.8-.91-.8H26V26h1.09c.48 0 .91-.3.91-.86zM16 23h3.33c1.6 0 2.67.68 2.67 1.95 0 1-.35 1.4-.9 1.77.65.3 1.09.92 1.09 2.02 0 1.8-1.47 2.26-3.1 2.26H16v-8zm4.19 5.54c0-.57-.3-1.1-1.27-1.1H18v2.2h.86c1.01 0 1.33-.54 1.33-1.1zm-.19-3.4c0-.48-.49-.8-.91-.8H18V26h1.09c.48 0 .91-.3.91-.86zM12 23h2v8h-2zm20.87 11.55h-.56V34h1.72v.55h-.55V36h-.61v-1.45zM22 34h.58c.46 0 1.02.1 1.02.67 0 .32-.11.55-.39.66-.2.08-.37.07-.6.07v.6H22v-2zm1.03.7c0-.13-.08-.21-.21-.21h-.2v.41h.2c.11 0 .21-.1.21-.2zm5.76-.7h.59c.48 0 1.05.1 1.05.67 0 .27-.08.47-.27.6l.41.73h-.65l-.3-.6h-.2v.6h-.63v-2zm1.06.7c0-.13-.08-.21-.22-.21h-.2v.41h.2c.12 0 .22-.1.22-.2zm-11.3.62h.59c.03.13.14.22.29.22.23 0 .23-.12.2-.16-.03-.05-.09-.08-.31-.15-.32-.06-.5-.16-.6-.24-.21-.2-.19-.61.04-.81.27-.24.95-.24 1.23 0 .12.1.17.26.2.4l-.56.03c0-.1-.14-.16-.27-.16-.25 0-.25.15-.12.22.03.01.1.05.2.07.37.08.79.15.79.6 0 .35-.24.66-.8.66-.46 0-.88-.19-.88-.68zm17.21 0h.6a.3.3 0 00.3.22c.23 0 .22-.12.2-.16-.04-.05-.1-.08-.32-.15-.32-.06-.5-.16-.6-.24-.22-.2-.2-.61.04-.81.27-.24.96-.24 1.23 0 .13.1.18.26.2.4l-.56.03c0-.1-.14-.16-.27-.16-.25 0-.25.15-.12.22.03.01.1.05.2.07.37.08.8.15.8.6 0 .35-.25.66-.8.66-.47 0-.9-.19-.9-.68z"/><path fill-rule="evenodd" d="M26.15 34a.95.95 0 00-.95.95v.1a.95.95 0 001.9 0v-.1a.95.95 0 00-.95-.95zm0 .43a.4.4 0 00-.4.4v.3a.4.4 0 10.8 0v-.3a.4.4 0 00-.4-.4z"/></svg>