<!-- by TradingView --><svg width="56" height="56" viewBox="0 0 56 56" xmlns="http://www.w3.org/2000/svg"><path fill="#F0F3FA" d="M0 0h56v56H0z"/><path d="M35 11h4v29.21c-3.16-2.48-4.38-5.86-4.38-7.21 0-2.06 2.34-4.83 3.5-6-1.5 0-3.5 1.33-4.5 2a103.3 103.3 0 0 1-.57-1.1c-1.29-2.53-3-5.9-7.43-5.9-4.45 0-8.15 1.9-10.62 4.1V21h4v-2h4v-2h4v-2h4v-2h4v-2Zm-9.81 33H39v-1.68A14.46 14.46 0 0 1 35.62 41c-1.8-1.08-2.66-3.06-3.3-4.54l-.2-.46c-1.72 2.39-4.1 5.65-6.93 8Zm-.07-18c2.8 0 5.05 2.96 5.88 5-2.8 3.66-7.04 7.89-8.88 9.25-1.66 1.18-7 1.58-7-3.57 0-5.6 6.5-10.68 10-10.68Z" fill="#198DC7"/></svg>