<!-- by TradingView --><svg width="56" height="56" viewBox="0 0 56 56" xmlns="http://www.w3.org/2000/svg"><path fill="#4D1822" d="M0 0h56v56H0z"/><path d="m28 12 18 7.04-.86.96H10.86l-.86-.96L28 12ZM11 22v-1h34v1H11Zm0 19v-2h34v2H11Zm0-3v-1h34v1H11Zm29.2-19h3.57L28 12.69 12.23 19h3.56L28 14.56 40.2 19Zm-2.23 0h1.46L28 14.95 16.8 19h1.44L28 15.55 37.97 19ZM28 19c.72 0 1.3-.55 1.3-1.35s-.58-1.3-1.3-1.3c-.72 0-1.3.5-1.3 1.3S27.28 19 28 19Zm-7 16h-4v-.4c.72-.1 1-.17 1-1.16V30h-4v3.44c0 1 .28 1.06 1 1.15V35h-4v-.4c.72-.12 1-.2 1-1.16v-7.88c0-1.04-.42-1.09-.97-1.15H11V24h4v.4c-.6.06-1 .09-1 1.16V29h4v-3.44c0-1.07-.4-1.1-1-1.15V24h4v.4c-.58.06-1 .1-1 1.16v7.88c0 .97.28 1.04 1 1.15V35Zm1.63 0h4.78v-.4h-.01c-.75-.07-1.4-.13-1.4-1.16v-7.88c0-1.08.74-1.12 1.38-1.15h.03V24h-4.78v.4l.04.01c.62.05 1.33.1 1.33 1.15v7.88c0 1-.63 1.07-1.36 1.15V35Zm22.07-8c-.29-1.08-1.24-2.5-3.12-2.5-.83 0-1.58.46-1.58 1.46 0 .84.04 1.28 1.37 1.93l2.34 1.13c.55.26 1.9 1.06 1.9 2.75 0 1.36-1.02 3.23-3.95 3.23-.96 0-1.6-.21-2.07-.37a2.28 2.28 0 0 0-.65-.16c-.33 0-.41.28-.48.53H38v-4h.46c.32 1.56 1.24 3.49 3.26 3.49 1.91 0 2-1.53 2-1.73 0-1.04-.63-1.54-1.67-2.02l-1.06-.5C38.27 28.99 38 27.79 38 27.07c0-.94.64-3.04 3.66-3.04.8 0 1.39.2 1.83.34.27.1.48.17.65.17.37 0 .45-.24.53-.53H45v3h-.3Zm-16 8v-.43h.65c.31 0 .65-.28.65-.62v-8.9c0-.34-.34-.62-.65-.62h-.66V24H36v3.42h-.24c.01-.87-.46-2.38-2.42-2.42H32v4h.57c.77 0 1.43-.79 1.43-1.64V27h.41v5H34v-.72c0-.86-.66-1.28-1.43-1.28H32v3.95c0 .34.24.62.55.62h.64V35h-4.5Z" fill="#fff"/></svg>