<!-- by TradingView --><svg width="56" height="56" viewBox="0 0 56 56" xmlns="http://www.w3.org/2000/svg"><path fill="#F0F3FA" d="M0 0h56v56H0z"/><path d="M26.77 21.38c1.03-.24 2.29-.78 2.94.25.38.6.3 2.25.3 3.27 0 .08.1.14.18.16.44.1.58.39.43.84-.02.07-.07.1-.14.1h-2.42c-.12 0-.17-.05-.17-.15v-.63c0-.08.04-.12.12-.14l.22-.03c.07-.02.1-.06.1-.13v-2.27a.41.41 0 0 0-.03-.17.44.44 0 0 0-.11-.15.51.51 0 0 0-.36-.12l-1.05.07c-.09 0-.14.05-.14.13v2.41c0 .08.04.14.1.18l.46.26c.08.05.12.11.12.2v.39c0 .1-.06.16-.17.16h-2.61c-.1 0-.15-.05-.15-.14v-.6c0-.1.04-.15.13-.17l.34-.09c.1-.02.14-.08.14-.17v-4.18c0-.33-.17-.53-.5-.6-.07-.02-.11-.07-.11-.14v-.48c0-.1.06-.17.17-.19l1.68-.24c.26-.04.4.07.4.32v1.97c0 .07.05.1.13.08ZM20.37 35.87v-4.4c0-.2-.16-.34-.47-.4-.1-.01-.15-.07-.15-.16v-.5c0-.1.05-.15.15-.16l1.7-.24c.27-.04.4.07.4.32v5.5c0 .07.05.13.12.17l.45.22c.08.04.12.1.12.19v.46c0 .09-.05.13-.14.13h-2.71c-.1 0-.14-.04-.14-.13v-.6c0-.09.04-.13.12-.15l.43-.11c.08-.02.12-.07.12-.14ZM26.64 36.63c-1.77.87-3.1.09-3.35-1.56-.32-2.13 1.08-2.95 3.2-2.95.09 0 .13-.04.12-.12l-.06-.69c0-.09-.06-.14-.15-.16-.44-.1-.57-.37-.4-.78.04-.08.1-.13.2-.14l1.57-.23a.44.44 0 0 1 .32.09c.04.03.08.07.1.12.03.05.04.1.04.15v5.32c0 .07.03.13.07.19.04.05.1.1.17.12.33.12.42.33.28.65a.22.22 0 0 1-.18.13l-1.55.23c-.1.01-.17-.03-.19-.12l-.03-.18c-.02-.09-.07-.11-.16-.07Zm-1.56-3.25c-.22.9-.46 2.65 1.2 2.43a.38.38 0 0 0 .23-.11c.06-.07.09-.15.09-.23v-2.04c0-.1-.05-.14-.15-.15l-1.2-.03a.18.18 0 0 0-.1.03.16.16 0 0 0-.07.1ZM10.12 21.75h1.73c.08 0 .14-.08.15-.16v-1.15c-.07-.18-.3-.26-.49-.3-.1-.02-.14-.09-.13-.2v-.77c0-.11.05-.16.16-.16h2.88c.1 0 .18.04.18.13v.82c0 .1-.09.16-.18.19l-.28.06c-.1.03-.14.08-.14.18v4.19c0 .09.04.15.12.18.24.09.42.05.48.25v.84s-.03.15-.14.15H11.5c-.1 0-.13-.06-.13-.18v-.79c0-.09.05-.17.13-.18l.36-.05c.1-.01.14-.07.14-.18V23.3c0-.07-.03-.11-.1-.11h-1.74c-.1 0-.16.06-.16.17v1.26c0 .09.04.15.12.2h.26c.17.05.21.12.21.2v.87c0 .07-.03.13-.1.13H7.52c-.1 0-.22-.05-.22-.16v-.84c0-.1.12-.15.2-.16l.34-.04c.09 0 .16-.06.16-.16v-3.83c0-.79-.9-.61-.59-1.67.02-.07.06-.14.13-.14h2.95c.07 0 .18.08.18.16v.77c0 .08-.03.12-.1.15l-.43.14c-.09.04-.14.1-.14.2v1.16c0 .07.05.16.12.16ZM10.12 32.74h1.73c.08 0 .14-.07.15-.16v-1.15c-.07-.18-.3-.26-.49-.3-.1-.02-.14-.08-.13-.2v-.77c0-.1.05-.16.16-.16h2.88c.1 0 .18.05.18.14v.81c0 .1-.09.17-.18.19l-.28.07c-.1.02-.14.08-.14.18v4.18c0 .1.04.15.12.18.24.1.42.06.48.26v.84s-.03.15-.14.15H11.5c-.1 0-.13-.06-.13-.18v-.8c0-.09.05-.16.13-.18l.36-.04c.1-.02.14-.08.14-.18v-1.33c0-.08-.03-.12-.1-.12h-1.74c-.1 0-.16.07-.16.17v1.27c0 .08.04.15.12.19h.26c.17.05.21.12.21.2v.88c0 .07-.03.12-.1.12H7.52c-.1 0-.22-.05-.22-.15V36c0-.1.12-.16.2-.17l.34-.03c.09-.01.16-.07.16-.17v-3.83c0-.79-.9-.6-.59-1.66.02-.07.06-.15.13-.15h2.95c.07 0 .18.08.18.16v.78c0 .07-.03.12-.1.14l-.43.15c-.09.03-.14.1-.14.2v1.15c0 .08.05.16.12.16ZM20.45 24.5c-.04.7 3.74-.08 3.37 2.13-.24 1.45-2.47 1.46-3.7 1.32-1.3-.15-1.83-1.45-.81-2.24.07-.05.08-.11.05-.19-.18-.47-.09-.9.29-1.27.06-.07.05-.12-.03-.17-.43-.24-.66-.54-.7-.9-.2-2.1 1.94-2.51 3.6-2h.2l1.37-.36c.13-.03.19.01.19.13v1.15c0 .08-.05.12-.14.11l-.46-.04c-.12-.01-.17.04-.16.15.2 1.83-1.37 2.12-2.94 2.08-.08 0-.12.03-.13.1Zm1.27-1.1c.87-1.72-2-1.97-1-.1.1.18.88.35 1 .1Zm.5 3.32c.04-.63-1.15-.68-1.82-.7-.06 0-.1.02-.12.08-.2.95 1.01.92 1.64.9.08 0 .15-.03.2-.08.07-.05.1-.12.1-.2ZM39.85 35.22c-.5-.3-.75-.71-.74-1.28.02-1.78 2.15-2.01 3.6-1.6.07.02.14.02.2 0l1.4-.33c.12-.03.18.01.18.13l-.03 1.13c0 .09-.05.12-.14.11l-.45-.07c-.11-.01-.17.03-.15.14.22 1.8-1.4 2.09-2.94 2.04-.07 0-.11.03-.13.1-.05.3 1.9.52 2.24.6 1.36.29 1.6 1.83.37 2.4-.78.37-1.76.48-2.95.36-1.27-.14-1.83-1.43-.8-2.18.07-.05.09-.1.06-.18-.2-.47-.1-.88.3-1.24l.02-.03a.08.08 0 0 0-.01-.08.1.1 0 0 0-.03-.02Zm1.15-.75c.11.15.87.24.96 0 .71-1.88-2.18-1.62-.96 0Zm1.03 2.77-1.38-.21c-.08-.02-.13.01-.15.08-.38 1.17 2.4 1.24 1.85.34a.44.44 0 0 0-.32-.2Z" fill="#4A5376"/><path d="m16.07 18.4 1.5-.4c.05 0 .1.02.1.06l.36 1.3a.08.08 0 0 1-.05.1l-1.5.4a.08.08 0 0 1-.11-.06l-.36-1.3a.08.08 0 0 1 .06-.1Zm-.05 3.73c.09.06.2.13.28.22.05.04.07.1.07.16v2.32c0 .08-.04.13-.12.15l-.43.11c-.09.02-.13.07-.13.15v.63c0 .09.05.14.15.14h2.7c.09 0 .14-.05.14-.14v-.51c0-.1-.05-.16-.15-.19-.35-.07-.53-.22-.52-.46v-3.3a.4.4 0 0 0-.05-.17.42.42 0 0 0-.44-.23l-1.58.23a.18.18 0 0 0-.15.11c-.22.5-.03.62.23.78ZM29.7 29.4l1.5-.4c.05 0 .1.02.11.06l.36 1.3a.08.08 0 0 1-.06.1l-1.5.4a.08.08 0 0 1-.1-.06l-.36-1.3a.08.08 0 0 1 .05-.1Zm-.05 3.73c.1.06.2.12.29.22.04.04.06.1.06.15v2.32c0 .08-.04.13-.12.15l-.43.12c-.08.02-.12.07-.12.15v.62c0 .1.05.14.14.14h2.7c.1 0 .14-.05.14-.14l.01-.5c0-.1-.05-.17-.16-.2-.35-.06-.52-.22-.52-.45V32.4a.4.4 0 0 0-.04-.17.42.42 0 0 0-.44-.23l-1.59.24a.18.18 0 0 0-.14.1c-.22.5-.03.62.22.79ZM33.35 23.97l.9-2.72c.02-.08.13-.23.22-.24h.7c.08-.01.13.02.15.09l1.03 2.98c0 .02.01.03.03.04a.08.08 0 0 0 .08 0l.03-.04.57-1.95c.03-.1 0-.16-.11-.19-.43-.1-.53-.36-.3-.8.03-.07.08-.13.16-.13h1.5c.07 0 .12.06.15.12.31.74-.8 2.94-1.55 4.66-.03.07-.1.2-.18.21H35.6c-.1.01-.16-.03-.18-.12l-.73-2.26a.06.06 0 0 0-.02-.03.07.07 0 0 0-.08 0 .06.06 0 0 0-.03.03l-.8 2.16c-.03.08-.14.21-.23.22h-1.1c-.08.01-.14-.02-.16-.1l-1.3-3.53c-.1-.32-.5-.7-.44-1.2 0-.08.06-.16.16-.16h2.22c.08 0 .13.07.14.15l.08.58c.01.1-.03.14-.14.14h-.25c-.11 0-.15.05-.12.15l.58 1.94c.05.15.1.15.14 0ZM42.03 25.57c-.72.34-1.66.63-2.37.27-.66-.32-.92-1.1-.5-1.68.5-.7 1.82-.93 2.67-.95.08 0 .12-.04.14-.1.12-.4.02-.67-.3-.82-.75-.37-1.24-.2-1.47.5-.02.09-.08.13-.17.13h-.49c-.1 0-.16-.05-.18-.15l-.2-1.3c0-.08.03-.12.1-.13 1.31-.3 4.15-.93 4.24 1.06.03.75.04 1.5.03 2.28 0 .06.03.13.07.18.04.05.1.09.17.1.33.09.43.3.3.67-.03.07-.09.12-.17.13l-1.44.22c-.12.02-.18-.02-.2-.13l-.05-.2c-.02-.1-.08-.12-.18-.08Zm-1.52-1.31c-.13.82.87.8 1.4.5.07-.03.1-.09.1-.16v-.47c0-.1-.06-.15-.17-.13l-1.22.16c-.06 0-.1.04-.1.1ZM19.6 34.79c-.34 3.12-5.08 2.93-4.76-.5.29-3.2 5.14-3.06 4.75.5Zm-1.64.8c.15-.93.27-2.92-1.38-2.37a.17.17 0 0 0-.12.13c-.15.87-.24 2.91 1.29 2.48a.3.3 0 0 0 .2-.24ZM35.07 32.44c3.02-1.3 3.21.56 3.21 2.71.02.47-.18.88.5 1.03.08.01.12.06.12.14v.54c0 .1-.06.14-.15.14H36.3c-.1 0-.17-.05-.17-.16v-.6c0-.1.05-.16.14-.18l.24-.06c.05-.01.08-.04.08-.1v-2.17a.45.45 0 0 0-.16-.35.5.5 0 0 0-.38-.12l-.93.06c-.08 0-.12.04-.12.11v2.37c0 .08.04.13.12.17l.44.24c.08.04.12.1.12.19v.47c0 .09-.04.13-.14.13H32.9c-.1 0-.15-.05-.15-.14v-.65c0-.08.04-.13.12-.15l.39-.08c.08-.02.12-.08.12-.16v-2.28c0-.08-.08-.2-.15-.24l-.38-.2a.17.17 0 0 1-.1-.16v-.46c0-.1.05-.16.16-.18l1.76-.27c.12-.02.18.03.2.14l.05.2c.02.08.06.1.15.07ZM47.14 36.03c.06 0 .11-.03.16-.07a.25.25 0 0 0 .05-.3.26.26 0 0 0-.12-.12c-.55-.26-1.05-.54-1.51-.83-1.17-.73-.72-2.25.51-2.58.8-.22 1.62-.16 2.47.18.05.02.08.06.08.12l-.08 1.07c0 .07-.04.12-.1.14-.66.3-.83-.98-1.93-.6a.25.25 0 0 0-.11.08.23.23 0 0 0-.03.25c.02.04.05.08.1.1.93.54 2.98 1.17 2.2 2.63-.62 1.13-2.64.99-3.72.68-.08-.02-.12-.07-.1-.15l.1-1.04c0-.07.04-.12.12-.15l.33-.1c.1-.02.17 0 .21.08.3.49.75.7 1.37.61Z" fill="#4A5376"/><path d="m45.66 22.08.7 2.11c.06.14.1.14.16 0l.85-2.07c.04-.09.01-.15-.08-.18l-.34-.12c-.08-.03-.11-.08-.1-.17l.05-.46c.02-.13.09-.19.22-.19h1.53c.07 0 .11.03.13.1.1.32.12.57.05.73a57.01 57.01 0 0 1-3.18 6.37c-.05.09-.12.1-.2.03l-1.04-1.02c-.08-.07-.08-.14 0-.2l.93-.92a.18.18 0 0 0 .04-.22l-1.84-4.55a.23.23 0 0 1 .22-.32h2.2c.08 0 .13.04.14.12l.07.61c.01.08-.02.12-.1.13l-.3.04c-.11.01-.15.07-.11.18Z" fill="#4A5376"/></svg>