<!-- by TradingView --><svg xmlns="http://www.w3.org/2000/svg" width="56" height="56"><path fill="#F0F3FA" d="M0 0h56v56H0z"/><path d="M44 35.3V20.7c0-1.23-.66-2.35-1.69-2.97l-12.57-7.27a3.41 3.41 0 00-3.43 0L13.7 17.73A3.55 3.55 0 0012 20.7v14.55c0 1.23.66 2.35 1.69 2.97l12.62 7.32c1.08.61 2.35.61 3.43 0l12.57-7.27A3.38 3.38 0 0044 35.3z" fill="url(#ajo4ccvvn)"/><path opacity=".6" d="M37 23.3v-6.55c0-1.23-.66-2.35-1.67-2.96l-5.61-3.33a3.35 3.35 0 00-3.39 0l-5.66 3.33A3.38 3.38 0 0019 16.75v6.55c0 1.23.66 2.35 1.67 2.97l5.66 3.27c1.06.61 2.33.61 3.39 0l5.61-3.27A3.38 3.38 0 0037 23.3z" fill="#fff"/><path opacity=".8" d="M37.1 39.19v-6.6c0-1.24-.67-2.36-1.69-2.98l-5.67-3.27a3.41 3.41 0 00-3.43 0l-5.67 3.27a3.38 3.38 0 00-1.69 2.97v6.6c0 1.24.67 2.36 1.69 2.98l5.67 3.28c1.08.61 2.35.61 3.43 0l5.67-3.28a3.38 3.38 0 001.69-2.97z" fill="url(#bjo4ccvvn)"/><path opacity=".1" d="M44 27.3v-6.55c0-1.23-.66-2.35-1.67-2.96l-5.61-3.33a3.35 3.35 0 00-3.39 0l-5.61 3.27A3.57 3.57 0 0026 20.75v6.55c0 1.23.66 2.35 1.67 2.97l5.66 3.27c1.06.61 2.33.61 3.39 0l5.61-3.27A3.38 3.38 0 0044 27.3z" fill="#fff"/><path opacity=".6" d="M44 35.33v-6.61a3.5 3.5 0 00-1.67-2.98l-5.61-3.28a3.34 3.34 0 00-3.39 0l-5.61 3.28A3.44 3.44 0 0026 28.72v6.56a3.5 3.5 0 001.67 2.98l5.61 3.28c1.06.61 2.33.61 3.39 0l5.61-3.28A3.2 3.2 0 0044 35.33z" fill="#fff"/><path opacity=".1" d="M30 27.3v-6.55c0-1.23-.66-2.35-1.66-2.96l-5.65-3.33a3.33 3.33 0 00-3.38 0l-5.65 3.33A3.49 3.49 0 0012 20.75v6.55c0 1.23.66 2.35 1.66 2.97l5.65 3.27c1.06.61 2.32.61 3.38 0l5.6-3.27A3.43 3.43 0 0030 27.3z" fill="#fff"/><path opacity=".6" d="M30 35.33v-6.61a3.5 3.5 0 00-1.66-2.98l-5.6-3.28a3.32 3.32 0 00-3.38 0l-5.7 3.28A3.5 3.5 0 0012 28.72v6.56a3.5 3.5 0 001.66 2.98l5.6 3.28c1.06.61 2.32.61 3.38 0l5.6-3.28A3.25 3.25 0 0030 35.33z" fill="#fff"/><defs><linearGradient id="ajo4ccvvn" x1="15.68" y1="40.36" x2="40.4" y2="15.68" gradientUnits="userSpaceOnUse"><stop stop-color="#2AB4FF"/><stop offset="1" stop-color="#7FC6CE"/></linearGradient><linearGradient id="bjo4ccvvn" x1="28.03" y1="45.9" x2="28.03" y2="25.87" gradientUnits="userSpaceOnUse"><stop stop-color="#2A85FF"/><stop offset="1" stop-color="#fff"/></linearGradient></defs></svg>