<!-- by TradingView --><svg width="56" height="56" viewBox="0 0 56 56" xmlns="http://www.w3.org/2000/svg"><path fill="#F0F3FA" d="M0 0h56v56H0z"/><path d="M38.33 28.36 44 28a16 16 0 1 0-29.43 8.7l3.58-.12-.02-.01 10.27-.37 7.57-.36-4.22-.86 10.78-.27c.16-.34.3-.69.44-1.04H30.7c-.45.73-1 1.4-1.62 1.97H16.92a9.05 9.05 0 0 1-1.5-1.78l13.98-.73-.38-.41-14.29-.16a8.93 8.93 0 0 1-.6-2.05l15.27-.68-.38-.38L14 29.2V29a9 9 0 1 1 17.97.76l9.98-.53-3.62-.87Zm-6.43 1.99a8.94 8.94 0 0 1-.83 2.63l7.78-.5-3.78-.89 8.59-.27.17-.97H31.9Zm-4.7 6.61a8.96 8.96 0 0 1-8.4 0h-4.06a15.98 15.98 0 0 0 26.52 0H27.2Z" fill="#005BA1"/></svg>