<!-- by TradingView --><svg xmlns="http://www.w3.org/2000/svg" width="56" height="56" viewBox="0 0 56 56"><path fill="#F0F3FA" d="M0 0h56v56H0z"/><path fill-rule="evenodd" d="M43.33 20.9a2 2 0 1 0 3.34 2.2 2 2 0 0 0-3.34-2.2Zm.97 2.1 2-1-2-1.08V23Z" fill="#00A8C8"/><path fill-rule="evenodd" d="M10 34v-6.85C10 25.82 9.13 25 7.72 25c-.66 0-1.42.4-1.72.9V22H5v8h1v-2.42C6 26.56 6.6 26 7.54 26c.93 0 1.46.54 1.46 1.58v5.5c0 .75.63.92.92.92H10Zm24.5-3c.64 0 1.28-.23 1.75-.67v.01c.62-.6.75-1.4.75-2.33 0-.92-.13-1.73-.75-2.34A2.55 2.55 0 0 0 34.5 25c-.64 0-1.28.23-1.74.67-.62.6-.75 1.42-.75 2.33 0 .91.13 1.73.75 2.33.46.44 1.1.67 1.74.67Zm0-5c.41 0 .76.14 1.06.42.44.42.44 1 .44 1.57v.05c0 .56 0 1.2-.44 1.61-.3.29-.65.35-1.07.35-.4 0-.7-.06-.99-.35-.45-.42-.5-1.07-.5-1.64 0-.56.05-1.16.5-1.6.3-.27.59-.41 1-.41Zm6 0c.96 0 1.5.61 1.5 1.66V31h1v-3.8c0-1.28-1.03-2.2-2.29-2.2h-.41c-1.25 0-2.3.94-2.3 2.2V31h1v-3.34c0-1.05.55-1.66 1.5-1.66Zm-12.18-1h.4c1.25 0 2.28 1 2.28 2.2V31h-1v-3.36c0-1.06-.54-1.64-1.48-1.64-.95 0-1.52.6-1.52 1.64V31h-1v-3.34c0-1.06-.57-1.66-1.52-1.66-.95 0-1.48.62-1.48 1.66V31h-1v-3.8c0-1.2.98-2.2 2.27-2.2h.42c.66 0 1.4.23 1.8.76a2.33 2.33 0 0 1 1.83-.76Zm16.18 6h1v-6h-1v6Zm6.5-4.51v-.98c-.42-.35-.94-.51-1.47-.5C48.09 25 47 26 47 28s1.09 3 2.53 3c.53 0 1.05-.14 1.47-.48v-.96s-.55.44-1.35.44c-1.2 0-1.65-.95-1.65-2 0-1 .37-2 1.65-2 .46 0 .99.13 1.35.49ZM19.47 25c-1.47.05-2.48 1.1-2.47 2.45V31h1v-3.19c0-1.15.77-1.79 1.69-1.81.47 0 .91.04 1.31.38v-1.05a2.76 2.76 0 0 0-1.53-.33Zm-7.97.63c.25-.2.88-.63 1.91-.63 1.72 0 2.59.68 2.59 1.96V31h-1v-.6c-.52.47-1.13.6-1.78.6C11 31 11 29.27 11 29.27c0-1.27.86-2.07 2.34-2.07.75 0 1.35.33 1.66.55v-.45c0-.86-.43-1.31-1.6-1.31-.81 0-1.5.31-1.9.71v-1.07Zm3.5 2.85v.38c0 1.1-1 1.34-1.72 1.34-.98 0-1.28-.63-1.28-1.01 0-.78.6-1.22 1.34-1.2.6.03 1.18.12 1.66.5Z" fill="#002039"/></svg>