<!-- by TradingView --><svg width="56" height="56" xmlns="http://www.w3.org/2000/svg"><path fill="#07487A" d="M0 0h56v56H0z"/><path d="M41.91 32.46l-2.836 3.113v1.172c1.29-1.5 2.428-3.482 2.836-4.285zM38.199 36.27l-3.572 2.86.492 1.187 3.08-2.661v-1.385zM43.94 25.708l-2.055 2.91.608 2.566c.755-1.604 1.28-4.319 1.447-5.476zM37.714 33.038l-4.18 3.293.818 2.056 3.726-2.92-.364-2.43zM30.086 32.528l-6.06 3.465 2.747 3.437 5.126-3.437-1.813-3.465zM36.119 28.334l-4.928 3.524 1.84 3.61 4.334-3.406-1.246-3.728zM33.74 39.577l-4.249 2.446 1.03.977c1.436-.656 3.147-1.732 3.823-2.187l-.605-1.236zM41.299 29.46l-2.684 2.931.378 2.285 2.809-2.953-.503-2.264zM39.947 24.843l-2.943 2.74 1.32 3.599 2.712-2.836-1.089-3.503zM40.713 24.104l1.784-2.24 1.113 3.074-1.947 2.526-.95-3.36zM20.995 19.01l-6.922 3.964 4.31 6.053 7.006-3.837-4.394-6.18zM17.886 30.86L12 33.673l4.435 4.817 5.555-2.814-4.104-4.816zM33.595 13l-4.098 1.846 3.786 5.298 3.59-2.448L33.596 13zM32.814 22.152l-5.425 3.372 3.122 5.098 5.036-3.533-2.733-4.937zM37.503 18.896l-3.525 2.666 2.76 4.65 2.826-2.462-2.061-4.854zM40.23 16.536l-1.796 1.812 2.028 4.615 1.63-2.085-1.862-4.342zM43.65 19.997l-.742 1.122 1.074 3.17c.091-2.59-.183-3.94-.332-4.292z" fill="#fff"/></svg>