<!-- by TradingView --><svg width="56" height="56" viewBox="0 0 56 56" xmlns="http://www.w3.org/2000/svg"><path fill="#F0F3FA" d="M0 0h56v56H0z"/><path fill-rule="evenodd" d="M35.15 20.53a4.68 4.68 0 0 1-2.89-.39 4.28 4.28 0 0 1-1.77-2.21c-.97.86-2.01 1.1-2.51 1.1-.51 0-1.74-.21-2.71-1.03-.14.5-.74 1.7-1.72 2.26-.44.25-1.61.69-2.87.47.13.5.24 1.81-.32 2.76a4.62 4.62 0 0 1-2.33 1.98c.37.36 1.1 1.42 1.1 2.51 0 .5-.2 1.8-1.04 2.79.51.13 1.67.68 2.23 1.61.38.56.8 1.75.56 3.01.51-.13 1.84-.22 2.8.32.56.27 1.52 1.1 1.95 2.32.38-.37 1.4-1.1 2.5-1.1 1.1-.03 2.17.67 2.56 1.03a4.38 4.38 0 0 1 1.88-2.37 4.33 4.33 0 0 1 2.8-.4 4.4 4.4 0 0 1 .46-3.02 4.14 4.14 0 0 1 2.19-1.68 4.77 4.77 0 0 1-1.12-2.75 4.11 4.11 0 0 1 1.03-2.55 4.63 4.63 0 0 1-2.38-1.91 4.07 4.07 0 0 1-.4-2.75ZM28.13 37.9c.38.03 1.38.3 2.17 1.07l-1.55 4.07c-.16.5-.37 1.31.59 1.7 1.2.49 4.13.1 5.98-1.61.33-.29.77-1.05-.1-1.84l-3.63-2.66c.14-.51.73-1.72 1.53-2.17a3.8 3.8 0 0 1 2.4-.2l.7 4.3c.12.51.34 1.32 1.36 1.18 1.29-.16 3.64-1.94 4.39-4.34.14-.41.15-1.3-1-1.54l-4.5-.53c-.12-.51-.22-1.82.24-2.61.22-.3.9-1.1 1.98-1.38l2.76 3.38c.35.4.95 1 1.77.37 1.03-.78 2.19-3.47 1.64-5.93-.08-.43-.52-1.2-1.65-.84l-4.15 1.74c-.37-.38-1.13-1.43-1.13-2.34.03-.38.23-1.36 1.01-2.14l4.1 1.55c.52.17 1.33.38 1.72-.57.5-1.19.12-4.1-1.6-5.94-.28-.33-1.05-.77-1.85.1l-2.7 3.58c-.51-.14-1.73-.75-2.19-1.54a3.7 3.7 0 0 1-.2-2.39l4.34-.67c.53-.1 1.34-.32 1.21-1.34-.16-1.27-1.94-3.61-4.36-4.37-.4-.15-1.3-.16-1.55.99l-.56 4.44c-.52.13-1.82.25-2.61-.22a3.74 3.74 0 0 1-1.36-1.95l3.4-2.75c.4-.36 1-.95.36-1.76-.79-1.02-3.51-2.15-5.99-1.6-.43.09-1.2.53-.84 1.64l1.79 4.12c-.38.37-1.14 1.1-2.05 1.1-.92.03-1.93-.68-2.32-1.05l1.66-4.16c.33-1.12-.45-1.54-.88-1.6-2.49-.5-5.18.7-5.95 1.75-.6.83 0 1.4.42 1.75l3.47 2.65a3.74 3.74 0 0 1-1.3 2c-.77.48-2.08.4-2.6.28l-.68-4.42c-.3-1.14-1.18-1.1-1.59-.95-2.4.83-4.1 3.22-4.23 4.5-.1 1.02.72 1.21 1.25 1.3l4.35.55a3.7 3.7 0 0 1-.13 2.4c-.43.8-1.63 1.44-2.14 1.6l-2.8-3.52c-.83-.84-1.58-.38-1.86-.04-1.67 1.9-1.96 4.81-1.43 5.98.42.94 1.23.7 1.74.53l4.05-1.67c.8.76 1.03 1.74 1.07 2.11.03.91-.7 1.99-1.06 2.38l-4.2-1.63c-1.14-.32-1.56.45-1.62.88-.48 2.47.75 5.14 1.8 5.89.84.6 1.42 0 1.77-.42l2.65-3.46a3.73 3.73 0 0 1 2.02 1.33c.48.77.43 2.08.3 2.6l-4.46.65c-1.14.28-1.12 1.16-.96 1.57.82 2.38 3.22 4.09 4.5 4.22 1.04.1 1.23-.7 1.33-1.23l.58-4.31a3.81 3.81 0 0 1 2.41.13c.81.44 1.44 1.62 1.6 2.13l-3.56 2.77c-.85.8-.4 1.56-.05 1.83 1.9 1.66 4.84 1.97 6.02 1.45.95-.42.72-1.22.54-1.72l-1.66-4.03c.77-.8 1.7-1.07 2.08-1.11Zm2.76-21.68-1.7-4.03c1.05-.27 3.54-.38 5.18 1.32l-3.48 2.71Zm5.48 3.04.6-4.33c1.03.3 3.23 1.45 3.79 3.74l-4.39.6Zm5.93 1.96-2.68 3.47 4.1 1.64c.67-2.26-.67-4.35-1.42-5.11Zm-2.57 9.68 4.08-1.66c.26 1.04.36 3.51-1.36 5.13l-2.72-3.47Zm1.29 6.05-4.37-.56.62 4.35c2.3-.56 3.46-2.76 3.75-3.79Zm-9.82 2.68 3.52 2.64c-.77.75-2.87 2.1-5.15 1.44l1.63-4.08ZM24.81 16.3l1.59-4.08c-1.05-.24-3.55-.28-5.14 1.47l3.55 2.61Zm-5.39 3.2-.71-4.32c-1.03.32-3.2 1.54-3.69 3.85l4.4.46Zm-5.87 2.11 2.78 3.4-4.06 1.75c-.73-2.24.55-4.37 1.28-5.15Zm2.84 9.62-4.12-1.55c-.24 1.04-.26 3.52 1.5 5.09l2.62-3.54Zm-1.11 6.08 4.35-.68-.5 4.36c-2.32-.5-3.53-2.66-3.85-3.68Zm9.89 2.4-3.44 2.74c.78.73 2.92 2.01 5.19 1.3l-1.75-4.03Z" fill="url(#an1ybl3ns)"/><defs><linearGradient id="an1ybl3ns" x1="39.61" y1="15.16" x2="15.12" y2="39.32" gradientUnits="userSpaceOnUse"><stop stop-color="#03AA65"/><stop offset="1" stop-color="#35EB7C"/></linearGradient></defs></svg>