<!-- by TradingView --><svg width="56" height="56" viewBox="0 0 56 56" xmlns="http://www.w3.org/2000/svg"><path fill="#01474F" d="M0 0h56v56H0z"/><path d="M25.9 20.4c.5-.06.51-.14.02-.25-1.01-.23-1.58-.55-1.7-.96l-2.12-7.24c-.03-.1 0-.13.1-.07.04.03.06.06.07.1.02.05.04.05.07 0l.02-.04a.15.15 0 0 0 .05-.1c.09-.8.44-1.4 1.07-1.8.12-.08.2-.05.24.1l.92 3.3c.06.22.16.36.31.43 1.45.66 3.04 1.17 4.75 1.5 1.86.37 4.08.76 6.66 1.19.76.12 1.47.41 2.15.86.06.04.09.09.09.16l.39 7.12c0 .14-.05.25-.18.31-.74.4-1.8.72-3.17.97-1.78.33-3.66.61-5.62.86-.48.07-.48.13 0 .19 2.22.28 4.43.78 6.61 1.51 1.7.57 2.49 1.33 2.36 2.3-.2 1.47-.4 3.06-.59 4.75-.13 1.19-.92 2.12-2.37 2.78-.83.38-1.65.7-2.46.93l-4.28 1.26c-.75.22-1.67.57-2.77 1.05-.08.03-.1.09-.05.16l2.28 3.85c.05.09.02.14-.07.17-1.8.43-3.28.2-4.43-.71-.36-.3-.74-.77-1.13-1.41-.82-1.4-1.68-2.76-2.56-4.1a.79.79 0 0 1-.12-.51c.11-1.23.94-2.26 2.48-3.1 1.2-.65 2.8-1.24 4.84-1.79.39-.1.38-.18-.01-.23a47.7 47.7 0 0 1-5.73-1.06c-1.74-.4-3.03-.83-3.88-1.27-.24-.13-.45-.3-.64-.53-.06-.07-.1-.06-.12.03a5.35 5.35 0 0 0-.13.87h-.06c-.02 0-.03-.02-.03-.04L17 23.42c0-.04.01-.07.05-.1.31-.26.64-.5.98-.7 1.92-1.1 4.54-1.83 7.87-2.22Z" fill="#F2FCFB"/><path d="M24.15 13.03c.1.35 0 .4-.28.18l-.77-.6a.83.83 0 0 1-.32-.78c.04-.46.23-.87.57-1.24.06-.07.1-.06.13.03l.67 2.4Z" fill="#6AAB51"/><path d="M32.92 19.48c-1.78.27-3.37.45-4.76.55a6.27 6.27 0 0 1-3.2-.64.85.85 0 0 1-.47-.55l-1.66-5.7c-.05-.15 0-.18.13-.08.74.56 1.55 1.03 2.41 1.39 1.76.72 4.49 1.39 8.2 2l2.7.46c.62.12 1.2.32 1.74.6.17.08.17.18.02.29-1.16.79-2.86 1.35-5.11 1.68Z" fill="#5F994A"/><path d="M35.07 25.7a2.74 2.74 0 0 1-.31-1.48l.05-.74v-2.9c0-.21.04-.4.1-.59.01-.06 0-.1-.07-.12l-.64-.22c1.82-.46 3.13-.95 3.95-1.49.07-.05.11-.03.12.06l.34 6.29c0 .12-.04.2-.15.26-.26.13-.56.25-.88.35-.86.26-1.7.45-2.5.59Z" fill="#6AAB51"/><path d="m34.2 19.65.64.22c.06.02.08.06.06.12a1.9 1.9 0 0 0-.08.6l-.01 2.89-.05.74c-.04.53.07 1.02.31 1.49-2.24.4-4.45.7-6.63.92-.28.02-.57.04-.88.04a.7.7 0 0 1 .4-.1h.01l-.01-.02h-.6c-.08 0-.11-.03-.11-.1v-.5c0-.06.02-.11.06-.16a.14.14 0 0 0 .04-.1v-.18c.12-.6.18-1.21.17-1.83 0-.1 0-.27.02-.49.02-.32.02-.57 0-.73v-.55c.04-.38.01-.66-.06-.85-.02-.05 0-.1.03-.14a.25.25 0 0 1 .06-.04c.1-.05.1-.07-.01-.06a5.8 5.8 0 0 1-.7 0c-.02 0-.03-.01-.03-.03 0-.03 0-.04.03-.04.31-.02.61-.1.9-.23l6.44-.87Z" fill="#5F994A"/><path d="M27.76 20.52c-.29.13-.59.2-.9.23-.02 0-.03.01-.03.04 0 .02 0 .03.03.03.25.02.48.02.7 0 .1 0 .11.01.01.06a.24.24 0 0 0-.06.04c-.04.04-.05.09-.03.14.07.19.1.47.07.85-.02.25-.02.43 0 .55.01.16.01.4-.01.73a7.4 7.4 0 0 0-.02.5c.01.61-.05 1.22-.17 1.82a.62.62 0 0 0 0 .17c0 .05-.01.08-.04.11a.22.22 0 0 0-.07.16v.5c0 .07.04.1.11.1a766.16 766.16 0 0 0 .62.01.7.7 0 0 0-.41.11c-2.05.26-4.08.63-6.1 1.13-1.79.43-3.07 1.01-3.85 1.75-.08.08-.12.06-.13-.06l-.1-5.75a.4.4 0 0 1 .17-.36c.94-.67 2.07-1.21 3.4-1.61 1.82-.55 3.65-.9 5.49-1.04a11.47 11.47 0 0 0 1.32-.2Z" fill="#6AAB51"/><path d="m33.12 27.93-.53.05c-.02 0-.03.01-.03.03 0 .03.02.05.04.04.04-.01.06 0 .05.05l-.09.47c-.01.1 0 .18.02.27.04.1.02.21-.03.31a.2.2 0 0 0 0 .2c.15.3.21.6.18.87a25.6 25.6 0 0 0-.18 2.62c.08.07.2.09.34.06-.75.22-1.5.4-2.27.53-.77.15-1.54.2-2.31.16a23.58 23.58 0 0 1-4.5-.7 2.2 2.2 0 0 1 .7-.03c-.02 0-.03-.03-.01-.06.05-.09.1-.18.13-.28 0-.01 0-.02-.02-.02h-.01a.07.07 0 0 1-.04-.05 8.48 8.48 0 0 1-.11-1.87c.04-.47.06-.95.08-1.42a.3.3 0 0 0-.04-.17c-.06-.1-.07-.25-.03-.45.04-.24.01-.42-.1-.55-.03-.04-.03-.08 0-.12.02-.03.02-.06 0-.08a.13.13 0 0 0-.13-.07c-.17.01-.33 0-.48-.04 1-.2 2.02-.37 3.04-.53.5-.07 1-.08 1.5-.02 1.62.19 3.23.46 4.83.8Z" fill="#6AAB51"/><path d="M23.75 27.68c.15.04.3.05.48.04.06 0 .1.02.14.07v.08c-.04.04-.04.08 0 .12.1.13.13.31.09.55-.04.2-.03.35.03.45.03.05.04.1.04.17-.02.47-.04.95-.08 1.42s0 1.09.1 1.87c.01.02.02.04.05.05h.02l.01.02c-.03.1-.08.2-.13.28-.02.03-.01.05.02.06h.04c.05 0 .05 0 0 0a2.2 2.2 0 0 0-.76.04c-2.23-.45-3.88-.9-4.95-1.34a3.39 3.39 0 0 1-1.01-.64c-.34-.32-.34-.66 0-1.03.37-.4.85-.72 1.42-.96 1.45-.58 2.94-1 4.49-1.25ZM33.12 27.93c.9.2 1.78.43 2.66.68.78.23 1.55.59 2.3 1.09.55.35.65.77.3 1.25-.28.4-1.01.77-2.2 1.11-1.09.32-2.18.6-3.29.84-.14.03-.26 0-.34-.06a25.6 25.6 0 0 1 .18-2.62c.03-.28-.03-.57-.19-.86a.2.2 0 0 1 0-.2c.06-.1.08-.21.04-.32a.54.54 0 0 1-.02-.27l.1-.47c0-.04-.02-.06-.06-.05-.02 0-.04 0-.04-.04 0-.02.01-.03.03-.03l.53-.05Z" fill="#5F994A"/><path d="m34.6 38.52.7-.37a.14.14 0 0 0 .07-.13c0-.1.04-.2.1-.27a.1.1 0 0 0 .02-.09.1.1 0 0 0-.04-.05v-.01c.02 0 .04 0 .06-.02a.07.07 0 0 0 .02-.05l.04-.58a.08.08 0 0 1 .06-.02c.04 0 .06-.02.07-.06.07-.42.09-.85.05-1.3-.03-.5 0-1.17.1-2 .04-.25 0-.48-.1-.72-.02-.02-.03-.02-.05-.02h-.04c-.1-.02-.1-.05 0-.09.09-.04.13-.09.12-.14.92-.25 1.8-.6 2.65-1.06.07-.04.1-.02.1.06l-.49 3.97c-.08.7-.39 1.26-.92 1.69a6.73 6.73 0 0 1-2.51 1.26Z" fill="#6AAB51"/><path d="M35.78 32.6c.01.05-.03.1-.13.14-.08.04-.08.07 0 .1l.05-.01c.02 0 .03 0 .04.02.11.24.15.48.12.71-.1.84-.14 1.51-.1 2.02.03.44 0 .87-.06 1.3-.01.03-.03.05-.07.05-.02 0-.04 0-.05.02h-.01l-.04.58c0 .02 0 .04-.02.05-.02.02-.04.02-.06.02-.01 0-.01 0 0 0a.1.1 0 0 1 .04.06.1.1 0 0 1-.02.09.46.46 0 0 0-.1.27c0 .06-.03.1-.08.13l-.69.37-5.12 1.59-.64-.06c-.06 0-.1-.04-.1-.1a7.8 7.8 0 0 1-.05-.92c0-.12.06-.24.18-.38.03-.04.05-.09.05-.15.01-.32.06-.62.15-.9.08-.28.12-.55.1-.8a7.5 7.5 0 0 1-.02-1.21c.02-.15 0-.28-.03-.42a1.62 1.62 0 0 1-.02-.54c0-.06 0-.12-.03-.17-.04-.05-.02-.1.03-.12l.66-.3 6.02-1.44Z" fill="#5F994A"/><path d="m29.76 34.03-.66.3c-.06.03-.07.08-.03.13.03.05.04.1.03.17-.02.18-.01.36.02.54.03.14.04.27.03.42-.03.4-.02.8.01 1.21.03.25 0 .52-.1.8-.08.28-.13.58-.14.9 0 .06-.02.1-.05.15-.12.14-.18.26-.18.38 0 .32.01.62.04.92.01.06.05.1.1.1l.64.06c-1.38.37-2.68.92-3.9 1.65a5.03 5.03 0 0 0-1.84 1.9c-.04.08-.09.08-.13 0l-2.66-4.23c-.2-.32-.16-.77.15-1.32.25-.45.55-.82.9-1.1a9.5 9.5 0 0 1 2.49-1.38 36.6 36.6 0 0 1 5.28-1.6Z" fill="#6AAB51"/><path d="m26.16 41.96 2 3.39c.05.09.02.14-.08.16-1.65.33-2.93.01-3.85-.97a.99.99 0 0 1-.22-.37.26.26 0 0 1 .01-.2 4.59 4.59 0 0 1 1.99-2.05c.06-.03.12-.02.15.04Z" fill="#6AAB51"/></svg>