<!-- by TradingView --><svg width="56" height="56" viewBox="0 0 56 56" xmlns="http://www.w3.org/2000/svg"><path fill="#F0F3FA" d="M0 0h56v56H0z"/><path d="M13.3 27H8.54c-.11 0-.2.08-.2.18 0 .1.09.19.2.19h.8c.3 0 .65.24.65.54v10.02c0 .3-.35.54-.66.54h-.71a.27.27 0 0 0-.28.26c0 .15.13.27.28.27h4.58c.15 0 .27-.12.27-.27a.27.27 0 0 0-.27-.26h-.57c-.31 0-.64-.24-.64-.54V33h6v4.93c0 .3-.3.54-.61.54h-.72a.27.27 0 0 0-.27.26c0 .15.12.27.27.27h4.58c.15 0 .27-.12.27-.27a.27.27 0 0 0-.27-.26h-.57c-.31 0-.68-.24-.68-.54V27.9c0-.3.37-.54.68-.54h.65c.1 0 .2-.08.2-.19 0-.1-.1-.18-.2-.18H16.6c-.1 0-.2.08-.2.18 0 .1.1.19.2.19h.8c.3 0 .61.24.61.54V32h-6v-4.09c0-.3.33-.54.64-.54h.65c.1 0 .2-.08.2-.19 0-.1-.1-.18-.2-.18Z"/><path d="M24.3 39h-3.62v-.45c.8.13 1.17-.43 1.25-.73l1.48-10.52c.05-.34.53-.41.7-.1l4.5 8.68 4.25-8.68c.15-.3.64-.24.7.1l1.78 10.63c.06.36.39.62.77.62h.54c.13 0 .24.1.24.23 0 .12-.1.22-.24.22h-3.69a.23.23 0 0 1-.24-.22v-.04c0-.1.1-.19.2-.19.16 0 .28-.13.26-.28l-1.07-7.2-3.83 7.61c-.07.13-.26.14-.33 0l-4.02-7.37-.84 6.67c-.04.3.21.57.54.57h.67c.13 0 .24.1.24.23 0 .12-.1.22-.24.22Z"/><path d="M39.69 39H36.3l-.47-.76h.58c.3 0 .58-.23.58-.52V27.35c0-.31.39-.47.62-.25l9 8.5-.3-7.6c-.02-.28-.27-.5-.57-.5h-.85c-.15 0-.27-.11-.27-.25 0-.13.12-.24.27-.24h3.84c.14 0 .26.11.26.24 0 .14-.12.25-.26.25h-.65c-.3 0-.55.22-.55.5v10.16c0 .31-.4.47-.63.25l-8.85-8.16.37 7.6c.02.34.32.61.69.61h.57c.16 0 .29.12.29.27 0 .15-.13.27-.3.27ZM29.37 10.07c.5.37.5.98.37 1.45-.12.45-.35.88-.55 1.19a.86.86 0 0 1-.25.76c-.13.14-.3.25-.44.32 0 .33-.15.6-.34.78-.15.14-.32.24-.48.3-.02.4-.19.73-.4.98-.16.19-.35.33-.53.43.05.24.02.44-.07.62a.83.83 0 0 1-.24.28c.01.39-.15.66-.33.82a1.01 1.01 0 0 1-.47.98c0 .45-.25.78-.46.97a.98.98 0 0 1-.62 1c-.03.3-.15.54-.31.7-.13.11-.27.19-.4.23-.12.5-.35.82-.69.93a.9.9 0 0 1-.65-.05c-.18.19-.34.32-.5.4-.2.1-.4.12-.6.02-.04.1-.1.18-.15.24v.01l-.02.01c-.32.31-.5.57-.58.75a.8.8 0 0 0-.08.24c.13.17.24.33.32.48a.8.8 0 0 1 .09.57c-.06.2-.22.35-.41.43a2.6 2.6 0 0 1-.74.19c-.5.07-.88-.03-1.14-.21a.67.67 0 0 1-.14.13c-.13.09-.29.13-.45.17-.16.03-.36.05-.59.07h-.08c-.2.02-.39.04-.56.03a.97.97 0 0 1-.6-.18c-.18-.15-.27-.37-.29-.63a3.6 3.6 0 0 1 .11-1c.1-.41.24-.75.42-1.03a1.44 1.44 0 0 1-.7-.36c-.35.03-.63-.08-.84-.25a1.32 1.32 0 0 1-.32-.38c-.47.03-.82-.19-1.01-.38-.42-.01-.7-.19-.85-.37-.53.04-.9-.11-1.12-.3a.91.91 0 0 1-.62-.1 1.22 1.22 0 0 1-.31-.26c-.37.06-.71 0-.87-.04L9.81 21l-.06-.06a1.58 1.58 0 0 0-.35-.28c-.06-.04-.1-.05-.15-.07l-.11-.05c-.25-.1-.47-.27-.86-.83a1.53 1.53 0 0 1-.27-.59.46.46 0 0 1 .04-.29c.06-.1.15-.16.24-.2a.8.8 0 0 1 .43.01c.13.03.26.08.37.13.83.32 1.68.29 2.42.1a5.13 5.13 0 0 0 1.7-.75l.01-.01a4.97 4.97 0 0 1 3.86-.83c.95.23 1.64.77 2.03 1.25h.44c1.23-3.94 3.85-5.33 5.13-5.52.48-.16 1.23-.44 1.92-.8.35-.17.68-.37.94-.56.27-.2.46-.4.55-.57.26-.46.47-.73.65-.9a.77.77 0 0 1 .28-.16.4.4 0 0 1 .35.05ZM16.98 22.91c.36-.33.74-.5 1.01-.56l.13.54c-.18.04-.5.18-.8.48a2.4 2.4 0 0 0-.66 1.22c-.09.4-.11.67-.1.84.01.18.06.23.08.25.03.02.1.05.25.06l.5-.03h.08l.53-.07c.13-.03.2-.05.23-.08.02-.01.08-.05.06-.36l.56-.05c.01.07.05.18.18.28.11.08.33.17.74.12.28-.04.45-.09.56-.14a.32.32 0 0 0 .1-.06v-.01c0-.01.02-.06-.05-.18a2.84 2.84 0 0 0-.3-.46l-.04-.04-.01-.06c-.04-.17 0-.4.11-.64.12-.25.33-.56.69-.9a1.14 1.14 0 0 0 .2-.54l-.02-.27.57-.06.03.3.01.07.04.1.02.02c.01 0 .04 0 .07-.02.1-.05.26-.18.49-.43l.17-.2.22.15c.11.1.26.13.35.1.08-.03.26-.14.35-.68l.03-.22.23-.02c.06 0 .17-.03.26-.11.08-.08.16-.22.15-.5l-.01-.25.26-.03a.47.47 0 0 0 .27-.14c.06-.07.13-.2.08-.45l-.03-.19.16-.1a.78.78 0 0 0 .33-.74l-.04-.23.23-.07a.47.47 0 0 0 .22-.17c.06-.1.1-.23.05-.44l-.05-.22.2-.1c.05-.02.25-.17.19-.53l-.05-.24.23-.08c.03-.01.1-.05.13-.12.04-.07.07-.2-.02-.41l-.1-.26.26-.1c.14-.06.36-.19.54-.4.17-.19.29-.45.26-.78l-.03-.25.25-.05c.12-.03.3-.1.43-.23.12-.12.2-.28.16-.5l-.03-.24.22-.08c.12-.04.3-.14.41-.26.11-.11.14-.21.1-.33l-.06-.14.09-.12c.19-.27.43-.7.54-1.11.09-.37.07-.63-.07-.79-.1.1-.29.31-.53.75-.15.27-.4.52-.7.74-.3.22-.66.43-1.03.62-.73.38-1.52.68-2.03.84h-.02l-.03.01c-1.04.15-3.59 1.4-4.74 5.33l-.06.2h-1.16l-.08-.12c-.3-.4-.91-.93-1.8-1.14-.86-.21-2.01-.12-3.4.74a5.7 5.7 0 0 1-1.89.84c-.82.2-1.8.25-2.78-.12l-.01-.01a1.7 1.7 0 0 0-.23-.09c.03.06.07.13.13.2.35.53.5.6.6.64l.06.02.26.12a2 2 0 0 1 .42.32c.15.03.44.05.7-.01l.2-.06.11.18c.04.07.13.16.23.22.1.05.2.07.3.02l.24-.1.13.21c.02.03.25.28.89.18l.22-.03.08.2c.02.04.15.25.56.22h.16l.09.12c.07.1.34.33.76.24l.25-.06.08.25c.03.1.11.24.24.34.12.1.28.16.53.11l.18-.04.1.15c.08.1.37.35.83.28Zm-8.41-3.87Zm13.1 3.64Z"/><path d="M16.97 18.4c.9.4 1.44 1.46 1.59 1.94 0-.17.2-.74.25-.84.04-.1-.33-.47-1.27-1.1-.94-.62-1.7-.5-.57 0ZM18.8 21.1c-.16-.08-.13-.27-.09-.35 0 .09.58.21.61-.1.04-.3.21-.55.48-.46.22.08-.01.34-.16.46 0 .43-.42.48-.62.45 0 .09-.05.25-.21.22-.16-.03-.07-.16 0-.22Z"/><path d="M19.26 21.63c-.34.3-.23.45-.13.49 0-.15.45-.46.67-.6-.06.16.06.29.13.33.92-.77 1.26-1.34 1.09-1.66a1.1 1.1 0 0 1-.1-.7c.1-1.3.79-2.4.63-2.55-.17-.15-.66 1.05-.86 1.68-.2.64-.2.76 0 1.34.2.58-1 1.3-1.43 1.67Z"/></svg>