<!-- by TradingView --><svg width="56" height="56" viewBox="0 0 56 56" xmlns="http://www.w3.org/2000/svg"><path fill="#F0F3FA" d="M0 0h56v56H0z"/><path d="M44 13h-8.42L9 42h8.7L44 13Z" fill="#B6DEEB"/><path d="M32.8 22h-7.18l5.22-5h6.76l-4.8 5Z" fill="#50A6DC"/><path d="M26.44 23h-2.95L29 17h2.89l-5.45 6Z" fill="#456CB4"/><path d="M29.07 17 17.33 29.68c-1.56-4.12-.05-7.44.9-8.58 3.2-4.08 8.36-4.1 10.84-4.1Z" fill="#7AD1E6"/><path d="M23.05 35h6.59l-4.76 5h-6.76l4.93-5Z" fill="#3163AF"/><path d="M31.75 35h1.9l-4.56 5h-2.17l4.83-5Z" fill="#205794"/><path d="m29.07 40 10.97-12c.75 1.66 1.15 3.19.96 4.47-.81 5.45-7.15 7.53-11.93 7.53Z" fill="#7AD1E6"/><path d="M32.24 26h-8.56l-4.6 5h8.63l4.53-5Z" fill="url(#alohb2uy3)"/><path d="M33.1 25h6.1l-5.58 6h-5.97l5.45-6Z" fill="#50A6DC"/><defs><linearGradient id="alohb2uy3" x1="24.61" y1="27.2" x2="28.56" y2="30.97" gradientUnits="userSpaceOnUse"><stop offset=".57" stop-color="#456CB4"/><stop offset=".65" stop-color="#265DAB"/></linearGradient></defs></svg>