<!-- by TradingView --><svg xmlns="http://www.w3.org/2000/svg" width="56" height="56"><path fill="#F0F3FA" d="M0 0h56v56H0z"/><path d="M12 28.11C12 19.5 19.27 12 28 12c8.61 0 16 7.5 16 16.11C44 36.73 36.61 44 28 44c-8.73 0-16-7.27-16-15.89zM11 28c0 9.4 7.7 17 17 17s16.89-7.6 17-17c0-9.4-7.7-17-17-17-9.4 0-17 7.6-17 17zm18.88-.31c.34-4.33 3.53-7.29 9.12-7.29v.43c0 4.04.01 7.65-6.04 7.65h-2.4c.23-.56.57-1.13.92-1.59.34-.57.8-1.14 1.25-1.7.57-.58 1.03-1.03 1.6-1.49.45-.45 1.14-.8 1.82-1.02-.64.18-1.13.43-1.65.7l-.4.2-1.71 1.37a10.55 10.55 0 00-2.05 2.17c-.15.2-.29.4-.46.57zm-8.1-3.99c.58.46 1.15.91 1.6 1.48.46.57.92 1.14 1.26 1.82l.45.8.46.8h-2.5c-6.06 0-6.06-3.72-6.05-7.77v-.43c5.47 0 8.78 2.96 9.12 7.29l-.2-.27c-.24-.33-.44-.6-.71-.87l-.55-.58a9.95 9.95 0 00-1.05-1.02 5.05 5.05 0 00-1.7-1.36 5.43 5.43 0 00-2.06-.91c.8.23 1.37.57 1.94 1.02zm10.5 6.38c4.33 0 4.67 2.5 4.67 5.8-5.59 0-6.96-2.39-7.07-5.23l2.05 1.7a7.32 7.32 0 002.85 1.37 7.73 7.73 0 01-2.62-1.6 29.49 29.49 0 01-1.82-2.04h1.93zm-8.1 2.39c.46-.34.91-.68 1.26-1.02.22-.23.45-.46.8-.69-.12 2.85-1.37 5.24-7.07 5.24 0-3.3.34-5.8 4.67-5.8h1.94c-.57.79-1.14 1.47-1.83 2.04-.8.69-1.6 1.25-2.62 1.6 1.03-.23 1.94-.8 2.85-1.37zm5.36-10.25c.11.12.23.34.11.46 0 0-1.37 2.73-1.25 2.73l.17.91.17.91c.11.91.11 1.82.11 2.73 0 .92 0 1.83-.1 2.74-.09.3-.15.6-.21.9-.13.62-.26 1.22-.48 1.83a23.3 23.3 0 01-.57-2.73 21.92 21.92 0 010-5.47l.17-.9.17-.92-1.37-2.73c-.11-.23 0-.34.12-.46.1-.11.34 0 .45.12l1.03 2.05 1.02-2.05c.12-.12.34-.23.46-.12z"/></svg>