<!-- by TradingView --><svg width="56" height="56" viewBox="0 0 56 56" xmlns="http://www.w3.org/2000/svg"><path fill="#F0F3FA" d="M0 0h56v56H0z"/><path d="M18 18h-7v.5c2.4 0 2 1 2 1.5v16c0 1.2-1 1.5-2 1.5v.5h7v-.5c-1.6 0-2-1-2-1.5v-8h8v8c0 1.2-1.33 1.5-2 1.5v.5h7v-.5c-1.6 0-2-1-2-1.5V20c0-.8 1.33-1.33 2-1.5V18h-7v.5c1.6 0 2 1 2 1.5v7h-8v-7c0-1.2 1.33-1.5 2-1.5V18ZM45 18H31v.5c1.6 0 2 1 2 1.5v15c0 2-1.33 2.5-2 2.5v.5h8v-.5c-2.4 0-3-1.67-3-2.5v-8h4c.8 0 1.33 2 1.5 3h.5v-6h-.5c0 1.2-1 1.83-1.5 2h-4v-7h5c2.4 0 3.33 2 3.5 3h.5v-4Z"/></svg>