<!-- by TradingView --><svg width="56" height="56" xmlns="http://www.w3.org/2000/svg"><path fill="#F0F3FA" d="M0 0h56v56H0z"/><path d="M32 19.398c-6.144.864-13.227-4.572-16-7.398v32l10-10.03c.956-1.01 3.019-2.961 3.04-3.933.021-.973-.827-1.647-1.253-1.863-1.58-.8-1.787-1.947-1.787-2.458 0-1.702 3.938-4.932 6-6.318z" fill="#0C4CA3"/><path d="M29.005 23.698L40 12v32c-.843-1.238-4.409-4.132-8.236-4.892-4.565-.906-9.078.378-10.764 1.133l9.018-8.468c.862-.817 2.584-1.895 2.584-3.503 0-1.218-1.841-1.755-2.78-2.127-.418-.165-1.252-.653-1.252-1.282 0-.63.22-.886.435-1.163z" fill="#00A551"/></svg>