<!-- by TradingView --><svg width="56" height="56" viewBox="0 0 56 56" xmlns="http://www.w3.org/2000/svg"><path fill="#F0F3FA" d="M0 0h56v56H0z"/><path fill-rule="evenodd" d="M17 40.42V15.57c0-.31.23-.54.5-.57.1-.01.22 0 .33.07L27 20.72V9.57c0-.44.46-.71.83-.5L39 15.45v24.99c0 .33-.27.57-.56.57a.54.54 0 0 1-.27-.08L29 35.3v11.14c0 .44-.46.71-.83.5L17 40.42ZM27 22l-8 5V17l8 5Zm-8 17 8-5-8-5v10Zm10-17 8 5V17l-8 5Zm8 17-8-5 8-5v10ZM19 28l8 5V23l-8 5Zm8 17-8-5 8-5v10Zm10-29-8 5V11l8 5Zm-8 17 8-5-8-5v10Z" fill="url(#af41fe1zx)"/><defs><linearGradient id="af41fe1zx" x1="38.03" y1="15.57" x2="16.36" y2="40.08" gradientUnits="userSpaceOnUse"><stop stop-color="#11C0DE"/><stop offset=".33" stop-color="#3263F8"/><stop offset=".5" stop-color="#3A60F6"/><stop offset="1" stop-color="#FD0BD1"/></linearGradient></defs></svg>