<!-- by TradingView --><svg width="56" height="56" viewBox="0 0 56 56" xmlns="http://www.w3.org/2000/svg"><path fill="#F0F3FA" d="M0 0h56v56H0z"/><path d="M33.53 14c-2.47 0-4.76 1.21-6.53 3.23 7.72 2.74 13.3 9.23 14.1 16.77a15.67 15.67 0 0 0 1.87-6.59c.43-7.02-3.56-13.02-8.92-13.4a7.58 7.58 0 0 0-.52-.01Z" fill="#00A2D9"/><path d="M42.13 17a17 17 0 0 1 2.7 10.58C44.4 34.1 40.72 39.4 36 41c7.91-1.76 13.62-6.38 13.98-12.17.29-4.55-2.8-8.84-7.84-11.83Z" fill="#1E63AF"/><path d="M24.89 18A12.35 12.35 0 0 0 17 26.48a22.67 22.67 0 0 1 9.11-1.8h.04c8.3.01 12.42 3.97 12.85 4.32-2.59-4.85-7.94-9.22-14.11-11Z" fill="#7FC9E6"/><path d="M33 34h-1l2-5h1l2 5h-1l-.4-1h-2.22L33 34Zm1.49-4-.88 2.18h1.77l-.9-2.18ZM10 31.53A2.46 2.46 0 0 1 12.5 29c1.42 0 2.5 1.11 2.5 2.5S13.92 34 12.49 34A2.48 2.48 0 0 1 10 31.53Zm1-.03c0 .82.63 1.5 1.51 1.5.9 0 1.49-.72 1.49-1.5 0-.77-.6-1.5-1.5-1.5s-1.5.7-1.5 1.5ZM16 31.53A2.46 2.46 0 0 1 18.5 29c1.42 0 2.5 1.11 2.5 2.5S19.92 34 18.49 34A2.48 2.48 0 0 1 16 31.53Zm1-.03c0 .82.63 1.5 1.51 1.5.9 0 1.49-.72 1.49-1.5 0-.77-.6-1.5-1.5-1.5s-1.5.7-1.5 1.5ZM30.6 32H30v2h-1v-5h1.52c1.03 0 2.1.28 2.1 1.5 0 1.18-1 1.5-2.02 1.5Zm-.6-.7h.58c.51 0 1.06-.16 1.06-.8 0-.67-.55-.8-1.09-.8H30v1.6ZM28 29h-1v5h1v-5ZM23 29h-1v5h1v-2.3l1.92 2.3H26l-2-2.5 2-2.5h-1.08L23 31.36V29ZM5 29v5h1v-2h2v2h1v-5H8v2H6v-2H5Z" fill="#EF373E"/></svg>