<!-- by TradingView --><svg width="56" height="56" xmlns="http://www.w3.org/2000/svg"><path fill="url(#paint0_linear)" d="M0 0h56v56H0z"/><path d="M44 29h-6.941c-6.086 0-6.533 1.003-9.04 3.42-2.415 2.415-2.952 3.58-9.038 3.58H12v-7h6.98c6.087 0 6.533-1.056 9.04-3.472C30.436 23.112 30.973 22 37.059 22H44v7zM27 17c-2.327 2.327-2.74 3-8.735 3H12v7h6.265c5.997 0 6.408-.845 8.735-3.171V17zm9.254-4c-4.474 0-5.822.715-7.254 2.058V22c1.432-1.343 2.78-2 7.254-2H44v-7h-7.746zM27 36c-1.432 1.343-2.798 2-7.272 2H12v7h7.877c4.474 0 5.69-.765 7.123-2.108V36zm10.864-5c-5.996 0-6.532.793-8.859 3.12v6.892C31.332 38.685 32.005 37 38 37h6.04L44 31h-6.136z" fill="#fff"/><defs><linearGradient id="paint0_linear" x1=".159" y1="27.955" x2="55.971" y2="27.955" gradientUnits="userSpaceOnUse"><stop stop-color="#009782"/><stop offset=".081" stop-color="#129A7E"/><stop offset=".212" stop-color="#2FA172"/><stop offset=".377" stop-color="#4DAD5A"/><stop offset=".5" stop-color="#5FBB46"/><stop offset=".556" stop-color="#6FBD44"/><stop offset=".75" stop-color="#99C63C"/><stop offset=".905" stop-color="#B0CC36"/><stop offset="1" stop-color="#B9CE33"/></linearGradient></defs></svg>