<!-- by TradingView --><svg xmlns="http://www.w3.org/2000/svg" width="56" height="56" viewBox="0 0 56 56"><path fill="#F0F3FA" d="M0 0h56v56H0z"/><path d="M40.15 24c-1.2 0-2.27.57-2.97 1.47a6.9 6.9 0 0 1 1 1.48 2.22 2.22 0 0 1 1.97-1.26A2.27 2.27 0 0 1 42.38 28c0 .44-.12.84-.32 1.19-.4 1.67-1.8 2.42-2.9 2.68.32.08.65.13 1 .13 2.12 0 3.84-1.8 3.84-4s-1.72-4-3.85-4Zm-6.3 8c1.2 0 2.27-.57 2.97-1.47a6.9 6.9 0 0 1-1-1.48 2.22 2.22 0 0 1-1.97 1.26A2.27 2.27 0 0 1 31.62 28c0-.44.12-.84.32-1.19.4-1.67 1.8-2.42 2.9-2.68a3.71 3.71 0 0 0-1-.13A3.93 3.93 0 0 0 30 28c0 2.2 1.72 4 3.85 4Z" fill="#0A73C6"/><path d="M34.97 24.29c-1.15.36-2.3 1.21-2.68 2.4a2.6 2.6 0 0 1 1.88-.96c1.75 0 2.23 1.87 2.24 2.81-.02 1.8 1.7 2.86 2.57 3.17 1.7-.15 2.56-1.75 2.78-2.54-.44.83-1.43 1.1-1.87 1.13-3.48-.1-.14-4.1-4.92-6.01Z" fill="#1CAEE5"/><path fill-rule="evenodd" d="M28 32V21.92l1-.92v11h-1ZM5 21.92V32h1v-3.42c0-.73.81-1.58 1.52-1.58.96 0 1.48.85 1.48 1.58V32h1v-3.75C10 27 9.02 26 7.82 26c-.76 0-1.43.4-1.82 1v-6l-1 .92ZM23 26v6h-1v-1c-.4.6-1.06 1-1.82 1-1.2 0-2.18-1-2.18-2.25V26h1v3.42c0 .73.37 1.58 1.48 1.58.7 0 1.52-.85 1.52-1.58V26h1Zm4 1.25v-1.22a2.18 2.18 0 0 0-2 .72V26h-1v6h1v-3.52c0-.7.64-1.46 1.34-1.46.24 0 .47.09.66.23ZM14 32a3 3 0 1 0 0-6 3 3 0 0 0 0 6Zm0-1a2 2 0 1 0 0-4 2 2 0 0 0 0 4Zm34.5 1a3.5 3.5 0 1 0-3.5-3.73V39l1-.73v-7.32A3.49 3.49 0 0 0 48.5 32Zm0-1a2.5 2.5 0 1 0 0-5 2.5 2.5 0 0 0 0 5Z" fill="#1BADDF"/></svg>