<!-- by TradingView --><svg width="56" height="56" viewBox="0 0 56 56" xmlns="http://www.w3.org/2000/svg"><path fill="#F0F3FA" d="M0 0h56v56H0z"/><path fill-rule="evenodd" d="M28.91 11h-1.74c-4.16.26-7.7 1.74-10.64 4.43A16.87 16.87 0 0 0 11 27.08v1.82c.3 4.46 2 8.21 5.07 11.25A16.82 16.82 0 0 0 26.65 45h2.68c4.35-.4 8-2.11 10.92-5.13A16.92 16.92 0 0 0 45 29.39v-2.63A16.96 16.96 0 0 0 28.91 11Zm12.95 22.74a14.85 14.85 0 0 0 0-11.48 14.83 14.83 0 0 0-3.25-4.87c-1.41-1.4-3.03-2.49-4.87-3.25a14.85 14.85 0 0 0-11.48 0 14.83 14.83 0 0 0-4.87 3.25c-1.4 1.41-2.49 3.03-3.25 4.87a14.85 14.85 0 0 0 0 11.48 14.83 14.83 0 0 0 3.25 4.87c1.41 1.4 3.03 2.49 4.87 3.25a14.85 14.85 0 0 0 11.48 0 14.83 14.83 0 0 0 4.87-3.25c1.4-1.41 2.49-3.03 3.25-4.87Z" fill="#171439"/><path d="M25.63 20.27c-.04.01-.06.04-.04.08l1.58 4.95c.02.08.01.08-.04.02l-6.28-8.63a.12.12 0 0 1-.02-.1c0-.04.03-.06.06-.08a13.66 13.66 0 0 1 6.12-2c.02-.02.04 0 .05.03.01.04 0 .06-.02.08l-2.59 1.88c-.06.04-.07.1-.05.16l.6 1.9c.02.04.04.05.08.04a10.3 10.3 0 0 1 5.82-.02c.05.01.1 0 .11-.06l.61-1.86c.03-.06 0-.12-.05-.16l-2.6-1.88c-.1-.07-.08-.1.05-.1a13.7 13.7 0 0 1 6.18 2.06l-.01.06a1339.03 1339.03 0 0 1-6.33 8.66s-.02 0-.03-.02v-.02l.23-.65c.45-1.4.9-2.8 1.34-4.22a.1.1 0 0 0 0-.08.1.1 0 0 0-.07-.06 8.28 8.28 0 0 0-4.7.02Z" fill="url(#an1cypqro)"/><path d="M36.1 27.82a8.28 8.28 0 0 0-1.49-4.48c-.02-.03-.04-.04-.07-.02-1.25.93-2.5 1.83-3.77 2.7a.99.99 0 0 0-.14.12.86.86 0 0 1-.2.16c-.1.05-.13.03-.05-.07l6.16-8.53c.06-.09.13-.1.2-.03 1.71 1.5 2.96 3.21 3.74 5.15.05.14.02.17-.1.08l-2.56-1.85c-.05-.03-.1-.03-.15 0l-1.47 1.07c-.19.15-.25.21-.18.2h.03c.58.81 1 1.69 1.3 2.63.27.86.44 1.83.51 2.92 0 .07.04.1.1.1l1.97-.03c.05 0 .09-.03.1-.08a1058.99 1058.99 0 0 0 1.03-3.12c.04 0 .06 0 .07.04.5 2.18.5 4.33 0 6.47-.02.07-.06.1-.13.07l-10.02-3.28c-.14-.04-.14-.07.01-.07l4.97-.02c.1 0 .14-.04.13-.13Z" fill="url(#bn1cypqro)"/><path d="M18.17 27.88c0-1.94.58-3.78 1.75-5.52a.12.12 0 0 0 .02-.1.12.12 0 0 0-.05-.08l-1.6-1.16c-.02-.02-.05-.02-.08 0-.88.65-1.75 1.29-2.63 1.92-.03.03-.06.02-.09-.01a13.68 13.68 0 0 1 3.77-5.25.14.14 0 0 1 .11-.03c.04 0 .08.02.1.05l6.18 8.55c.1.13.08.15-.05.05l-4.12-2.96a.07.07 0 0 0-.06-.02 8.4 8.4 0 0 0-1.51 4.5c0 .06.02.09.08.1.22.02.45.04.67.04l4.42.01c.11 0 .11.02 0 .06l-10.1 3.3h-.07a14.23 14.23 0 0 1-.08-6.4c.06-.24.12-.24.2-.02l.94 2.94c.02.05.05.08.1.08l2.01.04c.06 0 .09-.03.09-.09Z" fill="url(#cn1cypqro)"/><path d="M30.64 35.66a8.16 8.16 0 0 0 3.84-2.8c.02-.03.02-.05-.01-.08a88.3 88.3 0 0 1-2.74-2c-.45-.35-.91-.67-1.37-.96-.23-.15-.22-.18.04-.1l10.05 3.25a.1.1 0 0 1 .07.06.1.1 0 0 1 0 .09 13.65 13.65 0 0 1-3.82 5.24c-.08.07-.1.05-.07-.05l1.02-3.11c0-.04 0-.08-.04-.1l-1.6-1.17c-.05-.04-.1-.03-.14.02a10 10 0 0 1-4.7 3.4c-.05.01-.07.05-.05.1l.62 1.89c.01.05.05.07.1.07l3.06.02c.22 0 .24.06.05.18a13.22 13.22 0 0 1-6.01 1.88c-.06 0-.09-.02-.09-.08l.02-10.52c0-.19.03-.2.09-.02l1.57 4.74c.02.05.05.07.1.05Z" fill="url(#dn1cypqro)"/><path d="m25.48 35.59 1.62-4.88c.01-.05.02-.04.02 0l.01 10.72c0 .05-.02.07-.07.07-2.16-.16-4.17-.8-6.03-1.9-.22-.14-.2-.2.05-.19 1 .05 2.03.04 3.09-.02.05 0 .09-.02.1-.08l.6-1.87c.02-.04 0-.07-.04-.09a9.95 9.95 0 0 1-4.7-3.4.1.1 0 0 0-.06-.04.1.1 0 0 0-.08.01l-1.59 1.16c-.05.04-.06.08-.04.13l.97 2.94a.3.3 0 0 1 0 .18c0 .01 0 .02-.02.02h-.03a13.8 13.8 0 0 1-3.78-5.2c-.04-.1-.01-.16.08-.2l10.09-3.25c.12-.04.13-.02.02.05l-4.1 3.02a.1.1 0 0 0-.05.06c0 .03 0 .06.02.08a8.15 8.15 0 0 0 3.8 2.74c.06.02.1 0 .12-.06Z" fill="url(#en1cypqro)"/><defs><linearGradient id="an1cypqro" x1="28.01" y1="14.5" x2="28.01" y2="25.36" gradientUnits="userSpaceOnUse"><stop stop-color="#171439"/><stop offset=".7" stop-color="#264768"/></linearGradient><linearGradient id="bn1cypqro" x1="30.97" y1="26.42" x2="40.01" y2="23.39" gradientUnits="userSpaceOnUse"><stop offset=".42" stop-color="#264768"/><stop offset="1" stop-color="#171439"/></linearGradient><linearGradient id="cn1cypqro" x1="15.37" y1="23.59" x2="24.97" y2="26.57" gradientUnits="userSpaceOnUse"><stop stop-color="#171439"/><stop offset=".68" stop-color="#264768"/></linearGradient><linearGradient id="dn1cypqro" x1="28.85" y1="31.68" x2="35.98" y2="38.95" gradientUnits="userSpaceOnUse"><stop offset=".22" stop-color="#264768"/><stop offset="1" stop-color="#1A1E42"/></linearGradient><linearGradient id="en1cypqro" x1="26.18" y1="30.16" x2="19.6" y2="38.34" gradientUnits="userSpaceOnUse"><stop offset=".39" stop-color="#264768"/><stop offset="1" stop-color="#1B2145"/></linearGradient></defs></svg>