<!-- by TradingView --><svg width="56" height="56" viewBox="0 0 56 56" xmlns="http://www.w3.org/2000/svg"><path fill="#F0F3FA" d="M0 0h56v56H0z"/><path opacity=".45" d="M45 28.17C45 18.67 37.4 11 28 11s-17 7.78-17 17.17c0 2.52.57 4.92 1.47 6.98l1.25-1.03c-.8-1.83-1.13-3.89-1.13-5.95A15.44 15.44 0 0 1 28 12.6c8.5 0 15.15 6.99 15.15 15.69 0 7.32-4.5 13.39-11.18 15.1l-.34.7.11.91A17.17 17.17 0 0 0 45 28.17Z" fill="#C5AC2E"/><path opacity=".75" d="m14.46 33.48.45-.23s.11 0 .11-.11A13.99 13.99 0 0 1 28 14.22c7.67 0 13.72 6.27 13.72 14.02 0 6.15-3.8 11.39-9.2 13.21l.1.23-.1.46-.35.45-.19.85c6.66-1.71 11.36-8.03 11.36-15.2 0-8.55-6.98-15.8-15.55-15.8s-15.24 7.25-15.24 15.8c0 2.16.45 4.1 1.13 5.92l.22-.23.57-.45Z" fill="#C5AC2E"/><path d="M42 28.35c0-7.83-6.36-14.29-14-14.29s-14 6.46-14 14.29c0 1.72.52 3.45 1.09 4.94.1-.11-.12-.34-.12-.34l.57-.35v-.23l.33-.23-.33-.23s.44-.11.78-.11h.45V31.1l.67-.58c.23-.23.57-.46.79-.92.22 0 .56-.11.67-.46.23 0 .45-.11.57-.11.22.11.22-.35.44-.12 0 0 .23-.11.34-.23.23-.11.45-.34.79-.46.11-.23.33-.46.56-.8 0 0 .11-.12.22-.12v-.58s.34.12.57-.23c-.23-.11-.57-.11-.57-.11v-.12s-.1-.11-.1-.23c.22.12.33.12.55.12.12-.12.34-.12.56-.35-.22 0-.33-.11-.33-.11-.11 0-.23 0-.34-.12.11 0 .11 0 .23-.11-.23-.23-.34 0-.57 0-.1 0-.22-.12-.22-.12.22-.11.34-.34.56-.46.23 0 .45 0 .67-.11-.67-.23-1.34-.58-2.02-.92.12-.12.23-.12.34-.12.22 0 .45 0 .67-.11.34 0 .57-.12.79-.46.67-.7 1.35-1.16 2.25-1.16 0-.11 0-.11.1-.23.12 0 .34-.11.46-.23v-.23c.22-.11.45-.34.56-.69.34 0 .67-.23.9-.34.45-.23.78-.58 1.12-.92.45-.46 1.01-.8 1.68-.8.34 0 .57 0 .9-.12a7.21 7.21 0 0 1 2.59-2.65c.33.34.56.8.78 1.15.11.12.11.23.23.35.33.23.33.46.33.92-.22-.12-.33-.23-.56-.35.11.35.23.46.34.7l-.11.1c-.12-.1-.23-.1-.45-.22.1.34.22.57.33.8-.22-.11-.33-.11-.45-.23 0 .12 0 .23-.1.35 0 .11-.12.23-.12.34.11.12.22.23.34.23.1-.11.22-.23.33-.46.12 0 .23 0 .45.12-.1-.23-.1-.35-.22-.58.22.12.34.12.45.23v-.34c.11 0 .11 0 .22-.12-.11-.11-.11-.23-.22-.34.11 0 .22-.12.22 0 .23.11.45.23.79.34 0 .12.11.23.22.46.12.12.23.12.34.23-.11.46.11.92-.22 1.27-.12-.12-.12-.23-.23-.35 0 .58 0 .7-.11.8h-.23c-.22.24-.33.58-.56.93-.22.35-.11.69-.22.92l-.23.58c-.1.34-.22.69-.33.92 0 .11-.12.34-.12.46-.45.8-.67 1.6-1 2.41a3.75 3.75 0 0 0-.34 1.62c0 .69-.12 1.38-.23 2.07a38.3 38.3 0 0 0-.34 1.6c.12.12.23.35.34.58.23.35.45.7.45 1.04.11.7.34 1.27.79 1.61v.12c-.12.11-.12.23-.23.34.11.12.11.35.23.58-.12.23-.12.57-.23.92 0 .11.11.34.11.57-.1.12-.1.12-.22.23 0 .12.11.12.22.23 0 .12-.1.12-.1.24v.23h-.34c0 .11.1.23.1.34-.1.12-.22.23-.22.35l-.33.69-.23.69v.34A14.37 14.37 0 0 0 42 28.35Z" fill="#C5AC2E"/></svg>