<!-- by TradingView --><svg width="56" height="56" xmlns="http://www.w3.org/2000/svg"><path fill="#00ABC6" d="M0 0h56v56H0z"/><path d="M21.842 28.414c-.587-1.849 0-3.274 0-3.274.639-2.099 3.113-3.329 5.67-3.512C31.078 21.373 35.855 22.7 35 27h-3.37c0-2.807-4.51-2.493-5.561-1.41-.824.848-.429 2.368 0 2.824 2.633 2.907 8.38 2.364 8.34 7.39-.025 3.204-3.725 4.828-5.494 5.137-2.92.239-8.79-.545-7.914-5.94h3.412c-.686 3.033 5.125 4.099 6.447 1.611 0 0 .535-1.338 0-1.866-1.578-1.556-8.43-4.483-9.017-6.332z" fill="#F6F8FD"/><path d="M22.667 13c-2.358 2.03-8.319 4.05-10.667 5 7.202 2.71 13.12 2.26 14.914 1.488H27V44h1.998V19.488h.107C30.514 21.27 39.695 19.099 44 18c-2.114 0-7.959-3.098-10.666-5-.861 0-3.388 1.258-4.334 2.03V12h-2v3.03c-1.856-1.403-3.681-1.911-4.333-2.03z" fill="#F6F8FD"/></svg>