<!-- by TradingView --><svg width="56" height="56" viewBox="0 0 56 56" xmlns="http://www.w3.org/2000/svg"><path fill="#F0F3FA" d="M0 0h56v56H0z"/><path d="M42 14.68 28 10l-14 4.68v26.64L28 46l14-4.68V14.68Z" fill="#00263A"/><path d="M26 16.53 21 15l-5 1.53v22.94L21 41l5-1.53V28.09l7.94-2.51v-3.11L26 25.04v-8.5Z" fill="#367493"/><path d="m35 15 5 1.53V39.47L35 41l-5-1.53V16.53L35 15Z" fill="#367493"/><path d="m21 29.47.02 8.01L26 39V28l-5 1.47ZM39.95 16.51l.05.02V39.47L35.1 41l-.1-.03V18.04l4.95-1.53ZM21 15v11.63l5-1.57v-8.49L21 15Z" fill="#fff"/><path d="m35 25-9 3-.24 3.64L35 28.7V25Z" fill="#fff"/></svg>