<!-- by TradingView --><svg width="56" height="56" viewBox="0 0 56 56" xmlns="http://www.w3.org/2000/svg"><path fill="#F0F3FA" d="M0 0h56v56H0z"/><path d="M28 38a10 10 0 0 0 9.87-11.6h-5.13A5 5 0 0 1 25 32l-3.02 3.98A9.96 9.96 0 0 0 28 38Zm-9.85-8.27h5.16a4.99 4.99 0 0 1 7.59-5.8l3.02-3.99a10 10 0 0 0-15.77 9.8Z" fill="#6E6F71"/><path d="M17.74 14A17.9 17.9 0 0 0 11 28.1 17.9 17.9 0 0 0 17.5 42l3.4-4.33A12.01 12.01 0 0 1 16.37 31h23.24a12.01 12.01 0 0 1-4.51 6.67L38.5 42A17.9 17.9 0 0 0 45 28.1 17.9 17.9 0 0 0 38.26 14l-3.31 4.22c2.27 1.61 3.96 4 4.67 6.78H16.38c.71-2.78 2.4-5.17 4.67-6.78L17.75 14Z" fill="#EC1D23"/></svg>