<!-- by TradingView --><svg width="56" height="56" viewBox="0 0 56 56" xmlns="http://www.w3.org/2000/svg"><path fill="#334255" d="M0 0h56v56H0z"/><path d="M18 27v-2.78c0-2.26-.34-2.44-2-2.61V21h7v.7c-1.74.08-2 .26-2 2.6v7.4c0 2.26.26 2.43 2 2.6v.7h-7v-.7c1.82-.08 2-.26 2-2.6V28h-6v3.7c0 2.26.26 2.43 2 2.6v.7H7v-.7c1.74-.08 2-.26 2-2.6v-7.48c0-2.26-.18-2.44-2-2.61V21h7v.7c-1.66.08-2 .26-2 2.6V27h6Zm10.52 6c-1.4 0-2.8-.67-2.8-2.5 0-.92.5-1.75 1.57-2.5a28.53 28.53 0 0 1 4.2 3.5c-.69.83-1.9 1.5-2.97 1.5ZM33 26v.67l.47.08c.99.08.9.42.4 1.42-.24.43-.48.73-.73 1.03l-.25.3a18.13 18.13 0 0 0-3.46-2.83c.74-.42 1.32-.75 1.73-1 .58-.42.82-1 .82-1.75 0-1.67-1.48-2.92-3.62-2.92s-3.96 1.58-3.96 3.42c0 1.25.58 2 1.9 2.91-2.23 1.25-3.3 2.17-3.3 4C23 33 24.4 35 27.53 35c1.57 0 2.89-.75 4.45-2.67.39.4.72.76 1 1.07.31.36.56.63.73.77.33.25 1.57.75 3.63.75l.17-.25a32.8 32.8 0 0 0-3.88-4.42c.33-.41.63-.74.93-1.06.3-.33.6-.64.89-1.02l.25-.29c.78-.86 1.03-1.14 2.3-1.21V26h-5Zm-4.4 0c-1.23-.83-1.9-1.5-1.9-2.42 0-1 .59-1.58 1.5-1.58 1.23 0 1.64.92 1.64 1.67A2.6 2.6 0 0 1 28.6 26Zm14.1 8c-2.35 0-3.66-2.1-4.1-3.28l-.6.26c.17 1.25.52 2.68.7 3.18.26.17.7.34 1.39.5.6.17 1.48.34 2.35.34 3.39 0 5.56-1.84 5.56-4.28 0-2.18-1.74-3.35-3.65-4.02l-.78-.25c-1.74-.67-2.57-1.43-2.57-2.43 0-1.18.83-2.02 2.22-2.02 2 0 2.7 1.43 3.22 2.6l.87-.16a35 35 0 0 1-.53-2.94l-1.04-.25a9.62 9.62 0 0 0-2.17-.25c-3.3 0-5.22 1.84-5.22 4.02 0 2.02 1.65 3.19 3.65 3.94l.44.17c1.82.67 2.56 1.34 2.56 2.77 0 1.17-.74 2.1-2.3 2.1Z" fill="#66FCFC"/></svg>