<!-- by TradingView --><svg width="56" height="56" viewBox="0 0 56 56" xmlns="http://www.w3.org/2000/svg"><path fill="#CC2027" d="M0 0h56v56H0z"/><path d="M8 31v-2.5H5V31H4v-6h1v2.5h3V25h1v6H8Zm4.02 0c-1.15 0-2.02-.57-2.02-1.78V27h1v2c0 .63.34 1.03 1 1 .67 0 1-.35 1-1v-2h1v2.22c0 1.15-.85 1.81-1.98 1.78Zm4.46-1c.78 0 1.52-.37 1.52-1.03 0-.8-.77-.97-1.54-.97H16v2h.48ZM15 31v-4h1.52c1.24 0 2.48.5 2.48 2s-1.39 2-2.56 2H15Zm6.47 0c-.52 0-1-.13-1.46-.37v-1.05c.44.33.86.65 1.45.65.24 0 .54-.12.54-.3 0-.5-2-.7-2-1.82 0-.65.64-1.11 1.57-1.11.42 0 .83.09 1.19.25l.06.03v.92a2.8 2.8 0 0 0-1.28-.43c-.35 0-.54.14-.54.27 0 .48 2 .68 2 1.83 0 .66-.63 1.13-1.54 1.13" fill="#fff"/><path fill-rule="evenodd" d="M24 29.01A1.95 1.95 0 0 0 25.97 31c1.18 0 2.03-.84 2.03-2-.02-1.08-.92-2-2-2-1.1 0-1.99.93-2 2.01ZM26 28c-.69 0-1 .52-1 1.01-.02.53.43 1 1 .99.55-.02 1-.47 1-1 0-.52-.44-.98-1-1Z" fill="#fff"/><path d="M32.22 31 30 28.64V31h-1v-4h.76L32 29.34V27h1v4h-.78Zm6.08-3.5c.7 0 1.35-.07 1.33-.78.03-.77-.84-.72-1.4-.72H38v1.5h.3Zm2.4 3.5c-.44-.6-.8-1.25-1.27-1.83-.57-.7-.83-.7-1.23-.7H38V31h-1v-6h1.63c1-.02 2.14.57 2.1 1.72.03.6-.34 1.19-.9 1.45.87.65 1.51 1.95 2.17 2.83h-1.3Z" fill="#fff"/><path d="M43.66 27.54c.54 0 1.34-.1 1.34-.82s-.83-.72-1.38-.72H43v1.54h.66ZM42 31v-6h1.66c1.1 0 2.38.43 2.34 1.74.04 1.34-1.28 1.74-2.4 1.74H43V31h-1Z" fill="#fff"/><path d="M49 26c-1.4 0-2 1-2 2 0 1.16.85 2 2 2 1.16 0 1.98-.86 2-2 0-1.4-1.17-2-2-2Zm-.05 5A2.9 2.9 0 0 1 46 28.02c0-1.5 1.03-3.02 2.99-3.02A2.94 2.94 0 0 1 52 28c0 1.73-1.28 3-3.05 3Z" fill="#fff"/></svg>