<!-- by TradingView --><svg width="56" height="56" viewBox="0 0 56 56" xmlns="http://www.w3.org/2000/svg"><path fill="#F0F3FA" d="M0 0h56v56H0z"/><path fill-rule="evenodd" d="M32 22c0 .35-.04.68-.13 1h-7.74A4 4 0 1 1 32 22Zm20 1H32.9a5 5 0 1 0-9.8 0H4v1h48v-1Zm-23 4h-1v7h1v-7ZM5 27H4v7h1v-3h4v3h1v-7H9v3H5v-3Zm10.5 7a3.5 3.5 0 1 0 0-7 3.5 3.5 0 0 0 0 7Zm0-1a2.5 2.5 0 1 0 0-5 2.5 2.5 0 0 0 0 5ZM45 30.5a3.5 3.5 0 1 1-7 0 3.5 3.5 0 0 1 7 0Zm-1 0a2.5 2.5 0 1 1-5 0 2.5 2.5 0 0 1 5 0Zm2 3.5h1v-5l4 5h1v-7h-1v5.01L46.79 27H46v7Zm-25 0v-7h3.8c1.22 0 2.2.99 2.2 2.2 0 1.2-.93 2.25-2.12 2.3l1.9 2.5h-1.15l-1.88-2.5H22V34h-1Zm3.55-6H22v2.5h2.55c.8 0 1.45-.56 1.45-1.25S25.35 28 24.55 28Zm6.62-1v1h4.14L31 33.47V34h6v-1h-4.2l4.2-5.4V27h-5.83Z"/></svg>