<!-- by TradingView --><svg width="56" height="56" xmlns="http://www.w3.org/2000/svg"><path fill="#005E98" d="M0 0h56v56H0z"/><path d="M35.755 20.143l-.92-2.487a9.947 9.947 0 00-.79-1.861c2.237.31 4.03.835 4.816 1.598 1.019.99 1.733 2.895 2.157 5.189a12.915 12.915 0 00-2.304-1.047l-2.487-.92a.798.798 0 01-.472-.472zM40.98 33.955c-.674.414-1.431.77-2.266 1.051l-2.487.92a.798.798 0 00-.472.472l-.92 2.486a8.217 8.217 0 01-1.039 2.125c2.217-.43 4.063-1.114 5.066-2.03.971-.889 1.682-2.744 2.117-5.024zM22.505 41.078a8.43 8.43 0 01-1.141-2.194l-.92-2.486a.798.798 0 00-.472-.472l-2.487-.92a8.84 8.84 0 01-2.303-1.008c.429 2.113 1.166 3.905 2.273 4.981 1.023.994 2.858 1.687 5.05 2.1zM15.304 22.61c.482-2.384 1.23-4.322 2.15-5.216.688-.668 2.421-1.178 4.63-1.508a9.883 9.883 0 00-.72 1.77l-.92 2.487a.798.798 0 01-.472.471l-2.487.92a9.599 9.599 0 00-2.18 1.076z" fill="#fff"/><mask id="a" maskUnits="userSpaceOnUse" x="10" y="10" width="37" height="36" fill="#000"><path fill="#fff" d="M10 10h37v36H10z"/><path d="M34.835 17.65l.92 2.487c.081.218.253.39.472.471l2.486.92c8.62 2.994 7.242 11.033 0 13.472l-2.486.92a.798.798 0 00-.472.471l-.92 2.487c-2.23 6.83-11.075 6.83-13.472 0l-.92-2.486a.798.798 0 00-.471-.472L17.485 35c-7.313-2.074-7.313-10.918 0-13.472l2.487-.92a.798.798 0 00.471-.471l.92-2.487c2.272-7.533 11.116-7.533 13.472 0zm-2.994 1.108c-1.328-4.754-6.24-4.754-7.484 0l-.92 2.486a3.99 3.99 0 01-2.357 2.358l-2.487.92c-4.535 1.526-4.535 6.439 0 7.484l2.487.92a3.99 3.99 0 012.357 2.358l.92 2.486c1.369 4.05 6.282 4.05 7.484 0l.92-2.486a3.99 3.99 0 012.358-2.358l2.487-.92c4.546-1.595 4.766-5.95 0-7.484l-2.487-.92a3.99 3.99 0 01-2.358-2.358l-.92-2.486z"/></mask><path d="M34.835 17.65l.92 2.487c.081.218.253.39.472.471l2.486.92c8.62 2.994 7.242 11.033 0 13.472l-2.486.92a.798.798 0 00-.472.471l-.92 2.487c-2.23 6.83-11.075 6.83-13.472 0l-.92-2.486a.798.798 0 00-.471-.472L17.485 35c-7.313-2.074-7.313-10.918 0-13.472l2.487-.92a.798.798 0 00.471-.471l.92-2.487c2.272-7.533 11.116-7.533 13.472 0zm-2.994 1.108c-1.328-4.754-6.24-4.754-7.484 0l-.92 2.486a3.99 3.99 0 01-2.357 2.358l-2.487.92c-4.535 1.526-4.535 6.439 0 7.484l2.487.92a3.99 3.99 0 012.357 2.358l.92 2.486c1.369 4.05 6.282 4.05 7.484 0l.92-2.486a3.99 3.99 0 012.358-2.358l2.487-.92c4.546-1.595 4.766-5.95 0-7.484l-2.487-.92a3.99 3.99 0 01-2.358-2.358l-.92-2.486z" fill="#fff"/><path d="M35.755 20.137l-1.876.694 1.876-.694zm-.92-2.487l-1.909.597c.01.033.021.065.033.097l1.876-.694zm1.392 2.958l.694-1.876-.694 1.876zm2.486.92l-.694 1.876.038.014.656-1.89zm0 13.472l-.638-1.895a1.834 1.834 0 00-.056.02L38.713 35zm-2.486.92l-.694-1.876.694 1.876zm-.472.471l-1.876-.694 1.876.694zm-.92 2.487l-1.876-.694a2.03 2.03 0 00-.025.073l1.901.621zm-13.472 0l1.888-.662a1.704 1.704 0 00-.012-.032l-1.876.694zm-.92-2.486l-1.875.694 1.875-.694zm-.471-.472l.694-1.876-.694 1.876zM17.485 35l.694-1.876a1.982 1.982 0 00-.148-.048L17.485 35zm0-13.472l.66 1.888.034-.012-.694-1.876zm2.487-.92l-.694-1.876.694 1.876zm.471-.471l-1.875-.694 1.875.694zm.92-2.487l1.876.694.04-.117-1.916-.577zm2.994 1.108l1.876.694c.023-.062.043-.125.06-.188l-1.936-.506zm7.484 0l-1.926.538c.015.053.032.105.05.156l1.876-.694zm-8.404 2.486l-1.876-.694 1.876.694zm-2.357 2.358l.694 1.875-.694-1.875zm-2.487.92l.638 1.896a1.63 1.63 0 00.056-.02l-.694-1.876zm0 7.484l.694-1.875a1.985 1.985 0 00-.245-.074l-.449 1.95zm2.487.92l-.694 1.876.694-1.876zm2.357 2.358l-1.876.694 1.876-.694zm.92 2.486l1.895-.64a2.15 2.15 0 00-.02-.054l-1.875.694zm7.484 0l-1.875-.694c-.015.041-.03.083-.042.125l1.917.57zm.92-2.486l-1.875-.694 1.875.694zm2.358-2.358l.694 1.876-.694-1.876zm2.487-.92l-.663-1.887-.032.012.695 1.875zm0-7.484l-.695 1.876.082.028.613-1.904zm-2.487-.92l-.694 1.875.694-1.875zm-2.358-2.358l1.876-.694-1.876.694zm4.87-1.801l-.92-2.487-3.752 1.388.92 2.487 3.752-1.388zm-.71-.71c.329.121.588.38.71.71l-3.752 1.388c.284.766.888 1.37 1.654 1.653l1.388-3.752zm2.486.92l-2.486-.92-1.388 3.75 2.486.921 1.388-3.751zm-.055 17.242c4.166-1.403 7.068-4.584 7.305-8.295.248-3.864-2.424-7.272-7.287-8.961l-1.313 3.779c3.756 1.304 4.706 3.412 4.608 4.926-.106 1.666-1.514 3.725-4.59 4.76l1.277 3.791zm-2.431.9l2.486-.92-1.388-3.75-2.486.92 1.388 3.75zm.71-.71a1.202 1.202 0 01-.71.71l-1.388-3.75a2.798 2.798 0 00-1.654 1.652l3.752 1.389zm-.92 2.487l.92-2.486-3.752-1.389-.92 2.487 3.752 1.388zm-17.235-.032C20.955 43.752 24.52 46 28.162 46c3.65 0 7.189-2.26 8.574-6.5l-3.802-1.243C32.089 40.845 30.09 42 28.162 42c-1.936 0-3.993-1.167-4.911-3.784l-3.775 1.325zm-.908-2.454l.92 2.486 3.751-1.388-.92-2.487-3.751 1.389zm.71.71a1.202 1.202 0 01-.71-.71l3.751-1.389a2.798 2.798 0 00-1.653-1.653l-1.388 3.752zm-2.487-.92l2.487.92 1.388-3.752-2.487-.92-1.388 3.752zm.035-17.236C12.446 21.17 10 24.723 10 28.444c0 3.75 2.487 7.218 6.94 8.48l1.09-3.848c-2.86-.812-4.03-2.803-4.03-4.632 0-1.857 1.21-4.003 4.145-5.028l-1.32-3.776zm2.452-.908l-2.487.92 1.388 3.752 2.487-.92-1.388-3.752zm-.71.71c.121-.328.38-.588.71-.71l1.388 3.752a2.798 2.798 0 001.653-1.653l-3.751-1.388zm.92-2.486l-.92 2.487 3.751 1.388.92-2.487-3.751-1.388zm17.256.097C35.338 12.559 31.839 10 28.067 10c-3.776 0-7.26 2.566-8.618 7.073l3.83 1.154C24.19 15.2 26.264 14 28.066 14c1.808 0 3.909 1.208 4.86 4.247l3.817-1.194zm-10.452 2.21c.462-1.765 1.386-2.07 1.775-2.07.403 0 1.351.323 1.848 2.103l3.853-1.076c-.831-2.975-3.004-5.028-5.7-5.028-2.71 0-4.864 2.07-5.646 5.06l3.87 1.012zm-.98 2.675l.92-2.486-3.75-1.388-.92 2.486 3.75 1.389zm-3.538 3.54a5.99 5.99 0 003.539-3.54L21.56 20.55a1.99 1.99 0 01-1.175 1.176l1.388 3.752zm-2.487.92l2.487-.92-1.388-3.752-2.487.92 1.388 3.752zm-.245 3.66c-1.564-.361-1.85-1.19-1.85-1.614 0-.491.38-1.468 2.039-2.026l-1.276-3.792c-2.875.968-4.763 3.21-4.763 5.818 0 2.676 1.981 4.826 4.952 5.511l.898-3.898zm2.732.993l-2.487-.92-1.388 3.75 2.487.921 1.388-3.751zm3.539 3.539a5.99 5.99 0 00-3.54-3.54l-1.387 3.752a1.99 1.99 0 011.175 1.176l3.752-1.388zm.92 2.486l-.92-2.486-3.752 1.388.92 2.486 3.752-1.388zm3.691.125c-.368 1.24-1.163 1.607-1.762 1.607-.617 0-1.476-.392-1.91-1.678l-3.79 1.28c.934 2.765 3.217 4.398 5.7 4.398 2.5 0 4.763-1.659 5.597-4.468L29.924 37.2zm.962-2.611l-.92 2.486 3.751 1.388.92-2.486-3.751-1.388zm3.539-3.54a5.99 5.99 0 00-3.54 3.54l3.752 1.388a1.99 1.99 0 011.176-1.176l-1.388-3.751zm2.486-.92l-2.486.92 1.388 3.752 2.487-.92-1.389-3.751zm.082-3.704c1.908.614 2.11 1.512 2.105 1.778-.006.337-.334 1.276-2.155 1.915l1.325 3.774c2.725-.956 4.78-2.992 4.83-5.614.05-2.694-2.021-4.74-4.88-5.66l-1.225 3.807zm-2.568-.948l2.486.92 1.389-3.752-2.487-.92-1.388 3.752zm-3.54-3.54a5.99 5.99 0 003.54 3.54l1.388-3.752a1.99 1.99 0 01-1.176-1.176l-3.751 1.389zm-.92-2.486l.92 2.486 3.752-1.388-.92-2.486-3.751 1.388z" fill="#005E98" mask="url(#a)"/></svg>