<!-- by TradingView --><svg width="56" height="56" xmlns="http://www.w3.org/2000/svg"><path fill="#F0F3FA" d="M0 0h56v56H0z"/><path d="M44.096 28c0 8.837-7.163 16-16 16s-16-7.163-16-16 7.163-16 16-16 16 7.163 16 16z" fill="#D0AF2B"/><path fill-rule="evenodd" d="M28.096 42.877c8.216 0 14.877-6.66 14.877-14.877 0-8.216-6.66-14.877-14.877-14.877-8.216 0-14.877 6.66-14.877 14.877 0 8.216 6.66 14.877 14.877 14.877zm0 1.123c8.837 0 16-7.163 16-16s-7.163-16-16-16-16 7.163-16 16 7.163 16 16 16z" fill="#143319"/><path d="M24 17L10.36 39H27V17h-3zM32.027 17L45.22 39H29V17h3.027z" fill="#143319"/></svg>