<!-- by TradingView --><svg width="56" height="56" viewBox="0 0 56 56" xmlns="http://www.w3.org/2000/svg"><path fill="#F0F3FA" d="M0 0h56v56H0z"/><path d="M11 24v8H9.5v-3.5h-4V32H4v-8h1.5v3.5h4V24H11ZM13.5 24v4.95c0 1.05 1.05 1.63 2.1 1.63 1.06 0 1.9-.58 1.9-1.63V24H19v4.93c0 1.9-1.61 3.07-3.43 3.07-1.83 0-3.57-1.17-3.57-3.05V24l1.5-.01ZM23.3 24c2.3 0 4.2 1.68 4.2 4.03 0 2.37-1.9 3.97-4.2 3.97h-2.84v-8h2.85Zm-.05 6.5c1.57 0 2.75-.87 2.75-2.47s-1.18-2.53-2.75-2.53H22v5h1.25ZM31.62 32c-1.42 0-3-.72-3.02-2.33h1.75c.05.65.5 1.04 1.23 1.04.59 0 1.22-.28 1.22-.95 0-.83-1.06-1.04-1.68-1.2-1.22-.35-2.5-.8-2.5-2.29 0-1.56 1.49-2.27 2.87-2.27 1.4 0 2.8.7 2.91 2.23h-1.8c-.03-.63-.67-.93-1.23-.93-.63 0-1.05.31-1.05.92 0 .78 1.08.98 1.66 1.15 1.2.34 2.51.82 2.51 2.3 0 1.55-1.48 2.33-2.87 2.33ZM39.5 32a3.91 3.91 0 0 1-3.99-4c0-2.3 1.75-4 3.99-4s4 1.7 4 4-1.75 4-4 4Zm0-1.4c1.5 0 2.5-1.14 2.5-2.6 0-1.46-1.01-2.59-2.5-2.59-1.5 0-2.5 1.12-2.5 2.58 0 1.47 1 2.61 2.5 2.61ZM52 32h-1.5l-4-5.5V32H45v-8h1.5l4 5.5V24H52v8Z"/></svg>