<!-- by TradingView --><svg xmlns="http://www.w3.org/2000/svg" width="56" height="56" viewBox="0 0 56 56"><path fill="#F0F3FA" d="M0 0h56v56H0z"/><path d="M27 42a14 14 0 0 0 12.4-7.51l-3.55-3.22-.26.59c-.98-1.9-2.84-4.18-5.67-4.66a36.24 36.24 0 0 0 1.04-7.38 9.25 9.25 0 0 1 4.93 5c.96-.81 2.6-2.22 3.6-3.16a14 14 0 0 0-24.77-.4 65.1 65.1 0 0 0 3.64 3A9.54 9.54 0 0 1 27 19c1.33 0 2.59.26 3.73.72-2.96 4.45-9.36 5.45-12.26 5.39 3.99 3.36 4.62 7.3 3.88 10.74a9.26 9.26 0 0 1-3.93-3.99l-3.63 3a14.07 14.07 0 0 0 5.73 5.56c-.6 1.02-1.27 1.9-1.89 2.58h5.33l.61-1.2c.8.13 1.6.2 2.43.2zm-.24-5a66.38 66.38 0 0 0 2.26-6.38c1.26.81 3.1 2.56 3.25 4.87a9.83 9.83 0 0 1-5.51 1.5zM7 26h1v2h1v-2h1v4H9v-1.7H8V30H7v-4zm34 4h-1v-3.7c.97-.4 2.03-.4 3 0V30h-1v-1.24h-1V30zm0-1.52h1v-2.1h-1v2.1zM12 26h-1v3.7c.97.4 2.03.4 3 0V26h-1v3.62h-1V26zm3 4h1v-1.24h1V30h1v-3.7c-.97-.4-2.03-.4-3 0V30zm2-1.52h-1v-2.1h1v2.1zM45 30h-1v-4s2.03-.08 3 .32V30h-1v-3.6h-1V30zm-9-.25v-3.26a2.8 2.8 0 0 1 3 0v.81h-1v-.8h-1v3.17h1V28.3h-.5V28H39v1.75c-.97.4-2.03.4-3 0zm12-3.31v3.25c.97.41 2.03.41 3 0V28h-1.5v.3h.5v1.32h-1v-3.18h1v.86h1v-.86a2.8 2.8 0 0 0-3 0z" fill="#DA251C"/></svg>