<!-- by TradingView --><svg xmlns="http://www.w3.org/2000/svg" width="56" height="56"><path fill="#F0F3FA" d="M0 0h56v56H0z"/><path d="M10 18h10v3h-7v3h7v3h-7v6h-3V18zm17.28 13c-1.51 0-2.86-.83-3.28-2h-3c.49 2.48 2.47 4 6.03 4 3.92 0 5.97-1.82 5.97-4.5 0-2.08-.95-3.65-5.24-4.65-2.37-.54-3.26-.86-3.26-1.85 0-1 1.13-2 2.78-2 1.66 0 2.57 1.13 2.72 2h3c-.21-2.15-1.78-4-5.72-4-3.5 0-5.78 1.72-5.78 4.3 0 1.76.91 3.42 4.96 4.36C28.95 27.23 30 27.83 30 29c0 1.04-1.06 2-2.72 2zm12.68-13H34v15h5.83c4.44 0 7.17-3.29 7.17-7.66 0-4.43-2.82-7.34-7.04-7.34z"/><path d="M40.14 21.56c-.22.4-.17.9.1 1.24a2.01 2.01 0 01.46 1.23 9.89 9.89 0 00.54 2.83.2.2 0 01-.07.22.2.2 0 01-.25 0 6.32 6.32 0 01-1.98-3.52.33.33 0 01.12-.32.77.77 0 00.16-1.05.7.7 0 00-1-.16.77.77 0 00-.24.9c.04.1.03.22-.04.31l-.3.4a.57.57 0 01-.43.22.56.56 0 00-.53.6c.01.31.27.54.57.54.3 0 .54-.27.53-.59a.6.6 0 00-.02-.11.6.6 0 01.1-.5l.26-.34a.3.3 0 01.32-.1c.12.02.2.12.23.24a6.62 6.62 0 002.12 3.74c.06.05.08.14.06.22-.14.49.12 1 .6 1.15a.88.88 0 001.1-.61.93.93 0 00-.59-1.16.86.86 0 00-.27-.04.19.19 0 01-.17-.13 9.66 9.66 0 01-.54-2.72 1 1 0 01.54-.96c.52-.27.74-.92.49-1.47a1.1 1.1 0 00-1-.62 1.05 1.05 0 00-.88.56z" fill="url(#a0uocaltl)"/><path d="M36.86 27.43a1 1 0 001.1-.5 1.92 1.92 0 01.98-.82 8.97 8.97 0 002.43-1.42.18.18 0 01.22 0c.08.06.1.16.07.26a6.3 6.3 0 01-2.6 3.05.3.3 0 01-.34-.02.7.7 0 00-1 .17c-.23.34-.16.8.17 1.05.27.2.63.18.89-.04a.3.3 0 01.3-.06l.44.16c.17.07.3.2.35.37.08.23.3.37.51.37.07 0 .13 0 .2-.03a.58.58 0 00.32-.74.54.54 0 00-.8-.28.54.54 0 01-.49.04l-.39-.14a.31.31 0 01-.2-.29c0-.12.06-.24.16-.3a6.34 6.34 0 002.76-3.27.2.2 0 01.18-.13c.5-.01.89-.44.88-.95a.92.92 0 00-.92-.91.91.91 0 00-.87.95c0 .1.02.19.05.28a.2.2 0 01-.07.21 8.88 8.88 0 01-2.32 1.38.95.95 0 01-1.04-.23 1.02 1.02 0 00-1.5-.04 1.2 1.2 0 00-.33.83 1.1 1.1 0 00.86 1.05z" fill="url(#b0uocaltl)"/><path d="M12.79 36.7c.5 0 .83-.32.83-.85s-.33-.85-.83-.85h-2.74a.06.06 0 00-.05.06v2.89c0 .03.03.05.06.05h.15c.03 0 .05-.03.05-.06v-1.25h2.53zm0-1.44c.38 0 .57.19.57.6 0 .4-.2.6-.57.6h-2.53v-1.2h2.53zm3.79-.2a.06.06 0 00-.05-.06h-.14a.06.06 0 00-.07.05v2.89c0 .03.02.05.05.06h.15c.03 0 .06-.02.06-.05V36.7h3.16v1.25c0 .03.02.05.05.06h.15c.03 0 .05-.02.06-.05v-2.9a.06.06 0 00-.05-.06h-.14a.06.06 0 00-.07.05v1.4h-3.16v-1.39zM26.78 38c.04 0 .08-.02.05-.07l-1.85-2.86c-.03-.05-.04-.07-.08-.07h-.14c-.04 0-.05.02-.08.07l-1.85 2.86c-.03.05 0 .07.04.07h.2c.03 0 .04-.01.06-.05l.01-.02.5-.78h2.37l.5.78v.02c.03.03.04.05.07.05h.2zm-1.95-2.7l1.02 1.6H23.8l1.03-1.6zM33 37.24a.76.76 0 00-.34-.68c.2-.14.32-.39.32-.71 0-.53-.3-.85-.79-.85h-2.58a.05.05 0 00-.05.06v2.89c0 .03.03.05.06.05h.14c.03 0 .05-.03.04-.06v-1.25h2.44c.3 0 .52.16.52.56v.69c0 .04.03.06.06.06h.12c.04 0 .06-.03.06-.06v-.7zm-.8-2c.35 0 .54.2.54.6 0 .41-.19.6-.54.6h-2.4v-1.2h2.4zm7.65-.24h-.21c-.05 0-.06.02-.09.06l-1.72 2.63-1.72-2.63c-.02-.04-.04-.06-.08-.06h-.22a.06.06 0 00-.06.05v2.89c0 .03.02.05.05.06h.14c.03 0 .06-.02.07-.05V35.4l1.68 2.55c.03.04.05.06.08.06h.12c.04 0 .06-.02.08-.06l1.69-2.55v2.55c0 .03.01.05.04.06h.15c.03 0 .06-.02.06-.05v-2.9a.06.06 0 00-.04-.06h-.02zm6.09 3c.04 0 .08-.02.05-.07l-1.84-2.86c-.02-.05-.04-.07-.08-.07h-.13c-.04 0-.06.02-.09.07l-1.84 2.86c-.03.05 0 .07.05.07h.2c.03 0 .04-.01.05-.04l.02-.03.5-.78h2.34l.5.78v.02c.03.03.04.05.08.05h.19zM44 35.3l1.02 1.6h-2.04L44 35.3z"/><defs><linearGradient id="a0uocaltl" x1="37.69" y1="21.55" x2="48.27" y2="30.7" gradientUnits="userSpaceOnUse"><stop stop-color="#FFAA32"/><stop offset=".52" stop-color="#AC519F"/><stop offset="1" stop-color="#902C8A"/></linearGradient><linearGradient id="b0uocaltl" x1="37.61" y1="29.87" x2="43.62" y2="16.93" gradientUnits="userSpaceOnUse"><stop stop-color="#40C4F2"/><stop offset=".54" stop-color="#2477B7"/><stop offset="1" stop-color="#28428E"/></linearGradient></defs></svg>