<!-- by TradingView --><svg width="56" height="56" viewBox="0 0 56 56" xmlns="http://www.w3.org/2000/svg"><path fill="#F0F3FA" d="M0 0h56v56H0z"/><path d="M26.83 44.63h.82v1.71h-.82L23.96 48c-2.18-2.38-.91-4.47 0-5.22l2.87 1.85Z" fill="url(#azrxv35hw)"/><path d="M29.33 44.63h-.82v1.71h.82L32.2 48c2.18-2.38.9-4.47 0-5.22l-2.87 1.85Z" fill="url(#bzrxv35hw)"/><path fill="#3799CD" d="M26.57 44.63h2.81v1.71h-2.81z"/><path d="M17.04 10.65c-.32 3.67 1.37 5.84 2.25 6.46l3.3-2.87a5.96 5.96 0 0 0-5.55-3.6Z" fill="url(#czrxv35hw)"/><path d="M38.96 10.65c.32 3.67-1.37 5.84-2.25 6.46l-3.3-2.87a5.96 5.96 0 0 1 5.55-3.6Z" fill="url(#dzrxv35hw)"/><path d="m18 19.96-.78 15.38h21.61l-.58-15.04c-.84-4.65-4.04-6.5-5.54-6.85l-9.91.23c-3.25 1.32-4.56 4.74-4.8 6.28Z" fill="#38A6D7"/><path d="M22.56 14.5c-.2-2.8 2.36-4.16 3.66-4.5a5.63 5.63 0 0 0-1.08 2.55c3.08-2.07 5.7-2.18 6.61-1.98a6.66 6.66 0 0 0-2.35 1.98c.99-.54 4.04-1.2 3.88 1.95-.13 2.51-3.17 3.52-4.67 3.7a7.36 7.36 0 0 0 2.29-2.07c.57-1.04-.58-.85-2.64.4-2.07 1.27-5.44 1.45-5.7-2.03Z" fill="url(#ezrxv35hw)"/><ellipse cx="22.81" cy="25.59" rx="1.78" ry="1.96" fill="#251F1F"/><ellipse cx="23.29" cy="25.17" rx=".7" ry=".77" fill="#fff"/><ellipse cx="33.29" cy="25.59" rx="1.78" ry="1.96" fill="#251F1F"/><ellipse cx="33.76" cy="25.17" rx=".7" ry=".77" fill="#fff"/><ellipse cx="28.03" cy="35.5" rx="10.8" ry="7.27" fill="url(#fzrxv35hw)"/><path d="m35.37 36.13-.26-.23.3-.32.88.83-.3.31-.3-.28c-6.5 4.9-12.71 2.42-15.2.43l-.28.31-.33-.28.84-.95.33.29-.27.3c2.38 1.9 8.32 4.28 14.59-.4Z" fill="#052A70"/><defs><linearGradient id="azrxv35hw" x1="22.75" y1="45.39" x2="27.65" y2="45.39" gradientUnits="userSpaceOnUse"><stop stop-color="#273758"/><stop offset="1" stop-color="#184892"/></linearGradient><linearGradient id="bzrxv35hw" x1="33.4" y1="45.39" x2="28.51" y2="45.39" gradientUnits="userSpaceOnUse"><stop stop-color="#273758"/><stop offset="1" stop-color="#184892"/></linearGradient><linearGradient id="czrxv35hw" x1="19.8" y1="10.65" x2="19.8" y2="17.11" gradientUnits="userSpaceOnUse"><stop stop-color="#4285B2"/><stop offset="1" stop-color="#1B56A0"/></linearGradient><linearGradient id="dzrxv35hw" x1="36.2" y1="10.65" x2="36.2" y2="17.11" gradientUnits="userSpaceOnUse"><stop stop-color="#4285B2"/><stop offset="1" stop-color="#1B56A0"/></linearGradient><linearGradient id="ezrxv35hw" x1="27.92" y1="10" x2="27.92" y2="18.2" gradientUnits="userSpaceOnUse"><stop stop-color="#E9AB22"/><stop offset="1" stop-color="#C98E0E"/></linearGradient><linearGradient id="fzrxv35hw" x1="28.03" y1="28.23" x2="28.03" y2="42.78" gradientUnits="userSpaceOnUse"><stop stop-color="#1A51A3"/><stop offset="1" stop-color="#15306A"/></linearGradient></defs></svg>