<!-- by TradingView --><svg xmlns="http://www.w3.org/2000/svg" width="56" height="56" viewBox="0 0 56 56"><path fill="url(#ayld1akgq)" d="M0 0h56v56H0z"/><path d="M44 23s-7.68-1-19.05-1C18.93 22 8 23.3 8 26.15c0 1.57 2.96 2.44 4 2.68 0 0-1.06.17-2.44.17C8.06 29 4 28.57 4 26.36 4 23.25 14.95 21 23.45 21 36.57 21 44 23 44 23Z" fill="#E43B34"/><path d="M13 31h.7v-1.7h2.6V31h.7v-5h-.7v2.6h-2.6V26H13v5Zm6.04-1.1c-.2-.23-.34-.56-.34-.99V26H18v3.03c0 .59.16 1.06.5 1.43.34.36.83.54 1.46.54.64 0 1.14-.2 1.5-.58.36-.39.54-.88.54-1.48V26h-.7v2.86c.01.36-.14.72-.36 1-.2.27-.53.44-.97.44-.42 0-.73-.16-.93-.4ZM23.7 31H23v-5l2.5 2.7L28 26v5h-.7v-3.17l-1.8 1.87-1.8-1.87V31Zm9.8 0-2.27-5L29 31h.82l.4-1h2l.42 1h.86Zm-2.98-1.7.7-1.8.73 1.8h-1.43ZM41 31v-1.72L39 26h.8l1.55 2.6L42.8 26h.8l-1.9 3.27V31H41Zm4.6 0h.7v-4.3H48V26h-4v.7h1.6V31Zm6.4-.7v.7h-3.3v-5H52v.7h-2.6v1.9h2.1v.7h-2.1v1H52Zm-15.5-3.6c.51 0 1 .2 1.35.5l.54-.49a2.45 2.45 0 0 0-1.8-.7 2.6 2.6 0 0 0-1.86.72A2.37 2.37 0 0 0 34 28.5a2.43 2.43 0 0 0 2.52 2.5 2.76 2.76 0 0 0 1.98-.8l-.55-.51c-.36.37-.89.61-1.45.61-1.05 0-1.8-.8-1.8-1.8 0-1.01.75-1.8 1.8-1.8Z" fill="url(#byld1akgq)"/><defs><linearGradient id="ayld1akgq" x1="10.42" y1="9.71" x2="68.15" y2="76.02" gradientUnits="userSpaceOnUse"><stop stop-color="#1A1E21"/><stop offset="1" stop-color="#06060A"/></linearGradient><linearGradient id="byld1akgq" x1="32.5" y1="31.63" x2="32.5" y2="23" gradientUnits="userSpaceOnUse"><stop offset=".48" stop-color="#fff"/><stop offset=".71" stop-color="#fff" stop-opacity=".21"/></linearGradient></defs></svg>