<!-- by TradingView --><svg width="56" height="56" viewBox="0 0 56 56" xmlns="http://www.w3.org/2000/svg"><path fill="url(#a2jsqharn)" d="M0 0h56v56H0z"/><path d="M25 26h3.36c.58 0 1.06.46 1.06 1.03v.55c0 .51-.4.94-.9 1.01l1 1.41h-1.14l-1-1.4H26V30h-1v-4Zm1 1.91h1.93c.26 0 .46-.2.46-.45v-.32c0-.25-.2-.45-.46-.45H26v1.22ZM21 26h-1v2.85c0 .63.47 1.15 1.05 1.15h1.9c.58 0 1.05-.52 1.05-1.15V26h-1v2.9c0 .28-.28.5-.52.5h-.96c-.24 0-.52-.22-.52-.5V26ZM15 26h1v1.6h2V26h1v4h-1v-1.7h-2V30h-1v-4ZM33.53 29.96c1.4-.06 1.47-.8 1.47-1.38h-1v.22c.05.4-.65.52-.93.52-.1.02-.48.04-1.13 0-.65-.03-.95-.45-.94-.66v-1.43c.02-.45.76-.57 1.04-.57h1.03c.58.01.93.26.93.38v.33h.92v-.28c-.13-.88-.5-1.08-2.73-1.09-1.79 0-2.14.74-2.14 1.16a6 6 0 0 0 0 1.68c.12 1.24 1.71 1.21 3.48 1.12ZM38.25 29.34v.65c-2.02.1-2.25-.78-2.25-1.36v-.8c0-.43 0-1.16.37-1.46.46-.36 1.42-.38 1.88-.36v.66c-1.02-.1-1.26.45-1.25.73v1.23c-.01.62.83.73 1.25.71ZM38.75 29.34v.65c2.02.1 2.25-.78 2.25-1.36v-.8c0-.43 0-1.16-.37-1.46-.45-.36-1.41-.38-1.88-.36v.66c1.02-.1 1.26.45 1.25.73v1.23c.01.62-.83.73-1.25.71Z" fill="#fff"/><path d="M37.46 27.56c0-.3.24-.56.53-.56h1c.28 0 .52.25.52.56v.88c0 .3-.24.56-.53.56H38a.55.55 0 0 1-.53-.56v-.88Z" fill="#00B6E6"/><path fill-rule="evenodd" d="M28 43a15 15 0 1 0 0-30 15 15 0 0 0 0 30Zm0 2a17 17 0 1 0 0-34 17 17 0 0 0 0 34Z" fill="#00B6E6"/><defs><linearGradient id="a2jsqharn" x1="10.42" y1="9.71" x2="68.15" y2="76.02" gradientUnits="userSpaceOnUse"><stop stop-color="#1A1E21"/><stop offset="1" stop-color="#06060A"/></linearGradient></defs></svg>