<!-- by TradingView --><svg width="56" height="56" viewBox="0 0 56 56" xmlns="http://www.w3.org/2000/svg"><path fill="#F0F3FA" d="M0 0h56v56H0z"/><path fill-rule="evenodd" d="M20.2 44h15.6a8.2 8.2 0 0 0 8.2-8.2V20.2a8.2 8.2 0 0 0-8.2-8.2H20.2a8.2 8.2 0 0 0-8.2 8.2v15.6a8.2 8.2 0 0 0 8.2 8.2Zm17.59-24.89a4.22 4.22 0 0 0-2.9-1.11h-5.1c-1.1 0-1.83.38-2.6 1.11A3.78 3.78 0 0 0 26 21.86V27h4v-5h4v12h-2v5h2.88c1.1 0 2.14-.41 2.91-1.14A3.8 3.8 0 0 0 39 35.1V21.86a3.8 3.8 0 0 0-1.21-2.75ZM24 22v-5h-2.88c-1.1 0-2.14.41-2.91 1.14A3.8 3.8 0 0 0 17 20.9v13.25a3.8 3.8 0 0 0 1.2 2.75A4.22 4.22 0 0 0 21.13 38h4.47c1.09 0 2.13-.38 2.9-1.11.78-.73 1.5-1.72 1.51-2.75V29h-4v5h-4V22h2Z" fill="#00558C"/></svg>