<!-- by TradingView --><svg width="56" height="56" viewBox="0 0 56 56" xmlns="http://www.w3.org/2000/svg"><path fill="#063C82" d="M0 0h56v56H0z"/><path d="M41.73 12.54c.5-.27 1.05-.47 1.62-.53.18-.02.38-.03.55.07.09.05.12.17.09.27-.06.2-.2.38-.33.55a288.22 288.22 0 0 0-5.03 7.3c-.24.37-.5.73-.72 1.13l-1.57 2.55c-.23.43-.48.84-.72 1.27-.53.91-1 1.87-1.49 2.81-1 1.96-2.03 3.91-3.05 5.87-.49.9-.97 1.82-1.48 2.73-.1.2-.23.38-.31.59-.43.93-.84 1.87-1.25 2.82A60.2 60.2 0 0 0 26.5 44h-2.55c.19-.5.4-1 .64-1.5.21-.41.4-.85.6-1.27l4.22-8.8c.49-1 .96-1.99 1.46-2.97.09-.23.18-.48.23-.73.03-.18.03-.4-.12-.52a.79.79 0 0 0-.48-.21c-.35-.03-.7-.02-1.03-.02l-3.33.03c-.28 0-.55.03-.83.05-.48.03-.96.05-1.43.09-.44.02-.88.09-1.32.13-.31.04-.62.08-.93.14a.43.43 0 0 0-.34.2c-.09.14-.24.23-.3.38l-1.65 2.47-1.22 1.85a33.28 33.28 0 0 0-1.92 3.49c-.06.1-.12.22-.2.32-.05.1-.17.12-.27.15-.83.22-1.68.38-2.51.6-.22.04-.43.14-.66.16-.17.02-.36.05-.52-.05-.08-.06-.03-.16.01-.23.14-.25.32-.47.5-.69.13-.18.3-.35.42-.53l1.14-1.5 1.67-2.32c.5-.67.97-1.35 1.46-2.03l1.83-2.56 1.61-2.7c.11-.18.22-.35.32-.54.52-.9 1.07-1.77 1.57-2.68l.55-1c.08-.16.16-.3.22-.46.13-.32.26-.64.34-.97.05-.18.02-.4-.13-.53-.25-.04-.5-.1-.76-.08-1.12.04-2.24.1-3.37.16-.11 0-.25 0-.33-.1-.11-.12-.12-.3-.1-.45a.65.65 0 0 1 .38-.48c.15-.08.33-.1.5-.11l2.63-.11c.46-.04.94-.04 1.4-.07l1.6-.07 1.75-.08c.15 0 .31.05.41.16.06.08.15.15.16.25.02.2-.07.4-.17.58l-.97 1.36c-.28.4-.55.8-.82 1.22-.22.3-.41.64-.62.96l-1.05 1.7-1.52 2.64c-.03.06-.1.08-.13.14 1.65.13 2.55.13 3.82.13 1.91-.03 3.8-.28 5.7-.45.2-.03.38-.14.52-.27.06-.08.1-.16.14-.24l3.03-5.2a127.18 127.18 0 0 1 3.5-5.73c.29-.42.56-.85.88-1.24.3-.38.63-.74 1.04-1 .17-.13.37-.22.56-.33Z" fill="#DB9E2F"/></svg>