<!-- by TradingView --><svg width="56" height="56" viewBox="0 0 56 56" xmlns="http://www.w3.org/2000/svg"><path fill="#F0F3FA" d="M0 0h56v56H0z"/><path d="M6 33.83V22.07l.2-.07s8.3-5 21.97-5c13.67 0 21.62 4.73 21.62 4.73l.21.07v12.07l-.14.06S43.24 39 27.96 39C12.7 39 6.22 34.03 6.22 34.03l-.21-.2Zm1-11.36v11.06C8.05 34.2 14.26 38 28 38s19.95-3.8 21-4.47V22.27c-1.26-.6-8.48-4.27-20.83-4.27C15.77 18 8.26 21.86 7 22.47Z" fill="#BE0139"/><path d="M8 23.35v9.1l2 .8V29h1v4.4l2 .6V21.4l-2 .6v4.22l-1 .13v-3.81l-2 .8Z" fill="#BE0139"/><path fill-rule="evenodd" d="m18 20.45-2.59.67-1.74 13 2.12.48.21-2.3 1.44.2.2 2.5 2.17.4L18 20.45Zm-1 9.2-.41-5.5-.59 5.37 1 .13Z" fill="#BE0139"/><path d="m19.19 20.65 1.81-.4.62 9.75.9-10h1.82l.7 10 .76-10h1.75l-1.18 16H24l-.64-10-.55 10-2.3-.27-1.32-15.08ZM28 20h2v5.7l1.52-5.7 2.1.2-1.89 6.72 2.07 8.81-2.3.27-1.1-5.57-.4 1.21V36h-2V20ZM34 20.21l2 .2v15.04l-2 .27v-15.5ZM37 20.57l2.18.43.82 8v-7.8l2 .54v12.53L40 35l-1-8v8l-2 .38v-14.8ZM43 30.43l1.81-.27s0 1.75.7 1.48c1.26-.4.56-2.02-.42-2.56-.42-.2-2.09-.27-2.09-4.18 0-3.91 2.65-2.77 2.65-2.77s2.02.61 2.1 3.65c-1.26-.14-1.47-.14-1.75-.27 0-.14-.07-1.42-.63-1.42-.63 0-.63 1.01-.49 1.42.14.4.84 1.2 1.6 1.55.77.33 1.52 1.48 1.52 2.96 0 1.49-1.23 3.64-3.6 3.64-1.62 0-1.4-3.23-1.4-3.23Z" fill="#BE0139"/></svg>