<!-- by TradingView --><svg xmlns="http://www.w3.org/2000/svg" width="56" height="56" viewBox="0 0 56 56"><path fill="#00703C" d="M0 0h56v56H0z"/><path d="M26.71 12.21c-.62.35-1.2.15-1.5-.04a.09.09 0 0 1 0-.14c.51-.5 1.29-.28 1.54.06.03.04 0 .1-.04.12Z" fill="#fff"/><path fill-rule="evenodd" d="M24.85 12.33h-.57l-2.48-.95c-.74-.26-2.26-.44-2.49.95-.28 1.73.98 2.11 1.4 2.11.74 0 1.62-.34 2.4-.65.34-.13.66-.25.94-.34h.39c.16.25.64.74 1.26.74.7 0 1.07-.3 1.32-.5.02 0 .04-.02.05-.04.82.15 2.8.44 3.73.54.96.1 1.2.04 1.3 0h.05c.93-.41.93-1.3.93-1.53 0-.23-.08-.8-.44-1.33-.3-.43-.81-.35-1.04-.26l-3.7 1.36h-.6c-.4.27-.82.4-1.31.4-.54 0-.77-.11-1.14-.5Zm-4.92-.16c-.1.18-.2.66-.05 1.05.15.39.44.62.57.69.14.07.4.12.36-.18-.01-.1-.1-.19-.2-.27-.1-.1-.22-.2-.12-.32.06-.08.1-.19-.04-.3-.02-.03-.06-.03-.1-.04-.09-.02-.18-.04-.18-.2 0-.28-.03-.73-.24-.43Zm11.75 1.38c.3.08.38-.32.39-.54v-.43c.1.03.36.08.44 0 .1-.1.07-.43-.1-.43-.18 0-.24.23-.24.23h-.15c-.03-.18-.05-.23-.13-.23s-.13.25-.13.5c0 .21-.05.38-.08.44-.12.12-.29.38 0 .46Zm-7.09-.71c-.05.2-.07.6.26.66.08 0 .22-.01.15-.18a.53.53 0 0 0-.12-.15c-.06-.06-.12-.13-.13-.23-.02-.17-.15-.16-.16-.1Z" fill="#fff"/><path d="M26.38 14.5a12.4 12.4 0 0 0-1.4.02c.04.37.18.72.72.77.44.03.62-.43.68-.78Z" fill="#fff"/><path d="M24.2 14.6c-.97.12-1.57.38-1.58.69 0 .46 1.43.88 3.34.89 1.92.01 3.39-.3 3.4-.77 0-.37-1-.73-2.38-.86-.1.72-.44 1.27-1.2 1.26-.8-.01-1.26-.53-1.58-1.22ZM23.2 16.2c-.32-.17-.8-.25-.91 0-.12.3.43.5.64.61.43.2.78.11.8-.04.03-.18-.23-.39-.54-.56ZM24.23 16.97c.2.19.84.21 1.14.2 1 0 1.21-.12 1.3-.35.05-.19-.18-.3-.32-.28-.33.02-1.1.06-1.55 0-.57-.08-.83.2-.57.43ZM27.13 16.92c.07.16.38.17.7.14.34-.05.7-.1 1.03-.19.31-.07.58-.2.47-.38-.1-.14-.43-.16-.75-.13-.3.03-1.65.15-1.45.56ZM35.77 28.74c-1.55.08-2.85-.54-3.08-.87-.14-.2-.03-.43.1-.58.11-.13.13-.13.26-.06a5.26 5.26 0 0 0 5.67-.43c.26-.18.3.2.27.51a.4.4 0 0 1-.12.28c-.54.6-1.65 1.08-3.1 1.15ZM18.04 17.07c.16-.3-.1-.3-.51-.02-.33.22-.7.6-.96.87-.33.32-.1.48.23.3.55-.29 1.1-.87 1.24-1.15ZM17.67 23.75c.32.14.3-.11.01-.51-.24-.32-.63-.67-.9-.92h-.01c-.34-.3-.5-.09-.3.24.31.53.91 1.06 1.2 1.19Z" fill="#fff"/><path fill-rule="evenodd" d="M24.9 17.66a4.87 4.87 0 0 1-2.28-.54s-.12-.05-.23.13c-.23.39-.67.72-1.06.85-.31.1-.7.08-.85.05-.09-.02-.06-.21 0-.23.5-.19.77-.42.85-.51-.66-1-1.73-.85-2.15-.6a7.8 7.8 0 0 0-1.45 1.3l-.03.03c-.26.28-.48.53-.48.92v2.58c-.3-.02-.37-.26-.37-.38v-2.2c0-.22-.85-.3-.85 0v2.53c.01.22.27.26.5.3.11.02.2.03.28.06.44.18.98.84 1.5 1.5.51.67 1.08.67 1.11.67h.04c.14 0 .72.02 1.2 0 .55-.03.52-.49.31-.8-.16-.23-.52-.19-.75-.16l-.15.02c-.18 0-.18-.23-.06-.29.13-.05.83-.02 1.14 0 .31.03.88.44 2 1.36a4.72 4.72 0 0 0 3.16 1.04c.52-.02 1.3-.04 2.74-.58a6.61 6.61 0 0 1 2.97-.41c1.66.18 1.88 1.52 1.79 2.17-.07.1-.23.06-.29 0-.22-.27-.4-.12-.52.06v.02c-.06.1-.09.14 0 .2 2.75 1.9 5.62-.05 5.75-.28.1-.19-.04-.45-.13-.56-.1-.13-.15.06-.16.18-.2.15-.23-.1-.23-.29.05-1.35-.02-2.7-1.19-3.93-.93-.98-2.87-1.27-3.72-1.3a3.91 3.91 0 0 1-2.2-1.17l-1.71-2.02c-.87.13-3.11.36-4.48.28Zm-.96 4.72c-.06-.13 0-.27.24-.17l.4.2c.66.3 1.23.56 1.95.67.5.07 1 .08 1.4.07.36-.02.5.05.1.2-.26.1-.76.16-1.5.16a3.8 3.8 0 0 1-2.59-1.13Zm-2.17-.28c.25.1.83.37 1.11.67 2.25 2.32 4.1 1.9 6.47 1.38l1.37-.29.12-.02c.98-.18 1.8-.33 2.6.37.64.57.83 1.2.83 2.1 0 .12.06.31.28.1.29-.25.16-.68 0-1.09-.15-.4-.8-1.92-1.96-2.02-.86-.07-2.16.17-3.39.4-1 .2-1.96.37-2.6.36a5.57 5.57 0 0 1-3.35-1.4c-1.63-1.35-1.69-.65-1.48-.56ZM32.28 32.16a15.6 15.6 0 0 0 3.15-3.11h.78c-.67 1.6-.23 3.55 0 4.26.22.68.55 1.4.88 2.15l.6 1.38c2.19 5.4-1.36 9.08-7.02 7.96-4.32-.86-4.85-4.3-4.58-5.9.28-3.03 3.11-4.8 5.08-6.03.42-.25.8-.49 1.1-.7Zm-3.55 8.94c-.83.06-1.07-1.1-1.09-1.69-.1-2.3 1.53-4.05 2.49-4.74.22-.16.53-.2.26.15-1.19 1.28-1.63 2.16-1.8 2.75-.23.86-.03 1.66.37 2.43.38.71 0 1.03-.23 1.1Zm1.32-3.7c.1-.06.28-.11.23.07l-.03.14c-.1.33-.3 1.02-.07 1.55.33.65-.67.79-.83.03-.17-.82.36-1.52.7-1.8Z" fill="#fff"/></svg>