<!-- by TradingView --><svg xmlns="http://www.w3.org/2000/svg" width="56" height="56" viewBox="0 0 56 56"><path fill="#F0F3FA" d="M0 0h56v56H0z"/><path fill-rule="evenodd" d="M6 27h2v3h2v-3h2v8h-2v-3H8v3H6v-8zm33 0h4.5v2H41v1h2v2h-2v3h-2v-8zm5 0h6v2h-2v6h-2v-6h-2v-2zm-9.5 8c1.93 0 3.5-1.8 3.5-4s-1.57-4-3.5-4-3.5 1.8-3.5 4 1.57 4 3.5 4zm0-1.5c.83 0 1.5-1.12 1.5-2.5s-.67-2.5-1.5-2.5S33 29.62 33 31s.67 2.5 1.5 2.5zm-11.5 0c.31 0 .6-.06.88-.16l.43 1.3a4.2 4.2 0 0 1-1.7.36 4.06 4.06 0 0 1-4.11-4c0-2.2 1.84-4 4.12-4 .59 0 1.15.12 1.66.34l-.43 1.3A2.5 2.5 0 1 0 23 33.5zM14.47 27H12.5l2.5 4.67V35h2v-3.33L19.5 27h-1.97L16 30l-1.53-3zm11.03 0H25v8h2v-3.29h.2c.54 0 1 .37 1.15.9l.64 2.39H31a7.7 7.7 0 0 1-.44-1.17l-.02-.1c-.1-.49-.4-1.99-1.1-2.55a2.25 2.25 0 0 0 1.06-1.88c0-1.27-1.1-2.3-2.48-2.3H25.5zm2.26 1.4H27v2.07h.76c.41 0 .74-.46.74-1.03 0-.57-.33-1.04-.74-1.04z" fill="#0C0F1E"/><path d="M39.86 26h-4.6a48.9 48.9 0 0 0 5.38-3.87c1.49-1.21 2.69-1.45 3.1-1.42 1.63.38 3.8 2.73 6.26 5.29-3.46-2.55-5.36-3.78-6.08-3.87-.58-.07-2.95 2.72-4.06 3.87z" fill="#BDBEC0"/><path d="M18.4 18.9A68.48 68.48 0 0 0 7 25.47c7.46-4.71 11.1-5.04 11.82-5.35.58-.24 1.87-.06 2.45.07.7.07 2.59.22 4.49.24 2.38.02 6.6-1.59 7.39-2.1.62-.41 1.57 1.07 1.98 1.86l3.1 5.8h4.77c-4.4-6.12-7.18-9.35-8.54-10.72-.42-.42-1.09-.34-1.5.09-3.79 4.08-8.6 4-11.72 3.35a4.65 4.65 0 0 0-2.84.17z" fill="#A99A6F"/></svg>