<!-- by TradingView --><svg width="56" height="56" viewBox="0 0 56 56" xmlns="http://www.w3.org/2000/svg"><path fill="#F0F3FA" d="M0 0h56v56H0z"/><path d="M42 15.52c0-.2-.04-.4-.08-.55a2.45 2.45 0 0 0-2.74-1.93A2.47 2.47 0 0 0 37 15.52v6.17c0 .31 0 .31-.3.31H19.3c-.22 0-.3-.08-.3-.31v-6.17A2.5 2.5 0 0 0 16.6 13h-.12A2.42 2.42 0 0 0 14 15.44v25.08a2.5 2.5 0 0 0 5 0v-7.2c0-.32 0-.32.3-.32h17.4c.3 0 .3 0 .3.32v7.15a2.5 2.5 0 0 0 2.91 2.48 2.52 2.52 0 0 0 2.05-2.48c.04-8.3.04-16.62.04-24.95ZM36.7 29H19.26c-.2 0-.27-.04-.27-.27v-2.46c0-.23.08-.27.27-.27H36.7c.31 0 .31 0 .31.31v2.42c-.04.23-.12.27-.3.27ZM42 15.52c0-.2-.04-.4-.08-.55a2.45 2.45 0 0 0-2.74-1.93A2.47 2.47 0 0 0 37 15.52v6.17c0 .31 0 .31-.3.31H19.3c-.22 0-.3-.08-.3-.31v-6.17A2.5 2.5 0 0 0 16.6 13h-.12A2.42 2.42 0 0 0 14 15.44v25.08a2.5 2.5 0 0 0 5 0v-7.2c0-.32 0-.32.3-.32h17.4c.3 0 .3 0 .3.32v7.15a2.5 2.5 0 0 0 2.91 2.48 2.52 2.52 0 0 0 2.05-2.48c.04-8.3.04-16.62.04-24.95ZM36.7 29H19.26c-.2 0-.27-.04-.27-.27v-2.46c0-.23.08-.27.27-.27H36.7c.31 0 .31 0 .31.31v2.42c-.04.23-.12.27-.3.27ZM42 15.52c0-.2-.04-.4-.08-.55a2.45 2.45 0 0 0-2.74-1.93A2.47 2.47 0 0 0 37 15.52v6.17c0 .31 0 .31-.3.31H19.3c-.22 0-.3-.08-.3-.31v-6.17A2.5 2.5 0 0 0 16.6 13h-.12A2.42 2.42 0 0 0 14 15.44v25.08a2.5 2.5 0 0 0 5 0v-7.2c0-.32 0-.32.3-.32h17.4c.3 0 .3 0 .3.32v7.15a2.5 2.5 0 0 0 2.91 2.48 2.52 2.52 0 0 0 2.05-2.48c.04-8.3.04-16.62.04-24.95ZM36.7 29H19.26c-.2 0-.27-.04-.27-.27v-2.46c0-.23.08-.27.27-.27H36.7c.31 0 .31 0 .31.31v2.42c-.04.23-.12.27-.3.27ZM42 15.52c0-.2-.04-.4-.08-.55a2.45 2.45 0 0 0-2.74-1.93A2.47 2.47 0 0 0 37 15.52v6.17c0 .31 0 .31-.3.31H19.3c-.22 0-.3-.08-.3-.31v-6.17A2.5 2.5 0 0 0 16.6 13h-.12A2.42 2.42 0 0 0 14 15.44v25.08a2.5 2.5 0 0 0 5 0v-7.2c0-.32 0-.32.3-.32h17.4c.3 0 .3 0 .3.32v7.15a2.5 2.5 0 0 0 2.91 2.48 2.52 2.52 0 0 0 2.05-2.48c.04-8.3.04-16.62.04-24.95ZM36.7 29H19.26c-.2 0-.27-.04-.27-.27v-2.46c0-.23.08-.27.27-.27H36.7c.31 0 .31 0 .31.31v2.42c-.04.23-.12.27-.3.27ZM42 15.52c0-.2-.04-.4-.08-.55a2.45 2.45 0 0 0-2.74-1.93A2.47 2.47 0 0 0 37 15.52v6.17c0 .31 0 .31-.3.31H19.3c-.22 0-.3-.08-.3-.31v-6.17A2.5 2.5 0 0 0 16.6 13h-.12A2.42 2.42 0 0 0 14 15.44v25.08a2.5 2.5 0 0 0 5 0v-7.2c0-.32 0-.32.3-.32h17.4c.3 0 .3 0 .3.32v7.15a2.5 2.5 0 0 0 2.91 2.48 2.52 2.52 0 0 0 2.05-2.48c.04-8.3.04-16.62.04-24.95ZM36.7 29H19.26c-.2 0-.27-.04-.27-.27v-2.46c0-.23.08-.27.27-.27H36.7c.31 0 .31 0 .31.31v2.42c-.04.23-.12.27-.3.27Z" fill="url(#asshqruca)"/><defs><linearGradient id="asshqruca" x1="14" y1="26" x2="43" y2="26" gradientUnits="userSpaceOnUse"><stop stop-color="#333570"/><stop offset="1" stop-color="#5C3469"/></linearGradient></defs></svg>