<!-- by TradingView --><svg xmlns="http://www.w3.org/2000/svg" width="56" height="56" viewBox="0 0 56 56"><path fill="url(#a3miak0pc)" d="M0 0h56v56H0z"/><path d="M33.63 31c-.42 0-.63-.2-.63-.62v-2.9c0-.32.2-.48.54-.48.38 0 .46.23.46.58v2c0 .29.14.42.45.42h4.16c.26 0 .39-.12.39-.37v-2.08c0-.3.13-.55.37-.55h.24c.24 0 .39.23.39.59v2.82c0 .3-.17.59-.5.59h-5.87zM33.63 24c-.42 0-.63.2-.63.63v1.4c0 .3.2.47.54.47.38 0 .46-.23.46-.58v-.49c0-.3.14-.43.45-.43h4.16c.26 0 .39.13.39.38v.57c0 .3.13.55.37.55h.24c.24 0 .39-.23.39-.59V24.6c0-.29-.17-.58-.5-.58h-5.87zM23.51 31c-.44 0-.78-.48-.2-.97 1.57-1.33 3.06-2.55 4.66-3.86.17-.16.4-.2.63-.14.26.1.48.52.14.8l-3.7 3.07c-.08.05-.08.1 0 .1h4.38c.28 0 .58.1.58.49s-.31.52-.47.51h-6.02zM18 30.48c0 .43-.11.52-.47.52-.37 0-.51-.09-.53-.41v-3.1c0-.22.1-.49.4-.49h.18c.24 0 .42.16.42.43v3.05z" fill="#fff"/><path d="M29.09 24c.76 0 .9.11.91.47 0 .37-.15.51-.72.53h-5.43c-.39 0-.85-.1-.85-.41v-.17c0-.24.27-.42.75-.42h5.34z" fill="#1DA5D1"/><path d="M18.71 26.44c-.3.22-.43.18-.64-.11-.22-.3-.24-.46-.02-.64.64-.46 1.55-1.14 2.2-1.6.15-.1.4-.16.57.08l.1.15c.14.18.14.41-.05.55l-2.16 1.57zM16.29 26.44c.3.22.43.18.64-.11.22-.3.24-.46.02-.64-.64-.46-1.55-1.14-2.2-1.6-.15-.1-.4-.16-.58.08l-.1.15c-.14.18-.14.41.06.55l2.16 1.57zM50 24.95A51.89 51.89 0 0 1 50 26c.02.3.13.42.35.43h.28c.25 0 .36-.13.36-.45v-1.53c0-.32-.11-.44-.36-.44h-.25c-.28 0-.37.13-.38.51v.43zm-6 3.62v1.73c.02.49.13.7.35.7h.28c.25 0 .36-.2.36-.74v-2.52c0-.53-.11-.73-.36-.74h-.25c-.28 0-.37.22-.38.85v.72zm0-3.37a55.1 55.1 0 0 0 0-.66c0-.4.1-.53.38-.53h.25c.12 0 .2.03.27.1l.18.15 1.25 1.3c.26.27.28.45.1.63l-.2.2c-.16.14-.34.11-.59-.13a16.45 16.45 0 0 1-.64-.66v.44c-.01.33-.12.46-.37.46h-.28c-.22 0-.33-.13-.34-.44v-.6-.26zm6 3.37v.88l-1.9-1.95c-.47-.49-.72-.6-.9-.43l-.12.12a8 8 0 0 1-.06.05c-.2.2-.08.46.48 1.05l.63.66.32.32.37.39.85.88a2 2 0 0 0 .54.42c.04.03.09.04.14.04h.28c.25 0 .36-.2.36-.74v-2.52c0-.53-.11-.73-.36-.74h-.25c-.28 0-.37.22-.38.85v.72zM11 25.16v-.21-.43c0-.39.1-.52.38-.52h.25c.25 0 .36.12.36.45v1.52c0 .33-.11.45-.36.45h-.28c-.22 0-.33-.13-.34-.42v-.58-.26zM8 27h3.46c.32 0 .52.23.54.58v2.88c0 .24-.06.54-.36.54h-.3c-.25-.01-.34-.24-.34-.5v-2.16c0-.22-.05-.34-.33-.34H6.28c-.13 0-.28.02-.28.2v2.3c0 .27-.1.5-.37.5h-.25c-.33 0-.38-.21-.38-.59V27.5c0-.36.18-.48.52-.49H8zm-3-2.05v.21A26.86 26.86 0 0 1 5 26c.02.3.13.42.35.42h.28c.25 0 .36-.12.36-.45v-1.52c0-.33-.11-.45-.36-.45h-.25c-.28 0-.37.13-.38.52v.43z" fill="#fff"/><defs><linearGradient id="a3miak0pc" x1="10.42" y1="9.71" x2="68.15" y2="76.02" gradientUnits="userSpaceOnUse"><stop stop-color="#1A1E21"/><stop offset="1" stop-color="#06060A"/></linearGradient></defs></svg>