<!-- by TradingView --><svg width="56" height="56" xmlns="http://www.w3.org/2000/svg"><path fill="#253F6C" d="M0 0h56v56H0z"/><path d="M43 28.801V36l9-15.002-9 7.803z" fill="#FFF200"/><path d="M43 28.803V36l3.749-10.17 2.908-.928L52 20.998l-9 7.805zM6 36v-.44h2.032V20.995H6v-.441h7v.441h-2V35.56h2V36H6z" fill="#fff"/><path d="M18.205 31.061H8.032v-.443h10.173v.443z" fill="#FFF200"/><path d="M39.56 36.299c-.045-.334-.48-.711-1.118-.711-.705 0-1.48.755-3.395.755-4.152 0-7.047-3.73-7.047-8.123 0-4.394 2.895-8.123 7.047-8.123 1.48 0 2.44.668 3.624.668.412 0 .822-.478.866-.765H40v5h-.463c0-3.017-2.53-4.457-4.49-4.457-.684 0-1.58.175-2.355.885-1.004.957-1.712 3.152-1.712 6.792 0 3.641.708 5.837 1.712 6.791.775.71 1.352.889 2.355.889 2.942 0 4.512-2.014 4.512-4.9H40V36.3h-.44zM22.31 36v-.445h2.078l-1.67-4.502h-5.286l-1.67 4.502h2.077V36h-4.471v-.445h1.919L21 20h.317L27.5 35.555h1.45V36H22.31zm-2.214-12.213l-2.506 6.82h4.992l-2.486-6.82z" fill="#fff"/><path d="M22.582 30.618l.135.443h8.443s-.054-.262-.06-.443h-8.518z" fill="#FFF200"/></svg>