<!-- by TradingView --><svg width="56" height="56" viewBox="0 0 56 56" xmlns="http://www.w3.org/2000/svg"><path fill="#F90161" d="M0 0h56v56H0z"/><path d="M8 35V24h3v11H8ZM25 29.01c0 3.46-2.36 5.99-5.5 5.99-1.4 0-2.77-.58-3.5-1.32V35h-3V19h3v5.24A5.63 5.63 0 0 1 19.5 23c3.14 0 5.5 2.56 5.5 6.01Zm-3 0c0-2.03-1.66-3.01-3.11-3.01A3 3 0 0 0 16 29.01 2.97 2.97 0 0 0 18.89 32c1.45 0 3.11-.96 3.11-2.99ZM36.88 30h-8.42c.35 1.1 1.5 2 3.06 2a6.8 6.8 0 0 0 3.46-1.04l1.44 2.48A8.84 8.84 0 0 1 31.35 35C27.08 35 25 32.17 25 29c0-3.4 2.42-6 6.12-6C34.4 23 37 25.08 37 28.71c0 .52-.06.83-.12 1.29Zm-8.42-2h5.24c-.29-1.1-1.07-2-2.53-2-1.45 0-2.36.85-2.7 2Z" fill="#fff"/><path d="m43.3 35-1.8-3.52L39.6 35h-4.27l3.65-6.06L35.84 23h4.26l1.51 3.23 1.8-3.23h4.09l-3.42 5.94L47.6 35h-4.32Z" fill="#fff"/><path d="M49 35a2 2 0 1 0 0-4 2 2 0 0 0 0 4Z" fill="#fff"/><circle cx="9.5" cy="21" r="2" fill="#fff"/></svg>