<!-- by TradingView --><svg width="56" height="56" fill="none" xmlns="http://www.w3.org/2000/svg"><path fill="#842530" d="M0 0h56v56H0z"/><path d="M39.347 12.505A4.152 4.152 0 0143.5 16.67v22.637c0 2.321-1.87 4.197-4.152 4.197H16.656c-2.314 0-4.152-1.876-4.152-4.197V16.67a4.152 4.152 0 014.152-4.165h22.691z" stroke="#fff"/><path d="M16.843 14h22.315A2.846 2.846 0 0142 16.842v22.316A2.846 2.846 0 0139.158 42H16.842a2.846 2.846 0 01-2.841-2.842V16.842C13.968 15.292 15.26 14 16.843 14z" fill="#fff"/><path d="M19.782 15.938l-2.842 4.489-.097 2.745 1.841 3.681 3.359 1.324 1.324 2.035 1.711.29 1.454 1.55 1.098-.096.42-1.227 1.614-1.421 1.938-.226 1.647.807.517 1.453 1 1.098.905-.096.614-1.325v-1.227l-.71-2.422 1.743-2.067-.097-2.422L39.353 17h-2.035l-2.454 2.813h-.485l-.936.29V18.07h-4.586l-4.49-.71-4.585-1.422z" fill="#842530"/><path d="M18.877 27.952l2.745 1.13 1.324 2.035 1.841.323 1.518 1.421 1.324-.097.42 3.068 1.001.485.517-.097 1.227-1.421 1.647.29.097 2.358-2.648 1.13-2.552 2.229-4.198-1.744.13-.808-1.938-3.972-.517 1.13-1.647.097-.904-4.166.613-3.39z" fill="#842530"/></svg>