<!-- by TradingView --><svg width="56" height="56" xmlns="http://www.w3.org/2000/svg"><path fill="#17468F" d="M0 0h56v56H0z"/><path d="M9.74 33.694c-.08.194-.144.306-.304.306s-.224-.112-.304-.306l-4.012-9.57c-.416-1.014-1.119-.595-1.119-.95 0-.096.064-.176.192-.176H9.18c.24 0 .352.032.352.16 0 .306-.975.13-.975.901 0 .306.255.772 2.237 5.807h.032c1.391-3.555 1.92-4.423 1.92-5.163 0-1.608-1.375-1.11-1.375-1.528 0-.129.064-.177.271-.177h3.406c.144 0 .256.032.256.129 0 .418-1.167-.065-2.079 2.187l-3.486 8.38zm7.26-6.64c0-.515-.083-.66-.402-.66-.512 0-.896.274-.896.756 0 .37.064.772.064 1.158 0 .724-.496 1.24-1.359 1.24-.88 0-1.231-.387-1.231-.982 0-1.287 2.35-2.566 4.429-2.566 1.758 0 2.395.732 2.395 2.035v4.759c0 .193.083.306.259.306.431 0 .495-.58.735-.58.08 0 .144.08.144.145 0 .16-.543 1.335-2.254 1.335-1.04 0-1.503-.386-1.695-1.03-.863.692-1.614 1.03-2.414 1.03-1.343 0-1.887-.772-1.887-1.464 0-1.254.85-1.77 4.112-2.928v-2.554zm0 2.892c-.991.402-1.202.869-1.202 1.593 0 1.062.24 1.464.655 1.464.272 0 .403-.193.547-.338v-2.719zM38.777 26c2.319 0 3.47 1.424 3.47 2.47 0 .916-.544 1.335-1.247 1.335-.656 0-1.215-.467-1.215-1.335 0-.515.096-1.046.096-1.368 0-.53-.608-.772-1.088-.772-.767 0-1.374 1.03-1.374 2.252 0 2.156 1.567 3.552 2.781 3.552 1.631 0 1.551-1.046 1.903-1.046.112 0 .144.065.144.161 0 .419-.79 2.751-3.59 2.751-2.097 0-3.829-1.67-3.829-4.018 0-2.3 1.63-3.982 3.949-3.982zM46 33.019c0 .788.82.482.82.82 0 .08-.032.161-.176.161h-4.221c-.144 0-.176-.08-.176-.16 0-.339.753-.033.753-.821v-9.121c0-.804-.817-.595-.817-.9 0-.37 1.067.048 3.817-.998v11.019zm.436-3.201c1.439-1.24 1.79-2 1.79-2.547 0-1.11-.927-.804-.927-1.159 0-.112.08-.144.224-.144.304 0 .96.032 1.615.032.784 0 1.343-.032 1.663-.032.191 0 .256.064.256.16 0 .322-1.104-.015-2.67 1.738l2.558 5.201c.463.805 1.055.434 1.055.805 0 .128-.08.128-.4.128h-3.965c-.16 0-.256 0-.256-.145 0-.257.544-.096.544-.563 0-.24-.16-.53-.304-.82l-1.183-2.655zM33.82 25.332c.034.097.177.072.176-.031l-.022-2.248c0-.002 0-.012-.005-.022a.054.054 0 00-.05-.03c-1.949.016-3.69.032-5.734.032-1.168 0-2.079-.033-2.702-.033-.177 0-.24.048-.24.194 0 .514 1.756-.097 1.756 1.029v1.043c0 .1.099.173.192.138.28-.105.58-.162.894-.162.725 0 1.186.304 1.67.798.09.092.246.025.246-.105v-2.398c0-.083.066-.15.149-.146 1.177.04 2.422.154 3.216 1.117.25.303.375.6.454.824zM26.255 34c-.145 0-.177-.08-.177-.16 0-.339.922-.033.922-.821v-5.016c0-.708-.49-.965-.874-.965-.416 0-.79.305-1.126.627v5.354c0 .788.727.482.727.82 0 .08-.032.161-.176.161h-4.093c-.144 0-.176-.08-.176-.16 0-.339.718-.033.718-.821v-5.096c0-1.094-.846-.901-.846-1.207 0-.257 1.08-.008 3.846-.716v1.15c1.12-.868 1.686-1.15 2.566-1.15 1.599 0 2.436 1.038 2.436 2.437v4.582c0 .42.263.529.508.59.97.066 2.257-.975 2.873-1.728.248-.305.372-.603.45-.827.034-.098.167-.072.167.03v2.863c0 .002 0 .012-.005.022a.054.054 0 01-.05.031h-7.69z" fill="#fff"/><path d="M32.69 29.95c.027.195.027.379.175.379.08 0 .134-.025.134-.16v-4.01c0-.135-.054-.159-.134-.159-.148 0-.148.183-.175.379-.103.733-.76 1.359-1.647 1.523-.033.006-.049.034-.046.065.01.12.015.166.027.26.003.023.021.04.046.046.852.176 1.496.805 1.62 1.676z" fill="#fff"/></svg>