<!-- by TradingView --><svg width="56" height="56" fill="none" xmlns="http://www.w3.org/2000/svg"><path fill="#F0F3FA" d="M0 0h56v56H0z"/><path fill-rule="evenodd" clip-rule="evenodd" d="M4 24v8h1.5v-8H4zm46.5 0v8H52v-8h-1.5zm-3 8v-8H49v8h-1.5zm-39-6H7v5.999h1.5v-2.851l-.001-.276c-.003-.422-.005-.733.063-.934.162-.487.695-.752 1.167-.752.335 0 .612.159.72.492.051.156.051.493.051 1.009V31.999H12V29.18c0-.119-.001-.232-.003-.34-.004-.389-.008-.695.058-.896.143-.445.57-.758 1.164-.758.385 0 .604.208.703.491.086.246.082.548.08.822l-.002.146V32h1.5v-3.752c0-1.216-.503-2.248-1.85-2.248-.667 0-1.256.308-1.766.934-.35-.625-.892-.934-1.636-.934-.698 0-1.243.312-1.748.934V26zm22.1 6v-1.01c-.2.313-.413.56-.74.74-.326.18-.67.27-1.032.27-.37 0-.7-.086-.994-.26a1.506 1.506 0 01-.637-.73c-.131-.313-.197-.746-.197-1.298V26h1.5v2.697c0 .176 0 .346-.002.506v.001c-.003.586-.005 1.035.037 1.18.108.373.394.616.83.616.584 0 .956-.323 1.135-.86V26H32v6h-1.4zm9.4-2.496l-1.573-.48c-.135.567-.358.982-.67 1.247-.31.264-.68.429-1.112.429-.585 0-1.06-.24-1.426-.656-.365-.415-.719-1.081-.719-2.06 0-.922.269-1.635.64-2.047.372-.41.96-.637 1.56-.637.493 0 .776.151 1.078.383.3.232.5.549.594.95L40 26.264c-.183-.62-.48-1.095-.844-1.425-.614-.56-1.413-.839-2.396-.839-1.125 0-2.033.357-2.724 1.067-.69.713-1.036 1.713-1.036 3 0 1.218.343 2.178 1.03 2.88.687.701 1.565 1.053 2.632 1.053.862 0 1.574-.204 2.135-.615.56-.409.962-1.037 1.203-1.88zm4.618.539l1.562.254c-.2.555-.518.978-.952 1.268-.433.29-.975.435-1.626.435-1.031 0-1.793-.326-2.289-.978-.39-.522-.586-1.182-.586-1.979 0-.95.257-1.696.77-2.235.512-.539 1.162-.808 1.948-.808.882 0 1.578.282 2.087.846.51.565.754 1.428.731 2.592h-4.036c.01.45.244.8.486 1.05.241.25.543.376.904.376a.987.987 0 00.62-.194c.169-.13.295-.339.38-.627zm.148-1.534c-.01-.44-.16-.804-.383-1.032-.223-.229-.446-.314-.883-.314-.343 0-.666.121-.89.363-.223.24-.387.569-.383.984h2.48l.059-.002zM18.5 26H17v5.999h1.5v-2.851l-.001-.276c-.003-.422-.005-.733.064-.934.161-.487.694-.752 1.166-.752.335 0 .611.159.72.492.051.156.051.493.051 1.009V31.999H22V29.18c0-.119-.001-.232-.003-.34-.004-.389-.008-.695.058-.896.143-.445.57-.758 1.164-.758.385 0 .604.208.703.491.086.246.082.548.08.822l-.002.146V32h1.5v-3.752c0-1.216-.503-2.248-1.85-2.248-.667 0-1.256.308-1.766.934-.35-.625-.892-.934-1.636-.934-.698 0-1.243.312-1.748.934V26z" fill="#828282"/></svg>