<!-- by TradingView --><svg width="56" height="56" viewBox="0 0 56 56" xmlns="http://www.w3.org/2000/svg"><path fill="#F0F3FA" d="M0 0h56v56H0z"/><path d="M43.56 21.18c-1.12 1.4-3.22 4-7.19 5.9-2.3 1.09-5.05 1.16-7.65 1.22h-.2c-2.6.06-5.1.11-7.32.93-3.66 1.33-6.41 4.6-7.31 6.05l-1.45-.87c1-1.63 4.02-5.24 8.17-6.75 2.5-.91 5.25-.97 7.76-1.02h.31c2.68-.07 5.04-.16 6.95-1.07a17.92 17.92 0 0 0 6.6-5.43l.33-.4 1.32 1.05-.32.39Z" fill="url(#aoysnysad)"/><path fill-rule="evenodd" d="M36.25 26.82a19.33 19.33 0 0 0 7.1-5.81l.13-.18-.88-.7-.14.18a18.2 18.2 0 0 1-6.7 5.51c-1.98.94-4.4 1.03-7.07 1.09h-.31c-2.53.06-5.23.12-7.67 1.01-3.88 1.42-6.76 4.71-7.88 6.4l.97.58c1.04-1.58 3.75-4.64 7.3-5.94 2.27-.82 4.8-.88 7.39-.93h.23c2.6-.07 5.29-.15 7.53-1.2Zm-22.36 8.46c.9-1.46 3.65-4.72 7.3-6.05 2.23-.82 4.73-.87 7.33-.93h.2c2.6-.06 5.35-.13 7.65-1.23 3.97-1.88 6.07-4.5 7.2-5.89l.31-.4-1.32-1.04a27.2 27.2 0 0 0-.33.4 17.8 17.8 0 0 1-6.6 5.43c-1.91.9-4.27 1-6.95 1.06h-.3c-2.52.06-5.27.12-7.77 1.03-3.96 1.45-6.89 4.8-8.02 6.51l-.15.24 1.45.87Z" fill="url(#boysnysad)"/><path d="M23 19h1v5h-1v-5Zm6 .16c-.32-.1-.67-.16-1.03-.16-2.01 0-2.97 1.12-2.97 2.5s.96 2.5 2.97 2.5c.36 0 .7-.05 1.03-.16v-.78c-.28.12-.6.19-.93.19-1.4 0-2.07-.79-2.07-1.75s.67-1.75 2.07-1.75c.34 0 .65.07.93.19v-.78Zm2.97-.16c.36 0 .7.05 1.03.16v.78c-.28-.12-.6-.19-.93-.19-1.4 0-2.07.79-2.07 1.75s.67 1.75 2.07 1.75c.34 0 .65-.07.93-.19v.78c-.32.1-.67.16-1.03.16-2.01 0-2.97-1.12-2.97-2.5s.96-2.5 2.97-2.5Z"/><path fill-rule="evenodd" d="M18.6 14a6.64 6.64 0 0 0-6.6 6.67v14.66A6.64 6.64 0 0 0 18.6 42h18.8c3.65 0 6.6-2.99 6.6-6.67V20.67A6.64 6.64 0 0 0 37.4 14H18.6Zm-.18 2A4.4 4.4 0 0 0 14 20.38v15.24A4.4 4.4 0 0 0 18.42 40h19.16A4.4 4.4 0 0 0 42 35.62V20.38A4.4 4.4 0 0 0 37.58 16H18.42Z" fill="url(#coysnysad)"/><path d="M13 21.67A6.65 6.65 0 0 1 19.63 15h16.74A6.65 6.65 0 0 1 43 21.67v12.66A6.65 6.65 0 0 1 36.37 41H19.63A6.65 6.65 0 0 1 13 34.33V21.67Zm6.63-6.2a6.19 6.19 0 0 0-6.16 6.2v12.66c0 3.42 2.76 6.2 6.16 6.2h16.74c3.4 0 6.16-2.78 6.16-6.2V21.67c0-3.42-2.76-6.2-6.16-6.2H19.63Z" fill="url(#doysnysad)"/><path fill-rule="evenodd" d="M17 38v-4h.5v1.57H19V34h.5v4H19v-2h-1.5v2H17Zm7-4v4h2v-.5h-1.5V34H24Zm6 0h-.5v4h.5v-4Zm-6.5 2c0 1.1-.67 2-1.5 2s-1.5-.9-1.5-2 .67-2 1.5-2 1.5.9 1.5 2Zm-.5 0c0 .83-.45 1.5-1 1.5s-1-.67-1-1.5.45-1.5 1-1.5 1 .67 1 1.5Zm3.5-2h.92c.87 0 1.58.9 1.58 2s-.7 2-1.58 2h-.92v-4Zm.5.5h.43c.6 0 1.07.67 1.07 1.5s-.48 1.5-1.07 1.5H27v-3Zm4.5 3.5H31v-4h.5v.07l2 2.93v-3h.5v4h-.5v-.04c-.15-.25-1.28-1.9-2-2.94V38Zm5.4-4-.08.5h-.75c-.6 0-1.07.67-1.07 1.5s.48 1.5 1.07 1.5h.43V36h.5v2h-.92c-.87 0-1.58-.9-1.58-2s.7-2 1.58-2h.83Zm2.95.57.11-.46a5.5 5.5 0 0 0-.8-.07c-.35 0-1.13.06-1.13.98 0 .74.49.97.9 1.16l.26.13c.42.24.59.42.59.75 0 .32-.32.52-.89.52-.45 0-.71-.14-.78-.2l-.12.5c.13.04.5.12.9.12.51 0 1.28-.18 1.28-1.1 0-.73-.69-1.12-1.03-1.23-.24-.06-.7-.28-.7-.71 0-.43.5-.55.75-.56.13 0 .43.02.66.17Z"/><defs><linearGradient id="aoysnysad" x1="15.22" y1="32.55" x2="40.15" y2="19.16" gradientUnits="userSpaceOnUse"><stop stop-color="#B3B4B4"/><stop offset=".5" stop-color="#838484"/><stop offset=".7" stop-color="#C2C2C2"/><stop offset="1" stop-color="#90908F"/></linearGradient><linearGradient id="boysnysad" x1="15.22" y1="32.55" x2="40.15" y2="19.16" gradientUnits="userSpaceOnUse"><stop stop-color="#B3B4B4"/><stop offset=".7" stop-color="#C2C2C2"/></linearGradient><linearGradient id="coysnysad" x1="41.35" y1="15.42" x2="27.75" y2="41.87" gradientUnits="userSpaceOnUse"><stop offset=".02" stop-color="#9F663F"/><stop offset=".19" stop-color="#825332"/><stop offset=".49" stop-color="#E39460"/><stop offset="1" stop-color="#8E5B39"/></linearGradient><linearGradient id="doysnysad" x1="28" y1="15" x2="28" y2="41" gradientUnits="userSpaceOnUse"><stop stop-color="#AD6942"/><stop offset=".27" stop-color="#663B1E"/><stop offset=".79" stop-color="#693D20"/><stop offset="1" stop-color="#A6653E"/></linearGradient></defs></svg>