<!-- by TradingView --><svg xmlns="http://www.w3.org/2000/svg" width="56" height="56" viewBox="0 0 56 56"><path fill="url(#ajnwlnghp)" d="M0 0h56v56H0z"/><path d="M5.97 22.59a.8.8 0 1 0 0-1.59.8.8 0 0 0 0 1.59Zm-1.73 4.63c-.18.17-.43.64 0 1.17.42.53 3.74 4 5.35 5.68.37.38 1.1.97 2.05.93 1.19-.05 1.56-1.17 1.45-1.95-.1-.7-.5-3.15-3.5-7.24-2.4-3.27-2.82-3.41-2.74-3.08.84.97 2.84 3.53 4.15 6 1.62 3.1 1.06 4.08 0 4.08-1.07 0-2.62-1.51-5.61-5.41-.17-.2-.64-.51-1.15-.18ZM15 24h.7v7H15zM22.33 29.8a2.97 2.97 0 0 1-2.42 1.2c-1.6 0-2.91-1.22-2.91-2.73 0-1.5 1.3-2.72 2.91-2.72 1.02 0 1.91.48 2.43 1.22l-.56.37a2.26 2.26 0 0 0-1.87-.95c-1.23 0-2.22.93-2.22 2.08s1 2.09 2.22 2.09c.78 0 1.46-.38 1.86-.94l.56.37ZM26.06 31c1.11 0 2.07-.64 2.52-1.56l-.6-.26a2.13 2.13 0 0 1-1.92 1.18 2.1 2.1 0 0 1-2.13-2.09h4.91c0-1.5-1.25-2.72-2.78-2.72a2.76 2.76 0 0 0-2.79 2.72c0 1.5 1.25 2.73 2.79 2.73Zm2.04-3.31h-4.08a2.12 2.12 0 0 1 2.04-1.5c.96 0 1.78.63 2.04 1.5ZM49.22 31c1.1 0 2.07-.64 2.51-1.56l-.6-.26a2.13 2.13 0 0 1-1.91 1.18 2.1 2.1 0 0 1-2.13-2.09H52c0-1.5-1.25-2.72-2.78-2.72a2.76 2.76 0 0 0-2.79 2.72c0 1.5 1.25 2.73 2.79 2.73Zm2.04-3.31h-4.09a2.12 2.12 0 0 1 2.05-1.5c.96 0 1.78.63 2.04 1.5ZM36.66 29.7c-.73.8-1.8 1.3-3 1.3-2.19 0-3.96-1.66-3.96-3.7s1.77-3.7 3.95-3.7c1.27 0 2.4.56 3.12 1.43l-.55.49a3.27 3.27 0 0 0-2.6-1.27 3.14 3.14 0 0 0-3.22 3.05 3.14 3.14 0 0 0 3.22 3.05c1.03 0 1.94-.46 2.53-1.18l.5.53ZM38.53 25.67h-.7v3.03a2.3 2.3 0 0 0 4.59 0v-3.03h-.7v3.12a1.6 1.6 0 1 1-3.2 0v-3.12ZM44.3 27.71V31h-.7v-5.31h.7v.7c.8-1.04 1.63-.84 1.95-.6l-.3.46c-1.07-.17-1.5.84-1.65 1.46Z" fill="#fff"/><defs><linearGradient id="ajnwlnghp" x1="28" y1="0" x2="28" y2="56" gradientUnits="userSpaceOnUse"><stop stop-color="#2C7093"/><stop offset=".49" stop-color="#4ABBDF"/><stop offset="1" stop-color="#2C7093"/></linearGradient></defs></svg>