<!-- by TradingView --><svg width="56" height="56" viewBox="0 0 56 56" xmlns="http://www.w3.org/2000/svg"><path fill="#F0F3FA" d="M0 0h56v56H0z"/><path d="M11 29.12c0 4.87 3.33 9.34 5 10.97 1.35.83 4.69 2.5 7.3 2.5 2.62 0 4.23-2.49 4.7-3.73-1.33-1.73-4-6.41-4-11.29 0-4.87 2.67-8.99 4-10.44l-.28-1.83c-2.57-1.1-8.45-2.55-11.41.38C12.6 19.33 11 23.03 11 29.12Z" fill="url(#aw0oho4v5)"/><path d="M45 29.12c0 4.87-3.33 9.34-5 10.97-1.35.83-4.69 2.5-7.3 2.5-2.62 0-4.23-2.49-4.7-3.73 1.33-1.73 4-6.41 4-11.29 0-4.87-2.67-8.99-4-10.44l.28-1.83c2.57-1.1 8.45-2.55 11.41.38C43.4 19.33 45 23.03 45 29.12Z" fill="url(#bw0oho4v5)"/><path d="M21.17 14.41a8.5 8.5 0 0 0-6.1 2.66C16.44 15.05 20.9 11 27.98 11s11.57 4.05 12.94 6.07a8.9 8.9 0 0 0-5.97-2.66c-3.63 0-6.16 1.78-6.97 2.66-1-.88-3.75-2.66-6.8-2.66Z" fill="url(#cw0oho4v5)"/><path d="M21.17 41.59a8.5 8.5 0 0 1-6.1-2.66C16.44 40.95 20.9 45 27.98 45s11.57-4.05 12.94-6.07a8.89 8.89 0 0 1-5.97 2.66c-3.63 0-6.16-1.78-6.97-2.66-1 .88-3.75 2.66-6.8 2.66Z" fill="url(#dw0oho4v5)"/><g opacity=".3" fill="#fff"><ellipse opacity=".2" cx="39.93" cy="28.03" rx="5.07" ry="5.06"/><ellipse opacity=".2" cx="40.93" cy="28.03" rx="3.77" ry="3.76"/><ellipse opacity=".2" cx="41.83" cy="28.03" rx="2.87" ry="2.86"/><circle opacity=".2" cx="41.83" cy="28.03" r="1.61"/></g><defs><linearGradient id="aw0oho4v5" x1="19.5" y1="13.96" x2="19.5" y2="42.58" gradientUnits="userSpaceOnUse"><stop stop-color="#4F701F"/><stop offset=".47" stop-color="#A9C554"/><stop offset="1" stop-color="#51731F"/></linearGradient><linearGradient id="bw0oho4v5" x1="28.33" y1="28.84" x2="41.57" y2="29.92" gradientUnits="userSpaceOnUse"><stop stop-color="#373938"/><stop offset="1" stop-color="#636466"/></linearGradient><linearGradient id="cw0oho4v5" x1="23.49" y1="11.51" x2="27.98" y2="18.26" gradientUnits="userSpaceOnUse"><stop stop-color="#85BB43"/><stop offset="1" stop-color="#2E4E0D"/></linearGradient><linearGradient id="dw0oho4v5" x1="27.29" y1="46.4" x2="30.19" y2="39.98" gradientUnits="userSpaceOnUse"><stop stop-color="#77B23C"/><stop offset="1" stop-color="#2D4E07"/></linearGradient></defs></svg>