<!-- by TradingView --><svg width="56" height="56" viewBox="0 0 56 56" xmlns="http://www.w3.org/2000/svg"><path fill="#F0F3FA" d="M0 0h56v56H0z"/><path d="M26.75 10.2c-.91.32-7.7 4.26-7.5 4.34l1.53.52a22.68 22.68 0 0 1 8.82 5.56c.98 1 1.49 1.63 2.61 3.28.5.72.97 1.38 1.06 1.48.16.16.22.17 1.02.12a15 15 0 0 1 4.63.62 16.53 16.53 0 0 1 4.6 2.5l.48.35-.02-4.41-.03-4.41-.18-.47a5.07 5.07 0 0 0-1.05-1.64c-.35-.37-2.41-1.6-6.4-3.86-1.35-.77-3.25-1.88-4.21-2.47a60.65 60.65 0 0 0-2.21-1.3 4.44 4.44 0 0 0-3.15-.22Z" fill="url(#avcb5ydgm)"/><path d="M34.27 27.25c-.02.06.15.56.38 1.12.53 1.26.63 1.55.95 2.83.96 3.79 1.06 6.67.38 10.56-.04.2.08.15 1.9-.94l3.18-1.87c1.45-.84 1.96-1.3 2.41-2.16.44-.86.53-1.36.53-3.42v-1.79l-.23-.3a13.8 13.8 0 0 0-2.2-2.02c-1.1-.8-2.44-1.41-3.78-1.73-1.5-.35-3.43-.5-3.52-.28Z" fill="url(#bvcb5ydgm)"/><path d="M15.23 16.77c-1.51.8-2.32 1.5-2.76 2.38-.48.97-.47.76-.47 8.74 0 7.99 0 7.85.48 8.86.29.6 1.07 1.45 1.62 1.77a1516.26 1516.26 0 0 1 7.41 4.32l.34.2-.04-.2a18.8 18.8 0 0 1-.45-4.99c0-.08-.23-.37-.5-.65a3.62 3.62 0 0 1-.77-1.04c-.23-.5-.25-.6-.25-1.36 0-.77.02-.87.24-1.35a3.24 3.24 0 0 1 2.59-1.86c1.03-.07.95-.03 1.73-1.01 1.33-1.69 2.4-2.54 4.7-3.72l1.55-.8-.41-.6c-.74-1.08-1.4-1.9-2.44-2.95a19.28 19.28 0 0 0-8.82-5.3c-.94-.25-3.02-.73-3.15-.73-.03 0-.3.13-.6.29Zm15.58 11.1c-1.3.47-2.8 1.41-3.97 2.48a11.2 11.2 0 0 0-1.63 1.9c-.02.05.09.25.25.42 1.11 1.25 1 3.3-.23 4.48-.49.47-.92.69-1.63.84-.57.11-.58.12-.59 1.35-.02 1.45.54 3.94 1.08 4.79.24.38.9.82 2.11 1.4.9.42 1.28.5 2.11.46.7-.03.73-.05 1.74-.56 1.6-.82 2.55-1.45 2.76-1.84a19.27 19.27 0 0 0 1-6.47c0-2.16-.04-2.54-.52-4.77-.33-1.52-1.36-4.31-1.68-4.56-.17-.13-.21-.13-.8.08Z" fill="url(#cvcb5ydgm)"/><defs><linearGradient id="avcb5ydgm" x1="43.01" y1="25.97" x2="19.48" y2="8.74" gradientUnits="userSpaceOnUse"><stop offset=".32" stop-color="#0050A4"/><stop offset="1" stop-color="#0071BF"/></linearGradient><linearGradient id="bvcb5ydgm" x1="46.71" y1="32.99" x2="39.03" y2="41.77" gradientUnits="userSpaceOnUse"><stop offset=".11" stop-color="#0E6EA4"/><stop offset=".84" stop-color="#2EB6AA"/></linearGradient><linearGradient id="cvcb5ydgm" x1="12" y1="21.25" x2="31.39" y2="32.58" gradientUnits="userSpaceOnUse"><stop offset=".13" stop-color="#0075C2"/><stop offset=".66" stop-color="#53C2F1"/><stop offset="1" stop-color="#29AFA7"/></linearGradient></defs></svg>