<!-- by TradingView --><svg xmlns="http://www.w3.org/2000/svg" width="56" height="56"><path fill="#F0F3FA" d="M0 0h56v56H0z"/><path d="M23.6 43.72l-.16-.05-10.6-5.4c-1.12-.58-1.12-1.57 0-2.14l13.1-6.7c1.12-.57 3-.57 4.12 0l12.44 6.34.66.31c1.12.57 1.12 1.56 0 2.13l-10.4 5.35-.25.1c-3.36 1.93-5.55 1.62-8.92.06z" fill="#CCC"/><path d="M40.56 14.65l.56.3c1.01.5 1.01 1.3 0 1.8l-9.14 4.52-.2.1a3.4 3.4 0 00-1.78 2.9V37.3c0 1.1.92 1.6 1.93 1.1l9.24-4.66a3.56 3.56 0 001.83-2.9V17.8s0-1.93-1.78-2.9m-26.42 0c-1 .5-1 1.3 0 1.8l9.23 4.57.15.05c1.01.5 1.82 1.8 1.82 2.9V37.2c0 1.1-.81 1.6-1.82 1.1l-9.32-4.6A3.59 3.59 0 0113 30.78V17.76s-.14-1.78 1.6-2.76m11.95 2.61l-3.62-1.73c-.4-.19-.4-.48 0-.67l4.43-2.07a1.7 1.7 0 011.38 0l4.23 1.97.2.1c.41.2.41.48 0 .67l-3.51 1.68c-1.12.63-2 .53-3.11.05z" fill="#E73B29"/></svg>