<!-- by TradingView --><svg width="56" height="56" xmlns="http://www.w3.org/2000/svg"><path fill="#138375" d="M0 0h56v56H0z"/><ellipse cx="10.367" cy="27.5" rx="6.367" ry="6.5" fill="#fff"/><ellipse cx="22.305" cy="27.5" rx="6.367" ry="6.5" fill="#fff"/><ellipse cx="34.4" cy="27.5" rx="6.367" ry="6.5" fill="#fff"/><ellipse cx="45.633" cy="27.5" rx="6.367" ry="6.5" fill="#fff"/><path d="M34.4 29.537c-1.24-.002-2.122-.873-2.124-2.077.002-1.204.884-2.114 2.124-2.117 1.238.003 2.131.913 2.133 2.117-.002 1.203-.895 2.075-2.133 2.077zm0-5.861c-2.151 0-3.896 1.694-3.896 3.784s1.744 3.783 3.896 3.783c2.15 0 3.895-1.694 3.895-3.783 0-2.09-1.746-3.784-3.895-3.784zM42 31v-6.465c.002-.546.42-.836.937-.837.248.004.593.154.762.361L47 27.604v-3.069c0-.546.438-.869.955-.87.517.001 1.044.324 1.045.87v5.85c-.001.545-.483.804-1 .804-.249-.003-.537-.096-.715-.3L44 27.416V31h-2zM25.062 29.288a.834.834 0 00-.69-.367.875.875 0 00-.447.137c-.4.348-.928.479-1.505.479-1.24-.002-2.13-.895-2.132-2.099.002-1.203.892-2.073 2.133-2.075.83 0 1.68.404 2.067 1.05l1.163-1.05-.082-.108a3.926 3.926 0 00-3.148-1.558c-2.151 0-3.896 1.694-3.896 3.784s1.745 3.783 3.896 3.783c.927 0 1.783-.314 2.455-.841a.775.775 0 00.224-1.078l-.038-.057zM10.541 24h-.082c-.53 0-.959.36-.959.806V31h2v-6.194c0-.445-.43-.806-.959-.806z" fill="#008579"/></svg>