<!-- by TradingView --><svg width="56" height="56" viewBox="0 0 56 56" xmlns="http://www.w3.org/2000/svg"><path fill="#284A72" d="M0 0h56v56H0z"/><path d="M5.17 25v6H4v-6h1.17ZM10.68 25v6H9.67l-2.4-3.76h-.05V31H6v-6h1.08l2.39 3.75h.05V25h1.16ZM12.57 25l1.33 4.52h.06L15.29 25h1.3l-1.9 6h-1.51l-1.91-6h1.3ZM17.18 31v-6H21v1.1h-2.65v1.39h2.36v1.02h-2.36v1.39H21V31h-3.82ZM24.76 26.76a.73.73 0 0 0-.28-.54c-.16-.12-.39-.19-.67-.19-.19 0-.35.03-.48.09a.68.68 0 0 0-.3.23c-.07.1-.1.2-.1.33 0 .1.01.2.06.28.04.08.1.14.19.2.08.06.17.1.28.15.1.04.22.07.34.1l.5.12c.24.06.46.14.66.23.2.1.38.21.52.35.15.14.27.3.35.5.08.18.12.4.12.64 0 .36-.08.67-.26.93-.16.26-.41.46-.73.6-.32.15-.7.22-1.15.22a2.9 2.9 0 0 1-1.17-.22 1.73 1.73 0 0 1-.77-.64 2.05 2.05 0 0 1-.29-1.14h1.13c.01.2.07.44.16.57.1.13.22.23.38.3.16.06.34.1.54.1s.37-.04.52-.1a.8.8 0 0 0 .34-.25.6.6 0 0 0 .12-.37.5.5 0 0 0-.1-.33.84.84 0 0 0-.33-.23c-.13-.06-.3-.12-.5-.17l-.6-.16c-.47-.12-.84-.3-1.11-.56-.27-.26-.4-.6-.4-1.03 0-.36.08-.66.26-.93.19-.26.43-.47.75-.62.32-.15.68-.22 1.08-.22.41 0 .77.07 1.08.22a1.7 1.7 0 0 1 .98 1.54h-1.12ZM26.45 26v-1H31v1h-1.7v5h-1.15v-5h-1.7ZM36.3 27h-1.2a1.16 1.16 0 0 0-.74-.84 1.32 1.32 0 0 0-.44-.07c-.29 0-.54.08-.75.23-.21.15-.38.36-.5.65A2.7 2.7 0 0 0 32.5 28c0 .41.06.76.18 1.05a1.28 1.28 0 0 0 1.23.86c.16 0 .3-.03.44-.07a1.12 1.12 0 0 0 .76-.84h1.18a2.34 2.34 0 0 1-2.4 2 2.46 2.46 0 0 1-2.24-1.38 3.6 3.6 0 0 1-.33-1.62c0-.64.11-1.18.34-1.63A2.45 2.45 0 0 1 33.89 25c.32 0 .62.05.9.14a2.3 2.3 0 0 1 1.5 1.86ZM42.13 28c0 .64-.11 1.18-.34 1.62A2.46 2.46 0 0 1 39.55 31a2.46 2.46 0 0 1-2.25-1.38 3.55 3.55 0 0 1-.34-1.62c0-.64.11-1.18.34-1.63A2.44 2.44 0 0 1 39.55 25a2.44 2.44 0 0 1 2.25 1.37c.22.45.33 1 .33 1.63Zm-1.18 0c0-.41-.06-.76-.18-1.04a1.26 1.26 0 0 0-1.23-.86 1.26 1.26 0 0 0-1.23.86c-.11.28-.17.63-.17 1.04 0 .41.06.76.17 1.04.12.28.29.5.5.65.2.14.45.22.74.22.28 0 .52-.08.74-.22.2-.15.37-.37.48-.65.12-.28.18-.63.18-1.04ZM42.8 31v-6h2.3c.42 0 .78.16 1.07.32.3.15.53.37.68.66.16.29.24.62.24 1a2 2 0 0 1-.24 1c-.16.28-.39.5-.69.65-.3.14-.66.22-1.08.22h-1.46v-1h1.27c.22 0 .4-.03.55-.1a.67.67 0 0 0 .33-.28.96.96 0 0 0 .11-.48 1 1 0 0 0-.1-.5.7.7 0 0 0-.34-.3 1.3 1.3 0 0 0-.56-.1H44V31h-1.2Zm3.11-2.74L47.28 31H46l-1.34-2.74h1.26ZM47.84 31v-6h2.18A2 2 0 0 1 52 27.06c0 1.16-.84 1.94-2.01 1.94h-1.4v-1h1.21c.69 0 1-.37 1-.94 0-.55-.43-1.06-1-1.06H49v5h-1.16Z" fill="#fff"/></svg>