<!-- by TradingView --><svg width="56" height="56" xmlns="http://www.w3.org/2000/svg"><path fill="#0071BB" d="M0 0h56v56H0z"/><path d="M17 32.871s-.155.129-.832.129C13.84 33 12 31.697 12 28.846V18h4v10.2c0 .56.134.883 1 .883v3.788zM25.95 29.29c1.235 0 2.123-.17 3.05-.567v3.56c-.927.452-1.955.717-3.498.717C20.308 33 18 30.333 18 25.528c0-4.806 2.308-7.463 7.502-7.463 1.543 0 2.57.255 3.498.708v3.548c-.927-.396-1.815-.556-3.05-.556-1.852 0-3.95 1.077-3.95 3.763 0 2.685 2.098 3.761 3.95 3.761zM41.365 33l-.548-1.462C39.279 32.526 37.55 33 36.04 33 32.309 33 31 30.9 31 28.112V18h4v9.415c0 1.074.986 1.8 2.166 1.8 1.07 0 2.423-.464 2.834-.754V18h4v15h-2.635zM15.323 38.766c0-1.192-.386-1.386-1.214-1.386-.73 0-1.259.18-1.756.568V44H12v-7h.165l.155.616c.486-.388 1.203-.616 1.789-.616.773 0 1.192.242 1.402.74.674-.526 1.37-.74 1.921-.74 1.193 0 1.568.56 1.568 1.808V44h-.353v-5.234c0-1.192-.386-1.386-1.215-1.386-.673 0-1.247.222-1.822.68.045.221.067.47.067.748V44h-.354v-5.234zM24.19 43.292v.37c-.475.206-1.279.338-1.936.338-2.02 0-2.52-1.45-2.52-3.494 0-2.045.5-3.506 2.52-3.506s2.24 1.488 2.24 3.506v.192h-4.383c.026 1.55.403 2.937 2.143 2.937.9 0 1.485-.178 1.935-.343zm-.062-2.979c0-1.495-.133-2.937-1.874-2.937-1.74 0-2.117 1.387-2.143 2.937h4.017zM29.636 37.824v-3.822h.367v10h-.16l-.171-.579c-.538.384-1.444.582-2.14.582-2.032 0-2.534-1.466-2.534-3.368s.502-3.367 2.533-3.367c.685 0 1.566.184 2.105.554zm0 5.27V38.18c-.552-.37-1.248-.554-2.105-.554-1.823 0-2.153 1.519-2.153 3.011 0 1.492.33 3.01 2.153 3.01.857 0 1.553-.183 2.105-.554zM32 44c-.697 0-1-.328-1-1.007V37h.395v5.966c0 .526.131.706.605.706V44zM35.177 37c.576 0 1.297.102 1.82.28v.37c-.484-.136-.982-.274-1.82-.274-1.952 0-2.306 1.51-2.306 3.13 0 1.62.354 3.13 2.306 3.13.838 0 1.336-.138 1.82-.276v.371c-.523.178-1.244.269-1.82.269-2.174 0-2.711-1.45-2.711-3.494 0-2.045.537-3.506 2.71-3.506zM38.014 37.665v-.371c.342-.137 1.037-.294 1.758-.294 1.866 0 2.232.857 2.232 2.202v4.8h-.183l-.17-.6c-.514.411-1.453.598-2.063.598-1.574 0-2.123-.996-2.123-2.094 0-1.043.439-1.963 2.135-2.087l2.014-.137v-.494c0-1.29-.366-1.812-1.842-1.812-.867 0-1.526.193-1.758.289zm1.44 2.54c-1.232.095-1.61.795-1.61 1.7 0 .81.28 1.73 1.769 1.73.768 0 1.463-.26 2-.631v-2.965l-2.16.165zM44 44c-.697 0-1-.318-1-.967V34h.395v9.007c0 .503.131.675.605.675v.319zM15.999 14a2 2 0 11-4 0 2 2 0 014 0z" fill="#F6F8FD"/></svg>