<!-- by TradingView --><svg width="56" height="56" viewBox="0 0 56 56" xmlns="http://www.w3.org/2000/svg"><path fill="#F0F3FA" d="M0 0h56v56H0z"/><path d="M37.01 18.73a5.63 5.63 0 0 1 8.12 0L49 22.7 28.99 43.27a5.63 5.63 0 0 1-8.12 0L17 39.3l20.01-20.57Z" fill="#FDAA08"/><path d="M20.95 43.24a5.61 5.61 0 0 0 8.16 0L33 39.2 21.05 26.76a5.61 5.61 0 0 0-8.16 0L9 30.8l11.95 12.44Z" fill="#0091FC"/><path d="m17.08 39.21 8.02-8.24 7.88 8.2-4 4.1a5.65 5.65 0 0 1-4 1.73 5.64 5.64 0 0 1-4.03-1.76l-3.87-4.03Z" fill="#F08519"/><path d="M30.1 24.1a6.5 6.5 0 1 1-9.2-9.2 6.5 6.5 0 0 1 9.2 9.2Z" fill="#0091FC"/></svg>