<!-- by TradingView --><svg width="56" height="56" viewBox="0 0 56 56" xmlns="http://www.w3.org/2000/svg"><path fill="#315B6F" d="M0 0h56v56H0z"/><path d="M14 17h-4v22h4V17ZM21 26v-5h9.13L32 17H17v13l2-4h2ZM21 30h-4v9h12.7l1.95-4H21v-5Z" fill="#fff"/><path d="M23.97 26 22 30h5.01L29 26h-5.03Z" fill="#BB1F40"/><path d="M32 35.13c2.49 2.18 4.55 3.76 8.5 3.87h.02c4.4 0 7.48-2.37 7.48-6.41v-.03c0-3.55-2.3-5.16-6.73-6.27h-.02C39.37 25.84 37 25.41 37 23c0-1.44.83-2 3-2 1.75 0 3.69-.02 6 1.96l1.38-3.28a11.49 11.49 0 0 0-7.6-2.68h-.01C36.02 17 33 19.08 33 22.96c0-.01 0 .01 0 0 0 4.08 3.02 5.8 6.6 6.67 1.84.43 4.4 1.04 4.4 3.37 0 1.93-1.8 1.98-3.5 2-3.02-.21-4.51-1.28-6.87-3.49L32 35.13Z" fill="#fff"/></svg>