<!-- by TradingView --><svg width="56" height="56" viewBox="0 0 56 56" xmlns="http://www.w3.org/2000/svg"><path fill="#F0F3FA" d="M0 0h56v56H0z"/><path d="M5.76 23.35c0 .5-.4.9-.88.9a.9.9 0 0 1-.88-.9c0-.5.4-.9.88-.9.49 0 .88.4.88.9ZM34 33h3v-8h-3v8ZM4 33h1.4v-8H4v8ZM17 26v-1h-1.58v-.51c0-.48.1-.8.28-.98.18-.16.45-.26.88-.26H17c.12.03.27.03.4.07l.2-1.18-.6-.1c-.24-.02-.48-.02-.7-.02-.6 0-1.06.1-1.4.31-.33.23-.57.51-.69.86-.1.25-.21.67-.21 1.17V25h-1v1h1v7h1.42v-7H17ZM12.45 25.93c-.2-.28-.51-.5-.9-.65a3.35 3.35 0 0 0-1.37-.28c-1.12 0-2 .44-2.58 1.3V25H6.35v8h1.37v-4.26c0-1 .21-1.69.64-2.06.42-.34.94-.53 1.51-.53.4 0 .7.1.98.25.27.16.45.38.57.62.12.28.15.69.15 1.22V33H13v-4.8c0-.62-.06-1.05-.12-1.3a2.15 2.15 0 0 0-.43-.97ZM48.6 30.37c-.27.28-.56.44-.95.44h-.03c-.35 0-.67-.16-.9-.44-.24-.32-.36-.79-.36-1.41 0-.7.12-1.2.35-1.48.24-.28.53-.43.89-.43h.05c.39.03.68.18.94.47.27.28.38.75.38 1.38 0 .65-.11 1.15-.38 1.47ZM49 22v3.76c-.3-.31-.67-.56-1.05-.72l-.3-.1c-.3-.09-.64-.15-1-.15-.96 0-2.18.51-2.87 1.79-.3.62-.44 1.34-.44 2.25a5.33 5.33 0 0 0 .85 2.98c.56.78 1.38 1.19 2.44 1.19 1.2 0 1.96-.5 2.37-1.2v1.2h3V22h-3ZM30.2 30.37a1.2 1.2 0 0 1-.89.44h-.03c-.38 0-.7-.16-.93-.44-.26-.32-.37-.82-.37-1.47 0-.63.11-1.1.37-1.38.24-.29.55-.44.93-.47h.06c.35 0 .63.15.87.43.23.29.34.76.34 1.38 0 .7-.11 1.2-.34 1.5Zm.06-5.58c-.34 0-.69.06-.98.16l-.26.09c-.38.16-.73.4-1.02.72V22h-3v11h3v-1.32c.69.87 1.1 1.32 2.26 1.32.64 0 1.19-.16 1.68-.47.5-.31.9-.82 1.19-1.47.26-.66.4-1.41.4-2.26 0-1.28-.29-2.29-.92-2.98a2.98 2.98 0 0 0-2.35-1.03ZM22.23 31.2c-.45.49-1.03.76-1.7.76h-.03a2.36 2.36 0 0 1-1.7-.73c-.45-.49-.7-1.22-.7-2.23 0-.98.25-1.71.7-2.2.46-.46 1.04-.7 1.7-.7h.03c.67 0 1.25.24 1.7.73.46.5.67 1.2.67 2.14 0 1-.21 1.74-.67 2.23Zm-1.7-6.2h-.03c-1 0-1.85.3-2.55.86-.24.2-.45.45-.63.73-.43.64-.61 1.43-.61 2.41 0 1 .18 1.8.6 2.44.13.19.28.37.43.55.73.67 1.64 1.01 2.76 1.01h.03c.7 0 1.37-.15 1.94-.46.61-.3 1.07-.73 1.4-1.31.3-.55.46-1.34.46-2.32 0-1.22-.34-2.17-1.07-2.87A3.85 3.85 0 0 0 20.53 25ZM44.06 25.44c-.14-.1-.28-.16-.42-.22a3.2 3.2 0 0 0-1-.22c-1.07 0-1.64.7-1.64 1.06V25h-3v8h3v-2.61c0-1.25.12-2.12.43-2.56.2-.34.49-.5.9-.5.16 0 .39.05.65.16.16-.84.55-1.57 1.08-2.05Z" fill="#2B41A1"/><path d="M34 24h3v-2h-3v2Z" fill="#FF7B00"/></svg>