<!-- by TradingView --><svg xmlns="http://www.w3.org/2000/svg" width="56" height="56" viewBox="0 0 56 56"><path fill="#F0F3FA" d="M0 0h56v56H0z"/><path fill-rule="evenodd" d="M25.12 33h-2.11l2.31-12h2.06l-2.26 12zm-7.73 0l1.9-9.9c.36-1 1.82-2.78 4.76-1.83L23.69 23c-.13-.14-.53-.4-1.1-.35-.72.08-1.2.13-1.58 2.36h1.88l-.3 1.5h-1.75l-1.3 6.5h-2.15zm-2.62-5.6c0-.53-.16-1.08-.71-1.08-.86 0-1.83 1.72-2.4 3.49L11.1 33H8.98l1.43-8h2.08l-.25 1.45c.57-.91 1.61-2.02 2.95-2.02 1.7 0 1.85 1.71 1.72 2.57h-.01l-.96 6h-2.12l.95-5.6zm-8.3-2.13L5 33h2.1l1.52-8.29c-.86.75-1.8.68-2.16.56zm28.4.3c-.33.95-1 5.4-1.3 7.43h-2.01l.17-1.98a6.22 6.22 0 0 1-1.93 1.82c-.97.47-4.4.2-2.42-4.7 1.58-3.94 5.66-3.35 7.5-2.57zm-5.35 2.67c.64-1.44 1.78-1.94 2.91-1.64 0 .71 0 1.4-.49 2.48-.24.52-1.28 2.28-2.03 2.21-.75-.07-1.18-1.26-.39-3.05z" fill="#87888A"/><path fill-rule="evenodd" d="M37.14 21L35 33h2.34l.86-4.62c.63 0 1.06.6 1.2.89L42.2 35h2.34l-.99-2h1.73l2.03-2.72L48.5 33H51l-2.1-4.84L52 24h-2.2l-1.72 2.28-.56-1.28H45l1.48 3.4-3.15 4.16L42.1 30a13.3 13.3 0 0 0-1.08-1.94l.04-.01c.52-.22 3.18-1.36 3.18-4.16 0-2.3-1.95-2.89-2.92-2.9h-4.17zm2.04 2l-.68 3.5h1.13c1.05 0 1.96-.67 2.2-1.62l.14-.63c.16-.64-.38-1.25-1.1-1.25h-1.69z"/><path d="M7.47 20.72l3-.72-.83 3.02a1.81 1.81 0 0 1-2.98.87c-1.09-1-.62-2.83.8-3.17z" fill="#E20030"/></svg>