<!-- by TradingView --><svg width="56" height="56" fill="none" xmlns="http://www.w3.org/2000/svg"><path fill="#DF2036" d="M0 0h56v56H0z"/><path fill-rule="evenodd" clip-rule="evenodd" d="M36.693 15.077a10.58 10.58 0 00-4.93 1.258A10.52 10.52 0 0028 19.745a10.297 10.297 0 00-5.099-4.101 10.356 10.356 0 00-6.553-.213c-2.15.641-4.03 1.962-5.356 3.763a10.22 10.22 0 00-1.992 6.215c0 3.596 2.308 6.199 4.692 8.571l9.185 8.801a.77.77 0 00.391.205c.469.09.725-.281.731-.74v-6.889C24 33.456 26.12 32 28 32s4 1.455 4 3.358v6.887c.007.465.27.83.732.74a.77.77 0 00.391-.204l9.185-8.801C44.692 31.608 47 29.005 47 25.409a10.21 10.21 0 00-.763-3.948 10.252 10.252 0 00-2.229-3.354 10.311 10.311 0 00-3.353-2.242 10.355 10.355 0 00-3.962-.788zM18.616 33.29a.692.692 0 01-.538.23.542.542 0 01-.462-.153c-3.076-2.755-4.615-5.587-4.615-8.419a8.232 8.232 0 01.98-3.71 8.278 8.278 0 012.559-2.871.695.695 0 01.922.23.687.687 0 01-.23.994 7.052 7.052 0 00-2.032 2.359 7.014 7.014 0 00-.814 2.998c0 2.45 1.384 4.898 4.153 7.347a.688.688 0 01.077.995zm3.482-2.372a6.752 6.752 0 01-2.346-2.302 6.71 6.71 0 01-.982-3.285 5.642 5.642 0 01.824-2.956 5.682 5.682 0 012.253-2.095.773.773 0 011 .306.761.761 0 01-.308.918c-.699.375-1.287.925-1.706 1.597a4.498 4.498 0 00-.678 2.23c.058.929.35 1.828.846 2.617a5.605 5.605 0 002 1.898c.872.618 0 1.601-.903 1.072zm11.672 0c-.693.38-1.593-.68-.693-1.301a5.372 5.372 0 001.984-1.894 5.337 5.337 0 00.785-2.622 4.27 4.27 0 00-.613-2.235 4.3 4.3 0 00-1.694-1.591.69.69 0 01-.308-.919.769.769 0 011-.306 5.757 5.757 0 012.242 2.102c.542.89.83 1.909.835 2.95a6.787 6.787 0 01-.988 3.378 6.83 6.83 0 01-2.55 2.438zm9.307-5.97c0 2.832-1.538 5.664-4.615 8.419a.617.617 0 01-.539.153.848.848 0 01-.538-.23.689.689 0 01.077-.995c2.769-2.449 4.153-4.898 4.153-7.347a6.784 6.784 0 00-.79-3.01 6.822 6.822 0 00-2.056-2.347.765.765 0 01-.23-.995.847.847 0 011-.23 8.508 8.508 0 012.534 2.884 8.462 8.462 0 011.004 3.698zM28 29a3.5 3.5 0 100-7 3.5 3.5 0 000 7z" fill="#fff"/></svg>