<!-- by TradingView --><svg xmlns="http://www.w3.org/2000/svg" width="56" height="56" viewBox="0 0 56 56"><path fill="#20416D" d="M0 0h56v56H0z"/><path d="M19 24h-5v2.99h1.4V34H14V37h6.5v-3H19V24ZM13.8 21.08l1.75 1.22 1.29-1.73 1.28 1.73 1.75-1.22-1.27-1.8 2.07-.66-.61-2.05-2.13.64V15h-2.2v2.2l-2.12-.63-.61 2.05 2.07.65-1.27 1.8ZM27.27 29c-1.2-.4-1.93-.71-1.93-1.24 0-.64.58-1.02 1.54-1.02.24 0 .49.03.73.07l.2 1.19h2.56v-3.47S29.1 24 26.89 24C23.92 24 22 25.56 22 27.98c0 2.56 2.15 3.28 3.72 3.8 1.19.4 1.92.66 1.92 1.26 0 .28 0 1.13-1.49 1.13-.4 0-.82-.05-1.21-.14l-.18-1.39H22v3.66s1.69.7 4.13.7c2.91 0 4.87-1.72 4.87-4.27 0-2.43-2.16-3.18-3.73-3.73M39.02 26.94c.39 0 .77.04 1.15.12l.22 1.45H43v-3.97S41.56 24 39.14 24C34.87 24 32 26.72 32 30.77c0 3.84 2.5 6.23 6.52 6.23 2.91 0 4.48-.82 4.48-.82V30h-5v2.03l2 .22v1.65c-.34.07-.83.1-1.18.1-2.15 0-3.35-1.2-3.35-3.44 0-2.27 1.33-3.62 3.54-3.62" fill="#fff"/></svg>