<!-- by TradingView --><svg xmlns="http://www.w3.org/2000/svg" width="56" height="56" viewBox="0 0 56 56"><path fill="#F0F3FA" d="M0 0h56v56H0z"/><path d="M5 32h1v-9H5v9zM8 23h1v1.77c.45-.6 1-1.04 1.55-1.33.55-.3 1.14-.44 1.78-.44 2.44 0 2.67 2.3 2.67 4.4V32h-1v-4.27c0-1.7.2-3.73-1.9-3.73a2.8 2.8 0 0 0-1.82.69c-.53.44-.89 1-1.06 1.65-.1.42-.22 1.2-.22 2.34V32H8v-9zM35 32h1v-9h-1v9zm3-9h1v1.48c.34-.5.89-.87 1.27-1.11.37-.25.77-.37 1.18-.37.3 0 .64.1 1 .3l-.6.86a1.6 1.6 0 0 0-.58-.16c-.38 0-.74.16-1.08.46-.35.3-1 .85-1.19 1.49V32h-1v-9z" fill="#031A39"/><path d="M16.87 32H16v-1h.87c1.24 0 2.15-.99 2.13-2.3v-2.34A3.32 3.32 0 0 1 22.4 23H24v1h-1.6c-1.23 0-2.44 1.05-2.4 2.36v2.35c.04 1.93-1.26 3.29-3.13 3.29z" fill="url(#a1jf2j1xi)"/><path d="M28.17 24.26A2.97 2.97 0 0 1 29.5 24a3.5 3.5 0 0 1 3.5 3.5v.08a3.5 3.5 0 0 1-7 0v-.04-.04c0-1.46.9-2.71 2.17-3.24zM26 23h-1v12h1v-4.63A4.38 4.38 0 0 0 29.51 32 4.46 4.46 0 0 0 34 27.51a4.5 4.5 0 0 0-8-2.82V23zM50 23h1v9h-1v-1.44C48.65 31.79 47.87 32 46.49 32A4.5 4.5 0 0 1 42 27.51 4.56 4.56 0 0 1 46.52 23c1.4 0 2.65.68 3.48 1.8V23zm-3.5 8a3.5 3.5 0 1 0 0-7 3.5 3.5 0 0 0 0 7z" fill="#031A39"/><defs><linearGradient id="a1jf2j1xi" x1="19.7" y1="23.22" x2="16.41" y2="31.87" gradientUnits="userSpaceOnUse"><stop stop-color="#DB0908"/><stop offset="1" stop-color="#031A39"/></linearGradient></defs></svg>