<!-- by TradingView --><svg xmlns="http://www.w3.org/2000/svg" width="56" height="56" viewBox="0 0 56 56"><path fill="#F0F3FA" d="M0 0h56v56H0z"/><path d="M45.43 29.06v-.44-.04a1.48 1.48 0 0 0-.08-2.39v-.16c0-.12-.04-.28-.04-.4.24-.36.36-.8.24-1.28a1.53 1.53 0 0 0-.65-.83c-.04-.12-.08-.24-.08-.36 0-.04 0-.08-.04-.12-.04-.12-.08-.2-.08-.32-.04-.08-.04-.16-.08-.2.16-.32.24-.71.12-1.07a1.5 1.5 0 0 0-.96-1v-.04c-.08-.12-.12-.24-.2-.4 0-.04-.04-.08-.04-.08.16-.44.08-1-.24-1.4-.24-.31-.6-.5-.96-.55-.08 0-.08-.04-.12-.08l-.24-.32c-.08-.12-.2-.24-.28-.36 0 0 0-.04-.04-.04.04-.35-.08-.71-.32-1.03a1.47 1.47 0 0 0-1.12-.56l-.24-.24-.16-.16a1.44 1.44 0 0 0-.72-1.35 1.4 1.4 0 0 0-1.13-.12c-.08-.08-.2-.12-.32-.2l-.36-.24-.2-.12a1.33 1.33 0 0 0-.68-.8 1.6 1.6 0 0 0-1.12-.16c-.12-.04-.2-.11-.32-.15-.16-.08-.32-.12-.48-.2a1.4 1.4 0 0 0-.72-1c-.6-.32-1.28-.2-1.76.2h-.04l-.44-.12h-.09c-.24-.28-.6-.52-1-.56-.36-.04-.72.04-1 .24h-.08c-.16 0-.28-.04-.44-.04h-.48c-.2-.28-.52-.52-.92-.56a1.5 1.5 0 0 0-1.4.64h-.16c-.12 0-.28.04-.4.04h-.04c-.36-.24-.8-.36-1.25-.24-.36.12-.68.36-.84.64-.16.12-.24.12-.36.16-.04 0-.08 0-.12.04l-.32.12c-.08.04-.16.04-.2.08a1.45 1.45 0 0 0-1.08-.12 1.5 1.5 0 0 0-1 .95c-.12.08-.24.12-.36.2-.04 0-.08.04-.08.04h-.04c-.2-.08-.4-.08-.64-.08h-.2c-.04 0-.04 0-.08.04-.04 0-.08.04-.08.04-.04 0-.04 0-.08.04-.04 0-.08.04-.12.04 0 0-.04 0-.04.04l-.16.12c-.32.24-.52.6-.56.96-.04.04-.09.04-.09.08l-.32.24c-.12.08-.24.2-.36.28l-.04.04c-.28-.04-.56.04-.8.15-.04 0-.08.04-.08.04-.04.04-.08.04-.12.08-.04.04-.08.08-.12.08-.28.28-.44.64-.44 1.04l-.24.24c-.04.08-.12.12-.16.2a1.45 1.45 0 0 0-1.36.72c-.2.35-.24.75-.12 1.11-.08.08-.12.2-.16.28l-.24.36-.12.2c-.32.12-.64.32-.8.67-.2.36-.24.76-.16 1.12-.04.12-.12.2-.16.32l-.16.4c0 .04-.04.04-.04.08-.4.08-.8.32-1 .71-.33.6-.2 1.28.24 1.76l-.13.47v.08c-.28.24-.52.6-.56 1-.04.36.04.72.24 1v.08c0 .16-.04.31-.04.43V27.5a1.48 1.48 0 0 0 .08 2.39v.12c0 .12.04.28.04.4v.04c-.24.36-.36.8-.24 1.23.12.36.36.68.65.84-.08.12-.08.2-.04.32 0 .04 0 .08.04.12l.12.32c.04.08.04.16.08.2-.16.32-.24.71-.12 1.07.12.48.52.88.96 1 .04.12.12.24.16.36 0 .04.04.08.04.08s0 .04.04.04c-.16.52-.08 1.03.24 1.47.24.32.6.52.96.56 0 .04.04.04.04.08.08.12.16.24.24.32.08.12.16.24.24.32 0 .04.04.04.04.08-.04.35.08.71.32 1.03.28.36.72.56 1.12.56l.2.2.2.2c-.04.56.24 1.07.72 1.35.36.2.76.24 1.13.16.08.08.2.12.32.2l.32.2c.08.04.16.08.24.16.12.32.32.64.68.8.36.2.76.23 1.12.16l.28.11c.16.08.32.12.48.2h.04c.08.4.32.8.72 1 .6.32 1.28.2 1.76-.24l.44.12c.04 0 .08 0 .08.04.24.28.6.52 1 .56.37.04.73-.04 1-.28h.05c.16 0 .32.04.44.04H27.28c.24.32.6.52 1 .56.56.08 1.12-.2 1.4-.64h.08c.16 0 .28-.04.44-.04h.04c.36.24.8.36 1.25.24.36-.12.68-.36.84-.64l.32-.08c.04 0 .08 0 .08-.04.08-.04.2-.08.28-.08.08-.04.2-.04.28-.08.32.16.72.24 1.08.12h.04l.16-.04s.04 0 .04-.04c.04-.04.08-.04.12-.08 0 0 .04 0 .04-.04l.12-.12.12-.12c.12-.16.24-.32.32-.51.12-.04.24-.12.36-.16.04 0 .08-.04.08-.04.04 0 .04-.04.08-.04.16.04.32.08.44.08s.24 0 .32-.04h.04c.04 0 .04 0 .08-.04.04 0 .08-.04.08-.04.04 0 .04 0 .08-.04.04 0 .08-.04.12-.04 0 0 .04 0 .04-.04.04-.04.08-.04.12-.08.32-.24.52-.6.56-.96.04 0 .04-.04.08-.04l.32-.24c.13-.08.25-.2.37-.28.04 0 .04-.04.08-.04.36.04.72-.08 1.04-.28.36-.27.56-.71.56-1.11.08-.08.12-.16.2-.2l.2-.2c.52.04 1.08-.24 1.36-.76.2-.35.24-.75.12-1.11.04-.08.12-.16.16-.24l.24-.36a.83.83 0 0 1 .16-.24c.32-.12.64-.32.8-.68.2-.35.24-.75.16-1.11l.12-.28c.04-.12.12-.28.16-.44 0-.04.04-.04.04-.08.4-.08.8-.32 1.04-.71.33-.6.2-1.28-.24-1.76l.12-.44v-.04c.33-.23.53-.6.57-1 .04-.35-.04-.7-.24-.99v-.12c.28-.28.28-.4.28-.55z" fill="#BCDFED"/><circle cx="28" cy="28" r="16" fill="#218ECD"/><circle cx="28" cy="28" r="14" fill="#1B79BD"/><circle cx="28" cy="28" r="11" fill="#2A3890"/><path d="M33.93 42.44c-.56.24-1 .68-1.2 1.28l-.08.27.16.28c.36.64 1.24.8 2.12.48.84-.36 1.36-1.03 1.2-1.71l-.12-.36-.28-.16a2.2 2.2 0 0 0-1.8-.08z" fill="url(#akfdgf1la)"/><path d="M34.17 43.04c-.4.16-.72.48-.84.87.16.32.72.4 1.28.16.56-.2.88-.63.8-1-.36-.15-.84-.2-1.24-.03z" fill="url(#bkfdgf1la)"/><path d="M22.67 12l-.08.28.16.28c.36.52.92.88 1.52.96.6.08 1.25-.12 1.69-.52l.24-.2v-.28c0-.71-.68-1.31-1.6-1.43-.93-.12-1.73.28-1.93.92z" fill="url(#ckfdgf1la)"/><path d="M24.35 12.88c.45.04.85-.08 1.17-.36 0-.36-.44-.67-1.05-.75-.56-.08-1.08.12-1.2.43.24.36.64.64 1.08.68z" fill="url(#dkfdgf1la)"/><path d="M41.54 17.62l-.28.12-.12.28c-.2.6-.16 1.24.16 1.8.32.51.84.91 1.44 1.03l.28.08.24-.16c.56-.44.64-1.32.16-2.15-.44-.8-1.2-1.2-1.88-1z" fill="url(#ekfdgf1la)"/><path d="M44.22 31.57a2.09 2.09 0 0 0-1.12 3.03l.16.23.28.08c.68.16 1.44-.36 1.77-1.27.32-.88.12-1.72-.49-2.03l-.28-.16-.32.12z" fill="url(#fkfdgf1la)"/><path d="M36.93 21h-.32l-.2.25a2.1 2.1 0 0 0 .6 3.19l.24.15.28-.08c.68-.23 1.05-1.03.84-1.99-.16-.87-.76-1.51-1.44-1.51z" fill="url(#gkfdgf1la)"/><path opacity=".97" d="M32.2 15.83l-.15.28.12.28c.24.6.72 1.03 1.32 1.23.56.2 1.2.12 1.76-.16l.24-.16.08-.28c.16-.67-.4-1.43-1.28-1.7-.92-.29-1.76-.09-2.08.51z" fill="url(#hkfdgf1la)"/><path d="M21.15 14.6c-.48.4-.72.95-.72 1.43 0 .2.04.44.16.6l.16.28.32.04c.64.07 1.28-.08 1.72-.52.44-.4.72-1 .72-1.6v-.28l-.24-.2c-.52-.47-1.44-.4-2.12.24z" fill="url(#ikfdgf1la)"/><path d="M35.61 31.05c-.48.4-.72 1-.72 1.6v.27l.24.2c.52.48 1.44.36 2.16-.24.68-.6.93-1.43.56-2.03l-.16-.28-.32-.04a2.4 2.4 0 0 0-1.76.52z" fill="url(#jkfdgf1la)"/><path d="M23.91 20.61c-.48.4-.72.96-.72 1.43 0 .2.04.44.16.6l.16.28.32.04c.64.08 1.29-.08 1.73-.52.48-.4.72-1 .72-1.6v-.27l-.24-.2c-.52-.52-1.4-.4-2.13.24z" fill="url(#kkfdgf1la)"/><path d="M24.07 30.65c-.48.52-.36 1.43.24 2.15.6.68 1.45.92 2.05.56l.28-.16.04-.32a2.03 2.03 0 0 0-.52-1.71c-.4-.44-1-.72-1.6-.72h-.29l-.2.2z" fill="url(#lkfdgf1la)"/><path d="M41.7 25.43c-.6.24-1.04.72-1.24 1.32a2.16 2.16 0 0 0 .16 1.75l.16.24.28.08c.68.16 1.44-.4 1.72-1.28.28-.87.08-1.71-.52-2.03l-.28-.16-.28.08z" fill="url(#mkfdgf1la)"/><path d="M33.05 36.55c-.6.11-1.12.47-1.44 1.03l-.17.24.09.28c.24.68 1.04 1.03 2 .84.88-.2 1.52-.8 1.52-1.48v-.32l-.24-.2a2.34 2.34 0 0 0-1.76-.4z" fill="url(#nkfdgf1la)"/><path d="M13.22 22.32c-.28.88-.08 1.72.52 2.04l.28.15.28-.12c.6-.23 1.04-.71 1.24-1.27.2-.56.12-1.2-.16-1.75l-.16-.24-.28-.08c-.68-.16-1.4.4-1.72 1.27z" fill="url(#okfdgf1la)"/><path d="M17.74 27.06c-.68.24-1.04 1.04-.84 2 .2.87.8 1.51 1.49 1.51h.32l.2-.24a2.11 2.11 0 0 0-.6-3.19l-.24-.16-.33.08z" fill="#2B3990"/><path d="M16.26 34.95c-.48.52-.36 1.44.24 2.15.6.68 1.45.92 2.05.56l.28-.16.04-.32a2.02 2.02 0 0 0-.52-1.71c-.4-.44-1-.72-1.6-.72h-.29l-.2.2z" fill="url(#pkfdgf1la)"/><path d="M24.07 40.25l-.24.16-.08.28c-.16.68.4 1.43 1.29 1.71.88.28 1.72.08 2.04-.52l.16-.28-.12-.27a2.13 2.13 0 0 0-1.32-1.24 2.04 2.04 0 0 0-1.73.16z" fill="url(#qkfdgf1la)"/><path d="M41.86 19.5c.2.4.6.63 1 .71.28-.2.28-.76 0-1.27-.28-.52-.76-.8-1.08-.68-.16.4-.12.84.08 1.23z" fill="url(#rkfdgf1la)"/><path d="M43.82 33c-.16.4-.08.84.12 1.2.36.07.76-.28.96-.84.2-.56.12-1.08-.2-1.24-.4.12-.76.44-.88.88z" fill="url(#skfdgf1la)"/><path d="M36.61 22.88c.08.44.36.8.72 1 .32-.12.52-.64.4-1.24-.12-.56-.48-1-.8-.95-.28.31-.4.75-.32 1.2z" fill="url(#tkfdgf1la)"/><path d="M33.69 17.02c.4.16.84.08 1.2-.11.08-.36-.28-.76-.84-.96-.56-.2-1.08-.08-1.24.2.12.4.44.76.88.87z" fill="url(#ukfdgf1la)"/><path d="M22.35 15.95c.32-.28.48-.72.52-1.12-.28-.24-.8-.12-1.28.28-.44.4-.6.88-.44 1.2.4.04.84-.08 1.2-.36z" fill="url(#vkfdgf1la)"/><path d="M36.01 31.57c-.32.27-.48.71-.52 1.11.28.24.8.12 1.28-.28.44-.4.6-.87.44-1.2-.4-.03-.84.05-1.2.37z" fill="#468BCA"/><path d="M25.12 21.92c.32-.27.48-.71.52-1.11-.28-.24-.8-.12-1.29.28-.44.4-.6.87-.44 1.2.4.03.85-.05 1.2-.37z" fill="url(#wkfdgf1la)"/><path d="M25.68 31.57a1.73 1.73 0 0 0-1.13-.52c-.24.28-.12.8.29 1.27.4.44.88.6 1.2.44.04-.4-.08-.84-.36-1.2z" fill="url(#xkfdgf1la)"/><path d="M33.17 37.18c-.44.08-.8.36-1 .72.12.32.64.52 1.24.4.56-.12 1-.48.96-.8-.32-.28-.76-.4-1.2-.32z" fill="url(#ykfdgf1la)"/><path d="M41.1 26.9c-.16.4-.08.84.12 1.2.36.08.76-.28.96-.84.2-.55.08-1.07-.2-1.23-.4.16-.76.48-.88.87z" fill="url(#zkfdgf1la)"/><path d="M10.98 29.06c-.57.16-.93.8-.93 1.51 0 .16 0 .32.04.48.16.91.76 1.51 1.49 1.51h.32l.2-.24a2.1 2.1 0 0 0-.6-3.18l-.24-.16-.28.08z" fill="url(#aakfdgf1la)"/><path d="M11.86 30.69c-.08-.44-.36-.8-.72-1-.33.12-.53.64-.4 1.24.11.56.48 1 .8 1 .28-.36.4-.8.32-1.24z" fill="url(#abkfdgf1la)"/><path d="M17.62 40.97l-.28.08-.12.28c-.32.63 0 1.47.8 1.99.77.52 1.65.52 2.13.04l.24-.24-.04-.32c-.08-.64-.4-1.2-.92-1.55a2.4 2.4 0 0 0-1.8-.28z" fill="url(#ackfdgf1la)"/><path d="M18.99 41.8c-.36-.24-.8-.32-1.2-.2-.17.32.08.8.56 1.16.48.32 1.04.36 1.28.12-.04-.4-.24-.8-.64-1.08z" fill="url(#adkfdgf1la)"/><path d="M14.94 22.88c.16-.4.08-.84-.12-1.2-.36-.07-.76.28-.96.84-.2.56-.08 1.08.2 1.24.4-.12.72-.44.88-.88z" fill="url(#aekfdgf1la)"/><path d="M17.9 35.87a1.73 1.73 0 0 0-1.12-.52c-.24.28-.12.8.28 1.27.4.44.89.6 1.2.44.05-.4-.07-.83-.35-1.2z" fill="url(#afkfdgf1la)"/><path d="M25.64 40.69c-.4-.16-.84-.08-1.2.12-.09.36.28.75.84.95.56.2 1.08.08 1.24-.2-.16-.4-.48-.71-.88-.87z" fill="url(#agkfdgf1la)"/><path d="M14.78 15.27c-.4.4-.6.92-.6 1.36 0 .28.08.51.24.71l.2.24h.32c.64.04 1.24-.2 1.68-.63.44-.44.64-1.04.56-1.68l-.04-.28-.24-.2c-.56-.4-1.44-.2-2.12.48z" fill="url(#ahkfdgf1la)"/><path d="M16.1 16.5c.32-.31.44-.75.4-1.15-.28-.2-.84-.04-1.24.36-.4.44-.52.96-.32 1.24.44 0 .84-.12 1.16-.44z" fill="url(#aikfdgf1la)"/><path d="M42.18 36.82c-.64-.04-1.24.2-1.68.64a2.12 2.12 0 0 0-.6 1.67l.04.28.24.16c.56.44 1.44.24 2.12-.44.64-.67.8-1.5.4-2.07l-.2-.24h-.32z" fill="url(#ajkfdgf1la)"/><path d="M41.22 38.06c-.32.32-.44.72-.44 1.15.28.2.8.08 1.24-.35.4-.4.56-.92.36-1.24-.4 0-.84.12-1.16.44z" fill="url(#akkfdgf1la)"/><path d="M20 33h-3V22h3v11zm10-11v2h3v9h3v-9h3v-2h-9zm1 3h-3.48l-2.46 3.26H25V25h-3v8h3v-3.84h.06l2.5 3.84H31l-3.4-4.39L31 25z" fill="#fff"/><defs><linearGradient id="akfdgf1la" x1="34.97" y1="44.69" x2="33.73" y2="42.15" gradientUnits="userSpaceOnUse"><stop stop-color="#F1F2F2"/><stop offset=".5" stop-color="#27AAE1"/><stop offset="1" stop-color="#1C75BC"/></linearGradient><linearGradient id="bkfdgf1la" x1="33.32" y1="43.57" x2="35.42" y2="43.57" gradientUnits="userSpaceOnUse"><stop stop-color="#468BCA"/><stop offset="1" stop-color="#2B3990"/></linearGradient><linearGradient id="ckfdgf1la" x1="24.35" y1="11.5" x2="24.42" y2="14.42" gradientUnits="userSpaceOnUse"><stop stop-color="#F1F2F2"/><stop offset=".5" stop-color="#27AAE1"/><stop offset="1" stop-color="#1C75BC"/></linearGradient><linearGradient id="dkfdgf1la" x1="23.29" y1="12.33" x2="25.52" y2="12.33" gradientUnits="userSpaceOnUse"><stop stop-color="#468BCA"/><stop offset="1" stop-color="#2B3990"/></linearGradient><linearGradient id="ekfdgf1la" x1="43.41" y1="18.68" x2="40.28" y2="20.32" gradientUnits="userSpaceOnUse"><stop stop-color="#F1F2F2"/><stop offset=".5" stop-color="#27AAE1"/><stop offset="1" stop-color="#1C75BC"/></linearGradient><linearGradient id="fkfdgf1la" x1="42.34" y1="33.21" x2="44.87" y2="33.21" gradientUnits="userSpaceOnUse"><stop stop-color="#1C75BC"/><stop offset=".5" stop-color="#27AAE1"/><stop offset="1" stop-color="#F1F2F2"/></linearGradient><linearGradient id="gkfdgf1la" x1="35.93" y1="22.81" x2="38.44" y2="22.81" gradientUnits="userSpaceOnUse"><stop stop-color="#2B3990"/><stop offset="1" stop-color="#1C75BC"/></linearGradient><linearGradient id="hkfdgf1la" x1="32.04" y1="16.49" x2="35.57" y2="16.49" gradientUnits="userSpaceOnUse"><stop stop-color="#2B3990"/><stop offset="1" stop-color="#1C75BC"/></linearGradient><linearGradient id="ikfdgf1la" x1="20.39" y1="15.5" x2="23.5" y2="15.5" gradientUnits="userSpaceOnUse"><stop stop-color="#2B3990"/><stop offset="1" stop-color="#1C75BC"/></linearGradient><linearGradient id="jkfdgf1la" x1="34.86" y1="32" x2="37.97" y2="32" gradientUnits="userSpaceOnUse"><stop stop-color="#2B3990"/><stop offset="1" stop-color="#1C75BC"/></linearGradient><linearGradient id="kkfdgf1la" x1="23.17" y1="21.5" x2="26.28" y2="21.5" gradientUnits="userSpaceOnUse"><stop stop-color="#2B3990"/><stop offset="1" stop-color="#1C75BC"/></linearGradient><linearGradient id="lkfdgf1la" x1="23.77" y1="31.96" x2="26.7" y2="31.96" gradientUnits="userSpaceOnUse"><stop stop-color="#2B3990"/><stop offset="1" stop-color="#1C75BC"/></linearGradient><linearGradient id="mkfdgf1la" x1="40.34" y1="27.05" x2="42.93" y2="27.05" gradientUnits="userSpaceOnUse"><stop stop-color="#2B3990"/><stop offset="1" stop-color="#1C75BC"/></linearGradient><linearGradient id="nkfdgf1la" x1="31.45" y1="37.74" x2="35.05" y2="37.74" gradientUnits="userSpaceOnUse"><stop stop-color="#2B3990"/><stop offset="1" stop-color="#1C75BC"/></linearGradient><linearGradient id="okfdgf1la" x1="13.09" y1="22.76" x2="15.68" y2="22.76" gradientUnits="userSpaceOnUse"><stop stop-color="#2B3990"/><stop offset="1" stop-color="#1C75BC"/></linearGradient><linearGradient id="pkfdgf1la" x1="15.99" y1="36.27" x2="18.91" y2="36.27" gradientUnits="userSpaceOnUse"><stop stop-color="#468BCA"/><stop offset="1" stop-color="#2B3990"/></linearGradient><linearGradient id="qkfdgf1la" x1="23.73" y1="41.25" x2="27.25" y2="41.25" gradientUnits="userSpaceOnUse"><stop stop-color="#2B3990"/><stop offset="1" stop-color="#1C75BC"/></linearGradient><linearGradient id="rkfdgf1la" x1="41.68" y1="19.23" x2="43.08" y2="19.23" gradientUnits="userSpaceOnUse"><stop stop-color="#468BCA"/><stop offset="1" stop-color="#2B3990"/></linearGradient><linearGradient id="skfdgf1la" x1="43.72" y1="33.15" x2="44.99" y2="33.15" gradientUnits="userSpaceOnUse"><stop stop-color="#468BCA"/><stop offset="1" stop-color="#2B3990"/></linearGradient><linearGradient id="tkfdgf1la" x1="36.6" y1="22.78" x2="37.78" y2="22.78" gradientUnits="userSpaceOnUse"><stop stop-color="#468BCA"/><stop offset="1" stop-color="#2B3990"/></linearGradient><linearGradient id="ukfdgf1la" x1="32.78" y1="16.49" x2="34.9" y2="16.49" gradientUnits="userSpaceOnUse"><stop stop-color="#468BCA"/><stop offset="1" stop-color="#2B3990"/></linearGradient><linearGradient id="vkfdgf1la" x1="21.06" y1="15.5" x2="22.84" y2="15.5" gradientUnits="userSpaceOnUse"><stop stop-color="#468BCA"/><stop offset="1" stop-color="#2B3990"/></linearGradient><linearGradient id="wkfdgf1la" x1="23.84" y1="21.5" x2="25.61" y2="21.5" gradientUnits="userSpaceOnUse"><stop stop-color="#468BCA"/><stop offset="1" stop-color="#2B3990"/></linearGradient><linearGradient id="xkfdgf1la" x1="24.44" y1="31.96" x2="26.04" y2="31.96" gradientUnits="userSpaceOnUse"><stop stop-color="#468BCA"/><stop offset="1" stop-color="#2B3990"/></linearGradient><linearGradient id="ykfdgf1la" x1="32.17" y1="37.74" x2="34.38" y2="37.74" gradientUnits="userSpaceOnUse"><stop stop-color="#468BCA"/><stop offset="1" stop-color="#2B3990"/></linearGradient><linearGradient id="zkfdgf1la" x1="41.01" y1="27.09" x2="42.27" y2="27.09" gradientUnits="userSpaceOnUse"><stop stop-color="#468BCA"/><stop offset="1" stop-color="#2B3990"/></linearGradient><linearGradient id="aakfdgf1la" x1="10.37" y1="30.77" x2="13.04" y2="30.77" gradientUnits="userSpaceOnUse"><stop stop-color="#F1F2F2"/><stop offset=".5" stop-color="#27AAE1"/><stop offset="1" stop-color="#1C75BC"/></linearGradient><linearGradient id="abkfdgf1la" x1="10.72" y1="30.8" x2="11.89" y2="30.8" gradientUnits="userSpaceOnUse"><stop stop-color="#2B3990"/><stop offset="1" stop-color="#1C75BC"/></linearGradient><linearGradient id="ackfdgf1la" x1="17.92" y1="43.59" x2="19.5" y2="40.99" gradientUnits="userSpaceOnUse"><stop stop-color="#F1F2F2"/><stop offset=".5" stop-color="#27AAE1"/><stop offset="1" stop-color="#1C75BC"/></linearGradient><linearGradient id="adkfdgf1la" x1="17.75" y1="42.3" x2="19.64" y2="42.3" gradientUnits="userSpaceOnUse"><stop stop-color="#2B3990"/><stop offset="1" stop-color="#1C75BC"/></linearGradient><linearGradient id="aekfdgf1la" x1="13.75" y1="22.73" x2="15.01" y2="22.73" gradientUnits="userSpaceOnUse"><stop stop-color="#468BCA"/><stop offset="1" stop-color="#2B3990"/></linearGradient><linearGradient id="afkfdgf1la" x1="16.65" y1="36.27" x2="18.25" y2="36.27" gradientUnits="userSpaceOnUse"><stop stop-color="#2B3990"/><stop offset="1" stop-color="#1C75BC"/></linearGradient><linearGradient id="agkfdgf1la" x1="24.4" y1="41.25" x2="26.52" y2="41.25" gradientUnits="userSpaceOnUse"><stop stop-color="#468BCA"/><stop offset="1" stop-color="#2B3990"/></linearGradient><linearGradient id="ahkfdgf1la" x1="14.5" y1="15.24" x2="18.26" y2="18.14" gradientUnits="userSpaceOnUse"><stop stop-color="#F1F2F2"/><stop offset=".5" stop-color="#27AAE1"/><stop offset="1" stop-color="#1C75BC"/></linearGradient><linearGradient id="aikfdgf1la" x1="14.85" y1="16.1" x2="16.52" y2="16.1" gradientUnits="userSpaceOnUse"><stop stop-color="#2B3990"/><stop offset="1" stop-color="#1C75BC"/></linearGradient><linearGradient id="ajkfdgf1la" x1="39.59" y1="37.47" x2="41.95" y2="38.54" gradientUnits="userSpaceOnUse"><stop stop-color="#1C75BC"/><stop offset=".5" stop-color="#27AAE1"/><stop offset="1" stop-color="#F1F2F2"/></linearGradient><linearGradient id="akkfdgf1la" x1="41.06" y1="38.18" x2="42.2" y2="38.73" gradientUnits="userSpaceOnUse"><stop stop-color="#468BCA"/><stop offset="1" stop-color="#2B3990"/></linearGradient></defs></svg>