<!-- by TradingView --><svg width="56" height="56" viewBox="0 0 56 56" xmlns="http://www.w3.org/2000/svg"><path fill="#F0F3FA" d="M0 0h56v56H0z"/><path fill="#E9D7D0" d="M6 22h2v12H6z"/><path d="M7 22.86 8 22v12H6l1-.75v-10.4Z"/><path d="M22 32v2h-8v-2h8Z" fill="#E9D7D0"/><path d="M14.88 33 14 34h8v-2l-.77 1h-6.35Z"/><path fill="#E9D7D0" d="M14 22h2v12h-2z"/><path d="m15 22.86 1-.86v12h-2l1-.75v-10.4Z"/><path d="M30.51 22 26 34h.65L31 22.43 35.35 34H36l-4.51-12h-.98Z" fill="#E9D7D0"/><path d="M34.33 34h.65L31 23.4 27.02 34h.65L31 25.14 34.33 34Z" fill="#E9D7D0"/><path d="M33.24 34h.65L31 26.32 28.1 34h.65L31 28.05 33.24 34Z" fill="#E9D7D0"/><path d="m26.33 34 4.4-11.78h.22l.05.21L26.66 34h-.33ZM31.16 22.27l.33-.27L36 34h-.66l.22-.32-4.4-11.41ZM27.48 33.57l-.44.43h.6l3.47-9.19L34.63 34H35L31 23.4v1.2l-.16.1-3.36 8.87Z"/><path d="m28.47 33.73-.33.27h.6l2.37-6.38 2.36 6.11-.1.27h.54L31 26.32v1.09l-.27.21-2.26 6.11Z"/><path d="M49 22.53v1.28c-.52-.2-1.7-.59-3-.59-1.62 0-4.49.35-4.49 4.94 0 4.59 3.14 4.62 4.49 4.62 1.08 0 1.57-.36 2-.53V29h-2.49v-2H50v6.15c-.45.28-1.85.85-3.84.85-2.48 0-6.16-.8-6.16-5.84C40 23.1 43.3 22 45.51 22c1.78 0 3 .35 3.49.53Z" fill="url(#ahxnognbw)"/><path d="M49 22.53v1.28c-.52-.2-1.7-.59-3-.59-1.62 0-4.17.3-4.17 4.89 0 4.58 2.82 4.67 4.17 4.67 1.08 0 1.57-.36 2-.53V29h-3v-2h5v.08l-1 1.5v3.93c-.54.53-.78.9-3 .9-3.08 0-5-1.35-5-4.91 0-5.63 3.54-5.86 4.78-5.86 1 0 2.03.24 2.52.37l.7-.48Z" fill="url(#bhxnognbw)"/><path d="M45.42 28 45 29h3l.33-1h-2.9Z" fill="#3C302E"/><defs><linearGradient id="ahxnognbw" x1="40.49" y1="24.02" x2="50.16" y2="33.48" gradientUnits="userSpaceOnUse"><stop stop-color="#F7F1EE"/><stop offset=".47" stop-color="#9B8279"/><stop offset="1" stop-color="#2F2524"/></linearGradient><linearGradient id="bhxnognbw" x1="41.26" y1="24.36" x2="50.03" y2="33.06" gradientUnits="userSpaceOnUse"><stop offset=".24" stop-color="#2F2524"/><stop offset=".47" stop-color="#9B8279"/><stop offset="1" stop-color="#F7F1EE"/></linearGradient></defs></svg>