<!-- by TradingView --><svg xmlns="http://www.w3.org/2000/svg" width="56" height="56" viewBox="0 0 56 56"><path fill="#F0F3FA" d="M0 0h56v56H0z"/><path d="M28.06 35.2c2 0 6.06-6.07 7.84-9.1 4.2 3.62 5.05 9.23 4.95 11.59-.26.47-2.33 2.78-4.95 4.43-6.68.13-10.35-6.91-7.84-6.91z" fill="#91C31D"/><path d="M20.57 13.52a16.3 16.3 0 0 0-8.36 14.26c0 8.88 7.48 16.61 16.63 16.2-6.13-4.11-15.25-14 .42-24.09-1.09-3.87-5.72-6.77-8.7-6.37z" fill="#33A9E1"/><path d="M37.56 16.72S36.83 12 27.9 12c-1.82.33-5.54 2.74-5.82 9.79 8.86-1.39 15.14 3.94 17.63 9.7.56 1.3 1.96 1.07 2.24 1.07l-4.38-15.84z" fill="url(#ahvl3dvde)"/><path d="M35.93 26.08c1.98-5.3.14-10.6-1.02-12.6 14.26 8.23 8 21.75 5.98 24.14-.32-6.23-3.08-9.61-4.96-11.54z" fill="#7CBC27"/><path d="M20.75 30.1c-4.18-3.7-5.38-9.52-5.43-11.95-8.76 12.84 2.13 22.9 6.12 24.3-1.72-4.11-1.83-7.5-.7-12.35z" fill="url(#bhvl3dvde)"/><path d="M33.8 34.47c-7.44.42-11.81-2.74-13.07-4.38-1.38 4.9-.92 7.9.73 12.3 2.33 1.32 5.87 1.68 7.24 1.59 1.7-.87 5.1-3.98 5.1-9.5z" fill="#33A9E1"/><defs><linearGradient id="ahvl3dvde" x1="40" y1="24.3" x2="22.05" y2="18.94" gradientUnits="userSpaceOnUse"><stop stop-color="#288B35"/><stop offset="1" stop-color="#79BA28"/></linearGradient><linearGradient id="bhvl3dvde" x1="8.26" y1="34.88" x2="20.23" y2="30.82" gradientUnits="userSpaceOnUse"><stop stop-color="#004578"/><stop offset="1" stop-color="#248BC2"/></linearGradient></defs></svg>