<!-- by TradingView --><svg xmlns="http://www.w3.org/2000/svg" width="56" height="56" viewBox="0 0 56 56"><path fill="#F0F3FA" d="M0 0h56v56H0z"/><path d="M10.5 21a2.5 2.5 0 1 0 0-5 2.5 2.5 0 0 0 0 5zm34.88 8H50a7.12 7.12 0 0 0-7.26-6.43 7.33 7.33 0 0 0-6.68 4.26 7.43 7.43 0 0 0-6.75-4.26c-1.97 0-3.98.76-5.31 1.99a6.9 6.9 0 0 0-4.85-1.99A7.88 7.88 0 0 0 13 25.5V23H8v10h8v-3.28c0-1.5 1.47-2.72 3-2.72s3 1.21 3 2.72V33h4v-2.86c0-2 1.33-3.14 3.03-3.14 1.69 0 2.97 1.3 2.97 2.8 0 1.5-1 2.71-2.5 2.77V37a7.3 7.3 0 0 0 6.57-4.23A7.33 7.33 0 0 0 42.74 37 7.19 7.19 0 0 0 50 30.5h-4.62a2.65 2.65 0 0 1-2.64 1.97c-1.5 0-2.74-1.2-2.74-2.68C40 28.3 41.04 27 42.74 27c1.42 0 2.35.83 2.64 2zm-18.06 8c.4 0 .68-.22.68-.63 0-.27-.12-.44-.47-.55l-.1-.02c-.17-.05-.31-.08-.31-.24 0-.14.12-.19.26-.19.17 0 .37.07.52.2v-.42a1.06 1.06 0 0 0-.53-.15c-.39 0-.66.22-.66.61 0 .27.12.45.47.56l.1.03c.17.04.31.08.31.24 0 .14-.12.2-.27.2-.2 0-.42-.1-.56-.24v.46c.16.09.36.14.56.14zM26 37h.42v-2H26v2zm-1.3-.37v-.48h.3c.16 0 .26.1.26.24 0 .14-.1.24-.27.24h-.29zm0-.8v-.46h.22c.15 0 .24.08.24.22s-.1.23-.25.23h-.2zM24.3 37h.68c.42 0 .69-.28.69-.63 0-.22-.1-.38-.28-.46.1-.1.17-.23.17-.39 0-.3-.23-.52-.58-.52h-.68v2zm-1.4-.78l.24-.7.24.7h-.48zm-.7.78h.44l.13-.42h.74l.13.42h.45l-.7-2h-.48l-.7 2zm-.57-2v1.3l-.89-1.3h-.39v2h.39v-1.28l.88 1.28H22v-2h-.37zm-2.01 0v1.3l-.9-1.3h-.38v2h.38v-1.28l.89 1.28H20v-2h-.38zm-2.7 1.22l.24-.7.24.7h-.49zm-.7.78h.44l.13-.42h.74l.13.42h.45l-.7-2h-.48l-.7 2zm-.7 0c.2 0 .37-.04.51-.12v-.42a.65.65 0 0 1-.44.16c-.35 0-.58-.24-.58-.61 0-.38.22-.62.58-.62.18 0 .33.05.44.16v-.45c-.13-.07-.29-.1-.47-.1-.58 0-.98.41-.98 1.03 0 .6.38.97.94.97zm-1.77 0l-.24-2H13l-.47 1.45-.46-1.45h-.53l-.24 2h.38l.17-1.39.44 1.39h.44l.45-1.4.18 1.4h.4zm-3.81-.78l.24-.7.25.7h-.49zm-.7.78h.44l.14-.42h.73l.14.42h.45l-.7-2h-.48l-.71 2zM8 37h.42v-2H8v2z" fill="#D64123"/></svg>