<!-- by TradingView --><svg width="56" height="56" viewBox="0 0 56 56" xmlns="http://www.w3.org/2000/svg"><path fill="#003E4D" d="M0 0h56v56H0z"/><path d="M4 25h.5v5H4v-5ZM21 25h.5l3 3.9V25h.5v5h-.5l-3-3.9V30H21v-5ZM6.5 25H6v5h.5v-4L8 28.54 9.5 26v4h.5v-5h-.5L8 27.68 6.5 25ZM11.5 25H11v5h.5v-4l1.5 2.55L14.5 26v4h.5v-5h-.5L13 27.68 11.5 25ZM16.5 25H16v3a2 2 0 1 0 4 0v-3h-.5v3a1.5 1.5 0 0 1-3 0v-3ZM48 25v5h4v-.5h-3.5v-2H52V27h-3.5v-1.5H52V25h-4Z" fill="#F5F6FA"/><path fill-rule="evenodd" d="M28.5 30a2.5 2.5 0 1 0 0-5 2.5 2.5 0 0 0 0 5Zm0-.43a2.07 2.07 0 1 0 0-4.14 2.07 2.07 0 0 0 0 4.14ZM39.5 30a2.5 2.5 0 1 0 0-5 2.5 2.5 0 0 0 0 5Zm0-.43a2.07 2.07 0 1 0 0-4.14 2.07 2.07 0 0 0 0 4.14Z" fill="#F5F6FA"/><path d="M36 29.2c-.42.49-1.02.8-1.7.8-1.27 0-2.3-1.12-2.3-2.5s1.03-2.5 2.3-2.5c.64 0 1.21.28 1.63.73l-.3.32a1.87 1.87 0 0 0-1.33-.55c-1.05 0-1.8.86-1.8 2 0 1.14.75 2 1.8 2 .56 0 1.06-.24 1.4-.63l.3.32ZM43 30v-5h2.5a1.5 1.5 0 0 1 0 3h.13L47 30h-.63L45 28h-1.5v2H43Zm.5-2.5h2a1 1 0 1 0 0-2h-2v2Z" fill="#F5F6FA"/></svg>