<!-- by TradingView --><svg xmlns="http://www.w3.org/2000/svg" width="56" height="56"><path fill="#70B782" d="M0 0h56v56H0z"/><path d="M10.7 20.73c.2-.18.3-.42.3-.72a.99.99 0 00-.3-.74A1 1 0 0010 19a.96.96 0 00-1 1c0 .31.1.55.3.73a1.05 1.05 0 001.4 0zM9 23h2v12H9V23zm26.25 2c2.02 0 2.75 1.83 2.75 3.84V35h2v-6.61c0-.94 0-2.14-.25-2.85.61-.4 1.66-.54 2.37-.54 1.94 0 2.88 1.73 2.88 3.4V35h2v-6.6c0-.8-.06-1.52-.2-2.19a4.21 4.21 0 00-.68-1.71 3.2 3.2 0 00-1.38-1.1 5.55 5.55 0 00-2.25-.4 5.82 5.82 0 00-2.05.4c-.3.1-.58.23-.84.36l-.1.06c-.2.12-.37.22-.52.33a3.6 3.6 0 00-1.27-.82 5.7 5.7 0 00-1.99-.3 17.41 17.41 0 00-4.72.62v11.33h2v-9.7c.52-.19 1.65-.28 2.25-.28zM20 28.84c0-2.01-.73-3.84-2.75-3.84-.6 0-1.73.09-2.25.29v9.69h-2V23.65a17.41 17.41 0 014.72-.63c.8 0 1.47.11 1.99.3.51.22.95.48 1.27.83.15-.11.31-.2.52-.33l.1-.06c.26-.13.54-.26.84-.37a5.82 5.82 0 012.05-.4c.9.01 1.66.14 2.25.4a3.2 3.2 0 011.38 1.1c.34.48.56 1.05.69 1.72.13.67.19 1.39.19 2.2V35h-2v-6.6c0-1.67-.94-3.4-2.88-3.4-.71 0-1.76.13-2.37.54.25.7.25 1.9.25 2.85V35h-2v-6.16z" fill="#fff"/></svg>