<!-- by TradingView --><svg xmlns="http://www.w3.org/2000/svg" width="56" height="56" viewBox="0 0 56 56"><path fill="#F0F3FA" d="M0 0h56v56H0z"/><path d="m33.63 20.31-.7-3.06c.99-.43 3.67-1.25 4.76-1.25C40.3 16 41 18.28 41 20c-.34-.69-1.37-.98-2.34-1-1.67-.04-5.03 1.31-5.03 1.31Z" fill="url(#agnarokpk)"/><path d="m18.1 27.55-1.94 2.54c-.82-.69-3.15-2.92-3.63-3.9-.24-.5-.53-1-.53-1.66 0-1.59 1.37-2.94 2.58-3.53-.47.61-.28 1.72.13 2.6.7 1.52 3.38 3.95 3.38 3.95Z" fill="url(#bgnarokpk)"/><path d="m33.06 35.9 2.85 1.3c-.25 1.05-1.21 3.68-1.87 4.54A2.86 2.86 0 0 1 31.69 43 4.4 4.4 0 0 1 29 42c.76.14 1.52-.55 2.13-1.31 1.03-1.31 1.93-4.79 1.93-4.79Z" fill="url(#cgnarokpk)"/><path d="M35 19.75C35 22.8 32.22 24 29.5 24c-5.13 0-8.11-5-13.25-5-2.07 0-3.25 1.35-4.25 3 1.25-6.25 7.19-9 12.69-9C28.32 13 35 15.38 35 19.75Z" fill="url(#dgnarokpk)"/><path d="M41.9 22.06c1.05-1.74.5-3.4-.4-5.06 2.56 1.88 3.5 4.94 3.5 7.75C45 30.35 40.69 38 34.06 38c-2.7 0-4.06-1.87-4.06-4.06 0-6.69 9.01-7.1 11.9-11.88Z" fill="url(#egnarokpk)"/><path d="M27.25 42.06c1 1.8 2.84 1.94 4.75 1.94-1.03.69-2.36 1-3.5 1-1.84 0-3.64-.65-5.16-1.5C19.58 41.38 16 36.45 16 31.61c0-2.8 1.4-6.62 4.69-6.62 3.98 0 5.3 4.63 5.3 7.87 0 3.19-.18 6.63 1.26 9.19Z" fill="url(#fgnarokpk)"/><defs><linearGradient id="agnarokpk" x1="34.07" y1="18.91" x2="40.6" y2="20.24" gradientUnits="userSpaceOnUse"><stop offset=".33" stop-color="#1E6C20"/><stop offset=".82" stop-color="#81B61D"/></linearGradient><linearGradient id="bgnarokpk" x1="16.64" y1="27.77" x2="14.97" y2="21.31" gradientUnits="userSpaceOnUse"><stop offset=".33" stop-color="#044468"/><stop offset=".82" stop-color="#3287A8"/></linearGradient><linearGradient id="cgnarokpk" x1="33.91" y1="37.1" x2="28.9" y2="41.5" gradientUnits="userSpaceOnUse"><stop offset=".33" stop-color="#6E1D04"/><stop offset=".82" stop-color="#932C33"/></linearGradient><linearGradient id="dgnarokpk" x1="11.83" y1="19.09" x2="35.17" y2="22.99" gradientUnits="userSpaceOnUse"><stop offset=".36" stop-color="#1B496F"/><stop offset=".65" stop-color="#1372A4"/><stop offset="1" stop-color="#28AEEB"/></linearGradient><linearGradient id="egnarokpk" x1="44.06" y1="18.31" x2="29.21" y2="36.19" gradientUnits="userSpaceOnUse"><stop offset=".36" stop-color="#215C23"/><stop offset=".65" stop-color="#1B8521"/><stop offset="1" stop-color="#76B908"/></linearGradient><linearGradient id="fgnarokpk" x1="29.48" y1="45.83" x2="20.89" y2="23.89" gradientUnits="userSpaceOnUse"><stop offset=".36" stop-color="#761517"/><stop offset=".52" stop-color="#890809"/><stop offset="1" stop-color="#AF1A22"/></linearGradient></defs></svg>