<!-- by TradingView --><svg xmlns="http://www.w3.org/2000/svg" width="56" height="56" fill="none"><path fill="#F0F3FA" d="M0 0h56v56H0z"/><path d="M28.24 23.8c.7 2.58 1.82 4 1.82 4a15.7 15.7 0 007.38 5.54 15.21 15.21 0 01-7.29-4.53l-.09-.11c-.42-.5-2.42-2.95-2.8-5.38-.62-4.1 2.65-6.28 7.36-4.91l.47.15c-4.46-1.1-7.48 1.29-6.85 5.24zm9.85-2.27c.63.51 1.2 1.14 1.34 1.3 1.76 2.07 2.3 4.48 1.14 5.86l-.07.08-.08.08c.93-1.34.45-3.5-1.07-5.43-.12-.15-.68-.82-1.54-1.56-2.63-2.25-5.95-2.7-7.44-1.21l.05-.07.08-.1c1.41-1.68 4.82-1.22 7.59 1.05zm1.57.61l-.02.04c1.57 1.47 3.17 4.19 3.28 5.8a3.63 3.63 0 01-.72 2.67c-1.66 2.14-5.73 1.73-9.25-.87l.12.1.23.19c3.59 2.84 7.9 3.36 9.61 1.15.5-.63.72-1.42.71-2.28-.14-3.07-2.24-5.4-3.96-6.8zm-4.05-.17a1.11 1.11 0 11-2.22 0 1.11 1.11 0 012.22 0z" fill="#FFC745"/><path d="M24 19h1v12h-1V19zm10 5h1v7h-1v-7zm12 0h1v1.38h.03c.4-.9 1.26-1.38 2.22-1.38 1.7 0 2.75 1.26 2.75 2.96V31h-1v-3.92c0-1.06-.71-2.08-1.87-2.08C47.5 25 47 26.45 47 27.9v3.08h-1V24zM7.36 33.74c-.6-.73-1.78-.2-1.9.68-.1.73.39 1.38 1.16 1.38.36 0 .63-.16.81-.42l.36.27c-.24.37-.74.55-1.17.55-.97 0-1.73-.82-1.6-1.78.1-.83.76-1.42 1.6-1.42.41 0 .84.16 1.1.49l-.36.25zm.74 1.38a1.07 1.07 0 01.32-.78c.1-.1.22-.18.35-.24a1.08 1.08 0 011.23.24c.1.1.18.22.24.35a1 1 0 01.1.43 1 1 0 01-.1.43c-.06.13-.14.25-.24.35-.1.1-.22.18-.35.23a1.08 1.08 0 01-.88 0 1.1 1.1 0 01-.68-1.01zm.41 0c0 .11.02.2.05.3a.6.6 0 00.14.22c.06.06.13.11.22.15a.88.88 0 00.58 0 .71.71 0 00.22-.15.75.75 0 00.2-.52c0-.11-.03-.2-.06-.29a.6.6 0 00-.14-.23.71.71 0 00-.5-.21.71.71 0 00-.51.21.74.74 0 00-.2.52zm2.29-1.11h.4v.38h.02a.42.42 0 01.1-.15l.16-.12a.76.76 0 01.37-.11l.18.03-.02.43a.3.3 0 00-.1-.02l-.1-.01c-.2 0-.34.05-.44.16-.1.11-.15.28-.15.51l-.02 1.09h-.4l.01-2.19zm1.64-.01h.4v.36a.9.9 0 01.32-.26.98.98 0 01.4-.1c.17 0 .32.04.45.09a.98.98 0 01.54.58c.05.13.07.28.07.43a1.13 1.13 0 01-.28.78c-.1.1-.2.18-.33.23-.13.06-.28.08-.44.08a.99.99 0 01-.42-.09.7.7 0 01-.3-.26h-.01v1.46h-.4V34zm1.08.38a.71.71 0 00-.51.21.74.74 0 00-.2.52c0 .11.03.2.06.3a.6.6 0 00.14.22c.06.06.13.11.22.15a.88.88 0 00.58 0 .72.72 0 00.22-.15.75.75 0 00.19-.52c0-.11-.02-.2-.05-.29a.6.6 0 00-.14-.23.71.71 0 00-.51-.21zm1.51.74a1.07 1.07 0 01.33-.78c.1-.1.22-.18.35-.24a1.08 1.08 0 011.23.24c.1.1.18.22.24.35a1 1 0 01.09.43 1 1 0 01-.09.43c-.06.13-.14.25-.24.35-.1.1-.22.18-.35.23a1.08 1.08 0 01-.88 0 1.09 1.09 0 01-.68-1.01zm.42 0c0 .11.02.2.05.3a.6.6 0 00.14.22c.06.06.13.11.22.15a.88.88 0 00.58 0 .71.71 0 00.22-.15.75.75 0 00.19-.52c0-.11-.02-.2-.05-.29a.6.6 0 00-.14-.23.71.71 0 00-.51-.21.71.71 0 00-.51.21.74.74 0 00-.2.52zm2.29-1.11h.4v.38h.01a.42.42 0 01.11-.15c.04-.05.1-.08.15-.12a.76.76 0 01.37-.11l.18.03-.02.43a.3.3 0 00-.1-.02l-.1-.01c-.19 0-.34.05-.44.16-.1.11-.15.28-.15.51v1.1h-.4V34zm1.64.31a1.36 1.36 0 01.83-.31c.15 0 .28.02.4.06.1.04.2.09.26.15a.7.7 0 01.16.22c.04.08.05.17.05.26v1.49h-.35v-.37a.85.85 0 01-.32.3.93.93 0 01-.42.07.84.84 0 01-.51-.16.6.6 0 01-.22-.47c0-.13.03-.25.1-.34a.68.68 0 01.24-.22c.11-.06.23-.1.37-.12.14-.02.3-.04.45-.04h.3v-.09a.42.42 0 00-.27-.4.67.67 0 00-.23-.04l-.2.02-.16.05a.56.56 0 00-.13.08l-.1.08-.25-.22zm1.11.83l-.29.02c-.1.01-.19.03-.27.06a.56.56 0 00-.2.12.28.28 0 00-.08.2c0 .12.04.21.12.26.08.05.2.08.33.08a.6.6 0 00.28-.06.44.44 0 00.18-.14.47.47 0 00.1-.2.76.76 0 00.03-.2v-.14h-.2zm2.28-.8h-.57v1.21c0 .06.01.11.03.15.04.1.12.15.26.15.1 0 .21 0 .3-.06v.36a.75.75 0 01-.36.07c-.18 0-.43-.03-.53-.22a.56.56 0 01-.07-.23v-1.43h-.47v-.34h.46v-.5h.4v.5h.58v.34h-.03zm.46-1c0-.08.03-.15.09-.2a.28.28 0 01.2-.09c.07 0 .15.03.2.09.05.06.09.13.09.2s-.03.15-.1.2c-.05.05-.12.1-.2.1a.27.27 0 01-.2-.1.27.27 0 01-.08-.2zm.09.66h.4v2.19h-.4V34zm.92 1.11a1.07 1.07 0 01.33-.78c.1-.1.22-.18.35-.24a1.08 1.08 0 011.23.24c.1.1.18.22.24.35a1 1 0 01.09.43 1 1 0 01-.1.43 1.02 1.02 0 01-.59.58.97.97 0 01-.87 0 1.1 1.1 0 01-.68-1.01zm.43 0c0 .11.02.2.05.3a.6.6 0 00.14.22c.06.06.13.11.22.15a.88.88 0 00.58 0 .71.71 0 00.22-.15.74.74 0 00.19-.52c0-.11-.02-.2-.05-.29a.6.6 0 00-.14-.23.71.71 0 00-.51-.21.71.71 0 00-.51.21.74.74 0 00-.2.52zM26.96 34h.4v.38a.7.7 0 01.27-.27.93.93 0 01.72-.05c.09.03.17.08.24.14.07.06.12.15.17.25.04.1.06.22.06.36v1.41h-.4v-1.3c0-.1-.01-.18-.04-.25a.5.5 0 00-.11-.17.38.38 0 00-.15-.09.57.57 0 00-.18-.03.59.59 0 00-.23.04.46.46 0 00-.18.13.66.66 0 00-.12.22.97.97 0 00-.04.31v1.14h-.4v-2.21h-.01zm-13.88-5.77a4.5 4.5 0 11-.5-6.02l.84-.57A5.48 5.48 0 004 25.5a5.5 5.5 0 009.9 3.3l-.82-.57z" fill="#322A7E"/><path fill-rule="evenodd" d="M21.96 28a3.5 3.5 0 10-3.46 3 3.7 3.7 0 003.1-1.68l-.83-.55A2.7 2.7 0 0118.5 30a2.5 2.5 0 01-2.45-2h5.91zm-3.46-3a2.5 2.5 0 00-2.45 2h4.9a2.5 2.5 0 00-2.45-2z" fill="#322A7E"/><path d="M27.9 24.27a3.51 3.51 0 014.05.9l-.77.65a2.53 2.53 0 00-2.87-.64c-.27.13-.45.31-.51.58a.56.56 0 00.03.39c.05.11.16.25.39.37.27.15.66.3 1.24.4.65.13 1.14.3 1.52.51.76.42 1.16 1.13.97 1.88-.28 1.1-1.53 1.69-2.59 1.69a3.4 3.4 0 01-2.78-1.32l.79-.61c.5.65 1.19.93 2 .93.58 0 1.45-.3 1.61-.93.05-.2-.01-.5-.48-.76-.27-.14-.66-.3-1.23-.4a5.4 5.4 0 01-1.53-.5c-.38-.22-.66-.5-.82-.84a1.6 1.6 0 01-.1-1.05 1.9 1.9 0 011.07-1.25z" fill="#322A7E"/><circle cx="40.5" cy="27.5" r="3" stroke="#322A7E"/></svg>