<!-- by TradingView --><svg xmlns="http://www.w3.org/2000/svg" width="56" height="56" viewBox="0 0 56 56"><path fill="#F0F3FA" d="M0 0h56v56H0z"/><path d="M28 10 10 38.56 13.53 42l5.45-8.1 4.72 4.23 2.04-2.86 2.37 2.86 2.04-2.55 2.06 2.32 4.48-4.56 5.91 7.68L46 37.4 28 10Z" fill="#3F48CC"/><path fill-rule="evenodd" d="m23.1 33 .7-1.61h.67l.44-2.89h-.44v-1h.64l.82-5.5h-.48v-1h.6l.46-3h1v-.37h.35v-.94h.37v.94h.36V18h.93l.5 3h.58v1h-.48l.85 5.5h.6v1h-.46l.46 2.89h.73l.6 1.61h-9.8Zm4.74-12v-1.58h-1.1L26.51 21h1.33Zm.38 0v-1.58h1.1l.23 1.58h-1.33Zm-.39.77v.72l-1.14-.72h1.14Zm.39.72v-.72h1.14l-1.14.72Zm-1.83-.44-.29 1.93 1.51-1.06-1.22-.87Zm3.56 1.93-.29-1.93-1.22.87 1.5 1.06Zm-2.14-.65v.94h-1.35l1.35-.94Zm.43.94v-.94l1.35.94h-1.35Zm-.42.53v.87l-1.37-.87h1.37Zm.42.93v-.87h1.37l-1.37.87Zm-2.27-.68-.32 2.1 1.97-1.13-1.65-.97Zm4.44 2.16-.32-2.1-1.65.97 1.97 1.13Zm-2.6-.86v1.09h-1.87l1.87-1.1Zm.44 1.15v-1.1l1.87 1.1h-1.87Zm-.44.9v1.12L25.7 28.4h2.12Zm.44 1.12V28.4h2.12l-2.12 1.12Zm-.72.3-2.5 1.25.34-2.35 2.16 1.1Zm3.5 1.25-2.5-1.25 2.16-1.1.34 2.35Zm-3.2-.95v1.27h-2.5l2.5-1.27Zm.41 1.27v-1.27l2.49 1.27h-2.5Z" fill="#EEFE01"/></svg>