<!-- by TradingView --><svg xmlns="http://www.w3.org/2000/svg" width="56" height="56"><path fill="#F0F3FA" d="M0 0h56v56H0z"/><path fill="#1F6EBD" d="M4 24h1v7H4zm2 2.5a2.5 2.5 0 014.5-1.5 2.5 2.5 0 014.5 1.5V31h-1v-4.5a1.5 1.5 0 00-3 0V31h-1v-4.5a1.5 1.5 0 00-3 0V31H6v-4.5zm10 0a2.5 2.5 0 014.5-1.5 2.5 2.5 0 014.5 1.5V31h-1v-4.5a1.5 1.5 0 00-3 0V31h-1v-4.5a1.5 1.5 0 00-3 0V31h-1v-4.5zM29 30a2 2 0 01-2-2v-4h-1v4a3 3 0 106 0v-4h-1v4a2 2 0 01-2 2zm20-5a2 2 0 00-2 2v4h-1v-4a3 3 0 116 0v4h-1v-4a2 2 0 00-2-2zm-16-1v7h1v-3.94c.13-1.82 1.46-2.06 2-2.06v-.98c-.84-.13-1.63.5-1.88.79l-.16-.81H33z"/><path d="M36.72 26.84a2.72 2.72 0 001.72 2.76 2.7 2.7 0 01-1-2.27 2.54 2.54 0 012.67-2.6c1.66-.02 2.48 1.4 2.48 2.11-.04 1-1.07 1.2-1.59 1.16-.4-.06-1.17.03-1.12.82.05.8.61.85.88.78 1.65-.47 2.15-1.6 2.15-2.6 0-2.28-1.5-3.3-2.93-3.3-1.35 0-3.18.99-3.26 3.14z" fill="#372B74"/><path d="M44.72 28.16A2.72 2.72 0 0043 25.4a2.7 2.7 0 011 2.27c.01.91-.58 2.59-2.67 2.6-1.67.02-2.48-1.41-2.48-2.12.04-1 1.07-1.2 1.58-1.16.4.06 1.18-.02 1.13-.82-.05-.8-.61-.85-.89-.77-1.64.46-2.15 1.59-2.15 2.59 0 2.28 1.51 3.31 2.94 3.31 1.35 0 3.18-1 3.26-3.15z" fill="#1F6EBD"/></svg>