<!-- by TradingView --><svg xmlns="http://www.w3.org/2000/svg" width="56" height="56" viewBox="0 0 56 56"><path fill="#F0F3FA" d="M0 0h56v56H0z"/><path d="M23.73 12.58l2 7.04 3.34-.36 1.07-7.12a16.15 16.15 0 0 0-6.4.44z" fill="#CE1153"/><path d="M30.13 12.14L29 19.74l3.37.81 3.51-6.48a15.9 15.9 0 0 0-5.75-1.93z" fill="#A72784"/><path d="M40.6 18.13l-5.5 4.3-2.84-1.76 3.6-6.6a16.08 16.08 0 0 1 4.73 4.06z" fill="#59247C"/><path d="M43.52 24.1l-7.1 1.95-1.24-3.72 5.41-4.2a15.94 15.94 0 0 1 2.93 5.97z" fill="#FAD900"/><path d="M43.8 30.54a16.11 16.11 0 0 0-.28-6.46l-7.1 1.95.7 3.57 6.68.94z" fill="#E7B200"/><path d="M43.81 30.46a15.9 15.9 0 0 1-2.24 6.02l-5.55-3.34.99-3.56 6.8.88z" fill="#F6A400"/><path d="M41.58 36.46a16.09 16.09 0 0 1-4.32 4.59l-4.03-5.55 2.62-2.5 5.73 3.46z" fill="#DD6F10"/><path d="M37.28 41.04a15.92 15.92 0 0 1-5.68 2.55l-1.57-6.58 3.62-.99 3.63 5.02z" fill="#C51718"/><path d="M25.5 43.8l1.07-6.85 3.46.1 1.57 6.54a16.05 16.05 0 0 1-6.1.22z" fill="#CE1153"/><path d="M25.5 43.8c-2-.3-3.9-1-5.58-1.99l3.49-6.02 3.11 1.54-1.02 6.48z" fill="#A72784"/><path d="M19.94 41.83a16.08 16.08 0 0 1-4.5-3.92l5.66-4.48 2.25 2.55-3.4 5.85z" fill="#59247C"/><path d="M15.46 37.93a15.95 15.95 0 0 1-2.97-6l7.17-1.74 1.54 3.18-5.74 4.56z" fill="#2E529E"/><path d="M12.5 32a16.03 16.03 0 0 1-.38-5.97l7.72.96-.38 3.26L12.5 32z" fill="#0DACA7"/><path d="M12.12 26.03c.27-2.2.98-4.25 2.05-6.08l6.77 3.9-1.61 3.1-7.21-.92z" fill="#00973A"/><path d="M14.16 19.96a16.08 16.08 0 0 1 4.06-4.62l4.61 5.96-2.2 2.41-6.47-3.75z" fill="#DB7509"/><path d="M18.2 15.35a15.95 15.95 0 0 1 5.54-2.78l2.04 7.09-3.07 1.48-4.5-5.79z" fill="#CD1225"/><circle cx="28.5" cy="28.5" r="9.5" fill="#1D1D1B"/><path fill="#F0F3FA" d="M23 22h4v4h-4zM28 23.5h2.5V26H28zM25 27h2v2h-2z"/></svg>