<!-- by TradingView --><svg width="56" height="56" viewBox="0 0 56 56" xmlns="http://www.w3.org/2000/svg"><path fill="#F0F3FA" d="M0 0h56v56H0z"/><path d="m35 9 3.81 11L24 17l11-8Z" fill="#009ACC"/><path d="M36.75 34 45 27.86 38.81 20l-2.06 14Z" fill="#007DA9"/><path d="m21.28 31 15.47 3 2.06-14L24 17l-2.72 14Z" fill="#83CDE8"/><path d="M33.66 41 45 27.86 36.75 34l-3.1 7ZM15 21v15l6.3-5.01L15 21Z" fill="#005C9F"/><path d="m26.28 50 7.38-9-9.28-1 1.9 10Z" fill="#83CDE8"/><path d="m21.28 31 3.1 9 9.28 1 3.09-7-15.47-3Z" fill="#009ACC"/><path d="m12 38 12.38 2-3.1-9L12 38Z" fill="#6F9ED4"/><path d="M24 9v8l-2.72 14-6.63-10-1.69-2.69L24 9Z" fill="#007DA9"/><path d="m24 9 5.53 4L24 17V9Z" fill="#005C9F"/></svg>