<!-- by TradingView --><svg width="56" height="56" viewBox="0 0 56 56" xmlns="http://www.w3.org/2000/svg"><path fill="#F0F3FA" d="M0 0h56v56H0z"/><path d="M16 18.65c.15 4.35 3.82 7.85 5.63 9.05l5.75-3.5c-3.85-1.98-4.86-4.53-4.88-5.55.13-3.79 3.88-4.97 5.63-4.91 1.4.05 2.66.57 3.12.83h.7l-.01-.08c0-.64.55-1.16 1.23-1.16a1.2 1.2 0 0 1 1.23 1.24h.63a1.38 1.38 0 0 1-.34-.9c0-.8.68-1.43 1.51-1.43.84 0 1.51.64 1.51 1.43 0 .34-.12.65-.33.9H39A12.26 12.26 0 0 0 28.13 8c-6.5.06-12.31 5.2-12.13 10.65Zm22.76 3.86a1.27 1.27 0 0 1-1.81.27v.09c0 1.09-.93 1.97-2.08 1.97a2.03 2.03 0 0 1-2.09-1.97c0-.12.02-.24.04-.36h-1.57a150.05 150.05 0 0 1-8.13 4.99c-2.43 1.28-7.04 4.87-7 10.25.04 5.38 5.68 10.33 12.02 10.25 6.34-.08 11.65-4.91 11.85-10.25.17-4.27-3.55-8.02-5.43-9.36L28.67 32c1.94 1.08 5.03 3.19 5.07 5.76.04 2.57-2.76 4.71-5.6 4.75-2.84.04-5.6-1.98-5.68-4.75-.07-2.21 2.63-4.28 3.99-5.03l6.46-4.13A13.93 13.93 0 0 0 39 22.51h-.24Z" fill="url(#aecbvxj4e)"/><ellipse cx="33.15" cy="14.51" rx="1.03" ry=".98" fill="url(#becbvxj4e)"/><ellipse cx="36.19" cy="13.65" rx="1.27" ry="1.2" fill="url(#cecbvxj4e)"/><ellipse cx="37.56" cy="15.52" rx=".71" ry=".67" fill="url(#decbvxj4e)"/><ellipse cx="35.63" cy="15.99" rx=".71" ry=".67" fill="url(#eecbvxj4e)"/><ellipse cx="36.97" cy="16.66" rx=".36" ry=".34" fill="url(#fecbvxj4e)"/><ellipse cx="36.76" cy="19.68" rx=".36" ry=".34" fill="url(#gecbvxj4e)"/><ellipse cx="33.31" cy="18.38" rx=".36" ry=".34" fill="url(#hecbvxj4e)"/><ellipse cx="33.4" cy="19.68" rx=".22" ry=".21" fill="url(#iecbvxj4e)"/><ellipse cx="34.12" cy="18.7" rx=".22" ry=".21" fill="url(#jecbvxj4e)"/><ellipse cx="36.33" cy="20.76" rx=".22" ry=".21" fill="url(#kecbvxj4e)"/><ellipse cx="38.34" cy="19.56" rx=".22" ry=".21" fill="#009AD1"/><ellipse cx="35.39" cy="17.88" rx=".71" ry=".67" fill="url(#lecbvxj4e)"/><ellipse cx="33.95" cy="16.79" rx=".63" ry=".6" fill="url(#mecbvxj4e)"/><ellipse cx="38.66" cy="17.88" rx=".54" ry=".52" fill="url(#necbvxj4e)"/><ellipse cx="37.31" cy="18.7" rx=".54" ry=".52" fill="url(#oecbvxj4e)"/><ellipse cx="35.11" cy="19.91" rx=".99" ry=".94" fill="url(#pecbvxj4e)"/><ellipse cx="32.48" cy="21.33" rx=".93" ry=".88" fill="url(#qecbvxj4e)"/><ellipse cx="37.7" cy="21.86" rx="1.06" ry="1" fill="url(#recbvxj4e)"/><ellipse cx="34.92" cy="22.88" rx="1.69" ry="1.6" fill="url(#secbvxj4e)"/><path fill-rule="evenodd" d="m27.97 16.57.88.75a1.7 1.7 0 0 0-1.22 1.63v.1a1.7 1.7 0 1 0 3.41 0v-.1c0-.7-.42-1.3-1.03-1.56l-1.02-.82h1.7v-.59h-2.72v.59Zm1.37 1.39c-.5 0-.9.4-.9.9v.29a.9.9 0 0 0 1.8 0v-.3c0-.5-.4-.9-.9-.9Zm-4.9-.71 1.34 3.26v1.36h.8V20.5l1.32-3.26h-.82l-.88 2.3-.94-2.3h-.82Z" fill="url(#tecbvxj4e)"/><path d="M26 35h4v1h-4v-1Zm0 4h4v1h-4v-1Zm6-2h-8v1h8v-1Z" fill="#00A59F"/><defs><linearGradient id="aecbvxj4e" x1="28" y1="8" x2="28" y2="48" gradientUnits="userSpaceOnUse"><stop stop-color="#00A79B"/><stop offset="1" stop-color="#009BD1"/></linearGradient><linearGradient id="becbvxj4e" x1="33.92" y1="14" x2="32.27" y2="15.03" gradientUnits="userSpaceOnUse"><stop stop-color="#009AD1"/><stop offset="1" stop-color="#00A09D"/></linearGradient><linearGradient id="cecbvxj4e" x1="37.13" y1="13.04" x2="35.11" y2="14.29" gradientUnits="userSpaceOnUse"><stop stop-color="#009AD1"/><stop offset="1" stop-color="#00A09D"/></linearGradient><linearGradient id="decbvxj4e" x1="38.08" y1="15.18" x2="36.95" y2="15.88" gradientUnits="userSpaceOnUse"><stop stop-color="#009AD1"/><stop offset="1" stop-color="#00A09D"/></linearGradient><linearGradient id="eecbvxj4e" x1="36.16" y1="15.64" x2="35.03" y2="16.35" gradientUnits="userSpaceOnUse"><stop stop-color="#009AD1"/><stop offset="1" stop-color="#00A09D"/></linearGradient><linearGradient id="fecbvxj4e" x1="37.24" y1="16.48" x2="36.67" y2="16.84" gradientUnits="userSpaceOnUse"><stop stop-color="#009AD1"/><stop offset="1" stop-color="#00A09D"/></linearGradient><linearGradient id="gecbvxj4e" x1="37.03" y1="19.51" x2="36.46" y2="19.86" gradientUnits="userSpaceOnUse"><stop stop-color="#009AD1"/><stop offset="1" stop-color="#00A09D"/></linearGradient><linearGradient id="hecbvxj4e" x1="33.58" y1="18.21" x2="33.01" y2="18.56" gradientUnits="userSpaceOnUse"><stop stop-color="#009AD1"/><stop offset="1" stop-color="#00A09D"/></linearGradient><linearGradient id="iecbvxj4e" x1="33.57" y1="19.57" x2="33.21" y2="19.8" gradientUnits="userSpaceOnUse"><stop stop-color="#009AD1"/><stop offset="1" stop-color="#00A09D"/></linearGradient><linearGradient id="jecbvxj4e" x1="34.28" y1="18.59" x2="33.92" y2="18.81" gradientUnits="userSpaceOnUse"><stop stop-color="#009AD1"/><stop offset="1" stop-color="#00A09D"/></linearGradient><linearGradient id="kecbvxj4e" x1="36.49" y1="20.65" x2="36.13" y2="20.87" gradientUnits="userSpaceOnUse"><stop stop-color="#009AD1"/><stop offset="1" stop-color="#00A09D"/></linearGradient><linearGradient id="lecbvxj4e" x1="35.92" y1="17.54" x2="34.79" y2="18.24" gradientUnits="userSpaceOnUse"><stop stop-color="#009AD1"/><stop offset="1" stop-color="#00A09D"/></linearGradient><linearGradient id="mecbvxj4e" x1="34.42" y1="16.48" x2="33.41" y2="17.11" gradientUnits="userSpaceOnUse"><stop stop-color="#009AD1"/><stop offset="1" stop-color="#00A09D"/></linearGradient><linearGradient id="necbvxj4e" x1="39.07" y1="17.61" x2="38.2" y2="18.16" gradientUnits="userSpaceOnUse"><stop stop-color="#009AD1"/><stop offset="1" stop-color="#00A09D"/></linearGradient><linearGradient id="oecbvxj4e" x1="37.71" y1="18.43" x2="36.84" y2="18.98" gradientUnits="userSpaceOnUse"><stop stop-color="#009AD1"/><stop offset="1" stop-color="#00A09D"/></linearGradient><linearGradient id="pecbvxj4e" x1="35.85" y1="19.43" x2="34.26" y2="20.42" gradientUnits="userSpaceOnUse"><stop stop-color="#009AD1"/><stop offset="1" stop-color="#00A09D"/></linearGradient><linearGradient id="qecbvxj4e" x1="33.17" y1="20.88" x2="31.68" y2="21.8" gradientUnits="userSpaceOnUse"><stop stop-color="#009AD1"/><stop offset="1" stop-color="#00A09D"/></linearGradient><linearGradient id="recbvxj4e" x1="38.49" y1="21.34" x2="36.8" y2="22.39" gradientUnits="userSpaceOnUse"><stop stop-color="#009AD1"/><stop offset="1" stop-color="#00A09D"/></linearGradient><linearGradient id="secbvxj4e" x1="36.18" y1="22.05" x2="33.47" y2="23.74" gradientUnits="userSpaceOnUse"><stop stop-color="#009AD1"/><stop offset="1" stop-color="#00A09D"/></linearGradient><linearGradient id="tecbvxj4e" x1="27.74" y1="15.98" x2="27.74" y2="21.87" gradientUnits="userSpaceOnUse"><stop stop-color="#01A79D"/><stop offset="1" stop-color="#019CD0"/></linearGradient></defs></svg>