<!-- by TradingView --><svg width="56" height="56" viewBox="0 0 56 56" xmlns="http://www.w3.org/2000/svg"><path fill="#0247FE" d="M0 0h56v56H0z"/><path fill-rule="evenodd" d="M20 27.9v-1.25L27.1 20h1.7a4.37 4.37 0 0 1 2.18 8.17A4.55 4.55 0 0 1 29.45 37H20v-9.1Zm7.83-3.9H23.5v3h4.33a1.5 1.5 0 1 0 0-3Zm-4.33 6h5a2 2 0 1 1 0 4h-5v-4Z" fill="#fff"/><path d="M41.48 20A9.46 9.46 0 0 1 48 22.4l-2.5 2.36s-1.81-1.65-3.76-1.57c-1.95.07-2.46.84-2.47 1.26 0 .35-.5 1.6 3.23 2.36 3.73.76 5.5 2.24 5.5 4.96 0 2.7-1.52 5.26-5.88 5.23-3.5-.03-6.2-1.73-7.12-2.59l2.15-2.64c1.01 1 3.51 2.23 4.97 2.1 1.45-.12 2.43-.72 2.4-1.63-.03-.92-.63-1.45-2.78-2.05-2.15-.6-6.08-1.45-6.08-4.86 0-3.44 1.78-5.23 5.82-5.33Z" fill="#fff"/><path fill-rule="evenodd" d="M17 24.89a.46.46 0 0 0 .28-.43c0-.25-.2-.46-.46-.46-.25 0-.45.2-.45.46 0 .2.12.36.28.43v3.85l-.94.82.09-.9a.46.46 0 0 0 .38-.45c0-.18-.1-.33-.25-.4l.3-1.25a.46.46 0 0 0 .22-.4.46.46 0 0 0-.5-.46l-.51-.56c.07-.1.1-.24.1-.37a.65.65 0 0 0-.64-.67c-.36 0-.65.3-.65.67 0 .36.3.66.65.66.12 0 .22-.03.32-.09l.46.5a.47.47 0 0 0 .23.77l-.27 1.15a.46.46 0 0 0-.36.36l-1.17.37-1.1-1.12a.47.47 0 0 0 .03-.18c0-.26-.2-.46-.45-.46a.46.46 0 0 0-.45.48l-.9.24a.45.45 0 0 0-.35-.16c-.25 0-.45.2-.45.46 0 .25.2.46.45.46s.46-.2.46-.46v-.01l.9-.25c.07.1.2.16.33.16l.5 2.5a.47.47 0 0 0-.2.38c0 .25.2.46.45.46.11 0 .21-.04.3-.11l.27.25-2.27 1.96-.3-.31.31-1.23.12.01c.36 0 .65-.3.65-.66a.65.65 0 0 0-.65-.66.64.64 0 0 0-.42.17l-.66-.68a.46.46 0 0 0-.33-.59v-2.79c.3-.05.54-.32.54-.65a.65.65 0 0 0-.64-.67c-.36 0-.65.3-.65.67 0 .27.17.51.4.6v2.91a.47.47 0 0 0-.2.39c0 .16.08.3.2.39V37h7V24.89Zm-1.68 3.53c.04.08.1.15.19.2l-.12 1.15-1.04-1.04.97-.31Zm-2 1.64.58-1.36-1.02-1.03.44 2.4Zm.46.47c0-.17-.08-.31-.2-.4l.54-1.2L15.2 30l-1.08.93-.35-.31.01-.1Zm-3.43-.48V33l.7-.29.32-1.28a.67.67 0 0 1-.2-.78l-.67-.67a.44.44 0 0 1-.15.07Zm1.05 3.23-.26-.28-.8.33v.87l1.06-.92ZM17.21 16.77l-.63-.65a.73.73 0 0 0-1-1L14.48 14l-3.52.99a.73.73 0 0 0-1.43.22c0 .3.2.57.47.67l-.28 1.01c-.31 0-.56.25-.56.55 0 .2.11.38.28.47L9 19.5l1.1 1.11a.73.73 0 0 0 1 1.01l.65.63a.55.55 0 0 0 .5.76c.28 0 .5-.2.55-.47l.86-.25a.73.73 0 0 0 1.36-.4l1.49-.45.4-1.56c.3 0 .54-.25.54-.55 0-.2-.11-.38-.28-.47l.28-1.05c.3 0 .55-.24.55-.54a.55.55 0 0 0-.79-.5Zm-6.93-.84L10 16.97a.55.55 0 0 1 .22.67l.79.7a.55.55 0 0 1 .67 0l1.85-1.94-2.67-.77a.73.73 0 0 1-.58.3Zm.7-.57 2.37.69-1.03-1.15-1.33.38-.01.08Zm6.01 1.6-.61-.63a.73.73 0 0 1-1.03-.2l-1.42.32-.25 1.28a.72.72 0 0 1 .24 1.02l.6.67a.55.55 0 0 1 .8.19l1.03-.32c.02-.29.26-.5.54-.51l.28-1.05a.55.55 0 0 1-.18-.78Zm-1.76-1.23c0-.16.05-.3.14-.42l-.98-.99-1.76.5 1.22 1.35 1.4-.32a.73.73 0 0 1-.02-.12Zm-1.67 6.18c0-.16.05-.3.13-.42l-2.13-2.21a.55.55 0 0 1-.18.04l-.32 1.05a.72.72 0 0 1 .26 1.04l.6.6a.55.55 0 0 1 .84.23l.8-.24v-.1Zm.73-.73h.06l.2-.85a.54.54 0 0 1-.21-.68l-.63-.7a.73.73 0 0 1-1.05-.26l-.77.2a.54.54 0 0 1-.1.21l2.11 2.2c.12-.08.25-.12.39-.12Zm-.89-3.55h-.1a.73.73 0 0 0-.72.79l-.71.18-.01-.03 1.7-1.79-.16.85Zm1.22 3.63c.14.08.26.2.33.33l1.32-.4.36-1.4a.55.55 0 0 1-.22-.22l-1.02.32a.55.55 0 0 1-.55.53h-.02l-.2.84Zm-3.84-.97.31-1.03a.55.55 0 0 1-.26-.68l-.78-.71c-.1.07-.2.12-.33.12l-.4 1.42 1 1a.73.73 0 0 1 .46-.12Z" fill="#fff"/></svg>