<!-- by TradingView --><svg width="56" height="56" xmlns="http://www.w3.org/2000/svg"><path fill="#223E7A" d="M0 0h56v56H0z"/><path d="M22 36c-1.202.894-4.758 2.5-5.996 3 1.757 1.074 4.168.995 4.996 1 4.063-.864 9.187-3.008 11.199-3.972 1.792-1.024 6.267-3.87 9.826-7.062C45.583 25.773 47.49 22.3 48 20.963c-2.078 2.524-4.74 4.883-5.81 5.748C43.715 24.597 43.981 23.44 44 23c-1.153 1.266-3.846 3.475-5.124 4.548C40.086 26.03 40.874 24.496 41 24c-1.325 1.355-3.885 3.289-4.882 4.006 1.01-.957 1.393-2.046 1.459-2.471C35.917 27.188 32.623 29.908 31 31h2c.209.151.632.452.707.516.076.065.423.123.588.144.579.21.475 1.008.325 1.432-.049-.297-.203-.415-.274-.437h-1.212L31 34c-2.404-.959-7.868-7.216-10.38-10.34-3.585-4.294-4.903-9.562-5.114-11.66-1.603 3.226.088 8.01 1.133 9.998-2.087-1.853-2.837-5.766-2.952-7.492-1.644 2.724.44 7.674 1.687 9.808-1.497-1.177-2.732-4.105-3.163-5.422-.8 3.226 1.775 6.974 3.163 8.445-1.476-1.046-2.864-3.356-3.373-4.337-.064 3.465 6.766 10.13 9.999 13z" fill="#fff"/></svg>