<!-- by TradingView --><svg xmlns="http://www.w3.org/2000/svg" width="56" height="56" viewBox="0 0 56 56"><path fill="#F0F3FA" d="M0 0h56v56H0z"/><path fill="#BBB" d="M8 23h2v12H8zM34 23h2v12h-2zM11 23h2v12h-2z"/><path d="M12.84 23H11v12h1.84v-8.26c.53-1.3 1.64-2.25 2.91-2.25 3.14 0 3.25 2.4 3.25 4V35h2v-7.75A4.3 4.3 0 0 0 16.65 23c-1.64 0-3.07.88-3.8 2.18V23zM33 17h-2v6.93a3.27 3.27 0 0 0-2.29-.93h-.95A5.77 5.77 0 0 0 22 28.78v.44A5.77 5.77 0 0 0 27.76 35H33V17zm-2 8.39v7.88h-2.7a4.28 4.28 0 0 1-4.3-4.28v-.33a4.28 4.28 0 0 1 4.3-4.27H29c.82 0 1.54.4 1.99 1z" fill="#BBB"/><path fill-rule="evenodd" d="M48 29v-1.2c0-2.65-2.27-4.8-5.08-4.8-3.69 0-5.92 2.51-5.92 5.6v.67c0 3.17 2.7 5.73 6.05 5.73h.07c.87-.02 2.76-.3 4.38-1.3v-2.02c-.6.51-2.2 1.6-4.45 1.6-2.62 0-3.88-1.99-4.03-4.28H48zm-1.93-1.5c-.37-2.15-1.9-2.99-3.35-2.99a4 4 0 0 0-3.6 2.99h6.95z" fill="#BBB"/><circle cx="35" cy="19.75" r="1.25" fill="#90CE45"/></svg>