<!-- by TradingView --><svg xmlns="http://www.w3.org/2000/svg" width="56" height="56" viewBox="0 0 56 56"><path fill="#F0F3FA" d="M0 0h56v56H0z"/><path d="M25 11.34A.67.67 0 1 0 25 10a.67.67 0 0 0 0 1.34Zm5.37 1.92a.67.67 0 1 0 0-1.34.67.67 0 0 0 0 1.34Zm-3.55-.97a.58.58 0 1 1-1.16 0 .58.58 0 0 1 1.16 0Zm-2.21 1.26a.48.48 0 1 0 0-.96.48.48 0 0 0 0 .96Zm.2 1.25a.48.48 0 1 1-.97 0 .48.48 0 0 1 .96 0Zm.95 0a.48.48 0 1 0 0-.96.48.48 0 0 0 0 .96Zm4.32-.25a.48.48 0 1 1-.96 0 .48.48 0 0 1 .96 0Zm-2.04.8a.48.48 0 1 0 0-.96.48.48 0 0 0 0 .96Zm-.98.04a.48.48 0 1 1-.96 0 .48.48 0 0 1 .96 0Zm-1.7.98a.43.43 0 1 0 0-.87.43.43 0 0 0 0 .87Zm-.85.11c0 .21-.17.38-.38.38a.38.38 0 0 1-.39-.38c0-.21.18-.39.39-.39.21 0 .38.18.38.39Zm4.23-2.93a.58.58 0 1 0 0-1.15.58.58 0 0 0 0 1.15Zm3.26.76a.58.58 0 1 1-1.15 0 .58.58 0 0 1 1.15 0Zm-3.52 2.31a.43.43 0 1 0 0-.86.43.43 0 0 0 0 .86Zm-.92-.14a.38.38 0 1 1-.77 0 .38.38 0 0 1 .77 0Zm-1.58.67a.38.38 0 1 0 0-.77.38.38 0 0 0 0 .77Zm-.7.06a.34.34 0 1 1-.67 0 .34.34 0 0 1 .67 0Zm-1.3 1c.2 0 .34-.14.34-.33a.34.34 0 0 0-.33-.34.34.34 0 0 0-.34.34c0 .2.15.34.34.34Zm6.48-2.36a.48.48 0 1 1-.96 0 .48.48 0 0 1 .96 0Zm-1.35 2.02a.43.43 0 1 0 0-.86.43.43 0 0 0 0 .86Zm-.9-.36a.38.38 0 1 1-.77 0 .38.38 0 0 1 .77 0Zm-1.59.73a.38.38 0 1 0 0-.77.38.38 0 0 0 0 .77Zm-.67-.03a.34.34 0 1 1-.67 0 .34.34 0 0 1 .67 0Zm-1.3.81c.2 0 .34-.14.34-.33a.34.34 0 0 0-.33-.34.34.34 0 0 0-.34.34c0 .19.15.33.34.33Zm-.65.33c0 .2-.16.35-.35.35a.35.35 0 0 1-.35-.35c0-.2.16-.35.35-.35.2 0 .35.16.35.35ZM30.5 18a.5.5 0 1 0 0-1 .5.5 0 0 0 0 1Z" fill="#0580B7"/><path d="M44.72 22.75A.64.64 0 0 0 46 22.6a.4.4 0 0 0 0-.08.65.65 0 0 0-1.28.23Zm-1.37 5.66a.67.67 0 1 0 1.33-.24.67.67 0 0 0-1.33.24Zm.33-3.67a.58.58 0 1 1-.2-1.13.58.58 0 0 1 .2 1.13Zm-1-1.95a.48.48 0 1 0 .94-.17.48.48 0 0 0-.94.17Zm-1.5.41a.48.48 0 1 1-.17-.94.48.48 0 0 1 .17.94Zm-.15.95a.48.48 0 1 0 .94-.17.48.48 0 0 0-.94.17Zm1.01 4.2a.48.48 0 1 1-.17-.94.48.48 0 0 1 .17.94Zm-1.15-1.87a.48.48 0 1 0 .94-.17.48.48 0 0 0-.94.17Zm-.22-.95a.48.48 0 1 1-.17-.94.48.48 0 0 1 .17.94Zm-1.26-1.5a.43.43 0 1 0 .85-.16.43.43 0 0 0-.85.16Zm.06-.81a.38.38 0 0 1-.44-.31c-.04-.21.1-.41.3-.45.22-.04.42.1.46.31.03.2-.1.4-.32.45Zm3.31 3.63a.58.58 0 1 0 1.13-.2.58.58 0 0 0-1.13.2Zm-.3 3.15a.55.55 0 0 1-.54-.46.58.58 0 0 1 1.13-.2.57.57 0 0 1-.59.66Zm-2.77-2.85a.43.43 0 1 0 .85-.16.43.43 0 0 0-.85.16Zm-.02-.94a.38.38 0 1 1-.13-.75.38.38 0 0 1 .13.75Zm-.94-1.43a.38.38 0 1 0 .75-.13.38.38 0 0 0-.75.14Zm-.18-.68a.34.34 0 1 1-.12-.66.34.34 0 0 1 .12.66ZM37.35 23c.03.19.2.31.38.28.19-.03.3-.2.28-.4a.34.34 0 0 0-.4-.26c-.18.03-.3.2-.26.39Zm3.47 5.96a.48.48 0 1 1-.17-.94.48.48 0 0 1 .17.94ZM38.6 28a.43.43 0 1 0 .85-.15.43.43 0 0 0-.85.15Zm.07-.98a.38.38 0 1 1-.13-.76.38.38 0 0 1 .13.76Zm-.87-1.4a.38.38 0 1 0 .75-.14.38.38 0 0 0-.75.14Zm-.1-.67a.34.34 0 1 1-.11-.66.34.34 0 0 1 .12.66Zm-1.03-1.13c.04.18.2.3.39.27.18-.03.3-.2.27-.39a.34.34 0 0 0-.39-.27c-.18.04-.3.2-.27.4Zm-.34-.57a.33.33 0 0 1-.4-.27.33.33 0 0 1 .28-.39c.18-.03.36.09.39.27a.34.34 0 0 1-.27.4Zm2.53 6.18a.48.48 0 1 0 .94-.18.48.48 0 0 0-.94.18Z" fill="#9E2878"/><path d="M37 13.37a.67.67 0 1 0 .86-1.03.67.67 0 0 0-.86 1.03Zm2.88 4.92a.67.67 0 1 0 .87-1.03.67.67 0 0 0-.87 1.03Zm-2.1-3.02a.58.58 0 1 1-.88-.74.58.58 0 0 1 .89.74Zm-2.5-.46a.48.48 0 1 0 .62-.73.48.48 0 0 0-.61.73Zm-.65 1.08a.48.48 0 1 1-.73-.62.48.48 0 0 1 .73.62Zm.74.62a.48.48 0 1 0 .62-.74.48.48 0 0 0-.62.74Zm3.47 2.58a.48.48 0 1 1-.74-.62.48.48 0 0 1 .74.62Zm-2.09-.7a.48.48 0 1 0 .62-.73.48.48 0 0 0-.62.73Zm-.77-.59a.48.48 0 1 1-.73-.62.48.48 0 0 1 .73.62Zm-1.93-.35a.43.43 0 1 0 .55-.66.43.43 0 0 0-.55.66Zm-.72-.46a.38.38 0 0 1-.54.05.38.38 0 0 1-.05-.54.39.39 0 0 1 .55-.05c.16.14.18.38.04.54Zm5.12.47a.58.58 0 1 0 .74-.88.58.58 0 0 0-.74.88Zm1.99 2.67a.58.58 0 1 1-.88-.74.58.58 0 0 1 .88.74Zm-4.16-.48a.43.43 0 1 0 .55-.66.43.43 0 0 0-.55.66Zm-.61-.7a.38.38 0 1 1-.6-.5.38.38 0 0 1 .6.5Zm-1.64-.5a.38.38 0 1 0 .49-.58.38.38 0 0 0-.5.58Zm-.58-.4a.34.34 0 1 1-.51-.44.34.34 0 0 1 .51.44Zm-1.64-.06c.14.11.35.1.47-.04a.34.34 0 0 0-.04-.48.34.34 0 0 0-.47.04c-.12.15-.1.36.04.48Zm6.48 2.35a.48.48 0 1 1-.73-.62.48.48 0 0 1 .73.62Zm-2.33.67a.43.43 0 1 0 .55-.66.43.43 0 0 0-.55.66Zm-.57-.8a.38.38 0 1 1-.59-.5.38.38 0 0 1 .6.5Zm-1.57-.51a.38.38 0 1 0 .5-.6.38.38 0 0 0-.5.6Zm-.5-.46a.34.34 0 1 1-.51-.43.34.34 0 0 1 .51.43Zm-1.51-.2c.14.11.35.1.47-.05a.34.34 0 0 0-.04-.47.34.34 0 0 0-.48.04c-.12.15-.1.35.05.47Zm-.63-.22a.33.33 0 0 1-.48.04.33.33 0 0 1-.04-.48.34.34 0 0 1 .48-.04c.14.12.16.33.04.48Zm5.56 3.33a.5.5 0 1 0 .64-.77.5.5 0 0 0-.64.77Z" fill="#666"/><path d="M43.6 33.85a.67.67 0 0 0 1.22.58c.04-.1.06-.2.06-.3a.65.65 0 0 0-.38-.6.67.67 0 0 0-.9.32Zm-3.74 4.07a.67.67 0 1 0 1.2.57.67.67 0 0 0-1.2-.57Zm2.4-2.8a.58.58 0 1 1 .49-1.03.58.58 0 0 1-.5 1.04Zm-.2-2.53a.48.48 0 1 0 .87.41.48.48 0 0 0-.87-.4Zm-1.2-.36a.48.48 0 1 1 .4-.87.48.48 0 0 1-.4.87Zm-.42.87a.48.48 0 1 0 .87.41.48.48 0 0 0-.87-.41Zm-1.62 4a.48.48 0 1 1 .41-.86.48.48 0 0 1-.41.87Zm.15-2.18a.48.48 0 1 0 .87.4.48.48 0 0 0-.87-.4Zm.38-.9a.48.48 0 1 1 .4-.87.48.48 0 0 1-.4.87Zm-.15-1.96a.43.43 0 1 0 .78.37.43.43 0 0 0-.78-.37Zm.26-.81a.38.38 0 0 1-.18-.51c.1-.2.32-.28.51-.18.2.09.28.32.19.5-.1.2-.33.28-.52.19Zm.84 5.07a.58.58 0 1 0 1.04.5.58.58 0 0 0-1.05-.5Zm-2.08 2.62a.58.58 0 1 1 .5-1.04.58.58 0 0 1-.5 1.04Zm-.59-4.17a.43.43 0 1 0 .78.37.43.43 0 0 0-.78-.37Zm.53-.77a.38.38 0 1 1 .33-.7.38.38 0 0 1-.33.7Zm.06-1.7a.38.38 0 1 0 .7.32.38.38 0 0 0-.7-.33Zm.25-.67a.34.34 0 1 1 .29-.6.34.34 0 0 1-.29.6Zm-.35-1.6a.33.33 0 0 0 .15.44c.17.08.37.01.45-.15a.34.34 0 0 0-.16-.45.33.33 0 0 0-.44.16Zm-.65 6.86a.48.48 0 1 1 .42-.86.48.48 0 0 1-.42.86Zm-1.24-2.08a.43.43 0 1 0 .78.37.43.43 0 0 0-.78-.37Zm.64-.75a.38.38 0 1 1 .32-.7.38.38 0 0 1-.32.7Zm.1-1.66a.38.38 0 1 0 .7.33.38.38 0 0 0-.7-.33Zm.31-.59a.34.34 0 1 1 .3-.6.34.34 0 0 1-.3.6Zm-.18-1.52a.33.33 0 0 0 .16.45c.17.08.37 0 .45-.16a.34.34 0 0 0-.16-.45.33.33 0 0 0-.45.16Zm.09-.64a.36.36 0 0 1-.2-.31c0-.18.17-.34.34-.34.24 0 .41.28.3.49a.34.34 0 0 1-.44.16Zm-1.58 6.47a.48.48 0 1 0 .87.4.48.48 0 0 0-.87-.4Z" fill="#FF0001"/><path d="M14.9 39a.67.67 0 1 0 .04 1.34.67.67 0 0 0-.03-1.34Zm-.65-5.31a.67.67 0 0 0-.93-.22.63.63 0 0 0-.32.54c0 .13.03.27.1.39a.67.67 0 1 0 1.15-.71Zm1.09 3.52a.58.58 0 1 1 .6.98.58.58 0 0 1-.6-.98Zm2.23 1.2a.48.48 0 1 0-.81.51.48.48 0 0 0 .81-.5Zm.96-.82a.48.48 0 1 1 .5.82.48.48 0 0 1-.5-.82Zm-.5-.8a.48.48 0 1 0-.82.5.48.48 0 0 0 .81-.5Zm-2.5-3.54a.48.48 0 1 1 .5.81.48.48 0 0 1-.5-.81Zm1.76 1.3a.48.48 0 1 0-.81.51.48.48 0 0 0 .81-.5Zm.55.81a.48.48 0 1 1 .5.82.48.48 0 0 1-.5-.82Zm1.73.94a.43.43 0 1 0-.73.45.43.43 0 0 0 .73-.45Zm.54.65a.38.38 0 0 1 .53.13c.1.18.06.41-.12.52a.39.39 0 0 1-.54-.12.39.39 0 0 1 .13-.53Zm-4.72-2.04a.58.58 0 1 0-.98.61.58.58 0 0 0 .98-.6Zm-1.06-3.14a.58.58 0 1 1 .6.97.58.58 0 0 1-.6-.97Zm3.8 1.74a.43.43 0 1 0-.73.46.43.43 0 0 0 .73-.46Zm.37.86a.38.38 0 1 1 .4.65.38.38 0 0 1-.4-.65Zm1.4.98a.38.38 0 1 0-.65.4.38.38 0 0 0 .65-.4Zm.42.56a.34.34 0 1 1 .36.57.34.34 0 0 1-.36-.57Zm1.54.57a.33.33 0 0 0-.46-.1c-.16.09-.2.3-.1.46.1.15.3.2.46.1.16-.1.2-.3.1-.46Zm-5.43-4.25a.48.48 0 1 1 .51.81.48.48 0 0 1-.5-.81Zm2.43.08a.43.43 0 1 0-.73.46.43.43 0 0 0 .73-.46Zm.29.94a.38.38 0 1 1 .4.65.38.38 0 0 1-.4-.65Zm1.33.98a.38.38 0 1 0-.65.4.38.38 0 0 0 .65-.4Zm.33.59a.34.34 0 1 1 .36.57.34.34 0 0 1-.36-.57Zm1.38.66a.33.33 0 0 0-.46-.1c-.16.1-.2.3-.11.46.1.16.3.2.47.1.15-.1.2-.3.1-.46Zm.53.4c.16-.1.37-.04.46.12.1.15.06.36-.1.46a.34.34 0 0 1-.47-.1.34.34 0 0 1 .11-.47Zm-4.63-4.8a.48.48 0 1 0-.81.51.48.48 0 0 0 .81-.5Z" fill="#99CF16"/><path d="M11.35 28.1a.67.67 0 0 0-.63-.71c-.37-.02-.72.26-.72.63s.26.69.63.71c.37.02.7-.26.72-.63Zm2.38-4.93a.67.67 0 1 0-1.33-.22.67.67 0 0 0 1.33.22Zm-1.54 3.34a.58.58 0 1 1-.2 1.14.58.58 0 0 1 .2-1.14Zm.87 2.38a.48.48 0 1 0-.94-.15.48.48 0 0 0 .94.15Zm1.27.02a.48.48 0 1 1-.16.95.48.48 0 0 1 .16-.95Zm.15-.95a.48.48 0 1 0-.94-.15.48.48 0 0 0 .94.15Zm.47-4.3a.48.48 0 1 1-.16.95.48.48 0 0 1 .16-.95Zm.45 2.15a.48.48 0 1 0-.94-.16.48.48 0 0 0 .94.16Zm-.12.97a.48.48 0 1 1-.15.94.48.48 0 0 1 .15-.94Zm.68 1.84a.43.43 0 1 0-.85-.14.43.43 0 0 0 .85.14Zm-.02.85c.2.04.34.23.3.44a.38.38 0 0 1-.43.32.39.39 0 0 1-.32-.44c.04-.21.24-.35.45-.32Zm-2.2-4.65a.58.58 0 1 0-1.13-.19.58.58 0 0 0 1.13.2Zm1.28-3.06a.58.58 0 1 1-.19 1.13.58.58 0 0 1 .2-1.13Zm1.7 3.82a.43.43 0 1 0-.84-.14.43.43 0 0 0 .85.14Zm-.29.89a.38.38 0 1 1-.12.75.38.38 0 0 1 .13-.75Zm.41 1.66a.38.38 0 1 0-.76-.13.38.38 0 0 0 .76.13Zm-.06.7a.34.34 0 1 1-.1.67.34.34 0 0 1 .1-.67Zm.78 1.45a.33.33 0 0 0-.27-.39.34.34 0 0 0-.39.28c-.03.18.1.35.28.38.18.03.35-.09.38-.27ZM16.3 23.5a.48.48 0 1 1-.16.95.48.48 0 0 1 .16-.95Zm1.76 1.67a.43.43 0 1 0-.85-.15.43.43 0 0 0 .85.15Zm-.4.9a.38.38 0 1 1-.12.75.38.38 0 0 1 .12-.76Zm.36 1.6a.38.38 0 1 0-.76-.12.38.38 0 0 0 .76.13Zm-.14.66a.34.34 0 1 1-.11.67.34.34 0 0 1 .1-.66Zm.59 1.42a.33.33 0 0 0-.28-.39.34.34 0 0 0-.39.28c-.03.18.1.35.28.38.19.03.36-.09.39-.27Zm.13.65c.19.03.3.2.27.39-.03.18-.2.3-.38.27a.34.34 0 0 1-.28-.38c.03-.19.2-.3.4-.28Zm-.3-6.66a.48.48 0 1 0-.94-.16.48.48 0 0 0 .94.16Z" fill="#67C3B7"/><path d="M14.65 17.04a.67.67 0 1 0-.92-.98.67.67 0 0 0 .92.98Zm5.23-2.28a.67.67 0 1 0-.91-.98.67.67 0 0 0 .91.98Zm-3.25 1.72a.58.58 0 1 1-.84.8.58.58 0 0 1 .84-.8Zm-.75 2.43a.48.48 0 1 0-.66-.7.48.48 0 0 0 .66.7Zm1 .78a.48.48 0 1 1-.7.66.48.48 0 0 1 .7-.66Zm.7-.66a.48.48 0 1 0-.66-.7.48.48 0 0 0 .65.7Zm2.97-3.13a.48.48 0 1 1-.7.65.48.48 0 0 1 .7-.65Zm-.94 1.98a.48.48 0 1 0-.66-.7.48.48 0 0 0 .66.7Zm-.68.7a.48.48 0 1 1-.7.65.48.48 0 0 1 .7-.65Zm-.58 1.88a.43.43 0 1 0-.6-.63.43.43 0 0 0 .6.63Zm-.54.65c.15.16.14.4-.02.54a.38.38 0 0 1-.54-.01.39.39 0 0 1 .02-.55c.15-.14.4-.13.54.02Zm1.08-5.02a.58.58 0 1 0-.79-.84.58.58 0 0 0 .8.84Zm2.88-1.66a.58.58 0 1 1-.84.79.58.58 0 0 1 .84-.79Zm-.97 4.08a.43.43 0 1 0-.59-.63.43.43 0 0 0 .6.63Zm-.77.52a.38.38 0 1 1-.56.52.38.38 0 0 1 .56-.52Zm-.69 1.57a.38.38 0 1 0-.52-.56.38.38 0 0 0 .52.56Zm-.47.52a.34.34 0 1 1-.49.46.34.34 0 0 1 .5-.46Zm-.26 1.62a.33.33 0 0 0 .02-.47.34.34 0 0 0-.48-.02.34.34 0 0 0 0 .48c.12.14.33.14.46.01Zm3.12-6.15a.48.48 0 1 1-.7.66.48.48 0 0 1 .7-.66Zm.39 2.4a.43.43 0 1 0-.6-.64.43.43 0 0 0 .6.63Zm-.87.46a.38.38 0 1 1-.56.53.38.38 0 0 1 .56-.53Zm-.7 1.5a.38.38 0 1 0-.52-.56.38.38 0 0 0 .52.56Zm-.5.44a.34.34 0 1 1-.5.46.34.34 0 0 1 .5-.46Zm-.4 1.48a.33.33 0 0 0 .02-.47.34.34 0 0 0-.47-.02.34.34 0 0 0-.02.48c.13.13.34.14.47.01Zm-.29.6a.33.33 0 1 1-.49.46.34.34 0 0 1 .02-.48.34.34 0 0 1 .47.02ZM23.17 18a.48.48 0 1 0-.65-.7.48.48 0 0 0 .65.7Z" fill="#018837"/><path d="M36.78 42.56a.67.67 0 1 0 .6 1.2.67.67 0 0 0-.6-1.2Zm-5.66.71a.67.67 0 1 0 .6 1.2.67.67 0 0 0-.6-1.2Zm3.6-.74a.58.58 0 1 1 1.03-.52.58.58 0 0 1-1.03.52Zm1.4-2.11a.48.48 0 1 0 .44.85.48.48 0 0 0-.44-.85Zm-.73-1.03a.48.48 0 1 1 .86-.43.48.48 0 0 1-.86.43Zm-.86.43a.48.48 0 1 0 .44.86.48.48 0 0 0-.44-.86ZM30.8 42a.48.48 0 1 1 .86-.44.48.48 0 0 1-.86.44Zm1.46-1.64a.48.48 0 1 0 .44.85.48.48 0 0 0-.44-.85Zm.85-.48a.48.48 0 1 1 .86-.43.48.48 0 0 1-.86.43Zm1.09-1.64a.43.43 0 1 0 .39.77.43.43 0 0 0-.4-.77Zm.7-.48a.38.38 0 0 1 .17-.51c.19-.1.42-.03.51.16.1.2.02.43-.16.52a.39.39 0 0 1-.52-.17Zm-2.45 4.52a.58.58 0 1 0 .52 1.03.58.58 0 0 0-.52-1.03Zm-3.23.78a.58.58 0 1 1 1.03-.52.58.58 0 0 1-1.03.52Zm2.08-3.64a.43.43 0 1 0 .39.77.43.43 0 0 0-.4-.77Zm.88-.28a.38.38 0 1 1 .69-.35.38.38 0 0 1-.69.35Zm1.1-1.32a.38.38 0 1 0 .35.69.38.38 0 0 0-.35-.69Zm.6-.36a.34.34 0 1 1 .6-.3.34.34 0 0 1-.6.3Zm.7-1.49a.33.33 0 0 0-.15.45c.09.17.3.23.46.15a.34.34 0 0 0 .14-.45.33.33 0 0 0-.45-.15ZM29.87 41a.48.48 0 1 1 .85-.43.48.48 0 0 1-.86.43Zm.29-2.4a.43.43 0 1 0 .39.77.43.43 0 0 0-.4-.78Zm.96-.21a.38.38 0 1 1 .68-.35.38.38 0 0 1-.68.35Zm1.1-1.24a.38.38 0 1 0 .34.68.38.38 0 0 0-.35-.68Zm.6-.28a.34.34 0 1 1 .6-.3.34.34 0 0 1-.6.3Zm.8-1.31a.33.33 0 0 0-.16.45c.09.16.29.23.45.15a.34.34 0 0 0 .15-.46.33.33 0 0 0-.45-.14Zm.44-.5a.33.33 0 0 1 .15-.45.33.33 0 0 1 .45.15c.08.16.02.37-.15.45a.34.34 0 0 1-.45-.15Zm-5.2 4.19a.48.48 0 1 0 .44.86.48.48 0 0 0-.43-.86Z" fill="#FF6601"/><path d="M26.04 44.68a.67.67 0 0 0-.79.53c-.08.42.24.79.65.79.32 0 .6-.2.67-.54a.67.67 0 0 0-.53-.78Zm-4.89-2.9a.67.67 0 1 0-.25 1.32.67.67 0 0 0 .25-1.32Zm3.3 1.62a.58.58 0 1 1 1.14.22.58.58 0 0 1-1.13-.22Zm2.41-.82a.48.48 0 1 0-.18.94.48.48 0 0 0 .18-.94Zm.05-1.26a.48.48 0 1 1 .94.18.48.48 0 0 1-.94-.18Zm-.95-.18a.48.48 0 1 0-.18.94.48.48 0 0 0 .18-.94Zm-4.28-.57a.48.48 0 1 1 .94.19.48.48 0 0 1-.94-.19Zm2.15-.4a.48.48 0 1 0-.18.94.48.48 0 0 0 .18-.94Zm.97.14a.48.48 0 1 1 .94.18.48.48 0 0 1-.94-.18Zm1.86-.63a.43.43 0 1 0-.16.84.43.43 0 0 0 .16-.84Zm.85.04a.38.38 0 0 1 .45-.3.39.39 0 0 1-.14.75.39.39 0 0 1-.31-.45Zm-4.7 2.09a.58.58 0 1 0-.22 1.13.58.58 0 0 0 .22-1.13Zm-3.04-1.36a.58.58 0 1 1 1.13.22.58.58 0 0 1-1.13-.22Zm3.87-1.61a.43.43 0 1 0-.16.85.43.43 0 0 0 .16-.85Zm.87.31a.38.38 0 1 1 .76.15.38.38 0 0 1-.76-.15Zm1.68-.36a.38.38 0 1 0-.15.75.38.38 0 0 0 .15-.75Zm.7.07a.34.34 0 1 1 .66.13.34.34 0 0 1-.66-.13Zm1.46-.74a.33.33 0 0 0-.4.26c-.03.18.1.36.28.4.18.03.35-.09.39-.27a.33.33 0 0 0-.27-.4Zm-6.8 1.1a.48.48 0 1 1 .94.18.48.48 0 0 1-.95-.18Zm1.7-1.73a.43.43 0 1 0-.16.85.43.43 0 0 0 .16-.85Zm.89.43a.38.38 0 1 1 .75.14.38.38 0 0 1-.75-.14Zm1.62-.32a.38.38 0 1 0-.14.76.38.38 0 0 0 .14-.76Zm.66.16a.34.34 0 1 1 .66.12.34.34 0 0 1-.66-.12Zm1.42-.56a.33.33 0 0 0-.39.26c-.03.19.08.37.27.4.18.04.36-.09.39-.27a.33.33 0 0 0-.27-.39Zm.66-.12c.04-.18.21-.3.4-.26.18.03.3.2.26.39a.34.34 0 0 1-.4.27.34.34 0 0 1-.26-.4Zm-6.67.14a.48.48 0 1 0-.18.94.48.48 0 0 0 .18-.94Z" fill="#FFCC01"/></svg>