<!-- by TradingView --><svg width="56" height="56" viewBox="0 0 56 56" xmlns="http://www.w3.org/2000/svg"><path fill="#F0F3FA" d="M0 0h56v56H0z"/><path d="M25.7 45c-.7 0-1.1-.56-1.1-1.24v-7.04l-4.9 5.16c-.51.48-1.33.48-1.83 0-.5-.49-.5-1.28 0-1.76l9.13-9.4v13.04c0 .68-.58 1.24-1.3 1.24Z" fill="#48508D"/><path d="M29 25.23V12.24c0-.68.58-1.24 1.29-1.24.72 0 1.11.56 1.11 1.24v7l4.9-5.12c.51-.48 1.33-.48 1.83 0 .5.49.5 1.28 0 1.76L29 25.23ZM27 25.19l-9.13-9.3c-.5-.5-.5-1.28 0-1.77.5-.48 1.32-.48 1.82 0l4.91 5.07v-6.95c0-.68.4-1.24 1.1-1.24.72 0 1.3.56 1.3 1.24V25.2ZM40.98 38.54c-.32 0-.64-.13-.88-.38L30.6 29h13.15c.7 0 1.25.58 1.25 1.3 0 .72-.56 1.1-1.25 1.1h-7.12l5.23 4.93c.49.5.49 1.33 0 1.83-.24.25-.56.38-.88.38ZM43.75 27H30.6l9.5-9.16c.49-.5 1.28-.5 1.76 0 .49.5.49 1.33 0 1.83l-5.23 4.93h7.12c.7 0 1.25.4 1.25 1.1 0 .72-.56 1.3-1.25 1.3ZM25.46 27H12.25c-.69 0-1.25-.58-1.25-1.3 0-.7.56-1.1 1.25-1.1h7.18l-5.3-4.93a1.33 1.33 0 0 1 0-1.83c.5-.5 1.29-.5 1.77 0L25.46 27ZM30.29 45c-.71 0-1.29-.56-1.29-1.24V30.73l9.13 9.39c.5.48.5 1.27 0 1.76-.5.48-1.32.48-1.82 0l-4.91-5.16v7.04c0 .68-.4 1.24-1.11 1.24ZM15.02 38.54c-.32 0-.64-.13-.88-.38a1.33 1.33 0 0 1 0-1.83l5.33-4.93h-7.22c-.69 0-1.25-.38-1.25-1.1 0-.72.56-1.3 1.25-1.3H25.5l-9.6 9.16c-.24.25-.56.38-.88.38Z" fill="#0DAFD0"/></svg>