<!-- by TradingView --><svg xmlns="http://www.w3.org/2000/svg" width="56" height="56" viewBox="0 0 56 56"><path fill="#F0F3FA" d="M0 0h56v56H0z"/><path d="M27.95 44a16.02 16.02 0 0 0 14.92-21.9c.03.22.04.43.02.61-.2 2.36-4.06 3.28-8.7 2.18-.46 6.05-3.55 18.04-12.22 17.96 1.85.74 3.87 1.15 5.98 1.15zm-14.6-9.35c-.69-1.5-1.15-3.11-1.34-4.8v-.58c.18-11.85 13.45-7.8 19.92-4.85-6.26 17.07-15.21 16.1-18.58 10.23zm-.73-11.4a16.05 16.05 0 0 1 23.92-8.77c-1.56.53-2.67 4-3.07 5.9a104.74 104.74 0 0 0-5.4-1.32c-1.78-.38-6.36-1.38-9.9-.34-2.72.8-4.64 3.05-5.55 4.53zm22.46-2.5c.48-2.04 2.13-5.89 4.3-3.73 2.67 2.67 2.05 4.84-4.3 3.73z" fill="url(#agoadiim2)"/><defs><linearGradient id="agoadiim2" x1="14.21" y1="33.54" x2="42.76" y2="22.92" gradientUnits="userSpaceOnUse"><stop stop-color="#FCAF01"/><stop offset="1" stop-color="#FF4B01"/></linearGradient></defs></svg>