<!-- by TradingView --><svg width="56" height="56" xmlns="http://www.w3.org/2000/svg"><path fill="#01539D" d="M0 0h56v56H0z"/><path d="M22 30s-1.567 4.75-7 5c0 0 3.97-1.25 7-5" fill="#A7BCDB"/><path d="M11 32h1v-6h-1v6zm7 0v-3.757c0-.628.014-1.243-1-1.243-.574 0-1.493.257-2 .47V32h-1v-6h1v.64c1.171-.516 1.633-.65 2.443-.65.845 0 1.557.493 1.557 1.794V32h-1zm7.306-3.01c0 1.352-.714 2.04-1.745 2.01-1.031-.03-1.745-.658-1.745-2.01 0-1.342.746-1.99 1.745-1.99 1 0 1.745.648 1.745 1.99zm1.182 0c0-1.833-1.083-2.968-2.927-2.968-1.855 0-2.927 1.135-2.927 2.967 0 1.79 1.06 3.044 2.927 3.044 1.712 0 2.927-1.266 2.927-3.044zm5.348-.93c.003.699-.786.94-1.385.94s-1.284-.278-1.284-.94c0-.662.626-1.06 1.296-1.06s1.369.361 1.372 1.06zM34 27v-1l-2.789.103c-.215-.033-.385-.103-.748-.103-1.43 0-2.463.777-2.463 2.114 0 .949.512 1.38.92 1.595-.556.378-.92.744-.92 1.283 0 1.013 1.227 1.02 2.406 1.008h.805c.397.011 1.27.092 1.27.63 0 .486-.917.608-2.13.608-.625 0-1.704-.119-2.351-.227v.82c.817.161 1.828.17 2.543.17 1.826 0 3.141-.292 3.141-1.532 0-1.757-2.688-1.35-3.856-1.469-.431-.054-.625-.05-.625-.224 0-.312.364-.614.625-.776.204.032.42.045.623.045 2.065 0 2.549-1.09 2.549-1.942 0-.539-.19-.96-.495-1.24L34 27zm3.997 1.6h-2.996c.034-1.13.69-1.6 1.581-1.6.892 0 1.393.558 1.415 1.6zm1.003.778v-.285c0-1.877-.499-3.093-2.418-3.07C35.1 26.022 34 26.97 34 29c0 1.963.957 3 2.99 3 .637 0 1.318-.106 2.01-.282v-1.017s-1.482.3-2.01.3c-.856-.03-1.672-.247-1.989-1.623H39zM45 32v-3.724c0-.628-.149-1.276-1.163-1.276-.574 0-1.33.29-1.837.503V32h-1v-6h1v.672c1.171-.515 1.41-.65 2.22-.65.845 0 1.78.494 1.78 1.795V32h-1z" fill="#fff"/><path d="M6 21.348S31.63 18.806 23.354 29c0 0 6.278-13.162-17.354-7.652z" fill="#A7BCDB"/></svg>