<!-- by TradingView --><svg width="56" height="56" viewBox="0 0 56 56" xmlns="http://www.w3.org/2000/svg"><path fill="#F0F3FA" d="M0 0h56v56H0z"/><path d="M6.5 32.19v-8.2c0-.86-.4-1.33-1.38-1.42l-.02-.01c-.13-.18-.08-.34.12-.48a.39.39 0 0 1 .2-.07c.66-.03 1.3 0 1.94.12.03 0 .07.03.1.06.01.02.03.06.03.1v11.47c0 .09-.05.23-.15.24h-1.7c-.27.01-.47-.08-.6-.27-.07-.1-.05-.17.07-.21.8-.28 1.39-.42 1.39-1.33ZM9.99 22.6c-.76.14-1 .59-.99 1.42v8.27c0 1.16.87.81 1.24 1.36.02.04.04.09.04.13a.19.19 0 0 1-.03.13.16.16 0 0 1-.05.05 12.44 12.44 0 0 1-2.06-.02c-.1-.01-.14-.06-.14-.16v-11.5c0-.1.05-.17.16-.17l1.92-.1c.13-.02.2.05.2.18.01.2-.13.37-.3.4Z" fill="#03A545"/><path d="M14.03 25.23c-.15-.04-.22.03-.22.2.05 2.01.08 4.57.1 6.88.01.78.97 1.18 1.59 1.32.09.02.15.07.18.16a.12.12 0 0 1 0 .1.1.1 0 0 1-.04.04l-.04.07h-3.66c-.38-.03-.4-.15-.06-.33.55-.3.86-.8.93-1.5.17-1.63.3-4.3.38-7.22.01-.54-.07-.99-.26-1.35a2.32 2.32 0 0 0-1.28-1.06c-.49-.2-.48-.37.02-.52.65-.2 1.5.9 1.9 1.35 3.07 3.51 6.12 6.98 9.15 10.4.17.18.13.26-.1.22-.93-.15-1.41-.8-2.14-1.62l-6.15-6.9c-.12-.15-.22-.22-.3-.24Z" fill="#31322F"/><path d="M21.8 29.72a.17.17 0 0 0 .17.02.18.18 0 0 0 .07-.07.2.2 0 0 0 .03-.1c.04-1.78.03-3.56-.03-5.32a2.49 2.49 0 0 0-.18-.92c-.26-.58-.73-.55-1.21-.76-.39-.16-.37-.28.03-.36 1.17-.22 2.41-.25 3.72-.08.03 0 .06.01.08.03l.04.08v.09a.14.14 0 0 1-.06.06c-.63.42-1.4.19-1.43 1.3-.06 2.05-.13 4.06-.22 6.05-.04.8.03 1.63.12 2.43.02.23-.04.26-.19.09L13.9 22.2a.1.1 0 0 1-.02-.1.1.1 0 0 1 .02-.05.09.09 0 0 1 .05-.02c1.08-.18 1.7.51 2.34 1.29 1.58 1.92 3.32 3.96 5.2 6.11l.3.29Z" fill="#03A545"/><path d="M27.95 25.23c-.16-.04-.23.03-.23.2.05 2.01.08 4.57.1 6.88.01.78.97 1.18 1.59 1.32.09.02.15.07.18.16a.12.12 0 0 1 0 .1.1.1 0 0 1-.04.04l-.04.07h-3.66c-.38-.03-.4-.15-.06-.33.55-.3.86-.8.94-1.5.16-1.63.29-4.3.37-7.22.02-.54-.07-.99-.26-1.35a2.32 2.32 0 0 0-1.27-1.06c-.5-.2-.49-.37.02-.52.65-.2 1.49.9 1.89 1.35 3.07 3.51 6.12 6.98 9.15 10.4.17.18.14.26-.1.22-.93-.15-1.4-.8-2.14-1.62l-6.15-6.9c-.12-.15-.22-.22-.3-.24Z" fill="#31322F"/><path d="M35.7 29.72a.17.17 0 0 0 .18.02.18.18 0 0 0 .07-.07.2.2 0 0 0 .03-.1c.04-1.78.03-3.56-.03-5.32a2.49 2.49 0 0 0-.18-.92c-.25-.58-.72-.55-1.21-.76-.38-.16-.37-.28.04-.36 1.16-.22 2.4-.25 3.72-.08.02 0 .05.01.07.03.02.02.04.05.04.08v.09a.14.14 0 0 1-.06.06c-.62.42-1.4.19-1.43 1.3-.05 2.05-.13 4.06-.22 6.05-.04.8.03 1.63.12 2.43.03.23-.04.26-.19.09L27.81 22.2a.1.1 0 0 1-.03-.05.1.1 0 0 1 0-.06.1.1 0 0 1 .04-.04.09.09 0 0 1 .04-.02c1.08-.18 1.7.51 2.34 1.29 1.59 1.92 3.32 3.96 5.2 6.11l.3.29ZM41.9 28c0 3.31 1.4 6 3.11 6 1.73 0 3.12-2.69 3.12-6s-1.4-6-3.12-6c-1.72 0-3.11 2.69-3.11 6Zm8.98 1.16a5.84 5.84 0 0 1-2.91 4.1c-.1.06-.13.04-.08-.07 1.67-3.48 1.7-6.9.06-10.26-.13-.26-.07-.31.17-.16 2.31 1.43 3.24 3.56 2.76 6.4Zm-8.74-6.27c.12-.2.08-.24-.12-.14-2.17 1.15-3.34 3.8-2.94 6.33a5.56 5.56 0 0 0 3.01 4.18c.13.08.16.04.08-.09-1.71-2.94-1.76-7.35-.03-10.28Z" fill="#03A545"/></svg>