<!-- by TradingView --><svg width="56" height="56" viewBox="0 0 56 56" xmlns="http://www.w3.org/2000/svg"><path fill="#003466" d="M0 0h56v56H0z"/><path d="M19.67 12.25a10.09 10.09 0 0 0-6.7 5.3 9.83 9.83 0 0 0-.95 5.3c.19 3.89 2.04 7.2 5.47 8.86 2.09 1 3.5 1.26 7.52 1.26h3.43l-.12-.42c-.2-.7-.65-.97-1.97-1.19-2.82-.47-4.4-2.47-4.4-4.73 0-1.22.29-1.97 1.05-2.74 2.18-2.18 5.35-.94 6 2.24 0 0-.07 3.58 0 7.16v4.88c.02.8.28 2.15.64 2.88 1.31 2.6 4.63 3.35 7.44 2.76a5.9 5.9 0 0 0 3.11-1.6c2.44-2.38 2.4-7.33-.06-9.63-1.23-1.14-2-1.6-4.5-1.6-2.03 0-2.14.04-2.14.36 0 .67.49 1.11 1.36 1.22 1.75.23 1.99.31 2.6.87 2.3 2.07 1.1 5.53-1.95 5.53-3.74 0-3.47-7.2-3.5-10.17v-7.12c-.02-1.77-.6-3.7-1.52-5.17-2.2-3.46-6.57-5.19-10.8-4.25Z" fill="#fff"/></svg>