<!-- by TradingView --><svg xmlns="http://www.w3.org/2000/svg" width="56" height="56" viewBox="0 0 56 56"><path fill="#F0F3FA" d="M0 0h56v56H0z"/><path d="M26.5 23.4l1.5-2.7 1.5 2.7h-3z" fill="#030914"/><path d="M29.5 25.5L28 28l-1.5-2.5h3z" fill="#5A81AA"/><path fill-rule="evenodd" d="M40.5 32.73l4.53-7.81a.83.83 0 0 0 0-.84l-4.53-7.81c-.15-.27-.43-.27-.74-.27h-9.02c-.3 0-.6 0-.74.27l-4.53 7.81a.83.83 0 0 0 0 .84L30 32.73c.15.27.43.27.74.27l9.02.16c.3 0 .6-.16.74-.43zm5.27-7.4c.3-.51.3-1.15 0-1.67l-4.52-7.81c-.3-.53-.87-.85-1.49-.85h-9.02c-.62 0-1.18.32-1.49.85l-4.52 7.81c-.3.52-.3 1.16 0 1.68l4.52 7.81c.3.53.87.85 1.49.85h9.02c.62 0 1.18-.32 1.49-.85l4.52-7.81z" fill="#5A81AA"/><path fill-rule="evenodd" d="M26 32.73l4.53-7.81a.83.83 0 0 0 0-.84L26 16.27c-.15-.27-.43-.27-.74-.27h-9.02c-.3 0-.6 0-.74.27l-4.53 7.81a.83.83 0 0 0 0 .84l4.53 7.81c.15.27.43.27.74.27h9.02c.3 0 .6 0 .74-.27zm5.27-7.4c.3-.51.3-1.15 0-1.67l-4.52-7.81c-.3-.53-.87-.85-1.49-.85h-9.02c-.62 0-1.18.32-1.49.85l-4.52 7.81c-.3.52-.3 1.16 0 1.68l4.52 7.81c.3.53.87.85 1.49.85h9.02c.62 0 1.18-.32 1.49-.85l4.52-7.81z" fill="#5A81AA"/><path fill-rule="evenodd" d="M33.13 41.73l4.42-7.81a.85.85 0 0 0 0-.84l-4.42-7.81c-.15-.27-.42-.27-.72-.27h-8.82c-.3 0-.57 0-.72.27l-4.43 7.81a.85.85 0 0 0 0 .84l4.43 7.81c.15.27.42.27.72.27h8.82c.3 0 .57 0 .72-.27zm5.15-7.4c.3-.51.3-1.15 0-1.67l-4.42-7.81c-.3-.53-.85-.85-1.45-.85h-8.82c-.6 0-1.15.32-1.45.85l-4.42 7.81a1.7 1.7 0 0 0 0 1.68l4.42 7.81c.3.53.85.85 1.45.85h8.82c.6 0 1.15-.32 1.45-.85l4.42-7.81z" fill="#5A81AA"/></svg>