<!-- by TradingView --><svg xmlns="http://www.w3.org/2000/svg" width="56" height="56" viewBox="0 0 56 56"><path fill="#0E2C4E" d="M0 0h56v56H0z"/><path fill-rule="evenodd" d="M6 21.6h2V23H6v-1.4zM6 24h2v6H6v-6zm3 0h2v.61c.42-.38 1-.61 1.65-.61 1.3 0 2.35.95 2.35 2.12V30h-2v-3.49a1 1 0 0 0-1-1.01 1 1 0 0 0-1 1.01V30H9v-6zm9 0h-2v6h2v-3.49a1 1 0 0 1 1-1.01 1 1 0 0 1 1 1.01V30h2v-3a3 3 0 1 0 6-.21L29.13 30h1.62L33 24h-1.92l-1.1 3.6-1.06-3.6H27l.45 1.27A3 3 0 0 0 22 27v-.87c0-1.17-1.05-2.12-2.35-2.12-.64 0-1.23.23-1.65.61V24zm8.5 3a1.5 1.5 0 1 1-3 0 1.5 1.5 0 0 1 3 0zm7.12-3l-3.12 8h2.2l.33-1h2.9l.33 1h2.24l-.52-1.37a3 3 0 0 0 4.02.97v.71c-.01.26-.15 1.12-1.25 1.12-.33-.02-.9-.12-1-.43h-2.1c.16.73.98 2 2.96 2 2.47 0 3.4-1.17 3.4-3l-.01-.14V29a3 3 0 0 0 5.83 1h-1.87a1.38 1.38 0 0 1-2.25-.5h4.25A3 3 0 1 0 44 29v-3h-2v.4a3 3 0 0 0-4.47 3.05L35.46 24h-1.84zm.86 2.6l.79 2.4h-1.58l.79-2.4zM42 29.04c0 .86-.67 1.55-1.5 1.55s-1.5-.7-1.5-1.55c0-.85.67-1.54 1.5-1.54s1.5.7 1.5 1.54zm5-1.42c-.59 0-1.09.36-1.3.88h2.6c-.21-.52-.71-.88-1.3-.88z" fill="#FFFDFE"/></svg>