<!-- by TradingView --><svg width="56" height="56" viewBox="0 0 56 56" xmlns="http://www.w3.org/2000/svg"><path fill="#F0F3FA" d="M0 0h56v56H0z"/><path fill-rule="evenodd" d="M23 10.5a.5.5 0 0 1 1 0V15h2v-4.5a.5.5 0 0 1 1 0V15h2v-4.5a.5.5 0 0 1 1 0V15h2v-4.5a.5.5 0 0 1 1 0V15h6a2 2 0 0 1 2 2v5h4.5a.5.5 0 0 1 0 1H41v2h4.5a.5.5 0 0 1 0 1H41v2h4.5a.5.5 0 0 1 0 1H41v2h4.5a.5.5 0 0 1 0 1H41v7a2 2 0 0 1-2 2h-6v4.5a.5.5 0 0 1-1 0V41h-2v4.5a.5.5 0 0 1-1 0V41h-2v4.5a.5.5 0 0 1-1 0V41h-2v4.5a.5.5 0 0 1-1 0V41h-6a2 2 0 0 1-2-2v-7h-4.5a.5.5 0 0 1 0-1H15v-2h-4.5a.5.5 0 0 1 0-1H15v-2h-4.5a.5.5 0 0 1 0-1H15v-2h-4.5a.5.5 0 0 1 0-1H15v-5c0-1.1.9-2 2-2h6v-4.5Zm0 8.5a1 1 0 1 0 0 2h3a1 1 0 1 0 0-2h-3Zm9 0a1 1 0 1 1 0 2h-3a1 1 0 1 1 0-2h3ZM22 35a1 1 0 0 1 1-1h3a1 1 0 1 1 0 2h-3a1 1 0 0 1-1-1Zm10-1a1 1 0 1 1 0 2h-3a1 1 0 1 1 0-2h3ZM20 23a1 1 0 0 1 1-1h5a1 1 0 1 1 0 2h-5a1 1 0 0 1-1-1Zm14-1a1 1 0 1 1 0 2h-5a1 1 0 1 1 0-2h5ZM20 32a1 1 0 0 1 1-1h5a1 1 0 1 1 0 2h-5a1 1 0 0 1-1-1Zm14-1a1 1 0 1 1 0 2h-5a1 1 0 1 1 0-2h5Zm-16-5a1 1 0 0 1 1-1h7a1 1 0 1 1 0 2h-7a1 1 0 0 1-1-1Zm18-1a1 1 0 1 1 0 2h-7a1 1 0 1 1 0-2h7Zm-18 4a1 1 0 0 1 1-1h7a1 1 0 1 1 0 2h-7a1 1 0 0 1-1-1Zm18-1a1 1 0 1 1 0 2h-7a1 1 0 1 1 0-2h7Z" fill="#09426A"/></svg>