<!-- by TradingView --><svg xmlns="http://www.w3.org/2000/svg" width="56" height="56"><path fill="#1D1D26" d="M0 0h56v56H0z"/><path fill-rule="evenodd" d="M40.25 30.5a2.25 2.25 0 100-4.5 2.25 2.25 0 000 4.5zm0 1.5a3.75 3.75 0 100-7.5 3.75 3.75 0 000 7.5zm8-1.5a2.25 2.25 0 100-4.5 2.25 2.25 0 000 4.5zm0 1.5a3.75 3.75 0 100-7.5 3.75 3.75 0 000 7.5z" fill="#0195F8"/><path d="M43.25 24.25A.75.75 0 0144 25v6.58c0 2.8-3.3 3.91-5.56 2.98a.75.75 0 11.56-1.4c1.28.52 3.5.18 3.5-1.58V25a.75.75 0 01.75-.75z" fill="#0195F8"/><path d="M4.5 24.5a.5.5 0 01.5.5v6.5a.5.5 0 01-1 0V25a.5.5 0 01.5-.5zm.5-2a.5.5 0 11-1 0 .5.5 0 011 0zm2.5 2a.5.5 0 01.5.5v6.5a.5.5 0 01-1 0V25a.5.5 0 01.5-.5z" fill="#fff"/><path d="M7 27.5a3 3 0 116 0v4a.5.5 0 01-1 0v-4a2 2 0 10-4 0v4H7v-4zm11.39-2.88c.5.12 1 .35 1.3.73a.45.45 0 01-.08.65.52.52 0 01-.7-.08c-.13-.15-.39-.3-.77-.4a3.34 3.34 0 00-1.24-.05c-.42.06-.78.2-1.02.4a.97.97 0 00-.38.79h-1c0-.64.28-1.15.72-1.5.43-.35.98-.54 1.53-.62a4.4 4.4 0 011.64.08zm-3.24 3.36a1.86 1.86 0 01-.65-1.32h1c0 .12.07.4.35.65.26.24.75.49 1.65.49v.93c-1.1 0-1.86-.3-2.35-.74zm.74 3.84a2.02 2.02 0 01-1.26-1.05.46.46 0 01.27-.61.51.51 0 01.66.26c.09.2.31.4.67.52.35.12.8.16 1.24.1.91-.13 1.53-.61 1.53-1.31h1c0 1.38-1.26 2.08-2.39 2.23a3.84 3.84 0 01-1.72-.14z" fill="#fff"/><path d="M19.33 28.45c.48.4.67.9.67 1.28h-1c0-.11-.06-.36-.33-.58-.26-.21-.76-.44-1.67-.44v-.93c1.09 0 1.84.27 2.33.67zm2.7.27c.19 1.4 1.2 2.34 2.22 2.34 1.03 0 1.46-.26 1.87-.72a.63.63 0 01.46-.21c.4 0 .66.38.42.68-.58.72-1.34 1.19-2.75 1.19-1.9 0-3.25-1.79-3.25-3.75s1.35-3.75 3.25-3.75 3.25 1.79 3.25 3.75v.05c0 .24-.22.42-.48.42h-4.99zm0-.94h4.44c-.19-1.4-1.2-2.34-2.22-2.34-1.03 0-2.03.93-2.22 2.34zm7.5.94c.19 1.4 1.2 2.34 2.22 2.34 1.03 0 1.46-.26 1.87-.72a.63.63 0 01.46-.21c.4 0 .66.38.42.68-.58.72-1.34 1.19-2.75 1.19-1.9 0-3.25-1.79-3.25-3.75s1.35-3.75 3.25-3.75S35 26.29 35 28.25v.05c0 .24-.22.42-.48.42h-4.99zm0-.94h4.44c-.19-1.4-1.2-2.34-2.22-2.34-1.03 0-2.03.93-2.22 2.34z" fill="#fff"/></svg>