<!-- by TradingView --><svg width="56" height="56" viewBox="0 0 56 56" xmlns="http://www.w3.org/2000/svg"><path fill="#F0F3FA" d="M0 0h56v56H0z"/><path d="M44 29H12a16.03 16.03 0 0 0 30.42 6h-5.04c-.97 1.74-4.22 5-9.5 5-6.58 0-9.28-5.48-9.86-7h25.21c.42-1.27.68-2.61.77-4Zm0-2H12c.09-1.39.35-2.73.77-4h25.25c-.58-1.3-3.27-6-9.85-6-5.26 0-8.51 2.51-9.48 4h-5.1A16.03 16.03 0 0 1 44 27Z" fill="url(#akd1ljkvr)"/><defs><linearGradient id="akd1ljkvr" x1="14.6" y1="30.31" x2="40.9" y2="31.16" gradientUnits="userSpaceOnUse"><stop stop-color="#02AACE"/><stop offset="1" stop-color="#7A3391"/></linearGradient></defs></svg>