<!-- by TradingView --><svg width="56" height="56" viewBox="0 0 56 56" xmlns="http://www.w3.org/2000/svg"><path fill="#F0F3FA" d="M0 0h56v56H0z"/><path d="M43.62 23.48a16.09 16.09 0 1 1-30.76 9.46 16.09 16.09 0 0 1 30.76-9.46Z" fill="url(#a5lcfrsa0)"/><path d="M31.81 38.82a6.13 6.13 0 1 1 5.2-11.1 6.13 6.13 0 0 1-5.2 11.1Z" fill="#0E4722"/><path d="M40.34 29.62a8.94 8.94 0 0 0-11.76-6.96 8.94 8.94 0 0 0-4.54 12.89 8.94 8.94 0 0 0 10.58 3.73 8.94 8.94 0 0 0 5.72-9.66Zm-12.5-9a11.12 11.12 0 0 1 14.65 8.67 11.11 11.11 0 0 1-7.12 12.04 11.11 11.11 0 0 1-13.2-4.66 11.11 11.11 0 0 1 5.67-16.06Z" fill="#0E4722"/><path d="M31.4 14.14a14.28 14.28 0 0 0-9.43 26.8 14.27 14.27 0 0 0 18.96-6.89 14.27 14.27 0 0 0-9.52-19.91Zm-9.2-2.12a17 17 0 1 1 11.6 31.96 17 17 0 0 1-11.6-31.96Z" fill="#0E4722"/><path d="M32.65 18.4a11.51 11.51 0 1 0-5.48 22.36 11.51 11.51 0 0 0 5.48-22.37Zm-7.5-1.92a13.94 13.94 0 0 1 17.39 19 13.94 13.94 0 0 1-18.52 6.72 13.93 13.93 0 0 1 1.13-25.72Z" fill="#0E4722"/><path d="M34.94 25.92a6.63 6.63 0 1 0-3.21 12.86 6.63 6.63 0 0 0 3.2-12.86Zm-4.48-1.6a8.53 8.53 0 0 1 10.6 11.66 8.55 8.55 0 0 1-11.38 4.08 8.53 8.53 0 0 1 .78-15.74Z" fill="#0E4722"/><path d="M32.58 37.73a4.83 4.83 0 1 1 3.6-8.97 4.83 4.83 0 0 1-3.6 8.97Z" fill="#FCEE22"/><defs><linearGradient id="a5lcfrsa0" x1="37.08" y1="38.63" x2="20.97" y2="12.12" gradientUnits="userSpaceOnUse"><stop offset=".13" stop-color="#FCF043"/><stop offset=".47" stop-color="#FDF697"/><stop offset=".71" stop-color="#FDFACC"/><stop offset=".83" stop-color="#FDFBE0"/></linearGradient></defs></svg>