<!-- by TradingView --><svg width="56" height="56" xmlns="http://www.w3.org/2000/svg"><path fill="#6F213A" d="M0 0h56v56H0z"/><path d="M34.5 32L32 26h1l2 5 2-5h1l-2.5 6h-1zM43.5 32L41 26h1l2 5 2-5h1l-2.5 6h-1zM49.5 26L47 32h1l2-5 2 5h1l-2.5-6h-1zM24 27l3.326-2v1L25 27.459v3.037L27.326 32v1L24 31v-4z" fill="#fff"/><path d="M31 27l-3.326-2v1L30 27.459v3.037L27.674 32v1L31 31v-4z" fill="#D4A325"/><path fill="#fff" d="M5 26h1v6H5zM39 26h1v6h-1zM8 32v-6h1.017l3.991 4.455V26H14v6h-.992l-3.991-4.41V32H8zM16 32v-6h1.017l3.991 4.455V26H22v6h-.992l-3.991-4.41V32H16z"/></svg>