<!-- by TradingView --><svg width="56" height="56" viewBox="0 0 56 56" xmlns="http://www.w3.org/2000/svg"><path fill="#F0F3FA" d="M0 0h56v56H0z"/><path fill-rule="evenodd" d="M28 40c6.08 0 11-5.37 11-12s-4.92-12-11-12-11 5.37-11 12 4.92 12 11 12Zm0-1c4.42 0 8-2.12 8-11 0-8.88-3.58-11-8-11s-8 2.32-8 11 3.58 11 8 11Z" fill="#7BB0E1"/><path fill-rule="evenodd" d="M40.64 40.64c6.28-6.28 5.71-17.03-1.27-24.01s-17.73-7.55-24-1.27c-6.29 6.28-5.72 17.03 1.26 24.01 6.98 6.98 17.73 7.55 24 1.27ZM40 40c4.3-4.3 5.48-10.1-4.2-19.8-9.7-9.68-15.5-8.5-19.8-4.2-4.3 4.3-5.27 10.32 4.2 19.8 9.48 9.47 15.5 8.5 19.8 4.2Z" fill="#7BB0E1"/><path fill-rule="evenodd" d="M22.05 33.95c2.96 2.95 8.02 2.69 11.3-.6 3.29-3.28 3.55-8.34.6-11.3-2.96-2.95-8.02-2.69-11.3.6-3.29 3.28-3.55 8.34-.6 11.3Zm.3-.3c2.03 2.02 4.76 2.58 9.32-1.98 4.56-4.56 4-7.3 1.98-9.32-2.03-2.02-4.86-2.48-9.32 1.98s-4 7.3-1.98 9.32Z" fill="#042F69"/></svg>