<!-- by TradingView --><svg width="56" height="56" viewBox="0 0 56 56" fill="none" xmlns="http://www.w3.org/2000/svg">
<rect width="56" height="56" fill="#F0F3FA"/>
<path d="M35.3159 25H33.8494C33.988 25.0909 34.2653 25.3773 34.2653 25.7955C34.2653 26.2136 34.1777 26.5909 34.1339 26.7273H33.543V26.9091C33.7254 26.9091 34.0902 27.0818 34.0902 27.7727C34.0902 28.6364 33.7181 29.3864 33.543 29.6364C33.8231 29.8727 34.6374 29.9773 35.0095 30H37.4172C38.8355 30 39.3068 28.8939 39.3652 28.3409L39.9999 25H38.5553C38.4459 25.5606 38.1832 26.9 38.0081 27.7727C37.833 28.6455 37.4999 28.6591 37.1107 28.6591H35.2502C34.6899 28.6591 34.7395 28.0227 34.8344 27.7045L35.3159 25Z" fill="url(#paint0_linear_228_5448)"/>
<path fill-rule="evenodd" clip-rule="evenodd" d="M40.4241 25H45.4845C45.7927 25.0229 46.4092 25.2339 46.4092 25.8945C46.4092 26.7202 46.1266 28.0275 45.0735 28.0734C45.1025 28.0815 45.1308 28.0892 45.1585 28.0968C45.5229 28.1964 45.767 28.2631 45.767 28.6468C45.767 28.9771 45.63 29.6865 45.5615 30H43.8662C43.9175 29.7936 44.0203 29.3257 44.0203 29.1055C44.0203 28.8303 43.8662 28.7385 43.4552 28.7385H40.6809L40.4241 30H38.7544V29.8394C38.977 29.7859 39.4891 29.3761 39.7562 28.1651C40.0233 26.9541 40.3128 25.5505 40.4241 25ZM41.2593 26L41 27.372H44.3796C44.6565 27.372 44.892 27.1886 44.9337 26.9404L44.9935 26.5847C45.0451 26.2771 44.7825 26 44.4393 26H41.2593Z" fill="url(#paint1_linear_228_5448)"/>
<path fill-rule="evenodd" clip-rule="evenodd" d="M17.7576 25H18.4364H19.6H20.2788L22 30H20.1576L19.8134 29H16.5939L15.8424 30H14L17.7576 25ZM17.3455 28H19.4691L18.8019 26.0619L17.3455 28Z" fill="url(#paint2_linear_228_5448)"/>
<path d="M27.8525 26.5919H26.2838C26.3818 26.269 26.0795 26.1584 25.9161 26.1435H24.1512C23.4648 26.1435 23.2442 26.2556 23.2442 26.5471C23.2442 26.8385 23.4403 27 25.4013 27C27.7055 27 27.779 27.3542 27.779 27.8475C27.779 30.0448 26.0386 29.9999 24.5679 29.9999C23.3913 29.9999 22.5742 29.9551 22.3127 29.9327L21.7244 28.3183H22.803V28.5426C22.803 28.8654 23 29 23.2932 29H25.5239C25.9651 29 26 28.7219 26 28.408C26 28.0941 25.8916 28 24.0041 28C21.5283 28 21.4793 27.5112 21.7244 26.4125C21.9696 25.3139 22.1657 25 25.1317 25C28.0977 25 27.9996 25.4708 27.9996 25.852C27.9996 26.1569 27.9016 26.4723 27.8525 26.5919Z" fill="url(#paint3_linear_228_5448)"/>
<path fill-rule="evenodd" clip-rule="evenodd" d="M32.2255 26.5919H33.8476C33.8983 26.4723 33.9997 26.1569 33.9997 25.852C33.9997 25.8403 33.9998 25.8284 33.9999 25.8165C34.0029 25.4423 34.0065 25 31.0343 25C29.4118 25 28.5909 25.0879 28.1401 25.3333C28.2373 25.477 28.3239 25.6929 28.3239 25.9865C28.3239 26.4888 28.2226 26.7339 28.1719 26.7937H27.4352C27.4315 26.8177 27.4283 26.8414 27.4254 26.8646C27.6932 26.9842 28.1141 27.3054 28.1232 27.8496C28.5006 27.9511 29.0591 28 29.8684 28C31.82 28 32.0001 28.0941 32.0001 28.408C32.0001 28.7219 31.896 29 31.4398 29H29.1334C28.9644 29.0224 28.6265 28.8654 28.6265 28.5426V28.3183H28.0705C28.0026 28.8587 27.7676 29.3676 27.3354 29.7533C27.6234 29.9956 29.1085 29.9999 30.4513 29.9999C30.4811 29.9999 30.5109 29.9999 30.5408 30C32.0417 30.0008 33.7716 30.0018 33.7716 27.8475C33.7716 27.3542 33.6955 27 31.3131 27C29.2854 27 29.0827 26.8385 29.0827 26.5471C29.0827 26.2556 29.3108 26.1435 30.0205 26.1435H31.8453C32.0143 26.1584 32.3269 26.269 32.2255 26.5919Z" fill="url(#paint4_linear_228_5448)"/>
<path fill-rule="evenodd" clip-rule="evenodd" d="M46.4542 25H52L51.761 26H47.6255L47.4502 27H51L50.8453 28H47.2749L47.0996 29H51.259L51.0438 30H46.0717L46.2869 28.7788C46.3108 28.6022 46.2869 28.212 46 28.0645C46.0154 28.0516 46.0321 28.0379 46.05 28.0232C46.2547 27.8558 46.6072 27.5675 46.7171 26.8894C46.7313 26.8019 46.7468 26.7151 46.7622 26.6292C46.8763 25.9913 46.9809 25.4062 46.4542 25Z" fill="url(#paint5_linear_228_5448)"/>
<path d="M16.6776 22C21.1101 22 25.3721 23.6547 26.9491 24.4821C25.3553 23.8658 21.4339 22.6332 18.4992 22.6332C12.2756 22.6332 11 25.242 11 27.0909C11 32.4857 20.5737 37 27.3033 37C34.0329 37 34.7723 33.8105 35 33C35.1771 36.014 31.2247 38.3617 25.9877 37.9565C10.7829 36.3608 8 29.0918 8 26.711C8 24.3302 11.1371 22 16.6776 22Z" fill="#0005D9"/>
<path fill-rule="evenodd" clip-rule="evenodd" d="M13.8777 23.3423C11.5819 24.2464 11 25.842 11 27.0909C11 32.4857 20.5737 36.994 27.3033 36.994C28.1003 36.994 28.8133 36.9475 29.4513 36.8641C27.6533 37.2023 25.2988 37.2702 22.3193 36.7661C13.3381 35.2464 8.86011 29.345 8.86011 26.8122C8.86011 24.786 10.2094 23.6547 10.884 23.3423H13.8777Z" fill="url(#paint6_linear_228_5448)"/>
<path fill-rule="evenodd" clip-rule="evenodd" d="M11.109 35C10.8034 35 10.7698 34.5147 10.7379 34.3008C10.6482 33.6999 10.6782 33.0892 10.6424 32.483C10.6248 32.1863 10.6114 31.8884 10.5803 31.5927C10.2646 31.7791 9.92875 31.9574 9.49798 31.9574C9.01808 31.9574 8.76237 31.5353 8.43402 31.257C8.35363 31.1889 8.31262 31.1773 8.2961 31.1773C7.54973 31.1773 6.92757 31.821 6.1858 31.9412C5.5 32 4.72284 32 4 32V31.6359C4.69815 31.6359 5.28203 31.6359 6.12948 31.5816C6.89703 31.4573 7.50969 30.8132 8.2961 30.8132C8.4458 30.8132 8.571 30.8992 8.66322 30.9773C8.9085 31.1852 9.15239 31.5934 9.49798 31.5934C9.72144 31.5934 10.0012 31.5004 10.1988 31.3936C10.3499 31.312 10.5234 31.1513 10.7048 31.1513C10.8138 31.1513 10.8638 31.2389 10.8711 31.2518C11.0588 31.5809 10.9785 32.1015 11 32.4654C11.0371 33.0917 11.0013 33.7251 11.1074 34.344C11.6434 31.5615 11.5281 28.6416 11.8011 25.826C11.8476 25.3468 11.809 24.5118 12.1225 24.101C12.1508 24.0638 12.2127 24 12.3109 24C12.4286 24 12.499 24.0854 12.5305 24.1333C12.6755 24.3533 12.7024 24.6647 12.7401 24.9176C13.0554 27.0359 12.9711 29.372 13 31.508C13.001 31.5789 13.0574 31.6359 13.1283 31.6359H23V32H13.1283C12.8628 32 12.6457 31.7842 12.642 31.513C12.6134 29.3937 12.699 27.0739 12.3861 24.9721C12.3651 24.8312 12.3435 24.7104 12.3214 24.611C12.2373 25.0224 12.1979 25.4442 12.1574 25.8618C11.8837 28.6845 11.9887 31.604 11.4623 34.3952C11.4256 34.59 11.3801 35 11.109 35Z" fill="#CC0000"/>
<defs>
<linearGradient id="paint0_linear_228_5448" x1="36.7715" y1="25" x2="36.7715" y2="30" gradientUnits="userSpaceOnUse">
<stop stop-color="#0005D9"/>
<stop offset="0.46875" stop-color="#5C5FE7"/>
<stop offset="0.494792" stop-color="#0005D9"/>
</linearGradient>
<linearGradient id="paint1_linear_228_5448" x1="42.5818" y1="25" x2="42.5818" y2="30" gradientUnits="userSpaceOnUse">
<stop stop-color="#0005D9"/>
<stop offset="0.46875" stop-color="#5C5FE7"/>
<stop offset="0.494792" stop-color="#0005D9"/>
</linearGradient>
<linearGradient id="paint2_linear_228_5448" x1="18" y1="25" x2="18" y2="30" gradientUnits="userSpaceOnUse">
<stop stop-color="#0005D9"/>
<stop offset="0.46875" stop-color="#5C5FE7"/>
<stop offset="0.494792" stop-color="#0005D9"/>
</linearGradient>
<linearGradient id="paint3_linear_228_5448" x1="24.814" y1="25" x2="24.814" y2="30" gradientUnits="userSpaceOnUse">
<stop stop-color="#0005D9"/>
<stop offset="0.46875" stop-color="#5C5FE7"/>
<stop offset="0.494792" stop-color="#0005D9"/>
</linearGradient>
<linearGradient id="paint4_linear_228_5448" x1="30.6678" y1="25" x2="30.6678" y2="30" gradientUnits="userSpaceOnUse">
<stop stop-color="#0005D9"/>
<stop offset="0.46875" stop-color="#5C5FE7"/>
<stop offset="0.494792" stop-color="#0005D9"/>
</linearGradient>
<linearGradient id="paint5_linear_228_5448" x1="49" y1="25" x2="49" y2="30" gradientUnits="userSpaceOnUse">
<stop stop-color="#0005D9"/>
<stop offset="0.46875" stop-color="#5C5FE7"/>
<stop offset="0.494792" stop-color="#0005D9"/>
</linearGradient>
<linearGradient id="paint6_linear_228_5448" x1="19.1558" y1="23.3423" x2="19.1558" y2="37.1311" gradientUnits="userSpaceOnUse">
<stop stop-color="#0005D9"/>
<stop offset="0.479167" stop-color="#4A4EE4"/>
<stop offset="1" stop-color="#0005D9"/>
</linearGradient>
</defs>
</svg>
