<!-- by TradingView --><svg width="56" height="56" xmlns="http://www.w3.org/2000/svg"><path fill="#A0005A" d="M0 0h56v56H0z"/><path d="M8 23H5v12h3V23zM16.096 22.65c3.58 0 6.264 2.615 6.264 6.102s-2.685 6.101-6.264 6.101c-3.58 0-6.264-2.614-6.264-6.101s2.684-6.102 6.264-6.102zm0 2.964c-1.897 0-3.222 1.288-3.222 3.138 0 1.85 1.324 3.138 3.222 3.138 1.897 0 3.221-1.29 3.221-3.138 0-1.848-1.325-3.138-3.221-3.138zM31.971 29.216L27 23h-3v12h3v-6.919L32 35h3v-8.572l-3.029 2.788zM41 23h-3v12h3V23zM42.264 33.233l1.898-2.255c1.23.961 2.568 1.469 3.99 1.469.93 0 1.505-.316 1.505-.84v-.038c0-.524-.488-.786-2.174-1.188-2.618-.595-4.638-1.331-4.638-3.827v-.035c0-2.272 1.81-3.915 4.76-3.915 2.092 0 3.727.56 5.061 1.626l-1.705 2.396c-1.124-.804-2.354-1.206-3.444-1.206-.825 0-1.313.333-1.313.786v.039c0 .559.506.8 2.227 1.188 2.778.628 4.569 1.659 4.569 3.81v.036c0 2.495-1.986 3.985-4.973 3.985-2.178-.004-4.235-.685-5.763-2.031z" fill="#fff"/><path d="M31.991 28.711l2.701-2.41c.714-.611 1.123-1.41 1.123-2.335v-.011l-3.824 3.354v1.402z" fill="#EB6E0F"/><path d="M31.991 26.805l3.314-2.917a3.24 3.24 0 00.836-1.097 3.16 3.16 0 00.297-1.336L31.99 25.32v1.486z" fill="url(#paint0_linear)"/><path d="M36.978 19l-4.986 4.306v1.487l3.85-3.365c.358-.302.643-.675.84-1.094.195-.419.297-.874.296-1.334z" fill="#fff"/><defs><linearGradient id="paint0_linear" x1="31.991" y1="24.128" x2="36.438" y2="24.128" gradientUnits="userSpaceOnUse"><stop stop-color="#EB6E0F"/><stop offset=".7" stop-color="#fff"/></linearGradient></defs></svg>