<!-- by TradingView --><svg width="56" height="56" xmlns="http://www.w3.org/2000/svg"><path fill="#F0F3FA" d="M0 0h56v56H0z"/><path d="M17 18.708l.014 7.707.324-1.014c.536-1.635 1.268-2.804 2.607-4.129 1.38-1.38 2.762-2.184 4.608-2.691 1.38-.38 3.635-.423 4.903-.085.451.127.775.17.705.113-.07-.056-1.677-1-3.58-2.086-1.901-1.098-4.832-2.775-6.51-3.762L17 11v7.708z" fill="#EF3125"/><path d="M34.867 21.765c3.467 3.819 3.396 9.977-.169 13.767-.268.296-.465.536-.437.536.085 0 12.795-7.328 12.936-7.469.056-.056-2.734-1.733-6.2-3.734-3.467-2-6.468-3.748-6.665-3.86-.198-.127.042.21.535.76z" fill="#0177C1"/><path d="M17 38.364V46.1l.465-.282c.24-.155 3.184-1.846 6.51-3.762 3.34-1.916 6.115-3.537 6.172-3.593.07-.056-.212-.014-.606.085a9.392 9.392 0 01-4.016.14c-2.381-.408-4.213-1.395-5.876-3.17-1.127-1.198-1.818-2.353-2.31-3.889l-.325-.986L17 38.364z" fill="#974399"/><path d="M36.05 28.4c0 4.864-3.975 8.807-8.878 8.807-4.903 0-8.877-3.943-8.877-8.806 0-4.864 3.974-8.807 8.877-8.807 4.903 0 8.877 3.943 8.877 8.807z" fill="#B1BB1C"/></svg>