<!-- by TradingView --><svg width="56" height="56" xmlns="http://www.w3.org/2000/svg"><path fill="#F0F3FA" d="M0 0h56v56H0z"/><path d="M4.012 32c-.016 0-.016-.309 0-.309H5c0 .035.017 0 0 0v-8.4c.033 0 0-.034 0 0h-.988c-.016 0-.016-.291 0-.291h3.976c.016 0 .016.309 0 .309H7c0-.035-.05 0 0 0v8.382c-.05 0 0 .035 0 0h.988c.016 0 .016.309 0 .309H4.012zM24 23.044l-2.925 8.931c-.017.033-.284.033-.3 0l-3.526-8.598c-.017-.033-.033-.05-.1-.05h-1.137c-.016 0-.016-.3 0-.3h4.311c.017 0 .017.3 0 .3h-1.152c-.034 0-.067.017-.05.05l2.472 6.199 2.139-6.532c.017-.067.284-.05.267 0zM36.99 23l-2.437.025c-.048-.025-.048.295 0 .295h.991c.05 0 .065.016.065.05v5.546l-3.344-5.694c-.081-.165-.162-.222-.244-.222H29v.304h1.088c.065 0 .065.016.065.049v8.319c0 .033 0 .049-.065.049h-.78c-.048 0-.08-.016-.08-.016l-2.96-8.68c-.016-.033-.26-.033-.276 0L23.003 32c-.016.033.244.033.26 0l.942-2.936h2.47l.733 2.624c.016 0-.017.017-.049.017h-.99c-.017 0-.017.295 0 .295h5.181c.017 0 .017-.295 0-.295h-1.023c-.049 0-.049-.017-.049-.05v-8.154l5.148 8.468c.032.05.292.033.292 0v-8.616c0-.033.016-.05.065-.05h1.007c.017 0 .017-.303 0-.303zm-12.687 5.769l1.17-3.496 1.104 3.496h-2.274zM43.71 31.967c-.016-.147-.188-.36-.531-.36-.566 0-1.493.393-2.179.393-2.282 0-3.998-2.095-3.998-4.5s1.648-4.5 3.93-4.5c.583 0 1.63.295 2.195.295.344 0 .567-.164.6-.295 0-.016.275-.016.275 0v3c0 .017-.274.017-.274 0 0-1.194-1.596-2.705-2.797-2.705-.549 0-.892.114-1.218.441-.532.557-.713 1.751-.713 3.78 0 2.03.181 3.208.713 3.764.326.344.738.442 1.287.442 1.458 0 2.71-1.135 2.71-2.722 0-.016.292-.016.292 0v2.967h-.291zM51.967 32h-6.954c-.017 0-.017-.308 0-.308H46c0 .034.033 0 0 0v-8.384c.05 0 0-.034 0 0h-.987c-.017 0-.017-.308 0-.308h6.318c.067 0 .067.017.067.034V26c0 .017-.3.017-.3 0 0-1.18-.602-2.692-2.073-2.692H48c0-.034-.067 0 0 0v3.918h.088c.937 0 1.662-.353 1.662-1.226 0-.017.25-.017.25 0v3c0 .017-.25.017-.25 0 0-.855-.709-1.483-1.662-1.483H48v4.158c-.067 0 0 .034 0 0h1.075c1.939 0 2.657-1.375 2.657-2.675 0-.017.268-.017.268 0v2.932c0 .05-.017.068-.033.068z" fill="#033C5A"/><path d="M13.814 30.457a3.325 3.325 0 01-4.126-3.228c0-.397.08-.794.208-1.144-.016.111-.016.222-.016.35-.016 2.178 1.752 3.959 3.934 4.023z" fill="#82BD41"/><path d="M13.48 30.823a3.325 3.325 0 01-4.126-3.228c0-.397.08-.795.207-1.145-.016.111-.016.223-.016.35 0 2.178 1.752 3.96 3.935 4.023z" fill="#A1CD71"/><path d="M13.161 31.189a3.309 3.309 0 01-.796.095 3.328 3.328 0 01-3.345-3.323c0-.397.08-.795.207-1.145-.016.111-.016.223-.016.35a4.036 4.036 0 003.95 4.023z" fill="#C1DEA0"/><path d="M12.827 31.46A3.325 3.325 0 018.7 28.231c0-.398.08-.796.207-1.146-.016.112-.016.223-.016.35-.016 2.179 1.737 3.96 3.935 4.023z" fill="#E0EED0"/><path d="M12.492 31.778a3.325 3.325 0 01-4.126-3.228c0-.398.08-.795.207-1.145-.016.111-.016.222-.016.35-.016 2.178 1.753 3.959 3.935 4.023z" fill="#ECF5E3"/><path d="M17 27.5a4.51 4.51 0 01-4.508 4.5h-.112a3.701 3.701 0 00-.892-7.299A3.722 3.722 0 008 27.118 4.506 4.506 0 0112.492 23 4.51 4.51 0 0117 27.5z" fill="#033C5A"/></svg>