<!-- by TradingView --><svg width="56" height="56" xmlns="http://www.w3.org/2000/svg"><path fill="url(#paint0_linear)" d="M0 0h56v56H0z"/><path d="M4.49 31H4v-4h.49v4zM7 27v.786c.141-.239.28-.473.49-.597.21-.126.444-.189.698-.189.403 0 .747.123.943.357.197.234.285.637.287 1.104V31h-.413v-2.543c-.003-.345-.062-.655-.204-.825-.139-.169-.405-.26-.713-.26-.257 0-.486.083-.685.25-.197.165-.31.44-.406.722V31h-.413v-4H7zM11.786 26v1h.778v.357h-.778v2.626c0 .215.037.375.111.48.077.104.203.157.379.157.07 0 .182-.012.337-.036l.017.35c-.109.041-.257.061-.445.061-.284 0-.492-.084-.621-.254-.13-.171-.195-.423-.195-.754v-2.63h-.691V27h.691v-1h.417zM15.587 31C14.503 31 14 30.023 14 29c0-.928.467-2 1.492-2 .941 0 1.51.92 1.51 1.776V29h-2.585c0 .792.226 1.654 1.187 1.654.447 0 .776-.16 1.053-.526l.26.204c-.29.41-.749.668-1.33.668zm-.095-3.635c-.667.008-1.001.652-1.075 1.286h2.17c0-.616-.428-1.294-1.095-1.286zM20.32 27.436a1.508 1.508 0 00-.281-.025c-.26 0-.48.075-.66.226-.178.147-.303.418-.38.701v2.657h-.413V27h.406l.007.741c.218-.512.571-.741 1.057-.741.116 0 .208.015.275.047l-.01.39zM25 29c0 .99-.43 2.008-1.376 2.008-.457 0-.73-.149-.991-.447v2.437H22V27l.609-.004v.5c.261-.333.585-.5 1.051-.5C24.693 27 25 28.009 25 28.999zm-.624-.015c0-.736-.112-1.427-.868-1.427-.389 0-.68.177-.875.532v1.85c.192.352.486.528.882.528.62 0 .861-.747.861-1.483zM28.322 31c-.037-.076-.067-.282-.09-.478-.299.32-.55.478-.964.478-.666 0-1.268-.45-1.268-1.154 0-.81.522-1.262 1.596-1.262h.626v-.304c0-.465-.275-.758-.796-.758-.423-.005-.81.173-.81.478H26c0-.686.802-1 1.464-1 .864 0 1.382.46 1.4 1.244v1.78c0 .356.044.766.132.976h-.674zm-.96-.585c.39 0 .69-.21.86-.569v-.794c-.576 0-1.58-.117-1.58.701 0 .415.298.662.72.662zM32.175 27.665a1.87 1.87 0 00-.316-.025c-.422 0-.708.185-.859.554V31h-.642v-4H31v.518c.21-.345.503-.518.89-.518a.64.64 0 01.285.05v.615zM34 31v-3.482h-.583V27H34v-.327c0-.415.119-.736.334-.962.34-.357.9-.405 1.355-.279l-.035.568c-.545-.108-1 .04-1 .662V27h.802v.518h-.802V31H34zM39.622 30.487c-.25.302-.623.513-1.108.513-.95 0-1.51-.515-1.514-1.483V27h.653v2.5c0 .586.476.939.966.939s.824-.248.986-.625V27h.643v4h-.612l-.014-.513zM42.635 27l.017.499c.276-.334.804-.5 1.272-.5.526 0 .942.208 1.132.623.303-.45.827-.624 1.354-.624.825 0 1.244.45 1.258 1.348V31H47v-2.614c0-.525-.23-.826-.777-.826-.531 0-.967.258-1.024.813V31h-.646v-2.595c0-.562-.268-.844-.803-.844-.421 0-.925.183-1.08.553V31H42v-4h.635zM51.357 29.913c0-.465-.513-.592-.882-.672-.591-.131-1.334-.383-1.334-1.11 0-.736.73-1.133 1.39-1.133.426 0 .77.113 1.035.34.266.226.434.516.434.869h-.643c0-.407-.47-.665-.826-.665-.468 0-.747.23-.747.568 0 .428.521.519.847.594.62.142 1.37.407 1.37 1.162 0 .785-.756 1.145-1.45 1.145-.726 0-1.551-.453-1.551-1.263h.645c.023.444.379.723.906.723.491 0 .806-.223.806-.558zM4 26h.482v.598H4z" fill="#fff"/><defs><linearGradient id="paint0_linear" x1="10.418" y1="9.712" x2="68.147" y2="76.017" gradientUnits="userSpaceOnUse"><stop stop-color="#1A1E21"/><stop offset="1" stop-color="#06060A"/></linearGradient></defs></svg>