<!-- by TradingView --><svg width="56" height="56" viewBox="0 0 56 56" xmlns="http://www.w3.org/2000/svg"><path fill="#F0F3FA" d="M0 0h56v56H0z"/><circle cx="30" cy="13" r="2" fill="#F6911E"/><circle cx="40" cy="19" r="2" fill="#A9A435"/><circle cx="19" cy="16" r="2" fill="#FFC508"/><circle cx="23.5" cy="15.5" r="1.5" fill="#EB1C2B"/><circle cx="28" cy="18" r="1" fill="#9F1D20"/><circle cx="21" cy="21" r="1" fill="#7E3E96"/><circle cx="18" cy="28" r="1" fill="#25A9DF"/><circle cx="35" cy="21" r="1" fill="#005A94"/><circle cx="38" cy="28" r="1" fill="#FFC508"/><circle cx="35" cy="35" r="1" fill="#F6911E"/><circle cx="28" cy="38" r="1" fill="#A9A435"/><circle cx="21" cy="35" r="1" fill="#EB1C2B"/><circle cx="16.5" cy="22.5" r="1.5" fill="#A9A435"/><circle cx="33.5" cy="16.5" r="1.5" fill="#25A9DF"/><circle cx="40.5" cy="24.5" r="1.5" fill="#7E3E96"/><circle cx="39.5" cy="33.5" r="1.5" fill="#9F1D20"/><circle cx="31.5" cy="40.5" r="1.5" fill="#005A94"/><circle cx="22.5" cy="39.5" r="1.5" fill="#FFC508"/><circle cx="16.5" cy="31.5" r="1.5" fill="#F6911E"/><circle cx="13" cy="26" r="2" fill="#005A94"/><circle cx="16" cy="37" r="2" fill="#9F1D20"/><circle cx="26" cy="43" r="2" fill="#7E3E96"/><ellipse cx="37.24" cy="39.88" rx="2.14" ry="2.11" fill="#25A9DF"/><circle cx="43" cy="30" r="2" fill="#EB1C2B"/></svg>