<!-- by TradingView --><svg xmlns="http://www.w3.org/2000/svg" width="56" height="56" viewBox="0 0 56 56"><path fill="#F0F3FA" d="M0 0h56v56H0z"/><path d="M17.18 19.87 4 26.01 14 23v1.88L28 18l-11.3 3.87.48-2Z" fill="#F1D116"/><path d="m14 24.87 2-.96V35h-2V24.87ZM38.5 24h2v11h-2z"/><path d="M40 24h3v1.5h-3zM39.46 33.5H43V35h-3.54zM39.27 28.5h3.34V30h-3.34z"/><path fill-rule="evenodd" d="M17.83 24H17v11h2v-4.07h1a2 2 0 0 0 2-2V26a2 2 0 0 0-2-2h-2.17ZM19 25.35v4.23h.5a.5.5 0 0 0 .5-.5v-3.23a.5.5 0 0 0-.5-.5H19ZM24.7 24c-.94 0-1.7.76-1.7 1.7v7.6c0 .94.76 1.7 1.7 1.7h1.6c.94 0 1.7-.76 1.7-1.7v-7.6c0-.94-.76-1.7-1.7-1.7h-1.6Zm.8 1.28a.5.5 0 0 0-.5.5v7.44a.5.5 0 0 0 1 0v-7.44a.5.5 0 0 0-.5-.5Z"/><path d="M29.89 35 28.5 24h1.97l.72 4.67.78-4.67h2.42l.72 4.67.76-4.67h1.95l-1.5 11h-2.53l-.81-5.69-.83 5.69H29.9Z"/><path fill-rule="evenodd" d="M44 24h2.81a2 2 0 0 1 2 2v1a2 2 0 0 1-1.37 1.9c.45.18 1.22.72 1.25 1.68v3.08c-.02.32.03 1.08.31 1.34h-1.9a2.69 2.69 0 0 1-.36-1.5v-3.15c-.02-.23-.25-.63-.74-.72V35h-2V24Zm2 4.4v-3.04h.28c.27 0 .5.23.5.5v2.05a.5.5 0 0 1-.5.5H46Z"/></svg>