<!-- by TradingView --><svg xmlns="http://www.w3.org/2000/svg" width="56" height="56" viewBox="0 0 56 56"><path fill="#F0F3FA" d="M0 0h56v56H0z"/><path fill-rule="evenodd" d="M15 18h-2v8h2v-8zm2 0h3.56c1.35 0 2.44 1 2.44 2.25v3.5C23 25 21.91 26 20.56 26H17v-8zm2 2h.45c.85 0 1.55.5 1.55 1.12v1.76c0 .62-.7 1.12-1.55 1.12H19v-4zm5-2v8h6v-2h-4v-1h3.5v-2H26v-1h4v-2h-6zm9 0l-2 8h2.31l.2-1h2.13l.22 1H38l-2-8h-3zm2.2 5h-1.27l.62-3 .65 3zm5.8-5h-2v8h4v-2h-2v-6zM13.54 30H10v8h2v-2.98h1.54c1.08 0 1.96-.9 1.96-2.02v-.98c0-1.12-.88-2.02-1.96-2.02zm-.94 1.5H12v2h.6c.5 0 .9-.38.9-.84v-.32c0-.46-.4-.84-.9-.84zM40 30h3.54c1.08 0 1.96.9 1.96 2.01V33c0 .61-.27 1.17-.7 1.54.69.25 1.2.78 1.2 1.38v1.28c0 .36.36.69.5.81h-2.3c-.18-.2-.2-.65-.2-.9v-.01-1.36c0-.34-.58-.73-1.01-.73H42v3h-2v-8zm2 1.5h.6c.5 0 .9.38.9.84v.32c0 .46-.4.84-.9.84H42v-2zM18.83 30C17.27 30 16 31.11 16 32.48v3.04c0 1.37 1.27 2.48 2.83 2.48h.34c1.56 0 2.83-1.11 2.83-2.48v-3.04c0-1.37-1.27-2.48-2.83-2.48h-.34zm.17 1.5c-.55 0-1 .37-1 .82v3.36c0 .45.45.82 1 .82s1-.37 1-.82v-3.36c0-.45-.45-.82-1-.82zm4-1.5l1 8h2.65l.85-5 .84 5H31l1-8h-1.85l-.82 5-1-5h-1.68l-.97 5-.75-5H23zm10 0v8h6v-2h-4v-1h3.5v-2H35v-1h4v-2h-6z" fill="#003E7E"/></svg>