<!-- by TradingView --><svg width="56" height="56" viewBox="0 0 56 56" xmlns="http://www.w3.org/2000/svg"><path fill="#F0F3FA" d="M0 0h56v56H0z"/><path d="M28 44a16 16 0 0 0 14.18-23.41c-3.08.23-7.75 1.92-13.05 7.49-.65.83-1.54 1.81-2.6 2.8l-8.77 9.42A15.94 15.94 0 0 0 28 44Zm-10.98-4.37 5.1-5.5-.5.3a14.65 14.65 0 0 1-7.28 1.9 16.07 16.07 0 0 0 2.68 3.3Zm-3.26-4.33c2.58.23 5.11-.54 7.38-1.76a23.3 23.3 0 0 0 4.68-3.37L38.81 16.2a16 16 0 0 0-25.05 19.1Zm27.88-15.67c-1.98.23-4.44 1-7.18 2.71l5.06-5.44c.8.83 1.51 1.74 2.12 2.73Z"/></svg>