<!-- by TradingView --><svg width="56" height="56" viewBox="0 0 56 56" xmlns="http://www.w3.org/2000/svg"><path fill="#F0F3FA" d="M0 0h56v56H0z"/><path fill="#D80927" d="M8 30h2v5H8z"/><path fill="#62B8E9" d="M12 26h2v9h-2z"/><path fill="#24303C" d="M16 21h2v14h-2z"/><path fill-rule="evenodd" d="M22 21h-1v14h2v-5h3.5l2.5 5h2l-2.5-5c2.5-1 2.5-3.14 2.5-4.5 0-3.73-2.96-4.5-4.44-4.5H22Zm1 2v5h3.5c1 0 2.5-.63 2.5-2.5S27.5 23 26.44 23H23Z" fill="#24303C"/><path d="M46 31c0-1.04-1.44-1.65-2.5-2-1.95-.66-4.5-1.49-4.5-4 0-2.65 1.84-4 4-4s3.89.08 5 3l-2 1c-.56-1.75-1.89-2-3-2-.96 0-2 .82-2 2 0 1.17 1.6 1.71 2.5 2 2.05.65 4.5 1.34 4.5 3.92 0 2.7-2.76 4.08-5 4.08-1.67 0-3.33-.67-5-3l2-1c.56 1.17 1.89 2 3 2s3-.5 3-2ZM34 21h2v14h-2z" fill="#24303C"/></svg>