<!-- by TradingView --><svg width="56" height="56" xmlns="http://www.w3.org/2000/svg"><path fill="#63A50B" d="M0 0h56v56H0z"/><path d="M8.441 25L9 22h2.842c.279 0 .56 0 .883.067.917.139 1.594.694 2.032 1.665.16.416.24.832.24 1.249 0 .508-.04 1.017-.2 1.48a5.429 5.429 0 01-.837 1.619c-.318.416-.677.74-1.075 1.017-.04.046-.08.046-.12.093-.08.092-.08.092-.04.185.08.139.12.277.2.416C13.562 31.132 15 34 15 34h-3l-3.896-6.975C7.706 29.333 7.358 31.685 7 34H3.996c.21-1.142.41-2.285.642-3.423.159-.786.438-1.48.916-2.081.518-.74 1.195-1.203 1.992-1.388.239-.046.518-.108.757-.108h2.596c.16 0 .347-.034.439-.077.398-.185.662-.693.662-1.202 0-.185-.025-.324-.144-.463-.12-.139-.273-.258-.433-.258H8.441zM29.16 25.223c.287-.09.863-.224 1.191-.269.247-.045.494-.045.782-.045.78 0 1.52.224 2.178.627.535.358 1.026.852 1.313 1.434.124.314.247.627.33.94.04.18.046.314.046.493 0 .313-.006.672-.047.985a4.147 4.147 0 01-.247 1.03c-.164.492-.408.94-.696 1.342-.329.493-.699.85-1.15 1.164-.659.448-1.356.815-2.096.95-.493.089-.987.126-1.48.126-.699 0-1.357-.127-1.973-.44-.617-.314-1.112-.86-1.482-1.531a3.596 3.596 0 01-.37-1.299c-.04-.447 0-.895.082-1.343.421-2.473.973-4.926 1.458-7.387H30l-.84 3.223zM39.313 34c-.452 0-.904-.045-1.356-.18a3.586 3.586 0 01-1.522-.895c-.37-.358-.616-.806-.78-1.343-.124-.448-.165-.895-.124-1.343.041-.448.082-.896.206-1.344.164-.626.452-1.164.822-1.701.575-.806 1.318-1.262 2.18-1.665a6.175 6.175 0 011.604-.492c.411-.045.863-.037 1.275-.037.37 0 .698.082 1.069.171.534.134.986.403 1.438.761.494.448.82.904.985 1.576.082.447.123.895.04 1.387-.081.627-.205 1.254-.451 1.836-.453 1.075-1.151 1.88-2.097 2.418-.984.572-2.155.851-3.289.851z" fill="#fff"/><path d="M18.886 34c-.385 0-.897-.044-1.41-.223-.512-.178-.982-.4-1.366-.713a2.983 2.983 0 01-.94-1.47 3.81 3.81 0 01-.127-1.693c.128-.757.341-1.47.768-2.139a5.765 5.765 0 012.178-2.05c.64-.356 1.324-.534 2.05-.667.341-.045.725-.045 1.067-.045.213 0 .384 0 .598.045.683.089 1.323.267 1.878.668.427.312.77.668 1.025 1.114.171.312.256.623.342.98.128.802 0 1.56-.214 2.317a6.376 6.376 0 01-.939 1.871 4.69 4.69 0 01-1.41 1.203 4.968 4.968 0 01-1.92.668c-.47.09-.94.134-1.58.134zM51 31l-.624 3c-1.17 0-2.497-.292-3.393-1.083-.905-.865-.983-1.729-.983-2.977L47 22h3l-.524 3H52l-.548 3H49c-.125.645-.232.928-.326 1.579-.04.451.118.812.432 1.037.275.226.63.339.983.384H51c-.04 0 .118 0 0 0zM6.458 24.998c-.856.044-1.499-.738-1.456-1.477 0-.87.642-1.521 1.499-1.521.942.044 1.499.739 1.499 1.52-.043.696-.6 1.478-1.542 1.478z" fill="#fff"/><path d="M32 28.94c0 .627-.216 1.164-.65 1.612-.39.448-.909.717-1.515.761-.26 0-.52 0-.78-.044-.52-.09-.995-.493-1.039-1.12-.086-.806.174-1.477.736-2.015.217-.224.52-.358.867-.448.303-.09.606-.09.909-.09.303 0 .606.09.91.27.389.224.562.582.562 1.074zM38.375 29.953c0-.493.13-.986.436-1.433.349-.493.828-.761 1.394-.896a4.086 4.086 0 011.046 0c.262.045.523.18.741.358.218.224.305.493.349.762a2.291 2.291 0 01-1.787 2.507c-.392.09-.828.09-1.22-.045-.392-.09-.697-.358-.872-.76-.043-.135-.087-.27-.087-.404-.044.045 0 0 0-.09zM19.56 31.358c-.26 0-.521-.045-.782-.134-.347-.134-.607-.358-.694-.761-.043-.18-.087-.359-.087-.582 0-.538.174-1.03.478-1.433.303-.448.737-.672 1.258-.806.348-.045.652-.09.999-.045.39.045.694.179.955.492.173.18.26.448.304.672.043.672-.13 1.299-.608 1.791-.347.403-.781.627-1.302.717-.174.044-.348.09-.521.09z" fill="#63A50B"/></svg>