<!-- by TradingView --><svg xmlns="http://www.w3.org/2000/svg" width="56" height="56" viewBox="0 0 56 56"><path fill="#F0F3FA" d="M0 0h56v56H0z"/><path d="M15.03 30.74h1.63c.06.57.4.92 1.07.92.54 0 .87-.26.87-.62 0-1.3-3.57-.09-3.57-2.78 0-1.13 1.16-1.87 2.47-1.87 1.54 0 2.58.83 2.64 2.09h-1.62a.94.94 0 0 0-.97-.84c-.5 0-.77.21-.77.62 0 1.3 3.53-.11 3.53 2.78 0 1.22-1.08 1.96-2.58 1.96-1.57 0-2.63-.88-2.7-2.26zM12 26.5h2V33h-2v-6.5zM10.08 28C9.21 28 9 28.69 9 29.78V33H7v-6.5h2v1.06c.34-.8.64-1.06 1.41-1.06H11V28h-.92zM4 24h2v9H4v-9z" fill="url(#afvfv4gbf)"/><path fill-rule="evenodd" d="M26.4 24H22v7h4.5v-1H23v-2h3v-1h-3v-2h3.4v-1zm2.1 2h-1v5h1v-2.53c0-.86.54-1.47 1.33-1.47.72 0 1.17.51 1.17 1.3V31h1v-3.03c0-1.17-.75-1.97-1.9-1.97-.75 0-1.33.33-1.6.95V26zm5.53 2h2.63c-.06-.74-.52-1.25-1.32-1.25-.64 0-1.17.44-1.31 1.25zm3.65 1.35h-.93c-.13.55-.6.85-1.31.85-.85 0-1.36-.62-1.44-1.54h3.63l.02-.36c0-1.23-.8-2.3-2.3-2.3-1.5 0-2.35 1.11-2.35 2.47 0 1.35.94 2.53 2.44 2.53 1.2 0 2.07-.65 2.24-1.65zm1.82-.61c0-1.1.31-1.74 1.22-1.74h.72v-1h-.6c-.7 0-1.11.3-1.34.96V26h-1v5h1v-2.26zm6.5-.2c0-1.03-.51-1.7-1.46-1.7-.93 0-1.54.67-1.54 1.7 0 1.04.6 1.65 1.53 1.65.95 0 1.47-.61 1.47-1.65zM47 26v5.24c0 1.04-.77 1.76-1.88 1.76h-2.6v-1h2.5c.59 0 .98-.22.98-.82v-.8c-.24.42-.87.62-1.58.62-1.56 0-2.42-1.09-2.42-2.46 0-1.46.87-2.54 2.42-2.54.67 0 1.27.3 1.58.73V26h1zm2.84 3.36l1.1-3.36H52l-1.65 4.8-.7 2.2h-1l.74-2.2-1.71-4.8h1.06l1.1 3.36z" fill="#1AA94B"/><path d="M13 25.4a1.2 1.2 0 0 0 0-2.4v.66a.54.54 0 0 1 0 1.09v.66z" fill="url(#bfvfv4gbf)"/><path d="M11.8 24.2c0-.66.54-1.2 1.2-1.2v.66a.54.54 0 0 0 0 1.09.33.33 0 1 1 0 .66 1.2 1.2 0 0 1-1.2-1.2z" fill="url(#cfvfv4gbf)"/><circle cx="13" cy="23.33" r=".33" fill="#22A953"/><defs><linearGradient id="afvfv4gbf" x1="4" y1="28.5" x2="20.22" y2="28.5" gradientUnits="userSpaceOnUse"><stop stop-color="#051B50"/><stop offset="1" stop-color="#1F3C82"/></linearGradient><linearGradient id="bfvfv4gbf" x1="13.6" y1="23" x2="13.23" y2="25.41" gradientUnits="userSpaceOnUse"><stop stop-color="#17A743"/><stop offset=".66" stop-color="#63B6B7"/><stop offset="1" stop-color="#E8EEF7"/></linearGradient><linearGradient id="cfvfv4gbf" x1="12.34" y1="25.14" x2="12.71" y2="23.25" gradientUnits="userSpaceOnUse"><stop stop-color="#03174A"/><stop offset=".54" stop-color="#0A7ABB"/><stop offset="1" stop-color="#E5F0F8"/></linearGradient></defs></svg>