<!-- by TradingView --><svg width="56" height="56" viewBox="0 0 56 56" xmlns="http://www.w3.org/2000/svg"><path fill="#F0F3FA" d="M0 0h56v56H0z"/><path d="M15 14h12.98c.43-.07.87-.1 1.3-.13.84-.07 1.67-.13 2.47-.44 3.62-1.4 4.76-3.43 4.76-3.43a8.65 8.65 0 0 1-3.37 4.46l-.13.08c-2.37 1.47-5.27 1.45-7.78 1.43a18.42 18.42 0 0 0-3.4.16c-4.58.88-4.53 2.98-4.53 2.98a7.52 7.52 0 0 1 6.36-.09c-1.91-.03-3.07.63-4.58 1.5-.52.3-1.08.61-1.73.94-.38.2-.8.32-1.22.34-.34.01-.6-.1-.9-.24l-.23-.1V14Zm21.63 2.93c.36.5.78.98 1.21 1.48.9 1.03 1.81 2.08 2.28 3.39.32.87.07 2.3-.2 3.55a21.39 21.39 0 0 0-1.62-2.83c-.38-.54-.67-.96-.99-1.37-.3-.4-.62-.8-.97-1.17 0 0-2.01 2.61 1.61 2.81 0 0 2.12 3.65 3.05 6.08V14h-5.9c-.1.73.58 1.65 1.39 2.74l.14.19Zm-4.5 4.4s-3.47 3.24-.99 6.8c.99 1.42 2.47 2.55 3.92 3.66 2.19 1.67 4.28 3.27 4.42 5.68a8.13 8.13 0 0 0 1.36-3.38s1.82-.47 2.16-2.75c0 0-1 1.4-1.92 1.73a1.1 1.1 0 0 1-.71-.02c-.87-.25-1.22-.78-1.62-1.82a3 3 0 0 0-1.61-1.56l-.9-.33c-2.5-.86-6.83-2.34-4.1-8.02ZM36.63 46c1.55-2.16 1.73-3.54-.6-5.34-1.1-.85-1.55 1.23-1.55 1.24 3.06 1.6 2.21 3.94 2.15 4.1ZM18.1 24.39s-6.54 1.26-6.81-3.72c0 0-1.84 5.69 3.6 5.25 0 0-5.47 5.52-.35 11.55-.06-.1-3-4.74 3.56-13.08Z" fill="#4AC1C1"/></svg>