<!-- by TradingView --><svg width="56" height="56" viewBox="0 0 56 56" xmlns="http://www.w3.org/2000/svg"><path fill="#F0F3FA" d="M0 0h56v56H0z"/><path fill-rule="evenodd" d="M36 37c6.08 0 11-4.7 11-10.5 0-5.41-4.3-9.87-9.8-10.44A11.55 11.55 0 0 1 50 27.5C50 33.85 44.8 39 38.4 39c-3.47 0-6.58-1.5-8.7-3.9 1.78 1.2 3.95 1.9 6.3 1.9Zm-20-5.49V33h3V18h-3v5.36A4.1 4.1 0 0 0 12.83 22C10.73 22 8 23.78 8 27.82A5.02 5.02 0 0 0 12.83 33c1.34 0 2.57-.54 3.17-1.49Zm-2.5-1.01c1.38 0 2.5-1.34 2.5-3s-1.12-3-2.5-3-2.5 1.34-2.5 3 1.12 3 2.5 3Zm9.5-11a1.5 1.5 0 1 1-3 0 1.5 1.5 0 0 1 3 0Zm2.16 9.92L24 31.3c1.23 1.04 3 1.7 4.12 1.7 1.11 0 3.88-.41 3.88-3.38 0-2.6-2.8-3.41-4-3.76a6.5 6.5 0 0 1-.41-.13c-.75-.28-.76-1.59.74-1.59 1.2 0 2.12.7 2.44 1.06l1-1.98A5.3 5.3 0 0 0 28.44 22c-2.03 0-3.84 1.07-3.84 3.1 0 2.03 1.82 3.15 3.35 3.5 1.22.27 1.58.95 1.6 1.25 0 .32-.3.96-1.42.96-1.12 0-2.44-.93-2.96-1.39ZM23 22h-3v11h3V22Zm18.21 3.76 1.57-2A7.48 7.48 0 0 0 38.24 22 5.38 5.38 0 0 0 33 27.5c0 3.04 2.35 5.5 5.24 5.5 1.6 0 3.44-.75 4.76-1.94l-1.76-1.95a3.83 3.83 0 0 1-2.56 1.11A2.73 2.73 0 0 1 36 27.45c0-1.53 1.2-2.77 2.68-2.77.86 0 1.86.42 2.53 1.08ZM19.22 35H20v4h-.78v-.27c-.23.17-.5.27-.8.27-.79 0-1.42-.67-1.42-1.5s.63-1.5 1.41-1.5c.3 0 .58.1.81.27V35ZM14 37.5a1.5 1.5 0 1 1 2.97.3H14.75a.79.79 0 0 0 1.35.24l.54.44A1.5 1.5 0 0 1 14 37.5Zm0 0V39h-.7v-1.84c0-.18-.09-.54-.44-.54-.22 0-.4.23-.51.47V39h-.65v-1.84c0-.18-.1-.54-.44-.54-.26 0-.46.3-.57.58v1.77H10V36h.7v.5c.1-.24.32-.49.67-.49.4 0 .7.29.86.66.08-.26.3-.66.74-.66.62 0 1.03.66 1.03 1.27v.22Zm4.51.86c.34 0 .63-.27.71-.64v-.44c-.08-.37-.37-.64-.71-.64-.4 0-.74.39-.74.86s.33.86.74.86ZM26 39h-.8v-3h.8v.38c.13-.2.34-.37.66-.37.88 0 1.14.66 1.14 1.27V39h-.79v-1.84c0-.18-.1-.54-.47-.54-.23 0-.42.22-.54.44V39Zm-10.5-2.33a.8.8 0 0 0-.75.52h1.5a.8.8 0 0 0-.75-.52Zm14 2.33c.46 0 .86-.2 1.14-.52l-.53-.43a.8.8 0 0 1-1.36-.24H30.97A1.5 1.5 0 0 0 29.5 36a1.5 1.5 0 0 0 0 3Zm.74-1.81h-1.49a.8.8 0 0 1 .75-.52.8.8 0 0 1 .74.52Zm-9.67-1.3c.24 0 .43-.2.43-.44a.44.44 0 0 0-.43-.45c-.23 0-.42.2-.42.45s.19.45.42.45ZM21 36h-.77v3H21v-3Zm3.8-.55c0 .25-.2.45-.43.45a.44.44 0 0 1-.43-.45c0-.25.2-.45.43-.45.23 0 .42.2.42.45ZM24 36h.77v3H24v-3Zm-.45 2.34c-.25.4-.68.66-1.16.66-.77 0-1.39-.67-1.39-1.5s.62-1.5 1.4-1.5c.44 0 .84.22 1.1.57l-.47.52a.7.7 0 0 0-.61-.38c-.4 0-.72.35-.72.79 0 .44.32.8.72.8a.7.7 0 0 0 .6-.36l.53.4Z" fill="#C42228"/></svg>