<!-- by TradingView --><svg width="56" height="56" viewBox="0 0 56 56" xmlns="http://www.w3.org/2000/svg"><path fill="#F0F3FA" d="M0 0h56v56H0z"/><path d="M20 37h2v-5.13c.92.7 1.83 1.19 2.98 1.13 3.14-.13 5.16-2.93 5.01-5.95-.18-2.98-2.56-5.24-5.32-5.04-2.62.19-4.65 2.53-4.67 5.36V37Zm4.97-6c-1.71.02-2.94-1.7-2.97-3.56-.02-1.86 1.16-3.4 2.88-3.44H25c1.72.04 3.03 1.6 3 3.45-.03 1.82-1.35 3.51-3.03 3.55ZM41 22v2.02c-.25.05-.5.08-.74.14-1.39.4-2.25 1.73-2.26 3.36-.01 1.84 0 3.66 0 5.48h-2v-5.44c0-2.9 2.02-5.33 4.64-5.55L41 22ZM32 22h2v11h-2V22ZM50.56 23.77a5.36 5.36 0 0 0-3.67-1.76l-.4-.01a5.43 5.43 0 0 0-5.07 3.39 5.59 5.59 0 0 0 1.31 6.14 5.45 5.45 0 0 0 8.42-1.21c.27-.45.5-.94.67-1.44l.08-.25h-2.08l-.05.12A3.44 3.44 0 0 1 46.6 31a3.78 3.78 0 0 1-3.57-3h8.96v-.1c0-.13.02-.1.02-.25a5.66 5.66 0 0 0-1.44-3.88Zm-7.4 2.61.03-.1A3.53 3.53 0 0 1 46.47 24c1.48 0 2.97.96 3.4 2.4h-6.71v-.02ZM19 29.7c0 .23-.02.44-.05.66-.29 1.38-1.41 2.64-2.9 2.64H9v-2h6.88c.7 0 1.12-.66 1.12-1.3 0-.16 0-.34-.07-.5a1.17 1.17 0 0 0-.62-.64 1.08 1.08 0 0 0-.43-.09h-3.85a2.7 2.7 0 0 1-1.21-.27A3.61 3.61 0 0 1 9.5 27a3.57 3.57 0 0 1-.5-1.82 3.53 3.53 0 0 1 .5-1.79 3.02 3.02 0 0 1 2.53-1.4H18v2h-5.76c-.7 0-1.24.48-1.24 1.2a1.38 1.38 0 0 0 .36.95c.1.12.24.22.38.3.16.05.32.09.5.09h3.8c.2 0 .4.02.6.06.18.03.37.1.55.2.17.07.34.17.5.29a3.4 3.4 0 0 1 .78.85 3.56 3.56 0 0 1 .44 1.14c.07.21.09.41.09.63ZM5 22h2v11H5V22Z"/></svg>