<!-- by TradingView --><svg width="56" height="56" viewBox="0 0 56 56" xmlns="http://www.w3.org/2000/svg"><path fill="#F0F3FA" d="M0 0h56v56H0z"/><path d="M26 18.67c0-.37.32-.67.7-.67h4.6c.38 0 .7.3.7.67v2.53c0 .37-.32.67-.7.67h-.36v10.26h.35c.4 0 .71.3.71.67v2.53c0 .37-.32.67-.7.67h-4.6c-.38 0-.7-.3-.7-.67V32.8c0-.37.32-.67.7-.67h.36V21.87h-.35c-.4 0-.71-.3-.71-.67v-2.53Z" fill="#003F7C"/><path d="M25.7 20.63V21L24 22.53v-.38l1.7-1.52ZM24 23.2v-.21l1.73-1.55c.02.1.06.2.1.3l-1.81 1.62a.67.67 0 0 1-.02-.16Zm.19.46c.07.07.15.13.25.17l1.83-1.65a1.2 1.2 0 0 1-.23-.18l-1.85 1.66Zm.83.2h-.13l1.73-1.53.1.01v.29l-1.7 1.52v-.28Zm0 .74v.39l1.7-1.52v-.39l-1.7 1.52Zm0 1.23v-.39l1.7-1.52v.39l-1.7 1.52Zm0 .45v.39l1.7-1.52v-.39l-1.7 1.52Zm0 1.23v-.39l1.7-1.52v.4l-1.7 1.51Zm0 .45v.4l1.7-1.53v-.39l-1.7 1.52Zm0 1.23v-.39l1.7-1.51v.38l-1.7 1.52Zm0 .46v.38l1.7-1.52v-.38l-1.7 1.52Zm0 1.22v-.38l1.7-1.52v.39l-1.7 1.51Zm0 .46v.39l1.7-1.52v-.4l-1.7 1.53Zm0 1.23v-.4l1.7-1.51v.39l-1.7 1.52Zm0 .45v.39l.68-.6v-.02c0-.16.03-.32.1-.47l-.78.7Zm0 1.12h-.31l-.7.63-.01.04v.35l1.7-1.52v-.39l-.68.61v.28Zm.68-.05L24 35.6v.4l1.7-1.53v-.38ZM24 36.84v-.38l1.7-1.52v.38L24 36.83Zm0 .46v.04c0 .1.02.2.07.29l1.83-1.65c-.05-.08-.1-.17-.13-.26L24 37.29Zm.58.7a.68.68 0 0 1-.3-.12l1.85-1.65c.08.06.17.12.26.16l-1.8 1.61Zm.5.01h.44l1.69-1.51h-.43L25.08 38Zm1.47 0h-.53l1.6-1.43-.07-.08h.73L26.55 38Zm.52 0h.53l1.75-1.51h-.55L27.07 38Zm1.48 0h-.43l1.65-1.43v.38L28.55 38Zm.52 0h.02c.35 0 .64-.27.68-.6l-.7.6Zm-2.55-6.34.2-.04v-.13l-.2.17Zm-.82-11.49V20h-.24L24 21.3v.4l1.7-1.53ZM24.68 20h.27l-.95.85v-.18c0-.37.3-.67.68-.67Z" fill="#003F7C"/><path d="M28 45a17 17 0 1 0-16.81-14.48c.24-8.92 5.55-18.47 16.19-18.47 9.05 0 15.94 6.94 15.94 16.04-.7 8.54-7.55 16.4-15.82 16.9l.5.01Z" fill="#003F7C"/></svg>