<!-- by TradingView --><svg width="56" height="56" viewBox="0 0 56 56" xmlns="http://www.w3.org/2000/svg"><path fill="#F0F3FA" d="M0 0h56v56H0z"/><path d="M7 24.25a21.7 21.7 0 0 1 12.1 2.32c1.4-.2 4.42-.65 5.16-.8.08 0 .16-.02.23-.03.81-.16 1.35-.26 1.06-.5-.22-.2-.9-.04-1.75.15-.42.1-.88.2-1.35.28-1.45.25-3.5.38-3.36.2.14-.2 2.28-.45 3.18-.54.9-.1 3.01-.63 2.77-.8-.14-.1-.47-.03-1.07.08-.39.07-.89.17-1.52.25-1.61.22-4.26.22-3.96.11.14-.04.42-.06.83-.08.54-.03 1.3-.06 2.16-.2 1.5-.25 2.88-.52 2.78-.7-.1-.18-.6-.2-2.3.13-1.72.33-3.37.47-3.56.24-.1-.12.19-.15.77-.2.52-.04 1.29-.1 2.2-.28l.52-.1c1.54-.3 2.1-.4 1.89-.59-.24-.2-.85-.04-2.02.27h-.02c-1.18.32-3.98.47-3.72.24.13-.11.58-.1 1.12-.1.58 0 1.26.01 1.72-.13l.63-.18c.8-.23 1.7-.48 1.63-.77-.05-.22-.25-.15-.69 0-.3.09-.7.22-1.23.32-1.33.25-3.63.46-3.3.29.16-.1.62-.15 1.16-.2.5-.07 1.08-.13 1.55-.24l.56-.13c.82-.17 1.59-.34 1.53-.64-.04-.24-.47-.11-1.03.04-.3.09-.63.18-.96.24-.93.15-3.41.27-3.05.13.16-.06.52-.1.98-.14.57-.05 1.29-.12 1.97-.27 1.24-.27 1.76-.5 1.66-.63-.05-.06-.62.05-1.25.18-.55.1-1.15.22-1.52.25-.81.05-2.44 0-2.27 0 .16 0 1.84-.2 2.85-.34 1.02-.15 1.87-.43 1.87-.67 0-.2-.84-.04-1.76.14l-.6.12-.68.13c-.98.2-1.99.4-1.85.2.1-.14.47-.2 1.04-.28.45-.07 1.02-.16 1.66-.31 1.44-.36 2.6-.66 1.98-.74a6.07 6.07 0 0 0-1.83.3c-.34.08-.68.17-1 .23-1.01.2-2.66.41-2.26.2.32-.15 1.32-.37 2.22-.57l.73-.16.96-.24a5.35 5.35 0 0 1 1.4-.27c.12.04.28.45.44.84a4.26 4.26 0 0 0 .4.81c.5.85 2.82 4.82 8.02 6.7.06.03.23.22.36.7l.06.23c.16.6.38 1.43.65 1.74.24.27.7 1 .91 1.33a33.3 33.3 0 0 0 .71 3.32c.32 1.05 1.1 3.64 2.78 6.12.31.34 1.05 1.03 1.51 1.1.57.1-.2-1.05-.73-1.82-.53-.76-2.3-4.04-2.73-6.04-.43-2-.3-4.01-.3-4.01-.42-.75-1.3-2.51-1.41-3.6-.14-1.38-.46-2.23-1.22-2.9l-.4-.34c-.7-.61-1.5-1.3-1.43-1.45.07-.17.59.23 1.24.86l.4.38c.55.5 1.1 1.01 1.29 1.57.2.55.16.72.12.73.07 0 .3-.06.72-.27l.3-.17c.94-.55 3.42-1.99 6.03-1.99 1.72 0 2.76.37 3.65.7.66.22 1.23.43 1.93.43h1.3c-.01-.4.1-1.22.69-1.4.01-.03-.03-.14-.3-.3-.08-.05-.18-.16-.3-.3-.43-.47-1.17-1.3-2.54-1.3-.8 0-1.27.07-1.78.15-.65.1-1.37.2-2.92.2-.35 0-.72 0-1.08.02-2.47.04-5.07.1-7.3-2-.68-.5-2.85-1.5-6.17-1.5-4.15 0-12.15 2.68-17.86 6.25Zm37.35-1.42c.39.62.34.92.32 1.03v.03c-.74.05-1.46-.7-1.47-.98 0-.28.15-1.07.24-1.16.1-.1.48.38.91 1.08Zm1.93.06c0 .1-.09.2-.2.2a.2.2 0 0 1-.2-.2c0-.1.1-.2.2-.2.11 0 .2.1.2.2Zm.82 1.3c.05.2 1.46.24 1.51.24.18 0 .35-.04.38-.12.04-.08-.13-.33-.46-.42-.15-.04-.35-.2-.53-.35-.2-.16-.38-.31-.5-.3-.23.02-.46.75-.4.95ZM24.38 26.6c.37-.15 1.2-.47 1.54-.56.44-.12.67-.43.34-.36-.34.07-.86.16-2.09.36-.66.1-1.27.25-1.77.36-.43.1-.77.18-.99.2l-.3.03c-.41.03-.84.06-.95.17-.13.13.05.42.84.44.64.01 2.52-.42 3.38-.64Zm2.43 0c-.36.1-1.23.47-1.61.64-.9.26-2.89.78-3.57.8-.84.02-1.05-.26-.91-.4.11-.11.56-.17 1-.22l.32-.04c.23-.03.6-.13 1.04-.25.52-.14 1.17-.3 1.87-.45 1.3-.25 1.85-.36 2.2-.45.35-.09.12.23-.34.37Zm-1.18 1.27c.39-.16 1.25-.53 1.62-.64.45-.13.69-.45.34-.37a55 55 0 0 1-2.2.46c-.7.13-1.35.3-1.88.45-.45.12-.8.21-1.04.25l-.32.03c-.44.06-.89.1-1 .22-.14.14.07.42.92.4.67-.01 2.65-.54 3.56-.8Zm-2.59.9c-.64.1-1.27.04-1.51 0-.7.3.1.8 1.2.8a8.2 8.2 0 0 0 3.36-.8c.6-.39 2-.8 2.67-.99.66-.19.4-.46.08-.5-.23-.04-.7.1-1.53.36l-1.09.33a26.8 26.8 0 0 1-3.18.8Zm-.84 1.35c.14.2.61.6 1.3.6.61 0 1.14-.4 1.59-.73.18-.13.35-.26.5-.34.37-.2 1.01-.46 1.5-.67l.51-.23a17 17 0 0 1 .65-.25c.7-.27 1.65-.64 1.57-.71-.1-.1-.59-.02-2.22.53-.62.21-1.27.46-1.87.7-.99.38-1.85.72-2.29.74h-.04c-.69.05-1.32.09-1.2.36Zm2.88 2.1c-.64.32-1.17.14-1.36 0-.41-.62.79-1.7 1.64-2.19.68-.39 3.04-1.24 4.14-1.62l-1.84 1.82c-.6.53-1.95 1.69-2.58 2Zm5.25-4.11c-.73.77-2.33 2.44-2.99 2.9a29.5 29.5 0 0 0-2.87 2.33c-.23.3-.04 1.11 1.06.5 1.1-.62 3.31-3.02 3.65-3.52.28-.4 1.03-1.41 1.37-1.87.18-.18.39-.5-.22-.34Zm-.14 1.04c-.3.38-.49.91-.55 1.13.18.63 1.53-1.28 1.34-1.45-.18-.16-.43-.15-.8.32Zm.6.87c-.85.6-2.8 2.05-3.81 3.08-1.27 1.28-1.6 1.88-1.32 2.32.27.43.77.08 1.88-.97.89-.84 2.48-2.77 3.17-3.63.2-.32.59-.97.52-1.03-.06-.06-.32.13-.44.23Zm-4.06 5.95c.34-.44 3.18-3.58 4.56-5.1.54-.34.4.15.26.45-.55 1-1.84 3.25-2.67 4.32-1.03 1.33-1.61 1.84-2.04 1.74-.44-.11-.54-.87-.11-1.41Zm4.42-3.2c.33-.55.82-1.35.95-1.26.17.12-.21 1.98-.52 3.05-.25.86-1.44 2.87-2 3.77-.21.24-.75.74-1.2.81-.57.1-.74-.8-.47-1.23.93-1.49 2.78-4.44 3-4.75l.24-.4Zm-.9 5.54a63.9 63.9 0 0 0 2.22-5.47c.16-.43 0 3.18-.44 4.35l-.28.75c-.48 1.32-1.17 3.2-1.5 3.23-.4.03-.55-.73-.5-1.12l.01-.21c.02-.35.05-.78.5-1.53Zm2.6-3.97c-.13 1.05-.5 3.39-1.02 4.38a4.15 4.15 0 0 0-.19 3.13l.12.21c.1.2.17.33.36.38.15.03.17-.44.2-1.1.03-.44.06-.95.12-1.46.17-1.3.5-3.73.59-4.15.07-.34-.1-1.07-.19-1.4Zm.25 6.47a16.12 16.12 0 0 1 0-3.57 19.2 19.2 0 0 0 1.35 4.2c.53.98.75 1.4.24 1.4-.55 0-1.36-.61-1.59-2.03Zm.17-5.3c.08.94.4 3.19.97 4.56.73 1.7 2.19 3 2.25 2.93.06-.08-.58-1.65-1.32-3.16a37.92 37.92 0 0 1-1.9-4.34Z" fill="#007C85"/></svg>