<!-- by TradingView --><svg xmlns="http://www.w3.org/2000/svg" width="56" height="56" viewBox="0 0 56 56"><path fill="#F0F3FA" d="M0 0h56v56H0z"/><path d="M20 32h2v-8h-2v8Z" fill="#00A2ED"/><path d="M52 29.53c0-1.27-.97-1.72-1.85-2.1-.88-.37-1.87-.7-1.87-1.4 0-.48.45-1.03 1.17-1.03.46 0 1 .33 1.17.74l.91-.34a2.28 2.28 0 0 0-2-1.4c-1.22 0-2.25.87-2.25 2.15 0 2.38 3.72 1.75 3.72 3.45 0 .9-.86 1.4-1.55 1.4-.85 0-1.33-.52-1.65-1.23l-1.01.31A2.73 2.73 0 0 0 49.45 32c1.4 0 2.55-1.03 2.55-2.47ZM41.73 31a2.9 2.9 0 0 1-3.02-3c0-1.53 1.02-3.02 3.02-3 2 .02 2.98 1.47 2.98 3 0 1.55-1 3.02-2.98 3Zm0-7a4 4 0 1 0-.04 8 4 4 0 0 0 .04-8ZM32.67 25c1.4 0 2.12.9 2.3 2H30.2c.16-1.1 1.07-2 2.47-2Zm3.5 4.87-.93-.56c-.36.66-.9 1.7-2.45 1.69-1.55 0-2.68-1.13-2.68-3h6.12c0-2.14-1.4-4-3.57-4C30.3 24 29 25.86 29 28.1c0 2.17 1.54 3.9 3.79 3.9 1.53 0 2.66-.77 3.38-2.13ZM26 32h1V21h3v-1h-7v1h3v11Z" fill="#052451"/><path d="M13.76 27.13c-.24 0-.48.04-.72.1 0 0-.76.23-1.2.16-.5-.08-1.43-1.15-1.52-1.44-.07-.25-.14-.73.2-1.37a3.57 3.57 0 1 0-2.66 1.55s1.73-.16 2.17.27c.31.3 1.31 1.2 1.35 1.62.04.43-.23 1.01-.25 1.2a2.71 2.71 0 1 0 2.63-2.09Z" fill="url(#ajer0s3fs)"/><path d="M20 32.86h.83V36h.2v-3.14h.83v-.2H20v.2Zm3.85 1.04a.63.63 0 0 0-.58.35v-1.9h-.2V36h.2v-1.04c0-.4.07-.88.57-.88.43 0 .47.3.47.66V36h.19v-1.26c0-.52-.14-.84-.65-.84Zm2.92.18c.2 0 .37.08.5.2.15.14.23.31.25.5h-1.51a.8.8 0 0 1 .25-.5c.14-.13.33-.2.51-.2Zm0-.18c-.57 0-.95.48-.95 1.04 0 .58.37 1.06.95 1.06.18 0 .36-.04.52-.14.15-.1.28-.24.36-.4l-.16-.1a.77.77 0 0 1-1.48-.4h1.7c.01-.57-.34-1.06-.94-1.06Zm2.46.3v-.26h-.2V36h.2v-1.07c0-.3-.03-.85.4-.85.05 0 .1.01.13.04l.1-.18a.5.5 0 0 0-.2-.04c-.1 0-.19.02-.26.08a.46.46 0 0 0-.17.22Zm2.61 1.62c-.47 0-.77-.42-.77-.88 0-.44.3-.86.76-.86.48 0 .79.37.79.83 0 .49-.28.9-.78.9Zm.76-1.53a.91.91 0 0 0-.76-.4c-.6 0-.96.46-.96 1.05 0 .58.37 1.06.97 1.06a.86.86 0 0 0 .75-.4v.4h.2v-2.06h-.2v.35Zm2.67 1.53c-.48 0-.79-.36-.79-.83 0-.48.27-.91.78-.91.48 0 .77.43.77.89 0 .45-.3.85-.76.85Zm-.02-1.92a.86.86 0 0 0-.75.4v-.36h-.2V37h.2v-1.4a.9.9 0 0 0 .76.4c.6 0 .96-.45.96-1.03 0-.6-.37-1.07-.97-1.07Zm3.06.18c.18 0 .36.08.5.2.14.14.22.31.25.5h-1.52a.8.8 0 0 1 .25-.5c.14-.13.33-.2.52-.2Zm0-.18c-.58 0-.96.48-.96 1.04 0 .58.37 1.06.95 1.06a.94.94 0 0 0 .88-.55l-.16-.1a.8.8 0 0 1-.28.34.77.77 0 0 1-1.2-.72h1.7c.01-.58-.34-1.07-.94-1.07Zm3.45 1.18c0 .39-.05.74-.52.74-.47 0-.51-.35-.51-.74v-1.14h-.2v1.2c0 .21 0 .42.12.59a.79.79 0 0 0 .59.27.77.77 0 0 0 .59-.27c.12-.17.12-.38.12-.58v-1.21h-.2v1.14Zm1.88-1.86h-.2v.72h-.21v.18h.22V36h.19v-1.88h.34v-.18h-.34v-.72ZM45.19 36h.19v-2.06h-.2V36Zm.1-2.91c-.05 0-.1.02-.13.05a.18.18 0 0 0 0 .25.17.17 0 0 0 .25 0 .18.18 0 0 0 0-.25.17.17 0 0 0-.12-.05Zm2.53 2.73a.84.84 0 0 1-.57-.27.88.88 0 0 1 0-1.2.84.84 0 0 1 .58-.27.89.89 0 0 1 .7.33v-.27a1.02 1.02 0 0 0-1.41.07 1.07 1.07 0 0 0 0 1.47c.19.2.44.32.71.32.27 0 .52-.1.72-.28v-.27a.95.95 0 0 1-.73.37Zm2.22-1.43c0-.08.05-.16.11-.22a.33.33 0 0 1 .23-.09c.07 0 .14.02.2.06.07.04.11.1.14.17l.17-.1a.57.57 0 0 0-.7-.3.5.5 0 0 0-.3.3.53.53 0 0 0-.04.2c0 .34.3.46.58.56.2.07.38.14.38.4a.46.46 0 0 1-.13.31.44.44 0 0 1-.31.14c-.26 0-.42-.17-.5-.41l-.18.06c.03.15.12.29.25.39.12.1.27.14.43.14a.6.6 0 0 0 .44-.17.62.62 0 0 0 .19-.46c0-.73-.96-.5-.96-.98Z" fill="#052451"/><path d="M20.86 19.12a1.75 1.75 0 0 0-2 1.6h-.01s-.05.85-.3 1.03c-.17.13-.68.55-.88.53a1.46 1.46 0 0 1-.48-.17 1.34 1.34 0 1 0 .74 1.04c-.03-.2-.03-.4.01-.6.08-.23.66-.6.81-.62a.86.86 0 0 1 .65.2 1.75 1.75 0 1 0 1.46-3Z" fill="#0091FB"/><defs><linearGradient id="ajer0s3fs" x1="15.65" y1="19.12" x2="4.05" y2="31.72" gradientUnits="userSpaceOnUse"><stop stop-color="#00AAE7"/><stop offset="1" stop-color="#0091FB"/></linearGradient></defs></svg>