<!-- by TradingView --><svg width="56" height="56" xmlns="http://www.w3.org/2000/svg"><path fill="#D22930" d="M0 0h56v56H0z"/><path d="M34.513 26L41 18h-6l-1.782 8c.463-.057.857-.05 1.295 0z" fill="#FFC423"/><path d="M10 23h4l-3 11H7l3-11zm9.347 3h1.078l-.848 3h-1.13l-1.462 5H13l1.544-5h-1.296L14 26h1.269L16 24h4l-.653 2zM27 29c-.475-.029-1.065-.07-1.554 0-1.068.171-1.338.852-1.605 1.793L23 34h-4l2-8h4l-.533 1.744S25.73 26 28 26l-1 3zm15.525-1.235c.906-.983 1.099-1.765 2.582-1.765 1.796 0 2.155 1.082 1.707 3.126L46.002 34H42l.881-3.89c.044-.344.394-1.124-.259-1.124-.638 0-.631.682-.75 1.123L41 34 37 34l2.053-8H43l-.475 1.765zM34.512 26l-1.914 2.328L33.22 26c-2.612.014-5.328 1.445-6.055 4.11C26.468 32.632 28.522 34 31 34c2.478 0 5.233-1.368 5.93-3.89.609-2.21-.533-3.711-2.418-4.11zm-.846 4.01c-.237.826-1.098 1.481-1.959 1.481-.86 0-1.365-.655-1.127-1.481.222-.827 1.083-1.483 1.943-1.483.861 0 1.366.656 1.143 1.483z" fill="#fff"/></svg>