<!-- by TradingView --><svg width="56" height="56" viewBox="0 0 56 56" xmlns="http://www.w3.org/2000/svg"><path fill="#F0F3FA" d="M0 0h56v56H0z"/><path d="M22.65 44.46C18.38 43.54 10 39.11 10 28.8 10 15.92 22.41 13 26.42 13H42v4H28.05C23.4 17.24 14 20.53 14 31.48c0 7.56 5.79 11.8 8.65 12.98ZM42 18v4H30c-3.44 0-11.07 3.72-11.07 11.4 0 6.86 4.76 10.27 7.14 11.11C22.33 43.9 15 40.41 15 31.4S23.62 18 27.51 18H42ZM20 33.58c0 7.75 6.04 10.58 9.16 11.03A9.6 9.6 0 0 1 24 36.02c0-6.64 5.92-9.02 8.86-9.02H42v-4H30.2C28.44 23 20 24.92 20 33.58ZM33.5 28a8.5 8.5 0 1 0 8.5 8.5V28h-8.5Z" fill="url(#alad2qkzu)"/><defs><linearGradient id="alad2qkzu" x1="31.15" y1="15.54" x2="25.91" y2="44.98" gradientUnits="userSpaceOnUse"><stop offset=".34" stop-color="#E36D0A"/><stop offset=".87" stop-color="#021F5F"/></linearGradient></defs></svg>