<!-- by TradingView --><svg width="56" height="56" viewBox="0 0 56 56" xmlns="http://www.w3.org/2000/svg"><path fill="#F0F3FA" d="M0 0h56v56H0z"/><path d="M19 28a1 1 0 1 0 0-2 1 1 0 0 0 0 2Z" fill="#94BF27"/><path d="M13.94 16.46c0 .26-.2.47-.45.47a.46.46 0 0 1-.46-.47c0-.25.2-.46.46-.46.25 0 .45.2.45.46Zm2.15.51c.25 0 .45-.2.45-.46s-.2-.47-.45-.47-.45.21-.45.47c0 .25.2.46.45.46Zm-1.75 1.55c0 .47-.38.86-.84.86a.85.85 0 0 1-.84-.86c0-.48.38-.86.84-.86.46 0 .84.38.84.86Zm2.6 0c0 .47-.38.86-.85.86a.85.85 0 0 1-.84-.86c0-.48.38-.86.84-.86.47 0 .84.38.84.86Zm-3.43 3.14c.5 0 .92-.43.92-.95a.94.94 0 0 0-.92-.95.94.94 0 0 0-.93.95c0 .52.42.95.93.95Zm3.48-.95c0 .5-.4.9-.88.9a.89.89 0 0 1-.87-.9c0-.5.39-.9.87-.9.49 0 .88.4.88.9Zm-3.5 3.03c.5 0 .92-.42.92-.95a.94.94 0 0 0-.92-.94.94.94 0 0 0-.93.94c0 .53.42.95.93.95Zm3.48-.95c0 .5-.4.9-.88.9a.89.89 0 0 1-.87-.9c0-.5.39-.9.87-.9s.88.4.88.9Zm-3.48 3.08c.5 0 .92-.43.92-.95a.94.94 0 0 0-.92-.95.94.94 0 0 0-.93.95c0 .52.42.95.93.95Zm3.48-.95c0 .5-.4.9-.88.9a.89.89 0 0 1-.87-.9c0-.5.39-.9.87-.9s.88.4.88.9Zm-3.48 3.1c.5 0 .92-.43.92-.95a.94.94 0 0 0-.92-.95.94.94 0 0 0-.93.95c0 .52.42.95.93.95Zm3.48-.95c0 .5-.4.9-.88.9a.89.89 0 0 1-.87-.9c0-.5.39-.9.87-.9s.88.4.88.9Zm-3.48 3.08c.5 0 .92-.42.92-.95a.94.94 0 0 0-.92-.94.94.94 0 0 0-.93.94c0 .53.42.95.93.95Zm3.48-.95c0 .5-.4.9-.88.9a.89.89 0 0 1-.87-.9c0-.49.39-.9.87-.9s.88.41.88.9Zm-3.48 3.08c.5 0 .92-.42.92-.94a.94.94 0 0 0-.92-.95.94.94 0 0 0-.93.95c0 .52.42.94.93.94Zm3.44-.94c0 .47-.37.86-.84.86a.85.85 0 0 1-.84-.86c0-.48.38-.86.84-.86.47 0 .84.38.84.86Zm1.54-9.74c.48 0 .87-.4.87-.9 0-.49-.39-.89-.87-.89s-.88.4-.88.9.4.9.88.9Zm.87 1.2c0 .49-.39.89-.87.89a.89.89 0 0 1-.88-.9c0-.5.4-.9.88-.9s.87.4.87.9Zm-.87 3.01c.48 0 .87-.4.87-.9 0-.49-.39-.89-.87-.89s-.88.4-.88.9.4.9.88.9Zm.45-7.29c0 .26-.2.46-.45.46a.46.46 0 0 1-.45-.46c0-.26.2-.46.45-.46s.45.2.45.46Zm-7.95-1.53c.26 0 .46-.2.46-.46s-.2-.47-.46-.47c-.25 0-.45.21-.45.47s.2.46.45.46Zm10 7.93c0 .25-.2.46-.45.46a.46.46 0 0 1-.45-.46c0-.26.2-.47.45-.47.26 0 .46.21.46.47Zm-.45-1.66c.26 0 .46-.21.46-.47 0-.25-.2-.46-.46-.46-.25 0-.45.2-.45.46s.2.47.45.47ZM21 20.7c0 .26-.2.46-.45.46a.46.46 0 0 1-.46-.46c0-.26.2-.47.46-.47.25 0 .45.21.45.47ZM6.45 25.38c.25 0 .46-.2.46-.46s-.2-.47-.46-.47c-.25 0-.45.21-.45.47 0 .25.2.46.45.46Zm.46 1.64c0 .25-.2.46-.46.46a.46.46 0 0 1-.45-.46c0-.26.2-.47.45-.47s.46.21.46.47Zm-.46-3.76c.25 0 .46-.21.46-.47 0-.25-.2-.46-.46-.46-.25 0-.45.2-.45.46s.2.47.45.47Zm.46-2.55c0 .26-.2.46-.46.46a.46.46 0 0 1-.45-.46c0-.26.2-.47.45-.47s.46.21.46.47Zm1.68-1.73c.25 0 .46-.2.46-.46s-.2-.46-.46-.46c-.25 0-.45.2-.45.46s.2.46.45.46Zm.46 10.17c0 .26-.2.47-.46.47a.46.46 0 0 1-.45-.47c0-.26.2-.46.45-.46s.46.2.46.46Zm-.46 2.65c.25 0 .46-.2.46-.46s-.2-.47-.46-.47c-.25 0-.45.21-.45.47 0 .25.2.46.45.46Zm2.84 1.65c0 .26-.2.46-.46.46a.46.46 0 0 1-.45-.46c0-.26.2-.46.45-.46.26 0 .46.2.46.46Zm4.66.44c.25 0 .45-.2.45-.46s-.2-.47-.45-.47-.45.21-.45.47c0 .25.2.46.45.46Zm-2.13 1.65c0 .25-.2.46-.45.46a.46.46 0 0 1-.46-.46c0-.26.2-.47.46-.47.25 0 .45.2.45.47ZM8.6 21.6c.48 0 .88-.4.88-.9 0-.49-.4-.89-.88-.89s-.87.4-.87.9.39.9.87.9Zm.88 1.2c0 .49-.4.89-.88.89a.89.89 0 0 1-.87-.9c0-.5.39-.9.87-.9s.88.4.88.9Zm-.88 5.17c.48 0 .88-.4.88-.9s-.4-.9-.88-.9-.87.4-.87.9.39.9.87.9Zm.84-3.05c0 .47-.37.86-.84.86a.85.85 0 0 1-.84-.86c0-.48.38-.86.84-.86.47 0 .84.38.84.86Zm2.39-6.38c0 .48-.38.86-.85.86a.85.85 0 0 1-.84-.86c0-.47.38-.86.84-.86.47 0 .85.39.85.86Zm-.85 3.09c.49 0 .88-.4.88-.9s-.4-.9-.88-.9-.87.4-.87.9.4.9.87.9Zm.88 1.18c0 .5-.4.9-.88.9a.89.89 0 0 1-.87-.9c0-.49.4-.9.87-.9.49 0 .88.41.88.9Zm-.88 3.03c.49 0 .88-.4.88-.9s-.4-.9-.88-.9-.87.4-.87.9.4.9.87.9Zm.88 1.22c0 .5-.4.9-.88.9a.89.89 0 0 1-.87-.9c0-.49.4-.9.87-.9.49 0 .88.41.88.9Zm-.88 3.03c.49 0 .88-.4.88-.9 0-.49-.4-.89-.88-.89s-.87.4-.87.9.4.9.87.9Zm.85 1.24c0 .48-.38.86-.85.86a.85.85 0 0 1-.84-.86c0-.47.38-.86.84-.86.47 0 .85.39.85.86Zm2.5 2.1c0 .47-.37.86-.83.86a.85.85 0 0 1-.84-.86c0-.48.37-.86.84-.86.46 0 .84.38.84.86Z" fill="#009ADF"/><path d="M25 31h-1.36a.68.68 0 0 0-.64.64v1.96c0 .24.26.4.5.4H25v2h-1.95c-.54 0-1.06-.22-1.45-.6a2.1 2.1 0 0 1-.6-1.48V26h2v3.14c.04 0 .1-.02.14-.04.17-.05.35-.1.5-.1H25v2Zm10 5h-2v-4.98c0-.53.23-1.05.65-1.43.42-.38.98-.59 1.57-.59H37v2h-1.44c-.36 0-.56.3-.56.63V36Zm-8.13-.89c.56.56 1.33.88 2.13.89.8 0 1.57-.33 2.13-.89.56-.56.88-1.32.87-2.1V29h-2v3.81c.03.74-.27 1.19-1 1.19s-1.03-.45-1-1.19V29h-2v4c0 .8.3 1.55.87 2.11Zm22.26-5.22A3.06 3.06 0 0 0 47 29c-.8 0-1.57.33-2.13.89a2.94 2.94 0 0 0-.87 2.1V36h2v-3.81c-.03-.74.27-1.19 1-1.19s1.03.45 1 1.19V36h2v-4c0-.8-.3-1.55-.87-2.11Zm-11.6 5.5c.6.45 1.56.61 2.39.61a9.74 9.74 0 0 0 2.28-.32l.16-.04c.27-.04.64-.11.64-.4V31c0-1.1-1.1-2-2.2-2H38v2h2.56a.45.45 0 0 1 .31.13.43.43 0 0 1 .13.3v.31c-1-.17-2.47-.3-3.42.4a2.02 2.02 0 0 0-.8 1.68 1.87 1.87 0 0 0 .75 1.56Zm3.47-.96c-1.3.3-2.53.18-2.53-.75 0-1.07 2.04-.78 2.53-.56v1.3ZM18 29h2v7h-2v-7Z" fill="#1D386D"/></svg>