<!-- by TradingView --><svg width="56" height="56" fill="none" xmlns="http://www.w3.org/2000/svg"><path fill="#F0F3FA" d="M0 0h56v56H0z"/><circle cx="32.039" cy="26.5" r="3.5" fill="#B7BF33"/><path fill-rule="evenodd" clip-rule="evenodd" d="M30.816 24.468a1.297 1.297 0 00.137 1.598l.13.136-.173.187c-.209.226-.326.657-.137.93.074.108.192.18.192.18-.246.231-.73.71-.367 1.28.363.573 1.653.724 2.554.3.501-.234.738-.539.771-.989.068-.928-.914-.93-1.572-.952-.804-.027-.885-.042-.997-.195-.067-.092-.032-.354.063-.462.04-.046.064-.072.094-.082 0 0 .395.173.84.076.631-.138 1.107-.68 1.05-1.331a1.448 1.448 0 00-.172-.55c-.005-.01.669 0 .669 0v-.687H32.06c-.481-.03-.968.145-1.244.561zm1.897.736c0 .41-.255.786-.685.782-.413-.003-.664-.325-.693-.722-.035-.469.262-.85.735-.821.416.025.643.35.643.76zm.112 2.585c.451.069.478.553.046.833-.506.328-1.476.22-1.694-.188-.105-.196-.03-.426.103-.596l.084-.108.664.02c.366.01.724.028.797.04zM7.5 35a3.5 3.5 0 100-7 3.5 3.5 0 000 7zm-1.36-4.98c.472-.273.964-.468 1.517-.46 1.334.022 1.338 1.175 1.342 2.182l.001.206v1.404h-.602l-.108-.419s-.554.462-1.203.48A1.043 1.043 0 016 32.354c0-.726.578-1.139 1.86-1.326l.377-.056c-.067-.484-.22-.802-.82-.775-.282.013-.821.243-.963.304l-.035.014c-.074-.103-.134-.219-.194-.334-.028-.054-.056-.108-.086-.16zm1.62 1.52c-.668.14-1.025.398-1.025.742 0 .327.22.518.596.518.254 0 .458-.076.711-.264l.183-.136.012-.956c-.018.002-.255.05-.478.097z" fill="#1E4020"/><circle cx="23.5" cy="31.5" fill="#B7BF33" r="3.5"/><path fill-rule="evenodd" clip-rule="evenodd" d="M23.657 29.641c-.553-.009-1.045.186-1.518.46.092.163.171.343.28.495.001.002.672-.304.998-.319.6-.026.753.292.82.775l-.378.056c-1.281.188-1.86.6-1.859 1.327 0 .607.477 1.075 1.087 1.058.65-.018 1.203-.48 1.203-.48l.108.42H25V31c0-.776-.539-1.346-1.343-1.359zm-.922 2.72c0-.343.357-.601 1.024-.74.223-.046.46-.095.478-.097l-.012.956-.183.136c-.253.189-.457.265-.71.265-.377 0-.597-.191-.597-.52zM15.5 30a3.5 3.5 0 001.5-6.663V28.5h-.636l-.028-.211c-.015-.116-.037-.211-.048-.211-.012 0-.09.06-.172.133-.548.48-1.411.476-1.9-.012-.36-.357-.53-.845-.53-1.513.002-.716.183-1.18.62-1.584.521-.483 1.241-.514 1.834-.078l.095.07v-2.018A3.5 3.5 0 1015.5 30zm-.997-2.954c-.135-.772.158-1.506.664-1.668.26-.082.648.008.952.221l.116.082v1.841l-.148.13c-.404.354-.899.395-1.247.102-.173-.146-.278-.366-.337-.709z" fill="#1E4020"/><path fill-rule="evenodd" clip-rule="evenodd" d="M40.5 35a3.5 3.5 0 100-7 3.5 3.5 0 000 7zm.506-5.784c0 .276-.227.5-.506.5a.503.503 0 01-.506-.5c0-.276.227-.5.506-.5.28 0 .506.224.506.5zm-.886 1.123h.76V34h-.76v-3.66zM48.5 30a3.5 3.5 0 100-7 3.5 3.5 0 000 7zm1.94-3.5c0 1.188-.869 2.15-1.94 2.15s-1.94-.962-1.94-2.15.869-2.15 1.94-2.15 1.94.962 1.94 2.15zm-.844 0c0 .838-.49 1.518-1.096 1.518-.605 0-1.096-.68-1.096-1.518s.49-1.518 1.096-1.518c.605 0 1.096.68 1.096 1.518z" fill="#B7BF33"/><path fill-rule="evenodd" clip-rule="evenodd" d="M13.694 27.891l-4.5 3-.173-.725 4.285-2.857.388.582z" fill="#1E4020"/><path fill-rule="evenodd" clip-rule="evenodd" d="M29.694 28.291l-4.194 3-.388-.582 4.194-3 .388.582zM46.694 28.291l-4.5 3-.388-.582 4.5-3 .388.582zM34.306 28.291l4.5 3 .388-.582-4.5-3-.388.582z" fill="#B7BF33"/></svg>