<!-- by TradingView --><svg xmlns="http://www.w3.org/2000/svg" width="56" height="56"><path fill="#932677" d="M0 0h56v56H0z"/><path d="M42.93 14.07c-13.2 3.41-25.38 1.42-29.82 0-.93-.27-1.12.31-1.1.63 0 8.47-.01 25.63 0 26.48 0 .85.87.81 1.3.69 15.1-3.73 27.9-.53 29.33 0 1.14.42 1.38-.25 1.36-.63V14.78c0-.84-.71-.82-1.07-.71z" fill="#fff"/><path d="M19 34.75V21.1c0-.32-.4-.53-1.19-.64-.62-.08-.8.2-.8.36v14.06c.01.66.7.54 1.39.42.54-.1.62-.41.6-.55zm6.16-13.38a102.83 102.83 0 01-4.6-.35c-.45-.05-.56.19-.56.31v.77c-.01.21.16.3.25.33 1.42.18 2.88.25 3.26.31.3.05.21.33.13.46l-3.56 7.39c-.22.76.26 1.13 1.25 1.02.98-.1 3.6-.25 4.12-.26.43 0 .54-.33.55-.48v-.61c-.02-.33-.37-.4-.55-.39l-2.62.18c-.54.02-.5-.27-.42-.42l3.5-7.2c.21-.77-.41-1.02-.75-1.06zm2.86.09c1.1-.04 2.7-.07 3.52-.08a.44.44 0 01.46.4v.68c0 .27-.34.38-.52.4h-2.03c-.32.01-.44.23-.45.33v1.44c0 .24.3.32.45.33h1.95c.45 0 .59.24.6.36v.66c0 .32-.34.42-.52.43-.7-.01-1.7-.02-2.03 0-.34.01-.45.2-.45.3 0 .8-.01 2.46 0 2.74.01.29.31.37.45.37.55.01 1.28.05 1.82.08h.01c.55.03.7.29.72.42v.65c0 .28-.4.37-.6.39-.71-.03-2.4-.03-3.42-.09-.82-.04-.98-.57-.98-.85v-8.15c.03-.66.7-.82 1.02-.81z" fill="#932677"/><path fill-rule="evenodd" d="M33 31.1v-8.38c.01-.49.73-1.51 2.19-1.67l.86-.1c1.23-.16 1.85-.24 2.41.32.54.55.58 1.2.54 1.45v12c.01.34-.19.98-1.2.76a63.49 63.49 0 00-17.04-.4c-.24.05-.72.06-.75-.29a9.66 9.66 0 010-1.05c0-.11.14-.35.75-.41.77-.1 8.48-.85 15.54.23.24.03.7.02.7-.36v-3.62c0-.1-.07-.29-.35-.29H35.3c-.1 0-.3.08-.3.4v1.5c0 .15-.12.44-.5.42h-.07c-.5-.02-1.43-.05-1.43-.5zm2.3-8.6l1.3-.22c.13-.02.39.02.4.28v5.02c0 .09-.08.27-.34.27H35.3c-.09.02-.28-.04-.29-.38v-4.64c0-.07.05-.3.3-.33z" fill="#932677"/></svg>