<!-- by TradingView --><svg width="56" height="56" xmlns="http://www.w3.org/2000/svg"><path fill="#F0F3FA" d="M0 0h56v56H0z"/><path d="M30.502 21.83c5.392.78 8.176.139 8.894-.28l-1.387 5.806h.636c.085 2.582-2.25 6.104-3.429 7.542l.46.21c-5.339 7.754-13.335 4.894-15.048 3.873-1.37-.816-2.539-.34-2.952 0-3.23 2.912-6.085 2.997-7.263 3.018-.942.017-1.32-.262-1.392-.404-.064-.29-.017-.803.685-.53.703.271 1.55.325 1.885.318 3.17-.319 4.261-1.7 5.568-2.805 1.045-.885.78-2.151.517-2.674-.683-1.05-1.91-3.28-.748-7.85 1.45-5.714 6.834-7.2 13.574-6.225z" fill="url(#paint0_linear)"/><path d="M30.017 18.279C37.455 16.763 43.105 12.128 45 10c0 1.153-.913 2.842-1.37 3.542h.54c-.1.758-1.536 2.43-2.241 3.171h.498c-2.324 4.654-7.47 4.037-13.655 3.625-4.947-.33-8.425 1.812-9.545 2.924 1.784-2.183 3.353-3.468 10.79-4.983z" fill="#8FBD50"/><path d="M24.934 22.614c.062-.21.673-.77.978-1.038 1.374-.09 3.6.073 4.678.252 1.228.203 2.756.318 3.465.339 0 .148.497.647.746.879.13-.078.444-.185.668 0 .224.185-.093.272-.28.293.135.18.404.564.404.663-.484.098-.865-.216-.994-.386l-.202.077-1.166-.647-.76.293.294.663c-.606.308-.73.879-.388.709.273-.136.539-.18.637-.185l.357.185c.228-.18.793-.469 1.228-.185.435.284.181.642 0 .786 0 .16.27.324.404.386l-.404.324v.586l-.544.107c.026.124.062.404 0 .54s-.285.057-.388 0l-.078-.647-.575-.586-.357.339c.057.118.1.333-.187.247-.286-.087-.326-.324-.31-.432l-.995-.262c-.124.036-.413.108-.575.108-.162 0-.326-.216-.388-.324-.037.22-.224.595-.684.324-.46-.272-.886-.237-1.041-.185-.176.262-.566.734-.715.524-.097-.136-.014-.256.087-.4.093-.133.2-.287.193-.494-.016-.432-.917-.833-1.321-.941-.404-.108-1.134.092-1.274.586-.13.456-.086.464.424.56h.001l.134.026c.51.099.337.36.187.478-.275.015-.759.099-.498.308.261.21.171.406.094.478-.581.489-.413.764-.28.982.031.05.06.098.078.144.074.197.31.195.42.17.509 0 .76.555.823.832l.668.802v.971c.088.016.264.14.264.51s-.425.657-.637.755c.485.21.627.92.637 1.249.192.19.569.666.544 1.048-.031.478-.824.51-.917.51-.621.086-.994.631-1.103.894h-.45a.45.45 0 01-.343.138c-.658-.172-1.061.072-1.18.216-.237-.135-.73.057-.948.17-.187-.235-.337-.026-.389.108-.176.03-.596.074-.87 0-.213-.058-.257.058-.298.165-.024.065-.047.126-.106.143-.124.037-.197.242-.218.34l-.683.616c-.15.016-.429-.046-.342-.416.087-.37.12-.905.124-1.126h.342c.124-.123.363-.956.466-1.357.634-.604 1.321-1.68 1.585-2.143-.046-2.19.482-2.945.622-3.022.112-.062.305-.406.388-.57h.622c.41-.272.678-.669.761-.834-.435-.323-.513-.6-.56-.863-.037-.21.161-.54.265-.678.112-.864-.358-1.296-.606-1.404v-.956l.466-.354v-.309l.668-.802c-.046-.046-.158-.138-.233-.138-.264.509-.87.863-.761.74.1-.115.229-.548.308-.82l.018-.06zm-6.265 1.96c.078.058.271.173.418.173.09 0 .14-.041.192-.083.055-.044.112-.09.216-.09.204 0 .408.102.398.274-.01.172-.245.445-.734.506-.027 0-.025.037-.023.087.003.084.008.201-.12.227a.456.456 0 01-.347-.071c-.047.057-.171.18-.285.212-.143.04-.296-.465-.235-.567.049-.08.367-.479.52-.668zm-.844 2.816c-.393.403-.655.168-.736 0-.59 2.073-.715 3.894-.614 4.956.07.105.291.313.614.313.322 0 .543-.266.613-.4h.456c1.08-.153 1.27-1.016 1.23-1.429.432-.362.54-.913.54-1.144.233-.25.627-.776.333-.887-.235-.089-.42.133-.563.305-.082.099-.151.181-.209.181-.876-.226-.736-.834-.367-1.026.294-.153.122-.295 0-.347-.786.139-1.192-.29-1.297-.522zm-.35 6.435h-.737l.123.417c.505-.014.619-.284.613-.417zm10.174 6.433c-.217-.115-.566-.493-.046-.953-.024-.315.065-1 .603-1.22.046-.27.18-.834.348-.945a69 69 0 011.114-.69l.394-.484.163-.875.603-.53c-.008-.276-.098-.88-.395-1.082-.296-.203-.494-.269-.556-.276-.372-.2-1.063-.802-.859-1.612.204-.81.395-.937.464-.898.248-.184.784-.631.951-.944.205 0 1.71-.139 2.437-.208.348.246 1.1.82 1.323 1.152.216.023.584.207.324.76l.557 1.128h.395v.391c.054.261.406.724.792.507l-.504.718-.526.708.47.186c-.99 1.589-3.865 4.772-8.052 5.167zm8.953-8.31c.2.227.135.722.052.912.214-.326.756-1.207 1.2-2.243.535-1.25.642-1.845.77-2.645l-1.146-.105-.447.532.447.178c-.041.124-.1.426 0 .639.1.212.507.088.697 0l-.214.532a.869.869 0 01-.93-.674l.215-.302-.322-.089-.322.266-1.144-.177c-.102-.124-.33-.373-.43-.373-.1 0-.089.45-.07.675h-.502l-.464-.675-.715.55c-.144.61.488.893.822.958.93-.397 1.15-.094 1.144.107l.376.195v1.136h.268c-.018-.367 0-1.068.215-.94.216.128.153.742.12 1.058-.007.076-.013.135-.013.166a.83.83 0 00-.108.763c.084-.243.3-.671.501-.444zm1.484-5.057c-.16-.094-.622-.255-1.18-.142-.697.142-.697-1.064.125-1.313.107-.041.444-.032.93.337 0-.16.053-.532.411-.887-.328-.302-.983-.933-.983-1.047 0-.113.655.107.983.231v-.55c.12-.071.39-.17.519 0l-.805 3.371z" fill="url(#paint1_linear)"/><defs><linearGradient id="paint0_linear" x1="39.396" y1="22.217" x2="24.304" y2="36.086" gradientUnits="userSpaceOnUse"><stop stop-color="#8EBC50"/><stop offset="1" stop-color="#276090"/></linearGradient><linearGradient id="paint1_linear" x1="39.593" y1="22.144" x2="18.448" y2="35.375" gradientUnits="userSpaceOnUse"><stop stop-color="#8EBC4F"/><stop offset="1" stop-color="#8FBD50"/></linearGradient></defs></svg>