<!-- by TradingView --><svg xmlns="http://www.w3.org/2000/svg" width="56" height="56" viewBox="0 0 56 56"><path fill="#F0F3FA" d="M0 0h56v56H0z"/><path fill-rule="evenodd" d="M52 28c0 2.8-2.3 5.37-6.08 7.32a1.68 1.68 0 0 1-1.67 1.74c-.46 0-.87-.2-1.18-.5A44.3 44.3 0 0 1 28 39c-6.7 0-12.75-1.26-17.1-3.28a5.92 5.92 0 0 1-3.6-.97v-1.19C5.2 31.93 4 30.03 4 28c0-2.66 2.06-5.1 5.5-7a2.61 2.61 0 0 1 2.58-2.46c.63 0 1.21.23 1.66.61A45.18 45.18 0 0 1 28 17c13.25 0 24 4.92 24 11Zm-.59-.16c0 2.6-2.2 4.98-5.82 6.8v.1c0 .88-.73 1.6-1.63 1.6-.47 0-.89-.2-1.19-.5a44.89 44.89 0 0 1-14.82 2.31c-6.53 0-12.45-1.17-16.7-3.07-1.4.14-2.85-.5-3.48-.91V33.1c-2.08-1.54-3.28-3.34-3.28-5.26 0-2.52 2.07-4.84 5.5-6.63a2.12 2.12 0 0 1 2.15-2.06c.55 0 1.06.2 1.44.54a45.42 45.42 0 0 1 14.37-2.16c12.96 0 23.46 4.62 23.46 10.31Z" fill="#B6B6B6"/><path d="M40.06 35.43c-3.47.94-7.6 1.48-12.03 1.48-5.79 0-11.06-.92-15-2.44.26-.2.61-.51.84-.85 3.75 1.28 8.72 2.06 14.16 2.06 4.51 0 8.7-.54 12.14-1.46l-.11 1.21Zm5.2-1.96c3.12-1.6 4.98-3.64 4.98-5.86 0-5.14-9.95-9.3-22.21-9.3-5.16 0-9.9.73-13.68 1.97.08.21.18.57.24 1.09a46.11 46.11 0 0 1 13.44-1.83c11.7 0 21.17 3.61 21.17 8.07 0 1.91-1.74 3.66-4.65 5.05l.72.81ZM10.5 23.07c-.2-.25-.45-.57-.6-.83C7.31 23.75 5.8 25.6 5.8 27.6c0 1.4.73 2.71 2.04 3.9v-1.44c-.65-.78-1-1.6-1-2.46 0-1.68 1.35-3.24 3.65-4.54Z" fill="#EE1C25"/><path d="M12.44 23.17c.86 0 1.56-.7 1.56-1.58 0-.88-.7-1.59-1.56-1.59-.86 0-1.55.71-1.55 1.59 0 .87.7 1.58 1.55 1.58ZM14 24v7.56c0 .85-.63 2.72-2.77 2.79-.43.01-1.56-.11-2.64-.7v-2.8c.72.54 2.33 1.2 2.41-.55V24h3Z" fill="#0072BB"/><path d="M27 22h-3v9h3v-2.64L28.27 31h3.49l-1.89-3.25 1.89-3.25h-3.49L27 27.14V22Z" fill="#EE1C25"/><path d="M35 21h-3v10h3v-3.11L36.48 31h3.49l-2.05-3.58L39.88 24h-3.49L35 26.92V21Z" fill="#0072BB"/><path fill-rule="evenodd" d="M20 30.18a2.8 2.8 0 0 1-1.96.82C16.36 31 15 29.43 15 27.5s1.36-3.5 3.04-3.5c.75 0 1.43.31 1.96.82V24h3v7h-3v-.82Zm0-2.68c0 .62-.45 1.12-1 1.12s-1-.5-1-1.12c0-.62.45-1.12 1-1.12s1 .5 1 1.12Z" fill="#00A652"/><path d="M43.61 24c1.09 0 2 .32 2.32.47v2.2A6.2 6.2 0 0 0 44.1 26c-.51-.04-.65.16-.66.26-.05.1-.01.34.5.42.62.1 2.29.44 2.3 1.84.01 1.4-1.43 2.49-3.25 2.49a5.85 5.85 0 0 1-2.72-.56v-2.28c.8.62 1.55.77 1.9.77.47 0 .82-.04.82-.34 0-.24-.2-.34-.42-.34-.8 0-2.55-.24-2.46-1.86.12-2.04 2.14-2.4 3.5-2.39Z" fill="#00A652"/><path d="M19.64 32h1.27c.1 0 .23.05.34.15.12.1.2.27.2.5 0 .25-.14.4-.3.5a.95.95 0 0 1-.45.1h-.76V34h-.3v-2Zm.3.95h.76c.09 0 .21-.02.3-.07.1-.05.15-.12.15-.24 0-.14-.05-.22-.1-.27a.3.3 0 0 0-.16-.07h-.95v.65Z"/><path fill-rule="evenodd" d="M22.7 33.09h.72l-.36-.7-.36.7Zm.86.29.32.62h.32l-1-2h-.27l-1.04 2h.34l.32-.62h1.01Z"/><path d="M26.19 32.3c-.43 0-.76.32-.76.7 0 .38.33.7.76.7.36 0 .65-.22.74-.52l.28.09c-.12.42-.54.73-1.02.73-.58 0-1.06-.44-1.06-1s.48-1 1.06-1c.44 0 .82.25.98.62l-.27.12a.77.77 0 0 0-.71-.44ZM35.83 32.3c-.43 0-.76.32-.76.7 0 .38.33.7.76.7.36 0 .66-.23.74-.52l.29.09c-.13.42-.54.73-1.03.73-.57 0-1.06-.44-1.06-1s.49-1 1.06-1c.44 0 .83.25.99.62l-.28.12a.76.76 0 0 0-.7-.44ZM28.61 34v-2h.3v2h-.3ZM33.32 34v-2h.3v2h-.3ZM30.42 32h1.73v.3h-1.43v.53h1.24v.3h-1.24V34h-.3v-2Z"/><path d="M40.16 32c-.23-.22-.1-.53 0-.66l1.95 1.72h.87l.16-.25.94.54c-.3.43-.74.28-.94.15h-.45l1.96 1.72a.55.55 0 0 1-.7.13c-.2-.12-.25-.4-.26-.54l-1.22-.96-1.11 1.23.75-1.73-1.41-1.22c-.09.05-.3.09-.54-.13Z" fill="#6E6F73"/><path d="M40.78 31.3c-.23-.19-.51-.03-.62.04l1.95 1.73h.87l.13-.2.96.48c.08-.18.12-.43-.12-.65-.2-.17-.56-.12-.72-.08l.88-1.24-.35-.26-1.56 1.65-1.24-.99c.04-.08.05-.3-.18-.48ZM44.66 35.22l-1.98-1.73h.35l1.08.95c.66.07.64.55.55.78Z" fill="#B0B3BA"/><path d="m40.85 35.62.51-.54-.47-.3-.36.59.32.25Z" fill="#6E6F73"/><path d="M42.04 33.26c-.48.5-.97 1.23-1.16 1.53l.49.29.77-1.69-.1-.13Z" fill="#B0B3BA"/><path d="M41.47 33.76c.28.03.45-.25.48-.46h-.87c-.01.14.1.44.39.46Z" fill="#6E6F73"/><path d="M41.07 33.31h.88c-.04-.08-.15-.36-.42-.36-.35 0-.42.24-.46.36Z" fill="#B0B3BA"/></svg>