<!-- by TradingView --><svg xmlns="http://www.w3.org/2000/svg" width="56" height="56"><path fill="#F0F3FA" d="M0 0h56v56H0z"/><path d="M8 23h2v6.03c-.16 3.26-3.35 3.27-4.73 2.65 2.11.28 2.68-1.12 2.73-1.85V25H6.48L8 23z" fill="#EC1B30"/><path d="M7.73 29.84c-.78 1.01-2.12.4-2.44-.04l-.79 1.36c1.97 1.06 3.33-.32 3.23-1.32z" fill="#F4A917"/><path fill-rule="evenodd" d="M16 31.15c-.53.53-1.22.85-1.98.85-1.67 0-3.02-1.57-3.02-3.5s1.35-3.5 3.02-3.5c.76 0 1.45.32 1.98.85V25h2v7h-2v-.85zm0-1.31c-.32.32-.75.51-1.23.51-.98 0-1.77-.83-1.77-1.85s.8-1.85 1.77-1.85c.48 0 .91.2 1.23.51v2.68z" fill="#EC1B30"/><path d="M21 25h-2v7h2v-4.6c.29-.3 1.1-.77 1.94-.77.98 0 1.05.7 1.06 1.04V32h2v-4.83c-.05-1.06-.53-2.12-2.17-2.17-1.2-.03-2.4.6-2.83 1v-1z" fill="#EC1B30"/><path d="M39 25h-2v7h2v-4.55a2.78 2.78 0 011.95-.82c.97 0 1.06.7 1.06 1.04V32h2v-4.83c-.05-1.06-.53-2.12-2.17-2.17A4.4 4.4 0 0039 26.03V25z" fill="#F4A917"/><path fill-rule="evenodd" d="M31.5 23a4.5 4.5 0 100 9 4.5 4.5 0 000-9zm0 1.77a2.5 2.5 0 00-2.5 2.5v.46a2.5 2.5 0 005 0v-.46a2.5 2.5 0 00-2.5-2.5zM52 28.5v.5h-5c.09.45.54 1.49 1.83 1.49.34 0 1.17-.12 1.76-.6l.83 1.14c-.7.7-1.84.97-2.92.97a3.5 3.5 0 113.5-3.5zm-5-.7c.02-.43.37-1.3 1.55-1.3 1.1 0 1.46.85 1.45 1.3h-3z" fill="#F4A917"/></svg>