<!-- by TradingView --><svg width="56" height="56" viewBox="0 0 56 56" xmlns="http://www.w3.org/2000/svg"><path fill="#F0F3FA" d="M0 0h56v56H0z"/><path d="M28 11a2 2 0 1 0 0-4 2 2 0 0 0 0 4Z" fill="#426693"/><path d="M30.9 11.06c-.1-.1-.27-.07-.38.03-.62.75-1.52 1.39-2.52 1.39s-1.9-.67-2.52-1.39c-.1-.1-.24-.13-.38-.03-.1.1-.14.23-.04.36.66.78 1.4 1.51 2.44 1.58v36.5c0 .13.15.5.5.5s.5-.34.5-.5V13c1.04-.07 1.78-.8 2.44-1.58.1-.1.07-.26-.04-.36Z" fill="#363636"/><path d="M24 13a25.04 25.04 0 0 0-3.46 4.02c-.52.76-.93 1.6-1.2 2.49a7.4 7.4 0 0 0-.32 2.75c.07.91.31 1.83.7 2.68 1.9 4.27 5.93 6.81 8.61 10.53A12.72 12.72 0 0 1 31 42.63c.12 2.66-.64 5.14-2 7.37 1.67-2.12 3-4.66 3-7.43 0-2.81-1.23-5.34-2.8-7.62a35.67 35.67 0 0 0-3.6-4.19c-2.65-2.5-5.6-5.51-5.6-9.44 0-1.4.28-2.8 1.03-4.03.83-1.54 1.8-2.88 2.97-4.29Z" fill="#C00000"/><path d="M32 13a25.04 25.04 0 0 1 3.46 4.02c.52.76.93 1.6 1.2 2.49.28.88.39 1.83.32 2.75a8.1 8.1 0 0 1-.7 2.68c-1.9 4.27-5.93 6.81-8.61 10.53A12.72 12.72 0 0 0 25 42.63c-.12 2.66.64 5.14 2 7.37-1.67-2.12-3-4.66-3-7.43 0-2.81 1.23-5.34 2.8-7.62a35.67 35.67 0 0 1 3.6-4.19c2.65-2.5 5.6-5.51 5.6-9.44 0-1.4-.28-2.8-1.03-4.03A25.32 25.32 0 0 0 32 13Z" fill="#426693"/></svg>