<!-- by TradingView --><svg width="56" height="56" viewBox="0 0 56 56" xmlns="http://www.w3.org/2000/svg"><path fill="#503629" d="M0 0h56v56H0z"/><path d="M9 23H6v.24h1v4.66c0 1.4-.47 1.8-1.34 1.8a.59.59 0 0 1-.65-.53v-.11c0-.5-.03-.81-.49-.81-.45 0-.52.47-.52.61 0 .65.29 1.14 1.57 1.14C7.11 30 8 29.5 8 27.78v-4.54h1V23ZM9.5 29a.5.5 0 0 0-.5.5c0 .14.05.27.15.35a.5.5 0 0 0 .7 0c.1-.1.15-.21.15-.34a.5.5 0 0 0-.5-.51ZM15.52 29c-.25 0-.5.23-.52.5 0 .14.06.27.16.35a.48.48 0 0 0 .7 0c.1-.08.14-.21.14-.34a.52.52 0 0 0-.14-.36.45.45 0 0 0-.34-.15ZM13.54 23h-2.8v.24h.82v5.46c0 .37 0 .88-.41.98-.17.06-.35.1-.53.1V30h2.95v-.22c-.2 0-.38-.02-.56-.08-.3-.1-.42-.42-.42-.76V27h.75c2.13 0 2.73-.82 2.73-2 0-1.16-.38-2-2.53-2Zm-.4 3.77h-.56v-3.5h.5c1.65 0 2.05.7 2.05 1.8 0 1.12-.69 1.7-2 1.7ZM25 28.88v-5.64h.8v-.22h-1.86l-2.27 5.34c0 .02-.02.04-.04.04s-.04-.02-.06-.04l-2.37-5.34H17v.22h1v5.94c0 .13-.03.24-.09.35a.57.57 0 0 1-.33.23c-.13.04-.45.04-.58.04v.2h2.22v-.2c-.13 0-.25-.02-.37-.06a.67.67 0 0 1-.36-.22.8.8 0 0 1-.14-.36l-.02-.5V24h.12s2.68 5.93 2.68 6h.25l2.52-6h.1v4.85c0 .3-.1.69-.4.82-.18.05-.43.09-.6.09V30h3v-.24c-.17 0-.43-.04-.6-.1-.3-.14-.4-.42-.4-.78ZM28.52 25c-1.55 0-2.52.9-2.52 2.5 0 2.36 2.03 2.5 2.48 2.5.87 0 2.52-.49 2.52-2.54-.02-1.6-1.07-2.46-2.48-2.46Zm-.02 4.7c-1.16 0-1.5-.52-1.5-2.17 0-1.3.26-2.27 1.5-2.27 1.34 0 1.5 1.01 1.5 2.16 0 1.7-.47 2.28-1.5 2.28ZM34.4 25c-.88 0-1.13.51-1.38 1.04h-.08L32.79 25H31v.31h1v3.43c.02.23-.01.47-.1.7-.1.16-.31.25-.64.25H31V30h3v-.31h-.22c-.36 0-.53-.07-.62-.24a1.84 1.84 0 0 1-.16-.71v-1.78c0-.59.5-1.28 1.03-1.28.54 0 .54.86 1.18.51.32-.2.25-1.19-.82-1.19ZM45.45 29.39c-.29 0-.43-.16-.45-.42v-2.6c0-.37-.02-.72-.26-.98-.24-.24-.71-.38-1.4-.38-.5-.04-1 .08-1.43.36a.9.9 0 0 0-.41.76.4.4 0 0 0 .12.33c.08.07.18.1.29.1.25 0 .4-.13.45-.49 0-.2.09-.4.2-.56a.88.88 0 0 1 .63-.2c.27 0 .53.06.7.27.14.21.11.44.11.69v.82c-.83.07-2.74.25-2.65 1.79.06.65.6 1.14 1.23 1.12.6-.02 1.16-.3 1.53-.79.09.44.46.8.88.79.61 0 .99-.39 1.02-1.14h-.15c-.04.35-.24.53-.41.53ZM44 28.93c-.27.32-.57.5-.98.56a.73.73 0 0 1-.74-.72v-.1c0-.88 1.08-1.32 1.72-1.32v1.58ZM51 28.7v-2.22c.06-.91-.24-1.48-1.23-1.48-.7-.02-1.35.35-1.67.95H48l-.2-.95h-1.58v.31H47v3.4c0 .2 0 .38-.04.58a.43.43 0 0 1-.3.3c-.13.06-.28.08-.44.08V30h2.52v-.33c-.47.05-.74-.48-.74-.9v-1.29c0-.47.12-.95.29-1.4.2-.35.6-.57 1.02-.55.61 0 .69.51.69 1.5v1.6c0 .5-.15 1.06-.65 1.06V30H52v-.31c-.56-.07-1-.43-1-.99ZM40.52 24.86a.48.48 0 0 0-.29.38c-.04.2-.1.31-.22.35a.56.56 0 0 1-.34-.02 2.34 2.34 0 0 0-1.58-.57c-.99 0-1.88.71-1.95 1.72v.21c0 1.06.4 1.53 1.27 1.73.05 0 .05.08 0 .08-.74.12-1.4.34-1.4 1.07 0 .35.22.66.55.77.47.16.96.23 1.44.21.38 0 .78.02 1.16.06.22.02.44.09.64.22.16.14.25.34.23.56 0 .35-.22.66-.52.79-.42.2-.87.29-1.32.27-.42.03-.85-.06-1.22-.27a.65.65 0 0 1-.25-.7.4.4 0 0 0-.25-.5h-.06a.45.45 0 0 0-.41.18.77.77 0 0 0-.11.45c.02.47.34.86.81.95.44.14.89.2 1.34.2.53.02 1.05-.08 1.54-.3a1.6 1.6 0 0 0 .74-2.3c-.49-.68-1.18-.59-2.73-.66-.74 0-.89-.13-.89-.35 0-.34.27-.47 1.34-.63 1.07-.17 2.06-.57 2.06-1.86 0-.31-.05-.64-.2-.93.2.05.42.05.62 0a.75.75 0 0 0 .43-.35c.1-.12.13-.3.1-.45-.1-.27-.28-.38-.53-.31Zm-2.4 3.59c-.64 0-1.02-.24-1.02-1.53 0-.91.3-1.59 1.01-1.59.8 0 1.02.62 1.02 1.57-.02 1.35-.44 1.55-1.02 1.55Z" fill="#fff"/></svg>