<!-- by TradingView --><svg width="56" height="56" viewBox="0 0 56 56" xmlns="http://www.w3.org/2000/svg"><path fill="#0A243D" d="M0 0h56v56H0z"/><path d="M25 31.4c0 4.36-3.36 7.6-7.63 7.6a9.77 9.77 0 0 1-3.83-.7A6.82 6.82 0 0 1 11 36.37l2.5-2.63c.41.5.94.91 1.54 1.19.66.3 1.38.44 2.1.43 2.4 0 3.86-1.35 3.86-4.07V17h4v14.4Z" fill="#fff"/><path d="M29.8 35h10.4c.23 0 .47.05.69.15.21.1.41.25.58.43.17.2.3.41.4.65a2.19 2.19 0 0 1-.4 2.19 1.8 1.8 0 0 1-.58.43c-.22.1-.46.15-.7.15H29.8c-.24 0-.47-.05-.69-.15a1.8 1.8 0 0 1-.58-.44c-.17-.18-.3-.4-.4-.65a2.2 2.2 0 0 1 .4-2.18c.17-.18.37-.33.59-.43.21-.1.45-.15.69-.15ZM29.81 17H40.2c.24 0 .48.05.7.15.21.1.41.25.58.43.17.19.3.41.4.65a2.2 2.2 0 0 1-.4 2.19 1.8 1.8 0 0 1-.59.43c-.22.1-.45.15-.69.15H29.81c-.24 0-.47-.05-.7-.15a1.8 1.8 0 0 1-.58-.43c-.17-.19-.3-.41-.4-.65a2.2 2.2 0 0 1 .4-2.19c.17-.18.37-.33.59-.43.21-.1.45-.15.69-.15ZM29.8 26h10.4c.23 0 .47.05.68.15.22.1.42.25.59.43.17.19.3.41.4.65a2.2 2.2 0 0 1-.4 2.19 1.8 1.8 0 0 1-.59.43c-.21.1-.45.15-.69.15H29.81c-.24 0-.47-.05-.7-.15a1.8 1.8 0 0 1-.58-.43c-.17-.19-.3-.41-.4-.65a2.2 2.2 0 0 1 .4-2.19c.17-.18.37-.33.59-.43.22-.1.45-.15.69-.15Z" fill="#FDD454"/></svg>