<!-- by TradingView --><svg width="56" height="56" viewBox="0 0 56 56" xmlns="http://www.w3.org/2000/svg"><path fill="#F0F3FA" d="M0 0h56v56H0z"/><path d="M31.63 10 33 11.4 26 18.1v2.64l8.32-7.98 3.46 3.56-.7.68H43v2h-8.01l-2.08 2H43v5h-2.38L46 31.42l-1.4 1.37L37.88 26H35.2l8.05 8.12-3.55 3.47-.7-.7V43h-3v-9.13l-2-2.02V43h-4v-2.5L24.44 46l-1.38-1.38L30 37.79v-2.66l-8.28 8.14-3.51-3.52L19.99 38H13v-2h9.02l2.04-2H13v-5h1.38L10 24.6l1.39-1.36L17.14 29h2.68l-7.08-7.1 3.54-3.48.72.71V13h2v8.14l2 2V13h5v2.4l5.63-5.4Zm-7.78 16 1.7 1.7-1.33 1.3H26v3.09l2.05-2.02L30 32.31V30h2.16l-1.7-1.71L32.8 26H30v-2.21l-2.01 1.93L26 23.67V26h-2.15Z" fill="#2A73C7"/></svg>