<!-- by TradingView --><svg width="56" height="56" viewBox="0 0 56 56" xmlns="http://www.w3.org/2000/svg"><path fill="#F0F3FA" d="M0 0h56v56H0z"/><path d="M24 43.01V7l3.02 2.86V47a16.05 16.05 0 0 1-5.97-2.35A4.47 4.47 0 0 1 19 40.91V21.18c0-1.22.51-2.38 1.42-3.23L22 16.43V40.6c0 .76.42 1.48 1.1 1.9.29.19.6.34.9.5Zm10.95 1.64A4.46 4.46 0 0 0 37 40.91V21.17c0-1.2-.5-2.37-1.41-3.23L34 16.43v24.19c0 .77-.42 1.48-1.1 1.9-.29.19-.6.35-.9.5V14.59l-3-2.86V47a15.96 15.96 0 0 0 5.95-2.35Z" fill="#00152C"/></svg>