<!-- by TradingView --><svg width="56" height="56" viewBox="0 0 56 56" xmlns="http://www.w3.org/2000/svg"><path fill="#F0F3FA" d="M0 0h56v56H0z"/><path d="M17.84 17h.65a5.2 5.2 0 0 1 3.4 1.6c.72.75 1.21 1.71 1.48 2.72.26 1.18.18 2.4.02 3.59a17.6 17.6 0 0 1-1 3.89c2.56-1.1 5.28-1.98 8.08-1.97a17.8 17.8 0 0 1 8.26 2.1c1.82.94 3.5 2.11 5.16 3.32 1.68 1.22 3.63 2 5.59 2.64.22.06.47.2.5.46.08.33-.18.63-.5.65H9.29c-.1-.11-.16-.25-.11-.4.2-1.05.94-1.88 1.67-2.6 1.32-1.24 2.76-2.37 3.86-3.84a4.24 4.24 0 0 0 .9-2.86 2.18 2.18 0 0 0-1.07-1.55 6.64 6.64 0 0 0-2.5-.88l-5-.76c-.25-.04-.5-.05-.74-.13-.28-.11-.38-.51-.2-.75.1-.17.3-.2.47-.25 1.43-.27 2.86-.56 4.3-.85a4.17 4.17 0 0 0 1.87-.77c.5-.4.78-.98 1.2-1.45a5.33 5.33 0 0 1 3.9-1.91Zm-1.62 2.09c-.36.09-.67.36-.8.7-.13.33-.24.65-.35.98-.04.1-.06.28.08.3.42.15.83.36 1.27.43.7.07 1.33-.6 1.27-1.32-.04-.73-.8-1.29-1.47-1.1Zm6.27 4.77a2.5 2.5 0 0 1-1.18 1.69c-.99.61-2.21.72-3.33.52a4.96 4.96 0 0 1-2.13-.96 3.89 3.89 0 0 1-.05 3.4c-.25.52-.62.97-.98 1.41.7-.56 1.44-1.1 2.27-1.46.54-.27 1.14-.4 1.7-.62a9.1 9.1 0 0 0 2.43-1.32 3.83 3.83 0 0 0 1.45-3.15c-.17.1-.14.32-.18.49Zm-4.7 8.32c-1.97.82-7 .08-7.72 2.82h10.19c-2.36-.31-2.12-2.24-.77-3.66-.56.3-1.1.62-1.7.84Z" fill="#212533"/><path d="M16.2 19.55c.4-.18.89.06 1.02.48.18.47-.22 1.06-.72 1.03-.28-.03-.54-.14-.8-.25-.1-.03-.15-.16-.1-.25.13-.37.2-.85.6-1.01Z" fill="#E9473B"/></svg>