<!-- by TradingView --><svg width="56" height="56" xmlns="http://www.w3.org/2000/svg"><path fill="#480A68" d="M0 0h56v56H0z"/><path d="M4 32h1v-6l5 6h1v-8h-1v6l-5-6H4v8zM37 32h1v-6l5 6h1v-8h-1v6.014L38 24h-1v8zM12 32h1c.295-.695.537-1.296.816-1.998h3.4L18 32h.998S16.946 26.621 16 24h-1c-1.01 2.662-2.065 5.31-3 8zm4.794-2.998h-2.57l1.276-3.997 1.294 3.997zM21 32h1l3-8h-1l-2.5 7-2.5-7h-1l3 8zM26 32h1v-8h-1v8zM45 25h3v7h1v-7h3v-1h-7v1zM29 32h6v-1h-6v1zM29 28.5h6v-1h-6v1zM29 25h6v-1h-6v1z" fill="#fff"/></svg>