<!-- by TradingView --><svg width="56" height="56" viewBox="0 0 56 56" xmlns="http://www.w3.org/2000/svg"><path fill="#F0F3FA" d="M0 0h56v56H0z"/><path d="M14.96 22h-.8l-3.91 8h1l3.29-6.83L16.39 27h-2.55l-.43 1h3.44l.99 2h1.03l-3.91-8Z" fill="#F04923"/><path d="M35 30h6v-1h-5v-3h5v-1h-6v5ZM41 22h-6v1h6v-1ZM25.31 26.35a4.94 4.94 0 0 0-2.1-.78 6.74 6.74 0 0 1-1.42-.4c-.31-.14-.52-.3-.64-.47a1.06 1.06 0 0 1-.16-.61v-.02c.01-.35.17-.64.48-.88.32-.24.77-.36 1.33-.37.41 0 .82.06 1.19.18s.74.33 1.1.62l.14.1.6-.68-.14-.1a4.7 4.7 0 0 0-1.3-.7 4.71 4.71 0 0 0-1.58-.24c-.8.01-1.46.22-1.96.6-.51.4-.78.9-.8 1.52v.02c0 .6.23 1.1.7 1.46.45.35 1.18.62 2.16.8a6.5 6.5 0 0 1 1.37.38c.3.13.5.28.62.45.1.17.16.37.16.6v.02c-.01.4-.18.7-.5.95-.34.24-.8.38-1.37.38h-.02a3.99 3.99 0 0 1-2.76-1.06l-.13-.12-.62.66.13.1A5.1 5.1 0 0 0 23.15 30c.83-.01 1.51-.21 2.03-.6.52-.4.8-.93.81-1.6v-.01a1.7 1.7 0 0 0-.68-1.43ZM48.82 30H50l-2.67-3.33c1.2-.23 2.17-1.02 2.2-2.3v-.03c0-.3-.06-.58-.17-.84a2.36 2.36 0 0 0-1.48-1.29 4.2 4.2 0 0 0-1.36-.21H43v8h1v-3h2.35l2.47 3ZM44 26v-3h2.48c.98 0 2.1.13 2.12 1.37v.01c-.03 1.14-1.15 1.61-2.15 1.62H44ZM30.97 22H28v8h1v-3h2.1c1.37 0 2.88-.93 2.9-2.47v-.02c-.03-1.7-1.49-2.5-3.03-2.51ZM29 23h1.92c1.1 0 2.06.22 2.08 1.53-.02 1.12-1.13 1.46-2.03 1.47H29v-3ZM8 22.16v5.15c-.01.94-.3 1.86-1.41 1.86-.41 0-.75-.1-1.02-.27a2.56 2.56 0 0 1-.74-.85l-.08-.14-.75.46.07.13c.25.44.57.8.97 1.08.4.27.91.41 1.51.42.33 0 .65-.06.93-.16 1.07-.4 1.51-1.5 1.52-2.57V22h-.13c-.2.03-.57.08-.87.16Z" fill="#234191"/><path d="M52 22.82c-3.63-1.86-7.7-2.73-11.7-3.4a79.73 79.73 0 0 0-18.3-.7c-4.05.3-8.1.9-12.04 1.96a28.09 28.09 0 0 0-5.72 2.14 18.85 18.85 0 0 1 2.75-1.35c.94-.38 1.92-.72 2.9-1.02 11.45-3.42 27.38-3.34 38.64.74 1.2.45 2.37.97 3.47 1.63Z" fill="#F04923"/><path d="M8.6 32.47h-.92V32h2.35v.47H9.1V35h-.5v-2.53ZM11.38 32h.5v1.2h1.35V32h.5v3h-.5v-1.33h-1.35V35h-.5v-3ZM15.31 32h1.93v.47h-1.42v.75h1.04v.45h-1.04v.87h1.5V35h-2v-3ZM18.74 32h1.07c.7 0 1.12.29 1.12.9 0 .48-.25.75-.66.85l.7 1.25h-.54l-.67-1.18h-.53V35h-.5v-3Zm1.05 1.37c.42 0 .64-.1.64-.46 0-.35-.22-.45-.65-.45h-.55v.91h.56ZM23.22 32h.49l1.05 3h-.51l-.24-.71h-1.13l-.24.71h-.47l1.05-3Zm.64 1.85-.4-1.22h-.01l-.42 1.22h.83ZM26 32h1.04c.65 0 1.15.23 1.15.92 0 .7-.55.94-1.16.94h-.53V35H26v-3Zm1.05 1.42c.44 0 .65-.14.65-.48 0-.35-.2-.48-.65-.48h-.55v.96h.55ZM29.7 32h1.93v.47h-1.42v.75h1.04v.45h-1.04v.87h1.5V35h-2v-3ZM33 33.88V32h.5v1.83c0 .45.2.72.66.72s.65-.26.65-.71V32h.5v1.87c0 .67-.39 1.13-1.16 1.13-.82 0-1.15-.45-1.15-1.12ZM37.6 32.47h-.91V32h2.34v.47h-.92V35h-.5v-2.53ZM40.49 32H41v3h-.51v-3ZM42.6 33.5c0-.98.56-1.5 1.29-1.5.68 0 1 .37 1.13.9l-.47.13c-.1-.38-.28-.58-.66-.58-.5 0-.79.38-.79 1.04 0 .65.3 1.06.8 1.06.37 0 .59-.18.7-.62l.46.1c-.14.58-.5.97-1.17.97-.75 0-1.28-.51-1.28-1.5ZM46.35 34.27l.4-.2c.17.33.43.5.8.5.36 0 .6-.12.6-.38s-.19-.37-.67-.5c-.56-.17-1.02-.32-1.02-.87 0-.5.4-.82 1-.82s.91.28 1.1.62l-.37.25a.8.8 0 0 0-.73-.42c-.32 0-.51.11-.51.32 0 .27.2.36.68.5.56.16 1 .34 1 .89 0 .47-.4.84-1.1.84-.58 0-1-.3-1.18-.73Z" fill="#234191"/></svg>