<!-- by TradingView --><svg width="56" height="56" viewBox="0 0 56 56" xmlns="http://www.w3.org/2000/svg"><path fill="#F0F3FA" d="M0 0h56v56H0z"/><path d="M8.43 36c-.58 0-1.06-.07-1.43-.22l.04-1.71c.47.12.9.18 1.3.18 1.12 0 1.84-.72 2.13-2.14L13 20H15l-2.57 12.37a4.98 4.98 0 0 1-1.36 2.74c-.65.6-1.53.89-2.64.89Zm13-3H15l2.56-13H24l-.36 2h-4.47l-.7 3h4.17l-.34 2h-4.18l-.8 4h4.47l-.35 2Zm4.53 0h1.97l2.23-11h3.17l.36-2h-8.31L25 22h3.16l-2.2 11Zm14.67-4.6h-4.26l-2.4 4.6H33l6.85-13h.55l1.68 13h-.88l-.57-4.6Zm-.1-.82L40.21 25a51.57 51.57 0 0 1-.33-3.56c-.17.38-.34.76-.54 1.15-.19.4-1.04 2.06-2.55 4.99h3.74ZM46.18 20 43.6 33h.82L47 20h-.82Zm-4.73 14.73c-.05-.02-.09-.09-.13-.16-.05-.1-.12-.21-.24-.3-.14-.1-.38-.22-.38-.22h-.94c.23.09.31.3.4.52.15.33.3.71.95.83h.02a15.12 15.12 0 0 0 2.82.29l1.53.01H45.71c.28 0 1.29-.01 1.29-.15 0-.06-.12-.1-.32-.17-.16-.06-.38-.13-.6-.25a6.94 6.94 0 0 0-.32-.14s-.15-.12-.32-.12H43.7l-.82.01c-.7.02-1.01.02-1.43-.15ZM15 35h23.84l.16-1H15.16L15 35Z"/></svg>