<!-- by TradingView --><svg xmlns="http://www.w3.org/2000/svg" width="56" height="56" viewBox="0 0 56 56"><path fill="#1D3637" d="M0 0h56v56H0z"/><path fill-rule="evenodd" d="M17.56 30.84c.23-.57.37-1.2.42-1.84h1.14a4.57 4.57 0 0 1-1.56 1.84zM17 32A6.5 6.5 0 1 1 11.84 22h15.12c.17.8-.17 2.71-2.93 3.96-.14.99-1.1 2.96-3.82 2.96-.24 1-1.2 2.87-3.22 3.06zM16.4 31c.31-.61.51-1.29.58-2H14.2c-.06.65-.18 1.34-.33 2h2.53zm-3.84 0h-2.17c-.17-.59-.3-1.18-.4-1.75A5.18 5.18 0 0 1 11.7 29H13a15.1 15.1 0 0 1-.43 2zm1.7-3h2.72a5.47 5.47 0 0 0-.58-2H14c.15.65.25 1.33.26 2zm-1.52-2c.19.66.3 1.34.32 2h-1.63c-.55 0-1.07.06-1.54.18v-.13c0-.66.12-1.35.3-2.02l.5-.03h2.05zm.98-1h2.02a5.5 5.5 0 0 0-2.8-1.8c.25.43.53 1.06.78 1.8zm-2.22-2h-.03c.26.42.63 1.14.95 2h-1.9c.32-.86.7-1.58.95-2h-.11.14zm.75 9c-.25.78-.52 1.49-.74 2h-.08a26.4 26.4 0 0 1-.6-1.57c.2-.4.66-.43.99-.43h.43zm.84 1.77c.16-.48.35-1.1.53-1.77h2.12a5.5 5.5 0 0 1-2.65 1.77zm-6.65-3.3c0-1.72 1-3.3 2.44-4.03a7.41 7.41 0 0 0-.17 2.22c-.98.6-1.6 1.6-1.7 3.01a5.49 5.49 0 0 1-.57-1.02v-.18zm2.82-5.33c.31-.84.69-1.55.97-2a5.5 5.5 0 0 0-4.21 4.88 4.74 4.74 0 0 1 3.24-2.88zm-.4 4.81c.25 1.41.67 2.86.99 3.8a5.49 5.49 0 0 1-1.85-1v-.09c0-1.18.28-2.09.87-2.7zm6.1-6.95c.81.51 1.5 1.2 2.02 2h6.59a5.68 5.68 0 0 0 2.2-2h-10.8zm7.86 3H17.5c.26.62.43 1.3.48 2h2.78c.64-.29 1.72-.99 2.06-2z" fill="#D3B297"/><path d="M29 20v16h-1V20h1zM43.64 24.88c-.62.32-2.16 1-3.39 1.1.47-1.46 1.85-4.5 3.64-5.04 1.8-.53 1.24 2.1.74 3.5.6-.29 1.77-1.15 1.77-2.37 0-1.53-1.03-2.07-2.12-2.07-1.1 0-3.77 1.79-4.88 6.1-1.38.18-4.8.46-7.4.2a9.41 9.41 0 0 0 6 2.52c3.44 0 8.34-2.4 10.76-4.53l.22.99c.17-.63.6-1.97 1.02-2.52a5.23 5.23 0 0 0-2.35.49l1.11.35c-1.79 1.48-6.4 4.44-10.5 4.44-.6 0-2.04-.3-2.98-.98 2.02.14 6.52-.1 8.36-2.18zm-7.16 3.9l-3.04.08c.7.55 2.43 1.67 3.7 1.69.24.81 1.63 2.15 5.3.98-.55 1.13-1.97 3.4-3.14 3.4-1.17 0-1.32-1.7-1.25-2.54-.53 1.2-.97 3.61 1.45 3.61s4.71-4.76 5.55-7.14c-2.26 2.52-4.9 2.35-5.94 1.94 3.2-.32 5.95-2.68 6.93-3.83-7.67 4.14-9.57 2.93-9.56 1.81z" fill="#D3B297"/></svg>