<!-- by TradingView --><svg width="56" height="56" viewBox="0 0 56 56" xmlns="http://www.w3.org/2000/svg"><path fill="#F0F3FA" d="M0 0h56v56H0z"/><path d="m26.02 24-.02.52v5.76l.02.21c.01.34.14.5.38.51h1.23c.2 0 .32-.12.36-.4v-.24c0-1.53.02-2.8.01-4.34 0-.37-.04-.75-.1-1.12-.03-.2-.08-.39-.14-.58L31 24v9.39c0 .97.06 2.4-1.13 2.58-.14.02-.3.03-.44.03H23.59l-.23-2.1c.14.09.3.16.46.22.29.1.6.15.9.17.96.02 1.74 0 2.7 0 .09 0 .17 0 .24-.03.21-.06.33-.27.34-.58v-1.52a.31.31 0 0 0-.04.07c-.11.52-.38.77-.74.77h-2.4c-1.48-.1-1.82-1.95-1.82-3.15v-3.52c0-.43 0-.86-.06-1.29-.05-.24-.11-.8-.2-1.04h3.28ZM46.01 24.87l.01-.1-.01-2.38c0-.24-.03-.48-.07-.72-.03-.23-.1-.45-.16-.67H49V30.96c-.02.73.3 1.36.5 2.04h-3.22l-.17-.92-.2.45c-.15.31-.35.48-.63.47-.84-.02-1.6 0-2.44 0-.33 0-.65-.08-.93-.25-.5-.3-.77-.88-.86-1.63a5.92 5.92 0 0 1-.05-.73v-3.84c-.05-1.6.72-2.55 2.27-2.55h1.96c.45 0 .57.19.75.79l.03.08ZM46 28.59v-1.7c0-.45.16-.88-.35-.89h-1.23c-.33 0-.42.19-.42.46v4.06c0 .27.08.47.4.48h1.27c.34 0 .33-.22.33-.47v-1.94ZM19.34 33l-.16-1a.62.62 0 0 0-.03.08c-.09.56-.35.82-.72.88l-.36.04h-2.4c-.2-.01-.4-.05-.59-.1-.54-.16-.88-.66-.99-1.46-.12-.96-.12-1.94 0-2.9.12-1 .52-1.4 1.2-1.5.17-.02.33-.04.5-.04h2.75a.7.7 0 0 0 .2-.01c.2-.06.31-.35.3-.66 0-.3-.1-.49-.3-.55a.7.7 0 0 0-.2-.02h-2.83c-.48 0-.95.04-1.4.38l.21-2.14h5.54c.28 0 .56.06.82.15.66.24.91.93 1.03 1.88.05.35.09.7.09 1.06 0 1.29-.02 2.58 0 3.87 0 .44.04.9.1 1.33.05.24.2.47.29.7h-3.05ZM19 29h-1.29c-.08 0-.16 0-.24.02-.3.06-.46.25-.47.7v.58c0 .4.19.67.46.7h1.2c.24-.02.32-.16.34-.52V29ZM37.19 32.01l-.1.3c-.17.46-.43.7-.79.69h-2.4c-.26-.01-.52-.06-.76-.16-1.16-.46-1.14-2.04-1.14-3.11V26a6.48 6.48 0 0 0-.39-2H35v6.66c.01.35.09.33.32.34.46.01.91 0 1.37 0 .2 0 .28.05.31-.26V25.9c0-.65 0-1.26-.18-1.9H40v6.94c-.01.46.12.91.2 1.36.05.23.13.47.2.7h-3.11l-.1-.99ZM6.24 33 6 30.72c.22.07.43.16.65.21.18.05.36.06.55.06h1.99c.1 0 .19 0 .28-.04.3-.11.45-.43.5-.86l.03-.45V23a6.65 6.65 0 0 0-.25-2h3.46c-.06.32-.14.64-.17.97-.04.36-.06.73-.06 1.1v6.54c0 .41-.03.83-.08 1.25-.14 1.07-.6 1.72-1.32 1.97-.29.1-.58.15-.88.16-1.46.02-2.92 0-4.38.01h-.08Z" fill="#2D64FE"/></svg>