<!-- by TradingView --><svg xmlns="http://www.w3.org/2000/svg" width="56" height="56"><path fill="url(#aoiuoeuwx)" d="M0 0h56v56H0z"/><path d="M20 18v.92h-2.61v.23H20V20h-2.5c0 2.14.54 3 2.5 3v1h-.12c-.56-.04-1.22-.07-1.72-.3-1.63-.76-1.66-2.2-1.66-3.7h-.37v-.85h.37V18H20zM8 18h3.6v1h-1.1v5h-1v-5H8v-1zm3.74 1H12v-1h1v1h2v-1h1v6h-1v-4h-2v4h-1v-4h-.26v-1zm14.25 10.82c1.75 1.68 3.92 1.53 5.32-.2.4-.5.87-1.22 1.06-2.02.51-2.2-.02-5-2.1-6.14-2.08-1.2-4.28.08-5.23 2.04a5.57 5.57 0 00.95 6.32zm-2.49-3.74c0-2.85 2.01-6.08 5.07-6.08 3.05 0 4.98 3.31 4.93 6.19C33.45 29 31.57 32 28.57 32c-3.01 0-5.07-3.09-5.07-5.92zM34 32V20h1v12h-1zm2-12c1.74.18 3.65.75 5 1.9V20h1v12h-1v-8.72a7.96 7.96 0 00-4-2.06V32h-1V20zm-14 5.78V20h1v5.54c.04 1.88.07 4.1-1.33 5.42-.75.71-1.72.94-2.67 1.04v-1c.87-.12 1.78-.4 2.32-1.14.7-.95.69-2.24.68-3.66v-.42zM43 20h5v1h-2v11h-1V21h-2v-1zM11.23 35.48c-.3-.32-.62-.46-1.05-.46-.36 0-.65.1-.86.28-.4.41-.44 1.3 0 1.7.5.56 1.48.31 1.94-.16h.48v.79c-.92.42-2.1.57-2.98-.02-.92-.62-1.05-2.09-.14-2.78.85-.68 2.18-.55 3.12-.14v.79h-.5zm3-1.01c.4 0 .84.04 1.13.33.43.43.42 1.22.41 2.54V38h-.99v-1.82c0-1.17-.94-1.14-1.78-.8V38h-1v-5h1v1.8c.05 0 .2-.07.34-.14l.24-.11c.2-.06.44-.08.66-.08zm2.07-.75V33h1v.72h-1zm0 4.28v-3.53h1V38h-1zm2.7-3c.4-.46.96-.53 1.52-.53h.14v.84h-.29c-.36-.03-.78-.05-1.04.17-.34.18-.34.95-.33 2.02v.5h-1v-3.53h1v.52zm24-2v.72h1V33h-1zm0 1.47V38h1v-3.53h-1zm-3.46 1.01c-.3-.31-.62-.46-1.05-.46-.36 0-.65.1-.86.28-.4.41-.44 1.3 0 1.7.5.56 1.49.32 1.94-.16h.48v.8c-.91.42-2.1.56-2.98-.03-.92-.61-1.05-2.08-.14-2.77.79-.63 1.99-.57 2.9-.23v-.09h.82v-.87h.99v.87h1.1v.59h-1.1c0 .6 0 1.97.15 2.1.13.12.4.12.8.12h.14V38h-.2c-.56 0-1.33.02-1.62-.29-.27-.3-.27-1.05-.26-2.06v-.54h-.6v.37h-.5zm6.9-.46c.44 0 .76.15 1.06.46h.5v-.79c-.94-.4-2.27-.53-3.11.15-.91.69-.78 2.16.14 2.77.88.6 2.06.45 2.97.02v-.79h-.48c-.45.48-1.43.72-1.93.16-.44-.4-.4-1.29 0-1.7.2-.18.5-.28.85-.28zM30.77 35c.39-.46.96-.53 1.52-.53h.14v.85l-.29-.01c-.36-.02-.78-.05-1.04.17-.34.19-.34.95-.33 2.03v.5h-1v-3.54h1V35zm-7.07 2.06c-.4.39-1.28.44-1.67 0-.42-.4-.38-1.28 0-1.7.41-.36 1.27-.4 1.67 0 .37.42.41 1.3 0 1.7zm1.32-.84c0-1.16-.97-1.72-2.06-1.74h-.17c-.95.01-1.95.47-2.06 1.5 0 .59.09 1.13.56 1.55.36.3.86.46 1.5.47h.17a2.3 2.3 0 001.47-.47c.4-.3.59-.74.59-1.3zm3.12.87c-.42.47-1.22.25-1.7-.02v-1.66c.42-.28 1.12-.45 1.57-.14.52.35.53 1.38.13 1.82zm.8-2.14a2.04 2.04 0 00-2.5-.14v-.26h-1.01V39h1.01v-1.34c.38.19.73.34 1.08.34.52.01 1.02-.12 1.4-.47.7-.67.7-1.91.01-2.58zM35 37.12c-.46.22-.96.41-1.45.13-.77-.64.8-.9 1.34-1l.11-.01v.88zm.59-2.42c-.2-.18-.68-.26-1.26-.29h-.18c-.53.04-1.02.12-1.55.22v.78l.36-.1a3.95 3.95 0 011.9-.16c.18.07.16.28.15.44l-.01.12-.24.02c-.82.07-2.3.19-2.43 1-.2 1.2 1.02 1.27 1.77 1.27.4 0 .75-.14.9-.28V38h1v-.91c.01-1.72.02-2-.41-2.39z" fill="#fff"/><defs><linearGradient id="aoiuoeuwx" x1="10.42" y1="9.71" x2="68.15" y2="76.02" gradientUnits="userSpaceOnUse"><stop stop-color="#1A1E21"/><stop offset="1" stop-color="#06060A"/></linearGradient></defs></svg>