<!-- by TradingView --><svg width="56" height="56" viewBox="0 0 56 56" xmlns="http://www.w3.org/2000/svg"><path fill="#F0F3FA" d="M0 0h56v56H0z"/><path d="M15.24 40H12c3.4-3.55 6.75-7.03 10.17-10.57l-.65-.16a6.54 6.54 0 0 1-3.56-2 6.86 6.86 0 0 1-1.75-3.78c-.38-2.86 1.45-6.95 5.7-7.38.34-.04.7-.08 1.05-.08L37.58 16h.65l-3.16 3h-.87c-3.68 0-7.36-.02-11.04 0-.57 0-1.33.22-1.87.4-1.37.52-2 2.22-1.83 3.74a3.25 3.25 0 0 0 2.8 2.83c.34.04.7.04 1.05.03h5.34L15.24 40Z" fill="#2D56A2"/><path d="m17.86 40 3.34-3h11.82c.94 0 1.82-.53 2.56-1.21a3.6 3.6 0 0 0 .88-3.74c-.54-1.37-1.58-2-2.95-2.05h-5.86c.29-.56 11.53-12.42 13.27-14H44s-6.23 6.58-9.35 9.8c-.2.21-.38.44-.64.73.37.1.62.2.88.25 2.92.55 5.32 3.73 5.02 6.94-.34 3.76-3.03 6.25-6.2 6.28H17.85Z" fill="#DF0080"/></svg>