<!-- by TradingView --><svg width="56" height="56" viewBox="0 0 56 56" xmlns="http://www.w3.org/2000/svg"><path fill="#F0F3FA" d="M0 0h56v56H0z"/><path d="M11 27.94C11 19.2 17.55 12 26 11v3.14a14 14 0 1 0 11.55 24.1l2.34 1.89A16.92 16.92 0 0 1 28 45c-9.38 0-17-7.64-17-17.06Zm31.42 9.03A17.04 17.04 0 0 0 30 11v3.14a14 14 0 0 1 10.06 20.98l2.36 1.85Z" fill="url(#a2lzdbkvv)"/><ellipse cx="28" cy="28" rx="10" ry="9.94" fill="#83092E"/><path d="M18.03 28.77a9.95 9.95 0 0 1 6.11-9.94 6.03 6.03 0 1 1-6.11 9.94Z" fill="#AB1538" fill-opacity=".8"/><path d="M18.29 26.75a8.58 8.58 0 0 1 3.99-6.6c2.28.16 4.09 2 4.09 4.25a4.33 4.33 0 0 1-4.41 4.25 4.45 4.45 0 0 1-3.67-1.9Z" fill="#E1435C"/><path d="M18.02 27.3a9.93 9.93 0 0 1 4.46-7.6 4.91 4.91 0 1 1-4.46 7.6Z" fill="#C21A3B" fill-opacity=".8"/><path d="M18.29 25.62a9.93 9.93 0 0 1 3.16-5.14l.36-.01c2.1 0 3.79 1.68 3.79 3.76S23.9 28 21.8 28c-1.6 0-2.97-.99-3.52-2.38Z" fill="#DF3653" fill-opacity=".8"/><path d="M18.73 24.28c.47-1.05 1.1-2.01 1.84-2.87a3.08 3.08 0 0 1 4.31 2.8 3.07 3.07 0 0 1-3.08 3.07 3.07 3.07 0 0 1-3.07-3Z" fill="#E85F71"/><path d="M18.89 23.9c.4-.88.92-1.7 1.55-2.41a2.6 2.6 0 0 1 3.64 2.36 2.59 2.59 0 0 1-2.6 2.59 2.59 2.59 0 0 1-2.6-2.54Z" fill="#EB7784" fill-opacity=".8"/><ellipse cx="21.33" cy="23.65" rx="1.9" ry="1.89" fill="#F59EA6"/><circle cx="21.27" cy="23.65" fill="#FFCFD5" fill-opacity=".8" r="1.31"/><path fill="#F0F3FA" d="M26 17.53h4v21.29h-4z"/><path d="m29.17 24.87 5.74-4.5 2.5 2.96-5.85 4.79 5.86 4.74-2.14 3.5-6.1-4.96v-6.53Z" fill="#F0F3FA"/><defs><linearGradient id="a2lzdbkvv" x1="38.01" y1="40.11" x2="13.88" y2="18.22" gradientUnits="userSpaceOnUse"><stop offset=".76" stop-color="#151302"/><stop offset="1" stop-color="#2C63B5"/></linearGradient></defs></svg>