<!-- by TradingView --><svg xmlns="http://www.w3.org/2000/svg" width="56" height="56"><path fill="#F0F3FA" d="M0 0h56v56H0z"/><path fill-rule="evenodd" d="M21.14 20.6L23 20v9c0 .56.97.67 1.35.7.08 0 .15.07.15.15 0 .08-.07.15-.15.15h-3.2a.15.15 0 01-.15-.15c0-.08.07-.15.15-.16.28-.03.85-.16.85-.69v-8c0-.34-.5-.2-.75-.12a.15.15 0 01-.2-.09.14.14 0 01.1-.18zM6 24.16c0-.08.07-.15.15-.15h1.64c.12 0 .21.1.21.2v2.63l2.68-1.89c.28-.2.37-.45-.03-.57a1.98 1.98 0 00-.5-.07.15.15 0 01-.15-.15c0-.08.07-.15.15-.15h2.69c.09 0 .16.07.16.16 0 .08-.06.15-.14.16-.61.13-1.08.47-1.59.82l-.19.14-1.79 1.26c.64.66 2.13 2.19 2.46 2.46.73.61 1.72.7 2.1.7.08 0 .15.07.15.15 0 .08-.07.15-.15.15H11.5a.4.4 0 01-.29-.12l-2.75-2.77-.46.33V29c0 .53.57.66.85.69.08 0 .15.08.15.16s-.07.15-.15.15h-2.7a.15.15 0 01-.15-.15c0-.08.07-.15.15-.16.28-.03.85-.16.85-.69v-4s0-.63-.85-.7a.16.16 0 01-.15-.15zm13 4.29v-2.6c0-1.32-1.3-1.93-2.52-1.83-.77.06-1.5.45-1.84 1.07-.06.1-.1.2-.13.31-.1.33.2.51.5.58a1 1 0 00.36.04c.2-.03.26-.18.18-.48-.1-.4-.09-1.14.93-1.14.47 0 .9.24 1.12.47.21.23.4.51.4 1.01v1c-.5 0-1.3.07-2.03.27a3 3 0 00-.83.36c-1.44.91-.8 2.37.72 2.49.88.07 1.64-.24 2.15-.76.7.94 1.71.82 2.26.66.1-.03.07-.15-.03-.16-.77-.07-1.24-.38-1.24-1.29zm-1 .5v-1.68c-1.64.07-2.3.52-2.42 1.08-.2.93 1.16 1.63 2.42.6zm12-3.1v2.6c0 .9.45 1.22 1.21 1.3.1 0 .13.12.03.15-.54.16-1.55.28-2.26-.66-.5.52-1.27.83-2.15.76-1.52-.12-2.16-1.58-.71-2.5a3 3 0 01.82-.35 8.5 8.5 0 012.06-.27v-1c0-.5-.21-.78-.43-1a1.65 1.65 0 00-1.12-.48c-1.01 0-1.03.74-.93 1.14.08.3.03.45-.17.48-.1 0-.22 0-.37-.04-.3-.07-.6-.25-.5-.58.03-.1.08-.21.13-.31.34-.62 1.07-1 1.84-1.07 1.23-.1 2.55.51 2.55 1.83zm-1 1.42v1.67c-1.26 1.04-2.64.34-2.44-.59.11-.56.8-1 2.44-1.08z" fill="#001375"/><path d="M7.89 33.83c0-.28-.12-.47-.36-.57a1.2 1.2 0 00-.49-.09c-.09 0-.15.01-.17.03-.02.02-.03.06-.03.12v1.18a6.34 6.34 0 00.23.02c.21 0 .37-.03.5-.1.21-.1.32-.3.32-.6zM6 35.92c.17-.02.28-.05.32-.1.05-.06.07-.18.07-.37V33.5c0-.15-.03-.26-.08-.3-.04-.06-.15-.09-.31-.1V33h1.2c.38 0 .67.08.88.23.2.15.3.34.3.58 0 .31-.11.53-.34.67-.22.14-.5.21-.84.21a9.95 9.95 0 01-.36 0v.81c0 .18.03.29.08.33.05.05.17.08.35.09V36H6v-.08zm2.52 0c.18-.02.3-.05.34-.1.04-.05.06-.17.06-.37V33.5c0-.16-.02-.26-.07-.31-.05-.05-.16-.08-.33-.1V33h1.26v.09c-.16.01-.27.04-.32.09-.05.05-.08.15-.08.31v.88h1.38v-.88c0-.16-.03-.26-.07-.31-.05-.05-.16-.08-.33-.1V33h1.26v.09c-.17.01-.28.04-.33.09-.04.05-.07.15-.07.31v2.01c0 .17.03.28.07.33.05.04.16.07.33.09V36h-1.26v-.08c.18-.02.29-.05.33-.1.05-.05.07-.17.07-.37v-.88H9.38v.93c0 .17.03.28.08.33a.6.6 0 00.32.09V36H8.52v-.08zm5.23-1.09l-.52-1.19-.52 1.2h1.04zM11.8 36v-.08c.11-.01.2-.06.26-.13.06-.08.16-.29.3-.62L13.3 33h.1l1.12 2.52c.08.17.14.28.18.32a.5.5 0 00.23.08V36h-1.16v-.08c.14-.01.22-.03.26-.04.04-.02.06-.06.06-.13l-.02-.12a1.32 1.32 0 00-.06-.18l-.2-.43h-1.18a20.29 20.29 0 00-.25.7c0 .08.04.13.1.16.04.02.1.03.21.04V36h-.9zm4.1-1.55c.33-.01.57-.05.7-.1.25-.1.37-.29.37-.56 0-.26-.11-.44-.33-.54a1.14 1.14 0 00-.45-.07c-.13 0-.21 0-.24.02s-.04.07-.04.13v1.12zm-.84 1.47c.17-.02.28-.05.32-.1.05-.05.07-.17.07-.36v-1.97c0-.15-.03-.26-.08-.3-.04-.06-.15-.09-.31-.1V33h1.25c.26 0 .48.04.66.1.33.13.5.36.5.7 0 .22-.08.4-.23.51-.15.12-.35.2-.6.24l.94 1.15c.05.07.11.12.17.16.06.03.13.05.22.06V36h-.73l-1.08-1.4-.25.02v.89c0 .17.02.27.07.32.05.04.17.07.34.09V36h-1.26v-.08zm3.02 0c.19-.02.31-.06.36-.13.06-.06.08-.22.08-.45v-1.85c0-.16-.02-.27-.08-.31-.05-.05-.16-.08-.35-.1V33h.9l1.05 2.29 1-2.29h.9v.09c-.16.01-.27.04-.32.1-.05.04-.07.14-.07.3v2.02c0 .16.02.27.07.32.05.04.16.07.33.09V36h-1.28v-.08c.19-.02.3-.05.35-.1.04-.05.06-.17.06-.36v-2.04L19.92 36h-.06l-1.14-2.47v1.8c0 .25.04.41.11.49.05.05.15.08.32.1V36h-1.07v-.08zm6.01-1.09l-.53-1.2-.51 1.2h1.04zM22.13 36v-.08c.12-.01.2-.06.26-.13.06-.08.16-.29.3-.62l.95-2.17h.09l1.13 2.52c.07.17.13.28.18.32.04.04.12.06.23.08V36H24.1v-.08l.26-.04c.04-.02.06-.06.06-.13l-.03-.12a1.32 1.32 0 00-.06-.18l-.19-.43h-1.18a20.29 20.29 0 00-.25.7c0 .08.03.13.1.16.03.02.1.03.21.04V36h-.9zm4.89-3c.17 0 .33.03.5.08l.3.07a.2.2 0 00.12-.04.18.18 0 00.08-.1h.1l.04 1h-.1c-.07-.2-.15-.35-.25-.48a.91.91 0 00-.75-.35.96.96 0 00-.78.38c-.2.25-.3.54-.3.98 0 .4.1.65.32.9.21.23.48.35.8.35.24 0 .46-.05.65-.16.12-.07.24-.16.38-.29l.08.08a1.5 1.5 0 01-1.2.58 1.5 1.5 0 01-1.16-.47c-.26-.28-.4-.57-.4-1 0-.44.15-.76.42-1.06.3-.3.68-.47 1.15-.47zm1.4 2.92c.17-.02.27-.05.32-.09.05-.04.08-.15.08-.32v-2.02c0-.16-.03-.26-.08-.3-.04-.06-.15-.09-.32-.1V33h2.4l.02.65h-.11c-.04-.2-.1-.33-.17-.39-.08-.05-.25-.08-.52-.08h-.61c-.07 0-.11 0-.13.03l-.02.12v1h.7c.2 0 .31-.02.37-.08.05-.06.1-.17.13-.35h.1v1.05h-.1c-.04-.18-.08-.3-.14-.35-.05-.06-.17-.08-.36-.08h-.7v1.12c0 .09.03.14.08.16.06.02.23.02.52.02.3 0 .53-.03.68-.1.14-.06.27-.23.39-.48h.13l-.21.76h-2.45v-.08zM32.49 33v.09c-.18.01-.29.04-.34.09-.05.04-.08.15-.08.31v1.4c0 .23.03.41.1.54.12.25.35.37.69.37.37 0 .62-.13.74-.37.08-.14.11-.36.11-.64v-1.12c0-.25-.03-.4-.09-.46-.06-.07-.17-.1-.33-.12V33h1.05v.09c-.18.02-.3.06-.35.13-.05.06-.08.21-.08.45v1.12c0 .3-.05.55-.14.73-.18.32-.52.48-1.01.48-.5 0-.83-.16-1-.48-.1-.17-.15-.4-.15-.67v-1.36c0-.16-.02-.27-.08-.31-.05-.05-.16-.08-.33-.1V33h1.29zm2.01 0h2.57l.02.77H37c-.06-.24-.13-.4-.21-.47-.08-.07-.25-.1-.52-.1h-.25v2.31c0 .18.03.28.08.33.06.04.18.07.36.08V36h-1.32v-.08c.2-.02.31-.05.36-.1.05-.05.07-.17.07-.36v-2.27h-.25c-.25 0-.42.04-.52.11-.09.07-.15.23-.2.47h-.11l.03-.77zm2.76 2.92c.19-.01.3-.04.36-.08.06-.05.08-.15.08-.33v-2.02c0-.16-.02-.27-.08-.32-.05-.04-.17-.07-.36-.08V33h1.34v.09c-.18 0-.3.04-.35.08-.06.05-.09.16-.09.32v2.02c0 .18.03.28.09.33.05.04.17.07.35.08V36h-1.34v-.08zM40.38 33c.16 0 .33.03.5.08l.3.07.12-.03a.18.18 0 00.07-.11h.1l.04 1.01h-.1a1.5 1.5 0 00-.24-.49.91.91 0 00-.75-.35c-.74 0-1.08.71-1.08 1.36 0 .65.43 1.25 1.12 1.25.24 0 .45-.05.65-.16.12-.07.24-.16.38-.29l.08.08a1.5 1.5 0 01-1.2.58c-.84 0-1.56-.6-1.56-1.47s.7-1.52 1.57-1.52zm3.37 1.83l-.53-1.2-.51 1.2h1.04zM41.79 36v-.08c.12-.01.2.02.26-.06.06-.07.16-.36.3-.7L43.3 33h.09l1.13 2.52c.08.17.14.28.18.32a.5.5 0 00.23.08V36h-1.15v-.08c.13-.01.21-.03.25-.04.04-.02.06-.06.06-.13l-.02-.12a1.29 1.29 0 00-.06-.17l-.2-.44h-1.18a23.74 23.74 0 00-.25.7c0 .08.03.13.1.16.03.02.1.03.21.04V36h-.9zm3.26-.08c.17-.02.28-.05.33-.09.05-.04.07-.15.07-.32v-2.02c0-.16-.02-.26-.07-.3-.05-.06-.16-.09-.33-.1V33h1.29v.09c-.17 0-.28.03-.34.08s-.09.14-.09.3v2.17c0 .05.01.09.03.12.02.03.05.05.11.05l.1.01h.22c.4 0 .68-.03.82-.1.14-.06.28-.23.41-.5h.11l-.22.78h-2.44v-.08zm3.02-.92c.07.2.16.4.27.52.24.29.73.46 1.04.18.23-.2.2-.56 0-.76a2.82 2.82 0 00-.44-.32c-.32-.2-.86-.38-.86-.82 0-.47.38-.8.84-.8.1 0 .22.03.37.08l.25.07c.06 0 .1-.01.11-.04a.28.28 0 00.06-.11h.09l.1 1h-.11c-.06-.35-.2-.53-.36-.64a.83.83 0 00-.48-.18c-.25 0-.46.15-.46.42 0 .38.55.52.83.7.34.2.68.45.68.87 0 .24-.09.44-.27.6a.99.99 0 01-.69.23c-.14 0-.28-.02-.44-.07a1.64 1.64 0 00-.26-.08c-.05 0-.09.01-.1.05a.32.32 0 00-.04.1h-.1l-.14-1h.1z" fill="#737373"/><circle cx="34.5" cy="27.5" r="1.5" fill="#001375"/><circle cx="47.5" cy="29.5" r="1.5" fill="#5CB52E"/><circle cx="43.5" cy="16.5" r="1.5" fill="#5CB52E"/><path d="M41 19.75a1.25 1.25 0 11-2.5 0 1.25 1.25 0 012.5 0zm5.5 2.5a1.25 1.25 0 11-2.5 0 1.25 1.25 0 012.5 0zm2 3a1.25 1.25 0 11-2.5 0 1.25 1.25 0 012.5 0z" fill="#5CB52E"/><circle cx="43" cy="20" r="1" fill="#5CB52E"/><path d="M43.47 28.73a1 1 0 11-2 0 1 1 0 012 0zm2.78-1.35a.88.88 0 11-1.75 0 .88.88 0 011.75 0zM48.5 23a.75.75 0 11-1.5 0 .75.75 0 011.5 0zm-.5-2a.5.5 0 11-1 0 .5.5 0 011 0zm-1-1.5a.5.5 0 11-1 0 .5.5 0 011 0z" fill="#001375"/><circle cx="38" cy="23" r="1" fill="#5CB52E"/><path d="M40 29a1.25 1.25 0 11-2.5 0 1.25 1.25 0 012.5 0z" fill="#001375"/><path d="M38.5 26.25a.75.75 0 11-1.5 0 .75.75 0 011.5 0z" fill="#5CB52E"/></svg>