<!-- by TradingView --><svg width="56" height="56" xmlns="http://www.w3.org/2000/svg"><path fill="#C41230" d="M0 0h56v56H0z"/><path d="M26.158 25h-2.166l-2.26 5h2.136l2.29-5zM7.713 26.513L8.8 24H6.787L4.43 30h2.012l.838-2.508 3.06 2.54L12.973 30l-3.247-2.605L16.44 24h-3.496l-5.23 2.513zM19.226 30h1.888l-.526-5h-3.002L13 30h2.304l.843-1h2.986l.093 1zm-2.236-2l1.803-2.074.216 2.074h-2.02zm15.451 4h-1.207l-1.207 3h1.207l1.207-3zm3.775 2.02L34.874 32h-1.238l-1.133 3h1.238l.866-2.154L35.783 35h1.238l1.133-3h-1.207l-.73 2.02zM28.232 32l-2.198 2.249L25.571 32h-1.393l-1.3 3h1.207l.866-2.09.403 2.09h1.083l1.888-2.09-.836 2.09h1.207l1.3-3H28.232zm20.364 0l-2.198 2.249L45.934 32H44.54l-1.3 3h1.208l.866-2.09.402 2.09h1.084l1.887-2.09-.835 2.09h1.207l1.3-3H48.595zm-36.58 3h1.144l-.464-3h-1.764l-2.816 3h1.3l.494-.588h2.043l.062.588zm-1.486-1.273l1.145-1.107.154 1.107h-1.3zM37.706 25H36.59l-2.108 5h6.747l.619-1.43h-4.673l.31-.57h4.363l.546-1h-4.446l.22-.63h4.767l.619-1.37h-5.85zm13.242 0h-5.726l-2.171 5h2.135l.588-1.404h2.321L48.837 30h2.137l-.743-1.436s.893-.547 1.269-1.077c.576-.813.944-2.487-.552-2.487zm-4.179 1.436h2.91c.467 0 .276.724-.191.724h-3.126l.407-.724zm-17.3-.065h5.107L35.071 25h-6.313c-.433 0-.62.26-.62.26s-.638.74-.866 1.502c-.205.69.027 1.238 1.08 1.238H31.6c.34 0 .153.57-.186.57h-5.199l-.65 1.43h6.53c.589 0 .988-.412 1.145-.98.146-.522.286-.95.465-1.566.142-.49-.138-.454-.986-.454H29.5c-.47 0-.43-.63-.03-.63zM16.194 32h-1.207l-1.3 3h3.435l.379-1h-2.228l.921-2zm4.457 2.282h-1.238c-.217 0-.27-.162-.217-.294.217-.54.898-1.988.898-1.988h-1.084s-.51 1-1.083 2.347c-.112.264.053.653.34.653h2.94c.378 0 .563-.307.713-.653A88.6 88.6 0 0122.97 32h-1.02s-.45 1-.929 1.987c-.08.167-.186.295-.371.295zM41.18 34.282H39.94c-.216 0-.27-.162-.216-.294.216-.54.897-1.988.897-1.988H39.54s-.51 1-1.083 2.546c-.1.27.052.454.34.454h2.94c.377 0 .563-.307.712-.653C43.03 33 43.5 32 43.5 32h-1.021s-.45 1-.928 1.987c-.081.167-.187.295-.372.295z" fill="#fff"/></svg>