<!-- by TradingView --><svg width="56" height="56" viewBox="0 0 56 56" xmlns="http://www.w3.org/2000/svg"><path fill="#F0F3FA" d="M0 0h56v56H0z"/><path d="M29 28a2 2 0 0 1 4 0 2 2 0 0 1-4 0ZM15 17h-3v21h3V17Z" fill="#0D4168"/><path d="M31.48 37.63c2.79-2.23 5.22-4.18 7.28-5.85C41 29.94 45.33 28 47.22 28c.36 0 .63.06.78.2-5.53 4.5-11.06 9.2-16.52 13.8-5.4-4.64-10.96-9.1-16.48-13.61 5.19-4.76 10.76-9.56 15.9-14.39a.9.9 0 0 1 .1.5c-.03 1.72-2.9 6.2-5.13 8.32l-5.81 5.54c3.78 3.12 7.6 6.2 11.42 9.27Z" fill="#ADCF3B"/></svg>