<!-- by TradingView --><svg width="56" height="56" viewBox="0 0 56 56" xmlns="http://www.w3.org/2000/svg"><path fill="#F0F3FA" d="M0 0h56v56H0z"/><path d="M43.79 14.5a22.36 22.36 0 0 0-6.12 4.57c-1.98 2.35-2.54 3.8-3.21 8.44-.73 5.03-1.69 6.71-5.1 9a16.23 16.23 0 0 0-5.6 6.18c-.57 1.16-.47 1.12.92-.32 1.52-1.6 2.96-2.73 5.78-4.6 4.91-3.22 5.76-4.7 5.94-10.34.19-5.75 2.2-9.13 7.54-12.59.95-.61 1.23-.87.97-.87-.06 0-.56.24-1.12.52ZM15.9 16.87c-1.09 3.85.25 6.67 5.44 11.47 5.14 4.75 5.58 5.81 3.44 8.23-1.94 2.2-3.04 5.45-3.04 9.02 0 1.36.14 1.83.3.96.51-2.96 2.85-7.95 4.08-8.7.68-.41 1.62-2.03 1.81-3.14.52-2.94-.75-5.06-5.27-8.82-3.76-3.12-5.8-5.93-6.32-8.7-.16-.84-.26-.92-.44-.32Zm17.91 3.93a.68.68 0 0 1 .06-.6c.07-.11.12-.1.24.03.24.29.5.22.43-.1-.07-.37.37-.4.72-.06a.72.72 0 0 1 .19.33.85.85 0 0 1-.82 1.02.85.85 0 0 1-.66-.33.95.95 0 0 1-.16-.29Zm-3.17 4.1c-1.08-3.24.5-5.8 4.04-6.54 1.12-.23 3.03-.29 2.96-.09-.02.07-.51.25-1.09.4-3.36.85-4.44 1.93-4.9 4.88-.27 1.72-.38 2.46-.53 2.47-.11 0-.25-.4-.48-1.12Z" fill="#1D3567"/><path d="M18.02 16.3c0-1.89.51-2.91 2.32-4.68.82-.78 1-.82.6-.12-.85 1.5-.73 3.41.32 5.17.49.8 1.2 1.6 3.58 4.03l1.94 2c.34.37.63.64.66.61a10.6 10.6 0 0 0-.62-2.24c-.26-.59-.15-.63.5-.19 3.78 2.56 4.53 6.83 2.02 11.55-.53.98-.65.93-.75-.32-.22-2.5-.99-3.64-5.46-8.08-4.45-4.41-5.11-5.41-5.11-7.74Zm4.96 20.18c-7.3-1.77-11.17-7.65-9.66-14.68.25-1.13.26-1.13.68-.17 1.26 2.88 2.62 4.6 5.8 7.34 3.6 3.08 4.46 4.42 4.46 6.94 0 .84-.05.87-1.28.57Z" fill="url(#a2uaecanx)"/><defs><linearGradient id="a2uaecanx" x1="16.31" y1="14.29" x2="21.8" y2="23.89" gradientUnits="userSpaceOnUse"><stop stop-color="#8DC83B"/><stop offset="1" stop-color="#0C9543"/></linearGradient></defs></svg>