<!-- by TradingView --><svg width="56" height="56" xmlns="http://www.w3.org/2000/svg"><path fill="url(#paint0_linear)" d="M0 0h56v56H0z"/><path d="M7.84 24h-.657c-.136 0-.182.194-.183.29.001 2.34.003 7.088 0 7.373-.003.285.122.342.185.335.162.001.508.004.644 0 .136-.005.173-.225.17-.335 0-2.362.002-7.144 0-7.372-.004-.229-.103-.29-.16-.291zm12 0h-.657c-.136 0-.182.194-.183.29.001 2.34.003 7.088 0 7.373-.003.285.122.342.185.335.162.001.508.004.644 0 .136-.005.173-.225.17-.335 0-2.362.002-7.144 0-7.372-.004-.229-.103-.29-.16-.291zm5 0h-.657c-.136 0-.182.194-.183.29.001 2.34.003 7.088 0 7.373-.003.285.122.342.185.335.162.001.508.004.644 0 .136-.005.173-.225.17-.335 0-2.362.002-7.144 0-7.372-.004-.229-.103-.29-.16-.291zm-10.999 2h-.656c-.136 0-.181.145-.183.218.002 1.754.003 5.315 0 5.53-.003.213.122.256.185.25.162.002.508.003.644 0s.173-.169.17-.25c0-1.773.003-5.359 0-5.53-.003-.171-.103-.217-.16-.218z" fill="#fff"/><path d="M15.183 26h.656c.057.001.156.047.16.218v.503c.254-.281.819-.733 1.468-.72.063 0 .224.015.366.063a.232.232 0 01.165.233v.492c.002.08-.04.24-.226.24-.016 0-.037 0-.063-.002-.343-.011-1.48-.05-1.709 1.24l-.002 3.48c.004.082-.034.248-.17.251-.135.003-.481.002-.643 0-.063.006-.188-.037-.185-.25.003-.215.001-3.776 0-5.53.001-.073.047-.218.183-.218zm18 0h.656c.057.001.156.047.16.218v.567c.239-.268.914-.785 1.804-.785 1.14 0 2.147.655 2.197 2.31v3.342c.008.113-.047.34-.224.345-.147.004-.267.003-.431.001h-.111c-.089.002-.247-.064-.234-.346.013-.282.005-2.564 0-3.48 0-.493-.61-1.167-1.468-1.172-1.022-.006-1.49.79-1.532 1.125l-.002 3.622c.004.082-.033.248-.17.251-.135.003-.481.002-.643 0-.063.006-.188-.037-.185-.25.003-.215.001-3.776 0-5.53.001-.073.047-.218.183-.218z" fill="#fff"/><path d="M11.192 24.122a.345.345 0 01.242-.122h.776c.219 0 .176.17.128.232-.863 1.11-2.579 3.372-2.689 3.497-.11.124-.046.27 0 .329.852 1.156 2.553 3.503 2.702 3.685.149.182-.026.255-.14.255-.34.002-.416.004-.655 0-.238-.004-.447-.227-.522-.337-.786-1.073-2.395-3.274-2.544-3.504-.149-.23-.062-.43 0-.502a1087.02 1087.02 0 012.702-3.533zm10.85 1.986a.281.281 0 01.193-.09h.893c.173 0 .14.126.1.173-.686.83-1.792 2.467-1.88 2.56-.088.093-.037.203 0 .246.679.864 1.874 2.675 1.993 2.81.118.137-.02.191-.112.191h-.023c-.266.002-.604.003-.789 0-.19-.003-.356-.169-.415-.252-.626-.801-1.767-2.505-1.886-2.677-.118-.172-.05-.322 0-.376.691-.85 1.864-2.513 1.926-2.585z" fill="#fff"/><path fill-rule="evenodd" d="M32 29v.038l-.002 2.71c.004.081-.034.247-.17.25-.135.003-.481.002-.643 0-.063.006-.188-.037-.185-.25l.001-.513a3 3 0 11-.001-4.47v-.547c.001-.073.047-.218.183-.218h.656c.057.001.156.047.16.218v2.746L32 29zm-3 1.997a2 2 0 100-4 2 2 0 000 4zM44.84 24h-.657c-.136 0-.182.194-.183.29l.001 2.475a3 3 0 100 4.47v.428c-.004.285.12.342.184.335.162.001.508.004.644 0 .136-.005.173-.225.17-.335v-2.606a3.649 3.649 0 000-.112V24.29c-.004-.229-.103-.29-.16-.291zM42 30.997a2 2 0 100-4 2 2 0 000 4z" fill="#fff"/><path d="M50.437 26.527c.164.086.186.228.186.39v.458c0 .12.014.238-.104.223-.094-.012-.282-.143-.313-.17-.248-.176-.884-.428-1.722-.428-.799 0-1.484.326-1.484.687 0 .246.144.494.786.647.687.165 1.858.411 2.153.514.42.146 1.048.426 1.06 1.32.017 1.116-1.195 1.846-2.46 1.832-1.266-.015-2.204-.616-2.337-.727-.106-.088-.202-.205-.202-.308v-.542c0-.194.132-.234.23-.224.079.008.133.065.197.112.712.532 1.704.695 2.203.689.499-.006 1.37-.178 1.37-.766 0-.29-.382-.468-.632-.53l-2.212-.5c-.398-.13-1.176-.575-1.156-1.517.026-1.176 1.313-1.725 2.515-1.685 1.202.04 1.757.438 1.922.525zm-36.438-2.155c-.028-.274-.236-.372-.379-.372-.738 0-.618.95-.605 1.114.01.118.116.112.175.083.281-.161.837-.552.809-.825zm33 0c-.028-.274-.236-.372-.379-.372-.738 0-.618.95-.605 1.114.01.118.116.112.175.083.281-.161.837-.552.809-.825z" fill="#fff"/><defs><linearGradient id="paint0_linear" x1="10.418" y1="9.712" x2="68.147" y2="76.017" gradientUnits="userSpaceOnUse"><stop stop-color="#1A1E21"/><stop offset="1" stop-color="#06060A"/></linearGradient></defs></svg>