<!-- by TradingView --><svg width="56" height="56" viewBox="0 0 56 56" xmlns="http://www.w3.org/2000/svg"><path fill="#F0F3FA" d="M0 0h56v56H0z"/><circle cx="28" cy="28" fill="#282828" r="2"/><rect x="26.6" y="11" width="2.86" height="10" rx="1.43" fill="#FA374B"/><rect x="26.57" y="35" width="2.86" height="10" rx="1.43" fill="#006EFA"/><rect x="11" y="29.43" width="2.86" height="10" rx="1.43" transform="rotate(-90 11 29.43)" fill="#B4DC00"/><rect x="35" y="29.43" width="2.86" height="10" rx="1.43" transform="rotate(-90 35 29.43)" fill="#00A078"/><path d="M15.99 18.06a1.43 1.43 0 0 1 2.02-2.02l4.84 4.84a1.43 1.43 0 0 1-2.02 2.02l-4.84-4.84Z" fill="#FFCD00"/><path d="M15.96 37.94a1.43 1.43 0 0 0 2.02 2.02l4.84-4.84a1.43 1.43 0 0 0-2.02-2.02l-4.84 4.84Z" fill="#41BEFF"/><path d="M40.07 18.06a1.43 1.43 0 0 0-2.03-2.02l-4.84 4.84a1.43 1.43 0 0 0 2.03 2.02l4.84-4.84Z" fill="#3CD2AF"/><path d="M40.04 37.94a1.43 1.43 0 0 1-2.02 2.02l-4.84-4.84a1.43 1.43 0 0 1 2.02-2.02l4.84 4.84Z" fill="#FA0"/></svg>