<!-- by TradingView --><svg width="56" height="56" fill="none" xmlns="http://www.w3.org/2000/svg"><path fill="#F0F3FA" d="M0 0h56v56H0z"/><path fill-rule="evenodd" clip-rule="evenodd" d="M22 32h2v-4.95c2.14 1.66 6.402 4.95 6.402 4.95h2.529l-7.307-5.789s4.517-3.322 5.733-4.204L30.05 22c-2.023 1.484-4.026 2.986-6.051 4.466V22h-2v10zm11 0h7v-.655h-5V22h-2v10zm7.873-10l4.42 5.047L40.482 32h1.023l4.327-4.336L49.651 32H52l-4.917-5.606L51.413 22H50.3l-3.732 3.768L43.246 22h-2.373zM9.116 22.419v3.952c0 .218.223.415.372.415h3.971c.325 0 .751.366.751.638.003.05.01.424.015 2.09l.006 1.978c0 .177.216.4.385.4h4.026c.188 0 .36-.203.36-.42V29.5L19 27.499c0-.15-.189-.387-.378-.387l-1.974-.003h-1.984c-.38 0-.758-.378-.758-.867v-3.857c0-.153-.183-.38-.386-.38h-1.995-2.017c-.198 0-.392.223-.392.414z" fill="#165526"/><path fill-rule="evenodd" clip-rule="evenodd" d="M14.63 22.004c-.21 0-.398.207-.398.4v3.981c0 .15.188.4.378.4H18.643c.14 0 .357-.203.357-.394v-4.02c0-.163-.195-.367-.371-.367h-.84c-2.467-.01-3.16 0-3.16 0zM4.393 22c-.156 0-.393.219-.393.368v4.017c0 .183.217.4.386.4H7.74c.61 0 .718.022.771.037.346.08.604.437.604.704v3.946c0 .176.202.42.372.42h3.964c.378 0 .779.428.779.726v3.995c0 .183.215.387.352.387h4.046c.182 0 .371-.204.371-.367V32.606c0-.146-.19-.38-.4-.387h-2.006l-1.978-.001c-.252 0-.709-.345-.709-.706V27.52c0-.217-.224-.41-.387-.41H9.542c-.412 0-.763-.414-.764-.806l-.014-3.935c0-.191-.224-.354-.379-.36-.04-.001-.722-.009-1.988-.008H4.393z" fill="#0F9347"/><path d="M24 36h-2.098v-2.604H24v.312h-1.782v.659h1.648v.312h-1.648v1.008H24V36zM26.168 36V34.9c0-.194-.057-.34-.172-.44-.112-.098-.27-.148-.476-.148a.861.861 0 00-.56.179c-.144.116-.218.281-.22.494V36h-.308v-1.998h.308v.413c.172-.275.456-.413.85-.413.27 0 .486.076.644.227.161.149.242.355.242.618V36h-.308zM26.727 35.018c0-.635.49-1.016 1.1-1.016.667 0 1.102.377 1.102 1.012v.067h-1.887a.615.615 0 00.245.476c.152.112.347.168.585.168.17 0 .322-.03.455-.09a.629.629 0 00.297-.26l.252.186c-.218.357-.615.439-1.004.439-.623 0-1.145-.303-1.145-.982zm1.859-.205a.581.581 0 00-.26-.376.908.908 0 00-.5-.13c-.2 0-.368.044-.504.13a.599.599 0 00-.259.376h1.523zM29.518 35.02v.978h-.308V34h.308v.413c.168-.275.432-.413.791-.413.061 0 .127.002.197.008l.055.368a.746.746 0 00-.273-.041c-.233 0-.42.058-.56.175-.14.116-.21.286-.21.51zM32.533 34.757a.66.66 0 01-.259.551c-.17.134-.398.201-.682.201-.184 0-.351-.029-.5-.086a.308.308 0 00-.144.064c-.04.03-.06.064-.06.104 0 .062.061.103.182.123.124.02.336.03.637.033.35.005.612.045.784.12.173.071.26.2.26.386 0 .196-.103.345-.309.447-.205.104-.507.156-.906.156-.303 0-.55-.041-.739-.123-.189-.082-.283-.2-.283-.357 0-.176.097-.313.29-.41-.158-.052-.238-.148-.238-.29 0-.148.115-.268.343-.357-.177-.129-.266-.316-.266-.562 0-.235.085-.42.256-.554.172-.134.401-.2.686-.2.275 0 .504.067.686.204a.371.371 0 01.119-.194.353.353 0 01.23-.074c.031 0 .081.005.151.015l.05.297a.415.415 0 00-.158-.03c-.135 0-.212.059-.231.176a.697.697 0 01.101.36zm-1.417-.353a.402.402 0 00-.172.353c0 .157.059.276.175.358.117.079.274.119.473.119.194 0 .348-.04.462-.12a.41.41 0 00.175-.357.4.4 0 00-.175-.353c-.117-.082-.273-.123-.47-.123-.195 0-.351.041-.468.123zm.504 2.173c.537 0 .805-.1.805-.302 0-.099-.078-.165-.235-.197a3.79 3.79 0 00-.672-.045c-.163 0-.312-.002-.448-.007a.33.33 0 00-.171.1.25.25 0 00-.067.172c0 .186.263.279.788.279zM33.804 36.268l.095-.194-1.036-2.072h.346l.851 1.723.854-1.723h.336l-1.166 2.348c-.16.337-.374.506-.64.506a.609.609 0 01-.175-.026l-.06-.32a.725.725 0 00.186.026c.175 0 .311-.09.41-.268zM38.3 33.891l-.266.196a.964.964 0 00-.438-.314 1.7 1.7 0 00-.63-.115c-.238 0-.436.04-.595.118-.158.08-.238.184-.238.315 0 .066.02.122.06.166.04.042.105.078.196.108.091.027.191.049.301.066.11.015.254.03.434.045.38.032.675.103.886.214a.545.545 0 01.318.515.642.642 0 01-.175.458.966.966 0 01-.448.263c-.18.05-.386.074-.62.074a2.23 2.23 0 01-.86-.166c-.269-.114-.464-.262-.585-.445l.263-.196c.098.15.26.272.49.363.228.091.466.137.713.137.6 0 .9-.16.9-.481a.254.254 0 00-.07-.181.44.44 0 00-.206-.122 1.705 1.705 0 00-.298-.074 4.444 4.444 0 00-.389-.052c-.2-.017-.373-.04-.517-.067-.143-.03-.271-.07-.386-.122a.6.6 0 01-.255-.2.497.497 0 01-.084-.288c0-.23.11-.413.329-.552.222-.138.5-.207.837-.207a2.1 2.1 0 01.787.145c.24.096.422.229.546.4zM38.864 35.734c-.206-.178-.308-.408-.308-.724s.1-.562.3-.74c.201-.18.468-.27.799-.27.334 0 .6.089.801.266.201.178.301.425.301.74v.067h-1.886a.579.579 0 00.245.457c.151.111.346.167.584.167.17 0 .322-.03.455-.09a.626.626 0 00.298-.258l.252.185a.895.895 0 01-.403.344A1.427 1.427 0 0139.7 36c-.352 0-.63-.089-.836-.266zm1.55-.928a.578.578 0 00-.259-.373.912.912 0 00-.5-.13.92.92 0 00-.504.13.595.595 0 00-.26.373h1.523zM41.308 34.994V36H41l.01-2h.308l-.01.39c.168-.273.412-.39.77-.39.062 0 .127.002.197.007l.056.367a.748.748 0 00-.273-.041c-.233 0-.4.038-.54.154-.14.116-.21.285-.21.507zM43.406 36l-1-2h.342l.847 1.715.85-1.715h.34l-1 2h-.379zM44.914 36v-2h.308v2h-.308zm-.007-2.401v-.359h.326v.359h-.326zM47.252 35.371l.248.185a.934.934 0 01-.395.326 1.347 1.347 0 01-.571.114c-.343 0-.616-.089-.819-.266a.837.837 0 01-.28-.72c0-.316.1-.562.304-.74.203-.18.473-.27.812-.27.214 0 .405.037.57.111.166.074.295.18.389.318l-.252.193c-.136-.21-.371-.315-.707-.315-.243 0-.438.062-.585.185-.147.12-.22.294-.22.518-.024.2.05.375.197.498.149.12.346.181.591.181.338 0 .578-.106.718-.318zM47.931 35.73c-.205-.178-.308-.404-.308-.72 0-.316.1-.562.301-.74.201-.18.467-.27.798-.27.334 0 .601.089.802.266.2.178.3.425.3.74v.067h-1.886a.572.572 0 00.245.453c.152.111.347.167.585.167.17 0 .322-.03.455-.089a.627.627 0 00.297-.259l.252.185a.895.895 0 01-.402.344 1.427 1.427 0 01-.602.122c-.352 0-.631-.089-.837-.266zm1.55-.923a.578.578 0 00-.258-.374.912.912 0 00-.5-.13c-.201 0-.37.044-.505.13a.595.595 0 00-.259.373h1.523zM50.943 35.136a3.854 3.854 0 01-.353-.04c-.1-.02-.199-.049-.295-.086a.52.52 0 01-.22-.16.404.404 0 01-.077-.247c0-.19.08-.338.242-.444.163-.106.393-.159.689-.159.205 0 .4.038.584.115.185.074.33.177.434.31l-.245.186a.757.757 0 00-.35-.234 1.353 1.353 0 00-.472-.081c-.383 0-.574.093-.574.278 0 .093.06.159.182.196.124.034.322.062.595.085.13.01.246.026.346.048.1.022.197.054.288.096.09.04.16.096.21.17a.385.385 0 01.073.239.48.48 0 01-.266.44c-.175.101-.416.152-.724.152-.24 0-.467-.04-.68-.122a1.087 1.087 0 01-.479-.337l.238-.2c.084.106.22.193.406.26.187.066.378.1.574.1.408 0 .612-.097.612-.29 0-.098-.061-.167-.185-.206-.124-.042-.308-.052-.553-.07z" fill="#165526"/></svg>