<!-- by TradingView --><svg width="56" height="56" viewBox="0 0 56 56" xmlns="http://www.w3.org/2000/svg"><path fill="#F0F3FA" d="M0 0h56v56H0z"/><path d="M36.74 22H43c-2.38-5.85-8.42-10-15.5-10S14.38 16.15 12 22h6.59c1.79-3.32 4.69-6.52 9.08-7.46 4.38.94 7.28 4.14 9.07 7.46Z" fill="#662777"/><path d="M15.71 16.61c2.19-1.26 5.11-2.44 8.17-2.44 1.53 0 2.64.08 3.78.37 1.15.24 2.19.64 3.14 1.15a7.86 7.86 0 0 1 4.2-1.03c.82 0 1.66.18 2.42.42A17.25 17.25 0 0 0 27.5 12a17.1 17.1 0 0 0-11.79 4.61Z" fill="#B294B9"/><path d="M36.74 34H43c-2.38 5.85-8.42 10-15.5 10S14.38 39.85 12 34h6.59c1.79 3.32 4.69 6.52 9.08 7.46 4.38-.94 7.28-4.14 9.07-7.46Z" fill="#662777"/><path d="M15.7 39.39c2.2 1.26 5.12 2.44 8.18 2.44 1.53 0 2.64-.08 3.78-.37 1.15-.24 2.19-.64 3.14-1.15.49.3 1.85 1.03 4.2 1.03.82 0 1.66-.18 2.42-.42A17.25 17.25 0 0 1 27.5 44a17.1 17.1 0 0 1-11.8-4.61Z" fill="#B294B9"/><path d="m6.65 26.8-.02-.02H6V23H5v10h1v-4.6h.61l3.97 4.6H12l-4.58-5.3L12 23h-1.45l-3.9 3.8ZM30.65 26.8l-.02-.02H30V23h-1v10h1v-4.6h.61l3.97 4.6H36l-4.58-5.3L36 23h-1.45l-3.9 3.8ZM42.75 24.6l-.8.49c-.63-.67-.89-1.09-1.83-1.09-.93 0-1.62.87-1.62 1.53 0 2.32 4.5 1.93 4.5 4.54 0 1.6-1.25 2.93-3.13 2.93-1.5 0-2.54-1.69-2.87-2.53.33-.18.7-.36 1-.47.5 1 .82 2 2 2 1.13 0 2-.87 2-1.93 0-1.71-4.5-1.8-4.5-4.54 0-1.46 1.38-2.53 2.75-2.53 1.1 0 2.13 1.07 2.5 1.6ZM13 23h1v10h-1zM26 23h1v10h-1z" fill="#662777"/><path d="M16 24.45V33h1v-7.32L23 33V23h-1v7.38L16 23v1.45Z" fill="#B294B9"/><path d="M47.5 23 43 33h1.25l3.25-7.71L50.82 33H52l-4.5-10Z" fill="#662777"/><path fill="#662777" d="M45 29h5v1h-5z"/></svg>