<!-- by TradingView --><svg xmlns="http://www.w3.org/2000/svg" width="56" height="56"><path fill="#F0F3FA" d="M0 0h56v56H0z"/><path fill-rule="evenodd" d="M4 25h1v3.54L8.53 25H9.8l-3.57 3.65L10 32H8.6L5 28.9V32H4v-7zm29 0h-1v7h1v-7zm14 0h-1v7h1v-3.1l3.6 3.1H52l-3.76-3.35L51.8 25h-1.28L47 28.54V25zm-28 3.5a3.5 3.5 0 11-7 0 3.5 3.5 0 017 0zm-1 0a2.5 2.5 0 11-5 0 2.5 2.5 0 015 0zm7-3.5h-3v7h3a3.5 3.5 0 100-7zm0 1h-2v5h2a2.5 2.5 0 000-5zm12.16 6H36l3.5-7 3.5 7h-1.14l-2.36-4.76L37.16 32z" fill="#2B2A3C"/><path d="M5 25H4v5.58l1-.23v-1.46l1.35 1.17 1.2-.24-1.31-1.17L9.8 25H8.53L5 28.54V25zm45.24 5.43l-2-1.78L51.8 25h-1.28L47 28.54V25h-1v4.6l1 .19v-.9l1.33 1.15c.63.12 1.27.25 1.9.4zm-8.78-1.51L39.5 25l-1.75 3.5 1.08.1.67-1.36.76 1.53 1.2.15zM33 28.14V25h-1v3.1l1 .04zM28.46 28A3.5 3.5 0 0025 25h-3v3.12l1-.04V26h2c1.2 0 2.22.86 2.45 2h1.01zm-9.47.31a3.5 3.5 0 10-6.94.76l.99-.14A2.51 2.51 0 0115.5 26a2.5 2.5 0 012.5 2.39l1-.08z" fill="#5684B8"/></svg>