<!-- by TradingView --><svg xmlns="http://www.w3.org/2000/svg" width="56" height="56" viewBox="0 0 56 56"><path fill="#F0F3FA" d="M0 0h56v56H0z"/><path d="M37 14a2.02 2.02 0 0 0-2.02-2c-.5 0-1.02.2-1.4.6l-7.48 7.47-2.51 2.51c-.39.39-.59.9-.59 1.43 0 .54.28 1.09.7 1.52l13.8 13.8c.46.45 1.05.67 1.62.67A1.91 1.91 0 0 0 41 38.08c0-.56-.22-1.14-.67-1.58L27.85 24l8.56-8.6c.39-.39.6-.9.59-1.41zm-18 2a2 2 0 0 0-2 2v18a2 2 0 1 0 4 0V18a2 2 0 0 0-2-2zm8 27.88c0 1.1-.9 2.12-2 2.12s-2-1.02-2-2.13V33.13c0-1.11.9-2.13 2-2.13.67 0 1.27.31 1.7.77l5.67 5.77c.41.42.63 1 .63 1.55 0 .5-.17 1-.54 1.37-.37.37-.88.54-1.4.54-.55 0-1.1-.23-1.51-.63L27 37.82v6.05zm12-23.86A1.97 1.97 0 0 0 37 18a2 2 0 0 0-1.4.6l-4 4c-.4.4-.6.93-.6 1.46 0 .5.23.99.6 1.36.42.41.96.58 1.5.58.48 0 .96-.2 1.34-.58l4-4c.38-.38.56-.9.56-1.4z" fill="#EC008B"/></svg>