<!-- by TradingView --><svg xmlns="http://www.w3.org/2000/svg" width="56" height="56"><path fill="#F0F3FA" d="M0 0h56v56H0z"/><path d="M26.6 22.78c2.8-3.63 6-5.94 8.34-5.72 3.53.34 3.8 6.23.64 13.16-3.17 6.92-8.59 12.28-12.1 11.95a2.91 2.91 0 01-2.5-2.17c.48 2.3 1.74 3.78 3.78 3.98 4.7.45 11.7-6.14 15.65-14.83 3.94-8.68 3.31-16.01-1.38-16.47-3.77-.36-9.01 3.83-12.97 9.94" fill="#E3DF1C"/><path d="M28.05 27.72c.62-2.33-.73-4.05-3.03-3.8a6.9 6.9 0 00-5.34 4.7c-.63 2.32.72 4.04 3.02 3.79a6.9 6.9 0 005.35-4.7zm-3.69-7.29c.43-1.58-.51-2.7-2.05-2.54a4.64 4.64 0 00-3.64 3.16c-.43 1.59.5 2.74 2.08 2.57a4.68 4.68 0 003.57-3.19h.04zm.4-6.68c.28-1.05-.33-1.82-1.39-1.74a3.23 3.23 0 00-2.5 2.15 1.24 1.24 0 00.15 1.31 1.27 1.27 0 001.26.45 3.14 3.14 0 002.44-2.15l.04-.02z" fill="#E85521"/><path d="M18.35 30.44c-2.02 1.4-3.35 3.02-3.42 4.39-.09 2.26 3.4 2.93 7.82 1.5 4.41-1.43 8.02-4.44 8.15-6.7a1.82 1.82 0 00-1.12-1.75 2.69 2.69 0 012.06 2.72c-.12 3.03-4.66 6.93-10.14 8.72-5.48 1.79-9.8.78-9.7-2.25.09-2.26 2.68-5.03 6.24-7.01" fill="#5A575A"/></svg>