<!-- by TradingView --><svg width="56" height="56" viewBox="0 0 56 56" xmlns="http://www.w3.org/2000/svg"><path fill="#F0F3FA" d="M0 0h56v56H0z"/><path d="M9 19.09v-.8c0-.16.15-.29.33-.29h5.54c.63 0 1.13.46 1.13 1.02v8.96c0 .56-.5 1.02-1.13 1.02H9.33c-.18 0-.33-.13-.33-.3v-.8c0-.17.15-.3.33-.3h4.27c.26 0 .4-.2.4-.43v-2.74c0-.24-.14-.43-.4-.43h-3.55c-.27 0-.48-.2-.48-.44v-.5c0-.24.21-.43.48-.43h3.55c.26 0 .4-.2.4-.44v-2.37c0-.24-.14-.44-.4-.44H9.33c-.18 0-.33-.13-.33-.29Zm8 .08v8.66c0 .64.55 1.17 1.22 1.17h4.56A1.2 1.2 0 0 0 24 27.83v-4.06a1.2 1.2 0 0 0-1.22-1.17h-3.27c-.33 0-.51-.27-.51-.59v-2.06c0-.33.18-.59.51-.59h3.86a.3.3 0 0 0 .3-.3v-.77a.3.3 0 0 0-.3-.29h-5.15A1.2 1.2 0 0 0 17 19.17Zm2 5.42c0-.33.25-.59.55-.59h1.9c.3 0 .55.26.55.6v2.3c0 .34-.25.6-.56.6h-1.89c-.3 0-.55-.26-.55-.6v-2.3Zm10-6.14v10.37c0 .38.43.51.6.18l5.55-10.3c.23-.43.66-.7 1.14-.7h2.33c.33 0 .54.36.38.66l-4.57 8.67c-.26.5-.26 1.08 0 1.57L39 38.34c.16.3-.05.66-.38.66H36.3a1.3 1.3 0 0 1-1.15-.7l-2.64-5.03a.43.43 0 0 0-.76 0l-2.95 5.5a.43.43 0 0 1-.38.23h-2.2c-.65 0-1.17-.53-1.17-1.19V19.19c0-.66.52-1.19 1.16-1.19h2.29c.24 0 .5.2.5.45ZM41 38.7v-6.97A3.8 3.8 0 0 1 44.84 28h1.86c.17 0 .3.13.3.29v2.28c0 .16-.13.43-.3.43h-.92c-.82 0-1.78.5-1.78 1.3v6.41c0 .16-.1.29-.27.29H41.3a.3.3 0 0 1-.3-.29Z" fill="#2F84FB"/></svg>