<!-- by TradingView --><svg width="56" height="56" viewBox="0 0 56 56" xmlns="http://www.w3.org/2000/svg"><path fill="#F0F3FA" d="M0 0h56v56H0z"/><path d="M24.85 41.95a13.75 13.75 0 0 1-5.87-18.93c3.79-6.8 12.55-9.34 19.57-5.67A14.19 14.19 0 0 1 44 22.32a16.11 16.11 0 0 0-7.62-8.4c-8.04-4.2-18.07-1.29-22.4 6.5-4.33 7.77-1.32 17.47 6.71 21.66 3.65 1.9 7.7 2.34 11.45 1.53-2.46.08-4.97-.45-7.3-1.66Z" fill="#4CB748"/><path d="M23.5 25.38a10.59 10.59 0 0 0 4.52 14.58c5.41 2.82 12.29.7 15.08-4.37-2.73 3.84-6.85 5.1-10.86 3.15-4.34-2.11-5.79-7.24-3.25-10.5 1.68-2.17 3.58-2.44 5.3-1.54 1.91.99 2.63 3.29 1.6 5.13a2.55 2.55 0 0 1-3.4.99c-1.05-.55-1.57-1.97-1.02-3.3a4.53 4.53 0 0 0 1.94 6.25c2.31 1.2 4.89.38 6.45-1.87 3.1-4.48.88-9.76-3.77-12.17a9.46 9.46 0 0 0-12.58 3.65Z" fill="#4CB748"/></svg>