<!-- by TradingView --><svg width="56" height="56" viewBox="0 0 56 56" fill="none" xmlns="http://www.w3.org/2000/svg">
<rect width="56" height="56" fill="#295133"/>
<path d="M7.5 23H4.5L5 23.5085L5.00722 32.5136L4.5 33H7.5L7 32.5V28V23.5085L7.5 23Z" fill="white"/>
<path d="M10.7351 31.2287L8.58299 27.8693L11.4285 24.2426C11.9256 23.6213 12.5078 23.1951 13.0376 23.0867L13.1096 23H10.3818L10.5715 23.484L7 28.0716L9.17825 31.4888C9.98937 32.7603 10.6043 33.6128 11.592 34.2485C12.4751 34.812 13.6263 35.1299 14.9019 34.9493C14.928 34.8915 14.9673 34.7904 15 34.7181C13.9861 34.5375 13.0507 34.0968 12.39 33.4249C11.8929 32.9337 11.5135 32.5147 10.7351 31.2287Z" fill="white"/>
<path d="M41 31.997V28.5162H44L44.4808 27.5133L41 27.5177V24L43.9617 23.9956L44.4957 24.1873L45 23H38.5L39.0192 23.5V32.5L38.5 33H44.5L45 31.7758L44.4438 31.997H41Z" fill="white"/>
<path d="M51.4438 31.997H48V28.5162V23.5236L48.5 23H45.5L46 23.5236V32.5206L45.5 33H51.4734L52 31.7758L51.4438 31.997Z" fill="white"/>
<path d="M15 31.997V28.5162H18.0507L18.4734 27.5133H15V23.9956H17.9543L18.4883 24.1873L19 23H12.5L13 23.4941V32.4911L12.5 33H18.4734L19 31.7758L18.4363 31.997H15Z" fill="white"/>
<path d="M27.153 31.9745L24.6477 28.3323C25.9146 28.0909 27 27.2791 27 25.6189C27 23.966 26.2918 22.9707 24 23L22 23L19.5 23L20 23.5774V32.5L19.5 33L22.306 33L22 32.4498V24L23.5 24C24.1641 24 25 24.7851 25 25.6189C25 27.3045 23.6698 27.8927 22.2206 27.5204L25.3879 32.1792C25.9431 33.1227 27.0071 33 28 33V32.8594C27.8363 32.8228 27.4448 32.406 27.153 31.9745Z" fill="white"/>
<path d="M36 23.5228V27.514V29L31 23L29.3551 23.0147L29.3043 23.0073V23.0147L28.5 23L29 23.5965V32.4845L28.5 33H31.5L31 32.5V28.5V27.5V25C33.1831 27.7167 35.4314 30.2198 37.5 33H38V23.5228L38.5 23H35.5L36 23.5228Z" fill="white"/>
</svg>
