<!-- by TradingView --><svg width="56" height="56" xmlns="http://www.w3.org/2000/svg"><path fill="#F99F1F" d="M0 0h56v56H0z"/><path d="M27.976 26.596C27.375 22.249 19.314 16.387 15.36 14c1.98 2.092 5.224 6.446 4.974 12.237-.2 4.634-5.639 12.44-8.333 15.763 5.576-3.324 16.578-11.058 15.976-15.404zM23 16c1.464 3.455 6.915 10.891 17 13-4.117-2.416-13.282-8.4-17-13zM33.907 30.01c-4.628.212-7.2 6.748-7.907 9.99 7.071-6.594 10.33-6.03 12.139-6.03 2.016 0 4.747.79 5.861 1.234-1.436-1.82-5.464-5.408-10.093-5.195z" fill="#000"/></svg>