<!-- by TradingView --><svg width="56" height="56" viewBox="0 0 56 56" xmlns="http://www.w3.org/2000/svg"><path fill="#F0F3FA" d="M0 0h56v56H0z"/><path d="m15.14 34.72 1.64 1.4-1.08.93 2.3 2.12V42l-5.58-4.95 2.72-2.33ZM38 39.19l2.3-2.14-12.24-10.6-8.1 6.95-1.64-1.4 9.75-8.36 15.5 13.41L38 42v-2.81Z" fill="#99C455"/><path d="M26 35.67v2.82l-2.32 2.23L8 27.28 25 13v9.8l-7.23 6.04-1.65-1.41L23 21.65V17.2L11.28 27.28l12.4 10.63L26 35.67Zm22-8.4-7.13 6.12-1.63-1.42 5.48-4.7L33 17.2v4.65l6.85 5.56-1.64 1.41L31 22.8V13l17 14.28ZM36.05 34.7l1.64 1.42-5.31 4.55-2.38-2.2v-2.8l2.32 2.23 3.73-3.2Z" fill="#1A4370"/></svg>