<!-- by TradingView --><svg width="56" height="56" viewBox="0 0 56 56" xmlns="http://www.w3.org/2000/svg"><path fill="#3B455C" d="M0 0h56v56H0z"/><path d="M4 23.23c0-.16.07-.23.22-.23h1.53c.15 0 .25.07.25.23v3.24c0 .16.03.2.14.1L9.2 23.2c.11-.12.24-.21.4-.21h2.11c.16 0 .18.1.05.2L8.2 27c-.1.07-.1.23-.04.32 0 .03.02.03.04.05l3.93 4.4c.1.11.06.23-.09.23H9.8c-.13.02-.26-.05-.35-.17l-3.33-3.9C6 27.79 6 27.83 6 28v3.74c0 .16-.1.26-.25.26H4.22c-.15 0-.22-.1-.22-.26v-8.5Z" fill="#fff"/><path d="M11.68 27.51a4.44 4.44 0 0 1 1.3-3.3c.42-.4.92-.7 1.45-.9a5.52 5.52 0 0 1 3.66 0 4.1 4.1 0 0 1 2.4 2.33 5.2 5.2 0 0 1 0 3.72 4.44 4.44 0 0 1-.96 1.43c-.41.4-.92.7-1.44.9a5.52 5.52 0 0 1-3.66 0 4.1 4.1 0 0 1-2.4-2.33 4.42 4.42 0 0 1-.35-1.85Zm1.92 0a2.76 2.76 0 0 0 .7 1.98c.23.24.52.44.82.57.7.26 1.47.26 2.16 0 .3-.13.6-.33.83-.57.24-.24.42-.55.53-.88.24-.7.24-1.5 0-2.2-.11-.33-.31-.61-.53-.88a2.67 2.67 0 0 0-.83-.57 3.05 3.05 0 0 0-2.16 0c-.3.13-.59.33-.83.57-.24.24-.41.55-.52.88-.1.35-.17.73-.17 1.1ZM22 23.23c0-.16.07-.23.22-.23h2.92c.15 0 .42 0 .6.02.32.03.67.05 1 .12.37.07.74.23 1.06.44.3.2.57.5.72.83.2.42.29.86.27 1.32.02.58-.16 1.16-.5 1.62-.33.44-1.16.74-1.16.74-.16.05-.24.14-.16.3l1.99 3.36c.09.13.02.25-.13.25H27a.34.34 0 0 1-.33-.23L25 28.6a.36.36 0 0 0-.33-.2h-.5c-.15 0-.18.06-.18.22v3.13c0 .16-.1.25-.25.25h-1.53c-.15 0-.22-.1-.22-.25v-8.52Zm2 3.17c0 .16.1.3.25.3H25.4l.26-.02c.17 0 .37-.05.54-.12.15-.07.28-.16.4-.3.1-.16.17-.37.15-.58 0-.18-.05-.39-.13-.55a.89.89 0 0 0-.35-.3 1.8 1.8 0 0 0-.5-.14l-.25-.02H24.25c-.16 0-.25.13-.25.3v1.43ZM30 23.23c0-.16.07-.23.22-.23h2.93c.15 0 .41 0 .59.02.32.03.67.05 1 .12.37.07.74.23 1.07.44.3.2.57.5.72.83.2.42.28.86.26 1.32.02.58-.15 1.16-.5 1.62-.33.44-1.16.74-1.16.74-.15.05-.24.14-.15.3l1.98 3.36c.1.13.03.25-.13.25H35a.34.34 0 0 1-.33-.23l-1.65-3.17a.36.36 0 0 0-.33-.2h-.5c-.16 0-.19.06-.19.22v3.13c0 .16-.1.25-.25.25h-1.53c-.15 0-.22-.1-.22-.25v-8.52Zm2 3.17c0 .16.1.3.25.3h1.16l.26-.02c.17 0 .37-.05.55-.12.15-.07.28-.16.39-.3.1-.16.17-.37.15-.58 0-.18-.04-.39-.13-.55a.89.89 0 0 0-.35-.3 1.8 1.8 0 0 0-.5-.14l-.24-.02h-1.29c-.15 0-.25.13-.25.3v1.43Z" fill="#fff"/><path d="M52 30.27s0-.21-.04-.4a1.49 1.49 0 0 0-.54-.94 1.02 1.02 0 0 0-.96-.1 1 1 0 0 0-.31.24c-.1.11-.16.23-.2.34-.05.1-.07.21-.07.3v.05-.05a1.32 1.32 0 0 0-.27-.53.77.77 0 0 0-.54-.23.94.94 0 0 0-.9.53c-.08.16-.13.35-.15.51-.02.19-.02.42-.02.42v1.45c0 .1.02.14.11.14h3.78c.09 0 .11-.02.11-.14v-1.6Zm-.4.37v.83c0 .07 0 .07-.07.07h-1.38c-.07 0-.07 0-.07-.07v-1.2c0-.1.02-.19.04-.28.03-.14.07-.25.14-.37a.66.66 0 0 1 .6-.34c.07 0 .16.02.22.04.1.02.18.1.25.16.09.12.16.23.18.37.04.16.07.33.07.49.02.09.02.23.02.3Zm-1.9.09v.74c0 .07 0 .07-.07.07h-1.18c-.07 0-.07 0-.07-.07v-1.11l.02-.25c.02-.12.07-.23.11-.33.05-.09.12-.16.2-.23a.57.57 0 0 1 .54-.04c.1.02.16.09.2.16.07.09.14.2.16.32l.07.42c.02.11.02.25.02.32ZM48.09 28.15c-.07 0-.09-.03-.09-.12v-.23c0-.1.02-.12.09-.12h3.82c.07 0 .09.03.09.12v.25c0 .1-.02.12-.09.12h-3.82v-.02ZM51.85 24.2a1.97 1.97 0 0 0-.41-.64c-.2-.18-.42-.32-.63-.4a2.2 2.2 0 0 0-1.62 0 1.76 1.76 0 0 0-1.05 1.04c-.2.52-.2 1.08 0 1.6.1.23.24.46.42.64.2.18.4.32.63.4.53.21 1.1.21 1.62 0a1.76 1.76 0 0 0 1.05-1.04c.19-.52.19-1.1 0-1.6Zm-.26.79c0 .23-.04.43-.13.63a1.56 1.56 0 0 1-.87.8c-.42.13-.87.13-1.29 0a1.56 1.56 0 0 1-.87-.8c-.18-.4-.18-.88 0-1.29.09-.18.2-.36.35-.47.15-.14.32-.25.52-.32.42-.14.87-.14 1.29 0a1.56 1.56 0 0 1 .87.8c.11.22.13.42.13.65Z" fill="#E25625"/><path d="M37.59 27.34a4.42 4.42 0 0 1 2.28-3.77c-.69.65-1 1.29-1.07 1.53l1.2-.86.33.69c-.88 1.05-.9 2.06-.88 2.75.02.7.9 3.04 2.88 2.96 1.99-.09 2.9-1.66 2.87-3.3a2.96 2.96 0 0 0-1.57-2.41c-1.48-.63-2.53.5-2.7-.7-.13-.95.88-1.22 1.4-1.23 3.7.3 4.66 2.78 4.69 3.99 0 2.77-1.52 3.99-2.1 4.09 1.4-1.38 1.46-2.63 1.32-3.09-.98 3.46-3.6 3.77-4.78 3.49.13.23 1.5.22 2.17.18-.59.22-1.3.32-1.59.34a4.81 4.81 0 0 1-4.45-4.66Z" fill="#fff"/></svg>