<!-- by TradingView --><svg width="56" height="56" viewBox="0 0 56 56" xmlns="http://www.w3.org/2000/svg"><path fill="#F0F3FA" d="M0 0h56v56H0z"/><path fill="#084B8F" d="M25 25h2v10h-2zM47 21h2v9h-2z"/><path fill="#084B8F" d="M52 25v2h-5v-2zM49 30a3 3 0 0 0 3 3v2a5 5 0 0 1-5-5h2ZM28 27.76A3 3 0 0 1 33 30h2a5 5 0 0 0-7-4.58v2.34ZM4 21h2v14H4zM7 24a3 3 0 0 0 3-3h2a5 5 0 0 1-5 5v-2ZM8.5 29c-.56 0-1.08.19-1.5.5v-2.24a4.49 4.49 0 0 1 6 4.24V35h-2v-3.5A2.5 2.5 0 0 0 8.5 29ZM19 35c.71 0 1.39-.15 2-.42v-2.34A3 3 0 1 1 22 30v5h2v-5a5 5 0 1 0-5 5ZM41 35c.71 0 1.39-.15 2-.42v-2.34A3 3 0 1 1 44 30v5h2v-5a5 5 0 1 0-5 5Z"/></svg>