<!-- by TradingView --><svg xmlns="http://www.w3.org/2000/svg" width="56" height="56" viewBox="0 0 56 56"><path fill="url(#a025k2upq)" d="M0 0h56v56H0z"/><path fill-rule="evenodd" d="M27.94 17.4c-.1-2.37-2.53-3.5-3.73-3.78.1.35.04.48 0 .5-.14-.34-.45-.98-.49-.76a.81.81 0 0 1-.24.43c0-.27-.07-.82-.24-.79-.17.04-.3.63-.34.92-.83 1.16-6.32 4.27-8.96 5.68-.9-.11-2.77.42-2.93 3.41-.16 3 2.06 3.84 3.19 3.89 3.43.9 7.26 2.98 8.74 3.9.22.42 1.01 1.24 2.5 1.2 1.85-.05 2.16-1.4 2.3-2.65.1-1-.4-2.05-.66-2.45v-.7c-.14.02-.41.05-.32-.07.1-.14.13-.71-.11-.5l-.1.08c-.15.13-.17.15-.24.15.11-.35 0-.48-.08-.5-1.11.33-5.57-1.43-7.66-2.35l1.7-.8c-.24.03-.5-.19.65-.77 1.16-.6 1.16-.33 1.05-.05l3.43-1.8c.42-.1.44-.26.4-.32.2-.3.84-.12 1.13 0 .75-.2.98-1.33 1-1.87zm-7.34-.95c.04.06.02.14-.05.18L16.51 19a.13.13 0 0 1-.18-.05.13.13 0 0 1 .05-.18l4.04-2.36a.13.13 0 0 1 .18.05zm-3.65 9.62a.13.13 0 0 0-.18.06c-.03.07 0 .15.06.18l.54.27c.07.04.15.01.18-.06a.13.13 0 0 0-.06-.17l-.54-.28zm-.65.27a.13.13 0 0 0-.17.07c-.03.07 0 .15.07.18l1.3.54c.07.03.15 0 .18-.07a.13.13 0 0 0-.08-.18l-1.3-.54zm-.6.28a.13.13 0 0 0-.18.09c-.02.06.01.14.08.17.84.3 2.19.82 3.53 1.42 1.34.6 2.66 1.25 3.44 1.82.06.05.14.03.18-.03a.13.13 0 0 0-.03-.18 21.1 21.1 0 0 0-3.49-1.86 58.6 58.6 0 0 0-3.54-1.43zm3.38.7a.13.13 0 0 0-.18.06c-.03.07 0 .14.07.18.6.28 1.92.9 2.34 1.18.06.04.14.02.18-.04a.13.13 0 0 0-.04-.19c-.44-.29-1.77-.92-2.37-1.2zm23.68-10.65c-.05-2-1.5-2.4-2.22-2.35-2.62.37-6.6-.55-8.34-.96-.39-.1-.67-.16-.8-.17-.54-.08-.46.22-.36.38.24.14.6.52.2 1-.42.5-.51 1.01-.51 1.21.1 1.82 1.28 1.88 2.11 1.92.52.02 1.27-.05 1.88-.1.36-.04.67-.07.84-.07.46 0 0 .77-.25 1.09-.2.25-.04.42.06.48.2-.34.65-1.05.85-1.2.2-.16.26-.07.26 0a8.32 8.32 0 0 0-.92 1.3c-.09.26 0 .32.05.32.32-.43 1-1.33 1.23-1.49.24-.16.28-.03.27.06l-.05.07c-.52.62-1.57 1.88-1.45 1.97.13.09 1.43-1.38 1.62-1.63.15-.2.25-.14.3-.08-.2.19-1.16 1.24-1.05 1.37.12.12.9-.59 1.12-.91.18-.26.3-.2.34-.13-.21.14-.72.72-.62.77.08.03.59-.2.83-.32-.07.05-.24.2-.44.4-.2.19-.05.2.04.19.22-.15.63-.41.57-.27a.37.37 0 0 0 0 .31c.26 0 .62-.53.76-.8-.08.17.03.4.1.49l1.14-.7c-.33.28-.85.79-.25.53.52-.24.63-.16.74-.08.05.03.1.06.17.08.27.04 1.83-.16 1.78-2.68zm-3.43 3.35c-2.45-.12-4.84 1.59-5.73 2.46.17-.48.64-1.57 1.22-2.04.73-.6.12-1.63-1.36-2.22a5 5 0 0 0-2.63-.36c-.43 0-.78.21-.75.36-.48-.44-.49-.11-.43.1-.17-.3-.49-.82-.44-.46.06.35.11 1.11.14 1.45-.32 1.09-1.01 3.5-1.22 4.4-.22.9-.6 1.59-.77 1.81-.47 1.07.74 2.57 1.4 3.2.63.98 2.4.53 2.4.11.02-.33.6-1.39.9-1.87l1.33-1.26c.1-.44.95-.89 1.36-1.05h.31c.7-.1 1.72-.2 2.13-.24 2.36-.02 1.6 1.65 1.54 1.7.63.32-.54.88-1.2 1.12v-.27a5.89 5.89 0 0 1-2.62.52c-.9-.24-2.73-.66-2.85-.4-.11.26 1.3.52 2.2.69l.65.13c.3.09.02.16-.16.18-.95-.25-2.84-.71-2.84-.5 0 .17 1.03.43 1.8.62.3.08.58.15.72.2.4.12.21.2.07.24-.73-.27-2.2-.73-2.29-.45-.06.2.67.4 1.32.56.45.12.86.23.97.33.23.2.04.18-.04.17a2.25 2.25 0 0 1-.2-.06c-.44-.15-1.59-.55-1.7-.36-.13.25 2.1.87 2.5.98.33.1.27.2.2.24-.74-.29-2.23-.8-2.31-.58-.1.24 1.74.82 2.47 1.05l.26.08c.26.09.26.2.23.25-.75-.23-2.3-.7-2.52-.72-.23-.02-.1.15 0 .24 1.08.34 3.14 1.04 2.78 1.03-.36 0-1.64-.32-2.23-.48-.17.25.27.8 3.32.94 3.8.19 7.84-2.58 7.74-6.28-.1-3.7-2.6-5.4-5.67-5.56zm-9.85.74c.07.02.12.1.1.16l-.96 3.53a.13.13 0 1 1-.25-.07l.95-3.53c.02-.07.1-.11.16-.1zM28 34h4.34a3 3 0 0 1 1.74 5.45L35.43 42h-2.7l-1.06-2H30.5v2H28v-8zm2.5 4H32a1 1 0 1 0 0-2h-1.5v2zm-16-4H12v8h2.5v-3.57L16.79 42h3l-2.57-4 2.56-4h-3l-2.28 3.57V34zm8 0H20v4.25a3.75 3.75 0 1 0 7.5 0V34H25v4.23a1.25 1.25 0 0 1-2.5 0V34zm16.29 0l-3.13 8h2.87l.41-1.29h2.77l.4 1.29H45l-3.17-8h-3.04zm1.52 2.64l-.67 1.99H41l-.7-1.99z" fill="#fff"/><defs><linearGradient id="a025k2upq" x1="10.42" y1="9.71" x2="68.15" y2="76.02" gradientUnits="userSpaceOnUse"><stop stop-color="#1A1E21"/><stop offset="1" stop-color="#06060A"/></linearGradient></defs></svg>