<!-- by TradingView --><svg xmlns="http://www.w3.org/2000/svg" width="56" height="56" viewBox="0 0 56 56"><path fill="#05203D" d="M0 0h56v56H0z"/><path fill-rule="evenodd" d="M49.5 24c-.28 0-.5.14-.5.5v5c0 .36.22.5.5.5s.5-.14.5-.5v-5c0-.36-.22-.5-.5-.5zm-20.14.2a.66.66 0 0 1 .94 0c.27.26.27.7 0 .96l-1.34 1.36 1.45 2.5c.18.31.08.71-.23.9-.31.17-.7.07-.89-.25l-1.28-2.2-.51.52v1.32c0 .38-.34.69-.75.69s-.75-.3-.75-.7V24.7c0-.38.34-.69.75-.69s.75.3.75.7v1.38l1.86-1.88zM31.5 26c-.28 0-.5.25-.5.55v2.9c0 .3.22.55.5.55s.5-.25.5-.55v-2.1c.16-.23.4-.54.6-.54a.4.4 0 0 1 .3.1c.07.06.14.11.33.11.37 0 .38-.32.38-.45 0-.12-.33-.57-.93-.57-.3 0-.53.22-.69.45-.04-.25-.24-.45-.49-.45zm5.64.02c-.23-.08-.5.07-.61.33l-.7 1.85-.82-1.76c-.14-.28-.45-.43-.7-.33-.27.1-.37.41-.24.7l1.21 2.54c-.07.33-.31 1.02-.67.97-.46-.07-.6.04-.6.29 0 .24.27.36.8.39.7.04 1.18-.57 1.39-1.12v-.02l1.17-3.22c.1-.27 0-.54-.23-.62zm3.28 1.28c-.09-.03-.15-.1-.2-.18a1.85 1.85 0 0 0-.05-.06c-.66-.8-1.75.09-1.08.37l.36.13c.7.27 1.59.6 1.55 1.27-.09 1.46-2.06 1.45-2.82.54-.5-.61.17-1.36.52-.73.28.5.86.92 1.44.52.2-.14.15-.53-.1-.63l-.66-.24h-.01c-.55-.2-1.21-.44-1.26-1.02-.08-.87 1.07-1.83 2.45-.88.33.23.52.56.32.78a.45.45 0 0 1-.46.13zM42 29v-2h-.07c-.24 0-.43-.22-.43-.5s.2-.5.43-.5H42v-.97c0-.3.23-.53.5-.53.29 0 .52.24.52.53V26h.55c.24 0 .43.22.43.5s-.2.5-.43.5h-.55v1.86c0 .11.05.21.13.28.12.08.27.08.38 0l.07-.06a.21.21 0 0 1 .13-.04h.08c.17 0 .3.14.3.32 0 .35-.27.64-.61.64h-.53a.99.99 0 0 1-.97-1zm3.1-1.52c.26.18.4.02.58-.21.34-.48 1.16-.47 1.32-.04v.27l-1.32.3c-.62.13-1.03.76-.93 1.42a.9.9 0 0 0 .86.78H46c.3 0 .6-.1.85-.28l.33-.26c0 .3.23.54.5.54h.14c.6 0 .68-.71.28-.85-.05 0-.1-.1-.09-.15v-1.43c.03-.86-.64-1.57-1.44-1.57h-.12c-.55 0-1.07.28-1.4.75-.17.23-.22.55.05.73zm1.9.65l-1.03.33c-.23.07-.35.34-.26.58.06.17.2.28.37.28h.03c.32 0 .62-.15.83-.4l.06-.07v-.72z" fill="#fff"/><path d="M19.4 27.24l-1.13 1.55a426.55 426.55 0 0 0-4.95-5.42 5.3 5.3 0 0 0-1.96-1.19 6.58 6.58 0 0 1 1.61-.18c1.31 0 2.59.91 3.06 1.37l3.37 3.87z" fill="#FDAF4F"/><path d="M10.46 24.69l-1.18-1.14c.33-.39 1.14-1.16 1.79-1.2a2.2 2.2 0 0 1 1.42.45 14.9 14.9 0 0 0-2.03 1.89z" fill="#E75732"/><path d="M6.93 22c-1.1 0-2.4.45-2.93.67 1.7.11 2.51.59 2.7.81 1.1 1.15 3.8 4 5.72 6.22 1.92 2.2 4.19 1.93 5.08 1.52-.12.04-.65-.05-1.85-.8C14.15 29.5 8.57 22 6.93 22z" fill="#4763A4"/><path d="M26.35 22.5h25.4c.14 0 .25-.11.25-.25s-.1-.25-.24-.25H25.7c-3.37 0-5.27 4.19-6.8 6.24-1.21 1.65-2.3 2.3-2.68 2.41 1.8 1.11 3.66-.7 4.36-1.73.71-1 2.38-3.33 3.3-4.66.91-1.34 2.03-1.74 2.47-1.76z" fill="#54A4D5"/><path d="M26.05 33.5h25.7c.14 0 .25.11.25.25s-.1.25-.24.25H25.04c-2.44 0-4.73-2.52-5.57-3.78a4.71 4.71 0 0 0 1.29-1.35c.41.54 1.53 1.9 2.66 3.01 1.12 1.11 2.22 1.6 2.63 1.62z" fill="#FDAF4F"/><path d="M6.19 27.37c-.4.5-1.07.72-1.36.76.04.12.42.37 1.6.37 1.16 0 2.33-1.48 2.77-2.21L8.04 25l-1.85 2.37z" fill="#E75732"/><path d="M12.88 23.18c.06 0 .12.05.12.1v4.04c0 .06-.06.1-.12.1a.1.1 0 0 1-.1-.1v-4.04c0-.05.05-.1.1-.1zm-7.98 0c.05 0 .1.04.1.1v4.53a.1.1 0 0 1-.2 0v-4.53c0-.06.04-.1.1-.1zm7 .28c.05 0 .1.04.1.1v2.57a.1.1 0 0 1-.2 0v-2.57c0-.06.04-.1.1-.1zm-6 .02c.05 0 .1.04.1.1v3.61a.1.1 0 0 1-.2 0v-3.61c0-.06.04-.1.1-.1zm1 .52c.05 0 .1.06.1.12v2.1a.1.1 0 0 1-.2 0v-2.1c0-.06.04-.12.1-.12zm7 .17c.06 0 .1.04.1.1v4.16a.1.1 0 0 1-.2 0v-4.16c0-.06.04-.1.1-.1zm-3 .26c.05 0 .1.04.1.1v.69a.1.1 0 0 1-.2 0v-.7c0-.05.04-.1.1-.1zm4 .9c.05 0 .1.05.1.1v4.1a.1.1 0 0 1-.2 0v-4.1c0-.05.04-.1.1-.1zm1 1.09c.05 0 .1.04.1.1v3.85a.1.1 0 1 1-.2 0v-3.85c0-.06.04-.1.1-.1zm1 .99c.06 0 .1.04.1.1V30a.1.1 0 0 1-.2 0v-2.5c0-.06.04-.1.1-.1zm1 1.06c.06 0 .1.04.1.1v.72a.1.1 0 1 1-.2 0v-.72c0-.06.04-.1.1-.1z" fill="#ACB5BE"/></svg>