<!-- by TradingView --><svg width="56" height="56" viewBox="0 0 56 56" xmlns="http://www.w3.org/2000/svg"><path fill="#0020BB" d="M0 0h56v56H0z"/><path d="M15 15.34v8.15a.5.5 0 0 0 .86.36l8.99-9a.5.5 0 0 0-.35-.85h-8.16A1.35 1.35 0 0 0 15 15.34ZM16.34 42h8.16a.5.5 0 0 0 .35-.86l-9-8.99a.5.5 0 0 0-.85.36v8.15A1.35 1.35 0 0 0 16.34 42ZM22.16 24.06 31 14.97a3.33 3.33 0 0 1 2.37-.97h8.06c.1 0 .22.03.31.09.1.06.17.15.21.26a.57.57 0 0 1-.15.62l-8.46 8.61A4.67 4.67 0 0 1 30.03 25h-7.5a.55.55 0 0 1-.5-.34.57.57 0 0 1 .13-.6ZM22.16 31.94 31 41.03c.63.63 1.48.98 2.37.97h8.06c.1 0 .22-.03.31-.09.1-.06.17-.15.21-.26a.57.57 0 0 0-.15-.62l-8.46-8.61A4.67 4.67 0 0 0 30.03 31h-7.5a.55.55 0 0 0-.5.34.57.57 0 0 0 .13.6Z" fill="#fff"/></svg>