<!-- by TradingView --><svg width="56" height="56" viewBox="0 0 56 56" xmlns="http://www.w3.org/2000/svg"><path fill="#E94433" d="M0 0h56v56H0z"/><path d="M28.75 29.15c2.86.44 3.25 2.14 3.48 3.72l.04.26.02.19.14.92c.28 1.78.85 5.46.85 7.38 0 .47-.05.84-.12 1.05-.13.3-.5.6-1.02.86-1.25.3-2.56.47-3.9.47l-.43-.01c-.55-.16-.96-.41-1.17-.77-.66-1.06-.7-3.43-.7-6.2l-.01-.33v-.83c-.03-2.93-.04-5.46 1.02-6.37.41-.35 1-.46 1.8-.34Zm-6.25 6.39c.62-.04 1.02 3.02 1.1 5.33.06 1.61-.1 2.28-.38 2.51-.3-.1-.6-.2-.9-.33-.2-.36-.35-.92-.45-1.66-.29-2.33-.04-5.8.63-5.85Zm15.56 4.56c-.04.21-.1.38-.16.52-.53.42-1.09.81-1.67 1.16-.19.04-.35.01-.43-.12-.78-1.36-1.07-5.63-.32-6 .98-.47 2.73 3.7 2.58 4.44ZM28 12c8.71 0 15.8 6.9 16 15.49v.43a15.7 15.7 0 0 1-3.8 10.18c-.08-.05-.24-.19-.52-.6-.29-.43-2.8-4.3-2.8-8.74 0-.87 1.25-2.23 2.36-3.43.83-.9 1.62-1.74 1.9-2.4.38-.87.12-1.47-.29-1.67-.37-.18-.92-.05-1.31.64a5.45 5.45 0 0 1-1.78 2.08c-.92.75-2.37 1.5-2.37.52 0-.52.8-1.72 1.2-2.55.42-.85-.02-1.46-.87-1.46-1.66 0-2.76 2.12-2.76 2.85s.35.84.35 1.69c0 .86-1.82 1.97-3.54 1.97-1.65 0-2.6-.33-3-1.27l-.05-.14-.12-.33c-.4-1.2-.7-2.06-1.2-2.96-.28-.48-.7-.8-1.05-1.1-.47-.36-.72-.7-.77-.95-.05-.25-.07-.72.73-1.8s.92-1.9.52-2.31c-.15-.15-.4-.25-.72-.25-.56 0-1.34.3-2.15 1.12-1.26 1.29-.55 2.51-.55 3.05 0 .53-.23.84-.98 1.57-.76.73-1.02 1.36-1.1 3.88a8.9 8.9 0 0 1-.48 2.71 6.25 6.25 0 0 0-.04 4.01c.16.6.34 1.3.45 2.45.19 1.79.12 3.3-.2 4.84l-.1.38-.01.11c-.07.27-.15.6-.26.73A15.78 15.78 0 0 1 12 27.85C12 19.1 19.16 12 28 12Z" fill="#fff"/></svg>