<!-- by TradingView --><svg width="56" height="56" viewBox="0 0 56 56" xmlns="http://www.w3.org/2000/svg"><path fill="#F0F3FA" d="M0 0h56v56H0z"/><path fill-rule="evenodd" d="M28 45a17 17 0 1 0 0-34 17 17 0 0 0 0 34Zm0-2a15 15 0 1 0 0-30 15 15 0 0 0 0 30Z" fill="#3A5C81"/><path fill-rule="evenodd" d="M32.39 23.98a3.5 3.5 0 1 0-2.52-.7h-.03L27.1 28a.74.74 0 0 0 0 .73l2.46 4.25A3.49 3.49 0 0 0 32 39a3.5 3.5 0 1 0-.06-7l-2.1-3.63 2.55-4.4Zm.95-3.48a1.34 1.34 0 1 1-2.68 0 1.34 1.34 0 0 1 2.68 0ZM32 36.84a1.34 1.34 0 1 0 0-2.68 1.34 1.34 0 0 0 0 2.68Zm-9-19.81a3.55 3.55 0 0 0-2.53 3.41A3.55 3.55 0 0 0 23 23.86v8.28a3.5 3.5 0 1 0 2 0v-8.3a3.55 3.55 0 0 0 2.47-3.4c0-1.6-1.04-2.95-2.47-3.4v2.9c0 .59-.45 1.06-1 1.06s-1-.47-1-1.06v-2.91Z" fill="#F38432"/></svg>