<!-- by TradingView --><svg width="56" height="56" xmlns="http://www.w3.org/2000/svg"><path fill="#782F40" d="M0 0h56v56H0z"/><path d="M23.388 23.121a6.281 6.281 0 00-.944 1.4c-.334.678-.497 1.291-.523 1.97l-.01.268-.192-.271a2.185 2.185 0 00-.203-.264c-.02.013-.074.267-.091.43-.07.635.1 1.4.452 2.025l.072.127-.089-.05a60.646 60.646 0 01-.39-.232c-.181-.11-.304-.175-.307-.163-.001.01.028.113.068.228.276.793.68 1.431 1.111 1.752.095.07.115.09.085.09-.102 0-.585.037-.585.045 0 .006.107.08.237.167.849.563 1.79.972 2.64 1.145l.204.042-.023.056c-.187.445-.238.58-.23.606.007.023.088.056.376.147l.459.149c.05.015.113.03.137.03.066 0 .945-.247.96-.269.021-.034.013-.057-.134-.398l-.144-.338.068-.01c.233-.035.761-.194 1.144-.345.274-.108.802-.364 1.094-.531.244-.14.695-.43.695-.45a.58.58 0 00-.155-.021l-.31-.019-.153-.01.088-.063c.375-.261.741-.782 1.023-1.46.091-.218.189-.493.189-.534 0-.023-.084.022-.387.202a9.044 9.044 0 01-.388.225c0-.002.048-.095.109-.204.24-.443.386-.842.458-1.26a2.407 2.407 0 00-.006-.747c-.028-.138-.117-.37-.14-.37-.005.002-.1.13-.21.284-.197.278-.2.28-.19.21a4.556 4.556 0 00-.044-.71c-.138-.92-.601-1.895-1.295-2.727a3.577 3.577 0 00-.2-.225c-.06-.055-.065-.059-.056-.023.034.138.105.507.132.697.268 1.853.01 3.697-.725 5.23-.183.379-.574 1.04-.594 1.005a7.024 7.024 0 00-.311-.764c-.13-.283-.132-.28.077-.28.157 0 .158-.003.058-.178-.086-.148-.117-.179-.186-.179-.08 0-.124-.028-.194-.12-.091-.12-.163-.15-.362-.15-.146 0-.163.002-.26.05a.505.505 0 00-.24.244c-.075.148-.233.736-.297 1.107-.057.324-.039.312-.167.115a8.145 8.145 0 01-1.212-3.294c-.11-.78-.124-1.689-.038-2.445.032-.297.09-.666.137-.877.024-.099.038-.183.035-.186a.787.787 0 00-.123.121zM40.79 24c-1.948.124-3.234 1.2-3.6 3.012-.08.395-.094.567-.094 1.131 0 .83.009 1.375.071 1.727.122.704.398 1.34.792 1.825.593.736 1.523 1.193 2.641 1.305.987.098 1.96-.051 2.693-.409 1.094-.536 1.762-1.518 1.959-2.883.134-.928.037-2.667-.254-3.409a3.43 3.43 0 00-.817-1.256 3.177 3.177 0 00-.916-.634c-.674-.324-1.546-.468-2.476-.409zm.675 1.658c.598.073 1.03.406 1.272.98.188.445.279 1.824.24 2.495-.02.353-.048.554-.111.815-.219.89-.735 1.345-1.571 1.388-.518.028-.949-.12-1.263-.428a1.783 1.783 0 01-.456-.764c-.181-.551-.229-2.126-.117-2.814.165-1.01.655-1.567 1.471-1.672.15-.019.377-.019.535 0zM48.755 24.025c-1.64.175-2.696 1.108-2.696 2.383 0 1.728 1.652 2.884 3.207 3.276.514.13 1.35.24 1.39.902.043.669-.587.89-1.15.92-.8.044-1.27-.441-1.314-1.233H45.95c0 .558.107 1.115.42 1.588.501.758 1.448 1.053 2.306 1.139.457.045 1.109.033 1.612-.032 1.778-.228 2.714-1.093 2.712-2.506-.002-.8-.294-1.77-.91-2.181-.37-.248-.78-.41-1.484-.581-.493-.12-1.991-.642-2.202-1.213-.22-.601.443-1.009.955-1.034.703-.033 1.044.395 1.09 1.05h2.241c0-1.269-.697-2.114-1.943-2.388a6.42 6.42 0 00-1.992-.09zM5 33h2v-4.929L9.935 33l2.641-.006L9 28l3.344-3.988-2.5-.007L7 27.5v-3.503H5V33zM14 33h2v-3h1.128c.328 0 .403.174.506.448C17.946 31.262 18 33 18 33h2.442l-.058-.228c-.134-.503-.202-.878-.326-1.747-.1-.712-.156-.944-.297-1.224-.6-1.192-1.46-1.192-1.46-1.192S20.185 28 20.185 26.4c0-1.598-.68-2.097-1.884-2.313-.452-.082-.443-.082-2.66-.088L14 23.994V33zm3.04-7.455c.573.059.85.255.937.667.089.407-.005.912-.404 1.111-.523.259-1.573.177-1.573.177v-1.97c.417 0 .625-.022 1.04.015z" fill="#fff"/><path d="M23.604 26.5c-.012.103.012.176.043.344.099.546.305 1.235.51 1.712.116.27.365.763.387.766.008.001.252-.716.542-1.593l.529-1.596.519 1.591c.285.876.525 1.588.534 1.587.023-.008.27-.504.378-.76.3-.706.507-1.511.597-2.306l.021-.197c-.2-.512-.401-1.537-.604-2.048h-2.72l-.736 2.5zM30 26h2.5v7h2v-7H37v-2h-7v2zM29.263 30.766a9.075 9.075 0 01-1.65.874c-.093.037-.172.068-.173.07-.002 0 .283 1.285.283 1.285h2.509s-.752-2.335-.766-2.35a1.092 1.092 0 00-.203.12zM21.929 30.786c-.014.022-.691 2.19-.691 2.203 0 .008.494.013 1.118.01l1.119-.004c.023-.133.328-1.227.274-1.281a3.513 3.513 0 00-.234-.1 9.812 9.812 0 01-1.425-.741c-.085-.055-.158-.095-.161-.087z" fill="#fff"/></svg>