<!-- by TradingView --><svg xmlns="http://www.w3.org/2000/svg" width="56" height="56" viewBox="0 0 56 56"><path fill="#393661" d="M0 0h56v56H0z"/><path d="M28 13h-2.36c-.14 0-.27 0-.41-.02a1.3 1.3 0 0 1-.87-.48 1.6 1.6 0 0 1-.36-1c0-.39.13-.76.37-1.04.24-.27.57-.45.92-.46h5.37c.36 0 .7.17.95.45s.39.66.39 1.05c0 .4-.14.77-.4 1.05-.24.28-.58.45-.94.45h-2.67zM16.6 27H21.3l.4.01c.51.04 1 .43 1 .96s-.25.79-.73.95c-.22.06-.46.09-.7.08H16.99c-.75.04-1.32.8-1.32 1.54.01.7.56 1.42 1.27 1.46H19.81l.42.02h.04c.49.07.9.42.94.93.07.5-.25.82-.72.97a1.7 1.7 0 0 1-.5.08h-1.26l-.4.01c-.7.07-1.23.81-1.2 1.5 0 .69.55 1.45 1.24 1.49H22.11l.3.01c.6.04 1.03.44 1.02 1.02 0 .58-.45.94-1.04.97h-.5c-.82.05-1.5.93-1.4 1.8.08.63.58 1.15 1.22 1.2h4.2a5.11 5.11 0 0 1 .35 0 1.35 1.35 0 0 0 1.22-1.16c.13-.87-.54-1.77-1.38-1.84h-.45c-.48-.05-.88-.31-.95-.8-.1-.74.46-1.15 1.14-1.2h.23l.22-.01c.69-.07 1.2-.8 1.21-1.48.01-.68-.5-1.43-1.18-1.51H23.8c-.14 0-.27 0-.4-.02-.49-.06-.9-.27-.96-.77-.1-.73.53-1.25 1.26-1.21h2.13l.45-.01c.72-.06 1.25-.8 1.22-1.5-.02-.71-.6-1.48-1.31-1.49h-.91c-.6-.02-1.16-.3-1.21-.94-.09-.62.38-1.05 1.04-1.06h.86c.86-.02 1.62-.76 1.51-1.68-.07-.62-.58-1.25-1.18-1.3-.15-.02-.3-.02-.45-.02h-2.48c-.22 0-.44-.02-.65-.07-.52-.14-.83-.44-.78-1 .03-.51.43-.86.92-.91.17-.02.34-.02.51-.02h2.44c.81.02 1.7-.56 1.69-1.47-.02-1.05-.86-1.43-1.75-1.53-.48-.05-.96-.41-.96-.9 0-.78.45-1.02 1.12-1.1h.2c.5 0 1.39-.52 1.38-1.48 0-.75-.33-1.26-.94-1.44a1.95 1.95 0 0 0-.55-.07h-3.69c-.56 0-1.1.24-1.34.76a1.4 1.4 0 0 0-.08 1.02c.2.77.8.95 1.42 1.13l.25.08c.45.19.67.59.67 1.08 0 .5-.48.87-.96.92H21.8a378.77 378.77 0 0 1-2.48 0c-.84 0-1.7.57-1.7 1.53 0 .64.54 1.35 1.18 1.47h.9a1 1 0 0 1 .88.95c.04.5-.28.83-.75.98-.22.06-.43.07-.65.07h-2.53l-.45.02c-.65.05-1.15.7-1.22 1.34-.06.63.34 1.39.96 1.57.21.05.43.07.65.07zm22.9 0h-4.71l-.4.01c-.5.04-1 .43-1 .96s.25.79.73.95c.22.06.46.09.7.08H39.1c.75.04 1.32.8 1.32 1.54 0 .7-.55 1.42-1.27 1.46H36.28l-.41.02h-.05c-.49.07-.9.42-.94.93-.06.5.25.82.73.97.16.05.32.08.5.08h1.25l.4.01c.7.07 1.23.81 1.21 1.5 0 .69-.55 1.45-1.25 1.49H33.98l-.3.01c-.6.04-1.02.44-1.02 1.02 0 .58.45.94 1.04.97h.51c.81.05 1.5.93 1.4 1.8a1.35 1.35 0 0 1-1.23 1.2H30.2a5.11 5.11 0 0 0-.36 0 1.35 1.35 0 0 1-1.22-1.16c-.13-.87.54-1.77 1.38-1.84h.45c.49-.05.88-.31.95-.8.1-.74-.46-1.15-1.14-1.2h-.22l-.23-.01c-.69-.07-1.2-.8-1.21-1.48 0-.68.5-1.43 1.18-1.51h2.53c.13 0 .27 0 .4-.02.48-.06.88-.27.95-.77.1-.73-.53-1.25-1.26-1.21h-2.13l-.45-.01c-.72-.06-1.24-.8-1.22-1.5.02-.71.6-1.48 1.32-1.49h.9c.6-.02 1.16-.3 1.21-.94.1-.62-.38-1.05-1.03-1.06h-.86c-.87-.02-1.63-.76-1.52-1.68.07-.62.58-1.25 1.18-1.3.15-.02.3-.02.46-.02H32.72c.22 0 .44-.02.65-.07.52-.14.83-.44.79-1-.04-.51-.44-.86-.93-.91a271.69 271.69 0 0 0-1.31-.02h-1.64c-.81.02-1.7-.56-1.68-1.47.01-1.05.85-1.43 1.75-1.53.47-.05.95-.41.95-.9 0-.78-.45-1.02-1.12-1.1h-.2a1.5 1.5 0 0 1-1.38-1.48c0-.75.33-1.26.94-1.44.18-.05.37-.07.55-.07h3.7c.55 0 1.08.24 1.34.76.15.32.18.68.08 1.02-.2.77-.81.95-1.43 1.13l-.25.08c-.45.19-.67.59-.67 1.08 0 .5.48.87.97.92H34.28a378.68 378.68 0 0 0 2.48 0c.84 0 1.7.57 1.7 1.53 0 .64-.54 1.35-1.17 1.47h-.9a1 1 0 0 0-.89.95c-.04.5.29.83.76.98.2.06.43.07.65.07h2.52l.46.02c.64.05 1.15.7 1.2 1.34.07.63-.32 1.39-.95 1.57a2.5 2.5 0 0 1-.65.07zm-9.15 16h-5.09c-.31.03-.6.17-.83.4a1.62 1.62 0 0 0-.23 1.87 1.38 1.38 0 0 0 1.2.73h5.16c.18 0 .37-.04.55-.1.29-.12.53-.34.7-.63a1.62 1.62 0 0 0-.23-1.86 1.29 1.29 0 0 0-.82-.4h-.4zM13.93 22l-.7-.01c-.2 0-.38-.03-.56-.07a1.3 1.3 0 0 1-.73-.5 1.53 1.53 0 0 1-.29-.9c0-.7.42-1.33 1.04-1.42a8.15 8.15 0 0 1 2.36-.03c.32.05.62.22.83.5.2.27.31.62.3.98-.01.35-.14.69-.36.95-.22.26-.52.42-.84.45l-.7.04h-.01l-.34.01zm27.83-.01l.35.01c.16 0 .32 0 .48-.02l.48-.02c.08 0 .17-.01.25-.04.29-.06.55-.24.74-.49.2-.25.3-.57.3-.9.02-.32-.08-.64-.26-.9a1.32 1.32 0 0 0-.71-.54 2.15 2.15 0 0 0-.55-.08h-1.51c-.19 0-.37.03-.55.08-.17.06-.33.15-.46.27a1.56 1.56 0 0 0-.41 1.58c.16.56.51.92 1.05 1 .26.03.53.04.8.05zM12.1 29h.76c.32.01.63.16.87.41.23.25.38.6.4.95a1.5 1.5 0 0 1-1.04 1.6c-.08.02-.17.03-.25.03a37 37 0 0 0-.5 0H11.3c-.33 0-.66-.15-.9-.41a1.61 1.61 0 0 1-.1-2.04c.22-.3.53-.5.87-.54h.91zm31.05 3h1.46c.18 0 .37-.05.54-.12.28-.12.52-.34.67-.63a1.63 1.63 0 0 0-.23-1.84c-.22-.23-.5-.37-.8-.39a17.5 17.5 0 0 0-1.67 0c-.23 0-.45.09-.64.23-.2.14-.35.34-.44.58a1.64 1.64 0 0 0 .03 1.41c.11.22.27.4.46.53.18.13.4.22.62.23zm-.64 5h-.86a1.25 1.25 0 0 1-.64-.26c-.2-.14-.35-.34-.45-.57a1.63 1.63 0 0 1 .5-1.94c.17-.12.37-.19.57-.2.57-.04 1.14-.04 1.72 0 .33.04.63.22.85.5.22.28.34.65.33 1.02-.01.37-.15.73-.39 1-.23.26-.55.44-.88.45h-.75zm-28.13-3H12.76c-.35.01-.67.2-.9.47-.24.27-.38.64-.38 1.03 0 .38.13.75.37 1.03s.56.45.9.47h1.57c.28 0 .56-.14.78-.35.2-.19.36-.44.43-.73a1.6 1.6 0 0 0-.02-.86c-.16-.63-.57-.99-1.14-1.06zm24.66 8h-.71c-.51.01-1.17-.48-1.25-1.32-.03-.35.04-.71.22-1 .17-.3.44-.51.74-.6l.03-.01a.77.77 0 0 1 .22-.07h1.51c.32.03.61.2.83.46.22.25.36.59.38.94.02.33-.05.65-.21.92-.16.27-.4.48-.66.59-.15.05-.3.08-.45.08h-.64zm-22.3 0H17.69c.3-.02.58-.15.8-.37.23-.23.37-.53.42-.86.1-.76-.24-1.43-.86-1.67a5.66 5.66 0 0 0-2.15 0c-.62.24-.97.9-.88 1.66.05.33.19.64.4.86.23.23.51.36.81.37l.52.01zm.47-25h-.6c-.3-.02-.6-.15-.83-.38a1.65 1.65 0 0 1-.24-1.89c.17-.3.42-.53.72-.63l.05-.02a5.4 5.4 0 0 1 1.85 0c.3.1.56.31.74.6.17.3.25.65.21 1-.08.8-.7 1.32-1.25 1.32h-.65zm20.91 0H39.47c.32-.03.61-.2.83-.45.22-.25.35-.6.36-.95a1.65 1.65 0 0 0-.32-1.08 1.34 1.34 0 0 0-.4-.35 1.2 1.2 0 0 0-.5-.15c-.36-.03-.7-.02-1.06 0a32 32 0 0 1-.26 0c-.12 0-.23.04-.34.09-.28.11-.52.33-.67.61-.16.28-.23.62-.2.95.03.34.17.66.39.9.22.25.5.4.81.43zM11.72 27a5.2 5.2 0 0 1-.79-.13c-.28-.1-.53-.3-.7-.58a1.59 1.59 0 0 1 .16-1.85c.22-.25.52-.4.83-.42.34-.03.67-.03 1.01 0 .3.02.6.16.81.4.22.23.36.55.4.89.03.34-.05.7-.23.98a1.35 1.35 0 0 1-.93.65 4.54 4.54 0 0 0-.56.06zm33.05-3h-.45s-.4 0-.6.02c-.19.03-.36.1-.51.2-.16.1-.29.24-.4.4a1.58 1.58 0 0 0-.2 1.17c.12.63.52 1.1 1.09 1.18.37.03.74.04 1.1.02a1.36 1.36 0 0 0 .96-.66c.18-.28.26-.63.23-.97a1.57 1.57 0 0 0-.38-.93c-.23-.25-.52-.4-.84-.43zM19.98 43.85a1.09 1.09 0 0 1 1.1-1.13 1.12 1.12 0 0 1 1.13 1.12 1.13 1.13 0 0 1-1.1 1.1 1.12 1.12 0 0 1-1.13-1.1zm.33-32.53a1.1 1.1 0 0 0-.24 1.2 1.11 1.11 0 0 0 2.14-.4A1.1 1.1 0 0 0 21.1 11c-.3 0-.59.11-.8.32zm15.72.8a1.1 1.1 0 0 1-1.09 1.15 1.11 1.11 0 0 1-1.13-1.12 1.1 1.1 0 0 1 1.1-1.15 1.11 1.11 0 0 1 1.12 1.12zm-.68 30.68a1.1 1.1 0 0 0-.44-.08 1.09 1.09 0 0 0-1.09 1.13 1.1 1.1 0 0 0 1.08 1.1 1.13 1.13 0 0 0 1.05-1.54 1.1 1.1 0 0 0-.6-.6z" fill="#7776CC"/></svg>