<!-- by TradingView --><svg width="56" height="56" viewBox="0 0 56 56" xmlns="http://www.w3.org/2000/svg"><path fill="url(#al4mholcx)" d="M0 0h56v56H0z"/><path d="M5 34V22h2v4.5l3.7-4.5h2.9L9.2 27.38 14 34h-2.73L7 28.21V34H5Zm10-12h2.53l2.97 8.58L23.56 22H26l-4.4 12h-2.17L15 22Zm23 12h-2.76l-1.13-3h-4.28l-1.17 3H26l4.8-12h2.36L38 34Zm-7.4-5h2.75L32 25.42 30.6 29Zm15.16 5c2.11 0 4-.86 5.24-2.2l-1.46-1.34A5.14 5.14 0 0 1 45.77 32C43.13 32 41 30.2 41 28s2.13-4 4.77-4c1.55 0 2.92.62 3.8 1.57L51 24.2a7.1 7.1 0 0 0-5.24-2.2C42.03 22 39 24.69 39 28s3.03 6 6.76 6Z" fill="red"/><defs><linearGradient id="al4mholcx" x1="10.42" y1="9.71" x2="68.15" y2="76.02" gradientUnits="userSpaceOnUse"><stop stop-color="#1A1E21"/><stop offset="1" stop-color="#06060A"/></linearGradient></defs></svg>