<!-- by TradingView --><svg width="56" height="56" viewBox="0 0 56 56" xmlns="http://www.w3.org/2000/svg"><path fill="#FB1502" d="M0 0h56v56H0z"/><path d="M18.5 21c.28 0 .5.22.5.5V35H5.5a.5.5 0 0 1 0-1H18V21.5c0-.28.22-.5.5-.5ZM34.5 21c.28 0 .5.22.5.5V35H21.5a.5.5 0 0 1 0-1H34V21.5c0-.28.22-.5.5-.5ZM50.5 21c.28 0 .5.22.5.5V35H37.5a.5.5 0 0 1 0-1H50V21.5c0-.28.22-.5.5-.5Z" fill="#fff"/><path d="M6.5 22c.28 0 .5.22.5.5v4.27l9.28-4.54a.5.5 0 1 1 .44.9l-9.08 4.44 9.08 4.48a.5.5 0 0 1-.44.9L7 28.38v4.12a.5.5 0 1 1-1 0v-10c0-.28.22-.5.5-.5ZM32.54 22.05c.25.13.35.44.22.69l-4.9 9.87a.7.7 0 0 1-1.25 0l-4.97-9.87a.51.51 0 0 1 .22-.68.5.5 0 0 1 .67.22l4.7 9.33 4.64-9.33a.5.5 0 0 1 .67-.23ZM38.5 22c.28 0 .5.23.5.5V27h9v-4.5a.5.5 0 0 1 1 0v10a.5.5 0 1 1-1 0V28h-9v4.5a.5.5 0 1 1-1 0v-10c0-.27.22-.5.5-.5Z" fill="#fff"/></svg>