<!-- by TradingView --><svg xmlns="http://www.w3.org/2000/svg" width="56" height="56" viewBox="0 0 56 56"><path d="M56 0H0v56h56V0Z" fill="url(#avq12qi2m)"/><path d="M41 27h-2v-2h2c1 0 1 .5 1 1s0 1-1 1Zm-3 4h1v-3h2l1 3h1l-.75-2.26-.07-.2L42 28c.5 0 1-.5 1-2 0-2.04-.8-2.03-3.79-2H38v7Zm-17 0h1v-5l2 5 1 .01 1-2.5L27 26v5l1 .01V24h-1l-2.5 6-2.5-6h-1v7Zm28-3-.5-3h-1l-.5 3h2Zm-3 3h-1l2-7h2l2 7h-1l-.84-2H46.8L46 31Zm-15 0h5v-1h-4v-2h3v-1h-3v-2h4v-1h-5v7Zm-14.95 0v-2L14 24h1l1.37 3.5h.31L18 24h1l-1 2.5-.97 2.5c-.04.34-.03.77-.03 1.38V31h-.95Z" fill="#fff"/><path d="M5 25H4v-3a9.51 9.51 0 0 0 .48 0L5 25Zm1 6h.49l.12-.7c.22-1.22.24-1.35.39-2.3h2l2 3h1l-2.25-3.5c1.13-1.75 1.13-1.76 1.13-1.77L12 24h-1l-2 3H7l-.36-2.18-.08-.52-.04-.17L6.5 24H6v7Zm-2 2h.5l.13-.75L5 30H4v3Z" fill="#F48F21"/><defs><linearGradient id="avq12qi2m" x1="10.42" y1="9.71" x2="68.15" y2="76.02" gradientUnits="userSpaceOnUse"><stop stop-color="#1A1E21"/><stop offset="1" stop-color="#06060A"/></linearGradient></defs></svg>