<!-- by TradingView --><svg width="56" height="56" viewBox="0 0 56 56" xmlns="http://www.w3.org/2000/svg"><path fill="#F0F3FA" d="M0 0h56v56H0z"/><path d="M15 28a2 2 0 1 1-4 0 2 2 0 0 1 4 0Zm30 0a2 2 0 1 1-4 0 2 2 0 0 1 4 0Zm-29.13 4.3a2 2 0 1 1-3.74 1.4 2 2 0 0 1 3.74-1.4Zm28-10a2 2 0 1 1-3.74 1.4 2 2 0 0 1 3.74-1.4ZM18.54 36.72a2 2 0 1 1-3.08 2.56 2 2 0 0 1 3.08-2.56Zm23-20a2 2 0 1 1-3.08 2.56 2 2 0 0 1 3.08-2.56ZM22 39.26a2 2 0 1 1-2 3.48 2 2 0 0 1 2-3.48Zm15-26a2 2 0 1 1-2 3.48 2 2 0 0 1 2-3.48ZM26.33 41.03a2 2 0 1 1-.66 3.94 2 2 0 0 1 .66-3.94Zm5-30a2 2 0 1 1-.66 3.94 2 2 0 0 1 .66-3.94Zm-.68 30a2 2 0 1 1 .7 3.94 2 2 0 0 1-.7-3.94Zm-5-30a2 2 0 1 1 .7 3.94 2 2 0 0 1-.7-3.94ZM34 39.27a2 2 0 1 1 2 3.46 2 2 0 0 1-2-3.46Zm-14-27a2 2 0 1 1 2 3.46 2 2 0 0 1-2-3.46Zm18.47 24.44a2 2 0 1 1 3.06 2.58 2 2 0 0 1-3.06-2.58Zm-24-20a2 2 0 1 1 3.06 2.58 2 2 0 0 1-3.06-2.58Zm25.65 15.62a2 2 0 1 1 3.76 1.34 2 2 0 0 1-3.76-1.34Zm-28-10a2 2 0 1 1 3.76 1.34 2 2 0 0 1-3.76-1.34ZM31 28a3 3 0 1 1-6 0 3 3 0 0 1 6 0Z" fill="#51BEE9"/><path d="M29 19.5a1.5 1.5 0 1 1-3 0 1.5 1.5 0 0 1 3 0Zm1 17a1.5 1.5 0 1 1-3 0 1.5 1.5 0 0 1 3 0Zm6.5-7.5a1.5 1.5 0 1 1 0-3 1.5 1.5 0 0 1 0 3Zm-17 0a1.5 1.5 0 1 1 0-3 1.5 1.5 0 0 1 0 3Zm16.75-4.2a1.5 1.5 0 1 1-1.5-2.6 1.5 1.5 0 0 1 1.5 2.6Zm-15 9a1.5 1.5 0 1 1-1.5-2.6 1.5 1.5 0 0 1 1.5 2.6Zm3.55-14.05a1.5 1.5 0 1 1-2.6 1.5 1.5 1.5 0 0 1 2.6-1.5Zm9 15a1.5 1.5 0 1 1-2.6 1.5 1.5 1.5 0 0 1 2.6-1.5Zm-2.6-15a1.5 1.5 0 1 0 2.6 1.5 1.5 1.5 0 0 0-2.6-1.5Zm-9 15a1.5 1.5 0 1 0 2.6 1.5 1.5 1.5 0 0 0-2.6-1.5Zm-.95-12.55a1.5 1.5 0 1 1-1.5 2.6 1.5 1.5 0 0 1 1.5-2.6Zm15 9a1.5 1.5 0 1 1-1.5 2.6 1.5 1.5 0 0 1 1.5-2.6Z" fill="#F15351"/></svg>