<!-- by TradingView --><svg width="56" height="56" viewBox="0 0 56 56" xmlns="http://www.w3.org/2000/svg"><path fill="#F0F3FA" d="M0 0h56v56H0z"/><path d="M15 30.8v4.83c0 1.21.62 2.34 1.62 2.95l5.35 3.24 5.41-3.5L15 30.8Z" fill="url(#asuquwbxs)"/><path d="M41 35.6v-4.96l-13.01-7.88-4.92 3.18 13.11 7.74-8.08 4.86-5.57 3.62 4.04 2.45c.87.52 1.93.52 2.8 0l10-6.06A3.43 3.43 0 0 0 41 35.6Z" fill="url(#bsuquwbxs)"/><path d="M27.96 20.8h.02l5.44-3.52L27.98 14 15 21.86v6.98l12.94 7.87 5-3L19.9 26l8.06-5.22Z" fill="url(#csuquwbxs)"/><path d="m33.98 17.61-5.44 3.53L41 28.69v-6.86l-7.02-4.22Z" fill="url(#dsuquwbxs)"/><path d="m31 14 10 6.03V16.1a2.1 2.1 0 0 0-2.05-2.1H31Z" fill="url(#esuquwbxs)"/><path d="M24.96 14 15 20.03V16.1c0-1.16.9-2.1 2-2.1h7.96Z" fill="url(#fsuquwbxs)"/><defs><linearGradient id="asuquwbxs" x1="7.66" y1="22.9" x2="30.46" y2="45.49" gradientUnits="userSpaceOnUse"><stop offset=".33" stop-color="#6565F1"/><stop offset=".66" stop-color="#4686F0"/><stop offset="1" stop-color="#339AF0"/></linearGradient><linearGradient id="bsuquwbxs" x1="13.75" y1="16.75" x2="36.55" y2="39.35" gradientUnits="userSpaceOnUse"><stop offset=".33" stop-color="#6565F1"/><stop offset=".66" stop-color="#4686F0"/><stop offset="1" stop-color="#339AF0"/></linearGradient><linearGradient id="csuquwbxs" x1="16.18" y1="14.3" x2="38.98" y2="36.89" gradientUnits="userSpaceOnUse"><stop offset="0" stop-color="#7950F2"/><stop offset=".33" stop-color="#6565F1"/><stop offset=".66" stop-color="#4686F0"/><stop offset="1" stop-color="#339AF0"/></linearGradient><linearGradient id="dsuquwbxs" x1="22.41" y1="8.01" x2="45.21" y2="30.6" gradientUnits="userSpaceOnUse"><stop offset=".33" stop-color="#6565F1"/><stop offset=".66" stop-color="#4686F0"/><stop offset="1" stop-color="#339AF0"/></linearGradient><linearGradient id="esuquwbxs" x1="26.31" y1="4.08" x2="49.11" y2="26.67" gradientUnits="userSpaceOnUse"><stop offset=".33" stop-color="#6565F1"/><stop offset=".66" stop-color="#4686F0"/></linearGradient><linearGradient id="fsuquwbxs" x1="16.86" y1="13.61" x2="39.66" y2="36.21" gradientUnits="userSpaceOnUse"><stop offset="0" stop-color="#7950F2"/><stop offset=".33" stop-color="#6565F1"/></linearGradient></defs></svg>