<!-- by TradingView --><svg xmlns="http://www.w3.org/2000/svg" width="56" height="56"><path fill="#009D50" d="M0 0h56v56H0z"/><path d="M39 42.4a2.7 2.7 0 01-.73 1.84 2.5 2.5 0 01-1.77.76H25.8c-.1-1.89.11-3.77.63-5.58.48-1.7 2.15-2.28 3.72-2.57l.17-.03c.92-.18 1.81-.34 2.66-.78 1.1-.58 1.6-1.86 1.68-3.1a41 41 0 01-3.69 1.16c-1.98.55-3.5 2.11-4.4 4-.1-2.2 1.4-3.98 3.23-4.88.78-.38 1.57-.63 2.36-.89.95-.3 1.91-.6 2.85-1.15a5.57 5.57 0 002.34-2.76c.57-1.36.87-3.17-.1-4.43a4.96 4.96 0 01-2.17 1.98l-1.22.46c-2.24.83-4.52 1.68-5.95 3.76-.24-.87.35-1.62.88-2.19a9.36 9.36 0 013.33-2.06c.62-.27 1.25-.55 1.86-.9 1.18-.68 2.17-1.61 2.44-2.97.19-.92-.08-2.28-1-2.61-.52 1.6-2.1 2.14-3.62 2.64-.49.17-.97.33-1.4.52-.6.27-1.05.71-1.45 1.23-.07-1.72 1.43-2.34 2.84-2.93.42-.18.84-.35 1.2-.55.52-.29.98-.62 1.18-1.19 0-.04.02-.08.04-.12.06-.17.13-.35.1-.54-.09-.8-.19-1.62-.75-2.22a4.3 4.3 0 01-1.48.55c-.11.02-.24.04-.32-.1l.05-.02c.26-.12.53-.24.63-.53.14-.41-.03-.8-.18-1.17l-.02-.05a13.7 13.7 0 00-1.63-3l-.55.37c-.9.61-1.8 1.21-2.48 2.14-.28.38-.32 1.09.2 1.36-.58.14-1.1-.46-1.46-.9-1.4.45-1.83 2.5-1 3.63.32.44.76.86 1.21 1.28 1.14 1.07 2.31 2.16 1.55 3.83-.13-.18-.15-.4-.16-.62-.02-.22-.04-.44-.18-.63-.45-.62-1.04-1.04-1.63-1.46a5.72 5.72 0 01-1.92-1.92c-.36-.68-.51-1.35-.67-2.05l-.07-.33c-1.26 1.08-2 2.9-1.25 4.55a10.26 10.26 0 001.9 2.7l.33.35c1.15 1.25 2.3 2.49 2.68 4.17.12.5.02 1.07-.22 1.57-.38-1.61-.92-3.2-2.24-4.3-1.9-1.62-3.54-3.39-4.2-5.79-.54.14-.78.69-1 1.2-.06.14-.12.28-.19.4a5.94 5.94 0 00-.42 3.92c.17.86.5 1.63.98 2.37.62.97 1.3 1.8 2.2 2.5 1.43 1.08 2.74 2.22 3.4 3.93.2.51.34 1.04.35 1.57 0 .7-.14 1.39-.42 2.02a8.15 8.15 0 00-1.61-4.58c-.5-.6-1.1-1.04-1.7-1.48a11.2 11.2 0 01-1.38-1.1c-.2-.2-.35-.4-.5-.61-.2-.26-.4-.52-.64-.73l-.02.62c-.04 1.18-.08 2.42.61 3.38.5.7 1.2 1.15 1.89 1.6.6.4 1.21.8 1.71 1.37.7.8 1.2 1.71 1.45 2.74.04.21-.05.42-.18.6l-.23-.46a8.63 8.63 0 00-1.8-2.7 7.95 7.95 0 00-3.16-1.6 4.23 4.23 0 002.35 3.44c.28.14.58.25.87.37.75.28 1.5.57 1.94 1.32l-.08.77c-.15 1.4-.3 2.81-.27 4.2h1.2V45h-6.3c-.66 0-1.3-.27-1.77-.76A2.66 2.66 0 0117 42.4V13.6a2.7 2.7 0 01.73-1.84A2.5 2.5 0 0119.5 11h17a2.4 2.4 0 011.77.76A2.6 2.6 0 0139 13.6v28.8zm-7.52-.78c-.71-.62-1.43-1.25-2.34-1.6a5.12 5.12 0 00-2.33-.27c-.06 0-.11.1-.08.1.27.07.52.18.68.35 1.45 1.61 3.36 3.64 5.61 2.63a11.6 11.6 0 01-1.54-1.2z" fill="#fff"/></svg>