<!-- by TradingView --><svg width="56" height="56" xmlns="http://www.w3.org/2000/svg"><path fill="#DA7C33" d="M0 0h56v56H0z"/><path d="M14 26.5V16h3v10.5C17 31.829 20.897 39 28.077 39H41v3H28.077C21.974 42 14 36.638 14 26.5z" fill="#fff"/><path d="M18 26.5C18 19.863 22.45 15 29.5 15S41 19.633 41 26h-3c0-4.645-3.5-8-8.5-8S21 21.526 21 26.5c0 4.143 3 8.5 7 8.5h13v3H28.077C22.5 38 18 32.084 18 26.5z" fill="#fff"/><path d="M41 34H28.077C24.544 34 22 29.75 22 26.5c0-4.037 3-7.5 7.5-7.5 5.668 0 7.5 4.513 7.5 7h-3c0-2.842-2.346-4-4.5-4S25 23.658 25 26.5s2 4.5 3.077 4.5H41v3z" fill="#fff"/></svg>