<!-- by TradingView --><svg width="56" height="56" viewBox="0 0 56 56" xmlns="http://www.w3.org/2000/svg"><path fill="#F0F3FA" d="M0 0h56v56H0z"/><path d="M27.16 30H12l3.8-8h7.5l-1.79 4h7.66l-2.01 4Zm-3.4-9h-7.49l.48-1h7.45l-.44 1Zm.9-2h-7.44l.48-1h7.4l-.45 1Zm.89-2h-7.38l2.85-6h7.22l-2.7 6Z" fill="#ED1C24"/><path d="m26.78 31 2.26-5H41.8c.74-.03 2.2.63 2.2 3.48 0 .53-.06 1.04-.15 1.52h-6.52c.26-1.5-.2-1.77-1.07-1.77-.78 0-1.3.2-2.16 1.77h-7.32Zm-.45 1-.46 1h7.29l.1-.23.35-.77h-7.28Zm10.78 0c-.12.42-.3.74-.53 1h6.6c.14-.31.28-.65.4-1H37.1Zm5.53 2h-8.5l-.56 1h8.36c.2-.26.45-.6.7-1Zm-10.36 1 .44-1h-7.3l-.45 1h7.31Zm-7.76 1h7.32a219.28 219.28 0 0 1-4.12 9h-7.28l4.08-9Z" fill="#404041"/></svg>