<!-- by TradingView --><svg width="56" height="56" viewBox="0 0 56 56" xmlns="http://www.w3.org/2000/svg"><path fill="#F0F3FA" d="M0 0h56v56H0z"/><path d="M4 23h2.7v.27l-.4.06c-.39.02-.3.43-.3.72v4.82c0 .4.01.66.46.67h.65c.22 0 .62-.05.8-.16.18-.1.32-.27.4-.46.09-.15.15-.32.18-.5a1.3 1.3 0 0 1 .6-.9c.33-.22.7-.38 1.1-.48.27-.08.51-.1.8-.14a.12.12 0 0 0 .01-.1V26c-.01-.49-.32-.8-.84-.77a.96.96 0 0 0-.38.11.53.53 0 0 0-.25.24.5.5 0 0 0-.05.34c.02.11.02.23-.01.35a.38.38 0 0 1-.08.16.4.4 0 0 1-.34.14.42.42 0 0 1-.17-.05.31.31 0 0 1-.12-.1.3.3 0 0 1-.04-.16.97.97 0 0 1 .31-.8c.23-.24.53-.4.86-.46.36-.09.73-.07 1.08.04.84.25 1.03 1.04 1.03 1.8v2c0 .27-.07.96.4.8h.06l.06-.01c.02.09.02.18.01.27a2.1 2.1 0 0 1-.78.05.63.63 0 0 1-.27-.1.6.6 0 0 1-.2-.23 1.3 1.3 0 0 1-.12-.4c0-.03 0-.06-.02-.09-.03.02-.04.05-.05.07-.08.13-.16.25-.25.36-.13.16-.3.28-.5.36-.2.07-.4.1-.62.07a1.32 1.32 0 0 1-1.06-.58l-.07.47c-.05.03-.09.12-.13.12H4v-.4c.18 0 .53-.01.7-.06a.34.34 0 0 0 .16-.1c.05-.04.08-.1.09-.15.03-.15.06-.3.05-.44v-4.8c0-.27 0-.64-.34-.7-.16-.05-.5-.07-.66-.07V23Zm7 4.14c-.33.06-.62.15-.91.3-.62.3-.78.76-.7 1.37 0 .12.05.24.1.34a.63.63 0 0 0 .4.33c.18.06.37.05.55-.01a.78.78 0 0 0 .4-.34c.19-.33.16-1.36.16-1.99Zm15.67 2.58c0 .07.01.2 0 .28H24.6v-.26c.04-.03.08-.02.12-.03.34-.02.28-.22.28-.53v-2.6c0-.54.01-1.08-.65-1.02-.42.04-.76.3-.83.73l-.03.42a2458.14 2458.14 0 0 0 .02 2.7.34.34 0 0 0 .27.28l.29.04V30H22.1c-.03-.04-.02-.14-.02-.17v-.09c.04-.03.08-.02.12-.03.05 0 .1 0 .14-.02a.35.35 0 0 0 .22-.11.34.34 0 0 0 .09-.23v-.16a3948.94 3948.94 0 0 0-.02-3.01c-.07-.57-.75-.7-1.14-.6-.17.05-.16.15-.28.29a.85.85 0 0 0-.19.48l-.02.42a869.02 869.02 0 0 1 .02 2.63.34.34 0 0 0 .27.29c.1.02.03.02.13.04V30h-3.64a2.2 2.2 0 0 1 0-.33l.3-.05a.76.76 0 0 0 .22-.07.22.22 0 0 0 .08-.25c-.06-.3-.14-.6-.24-.9l-.12-.4H15.9l-.24.73-.15.48a.54.54 0 0 0-.01.13c-.01.06 0 .12.04.16.03.05.09.09.14.1.14.03.28.06.43.07V30H13.8c-.59-.11-.82-.84-.8-1.4v-3.06h-.45l-.01-.3c.03-.04.06-.03.09-.03a.96.96 0 0 0 .67-.41c.18-.27.3-.57.36-.9l.04-.18h.3v1.44h.99v.37h-.96a.06.06 0 0 0-.03.06v3.28c0 .43.17.8.66.69a.75.75 0 0 0 .52-.48l.3-.81A8528.4 8528.4 0 0 0 17.34 23l.26.8 1.65 5.2c.05.16.27.66.4.66.25.01.3.02.3-.24.02-.1.04-.2.04-.3v-3.37c0-.14-.06-.2-.2-.23-.08-.02-.01-.02-.1-.02h-.18a.56.56 0 0 1 0-.2l.63-.12c.22-.04.44-.1.64-.18.06.27.1.54.12.81.03 0 .04-.04.06-.06.1-.17.24-.31.4-.44.18-.14.49-.23.73-.23.16-.02.31 0 .47.03a1.02 1.02 0 0 1 .65.49l.13.24.17-.23c.33-.46.9-.6 1.44-.52a1.13 1.13 0 0 1 .78.42c.14.2.22.44.24.68.02.18.02.36.02.54a2322.83 2322.83 0 0 0 .02 2.66.3.3 0 0 0 .24.27c.14.03.27.05.41.06Zm-8.75-2.08-.87-2.96c-.35 1-.7 1.98-1.03 2.96.13.02 1.8.01 1.9 0Z" fill="#F72509"/><path d="M49 25.6c.12-.12.13-.24.27-.34.22-.15.48-.24.75-.25a1.44 1.44 0 0 1 1.23.51c.13.16.22.36.25.56.04.18.05.36.05.54v2.6l.03.25c.05.28.19.3.42.3V30h-1.92a.78.78 0 0 1 0-.2c.04-.03.1-.04.15-.04a.44.44 0 0 0 .3-.1.37.37 0 0 0 .12-.3c.04-.5.02-1.12.03-1.63v-.86c0-.24-.02-.47-.05-.7a.9.9 0 0 0-.2-.47.65.65 0 0 0-.43-.21 1 1 0 0 0-.37.01c-.54.12-.65.6-.63 1.12v2.64c0 .29.05.47.3.5.05.01.11 0 .16.04v.2h-2.84c-.56-.01-.97-.3-1.08-.91a5.07 5.07 0 0 1-.04-1.23c.02-.43 0-.86.02-1.28l.02-1.08v-.13a1.5 1.5 0 0 0-.46.03.44.44 0 0 0-.19.1.4.4 0 0 0-.1.18c-.12.34-.23.78-.34 1.13l-.37 1.18c-.21.65-.43 1.3-.6 1.97l-.02.02a.58.58 0 0 1-.25 0l-1.12-3.62h-.03c-.4 1.2-.85 2.4-1.21 3.62a.59.59 0 0 1-.25.01l-.1-.3c-.14-.52-.31-1.05-.48-1.57-.18-.58-.35-1.15-.54-1.72-.08-.26-.16-.63-.26-.9a.44.44 0 0 0-.17-.2.49.49 0 0 0-.27-.1.44.44 0 0 1-.16-.03V25h2.05c.02.06.03.1.02.16-.06.05-.13.04-.2.04-.12.02-.26.03-.34.15-.02.1 0 .31.04.41l.59 1.93.25.78L42.21 25h.27l1.13 3.5c.05-.12.1-.26.13-.39l.5-1.63.24-.9a.91.91 0 0 0 .02-.23c-.12-.18-.34-.1-.5-.17a.47.47 0 0 1 0-.18c.36 0 .72.04 1.08-.03.2-.04.4-.14.56-.28.15-.13.27-.2.34-.4.08-.2.13-.42.17-.64h.28V25h1.08c.01.12.02.25.01.37h-1.06a.1.1 0 0 0-.03.04v3.47a.73.73 0 0 0 .28.6c.12.1.28.17.45.16.2 0 .83-.3.83-.53V29a26413.83 26413.83 0 0 1-.02-5.22.3.3 0 0 0-.09-.19.33.33 0 0 0-.2-.09 3.54 3.54 0 0 0-.37-.02.39.39 0 0 1-.01-.2c.53-.05 1.18-.15 1.7-.29v2.6Zm-17.68-1.98.37-.61a.45.45 0 0 1 .18 0v2.07a.93.93 0 0 1-.23.01c-.05-.12-.07-.25-.11-.37-.1-.36-.3-.69-.56-.96a1.56 1.56 0 0 0-1.07-.42c-.28-.02-.57.04-.82.17-.26.15-.47.36-.61.61-.2.34-.32.71-.38 1.1a7.8 7.8 0 0 0 .2 3.31 2 2 0 0 0 .46.75c.2.2.46.34.75.38.39.06.78.02 1.14-.12l.3-.13c.01-.03.07-.1.06-.13v-1.54c.01-.26-.09-.38-.33-.43a3.5 3.5 0 0 0-.33-.03.9.9 0 0 1-.01-.28h2.28c.02.09.02.19 0 .27-.09.03-.18.01-.28.04-.18.04-.36.12-.33.36v1.57c-.13.1-.3.18-.46.26a3.98 3.98 0 0 1-1.6.49c-.3.03-.61 0-.91-.08a2.28 2.28 0 0 1-1.18-.73 3.42 3.42 0 0 1-.75-1.66 5.5 5.5 0 0 1-.09-1.35c.01-.67.2-1.33.53-1.92.17-.32.42-.6.73-.8.31-.21.67-.35 1.05-.4a2.4 2.4 0 0 1 1.93.52l.07.05Z" fill="#9E9E9E"/><path d="M37.54 25a1.81 1.81 0 0 1 1.42.71c.24.33.4.7.47 1.08.05.25.07.5.07.76 0 .54-.14 1.06-.42 1.53-.12.2-.28.39-.47.54-.2.14-.43.25-.67.32a1.78 1.78 0 0 1-1.51-.28 2.17 2.17 0 0 1-.82-1.26c-.06-.25-.1-.5-.1-.76-.03-.44.04-.88.2-1.3.12-.33.32-.63.6-.87a1.8 1.8 0 0 1 1.23-.47Zm1.02 2.56-.02-.4c0-.27-.03-.53-.08-.79a2 2 0 0 0-.27-.73.72.72 0 0 0-.2-.22.8.8 0 0 0-.57-.15.82.82 0 0 0-.62.4c-.22.41-.34.86-.34 1.31a6.27 6.27 0 0 0 .07 1.65c.04.27.14.53.3.76.06.1.14.17.24.23a.82.82 0 0 0 .68.07c.11-.04.22-.1.3-.18.16-.17.28-.37.34-.59.12-.45.17-.9.17-1.36Zm-4 2.21V30H32.3a.15.15 0 0 1-.02-.11v-.1c.1-.03.2-.02.29-.04l.2-.05c.05-.02.1-.06.13-.1.03-.05.05-.1.06-.16.02-.14.03-.3.03-.44v-3.05c0-.1-.02-.18-.04-.27-.01-.14-.12-.21-.3-.22-.06 0-.12 0-.18-.02-.06-.01-.12 0-.19-.02a.56.56 0 0 1 0-.18c.46-.03.9-.11 1.34-.24.06.3.1.59.11.89.04-.05.08-.1.1-.16.11-.22.28-.41.5-.55a.98.98 0 0 1 1.04-.02.84.84 0 0 1 .32 1.01.37.37 0 0 1-.14.16.4.4 0 0 1-.22.06c-.08 0-.15 0-.21-.04a.4.4 0 0 1-.16-.14.4.4 0 0 1-.03-.33.66.66 0 0 0 .01-.2.2.2 0 0 0-.06-.14.23.23 0 0 0-.15-.06.6.6 0 0 0-.3.04c-.1.04-.17.1-.23.18-.23.3-.23 1.24-.21 1.7v2.04c.04.31.3.34.56.33Z" fill="#9E9E9E"/></svg>