<!-- by TradingView --><svg width="56" height="56" viewBox="0 0 56 56" xmlns="http://www.w3.org/2000/svg"><path fill="#F0F3FA" d="M0 0h56v56H0z"/><path d="M8 34.08c1.3-.2 5.4-2.22 11.32-8.71C22.28 22.15 29.75 16 37.82 16c5.74 0 8.35 2.77 9.18 4.5-.83-.54-2.79-1.5-4.33-1.5S35 20.95 35 26.8c0 4.48 3.64 6.98 4.89 7.22 1 .2.41.8 0 1.08H10.25L8 34.08Zm27-7.98c-.46-1.03-2.23-3.1-5.7-3.1-4.34 0-8.43 2.52-11.05 5.15C15.65 30.78 11.85 34 10 34h19.75A4.56 4.56 0 0 1 27 29.85C27 26.8 30.47 25 32.37 25c1.52 0 2.33.79 2.63 1.1Z" fill="#09D"/><path d="M17.7 31.2A21.96 21.96 0 0 1 14 34h9.05c-.33-.13-1.05-.61-1.05-1.74 0-1.4 1.72-2.26 2.52-2.26.64 0 1.25.24 1.48.35A3.68 3.68 0 0 0 23.05 29a8.56 8.56 0 0 0-5.36 2.2Z" fill="#55C0A1"/><path d="M5 35c0-.55.43-1 .97-1H50v2H5.97A.98.98 0 0 1 5 35Z" fill="#09D"/></svg>