<!-- by TradingView --><svg width="56" height="56" xmlns="http://www.w3.org/2000/svg"><path fill="#F0F3FA" d="M0 0h56v56H0z"/><path d="M5 20.487v4.516h3V24H6v-3.513H5zM9.597 21.227v-.74h-.899v.74h.899zm-.899.506v3.27h.899v-3.27h-.899zM12.72 23.37c0 .136-.015.267-.045.393s-.075.238-.139.335a.75.75 0 01-.24.234.661.661 0 01-.342.082.683.683 0 01-.341-.082.75.75 0 01-.24-.234 1.04 1.04 0 01-.14-.335 1.75 1.75 0 010-.79 1.04 1.04 0 01.14-.336.688.688 0 01.581-.316.689.689 0 01.582.316c.064.097.11.209.14.335.029.127.044.26.044.399zm-2.397-2.883v4.516h.854v-.418h.012c.097.181.24.31.43.386.19.076.405.114.645.114a1.244 1.244 0 00.917-.411c.131-.14.237-.316.317-.532.08-.219.12-.478.12-.777 0-.3-.04-.557-.12-.772a1.552 1.552 0 00-.317-.538 1.244 1.244 0 00-.917-.411c-.202 0-.398.04-.588.12a.942.942 0 00-.443.367h-.012v-1.644h-.898zM16.409 23h-1.461c.004-.063.017-.118.038-.198a.74.74 0 01.12-.228.69.69 0 01.228-.177.773.773 0 01.36-.076c.22 0 .382.059.487.177.11.118.186.274.228.502zm-1.461.586h2.36a2.309 2.309 0 00-.064-.727 1.749 1.749 0 00-.291-.62c-.13-.182-.3-.325-.506-.43a1.53 1.53 0 00-.727-.165c-.25 0-.477.045-.683.133-.203.089-.378.21-.525.367a1.57 1.57 0 00-.342.544c-.08.21-.12.438-.12.683 0 .253.038.485.114.696.08.21.192.392.335.543.143.152.318.27.525.355.207.08.438.12.696.12.37 0 .687-.085.948-.253.262-.169.456-.44.582-.832h-.79c-.03.101-.11.189-.24.282a.815.815 0 01-.469.132c-.253 0-.447-.065-.582-.196-.135-.13-.208-.341-.221-.632zM17.859 21.733v3.27h.898v-1.474c0-.148.015-.285.044-.411a.899.899 0 01.146-.329.737.737 0 01.278-.228.957.957 0 01.417-.082c.055 0 .112.004.171.013.06.004.11.01.152.019v-.835a.703.703 0 00-.196-.032c-.114 0-.224.017-.33.05a1.143 1.143 0 00-.296.146 1.024 1.024 0 00-.247.222 1.054 1.054 0 00-.17.278h-.013v-.607h-.854zM21.474 21.733v-.98h-.898v.98h-.544v.6h.544v1.93c0 .164.028.297.082.398.055.101.13.18.222.234.097.055.206.09.329.108.297.05.49.05.787 0v-.696c-.138.027-.334.061-.446-.05-.05-.051-.076-.152-.076-.304v-1.62h.658v-.6h-.658zM24.191 25.407l1.366-3.674h-.93l-.714 2.239H23.9l-.74-2.24h-.955L23.35 24.8a.54.54 0 01.038.203c0 .097-.03.185-.089.265-.054.08-.14.127-.259.14-.16.007-.474 0-.474 0l-.23.74h.73c.307 0 .547-.058.72-.171.173-.114.308-.304.405-.57z" fill="#929292"/><path d="M8.212 33H5.007v-6h3.106c.51 0 .904.176 1.183.482.28.299.42.655.42 1.068 0 .36-.09.661-.272.907a1.136 1.136 0 01-.665.467c.296.047.542.212.74.493.202.276.303.599.303.97 0 .46-.14.847-.419 1.158-.28.311-.676.455-1.191.455zm-.42-3.678a.46.46 0 00.346-.135.506.506 0 00.14-.368.465.465 0 00-.14-.35.446.446 0 00-.345-.143H6.42v.996h1.373zm.05 2.388c.17 0 .301-.048.394-.143a.544.544 0 00.148-.396.532.532 0 00-.148-.386.508.508 0 00-.394-.152H6.42v1.077h1.422zM14.84 33h-1.618l-.92-2h-.724v2h-1.413v-6h2.745c.591 0 1.057.212 1.397.59.34.376.51.852.51 1.427 0 .479-.11.87-.33 1.176-.213.3-.468.506-.764.62L14.841 33zm-2.144-3.346a.715.715 0 00.485-.17c.131-.114.197-.273.197-.476a.585.585 0 00-.197-.467.715.715 0 00-.485-.17h-1.118v1.283h1.118zM19.92 32.249c-.553.58-1.251.87-2.095.87-.844 0-1.545-.29-2.104-.87-.553-.58-.83-1.323-.83-2.227 0-.903.277-1.646.83-2.226.559-.58 1.26-.871 2.104-.871.844 0 1.542.29 2.095.87.554.581.83 1.324.83 2.227 0 .904-.276 1.646-.83 2.227zm-2.095-.494c.444 0 .803-.165 1.076-.494.274-.329.411-.742.411-1.239 0-.496-.137-.91-.41-1.239a1.333 1.333 0 00-1.077-.493c-.45 0-.81.164-1.085.493-.274.33-.41.743-.41 1.24 0 .496.136.909.41 1.238.274.33.636.494 1.085.494zM26.095 33h-1.602l-.344-1h-1.99l-.37 1h-1.602l2.062-6h1.775l2.071 6zm-2.26-2.315l-.698-2.135-.699 2.135h1.397z" fill="#2F4F85"/><path d="M28.308 33H26v-6H28.3c.877 0 1.589.293 2.137.832.553.538.83 1.266.83 2.181 0 .916-.277 1.646-.83 2.19-.548.54-1.258.797-2.129.797zm-.008-1.335c.466 0 .836-.158 1.11-.476.273-.323.41-.715.41-1.176 0-.485-.131-.88-.394-1.185-.263-.305-.635-.458-1.118-.458h-.895v3.295h.887zM34.821 33h-3.205v-6h3.106c.51 0 .904.176 1.184.482.28.299.419.655.419 1.068 0 .36-.09.661-.271.907a1.136 1.136 0 01-.666.467c.296.047.542.212.74.493.202.276.304.599.304.97 0 .46-.14.847-.42 1.158-.279.311-.676.455-1.191.455zm-.42-3.678a.46.46 0 00.346-.135.506.506 0 00.14-.368.465.465 0 00-.14-.35.446.446 0 00-.345-.143H33v.996h1.402zm.05 2.388c.17 0 .301-.048.395-.143a.544.544 0 00.148-.396.532.532 0 00-.148-.386.508.508 0 00-.395-.152H33v1.077h1.451zM42.1 33h-1.603l-.35-1H38.16l-.368 1h-1.602l2.062-6h1.775l2.071 6zm-2.26-2.197l-.7-2.253-.698 2.253h1.397z" fill="#2F4F85"/><path d="M47 33h-1.336l-2.255-3.453V33h-1.414v-6h1.455l2.156 3.319V27H47v6zM50.042 33h-2.31v-6h2.301c.877 0 1.59.293 2.137.832.553.538.83 1.266.83 2.181 0 .916-.277 1.646-.83 2.19-.548.54-1.257.797-2.128.797zm-.009-1.335c.466 0 .836-.158 1.11-.476.274-.323.41-.715.41-1.176 0-.485-.13-.88-.394-1.185-.263-.305-.635-.458-1.117-.458H49v3.295h1.033z" fill="#2F4F85"/><path d="M5 33.998h47l-2 1H5v-1zM25.354 24H50l2 1H25l.354-1z" fill="#929292"/></svg>