<!-- by TradingView --><svg width="56" height="56" viewBox="0 0 56 56" xmlns="http://www.w3.org/2000/svg"><path fill="#F0F3FA" d="M0 0h56v56H0z"/><path d="M19.36 13.36c-1.02 2.15-2.1 6-.67 9.81l9.46-5.33A15.71 15.71 0 0 1 38.2 14.4 16.92 16.92 0 0 0 28 11c-3.15 0-6.1.86-8.64 2.36Z" fill="url(#ayee4f5u3)"/><path d="M11.09 26.29c1.94 7.47 6.11 9.64 7.91 9.7v-12.7c-1-5.36-.13-9.02.56-10.03h-.04A17 17 0 0 0 11.1 26.3Z" fill="url(#byee4f5u3)"/><path d="M11.1 26.08a16.98 16.98 0 0 0 7.22 15.9c2.37.13 6.5-.96 10.98-5.98H19v-.12h-.45c-1.76-.45-5.5-3.55-7.44-9.8Z" fill="url(#cyee4f5u3)"/><path d="M34.12 43.86a16.96 16.96 0 0 1-15.84-1.91c2.99-.55 8.06-2.12 10.6-5.95H37v-.55h.13c.38 1.58.05 5.25-3 8.41Z" fill="url(#dyee4f5u3)"/><path d="M44.98 27.26A29.81 29.81 0 0 0 37 22.92V36h-.12c-.4 3.51-1.72 6.62-2.67 7.83a17 17 0 0 0 10.77-16.57Z" fill="url(#eyee4f5u3)"/><path d="M38.23 14.42c-4.25-.36-8.18 1.78-10.31 3.57l.17-.1 5.78 3.42 11.11 5.92a16.98 16.98 0 0 0-6.75-12.8Z" fill="url(#fyee4f5u3)"/><defs><linearGradient id="ayee4f5u3" x1="19.07" y1="19.8" x2="35.22" y2="13.85" gradientUnits="userSpaceOnUse"><stop stop-color="#FFC327"/><stop offset=".49" stop-color="#FEC93F"/><stop offset="1" stop-color="#FDE395"/></linearGradient><linearGradient id="byee4f5u3" x1="15.32" y1="13.26" x2="15.32" y2="35.99" gradientUnits="userSpaceOnUse"><stop stop-color="#FFB78A"/><stop offset=".51" stop-color="#FE7638"/><stop offset="1" stop-color="#FF6124"/></linearGradient><linearGradient id="cyee4f5u3" x1="11.9" y1="31.09" x2="26.8" y2="37.85" gradientUnits="userSpaceOnUse"><stop stop-color="#BF2D33"/><stop offset=".5" stop-color="#C23C3D"/><stop offset="1" stop-color="#D36B5E"/></linearGradient><linearGradient id="dyee4f5u3" x1="36.68" y1="35.45" x2="20.28" y2="42.15" gradientUnits="userSpaceOnUse"><stop stop-color="#FCE69C"/><stop offset=".41" stop-color="#FFC736"/><stop offset="1" stop-color="#FFC423"/></linearGradient><linearGradient id="eyee4f5u3" x1="39.61" y1="22.92" x2="39.61" y2="43.83" gradientUnits="userSpaceOnUse"><stop stop-color="#FFB387"/><stop offset=".44" stop-color="#FF7133"/><stop offset="1" stop-color="#F56621"/></linearGradient><linearGradient id="fyee4f5u3" x1="31.5" y1="17.11" x2="44.32" y2="25.59" gradientUnits="userSpaceOnUse"><stop stop-color="#BF2C3C"/><stop offset=".47" stop-color="#C43C3E"/><stop offset="1" stop-color="#D3675F"/></linearGradient></defs></svg>