<!-- by TradingView --><svg width="56" height="56" viewBox="0 0 56 56" xmlns="http://www.w3.org/2000/svg"><path fill="#F0F3FA" d="M0 0h56v56H0z"/><path d="M19.2 28h-4.55c-.58 0-1.04-.47-1.04-1.04v-2.92c0-.57.46-1.04 1.04-1.04h4.54c.58 0 1.04.47 1.04 1.04v.94c0 .58-.46 1.02-1.04 1.02h-4.6v.63c0 .2.16.37.36.37h3.95c.14 0 .27-.09.33-.23l.05-.1.91.59-.03.08c-.16.4-.54.66-.97.66Zm-4.62-3h4.32c.2 0 .36-.14.36-.35v-.28c0-.2-.16-.37-.36-.37h-3.95c-.2 0-.37.16-.37.37V25ZM25.58 37h-4.54c-.58 0-1.04-.47-1.04-1.04v-2.92c0-.57.46-1.04 1.04-1.04h4.54c.58 0 1.04.47 1.04 1.04v.94c0 .58-.46 1.02-1.04 1.02h-4.6v.63c0 .2.16.37.36.37h3.95c.14 0 .27-.09.33-.23l.05-.1.91.59-.03.08c-.16.4-.53.66-.97.66Zm-4.6-3h4.3c.2 0 .37-.14.37-.35v-.28c0-.2-.16-.37-.36-.37h-3.95c-.2 0-.37.16-.37.37V34ZM41.39 28h-4.35c-.58 0-1.04-.47-1.04-1.04V25.7c0-.58.46-1.04 1.04-1.04h4.4v-.29c0-.2-.15-.37-.35-.37h-3.75a.36.36 0 0 0-.34.23l-.05.1-.91-.59.03-.08c.15-.4.54-.66.97-.66h4.35c.57 0 1.03.47 1.03 1.04v2.92c0 .57-.46 1.04-1.03 1.04Zm-4.05-2.35c-.2 0-.34.17-.34.38v.6c0 .2.14.37.34.37h3.75c.2 0 .36-.16.36-.37v-.6c0-.2-.16-.38-.36-.38h-3.75ZM27.62 28h-5.58c-.57 0-1.04-.48-1.04-1.07v-2.98c0-.58.47-.95 1.04-.95h4.6v-2h.98v7Zm-5.28-4c-.2 0-.34.19-.34.4v2.2c0 .2.14.4.34.4h4.3v-2.6c0-.21-.15-.4-.35-.4h-3.95ZM35 28H29.4c-.57 0-1.03-.48-1.03-1.07v-2.98c0-.58.46-.95 1.03-.95h4.61v-2H35v7Zm-5.29-4c-.2 0-.33.19-.33.4v2.2c0 .2.13.4.33.4h4.31v-2.6c0-.21-.16-.4-.36-.4h-3.95ZM42 37h-1v-3.57c0-.2-.2-.43-.41-.43H36.4c-.21 0-.41.22-.41.43V37h-1v-6.41h1V32h4.9c.6 0 1.1.37 1.1.96V37ZM13 28H7.08C6.48 28 6 27.54 6 26.97V22h1v4.65c0 .2.19.35.4.35H13v1ZM44 28h-1v-3.96c0-.57.5-1.04 1.1-1.04h4.84c.45 0 .86.27 1.03.66l.03.08-.97.6-.05-.12a.39.39 0 0 0-.36-.22h-4.2c-.21 0-.42.16-.42.37V28ZM17 37h-1v-5h-2.63v-1h6.33v1H17v5ZM33.1 37h-4.54c-.57 0-1.04-.47-1.04-1.04v-2.92c0-.57.47-1.04 1.04-1.04h4.55c.43 0 .8.26.97.66l.03.08-.92.6-.05-.12a.36.36 0 0 0-.33-.22h-3.95c-.2 0-.36.16-.36.37v2.26c0 .2.16.37.36.37h3.95c.15 0 .28-.09.33-.22l.05-.12.92.6-.03.08c-.16.4-.54.66-.97.66Z"/></svg>