<!-- by TradingView --><svg xmlns="http://www.w3.org/2000/svg" width="56" height="56" viewBox="0 0 56 56"><path fill="#323F48" d="M0 0h56v56H0z"/><path d="M23.2 26.35c2.72-4.53 3.07-10.57 2.87-13.24a2 2 0 0 1 1.89-2.1c1.12-.08 2.1.73 2.18 1.81.23 3.05-.1 10-3.4 15.5-4.09 6.8-9.72 9.83-12.64 11.4l-.04.02c-.99.53-2.23.2-2.78-.76-.55-.94-.2-2.14.78-2.67 2.8-1.5 7.62-4.09 11.14-9.96z" fill="#FEE800"/><path d="M24.85 31.09c-3.8 4.9-8.26 7.3-10.75 8.63l-.04.02c-.99.53-2.23.2-2.78-.76a1.9 1.9 0 0 1 .07-2.03l2.96-1.83c1.54-1.1 5.77-3.5 10.54-4.03z" fill="#D7BE0A"/><path d="M27.47 35.46c-5.4 0-10.87 2.72-13.16 4.2-.92.61-2.31.37-2.94-.52a1.94 1.94 0 0 1 .49-2.75c2.61-1.7 9.05-4.82 15.61-4.82 8.13 0 13.65 3.15 16.5 4.78l.04.02a1.9 1.9 0 0 1 .7 2.67 2.08 2.08 0 0 1-2.78.68c-2.73-1.57-7.45-4.26-14.46-4.26z" fill="#BF569E"/><path d="M31.22 31.8c1.85 2 5.45 5.39 8.46 6.64 2.42 1 3.75-.45 4.39-2.03a2.22 2.22 0 0 0-.06-.04l-.04-.02a32.69 32.69 0 0 0-12.75-4.56z" fill="#96468D"/><path d="M28.13 25.53c.39.95.84 1.89 1.37 2.79 4.03 6.8 9.59 9.83 12.46 11.4l.05.02c.97.53 2.2.2 2.73-.76.55-.94.2-2.14-.77-2.67-2.75-1.5-7.5-4.09-10.98-9.96-1.95-3.3-2.66-7.4-2.83-10.4a29.68 29.68 0 0 1-2.03 9.58zm2.04-12.37v-.05A1.98 1.98 0 0 0 28.13 11c1.05.01 1.94.8 2.01 1.82l.03.34zm-4.07.67z" fill="#00A7D1"/><path d="M28.77 26.95c-.23-.47-.44-.94-.64-1.42a29.68 29.68 0 0 0 2.03-9.59c.02.38.05.77.1 1.18.05 2.91-.25 7.05-1.5 9.83z" fill="#1C8781"/></svg>