<!-- by TradingView --><svg xmlns="http://www.w3.org/2000/svg" width="56" height="56" viewBox="0 0 56 56"><path fill="#102F53" d="M0 0h56v56H0z"/><path fill-rule="evenodd" d="M9 19h2v7h3.52l2.3-7h2.67L22 26.48V19h2.6l2.4 5.03V19h2v9h-2l-3-6v6h-4l-.3-1h-3.02l-.27 1H9v-9zm8.22 6h1.92l-.99-3.45-.93 3.45zM30 19h3.83c1.75 0 3.17 1.67 3.17 3.74v1.52c0 2.07-1.42 3.74-3.17 3.74H30v-9zm2 2h1.64c.75 0 1.36.93 1.36 2.08v.84c0 1.15-.6 2.08-1.36 2.08H32v-5zm13 .5c0-.83-.69-2.5-3.47-2.5-3.47 0-3.53 2.22-3.53 2.64 0 .43.34 1.8 3.13 2.56.63.13 1.9.54 1.9 1.12 0 .73-.66.96-1.34.96s-1.38-.64-1.38-1.28H37.5c.19 1.05 1.28 3 4.19 3 3.63 0 3.81-2.31 3.81-3.16 0-.85-.6-1.79-2.79-2.56-.76-.12-2.27-.49-2.27-.98 0-.62.77-.68 1.1-.68.68 0 .99.5.99 1L45 21.5zm1-2.5v2h.98c0 .42-.65.88-.98 1.1l.5.9c1.22-.53 1.5-1.53 1.5-2v-2h-2zM9 38v-9h7v2h-5v1.5h4.5v2H11V36h5v2H9zm8-9v9h2v-6l3 6h2v-9h-2v5l-2.6-5H17zm8 0h3.83c1.75 0 3.17 1.67 3.17 3.74v1.52c0 2.07-1.42 3.74-3.17 3.74H25v-9zm2 2h1.64c.75 0 1.36.93 1.36 2.08v.84c0 1.15-.6 2.08-1.36 2.08H27v-5zm8.25 6.37h2.28l-.62-4.68h-.95l-.7 4.68zm3.08 0c.58.02 1.03.49 1.03 1.05v.62c.97-.06 1.5-.58 1.64-.85v.99c-.35.3-.99.87-1.85.82-.48-.03-1.47-.46-2.48-.9-1.05-.45-2.11-.91-2.59-.91-.75 0-1.7.65-2.08.98v-.98l.12-.1c.39-.3.99-.79 1.96-.79.12 0 .26.03.42.07l.59-4.68h-.38v-.78h.38v-1.5h-.22v-.75l1.4-.66 1.46.66v.75h-.18v1.5h.37v.78h-.37l.78 4.68zm-2.14-6.94h-.47v1.36h.47v-1.36zm.75 0h-.47v1.36h.47v-1.36zm-.18 2.96h-.48v.83h.48v-.83zm-.93 2.13h.48v.84h-.48v-.84zm2.83 3.36V39a9.52 9.52 0 0 1-1.75-.63h1.22c.29 0 .52.24.52.52z" fill="#fff"/></svg>