<!-- by TradingView --><svg width="56" height="56" xmlns="http://www.w3.org/2000/svg"><path fill="#C82E37" d="M0 0h56v56H0z"/><path d="M50.156 37c.989 0 1.844-.833 1.844-1.875v-5.244c0-.99-.855-1.881-1.844-1.881H11.872c-1.04 0-1.872.89-1.872 1.88v5.244c0 1.042.832 1.876 1.872 1.876h38.284z" fill="#0C0E0F"/><path d="M44.185 30c.99 0 1.815-.834 1.815-1.877v-5.247c0-.99-.825-1.876-1.815-1.876H5.874C4.833 21 4 21.886 4 22.877v5.247C4 29.166 4.833 30 5.874 30h38.311z" fill="#0C0E0F"/><path d="M10.996 28.004h1.547v-6h-1.547v6zm15-4.437c0-.807-.566-1.563-1.494-1.563H22.3c-.927 0-1.495.756-1.495 1.563v2.863c0 .807.568 1.57 1.495 1.57h2.202c.928 0 1.495-.763 1.495-1.57V26h-1.444v.076c0 .252-.154.605-.463.605h-1.377c-.31 0-.464-.353-.464-.605V23.92c0-.253.155-.606.464-.606h1.377c.309 0 .463.354.463.606v.081h1.444v-.434zm6.005 0c0-.807-.567-1.563-1.495-1.563H28.5c-.928 0-1.495.756-1.495 1.563v2.863c0 .807.567 1.57 1.495 1.57h2.006c.928 0 1.495-.763 1.495-1.57v-2.863zm-1.443 2.51c0 .252-.155.605-.464.605h-1.182c-.309 0-.464-.353-.464-.606v-2.155c0-.253.155-.606.464-.606h1.182c.309 0 .464.353.464.605v2.156zM40.755 22l1.702 4.341V22h1.546v5.997H41.53l-1.967-4.176v4.175h-1.56V22h2.753zm-6.054 4.733h2.305V28h-4.005v-5.996h1.7v4.729zm-18.16-4.73l1.908 4.342v-4.341H20v6h-2.48l-1.96-4.18v4.18h-1.56v-6h2.54zM7.7 26.798H10v1.207H6v-6h1.7v4.793zM19.793 35h2.204v-1.003h-.997v-2.995h-1.207V35zm19.234-4.001c.722 0 1.29.302 1.29.908v.823c0 .454-.259.706-.568.706a.798.798 0 01.515.757V35H39.01v-.606a.39.39 0 00-.36-.403h-1.064V35h-1.237v-4.002h2.68zm-1.443 1.933h1.012c.36 0 .412-.152.412-.253v-.42c0-.1-.154-.2-.257-.2h-1.167v.873zM41.001 35h1.245v-4.002H41V35zm-9-3.002h1.306V35h1.185v-3.002h1.237v-1h-3.728v1zm-.705.199c0-.605-.464-1.195-1.134-1.195h-1.598c-.723 0-1.186.555-1.186 1.16v1.728c0 .555.463 1.11 1.186 1.11h1.598c.67 0 1.134-.6 1.134-1.155v-.312h-1.134v.06c0 .202-.103.404-.361.404h-.928c-.258 0-.361-.202-.361-.404v-1.144c0-.201.103-.454.36-.454h.929c.28 0 .358.276.36.493h1.135v-.291zm-15.053 1.138h1.755v-.769h-1.755v-.57h2.165v-.994H15V35h3.408v-1.003h-2.165v-.662z" fill="#fff"/><path d="M26.159 33.335h-1.907v.662h2.165V35h-3.408v-3.998h3.408v.993h-2.165v.571h1.907v.77zM45.866 30.998c.67 0 1.134.59 1.134 1.195v.291h-1.134c-.003-.217-.081-.493-.361-.493H44.5c-.258 0-.36.253-.36.454v1.144c0 .202.102.404.36.404h1.004c.258 0 .36-.202.36-.404v-.06H47v.312c0 .555-.464 1.155-1.134 1.155h-1.674c-.722 0-1.186-.555-1.186-1.11V32.16c0-.606.464-1.16 1.186-1.16h1.674z" fill="#fff"/></svg>