<!-- by TradingView --><svg xmlns="http://www.w3.org/2000/svg" width="56" height="56"><path fill="#F0F3FA" d="M0 0h56v56H0z"/><path d="M5.78 26a1.78 1.78 0 000 3.56h2.17a.73.73 0 010 1.45H4V32h4.2a1.8 1.8 0 100-3.58H6A.71.71 0 016.03 27H9.7v-1H5.78zm42 0a1.78 1.78 0 000 3.56h2.17a.73.73 0 010 1.45H46V32h4.2a1.8 1.8 0 000-3.58H48a.71.71 0 01.04-1.42h3.66v-1h-3.92z" fill="#57585A"/><path fill-rule="evenodd" d="M10.5 28.5A2.5 2.5 0 0113 26h3v6h-3a2.5 2.5 0 01-2.5-2.5v-1zm5.5 0h-4.23v1H16V31h-2.73a1.5 1.5 0 01-1.5-1.5v-1c0-.83.67-1.5 1.5-1.5H16v1.5z" fill="#57585A"/><path fill-rule="evenodd" d="M33.5 28.5A2.5 2.5 0 0136 26h3v6h-3a2.5 2.5 0 01-2.5-2.5v-1zm1.27 0c0-.83.67-1.5 1.5-1.5H39v1.5h-4.23v1H39V31h-2.73a1.5 1.5 0 01-1.5-1.5v-1z" fill="#0078C0"/><path d="M33.5 28.55A2.42 2.42 0 0135.87 26H39v1h-2.7c-.88 0-1.47.63-1.53 1.4l-1.27.15z" fill="url(#a200yzvc5)"/><path d="M17 26h7a2 2 0 012 2v4h-1.33v-4a1 1 0 00-1-1h-1.55v5h-1.24v-5h-2.55v5H17v-6z" fill="#57585A"/><path d="M17 26h7.63c.76 0 1.37.62 1.37 1.38v1.69l-1.33-.11v-.67c0-.76-.44-1.29-1.19-1.29h-1.36v1.77l-1.24-.14V27h-2.55v1.29L17 27.96V26z" fill="url(#b200yzvc5)"/><path fill="#A6A8AA" d="M26.7 26H28v3.28h-1.3z"/><path fill="#57585A" d="M26.7 29H28v3h-1.3z"/><path d="M30.35 26H29v3.78c0 1.8 1.41 2.23 2.12 2.22h2.32v-1h-1.68c-1.21-.06-1.44-.84-1.4-1.22V26z" fill="#0078C0"/><path d="M30.35 26H29v3h1.35v-3z" fill="#70A6D7"/><path fill-rule="evenodd" d="M43.1 26H40v6h3.1a2.5 2.5 0 002.5-2.5v-1a2.5 2.5 0 00-2.5-2.5zm0 1H41v4h2.1c.83 0 1.5-.67 1.5-1.5v-1c0-.83-.67-1.5-1.5-1.5z" fill="#0078C0"/><path d="M27.38 19.77l-.41.1a1 1 0 00-.74 1.24l.6 2.11.55-3.45zm.38 5.17a1 1 0 00.57.03l3.7-.89a1 1 0 00.72-1.26l-.22-.7-4.77 2.82zm4.76-2.87l-.73-2.37a1 1 0 00-1.18-.67l-.26.05-2.1 5.02 4.27-2.03zm-2.44-2.92l-2.56 4.66.18-4.12 2.38-.54z" fill="url(#c200yzvc5)"/><defs><linearGradient id="a200yzvc5" x1="38.5" y1="26.55" x2="33.42" y2="28.31" gradientUnits="userSpaceOnUse"><stop stop-color="#007AC1"/><stop offset="1" stop-color="#268CCC"/></linearGradient><linearGradient id="b200yzvc5" x1="17" y1="26.76" x2="26" y2="28.29" gradientUnits="userSpaceOnUse"><stop stop-color="#6B6C6F"/><stop offset=".4" stop-color="#7F8184"/><stop offset="1" stop-color="#9EA0A3"/></linearGradient><linearGradient id="c200yzvc5" x1="30.76" y1="18.61" x2="27.99" y2="25.5" gradientUnits="userSpaceOnUse"><stop stop-color="#98C3E2"/><stop offset=".31" stop-color="#3195C8"/><stop offset=".61" stop-color="#54A0CE"/><stop offset=".98" stop-color="#94BDDE"/></linearGradient></defs></svg>