<!-- by TradingView --><svg xmlns="http://www.w3.org/2000/svg" width="56" height="56" viewBox="0 0 56 56"><path fill="#23A9FE" d="M0 0h56v56H0z"/><path fill-rule="evenodd" d="M12.18 24.42c.08.22.4.66 1.02.66.78 0 1.89-.55 3.6-2.51 1.62-1.88 1.6-2.97 1.6-3.37a4 4 0 0 1 0-.06v-.02c0-.42 0-2.25-2.44-2.25-2 0-4.09 1.95-4.88 2.93a8.91 8.91 0 0 0-2.07 5.28c0 2.34 2.12 2.68 3.17 2.55 1.03-.08 3.6-.96 5.7-3.8.54-.71 1.04-1.43 1.52-2.1 1.87-2.68 3.4-4.85 5.27-4.94.46.04 1.12.5.12 2.05-1 1.55-3.56 3.98-4.72 5-.43 1.4-2.06 4.52-5.22 5.86.13 0 2.42.6 3.28.9.7.25 1.84.1 2.32 0a2.36 2.36 0 0 1-.83-1.65c0-.96 1.37-2.52 2.15-3.1.79-.59 2.04-1.22 3.23-.85 1.2.37 1.38 2.6-3.23 3.2-.52.65-1.22 1.97.17 2.12.97.1 1.73-.9 2.59-2.04a9.47 9.47 0 0 1 2.3-2.43c2.13-1.34 3.1-1.17 3.66-.41.28-.1 1.08-.31 2-.4l-2.83 4.66c.48-.33 1.47-1.04 1.6-1.25l.15-.26c.26-.48.76-1.44 1.6-2.1 1.05-.83 3.36-1.92 3.8-.7.4-.1 1.42-.3 2.23-.36L36.54 29c-.16.35-.41 1.07-.08 1.18.34.1 1.62-1.67 2.23-2.56.53-1.02 2.11-2.63 4.13-2.62 2.01.01.9 1.87.08 3.01-.33.27-1.1.62-1.46-.15-.37-.77.59-1.37 1.11-1.56.21-.17.6-.54.45-.76-.18-.27-1.75.62-2.87 2.91-1.11 2.3 1.07 1.94 1.92.97l.41-.45A14.4 14.4 0 0 0 45.22 25h2.1l-2.57 4c-.21.32-.6 1-.42 1.18.23.2 1.1-.7 1.28-1l.42-.64c.6-.9 1.66-2.52 2.27-3.54h2.2l-3.04 4.8c.56-.39 1.82-1.38 2.37-2.18.54-.81.92-.72 1.04-.57.17.1.3.5-.47 1.28a42.9 42.9 0 0 1-3.88 3.21c-.98 2.14-3.63 6.42-6.39 6.42-.54-.02-1.63-.34-1.63-1.5 0-1.43 2-3.75 6.25-5.12-.64 0-1.9-.31-1.9-1.44-.4.42-1.43 1.27-2.36 1.27-1.17 0-2.02-.98-2.14-1.58-.34.53-1.25 1.58-2.14 1.58-1.1 0-1.4-.97-1.38-1.27-.3.42-1.08 1.27-1.89 1.27-1 0-1.67-1.08-1.67-1.66l-2.6 1.91c-1.22 2.2-4.24 6.58-6.55 6.58-.82-.1-2.15-.87-.83-3.04 1.32-2.17 4.3-3.43 5.64-3.79-.66.15-2.05.05-2.4-1.47a9.25 9.25 0 0 1-5.96 2.33c-2.84 0-5.4-.95-6.32-1.43-2.42.5-7.25 1.01-7.25-.9 0-2.38 6.67-.88 8.2-.35a4.81 4.81 0 0 0 2.43-2.13 7.74 7.74 0 0 1-3.84 1.28 4.18 4.18 0 0 1-4.3-4.39c0-3.06 3.5-8.1 8.87-8.1.97-.03 2.9.57 2.9 3.13 0 3.2-3.64 6.82-6.06 6.82-1.94 0-2.22-1.6-2.12-2.4.16-.71.8-1.94 2.12-1.16.13.04.4.3.4.96 0 .67-.95.98-1.42 1.06zm8.88-2.8c.4-1 1.57-3.17 3.13-3.88 1.57-.7-1.43 2.3-3.13 3.89zm4.22 12.14c.22-.36.43-.7.62-.97-4.13 2.23-4.93 4.1-3.85 4.1 1.3 0 2.37-1.75 3.23-3.13zm17.86 0c.22-.36.43-.7.62-.97-4.12 2.23-4.93 4.1-3.85 4.1 1.3 0 2.38-1.75 3.23-3.13zM9.8 30.11c-.75-.43-2.59-1.13-3.92-.51-.1.12.02.38 1.27.43 1.25.06 2.3.08 2.65.08zm19.78-4.63c-.58-.08-1.89 1.45-2.52 2.22-.62.76-1.23 2.35-.96 2.49.28.13 1.44-1.18 1.98-1.85.74-.92 2.09-2.79 1.5-2.86zm4.12 2.37c.63-.76 1.93-2.29 2.52-2.21.59.07-.76 1.93-1.5 2.86-.55.67-1.7 1.98-1.98 1.85-.28-.14.34-1.74.96-2.5zM22.51 27c.51-.54 1.7-1.6 2.29-1.59.74.04-1.61 1.5-2.3 1.6z" fill="#F8FEFF"/></svg>