<!-- by TradingView --><svg xmlns="http://www.w3.org/2000/svg" width="56" height="56"><path fill="#F0F3FA" d="M0 0h56v56H0z"/><path d="M8.69 17.15c.2.2.19.52 0 .71l-.48.45c-.4.38-.86.8-1.27 1.28-.58.67-.94 1.3-.94 1.84 0 1.1.57 1.63 1.2 2.23l.2.2-.69.72-.2-.19C5.88 23.79 5 22.97 5 21.43c0-.93.59-1.8 1.19-2.5a19.3 19.3 0 011.8-1.78.5.5 0 01.7 0z" fill="#3D68AD"/><path d="M12.5 21.05c.2.2.2.51.01.7l-5.85 5.87a2.35 2.35 0 00-.13 3.13c.36.43.89.75 1.65.75.79 0 1.34-.34 1.7-.79.38-.46.55-1.02.55-1.39 0-.66-.47-1.68-1.42-2.46l.64-.78a4.55 4.55 0 011.78 3.24c0 .61-.26 1.39-.77 2.02a3.12 3.12 0 01-2.48 1.16 3.04 3.04 0 01-2.42-1.1 3.35 3.35 0 01.18-4.47l5.86-5.88c.2-.2.51-.2.7 0z" fill="#F04973"/><path fill-rule="evenodd" d="M14 23h-.76L12 24.22V31h5v-1.5h-3V23zm4 1h5.5l-1.42 1.5H20v1.3h3v1.5h-3v1.2h3.5V31H18v-7zm14.8.03H31v7h5.5v-1.5H33v-1.2h3v-1.5h-3v-1.3h2.08l1.42-1.5h-3.7zm-2.41.86A4.29 4.29 0 0027.8 24c-1.78 0-3.84 1.03-3.8 3.57.04 2.54 2.26 3.46 3.8 3.43a5.12 5.12 0 002.7-.9v-3.3h-2.1l-1.36 1.5h1.58v.72s-.04.44-.94.48c-.9.04-1.68-.64-1.68-2.02 0-1.28.74-1.98 1.68-1.98.83 0 1.4.36 1.52.52l1.19-1.13zM37 24v7h2v-3.27L41.54 31H43v-7h-.98l-1.02.96v2.69L38.48 24H37zm7.93 0h2.57a3.5 3.5 0 110 7H44v-6.04l.93-.96zM46 25.5h1a2 2 0 110 4h-1v-4zM13 33h1.79a.73.73 0 01.21 1.43.8.8 0 01-.16 1.57H13v-3zm.42.36h1.23a.46.46 0 110 .92h-1.23v-.92zm0 1.25h1.24a.53.53 0 110 1.06h-1.24V34.6zM19 33h.42v3H19v-3zm11.58 0h1.7v.43H31V36h-.42v-2.57H29.3V33h1.28zm5.64 0h-.43v3H38v-.43h-1.78v-.86H38v-.42h-1.78v-.86H38V33h-1.78zm14.09 0h-.42v1.29H48V33h-.42v3H48v-1.29h1.89V36h.42v-3zM24.5 33a1.5 1.5 0 000 3h.13a1.5 1.5 0 000-3h-.13zm.02.4a1.1 1.1 0 100 2.2h.09a1.1 1.1 0 100-2.2h-.1zm18.2-.4a1.5 1.5 0 100 3h.12a1.5 1.5 0 001.38-.9h-.48c-.2.3-.53.5-.91.5h-.09a1.1 1.1 0 010-2.2h.09c.34 0 .65.16.85.4h.5a1.5 1.5 0 00-1.34-.8h-.11z" fill="#2D5065"/></svg>