<!-- by TradingView --><svg xmlns="http://www.w3.org/2000/svg" width="56" height="56" viewBox="0 0 56 56"><path fill="#F0F3FA" d="M0 0h56v56H0z"/><path d="m28.08 45.52-7.47-4.35v-8.7l7.47-4.35 7.47 4.35v8.7l-7.47 4.35Zm-6.87-4.7 6.87 4 6.87-4v-7.99l-6.87-3.99-6.87 4v7.99Z" fill="#7BC24E"/><path d="m28.08 29.02-7.57-4.4v-8.8l7.57-4.4 7.57 4.4v8.8l-7.57 4.4Zm-6.75-4.86 6.75 3.94 6.77-3.94v-7.88l-6.77-3.94-6.75 3.94v7.88Z" fill="#00984C"/><path d="m20.9 33-7.46-4.34v-8.7l7.47-4.35 7.47 4.35v8.7L20.9 33ZM14 28.32l6.9 4 6.88-4v-7.99l-6.87-4-6.91 4v8Z" fill="#7BC24E"/><path d="m35.25 33-7.48-4.34v-8.7l7.48-4.35 7.47 4.35v8.7L35.25 33Zm-6.87-4.69 6.87 4 6.75-4v-7.99l-6.75-4-6.87 4v8Z" fill="#7BC24E"/><path d="m20.92 41.53-7.57-4.4v-8.8l7.57-4.4 7.57 4.4v8.8l-7.57 4.4ZM14 36.67l6.9 3.94 6.77-3.94v-7.88l-6.75-3.94L14 28.8v7.88Z" fill="#00984C"/><path d="m35.28 41.51-7.57-4.4v-8.8l7.57-4.4 7.38 4.4v8.8l-7.38 4.4Zm-6.75-4.87 6.77 3.94 6.7-3.94v-7.87l-6.72-3.94-6.75 3.94v7.87Z" fill="#00984C"/><path d="M28.07 13.35a1.67 1.67 0 0 0 0-3.35c-.92 0-1.67.75-1.67 1.68 0 .92.75 1.67 1.67 1.67ZM35.22 26c.92 0 1.67-.75 1.67-1.68 0-.92-.75-1.68-1.67-1.68-.92 0-1.66.76-1.66 1.68 0 .93.74 1.68 1.66 1.68ZM20.86 26c.92 0 1.67-.75 1.67-1.68 0-.92-.75-1.68-1.67-1.68-.92 0-1.66.76-1.66 1.68 0 .93.74 1.68 1.66 1.68ZM28.07 38.5c.92 0 1.66-.74 1.66-1.67 0-.93-.74-1.68-1.66-1.68-.92 0-1.67.75-1.67 1.68 0 .93.75 1.68 1.67 1.68ZM42.33 38.5a1.67 1.67 0 0 0 0-3.35c-.91 0-1.66.75-1.66 1.68 0 .93.75 1.68 1.66 1.68ZM13.67 38.5c.92 0 1.66-.74 1.66-1.67 0-.93-.74-1.68-1.66-1.68-.92 0-1.67.75-1.67 1.68 0 .93.75 1.68 1.67 1.68Z" fill="#3D4643"/><path d="M35.22 42.49c.92 0 1.67-.76 1.67-1.68a1.67 1.67 0 1 0-3.33 0c0 .92.74 1.68 1.66 1.68ZM20.86 42.49c.92 0 1.67-.76 1.67-1.68a1.67 1.67 0 1 0-3.33 0c0 .92.74 1.68 1.66 1.68ZM42.33 29.98c.92 0 1.67-.75 1.67-1.68a1.67 1.67 0 1 0-3.33 0c0 .93.75 1.68 1.66 1.68ZM28.07 29.98c.92 0 1.66-.75 1.66-1.68 0-.93-.74-1.68-1.66-1.68-.92 0-1.67.75-1.67 1.68 0 .93.75 1.68 1.67 1.68ZM13.67 29.98c.92 0 1.66-.75 1.66-1.68 0-.93-.74-1.68-1.66-1.68-.92 0-1.67.75-1.67 1.68 0 .93.75 1.68 1.67 1.68ZM35.22 17.52c.92 0 1.67-.75 1.67-1.68a1.67 1.67 0 1 0-3.33 0c0 .93.74 1.68 1.66 1.68ZM20.86 17.52c.92 0 1.67-.75 1.67-1.68a1.67 1.67 0 1 0-3.33 0c0 .93.74 1.68 1.66 1.68Z" fill="#00984C"/><path d="M28.07 21.16c.62 0 1.12-.51 1.12-1.14 0-.62-.5-1.13-1.12-1.13-.62 0-1.13.51-1.13 1.13 0 .63.5 1.14 1.13 1.14ZM13.67 21.16c.62 0 1.12-.51 1.12-1.14 0-.62-.5-1.13-1.12-1.13-.62 0-1.13.51-1.13 1.13 0 .63.5 1.14 1.13 1.14ZM42.33 21.16c.63 0 1.13-.51 1.13-1.14a1.13 1.13 0 1 0-2.25 0c0 .63.5 1.14 1.12 1.14ZM20.86 33.83c.62 0 1.13-.5 1.13-1.13a1.13 1.13 0 1 0-2.25 0c0 .63.5 1.13 1.12 1.13ZM35.22 33.83c.62 0 1.13-.5 1.13-1.13a1.13 1.13 0 1 0-2.25 0c0 .63.5 1.13 1.12 1.13ZM28.07 46c.62 0 1.12-.5 1.12-1.13 0-.63-.5-1.13-1.12-1.13-.62 0-1.13.5-1.13 1.13 0 .62.5 1.13 1.13 1.13Z" fill="#7BC24E"/></svg>