<!-- by TradingView --><svg xmlns="http://www.w3.org/2000/svg" width="56" height="56"><path fill="#00539F" d="M0 0h56v56H0z"/><path d="M13.73 39.85c5.12 5.94 15.64 5.44 23.52-1.1a23.1 23.1 0 005.27-6.2 6 6 0 01-2.97-1.8c-1.6 1.27-5.5 3.06-8.21 0-1.48 1.24-5.2 2.97-8.22 0-1.6 1.29-5.46 3.1-8.19 0-.6.47-2.2 1.44-3.93 1.77.08 2.73.97 5.28 2.73 7.33z" fill="#00AEE7"/><path d="M12.46 25.47a22.48 22.48 0 016.28-8.22c7.88-6.54 18.4-7.04 23.52-1.1 2.16 2.5 3 5.77 2.67 9.2-1.75 0-2.88-1.44-3.23-2.19-4.56 3.97-7.38 1.65-8.22 0-4.35 3.73-7.73 2-8.87.68-4.4 3.12-6.91.85-7.61-.68-1.3 1.4-3.4 2.08-4.54 2.31z" fill="url(#a5c0z2krf)"/><path d="M31 19h-7.33c.96.72 1 1.67.95 2.09-.43 3.76-1.36 11.68-1.56 13.3-.2 1.61-1.1 2.41-1.52 2.61h11.43l1.42-3.76a7.05 7.05 0 01-6.48.63c.49-4.03 1.5-12.29 1.7-13.1.2-.8 1-1.51 1.38-1.77z" fill="#fff"/><defs><linearGradient id="a5c0z2krf" x1="31.29" y1="12" x2="28.73" y2="25.47" gradientUnits="userSpaceOnUse"><stop stop-color="#F05E77"/><stop offset="1" stop-color="#FECA06"/></linearGradient></defs></svg>