<!-- by TradingView --><svg xmlns="http://www.w3.org/2000/svg" width="56" height="56" viewBox="0 0 56 56"><path fill="#F0F3FA" d="M0 0h56v56H0z"/><path d="M17.4 33c-1.4 0-2.47-.39-3.24-1.16-.77-.77-1.16-1.87-1.16-3.3 0-1.47.36-2.6 1.07-3.4A4.17 4.17 0 0 1 17 24v2c-.93 0-1.4.42-1.4 1h2.74c1 1.3.66 2 .66 2h-3.45c.05 1.14.98 2 2.14 2 .86 0 1.6-.23 2.31-.67l1.02 1.58s-1.8 1.21-3.62 1.09zm3.6-4h-2c0-.63-.24-.9-.66-2 0-.44-.41-1-1.34-1v-2c2.78 0 4.14 1.68 4 5z" fill="#747275"/><path d="M28 33h-4c-.39-2.79-.68-4.84-1.01-7.73-.42 2.9-.68 4.84-.99 7.73h-4l-3-11h3c.58 2.63 1.42 5.4 2 8 .56-2.69 1.43-5.34 2-8h2c.54 2.67 1.47 5.36 2.04 8 .54-2.64 1.37-5.37 1.96-8h3l-3 11zm5.92-2.1c.34 0 .64-.12.89-.34.24-.23.37-.53.37-.9V29l-.66.04c-.95.03-1.42.4-1.42 1.08 0 .52.27.79.82.79zM35 33v-1c-1.08 1-1.9 1-3 1-1.64 0-2-1.36-2.02-2-.12-3.61 3.16-3.39 5.02-4 0-.34-.1-.83-.85-.83-.6 0-1.45.03-2.15.83l-1-2c.88-.82 2.52-1 4-1 1.79 0 3 1.26 3 3v6h-3zm4 0h3V21h-3v12zm7-5c.7-1.34 1.22-2.44 2-4h3l-3 4 3 5h-3l-1.37-3.24-.63.73V33h-3V21h3v7z" fill="#F0D105"/><path d="M8 24c1.01 0 2 .14 2 1s-.93 1-2 1v-2zm3 4c1.2-.7 2-1.75 2-3 0-1.64-1.02-3-4-3H5v11h3v-4h.7l2.3 4h3l-3-5z" fill="#747275"/><path d="M20 30.32a4.29 4.29 0 0 1-2.56.65L18 33c1.6-.13 3.02-1.09 3.02-1.09L20 30.32zM18.34 27c0-.45-.41-1-1.34-1-.35 0-.64.05-.87.16l-.53-1.94a5.12 5.12 0 0 1 2.93-.02s.76 2.8 1.24 4.8h-2.86l-.55-2h1.98zM21 29a8.23 8.23 0 0 0-.2-2.27s-.5 1.83-.58 2.27H21z" fill="#706901"/></svg>