<!-- by TradingView --><svg width="56" height="56" viewBox="0 0 56 56" xmlns="http://www.w3.org/2000/svg"><path fill="#F0F3FA" d="M0 0h56v56H0z"/><path d="M20.8 13h1.45c1.29.14 2.42.49 3.41 1.05a8.21 8.21 0 0 1 4.34 7.1v8.74c0 .14-.03.15-.1.02a125.2 125.2 0 0 0-3.64-6.71c-.55-.94-.8-1.97-1.2-2.97a3.7 3.7 0 0 0-6.65-.6 3.56 3.56 0 0 0 1.42 4.97c1 .56 2.02.6 3.17.15 0-.06.05-.02 0 0v4.89a8.56 8.56 0 0 1-5.51-.84A8.25 8.25 0 0 1 13 21.7a8.02 8.02 0 0 1 1.97-5.73A8.6 8.6 0 0 1 20.8 13Z" fill="url(#a4j22sk0n)"/><path d="M31.81 37.13a5.65 5.65 0 0 1-1.2-2.32l-.12-.33a11.2 11.2 0 0 0-.91-2c-1.25-2.12-2.4-4.24-3.44-6.35-.1-.18-.14-.17-.14.03.02 2.89.02 5.75 0 8.6 0 .66.06 1.27.2 1.82a8.39 8.39 0 0 0 7.53 6.39c1.4.1 2.9-.05 4.19-.64a8.36 8.36 0 0 0 4.9-5.83c.1-.37.15-.8.16-1.28.02-.62.03-1.05 0-1.3A8.43 8.43 0 0 0 33 26.37l.01 4.89a3.58 3.58 0 0 1 3.47.32c.57.38 1 .88 1.3 1.5a3.64 3.64 0 0 1-3.63 5.12 3.75 3.75 0 0 1-2.33-1.06Z" fill="url(#b4j22sk0n)"/><path d="M13 38.06V28l2 2v9.32c.07.73.8 1.55 1.55 1.68h9.19l2 1.91c.05.06.04.09-.04.09H17.16c-.75 0-1.34-.08-1.77-.24-2.01-.73-2.39-2.29-2.39-4.7ZM43 17.94V28l-2-2v-9.32A2.09 2.09 0 0 0 39.45 15h-9.19l-2-1.91c-.05-.06-.04-.09.04-.09h10.54c.75 0 1.34.08 1.77.24 2.01.73 2.39 2.29 2.39 4.7Z" fill="#213C67"/><defs><linearGradient id="a4j22sk0n" x1="13" y1="20.04" x2="30" y2="20.61" gradientUnits="userSpaceOnUse"><stop stop-color="#58B5A9"/><stop offset="1" stop-color="#64BFDC"/></linearGradient><linearGradient id="b4j22sk0n" x1="26" y1="33.2" x2="41.82" y2="35.59" gradientUnits="userSpaceOnUse"><stop stop-color="#205D9C"/><stop offset="1" stop-color="#55B1E4"/></linearGradient></defs></svg>