<!-- by TradingView --><svg width="56" height="56" viewBox="0 0 56 56" xmlns="http://www.w3.org/2000/svg"><path fill="#F0F3FA" d="M0 0h56v56H0z"/><path d="m6.53 27.12 20.9-13.92c.39-.27.9-.27 1.3 0l20.74 13.92c.7.47.7 1.52 0 1.99L28.72 42.8c-.4.25-.9.25-1.29 0L6.53 29.1a1.2 1.2 0 0 1 0-2Z" fill="url(#ablynhge0)"/><path d="m23.73 31.13-1.83.03a.5.5 0 0 1-.36-.15c-.09-.09-.12-.21-.09-.37 0-.03.02-.05.04-.07a.12.12 0 0 1 .08-.03h7.4c.16 0 .24.1.23.26v.12c-.02.16-.1.24-.26.23l-1.25-.03a.23.23 0 0 0-.22.14.23.23 0 0 0-.02.1c-.03 3.69-3.12 5.69-6.52 5.64a7.14 7.14 0 0 1-4.95-1.96 8.29 8.29 0 0 1-2.39-3.66 9.52 9.52 0 0 1 1.55-8.84c2.02-2.71 4.73-3.62 8.13-2.72.53.14 1.03.46 1.48.76.29.19.52.14.71-.15.27-.42.6-.65.97-.7a.13.13 0 0 1 .13.07l.01.05c.03 1.5.02 3.02 0 4.55 0 .17-.14.2-.42.11a.45.45 0 0 1-.3-.32c-.43-1.73-1.77-2.26-3.51-2.73-1.88-.51-4.12.1-4.92 2a8.37 8.37 0 0 0-.65 3.16v2.93c0 2.47.48 5.08 3.35 5.5a3.93 3.93 0 0 0 2.77-.56c1.14-.73 1.18-1.92 1.05-3.17-.01-.13-.08-.19-.2-.19Z" fill="#335987"/><path fill-rule="evenodd" d="m28.96 30.55-7.4-.01a.12.12 0 0 0-.1.1c-.04.16 0 .28.08.37l.03.03a.5.5 0 0 0 .33.12l1.83-.03h.05c.1.02.15.08.16.19.13 1.25.09 2.44-1.05 3.17-.8.52-1.73.7-2.77.55-2.87-.4-3.34-3.02-3.35-5.49v-2.93c.02-1.13.24-2.19.65-3.17.8-1.89 3.04-2.5 4.92-2 1.74.48 3.08 1.01 3.51 2.74a.45.45 0 0 0 .3.32c.28.1.42.06.42-.11a140.68 140.68 0 0 0-.01-4.6.12.12 0 0 0-.08-.07h-.05a1.13 1.13 0 0 0-.44.16c-.2.12-.37.3-.53.54-.19.29-.42.34-.71.15-.45-.3-.95-.62-1.48-.76-3.4-.9-6.11 0-8.13 2.72a9.52 9.52 0 0 0-1.55 8.84 8.29 8.29 0 0 0 2.39 3.66A7.14 7.14 0 0 0 20.93 37c3.4.05 6.49-1.95 6.52-5.65a.23.23 0 0 1 .15-.2v-.01a.23.23 0 0 1 .09-.02l1.25.03c.16 0 .24-.07.25-.23l.01-.12c.01-.17-.07-.25-.24-.25Zm0 .6Zm-2.07-.01H24.5l.03.12c.13 1.26.13 2.8-1.32 3.73-.94.6-2 .8-3.17.64a3.94 3.94 0 0 1-3.2-2.3 9.04 9.04 0 0 1-.66-3.78v-2.94c.02-1.2.25-2.34.7-3.39.95-2.26 3.56-2.9 5.61-2.33.87.23 1.73.5 2.42.97.44.3.8.66 1.09 1.13v-2.3l-.05.07a1.1 1.1 0 0 1-.69.5 1.1 1.1 0 0 1-.83-.19c-.46-.3-.88-.56-1.31-.67a7.3 7.3 0 0 0-4.25-.01 6.74 6.74 0 0 0-3.26 2.5 8.93 8.93 0 0 0-1.45 8.31 7.7 7.7 0 0 0 2.22 3.4 6.55 6.55 0 0 0 4.56 1.8 6.52 6.52 0 0 0 4.15-1.29 4.7 4.7 0 0 0 1.78-3.76c0-.07 0-.14.02-.21Zm-.48-7.17Z" fill="#fff"/><path d="m41.59 20.66.8-.84a.36.36 0 0 1 .62.26v4.07c0 .13-.05.24-.15.31a.4.4 0 0 1-.43.05.28.28 0 0 1-.17-.2c-.26-1.04-.44-.5-.67-.81a4.8 4.8 0 0 0-4.75-2.18c-3.62.44-3.56 5.11-3.49 7.94.06 2.6.93 5.56 3.97 5.7 2.74.14 4.37-.66 5.1-2.92a.59.59 0 0 1 .33-.4c.14-.05.26-.03.38.08.05.05.07.11.07.18l-.01 4.62a.29.29 0 0 1-.16.26.28.28 0 0 1-.3-.03 3.62 3.62 0 0 1-.86-.98.28.28 0 0 0-.4-.07 6.82 6.82 0 0 1-8.12-.1 9.6 9.6 0 0 1-3.67-6.9c-.35-4.17 2.96-8.8 7.16-9.18 1.7-.16 3.2.23 4.47 1.16.05.03.1.04.15.04.05 0 .1-.03.13-.06Z" fill="#335987"/><path fill-rule="evenodd" d="M42 21.07a.8.8 0 0 1-1.02.1h-.01a5.77 5.77 0 0 0-4.08-1.06 7.08 7.08 0 0 0-4.87 2.94 8.36 8.36 0 0 0-1.75 5.6 9 9 0 0 0 3.44 6.48 6.24 6.24 0 0 0 7.42.09.87.87 0 0 1 1-.02c.1.07.18.16.24.26.07.12.15.23.23.33l.01-2.67c-.4.8-.96 1.4-1.7 1.8-.98.54-2.2.7-3.62.64-1.75-.09-2.9-1-3.58-2.24-.67-1.2-.91-2.7-.95-4.04a18.3 18.3 0 0 1 .39-5.04c.23-.85.6-1.66 1.18-2.3.6-.65 1.4-1.09 2.44-1.21 1.07-.13 2.07 0 2.97.41.86.4 1.61 1.04 2.25 1.9l.1.02a.8.8 0 0 1 .33.2v-2.61l-.41.43Zm1.01-.99a.37.37 0 0 0-.22-.34.36.36 0 0 0-.4.08l-.8.84a.2.2 0 0 1-.28.02 6.35 6.35 0 0 0-4.47-1.16c-4.2.38-7.5 5-7.16 9.18a9.6 9.6 0 0 0 3.67 6.9 6.82 6.82 0 0 0 8.23.05.28.28 0 0 1 .3.12c.24.4.52.72.85.98a.29.29 0 0 0 .3.03.28.28 0 0 0 .16-.26l.01-4.62a.23.23 0 0 0-.07-.18c-.12-.1-.24-.13-.38-.07a.58.58 0 0 0-.34.4c-.72 2.25-2.35 3.05-5.09 2.91-3.04-.14-3.9-3.1-3.97-5.7-.07-2.83-.13-7.5 3.49-7.94a4.8 4.8 0 0 1 4.75 2.18c.08.1.15.11.23.12.13 0 .27.01.44.7.03.09.08.16.17.2.15.06.3.04.43-.06.1-.07.15-.18.15-.31v-4.07Z" fill="#fff"/><defs><linearGradient id="ablynhge0" x1="28" y1="13" x2="28" y2="43" gradientUnits="userSpaceOnUse"><stop stop-color="#D7D9DC"/><stop offset=".31" stop-color="#808282"/><stop offset=".54" stop-color="#575959"/></linearGradient></defs></svg>