<!-- by TradingView --><svg width="56" height="56" viewBox="0 0 56 56" xmlns="http://www.w3.org/2000/svg"><path fill="#F5B504" d="M0 0h56v56H0z"/><path fill-rule="evenodd" d="M11 19.34v13.9A4.88 4.88 0 0 0 16 38c2.76 0 5-2.13 5-4.76v-7.88A1.4 1.4 0 0 0 19.59 24c-.78 0-1.59.62-1.59 1.36v7.54c0 1.14-.8 2.1-2 2.1s-2-.96-2-2.1V19.34c0-.74-.8-1.34-1.59-1.34-.78 0-1.41.6-1.41 1.34Zm12 3.05c0-2.42 2-4.39 4.48-4.39h1.04A4.43 4.43 0 0 1 33 22.4v11.2c0 2.43-2 4.4-4.48 4.4h-1.04A4.43 4.43 0 0 1 23 33.6V22.4Zm3 .61c0-1.28.9-2 2-2s2 .72 2 2v10c0 1.28-.9 2-2 2s-2-.72-2-2V23Zm9 .09v13.43c0 .82.65 1.48 1.45 1.48.8 0 1.55-.66 1.55-1.48V23c0-1.19.85-2 2.02-2A1.9 1.9 0 0 1 42 23v13.54c0 .8.77 1.46 1.56 1.46.8 0 1.44-.65 1.44-1.46V23.09A5.04 5.04 0 0 0 40 18c-2.76 0-5 2.28-5 5.09ZM19.5 22a1.5 1.5 0 1 0 0-3 1.5 1.5 0 0 0 0 3Z" fill="#fff"/></svg>