<!-- by TradingView --><svg width="56" height="56" xmlns="http://www.w3.org/2000/svg"><path fill="#064157" d="M0 0h56v56H0z"/><path d="M25.175 20.003h7.861c0 .696.181 1.878.271 2.238-.378-.179-.967-.233-1.214-.239a646.526 646.526 0 00-4.395 0c-.716.007-.705.642-.698.93.01 1.494.024 3.643 0 4.228-.024.584.284.802.529.84l1.805-.002c.58-.034.69-.573.666-.84v-1.16a34.497 34.497 0 00-1.112.002c-.278.008-.706.162-.89.235V24h5.495c-.318.413-.495 1.282-.493 1.574a876.888 876.888 0 000 7.052c.013.811.352 1.254.493 1.374h-3.082c.435-.245.556-.731.589-1.373V29.09c-.354.693-1.53.922-1.857.909-.538.003-2.073.008-3.903 0s-2.246-1.34-2.224-2.002c-.012-1.466-.029-4.468 0-6.087.028-1.618 1.451-1.947 2.16-1.908z" fill="#DBBD5B"/><path d="M25.919 13.07L12 20h4c-.306-.064-.161-.256-.06-.344l11.173-5.484c.17-.06.566-.165.887-.172.32-.007.69.106.822.172 3.578 1.81 11.032 5.327 11.26 5.484.227.157.032.303-.082.344h4l-13.83-6.93c-.353-.165-.89-.464-.898-.692-.006-.183.21-.328.32-.378H26.44a.378.378 0 01.312.378c.006.264-.554.571-.834.692z" fill="#fff"/><path d="M18 21.359c-.01-.847-.806-1.153-1-1.359h6c-.445.267-.99.925-1 1.359V32c1.044-.004 2.917-.009 4.517 0 1.6.009 2.989-.83 3.483-1-.076 1.19-.337 2.57-.458 3H17.065c.543-.359.923-.855.935-1.187.005-3.223.01-10.607 0-11.454zM34 21.438c.012-.702-.336-1.251-.506-1.438h5.079c-.386.263-.555 1.068-.573 1.438-.014 3.468-.034 10.559 0 11.172.034.614.423 1.183.573 1.39h-5.067c.29-.147.454-.988.494-1.39-.005-3.432-.012-10.471 0-11.172z" fill="#DBBD5B"/><path d="M39 35H17v1h22v-1zM39 41H17v1h22v-1zM17.51 40v-3h.534v1.267h1.985V37h.534v3h-.534v-1.366h-1.985V40h-.534z" fill="#fff"/><ellipse cx="23.5" cy="38.5" rx="1.855" ry="1.5" fill="#fff"/><ellipse cx="23.5" cy="38.511" rx="1.382" ry="1.189" fill="#064157"/><path d="M26.604 37v3h.511v-2.492L28.34 40h.418l1.213-2.492V40h.501v-3h-.712l-1.208 2.48L27.332 37h-.728zM31.883 40v-3h2.694v.352h-2.195v.959h2.195v.325h-2.195v1.038h2.195V40h-2.694zM37.086 37c1.072 0 1.357.593 1.366.913h-.489c0-.301-.253-.568-.877-.568-.512 0-.791.152-.89.267-.124.206-.122.583.964.682 1.086.1 1.407.49 1.43.699.102.32-.042.968-1.43 1.006-1.39.037-1.7-.655-1.681-1.006h.508c.009.251.23.67 1.172.67.943 0 .887-.41.906-.521.018-.112-.056-.4-1.127-.522-1.071-.12-1.33-.521-1.33-.773 0-.251.14-.847 1.478-.847z" fill="#fff"/></svg>