<!-- by TradingView --><svg width="56" height="56" viewBox="0 0 56 56" fill="none" xmlns="http://www.w3.org/2000/svg">
<rect width="56" height="56" fill="#F0F3FA"/>
<path d="M28 31V42H16C16 35.9242 21.4152 31 28 31Z" fill="#3EC6EB"/>
<path d="M25.0926 28.8339L14.4727 32.3247L11 21.6088C16.8551 19.7011 23.1948 22.9483 25.0926 28.8339Z" fill="#5446F6"/>
<path d="M26.1021 25.6679L19.5605 16.6162L28.6057 10C32.1995 15.0332 31.1092 22.0554 26.1021 25.6679Z" fill="#F3CD2E"/>
<path d="M29.4131 25.6679L35.9547 16.5756L44.9998 23.1513C41.3656 28.2251 34.3798 29.3616 29.4131 25.6679Z" fill="#ACDE1E"/>
<path d="M30.4228 28.8339L41.0428 32.3246L37.5701 42.9999C31.715 41.0922 28.525 34.7195 30.4228 28.8339Z" fill="#1BC99F"/>
</svg>
