<!-- by TradingView --><svg width="56" height="56" viewBox="0 0 56 56" xmlns="http://www.w3.org/2000/svg"><path fill="url(#a2gooswt3)" d="M0 0h56v56H0z"/><path d="M6 33v-9h2v7h4v2H6ZM36.66 33a5.2 5.2 0 0 1-1.9-.34 4.41 4.41 0 0 1-2.47-2.37 4.67 4.67 0 0 1 .02-3.54c.24-.55.57-1.02 1-1.42.43-.4.94-.72 1.52-.94a5.27 5.27 0 0 1 4.47.36c.35.21.65.46.88.74l-1.2 1.22c-.32-.3-.68-.54-1.05-.7a2.86 2.86 0 0 0-1.22-.27c-.4 0-.77.07-1.11.21-.34.13-.63.33-.89.58a2.78 2.78 0 0 0 .04 3.98c.27.24.57.44.92.6a3 3 0 0 0 1.92.08c.26-.1.48-.21.67-.36.2-.15.35-.32.46-.52.11-.2.17-.42.17-.65v-.3l.24.35H36.6v-1.56h4.12l.04.33a6 6 0 0 1 .02.7 3.53 3.53 0 0 1-1.18 2.75c-.37.34-.81.6-1.32.8-.5.18-1.04.27-1.62.27ZM13 33l3.63-8.98h1.77L22 33h-2.02l-1.87-4.84-.2-.54a794.42 794.42 0 0 0-.6-1.9l.35-.01a14.25 14.25 0 0 1-.4 1.24l-.22.65-.21.59L14.97 33H13Zm1.69-1.89.66-1.56h4.2l.68 1.56H14.7ZM22.96 32.99v-8.97h4.34c.62 0 1.17.12 1.66.37.5.25.89.59 1.17 1.02.3.43.44.92.44 1.48 0 .53-.15 1.02-.44 1.46-.28.43-.68.78-1.17 1.04-.49.25-1.04.38-1.66.38h-2.32v3.22h-2.02Zm5.58 0-2.5-4.07 2.15-.32 2.77 4.4-2.42-.01Zm-3.56-4.8h2.24c.25 0 .47-.05.66-.15a1.23 1.23 0 0 0 .62-1.09c0-.25-.07-.47-.2-.65-.13-.2-.31-.35-.55-.45-.23-.11-.5-.17-.8-.17h-1.97v2.51ZM46.5 33c-.64 0-1.25-.11-1.8-.34a4.38 4.38 0 0 1-1.43-.93A4.5 4.5 0 0 1 42 28.5a4.5 4.5 0 0 1 1.27-3.22c.4-.4.88-.72 1.43-.94a4.81 4.81 0 0 1 5.02.94A4.64 4.64 0 0 1 51 28.51a4.58 4.58 0 0 1-1.28 3.21A4.62 4.62 0 0 1 46.5 33Zm0-1.77c.38 0 .72-.06 1.03-.2a2.55 2.55 0 0 0 1.36-1.44 3 3 0 0 0 .19-1.08c0-.4-.07-.76-.2-1.1a2.59 2.59 0 0 0-1.35-1.43 2.55 2.55 0 0 0-2.89.57c-.22.24-.4.53-.53.87-.12.33-.19.7-.19 1.1a2.64 2.64 0 0 0 1.25 2.37c.4.23.84.34 1.34.34Z" fill="#FEFFFE"/><path d="M51 28.5c0 .83-.5 3.5-2 3-1-.5 0-1.5 0-3s-1-2.5 0-3c1.5-.5 2 2.17 2 3Z" fill="url(#b2gooswt3)"/><defs><linearGradient id="a2gooswt3" x1="56" y1="0" x2="0" y2="56" gradientUnits="userSpaceOnUse"><stop stop-color="#0180CC"/><stop offset="1" stop-color="#75B46F"/></linearGradient><linearGradient id="b2gooswt3" x1="49.78" y1="25.44" x2="49.78" y2="31.56" gradientUnits="userSpaceOnUse"><stop stop-color="#D3DE4C"/><stop offset=".75" stop-color="#F6F8DC"/><stop offset="1" stop-color="#fff"/></linearGradient></defs></svg>