<!-- by TradingView --><svg width="56" height="56" viewBox="0 0 56 56" xmlns="http://www.w3.org/2000/svg"><path fill="#F0F3FA" d="M0 0h56v56H0z"/><path d="M17.37 17.16 30 10v3.7l-9.41 5.07-3.22-1.61Zm6.99 3.36L37 13.08v3.7l-9.42 5.35-3.22-1.6Z" fill="#CA8E4E"/><path fill-rule="evenodd" d="M28.35 24.66 12 16.6V38l15.56 7.62c1.17.57 2.53.52 3.65-.14L44 37.99v-3.51l-13.55 7.98a2.2 2.2 0 0 1-2.1.08L24 40.39v-2.7l3.56 1.74c1.17.58 2.53.52 3.65-.13L44 31.82v-3.51l-13.55 7.98a2.2 2.2 0 0 1-2.1.08L15 29.79v-2.26l12.56 6.14c1.17.57 2.53.52 3.65-.13L44 26.06v-3.52l-13.55 7.99a2.2 2.2 0 0 1-2.1.08L24 28.46V26l3.56 1.74c1.17.57 2.53.52 3.65-.14L44 20.12V16.6L30.45 24.6a2.2 2.2 0 0 1-2.1.07ZM21 24.52l-6-2.94v2.44l6 2.96v-2.46Zm0 11.7v2.7l-6-2.96v-2.67l6 2.93Z" fill="#693806"/></svg>