<!-- by TradingView --><svg width="56" height="56" xmlns="http://www.w3.org/2000/svg"><path fill="#F0F3FA" d="M0 0h56v56H0z"/><path d="M16.396 30.549c-.819-3.914-.208-9.378 2.451-10.326-.118-1.344-.111-2.946-.074-4.276.04-1.427.134-2.487-.357-2.421-.59.08-2.54 3.9-2.96 8.793-.152 1.767-.017 3.537.241 5.148.178 1.039.412 2.068.699 3.082zM39.553 30.549a29.22 29.22 0 00.698-3.082c.26-1.61.393-3.38.241-5.148-.42-4.894-2.368-8.713-2.96-8.793-.491-.066-.394.995-.357 2.42.037 1.331.044 2.933-.074 4.277 2.659.948 3.27 6.412 2.452 10.326z" fill="#A1272B"/><path d="M22.662 22.89c1.547 3.602 2.477 7.509 2.714 8.387.269-.363 1.319-1.295 2.598-1.295 1.282 0 2.31.932 2.578 1.296.24-.879 1.169-4.786 2.715-8.388-.072-.676-.444-2.675-.606-3.397C32.359 18.139 30.949 12 27.975 12c-2.975 0-4.406 6.139-4.708 7.493-.16.723-.534 2.721-.605 3.397z" fill="#C73730"/><path d="M21.98 21.73c.506-2.938 1.01-4.687 1.638-6.307-1.185.197-2.546 2.888-2.973 4.95.668.424 1.301 1.31 1.335 1.358zM35.292 20.373c-.426-2.062-1.788-4.754-2.972-4.95.628 1.62 1.129 3.368 1.637 6.308.033-.05.665-.933 1.335-1.358z" fill="#A1272B"/><path d="M32.028 42.722c3.253-.225 5.613-1.59 6.125-2.026.517-.44.831-.814.284-.887-.506-.07-2.467.661-3.07.84 0 0-.18.053-.178-.001 0-.053.29-.15.29-.15 4.198-1.484 6.814-4.454 6.61-5.15-.276-.603-1.97 1.086-3.23 1.837 0 0-.118.071-.12.023-.002-.024.142-.139.142-.139 3.24-2.486 4.557-7.208 3.992-7.628-.302-.098-.833 1.047-1.6 2.435-.588 1.061-1.154 1.75-1.154 1.75s-.051.066-.08.057c-.022-.006.016-.077.016-.077 2.327-4.658 2.589-7.94 2.668-9.448.179-3.395-.45-3.56-.703-2.454a68.468 68.468 0 00-.9 4.558c-.708 4.488-2.693 8.955-4.264 11.391-.234.358-.432.332-.48.263-.043-.06-.015-.138.129-.397 4.519-8.093 2.6-16.243-.074-16.336-2.564-.09-5.015 9.705-5.301 10.778 1.73 2.864 2.14 6.831 2.016 7.832a.176.176 0 01-.171.153.173.173 0 01-.18-.168c0-1.824-1.432-8.778-4.796-8.778-3.363 0-4.795 6.953-4.795 8.778a.174.174 0 01-.181.168.177.177 0 01-.17-.153c-.125-1 .286-4.968 2.017-7.832-.287-1.074-2.738-10.868-5.302-10.778-2.673.093-4.594 8.243-.075 16.336.145.26.172.338.129.397-.047.07-.245.095-.48-.263-1.57-2.436-3.556-6.903-4.263-11.39a69.997 69.997 0 00-.9-4.56c-.254-1.106-.883-.94-.703 2.455.078 1.507.34 4.79 2.668 9.448 0 0 .038.071.015.077-.027.008-.078-.057-.078-.057s-.567-.689-1.155-1.75c-.768-1.389-1.3-2.533-1.598-2.435-.566.42.748 5.142 3.99 7.628 0 0 .144.115.141.139-.004.048-.118-.023-.118-.023-1.26-.751-2.954-2.44-3.232-1.836-.203.695 2.411 3.665 6.612 5.149 0 0 .29.097.29.15 0 .054-.18.002-.18.002-.602-.18-2.564-.91-3.069-.841-.549.073-.233.447.284.887.512.436 2.871 1.801 6.123 2.026.028.285 1.155 1.278 4.026 1.278 2.87 0 4.009-.993 4.033-1.278z" fill="#C95E2D"/></svg>