<!-- by TradingView --><svg width="56" height="56" fill="none" xmlns="http://www.w3.org/2000/svg"><path fill="#F0F3FA" d="M0 0h56v56H0z"/><path fill-rule="evenodd" clip-rule="evenodd" d="M15 13h26v30H15V13zm13 11.695l.003.004H28c-2.24 0-4 1.725-4 3.854 0 2.128 1.76 3.853 4 3.853s4-1.725 4-3.853c0-.43-.072-.844-.205-1.23 1.893.372 2.737.956 3.455 1.61C34.185 31.263 31.492 33 28 33c-3.287 0-5.902-1.304-7.5-4.067C21.722 25.974 24.742 24 28.43 24c2.707 0 5.706.799 8.164 2.531.305-.96.406-1.931.406-1.931S33.415 22 28.43 22C22.651 22 19 25.566 18 28.766 19.166 31.889 22.75 35 28 35c5.236 0 8.806-3.098 10-6.234-2.219-2.516-5.844-4.07-10-4.07zm0 5.796c1.078 0 2-.886 2-1.95 0-1.065-.922-1.927-2-1.927-1.078 0-2 .862-2 1.927 0 1.064.922 1.95 2 1.95z" fill="#2A6DB2"/></svg>