<!-- by TradingView --><svg xmlns="http://www.w3.org/2000/svg" width="56" height="56" viewBox="0 0 56 56"><path fill="#F0F3FA" d="M0 0h56v56H0z"/><path d="M37 22.5a4.49 4.49 0 1 1 8.98-.02 4.49 4.49 0 0 1-8.98.02ZM30.48 18C28.02 18 26 20 26 22.5c0 2.45 2.01 4.5 4.48 4.5 2.5 0 4.52-2.04 4.52-4.5a4.56 4.56 0 0 0-4.52-4.5ZM15 22.5a4.49 4.49 0 1 1 8.98-.02 4.49 4.49 0 0 1-8.98.02Zm-5 10.98a4.49 4.49 0 1 1 8.98.02 4.49 4.49 0 0 1-8.98-.02Zm11 0a4.49 4.49 0 1 1 9.02.03 4.49 4.49 0 0 1-9.02-.03ZM36.5 29a4.52 4.52 0 0 0-4.5 4.48c0 2.5 2.04 4.52 4.5 4.52s4.5-2.09 4.5-4.52c0-2.46-2-4.48-4.5-4.48Z" fill="#E1261C"/></svg>