<!-- by TradingView --><svg width="56" height="56" xmlns="http://www.w3.org/2000/svg"><path fill="#6D2077" d="M0 0h56v56H0z"/><path d="M4 24.996h1.5V24H4v.996zM10 25.467h2V24h-2v1.467zM26 26h1l4.024 6h1.968v-8H31v5l-1.285-2.16L28 24h-2v2zM4 26.467h1.5v-1H4v1z" fill="#fff"/><path d="M26 26.486v.992h1.5l-.006-.497-.009-.495-.723-.008-.762.008zM21.365 26.029a2.7 2.7 0 00-2.121 1.612c-.204.483-.24.674-.244 1.306-.003.649.043.895.253 1.38.23.524.655 1.01 1.129 1.28.437.253 1.194.435 1.638.384.622-.073 1.131-.367 1.368-.77l.092-.156.178.926H25v-5.986h-1.546v.49l-.003.345-.063-.112c-.095-.179-.375-.409-.638-.53-.388-.18-.881-.24-1.385-.17zm1.28 1.43c.516.246.809.792.809 1.504 0 1.16-.803 1.894-1.793 1.642-.49-.122-.852-.495-1.023-1.05-.092-.295-.085-.917.01-1.218.151-.46.464-.785.898-.932.181-.06.263-.07.55-.06.296.009.358.022.549.114zM36.4 26.036c-1.085.205-1.932.94-2.248 1.955-.23.73-.197 1.58.087 2.246a2.847 2.847 0 001.742 1.602c1.253.413 2.656.013 3.402-.962.178-.23.433-.752.508-1.03.232-.858.087-1.837-.372-2.55a3.458 3.458 0 00-.72-.749 3.566 3.566 0 00-1.002-.464c-.333-.086-1.057-.112-1.396-.048zm1.025 1.418c.608.163 1.002.764 1.002 1.526-.003.818-.398 1.391-1.083 1.57-.779.198-1.531-.259-1.741-1.062-.062-.227-.068-.7-.017-.944.181-.857.97-1.324 1.84-1.09zM48.445 26.008c-.305.044-.593.14-.885.277-.98.468-1.553 1.44-1.56 2.65-.003.655.085 1.043.347 1.565.482.949 1.364 1.49 2.442 1.5.681.006 1.196-.218 1.53-.664.082-.108.15-.198.157-.205.004-.006.043.257.076.395.03.137.068.304.085.371l.033.103H52v-5.992h-1.54v.832l-.102-.148c-.196-.288-.537-.512-.947-.615-.203-.051-.776-.095-.966-.07zM49.47 27.4c.734.224 1.118 1.041.94 2.01-.094.525-.402.948-.828 1.147-.203.093-.246.102-.547.102-.263-.003-.364-.016-.508-.073a1.481 1.481 0 01-.85-.92c-.104-.302-.13-.866-.055-1.18.138-.57.531-.993 1.026-1.109a2.03 2.03 0 01.822.023zM10 32l.992-.007.987-.01.013-2.993L12 26h-2v6zM13.003 26L15 32h2s2-5.983 2-6c.003-.014-.798 0-.798 0H17l-1 4-1-4h-1.997zM42 32h2l2.016-5.972-.79-.027H44l-.944 3.914L42 26.001h-2l2 6zM4 27.972l.744-.005.741-.008.009-.495.006-.492H4v1zM26.006 28.494l.009.502h1.47l.01-.502.005-.498H26l.006.498zM4 29.5h1.5v-1H4v1zM26 30.478h1.5v-1H26v1zM4 32h5v-2H4v2zM26.001 31v.594l.009.406h1.49v-.447L27.494 31l-.739-.005-.754.005z" fill="#fff"/></svg>