<!-- by TradingView --><svg xmlns="http://www.w3.org/2000/svg" width="56" height="56" viewBox="0 0 56 56"><path fill="#186CB5" d="M0 0h56v56H0z"/><path d="M9.81 20H45.2c1.98 0 3.81 1.45 3.81 3.48v9.04c0 2.03-1.83 3.48-3.81 3.48H9.8C7.83 36 6 34.55 6 32.52v-9.04C6 21.45 7.83 20 9.81 20Zm0 .5c-1.96 0-3.31 1.63-3.31 3v9.02c0 1.73 1.76 2.98 3.31 2.98H45.2c1.55 0 3.31-1.12 3.31-2.98v-9.04c0-1.37-1.15-2.87-3.31-2.98H9.8Z" fill="#F0F3FA"/><path d="M33 24h-5.3l-2.2 2.62L23.3 24H21l3.35 4L21 32h2.3l2.2-2.62L27.7 32H30l-3.35-4L30 24v1.5h3V32h2v-6.5h3V24h-5Zm-21 0h-2v8h7v-1.5h-5V24Zm6 0h2v8h-2v-8Zm23 0h5v1.5h-5v1.75h4v1.5h-4v1.75h5V32h-7v-8h2Z" fill="url(#a1ovndori)"/><defs><linearGradient id="a1ovndori" x1="28" y1="24" x2="28" y2="32" gradientUnits="userSpaceOnUse"><stop stop-color="#C4C4C4"/><stop offset=".12" stop-color="#F0F3FA"/><stop offset=".94" stop-color="#F0F3FA"/><stop offset="1" stop-color="#C4C4C4"/></linearGradient></defs></svg>