<!-- by TradingView --><svg width="56" height="56" xmlns="http://www.w3.org/2000/svg"><path fill="url(#paint0_linear)" d="M0 0h56v56H0z"/><path d="M27.727 27.84L15.41 26.92v.003a2.613 2.613 0 00-.159-.004c-.845.005-1.524.424-1.516.937.008.513.7.925 1.545.92.054 0 .107-.002.159-.006v.005l12.287-.934zM27.728 27.86L15.45 29.34v.003a2.617 2.617 0 00-.156.027c-.828.168-1.412.712-1.303 1.213.108.502.867.772 1.695.603.053-.011.104-.023.155-.037l.001.005 11.887-3.295zM27.734 27.877l-11.733 3.81.001.002c-.05.017-.099.037-.148.057-.78.326-1.245.973-1.04 1.444.204.47 1.001.588 1.78.261.05-.02.098-.043.145-.066l.002.005 10.993-5.513zM27.744 27.893l-10.736 6 .002.004c-.045.026-.09.054-.135.084-.7.471-1.03 1.196-.737 1.618.293.422 1.098.382 1.798-.09.045-.03.088-.06.13-.092l.002.004 9.676-7.528zM27.756 27.909l-9.369 7.983.003.002c-.04.035-.078.071-.116.11-.594.598-.776 1.372-.406 1.73.37.356 1.152.16 1.746-.437.038-.038.074-.077.108-.117l.004.004 8.03-9.275zM27.77 27.92l-7.612 9.607.002.002a2.631 2.631 0 00-.091.13c-.466.701-.493 1.496-.06 1.775.433.278 1.162-.066 1.627-.768.03-.044.058-.09.084-.135l.004.003L27.77 27.92zM27.788 27.93l-5.58 10.913.002.002a2.476 2.476 0 00-.065.145c-.319.779-.189 1.563.29 1.752.48.19 1.127-.289 1.446-1.068.02-.05.039-.1.055-.148l.005.001 3.847-11.598zM27.806 27.934l-3.331 11.764h.003a2.49 2.49 0 00-.035.155c-.16.826.12 1.57.628 1.663.507.092 1.048-.503 1.208-1.329.01-.052.019-.104.025-.156h.005l1.497-12.097zM28.669 40.126h.005l-.85-12.19-1.015 12.218h.003a2.314 2.314 0 00-.004.159c.005.841.427 1.517.942 1.509.515-.008.93-.697.925-1.538a2.58 2.58 0 00-.006-.158zM31.097 39.882a2.421 2.421 0 00-.037-.154l.005-.001-3.222-11.792 1.398 12.182h.004c.007.05.016.103.027.155.17.825.716 1.405 1.22 1.297.504-.107.775-.863.605-1.687zM33.373 38.977a2.208 2.208 0 00-.066-.144l.005-.002-5.451-10.902L31.6 39.567l.003-.001c.017.05.036.099.057.148.328.776.978 1.239 1.45 1.035.474-.203.592-.997.264-1.772zM35.442 37.642a2.695 2.695 0 00-.094-.128l.004-.003-7.475-9.592 5.94 10.647.004-.002c.026.045.054.09.085.134.473.697 1.201 1.025 1.625.733.424-.29.384-1.092-.09-1.789zM37.237 35.973a2.488 2.488 0 00-.117-.108l.004-.004-9.232-7.953 7.934 9.286.002-.003c.035.039.071.077.11.115.6.591 1.38.772 1.738.404.359-.368.162-1.146-.439-1.737zM38.614 33.96a2.375 2.375 0 00-.136-.083l.003-.005-10.578-5.98 9.566 7.54.002-.004c.042.032.085.062.13.092.706.463 1.504.49 1.784.059s-.065-1.156-.77-1.62zM39.626 31.727c-.05-.02-.1-.039-.149-.055l.002-.005-11.566-3.79 10.879 5.515.001-.003c.047.023.096.044.145.064.783.318 1.572.189 1.762-.288.19-.477-.29-1.12-1.074-1.438zM40.142 29.34a2.436 2.436 0 00-.157-.025l.001-.005-12.068-1.452 11.733 3.278v-.003c.05.013.103.025.156.035.83.16 1.578-.12 1.67-.625.093-.505-.504-1.043-1.334-1.203zM40.37 26.926c-.054 0-.107.002-.16.006v-.005l-12.286.913 12.315.942v-.003c.053.003.106.004.16.004.845-.005 1.523-.425 1.515-.937-.007-.513-.7-.925-1.544-.92zM41.661 25.117c-.108-.501-.867-.771-1.696-.602-.052.01-.104.023-.154.037l-.001-.005-11.888 3.274 12.28-1.46-.001-.003c.052-.007.104-.016.157-.027.828-.169 1.411-.712 1.303-1.214zM40.837 22.511c-.204-.47-1.002-.588-1.78-.261-.05.02-.099.042-.146.066l-.002-.005-10.992 5.492 11.733-3.788-.002-.003c.05-.018.1-.037.149-.057.779-.327 1.245-.973 1.04-1.444zM39.513 20.102c-.293-.422-1.098-.382-1.798.089-.045.03-.088.061-.13.093l-.002-.004-9.676 7.507 10.736-5.98-.002-.003c.045-.026.09-.054.135-.084.7-.472 1.03-1.196.737-1.618zM37.783 17.968c-.37-.357-1.152-.162-1.746.436a2.601 2.601 0 00-.108.116l-.004-.003-8.03 9.255 9.369-7.963-.003-.003c.04-.034.078-.07.116-.109.594-.598.776-1.372.406-1.73zM35.64 16.267c-.432-.279-1.16.065-1.626.767a2.55 2.55 0 00-.084.135l-.004-.003-6.047 10.594 7.613-9.587-.002-.001c.031-.042.062-.085.091-.13.466-.702.492-1.497.06-1.775zM33.215 14.958c-.479-.189-1.126.29-1.445 1.069-.02.05-.039.099-.055.148l-.005-.002-3.847 11.578 5.58-10.894-.002-.001c.023-.047.044-.095.065-.145.319-.779.189-1.564-.29-1.753zM30.58 14.185c-.507-.092-1.048.502-1.208 1.328-.01.053-.019.105-.025.157l-.005-.001-1.497 12.077 3.331-11.743h-.003c.013-.051.025-.103.035-.155.16-.826-.12-1.57-.628-1.663zM28.686 15.367c-.005-.842-.427-1.517-.942-1.51-.516.009-.93.697-.925 1.538 0 .054.003.107.006.159h-.005l1.003 12.189.862-12.218h-.003c.003-.052.004-.105.004-.158zM27.804 27.744l-1.552-12.181h-.003a2.377 2.377 0 00-.027-.156c-.17-.824-.716-1.405-1.22-1.297-.504.108-.775.863-.605 1.687.01.053.023.104.037.154l-.005.001 3.375 11.792zM27.786 27.75l-3.893-11.638-.003.002a2.6 2.6 0 00-.057-.149c-.328-.775-.977-1.238-1.45-1.035-.473.204-.591.997-.263 1.773.02.049.043.097.066.144l-.004.002 5.604 10.901zM27.77 27.76l-6.095-10.646-.003.002a2.684 2.684 0 00-.085-.134c-.473-.697-1.201-1.026-1.625-.734-.425.291-.384 1.092.09 1.79.03.043.06.086.093.128l-.005.002 7.63 9.592zM27.755 27.772l-8.088-9.286-.002.003a2.571 2.571 0 00-.11-.115c-.6-.592-1.38-.773-1.738-.405-.359.369-.162 1.147.439 1.738a2.6 2.6 0 00.116.108l-.003.003 9.386 7.954zM27.744 27.787l-9.72-7.539-.002.003a2.316 2.316 0 00-.13-.091c-.705-.464-1.504-.49-1.784-.06-.28.431.066 1.156.771 1.62.045.03.09.057.136.083l-.003.004 10.732 5.98zM27.734 27.803L16.7 22.288l-.001.004a2.533 2.533 0 00-.146-.065c-.783-.317-1.571-.188-1.761.289-.19.477.29 1.12 1.074 1.438.05.02.099.039.149.055l-.002.005 11.72 3.79zM27.729 27.822l-11.886-3.279v.004a2.602 2.602 0 00-.156-.035c-.83-.16-1.578.12-1.671.625-.093.504.505 1.043 1.335 1.202.052.01.105.019.157.025l-.001.005 12.222 1.453z" fill="#fff"/><path d="M32.655 29.181c.722-2.628-.853-5.348-3.519-6.073-2.665-.726-5.412.817-6.134 3.445-.723 2.629.852 5.348 3.518 6.074 2.666.725 5.412-.817 6.135-3.446z" fill="url(#paint2_linear)"/><path d="M31.972 27.527l-.053.001v-.001l-4.087.31 4.077.313v-.001a.848.848 0 00.053.002c.28.001.51-.137.513-.31.002-.172-.223-.313-.503-.314zM31.958 28.35a.9.9 0 00-.052-.008v-.002l-4.075-.497 3.945 1.107v-.002a.897.897 0 00.052.013c.274.056.526-.034.562-.203.036-.168-.157-.35-.432-.407zM31.772 29.149a.98.98 0 00-.05-.02l-3.893-1.28 3.648 1.852v-.002a.817.817 0 00.049.022c.259.11.523.07.591-.087.068-.159-.086-.376-.345-.485zM31.433 29.9a.76.76 0 00-.045-.029l-3.562-2.016 3.21 2.528.002-.001.043.03c.232.16.5.173.596.031.098-.142-.012-.385-.244-.543zM30.969 30.579a.774.774 0 00-.038-.037l-3.109-2.682 2.665 3.115h.001a.867.867 0 00.036.038c.197.201.457.267.58.147.123-.12.062-.38-.135-.581zM30.373 31.135a.843.843 0 00-.03-.044l-2.526-3.228 2.007 3.566h.001l.028.044c.155.236.396.352.54.258.144-.093.135-.36-.02-.596zM29.684 31.582a.737.737 0 00-.022-.049h.002l-1.853-3.667 1.277 3.896h.002c.005.017.011.033.018.05.106.262.32.422.48.359.159-.064.202-.328.096-.59zM28.922 31.872a1.08 1.08 0 00-.012-.052h.001l-1.105-3.952.496 4.064h.002a.907.907 0 00.009.052c.053.278.232.477.4.446.169-.03.262-.28.209-.558zM28.135 31.973h.001L27.8 27.87l-.282 4.095h.002a.853.853 0 00-.002.053c-.002.283.136.514.307.516.17.003.31-.224.313-.507a.85.85 0 00-.002-.053zM27.793 27.869l-1.07 3.96h.002a.957.957 0 00-.012.053c-.056.277.034.53.2.567.168.036.35-.16.406-.436a.893.893 0 00.009-.052l.465-4.092zM27.787 27.866l-1.809 3.663h.002a.761.761 0 00-.022.049c-.11.26-.07.527.087.595.157.068.372-.087.481-.348a.968.968 0 00.02-.05v.001l1.241-3.91zM27.782 27.863l-2.48 3.222v.001a.687.687 0 00-.03.043c-.157.234-.17.504-.03.601.14.098.382-.012.54-.246l.028-.045 1.972-3.576zM27.777 27.86l-3.064 2.671.001.002a.807.807 0 00-.039.036c-.2.198-.264.46-.145.583.119.124.377.063.576-.135a.734.734 0 00.037-.04v.002l2.634-3.12zM27.773 27.854l-3.51 2.009v.001a.713.713 0 00-.044.028c-.234.156-.349.4-.256.544.093.145.358.136.592-.02l.043-.03 3.175-2.532zM27.77 27.849l-3.838 1.273v.002a.937.937 0 00-.05.018c-.26.107-.419.323-.356.483.064.16.325.204.585.097a.783.783 0 00.048-.021l3.611-1.852zM27.768 27.843l-4.005.488v.001a.837.837 0 00-.052.009c-.275.053-.473.234-.443.404.031.169.28.263.555.21a.73.73 0 00.052-.012l3.893-1.1zM27.766 27.837l-4.077-.307v.001a.824.824 0 00-.053-.002c-.28-.001-.51.137-.513.31-.003.172.223.313.503.314l.053-.001v.001l4.087-.316zM27.767 27.83l-3.945-1.1v.002a.827.827 0 00-.052-.012c-.275-.057-.527.033-.563.202-.035.168.158.35.433.408a.904.904 0 00.052.009l4.075.491zM27.769 27.824L24.12 25.98l-.001.002a.949.949 0 00-.048-.022c-.259-.11-.523-.07-.591.088-.068.158.086.375.345.484a.727.727 0 00.05.02h-.001l3.894 1.273zM27.772 27.819l-3.211-2.522-.001.001a.917.917 0 00-.043-.031c-.232-.158-.5-.172-.597-.03-.097.142.013.385.245.544.015.01.03.02.045.028l3.562 2.01zM27.776 27.814l-2.665-3.11v.002a.874.874 0 00-.037-.04c-.197-.2-.457-.266-.58-.146-.122.12-.062.38.136.581a.822.822 0 00.038.037h-.001l3.109 2.675zM27.78 27.81l-2.006-3.559-.001.001a.796.796 0 00-.028-.045c-.154-.236-.396-.352-.54-.258-.143.093-.134.36.02.596l.03.044 2.526 3.22zM27.787 27.807l-1.277-3.89-.001.001a.89.89 0 00-.019-.05c-.105-.261-.32-.422-.48-.359-.158.064-.202.327-.096.59a.826.826 0 00.022.048h-.001l1.852 3.66zM27.793 27.805l-.497-4.057h-.002a.609.609 0 00-.008-.052c-.053-.278-.233-.478-.401-.447-.168.031-.262.282-.208.559a.727.727 0 00.011.052l1.105 3.945zM28.133 23.656c.002-.282-.136-.514-.307-.516-.17-.003-.31.224-.312.506l.001.054.285 4.104.333-4.095h-.002a.845.845 0 00.002-.053zM28.736 23.224c-.167-.036-.348.16-.404.436a.887.887 0 00-.01.053l-.515 4.091 1.12-3.96h-.002a.82.82 0 00.012-.053c.057-.277-.033-.53-.2-.567zM29.605 23.5c-.157-.069-.372.087-.481.348a1.17 1.17 0 00-.02.05v-.001l-1.292 3.91 1.86-3.663h-.002a.71.71 0 00.022-.049c.11-.26.07-.527-.087-.595zM30.409 23.943c-.14-.098-.382.012-.54.246a.748.748 0 00-.028.045l-2.023 3.576 2.532-3.222-.002-.001a.83.83 0 00.031-.043c.157-.234.17-.503.03-.601zM31.12 24.52c-.119-.123-.377-.062-.577.137a.82.82 0 00-.036.038h-.001l-2.684 3.119 3.115-2.672-.001-.001a.774.774 0 00.038-.036c.2-.2.265-.46.146-.584zM31.687 25.237c-.093-.145-.357-.136-.592.02a.813.813 0 00-.043.03l-3.226 2.532 3.561-2.01a.796.796 0 00.045-.028c.234-.156.348-.4.255-.544zM32.124 26.048c-.063-.16-.325-.204-.584-.097a.817.817 0 00-.049.021l-3.661 1.852 3.889-1.273v-.002a.878.878 0 00.049-.018c.26-.107.42-.323.356-.483zM32.382 26.928c-.03-.169-.28-.263-.554-.21a.846.846 0 00-.052.012l-3.945 1.1 4.056-.487v-.002a.805.805 0 00.052-.009c.275-.053.474-.234.443-.404z" fill="#fff"/><path d="M13.518 30.602H41.98v-5.518H13.518v5.518z" fill="url(#paint3_linear)"/><path d="M14.057 29.826v-.191h.546v-3.632h-.546v-.195h2.14v.195h-.6v3.626h.382c.466.006.6-.03.811-.23.243-.228.388-.482.534-.934h.181l-.06 1.36h-3.388zM19.576 29.63h.545v.196h-2.06v-.191h.527v-3.632h-.52v-.195h2.06v.195h-.552v3.626zM22.156 27.82h.303c.593 0 .775.199.775.83 0 .499-.037.673-.176.818-.115.12-.285.162-.666.162h-.236v-1.81zm0-.204v-1.613h.32c.546 0 .66.151.66.876 0 .61-.127.737-.75.737h-.23zm.914.096c.352-.072.46-.102.655-.21a.873.873 0 00.461-.75.872.872 0 00-.242-.58c-.243-.254-.595-.364-1.146-.364h-2.139v.195h.51v3.627h-.51v.195h2.072c1.012 0 1.6-.406 1.6-1.103a.823.823 0 00-.224-.589c-.218-.234-.449-.33-1.037-.42zM26.503 27.695h.127c.412.006.66-.235.728-.704h.2v1.645h-.195c-.06-.533-.266-.745-.733-.745h-.127v1.738h.685c.37.006.606-.097.812-.345.194-.23.303-.46.382-.775h.206l-.085 1.317H25v-.191h.509v-3.632H25v-.195h3.382l.054 1.122h-.2c-.133-.397-.266-.602-.49-.758-.188-.126-.364-.169-.728-.169h-.515v1.692zM30.716 27.585v-1.597h.44c.536 0 .65.146.65.799 0 .617-.157.798-.706.798h-.384zm0 .195h.22c.512 0 .652.193.683.953.018.494.09.711.314.898.17.138.436.21.738.21.266 0 .436-.03.654-.15v-.223c-.157.084-.23.103-.34.103-.193 0-.242-.079-.248-.404-.006-.53-.024-.645-.127-.838-.157-.295-.471-.494-.985-.622.828-.11 1.3-.46 1.3-.98 0-.376-.315-.714-.792-.846-.224-.06-.49-.09-.886-.09h-2.02v.197h.51v3.649h-.51v.192h2.02v-.192h-.53V27.78zM37.22 25.808l.025 1.317h-.182c-.079-.554-.291-.922-.594-1.061a.932.932 0 00-.345-.06h-.067v3.625h.618v.197h-2.206v-.191h.6v-3.632h-.09c-.492 0-.752.308-.94 1.122h-.176l.018-1.317h3.34zM39.685 25.808v.195h-.46l.901 1.7.703-1.362.06-.15a.224.224 0 00.03-.091c0-.073-.048-.097-.188-.097h-.157v-.195H41.6v.195c-.334.006-.37.024-.529.338l-.854 1.614v1.675h.636v.195H38.62v-.195h.617v-1.627l-1.15-2H37.8v-.195h1.884zM27.388 12.407l.445.006.16-.413.132.423.444.025-.363.255.113.428-.356-.265-.374.24.144-.42-.345-.28zM39.701 17.878l.272.35.425-.131-.25.365.257.362-.428-.125-.266.356-.012-.443-.422-.142.419-.149.005-.443zM43.35 31.519l-.443.046-.11.429-.181-.405-.445.029.331-.297-.164-.412.386.222.342-.283-.092.434.376.237zM34.065 41.396l.445.027.18-.406.111.43.443.044-.375.238.094.433-.344-.282-.385.223.163-.412-.332-.295zM20.636 41.685l.443-.042.115-.428.176.407.445-.024-.334.293.16.413-.383-.225-.346.279.097-.432-.373-.241zM12.18 31.416l.398-.2-.05-.44.313.315.405-.183-.203.393.3.327-.44-.07-.219.385-.068-.438-.436-.09zM15.334 17.974l.425.131.271-.35.006.442.42.148-.422.143-.012.443-.266-.355-.427.125.256-.361-.251-.366z" fill="#fff"/><path d="M26.78 12.752a.522.522 0 01-.499.543c-4.138.184-7.452 2.86-8.925 4.325a.525.525 0 01-.74 0 .519.519 0 010-.736c1.53-1.523 5.082-4.427 9.619-4.63a.522.522 0 01.546.498zM15.373 19.345c.23.174.276.5.102.73-2.502 3.285-2.552 7.531-2.36 9.596a.523.523 0 01-1.042.096c-.2-2.144-.175-6.72 2.567-10.321a.525.525 0 01.733-.1zM29.22 12.752c-.014.287.21.53.499.543 4.138.184 7.452 2.86 8.925 4.325a.525.525 0 00.74 0 .519.519 0 000-.736c-1.53-1.523-5.082-4.427-9.619-4.63a.522.522 0 00-.546.498zM40.627 19.345a.519.519 0 00-.102.73c2.502 3.285 2.552 7.531 2.36 9.596a.523.523 0 001.042.096c.2-2.144.175-6.72-2.567-10.321a.525.525 0 00-.733-.1zM13.345 32.306a.523.523 0 01.633.382c.985 4.004 4.264 6.72 5.996 7.874a.52.52 0 01.143.722.525.525 0 01-.726.143c-1.798-1.198-5.35-4.102-6.43-8.492a.52.52 0 01.384-.63zM22.216 42.373a.524.524 0 01.686-.277c3.816 1.604 7.964.607 9.927-.086a.52.52 0 11.35.982c-2.04.72-6.501 1.822-10.684.063a.52.52 0 01-.279-.682zM42.713 32.306a.523.523 0 00-.633.382c-.984 4.004-4.264 6.72-5.995 7.874a.52.52 0 00-.144.722c.161.24.486.303.726.143 1.798-1.198 5.35-4.102 6.43-8.492a.52.52 0 00-.384-.63z" fill="#fff"/><defs><linearGradient id="paint0_linear" x1="10.418" y1="9.712" x2="68.147" y2="76.017" gradientUnits="userSpaceOnUse"><stop stop-color="#1A1E21"/><stop offset="1" stop-color="#06060A"/></linearGradient><linearGradient id="paint2_linear" x1="24.687" y1="31.093" x2="34.851" y2="19.27" gradientUnits="userSpaceOnUse"><stop stop-color="#1A1E21"/><stop offset="1" stop-color="#06060A"/></linearGradient><linearGradient id="paint3_linear" x1="18.813" y1="29.645" x2="20.698" y2="18.477" gradientUnits="userSpaceOnUse"><stop stop-color="#1A1E21"/><stop offset="1" stop-color="#06060A"/></linearGradient></defs></svg>