<!-- by TradingView --><svg xmlns="http://www.w3.org/2000/svg" width="56" height="56" viewBox="0 0 56 56"><path d="M56 0H0v56h56V0Z" fill="#F0F3FA"/><path d="M36 24.37c-.02-1.79-.35-3.54-1.17-5.13a11.6 11.6 0 0 0-8.44-6.08c-1.77-.3-3.7-.21-5.41.32a15.82 15.82 0 0 0-7.48 7.63 11.52 11.52 0 0 0 5.56 13.56c1.56.84 3.3 1.26 5.07 1.32h3.8c-1.61 0-3.18-.43-4.51-1.32A7.97 7.97 0 0 1 20 28a7.9 7.9 0 0 1 2.2-5.81 8.11 8.11 0 0 1 12.47 1.24A7.44 7.44 0 0 1 36 27.97v-3.6Z" fill="#00AB57"/><path d="M30.96 35.98h-6.82a11.33 11.33 0 0 1-9-4.74 11.72 11.72 0 0 1-1.64-10.12 15.97 15.97 0 0 0-1.48 7.45 15.9 15.9 0 0 0 7.32 12.77 16.18 16.18 0 0 0 7.17 2.64c.49.05 14.96 0 14.96 0-2.36-3.65-6.03-7.3-10.5-8Z" fill="#00B2BA"/><path d="M43.97 27.72c0-2.65-.7-5.25-2-7.57a15.87 15.87 0 0 0-5.5-5.68 16.4 16.4 0 0 0-15.5-.98 12.38 12.38 0 0 1 5.36-.34 11.4 11.4 0 0 1 8.4 6C35.86 21.48 36 23.1 36 26v4c-.02 4.4 4.66 8.9 7.98 10.98l-.01-13.26Z" fill="#D3DF4E"/><path style="mix-blend-mode:multiply" opacity=".4" d="M39.77 17.16a15.78 15.78 0 0 0-2.04-1.83 15.76 15.76 0 0 1 3.25 9.35L41 38.73c1.18 1.06 1.77 1.44 2.98 2.25v-13c.02-4.29-1.54-7.84-4.21-10.82Z" fill="url(#amqld20aq)"/><path style="mix-blend-mode:multiply" opacity=".4" d="M36.41 41H25.63c-2.16-.03-4.41-.3-6.45-1.05a15.5 15.5 0 0 1-3.77-2.2h-.04A16.86 16.86 0 0 0 26.96 44c4.98 0 9.53-.04 14.51.02A23.22 23.22 0 0 0 39.21 41h-2.8Z" fill="url(#bmqld20aq)"/><path style="mix-blend-mode:multiply" opacity=".4" d="M36 24.95c.05-4.07-1.52-7.45-4.78-9.82a10.86 10.86 0 0 0-4.85-1.98c-1.93-.32-3.4-.21-5.38.33a15.77 15.77 0 0 0-7.48 7.6 11.49 11.49 0 0 0 1.6 10.11 11.6 11.6 0 0 0 3.95 3.49A11.5 11.5 0 0 0 24.13 36h3.85c-1.6 0-3.22-.44-4.56-1.34A7.92 7.92 0 0 1 20 28a7.88 7.88 0 0 1 2.22-5.85 8.09 8.09 0 0 1 12.44 1.26A7.38 7.38 0 0 1 36 27.93v-2.98Z" fill="url(#cmqld20aq)"/><defs><linearGradient id="amqld20aq" x1="49.21" y1="37.38" x2="22" y2="35.83" gradientUnits="userSpaceOnUse"><stop offset=".24" stop-color="#231F20"/><stop offset=".54" stop-color="#fff"/></linearGradient><linearGradient id="bmqld20aq" x1="36.91" y1="49.33" x2="35.44" y2="21.27" gradientUnits="userSpaceOnUse"><stop offset=".24" stop-color="#231F20"/><stop offset=".54" stop-color="#fff"/></linearGradient><linearGradient id="cmqld20aq" x1="16.15" y1="32.4" x2="32.43" y2="16.11" gradientUnits="userSpaceOnUse"><stop offset=".04" stop-color="#231F20"/><stop offset=".06" stop-color="#393536"/><stop offset=".12" stop-color="#6D6A6B"/><stop offset=".19" stop-color="#9A9898"/><stop offset=".25" stop-color="#BEBDBD"/><stop offset=".32" stop-color="#DBDADA"/><stop offset=".38" stop-color="#EFEFEF"/><stop offset=".44" stop-color="#FBFBFB"/><stop offset=".5" stop-color="#fff"/><stop offset=".57" stop-color="#FBFBFB"/><stop offset=".63" stop-color="#EFEFEF"/><stop offset=".69" stop-color="#DCDBDB"/><stop offset=".76" stop-color="#C0BFBF"/><stop offset=".82" stop-color="#9D9B9B"/><stop offset=".88" stop-color="#716E6F"/><stop offset=".94" stop-color="#3E3B3C"/><stop offset=".97" stop-color="#231F20"/></linearGradient></defs></svg>