<!-- by TradingView --><svg xmlns="http://www.w3.org/2000/svg" width="56" height="56"><path fill="#F0F3FA" d="M0 0h56v56H0z"/><path d="M14.35 21.53L10 25.75 27.46 45 46 26.66l-5.91-2.72-12.63 12.24-13.11-14.65z" fill="url(#abehjp1pi)"/><path d="M10 25.75L27.46 45 46 26.66 27.46 43.38 10 25.75z" fill="#152F3F"/><path d="M26.75 11l2.7 8.83 8.62 3.53-10.6 10.3L16 21.02 26.75 11z" fill="url(#bbehjp1pi)"/><path d="M26.75 11L16 21l10.47-8.68 2.69 7.8 8.91 3.24-8.63-3.53L26.75 11z" fill="#9BC35B"/><defs><linearGradient id="abehjp1pi" x1="28" y1="21.53" x2="28" y2="45" gradientUnits="userSpaceOnUse"><stop stop-color="#193241"/><stop offset="1" stop-color="#717276"/></linearGradient><linearGradient id="bbehjp1pi" x1="27.04" y1="11" x2="27.04" y2="33.67" gradientUnits="userSpaceOnUse"><stop stop-color="#DDEBC0"/><stop offset="1" stop-color="#8BC53D"/></linearGradient></defs></svg>