<!-- by TradingView --><svg width="56" height="56" viewBox="0 0 56 56" xmlns="http://www.w3.org/2000/svg"><path fill="#F0F3FA" d="M0 0h56v56H0z"/><path d="M41.7 26h1.47c.65 0 1.94.2 1.94 1.09 0 1.11-1.07 1.41-1.27 1.46.35 0 1.2.52 1.4.82.19.3.96 1.36 2.35 1.36.25 0 .6-.22.74-.32v.2c-.12.13-.47.39-.97.39-.62 0-1.29-.12-2.85-1.53l-.24-.21c-.4-.35-.81-.71-1.68-.71v1.98c.05.12.2.35.38.35V31h-1.3v-.1c.12-.05.33-.2.33-.37v-4.1c-.03-.1-.14-.26-.3-.28V26Zm.89.45v1.88c.61.04 1.85-.1 1.85-.97 0-.82-1.24-.91-1.85-.91ZM27.67 26h-.9v.1c.18.1.23.29.23.37v4.04c0 .14-.17.3-.26.36V31h1.11v-.13c-.17 0-.25-.24-.28-.36v-3.4l3 3.89v-4.59c0-.14.16-.26.24-.3V26h-1v.1c.12.05.17.23.19.31v2.8l-2.33-2.95V26ZM13 31v-.08c.1 0 .29-.14.34-.58a422.4 422.4 0 0 1 .52-3.87c0-.13-.06-.26-.2-.36V26h.75l1.11 2.1 1.1-2.1h.73v.1c-.13.11-.2.24-.2.37l.02.3.5 3.57c.05.44.24.57.33.58V31h-1.06v-.1c.1-.03.24-.19.24-.32 0-.1-.03-.26-.04-.32l-.41-3.1-1.2 2.05-1.23-2.05-.4 3.1c-.02.06-.05.21-.05.32 0 .13.14.29.25.31V31H13ZM7.92 30.06l.08.07c-.16.07-.43.6-.55.85-1.13.01-3.4.04-3.4 0 .12-.09.2-.27.23-.35v-4.1c0-.2-.19-.36-.28-.42l.08-.11H5.1c.03.02.2.07.2.13-.16.04-.27.28-.3.4v3.97c.17.05.5.13.92.13.88 0 1.7-.38 2-.57ZM9.74 26h1.17v.16a.5.5 0 0 0-.26.44v3.72c0 .2.1.36.26.44V31H9.74v-.24a.5.5 0 0 0 .26-.44V26.6a.5.5 0 0 0-.26-.44V26ZM38.74 26h1.17v.16a.5.5 0 0 0-.26.44v3.72c0 .2.1.36.26.44V31h-1.17v-.24a.5.5 0 0 0 .26-.44V26.6a.5.5 0 0 0-.26-.44V26Z"/><path fill-rule="evenodd" d="M22.5 31a2.5 2.5 0 1 0 0-5 2.5 2.5 0 0 0 0 5Zm-.08-4.41c-.6 0-1.8.35-1.8 1.77a2.2 2.2 0 0 0 2.1 2.18c1.08 0 1.72-1.07 1.72-1.97 0-.9-.64-1.98-2.02-1.98Z"/><path d="M36.06 26.6V26h-3.31c.2.1.25.3.25.4v4.08c0 .29-.17.47-.25.52h3.74c.02-.15.35-.58.51-.79a.48.48 0 0 1-.08-.1c-.43.34-1.27.55-1.88.55a8.5 8.5 0 0 1-1.36-.13v-2.67h.78l.32.23v-.8l-.35.2h-.75v-1.15h1.8c.28 0 .5.17.58.26ZM47 30.72 49.4 26l2.2 4.48c.05.1.22.33.4.36V31h-1.24v-.11c.08-.03.23-.12.23-.25L50.2 29h-1.74l-.97 1.92-.5-.2Zm1.59-1.96h1.5l-.73-1.55-.77 1.55Z"/></svg>