<!-- by TradingView --><svg width="56" height="56" viewBox="0 0 56 56" xmlns="http://www.w3.org/2000/svg"><path fill="#F0F3FA" d="M0 0h56v56H0z"/><path d="M37 20c3 0 5.41-.12 7.72.77l.2.1.06-.12c-2.5-1.46-6.15-1.88-9.83-1.72-2.52.09-5 .69-7.28 1.75.62.3 1.22.64 1.79 1.02A16.57 16.57 0 0 1 37 20ZM44.94 34.57l-.04.02c-2.45 1.17-4.86 1.25-7.39 1.38a15.28 15.28 0 0 1-7.7-1.4 9.06 9.06 0 0 1-2-1.24c-1.57-1.23-2.8-3.02-2.81-5.08 0-1.97 1.1-3.8 2.87-5.26-.55-.45-1.15-.85-1.78-1.2-2.62 1.77-4.2 4.2-4.1 6.8.1 2.36 1.58 4.45 3.9 5.95l.04.02c.62.4 1.27.74 1.94 1.03a18.6 18.6 0 0 0 8.09 1.38c3.5-.15 6.65-.75 9-2.3l.04-.02-.06-.08Z" fill="#7A2682"/><path d="M25.93 34.57c-.23.1-.46.22-.69.31a15.96 15.96 0 0 1-7 1.09c-2.44-.13-4.84-.2-7.2-1.25l-.04.13c2.31 1.41 5.43 1.98 8.8 2.12a18.3 18.3 0 0 0 8.07-1.38l-.23-.1a13.7 13.7 0 0 1-1.71-.92ZM29.66 21.8a14.2 14.2 0 0 0-1.79-1.02 18.7 18.7 0 0 0-7.27-1.75c-3.57-.15-7.1.24-9.6 1.6l.05.13c2.3-.88 4.95-.76 7.64-.76 2.58.08 5.11.59 7.4 1.8a12 12 0 0 1 1.78 1.2c1.79 1.45 3.13 3.28 3.13 5.26 0 2.1-1.5 3.85-3.07 5.07l-.06.05c.61.46 1.26.85 1.95 1.19C31.9 33.25 34 31.2 34 28.6c0-2.6-1.72-5.04-4.34-6.8Z" fill="#003A5D"/><path d="M20.94 33c-1.47.45-3.01.37-4.55.37-3.04 0-7.11-1.5-7.39-5.05-.12-3 3.33-5.55 7.73-5.74 1.37-.1 2.87.1 4.2.42l.07-.19c-1.41-.48-3-.81-4.49-.81-3.7 0-9.7 1.73-9.5 6.4.16 3.97 5.12 5.6 8.36 5.6 1.94 0 3.85-.05 5.63-.82l-.06-.18Z" fill="#7A2682"/><path d="M35.06 33c1.47.45 3.01.37 4.55.37 3.04 0 7.11-1.5 7.39-5.05.12-3-3.33-5.55-7.73-5.74-1.37-.1-2.87.1-4.2.42l-.07-.19c1.41-.48 3-.81 4.49-.81 3.7 0 9.7 1.73 9.5 6.4-.16 3.97-5.12 5.6-8.36 5.6-1.94 0-3.85-.05-5.63-.82l.06-.18Z" fill="#00ADBB"/></svg>