<!-- by TradingView --><svg width="56" height="56" viewBox="0 0 56 56" xmlns="http://www.w3.org/2000/svg"><path fill="#F0F3FA" d="M0 0h56v56H0z"/><path d="M27.18 11c-10.14 5.12-14.6 15.5-15.75 20.82a17.07 17.07 0 0 1-.3-5.89 34.77 34.77 0 0 1 11.94-14.22c1.31-.4 2.69-.64 4.1-.71Z" fill="url(#ath0ga1bu)"/><path d="M31.43 11.33c-.8-.17-1.6-.27-2.43-.32-11.08 6.16-15.24 18.5-16.09 24.83.77 1.46 1.74 2.8 2.87 3.98 1.82-16.91 10.8-25.8 15.65-28.5Z" fill="url(#bth0ga1bu)"/><path d="M35.41 12.68c-9.14 8.9-13.3 23.96-14.31 30.86a16.98 16.98 0 0 1-2.93-1.67c.53-13.32 9.15-25.04 14.4-30.27.98.28 1.94.64 2.84 1.08Z" fill="url(#cth0ga1bu)"/><path d="M39.08 15.09A17.04 17.04 0 0 0 37 13.55c-7.66 9.45-11.64 23.69-12.92 31 1.26.3 2.57.45 3.92.45h.07c3.37-14.27 8.53-25.5 11-29.91Z" fill="url(#dth0ga1bu)"/><path d="M45 28.08V28c0-1.27-.14-2.51-.4-3.7-11.33-7.52-23.06-9.07-28.02-8.9-.27.24-.52.5-.77.75C31.38 18.1 41.45 24.64 45 28.08Z" fill="url(#eth0ga1bu)"/><path d="M14.93 17.11c6.32.81 19.86 4.74 29.58 14.97a16.9 16.9 0 0 1-1.43 3.77c-4.63-5.49-16.17-15.88-28.96-17.68.25-.36.52-.71.8-1.06Z" fill="url(#fth0ga1bu)"/><path d="M13.5 19.1c6.75 2.78 20.48 9.96 28.02 19.2a17.1 17.1 0 0 1-2.3 2.46C34.33 35.57 23 25.14 12.7 20.56c.24-.5.51-.99.8-1.46Z" fill="url(#gth0ga1bu)"/><path d="M12.26 21.56c5.3 3.98 17.02 13.3 24.49 21.02a16.9 16.9 0 0 1-3.97 1.74C27.82 39 17.48 28.19 11.72 23.07c.16-.51.34-1.02.54-1.51Z" fill="url(#hth0ga1bu)"/><path d="m12.29 23.58.8-1.39 1.6 1.23a35 35 0 0 0-.83 1.6l-1.57-1.44Z" fill="#15547F"/><path d="M13.81 21.08c.33-.49.67-.97 1.01-1.42.54.23 1.12.5 1.72.78-.35.5-.68 1.01-1 1.52-.58-.3-1.15-.6-1.73-.88Z" fill="#185583"/><path d="M21 22.67c-.92-.5-1.81-.95-2.67-1.37-.35.55-.68 1.1-.99 1.66.89.52 1.78 1.06 2.66 1.63.32-.66.66-1.3 1-1.92Z" fill="#144D7A"/><path d="M19 26.82c-.9-.73-1.78-1.42-2.6-2.07-.31.63-.6 1.26-.86 1.88.83.8 1.7 1.65 2.58 2.53.28-.8.57-1.59.88-2.34Z" fill="#124572"/><path d="M15.76 18.45c.3-.37.6-.72.9-1.06.6.1 1.25.24 1.94.4-.32.36-.63.73-.92 1.1-.63-.17-1.27-.31-1.92-.44Z" fill="#145484"/><path d="M23.26 19.08c-.95-.3-1.88-.58-2.76-.82-.31.4-.62.8-.91 1.2.92.3 1.83.63 2.73 1l.94-1.38Z" fill="#185284"/><path d="M26.85 18.48 28 16.9c1 .26 2.03.56 3.09.9-.4.56-.78 1.13-1.14 1.7-1-.35-2.02-.7-3.1-1.02Z" fill="#144C80"/><path d="M24.82 21.59c.33-.55.67-1.08 1-1.6 1 .38 2.03.8 3.06 1.27-.37.63-.72 1.28-1.06 1.93-.98-.57-1.98-1.1-3-1.6Z" fill="#154777"/><path d="M22.33 26.17c.36-.74.73-1.46 1.1-2.16a96.2 96.2 0 0 1 3.08 1.82c-.4.86-.77 1.72-1.12 2.57-1-.76-2.02-1.51-3.06-2.23Z" fill="#17406C"/><path d="m17.58 16.38.97-.97c.66.03 1.38.08 2.16.16-.4.37-.78.76-1.15 1.15l-1.98-.34Z" fill="#185C8E"/><path d="M25.47 16.32c-.97-.2-1.9-.37-2.79-.5-.41.42-.81.84-1.2 1.28.96.2 1.88.42 2.79.65.4-.5.8-.98 1.2-1.43Z" fill="#13598A"/><path d="M20.23 31.27c.31-.9.65-1.78 1-2.64l3.09 2.56a72.4 72.4 0 0 0-1.06 3.16c-1-1.03-2.02-2.07-3.03-3.08Z" fill="#233863"/><path d="M36.64 19.92c-1.07-.47-2.13-.9-3.17-1.3-.37.6-.72 1.22-1.06 1.84 1.18.48 2.28.99 3.32 1.5.31-.72.62-1.4.91-2.04Z" fill="#174677"/><path d="M34.73 24.3a53.7 53.7 0 0 0-3.37-1.86c-.37.75-.73 1.5-1.08 2.26 1.17.76 2.29 1.55 3.35 2.35.37-.95.74-1.87 1.1-2.74Z" fill="#17406F"/><path d="M32.55 29.94a78.37 78.37 0 0 0-3.48-2.46c-.4.98-.77 1.95-1.13 2.92 1.2.97 2.36 1.94 3.45 2.9.39-1.16.77-2.28 1.16-3.36Z" fill="#17395F"/><path d="M30.38 36.47c-1.14-1.03-2.3-2.06-3.47-3.07-.4 1.23-.76 2.44-1.09 3.6a683.4 683.4 0 0 1 3.39 3.53c.37-1.4.77-2.75 1.17-4.06Z" fill="#1C2E52"/><defs><linearGradient id="ath0ga1bu" x1="27.19" y1="10.98" x2="10.51" y2="31.03" gradientUnits="userSpaceOnUse"><stop stop-color="#156CA7"/><stop offset="1" stop-color="#044B78"/></linearGradient><linearGradient id="bth0ga1bu" x1="29.9" y1="11.41" x2="12.89" y2="37.99" gradientUnits="userSpaceOnUse"><stop stop-color="#0A70B9"/><stop offset=".72" stop-color="#003C70"/></linearGradient><linearGradient id="cth0ga1bu" x1="33.24" y1="11.65" x2="19.22" y2="43.56" gradientUnits="userSpaceOnUse"><stop stop-color="#0A70B7"/><stop offset=".69" stop-color="#003A68"/></linearGradient><linearGradient id="dth0ga1bu" x1="37.9" y1="14.51" x2="25.61" y2="45" gradientUnits="userSpaceOnUse"><stop stop-color="#0073C7"/><stop offset=".72" stop-color="#003D6C"/></linearGradient><linearGradient id="eth0ga1bu" x1="16.14" y1="15.22" x2="45.67" y2="27.45" gradientUnits="userSpaceOnUse"><stop stop-color="#2C9DDF"/><stop offset=".77" stop-color="#003F71"/></linearGradient><linearGradient id="fth0ga1bu" x1="14.47" y1="16.88" x2="47.64" y2="26.58" gradientUnits="userSpaceOnUse"><stop stop-color="#2C9DDF"/><stop offset=".63" stop-color="#003F71"/></linearGradient><linearGradient id="gth0ga1bu" x1="13.03" y1="18.83" x2="45.33" y2="26.57" gradientUnits="userSpaceOnUse"><stop stop-color="#2C9DDF"/><stop offset=".57" stop-color="#003F71"/></linearGradient><linearGradient id="hth0ga1bu" x1="12.01" y1="21.28" x2="40.55" y2="26.93" gradientUnits="userSpaceOnUse"><stop stop-color="#2C9DDF"/><stop offset=".55" stop-color="#003F71"/></linearGradient></defs></svg>