<!-- by TradingView --><svg xmlns="http://www.w3.org/2000/svg" width="56" height="56" viewBox="0 0 56 56"><path fill="#F0F3FA" d="M0 0h56v56H0z"/><path d="M26.8 40.74c8.27 0 14.98-6.61 14.98-14.76 0-6.5-4.26-12-10.17-13.98a15.7 15.7 0 0 1 11.98 15.17c0 8.64-7.11 15.65-15.9 15.65a15.77 15.77 0 0 1-15.87-16.25 14.88 14.88 0 0 0 14.97 14.17Z" fill="#68729E"/><path d="M11 16.53c.14-2.25 2.24-2.55 3.26-2.42a2.44 2.44 0 0 0-1.94 2.42c.18 4.03 4.92 7.75 7.26 9.11-5.6-2.5-8.74-6.3-8.57-9.11ZM40.96 25.87c6.6 3.9 5.17 7.18 3.63 8.32 3.4-1 3.54-2.92 3.36-3.78-1.47-7.02-17.7-10.27-25.07-10.7 3.7.6 9.84 1.28 18.08 6.16ZM14.01 44c-2.54.1-2.09-2.4-1.54-3.67 0 1.85 1.3 2.06 1.96 1.94 6.53-1.12 14.7-8.65 17.98-12.27-7.1 9.14-15.22 13.87-18.4 14Z" fill="#752B8B"/><ellipse cx="27.51" cy="26.5" rx="12.22" ry="12.04" fill="#E3D9B1"/><circle cx="27.5" cy="26.5" fill="#F4DC7A" r="8.5"/><circle cx="27.5" cy="26.5" fill="#FBD407" r="4.5"/></svg>