<!-- by TradingView --><svg width="56" height="56" viewBox="0 0 56 56" xmlns="http://www.w3.org/2000/svg"><path fill="#0A1449" d="M0 0h56v56H0z"/><path d="M14 16.94v18.4c0 3.13 2.5 5.66 5.57 5.66h9.5c.51 0 .93-.42.93-.94v-2.18c0-.52-.42-.88-.93-.88H19.02c-.52 0-1.02-.49-1.02-1V16.93c0-.52-.33-.94-.84-.94h-2.23a.94.94 0 0 0-.93.94Zm13-.27c0-.37.33-.67.73-.67h16.54c.4 0 .73.3.73.67v2.66c0 .37-.33.67-.73.67H38v20.26c0 .4-.3.74-.67.74h-2.66c-.37 0-.67-.33-.67-.74V20h-6.27c-.4 0-.73-.3-.73-.67v-2.66Z" fill="#fff"/></svg>