<!-- by TradingView --><svg width="56" height="56" viewBox="0 0 56 56" xmlns="http://www.w3.org/2000/svg"><path fill="#F0F3FA" d="M0 0h56v56H0z"/><path d="m45 19.68-.84 21.4A1.97 1.97 0 0 1 42.22 43H13.78c-1.04 0-1.9-.85-1.94-1.92L11 19.68a2 2 0 0 1 1.54-2.03l5.22-1.15C18.1 14 20.6 9 28 9s9.91 5 10.24 7.5l5.22 1.15A2 2 0 0 1 45 19.68Z" fill="#FDC526"/><path fill-rule="evenodd" d="m36.74 17.88-.1-.7a6.92 6.92 0 0 0-2.02-3.82C33.32 12.08 31.24 11 28 11s-5.32 1.08-6.62 2.36a6.92 6.92 0 0 0-2.02 3.83l-.1.7-5.6 1.23a.87.87 0 0 0-.66.9l.79 20.13c.02.5.4.85.83.85h26.76c.42 0 .81-.35.83-.85L43 20.02a.87.87 0 0 0-.67-.9l-5.6-1.24ZM43.2 40.2 44 20.05a1.87 1.87 0 0 0-1.45-1.91l-4.91-1.08C37.33 14.7 34.97 10 28 10c-6.97 0-9.33 4.7-9.64 7.06l-4.9 1.08c-.88.19-1.5 1-1.46 1.91l.79 20.14c.04 1.01.85 1.81 1.83 1.81h26.76c.98 0 1.8-.8 1.83-1.8Z" fill="#F83B19"/><path d="M26.69 14.03a.74.74 0 0 0-.22.28c-.06.11-.06.12-.06.3 0 .17 0 .17.05.25.09.14.23.24.43.3.18.06.16.05.17.15 0 .05 0 .14.03.2.05.19.05.18-.03.2-.2.05-.49.25-.66.47-.1.13-.17.25-.23.4a.74.74 0 0 0-.05.28c0 .2 0 .26.08.42.05.12.2.28.28.34.14.08.26.1.43.1.38 0 .78-.18 1.1-.5.28-.28.4-.58.38-.9 0-.15-.01-.18-.06-.18-.02 0-.05.03-.1.11-.21.32-.5.57-.75.67a.74.74 0 0 1-.2.03c-.09 0-.12 0-.18-.04-.14-.07-.2-.2-.18-.39.02-.23.2-.46.44-.53.08-.03.09-.03.2 0l.18.03h.07l.17-.18.2-.22c.01-.04.01-.05 0-.07l-.09-.02a1.1 1.1 0 0 1-.18-.03c-.1-.03-.13-.04-.19-.1-.07-.07-.1-.11-.07-.13l.1-.03c.43-.05.8-.33.96-.7.04-.1.05-.24.01-.32a.41.41 0 0 0-.2-.19.9.9 0 0 0-.48 0 1.56 1.56 0 0 0-.78.56c-.03.05-.08.04-.19-.03a.57.57 0 0 1-.26-.44c0-.11-.04-.14-.12-.1Zm1.67.56c.05.04.02.1-.1.17a.71.71 0 0 1-.3.08c-.07-.03.07-.17.22-.23.1-.03.14-.04.18-.02ZM29.47 14.08a.68.68 0 0 0-.25.07c-.02.03-.01.05.04.2.05.15.06.26.06.54 0 .35-.05.73-.18 1.22a12 12 0 0 1-.47 1.45c0 .06 0 .06.06.06s.08 0 .16-.05c.43-.3.95-1.26 1.18-2.2.06-.27.09-.63.05-.83a.64.64 0 0 0-.18-.34.59.59 0 0 0-.47-.12ZM30.68 17.48c-.21.12-.66.25-.96.3l-.25.03a10.29 10.29 0 0 1-1.33.12 6.91 6.91 0 0 0-1 .13c-.54.1-.88.32-1.04.63-.05.1-.02.13.1.07.11-.06.18-.08.35-.12a9.4 9.4 0 0 1 2.1 0l.41.01h.31l.17-.05c.2-.07.42-.19.43-.23 0-.05-.05-.07-.13-.06-.1.01-.17 0-.14-.03a2.39 2.39 0 0 0 1.02-.65c.1-.1.13-.15.13-.17 0-.02-.01-.04-.03-.04a.63.63 0 0 0-.14.06ZM35.12 17.67a9.56 9.56 0 0 1-.84 3.1c-.11.28-.4.96-.6 1.39l-.08.2-.11.24a64.45 64.45 0 0 0-.9 1.94 25.53 25.53 0 0 0-.54 1.27c-.6 1.42-.9 2.48-1 3.35-.02.22-.02.7 0 .9.05.42.2.82.41 1.12.11.16.32.4.37.4.04.02.08-.02.07-.06l-.02-.24a6.5 6.5 0 0 1 .62-2.53 3.74 3.74 0 0 1 .15-.38l.22-.53.1-.23.21-.48a19.97 19.97 0 0 1 .3-.67l.25-.54.3-.67a44.2 44.2 0 0 0 1.15-2.74 15.16 15.16 0 0 0 .6-2.06 4.2 4.2 0 0 0 0-1.82 1.8 1.8 0 0 0-.43-.8c-.13-.15-.19-.2-.23-.16ZM22.07 18.26c-.8.04-1.62.26-2.48.69-1.25.62-2.21 1.52-2.51 2.36-.04.1-.08.33-.08.43 0 .29.12.56.35.78.08.07.11.07.18-.04a7.58 7.58 0 0 1 1.83-1.8 4.9 4.9 0 0 1 2.2-.85c.98-.11 1.81.15 2.38.74a2 2 0 0 1 .57 1.77 2.4 2.4 0 0 1-.73 1.36c-.3.29-.63.53-1.08.76a4.1 4.1 0 0 1-1.96.5c-.26 0-.27 0-.2-.13l.15-.26.25-.46c.35-.64.54-1.04.65-1.3.12-.3.2-.68.2-.88 0-.1-.03-.3-.06-.4a1.38 1.38 0 0 0-.52-.62c-.13-.09-.17-.08-.2.02-.1.33-.29.8-.5 1.23-.21.42-.66 1.18-1.07 1.84l-.16.25-.1.15c0 .04-.05.03-.13-.06a1.3 1.3 0 0 1-.33-.5.66.66 0 0 1-.03-.23c0-.13 0-.15.04-.25.05-.1.06-.16.03-.17a1.47 1.47 0 0 0-.9.46c-.22.23-.34.47-.36.7-.02.25.08.58.27.85.1.14.32.36.47.47.15.1.16.1.1.2a10.37 10.37 0 0 0-.7 1.74l-.05.2a8.9 8.9 0 0 0-.16.88 7.65 7.65 0 0 0-.04 1.44c.13 1.37.64 2.36 1.42 2.75.16.08.27.12.47.16.2.04.24.03.24-.05a.34.34 0 0 0-.02-.1l-.05-.16a8.4 8.4 0 0 0-.13-.47l-.06-.25a10.2 10.2 0 0 1-.2-1.96 8.54 8.54 0 0 1 .33-2.43 10.5 10.5 0 0 1 .5-1.39c.02-.02.03-.02.08-.02a6.53 6.53 0 0 0 1.49-.05 6.84 6.84 0 0 0 3.04-1.18c.35-.25.77-.64 1.01-.93.55-.68.86-1.39.97-2.21a2.82 2.82 0 0 0-.29-1.75 3.15 3.15 0 0 0-1.11-1.14 5.02 5.02 0 0 0-3-.69ZM31.07 18.74v.21c.03.46 0 1.09-.07 1.67-.06.41-.15.93-.22 1.21l-.06.25a15.39 15.39 0 0 1-.32 1.16 57.62 57.62 0 0 1-.56 1.8l-.08.3a25.28 25.28 0 0 0-.4 1.5c-.1.51-.15.98-.13 1.39 0 .3.02.42.07.64.12.55.38.98.81 1.36.18.17.23.16.2-.03a10.84 10.84 0 0 1 .04-1.42 11.27 11.27 0 0 1 .4-1.85l.07-.22a3.9 3.9 0 0 1 .15-.46 28 28 0 0 1 .26-.79l.12-.36a23.4 23.4 0 0 1 .22-.66 24.07 24.07 0 0 0 .55-2.06c.1-.74.11-1.31 0-1.86a3.58 3.58 0 0 0-.89-1.69c-.1-.1-.13-.12-.16-.09ZM27.26 24.27a3.76 3.76 0 0 0-2.27 1.17 4.03 4.03 0 0 0-1.05 1.84c-.1.37-.12.83-.06 1.16a1.47 1.47 0 0 0 1.39 1.3c.32.04.79-.03 1.17-.16a3.74 3.74 0 0 0 1.82-1.37c.34-.47.57-.99.67-1.5.07-.37.05-.74-.06-.97a.77.77 0 0 0-.28-.28l-.08-.04v-.18a.9.9 0 0 0-.7-.93c-.14-.03-.4-.05-.55-.04Zm-.3 1.35c.08.03.1.06.14.13.08.19-.03.65-.26 1.07-.1.17-.06.2.13.14.18-.06.35-.16.5-.3.08-.1.12-.11.12-.08l-.06.27c-.2.68-.65 1.15-1.35 1.43-.38.16-.66.19-.85.1a.42.42 0 0 1-.22-.23c-.04-.1-.04-.1-.04-.35 0-.24 0-.26.05-.42.19-.68.6-1.29 1.1-1.59.11-.07.2-.11.37-.15.17-.05.28-.05.37-.02ZM36.54 24.3a3.07 3.07 0 0 0-2.12 1.66 2.69 2.69 0 0 0 .15 2.57c.32.51.76.84 1.32.98.15.04.17.05.47.04.3 0 .33 0 .5-.04.48-.11.89-.34 1.23-.67.48-.47.8-1.13.89-1.8a2.3 2.3 0 0 0-.32-1.59c-.09-.13-.3-.34-.4-.4-.13-.07-.17-.11-.2-.2a.96.96 0 0 0-.32-.33c-.1-.06-.3-.14-.43-.18-.1-.02-.42-.06-.52-.06-.04 0-.16 0-.25.02Zm.23 1.28c.1.03.18.12.22.26.03.1.04.13.03.36v.32c0 .06 0 .07.03.07.1.01.48-.28.59-.46.02-.04.07-.06.07-.03l.04.18a3 3 0 0 1 .05.72c-.03.56-.31 1-.79 1.27-.25.14-.41.2-.63.2a.68.68 0 0 1-.37-.1c-.37-.18-.6-.79-.54-1.4.03-.33.15-.67.3-.88.07-.1.22-.25.31-.3.15-.12.45-.23.57-.23.03 0 .08 0 .12.02ZM27.13 30.45c-.44.06-1.04.34-1.48.7a8.32 8.32 0 0 0-1.7 2.09.5.5 0 0 1-.15-.03c-.47-.14-.73-.34-.89-.67a1.34 1.34 0 0 1-.11-.53c0-.16.04-.43.1-.6.05-.16.05-.18 0-.2-.03-.02-.11 0-.25.04-.37.12-.64.48-.76 1.02-.04.17-.04.58 0 .75.08.34.19.55.4.77.16.16.34.27.58.39.11.05.34.14.43.16.06 0 .06.04-.01.18l-.06.13-.07.15c-.1.21-.26.61-.47 1.14-.3.76-.37.92-.4.93h-.14c-.99-.09-1.92.22-2.51.82-.39.4-.6.9-.52 1.27.07.38.35.64.8.75.44.1 1.04.04 1.5-.16.3-.12.52-.26.82-.5.25-.2.61-.6.87-.97l.1-.13h.05c.14.03 1.02.35 1.46.54l.23.1a8.73 8.73 0 0 1 .53.23l.25.11a4.4 4.4 0 0 0 .5.19 14.82 14.82 0 0 0 1.44.47 13 13 0 0 0 2.95.4c.33.01.45 0 .97-.04a8.22 8.22 0 0 0 2.48-.64c.6-.27 1.1-.57 1.6-.96.23-.18.25-.2.25-.24 0-.04-.03-.04-.16 0a18.53 18.53 0 0 1-2.55.64l-.18.03c-.04 0-.6.08-.93.1a14.3 14.3 0 0 1-3.04-.06 6.5 6.5 0 0 1-.56-.11c-.04-.02-.03-.04.1-.1.14-.06.29-.15.3-.18 0-.04-.01-.07-.06-.08l-.29-.02a9.87 9.87 0 0 1-1.87-.24c-.58-.14-.83-.22-1.93-.6l-.95-.31c-.12-.03-.12-.04-.07-.14a21.87 21.87 0 0 0 .98-2.24l.1-.22c.01-.05.04-.1.05-.1l.12-.02a3.67 3.67 0 0 0 1.32-.41c.36-.18.85-.55 1.12-.85.85-.92 1.18-2.07.73-2.52a.9.9 0 0 0-.48-.23h-.54Zm.04.98c.15.1.1.4-.1.75-.28.44-.82.8-1.42.97l-.16.05a4.77 4.77 0 0 1 1.18-1.65c.2-.13.4-.18.5-.12Zm-5.28 6.26c.06 0-.17.34-.37.54-.12.12-.23.2-.47.31-.44.22-.76.27-.86.13-.05-.06-.05-.13 0-.25.11-.25.53-.56.89-.66.24-.06.52-.09.81-.07Z" fill="#F83B19"/><path d="m27.85 33.94-.17.02c-.25.03-.56.14-.78.27-.95.58-1.53 1.37-1.57 2.14-.03.42.1.76.36 1.02.15.14.27.22.48.29.12.04.14.04.43.04s.31 0 .45-.04a3 3 0 0 0 1.4-.84c.46-.49.73-1.07.75-1.63.01-.22-.02-.38-.1-.54a.79.79 0 0 0-.5-.44c-.03 0-.06-.03-.1-.08a.47.47 0 0 0-.3-.18c-.1-.03-.3-.04-.35-.03Zm-.33.91c.1.07.12.23.08.45-.02.1-.02.12 0 .14 0 .01.03.02.05.01.07-.01.35-.25.42-.36.03-.04.06-.08.07-.07.03 0 .07.25.07.38 0 .26-.1.56-.26.79-.21.3-.63.58-.94.65-.23.05-.43-.02-.54-.18a.52.52 0 0 1-.1-.26 1.4 1.4 0 0 1 .54-1.34c.27-.2.52-.29.61-.2ZM31.34 33.96c-.63.12-1.2.52-1.57 1.11-.38.6-.47 1.31-.23 1.82.21.45.66.75 1.26.85.35.05.67 0 1.04-.19.4-.2.76-.54 1.08-1.03.1-.15.13-.23.07-.23l-.22.1a2.9 2.9 0 0 1-1.57.4c-.47-.06-.74-.3-.8-.69-.06-.48.23-1 .7-1.23.18-.1.3-.12.53-.12.2 0 .22 0 .29.04.04.02.09.05.1.07l.04.04-.08.14c-.12.24-.14.38-.09.57.03.1.11.22.18.28.16.13.46.12.67-.03.3-.2.42-.55.34-.94a.53.53 0 0 1 .03-.34c.05-.1.18-.26.3-.37.18-.14.19-.16.18-.2 0-.03 0-.03-.1-.03a1.89 1.89 0 0 0-.8.26l-.1-.06a1.11 1.11 0 0 0-.5-.22 2.47 2.47 0 0 0-.75 0ZM35.22 34.03c-.26.04-.35.06-.55.16-.59.28-1 .86-1.1 1.56-.03.15-.03.53 0 .68.09.58.41 1.07.84 1.26.15.06.21.08.38.1h.35c.41-.06.75-.23 1.08-.57.42-.43.67-1.01.68-1.55 0-.38-.15-.68-.4-.8-.09-.05-.1-.05-.12-.16a.77.77 0 0 0-.05-.15c-.05-.1-.16-.24-.24-.3-.1-.08-.3-.18-.42-.2-.1-.03-.37-.05-.45-.03Zm.22 1.01c.08.03.17.12.2.23.04.08.04.12.05.31 0 .3 0 .3.19.21a.74.74 0 0 0 .19-.14c.13-.14.13-.11.04.2-.08.3-.2.53-.38.71-.12.12-.19.17-.34.25-.3.16-.53.16-.7.01a.85.85 0 0 1-.17-.33 2.92 2.92 0 0 1 0-.54c.03-.2.14-.49.24-.62a.85.85 0 0 1 .26-.23.67.67 0 0 1 .42-.06Z" fill="#F83B19"/></svg>