<!-- by TradingView --><svg width="56" height="56" viewBox="0 0 56 56" xmlns="http://www.w3.org/2000/svg"><path fill="#32E476" d="M0 0h56v56H0z"/><path d="M45.7 23.02c-1 0-1.9.33-2.7.96V19h-3v16h3v-7.44c0-1.8.17-2.65 1.02-3.34.77-.61 1.7-.44 2.29 0 .7.53.7 1.7.69 2.7V35h3v-8.05c0-2.75-1.74-3.93-4.3-3.93Zm-7.72 7.85c-.17-2.12-1.77-2.7-3.38-3.29l-.16-.05c-.32-.12-.63-.22-.93-.31-1.11-.35-2.02-.63-2.13-1.56-.17-1.24.96-2.08 2.13-1.86 1.27.25 1.52 1.32 1.22 2.02.59.8 2.05.7 2.5.15.37-.45.5-1.2-.28-1.92-.95-.87-2.9-1.29-4.77-.9-1.83.37-3.33 1.71-3.17 3.66.18 2.1 1.6 2.71 3.76 3.34 2.1.62 2.78 1.43 2.65 2.5-.13.95-.87 1.73-2.45 1.53-1.58-.2-2.4-1.53-2.09-3.02-1.8-.46-2.57 1.48-1.07 2.76 1.44 1.23 4.27 1.34 5.87.67 1.43-.59 2.47-1.68 2.3-3.72ZM24 23c.46.21.92.32 1.43.32.55 0 1.06-.12 1.57-.32v12h-3V23Zm3.5-2.25c0 .97-.9 1.75-2 1.75s-2-.78-2-1.75.9-1.75 2-1.75 2 .78 2 1.75ZM15.45 35h2.91L14.7 23h-2.9c1.07 3.55.38 7.06-.73 10.43L8 23H5l3.64 12h2.91l1.62-7.2 2.28 7.2Zm4.1-12.46.02-.04.03.05c.63 1.2 1.44 2.75 2.4 3.65a13.34 13.34 0 0 0-2.43 4.26 13.33 13.33 0 0 0-2.43-4.26c.97-.9 1.78-2.45 2.4-3.66Z" fill="#1B1E1F"/></svg>