<!-- by TradingView --><svg width="56" height="56" viewBox="0 0 56 56" xmlns="http://www.w3.org/2000/svg"><path fill="#0F2D4F" d="M0 0h56v56H0z"/><path d="M44.66 32.48a3.06 3.06 0 0 1-3.35-.64c-.07-.07-.2-.14-.31-.23v2.82a5.5 5.5 0 1 0-3-4.97V40c1.32-.34 2.44-1.5 2.46-2.87 0-2.39-.07-5.29.02-7.67.1-2.55 2.22-3.77 4.56-2.71 1.23.55 1.75 1.7 1.63 3.05a3.05 3.05 0 0 1-2.01 2.68M36.96 28.8a5.5 5.5 0 0 0-6.26-4.76c-2.4.3-4.86 2.85-4.61 4.78a8.59 8.59 0 0 1 2.45-2.3 4.19 4.19 0 0 1 5.24.5l-.36-.11c1.73 1.49 1.54 3.63.35 4.84a3.23 3.23 0 0 1-4.54.03 3.3 3.3 0 0 1 .48-5.03c-1.76.42-2.7 1.8-3.71 3.11a5.5 5.5 0 1 0 10.96-1.06M24.88 30.57c-.1.12-.21.24-.33.35-.61.57-1.27 1.09-1.95 1.57a4.25 4.25 0 0 1-5.5-.59.72.72 0 0 1-.08-.13l.4.17a3.25 3.25 0 0 1 .05-4.91 3.2 3.2 0 0 1 5.17 1.75 3.35 3.35 0 0 1-1.53 3.66c.4-.12.79-.27 1.17-.44.83-.49 1.58-1.1 2.23-1.82a1.62 1.62 0 0 0 .43-1.6 5.54 5.54 0 0 0-6.07-4.55 5.54 5.54 0 0 0-4.13 8.22 5.47 5.47 0 0 0 5.64 2.68 5.45 5.45 0 0 0 4.5-4.36ZM12 31.22V17l-.31.04c-.78.18-1.48.66-1.97 1.35-.5.69-.74 1.55-.72 2.42V35h.13a3.28 3.28 0 0 0 2.09-1.29c.52-.7.8-1.58.78-2.49" fill="#fff"/></svg>