<!-- by TradingView --><svg width="56" height="56" xmlns="http://www.w3.org/2000/svg"><path fill="#623493" d="M0 0h56v56H0z"/><path d="M18.488 34.991c-.73.886-1.385 1.367-2.647 1.367a3.29 3.29 0 01-1.415-.268 3.42 3.42 0 01-1.184-.852c-.655-.748-1.003-1.807-1.003-3.056v-6.724L8 37h10.513l.376-1.019-.401-.99z" fill="#fff"/><path d="M16.19 33.993c.52 0 .86-.153 1.071-.483.21-.33.314-.866.314-1.679v-1.826h-1.577v-2.016h4.342v4.02L25.102 19H14.6l-.427 1.163a4.183 4.183 0 012.018-.464c1.262 0 2.307.458 3.023 1.326.65.789 1.006 1.907 1.006 3.15v.835h-2.65v-.068c0-2.49-.509-2.939-1.449-2.939a.917.917 0 00-.429.078.957.957 0 00-.35.269c-.221.279-.332.731-.332 1.346v8.671c.002 1.108.374 1.626 1.181 1.626zM36.551 19H26.048l-.519 1.426c.675-.477 1.527-.719 2.535-.719 1.26 0 2.298.458 3.002 1.326.645.795.984 1.885.984 3.15v.838h-2.767l-.004-1.147c0-.61-.128-1.112-.37-1.436a1.05 1.05 0 00-.373-.323 1.001 1.001 0 00-.472-.111c-.509 0-.844.133-1.053.407-.208.275-.294.69-.294 1.308v8.568c0 .612.091 1.033.29 1.302.2.27.544.408 1.053.408.853 0 1.215-.467 1.215-1.559v-2.442h2.731v1.019L36.551 19z" fill="#fff"/><path d="M28.068 36.358c-1.316 0-2.392-.426-3.12-1.222-.647-.744-.994-1.763-.994-2.965V24.72L19.457 37H29.96l.48-1.312a4.084 4.084 0 01-2.372.67zM42 20v3h-4v2.995h3v3.003h-3v4.001h4.423v1.234L48 19H37.497l-.328 1H42z" fill="#fff"/><path d="M34.919 36.004V26.04L30.906 37H41.41l.325-.996H34.92z" fill="#fff"/></svg>