<!-- by TradingView --><svg width="56" height="56" viewBox="0 0 56 56" xmlns="http://www.w3.org/2000/svg"><path fill="#FFF200" d="M0 0h56v56H0z"/><path d="M46.26 35.48a6.87 6.87 0 0 1-3.33 3c-.8.38-1.62.7-2.45.95-3.1.95-6.37 1.37-9.64 1.5-2.55.12-5 .08-7.37-.1a42.59 42.59 0 0 1-5.07-.69 23.56 23.56 0 0 1-5.3-1.66 6.42 6.42 0 0 1-2.5-10.23c3-3.59 5.87-7 8.63-10.22.99-1.14 1.95-2.23 2.88-3.25l.69-.7a7.53 7.53 0 0 1 10.6.22c.4.4.87.91 1.42 1.54 3.69 4.19 7.32 8.51 10.83 12.72a6.42 6.42 0 0 1 .61 6.92Z"/><path fill-rule="evenodd" d="M22.96 22.29c-.01-.02-.02-.03-.04-.01l-1.79 1.76a.06.06 0 0 1-.04.02h-.91v-.02l2.58-2.54a.07.07 0 0 0 .02-.06 5.22 5.22 0 0 1 5.83-5.76 5.26 5.26 0 0 1 4.24 3.17h-.7c-.02 0-.04 0-.05-.02a4.61 4.61 0 0 0-7.46-1.06 4.48 4.48 0 0 0-1.22 3.03c0 .03 0 .04.03.01l2.78-2.73c.2-.2.46-.35.76-.45.2-.06.48-.1.82-.09h1.22c.3 0 .54.03.74.09a1.8 1.8 0 0 1 .54 3.18v.02a1.8 1.8 0 0 1-.55 3.18c-.16.05-.37.08-.63.08a62.4 62.4 0 0 0-1.47-.02v-1.4c0-.02-.01-.04-.03-.04a1.85 1.85 0 0 1-1.48-1.46l-.02-.01H24.1c-.02 0-.04 0-.05.02l-.51.5-.01.02v.03a4.53 4.53 0 0 0 2.37 3.1 4.63 4.63 0 0 0 6.25-2l.69-.01a.01.01 0 0 1 .02.01v.01a5.3 5.3 0 0 1-9.9-.55ZM27.63 19c-.7.16-1.34.7-1.46 1.44 0 .02-.02.04-.04.04h-1.35c-.03 0-.03-.01-.02-.03l1.9-1.87c.27-.26.59-.39.97-.38.02 0 .03.02.03.04v.73c0 .01 0 .02-.03.03Zm.74 0a1.91 1.91 0 0 1 1.2.8v.01h-.96l-.24-.12c-.02-.02-.03 0-.03.02v.74c0 .02.01.03.03.03h.74c.4 0 .75-.11 1-.41.62-.75.1-1.85-.88-1.86h-.86c-.02 0-.03 0-.03.03v.73c0 .01 0 .02.03.03Zm-.75 2.93c-1.1-.44-1.08-1.82.01-2.24a.02.02 0 0 1 .02 0l.01.02v2.2c0 .02-.01.03-.04.02Zm1.05-.12h.88c.02 0 .03 0 .01.03a1.9 1.9 0 0 1-1.2.78l-.02.02v.76a.02.02 0 0 0 .02.01h.66c.25.01.45-.01.6-.07a1.12 1.12 0 0 0 .04-2.11c-.15-.06-.34-.1-.55-.09h-.74c-.02 0-.03.01-.03.04v.73c0 .03.01.04.04.02l.23-.1c.02-.02.04-.02.06-.02Z" fill="#FFF200"/><path d="M42.92 34.65c-1 .57-2.7.4-3.65-.2a.05.05 0 0 1-.03-.04l.15-1.18c0-.02 0-.02.02-.01.56.44 1.21.67 1.96.7.23 0 .45-.02.64-.08.33-.1.59-.39.44-.72-.1-.23-.41-.36-.64-.42-.54-.15-1.08-.26-1.6-.45-.4-.16-.84-.52-.95-.96-.15-.6-.04-1.12.32-1.56.6-.7 1.7-.8 2.56-.7.49.06.95.22 1.38.46.02.01.03.03.02.05l-.38.97c-.01.02-.02.02-.04.01a2.8 2.8 0 0 0-2.16-.36c-.47.15-.69.77-.16 1.02.23.1.48.18.77.25.48.1.9.23 1.28.38.5.19.89.63.93 1.17.07.74-.22 1.3-.86 1.67ZM17.68 33.76l-.16 1.23-.01.01H13a.02.02 0 0 1-.01-.02V29h1.35V33.75h3.32a.02.02 0 0 1 0 .01v.01ZM26.98 30.26h-1.96a.02.02 0 0 1-.02 0v-.02l.15-1.22.01-.02H30.19v.02l.16 1.22a.02.02 0 0 1-.01.02h-1.99v4.72a.02.02 0 0 1-.01.01l-.02.01h-1.3a.02.02 0 0 1-.02-.01v-4.72l-.01-.01ZM33.92 33.5c.95.6 2.08-.06 2.08-1.17v-3.3c0-.02.06-.03.08-.03h1.25c.02 0 .03.01.03.03v3.17c0 .33-.03.6-.1.82a2.66 2.66 0 0 1-2.36 1.97 2.67 2.67 0 0 1-2.9-2.85v-3.11c0-.02.01-.03.03-.03h1.24c.02 0 .03.01.03.03v3.36c0 .44.25.87.62 1.1ZM23.27 34.12a2.96 2.96 0 0 0 0-4.24 3.14 3.14 0 0 0-4.37 0 2.96 2.96 0 0 0 0 4.24 3.14 3.14 0 0 0 4.37 0ZM22.95 32c0 1-.84 1.8-1.86 1.8-1.03 0-1.86-.8-1.86-1.8s.83-1.8 1.86-1.8c1.02 0 1.86.8 1.86 1.8Z" fill="#FFF200"/></svg>