<!-- by TradingView --><svg xmlns="http://www.w3.org/2000/svg" width="56" height="56"><path d="M0 28a28 28 0 1156 0 28 28 0 01-56 0z" fill="#00A9B8"/><path d="M5.56 25H4v7h4v-1.44H5.56V25zm13.16 0H17l2.57 7h1.84L24 25h-1.61l-1.83 5.15h-.02L18.72 25zm21.78 0h1.8l2.67 7h-1.68l-.55-1.5h-2.85l-.55 1.5h-1.57l2.73-7zm.83 1.67l-.98 2.5h1.94l-.96-2.5zM9 28.5c0-2.03 1.43-3.5 3.5-3.5 2.06 0 3.5 1.47 3.5 3.5 0 2.03-1.43 3.5-3.5 3.5A3.36 3.36 0 019 28.5zm1.52 0c0 1.16.72 2.06 1.98 2.06 1.25 0 1.98-.9 1.98-2.06 0-1.16-.73-2.06-1.98-2.06s-1.98.9-1.98 2.06zm16.98 2.06v-4.12H30V25h-4v7h4v-1.44h-2.5zm2.5-2.81h-1.5v1.5H30v-1.5zm6.15-.95a2.44 2.44 0 00-1.5-.46c-.61 0-1.04.22-1.04.66 0 .41.34.57.86.69l.74.18c1.16.29 1.79.91 1.79 2.02 0 1.3-1.05 2.11-2.52 2.11a3.88 3.88 0 01-2.48-.79l.67-1.17c.49.4 1.1.63 1.72.62.83 0 1.17-.31 1.17-.7 0-.38-.36-.61-.91-.75l-.78-.2c-1.09-.27-1.69-.85-1.69-1.92 0-1.07.66-2.09 2.36-2.09 1.4 0 2.06.46 2.3.63l-.69 1.17zm14.1 3.6c.27-.12.5-.3.68-.53L52 30.89c-.6.69-1.5 1.11-2.58 1.11C47.4 32 46 30.53 46 28.5c0-2.03 1.4-3.5 3.42-3.5 1.06 0 1.96.41 2.56 1.1l-1.06 1.02a1.87 1.87 0 00-1.5-.68c-1.23 0-1.94.9-1.94 2.06 0 1.16.71 2.06 1.94 2.06.29.01.57-.04.83-.16z" fill="#fff"/></svg>