<!-- by TradingView --><svg width="56" height="56" xmlns="http://www.w3.org/2000/svg"><path fill="#0B5199" d="M0 0h56v56H0z"/><path d="M5 23H4v10h4v-1H5v-9z" fill="#fff"/><path fill="#fff" d="M47 24v-1h5v1zm0 9v-1h5v1zm0-4.5v-1h3.997v1H47zM9 23h1v10H9zm28 0h1v10h-1z"/><path d="M11.849 23H11v10h1v-9h1.662c.797 0 2.274.201 2.338 2.026.064 1.825-1.575 2.126-2.46 2.065l.734.909c2.19-.175 2.73-2.056 2.726-2.974C16.972 23.708 15.037 23 14.113 23h-2.264z" fill="#fff"/><path fill-rule="evenodd" d="M22 33a5 5 0 100-10 5 5 0 000 10zm-.004-1.004a4 4 0 100-8 4 4 0 000 8z" fill="#fff"/><path d="M36.584 30A5.001 5.001 0 0127 28a5 5 0 019.584-2h-1.12a4 4 0 100 4h1.12zM39 23h1.362l4.634 8.585V33h-.32L40 24.52V33h-1V23zm6 0h1v10h-1V23z" fill="#fff"/></svg>