<!-- by TradingView --><svg xmlns="http://www.w3.org/2000/svg" width="56" height="56" viewBox="0 0 56 56"><path fill="#F0F3FA" d="M0 0h56v56H0z"/><path d="M14.27 23.65l-2.2 2.2A15.87 15.87 0 0 1 27.79 12h.95c7.89 0 14.5 6.13 15.3 14H46l-4.26 4.2-3.78-4.2h1.92c-.83-5.72-5.72-10-11.48-10h-.76a11.52 11.52 0 0 0-11.48 9.86l-1.9-2.2z" fill="#97CB38"/><path d="M41.73 32.35l2.2-2.2A15.87 15.87 0 0 1 28.21 44h-.95c-7.89 0-14.5-6.13-15.3-14H10l4.26-4.2 3.78 4.2h-1.92c.83 5.72 5.72 10 11.48 10h.76c5.76 0 10.65-4.14 11.48-9.86l1.9 2.2z" fill="#195CAB"/><path d="M29.93 28.3a3 3 0 1 0-3.82.03L25 33h6l-1.07-4.7z" fill="#195CAB"/></svg>