<!-- by TradingView --><svg width="56" height="56" xmlns="http://www.w3.org/2000/svg"><path fill="#F7632E" d="M0 0h56v56H0z"/><path d="M17.861 20.205l-2.484-2.22 2.603-2.601 2.218 2.481c.45-.347.922-.663 1.413-.947l-1.444-2.996 3.4-1.41 1.1 3.142c.549-.148 1.107-.258 1.67-.33L26.151 12h3.682l-.202 3.323c.563.073 1.122.184 1.67.33l1.1-3.141 3.4 1.41-1.408 2.996c.49.284.963.6 1.413.947l2.218-2.481 2.603 2.602-2.484 2.22c.347.449.664.92.948 1.413l3-1.442 1.41 3.4-3.156 1.1c.147.548.257 1.105.33 1.667L44 26.16v3.682l-3.325-.185c-.073.562-.183 1.12-.33 1.667l3.143 1.1-1.409 3.4-3-1.442c-.284.492-.601.964-.948 1.413l2.484 2.22-2.603 2.602-2.218-2.481c-.45.347-.922.663-1.413.947l1.444 2.996-3.4 1.41-1.1-3.142c-.549.148-1.107.258-1.67.33L29.84 44H26.16l.186-3.323a12.88 12.88 0 01-1.67-.33l-1.1 3.141-3.4-1.41 1.444-2.996c-.49-.284-.963-.6-1.413-.947l-2.218 2.481-2.603-2.602 2.484-2.22c-.347-.449-.664-.921-.948-1.413l-3 1.442-1.41-3.4 3.144-1.1a12.665 12.665 0 01-.33-1.667L12 29.84v-3.686l3.325.185c.073-.562.183-1.12.33-1.667l-3.143-1.1 1.409-3.4 3.012 1.446c.278-.491.588-.964.928-1.414zm2.381 7.791a7.959 7.959 0 001.249 4.405 7.784 7.784 0 003.454 2.952 7.646 7.646 0 004.49.498 7.717 7.717 0 004-2.126 7.906 7.906 0 002.156-4.028 7.979 7.979 0 00-.42-4.564 7.847 7.847 0 00-2.855-3.552 7.673 7.673 0 00-4.32-1.335 7.595 7.595 0 00-2.949.571 7.686 7.686 0 00-2.51 1.674 7.818 7.818 0 00-1.686 2.52 7.913 7.913 0 00-.609 2.985z" fill="#fff"/></svg>