<!-- by TradingView --><svg xmlns="http://www.w3.org/2000/svg" width="56" height="56"><path fill="#EEEDEA" d="M0 0h56v56H0z"/><path d="M4.08 23.03s.09-.06.47 0c.39.05.91.05 1.05.05l1.38-.05c.18 0 .14.3 0 .34-.08 0-.55-.06-.8.2 0 0-.18.2-.18.6v5.1s-.12 1.44 1.23 1.33h.96s.61 0 .78-.17c.19-.15.46-.43.71-1.07 0 0 .06-.2.2-.14.13.06.13.09.1.2a8.05 8.05 0 01-.5 1.58c-1.8 0-3.61-.06-5.42 0 0 0-.06-.06-.06-.14 0-.06.06-.18.17-.2.6 0 .83-.26.83-.78v-5.76s.1-.7-.28-.75c-.36-.06-.66-.06-.66-.06s-.06-.2.02-.28zm6.52 3.58l.67-.3c.13-.06.54-.31.6-.31.13 0 .13.08.13.08v3.9s0 .28.05.4c.05.1.03.25.58.28 0 0 .08.02.08.16-.03.14-.06.2-.2.17a7.77 7.77 0 00-.87-.05l-1.26.05c-.05-.03-.08-.05-.08-.17 0-.1.06-.16.17-.16.08 0 .24 0 .38-.09.11-.08.15-.12.15-.3V27.2s-.01-.22-.15-.3c-.19-.1-.25-.15-.25-.2-.02-.06 0-.09 0-.09zm1.4-2.12c0-.27-.24-.49-.51-.49a.5.5 0 00-.49.49c0 .27.22.51.49.51a.5.5 0 00.51-.51zm5.55 5.96c-.27-.19-.8-.19-1.02-.19-.19 0-1 .06-1.29.06a1.1 1.1 0 01-.62-.14c-.18-.1-.21-.34-.16-.51.08-.22.49-.44.49-.44s.16.06.59.06c.87 0 1.65-.6 1.77-1.5.1-.6-.05-.9-.05-.9h.85c.12-.08.17-.35.06-.46h-1.13l-.16-.05c-.48-.16-.6-.38-1.3-.38-1.2 0-1.95.63-1.95 1.71 0 .43.15.83.46 1.14l.35.3s0 .03-.11.2c-.1.18-.65.53-.65.53-.02.03-.1.06-.13.28 0 .27.32.54.4.62.08.06.4.2.43.2.06.05 0 .1-.02.13-.03.05-.6.6-.78.78-.2.2-.22.44-.2.52 0 .05-.02.54.44.9.43.38 1.1.4 1.45.4.35 0 .72.06 1.69-.43a1.99 1.99 0 001.13-1.82c.05-.52-.27-.84-.54-1zm-1.97-4.15s.92 0 .92 1.25c0 1.27-.64 1.33-.88 1.33-.2 0-1-.05-1.05-1.25-.05-1.2.84-1.33 1-1.33zm1.86 5.62c0 .84-.84 1.22-1.58 1.22-.69 0-1.5-.28-1.5-1.08-.1-.9.8-1.06 1.47-1.06.7 0 1.61.03 1.61.92zM19.82 23s.18 0 .18.05v3.54s.71-.59 1.52-.59c.7 0 1.48.47 1.48 1.23v2.81c.03.38.07.6.47.64.24.03.27.03.27.08s0 .16-.03.19c-.05.05-.1.05-.19.05l-.92-.05-1.05.05c-.1 0-.19-.05-.19-.16 0-.08.06-.19.2-.19.5 0 .44-.37.44-.8v-2.14c.05-.65-.34-1.17-.99-1.17-.35.03-.92.13-1.01.56v2.89c0 .3-.12.6.28.64.3.05.33.05.33.1 0 .06.02.24-.09.24l-1.02-.05-1.11.05c-.13-.05-.1-.08-.1-.16s.05-.16.18-.16c.46-.09.53-.2.53-.69V24.3c0-.44-.2-.46-.45-.72 0-.02-.05-.13.03-.18.05-.05.24-.08.57-.21.4-.08.65-.16.67-.19zm5.4 2c.08 0 .2 0 .2.13v.63s-.02.15.13.15h1.43c.18 0 .17.55 0 .5H25.5s-.07 0-.07.24v2.82c.06.47.25.96.79.96.39-.03.47-.06.6-.15.08-.06.17-.12.2-.09s.12.21.03.3c-.29.3-.8.51-1.22.51-.9 0-1.4-.47-1.4-1.38v-3s.06-.2-.12-.2h-.42s-.09.02-.09-.13.06-.15.12-.18c.06-.02.48-.14.66-.3.18-.14.38-.41.44-.6.03-.04.1-.21.21-.21z" fill="#213C38"/><path d="M30.49 23H28v8h1v-3.73h1.24l.68-.06c1.1-.14 2.03-1.03 2.08-2.15-.06-1.43-1.16-2.06-2.51-2.06zm-.28 3.82H29v-3.23h1.51c.85-.05 1.49.6 1.49 1.47 0 1.08-.89 1.68-1.79 1.76zm6.65 3.72c-.23.03-.28-.27-.28-.27V27.6a1.6 1.6 0 00-1.56-1.6c-.7 0-1.35.17-1.93.56l.06.65h.14l.12-.19c.21-.49.96-.6 1.4-.5.51.08.7.49.77.99v.64c-.08 0-.33.05-.53.08s-.9.19-1.26.3c-.47.13-1.2.52-1.2 1.1 0 .9.82 1.37 1.61 1.37.47 0 .85-.24 1.02-.35.2-.1.53-.4.53-.4 0 .46.45.59.85.59.44 0 .61-.16.61-.16v-.24c.03.02-.08.05-.35.1zm-1.28-.6c-.38.48-.76.7-1.38.6-.44-.13-.62-.47-.62-.94 0-.7.69-.97 1.26-1.07l.74-.13v1.53zM38 25.31l1-.31v1.32h1v.44h-1v3c-.03.45.18.92.7.88.27 0 .46-.08.46-.08v.26s-.55.2-.85.18c-1.03-.09-1.31-.56-1.31-1.24v-3h-.51v-.44H38V25.3zM41 24h1v2.88s.22-.88 1.43-.88c1.22.02 1.48.9 1.54 1.26l.03.25V31h-1v-3.34s0-1.18-.91-1.18c-1.16.03-1.09 1.19-1.09 1.39V31h-1v-7z" fill="#2D4742"/><path d="M34.38 33.27c0 .4-.3.73-.69.73a.72.72 0 01-.72-.73c0-.39.31-.7.72-.7.39 0 .7.34.7.7z" fill="#E4952C"/><path d="M31.48 33.27c0 .4-.3.73-.7.73a.72.72 0 01-.71-.73c0-.39.3-.7.72-.7.36 0 .69.34.69.7z" fill="#E4952C" fill-opacity=".9"/><path d="M28.57 33.27c0 .4-.3.73-.72.73a.7.7 0 01-.69-.73c0-.39.3-.7.7-.7.4 0 .71.34.71.7z" fill="#E4952C" fill-opacity=".8"/><path d="M25.67 33.27c0 .4-.31.73-.7.73a.72.72 0 01-.71-.73c0-.39.3-.7.71-.7.39 0 .7.34.7.7z" fill="#E4952C" fill-opacity=".6"/><path d="M22.76 33.27c0 .4-.3.73-.7.73a.72.72 0 01-.71-.73c0-.39.3-.7.72-.7.38 0 .69.34.69.7z" fill="#E4952C" fill-opacity=".4"/><path d="M19.85 33.27c0 .4-.3.73-.69.73a.72.72 0 01-.72-.73c0-.39.31-.7.72-.7.38 0 .7.34.7.7z" fill="#E4952C" fill-opacity=".2"/><path opacity=".3" fill="#2D4742" fill-opacity=".85" d="M35 33h17v1H35z"/></svg>