<!-- by TradingView --><svg xmlns="http://www.w3.org/2000/svg" width="56" height="56" viewBox="0 0 56 56"><path fill="#F0F3FA" d="M0 0h56v56H0z"/><path d="M14.12 36.02A16.23 16.23 0 0 0 27 44v-3.76l-10-5.82V22.78l-3.36-1.88a16.2 16.2 0 0 0 .48 15.12Z" fill="#14487F"/><path d="M29 44a16.2 16.2 0 0 0 12.88-7.98 16.2 16.2 0 0 0 .47-15.13L39 22.77V34.4l-10 5.83V44Z" fill="#7CAFD4"/><path d="M28 12a16.2 16.2 0 0 0-13.34 7.15l3.26 1.88L28 15.2l10.08 5.82 3.26-1.88A16.18 16.18 0 0 0 28 12Z" fill="#D62027"/><path d="M22.37 25.93 19 23.94v9.31l8 4.65v-3.98a6 6 0 0 1-4.63-7.99Z" fill="#14487F"/><path d="M29 33.92a6 6 0 0 0 4.64-7.99L37 23.94v9.32l-8 4.65v-4Z" fill="#7CAFD4"/><path d="M23.37 24.18a5.99 5.99 0 0 1 9.26 0l3.43-1.98L28 17.54l-8.07 4.66 3.44 1.98Z" fill="#D62027"/></svg>