<!-- by TradingView --><svg width="56" height="56" viewBox="0 0 56 56" xmlns="http://www.w3.org/2000/svg"><path fill="url(#amwwwuxav)" d="M0 0h56v56H0z"/><path d="M38.42 13.1a.53.53 0 0 0-.42.5c0 10.4.02 20.3 0 29.65a.7.7 0 0 1-.26.55c-.33.3-1.26.17-1.7.18-.32 0-.5-.16-.53-.51-.09-.98 1.67-.2 1.49-1.28V13.84c0-.54-.44-.84-.95-.84-.5 0-2.05-.1-2.05.68v30.14c0 .1-.02.18-.13.18H22.24c-.05 0-.1-.04-.14-.07-.03-.04-.1-.1-.1-.14V13.7c0-.8-1.85-.7-2.45-.64a.58.58 0 0 0-.55.6v28.67c0 .47.72.61 1.12.58.4-.03.57.36.5.7-.03.1-.09.2-.17.26a.49.49 0 0 1-.29.13H18.7c-.8 0-.7-1.34-.7-1.89V14.17c0-.3 0-1.12-.47-1.17h-.93c-.39.03-.6.3-.6.69v28.8c.02.27.21.4.48.41l.61.01a.37.37 0 0 1 .36.3c.03.15.04.3.01.44a.39.39 0 0 1-.12.22c-.07.06-.15.13-.24.13h-1.37c-.6-.03-.73-.52-.73-1.03V12.9c0-.48.31-.9.8-.9h24.36c.9 0 .84.77.84 1.54v29.62c0 .24-.1.46-.3.65-.32.29-1.03.16-1.43.17a.24.24 0 0 1-.24-.13.8.8 0 0 1-.05-.62c.16-.55 1.02-.22 1.02-.95V13.96c0-.32-.05-.82-.47-.87-.5-.07-.75-.06-1.11 0ZM23.47 24.57c1.78-.87 2.44-2.63 2.53-4.61v-6.3c-.01-.38-.22-.64-.59-.66H23.7c-.42.01-.69.27-.69.7v10.35c0 .12.07.24.1.35a.27.27 0 0 0 .14.18.26.26 0 0 0 .23 0Zm5.48-11.02c0-.26-.22-.55-.48-.55h-.9c-.26 0-.48.25-.49.51v.06c0 .26.22.43.48.43h.9c.2 0 .37-.03.45-.21a.49.49 0 0 0 .04-.19v-.05Zm3.57-.55h-1.96c-.27 0-.56.31-.56.56v6.03c.05 2.15.75 3.77 2.56 4.86.15.09.28.06.38-.08.04-.05.06-.1.06-.17V13.8c0-.32-.1-.8-.48-.8ZM23.6 25.78c-.36.17-.6.5-.6.9v2.76c0 .15.13.3.23.4.11.1.25.16.4.16h8.8c.31 0 .57-.27.57-.58v-2.85c0-.34-.16-.68-.47-.85-2.4-1.23-3.56-3.44-3.53-6.14v-3.84c0-.37-.18-.58-.54-.63-.44-.06-1.45-.22-1.46.54v3.37c.05 2.45-1.01 5.59-3.4 6.76Zm9.4 5.85a.62.62 0 0 0-.2-.42c-.1-.12-.25-.21-.41-.21h-8.73c-.16 0-.31.1-.42.2-.11.12-.24.27-.24.43v5.76c0 .16.13.32.24.43a.6.6 0 0 0 .42.18h8.73a.6.6 0 0 0 .42-.18c.11-.11.19-.27.19-.43v-5.76Zm0 7.98a.61.61 0 0 0-.61-.61h-8.72a.6.6 0 0 0-.43.18c-.11.11-.24.27-.24.43v2.75c0 .16.13.32.24.44.12.11.27.2.43.2h8.72c.16 0 .32-.09.43-.2a.61.61 0 0 0 .18-.44v-2.75Z" fill="url(#bmwwwuxav)"/><defs><linearGradient id="amwwwuxav" x1="10.42" y1="9.71" x2="68.15" y2="76.02" gradientUnits="userSpaceOnUse"><stop stop-color="#1A1E21"/><stop offset="1" stop-color="#06060A"/></linearGradient><linearGradient id="bmwwwuxav" x1="15" y1="28" x2="41" y2="28" gradientUnits="userSpaceOnUse"><stop stop-color="#865931"/><stop offset="1" stop-color="#AD7D4C"/></linearGradient></defs></svg>