<!-- by TradingView --><svg width="56" height="56" viewBox="0 0 56 56" xmlns="http://www.w3.org/2000/svg"><path fill="#F0F3FA" d="M0 0h56v56H0z"/><path d="M27.8 12.27v15.6H12.27l15.53-15.6Z" fill="url(#anouig050)"/><path d="M28.2 12.27v15.6h15.53L28.2 12.27Z" fill="url(#bnouig050)"/><path d="M27.8 43.7V28.2H12.37L27.8 43.7Z" fill="url(#cnouig050)"/><path d="M28.2 43.73V28.2h15.53L28.2 43.73Z" fill="url(#dnouig050)"/><path fill-rule="evenodd" d="M21 19v18h15v-2H23V19h-2Zm3 15V19h6.87A4.15 4.15 0 0 1 35 23.1v.12a4.36 4.36 0 0 1-3.5 4.23 5.96 5.96 0 0 1 1.57 1.5L36 34h-2.34s-2.37-4.07-3.17-5.32c-.37-.59-.9-.96-1.36-1.18H26V34h-2Zm2-13h4.6c1.32 0 2.4 1 2.4 2.25 0 1.24-1.08 2.25-2.4 2.25H26V21Z" fill="#F0F3FA"/><path fill-rule="evenodd" d="M28 10 10 28l18 18 18-18-18-18Zm0 1.72L11.72 28 28 44.28 44.28 28 28 11.72Z" fill="#057FC8"/><defs><linearGradient id="anouig050" x1="27.47" y1="27.66" x2="13.12" y2="24.13" gradientUnits="userSpaceOnUse"><stop stop-color="#87A5DB"/><stop offset="1" stop-color="#ECF9FF"/></linearGradient><linearGradient id="bnouig050" x1="39.47" y1="29.03" x2="28.36" y2="13.64" gradientUnits="userSpaceOnUse"><stop offset=".47" stop-color="#99B3E4"/><stop offset="1" stop-color="#ECF9FF"/></linearGradient><linearGradient id="cnouig050" x1="24" y1="42.68" x2="24" y2="28.41" gradientUnits="userSpaceOnUse"><stop stop-color="#0082CD"/><stop offset="1" stop-color="#97ADDE"/></linearGradient><linearGradient id="dnouig050" x1="39.41" y1="40.42" x2="28.66" y2="40.92" gradientUnits="userSpaceOnUse"><stop offset=".07" stop-color="#0082CB"/><stop offset="1" stop-color="#72A3DD"/></linearGradient></defs></svg>