<!-- by TradingView --><svg width="56" height="56" viewBox="0 0 56 56" xmlns="http://www.w3.org/2000/svg"><path fill="#47025C" d="M0 0h56v56H0z"/><path d="m41.34 31.99-2.96-3.63h-.02l-1.04.9-.01.01v2.71a.02.02 0 0 1 0 .02H36a.02.02 0 0 1-.01-.02v-7.96a.02.02 0 0 1 .02-.02h1.29v3.56l.01.01h.02l3.73-3.56.03-.01h1.92a.02.02 0 0 1 0 .02l-3.7 3.44a.02.02 0 0 0-.01.01.02.02 0 0 0 0 .02l3.75 4.48v.01a.02.02 0 0 1 0 .02h-1.7a.03.03 0 0 1-.02-.01M31.04 32a3.8 3.8 0 0 1-3.68-2.47c-.2-.49-.29-1.02-.27-1.55 0-1.06.42-2.07 1.16-2.82A3.91 3.91 0 0 1 31.04 24a3.82 3.82 0 0 1 2.82 1.14A3.93 3.93 0 0 1 35 28v4h-1.31v-.95h-.01a.02.02 0 0 0-.02 0 4 4 0 0 1-2.62.95Zm0-6.75c-1.52 0-2.63 1.16-2.63 2.76 0 1.59 1.1 2.74 2.63 2.74a2.57 2.57 0 0 0 1.93-.77 2.64 2.64 0 0 0 .76-1.97 2.7 2.7 0 0 0-1.65-2.57 2.6 2.6 0 0 0-1.04-.2Z" fill="#fff"/><path d="M47 32a3.89 3.89 0 0 1-4-4.02 4 4 0 0 1 5.54-3.7A3.9 3.9 0 0 1 51 28v4h-1.33v-.95a.02.02 0 0 0-.02 0c-.75.62-1.69.96-2.66.95Zm0-6.75c-1.54 0-2.66 1.16-2.66 2.76 0 1.59 1.12 2.74 2.66 2.74a2.62 2.62 0 0 0 2.71-2.74A2.68 2.68 0 0 0 47 25.25ZM23.3 32c-2.43 0-3.54-1.32-3.62-1.42v-.01l.71-.9v-.01a.01.01 0 0 1 .02 0 4.17 4.17 0 0 0 2.9 1.15c1.3 0 2.11-.52 2.11-1.25 0-.75-.72-.97-2.24-1.17-1.5-.2-3.12-.54-3.12-2.23 0-1.31 1.22-2.16 3.11-2.16 2.29 0 3.3 1.3 3.38 1.4a.01.01 0 0 1 0 .02l-.8.9a.01.01 0 0 1-.01 0 .01.01 0 0 1-.01 0 3.62 3.62 0 0 0-2.58-1.08c-.67 0-1.8.12-1.8.92 0 .53.44.73 2.01.94 1.75.23 3.36.69 3.36 2.46 0 1.48-1.34 2.44-3.43 2.44M6.27 30.73V24H5V32H11v-1.24a.02.02 0 0 0 0-.01H6.29l-.01-.01v-.01ZM18.98 27.74a4.56 4.56 0 0 1-1.32.84 2.71 2.71 0 0 1-5.37-.58 3.27 3.27 0 0 1 .03-.38h.01a6 6 0 0 0 2.67.56c2.64 0 3.72-1.36 3.8-1.47v-.01A4.01 4.01 0 1 0 15 32a4 4 0 0 0 3.98-4.26ZM15 25.24a2.71 2.71 0 0 1 2.22 1.18c-.67.4-1.44.61-2.22.61a4.56 4.56 0 0 1-2.27-.63A2.82 2.82 0 0 1 15 25.25Z" fill="#fff"/></svg>