<!-- by TradingView --><svg width="56" height="56" viewBox="0 0 56 56" xmlns="http://www.w3.org/2000/svg"><path fill="#F0F3FA" d="M0 0h56v56H0z"/><path d="M24.27 11h-6.4L14 36h13.26l.87-6H21.3l2.98-19Z" fill="#7D0140"/><path d="M34.9 19c3.5.04 6.19 1.93 7.1 2.87l-2.73 5.03c-3.14-3.34-6.54-2.67-6.44-.77.09 1.52 2.1 2.72 3.1 3.13 3.95 2.36 4.99 3.74 4.99 7.8 0 4.04-3.76 8-9.42 7.94a10.87 10.87 0 0 1-8.5-4.15l3.35-5.08c4.22 5.08 7.98 3.33 8.13 1.28.13-1.64-2.31-3.08-3.55-3.59a6.84 6.84 0 0 1-4.58-6.56c0-5.13 4.17-7.95 8.54-7.9Z" fill="#77787C"/></svg>