<!-- by TradingView --><svg width="56" height="56" xmlns="http://www.w3.org/2000/svg"><path fill="url(#paint0_linear)" d="M0 0h56v56H0z"/><path d="M24.359 16h-6.152c-.566 0-.75.348-.772.52l-1.371 5.548c-.24.728.257.925.535.932h6.28c.532 0 .723-.332.751-.498l1.33-5.526c.188-.815-.322-.99-.601-.975zM22.434 25h-6.152c-.566 0-.75.348-.771.52l-1.372 5.548c-.24.728.257.925.536.932h6.28c.532 0 .722-.332.75-.498l1.33-5.526c.188-.815-.322-.99-.6-.975zM20.359 34h-6.152c-.566 0-.75.347-.772.52l-1.371 5.548c-.24.728.257.925.536.932h6.28c.532 0 .722-.332.75-.498l1.33-5.526c.188-.815-.322-.99-.601-.975zM29.742 34H23.59c-.566 0-.75.347-.771.52l-1.372 5.548c-.24.728.257.925.536.932h6.28c.532 0 .722-.332.75-.498l1.33-5.526c.188-.815-.322-.99-.6-.975zM39.359 34h-6.152c-.566 0-.75.347-.772.52l-1.371 5.548c-.24.728.257.925.535.932h6.28c.532 0 .723-.332.751-.498l1.33-5.526c.188-.815-.322-.99-.601-.975z" fill="#FFC221"/><path d="M31.922 25H25.77c-.566 0-.75.348-.772.52l-1.372 5.548c-.24.728.258.925.536.932h6.28c.532 0 .722-.332.75-.498l1.33-5.526c.189-.815-.322-.99-.6-.975zM41.359 25h-6.152c-.566 0-.75.348-.772.52l-1.371 5.548c-.24.728.257.925.535.932h6.28c.532 0 .723-.332.751-.498l1.33-5.526c.188-.815-.322-.99-.601-.975zM33.997 16h-6.152c-.566 0-.75.348-.772.52l-1.372 5.548c-.24.728.258.925.536.932h6.28c.532 0 .722-.332.751-.498l1.33-5.526c.188-.815-.322-.99-.601-.975zM43.359 16h-6.152c-.566 0-.75.348-.772.52l-1.371 5.548c-.24.728.257.925.535.932h6.28c.532 0 .723-.332.751-.498l1.33-5.526c.188-.815-.322-.99-.601-.975z" fill="#fff"/><defs><linearGradient id="paint0_linear" x1="10.418" y1="9.712" x2="68.147" y2="76.017" gradientUnits="userSpaceOnUse"><stop stop-color="#1A1E21"/><stop offset="1" stop-color="#06060A"/></linearGradient></defs></svg>