<!-- by TradingView --><svg width="56" height="56" viewBox="0 0 56 56" xmlns="http://www.w3.org/2000/svg"><path fill="#F0F3FA" d="M0 0h56v56H0z"/><path d="M24.96 40.05c-4.47-1.21-6.5-3.08-6.96-4.05l2.74-5c1.18.61 4.06 2.11 6.15 3.23 2.63 1.4 4.11 3.45 4.11 5.28s-.8 3.98-1.37 5.49c-.11-.97-1.37-3.77-4.67-4.95Z" fill="#4E00A2"/><path d="M12 20.63c0-1.32.5-3.64.76-4.63.43 1.76 1.94 3.42 4.54 5.51 2.6 2.1 2.7 3.97 2.7 5.18 0 .97-.29 2.61-.43 3.31a14.6 14.6 0 0 0-4-4.52c-2.7-1.98-3.57-3.2-3.57-4.85Z" fill="#DE107C"/><path d="M18 36c4.33-17.03 20.47-19.68 28-18.87-1.27 2.2-4.31 7.17-6.34 9.54-2.53 2.97-4.03 3.33-10.6 3.33-6.57 0-9.45 4.35-11.06 6Z" fill="#7905E2"/></svg>