<!-- by TradingView --><svg width="56" height="56" xmlns="http://www.w3.org/2000/svg"><path fill="#2570BA" d="M0 0h56v56H0z"/><path d="M39.228 44.23l-11.169-7.15-11.168 7.15 3.684-12.46L10 23.693l13.427-.577L28.059 11l4.634 12.116L46 23.693 35.545 31.77l3.683 12.46z" fill="#fff"/><path d="M22.053 36.585c-5.091-.113-7.87-1.495-9.607-4.603-1.851-3.109 1.62-7.136 1.62-7.136s-5.091 4.835-2.314 8.862c2.779 4.144 10.648 4.834 16.32 3.338 5.785-1.38 12.037-4.373 14.236-7.252-6.017 4.72-15.16 7.023-20.255 6.791z" fill="#fff"/><path d="M44.014 24.986c.7-1.845-1.167-6.187-7.002-6.512-14.589-.978-21.474 6.403-21.474 6.403s8.987-6.62 19.138-5.427c6.537.869 7.353 2.714 7.353 2.714s2.45 2.604-.701 6.294c-2.565 3.041 1.986-1.627 2.686-3.472z" fill="#fff"/></svg>