<!-- by TradingView --><svg xmlns="http://www.w3.org/2000/svg" width="56" height="56" viewBox="0 0 56 56"><path fill="#F0F3FA" d="M0 0h56v56H0z"/><path d="M9.5 32H6v-6h.74v5.3H9.5v.7zM10 32h.73v-4.47H10V32zm0-5.22h.77V26H10v.78zM14.68 30.74v-2.3a2.06 2.06 0 0 0-.98-.24c-.37 0-.67.14-.88.4-.45.54-.47 1.63-.09 2.21.16.25.43.37.8.37.2 0 .4-.04.6-.12.2-.08.39-.19.55-.32zm.69.68c0 .71-.16 1.24-.47 1.57-.31.34-.8.51-1.45.51a4.18 4.18 0 0 1-1.24-.19v-.72h.04l.53.17c.24.06.49.1.73.1.47 0 .77-.13.94-.33.17-.2.23-.48.23-.82v-.39c-.2.18-.4.3-.59.39-.19.08-.43.12-.72.12a1.4 1.4 0 0 1-1.16-.54 2.43 2.43 0 0 1-.43-1.54c0-.36.05-.67.15-.94.1-.26.23-.48.4-.68.16-.17.35-.31.58-.41.23-.1.45-.15.68-.15a2.04 2.04 0 0 1 1.1.3l.04-.32h.64v3.87zM42 30.71V28.4a2.89 2.89 0 0 0-1.01-.24c-.37 0-.66.13-.87.4-.2.26-.31.64-.31 1.15 0 .47.07.84.23 1.08.16.25.42.37.78.37.2 0 .39-.04.58-.12.2-.08.44-.18.6-.32zm.61.69c0 .72-.15 1.25-.46 1.6-.3.33-.77.5-1.4.5a3.95 3.95 0 0 1-1.22-.18v-.74h.04c.1.05.28.1.52.17.23.07.47.1.7.1.24 0 .42-.02.57-.08a.81.81 0 0 0 .35-.25.9.9 0 0 0 .18-.36c.04-.14.11-.3.11-.47v-.39c-.2.18-.45.3-.63.4-.19.08-.42.12-.7.12-.48 0-.86-.18-1.14-.55a2.53 2.53 0 0 1-.41-1.56c0-.37.04-.68.14-.95.1-.26.23-.5.4-.69a1.57 1.57 0 0 1 1.22-.57c.22 0 .42.02.57.07.16.05.38.13.55.23v-.3h.61v3.9zM19.99 32h-.7v-2.45c0-.2-.02-.39-.04-.56-.02-.17-.06-.3-.12-.4a.57.57 0 0 0-.27-.25 1.12 1.12 0 0 0-.46-.08c-.2 0-.4.05-.6.15-.21.1-.41.22-.6.37V32h-.71v-6h.7v2.17c.22-.19.45-.33.69-.44.23-.1.47-.16.72-.16.45 0 .8.14 1.03.42.24.28.36.69.36 1.21V32zM22.91 31.87a2.86 2.86 0 0 1-.75.13c-.38 0-.66-.13-.86-.38-.2-.25-.3-.65-.3-1.21V28h-.42v-.62H21V26h.63v1.38h1.28V28h-1.28v2.06l.01.57c.01.13.04.26.1.38a.5.5 0 0 0 .2.24c.08.05.21.07.38.07a1 1 0 0 0 .32-.05c.11-.04.2-.07.24-.1h.03v.7zM27.09 29.76c0-.5-.09-.89-.26-1.15-.17-.26-.45-.4-.83-.4-.22 0-.43.05-.65.14-.22.1-.46.2-.65.35v2.42c.21.09.42.15.57.19.15.03.32.05.51.05.41 0 .73-.13.96-.39.23-.25.35-.66.35-1.21zm.76-.02c0 .35-.05.67-.16.95a1.9 1.9 0 0 1-1.03 1.16c-.22.1-.46.15-.73.15-.24 0-.46-.03-.65-.09a3.4 3.4 0 0 1-.58-.22V32H24v-6h.7v2.1c.2-.16.46-.3.7-.4.23-.1.49-.16.78-.16.51 0 .92.2 1.22.58.3.38.45.92.45 1.62zM31.21 28.33h-.03a1.77 1.77 0 0 0-.55-.08c-.19 0-.37.05-.54.15-.17.1-.28.24-.44.4V32H29v-4.5h.65v.66c.24-.24.4-.4.57-.5.19-.11.37-.16.56-.16a1.77 1.77 0 0 1 .43.05v.78zM33 32h.7v-4.51H33V32zm0-5.24h.74V26H33v.76zM37.74 30.84v-2.42a2.7 2.7 0 0 0-1.09-.23c-.43 0-.76.14-1 .42-.24.28-.36.67-.36 1.18 0 .5.1.88.28 1.14.18.26.48.4.88.4.22 0 .44-.05.66-.14.22-.09.43-.2.63-.35zM38.5 32h-.76v-.56a2.8 2.8 0 0 1-.7.41c-.23.1-.49.15-.77.15-.46 0-.97-.2-1.3-.58a2.47 2.47 0 0 1-.47-1.62c0-.35.05-.67.16-.95.11-.28.26-.52.45-.72a1.99 1.99 0 0 1 1.4-.59 2.6 2.6 0 0 1 1.23.29V26h.76v6zM46.52 29.28c0-.38-.1-.67-.29-.88-.2-.2-.48-.3-.88-.3s-.7.1-.94.34c-.24.22-.37.5-.4.84h2.51zm.72.55h-3.23c0 .27.04.5.12.7a1.3 1.3 0 0 0 .82.75c.19.06.4.1.62.1.3 0 .6-.07.9-.18.3-.12.52-.23.65-.35h.04v.79c-.25.1-.5.19-.77.26-.26.07-.53.1-.81.1-.73 0-1.3-.2-1.71-.58-.4-.38-.61-.93-.61-1.64 0-.7.2-1.25.58-1.66.4-.41.91-.62 1.55-.62.6 0 1.05.17 1.37.5.32.34.48.82.48 1.44v.4z" fill="#426179"/><path d="M27.83 22.45a.8.8 0 1 1-1.59 0 .8.8 0 0 1 1.59 0zM46.4 23.08a.8.8 0 1 1-1.6 0 .8.8 0 0 1 1.6 0z" fill="#546C82"/><path d="M18.4 22.89a.8.8 0 1 1-1.59 0 .8.8 0 0 1 1.59 0zM23.47 23.06c0-.15.04-.29.11-.4a.8.8 0 1 0 .35 1.12.8.8 0 0 1-.46-.72z" fill="#919DAA"/><path d="M23.58 22.65a.78.78 0 0 0 .35 1.13.78.78 0 0 0-.35-1.13z" fill="#CDD1D5"/><path d="M19.99 22.67a.78.78 0 0 0 .34 1.05.79.79 0 0 0-.34-1.05zM52 22.89a.8.8 0 1 1-1.59 0 .8.8 0 0 1 1.59 0zM48.1 22.44a.8.8 0 0 0-1.44.45.8.8 0 0 0 1.44.45.78.78 0 0 1 0-.9z" fill="#919DAA"/><path d="M48.1 22.44a.79.79 0 0 0 0 .9.79.79 0 0 0 0-.9zM29.91 23.06v-.03a.8.8 0 0 0-.95.78v.02a.8.8 0 0 0 .95-.77zM45.32 22.6a.79.79 0 0 0-.98.75.8.8 0 0 0 .98-.74z" fill="#CDD1D5"/><path d="M43.11 23.06h-.06a.8.8 0 0 1-.67 1.1.8.8 0 0 0 1.53-.31.8.8 0 0 0-.8-.8z" fill="#919DAA"/><path d="M43.11 23.37a.79.79 0 0 0-.06-.3.8.8 0 0 0-.67 1.1.8.8 0 0 0 .73-.8z" fill="#CDD1D5"/><path d="M33.6 22.93a.8.8 0 0 0-.35-1.5.8.8 0 0 0-.75 1.04.8.8 0 0 1 1.1.46z" fill="#919DAA"/><path d="M33.62 22.98a.8.8 0 0 0-.37-.1.8.8 0 0 0-.77 1 .8.8 0 0 0 1.14-.9z" fill="#CDD1D5"/><path d="M20.7 22.22a.8.8 0 0 0-.71.45.8.8 0 0 1 .35 1.05.8.8 0 0 0 1.16-.7.8.8 0 0 0-.8-.8zM36.9 23.59a.8.8 0 0 1-.75-.51.8.8 0 1 0 1.26.31.8.8 0 0 1-.52.2z" fill="#546C82"/><path d="M37.41 23.4a.79.79 0 0 0-.04-1.24.8.8 0 0 1-1.18.26.79.79 0 0 0-.04.66.8.8 0 0 1 1.26.31z" fill="#919DAA"/><path d="M36.9 23.59a.8.8 0 0 0 .51-.2.8.8 0 0 0-1.26-.31c.12.3.4.5.74.5zM37.37 22.16a.8.8 0 0 0-1.18.26.8.8 0 0 0 1.18-.26zM35.07 23.37a.8.8 0 0 0 .79-.66.8.8 0 0 0-1.38.4.8.8 0 0 0 .6.26z" fill="#CDD1D5"/><path d="M38.64 22.97a.8.8 0 0 1-.52-.68.79.79 0 0 0 .22 1.33v-.03c0-.26.12-.48.3-.62z" fill="#919DAA"/><path d="M38.64 22.97a.8.8 0 0 1 .77-.13l.02-.02a.8.8 0 0 0-1.3-.53.8.8 0 0 0 .5.68zM39.43 22.89v-.04h-.02a.8.8 0 0 1-.77.12.79.79 0 0 0-.3.62v.03a.8.8 0 0 0 1.1-.73z" fill="#CDD1D5"/><path d="M38.64 22.97a.8.8 0 0 0 .77-.13.8.8 0 0 0-.77.13z" fill="#CDD1D5"/><path d="M39.97 22.81a.8.8 0 0 0-.33.16.79.79 0 0 1 0 1.23.8.8 0 0 0 1.26-.85.8.8 0 0 1-.93-.54z" fill="#919DAA"/><path d="M39.93 23.59a.79.79 0 0 0-.3-.62.79.79 0 0 0 0 1.23c.19-.15.3-.37.3-.61zM40.14 22.8a.8.8 0 0 0-.17.01.8.8 0 0 0 .93.54.8.8 0 0 0-.76-.56z" fill="#CDD1D5"/><path d="M23.09 22.1a.8.8 0 1 1-1.59 0 .8.8 0 0 1 1.59 0zM16.32 23.02a.8.8 0 1 1-1.6 0 .8.8 0 0 1 1.6 0zM24.27 22.27a.8.8 0 0 0-.69.38.8.8 0 0 1 .35 1.13.8.8 0 1 0 .34-1.51zM19.91 23.02c0-.13.03-.24.08-.35a.8.8 0 0 0-1.17.7.8.8 0 0 0 1.51.35.8.8 0 0 1-.42-.7zM48.76 22.1a.8.8 0 0 0-.66.34.79.79 0 0 1 0 .9.8.8 0 0 0 1.45-.45.8.8 0 0 0-.8-.8zM29.75 23.02l.16.01a.8.8 0 1 0-.95.8v-.02c0-.44.35-.8.8-.8z" fill="#6A7C90"/><path d="M29.91 23.03v.03a.8.8 0 0 1-.95.77.8.8 0 1 0 .95-.8zM45.32 22.6a.8.8 0 0 1-.98.75v.02a.8.8 0 1 0 .98-.77zM43.05 23.06a.8.8 0 0 0-1.53.31.8.8 0 0 0 .86.8.8.8 0 0 1 .67-1.1z" fill="#6A7C90"/><path d="M43.6 22.22a.8.8 0 1 1-1.58 0 .8.8 0 0 1 1.58 0zM32.94 22.95a.8.8 0 0 1-.44-.48.8.8 0 0 0-.02 1.42.78.78 0 0 1 .46-.94z" fill="#6A7C90"/><path d="M32.85 23.98a.8.8 0 0 1-.37-.1.8.8 0 1 0 1.14-.9.8.8 0 0 1-.77 1zM36.9 22a.8.8 0 0 1 .47.16c.06-.1.1-.24.1-.37a.8.8 0 1 0-1.28.63.8.8 0 0 1 .7-.42zM35.26 22.45c.24 0 .45.1.6.26a.8.8 0 1 0-1.38.4.8.8 0 0 1 .78-.66z" fill="#6A7C90"/><path d="M35.86 22.71a.8.8 0 0 1-1.38.4.78.78 0 0 0 .78.92.8.8 0 0 0 .6-1.32zM39.43 22.82a.79.79 0 0 0-.52-1.39.8.8 0 0 0-.79.86.8.8 0 0 1 1.31.53zM39.64 22.97a.8.8 0 0 0-.2-.12v.04a.8.8 0 0 1-1.1.73.8.8 0 0 0 1.3.58.79.79 0 0 1 0-1.23zM41.52 22.58a.8.8 0 1 0-1.55.23.8.8 0 0 1 .93.54.8.8 0 0 0 .62-.77zM32.18 22.27a.8.8 0 0 0-1.59 0v.04a.8.8 0 0 1 1.16.66.8.8 0 0 0 .43-.7z" fill="#6A7C90"/><path d="M30.6 22.31a.8.8 0 0 0 .36 1.5.8.8 0 0 0 .8-.8v-.04a.8.8 0 0 1-1.17-.66z" fill="#919DAA"/><path d="M30.96 22.22a.8.8 0 0 0-.37.1.8.8 0 0 0 1.16.65.8.8 0 0 0-.79-.75z" fill="#CDD1D5"/><path d="M31.47 23.92a.8.8 0 1 1-1.59 0 .8.8 0 0 1 1.6 0z" fill="#FFFFFE"/><path d="M32.94 22.95a.8.8 0 0 1 .63 0l.03-.02a.8.8 0 0 0-1.1-.46.8.8 0 0 0 .44.48z" fill="#CDD1D5"/><path d="M42.46 22.58a.8.8 0 1 1-1.59 0 .8.8 0 0 1 1.59 0zM35.26 23.68a.8.8 0 1 1-1.58 0 .8.8 0 0 1 1.58 0zM23.38 22.58a.8.8 0 1 1-1.59 0 .8.8 0 0 1 1.59 0z" fill="#FFFFFE"/><path d="M45.13 22.58a.8.8 0 0 1 .19.02v-.02a.8.8 0 1 0-.98.77.8.8 0 0 1 .79-.77z" fill="#919DAA"/><path d="M26.7 22.8h-.05a.8.8 0 0 0-.71.44h.04a.8.8 0 0 0 .72-.44zM27.45 23.59a.79.79 0 0 0-.32-.64.8.8 0 0 0-.16 1.36.8.8 0 0 0 .48-.72z" fill="#CDD1D5"/><path d="M26.65 23.68c0-.33.2-.6.48-.73a.8.8 0 0 0-.43-.15.8.8 0 0 1-.72.44h-.04a.8.8 0 0 0 1.03 1.08.79.79 0 0 1-.32-.64z" fill="#6A7C90"/><path d="M26.65 22.8h.05a.8.8 0 1 0-1.5-.35c-.01.42.32.76.74.79a.8.8 0 0 1 .71-.45zM27.45 22.89a.8.8 0 0 0-.32.06.79.79 0 0 1-.16 1.36.8.8 0 1 0 .48-1.42z" fill="#919DAA"/></svg>