<!-- by TradingView --><svg xmlns="http://www.w3.org/2000/svg" width="56" height="56" viewBox="0 0 56 56"><path fill="url(#a2oakws52)" d="M0 0h56v56H0z"/><path d="M26 20v2h4.63c1.3 0 2.87.31 2.87 2.5S31.93 27 30.63 27H26l7.22 9H36l-5.56-7c2.86 0 5.06-1.8 5.06-4.5 0-2.75-1.75-4.5-3.46-4.5H26Zm11 0h2.6l3.9 6.03L47.26 20H50l-5.25 7.87L50 36h-2.74l-3.76-6.19L39.42 36H37l5.14-8.13L37 20ZM9 20H7v16h8v-2H9V20Zm16 0v2h-4v14h-2V22h-4v-2h10Z" fill="#fff"/><defs><linearGradient id="a2oakws52" x1="-7.5" y1="10.5" x2="60.5" y2="40" gradientUnits="userSpaceOnUse"><stop offset=".11" stop-color="#BF2927"/><stop offset=".49" stop-color="#E54024"/><stop offset=".88" stop-color="#ED5523"/></linearGradient></defs></svg>