<!-- by TradingView --><svg xmlns="http://www.w3.org/2000/svg" width="56" height="56" viewBox="0 0 56 56"><path fill="url(#aivbz5u0c)" d="M0 0h56v56H0z"/><path fill-rule="evenodd" d="M28 45a17 17 0 1 0 0-34 17 17 0 0 0 0 34zm3.77-21l-1.27 8h2.35l.94-5.02c.1-.55.57-.95 1.11-.95.7 0 1.24.66 1.11 1.38l-.8 4.59h2.5l.77-4.87c.1-.64.62-1.1 1.24-1.1.77 0 1.37.73 1.23 1.52a73.03 73.03 0 0 1-.83 4.45h2.46l.9-5.11c.15-.97-.4-2.89-2.17-2.89-1.75 0-2.5.84-2.9 1.3l-.07.09A1.75 1.75 0 0 0 36.5 24c-1.63 0-2.31.9-2.67 1.38v.01l.13-1.39h-2.2zm-16.6 7.33c-.47.7-1.37.88-2.01.42a1.51 1.51 0 0 1-.32-2.07c.47-.7 1.37-.88 2.02-.43.64.46.78 1.39.31 2.08zm6.28-4.69L23 25.25a3.25 3.25 0 0 0-.22-.25c-1.46-1.46-4.05-1.3-5.8.35C15.24 27 15 29.53 16.45 31c1.45 1.45 4.03 1.3 5.77-.33l-1.15-1.5-.02.02c-.84.8-2.08.87-2.78.17-.7-.7-.58-1.92.26-2.71.84-.8 2.08-.87 2.78-.17l.14.16zM22.98 31c1.5 1.46 4.18 1.3 5.99-.35 1.8-1.65 2.05-4.18.55-5.65-1.5-1.46-4.18-1.3-5.99.35-1.8 1.65-2.05 4.18-.55 5.65zm2.38-1.15c.84.42 1.9-.06 2.4-1.08.49-1.02.21-2.2-.62-2.62-.84-.42-1.9.06-2.4 1.08-.49 1.02-.21 2.2.62 2.62z" fill="#fff"/><defs><linearGradient id="aivbz5u0c" x1="28" y1="0" x2="28" y2="56" gradientUnits="userSpaceOnUse"><stop stop-color="#FE2C2D"/><stop offset="1" stop-color="#D42424"/></linearGradient></defs></svg>