<!-- by TradingView --><svg width="56" height="56" viewBox="0 0 56 56" xmlns="http://www.w3.org/2000/svg"><path fill="#F0F3FA" d="M0 0h56v56H0z"/><path d="M12 20.38c0-.87.41-1.68 1.1-2.16L15 17v7.58l2.72 2.05c.8.57 1.28 1.51 1.28 2.52v5.65c0 .96-1.03 1.53-1.8 1l-4.1-2.91a2.64 2.64 0 0 1-1.1-2.16V20.38ZM44 35.62c0 .87-.41 1.68-1.1 2.16L41 39v-7.58l-2.72-2.05A3.08 3.08 0 0 1 37 26.85V21.2c0-.96 1.03-1.53 1.8-1l4.1 2.91c.69.49 1.1 1.3 1.1 2.16v10.35Z" fill="#010101"/><path d="M13.44 38.34a2.69 2.69 0 0 1-1.28-2.12L12 34l6.5 3.89 3.25-1.63c.9-.45 1.95-.41 2.82.1l4.84 2.9c.82.49.78 1.74-.08 2.16l-4.6 2.31a2.5 2.5 0 0 1-2.42-.09l-8.87-5.3ZM42.56 17.66a2.69 2.69 0 0 1 1.28 2.12L44 22l-6.5-3.89-3.25 1.63c-.9.45-1.95.41-2.82-.1l-4.84-2.9c-.82-.49-.78-1.74.08-2.16l4.6-2.31a2.5 2.5 0 0 1 2.42.09l8.87 5.3Z" fill="#010101"/><path d="M29.5 45.65c-.77.43-1.7.47-2.5.09l-2-.94 7-3.78v-3.63c.07-1 .65-1.9 1.54-2.41l4.62-2.82c.85-.48 1.9.17 1.84 1.12v5.15a2.6 2.6 0 0 1-1.33 2.06l-9.17 5.16ZM26.5 10.35c.77-.43 1.7-.47 2.5-.09l2 .94-7 3.78v3.52c-.07 1-.65 2.02-1.54 2.52l-4.62 2.82c-.85.48-1.9-.17-1.84-1.12v-5.15a2.6 2.6 0 0 1 1.33-2.06l9.17-5.16Z" fill="#010101"/></svg>