<!-- by TradingView --><svg xmlns="http://www.w3.org/2000/svg" width="56" height="56" viewBox="0 0 56 56"><path fill="#F0F3FA" d="M0 0h56v56H0z"/><path d="M8 22H7v10c0 1.1.9 2 2 2h6v-1H9.5A1.5 1.5 0 0 1 8 31.5V22ZM17 22h-1v10c0 1.1.9 2 2 2h4a2 2 0 0 0 2-2V22h-1v9.5c0 .83-.67 1.5-1.5 1.5h-3a1.5 1.5 0 0 1-1.5-1.5V22ZM25 22.65c0-.36.3-.65.68-.65a.7.7 0 0 1 .58.3L33 32.2V22h1v11.35c0 .36-.3.65-.68.65a.7.7 0 0 1-.58-.3L26 23.85V34h-1V22.65ZM38.93 22.5a.79.79 0 0 1 1.47 0L44.84 34h-1.08l-4.1-10.65L35.56 34H34.5l4.44-11.5Z" fill="#003C78"/><path d="M41.62 29.51 38 32.5l3.3-3.3-10.8-.4 11.5-.3v2l-.38-.99Z" fill="#FEC222"/><path d="M42.47 27.71 46 24.8l-3.02 3.02 10.52.38-11.5.3v-2l.47 1.21Z" fill="#F37735"/></svg>