<!-- by TradingView --><svg width="56" height="56" viewBox="0 0 56 56" fill="none" xmlns="http://www.w3.org/2000/svg">
<rect width="56" height="56" fill="#F0F3FA"/>
<path d="M34.3018 36.2001L35.8076 37.2937C35.8076 37.6802 34.2747 38.6834 33.6113 39.2647L33.8954 39.9483H31.8114L29.2773 38.6787L29.5141 38.1415L27.3636 36.0173C28.0898 36.058 30.1441 36.8231 30.6746 36.7254C31.2051 36.6277 31.6535 35.822 31.8114 35.4314C31.1672 36.0759 30.0115 36.0906 29.5141 36.0173C28.2068 36.0955 26.2538 34.3571 25.4407 33.4781L22.954 30.9388V32.7456L22.2672 33.4781L18.549 35.1872L17.4122 33.4781L17.9333 32.3233C17.0428 30.286 17.8464 28.3215 18.3595 27.5939C18.3359 27.5125 18.3027 27.003 18.3595 25.6162C18.4164 24.2294 19.8516 22.8246 20.562 22.2956C20.5384 21.1237 21.1067 19.6587 21.4857 18.5356C21.8646 17.4124 24.3039 13.4327 29.7746 14.3116C34.1512 15.0148 35.1664 19.2925 35.127 21.3434C35.108 23.8436 35.2189 24.6955 35.2767 24.8089C36.0567 27.202 36.3445 29.0447 36.3909 29.6669C37.0223 30.8922 36.2207 31.9483 35.741 32.3233C35.4067 33.1082 35.6017 34.0224 35.741 34.3813C35.741 35.1089 34.7815 35.897 34.3018 36.2001Z" fill="#353535"/>
<path fill-rule="evenodd" clip-rule="evenodd" d="M9.57972 39.6873C9.66919 39.6214 9.78782 39.5472 9.9412 39.4681C10.3386 39.2631 10.961 39.0296 11.8932 38.8246L11.8316 38.5268C10.8824 38.7356 10.2348 38.9762 9.80906 39.1958C9.59625 39.3056 9.43681 39.4111 9.32228 39.5065C9.21113 39.599 9.13129 39.6909 9.09372 39.777L9 39.9917H20.3916V39.6873H9.57972Z" fill="black"/>
<path fill-rule="evenodd" clip-rule="evenodd" d="M46.4203 39.7049C46.3308 39.6412 46.2122 39.5692 46.0588 39.4926C45.6614 39.2939 45.039 39.0677 44.1068 38.869L44.1684 38.5804C45.1176 38.7827 45.7652 39.0159 46.1909 39.2287C46.4037 39.3351 46.5632 39.4374 46.6777 39.5298C46.7889 39.6194 46.8687 39.7085 46.9063 39.7919L47 40H35.6084V39.7049H46.4203Z" fill="black"/>
<path fill-rule="evenodd" clip-rule="evenodd" d="M41.0487 35.3142H41.3095C42.3854 32.9267 42.9933 30.2146 42.9933 27.3389C42.9933 17.7629 36.2523 10 27.937 10C19.6217 10 12.8808 17.7629 12.8808 27.3389C12.8808 30.2146 13.4887 32.9267 14.5645 35.3142H14.8256C13.8676 33.0075 13.3295 30.4113 13.3295 27.6659C13.3295 18.0952 19.8696 10.3366 27.9372 10.3366C36.0047 10.3366 42.5448 18.0952 42.5448 27.6659C42.5448 30.4113 42.0067 33.0075 41.0487 35.3142Z" fill="black"/>
<path fill-rule="evenodd" clip-rule="evenodd" d="M38.6877 36.0834H38.9468C40.7129 33.4224 41.7613 30.1027 41.7613 26.5026C41.7613 17.7493 35.5636 10.6533 27.9184 10.6533C20.2731 10.6533 14.0754 17.7493 14.0754 26.5026C14.0754 30.1027 15.1238 33.4224 16.8899 36.0834H17.2315C15.6528 33.4751 14.7221 30.2684 14.7221 26.8016C14.7221 18.053 20.6488 10.961 27.9596 10.961C35.2705 10.961 41.1971 18.053 41.1971 26.8016C41.1971 30.2684 40.2664 33.4751 38.6877 36.0834Z" fill="black"/>
<path fill-rule="evenodd" clip-rule="evenodd" d="M19.5156 36.9603C17.3359 34.2764 15.9874 30.5669 15.9874 26.4691C15.9874 18.2793 21.3738 11.6401 28.0181 11.6401C34.6625 11.6401 40.0488 18.2793 40.0488 26.4691C40.0488 30.5669 38.7004 34.2764 36.5206 36.9603H36.6332C39.0525 34.2563 40.5615 30.4306 40.5615 26.1893C40.5615 17.9949 34.9289 11.352 27.9806 11.352C21.0324 11.352 15.3997 17.9949 15.3997 26.1893C15.3997 30.4306 16.9087 34.2563 19.3281 36.9603H19.5156Z" fill="black"/>
<path fill-rule="evenodd" clip-rule="evenodd" d="M16.5515 34.3031C17.5022 36.2856 19.5998 38.2446 20.533 38.9764L20.6469 39.0657L20.2041 39.6901H21.9508L22.1417 39.1761C21.8824 39.0473 21.4736 38.7864 20.9427 38.3591C20.3048 37.8457 19.3654 37.1579 18.55 36.0003L18.7171 35.8832C19.6461 37.0821 20.5016 37.62 21.1255 38.1221C21.7525 38.6268 22.1851 38.8777 22.3824 38.9552L22.5196 39.0091L22.1546 39.9917H19.6256L20.2399 39.1254C19.2466 38.3225 17.2297 36.4032 16.2863 34.4358L16.5515 34.3031Z" fill="black"/>
<path fill-rule="evenodd" clip-rule="evenodd" d="M39.4485 34.2888C38.4978 36.2791 36.4002 38.2459 35.467 38.9806L35.3531 39.0703L35.7959 39.6972H34.0492L33.8583 39.1811C34.1176 39.0518 34.5264 38.7898 35.0573 38.3608C35.6952 37.8454 36.5409 37.219 37.4461 35.9748L37.3266 35.8867C36.3756 36.9542 35.4984 37.6189 34.8745 38.123C34.2475 38.6296 33.8149 38.8816 33.6176 38.9594L33.4804 39.0135L33.8454 40H36.3744L35.7601 39.1302C36.7534 38.3241 38.7703 36.3972 39.7137 34.422L39.4485 34.2888Z" fill="black"/>
<path fill-rule="evenodd" clip-rule="evenodd" d="M34.0928 39.9917H21.9932V39.6873H34.0928V39.9917Z" fill="black"/>
<path d="M31.9695 40L22.105 39.8401L22.7446 38.8411C21.1942 38.1858 19.3078 36.0772 18.5585 35.1049L22.9586 31.9894L24.923 35.3251C25.6982 35.9644 29.9863 38.961 31.9695 40Z" fill="#2E2E2E"/>
<path d="M20.5356 34.8451L19.3143 35.7243C20.2138 37.0989 21.8603 38.2417 22.5711 38.6413C22.3694 37.4905 21.1301 35.631 20.5356 34.8451Z" fill="#616161"/>
<path d="M26.5431 39.8001C23.5198 36.7312 22.3045 34.09 22.8553 32.0925C23.3492 33.718 24.7359 35.6174 25.7806 36.1658C26.1372 36.7092 27.9643 38.921 28.888 39.8001H26.5431Z" fill="#8A8A8A"/>
<path d="M26.1296 39.8643L23.483 37.1799L24.8903 39.8643H26.1296Z" fill="#616161"/>
<path fill-rule="evenodd" clip-rule="evenodd" d="M23.153 17.9481C23.223 17.4974 23.9109 16.8589 24.2462 16.596L23.153 16.889L24.9458 15.5595L23.5465 16.1904L24.9458 15.244C24.5377 15.2515 23.5465 15.5054 22.8469 16.4608C22.1473 17.4163 21.8995 18.4514 21.863 18.8495C22.1079 18.3447 22.621 17.903 22.8469 17.7453C22.602 18.8269 22.7449 19.4579 22.8469 19.6382C22.8469 19.0793 23.4299 18.0082 23.7215 17.5425L23.153 17.9481ZM21.4915 21.4634C21.3347 20.3865 21.7883 19.524 21.9794 19.1607L21.9794 19.1607C22.0282 19.0679 22.0599 19.0076 22.0599 18.9847L22.3879 19.6832C21.9156 20.1339 21.5935 21.0578 21.4915 21.4634ZM21.156 21.8356C21.2634 22.0514 21.4331 22.5828 21.2527 22.9813C21.0722 23.3798 20.6512 23.4905 20.4632 23.4961C20.6942 23.2857 21.156 22.6592 21.156 21.8356ZM22.7867 21.999C22.8941 22.2149 23.0638 22.7462 22.8833 23.1448C22.7029 23.5433 22.2818 23.654 22.0939 23.6595C22.3248 23.4492 22.7867 22.8226 22.7867 21.999ZM23.4541 23.7465C23.704 23.1947 23.469 22.459 23.3203 22.1602C23.3203 23.3005 22.6808 24.168 22.3611 24.4592C22.6213 24.4515 23.2043 24.2983 23.4541 23.7465ZM21.8345 24.6753C21.5631 25.0683 21.0242 26.0699 21.0397 26.9331C21.0552 27.7962 21.2659 28.7179 21.3693 29.0709C21.169 28.8778 20.7373 28.3357 20.6133 27.7123C20.6262 27.9787 20.6908 28.6753 20.8459 29.3307C20.6068 29.0509 20.1015 28.1398 19.9929 26.7333C19.9089 27.1062 19.7913 28.0519 19.9929 28.8511C19.7603 28.4782 19.326 27.4086 19.4501 26.1139C19.308 26.4003 19.0353 27.0889 19.0818 27.5524C18.9073 27.1662 18.7018 26.1418 19.2756 25.1349C19.8495 24.1279 20.4065 23.9294 20.6133 23.956C20.4065 24.1891 19.9929 24.7512 19.9929 25.1349C20.232 24.8751 20.7761 24.3277 21.0397 24.2158L20.4776 25.2747C20.7296 24.9617 21.3344 24.3117 21.7376 24.2158C21.4404 24.5554 20.8459 25.3227 20.8459 25.6743L21.8345 24.6753ZM21.4849 25.974C21.1919 26.9253 21.386 27.3858 21.5151 27.6921C21.5568 27.7911 21.5918 27.8739 21.6012 27.952C21.4306 26.3537 22.2151 25.2348 22.6287 24.8751C22.3767 24.8218 21.7951 24.967 21.4849 25.974ZM23.1901 25.0956C22.9484 25.3364 22.4118 25.8877 22.1991 26.1667C22.2902 25.8097 22.6158 25.0956 23.1901 25.0956ZM22.121 23.1448C22.3015 22.7462 22.1318 22.2149 22.0244 21.999C22.0244 22.8226 21.5625 23.4492 21.3316 23.6595C21.5196 23.654 21.9406 23.5433 22.121 23.1448ZM22.7594 20.0663C22.5043 20.2841 21.9942 20.8505 21.9942 21.3733L22.8906 20.4268L22.7594 20.0663ZM21.9093 29.1061C22.2396 29.5213 22.668 30.6207 21.7402 31.6968L21.5227 31.1488C21.418 31.4477 21.1216 32.0904 20.7737 32.2697V31.4477C20.6609 31.6636 20.3919 32.1302 20.218 32.2697L20.3629 31.4477L19.8072 32.2697L20.0247 31.1488L19.2756 32.2697C19.332 31.8048 19.3385 30.7353 18.9132 30.1773C18.4879 29.6193 18.6233 28.6993 18.7441 28.309C18.8246 28.7657 19.0678 29.709 19.3965 29.8285L19.2756 28.5332C19.4126 29.0148 19.7541 30.0178 20.0247 30.1773V29.3801L20.7737 30.7004L20.6529 29.8285L21.3536 30.7004L21.0878 29.8285L21.9093 30.4264C21.9657 30.0942 22.0446 29.3652 21.9093 29.1061ZM18.1399 30.551C17.7725 29.5745 18.1479 28.7657 18.3816 28.4834C18.2607 28.7695 18.1155 29.5388 18.5024 30.3268C18.8893 31.1147 18.857 31.884 18.7924 32.1701C18.728 32.0373 18.5072 31.5275 18.1399 30.551ZM18.7442 32.7181C18.4622 32.934 17.9224 33.5053 18.0191 34.0633C18.1158 34.6213 18.5427 34.877 18.7442 34.9351L18.8892 34.6611C18.6072 34.5034 18.1834 33.8939 18.7442 32.7181ZM18.7513 33.9254C18.682 33.5258 19.0687 33.1166 19.2707 32.9619C18.869 33.8041 19.1726 34.2407 19.3745 34.3537L19.2707 34.55C19.1264 34.5083 18.8205 34.3251 18.7513 33.9254ZM19.9017 32.6924C19.6997 32.8471 19.3131 33.2563 19.3823 33.656C19.4516 34.0557 19.7574 34.2388 19.9017 34.2805L20.0056 34.0842C19.8036 33.9712 19.5 33.5346 19.9017 32.6924ZM20.0585 33.3496C19.9892 32.9499 20.3759 32.5407 20.5778 32.3861C20.1762 33.2283 20.4797 33.6648 20.6817 33.7778L20.5778 33.9741C20.4336 33.9325 20.1277 33.7493 20.0585 33.3496ZM21.254 32.2386C21.052 32.3932 20.6653 32.8024 20.7346 33.2021C20.8038 33.6018 21.1097 33.785 21.254 33.8266L21.3578 33.6304C21.1559 33.5173 20.8523 33.0808 21.254 32.2386Z" fill="#CBCBCB"/>
<path fill-rule="evenodd" clip-rule="evenodd" d="M35.748 27.9882C35.7694 27.3062 35.5177 26.9221 35.3796 26.7114C35.3342 26.642 35.3011 26.5915 35.294 26.5553V27.3741L35.748 27.9882ZM35.5217 31.9947C36.634 31.3864 36.3068 30.0451 36.0041 29.4505C36.093 30.0158 35.8098 30.384 35.6571 30.4975C35.7655 30.1185 35.612 29.6416 35.5217 29.4505C35.4404 29.9742 35.1513 30.3667 35.017 30.4975C35.1517 30.1185 35.2416 29.4135 35.2697 29.1084L34.8485 29.8203C34.6868 30.9177 33.8788 31.9868 33.495 32.3842L34.557 31.4929L33.9895 32.4919C34.1711 32.4919 34.9921 31.5755 35.3799 31.1174L34.557 32.4919C35.011 32.3515 35.7109 31.4196 36.0041 30.9712L35.5217 31.9947ZM35.1498 32.7453V33.8411C35.2679 34.0745 35.4333 34.6387 35.1498 35.0283C34.943 34.5413 34.6536 33.4028 35.1498 32.7453ZM33.0534 33.689C32.6044 34.2247 32.6891 35.1501 32.7875 35.5459L33.2896 35.2415L33.0534 33.689ZM33.7619 33.415L34.5594 35.2719C34.4019 35.5763 34.0219 36.0512 33.7619 35.5154C33.502 34.9797 33.6537 33.8919 33.7619 33.415Z" fill="#919191"/>
<path d="M31.8827 38.3385C32.8512 37.9724 33.497 38.0334 33.6988 38.1097C31.9714 38.7586 32.4006 39.4893 32.8311 39.7735H31.8827L30.5105 38.9208C30.5643 38.8792 30.9141 38.7045 31.8827 38.3385Z" fill="#FDFDFD"/>
<path d="M32.2051 36.9451C32.1566 36.213 32.427 35.8636 32.5683 35.7804C33.4077 35.9135 33.7252 37.0283 33.779 37.569C33.6849 37.6244 33.3553 37.7645 32.7903 37.8809C32.084 38.0265 32.2656 37.8601 32.2051 36.9451Z" fill="#DBDBDB"/>
<path d="M34.9636 37.6023L33.8539 36.6111L34.4951 37.8565C34.2814 37.9751 33.7109 38.3139 33.1388 38.7206C32.5668 39.1272 32.7196 39.4491 32.8676 39.5593H33.4841V39.1018L34.717 38.2123L34.9636 37.6023Z" fill="#AFAFAF"/>
<path d="M28.7706 14.7941C31.4697 14.7692 33.1085 16.4608 33.5905 17.3097C34.3364 18.1865 34.7155 20.037 34.8118 20.8526C34.8496 22.1394 34.9025 25.3211 34.8118 27.7543C34.721 30.1874 33.488 32.1019 32.8829 32.7551L32.3072 34.5678C32.058 35.4434 30.8734 36.8656 28.1282 35.5485C25.3829 34.2315 23.5566 31.5478 22.9866 30.3706L23.1975 29.1344C23.3934 29.5188 24.2388 30.4402 24.6369 30.8529C23.785 29.8788 23.655 28.6342 23.6971 28.1003C23.6447 28.5501 23.0948 28.6589 22.9866 28.6589C22.3118 28.5761 22.1194 27.6778 22.1075 27.239C22.2567 27.5548 22.7557 27.6044 22.9866 27.5897C22.3118 27.217 22.3439 26.6269 22.4443 26.3785C22.5889 26.7512 23.0067 26.8443 23.1975 26.8443V25.2915L24.0711 24.0181C23.9506 22.2044 24.2418 21.0263 24.4025 20.6639L23.8301 21.3782C23.806 20.9807 24.0811 20.2188 24.2217 19.8875C23.8843 20.1111 23.5188 20.9745 23.3782 21.3782C23.1854 20.931 23.7598 19.8047 24.0711 19.2974L23.3782 20.0738C23.33 19.4527 23.82 18.7591 24.0711 18.4899C24.2518 16.8439 25.3966 14.8251 28.7706 14.7941Z" fill="#EDEDED"/>
<path d="M34.1668 19.6062C34.0296 18.3517 33.481 17.4491 33.2239 17.1546L33.3524 17.8835L31.8738 18.4135H33.3524V18.8995C32.4438 19.1115 31.8595 19.459 31.6809 19.6062C32.8124 19.3589 33.8096 19.5032 34.1668 19.6062Z" fill="#858585"/>
<path d="M30.2397 18.8885C29.172 18.7509 27.9413 18.9458 27.4594 19.0605C29.6836 19.1981 29.35 19.672 28.9051 19.8918L29.7948 20.637L30.5733 20.1784L30.2397 20.981H30.7401C30.6289 21.302 29.8041 21.5734 29.4056 21.6689L29.7948 22.1562L30.7401 21.6689L30.2397 22.1562V22.3855L31.2684 21.6689V19.4331C31.5575 19.0892 32.6493 18.9267 33.159 18.8885L33.298 18.3726H31.7132C32.1674 18.3152 33.0923 18.1203 33.159 17.7993C33.2257 17.4783 32.8717 16.8056 32.6863 16.5094L31.9357 17.5413C31.691 17.0598 30.9255 16.6527 30.5733 16.5094C30.8402 18.0458 30.4621 18.7356 30.2397 18.8885Z" fill="#D3D3D3"/>
<path d="M25.8151 21.372C27.183 20.5569 28.3087 20.4633 28.7006 20.5183C27.696 20.7827 26.6433 22.0421 26.2426 22.6387L26.0021 22.3633L26.6968 21.5097L25.5746 22.3633C25.2112 21.0636 25.9932 20.4816 26.4296 20.3531C26.1624 20.6285 25.8151 21.1517 25.8151 21.372Z" fill="#ADADAD"/>
<path d="M27.7371 21.3021C28.1323 20.7381 29.3712 20.6885 29.9412 20.7342C29.8068 21.0416 29.575 21.2303 29.4484 21.3021H27.7371Z" fill="#212121"/>
<path d="M29.5444 21.3684C29.7236 21.2263 30.0958 20.9393 30.151 20.9279L29.958 21.3684H29.5444Z" fill="#212121"/>
<path d="M27.2115 21.9115C27.6506 21.4473 28.6987 21.3603 29.1678 21.3748L29.2664 21.81C29.0505 21.7374 28.4894 21.6214 27.9715 21.7374C27.4535 21.8535 26.6954 22.8302 26.3811 23.3041L26.0433 23.101C26.2497 22.8979 26.7723 22.3757 27.2115 21.9115Z" fill="#373737"/>
<path d="M29.5473 22.3466C29.4798 22.1145 29.2283 21.9115 29.111 21.8389C28.4467 21.6416 28.1023 21.8244 28.0132 21.9405C28.0507 21.9405 28.2665 21.984 28.8295 22.1581C29.3925 22.3321 29.4863 22.7625 29.4629 22.9559C29.8232 22.805 29.8663 22.3611 29.8429 22.1581C29.7444 22.2016 29.5473 22.3002 29.5473 22.3466Z" fill="#A2A3A7"/>
<path d="M28.0456 23.2467C27.6627 23.2636 27.5213 22.9719 27.4985 22.8238L27.608 22.5419L28.2781 22.415L28.5175 22.5419C28.5995 22.7181 28.5243 23.2256 28.0456 23.2467Z" fill="#212121"/>
<path d="M28.2772 23.1132C28.5446 22.8726 28.2869 22.622 28.2772 22.597C28.211 23.022 27.9059 23.0581 27.7617 23.023C27.8443 23.1333 28.0632 23.3057 28.2772 23.1132Z" fill="white"/>
<ellipse cx="27.8213" cy="22.7234" rx="0.122829" ry="0.126417" fill="white"/>
<path d="M29.706 23.715V23.2133C29.363 23.2133 29.4183 22.8369 29.2192 22.6773C29.0598 22.5495 28.8356 22.7305 28.7434 22.8369C28.7257 23.2931 28.0942 23.4527 27.7807 23.4756C28.1171 23.4756 28.6807 23.3919 28.9204 23.3501C28.854 23.3919 28.6039 23.5075 28.1348 23.6352C27.6657 23.7629 27.2017 23.582 27.0283 23.4756C27.1434 23.6033 27.4894 23.8405 27.6479 23.9431L27.2496 24.1142C27.7188 24.251 28.6475 24.0572 29.0532 23.9431C28.9735 24.1803 28.5331 24.5513 28.3229 24.7072C29.1815 24.5612 29.4921 23.9849 29.54 23.715H29.706Z" fill="#C6C7CB"/>
<path d="M34.4183 20.7606C34.6944 20.9503 34.7347 21.6598 34.7203 21.9908L34.4183 22.8282L34.2457 23.1765C33.9282 23.4235 33.4855 23.424 33.3039 23.3933C33.7321 23.2938 33.861 23.0803 33.8719 22.9859C33.6326 22.5015 32.9855 22.4862 32.6919 22.5391C32.5302 22.6653 32.2895 23.0166 32.1894 23.1765L32.894 23.5915C32.8509 23.5915 32.7329 23.6181 32.6064 23.7249C32.4799 23.8316 32.8509 24.0657 33.0522 24.1695L32.4338 24.0954V24.4956L32.1894 24.7179C32.1079 24.4709 31.9363 23.8464 31.9018 23.3247C31.8673 22.803 31.6573 22.218 31.5566 21.9908C31.6832 21.8841 31.7915 21.3436 31.8299 21.0867C33.0378 21.063 33.6945 20.3061 33.8719 19.9306H34.2457C34.1264 20.1678 33.8645 20.6421 33.7712 20.6421C34.0933 20.6776 34.3368 20.4099 34.4183 20.2715L34.5477 20.4346L34.4183 20.7606Z" fill="url(#paint0_linear_5071_140285)"/>
<path d="M33.3676 21.1725C33.9286 21.0358 34.2643 21.282 34.3621 21.4221C34.8083 21.9478 34.3621 22.8545 34.1453 22.0924C33.9719 21.4826 33.3166 21.5229 33.0106 21.6193C32.7386 21.8076 32.1716 22.1239 32.0798 21.8821C31.965 21.5798 32.6663 21.3433 33.3676 21.1725Z" fill="#69696B"/>
<path d="M33.24 21.8164C32.6688 21.8269 32.305 22.3815 32.1945 22.6574C33.1533 22.0056 33.8775 22.5085 34.1198 22.8414C34.209 22.4078 33.954 21.8033 33.24 21.8164Z" fill="#E1E1E3"/>
<path d="M33.012 23.1644C32.625 23.175 32.5154 22.8941 32.509 22.7523L32.6315 22.5197L33.1732 22.4466L33.4827 22.646C33.487 22.8143 33.3989 23.1537 33.012 23.1644Z" fill="#212121"/>
<ellipse cx="32.7382" cy="22.7183" rx="0.119653" ry="0.123148" fill="white"/>
<path d="M32.9603 22.9523C33.1308 22.8991 33.2251 22.686 33.251 22.5861L33.3802 22.6194C33.3716 22.7437 33.3052 23.0069 33.1089 23.0655C32.9125 23.1241 32.928 23.0145 32.9603 22.9523Z" fill="white"/>
<path d="M31.5451 20.9128C31.5355 21.2097 31.381 21.6635 31.305 21.8532C31.3914 21.9819 31.5491 22.5503 31.6171 22.8184C31.5931 23.037 31.5859 23.6252 31.7492 24.229C31.9125 24.8329 31.8893 25.1818 31.8572 25.2808C31.8572 25.6149 30.9448 25.652 30.5606 25.3922C30.2533 25.1843 30.5206 24.6621 30.6927 24.427L30.2004 24.031L29.9603 24.5384L30.2004 24.7611C30.0884 24.8683 29.8835 25.1224 29.9603 25.2808C30.0371 25.4392 29.9283 25.8418 29.8643 26.0233C30.0804 25.7923 30.5846 25.4145 30.8728 25.751C31.1609 26.0876 31.6491 26.0315 31.8572 25.9614C32.251 25.7832 32.2614 25.087 32.2174 24.7611L31.9773 23.8083C31.9197 23.0164 31.6652 22.2657 31.5451 21.9893C31.6796 21.8012 31.8092 21.3005 31.8572 21.0736L31.9773 20.9128L32.9498 19.8981L31.8572 20.0713C31.8669 20.5168 31.6531 20.8179 31.5451 20.9128Z" fill="#C5C6C8"/>
<path d="M29.9201 25.188C29.9156 25.1896 29.911 25.1913 29.9063 25.1931C29.8539 25.2263 29.7137 25.4293 29.469 26.0596C29.1984 26.7569 28.6797 27.3089 28.4542 27.4978C28.5247 27.2895 28.7192 26.7307 28.9334 26.1613C29.1437 25.6025 29.6606 25.2871 29.9063 25.1931C29.9119 25.1896 29.9165 25.188 29.9201 25.188Z" fill="#B7B7B9"/>
<path d="M29.6801 26.4519C29.5786 26.0451 29.7694 25.7885 29.8775 25.711C29.8499 25.738 29.7972 25.8746 29.807 26.2049C29.8168 26.5352 30.3655 26.6815 30.6386 26.7134C30.3614 26.7957 29.7816 26.8586 29.6801 26.4519Z" fill="#5A5A5C"/>
<path d="M30.9063 25.9579C30.4102 25.8533 30.023 26.1177 29.8915 26.263C30.0719 26.507 30.6432 26.539 30.9063 26.5245C30.864 26.5681 30.8668 26.6523 31.2164 26.6407C31.5659 26.6291 32.0386 26.3066 32.2312 26.1468V25.3768C32.1748 26.1468 31.5265 26.0887 30.9063 25.9579Z" fill="#999A9E"/>
<path d="M31.2445 26.2775C31.0378 26.171 30.5369 26.0364 30.1874 26.3502C30.4035 26.4083 30.9175 26.4751 31.2445 26.2775Z" fill="#48484A"/>
<path d="M32.9863 22.359C33.6492 22.3502 33.9707 22.7276 34.0486 22.9174C34.0876 22.9758 34.1655 23.1057 34.1655 23.1583C34.0465 23.3509 33.5777 23.3699 33.3582 23.3553C33.6556 23.3466 33.8079 23.1108 33.8468 22.994C33.7406 22.8334 33.4198 22.5232 32.9863 22.567C32.5529 22.6108 32.3029 22.9356 32.2321 23.0926L32.657 23.4758C32.3936 23.4145 32.1436 23.2385 32.0515 23.1583C32.0869 22.8955 32.3235 22.3678 32.9863 22.359Z" fill="#373737"/>
<path d="M32.4423 24.5488L32.2026 24.6795C32.3154 24.9817 32.2496 25.7836 32.2026 26.1467C32.011 26.3675 31.4744 26.5971 31.2301 26.6842C31.3992 26.7762 31.8785 26.905 32.4423 26.6842C33.006 26.4634 32.7711 25.8271 32.5832 25.5366C32.696 25.2925 32.5362 24.7764 32.4423 24.5488Z" fill="#5D5E60"/>
<path d="M32.0897 26.5099L32.4843 25.9288C32.5219 25.9869 32.5745 26.1467 32.4843 26.3211C32.3941 26.4954 32.1836 26.5196 32.0897 26.5099Z" fill="#AEAFB1"/>
<path d="M34.0715 23.3568C33.8126 23.6404 33.3039 23.6219 33.0819 23.5772H32.3443V24.6215L32.602 25.8625L32.9025 25.9959C32.9712 26.6485 32.2871 26.8651 31.9365 26.8918V27.8642C32.2628 27.9353 32.3443 28.2645 32.3443 28.4202V28.7538L33.0819 29.0207L31.8291 30.1327H30.8201L30.9919 29.5989L27.944 31.4449C28.3447 32.1566 29.4866 33.5542 30.9919 33.4021C32.4002 33.2597 33.308 32.4952 33.6483 31.4449C34.7419 29.4575 34.6542 28.2236 34.6542 26.8918C34.6542 25.8264 34.3492 25.3069 34.1968 25.1802C34.377 25.208 34.7393 25.1351 34.7467 24.6215C34.7541 24.108 34.5093 23.8902 34.386 23.8454V23.5772L34.6542 23.1652C34.5679 23.1109 34.3305 23.0732 34.0715 23.3568Z" fill="#B6B6B6"/>
<path d="M33.8138 24.2921C34.1373 24.2087 34.1508 23.8266 34.1171 23.646C34.02 23.8628 33.3622 23.7363 33.0454 23.646C32.277 23.8127 32.9847 24.0003 33.0454 24.1253C33.0939 24.2254 32.7017 24.2782 32.4995 24.2921C32.5871 24.3963 32.9079 24.6339 33.4903 24.7506C34.0726 24.8673 33.9486 24.4935 33.8138 24.2921Z" fill="#D7D7D7"/>
<path d="M33.0664 27.206L33.1677 26.6145L32.8975 26.4753L31.9521 26.9103C31.8677 27.1828 31.7833 27.7559 32.121 27.8672C32.4586 27.9786 32.7794 27.6468 32.8975 27.467C32.9516 27.6758 33.3365 27.728 33.5222 27.728L33.0664 27.206Z" fill="#7C7D7E"/>
<path d="M33.6737 28.25C33.8088 28.598 33.3811 28.9518 33.1504 29.0852L33.066 28.3544C33.2123 28.1746 33.5387 27.9021 33.6737 28.25Z" fill="#DDDDDD"/>
<path d="M29.0526 31.6416L30.4709 30.6559C30.8566 30.9845 31.4563 31.7692 30.7695 32.2794C30.0827 32.7897 29.3387 32.0668 29.0526 31.6416Z" fill="url(#paint1_linear_5071_140285)"/>
<path d="M29.5785 27.9015C29.3144 27.9872 28.7716 28.1586 28.7129 28.1586V28.3551L27.9647 28.8844H28.2287L29.1384 28.3551L29.872 27.9015L30.1654 28.3551L30.7669 28.0678V27.3571C30.6153 27.4831 30.2505 27.72 30.004 27.6596C29.7575 27.5991 29.6176 27.7956 29.5785 27.9015Z" fill="#CCCDCF"/>
<path d="M30.9568 27.9469C30.8512 27.6565 31.2061 27.2513 31.3968 27.085C31.7488 27.085 31.8759 27.5991 31.8955 27.8561C32.1888 27.9892 32.2622 28.3652 32.2622 28.5366L32.4088 28.8088H31.1621H29.7101L29.2114 28.6576L28.5807 29.0205L28.346 28.8088L29.9007 27.8561V28.0225L29.2994 28.461L30.2088 28.5366L30.7368 28.3249L31.1621 28.5366L31.7928 28.3249L31.5288 27.6898V28.1586C31.3821 28.209 31.0624 28.2372 30.9568 27.9469Z" fill="url(#paint2_linear_5071_140285)"/>
<path d="M31.1035 28.0989C31.1869 27.9676 31.3654 27.6959 31.4125 27.6596V28.0989C31.3183 28.2201 31.1672 28.1494 31.1035 28.0989Z" fill="#636466"/>
<path d="M29.6716 28.8912C30.2539 28.9852 31.5869 29.1168 32.2605 28.8912C31.9798 29.1587 31.0692 29.5333 29.6716 28.8912Z" fill="#A8A9AB"/>
<path d="M32.3654 28.9129C32.4917 28.9924 32.7611 29.1645 32.8285 29.2166L32.3654 29.4986H32.2391L31.313 30.0409H30.8079L31.0183 29.4986L32.3654 28.9129Z" fill="url(#paint3_linear_5071_140285)"/>
<path d="M26.6338 29.9794C27.1347 29.6093 28.1709 28.8566 28.3083 28.8073C26.8829 28.8073 26.1114 30.2056 25.9039 30.9048C25.6463 31.9577 26.9272 33.2491 27.5999 33.7632L27.3852 34.1128C27.0489 33.6946 26.2817 32.7432 25.9039 32.2826C25.5261 31.8219 24.9164 30.4044 24.6588 29.7532L23.7356 28.6428C23.6669 28.9882 23.8644 30.1713 23.9718 30.7197L24.6588 33.3087C25.2455 33.8502 26.6939 35.1002 28.3083 35.9063C29.9227 36.7124 31.699 35.903 32.2285 35.4506L33.1602 32.7144L32.559 33.1463C32.2656 33.2765 31.4556 33.537 30.5625 33.537C29.6694 33.537 28.9166 32.8789 28.6518 32.5499C28.4014 32.2689 27.8403 31.6615 27.5999 31.4806C27.2993 31.2544 27.4926 31.0282 27.9004 30.5552C28.2268 30.1768 28.7091 30.5072 28.9095 30.7197L31.1207 29.7532H30.5625L29.2744 30.2262L29.0597 29.9794V29.5887C28.8093 29.6847 28.2525 29.8972 28.0293 29.9794C27.806 30.0617 27.2636 30.7129 27.0203 31.0282L26.6338 29.9794Z" fill="url(#paint4_linear_5071_140285)"/>
<path d="M31.5071 35.3466C31.8507 35.1328 32.3804 33.8043 32.6023 33.1669L33.0318 32.8584C32.8886 33.16 32.5421 33.9154 32.3016 34.5241C32.0611 35.1328 31.6717 35.3261 31.5071 35.3466Z" fill="#A0A0A0"/>
<path d="M29.9833 33.7837C29.5466 33.7632 28.6261 33.6604 28.4371 33.4136C28.4586 33.914 28.7979 34.6886 29.9833 33.7837Z" fill="#A8A8A8"/>
<path d="M28.7162 35.2026C29.5323 34.5035 30.7778 34.2361 30.9281 34.1744C30.7563 34.339 30.3268 34.7749 29.9832 35.2026C29.6396 35.6304 28.9954 35.3809 28.7162 35.2026Z" fill="#A8A8A8"/>
<path d="M30.1761 35.6345C30.5197 34.9353 31.8726 34.0922 32.0014 34.0305C31.7094 34.195 31.3214 34.9765 31.1639 35.3466C30.8469 35.4195 30.2056 35.5792 30.1761 35.6345Z" fill="#A8A8A8"/>
<path d="M27.7076 31.9536C27.5186 31.7562 26.8129 31.6108 26.4836 31.5629C26.4836 31.859 27.1994 32.1661 27.5573 32.2826L28.1586 33.064H28.5451C28.3447 32.7761 27.8966 32.151 27.7076 31.9536Z" fill="#9C9DA1"/>
<path d="M27.8447 22.3901C28.3176 22.2045 28.8393 22.2644 29.041 22.3176L28.5766 22.3901L29.041 22.6948C28.8252 22.5932 28.3091 22.4192 27.9713 22.5352C27.5491 22.6803 27.3098 22.9414 27.3239 23.1009C27.3352 23.2286 27.535 23.3766 27.6336 23.4346C27.3858 23.4346 27.1738 23.2992 27.0987 23.2315H26.6906C27.1832 23.0574 27.2535 22.6222 27.8447 22.3901Z" fill="#373737"/>
<path d="M24.9053 35.5081C23.011 34.0334 22.8595 31.9376 23.0206 31.0741C24.9923 33.4655 27.096 35.0265 27.9014 35.5081C29.9697 36.5843 31.4855 35.8403 31.9849 35.3338C32.0815 35.8403 31.9752 36.8981 30.7768 37.0775C29.5783 37.2568 28.0706 36.4713 27.4665 36.0562C28.375 36.8134 29.2948 37.1688 29.6411 37.2518L28.3605 37.0775C29.6556 38.1137 31.0264 37.5093 31.55 37.0775C31.6224 37.775 30.4143 38.9208 29.3753 38.4974C28.3364 38.0739 27.2732 37.3515 24.9053 35.5081Z" fill="#FDFDFD"/>
<path d="M31.6143 32.7201C32.9128 32.3078 34.0229 30.252 34.4156 29.2756C34.2323 30.1977 33.5516 32.4217 32.0594 33.0998C30.8655 33.6422 29.8166 33.0727 29.4413 32.7201C29.6246 32.8919 30.3158 33.1323 31.6143 32.7201Z" fill="#767676"/>
<path d="M12.0465 30.2302C12.7659 31.3989 13.1275 33.7514 13.2183 34.7815C15.9216 35.6356 16.9245 36.0364 17.088 36.1301C16.8482 32.9835 13.6271 30.8857 12.0465 30.2302Z" fill="#FAFAFA"/>
<path fill-rule="evenodd" clip-rule="evenodd" d="M11.676 29.9124L12.1016 30.0889C12.9065 30.4228 14.1232 31.1206 15.1711 32.135C16.2186 33.1489 17.1114 34.4929 17.2352 36.1181L17.2568 36.4009L17.0163 36.2632C16.948 36.224 16.6698 36.1047 16.057 35.8847C15.4502 35.6669 14.5256 35.3538 13.1751 34.9271L13.0802 34.8971L13.0713 34.7953C13.0264 34.2863 12.9142 33.4474 12.7242 32.5918C12.5333 31.7321 12.2674 30.8731 11.9218 30.3117L11.676 29.9124ZM12.3856 30.5495C12.6526 31.1184 12.8585 31.8324 13.0121 32.5238C13.1933 33.3395 13.3048 34.1396 13.3559 34.6658C14.6577 35.078 15.5571 35.3828 16.1542 35.5972C16.4998 35.7213 16.7475 35.8162 16.9141 35.885C16.729 34.4763 15.9292 33.2864 14.969 32.357C14.1114 31.5269 13.1355 30.9143 12.3856 30.5495Z" fill="black"/>
<path fill-rule="evenodd" clip-rule="evenodd" d="M13.8875 31.8571C14.4034 32.3188 14.8836 33.2049 15.2438 34.0157C15.3811 34.3248 15.5026 34.6269 15.6037 34.8967C15.6051 34.9005 15.6065 34.9043 15.6079 34.9081L15.6888 34.3109L15.9814 34.353L15.8178 35.5611L15.5312 35.5877C15.4846 35.4419 15.424 35.2656 15.3516 35.0697C15.2895 35.0433 15.2087 35.0047 15.1194 34.9603C14.988 34.895 14.8281 34.812 14.6606 34.7234C14.3256 34.546 13.9574 34.3446 13.7206 34.2132L13.8607 33.9451C14.0963 34.0759 14.4627 34.2763 14.7956 34.4525C14.9392 34.5285 15.076 34.5997 15.1932 34.6587C15.1316 34.5053 15.0648 34.3459 14.9936 34.1842L13.7128 33.3657L13.8685 33.1069L14.7565 33.6744C14.4382 33.0271 14.0675 32.4215 13.6938 32.087L13.8875 31.8571Z" fill="black"/>
<path fill-rule="evenodd" clip-rule="evenodd" d="M19.0496 38.8476C18.8879 38.0614 18.0998 36.346 16.2419 35.7742C14.3839 35.2024 12.4635 34.583 11.7355 34.3447C12.0706 35.7147 13.441 38.6117 16.2419 39.2407C17.0622 39.3598 18.7723 39.448 19.0496 38.8476ZM18.9111 38.6617C18.7585 37.9298 18.0152 36.3331 16.2626 35.8008C14.51 35.2685 12.6986 34.6919 12.0119 34.4701C12.328 35.7453 13.808 38.2521 16.45 38.8376C17.2238 38.9485 18.4471 39.0664 18.9111 38.6617Z" fill="black"/>
<path fill-rule="evenodd" clip-rule="evenodd" d="M15.4491 36.8982H14.3296V37.2023H16.1458L16.7517 37.5745H15.32V37.8786H17.2429L17.3713 37.9667C17.4713 38.0353 17.6066 38.1282 17.7481 38.2256C17.8404 38.2892 17.935 38.3544 18.0241 38.416C17.8476 38.4092 17.6598 38.3987 17.4823 38.383C17.2999 38.367 17.1318 38.3459 16.9993 38.3189C16.933 38.3055 16.8785 38.2911 16.837 38.2763C16.8164 38.269 16.8006 38.2621 16.789 38.2561C16.7833 38.2531 16.7791 38.2506 16.7762 38.2487C16.7733 38.2467 16.7722 38.2457 16.7723 38.2458L16.5839 38.4767C16.6292 38.5175 16.6888 38.5447 16.7441 38.5643C16.8024 38.5851 16.8708 38.6026 16.9443 38.6175C17.0914 38.6474 17.2712 38.6697 17.4581 38.6861C17.8324 38.719 18.2484 38.73 18.5175 38.73L18.9828 38.73L18.5997 38.4527C18.4989 38.3797 18.1892 38.1656 17.9068 37.9713C17.7652 37.8738 17.6298 37.7808 17.5297 37.7121L17.4056 37.627L17.0549 36.6125L16.7827 36.7162L17.0131 37.3827L16.2882 36.9375L15.6113 35.8269L15.3674 35.9909L15.8147 36.7247C15.7564 36.7 15.6962 36.6746 15.6343 36.6486C15.5865 36.6284 15.5376 36.6078 15.488 36.5868C15.1963 36.4636 14.8757 36.3265 14.5583 36.1789C13.9174 35.881 13.3106 35.5499 12.9787 35.2183L12.7791 35.4387C13.1519 35.8111 13.8029 36.1604 14.4411 36.457C14.7633 36.6068 15.0877 36.7455 15.3799 36.869C15.4032 36.8788 15.4263 36.8886 15.4491 36.8982Z" fill="black"/>
<path d="M10.1934 38.0405C11.0655 37.1639 12.2827 36.7949 12.7823 36.72C13.5017 37.9112 15.0986 38.8459 15.8072 39.1643C14.4555 39.5688 11.5015 38.5836 10.1934 38.0405Z" fill="#FAFAFA"/>
<path fill-rule="evenodd" clip-rule="evenodd" d="M12.8566 36.555L12.9077 36.6395C13.2525 37.2104 13.8136 37.728 14.3843 38.1452C14.9534 38.5613 15.5209 38.8695 15.8662 39.0247L16.2408 39.193L15.8484 39.3104C15.4848 39.4193 15.0256 39.432 14.5309 39.3874C14.0339 39.3425 13.4894 39.2387 12.9497 39.1058C11.8703 38.8401 10.7977 38.4555 10.1383 38.1817L9.92822 38.0944L10.0904 37.9314C10.9918 37.0253 12.2421 36.6471 12.7611 36.5693L12.8566 36.555ZM10.4676 37.988C11.1211 38.2475 12.0681 38.5758 13.0183 38.8097C13.5495 38.9404 14.0788 39.0409 14.5567 39.084C14.8385 39.1095 15.0985 39.1145 15.3283 39.0954C15.0021 38.9205 14.608 38.682 14.2134 38.3936C13.6559 37.986 13.0872 37.4713 12.7107 36.8866C12.2207 36.9801 11.2399 37.3028 10.4676 37.988Z" fill="black"/>
<path fill-rule="evenodd" clip-rule="evenodd" d="M11.6923 37.6073H13.9419L12.775 38.3659L12.6174 38.1084L12.9198 37.9118H11.6923V37.6073Z" fill="black"/>
<path fill-rule="evenodd" clip-rule="evenodd" d="M36.9504 38.8332C37.1121 38.047 37.9002 36.3316 39.7581 35.7598C41.6161 35.188 43.5365 34.5686 44.2645 34.3303C43.9294 35.7002 42.559 38.5973 39.7581 39.2263C38.9378 39.3454 37.2277 39.4336 36.9504 38.8332ZM37.0889 38.6473C37.2415 37.9154 37.9848 36.3186 39.7374 35.7864C41.49 35.2541 43.3014 34.6775 43.9881 34.4557C43.672 35.7309 42.192 38.2377 39.55 38.8232C38.7762 38.9341 37.5529 39.052 37.0889 38.6473Z" fill="black"/>
<path fill-rule="evenodd" clip-rule="evenodd" d="M39.7862 37.1903H41.6608V36.8859H40.5246C40.7339 36.7975 40.9737 36.6935 41.2235 36.5798C41.6018 36.4075 42.0047 36.2123 42.3593 36.015C42.7106 35.8194 43.0261 35.6157 43.2209 35.4246L43.0174 35.204C42.8529 35.3653 42.5672 35.5532 42.219 35.747C41.8739 35.939 41.4788 36.1307 41.1041 36.3012C40.7479 36.4634 40.4117 36.6059 40.157 36.7107C40.1615 36.7041 40.1661 36.6975 40.1707 36.6908C40.3362 36.4505 40.5323 36.1614 40.6487 35.9751L40.4004 35.8102C40.2881 35.99 40.0957 36.2737 39.9298 36.5145C39.8472 36.6345 39.7717 36.7431 39.7169 36.8217L39.6518 36.9147L39.6469 36.9218L39.6432 36.9239L39.5556 36.9749C39.4814 37.0182 39.3783 37.0787 39.2626 37.1473C39.0332 37.2835 38.7522 37.4529 38.5496 37.5842L39.0027 36.6528L38.7387 36.5163L38.0627 37.9059C37.9086 38.0097 37.7224 38.1381 37.5712 38.2429C37.4899 38.2993 37.4186 38.3489 37.3676 38.3845L37.2862 38.4415L37.3853 38.7189L39.2612 38.502L39.2283 38.1994L37.9509 38.3471C38.0568 38.2743 38.1644 38.2009 38.2571 38.1387L38.4236 38.0282C38.4977 37.9791 38.5835 37.9224 38.6534 37.8767C38.8804 37.9229 39.2199 37.9733 39.5735 37.989C39.9548 38.0059 40.3734 37.9836 40.6841 37.8568L40.5753 37.5737C40.325 37.6759 39.9585 37.7013 39.5862 37.6848C39.3939 37.6763 39.2056 37.6569 39.0397 37.6337C39.1643 37.5577 39.2933 37.4805 39.4099 37.4112C39.5249 37.343 39.6274 37.2829 39.7012 37.2399L39.7862 37.1903Z" fill="black"/>
<path d="M43.9535 30.2157C43.2341 31.3845 42.8725 33.7369 42.7817 34.7671C40.0784 35.6212 39.0755 36.022 38.912 36.1156C39.1518 32.969 42.3729 30.8713 43.9535 30.2157Z" fill="#FAFAFA"/>
<path fill-rule="evenodd" clip-rule="evenodd" d="M44.324 29.898L43.8984 30.0745C43.0935 30.4083 41.8768 31.1062 40.8289 32.1205C39.7814 33.1345 38.8886 34.4785 38.7648 36.1037L38.7432 36.3865L38.9837 36.2487C39.052 36.2096 39.3302 36.0903 39.943 35.8703C40.5498 35.6524 41.4744 35.3393 42.8249 34.9126L42.9198 34.8827L42.9287 34.7809C42.9736 34.2719 43.0858 33.433 43.2758 32.5774C43.4667 31.7177 43.7326 30.8587 44.0782 30.2973L44.324 29.898ZM43.6144 30.5351C43.3474 31.104 43.1415 31.8179 42.9879 32.5094C42.8067 33.3251 42.6952 34.1251 42.6441 34.6514C41.3423 35.0636 40.4429 35.3684 39.8458 35.5828C39.5002 35.7068 39.2525 35.8018 39.0859 35.8706C39.271 34.4619 40.0708 33.272 41.031 32.3425C41.8886 31.5124 42.8645 30.8998 43.6144 30.5351Z" fill="black"/>
<path fill-rule="evenodd" clip-rule="evenodd" d="M42.1126 31.8427C41.5967 32.3044 41.1165 33.1905 40.7563 34.0013C40.619 34.3104 40.4974 34.6125 40.3964 34.8823C40.395 34.8861 40.3935 34.8899 40.3921 34.8937L40.3113 34.2965L40.0187 34.3386L40.1823 35.5467L40.4688 35.5733C40.5155 35.4275 40.576 35.2512 40.6484 35.0553C40.7105 35.0289 40.7914 34.9902 40.8807 34.9459C41.0121 34.8806 41.172 34.7976 41.3394 34.7089C41.6745 34.5316 42.0426 34.3302 42.2795 34.1988L42.1394 33.9307C41.9037 34.0615 41.5374 34.2619 41.2045 34.4381C41.0609 34.5141 40.924 34.5853 40.8069 34.6443C40.8685 34.4909 40.9352 34.3315 41.0064 34.1698L42.2873 33.3513L42.1316 33.0925L41.2435 33.66C41.5619 33.0127 41.9325 32.4071 42.3063 32.0726L42.1126 31.8427Z" fill="black"/>
<path d="M45.8066 38.0261C44.9345 37.1495 43.7173 36.7806 43.2177 36.7056C42.4983 37.8969 40.9014 38.8315 40.1928 39.1499C41.5445 39.5545 44.4985 38.5693 45.8066 38.0261Z" fill="#FAFAFA"/>
<path fill-rule="evenodd" clip-rule="evenodd" d="M43.1434 36.5407L43.0923 36.6252C42.7475 37.1961 42.1864 37.7137 41.6157 38.1309C41.0466 38.547 40.4791 38.8552 40.1338 39.0104L39.7592 39.1787L40.1516 39.2961C40.5152 39.405 40.9744 39.4176 41.4691 39.373C41.9661 39.3282 42.5106 39.2244 43.0503 39.0915C44.1297 38.8258 45.2023 38.4412 45.8617 38.1673L46.0718 38.0801L45.9096 37.9171C45.0082 37.011 43.7579 36.6328 43.2389 36.555L43.1434 36.5407ZM45.5324 37.9737C44.8789 38.2332 43.9319 38.5614 42.9817 38.7953C42.4505 38.9261 41.9212 39.0266 41.4433 39.0697C41.1615 39.0951 40.9015 39.1002 40.6717 39.0811C40.9979 38.9062 41.392 38.6677 41.7866 38.3793C42.3441 37.9717 42.9128 37.4569 43.2893 36.8723C43.7793 36.9658 44.7601 37.2885 45.5324 37.9737Z" fill="black"/>
<path fill-rule="evenodd" clip-rule="evenodd" d="M44.3077 37.5929H42.1097L43.2474 38.3506L43.4078 38.0949L43.1112 37.8974H44.3077V37.5929Z" fill="black"/>
<path d="M32.8119 28.2648C32.656 28.1288 32.447 28.3214 32.3621 28.4348C32.2711 28.5305 32.3242 28.7323 32.3621 28.8211C32.7579 28.8706 32.9469 29.0066 32.9919 29.0684C32.9968 28.8572 32.9679 28.4008 32.8119 28.2648Z" fill="#808080"/>
<defs>
<linearGradient id="paint0_linear_5071_140285" x1="31.9291" y1="22.5863" x2="34.181" y2="22.8484" gradientUnits="userSpaceOnUse">
<stop offset="0.144681" stop-color="#1D1D1D"/>
<stop offset="1" stop-color="#1D1D1D" stop-opacity="0"/>
</linearGradient>
<linearGradient id="paint1_linear_5071_140285" x1="29.7945" y1="31.1667" x2="30.6182" y2="32.1893" gradientUnits="userSpaceOnUse">
<stop stop-color="#F6F6F8"/>
<stop offset="1" stop-color="#D9D9D9" stop-opacity="0"/>
</linearGradient>
<linearGradient id="paint2_linear_5071_140285" x1="30.3774" y1="27.085" x2="30.3774" y2="29.0205" gradientUnits="userSpaceOnUse">
<stop offset="0.300372" stop-color="#BCBDC1"/>
<stop offset="1" stop-color="#626365"/>
</linearGradient>
<linearGradient id="paint3_linear_5071_140285" x1="31.8182" y1="29.1999" x2="31.9638" y2="30.0395" gradientUnits="userSpaceOnUse">
<stop stop-color="#888888"/>
<stop offset="0.652778" stop-color="#888888" stop-opacity="0"/>
</linearGradient>
<linearGradient id="paint4_linear_5071_140285" x1="26.0295" y1="30.6194" x2="30.9344" y2="34.4993" gradientUnits="userSpaceOnUse">
<stop stop-color="#DDDDDF"/>
<stop offset="1" stop-color="#616161"/>
</linearGradient>
</defs>
</svg>
