<!-- by TradingView --><svg xmlns="http://www.w3.org/2000/svg" width="56" height="56" viewBox="0 0 56 56"><path fill="url(#agedynps1)" d="M0 0h56v56H0z"/><path d="M43.93 33.47a3.64 3.64 0 0 1-1.92.14c-.2-.05-.29-.13-.14-.28a3.99 3.99 0 0 1 1.6-.61c.08.16.85.61.46.75zm7.95-3c-.12-.2-.43-.28-.93-.25-.69.05-1.38.12-2.06.22-1.28.17-2.55.4-3.82.63-.29 0-.57.14-.87.14-.06 0-.22-.12-.48-.35-.44-.4-1.43-1.25-1.43-1.9.06-.1.17-.15.34-.17.33-.03.67.07.98.19.21.08.41.1.6.07.43-.09.86-.57.63-1.04a.41.41 0 0 0-.27-.23c-.5-.26-1.3-.42-1.85-.42-.54 0-.94.2-1.28.44-.55.4-.72 1.17-.44 1.77.3.9 1 1.59 1.65 2.25-.45.23-.94.4-1.42.57-.46.15-1.32.77-1.32 1.31-.06.2-.03.35.09.47.71.74 2.28.67 3.2.62.7 0 3.15-.26 2.74-1.51-.12-.38-.4-.67-.64-.99.18-.1.5-.19.96-.28 1.26-.26 2.57-.34 3.84-.52.46-.06.76-.04.91.05l.4.16c.32.15.6-.54.59-.77a1.34 1.34 0 0 0-.12-.47zm-24.22-2.22a3 3 0 0 1-.19.52c-.24-.66-.42-1.45-.52-2.38-.22-1.87-.28-3.82.02-5.69.12-.76.34-1.15.64-1.15 1.05 0 .66 4.68.62 5.5-.06 1.1-.28 2.15-.57 3.2zm10.6 4.56c-.13-.7-.24-1.4-.13-2.11.05-.4.65-1.14.25-1.42-.3-.2-.9-.64-1.24-.32-.39.35-.48.9-.7 1.36a6 6 0 0 1-1.51 1.97c-.34.2-.55.13-.64-.18-.28-.96.4-2.27.86-3.06.19-.35.2-.6.03-.75-.17-.16-.4-.32-.71-.47-.43-.22-.74 0-.94.66a9.03 9.03 0 0 1-2.51 4.06c-.41.4-.8.56-1.17.5-.63 0-1.35-1.33-1.58-1.79-.14-.29-.3-.63-.16-.94.75-1.35.95-2.92 1.2-4.42.28-2.15.26-4.51-.24-6.63-.24-.81-.8-1.27-1.6-1.27-2.3 0-2 4.46-2 6.07 0 1.81.16 3.63.59 5.45 0 .2.46.89.32 1.03-.06.06-.09.13-.14.2-.61.62-1.12 1.3-1.85 1.8-.57.4-1.1.6-1.63.64-.36 0-.5-.56-.5-.85-.1-.83-.12-1.6.14-2.4.22-.45-.68-1.19-1.1-1.13-.5.18-.56.66-.64 1.13-.13.8-.36 1.57-.87 2.21-.2.16-.45.5-.73.43a.64.64 0 0 1-.52-.4c-.32-.7-.16-1.5-.16-2.24a.99.99 0 0 0-.28-.6c-.32-.12-.7-.42-1.05-.34-.33.09-.22.36-.41.57-1.77 1.45-3.44 3.7-5.85 4-.18.02-.3 0-.34-.08A4.13 4.13 0 0 1 10 32V21.38c0-.78 0-1.7-.15-2.3-.14-.62-.6-1.03-1.14-1.03-.23 0-.71-.04-.71.23 0 .13.04.24.11.36.46.66.46 2.17.46 3.08v9.16c-.03 1.16-.03 4.06 1.67 4.12a5.2 5.2 0 0 0 2.51-.6c.98-.5 1.93-1.12 2.75-1.87.23-.22 1.41-.9 1.41-1.22.18 1.13.66 2.77 2.06 2.77.84 0 1.44-.66 1.92-1.27.03-.06.05-.08.07-.05.32.7.65 1.38 1.4 1.7.49.29 1.36-.05 1.82-.29a8.92 8.92 0 0 0 1.99-1.43l.98-.92c.03 0 .13.18.3.54.36.78 1.19 1.8 2.04 2.1.28.07.62.16.9.1a5 5 0 0 0 1.7-1.11c.4-.43.6-.64.64-.64 0 .68.63 1.17 1.23 1.27.76.18 1.43-.27 1.97-.75.36-.31.58-.58.82-.9-.26.27.47 1.62.62 1.84.26.37.59.48.98.33.56-.17.98-.87 1.03-1.44.03-.34-.16-1.23-.64-.77-.23.22-.39.36-.48.42z" fill="#fff"/><defs><linearGradient id="agedynps1" x1="10.42" y1="9.71" x2="68.15" y2="76.02" gradientUnits="userSpaceOnUse"><stop stop-color="#1A1E21"/><stop offset="1" stop-color="#06060A"/></linearGradient></defs></svg>