<!-- by TradingView --><svg width="56" height="56" viewBox="0 0 56 56" xmlns="http://www.w3.org/2000/svg"><path fill="#F0F3FA" d="M0 0h56v56H0z"/><path d="M13 24.75 19 40c-1.1-8.67 3.89-18.25 4.5-19.5.08-.16-2.72 1.83-10.5 4.25Z" fill="url(#azpu3v23u)"/><path d="M21.6 43.92c.53.13 1.09.1 1.63-.11l19.08-7.74a2.76 2.76 0 0 0 1.5-3.56l-7.56-19.53a2.73 2.73 0 0 0-.65-.98c-3.48 3.93-5.05 10.5-5.48 15.7-.1 1.38-.18 2.28-.58 2.3-.79.04-.95-.93-.93-2.4-.18-4.78 1.01-9.12 2.39-13.6-10.59 13.68-10.64 25.3-9.4 29.92Z" fill="url(#bzpu3v23u)"/><path d="m27 14-13.3 5.18a2.76 2.76 0 0 0-1.51 3.56l.25.64C18.06 21.76 23.86 17.1 27 14Z" fill="url(#czpu3v23u)"/><defs><linearGradient id="azpu3v23u" x1="33.52" y1="12" x2="22.66" y2="43.81" gradientUnits="userSpaceOnUse"><stop stop-color="#FFBE3C"/><stop offset="1" stop-color="#D63A2A"/></linearGradient><linearGradient id="bzpu3v23u" x1="33.52" y1="12" x2="22.66" y2="43.81" gradientUnits="userSpaceOnUse"><stop stop-color="#FFBE3C"/><stop offset="1" stop-color="#D63A2A"/></linearGradient><linearGradient id="czpu3v23u" x1="33.52" y1="12" x2="22.66" y2="43.81" gradientUnits="userSpaceOnUse"><stop stop-color="#FFBE3C"/><stop offset="1" stop-color="#D63A2A"/></linearGradient></defs></svg>