<!-- by TradingView --><svg xmlns="http://www.w3.org/2000/svg" width="56" height="56"><path fill="#002B5B" d="M0 0h56v56H0z"/><path d="M14 25h-2v-2h2v2zm0 9h-2v-8h2v8zm2.63-10.86C16 23.41 16 24.32 16 25v.91c0 .05-.04.09-.1.09H15v2h.9c.06 0 .1.05.1.1V34h2v-5.9c0-.05.05-.1.1-.1h.9v-2h-.9a.1.1 0 01-.1-.1v-.25c0-.25.1-.91.83-.94H19V23h-1.6c-.42.02-.6.06-.77.14zm15.87 8.48c.01.21.03.6.32.8.12.1.26.11.26.11l.16.02c.21 0 .39-.06.53-.2.17-.16.24-.44.23-.76V26h2v5.79c-.06.63-.12 1.23-.58 1.72-.37.4-.74.44-1.33.5H32.9c-.52-.03-.69-.06-.87-.16a1.2 1.2 0 01-.46-.5.1.1 0 00-.08-.05.1.1 0 00-.08.05c-.14.24-.3.41-.46.5-.19.1-.35.13-.86.15h-1.18c-.6-.05-.97-.09-1.34-.5-.46-.48-.52-1.08-.58-1.7V26h2v5.58c0 .33.06.6.23.78a.74.74 0 00.69.17s.12-.02.26-.1c.3-.2.3-.6.32-.81V26h2v5.62zM48 26v3.36a5.1 5.1 0 01-.53 2.25c-.07.15-.28.6-.44.61-.19.02-.44-.5-.5-.63a5.23 5.23 0 01-.53-2.24V26h-2v2.16c.02 1.58.08 2.8.74 4.14.37.75.84 1.14 1.15 1.41l.03.02.04.04a.1.1 0 01.04.08V36h2v-2.15c0-.03.03-.05.06-.07v-.01l.1-.08c.16-.12.36-.29.62-.61.46-.62.81-1.5 1.04-2.62v-.04a15.46 15.46 0 00.18-2.28V26h-2zm-8.12 6.44c.14 0 .92 0 1.08-.57.02-.08.04-.22.04-.45v-2.93c-.07-.77-.72-.85-1.03-.85-.5 0-.97.3-.97.9v2.83c-.01.25 0 .63.34.9.21.16.49.17.54.17zm1.04-5.32a.1.1 0 00.08-.1V26h2v8h-2v-.9c0-.05-.06-.1-.1-.1a.11.11 0 00-.13.05c-.13.28-.27.5-.42.64-.25.25-.73.28-1.16.31h-.9c-.43-.01-.63-.03-.87-.25-.36-.36-.39-.81-.42-1.32v-4.86c.02-.27.04-.75.37-1.15.16-.18.3-.26.35-.28.13-.07.3-.1.62-.14h.76l.07.01h.03a2 2 0 01.47.1c.42.15.94.6 1.12.96a.1.1 0 00.13.05zM22 28.24c0-.92.72-1.02 1-1.02.55 0 .9.37.96.58.05.15.05.26.04.35v1.05c0 .06-.02.11-.08.11h-1.8c-.06 0-.12-.05-.12-.1v-.97zm3.14 3.91c-.12.04-.23.08-.34.1a4.7 4.7 0 01-.96.13h-1.1c-.49-.02-.74-.28-.74-.7v-.81c0-.06.07-.1.13-.1h3.37v-3.55c.01-.5-.06-1.07-.74-1.19-.1-.02-.27-.02-.52-.02H21c-.5 0-.8.2-.92.62a2.2 2.2 0 00-.08.67v5.47c0 .3 0 .53.13.77.17.32.43.46.85.46a4.2 4.2 0 00.19 0h4.33v-2a1 1 0 00-.16.07l-.15.07-.05.01zM8.9 32.4c.1 0 .6 0 .84-.05.24-.03.5-.12.8-.22h.02c.06-.03.15-.05.23-.07L11 32v2H7.57a1.63 1.63 0 01-.75-.14 1.02 1.02 0 01-.39-.33c-.4-.5-.42-1.16-.43-1.8V23h2v8.42c0 .25.19.95.9.98z" fill="#fff"/></svg>