<!-- by TradingView --><svg width="56" height="56" viewBox="0 0 56 56" xmlns="http://www.w3.org/2000/svg"><path fill="#F0F3FA" d="M0 0h56v56H0z"/><path d="M40.97 20.09a20.94 20.94 0 0 1-1.31 6.28 17.52 17.52 0 0 1-3.27 5.07c-2.06 2.21-4.69 2.78-7.48 3.28-1.32.24-1.82 1.41-2.2 2.57 0 .03-.02.05-.06.05h-1.73l-.01-.01a.05.05 0 0 1-.01-.04 4.88 4.88 0 0 1 1.99-3.05c.42-.27 1-.5 1.73-.7 1.7-.48 3.46-.99 5-1.74 1.87-.91 3.2-2.79 4.22-4.66a16.1 16.1 0 0 0 1.87-5.25c.44-2.85.71-5.7.82-8.56.03-1.06.22-2.1.45-3.13.07-.27.1-.27.12 0a74 74 0 0 1-.13 9.89Z" fill="#D6762E"/><path d="M23.62 14.38c-.68 1.9-1.31 4.57-.35 6.4 1.27 2.4 2.58 4.83.47 7.33l-.03.02a.06.06 0 0 1-.05-.02l-.02-.03c-.3-1.7-.83-3.63-1.8-4.97-.27-.4-.62-.8-.76-1.27-.78-2.48.8-5.76 2.49-7.5a.03.03 0 0 1 .04 0v.02l.01.02Z" fill="#398743"/><path d="m14.65 15.7.43-1.1c.1-.28.15-.27.1.03-.5 4.23-.36 8.37.42 12.44.52 2.76 1.72 5.58 3.63 7.57.03.03.05.07.06.12 0 .04 0 .09-.02.13l-1.16 2.3a.1.1 0 0 1-.07.05.1.1 0 0 1-.08-.02c-.33-.3-.61-.6-.84-.89A18.44 18.44 0 0 1 13 24.73c-.03-3.07.52-6.08 1.65-9.03ZM39.5 15.18a41.34 41.34 0 0 1-1.2 7.61c-.77 3.03-2.1 6.21-4.87 7.6A14.9 14.9 0 0 1 28.3 32c-1.62.16-2.86.64-3.72 2.13-.57 1-1 2.05-1.28 3.16-.02.08-.07.12-.16.13l-3.52.22a.04.04 0 0 1-.03-.01.04.04 0 0 1 0-.04 28.82 28.82 0 0 1 2.33-5.5c.66-1.19 1.62-1.98 2.87-2.39l3.07-.98a9.03 9.03 0 0 0 2.08-.9 28.8 28.8 0 0 0 4.85-3.96 15.48 15.48 0 0 0 2.94-4.7c.58-1.32 1.14-2.65 1.7-4 .06-.16.09-.16.08.02Z" fill="#D6762E"/><path d="M18.29 27.75a14.3 14.3 0 0 0 2.51 4.2c.03.03.03.07.01.1a16.61 16.61 0 0 1-1.06 1.68 20.46 20.46 0 0 1-3.73-8.9c-.28-1.68-.33-3.3-.15-4.84.03-.26.07-.26.12 0 .54 2.7 1.31 5.3 2.3 7.76Z" fill="#D6762E"/><path fill-rule="evenodd" d="M41.98 42.98a.05.05 0 0 0 .02-.03v-3.9c0-.01 0-.03-.02-.03a.06.06 0 0 0-.04-.02H14.06c-.02 0-.03 0-.04.02a.05.05 0 0 0-.02.03v3.9c0 .01 0 .03.02.03l.04.02h27.88c.02 0 .03 0 .04-.02Zm-2.54-1.96c.35.13.77.28.55.68a.26.26 0 0 1-.19.14c-.3.06-.61.03-.9-.08-.09-.03-.13 0-.15.08 0 .05 0 .1.02.14.01.04.03.08.07.1.03.03.07.05.11.06.69.13 1.72.04 1.54-.87a.55.55 0 0 0-.11-.23.6.6 0 0 0-.2-.16l-.72-.37a.29.29 0 0 1-.13-.1.26.26 0 0 1 .04-.31.3.3 0 0 1 .14-.1c.25-.06.5-.06.74.03a.1.1 0 0 0 .11-.03.1.1 0 0 0 .02-.03l.05-.18c.02-.08 0-.13-.1-.14a2.04 2.04 0 0 0-.96 0c-.64.17-.82.93-.2 1.26.07.04.17.08.27.11Zm-23.42.84 1.01.02.03.01a.08.08 0 0 1 .05.04v.24c0 .02-.01.04-.03.05a.09.09 0 0 1-.06.03h-1.5c-.02 0-.04 0-.06-.02a.07.07 0 0 1-.02-.06v-2.46l.02-.03a.08.08 0 0 1 .06-.02h.34l.06.03.02.05v2.04c0 .02 0 .04.02.05l.06.03Zm12.94-1.1h-.83a.1.1 0 0 1-.06-.03l-.02-.03v-.03l.01-.52c0-.02.01-.04.03-.05a.1.1 0 0 1 .06-.03h.93a.1.1 0 0 0 .03-.02.09.09 0 0 0 .05-.04v-.26a.08.08 0 0 0-.03-.06.1.1 0 0 0-.07-.03l-1.48.02a.1.1 0 0 0-.07.02l-.02.03V42.18c0 .02.01.04.03.05a.1.1 0 0 0 .06.03h.34a.1.1 0 0 0 .06-.03.08.08 0 0 0 .03-.06v-.94c0-.02 0-.04.02-.05a.1.1 0 0 1 .07-.03h.86a.1.1 0 0 0 .07-.02.08.08 0 0 0 .02-.06v-.23c0-.02 0-.04-.03-.06a.1.1 0 0 0-.06-.02Zm4.88 1.1h.96a.1.1 0 0 1 .07.02l.02.06.01.24v.03l-.02.03-.03.02a.1.1 0 0 1-.04 0h-1.5a.1.1 0 0 1-.06-.03.08.08 0 0 1-.02-.06l-.01-2.42a.08.08 0 0 1 .03-.06.1.1 0 0 1 .06-.03l.35.01a.1.1 0 0 1 .07.02l.02.06v2.03c0 .02 0 .05.03.06a.1.1 0 0 0 .06.02ZM21.1 39.83c0-.05.03-.1.07-.14.04-.04.1-.06.15-.06h.73a1.64 1.64 0 0 1 1.04.38c.14.13.25.27.32.43.08.16.11.33.11.5V41c0 .35-.15.68-.43.93-.27.24-.65.38-1.04.38h-.73a.22.22 0 0 1-.15-.05.2.2 0 0 1-.06-.14v-2.28Zm.53.2c0-.02.01-.04.03-.05a.09.09 0 0 1 .06-.03h.32c.24 0 .47.1.64.27.17.17.26.39.26.62V41a.85.85 0 0 1-.27.62.91.91 0 0 1-.65.25h-.32a.1.1 0 0 1-.06-.02l-.02-.03v-.03l.01-1.75Z" fill="#D6762E"/></svg>