<!-- by TradingView --><svg width="56" height="56" viewBox="0 0 56 56" xmlns="http://www.w3.org/2000/svg"><path fill="#F0F3FA" d="M0 0h56v56H0z"/><path d="M30.11 20h2.66L21.54 36h-2.63l11.2-16ZM6 33h6v-2H8.4v-8H6v10Zm7 0h7v-2h-4.6v-2H20v-2h-4.6v-2H20v-2h-7v10Zm11.32-5.2 1.3-1.87L23.86 23H21.2l3.12 4.8Zm3.41 5.2h2.52l-3-4.64-1.32 1.87 1.8 2.77ZM41.2 24.65a5.24 5.24 0 0 0 0 6.7 5.2 5.2 0 0 0 7.63-.03 5.26 5.26 0 0 0-.09-6.74 5.15 5.15 0 0 0-7.54.07Zm5.63 1.36a3.16 3.16 0 0 1-.1 4.1 2.56 2.56 0 0 1-1.85.7 2.51 2.51 0 0 1-1.78-.87 3.16 3.16 0 0 1 .12-3.99c.38-.38.88-.63 1.4-.7a2.47 2.47 0 0 1 2.21.76ZM32 33h7v-2h-4.6v-2H39v-2h-4.6v-2H39v-2h-7v10Z" fill="#194F98"/></svg>