<!-- by TradingView --><svg width="56" height="56" viewBox="0 0 56 56" xmlns="http://www.w3.org/2000/svg"><path d="M31.99 22.74C29.98 19.1 26 17.04 21.86 17a11.75 11.75 0 0 0-10.24 5.78 11.78 11.78 0 0 0-1.02 9.62 11.3 11.3 0 0 0 3.23 4.72 11.83 11.83 0 0 0 5.19 2.62c2.4.5 4.91.27 7.17-.68a11.61 11.61 0 0 0 5.4-4.62c.11-.17.09-.27.2-.44-2 3.32-6 4.91-9.81 5-3.94.09-7.75-1.4-9.95-4.7-2.16-3.22-2.54-7.54-.59-10.94 2.03-3.53 5.91-5.3 9.96-5.36 4.06-.06 8 1.41 10.14 4.88a.25.25 0 0 0 .46-.08.1.1 0 0 0-.01-.06Z" fill="#54BFA2"/><path d="M36 22.8a14.1 14.1 0 0 0-4.84-6.11 14.4 14.4 0 0 0-7.4-2.66 15.29 15.29 0 0 0-12.44 5.08 13.82 13.82 0 0 0-2.3 14.17 13.94 13.94 0 0 0 4.6 5.9 14.23 14.23 0 0 0 7.02 2.74 15.16 15.16 0 0 0 14.17-6.59.25.25 0 0 0-.1-.35.25.25 0 0 0-.13-.03c-.1 0-.2.03-.23.09a13.6 13.6 0 0 1-19.94 4.03 13.75 13.75 0 0 1-3.93-17.82 13.6 13.6 0 0 1 12.34-7.07c2.7.15 5.3 1.05 7.5 2.6A14.09 14.09 0 0 1 35.29 23a.41.41 0 0 0 .42.12.41.41 0 0 0 .29-.31Z" fill="#DDA020"/><path d="M31 22.99a12.59 12.59 0 0 0-9.8-5.96A12.29 12.29 0 0 0 9.9 35.83a12.79 12.79 0 0 0 9.36 6.1A12.43 12.43 0 0 0 32 34.36c0-.02 0-.04-.02-.07a.29.29 0 0 0-.5.05 12.41 12.41 0 0 1-9.22 7.07 12.38 12.38 0 0 1-11.07-3.87c-2.88-3.19-3.57-8.05-2.12-12.03a12.39 12.39 0 0 1 8.47-7.68c5.03-1.29 10.47 1.08 13.41 5.17l.05-.01Z" fill="#0097A4"/><path d="M16 22h1v10h6v1h-7V22Z" fill="#4D5059"/><path d="m31 24-4.18 10.56c-.41 1.24-1.36 2.48-2.79 2.44-.74 0-1.5-.27-2.03-.86l.52-.95c.4.46.96.82 1.53.81.9.03 1.47-.91 1.74-1.67l.36-.92L22.41 24h1.18l3.15 8.01L29.89 24H31ZM39.98 29h-7.73c.08 1.87 1.84 3.06 3.64 3a3.85 3.85 0 0 0 2.82-1.22l.7.77A4.64 4.64 0 0 1 35.86 33c-2.57.05-4.9-1.83-4.85-4.5a4.42 4.42 0 0 1 4.52-4.5A4.5 4.5 0 0 1 40 28.63l-.02.37Zm-7.73-1h6.55c-.1-1.72-1.6-3-3.27-3a3.26 3.26 0 0 0-3.28 3ZM41 21h1v12h-1V21ZM45 21h1v12h-1V21Z" fill="#4D5059"/></svg>