<!-- by TradingView --><svg width="56" height="56" xmlns="http://www.w3.org/2000/svg"><path fill="url(#paint0_linear)" d="M0 0h56v56H0z"/><path d="M9 16h6l.002 14.425c0 2.37 1.062 3.78 1.901 4.385-.889.807-4.139 1.513-6.164-.201-1.194-1.01-1.737-2.672-1.737-4.235L9 16zm36.002 12v-2H47v-5h-1.998c-.502-3.5-3.544-6-7.002-6-3.983 0-7.998 3-7.998 7.531V35.5c1.134.163 2.94-.261 4.09-1.235 1.193-1.01 1.916-2.702 1.916-4.265L36 29h2.002v-5l-2-.01-.007-.668.007-.322c0-1.032.486-2 1.498-2 1.011 0 1.5.968 1.5 2v5c.002 4.632 4.017 7.5 8 7.5v-5.524c-1.011 0-1.998-.944-1.998-1.976zm-22-7v7.898c0 .46.028 1.102-.5 1.102-.472 0-.5-.643-.5-1.102V21h-6v9.324c0 1.714.57 3.881 3.161 4.587 2.595.707 3.48-.756 3.48-.756-.136.964-.406 1.67-1.839 1.82-1.084.115-2.613-.172-3.304-.475v5c1.762.53 4.299.64 5.973.309 3.31-.655 5.529-3.478 5.529-7.234V21h-6z" fill="#fff"/><defs><linearGradient id="paint0_linear" x1="0" y1="0" x2="56" y2="56" gradientUnits="userSpaceOnUse"><stop stop-color="#FF08F3"/><stop offset="1" stop-color="#FF09C8"/></linearGradient></defs></svg>