<!-- by TradingView --><svg width="56" height="56" viewBox="0 0 56 56" xmlns="http://www.w3.org/2000/svg"><path fill="#F0F3FA" d="M0 0h56v56H0z"/><path d="M5 24c-.57 0-1 .5-1 .94v6.28c0 .43.36.78.8.78h9.24a1 1 0 0 0 .96-1c0-.5-.33-1-.96-1H6.56a.56.56 0 0 1-.56-.55v-4.51A1 1 0 0 0 5 24ZM25.7 24.2c.35.29.4 1.12.1 1.48-1.53 1.83-3.75 3.26-6.23 3.32-2.56.06-4.77-1.5-6.36-3.32-.31-.35-.27-1.17.08-1.48.36-.3 1.15-.26 1.45.09 1.24 1.42 2.77 2.76 4.79 2.71 1.97-.04 3.56-1.26 4.76-2.7.3-.35 1.04-.4 1.4-.1Z" fill="#158F7B"/><circle cx="19.5" cy="31" r="1" fill="#69CC14"/><circle cx="46" cy="30" r="1" fill="#69CC14"/><path d="M27 26.25A2.2 2.2 0 0 1 29.15 24h7.4c.48 0 1.25.15 1.8.76.62.68.76 1.68.35 2.9a.8.8 0 0 1-1.02.53c-.42-.15-.9-.63-.76-1.07.2-.63 0-1.12-.77-1.12h-6.62c-.3 0-.53.25-.53.56V27h2.63c1.06 0 2.45.06 3.77.5a6.44 6.44 0 0 1 3.5 3.12c.22.4.08.92-.3 1.15-.4.23-1.2.08-1.41-.32-1.17-2.18-3.34-2.45-5.56-2.45H29v2.16c0 .46-.58.84-1.02.84-.45 0-.98-.38-.98-.84v-4.91ZM46.27 26.1a.32.32 0 0 0-.5 0l-3.95 5.53c-.27.38-.97.48-1.39.24-.41-.24-.56-.88-.3-1.25l4.13-5.77a2.23 2.23 0 0 1 3.51 0l4.11 5.77c.27.37.05 1.01-.37 1.25-.41.24-1.1.13-1.37-.24l-3.87-5.53Z" fill="#158F7B"/></svg>