<!-- by TradingView --><svg width="56" height="56" viewBox="0 0 56 56" xmlns="http://www.w3.org/2000/svg"><path fill="#F0F3FA" d="M0 0h56v56H0z"/><path d="M32 39.84c-1.69-.45-3.44-.06-6.17-1.8a11.74 11.74 0 0 1-4.94-13.84c.39-1.23.91-1.88 1.3-2.85-.72-.26-1.17-.84-1.95-1.16-1.3 1.42-2.27 4.85-2.34 7.17-.13 2.78.65 5.7 1.89 7.7 2.27 3.75 5.97 6.79 12.21 7.05v-2.27Z" fill="#0AAEFF"/><path d="M32 43.77a16.1 16.1 0 0 1-10.59-4.07c-2.86-2.6-4.1-4.64-5.2-9.54l-2.2.32c-.07 1.72 1.3 4.96 2 6.23 3.06 5.34 8.9 9.41 16 9.29v-2.23ZM32 10c-4.29.2-9.16 1.65-12.15 4.52-2.8 2.73-5.4 6.3-5.85 10.49.52.25 1.63.44 2.34.38A15.86 15.86 0 0 1 32 12.35V10ZM26.22 32.89c-.4-.93-1.26-1.59-1.52-3.7a7.48 7.48 0 0 1 7.3-8.53v-2.24a9.55 9.55 0 0 0-8.57 5.28c-1.72 3.37-1.12 8.2 1.13 10.51.54-.2 1.33-.92 1.66-1.32Z" fill="#0AAEFF"/><path d="M32 14.05c-4.04.2-5.43.92-8.48 2.77.27.6.93 1.25 1.33 1.91 1-.46 1.85-1.12 3.11-1.58 1.26-.46 2.65-.73 4.04-.66v-2.44Z" fill="#0AAEFF"/><path d="M30.6 23.8c-.9-.5-1.6-.06-1.6.95v7.64c0 1.01.7 1.46 1.6.95l6.73-3.82c.9-.5.9-1.33 0-1.84L30.6 23.8Z" fill="#FF3030"/></svg>