<!-- by TradingView --><svg width="56" height="56" viewBox="0 0 56 56" xmlns="http://www.w3.org/2000/svg"><path fill="#F0F3FA" d="M0 0h56v56H0z"/><path d="M28 44a16 16 0 0 0 14.48-22.82.93.93 0 0 1-.02.05l-2.99 7.33c-.32.74-1.5.7-1.5.7-1.33.1-1.05-.83-1.05-.83.1-.83 2.12-6.61 2.12-6.61.2-.6.7-.77.7-.77.77-.32 2.22-.53 2.22-.53l.18-.02c-.17-.32-.35-.63-.54-.94-.45.12-1.07.26-1.52.31 0 0-.6.2-.28-.59l.46-1.56a16 16 0 0 0-26.24 18.07c3.72-6.11 9.02-18.55 9.02-18.55.13-.35.45-.58.45-.58 1.1-.74 2.2-1 2.2-1 .84-.25.44.72.44.72-3.83 9.86-9.6 19.69-9.6 19.69C23.1 32.77 36.8 31 36.8 31c1.58-.29 1.98.9 1.98.9.59 1.13-.34 1.14-.34 1.14-13.1 2.43-19.37 4.87-21.93 6.09C19.4 42.13 23.49 44 28 44Zm10.56-26.45c1.2-.27.87.6.87.6l-.25.98a1.52 1.52 0 0 1-1.05 1.05l-9.24 3.28c3.61 1.33 7.25 2.93 7.23 4.57-.01 1.47-1.8 1.67-1.8 1.67l-13.07 3.06c-1.4.36-.9-.55-.9-.55l.62-1.27c.26-.65.72-.71.72-.71l9.27-2.26-6.1-2.78c-2.29-1.31 0-2.6 0-2.6 1.97-1.24 13.7-5.04 13.7-5.04Z" fill="#AB2328"/></svg>