<!-- by TradingView --><svg width="56" height="56" viewBox="0 0 56 56" xmlns="http://www.w3.org/2000/svg"><path fill="#EBE3DC" d="M0 0h56v56H0z"/><path d="M25.74 11.24c-1.01 1.74-1.25 3.67-.58 4.7.47.72.52.73 1.05.26a7.07 7.07 0 0 0 1.72-3.8c0-.99-.56-2.23-1.06-2.4-.19-.06-.7.5-1.13 1.24ZM14 12.94a4.7 4.7 0 0 0 1.84 3.84c1 .76 3.63 1.77 3.9 1.49.08-.07.05-.58-.05-1.12-.2-1.1-.85-1.8-2.79-2.99a15.9 15.9 0 0 1-2.1-1.55l-.8-.75v1.09Zm5.8.86c.01 1.58.62 2.86 1.69 3.55.6.38 1.18.63 1.3.55.52-.3.75-1.52.48-2.5-.26-.96-.54-1.18-2.39-1.93-1.07-.43-1.07-.43-1.07.33Zm8.64.88c-2.37 2.14-2.7 4.36-1 6.76l.6.85.56-.7a15.66 15.66 0 0 0 2.33-4.94c.17-1.07-.32-2.96-.82-3.12-.16-.04-.9.47-1.67 1.15Zm3.81 2.81a4.77 4.77 0 0 0-1.12 1.46c0 .4 1.72.43 2.7.06.4-.15 1.2-.71 1.8-1.24 1.09-.96 1.1-.97.4-1.16-1.74-.5-2.62-.29-3.78.88Zm-8.22.4a2.9 2.9 0 0 0 .18 3.29l.64.8.52-.65c.3-.37.53-1.13.53-1.73 0-1.04-.65-2.37-1.16-2.37-.14 0-.46.3-.7.65Zm-9.38.7c-.27.11-.21.35.22.9.32.4.58.9.58 1.1 0 .66 1.43 1.69 2.67 1.91.69.13 1.3.18 1.36.12.25-.25-.89-2.7-1.54-3.32-.67-.64-2.55-1.05-3.29-.72Zm4.58.26c0 .64 1 1.9 1.84 2.29 1.5.71 1.93.63 1.93-.4 0-1.3-.9-2.05-2.47-2.05-.72 0-1.3.08-1.3.16Zm10.38 4.46-1.3 2.57-1.36-1.24c-1.32-1.2-3.94-2.44-5.16-2.44-.49 0-.2.43 1.42 2.15 1.13 1.2 2.4 2.9 2.87 3.87 1.11 2.3 1.12 5.12.01 9.38-.85 3.3-.92 4.2-.44 6.1l.32 1.3h7.42c-3.34-6.94-3.65-11.31-1.18-15.82.06-.1-.29-.34-.76-.53-1.83-.77-1.88-1.02-.95-4.65.46-1.8.74-3.26.62-3.26-.11 0-.8 1.16-1.51 2.57Zm4.93-1.57c-.6.22-1.31.57-1.57.8a7.11 7.11 0 0 0-1.55 3.25c0 .47.06.48.65.1.36-.23 1.6-.57 2.78-.75 2.45-.37 2.98-.67 4.5-2.49l1.1-1.33-2.41.02c-1.33 0-2.9.19-3.5.4Zm-15.97 1.82c-.72.2-.63.53.39 1.4.96.81 2.32.99 2.84.36.7-.85-1.75-2.18-3.23-1.76Zm-4 1.68c.97 2.56 2.12 3.68 3.77 3.68 1.14 0 3.79-.79 3.79-1.13 0-.51-1.89-1.32-7.34-3.15-.45-.15-.48-.07-.22.6Zm20.52 1.94c-.88.26-1.93 1.08-1.93 1.5 0 .13.66.24 1.47.24 1.47 0 2.78-.48 3.42-1.25.28-.35.18-.46-.57-.6a3.62 3.62 0 0 0-2.4.1Zm-12.53 2.1c-1.73.88-2.73 1.95-2.9 3.13l-.3 1.85c-.08.52 0 .8.24.8.73 0 3.6-2.04 3.94-2.8.47-1.05.75-3.22.44-3.41-.14-.1-.78.1-1.42.43Zm13.95.62c-.5.37-.47.44.48 1.17 1.15.88 2.4 1 3.36.32l.65-.46-.84-.7c-.96-.82-2.77-.98-3.65-.33Zm-11.87 2.23c-.98 1.09-2.21 4.2-1.82 4.6.3.3 1.93-.57 2.65-1.44.6-.7.72-1.17.72-2.59 0-.95-.11-1.73-.25-1.73-.15 0-.73.52-1.3 1.16Zm7.83-.5-.84.38.83.98c.96 1.16 2.37 1.82 3.32 1.57.38-.1 1.2-.47 1.83-.83l1.14-.66-1.27-.8c-1.47-.94-3.7-1.23-5.01-.64Zm-.63 4.24c.27 1.12.78 1.42 2.18 1.29 1.19-.11 1.2-.13.68-.7a5.5 5.5 0 0 0-2.72-1.4c-.22 0-.27.29-.14.8Z" fill="#9E380E"/></svg>