<!-- by TradingView --><svg width="56" height="56" viewBox="0 0 56 56" xmlns="http://www.w3.org/2000/svg"><path fill="#F0F3FA" d="M0 0h56v56H0z"/><path d="M10.57 24.54c2.3-.8 9-2.4 17.43-2.45 8.44.04 15.14 1.65 17.43 2.45 4.1-.74 4.57 1.1 4.29 2.12.7.28 2.05 1.24 1.91 2.77a3.96 3.96 0 0 1-1.91 2.88c.54 2.26-2.64 2.28-4.3 2a66.15 66.15 0 0 1-34.86 0c-1.64.28-4.82.26-4.28-2a3.96 3.96 0 0 1-1.92-2.88c-.13-1.53 1.23-2.49 1.92-2.77-.28-1.02.18-2.86 4.29-2.12Z" fill="url(#ahesqmn2x)"/><path d="M28.53 21.75c8.12.1 14.57 1.63 16.93 2.43 2.03-.35 3.28-.1 4 .5.61.52.74 1.22.66 1.78.36.2.78.5 1.14.9.45.51.8 1.22.73 2.1a4.27 4.27 0 0 1-1.88 3c.08.55-.04 1-.32 1.36-.31.4-.8.63-1.3.77-.97.27-2.19.2-3.04.08a66.6 66.6 0 0 1-34.9 0c-.85.13-2.07.19-3.04-.08-.5-.14-.99-.37-1.3-.77a1.7 1.7 0 0 1-.32-1.35 4.27 4.27 0 0 1-1.88-3.01c-.08-.88.28-1.59.73-2.1.36-.4.78-.7 1.14-.9-.08-.56.05-1.26.67-1.78.7-.6 1.96-.85 3.99-.5 2.41-.82 9.09-2.39 17.46-2.43h.53Zm0 14.56c3.24 0 10.36-.45 16.8-2.32l.08-.03.08.02c.8.13 1.95.18 2.81-.05.43-.12.74-.3.92-.52.18-.22.27-.54.15-1.03l-.06-.24.23-.13a3.62 3.62 0 0 0 1.74-2.61 2.1 2.1 0 0 0-.56-1.6c-.37-.42-.84-.7-1.14-.83l-.29-.12.08-.28A1.3 1.3 0 0 0 49 25.2c-.47-.4-1.48-.69-3.5-.33l-.09.02-.1-.03c-2.25-.78-8.9-2.38-17.3-2.43-8.4.05-15.06 1.65-17.3 2.43l-.1.03-.1-.02c-2.01-.36-3.02-.06-3.49.33-.45.38-.5.94-.38 1.37l.08.28-.29.12c-.3.13-.77.4-1.14.83a2.1 2.1 0 0 0-.56 1.6A3.62 3.62 0 0 0 6.46 32l.23.14-.06.24c-.12.49-.03.8.15 1.03.18.23.5.4.92.52.86.23 2 .18 2.81.05l.08-.02.08.03A65.8 65.8 0 0 0 28 36.3l.55-.01v.01Zm-.53.34Z" fill="#C59B5F"/><path d="M13.95 27.97a.18.18 0 0 1 .07-.03l1.22 2.78c.02.03.04.06.08.08.03.03.07.05.12.06a2.83 2.83 0 0 0 .28.04v.1a23.45 23.45 0 0 0-1.47 0 .14.14 0 0 1 0-.1c.3-.03.45-.08.45-.15a.3.3 0 0 0-.01-.07l-.32-.76a15.2 15.2 0 0 0-1.01 0l-.34.8v.06l.03.03.04.03.05.02a2.38 2.38 0 0 1 .12.02l.06.01h.07l.06.01v.1a37.17 37.17 0 0 0-1.19-.04v-.06c.32-.03.5-.1.54-.2l.95-2.2-.04-.12c.08-.06.14-.11.17-.17a.66.66 0 0 0 .07-.24Zm.02 1.8.32-.01-.42-1-.43 1h.53Z" fill="#fff"/><path d="m15.76 28 1.05.02.87 2.13.9-2.13h.26c.19 0 .45 0 .78-.02a.2.2 0 0 1 .01.05v.05a2.7 2.7 0 0 0-.4.06.27.27 0 0 0-.09.06.1.1 0 0 0-.04.07 24.76 24.76 0 0 0 .01 2.42c0 .03.02.06.05.1l.14.05a3.08 3.08 0 0 0 .33.04v.1a24.04 24.04 0 0 0-1.55 0l-.01-.04v-.06a3.56 3.56 0 0 0 .33-.04.37.37 0 0 0 .14-.06.12.12 0 0 0 .05-.1 32.7 32.7 0 0 0 0-2.2h-.02l-1.02 2.44h-.02l-1.08-2.5h-.03a32.08 32.08 0 0 0 0 2.24c.01.12.17.2.5.22l.01.06-.01.04a18.64 18.64 0 0 0-1.23 0 .08.08 0 0 1-.01-.04l.01-.06c.33-.02.5-.1.5-.22a29.74 29.74 0 0 0 0-2.34.29.29 0 0 0-.09-.17.23.23 0 0 0-.08-.04 2.36 2.36 0 0 0-.26-.05V28Z" fill="#fff"/><path d="M21.28 27.97a.18.18 0 0 1 .08-.03l1.21 2.78c.02.03.04.06.08.08.03.03.07.05.12.06a2.8 2.8 0 0 0 .28.04v.1a23.44 23.44 0 0 0-1.47 0 .14.14 0 0 1 0-.1c.3-.03.45-.08.45-.15a.3.3 0 0 0 0-.07l-.33-.76a15.2 15.2 0 0 0-1.01 0l-.34.8v.06l.03.03.04.03.05.02a2.26 2.26 0 0 1 .12.02l.06.01h.07l.06.01.01.06V31a37.21 37.21 0 0 0-1.2-.04l.01-.06c.31-.03.49-.1.53-.2l.96-2.2-.05-.12c.08-.06.14-.11.17-.17a.66.66 0 0 0 .07-.24Zm.02 1.8.33-.01-.43-1-.43 1h.53ZM30.3 27.95a.17.17 0 0 1 .06-.02l1.2 2.79c0 .03.03.06.06.08a.4.4 0 0 0 .13.06 2.6 2.6 0 0 0 .26.04l.01.06V31a22.11 22.11 0 0 0-1.44 0 .15.15 0 0 1 0-.1c.3-.03.44-.08.44-.15v-.07l-.32-.76a14.38 14.38 0 0 0-.98 0l-.34.8v.06l.04.03.03.03c.01 0 .03 0 .05.02a1.8 1.8 0 0 1 .12.02l.06.01h.06l.06.01.01.06V31a35.38 35.38 0 0 0-1.17-.05l.01-.05c.3-.03.48-.1.52-.2l.93-2.22-.05-.12c.09-.05.14-.1.18-.17a.68.68 0 0 0 .07-.24Zm.01 1.8h.32l-.42-1-.42 1h.52Z" fill="#fff"/><path d="m32.02 27.99.9.01a125.3 125.3 0 0 0 1.76 2.05h.02a29.76 29.76 0 0 0-.02-1.74c0-.13-.16-.2-.48-.23V28a17.83 17.83 0 0 0 1.2 0l.01.04v.05c-.32.03-.48.1-.49.23a30.87 30.87 0 0 0 0 2.68h-.04l-2.16-2.49h-.02a43.28 43.28 0 0 0 0 2.18c.01.12.17.2.49.22v.1a17.51 17.51 0 0 0-1.2 0 .09.09 0 0 1-.01-.04v-.06c.33-.03.49-.1.49-.22a30.72 30.72 0 0 0 0-2.43.8.8 0 0 0-.45-.17.1.1 0 0 1-.02-.05c0-.02 0-.03.02-.04ZM37.21 27.92a4.44 4.44 0 0 1 .97.13l.26.04a1.57 1.57 0 0 0 .09.89c-.01.02-.04.04-.08.04l-.1-.19a2 2 0 0 0-.16-.27 1.18 1.18 0 0 0-.56-.43 1.19 1.19 0 0 0-.78 0c-.1.04-.2.1-.28.17a1 1 0 0 0-.2.25 1.54 1.54 0 0 0-.2.62l-.03.33c0 .17.03.34.07.5a1.1 1.1 0 0 0 .62.71c.16.07.35.1.57.1.42 0 .74-.11.96-.36.02 0 .04 0 .05.02.02 0 .03.02.03.04-.07.1-.16.18-.26.25a1.56 1.56 0 0 1-.65.28 1.67 1.67 0 0 1-.66 0 1.8 1.8 0 0 1-.72-.3 1.38 1.38 0 0 1-.5-.7 1.7 1.7 0 0 1-.08-.54c0-.2.02-.39.08-.54.05-.16.12-.3.2-.42.1-.11.2-.21.3-.29a1.76 1.76 0 0 1 .73-.3l.33-.03ZM38.55 27.99a24.05 24.05 0 0 0 1.51 0l.01.04v.05a2.13 2.13 0 0 0-.32.05.33.33 0 0 0-.14.06.12.12 0 0 0-.05.09 31.97 31.97 0 0 0 0 2.43c0 .03.02.06.05.09l.13.06a2.96 2.96 0 0 0 .32.04v.1a22.71 22.71 0 0 0-1.51 0l-.01-.04v-.06a11.92 11.92 0 0 0 .33-.04.96.96 0 0 0 .09-.04.17.17 0 0 0 .07-.05 31.56 31.56 0 0 0 .03-2.5.12.12 0 0 0-.06-.08.34.34 0 0 0-.13-.06 1.63 1.63 0 0 0-.32-.05V28ZM40.13 27.99l.9.01a125.6 125.6 0 0 0 1.77 2.05h.01a29.76 29.76 0 0 0-.01-1.74c0-.13-.16-.2-.48-.23l-.01-.05v-.04a17.83 17.83 0 0 0 1.2 0c.02.01.02.03.02.04l-.01.05c-.32.03-.48.1-.48.23a31.05 31.05 0 0 0 0 2.68H43l-2.16-2.49h-.02a43.78 43.78 0 0 0 0 2.18c0 .12.17.2.48.22l.02.06c0 .01 0 .03-.02.04a17.52 17.52 0 0 0-1.2 0 .09.09 0 0 1 0-.04v-.06c.33-.03.49-.1.49-.22a30.9 30.9 0 0 0 0-2.43.8.8 0 0 0-.46-.17.1.1 0 0 1-.01-.05l.01-.04ZM43.57 27.99a24.05 24.05 0 0 0 1.5 0l.02.04-.01.05a2.13 2.13 0 0 0-.32.05.33.33 0 0 0-.14.06.12.12 0 0 0-.04.09 31.8 31.8 0 0 0 0 2.43c0 .03 0 .06.04.09l.14.06a2.98 2.98 0 0 0 .31.04l.01.06V31a22.71 22.71 0 0 0-1.52 0v-.1a11.92 11.92 0 0 0 .32-.04.96.96 0 0 0 .1-.04.17.17 0 0 0 .06-.05 31.56 31.56 0 0 0 .03-2.5.12.12 0 0 0-.05-.08.34.34 0 0 0-.14-.06 1.63 1.63 0 0 0-.31-.05l-.01-.05v-.04ZM45.49 28.9l-.12-.09a1.24 1.24 0 0 0 .26-.29.73.73 0 0 0 .03-.1v-.01c-.1 0-.17-.02-.22-.06-.04-.04-.07-.1-.07-.18 0-.06.03-.12.08-.17a.24.24 0 0 1 .18-.08c.08 0 .15.02.2.06.06.05.09.12.09.21 0 .13-.05.26-.13.4a.95.95 0 0 1-.3.31ZM48.3 28.85a1.09 1.09 0 0 0-.3-.58.74.74 0 0 0-.52-.2c-.2 0-.36.04-.47.13a.44.44 0 0 0-.17.36c0 .08.01.15.03.2.01.06.05.11.1.16.04.05.12.1.2.14.1.04.23.07.38.1a6.07 6.07 0 0 1 .42.13 1.18 1.18 0 0 1 .35.21c.06.05.1.1.14.16l.08.21c.02.08.03.17.03.26a.82.82 0 0 1-.27.61c-.08.07-.17.14-.27.19a1.41 1.41 0 0 1-.64.14 2.6 2.6 0 0 1-1.03-.23l.02-.28c0-.22-.02-.44-.06-.66a.1.1 0 0 1 .04-.01.1.1 0 0 1 .06.01c.03.18.08.33.15.47.07.13.15.24.24.32.1.07.19.13.28.17.1.04.2.06.3.06.23 0 .4-.06.53-.17a.57.57 0 0 0 .18-.44c0-.18-.05-.32-.14-.41-.09-.1-.26-.17-.51-.23a1.85 1.85 0 0 1-.75-.33.72.72 0 0 1-.27-.58c0-.13.02-.24.07-.34.04-.1.1-.18.17-.24a1.17 1.17 0 0 1 .53-.23c.09-.02.18-.03.28-.03.28 0 .58.06.9.19a2.33 2.33 0 0 0 .03.74.15.15 0 0 1-.05 0h-.05ZM7.12 27.4l1.42.01 1.16 2.57h.01l1.2-2.57h.35c.25 0 .6 0 1.05-.02l.01.06-.01.06a4.22 4.22 0 0 0-.52.08.36.36 0 0 0-.12.06c-.03.03-.05.06-.05.1a26.72 26.72 0 0 0 0 2.9c0 .05.03.08.07.11.05.03.11.06.2.07a4.6 4.6 0 0 0 .43.06V31h-2.09a.14.14 0 0 1 0-.05v-.06a5.14 5.14 0 0 0 .43-.06.53.53 0 0 0 .2-.07c.04-.03.06-.06.06-.1a35.04 35.04 0 0 0 0-2.68h-.02l-1.37 2.95H9.5l-1.46-3h-.03a34.37 34.37 0 0 0 0 2.69c.01.15.23.24.67.27a.2.2 0 0 1 .01.06.1.1 0 0 1-.01.05H7.03a.1.1 0 0 1-.02-.05c0-.02 0-.04.02-.06.44-.04.66-.13.66-.27a32.02 32.02 0 0 0 0-2.82.32.32 0 0 0-.11-.2.32.32 0 0 0-.11-.05 3.41 3.41 0 0 0-.34-.06.08.08 0 0 1-.02-.05l.01-.05ZM23.44 27.43l1.41.02 1.16 2.54h.02l1.2-2.54h.35l1.04-.02.02.05-.02.06a4.3 4.3 0 0 0-.52.08.36.36 0 0 0-.12.06c-.03.03-.05.06-.05.1a26.37 26.37 0 0 0 0 2.88c.01.04.03.08.08.1.04.04.1.06.19.07a4.66 4.66 0 0 0 .43.06l.01.07V31a36.26 36.26 0 0 0-2.1 0 .13.13 0 0 1 0-.04v-.07a5.19 5.19 0 0 0 .44-.06.53.53 0 0 0 .19-.06c.04-.03.07-.07.07-.11a34.4 34.4 0 0 0 0-2.65h-.03l-1.36 2.92h-.03l-1.46-2.98h-.03a33.9 33.9 0 0 0 0 2.67c0 .15.23.24.66.27a.2.2 0 0 1 .02.07.1.1 0 0 1-.02.04 28.11 28.11 0 0 0-1.65 0 .1.1 0 0 1-.01-.04l.01-.07c.44-.03.66-.12.66-.27a31.39 31.39 0 0 0 0-2.79.32.32 0 0 0-.1-.2.32.32 0 0 0-.12-.05 3.55 3.55 0 0 0-.34-.06.08.08 0 0 1-.01-.04v-.05Z" fill="#fff"/><path d="M32.55 20.57a4.66 4.66 0 0 1-4.75 4.57 4.66 4.66 0 0 1-4.74-4.57A4.66 4.66 0 0 1 27.8 16a4.66 4.66 0 0 1 4.75 4.57Z" fill="#D9D9D9"/><path fill-rule="evenodd" d="M27.8 24.46a3.96 3.96 0 0 0 4.04-3.89c0-2.14-1.8-3.88-4.04-3.88a3.96 3.96 0 0 0-4.03 3.88c0 2.15 1.8 3.89 4.03 3.89Zm0 .68a4.66 4.66 0 0 0 4.75-4.57A4.66 4.66 0 0 0 27.8 16a4.66 4.66 0 0 0-4.74 4.57 4.66 4.66 0 0 0 4.74 4.57Z" fill="#C9AB68"/><path d="M23.28 22.97h-.73c.07.42.54 1.23 1.85 1.12l-.69.44c.16.27.8.73 2.07.48l-.63.54c.24.18.86.44 1.48 0-.06.46.1 1.17 1.14.34 1.04.83 1.2.12 1.14-.34.62.44 1.25.18 1.48 0l-.63-.54c1.26.25 1.9-.21 2.07-.48l-.69-.44c1.31.11 1.78-.7 1.85-1.12h-.73c0-.44-.28-.5-.43-.46-1.53 1.88-3.34 2.37-4.06 2.37-.72 0-2.53-.49-4.06-2.37-.14-.03-.43.02-.43.46Z" fill="#fff"/><path d="M23.75 23.13h-.64c.06.38.48 1.1 1.63 1l-.6.38c.14.24.7.65 1.82.42l-.56.48c.2.16.76.39 1.3 0-.04.4.1 1.03 1.01.3.92.73 1.05.1 1-.3.55.39 1.1.16 1.31 0l-.55-.48c1.1.23 1.67-.18 1.82-.42l-.6-.38c1.14.1 1.56-.62 1.62-1h-.64c0-.27-.03-.25-.09-.21a.26.26 0 0 1-.09.04 5.24 5.24 0 0 1-3.78 1.97c-.63 0-2.47-.36-3.82-2.02-.03 0-.05-.02-.07-.03-.06-.03-.07-.04-.07.25Z" fill="#D39C4A"/><path d="M26.58 24.7h.85v.93h-.85v-.94Z" fill="#258546"/><path d="M27.43 24.7h.85v.93h-.85v-.94Z" fill="#fff"/><path d="M28.28 24.7h.85v.93h-.85v-.94Z" fill="#F31A2A"/><path d="M24.7 23.6c-.67-1.67.17-2.48.67-2.67.34-.09.75.04.9.11a6.3 6.3 0 0 1 1.63-.62c.4.08.9-.08 1.33-.33.35-.2.56.09.63.25.24.06.75-.14.97-.25.88.75.2 1.74-.26 2.15.38.11.54.73.58 1.03-.8.9-1.49 1.29-3.35 1.51a3.8 3.8 0 0 1-3.1-1.18Z" fill="#ECEEED"/><path d="m26.38 23-.66.86c-.16.38.06.44.2.43l.46-.65c.36.03.67-.16.77-.26h-.77v-.17c.22 0 .7-.04.87-.21.17-.17.38-.32.46-.38h-.99v-.9l.53-.2.65-.24a5.34 5.34 0 0 0-.95 0c-.35.04-.45.32-.46.45.1.29-.04.97-.11 1.27ZM29.38 22.62c-.18-.47-.87-.93-1.19-1.1l.58-.24v.24h.18c.15-.3.29-.12.33 0 .12-.08.42-.19.66 0 .24.2.56.22.7.2.13 0 .38-.08.38-.44-.01-.35-.07-.89-.1-1.11.08.13.28.47.34.83.07.35-.32.89-.53 1.11l.19.5-1.27-.5-.27.5ZM28.77 20.84l.18-.3.33.23-.51.07ZM28.28 21c.06 0 .21-.24.28-.35l-.85.19c.16.05.5.16.57.16Z" fill="#838486"/><path d="m29.25 19.81-.42.48c.44-.3.81.09.94.31.53-.04.93-.28 1.07-.4.15-.3.45-1 .46-1.28.01-.36-.3-.79-.74-.9-.44-.1-.87-.04-1.31.7-.36.59-.15.97 0 1.1Z" fill="#6C6B69"/><path d="M29.62 19.75v.24l.51.18c.41.03.6-.17.63-.28.18-.07.2-.27.18-.36.1-.36.1-1.09-.57-1.07-.68.03-.78.61-.75.9-.38.06-.16.28 0 .39Z" fill="#E4E5E7"/><path d="M30.25 19.29c.08-.1-.08-.18-.18-.2-.06.01-.19.06-.19.1 0 .06.27.23.37.1ZM30.75 19.2c.05.1.1.28-.14.22-.3-.09-.14-.31.14-.22ZM30.07 19.7c.15 0 .44.03.44.13 0 .12-.3.09-.44-.14Z" fill="#757678"/><path d="M25.82 20.19c.06.3-.24.6-.4.7l.8.2 1.46-.62.08-.28c.11-.07.1-.28.1-.38.23-.1.15-.32.05-.52-.08-.16.07-.35.16-.43l-.3-.34-1.08.34c-.04.02-.51.5-.74.74-.07.07-.2.28-.13.59Z" fill="#7C7D81"/><path d="M25.12 19.46c0 .3.47.66.7.8l.58-.34c-.3-.27-.08-.31.06-.3.25-.1-.21-.16-.06-.34.12-.14.33.12.42.27l.83-.72c.2-.19.35-.08.4 0 .32-.23.13-.55 0-.68.02-.39-.26-.52-.4-.54-.26-.1-.93-.3-1.54-.2-.6.1-.91.48-.99.65-.6.66 0 1.02 0 1.4Z" fill="#343434"/><defs><linearGradient id="ahesqmn2x" x1="4.36" y1="29.37" x2="51.64" y2="29.37" gradientUnits="userSpaceOnUse"><stop stop-color="#85092B"/><stop offset=".5" stop-color="#B1182B"/><stop offset="1" stop-color="#820A2D"/></linearGradient></defs></svg>