<!-- by TradingView --><svg xmlns="http://www.w3.org/2000/svg" width="56" height="56" viewBox="0 0 56 56"><path fill="url(#ahgsrxmyj)" d="M0 0h56v56H0z"/><path d="M32 20.85a3.99 3.99 0 0 1 6.5.71A4 4 0 0 1 46 23.5V31h-3v-7a2 2 0 1 0-4 0v7h-3v-7a2 2 0 1 0-4 0v7h-3V20h3v.85ZM10 20l3.46 11h3.15l1.89-7.7 1.9 7.7h3.14L27 20h-3.22l-1.91 7.15L20.1 20h-3.22l-1.76 7.15L13.22 20H10Z" fill="#00CFBD"/><path d="m16.5 37 1.5-2c3 2 6.5 3 10 3s7-1 10-3l1.5 2c-1.83 1.33-6 4-11.5 4s-9.67-2.67-11.5-4Z" fill="#fff"/><defs><linearGradient id="ahgsrxmyj" x1="10.42" y1="9.71" x2="68.15" y2="76.02" gradientUnits="userSpaceOnUse"><stop stop-color="#1A1E21"/><stop offset="1" stop-color="#06060A"/></linearGradient></defs></svg>