<!-- by TradingView --><svg width="56" height="56" viewBox="0 0 56 56" xmlns="http://www.w3.org/2000/svg"><path fill="#F0F3FA" d="M0 0h56v56H0z"/><path fill-rule="evenodd" d="M28.5 45a17.02 17.02 0 1 0-1.47-33.98 16.9 16.9 0 0 0-16.02 17.47 16.95 16.95 0 0 0 17.5 16.5Zm-13.55-8.18a.16.16 0 0 1-.02-.1c-.06-.02-.09-.05-.06-.11.05-.04.08 0 .1.03l.02.01.14.1c.86.54 1.72 1.06 2.69 1.4 1.83.62 3.72.68 5.63.49 4.24-.44 6.88-4.07 8.66-7.64h3.66c-1.43 4.97-6.1 9.16-11.11 10.02-2.03.35-4.03.1-5.99-.54a1.79 1.79 0 0 1-.61-.28 13.97 13.97 0 0 1-3.04-3.32.16.16 0 0 1-.07-.06Zm5.7-22.69.07-.05c-.07-.02-.09 0-.07.05Zm-.18.06c.05-.05.1-.08.17-.05a.14.14 0 0 1-.1.16l-.1.17a8.58 8.58 0 0 0 2.73 12.6c1.3.73 2.78.94 4.28.93h16.47c.13.77.1 1.22-.11 2H31.36c-.17.12-.22.29-.26.44a1.6 1.6 0 0 1-.04.12c-.75 1.92-1.97 3.99-3.62 5.28a8.05 8.05 0 0 1-4.28 1.63c-1.62.17-3.22.1-4.78-.4A9.57 9.57 0 0 1 12.15 31a1.27 1.27 0 0 1-.02-.23c1.94-1.09 3.66-2.62 4.06-4.88.4-2.25-.48-4.3-1.97-6a15.68 15.68 0 0 1 5.47-5.31c.24-.17.5-.3.78-.4Zm19.2 3.16c2.62 2.84 4.39 6.92 4.33 9.65 0 0-11.32-.02-16.53 0a7.42 7.42 0 0 1-7.04-4.97 7.25 7.25 0 0 1 1.61-7.57.33.33 0 0 1 .18-.04 8.5 8.5 0 0 0 4.83 6.44c1.85.9 3.96 1.09 5.94.53 0-1.29-.34-2.47-.88-3.68a9.1 9.1 0 0 0 3-1.48 8.37 8.37 0 0 0-2.28-3.13c1.42 0 4.97 2.24 6.83 4.25ZM21.75 42.37v-.07c3.47.26 6.6-.7 9.44-2.65 2.86-1.97 4.86-5.33 5.85-8.65h2.67c.08.27-.04.74-.12.95-2.28 6.03-6.76 9.96-13.05 11.24a7.52 7.52 0 0 1-4.78-.78l-.01-.04Zm1.75-28.06c.34 3.76 4.44 6.78 8.14 6.07-.2-2.94-3.59-6.72-8.14-6.07Zm14.82 25.57a14.9 14.9 0 0 1-8.14 3.63c5.42-2.27 9.24-6.78 10.9-12.51h2.4c-.77 3.2-2.66 6.74-5.16 8.88Zm-14.14-26.9c2.63-1.51 7.28-.82 9.34 2.85-.64.37-1.34.64-2.07.78a8.68 8.68 0 0 0-7.27-3.64ZM12.07 29.28c2.76-1.45 3.7-5.83 1.6-8.06a16.1 16.1 0 0 0-1.6 8.06Zm14.46.71c-.89-.02-1.52.59-1.53 1.47A1.48 1.48 0 0 0 26.44 33 1.55 1.55 0 0 0 28 31.5a1.5 1.5 0 0 0-1.47-1.5Z" fill="#3694CF"/></svg>