<!-- by TradingView --><svg xmlns="http://www.w3.org/2000/svg" width="56" height="56" viewBox="0 0 56 56"><path fill="url(#abijrv1du)" d="M0 0h56v56H0z"/><path d="M10 22l.1-.59.78-.1.92-4.02-.57-.05.1-.24h1.78l.63 3.03L15.6 17h1.9l-.1.24-.58.06-.34 2.14a60.52 60.52 0 0 0-.27 1.92l.56.05-.1.59h-2.54l.09-.59.6-.06.47-3.09L13.2 22h-.46L12 18.26l-.69 3.05.7.1-.1.59H10zM18.74 20.4c0 .25.04.43.1.54.08.1.18.15.31.15.1 0 .18-.02.27-.08.09-.05.17-.1.24-.18l.03-.12.02-.13.43-1.95a.95.95 0 0 0-.38-.09.56.56 0 0 0-.2.04.7.7 0 0 0-.23.15c-.12.1-.22.26-.3.46a3.47 3.47 0 0 0-.3 1.21zm1.64 1.6a.75.75 0 0 1-.54-.2c-.14-.13-.2-.32-.2-.57-.22.22-.44.4-.68.55-.24.15-.48.22-.7.22a.84.84 0 0 1-.42-.11.81.81 0 0 1-.32-.36c-.08-.17-.12-.4-.12-.69 0-.28.06-.56.17-.83.39-1.02 1.42-2.01 2.56-2.01.28 0 .52.02.74.2l.62-.2.12.05-.62 2.72a6.69 6.69 0 0 0-.06.3c0 .1.04.15.13.15.06 0 .13-.04.2-.12l.27-.34.26.16a2.66 2.66 0 0 1-.83.92c-.19.1-.38.16-.58.16zM22.04 21.9l.63-3.1-.45-.1.05-.31 1.59-.39.15.15-.2 1.14c.19-.4.4-.72.63-.97a.9.9 0 0 1 .7-.32c.82 0 .85 1.13.09 1.13-.26 0-.4-.11-.65-.38a4.74 4.74 0 0 0-.88 1.46l-.16.83c-.05.27-.1.63-.17.9l-1.21.06-.12-.1zM26.02 21.44a15.67 15.67 0 0 1 .13-.85l.37-1.77-.46-.11.06-.32 1.77-.39.13.12-.59 2.65a1.3 1.3 0 0 0-.04.3c0 .1.04.15.11.15.1 0 .27-.15.49-.46l.26.17c-.1.18-.23.36-.38.52-.14.16-.32.3-.51.4-.2.1-.42.15-.66.15a.75.75 0 0 1-.5-.15.5.5 0 0 1-.18-.41zm1.53-4.11a.68.68 0 0 1-.44-.16.54.54 0 0 1-.2-.43c0-.22.09-.4.24-.54.16-.13.33-.2.53-.2a.6.6 0 0 1 .44.17c.12.11.18.25.18.42a.7.7 0 0 1-.22.54.76.76 0 0 1-.53.2zM29.85 21.87l-1.22.13-.12-.16.63-3.05-.45-.08.05-.32 1.7-.39.17.14-.13.61c.56-.54 1.09-.75 1.58-.75.71 0 .68.79.55 1.29l-.37 1.48a6.26 6.26 0 0 0-.06.3c0 .1.04.15.11.15.11 0 .28-.15.5-.46l.26.17c-.1.18-.23.36-.38.52-.16.16-.34.3-.54.4-.2.1-.42.15-.66.15a.72.72 0 0 1-.49-.15.52.52 0 0 1-.17-.41c0-.13.02-.26.05-.4l.08-.36.28-1.09c.06-.23.1-.42.1-.55 0-.06-.03-.1-.06-.14a.16.16 0 0 0-.13-.05c-.1 0-.21.03-.34.1-.13.05-.26.15-.4.29l-.2.95a24.37 24.37 0 0 0-.34 1.68zM35.7 18.4c-.14 0-.28.08-.43.24-.15.15-.28.36-.4.61-.1.26-.16.54-.18.84.32-.12.57-.26.74-.41.19-.15.31-.31.39-.47.08-.16.12-.32.12-.46 0-.12-.03-.2-.08-.26a.2.2 0 0 0-.16-.09zm-.9 3.6a1.4 1.4 0 0 1-1.04-.4c-.27-.28-.4-.64-.4-1.08a2.69 2.69 0 0 1 .68-1.81c.44-.48 1.04-.71 1.75-.71.78 0 1.21.31 1.21.83 0 .36-.2.67-.6.95-.39.27-.95.5-1.69.66.04.21.12.37.25.48.13.11.3.16.5.16.22 0 .42-.05.6-.16.18-.1.33-.24.46-.4l.24.16a2.7 2.7 0 0 1-1.1 1.12c-.25.13-.53.2-.85.2zM10.88 25.31l.1-.31h2.06c1.47 0 2.06.4 2.06 1.27 0 .28-.1.55-.27.81-.18.26-.46.48-.84.65a3.6 3.6 0 0 1-1.46.25h-.18a26.72 26.72 0 0 0-.25 1.37l.7.07-.1.58H10l.1-.58.6-.06.4-2.12a71.36 71.36 0 0 0 .35-1.87l-.57-.06zm1.57 2.17l-.01.02v.02h.15c.2 0 .4-.05.57-.16.17-.1.3-.27.41-.47.11-.21.17-.46.17-.76 0-.25-.07-.45-.2-.59-.13-.14-.32-.2-.56-.2h-.12l-.41 2.14zM17.52 26.46c-.13 0-.28.08-.43.23a2.34 2.34 0 0 0-.58 1.43c.32-.12.57-.26.75-.4.18-.16.31-.31.38-.47.08-.16.12-.3.12-.45 0-.11-.02-.2-.07-.26a.21.21 0 0 0-.17-.08zm-.9 3.54c-.43 0-.78-.13-1.05-.4s-.4-.62-.4-1.06a2.6 2.6 0 0 1 1.46-2.34c.3-.13.63-.2.99-.2.39 0 .69.09.9.25.2.16.31.38.31.63 0 .35-.2.66-.6.93-.39.27-.96.49-1.7.66.04.2.12.36.25.47.13.1.3.16.5.16.23 0 .43-.05.6-.16.19-.11.34-.24.47-.4l.24.16a2.66 2.66 0 0 1-1.1 1.1c-.26.14-.54.2-.86.2zM19.36 28.57l.45-1.98h-.5l.06-.4.62-.08.59-1.11h.85l-.22 1.13h.75l-.1.5-.75-.02-.46 2.18-.03.16-.01.13c0 .1.04.15.12.15.1 0 .26-.15.49-.45l.26.17c-.1.17-.23.35-.38.51-.15.16-.32.3-.52.4-.2.1-.42.14-.66.14a.77.77 0 0 1-.5-.15c-.12-.1-.18-.24-.18-.43 0-.13.01-.28.04-.44l.08-.41zM21.96 29.84l.63-3-.45-.08.05-.32 1.6-.45.17.14-.21 1.2c.18-.39.4-.71.63-.96.23-.24.47-.37.7-.37.16 0 .3.04.42.12.12.07.2.18.25.32a.9.9 0 0 1-.15.53c-.1.14-.24.2-.43.2a.65.65 0 0 1-.34-.08 2.1 2.1 0 0 1-.31-.29 4.67 4.67 0 0 0-.88 1.44 45.37 45.37 0 0 1-.34 1.64l-1.22.12-.12-.16zM27.23 30c-.3 0-.57-.05-.82-.15-.24-.11-.43-.28-.58-.5a1.61 1.61 0 0 1-.21-.87 2.45 2.45 0 0 1 .68-1.7c.21-.24.47-.43.76-.57.3-.14.6-.2.94-.2.3 0 .6.05.84.16.24.1.43.26.57.48.14.22.21.51.21.87a2.54 2.54 0 0 1-1.44 2.27c-.28.14-.6.21-.95.21zm.1-.46c.14 0 .27-.07.39-.22.11-.14.21-.33.3-.57a4.6 4.6 0 0 0 .26-1.6c0-.27-.03-.45-.1-.55a.32.32 0 0 0-.27-.13c-.14 0-.27.07-.4.22-.1.14-.2.33-.3.57a4.63 4.63 0 0 0-.25 1.55c0 .3.04.5.1.59.08.1.17.14.27.14zM30.7 30a.77.77 0 0 1-.5-.15.5.5 0 0 1-.17-.4c0-.13.02-.27.05-.44l.14-.67.34-1.57a31.08 31.08 0 0 0 .31-1.51l-.43-.09.04-.31 1.79-.46.13.11-.95 4.28c-.03.12-.05.22-.05.29 0 .1.04.15.12.15.1 0 .26-.15.49-.45l.26.17c-.1.17-.23.35-.38.51-.15.16-.32.3-.52.4-.2.1-.42.14-.66.14zM34.87 26.46c-.14 0-.28.08-.44.23a2.34 2.34 0 0 0-.58 1.43c.32-.12.57-.26.75-.4.18-.16.31-.31.39-.47.07-.16.11-.3.11-.45 0-.11-.02-.2-.07-.26a.21.21 0 0 0-.16-.08zm-.9 3.54c-.44 0-.8-.13-1.06-.4-.27-.27-.4-.62-.4-1.06a2.6 2.6 0 0 1 1.47-2.34c.3-.13.62-.2.98-.2.4 0 .7.09.9.25.21.16.32.38.32.63 0 .35-.2.66-.6.93-.4.27-.96.49-1.7.66.03.2.11.36.25.47.13.1.3.16.5.16.22 0 .42-.05.6-.16s.33-.24.47-.4l.23.16a2.66 2.66 0 0 1-1.1 1.1c-.25.14-.54.2-.86.2zM39.5 30a.66.66 0 0 1-.49-.2.83.83 0 0 1-.19-.58c-.24.26-.49.45-.75.59-.26.13-.5.19-.75.19a.79.79 0 0 1-.52-.18.62.62 0 0 1-.22-.5c0-.1 0-.2.02-.3l.07-.34.43-1.81-.48-.11.05-.32 1.78-.44.15.13-.55 2.24a4.61 4.61 0 0 0-.08.44c0 .11.02.19.08.24.06.04.12.06.19.06.09 0 .18-.03.28-.07.1-.05.22-.12.33-.23a.89.89 0 0 0 .03-.1.8.8 0 0 0 .02-.1l.27-1.22a16.27 16.27 0 0 0 .2-1l1.26-.39.18.13-.62 2.66c-.04.12-.05.22-.05.29 0 .1.04.15.12.15.1 0 .25-.15.48-.45l.26.17c-.1.17-.22.34-.37.5-.14.16-.31.3-.5.4-.18.1-.4.15-.62.15zM42.59 29.88l-1.22.12-.13-.16.64-3-.46-.08.06-.32L43.2 26l.16.13-.12.63c.54-.5 1.06-.76 1.54-.76.18 0 .33.06.46.17.13.12.19.29.19.52v.06l-.01.05c.28-.26.55-.45.81-.59.27-.14.53-.2.78-.2.17 0 .32.05.45.16.12.12.19.29.19.52l-.03.3c0 .11-.03.22-.06.34l-.38 1.46a6.58 6.58 0 0 0-.06.29c0 .1.04.15.11.15.12 0 .28-.15.51-.45l.26.17c-.1.17-.23.35-.39.51-.15.16-.34.3-.54.4-.2.1-.42.14-.66.14a.74.74 0 0 1-.5-.15.5.5 0 0 1-.17-.4c0-.13.02-.26.05-.4l.09-.35.27-1.07c.07-.23.1-.41.1-.54 0-.06-.02-.1-.06-.14a.16.16 0 0 0-.12-.05.8.8 0 0 0-.33.08 1.7 1.7 0 0 0-.38.27l-.01.04v.04l-.2.88-.17.84c-.05.27-.1.54-.17.83L43.6 30l-.13-.16.48-2.21a6.52 6.52 0 0 0 .1-.55c0-.05-.03-.1-.06-.13a.17.17 0 0 0-.12-.05.8.8 0 0 0-.33.08 1.4 1.4 0 0 0-.38.26l-.22.97a23.4 23.4 0 0 0-.34 1.67zM10 34.45l.31-1.45h4.66l-.28 1.45h-.71l.07-1h-.78l-.44 2.17-.18.93-.18.81.66.07-.1.57h-2.77l.1-.57.69-.07.41-1.98a50.6 50.6 0 0 0 .37-1.92h-.77l-.33 1H10zM14.62 37.84l.65-2.98-.47-.09.06-.31 1.63-.46.17.15-.22 1.2c.2-.4.4-.71.65-.96.24-.24.48-.39.72-.39.16 0 .3.06.42.14.13.07.22.18.26.32 0 .2-.05.38-.15.52-.1.14-.25.2-.44.2a.68.68 0 0 1-.35-.08c-.09-.06-.2-.15-.32-.28a4.65 4.65 0 0 0-.9 1.43 43.4 43.4 0 0 1-.34 1.63l-1.24.12-.13-.16zM21.7 38a.68.68 0 0 1-.51-.2.82.82 0 0 1-.2-.57c-.24.25-.5.45-.76.58-.26.13-.52.19-.76.19a.81.81 0 0 1-.54-.18.6.6 0 0 1-.22-.5c0-.1 0-.2.02-.3l.07-.34.44-1.8-.5-.1.07-.32 1.8-.46.16.15-.56 2.23a4.48 4.48 0 0 0-.08.43c0 .11.02.2.08.24.05.04.12.06.19.06a.7.7 0 0 0 .29-.07c.1-.04.22-.12.34-.22a.89.89 0 0 0 .02-.1.78.78 0 0 0 .02-.1l.28-1.22a16.17 16.17 0 0 0 .2-1l1.3-.4.17.15-.63 2.65a1.2 1.2 0 0 0-.05.28c0 .1.04.15.12.15.1 0 .26-.14.49-.44l.27.16c-.1.17-.22.34-.37.5-.16.16-.33.3-.52.4-.19.1-.4.15-.64.15zM23.87 36.69c.15 0 .28.04.4.12.12.08.2.22.24.42l.1.45h.01c.17 0 .3-.05.4-.13.09-.1.13-.2.13-.34a.5.5 0 0 0-.14-.34c-.1-.1-.24-.24-.43-.39a3.46 3.46 0 0 1-.55-.54c-.13-.17-.2-.39-.2-.64 0-.23.06-.44.18-.63.12-.2.3-.35.55-.47a2 2 0 0 1 .88-.2c.42 0 .72.1.91.25.2.16.32.35.36.57 0 .12-.05.22-.13.3a.5.5 0 0 1-.36.13.64.64 0 0 1-.35-.12.9.9 0 0 1-.28-.4l-.15-.37a.46.46 0 0 0-.28.2.53.53 0 0 0-.09.3c0 .14.06.29.18.42s.29.27.5.43c.24.19.42.36.53.53.11.16.17.35.17.57 0 .2-.07.4-.2.58-.13.18-.33.33-.6.44-.27.11-.61.17-1.03.17-.36 0-.65-.07-.88-.2a.9.9 0 0 1-.4-.64.64.64 0 0 1 .16-.34c.08-.09.2-.13.37-.13zM27.35 36.57l.45-1.96h-.51l.07-.4.64-.08.6-1.13h.86l-.22 1.15H30l-.1.5-.77-.02-.47 2.17c0 .06-.02.11-.03.16v.12c0 .1.03.15.11.15.1 0 .27-.14.5-.44l.27.16c-.1.18-.23.35-.39.51a1.9 1.9 0 0 1-.53.4c-.2.1-.43.14-.67.14a.8.8 0 0 1-.51-.15c-.12-.1-.19-.24-.19-.42 0-.14.02-.28.04-.44l.1-.42z" fill="#fff"/><defs><linearGradient id="abijrv1du" x1="28" y1="0" x2="28" y2="56" gradientUnits="userSpaceOnUse"><stop stop-color="#A7A0BF"/><stop offset="1" stop-color="#8781A3"/></linearGradient></defs></svg>