<!-- by TradingView --><svg width="56" height="56" viewBox="0 0 56 56" xmlns="http://www.w3.org/2000/svg"><path fill="#F0F3FA" d="M0 0h56v56H0z"/><path fill-rule="evenodd" d="M18 22v-5.56c0-.24.2-.44.44-.44h1.13c.18 0 .34.1.4.28l1.58 3.9 1.54-3.9a.44.44 0 0 1 .41-.28h1.06c.24 0 .44.2.44.44V22h-1v-4.9L21.97 22h-1.03L19 17.1V22h-1Zm8.3-3.4v-.97a3.34 3.34 0 0 1 1.82-.63c1.45 0 1.86.9 1.88 1.34v3.65h-1v-.7a1.6 1.6 0 0 1-1.42.71c-1.14 0-1.53-.98-1.58-1.47 0-1.2 1.16-1.52 1.73-1.53H29v-.27c0-.1-.01-.88-1-.88-.78 0-1.46.5-1.7.74Zm2.7 1.08v.72c-.2.27-.62.66-1.18.66-.2-.02-.6-.17-.6-.62 0-.57.41-.76.86-.76H29ZM31 17v5h1v-3c.3-.4.78-.9 1.1-.9.4 0 .62.19.68.28V17.3a.7.7 0 0 0-.58-.31c-.44 0-.93.56-1.2.94V17h-1Zm6.01.45v.93c-.15-.17-.6-.5-1.17-.5s-.67.33-.66.5c.03.13.22.44.7.6.6.22 1.41.57 1.41 1.53 0 .96-.79 1.49-1.9 1.49-.87 0-1.3-.37-1.39-.56v-.77c.22.17.8.52 1.4.52.75 0 .78-.4.78-.58 0-.18-.11-.53-1-.73-.88-.2-1.06-1.04-1.06-1.5 0-.45.37-1.38 1.67-1.38.53 0 1.04.3 1.22.45ZM6 31h1.32l.6-2h2.12l.57 2H12l-2.22-7H8.3L6 31Zm3.76-3L9 25.35 8.2 28h1.55Zm21.22-.62v-.93a2.17 2.17 0 0 0-1.22-.45c-1.27 0-1.64.93-1.64 1.38 0 .46.18 1.3 1.05 1.5.87.2.98.55.98.73 0 .18-.03.58-.77.58-.6 0-1.17-.35-1.38-.52v.77c.1.19.51.56 1.38.56 1.1 0 1.78-.53 1.78-1.49s-.7-1.3-1.3-1.52c-.48-.17-.66-.48-.7-.6-.01-.18.1-.52.66-.52s1 .34 1.16.51ZM14.02 31c.56 0 1.06-.28 1.43-.73v-.83h-.31c-.22.34-.56.56-.94.56-.66 0-1.2-.67-1.2-1.5s.54-1.5 1.2-1.5c.36 0 .68.19.9.5h.35v-.77a1.84 1.84 0 0 0-1.43-.73C12.9 26 12 27.12 12 28.5s.9 2.5 2.02 2.5Zm4.98-.52c-.31.33-.7.52-1.14.52-1.03 0-1.86-1.12-1.86-2.5s.83-2.5 1.86-2.5c.43 0 .83.2 1.14.52V26h1v6h-1v-1.52Zm0-1.08c-.2.36-.53.6-.89.6-.61 0-1.11-.67-1.11-1.5s.5-1.5 1.11-1.5c.36 0 .69.24.89.6v1.8Zm2 .36V26h1v3.5c0 .15.1.5.86.5.4 0 .84-.43 1.14-.82V26h1v5h-1v-.97c-.32.48-.85.97-1.57.97-1.06 0-1.4-.82-1.43-1.24ZM50 31v-3.76A1.36 1.36 0 0 0 48.57 26c-.72 0-1.25.49-1.57.97V26h-1v5h1v-3.18c.3-.4.73-.82 1.15-.82.75 0 .85.92.85 1.08V31h1Zm-23-6.5a.5.5 0 1 1-1 0 .5.5 0 0 1 1 0Zm0 1.5v5h-1v-5h1Zm5.5-1a.5.5 0 1 0 0-1 .5.5 0 0 0 0 1Zm.5 6v-5h-1v5h1Zm7-6.5a.5.5 0 1 1-1 0 .5.5 0 0 1 1 0Zm0 1.5v5h-1v-5h1Zm-5 1v2.74c0 .42.26 1.26 1.33 1.26.6 0 1-.27 1.14-.4v-.86a1 1 0 0 1-.7.26c-.51 0-.77-.52-.77-.74V27h2v-1h-2v-1h-1v1h-1v1h1Zm10 1.5c0 1.38-.9 2.5-2 2.5s-2-1.12-2-2.5.9-2.5 2-2.5 2 1.12 2 2.5Zm-1 0c0 .83-.45 1.5-1 1.5s-1-.67-1-1.5.45-1.5 1-1.5 1 .67 1 1.5ZM20.93 40c.8 0 1.54-.4 2.07-1.02V38h-.4c-.36.6-.95 1-1.6 1-1.1 0-2-1.12-2-2.5s.9-2.5 2-2.5c.65 0 1.24.4 1.6 1h.4v-.98A2.7 2.7 0 0 0 20.93 33C19.31 33 18 34.57 18 36.5s1.31 3.5 2.93 3.5ZM29 40v-5h1v.98c.22-.36.7-.98 1.1-.98.28 0 .46.2.52.3v1c-.06-.08-.25-.26-.6-.26-.3 0-.76.55-1.02.93V40h-1Zm4-1.28v-2.44c.2-.18.44-.28.7-.28.66 0 1.2.67 1.2 1.5s-.54 1.5-1.2 1.5c-.26 0-.5-.1-.7-.28Zm0-3.4V35h-1v6h1v-1.31c.29.2.62.31.98.31C35.1 40 36 38.88 36 37.5s-.9-2.5-2.02-2.5c-.36 0-.69.11-.98.31Zm-5 2.18c0 1.38-.9 2.5-2 2.5s-2-1.12-2-2.5.9-2.5 2-2.5 2 1.12 2 2.5Zm-1 0c0 .83-.45 1.5-1 1.5s-1-.67-1-1.5.45-1.5 1-1.5 1 .67 1 1.5Zm11 2a.5.5 0 1 1-1 0 .5.5 0 0 1 1 0Z" fill="#324061"/></svg>