<!-- by TradingView --><svg width="56" height="56" viewBox="0 0 56 56" xmlns="http://www.w3.org/2000/svg"><path fill="#002A3A" d="M0 0h56v56H0z"/><path d="M35.47 18.77a87.48 87.48 0 0 0-10.16 7.17c-4.04 3.28-7.73 6.56-10.15 9.41a19.66 19.66 0 0 0-2.61 3.54c-.63 1.21-.72 2.07-.27 2.6.27.34.72.51 1.26.51 2.34 0 9.88-5.44 9.88-5.44s-6.38 2.85-7.45 2.85h-.18c0-.09-.1-1.04 2.6-4.06 2.07-2.33 5.03-5.01 8.36-7.69 6.74-5.35 12.13-8.2 13.84-8.2h.18c0 .08.09.95-2.43 3.8-1.16 1.3-3.68 3.97-5.48 5.78l.27.26c2.52-1.98 6.3-5.1 7.82-6.9 1.17-1.3 1.98-2.51 2.52-3.37.63-1.13.72-1.99.18-2.5-.27-.35-.72-.53-1.26-.53-1.8-.08-4.77 1.47-6.92 2.77ZM24.5 16.5a3.5 3.5 0 0 0 7 0 3.43 3.43 0 0 0-3.41-3.5 3.58 3.58 0 0 0-3.59 3.5Z" fill="#fff"/><path d="M12.29 16.52c-.45.52-.36 1.39.18 2.51.54.87 1.35 2 2.52 3.38 1.35 1.56 4.68 4.34 7.11 6.33l.36-.35a158.1 158.1 0 0 1-4.86-5.11c-2.52-2.95-2.43-3.81-2.43-3.9h.18c1.71 0 7.11 2.86 13.87 8.23a71.82 71.82 0 0 1 8.37 7.72c2.7 3.03 2.62 3.98 2.62 4.07h-.18c-1.08 0-7.48-2.86-7.48-2.86S40.12 42 42.45 42c.55 0 1-.17 1.27-.52.45-.52.36-1.39-.27-2.6a25.45 25.45 0 0 0-2.61-3.55 96.8 96.8 0 0 0-10.18-9.45 87.65 87.65 0 0 0-10.18-7.2C18.23 17.57 15.26 16 13.55 16c-.54 0-1 .17-1.26.52Z" fill="#FF661B"/></svg>