<!-- by TradingView --><svg xmlns="http://www.w3.org/2000/svg" width="56" height="56"><path fill="#0977C2" d="M0 0h56v56H0z"/><path d="M14.5 32H13v-3.75c0-.76-.18-1.82-1.18-1.82-1.1 0-1.32 1.21-1.32 2.06V32H9v-3.75c0-.76-.13-1.82-1.13-1.82-1.1 0-1.37 1.21-1.37 2.06V32H5v-7h1.1l.5.8c.56-.64 1.19-.8 1.72-.8.73 0 1.4.34 1.81 1.01A2.42 2.42 0 0112.18 25c.85 0 1.58.39 1.95 1.07.13.23.37.73.37 1.71V32zM51 27.81V32h-1.5v-3.8c0-1.46-.78-1.77-1.4-1.77-.74 0-1.6.41-1.6 2.3V32H45v-7h1.12l.5.8c.69-.75 1.49-.8 1.88-.8 1.3 0 1.86.62 2.08.91.26.4.42.86.42 1.9zm-8.5.69c0 1.28-.8 2.12-2 2.12s-2-.84-2-2.12c0-1.51 1.06-2.12 2-2.12s2 .6 2 2.12zm1.5 0a3.4 3.4 0 00-3.5-3.5 3.39 3.39 0 00-3.5 3.5 3.4 3.4 0 003.5 3.5c1.96 0 3.5-1.49 3.5-3.5zm-10.74-2.22c-1.13 0-1.56.88-1.64 1.47h3.16c0-.68-.5-1.47-1.52-1.47zM36.33 29h-4.82c0 .84.78 1.62 1.83 1.62.76 0 1.33-.39 1.7-1.01l.91 1.16A3.3 3.3 0 0133.21 32c-1.9 0-3.21-1.5-3.21-3.37 0-1.88 1.3-3.63 3.26-3.63 2.06 0 3.07 1.84 3.07 3.84V29zm-6.32 3l-2.74-3.49L30 25h-1.93l-1.79 2.26L24.5 25h-1.92l2.75 3.51L22.6 32h1.95l1.77-2.24L28.06 32H30zm-11.46-1.38c1.05 0 1.95-.71 1.95-2.1 0-1.46-.93-2.14-1.95-2.14-1.1 0-1.8.91-1.8 2.1 0 1.15.68 2.14 1.8 2.14zM22 32h-1.5v-.9c-.68.8-1.57.9-2.05.9-2.07 0-3.22-1.71-3.22-3.53 0-1.94 1.37-3.47 3.32-3.47A3.33 3.33 0 0122 28.47V32z" fill="#fff"/></svg>