<!-- by TradingView --><svg width="56" height="56" viewBox="0 0 56 56" xmlns="http://www.w3.org/2000/svg"><path fill="url(#a3vzvclh0)" d="M0 0h56v56H0z"/><path fill-rule="evenodd" d="M35.14 16.77 31 37h3.51l.36-2.56c.3.85 1.6 2.56 4.39 2.56 4.86 0 7.74-4.45 7.74-9.15S44.69 22 41.78 22c-2.33 0-3.95 1.19-4.4 1.8L40.43 10l-5.29 6.77ZM40.2 25c-3.21 0-4.12 3.87-4.17 5.81-.2 1.59.56 3.19 2.77 3.19 2.2 0 4.2-2.48 4.2-5.8 0-2.67-1.87-3.24-2.8-3.2ZM7 37l3.2-15h3.61l-.42 2.17A5.9 5.9 0 0 1 18.17 22c2.66 0 3.59 1.81 3.71 2.72a5.78 5.78 0 0 1 5.1-2.72c3.7 0 4.66 2.96 4.28 5.24-.3 1.82-1.72 8.68-2.4 11.89L23.27 46l4.14-19.14c-.03-.72-.45-2.14-1.89-2.14-1.8 0-2.96 1.27-3.45 3.4l-1.44 6.64-.48 2.24h-4l2.03-9.76c.15-.84-.02-2.52-1.88-2.52-2.32 0-3.11 2.8-3.48 4.2-.23.9-.95 4.1-1.5 6.47L10.96 37H7Z" fill="#fff"/><defs><linearGradient id="a3vzvclh0" x1="28" y1="0" x2="28" y2="56" gradientUnits="userSpaceOnUse"><stop stop-color="#2A808D"/><stop offset="1" stop-color="#045C5E"/></linearGradient></defs></svg>