<!-- by TradingView --><svg xmlns="http://www.w3.org/2000/svg" width="56" height="56"><path fill="#F0F3FA" d="M0 0h56v56H0z"/><path d="M42.78 21.68L44 23.7l-1.41.79-1.26-1.08-2.45-2.34-1.3 3.25-.86.65 1.1 2.4-1.12 1.72 4.63 1.5.22 1.28-2.25 3.1-.82-.39h-1.01l-1.02-.78 1.8-.87.23.44v.43l.4.26v-.46h.42l.9-1.88-.43-.4h-4.5l-1.27.77 2.92 3.22-.76 1.06-2.48.53-.92.43h-.84l-1.32-.86h-.66l-1.04-.5 1.83-1.28.69.62v.74h.35l.45-.53 1.5.45 1.58-.32-4.82-3.93-4-.67-1.95 4.61 1.5 2.84.73.74.1.54 1.44 1.2.49 1.03-2.32-.2.17-.82-.74-.32-.3.14-.54-2.12-.14 2.12-1.39-1.98.88-.67h-.88l-.27-.6-2.35-1.3-2.15-.74.85-3.31-1.34-1.48-1.98-2.88.47-2.45-.68-.25-.49 2.42.7 4.02-1.22 1.1-4.05 2.38.8-1.8-3.3 3.03 1.03-1.9-3.34 1.69 2.6-2.3-1.08-.47 3.65-1.97.45-1.5-1.3-.5.84-3.95 1.96-1.24 3.79-.75 3.54-1.72 7.46 1.09-1.7-.79 2.98-.5-1.84-.67 4.5-1.04-3.56-.55 5.68-.95-1.46-1.15 2.64.57-1.23-1.43 3.56.28-.95-1.48 2.47 1.9V15h.66l.83 2.99 1.26 1.7.82 2z" fill="#0A578F"/><path d="M42.76 21.63l-.2 2.82-1.27-1.08v-1.74h1.47zm-1.32 0l.52-1.97-1.25-1.69.73 3.66z" fill="#688DA7"/><path d="M40.7 17.98l-3.22 1.59 3.97 2.06-.74-3.65z" fill="#9AB4C3"/><path d="M38.9 21.07l-1.39-1.5 3.95 2.05-2.57-.55z" fill="#03314B"/><path d="M39.23 16.97l-1.73 2.6 1.81-.9-.08-1.7zm-2.54-1.96l2.53 1.96-1.54-.42-.99-1.54z" fill="#688DA7"/><path d="M34.09 16.23l3.57.3-2.31 1.15-1.26-1.45z" fill="#9AB4C3"/><path d="M32.62 17.06l2.74.6-1.25.63-1.5-1.23z" fill="#688DA7"/><path d="M28.49 19.21l5.69-.94-2.11 1.52-3.58-.58zm-2.08 2.76l3.1-.52-1.33 1.36-1.77-.84z" fill="#03314B"/><path d="M33.85 20.33l3.8-3.81-2.14 4.92-1.66-1.1-2.74 1.56-1.66-.42 2.69-1.75 1.71.6z" fill="#688DA7"/><path d="M37.49 19.58l.17-3.05-2.16 4.92 1.99-1.87z" fill="#03314B"/><path d="M37.57 24.34l-.06-4.78 1.38 1.5-1.32 3.28z" fill="#688DA7"/><path d="M37.53 19.54L36 23.63l1.58.69-2.54 1.95.96-2.64-.49-2.2 2.02-1.9z" fill="#9AB4C3"/><path d="M33.52 24.35l2-2.91-.46 4.83-1.54-1.92z" fill="#9AB4C3"/><path d="M31.13 21.9l4.42-.48-2.03 2.92-2.39-2.44z" fill="#326789"/><path d="M27.7 23.24l1.8-1.78 1.64.42-3.43 1.36 5.8 1.1-3.3 2.5-6.57-1.78-4.26 1.23 4.77-4.1-.5 2.87 4.06-1.82z" fill="#9AB4C3"/><path d="M35.28 28.99l1.46-4 1.1 2.34L35.28 29l-2.3.44.53-5.1 1.55 1.92.22 2.74z" fill="#688DA7"/><path d="M31.23 28.5l2.28-4.17-.5 5.08-1.78-.9zm4.05.48l2.57-1.66-2.57 3.99-3.04 1.87-1.76-1.47 4.8-.4v-2.33z" fill="#03314B"/><path d="M31.23 28.48l1.8.93-2.53 2.28-2.74-2.03-4.74 1.55v-.76l1.2-.88 3.54.1 3.47-1.19z" fill="#9AB4C3"/><path d="M27.76 29.66l-4.75 1.54 6.37-.34-1.62-1.2z" fill="#0C4968"/><path d="M24.5 35.75l-1.48-4.55 3.48-.2-1.99 4.74z" fill="#688DA7"/><path d="M27.77 29.67l2.45-2.84 1.03 1.65-3.48 1.2z" fill="#0C4968"/><path d="M21.19 29.54l9.03-2.7-2.45 2.83-6.58-.13z" fill="#688DA7"/><path d="M21.23 29.54l-1.83-3.27 10.82.57-8.99 2.7z" fill="#9AB4C3"/><path d="M16.29 27.84l4.36-6.16-1.24 4.6-3.12 1.56z" fill="#03314B"/><path d="M16.28 27.85l.84-4.46 3.53-1.71-4.37 6.17z" fill="#9AB4C3"/><path d="M20.41 28.06l-4.12-.22 3.12-1.57 1 1.8z" fill="#688DA7"/><path d="M19.7 29.72l-3.42-1.88 4.13.2.85 1.46 3 .09-1.22.86-1.78-.95-1.57.22z" fill="#0C4968"/><path d="M23 30.43l-3.3-.71 1.55-.22 1.74.93z" fill="#03314B"/><path d="M19.69 29.72l-1.4 1.03 4.74.45v-.77l-3.34-.71z" fill="#326789"/><path d="M21.32 34.17l-3.05-3.43 4.76.46-1.71 2.97z" fill="#688DA7"/><path d="M22.54 33.63l.72-1.73 1.24 3.7-1.96-1.97z" fill="#03314B"/><path d="M18.74 35.5l.84-3.3 1.73 1.96.4.9 2.03.92-1.2-2.36 1.96 1.88 1.05 2.03-1.34-1.19-.15 1.83h-.52l-.29-.6-2.31-1.3-2.2-.77z" fill="#9AB4C3"/><path d="M25.22 37.23l-1.03-.98-.13 1.91h.32l-.86.66 1.4 2 .3-3.59z" fill="#688DA7"/><path d="M25.55 37.52l-.34-.3-.16 1.58.57 2.01.3-.15.72.3-.18.83 2.3.2-.46-1.03-1.43-1.19-.08-.52-.77-.75-.47-.98z" fill="#03314B"/><path d="M13.33 24.15l3.81-.77-.4 2.05-3.41-1.28z" fill="#688DA7"/><path d="M11.37 25.4l1.98-1.25 2.74 1.03-.5 2.38.7 4.02-5.78-2.25 5.09-1.77-4.23-2.17z" fill="#0C4968"/><path d="M11.83 29.85l4.48 1.72-1.24 1.11L11 35.1l.84-1.85 3.24-.56-3.7-1.34.46-1.49z" fill="#326789"/><path d="M8.37 36.5l3.48-3.24-2.29 1.12-1.19 2.11z" fill="#03314B"/><path d="M6 36.21l5.85-2.95-3.05.52L6 36.2zm29.27-4.89l1.47-2.27 4.6 1.52.23 1.28-2.26 3.14v-1.44l.87-1.84-.43-.4 1.6-.74-6.08.75z" fill="#9AB4C3"/><path d="M39.34 35v-1.45h-.46v.48l-.36-.26v-.4l-.27-.48-1.82.88 1.04.8 1.05.04.82.38zM34 32.08l-1.76 1.1 3.94 3.18L34 32.08z" fill="#688DA7"/><path d="M34 32.09l2.94 3.2-.76 1.07-2.51.54-.87.42h-.9l-.86-.56.7-.73.44-.55 1.49.46 1.61-.3.9.72L34 32.09z" fill="#9AB4C3"/><path d="M30.6 36.47l.44.3.72-.75h-.32l-.03-.72-.68-.63-1.85 1.27 1.05.53h.67z" fill="#688DA7"/></svg>