<!-- by TradingView --><svg xmlns="http://www.w3.org/2000/svg" width="56" height="56"><path fill="#F0F3FA" d="M0 0h56v56H0z"/><path d="M42.99 31.25l-2.66-2-.19.29L43 31.25z" fill="#F37021"/><path d="M36.5 22h-2v9h2l-.02-.85c.38.56.83.85 1.6.85 1.62 0 2.73-1.54 2.73-3.1 0-.9-.28-1.62-.85-2.16a2.62 2.62 0 00-1.89-.74c-.57 0-1.18.27-1.57.8V22zm-.11 5.93c0-.7.52-1.41 1.26-1.41.78 0 1.35.64 1.35 1.41 0 .73-.5 1.45-1.35 1.45-.86 0-1.26-.75-1.26-1.45zM4 31v-6h2v.67S6.5 25 7.28 25c.41 0 .75.08 1.02.25.28.16.5.41.66.76A2.15 2.15 0 0110.81 25c.66 0 1.16.17 1.52.52.37.35.67.9.67 1.63V31h-2v-3.17c0-1.62-1.5-1.74-1.5-.05V31h-2v-3.24c0-1.61-1.5-1.62-1.5.05V31H4zm19 0v-6h2v.89s.5-.89 1.27-.89c.23 0 .48.07.73.15v1.6a2.3 2.3 0 00-.94-.2c-1.07 0-1.06.79-1.06 1.58V31h-2zm29-4.58h-1V31h-2v-4.58h-.6V25h.6v-2h2v2h1v1.42zm-19.04-.51c.59.56.88 1.26.88 2.09 0 .83-.3 1.53-.88 2.1-.62.6-1.47.9-2.54.9a3.5 3.5 0 01-2.55-.9A2.8 2.8 0 0127 28c0-.83.3-1.53.87-2.1a3.5 3.5 0 012.55-.9c1.07 0 1.92.3 2.54.9zm-1.48 1.03c-.28-.27-.63-.4-1.06-.4-.43 0-.78.13-1.06.4a1.4 1.4 0 00-.43 1.06c0 .43.14.78.43 1.06.28.27.64.4 1.07.4.42 0 .77-.13 1.05-.4.28-.28.43-.63.43-1.06 0-.43-.15-.78-.43-1.06zM48 28c0-.83-.3-1.53-.87-2.1a3.5 3.5 0 00-2.55-.9 3.5 3.5 0 00-2.54.9 2.8 2.8 0 00-.88 2.1c0 .83.3 1.53.88 2.1.62.6 1.47.9 2.54.9a3.5 3.5 0 002.55-.9A2.8 2.8 0 0048 28zm-3.42-1.46c.43 0 .78.13 1.06.4.29.28.43.63.43 1.06 0 .43-.14.78-.43 1.06-.28.27-.63.4-1.05.4-.43 0-.79-.13-1.07-.4A1.4 1.4 0 0143.1 28c0-.43.15-.78.43-1.06.28-.27.63-.4 1.06-.4zm-22.84-1.22v1.65a1.92 1.92 0 00-1.23-.43c-.86 0-1.51.64-1.51 1.46 0 .83.67 1.46 1.54 1.46.45 0 .85-.14 1.2-.44v1.64c-.42.23-.92.34-1.49.34C18.5 31 17 29.79 17 28s1.48-3 3.27-3c.52 0 1.01.1 1.47.32zM16 25h-2v6h2v-6z" fill="#77787B"/><path fill-rule="evenodd" d="M51 31.46h-.79V35H51v-3.54zM42.5 35v-3.54h-.79v1.42a.89.89 0 00-.76-.35c-1.57 0-1.61 2.47 0 2.47.46 0 .76-.29.76-.29V35h.79zm-1.35-1.8c-.76 0-.81 1.14-.02 1.14.82 0 .8-1.15.02-1.15zm-2.52.28h-1.06a.5.5 0 01.13-.26c.11-.1.24-.16.4-.16.15 0 .28.05.37.14.08.07.13.16.16.28zm.73.46v-.08c0-.41-.12-.73-.35-.97a1.28 1.28 0 00-.96-.36c-.39 0-.7.11-.93.34-.25.25-.37.57-.37.94 0 .74.64 1.19 1.33 1.19.68 0 1.08-.3 1.24-.78l-.74-.07c-.1.2-.27.27-.49.27-.27 0-.55-.19-.55-.48h1.82zm3.82-1.33H44V35h-.82v-2.4zm3.28.75v-.7c-.19-.09-.4-.13-.61-.13-.73 0-1.35.47-1.35 1.22 0 .74.62 1.25 1.34 1.25.24 0 .44-.05.62-.14v-.7a.76.76 0 01-.5.19c-.35 0-.64-.24-.64-.6s.26-.57.63-.57c.2 0 .36.06.51.18zm2.39-.48v-.27h.79V35h-.79v-.29a1 1 0 01-.72.29 1.24 1.24 0 01-.9-2.12c.22-.22.51-.35.86-.35a.9.9 0 01.76.35zm-.57.31a.61.61 0 00-.45.2c-.37.4-.05.95.47.95.42 0 .7-.37.56-.77a.59.59 0 00-.58-.38zm-16.07-.58V35H33v-1.22c0-.23.05-.4.15-.5a.47.47 0 01.28-.09c.1 0 .2.04.26.1.08.08.13.24.13.47V35h.79v-1.19c0-.21.04-.37.12-.47.07-.1.17-.15.3-.15.12 0 .22.05.29.13.07.09.1.24.1.47V35h.8v-1.51c0-.32-.1-.56-.26-.72-.16-.15-.39-.22-.69-.22a1 1 0 00-.52.13.9.9 0 00-.3.3.7.7 0 00-.3-.32.9.9 0 00-.47-.11c-.3 0-.53.11-.68.34v-.28h-.79z" fill="#77787B"/><path d="M43.25 31.77a.44.44 0 01-.13-.32.45.45 0 01.46-.45c.12 0 .23.04.32.13s.13.2.13.32a.44.44 0 01-.46.45.46.46 0 01-.32-.13zM13.5 23c0-.5.46-1.52 1.68-1.44-.23-1.6 0-6.36 23.02 7.1a1.76 1.76 0 00.23-.35C36.4 27.05 20.93 17.77 15 18c-1.4.05-2.3.68-2.31 2.04 0 .88.47 2.27.8 2.96zm1.5 1a1 1 0 100-2 1 1 0 000 2z" fill="#F37021"/></svg>