<!-- by TradingView --><svg width="56" height="56" viewBox="0 0 56 56" xmlns="http://www.w3.org/2000/svg"><path fill="#F0F3FA" d="M0 0h56v56H0z"/><path fill-rule="evenodd" d="m29.48 18.35-1.67-2.46.83-1.5-1.12-1.49-1.6-.17-1.3-1.6.87-1.13 2.03.33 1.36 1.45-.5.86 1.1 1.38 1.94.37 1.6 2.26-.87 2-2.67-.3Zm-3.62-7.07.59.68.93.11.35-.51-.57-.64-.92-.14-.38.5Zm3.23 4.75.85 1.3 1.5.2.5-1.08-.92-1.27-1.34-.23-.6 1.08Zm6-2.6-1.45-1.23a3.68 3.68 0 0 0-.92 0l.63 1.49 1.69 1.34.86-.2-.81-1.4ZM34 12.8l-.41.03.32.72.82.62.4-.08-.4-.66-.73-.63Zm5.93 8.66c.72 1.24 1.01 3.5 1.07 4.47l-.26.88-.75-1.26L39 26.6v2.81l.98 1 .75-1.25c.08.15.24.6.24 1.16 0 .7-.4 3.13-1.04 4.2l-.57-.8.35-2.4-.92-1-1.67 1.58-.24 2.44 1.2.88-.67 2.75-2.06 1.95-1.78-.79.54-3.09 2.01-1.6.22-2.46-1.97-1.4-2.05 1.47-.2 2.9-3.04 1.95-3.04-1.58.12-3.78 3.26-1.98 2.41 1.49L34 29.64v-3.25l-2.17-1.41-2.4 1.5-3.32-2.03-.11-3.74 3.08-1.6 3.06 1.97.16 2.87 2.06 1.45 1.97-1.36-.23-2.5-2-1.6-.52-3.06 1.76-.8 2.06 1.96.7 2.74-1.23.91.26 2.4 1.64 1.59.93-.98-.33-2.38c.16-.15.48-.54.56-.85Zm-5.03-2-.35-1.86 1.07-.52 1.34 1.23.4 1.74-1 .66-1.46-1.25Zm.1 10.12v-3.14L36.8 25l1.61 1.6v2.87L36.81 31 35 29.6Zm4.84-6.6.26 1.79.6 1 .15-.68-.3-1.8-.4-.84-.31.54Zm.25 8.25-.23 1.8.3.52.39-1 .3-1.66-.18-.66-.58 1Zm-5.22 5.27-.32 1.9 1.07.5 1.35-1.22.4-1.73-.98-.67-1.52 1.22Zm-7.59-1.94.12-2.37 1.98-1.2 1.86 1.12-.14 2.23-1.95 1.2-1.87-.98Zm.12-10.78-.12-2.36 1.87-.99 1.95 1.2.14 2.24-1.86 1.1-1.98-1.19Zm11.46-3.5c-.21-.57-.8-1.65-1.07-2.13l-.09-1.3a8.04 8.04 0 0 1 2.03 4l-.87-.57Zm-.55-1.85-.06-.66c.12.14.42.52.66.94.24.42.37.97.4 1.2l-.44-.4-.56-1.08Zm-.52 19.45c.27-.47.86-1.56 1.07-2.13l.87-.57a8.04 8.04 0 0 1-2.03 4l.1-1.3Zm.46.39.06-.66.56-1.1.44-.38c-.03.22-.16.77-.4 1.2-.24.41-.54.8-.66.94Zm-4.61 5.53 1.45-1.22.81-1.41-.86-.2-1.7 1.34-.62 1.49c.15.02.54.05.92 0Zm-.05-.65.41.04.73-.63.4-.67-.4-.07-.82.62-.32.71Zm-5.78-3.05 1.67-2.46 2.67-.3.88 2-1.61 2.26-1.94.37-1.1 1.38.5.86-1.36 1.45-2.03.33-.86-1.13 1.3-1.6 1.6-.17 1.1-1.49-.82-1.5Zm-1.36 3.93-.59.68.38.5.92-.14.57-.64-.35-.51-.93.11Zm3.5-5.38-.86 1.3.59 1.09 1.34-.23.93-1.27-.52-1.07-1.49.18Zm-14.6-13.08L14 28.06l1.34 2.46h2.7l1-1.77h2.16L22.52 31h3.26l1.62-2.94L25.78 25h-3.26l-1.32 2.33h-2.17l-1-1.75h-2.69ZM22.41 28l.93-1.51h1.74l.87 1.51-.87 1.53h-1.74L22.42 28Zm-6.92 0 .62-1.01h1.16l.59 1.01-.59 1.03h-1.16L15.5 28Zm4.5-8.19v-2.64L22.39 16l2.41 1.28.14 2.53-2.47 1.34L20 19.8Zm1.28-.71v-1.27l1.15-.56 1.16.61.06 1.22-1.18.64-1.19-.64ZM20 38.78v-2.64l2.47-1.34 2.47 1.34-.14 2.53-2.41 1.28L20 38.78Zm1.28-.66v-1.27l1.19-.64 1.18.64-.06 1.22-1.16.61-1.15-.56Z" fill="url(#aznxeqp1v)"/><defs><linearGradient id="aznxeqp1v" x1="15.26" y1="28" x2="41" y2="28" gradientUnits="userSpaceOnUse"><stop offset=".23" stop-color="#1C2EFA"/><stop offset=".57" stop-color="#FF1264"/><stop offset="1" stop-color="#FF6406"/></linearGradient></defs></svg>