<!-- by TradingView --><svg xmlns="http://www.w3.org/2000/svg" width="56" height="56" viewBox="0 0 56 56"><path fill="url(#awhyf32d3)" d="M0 0h56v56H0z"/><path d="m28.5 25-.74 1.5H10c.05-.48.1-1.03.2-1.5h18.3Zm1-2 1-2H11.23a16.2 16.2 0 0 0-.73 2h19Z" fill="url(#bwhyf32d3)"/><path d="M13.53 31c.11.67.28 1.36.48 2H24.5l1-2H13.53Z" fill="url(#cwhyf32d3)"/><path d="M13.1 29.5c-.03-.4-.1-1.1-.1-1.5h14l-.77 1.5H13.1Z" fill="url(#dwhyf32d3)"/><path d="M15 35c2.4 5.3 8 9 14.5 9s12.1-3.7 14.5-9H15Z" fill="#183962"/><path d="M25.5 12A16.2 16.2 0 0 1 39 19H12c2.83-4.2 7.82-7 13.5-7Z" fill="#F37739"/><path d="M32.13 21 26.4 33h4.33l4.77-10h1.73c.34 0 .56.33.41.66L33.19 33h4.3l4.78-10h1.7c.34 0 .56.32.41.66L39.84 33h4.36l4.6-9.6s.2-.5.2-.84c0-.9-.58-1.56-1.6-1.56h-5.9a.43.43 0 0 0-.24.08l-.72.48-.5-.45a.43.43 0 0 0-.3-.11h-7.61Z" fill="#fff"/><defs><linearGradient id="awhyf32d3" x1="10.42" y1="9.71" x2="68.15" y2="76.02" gradientUnits="userSpaceOnUse"><stop stop-color="#1A1E21"/><stop offset="1" stop-color="#06060A"/></linearGradient><linearGradient id="bwhyf32d3" x1="9.75" y1="27.43" x2="34.56" y2="24.09" gradientUnits="userSpaceOnUse"><stop offset=".17" stop-color="#F37739"/><stop offset=".46" stop-color="#F9DF2A"/><stop offset=".62" stop-color="#FACE2C"/><stop offset=".9" stop-color="#FF9934"/></linearGradient><linearGradient id="cwhyf32d3" x1="12.38" y1="33.75" x2="28.75" y2="30.74" gradientUnits="userSpaceOnUse"><stop offset=".12" stop-color="#194D86"/><stop offset=".43" stop-color="#159B9A"/><stop offset=".6" stop-color="#6CC7F3"/></linearGradient><linearGradient id="dwhyf32d3" x1="12.38" y1="33.75" x2="28.75" y2="30.74" gradientUnits="userSpaceOnUse"><stop offset=".12" stop-color="#194D86"/><stop offset=".43" stop-color="#159B9A"/><stop offset=".6" stop-color="#6CC7F3"/></linearGradient></defs></svg>