<!-- by TradingView --><svg width="56" height="56" viewBox="0 0 56 56" xmlns="http://www.w3.org/2000/svg"><path fill="#00477D" d="M0 0h56v56H0z"/><path d="M18.59 21.45c2.4-6.76 8.01-8.53 14.84-8.2-3.67-2.06-9.16-1.5-12.44 1.14a13.33 13.33 0 0 0-4.5 6.62c-.77 2.6-.7 5.35.2 7.9.96 2.71 4.02 5.58 5.9 5.65-3.7-3.67-5.85-7.92-4-13.1Zm.7 5.67c-.58-4.16.63-7.68 4.26-10.08 4.67-3.14 9.72-3.34 14.71-.92 3.82 1.83 5.5 5.12 5.74 9.16-1.97-6.24-6.85-8.63-13.03-8.34-6.43.31-10.73 3.58-11.67 10.18Zm20.24-2.21c2.74 4.23 3.85 10.47-1.76 15.5 2.84-1.22 6.61-6.23 6.2-11.46a11.89 11.89 0 0 0-2.84-6.44 12.72 12.72 0 0 0-6.07-3.88 12 12 0 0 0-10.73 1.66c2.77-.91 5.5-1.46 8.44-.56 2.84.88 5.24 2.72 6.76 5.18Zm-2.7 10.67c-2.92 5.64-7.56 8.15-14.18 7.2 3.05 1.3 6.16 1.7 9.25.52 7.13-2.69 10.51-11.79 6.76-18.19a7.84 7.84 0 0 0-2.26-2.5c-.94-.67-2.01-1.13-3.15-1.37a11.08 11.08 0 0 1 4.5 6.48 10.9 10.9 0 0 1-.92 7.86Zm-.2-6.21c.61 5.1-1.85 8.91-6.76 10.88-2.6.97-5.42 1.2-8.15.64a14.46 14.46 0 0 1-7.17-3.74c-1.94-1.96-3-5.32-2.36-7.53 1.3 6.71 6.14 9.22 12.4 9.2 6.25-.01 10.73-2.81 12.04-9.45Zm-22.1-5.92c.41-2.77 1.63-5.37 3.52-7.5-1.86 1-3.38 2.5-4.37 4.31-1 1.81-1.42 3.86-1.22 5.9a12.32 12.32 0 0 0 8.18 11.15c3.66 1.33 8.68.44 10.84-1.55-.56.1-1.12.2-1.68.32-2.18.44-4.35.88-6.63.14a11.81 11.81 0 0 1-8.63-12.77Z" fill="#FCB817"/></svg>