<!-- by TradingView --><svg width="56" height="56" viewBox="0 0 56 56" xmlns="http://www.w3.org/2000/svg"><path fill="#F0F3FA" d="M0 0h56v56H0z"/><path d="m7.3 20-1.54 7h.84l1.12-5.01L7.3 27h.9l1.79-5.01L8.89 27h.95l1.54-7H9.93L8.3 24.81 8.75 20H7.3Z"/><path fill-rule="evenodd" d="m13.32 27 .62-7h-1.3l-2.4 7h.9l.33-1h1l-.1 1h.95Zm-.75-2 .35-3.42L11.8 25h.77ZM13.5 35l.62-7h-1.3l-2.4 7h.9l.32-1h1l-.1 1h.96Zm-.75-2 .35-3.42L11.97 33h.78ZM34.7 27l.61-7h-1.29l-2.4 7h.89l.33-1h1l-.1 1h.95Zm-.76-2 .35-3.42L33.17 25h.77Z"/><path d="m17.56 20.95-.31 1.53h-.95l.27-1.16c.06-.25-.11-.49-.34-.49h-.09c-.16 0-.3.13-.34.3l-.27 1.23 1.15 1.2c.18.2.26.48.2.76L16.52 26c-.13.59-.6 1-1.14 1h-.95c-.45 0-.79-.47-.69-.95l.37-1.78h.95l-.3 1.34c-.05.24.12.48.35.48h.14c.16 0 .3-.13.34-.3l.28-1.39-1.1-1.12a.98.98 0 0 1-.23-.92l.4-1.6c.11-.45.48-.76.9-.76h1.04c.45 0 .78.46.68.95ZM42.23 28.95l-.31 1.53h-.95l.27-1.16c.05-.25-.11-.49-.34-.49h-.1c-.16 0-.3.13-.33.3l-.28 1.23 1.15 1.2c.18.2.26.48.2.75l-.36 1.7c-.12.58-.6.99-1.13.99h-.96c-.45 0-.78-.47-.68-.95l.37-1.78h.94l-.29 1.34c-.05.24.12.48.34.48h.14c.17 0 .3-.13.34-.3l.28-1.39-1.1-1.12a.98.98 0 0 1-.23-.92l.4-1.6c.12-.45.48-.76.9-.76h1.05c.45 0 .78.46.68.95ZM20.72 20h-2.68l-.21 1h.87l-1.36 6h1l1.3-6h.85l.23-1ZM41.78 20h-2.69l-.21 1h.87l-1.36 6h1l1.3-6h.85l.24-1ZM17.58 28H14.9l-.2 1h.87l-1.37 6h1l1.3-6h.86l.23-1ZM21.1 20h2.15l-.22 1h-1.2l-.44 2h1.15l-.23 1h-1.13l-.45 2h1.21l-.22 1h-2.14l1.53-7ZM36.54 20h2.14l-.22 1h-1.2l-.42 2h1.15l-.23 1h-1.13l-.66 3h-.95l1.52-7Z"/><path fill-rule="evenodd" d="m22.09 27 1.54-7h1.82c.3 0 .85.26.66 1.22l-.36 1.7c-.09.22-.35.68-.7.77.16.04.45.31.32 1.07l-.5 2.24h-1l.61-2.68c.04-.16-.07-.32-.22-.32h-.52l-.7 3h-.95Zm1.86-4 .46-2h.5c.16 0 .27.15.23.31l-.33 1.5a.24.24 0 0 1-.22.19h-.64ZM28.63 27l1.54-7h1.82c.3 0 .85.26.66 1.22l-.37 1.7c-.09.22-.35.68-.7.77.16.04.45.31.32 1.07L31.4 27h-.99l.6-2.68c.05-.16-.07-.32-.22-.32h-.51l-.7 3h-.95Zm1.86-4 .45-2h.5c.16 0 .27.15.24.31l-.33 1.5a.24.24 0 0 1-.23.19h-.63Z"/><path d="M29.38 20.94 29 22.67h-.96l.31-1.34c.06-.24-.1-.47-.33-.47h-.16c-.16 0-.3.12-.34.29l-1 4.42c-.05.24.11.48.34.48h.2c.15 0 .3-.13.33-.3l.36-1.75h.97l-.43 1.94A1.31 1.31 0 0 1 27.05 27h-.77c-.52 0-.91-.54-.79-1.1l1.08-4.83c.14-.63.66-1.07 1.25-1.07h.88c.45 0 .78.46.68.94Z"/><path d="m51.61 28.93-.36 1.74h-.96l.31-1.34c.06-.24-.11-.48-.34-.48h-.16c-.16 0-.3.12-.34.3l-1 4.42c-.05.24.12.48.35.48h.19c.16 0 .3-.13.34-.3L50 32h.97l-.44 1.94A1.31 1.31 0 0 1 49.3 35h-.77c-.53 0-.92-.54-.8-1.1l1.09-4.83c.14-.63.65-1.07 1.24-1.07h.88c.45 0 .79.46.68.93Z" fill="#8F8B88"/><path d="m39.08 28.93-.37 1.74h-.96l.31-1.34c.06-.24-.1-.48-.34-.48h-.15c-.17 0-.3.12-.34.3l-1 4.42c-.05.24.11.48.34.48h.2c.15 0 .3-.13.33-.3l.41-1.75h-.47l.25-1h1.42l-.22.99-.5 1.95A1.31 1.31 0 0 1 36.76 35h-.77c-.53 0-.92-.54-.79-1.1l1.08-4.83c.14-.63.66-1.07 1.25-1.07h.88c.44 0 .78.46.68.93ZM25.04 28.93l-1.02.4c.06-.24-.1-.48-.34-.48h-.15c-.17 0-.3.12-.34.3l-1 4.42c-.05.24.11.48.34.48h.2c.15 0 .3-.13.33-.3l.96-4.42 1.02-.4-1.08 5.01A1.31 1.31 0 0 1 22.7 35h-.77c-.53 0-.91-.54-.79-1.1l1.08-4.83c.14-.63.66-1.07 1.25-1.07h.88c.45 0 .78.46.68.93ZM11.36 28.93l-1.01.4c.05-.24-.11-.48-.34-.48h-.16c-.16 0-.3.12-.34.3l-1 4.42c-.05.24.12.48.34.48h.2c.16 0 .3-.13.33-.3l.97-4.42 1.01-.4-1.08 5.01A1.31 1.31 0 0 1 9.03 35h-.76c-.53 0-.92-.54-.8-1.1l1.08-4.83C8.7 28.44 9.21 28 9.8 28h.88c.45 0 .78.46.68.93Z"/><path fill-rule="evenodd" d="M7.3 28H5.55L4 35h1.87c.72-.08 1.04-.77 1.1-1.04l.35-1.55c.13-.59-.17-.88-.34-.95.31-.1.53-.44.6-.6l.4-1.9c.1-.49-.23-.96-.68-.96Zm-1.46 3 .44-2h.53c.15 0 .26.16.22.33l-.35 1.39c-.04.16-.18.28-.33.28h-.51Zm-.23 1-.47 2h.51c.16 0 .3-.1.34-.26l.37-1.44a.24.24 0 0 0-.22-.3H5.6Z"/><path d="M19.05 28h1l-.64 3h.92l.64-3h1l-1.5 7h-.99l.64-3h-.93l-.64 3h-.99l1.5-7ZM26.76 28h-1l-1.48 7h2.04l.22-1h-1.06l1.28-6ZM31.56 28h.99l-1.5 7h-.98l1.49-7Z"/><path d="M44.1 28h.98l-1.49 7h-.99l1.5-7ZM51.01 34H52l-.3 1h-.99l.3-1Z" fill="#8F8B88"/><path fill-rule="evenodd" d="M28.25 28h1.64c.61 0 1.06.63.9 1.28l-1 4.46c-.17.74-.78 1.26-1.47 1.26H26.7l1.54-7Zm.77 1h.45c.23 0 .4.23.34.47l-.93 4.05a.6.6 0 0 1-.56.48h-.47l1.17-5Z"/><path d="m33.09 28-1.55 7h.88l.98-4.6V35h1.03l1.53-7h-.9l-.86 4.13V28H33.1Z"/><path d="m45.71 28-1.54 7h.87l.98-4.6V35h1.03l1.54-7h-.9l-.86 4.13V28h-1.12Z" fill="#8F8B88"/></svg>