<!-- by TradingView --><svg xmlns="http://www.w3.org/2000/svg" width="56" height="56"><path fill="#F0F3FA" d="M0 0h56v56H0z"/><ellipse cx="25.18" cy="16.01" rx="2.03" ry="1.98" fill="#E872A0"/><ellipse cx="32.38" cy="28.92" rx="1.37" ry="1.34" fill="#00A1ED"/><ellipse cx="23.46" cy="29.13" rx="1.37" ry="1.34" fill="#641B6C"/><ellipse cx="26.57" cy="17.99" rx="1.37" ry="1.34" fill="#00A1ED"/><ellipse cx="21.02" cy="14.68" rx="1.37" ry="1.34" fill="#1C793B"/><ellipse cx="20.38" cy="16.25" rx="1.37" ry="1.34" fill="#00A1ED"/><ellipse cx="30.29" cy="33.28" rx="1.37" ry="1.34" fill="#65C9F0"/><ellipse cx="34.52" cy="37.52" rx="1.37" ry="1.34" fill="#00A1ED"/><ellipse cx="37.21" cy="41.09" rx="1.37" ry="1.34" fill="#641B6C"/><path d="M17.81 16.96c0-.57-.44-.86-1.3-.86-.88 0-1.31.29-1.31.86v5.66c0 .58.43.87 1.3.87.87 0 1.3-.3 1.3-.87l.01-5.66z" fill="#00A1ED"/><ellipse cx="15.2" cy="22.94" rx="1.37" ry="1.34" fill="#1C793B"/><path d="M17.9 24.74c0-.59-.43-.88-1.3-.88-.88 0-1.31.3-1.31.88v4.19l2.4 2.22a.77.77 0 00.21-.57v-5.84zm24.17 12.37l-4.23 3.9c.93.36 2.4-.8 3.16-1.66.76-.85 1.07-2.24 1.07-2.24z" fill="#8CBA29"/><path d="M29.4 20.51c.54-.5.5-1.03-.1-1.6-.62-.57-1.2-.6-1.75-.1l-2.98 2.62c-.55.5-.51 1.04.1 1.6.62.57 1.2.6 1.75.1l2.98-2.62zm-7.67.55c.55-.5.51-1.04-.1-1.61-.62-.57-1.2-.6-1.74-.1l-5.4 4.97c-.54.5-.5 1.04.1 1.61.62.57 1.2.6 1.75.1l5.4-4.97z" fill="#00A1ED"/><path d="M38.35 27.76c.21-.3.41-.63.58-.96a.69.69 0 00-.17-.92.92.92 0 00-1.23 0 .82.82 0 00-.16.2l-.25.45-.26-.46a7.7 7.7 0 00-.58-.96 1.4 1.4 0 00-1.23-.69 1.45 1.45 0 00-1.23.7c-.22.3-.42.62-.59.96l-.25.44-.25-.45a7.57 7.57 0 00-.59-.96 1.4 1.4 0 00-1.23-.7 1.45 1.45 0 00-1.23.7c-.21.31-.4.63-.58.96a.75.75 0 00.16.93.93.93 0 001.23 0c.17-.2.31-.42.42-.66l.25.45c.17.34.37.66.59.97a1.4 1.4 0 001.23.7 1.45 1.45 0 001.23-.7c.22-.31.41-.63.59-.97l.25-.45.25.45c.17.34.37.66.58.97a1.4 1.4 0 001.23.7 1.45 1.45 0 001.23-.7z" fill="#DD2585"/><path d="M36.58 35.42c.22-.31.41-.63.59-.97a.69.69 0 00-.17-.92.92.92 0 00-1.24 0 .82.82 0 00-.16.2l-.25.45-.25-.45a7.7 7.7 0 00-.59-.96 1.4 1.4 0 00-1.23-.7 1.45 1.45 0 00-1.23.7c-.22.3-.42.63-.59.96-.08.16-.16.31-.25.45l-.25-.45a7.58 7.58 0 00-.58-.96 1.4 1.4 0 00-1.23-.7 1.45 1.45 0 00-1.24.7c-.2.3-.4.63-.57.96a.75.75 0 00.15.93.93.93 0 001.24 0c.17-.2.3-.43.41-.66l.26.45c.17.33.36.66.58.96a1.4 1.4 0 001.23.7 1.45 1.45 0 001.23-.7c.22-.3.42-.63.59-.96l.25-.45.25.45c.17.33.37.65.59.96a1.4 1.4 0 001.23.7 1.45 1.45 0 001.23-.7z" fill="#65C9F0"/><path d="M24.7 24.23c.22-.3.41-.63.58-.96a.69.69 0 00-.17-.92.92.92 0 00-1.23 0 .82.82 0 00-.16.2l-.25.45-.25-.46a7.7 7.7 0 00-.59-.96 1.4 1.4 0 00-1.23-.7 1.45 1.45 0 00-1.23.7c-.22.3-.42.63-.59.96l-.25.45-.25-.45a7.58 7.58 0 00-.58-.96 1.4 1.4 0 00-1.24-.7 1.45 1.45 0 00-1.23.7c-.2.3-.4.63-.58.96a.75.75 0 00.16.93.93.93 0 001.24 0c.16-.2.3-.42.41-.66l.25.45c.18.34.37.66.59.96a1.4 1.4 0 001.23.7 1.45 1.45 0 001.23-.7c.22-.3.42-.62.59-.96l.25-.45.25.45c.17.34.37.66.59.96a1.4 1.4 0 001.23.7 1.45 1.45 0 001.23-.7z" fill="#DD2585"/><ellipse cx="33.81" cy="31.31" rx="1.37" ry="1.34" fill="#8CBA29"/><path d="M30.5 28.89c.3-.06.6-.14.9-.23.13-.03.25-.1.33-.22.08-.1.12-.24.12-.37a.63.63 0 00-.2-.45.66.66 0 00-.48-.17.76.76 0 00-.2.03l-.4.12.12-.37c.1-.27.2-.54.25-.82.1-.36 0-.74-.26-1a1.23 1.23 0 00-1.08-.24c-.3.06-.6.13-.89.23l-.4.12.13-.37c.1-.27.19-.54.25-.82a1.01 1.01 0 00-.26-1 1.24 1.24 0 00-1.08-.24c-.3.06-.6.14-.89.23a.64.64 0 00-.33.22.62.62 0 00-.13.37c0 .17.08.33.2.45.13.11.3.17.47.17.21-.02.42-.07.62-.15l-.13.37c-.1.27-.19.54-.25.82-.1.36 0 .74.26 1a1.23 1.23 0 001.08.24c.3-.06.6-.13.9-.23l.4-.12-.14.37c-.1.27-.18.54-.24.82a1.01 1.01 0 00.25 1 1.24 1.24 0 001.08.24z" fill="#E872A0"/><ellipse cx="39.82" cy="38.42" rx="1.37" ry="1.34" fill="#65C9F0"/><path d="M32.27 39.87c.3-.05.6-.13.89-.22.13-.03.25-.11.33-.22.09-.1.13-.24.12-.37a.63.63 0 00-.2-.45.66.66 0 00-.47-.17.76.76 0 00-.21.03l-.4.11.13-.37c.1-.26.18-.54.25-.82.1-.35 0-.73-.27-1a1.23 1.23 0 00-1.08-.23c-.3.05-.6.13-.88.23l-.4.12.12-.38c.1-.26.19-.54.25-.82a1.01 1.01 0 00-.26-1 1.24 1.24 0 00-1.08-.23c-.3.06-.6.14-.89.23a.64.64 0 00-.33.22.62.62 0 00-.13.37c0 .17.08.33.2.44.13.12.3.18.47.18.21-.03.42-.08.62-.15l-.13.37c-.1.27-.19.54-.25.82-.1.35 0 .73.26 1a1.23 1.23 0 001.08.24c.3-.06.6-.14.9-.23.13-.05.27-.09.4-.12l-.13.37c-.1.26-.19.54-.25.82a1.01 1.01 0 00.26 1 1.24 1.24 0 001.08.23zm-10.04-5.58c.3-.06.6-.14.9-.23.13-.03.25-.1.33-.22.08-.1.12-.24.11-.37a.63.63 0 00-.2-.45.66.66 0 00-.47-.17.76.76 0 00-.2.03l-.4.12.12-.38c.1-.26.19-.53.25-.81.1-.36 0-.74-.26-1a1.23 1.23 0 00-1.08-.24c-.3.06-.6.13-.89.23a8.2 8.2 0 01-.4.12l.13-.37c.1-.27.19-.54.25-.82a1.01 1.01 0 00-.26-1 1.24 1.24 0 00-1.08-.24c-.3.06-.6.14-.9.23a.64.64 0 00-.32.22.62.62 0 00-.13.37c0 .17.08.33.2.45.13.11.3.17.47.17.2-.02.42-.07.62-.15l-.13.37c-.1.27-.2.54-.25.82-.1.36 0 .73.26 1a1.23 1.23 0 001.08.24c.3-.06.6-.13.89-.23l.4-.12-.13.37c-.1.27-.19.54-.25.82a1.01 1.01 0 00.26 1 1.24 1.24 0 001.08.24zm19.64-5.19l-1.55-2.29-.3.1a.64.64 0 00-.33.21.62.62 0 00-.13.37c0 .17.08.33.2.44.13.12.3.18.47.18.2-.03.41-.08.61-.15l-.12.37c-.1.27-.2.54-.25.82-.1.35 0 .73.26 1l1.14-1.06z" fill="#E872A0"/><ellipse cx="18.81" cy="24.92" rx="2.03" ry="1.98" fill="#8CBA29"/><path d="M22.11 22.65c.3-.05.6-.13.9-.23a.558.558 0 00.44-.59.63.63 0 00-.2-.44.66.66 0 00-.47-.18.76.76 0 00-.2.04l-.4.11.12-.37c.1-.27.2-.54.25-.82.1-.35 0-.73-.26-1a1.23 1.23 0 00-1.08-.23c-.3.05-.6.13-.89.22a8.1 8.1 0 01-.4.12l.13-.37c.1-.27.19-.54.25-.82a1.01 1.01 0 00-.26-1 1.24 1.24 0 00-1.08-.23c-.3.06-.6.14-.89.23a.64.64 0 00-.33.22.62.62 0 00-.13.37c0 .17.08.32.2.44.13.12.3.18.47.18.21-.03.42-.08.62-.15l-.13.37c-.1.27-.19.54-.25.82-.1.35 0 .73.26 1a1.23 1.23 0 001.08.23c.3-.05.6-.13.89-.22.14-.05.27-.1.4-.12l-.13.37c-.1.26-.18.54-.25.82a1.01 1.01 0 00.26 1 1.24 1.24 0 001.08.23z" fill="#DD2585"/><path d="M26.07 20.35c0-.68-.44-1.02-1.3-1.02-.88 0-1.32.34-1.31 1.02v6.7c0 .68.43 1.02 1.3 1.02.87 0 1.3-.34 1.3-1.02v-6.7z" fill="#8CBA29"/><ellipse cx="18.59" cy="25.29" rx="1.37" ry="1.34" fill="#00A1ED"/><ellipse cx="23.46" cy="24.92" rx="2.03" ry="1.98" fill="#65C9F0"/><ellipse cx="20.38" cy="19.37" rx="1.37" ry="1.34" fill="#8CBA29"/><ellipse cx="25.26" cy="20.03" rx="1.37" ry="1.34" fill="#1C793B"/><path d="M13.51 24c.3.06.6-.05.92-.34.5-.46.52-.89.09-1.29l-1.14-1.09.13 2.72z" fill="#DD2585"/><path d="M30.3 26.98c.55-.5.51-1.04-.1-1.6-.62-.58-1.2-.61-1.74-.1l-5.4 4.96c-.54.5-.5 1.04.1 1.61.62.57 1.2.6 1.75.1l5.4-4.97z" fill="#00568A"/><ellipse cx="22.09" cy="30.46" rx="1.37" ry="1.34" fill="#8CBA29"/><path d="M26.57 28.85c0-.7-.44-1.06-1.3-1.06-.88 0-1.31.35-1.31 1.06v7.03c0 .71.43 1.07 1.3 1.07.87 0 1.3-.36 1.3-1.07v-7.03z" fill="#DD2585"/><ellipse cx="28.66" cy="21.98" rx="2.03" ry="1.98" fill="#8CBA29"/><ellipse cx="27.21" cy="31.1" rx="2.03" ry="1.98" fill="#DD2585"/><path d="M20.21 15.54c-.44-.4-.9-.37-1.4.08-.48.45-.51.88-.08 1.28l4.31 3.98c.44.4.9.37 1.4-.08.49-.46.51-.88.08-1.28l-4.31-3.98z" fill="#DD2585"/><path d="M42.55 31.75c0-1.2-.81-2.65-.81-2.65l-4.92 4.52c-.54.5-.5 1.04.1 1.6.62.57 1.2.6 1.75.1l3.88-3.57z" fill="#00568A"/><path d="M38.08 24.46c-.54.1-.8.36-.8.82v5.66c0 .57.43.86 1.3.86.87 0 1.3-.29 1.3-.86V26.3l-1.8-1.84z" fill="#8CBA29"/><ellipse cx="37.21" cy="28.6" rx="2.03" ry="1.98" fill="#65C9F0"/><path d="M38.37 29.99c0-.71-.43-1.07-1.3-1.07-.87 0-1.31.36-1.3 1.07v7.03c0 .7.43 1.07 1.3 1.07.87 0 1.3-.36 1.3-1.07v-7.03zm4.35 4.07c0 .33-.02 1.15-.16 1.43a2.08 2.08 0 01-1.85 1.1c-1.14 0-2.07-.9-2.07-2.01 0-1.12.93-2.03 2.07-2.03.97 0 1.78.65 2 1.51z" fill="#DD2585"/><path d="M32 38.17c.54-.5.5-1.04-.11-1.61-.62-.57-1.2-.6-1.74-.1l-1.72 1.38c-.54.5-.5 1.04.1 1.6.62.57 1.2.6 1.75.1L32 38.17z" fill="#8CBA29"/><path d="M16.94 18.63a2 2 0 01-2.03 1.98c-.61 0-1.16-.26-1.53-.68l1.53-3.27a2 2 0 012.03 1.97zM41.3 38.68h-.02a1.23 1.23 0 01-.5-.25 1.02 1.02 0 01-.25-1c.06-.27.14-.55.25-.81l.12-.37c-.2.07-.4.12-.61.15a.67.67 0 01-.47-.18.64.64 0 01-.2-.44c0-.14.05-.27.13-.37.08-.1.2-.18.33-.22.29-.1.59-.17.88-.23a1.25 1.25 0 011.09.24 1.03 1.03 0 01.26 1c-.07.27-.15.54-.25.8l-.13.38s-.7 1.22-.65 1.3h.02z" fill="#E872A0"/><path opacity=".4" d="M12.96 21.38c1.5-2.11 4.3-7.14 12.02.73 8.82 9 16.48 1.18 16.48 1.18L27.14 11.38s-6.56.73-9.96 2.9c-3 1.92-4.22 7.1-4.22 7.1z" fill="#1A1818"/><path d="M23.33 15.88c-4.4-2.82-7.7-.16-8.52.96 2.52-3.9 7.85-6.84 13.64-6.84 7.16 0 13.25 4.18 15.21 9.95 1.86 5.45-4.25 6.6-10.83 3.63-3.38-1.52-5.35-5.04-9.5-7.7z" fill="url(#auxj552ig)"/><path d="M32.67 40.12c4.39 2.82 7.7.17 8.52-.96C39.23 42.8 33.34 46 27.55 46c-7.16 0-13.25-4.17-15.21-9.95-1.86-5.44 4.25-6.59 10.83-3.63 3.38 1.52 5.35 5.04 9.5 7.7z" fill="#0072BB"/><defs><linearGradient id="auxj552ig" x1="14.81" y1="17.59" x2="44.01" y2="17.59" gradientUnits="userSpaceOnUse"><stop stop-color="#0072BB"/><stop offset="1" stop-color="#002B7F"/></linearGradient></defs></svg>