<!-- by TradingView --><svg width="56" height="56" fill="none" xmlns="http://www.w3.org/2000/svg"><path fill="#F0F3FA" d="M0 0h56v56H0z"/><path fill-rule="evenodd" clip-rule="evenodd" d="M21 25h1.08l1.497 3.956 1.4-3.956H26v6h-1v-4.856L23.279 31l-1.86-4.91V31H21v-6zm7.492 1c1.282 0 2.196 1.104 2.196 2.5s-.914 2.5-2.196 2.5c-1.276 0-2.202-1.104-2.202-2.5s.925-2.5 2.202-2.5zm0 4.693c.964 0 1.415-1.271 1.415-2.193 0-.92-.45-2.193-1.415-2.193-.965 0-1.416 1.272-1.416 2.194 0 .92.45 2.192 1.416 2.192zM31 26v5h.378v-3.99h.014L34.257 31h.393v-5h-.379v3.44h-.014L31.792 26H31zm7.719 5h-.857l-.472-1.27h-1.528L35.417 31h-.39l1.808-5h.013l1.87 5zm-2.097-3.37l-.644 1.787h1.295l-.65-1.787zM39 26v5h.783v-4.754h.425c.764 0 .989.563.989 1.119 0 .748-.45 1.072-1.144 1.072h-.051L41.139 31H42l-1.105-2.338c.624-.093 1.086-.424 1.086-1.188 0-.803-.424-1.474-1.182-1.474H39zm6.954 1.169c-.313-.446-.774-.778-1.346-.778-1.054 0-1.608.953-1.608 2.167 0 1.03.614 2.036 1.608 2.036.64 0 1.186-.384 1.433-1.005l.287.154c-.394.892-1.054 1.257-1.88 1.257-1.219 0-2.198-1.118-2.198-2.442 0-1.513 1.013-2.558 2.279-2.558.68 0 1.293.395 1.666.98l-.24.189zM46.578 26v4.999h.818v-2.407h1.785V31H50v-5h-.819v2.2h-1.785V26h-.818z" fill="#0B214F"/><path fill-rule="evenodd" clip-rule="evenodd" d="M7 22h11.998S18 22.841 18 23.857c0 .508.25.906.5 1.303.25.396.5.791.5 1.297 0 .465-.246.748-.494 1.034-.24.278-.483.558-.506 1.009-.024.46.234.77.494 1.081.252.302.506.607.506 1.055 0 .47-.25.838-.499 1.206-.25.369-.501.739-.501 1.214 0 .95.998 1.944.998 1.944H7s-1-.986-1-1.944c0-.492.252-.848.502-1.203.254-.36.507-.72.498-1.217-.009-.477-.256-.77-.502-1.063-.249-.296-.497-.591-.497-1.073 0-.67.288-.998.555-1.3.23-.262.444-.505.444-.934 0-.494-.25-.838-.5-1.181-.26-.355-.517-.709-.5-1.228C6.036 22.9 7 22 7 22zm6.242 3.538s-1.552.949-1.768.678c-.215-.271 1.466-1.265 1.466-1.265S11 24.658 11 24.184c0-.29 1.94 0 1.94 0s-1.25-1.332-.862-1.536c.26-.136 1.552 1.265 1.552 1.265s0-1.49.517-1.49c.302 0 .518 1.49.518 1.49.114-.11.25-.272.387-.437.314-.374.642-.765.777-.624.18.189-.386.971-.604 1.273l-.043.059S17 23.935 17 24.297c0 .36-2.077.654-2.077.654s1.833 1.107 1.66 1.265c-.146.134-1.527-.546-1.856-.754.11.173.273.696.273 1.202 0 .29-.028.568-.077.758l-.64-.473c-.142.193-.3.492-.434.813-.151.365-.248.704-.261.89.008.349.161.575.366.87l.007.01c.204.293.455.654.455 1.201 0 .551-.246.913-.45 1.21-.204.299-.362.531-.378.891-.02.442.161.996.371 1.467a7.529 7.529 0 00.357.699h-.68a8.02 8.02 0 01-.224-.462c-.216-.485-.412-1.136-.412-1.73 0-.509.236-.853.429-1.133l.024-.035.019-.027c.2-.294.347-.524.347-.88 0-.353-.15-.58-.357-.877l-.012-.018c-.202-.289-.442-.645-.45-1.186-.004-.25.225-.942.296-1.114l.05-.116h-.02c-.253 0-.213-1.086-.084-1.884z" fill="#0A266C"/><path fill-rule="evenodd" clip-rule="evenodd" d="M8.43 24.942l-.007-.01c-.251-.333-.428-.569-.423-.918.011-.718.514-1.455.933-2.014h-.902c-.064.102-.15.24-.221.366-.247.44-.534 1.062-.543 1.637-.01.62.307 1.04.548 1.36l.017.021c.254.338.42.575.415.928-.005.337-.17.56-.423.885l-.01.013c-.24.307-.557.713-.547 1.325.01.585.325.97.559 1.257l.02.025c.249.306.401.51.401.824 0 .318-.149.525-.39.827l-.027.033c-.228.285-.531.663-.562 1.233-.034.625.254 1.316.51 1.807.03.057.059.117.088.176.05.104.1.205.147.283H8.9l-.126-.227a7.203 7.203 0 01-.333-.57c-.248-.478-.463-1.016-.441-1.43.017-.314.184-.523.419-.816l.023-.03.006-.006.008-.011c.235-.294.544-.68.544-1.269 0-.585-.315-.972-.55-1.26l-.009-.011-.014-.018-.01-.011c-.245-.302-.412-.507-.417-.819-.006-.332.165-.553.415-.873l.022-.029.01-.012c.234-.3.544-.697.553-1.285.01-.613-.305-1.03-.545-1.348a4.704 4.704 0 01-.009-.012l-.016-.021zm1.313-.896c.006-.379.21-.863.448-1.29.143-.253.296-.522.47-.756h-.9c-.043.067-.095.163-.145.256l-.077.141c-.247.442-.534 1.063-.543 1.637-.01.62.307 1.04.548 1.36l.016.022.032.042c.239.316.413.548.408.886-.005.319-.175.535-.407.832l-.04.053-.011.013c-.24.307-.556.713-.546 1.324.01.585.325.971.559 1.258l.02.025.026.032c.235.288.399.49.399.792 0 .309-.164.514-.395.803l-.02.024-.026.033c-.228.285-.531.663-.562 1.233-.034.625.254 1.316.51 1.807.08.155.162.304.235.427h.887l-.126-.195a7.21 7.21 0 01-.333-.571c-.248-.477-.45-1.015-.428-1.429.018-.325.182-.536.429-.845l.006-.008c.235-.294.546-.683.546-1.28 0-.592-.317-.98-.553-1.27l-.014-.018c-.25-.308-.408-.514-.413-.83-.006-.332.15-.553.4-.873l.023-.03c.236-.3.547-.7.557-1.296.01-.62-.307-1.04-.548-1.36l-.016-.022c-.255-.338-.422-.575-.416-.927z" fill="#2E9CCF"/></svg>