<!-- by TradingView --><svg width="56" height="56" viewBox="0 0 56 56" xmlns="http://www.w3.org/2000/svg"><path fill="#3A4456" d="M0 0h56v56H0z"/><path d="M49 27.45h-1.04c0-1.07-.83-1.43-1.05-1.43-.21 0-.91.11-.91.9 0 .63.94 1.31 1.46 1.76.51.46 1.54 1.57 1.54 2.38 0 1.02-.61 1.94-2 1.94-1.44 0-1.93-1.58-2-2.37h1c0 .86.67 1.35 1 1.35.33 0 1-.17 1-.92 0-.6-.91-1.24-1.41-1.74C46.1 28.84 45 27.84 45 27c0-1.34.93-2.01 2-2.01 1.59 0 2 1.63 2 2.45ZM11 14h-1v8h1v-5.79L12.5 18l1.5-1.79V22h1v-8h-1l-1.5 1.79L11 14ZM16 14h1v8h-1zM35 14h1v8h-1zM16 35h1v8h-1zM18 35h1v8h-1zM20 35h1v8h-1zM18 33v-8h1l3 6v-6h1v8h-1l-3-6v6h-1ZM8.3 25H7l1.92 8h1.16L12 25h-1.28L9.5 30.5 8.3 25ZM42.5 14h.96l1.04 3 1.04-3h.96l-1.49 4.5L45 22h-1v-3.5L42.5 14ZM42 15v-1h-5v1h2v7h1v-7h2ZM19 14h-1v8h4v-1h-3v-7ZM24 14h-1v8h4v-1h-3v-7ZM29 26v-1h-5v1h2v7h1v-7h2ZM35 36v-1h-5v1h2v7h1v-7h2ZM27 35h-1v8h4v-1h-3v-7ZM30 16.06c0-1.14.9-2.06 2-2.06 1.09 0 1.97.89 2 2h-1c-.01-.55-.45-1-1-1s-1 .46-1 1.02v3.96c0 .56.45 1.02 1 1.02s.99-.45 1-1h1c-.03 1.11-.91 2-2 2-1.1 0-2-.92-2-2.06v-3.88ZM14 25h-1v8h4v-1h-3v-2h2v-1h-2v-3h3v-1h-3ZM41 25h-1v8h4v-1h-3v-2h2v-1h-2v-3h3v-1h-3ZM31 25h-1v5.83c0 1.2.9 2.17 2 2.17s2-.97 2-2.17V25h-1v5.93c0 .6-.45 1.07-1 1.07s-1-.48-1-1.07V25ZM35 33v-8H36.86c1.18 0 2.14 1.12 2.14 2.5 0 .87-.39 1.64-.97 2.1L39 33h-.86l-.87-3.05c-.13.03-.27.05-.41.05H36v3h-1Zm1-4h.93c.59 0 1.07-.67 1.07-1.5s-.48-1.5-1.07-1.5H36v3ZM22.3 42h.7l-.5 2H22l.3-2Z" fill="#fff"/><path fill-rule="evenodd" d="M38.11 35H36v8h2.11c1.05 0 1.89-.88 1.89-1.96v-4.08c0-1.08-.84-1.96-1.89-1.96Zm-.05 1H37v6h1.06c.52 0 .94-.66.94-1.47v-3.06c0-.81-.42-1.47-.94-1.47Z" fill="#fff"/></svg>