<!-- by TradingView --><svg width="56" height="56" xmlns="http://www.w3.org/2000/svg"><path fill="#283C4A" d="M0 0h56v56H0z"/><path d="M36.683 23.908c-2.112-9.29-6.516-11.764-7.639-13.512-.463-.77-.873-1.57-1.228-2.396-.06.825-.168 1.345-.872 1.971-1.413 1.256-7.414 6.13-7.92 16.686-.47 9.842 7.259 15.91 8.28 16.538.785.385 1.741.008 2.208-.346 3.726-2.548 8.816-9.343 7.175-18.941" fill="#10AA50"/><path d="M28.136 37.954c-.195 2.436-.334 3.852-.828 5.243 0 0 .324 2.32.552 4.776h.806c.192-1.73.485-3.447.878-5.143-1.043-.511-1.368-2.738-1.408-4.876z" fill="#B8C4C2"/><path d="M29.544 42.831c-1.055-.485-1.407-4.877-1.407-4.877C28.1 28.553 28 8.209 28 8.209c.328.753.618 1.483 1.044 2.186 1.123 1.75 5.528 4.222 7.64 13.512 1.644 9.582-3.419 16.36-7.14 18.924z" fill="#12924F"/></svg>