<!-- by TradingView --><svg width="56" height="56" viewBox="0 0 56 56" xmlns="http://www.w3.org/2000/svg"><path fill="#F0F3FA" d="M0 0h56v56H0z"/><path d="M42 14H14v28h28V14Z" fill="#231F20"/><path d="M41 15H15v26h26V15Z" fill="#004987"/><path d="M25 30h-1v-8.3L22.11 30h-1L19 21.71v8.28h-1V21h1.98l1.29 5.25c.17.76.23 1.54.37 2.3.11-.86.27-1.75.4-2.3L23.31 21H25v9ZM29.13 21c1.5 0 2.24.34 2.59 1.19.16.4.28 1.12.28 2.3v1.81c-.01 1.06-.06 1.32-.11 1.75-.16 1.34-1.02 1.95-2.75 1.95H27v-9h2.13Zm.03 8c1.02 0 1.57-.28 1.71-1 .18-.87.13-1.84.13-2.72 0-2.93-.34-3.28-1.8-3.28H28v7h1.16ZM36.1 21c1.07 0 1.5.11 1.94.46.43.37.63.98.63 1.84 0 1.14-.4 1.7-1.39 1.96.52.13.75.22 1.02.4.45.34.7.99.7 1.87 0 1.08-.3 1.8-.88 2.13-.5.27-.9.34-2.17.34H34v-9h2.1Zm.08 4c.96 0 1.37-.62 1.37-1.6 0-.99-.44-1.4-1.39-1.4H35v3h1.18Zm-.2 4c.99 0 2.02-.24 2.02-1.47 0-1.28-.69-1.53-2.07-1.53H35v3h.98ZM17 33h22v.3H17V33ZM17.8 36.57c0-.1-.02-.22-.06-.28a.33.33 0 0 0-.2-.08c-.19 0-.27.12-.27.15 0 .02-.05.07-.05.4v.51c0 .47.15.52.33.52.07 0 .28-.03.3-.4h.23c.01.61-.4.61-.5.61-.24 0-.58-.02-.58-.76v-.55c0-.54.23-.69.58-.69.36 0 .5.2.48.57h-.27ZM18.93 36h.29l.6 2h-.27l-.13-.48h-.7l-.14.48h-.23l.58-2Zm.14.24-.3 1.07h.59l-.3-1.07ZM20 38v-2h.54c.24 0 .51.1.51.57 0 .46-.32.55-.5.55h-.3V38H20Zm.23-1.1h.26c.1 0 .32-.03.32-.34 0-.3-.2-.33-.26-.33h-.32v.67ZM22 38h-.3v-2h.3v2ZM23.7 36v.22h-.48V38H23v-1.78h-.49V36h1.2ZM24.17 36h.29l.6 2h-.27l-.13-.48h-.7l-.14.48h-.23l.58-2Zm.14.24-.3 1.07h.6l-.3-1.07ZM25.43 38v-2h.24v1.78h.67V38h-.9ZM27.38 38v-2h.23v.86h.65V36h.23v2h-.23v-.91h-.65V38h-.23ZM29 37.26v-.63c0-.38.2-.63.57-.63.4 0 .57.25.57.63v.63c0 .53-.19.74-.57.74-.39 0-.57-.2-.57-.74Zm.9 0v-.64c0-.4-.26-.42-.34-.42-.07 0-.34 0-.34.42v.65c0 .42.12.52.34.52.22 0 .34-.1.34-.52ZM30.77 38v-2H31v1.78h.67V38h-.9ZM32 36h.56c.23 0 .4.09.5.3.06.18.07.57.07.64 0 .43-.04.67-.1.8-.1.17-.29.26-.6.26H32v-2Zm.23 1.78h.22c.32 0 .44-.13.44-.6v-.4c0-.4-.1-.55-.36-.55h-.3v1.55ZM34 38h-.3v-2h.3v2ZM35.74 36v2h-.32l-.73-1.73V38h-.22v-2h.33l.72 1.71V36h.22ZM37.16 36.56c0-.23-.09-.35-.32-.35-.07 0-.34 0-.34.41v.64c0 .42.12.52.34.52.17 0 .28-.04.33-.08v-.57h-.34v-.2h.57v.92c-.15.08-.32.14-.56.14-.4 0-.57-.2-.57-.74v-.62c0-.38.19-.62.57-.62.4 0 .58.15.56.55h-.24ZM38.14 37.4v.06c0 .25.16.34.3.34.18 0 .33-.09.33-.31 0-.43-.82-.39-.82-.97 0-.34.23-.52.53-.52.33 0 .52.17.5.56h-.24c0-.2-.06-.35-.28-.35-.14 0-.28.08-.28.29 0 .42.82.36.82.97 0 .4-.26.53-.56.53-.54 0-.54-.43-.53-.61h.23v.01Z" fill="#fff"/></svg>