<!-- by TradingView --><svg width="56" height="56" viewBox="0 0 56 56" xmlns="http://www.w3.org/2000/svg"><path fill="#F0F3FA" d="M0 0h56v56H0z"/><path d="M45.46 21h-1.92c-.85 0-1.54.7-1.54 1.57v.7c0 .86.69 1.56 1.54 1.56h1.92c.85 0 1.54-.7 1.54-1.56v-.7c0-.87-.69-1.57-1.54-1.57ZM36.58 21h-1.16c-.79 0-1.42.7-1.42 1.57v.2c0 .86.63 1.56 1.42 1.56h1.16c.79 0 1.42-.7 1.42-1.57v-.2c0-.86-.63-1.56-1.42-1.56Z" fill="#005299"/><path d="M42 22.66v12.56c0 .98-.97 1.8-1.96 1.77-.99.02-2.02-.79-2.04-1.77V22.66h-4v12.56c.01.96-1.03 1.8-2 1.77-1 .05-2-.77-2-1.77V26l-5 3.22v6.27c0 3.79 2.15 6.51 6.11 6.51a5.4 5.4 0 0 0 4.9-3.09c1.07 2.06 2.61 3.1 4.6 3.09C44.1 42 47 39.62 47 36.05V22.66h-5Z" fill="#005299"/><path d="M13.46 31.15h-1.92c-.85 0-1.54.7-1.54 1.56v.7c0 .87.69 1.59 1.54 1.59h1.92c.85 0 1.54-.72 1.54-1.59v-.7c0-.86-.69-1.56-1.54-1.56ZM20.58 31.65h-1.16c-.79 0-1.42.7-1.42 1.57v.2c0 .86.63 1.58 1.42 1.58h1.16c.79 0 1.42-.72 1.42-1.59v-.19c0-.87-.63-1.57-1.42-1.57Z" fill="#0F2953"/><path d="M15 33.39v-12.6c0-.98.43-1.82 1.43-1.78 1.46-.02 1.55.8 1.57 1.77v12.6h4v-12.6c-.01-.97.67-1.8 1.66-1.77 1-.05 1.33.8 1.34 1.77v6.37l5-3.22v-3.42c0-3.76-1.17-6.51-5.48-6.51-1.87 0-3.47 1.33-4.28 3.09-.5-1.65-2.48-3.1-4.44-3.09-3.46 0-5.8 2.44-5.8 5.95v13.44h5Z" fill="#0F2953"/><path d="m30 27.26-5 3.48V26.7l5-3.48v4.04Z" fill="#89B3D3"/></svg>