<!-- by TradingView --><svg width="56" height="56" viewBox="0 0 56 56" xmlns="http://www.w3.org/2000/svg"><path fill="#F0F3FA" d="M0 0h56v56H0z"/><path fill-rule="evenodd" d="M4.66 24h1.51l2.52 5.76L11.25 24h1.4l.66 9h-1.52l-.3-6.35L9.2 32H8.18l-2.3-5.35L5.54 33H4l.66-9Zm14.19 0h1.51l2.52 5.76L25.44 24h1.4l.66 9h-1.52l-.3-6.35L23.4 32h-1.02l-2.3-5.35-.34 6.35h-1.54l.66-9ZM15 24h1.5v9H15v-9Zm14 9v-9h5.5v1.5h-4v2h4V29h-4v2.5h4V33H29Zm7-.18v-8.58c.35-.08 1.29-.24 2.24-.24h.06c1.25 0 4.7 0 4.7 4.64 0 3.79-2.87 4.36-4.76 4.36-.6 0-1.74-.12-2.24-.18Zm1.5-1.32v-6h1.32c.7 0 2.68 0 2.68 3.1 0 2.52-1.64 2.9-2.72 2.9H37.5ZM52 24l-3.26 4.46L52 33h-2.16l-3.26-4.54L49.66 24H52Z" fill="#005DC1"/><path d="M46.52 28.46 43.26 24h2.34l3.08 4.46L45.41 33h-2.15l3.26-4.54ZM27.22 18c-9.02 0-14.15 3.64-15.59 5.46 2.09-1.4 8.13-4.22 15.59-4.22 7.45 0 13.24 2.81 15.2 4.22-1.32-1.82-6.2-5.46-15.2-5.46Z" fill="#ABACAF"/></svg>