<!-- by TradingView --><svg xmlns="http://www.w3.org/2000/svg" width="56" height="56" viewBox="0 0 56 56"><path fill="#F0F3FA" d="M0 0h56v56H0z"/><path d="M18.32 37.5a3.2 3.2 0 0 0 1.48 4.26c1.57.79 3.49.09 4.27-1.48l1.3-2.61-2.7-8.97-4.35 8.8zM36.18 8.32a3.21 3.21 0 0 0-4.27 1.48l-5.14 10.54 2.7 8.97 8.2-16.63a3.2 3.2 0 0 0-1.49-4.36z" fill="#92C746"/><path d="M27.82 45.77a3.23 3.23 0 0 0 4 2.09 3.36 3.36 0 0 0 2.18-4l-4.44-14.64-4.18 8.45 2.44 8.1zM24.94 14.42a3.36 3.36 0 0 0-4-2.18 3.36 3.36 0 0 0-2.18 4l3.83 12.46 4.18-8.45-1.83-5.83z" fill="#D50F67"/><path d="M22.6 28.7l2.78 9.06 4.1-8.45-2.7-8.97-4.19 8.36z" fill="#3BA510"/></svg>