<!-- by TradingView --><svg width="56" height="56" viewBox="0 0 56 56" xmlns="http://www.w3.org/2000/svg"><path fill="#F0F3FA" d="M0 0h56v56H0z"/><path d="M20.03 31.33a51.7 51.7 0 0 0 5.67-9.34c.01-.04 0-.06-.03-.06l-3.75-.51c-.03 0-.05-.03-.05-.07.44-4.92 3.2-10.04 8.61-10.34.33-.02.67 0 1.03.09A17.25 17.25 0 0 1 45 27.8a17.38 17.38 0 0 1-9.76 15.89c.47-.55 1.05-1.12 1.44-1.61 1.8-2.32 2.73-5.38 2.97-8.28 0-.03.02-.05.06-.05h2.38c.08 0 .1-.04.07-.1-.33-.87-.73-1.7-1.2-2.51a55.74 55.74 0 0 0-4.16-6.17c-.22-.3-.52-.63-.88-1.01-.03-.03-.05-.03-.07 0-.62.74-1.16 1.48-1.62 2.2a71.9 71.9 0 0 0-4.06 7.14c-.02.04-.01.07.03.07l3.67.51c.1.01.14.07.13.17-.71 4.23-3.87 11.1-9.02 10.95-.44-.02-1-.12-1.67-.31A17.28 17.28 0 0 1 11 27.36a17.36 17.36 0 0 1 8.07-14.03 16.22 16.22 0 0 0-2.88 8.18c0 .03-.01.04-.04.04h-2.43a.06.06 0 0 0-.05.05v.03c.32.83.74 1.7 1.28 2.63a54.56 54.56 0 0 0 3.98 5.9 16.1 16.1 0 0 0 1.01 1.19.07.07 0 0 0 .06 0l.02-.02Zm14.3-15.8a129.47 129.47 0 0 0-4.78 7.03 38.97 38.97 0 0 0-3.31 6.37 105.15 105.15 0 0 0-3.77 11.26c0 .02.02.02.03 0l.06-.14a7619.6 7619.6 0 0 0 11.8-24.51c.03-.09.03-.1-.03-.02Zm.4.04L22.87 40.2v.01h.02c1.8-2.44 3.5-4.97 5.11-7.56a35.26 35.26 0 0 0 2.64-4.97 103.77 103.77 0 0 0 4.12-12.13h-.01Z" fill="#F47621"/><path d="M34.35 15.54a7619.63 7619.63 0 0 1-11.89 24.65v-.03l.02-.03c1.1-4 2.36-7.74 3.75-11.2a38.97 38.97 0 0 1 3.32-6.37c1.7-2.67 3.3-5.01 4.78-7.04.05-.07.06-.07.02.02Z" fill="#1C83CE"/></svg>