<!-- by TradingView --><svg width="56" height="56" viewBox="0 0 56 56" fill="none" xmlns="http://www.w3.org/2000/svg">
<rect width="56" height="56" fill="#365075"/>
<path fill-rule="evenodd" clip-rule="evenodd" d="M19.8089 17.0153C19.5963 17.0751 19.386 17.1342 19.1797 17.1895C19.1309 17.1891 19.082 17.1881 19.0332 17.1872C18.9665 17.1859 18.8997 17.1846 18.8326 17.1846C14.7298 17.1846 11.2488 18.0476 8 19.2226C11.3539 17.3051 15.1369 16.3004 18.9835 16.3054C19.9855 16.3055 20.9864 16.3732 21.9796 16.5081C21.2679 16.6051 20.5247 16.814 19.8089 17.0153ZM25.2773 16.3201C26.8423 16.107 28.4194 16.0001 29.9984 16C36.3312 15.9906 42.5495 17.7178 48 21C42.9851 18.8059 36.5997 17.3521 29.8584 17.3521C29.8076 17.3521 29.757 17.3532 29.7063 17.3542C29.6613 17.3551 29.6161 17.356 29.5707 17.3562C28.0867 17.3634 26.6037 17.4398 25.1265 17.5851C20.4997 18.0429 16.2632 19.2226 12.6958 20.5955C16.5853 18.3711 20.855 16.9201 25.2773 16.3201ZM9.00894 37.5517H8.99999V38H15V37.5504C13.3539 37.7504 13 36.3141 13 34.9633V31H23V34.9633C23 36.3675 22.8016 37.7631 21 37.5504V38H27V37.5504H26.7461C25.0907 37.757 25 36.3275 25 34.9633V26.0354C25 23.8992 25.3377 23.5387 27 23.4496V23H21V23.4496C22.8 23.2381 23 24.6318 23 26.0354V30H13V26.0367C13 24.3808 13.0679 24.3058 13.3972 23.9423C13.4033 23.9356 13.4095 23.9287 13.4158 23.9218C13.6281 23.7324 13.8812 23.5917 14.1565 23.51C14.4319 23.4283 14.7154 23.4077 15 23.4496V23H8.99999V23.4509C10.5708 23.5853 11 23.9231 11 26.0367V34.9646C11 36.3672 10.829 37.7812 9.00894 37.5517ZM33 34.9646C33 36.3696 32.8232 37.7805 31 37.5517V38H37V37.5504C35.3447 37.757 35 36.3286 35 34.9646V31.0287C35.0836 31.0129 35.2767 31.0054 35.3618 31.0061C35.8848 30.9927 36.3972 31.1511 36.8167 31.4557C37.8202 32.2618 38.5269 33.1305 39.28 34.0562C39.5684 34.4106 39.8635 34.7734 40.1847 35.1442C41.2865 36.3723 42.2573 37.5061 40 37.5504V37.9987H47V37.5491H46.853C45.3337 37.638 44.372 37.0719 43.4151 35.9516C41.9578 34.1906 40.3937 32.516 38.7312 30.937C38.431 30.6518 37.9235 30.1282 37.9235 30.1282C39.337 29.0526 40.1405 27.7479 41.0495 26.272C41.107 26.1787 41.1648 26.0848 41.2233 25.9902C42.7 23.8087 43.5079 23.5161 46 23.4496V23H39V23.4496C40.4057 23.4961 40.8767 23.6292 40.8767 24.2144C40.7668 24.4512 40.6563 24.7214 40.5383 25.0099C40.1251 26.0201 39.6201 27.2547 38.7312 28.064C37.1863 29.7958 36.201 30.4209 35 30.5778V26.0367C35 24.6724 35.3433 23.2417 37 23.4496V23H31V23.4509H31.0696C32.8921 23.2223 33 24.632 33 26.0367V34.9646Z" fill="white"/>
</svg>
