<!-- by TradingView --><svg width="56" height="56" viewBox="0 0 56 56" xmlns="http://www.w3.org/2000/svg"><path fill="#F0F3FA" d="M0 0h56v56H0z"/><path d="M37.08 11c.2 0 .38.09.5.22.1-.12.26-.22.5-.22.92 0 .92 1.17.97 1.84.05.58.37 1.17.7 1.64.24.35.74.6.76 1.08.02.39.47.7.49 1.16.01.46-.3.84-.78.84-.64 0-1.3-.5-1.8-.86a1.9 1.9 0 0 1-1.39-.04c-3.01 4.4-5.3 9-7 13.18C31.2 33.78 31.7 40.45 32 43.46v.07a.5.5 0 0 1-.48.47h-.47a.48.48 0 0 1-.48-.45c-.2-2.67-.55-5.9-2.68-7.68-1.01 3.3-1.58 6-1.81 7.71a.48.48 0 0 1-.48.42h-.53a.5.5 0 0 1-.47-.56c.39-2.48.66-4.78.7-6.61.02-.86 0-1.73-.17-2.57a17.97 17.97 0 0 0-3.76-1.02c-.24.48-.52.94-.8 1.39a.5.5 0 0 1 .19.7c-.2.28-.76 1.55-.76 3.88v4.3c0 .27-.16.49-.43.49h-.63a.5.5 0 0 1-.48-.5c.03-.97 0-2.81-.24-4.5a48.65 48.65 0 0 0-1.7 4.65.48.48 0 0 1-.46.35h-.58a.49.49 0 0 1-.46-.63c.28-.93.86-2.94.98-3.67l.08-.62c.08-.73.18-1.54.7-2.64.2-.42.35-.86.47-1.3l-.26-.85a8.2 8.2 0 0 1-.42-2c0-.53.34-1.29.96-1.29.06 0 .13 0 .2.03a2.62 2.62 0 0 1-.37-1.25c0-1.32.93-2.78 2.31-2.78.83 0 1.6.68 2.08 1.34a2.98 2.98 0 0 1-.1-.66c0-1.8 1.19-3.68 3.1-3.68 2.55 0 3.99 2.3 4.82 4.45a70.07 70.07 0 0 1 6.9-12.68c.32-.46.78 0 1.16.06.4.07.8-.34 1.15-.07.37.28.75.55 1.17.73-.3-.5-.65-.97-1-1.45a4.4 4.4 0 0 1-.85-2.05.6.6 0 0 1-.55.36.58.58 0 0 1-.49-.26.7.7 0 0 1-.45.35c-.14.04-.32.06-.5.08l.06.11c.1.15.1.34.02.5-.99 1.8-3.9 5.86-8.4 9.75a.48.48 0 0 1-.67-.05.49.49 0 0 1 .05-.68 40.4 40.4 0 0 0 8.04-9.24l-.37-.57a.49.49 0 0 1-.02-.5c.23-.43 1.03-.25 1.43-.31.06-.33.04-.66.14-.98.1-.3.35-.55.69-.55Zm-8.21 18.33c-.67-1.9-1.8-4.33-4.11-4.33-1.39 0-2.14 1.41-2.14 2.68 0 2.05 1.57 3.55 2.81 4.95.22.25.38.56.5.92.5.22.98.47 1.45.76a76.55 76.55 0 0 1 1.64-4.52l-.15-.46Zm.58 2.02c-.47 1.23-.88 2.4-1.25 3.53 1.19.91 2 2.08 2.55 3.48-.35-2.36-.8-4.93-1.3-7Zm-2.38 3.92c-.29-.2-.58-.36-.89-.52.08.61.1 1.32.08 2.1 0 .46-.03.95-.07 1.47.25-.95.54-1.97.88-3.05Zm-2.69-2.3a11.69 11.69 0 0 1-2.13-3.21 6.4 6.4 0 0 1-.46 2.56c.75.13 1.65.34 2.6.64Zm-3.59-.77c.31-.73.5-1.48.5-2.32 0-.84-.75-1.88-1.62-1.88-.71 0-1.35.85-1.35 1.78 0 1.24 1.4 2.21 2.47 2.42Zm-2.32-.16c.04.2.06.44.06.71 0 .68-.08 1.5-.28 2.37.09.3.19.55.28.88.28-.48.57-.86.85-1.3.36-.56.7-1.08.98-1.6-.77-.2-1.4-.6-1.89-1.06Zm.44 5.35c.08.31.1.65.15 1 .03-.67.16-1.25.26-1.75l-.41.75Zm-1.03-.1-.16-.59A7 7 0 0 0 17 39c.26-.66.58-1.07.88-1.71Z" fill="#554E4A"/></svg>