<!-- by TradingView --><svg xmlns="http://www.w3.org/2000/svg" width="56" height="56" viewBox="0 0 56 56"><path fill="#F0F3FA" d="M0 0h56v56H0z"/><path d="M42 14H27.76c-.7 0-1.89-.01-2.76.07-3.32.32-6.37 2.08-8.66 4.5a15.55 15.55 0 0 0-4.26 8.84c-.5 4.7 1.37 9.2 4.41 12.25a14.87 14.87 0 0 0 12.15 4.25 15.39 15.39 0 0 0 8.8-4.29c2.4-2.3 4.15-5.37 4.46-8.7.1-1 .1-1.85.1-2.96V14Zm-14.61 2H40v10.79a47.92 47.92 0 0 1 0 1.19v.01c0 1.02 0 1.83-.09 2.73-.26 2.74-1.78 5.37-3.9 7.41-2.14 2.05-4.88 3.51-7.59 3.8a12.81 12.81 0 0 1-10.47-3.73A13.38 13.38 0 0 1 14 29c0-.46.02-.92.07-1.38A13.59 13.59 0 0 1 17.84 20c2.03-2.14 4.64-3.67 7.36-3.93.73-.07 1.46-.07 2.19-.06ZM16.02 29.52c.14 2.82 1.3 5.4 3.21 7.32a10.8 10.8 0 0 0 8.9 3.1 11.56 11.56 0 0 0 7.07-3.7c1.58-1.7 2.8-4.1 2.8-5.95V18l-9.08.01h-1.7L25.74 18c-1.88 0-4.27 1.15-5.94 2.73-2.02 1.91-3.52 4.53-3.76 7.1-.05.57-.06 1.14-.03 1.7Z" fill="url(#auvyeep1k)"/><defs><linearGradient id="auvyeep1k" x1="40.96" y1="15.03" x2="19.23" y2="39.85" gradientUnits="userSpaceOnUse"><stop stop-color="#C4D469"/><stop offset="1" stop-color="#649745"/></linearGradient></defs></svg>