<!-- by TradingView --><svg width="56" height="56" xmlns="http://www.w3.org/2000/svg"><path fill="#C8102E" d="M0 0h56v56H0z"/><path d="M8.504 30.999L5 24H4v9h1v-6l3 6h1l3-6v6.002L13 33v-9h-1l-3.496 6.999zm40.219-2.235c0-.65.738-.764 1.11-.764.478 0 .828.21 1.096.587l.897-.662c-.455-.624-1.247-.925-1.992-.925-1.13 0-2.248.631-2.248 1.89 0 2.156 3.414 1.19 3.414 2.357C51 32 49.996 32 49.59 32c-.595 0-.969-.288-1.329-.689l-.85.82c.57.647 1.316.871 2.179.871 1.14 0 2.41-.471 2.41-1.814 0-2.203-3.277-1.411-3.277-2.424zM46 27l-1.5 4-1.5-4h-1l-1.5 4-1.496-4H38l2 6.002 1 .002 1.5-4.504L44 33h1l2-6h-1zm-12 2.468c.105-.812.797-1.468 1.623-1.468.873 0 1.365.675 1.377 1.5l-3-.032zM35.623 27C33.934 27 33 28.218 33 29.997s1.074 3.005 2.762 3.005c.886 0 1.586-.332 2.238-1.145l-.875-.61c-.35.436-.803.753-1.502.753-.782 0-1.53-.665-1.623-1.5h4v-.36c0-1.967-.816-3.14-2.377-3.14zM30 27c-.862 0-1.779.528-2 1v-3.475l-1-.004V33h1v-3.532c0-.753.729-1.468 1.65-1.468.978 0 1.35.983 1.35 1.607V33h1v-3.709C32 28.137 31.503 27 30 27zm-12 3.667c0 .789-.786 1.333-1.742 1.333-.454 0-1.329.081-1.258-.77.07-.85 1.602-.992 2.371-.992l.629.023v.406zM16.614 27c-.886 0-1.758.334-2.376.97l.75.636a2.2 2.2 0 011.49-.606c.746 0 1.522.488 1.522 1.184v.153h-.606c-1.397 0-3.394.117-3.394 1.954 0 1.12.88 1.709 1.915 1.709.746 0 1.688-.283 2.085-.919V33h1.002v-3.393c0-.801 0-2.607-2.388-2.607zm5.949 1v-1H21v-2h-1.001v5.999c0 1.33-.022 2.003 1.458 2.003.325 0 .815-.047 1.106-.189V31.8c-.175.13-.513.2-.757.2-.617 0-.806-.553-.806-1.119v-2.455L22.563 28z" fill="#fff"/><path d="M26 27v1.004l-1.63.423v2.455c0 .565.188 1.118.806 1.118.244 0 .649-.091.824-.22v1.028c-.29.142-.848.194-1.174.194-1.48 0-1.457-.672-1.457-2.003V25h1l.001 2H26z" fill="#fff"/></svg>