<!-- by TradingView --><svg xmlns="http://www.w3.org/2000/svg" width="56" height="56"><path fill="url(#ag31ciyid)" d="M0 0h56v56H0z"/><path d="M22 31.73V23.6h2v8.12h-2z" fill="url(#bg31ciyid)"/><path d="M29.45 26l-1.8 1.49 1.8 1.51v-3z" fill="#929395"/><path d="M23.76 26l-1.86 1.52h5.74L29.47 26h-5.7z" fill="#FCFCFC"/><path d="M23.76 29l-1.86-1.5h5.77l1.8 1.5h-5.7z" fill="url(#cg31ciyid)"/><path d="M30 25.06V22l-2.02 1.66 2.02 1.4z" fill="#ACB0B1"/><path d="M23.9 25.03l-1.98-1.4h6.18l1.9 1.4h-6.1z" fill="url(#dg31ciyid)"/><path d="M29.97 22.01H20l1.88 1.64h6.2L29.97 22z" fill="#FDFDFD"/><path d="M23.9 29.98l-1.98 1.4h6.18l1.9-1.4h-6.1z" fill="#F9FAFC"/><path d="M30 29.98V33l-1.94-1.64L30 29.98z" fill="url(#eg31ciyid)"/><path d="M30 33H20l1.88-1.63h6.2L30 33z" fill="url(#fg31ciyid)"/><path d="M20 32.98V22l2 1.6v7.78l-2 1.6z" fill="url(#gg31ciyid)"/><path d="M12.5 26l-2.27-4-1.18 1.51 3.45 5.2 3.65-5.26L14.88 22l-2.38 4z" fill="url(#hg31ciyid)"/><path d="M12.5 28.64l-3.43-5.12-.53.65 1.1 2.98 2.86 4.3v-2.81z" fill="url(#ig31ciyid)"/><path d="M12.5 28.64l3.55-5.09.48.72-1.16 2.97-2.87 4.21v-2.81z" fill="url(#jg31ciyid)"/><path d="M8.81 24.34l-1.07-.75 1.35-.08-.28.83z" fill="#A7A8AA"/><path d="M10 33l-3.99-.02L8 31.66 10 33z" fill="url(#kg31ciyid)"/><path d="M8.83 24.34L8 23.58v8.1L10 33v-5.35l-1.17-3.31z" fill="url(#lg31ciyid)"/><path d="M10.23 22H6.01l1.8 1.58h1.24L10.23 22z" fill="#F8FAF9"/><path d="M8 23.6L6 22v11l2-1.32V23.6z" fill="url(#mg31ciyid)"/><path d="M16.2 24.33l1.09-.81-1.26.03.17.78z" fill="#ADAFAE"/><path d="M15 33h4l-1.97-1.34L15 33z" fill="#F9F9F9"/><path d="M16.17 24.34l.83-.76v8.13L15 33v-5.26l1.17-3.4z" fill="url(#ng31ciyid)"/><path d="M14.89 22H19l-1.77 1.58h-1.17L14.89 22z" fill="#F8FAF9"/><path d="M17 23.6l2-1.6v11l-2-1.32V23.6z" fill="url(#og31ciyid)"/><path d="M33.88 25.22c.5-1.11 3.06.03 4.27.73.23-.85.16-2.64-1.97-3-2.67-.45-4.6 1.43-4.2 3 .33 1.27 2.04 1.95 2.86 2.13l2.32.8-.46 1.88-4.37-.14c-.52.2-1.6.6-1.74.6 1.15 1.38 3.5 1.76 4.53 1.78 3.79 0 4.46-1.7 4.78-2.84.32-1.14 0-2.82-3.2-3.73-2.37-.67-3-.81-2.82-1.2z" fill="url(#pg31ciyid)"/><path d="M35.15 30.23c-1.01-.06-2.37-.78-2.92-1.13l-.74 1.13 1.02.62c3.07 1.56 4.89.44 5.4-.31.34-.85.29-2.64-2.6-3.02-2.9-.38-3.26-1.69-3.08-2.3.04-.6.62-1.8 2.64-1.8a6.34 6.34 0 014.05 1.4l.83-1.21c-.22-.25-1.26-.88-3.57-1.44-2.9-.7-5.68.86-5.68 3.06s1.26 3.24 2.9 3.46c1.65.23 2.46.66 2.59.76.13.1.42.87-.84.78z" fill="url(#qg31ciyid)"/><path d="M39.77 23.61c-.68.16-2.05.48-2.05.5l.46 1.84 1.59-2.34z" fill="url(#rg31ciyid)"/><path d="M32.24 29.07l-1.66 2.15 2.05-.37-.39-1.78z" fill="#F1F1F1"/><path d="M42.79 33l-1.3-1.27 3.98-8.43v3.33L42.8 33z" fill="url(#sg31ciyid)"/><path d="M42.78 33h-3.75l2.62-1.19L42.78 33z" fill="#E0E1E3"/><path d="M48.17 33H52l-2.68-1.29L48.17 33z" fill="url(#tg31ciyid)"/><path d="M48.18 33l1.28-1.22-3.99-8.48v3.33l2.7 6.37z" fill="url(#ug31ciyid)"/><path d="M43.87 22l-4.84 10.99 2.6-1.15 3.88-8.3V22h-1.64z" fill="url(#vg31ciyid)"/><path d="M47.15 22L52 32.99l-2.6-1.15-3.92-8.22.03-1.62h1.64z" fill="url(#wg31ciyid)"/><path d="M47.16 22h-3.3l1.64 1.62L47.16 22z" fill="#FCFDFF"/><path d="M46.54 29h-2.1l-2 1.26h6.14L46.54 29z" fill="#EEEFF1"/><path d="M47.5 31.48h-4.02l-1.04-1.22h6.14l-1.08 1.22z" fill="url(#xg31ciyid)"/><defs><linearGradient id="ag31ciyid" x1="10.42" y1="9.71" x2="68.15" y2="76.02" gradientUnits="userSpaceOnUse"><stop stop-color="#1A1E21"/><stop offset="1" stop-color="#06060A"/></linearGradient><linearGradient id="bg31ciyid" x1="23" y1="23.61" x2="23" y2="31.73" gradientUnits="userSpaceOnUse"><stop stop-color="#E9EDEE"/><stop offset=".45" stop-color="#B9BDBC"/><stop offset="1" stop-color="#ADAEB0"/></linearGradient><linearGradient id="cg31ciyid" x1="23.24" y1="27.57" x2="27.99" y2="28.8" gradientUnits="userSpaceOnUse"><stop stop-color="#AAA"/><stop offset="1" stop-color="#FBFCFE"/></linearGradient><linearGradient id="dg31ciyid" x1="25.57" y1="23.81" x2="25.71" y2="24.65" gradientUnits="userSpaceOnUse"><stop stop-color="#BFC5C5"/><stop offset="1" stop-color="#F6F7F9"/></linearGradient><linearGradient id="eg31ciyid" x1="28.77" y1="30.42" x2="28.77" y2="32.85" gradientUnits="userSpaceOnUse"><stop stop-color="#DBDCE0"/><stop offset="1" stop-color="#797B7D"/></linearGradient><linearGradient id="fg31ciyid" x1="26.09" y1="31.37" x2="26.09" y2="32.69" gradientUnits="userSpaceOnUse"><stop stop-color="#F0F1F3"/><stop offset="1" stop-color="#DCDCDC"/></linearGradient><linearGradient id="gg31ciyid" x1="20.43" y1="27.49" x2="20.68" y2="29.67" gradientUnits="userSpaceOnUse"><stop stop-color="#B9BBBA"/><stop offset="1" stop-color="#FAFCFB"/></linearGradient><linearGradient id="hg31ciyid" x1="9.43" y1="24.14" x2="15.01" y2="24.41" gradientUnits="userSpaceOnUse"><stop stop-color="#E8E9EB"/><stop offset=".22" stop-color="#BFC5C5"/><stop offset=".57" stop-color="#FBF9FC"/><stop offset="1" stop-color="#DCE0E1"/></linearGradient><linearGradient id="ig31ciyid" x1="8.63" y1="24.75" x2="10.52" y2="26.01" gradientUnits="userSpaceOnUse"><stop stop-color="#F3F3F5"/><stop offset="1" stop-color="#A0A4A5"/></linearGradient><linearGradient id="jg31ciyid" x1="15.8" y1="24.7" x2="12.71" y2="30.22" gradientUnits="userSpaceOnUse"><stop stop-color="#5B5F60"/><stop offset="1" stop-color="#E8EDE7"/></linearGradient><linearGradient id="kg31ciyid" x1="8" y1="31.66" x2="8" y2="32.98" gradientUnits="userSpaceOnUse"><stop stop-color="#F8F9FB"/><stop offset="1" stop-color="#9C9D9F"/></linearGradient><linearGradient id="lg31ciyid" x1="9" y1="23.58" x2="9" y2="32.98" gradientUnits="userSpaceOnUse"><stop stop-color="#A6ACAC"/><stop offset="1" stop-color="#E8E9EB"/></linearGradient><linearGradient id="mg31ciyid" x1="7" y1="22" x2="7" y2="33" gradientUnits="userSpaceOnUse"><stop stop-color="#747A7A"/><stop offset="1" stop-color="#FCFDFF"/></linearGradient><linearGradient id="ng31ciyid" x1="15.11" y1="25.31" x2="16.11" y2="30.41" gradientUnits="userSpaceOnUse"><stop stop-color="#BFC0C2"/><stop offset="1" stop-color="#FAFBFD"/></linearGradient><linearGradient id="og31ciyid" x1="18" y1="22" x2="18" y2="33" gradientUnits="userSpaceOnUse"><stop stop-color="#CCCDCF"/><stop offset="1" stop-color="#ECF0F1"/></linearGradient><linearGradient id="pg31ciyid" x1="35.3" y1="22.88" x2="32.6" y2="32.17" gradientUnits="userSpaceOnUse"><stop stop-color="#B3B4B6"/><stop offset=".16" stop-color="#D1D1D1"/><stop offset=".25" stop-color="#949597"/><stop offset=".34" stop-color="#fff"/><stop offset=".61" stop-color="#F7F7F7"/><stop offset=".69" stop-color="#6C7071"/><stop offset=".77" stop-color="#ACADAF"/><stop offset=".89" stop-color="#CCCDCF"/><stop offset="1" stop-color="#E3E3E3"/></linearGradient><linearGradient id="qg31ciyid" x1="35.13" y1="22" x2="35.13" y2="31.64" gradientUnits="userSpaceOnUse"><stop stop-color="#F2F3F5"/><stop offset=".38" stop-color="#F7F9F8"/><stop offset=".45" stop-color="#7D7F7E"/><stop offset=".54" stop-color="#C9C9C7"/><stop offset=".74" stop-color="#9A9C97"/><stop offset=".78" stop-color="#9FA09E"/><stop offset=".89" stop-color="#FBFDFC"/><stop offset="1" stop-color="#FDFFFE"/></linearGradient><linearGradient id="rg31ciyid" x1="39.37" y1="24.49" x2="37.86" y2="24.76" gradientUnits="userSpaceOnUse"><stop stop-color="#DDD"/><stop offset=".89" stop-color="#768183"/></linearGradient><linearGradient id="sg31ciyid" x1="46.15" y1="24.62" x2="41.27" y2="32.96" gradientUnits="userSpaceOnUse"><stop stop-color="#8B9493"/><stop offset=".11" stop-color="#868F8E"/><stop offset=".33" stop-color="#ABAFAE"/><stop offset=".55" stop-color="#D6D7D9"/><stop offset=".73" stop-color="#9EA09F"/><stop offset="1" stop-color="#ADAFAE"/></linearGradient><linearGradient id="tg31ciyid" x1="50.08" y1="31.71" x2="50.08" y2="33" gradientUnits="userSpaceOnUse"><stop stop-color="#F1FAF9"/><stop offset="1" stop-color="#CED4D4"/></linearGradient><linearGradient id="ug31ciyid" x1="44.9" y1="25.19" x2="48.8" y2="32.27" gradientUnits="userSpaceOnUse"><stop stop-color="#9CA0A1"/><stop offset=".25" stop-color="#B9BBBA"/><stop offset=".46" stop-color="#EDF1F2"/><stop offset=".59" stop-color="#B9BDBE"/><stop offset="1" stop-color="#BAC2C4"/></linearGradient><linearGradient id="vg31ciyid" x1="45.13" y1="22.39" x2="42.55" y2="29.09" gradientUnits="userSpaceOnUse"><stop stop-color="#A7B0AF"/><stop offset="1" stop-color="#F3F7F8"/></linearGradient><linearGradient id="wg31ciyid" x1="51.26" y1="23.11" x2="46.9" y2="33.07" gradientUnits="userSpaceOnUse"><stop stop-color="#CBCDCC"/><stop offset=".34" stop-color="#B8BDC0"/><stop offset=".44" stop-color="#9BA5A7"/><stop offset=".55" stop-color="#CCD0D3"/><stop offset=".78" stop-color="#B9BDBE"/><stop offset="1" stop-color="#B0B7BA"/></linearGradient><linearGradient id="xg31ciyid" x1="45.51" y1="31.48" x2="45.51" y2="30.26" gradientUnits="userSpaceOnUse"><stop stop-color="#BEC0BF"/><stop offset=".46" stop-color="#D8DEDE"/><stop offset="1" stop-color="#9BA0A2"/></linearGradient></defs></svg>