<!-- by TradingView --><svg xmlns="http://www.w3.org/2000/svg" width="56" height="56" viewBox="0 0 56 56"><path fill="#F0F3FA" d="M0 0h56v56H0z"/><path fill-rule="evenodd" d="M45 28a17 17 0 1 1-34 0 17 17 0 0 1 34 0ZM29.95 17.15l-.02.42-1.12-.06h-.17l-.36-.02.12-2.58.53.03-.1 2.16 1.12.05Zm3.52 1.52 1.04-2.36-.5-.21L33 18.46l.48.21Zm3.58.69-.07.1c-.12.15-.24.27-.39.36-.14.1-.28.15-.43.18-.16.02-.31 0-.46-.03-.16-.05-.31-.12-.46-.23-.14-.1-.26-.23-.34-.36a1.12 1.12 0 0 1-.14-.9c.05-.17.13-.33.25-.49l.07-.1c.12-.15.25-.28.39-.37.14-.09.28-.14.43-.17.16-.02.31-.01.47.03.15.04.3.12.45.23.14.1.26.23.34.36a1.08 1.08 0 0 1 .13.9c-.04.17-.12.33-.24.49Zm-.55-.26.07-.1c.08-.11.14-.22.18-.32.04-.1.06-.2.06-.28a.51.51 0 0 0-.06-.25.62.62 0 0 0-.18-.2.62.62 0 0 0-.25-.12.52.52 0 0 0-.25.01.76.76 0 0 0-.26.14c-.08.07-.16.16-.25.27l-.07.1c-.08.11-.14.21-.18.32-.04.1-.06.2-.06.28 0 .09.02.17.06.25.04.07.1.14.18.2.09.06.17.1.25.12.09.01.17 0 .26-.02a.78.78 0 0 0 .25-.14c.08-.07.17-.15.25-.26Zm3.9 1.81-1.9 1.74-.36-.39.58-1.93-1.28 1.16-.35-.39 1.9-1.74.36.4-.58 1.93 1.28-1.17.36.4Zm-8.14-2.8.1-.4-1.1-.27.53-2.1-.51-.13-.63 2.5.35.09.17.04 1.1.27Zm-6.03-3.03h-.13l-.24.03-.14.01-.76 2.66.58-.05.14-.56.96-.09.23.53.58-.05-1.22-2.48Zm.23 1.6-.68.06.25-1.02.43.96Zm-3.5 1.87.27-.1c.18-.07.33-.16.45-.27a1.1 1.1 0 0 0 .4-.84c0-.17-.03-.34-.1-.5l-.04-.12a1.27 1.27 0 0 0-.27-.43 1.1 1.1 0 0 0-.87-.35c-.16 0-.34.04-.51.1l-.27.11-.32.13-.23.09.95 2.4.23-.1.31-.12Zm-.15-.38.27-.1a.74.74 0 0 0 .32-.24.6.6 0 0 0 .12-.34c0-.13-.02-.28-.09-.44l-.04-.12c-.05-.12-.1-.22-.17-.3a.67.67 0 0 0-.22-.2.56.56 0 0 0-.26-.06c-.1 0-.2.02-.3.06l-.27.11.64 1.63Zm-1.42.52.23.34-.98.68-.14.1-.3.2-1.47-2.1.3-.21.14-.1.98-.69.24.34-.99.69.37.52.83-.58.23.33-.83.58.4.58.99-.68Zm-5.46 1.7-.14.14-.17.17 1.83 1.81.37-.38-.52-.51-.89-.8 1.87.85.25-.25-.88-1.86.81.88.52.52.38-.38-1.84-1.81-.17.17-.15.15-.17.17.89 1.8-1.82-.85-.17.17Zm3.2 14.1.69.93-.33.25-.7-.93-.54.42.61.82-.33.25-.62-.83-.85.64-.32-.42 2.07-1.55.23.3.09.12Zm19.7 1.06.32.27-.71.87-.11.13-.23.28-1.99-1.65.34-.4 1.67 1.37.72-.87ZM18.9 38.13l1.77-1.87-.39-.37-1.77 1.88.39.36Zm2.95 2.04 1.35-2.2-.45-.28-.9 1.48.01-2.02-.45-.28-1.35 2.2.45.28.9-1.48-.01 2.02.45.28Zm6.91 1.44v-2.58h-.52v1.73l-1.04-1.73h-.53v2.58h.53v-1.73l1.03 1.73h.53Zm4.27-3.78 1.17 2.3-.47.24-1.17-2.3.47-.24Zm-8.02.81.13.04.18 2.76-.56-.17-.01-.58-.92-.29-.34.47-.56-.18 1.72-2.16.13.04.23.07Zm-.92 1.4.62-.84.03 1.05-.65-.2Zm10.85-3.44-.12.08-.19.14-.1.08.72 2.67.47-.35-.17-.55.77-.57.47.33.48-.35-2.33-1.48Zm1.02 1.25-.54.4-.32-1 .86.6Zm-4.32 2.42.56-.15a.9.9 0 0 1-.31.9c-.14.1-.32.2-.55.26-.17.04-.34.06-.5.04a1.04 1.04 0 0 1-.74-.45c-.09-.14-.16-.3-.21-.48l-.05-.17a1.52 1.52 0 0 1-.05-.51c0-.17.05-.31.12-.44.07-.14.17-.25.3-.34.12-.1.26-.17.44-.21.22-.06.43-.08.6-.05.18.04.33.1.45.21.13.11.22.25.28.41l-.56.16a.63.63 0 0 0-.13-.24.37.37 0 0 0-.22-.11.72.72 0 0 0-.31.02.61.61 0 0 0-.24.12.46.46 0 0 0-.13.2.7.7 0 0 0-.04.27c0 .1.02.22.06.35l.05.18c.03.13.07.24.12.33.05.1.1.16.17.22.06.05.13.09.21.1.08.02.17 0 .27-.02a.74.74 0 0 0 .28-.13.39.39 0 0 0 .13-.2.57.57 0 0 0 0-.27ZM22 22v12h2l.03-6.91L27.31 34h1.41l3.31-6.91L32 34h2V22h-1.97L28 30.68 24.02 22H22Zm21 6a15 15 0 1 1-30 0 15 15 0 0 1 30 0Zm1 0a16 16 0 1 1-32 0 16 16 0 0 1 32 0Z" fill="#E2BA52"/></svg>