<!-- by TradingView --><svg width="56" height="56" xmlns="http://www.w3.org/2000/svg"><path fill="#006E51" d="M0 0h56v56H0z"/><path d="M38.51 35H47v-3h-6.828c-.95 0-1.155-1.137-1.172-1.513-.025-.7 0-2.326 0-3.23 0-1 .698-1.257 1.172-1.257h3.276c.404 0 .547.487.547 1s-.096 1-.547 1H40v3h4.607C46.608 31 47 29.768 47 28.927v-3.312c0-1.99-1.604-2.572-2.393-2.615h-6.249c-1.955 0-2.392 1.846-2.358 2.77v6.743c.02 2.01 1.687 2.495 2.51 2.487zM25.77 23.005H35V26c-2.02-.016-6.769-.038-7.734 0-.965.038-1.275 1.118-1.266 1.534v3.115c0 1.073.872 1.351 1.266 1.351h4.231c.359 0 .482-.097.503-.5.02-.403-.177-.5-.503-.5H29v-3c.35-.008 1.406-.02 3.316 0S35 29.072 35 29.954v2.66C35 34.166 33.552 35 32.316 35H25.77c-2.108-.08-2.77-1.578-2.77-2.386v-7.045c.041-2.032 1.871-2.556 2.77-2.564zM7 25.602V35h3v-8.021c0-.505.682-.979 1.5-.979s1.5.55 1.5.979V35h3v-8.021c0-.505.658-.979 1.5-.979s1.5.456 1.5.979V35h3v-9.398c-.024-1.968-1.45-2.563-2.282-2.602H9.435C7.567 23 7 24.683 7 25.602z" fill="#fff"/></svg>