<!-- by TradingView --><svg width="56" height="56" fill="none" xmlns="http://www.w3.org/2000/svg"><path fill="#F0F3FA" d="M0 0h56v56H0z"/><path d="M42.782 21.087a4.285 4.285 0 0 0-.108-.768c-.163-.577-.217-1.153-.38-1.73a14.452 14.452 0 0 0-.922-2.545 9.649 9.649 0 0 0-1.952-2.882 6.928 6.928 0 0 0-2.875-1.826A6.16 6.16 0 0 0 35.19 11h-1.465a3.774 3.774 0 0 0-1.79.672 13.067 13.067 0 0 0-2.766 2.546c-.813 1.01-1.68 1.97-2.549 2.93a23.342 23.342 0 0 1-3.796 3.267c-1.248.96-2.55 1.825-3.85 2.738a62.513 62.513 0 0 0-3.092 2.306 19.669 19.669 0 0 0-2.82 2.641 9.8 9.8 0 0 0-1.356 1.922 7.998 7.998 0 0 0-.651 2.21 5.723 5.723 0 0 0 .163 2.353c.364 1.352 1.154 2.584 2.277 3.555a19.029 19.029 0 0 0 4.502 2.834c1.247.624 2.495 1.153 3.797 1.681 1.21.437 2.462.775 3.742 1.009l1.193.192 1.627.144c.888 0 1.776-.048 2.657-.144a11.899 11.899 0 0 0 1.79-.384 10.875 10.875 0 0 0 3.363-1.49 10.023 10.023 0 0 0 2.549-2.305 10.447 10.447 0 0 0 1.681-2.738c.346-.718.636-1.457.868-2.21.162-.528.27-1.008.434-1.537l.488-1.777c.108-.673.27-1.393.38-2.114l.325-2.257c.054-.673.108-1.393.108-2.066.01-1.3-.063-2.598-.217-3.89Z" fill="url(#a)"/><path d="M42.782 21.087a4.285 4.285 0 0 0-.108-.768c-.163-.577-.217-1.153-.38-1.73a14.452 14.452 0 0 0-.922-2.545 9.649 9.649 0 0 0-1.952-2.882 6.928 6.928 0 0 0-2.875-1.826A6.16 6.16 0 0 0 35.19 11h-1.465a3.774 3.774 0 0 0-1.79.672 13.067 13.067 0 0 0-2.766 2.546c-.813 1.01-1.68 1.97-2.549 2.93a23.342 23.342 0 0 1-3.796 3.267c-1.248.96-2.55 1.825-3.85 2.738a62.513 62.513 0 0 0-3.092 2.306 19.669 19.669 0 0 0-2.82 2.641 9.8 9.8 0 0 0-1.356 1.922 7.998 7.998 0 0 0-.651 2.21 5.723 5.723 0 0 0 .163 2.353c.364 1.352 1.154 2.584 2.277 3.555a19.029 19.029 0 0 0 4.502 2.834c1.247.624 2.495 1.153 3.797 1.681 1.21.437 2.462.775 3.742 1.009l1.193.192 1.627.144c.888 0 1.776-.048 2.657-.144a11.899 11.899 0 0 0 1.79-.384 10.875 10.875 0 0 0 3.363-1.49 10.023 10.023 0 0 0 2.549-2.305 10.447 10.447 0 0 0 1.681-2.738c.346-.718.636-1.457.868-2.21.162-.528.27-1.008.434-1.537l.488-1.777c.108-.673.27-1.393.38-2.114l.325-2.257c.054-.673.108-1.393.108-2.066.01-1.3-.063-2.598-.217-3.89Z" fill="#000" fill-opacity=".2"/><path d="M22 28c.96 0 2 .538 2 1.54V32h-1v-2c0-.542-.486-1-1-1-.609 0-1 .426-1 1v2h-1v-2c0-.557-.447-1-1-1a.98.98 0 0 0-1 1v2h-1v-3.998h1v.498c.287-.373.543-.5 1-.5.602 0 1 0 1.5.5.5-.498 1-.5 1.5-.5ZM25 30c0-1.114.812-2 2-2 .82 0 1 .339 1 .339V28h1v4h-1v-.68s-.172.68-1 .68c-1.193 0-2-.894-2-2Zm3 0c0-.578-.46-1-1-1-.5 0-1 .474-1 1 0 .634.5 1 1 1 .547 0 1-.371 1-1ZM32 28c.69 0 1 .5 1 .5V28h1v3.964C34 33.186 33.33 34 32.035 34c-.98 0-1.922-.428-2.035-1.5h1c.113.39.485.5 1 .5.65 0 1-.365 1-.982v-.651c0 .133-.297.633-1 .633-1.194 0-2-.89-2-2 0-1.114.812-2 2-2Zm1 2c0-.594-.36-1-1-1s-1 .5-1 1 .445 1 1 1c.555 0 1-.5 1-1ZM36 28v4.002L35 32v-4h1ZM37 30c0-1.396 1-2 2-2 1.037 0 1.769.68 2 1.618h-1c-.12-.362-.47-.618-1-.618s-1 .474-1 1 .39 1 1 1 .87-.098 1-.482h1c-.236.928-.86 1.482-2 1.482-1.236 0-2-.687-2-2Z" fill="#F0F3FA"/><circle cx="35.5" cy="26.5" r=".5" fill="#F0F3FA"/><defs><linearGradient id="a" x1="25" y1="19" x2="42.843" y2="24.508" gradientUnits="userSpaceOnUse"><stop stop-color="#0B9DD6" stop-opacity=".51"/><stop offset=".295" stop-color="#098BC3"/><stop offset="1" stop-color="#045B8F"/></linearGradient></defs></svg>