<!-- by TradingView --><svg width="56" height="56" viewBox="0 0 56 56" xmlns="http://www.w3.org/2000/svg"><path fill="#F0F3FA" d="M0 0h56v56H0z"/><path d="M18.95 19.43c-4.1.74-6.47 10.41-7.15 15.16l3.6.41c6.77-12.31 12.77-15.64 14.93-15.77-2.72 1.68-5.52 6.5-6.58 8.77h4.02c3.25-6.71 5.88-8.75 6.78-9 2.14.5 2.13 3.08 2.12 6.03v.68h.4c.03-.98.03-3.31-.22-4.8-.25-1.49-1.64-1.9-2.3-1.91h-6.52c-1.6.05-3.33.84-4.95 1.91-.1-.63-.53-1.84-1.37-1.68.36.27 1.05 1.03 1 1.93a28.4 28.4 0 0 0-5.33 4.93c1.3-4.5 3.23-6.31 4.02-6.66h-2.45ZM4 33.87c1.3-4.43 5.47-13.53 11.75-14.44h2.1c-2.41.9-7.9 5.12-10.54 14.78L4 33.87ZM23.86 30h-.68l-1.9 4h.7l1.88-4Zm16.47 0h.69l-1.68 4h-.68l1.67-4Zm-14.42-1h-.68l-2.38 5h.68l2.38-5Zm.85 0h.69l-2.38 5h-.69l2.38-5Zm-2.6.52c.12-.25.05-.55-.17-.65-.21-.1-.48.01-.6.27s-.04.55.17.66c.22.1.49-.02.6-.28Zm16.92-.62c.22.1.3.4.18.66s-.4.38-.6.27c-.22-.1-.3-.4-.18-.65.12-.26.39-.38.6-.28Zm-11.55 4.32c-.93.88-2.2 1.04-2.83.36-.64-.67-.4-1.93.53-2.8.94-.88 2.2-1.04 2.84-.36.41.44.46 1.13.18 1.8H27.07c-.05.3.02.6.22.82.42.44 1.25.33 1.87-.24l.03-.03h.74c-.11.16-.24.3-.4.45Zm-2.27-1.55h2.48a.93.93 0 0 0-.23-.72c-.42-.44-1.25-.34-1.87.24-.16.15-.28.31-.38.48ZM31.54 30l-1.67 4h.71l1.07-2.47c.14-.26.62-.8 1.44-.83.83-.03.74.69.67.83L32.63 34h.73l.96-2.12c.32-.6.52-1.88-.67-1.88-.95 0-1.45.38-1.59.57l.23-.57h-.75Zm2.66 4 1.67-4h.74l-.22.57c.13-.2.63-.57 1.59-.57 1.19 0 .98 1.28.66 1.88L37.7 34h-.73l1.13-2.47c.06-.14.16-.86-.67-.83-.82.03-1.3.57-1.44.83L34.9 34h-.7Zm9.46 0 1.66-4h-.7l-1.07 2.47c-.14.26-.62.8-1.45.83-.82.03-.73-.69-.66-.83L42.56 30h-.73l-.95 2.12c-.32.6-.52 1.88.67 1.88.95 0 1.45-.38 1.59-.57l-.23.57h.75Zm.85 0 2.26-5h.63l.42 3.41L51.27 29H52l-2.26 5h-.73l1.55-3.43-2.97 2.95h-.34l-.35-3.15L45.24 34h-.73Z" fill="url(#aj4iibxcy)"/><defs><linearGradient id="aj4iibxcy" x1="4.87" y1="30.21" x2="52" y2="30.33" gradientUnits="userSpaceOnUse"><stop stop-color="#2D9BD0"/><stop offset=".51" stop-color="#1D76B1"/><stop offset="1" stop-color="#172E77"/></linearGradient></defs></svg>