<!-- by TradingView --><svg xmlns="http://www.w3.org/2000/svg" width="56" height="56"><path fill="#865AED" d="M0 0h56v56H0z"/><path d="M5.46 22.64V32H4V22h2.79l2.2 9.06L11.2 22H14v10h-1.49v-9.43L10.18 32h-2.4l-2.32-9.36zM40 22v1.61h-1.44V22H40zm0 3v7h-1.42v-7H40zm3.45 7v-5.72h1.13V25h-1.13v-3H42v3h-1v1.28h1V32h1.45zm6.9-2.21c-.44.7-1.03.94-1.78.94a2.19 2.19 0 01-2.14-1.7H52v-.53a3.5 3.5 0 10-3.43 3.5c1.5 0 2.78-.9 3.32-2.22h-1.54zm-1.85-3.52c1.13 0 1.85.78 2.05 1.73h-4.1c.19-.95.92-1.73 2.05-1.73zM32.38 32v-3.9a1.79 1.79 0 113.58 0V32h1.37v-3.98c0-1.81-1.2-3.02-2.88-3.02-.82 0-1.56.37-2.08.98V25H31v7h1.38zM23 28.43A3.32 3.32 0 0126.37 25c.9 0 1.7.35 2.3.93V25H30v3.48a3.3 3.3 0 01-1.49 2.79c.9.62 1.48 1.63 1.48 2.8a3.47 3.47 0 01-3.5 3.43 3.46 3.46 0 01-3.07-5.1h1.48c-.28.37-.52.94-.52 1.61 0 1.24.94 2.18 2.13 2.18a2.1 2.1 0 002.1-2.12c0-.65-.22-1.24-.73-1.66a2.4 2.4 0 00-1.5-.55c-.44-.05-.94-.1-1.6-.42a3.38 3.38 0 01-1.78-3zm1.38 0a2.13 2.13 0 104.26 0c0-1.2-.94-2.17-2.13-2.17-1.2 0-2.13.98-2.13 2.17zM18.36 32c.9 0 1.7-.36 2.3-.95V32H22v-7h-1.34v.95c-.6-.6-1.4-.95-2.3-.95A3.43 3.43 0 0015 28.5c0 1.92 1.5 3.5 3.36 3.5zm.14-1.27c-1.2 0-2.16-1-2.16-2.24a2.2 2.2 0 012.16-2.23c1.2 0 2.16 1 2.16 2.23a2.2 2.2 0 01-2.16 2.24z" fill="#fff"/></svg>