<!-- by TradingView --><svg xmlns="http://www.w3.org/2000/svg" width="56" height="56"><path fill="#F0F3FA" d="M0 0h56v56H0z"/><path d="M7.5 31c.28 0 .5.22.5.5v7a.5.5 0 01-1 0v-7c0-.28.22-.5.5-.5z" fill="#EFA510"/><path fill-rule="evenodd" d="M7 25.2v4.6c0 .11.09.2.2.2h.6a.2.2 0 00.2-.2V26l1.45 3.87c.03.08.1.13.19.13h.72a.2.2 0 00.19-.13L12 26v3.8c0 .11.09.2.2.2h.6a.2.2 0 00.2-.2v-4.6a.2.2 0 00-.2-.2h-1.28a.3.3 0 00-.28.2L10 28.5l-1.2-3.3a.3.3 0 00-.28-.2H7.2a.2.2 0 00-.2.2zm6.63 4.53l1.25-3.6a.2.2 0 01.2-.13h1a.2.2 0 01.2.13l1.34 3.6a.2.2 0 01-.19.27h-.6a.2.2 0 01-.19-.13l-.25-.67H14.8l-.25.67a.2.2 0 01-.18.13h-.55a.2.2 0 01-.19-.27zm1.4-1.32l.54-1.56.55 1.56h-1.09zM21 26.42c-.07-.15-.37-.42-1.04-.42-.9 0-1.95.67-1.95 2.07S19.08 30 19.95 30c.76 0 1-.28 1.05-.4v-.52c0-.08-.1-.13-.16-.1-.2.12-.5.25-.77.26-.45.02-1.07-.29-1.07-1.23 0-1.07.75-1.23.95-1.23.17 0 .44 0 .81.25.07.05.16 0 .17-.07l.07-.5v-.04zm1-.22v3.6c0 .11.09.2.2.2h.6a.2.2 0 00.2-.2v-1.35c.28-.09.91.03 1.16 1.28l.03.12c.02.09.1.15.2.15h.71a.2.2 0 00.19-.27l-.43-1.08c-.06-.14-.25-.42-.53-.46.28-.11.8-.47.8-1.08 0-.77-.56-1.11-1.15-1.11H22.2a.2.2 0 00-.2.2zm1.6.46H23v1.1h.6a.55.55 0 000-1.1zM26 27.8c0-1 .8-1.8 1.8-1.8h.4c1 0 1.8.8 1.8 1.8v.4c0 1-.8 1.8-1.8 1.8h-.4c-1 0-1.8-.8-1.8-1.8v-.4zm1-.07a1 1 0 112 0v.54a1 1 0 11-2 0v-.54z" fill="#EFA510"/><path d="M34.47 25.56c-.2-.2-.74-.55-1.5-.56-.99-.01-2.47.59-2.47 2.5a2.4 2.4 0 002.47 2.5 3 3 0 001.46-.36.17.17 0 00.07-.14v-2.1a.2.2 0 00-.2-.2h-1.57a.2.2 0 00-.2.2v.4c0 .11.09.2.2.2h.77v1c-.08.07-.2.17-.53.17-.26 0-1.47-.1-1.47-1.67 0-1.5 1.2-1.68 1.47-1.68H33c.25 0 .65 0 1.36.4a.1.1 0 00.15-.09v-.5a.1.1 0 00-.03-.07zm14.12.86c-.07-.15-.37-.42-1.04-.42-.9 0-1.95.67-1.95 2.07S46.68 30 47.55 30c.72 0 .97-.25 1.04-.38l.01-.04v-.5c0-.08-.1-.13-.16-.1-.2.12-.5.25-.77.26-.45.02-1.07-.29-1.07-1.23 0-1.07.75-1.23.95-1.23.17 0 .44 0 .81.25.07.05.16 0 .17-.07l.07-.5v-.04zM35.64 26h2.16c.11 0 .2.09.2.2v.3a.2.2 0 01-.2.2h-1.36v.89h1.36c.11 0 .2.09.2.2v.3a.2.2 0 01-.2.2h-1.36v.96h1.36c.11 0 .2.09.2.2v.35a.2.2 0 01-.2.2h-2.16a.2.2 0 01-.2-.2v-3.6c0-.11.09-.2.2-.2zM39 29.8v-3.6c0-.11.09-.2.2-.2h1.1c.1 0 .2.06.25.16L42 28.78V26.2c0-.11.09-.2.2-.2h.6c.11 0 .2.09.2.2v3.6a.2.2 0 01-.2.2h-1.13a.3.3 0 01-.26-.16L40 27.28v2.52a.2.2 0 01-.2.2h-.6a.2.2 0 01-.2-.2zm5-3.6c0-.11.09-.2.2-.2h.6c.11 0 .2.09.2.2v3.6a.2.2 0 01-.2.2h-.6a.2.2 0 01-.2-.2v-3.6zm6.7-.2c-.46 0-1.4.2-1.43 1.12-.03.77.58 1.01 1.06 1.2l.24.1c.15.05.45.22.43.46-.02.31-.32.43-.55.42h-.03c-.21-.01-.63-.03-.98-.22-.07-.04-.17 0-.17.1v.44c0 .03.01.05.03.07.17.13.6.33 1.2.3.8-.02 1.49-.5 1.5-1.2.01-.68-.62-1.02-1.06-1.18-.44-.17-.7-.3-.72-.6-.02-.2.18-.34.55-.34.3 0 .55.1.8.22a.1.1 0 00.14-.1v-.46a.09.09 0 00-.04-.08c-.14-.1-.48-.25-.96-.25z" fill="#DC7210"/><path d="M17.8 14.1a.5.5 0 01.1.7L10 25.33l-3.9-5.08a.5.5 0 11.8-.61l3.1 4.03 7.1-9.47a.5.5 0 01.7-.1z" fill="#9F9EA3"/><path d="M30.2 28.86a13 13 0 01-17.6 9.89 13 13 0 0018.3-8.93 2.98 2.98 0 01-.7-.96zm.14-3.15A12.96 12.96 0 0022.96 15a12.98 12.98 0 018.06 9.92c-.26.21-.5.48-.68.79z" fill="url(#ap4pgjtrh)"/><defs><linearGradient id="ap4pgjtrh" x1="21.79" y1="15" x2="21.79" y2="40" gradientUnits="userSpaceOnUse"><stop offset=".19" stop-color="#9F9EA3" stop-opacity=".2"/><stop offset="1" stop-color="#9F9EA3"/></linearGradient></defs></svg>