<!-- by TradingView --><svg width="56" height="56" viewBox="0 0 56 56" xmlns="http://www.w3.org/2000/svg"><path fill="#F0F3FA" d="M0 0h56v56H0z"/><path fill-rule="evenodd" d="M44 12H12v32h32V12Zm-1 1H13v23h30V13Z" fill="#202A44"/><path d="M14.5 25v8H16v-3.8l2.74 3.8 2.76-3.8V33H23v-8l-4.26 5.9L14.5 25Z" fill="#202A44"/><path fill-rule="evenodd" d="M38 33a4 4 0 1 0 0-8 4 4 0 0 0 0 8Zm0-1.5a2.5 2.5 0 1 0 0-5 2.5 2.5 0 0 0 0 5Z" fill="#202A44"/><path d="M28.5 33a4.01 4.01 0 0 0 3.97-4.6H28v1.23h2.94a2.51 2.51 0 0 1-2.44 2A2.52 2.52 0 0 1 26 29.1c0-1.4 1.12-2.54 2.5-2.54.68 0 1.3.28 1.75.73h.05l1.22-.92A4.02 4.02 0 0 0 24.47 29c0 2.2 1.8 4 4.02 4Z" fill="#202A44"/><path d="M19.28 38.67a1.6 1.6 0 0 0-1.1-.46c-.88 0-1.49.73-1.49 1.54 0 .82.6 1.54 1.5 1.54.64 0 1.27-.6 1.27-1.2h-1.28v-.61h2.02v.5A2 2 0 0 1 18.18 42c-1.33 0-2.18-.95-2.18-2.25 0-1.24.84-2.19 2.18-2.19.93 0 1.49.41 1.62.65l-.52.46ZM21 42v-4.44h.7v3.72H24V42h-3ZM28.85 39.75c0 1.26-.9 2.25-2.25 2.25-1.33 0-2.3-.97-2.3-2.25 0-1.25.94-2.25 2.3-2.25 1.32 0 2.25.98 2.25 2.25Zm-.75 0a1.5 1.5 0 0 0-1.5-1.54c-.92 0-1.56.75-1.56 1.54 0 .8.64 1.54 1.56 1.54.89 0 1.5-.73 1.5-1.54ZM29.29 42v-4.44h1.53c.36 0 .65.05.9.15.23.1.41.24.53.4.12.18.18.37.18.59 0 .18-.04.33-.12.46a.91.91 0 0 1-.31.3c-.13.08-.28.14-.44.17v.04a1.18 1.18 0 0 1 .9.5c.11.17.16.36.16.58 0 .22-.06.43-.19.6-.12.19-.3.33-.56.43-.25.1-.56.22-.94.22h-1.64Zm.71-.72h.98c.32 0 .56-.06.7-.17a.52.52 0 0 0 .22-.42.6.6 0 0 0-.1-.35.72.72 0 0 0-.32-.25c-.13-.06-.3-.1-.48-.1h-1v1.29Zm0-1.86h.76c.52 0 .77-.18.77-.62 0-.43-.3-.58-.86-.58H30v1.2ZM33.42 42h-.8l1.97-4.44L36.55 42h-.77l-1.19-2.74L33.42 42Zm.1-1.52h2.07v.63H33.5v-.63ZM37 42v-4.44h.7v3.72H40V42h-3Z" fill="#fff"/></svg>