<!-- by TradingView --><svg width="56" height="56" xmlns="http://www.w3.org/2000/svg"><path fill="#F0F3FA" d="M0 0h56v56H0z"/><path d="M46.431 40H9v-.345L47.967 25.33v12.935c0 1.356-1.024 1.722-1.536 1.735z" fill="#B50B0B"/><path d="M8.009 17.367v21.92L48 24.692V17.67c0-1.484-1.313-1.725-1.969-1.66H9.711c-1.513 0-1.765.905-1.702 1.357z" fill="#350C71"/><path d="M43.806 33.115l-1.308-3.546c.235-.332.752-.546.98-.611.378-.11 1.24-.16 1.668.513.458.72.349 1.418 0 1.822-.278.322-.785.39-1.003.382l.414 1.135-.751.305zM41.725 32.853l-1.035-2.542c.557-.664 1.3-.757 1.601-.72.026.196.077.6.077.643-.628.114-.77.324-.763.415l.763 1.877-.643.327zM32.94 33.246l-.289-.7.515-.264.324.661.937-.398c.263-2.379 2.313-2.053 2.493-2.008.18.045.256.09.346.33.072.193-.11.342-.21.392-.33-.06-1.637-.12-1.72 1.113-.066.986.638 1.407.999 1.494.506.096 1.697-.172 1.697-1.494 0-1.713 1.138-1.835 1.517-1.835.57 0 1.411.433 1.411 1.624 0 1.188-.826 1.46-1.411 1.46-.386 0-.856-.193-1.052-.375-.45.83-.87 1.386-2.027 1.386-1.013 0-1.719-.964-1.947-1.5l-.83.398c.108.266.287.688.404.923.146.293.247.472.426.472.143 0 .341-.196.423-.293l.39.488c-.146.082-.466.308-.909.425-.442.118-.67-.245-.734-.425l-.632-1.35-.247.096-.163-.424.29-.196zM31.17 36.685l-.992-2.542c.19-.12.719-.359 1.253-.62.504-.246.992 0 1.122.261l.928 1.94-.781.342-.765-1.646c-.273-.418-.624-.174-.765 0l.765 1.955-.765.31zM41.016 27.244l-2.05-5.42 1.195-.507.98 2.379 2.314-.905-.889-2.333 1.196-.476 2.095 5.496-1.163.423-.932-2.205-2.375.92.89 2.166-1.26.462zM38.445 21.916l-4.49 1.718.414.983 1.563-.614 1.712 4.471 1.226-.448-1.727-4.484 1.716-.613-.414-1.013zM31.335 24.602l-.1 6.21 1.133-.414V28.95l2.262-.821.901 1.113 1.1-.399-4.15-4.708-1.146.467zM26.907 32.39l-1.997-5.43 1.843-.805c.726-.255 2.287-.45 2.73.805.444 1.255-.184 2.004-.554 2.221l2.282 1.639-1.143.42-1.984-1.6-.749.29.766 2.024-1.194.436zM25.437 38.803l-1.402-3.76 1.295-.557c.51-.176 1.549-.31 1.86.556.312.868-.072 1.385-.331 1.535l1.596 1.123-.798.307-1.392-1.072-.526.16.526 1.392-.828.316zM10.208 32.336l1.976 5.426 1.12-.399-1.408-3.777 2.858 2.471.76-.306.548-3.617 1.375 3.712 1.035-.362-2.153-5.445-1.115.367-.53 4.322-3.425-2.826-1.041.434zM17.887 30.206c.428-.428 1.12-.357 1.413-.267 0 .19-.026.573-.133.573-.134 0-.86.02-.917.65-.046.506.312.709.496.747.338.14 1.032.103 1.108-1.167.096-1.588.86-2.162 1.777-2.717.733-.444 1.796-.452 2.235-.401.172.031.516.187.516.554 0 .368-.166.536-.249.574-2.292-.172-2.846.766-2.865 1.99-.02 1.224.917 2.238 1.91 2.143.795-.077 1.376-.555 1.567-.785l-.363-.841-.84.344-.364-.861 1.91-.803.975 2.391c-.567.383-1.522.917-1.928 1.074-2.503.966-3.619-.513-4.052-1.495-.305.612-.955.79-1.241.804-1.207-.046-1.458-.989-1.433-1.454-.019-.173.05-.624.478-1.053z" fill="#fff"/><path d="M25.463 36.488l-.486-1.19c.383-.237 1.201-.545 1.411.115.21.66-.529.992-.925 1.075z" fill="#B50B0B"/><path d="M30.226 35.524l-1.622.76c0 .16.118.478.59.478.471 0 .801-.394.907-.59l.454.317c-.08.386-.84.886-1.441.898-.48.009-.896-.322-1.044-.489-.396-.572-.77-1.727.307-2.272 1.14-.577 1.731.413 1.849.898z" fill="#fff"/><path d="M32.34 28.044v-2.692l1.725 2.012-1.725.68zM27.086 28.986l-.693-1.72c.545-.343 1.71-.79 2.01.166.299.955-.754 1.434-1.317 1.555z" fill="#350C71"/><path d="M29.477 35.342l-1.044.488c-.09-.136-.227-.488.216-.738.482-.273.767.083.828.25z" fill="#B50B0B"/><ellipse rx=".589" ry=".917" transform="rotate(-21.086 106.01 -90.068) skewX(-.058)" fill="#B50B0B"/><ellipse rx=".589" ry=".83" transform="rotate(-21.086 103.455 -103.238) skewX(-.058)" fill="#B50B0B"/></svg>