<!-- by TradingView --><svg width="56" height="56" viewBox="0 0 56 56" xmlns="http://www.w3.org/2000/svg"><path fill="url(#a2t0pplgb)" d="M0 0h56v56H0z"/><path d="M39.95 17a.5.5 0 0 1 .4.26c.9 1.62 2.04 3.13 2.84 4.71 1.23 2.43 2.47 4.85 3.73 7.28.13.26.1.5-.1.7-.4.43-.88.86-1.45 1.3l-7.58 5.8c-4.4 3.37-1.86-3.24-1.51-4.28.19-.56.33-1.58.44-3.04.13-1.9.49-3.47.85-5.26.43-2.06.62-4.2 1.09-6.3.16-.74.47-1.22 1.29-1.17Z" fill="#FFBE00"/><path d="M26.33 17.23c1.23 1.93 2.11 4.08 3.41 5.86a.6.6 0 0 1-.07.79 90.88 90.88 0 0 0-6.55 7c-.44.52-.96.63-1.24-.1a.38.38 0 0 1-.02-.23c.16-.7.3-1.4.43-2.11.2-1.18.67-2.3.93-3.5.47-2.17.93-4.36 1.38-6.55.18-.9.49-1.48 1.5-1.31.1.01.18.07.23.15Z" fill="#FF025F"/><path d="M21.02 21.8a.53.53 0 0 1 .28.62c-.8 3.13-1.38 5.84-3.03 8.96-.17.32-.6.75-.9.96-2.69 1.91-5.08 3.56-7.18 4.95-.7.46-1.63.9-2.15-.11a.31.31 0 0 1-.03-.24c.11-.4.18-.66.48-.98a37.1 37.1 0 0 0 2.36-2.68c2.78-3.5 5.63-6.92 8.33-10.48.39-.52 1.12-1.34 1.84-1Z" fill="#F45047"/><path d="M21.47 37.68c-.35-.39-.33-.8.05-1.23 1.42-1.6 2.84-3.22 4.25-4.84 2.08-2.4 4.62-4.89 6.85-7.42.41-.47.88-.86 1.42-1.04a.5.5 0 0 1 .6.27c.03.08.05.16.04.24-.07.75-.04 1.5-.22 2.24-.35 1.43-.7 4.21-1.98 5.09-3.36 2.32-6.73 5.01-10.41 6.8a.5.5 0 0 1-.6-.11Z" fill="#FF7930"/><defs><linearGradient id="a2t0pplgb" x1="10.42" y1="9.71" x2="68.15" y2="76.02" gradientUnits="userSpaceOnUse"><stop stop-color="#1A1E21"/><stop offset="1" stop-color="#06060A"/></linearGradient></defs></svg>