<!-- by TradingView --><svg xmlns="http://www.w3.org/2000/svg" width="56" height="56" viewBox="0 0 56 56"><path fill="#F0F3FA" d="M0 0h56v56H0z"/><path fill-rule="evenodd" d="M28 12.3l-14 7.87v15.66l14 7.87 14-7.87V20.17l-14-7.88zM44 19l-16-9-16 9v18l16 9 16-9V19z" fill="#5167C4"/><path d="M27.08 14.02L15 20.75v.13l5 5.59 7.08-12.45zM15 21.41v13.34l7.11-1.7L15 21.43zM15 35v.25l12.68 7.07L30.02 35H15zm12.93 7.46l.07.04 13-7.25v-.38l-5.32-5.06-7.75 12.65zM41 34.4V20.75l-.65-.36-7.1 1.95L41 34.41zM39.66 20H25.62l2.18-6.39.2-.11L39.66 20z" fill="#5167C4"/></svg>