<!-- by TradingView --><svg width="56" height="56" viewBox="0 0 56 56" xmlns="http://www.w3.org/2000/svg"><path fill="#0D2722" d="M0 0h56v56H0z"/><path d="M44 21.77c0-1.53-1.12-2.77-2.5-2.77S39 20.24 39 21.77v6.46c0 1.53 1.12 2.77 2.5 2.77s2.5-1.24 2.5-2.77v-6.46ZM17 28.77c0-1.53-1.12-2.77-2.5-2.77S12 27.24 12 28.77v6.46c0 1.53 1.12 2.77 2.5 2.77s2.5-1.24 2.5-2.77v-6.46ZM35 17.73c0-1.5-1.12-2.73-2.5-2.73S30 16.22 30 17.73v15.54c0 1.5 1.12 2.73 2.5 2.73s2.5-1.22 2.5-2.73V17.73ZM23.25 20.01c1.5-.15 2.75 1.12 2.75 2.72v15.42c0 1.43-.96 2.7-2.25 2.84-1.5.15-2.75-1.12-2.75-2.72V22.85c0-1.43.96-2.7 2.25-2.84Z" fill="#fff"/></svg>