<!-- by TradingView --><svg width="56" height="56" viewBox="0 0 56 56" xmlns="http://www.w3.org/2000/svg"><path fill="#F0F3FA" d="M0 0h56v56H0z"/><path d="M31.13 12.95c-6.84 17.08-13.1 26.22-15.37 28.65h2.88c9.86-10 12.43-23.26 12.49-28.65ZM34.9 42.66C20.59 42.53 13 43.69 11 44.28c4.34 1.3 21.14.54 29 0l-5.1-1.62Z" fill="#BDC6E0"/><path d="M38.03 8 23.49 40.8l3.3-.82c2.15-1.95 5.45-9.83 6.82-13.52.73 3.98-3.43 12.03-5.6 15.56 2.38.11 5.7-.77 7.06-1.23C42.23 30.14 40.03 14.5 38.03 8Z" fill="#011D7B"/></svg>