<!-- by TradingView --><svg width="56" height="56" viewBox="0 0 56 56" xmlns="http://www.w3.org/2000/svg"><path fill="#F0F3FA" d="M0 0h56v56H0z"/><path fill-rule="evenodd" d="M28 45a17 17 0 1 0 0-34 17 17 0 0 0 0 34Zm0-3.72a13.28 13.28 0 1 0 0-26.56 13.28 13.28 0 0 0 0 26.56Z" fill="#2E5EB2"/><path fill-rule="evenodd" d="M28 42.54a14.54 14.54 0 1 0 0-29.08 14.54 14.54 0 0 0 0 29.08Zm0 .99a15.53 15.53 0 1 0 0-31.06 15.53 15.53 0 0 0 0 31.06Z" fill="#F2F2F2"/><path d="M28.03 40.23H28c-.76-.2-1.97-.98-.94-2.55-3.23-1.49-9.87-5.7-10.55-10.6-.85-6.12 3.8-8.28 6.01-8.22 2.21.06 2.78 1.93 2.16 2.72-.63.8-2.67.34-3.69-.57a4.87 4.87 0 0 0-3.23 5.1c.4 3.86 8.27 9.21 10.26 9.23 2-.03 9.85-5.38 10.25-9.22a4.87 4.87 0 0 0-3.23-5.1c-1.02.9-3.06 1.36-3.69.56-.62-.8-.05-2.66 2.16-2.72 2.2-.06 6.86 2.1 6 8.22-.67 4.9-7.3 9.11-10.54 10.6 1.03 1.57-.18 2.35-.94 2.55Z" fill="#C8CBDD"/><path d="M17 25v5h1V26.9L19.58 30h.5l1.7-3.09V30H23v-5h-1.23l-1.69 3.4-1.8-3.4H17ZM33 25v5h1v-3.09L35.58 30h.5l1.7-3.09V30H39v-5h-1.23l-1.69 3.4-1.8-3.4H33ZM30.39 27h1.37v3h-1.37zM24 25h1.44v2h2.12v-2H29v5h-1.44v-2.38h-2.12V30H24v-5Z" fill="#2E5EB2"/><path d="M31.07 26.9a1.3 1.3 0 1 0 0-2.6 1.3 1.3 0 0 0 0 2.6Zm-.3-2.09h.6v.53h.53v.6h-.53v.52h-.6v-.53h-.52v-.59h.53v-.53Z" fill="#7BA052"/></svg>