<!-- by TradingView --><svg width="56" height="56" viewBox="0 0 56 56" xmlns="http://www.w3.org/2000/svg"><path fill="#F0F3FA" d="M0 0h56v56H0z"/><path d="M19 30.38V23c-1.96 0-2 1.44-2 2.03v6.53c0 5.35 6.11 7.16 7.33 7.16.98 0 1.67 1.19 1.67 1.78v1.75c0 1.25-4.96 3.16-7 3.75v1h18v-1c-3.91-.48-7-2.5-7-3.75V40.5a1.74 1.74 0 0 1 1.67-1.78c5.86-.48 7.33-5.18 7.33-7.16v-6.53A2 2 0 0 0 37 23v7.38c0 2.96-2.89 6.62-9 6.62-6.11 0-9-3.66-9-6.63Z" fill="#037DC6"/><circle cx="25" cy="17" r="1" fill="#037DC6"/><circle cx="31" cy="17" r="1" fill="#037DC6"/><path d="M21 14.9c0-3.25 2.61-5.9 5.83-5.9h2.34A5.87 5.87 0 0 1 35 14.9v6.58c-1.28.5-3.49 1.06-6.65 1.06-3.85 0-6.28-.83-7.35-1.38v-6.25Zm0 7.57v6.62c0 3.26 2.61 5.91 5.83 5.91h2.34A5.87 5.87 0 0 0 35 29.1v-6.36c-1.48.52-3.7.99-6.65.99-3.46 0-5.92-.65-7.35-1.26Zm4-2.52a3 3 0 1 0-3-2.99 3 3 0 0 0 3 2.99Zm6 0a3 3 0 1 0-3-2.99 3 3 0 0 0 3 2.99Z" fill="#037DC6"/></svg>