<!-- by TradingView --><svg width="56" height="56" viewBox="0 0 56 56" xmlns="http://www.w3.org/2000/svg"><path fill="#F0F3FA" d="M0 0h56v56H0z"/><path d="M14.3 17.34c.23-.11.23-.38 0-.49l-3.8-1.82c-.22-.1-.5.03-.5.24v3.65c0 .21.28.34.5.24l3.8-1.82Zm0 10.9c.23-.11.23-.38 0-.49l-3.8-1.82c-.22-.1-.5.03-.5.24v3.65c0 .21.28.34.5.24l3.8-1.82Zm6-3.21c.23.1.23.37 0 .48l-3.8 1.82c-.22.11-.5-.02-.5-.24v-3.64c0-.21.28-.35.5-.24l3.8 1.82Zm6 3.08c.23-.1.23-.37 0-.48l-3.8-1.82c-.22-.1-.5.03-.5.24v3.65c0 .21.28.34.5.24l3.8-1.83Zm12.59-.36c.22.11.22.38 0 .49l-3.8 1.82c-.23.1-.5-.03-.5-.24v-3.65c0-.21.27-.34.5-.24l3.8 1.82Zm-6.22-2.24c.22-.1.22-.37 0-.48l-3.8-1.82c-.23-.1-.5.03-.5.24v3.64c0 .22.27.35.5.24l3.8-1.82Zm0 4.97c.22.1.22.37 0 .48l-3.8 1.82c-.23.11-.5-.02-.5-.24V28.9c0-.21.27-.35.5-.24l3.8 1.82Zm-18.36-7.7c.22-.1.22-.37 0-.48l-3.8-1.82c-.23-.1-.51.03-.51.24v3.65c0 .21.28.34.5.24l3.8-1.82Zm6-3.2c.22.1.22.37 0 .48l-3.8 1.82c-.23.11-.51-.02-.51-.24V18c0-.21.28-.35.5-.24l3.8 1.82Zm6 3.08c.22-.1.22-.37 0-.48l-3.8-1.82c-.23-.1-.51.03-.51.24v3.65c0 .2.28.34.5.24l3.8-1.83Zm-12 10.54c.22.11.22.38 0 .49l-3.8 1.82c-.23.1-.51-.03-.51-.24v-3.65c0-.21.28-.34.5-.24l3.8 1.82Zm6-2.24c.22-.1.22-.37 0-.48l-3.8-1.82c-.23-.1-.51.03-.51.24v3.64c0 .22.28.35.5.24l3.8-1.82Zm6 2.12c.22.11.22.38 0 .48l-3.8 1.83c-.23.1-.51-.03-.51-.24V31.5c0-.21.28-.35.5-.24l3.8 1.82Zm-12 6.06c.22-.11.22-.38 0-.49l-3.8-1.82c-.23-.1-.51.03-.51.24v3.65c0 .21.28.34.5.24l3.8-1.82Zm6-3.21c.22.1.22.37 0 .48l-3.8 1.82c-.23.11-.51-.02-.51-.24v-3.64c0-.21.28-.35.5-.24l3.8 1.82Z" fill="url(#avlo4fz4n)"/><path d="M41.7 17.34c-.23-.11-.23-.38 0-.49l3.8-1.82c.22-.1.5.03.5.24v3.65c0 .21-.28.34-.5.24l-3.8-1.82Zm0 10.9c-.23-.11-.23-.38 0-.49l3.8-1.82c.22-.1.5.03.5.24v3.65c0 .21-.28.34-.5.24l-3.8-1.82Zm-6.01-3.21c-.22.1-.22.37 0 .48l3.8 1.82c.23.11.5-.02.5-.24v-3.64c0-.21-.27-.35-.5-.24l-3.8 1.82Zm-6 3.08c-.23-.1-.23-.37 0-.48l3.8-1.82c.23-.1.5.03.5.24v3.65c0 .21-.27.34-.5.24l-3.8-1.83Zm-12.58-.36c-.22.11-.22.38 0 .49l3.8 1.82c.23.1.5-.03.5-.24v-3.65c0-.21-.27-.34-.5-.24l-3.8 1.82Zm6.22-2.24c-.22-.1-.22-.37 0-.48l3.8-1.82c.23-.1.51.03.51.24v3.64c0 .22-.28.35-.5.24l-3.8-1.82Zm0 4.97c-.22.1-.22.37 0 .48l3.8 1.82c.23.11.51-.02.51-.24V28.9c0-.21-.28-.35-.5-.24l-3.8 1.82Zm18.36-7.7c-.22-.1-.22-.37 0-.48l3.8-1.82c.23-.1.51.03.51.24v3.65c0 .21-.28.34-.5.24l-3.8-1.82Zm-6-3.2c-.22.1-.22.37 0 .48l3.8 1.82c.23.11.5-.02.5-.24V18c0-.21-.27-.35-.5-.24l-3.8 1.82Zm-6 3.08c-.23-.1-.23-.37 0-.48l3.8-1.82c.23-.1.5.03.5.24v3.65c0 .2-.27.34-.5.24l-3.8-1.83Zm12 10.54c-.22.11-.22.38 0 .49l3.8 1.82c.23.1.51-.03.51-.24v-3.65c0-.21-.28-.34-.5-.24l-3.8 1.82Zm-6-2.24c-.22-.1-.22-.37 0-.48l3.8-1.82c.23-.1.5.03.5.24v3.64c0 .22-.27.35-.5.24l-3.8-1.82Zm-6 2.12c-.23.11-.23.38 0 .48l3.8 1.83c.23.1.5-.03.5-.24V31.5c0-.21-.27-.35-.5-.24l-3.8 1.82Zm12 6.06c-.22-.11-.22-.38 0-.49l3.8-1.82c.23-.1.51.03.51.24v3.65c0 .21-.28.34-.5.24l-3.8-1.82Zm-6-3.21c-.22.1-.22.37 0 .48l3.8 1.82c.23.11.5-.02.5-.24v-3.64c0-.21-.27-.35-.5-.24l-3.8 1.82Z" fill="url(#bvlo4fz4n)"/><defs><linearGradient id="avlo4fz4n" x1="39.06" y1="28" x2="10" y2="28" gradientUnits="userSpaceOnUse"><stop stop-color="#EDD8E0"/><stop offset="1" stop-color="#533593"/></linearGradient><linearGradient id="bvlo4fz4n" x1="35.27" y1="29.5" x2="46" y2="14.99" gradientUnits="userSpaceOnUse"><stop stop-color="#27BFCF"/><stop offset="1" stop-color="#C6E9F0"/></linearGradient></defs></svg>