<!-- by TradingView --><svg width="56" height="56" viewBox="0 0 56 56" xmlns="http://www.w3.org/2000/svg"><path fill="#F0F3FA" d="M0 0h56v56H0z"/><path d="M28.1 25.3c.6-.16 1.26-.26 1.96-.3l-.15-2.97c-1.47.08-2.83.33-4.04.73l2.22 2.54Zm-3.23-2.15c-.43.2-.83.4-1.2.65a5.4 5.4 0 0 0-2.57 3.27l4.05.24c.32-.75 1.16-1.39 2.3-1.8l-2.58-2.36Zm-.7-.64c-2.16 1.1-3.66 2.69-4.06 4.5l-4.01-.23c.35-2.23 1.68-4.27 3.92-5.87.45-.31.93-.6 1.43-.88l2.72 2.48Zm1.07-.47a15.5 15.5 0 0 1 4.61-1L29.7 18c-2.5.09-4.8.55-6.8 1.35l2.34 2.68Zm-2.94-3.37a20.1 20.1 0 0 1 7.34-1.65L29.38 12c-3.9.11-7.5 1.1-10.53 2.72l3.45 3.95Zm-5.38-2.78c-3.8 2.62-6.36 6.34-6.88 10.53l5.06.3c.49-2.94 2.6-5.53 5.69-7.3l-3.87-3.53Zm-1.87 12.97-5.05.3c.39 4.26 2.87 8.06 6.64 10.75l3.85-3.51c-3.07-1.84-5.11-4.52-5.44-7.54Zm7.2 8.45-3.37 3.98A23.81 23.81 0 0 0 29.38 44l.24-5.02c-2.7-.1-5.22-.7-7.37-1.67Zm7.42.68a20 20 0 0 1-6.83-1.38l2.28-2.7c1.38.57 2.98.93 4.69 1.05l-.14 3.03Zm1.4 1 .22 5c3.7-.17 7.14-1.13 10.04-2.67l-3.07-3.8c-2.13.88-4.58 1.4-7.2 1.47Zm6.6-2.19a20.5 20.5 0 0 1-6.65 1.2l-.14-3a16.9 16.9 0 0 0 4.8-.66l2 2.46Zm1.1-18.1L42 15.05a23.5 23.5 0 0 0-10.32-3.01l-.4 4.97c2.75.1 5.3.7 7.5 1.69ZM31.21 18c2.55.07 4.92.55 6.95 1.38l-2.11 2.39c-1.51-.5-3.23-.78-5.05-.78h-.03l.24-2.99ZM30.89 22l-.23 3c.81.01 1.58.12 2.27.3l2.45-2.76a16.98 16.98 0 0 0-4.49-.54Zm4.15 11.55-2.28-2.82c-.63.16-1.33.25-2.07.27l.14 3H31c1.44 0 2.8-.15 4.04-.45Zm-5.19.42.14-2.98a9.09 9.09 0 0 1-2.1-.35l-2.15 2.55c1.22.42 2.61.69 4.11.78Zm-5.3-1.27 2.56-2.34c-1.16-.5-1.95-1.24-2.09-2.08l-3.99.23c.17 1.34 1 2.65 2.64 3.7.27.17.57.34.88.49Zm-4.51-4.13-4 .24c.25 2.38 1.6 4.58 3.98 6.28.36.25.73.49 1.13.7l2.71-2.46c-2.15-1.17-3.58-2.86-3.82-4.76Z" fill="#303030"/></svg>