<!-- by TradingView --><svg xmlns="http://www.w3.org/2000/svg" width="56" height="56" viewBox="0 0 56 56"><path fill="#FF203F" d="M0 0h56v56H0z"/><path d="M8 23h3.38l2.64 6.65 2.6-6.65H20v11h-2v-7.64L14.34 34h-.84L10 26.36V34H8V23ZM21.65 23.25c0-.7.58-1.25 1.33-1.25.76 0 1.34.54 1.34 1.25s-.58 1.25-1.34 1.25c-.75 0-1.33-.54-1.33-1.25ZM22 26h2v8h-2v-8ZM31.57 30.1v-.12c0-2.41 1.84-3.98 4.21-3.98 2.11 0 4 1.16 4 3.9v.58h-5.9c.06 1.28.8 2 2.03 2 1.05 0 1.56-.42 1.7-1.06h2.15c-.27 1.65-1.68 2.58-3.91 2.58-2.48 0-4.28-1.45-4.28-3.9Zm6-.92c-.08-1.16-.7-1.72-1.79-1.72-1.01 0-1.7.63-1.87 1.72h3.66ZM41 22h2v7.14l2.95-3.49h2.5L45.1 29.5l3.6 4.5h-2.66L43 30.01V34h-2V22ZM26.45 27v4.4c0 1.71.96 2.6 2.74 2.6.59 0 1.04-.1 1.36-.2v-1.77c-.74.28-2.05.17-2.05-.84V27h2.05v-1.63H28.5V24h-2.05v1.37h-1.02V27h1.02Z" fill="#fff"/></svg>