<!-- by TradingView --><svg width="56" height="56" xmlns="http://www.w3.org/2000/svg"><path fill="#0C437D" d="M0 0h56v56H0z"/><path d="M21.468 14.092c.402-.077.81-.106 1.218-.086.452.028.895.14 1.311.329a4.42 4.42 0 012.013 2.004c.38.78.64 1.621.767 2.49.135.795.22 1.598.256 2.405.173 3.167-.167 6.182-.327 9.11a30.12 30.12 0 00-.053 2.151c.004.663.07 1.323.198 1.972l.151.837c.039.264.146.51.31.713.098.103.213.186.34.243.068.036.14.065.213.086.099.02.074.033.136.03a.9.9 0 00.38-.175c.137-.098.267-.208.387-.328.247-.253.476-.533.705-.815a8.77 8.77 0 00.334-.434c.105-.148.195-.328.309-.463.411-.611.807-1.232 1.206-1.853.795-1.245 1.586-2.493 2.418-3.719.832-1.225 1.67-2.427 2.612-3.577a15.484 15.484 0 013.188-3.03 6.94 6.94 0 01.962-.531c.337-.152.683-.26 1.039-.388a3.732 3.732 0 011.138-.19c.418-.008.833.074 1.221.24a4.377 4.377 0 011.917 1.776c.443.736.763 1.547.946 2.399a11.89 11.89 0 01-.043 4.927 13.17 13.17 0 01-1.8 4.478c-.44.686-.96 1.31-1.546 1.86a5.03 5.03 0 01-2.043 1.202 3.36 3.36 0 01-2.232-.177 3.779 3.779 0 01-1.689-1.433 9.658 9.658 0 01-.946-2.053c-.247-.713-.452-1.436-.656-2.155-.398-1.442-.782-2.898-1.45-4.205a6.18 6.18 0 00-1.237-1.738 4.022 4.022 0 00-1.805-.986 5.157 5.157 0 00-2.05-.059 6.506 6.506 0 00-1.964.697 14.496 14.496 0 00-3.354 2.664c-1.03 1.041-1.958 2.162-2.885 3.295-.928 1.134-1.855 2.3-2.783 3.404a26.017 26.017 0 01-3.092 3.144 9.964 9.964 0 01-1.821 1.218 5.522 5.522 0 01-2.106.611 1.874 1.874 0 01-1.12-.193 1.884 1.884 0 01-.763-.904 5.807 5.807 0 01-.374-2.28c.007-.761.07-1.521.186-2.273.105-.75.25-1.492.42-2.227a39.747 39.747 0 011.274-4.327 39.718 39.718 0 011.725-4.15 35.868 35.868 0 012.165-3.905c.405-.625.831-1.236 1.292-1.817a16.18 16.18 0 011.478-1.666 10.841 10.841 0 011.75-1.386 4.551 4.551 0 012.174-.762zm0 .877a3.836 3.836 0 00-1.902.407 6.914 6.914 0 00-1.703 1.222 17.783 17.783 0 00-2.734 3.37 41.846 41.846 0 00-3.868 7.961 39.245 39.245 0 00-1.33 4.267 19.266 19.266 0 00-.618 4.41 5.478 5.478 0 00.347 2.135c.124.315.34.578.618.752.295.15.625.203.95.154 1.378-.098 2.646-.857 3.744-1.76a25.723 25.723 0 003.042-3.102c.95-1.11 1.855-2.26 2.783-3.397.927-1.136 1.88-2.263 2.906-3.311a14.792 14.792 0 013.432-2.72 6.805 6.805 0 012.053-.726 5.446 5.446 0 012.165.065 4.331 4.331 0 011.938 1.055c.539.52.986 1.14 1.32 1.826a22.957 22.957 0 011.473 4.271c.197.723.395 1.442.618 2.145.22.704.52 1.377.894 2.004.187.307.41.589.661.838.252.248.556.429.888.526.65.175 1.34.089 1.935-.243a3.913 3.913 0 001.4-1.43 8.673 8.673 0 00.81-1.888c.387-1.332.656-2.7.805-4.084.158-1.35.233-2.71.223-4.07a10.267 10.267 0 00-.17-1.942 3.07 3.07 0 00-.78-1.62 2.375 2.375 0 00-.821-.488 2.276 2.276 0 00-.935-.116 2.53 2.53 0 00-.992.263 6.574 6.574 0 00-.928.51 15.182 15.182 0 00-3.123 2.956 42.848 42.848 0 00-2.604 3.544c-.816 1.226-1.598 2.48-2.383 3.733-.786 1.251-1.58 2.49-2.474 3.709a5.471 5.471 0 01-.377.446 1.835 1.835 0 01-.52.418.891.891 0 01-.204.069l-.182.026c-.103.013-.206.02-.31.023a2.475 2.475 0 01-.677-.072 2.683 2.683 0 01-1.277-.746 3.503 3.503 0 01-.754-1.196 11.67 11.67 0 01-.535-2.467 31.27 31.27 0 01-.188-2.362c-.14-3.095.027-6.094-.06-8.946a25.723 25.723 0 00-.15-2.07 17.513 17.513 0 00-.362-1.85 5.119 5.119 0 00-.557-1.55 2.275 2.275 0 00-1.487-.95z" fill="#fff"/></svg>