<!-- by TradingView --><svg width="56" height="56" viewBox="0 0 56 56" xmlns="http://www.w3.org/2000/svg"><path fill="#181B1E" d="M0 0h56v56H0z"/><path d="M22 19.9c0 1.04-.33 2-.89 2.8-.5.7-.5 1.8 0 2.5a4.82 4.82 0 0 1 0 5.6c-.5.7-.5 1.8 0 2.5.56.8.89 1.76.89 2.8 0 2.7-2.24 4.9-5 4.9s-5-2.2-5-4.9c0-1.04.33-2 .89-2.8.5-.7.5-1.8 0-2.5a4.82 4.82 0 0 1 0-5.6c.5-.7.5-1.8 0-2.5a4.82 4.82 0 0 1-.89-2.8c0-2.7 2.24-4.9 5-4.9s5 2.2 5 4.9ZM32.11 25.26a2.3 2.3 0 0 1 0-2.52c.56-.8.89-1.76.89-2.8A4.97 4.97 0 0 0 28 15c-2.76 0-5 2.2-5 4.93 0 1.05.33 2.01.89 2.81.5.71.5 1.8 0 2.52-.56.8-.89 1.76-.89 2.8A4.97 4.97 0 0 0 28 33c2.76 0 5-2.2 5-4.93 0-1.05-.33-2.01-.89-2.81ZM44 19.9c0 1.04-.33 2-.89 2.8-.5.7-.5 1.8 0 2.5a4.82 4.82 0 0 1 0 5.6c-.5.7-.5 1.8 0 2.5.56.8.89 1.76.89 2.8 0 2.7-2.24 4.9-5 4.9s-5-2.2-5-4.9c0-1.04.33-2 .89-2.8.5-.7.5-1.8 0-2.5a4.82 4.82 0 0 1 0-5.6c.5-.7.5-1.8 0-2.5a4.82 4.82 0 0 1-.89-2.8c0-2.7 2.24-4.9 5-4.9s5 2.2 5 4.9Z" fill="#fff"/></svg>