<!-- by TradingView --><svg width="56" height="56" viewBox="0 0 56 56" xmlns="http://www.w3.org/2000/svg"><path fill="#F0F3FA" d="M0 0h56v56H0z"/><path d="m30 22-8-8h4l2-3 2 11Zm9-7-3.45 1-3.05-2L34 25l5-10Zm6 11-3.4-2.02L41 20l-7 10 11-4Zm-2.03 11.5-1.7-3.58 1.7-3.43L32 33.92l10.97 3.58ZM34 45l.7-3.69L38 40l-10-5 6 10Zm-12 0 3-2 3.62.8L23.5 33 22 45Zm-9-8 3.66.45L19 41l3-12-9 8Zm-2-12 2.62 3-.62 4 10-7H11Zm6-10 .29 3.77L15 21l11 1-9-7Z" fill="url(#a1cewpvvx)"/><defs><linearGradient id="a1cewpvvx" x1="27.13" y1="46.62" x2="28.58" y2="12.22" gradientUnits="userSpaceOnUse"><stop stop-color="#5CCBF2"/><stop offset="1" stop-color="#6A7CBD"/></linearGradient></defs></svg>