<!-- by TradingView --><svg width="56" height="56" viewBox="0 0 56 56" xmlns="http://www.w3.org/2000/svg"><path fill="url(#aufqckqw3)" d="M0 0h56v56H0z"/><path d="M47.77 24h-5.54c-.47 0-.93.14-1.3.41-.39.27-.67.65-.82 1.08l7.16-.02c.48 0 .73.4.73.81V28h-8v4h2v-2.57h6v.72c0 .5.3.96.66 1.3.35.36.84.55 1.34.55v-5.82a2.13 2.13 0 0 0-.65-1.54 2.23 2.23 0 0 0-1.58-.64ZM38.72 24.07V24h-8.14c-.76 0-1.33.75-1.32 1.42v.07H33V32h2v-6.5h2.4c.75 0 1.33-.75 1.32-1.43ZM26.2 25.51a1.48 1.48 0 0 0 1.45-1.45V24h-9.14v4.3c-.93.3-1.65.66-2.51 1.1V24h-1.91l-3.11 3.29L7.87 24H6v8.1c.25 0 .49-.06.72-.15.69-.29 1.28-.98 1.28-1.73v-4.06l2.98 3.29L14 26.16v4.38c-1.8 1.36-2.06 1.96-2.06 1.96.15-.12 2.55-2.2 6.56-3.13v.52a2.2 2.2 0 0 0 .64 1.56c.42.4 1.1.55 1.68.55h6.83c0-.4-.15-.68-.43-.96a1.48 1.48 0 0 0-1.05-.44h-4.8a.82.82 0 0 1-.82-.82v-.8c1.46-.25 2.88-.38 4.36-.39a1.27 1.27 0 0 0 1.27-1.27v-.04c-1.9-.06-3.76.12-5.63.52V25.5h5.64Z" fill="#fff"/><defs><linearGradient id="aufqckqw3" x1="10.42" y1="9.71" x2="68.15" y2="76.02" gradientUnits="userSpaceOnUse"><stop stop-color="#1A1E21"/><stop offset="1" stop-color="#06060A"/></linearGradient></defs></svg>