<!-- by TradingView --><svg width="56" height="56" xmlns="http://www.w3.org/2000/svg"><path fill="#EB2226" d="M0 0h56v56H0z"/><path d="M36.786 44c1.935-.025 3.77-.78 5.103-2.137A7.21 7.21 0 0044 36.76V19.29c0-1.936-.754-3.771-2.086-5.153A7.25 7.25 0 0036.786 12H19.214c-1.935.025-3.77.779-5.102 2.136A7.328 7.328 0 0012 19.29v17.495A7.263 7.263 0 0019.215 44" fill="#fff"/><path d="M31.809 28.993c-.68 2.262.427 4.525 2.765 3.62-.68 1.634-1.81 4.072-1.81 6.61 0 0 0 1.71 1.256 2.138 0 0 1.76.427 1.383-1.131a7.52 7.52 0 01-.226-2.992 30.574 30.574 0 011.936-6.083s2.69-5.606 4.248-8.22c0 0 .653-1.332-.679-1.332-.402 0-.78.2-1.03.527l-3.796 6.762c-.578 1.056-1.131 1.383-1.559 1.383-.955 0-.754-1.533-.603-2.087a22.425 22.425 0 012.011-5.43c.679-1.482-.679-1.608-.679-1.608-.855-.226-1.508 1.182-1.508 1.182l-1.508 3.066a53.465 53.465 0 01-3.218 4.927s-.201.252-.352.151c-.15-.126-.076-.377-.076-.377a40.289 40.289 0 011.258-6.184c.025-.126.05-.226.05-.352a1.004 1.004 0 00-.226-.754.88.88 0 00-.704-.352c-.679-.075-1.006.252-1.609.98-1.332 1.634-2.89 4.098-3.645 5.204-.075.126-.226.1-.226-.075 0-.503 1.76-5.933 1.76-5.933s.2-.754-.402-1.005c0 0-.93-.579-1.685.552l-3.62 4.928c-.276.377-.427.251-.427.251v-.327l.578-3.217c.453-2.464-.402-2.59-.955-2.69-.402 0-.83.126-1.182.352-1.13.553-1.985 2.79-1.985 2.79s-.252.805.301 1.131c.176.1.377.176.578.151.805-.05.956-1.533 1.534-1.533.1 0 .1.126.1.15l-1.86 7.819c-.125.452.076.93.453 1.18.251.152.528.177.804.127.252-.076.478-.252.629-.478l.678-1.056c.98-1.734 2.79-4.223 2.967-4.223.075 0 .1 0 .1.075l-.679 4.6c-.075.403.151.83.528 1.006.352.126.73.1 1.056-.075.377-.302.704-.68.93-1.106.377-.604 2.187-2.74 3.293-4.701.076-.126.15 0 .126.075-.226 1.03-.403 3.77-.428 4.45-.05 1.332.98 1.483 1.006 1.483a1.89 1.89 0 001.71-.805" fill="#EB2226"/></svg>