<!-- by TradingView --><svg xmlns="http://www.w3.org/2000/svg" width="56" height="56"><path fill="#BD1A8D" d="M0 0h56v56H0z"/><path d="M17.86 20c-1.06 0-1.85.41-2.53 1.47A2.28 2.28 0 0013.1 20c-.65 0-1.43.3-1.94 1.06L11 20H9v8h2v-4.17c0-1.01.78-1.85 1.62-1.83.86 0 1.38.53 1.38 1.73V28h2v-4.17c0-1.01.67-1.85 1.5-1.83.87 0 1.5.53 1.5 1.73V28h2v-4.27c0-2.9-1.55-3.73-3.14-3.73zm7.93 0c1.05 0 1.71.38 2.16.94L28 20h2v8h-2l-.05-.85c-.5.6-1.33.85-2.16.85-2.2 0-3.79-1.48-3.79-4s1.59-4 3.79-4zm.21 2c-1.06 0-2 .89-2 2 0 1.13.94 2 2 2s2-.87 2-2c0-1.11-.94-2-2-2zm11.8 10a2.7 2.7 0 012.2 1v-4h2v11h-2l-.05-.85c-.5.6-1.33.85-2.16.85-2.2 0-3.79-1.48-3.79-4s1.59-4 3.79-4zm.21 2c-1.06 0-2 .89-2 2 0 1.13.94 2 2 2s2-.87 2-2c0-1.11-.94-2-2-2zm-19.9-2h2.5l-2.67 3.9L21 40h-2.57L16 36.59V40h-2V29h2v6.28L18.1 32zm3.9 8h2v-8h-2v8zm0-10a1 1 0 112 0 1 1 0 01-2 0zm11.23-8.93a3.49 3.49 0 012.5-1.07c1.74 0 3.27.82 3.27 3.85V28h-2v-4.13c0-1.2-.82-1.87-1.92-1.87-1.06-.02-2.08.95-2.08 1.97V28h-2v-8h2l.23 1.07zM29.73 32c-.88 0-1.88.38-2.5 1.07L27 32h-2v8h2v-4.03c0-1.02 1.02-1.99 2.08-1.97 1.1 0 1.92.67 1.92 1.87V40h2v-4.15c0-3.03-1.53-3.85-3.26-3.85zm12.52-10.93a3.49 3.49 0 012.5-1.07c1.74 0 3.25.82 3.25 3.85V28h-2v-4.13c0-1.2-.8-1.87-1.9-1.87-1.07-.02-2.1.95-2.1 1.97V28h-2v-8h2l.25 1.07z" fill="#fff"/></svg>