<!-- by TradingView --><svg xmlns="http://www.w3.org/2000/svg" width="56" height="56"><path fill="url(#ah0nfzqq1)" d="M0 0h56v56H0z"/><path d="M27.88 11.46c.71.81 1.05 1.79 1.12 2.5v7.99c0 .56-.45 1.05-1 1.05s-1-.5-1-1.05v-1.47c-.32-.27-.8-.57-1.38-.72a2.85 2.85 0 00-2.47.5A1 1 0 1122 18.63a4.85 4.85 0 015-.5V14.1a2.59 2.59 0 00-.62-1.31c-.38-.44-.98-.8-1.93-.79a2.3 2.3 0 00-2.14 1.25c-.4.74-.5 1.6-.5 1.95v.88l-.88.11c-.8.11-2.09.58-2.98 1.58-.73.81-1.29 2.07-.99 4.02a5.85 5.85 0 014.42.82 1 1 0 01-1.16 1.63c-1.21-.86-2.67-.55-3.67-.33-1.06.63-2.82 2.03-2.51 4.8a3.6 3.6 0 001.1 2.43c.74.65 1.8.88 2.8.86-.4-.87-.67-2-.48-3.32a1 1 0 111.98.28c-.23 1.6.56 2.75.9 3.06.35.34 1.6 1.25 3.28 1.77a1 1 0 11-.58 1.9c-1.62-.49-2.92-1.29-3.65-1.85a7.29 7.29 0 01-4.34-.4c-.2.95-.25 2.05.06 3.05.41 1.34 1.52 2.67 4.27 3.18 1.07-.02 2.04-.3 2.68-1.1a1 1 0 111.56 1.27 4.96 4.96 0 01-3.23 1.75c.09.3.23.64.44.96.43.62 1.2 1.25 2.64 1.46a1 1 0 11-.29 1.98 5.6 5.6 0 01-4-2.31c-.5-.73-.75-1.51-.84-2.2-2.95-.72-4.52-2.4-5.14-4.4-.55-1.74-.3-3.6.13-4.95a5.85 5.85 0 01-1.28-3.2 6.6 6.6 0 013-6.43c-.52-2.7.18-4.7 1.41-6.07a7.13 7.13 0 013.41-2.06c.1-.6.3-1.37.7-2.09A4.28 4.28 0 0124.41 10a4.38 4.38 0 013.46 1.46zm2.7-.55a1 1 0 011.09-.9c.8.07 1.96.4 2.88 1.24.8.72 1.37 1.76 1.4 3.14 1.13.3 2.5.87 3.56 1.97 1.3 1.35 1.96 3.33 1.35 6.07a6.38 6.38 0 012.74 3.22c.7 1.89.56 4.27-1.1 7.01.33 1.52.38 3.56-.3 5.33a5.62 5.62 0 01-1.98 2.61 5.9 5.9 0 01-2.78 1.01 5.77 5.77 0 01-.6 1.96 4.33 4.33 0 01-1.6 1.71c-.77.46-1.73.72-2.91.72a4.76 4.76 0 01-4.38-2.46 8.53 8.53 0 01-.95-4.11h2c0 1.03.18 2.23.69 3.13.47.82 1.23 1.44 2.64 1.44.88 0 1.47-.2 1.88-.43.4-.25.67-.57.87-.94.19-.36.3-.74.35-1.08a6.29 6.29 0 01-3.19-1.63 1 1 0 111.42-1.42 4.5 4.5 0 005.4.47c.58-.41 1-1 1.27-1.7.56-1.44.47-3.25.12-4.51l-.12-.44.25-.38c1.62-2.48 1.62-4.33 1.15-5.58a4.3 4.3 0 00-2.39-2.45l-.15-.06-.09-.07c-.01 0-.1-.04-.28-.08a5.6 5.6 0 00-.92-.09 4.45 4.45 0 00-1.81.26 1 1 0 11-.87-1.8c.8-.39 1.88-.48 2.73-.46.36.01.7.04 1.02.1.38-2-.17-3.21-.9-3.97a5.46 5.46 0 00-2.48-1.37c-.51 1.01-1.67 2.1-3.75 2.67a1 1 0 11-.53-1.93c2.29-.63 2.59-1.83 2.6-1.95v-.1c.17-1.21-.23-1.9-.7-2.33a3.16 3.16 0 00-1.73-.73 1 1 0 01-.9-1.1zm5.04 21.9c-1.67.83-2.87 1.02-3.7.93a2.72 2.72 0 01-1.95-1.07 5.01 5.01 0 01-.84-1.74c-.12-.43-.14-.9-.52-1.18a1 1 0 00-1.3.08c-.24.23-.31.54-.31.86v8.74h2v-4.88c.67.6 1.55 1.06 2.71 1.18 1.3.14 2.85-.18 4.7-1.09.26.38.56.75.93 1.12a1 1 0 001.41-1.42 4.54 4.54 0 01-1.01-1.45 2.99 2.99 0 01-.22-1.56c.12-.88.6-1.63 1-2.02a1 1 0 00-1.4-1.43 5.64 5.64 0 00-1.58 3.2c-.07.55-.05 1.13.08 1.72zM24.4 25.58c-.27.33-.4.74-.4 1.06V30a1 1 0 01-2 0v-3.35c0-.78.3-1.65.85-2.33a3.33 3.33 0 012.62-1.23c1.11 0 1.97.44 2.56 1.09a3.3 3.3 0 012.47-1.1c1.19 0 2.1.54 2.7 1.36.56.78.8 1.76.8 2.7V30a1 1 0 01-2 0v-2.86c0-.63-.16-1.17-.42-1.53a1.24 1.24 0 00-1.08-.52c-.48 0-.84.22-1.1.56-.29.37-.4.8-.4 1v1.1a1 1 0 01-2 0v-1.1c0-.8-.57-1.56-1.53-1.56-.48 0-.83.2-1.07.5z" fill="#041B47"/><defs><linearGradient id="ah0nfzqq1" x1="7.19" y1="9.61" x2="47.86" y2="46.44" gradientUnits="userSpaceOnUse"><stop stop-color="#41A9DE"/><stop offset="1" stop-color="#EAA0B9"/></linearGradient></defs></svg>