<!-- by TradingView --><svg width="56" height="56" xmlns="http://www.w3.org/2000/svg"><path fill="#004990" d="M0 0h56v56H0z"/><path d="M43.126 26.084c-1.378.303-2.566 1.428-3 2.837-.168.546-.168 1.61 0 2.15.475 1.523 1.692 2.635 3.147 2.878.958.155 2.035-.047 2.832-.54C47.21 32.723 48 31.32 48 30.034c0-1.294-.776-2.716-1.867-3.41-.853-.546-2.021-.755-3.007-.54zM44 27.5c1.287-.005 2.5 1.19 2.5 2.5s-1.15 2.503-2.5 2.5c-1.35-.003-2.487-.933-2.5-2.5-.013-1.567 1.213-2.496 2.5-2.5zM19.624 26.084c-1.378.303-2.566 1.428-3 2.837-.168.546-.168 1.61 0 2.15.476 1.523 1.692 2.635 3.147 2.878.958.155 2.035-.047 2.832-.54 1.105-.687 1.895-2.089 1.895-3.376 0-1.294-.776-2.716-1.867-3.41-.853-.546-2.02-.755-3.007-.54zm.874 1.416c1.287-.005 2.5 1.19 2.5 2.5s-1.15 2.503-2.5 2.5c-1.35-.003-2.487-.933-2.5-2.5-.013-1.567 1.213-2.496 2.5-2.5zM7.996 30v4H9.5v-5l2.022 4h.878l2.1-4v5h1.496v-8H14.5L12 31l-2.5-5H7.996v4zM25 30.003V34h1.5v-5l4 5H32v-8h-1.5v4.995l-4-4.975-.869-.02H25v4.003zM33 29.997V34h1.5v-2.664h2.1l.883 1.332.883 1.332H40s-.495-.86-.992-1.605c-.786-1.196-.882-1.374-.778-1.435.8-.437 1.276-1.114 1.409-1.995.148-1.032-.586-2.248-1.662-2.74l-.415-.184-2.277-.02L33 26v3.997zm4.228-2.521c.297.143.75.353.772 1.06.023.708-.238 1.078-.78 1.33-.155.076-.496.103-1.364.103H34.5v-2.596h1.356c.883 0 1.209.027 1.372.103z" fill="#fff"/><path d="M8.597 22.972c-1.884.204-2.306 2.721-2.28 3.955-.372-.702-.377-2.011-.218-2.924.158-.912 1.12-1.513 1.504-1.705.385-.192 1.266-.293 1.641-.354.3-.05 2.438-.164 3.469-.215 1.21-.224 3.818-.716 4.564-.888.745-.172 3.234-.485 4.385-.62.582-.052 1.877-.166 2.41-.207.665-.052 3.585.035 4.77.345 1.185.31 3.285 1.26 4.75 1.863 1.172.483 2.614.775 3.189.86l3.307.294c.404.025 1.94.249 4.851.944 2.91.694 4.587 2.076 5.061 2.68-1.79-1.093-3.652-1.73-5.307-2.094-1.323-.292-3.387-.586-4.253-.697-1.317-.192-4.844-.182-6.44-.207-1.957-1.56-3.184-2.266-4.947-2.83-1.41-.452-3.707-.463-4.679-.412l-3.043.296c-1.302.15-3.883.578-3.793 1.093.09.515 1.438 1.242 2.101 1.542-.55-.095-2.011-.354-3.455-.629s-3.404-.324-4.203-.314c-.343-.01-1.5.02-3.384.224z" fill="#FFCF01"/></svg>