<!-- by TradingView --><svg width="56" height="56" viewBox="0 0 56 56" fill="none" xmlns="http://www.w3.org/2000/svg">
<rect width="56" height="56" fill="#F0F3FA"/>
<path d="M28 46C37.9411 46 46 37.9411 46 28C46 18.0589 37.9411 10 28 10C18.0589 10 10 18.0589 10 28C10 37.9411 18.0589 46 28 46Z" fill="#007BBB"/>
<path d="M26 13C18.6613 13.9821 13 20.2938 13 27.9336C13 33.3004 15.7937 38.0118 20 40.6807V37C19.2744 36.3477 18.5502 35.5255 18 34.7149C18.0064 34.5976 18.0104 34.5266 18.0104 34.5266L21 25L26 40C25.3331 39.8841 24.6243 39.5225 24 39.3009V42.4584C25.2734 42.8114 26.6148 43 28 43C29.3852 43 30.7266 42.8114 32 42.4584V39.3009C31.3757 39.5225 30.6668 39.8841 30 40L35 25L37.9863 34.5508C37.9863 34.5508 37.9916 34.6259 38 34.7493C37.4549 35.5465 36.7154 36.3569 36 37V40.6807C40.2063 38.0118 43 33.3004 43 27.9336C43 20.2938 37.3387 13.9821 30 13V16C31.0743 16.181 32.0427 16.5525 33 17L27.9897 31L23 17C23.9643 16.5466 24.9166 16.1826 26 16V13Z" fill="#93C83E"/>
</svg>
