<!-- by TradingView --><svg width="56" height="56" viewBox="0 0 56 56" xmlns="http://www.w3.org/2000/svg"><path fill="#F0F3FA" d="M0 0h56v56H0z"/><path d="M38.97 38.35c.1-.33-.03-.57-.37-.71a.26.26 0 0 0-.22 0l-9.6 4.38c-1.19.53-1.93.84-2.22.91a4.46 4.46 0 0 1-4.9-2.2l-6.82-14.3-.11-.23a7.03 7.03 0 0 1-.73-2c-.28-2.19.83-3.7 2.78-4.6 4.37-2.02 8.75-4.03 13.15-6.01 2.74-1.24 5.06-.49 6.36 2.17 1.36 2.78 2.69 5.56 3.99 8.33a.26.26 0 0 0 .22.15 2.76 2.76 0 0 0 2.46-1.1.16.16 0 0 0 .02-.18 1170.8 1170.8 0 0 0-4.01-8.4c-.6-1.25-1.1-2.28-2.4-2.98-2.1-1.13-3.62-.44-5.89.6l-.15.06a4963.9 4963.9 0 0 0-15.27 6.97c-2.12.97-3.65 1.68-4.13 3.74a5.04 5.04 0 0 0 .43 3.39c2.4 5.06 4.81 10.13 7.23 15.18 1.06 2.21 2.48 3.75 5.15 3.44.66-.08 1.66-.42 3-1.03l11.9-5.44c.07-.03.11-.08.13-.14Zm-9.35-4c-1.98.8-3.32.08-4.24-1.66a59.72 59.72 0 0 1-1.75-3.62.15.15 0 0 0-.14-.1c-1.06-.07-1.9.3-2.51 1.1a.17.17 0 0 0-.02.19c.56 1.26 1.16 2.5 1.77 3.73 1.48 2.94 3.02 3.18 6.04 1.84 1.96-.88 3.91-1.77 5.85-2.67 2.65-1.23 4.52-2.4 3.13-5.48-.47-1.02-1.31-2.8-2.54-5.33-1.13-2.33-2.48-3.72-5.31-2.45-2.07.92-4.13 1.87-6.18 2.83a.36.36 0 0 0-.18.18.34.34 0 0 0 0 .25c.11.36.36.44.74.26 1.1-.53 2.2-1.04 3.32-1.52 1.74-.76 3.4-.98 4.45.77a56.3 56.3 0 0 1 2.82 5.84c.94 2.17.1 3.33-1.85 4.3a48.21 48.21 0 0 1-3.4 1.53Z" fill="#E6252B"/></svg>