<!-- by TradingView --><svg width="56" height="56" viewBox="0 0 56 56" xmlns="http://www.w3.org/2000/svg"><path fill="#F0F3FA" d="M0 0h56v56H0z"/><path d="M10.85 19h.1c.24.03.34.15.28.35a.25.25 0 0 1-.23.2 3.41 3.41 0 0 0-3.45 3.37c0 .37-.51.4-.55 0v-.15A3.98 3.98 0 0 1 10.85 19Z" fill="#026DB6"/><path d="M32.41 21.57a3.62 3.62 0 0 1 3.29 1.08 3.05 3.05 0 0 1 .05 4.14 3.85 3.85 0 0 1-5.16.4 3.17 3.17 0 0 1-1.14-2.53A1230.25 1230.25 0 0 1 29.5 19h2.47c.03 0 .03.02.03.05v5.42c0 .58.17 1.18.88 1.22.26 0 .48-.05.67-.18.91-.63.09-1.95-.92-1.5l-.2.1c-.04.02-.06.01-.06-.03l.01-2.48c0-.01.01-.03.03-.03ZM44.79 25.87l-.99 2.11a.02.02 0 0 1-.02.02h-2.94v-.01a.02.02 0 0 1 0-.02l2.64-4.5v-.02l-2.46-4.42V19a.02.02 0 0 1 .02-.01H44a.02.02 0 0 1 .01.01L45.1 21h.03l.9-1.99a.02.02 0 0 1 .01-.01h2.9a.02.02 0 0 1 .02.02v.01l-2.51 4.34a.02.02 0 0 0 0 .02L49 27.97V28h-.01l-.01.01h-2.99a.02.02 0 0 1-.02-.02l-1.14-2.11-.01-.01h-.03ZM16.97 40a2.91 2.91 0 0 1-2.57-1.38c-.36-.6-.4-1.2-.4-2v-5.59l.04-.02.02-.01h2.6a.03.03 0 0 1 .02.03l-.02 5.57c0 .66.28.89.93.89h2.33c.04 0 .08.02.08.06v2.42l-.04.02h-2.99ZM31.77 39.62c-1.21-.6-1.78-1.71-1.77-3.04v-5.51c0-.05.04-.07.09-.07h2.37a.05.05 0 0 1 .05.05l-.03 5.54c0 .64.33 1.16 1.05 1.09.3-.03.54-.17.7-.42a.09.09 0 0 1 .08-.04h2.5c.04 0 .05.02.04.05-.07.52-.27.98-.6 1.39-.64.8-1.5 1.25-2.54 1.33a3.65 3.65 0 0 1-1.94-.37ZM13.74 20.07a3.93 3.93 0 0 1 6.5 1.87c.07.3.1.77.1 1.4v4.6c0 .02 0 .03-.02.04a.06.06 0 0 1-.04.02h-2.2c-.03 0-.08-.02-.08-.04V22.8c0-.11-.01-.3-.05-.41a1.55 1.55 0 0 0-1.47-1.1c-.68-.03-1.2.43-1.41 1.07-.06.15-.07.36-.07.6v4.97c0 .02-.02.04-.03.05a.07.07 0 0 1-.05.02h-2.24l-.01-.01c-.02-.1-.02-1.73 0-4.91 0-.34-.03-.6-.1-.77-.19-.45-.62-.77-1.09-.94a.07.07 0 0 1-.04-.06v-2.25a.03.03 0 0 1 0-.02.03.03 0 0 1 .03-.01 3.92 3.92 0 0 1 2.24 1.05h.03ZM38.47 21c.58 0 1.04-.45 1.04-1s-.46-1-1.04-1c-.57 0-1.03.45-1.03 1s.46 1 1.03 1Z" fill="#343434"/><path d="M10.95 19.91c.14 0 .23.06.29.18.08.19-.09.35-.26.36a2.7 2.7 0 0 0-.96.2 2.5 2.5 0 0 0-1.56 2.3c0 .17-.1.25-.28.26-.1 0-.18-.07-.24-.21a.31.31 0 0 1-.02-.14 3.05 3.05 0 0 1 3.03-2.95Z" fill="#026DB6"/><path d="M10.95 21.4c-.89.01-1.49.69-1.54 1.54-.02.28-.33.36-.5.15a.21.21 0 0 1-.04-.14c0-1.16.9-2.07 2.08-2.1.05 0 .1.01.15.04.1.06.16.14.15.21 0 .2-.1.29-.3.3ZM36.32 36.49a2.98 2.98 0 0 0-2.6-2.7c-.23-.04-.44-.02-.67-.03-.12-.01-.2-.07-.24-.2v-.07c.04-.13.13-.2.27-.2 1.35-.02 2.4.48 3.15 1.51.32.46.52 1 .58 1.64 0 .13-.04.21-.15.27-.17.08-.33-.06-.34-.22Z" fill="#026DB6"/><path d="M28.52 24.38c.03.92-.32 1.83-.97 2.5a3.62 3.62 0 0 1-5.85-.93 3.43 3.43 0 0 1 .65-3.84 3.62 3.62 0 0 1 5.86.94c.19.41.3.87.31 1.33Zm-2.6 0a1 1 0 0 0-.36-.66.95.95 0 0 0-1.37.16 1.03 1.03 0 0 0 .15 1.4.95.95 0 0 0 1.37-.16c.16-.2.24-.47.21-.73ZM22.2 34.39a3.63 3.63 0 0 1 3.58-1.34 3.1 3.1 0 0 1 2.7 2.56c.06.32.09.68.08 1.1V40H26c-.01 0 0 0 0 0s0 .01 0 0v-3.36c0-1.06-1.19-1.45-1.76-.6-.34.5-.13 1.2.43 1.4a1.08 1.08 0 0 0 .93-.1h.01l.01.02V39.9c0 .04-.02.06-.06.06a3.56 3.56 0 0 1-3.2-1.1 3.55 3.55 0 0 1-.16-4.47ZM39.63 22h-2.29c-.02 0-.04.02-.04.03l-.03 5.94c0 .01.02.03.04.03h2.28c.02 0 .04 0 .04-.02l.03-5.93c0-.02-.01-.05-.03-.05ZM38.05 37.24c.67.02 1.18-.16 1.25-.95.06-.6.06-1.35.3-1.87.38-.79 1.2-1.27 2.02-1.37.39-.05.84-.06 1.34-.04.03 0 .04.01.04.04v2.65c0 .03-.03.04-.06.04-.74 0-.9.33-.97 1.03-.17 1.68-1.03 2.95-2.7 3.17-.38.05-.79.07-1.22.06-.03 0-.05-.02-.05-.05v-2.67l.02-.01v-.02h.03Z" fill="#343434"/><path d="M10.74 23.32c.4-.02.72-.35.7-.74a.73.73 0 0 0-.77-.67.72.72 0 0 0-.7.74c.01.39.36.69.77.67ZM35.5 36.55a2.21 2.21 0 0 0-2.36-2c-.17 0-.27-.08-.29-.23 0-.07.04-.13.13-.2.04-.03.1-.05.15-.05 1.14 0 1.98.45 2.54 1.37.19.32.3.69.32 1.11a.18.18 0 0 1-.07.15.25.25 0 0 1-.17.07c-.15 0-.24-.07-.25-.22Z" fill="#026DB6"/><path d="M34.65 36.58c-.07-.77-.73-1.24-1.5-1.23-.14 0-.28-.11-.24-.27.03-.13.11-.19.24-.2 1.03-.03 1.9.65 1.99 1.68 0 .12-.04.2-.15.25-.18.08-.33-.06-.34-.23Z" fill="#026DB6"/><path d="M9.28 23.39H7.03a.03.03 0 0 0-.03.03v4.55c0 .02.01.03.03.03h2.25c.02 0 .04-.01.04-.03v-4.55a.03.03 0 0 0-.04-.03Z" fill="#343434"/><path d="M33.4 37.35c.4-.03.71-.37.69-.76a.73.73 0 0 0-.79-.66.72.72 0 0 0-.7.76c.03.39.39.68.8.66Z" fill="#026DB6"/></svg>