<!-- by TradingView --><svg width="56" height="56" viewBox="0 0 56 56" xmlns="http://www.w3.org/2000/svg"><path fill="#F0F3FA" d="M0 0h56v56H0z"/><path d="M13 13h30v1.41a29.86 29.86 0 0 0-13.27 5.8c.81.61 1.6 1.27 2.37 1.96a26.86 26.86 0 0 1 10.9-4.7v2.03c-3.45.7-6.65 2.11-9.42 4.08.71.71 1.4 1.46 2.06 2.22 2.2-1.5 4.69-2.6 7.36-3.23v2.06a19.9 19.9 0 0 0-6.09 2.72c.63.8 1.22 1.6 1.77 2.43A16.93 16.93 0 0 1 43 27.75v2.1c-1.15.4-2.23.95-3.23 1.6a41.4 41.4 0 0 1 1.48 2.63c.55-.38 1.14-.71 1.75-1v2.26c-.3.17-.59.36-.87.56.32.7.61 1.4.87 2.1v5h-2.34A29.51 29.51 0 0 0 13 18.04V13Zm0 6.04A28.51 28.51 0 0 1 39.65 43h-4.06A24.51 24.51 0 0 0 13 23.05v-4.01Zm0 5A23.51 23.51 0 0 1 34.57 43h-4.1A19.51 19.51 0 0 0 13 28.06v-4.01Zm0 4.97c8.02.64 14.6 6.39 16.5 13.99h-4.21A14.51 14.51 0 0 0 13 33.08V29Zm0 5.07c5.22.58 9.54 4.13 11.23 8.92h-4.36A9.5 9.5 0 0 0 13 38.12v-4.04Zm0 5.05A8.5 8.5 0 0 1 18.71 43H13v-3.87Z" fill="#005941"/></svg>