<!-- by TradingView --><svg width="56" height="56" fill="none" xmlns="http://www.w3.org/2000/svg"><path fill="#1F79E9" d="M0 0h56v56H0z"/><path d="M41.353 39c0-5.14.136-10.672 0-11.672-.043-.317-.1-1.396-.5-3-.272-1.087-.908-2.637-1.5-3.5a26.477 26.477 0 00-1.5-2c-7.074-8.39-21.2-5.5-23.5 6-.5 2.5-.44 4.464 0 6.172.682 2.646 1.649 3.808 2.5 5 .851 1.192 1.402 1.663 2.5 2.5.906.69 1.5 1 2.5 1.5a9.251 9.251 0 002 .741c1 .259 1.775.259 2 .259h13.5" stroke="#fff" stroke-width="4"/><path d="M21.353 25.328a2 2 0 014 0v3a2 2 0 11-4 0v-3zM29.353 25.328a2 2 0 014 0v3a2 2 0 11-4 0v-3z" fill="#fff"/></svg>