<!-- by TradingView --><svg width="56" height="56" viewBox="0 0 56 56" xmlns="http://www.w3.org/2000/svg"><path fill="#0F477E" d="M0 0h56v56H0z"/><path d="M16.03 16h-.62c-.34.06-.65.16-.9.3-.2.12-.38.26-.58.41-.25.2-.52.4-.8.54-.57.28-.8.75-1.03 1.25l-.27.53c-.37.61-.5.93-.53 1.6-.02.33-.1.8-.25 1.4-.11.45-.23.82-.36 1.1-.02.07-.08.14-.13.2-.06.08-.12.15-.15.24-.12.28-.18.58-.19.9 0 .02 0 .03-.03.03H9v.5h37.9c.02 0 .02 0 .02-.02v-.46c0-.01 0-.02-.02-.02h-.55a.06.06 0 0 1-.05-.03c-.11-.2-.04-.32.04-.44.06-.1.13-.22.1-.4a.12.12 0 0 0-.03-.05c-.43-.5-.27-1.04-.12-1.56l.02-.07c.06-.22 0-.39-.2-.5-.3-.2-.6-.38-.91-.55-.12-.07-.16-.17-.13-.3l.2-.57c.12-.33.24-.66.28-.96.08-.58-.44-1.2-.87-1.54-.03-.03-.02-.05.02-.07 1-.4 1.68.31 2.18 1.04.3.42.67.76 1.12 1.01.53.3 1.27.4 1.73-.08.02-.01.04-.02.06 0 .5.36.93-.24 1.02-.62.05-.21.11-.38.19-.5 0-.02 0-.03-.02-.03-.63.04-1.09.24-1.27.85a.5.5 0 0 1-.13.23c-.45.4-1.17.19-1.62-.1-.52-.32-.78-.68-1.1-1.13l-.02-.02a2.41 2.41 0 0 0-2.41-.98c-.03 0-.04 0-.06-.02-.35-.49-.8-.5-1.38-.4-1 .19-1.99.35-2.93.33a1.9 1.9 0 0 1-.72-.17 8.38 8.38 0 0 0-3.34-.72c-.91 0-1.74.09-2.44.57-.41.3-.8.7-1.14 1.2a.06.06 0 0 1-.06.03c-.56-.08-.63.15-.72.45-.04.13-.09.27-.18.41-.01.02-.03.03-.05.02-.22-.08-.47-.05-.6.15a.17.17 0 0 1-.06.05.12.12 0 0 1-.07.01 1.57 1.57 0 0 1-1.1-.51c-.1-.1-.11-.1-.05.03.19.42.53.7 1.02.87.02 0 .02.02 0 .03-.61.55-1.48.4-2.06-.06-.06-.04-.07-.03-.03.03a1.9 1.9 0 0 0 2.26.76h.01l.02.02v.02c.06.65.38 1.1.76 1.6.15.22.22.46.23.74 0 .24.18.25.4.22.18-.02.37-.03.56-.03.03 0 .05-.01.07-.03.17-.17.11-.47.07-.71a3.21 3.21 0 0 1-.03-.16c0-.03 0-.05.03-.06h.02c.22-.13.58-.33.71-.52.17-.23-.26-.81-.4-.99-.07-.06-.06-.07.02-.02.2.13.4.3.59.5.08.08.13.19.18.28.1.2.19.38.54.36.16 0 .3-.08.42-.16.18-.1.35-.2.6-.13.4.1 1.4 1.54 1.5 1.81.15.35.11.79.07 1.15-.01.15-.08.23-.16.33a3.5 3.5 0 0 0-.05.06.08.08 0 0 1-.07.03h-2.06c-.05 0-.05-.01-.02-.03l.38-.25c.04-.02.04-.05.02-.08l-.22-.31a.06.06 0 0 1 0-.06c.1-.22.27-.51.51-.65.38-.2.67-.46.95-.77.01-.02.02-.04 0-.07l-.52-.66-.02-.02h-.02c-.25.15-.45.32-.6.54a.81.81 0 0 0-.13.27c-.02.08-.05.17-.1.25-.2.28-.42.53-.68.75a.09.09 0 0 0-.03.06c-.05.34 0 .67.1 1 .01.02 0 .03-.02.03h-11.6c-.04 0-.05-.01-.03-.04.3-.48.46-.88.41-1.46-.02-.2-.06-.34-.12-.4-.28-.35-.49-.6-.56-1.05 0-.02-.01-.04-.04-.04a3.37 3.37 0 0 1-1.8-1c-.02-.02-.03-.02-.03 0-.02.36-.07.71-.13 1.06-.04.17.02.25.08.34.03.04.06.08.08.14.05.13.04.24.02.34-.02.15-.04.3.12.46.15.15.3.3.44.41a.14.14 0 0 0 .16.02c.28-.17.48-.38.6-.64.03-.09.14-.15.3-.19.03 0 .03 0 .02.02a.83.83 0 0 1-.04.05.5.5 0 0 0-.07.1 2.29 2.29 0 0 1-.92.91l.01.02c.12.07.24.13.38.16.03 0 .03.01 0 .02a.85.85 0 0 1-.24.05.15.15 0 0 0-.1.03c-.01.02-.01.03.01.04.1.03.22.05.33.04.06 0 .06.01 0 .03a.91.91 0 0 1-.25.08c-.08.01-.08.03 0 .06.1.05.22.07.34.06h.01l.01.01v.01l-.01.01-.25.05c-.06.02-.06.04 0 .06.08.05.15.07.22.06h.02a.02.02 0 0 1 0 .04l-.01.01-.2.03c-.02 0-.03.02-.02.04l.01.03c.02.02.01.03-.02.03h-1.36c-.03 0-.04-.01-.05-.03a1.5 1.5 0 0 0-.35-.53 16.98 16.98 0 0 0-.06-.28c-.04-.22-.07-.45-.08-.68l-.04-1.81c0-.2.02-.41.04-.62l.03-.26v-.02h.02l.03 1.5c0 .05.02.06.05.02l.1-.11c.2-.22.42-.47.45-.75l.06-.81c0-.03.01-.03.03-.02l1.4.9c.18.12.44.2.75.25.03 0 .03 0 .02-.02-.28-.37-.45-.61-.5-.72a1.08 1.08 0 0 1-.06-.61h.01c.04.07.06.14.08.2.04.15.08.3.17.41.12.17.26.31.42.44a1.02 1.02 0 0 1 .26.3c.12.19.36.56.53.6.17.04.34.06.5.04a.1.1 0 0 0 .07-.03.78.78 0 0 0 .25-.42c.04-.22-.08-.56-.18-.84a6.7 6.7 0 0 1-.07-.22c-.03-.1.05-.2.11-.3l.05-.08a.12.12 0 0 0 .02-.06v-.16c.01-.22.02-.45-.09-.64a1.36 1.36 0 0 0-.33-.4v-.01l.01-.02.2.14h.05l.3-.3c.1-.1.14-.24.18-.38l.06-.2v-.02a.05.05 0 0 0-.02-.02c-.27-.15-.8.1-1.1.25h-.03c-.02.02-.04.02-.06 0-.57-.66-1.4-1.4-2.35-1.43a.1.1 0 0 1-.07-.03 3.58 3.58 0 0 1-.25-.24c-.55-.58-1.08-.44-1.66-.28-.22.06-.44.12-.68.14-.13.02-.31 0-.54-.05-.59-.12-1.18-.22-1.77-.29Zm24.01 5.77c0 .07 0 .15-.04.22-.03.07 0 .1.07.05.2-.1.36-.23.47-.38l.2-.3c.08-.13.16-.26.26-.36.28-.29.63-.43 1.05-.42.2 0 .37.22.55.45.2.27.44.57.8.61.14.03.3 0 .44-.04.21-.04.43-.09.64.04l.22.11c.33.17.8.41.86.68.07.3.3 1.38.12 1.6-.12.15-.22.3-.3.45a.05.05 0 0 1-.05.02h-2.1c-.02 0-.04-.01-.03-.04v-.15c.01-.15.02-.3.08-.43.13-.35.53-1.14.91-1.29a.16.16 0 0 0 .07-.05.15.15 0 0 0 .03-.08.99.99 0 0 0-.12-.56c0-.02-.03-.03-.05-.03l-.76.01a.27.27 0 0 1-.18-.06l-1.06-.86h-.04c-.06.07-.07.14-.03.2.42.57.84.84 1.39 1.18a.1.1 0 0 1 .04.06c.03.1 0 .2-.1.3-.36.35-.64.76-.85 1.21-.04.1-.1.17-.16.25-.07.1-.14.19-.18.31-.01.02-.03.03-.05.03h-4.5c-.03 0-.04-.01-.04-.03-.03-.13.03-.2.16-.23.04 0 .05-.02.04-.05-.16-.45-.3-1.07-.14-1.54l.49-1.44c.05-.17-.16-.5-.3-.73a5.21 5.21 0 0 1-.09-.17l.04-.65c0-.02 0-.03.02-.03l.01.02v.04c.03.24.04.44.15.67.18.38.4.74.63 1.1.21.31.95.29 1.28.2.1-.02.14.02.15.11Zm-24 1.7c.06-.16.13-.32.17-.48 0-.02 0-.03-.03-.03h-.06c-.37.05-.76.1-1.06-.16a5.99 5.99 0 0 0-.9-.64c-.04-.02-.05-.01-.04.03.13.46.21.93.26 1.41.02.17-.04.38-.09.58l-.07.28c0 .03-.02.04-.04.04h-1.95c-.2 0-.3-.08-.38-.23a.08.08 0 0 1 0-.07c.09-.26.24-.52.45-.77.57-.67.93-1.2 1.34-1.84.02-.02.04-.02.06 0 .34.21.69.44 1.02.67.62.41 1 .62 1.7.42.4-.11.68-.24.84-.39.27-.24.38-1.06.41-1.44a.02.02 0 0 1 .03 0l.1.4a24.48 24.48 0 0 1 .56 2.79c-.07.13-.12.28-.15.43 0 .02-.01.03-.03.03h-1.95a.1.1 0 0 1-.06-.02l-.32-.24-.01-.02v-.02c-.01-.26.09-.5.2-.73Zm16.54 3.58-1.08.3a.56.56 0 0 1-.29 0c-1-.24-1.9-.36-2.7-.35-1.95.02-4.4.75-4.78 2.95-.43 2.56 2.02 3.6 4.23 4.54.73.31 1.44.6 2 .95.7.42 1.31 1.05 1.15 1.93-.32 1.7-3.1 1.67-4.29 1.2-1.78-.71-2.67-2.65-2.9-4.43 0-.04-.03-.05-.06-.05h-.07a.05.05 0 0 0-.03.05l.27 4.78v.02l.02.01a.04.04 0 0 0 .03 0l1.08-.3c.1-.02.2-.02.3 0 2.29.53 5.1.61 7.04-.92a3.21 3.21 0 0 0 1.23-3.14c-.31-1.5-1.73-2.38-3.09-2.93l-2.3-.93a4.42 4.42 0 0 1-1.65-1 1.42 1.42 0 0 1 .1-1.98c.57-.52 1.39-.63 2.16-.59 2.28.15 3.49 1.93 3.76 3.96 0 .04.03.06.06.06h.05a.06.06 0 0 0 .05-.04v-.02l-.21-4.02c0-.05-.03-.06-.08-.05ZM20.91 39h-.96l-.57-.08c-1.96-.34-2.4-2.21-2.77-3.83l-.07-.28c-.17-.7-.54-1.6-1.28-1.84-.2-.06-.46-.06-.7-.05h-.16c-.02 0-.03.01-.03.04v3.18c0 .5.03.95.09 1.37.14.97.72 1.32 1.66 1.33.02 0 .03.01.03.04v.07c0 .02 0 .05-.03.05H9.16c-.02 0-.03-.03-.03-.05v-.07a.04.04 0 0 1 .03-.04c1.78-.07 1.84-1.6 1.84-3v-5.88c0-1.41-.13-2.7-1.84-2.82-.02 0-.03-.01-.03-.03v-.07c0-.03.01-.04.04-.04h6.64c1.74 0 4.83.28 5.2 2.46.46 2.75-3.26 3.35-5.14 3.39-.01 0-.02 0-.02.02l.02.01c1.78-.03 3.58.31 4.5 2 .2.34.37.7.55 1.05.29.57.58 1.15.93 1.7.3.46.7.9 1.3.84.03 0 .05.01.05.04v.07a.05.05 0 0 1-.05.05c-.73.19-1.48.31-2.24.37Zm-3.65-8.65c.09-1.51-.23-2.97-2.02-3.18a6.9 6.9 0 0 0-.84-.02c-.02 0-.03 0-.03.03v5.54c0 .02 0 .03.02.03 1.83.12 2.75-.55 2.87-2.4ZM42 36.27V27.2c0-.02.06-.03.08-.03 2.64-.02 3.98 1.7 4.23 4.18a.07.07 0 0 0 .06.07h.04c.04 0 .06-.02.05-.06l-.45-4.31c0-.03-.02-.04-.04-.04H34.59c-.02 0-.04.01-.04.03l-.46 4.36c0 .01 0 .02.02.02h.12c.01 0 .02 0 .02-.02.2-2.18 1.28-4 3.67-4.2l.55-.04c.02 0 .04 0 .04.03v9.38c0 .54-.07.98-.2 1.34-.26.76-.95.92-1.7.95-.02 0-.04.01-.04.03v.08c0 .02.01.04.04.04h7.35a.04.04 0 0 0 .04-.04v-.07c0-.03-.02-.05-.05-.05-1.74.04-1.95-1.17-1.95-2.57Z" fill="#fff"/></svg>