<!-- by TradingView --><svg width="56" height="56" viewBox="0 0 56 56" xmlns="http://www.w3.org/2000/svg"><path d="m12 35.06-1.98 4.66a.2.2 0 0 0 .27.26c7.77-3.55 20.4-11.86 26.28-11.86 3.17 0 3.9 2.53 3.88 4 0 .13.1.24.23.24.09 0 .17-.05.2-.12 1.12-2.2 1.47-6-4.65-6-4.96 0-18.12 5.79-24.14 8.72a.2.2 0 0 0-.1.1Z" fill="#91C2EA"/><path d="m14.66 28.53-1.17 2.97c-.07.17.11.33.28.26 5.47-2.4 16.84-6.8 22-6.8 5.17 0 6.8 2.53 7 3.9.01.07.07.12.14.12.05 0 .1-.03.12-.07.88-1.97-.31-5.76-7.57-5.76-5.84 0-16.17 3.49-20.69 5.26a.2.2 0 0 0-.11.12Z" fill="#71A6D8"/><path d="m12.43 24.6-1.16 2.83a.2.2 0 0 0 .26.26c6.1-2.04 18.8-5.74 24.24-5.74 5.58 0 7.78 2.5 8.18 3.75.36-2.1-1.02-5.42-9.35-5.42-6.6 0-17.39 2.79-22.04 4.21a.2.2 0 0 0-.13.12Z" fill="#72A6D8"/><path d="m17.63 20.84 1.04-2.28a.3.3 0 0 1 .22-.17c2.7-.48 9.39-1.39 15.86-1.39 6.48 0 8.72 3.38 9.07 5.17.01.06-.03.1-.1.1a.1.1 0 0 1-.07-.03c-.79-1.17-3.46-3.27-9.2-3.27-4.4 0-12.46 1.45-16.47 2.29-.25.05-.45-.2-.35-.42Z" fill="#588FC8"/><circle cx="36.5" cy="32.5" r="2.5" fill="#F57C1F"/></svg>