<!-- by TradingView --><svg width="56" height="56" viewBox="0 0 56 56" xmlns="http://www.w3.org/2000/svg"><path fill="#F0F3FA" d="M0 0h56v56H0z"/><path fill-rule="evenodd" d="M13.96 18c-1.4 0-2.6.92-2.84 2.19L8.03 35.86C7.81 36.97 8.74 38 9.97 38h32.07c1.4 0 2.6-.92 2.84-2.19l3.09-15.67c.22-1.11-.71-2.14-1.94-2.14H13.96Zm.2 2c-.77 0-1.43.49-1.56 1.15l-2.58 13.37c-.15.78.53 1.48 1.43 1.48h30.39c.77 0 1.43-.49 1.56-1.15l2.58-13.37c.15-.78-.53-1.48-1.43-1.48H14.16Z" fill="#1A428A"/><path d="M15.45 21c-.5 0-.94.34-1.03.81L13.03 29h2.26l.71-5h2l-.1.67c.48-.33 1.2-.67 1.9-.67.75 0 1.17.44 1.4.84a4.19 4.19 0 0 1 2.25-.84c1.03 0 1.55.76 1.55 1.25L24.25 31h-2.1l.54-4.27c-.04-.14-.3-.42-.68-.42-.25 0-.55.06-.8.18L20.6 31h-2.11l.55-4.27c-.04-.14-.3-.42-.68-.42-.25 0-.5.06-.72.18L17 31H12.64l-.63 3.27c-.07.38.23.73.64.73H25l2.06-11H29l-.08.45a2.8 2.8 0 0 1 2.05-.4c1.6.35 2.46 2.17 1.94 4.08-.52 1.9-2.23 3.16-3.82 2.81-.48-.1-.9-.34-1.23-.68L27 35h13.55c.5 0 .94-.34 1.03-.81L42.2 31H38l.08-.59c-.63.49-1.4.7-2.12.53-1.5-.34-2.3-2.16-1.82-4.07.49-1.9 2.09-3.16 3.58-2.81.46.1.86.35 1.17.7L39 24h2l-.71 5h2.3l1.4-7.27c.07-.38-.23-.73-.64-.73h-27.9Zm15.43 6.83c-.27.81-.87 1.32-1.36 1.13-.48-.18-.66-.98-.4-1.8.27-.8.87-1.3 1.36-1.12.48.18.66.98.4 1.8Zm6.73-1.78c-.44-.21-1.07.27-1.4 1.07-.34.8-.26 1.62.18 1.83.44.21 1.07-.27 1.4-1.07.34-.8.26-1.62-.18-1.83Z" fill="#C10230"/></svg>