<!-- by TradingView --><svg width="56" height="56" viewBox="0 0 56 56" xmlns="http://www.w3.org/2000/svg"><path fill="#024780" d="M0 0h56v56H0z"/><path d="M36 25h-4v6h4v-1.5h-2v-.75h2v-1.5h-2v-.75h2V25ZM39 25h-2v6h2v-3l2 3h2v-6h-2v3l-2-3ZM30 32h-2v7h2v-3l2 3h2v-7h-2v3.5L30 32ZM46 25h-2v6h2v-3l2 3h2v-6h-2v3l-2-3ZM9 25H7l-1 6h2l.5-2.5L9 31h2l.5-2.5.5 2.5h2l-1-6h-2l-1 3.5L9 25Z" fill="#FFFBF8"/><path d="M22 16c-4 0-8.33 4-10 6 1.4-1.26 4.75-3.84 7-4 2.25-.16 1.94 2.93 1.5 4.5 1.33-1.33 4.6-4 7-4 2.4 0 2 2.67 1.5 4 3.5-3 5.5-4 6.5-4s1.5.5 1.5 1-.5 1-1.5 1c-.8 0-1.33-.33-1.5-.5-.17.5.1 1.5 2.5 1.5 3 0 4.5-2.5 4.5-4 0-1.2-1.33-1.5-2-1.5-2.8 0-5.83 2-7 3 .67-1 1.3-3-1.5-3s-5.83 2-7 3c1.2-2.4-.5-3-1.5-3Z" fill="#F89B10"/><path fill="#FFFBF8" d="M15 25h2v6h-2z"/><path fill-rule="evenodd" d="M19 25h-1v6h3c.67 0 2-.6 2-3s-1.33-3-2-3h-2Zm1 2v2c.33 0 1-.2 1-1s-.67-1-1-1ZM14 32h-1v7H16.78C18.5 39 19 38 19 37s-1-1.5-1.5-1.5c.44 0 1-.5 1-1.5 0-1.6-1.17-2-1.72-2H14Zm1 1.5V35h.5c.5 0 1-.35 1-.75s-.28-.75-1-.75H15Zm0 3v1.1h1.22c.42 0 .78-.2.78-.6 0-.4-.5-.5-.78-.5H15ZM27 25h-1v6h2v-2h1c.67 0 2-.4 2-2s-1.33-2-2-2h-2Zm1 1.5v1h.5c.17 0 .5-.1.5-.5s-.33-.5-.5-.5H28Z" fill="#FFFBF8"/><path d="M37 32h-2v7h2v-3l1.5 3H41l-2-3.5 2-3.5h-2.5L37 35v-3Z" fill="#FFFFFA"/><path d="M22 32h3l2 7h-2.5l-.3-1.5h-1.4l-.3 1.5H20l2-7Zm1.1 4h.8l-.4-2-.4 2Z" fill="#FFFBF8"/></svg>