<!-- by TradingView --><svg width="56" height="56" xmlns="http://www.w3.org/2000/svg"><path fill="#1C4EFF" d="M0 0h56v56H0z"/><path d="M42.996 24.637v1.797c0 .34.262.589.582.589h5.634c.77 0 1.467.36 1.971.896A3.04 3.04 0 0152 30.014v2.018C52 33.67 50.749 35 49.207 35H31v-2.988h16.431c.32 0 .57-.258.57-.598L48 30.632c0-.34-.248-.618-.569-.618h-5.647c-1.529 0-2.78-.893-2.78-2.517v-3.542c0-1.625 1.25-2.955 2.78-2.955l7.646.044c1.46 0 2.566 1.246 2.566 2.703v.273h-8.418c-.32 0-.582.278-.582.617zM23 23.704V35h-4v-9.973l-3 .001L15.99 35h-3.987v-9.972L8 25.027 7.979 35H4V24.016c0-1.463 1.167-2.972 2.593-2.972h13.841c1.427 0 2.566 1.197 2.566 2.66z" fill="#fff"/><path d="M33 26.396c0 .34-.27.627-.611.627h-3.392V24.03h3.392c.34 0 .611.219.611.558v1.808zm1.736-5.352h-8.402c-.984 0-1.335.796-1.335 1.777V35h3.998v-4.986h5.739c1.64 0 2.264-1.348 2.264-2.987v-2.996c0-1.638-.624-2.987-2.264-2.987z" fill="#fff"/></svg>