<!-- by TradingView --><svg xmlns="http://www.w3.org/2000/svg" width="56" height="56" viewBox="0 0 56 56"><path fill="#F0F3FA" d="M0 0h56v56H0z"/><path d="M29.36 21.28c-5.53-1.74-7.24-3.25-7.4-3.79-.94.6-2.85 2.4-2.97 3.77a6.07 6.07 0 0 0 2.74 2.8c4.85-.2 13.15-1.04 7.63-2.78zM28.33 32.12c-5.92-1.74-7.75-3.26-7.92-3.8-1 .6-3.1 2.32-3.23 3.7a5.48 5.48 0 0 0 2.99 2.87c5.18-.2 14.07-1.03 8.16-2.77z" fill="#90D6E7"/><path d="M18.9 24.15C22.48 20.4 35 21.04 35 21.04l5.5 3.1L35 27s-5.95-.13-10.25.74c-4.03.81-7.58 4.27-7.58 4.27s-.98-4.1 1.73-7.86z" fill="#008AAA"/><path d="M20.38 14.65c2.89-3.15 12.99-2.62 12.99-2.62l4.44 2.62L33.34 17s-4.77-.06-8.24.67c-3.25.68-6.12 3.6-6.12 3.6s-.8-3.46 1.4-6.62z" fill="#3AA1BD"/><path d="M16.43 34.71c4.56-4.4 20.54-3.66 20.54-3.66L44 34.7 36.76 38s-7.74-.33-12.87.63c-5.14.96-9.67 5.37-9.67 5.37s-1.26-4.84 2.2-9.29z" fill="#007698"/></svg>