<!-- by TradingView --><svg width="56" height="56" xmlns="http://www.w3.org/2000/svg"><path fill="#0C307A" d="M0 0h56v56H0z"/><path d="M34.876 21.607c2.793.632 5.2 1.652 6.998 2.893l.157-.875c-1.66-1.375-3.87-2.655-6.296-3.8-6.087-2.875-13.031-3.805-20.101-2.819l-.968 4.232c6.97-1.102 14.073-1.018 20.21.369zM42.74 19.538L44 14l-14.222.008c2.646.86 5.168 2.056 7.45 3.569 1.925 1.277 3.653 2.743 4.994 4.297l.518-2.337zM32.974 25.377c-4.834.033-10.274.767-16.524 2.237-.939.22-2.422.644-3.33.884L12 34.123c.462-.167.54-.211.793-.31 6.681-2.583 12.766-4.305 18.529-5.771 3.918-.998 7.598-1.202 10.031-.918l.162-.874c-2.241-.599-4.978-.899-8.541-.873zM14.666 42h23.71L41 29s-5.23 1.83-12.915 5.613C20.399 38.395 14.666 42 14.666 42z" fill="#fff"/></svg>