<!-- by TradingView --><svg width="56" height="56" viewBox="0 0 56 56" xmlns="http://www.w3.org/2000/svg"><path fill="#F0F3FA" d="M0 0h56v56H0z"/><path d="M15.83 23.81c.77.32 1.51.71 2.22 1.19h3.5a13.37 13.37 0 0 0-3.4-2.02 12.93 12.93 0 0 0-11.38.75 12.16 12.16 0 0 1 9.06.08ZM4 26h.62l1.55 4.38L7.7 26h.63v5H7.9v-4.32h-.01L6.37 31h-.4l-1.53-4.32h-.01V31H4v-5ZM9.4 29.13c0 .66.32 1.48 1.11 1.48.6 0 .93-.4 1.06-.96h.4c-.17.85-.61 1.35-1.46 1.35C9.44 31 9 30.08 9 29c0-1 .44-2 1.52-2 1.07 0 1.5 1.06 1.48 2.12H9.4Zm2.18-.4c-.02-.69-.4-1.34-1.07-1.34-.66 0-1.04.66-1.1 1.35h2.17ZM12.52 27H13v.98l.03-.18c.1-.3.22-.38.48-.56.26-.18.56-.26.87-.24v.48a1.23 1.23 0 0 0-1 .38 1.37 1.37 0 0 0-.4 1.04V31h-.46v-4Z" fill="#338BB8"/><path d="M14.4 29.13c0 .66.33 1.48 1.12 1.48.59 0 .92-.4 1.05-.96h.41c-.18.85-.62 1.35-1.46 1.35-1.07 0-1.52-.92-1.52-2 0-1 .44-2 1.52-2 1.07 0 1.5 1.07 1.48 2.13h-2.6Zm2.18-.39c-.02-.7-.4-1.35-1.06-1.35-.67 0-1.04.66-1.11 1.35h2.17ZM20.8 29c0 1.08-.61 2-1.74 2-1.12 0-1.74-.91-1.74-2 0-1.09.62-2 1.74-2 1.13 0 1.74.92 1.74 2Zm-3.03 0c0 .8.43 1.6 1.3 1.6.85 0 1.28-.8 1.28-1.6s-.43-1.61-1.29-1.61c-.86 0-1.3.8-1.3 1.61h.01Z" fill="#338BB8"/><path d="M23 26h1.89c.75 0 1.43.3 1.43 1.23 0 .25-.08.5-.22.7-.14.21-.33.35-.56.41v.02c.27.03.52.17.7.4.17.22.26.52.24.82 0 .48-.14 1.42-1.6 1.42H23v-5Zm.43 2.2h1.46c.68 0 1-.39 1-.86 0-.62-.34-.93-1-.93h-1.47v1.78Zm0 2.39h1.46c.63 0 1.17-.23 1.17-1.03 0-.64-.42-.96-1.17-.96h-1.47v1.99ZM27 26h.4v.7H27V26Zm0 1h.4v4H27v-4ZM31 29c0 1.08-.53 2-1.5 2s-1.5-.91-1.5-2c0-1.09.53-2 1.5-2s1.5.92 1.5 2Zm-2.61 0c0 .8.37 1.6 1.1 1.6.75 0 1.12-.8 1.12-1.6s-.37-1.61-1.11-1.61c-.74 0-1.12.8-1.12 1.61ZM31.56 26h2.13c.86 0 1.42.53 1.42 1.44 0 .9-.56 1.56-1.42 1.56H32v2h-.44v-5Zm.44 2.6h1.59c.63 0 1.07-.49 1.07-1.17 0-.69-.44-1.02-1.07-1.02H32v2.18ZM35.55 26H36v1.77c.09-.22.19-.41.37-.54.18-.13.4-.24.61-.23.91 0 1.18.57 1.18 1.44V31h-.39v-2.5c0-.62-.18-1.09-.82-1.09-.63 0-.93.54-.95 1.24V31h-.45v-5ZM38.9 28.27c.04-.89.57-1.27 1.31-1.27.57 0 1.2.2 1.2 1.21v2.23l.05.1.08.06c.03.01.07.02.1.01.04 0 .08 0 .12-.03v.39a.88.88 0 0 1-.25.03c-.4 0-.47-.26-.47-.66l-.01-.12c-.27.5-.56.78-1.18.78-.6 0-1.09-.34-1.09-1.1 0-1.07.89-1.1 1.74-1.22.33-.04.5-.1.5-.51 0-.62-.37-.78-.84-.78-.49 0-.85.27-.86.88h-.4Zm2.1.55c-.05.11-.23.15-.34.17-.67.14-1.5.13-1.5.87 0 .46.35.74.72.74.6 0 1.13-.44 1.12-1.18v-.6ZM42 27h.42v.96h.02a1.37 1.37 0 0 1 1.42-.95v.46a1.27 1.27 0 0 0-1 .37 1.33 1.33 0 0 0-.4 1.01V31H42v-4ZM44 27h.4v.77h.03c.1-.24.27-.44.48-.58.22-.13.46-.2.7-.19.48 0 .9.25 1.04.76.1-.23.27-.43.47-.56.2-.14.44-.2.68-.2.8 0 1.2.45 1.2 1.36V31h-.45v-2.61c0-.64-.22-1-.85-1-.76 0-.98.69-.98 1.41V31h-.44v-2.64c0-.52-.2-.96-.76-.96-.76 0-1.07.62-1.08 1.43V31H44v-4ZM49.3 28.27c.04-.89.42-1.27 1.16-1.27.57 0 1.2.2 1.2 1.22v2.11c0 .04.03.07.05.1a.2.2 0 0 0 .08.06l.1.01.11-.03v.39a.83.83 0 0 1-.25.03c-.4 0-.46-.26-.46-.66h-.02c-.28.5-.56.77-1.18.77-.6 0-.93-.34-.93-1.1 0-1.07.73-1.1 1.58-1.23.33-.04.51-.09.51-.51 0-.62-.38-.78-.85-.78-.48 0-.7.27-.7.88h-.4Zm1.96.56h-.02c-.05.1-.22.14-.33.16-.67.14-1.36.16-1.36.9 0 .46.2.72.57.72.6 0 1.14-.44 1.13-1.18v-.6ZM20.16 22.19c1.59.61 3.06 1.57 4.32 2.81h3.18a13.51 13.51 0 0 0-16.56-2.9 12.64 12.64 0 0 1 9.06.09Z" fill="#4A707E"/><path d="M24.44 20.72c2.19.82 4.14 2.3 5.63 4.28h3.04a13.55 13.55 0 0 0-17.73-4.36 12.77 12.77 0 0 1 9.06.08ZM31.31 35.4a12.94 12.94 0 0 1-4.09-2.4h-3.21a13.6 13.6 0 0 0 4.98 3.14 14.41 14.41 0 0 0 11.38-.67 13.6 13.6 0 0 1-9.06-.07Z" fill="#338BB8"/><path d="M35.59 33.97c-.74-.26-1.44-.58-2.12-.97h-3.52a14.69 14.69 0 0 0 14.7 1.05c-2.95.99-6.13.96-9.06-.08Z" fill="#4A707E"/><path d="M41.91 33h-4.8c.17.06.33.2.49.27a14.69 14.69 0 0 0 11.37-.66c-2.27.77-4.7.85-7.06.39Z" fill="#338BB8"/></svg>