<!-- by TradingView --><svg xmlns="http://www.w3.org/2000/svg" width="56" height="56"><path fill="#F0F3FA" d="M0 0h56v56H0z"/><circle cx="27" cy="13" fill="#D859D3" r="2"/><circle cx="24.71" cy="16.29" fill="#A2439D" r="1.5"/><ellipse cx="27.13" cy="18.54" rx="1.32" ry="1.31" fill="#A2439D"/><circle cx="28.38" cy="21.24" fill="#A2439D" r="1.05"/><circle cx="30.94" cy="21.82" fill="#D859D3" r="1.05"/><circle cx="33.05" cy="23.45" fill="#009D7A" r="1.05"/><circle cx="34.37" cy="25.66" fill="#00B08C" r="1.05"/><circle cx="34.73" cy="28.39" fill="#005BD5" r="1.05"/><circle cx="34.14" cy="30.9" fill="#0081FF" r="1.05"/><circle cx="32.39" cy="33.11" fill="#0097FF" r="1.05"/><circle cx="30.2" cy="34.32" fill="#882784" r="1.05"/><circle cx="27.52" cy="34.78" fill="#A2439D" r="1.05"/><circle cx="25.07" cy="34.06" fill="#D859D3" r="1.05"/><circle cx="22.92" cy="32.51" fill="#009D7A" r="1.05"/><circle cx="21.49" cy="30.26" fill="#00B08C" r="1.05"/><circle cx="21.23" cy="27.61" fill="#005BD5" r="1.05"/><circle cx="21.77" cy="25.14" fill="#0081FF" r="1.05"/><circle cx="23.52" cy="22.89" fill="#0097FF" r="1.05"/><circle cx="25.74" cy="21.51" fill="#882784" r="1.05"/><circle cx="28" cy="28" r="4" fill="#005BD5"/><ellipse cx="30.68" cy="18.87" rx="1.32" ry="1.31" fill="#D859D3"/><ellipse cx="34.11" cy="20.77" rx="1.32" ry="1.31" fill="#009D7A"/><ellipse cx="36.24" cy="23.6" rx="1.32" ry="1.31" fill="#00B08C"/><ellipse cx="37.43" cy="27.24" rx="1.32" ry="1.31" fill="#005BD5"/><ellipse cx="37" cy="30.75" rx="1.32" ry="1.31" fill="#0081FF"/><ellipse cx="35.2" cy="34.06" rx="1.32" ry="1.31" fill="#0097FF"/><ellipse cx="32.39" cy="36.4" rx="1.32" ry="1.31" fill="#882784"/><ellipse cx="28.65" cy="37.37" rx="1.32" ry="1.31" fill="#A2439D"/><ellipse cx="25.15" cy="37.02" rx="1.32" ry="1.31" fill="#D859D3"/><ellipse cx="21.75" cy="35.23" rx="1.32" ry="1.31" fill="#009D7A"/><ellipse cx="19.52" cy="32.41" rx="1.32" ry="1.31" fill="#00B08C"/><ellipse cx="18.5" cy="28.76" rx="1.32" ry="1.31" fill="#005BD5"/><ellipse cx="18.86" cy="25.14" rx="1.32" ry="1.31" fill="#0081FF"/><ellipse cx="20.71" cy="21.77" rx="1.32" ry="1.31" fill="#0097FF"/><ellipse cx="23.52" cy="19.57" rx="1.32" ry="1.31" fill="#882784"/><circle cx="29.41" cy="16" fill="#D859D3" r="1.5"/><circle cx="33.93" cy="17.5" r="1.5" fill="#009D7A"/><circle cx="37.5" cy="20.5" fill="#00B08C" r="1.5"/><circle cx="39.69" cy="24.86" fill="#005BD5" r="1.5"/><circle cx="40" cy="29.5" r="1.5" fill="#0081FF"/><circle cx="38.31" cy="34.06" fill="#0097FF" r="1.5"/><circle cx="35.5" cy="37.5" fill="#882784" r="1.5"/><circle cx="31" cy="39.69" fill="#A2439D" r="1.5"/><circle cx="26.48" cy="40" fill="#D859D3" r="1.5"/><circle cx="21.93" cy="38.33" fill="#009D7A" r="1.5"/><circle cx="18.26" cy="35.5" fill="#00B08C" r="1.5"/><circle cx="16.29" cy="31.31" fill="#005BD5" r="1.5"/><circle cx="16.04" cy="26.49" fill="#0081FF" r="1.5"/><circle cx="17.47" cy="21.89" fill="#0097FF" r="1.5"/><circle cx="20.5" cy="18.5" fill="#882784" r="1.5"/><ellipse cx="32.88" cy="13.75" rx="1.96" ry="1.95" fill="#009D7A"/><ellipse cx="37.83" cy="16.68" rx="1.96" ry="1.95" fill="#00B08C"/><ellipse cx="41.53" cy="21.41" rx="1.96" ry="1.95" fill="#005BD5"/><circle cx="43" cy="27" fill="#0081FF" r="2"/><circle cx="42" cy="33" fill="#0097FF" r="2"/><ellipse cx="39.33" cy="37.87" rx="1.96" ry="1.95" fill="#882784"/><ellipse cx="34.41" cy="41.55" rx="1.96" ry="1.95" fill="#A2439D"/><circle cx="29" cy="43" r="2" fill="#D859D3"/><circle cx="23" cy="42" fill="#009D7A" r="2"/><ellipse cx="18.03" cy="39.38" rx="1.96" ry="1.95" fill="#00B08C"/><ellipse cx="14.34" cy="34.66" rx="1.96" ry="1.95" fill="#005BD5"/><circle cx="13" cy="29" fill="#0081FF" r="2"/><circle cx="13.65" cy="23" fill="#0097FF" r="2"/><ellipse cx="16.56" cy="18.13" rx="1.96" ry="1.95" fill="#882784"/><ellipse cx="21.37" cy="14.45" rx="1.96" ry="1.95" fill="#A2439D"/></svg>