<!-- by TradingView --><svg width="56" height="56" xmlns="http://www.w3.org/2000/svg"><path fill="#3C237C" d="M0 0h56v56H0z"/><path d="M22.565 28.248c.498 0 1.978.088 1.978-.604 0-.542-.94-.665-1.445-.644H21v4h-1v-4.996h3.191a3.666 3.666 0 011.862.413c.206.099.379.248.5.432.123.183.189.395.193.612 0 .171-.043.34-.126.492a1.1 1.1 0 01-.349.383c-.343.24-.744.396-1.167.455L26 30.999l-1.212.002-1.734-2.102-.489-.65zM28 31v-5h1v5h-1zm7.891 0L32 27.306v3.696h-1v-5h1.108L36 29.734V26h1v5h-1.109zM45 29.287c0 .508-.29.92-.868 1.24a5.024 5.024 0 01-2.138.474 5.024 5.024 0 01-2.137-.475c-.571-.32-.857-.733-.857-1.239v-3.286h1v2.934c-.014.85 1.335 1.065 1.994 1.065.658 0 2.017-.215 2.006-1.065v-2.933h1v3.285zm6.149 1.331a5.264 5.264 0 01-2.173.379c-1.252 0-2.244-.216-2.976-.648l.897-.69c.652.339 1.398.5 2.15.467 1.156 0 1.953-.178 1.953-.57.02-.587-1.022-.598-1.572-.654-.992-.102-3.145-.14-3.145-1.456 0-.431.252-.778.756-1.04a4.429 4.429 0 012.055-.4 5.43 5.43 0 012.61.558l-.826.664a3.797 3.797 0 00-1.832-.379c-.49-.023-1.748.153-1.748.597.001.552 1.097.5 1.678.615.966.084 3.024.19 3.024 1.494 0 .447-.284.802-.851 1.063zM8.555 32.93a.767.767 0 01.235.616.726.726 0 01-.244.609c-.22.145-.48.213-.743.194h-.3v.625H7v-2.243h.796c.268-.023.537.047.759.2zm-.37.883a.432.432 0 00.09-.295.31.31 0 00-.117-.276.647.647 0 00-.365-.082h-.288v.754h.338a.453.453 0 00.342-.1v-.001zm3.045-1.083h.502v2.242h-.503v-.882h-.896v.883h-.504V32.73h.504v.936h.896v-.937zm3.306 2.243l-.21-.484h-.944l-.21.484h-.536l.974-2.243h.486l.975 2.243h-.535zm-.68-1.574l-.284.65h.565l-.281-.65zm3.949.075a.659.659 0 01-.428.697l.57.802h-.62l-.499-.715h-.35v.715h-.501V32.73h.854c.262-.024.525.038.749.176a.678.678 0 01.225.568zm-.605.266a.343.343 0 00.094-.266.28.28 0 00-.098-.248.622.622 0 00-.338-.068h-.378v.666h.368a.546.546 0 00.353-.083H17.2zm3.783-.18l-.608 1.227h-.3l-.606-1.227v1.413h-.503V32.73h.682l.58 1.233.584-1.233h.677v2.244h-.504l-.002-1.413zm3.309 1.413l-.21-.484h-.945l-.21.484h-.535l.974-2.243h.486l.974 2.243h-.534zM23.61 33.4l-.284.65h.565l-.281-.65zm3.158 1.13a.745.745 0 00.606-.291l.322.33a1.216 1.216 0 01-1.76.102 1.1 1.1 0 01-.338-.826 1.112 1.112 0 01.343-.833 1.156 1.156 0 01.84-.334 1.192 1.192 0 01.928.42l-.313.354a.73.73 0 00-.593-.296.7.7 0 00-.485.184.642.642 0 00-.202.498.674.674 0 00.191.502.626.626 0 00.46.19zm3.594-1.8v.445h-1.121v.462h1.008v.426h-1.008v.466h1.157v.445h-1.66v-2.245h1.624zm1.725 1.664a.413.413 0 00.339.156.412.412 0 00.336-.156.665.665 0 00.124-.425V32.73h.504v1.254a.99.99 0 01-.27.751 1.05 1.05 0 01-1.388-.001.992.992 0 01-.273-.75v-1.253h.504v1.238a.653.653 0 00.124.425zm3.423-1.232v1.811h-.502v-1.81h-.64v-.434h1.782v.433h-.64zm1.651-.432h.502v2.242h-.502V32.73zm2.737 1.8a.748.748 0 00.607-.29l.322.33a1.215 1.215 0 01-1.297.373 1.217 1.217 0 01-.465-.271 1.1 1.1 0 01-.338-.827 1.115 1.115 0 01.344-.832 1.16 1.16 0 01.84-.333 1.195 1.195 0 01.929.42l-.313.353a.734.734 0 00-.594-.295.7.7 0 00-.485.184.644.644 0 00-.202.497.675.675 0 00.191.502.625.625 0 00.461.189zm3.561.443l-.21-.484h-.945l-.21.484h-.535l.973-2.243h.487l.973 2.243h-.533zm-.682-1.574l-.283.65h.565l-.282-.65zm2.121 1.574V32.73h.503v1.797h.96v.446l-1.463.001zm3.004-1.796a.192.192 0 00-.073.158.176.176 0 00.088.156c.13.063.267.108.41.136.182.037.354.118.498.236a.583.583 0 01.177.459.603.603 0 01-.227.49.912.912 0 01-.598.187 1.386 1.386 0 01-.964-.395l.3-.366c.179.184.418.297.674.318a.346.346 0 00.217-.06.2.2 0 00.056-.251.2.2 0 00-.06-.07 1.087 1.087 0 00-.332-.12 1.462 1.462 0 01-.576-.242.571.571 0 01-.183-.468.581.581 0 01.231-.493c.168-.12.37-.18.576-.173.154 0 .306.027.451.077.144.049.277.122.394.218l-.256.366a.997.997 0 00-.605-.22.305.305 0 00-.198.057zm-32.676-3.719a9.286 9.286 0 01-.623-.307l-.168.307h.791zM11 31v-5H9.796L7.5 29.005l-2.296-3.003H4v5h1v-3.607L7.076 30h.893L10 27.394V31h1z" fill="#fff"/><path d="M14.68 29.348l.155-.285a5.617 5.617 0 01-.862-.565l-1.417 2.496h1.098l.528-.997h2.923l-.069-.044c-.556-.166-1.1-.368-1.63-.604h-.725z" fill="#fff"/><path d="M13.15 26.759c0-2.483 6.49-4.497 14.495-4.497 5.018 0 9.44.791 12.042 1.994C37.554 22.35 32.33 21 26.22 21c-8.005 0-14.495 2.314-14.495 5.167 0 1.52 1.839 2.884 4.766 3.83h1.106c-2.739-.815-4.447-1.965-4.447-3.238z" fill="#fff"/><path d="M15.002 28.752l.874-1.614 1.563 2.647c.224.07.277.146.522.212l-.522-.212c.444.126.88.52 1.376.626l-2.496-4.395h-.938l-1.101 1.94c.17.322.418.596.722.796z" fill="#fff"/><path d="M15.375 26h.942l2.838 5H18.08l-.346-.644-.195-.357-1.665-2.872" fill="#fff"/></svg>