<!-- by TradingView --><svg width="56" height="56" fill="none" xmlns="http://www.w3.org/2000/svg"><path fill="#F0F3FA" d="M0 0h56v56H0z"/><path d="M43 18H24.573c-1.18-.003-2.414-.796-3.37-1.469-.412-.277-1.063-.693-1.425-1.03-.272-.297-.702-.501-1.04-.501-.15-.01-.305.023-.459.047L16.656 14l.511 1.854a1.568 1.568 0 00.133 1.553c.245.424.7.872.872 1.327.273.693.617 1.567.661 2.356.025.437-.037.805-.147 1.201L14 40s7.259-3.205 9.375-11.281c0 0 3.445 1.64 6.438 5.531 1.752 2.279 3.404 5.313 3.867 9.75 0 0 1.72-2.283 1.72-7 3.202.879 5.032.467 7.177-.06C31.28 32.925 29.7 24 29.7 24c8.277 0 13.3-6 13.3-6z" fill="#16387A"/></svg>