<!-- by TradingView --><svg width="56" height="56" viewBox="0 0 56 56" xmlns="http://www.w3.org/2000/svg"><path fill="#F0F3FA" d="M0 0h56v56H0z"/><path d="m4 33 2.81-12h3.68l.59 8.97h.08l5-8.97H20l-2.81 12h-2.55l1.32-5.68a52.55 52.55 0 0 1 1-3.62h-.09L11.7 33H9.14l-.56-9.3h-.07l-.15.98a58.58 58.58 0 0 1-.56 2.74L6.5 33H4ZM22.54 33c-.7 0-1.32-.12-1.85-.37a2.81 2.81 0 0 1-1.24-1.11c-.3-.5-.45-1.12-.45-1.87 0-.73.1-1.43.32-2.1.21-.68.53-1.29.95-1.82A4.66 4.66 0 0 1 24 24c1 0 1.75.22 2.25.67.5.44.75 1 .75 1.7 0 .45-.1.87-.32 1.24-.2.37-.53.7-.95.96-.43.27-.96.47-1.61.62-.65.14-1.4.2-2.27.2h-.41l-.02.17v.16c0 .46.14.83.42 1.1.28.28.67.42 1.18.42.47 0 .9-.05 1.28-.16.38-.1.83-.27 1.36-.51v1.76c-.47.22-.95.4-1.44.5-.48.12-1.04.17-1.68.17Zm-.84-5.18h.36c.62 0 1.12-.06 1.5-.2.4-.12.68-.3.86-.5.18-.22.27-.45.27-.7 0-.25-.08-.43-.23-.55a.92.92 0 0 0-.61-.18c-.3 0-.6.09-.89.27-.3.18-.55.43-.78.75-.22.32-.38.7-.48 1.11ZM27 33l2.1-9h2.05l-.19 1.8h.1c.26-.37.55-.7.87-.96.31-.27.65-.48 1.02-.62a3.19 3.19 0 0 1 1.65-.2c.17.02.3.04.4.07l-.59 2.29-.38-.09a3 3 0 0 0-.5-.04 2.64 2.64 0 0 0-1.78.7 3.4 3.4 0 0 0-.68.88 5 5 0 0 0-.46 1.22L29.67 33H27ZM37.34 33c-.53 0-.96-.1-1.3-.3-.36-.21-.61-.5-.78-.89a3.32 3.32 0 0 1-.26-1.35 7.28 7.28 0 0 1 .2-1.68L36.25 24h2.48l-1.13 5.16-.1.51-.03.44c0 .33.07.57.22.73.15.16.37.24.67.24.38 0 .72-.15 1.01-.46.3-.31.57-.73.8-1.24.22-.52.4-1.1.54-1.72l.8-3.66H44l-1.96 9h-1.9l.18-1.8h-.09c-.24.35-.5.66-.78.94-.28.27-.6.48-.94.63-.35.15-.74.23-1.17.23ZM46.96 33c-.63 0-1.18-.04-1.65-.12-.47-.07-.9-.2-1.31-.38v-1.93a5.93 5.93 0 0 0 2.82.7c.28 0 .54-.04.78-.1.25-.07.45-.17.6-.31a.68.68 0 0 0 .23-.53.68.68 0 0 0-.12-.39 1.46 1.46 0 0 0-.44-.37c-.21-.14-.52-.31-.93-.5-.4-.2-.75-.42-1.04-.63-.28-.21-.5-.45-.65-.72a1.94 1.94 0 0 1-.22-.95c0-.6.15-1.1.45-1.51.3-.42.73-.73 1.29-.94a5.77 5.77 0 0 1 2.02-.32c.57 0 1.12.06 1.65.17.53.11 1.05.3 1.56.57l-.88 1.67a6.46 6.46 0 0 0-1.1-.47 3.82 3.82 0 0 0-1.18-.19c-.28 0-.54.06-.77.18a.58.58 0 0 0-.35.55c0 .14.04.26.13.38.08.1.22.22.41.33.2.12.47.25.8.4.4.19.76.39 1.07.61.3.22.55.47.73.76.18.29.26.63.26 1.02 0 .66-.17 1.22-.5 1.67-.35.44-.83.78-1.46 1-.62.24-1.35.35-2.2.35Z" fill="#488FA5"/></svg>