<!-- by TradingView --><svg width="56" height="56" viewBox="0 0 56 56" xmlns="http://www.w3.org/2000/svg"><path fill="#F0F3FA" d="M0 0h56v56H0z"/><path fill-rule="evenodd" d="m35.96 11.43-4.55 2.4a.16.16 0 0 1-.22-.06.15.15 0 0 1-.02-.08l.24-5.53a.15.15 0 0 0-.07-.14.16.16 0 0 0-.16 0l-2.61 1.44a.16.16 0 0 0-.08.13l-.22 5.83c0 .03 0 .05-.02.08a.16.16 0 0 1-.06.05l-10.46 5.53a.16.16 0 0 0-.06.06.15.15 0 0 0-.02.07l-.5 12.86c0 .03 0 .05-.02.08a.16.16 0 0 1-.07.05l-4.84 2.56a.16.16 0 0 0-.06.05.15.15 0 0 0-.02.08l-.14 3.2a.15.15 0 0 0 .08.14.16.16 0 0 0 .16 0l4.56-2.42a.16.16 0 0 1 .22.06l.02.08-.25 5.54c0 .03 0 .06.02.08l.06.06a.16.16 0 0 0 .16 0L35.26 34a.16.16 0 0 0 .08-.13l.86-22.3a.15.15 0 0 0-.08-.13.16.16 0 0 0-.16 0Zm-4.93 6.19-.48 12.82a.17.17 0 0 1-.1.14l-10.44 5.54a.17.17 0 0 0-.1.14l-.09 2.11a.17.17 0 0 0 .08.16.18.18 0 0 0 .18 0l12.4-6.56a.17.17 0 0 0 .07-.06.17.17 0 0 0 .02-.08l.58-15.16a.17.17 0 0 0-.08-.15.18.18 0 0 0-.18 0l-1.77.96a.17.17 0 0 0-.1.14Zm-8.88 13.89-1.82.95a.18.18 0 0 1-.24-.07.17.17 0 0 1-.02-.08l.34-9.06a.17.17 0 0 1 .09-.15l7.38-3.92a.18.18 0 0 1 .24.07l.02.08-.1 2.27a.17.17 0 0 1-.1.14l-5.35 2.84a.17.17 0 0 0-.1.14l-.25 6.64c0 .03 0 .06-.02.09a.17.17 0 0 1-.07.06ZM38.1 16.3l-.73 18.88a.14.14 0 0 1-.08.13L21.8 43.5a.15.15 0 0 0-.09.12l-.12 3.23c0 .03 0 .05.02.07.01.03.03.05.05.06a.15.15 0 0 0 .15 0l18.26-9.67a.15.15 0 0 0 .07-.12L41 14.93c0-.03 0-.05-.02-.08a.15.15 0 0 0-.2-.06l-2.6 1.4a.15.15 0 0 0-.08.11Z" fill="#23629C"/></svg>