<!-- by TradingView --><svg width="56" height="56" viewBox="0 0 56 56" xmlns="http://www.w3.org/2000/svg"><path fill="#1A3B78" d="M0 0h56v56H0z"/><path fill-rule="evenodd" d="M18.06 14.64 16 28h3.99l1.95-12.19c.02-.61.46-1.84 2.09-1.84s1.9 1.1 1.84 1.64L24.03 28h-3.95l-1.8 11.99C17.74 42.33 19.7 45 24.43 45c1.83 0 3.1-.6 3.96-1.36.9.8 2.13 1.36 3.8 1.36 3.9 0 5.45-2.42 5.74-3.64L40 28h-4l-1.96 12.19c-.02.61-.46 1.84-2.1 1.84-1.63 0-1.9-1.1-1.84-1.64L31.94 28h3.92l1.8-11.99c.53-2.34-1.44-5.01-6.15-5.01-1.81 0-3.09.6-3.94 1.36a5.48 5.48 0 0 0-3.8-1.36c-3.87 0-5.42 2.42-5.7 3.64ZM31.76 28l1.72-12.39c.06-.54-.2-1.64-1.73-1.64s-1.95 1.23-1.96 1.84l-.71 4.7-1.1 7.49h3.77Zm-3.79 0H24.2l-1.74 12.39c-.06.54.2 1.64 1.73 1.64a1.87 1.87 0 0 0 1.98-1.84l.7-4.7 1.1-7.49Z" fill="#fff"/></svg>