<!-- by TradingView --><svg width="56" height="56" viewBox="0 0 56 56" xmlns="http://www.w3.org/2000/svg"><path fill="#F0F3FA" d="M0 0h56v56H0z"/><path d="M13.12 28.05 11 29.33l3.95 9.4 2.34-.25v2.55L26.37 45l1.58-1.71L29.77 45l9.26-3.97-.25-2.55 2.34.25 3.88-9.4-1.83-1.28L45 26.37l-3.88-9.33-2.34.49.25-2.69L29.77 11l-1.82 2.37L26.37 11l-9.08 3.84.55 2.69-2.89-.49L11 26.37l2.12 1.68Zm-.1-2.13 2.69-7.19 2.04.31 1.03 5.3-3.59 2 1.1 1.34 4.3-2.67-1.81-8.99 7.18-3.06 1.02 1.45-2.64 3.81-4.74-.57.44 1.67 5.32.67 4.58-7.03 7.3 2.79v2.04l-4.98.94-2.72-3.57-.98 1.25 2.6 4.09 8.95-1.77 3.07 7.19-1.5 1.13-4.45-2.9 1.03-4.16-1.82.2-1.18 4.47 7.53 4.9-2.68 7.66-1.62-.27-1.26-4.87 3.67-2.51-1.3-1.06-3.9 2.55.74 4.28L34 32.47V24h-2v8.08c.29.8 1.44 2.67 2.67 3.77a74.67 74.67 0 0 0 2.56 2.2v1.92l-6.82 3.34-1.3-1.45 2.72-4.64 3.43.83-1.74-1.77-2.36-.94-5.28 7.58-7.1-2.95v-1.73l5.2-1.02 2.33 3.62 1.22-1.3-2.84-4.2-3.54.94.16-.16c.88-.87 2.69-2.66 2.69-4.04V24h-2v7.57c-.12.7-.76 2.38-1.96 3.42a16.72 16.72 0 0 0-2 1.96h-2.19l-2.83-7.04 1.16-1.1 4.6 2.76-1.03 4 1.85-1.07 1-3.44-7.58-5.14Z" fill="#774E1D"/><path d="M22 22v1.44h2.18l3.75 10.91 4.2-10.91H34V22h-1.87c-.73 0-1.63 1.46-2 2.19l-2.2 4.25a41.25 41.25 0 0 0-1.84-4.25c-.8-1.57-1.77-2.11-2.15-2.2H22Z" fill="url(#andi14hwx)"/><path d="M34.08 12.79 29.78 11l-1.83 2.37L26.37 11l-4.89 2.07v1.8l4.48-1.91 1.02 1.45-2.64 3.81-2.86-.29v1.57l3.88.49 4.58-7.03 4.14 1.58V12.8Zm0 5.6-1.82.34-2.72-3.57-.98 1.25 2.6 4.09 2.92-.58V18.4Z" fill="url(#bndi14hwx)"/><path fill="url(#cndi14hwx)" d="M22 24h2v8h-2z"/><path fill="url(#dndi14hwx)" d="M32 24h2v8h-2z"/><defs><linearGradient id="andi14hwx" x1="28" y1="32.35" x2="28.02" y2="22.01" gradientUnits="userSpaceOnUse"><stop stop-color="#E3CF45"/><stop offset="1" stop-color="#B29531"/></linearGradient><linearGradient id="bndi14hwx" x1="20.79" y1="16.58" x2="36" y2="16.17" gradientUnits="userSpaceOnUse"><stop offset=".1" stop-color="#774E1D"/><stop offset=".48" stop-color="#8A672D"/><stop offset=".83" stop-color="#774E1D"/></linearGradient><linearGradient id="cndi14hwx" x1="23" y1="25.19" x2="23" y2="32" gradientUnits="userSpaceOnUse"><stop stop-color="#C7AE3A"/><stop offset="1" stop-color="#774E1D"/></linearGradient><linearGradient id="dndi14hwx" x1="33" y1="25.19" x2="33" y2="32" gradientUnits="userSpaceOnUse"><stop stop-color="#C7AE3A"/><stop offset="1" stop-color="#774E1D"/></linearGradient></defs></svg>