<!-- by TradingView --><svg width="56" height="56" viewBox="0 0 56 56" xmlns="http://www.w3.org/2000/svg"><path fill="#F0F3FA" d="M0 0h56v56H0z"/><path d="M4 23.72c1.65 0 2.51 2.01 3.37 4 .79 1.84 1.57 3.66 2.88 3.66 1.31 0 2.1-1.82 2.88-3.66.86-1.99 1.72-4 3.37-4 1.65 0 2.51 2.01 3.37 4 .79 1.84 1.57 3.66 2.88 3.66 1.32 0 2.1-1.82 2.88-3.66.86-1.99 1.72-4 3.37-4v.33c-1.43 0-2.25 1.92-3.06 3.8-.83 1.95-1.65 3.87-3.19 3.87-1.53 0-2.36-1.92-3.2-3.86-.8-1.9-1.62-3.8-3.05-3.8-1.43 0-2.25 1.9-3.06 3.8-.83 1.94-1.65 3.86-3.19 3.86-1.53 0-2.36-1.92-3.2-3.86-.8-1.9-1.62-3.8-3.05-3.8v-.34Z" fill="#A2A9AD"/><path d="M37.6 25a3.54 3.54 0 0 0-3.6 3.5c0 2.04 1.74 3.5 3.69 3.5 1.2 0 2.27-.5 3.05-1.41l-.77-.57c-.51.75-1.4.98-2.29.98-1.18 0-2.57-.72-2.6-2h5.9l.02-.49v-.21c0-1.97-1.48-3.3-3.4-3.3Zm-2.5 3c.08-1.27 1.28-2 2.5-2 1.3 0 2.3.67 2.35 2H35.1ZM49.69 25c-1.1 0-1.9.51-2.37 1.44A2.16 2.16 0 0 0 45.25 25c-.92 0-1.82.5-2.23 1.34H43V25h-1v7h1v-3.5c0-1.19.62-2.49 2-2.5 1.31 0 1.5.88 1.5 2.02V32h1v-3.63c0-1.2.64-2.37 2.03-2.37C50.9 26 51 27.07 51 28.23V32h1v-4.19c0-1.59-.65-2.81-2.31-2.81ZM32 23h-1v2h-1.44v1H31v4.14c0 .78.3 1.56 1.11 1.76.2.05.39.1.58.1.38 0 .8-.1 1.16-.23l-.05-.87a1.97 1.97 0 0 1-.85.22c-.78 0-.95-.57-.95-1.27V26h2v-1h-2v-2ZM26.4 27.17c-.9-2.1-1.78-4.17-3.65-4.17-1.87 0-2.76 2.07-3.65 4.17-.75 1.74-1.5 3.5-2.6 3.5s-1.85-1.76-2.6-3.5C13 25.07 12.12 23 10.25 23c-1.87 0-2.76 2.07-3.65 4.17-.75 1.74-1.5 3.5-2.6 3.5V32c1.98 0 2.91-2.17 3.83-4.31.72-1.7 1.44-3.36 2.42-3.36s1.7 1.66 2.42 3.36C13.6 29.83 14.52 32 16.5 32s2.91-2.17 3.83-4.31c.72-1.7 1.44-3.36 2.42-3.36s1.7 1.66 2.42 3.36C26.1 29.83 27.02 32 29 32v-1.33c-1.1 0-1.85-1.76-2.6-3.5Z" fill="#7F2629"/></svg>