<!-- by TradingView --><svg width="56" height="56" viewBox="0 0 56 56" xmlns="http://www.w3.org/2000/svg"><path fill="#F0F3FA" d="M0 0h56v56H0z"/><path d="M28.02 28.9v3.9l15.21-9.4 1.73-5.01-16.94 10.5ZM36 37.88l7-4.29v-3.9l-7 4.28v3.91ZM36 43l9-5.42-1.77-2.81L36 39.09V43ZM28.02 37.88 43 28.48v-3.91l-14.98 9.4v3.91ZM27.04 38.49 20 43v-3.9l3.89-2.55 3.15 1.94ZM20 37.88v-3.9l2.9 1.97-2.9 1.93Z" fill="#66B841"/><path d="M28.96 38.49 36 43v-3.9l-3.89-2.55-3.15 1.94ZM36 37.88v-3.9l-2.9 1.97 2.9 1.93ZM28.02 28.9v3.9l-15.25-9.4-1.73-5.01 16.98 10.5ZM20 37.88l-7.23-4.29v-3.9L20 33.97v3.91ZM20 43l-9-5.42 1.77-2.81L20 39.09V43ZM28.02 37.88l-15.25-9.4v-3.91l15.25 9.4v3.91ZM41.36 15.54l-13.34 8.23-13.38-8.23-3.15 1.94 16.53 10.2 16.5-10.2-3.16-1.94Z" fill="#221E1F"/><path d="m37.22 13-9.2 5.69L18.78 13l-3.16 1.93 12.4 7.67 12.36-7.67L37.22 13Z" fill="#221E1F"/></svg>