<!-- by TradingView --><svg width="56" height="56" xmlns="http://www.w3.org/2000/svg"><path fill="#115B86" d="M0 0h56v56H0z"/><path d="M8 24l-5 8h3l2.66-4.321V32h2.718L13 28v4h5.48l3.175-5L22 30h-1l-1.335 2H25l-1-8h-3l-5 7v-7h-3.004L10.9 28.072 10.656 24H8z" fill="#fff"/><path d="M30.03 24c.585 0 1.219.126 1.463.189l-.7 2.324c-2.103-.69-2.793.88-2.793 1.791 0 .87.58 1.194 1.11 1.241.424.038.976-.11 1.2-.188-.094.764-.28 2.312-.28 2.387-.636.252-1.636.301-2.212.22-3.389-.477-3.004-3.808-2.46-4.98 1.37-2.953 3.94-2.984 4.671-2.984zM31.492 26.744C32.733 24.233 35.031 24 36.188 24c2.724 0 3.293 2.14 3.237 3.21-.295 3.819-3.32 4.79-4.964 4.79-4.16 0-3.724-3.548-2.969-5.256z" fill="#fff"/><path d="M33.837 28.483c.049-1.712 1.275-2.07 1.882-2.035 1.305.165 1 1.394.667 2.125-.134.294-.707.945-1.532.957-.825.012-1.022-.693-1.017-1.047z" fill="#115B86"/><path d="M43 24l-4.998 8H41l2.603-4.304L43.497 32h2.642l1.86-4.304.02 4.304H51v-8h-3l-2.325 4.056L45.442 24H43z" fill="#fff"/></svg>