<!-- by TradingView --><svg width="56" height="56" viewBox="0 0 56 56" xmlns="http://www.w3.org/2000/svg"><path fill="#F0F3FA" d="M0 0h56v56H0z"/><path d="M18.66 15.93c3.68-3.62 8.71-4.7 13.66-3.4A15.8 15.8 0 0 1 43 22.38c.58 1.6.9 3.3 1 5.09.05 1-.03 2.1-.24 3.26C42.53 37.62 35.61 44 28.51 44c-8.87 0-16.1-6.08-16.5-15.35-.06-1.54.12-3.13.54-4.77.12-.46.36-.86.6-1.27.13-.23.27-.46.38-.7.01-.02.03-.02.05-.01l.03.01c.02 0 .03.01.03.02.02.02.02.04.01.07-.2.58-.4 1.13-.57 1.67a10.33 10.33 0 0 0-.2 6C14.3 35.01 20.76 40.81 26.48 41c6.62.21 12.5-4.08 13.57-10.88a12.3 12.3 0 0 0-9.93-13.79c-3.2-.58-6.51.22-9.1 2.15a25.43 25.43 0 0 0-3.95 3.97l-.39.46c-.17.2-.2.18-.1-.07a12.95 12.95 0 0 1 .9-1.6c.07-.1.05-.11-.04-.04a1.64 1.64 0 0 0-.34.4.03.03 0 0 1-.02 0l-.05-.05a.15.15 0 0 1-.04-.18l.82-1.55c.09-.18.05-.2-.11-.09l-.17.15a.06.06 0 0 1-.06.02c-.03 0-.03-.02-.02-.05.43-.72.93-1.3 1.5-1.75l-.02-.04-.03-.02h-.03c-.2.14-.41.17-.62.12a.42.42 0 0 0-.35.06l-1.25.87a.08.08 0 0 1-.08 0 .08.08 0 0 1-.05-.05.25.25 0 0 1 .02-.19 9.85 9.85 0 0 1 3.22-3.41v-.04a38.23 38.23 0 0 1-1.05.58c-.14.08-.15.06-.04-.05Z" fill="url(#alp23ox54)"/><path d="M36.65 29.34h1.15c.11 0 .2.09.2.2v.26a.2.2 0 0 1-.2.2h-1.6a.2.2 0 0 1-.2-.2v-4.6c0-.11.09-.2.2-.2h.25c.11 0 .2.09.2.2v4.14ZM33.96 29h-1.92l-.29.86a.2.2 0 0 1-.2.14h-.34c-.14 0-.24-.13-.2-.26l1.5-4.6a.2.2 0 0 1 .2-.14h.57c.1 0 .17.06.2.14l1.51 4.6c.04.13-.06.26-.2.26h-.35a.2.2 0 0 1-.2-.14l-.28-.86Zm-.22-.69L33 26l-.75 2.32h1.5ZM29.3 30a.2.2 0 0 1-.18-.11l-.9-1.89h-.53v1.8a.2.2 0 0 1-.2.2h-.29a.2.2 0 0 1-.2-.2v-4.6c0-.11.09-.2.2-.2h1.25c.32 0 .6.07.81.2.23.14.4.32.5.54.12.23.17.48.17.76 0 .32-.08.62-.24.89-.15.26-.4.44-.73.54l.9 1.78a.2.2 0 0 1-.18.29h-.38Zm-1.61-2.65h.76c.26 0 .45-.08.58-.23.13-.16.2-.36.2-.62a.87.87 0 0 0-.2-.6c-.12-.16-.32-.23-.58-.23h-.76v1.68ZM22.58 25c.11 0 .2.09.2.2v2.96c0 .75.5 1.13 1.22 1.13.74 0 1.22-.39 1.22-1.13V25.2c0-.11.09-.2.2-.2h.38c.11 0 .2.09.2.2v2.94c0 1.15-.9 1.86-2.01 1.86-1.11 0-1.99-.7-1.99-1.86V25.2c0-.11.09-.2.2-.2h.38ZM20.8 25c.11 0 .2.09.2.2v4.6a.2.2 0 0 1-.2.2h-.38a.2.2 0 0 1-.2-.2v-3.22l-1.4 3.3a.2.2 0 0 1-.18.12h-.27a.2.2 0 0 1-.19-.12l-1.4-3.3v3.22a.2.2 0 0 1-.2.2h-.38a.2.2 0 0 1-.2-.2v-4.6c0-.11.09-.2.2-.2h.5a.2.2 0 0 1 .2.12l1.6 3.8 1.61-3.8a.2.2 0 0 1 .19-.12h.5ZM38 31.03l-.66 1.27v.73h-.32v-.73l-.66-1.27h.36l.46.98.46-.98H38ZM34.55 31.59a.51.51 0 0 0-.22-.22.64.64 0 0 0-.31-.08.7.7 0 0 0-.36.09.63.63 0 0 0-.24.25.78.78 0 0 0-.09.37c0 .14.03.27.1.37.05.11.13.2.23.25.1.06.22.09.36.09.17 0 .32-.05.43-.15.1-.1.18-.23.2-.4h-.75v-.25H35v.25a.97.97 0 0 1-.98.84c-.2 0-.36-.04-.52-.13A.98.98 0 0 1 33 32a.96.96 0 0 1 .5-.87c.16-.09.33-.13.52-.13.2 0 .4.05.56.15.17.1.29.25.36.44h-.4ZM31 33c-.18 0-.35-.04-.5-.13A.98.98 0 0 1 30 32a.95.95 0 0 1 .5-.87c.15-.09.32-.13.5-.13a1 1 0 0 1 .87.48A1 1 0 0 1 32 32a.95.95 0 0 1-.5.87c-.15.09-.32.13-.5.13Zm0-.28c.13 0 .25-.03.35-.09.1-.06.18-.14.23-.25a.81.81 0 0 0 .09-.38.8.8 0 0 0-.09-.38.6.6 0 0 0-.23-.25.68.68 0 0 0-.35-.09.68.68 0 0 0-.35.09.62.62 0 0 0-.24.25.81.81 0 0 0-.08.38c0 .14.03.27.08.38a.64.64 0 0 0 .59.34ZM28.33 32.74H29V33h-1v-2h.33v1.74ZM26 33c-.18 0-.35-.04-.5-.13A.98.98 0 0 1 25 32a.95.95 0 0 1 .5-.87c.15-.09.32-.13.5-.13a1 1 0 0 1 .87.48A1 1 0 0 1 27 32a.95.95 0 0 1-.5.87c-.15.09-.32.13-.5.13Zm0-.28c.13 0 .25-.03.35-.09.1-.06.18-.14.23-.25a.81.81 0 0 0 .09-.38.8.8 0 0 0-.09-.38.6.6 0 0 0-.23-.25.68.68 0 0 0-.35-.09.68.68 0 0 0-.35.09.62.62 0 0 0-.24.25.81.81 0 0 0-.08.38c0 .14.03.27.08.38a.64.64 0 0 0 .59.34ZM22 32a.97.97 0 0 1 .52-.87c.16-.09.34-.13.53-.13.22 0 .4.05.58.15.17.1.3.25.37.44h-.4a.53.53 0 0 0-.23-.23.68.68 0 0 0-.32-.08.74.74 0 0 0-.37.09.63.63 0 0 0-.25.25.79.79 0 0 0-.08.38c0 .14.02.27.08.38.06.1.15.2.25.25.11.06.23.1.37.1.12 0 .23-.03.32-.08.1-.06.17-.13.23-.24h.4a.87.87 0 0 1-.37.44c-.17.1-.36.15-.58.15-.2 0-.37-.04-.53-.13A.97.97 0 0 1 22 32ZM20.63 33h-.33l-.98-1.5V33H19v-2h.32l.98 1.49V31h.33v2ZM17 33c-.18 0-.35-.04-.5-.13A.98.98 0 0 1 16 32a.95.95 0 0 1 .5-.87c.15-.09.32-.13.5-.13a1 1 0 0 1 .87.48A1 1 0 0 1 18 32a.95.95 0 0 1-.5.87c-.15.09-.32.13-.5.13Zm0-.28c.13 0 .25-.03.35-.09.1-.06.18-.14.23-.25a.81.81 0 0 0 .09-.38.8.8 0 0 0-.09-.38.6.6 0 0 0-.23-.25.68.68 0 0 0-.35-.09.68.68 0 0 0-.35.09.62.62 0 0 0-.24.25.81.81 0 0 0-.08.38c0 .14.03.27.08.38a.64.64 0 0 0 .59.34Z" fill="#152980"/><defs><linearGradient id="alp23ox54" x1="13.5" y1="24.5" x2="44" y2="32.5" gradientUnits="userSpaceOnUse"><stop stop-color="#15548F"/><stop offset="1" stop-color="#20E0DA"/></linearGradient></defs></svg>