<!-- by TradingView --><svg width="56" height="56" viewBox="0 0 56 56" xmlns="http://www.w3.org/2000/svg"><path d="M38.92 13H17.2A4.2 4.2 0 0 0 13 17.14v21.72A4.2 4.2 0 0 0 17.2 43h21.72A4.1 4.1 0 0 0 43 38.86V17.14A4.1 4.1 0 0 0 38.92 13ZM14 32.68v-2.17h2.17L14 32.68Zm0-2.54v-1.62h4.02l-1.5 1.62H14Zm0-3.75h6.02L18.5 28H14v-1.61Zm9.4 0h6.06L28.21 28h-3.03l-1.78-1.61Zm-1.72-1.89h9.17L29.64 26h-6.65l-1.3-1.5ZM14 22.64h18.54L31.27 24H14v-1.36Zm13.78 5.88-.9 1.05-1.15-1.05h2.05Zm14.2-1.3-.9-.83h.9v.83Zm0-1.22h-1.4l-1.27-1.5h2.68V26Zm0-2h-3.06l-1.42-1.36H42V24Zm0-1.89h-5.02l-1.59-1.61h6.61v1.61Zm-8.92 0H14V20.5h20.43l-1.37 1.61ZM14 24.5h7.5L20.35 26H14v-1.5ZM41.99 20H14v-1.51h27.98V20ZM14 18c.1-.5.11-1 .2-1.5h27.75c.02.14.04.5.04.64V18H14Zm3.2-3.93h21.72c1.21 0 2.51.86 2.9 1.93h-27.5a3.21 3.21 0 0 1 2.87-1.93Z" fill="#002E6D"/><path d="M16 32.35V32h3l1.6 4.94L22.25 32h2.85v.35c-.72.06-1.1.18-1.1 1v5.18c0 .75.28.98 1 .98V40h-3.49v-.48c.73 0 .98-.24.98-1V32.9h-.02l-2.26 6.98h-.36l-2.28-6.76h-.02v4.37c0 1.72.1 1.94.99 2.04V40H16v-.48c.88-.19 1-.3 1-2.04v-4.14c0-.8-.33-.99-1-.99Zm12 .92 1.54 4.63 1.32-4.04c.07-.24.17-.48.17-.73 0-.55-.4-.74-.83-.78V32h2.46v.35c-.62.15-.91.24-1.35 1.7L29.4 40h-.85l-2.03-6.08c-.23-.67-.4-1.48-1.18-1.57V32h3.33v.35c-.7.06-.79.2-.79.46 0 .15.06.32.11.46Zm5 6.6v-.35c.72 0 1-.24 1-1v-5.17c0-.76-.37-1-1.09-1V32h3.64c2.56 0 2.95.85 2.95 1.8 0 1.12-.88 1.63-1.76 1.82v.03c1.12.23 2.26.67 2.26 2.13 0 1.26-.86 2.22-2.82 2.22H33v-.13Z" fill="#E8EBF2"/><path d="M35.5 33H37a1 1 0 1 1 0 2h-1.5v-2ZM35.5 36.5h1.75a1.25 1.25 0 1 1 0 2.5H35.5v-2.5Z" fill="#002E6D"/></svg>