<!-- by TradingView --><svg xmlns="http://www.w3.org/2000/svg" width="56" height="56"><path fill="#F0F3FA" d="M0 0h56v56H0z"/><path d="M24.62 23.56c0-.5-.08-.98-.23-1.43.94.83 2.21 1.33 3.61 1.33 1.43 0 2.72-.53 3.67-1.39-.21.54-.33 1.1-.33 1.7a4.84 4.84 0 002.79 4.31 4.8 4.8 0 00-2.54 4.17c0 .6.12 1.18.33 1.72A5.42 5.42 0 0028 32.33c-1.56 0-2.96.63-3.92 1.64.21-.53.33-1.11.33-1.72a4.83 4.83 0 00-2.77-4.3 4.86 4.86 0 002.98-4.39z" fill="#616467"/><path d="M33 16a5 5 0 11-10 0 5 5 0 0110 0zM17 27a5 5 0 100-10 5 5 0 000 10zm0 12a5 5 0 100-10 5 5 0 000 10zm27-17a5 5 0 11-10 0 5 5 0 0110 0zm-5 17a5 5 0 100-10 5 5 0 000 10zm-11 6a5 5 0 100-10 5 5 0 000 10z" fill="#0064A2"/></svg>