<!-- by TradingView --><svg width="56" height="56" xmlns="http://www.w3.org/2000/svg"><path fill="#F0F3FA" d="M0 0h56v56H0z"/><path d="M4 32v-.37l.256-.014c.21-.014.344-.047.398-.108.054-.06.088-.263.094-.62.02-.715.034-1.382.034-2.218 0-.445 0-.95-.007-1.51-.006-.344-.027-.553-.06-.627a.212.212 0 00-.095-.095c-.047-.027-.25-.047-.62-.074V26h2.164c.155.37.317.735.486 1.092.121.257.64 1.356 1.578 3.284.984-1.982 1.672-3.439 2.07-4.376h2.056v.364c-.377.027-.593.054-.64.101-.048.04-.081.175-.095.398-.02.364-.034 1.059-.034 2.084 0 .519.007 1.058.02 1.631.014.573.034.835.061.91.02.047.047.04.088.067.04.02.243.047.607.08V32s-2.765.016-2.765 0v-.357l.257-.007c.202-.007.33-.034.377-.088.054-.047.088-.141.101-.344.014-.202.02-.626.02-1.381V27.2c-.445.897-1.018 2.07-1.705 3.52-.284.593-.506.91-.668 1.28h-.297c-.215-.499-.505-.95-.876-1.712L5.3 27.2v.594c0 1.631.007 2.648.027 3.269.007.25.04.404.101.458.061.061.27.095.648.115V32H4zM12.846 31.71c.216-.013.351-.034.405-.067.034-.02.088-.115.162-.263.141-.304.323-.833.54-1.366L15.185 27h.512l1.572 3.735c.202.486.33.834.377.88.047.048.196.082.438.095V32h-2.218v-.29c.276-.013.438-.027.479-.047a.113.113 0 00.067-.108c0-.047-.047-.28-.148-.536l-.23-.594c-.29-.006-.606-.006-.964-.006-.31 0-.586 0-.842.006-.129.33-.215.655-.31.995a.503.503 0 00-.02.135c0 .054.02.094.067.115.047.02.209.047.492.067V32h-1.612l-.006-.29h.006zm2.28-3.483l-.736 1.78a13.866 13.866 0 001.477 0l-.742-1.78zM18.274 32.007v-.29c.209-.014.337-.034.384-.06.047-.028.155-.156.33-.372l1.174-1.608c-.364-.64-.661-1.133-.877-1.477-.222-.344-.384-.553-.492-.62a.348.348 0 00-.21-.06 1.19 1.19 0 00-.228.026l-.034-.283L19.622 27c.142.101.256.209.344.324.088.114.25.39.492.829l.371.674.85-1.321a6.72 6.72 0 00.33-.506h.816v.283c-.196.014-.317.034-.364.06-.06.035-.175.156-.33.365l-1.08 1.49.23.418c.398.722.68 1.258.836 1.508.216.33.344.505.377.539.041.027.149.047.324.054v.29h-1.382a15.517 15.517 0 01-.364-.64l-.701-1.32-.681.978c-.081.122-.27.483-.574.975l-.842.007zM23.506 32v-.223c.162-.074.31-.134.452-.236.04-.782.054-1.563.054-2.412 0-.668-.007-1.302-.02-1.895-.007-.425-.027-.668-.06-.728-.014-.04-.048-.068-.088-.088-.048-.02-.257-.047-.634-.074V26h2.633v.344c-.398.027-.675.06-.735.108-.04.027-.068.08-.081.155-.014.08 0 1.409 0 1.409L25 30.133v1.334c.377.02.694.027.876.027.546 0 1.251-.04 1.622-.128.074-.263.148-.58.223-.944h.384c-.06.412-.122.971-.169 1.585L23.506 32zM28.375 32v-.29c.317-.013.498-.04.539-.08.04-.035.067-.102.074-.25.014-.304.027-1.056.027-1.892 0-.317-.007-.782-.013-1.389-.007-.411-.014-.614-.027-.654a.16.16 0 00-.075-.088c-.053-.027-.229-.047-.525-.067V27h2.272v.29c-.317.02-.492.047-.533.074-.04.034-.067.074-.08.189-.021.222-.034.674-.034 1.355 0 .904.006 1.53.013 1.888.007.537.027.745.06.813.014.027.048.027.088.047.047.02.203.034.48.054V32h-2.266zM31.355 32v-.276c.283-.014.452-.027.499-.054a.18.18 0 00.074-.095c.027-.054.04-.222.047-.56a70.9 70.9 0 00.02-1.446l-.006-1.47c0-.391-.014-.614-.04-.674a.123.123 0 00-.068-.074c-.047-.027-.223-.034-.526-.061V27h1.477a73.725 73.725 0 001.807 2.198c.445.533.836.836 1.16 1.187v-1.248c0-.519-.007-.97-.02-1.348-.008-.223-.028-.344-.055-.391a.136.136 0 00-.074-.06c-.034-.014-.202-.028-.486-.048V27h1.686v.29c-.263.013-.418.034-.472.054a.201.201 0 00-.074.047c-.02.02-.034.027-.04.06a3.259 3.259 0 00-.027.533l-.014 1.39-.007 1.453c0 .377.007.748.027 1.126l-.047.047c-.283-.054-.479-.08-.593-.101-.593-.66-1.315-1.541-2.158-2.54-.425-.505-.769-.93-1.031-1.273v1.348c0 .37.006 1.002.02 1.514.007.384.02.573.047.634a.096.096 0 00.054.06c.047.028.176.048.466.068V32h-1.646zM37.53 31.993v-.168c.122-.054.3-.122.402-.196.047-.364.067-1.291.067-2.451 0-.789-.006-1.315-.027-1.571-.006-.135-.033-.223-.074-.256-.04-.034-.28-.034-.583-.061V27l3.756.007.026.04c-.053.25-.087.587-.114 1.005h-.277c-.013-.337-.027-.52-.04-.54-.013-.02-.067-.047-.155-.067-.196-.04-.486-.06-.883-.06a8.24 8.24 0 00-.629.026s.007 1.288 0 1.713c.25.013.415.027.595.027.323 0 .52-.014.58-.034.04-.013.067-.047.08-.101a3.65 3.65 0 00.048-.438h.297c-.014.39-.02.647-.02.762l.02.782h-.297c-.014-.304-.034-.479-.06-.526-.014-.027-.048-.047-.095-.06-.115-.028-.378-.041-.782-.041-.129 0-.183.006-.359.02-.007.121-.007.25-.007.378 0 .66.007 1.702.007 1.702l.622.014c.39 0 .748-.02 1.072-.06.06-.216.114-.46.168-.729h.29c-.054.411-.087.802-.094 1.173H37.53zM41.623 31.683c.216-.013.351-.034.405-.067.034-.02.088-.115.162-.263.141-.304.324-.806.54-1.34L43.962 27h.512l1.572 3.735c.202.57.33.834.377.88.047.048.196.082.438.095V32h-2.218v-.29c.277-.013.438-.027.479-.047a.113.113 0 00.067-.108c0-.047-.047-.195-.148-.536l-.23-.594c-.29-.006-.606-.006-.963-.006-.31 0-.587 0-.843.006l-.155.398c-.04.108-.095.354-.155.57a.503.503 0 00-.02.135c0 .054.02.094.067.115.047.02.209.047.492.067V32h-1.618v-.317h.006zm2.28-3.456l-.736 1.78a13.866 13.866 0 001.477 0l-.742-1.78zM47.433 32v-.242c.27-.02.425-.048.465-.068a.093.093 0 00.054-.067c.027-.054.04-.243.047-.567.014-.499.001-1.076.001-1.366 0-.384.007-.876 0-1.47-.006-.445-.033-.714-.067-.815a.107.107 0 00-.054-.068c-.034-.027-.189-.02-.452-.047V27h2.436c.377 0 .654 0 .822.074a.87.87 0 01.412.35c.1.163.155.351.155.567 0 .277-.081.52-.243.735-.162.21-.438.398-.836.56l.742 1.119.58 1.029c.108.141.188.222.242.25a.608.608 0 00.263.046V32h-1.368c-.203-.324-.48-.762-.877-1.548l-.494-1.085c.02-.04.04-.081.054-.129.538.077.925-.502.925-.984 0-.449-.294-.89-.77-.89H49l.011 1.025L49 31.041c0 .459.06.52.073.561.014.034.04.054.074.074.047.027.21.048.472.061V32h-2.185z" fill="#000"/><path d="M49.533 32.953c-1.066 1.584-2.245 2.872-3.48 3.856-2.05 1.625-4.274 2.441-6.513 2.441-2.231 0-4.463-.816-6.513-2.44-1.24-.985-2.414-2.273-3.48-3.857h1.37c.883 1.2 1.827 2.198 2.811 2.98 1.841 1.463 3.83 2.198 5.812 2.198 1.983 0 3.972-.735 5.812-2.198.985-.782 1.929-1.78 2.812-2.98h1.369zM6.13 24.477c1.08-1.618 2.273-2.933 3.534-3.93 2.05-1.626 4.275-2.442 6.513-2.442 2.232 0 4.464.816 6.514 2.441 1.26.998 2.447 2.313 3.533 3.931h-1.362c-.897-1.234-1.861-2.252-2.866-3.054-1.84-1.463-3.83-2.198-5.812-2.198-1.982 0-3.971.735-5.812 2.198-1.005.802-1.969 1.82-2.866 3.054H6.131z" fill="#ED1C24"/></svg>