<!-- by TradingView --><svg width="56" height="56" viewBox="0 0 56 56" xmlns="http://www.w3.org/2000/svg"><path fill="#F0F3FA" d="M0 0h56v56H0z"/><path d="M10.77 18c1.81.05 3.63 0 5.44.02h28.97c.49 1.19 1.23 2.22 1.78 3.38l.04.1c-6.21 0-12.42-.02-18.63 0 .7 1.34 1.43 2.75 2.16 4.07.38.75.78 1.37 1.24 2.19.5 1.2 1.18 2.29 1.82 3.4-.55 1.25-1.28 2.4-1.93 3.6-3.05-5.55-6.07-11.11-9.1-16.67-.68 1.12-1.28 2.29-1.94 3.42-1.34-.02-2.67-.02-4 0 .09.46.38.83.6 1.23l1.2 2.13c1.14 2.1 2.32 4.18 3.47 6.27-.53 1.26-1.28 2.4-1.93 3.6-2.15-3.9-4.3-7.8-6.43-11.7-.92-1.68-1.8-3.38-2.76-5.04Z" fill="#9BA386"/><path d="M10.77 18c.95 1.66 1.84 3.36 2.76 5.04l6.43 11.7c.65-1.2 1.4-2.34 1.93-3.6l1.84-3.25c.1-.15.13-.36.02-.52-.46-.85-.95-1.69-1.4-2.54-.52-1.14-1.25-2.16-1.73-3.32.66-1.13 1.26-2.3 1.93-3.42 3.04 5.56 6.06 11.12 9.11 16.67.65-1.2 1.38-2.35 1.93-3.6 1.19-2.08 2.3-4.07 3.47-6.16 1.41 0 2.83-.03 4.24 0-.27.68-.67 1.17-1.02 1.8-2.35 4.24-4.68 8.5-7.05 12.72-.45.8-.8 1.68-1.4 2.39-1.29-2.36-2.6-4.7-3.88-7.07-.3-.7-.65-1.36-1.02-2.01-.3-.52-.56-1.08-.91-1.56-.24.32-.43.67-.61 1.02-1.78 3.2-3.55 6.4-5.35 9.57-3.7-6.6-7.27-13.27-10.92-19.89a.9.9 0 0 1 0-.95c.55-1 1.16-1.97 1.63-3.02Z" fill="#3E6071"/><path d="M16.62 21.5h4c.48 1.17 1.24 2.15 1.8 3.5H18.5c-.42-.7-.87-1.55-1.28-2.26-.21-.4-.5-.77-.6-1.23ZM28.37 21.51c6.21-.02 12.42 0 18.63-.01-.45 1-1.01 1.94-1.54 2.9-3.07 5.58-6.15 11.14-9.21 16.72-.2.36-.4.86-.86.87L32 42l-.17-.1c.6-.7.95-1.58 1.4-2.4 2.37-4.24 4.7-8.5 7.05-12.76.35-.64.75-1.06 1.02-1.74-1.41-.03-2.83 0-4.24 0-1.1.02-2.18 0-3.27 0-.3-.04-.5.03-.63.28-.45.81-.94 1.63-1.4 2.43-1.34-2.22-2.34-4.16-3.39-6.2ZM25.4 32.29c.2-.35.38-.7.62-1.02.35.48.6 1.04.9 1.56.38.65.73 1.32 1.03 2.01-.71 1.05-1.27 2.2-1.88 3.3-.7 1.18-1.34 2.4-2.01 3.59-.1.23-.36.26-.57.25h-2.56c-.3 0-.61.03-.9-.07l.03-.05c1.8-3.18 3.57-6.38 5.35-9.57Z" fill="#7B7E82"/></svg>