<!-- by TradingView --><svg width="56" height="56" xmlns="http://www.w3.org/2000/svg"><path fill="#123864" d="M0 0h56v56H0z"/><circle cx="35.867" cy="8.546" r=".546" fill="#fff"/><circle cx="25.574" cy="16.095" r=".546" fill="#EAA263"/><circle cx="20.95" cy="16.197" r=".41" fill="#fff"/><circle cx="20.695" cy="17.05" r=".41" fill="#fff"/><circle cx="20.46" cy="17.965" r=".41" fill="#fff"/><circle cx="20.286" cy="19.064" r=".41" fill="#fff"/><circle cx="20.183" cy="20.164" r=".41" fill="#fff"/><circle cx="20.379" cy="21.798" r=".546" fill="#fff"/><circle cx="20.815" cy="23.53" r=".682" fill="#fff"/><circle cx="21.634" cy="25.271" r=".819" fill="#fff"/><circle cx="22.652" cy="27.165" r=".819" fill="#fff"/><circle cx="23.829" cy="29.082" r=".682" fill="#fff"/><circle cx="25.007" cy="30.967" r=".546" fill="#fff"/><circle cx="25.822" cy="32.673" r=".546" fill="#fff"/><circle cx="23.239" cy="36.278" r=".546" fill="#EAA263"/><circle cx="22.011" cy="39.895" r=".546" fill="#EAA263"/><circle cx="23.561" cy="39.41" r=".546" fill="#EAA263"/><circle cx="26.368" cy="34.487" r=".41" fill="#fff"/><circle cx="26.557" cy="36.279" r=".41" fill="#fff"/><circle cx="26.557" cy="37.845" r=".41" fill="#fff"/><circle cx="26.42" cy="39.137" r=".273" fill="#fff"/><circle cx="26.147" cy="40.168" r=".273" fill="#fff"/><circle cx="25.874" cy="40.981" r=".273" fill="#fff"/><circle cx="25.602" cy="41.644" r=".273" fill="#fff"/><circle cx="25.063" cy="19.316" r=".546" fill="#EAA263"/><circle cx="23.605" cy="19.862" r=".546" fill="#EAA263"/><circle cx="27.237" cy="15.549" r=".546" fill="#EAA263"/><circle cx="26.725" cy="18.77" r=".546" fill="#EAA263"/><circle cx="28.783" cy="15.041" r=".546" fill="#EAA263"/><circle cx="28.272" cy="18.262" r=".546" fill="#EAA263"/><circle cx="30.446" cy="14.495" r=".546" fill="#EAA263"/><circle cx="29.933" cy="17.717" r=".546" fill="#EAA263"/><circle cx="29.156" cy="21.167" r=".546" fill="#EAA263"/><circle cx="27.137" cy="24.804" r=".546" fill="#EAA263"/><circle cx="32.1" cy="13.95" r=".546" fill="#EAA263"/><circle cx="31.588" cy="17.171" r=".546" fill="#EAA263"/><circle cx="30.81" cy="20.621" r=".546" fill="#EAA263"/><circle cx="28.792" cy="24.258" r=".546" fill="#EAA263"/><circle cx="33.737" cy="13.404" r=".546" fill="#EAA263"/><circle cx="33.225" cy="16.625" r=".546" fill="#EAA263"/><circle cx="32.448" cy="20.076" r=".546" fill="#EAA263"/><circle cx="30.429" cy="23.712" r=".546" fill="#EAA263"/><circle cx="35.32" cy="12.975" r=".546" fill="#EAA263"/><circle cx="34.808" cy="16.197" r=".546" fill="#EAA263"/><circle cx="34.031" cy="19.648" r=".546" fill="#EAA263"/><circle cx="36.781" cy="10.075" r=".546" fill="#fff"/><circle cx="37.56" cy="11.785" r=".682" fill="#fff"/><circle cx="38.045" cy="13.666" r=".819" fill="#fff"/><circle cx="38.045" cy="15.996" r=".955" fill="#fff"/><circle cx="35.693" cy="21.089" r="1.228" fill="#fff"/><circle cx="32.919" cy="23.761" r="1.364" fill="#fff"/><circle cx="29.903" cy="26.626" r="1.501" fill="#fff"/><circle cx="26.524" cy="29.429" r="1.364" fill="#fff"/><circle cx="23.521" cy="32.406" r="1.228" fill="#fff"/><circle cx="21.047" cy="35.372" r="1.091" fill="#fff"/><circle cx="19.955" cy="38.569" r=".955" fill="#fff"/><circle cx="19.955" cy="41.691" r=".819" fill="#fff"/><circle cx="20.637" cy="44.343" r=".682" fill="#fff"/><circle cx="21.592" cy="46.101" r=".546" fill="#fff"/><circle cx="22.696" cy="47.59" r=".41" fill="#fff"/><circle cx="37.347" cy="18.598" r="1.091" fill="#fff"/></svg>