<!-- by TradingView --><svg xmlns="http://www.w3.org/2000/svg" width="56" height="56" viewBox="0 0 56 56"><path fill="#0D1E47" d="M0 0h56v56H0z"/><path fill-rule="evenodd" d="M45.6 23.15a1.15 1.15 0 1 1-2.3 0 1.15 1.15 0 0 1 2.3 0zM35 30.69c-.46.33-1 .52-1.6.52-1.6 0-2.9-1.43-2.9-3.19s1.3-3.19 2.9-3.19c.6 0 1.14.2 1.6.52V25h2v6h-2v-.31zm0-2.67c0 .75-.58 1.36-1.29 1.36-.71 0-1.29-.6-1.29-1.36 0-.75.58-1.36 1.3-1.36.7 0 1.28.61 1.28 1.36zM4 25h1.43l.51.68a2.74 2.74 0 0 1 4.06.49 2.75 2.75 0 0 1 5 1.58V31h-2v-3.2a1.25 1.25 0 0 0-2.5 0V31h-2v-3.2a1.25 1.25 0 0 0-2.5 0V31H4v-6zm19 0h1.82v.8a2.74 2.74 0 0 1 4.68 1.95V31h-2v-3.2a1.25 1.25 0 0 0-2.5 0V31h-2v-6zm20.44 0h2v6h-2v-6zm-28.83 0l2.78 5.02-2 3.98h2.15l4.89-9H20.2l-1.68 3.04L16.9 25h-2.3zM40 31v-3.73c.3-.38.87-.64 1.85-.47l.85-1.6c-.59-.23-1.85-.42-2.7.37V25h-2v6h2zm9.52.14c1 0 1.9-.48 2.48-1.21l-1.29-1.14a1.3 1.3 0 0 1-1.1.64c-.74 0-1.34-.64-1.34-1.43 0-.79.6-1.43 1.33-1.43.44 0 .83.23 1.07.58L52 26.08a3.13 3.13 0 1 0-2.48 5.06z" fill="#F0645E"/></svg>