<!-- by TradingView --><svg xmlns="http://www.w3.org/2000/svg" width="56" height="56" viewBox="0 0 56 56"><path fill="#F0F3FA" d="M0 0h56v56H0z"/><path d="M32.33 14.65h-8.06v-.5h8.06v.5zm-.04 2.08h-8.07v-.5h8.07v.5zm-7.16 1.77h6.03V18h-6.03v.5zm4.42 1.59h-2.99v-.5h2.99v.5zm-2.66 2.74h2.99v-.5h-2.99v.5zm4.2 1.63h-5.96v-.5h5.95v.5zm-6.67 1.72h7.69v-.5h-7.69v.5zm7.88 2.1h-8.67v-.5h8.67v.5zm-8.56 2.04h8.67v-.5h-8.67v.5zm7.35 1.7h-6v-.5h6v.5zm-4.82 1.7h3.46v-.5h-3.46v.5zm3.29 2.75H26.1v-.5h3.46v.5zm-4.79 1.61h6.27v-.5h-6.27v.5zm6.87 1.76H23.7v-.5h7.93v.5zm-8.26 2.1h8.74v-.5h-8.74v.5z" fill="#00A69C"/><path d="M24.58 14.42c0 .37-.3.67-.7.67-.38 0-.7-.3-.7-.67 0-.37.32-.67.7-.67.4 0 .7.3.7.67zm.3 2.06a.6.6 0 0 1-.6.58.6.6 0 0 1-.6-.58.6.6 0 0 1 .6-.58c.34 0 .6.26.6.58zm.4 2.3c.32 0 .57-.25.57-.55 0-.3-.25-.55-.57-.55a.56.56 0 0 0-.57.55c0 .3.26.55.57.55zm.8 1.06c0 .26.21.46.48.46.26 0 .48-.22.48-.47 0-.26-.22-.46-.49-.46a.47.47 0 0 0-.48.47zM32 26.5a.6.6 0 0 0 .6-.58.6.6 0 0 0-.6-.59.6.6 0 0 0-.6.59c0 .32.26.58.6.58zm-.42-2.33c0 .3-.26.55-.57.55a.56.56 0 0 1-.57-.55c0-.3.25-.55.57-.55.31 0 .57.25.57.55zm-1.85-1.14c.26 0 .48-.21.48-.47a.48.48 0 0 0-.48-.47.48.48 0 0 0-.48.47c0 .26.21.47.48.47zm-5.36 16.57c0 .41-.34.75-.77.75a.76.76 0 0 1-.77-.75c0-.4.35-.74.77-.74.43 0 .77.33.77.74zm.47-.98a.8.8 0 0 0 .81-.78.8.8 0 0 0-.8-.78.8.8 0 0 0-.82.78c0 .43.37.78.81.78zm2.23-2.41c0 .45-.38.82-.85.82a.84.84 0 0 1-.85-.82c0-.46.38-.82.85-.82s.85.36.85.82zm-3.76 6.13c.4 0 .7-.3.7-.67a.69.69 0 0 0-.7-.67c-.38 0-.7.3-.7.67 0 .37.32.67.7.67zm3.63-7.5c0 .46.4.85.9.85.48 0 .88-.4.88-.87s-.4-.85-.9-.85c-.49 0-.88.4-.88.86zm5.17-4.04c.42 0 .77-.34.77-.75a.76.76 0 0 0-.77-.74.76.76 0 0 0-.77.74c0 .41.34.75.77.75zm-.43 1.02a.8.8 0 0 1-.81.78.8.8 0 0 1-.81-.78.8.8 0 0 1 .8-.78.8.8 0 0 1 .82.78zm-2.2 2.45c.47 0 .86-.37.86-.82a.84.84 0 0 0-.85-.82.84.84 0 0 0-.85.82c0 .45.38.82.85.82zm3.63-6.28c0 .37-.32.67-.7.67-.4 0-.7-.3-.7-.67 0-.37.3-.67.7-.67.38 0 .7.3.7.67z" fill="#00A69C"/><path d="M32.69 13.52a.84.84 0 0 0-.85.82c0 .46.38.82.85.82.46 0 .85-.36.85-.82a.84.84 0 0 0-.85-.82zm-.3 2a.9.9 0 0 0-.91.89c0 .5.41.89.92.89.5 0 .92-.4.92-.9a.9.9 0 0 0-.92-.89zm-1.23 1.72a.95.95 0 0 0-.96.93c0 .52.43.93.96.93.52 0 .96-.41.96-.93a.95.95 0 0 0-.96-.93zm-1.38 1.6c-.55 0-1 .42-1 .96s.45.97 1 .97c.54 0 1-.43 1-.97a.99.99 0 0 0-1-.97zm-5.89 6.24a.9.9 0 0 0-.92.9c0 .5.42.89.92.89s.92-.4.92-.9a.9.9 0 0 0-.92-.89zm1.24-1.8a.95.95 0 0 0-.96.93c0 .52.44.93.96.93.53 0 .96-.4.96-.93a.95.95 0 0 0-.96-.93zm1.38-1.67c-.54 0-1 .43-1 .97s.46.97 1 .97c.55 0 1-.43 1-.97a.99.99 0 0 0-1-.97zm1.66-1.44c-.57 0-1.03.46-1.03 1.02s.48 1 1.04 1c.58 0 1.04-.46 1.04-1.01 0-.56-.48-1-1.04-1zm3.95 20.59a.84.84 0 0 0-.85.82c0 .46.38.82.85.82.46 0 .85-.36.85-.82a.84.84 0 0 0-.85-.82zm-.4-1.97a.74.74 0 0 0-.75.73c0 .41.34.73.75.73.4 0 .75-.32.75-.73 0-.4-.34-.73-.75-.73zm-1-1.72c-.4 0-.72.3-.72.7 0 .4.32.7.72.7.39 0 .72-.3.72-.7 0-.4-.33-.7-.72-.7zm-1.28-1.51a.62.62 0 0 0-.63.62c0 .35.3.6.64.6a.64.64 0 0 0 .63-.61c0-.36-.3-.61-.64-.61zm-5.85-8.32a.84.84 0 0 0-.85.82c0 .46.39.82.85.82.47 0 .85-.36.85-.82a.84.84 0 0 0-.85-.82zm.41 2.14a.74.74 0 0 0-.75.73c0 .41.34.74.75.74s.75-.33.75-.74c0-.4-.34-.73-.75-.73zm1 1.79c-.4 0-.73.3-.73.7 0 .39.33.7.72.7.4 0 .72-.31.72-.7 0-.4-.32-.7-.72-.7zm1.26 1.69a.62.62 0 0 0-.63.62c0 .35.3.61.64.61h.01a.64.64 0 0 0 .62-.62c0-.35-.3-.61-.64-.61z" fill="#BE1E2D"/><path d="M28 12a16 16 0 1 0 0 32 16 16 0 0 0 0-32zM11 28a17 17 0 1 1 34 0 17 17 0 0 1-34 0z" fill="#00A69C"/></svg>