<!-- by TradingView --><svg xmlns="http://www.w3.org/2000/svg" width="56" height="56" viewBox="0 0 56 56"><path fill="#FF8300" d="M0 0h56v56H0z"/><path d="M37.45 14.96 28 10l-9.35 4.96.35 2.23-5 2.85 3.68 17.52L28 47l10.38-9.44L42 20.04l-5-2.84.45-2.24Zm-15.95 1.4 6.5-3.28 6.5 3.28-.5 2.08 5 2.8-3 15.03-8 7.34-8-7.34-3-15.03 5-2.52-.5-2.36ZM31 24.3c0-1.8-1.31-2.31-3-2.31v6.44c1.88-.69 3-2.64 3-4.13Zm3 0C34 28 31 30 28 31.6V39l-3-2.55-.22-3.98-1.52.53L22 30.41l2.6-.79L24 19.6l.26-.07c.73-.22 1.7-.52 3.29-.52 2.92 0 6.45 1.12 6.45 5.31Z" fill="#fff"/></svg>