<!-- by TradingView --><svg width="56" height="56" viewBox="0 0 56 56" xmlns="http://www.w3.org/2000/svg"><path fill="#008F4D" d="M0 0h56v56H0z"/><path d="M26.91 13.4a.13.13 0 0 0-.07-.03.12.12 0 0 0-.12.13c0 .07.06.12.12.12h.03a.13.13 0 0 0 .1-.1.12.12 0 0 0-.06-.13Zm2.3-.03a.13.13 0 0 1 .12.08.12.12 0 0 1-.02.13.13.13 0 0 1-.1.04.12.12 0 0 1-.12-.12.12.12 0 0 1 .07-.12h.05Z" fill="#fff"/><path d="M33.8 9c.12 0 .22.23.22.23.03.08.01.2 0 .23v.03c-.09.1-.19.2-.3.27l.01.05a.4.4 0 0 1 0 .08v.07c0 .2-.16.27-.27.33h-.01l-.08.06-.02.01a.39.39 0 0 0-.04.17c0 .07-.02.14-.05.2-.1.18-.25.21-.4.24a.84.84 0 0 0-.24.07c-.06.02-.09.09-.12.16v.02a.54.54 0 0 1-.1.17.59.59 0 0 1-.4.16.64.64 0 0 0-.24.04.6.6 0 0 0-.22.17c-.08.09-.16.17-.42.18-.07.33-.25.47-.6.47a.7.7 0 0 1-.31-.11c-.07.26-.28.44-.54.44-.05 0-.08-.03-.1-.06h-.02l-.02-.03c-.09 0-.15.06-.22.12l-.02.01a.6.6 0 0 1-.31.17h-.02l-.27-.1-.02.34c.32-.1.86-.02 1.08.15.81.63 1.07.87.98 1.61-.08.63-.65.94-1.32 1.16.28.19.46.45.5.82.07.8-.44 1.21-.99 1.5.41.24.72.52.74.87.02.23-.18.6-.46.85a.97.97 0 0 1-.8.28l-.05 1.24a.54.54 0 0 1 .19.41.52.52 0 0 1-.25.44.53.53 0 0 1-.8-.39.51.51 0 0 1 .2-.46l-.04-1.25c-.27.05-.48.02-.8-.24-.31-.26-.5-.66-.5-.88 0-.38.16-.7.5-.99-.54-.27-.97-.6-1-1.06-.01-.47.32-.92.74-1.2-.67-.17-1.23-.44-1.31-1.1-.1-.74.16-.98.97-1.61.23-.18.83-.26 1.13-.13v-.35l-.31.1h-.02a.56.56 0 0 1-.32-.17l-.01-.01c-.08-.07-.14-.12-.22-.12l-.02.02h-.01c-.03.04-.06.07-.1.07-.27 0-.48-.18-.55-.45a.6.6 0 0 1-.3.1c-.37 0-.55-.13-.62-.46-.23 0-.32-.07-.41-.18a.63.63 0 0 0-.22-.16.82.82 0 0 0-.23-.04c-.13-.01-.28-.03-.4-.16a.52.52 0 0 1-.11-.19c-.03-.07-.06-.13-.12-.16a.84.84 0 0 0-.25-.07c-.16-.03-.31-.05-.4-.24a.55.55 0 0 1-.06-.21.5.5 0 0 0-.04-.17.31.31 0 0 0-.1-.07c-.1-.05-.27-.13-.27-.33V9.9a.7.7 0 0 0 0-.06v-.08a1.3 1.3 0 0 1-.28-.27H22v-.03a.45.45 0 0 1 0-.22s.1-.22.22-.23a.11.11 0 0 1 .11.07c.25.5.74.6 1.5.6l1.34-.13h.01c.35.04.64.35.64.7v.07c0 .1 0 .24.05.29a.06.06 0 0 0 .06.02c.1 0 .15-.07.24-.18l.02-.02v-.02c.1-.11.21-.24.38-.24s.27.14.34.27l.02.02c.05-.05.1-.1.17-.13.08-.05.14-.07.18-.05h.01l.01.01c.05.05.1.1.13.16l-.08-.33.03-.03c.27-.23.83-.18 1.05-.12.12.02.18.06.2.12v.02l-.06.3c.03-.04.06-.09.1-.12l.02-.01c.05-.02.1 0 .19.04l.2.17.03-.06c.07-.12.17-.26.34-.26.18 0 .3.15.38.26.09.1.16.2.26.2a.06.06 0 0 0 .06-.02c.05-.05.05-.2.04-.29v-.08c0-.34.3-.65.65-.69l1.35.13c.76 0 1.25-.1 1.5-.6a.12.12 0 0 1 .1-.07Zm-5.04 1.43a2.3 2.3 0 0 0-.18.25l-.13.2a1.38 1.38 0 0 0-.05.21l.35-.3.1.11-.31.28h.09l.26-.17.27-.17a1.08 1.08 0 0 0-.18-.23.99.99 0 0 0-.22-.18Zm-.22 1.8.04-.8v-.1h-1.11v.13a42.55 42.55 0 0 0 .05 1.55l.02.35a365.21 365.21 0 0 1 .03.87l.04 1.28-.05-.01-.1-.02-.06-1.7a1.2 1.2 0 0 1-.17.1l-.16.1a.46.46 0 0 1-.34.1c-.14-.02-.25-.02-.5.38-.12.2-.15.36-.1.48.13.3.75.43 1.4.56h.03l.55.12.03-3.41v-.1h.16v.34l-.03 3.2.14.04.02-.44.06-1.58a.38.38 0 0 1-.05-.08c-.04-.12-.03-.23.06-.3l.02-.49v-.15l.01-.12.01-.3Zm.22 1.66-.12-.07-.06 1.61c.55-.1 1.14-.24 1.26-.52.05-.11.03-.26-.09-.45-.24-.4-.36-.4-.49-.38a.46.46 0 0 1-.35-.09 1.2 1.2 0 0 0-.15-.1Zm-.39-3.34.1-.41c-.12-.07-.7-.13-.95.03l.05.2.13.47.09.33h.12v-.83h.16v.83h.16v-.03l.08-.33.06-.26Zm-1.35.04-.1.11-.1.12.3.19.28.17h.03l-.3-.28.1-.11.38.34-.06-.21-.16-.23-.17-.26a.94.94 0 0 0-.2.16Zm-4.88-1.25.01.07c.27.35.98.63 1.61.61.2 0 .4-.03.6-.1.17-.05.35-.08.52-.08.23 0 .34.01.46.13.1.12.1.27.09.44v.03l-.02.18c0 .31.34.63.68.63.16 0 .3-.15.4-.28l.03-.02.01-.02.03-.03.06-.06.03-.01.02-.02a1 1 0 0 1 .16-.24l-.04-.06-.02-.03c-.06-.1-.1-.17-.19-.17-.1 0-.15.08-.24.18a2.35 2.35 0 0 1-.03.04c-.1.11-.2.24-.37.24a.23.23 0 0 1-.17-.06c-.08-.09-.1-.23-.1-.35v-.12c0-.26-.23-.5-.5-.54l-1.32.13h-.01c-.79 0-1.33-.11-1.62-.65a.47.47 0 0 0-.07.1v.06Zm1.33 1.57.06.03c.14 0 .28 0 .42-.03a4.5 4.5 0 0 0 .85-.2.2.2 0 0 1-.01-.06.3.3 0 0 1 .07-.18l.02-.03-.15-.1c-.11-.08-.19-.13-.32-.13-.1 0-.2.02-.29.04-.1.03-.21.05-.32.05l-.56-.13.05-.02c-.3-.05-.59-.15-.84-.3v.11c0 .1.07.14.18.2.04.01.09.04.13.07.3.13.84.18 1.16.18.32 0 .4-.03.59-.08l.05.13c-.18.07-.29.1-.63.1-.25 0-.73-.03-1.07-.14v.09l.04.16c.06.11.14.13.29.16.1.01.2.04.28.08Zm1.46.89.02-.06c.04.02.08.02.12 0h.1c.26 0 .41-.03.58-.13-.32-.08-.54-.31-.54-.6 0-.03-.08-.06-.16-.09a.54.54 0 0 1-.2-.11l.01.06c-.02.01-.54.19-.9.22h-.32l.04.08c.01.05.03.1.06.13.09.08.19.1.3.1l.09.02v-.01c.26.07.45.05.67.02a3 3 0 0 1 .4-.03v.15c-.13 0-.26 0-.39.02l-.28.03c.02.02.05.04.06.07.08.07.12.12.34.13Zm1.4.8.02-.02c.13-.28.33-.4.47-.47h.02l.02-.02c.14-.07.25-.13.34-.3l.13.06a.86.86 0 0 1-.42.38.85.85 0 0 0-.36.28c.1.02.19.09.26.15l.02.01c.06.07.13.11.22.14l.31-.11-.03-.86-.02-.44v-.1l-.19-.11a.3.3 0 0 0-.14.03.7.7 0 0 0-.25.27l-.02.02h-.03a8 8 0 0 1-.63.13h-.12l.02.02c-.24.16-.44.22-.78.22h-.12c.06.3.21.36.46.36.1 0 .27-.1.32-.14h.01l.1-.07v.05a.8.8 0 0 0 .38-.27l.13.06c-.06.14-.27.3-.5.36.05.2.2.35.39.36Zm.17 6.71c0 .16.15.52.45.76.11.1.25.17.4.2-.43-.28-.43-.46-.43-1.05 0-.29.39-.52.6-.6a7.61 7.61 0 0 1-.52-.22c-.34.26-.5.56-.5.91Zm1.08-.55c-.18.07-.5.27-.5.46 0 .65 0 .72.56 1.05l-.05-1.14v-.37Zm.73 3.53a.35.35 0 0 0 .06-.2.36.36 0 0 0-.22-.34.36.36 0 0 0-.47.19.35.35 0 0 0 .07.39.36.36 0 0 0 .56-.04Zm-.55-2.8.03.87.06.03-.06.01.01.2.04 1a.43.43 0 0 1 .17-.03h.04l.02-2.37a1.8 1.8 0 0 0-.32-.06l.01.36Zm.47.94v-.02h-.01v.3l.01-.28Zm0-1.18-.01 1.1v-.01a49.33 49.33 0 0 0 .05-1.07l-.04-.02Zm.17 1-.06.02c.62-.35.85-.48.59-1.02-.04-.08-.24-.18-.49-.28l-.01.36-.03.91Zm1.1-.92v-.01c-.03-.3-.35-.57-.76-.82l-.03.02-.21-.14-.58-.28-.12-.05c-.6-.27-.95-.44-1-.63a.84.84 0 0 1-.04-.22c0-.4.39-.61.72-.74l-.01-.2-.68-.15c-.41.24-.78.65-.78 1.1v.04c.03.65 1.18 1.08 2.01 1.4.61.22.96.36 1.04.54.08.13.12.28.13.43 0 .28-.21.45-.54.65a1 1 0 0 0 .43-.23c.26-.21.41-.53.41-.7Zm-2-2.5v-.2c-.49.19-.65.42-.56.76.03.1.29.23.6.38l-.04-.95Zm.38 1.09.2.1.02-.96a1.97 1.97 0 0 1-.43-.14l.03.54.02.39.16.07Zm.44.2-.08-.03.01-1 .1.02-.01.53-.02.48Zm1.42-1.04v-.13c-.08-.86-1.2-1.1-2.2-1.3-.75-.15-1.4-.27-1.56-.65a.45.45 0 0 1-.03-.19.8.8 0 0 1 .14-.43c.28-.45.45-.48.65-.46a.3.3 0 0 0 .23-.05l.17-.11c.12-.07.2-.12.25-.23a.1.1 0 0 0-.03-.14c-.2-.15-.8-.1-1.02.08-.68.53-.93.74-.93 1.22 0 .09 0 .17.02.25.09.74.91.92 1.78 1.1.88.18 1.78.37 1.78 1.22l-.01.12c-.02.24-.35.39-.49.44v.37l.23.16c.52-.24 1.02-.59 1.02-1.27Zm-1.22.04-.03.54c.14-.06.33-.17.34-.29a.75.75 0 0 0-.3-.71l-.01.46Zm2.06-2.43c0-.48-.24-.69-.93-1.22-.22-.17-.84-.22-1.02-.09l-.02.01c-.02.02-.05.03 0 .13.04.12.12.17.24.23l.17.11a.3.3 0 0 0 .23.06c.2-.02.37 0 .64.45a.8.8 0 0 1 .14.42.4.4 0 0 1-.04.18c-.15.33-.67.47-1.4.62v.09l-.01.05c.22.07.44.16.65.27.69-.2 1.26-.48 1.33-1.06l.02-.25Zm-1.4-2 .02-.01a.54.54 0 0 1 .27-.17.84.84 0 0 0-.36-.28.81.81 0 0 1-.4-.34l-.02.82.29.1c.08-.01.14-.07.2-.12Zm1.01-.57c.06.04.22.14.33.14.25 0 .4-.06.45-.4h-.13c-.33 0-.54-.05-.77-.22l.02-.02h-.13c-.05 0-.3-.06-.48-.1l-.14-.03h-.04l-.01-.02a.74.74 0 0 0-.28-.28.3.3 0 0 0-.12-.03l-.16.1v.1l-.02.47.1-.05c.09.18.19.23.34.31l.02.01c.17.1.36.2.5.49h-.01l.02.01c.2 0 .34-.15.38-.37a.85.85 0 0 1-.5-.35l.14-.07c.04.09.2.22.39.28v-.04l.08.06h.02v.01Zm2.1-.82a.33.33 0 0 0 .06-.13l.04-.08h-.33a4.6 4.6 0 0 1-.87-.22l-.03-.01.03-.08a.51.51 0 0 1-.22.12c-.1.04-.17.07-.17.1 0 .29-.22.5-.54.6.17.1.33.14.6.14h.22l.02.05c.22 0 .27-.05.34-.13a.38.38 0 0 1 .07-.07l-.3-.03a14.5 14.5 0 0 1-.39-.02v-.15a3 3 0 0 1 .4.03c.23.03.41.05.68-.02v.01h.07c.13 0 .22-.02.31-.11Zm1.28-1.33.01-.1v-.02l-.2.1a2.53 2.53 0 0 1-.68.2h.01l.04.02-.53.14h-.01c-.11 0-.22-.02-.33-.05a.86.86 0 0 0-.28-.04c-.13 0-.2.05-.31.13h-.01l-.16.1.03.04a.3.3 0 0 1 .07.18.2.2 0 0 1 0 .06c.06.03.53.18.84.21h.44l.05-.03c.09-.04.18-.06.28-.08.14-.02.23-.04.29-.16a.4.4 0 0 0 .04-.16l.01-.09a4 4 0 0 1-1.08.14c-.32 0-.43-.03-.6-.09h-.03l.05-.14h.02c.17.06.24.09.57.09.33 0 .89-.06 1.18-.2l.11-.06c.12-.05.18-.09.18-.2Zm-1.3.07c.63 0 1.33-.28 1.6-.63a.1.1 0 0 1 .03-.06V9.3a.47.47 0 0 0-.07-.1c-.29.53-.84.64-1.62.64l-1.34-.13a.58.58 0 0 0-.5.54v.12c0 .12-.01.26-.1.35a.24.24 0 0 1-.16.06c-.18 0-.3-.15-.39-.25-.08-.1-.17-.2-.25-.2-.09 0-.14.07-.22.19l-.06.1a1 1 0 0 1 .12.17.8.8 0 0 1 .23.2c.12.14.25.28.4.28.34 0 .69-.31.69-.63l-.01-.18c-.02-.18 0-.37.08-.46.1-.1.23-.14.46-.14.18 0 .35.03.52.09.2.06.4.1.6.1Zm.77 5.51.01.01c.35.43.71.86 1.29.86l.42.03c.25.03.49.06.78-.04l.09-.02-.08-.05a2.65 2.65 0 0 1-.52-.5l-.02-.03c-.31-.37-.65-.75-1.4-.75h-1l.07.07.26.3.1.12Zm-11.35.87c-.14 0-.28.02-.42.04-.25.03-.48.06-.78-.04l-.09-.03.08-.05c.2-.14.37-.32.52-.5l.02-.02c.32-.37.65-.76 1.4-.76h1.01l-.08.08c-.1.1-.2.2-.28.32l-.09.1-.01.01c-.35.42-.72.85-1.28.85ZM18.33 18l.02.01v.03s.12.03.16.02c.2-.05.42-.04.62.02.17.06.35.07.52.04l.18-.03c.41-.07.88-.15 1.03-.38a.32.32 0 0 0 .04-.25.24.24 0 0 0-.11-.18c-.13-.07-.32-.02-.52.03a1.77 1.77 0 0 1-.7.07 1.57 1.57 0 0 0-.42 0c.06-.13.1-.27.11-.41l.02-.09.05-.24c.04-.12.1-.23.16-.34v-.01c.1-.18.2-.36.15-.5a.26.26 0 0 0-.14-.14.31.31 0 0 0-.25-.03c-.25.1-.44.53-.61.9v.02l-.08.18c-.08.16-.1.34-.1.52.02.21-.03.42-.12.61-.02.03-.06.11 0 .15Zm-1.83 1.92c.04-.12.06-.23.06-.35 0-.11-.02-.22-.04-.33a1.86 1.86 0 0 1-.04-.33c0-.09 0-.17.03-.25l.05-.2c.1-.46.2-.96.47-1.11a.35.35 0 0 1 .26-.03.26.26 0 0 1 .18.13c.08.14.02.35-.06.57a1.76 1.76 0 0 0-.1.76c0 .16 0 .32-.04.47.15-.05.3-.08.46-.1.12-.01.23-.03.35-.06.13-.04.25-.09.37-.15.2-.1.4-.2.54-.14a.3.3 0 0 1 .16.16.33.33 0 0 1 0 .28c-.1.26-.56.44-.97.6l-.04.01-.18.07c-.18.07-.38.1-.57.07h-.02a1.3 1.3 0 0 0-.64.11c-.05.02-.13.05-.17 0l-.01-.02h-.02a.08.08 0 0 1-.04-.08c0-.03 0-.05.02-.08Zm-1.42 2.43c0 .04-.01.14.05.16h.03l.01.02c.05.04.13-.01.17-.03.25-.18.44-.2.63-.24.2-.02.35-.05.55-.17l.17-.11h.01c.39-.25.82-.52.88-.82a.33.33 0 0 0-.06-.27.29.29 0 0 0-.18-.13c-.16-.03-.33.1-.51.24-.11.09-.23.16-.35.23l-.34.13c-.15.04-.3.1-.43.18a2 2 0 0 0-.07-.55l-.05-.28c0-.14 0-.28.02-.4.03-.24.05-.46-.04-.58a.27.27 0 0 0-.2-.1.32.32 0 0 0-.26.09c-.22.2-.24.71-.25 1.17v.22c-.01.2.03.4.12.57.09.21.12.44.1.67ZM14 24.38c-.1-.15-.2-.31-.24-.56l-.04-.2v-.03c-.08-.47-.16-1 .03-1.24a.33.33 0 0 1 .25-.14.28.28 0 0 1 .22.06c.13.1.15.33.16.58a2.01 2.01 0 0 0 .2.8l.02.05c.06.15.12.28.13.42.13-.11.27-.2.41-.28a1.97 1.97 0 0 0 .63-.5c.17-.19.32-.36.49-.36a.28.28 0 0 1 .21.09.36.36 0 0 1 .12.26c0 .32-.4.7-.76 1.03l-.15.14c-.16.13-.33.23-.53.29a1.4 1.4 0 0 0-.63.39c-.04.03-.1.08-.15.05l-.02-.02h-.02c-.06-.01-.08-.1-.08-.15a1.42 1.42 0 0 0-.25-.67Z" fill="#fff"/><path d="M13 26.66c.09.23.22.36.34.49l.02.01c.13.13.3.3.4.61l.01.01c.02.05.05.13.11.12h.02l.03.01c.06.03.12-.06.14-.1.16-.28.34-.4.51-.5l.01-.01c.18-.1.34-.24.46-.41l.12-.18c.28-.41.59-.87.52-1.2a.36.36 0 0 0-.17-.22.28.28 0 0 0-.23-.05c-.16.05-.28.24-.4.45v.01a1.98 1.98 0 0 1-.52.65 2 2 0 0 0-.34.37c-.07-.15-.16-.3-.26-.44l-.02-.03-.2-.3a2.09 2.09 0 0 1-.15-.41c-.07-.24-.14-.46-.3-.54a.3.3 0 0 0-.23 0 .36.36 0 0 0-.22.19c-.13.29.07.8.26 1.25v.02l.09.2Z" fill="#fff"/><path d="M13.33 30.07c-.15-.1-.32-.2-.47-.42l-.12-.16-.01-.03c-.28-.4-.6-.86-.53-1.17a.37.37 0 0 1 .17-.24.3.3 0 0 1 .23-.05c.16.04.28.24.4.46.08.13.16.25.25.36l.24.23.05.05c.14.11.26.24.36.38.07-.16.15-.31.25-.45l.22-.34.15-.42c.07-.25.13-.47.29-.55a.3.3 0 0 1 .23-.01.36.36 0 0 1 .22.19c.14.29-.05.8-.23 1.27l-.01.03-.08.2c-.08.24-.2.36-.34.5l-.01.01c-.15.16-.3.31-.4.63-.02.04-.05.14-.12.13h-.03l-.02.01c-.07.02-.12-.06-.14-.1a1.47 1.47 0 0 0-.55-.51Z" fill="#fff"/><path d="M14.4 33.53c.04.06.11.11.17.08l.02-.02h.03c.07-.01.08-.1.1-.17.03-.37.16-.58.29-.78v-.02c.13-.2.23-.36.28-.64l.04-.25c.09-.56.19-1.19-.04-1.48a.4.4 0 0 0-.28-.15.33.33 0 0 0-.25.07c-.15.12-.17.39-.2.67a2.37 2.37 0 0 1-.22.93c-.09.18-.15.37-.19.57a2.3 2.3 0 0 0-.44-.32l-.04-.02a4.38 4.38 0 0 1-.38-.24 2.9 2.9 0 0 1-.36-.34c-.19-.2-.37-.4-.56-.41a.3.3 0 0 0-.24.1.42.42 0 0 0-.13.3c0 .37.46.8.87 1.18l.01.01.18.17c.2.2.4.27.6.34.29.06.54.2.74.42Zm1.78 3.27c-.05.04-.13 0-.2-.05-.3-.22-.59-.26-.8-.3h-.03a1.62 1.62 0 0 1-.68-.23l-.22-.13-.02-.01c-.5-.31-1.04-.66-1.13-1.03a.48.48 0 0 1 0-.1c0-.08.02-.17.08-.25a.35.35 0 0 1 .23-.15c.2-.03.41.13.65.3a2.53 2.53 0 0 0 .88.47l.06.02c.19.07.36.13.51.23-.01-.18.03-.41.06-.57l.01-.06.02-.1c.02-.12.05-.24.06-.38 0-.17 0-.35-.03-.52v-.02c-.03-.29-.06-.56.07-.71a.33.33 0 0 1 .24-.12.4.4 0 0 1 .33.1c.28.25.3.92.32 1.51v.28c.02.3-.05.48-.14.72-.1.24-.19.48-.16.88 0 .08 0 .17-.06.19h-.03l-.02.03Z" fill="#fff"/><path d="M18.37 39.31c.08.03.17.06.2 0l.03-.04h.03c.06-.04.04-.14.01-.21-.12-.4-.08-.68-.05-.94v-.02c.04-.26.08-.48-.01-.79l-.08-.28c-.16-.61-.34-1.3-.7-1.5a.42.42 0 0 0-.35-.02.4.4 0 0 0-.23.17c-.1.2 0 .46.1.75l.01.03c.07.17.12.36.16.54l.03.52v.03c0 .18.01.45.07.65a2.4 2.4 0 0 0-.66-.12 2.4 2.4 0 0 1-1.03-.26l-.01-.01c-.28-.12-.55-.24-.74-.16a.37.37 0 0 0-.2.22.47.47 0 0 0 0 .37c.18.37.85.6 1.44.8l.26.1c.3.1.53.08.76.07h.03l.05-.01c.23-.02.52-.04.88.11Z" fill="#fff"/><path d="M21.03 41.27a1.8 1.8 0 0 0-.94.03c-.23.06-.47.11-.79.06l-.27-.05H19c-.6-.11-1.29-.23-1.51-.57a.46.46 0 0 1-.06-.36.38.38 0 0 1 .16-.25c.18-.12.46-.04.76.04l.07.02c.17.04.32.08.48.09h.45l.07-.01c.24-.01.46-.02.67.02-.1-.2-.14-.4-.18-.63v-.03a2.84 2.84 0 0 0-.34-1.02c-.16-.28-.3-.54-.24-.75a.36.36 0 0 1 .2-.21.43.43 0 0 1 .36-.04c.38.14.67.8.92 1.37l.12.27c.13.28.13.5.14.74v.08c0 .26 0 .53.2.9.03.08.02.2.01.21l-.02.01h-.01l-.01.05c-.03.06-.13.05-.2.03Z" fill="#fff"/><path d="M23.72 41.15v.01c.04.28.1.57.34.93.05.07.1.15.05.2l-.04.03v.04c-.02.07-.12.07-.2.07-.42-.04-.72.09-.94.18l-.05.02c-.22.09-.44.18-.76.17h-.3c-.64 0-1.37-.02-1.66-.33a.49.49 0 0 1-.12-.36.37.37 0 0 1 .12-.28c.17-.14.48-.12.8-.09a2.65 2.65 0 0 0 1.1-.07c.24-.05.47-.1.7-.1a2.55 2.55 0 0 1-.27-.58l-.03-.06-.04-.11c-.04-.13-.1-.26-.16-.4-.09-.17-.2-.33-.32-.48-.2-.26-.38-.5-.35-.73a.39.39 0 0 1 .17-.25.45.45 0 0 1 .36-.1c.42.08.81.7 1.16 1.25l.17.27c.2.28.23.53.27.77Zm8.41-5.58a4.73 4.73 0 0 0-3.14.9l-.88-.34-.32-.13.34-.22c.47-.31.82-.54 1.34-.59.7-.06.78-.06 1.08.16l.09-.12c-.35-.25-.47-.25-1.18-.18a2.9 2.9 0 0 0-1.4.6l-.44.28c-.7-.27-1.39-.52-1.94-.62-.76-.15-2.18-.06-2.8.47a.74.74 0 0 0-.3.6v.04c0 .22.12.4.33.52.21.13.55.2.92.23.02.2.15.37.37.5.64.38 1.97.39 3.6-.38 1.04.42 1.99.68 2.76.75.77.08 1.24-.02 1.56-.26.2-.1.34-.26.43-.45.28-.06.52-.16.68-.33l.05-.03a.56.56 0 0 0 .24-.46c0-.36-.37-.9-1.39-.94Zm0 .14c.9.04 1.24.5 1.24.8a.4.4 0 0 1-.18.34c-.14.1-.34.17-.59.2a.13.13 0 0 1 0-.02V37c0-.35-.2-.67-.54-.85a1.33 1.33 0 0 0-1.56.35l.11.1c.48-.53 1.05-.5 1.39-.33a.81.81 0 0 1 .46.72.3.3 0 0 1 0 .07 8.14 8.14 0 0 1-2.78-.38l-.5-.16h-.01a4.51 4.51 0 0 1 2.95-.82Zm-2.9 1.84a6.74 6.74 0 0 1-.51-.2l-.57-.23.05-.03c.23-.12.43-.23.62-.35.74.26 1.5.45 2.26.57.42.06.88.1 1.29.05a.83.83 0 0 1-.38.33c-.1.05-.23.1-.35.12-.6.1-1.47.02-2.4-.26Zm-4.47-1.15c.53-.02 1.02.1 1.45.25-.71.25-1.47.39-2.23.39.02-.15.1-.28.2-.38.17-.14.37-.23.58-.26Zm3.4.08.5.2-.52.29-.15.08c-.46-.19-.89-.34-1.26-.46.26-.12.5-.25.75-.4l.67.29Zm-5.18.34c-.17-.1-.26-.23-.27-.4v-.03c0-.18.09-.35.25-.5.35-.29.96-.44 1.55-.48.6-.05 1.4.14 2.8.71l-.04.02c-.19.1-.39.22-.62.32l-.13.06a6.5 6.5 0 0 0-1.24-.3c-.38-.03-.9.06-1.2.33a.74.74 0 0 0-.25.47 1.87 1.87 0 0 1-.85-.2Zm1.3.73c-.18-.1-.29-.23-.3-.37.76.02 1.7-.17 2.44-.46l.15.06c.27.1.52.22.74.31l.3.13c-1.52.69-2.75.68-3.34.33Zm10.78 4.19c.32-.03.62-.05.79.09a.34.34 0 0 1 .11.28.46.46 0 0 1-.12.36c-.28.31-1.01.32-1.66.33h-.3c-.32.01-.53-.07-.78-.18h-.02a1.7 1.7 0 0 0-.95-.2c-.08.01-.18.01-.2-.06v-.04a.07.07 0 0 1-.03-.02c-.05-.06 0-.14.04-.2.26-.37.32-.7.35-.94.04-.24.09-.5.27-.78l.17-.26c.35-.55.75-1.18 1.16-1.25a.47.47 0 0 1 .36.09.39.39 0 0 1 .17.25c.03.22-.15.47-.34.72a2.88 2.88 0 0 0-.53 1l-.02.05a2.6 2.6 0 0 1-.27.6c.23-.01.45.04.7.09l.52.1c.19 0 .38 0 .58-.03Z" fill="#fff"/><path d="M38.44 40.13c-.18-.1-.45-.04-.75.04h-.02c-.18.05-.36.09-.55.1h-.5a2.34 2.34 0 0 0-.68.02c.1-.2.13-.4.17-.63v-.03a2.68 2.68 0 0 1 .34-1.02h.01c.15-.28.3-.54.23-.75a.36.36 0 0 0-.2-.21.47.47 0 0 0-.36-.04c-.38.14-.66.8-.91 1.37l-.13.28c-.13.3-.13.54-.13.79 0 .24 0 .55-.2.93-.04.07-.07.16-.02.2l.04.02v.04c.04.07.13.05.2.03.42-.1.69-.03.95.04.26.06.47.11.79.05l.27-.05h.02c.61-.1 1.3-.23 1.52-.57a.46.46 0 0 0 .06-.36.34.34 0 0 0-.15-.25Z" fill="#fff"/><path d="M40.12 37.8c.28-.12.55-.24.75-.16a.45.45 0 0 1 .2.6c-.16.36-.83.6-1.43.8l-.26.09c-.3.1-.51.1-.78.07a1.74 1.74 0 0 0-.94.11c-.08.03-.16.06-.2 0a.05.05 0 0 1-.02-.04h-.04c-.06-.04-.04-.14-.01-.21.13-.4.08-.72.05-.95a1.7 1.7 0 0 1 0-.8l.08-.28c.16-.61.34-1.3.7-1.5a.42.42 0 0 1 .35-.02.36.36 0 0 1 .23.17c.1.2 0 .48-.1.78a2.6 2.6 0 0 0-.2 1.06c0 .24 0 .47-.07.68.2-.07.4-.1.63-.12h.03c.17-.02.34-.04.5-.08.19-.05.36-.11.53-.2Z" fill="#fff"/><path d="M42.62 34.54c-.2-.03-.42.14-.65.31-.14.11-.28.2-.44.29l-.32.13-.12.04c-.2.06-.4.15-.58.25a2.2 2.2 0 0 0-.06-.6v-.03a2.53 2.53 0 0 1-.05-1v-.02c.03-.29.06-.56-.07-.71a.33.33 0 0 0-.25-.12.42.42 0 0 0-.32.1c-.29.25-.3.91-.32 1.5v.01l-.01.27c-.02.31.07.52.15.73.08.2.19.48.15.88 0 .08 0 .17.06.19a.03.03 0 0 0 .04 0c0 .01 0 .02.02.03.05.04.13 0 .19-.05.32-.23.58-.27.83-.3h.01c.25-.04.44-.07.68-.23l.22-.14.03-.02c.5-.3 1.04-.65 1.12-1.02v-.09a.38.38 0 0 0-.08-.25.38.38 0 0 0-.23-.15Zm1.15-3.51c.04.01.08.04.1.07a.33.33 0 0 1 .13.3c0 .36-.47.79-.87 1.17l-.01.01-.18.17c-.2.2-.37.25-.59.33l-.02.01a1.6 1.6 0 0 0-.71.44c-.06.05-.12.1-.18.07l-.02-.02h-.03c-.06-.01-.08-.1-.09-.17a1.66 1.66 0 0 0-.3-.79 1.55 1.55 0 0 1-.27-.65l-.04-.24v-.03c-.1-.55-.19-1.17.03-1.46a.4.4 0 0 1 .29-.15.33.33 0 0 1 .25.07c.15.12.17.39.19.67a2.15 2.15 0 0 0 .23.93c.08.18.14.37.18.57.13-.12.28-.22.45-.32l.04-.02a2.26 2.26 0 0 0 .73-.58c.19-.21.37-.4.56-.41.04 0 .09 0 .13.03Z" fill="#fff"/><path d="M43.02 28.45a2.27 2.27 0 0 1-.54.65 2.1 2.1 0 0 0-.35.38 2 2 0 0 0-.3-.52 1.87 1.87 0 0 1-.32-.7c-.07-.24-.14-.46-.3-.54a.3.3 0 0 0-.23-.01.36.36 0 0 0-.22.19c-.14.29.06.8.24 1.27v.03l.08.2c.09.24.22.37.34.5l.02.01c.13.14.3.31.4.63.01.04.05.14.12.13h.03l.02.01c.06.02.12-.06.14-.1.17-.28.35-.4.53-.5l.02-.02c.18-.11.32-.2.46-.4l.13-.18c.29-.41.6-.88.54-1.2a.34.34 0 0 0-.17-.24.3.3 0 0 0-.23-.05c-.17.04-.28.24-.4.45l-.01.01Z" fill="#fff"/><path d="M41.65 26.35a2 2 0 0 1 .34.37c.07-.15.15-.3.25-.44.08-.1.15-.22.22-.33.07-.13.12-.27.15-.41.08-.24.15-.46.3-.54a.3.3 0 0 1 .23 0 .35.35 0 0 1 .22.19c.14.29-.07.8-.25 1.25v.02l-.1.2c-.08.23-.2.35-.35.5-.15.14-.3.3-.41.6-.01.05-.05.14-.12.14h-.04c-.07.03-.12-.05-.14-.1a1.45 1.45 0 0 0-.53-.5v-.01c-.16-.1-.32-.2-.45-.4l-.12-.19-.03-.04c-.27-.4-.56-.84-.5-1.15a.36.36 0 0 1 .18-.23.28.28 0 0 1 .23-.04c.17.04.28.25.4.46a1.98 1.98 0 0 0 .52.65Z" fill="#fff"/><path d="M40.88 23.83a2.73 2.73 0 0 1-.33-.2 2.25 2.25 0 0 1-.3-.3l-.03-.03c-.15-.17-.3-.33-.46-.33a.3.3 0 0 0-.21.09.36.36 0 0 0-.12.26c0 .32.4.7.76 1.03l.15.14c.18.17.35.23.52.28h.01c.17.07.4.15.62.38.02.03.1.1.16.07l.02-.02h.02c.07-.01.08-.1.08-.15.03-.32.15-.5.26-.67.12-.18.2-.37.23-.57l.04-.22c.07-.48.16-1.02-.03-1.27a.35.35 0 0 0-.25-.14.3.3 0 0 0-.22.06c-.13.1-.15.33-.16.58a2.12 2.12 0 0 1-.2.79l-.02.06c-.06.14-.12.28-.13.42-.13-.1-.27-.19-.41-.26ZM39.2 21c.1.09.21.16.34.23.1.05.22.09.35.11.15.05.3.11.43.2 0-.16.01-.32.05-.48l.06-.36c0-.14 0-.28-.02-.41v-.01c-.03-.23-.05-.44.05-.56a.26.26 0 0 1 .2-.1c.09 0 .18.03.25.09.23.2.25.72.26 1.18l.01.22c0 .2-.03.39-.12.56-.07.19-.15.37-.12.68v.02c0 .04 0 .12-.05.14h-.03l-.01.02c-.05.04-.13 0-.16-.03a1.33 1.33 0 0 0-.65-.24h-.03a1.18 1.18 0 0 1-.51-.17l-.17-.11h-.01c-.39-.25-.82-.52-.88-.82a.35.35 0 0 1 .06-.27.28.28 0 0 1 .18-.13c.15-.02.3.09.48.21l.04.03Zm-2.18-2.2a.29.29 0 0 0-.15.17.33.33 0 0 0 0 .27c.1.28.59.46 1 .62l.2.07c.2.08.37.07.53.07h.03c.23-.03.46.01.66.1.05.03.13.06.17 0v-.02h.03a.08.08 0 0 0 .04-.07c0-.03 0-.06-.02-.09a1.2 1.2 0 0 1-.05-.34c0-.12.02-.23.04-.34.03-.1.04-.22.04-.33 0-.08 0-.17-.03-.25l-.05-.2c-.1-.45-.2-.95-.47-1.1a.33.33 0 0 0-.26-.03.27.27 0 0 0-.18.13c-.07.13-.01.33.05.54v.02c.05.13.08.26.1.4l.01.37c0 .15 0 .31.04.47a1.8 1.8 0 0 0-.46-.1 1.74 1.74 0 0 1-.72-.22h-.02c-.2-.1-.38-.19-.52-.14Zm-1.87-1.45a.24.24 0 0 1 .08-.07c.12-.07.28-.03.46 0l.02.01.04.01a1.93 1.93 0 0 0 .7.06c.14 0 .28 0 .42.02a1.73 1.73 0 0 1-.11-.42 2.63 2.63 0 0 0-.07-.34 2 2 0 0 0-.16-.33c-.1-.18-.2-.36-.15-.5a.24.24 0 0 1 .14-.16.32.32 0 0 1 .25-.02c.25.1.43.5.6.88l.02.04.07.18c.07.16.1.34.1.52-.02.21.03.42.12.61.02.05.05.12 0 .16h-.01v.03c-.03.05-.12.04-.16.03a1.1 1.1 0 0 0-.62.02c-.17.05-.35.06-.52.04l-.18-.04c-.41-.07-.88-.15-1.03-.37a.32.32 0 0 1-.04-.26.2.2 0 0 1 .03-.1Zm-8.9 24.9c-1.41-.9-2.54 1.33-2.54 1.33s.98.48 1.7.33c.03-.82.23-1.16.84-1.66Z" fill="#fff"/><path d="M25.74 45.17c-.28-1.47.22-3.18 1.49-2.67-.52.75-.49 1.06-.44 1.6l.04.49a6.1 6.1 0 0 0-1.1.58Z" fill="#fff"/><path d="M28.54 45.13c-.3.42-.39.55-.52.87-.1-.15-.15-.27-.2-.38-.09-.17-.16-.31-.32-.51-.5-.63-.8-2.56.5-2.53 1.41.03 1.02 1.9.54 2.55Zm3.84-1.52s-1.12-2.23-2.54-1.33c.6.5.8.84.84 1.67.72.15 1.7-.34 1.7-.34Z" fill="#fff"/><path d="M28.87 42.53c1.26-.5 1.76 1.2 1.48 2.68-.34-.24-.7-.44-1.1-.59l.05-.48c.05-.55.08-.85-.43-1.6ZM18.6 26.49c0-.8-.07-1.34-.27-1.63a.65.65 0 0 0-.5-.32c-.13-.03-.22-.04-.22-.26 0-.23.06-.28.18-.28h1.33c.24 0 .32.13.55.54l.01.02 2.91 5.3c.18.3.3.43.37.43.06 0 .04-.2.04-.64v-3.37c0-.81.04-1.2-.27-1.5-.2-.18-.4-.24-.54-.28-.16-.04-.26-.07-.26-.27 0-.15.07-.23.2-.23h2.01c.13 0 .18.03.18.22s-.08.23-.2.3a.81.81 0 0 0-.26.19c-.23.26-.3.59-.32 1.35l-.05 6.38c0 .38-.04.56-.12.56-.15 0-.25-.18-.41-.46l-.1-.16-3.52-5.93a.83.83 0 0 0-.22-.25c-.03 0-.12.18-.12.56v2.67c0 1.4.02 2.27.31 2.7.14.22.33.26.5.3.17.03.31.06.31.29 0 .25-.06.28-.23.28l-1.99-.02c-.15 0-.17-.11-.17-.31 0-.16.1-.2.22-.26s.26-.12.37-.31c.16-.3.27-1.2.27-2.69V26.5h.01Zm9.4-2.31-2.77 6.9c-.21.6-.46 1.06-.68 1.23l-.21.12c-.14.06-.25.11-.25.3 0 .17.12.27.24.27h2.38c.16 0 .25-.06.25-.27 0-.2-.16-.23-.39-.29l-.06-.01c-.5-.12-.76-.36-.76-.76.01-.15.04-.3.1-.45l.29-.77c.17-.57.36-.45.86-.45h1.55c.44 0 .57-.1.76.45l.3.65c.07.2.11.39.11.59 0 .47-.27.61-.5.73-.16.08-.29.15-.29.3 0 .16.07.28.18.28h2.99c.12 0 .16-.02.16-.27 0-.23-.04-.24-.23-.3l-.18-.08c-.36-.14-.51-.4-.67-.85l-2.8-7.26c-.06-.15-.1-.24-.21-.24-.11 0-.13.06-.18.18Zm.8 4.85c0 .11-.11.18-.36.18h-1.26c-.35 0-.5-.03-.5-.2.01-.12.04-.23.08-.33l.83-2.34c.04-.13.12-.2.16-.2.04 0 .1.08.16.25l.79 2.24c.04.13.08.27.1.4Zm4.82-4.2c-.2-.18-.46-.2-.67-.24-.25-.03-.44-.06-.44-.3 0-.15.1-.29.32-.29h3.52c.18 0 .27.1.27.26 0 .2-.16.24-.34.3a.92.92 0 0 0-.44.22c-.28.29-.3.68-.3 1.32v4.88c0 .74.21 1.18.66 1.34.16.06.3.08.43.1.26.04.46.07.46.31 0 .21-.14.27-.37.27h-3.54c-.2 0-.31-.08-.31-.21 0-.22.15-.3.38-.4l.28-.13c.28-.16.47-.59.47-1.24v-4.79c0-.76-.03-1.13-.38-1.4Z" fill="#fff"/></svg>