<!-- by TradingView --><svg width="56" height="56" viewBox="0 0 56 56" xmlns="http://www.w3.org/2000/svg"><path fill="#F0F3FA" d="M0 0h56v56H0z"/><path d="M26.4 37H21.8l16.95-20 4.61 6.3c2.05 2.61 4.76 7.79 0 12.05A6.9 6.9 0 0 1 38.74 37c-1.76.04-3.68-.36-4.62-1.26l-2.56-2.62 2.56-3.01 2.05 2.1c.86.87 3.08 2.1 5.13.52 2.37-1.82 1.37-4.55.51-5.77l-3.07-4.2L26.4 37Z" fill="#2F5FAB"/><path d="M6 37h5.26L21.8 24.37 26 29.1l3.16-3.15L21.79 17 6 37Z" fill="#690F0F"/><path d="M7.87 37 21.8 19.1l6.5 7.72.87-.87L21.79 17 6 37h1.87Z" fill="#D5863B"/></svg>