<!-- by TradingView --><svg width="56" height="56" viewBox="0 0 56 56" xmlns="http://www.w3.org/2000/svg"><path fill="#F0F3FA" d="M0 0h56v56H0z"/><path fill-rule="evenodd" d="M5 31v-6.38c.03-.2.22-.62.79-.62.56 0 .9.46 1 .69l2.78 4.58V24H10v6.84c0 .05-.03.16-.2.16-.19 0-.3-.17-.34-.25l-3.64-5.87c-.03-.05-.12-.14-.23-.14-.13 0-.19.2-.19.29V31H5Zm10 0v-4.56c.02-.15.13-.44.47-.44.34 0 .55.33.6.49l1.67 3.28V26H18v4.88c0 .04-.02.12-.13.12-.1 0-.17-.12-.2-.18l-2.18-4.2c-.02-.02-.07-.09-.13-.09-.08 0-.12.15-.12.2V31H15Zm-4.5 0 1.15-4.37c.05-.21.24-.63.6-.63.38 0 .53.36.56.54L14.3 31h-.7l-.45-1.34h-2L10.82 31h-.31Zm.74-1.62h1.83l-.81-2.43c-.03-.07-.1-.21-.2-.21-.11 0-.18.2-.2.3l-.62 2.34Zm11.26-.88c0 1.55-.9 2.5-2 2.5s-2-1.12-2-2.5c0-1.53.9-2.5 2-2.5s2 1.12 2 2.5Zm-.5.01c0 1.43-.67 2.31-1.5 2.31s-1.5-1.03-1.5-2.3c0-1.42.67-2.31 1.5-2.31s1.5 1.03 1.5 2.3Z" fill="#E6186E"/><path fill-rule="evenodd" d="M23 22v11.37c.01.21.19.63.8.63.62 0 1.02-.47 1.15-.7L32 22h-1.15L24.1 33c-.06.08-.2.26-.33.26-.15 0-.16-.12-.16-.27V22H23Zm20 8v-3.65c.02-.11.13-.35.47-.35a.7.7 0 0 1 .6.4L45.75 29V26H46v3.9c0 .04-.02.1-.13.1-.1 0-.17-.1-.2-.14L43.5 26.5c-.02-.02-.07-.08-.13-.08-.08 0-.12.12-.12.17V30H43Zm-12.7-4h.7v4h-.7v-4Zm17.4 0H47v4h.7v-4ZM32 30v-4h.95c.52-.01 1.54.17 1.54 1.05 0 .58-.4.83-.6.88.3.03.89.28.89 1 0 .9-.9 1.07-1.2 1.07H32Zm.6-2.15v-1.6c.5 0 1.31.04 1.31.79 0 .74-.73.81-1.3.81Zm0 1.93v-1.73c.59 0 1.52.04 1.52.85 0 .81-.85.88-1.51.88Zm2.8.22v-4h1.37c.49.01 1.46.26 1.46 1.16 0 .76-.77.95-1.16.95L38.36 30h-.7l-1.4-2.1h.51c.28-.01.83-.18.83-.74 0-.7-.52-.91-1.04-.91H36V30h-.6Zm5.27 0a2 2 0 1 0 0-4 2 2 0 0 0 0 4Zm0-.2c.77 0 1.39-.8 1.39-1.8s-.62-1.8-1.39-1.8c-.76 0-1.38.8-1.38 1.8s.62 1.8 1.38 1.8ZM51.55 26h.36l-1.65 1.86L52 30h-.78l-1.35-1.71L48.35 30H48l1.7-1.92L48.09 26h.67l1.34 1.64L51.55 26Z" fill="#114F81"/></svg>