<!-- by TradingView --><svg width="56" height="56" fill="none" xmlns="http://www.w3.org/2000/svg"><path fill="#F0F3FA" d="M0 0h56v56H0z"/><path d="M43.014 28.572c-.97.619-2.322 1.259-2.815 1.376v.568c.98-.462 2.324-1.372 2.892-1.837a.067.067 0 00.005-.098.065.065 0 00-.082-.01zM47.434 25.336c-1.772 1.207-4.558 2.343-7.029 2.55l-.059.956c2.556-.53 5.512-1.988 7.206-3.346a.099.099 0 00.014-.14.097.097 0 00-.132-.02zM51.915 22.175c-4.216 2.77-9.838 2.99-12.129 2.75.138.45.413 1.358.413 1.406 6.065-.357 9.48-2.338 11.78-4.065a.056.056 0 00.012-.075.055.055 0 00-.076-.015zM8.658 30.098l.412-.18c1.946-2.212 5.159-2.93 8.136-2.78 2.034.102 3.996.537 6.043 1.017 4.033.944 8.29 1.722 12.451 1.434 0 0 .079-.437.11-.717.031-.28.05-.718.05-.718-5.954-.209-11.196-2.5-17.652-2.195-3.526.166-7.415 1.022-9.55 4.139z" fill="#FBA115"/><path d="M15.614 29.111c-7.646-.206-10.704 2.844-11.579 4.534a.063.063 0 00.043.09.066.066 0 00.066-.023c3.065-3.764 7.388-3.768 12.65-2.719C22.488 32.13 27.678 33.745 34.4 32.4c0 0 .256-.348.4-.583.136-.221.32-.583.32-.583-1.15.16-4.56.287-8.451-.359-4.864-.807-6.898-1.651-11.055-1.764zM13.138 26.84l.413-.12c1.252-1.643 4.012-2.837 7.423-2.87 2.279-.022 6.205 1.035 10.026 1.79 1.616.319 4.66.69 4.66.69-.046-.384-.36-1.33-.809-2.011-.552-.119-6.433-1.372-8.92-1.546-2.327-.162-4.518-.149-6.431.227-3.64.716-5.459 2.435-6.362 3.84z" fill="#FBA115"/><path d="M15.993 22.983c-.282.662-.593 1.573-.593 1.617 0 0 1.19-.72 1.768-.918l.198-.5c1.688-4.251 5.56-7.194 10.056-7.64 2.137-.213 4.816.193 6.673 1.011.23.101.428.173.442.16.076-.075-1.44-.781-2.284-1.064-3.555-1.192-7.605-.709-10.82 1.173-2.412 1.411-4.358 3.619-5.44 6.16z" fill="#9A76B3"/><path d="M22.427 18.108c-1.757 1.146-3.297 2.943-4.097 4.777l-.2.457s1.103-.301 1.823-.422c.621-.104 1.603-.18 1.603-.18l.185-.261c.56-.788 1.626-1.726 2.6-2.287 3.026-1.742 7.09-1.52 9.935.544 1.967 1.427 3.28 3.416 3.75 5.68.509 2.452.093 4.797-1.248 7.033-.88 1.47-2.162 2.792-3.529 3.643-5.022 3.123-11.644 1.521-14.9-3.287-.57-.84-1.002-1.832-1.349-2.775a56.5 56.5 0 00-1.756-.32l.192.661c1.37 5.022 5.841 8.84 11.081 9.527 4.324.567 8.596-1.261 11.378-4.522 2.131-2.498 3.453-6.05 3.022-9.28-.326-2.438-1.503-5.037-3.102-6.847-1.24-1.403-3.298-2.736-5.236-3.392-3.354-1.134-7.192-.682-10.152 1.25z" fill="#9A76B3"/><path d="M16.603 29.176a32.23 32.23 0 00-1.568-.069c-.059-.525-.027-1.363-.027-1.917.504-.05 1.01-.084 1.512-.07 0 .88 0 1.38.083 2.056zM20.366 29.64a31.969 31.969 0 00-2.916-.42c-.1-.767-.157-1.655-.13-2.08.89.063 1.801.151 2.68.31.072.87.177 1.487.366 2.19z" fill="#9A76B3"/><path d="M35.75 26.758c-.528-3.04-2.976-5.438-6.036-6.113-2.486-.548-5.206.364-6.881 2.054h-.284a7.057 7.057 0 012.351-1.963c1.71-.9 3.825-1.188 5.728-.783 1.643.35 3.02 1.096 4.26 2.313a8.397 8.397 0 012.348 4.207c.559 2.529.064 4.88-1.513 7.188-1.063 1.555-2.43 2.7-4.094 3.43-2.777 1.22-5.945 1.195-8.644-.18a10.399 10.399 0 01-5.02-5.671c1.202.248 2.348.508 3.535.74.162.254.92 1.105 1.227 1.381 2.458 2.214 5.894 2.766 8.753 1.407a8.11 8.11 0 001.431-.864c2.228-1.692 3.31-4.43 2.838-7.146zM20.17 25.942c-.921 0-1.837.033-2.757.068.12-.648.197-1.077.426-1.78 1.097-.333 3.041-.39 3.041-.39a9.13 9.13 0 00-.71 2.102zM16.623 26.09c.077-.64.333-1.61.333-1.61-.587.183-1.095.44-1.644.74-.062.293-.165.785-.216 1.1.508-.085 1.019-.182 1.527-.23z" fill="#9A76B3"/></svg>