<!-- by TradingView --><svg width="56" height="56" fill="none" xmlns="http://www.w3.org/2000/svg"><path fill="url(#paint0_linear_3186)" d="M0 0h56v56H0z"/><path fill-rule="evenodd" clip-rule="evenodd" d="M45.167 23.869c-.072.532-.373 1.257-.811 1.345-.04.01-.023-.078 0-.204.047-.25.12-.647-.163-.711-.464-.061-.78-.565-.707-1.125.074-.56.51-.965.974-.904.728.096.786 1.018.707 1.599zm-19.705-1.374h-.41c0 1.198-.927 2.485-1.804 2.748v.526H24v3.974-.965c-.03 1.17-1.688 1.55-1.688.725V26.988c0-.291.236-.527.526-.527h.264c-.443-1.033-1.54-1.459-2.602-1.46a4.045 4.045 0 00-.6.043c-2.03.303-2.868 2.31-2.473 4.202.228 1.091.992 1.754 2.02 1.754.563 0 1.15-.231 1.579-.614 0 0 .274.614 1.023.614C23.5 31 24 29.83 24 29.83v-.048c.005.211.09 1.218 1.294 1.218C26.613 31 27 29.86 27 29.86V31h1.462s-.008-2.866 0-3.823c.008-.956 1.356-1.169 1.356-.204v2.778c0 .234-.527.322-.527.322.05.695.69.94 1.316.927.666-.014 1.294-.308 1.78-1.028.359.652.983 1.028 1.758 1.028.562 0 1.15-.231 1.579-.614 0 0 .276.614 1.023.614 1.114 0 1.727-.93 1.85-1.136V31H40v-3.65c0-.994 1.49-1.11 1.49-.35v2.772c0 .322-.233.556-.613.585.292.497.906.643 1.374.643.833 0 1.817-.392 2.374-1.057.454.639 1.231 1.044 2.099 1.057 1.488.022 2.77-1.093 3.245-2.459.378.071 1.095.609 1.265 1.321.555 2.317-4.587 3.09-6.001 3.138H5.91c.497.02 1.672.597 3.145 2h35.99c.292 0 .86-.374 1.023-.819 1.885.043 5.798-1.2 5.931-3.56.065-1.155-.898-2.193-1.972-2.577.04-.485-.12-1.501-.883-2.194-.302-.275-.611-.382-1.001-.446-.422-.07-.866-.192-1.032-.588-.16-.38.11-.847.491-.97.113-.037.203-.13.203-.247v-.116h-1.404l-.03.319v.002c-.08.88-.188 2.042-.525 2.917-1.14-.022-1.94 1.07-1.564 2.493.033.123.076.242.128.357-.817.668-1.411.318-1.411.318v-3.357c0-.26.325-.378.585-.146 0 0 .01-.869-.925-1.226a2.547 2.547 0 00-.976-.16c-.46.015-.913.155-1.246.45-.263.234-.438.293-.438.293v-.731h-.439c-.25 1.206-1.174 1.65-1.57 1.788a.265.265 0 00-.184.244v.453a.555.555 0 00.16-.083c.06-.039.121-.079.19-.093.221-.044.44.073.44.293v1.366c-.2 1.003-1.597 1.294-1.597.52V27c0-.29.246-.539.536-.539h.263c-.45-1.052-1.578-1.474-2.657-1.46a4.013 4.013 0 00-.544.043c-2.03.302-2.868 2.31-2.473 4.202.014.067.03.132.048.196-.676.695-.894.192-.894.134v-2.954c.039-.27.202-.442.343-.593.074-.078.142-.15.184-.226A1.882 1.882 0 0030.225 25c-.15 0-.3.015-.445.043-.545.105-1.105.402-1.318.574 0 0-.023-2.585 0-3.122h-.41s-.348 1.667-1.552 2.156v.534h.5v2.98c0 1.835-1.538 1.93-1.538 1.373V25.77h.087a.263.263 0 000-.526h-.087v-2.748zm10.086 6.692v-2.141c0-.614-.353-1.046-.95-1.046-1.672 0-1.684 3.885 0 3.885.776 0 .95-.698.95-.698zm-15.648.698c.756 0 .95-.698.95-.698v-2.141c0-.614-.353-1.111-.95-1.111-1.636 0-1.73 3.95 0 3.95zm25.48-.876c.291-.41.847-1.316.847-1.316.268.18.266.54.263.836v.075a.409.409 0 00-.15.146c-.048.088-.024.207.076.247a.16.16 0 00.074.012.094.094 0 00.058-.025c.665-.712 1.137-.86 1.51-.93.077-.015.154-.026.231-.037l.014-.002c0 .922-1.172 1.608-1.988 1.608-.556 0-.829-.39-.936-.614zm-.147-.643c-.02-.244-.03-.643.322-.965h.146c-.059.195-.234.66-.468.965zm2.514-.731a3.146 3.146 0 00-1.199-.877c0-.4.215-.659.597-.74.322-.069.651.013.913.236.542.459.47 1.181.45 1.322a1.127 1.127 0 00-.41.03.848.848 0 01-.35.029z" fill="#fff"/><path d="M9.999 25.582c0-1.202-.535-2.32-1.794-2.539-1.288-.237-2.22.718-2.474 1.82-.151.657.026 1.541.734 1.806.33.124.711.087.95-.135.24-.222.222-.522.183-.824-.216.186-.585.166-.71-.1a.842.842 0 01-.072-.353c0-.362.318-.75.753-.666.33.05.477.394.593.666.497 1.17-.044 2.462-.542 2.94a1.99 1.99 0 01-1.6.553c-1.055-.12-1.75-1.083-1.894-2.062-.103-.697.106-1.308.34-1.796a.88.88 0 01-.65-.87c.019-.407.33-.91.777-.892.431.017.63.64.63.64.752-.898 1.781-1.53 2.953-1.714 1.462-.229 2.698.248 3.567 1.307.72-.412 1.563-.657 2.28-.657 1.316 0 2.485.978 2.719 1.87-.746 0-.74.428-.732.875l.001.131v3.602c-.022 1.035 1.329.937 1.226.028.43-.503.729-.756.155.576-.519 1.206-1.753 1.207-1.979 1.208h-.009c-1.588.004-1.994-1.67-1.93-1.61.41.373.841.293.841-.202v-3.66c0-.683-.562-1.236-1.257-1.236-.694 0-1.058.553-1.058 1.237v3.634c0 .584.435 1.066 1.006 1.14V31H8.709v-.69h.003c.71 0 1.287-.567 1.287-1.266v-3.462z" fill="#fff"/><defs><linearGradient id="paint0_linear_3186" x1="10.418" y1="9.712" x2="68.147" y2="76.017" gradientUnits="userSpaceOnUse"><stop stop-color="#1A1E21"/><stop offset="1" stop-color="#06060A"/></linearGradient></defs></svg>