<!-- by TradingView --><svg width="56" height="56" viewBox="0 0 56 56" xmlns="http://www.w3.org/2000/svg"><path fill="#F0F3FA" d="M0 0h56v56H0z"/><path d="M48.25 27.33c-.48-.15-1.04-.27-1.04-.75 0-.36.42-.6.82-.6.4 0 .68.22.74.69h1.1C49.82 25.4 48.73 25 48.07 25c-1.1 0-1.85.8-1.85 1.65 0 1.21 1.04 1.49 1.67 1.72.56.2 1.1.37 1.1.87 0 .48-.43.78-.93.78-.6 0-.94-.38-.98-1.02H46c0 1.56 1.32 2 2.05 2 1.24 0 1.95-.81 1.95-1.82 0-1.36-1.3-1.72-1.75-1.85ZM41.99 30c1.11 0 2.01-.9 2.01-2 0-1.21-.9-2.02-2-2.02-1.3 0-2 1.12-2 2.02 0 1.03.87 2 1.99 2ZM44 25h1v6h-1v-1.03c-.4.7-1.23 1.03-2 1.03-1.9 0-3-1.47-3-2.97 0-1.4.97-3.03 3-3.03.79 0 1.6.33 2 .96V25ZM36.9 27.5c-.05-.83-.84-1.5-1.9-1.5s-1.84.67-1.9 1.5h3.8ZM35 25a2.97 2.97 0 0 1 3 2.92c0 .19-.03.5-.04.58H33.1A1.9 1.9 0 0 0 35 30c.82 0 1.44-.5 1.7-1h1.11c-.56 1.47-1.9 2-2.82 2A3.02 3.02 0 0 1 32 28c0-1.71 1.36-3 3.01-3ZM28.65 25c-.22 0-1.07-.04-1.57.73H27V24h-1v7h1v-3.27c0-1.15.66-1.73 1.54-1.73 1.4 0 1.46 1.3 1.46 1.74V31h1v-3.54a2.84 2.84 0 0 0-.36-1.47c-.4-.64-1.11-.99-1.99-.99ZM22.5 26h.5v5h1v-5h1v-1h-1v-1h-1v1h-.5v1ZM21.74 25c-.33.01-1.26-.05-1.72.54H20V25h-1v6h1v-3.28c0-.86.39-1.31.8-1.5.31-.15.74-.19.94-.19V25ZM15 30a2 2 0 1 0 0-4 2 2 0 0 0 0 4Zm0-5c1.69 0 3 1.36 3 2.99A3.03 3.03 0 0 1 15 31c-1.87 0-3-1.6-3-3.04A3 3 0 0 1 15 25ZM10 24h1v7H9.86L6 25.78V31H5v-7h1.2l3.8 5.13V24Z" fill="#00567D"/><path d="M45 23c-1.9-1.58-4.4-3-7.23-3-4.74-.22-15.64 4.34-24.77 5 8.05-.46 17.22-2.95 25.7-2.95 2.71.17 4.77.84 6.3 1.65V23Z" fill="#C8D73F"/><path d="M43 33h.52v1.3l.87-1.3H45l-1.05 1.48L45 36h-.6l-.88-1.32V36H43v-3ZM38.5 33h.65l1.28 2.18V33H41v3h-.64L39 33.82V36h-.5v-3ZM34.74 34.7h.7l-.34-.92-.36.92Zm.14-1.7h.44l1.28 3h-.62l-.33-.77h-1.1l-.32.77h-.63l1.28-3ZM30.57 35.48h.29c.1 0 .57 0 .57-.4 0-.11-.06-.4-.56-.4h-.3v.8Zm0-1.31h.19c.13 0 .49 0 .49-.33 0-.18-.12-.32-.44-.32h-.24v.65ZM30 33h.6c.35 0 .69 0 .96.23.15.13.26.35.26.56a.6.6 0 0 1-.35.57c.2.08.53.24.53.75 0 .36-.2.58-.38.71-.24.16-.6.18-.8.18H30v-3Z" fill="#7A6569"/></svg>