<!-- by TradingView --><svg width="56" height="56" viewBox="0 0 56 56" xmlns="http://www.w3.org/2000/svg"><path fill="#001B5A" d="M0 0h56v56H0z"/><path d="M8.67 20.45 9 20H7.04l.38.45v6.06L7 27h1.53L8 26.5v-5.24l4.32 5.25-.38.49h1.47l-.41-.5v-6.05l.4-.45h-1.46l.38.45v4.77l-3.65-4.77Zm5.86.57.47.56v4.83l-.47.59h4.34l.36.4v-1.77l-.36.67H15.7v-2.28h1.85l.44.48v-1.62l-.44.42H15.7v-1.6h3.17l.36.31V20.4l-.52.63h-4.18Zm4.85-.02h1.77l-.46.56 1.34 3.82 1.1-3.82-.46-.56h1.9l-.46.56 1.26 3.82 1.26-3.82-.46-.56h1.75l-.56.56-1.52 4.73.33.71h-1.6l.32-.71-1.33-3.79-1.27 3.79.38.71h-1.72l.4-.71-1.43-4.73-.54-.56ZM28 21l.3.47v5.06L28 27h3.64c.45-.02 1.36-.35 1.36-1.57 0-1.2-.51-1.55-.77-1.57.17-.1.5-.49.5-1.33 0-1.06-.68-1.53-1.42-1.53H28Zm1 .7h2.26c.42 0 .77.4.77.92 0 .51-.35.93-.77.93H29V21.7Zm0 2.66h2.46c.46 0 .83.42.83.93 0 .52-.37 1.01-.83 1.01H29v-1.94ZM33.66 21l.34.4v3.78c0 1 .7 1.82 1.58 1.82h1.54c.87 0 1.58-.82 1.58-1.82v-3.79l.33-.39h-1.39l.36.4v3.64c0 .84-.6 1.28-1.33 1.28H36c-.72 0-1.31-.44-1.31-1.28V21.4l.34-.39h-1.38Zm6.34.48-.4-.48h3.73c.75 0 1.36.74 1.36 1.66 0 .92-.6 1.66-1.36 1.66h-.03l1.05 2 .67.68h-1.66l.23-.56-1.1-2.12H40.7v2.12l.44.56H39.6l.4-.56v-4.96Zm.7.22v1.96h2.45c.47 0 .85-.44.85-.98s-.38-.98-.85-.98H40.7Zm3.93-.7.52.46c.6.93 1.85 2.8 1.85 2.8v2.26l-.44.48h1.56l-.42-.48v-2.27l1.83-2.8L50 21h-1.68l.34.54-1.29 1.86L46 21.46l.34-.46h-1.7ZM12 35.27l.92-1.63.2.68c.23.24 1 .72 2.28.72 1.6 0 2.08-.7 2.08-1.25 0-.54-.16-.9-1.74-.9s-3.27-.05-3.27-1.86c0-1.82 2.34-2.03 3-2.03.68 0 1.48.12 2.39.65l.44-.04v-.06l.4.45h4.1l.4-.45v1.65l-.4-.5H21v4.83l.43.47H19.9l.41-.47V30.7h-1.6l-.4.5v-1.52l-.77 1.35-.18-.66c-.16-.17-.78-.5-1.95-.5-1.46 0-2.06.46-2.06 1.16s1.45.85 2.4.9c.95.04 2.7.3 2.7 1.86 0 1.57-1.76 2.21-3.04 2.21-1.03 0-2.19-.58-2.64-.88l-.76.15ZM29.53 30l.47.64v4.78l-.47.58h4.35l.36.5v-1.84l-.36.64H30.7V33h1.83l.44.55v-1.79l-.44.54H30.7v-1.6h3.18l.36.37v-1.6l-.52.53h-4.19Zm-5.53.48-.44-.48h3.73c.75 0 1.36.74 1.36 1.66 0 .92-.61 1.66-1.36 1.66h-.03l1.05 2 .66.68h-1.66l.23-.56-1.1-2.12H24.7v2.12l.4.56h-1.54l.44-.56v-4.96Zm.7.14v1.96h2.35c.46 0 .83-.44.83-.98 0-.55-.37-.98-.83-.98H24.7Zm14.82.54V29.5l.43.5h4.62l.44-.5v1.66l-.44-.46H42.7v4.83l.5.47h-1.7l.5-.47V30.7h-2.05l-.43.46ZM35 30.64l-.47-.64h4.2l.51-.53v1.6l-.36-.37H35.7v1.6h1.83l.44-.54v1.8l-.44-.56H35.7v2.3h3.18l.36-.64v1.84l-.36-.5h-4.35l.47-.58v-4.78Z" fill="#F3FCFF"/></svg>