<!-- by TradingView --><svg xmlns="http://www.w3.org/2000/svg" width="56" height="56"><path fill="#F0F3FA" d="M0 0h56v56H0z"/><path d="M33.07 14l-17.1 11.96L43.16 14h.33c.28 0 .5.22.5.5v15a.5.5 0 01-.5.5h-31a.5.5 0 01-.5-.5v-15c0-.28.22-.5.5-.5h20.57zM12 41.7v-9.06c0-.26.3-.4.5-.24l6.5 5.37V32.3c0-.17.13-.3.3-.3h1.4c.17 0 .3.13.3.3v9.07c0 .25-.3.4-.49.23L14 36.3v5.4a.3.3 0 01-.3.3h-1.4a.3.3 0 01-.3-.3z" fill="#58575D"/><path d="M15.96 26l6.8-12h10.83L15.96 26z" fill="#F5662A"/><path d="M32.58 39.23c.23.16.3.47.12.68A6.27 6.27 0 0127.9 42c-3.26 0-5.9-2.24-5.9-5s2.64-5 5.9-5a6.3 6.3 0 014.69 1.97c.19.2.13.53-.1.69l-.87.6c-.24.17-.57.1-.77-.1A4.4 4.4 0 0027.84 34c-1.91 0-3.84.93-3.84 3s1.93 3 3.84 3c1.17 0 2.35-.5 3.02-1.27.2-.23.53-.31.78-.14l.94.64zM34 32.62v9.08c0 .17.13.3.3.3h1.4a.3.3 0 00.3-.3v-5.44l3.04 2.02L42 36.26v5.44c0 .17.13.3.3.3h1.4a.3.3 0 00.3-.3v-9.07a.3.3 0 00-.49-.24L39.04 36l-4.55-3.6a.3.3 0 00-.49.23z" fill="#58575D"/></svg>