<!-- by TradingView --><svg width="56" height="56" viewBox="0 0 56 56" xmlns="http://www.w3.org/2000/svg"><path fill="#1C2B54" d="M0 0h56v56H0z"/><path d="M20.12 22c-1.34 0-2.99.61-3.64.92.5-3.28-.28-4.92-1.12-4.92-.84 0-3.36 4.28-3.36 9.33C12 40.93 24.6 44 28.04 44c3.43 0 7.2-1.57 8.05-2.28.42.64 1.82 2.28 3.15 2.28 1.33 0 1.97-.28 2.32-.64-.7-1.92-.56-4.84-.56-5.98 2.73-3.56 3-7.41 3-10.05C44 24.7 42.74 20 38.12 20c-3.7 0-6.68 6.82-7.7 10-1.96 0-5.86.07-6.42.47 0 1.42.95 2.63 1.51 3.06-.3.14-1.17.47-2.24.47a8.27 8.27 0 0 1-7.9-5.6c2.1-2.63 6.16-3.19 7.63-3.4-.28-1.28-1.2-3-2.88-3ZM26 13.18c.05.8-.8 1.6-1.9 1.78-1.1.18-2.04-.33-2.1-1.14-.05-.8.8-1.6 1.9-1.78 1.1-.18 2.04.33 2.1 1.14ZM38.9 17.2c-.36.88-1.49 1.06-2.54.4-1.04-.65-1.6-1.9-1.26-2.8.36-.88 1.49-1.06 2.54-.4 1.04.65 1.6 1.9 1.26 2.8Z" fill="#fff"/><path d="M22.95 18.73c.24.71-.44 1.63-1.51 2.06-1.08.42-2.15.2-2.4-.52-.23-.71.45-1.63 1.52-2.06 1.08-.42 2.15-.2 2.4.52Z" fill="#fff"/><ellipse cx="29" cy="20.5" rx="2" ry="1.5" fill="#fff"/><path d="M30 17c0 .55-.67 1-1.5 1s-1.5-.45-1.5-1 .67-1 1.5-1 1.5.45 1.5 1ZM26 16c0 .55-.67 1-1.5 1s-1.5-.45-1.5-1 .67-1 1.5-1 1.5.45 1.5 1ZM26 18.5c0 .28-.45.5-1 .5s-1-.22-1-.5.45-.5 1-.5 1 .22 1 .5ZM25 21a1 1 0 1 1-2 0 1 1 0 0 1 2 0ZM33 18.5c0 .28-.45.5-1 .5s-1-.22-1-.5.45-.5 1-.5 1 .22 1 .5ZM29 14.5c0 .28-.45.5-1 .5s-1-.22-1-.5.45-.5 1-.5 1 .22 1 .5ZM34 13.5c0 .28-.45.5-1 .5s-1-.22-1-.5.45-.5 1-.5 1 .22 1 .5ZM34 15.5a.5.5 0 1 1-1 0 .5.5 0 0 1 1 0ZM19 17.5a.5.5 0 1 1-1 0 .5.5 0 0 1 1 0ZM19 21.5a.5.5 0 1 1-1 0 .5.5 0 0 1 1 0ZM31 13.5c0 .28-.67.5-1.5.5s-1.5-.22-1.5-.5.67-.5 1.5-.5 1.5.22 1.5.5ZM32.97 16.48c-.17.49-.97.66-1.78.4-.81-.27-1.33-.88-1.16-1.36.17-.49.97-.66 1.78-.4.81.27 1.33.88 1.16 1.36ZM17.77 15.93c.16.48.92.66 1.69.39.77-.27 1.26-.87 1.1-1.36-.17-.48-.92-.66-1.69-.4-.77.27-1.26.88-1.1 1.37Z" fill="#fff"/></svg>