<!-- by TradingView --><svg width="56" height="56" viewBox="0 0 56 56" xmlns="http://www.w3.org/2000/svg"><path fill="#F0F3FA" d="M0 0h56v56H0z"/><path d="M9 18h2.44L18 28.37V18h2v14h-2.46L11 21.63V32H9V18Zm26 5h-2.09a4.67 4.67 0 0 0-4.18-3C26.04 20 24 22.38 24 25c0 2.64 2.03 5 4.73 5a4.6 4.6 0 0 0 4.18-2.98L35 27a6.68 6.68 0 0 1-6.32 5C24.9 32 22 28.69 22 25c0-3.66 2.92-7 6.68-7A6.74 6.74 0 0 1 35 23Zm9.5-1c0-1.18-1.48-2-2.5-2-2.5 0-3.5.56-3.5 1.85 0 2.65 8.5 1.64 8.5 6.05 0 2.62-3.17 4.14-5.43 4.1-2.54 0-5.57-1.6-5.57-4.44h2c0 1.57 2.13 2.44 3.55 2.44 1.14 0 3.45-.66 3.45-2.03 0-2.2-8.5-1.49-8.5-6.03 0-2.5 2-3.94 5.05-3.94 2.26 0 4.74 1.54 4.95 4h-2ZM9 34h1.12l1.38 3.02L12.88 34H14v4h-1v-2.5L11.86 38h-.72L10 35.51V38H9v-4Zm6 0h1v2.22c0 .44.07.78.5.78.42 0 .5-.34.5-.78V34h1v2.55A1.5 1.5 0 0 1 16.5 38c-.8 0-1.5-.64-1.5-1.45V34Zm4 0h1v3.4h2v.6h-3v-4Zm4 4v-3.4h-1V34h3v.6h-1V38h-1Zm9 0v-3.4h-1V34h3v.6h-1V38h-1Zm-6-4h1v4h-1v-4Zm4.13 1.12c0-.33-.27-.43-.56-.43-.31 0-.57.15-.57.4 0 .8 2 .42 2 1.74 0 .72-.84 1.18-1.48 1.17-.72 0-1.52-.47-1.52-1.27h.71c0 .44.34.6.75.6.27 0 .54-.15.54-.48 0-.58-2-.49-2-1.72 0-.7.55-1.13 1.51-1.13.65 0 1.43.43 1.49 1.12h-.87ZM35.64 34h.72L38 38h-1l-.38-1h-1.25L35 38h-1l1.64-4Zm.36 1.1-.42 1.33h.84L36 35.1Zm7-1.1h3v.6h-2v.84h2V36h-2v1.41h2V38h-3v-4Zm-3 4a2 2 0 0 0 1.94-1.5L42 36h-2v.5h.87a1 1 0 1 1-.18-1.22h1.17A2 2 0 1 0 40 38Z" fill="#22B145"/></svg>