<!-- by TradingView --><svg width="56" height="56" viewBox="0 0 56 56" xmlns="http://www.w3.org/2000/svg"><path fill="url(#a3txoeq21)" d="M0 0h56v56H0z"/><path d="M22.7 46.85c.04-.39.27-.7.43-1.03a95.02 95.02 0 0 0 3.26-7.28c.09-.2.22-.4.18-.7-.6-.58-1.27-1.17-1.88-1.82a16.75 16.75 0 0 1-2.62-3.63c-1.62-3.04-1.31-6 .33-8.89 1.47-2.57 3.65-4.42 6.1-5.97.63-.4 1.24-.82 2-1.12.9 1.02 1.4 2.26 1.87 3.51 1.55 4.18 1.4 8.37.1 12.57a28.82 28.82 0 0 1-2.32 5.4c.45.77 1.19 1.3 1.84 2.04-1 .02-1.76-.45-2.62-.68a33.6 33.6 0 0 1-2.82 3.88c-1.18 1.35-2.25 2.81-3.72 3.87l-.12-.15Zm4.93-12.15c.12-.3.22-.5.29-.7.73-2.52 1.37-5.04 1.62-7.66.14-1.57.18-3.14.14-4.71a3.57 3.57 0 0 0-.3-1.59c-3.8 1.98-5.78 9.44-1.75 14.66Z" fill="#FBCF04"/><path d="M31.6 9c1.7 0 3.19 1.5 3.2 3.24 0 1.68-1.58 3.27-3.23 3.24a3.23 3.23 0 0 1-2.23-.98c-.6-.6-.93-1.43-.94-2.28 0-.86.34-1.68.94-2.28.6-.6 1.41-.94 2.25-.94ZM24.68 12.13a2.73 2.73 0 0 1 2.8 2.72c.02 1.53-1.26 2.88-2.7 2.88-1.48 0-2.87-1.33-2.83-2.77.07-1.83 1.41-2.86 2.73-2.83ZM36.27 20.99a2.7 2.7 0 0 1-2.79-2.74 2.88 2.88 0 0 1 1.73-2.65c.34-.15.7-.22 1.08-.22 1.35 0 2.7 1.36 2.71 2.79.01 1.51-1.23 2.88-2.73 2.82Z" fill="#FB8405"/><defs><linearGradient id="a3txoeq21" x1="10.42" y1="9.71" x2="68.15" y2="76.02" gradientUnits="userSpaceOnUse"><stop stop-color="#1A1E21"/><stop offset="1" stop-color="#06060A"/></linearGradient></defs></svg>