<!-- by TradingView --><svg width="56" height="56" xmlns="http://www.w3.org/2000/svg"><path fill="#0170BD" d="M0 0h56v56H0z"/><path d="M13.48 32h-.202l1.784-8h2.547l.845 4.704 1.049-4.703h1.907L19.627 32h-2.494l-.836-4.98-1.11 4.98H13.48zM23.231 27.558c-.147.264-.258.703-.384 1.294-.151.705-.228 1.183-.228 1.48 0 .22.043.323.083.363.037.042.11.072.268.072.263-.011.366-.049.534-.32.159-.276.312-.798.496-1.664.107-.496.179-.886.177-1.15-.032-.37-.046-.408-.37-.437-.29.008-.423.1-.576.362zm-.48 4.56c-.745 0-1.267-.157-1.605-.477-.336-.32-.452-.775-.451-1.288 0-.443.082-.94.199-1.48.315-1.563.916-3.042 3.132-3.028.764 0 1.289.169 1.623.492.335.324.445.775.444 1.262 0 .416-.078.872-.179 1.344-.358 1.778-.988 3.175-3.127 3.175h-.035zM28.593 26h.203l-.073.345c.403-.342.887-.46 1.378-.456h.201l-.37 1.752-.141-.009a2.315 2.315 0 00-.193-.007c-1.09.016-1.18.618-1.312 1.155l-.68 3.216h-1.909L26.965 26h1.628zM32.307 27.626c-.15.31-.257.783-.383 1.35-.138.616-.219 1.075-.218 1.375.031.398.058.422.306.444.209-.005.332-.083.499-.384.155-.299.296-.797.455-1.505.123-.548.225-1.013.224-1.317-.03-.338-.044-.38-.298-.401-.284.007-.425.126-.585.438zm.052 4.368l.063-.292c-.37.281-.8.398-1.277.398h-.024c-.527.002-.912-.168-1.137-.456-.225-.286-.292-.653-.293-1.035 0-.571.154-1.196.265-1.692.13-.57.279-1.309.623-1.924.338-.613.916-1.115 1.823-1.11.478-.009.875.114 1.148.413L34.107 24h2.017l-1.83 7.994h-1.935zM42.874 27.627c-.15.26-.265.69-.394 1.269-.158.693-.238 1.16-.234 1.451-.004.215.042.318.083.356.037.042.113.07.278.07.268-.01.374-.047.545-.313.163-.27.32-.783.51-1.632.109-.485.182-.868.181-1.127-.033-.363-.049-.4-.379-.429-.3.008-.432.098-.59.355zM42.38 32.1c-.764 0-1.298-.154-1.645-.468-.345-.314-.464-.76-.464-1.262 0-.434.087-.922.204-1.452.325-1.533.94-2.983 3.212-2.97.785 0 1.322.166 1.667.483.342.318.455.76.454 1.238 0 .41-.08.855-.183 1.317-.369 1.744-1.013 3.114-3.21 3.114h-.035zM48.317 32l.92-4.116c.033-.15.054-.286.054-.393-.03-.245-.018-.279-.309-.303-.41.001-.531.261-.657.765L47.419 32h-2.018l1.342-6h2.02l-.06.263c.123-.088.25-.158.38-.21a2.29 2.29 0 01.921-.172c.75.002 1.413.402 1.414 1.132 0 .097-.011.196-.033.302L50.338 32h-2.021zM39.864 26.312c-.355-.22-.816-.311-1.31-.312-1.08-.002-2.516.372-2.822 1.69-.028.12-.04.237-.04.347.004.79.68 1.152 1.258 1.415.599.265 1.085.49 1.071.8.003.016.002.032.002.05 0 .243-.254.44-.565.44-.307 0-.562-.197-.562-.44 0 0-.01-.1.09-.302h-1.737a1.872 1.872 0 00-.155.758c-.007.517.239.893.636 1.088.395.197.909.251 1.509.253 1.412 0 2.498-.767 2.734-1.823.029-.125.04-.245.04-.359-.002-.805-.673-1.213-1.26-1.495a7.44 7.44 0 01-.822-.417c-.15-.08-.282-.216-.282-.379 0-.242.25-.438.563-.438.047 0 .118.01.2.03.346.103.386.5.275.782h1.642c.173-.59.127-1.325-.465-1.688z" fill="#fff"/><path d="M38.635 16.438a58.218 58.218 0 00-7.588-.493c-14.953 0-27.073 5.48-27.073 12.24 0 1.369.506 2.585 1.424 3.815h4.933c-.927-1.227-1.435-2.443-1.435-3.816 0-6.49 11.24-11.75 25.105-11.75 1.57 0 3.102.071 4.592.2l.042-.196z" fill="#fff"/></svg>