<!-- by TradingView --><svg width="56" height="56" viewBox="0 0 56 56" xmlns="http://www.w3.org/2000/svg"><path fill="#F0F3FA" d="M0 0h56v56H0z"/><path d="M19.11 39.08c-1.39-1.4-2.46-3-3.21-4.7a13.87 13.87 0 0 1 .24-13.29 15.53 15.53 0 0 1 22.36-6.34 16.83 16.83 0 0 0-22.54 1.22A17.07 17.07 0 0 0 15.94 40a16.83 16.83 0 0 0 22.54 1.25 15.53 15.53 0 0 1-19.37-2.18Z" fill="url(#ak05qwnoa)"/><path d="M37.86 18.2a13.86 13.86 0 0 1-.02 19.53A13.67 13.67 0 0 1 20.8 39.6a14.82 14.82 0 0 0 19.84-1.06 15.02 15.02 0 0 0 .02-21.17 14.82 14.82 0 0 0-19.84-1.1 13.68 13.68 0 0 1 17.05 1.92Z" fill="url(#bk05qwnoa)"/><path d="M15 28a13 13 0 1 1 26 0 13 13 0 0 1-26 0Zm4.28-8.72a12.3 12.3 0 0 0 0 17.44A12.29 12.29 0 0 0 28 40.33 12.29 12.29 0 0 0 40.33 28 12.3 12.3 0 0 0 28 15.67a12.3 12.3 0 0 0-8.72 3.61Z" fill="#1F417C"/><path d="M37.27 27c.84-.56 1.67-1.44 1.67-2.58 0-.78-.44-2.42-3.12-2.42h-2.7l.05-.4c0-.1-.05-.16-.12-.16-.07 0-.13.08-.25.19-.14.15-.24.37-.8.37h-2.8c-.09 0-.2-.18-.2-.27V18.1c0-.08.03-.13.1-.13.32 0 2.44.03 2.7.07.76.06.88.27 1 .53.09.17.1.43.1.54 0 .12.02.19.13.19.12 0 .15-.18.17-.25.04-.17.07-.8.09-.96.03-.68.12-.85.12-.95 0-.07-.02-.14-.1-.14h-7.33c-.23 0-.26.16-.26.26s.1.15.26.15c.22 0 .48.02.6.06.49.13.39.26.42.76.02.42 0 1.06 0 2.77h-1.98c-.22 0-.4-.01-.4.11 0 .1.07.14.25.14.21 0 .57 0 .8.1.36.15.32.2.33 1.15v6.93l-7.72-8.47c-.26-.28-.4-.48-.56-.48-.15 0-.2.21-.2.52l-.13 9.14c-.01 1.06.07 2.58-1.15 2.58-.15 0-.24.03-.24.13 0 .13.14.15.33.15h3.5c.21 0 .35-.03.35-.15 0-.1-.1-.13-.26-.13-1.16 0-1.28-1.32-1.31-2.4l-.17-6.5h.05c2.44 2.63 4.88 5.25 7.4 7.8A4.35 4.35 0 0 0 25 34.6c0 3.6 2.54 5.4 6 5.4.86 0 1.87-.28 2.4-.5.22-.09.63-1.76.63-1.92 0-.1-.06-.23-.16-.23s-.13.06-.16.26C33.46 39 32.13 39 31 39c-1.78 0-4-1.39-4-4.5 0-2.38.94-3.92 3.55-3.92.95 0 1.95.07 2.45.37-.01.87-.35 2.7-1.32 2.7-.18 0-.23.1-.23.16 0 .1.1.16.29.16 1.44 0 2.87.03 4.31.03A3.86 3.86 0 0 0 40 30.17c0-1.73-1.52-2.78-2.73-3.18ZM35 23.17c0-.16.03-.16.13-.18.16-.03.08 0 .28 0 1.28 0 1.86 1.13 1.86 2.11 0 .7-.29 1.24-.68 1.55-.25.21-.67.34-1.16.34-.17 0-.43.01-.43-.28v-3.54ZM29 24v-1.18c0-.08.02-.15.09-.15.38 0 2.41.03 2.7.07 1.05.1 1.15.43 1.21 1.18v3.32c-.4.14-1.26.16-1.64.16-1.55 0-2.33-.22-2.36-1.23-.02-.43 0-1.67 0-2.17Zm1.5 5.49c-1.4 0-2.67.51-3.5.98l.04-2.48H33v2c-1-.5-1.7-.5-2.5-.5Zm5.5 4c-1 0-1-1.56-1-2.47V28.1c0-.08.03-.1.08-.1h.28a2.58 2.58 0 0 1 2.68 2.58c0 1.63-1.25 2.92-2.04 2.92Z" fill="#1F417C"/><defs><linearGradient id="ak05qwnoa" x1="18.96" y1="8.63" x2="30.78" y2="37.69" gradientUnits="userSpaceOnUse"><stop offset=".28" stop-color="#1F417C"/><stop offset=".48" stop-color="#fff"/><stop offset=".66" stop-color="#1F417C"/></linearGradient><linearGradient id="bk05qwnoa" x1="37.25" y1="41.11" x2="29.75" y2="25.71" gradientUnits="userSpaceOnUse"><stop offset=".28" stop-color="#B4975A"/><stop offset=".48" stop-color="#fff"/><stop offset=".66" stop-color="#B4975A"/></linearGradient></defs></svg>