<!-- by TradingView --><svg xmlns="http://www.w3.org/2000/svg" width="56" height="56"><path fill="#000852" d="M0 0h56v56H0z"/><path d="M43.63 25.27c.28-.71.37-1.6.37-2.31 0-4.54-3.85-8.18-8.71-8.27-.55 0-.73-.18-1.2-.36A13.92 13.92 0 0028.06 13c-2.2 0-4.22.44-6.14 1.24-.46.18-.74.36-1.2.36-4.86.09-8.71 3.73-8.71 8.27 0 .98.19 1.86.46 2.66.18.45.36.8.27 1.6v.71a14.9 14.9 0 006.51 12.18c.82.3 1.23 1.04 1.47 1.34a8.89 8.89 0 003.17 2.67 9.04 9.04 0 0011.32-2.67c.4-.5.93-1 1.56-1.25a14.9 14.9 0 004.8-5.3 14.44 14.44 0 001.7-6.88c0-.44-.08-.89 0-1.42 0-.18.2-.71.37-1.24zm-25.49-4c-1.37 1.86-3.3 2.84-4.21 2.22-.92-.62-.65-2.67.73-4.53 1.37-1.87 3.4-2.85 4.3-2.23.93.62.56 2.67-.82 4.54zm9.72 22.31c-3.57 0-5.68-3.91-5.68-7.2a5.63 5.63 0 015.68-5.78c3.12 0 5.69 2.4 5.69 5.78-.1 3.47-2.11 7.2-5.69 7.2zm14.12-20.1c-.91.63-2.84-.26-4.22-2.21-1.37-1.87-1.74-3.91-.82-4.54.92-.62 2.93.27 4.3 2.22 1.3 1.87 1.66 3.92.74 4.54z" fill="#fff"/></svg>