<!-- by TradingView --><svg xmlns="http://www.w3.org/2000/svg" width="56" height="56"><path d="M0 28a28 28 0 1156 0 28 28 0 01-56 0z" fill="#F0F3FA"/><path d="M27.05 10.28L12 18.93l5.11 7.23 9.94-15.88z" fill="#70BED8"/><path d="M28.51 10l-4.82 8h9.5L44 34.8V18.93L28.51 10z" fill="#236555"/><path d="M28.51 10l-4.82 8h9.5l-4.68-8z" fill="url(#ahhb4tgy2)"/><path d="M28.95 45.72L44 37.07l-5.11-7.23-9.94 15.88z" fill="#71BED8"/><path d="M27.49 46l5-8H23L12 21.2v15.87L27.49 46z" fill="#236555"/><path d="M27.49 46l5-8H23l4.49 8z" fill="url(#bhhb4tgy2)"/><defs><linearGradient id="ahhb4tgy2" x1="31.43" y1="14.96" x2="25.3" y2="14.96" gradientUnits="userSpaceOnUse"><stop stop-color="#034532"/><stop offset="1" stop-color="#246654"/></linearGradient><linearGradient id="bhhb4tgy2" x1="24.57" y1="41.04" x2="30.7" y2="41.04" gradientUnits="userSpaceOnUse"><stop stop-color="#034532"/><stop offset="1" stop-color="#246654"/></linearGradient></defs></svg>