<!-- by TradingView --><svg width="56" height="56" viewBox="0 0 56 56" xmlns="http://www.w3.org/2000/svg"><path fill="#F0F3FA" d="M0 0h56v56H0z"/><path d="M18 40.52v-7c0-.45.13-.9.38-1.27l3.24-4.72c.25-.37.38-.82.38-1.27v-13.1c-1.45.6-2.8 1.39-4 2.35V26c0 .47-.13.93-.38 1.31l-2.29 3.5c-.25.38-.33.84-.33 1.31v5.24a16.1 16.1 0 0 0 3 3.17Zm1 .74c1.5 1.02 3.19 1.8 5 2.27v-8.15c0-.45.28-.9.54-1.27l3.3-4.72c.2-.3.18-.64.17-.99l-.01-.28V12c-1.75 0-3.43.28-5 .8v13.9c0 .47-.14.93-.41 1.3l-3.16 4.44c-.27.38-.43.84-.43 1.31v7.5Zm10-29.23V44c1.76-.1 3.44-.5 5-1.13v-29.7a15.9 15.9 0 0 0-5-1.14Zm6 1.58v28.81a16.04 16.04 0 0 0 4-2.77V16.39a16.04 16.04 0 0 0-4-2.78Zm5 3.81v21.19c2.49-2.82 4-6.53 4-10.6 0-4.06-1.51-7.76-4-10.59ZM17 16.4a15.98 15.98 0 0 0-3 19.38v-3.9c0-.45.13-.89.36-1.26l2.36-3.79c.23-.37.28-.82.28-1.27v-9.16Z" fill="url(#asns2srw0)"/><defs><linearGradient id="asns2srw0" x1="12.63" y1="26.48" x2="43.33" y2="26.48" gradientUnits="userSpaceOnUse"><stop stop-color="#0D2D86"/><stop offset=".27" stop-color="#0A4575"/><stop offset=".37" stop-color="#08556A"/><stop offset=".48" stop-color="#065E62"/><stop offset=".57" stop-color="#056B59"/><stop offset=".67" stop-color="#037551"/><stop offset=".76" stop-color="#027C4C"/><stop offset=".86" stop-color="#018744"/><stop offset="1" stop-color="#008F3E"/></linearGradient></defs></svg>