<!-- by TradingView --><svg xmlns="http://www.w3.org/2000/svg" width="56" height="56" viewBox="0 0 56 56"><path fill="#004D86" d="M0 0h56v56H0z"/><path fill-rule="evenodd" d="M6.27 22 4 33h2.27l1.4-6.86L10.33 33h2.19l2.27-11h-2.27l-1.4 6.85L8.4 22H6.27Zm14.68 8.75c-1.12 1.98-3.5 2.81-5.33 1.85-1.82-.97-2.4-3.36-1.27-5.35 1.12-1.98 3.5-2.81 5.33-1.85 1.51.8 2.16 2.59 1.7 4.3H16c0 .52.26 1.56 1.37 1.6.52.01 1.1-.22 1.5-1h2.3c-.06.15-.13.3-.22.45Zm-4.7-2.47c.07-.53.5-1.59 1.7-1.6 1.05 0 1.31 1.06 1.22 1.6h-2.92Zm21.6 4.32c1.82.96 4.21.13 5.33-1.85.08-.15.16-.3.22-.46h-2.3c-.4.8-.99 1.02-1.5 1-1.1-.03-1.38-1.07-1.37-1.58h5.38c.46-1.72-.19-3.5-1.7-4.3-1.83-.97-4.22-.14-5.34 1.84-1.12 1.99-.55 4.38 1.28 5.35Zm2.33-5.91c-1.2 0-1.63 1.06-1.7 1.59h2.91c.1-.54-.17-1.6-1.2-1.6ZM22.38 33l-1.06-8h2.09l.5 4.72L26.13 25h2.02l.25 4.72L30.56 25h2.78l.21-.98 2.66-1.52-.49 2.5h1.2l-.38 2h-1.21l-.83 3.47c-.15.63.37.74.65.71h.7l-.42 1.68c-.33.1-1.08.14-1.41.14-1.9-.02-2.03-1.57-1.86-2.34L33 27h-.97l-3.01 6h-2.1l-.37-4.54L24.42 33h-2.05Zm23.05-11-2.3 11h2.3l.49-2.33 1.18-1.13L48.16 33h2.33l-1.64-4.99L52 25h-3.01l-2.42 2.36L47.69 22h-2.26Z" fill="#fff"/></svg>