<!-- by TradingView --><svg xmlns="http://www.w3.org/2000/svg" width="56" height="56"><path fill="#F0F3FA" d="M0 0h56v56H0z"/><path d="M23.1 18.6c.88-5.66 3.74-7.42 5.06-7.6.62 1.02.57 4.94.46 6.78-2.4-.21-4.68.46-5.52.82zm16.71 11.36c4.41 3.66 4.44 6.9 3.92 8.12-1.2.01-4.54-2.04-6.06-3.08a12.5 12.5 0 002.14-5.04zM21.73 38.6c-5.34 2.06-8.3.46-9.11-.6.56-1.04 4-2.95 5.64-3.78a12.73 12.73 0 003.47 4.38z" fill="#FC7135"/><path d="M28.16 11c.52.08 1.82.41 2.94 1.1.6 3.16 1.27 10.96-.88 16.94 2.2 2.2 7.97 7.06 13.53 8.99a9 9 0 01-2.28 1.94c-3.13-1.07-10.4-4.4-14.4-9.2-2.88.75-9.81 3.23-14.41 7.26-.12-.27-.39-1.2-.56-2.73 1.97-1.89 7.79-6.13 15.26-8.02.74-2.44 1.95-10.19.8-16.28zm5 2.13c.57.34 1.81 1.14 2.32 1.6.37 2.76.68 10.07-1.1 15.27h-2.17c1.64-3.05 1.94-13.27.96-16.87zm3.87 29.46c.66-.2 1.97-.89 2.55-1.2-3.62-.94-11.89-6.05-13.71-8.99l-1.08 1.9c3.62 4.12 9.67 7.24 12.24 8.29zM12 32.91c.01-.66.07-2.14.21-2.81 2.18-1.72 7.88-5.44 13.26-6.56l1.11 1.87c-3.46.14-11.98 4.82-14.58 7.5zm27.54-13.94c-.3-.51-1.49-1.92-2.11-2.35.68 3.13 0 11.24-1.27 13.38h2.22c1.33-3.08 1.52-8.81 1.16-11.03zm-5.12 24.37c-.68.33-2.5.66-3.08.66-2.1-.8-6.86-3.74-8.86-6.42l1.1-1.93c1.23 2.16 7.8 6.72 10.84 7.69zM13.8 24.45c-.29.51-.9 2.25-.95 3.01 2.35-2.18 9.55-5.64 12.04-5.64l-1.13-1.91c-3.33.42-8.23 3.1-9.96 4.54zm26 5.55c.48-1.1 1.39-4.24 1.2-8.33.54.58 1.48 3 .9 8.33h-2.1zM28.27 43.9a20.86 20.86 0 01-6.68-5.21l-1.05 1.81c4.34 3.17 6.96 3.59 7.73 3.4zm-5.05-25.32c-1.18.15-4.41 1-7.84 3.25.22-.76 1.89-2.84 6.78-5.05l1.06 1.8z" fill="#254060"/></svg>