<!-- by TradingView --><svg width="56" height="56" xmlns="http://www.w3.org/2000/svg"><path fill="#20A4DB" d="M0 0h56v56H0z"/><path d="M35.76 15.498c-3.922 1.344-7.895 2.566-11.75 4.098-1.595.635-3.219 1.274-4.644 2.228a8.488 8.488 0 00-2.019 1.868c-1.632 2.146-1.53 5.273-.998 7.772.246 1.15.946 4.444 1.195 3.297.277-1.277.886-2.64 1.81-3.597a8.489 8.489 0 012.686-1.787c1.828-.813 3.805-1.318 5.683-2.02 3.302-1.235 7.06-2.386 9.83-4.58a6.422 6.422 0 002.306-3.673c.435-2.001-.238-4.142-.648-6.104-.636 1.27-1.98 1.993-3.452 2.498z" fill="#fff"/><path d="M36.895 29.434c.325-1.454-.18-3.01-.486-4.434-.483.924-1.489 1.448-2.594 1.815-2.943.979-5.915 1.866-8.806 2.98-1.195.461-2.413.926-3.485 1.627a6.27 6.27 0 00-1.515 1.357c-1.221 1.56-1.147 3.834-.748 5.65.184.835.71 3.23.896 2.398.209-.929.663-1.922 1.36-2.617a6.4 6.4 0 012.014-1.298c1.37-.591 2.852-.958 4.26-1.468 2.476-.897 5.293-1.735 7.37-3.33a4.656 4.656 0 001.734-2.68z" fill="#fff"/><path d="M31.87 35.245c-1.962.672-3.944 1.283-5.87 2.049-.798.319-1.609.637-2.32 1.115a4.277 4.277 0 00-1.01.934c-.815 1.075-.77 2.638-.498 3.888.123.576.472 2.224.596 1.649a3.783 3.783 0 01.909-1.799c.382-.377.838-.68 1.34-.889.914-.408 1.902-.658 2.841-1.011 1.65-.617 3.528-1.193 4.914-2.29a3.202 3.202 0 001.15-1.837c.218-1.002-.118-2.076-.323-3.054-.321.63-.992.992-1.728 1.245z" fill="#fff"/></svg>