<!-- by TradingView --><svg width="56" height="56" viewBox="0 0 56 56" xmlns="http://www.w3.org/2000/svg"><path fill="#F0F3FA" d="M0 0h56v56H0z"/><path d="M33 14.6c0-.33-.25-.6-.56-.6-.3 0-.44.27-.44.6v4l-3 5.1v-6.73c0-.33-.14-.6-.44-.6-.31 0-.56.27-.56.6v13.56l-4-6.01v-3.98c0-.33-.14-.6-.44-.6-.31 0-.56.27-.56.6v4.35l5 7.73v2.02L23 41l5.5 7 5.5-7-4.9-6.23-.1-8.72 4-7.13v-4.33Z" fill="#672B7F"/><path d="m22 23-4-6c0 .89.23 2.93 1.14 4A8.06 8.06 0 0 0 22 23Z" fill="#A7CF4A"/><path d="m22 23-4-6c.57 0 1.94.4 2.86 2A9 9 0 0 1 22 23Z" fill="#75C043"/><path d="m34 17 4-6c0 .89-.23 2.93-1.14 4A8.06 8.06 0 0 1 34 17Z" fill="#A7CF4A"/><path d="m34 17 4-6c-.57 0-1.94.4-2.86 2A9 9 0 0 0 34 17Z" fill="#75C043"/><path d="M28.5 15V8c-.5.39-1.5 1.63-1.5 3.5s1 3.11 1.5 3.5Z" fill="#A7CF4A"/><path d="M28.5 15V8c.5.39 1.5 1.63 1.5 3.5s-1 3.11-1.5 3.5Z" fill="#75C043"/></svg>