<!-- by TradingView --><svg width="56" height="56" xmlns="http://www.w3.org/2000/svg"><path fill="#004650" d="M0 0h56v56H0z"/><path d="M7.797 36.002c.064 0 .203-.156.203-.48v-8.906l5.85 9.063c.123.211.312.323.59.323h2.088c.312 0 .472-.212.472-.48V20.498c0-.268-.172-.497-.473-.497h-1.975c-.267 0-.552.23-.552.497v8.84L8.522 20.34a.642.642 0 00-.59-.341H5.468c-.324 0-.469.174-.469.497v15.026c0 .323.145.479.469.479h2.328zM21 35.523c0 .323.157.479.48.479h2.039c.334 0 .481-.156.481-.48V20.498c0-.323-.147-.497-.481-.497H21.48c-.323 0-.48.174-.48.497v15.026zM26.983 28.244c.078 2.588.51 4.559 1.86 5.93 1.348 1.37 3.176 2.05 5.484 2.05 1.861 0 3.4-.39 4.614-1.18.29-.18.301-.402.045-.68l-1.483-1.517a.589.589 0 00-.713-.089c-.658.39-1.471.59-2.463.59-1.126 0-2.03-.423-2.72-1.27-.702-.836-1.263-2.118-1.263-3.834v-.625c0-3.299 1.475-4.949 3.983-4.949 1.114 0 1.973.156 2.563.48.268.145.502.111.703-.09l1.393-1.393c.256-.256.245-.49-.045-.69-1.07-.792-2.608-1.182-4.614-1.182-2.33 0-4.158.657-5.496 1.984-1.348 1.326-1.782 3.247-1.848 5.84v.625zM52 20.497c0-.234-.255-.497-.49-.497h-9.045c-.234 0-.465.263-.465.497v15.026c0 .234.23.479.465.479h9.023c.257 0 .512-.29.512-.524v-1.992c0-.234-.255-.486-.49-.486H45v-4h4.483c.234 0 .517-.199.517-.466v-1.74c0-.233-.283-.479-.517-.479H45v-3.32h6.51c.257 0 .49-.245.49-.48v-2.018z" fill="#fff"/></svg>