<!-- by TradingView --><svg width="56" height="56" viewBox="0 0 56 56" xmlns="http://www.w3.org/2000/svg"><path fill="#F0F3FA" d="M0 0h56v56H0z"/><path d="M17 21.35c0-.2.13-.35.3-.35h.4c.17 0 .3.16.3.35v13.3c0 .2-.13.35-.3.35h-.4c-.17 0-.3-.16-.3-.35v-13.3ZM4 21.35c0-.2.15-.35.34-.35h.55c.15 0 .28.08.37.2L13 33.5V21.35c0-.2.15-.35.34-.35h.32c.19 0 .34.16.34.35v13.3c0 .2-.15.35-.34.35h-.55a.44.44 0 0 1-.37-.2L5 22.5v12.15c0 .2-.15.35-.34.35h-.32a.35.35 0 0 1-.34-.35v-13.3ZM20.5 24.4c0-2.63 2.93-3.36 4.47-3.4 2.9 0 4.18 1.79 4.58 2.98a.32.32 0 0 1-.3.42h-.48c-.17 0-.31-.14-.36-.3-.35-1.07-1.68-2.1-3.44-2.1-1.92 0-3.47.85-3.47 2.4 0 1.54 1.95 2.26 4.15 2.86 4.07 1 4.35 2.85 4.35 3.87 0 1.01-.5 3.87-4.69 3.87-4.97 0-5.31-3.87-5.31-4.23 0-.36.34-.42.57-.42.22 0 .67.06.79.78.17 1.19 1.24 2.87 3.95 2.87S29 32.4 29 31.44c0-.95-.8-2.52-3.46-3.11-2.66-.6-5.04-1.37-5.04-3.93Z" fill="#767575"/><path d="M32.68 21c.2 0 .32.16.32.36v8.06c0 2.46 1.94 4.58 4.3 4.58s4.7-2.12 4.7-4.58v-2.81c0-3 1.9-5.61 4.79-5.61 2.88 0 5.21 2.6 5.21 5.6v8.04c0 .2-.15.36-.34.36h-.34c-.2 0-.32-.16-.32-.36v-8.03C51 24.2 49.1 22 46.79 22 44.47 22 43 24.2 43 26.6v2.82c0 3.05-2.77 5.58-5.7 5.58S32 32.47 32 29.42v-8.06c0-.2.15-.36.34-.36h.34Z" fill="#BD9A64"/></svg>