<!-- by TradingView --><svg xmlns="http://www.w3.org/2000/svg" width="56" height="56"><path fill="#DF001F" d="M0 0h56v56H0z"/><path d="M23.01 40.1l-6.93-12.4c-.38-.73-1.18-.7-1.91-.7-1.16 0-2.17-.47-2.17-1.65 0-.37.1-.74.29-1.07l3.62-6.21a2.17 2.17 0 011.32-1 2.19 2.19 0 011.64.22c.74.42.8 1.27.68 2.13-.04.3-.14.54-.28.8l-.78 1.36c-.35.64.14 1.41.87 1.4h17.32c.74 0 1.22-.77.87-1.4l-.78-1.35v-.02c-.52-1-.56-2.26.42-2.83a2.18 2.18 0 012.9.69l3.62 6.2a2.14 2.14 0 01.22 1.64c-.25.93-1.21 1.09-2.17 1.09-.73 0-1.51-.05-1.9.7l-6.87 12.4a5.7 5.7 0 01-2.1 2.12 5.75 5.75 0 01-5.78 0 5.7 5.7 0 01-2.1-2.11zM21.6 28.9l5.3 9.64c.21.38.64.64 1.09.65a1.32 1.32 0 001.1-.65l5.51-9.64c.5-.83-.14-1.9-1.13-1.9H22.73c-.89 0-1.55.86-1.13 1.9z" fill="#FAFAFA"/></svg>