<!-- by TradingView --><svg xmlns="http://www.w3.org/2000/svg" width="56" height="56" viewBox="0 0 56 56"><path fill="#F0F3FA" d="M0 0h56v56H0z"/><path d="M42 28a2 2 0 0 1-2 2 2 2 0 0 1-2-2c0-1.1.9-2 2-2a2 2 0 0 1 2 2Z" fill="#468493"/><path d="M37.41 18.59a2 2 0 0 1 0 2.82 2 2 0 0 1-2.82 0 2 2 0 0 1 0-2.82 2 2 0 0 1 2.82 0Z" fill="#448795"/><path d="M21.41 34.59a2 2 0 0 1 0 2.82 2 2 0 0 1-2.82 0 2 2 0 0 1 0-2.82 2 2 0 0 1 2.82 0Z" fill="#6C659B"/><path d="M37.41 37.41a2 2 0 0 1-2.82 0 2 2 0 0 1 0-2.82 2 2 0 0 1 2.82 0 2 2 0 0 1 0 2.82Z" fill="#525C7E"/><path d="M21.41 21.41a2 2 0 0 1-2.82 0 2 2 0 0 1 0-2.82 2 2 0 0 1 2.82 0 2 2 0 0 1 0 2.82Z" fill="#4FB69B"/><path d="M18 28a2 2 0 0 1-2 2 2 2 0 0 1-2-2c0-1.1.9-2 2-2a2 2 0 0 1 2 2Z" fill="#877EBD"/><path d="M28 14a2 2 0 0 1 2 2 2 2 0 0 1-2 2 2 2 0 0 1-2-2c0-1.1.9-2 2-2Z" fill="#479697"/><path d="M28 38a2 2 0 0 1 2 2 2 2 0 0 1-2 2 2 2 0 0 1-2-2c0-1.1.9-2 2-2Z" fill="#534F77"/><path d="M32.4 28.01a6.74 6.74 0 0 1-6.59 3.8c-1.23-.34-5.87-5.7-6.24-6.97a8.92 8.92 0 0 0 0 6.3 9 9 0 0 0 9.94 5.74c1.33-.44 3.26-2.25 3.7-3.87.4-1.63.05-4.24-.8-5Z" fill="url(#aawvfsmnm)"/><path d="M34.93 22.27a5.56 5.56 0 0 0-3.86-1.3c-2.32 0-4.94 1.8-5.37 3.23a6.74 6.74 0 0 1 6.46 10.12l-.27.44a6.75 6.75 0 0 1-2.38 2.14A8.95 8.95 0 0 0 37 28c-.01-2.18-.79-4.18-2.08-5.74Z" fill="url(#bawvfsmnm)"/><path d="M29.49 19.12a9.02 9.02 0 0 0-9.94 5.74 6.79 6.79 0 0 0 .66 3.15c.08.14.14.3.25.45a6.69 6.69 0 0 0 5.33 3.36 6.78 6.78 0 0 1 0-7.62 6.75 6.75 0 0 1 5.57-2.94 6.58 6.58 0 0 1 3.57 1.03 8.94 8.94 0 0 0-5.44-3.17Z" fill="url(#cawvfsmnm)"/><path d="M41.88 21.92a1.5 1.5 0 1 1-2.76 1.16 1.5 1.5 0 0 1 2.76-1.16ZM44.92 21c.22.52-.04 1.14-.56 1.36a1.05 1.05 0 0 1-1.36-.57c-.21-.52.04-1.14.56-1.35.53-.22 1.13.02 1.36.56Z" fill="#438795"/><path d="M14.12 34.08a1.5 1.5 0 1 1 2.76-1.16 1.5 1.5 0 0 1-2.76 1.16ZM11.08 35c-.22-.52.03-1.14.56-1.36.52-.2 1.14.04 1.36.57a1.04 1.04 0 0 1-1.92.8Z" fill="#7F77B4"/><path d="M21.93 14.12a1.5 1.5 0 1 1 1.15 2.77 1.5 1.5 0 0 1-1.15-2.77ZM20.99 11.09c.52-.22 1.14.04 1.35.56.22.52-.03 1.14-.56 1.36a1.05 1.05 0 0 1-1.36-.57c-.2-.54.04-1.14.57-1.35Z" fill="#50B49B"/><path d="M34.07 41.88a1.5 1.5 0 1 1-1.15-2.77 1.5 1.5 0 0 1 1.15 2.77ZM35.01 44.91a1.05 1.05 0 0 1-1.36-.56c-.21-.52.04-1.14.57-1.36a1.04 1.04 0 0 1 .8 1.92Z" fill="#4D4B71"/><path d="M34.08 14.11a1.5 1.5 0 1 1-1.96.8 1.53 1.53 0 0 1 1.96-.8ZM35.01 11.09c.52.21.78.83.56 1.35-.21.53-.83.78-1.35.57a1.05 1.05 0 0 1-.57-1.36c.22-.54.82-.8 1.36-.56Z" fill="#438E96"/><path d="M21.92 41.89a1.5 1.5 0 1 1 1.96-.8 1.53 1.53 0 0 1-1.96.8ZM20.99 44.91a1.05 1.05 0 0 1-.57-1.35c.22-.53.84-.78 1.36-.57.53.22.78.84.56 1.36-.2.54-.83.8-1.35.56Z" fill="#534D76"/><path d="M41.88 34.08a1.5 1.5 0 1 1-2.76-1.16 1.5 1.5 0 0 1 2.76 1.16ZM44.92 35c-.21.53-.83.78-1.36.56a1.05 1.05 0 0 1-.56-1.35c.22-.53.84-.78 1.36-.57.52.24.78.84.56 1.36Z" fill="#516684"/><path d="M14.12 21.92a1.5 1.5 0 1 1 2.76 1.15 1.5 1.5 0 0 1-2.76-1.15ZM11.08 21c.2-.53.83-.78 1.35-.56.53.2.78.83.57 1.35-.22.53-.84.78-1.36.57a1.06 1.06 0 0 1-.56-1.36Z" fill="#52B79B"/><defs><linearGradient id="aawvfsmnm" x1="19.01" y1="30.94" x2="33.37" y2="30.94" gradientUnits="userSpaceOnUse"><stop stop-color="#857FBD"/><stop offset=".32" stop-color="#524E74"/><stop offset=".79" stop-color="#535176"/><stop offset="1" stop-color="#3B3A54"/></linearGradient><linearGradient id="bawvfsmnm" x1="29.29" y1="21.28" x2="34.61" y2="35.12" gradientUnits="userSpaceOnUse"><stop stop-color="#425E66"/><stop offset=".14" stop-color="#608894"/><stop offset=".65" stop-color="#5F8492"/><stop offset="1" stop-color="#524E74"/></linearGradient><linearGradient id="cawvfsmnm" x1="20.83" y1="29.04" x2="32.68" y2="19.48" gradientUnits="userSpaceOnUse"><stop stop-color="#405E50"/><stop offset=".24" stop-color="#7CB69B"/><stop offset=".77" stop-color="#7AB29A"/><stop offset="1" stop-color="#608894"/></linearGradient></defs></svg>