<!-- by TradingView --><svg width="56" height="56" viewBox="0 0 56 56" xmlns="http://www.w3.org/2000/svg"><path fill="#F0F3FA" d="M0 0h56v56H0z"/><path fill-rule="evenodd" d="M8 24v13h12V23l-3.5-2-1.5 1.5-2.5-1.5L8 24Zm10 3.2V27h-2.45v.2c.8.03 1.17.27 1.17 1.1v3.83L12.14 27H10v.2c.65.01 1 .15 1 .84v4.66c0 .74-.27 1.05-1 1.1v.2h2.45v-.2c-.82-.04-1.17-.3-1.17-1.14v-4.72L16.6 34h.4v-5.74c0-.74.25-1.03 1-1.06Z" fill="#24577F"/><path d="m21 23 2.5-3.5L26 19l2.5-4 6.5 8v14H21V23Zm12 4.2V27c-.71.03-1.42.03-2.13.03l-2.28 5.37-2.37-5.4c-.74.03-2.22 0-2.22 0v.2c.64.01 1 .22 1 .84v4.66c0 .68-.3 1.05-1 1.1v.2h2.16v-.2c-.78-.05-.9-.36-.9-1.14v-5.03L28 34h.17l2.73-6.44.1-.02v5.38c0 .67-.36.85-1 .88v.2h3v-.2c-.64-.03-1-.22-1-.88v-4.88c0-.65.35-.83 1-.84Z" fill="#24577F"/><path fill-rule="evenodd" d="M36 23v14h12V24l-3.5-1.5L42 20l-6 3Zm8.68 6H45v-2h-6v.2c.65.01 1 .13 1 .8v4.9c0 .7-.35.87-1 .9v.2h3.49v-.2h-.1c-.67-.02-1.39-.03-1.39-.8v-2.34h1c.83 0 1.1.6 1.22 1.34h.27v-3h-.27c-.13.7-.41 1.46-1.23 1.46H41v-2.38c0-.65.57-.85 1.18-.85h.62c1.3 0 1.7.58 1.88 1.77Z" fill="#24577F"/></svg>