<!-- by TradingView --><svg width="56" height="56" xmlns="http://www.w3.org/2000/svg"><path fill="#124770" d="M0 0h56v56H0z"/><path d="M21 27h-1v5h1v-5zM40.997 25h-1v7h1v-7z" fill="#fff"/><path d="M52 27h-1v5h1v-5z" fill="#A8A9AD"/><path d="M21 25h-1v1h1v-1zM4 32v-7h1l4 5v-5h1v7H9l-4-5.004V32H4zM36.661 27c-.882-.016-1.828.264-2.19.405l.387.883c.055-.069.537-.288 1.452-.288 1.03 0 1.69.703 1.69 1.19-.058-.075-.921-.244-1.886-.244-1.207 0-2.167.597-2.112 1.605.056 1.009.977 1.449 1.913 1.449.75 0 1.87-.407 2.085-.61V32h1v-3.053c0-.947-.476-1.352-.68-1.456-.185-.157-.776-.473-1.659-.49zM13.661 27c-.882-.016-1.828.264-2.19.405l.387.883c.055-.069.537-.288 1.452-.288 1.03 0 1.69.703 1.69 1.19-.058-.075-.921-.244-1.886-.244-1.207 0-2.167.597-2.112 1.605.056 1.009.977 1.449 1.913 1.449.75 0 1.87-.407 2.085-.61V32h1v-3.053c0-.947-.476-1.352-.68-1.456-.185-.157-.776-.473-1.659-.49z" fill="#fff"/><path d="M37.62 30.258v-.279c-1.26-.417-1.958-.085-2.063.177-.119.3-.118.89.841.857.96-.034 1.222-.442 1.222-.755zM14.38 30.258v-.279c-1.258-.417-1.958-.085-2.062.177-.12.3-.118.89.841.857.96-.034 1.222-.442 1.222-.755z" fill="#124770"/><path d="M17 27v-1h1v1h1v1h-1v2.402c-.004.583.639.397 1 .231v1.079c-.34.216-.831.281-1.035.287-1.046 0-.965-.841-.965-1.346V28h-1v-1h1z" fill="#fff"/><ellipse cx="24.501" cy="29.5" rx="2.501" ry="2.5" fill="#fff"/><ellipse cx="24.498" cy="29.499" rx="1.5" ry="1.499" fill="#124770"/><path d="M28 32v-5h1v.806c.454-.675 1.849-.818 2.218-.805 1.217 0 1.785 1.096 1.782 1.648V32h-1v-2.563c0-.788-.476-1.437-1.344-1.437-.83 0-1.656.423-1.656 1.126V32h-1z" fill="#fff"/><path d="M42 32v-5h1l2.5 2.067L48 27h1.003v5H48v-3.5l-2.5 2-2.5-2V32h-1zM42 24.5v1.496h1.005c.106-.388 1.486-1.513 3.995-1.494 2.51.019 3.89 1.122 4 1.494h1V24.5L47 23l-5 1.5z" fill="#A8A9AD"/></svg>