<!-- by TradingView --><svg width="56" height="56" viewBox="0 0 56 56" xmlns="http://www.w3.org/2000/svg"><path fill="#F0F3FA" d="M0 0h56v56H0z"/><path d="M28 33c-.62 0-1.23-.18-1.76-.55l-8.69-6.1a1.3 1.3 0 0 1-.31-1.8 1.31 1.31 0 0 1 1.82-.31l8.68 6.09c.15.1.36.1.51 0l8.7-6.1a1.3 1.3 0 0 1 1.81.32c.42.59.28 1.4-.31 1.8l-8.7 6.1c-.52.37-1.14.55-1.75.55Z" fill="#5DDB77"/><path d="M28 25c-.64 0-1.27-.18-1.82-.55l-4.6-3.1a1.25 1.25 0 0 1-.33-1.8 1.4 1.4 0 0 1 1.88-.31l4.61 3.1c.16.1.36.1.52 0l4.6-3.1a1.4 1.4 0 0 1 1.9.31c.42.58.28 1.39-.33 1.8l-4.61 3.1c-.55.37-1.18.55-1.82.55Z" fill="#5DDB77"/><path d="M22.46 44a4.6 4.6 0 0 1-2.01-.47A16.7 16.7 0 0 1 11 28.5c.03-8.12 6.25-15.07 14.18-16.48.73-.13 1.42.34 1.56 1.04a1.3 1.3 0 0 1-1.08 1.52A14.22 14.22 0 0 0 14 28.5c-.06 5.35 2.37 10.25 7.34 12.71a1.78 1.78 0 0 0 1.75-.07c.57-.34.91-.93.91-1.58 0-.7-.35-1.36-.95-1.77l-4.48-3.43a1.28 1.28 0 0 1-.33-1.81 1.39 1.39 0 0 1 1.87-.32l4.8 3.44a4.73 4.73 0 0 1 2.09 3.9c0 1.55-.82 2.97-2.2 3.78a4.6 4.6 0 0 1-2.34.65Zm11.08 0a4.6 4.6 0 0 0 2.01-.47A16.7 16.7 0 0 0 45 28.5c-.03-8.12-6.25-15.07-14.18-16.48a1.34 1.34 0 0 0-1.56 1.04 1.3 1.3 0 0 0 1.08 1.52A14.22 14.22 0 0 1 42 28.5c.06 5.35-2.37 10.25-7.34 12.71a1.78 1.78 0 0 1-1.75-.07 1.82 1.82 0 0 1-.91-1.58c0-.7.35-1.36.95-1.77l4.48-3.43a1.28 1.28 0 0 0 .33-1.81 1.36 1.36 0 0 0-1.87-.31l-4.8 3.43a4.73 4.73 0 0 0-2.09 3.9c0 1.55.82 2.97 2.2 3.78a4.6 4.6 0 0 0 2.34.65Z" fill="#5DDB77"/></svg>