<!-- by TradingView --><svg width="56" height="56" xmlns="http://www.w3.org/2000/svg"><path fill="#D0103A" d="M0 0h56v56H0z"/><path d="M29.5 18v20" stroke="#fff"/><path d="M23.14 27.92L27 24.302V18h-5.24l-4.462 4.107 5.842 5.814zm-5.53 5.99L21.69 38H27v-6.213l-3.86-3.866-5.53 5.988zM13.498 38l4.11-4.09-5.604-5.608L8 31.787V38h5.5zM8 24.301V18h5.218l4.08 4.107-5.293 6.195-4.005-4zM43 23h5v-2h-5v2zm0 3h5v-2h-5.001L43 26zm-5.619-8H32v2h6.373l-.992-2zm5.425 20H48v-2h-6.373l1.18 2zM32 38h5v-2h-4.999L32 38zm0-15h8.187l-1.157-2H32v2zm11-3h5l-.002-2H43v2zM32 35h4.999L37 32.996h-4.999L32 35zm9.994-9l-1.158-2h-8.837v2h9.995zM32 32h4.998l-.001-2H32v2zm8.967 3H48v-2.004h-8.201L40.968 35zM32 29h16v-2H32.002L32 29zm7.143 3H48v-2H37.976l1.167 2z" fill="#fff"/><path d="M31.998 37.982v-19.99h5.358l4.597 8.036h1v-8.036h5.117v19.99h-5.317l-4.798-7.956h-.96v7.956h-4.997z" fill="#fff"/></svg>