<!-- by TradingView --><svg width="56" height="56" viewBox="0 0 56 56" xmlns="http://www.w3.org/2000/svg"><path fill="#1C4872" d="M0 0h56v56H0z"/><path fill-rule="evenodd" d="M22.55 21.77h.28L19.86 26h2.78l3.7-5.5a4.92 4.92 0 0 0 .65-2.62c0-2.14-1.67-3.88-4.44-3.88-2.51 0-4.55 1.22-4.55 3.88 0 2.79 2.04 3.89 4.55 3.89Zm-.03-1.7c1.21 0 2.2-.95 2.2-2.12 0-1.17-.86-2.12-2.2-2.12-1.22 0-2.2.66-2.2 2.12 0 1.52.98 2.12 2.2 2.12Zm11.03 1.7h.28L30.86 26h2.78l3.7-5.5a4.92 4.92 0 0 0 .65-2.62c0-2.14-1.67-3.88-4.44-3.88-2.51 0-4.55 1.22-4.55 3.88 0 2.79 2.04 3.89 4.55 3.89Zm-.03-1.7c1.21 0 2.2-.95 2.2-2.12 0-1.17-.86-2.12-2.2-2.12-1.22 0-2.2.66-2.2 2.12 0 1.52.98 2.12 2.2 2.12ZM7 36l1.94-5h.78l1.93 5h-1.09l-.35-1H8.38l-.35 1H7Zm1.73-2h1.14l-.57-1.64L8.73 34Zm7.17 1.04c-.45.59-1.15.96-1.93.96a2.48 2.48 0 0 1-2.47-2.5c0-1.38 1.1-2.5 2.47-2.5.77 0 1.46.36 1.91.93l-.85.48a1.5 1.5 0 1 0 .04 2.14l.83.5Zm.1-1.54a2.5 2.5 0 0 0 2.5 2.5h3v-1h-1a2.5 2.5 0 1 0-4.5-1.5Zm2.5 1.5a1.5 1.5 0 1 0 0-3 1.5 1.5 0 0 0 0 3ZM42 36a2.5 2.5 0 1 0 0-5 2.5 2.5 0 0 0 0 5Zm-.07-1a1.5 1.5 0 1 0 0-3 1.5 1.5 0 0 0 0 3ZM22 31v3.13c0 1.03.84 1.87 1.87 1.87h.26c1.03 0 1.87-.84 1.87-1.87V31h-1v3.13c0 .54-.48.87-1.02.87-.53 0-.98-.33-.98-.87V31h-1Zm5 0h1v5h-1v-5Zm6 0h-1v5h1v-5Zm5 0h1v5h-1v-5Zm-9.5 4.3.69-.77c.12.18.46.54.84.54.48 0 .63-.34.63-.54s-.19-.46-.83-.68c-.64-.22-1.14-.63-1.14-1.46S29.37 31 30.32 31c.77 0 1.2.38 1.31.57l-.65.75c-.1-.15-.37-.44-.75-.44-.47 0-.57.27-.57.5 0 .25.33.48.66.56.34.09 1.31.49 1.31 1.51 0 1.03-.9 1.55-1.6 1.55-.7 0-1.3-.29-1.53-.7ZM35 31h-1.5v1H35v4h1v-4h1.5v-1H35Zm10 5v-5h1.13L48 34.4V31h1v5h-1.1L46 32.6V36h-1Zm-23.5 2.67c-.1.07-.58.5-.8.7-.14-.15-.54-.37-1.12-.37-.72 0-1.58.51-1.58 1.55 0 1.05.89 1.45 1.58 1.45.55 0 .84-.09.92-.15V41h-1v-1h2v2.45c-.3.18-1.12.55-2.03.55A2.52 2.52 0 0 1 17 40.42c0-1.65 1.44-2.42 2.65-2.42.97 0 1.64.45 1.85.67ZM32 38v3.13c0 1.03.84 1.87 1.87 1.87h.26c1.03 0 1.87-.84 1.87-1.87V38h-1v3.13c0 .54-.48.87-1.02.87-.53 0-.98-.33-.98-.87V38h-1Zm-3.5 5a2.5 2.5 0 1 0 0-5 2.5 2.5 0 0 0 0 5Zm0-1a1.5 1.5 0 1 0 0-3 1.5 1.5 0 0 0 0 3Zm10.52-4H37v5h1v-2h1.02c.83 0 1.5-.53 1.5-1.4 0-.89-.67-1.6-1.5-1.6ZM38 39h.88c.34 0 .62.22.62.5s-.28.5-.62.5H38v-1Zm-16-1v5h1v-2h.47l1.04 2h1.16l-1.16-2.07c.59-.17 1-.64 1-1.34 0-.88-.66-1.59-1.49-1.59H22Zm1 1h.88c.34 0 .62.22.62.5s-.28.5-.62.5H23v-1Z" fill="#fff"/></svg>