<!-- by TradingView --><svg width="56" height="56" viewBox="0 0 56 56" xmlns="http://www.w3.org/2000/svg"><path fill="#F0F3FA" d="M0 0h56v56H0z"/><path d="M42.08 18.48a17 17 0 1 0-28.16 19.05 17 17 0 0 0 28.16-19.05Zm1.23 15.9a16.58 16.58 0 1 1-30.62-12.74A16.58 16.58 0 0 1 43.3 34.37Z" fill="#065591"/><path d="M33.15 18 40 28.27V18h.46a13.25 13.25 0 0 0-4.95-4.18 16.4 16.4 0 0 0-19.85 3.8c-.23.26 0 .1-.22.38h.8L23 28.3V18h4v20h-4.15L16 27.73V38h-.49a13.35 13.35 0 0 0 5.02 4.2 16.4 16.4 0 0 0 19.91-3.93c.2-.23-.04-.03.14-.27h-.61L33 27.42V38h-4V18h4.15Z" fill="#065591"/></svg>