<!-- by TradingView --><svg width="56" height="56" xmlns="http://www.w3.org/2000/svg"><path fill="#35AADD" d="M0 0h56v56H0z"/><path d="M21.537 31.282c-.023-.188.248-.224.26-.036.011.196-.243.18-.26.036zm-3.619.11c-.08-.03-.114-.036-.131-.122-.02-.102.03-.152.131-.15.175.002.188.196 0 .272zm-7.032-.9c.177-.041.334.075.204.21-.118.121-.26.003-.204-.21zm8.824-.015c.124-.014.192-.014.207.106.018.154-.077.15-.21.14-.075-.12-.074-.128.003-.246zm-.43-1.904c.012.317-.207.239-.244.14-.076-.196.114-.216.244-.14zm4.765-1.88c.01-.135.086-.121.217-.117.064.142.066.122-.006.254-.125.012-.22.006-.21-.138zm-1.385 1.361c.08-.14.178-.296.268-.442.122-.195.184-.177.414-.273.08-.034.438-.19.492-.196.186-.018.258.166.558.024.358-.168.372-.723.027-.906-.412-.218-.734.108-.734.543-.98.293-.926.383-1.313 1.014-.08.128-.134.275-.27.305-.128.026-.389.036-.532.048-.293.024-1.907.226-2.056.128-.118-.078-.184-.166-.404-.148-.556.048-.578.833-.122.99.375.13.56-.123.668-.423 1.224-.14 2.47-.215 3.69-.333.614-.06 1.228-.116 1.842-.166.457-.036.413-.112.657-.363.271-.276.157-.308.664-.31-.002.27.049.334-.098.489-.27.282-.372.446-.647.48-2.05.25-4.293.591-6.35.874-.456.064-2.594.39-2.966.377-.233-.009-.887-.073-1.07-.035-.197.042-2.334 1.852-2.547 1.934-.215-.108-.494-.307-.695-.437-.182-.116-.511-.355-.674-.415.042-.33-.004-.5-.207-.637-.69-.467-1.233 1.028-.119.918.175-.018 1.29.77 1.53.917.285.177.456-.084.971-.483.265-.208 1.736-1.408 1.881-1.43.143-.02.577.02.75.028.542.026.949-.066 1.466-.128l.002.733c-.099.184-.37.21-.306.615.037.24.219.423.486.421.374-.002.81-.525.18-1l-.002-.821 1.5-.209.004.401c-.609.253-.24 1.18.372.936a.52.52 0 00.267-.671c-.112-.283-.248-.143-.279-.377l-.002-.108.002-.233c.492-.054.893-.194 1.36-.068.42.114.833.229 1.25.343-.177.26-.516.559-.747.805-.459-.064-.801.293-.592.723.174.363.693.36.875.015.16-.305-.077-.393.08-.584.09-.11.23-.258.331-.362.93-.962.744-.767-.506-1.14.305-.102 1.18-.176 1.544-.227l2.344-.322c.36-.046.37-.154.558-.347.105-.108.386-.352.41-.5.04-.215.057-.67-.065-.81-.15-.074-.424-.042-.612-.04-.266.004-.296.092-.426.226-.471.483-.306.423-.793.467-.377.032-2.082.21-2.309.19zm15.288 3.16c.066-.096.126-.172.266-.01-.018.277-.235.235-.266.01zm-3.512.152c-.089.024-.14.02-.21-.022-.055-.198.007-.244.195-.202a.28.28 0 01.015.224zm10.459-.845c.114-.068.116-.086.22.004.024.084.01.126-.023.196-.166.032-.242-.018-.197-.2zm-8.603-.048c.081.128.077.118.002.254-.126.008-.205.014-.211-.114-.01-.142.085-.148.209-.14zm.432-1.897c.095-.073.147-.065.244 0 .006.136.002.23-.138.218-.125-.012-.118-.084-.106-.218zm-4.79-1.76c-.223.06-.33-.09-.204-.212.147-.144.246.026.203.212zm-1.099 1.403l1.838.166c1.18.106 2.509.168 3.652.33l.1.207c.113.2.345.3.584.216.478-.166.428-.943-.117-.987-.226-.02-.284.068-.406.152-.146.1-.777-.02-.994-.038l-1.594-.142c-.223-.052-.5-.854-.758-.986a7.644 7.644 0 00-.823-.333c.002-.266-.06-.398-.219-.516a.482.482 0 00-.54-.012c-.33.198-.297.75.075.903.308.126.364-.072.564-.03.085.018.38.156.488.202.252.107.261.049.405.285.08.128.186.29.252.419-.417.05-1.808-.147-2.336-.193-.307-.026-.314.014-.48-.164-.338-.359-.41-.525-.747-.525-.182 0-.43-.032-.575.038-.103.124-.108.655-.06.84.035.134.316.378.422.488.198.205.188.289.572.335l2.313.319c.482.066 1.065.116 1.544.22-.297.106-.934.178-1.08.373-.083.204.553.745.713.923.095.106.163.197.272.275-.072.31-.074.503.135.675.422.346 1.007-.18.725-.675-.117-.205-.308-.217-.603-.23l-.713-.788c.38-.14.847-.235 1.24-.347.475-.134.862.02 1.358.064 0 .089.008.187.006.273-.008.373-.182.104-.295.475-.089.298.068.579.306.653.475.15.806-.347.586-.753-.192-.353-.256.074-.233-.593l1.494.204-.008.823c-.165.137-.349.263-.297.577.037.23.223.421.483.421.426.002.788-.57.18-1l.008-.769c.534.064.926.152 1.495.126.176-.008.636-.06.773-.014l2.31 1.8c.371.304.297.194 1.034-.253.203-.124.794-.583 1.007-.56.583.065.808-.546.444-.869-.246-.218-.903-.218-.793.59-.226.078-1.046.68-1.375.85l-2.24-1.734c-.435-.367-.49-.197-1.414-.168-.31.01-.693-.069-1.001-.11l-8.345-1.149c-.2-.032-.221-.108-.326-.218-.418-.433-.352-.274-.354-.741.192-.002.314-.038.436.066.416.363.302.553.912.609z" fill="#fff"/><path d="M35.608 27.217c.262.094.087.408-.14.188.022-.15.01-.146.14-.188zm3.838-1.906a.135.135 0 01-.002.197c-.11.11-.299-.043-.175-.177.04-.044.087-.112.177-.02zm-9.388-.743c.014.33-.205.236-.24.144-.087-.222.155-.188.24-.144zm11.073-.363c-.039-.182.012-.258.194-.204.116.09-.016.24-.016.242l-.178-.038zm4.54-1.262c-.238-.026-.205-.24-.071-.266.211-.038.203.156.072.266zm-3.192-.064c.056-.05-.108-.042.078-.028l-.078.028zm0 0l-.881.71c-.153.11-.06.065-.229.035-.755-.14-.794.848-.265.976.562.136.606-.383.633-.651l1.823-1.409c.316-.244.273-.154.984.095.122.042.223.078.35.12.334.11.22.054.274.198.085.233.213.399.535.36.753-.087.404-1.406-.368-.895-.076.05.005.102-.343-.024-1.538-.56-1.081-.49-2.726.144-.45.175-.906.345-1.354.525-.779.313-1.954.83-2.75.934-1.087.142-2.188.28-3.276.423-.547.072-1.077.088-1.542.296-.428.192-.85.38-1.277.567-.839.369-1.755.735-2.567 1.136-.04-.26.103-.447-.348-.755.077-.074.048-.032.201-.084.233-.078.29-.323.473-.393.052-.02.631-.004.6-.57-.035-.632-1.185-.734-.914.334-.407.543-.643.104-.978.346-.126.178.25.483.418.651.13.127.174.119.178.371.008.814-.023.693 1.631-.048.196-.088 1.482-.675 1.562-.681.205-.016 2.487 1.544 2.793 1.649.012.791.748.783.946.326a.509.509 0 00-.206-.643c-.362-.222-.383.128-.686-.064l-2.38-1.467c.124-.092.732-.348.908-.416.21-.08 3.305-.46 3.578-.481 0 .565.014.46.951.459.397 0 .44-.056.68.186-.011.198-.083.37.035.557.364.569 1.24-.032.802-.605-.145-.19-.203-.144-.473-.184-.159-.024-.261-.207-.4-.285-.18-.102-.95-.006-1.11-.04-.111-.022-.074.014-.119-.074.043-.082.016-.048.114-.082l.545-.07c.738-.095 1.077-.289 1.828-.585.357-.147 2.12-.878 2.35-.892zm-22.221 4.478c.084-.236.27-.14.266-.002-.002.149-.184.233-.266.002zm-3.733-1.889c-.073-.198.194-.259.242-.102.059.184-.191.234-.242.102zm9.657-.89c.031.255-.095.245-.242.16-.027-.248.114-.248.242-.16zm-11.53-.362c-.077-.32.285-.363.217.006l-.217-.006zm-1.131-1.335l-.07-.042c.175-.018.031-.014.07.043zm-3.065-.174c.175.32-.352.339-.178-.032l.178.032zm3.065.174c.157.006 2.983 1.12 3.498 1.33.268.109.698.147 1.008.183.432.048.286.02.337.11-.049.09.013.036-.091.068-.17.053-.946-.068-1.141.047-.124.074-.235.25-.372.278-.258.056-.36 0-.506.184-.416.533.382 1.182.787.63.141-.195.066-.361.054-.578.244-.242.271-.186.676-.186.941.002.95.092.95-.459.224.014 3.339.399 3.552.467.153.05.84.359.934.429l-2.335 1.436c-.358.24-.339-.122-.709.082a.516.516 0 00-.238.63c.155.452.94.53.959-.293.362-.16 2.594-1.649 2.762-1.657.287-.012 2.796 1.354 3.15 1.284.167-.27-.014-.595.124-.795.124-.18 1.083-.864.236-.85-.426.007-.482-.04-.678-.266.103-.354.095-.645-.234-.773-.538-.209-.891.455-.523.84.167.172.219.097.422.154.268.074.11.246.587.424l.087.042c.008.004.02.012.03.02a1.624 1.624 0 00-.266.247c-.11.126-.072.31-.072.503-.308-.09-.74-.315-1.05-.453l-2.105-.934c-1.391-.627-.887-.433-2.4-.627-.905-.118-3.363-.365-3.94-.591-1.453-.569-2.893-1.12-4.35-1.687-.567-.222-.579-.104-1.148.096-.204.072-.372.122-.566.197-.385.144-.188-.09-.554-.11-.81-.045-.59 1.306.173.973a.38.38 0 00.2-.166l.086-.206c.091-.18.804-.341 1.027-.42.424-.148.254-.174.86.293.504.387 1.027.748 1.519 1.168.017.217.023.758.604.662.353-.06.52-.56.258-.848-.289-.32-.477-.012-.701-.158l-.857-.67c-.036-.038-.03-.03-.044-.05zm21.998 9.567c.26-.104.256.142.167.209-.13.094-.277-.035-.167-.209zm-6.313-3.306c-.134.205-.08.678-.08.992.002.49-.011.463-.195.835-.12.245-.225.47-.347.716-.134.274-.085.589-.085.93 0 .562-.037 3.972.004 4.209.03.184.217.232.317.104.095-.12.043-4.19.04-4.686-.003-.407.094-.491.243-.802.587-1.206.306-.55.39-1.675.253.227.513.533.765.79.18.184.184.208.316.487.085.182.166.336.251.517.295.625.221.468.814.753 1.563.747 3.264 1.468 4.81 2.212.178.084.384.244.521.088.095-.134.085-2.629.012-2.861-.378-.098-.686.32-1.004.389-.13.028-.27-.18-.567-.06-.624.248-.155 1.358.49.879.226-.166.126-.353.248-.483.042-.046.424-.22.511-.25v1.97c-.312-.087-.8-.353-1.108-.494a55.02 55.02 0 01-1.063-.49c-.258-.123-3.102-1.395-3.18-1.49-.088-.105-.427-.867-.517-1.055-.164-.345-.49-.595-.724-.846-.138-.148-.252-.264-.391-.41-.13-.134-.221-.315-.471-.269zm-8.901 3.282c.141-.006.071-.04.194.042.048.118.011.142-.04.218-.232 0-.222-.106-.154-.26zm-1.287-.67c-.094.265-.042 1.542-.042 1.936 0 1.152-.087 1.124.724.768.512-.225 5.157-2.35 5.236-2.437.196-.214.442-1.015.651-1.29.237-.308.7-.645.909-.954.048.26-.006.54.015.804.014.166.384.867.479 1.062.15.306.149.246.149.639v4.26c0 .208-.039.404.134.444.222.052.226-.14.226-.33l-.004-4.737c-.052-.465-.627-.923-.625-1.71.002-.327.066-.848-.076-1.067-.263-.046-.354.15-.492.293-.314.324-.945.905-1.1 1.234-.641 1.346-.25.952-1.563 1.567-.713.334-1.432.647-2.135.977-.345.163-1.941.92-2.172.982l.002-1.971c.858.284.409.495.777.751.384.268.82-.068.77-.499a.504.504 0 00-.353-.414c-.29-.08-.374.11-.512.08-.285-.063-.668-.507-.997-.387z" fill="#fff"/><path d="M46.171 25.504c-.046-.046-.038-.034-.035-.104.01-.144-.005-.022.045-.072.043-.044.09-.107.176-.012.114.12-.058.316-.186.188zm-3.787-.004c-.04-.195.008-.244.196-.204a.276.276 0 01.021.222.263.263 0 01-.217-.018zm-.364.156l-2.584 2.659c-.124.128-.316.234-.211.49.24.083 2.222-.5 2.613-.598.387-.097 2.43-.575 2.627-.692.234-.136 1.445-1.618 1.654-1.614.3.004.436-.002.572-.233.28-.483-.303-.98-.721-.671-.217.16-.18.337-.182.667l-1.044 1.066c-.151.154-.334.425-.566.489l-4.186 1.072 1.997-2.078c.525-.535.184-.216.63-.308.614-.129.404-1.215-.293-.976-.349.118-.296.355-.306.727zm-32.19-.344c.059.06.055.136-.003.194-.114.114-.308-.034-.175-.178.041-.044.09-.108.179-.016zm3.577.004a.13.13 0 01.19-.008c.114.114.017.276-.204.208-.015-.078-.048-.13.014-.2zm2.578 2.905c.087.076.064-.098.064.068-.006.004-.015.012-.02.014a.062.062 0 00-.017.006l-.033-.018c-.678-.13-2.52-.65-3.328-.857-.273-.07-.554-.13-.83-.215-.3-.092-1.242-1.3-1.607-1.559-.011-.32.035-.506-.184-.665a.522.522 0 00-.627.04c-.188.17-.382.874.474.87.116 0 .155.084.229.162.073.078.122.126.197.204l.411.427c.143.148.711.774.843.834l4.608 1.196c.103.026.4.124.492.106.44-.078-.186-.611-.186-.611l-2.167-2.24c-.326-.345-.332-.25-.314-.529.02-.282-.124-.459-.318-.523-.581-.192-.874.567-.465.89.093.072.184.1.34.092.193-.01.144-.036.264.096.272.29 2.077 2.178 2.174 2.212zm2.437-.944c.075-.082.168-.052.244 0 .021.303-.264.31-.244 0zm-3.189-1.404c-.126-.048-.16-.098-.095-.26l.188.017c.076.147.043.193-.093.243zm5.083-.587c.31-.026.213.216.134.248-.182.076-.217-.112-.134-.248zm-3.651 1.783c-.223-.164-.659-.771-1.007-1.034.245-1.05-.75-.956-.896-.46-.096.332.109.608.374.654.432.075.109-.104.644.447.174.18.33.367.503.553.173.188.374.357.543.55.174.198.34.386.52.57.105.108.162.176.26.287.1.112.144.2.345.19.174-.122.418-.703.511-.95.975-.162.568-1.144-.025-1.024-.302.063-.469.381-.335.718.078.19.035.148-.064.354-.054.113-.137.283-.182.393l-.918-.964c.083-.144.275-.296.387-.426.136-.155.258-.287.401-.44.17-.18.157-.272.454-.342l1.644-.376c.202-.048.151-.04.287.054.428.298.968-.175.713-.662a.487.487 0 00-.54-.25c-.367.066-.284.31-.404.439-.09.098-1.092.276-1.297.322-.926.213-.581.049-1.1.531l-.595.645c-.049.053-.059.073-.101.119-.083.098-.012.048-.122.102z" fill="#fff"/><path d="M37.33 27.28c.072-.089.157-.06.229-.01.09.252-.085.264-.233.163l.004-.154zm3.435-1.407c-.14-.064-.153-.1-.087-.275l.182.03c.07.15.037.195-.095.245zm-5.234-.337c-.091-.172-.1-.268.162-.254.056.136.082.164-.05.264l-.112-.01zm2.514 3.296c.184.07.453-.317.604-.481.51-.557 1.093-1.128 1.57-1.673.472-.543.356-.405.645-.447.738-.11.335-1.344-.343-.943-.295.174-.242.42-.182.747-.363.293-.746.841-1.006 1.034-.157-.082-.459-.481-.606-.643-.122-.133-.511-.561-.637-.6l-1.982-.442c-.078-.299-.203-.521-.57-.479-.668.078-.494 1.19.2.994.159-.044.192-.155.322-.15l1.257.284c.149.034.279.064.41.096.21.046.233.028.357.148l.978 1.078c-.072.13-.35.369-.463.497-.124.14-.302.387-.457.467a38.82 38.82 0 00-.188-.387c-.103-.208-.13-.178-.056-.354.135-.33-.031-.66-.337-.722-.343-.07-.593.17-.595.501-.002.417.298.49.572.521.073.235.364.84.507.954zm7.555 2.937c.207.02.244.198.035.275l-.134-.09c.018-.153.012-.12.099-.185zm1.792-1.116c-.053-.194.191-.234.244-.098.075.194-.204.248-.244.098zm-4.793-.585c-.308.074-.339-.292-.01-.226.032.08.034.136.01.226zm5.401.723v-.372c-.178-.215-.194-.337-.568-.313-.17.012-.147-.008-.253-.124-.08-.086-.134-.14-.215-.224-.71-.728-.516-.674-1.07-.58-.986.169-2.007.38-2.993.51-.288-.502-1.055-.17-.877.434.112.383.627.437.835.18.14-.17-.002-.176.184-.256l3.035-.513c-.004.79.084.832-.166 1.336-.033.067-.237.46-.254.477-.134.133-.31.034-.447.279-.407.717.74 1.114.896.408.056-.248-.07-.36-.118-.526.12-.21.275-.503.384-.72.126-.252.06-.667.071-.985.173.09.281.252.42.392.36.363.07.137.179.557a.47.47 0 00.453.363c.33.006.366-.178.504-.323zm-37.602.974c.099.072.134.1.06.244l-.182.028c-.05-.146-.073-.244.122-.272zm-2.022-1.276c.071-.016.135-.048.2.016a.14.14 0 01.001.192c-.116.13-.269.012-.201-.208zm5.036-.647c.304-.064.258.17.15.232-.15.086-.215-.078-.15-.232zm-3.405 1.663c-.05.174-.188.302-.112.555a.502.502 0 00.397.346c.447.056.72-.43.48-.807-.126-.197-.343-.14-.45-.275-.026-.034-.21-.4-.251-.48-.229-.431-.155-.65-.155-1.315.606.062 1.29.212 1.904.32.308.055.641.115.953.16.295.047.206.003.322.223a.438.438 0 00.325.223c.33.056.599-.209.577-.547a.494.494 0 00-.65-.439c-.221.072-.16.21-.355.202-.091-.004-.343-.06-.461-.08-.31-.052-.616-.106-.922-.158-2.15-.367-1.763-.533-2.485.228-.337.355-.351.451-.59.437-.817-.05-.635 1.258.127.978.457-.169.224-.591.325-.738.081-.118.453-.484.568-.547.015 1-.091.72.453 1.713zm3.953 2.981c-.06-.199.004-.237.19-.2.093.184 0 .332-.19.2zm3.863-1.182c-.083-.153-.04-.195.095-.243.126.052.17.094.091.257l-.186-.014zm-1.557 1.015c.13-.549.703-1.783.47-1.927-.168-.102-1.232.751-1.495.936-1.294.901-.69.563-1.19.563a.436.436 0 00-.39.21c-.363.553.387 1.092.768.647.142-.164.09-.286.146-.48l.842-.61c.213-.154.655-.5.864-.597-.08.353-.48 1.27-.426 1.547.22.17.78.084 1.098.084.33 0 .87.058 1.116-.058.053-.215.03-.64.03-.906.092-.188.37-.206.305-.61a.49.49 0 00-.484-.424c-.568-.002-.668.798-.178.98l-.002.647-1.474-.002zm25.771.169c-.3.188-.329-.35.028-.183l-.028.183zm-3.893-1.417c.06.066.042.022.073.139-.067.186-.186.164-.267.03.02-.153.037-.175.194-.169zm-.184 1.593c.31.068.777.026 1.123.026.308 0 .862.086 1.062-.084.066-.295-.353-1.196-.424-1.545l1.712 1.202c.037.217.033.389.151.507.41.413 1.122-.16.756-.67a.48.48 0 00-.425-.21c-.27.019-.195.139-.441-.045-.244-.183-.465-.333-.717-.517-.256-.189-.498-.34-.744-.527-1.044-.798-.897-.375-.585.567.099.3.235.653.306.953l-1.478-.002v-.645c.506-.196.384-1.015-.213-.977a.494.494 0 00-.455.452c-.039.381.211.39.308.581.004.299-.039.714.064.934z" fill="#fff"/><path d="M11.729 32.658a.305.305 0 01-.219-.006c-.054-.33.175-.222.198-.204.073.114.052.084.021.21zm-2.551-.218c.102.138.068.34-.134.248-.095-.044-.124-.26.134-.248zm.407.285c.118-.764-.713-.844-.919-.381a.526.526 0 00.179.657c.284.194.267-.078.73.134l3.216 1.53c.224.069.383-.067.104-.48-.265-.395-.469-.767-.732-1.17-.118-.182-.124-.104-.072-.31.117-.465-.286-.756-.637-.628-.488.179-.465 1.046.314.974.12.289.515.745.59.998l-2.773-1.325zm37.369-.285c.128.148.058.333-.128.248-.1-.046-.126-.258.128-.248zm-2.668-.004l.183-.006c.063.13.058.198-.086.26-.131-.042-.176-.096-.097-.254zm-.056.615c.795.064.781-.785.347-.968-.304-.128-.546.05-.645.255-.078.164-.047.236-.014.39.035.163-.01.169-.096.309-.25.397-.479.783-.733 1.168-.116.176-.284.607.146.45.158-.055.472-.22.639-.304a83.782 83.782 0 012.57-1.228c.21-.096.132-.094.341-.062.522.084.7-.423.535-.743-.219-.433-1.015-.34-.907.409l-2.773 1.318c.112-.299.478-.696.59-.994zm-31.232-6.233c-.1.022-.157.018-.229-.022-.048-.228.045-.242.221-.198l.008.22zm-.86-2.596c-.076-.345.29-.355.225-.004l-.225.004zm.267 2.242c-.004.326-.027.515.186.663.438.306.992-.235.707-.693-.149-.24-.349-.209-.643-.223l-1.953-2.03c.153-.085.388-.166.553-.234.276-.114.298-.208.503.002.014.289.031.477.242.605.22.133.48.052.614-.09.328-.354.05-1.022-.604-.805-.45-.26-.105-.395-1.213.072-.873.368-.93.146.688 1.799.21.216.72.8.92.934zm30.605.35c-.037-.18.048-.358.201-.208.134.128.018.268-.201.208zm.85-2.592c-.093.022-.145.016-.218-.027-.043-.19.007-.248.191-.198a.29.29 0 01.027.225zm1.434-.065c-.11.185-1.552 1.623-1.829 1.918-.314.332-.304-.03-.616.21-.166.128-.314.389-.159.673a.49.49 0 00.65.209c.27-.13.268-.32.253-.704l1.511-1.546c.118-.12.71-.67.703-.818-.008-.192-.285-.238-.451-.306-1.314-.537-.862-.42-1.3-.178-.13.072-.128-.012-.32-.012-.49.002-.647.659-.273.927.157.11.419.12.578-.008.42-.344-.092-.91.68-.589.185.076.393.178.573.224zM27.91 30.505c.176-.08.294.074.188.19-.122.132-.289-.002-.188-.19zm.017-3.875c.283-.288.237.43-.017.17-.122-.126.008-.16.017-.17zm-.412-.012a.51.51 0 00.072.369c.038.056.058.072.104.112.118.104.13.108.13.108-.008-.008.004-.006 0 0v2.889l-.244.247c-.186.316.017.78.441.767.446-.014.584-.521.396-.794l-.17-.162c-.043-.036-.032-.026-.063-.06l.002-2.889c.083-.078.188-.138.248-.24.169-.285.006-.786-.447-.77a.493.493 0 00-.47.423zM13.4 33.091c.092-.074.309-.024.196.205-.203.112-.242-.029-.195-.205zm2.515-1.95c.316-.07.331.305-.027.225l.027-.224zm-.529.818c.397-.31.285-.274.479-.222.54.148.827-.509.501-.85a.522.522 0 00-.615-.072c-.192.118-.237.275-.227.587l-.934.697c-.159.115-.316.237-.478.357-.277.208-.293.279-.504.25-.568-.076-.773.54-.446.864.233.228.913.234.814-.559l1.41-1.052zm27.202 1.357c-.148.028-.078.04-.192-.02-.128-.295.335-.339.192.02zM39.9 31.164c.133-.148.308.072.184.192-.124.123-.304-.06-.184-.192zm.575.238c.058-.783-.65-.749-.856-.492-.304.376-.017.965.544.819.153-.04.132-.02.268.084l1.596 1.196c-.1.688.511.888.83.545.206-.218.241-.925-.497-.843-.2.022-.265-.106-.511-.29l-1.374-1.018zm-17.035-.258c.293-.078.253.176.154.232-.132.076-.24-.054-.153-.232zm1.285-1.306c.134-.135.295.07.18.188-.118.122-.323-.046-.18-.188zm-.157.583c.341.004.498.026.657-.213.3-.458-.28-1.025-.709-.695-.21.162-.194.339-.184.661l-.564.597c-.33-.028-.525-.016-.658.213-.277.472.261 1.001.703.69.211-.15.22-.332.192-.654l.563-.6zm8.007.945c-.334.08-.338-.298-.014-.224a.307.307 0 01.014.224zm-1.48-1.529c.133-.134.315.063.188.19-.126.125-.309-.067-.189-.19zm.57.337c.003-.308.038-.477-.162-.645-.426-.365-1.024.212-.726.675.172.27.3.203.643.224.095.117.498.527.585.584-.09.933.604.819.812.607.188-.193.358-.904-.572-.856l-.58-.589zm-2.258-6.708c-.228-.152-.343.02-.674.335-.432.413-.397.014-.833.1-.544.108-.261.193-.765-.224-.064-.054-.256-.243-.322-.263-.172-.056-.304.095-.218.263.042.084.443.443.575.593.31.355.548-.044.91.018.169.028.293.128.475.126.211-.004.333-.234.653-.527.116-.106.252-.17.2-.42zM15.985 28.22l-.006.069.033.017a.06.06 0 00.017-.006c.002 0 .012-.01.02-.014 0-.165.023.01-.064-.065zm-2.464-5.339c-.039-.056.105-.06-.07-.042l.07.043zm28.958-.001l.077-.029c-.185-.014-.023-.021-.077.028z" fill="#fff"/></svg>