<!-- by TradingView --><svg width="56" height="56" xmlns="http://www.w3.org/2000/svg"><path fill="url(#paint0_linear)" d="M0 0h56v56H0z"/><path d="M8.883 25c.278 0 .553.046.81.138.256.091.49.226.685.395.194.168.35.366.457.585.11.224.167.465.165.708V31h-1v-4.026c.004-.527-.66-.977-1.152-.974h-2.75c-.495-.01-1.108.434-1.098.974v4.025H4v-4.173a1.549 1.549 0 01.168-.707 1.94 1.94 0 01.457-.585 2.1 2.1 0 01.673-.393c.263-.095.545-.143.83-.14h2.755zm21 0c.278 0 .553.046.81.138.256.091.49.226.685.395.194.168.35.366.456.585.111.224.168.465.166.708V31h-1v-4.026c.004-.527-.66-.977-1.152-.974h-2.75c-.495-.01-1.108.434-1.098.974v4.025h-1v-4.173a1.549 1.549 0 01.169-.707c.108-.218.263-.416.456-.585a2.1 2.1 0 01.673-.393c.263-.095.546-.143.83-.14h2.755zm-14.008.714a2.393 2.393 0 011.028-.624 2.055 2.055 0 011.2 0c.198.06.387.144.561.25.172.104.328.23.463.374.131.138.236.297.309.469l1.42 3.279c.094.218.142.451.144.686a.96.96 0 01-.154.536.69.69 0 01-.27.236.754.754 0 01-.363.076L20 31c.006 0-.005.003 0 0 .005.003-.006 0 0 0v-.652l-.003-.266c0-.093-.032-.168-.092-.276l-1.417-3.286c-.18-.35-.605-.514-.99-.52-.39.003-.804.183-.994.52l-1.395 3.284v.003c-.044.108-.109.176-.109.373V31h-.203a.758.758 0 01-.362-.081.69.69 0 01-.271-.235.854.854 0 01-.164-.528c.005-.238.058-.474.155-.694l1.405-3.28c.075-.171.182-.33.315-.468z" fill="#fff"/><path d="M17.98 28h-.96c-.01 0-.02.008-.02.018v.964c0 .01.01.018.02.018h.96c.01 0 .02-.008.02-.018v-.964c0-.01-.01-.018-.02-.018zm23.855-1.885a1.84 1.84 0 00-.455-.583 2.158 2.158 0 00-.687-.395 2.413 2.413 0 00-.81-.137h-2.768a2.387 2.387 0 00-.81.136 2.13 2.13 0 00-.685.396c-.195.167-.35.365-.457.583a1.574 1.574 0 00-.163.702v2.366c-.002.243.053.484.163.708.108.215.263.41.457.576.194.166.423.299.675.391.26.096.54.144.823.142h2.767c.28 0 .559-.047.817-.142.51-.184.917-.53 1.135-.966a1.56 1.56 0 00.163-.708v-2.367a1.568 1.568 0 00-.165-.702zM41 29.205c.004.522-.667.798-1.15.795h-2.742c-.492.007-1.11-.256-1.108-.794v-2.36c0-.535.616-.851 1.106-.846h2.74c.49-.007 1.157.316 1.154.848v2.358zM45.872 25l1.307 1.976c.11.148.192.312.242.484.105.357.105.732 0 1.089-.05.173-.132.337-.242.485L45.872 31 45 30.483l1.307-1.967a.616.616 0 00.113-.234 1.102 1.102 0 000-.557.658.658 0 00-.113-.24L45 25.51l.872-.509zm3.131 2.5h-1v1h1v-1zm2.129-2.5l.868.512-1.305 1.976a.653.653 0 00-.12.239c-.05.183-.05.374 0 .557a.611.611 0 00.12.234L52 30.483l-.868.517-1.31-1.968a1.416 1.416 0 01-.246-.485 1.977 1.977 0 010-1.089 1.42 1.42 0 01.246-.483L51.132 25z" fill="#fff"/><defs><linearGradient id="paint0_linear" x1="10.418" y1="9.712" x2="68.147" y2="76.017" gradientUnits="userSpaceOnUse"><stop stop-color="#1A1E21"/><stop offset="1" stop-color="#06060A"/></linearGradient></defs></svg>