<!-- by TradingView --><svg width="56" height="56" viewBox="0 0 56 56" xmlns="http://www.w3.org/2000/svg"><path fill="#F0F3FA" d="M0 0h56v56H0z"/><path d="m5 31 1.65-7h1.9l1.8 5.16h.05l.06-.39.09-.48a64.66 64.66 0 0 1 .2-.98l.79-3.31H13l-1.65 7H9.53l-1.9-5.3h-.05l-.04.29a19.97 19.97 0 0 1-.2 1.15l-.1.57L6.45 31H5ZM16 31l1.56-7h1.53l-.6 3h2.37l.6-3H23l-1.56 7h-1.53l.67-3H18.2l-.67 3H16ZM24.6 31c-.4 0-.77-.07-1.1-.22a1.82 1.82 0 0 1-.74-.65c-.17-.27-.26-.6-.26-.99 0-.34.04-.66.11-.98.08-.3.2-.6.35-.85a2.55 2.55 0 0 1 1.4-1.14 3.14 3.14 0 0 1 2.16.06c.31.15.55.36.72.65.17.29.26.63.26 1.03 0 .32-.04.64-.11.94a3.04 3.04 0 0 1-.9 1.53c-.23.2-.5.35-.82.46-.32.1-.67.16-1.07.16Zm.12-1.06c.16 0 .31-.04.45-.1a1.64 1.64 0 0 0 .62-.76 3.09 3.09 0 0 0 .22-1.17c0-.17-.02-.31-.07-.43a.54.54 0 0 0-.22-.3.67.67 0 0 0-.41-.12.89.89 0 0 0-.49.13c-.14.1-.26.2-.37.36a2.36 2.36 0 0 0-.41 1.05c-.03.19-.05.37-.05.54 0 .26.06.46.18.6.12.13.3.2.55.2ZM27.5 31l1.49-7h1.5L29 31h-1.5ZM31.4 31c-.24 0-.47-.06-.69-.17-.22-.12-.4-.31-.53-.58-.13-.26-.2-.62-.2-1.06a4.66 4.66 0 0 1 .4-1.87c.14-.29.3-.54.5-.76.19-.21.4-.39.64-.51.25-.13.51-.2.8-.2a1.15 1.15 0 0 1 .86.36c.1.1.2.23.28.37h.04a6.18 6.18 0 0 1 .12-.99l.34-1.59h1.36l-1.49 7H32.8l.08-.74h-.04a2.3 2.3 0 0 1-.39.39c-.14.1-.3.2-.47.26-.17.06-.36.09-.58.09Zm.57-1.08c.15 0 .27-.04.38-.11.12-.08.22-.18.3-.3a2.76 2.76 0 0 0 .39-.9 3.56 3.56 0 0 0 .13-.9.88.88 0 0 0-.16-.56.55.55 0 0 0-.46-.21.63.63 0 0 0-.38.12c-.12.09-.23.2-.33.35-.1.14-.19.31-.26.5s-.13.39-.17.6c-.04.2-.05.41-.05.63 0 .26.05.45.15.59.11.12.27.19.46.19ZM35.22 31l1.07-5h1.36l-1.07 5h-1.36Zm1.97-5.67a.96.96 0 0 1-.5-.12c-.12-.09-.19-.23-.19-.43a.9.9 0 0 1 .1-.43c.06-.11.16-.2.28-.26a1 1 0 0 1 .45-.09c.17 0 .33.04.47.12.13.08.2.22.2.42a.8.8 0 0 1-.2.57c-.13.14-.34.22-.61.22ZM12 31l1.57-7H15l-1.57 7H12ZM38 31l1.08-5h1.05l-.1 1h.04c.14-.2.28-.37.43-.52.17-.15.34-.27.54-.35.2-.09.4-.13.64-.13.3 0 .54.06.73.18.2.11.35.28.44.49.1.2.15.45.15.74 0 .11 0 .23-.03.37l-.07.42-.61 2.8h-1.37l.62-2.87a3.08 3.08 0 0 0 .08-.52c0-.19-.05-.32-.13-.4-.09-.1-.2-.14-.37-.14-.2 0-.4.09-.56.26-.17.17-.31.4-.44.68-.12.3-.22.61-.3.96L39.37 31H38ZM44.9 33a5.45 5.45 0 0 1-1.9-.3v-1.13a4.85 4.85 0 0 0 1.8.37c.37 0 .66-.07.9-.22.23-.13.39-.34.48-.64l.04-.13a3.56 3.56 0 0 0 .17-.5l.09-.2h-.04c-.12.13-.26.25-.4.36-.16.1-.32.2-.5.27a1.93 1.93 0 0 1-1.42-.09 1.45 1.45 0 0 1-.58-.56 2.05 2.05 0 0 1-.21-1 3.82 3.82 0 0 1 .48-1.8c.15-.28.34-.52.55-.74.22-.21.47-.38.74-.5.27-.13.57-.19.89-.19.25 0 .47.03.64.09.17.06.33.14.46.24.13.1.25.23.37.37h.04l.3-.7H49l-1.27 5c-.12.5-.32.9-.6 1.2-.25.28-.57.5-.95.62s-.8.18-1.29.18Zm.75-3.07c.15 0 .28-.03.4-.1.12-.06.23-.15.33-.26.1-.11.2-.24.28-.38.08-.14.14-.29.2-.45a3.88 3.88 0 0 0 .15-.94.76.76 0 0 0-.2-.54.67.67 0 0 0-.51-.21c-.16 0-.3.04-.45.12-.14.08-.27.2-.38.33a2.36 2.36 0 0 0-.5 1.07c-.03.2-.06.4-.06.6 0 .26.07.45.2.58.13.12.31.18.54.18ZM50.48 31c-.31 0-.58-.02-.82-.07a2.47 2.47 0 0 1-.66-.21v-1.07a2.71 2.71 0 0 0 1.41.39c.14 0 .27-.02.4-.06a.7.7 0 0 0 .29-.17.39.39 0 0 0 .12-.3.35.35 0 0 0-.07-.2.72.72 0 0 0-.21-.22c-.1-.07-.26-.17-.46-.28-.21-.11-.38-.23-.53-.35a1.36 1.36 0 0 1-.33-.4c-.07-.15-.1-.32-.1-.52 0-.34.07-.62.22-.84.15-.23.37-.4.64-.52.29-.12.63-.18 1.02-.18a3.46 3.46 0 0 1 1.6.4l-.43.93c-.18-.1-.37-.18-.57-.25-.19-.07-.38-.1-.57-.1a.73.73 0 0 0-.4.1.32.32 0 0 0-.17.3c0 .07.03.15.07.21.04.06.1.12.2.19l.4.22c.2.1.38.2.54.33a1.23 1.23 0 0 1 .5 1c0 .36-.1.67-.27.92s-.4.43-.72.56c-.3.13-.67.19-1.1.19Z" fill="#A93B35"/></svg>