<!-- by TradingView --><svg width="56" height="56" viewBox="0 0 56 56" xmlns="http://www.w3.org/2000/svg"><path fill="#F0F3FA" d="M0 0h56v56H0z"/><path fill-rule="evenodd" d="M42 14H14v28h28V14Zm-29-1v30h30V13H13Z" fill="#EC2A53"/><path fill-rule="evenodd" d="M13.9 13.9h28.2v28.2H13.9V13.9Zm29-.8H13.1v29.8h29.8V13.1Zm-.9.9v28H14V14h28Zm-29-1h30v30H13V13Z" fill="#111317"/><path d="M42 14H14l28 28V14Z" fill="#EC2A53"/><path d="m42.15 42.85-29-29 .7-.7 29 29-.7.7Z" fill="#EC2A53"/><path fill-rule="evenodd" d="m42.15 42.85-29-29 .7-.7 29 29-.7.7Zm.56-.7-.56.56-28.86-28.86.56-.56 28.86 28.86Z" fill="#111317"/><path d="m27.65 27.65 14.5-14.5.7.7-14.5 14.5-.7-.7Z" fill="#EC2A53"/><path d="m27.65 27.65 14.5-14.5.7.7-14.5 14.5-.7-.7Zm.14 0 .56.56 14.36-14.36-.56-.56-14.36 14.36Z" fill="#111317"/><path d="m26.15 42.15 16-16 .7.7-16 16-.7-.7Z" fill="#EC2A53"/><path d="m26.15 42.15 16-16 .7.7-16 16-.7-.7Zm.14 0 .56.56 15.86-15.86-.56-.56-15.86 15.86Z" fill="#111317"/><path d="M27 42.7 13.13 27.85l.74-.68 13.86 14.87-.73.68Z" fill="#EC2A53"/><path fill-rule="evenodd" d="m27 42.57.59-.55L13.86 27.3l-.58.55L27 42.57Zm0 .14.73-.68-13.86-14.87-.74.68L27 42.71Z" fill="#111317"/><path d="M41.5 15h-27v-1h27v1Z" fill="#EC2A53"/><path d="M41.5 15h-27v-1h27v1Zm-.1-.9H14.6v.8h26.8v-.8Z" fill="#111317"/><path d="M38.5 18h-21v-1h21v1Z" fill="#EC2A53"/><path d="M38.5 18h-21v-1h21v1Zm-.1-.9H17.6v.8h20.8v-.8Z" fill="#111317"/><path d="M35.5 21h-15v-1h15v1Z" fill="#EC2A53"/><path d="M35.5 21h-15v-1h15v1Zm-.1-.9H20.6v.8h14.8v-.8Z" fill="#111317"/><path d="M32.5 24h-9v-1h9v1Z" fill="#EC2A53"/><path d="M32.5 24h-9v-1h9v1Zm-.1-.9h-8.8v.8h8.8v-.8Z" fill="#111317"/></svg>