<!-- by TradingView --><svg width="56" height="56" viewBox="0 0 56 56" xmlns="http://www.w3.org/2000/svg"><path fill="#F0F3FA" d="M0 0h56v56H0z"/><path d="M28.54 12c-2.25.9-4.64 2.97-4.64 7.09 0 4.4.36 5.9.65 7.09l.13.49c.16.57.32 1.16.32 2.09 0 3.02-3.28 6.24-6.25 6.24S12 32.5 12 27.39C12 19.09 19.37 12 28 12h.54Zm11.62 26.4a15.97 15.97 0 0 0-2.43-23.1 22.2 22.2 0 0 0-2.08-1.21c-4.85-2.44-8.55-.38-10.02 2.22-1.48 2.6-.23 6.91 2.42 8.36a9.3 9.3 0 0 0 2.41.94c1.18.31 2.68.72 6.53 2.83 5.07 2.78 4.22 7.76 3.16 9.9v.06ZM28 44c2.42 0 4.72-.54 6.78-1.5.42-.23.8-.45 1.15-.67 4.61-2.92 4.71-7.21 3.2-9.85-1.52-2.65-5.93-3.83-8.55-2.3a9.22 9.22 0 0 0-2.06 1.6c-.87.85-2 1.94-5.81 4.17A7.44 7.44 0 0 1 13 34c2.34 5.94 8.23 10 15 10Z" fill="url(#aojzt53i1)"/><defs><linearGradient id="aojzt53i1" x1="27.99" y1="12" x2="27.99" y2="44" gradientUnits="userSpaceOnUse"><stop stop-color="#38499C"/><stop offset="1" stop-color="#00B1E3"/></linearGradient></defs></svg>