<!-- by TradingView --><svg width="56" height="56" viewBox="0 0 56 56" xmlns="http://www.w3.org/2000/svg"><path fill="#F0F3FA" d="M0 0h56v56H0z"/><path d="M28 44a16 16 0 0 0 9.92-28.55 2 2 0 0 1-1.51 2.5l-.82 17.14a2 2 0 1 1-2.1.6l-8.8-12.81a2 2 0 0 1-1.2.05l-7.1 12.63a2 2 0 0 1-.3 3.12A15.96 15.96 0 0 0 28 44Zm-14.2-8.6a2 2 0 0 1 1.71-.33l7.1-12.63A2 2 0 0 1 24 19a2 2 0 0 1 1.5 3.31l8.81 12.81.28-.08.82-17.13a2 2 0 0 1 .36-3.9A16 16 0 0 0 13.8 35.4Z" fill="url(#a1tnsmbs4)"/><path d="m19.38 30.23 13.86 5.09.25.37A2 2 0 0 0 33 37H17a2 2 0 0 0-.27-1H32.2l-13.3-4.89.5-.88ZM34.2 16.87l-8.29 3.54a2 2 0 0 0-.54-.86L34 15.87a2.03 2.03 0 0 0 .2 1ZM22 20.98V21a2 2 0 0 0 .25.97l-10.16 4.32c.04-.39.1-.77.17-1.16L22 20.98Zm-3.57 8.9-.5.88-5.92-2.17a16.15 16.15 0 0 1 0-1.07l6.42 2.36Zm14.69 7.8-6.29 6.28a16.23 16.23 0 0 0 1.38.04l5.48-5.49a2 2 0 0 1-.57-.83Zm3.65.26 2.6 1.3c.25-.24.49-.5.72-.76l-3.1-1.54a1.95 1.95 0 0 1-.23 1Zm-.86-2.72c-.1-.05-.2-.1-.32-.13l.13-2.74 4.43-14.76c.27.3.52.63.76.95l-5 16.68Z" fill="url(#b1tnsmbs4)"/><defs><linearGradient id="a1tnsmbs4" x1="38.5" y1="17" x2="17.5" y2="40" gradientUnits="userSpaceOnUse"><stop stop-color="#4A5EB7"/><stop offset="1" stop-color="#089DC2"/></linearGradient><linearGradient id="b1tnsmbs4" x1="39" y1="17" x2="17" y2="36.5" gradientUnits="userSpaceOnUse"><stop stop-color="#90ACDA"/><stop offset="1" stop-color="#7ED0F6"/></linearGradient></defs></svg>