<!-- by TradingView --><svg xmlns="http://www.w3.org/2000/svg" width="56" height="56" viewBox="0 0 56 56"><path fill="#F0F3FA" d="M0 0h56v56H0z"/><path d="M23 14.06a.94.94 0 0 0-.32-.06h-8.07a.61.61 0 0 0-.61.61v8.72l9-9.27zM14.18 41.82c.11.11.27.18.44.18h7.81c.34 0 .57-.28.57-.61V32.5l-8.82 9.31z" fill="#0DB04B"/><path d="M33 23.33v18.6c.02 0 .04 0 .05.02L42 32.67l-9-9.34z" fill="#076836"/><path d="M23 32.67v-18.6c-.02 0-.04 0-.05-.02L14 23.33V41.4c0 .16.07.32.17.43L23 32.67zM42 32.67V14.6a.6.6 0 0 0-.6-.61h-7.8a.6.6 0 0 0-.6.61v8.72l9 9.34zM42 32.67l-9 9.27c.1.04.2.06.3.06h8.1a.6.6 0 0 0 .6-.61v-8.72z" fill="#8BC53F"/><path d="M23.27 14.25a.92.92 0 0 0-.27-.17v18.59l9.73 9.08c.08.07.17.13.27.17V23.33l-9.73-9.08z" fill="#0DB04B"/></svg>