<!-- by TradingView --><svg width="56" height="56" viewBox="0 0 56 56" xmlns="http://www.w3.org/2000/svg"><path fill="url(#a1vrke5fp)" d="M0 0h56v56H0z"/><path d="M21 19 11 30.79v2.3l10-11.8V19Zm-5 1.92L6 32.7V35l10-11.79v-2.3Zm30.55 6.18h.04c1.48.36 3.4.8 3.41 2.72v.06c-.02 1.87-1.7 3.12-4.19 3.12-3.76 0-3.8-2.48-3.81-3.39h2.27c-.02.35.05.8.2 1.12.25.44.74.67 1.45.67 1.06 0 1.74-.45 1.74-1.23 0-.77-.54-.9-1.74-1.18h-.02c-3-.73-3.6-1.67-3.6-2.93 0-1.48 1.02-3.06 3.88-3.06.76 0 2.15.16 2.97 1.19.4.51.6 1.16.57 1.81h-2.15c-.07-.9-.56-1.37-1.47-1.37-.92 0-1.5.47-1.5 1.2 0 .8.6.94 1.95 1.27Zm-8.16 2.78L36.79 23h-2.42l-1.67 6.9L31.2 23H29l2.34 10h2.37l1.78-7.1 1.62 7.1h2.45L42 23h-2.1l-1.51 6.88ZM24.14 23c1.39 0 2.48.3 3.24.9C28.8 25 29 26.86 29 27.86c0 1.44-.34 2.63-1 3.54a3.76 3.76 0 0 1-2.35 1.5c-.56.09-1.13.11-1.69.11H21V23h3.14ZM23 31h.8c2.07 0 3.2-1.16 3.2-3.16C27 26 25.65 25 23.85 25H23v6Z" fill="#fff"/><defs><linearGradient id="a1vrke5fp" x1="10.42" y1="9.71" x2="68.15" y2="76.02" gradientUnits="userSpaceOnUse"><stop stop-color="#1A1E21"/><stop offset="1" stop-color="#06060A"/></linearGradient></defs></svg>