<!-- by TradingView --><svg width="56" height="56" viewBox="0 0 56 56" xmlns="http://www.w3.org/2000/svg"><path fill="#F0F3FA" d="M0 0h56v56H0z"/><path d="M4 31v-8h1l4.43 7H9v-7h1v8H9l-4.43-7H5v7H4ZM14 31c-1.69 0-3-1.3-3-3s1.31-3 3-3c1.7 0 3 1.3 3 3 0 1.68-1.3 3-3 3Zm0-1c1.18 0 2-.88 2-2 0-1.13-.83-2-2-2-1.16 0-2 .87-2 2 0 1.12.84 2 2 2ZM18 31v-6h1v1.67l-.1-.4c.35-.83 1.32-1.27 2.55-1.27v1.04a.95.95 0 0 0-.14 0h-.13c-1.2 0-2.18.78-2.18 2V31h-1ZM24.76 31c-1.14 0-1.76-.64-1.76-1.78V24h1v5.17c0 .63.31.83.88.83.32 0 .59-.09.8-.27l.32.87c-.3.27-.76.4-1.24.4ZM22 26v-1h3.5v1H22ZM29.81 25c1.45 0 2.19 1.12 2.19 2.48V31h-1v-3.4c0-1.1-.6-1.6-1.5-1.6-1.11 0-1.5.79-1.5 1.82V31h-1v-8h1v3.6l-.23-.41c.34-.75 1.09-1.19 2.04-1.19ZM32.5 31v-6h1.08v1.67l-.1-.4c.35-.83 1.3-1.27 2.52-1.27v1l-.22.03h-.12c-1.14 0-2.16.81-2.16 2V31h-1ZM37 31v-6h1v6h-1ZM38 23h-1v1h1v-1ZM45.78 25c1.5 0 2.22 1.2 2.22 2.58V31h-.98v-3.3c0-1.15-.63-1.7-1.52-1.7-1.13 0-1.5.92-1.5 1.94V31h-1v-3.3c0-1.14-.6-1.7-1.5-1.7-1.12 0-1.5.93-1.5 1.94V31h-1v-6h1v1.64l-.21-.4A2.14 2.14 0 0 1 41.8 25c1.06 0 1.87.66 2.08 1.7l-.4-.19a2.38 2.38 0 0 1 2.3-1.51Z" fill="#372B50"/><path d="M37.5 10.5c0-1.2-.67-2.17-1-2.5 0 .12.06.25.14.42.15.32.36.8.36 1.58 0 .94-1.78 2.67-3.34 4.2l-.82.8H32c-1.5 0-7.5 0-12 5.5l1 1c1.82-1.98 6.52-5.44 10.9-5.5-.17.18-.3.35-.4.5-.8 1.2-.67 3.17-.5 4 .17-.83.9-2.9 2.5-4.5.47-.47.94-.88 1.38-1.27 1.45-1.28 2.62-2.32 2.62-4.23Zm.5-1c.33.33 1 1.3 1 2.5 0 1.91-1.17 2.95-2.62 4.23-.44.39-.91.8-1.38 1.27a9.81 9.81 0 0 0-2.5 4.5c-.17-.83-.3-2.8.5-4 .37-.56 1.23-1.4 2.16-2.3 1.56-1.53 3.34-3.26 3.34-4.2 0-.79-.21-1.26-.36-1.58-.08-.17-.14-.3-.14-.42Zm2.63 4c0-1.2-.67-2.17-1-2.5 0 .12.06.25.13.42.15.32.37.8.37 1.58 0 .94-1.78 2.67-3.35 4.2-.93.9-1.78 1.74-2.15 2.3-.8 1.2-.67 3.17-.5 4 .16-.83.9-2.9 2.5-4.5.47-.47.93-.88 1.38-1.27.45-.4.87-.77 1.24-1.16 2.08.66 5.99 3.33 7.75 4.93a25.52 25.52 0 0 0-7.43-5.27 3.98 3.98 0 0 0 1.06-2.73Z" fill="#8A373F"/><path d="M24 40v-8h2c1.12 0 2.5.48 2.5 2.29 0 .86-.11 1.24-.59 1.56-.24.16-.5.24-.77.24l.15-.34c1 0 1.71.82 1.71 1.96 0 1.36-.74 2.29-2.23 2.29H24Zm1-1h1.5c.92 0 1.5-.37 1.5-1.29 0-.93-.58-1.21-1.5-1.21h-1.74v-1H26c.84 0 1.5-.36 1.5-1.21 0-.86-.66-1.29-1.5-1.29h-1v6ZM34 40v-3.6c0-.9-.6-1.4-1.63-1.4-.62 0-1.3.2-1.82.63l-.39-.88a3.72 3.72 0 0 1 2.38-.75c1.57 0 2.46.77 2.46 2.38V40h-1Zm-1.5 0c-.96 0-2.5-.5-2.5-2 0-1.6 1.42-2 2.35-2l2.2.02-.03.98h-2.15c-.5 0-1.37.18-1.37 1 0 .5.5 1 1.5 1 .79 0 1.34-.33 1.6-1l.24.86c-.28.69-.88 1.14-1.84 1.14ZM38.81 34c1.3 0 2.19 1 2.19 2.58V40h-1v-3c0-1.14-.25-2-1.5-2-1 0-1.5.8-1.5 2v3h-1v-6h1v1.66l-.23-.43c.34-.77 1.09-1.23 2.04-1.23ZM42.75 38.62l.01-1.33L45.9 34H47l-2.45 2.77-.5.47-1.3 1.38ZM42 40v-8h1v8h-1Zm3.87 0-1.99-2.78.6-.83L47 40h-1.13Z" fill="#372B50"/></svg>