<!-- by TradingView --><svg width="56" height="56" viewBox="0 0 56 56" xmlns="http://www.w3.org/2000/svg"><path d="M41 18.84c0-.74-.17-1.53-.26-1.84-.28 1.33-1.94 3.23-2.74 4 .1.28.3.93.3 1.43 0 .6-.21 1.4-.3 1.57a5.47 5.47 0 0 0 3-5.16Z" fill="#F6B32E"/><path d="M32 19.69c0-2.74 2.3-4.24 3.44-4.65-.25.42-.45.83-.44 1.19 0 .58.36 1.03.44 1.14 1.74-1.6 2.03-2.7 2.03-3.72s-.2-1.31-.2-1.65c1.61.93 2.73 2.87 2.73 3.93s-.46 2.7-2.74 4.69C35.44 22.21 35 23.54 35 24c-1-.3-3-1.57-3-4.31Z" fill="#E63F30"/><path d="M39.04 25.38c-.1-.16.01-.38.2-.38h1.3c.09 0 .17.04.21.12l7.21 11.5c.1.16-.01.38-.2.38h-1.3a.24.24 0 0 1-.21-.12l-7.21-11.5Z" fill="#1D242C"/><path d="M47.96 25.38c.1-.16-.01-.38-.2-.38h-1.3a.24.24 0 0 0-.21.12l-7.21 11.5c-.1.16.01.38.2.38h1.3c.09 0 .17-.04.21-.12l7.21-11.5ZM35 27.62c0-.1.08-.2.2-.23l1.43-.38c.18-.05.37.07.37.24v9.5c0 .14-.13.25-.29.25H35.3c-.16 0-.29-.11-.29-.24v-9.14ZM30 25.3a.3.3 0 0 0-.3-.3h-1.4a.3.3 0 0 0-.3.3v11.4c0 .17.13.3.3.3h1.4a.3.3 0 0 0 .3-.3v-8.49c1-.72 2.1-1.12 2.76-1.3a.31.31 0 0 0 .24-.3V25.3c0-.17-.13-.3-.3-.28-.86.12-1.9.7-2.7 1.27v-.99ZM10 26.09c0 .2.25.32.42.2.9-.63 1.72-1.29 2.81-1.29C15.2 25 16 27.1 16 28.4v8.36c0 .13-.11.24-.26.24h-1.48a.25.25 0 0 1-.26-.24v-7.77c.01-.67-.18-1.99-1.06-1.99-.67 0-1.7.82-2.83 1.54a.24.24 0 0 0-.11.2v8.02c0 .13-.11.24-.26.24H8.26a.25.25 0 0 1-.26-.24V25.24c0-.13.11-.24.26-.24h1.48c.15 0 .26.1.26.24v.85ZM24 35.91c0-.2-.25-.32-.42-.2-.9.63-1.72 1.29-2.81 1.29C18.8 37 18 34.9 18 33.6v-8.36c0-.13.11-.24.26-.24h1.48c.15 0 .26.1.26.24v7.77c-.01.67.18 1.99 1.06 1.99.67 0 1.7-.82 2.83-1.54a.24.24 0 0 0 .11-.2v-8.02c0-.13.11-.24.26-.24h1.48c.15 0 .26.1.26.24v11.52c0 .13-.11.24-.26.24h-1.48a.25.25 0 0 1-.26-.24v-.85Z" fill="#1D242C"/></svg>