<!-- by TradingView --><svg xmlns="http://www.w3.org/2000/svg" width="56" height="56"><path fill="#F0F3FA" d="M0 0h56v56H0z"/><path d="M47 26v3s-1 .1-1-.9V25h3.72c1.1 0 2.28.5 2.28 1.98v2.52c0 .9-.6 1.5-1.5 1.5h-8.31l.81-1h7c.77 0 1-.27 1-.86V26.7c0-.4-.4-.7-.8-.7H47z" fill="#1F3D7C"/><path d="M37 25.75V31c.41 0 .91-.18 1-.62V27l2.52 3.77c.12.16.3.23.48.23s.36-.07.48-.23L44 27v1.5c0 .6.29 1.08 1.52 1.08H47v-.33s-.86.02-1.19-.08c-.33-.1-.81-.24-.81-.97v-2.45c0-.59-.34-.75-.64-.75-.2 0-.38.06-.44.14-.16.2-2.92 4.46-2.92 4.46-.5-.74-1.58-2.46-1.58-2.46s-1.06-1.7-1.37-2a.69.69 0 00-.4-.14c-.33 0-.65.28-.65.75z" fill="#8DC63F"/><path d="M4 25h1v6H4v-6zm19 0h1v6h-1v-6zm-12 0v6h-1l-3-4.31V31H6v-6h1l3 4.31V25h1zm.77 4h1.12c0 .6.4 1 1.07 1s1.26-.21 1.26-.75-.45-.68-1.38-.87c-1.24-.25-1.84-.82-1.84-1.72 0-.96.89-1.66 2.06-1.66s1.94.74 1.94 1.68h-1c0-.55-.74-.68-.94-.68-.2 0-1.06.06-1.06.68 0 .5.37.65 1.25.84 1.37.28 1.98.77 1.98 1.73 0 1.18-.94 1.75-2.16 1.75-1.6 0-2.3-1.02-2.3-2zM22 27c0 1.06-.93 2-2.17 2H18v2h-1v-6h2.83c1.24 0 2.17.93 2.17 2zm-1 0c0-.65-.46-1-1.18-1H18v2h1.82c.72 0 1.18-.35 1.18-1zm9 3.02V31h-.43c-.69 0-1.1 0-1.7-.6L26.66 29H26v2h-1v-6h2.76c1.1 0 2 .78 2 1.98S28.79 28.86 28 29l.6.72c.24.28.71.3 1.06.3H30zM26 28h1.52c.63 0 1.14-.39 1.14-1.02 0-.62-.5-.98-1.14-.98H26v2zm9 2v1h-4v-6h4v1h-3v1.53h2.5v.99H32V30h3z" fill="#1F3D7C"/></svg>