<!-- by TradingView --><svg xmlns="http://www.w3.org/2000/svg" width="56" height="56" viewBox="0 0 56 56"><path fill="url(#ahx0vwrbd)" d="M0 0h56v56H0z"/><path d="M4 31v-7h2l3 4.02V24h2v7H9l-3-4v4H4Zm8 0v-7h4.67v1.55H14v1.18h2.57v1.52H14v1.2h2.67V31H12Zm20-7v7h4.67v-1.55H34v-1.2h2.57v-1.52H34v-1.18h2.67V24H32Zm-10.44 7h-2v-5.45h-2V24h6v1.55h-2V31Zm9.74-4h-3.61v1.45h1.4c-.08.64-.45 1.15-1.37 1.15-1.02 0-1.72-.84-1.72-2.05 0-1.45.8-2.07 1.63-2.07 1.15 0 1.55 1.05 1.55 1.05l1.74-.68S30.22 24 27.69 24C25.45 24 24 25.37 24 27.58c0 2.14 1.6 3.42 3.74 3.42 2.27 0 3.56-1.47 3.56-4Zm8.97-3-2.54 7h1.94l.44-1.3h2.52l.43 1.3h1.96l-2.57-7h-2.18Zm1.1 1.81.82 2.52h-1.64l.81-2.52ZM46 31v-7h2.81c1.84 0 2.6.94 2.6 2.17 0 1.25-.82 1.83-1.56 1.95L52 31h-2.3L48 28.3V31h-2Zm2.34-5.6H48v1.75h.34c.8 0 1.2-.25 1.2-.88 0-.51-.24-.87-1.2-.87Z" fill="#fff"/><defs><linearGradient id="ahx0vwrbd" x1="10.42" y1="9.71" x2="68.15" y2="76.02" gradientUnits="userSpaceOnUse"><stop stop-color="#1A1E21"/><stop offset="1" stop-color="#06060A"/></linearGradient></defs></svg>