<!-- by TradingView --><svg width="56" height="56" viewBox="0 0 56 56" xmlns="http://www.w3.org/2000/svg"><path fill="url(#adqibkdth)" d="M0 0h56v56H0z"/><path d="M31 40c3.87 0 7-5.37 7-12s-3.13-12-7-12c-1.57 0-3.01.88-4.18 2.37.54-.24 1.1-.37 1.68-.37 3.59 0 6.5 4.92 6.5 11 0 5.36-2.27 9.83-5.27 10.8.41.13.84.2 1.27.2ZM23 24c-7.5.62-13 2.59-13 4.92 0 1.25 4 2.58 8 2.58-2.6-.88-5-1.67-5-2.58 0-1.3 4.15-2.43 10-2.87V24ZM43 32s1-1.02 1-2.56-2.35-2.38-6-2.95v-1.83c4.82.92 8 2.49 8 4.26 0 .94-1.45 2.32-3 3.08ZM16 33h-1v4h1v-2l2 2h1v-4h-1v2l-2-2ZM25 33h-4v1h1.5v3h1v-3H25v-1ZM28 33h-1v4h1v-4Z" fill="#F0F3FA"/><defs><linearGradient id="adqibkdth" x1="10.42" y1="9.71" x2="68.15" y2="76.02" gradientUnits="userSpaceOnUse"><stop stop-color="#1A1E21"/><stop offset="1" stop-color="#06060A"/></linearGradient></defs></svg>