<!-- by TradingView --><svg xmlns="http://www.w3.org/2000/svg" width="56" height="56"><path fill="#F0F3FA" d="M0 0h56v56H0z"/><path fill="#9EAAB2" d="M6 21h2v10H6zm34 3h2v7h-2zm0-2h2v1h-2zm-8-2h2v.47h-2zm0 1.11h2v.34h-2zm0 2.09h2v.17h-2zm4-3.2h2v.17h-2z"/><path fill="#D3461E" d="M36 21.74h2v.25h-2z"/><path fill="#9EAAB2" d="M36 24.23h2v.25h-2z"/><path fill="#D3461E" d="M36 20.6h2v.84h-2z"/><path fill="#9EAAB2" d="M36 22.44h2v.47h-2zm0 .77h2v.47h-2zm0 2.1h2v.54h-2zm0 .9h2v.67h-2zm0 1.68h2v.48h-2zm-4-.83h2v.17h-2zm4 .35h2v.17h-2zm0 1.61h2v.17h-2zm0 1.81h2V31h-2z"/><path fill="#D3461E" d="M36 29.65h2v.72h-2z"/><path fill="#9EAAB2" d="M32 29.19h2v.23h-2zm0-5.52h2v.47h-2z"/><path fill="#D3461E" d="M32 24.48h2v1h-2z"/><path fill="#9EAAB2" d="M32 25.78h2v.47h-2zm0 1.8h2v.62h-2zm0 2.79h2V31h-2v-.63zm0-8.63h2v.65h-2zm-20 2.43A3.1 3.1 0 0114.5 23c1.64.06 2.48 1.13 2.5 2.9V31h-2v-5.1c0-.5-.22-1.34-1.23-1.35-1.26-.02-1.77 1.55-1.77 1.91V31h-2v-8h2v1.17zm9-.17v-2l-2 .6V24h-1.36v1.5H19v3.25c-.02 1.91 1.66 2.23 2.4 2.25.6.01 1.07-.1 1.23-.16v-1.37c-1.34.44-1.62-.3-1.63-.72V25.5h1.63V24H21zm3 2.5a3.5 3.5 0 117 0v1h-5c-.02.66.28 1.97 1.75 1.99.33.01 1.06-.14 1.4-.85h1.66A3.5 3.5 0 0124 27.5v-1zm3.54-2c-1.11 0-1.49 1.2-1.54 1.78h3c-.02-.6-.39-1.78-1.46-1.78z"/><path fill-rule="evenodd" d="M44 23.63a5.16 5.16 0 012.72-.63c1.74.05 3.18.61 3.28 2.9V31h-2v-1.1c-.2.35-.7 1.1-2.2 1.1-1.87 0-2.8-1.26-2.8-2.45 0-1.14.84-2.49 3.52-2.55H48c.07-.55-.03-1.54-1.48-1.56-1.44-.02-2.26.56-2.52.86v-1.67zm4 3.67c.06.66-.35 2.2-1.7 2.2-.41 0-1.3-.1-1.3-.96 0-1.01 1.04-1.24 1.53-1.24h1.46z" fill="#9EAAB2"/><path d="M8 33H6v.45h.8V36h.4v-2.55H8V33zm32 0h-2v.45h2V33zm-1.2.45V36h.4v-2.55h-.4zM42 36v-3h.41v3zm-26-3h-2v3h2v-.45h-1.55v-.87H16v-.45h-1.55v-.78H16V33zm16 0h-2v3h2v-.45h-1.55v-.87H32v-.45h-1.55v-.78H32V33zm-20.38 0v3H12v-3h-.38zM10 36v-3h.38v1.23h1.24v.45h-1.24V36H10zm16.9-3h.8a.84.84 0 110 1.68H27V36h-.46v-3h.35zm.1.4v.88h.66a.44.44 0 000-.88H27zm-8.07-.4H18v3h.41v-1.32h.5l.64 1.3H20l-.7-1.38a.84.84 0 00-.37-1.6zm-.52 1.28v-.88h.53a.44.44 0 010 .88h-.53z" fill="#D3461E"/><path fill-rule="evenodd" d="M22 36l1.3-3h.42L25 36h-.51l-.33-.73h-1.35l-.32.73H22zm.96-1.14l.53-1.34.55 1.34h-1.08z" fill="#D3461E"/><path d="M34.37 33h-.45v1.78a1.22 1.22 0 002.44 0V33h-.44v1.87a.77.77 0 11-1.55 0V33zm11.95 2.82c-.22.12-.48.18-.75.18-.88 0-1.59-.67-1.59-1.5s.71-1.5 1.59-1.5c.27 0 .53.06.75.18v.49c-.2-.17-.46-.28-.75-.28-.63 0-1.13.5-1.13 1.1 0 .62.5 1.12 1.13 1.12.29 0 .55-.1.75-.28v.5zm2.3-2.65c.2-.12.43-.17.61-.17.27 0 .57.11.7.18l-.2.35a1.24 1.24 0 00-.5-.13.77.77 0 00-.4.1.36.36 0 00-.17.33c0 .1.06.19.24.29l.29.13.02.01.3.14c.07.04.2.1.29.22.1.13.17.3.17.53 0 .3-.15.52-.35.65-.2.14-.43.2-.65.2a1.7 1.7 0 01-.77-.2l.23-.33.02.01a1.3 1.3 0 00.52.12.7.7 0 00.42-.13.38.38 0 00.18-.32.42.42 0 00-.08-.27.54.54 0 00-.18-.13l-.26-.12h-.02a3.4 3.4 0 01-.33-.16c-.2-.12-.44-.31-.44-.64 0-.31.16-.53.36-.66z" fill="#D3461E"/></svg>