<!-- by TradingView --><svg width="56" height="56" xmlns="http://www.w3.org/2000/svg"><path fill="#174489" d="M0 0h56v56H0z"/><path d="M44.999 30.968a.14.14 0 01-.09.032h-1.763a.145.145 0 01-.133-.078.134.134 0 01.037-.162l3.216-2.636a.145.145 0 000-.226l-3.211-2.654a.14.14 0 01-.053-.13.14.14 0 01.139-.114h1.696c.032 0 .064.011.09.032l3.5 2.865.032.027a.113.113 0 01.003.171l-.035.031L45 30.968z" fill="#A8CB3A"/><path d="M10.775 25H9.744c-.124 0-.244.101-.244.227v3.41c0 .08-.074.122-.133.07l-3.819-3.361c-.26-.23-.543-.346-.841-.346-.264 0-.707.109-.707.836v4.937c0 .125.1.227.225.227h1.031c.124 0 .244-.102.244-.227v-3.444c0-.08.073-.122.133-.07l3.859 3.413c.239.214.499.323.773.323s.735-.114.735-.875v-4.894a.226.226 0 00-.225-.226zM18.866 25h-1.203c-.074 0-.163.061-.163.137v4.013c0 .33-.372.498-1.163.498h-1.636c-.806 0-1.201-.167-1.201-.498v-4.013c0-.076-.074-.137-.148-.137h-1.218a.136.136 0 00-.134.137v4.075C12 30.784 13.603 31 14.835 31h1.33C17.389 31 19 30.75 19 29.212v-4.075a.136.136 0 00-.134-.137zM26 26.065v-.789c0-.152-.11-.276-.264-.276h-6.053a.277.277 0 00-.278.276v.79c0 .152.125.276.278.276h2.184c.078 0 .133.062.133.14v4.242c0 .152.132.276.285.276h.906a.277.277 0 00.279-.277v-4.242a.14.14 0 01.14-.14h2.125c.154 0 .265-.123.265-.276zM27.656 27.88l.769-1.12c.035-.052.11-.052.145-.002l.778 1.113c.037.05 0 .129-.062.129h-1.571c-.058 0-.093-.073-.06-.12zm1.692-2.445c-.207-.289-.48-.435-.814-.435-.328 0-.6.15-.807.444l-3.703 5.341c-.067.097.013.215.123.215h1.455c.046 0 .09-.024.115-.063l.93-1.428a.11.11 0 01.093-.05h3.57a.11.11 0 01.091.049l.951 1.43a.136.136 0 00.114.062h1.397c.1 0 .17-.13.114-.213l-3.63-5.352zM40.325 25h-1.11c-.117 0-.211.105-.211.223v3.45a.077.077 0 01-.128.059l-3.805-3.383c-.261-.229-.545-.345-.845-.345-.264 0-.708.109-.708.836v4.94c0 .117.095.22.21.22h1.063a.218.218 0 00.212-.22V27.3c0-.066.078-.102.128-.058l3.893 3.433c.24.215.5.324.775.324.276 0 .738-.114.738-.875v-4.901c0-.118-.095-.223-.212-.223zM42.364 25h-1.229a.136.136 0 00-.135.137v5.726c0 .075.06.137.135.137h1.23a.137.137 0 00.135-.137v-5.726a.137.137 0 00-.136-.137zM48.897 27.506c.057.047.14.047.196 0l2.82-2.262a.14.14 0 00.052-.13.14.14 0 00-.139-.114h-1.703a.147.147 0 00-.09.032l-1.98 1.558a.143.143 0 000 .223l.844.694zM48.887 28.496a.155.155 0 01.196 0l2.861 2.257a.14.14 0 01.053.13.14.14 0 01-.139.114h-1.703a.146.146 0 01-.09-.032l-1.967-1.581a.143.143 0 010-.224l.79-.664z" fill="#fff"/></svg>