<!-- by TradingView --><svg xmlns="http://www.w3.org/2000/svg" width="56" height="56" viewBox="0 0 56 56"><path fill="#F0F3FA" d="M0 0h56v56H0z"/><path d="M39.87 16.1a.81.81 0 1 1 1.63 0 .81.81 0 0 1-1.63 0z" fill="#BABABA"/><path fill-rule="evenodd" d="M38.29 15.98c-.25 0-.47.2-.47.48 0 .28.22.48.47.48.24 0 .47-.2.47-.48a.48.48 0 0 0-.47-.48zm0-.57a1.06 1.06 0 1 0 0 2.11 1.06 1.06 0 0 0 0-2.11zM22.56 41.84c-.25 0-.47.2-.47.48 0 .28.22.48.47.48.24 0 .47-.2.47-.48a.48.48 0 0 0-.47-.48zm0-.58a1.06 1.06 0 1 0 0 2.12 1.06 1.06 0 0 0 0-2.12zM31.32 16.76c-.62 0-1.14.5-1.14 1.15 0 .65.52 1.15 1.14 1.15.62 0 1.14-.5 1.14-1.15 0-.65-.52-1.15-1.14-1.15zm0-.57a1.73 1.73 0 1 0 0 3.45 1.73 1.73 0 0 0 0-3.45zM19.59 34.18c-.62 0-1.14.5-1.14 1.15 0 .65.52 1.15 1.14 1.15.62 0 1.14-.5 1.14-1.15 0-.65-.52-1.15-1.14-1.15zm0-.57a1.73 1.73 0 1 0 0 3.45 1.73 1.73 0 0 0 0-3.45zM19.8 28.58a1.61 1.61 0 1 0 0 3.24c.88 0 1.61-.72 1.61-1.63 0-.9-.73-1.61-1.6-1.61zm0-.58a2.2 2.2 0 1 0 0 4.4 2.2 2.2 0 0 0 0-4.4zM23 22.54A2.45 2.45 0 0 0 20.56 25c0 1.37 1.1 2.46 2.44 2.46A2.45 2.45 0 0 0 25.44 25c0-1.37-1.1-2.46-2.44-2.46zm0-.54a3 3 0 1 0 0 6 3 3 0 0 0 0-6zM26.8 18.47c-.88 0-1.61.72-1.61 1.63 0 .9.73 1.62 1.61 1.62.88 0 1.61-.71 1.61-1.62 0-.91-.73-1.63-1.61-1.63zm0-.57a2.2 2.2 0 1 0 0 4.4 2.2 2.2 0 0 0 0-4.4z" fill="#BABABA"/><path d="M23.15 44.19a.81.81 0 1 1 1.63 0 .81.81 0 0 1-1.63 0z" fill="#BABABA"/><path d="M32.03 12.59a.8.8 0 0 0 .82-.8.8.8 0 0 0-.82-.79.8.8 0 0 0-.81.8c0 .43.36.79.81.79zm1.41 2.06c.59 0 1.06-.46 1.06-1.03 0-.57-.47-1.03-1.06-1.03-.58 0-1.06.46-1.06 1.03 0 .57.48 1.03 1.06 1.03zM18.77 38.87c0 .56-.47 1.03-1.06 1.03-.58 0-1.05-.47-1.05-1.03 0-.57.47-1.04 1.05-1.04.59 0 1.06.47 1.06 1.04zm-2.64.35a.8.8 0 0 1-.82.8.8.8 0 0 1-.81-.8c0-.44.36-.8.81-.8a.8.8 0 0 1 .82.8zM36.4 16.71c0 .78-.65 1.41-1.45 1.41-.8 0-1.46-.63-1.46-1.41 0-.78.65-1.42 1.46-1.42.8 0 1.45.64 1.45 1.42zM21.06 40c.8 0 1.45-.63 1.45-1.41 0-.78-.65-1.42-1.45-1.42-.8 0-1.46.64-1.46 1.42 0 .78.65 1.41 1.46 1.41zm5.35-2.56a1.7 1.7 0 0 1-1.73 1.68 1.7 1.7 0 0 1-1.73-1.68c0-.93.78-1.69 1.73-1.69.96 0 1.73.76 1.73 1.69zm10-15.33a1.7 1.7 0 0 0 1.73-1.68 1.7 1.7 0 0 0-1.73-1.68 1.7 1.7 0 0 0-1.73 1.68c0 .93.78 1.68 1.73 1.68zm1.73 3.34c0 1.18-.98 2.14-2.2 2.14-1.21 0-2.2-.96-2.2-2.14 0-1.19.99-2.14 2.2-2.14 1.22 0 2.2.95 2.2 2.14zM33 34a3 3 0 1 0 0-6 3 3 0 0 0 0 6zm-2.05 1.3c0 1.2-.99 2.15-2.2 2.15-1.21 0-2.2-.96-2.2-2.14 0-1.18.99-2.14 2.2-2.14 1.21 0 2.2.96 2.2 2.14z" fill="#4AAFE9"/></svg>