<!-- by TradingView --><svg width="56" height="56" viewBox="0 0 56 56" xmlns="http://www.w3.org/2000/svg"><path fill="#F0F3FA" d="M0 0h56v56H0z"/><path d="M29.8 18.03c-5.28 0-7.4 6.26-7.8 9.38.51-1.64 2.3-4.69 5.4-4.69 4.2 0 6.6 5.28 6.6 9.38 0 3.29-2.2 8.4-3.6 10.56 9-.6 9.6-9.38 9.6-14.07 0-5.28-3.6-10.56-10.2-10.56Z" fill="url(#ao2sewjtp)"/><path d="M22.95 30.93C19.58 24.77 20.8 15.3 22.37 11c-6.47 1.76-7.06 14.66-5.88 19.34C17.66 35.04 22.37 45 30.59 45 37.18 45 40 35.62 40 30.93c-1.18 3.52-3.98 7.62-7.8 7.62-2.4 0-5.4-.58-9.25-7.62Z" fill="#389FC2"/><defs><linearGradient id="ao2sewjtp" x1="31.3" y1="18.03" x2="31.3" y2="42.66" gradientUnits="userSpaceOnUse"><stop stop-color="#389FC2"/><stop offset="1" stop-color="#C4E2ED"/></linearGradient></defs></svg>