<!-- by TradingView --><svg width="56" height="56" viewBox="0 0 56 56" xmlns="http://www.w3.org/2000/svg"><path fill="url(#ajekx1goo)" d="M0 0h56v56H0z"/><circle cx="18.5" cy="37.5" r="5.5" fill="url(#bjekx1goo)"/><circle cx="38" cy="17" r="4" fill="url(#cjekx1goo)"/><path d="M23.6 25.84c-1.21-1.15-3.1-1.15-4.77-1.15a4.84 4.84 0 1 1 4.84-4.84c0 1.5.1 3.19 1.2 4.22l5.98 5.66c1.58 1.5 4.07 1.42 6.24 1.42a5.92 5.92 0 1 1-5.9 5.93c0-1.96-.1-4.17-1.52-5.51l-6.07-5.73Z" fill="url(#djekx1goo)"/><defs><linearGradient id="ajekx1goo" x1="10.42" y1="9.71" x2="68.15" y2="76.02" gradientUnits="userSpaceOnUse"><stop stop-color="#1A1E21"/><stop offset="1" stop-color="#06060A"/></linearGradient><linearGradient id="bjekx1goo" x1="21.8" y1="34.2" x2="14.1" y2="40.8" gradientUnits="userSpaceOnUse"><stop stop-color="#428EFE"/><stop offset="1" stop-color="#2E52FD"/></linearGradient><linearGradient id="cjekx1goo" x1="40.4" y1="14.6" x2="34.8" y2="19.4" gradientUnits="userSpaceOnUse"><stop stop-color="#96FA9A"/><stop offset="1" stop-color="#7DF8CF"/></linearGradient><linearGradient id="djekx1goo" x1="23.13" y1="18.77" x2="18.28" y2="24.68" gradientUnits="userSpaceOnUse"><stop stop-color="#80F6D4"/><stop offset="1" stop-color="#64DBF9"/></linearGradient></defs></svg>