<!-- by TradingView --><svg xmlns="http://www.w3.org/2000/svg" width="56" height="56" viewBox="0 0 56 56"><path fill="#F0F3FA" d="M0 0h56v56H0z"/><path d="M27.94 41C13 41 8.42 28.19 8 21.78c2.33-2.34 9.64-3.73 19.94 4.83 8.25 6.86 13.95 7.42 15.78 6.85C39.05 39.43 33.74 41 27.94 41z" fill="#80C3B2"/><path d="M28.06 41C43 41 47.58 28.19 48 21.78c-2.33-2.34-9.64-3.73-19.94 4.83-8.25 6.86-13.95 7.42-15.78 6.85C16.95 39.43 22.48 41 28.06 41z" fill="#7AB0D6"/><path d="M28 41c-.88 0-1.76-.04-2.63-.13a20.2 20.2 0 0 1-4.45-.98 18.67 18.67 0 0 1-8.64-6.43c1.82.57 7.5 0 15.72-6.8 8.21 6.8 13.9 7.37 15.72 6.8a20.15 20.15 0 0 1-5.56 5.03 19.43 19.43 0 0 1-8.88 2.48c-.42.02-.85.03-1.28.03z" fill="#3B8898"/></svg>