<!-- by TradingView --><svg width="56" height="56" viewBox="0 0 56 56" xmlns="http://www.w3.org/2000/svg"><path fill="#F0F3FA" d="M0 0h56v56H0z"/><path d="M46 28a18 18 0 1 1-36 0 18 18 0 0 1 36 0Z" fill="#58819E"/><path d="M43 28a15 15 0 1 1-30 0 15 15 0 0 1 30 0Z" fill="#E4EDF4"/><path fill-rule="evenodd" d="M28 42.02a14.02 14.02 0 1 0 0-28.04 14.02 14.02 0 0 0 0 28.04Zm0 .98a15 15 0 1 0 0-30 15 15 0 0 0 0 30Z" fill="#05B1F0"/><path d="M18 18h20v20H18V18Z" fill="#AACCDE"/><path d="M20 20h16v16H20V20Z" fill="#85B6CF"/><path d="M22 22h12v12H22V22Z" fill="#A4C9DC"/><path d="M24 24h8v8h-8v-8Z" fill="#C9DFEA"/><path d="M26 26h4v4h-4v-4Z" fill="#F6F9FB"/></svg>