<!-- by TradingView --><svg width="56" height="56" xmlns="http://www.w3.org/2000/svg"><path fill="#236092" d="M0 0h56v56H0z"/><path d="M5 31.997V26h1l4 4.274V26h1v5.997h-1L6 27.68v4.317H5z" fill="#fff"/><path fill-rule="evenodd" d="M15.606 26c1.128-.003 3.386.572 3.394 2.901.008 2.33-1.863 3.099-3.394 3.099C14.377 32 12 31.505 12 28.901 12 26.44 14.397 26 15.606 26zm-.03 1.002c.805-.002 2.418.38 2.424 1.933.006 1.552-1.331 2.065-2.425 2.065-.877 0-2.575-.33-2.575-2.065 0-1.64 1.712-1.933 2.575-1.933z" fill="#fff"/><path d="M22 32l-3-6h1l2.5 5 2.503-5H26l-3 6h-1zm12 0l-3-6h1l2.5 5 2.503-5H38l-3 6h-1z" fill="#fff"/><path fill-rule="evenodd" d="M28 26l-3 6h1.075l.534-1h3.76l.574 1H32l-3-6h-1zm.508.986L27.007 30h2.977l-1.476-3.014zM40 26l-3 6h1.12l.539-1h3.455l.518 1h2.167l1.701-2.5 3.223 4.5H51l-3.5-5 2-3h-1.24l-1.76 2.5-1.701-2.5h-1.173l1.874 3-1.874 2.803L41 26h-1zm.5 1l-1.408 3h2.67L40.5 27z" fill="#fff"/></svg>