<!-- by TradingView --><svg width="56" height="56" xmlns="http://www.w3.org/2000/svg"><path fill="#F0F3FA" d="M0 0h56v56H0z"/><path d="M4 32v-7l2.01-.003v.81c1.257-1.608 3.635-.561 3.99 1.19V32H7.997v-3.32c0-.676-.068-1.726-.995-1.683-.981-.075-.992 1.131-.992 1.81V32H4zM13.69 25c1.887 0 3.297 1.657 3.297 3.505 0 1.806-1.402 3.495-3.285 3.495-1.864 0-3.283-1.693-3.283-3.508 0-1.784 1.409-3.492 3.27-3.492zm.011 5.455c2.24 0 2.398-3.913.035-3.913-2.245 0-2.433 3.913-.035 3.913zM19 32l-3-7h2l2 5 2-5h2l-3 7h-2zM39.001 25H41v7h-1.999v-.912c-.347.623-.985.912-1.693.912C35.62 32 35 30.325 35 28.922V25h2v3.443c0 .733-.049 1.565.922 1.565 1.002 0 1.08-.738 1.08-1.565V25zM42 32v-7h1.998v.81C44.422 25.156 45.28 25 46 25v1.706c-1.288.053-2.002.397-2.002 1.71V32H42z" fill="#5EB3E4"/><path d="M51.916 29.2H47.12c.445 1.233 2.084 1.788 3.024.8h1.641c-.452 1.16-1.778 2-2.998 2-2.617 0-3.953-3.096-2.797-5.238.56-1.038 1.625-1.762 2.82-1.762 1.81 0 3.19 1.681 3.19 3.415 0 .263-.045.526-.084.785zm-4.82-1.403h3.405c-.537-1.555-2.83-1.646-3.404 0z" fill="#5EB3E4"/><path d="M26.396 25c1.23 0 2.37.66 2.971 1.734C30.628 28.982 29.054 32 26.408 32 24.526 32 23 30.362 23 28.492 23 26.655 24.517 25 26.396 25zm.012 5.455c2.427 0 2.43-3.913.037-3.913-2.479 0-2.392 3.913-.037 3.913z" fill="#757CBB"/><path d="M33.272 29.645H35C34.5 31.002 33.298 32 31.824 32c-1.896 0-3.432-1.63-3.432-3.52 0-1.87 1.52-3.48 3.396-3.48 1.51 0 2.761.994 3.212 2.392h-1.728c-.373-.604-.794-.85-1.472-.85-1.104 0-1.864.874-1.864 1.938 0 1.073.79 1.975 1.888 1.975.606 0 1.088-.27 1.448-.81z" fill="#757CBB"/><path d="M29.125 27.145s-.86 1.076-.05 2.437c.805-1.525.05-2.437.05-2.437z" stroke="#00385F"/></svg>