<!-- by TradingView --><svg width="56" height="56" xmlns="http://www.w3.org/2000/svg"><path fill="#0063A6" d="M0 0h56v56H0z"/><path d="M14 31.84c.773-.014.946-.08.946-.533v-4.4c0-.399-.173-.666-.946-.679V26h2.064v5.308c0 .452.098.518.936.532V32h-3v-.16zm3.63 0c.771-.014.97-.08.97-.533v-4.416c0-.399-.163-.665-.934-.679V26h2.026v1.297c.492-.891 1.112-1.297 1.777-1.297.679 0 .977.413.962.869a.717.717 0 01-.66.677c-.41.032-.754-.215-.754-.668 0-.107.026-.253.067-.346-.6.093-.927.353-1.365 1.085v3.69c0 .453.265.52 1.117.533V32H17.63v-.16zM24 28.349h3c0-1.303-.396-2.137-1.5-2.137-.851 0-1.5.846-1.5 2.137zm-.998.711c0-1.822.969-3.06 2.498-3.06 1.743 0 2.606 1.098 2.5 2.561h-4v.386c0 1.681.542 2.534 1.979 2.534.864 0 1.344-.439 1.902-1.157l.147.106c-.493.825-1.198 1.57-2.542 1.57-1.716 0-2.484-1.183-2.484-2.94zM43 29c0-2.195-.936-2.766-2-2.766-.948 0-2 .571-2 2.766 0 2.196.935 2.764 2 2.764 1.037 0 2-.568 2-2.764zm-5 .026C38 27.178 39.443 26 41 26c1.61 0 3 1.125 3 2.974C44 30.836 42.543 32 41 32c-1.636 0-3-1.111-3-2.974zm7 2.819c.779-.014 1-.078 1-.518v-4.422c0-.387-.221-.646-1-.66V26h2v1.504c.617-.982 1.487-1.504 2.399-1.504.993 0 1.601.582 1.601 1.746v3.581c0 .44.209.504 1 .518V32h-3v-.155c.684-.014 1-.078 1-.518v-3.232c0-1.034-.4-1.538-1.285-1.538-.657 0-1.34.504-1.715 1.28v3.49c0 .44.33.504 1 .518V32h-3v-.155zm-10 0c.747-.014 1-.083 1-.525v-4.449c0-.39-.253-.65-1-.663V26h2v5.32c0 .442.189.507 1 .52V32h-3v-.155zm-27.29-.103c2.91 0 3.29-1.437 3.29-4.313 0-2.877-.698-4.17-3.198-4.17H7v8.483h.71zm-3.71.09c.768 0 1-.361 1-.93v-6.817c0-.556-.275-.93-1-.93V23h4.001C11.258 23 13 24.899 13 27.352 13 29.702 11.47 32 8.135 32H4v-.168z" fill="#fff"/><path d="M16.123 24.099a.725.725 0 11-1.45 0 .725.725 0 011.45 0zm20.537-.666l-.025-.008c-.028-.01-.055-.02-.084-.025-.304-.077-.66-.019-.989.147-1.679.844-3.45 3.77-3.95 4.639L30.524 26h-2.063l.01.158c.688.013.977.048 1.54 1.158l.96 1.982c-.474.898-2.423 4.418-4.216 4.893v-.003a.78.78 0 00-.764-.795.78.78 0 00-.783.777.784.784 0 00.507.744l.006.002c.035.013.07.025.108.033.317.079.7.018 1.039-.153 1.925-.968 4.034-4.726 4.27-5.154L32.32 32h2.081l.003-.15c-.768.01-.988-.087-1.497-1.149l-1.126-2.177c.664-1.213 2.322-3.98 3.87-4.391v.003a.755.755 0 00.74.77.755.755 0 00.759-.752.757.757 0 00-.491-.72z" fill="#fff"/></svg>