<!-- by TradingView --><svg xmlns="http://www.w3.org/2000/svg" width="56" height="56" viewBox="0 0 56 56"><path fill="#045A92" d="M0 0h56v56H0z"/><path d="M24.5 18s1.98 13.36 3 20h2l3-20h-2l-2 14-2-14h-2ZM44 34.39V28.53c0-.84-.7-1.53-1.53-1.53H39v-9h7v2h-5v5c1.3 0 2.84 0 3.9.88.9.7 1.1 1.9 1.1 2.59v6.07A3.3 3.3 0 0 1 42.58 38C40.4 38 39 36.44 39 34.39V33h2v1.3c0 1.32.77 1.7 1.5 1.7.7 0 1.5-.43 1.5-1.61ZM21 38V18h.5v20H21ZM35.5 38V18h.5v20h-.5ZM18 18v20h-2l-3-12v12h-2V18h2l3 13V18h2Z" fill="#fff"/></svg>