<!-- by TradingView --><svg xmlns="http://www.w3.org/2000/svg" width="56" height="56" viewBox="0 0 56 56"><path fill="url(#a11gtqkn5)" d="M0 0h56v56H0z"/><path fill-rule="evenodd" d="M49 20.5a1.5 1.5 0 1 1-3 0 1.5 1.5 0 0 1 3 0zm0 2.5v10h-3V23h3zM6 23v10h3v-5.29c0-1.02.72-1.84 1.67-1.84h.25c.72 0 1.08.62 1.08 1.38V33h3v-7.13c0-1.8-1.14-2.87-2.79-2.87-1.66 0-2.79.98-3.43 1.54l-.1.08.32-.37V23H6zm19 10V23h-3v5.29c0 1.02-.72 1.84-1.67 1.84h-.25c-.72 0-1.08-.62-1.08-1.38V23h-3v7.13c0 1.8 1.14 2.87 2.79 2.87 1.66 0 2.79-.98 3.43-1.54l.1-.08-.32.37V33h3zm1-10v1.69L29.06 33h3.26L36 23h-3.18l-2.04 5.79.07.75L28.57 23H26zm12.05 5.67l.35.33H45v-1.13A4.94 4.94 0 0 0 40 23c-2.76 0-5 2.18-5 4.87V28c0 2.76 2.3 5 5.13 5h.23a8.52 8.52 0 0 0 3.95-1.4l-1.45-1.86-.08.08a2.8 2.8 0 0 1-1.93.76h-.84a1.94 1.94 0 0 1-1.96-1.91zM38 27h4l-.01-.04A2.01 2.01 0 0 0 40 25.5c-.97 0-1.8.63-2 1.5z" fill="#fff"/><defs><linearGradient id="a11gtqkn5" x1="28" y1="0" x2="28" y2="56" gradientUnits="userSpaceOnUse"><stop stop-color="#18A08E"/><stop offset=".51" stop-color="#4EBAAB"/><stop offset="1" stop-color="#139E8C"/></linearGradient></defs></svg>