<!-- by TradingView --><svg width="56" height="56" viewBox="0 0 56 56" fill="none" xmlns="http://www.w3.org/2000/svg">
<rect width="56" height="56" fill="#F0F3FA"/>
<path fill-rule="evenodd" clip-rule="evenodd" d="M13 30V14H16V15.819L16.1226 15.7105C16.3221 15.1404 16.9605 14 17.9181 14C19.1152 14 19.9999 14.8947 19.9999 17.0526V30H17V17.1842C17 16.9517 16.7689 16.7632 16.539 16.7632C16.3106 16.7632 16.0043 16.949 16 17.1793V30H13ZM24.5 14C22.567 14 21 15.6077 21 17.5909V26.4091C21 28.3923 22.567 30 24.5 30C26.433 30 28 28.3923 28 26.4091V17.5909C28 15.6077 26.433 14 24.5 14ZM24.5 17C24.2239 17 24 17.2454 24 17.5482V26.4518C24 26.7546 24.2239 27 24.5 27C24.7761 27 25 26.7546 25 26.4518V17.5482C25 17.2454 24.7761 17 24.5 17ZM28.2745 14L29.8261 30H33.8673L35.2745 14H32.6044L31.7745 25.6296L31.0529 14H28.2745ZM39 20.0183H36V17.4128C36 15.528 37.5784 14 39.5073 14C41.4363 14 43 15.528 43 17.4128V30H40V28.4954C39.8736 28.9969 39.5144 30 38.3562 30C36.9084 30 36 28.9393 36 27.2778V23.9221C35.922 23.4286 36.134 22.2475 37.5481 21.4711C37.7448 21.3631 37.9282 21.2648 38.0986 21.1735L38.0993 21.1731L38.0994 21.173C39.4598 20.4441 40 20.1546 40 18.8391V16.9835C40 16.7092 39.8457 16.4868 39.565 16.4868C39.2842 16.4868 39 16.7092 39 16.9835V20.0183ZM40 22.3303V26.8051C40 27.0952 39.7762 27.3303 39.5 27.3303C39.2239 27.3303 39 27.0952 39 26.8051V24.6132C39.0223 24.1137 39.2534 22.9578 40 22.3303ZM13 39V31H43V39H13ZM15 38V32H15.6275V37.46H17V38H15ZM37 38V32H37.6275V37.46H39V38H37ZM18.5322 32H18.0135V38H18.5322V32ZM20 32H20.5598H22V32.52H20.5598V34.7401H21.7004V35.2601H20.5598V38H20V35.2601V34.7401V32.52V32ZM28.4483 32H30H30.5H32.1009V32.52H30.5V38H30V32.52H28.4483V32ZM32.8479 32L32.5281 32.4665C32.9584 32.9979 33.8546 34.343 33.9968 35.473V38H34.5061V35.473C34.5969 34.8553 35.0841 33.3892 36.3064 32.4665L35.88 32C35.5247 32.3413 34.7074 33.3348 34.281 34.5788C34.0821 33.5214 33.2427 32.419 32.8479 32ZM23 32H23.5598H25V32.52H23.5598V34.7401H24.7004V35.2601H23.5598V37.4801H25V38.0001H23V38V37.4801V35.2601V34.7401V32.52V32ZM40.5598 32H40V32.52V34.7401V35.2601V37.4801V38V38.0001H42V37.4801H40.5598V35.2601H41.7004V34.7401H40.5598V32.52H42V32H40.5598ZM26.1505 37.4627L26.4894 38C27.0228 37.7214 28.0897 36.9239 28.0897 35.9627C28.0897 35.3076 27.6392 34.9679 27.2294 34.659C26.8876 34.4013 26.5741 34.165 26.5741 33.7849C26.5741 33.3073 27.4505 32.6518 27.859 32.4403L27.4193 32C26.9435 32.2736 25.9919 33.0508 25.9919 33.9702C25.9919 34.5725 26.384 34.8431 26.7571 35.1007C27.096 35.3346 27.4193 35.5578 27.4193 36.0089C27.4193 36.6656 26.5999 37.3035 26.1505 37.4627Z" fill="#686868"/>
<path d="M13 43.665C13 43.9493 13.238 44.0064 13.357 43.9995C14.7253 43.219 18.176 41.6582 21.0318 41.6582C28.072 41.6582 26.1483 43.6023 33.129 43.6023C40.1097 43.6023 43.2431 39.6932 42.9853 39.2124C42.7791 38.8277 42.2912 39.0521 42.0731 39.2124C41.2798 39.9371 38.7969 41.3864 35.2114 41.3864C30.7294 41.3864 27.2787 39.3378 23.3521 39.3378C19.4254 39.3378 15.2211 41.3864 14.3089 41.9926C13.3966 42.5989 13 43.3096 13 43.665Z" fill="#E32728"/>
</svg>
