<!-- by TradingView --><svg xmlns="http://www.w3.org/2000/svg" width="56" height="56" viewBox="0 0 56 56"><path fill="#F0F3FA" d="M0 0h56v56H0z"/><path d="M8 25.8V33H6V23h1.46L16 30.1V23h2v10h-1.25L8 25.8Z" fill="#071866"/><path fill-rule="evenodd" d="M24.5 33a5 5 0 1 0 0-10 5 5 0 0 0 0 10Zm0-2a3 3 0 1 0 0-6 3 3 0 0 0 0 6Z" fill="#071866"/><path d="M42.33 23 33 30.47V23h-2v10h2l12.52-10h-3.19ZM36.71 33l11.7-10H50v10l-2-1v-6.08L39.87 33H36.7Z" fill="#071866"/><path d="M42.6 26a6.94 6.94 0 0 0 3.53 4.11c1.36.71 2.7.92 3.87.75V33c-1.47 0-3.16-.15-4.72-.96A9.25 9.25 0 0 1 41 27.42L42.6 26Z" fill="url(#apjo2z1su)"/><defs><linearGradient id="apjo2z1su" x1="41.67" y1="27.14" x2="49.81" y2="31.35" gradientUnits="userSpaceOnUse"><stop stop-color="#A30B9E"/><stop offset="1" stop-color="#720DFD"/></linearGradient></defs></svg>