<!-- by TradingView --><svg xmlns="http://www.w3.org/2000/svg" width="56" height="56" viewBox="0 0 56 56"><path fill="#F0F3FA" d="M0 0h56v56H0z"/><path d="M21.99 37l-4.2-7.33 4.49-8a11.04 11.04 0 0 1 9.6-5.67h1.81L22 37z" fill="#7E57C6"/><path d="M16.91 28.42L10 16l3.72.01c4.64 0 7.58 4.6 5.34 8.6l-2.15 3.81z" fill="#60269E"/><path d="M34.3 43l-4.21-7.33 4.5-8a11.04 11.04 0 0 1 9.6-5.67H46L34.3 43z" fill="#FC671A"/><path d="M29.22 34.28L22.3 22h3.72c4.64 0 7.58 4.48 5.33 8.47l-2.14 3.81z" fill="#FC7F3F"/><path d="M29.72 23.13l-3.37 6.05L22.3 22h3.72c1.42 0 2.69.42 3.7 1.13z" fill="#60269E"/></svg>