<!-- by TradingView --><svg width="56" height="56" viewBox="0 0 56 56" xmlns="http://www.w3.org/2000/svg"><path fill="#F0F3FA" d="M0 0h56v56H0z"/><path fill-rule="evenodd" d="M27.6 12h-2.04c.24.44.43.9.56 1.36.18.65.28 2.26-.74 2.34a.8.8 0 0 1-.74-.34c-.69-.92-.72-1.95-.58-3.08 0-.03-.01-.04-.04-.04l-.29.06c-.54.16-1.05.32-1.54.5-.02 0-.03.02-.02.04 1.6 3.8 2.91 7.66 3.86 11.68.02.09.01.1-.03.02a128.14 128.14 0 0 1-4.2-11.52c-.02-.04-.04-.05-.07-.04-.66.28-1.32.6-1.96.97-.04.03-.05.06 0 .1.73.64 1.37 1.5 1.46 2.47.07.71-.55 1.24-1.22.9-.87-.47-1.38-1.53-1.62-2.49a.04.04 0 0 0-.02-.03.04.04 0 0 0-.05 0 16.96 16.96 0 0 0-1.3 1.08c-.03.02-.03.05 0 .07a71.46 71.46 0 0 1 7.48 9.5h-.02a124.76 124.76 0 0 1-7.8-9.2c-.01-.03-.03-.03-.05-.01-.45.44-.87.9-1.27 1.38-.02.03-.02.05.02.07l.43.22c.62.33 1.48 1.1 1.58 1.84.06.46-.24.9-.74.93-.13 0-.26-.01-.38-.04-.78-.2-1.47-.8-1.96-1.47-.02-.03-.04-.03-.06 0-.29.44-.56.92-.8 1.41-.02.03-.02.05.01.06a72.53 72.53 0 0 1 9.9 6.2v.01A124.44 124.44 0 0 1 13.2 21.2h-.03v.03l-.6 1.48a.06.06 0 0 0 .02.07l.03.01c.66.09 1.25.34 1.76.75.49.39.69 1.04.12 1.47-.24.18-.6.2-.9.18a3.48 3.48 0 0 1-1.51-.45c-.03-.02-.04-.01-.05.02l-.05.13v1.32a74.1 74.1 0 0 1 10.65 2.37c.12.03.12.05 0 .04h-.05a4.3 4.3 0 0 1-.5-.05c-.29-.06-.6-.1-.9-.14l-.52-.07c-2.9-.43-5.8-.97-8.68-1.6v.85c.52.02 1 .14 1.44.34.45.21.8.68.57 1.18-.32.68-1.4.7-2.01.65v.76c2.08.16 3.84.33 5.28.5.53.07 1.33.2 2.4.4 1.05.2 2.1.4 3.17.63a.1.1 0 0 1 .07.05 6.49 6.49 0 0 0 2.55 2.28c.7.37 1.5.8 1.72 1.6.1.35.15.72.18 1.1a19.04 19.04 0 0 1-.51 6.03c-.06.23-.16.52-.31.88h.27c.25-.57.43-1.17.52-1.8.16-1.03.27-2.06.31-3.1.04-.92 0-1.83-.1-2.74a4.15 4.15 0 0 0-.18-.65c-.23-.75-1-1.17-1.69-1.54l-.44-.25a6.45 6.45 0 0 1-1.9-1.7c-.03-.04-.02-.06.04-.05l4.57.98a.2.2 0 0 0 .08 0l4.25-.8c.05-.02.06 0 .04.05-.64 1.12-1.96 1.82-3.08 2.41l-.03.02c-.47.25-.78.59-.93 1.1-.14.48-.21 1-.22 1.56a26.7 26.7 0 0 0 .27 4c.12.88.32 1.74.74 2.51h.36a4.78 4.78 0 0 1-.6-1.44l-.07-.26c-.07-.27-.13-.54-.17-.8a22.3 22.3 0 0 1-.26-2.53c-.02-.64-.01-1.3.04-1.94.05-.53.2-1.13.46-1.55.11-.19.31-.35.59-.5 1.13-.6 2.66-1.45 3.16-2.65a.08.08 0 0 1 .06-.04l.3-.07c2.12-.4 4.24-.79 6.36-1.16a44.38 44.38 0 0 1 4.6-.55l.09-.75c0-.01 0-.02-.02-.02-.6.1-1.14.05-1.63-.14a.88.88 0 0 1-.59-.58c-.15-.52.24-.92.68-1.11.5-.22 1.03-.32 1.57-.3v-.88a75.12 75.12 0 0 1-11.02 1.67v-.04l.01-.01A128.16 128.16 0 0 1 44 26.19v-.07l-.22-1.38a.04.04 0 0 0-.02-.02h-.03c-.63.34-1.39.55-2.06.43a.8.8 0 0 1-.64-.46c-.22-.48.08-.94.46-1.23a3.53 3.53 0 0 1 1.73-.69.06.06 0 0 0 .02-.06l-.58-1.46a.06.06 0 0 0-.1-.03 71.34 71.34 0 0 1-10.2 5.52l-.02-.02v-.02c3.2-2.1 6.54-4.08 10-5.91.05-.03.06-.07.03-.12-.24-.47-.5-.94-.8-1.38-.02-.05-.05-.05-.08 0a3.7 3.7 0 0 1-1.97 1.45c-.86.22-1.37-.54-.98-1.28a3.76 3.76 0 0 1 1.9-1.68l.02-.02a.05.05 0 0 0-.01-.04c-.37-.45-.77-.9-1.22-1.34-.02-.02-.04-.02-.06 0a71.22 71.22 0 0 1-8 9 123.59 123.59 0 0 1 7.69-9.33.06.06 0 0 0-.03-.05 18.12 18.12 0 0 0-1.39-1.11h-.01l-.01.02A4.05 4.05 0 0 1 36 17.28c-.2.15-.42.26-.68.24-.56-.05-.83-.54-.76-1.07a4.05 4.05 0 0 1 1.5-2.44.05.05 0 0 0 0-.04l-.02-.01a15.93 15.93 0 0 0-1.9-.93.04.04 0 0 0-.03.02 70.41 70.41 0 0 1-4.47 11.35c-.09.17-.1.17-.04-.02a124.2 124.2 0 0 1 4.13-11.52.05.05 0 0 0-.03-.03c-.62-.23-1.27-.43-1.93-.6-.03 0-.04 0-.04.04a4.2 4.2 0 0 1-.47 2.96c-.27.41-.62.55-1.05.43-.77-.22-.7-1.65-.57-2.18.12-.47.31-.96.6-1.48h-2.22a73.39 73.39 0 0 1-.28 12.23l-.01-.02-.07-1.27-.1-2.02c-.07-2.97-.07-5.95.02-8.92Zm1.63 6.2a12.55 12.55 0 0 1 .89-1.54v.01c.12.42.21.87.29 1.34.12.7.1 1.43-.34 2.04-.08.12-.2.2-.33.23-.36.07-.61-.14-.7-.48a2.35 2.35 0 0 1 .19-1.6Zm-2.7-.12c.28.56.36 1.13.23 1.7-.04.21-.16.43-.38.49-.26.07-.5 0-.66-.23a2.57 2.57 0 0 1-.35-1.87c.07-.49.17-.98.3-1.46.01-.05.03-.06.06-.01.29.44.55.9.8 1.38Zm-4.9 1.7c.14.6.4 1.14.87 1.52.46.38 1.06.14 1-.5a2.45 2.45 0 0 0-.76-1.45 11.6 11.6 0 0 0-1.31-1.11c-.03-.03-.05-.02-.04.02.05.5.13 1.02.24 1.52Zm10.68 1c.05-.6.43-1.15.87-1.55a15.09 15.09 0 0 1 1.22-1l.01.02v.02c-.05.54-.13 1.07-.25 1.58a2.52 2.52 0 0 1-.93 1.5c-.24.18-.6.19-.79-.04a.7.7 0 0 1-.13-.52Zm-11.48 2c-.35-.65-.91-1-1.58-1.27-.38-.15-.77-.29-1.15-.41-.08-.03-.1 0-.07.07.22.45.45.87.7 1.28.35.57 1 1.23 1.68 1.23.48-.01.61-.53.42-.9Zm15.34-1.1c.49-.22 1-.42 1.56-.59.06-.01.08 0 .05.06-.22.46-.46.9-.71 1.3-.34.55-1.02 1.27-1.71 1.22-.46-.03-.57-.52-.39-.88.25-.48.65-.84 1.2-1.1Zm-8.97 1.65a1.5 1.5 0 0 0-.07-.98 6.46 6.46 0 0 0-.65-1.08.02.02 0 0 0-.02.01c-.08.37-.14.74-.17 1.1-.02.32.04.62.19.92.11.23.34.37.59.21.07-.04.12-.1.13-.18Zm2.14-2.03c.1.41.16.81.17 1.2.01.3-.06.6-.21.86-.18.3-.64.3-.71-.1-.07-.4-.01-.77.18-1.11.17-.31.34-.6.52-.86.02-.04.04-.03.05.01Zm-4.2 2.66c.03-.72-.85-1.35-1.37-1.7a.02.02 0 0 0-.03.01v.01l.01.08c.1.68.25 1.67.93 1.94.24.1.46-.11.47-.34Zm5.72.33c-.5-.29.04-1.08.3-1.33a7.86 7.86 0 0 1 .88-.68 4.92 4.92 0 0 1-.26 1.26c-.1.27-.55.96-.92.75Zm-7.47.85c-.19-.3-.45-.52-.79-.67a6.88 6.88 0 0 0-1-.34c-.03-.01-.05 0-.03.03.17.36.37.7.6 1 .21.27.46.45.75.55.39.12.69-.2.47-.57Zm9.67-.6c.35-.18.75-.31 1.13-.41.05-.02.06 0 .04.04-.3.62-.69 1.32-1.35 1.54-.24.08-.55-.02-.53-.32.02-.35.41-.7.71-.85ZM19.23 26c-.01-.42-.64-.8-.97-.9a6.55 6.55 0 0 0-2.5-.2.02.02 0 0 0 0 .03 6.76 6.76 0 0 0 1.92 1.48c.41.18 1.56.4 1.55-.4Zm17.52-.39c.8-.84 2.2-.78 3.27-.72.03 0 .04.01.02.03-.49.5-.96.9-1.42 1.22-.4.27-.83.42-1.29.44a.96.96 0 0 1-.46-.07c-.36-.17-.38-.62-.12-.9Zm-14.4 1.69c.13-.5-.72-.75-1.05-.77a7.4 7.4 0 0 0-1.16.02v.02l.01.01.01.01c.51.47 1.18 1.1 1.93.96.14-.02.22-.1.26-.25Zm12.21.1c-.23.13-.75.27-1 .08-.23-.2-.12-.49.09-.64.25-.18.52-.28.82-.31a6.15 6.15 0 0 1 1.19.03c-.34.35-.7.63-1.1.85Zm-17.88 1.08c-.52.1-1.05.23-1.58.41-.04.01-.04.03 0 .05.43.24.87.47 1.32.67.59.26 1.31.38 1.94.15.29-.1.48-.48.31-.75a.92.92 0 0 0-.4-.37c-.48-.21-1-.27-1.59-.16Zm24 .47a6.6 6.6 0 0 1-2.17.91c-.35.06-.88.03-1.2-.18a.53.53 0 0 1-.13-.76c.42-.5 1.33-.55 1.95-.44.46.08.98.22 1.54.4.06.01.06.04 0 .07Zm-20.95.45.65.31c.4.19 1.26.43 1.59.04.15-.18.13-.35-.06-.5-.53-.44-1.47-.13-2.08.06l-.1.04c-.04 0-.04.03 0 .05Zm15.7.3c-.43.22-1.13.4-1.54.1-.24-.17-.18-.44.04-.58.59-.4 1.5-.09 2.12.12.06.02.06.05 0 .07l-.61.3Z" fill="#2A376C"/><path d="m12 30.85 1.98.19c1.98.19 3.94.52 5.88.99 1.07.26 2.07.6 3 1.04.8.37 1.54.92 2.22 1.64.47.5.78 1.1.95 1.79.24.98.33 1.92.28 2.8l-.12 1.34c-.04.3-.11.64-.19.94-.05.26-.17.55-.34.88-.28.53-.72.95-1.31 1.27a.16.16 0 0 1-.12 0l-.22-.05H24l-.01-.02v-.02H24c1.06-.43 1.58-1.22 1.8-2.27.32-1.53.34-3.02.05-4.47a3.76 3.76 0 0 0-.84-1.83 9.3 9.3 0 0 0-1.2-1.1 9.98 9.98 0 0 0-3.09-1.41 38.35 38.35 0 0 0-5.98-1.18c-.47-.06-.93-.08-1.38-.14-.43-.06-.85-.1-1.26-.1a.08.08 0 0 1-.06-.03A.23.23 0 0 1 12 31v-.15ZM30.88 34.4a13.14 13.14 0 0 1 4.23-1.98c1.27-.37 2.56-.66 3.88-.89a47.3 47.3 0 0 1 4.79-.58c.01 0 .02.01.02.03 0 .07-.01.13-.03.19 0 .02-.02.03-.04.03-.68.1-1.38.11-2.05.2-.42.07-.85.1-1.27.16-1.22.17-2.41.4-3.58.66-1.1.25-2.23.6-3.38 1.02a9.5 9.5 0 0 0-2.36 1.26 4.18 4.18 0 0 0-1.73 3.06 7.91 7.91 0 0 0 .47 3.94c.35.9.94 1.63 1.76 2.18.04.03.04.04-.01.05l-.28.06c-.05 0-.09 0-.13-.03a4.26 4.26 0 0 1-1.72-2.3 9.04 9.04 0 0 1-.3-4.13 4.3 4.3 0 0 1 1.73-2.93Z" fill="#2A376C"/><path d="M25.1 41.57c-.33.83-.9 1.43-1.72 1.8a.55.55 0 0 1-.42.02A16.3 16.3 0 0 1 12.18 31.8c-.01-.04 0-.06.04-.06 1.51.04 2.98.14 4.4.29 1.2.13 2.39.38 3.55.73 1.48.45 2.82 1.15 4 2.08.76.6 1.2 1.4 1.32 2.4.05.47.1.9.12 1.32.07.93-.1 1.93-.52 3ZM42.56 34.84a16.23 16.23 0 0 1-9.75 8.56.21.21 0 0 1-.16-.02 4.35 4.35 0 0 1-1.72-1.42 5.38 5.38 0 0 1-.93-2.28 5.97 5.97 0 0 1 .36-3.26c.31-.74.73-1.22 1.4-1.71a11.1 11.1 0 0 1 3.31-1.64 18.95 18.95 0 0 1 4.41-.81 214.99 214.99 0 0 1 4.12-.36.03.03 0 0 1 0 .03c-.25 1-.6 1.98-1.04 2.9Z" fill="#A52440"/></svg>