<!-- by TradingView --><svg xmlns="http://www.w3.org/2000/svg" width="56" height="56" viewBox="0 0 56 56"><path fill="#F0F3FA" d="M0 0h56v56H0z"/><circle cx="28" cy="28" r="17" fill="url(#afrealq4i)"/><ellipse cx="28.02" cy="28" rx="13.53" ry="14" fill="url(#bfrealq4i)"/><path d="M19.54 22.8c-2.61 4.72-2.13 11.52-1.35 15.42a14.85 14.85 0 0 1-3.97-10.19c0-2.54.63-4.93 1.71-7.01a17.68 17.68 0 0 0-4.5-1.27l.6-.95c2.84-.12 10 .43 15.97 3.54a33.9 33.9 0 0 1 9.7 7.6c1.37-3.13.43-9.25-.3-12.25a14.84 14.84 0 0 1 4.1 10.34c0 4.7-2.12 8.89-5.4 11.53l-.2.14c-5.25-8.79-11.34-14-16.36-16.9z" fill="#F0F3FA"/><defs><linearGradient id="afrealq4i" x1="20.76" y1="12.47" x2="33.47" y2="41.75" gradientUnits="userSpaceOnUse"><stop stop-color="#3E70AD"/><stop offset=".55" stop-color="#010F32"/></linearGradient><linearGradient id="bfrealq4i" x1="22.62" y1="15.76" x2="34.22" y2="37.57" gradientUnits="userSpaceOnUse"><stop stop-color="#6FA8C5"/><stop offset=".49" stop-color="#C4C4C4" stop-opacity="0"/></linearGradient></defs></svg>