<!-- by TradingView --><svg xmlns="http://www.w3.org/2000/svg" width="56" height="56" viewBox="0 0 56 56"><path fill="#484846" d="M0 0h56v56H0z"/><path d="M42 31h-2l1-1.6 1 1.6zM42 28l1.97 3H52v-6h-8.03L42 28z" fill="#5ABA5A"/><path fill-rule="evenodd" d="M4 31v-6h1.5l2 3.21V25H9v6H7.7l-2.2-3.38V31H4zm25 0h1.5v-3.36L32.7 31H34v-6h-1.5v3.23l-2-3.23H29v6zm10.9-6H38l2.06 3.19.94-1.49-1.1-1.7zm-14.59 6c1.49 0 2.69-.95 2.69-3 0-1.86-1.2-3-2.69-3-1.48 0-2.71 1.07-2.71 3s1.23 3 2.71 3zm0-1.36c.6 0 1.09-.72 1.09-1.6 0-.88-.48-1.6-1.09-1.6-.6 0-1.1.72-1.1 1.6 0 .88.5 1.6 1.1 1.6zM15.4 28c0 2.05-1.2 3-2.69 3-1.48 0-2.71-1.07-2.71-3s1.23-3 2.71-3c1.49 0 2.69 1.14 2.69 3zm-1.6.04c0 .88-.48 1.6-1.09 1.6-.6 0-1.1-.72-1.1-1.6 0-.88.5-1.6 1.1-1.6.6 0 1.09.72 1.09 1.6zM17.86 25H16l2.16 6h1.72L22 25h-1.9L19 29l-1.14-4zM37 25h-1.5v6H37v-6z" fill="#FCFDFB"/></svg>