<!-- by TradingView --><svg width="56" height="56" xmlns="http://www.w3.org/2000/svg"><path fill="#F0F3FA" d="M0 0h56v56H0z"/><path d="M13 38.035v-.198c.005.077.005.144 0 .198zM13 38.035v2.852c0 1.167.946 2.113 2.113 2.113h25.774A2.113 2.113 0 0043 40.887V15.113A2.113 2.113 0 0040.887 13h-1.69c-1.87.306-4.558.756-7.289 1.796-3.544 1.349-6.971 3.169-10.14 6.127-2.717 2.535-4.606 4.964-6.761 10.352-.606 1.514-1.373 3.802-2.007 6.76z" fill="#009055"/><path d="M39.138 13.003c-5.47.26-15.384 2.665-20.962 10.138-4.554 6.1-4.96 11.885-5.128 14.272-.016.22-.029.41-.043.57A.084.084 0 0013 37.96V15.113c0-1.167.946-2.113 2.113-2.113H39.13a.026.026 0 00.008.003z" fill="#89C75A"/><path d="M36 20v16.977L32 37l-7-9.808V37h-5V20h4.5l6.5 8.506V20h5z" fill="#fff"/></svg>