<!-- by TradingView --><svg width="56" height="56" xmlns="http://www.w3.org/2000/svg"><path fill="#F0F3FA" d="M0 0h56v56H0z"/><path d="M4.883 24.229H4V24h2.206l2.06 3.487c.882 1.43.833 1.43 1.176 2.058V24.23H8.56V24h2.01v.229h-.883V32h-.245l-4.314-7.543v7.264H6V32H4v-.279h.883V24.23zm10.334 3.123h-.687v-.229h1.667v1.086c.294-.857.638-1.209 1.128-1.209.392 0 .686.295.686.695 0 .343-.196.572-.539.572-.294 0-.442-.172-.442-.629-.048-.114-.048-.171-.146-.171-.05 0-.197.114-.245.286-.344.628-.43 1.392-.43 2.764v1.2h.686v.286H14.54v-.286h.687l-.011-4.365z" fill="#C64A4C"/><path d="M19.52 27.26h1.047v.228H19.52v3.315c0 .63.142.8.523.8.285 0 .475-.17.523-.628h.19c-.095.686-.428 1.03-1.046 1.03-.38 0-.713-.173-.903-.458-.19-.229-.19-.343-.19-1.087v-2.972H18v-.172c.666-.4 1.093-.971 1.379-1.886h.142v1.83z" fill="#C64A4C"/><path d="M21.014 24.232h-.687V24h1.667v4.118c.343-.638.834-.927 1.57-.927.44 0 .882.173 1.078.463.147.232.196.406.196 1.218v2.843h.735v.29H23.27v-.29h.637v-2.843c0-.812-.048-.928-.147-1.102-.098-.174-.294-.232-.54-.232-.44 0-.882.29-1.078.812-.147.348-.147.754-.147 1.682v1.683h.638v.29h-2.305v-.29h.687v-7.483z" fill="#C64A4C"/><path d="M29.691 32.004h-.245l-1.078-3.545-1.128 3.545h-.245l-2.403-7.775h-.588V24h6.324v.229h-.637l-.735 2.458 1.03 3.373 1.667-5.832h-.981V24h1.814v.229h-.54l-2.255 7.775zm-1.52-7.775l.638 1.943.588-1.943h-1.226zm-2.402 0l1.814 5.83.638-2.057-1.226-3.773h-1.226zM31.98 29v.426c0 1.143-.034 1.491.112 1.777.147.343.442.515.834.515.686 0 1.226-.515 1.422-1.43h.245c-.147 1.03-.882 1.716-1.765 1.716-1.03 0-1.976-1.32-1.976-2.578 0-1.315.932-2.426 2.01-2.426 1.079 0 1.765.8 1.864 2H31.98zm1.716-.203c0-.744 0-.858-.098-1.087-.099-.286-.344-.457-.686-.457-.589 0-.834.343-.834 1.315v.229h1.618zm3.828-.286h-.196c-.098-.686-.588-1.2-1.177-1.2-.54 0-.931.342-.931.857 0 .343.245.457 1.03.629 1.03.228 1.432.691 1.432 1.549 0 .972-.54 1.658-1.324 1.658-.44 0-.735-.172-1.127-.515l-.246.4h-.098l-.049-1.772h.147c.246 1.086.687 1.6 1.373 1.6.54 0 .932-.4.932-.914 0-.457-.245-.629-.98-.743-1.079-.229-1.433-.634-1.433-1.55 0-.857.539-1.51 1.225-1.51.392 0 .687.196 1.03.482l.196-.4h.147l.05 1.429zm1.727-1.253h1.03v.229h-1.03v3.316c0 .628.098.8.49.8.295 0 .49-.171.54-.629h.245c-.098.686-.49 1.03-1.128 1.03-.392 0-.687-.172-.882-.458-.197-.229-.245-.343-.245-1.087v-2.972h-.638v-.171c.736-.4 1.128-.972 1.422-1.887h.196v1.83z" fill="#305DA2"/><path d="M41.36 29v.47c0 1.177 0 1.412.147 1.706.147.353.442.53.834.53.686 0 1.226-.53 1.422-1.471h.245C43.86 31.295 43.174 32 42.243 32c-1.03 0-2.01-1.235-2.01-2.53 0-1.353.931-2.47 2.01-2.47 1.078 0 1.765.765 1.863 2H41.36zm1.717-.187c0-.765 0-.872-.099-1.107-.098-.294-.343-.47-.686-.47-.588 0-.834.352-.834 1.352v.225h1.619z" fill="#305DA2"/><path d="M44.498 27.362h-.734v-.241h1.666v1.145c.294-.904.687-1.266 1.177-1.266.392 0 .637.301.637.723 0 .362-.196.603-.54.603-.294 0-.44-.18-.44-.663 0-.12-.05-.18-.099-.18-.097 0-.196.12-.294.301-.343.663-.44 1.326-.44 2.773v1.146h.734v.3h-2.402v-.3h.735v-4.341z" fill="#305DA2"/><path d="M47.72 27.361H47v-.24h1.635v.602c.336-.542.769-.723 1.346-.723.384 0 .817.18 1.01.482.24.302.288.543.288 1.507v2.713H52v.301h-2.26v-.3h.625v-1.87c0-1.507-.048-1.928-.192-2.23a.644.644 0 00-.53-.241c-.24 0-.576.18-.768.482-.193.362-.24.904-.24 2.412v1.447h.624v.3H47v-.3h.72V27.36z" fill="#305DA2"/><path d="M11.193 29.5c0-1.12.178-1.81.533-2.069a.889.889 0 01.502-.143c.5 0 .816.317.947.95.066.31.099.716.099 1.218 0 1.187-.2 1.902-.602 2.146a.891.891 0 01-.444.11c-.492 0-.805-.317-.936-.95-.066-.318-.099-.738-.099-1.262zm1.075-2.5c-.75 0-1.341.288-1.775.863-.329.442-.493.973-.493 1.593 0 .855.27 1.526.809 2.013.394.354.857.531 1.39.531.73 0 1.311-.295 1.745-.885.342-.465.513-1.018.513-1.66 0-.862-.276-1.522-.828-1.98A2.06 2.06 0 0012.268 27z" fill="#C64A4C"/></svg>