<!-- by TradingView --><svg width="56" height="56" viewBox="0 0 56 56" xmlns="http://www.w3.org/2000/svg"><path fill="#F0F3FA" d="M0 0h56v56H0z"/><path fill="#00BCFF" d="M12.12 30h39.86v.53H12.12z"/><path d="M4.4 31.57c.04.53-.25 1.17-.4 1.43h1.96a3.32 3.32 0 0 1-.34-1.43v-5.84L8.64 33h3.65v-7.78c.01-.5.18-1.02.27-1.22H10.7c.23.28.27.93.29 1.22v5.9L8.13 24H4c.27.26.38.92.4 1.22v6.35Z" fill="#00BCFF"/><path fill-rule="evenodd" d="M14.08 25c-.6 0-1.08.5-1.08 1.11v2.38c0 .61.48 1.11 1.08 1.11h3.84c.6 0 1.08-.5 1.08-1.1V26.1A1.1 1.1 0 0 0 17.92 25h-3.84Zm1.49 1c-.32 0-.57.2-.57.46v1.72c0 .25.25.46.57.46h.86c.32 0 .57-.2.57-.46v-1.72c0-.25-.25-.46-.57-.46h-.86ZM34.08 25c-.6 0-1.08.5-1.08 1.11v2.38c0 .61.48 1.11 1.08 1.11h3.84c.6 0 1.08-.5 1.08-1.1V26.1A1.1 1.1 0 0 0 37.92 25h-3.84Zm1.49 1c-.32 0-.57.2-.57.46v1.72c0 .25.25.46.57.46h.86c.32 0 .57-.2.57-.46v-1.72c0-.25-.25-.46-.57-.46h-.86ZM40.58 25c-.6 0-1.08.5-1.08 1.11v2.38c0 .61.48 1.11 1.08 1.11h3.84c.6 0 1.08-.5 1.08-1.1V26.1A1.1 1.1 0 0 0 44.42 25h-3.84Zm1.49 1c-.32 0-.57.2-.57.46v1.72c0 .25.25.46.57.46h.86c.32 0 .57-.2.57-.46v-1.72c0-.25-.25-.46-.57-.46h-.86Z" fill="#00BCFF"/><path d="M20 28.86c-.01.28-.28.6-.34.72h2.6a2.3 2.3 0 0 1-.26-.72v-1.92c.07-.56.48-.7.67-.69h.72c.33.01.63.18.74.27v-1.06l1.05 4.14h2.24l.88-3.45.93 3.45h2.22l.94-3.72c.05-.37.35-.74.49-.88h-1.43c.16.23.13.69.1.88l-.49 1.89-.72-2.77H27.7l-.7 2.77-.4-1.72c-.17-.55-.07-.93 0-1.05h-3.72c-.66 0-.93.5-.98.74l-.06-.74h-2.18c.15.16.34.56.34.74v3.12ZM49.79 23H52V29.61h-2v-.52a.66.66 0 0 1-.68.51h-2.27c-.4 0-1.05-.5-1.05-1.1V26.1c0-.61.65-1.11 1.05-1.11h2.1c.33 0 .72.24.85.66V23.7c0-.14-.1-.47-.21-.69Zm.21 3.46c0-.26-.25-.46-.57-.46h-.86c-.32 0-.57.2-.57.46v1.72c0 .25.25.45.57.45h.86c.32 0 .57-.2.57-.45v-1.72Z" fill="#00BCFF"/><path fill="#B3B3B3" d="M13 31h39v2H13z"/></svg>