<!-- by TradingView --><svg width="56" height="56" viewBox="0 0 56 56" xmlns="http://www.w3.org/2000/svg"><path fill="#F0F3FA" d="M0 0h56v56H0z"/><path d="M5 22v13h3v-7.7l5.38 7.7H17V22h-3v7.8L8.71 22H5ZM17.36 35h3.32l2.78-8.06L24.52 30H23.4l-.99 3h3.16l.7 2h3.35l-4.45-13h-3.35l-4.46 13ZM39 22H26.95l1.04 3H32v10h3V25h4v-3ZM40 30.24V22h3v6.87c0 2.54 1.68 3.07 2.54 3.07.7 0 1.08-.24 1.2-.36-.23.52-1.16 1.57-3.17 1.57-2.3 0-3.34-1.94-3.57-2.91Z"/><path d="M45.08 35c-2.98 0-4.63-2.5-5.08-3.74.37.75 1.6 2.24 3.54 2.24 2.68 0 3.8-2.3 3.96-3.46V24.1c0-2.3 2.29-3.1 3.14-3.1.68 0 1.19.13 1.36.2-.93 0-1.43.85-1.5 1.28v7.14A5.3 5.3 0 0 1 45.08 35Z" fill="#009936"/></svg>