<!-- by TradingView --><svg width="56" height="56" viewBox="0 0 56 56" xmlns="http://www.w3.org/2000/svg"><path fill="#F0F3FA" d="M0 0h56v56H0z"/><path d="M13 15.07V18h17.59c2.07 0 3.1-1.38 4.13-2.93a5.75 5.75 0 0 1 3.1-2.07H15.08C13.4 13 13 14.38 13 15.07ZM26.45 23H13v5h12.93c2.07 0 2.81-3.25 4.07-4 2-1.2 3.5-1 7-1h6v-5h-6c-3.28 0-3.78.62-4.86 2.24-1.66 2.48-4.48 2.76-5.7 2.76ZM21 33h-8v5h6c4.14 0 4.34-2.76 5.9-4.31C26.45 32.14 28.8 32 30 32h13v-5H32.66c-4 0-5.47 3.26-8.28 5.14A7.14 7.14 0 0 1 21 33ZM40.93 43h-23.8c1.37-.5 2.87-1 3.87-2 1.83-1.83 2.5-3 5.1-3H43v2.93C43 42.6 41.62 43 40.93 43Z" fill="#0061A1"/></svg>