<!-- by TradingView --><svg width="56" height="56" viewBox="0 0 56 56" xmlns="http://www.w3.org/2000/svg"><path fill="#014576" d="M0 0h56v56H0z"/><path fill-rule="evenodd" d="M16 13a3 3 0 0 0-3 3v24a3 3 0 0 0 3 3h24a3 3 0 0 0 3-3V16a3 3 0 0 0-3-3H16Zm0 2a1 1 0 0 0-1 1v24a1 1 0 0 0 1 1h24a1 1 0 0 0 1-1V16a1 1 0 0 0-1-1H16Zm12 17a7 7 0 1 0 0-14 7 7 0 0 0 0 14Zm0-2a5 5 0 1 0 0-10 5 5 0 0 0 0 10Zm-11 6h1.44l1.03-1.94A2 2 0 0 1 21.24 33H34.9a2 2 0 0 1 1.75 1.05L37.72 36H39v2h-2.52l-2.02-3h-12.9l-1.82 3H17v-2Z" fill="#fff"/></svg>