<!-- by TradingView --><svg width="56" height="56" viewBox="0 0 56 56" xmlns="http://www.w3.org/2000/svg"><path fill="#F0F3FA" d="M0 0h56v56H0z"/><path d="m35.87 23.93-.93-5.2-13.18 17.63a8.76 8.76 0 0 0-1.73 6.03l.6 6.61 13.61-18.3a8.74 8.74 0 0 0 1.63-6.77Z" fill="url(#ayp0b4lnl)"/><path d="M35 16.77 33.56 7 23.3 20.94a11.67 11.67 0 0 0-2.25 8l.45 5.4L35 16.78Z" fill="url(#byp0b4lnl)"/><path d="M35 16.77 22 28.49l-.5 5.27c0 .2-.02.4 0 .59L35 16.77Z" fill="url(#cyp0b4lnl)"/><path d="M35 16.77 22.5 30.93l-1 3.4L35 16.78Z" fill="url(#dyp0b4lnl)"/><defs><linearGradient id="ayp0b4lnl" x1="28" y1="18.72" x2="28" y2="49" gradientUnits="userSpaceOnUse"><stop stop-color="#64BCD5"/><stop offset="1" stop-color="#3481C3"/></linearGradient><linearGradient id="byp0b4lnl" x1="28" y1="7" x2="28" y2="34.35" gradientUnits="userSpaceOnUse"><stop stop-color="#A2ABD6"/><stop offset="1" stop-color="#558CC7"/></linearGradient><linearGradient id="cyp0b4lnl" x1="28.25" y1="16.63" x2="28.25" y2="34.35" gradientUnits="userSpaceOnUse"><stop stop-color="#4D3D87"/><stop offset="1" stop-color="#4B6BAE"/></linearGradient><linearGradient id="dyp0b4lnl" x1="28.35" y1="16.64" x2="28.35" y2="34.13" gradientUnits="userSpaceOnUse"><stop stop-color="#39265A"/><stop offset="1" stop-color="#344A7A"/></linearGradient></defs></svg>