<!-- by TradingView --><svg xmlns="http://www.w3.org/2000/svg" width="56" height="56" viewBox="0 0 56 56"><path fill="#F0F3FA" d="M0 0h56v56H0z"/><path d="M28 9c-.63.69-2.46 3.15-3.3 4.3l3.3 4.56 3.3-4.56L28 9ZM17.48 24.37c1.43-2.35 4.65-7.54 6.1-9.55L27 19.4c-1.43 2.07-4.58 6.98-5.72 10.1l-3.8-5.13Zm10.54-3.41c-1.92 2.6-4.4 7.58-5.64 10.24 1.47 2 4.37 7.64 5.64 10.2.84-2.6 4.03-7.89 5.51-10.2-.25-1.54-3.78-7.47-5.51-10.24ZM24.8 45a15.01 15.01 0 0 1-9.24-8.53c-.62-1.49-1.26-5.65 1.16-10.37l3.87 5.5a11.31 11.31 0 0 0 .18 7.59A14.6 14.6 0 0 0 24.8 45Zm-2.9-11.51c1.28 1.87 4.1 6.7 5.12 11a11.55 11.55 0 0 1-5.13-11Zm16.62-9.12a227.78 227.78 0 0 0-6.1-9.55L29 19.4c1.43 2.07 4.58 6.98 5.72 10.1l3.8-5.13Zm1.9 12.1A15.01 15.01 0 0 1 31.2 45a14.6 14.6 0 0 0 4.03-5.81c1.26-3.16.64-6.37.18-7.58l3.87-5.5c2.42 4.71 1.78 8.87 1.16 10.36Zm-6.34-2.98c-1.28 1.87-4.1 6.7-5.13 11a11.55 11.55 0 0 0 5.13-11Z" fill="url(#a14j5b4i2)"/><defs><linearGradient id="a14j5b4i2" x1="28" y1="9" x2="28" y2="45" gradientUnits="userSpaceOnUse"><stop stop-color="#53C5E7"/><stop offset="1" stop-color="#5AC1A7"/></linearGradient></defs></svg>