<!-- by TradingView --><svg xmlns="http://www.w3.org/2000/svg" width="56" height="56"><path fill="#F0F3FA" d="M0 0h56v56H0z"/><path fill="#2C4C95" d="M16 25h2v8h-2z"/><path fill-rule="evenodd" d="M12.54 30.57a12.77 12.77 0 01-3.59 2.32A5.02 5.02 0 0015 27.68c-.6.97-1.43 1.97-2.45 2.9zM5 28a5 5 0 002.85 4.51 9.83 9.83 0 002.49-1.26c-.11.02-.23.02-.34.02-1.66 0-3-1.46-3-3.28 0-1.8 1.34-3.28 3-3.28s3 1.47 3 3.28c0 .41-.07.8-.2 1.17.88-.92 1.55-1.85 1.96-2.7A5 5 0 005 28zm15-2.99c-.44-.07-1.5.12-2.2 1.49l.06 2.46.01.37v-.37c.03-.85.44-2.07 2.13-1.96v-1.99zM23 23h-2v10h2v-1.2a3.3 3.3 0 002.5 1.2c1.93 0 3.5-1.8 3.5-4s-1.57-4-3.5-4a3.3 3.3 0 00-2.5 1.2V23zm4 6c0 1.26-.9 2.28-2 2.28s-2-1.02-2-2.28c0-1.26.9-2.28 2-2.28s2 1.02 2 2.28zm13.5 4c-1.93 0-3.5-1.8-3.5-4 0-2.21 1.57-4 3.5-4 .98 0 1.86.46 2.5 1.2V25h2v8h-2v-1.2a3.3 3.3 0 01-2.5 1.2zm.5-1.7c-1.1 0-2-1.03-2-2.3 0-1.25.9-2.28 2-2.28s2 1.03 2 2.29-.9 2.29-2 2.29zM32.86 25c2.45 0 3 1.68 3.04 2.57h-1.76a1.36 1.36 0 00-1.28-1.06c-.38-.02-1.07.09-1.07.75s1.15 1.01 1.76 1.1c2.01.37 2.47 1.7 2.45 2.31.01.75-.51 2.33-3 2.33-2.41 0-3.22-1.69-3.32-2.57h1.9c.12.84 1 1.06 1.43 1.06.42 0 1.02-.23.99-.82-.03-.58-.99-.9-1.53-.99-2.55-.45-2.62-2.11-2.62-2.3 0-.21.1-2.38 3.01-2.38zM47 23v2h-1v1.6h1v4.13c-.04.72.5 2.18 2.56 2.27H51v-1.57h-1.02c-.3 0-1.02-.16-.98-.88V26.6h2V25h-2v-2h-2z" fill="#2C4C95"/><path d="M12.15 30.12c-2.95 2.67-6.38 3.66-7.67 2.22-.68-.77-.61-2.08.04-3.54l.43 1.26c-.24.77-.2 1.42.15 1.82.95 1.07 3.83.02 6.44-2.34 2.61-2.36 3.96-5.15 3.01-6.21-.4-.45-1.12-.53-2.03-.3l-1.26-.56c1.69-.66 3.16-.65 3.91.2 1.28 1.44-.07 4.77-3.02 7.45z" fill="url(#aaznbsfnd)"/><path d="M12.15 30.12c-2 1.8-4.21 2.84-5.83 2.88 0 0 2.75-.77 5.52-3.23 2.61-2.36 3.33-4.45 3.33-6.15 0-.75-.51-1.35-.51-1.35.2.1.37.23.51.4 1.28 1.44-.07 4.77-3.02 7.45z" fill="url(#baznbsfnd)"/><defs><linearGradient id="aaznbsfnd" x1="14.88" y1="22.39" x2="4.21" y2="32.07" gradientUnits="userSpaceOnUse"><stop stop-color="#89B2DC"/><stop offset="1" stop-color="#319BD2"/></linearGradient><linearGradient id="baznbsfnd" x1="15.66" y1="23.51" x2="6.55" y2="32.91" gradientUnits="userSpaceOnUse"><stop stop-color="#3194D5"/><stop offset="1" stop-color="#379CD2"/></linearGradient></defs></svg>