<!-- by TradingView --><svg width="56" height="56" xmlns="http://www.w3.org/2000/svg"><path fill="#A39265" d="M0 0h56v56H0z"/><path d="M15 33.006V26h2.298L20 31.543V26h1.43v7.006h-2.077l-2.924-5.72v5.72H15zM24.201 30h1.778c-.01-.531-.303-1-.88-1-.543 0-.87.503-.898 1zm3.156 1.376c-.095 1.189-1.126 1.746-2.227 1.746-1.333 0-2.419-.943-2.419-2.3 0-.884.218-1.567.652-2.05.434-.486 1.049-.729 1.843-.729.737 0 1.306.237 1.707.709.404.469.606 1.007.606 1.87 0 .19-.013.304-.02.378h-3.338c.007.537.39 1.115.96 1.115.248 0 .445-.06.59-.182.148-.122.25-.307.308-.557h1.338zM29.549 30.197L27.989 28h1.686l.995 1.438.939-1.438h1.57l-1.61 2.313 1.747 2.693h-1.747l-1.106-1.908-1.036 1.908h-1.595l1.717-2.81zM33.72 31.442h1.404c.01.233.082.405.217.516.134.111.341.167.62.167.243 0 .432-.052.567-.157a.516.516 0 00.206-.435c0-.284-.32-.506-.959-.668-.158-.04-.281-.073-.369-.096-.801-.218-1.585-.456-1.585-1.18 0-.465.202-.847.606-1.144.404-.297.936-.445 1.596-.445.592 0 1.06.132 1.403.395.347.26.52.612.52 1.058v.04h-1.323c-.026-.202-.1-.352-.222-.45-.118-.102-.284-.152-.5-.152-.219 0-.395.049-.53.147a.458.458 0 00-.197.384c0 .243.333.442 1 .597.155.038.273.066.354.087.828.204 1.646.59 1.646 1.21 0 .519-.214.953-.642 1.3-.424.344-.964.516-1.62.516-.694 0-1.231-.145-1.611-.435-.378-.294-.571-.712-.581-1.255zM39.542 29h-.985v-1h.985v-1.204L41 26v2h1v1h-1v2.36c0 .192.08.345.178.446.098.101.238.152.42.152.097 0 .198-.005.302-.015.105-.014.214-.032.329-.056v1.068c-.23.05-.453.088-.672.111-.219.027-.436.04-.651.04-.475 0-.822-.114-1.04-.343-.216-.233-.324-.604-.324-1.114V29zM46.087 30.844l-.167-.005c-.334 0-1.5.101-1.5.593 0 .199.067.362.202.49a.735.735 0 00.52.193c.546 0 .955-.467.955-.992 0-.071-.002-.125-.005-.162 0-.04-.002-.08-.005-.117zm.227 2.162a.61.61 0 01-.01-.056 8.701 8.701 0 01-.056-.648 2.313 2.313 0 01-.737.658 1.892 1.892 0 01-.904.213c-.488 0-.887-.154-1.197-.46-.306-.308-.46-.704-.46-1.19 0-1.277 1.856-1.534 2.803-1.534a4.52 4.52 0 00.343.015 1.7 1.7 0 01.006-.111c.003-.047.005-.083.005-.106 0-.32-.06-.555-.177-.704-.114-.148-.298-.223-.55-.223-.226 0-.396.06-.51.178-.115.118-.182.305-.202.561l-1.5-.005c.007-.533.192-.931.555-1.194.367-.267.92-.4 1.657-.4.367 0 .693.047.98.142.289.094.524.23.706.41.172.165.291.356.359.572.07.212.106.56.106 1.042v1.256c0 .124.007.308.02.551l.06 1.033h-1.297zM49 33.006v-3.392c0-.293-.005-.575-.015-.845-.01-.27-.025-.526-.046-.769h1.258l.056.931c.13-.32.34-.562.626-.724.29-.165.648-.248 1.075-.248H52l-.005 1.367-.207-.015a1.62 1.62 0 00-.121-.005c-.394 0-.704.096-.93.288-.222.193-.333.46-.333.8v2.612H49z" fill="#fff"/><path d="M20.398 15.547L15.276 23H3.947l7.089 6.893-6.38 9.6 13.595-5.485h-4.89l-5.306 2.027 5.068-7.513L8.643 24h7.243l2.782-4.16.776 4.16h16.218l1.61-1H22.008l-1.61-7.453z" fill="#fff"/></svg>