<!-- by TradingView --><svg width="56" height="56" viewBox="0 0 56 56" xmlns="http://www.w3.org/2000/svg"><path fill="#F0F3FA" d="M0 0h56v56H0z"/><path d="M27.32 23.56a38 38 0 0 1 10.6-8.12 15.98 15.98 0 0 0-10.86-3.41c-3.92.23-7.89 2.19-10.66 4.97h6.74l3.93 5.15a32.7 32.7 0 0 0-3.56 4.13L16.4 17a14.36 14.36 0 0 0-3.42 5.47 16.01 16.01 0 0 0 5.51 18.4 36.42 36.42 0 0 1 8.83-17.3Z" fill="#F7A51C"/><path d="m39.57 39-9.86-13.17a47.1 47.1 0 0 1 10.3-8.41c2.67 3.04 4.1 7 3.98 11.05A15.13 15.13 0 0 1 39.57 39ZM26.3 30.17c1.88 2.62 6.56 8.83 6.56 8.83h6.73a17.17 17.17 0 0 1-9.24 4.83c-3.4.5-6.87-.1-9.9-1.72a43.65 43.65 0 0 1 5.85-11.94Z" fill="#94BC00"/></svg>