<!-- by TradingView --><svg width="56" height="56" viewBox="0 0 56 56" xmlns="http://www.w3.org/2000/svg"><path fill="#F0F3FA" d="M0 0h56v56H0z"/><path d="M36 30.19A4.46 4.46 0 0 1 32.35 32C29.5 32 28 30.2 28 28s1.5-4 4.35-4a4.5 4.5 0 0 1 3.55 1.67l-.78.49A3.56 3.56 0 0 0 32.35 25C30.47 25 29 26.14 29 28s1.47 3 3.35 3c1.17 0 2.2-.44 2.82-1.21l.83.4Z" fill="#1C3565"/><path d="M4 32v-8h1.44L9 28.74V24h2v8H9.6L6 27.47V32H4Z" fill="#00AAD4"/><path fill-rule="evenodd" d="M17.98 29.54c.14-1.18-.28-3.54-3.1-3.54-2.1 0-2.88 1.9-2.88 3.18A2.88 2.88 0 0 0 15.03 32a2.87 2.87 0 0 0 2.68-1.53l-1.43-.42c-.1.24-.51.71-1.25.71-.7 0-1.09-.57-1.23-1.22h4.18Zm-1.72-1.07c-.18-.78-.68-1.21-1.3-1.21-.61 0-1.05.53-1.18 1.2h2.48Z" fill="#00AAD4"/><path d="M27 24h-2v2h-1v1.5h1v2.13c.02.79.4 2.37 2.55 2.37s4.53-1.58 5.45-2.37l-2.23-.57c-.68.43-1.83 1.44-2.77 1.44-.65 0-1-.65-1-1.14V27.5h1V26h-1v-2Zm-4.8 2H24l-2.1 3 2.1 3h-1.8L21 30.3 19.8 32H18l2.1-3-2.1-3h1.8l1.2 1.7 1.2-1.7Z" fill="#00AAD4"/><path d="M38 26h-1v3.77c0 1.01.42 2.23 1.79 2.23 1.36 0 2-.98 2.21-1.47V31c0 .9.8 1 1.1 1l.2-.01v-.68c-.19 0-.3-.18-.3-.27V26h-1v3.67c-.2.55-.78 1.65-2.01 1.65-1 0-.98-1.15-.99-1.72V26Z" fill="#1C3565"/><circle cx="32.5" cy="28" r="2.5" fill="#00AAD4"/><circle cx="32.5" cy="28" r="1.5" fill="#9FD4EA"/><circle cx="32.5" cy="28" r=".5" fill="#F8FCFF"/><path d="M46 27v-.99c-.46-.07-1.31.12-2 1.32V26h-1v6h1v-3.75c.37-.73.9-1.3 2-1.25Z" fill="#1C3565"/><path fill-rule="evenodd" d="M49 32a3 3 0 0 0 2.7-1.7l-.93-.37A2 2 0 0 1 47 29h5a3 3 0 1 0-3 3Zm1.73-4a2 2 0 0 0-3.46 0h3.46Z" fill="#1C3565"/></svg>