<!-- by TradingView --><svg width="56" height="56" viewBox="0 0 56 56" xmlns="http://www.w3.org/2000/svg"><path fill="#F0F3FA" d="M0 0h56v56H0z"/><path fill-rule="evenodd" d="M36.24 35.74C41.43 33.81 45 29.71 45 24.97 45 18.36 38.06 13 29.5 13 20.94 13 14 18.36 14 24.97c0 6.56 6.85 11.9 15.34 11.96 1.85 1.7 6.01 4.7 8.91 3.95a7.93 7.93 0 0 0-.47-.81c-.62-.98-1.58-2.5-1.58-3.64 0-.25.02-.48.04-.69ZM34 22a1 1 0 0 1 1.02-1h3.96A1 1 0 0 1 40 22a1 1 0 0 1-1.02 1h-3.96A1 1 0 0 1 34 22Zm2 6.96c0 .58.45 1.04 1 1.04s1-.46 1-1.04v-3.92c0-.58-.45-1.04-1-1.04s-1 .46-1 1.04v3.92Zm-13-6.45c0-.83-.64-1.51-1.48-1.51S20 21.68 20 22.51v6.65c0 .46.38.84.85.84h9.3c1.02 0 1.85-.83 1.85-1.85v-5.72c0-.79-.7-1.43-1.5-1.43s-1.5.64-1.5 1.43v5.07a.5.5 0 0 1-.5.5H27v-6.03a1 1 0 0 0-1-.97 1 1 0 0 0-1 .97v5.27c0 .42-.34.76-.76.76H23v-5.49ZM13.29 26c-.13 3.52 2.64 10.87 14.71 12.16a11.3 11.3 0 0 1-7.16 1.43l-.07.06C20.2 40.1 17.85 42 15.5 42l.15-.28c.35-.65 1.02-1.9.91-2.76l-.08-.05C15.57 38.4 11 35.7 11 31.7c0-2.87 1.53-5 2.29-5.7Z" fill="url(#atxgm4szc)"/><defs><linearGradient id="atxgm4szc" x1="13.3" y1="24.79" x2="41.31" y2="34.19" gradientUnits="userSpaceOnUse"><stop stop-color="#434FF8"/><stop offset=".63" stop-color="#D840F3"/><stop offset="1" stop-color="#FB814D"/></linearGradient></defs></svg>