<!-- by TradingView --><svg width="56" height="56" viewBox="0 0 56 56" xmlns="http://www.w3.org/2000/svg"><path fill="#F0F3FA" d="M0 0h56v56H0z"/><path d="M12 23v7.59L6.2 23H4v11h2v-7.8l4.66 6.15a22.52 22.52 0 0 1 3.17-1.26l.17-.05V23h-2Z" fill="#252525"/><path d="M14 34v-2.31A27.14 27.14 0 0 0 9 34h5Z" fill="#FFC900"/><path d="M52 25h-2.63l-1.6 2.55-1.8-2.55h-2.63l3.11 4.5-2.7 4.5h2.63l1.4-2.46L49.36 34H52l-2.91-4.5L52 25ZM31.49 25l-2.2 5.38L27.05 25H24.5l3.62 8.21L26.99 36h2.3l4.67-11H31.5ZM21.99 26.03A3.52 3.52 0 0 0 19.43 25C16.65 25 15 27.01 15 29.5c0 2.48 1.58 4.5 4.43 4.5 1.07 0 1.94-.42 2.6-1.1l.13 1.1H24v-9h-1.84l-.17 1.03ZM19.43 32c-1.6 0-2.43-1.2-2.43-2.5s.87-2.5 2.43-2.5c1.48 0 2.57 1.2 2.57 2.5a2.5 2.5 0 0 1-2.57 2.5ZM40.99 26.03A3.52 3.52 0 0 0 38.43 25C35.65 25 34 27.01 34 29.5c0 2.48 1.58 4.5 4.43 4.5 1.07 0 1.94-.42 2.6-1.1l.13 1.1H43v-9h-1.84l-.17 1.03ZM38.43 32c-1.6 0-2.43-1.2-2.43-2.5s.87-2.5 2.43-2.5c1.48 0 2.57 1.2 2.57 2.5a2.5 2.5 0 0 1-2.57 2.5Z" fill="#252525"/></svg>