<!-- by TradingView --><svg width="56" height="56" viewBox="0 0 56 56" xmlns="http://www.w3.org/2000/svg"><path fill="url(#apl2mkmmx)" d="M0 0h56v56H0z"/><path fill="url(#bpl2mkmmx)" d="M0 0h56v56H0z"/><path fill-rule="evenodd" d="M46.86 29A4.5 4.5 0 0 0 51 24.51a4.5 4.5 0 0 0-8-2.8c.47-.4.94-.71 1.7-.71 1.05 0 1.55.56 1.85 1 .33 0 .53 0 .86.07l-.14.13c-.13.1-.22.17-.29.3.19.22.32.55.32 1.02 0 .37-.12.77-.32 1.04.52.2 1.02.65 1.02 1.57 0 1.33-.71 2.3-1.13 2.86V29ZM46 23.3a.7.7 0 1 1-1.4 0 .7.7 0 0 1 1.4 0Zm-2.3.7a.7.7 0 1 0 0-1.4.7.7 0 0 0 0 1.4ZM38 26.93v3.4C38 31.4 36.95 32 35.57 32c-1.06 0-2.57-.29-2.57-2.07 0-2.18 3.5-2.14 3.5-2.14v-1.04s.03-.75-.81-.75c-.67 0-.79.34-.89.66-.06.2-.13.4-.33.48-.67.28-1-.18-1-.57 0-.93 1-1.57 2.36-1.57C38 25 38 26.93 38 26.93Zm-1.5 1.5v2.1s-.22.47-1.14.47c-.44 0-.86-.29-.86-.9 0-1.33 2-1.67 2-1.67ZM21.64 32H20l2.2-3.5-2.01-3.5h1.79l1.14 2.03L24.4 25H26l-2.11 3.39L25.93 32H24.2l-1.23-2.15L21.64 32ZM6.5 32v-5.97L10.86 32H12v-9h-1.5v5.72L6.32 23H5v9h1.5Zm6.65-7h1.8l1.58 4.66 1.5-4.66h1.47s-1.13 3.37-2.7 7.58c-.37.97-1.1 2.42-2.52 2.42-.87 0-1.28-.48-1.28-.95 0-.48.24-.75.7-.75.24 0 .37.1.5.2.11.1.22.2.43.2.73 0 1.14-1.49 1.14-1.49L13.15 25Zm16.35 7c1.66 0 3-1.57 3-3.5s-1.34-3.5-3-3.5-3 1.57-3 3.5 1.34 3.5 3 3.5Zm0-1c.8 0 1.5-1.12 1.5-2.5s-.7-2.5-1.5-2.5-1.5 1.12-1.5 2.5.7 2.5 1.5 2.5Zm11-9H39v10h1.5v-5.07s.98-.93 2.04-.93c.76 0 .97.75.97 1.37V32H45v-4.97c-.06-.65-.39-2.03-2-2.03-1 0-2.16.61-2.5.95V22Z" fill="#fff"/><defs><linearGradient id="apl2mkmmx" x1="46" y1="5" x2="9.25" y2="54.25" gradientUnits="userSpaceOnUse"><stop offset=".28" stop-color="#FFBFCB"/><stop offset=".58" stop-color="#25F2DB"/></linearGradient><linearGradient id="bpl2mkmmx" x1="-3.5" y1="9.75" x2="49.75" y2="59.75" gradientUnits="userSpaceOnUse"><stop stop-color="#fff" stop-opacity="0"/><stop offset=".79" stop-color="#0B3D7A"/></linearGradient></defs></svg>