<!-- by TradingView --><svg width="56" height="56" viewBox="0 0 56 56" xmlns="http://www.w3.org/2000/svg"><path fill="#F0F3FA" d="M0 0h56v56H0z"/><path fill-rule="evenodd" d="M9.5 32a5.5 5.5 0 1 0 0-11 5.5 5.5 0 0 0 0 11Zm0-1a4.5 4.5 0 1 0 0-9 4.5 4.5 0 0 0 0 9Zm6.5-5v6h1v-3.86c.35-.62.94-1.14 1.78-1.14 1.05 0 1.2.96 1.22 1.46V32h1v-3.69c.34-.69.96-1.31 1.87-1.31 1.05 0 1.11.96 1.13 1.46V32h1v-3.84c0-.8-.4-2.16-1.98-2.16-1.14 0-1.9.73-2.22 1.2a1.92 1.92 0 0 0-1.87-1.2c-.88 0-1.53.43-1.93.85V26h-1Zm10 0v6h1v-3.86c.35-.62.94-1.14 1.78-1.14 1.05 0 1.2.96 1.22 1.46V32h1v-3.84c0-.8-.5-2.16-2.07-2.16-.88 0-1.53.43-1.93.85V26h-1Zm6 0v6h1v-6h-1Zm.5-1a.5.5 0 1 0 0-1 .5.5 0 0 0 0 1Z" fill="#57565C"/><path d="M39.9 21 35 32h1.42l1.72-4h3.77l1.72 4H45l-4.73-11h-.37Zm1.58 6h-2.9l1.45-3.38L41.48 27ZM45 22v10h1v-1.05a3.49 3.49 0 0 0 6-2.45 3.5 3.5 0 0 0-6-2.45V22h-1Zm3.5 9a2.5 2.5 0 1 1 0-5 2.5 2.5 0 0 1 0 5Z" fill="#EE7B1E"/></svg>