<!-- by TradingView --><svg width="56" height="56" viewBox="0 0 56 56" xmlns="http://www.w3.org/2000/svg"><path fill="#F0F3FA" d="M0 0h56v56H0z"/><path d="m25.06 17 1.18 5.16L27.51 17h.61l1.2 5.16 1.3-5.16h.63c-.5 2-1 4-1.52 6h-.82l-1.1-4.86-1.2 4.86h-.83l-1.36-6h.64ZM14.68 19.93c0 2.11-1.23 3.3-3.1 3.03a2.2 2.2 0 0 1-1.77-1.37c-.57-1.24-.39-2.95.42-3.8.78-.83 1.74-.95 2.75-.62.99.32 1.47 1.13 1.65 2.18.03.2.04.39.05.58Zm-4.47.67c.16 1.04.85 1.74 1.77 1.79.95.05 1.7-.56 1.92-1.59.17-.67.12-1.39-.15-2.03a1.73 1.73 0 0 0-.64-.83c-.3-.2-.65-.3-1-.3a1.67 1.67 0 0 0-1.7 1.12c-.25.63-.3 1.2-.2 1.84ZM21.66 32H21v-2.52c-.52.23-.97.53-1.56.52-1.43-.03-2.18-1.42-1.7-2.74a1.91 1.91 0 0 1 2.4-1.16c.32.1.55.3.86.48.01-.14-.02-.4 0-.58h.66v6Zm-.78-4.67a1.16 1.16 0 0 0-.47-.6c-.22-.14-.49-.21-.76-.2-.56 0-1 .3-1.2.84-.19.52-.17.9.05 1.4.08.2.22.37.41.5.2.12.42.2.65.2.52.03.96-.14 1.2-.56.25-.52.3-1.03.12-1.58ZM21.65 37.36V40H21v-6h.56c.04.14.07.48.1.66.14-.1.24-.2.36-.28a2.01 2.01 0 0 1 1.58-.34c.86.18 1.55 1 1.53 1.9-.03 1.1-.88 2.06-2.02 2.06-.54-.02-1-.3-1.46-.64Zm-.05-1.48c.04.27.1.53.18.8.18.43.64.74 1.15.77.9.06 1.52-.72 1.5-1.59 0-.47-.36-1-.78-1.2-.21-.1-.46-.15-.7-.13-.23 0-.46.06-.66.18s-.34.3-.43.5c-.11.28-.2.37-.26.67ZM43.4 19.58V17h.6v6h-.51l-.07-.64-.18.12c-.4.37-.85.52-1.28.52-.74 0-1.42-.5-1.62-1.43-.23-1.11.49-2.6 1.75-2.56.42.01.88.18 1.31.57Zm-.1.84c-.2-.57-.62-.89-1.16-.87-1.04.02-1.38 1.38-1.04 2.2a1.08 1.08 0 0 0 1 .7 1.07 1.07 0 0 0 1.07-.57c.24-.56.28-.89.13-1.46ZM10.27 28.49 9.68 30H9l2.3-6h.77l2.2 6h-.73l-.57-1.51h-2.7Zm1.4-3.75-1.13 3.08h2.2l-1.08-3.08ZM20.62 20.93l-.62.8V23h-.55v-6H20v3.6l.14.07 1.53-2.06h.66l-1.3 1.78 1.62 2.6h-.69l-1.34-2.06ZM45 36c0 1.44-1.24 2.32-2.66 1.9-1.09-.34-1.62-1.54-1.19-2.7.35-.93 1.44-1.41 2.51-1.1.84.23 1.34.95 1.34 1.9Zm-3.32 0c0 .82.48 1.4 1.21 1.46.76.07 1.35-.44 1.44-1.25.1-.9-.35-1.56-1.1-1.64-.96-.1-1.55.45-1.55 1.42ZM35.27 21c0 1.46-1.23 2.34-2.61 1.88-.94-.32-1.45-1.37-1.18-2.45a1.87 1.87 0 0 1 2.12-1.42c1.03.12 1.68.89 1.67 2Zm-3.2-.02c0 .83.45 1.41 1.16 1.48.73.07 1.3-.44 1.4-1.24.1-.89-.33-1.56-1.06-1.65-.92-.1-1.5.44-1.5 1.41ZM39.79 21c0 1.45-1.22 2.34-2.6 1.88-1.03-.34-1.53-1.53-1.13-2.67.07-.22.2-.42.36-.6.16-.17.36-.32.58-.42a2.06 2.06 0 0 1 1.48-.1c.82.24 1.3.95 1.3 1.9Zm-3.2-.02c-.01.83.44 1.4 1.14 1.48.74.08 1.31-.43 1.41-1.23.1-.89-.33-1.57-1.05-1.66-.92-.1-1.5.44-1.5 1.4ZM40.5 27.98c0 1.47-1.3 2.37-2.73 1.89-.96-.33-1.48-1.39-1.19-2.46.26-.94 1.1-1.5 2.16-1.4 1.07.1 1.75.86 1.76 1.97Zm-.72-.43c-.16-.66-.58-.99-1.25-1-.69 0-1.18.33-1.29 1-.05.38-.02.76.09 1.13.07.24.23.44.45.58.22.15.49.22.76.2.26 0 .51-.07.72-.22.2-.14.36-.34.44-.56.13-.4.18-.73.08-1.13ZM18.13 36c0 1.46-1.35 2.34-2.86 1.88a1.95 1.95 0 0 1-1.29-2.44c.26-.97 1.2-1.54 2.31-1.43 1.13.12 1.84.88 1.84 2Zm-3.5-.03c-.01.83.48 1.41 1.25 1.49.8.08 1.43-.42 1.54-1.23.12-.88-.35-1.57-1.14-1.66-1-.11-1.65.43-1.65 1.4ZM29.29 36c0 1.44-1.24 2.32-2.66 1.9-1.09-.34-1.62-1.54-1.19-2.7.35-.93 1.44-1.41 2.51-1.1.84.23 1.34.94 1.34 1.9Zm-3.32 0c0 .82.49 1.4 1.22 1.46.74.07 1.32-.42 1.43-1.21.12-.88-.32-1.58-1.07-1.68h-.04c-.95-.1-1.54.45-1.54 1.43ZM13.46 32.37v.56c-1.23-.38-2.42-.59-3.3.6-.58.78-.6 2.13-.03 2.9.89 1.18 2.08 1.05 3.32.62l.05.2v.31a3.1 3.1 0 0 1-3.71-.4 3.35 3.35 0 0 1-.16-4.11c.83-1.07 2.49-1.37 3.83-.68ZM17.72 20.89c.08-1.34-.29-1.53-2.18-1.22v-.42a2.98 2.98 0 0 1 1.97-.14c.54.14.83.55.84 1.17V23h-.47l-.14-.36c-.93.5-1.79.48-2.27-.04-.19-.23-.3-.5-.3-.8 0-.28.11-.56.3-.8.49-.52 1.37-.57 2.25-.11Zm.04.87c0-.49-.4-.8-.98-.79-.58.02-.94.33-.93.83 0 .5.37.81.94.81.13 0 .26 0 .38-.05.12-.04.23-.1.32-.18a.8.8 0 0 0 .21-.28c.05-.11.07-.23.06-.34ZM35.28 35.87c.18-1.28-.43-1.59-2.35-1.19v-.44a3.6 3.6 0 0 1 2.11-.14c.6.14.94.54.95 1.15.02.88 0 1.83 0 2.75h-.52l-.14-.38c-.96.5-1.92.5-2.46 0-.22-.22-.34-.5-.34-.79-.01-.29.1-.57.3-.8.5-.54 1.46-.6 2.45-.16Zm.06.88c0-.48-.43-.8-1.06-.78-.65.02-1.04.33-1.02.83 0 .5.4.81 1.03.8.64 0 1.06-.34 1.05-.85ZM25.66 30h-.58l-.06-.61c-.51.5-1.12.7-1.85.57-.67-.12-1.1-.48-1.14-1.1C21.97 27.9 22 26 22 26h.7v1.4c0 .39-.02.78 0 1.17.05.61.42.92 1.07.93.65.01 1.14-.33 1.18-.9.05-.7.03-1.4.04-2.1L25 26h.66v4ZM44.55 30h-.62v-1.52c0-.36.01-.74-.03-1.1-.07-.56-.39-.83-.93-.87-.6-.03-1.09.24-1.21.76-.06.34-.09.68-.08 1.02V30H41v-4h.6c.02.14.05.4.1.61.17-.2.4-.37.65-.47.26-.1.54-.15.83-.14.72.04 1.3.4 1.35 1.05.07.97.02 1.95.02 2.95ZM46 38h-.6v-4h.58l.07.52c.33-.16.65-.38 1.01-.46.96-.23 1.81.23 1.9 1.1.08.92.01 1.86.01 2.82h-.64v-1.17c0-.49.01-.97-.04-1.45-.06-.54-.4-.81-.95-.84-.27-.03-.54.03-.76.16-.4.25-.59.87-.58 1.32v2ZM45.13 22.33c.44.08.89.14 1.33.18.34.01.71-.06.8-.44.11-.39-.2-.56-.52-.7-.37-.17-.74-.32-1.1-.5a.94.94 0 0 1-.43-.36.79.79 0 0 1-.11-.51c0-.18.07-.36.19-.51.12-.15.29-.26.48-.33a2.71 2.71 0 0 1 1.97.05v.44c-.41-.05-.8-.13-1.19-.15-.34-.02-.71.02-.81.4-.1.38.23.53.52.66.34.16.7.3 1.03.47.41.2.66.5.62.96-.02.2-.1.4-.24.55-.14.16-.34.28-.56.34a2.8 2.8 0 0 1-1.98-.14v-.41ZM27.7 29.74v-.46c.29.09.57.15.86.2.3.04.63.03.94-.03.2-.05.48-.25.5-.4 0-.12-.04-.22-.1-.32a.77.77 0 0 0-.24-.25c-.36-.21-.8-.34-1.2-.51-.63-.28-.86-.6-.8-1.04.08-.45.47-.75 1.13-.88.58-.1 1.2-.04 1.74.18v.4c-.49-.04-.95-.11-1.42-.13-.33-.02-.65.07-.75.39-.1.33.18.5.47.63.4.18.83.34 1.24.52.43.2.68.5.64.93-.02.2-.1.4-.24.55-.15.16-.34.28-.56.34-.75.25-1.47.14-2.2-.12ZM17.28 26.26v.47c-.84-.2-1.66-.41-2.29.31-.41.49-.41 1.45.02 1.92.64.72 1.46.58 2.32.3v.45c-.88.48-2.1.35-2.76-.28a2.1 2.1 0 0 1-.1-2.77c.62-.7 1.77-.86 2.8-.4ZM38.93 37.36v.42c-.3.17-.6.22-.86.22-.63.01-1.07-.42-1.07-1.25V34.7a.53.53 0 0 0-.04-.12l-.47-.05v-.5l.5-.05.11-.99h.57l.05 1H39v.55h-1.27c0 1.02-.02 1.47 0 2.44.01.34.28.5.61.47.2-.02.4-.06.6-.1ZM34.93 29.38v.49c-.32.07-.65.11-.98.13a.9.9 0 0 1-.54-.15.79.79 0 0 1-.32-.44c-.05-.21-.1-.43-.09-.65v-2.15l-.5-.07v-.47L33 26c.04-.24.07-.72.1-1h.57c.02.24.03.71.04 1h1.22v.56h-1.2c0 .94-.02 1.58 0 2.47.01.36.3.5.67.46l.53-.1ZM30.65 38H30v-4h.57c.03.18.05.47.09.7.46-.53.98-.88 1.75-.6v.56c-1.22-.12-1.75.29-1.76 1.37V38ZM19 38h-.66v-4h.57l.1.7c.45-.54.97-.88 1.75-.6v.56c-1.25-.12-1.75.29-1.76 1.41V38ZM35.39 26H36v4h-.61v-4ZM39.38 34H40v4h-.62v-4ZM27 30h-.6v-4h.6v4ZM31.37 26H32v4h-.63v-4ZM26.81 25.12c.18 0 .33-.15.33-.33a.32.32 0 0 0-.33-.32.32.32 0 0 0-.32.32c0 .18.14.33.32.33ZM31.68 25.12c.18 0 .32-.15.32-.33a.32.32 0 0 0-.32-.32.32.32 0 0 0-.33.32c0 .18.15.33.33.33ZM35.7 25c.17 0 .32-.14.32-.32a.32.32 0 0 0-.33-.32.32.32 0 0 0-.32.32c0 .18.14.32.32.32ZM39.65 32.65c.2 0 .35-.15.35-.32 0-.18-.15-.33-.35-.33-.19 0-.35.15-.35.33 0 .17.16.32.35.32Z"/></svg>