<!-- by TradingView --><svg width="56" height="56" viewBox="0 0 56 56" xmlns="http://www.w3.org/2000/svg"><path fill="#F0F3FA" d="M0 0h56v56H0z"/><path d="M28 45a17 17 0 1 0 0-34 17 17 0 0 0 0 34Zm-9.75-18.2C23.65 25.57 27 23.1 28 22c1 1.09 4.35 3.57 9.75 4.8C38.92 28.2 39 30.22 39 31.52 39 37.9 34.52 43 28 43c-6.29 0-11-5.11-11-11.48 0-1.3.08-3.33 1.25-4.72Z" fill="#EE6623"/><path fill="#EE6623" d="M16 29h5v2h-5zM35 29h5v2h-5zM26 29h4v2h-4z"/><path fill-rule="evenodd" d="M23 35a4 4 0 1 0 0-8 4 4 0 0 0 0 8Zm0-2a2 2 0 1 0 0-4 2 2 0 0 0 0 4ZM33 35a4 4 0 1 0 0-8 4 4 0 0 0 0 8Zm0-2a2 2 0 1 0 0-4 2 2 0 0 0 0 4Z" fill="#EE6623"/></svg>