<!-- by TradingView --><svg xmlns="http://www.w3.org/2000/svg" width="56" height="56" viewBox="0 0 56 56"><path fill="url(#a51qwnevu)" d="M0 0h56v56H0z"/><path d="M26.56 34c2.42-.04 4.34-1.17 5.33-3a6.36 6.36 0 0 1-.68-2.95c0-1.17.25-2.2.71-3.08-.97-1.9-2.92-3.01-5.36-2.97-3.5 0-6 2.39-6 6.05 0 3.56 2.5 5.95 6 5.95Zm3.93-6.08c0 2.44-1.55 4.24-3.91 4.24-2.34 0-3.9-1.8-3.9-4.24 0-2.27 1.56-4.08 3.9-4.08 2.36 0 3.91 1.8 3.91 4.08ZM38.23 34c1.25 0 2.48-.35 3.43-1.11a5.34 5.34 0 0 1-1.38-1.45c-.57.47-1.3.73-2.03.72-2.34 0-3.9-1.8-3.9-4.24 0-2.27 1.56-4.08 3.9-4.08.63 0 1.33.24 2 .79.35-.56.8-1.05 1.32-1.45A5.08 5.08 0 0 0 38.23 22c-3.5 0-6 2.39-6 6.05 0 3.56 2.5 5.95 6 5.95ZM50 32.81A5.39 5.39 0 0 1 46.49 34c-3.5 0-6-2.39-6-5.95 0-3.66 2.5-6.05 6-6.05 1.27 0 2.44.4 3.43 1.26-.52.4-.95.9-1.29 1.47a3.28 3.28 0 0 0-2.13-.9c-2.34 0-3.9 1.81-3.9 4.09 0 2.43 1.56 4.24 3.9 4.24.8 0 1.57-.29 2.16-.83.35.58.8 1.08 1.34 1.48ZM14.11 22.27 18.35 29h-1.66c-.31-1.31-1.29-2-2.65-2h-3.83l2.93-4.73a.62.62 0 0 1 .49-.27.59.59 0 0 1 .48.27ZM6.3 33.92a.6.6 0 0 1-.22-.23.64.64 0 0 1 .03-.64L6.7 32h7.31c1.37 0 2.36-.68 2.67-2h2.56l1.9 3.05a.63.63 0 0 1 .02.64c-.22.34-.5.3-.5.3H6.6c-.1.01-.21-.02-.3-.07ZM15.54 30h-1.8c-.4 0-.72-.14-.74-.5-.02-.36.24-.5.66-.5h1.8a1.8 1.8 0 0 0-.81-1.13 1.8 1.8 0 1 0 0 3.19c.45-.24.81-.69.9-1.06Z" fill="#fff"/><defs><linearGradient id="a51qwnevu" x1="0" y1="28" x2="56" y2="28" gradientUnits="userSpaceOnUse"><stop stop-color="#6F0A1E"/><stop offset=".51" stop-color="#A1122F"/><stop offset="1" stop-color="#6F0A1E"/></linearGradient></defs></svg>