<!-- by TradingView --><svg width="56" height="56" viewBox="0 0 56 56" xmlns="http://www.w3.org/2000/svg"><path fill="#F0F3FA" d="M0 0h56v56H0z"/><path d="M25.26 25.5a2.5 2.5 0 1 0 1.84 4.19l.37.34a3 3 0 0 1-5.2-2.03 3 3 0 0 1 5.2-2.03l-.37.34a2.5 2.5 0 0 0-1.84-.8Z" fill="#53565C"/><path fill-rule="evenodd" d="m19.51 26.35.38-.6a2.84 2.84 0 0 0-1.83-.75c-1 .01-1.88.67-1.89 1.7-.01 1.08 1.16 1.52 2.02 1.72.65.15 1.11.32 1.11 1.03 0 .7-.61.84-1.24.84-.58 0-1.24-.32-1.63-.76l-.43.52c.49.56 1.32.95 2.06.95.92 0 1.94-.51 1.94-1.55 0-1-.8-1.55-1.67-1.76l-.1-.02c-.52-.12-1.34-.31-1.33-.97.01-.7.5-.94 1.16-.95.52 0 1.07.26 1.45.6ZM7 31a3 3 0 1 0 0-6 3 3 0 0 0 0 6Zm0-.7a2.3 2.3 0 1 0 0-4.6 2.3 2.3 0 0 0 0 4.6Zm4.7-2.66V25.7H15V25h-4v6h.7v-2.66H15v-.7h-3.3Z" fill="#FE8F1C"/><path d="M46 31v-6h.5v6H46ZM47.49 25H52v.5h-2V31h-.49v-5.5H47.5V25Z" fill="#53565C"/><path fill-rule="evenodd" d="M29 25.5h2.02c.7 0 1.26.56 1.26 1.26S31.72 28 31.02 28H29v-2.5Zm0-.5h2.02a1.76 1.76 0 0 1 .32 3.49L32.97 31h-.65l-1.56-2.49H29V31h-.5v-6h.5ZM41.33 25.5H40v5h1.33a2.5 2.5 0 0 0 0-5ZM39.5 25v6h1.82a3 3 0 0 0 0-6H39.5Z" fill="#53565C"/><path d="M34 25h4v.5h-3.5v2.25h3.08v.5H34.5v2.25H38v.5h-4v-6Z" fill="#53565C"/></svg>