<!-- by TradingView --><svg width="56" height="56" viewBox="0 0 56 56" xmlns="http://www.w3.org/2000/svg"><path fill="#F0F3FA" d="M0 0h56v56H0z"/><path d="M21.37 37.16c-.77-.74-2.4-2.11-2.66-1.7-.34.52 1.19 2.93 6.52 4.7-.42-.3-1.19-.95-.87-1.12.4-.21 2.78.2 3.04 1.13-.03.09-.15.3-.32.44.68-.02 2.1.07 2.3.51-.11.07-.54.2-1.46.2-1.16 0-.63.97.24 1.18.87.21 2.16.44 4.54.46-.94-.08-2.84-.44-2.9-1.2-.06-.95 3.54-.96 4.96-.64l-1.3-.8c.03-.24-.18-.8-1.25-1.16-1.07-.36-4.2-1.66-5.64-2.26l-5.2.26Zm10.77 2.78c-.86.43-4.22.49-4.22-.64 0-.2.5-.26 1.33 0 .06 0 .29.06.62.14.54.13 1.35.33 2.27.5Z" fill="#539FB7"/><path d="M14.85 23.69c.73-6.96 5.7-9.59 8.1-10.04-6.67 5.62-5.75 11.34-4.45 13.5.05-1.04.44-1.75.63-1.98.5 4.11 3.61 6.95 4.96 7.62a10.5 10.5 0 0 1 2.46 1.8c2.21 2.48 8.51 3.91 9.61 4.18.88.22 1.1.56 1.1.7l-6.87-1.8 5.77 2.83c.2.85 2.96.68 4.32.5-.84.2-2.89.57-4.32.4a5.57 5.57 0 0 1-2.82-1.01c0-.54-.62-1.03-.99-1.15l-5.8-2.28c1.38.83 1.28 1.38 1.06 1.54-1.35.65-4.83-.64-6.4-1.37.93 0 .96-.38.87-.57.88.29 2.67.81 2.75.57.08-.24-2.74-2.32-4.16-3.33-.5-.21-.85-.76-.96-1.01l.35-.23c-.96-.54-1.61-2.15-1.82-2.89a6.66 6.66 0 0 1-2.73-3.6c.37 4.14 2.03 4.85 2.73 5.86.56.8.07 1.75-.25 2.13-.2-.92-.86-2.95-1.98-3.72-1.13-.77-1.82-3.17-2.03-4.27l1.16 2.1c-.03-1.21-.2-3.49-.29-4.48Z" fill="#00809F"/><path d="M24.96 13.18c3.33 0 5.38 2.51 5.99 3.77-6.14-2.38-9.46 3.43-10.35 6.64-1.22-3.29 1.3-6.6 2.7-7.84-4.65 1.34-5.59 5.97-5.47 8.11.48 6.21 6.78 10.82 9.87 12.35-6.36-2.77-11.43-8-11.1-12.62.35-4.62 4.2-10.4 8.36-10.4Z" fill="#006E8C"/><path d="M27.39 15.45c2.83-.23 3.83 1.65 3.86 2.36-1.37-2.1-3.48-1.7-4.26-.98-4.74.04-5.93 3.44-5.94 5.13a7.2 7.2 0 0 0 .42 2.74c-1-1.18-1.14-2.24-1.08-2.62a7.63 7.63 0 0 1 7-6.63Z" fill="#00809F"/><path d="M27 16.82c1.33.1 2.41 1.04 2.8 1.5-2.91-1.3-4.43.04-4.83.86l-.93 1.47c-1.26 0-2.03.52-2.18 1.93-.12 1.12.62 3.35 1.02 4.3a6.1 6.1 0 0 1-1.65-6.23c1-3.25 4.13-3.96 5.78-3.83Z" fill="#005D7E"/><path d="M21.79 22.9c-.01-1.6 1.09-2.22 1.84-2.28a5.76 5.76 0 0 0 1.1 6.03 8.45 8.45 0 0 1-2.3-3.3 15.8 15.8 0 0 0 .45 3.6c-.35-.69-1.08-2.45-1.09-4.05Z" fill="#00809F"/><path d="M24.72 26.63a6.73 6.73 0 0 1-.67-6h-.43c-1.08 3 .3 5.28 1.1 6Z" fill="#4D97AE"/><path d="M17.03 15.6c2.92-3.08 7.32-2.79 9.21-2.28-5.12-.2-8.38 3-9.43 4.66-1.97 3.21-1.9 8.11-1.63 10.16L14 26.16l-.28-1.77-.72-.54.72-.5c-.12-1.3.38-4.66 3.3-7.74Z" fill="#005D7E"/><path d="m21.52 25.78-.97-2.4 2.25 3.31a12.14 12.14 0 0 0 1.94 3.16l-.35.25a10.67 10.67 0 0 0 3.47 2.81c-.4-.06-1.73-.59-3.68-2.46a11.23 11.23 0 0 1-3.28-5.3l.62.63Z" fill="#539FB7"/><path d="M18.5 26.94c-2.45-6.39 1.97-10.7 4.84-11.23-4.28 4.09-2.47 8.5-1.75 10.23l-1.43-1.6c1.67 7.52 9.49 10.48 13.25 11.02-9.25-1.28-13.4-7.25-14.29-10.13a3.9 3.9 0 0 0-.61 1.71Z" fill="#005D7E"/><path d="M26.12 32.53c-3.95-2.17-5.67-6.45-6.03-8.31l.9 1c.95 3.92 4.5 6.5 6.16 7.31h-1.03Z" fill="#00809F"/><path d="M23.76 32.7c-3.23-1.9-4.51-5.78-4.62-7.47.44 1.14 1.19 2.59 4.94 6.27 1.39 1.36 3.86 2.44 6 3.08a13.91 13.91 0 0 1-3.98-2.07c.46-.17 1.26.13 1.6.28.77.63 2.63 1.24 3.46 1.47.53.08 1.98.36 3.52.86 1.55.49 3.1-.2 3.7-.62-7.75.03-12.13-3.73-13.35-5.61 5.56 4.05 10 4.29 11.54 3.9l.58.55 2.64-.55v.55c2.58-.77 3.09-.32 3.02 0l1.19-.2v1.98l-1.2.34 1.2.3c-.77 1.55-5.05 1.89-6.85 1.68-1.43-.16-1.84.07-1.86.21 2.5 2.16 6.84 1.24 8.71.5v.73c-.46.28-1.43.8-1.63.6-.25-.26-2.3-.44-3.06 0-.6.34-1.57.14-1.98 0-.33-.34-.68-.57-.88-.6-4.1-.78-8.22-2.62-9.22-3.62-.66-.66-2.7-2.1-3.47-2.55Z" fill="#539FB7"/><path d="M42.76 35.44 44 35.1v3.03h-1.7v-.46c-.58.57-2.84.81-3.9.86l.52.46c-.77 0-4.03-.75-3.75-1.32.23-.46 1.8-.39 2.5-.26 4.02.1 5.8-1.02 6.22-1.62l-1.13-.35Z" fill="#00809F"/><path d="M19.88 34.5c1.06.2 1.24-.22 1.2-.46 1.36.94 4.02 2.87 3.73 3.14-.28.28-1.87-.27-2.62-.57a5.63 5.63 0 0 1-2.31-2.1Z" fill="#006E8C"/><path d="M29.8 41.68c0 .99 1.97 1.27 2.88 1.32-2.68-1.29.31-1.8 2.15-1.89-1.64-.36-5.03-.39-5.03.57Z" fill="#00809F"/><path d="M36.78 42.08c-.42.01-.6-.47-.62-.71h1.26l-.64.71ZM31.24 20.36c1.14-2.84-1.78-6.28-4.27-3.53.77.01 2.77.67 4.27 3.53Z" fill="#539FB7"/><path d="m36.1 40.47-5.8-2.86c2.42.66 7.75 2.12 8.56 2.01.8-.1 1.08.12 1.13.24-.27.3-1.07.85-2.14.61s-1.61-.1-1.75 0Z" fill="#005D7E"/></svg>