<!-- by TradingView --><svg width="56" height="56" viewBox="0 0 56 56" xmlns="http://www.w3.org/2000/svg"><path fill="#F0F3FA" d="M0 0h56v56H0z"/><path d="M28.02 12c-12.98 0-16.48 11.5-15.97 17.33.33-3.33 2.93-10 10.65-10C32.35 19.33 35 26 35 30c0 3-1.44 6.55-2.33 8C41.74 38 44 31.33 44 28c0-5.5-3-16-15.98-16Z" fill="#183F85"/><path d="M22.7 20c3.72 0 5.77 1.11 6.32 1.67-3.33 0-9.99 2.52-9.99 11.33 0 8.66 7.33 11 9.99 11h-2.33c-7.65 0-13.98-7.33-13.98-13.33S18.04 20 22.7 20Z" fill="#4AA35A"/><path d="M28.7 38c-5.24-1.66-6.22-9.22-6-12.67-1.67 2-2.66 3.63-2.66 8.67 0 5 5.49 9.5 9.98 9.5C39 43.5 43 35.5 43.8 31c-2.8 7.5-8.78 9-15.1 7Z" fill="#4BA6E0"/></svg>