<!-- by TradingView --><svg xmlns="http://www.w3.org/2000/svg" width="56" height="56"><path d="M0 28a28 28 0 1156 0 28 28 0 01-56 0z" fill="#F0F3FA"/><path d="M19.5 32.5H17V32h2.5v.5z" fill="#D4A25F"/><path d="M12.78 18.91c-.52.42-1.62 1.5-2.11 2.08a20.8 20.8 0 00-2.87 4.34c-1.49 2.99-2.09 5.7-1.67 7.83.3 1.48 1.09 2.46 2.23 2.76.42.1 1.21.1 1.72 0 1.47-.33 3.1-1.36 4.7-2.96 2.83-2.83 4.93-6.74 5.43-10.36.1-.7.1-2.08-.01-2.64-.3-1.58-1.29-2.92-3-2.96-1.64-.04-3.18.93-4.42 1.91zm4.2.07c.63.15 1.12.57 1.45 1.25.98 1.99.06 5.96-2.16 9.27a13.92 13.92 0 01-2.95 3.13 7.94 7.94 0 01-2.4 1.33c-.4.11-1.1.16-1.46.09-.96-.18-1.65-1.04-1.88-2.36a8.46 8.46 0 010-2.06c.6-4.34 4.16-9.26 7.45-10.47a3.42 3.42 0 011.95-.18zm19.17 1.13L34.03 31l1.46-.13L37.63 20l-1.48.11zm12.72 2.96c-.17.03-.43.1-.57.16-.52.21-1.15.64-1.54 1.16-.1.12-.18.2-.18.18l.16-.83a12 12 0 00.13-.74l-1.46.18L43.9 31l1.46-.13.32-1.6c.32-1.63.43-2.13.63-2.7.44-1.23 1.1-1.83 2.13-2.03.18-.04.4-.07.48-.07h.15l.46-.74L50 23h-.42a4 4 0 00-.71.07zm-24.68-.02A5.19 5.19 0 0020.07 27c-.09.4-.1 1.2 0 1.53a3.26 3.26 0 002.3 2.38c.28.07 1.09.1 1.47.05a5.39 5.39 0 002.45-1.13c.06-.05.05-.08-.3-.53l-.38-.49c-.74.56-1.62 1.02-2.58.79-1.67-.4-1.79-2.5-1.03-3.76a4 4 0 011.15-1.12 2.8 2.8 0 012.52-.2c.11.06.3.19.41.29l.23.18c.03 0 1.01-.9 1.03-.94.02-.04-.24-.3-.47-.48a3.58 3.58 0 00-2.68-.53zm16.17.02c-.47.08-1.17.22-1.23.25l-.61 1.43s1.77-.6 2.76-.5c.57.07.9.23 1.05.52.11.22.12.48.03.96l-.08.42-.1-.08a2.91 2.91 0 00-2.04-.59 3.46 3.46 0 00-3.25 2.88c-.19 1.03.15 1.89.89 2.31a3.59 3.59 0 003.65-.36c.13-.1.24-.17.24-.16l-.1.85 1.22-.13s.99-5.06 1.03-5.42c.03-.18.03-.5.02-.67-.07-.98-.53-1.51-1.5-1.7a7.37 7.37 0 00-1.98 0zm-12.24.05l-.95 5.02a5.15 5.15 0 000 1.45c.15.7.6 1.17 1.26 1.33.7.16 1.41.07 2.06-.25.39-.2 1.03-.77 1.03-.77l-.18 1.1 1.43-.14L34.3 23l-1.44.12-.46 2.3a83.35 83.35 0 01-.5 2.43c-.35 1.34-1.12 2-2.27 1.93-.38-.03-.63-.12-.8-.31-.2-.2-.23-.35-.23-.88 0-.44.03-.61.49-2.93l.5-2.66-1.46.12zm12.99 3.68c.83.25 1.12 1.02.7 1.89-.21.44-.7.8-1.28.95-.32.08-.92.1-1.2.06-.44-.09-.72-.29-.9-.62a.87.87 0 01-.1-.52c0-.48.2-.97.54-1.3.54-.49 1.5-.69 2.24-.46z" fill="#16326B"/><path d="M18.55 32v4h-.5v-4h.5zm1.8 1.29V32l-.5.15V36h.5v-1.8a.83.83 0 011.65 0V36h.5v-1.68a1.32 1.32 0 00-2.15-1.03zm6.65.08c.26-.27.61-.46 1-.47v.5c-.41 0-1 .45-1 .95V36h-.5v-3h.5v.37z" fill="#D4A25F"/><path fill-rule="evenodd" d="M29.2 36a1 1 0 100-2 1 1 0 000 2zm.13-.3a.7.7 0 100-1.4.7.7 0 000 1.4z" fill="#D4A25F"/><path d="M28.4 33.14v.5s1-.42 1.37-.16a.5.5 0 01.23.4V36h.5v-2.05a1 1 0 00-.6-.92c-.47-.2-1.03.02-1.5.11z" fill="#D4A25F"/><path fill-rule="evenodd" d="M24.59 35.56c.69 0 1.16-.53 1.16-.53v.53s-.47.44-1.16.44a1.5 1.5 0 01-1.52-1.5 1.5 1.5 0 012.86-.69l-2.2 1.32c.2.26.5.43.86.43zm.68-1.87l-.49.3-1.24.72a1.06 1.06 0 011.05-1.27c.26 0 .5.1.68.25zm11.01 1.87c.7 0 1.16-.53 1.16-.53v.53s-.47.44-1.16.44a1.5 1.5 0 01-1.51-1.5 1.5 1.5 0 012.85-.69l-2.2 1.32c.2.26.51.43.86.43zm.69-1.87l-.5.3-1.23.72a1.06 1.06 0 011.04-1.27c.26 0 .5.1.69.25zm-2.77.81a1.5 1.5 0 01-2.5 1.12v1.88h-.5V33h.5v.38a1.5 1.5 0 012.5 1.12zm-2.5.33v-.66a1.05 1.05 0 110 .66z" fill="#D4A25F"/><path d="M38.2 33h.4v1.78c0 .42.35.76.77.75.3-.01.56-.16.73-.38V33h.5v3h-.5v-.56a1 1 0 01-1.9-.44v-2zm3.8-1h-.5v3.35c0 .44.36.8.8.8h.4v-.5h-.25a.45.45 0 01-.45-.45V32z" fill="#D4A25F"/><path d="M41.15 33h1.65v.5H41l.15-.5zm2.05 0h.5v3h-.5zm-.13-.73l.33-.37.38.33-.33.37-.38-.33zm3.05.59l.4.3-2.24 2.88-.4-.3 2.24-2.88z" fill="#D4A25F"/><path d="M44.27 32.86l-.4.3 3.45 4.34h.64l-3.7-4.64zM21 32h20v.5H21z" fill="#D4A25F"/></svg>