<!-- by TradingView --><svg xmlns="http://www.w3.org/2000/svg" width="56" height="56" viewBox="0 0 56 56"><path fill="#F0F3FA" d="M0 0h56v56H0z"/><path d="M40.37 15.88a13.68 13.68 0 0 0-9.18-3.53 13.93 13.93 0 0 0-13.84 14.01c0 2.05.44 3.99 1.21 5.74a13.76 13.76 0 0 1-2.83-8.4c0-7.56 6.06-13.7 13.53-13.7 4.6 0 8.67 2.33 11.11 5.88z" fill="url(#a24oalbkj)"/><path d="M40.87 39.1a14.1 14.1 0 0 0 1.97-9.75 13.86 13.86 0 0 0-15.86-11.6c-2 .32-3.82 1.07-5.4 2.12a13.42 13.42 0 0 1 7.73-4.17 13.55 13.55 0 0 1 15.51 11.35 13.8 13.8 0 0 1-3.95 12.05z" fill="url(#b24oalbkj)"/><path d="M15.32 17.42a14.1 14.1 0 0 0-2.16 9.7c1.08 7.67 8.08 13 15.65 11.9 2-.28 3.83-.99 5.43-2.01a13.42 13.42 0 0 1-7.8 4.02 13.56 13.56 0 0 1-15.3-11.64 13.8 13.8 0 0 1 4.18-11.97z" fill="url(#c24oalbkj)"/><path d="M16.84 41.48a13.65 13.65 0 0 0 9.56 2.33c7.58-.98 12.94-8 11.97-15.68-.25-2.02-.92-3.9-1.91-5.53a13.72 13.72 0 0 1 3.85 7.96A13.67 13.67 0 0 1 28.6 45.89c-4.56.59-8.89-1.2-11.76-4.41z" fill="url(#d24oalbkj)"/><ellipse cx="28" cy="28.38" rx="3" ry="3" fill="#212BD2"/><ellipse cx="28" cy="28.38" rx="1.51" ry="1.53" fill="#949DED"/><defs><linearGradient id="a24oalbkj" x1="37.11" y1="12.75" x2="16.68" y2="26.7" gradientUnits="userSpaceOnUse"><stop offset=".16" stop-color="#258BF5"/><stop offset=".73" stop-color="#55B4FF"/><stop offset="1" stop-color="#3295F7"/></linearGradient><linearGradient id="b24oalbkj" x1="44.87" y1="32.84" x2="28.54" y2="19.51" gradientUnits="userSpaceOnUse"><stop stop-color="#3461E0"/><stop offset=".31" stop-color="#5079E6"/><stop offset="1" stop-color="#2756DE"/></linearGradient><linearGradient id="c24oalbkj" x1="11.78" y1="22.36" x2="26.57" y2="40.95" gradientUnits="userSpaceOnUse"><stop stop-color="#353AD2"/><stop offset=".27" stop-color="#5757D9"/><stop offset="1" stop-color="#2028CE"/></linearGradient><linearGradient id="d24oalbkj" x1="26.55" y1="43.54" x2="40.96" y2="28.88" gradientUnits="userSpaceOnUse"><stop stop-color="#C9844C"/><stop offset=".71" stop-color="#FEB157"/><stop offset="1" stop-color="#DB9350"/></linearGradient></defs></svg>