<!-- by TradingView --><svg width="56" height="56" viewBox="0 0 56 56" xmlns="http://www.w3.org/2000/svg"><path fill="#F0F3FA" d="M0 0h56v56H0z"/><path d="M7.96 35 7 33.75V23.2l.96-1.2h4.76L14 23.24v4.13c0 .3-.14.6-.38.77l-1.26.75a.9.9 0 0 0-.36.77v4.09L10.82 35H7.96ZM9 24v9h1v-1.67c0-.54.43-1.05.8-1.38l.61-.56c.37-.34.59-.85.59-1.39v-4H9Zm5 8.97V35h4.85L20 33.72v-3.94c0-.37.24-.72.54-.91l.98-.66c.3-.2.48-.55.48-.92v-4.03L20.8 22H16v8.32c0 .32-.23.64-.48.84l-1.14.96c-.24.2-.38.52-.38.85Zm4 .03h-2v-1.22c0-.44.18-.84.54-1.07l.78-.5c.36-.22.68-.62.68-1.06V24h1.62l.38.43v3.78c0 .5-.2.96-.6 1.24l-.7.48c-.4.28-.7.74-.7 1.24V33Zm4 2v-2.03c0-.33.14-.64.38-.85l1.14-.96c.25-.2.48-.52.48-.84V22h4.8l1.2 1.26v4.03c0 .38-.18.72-.48.92l-.98.66c-.3.2-.54.54-.54.91v3.94L26.85 35H22Zm2-2h2v-1.83c0-.5.3-.96.7-1.24l.7-.48c.4-.28.6-.74.6-1.24v-3.78l-.38-.43H26v5.15c0 .44-.32.84-.68 1.07l-.78.5c-.36.22-.54.62-.54 1.06V33Zm10-11h-2v13h2V22Zm3 0h-2v2h2v11h2V24h2v-2h-4Zm5.5 0h2.18L46 26.71l1.89-4.7H50l-3 7.17V35h-2v-5.82L42.5 22Z"/><path d="M33.64 16 32 19h.58l-.24 2L34 18.01h-.57l.2-2.01Z" fill="#4538F8"/></svg>