<!-- by TradingView --><svg width="56" height="56" viewBox="0 0 56 56" xmlns="http://www.w3.org/2000/svg"><path fill="#F0F3FA" d="M0 0h56v56H0z"/><path d="M28.5 39.5V45A17 17 0 0 0 45 28.35h-5.5a11.5 11.5 0 0 1-11 11.14Z" fill="#EB7E23"/><path d="M16.5 28.35H11A17 17 0 0 0 27.5 45v-5.5a11.5 11.5 0 0 1-11-11.15Z" fill="#00683F"/><path d="M27.5 11A17 17 0 0 0 11 27.34h5.51a11.5 11.5 0 0 1 11-10.84V11Z" fill="#007674"/><path d="M28.5 16.5a11.5 11.5 0 0 1 10.98 10.84H45A17 17 0 0 0 28.51 11v5.5Z" fill="#A2BECF"/><path d="M21.55 25.94a3.17 3.17 0 1 0 0 6.34 3.17 3.17 0 0 0 0-6.34Zm-1.98.2a3.57 3.57 0 1 1 3.96 5.94 3.57 3.57 0 0 1-3.96-5.94Z" fill="#231F20"/><path d="m20.51 23.26.85-.1-.04.21.41.2-.33.14-.04.34h-.24v.04l.2.05s.51.38.6.47c.1.08.2.14.32.16.04 0 .62-.39.7-.4h.3v.32a.96.96 0 0 0-.27 0c-.04.03-.45.53-.5.57-.06.05-.82-.18-.82-.14l.12.48-.82.54-.57-1.07a4 4 0 0 1 .16-.96c.1-.18-.1-.4-.08-.52.03-.1.04-.22.05-.33ZM20.87 26.43h1.16v.33h-1.15l-.01-.33Z" fill="#231F20"/><path d="M22.72 26.45c.16.16.26.36.3.57 0 .25-.24.36-.36.42-.42.22-.86.38-1.32.47-.18-.03-.04-.05 0-.12.05-.06-.74.15-1.06-.05-.07-.05.17-.04.17-.04s-.4-.23-.47-.41c-.07-.2.52.86 1.72-.16.77-.64.97-.69 1.02-.68ZM23.1 27.31l.2-.2v.03c.21-.08.43-.14.65-.17.07.04-.11.41-.42.44-.32.02-.06 0-.06 0l.03.04-.28.14-.12-.28ZM23.12 26.27l.2.7c.2-.12.4-.21.61-.29.27-.08.53-.07.52-.11a.67.67 0 0 1 0-.27s-.18-.22-1.33-.03ZM24.29 27.65l.1-.52s-.95 1.08-.96 1.14c0 .06-.08 1.22-.26 1.27-.18.06-.89.1-.9.13-.02.03-.83 1.2-.9 1.26-.06.06-.3.4-.57.3-.26-.1-.08-.17-.12-.17-.04 0-.7.4-.68.47.02.07.7-.05.73-.06h.54c.05 0 .95-1.14 1-1.14.6.1 1.23.15 1.86.15.7-.2 1.39-.48 2.04-.83-.3-.27-.6-.52-.93-.73-.35-.24-.68-.5-.98-.8-.09-.1-.01-.3.03-.47Z" fill="#231F20"/><path d="m24.74 26.7-.24 1.26s2 1.58 2.04 1.66c.11.21.19.45.23.68.05.4 0 .8 0 .8.34.05 2.06-.28 2.22-.26.17.02.57.07.66.28.09.2-.07.05-.07.05l-.13.17s.35.31.64.25c.08 0 0-.2-.1-.38l-.14-.33c-.02-.03-.14-.09-.26-.15l-.3-.17c-.03 0-1.56.07-1.54 0 .16-.57.27-1.16.31-1.76-.2-.26-.42-.5-.65-.74-.33-.32-.66-.53-.63-.57.04-.03.2-.18.25-.14.04.03 1.21 1.23 1.22 1.3.02.07 0 .55 0 .57 0 .03 2.42.87 3.75.7.1 0-.49-.9-.41-.94.07-.04.14-.19.19-.15.15.26.3.52.41.8.13.31.29.62.47.9.18 0 2.66-1.21 2.77-1.19.12.03 1.88 1.15 1.9 1.22 0 .06-.1.06-.07.1.03.02.2.06.2.1 0 .02.08.13.04.15h-.16c-.02 0-.12.08-.1.1.01.03.42.48.6.46.18-.02-.06-.93-.29-1.1l-.73-.58a8.9 8.9 0 0 0-.87-.68 2 2 0 0 0-.95-.17c-.5.12-1 .18-1.5.2-.05-.09-.27-1.59-.35-1.72a37.9 37.9 0 0 1-1.02-2.78c.07.05.33.37.38.4.04.03.14 0 .18.05l.48.44c.02.02.25.3.3.28.04-.01.37-.15.38-.22.04-.22.04-.44 0-.66-.19-.3-.35-.6-.47-.93.04-.07.17-.23.15-.27-.1-.26-.2-.52-.33-.76-.06-.06-.25-.16-.24-.2.01-.06.33-.63.24-.77-.08-.15-.14.12-.24.19-.1.07-.3.2-.3.3 0 .08-.4-.05-.6-.04-.21.04-.43.04-.64 0a3.38 3.38 0 0 1-.4-.18c-.04 0 .1.17.15.21.05.05-.87-.12-.86-.07.1.15.2.3.33.42-.2-.03-.39-.07-.57-.14-.17-.04-.33-.1-.32-.07.12.29.28.55.48.79.08.04-.2-.05-.45-.13-.14-.05-.27-.1-.26-.08.04.23.16.43.33.57.25.18-.47-.05-.42.03.15.15.31.28.49.39-.16.04-.32.06-.48.04-.2 0-.43-.03-.41 0 .17.2.36.38.57.53.18.12-.24-.03-.24.04.1.19.24.34.42.46.16.1-.24 0-.23.04.04.1.09.2.16.29.08.1.17.17.15.2-.02 0-.45.56-.54.56-.08 0-1.5 0-1.58.05a6.48 6.48 0 0 0-1.94-.08c-.37.07-.73.2-1.06.38Z" fill="#231F20"/><path d="m33.2 30.5.72-.32.18.75-1.6.42c-.1.04-.3.16-.36.17a6.2 6.2 0 0 1-.86-.19s-.48-.67-.45-.67c.03 0 .84.11.83.2 0 .07 0 .12-.08.15-.08.04-.06.07-.03.08.2.07.4.09.62.07.39-.13.77-.28 1.14-.46a2.04 2.04 0 0 0-.11-.2Z" fill="#231F20"/></svg>