<!-- by TradingView --><svg width="56" height="56" viewBox="0 0 56 56" xmlns="http://www.w3.org/2000/svg"><path fill="#C00" d="M0 0h56v56H0z"/><path fill-rule="evenodd" d="M11 29c2.76 0 5-2.01 5-4.5S13.76 20 11 20s-5 2.01-5 4.5S8.24 29 11 29Zm0-2c1.1 0 2-1.12 2-2.5s-.9-2.5-2-2.5-2 1.12-2 2.5.9 2.5 2 2.5Z" fill="#F0F3FA"/><path d="M29.54 19v1.5c-2.04 0-2.04.5-2.04 1.5H29v1.5h-1.5v4.05H29V29h-5.46v-1.45H25V23.5h-1.5V22H25c0-2.55 1.6-3.03 2.4-3h2.14ZM23.04 19v1.5C21 20.5 21 21 21 22h1.5v1.5H21v4.05h1.5V29H17v-1.45h1.5V23.5H17V22h1.5c0-2.55 1.6-3.03 2.4-3h2.14ZM30 23.5V22h4v5.53h1.5V29H30v-1.47h1.5V23.5H30Z" fill="#F0F3FA"/><ellipse cx="32.5" cy="20" rx="1.5" ry="1" fill="#F0F3FA"/><path d="M42 22.18v2.32h-1.57c0-.3-.1-1-.52-1-.52 0-1.41.83-1.41 2s1.07 2 1.76 2c.56 0 1.4-.38 1.74-.5v1.5c-.4.12-1.4.5-2.09.5-.87 0-3.91-.18-3.91-3.5s3.22-3.5 4.17-3.5c.77 0 1.54.12 1.83.18Z" fill="#F0F3FA"/><path fill-rule="evenodd" d="M50 26v-2c0-.5-1.2-2-3.19-2-2.48 0-3.81 1.83-3.81 3.52 0 1.7 1.24 3.49 4.08 3.49 2.26 0 2.9-.36 2.92-.54V27c-.38.15-1.4.45-2.4.45-1.23 0-2.1-.74-2.1-1.45H50Zm-4.5-1.5H48c-.09-.36-.48-1-1.19-1-.7 0-1.22.46-1.31 1Z" fill="#F0F3FA"/><path d="M8 30h5.16c1.28-.03 3.84.56 3.84 3.18C17 37 13.8 37 13.56 37H8v-1l1.5-.5v-3.95L8 31v-1Zm4 1.55v3.95h1.32c.43 0 1.18-.6 1.18-2.14 0-1.83-1.4-1.82-1.94-1.81H12ZM25 30h-7v1c.15.02.37.08.63.14l.37.08v4.56l-.36.08c-.26.06-.49.12-.64.14v1h7v-2h-2c-.03.12-.37.42-1.5.45V34H23v.5h1.5v-2H23v.5h-1.5v-1.46c1.13.03 1.47.34 1.5.46h2v-2Z" fill="#F0F3FA"/><path fill-rule="evenodd" d="M27 30h-1v1l1 .48v4.06L26 36v1h4v-1l-.5-.2V35h.5c.75 0 3-.47 3-2.74 0-1.8-1.97-2.26-3-2.26h-3Zm2.5 1.6v1.9h.33c.17 0 .67-.47.67-1 0-.64-.23-.88-1-.9ZM38.13 36.88a3.84 3.84 0 0 0 2.81-4.3 3.2 3.2 0 0 0-4.07-2.46 3.84 3.84 0 0 0-2.81 4.3 3.2 3.2 0 0 0 4.07 2.46ZM37.5 35a1.5 1.5 0 1 0 0-3 1.5 1.5 0 0 0 0 3Z" fill="#F0F3FA"/><path d="M42 30h6.5v2H47v-.5h-.5v4.04l1 .46v1H43v-1l1-.4v-4.1h-.5v.5H42v-2Z" fill="#F0F3FA"/></svg>