<!-- by TradingView --><svg width="56" height="56" viewBox="0 0 56 56" xmlns="http://www.w3.org/2000/svg"><path fill="url(#aibvaoyxb)" d="M0 0h56v56H0z"/><path d="m28 28.08 1.45-4.97A80.58 80.58 0 0 1 30.8 18c.23-.27 3.13.55 4.66 1.31A9.71 9.71 0 0 1 41 27.64c.38 4.67-2.17 8.29-7.1 9.91-1.33.44-3.58.88-4.53.88H28V41l2.33-.12c6.14-.43 10.9-2.31 13.78-5.46a10.16 10.16 0 0 0 2.87-6.6c.12-1.82-.23-3.61-1.07-5.37-.8-1.7-3.15-4.13-5.01-5.21a24.18 24.18 0 0 0-9.34-2.84 12.8 12.8 0 0 1-1.66-.22c-.04-.03-.43-1.21-.88-2.62L28 10v18.08Zm-3.67-12.7c-1.95.2-4.63.84-6.45 1.54-2.4.93-3.9 1.89-5.58 3.58a9.04 9.04 0 0 0-2.17 2.95 10.2 10.2 0 0 0-1.1 5.36c.45 6.4 5.98 10.83 14.86 11.9 1.13.13 2.37.29 2.75.29H27V38.43h-.4c-1.15 0-3.82-.6-5.28-1.17-5.04-2-7.2-6.23-6-11.43.1-.42.43-1.32.75-2 1.49-3.25 5.18-5.57 9.8-6.03l1.13-.12V15.2l-.6.02c-.34.02-1.27.09-2.07.17Z" fill="#fff"/><defs><linearGradient id="aibvaoyxb" x1="10.42" y1="9.71" x2="68.15" y2="76.02" gradientUnits="userSpaceOnUse"><stop stop-color="#1A1E21"/><stop offset="1" stop-color="#06060A"/></linearGradient></defs></svg>