<!-- by TradingView --><svg xmlns="http://www.w3.org/2000/svg" width="56" height="56"><path fill="url(#agfqmrtqb)" d="M0 0h56v56H0z"/><path d="M22 24.98V23c-2.91.23-4.96 2.3-5 5.63V33h2v-4.38c0-2.23 1.35-3.64 3-3.64z" fill="#fff"/><path d="M45 25v-2c-2.91.23-4.96 2.3-5 5.63V33h2v-4.38C42 26.4 43.35 25 45 25z" fill="url(#bgfqmrtqb)"/><path d="M46 25v-2c2.91.23 4.96 2.3 5 5.63V33h-2v-4.38C49 26.4 47.65 25 46 25z" fill="#3EB876"/><path fill-rule="evenodd" d="M33 33a5 5 0 100-10 5 5 0 000 10zm0-2a3 3 0 100-6 3 3 0 000 6z" fill="url(#cgfqmrtqb)"/><path fill-rule="evenodd" d="M10 33a5 5 0 100-10 5 5 0 000 10zm0-2a3 3 0 100-6 3 3 0 000 6z" fill="#fff"/><path d="M24 23h2v10h-2V23z" fill="#fff"/><defs><linearGradient id="agfqmrtqb" x1="10.42" y1="9.71" x2="68.15" y2="76.02" gradientUnits="userSpaceOnUse"><stop stop-color="#1A1E21"/><stop offset="1" stop-color="#06060A"/></linearGradient><linearGradient id="bgfqmrtqb" x1="42.51" y1="28.63" x2="44.13" y2="23.31" gradientUnits="userSpaceOnUse"><stop stop-color="#45B8A7"/><stop offset="1" stop-color="#41B891"/></linearGradient><linearGradient id="cgfqmrtqb" x1="28.31" y1="29.06" x2="38.03" y2="29.06" gradientUnits="userSpaceOnUse"><stop offset=".31" stop-color="#43B8EA"/><stop offset=".64" stop-color="#44B8D1"/><stop offset="1" stop-color="#46B9B6"/></linearGradient></defs></svg>