<!-- by TradingView --><svg width="56" height="56" xmlns="http://www.w3.org/2000/svg"><path fill="#004796" d="M0 0h56v56H0z"/><path d="M30 38.206c-2.818-1.71-5.27-4.665-6.665-8.428-1.4-3.777-1.46-7.635-.427-10.778l-10.2 3.794c-1.033 3.144-.973 7.001.427 10.778 1.394 3.763 3.847 6.719 6.665 8.428L30 38.206z" fill="#fff"/><path d="M37.475 40.08c5.746-2.164 8.149-10.081 5.368-17.683-2.781-7.604-9.693-12.012-15.44-9.847L17 16.469c5.746-2.165 12.659 2.244 15.44 9.846 2.78 7.603.377 15.52-5.369 17.684l10.404-3.918z" fill="#fff"/></svg>