<!-- by TradingView --><svg width="56" height="56" viewBox="0 0 56 56" xmlns="http://www.w3.org/2000/svg"><path fill="#F0F3FA" d="M0 0h56v56H0z"/><path d="M38.9 39.71a16 16 0 1 0-21.66.12c.7-.34 1.4-.77 2.02-1.26 1.26-1 1.74-1.9 1.74-2.57 0-1.65-.41-3.02-.87-4.23l-.34-.86-.01-.02c-.12-.29-.24-.59-.34-.88A5.93 5.93 0 0 1 19 28c0-.76.29-1.67.62-2.45.36-.86.9-1.84 1.6-2.77C22.57 20.97 24.84 19 28 19c3.13 0 5.4 1.92 6.78 3.73.7.92 1.24 1.9 1.6 2.77.34.8.62 1.72.62 2.5 0 .7-.21 1.5-.4 2.1-.15.5-.33 1.05-.52 1.6l-.18.54A13.88 13.88 0 0 0 35 36c.02.06.1.34.5.86a11.1 11.1 0 0 0 1.97 1.87c.45.34.93.68 1.43.98Zm-3.49 2.47-.38-.28a15.02 15.02 0 0 1-2.69-2.59A5.58 5.58 0 0 1 31 36c0-1.66.62-3.6 1.1-5.03l.21-.62c.18-.52.34-.98.46-1.4.09-.29.15-.52.19-.7L33 28V28a4.54 4.54 0 0 0-.3-.94 8.9 8.9 0 0 0-1.1-1.9C30.6 23.83 29.37 23 28 23c-1.35 0-2.58.85-3.59 2.19a9.28 9.28 0 0 0-1.1 1.91c-.21.5-.28.79-.3.88V28c0 .04.03.21.18.62l.3.76.01.03.37.93A15.5 15.5 0 0 1 25 36c0 2.53-1.68 4.46-3.26 5.7-.28.23-.56.44-.86.63a15.93 15.93 0 0 0 14.53-.15Z" fill="#0E5DAA"/></svg>