<!-- by TradingView --><svg width="56" height="56" viewBox="0 0 56 56" xmlns="http://www.w3.org/2000/svg"><path fill="#F0F3FA" d="M0 0h56v56H0z"/><path fill-rule="evenodd" d="M23 28a8 8 0 1 1-16 0 8 8 0 0 1 16 0Zm-2-.04a6 6 0 1 1-12 0 6 6 0 0 1 12 0ZM36 20H25v16h2v-7h8v-2h-8v-5h9v-2Zm5.41.06a5.5 5.5 0 0 0-2.81 1.1 4.09 4.09 0 0 0-1.32 4.5c.5 1.55 1.83 2.38 5 3.13 3.18.76 4.08 1.46 3.98 3.11-.12 1.85-2.03 2.82-4.7 2.39a7.59 7.59 0 0 1-3.51-1.68 2.65 2.65 0 0 0-.48-.34c-.05 0-.7.72-1 1.13-.09.1-.03.18.5.59a8.55 8.55 0 0 0 5.96 1.97 5.28 5.28 0 0 0 3.79-1.44A3.74 3.74 0 0 0 48 31.57c0-1.25-.28-1.95-1.1-2.72-.82-.77-2.06-1.3-4.16-1.76-3.02-.68-3.97-1.44-3.87-3.13.03-.48.07-.62.28-.97.71-1.2 2.54-1.68 4.53-1.2.74.19 1.75.67 2.36 1.12.25.18.47.33.5.33.03 0 .28-.3.55-.66l.14-.18c.18-.24.28-.36.26-.47-.02-.11-.16-.2-.44-.4l-.2-.13a8.19 8.19 0 0 0-5.44-1.34Z" fill="#FCB062"/></svg>