<!-- by TradingView --><svg width="56" height="56" viewBox="0 0 56 56" xmlns="http://www.w3.org/2000/svg"><path fill="#F0F3FA" d="M0 0h56v56H0z"/><path d="M40 17.25A13.13 13.13 0 0 1 28 25c-5.36 0-9.97-3.18-12-7.75A16.24 16.24 0 0 1 28 12c4.76 0 9.03 2.02 12 5.25ZM12.75 23.07c4.92-.53 9.9 1.86 12.53 6.54A13.49 13.49 0 0 1 24.5 44 16.26 16.26 0 0 1 12 28.02c0-1.73.27-3.38.75-4.95ZM43.25 23.08c.5 1.55.75 3.21.75 4.94A16.3 16.3 0 0 1 31.49 44a13.49 13.49 0 0 1-.77-14.4 12.75 12.75 0 0 1 12.53-6.52Z" fill="#181B1E"/></svg>