<!-- by TradingView --><svg width="56" height="56" xmlns="http://www.w3.org/2000/svg"><path fill="#FDF122" d="M0 0h56v56H0z"/><path d="M51.916 26.374c.19-.208.03-.624-.19-.912-.918-1.167-1.91-2.207-3.309-2.67-1.997-.673-3.92-.625-5.889.783.19-.576.306-.96.438-1.328.816-2.287.816-2.287-1.05-3.247h-.408c-.67.176-.904.688-.904 1.392 0 .944-.014 1.887.044 2.863a98.047 98.047 0 01-5.073-.416c-.991-.112-1.53.432-1.604 1.504-.029.336.117.656.073.991 0 .017 0 .032-.014.049v-.017c.058-.623-.175-1.055-.744-1.28 1.079-1.23.788-2.91-.568-3.566-.67-.336-1.385-.336-2.1-.224-1.02.16-1.894.912-1.982 1.775-.116 1.056.423 1.728 1.24 2.176h.028a.244.244 0 00.132-.144c.276.08.553.176 1.035.32-.642.176-1.065.16-1.473-.08.088-.064.19-.048.292-.096-.16-.048-.335-.096-.51-.144-.89.112-1.08.816-1.05 1.615.058 1.488-.204 2.96-.233 4.431-.015.4 0 .912-.554.848-.554-.064-.423-.56-.394-.96 0-.144 0 .032.015-.112.16-1.551.32-3.087.598-4.623.276-1.6-.19-2.175-1.72-2.207-.642-.016-1.298.016-1.94-.048-1.574-.176-2.113.336-2.113 2.096 0 1.343-.03 2.67-.248 3.983-.087.527-.19 1.071-.845 1.023-.656-.048-.569-.64-.569-1.087.015-1.744-.058-3.488.044-5.231.058-1.056-.32-1.536-1.268-1.6-1.05-.064-2.114-.128-3.164.064-.568.112-1.064.064-1.56-.288-2.798-1.92-7.536-.64-9.43 2.992-.482.927-.65 1.962-.912 2.954 0 0-.128 2.093.093 3.403.022.136.075.345.075.345.7 2.927 2.55 4.431 5.19 4.959 2.259.448 4.3-.208 6.224-1.616-.03 1.136.408 1.472 1.34 1.216.817-.224 1.663-.368 2.508-.496.627-.096 1.341-.416 1.677.608.102.304.466.24.743.24 2.084-.032 4.14.288 6.21.384 1.516.064 2.988-.624 4.533-.496.088 0 .234-.064.263-.144.335-.912 1.05-.64 1.647-.624.816.016 1.633.192 2.449.128 1.21-.112 2.478 1.024 3.644-.176.03-.032.19.064.277.128 1.88 1.312 3.936 1.184 6.02.816 3.703-.64 5.175-4.671 2.566-7.486 1.18-.544 1.604-1.856 2.42-2.768zm-18.017.624c-.059.512-.132 1.04-.19 1.552-.073.384-.146.768-.233 1.151-.16-.48-.263-.943 0-1.391.044-.528-.059-1.072.218-1.568 0-.464.044-.912.277-1.312a.148.148 0 01.117 0l-.19 1.568zm4.169 4.703c-.277-.176-.831.288-.831-.432 0-.448.306-.736.67-.544.394.192 1.166-.4 1.166.512 0 .816-.685.256-1.005.464zm3.12-2.4c-.7.193-1.196.225-.744-.831.218-.512-.321-.72-.467-1.088h-.059c-.699.16-1.398.208-2.098-.032.7-.256 1.4-.096 2.099.032.015 0 .03 0 .058-.016 0 0 0 .016.015.016 1.02.32 1.108-.448 1.166-1.232.073-.543.146-1.071.204-1.615.058-.512.335-.448.7-.32-.569.864-.598 1.823-.569 2.815.117.704.452 1.296.831 1.872-.35.32-.772.288-1.137.4zm4.722 2.688c-.146.32-.452.288-.714.272-1.035-.048-1.662-.848-1.662-2.208.729.32 1.443.592 2.07 1.088.248.208.481.464.306.848zm.933-5.23c1.21.08 1.676.863 2.26 1.95-1.065-.447-1.808-.863-2.26-1.95z" fill="#231F20"/><path d="M17.004 29.317c.029 3.728-2.333 6.175-6.035 6.223-3.513.048-5.89-2.287-5.904-5.823-.015-4.335 2.697-7.614 6.312-7.598 3.25 0 5.597 3.008 5.627 7.198zM44.38 35.732a5.433 5.433 0 01-2.668-.544c-.744-.352-1.035-.912-.758-1.775.306-.96.495-1.872-.904-1.872-.248 0-.437-.24-.306-.432.248-.4.379-.944.86-1.152.117-.047.277 0 .408-.047.948-.369 1.575-.448 1.75 1.055.13 1.2 1.326 1.888 2.478 1.888.612 0 1.064-.256 1.282-.88.22-.592-.014-1.088-.379-1.52-.524-.623-1.282-.831-1.938-1.215-1.181-.704-2.172-1.568-2.129-3.232.03-1.423 1.152-2.735 2.726-2.943 2.201-.288 4.199.208 5.744 2.128.393.495.495.8 0 1.263-.38.352-.67.8-1.006 1.216-.32-.368-.627-.768-.962-1.12-.86-.928-1.983-1.152-2.435-.528-.422.608-.014 1.616.992 2.368.422.32.874.56 1.297.88.977.72 1.53 1.68 1.429 2.99-.102 1.329-.758 2.272-1.88 2.816-1.094.528-2.275.672-3.601.656z" fill="#EC1C24"/><path d="M39.57 28.133c-.176 1.791-.176 1.791-1.721 1.776-.962 0-1.735 1.023-1.516 2.047.073.352.32.32.554.336.918.064 1.837.08 2.755-.08.598-.096.845-.032.67.768-.51 2.367-.48 2.351-2.71 2.095-1.152-.128-2.319-.24-3.47-.224-.744 0-1.006-.304-.875-1.04.277-1.6.612-3.183.875-4.782.248-1.488.452-2.992.67-4.495.088-.592.219-.848.904-.736 1.443.24 2.916.32 4.373.448.452.032.54.176.467.688-.233 1.711-.204 1.711-1.793 1.471-.336-.048-.685-.016-1.02-.064-.759-.112-.686.464-.744.976-.073.672.204.848.758.816.598-.032 1.21 0 1.822 0zM23.52 35.444c.845-.752.393-1.727.35-2.591-.044-.896.597-2.192-.875-2.56-.059-.015-.073-.335-.044-.511.204-1.696.379-3.376.35-5.087-.015-.592.175-.768.729-.688.743.096 1.487.16 2.23.128.685-.032.831.288.7.928-.38 1.92-.525 3.87-.758 5.806-.102.88-.059 1.328.976 1.296 2.668-.08 2.639-.016 2.23 2.767-.116.8-.305 1.184-1.18 1.04-1.443-.224-2.916-.256-4.359-.384-.102 0-.19-.08-.35-.144z" fill="#EC1C24"/><path d="M19.467 27.127v3.663c0 .528.117.736.67.576.817-.256 1.662-.352 2.523-.384.48-.016.67.16.655.704-.029.784.22 1.664-.043 2.304-.335.783-1.283.288-1.939.432-1.37.288-2.77.4-4.125.703-.583.128-.642-.096-.613-.591.015-.336.03-.656.19-.96 1.676-3.04 1.18-6.03-.277-8.942-.204-.4-.496-.8-.277-1.216.19-.352.627-.192.947-.192.744 0 1.691-.24 2.172.16.438.352.044 1.44.073 2.208.03.512 0 1.04 0 1.551h.044M31.29 35.508c-.176 0-.336-.016-.511 0-.685.08-1.05-.096-.758-.976.16-.48.16-1.024.277-1.52.16-.687.058-1.2-.641-1.343-.525-.096-.438-.48-.394-.848.219-1.696.219-3.391.19-5.087 0-.48.043-.784.612-.656.874.192 1.763.128 2.638-.048.394-.08.627-.032.51.576-.495 2.768-.583 5.583-.583 8.382 0 1.68.233 1.504-1.34 1.52z" fill="#EC1C24"/><path d="M31.697 23.466c-1.137-.032-1.982-.624-1.85-1.297.203-1.008 1.02-.944 1.72-.944.757 0 1.53.192 1.515 1.216 0 1.057-.816.993-1.385 1.025z" fill="#EA1C24"/><path d="M41.8 23.303c-.554-1.056-.438-2.143-.496-3.199-.03-.608.291-.656.743-.496.394.144.992.048.744.832-.306.96-.656 1.903-.991 2.863z" fill="#E61C24"/><path d="M13.3 26.614c-.014.944-.655 1.728-1.399 1.728-.86.016-1.938-1.184-1.91-2.112.03-.8.861-1.472 1.78-1.44.903.032 1.544.784 1.53 1.824z" fill="#262021"/><path d="M11.654 27.64c-.481-.192-.86-.496-.918-1.057-.059-.56.422-.624.757-.657.482-.032.744.305.758.817.015.465-.174.77-.597.897z" fill="#F6F6F6"/></svg>