<!-- by TradingView --><svg xmlns="http://www.w3.org/2000/svg" width="56" height="56" viewBox="0 0 56 56"><path fill="#F0F3FA" d="M0 0h56v56H0z"/><circle cx="28" cy="28" r="16" fill="#536169"/><path d="M25.85 27H40.7v-3H28.5a19.1 19.1 0 0 1-2.65 3ZM24.62 24a16.06 16.06 0 0 1-3.87 3H14.4v-.07A13.93 13.93 0 0 0 21.66 24h2.96Z" fill="#798388"/><path d="M40.7 24.14A19 19 0 0 0 24 43.5c.98.25 2 .4 3.03.47a16 16 0 0 1 14.11-16.86l-.44-2.97Z" fill="#F0F3FA"/><path d="M41.43 29.09a14 14 0 0 0-12.4 14.88c1.02-.07 2.02-.23 2.98-.48L32 43a11 11 0 0 1 9.87-10.94l-.44-2.97Z" fill="#F0F3FA"/><path d="M30.15 29H15.16v3h12.35c.77-1.1 1.66-2.1 2.64-3ZM31.38 32a16.06 16.06 0 0 1 3.87-3h6.18v.09c-2.66.3-5.1 1.34-7.1 2.91h-2.95Z" fill="#798388"/><path d="m14.7 28.91.46 2.97A19 19 0 0 0 31.99 12.5c-.97-.25-1.98-.4-3.02-.47A16 16 0 0 1 14.7 28.9Z" fill="#F0F3FA"/><path d="m14.39 26.93-.46-2.97a11 11 0 0 0 10.06-11.45c.96-.25 1.96-.41 2.98-.48a14 14 0 0 1-12.58 14.9Z" fill="#F0F3FA"/></svg>