<!-- by TradingView --><svg width="56" height="56" xmlns="http://www.w3.org/2000/svg"><path fill="#46B555" d="M0 0h56v56H0z"/><circle cx="27.336" cy="29.194" r="14.806" fill="#fff"/><circle cx="39.355" cy="17.034" r="7.639" fill="#fff"/><path d="M34.693 16.361c4.247 2.281 6.348 6.764 6.663 8.045 1.74-.323 3.826-2.118 4.155-2.79-2.238-4.995-6.473-8.298-8.222-9.147-1.909 1.141-2.498 2.704-2.596 3.892zM39.644 29.612c-10.961-1.804-12.73-11.051-12.02-15.235 3.02.156 3.647.532 4.329.74-1.391 6.176 3.743 9.436 6.836 9.527.663 1.711.916 3.399.855 4.968z" fill="#46B555"/></svg>