<!-- by TradingView --><svg xmlns="http://www.w3.org/2000/svg" width="56" height="56" viewBox="0 0 56 56"><path fill="#F0F3FA" d="M0 0h56v56H0z"/><path d="M32.45 23.79c-4.18.04-7.56 3.67-7.56 8.15a8.22 8.22 0 0 0 4.29 7.34l-.6.78a10.39 10.39 0 0 1 3.87-20.23v3.96z" fill="url(#agtufszw3)"/><path d="M23.55 10C19.92 16.84 13.67 32.92 11 40.1c1.47-1.52 1.54-2 3.03-4.12a20.85 20.85 0 0 0 3.94-5.34l7.61-15.96L23.55 10z" fill="url(#bgtufszw3)"/><path d="M23.9 19.45l1.95-4.1L33.18 32h-3.71L23.9 19.45zM32.45 27.1a5.4 5.4 0 0 1 4.39 9.2 6.9 6.9 0 0 0-4.4-12.52v3.32zM30 39H18.81l4.24 4H30v-4z" fill="#E7811D"/><path d="M47 36H35v4h5.9l3.22-1.24-3.79-.76h4.45l1.63-1.18c-3.27-.32-.97-.68.59-.82z" fill="url(#cgtufszw3)"/><defs><linearGradient id="agtufszw3" x1="26.96" y1="27.05" x2="26.96" y2="40.06" gradientUnits="userSpaceOnUse"><stop stop-color="#E7811D"/><stop offset="1" stop-color="#E7811D" stop-opacity=".4"/></linearGradient><linearGradient id="bgtufszw3" x1="20.79" y1="21.56" x2="12.31" y2="38.78" gradientUnits="userSpaceOnUse"><stop stop-color="#E7811D"/><stop offset="1" stop-color="#E7811D" stop-opacity=".4"/></linearGradient><linearGradient id="cgtufszw3" x1="37.51" y1="38" x2="44.88" y2="38" gradientUnits="userSpaceOnUse"><stop stop-color="#E7811D"/><stop offset="1" stop-color="#E7811D" stop-opacity=".4"/></linearGradient></defs></svg>