<!-- by TradingView --><svg xmlns="http://www.w3.org/2000/svg" width="56" height="56" viewBox="0 0 56 56"><path fill="#003668" d="M0 0h56v56H0z"/><path fill-rule="evenodd" d="M28 44a16 16 0 1 0 0-32 16 16 0 0 0 0 32zm-9.4-28.85l-1.37 6.53c.29.47 1.7 1.44 5.07 1.57.83.05 2.68.19 3.46.37-2.09-1.1-6.45-4.34-7.16-8.47zm3.65 9.72c-3.6-.02-5.1-.96-5.4-1.43l-1.07 4.38c.42.72 2 1.29 7.81.57 4.66-.57 7.99.78 9.07 1.52-2.8-3.34-5.9-5-10.4-5.04zm-6.95 5.1c.2.5 2.14 1.25 8.32.27 7.73-1.22 11.31 1.79 16.86 7.52-2.57-1.7-9.2-4.64-15.24-2.78-7.52 2.32-9.95 1.24-11.09.73l-.01-.01 1.16-5.73z" fill="#fff"/></svg>