<!-- by TradingView --><svg width="56" height="56" viewBox="0 0 56 56" xmlns="http://www.w3.org/2000/svg"><path fill="url(#aqvf1qk5a)" d="M0 0h56v56H0z"/><path d="M40 31c0 6.93-5.16 12-12 12s-12-5.07-12-12c0-6.95 5.16-12 12-12s12 5 12 12Zm-6 0c0-4.3-2.97-7-6-7s-6 2.73-6 7c0 4.26 2.97 7 6 7s6-2.74 6-7Z" fill="#fff"/><path d="m21 47 11-5h-7.4L21 47ZM40 14.46 28 9l-12 5.42v5.53l12-5.42L40 20v-5.54Z" fill="#fff"/><defs><linearGradient id="aqvf1qk5a" x1="28" y1="0" x2="28" y2="56" gradientUnits="userSpaceOnUse"><stop stop-color="#EE620F"/><stop offset="1" stop-color="#E54908"/></linearGradient></defs></svg>