<!-- by TradingView --><svg width="56" height="56" viewBox="0 0 56 56" xmlns="http://www.w3.org/2000/svg"><path fill="#F0F3FA" d="M0 0h56v56H0z"/><path d="M8 33h.7v2.95h.02c.12-.47.47-.8.95-.8 1.14 0 1.33 1.53 1.33 2.4 0 1.06-.27 1.9-.76 2.26a.92.92 0 0 1-.57.19c-.53 0-.83-.38-.97-.87H8.7V40H8v-7Zm.69 4.57c0 1 .27 1.75.8 1.75.74 0 .78-1.2.78-1.75 0-.54-.03-1.75-.78-1.75-.76 0-.8 1.24-.8 1.75ZM15.84 33.42a.41.41 0 0 1-.42.42.4.4 0 0 1-.3-.12.4.4 0 0 1-.12-.3.41.41 0 0 1 .42-.42.41.41 0 0 1 .42.42ZM15 35v5h.77v-5H15ZM22 37.5c0 .95-.28 2.5-1.5 2.5S19 38.44 19 37.5c0-.93.27-2.5 1.5-2.5s1.5 1.57 1.5 2.5Zm-.72 0c0-.5-.03-1.81-.78-1.81-.76 0-.78 1.32-.78 1.81 0 .5.03 1.8.78 1.8.77 0 .78-1.28.78-1.8ZM27.47 39.87a1.29 1.29 0 0 1-.55.13c-.33 0-.57-.11-.7-.34a1.83 1.83 0 0 1-.22-.95V36h-.53v-.64H26V34h.7v1.36h.76V36h-.76v2.55c0 .27.04.47.11.59.08.12.19.18.33.18l.16-.03a.9.9 0 0 0 .15-.05l.02.63ZM31.73 37.7c0 .55.12 1.6.86 1.6.4 0 .61-.34.74-.67l.54.34c-.22.58-.66 1.03-1.3 1.03C31.3 40 31 38.5 31 37.5c0-.95.33-2.5 1.56-2.5 1.2 0 1.44 1.39 1.44 2.32v.39h-2.27Zm1.54-.64c0-.48-.07-1.37-.73-1.37-.61 0-.79.9-.79 1.37h1.52ZM40 39.57c-.28.29-.66.43-1.15.43-1.37 0-1.85-1.33-1.85-2.5s.5-2.5 1.86-2.5c.54 0 .91.2 1.13.4l-.44.6a.88.88 0 0 0-.68-.3c-.85 0-1.14 1.18-1.14 1.8 0 .68.3 1.76 1.19 1.76.31 0 .53-.12.7-.3l.38.61ZM43.76 40H43v-7h.76v2.94h.02c.14-.5.54-.94 1.1-.94.98 0 1.12 1.07 1.12 1.84V40h-.76v-3.16c0-.44-.04-1.14-.63-1.14-.49 0-.85.6-.85 1.44V40Z" fill="#009DD8"/><path d="M9.4 25c1.07 0 1.6.6 1.6 1.84v2.3c0 1.24-.53 1.86-1.6 1.86-.72 0-1.25-.34-1.54-1.03L7.73 31H7v-9h1v3.76c.31-.5.8-.76 1.4-.76Zm.6 4.07v-2.16c0-.7-.31-1.06-.9-1.06-.64 0-1.1.5-1.1 1.42v1.46c0 .91.46 1.42 1.1 1.42.59 0 .9-.35.9-1.08ZM13 31h-1v-9h1v9ZM17 28.9V25h1v6h-1v-.78c-.29.6-.7.78-1.42.78-1.05 0-1.58-.57-1.58-1.7V25h1v4.19c0 .69.32 1.03.9 1.03.64 0 1.1-.47 1.1-1.31ZM21 25c1.29 0 2 .67 2 1.86V28h-3v1.21c0 .68.36 1.02 1.01 1.02.67 0 .99-.34.99-1.02V29h1v.13c0 1.2-.71 1.87-2 1.87s-2-.68-2-1.87v-2.27c0-1.2.7-1.86 2-1.86Zm-1 1.78v.5h2v-.5c0-.68-.33-1.01-1-1.01-.66 0-1 .33-1 1ZM43 25c1.29 0 2 .67 2 1.86V28h-3v1.21c0 .68.36 1.02 1.01 1.02.67 0 .99-.34.99-1.02V29h1v.13c0 1.2-.71 1.87-2 1.87s-2-.68-2-1.87v-2.27c0-1.2.7-1.86 2-1.86Zm-1 1.78v.5h2v-.5c0-.68-.33-1.01-1-1.01-.66 0-1 .33-1 1ZM28.6 31h-1.37L26 25h1.05l.99 4.76.94-4.76h1.12l.95 4.76.99-4.76H33l-1.23 6h-1.3l-.93-4.33L28.6 31ZM37.14 31h-.9a5.1 5.1 0 0 1-.12-.9c-.28.6-.91.9-1.66.9-.9 0-1.46-.55-1.46-1.42 0-.89.44-1.4 1.63-1.9.55-.21.9-.37 1.04-.48.14-.1.33-.26.33-.46v-.13c0-.58-.41-.86-.97-.86-.58 0-.92.32-.92.88V27h-.93v-.32c0-1.07.67-1.68 1.86-1.68 1.21 0 1.96.59 1.96 1.74v2.57c0 .7.05 1.33.14 1.69Zm-2.34-.76c.67 0 1.2-.48 1.2-1.3v-1.16c-.1.12-.54.3-1.08.54-.61.27-.92.65-.92 1.13 0 .53.27.8.8.8ZM40 25v.78h-1v3.72c0 .5.17.69.64.69.2 0 .19-.04.36-.1v.79c-.2.08-.26.12-.55.12-.97 0-1.45-.46-1.45-1.4v-3.82h-.81V25H38v-2h1v2h1ZM48.51 25c.21 0 .37.02.49.07v.87a1.74 1.74 0 0 0-.46-.06c-.95 0-1.54.56-1.54 1.7V31h-1v-6h1v1.09c.25-.73.74-1.09 1.51-1.09ZM15.51 16c-1.73 0-2.89 1.65-3.51 2.48.2-.24.91-.72 2.14-.72 1.78 0 5.43 3.24 7.58 3.24 1.42 0 2.78-1.68 3.28-2.52-.35.25-1.27.76-2.14.76-2.01 0-5.43-3.24-7.35-3.24Z" fill="#1A2980"/><path d="M25.51 16c-1.73 0-2.89 1.65-3.51 2.48.2-.24.91-.72 2.14-.72 1.78 0 5.43 3.24 7.58 3.24 1.42 0 2.78-1.68 3.28-2.52-.35.25-1.27.76-2.14.76-2.01 0-5.43-3.24-7.35-3.24Z" fill="#006AB0"/><path d="M34.51 16c-1.73 0-2.89 1.65-3.51 2.48.2-.24.91-.72 2.14-.72 1.78 0 5.43 3.24 7.58 3.24 1.42 0 2.78-1.68 3.28-2.52-.35.25-1.27.76-2.14.76-2.01 0-5.43-3.24-7.35-3.24Z" fill="#009DD8"/></svg>