<!-- by TradingView --><svg width="56" height="56" xmlns="http://www.w3.org/2000/svg"><path fill="#1F396E" d="M0 0h56v56H0z"/><path d="M48 24.018l-3.1.99a5.777 5.777 0 00-4.694-2.8 5.712 5.712 0 00-4.587 1.895c-.427.474-.651 1.581-.619 2.885v1.23l-3.169-2.576a6.38 6.38 0 011.393-3.663 9.005 9.005 0 017.93-2.894 9.016 9.016 0 014.038 1.616A8.99 8.99 0 0148 24.018zm-3.26 7.196a5.864 5.864 0 01-5.11 2.555 5.046 5.046 0 01-1.675-.325l-.138-.069-.118-.032c-.901-.389-5.046-3.689-8.37-6.542l-.213-.184c-1.064-.92-5.634-4.873-6.428-5.507-1.099-.878-3.68-2.086-5.68-2.086a9.02 9.02 0 00-6.37 2.632 8.979 8.979 0 000 12.712A9.017 9.017 0 0017.008 37a8.925 8.925 0 006.987-3.322 5.736 5.736 0 001.104-3.007L22 28.009v1.166c0 2.547-2.055 4.658-5.014 4.658C13.714 33.833 11 31.2 11 28.04s2.461-5.791 5.986-5.791c1.394 0 2.59.624 3.68 1.389.667.532 4.572 3.902 6.551 5.616 2.811 2.385 7.644 6.388 9.373 7.08.91.387 1.886.6 2.875.628a9.047 9.047 0 004.752-1.085 9.023 9.023 0 003.495-3.392l-2.971-1.272zM25.1 27.45v-.005h-.006l.005.005z" fill="#fff"/></svg>