<!-- by TradingView --><svg width="56" height="56" viewBox="0 0 56 56" xmlns="http://www.w3.org/2000/svg"><path fill="#F0F3FA" d="M0 0h56v56H0z"/><path d="M4.43 24.8c.06.02.11-.01.1-.07a.21.21 0 0 0-.14-.15c-.06-.02-.1.02-.1.08.01.05.07.12.14.14Zm.48 1.36c.09.02.15-.02.14-.1a.28.28 0 0 0-.18-.2c-.09-.03-.15.02-.14.1.01.08.1.17.18.2Zm.66 1.37c.12.03.2-.03.18-.13-.01-.11-.12-.23-.24-.27-.11-.03-.2.03-.18.14.02.1.13.22.24.26Zm.82 1.37c.16.05.27-.03.24-.18-.02-.15-.17-.3-.32-.35-.16-.05-.26.03-.24.17.03.15.17.31.32.36Zm.96 1.28c.17.05.3-.04.27-.2-.03-.16-.19-.34-.36-.39-.17-.05-.3.03-.27.2.03.16.19.34.36.39Zm1.08 1.21c.19.06.32-.04.3-.21a.59.59 0 0 0-.4-.44c-.19-.05-.32.04-.3.22.03.18.2.37.4.43Zm1.18 1.12c.2.06.35-.05.32-.24a.67.67 0 0 0-.43-.49c-.22-.06-.36.05-.33.25.03.2.23.41.44.48Zm1.25 1c.23.07.4-.05.36-.27-.03-.23-.24-.46-.48-.54-.23-.07-.4.05-.36.27.03.23.24.47.48.54Zm1.3.86c.26.08.44-.06.4-.3-.03-.24-.27-.5-.52-.58-.26-.08-.43.05-.4.3.04.24.27.5.53.58Zm1.33.68c.26.07.45-.06.41-.3a.82.82 0 0 0-.54-.6c-.26-.09-.44.05-.4.3.03.24.27.51.53.6Zm1.32.5c.27.08.46-.06.42-.31a.82.82 0 0 0-.54-.6c-.27-.09-.45.05-.42.3.04.25.28.52.54.6Zm1.3.31c-.26-.08-.5-.35-.54-.6-.03-.25.16-.4.42-.3.27.08.5.34.54.6.04.25-.15.38-.42.3Zm1.25.12c-.25-.08-.49-.34-.52-.58-.03-.25.15-.37.4-.3.26.08.5.34.53.58.03.25-.15.38-.4.3Zm1.18-.1c-.23-.07-.45-.3-.47-.52-.03-.23.13-.34.37-.27.23.07.45.31.47.53.03.22-.14.34-.37.27Zm1.07-.27c-.2-.06-.4-.28-.42-.48-.03-.2.12-.3.33-.24.22.07.4.28.43.48.03.2-.12.3-.34.24Zm.97-.46c-.2-.06-.37-.25-.39-.43-.02-.18.12-.27.3-.21.2.05.37.25.39.43.02.17-.11.27-.3.21Zm.82-.62c-.17-.05-.32-.23-.34-.39-.02-.16.1-.24.27-.19.17.05.33.23.35.39.01.16-.1.24-.28.19Zm.7-.83c.13.02.2-.06.17-.18a.4.4 0 0 0-.28-.27c-.13-.02-.2.06-.17.18a.4.4 0 0 0 .29.27Zm.53-.97c.08 0 .12-.07.08-.16a.27.27 0 0 0-.2-.16c-.09 0-.13.06-.1.15.04.09.13.16.22.17Zm.25-1.04c.06.02.1 0 .1-.07 0-.06-.06-.12-.12-.14-.06-.02-.1.01-.1.07a.2.2 0 0 0 .12.14Zm-12.9-6.05c-.03.01-.03.05 0 .07.03.03.06.04.08.03.02-.01.02-.04 0-.07-.03-.03-.07-.04-.09-.03Zm-.1-.5c.04 0 .07.04.09.07.01.03 0 .06-.03.06s-.07-.03-.08-.06c-.02-.04 0-.07.03-.06Zm-.03-.48c.04 0 .09.04.1.08.02.05 0 .08-.04.08s-.09-.04-.1-.09c-.02-.04 0-.07.04-.07Zm.03-.46a.2.2 0 0 1 .15.1c.03.07 0 .11-.06.11a.2.2 0 0 1-.14-.1c-.03-.07 0-.11.05-.11Zm.11-.4c.07 0 .14.06.17.12.02.07 0 .12-.06.12s-.14-.06-.17-.13c-.03-.06 0-.11.06-.11Zm.19-.35c.07 0 .14.06.17.13s0 .13-.07.12c-.06 0-.14-.06-.17-.13s0-.13.07-.12Zm.25-.3c.07 0 .16.07.2.15.03.08 0 .15-.08.14a.25.25 0 0 1-.2-.15c-.03-.08 0-.15.08-.14Zm.31-.24c.09 0 .18.08.22.16.04.1 0 .16-.08.16-.09 0-.19-.08-.23-.17-.04-.08 0-.15.09-.15Zm.37-.18c.1 0 .2.1.24.2.05.09 0 .17-.1.16-.09 0-.2-.08-.24-.18-.04-.1 0-.18.1-.18Zm.42-.1c.1.01.21.1.25.2.05.11 0 .19-.1.19s-.21-.1-.25-.2c-.05-.1 0-.19.1-.18Zm.45-.01c-.1 0-.15.08-.1.19.04.1.16.2.27.2.1 0 .15-.08.1-.19-.04-.1-.16-.2-.27-.2Zm.5.06c-.1 0-.15.08-.1.18.04.1.15.2.25.2s.15-.07.1-.18c-.04-.1-.15-.2-.25-.2Zm.52.14c-.1 0-.14.07-.1.18.04.1.15.18.24.18.1 0 .14-.07.1-.17-.04-.1-.15-.18-.24-.19Zm.53.22c-.09-.01-.13.06-.09.15.04.09.14.16.22.17.09 0 .13-.07.09-.16-.04-.09-.14-.16-.22-.16Zm.52.27c-.08 0-.11.06-.08.14.03.08.12.15.2.15.07.01.1-.05.08-.13-.03-.08-.13-.15-.2-.16Zm.5.33c-.06 0-.1.06-.06.13.03.07.1.13.17.13s.1-.05.07-.12a.22.22 0 0 0-.17-.14Zm.5.4c-.06-.01-.1.04-.07.1.03.07.1.12.16.13.06 0 .1-.05.07-.12-.03-.06-.1-.12-.16-.12Zm.46.43c-.05 0-.07.04-.05.1.02.04.08.09.13.09s.07-.04.05-.1c-.03-.04-.08-.09-.13-.09Zm.42.5c-.02.02-.02.05 0 .08.03.03.06.05.09.04.02-.01.02-.05 0-.08-.03-.03-.07-.05-.1-.03Zm.36.5c-.02 0-.02.04 0 .06.03.03.06.04.08.03.02 0 .02-.04 0-.07-.02-.03-.06-.04-.08-.03Zm-6.14.67c-.02.01-.02.04 0 .07.03.03.06.04.08.03.02 0 .02-.04 0-.07-.02-.03-.06-.04-.08-.03Zm4.57-2.84c-.05.01-.06.08-.02.14.05.07.13.1.18.09.06-.01.06-.08.02-.14-.04-.07-.13-.1-.18-.1Zm.61.6c.06.03.1.02.1-.03.01-.05-.04-.1-.09-.13-.05-.02-.1 0-.1.04 0 .05.04.1.1.13Zm.51.46c.04.02.08.01.08-.02s-.01-.07-.05-.1c-.04-.01-.08 0-.08.02 0 .03.02.07.05.1Zm.46.51c.04.02.07.02.08-.01 0-.03-.02-.07-.05-.1-.04-.01-.07 0-.08.02 0 .03.02.07.05.1Zm-5.1-2.77c-.1.03-.11.14-.03.26s.22.19.32.16.1-.14.03-.26c-.08-.12-.23-.2-.32-.16Zm.54 0c-.1.02-.1.13-.03.24.07.11.2.18.3.16.09-.03.1-.14.03-.25-.08-.11-.21-.18-.3-.16Zm.58.09c-.08.02-.1.12-.03.22s.19.16.27.14c.08-.03.1-.12.03-.22s-.2-.17-.27-.14Zm.6.17c-.08.02-.09.11-.03.2.06.09.17.14.24.12.08-.02.09-.11.03-.2-.06-.09-.17-.15-.24-.12Zm-2.64 0c.1-.02.23.05.31.16.08.12.07.24-.03.27-.1.03-.23-.05-.31-.16-.08-.12-.07-.23.03-.26Zm-.36.27c.09-.03.23.04.3.15.08.11.06.23-.02.25-.1.02-.23-.04-.3-.15-.09-.11-.07-.22.02-.25Zm-.29.35c.08-.03.2.04.27.13.07.1.06.2-.02.23-.08.02-.2-.04-.27-.14s-.06-.2.02-.22Zm-.2.4c.07-.02.18.04.24.13.06.08.05.17-.02.2-.08.02-.18-.04-.24-.13s-.05-.18.02-.2Zm-.13.46c.07-.02.17.03.22.11.06.08.05.17-.02.19-.06.01-.16-.03-.22-.11-.05-.09-.05-.17.02-.19Zm-.04.51c.06-.02.15.03.2.1.05.08.04.15-.02.17-.06.02-.15-.03-.2-.1-.05-.08-.04-.15.02-.17Zm.04.55c.06-.02.13.02.18.09.04.06.03.13-.02.15-.05.01-.13-.03-.18-.1-.04-.06-.03-.13.02-.14Zm.14.58c.04 0 .1.02.13.07s.02.1-.01.11c-.04.01-.1-.02-.13-.07-.04-.04-.03-.1 0-.1Zm.2.6c.04 0 .08.02.1.05.03.04.03.08 0 .09-.03 0-.08-.02-.1-.05-.02-.04-.02-.08 0-.09Zm.66 1.27c.04.02.07.01.07-.02 0-.02-.01-.06-.05-.08-.03-.02-.06-.02-.07.01 0 .03.02.07.05.09Zm-.35-.57c.04.02.08.01.08-.02s-.01-.07-.05-.09c-.04-.02-.07-.01-.08.02 0 .03.02.07.05.09Zm.76-4.6c-.1.03-.12.15-.04.28.09.11.23.19.33.16s.11-.14.03-.27c-.08-.12-.22-.2-.32-.17Zm2.82.42c-.07.02-.08.1-.02.18.05.08.15.13.21.1.07-.01.08-.1.02-.18-.05-.07-.14-.12-.21-.1Zm.6.32c-.06.02-.07.09-.02.16.06.07.14.12.2.1.06-.02.07-.09.02-.16s-.13-.12-.2-.1Zm-3.02 6c.01-.02.05-.02.08 0 .03.03.04.07.03.09 0 .02-.04.02-.07 0-.03-.03-.05-.06-.04-.09Zm-.58-.58c.01-.03.06-.03.1 0 .04.03.06.08.05.11-.02.03-.06.03-.1 0-.05-.03-.07-.08-.05-.11ZM10 27.7c.02-.04.09-.04.14 0 .06.05.08.11.06.15-.02.04-.08.04-.14 0-.05-.05-.08-.12-.06-.15Zm-.47-.67c.03-.06.1-.05.18 0 .08.06.11.15.08.2-.03.06-.1.06-.18 0-.07-.06-.1-.15-.08-.2Zm-.38-.68c.03-.05.13-.05.21.01.08.07.12.17.1.22-.04.06-.13.06-.22 0-.08-.07-.12-.17-.09-.23Zm-.49-1.34c.04-.07.15-.06.26.01.1.08.15.2.1.27-.03.07-.14.07-.25 0-.1-.08-.15-.2-.11-.28Zm.2.67c.04-.06.14-.06.23.01.09.07.13.18.1.24-.04.07-.14.06-.23 0-.09-.08-.13-.18-.1-.25Zm-.31-1.31c.04-.08.17-.08.28.01.11.1.17.23.13.3-.05.08-.17.08-.28-.01-.12-.09-.18-.22-.13-.3Zm-.02-.61c.05-.1.2-.09.32.01.13.1.19.25.14.34-.05.09-.19.08-.31-.01-.14-.1-.2-.25-.15-.34Zm.1-.55c.05-.1.2-.09.33.01.13.1.2.27.14.36-.05.09-.2.08-.33-.02s-.2-.26-.15-.35Zm.2-.5c-.06.1 0 .27.14.37.14.1.3.12.34.02.06-.1-.01-.26-.15-.37-.13-.1-.29-.1-.34-.01Zm.3-.4c-.06.1 0 .25.14.35.13.1.28.11.33.02.05-.1-.01-.25-.14-.35-.13-.1-.29-.1-.34-.02ZM9.5 22c-.05.09.02.24.14.33.13.1.27.1.32.02.05-.1-.02-.24-.14-.34-.13-.1-.27-.1-.32-.01Zm.48-.23c-.04.08.02.21.13.3.12.09.24.1.29.01.04-.08-.01-.2-.13-.3-.11-.08-.24-.1-.29-.01Zm.55-.14c-.04.07.01.2.11.27.1.08.22.08.26.01.04-.07 0-.2-.1-.27-.11-.08-.23-.09-.27-.01Zm.6-.05c-.03.06.02.17.1.24.1.07.2.08.24.01.04-.06 0-.17-.1-.24-.1-.07-.2-.08-.23-.01Zm.66.04c-.03.06 0 .16.09.22.08.06.17.07.21 0 .03-.05-.01-.15-.09-.21-.09-.06-.18-.07-.21-.01Zm.67.14c-.03.05 0 .14.08.2.08.05.16.05.19 0s0-.13-.08-.2c-.07-.05-.16-.06-.19 0Zm.72.24c-.02.04 0 .1.06.15.06.04.12.04.14 0 .02-.04 0-.1-.06-.15-.05-.04-.12-.04-.14 0Zm.71.32c-.01.03 0 .08.05.11.04.03.09.04.1 0 .02-.02 0-.07-.04-.1-.04-.04-.09-.04-.1 0Zm.7.4c0 .02 0 .06.04.08.03.03.06.03.08 0 .01-.01 0-.05-.04-.08-.03-.02-.07-.02-.08 0Zm.66.46c-.01.02 0 .05.03.08.03.02.06.02.07 0 .01-.02 0-.05-.03-.08-.03-.02-.06-.02-.07 0Zm-3.53 6.26c-.01.02 0 .06.03.08.03.03.06.03.07 0 .01-.01 0-.05-.03-.07-.03-.03-.06-.03-.07 0Zm1.04-8.17c0 .03.03.07.07.09.04.01.07 0 .07-.03 0-.04-.03-.08-.07-.1-.04 0-.07 0-.07.04Zm-.8-.2c0 .04.03.1.08.11.06.03.1 0 .1-.04s-.04-.1-.09-.12c-.05-.02-.1 0-.1.04Zm-.78-.1c0 .05.05.13.12.16.07.03.13 0 .13-.06s-.06-.13-.13-.16c-.06-.03-.12 0-.12.05Zm-.74 0c0 .08.07.18.16.22.1.04.17.01.17-.07s-.07-.17-.17-.21c-.08-.05-.16-.02-.16.06Zm-.66.13c0 .09.08.2.18.24.1.04.2 0 .2-.08 0-.1-.09-.2-.19-.24-.1-.05-.19-.01-.19.08Zm-.58.23c0 .1.09.21.2.26.12.05.2.01.2-.09 0-.1-.08-.21-.2-.26-.1-.05-.2-.01-.2.09Zm-.5.32c0 .11.1.25.22.3.13.05.23.01.23-.1 0-.1-.1-.24-.22-.3-.13-.05-.23 0-.23.1Zm-.41.42c0 .12.1.27.25.33.14.06.25.01.26-.1 0-.13-.11-.28-.26-.34-.14-.05-.25 0-.25.11Zm-.31.5c0 .14.13.3.28.38.15.07.28.01.28-.12 0-.14-.13-.3-.28-.37-.15-.07-.28-.01-.28.12Zm-.19.6c0 .14.13.31.3.39.16.06.3.01.3-.13 0-.15-.14-.32-.3-.39-.16-.07-.3-.01-.3.13Zm-.06.65c0 .15.13.32.3.4.17.07.3 0 .3-.14 0-.15-.13-.33-.3-.4-.17-.07-.3 0-.3.14Zm.06.7c0-.14.13-.2.3-.12.16.07.29.24.29.38 0 .15-.13.2-.3.13-.16-.07-.3-.24-.3-.38Zm.18.75c0-.13.12-.19.28-.12.15.07.27.23.27.36 0 .14-.12.2-.28.12-.15-.06-.27-.22-.27-.36Zm.3.77c0-.12.1-.17.25-.1.14.05.25.2.25.32s-.11.17-.26.11c-.13-.06-.24-.2-.24-.33Zm.88 1.53c0-.1.09-.14.2-.09.11.05.2.17.2.27s-.09.14-.2.1c-.11-.06-.2-.18-.2-.28Zm.57.73c0-.09.08-.12.18-.08.1.05.18.15.18.24s-.08.12-.18.08c-.1-.04-.18-.15-.18-.24Zm.63.7c0-.09.08-.12.17-.08.09.04.16.13.16.2 0 .09-.08.12-.17.08-.08-.04-.16-.13-.16-.2Zm.72.63c0-.05.06-.08.13-.05.06.03.12.1.12.16s-.06.09-.13.06c-.06-.04-.12-.1-.12-.17Zm.76.57c0-.05.04-.06.09-.04.05.02.09.07.09.12 0 .04-.04.06-.1.04-.04-.02-.08-.08-.08-.12Zm.77.49c0-.04.03-.05.07-.03.04.01.08.05.08.08 0 .04-.04.05-.08.03-.04-.01-.07-.05-.07-.08Zm.78.38c0 .03.02.07.06.08.04.02.06 0 .07-.02 0-.03-.03-.07-.06-.08-.04-.02-.07 0-.07.02Zm-4.71-4.25c0-.11.1-.16.22-.1.13.05.23.18.22.3 0 .1-.1.15-.22.1-.13-.07-.23-.2-.22-.3Zm4.88-5.26c0 .03.03.07.06.09.04.01.07 0 .07-.03s-.03-.07-.06-.09c-.04-.01-.07 0-.07.03Zm-3.4-1.3c.01.04.06.07.1.07.04 0 .06-.03.04-.07-.02-.05-.06-.08-.1-.08-.04 0-.06.03-.04.07Zm-.76.13c.02.06.08.1.14.11.05 0 .08-.04.05-.1a.18.18 0 0 0-.14-.1c-.05 0-.08.04-.05.1Zm-.69.27c.03.08.12.14.19.15.07 0 .1-.06.07-.14a.25.25 0 0 0-.19-.14c-.07 0-.1.05-.07.13Zm-.6.38c.04.1.16.2.25.2.1 0 .14-.08.1-.18a.32.32 0 0 0-.25-.2c-.1 0-.14.08-.1.18Zm-.46.5c.04.1.17.2.27.2.11.01.16-.08.12-.19a.35.35 0 0 0-.29-.2c-.1-.02-.15.07-.1.18Zm-.35.58c.05.13.2.24.31.24.12 0 .17-.1.12-.22-.05-.12-.19-.23-.3-.23-.13 0-.19.08-.13.21Zm-.23.68c.06.14.22.25.35.26.13 0 .19-.1.13-.24-.06-.14-.21-.26-.35-.27-.13 0-.19.1-.13.25Zm-.1.75c.07.15.24.28.39.29.14 0 .2-.12.14-.27-.06-.15-.23-.29-.38-.3-.15 0-.21.12-.15.28Zm.03.8c.07.17.26.32.42.33.16 0 .24-.13.16-.3-.07-.18-.26-.32-.42-.33-.16 0-.24.13-.16.3Zm.46 1.71c.08.2.28.35.46.36.18 0 .26-.14.18-.33-.08-.19-.29-.34-.46-.35-.18-.01-.26.13-.18.32Zm-.3-.86c.08.18.28.33.45.34.17 0 .25-.14.17-.32-.07-.18-.27-.34-.44-.34-.18 0-.25.13-.18.32Zm.73 1.74c-.08-.18 0-.32.17-.32.17.01.37.17.44.34.08.19 0 .33-.17.32-.16 0-.36-.16-.44-.34Zm.54.86c-.07-.17 0-.3.16-.3.17.01.35.16.42.33s0 .3-.16.3c-.15-.01-.35-.16-.42-.33Zm.66.83c-.07-.15 0-.27.14-.26.15 0 .32.13.38.29.07.15 0 .27-.14.27-.15-.01-.32-.14-.38-.3Zm.73.79c-.06-.14 0-.25.13-.25s.28.13.34.27c.05.14 0 .24-.13.24s-.28-.12-.34-.26Zm.8.72c-.05-.13 0-.23.12-.22.11 0 .25.1.3.23.05.13 0 .23-.12.22-.11 0-.25-.11-.3-.23Zm.85.64c-.05-.11 0-.2.1-.2s.23.1.27.21c.05.12 0 .2-.1.2s-.23-.1-.27-.21Zm.88.55c-.04-.1 0-.18.1-.18.09 0 .2.09.24.2.04.1 0 .17-.1.17s-.2-.1-.24-.2Zm.92.45c-.03-.07 0-.13.08-.13.07 0 .15.07.19.14.03.07 0 .13-.07.13a.25.25 0 0 1-.2-.14Zm.92.34c-.02-.06 0-.1.06-.1.05 0 .11.05.13.1.03.06 0 .1-.05.1s-.11-.05-.14-.1Zm.9.22c-.02-.05 0-.08.03-.08.04 0 .09.04.1.08.02.04 0 .07-.03.07-.04 0-.09-.03-.1-.07Zm.83.1c.02.03.06.06.1.07.03 0 .04-.03.03-.07a.12.12 0 0 0-.1-.08c-.02 0-.04.03-.03.07Zm-4.95-12.2c.01.03.06.07.1.07.04 0 .05-.03.04-.07a.14.14 0 0 0-.1-.08c-.04 0-.06.03-.04.07Zm-3.84.4c.04.04.1.06.13.04.03-.03.02-.08-.02-.12-.04-.05-.1-.06-.13-.04-.03.02-.03.07.02.12Zm-.45.65c.06.06.13.08.17.05.04-.03.03-.1-.02-.16-.06-.06-.13-.08-.17-.05-.04.02-.03.1.02.16Zm-.31.75c.07.08.17.11.23.07.05-.04.04-.13-.04-.2-.07-.09-.18-.12-.23-.08-.05.04-.03.13.04.21Zm-.17.86c.1.1.23.14.3.1.08-.06.05-.19-.04-.3-.1-.1-.23-.14-.3-.09-.08.05-.06.18.04.29Zm0 .91c.1.12.25.17.33.1.08-.05.06-.2-.05-.31-.1-.11-.26-.16-.34-.1-.08.06-.06.2.05.31Zm.13.97c.12.13.29.18.37.11.09-.06.06-.22-.05-.35-.13-.13-.3-.18-.38-.11-.08.06-.06.22.06.35Zm.28 1c.13.15.32.2.41.13.1-.08.07-.25-.06-.4-.13-.14-.32-.2-.42-.12-.1.07-.06.25.07.4Zm.41 1.02c.15.16.36.22.46.14.1-.08.08-.28-.07-.44-.14-.16-.35-.22-.46-.14-.1.09-.07.28.07.44Zm.54 1.02c.16.17.4.24.51.15.12-.09.09-.3-.07-.48-.17-.17-.4-.24-.51-.15-.12.08-.09.3.07.48Zm.67.97c.17.19.41.26.54.17.12-.1.09-.33-.08-.51-.18-.19-.42-.26-.54-.17-.13.1-.1.33.08.51Zm.77.93c.17.2.42.27.55.17.13-.1.1-.33-.08-.53s-.42-.27-.55-.17c-.14.1-.1.34.08.53Zm.86.85c-.17-.18-.2-.41-.08-.5.13-.1.37-.03.54.15.17.19.2.42.08.51-.13.1-.37.02-.54-.16Zm.94.76c-.16-.17-.2-.39-.07-.48.12-.09.34-.02.5.16.17.17.2.39.08.48-.12.09-.35.02-.5-.16Zm1 .66c-.15-.16-.17-.35-.07-.43.1-.08.31-.02.46.14.15.15.17.35.07.43-.11.08-.32.02-.46-.14Zm1.02.54c-.13-.14-.16-.31-.06-.39.1-.07.28-.02.41.13.13.14.16.31.06.39-.1.07-.28.02-.41-.13Zm1.03.42c-.11-.12-.14-.28-.05-.35.09-.06.25-.01.37.12s.14.28.05.35c-.09.06-.25.01-.37-.12Zm1.03.3c-.11-.12-.13-.26-.05-.32s.23-.02.33.1c.1.11.13.26.05.32s-.23.01-.33-.1Zm.98.16c-.1-.1-.1-.23-.04-.29.07-.05.2-.01.3.1.1.1.11.22.04.27-.07.06-.2.01-.3-.08Zm.96 0c-.07-.08-.09-.18-.03-.22.05-.04.16 0 .23.07.07.08.08.17.03.21-.06.04-.16.01-.23-.06Zm.89-.14c-.06-.06-.06-.13-.02-.16.04-.03.11 0 .17.05.05.06.06.13.02.16-.05.03-.12 0-.17-.05Zm.79-.28c-.04-.04-.05-.1-.02-.12.03-.02.09 0 .13.04.04.05.04.1.01.12-.03.03-.08 0-.12-.04Zm.67-.38c.04.04.09.05.12.03.03-.02.02-.07-.02-.1-.03-.05-.08-.06-.11-.04-.03.02-.02.07.01.1ZM7.7 20.12c.04.04.1.06.12.04.03-.02.02-.07-.02-.11-.04-.04-.1-.06-.12-.04-.03.02-.02.07.02.11Zm-2.46 2.72c.06.03.11.02.12-.03.01-.04-.03-.1-.09-.14-.06-.03-.11-.02-.12.02 0 .05.03.12.09.15Zm.09 1.1c.07.04.14.02.15-.04.01-.07-.04-.15-.12-.2-.07-.04-.14-.02-.15.04-.02.07.04.15.12.2Zm.25 1.15c.1.06.2.04.2-.05.02-.08-.05-.2-.15-.25-.1-.06-.2-.04-.21.05-.01.08.06.2.16.25Zm.41 1.2c.14.07.26.05.28-.06.02-.11-.07-.27-.2-.34-.14-.08-.27-.05-.3.06-.01.11.08.27.22.34Zm.57 1.17c.15.09.29.06.31-.06.02-.13-.08-.3-.23-.38-.16-.09-.3-.06-.32.07-.02.12.09.29.24.37Zm.7 1.16c.17.1.33.06.35-.08.02-.14-.1-.32-.26-.42-.17-.1-.33-.06-.35.08-.02.14.1.33.27.42Zm.83 1.12c.19.1.36.06.38-.09.03-.15-.1-.36-.28-.46-.19-.1-.36-.07-.39.09-.03.15.1.35.3.46Zm.93 1.05c.2.12.4.07.43-.1.03-.16-.12-.4-.32-.51-.2-.11-.4-.07-.42.1-.03.17.1.4.31.51Zm1.02.98c.23.13.44.08.47-.1.03-.2-.13-.45-.35-.58-.23-.13-.44-.08-.47.11-.04.18.12.44.35.57Zm1.09.85c.24.13.46.08.5-.12.03-.2-.13-.46-.38-.6-.24-.13-.46-.08-.5.12-.02.2.14.46.38.6Zm1.13.72c.25.14.48.08.52-.12.03-.2-.14-.48-.39-.62-.24-.14-.48-.08-.51.12-.04.2.13.48.38.62Zm1.16.57c-.24-.14-.4-.4-.37-.6.04-.2.26-.25.5-.12.24.14.4.4.37.6-.04.2-.26.25-.5.12Zm1.16.4c-.23-.12-.38-.37-.35-.56.04-.2.25-.24.47-.11.23.13.39.38.35.57-.03.19-.25.24-.47.1Zm1.14.24c-.2-.1-.34-.34-.31-.5.03-.17.22-.22.43-.1.2.1.34.34.31.5-.04.18-.22.22-.43.1Zm1.1.09c-.18-.1-.3-.3-.28-.46.03-.15.2-.19.39-.1.18.11.3.32.27.47-.02.15-.2.2-.38.09Zm1.03-.08c-.16-.1-.28-.28-.25-.41.03-.14.18-.17.35-.08.16.1.27.28.25.41-.03.14-.18.17-.35.08Zm.95-.24c-.15-.08-.25-.25-.23-.37.03-.12.17-.15.31-.07.16.09.25.25.23.37-.02.13-.16.16-.31.07Zm.84-.39c-.13-.07-.22-.22-.2-.33.02-.11.15-.14.29-.07.13.08.22.23.2.34-.03.11-.15.14-.29.06Zm.81-.51c.1 0 .14-.07.1-.17-.04-.1-.15-.19-.25-.2-.1 0-.14.08-.1.18.05.1.16.19.25.19Zm.58-.7c.07 0 .09-.06.05-.14-.04-.07-.13-.12-.19-.12-.06.01-.08.07-.04.15.03.07.12.12.18.12Zm.37-.87c.05.03.1.02.11-.02.01-.04-.02-.1-.07-.13s-.1-.02-.11.03c-.01.04.02.1.07.12Zm-16.08-10c.06.03.1.02.11-.03.01-.04-.03-.1-.08-.13-.06-.03-.11-.02-.11.02-.01.04.03.1.08.14Zm-1.18 1.67c.06.02.1-.02.1-.07a.2.2 0 0 0-.13-.15c-.06-.02-.1.02-.1.08.01.05.07.12.13.14Z" fill="url(#aiev30yo4)"/><path d="M16 30c-.29 0-.55-.05-.8-.15a1.88 1.88 0 0 1-1.05-1.05c-.1-.25-.15-.52-.15-.8a2.04 2.04 0 0 1 .57-1.43A1.93 1.93 0 0 1 16 26a1.93 1.93 0 0 1 2 2c0 .29-.05.55-.15.8a1.88 1.88 0 0 1-1.05 1.05c-.25.1-.5.15-.8.15Zm0-.64c.18 0 .36-.03.52-.1.15-.06.3-.16.41-.28a1.43 1.43 0 0 0 .37-.98 1.43 1.43 0 0 0-.37-.98 1.12 1.12 0 0 0-.41-.29 1.36 1.36 0 0 0-1.04 0c-.16.07-.3.16-.42.29a1.36 1.36 0 0 0-.37.98 1.45 1.45 0 0 0 .37.98c.11.13.25.22.41.29.17.06.34.1.53.1ZM19 30v-4h.52l2.12 3.08h-.26V26H22v4h-.52l-2.12-3.08h.26V30H19ZM23.74 29.38H26V30h-3v-4h3v.62h-2.25v2.76Zm-.06-1.72H26v.61h-2.32v-.61ZM41 30v-4h.52l2.12 3.08h-.26V26H44v4h-.52l-2.12-3.08h.26V30H41ZM45.74 29.38H48V30h-3v-4h3v.62h-2.25v2.76Zm-.06-1.72H48v.61h-2.32v-.61ZM50.17 30v-3.3H49v-.62h3v.61h-1.17V30h-.66Z"/><path d="M27 30v-4h.91l1.31 2.72h-.42L30.1 26h.9v4h-1v-2.42h.15l-.95 2.02h-.43l-.96-2.02H28V30h-1Z" fill="url(#biev30yo4)"/><path d="M33 29h2v1h-3v-4h3v1h-2v2.12V29Zm-.08-1.5H35v1h-2.08v-1Z" fill="url(#ciev30yo4)"/><path d="M36 30v-4h1.84c1.18 0 2.16.77 2.16 2s-.97 2-2.16 2H36Zm1-1h.78c.65 0 1.22-.35 1.22-1 0-.66-.57-1-1.22-1H37v2Z" fill="url(#diev30yo4)"/><defs><linearGradient id="aiev30yo4" x1="8.37" y1="19.61" x2="18.07" y2="36.69" gradientUnits="userSpaceOnUse"><stop stop-color="#00D7FC"/><stop offset=".53" stop-color="#0070FA"/></linearGradient><linearGradient id="biev30yo4" x1="27" y1="28" x2="30.99" y2="28" gradientUnits="userSpaceOnUse"><stop stop-color="#007CFA"/><stop offset="1" stop-color="#0094FA"/></linearGradient><linearGradient id="ciev30yo4" x1="32" y1="28" x2="35" y2="28" gradientUnits="userSpaceOnUse"><stop stop-color="#0094FA"/><stop offset="1" stop-color="#00B3FB"/></linearGradient><linearGradient id="diev30yo4" x1="36" y1="28" x2="40" y2="28" gradientUnits="userSpaceOnUse"><stop stop-color="#00B3FB"/><stop offset="1" stop-color="#00E2FC"/></linearGradient></defs></svg>