<!-- by TradingView --><svg xmlns="http://www.w3.org/2000/svg" width="56" height="56"><path fill="#F0F3FA" d="M0 0h56v56H0z"/><path d="M7 31a2.99 2.99 0 01-3-3 2.97 2.97 0 013-3c1.7.04 3 1.28 3 3a3.03 3.03 0 01-3 3zm5.15-5.49c.3-.26.68-.44 1.1-.5.08-.01.39-.02.7-.01h.55v1h-.74c-.73-.01-.78 0-.98.09-.27.13-.54.48-.66.8-.1.24-.12.58-.12 2.44V31h-1.46v-6H12v.65l.15-.14zm3.29 3.34c-1.3-1.28-.55-3.44 1.18-3.8.19-.03.82-.05 2.02-.05h1.76v1h-.95s.15.22.18.3c.73 1.68-.51 3.55-2.37 3.27-.23-.04-.86.1-.83.4.02.22.2.25.95.13.9-.15 2.16-.18 2.63.77.46.93-.07 1.99-.95 2.41-.83.4-1.9.5-2.8.25a6.04 6.04 0 01-1.42-.73l.84-1.07c.54.37 1.04.66 1.71.66.63 0 1.04-.12 1.27-.37.23-.26.14-.6-.2-.75l-.09-.04c-.14-.05-.3-.04-1.72.03-1.1.06-1.65-.27-1.65-1 0-.37.37-.8.8-1.05l-.36-.36zM21 26v-1h1.75c1.39.02 2.53.4 2.81 1.95.05.26.08.48.1 1.45.04 1.32.05 1.45.13 1.68.06.13.15.3.21.35.15.13.14.18-.04.34a.93.93 0 01-.73.23c-.45-.03-.67-.34-.87-.7-.46.47-1.05.7-1.71.7-2.29 0-2.76-2.9-.85-3.8.43-.21.94-.31 1.57-.32l.83.03c0-.7-1.2-.91-1.98-.91H21zm6.64-1l.23.63s.62-.41 1-.52a2.73 2.73 0 01.92-.1c.97.05 1.84.64 2.13 1.66.07.25.08.5.08 2.44V31h-1.41l-.03-1.83c-.02-2.3-.03-2.32-.32-2.63-.64-.66-1.72-.29-2.24.3V31h-1.41v-6h1.05zm21.87 6c-1.76 0-2.93-1.17-2.93-3a2.9 2.9 0 012.92-3 2.94 2.94 0 012.93 3c0 1.75-1.16 3-2.92 3zm-5.3 0h-.53l-2.76-6h1.57l1.48 3.67L45.52 25H47l-2.8 6zM5.5 28c0 .85.48 1.84 1.5 1.83.98 0 1.53-.98 1.51-1.83-.02-.85-.53-1.81-1.51-1.82-1.02-.02-1.5.97-1.5 1.82zm43.99 1.83c1.08 0 1.45-.83 1.45-1.83 0-.88-.45-1.79-1.44-1.82-1 0-1.45.88-1.45 1.82 0 1 .35 1.84 1.44 1.83zm-25.28-1.59v-.23c-.42-.08-.9-.1-1.32.02-1.12.3-1.24 1.82.08 1.82.44 0 .72-.1.94-.32.32-.33.31-.83.3-1.29zm-6.91.11a1.1 1.1 0 100-2.2 1.1 1.1 0 000 2.2z" fill="#1F1959"/><circle cx="37" cy="28" r="1" fill="#82C030"/><path fill-rule="evenodd" d="M37.68 24.18c0 .1-.03.21-.08.3l.09.02-.01-.1a.66.66 0 111.07.5l.08.04a.66.66 0 111.1.61c.11-.07.24-.1.37-.1a.66.66 0 01.04 1.3l.03.09a.66.66 0 11.19 1.13v.09a.66.66 0 11-.2 1.11l-.03.08a.66.66 0 11-.6 1l-.04.05a.66.66 0 11-.9.74l-.06.03a.65.65 0 01-.44 1.15.66.66 0 01-.65-.76l-.1.02c.06.1.1.22.1.34a.66.66 0 11-1.22-.35l-.1-.02v.11a.66.66 0 11-1.07-.5 3.64 3.64 0 01-.07-.04.66.66 0 11-.88-.73 3.77 3.77 0 01-.07-.08.66.66 0 11-.57-.96h.01a3.54 3.54 0 01-.04-.1.66.66 0 11-.2-1.13v-.12a.65.65 0 11.22-1.12l.02-.07a.66.66 0 11.6-1c0-.02.03-.04.04-.06a.66.66 0 11.9-.74l.06-.03a.65.65 0 111.09-.38l.08-.02a.66.66 0 111.24-.3zm2.08 1.55a.66.66 0 01.07-.09.65.65 0 01-.1.06l.03.03zM37 30.38a2.41 2.41 0 002.43-2.4c0-1.32-1.08-2.4-2.43-2.4a2.41 2.41 0 00-2.43 2.4c0 1.32 1.08 2.4 2.43 2.4zm-1.22-5a.26.26 0 11-.53 0 .26.26 0 01.53 0zm.72-.09a.26.26 0 100-.52.26.26 0 000 .52zm1.3-.26a.26.26 0 11-.52 0 .26.26 0 01.53 0zm.7.63a.26.26 0 100-.52.26.26 0 000 .52zm1.08.42a.26.26 0 11-.53 0 .26.26 0 01.53 0zm.26 1.16a.26.26 0 100-.53.26.26 0 000 .53zm.44.76a.26.26 0 11-.53 0 .26.26 0 01.53 0zm-.46 1.29a.26.26 0 100-.53.26.26 0 000 .53zm-.26.63a.26.26 0 11-.53 0 .26.26 0 01.53 0zm-1.07.94a.26.26 0 100-.52.26.26 0 000 .52zm-.73.09a.26.26 0 11-.52 0 .26.26 0 01.52 0zm-1.28.25a.26.26 0 100-.52.26.26 0 000 .52zm-.74-.6a.26.26 0 11-.52 0 .26.26 0 01.52 0zm-1.06-.42a.26.26 0 100-.52.26.26 0 000 .52zm-.24-1.17a.26.26 0 11-.52 0 .26.26 0 01.52 0zm-.43-.77a.26.26 0 100-.53.26.26 0 000 .53zm.43-1.29a.26.26 0 11-.52 0 .26.26 0 01.52 0zm.27-.65a.26.26 0 100-.53.26.26 0 000 .53zm6.46 1.05a.4.4 0 11-.78 0 .4.4 0 01.78 0zm-.39 1.72a.4.4 0 100-.79.4.4 0 000 .8zm-.09.83a.4.4 0 11-.78 0 .4.4 0 01.78 0zm-1.26 1.4a.4.4 0 100-.79.4.4 0 000 .79zm-.75.26a.4.4 0 11-.78 0 .4.4 0 01.78 0zm-1.7.66a.4.4 0 100-.79.4.4 0 000 .79zm-.92-.66a.4.4 0 11-.79 0 .4.4 0 01.79 0zm.96-7a.4.4 0 100-.78.4.4 0 000 .79zm1.7-.17a.4.4 0 11-.78 0 .4.4 0 01.79 0zm.75 1.1a.4.4 0 100-.79.4.4 0 000 .79zm1.22.6a.4.4 0 11-.78 0 .4.4 0 01.78 0zm-6.16 5.21a.4.4 0 100-.79.4.4 0 000 .79zm-.48-1.4a.4.4 0 11-.79 0 .4.4 0 01.79 0zm-.83-.87a.4.4 0 100-.79.4.4 0 000 .79zm.4-1.75a.4.4 0 11-.8 0 .4.4 0 01.8 0zm.08-.83a.4.4 0 100-.79.4.4 0 000 .79zm1.27-1.4a.4.4 0 11-.79 0 .4.4 0 01.79 0zm.74-.26a.4.4 0 100-.79.4.4 0 000 .79z" fill="#1F1959"/></svg>