<!-- by TradingView --><svg width="56" height="56" viewBox="0 0 56 56" fill="none" xmlns="http://www.w3.org/2000/svg">
<rect width="56" height="56" fill="#F0F3FA"/>
<path d="M41.9375 27.5598C41.515 27.4415 41.1784 27.4138 40.7559 27.335C39.8169 27.1182 38.8545 27.0197 37.8685 27C37.5869 27 37.2817 27 37 27V31H39.6761V29.2463H40.615C40.8732 29.2463 41.1315 29.2266 41.3427 29.1872L41.9375 27.5598Z" fill="#29B8CE"/>
<path d="M41.0359 25.6404C41.5174 25.7303 41.976 25.8652 42.4347 26L42.8704 24.7865C42.664 24.5843 42.3888 24.4045 42.0907 24.2921C41.6092 24.0899 41.0588 24 40.4167 24H37V25.6404C37.2522 25.5955 37.5274 25.5506 37.8026 25.5281C38.8574 25.3933 39.9581 25.4382 41.0359 25.6404Z" fill="#29B8CE"/>
<path d="M45.1887 28.6868L45.8741 31H46.838V29.1366C46.4953 29.0723 46.174 28.9866 45.8313 28.901C45.6171 28.8367 45.4029 28.751 45.1887 28.6868Z" fill="#29B8CE"/>
<path d="M43.3585 24L42.6948 26.186C43.0971 26.3488 43.4993 26.5116 43.8815 26.6977C44.7262 27.093 45.5307 27.4884 46.3151 27.814C46.476 27.8837 46.657 27.9535 46.838 28V26.7442L46.0134 24H43.3585Z" fill="#29B8CE"/>
<path d="M42.1935 27.4445L40.9727 31H43.5001L44.314 28.2798C43.9927 28.1513 43.6929 28.0442 43.393 27.9157C42.9646 27.7443 42.5791 27.5944 42.1935 27.4445Z" fill="#29B8CE"/>
<path d="M51.9123 29C51.8684 29.0202 51.8246 29.0404 51.7588 29.0404C50.7939 29.303 49.7632 29.3457 48.7325 29.3255C48.1623 29.3255 47.5702 29.2649 47 29.1841V31H52V29H51.9123Z" fill="#29B8CE"/>
<path d="M50 28.4384V24H47V28.012C47.6983 28.1745 48.4224 28.2963 49.1466 28.3572C49.431 28.3978 49.7155 28.4181 50 28.4384Z" fill="#29B8CE"/>
<path d="M25.9528 24L23.566 30H20V27.997H23V27H20V25H24V24H19V31H24.417L24.9566 29.6465H28.1321L28.6717 31H30L27.1358 24H25.9528ZM25.3925 28.5891L26.534 25.6495L27.6962 28.5891H25.3925Z" fill="#004884"/>
<path d="M35 24V26C35.3333 25.8542 35.6667 25.75 36 25.6458V24H35Z" fill="#004884"/>
<path d="M35 28.8916L31.0853 24H30V31H31V26.1084L34.9352 31H36V27C35.5904 27.0211 35.4096 27.0633 35 27.1265V28.8916Z" fill="#004884"/>
<path fill-rule="evenodd" clip-rule="evenodd" d="M14.5 30C15.5672 30 16.4781 29.3314 16.8369 28.3902H18C17.654 30.0071 16.1354 31 14.5 31C13.0716 31 11.4796 30.1252 11 28.7341C10.3647 30.1161 9.04269 31 7.5 31C5.55732 31 4 29.4885 4 27.5C4 25.4942 5.55932 24 7.5 24C8.89885 24 10.5192 24.8511 11 26.2457C11.5355 24.865 13.0343 24 14.5 24C16.1037 24 17.7 24.9858 18 26.6098H16.8369C16.4781 25.6686 15.5672 25 14.5 25C13.1193 25 12 26.1193 12 27.5C12 28.8807 13.1193 30 14.5 30ZM7.5 30C8.88071 30 10 28.8807 10 27.5C10 26.1193 8.88071 25 7.5 25C6.11929 25 5 26.1193 5 27.5C5 28.8807 6.11929 30 7.5 30Z" fill="#004884"/>
</svg>
