<!-- by TradingView --><svg xmlns="http://www.w3.org/2000/svg" width="56" height="56" viewBox="0 0 56 56"><path fill="#F0F3FA" d="M0 0h56v56H0z"/><path d="M19.2 30.93c-1.5 3.7.13 8.41 1.3 10.08-5.63 0-11.53-7.28-6.74-14.16 5.48-7.87 14-5.18 16.34-2.35-4.4-1.08-8.78 1.18-10.9 6.43z" fill="url(#aoxswjgjx)"/><path d="M21.23 21.82c-3.48.43-7 4.22-8.12 6.07-2.75-4.93.68-13.66 9-12.83 9.51.96 11.34 9.73 10.03 13.18-1.21-4.39-5.31-7.12-10.91-6.42z" fill="url(#boxswjgjx)"/><path d="M29.95 18.98c-2.44-3.15-7.33-4.08-9.35-3.9 2.82-4.9 12.04-6.4 15.58 1.22 4.05 8.7-2.53 14.76-6.15 15.39 3.14-3.3 3.38-8.23-.08-12.7z" fill="url(#coxswjgjx)"/><path d="M36.8 25.23c1.5-3.7-.13-8.42-1.3-10.09 5.63 0 11.53 7.28 6.74 14.16-5.48 7.87-14 5.18-16.34 2.35 4.4 1.08 8.78-1.18 10.9-6.42z" fill="url(#doxswjgjx)"/><path d="M34.87 34.22c3.94-.55 7.19-4.33 8.03-6.18 2.82 4.9-.5 13.66-8.83 12.94-9.52-.83-11.46-9.58-10.2-13.04 1.27 4.37 5.4 7.05 11 6.28z" fill="url(#eoxswjgjx)"/><path d="M26.05 37c2.41 3.17 7.28 4.15 9.3 3.99-2.84 4.83-12.07 6.3-15.56-1.3-3.98-8.68 2.64-14.7 6.25-15.29-3.14 3.23-3.41 8.12 0 12.6z" fill="url(#foxswjgjx)"/><defs><linearGradient id="aoxswjgjx" x1="27.86" y1="23.18" x2="14.8" y2="36.45" gradientUnits="userSpaceOnUse"><stop stop-color="#1C8DA5"/><stop offset="1" stop-color="#3B3871"/></linearGradient><linearGradient id="boxswjgjx" x1="31.24" y1="16.32" x2="20.81" y2="30.34" gradientUnits="userSpaceOnUse"><stop stop-color="#831F5F"/><stop offset="1" stop-color="#483471"/></linearGradient><linearGradient id="coxswjgjx" x1="33.25" y1="11.16" x2="24.39" y2="29.26" gradientUnits="userSpaceOnUse"><stop stop-color="#9D1F5F"/><stop offset="1" stop-color="#E61C68"/></linearGradient><linearGradient id="doxswjgjx" x1="28.01" y1="32.72" x2="43.26" y2="19.84" gradientUnits="userSpaceOnUse"><stop stop-color="#E42C6A"/><stop offset="1" stop-color="#EA5C2E"/></linearGradient><linearGradient id="eoxswjgjx" x1="40.99" y1="28.67" x2="32.19" y2="43.31" gradientUnits="userSpaceOnUse"><stop stop-color="#EF5D27"/><stop offset=".97" stop-color="#F7C800"/></linearGradient><linearGradient id="foxswjgjx" x1="31.78" y1="26.1" x2="18.87" y2="41.09" gradientUnits="userSpaceOnUse"><stop stop-color="#A4D7DA"/><stop offset="1" stop-color="#1D96A7"/></linearGradient></defs></svg>