<!-- by TradingView --><svg width="56" height="56" viewBox="0 0 56 56" fill="none" xmlns="http://www.w3.org/2000/svg">
<rect width="56" height="56" fill="#F0F3FA"/>
<path d="M21.4175 38.2838L29.0728 43.3144C29.1798 43.3843 29.2884 43.3859 29.3984 43.3189C32.9933 41.1373 35.5611 38.4216 37.1018 35.1719C39.9263 29.2157 34.6532 23.1681 29.9303 20.0919C26.583 17.9102 23.1807 15.7225 19.7234 13.5286C19.6899 13.5067 19.6627 13.4765 19.6443 13.4411C19.6259 13.4057 19.6169 13.3661 19.6183 13.3263C19.6197 13.2864 19.6314 13.2475 19.6522 13.2135C19.673 13.1794 19.7022 13.1512 19.7371 13.1316C31.9662 6.44962 46.5613 16.3949 44.8647 30.2198C43.7826 39.0423 36.0838 45.1081 27.202 44.9985C27.0553 44.9985 26.9208 44.959 26.7985 44.8799C21.6813 41.6074 16.6512 38.3166 12.4189 33.9807C11.4606 32.9994 11.2019 32.3575 11.1239 31.0613C11.1158 30.9251 11.1356 30.7887 11.1822 30.6605C11.2288 30.5323 11.3011 30.4149 11.3948 30.3157C11.4884 30.2165 11.6014 30.1376 11.7267 30.0837C11.852 30.0298 11.9871 30.0022 12.1235 30.0024H30.9922C31.031 30.0035 31.0692 29.9927 31.1015 29.9713C31.1338 29.95 31.1588 29.9192 31.1728 29.8832C31.1869 29.8472 31.1894 29.8077 31.1801 29.7703C31.1707 29.7328 31.1499 29.6991 31.1206 29.6738L29.5156 28.1625C29.4025 28.059 29.271 28 29.1212 28H14.4021C14.3521 27.9023 14.3724 27.6521 14.4619 27.5691L17.0613 25.1839C17.1836 25.0743 17.3257 25 17.4877 25H25.3551C25.4773 25.004 25.5245 24.8332 25.4239 24.7718L17.9809 19.9048C17.9129 19.8621 17.8346 19.8387 17.7546 19.8371C17.6745 19.8354 17.5958 19.8557 17.527 19.8956C14.9775 21.3683 12.8606 23.3066 11.1763 25.7104C11.1639 25.7289 11.1453 25.7425 11.1239 25.7489C11.1025 25.7553 11.0795 25.754 11.0589 25.7454C11.0383 25.7367 11.0214 25.7212 11.011 25.7015C11.0006 25.6818 10.9975 25.6591 11.0021 25.6374C11.6257 21.7517 13.3421 18.4412 16.1514 15.7057C16.1905 15.668 16.2413 15.6447 16.2956 15.6397C16.3498 15.6347 16.4041 15.6484 16.4494 15.6784C23.52 20.1832 31.1638 24.5465 36.5378 31.2924C36.6539 31.4354 36.6478 31.5753 36.5194 31.7123L35.3297 32.9554C35.2197 33.071 34.6626 33 34.5067 33H15.6883C15.3489 33 15.3077 33.3614 15.5645 33.5836L17.2009 34.8538C17.3202 34.9573 17.4577 35 17.6136 35H32.4488C32.5234 34.9999 32.5962 35.0225 32.6575 35.0646C32.7189 35.1067 32.7659 35.1665 32.7923 35.2359C32.8187 35.3053 32.8232 35.381 32.8053 35.453C32.7873 35.525 32.7478 35.5899 32.6919 35.639L30.447 37.8461C30.3247 37.9525 30.1841 38 30.0251 38H21.4908C21.3741 37.9999 21.3172 38.2145 21.4175 38.2838Z" fill="url(#paint0_linear_229_5452)"/>
<defs>
<linearGradient id="paint0_linear_229_5452" x1="28" y1="11" x2="28" y2="45" gradientUnits="userSpaceOnUse">
<stop stop-color="#0082CB"/>
<stop offset="1" stop-color="#1C5193"/>
</linearGradient>
</defs>
</svg>
