<!-- by TradingView --><svg width="56" height="56" viewBox="0 0 56 56" xmlns="http://www.w3.org/2000/svg"><path fill="#F0F3FA" d="M0 0h56v56H0z"/><path fill-rule="evenodd" d="M5.1 30.87c1.14.52 2.7-.57 3.47-2.43.77-1.86.48-3.79-.67-4.31-1.14-.52-2.7.57-3.47 2.43-.77 1.86-.48 3.79.67 4.31Zm1.02-1.72c.96 0 1.52-1.3 1.53-2.16.01-.5-.19-1.14-.77-1.14-.96 0-1.54 1.39-1.53 2.27 0 .48.28 1.03.77 1.03Z" fill="#D0202E"/><path d="M10.16 26 9 31h1.16l.39-1.7h.67c.69 0 1.78-1.03 1.78-2.17 0-.9-.48-1.13-.72-1.13h-2.12Zm.66 2.13.25-1.06h.61c.09 0 .26.07.26.36 0 .37-.39.7-.63.7h-.5ZM14.85 26h-1.02l-.22 1h1l-.9 4h1.14l.9-4h1.03l.22-1h-2.15ZM19 26h-1.6l-.2 1.06h.24l-.64 2.85h-.26l-.2 1.06h1.6l.2-1.06h-.28l.64-2.85h.3L19 26ZM20.45 26 19 31h1.08l.74-2.2V31h.54l.32-.65.84-1.58-.34 2.23h1.08l.74-5h-1.02l-1.34 2.63-.08-2.63h-1.11ZM29.45 26 28 31h1.08l.74-2.2V31h.54l.32-.65.84-1.58-.34 2.23h1.08l.74-5h-1.02l-1.34 2.63-.08-2.63h-1.11ZM26.45 26H25.4l-.87 3.4c-.2.8.36 1.6 1.14 1.6h.04c.9 0 1.67-.64 1.91-1.57l.87-3.43h-1.03l-.86 3.41a.66.66 0 0 1-.63.52c-.26 0-.45-.26-.38-.53l.86-3.4Z" fill="#D0202E"/><path d="M43.22 26h1.35l.6 2.53.61-2.53H47l-1.22 5H44.5l-.63-2.67-.65 2.67H42l1.22-5ZM48.26 26h1.26l-.43 1.7 1.65-1.7H52l-2.04 2.1.85 2.9h-1.43l-.52-1.76-.2.2h-.01l-.4 1.56H47l1.26-5ZM39.7 26H41v5h-1v-1h-1.35l-.54 1H37l2.7-5Zm-.5 3h.8v-1.5l-.8 1.5ZM34.84 24 33 31h2.22c1.65 0 2.18-2.43 2.18-2.73 0-.38-.07-.6-.12-.79a3.49 3.49 0 0 1-.03-.13c.25-.27.75-1.04.75-1.95 0-.91-.6-1.31-.9-1.4h-2.26Zm.73 2.65.3-1.1h.51c.08.02.23.13.23.37 0 .23-.3.73-.49.73h-.55Zm-.71 2.73.32-1.38h.6c.08.03.23.15.23.42 0 .26-.3.96-.48.96h-.67Z" fill="#1E376C"/></svg>