<!-- by TradingView --><svg width="56" height="56" xmlns="http://www.w3.org/2000/svg"><path fill="#1D5C9F" d="M0 0h56v56H0z"/><path d="M10.669 26c-1.376.007-2.21.048-2.503.123a1.137 1.137 0 00-.746.586c-.16.302-.33 1.076-.51 2.282-.107.541-.159.933-.153 1.175.013.45.276.706.786.769.376.049 1.12.072 2.234.065 1.042-.005 1.74-.029 2.092-.07.353-.041.625-.129.82-.264.172-.122.31-.301.412-.537.1-.237.205-.8.312-1.337.128-.946.2-1.412.219-1.712.018-.298-.011-.523-.09-.674-.099-.19-.3-.307-.607-.35-.308-.044-1.063-.063-2.266-.056zm.453-1.998c1.836-.01 3.09.03 3.76.121.966.134 1.476.622 1.53 1.465.04.58-.081 1.561-.358 2.943-.277 1.387-.55 2.37-.82 2.952-.393.845-1.1 1.34-2.12 1.484-.71.1-1.973.154-3.792.165-1.853.01-3.115-.03-3.784-.123-.966-.133-1.477-.622-1.531-1.465-.039-.58.086-1.58.37-3.002.27-1.35.54-2.313.81-2.892.392-.845 1.099-1.34 2.119-1.484.703-.1 1.977-.154 3.816-.165zM19.832 29h3.018c.591-.009.954-.02 1.087-.033.13-.014.256-.051.373-.11a.793.793 0 00.34-.348c.08-.155.152-.351.216-.679.062-.327.3-1.263.267-1.415a.447.447 0 00-.267-.328c-.107-.049-.553-.078-1.339-.087l-3.027.019L19.832 29zm-3.47 4.014L18.139 24h5.825c1.155-.007 1.893-.02 2.216.028.82.116 1.334.406 1.54.868.21.463.197 1.325-.034 2.517-.22 1.135-.496 1.995-.828 2.454a2.27 2.27 0 01-.834.71c-.331.164-.763.279-1.293.344-.38.047-1.073.073-2.082.079l-3.258.018L18.955 33l-2.592.014zM46.248 26c-1.374.007-2.21.049-2.502.124a1.135 1.135 0 00-.745.585c-.16.303-.33 1.21-.51 2.107-.108.54-.159 1.108-.154 1.351.014.45.276.706.787.768.375.05 1.12.072 2.233.065 1.043-.005 1.74-.029 2.093-.07.353-.04.626-.129.818-.263.174-.123.311-.302.413-.538.102-.237.204-.8.313-1.337.127-.636.199-1.412.218-1.71.019-.3-.011-.524-.09-.677-.097-.189-.3-.306-.607-.35-.306-.043-1.063-.062-2.267-.055zm.455-1.998c1.836-.01 3.09.03 3.76.122.965.134 1.476.621 1.531 1.465.038.58-.082 1.56-.358 2.943-.278 1.386-.551 2.546-.821 3.126-.394.846-1.1 1.166-2.12 1.311-.71.098-1.973.154-3.793.163-1.852.01-3.114-.03-3.785-.122-.965-.133-1.475-.621-1.53-1.465-.037-.58.085-1.58.37-3.001.27-1.352.54-2.315.809-2.893.393-.846 1.1-1.341 2.12-1.485.705-.1 1.978-.154 3.817-.164z" fill="#fff"/><path d="M29.613 24.037l2.592-.015-.944 3.517 1.42-.007 4.236-3.51L40.88 24l-6.014 4.655L39.295 33l-3.938.021-3.127-3.028L30.81 30l-.68 3-2.59.015 2.074-8.978z" fill="#fff"/></svg>