<!-- by TradingView --><svg width="56" height="56" viewBox="0 0 56 56" xmlns="http://www.w3.org/2000/svg"><path fill="#F0F3FA" d="M0 0h56v56H0z"/><path d="M27.26 22.87h2.66l.8 23.13h.37l-.8-23.06c.85.2 1.67.5 2.44.89.06 0 .1.1.1.1l-.38.26.07.4.68-.6 5.8-4.43v2.58l-6.24 4.83.13.27 6.11-4.7v2.58l-5.87 4.5.07.33 5.8-4.5v2.65l-5.5 4.23v.33l5.5-4.23V31l-5.19 3.97.07.33L39 31.4v2.58l-4.81 3.7v.33L39 34.38v2.58l-4.5 3.38.06.33 4.44-3.3v2.57l-4.13 3.11v.33l4.13-3.1v2.64L36.29 45h-1.24l.19 1H40V10H16v36h10.4l.86-23.13ZM39 45h-2.28L39 43.25V45Zm-8.4-24.44.37.1v.78c-.42-.12-.86-.2-1.3-.22h-1.36v-.93h1.18c.38.05.75.14 1.11.27m-1-.4v-2.58h.2c.38.04.76.15 1.1.32l.07.07v2.52l-1.36-.33Zm-.11 0h-1.67v-2.58h1.66v2.58Zm9.51-1-5.86 4.5-.38-.2c-.59-.27-1.21-.5-1.85-.65-.86-.17-1.73-.24-2.6-.2v-1.13h1c1.04.02 2.06.3 2.96.8l.74.33c.08.04.16.07.25.06h.12c.03 0 .07-.02.09-.04a.13.13 0 0 0 .03-.09.36.36 0 0 0-.12-.2l-1.18-.46 6.8-5.3v2.59Zm0-2.9-7.1 5.49-.56-.2v-1.13l-.19-.06v-.6L39 13.61v2.65ZM39 11v2.28l-7.85 6.08v-1.32h.07c.03 0 .06-.02.09-.04a.13.13 0 0 0 .03-.1c-.05-.31-.2-.61-.43-.85L38 11h1Zm-1.47 0-6.87 5.85c-.31-.3-.73-.46-1.18-.46l-.12-.07h.06c.06-.06.06-.06.06-.13a.46.46 0 0 0-.1-.24.51.51 0 0 0-.2-.16h-.44L34.31 11h3.22ZM17 11h2.28L17 12.88V11Zm0 2.28L19.71 11h3.22L17 15.86v-2.58Zm0 2.98L23.36 11h3.22L17 18.84v-2.58Zm0 2.9L27.01 11h3.22L17 21.81v-2.64Zm0 8.94 7.17-5.63-.25 1.99.43.46L17 30.68V28.1ZM21.94 45h-3.46l3.9-3.27-.44 3.27Zm.43-3.67L18.04 45H17v-2.15l5.8-4.43-.43 2.91Zm.5-3.3L17 42.51v-2.58l6.24-4.83-.37 2.91Zm.43-3.31L17 39.54v-2.58l6.67-5.16-.37 2.92Zm.43-3.38L17 36.57v-2.58l7.1-5.56-.37 2.91Zm.44-3.3L17 33.65v-2.64l7.54-5.89-.37 2.92Zm.44-3.32-.2-.12a.53.53 0 0 1-.12-.33c0-.08.03-.16.07-.23.04-.07.1-.13.18-.17l.18-.13-.11.98Zm.48-1.58c-.3.16-.56.36-.8.6l.19-1.5 1.42-1.15-.12 1.66s-.32.19-.69.38m.8-2.44-1.54 1.25L17 27.7v-2.58l8.48-6.6.42-.35v2.52Zm-.12-2.72L17 24.72v-2.58L30.66 11h3.22l-5.57 4.8h-.12c-.25.06-.44.2-.44.39v.06l.07.14-.44.13c-.62.13-1.36.53-1.48 1-.08.14-.12.3-.13.45m.31.07.25-.13c.34-.13.69-.22 1.05-.27l.3-.06v2.58l-1.6.4v-2.52Z" fill="#031F73"/><path d="M32.62 28h-1.6l.12 3h1.55l-.07-3ZM33.34 39h-1.55l.06 3h1.8l-.31-3Z" fill="#031F73"/></svg>