<!-- by TradingView --><svg width="56" height="56" viewBox="0 0 56 56" xmlns="http://www.w3.org/2000/svg"><path fill="#F0F3FA" d="M0 0h56v56H0z"/><path d="M22.74 37.01c-1.78-2.09-2.91-5.17-2.99-8.63v-.75c.07-3.47 1.23-6.55 2.99-8.64 2.3-2.98 5.67-4.31 9.49-4.31 2.35 0 4.56.16 6.43 1.4A15.83 15.83 0 0 0 28.06 12H28a16 16 0 0 0-.76 31.99L28 44c4.1 0 7.84-1.54 10.66-4.08-1.87 1.25-3.96 1.3-6.31 1.3-3.8.02-7.33-1.22-9.61-4.2Z" fill="#FF1B2D"/><path d="M22.74 18.99c1.46-1.74 3.36-2.78 5.44-2.78 4.66 0 8.43 5.28 8.43 11.8 0 6.53-3.77 11.8-8.43 11.8-2.08 0-3.97-1.05-5.44-2.77a12.06 12.06 0 0 0 9.51 4.87c2.34 0 4.54-.71 6.41-1.96a16.05 16.05 0 0 0 0-23.88 11.48 11.48 0 0 0-6.4-1.96c-3.82 0-7.23 1.89-9.52 4.88Z" fill="#9C0000"/></svg>