<!-- by TradingView --><svg width="56" height="56" viewBox="0 0 56 56" xmlns="http://www.w3.org/2000/svg"><path fill="#F0F3FA" d="M0 0h56v56H0z"/><path d="M16.62 19.97c-1.08-.52-2.4-.18-2.94.9a15.93 15.93 0 0 0 .77 15.64c.69 1.1 2.17 1.25 3.21.48 1.17-.87 1.3-2.55.62-3.83a10.95 10.95 0 0 1-.47-9.32c.58-1.42.19-3.2-1.2-3.87Zm8.78-5C25.58 16.19 26.76 17 28 17a11 11 0 1 1-5.16 20.72c-1.3-.7-3-.54-3.85.65-.75 1.04-.59 2.5.5 3.18a16 16 0 1 0 7.88-29.54c-1.32.05-2.2 1.3-2.01 2.6l.04.36Z"/><circle cx="21" cy="17" r="3.5" fill="#6CDB8C"/></svg>