<!-- by TradingView --><svg xmlns="http://www.w3.org/2000/svg" width="56" height="56" viewBox="0 0 56 56"><path fill="#F0F3FA" d="M0 0h56v56H0z"/><path d="m48.35 27.61-.78.81 1.33 1.37-1.33 1.37.78.81 1.33-1.37v-1.62l-1.33-1.37Z" fill="#2E283A"/><path d="m52 28.42-.78-.8-1.32 1.36v1.62l1.32 1.37.78-.8-1.32-1.38L52 28.42ZM44.85 28.1h-1.62v-1.76h1.62c.55 0 .88.25.88.87 0 .6-.3.9-.88.9Zm2.15-.92c0-1.46-.96-2.18-2.13-2.18H42v7h1.23v-2.6h1.25l1.1 2.6H47l-1.18-2.8c.78-.34 1.18-.98 1.18-2.02Z" fill="#729A40"/><path d="M28.69 27.96a1.3 1.3 0 0 0-.5-.42c-.2-.1-.46-.16-.8-.16-.28 0-.56.08-.82.23a1.4 1.4 0 0 0-.6.71c-.1-.33-.27-.57-.5-.72a1.55 1.55 0 0 0-1.66.04c-.25.17-.43.38-.54.62h-.03a29.42 29.42 0 0 0-.04-.77h-.54a4.32 4.32 0 0 0 .02.58 13.43 13.43 0 0 0 .02.65V32h.55v-2.32c0-.3.04-.57.11-.8.08-.22.18-.4.31-.55.13-.15.29-.26.47-.33.17-.07.36-.11.56-.11.3 0 .52.12.66.37.15.24.22.57.22.97V32h.54v-2.6c0-.16.02-.32.06-.5.04-.18.11-.34.2-.49.1-.15.23-.28.39-.37.16-.1.37-.15.63-.15.22 0 .4.04.53.12.14.08.24.18.32.31.08.14.13.29.16.45.03.17.04.34.04.52V32H29v-2.74c0-.24-.02-.47-.07-.7a1.61 1.61 0 0 0-.24-.6ZM30.45 32H31v-4.5h-.55V32Zm0-5H31v-.68h-.55V27Zm-9.9-.09h.54v-.67h-.54v.67Zm16.21 2.4a1.74 1.74 0 0 1 .79-1.23c.2-.13.44-.19.74-.19a1.45 1.45 0 0 1 1.03.42c.13.13.24.28.31.45.08.17.12.35.12.55h-2.99Zm3.53.11c0-.25-.04-.5-.12-.75a1.87 1.87 0 0 0-1.85-1.3 2.01 2.01 0 0 0-1.95 1.39 2.93 2.93 0 0 0 0 1.87 1.97 1.97 0 0 0 1.1 1.2 2.43 2.43 0 0 0 1.9-.05c.32-.14.58-.38.8-.71l-.4-.35a1.7 1.7 0 0 1-1.41.77 1.48 1.48 0 0 1-1.28-.64c-.12-.18-.2-.36-.25-.55a2.23 2.23 0 0 1-.07-.48h3.53v-.4Zm-4.92-1.59v-.34h-3.15V28h2.4l-2.53 3.63v.34h3.39v-.51h-2.62l2.51-3.63Zm-16.2 3.62c-.11.03-.21.04-.32.04a.57.57 0 0 1-.43-.16.63.63 0 0 1-.15-.45V28h1.2v-.5h-1.2v-1.26h-.55v1.25h-.9V28h.9v2.88c0 .15.02.3.06.44a.89.89 0 0 0 .52.6 1.57 1.57 0 0 0 .86.04l.36-.11-.05-.51c-.1.04-.2.08-.3.1Zm-9.3-1.77c-.13.35-.3.67-.55.93-.23.26-.52.47-.86.62-.33.15-.71.23-1.13.23-.42 0-.8-.08-1.13-.23a2.53 2.53 0 0 1-.86-.62 2.78 2.78 0 0 1-.55-.93c-.13-.36-.19-.75-.19-1.17 0-.41.06-.8.2-1.16a2.53 2.53 0 0 1 1.4-1.56c.33-.15.71-.22 1.13-.22a2.53 2.53 0 0 1 2 .85c.23.26.41.57.54.93a3.45 3.45 0 0 1 0 2.32ZM9.73 26a3.1 3.1 0 0 0-1.05-.74A3.39 3.39 0 0 0 7.33 25c-.5 0-.94.09-1.35.26a3.1 3.1 0 0 0-1.73 1.85c-.17.42-.25.9-.25 1.4 0 .51.08.98.25 1.42.16.43.39.8.68 1.11.29.31.64.55 1.05.73.4.17.86.26 1.35.26.5 0 .94-.09 1.35-.26.41-.18.76-.42 1.05-.73.3-.31.52-.68.69-1.11.16-.44.24-.9.24-1.42 0-.5-.08-.98-.24-1.4-.17-.43-.4-.8-.69-1.11Zm10.82 6h.54v-4.5h-.54V32Zm-5.01-1.63a1.63 1.63 0 0 1-.86.95c-.21.1-.44.14-.7.14a1.68 1.68 0 0 1-1.24-.52 1.78 1.78 0 0 1-.51-1.26 1.78 1.78 0 0 1 1.75-1.79 1.64 1.64 0 0 1 1.22.52c.15.16.26.35.34.57a2.09 2.09 0 0 1 0 1.39Zm.03-2.34c-.2-.2-.43-.37-.7-.48a2.27 2.27 0 0 0-2.25.32c-.13.1-.24.24-.32.39h-.02v-.77h-.54v6.52h.54v-2.92h.02c.08.15.2.28.32.4a1.9 1.9 0 0 0 .88.43 2.34 2.34 0 0 0 1.37-.12 2.08 2.08 0 0 0 1.16-1.2c.11-.28.17-.6.17-.92 0-.34-.06-.65-.17-.93-.1-.28-.26-.52-.46-.72Z" fill="#2E283A"/></svg>