<!-- by TradingView --><svg width="56" height="56" viewBox="0 0 56 56" xmlns="http://www.w3.org/2000/svg"><path fill="#F0F3FA" d="M0 0h56v56H0z"/><path fill-rule="evenodd" d="M21.83 23.52h1.35l.26-1.52H22.1l-.26 1.52Zm-.1.48h1.38l-.97 7h-1.38l.97-7Zm-4 .48.26-1.48h1.46l-.3 1.48h1.77L20.65 26h-1.62l-.33 2.33c-.3 1.38.91 1.34 1.55 1.14l-.2 1.33c-.45.2-1.02.21-1.25.2-1.6-.16-1.83-1.53-1.6-2.67l.38-2.33H16.4l.2-1.52h1.12Zm-7.99 4.58a3.3 3.3 0 0 1-4.47 1.59c-1.42-.74-1.62-2.94-.76-4.76.87-1.82 2.98-2.16 4.16-1.71 1.8.67 1.93 3.06 1.07 4.88Zm-1.2-1c-.38 1.13-1.43 1.65-2.24 1.35-.76-.29-.93-1.52-.55-2.65.39-1.12 1.46-1.52 2.09-1.38.94.2 1.09 1.56.7 2.68Zm26.1 1a3.3 3.3 0 0 1-4.48 1.59c-1.42-.74-1.62-2.94-.76-4.76.87-1.82 2.98-2.16 4.16-1.71 1.8.67 1.93 3.06 1.07 4.88Zm-1.2-1c-.39 1.13-1.44 1.65-2.25 1.35-.76-.29-.93-1.52-.55-2.65.39-1.12 1.46-1.52 2.09-1.38.94.2 1.09 1.56.7 2.68ZM42 30.65c1.24.64 2.84.4 3.86-.68L44.7 28.9c-.48.51-1.14.7-1.68.5-.46-.17-.7-.74-.7-1.41h4.51c.39-1.6.02-3.28-1.44-3.82-1.19-.45-3.3-.11-4.16 1.71-.86 1.82-.66 4.02.76 4.76Zm3.43-3.9h-2.89c.4-1.1 1.43-1.5 2.03-1.37.57.12.83.69.86 1.37ZM11 24.57 9.82 33h1.54l.31-2.48c.54.17 1.24.23 1.52.23 1.76-.01 2.47-1.45 2.6-2.17.1-.53.27-1.8.31-2.69.05-1.12-.65-1.77-2.15-1.88a6.75 6.75 0 0 0-2.95.56Zm3.58 1.55c-.01-.94-1.49-.73-2.22-.51l-.53 3.47c.47.22 1 .26 1.2.25 1.58.02 1.57-2.04 1.55-3.21Zm9.12-1.53L22.85 31h1.46l.6-5.23c.07-.11.43-.31 1.37-.27.94.05 1.12.56.97 1.36L26.68 31h1.49l.55-4.42c.2-1.88-.62-2.52-2.2-2.58a6.3 6.3 0 0 0-2.82.6Zm17.11 1.2c-.06-.6-.64-1.79-2.41-1.79-2.22 0-2.7 1.34-2.83 2.15-.14.82.37 1.7 1.69 1.87l.34.04c1.06.12 1.5.17 1.46.73-.03.62-2 1.54-2.69-.25l-1.3.49c.07.67.7 2 2.66 1.97a2.61 2.61 0 0 0 2.73-2.46c.02-.55-.35-1.66-2.06-1.74-.5.02-1.46-.08-1.42-.65.05-.7.75-.83 1.28-.81.53.02 1.07.32 1.28 1.03l1.27-.58Z" fill="url(#arumgyrho)"/><path d="M12.84 32.81C21.05 34.15 40.38 35.45 52 30c-4.25 3.28-18.03 8.44-39.16 2.81Z" fill="url(#brumgyrho)"/><path d="M16.69 34.26c6.14 1.47 21.01 3.37 31.42-.81-3.32 2.49-14.24 6.14-31.42.8Z" fill="url(#crumgyrho)"/><defs><linearGradient id="arumgyrho" x1="4" y1="27.5" x2="46.99" y2="27.5" gradientUnits="userSpaceOnUse"><stop stop-color="#0198D8"/><stop offset="1" stop-color="#284AA1"/></linearGradient><linearGradient id="brumgyrho" x1="15.41" y1="32.72" x2="49.99" y2="32.16" gradientUnits="userSpaceOnUse"><stop stop-color="#284CA2"/><stop offset="1" stop-color="#0298D8"/></linearGradient><linearGradient id="crumgyrho" x1="15.41" y1="32.72" x2="49.99" y2="32.16" gradientUnits="userSpaceOnUse"><stop stop-color="#284CA2"/><stop offset="1" stop-color="#0298D8"/></linearGradient></defs></svg>