<!-- by TradingView --><svg width="56" height="56" viewBox="0 0 56 56" xmlns="http://www.w3.org/2000/svg"><path fill="#F0F3FA" d="M0 0h56v56H0z"/><path d="M28 44a16 16 0 0 0 15.89-18H39.5A11.67 11.67 0 0 1 28 39.67c-4.73 0-8.8-2.63-10.63-6.67h-4.63c2.05 6.48 8.1 11 15.26 11Z" fill="#4C4C4C"/><path d="M30 12.13a16 16 0 0 0-17.78 18.55h-1.56a.66.66 0 0 0 0 1.32h12.9l9.34-6.55H45v.91l2-1.68L45 23v1h-1.5a16.2 16.2 0 0 0-7.5-9.8v5.4a12.11 12.11 0 0 1 2.96 4.4H35V13.67a15.1 15.1 0 0 0-4-1.39V24.9l-1 .84V19h-4v9.72l-1 .56V24h-4v6.68h-4.36A11.67 11.67 0 0 1 30 16.51v-4.38Z" fill="#016436"/><path d="M25 31.99v6.65a13.61 13.61 0 0 1-4-2.2V33h2.7l1.3-1.01ZM26 31.2v7.62a9.3 9.3 0 0 0 4 0V28.36l-4 2.83ZM31 27.66v10.98c1.63-.42 3.3-1.64 4-2.2V26h-1.81L31 27.66Z" fill="#4C4C4C"/></svg>