<!-- by TradingView --><svg width="56" height="56" viewBox="0 0 56 56" xmlns="http://www.w3.org/2000/svg"><path fill="#F0F3FA" d="M0 0h56v56H0z"/><path d="M27.79 37v11h.42V37h1.29v-.46h-1.29v-3.08h1.29V33h-1.29v-4.79H33v1.29h.46v-1.29h3.08v1.29H37v-1.29h11v-.42H37V26.5h-.46v1.29h-3.08V26.5H33v1.29h-4.79V23h1.29v-.46h-1.29v-3.08h1.29V19h-1.29V8h-.42v11H26.5v.46h1.29v3.08H26.5V23h1.29v4.79H23V26.5h-.46v1.29h-3.08V26.5H19v1.29H8v.42h11v1.29h.46v-1.29h3.08v1.29H23v-1.29h4.79V33H26.5v.46h1.29v3.08H26.5V37h1.29Z" fill="#034D8A"/><path fill-rule="evenodd" d="M28 44a16 16 0 1 0 0-32 16 16 0 0 0 0 32Zm0-3a13 13 0 1 0 0-26 13 13 0 0 0 0 26Z" fill="#034D8A"/><path fill-rule="evenodd" d="M40 28a12 12 0 1 1-24 0 12 12 0 0 1 24 0Zm-.7 0a11.3 11.3 0 1 1-22.6 0 11.3 11.3 0 0 1 22.6 0ZM31 28a3 3 0 1 1-6 0 3 3 0 0 1 6 0Zm-.66 0a2.34 2.34 0 1 1-4.68 0 2.34 2.34 0 0 1 4.68 0Z" fill="#484848"/></svg>