<!-- by TradingView --><svg xmlns="http://www.w3.org/2000/svg" width="56" height="56" viewBox="0 0 56 56"><path fill="url(#ajuamyh0k)" d="M0 0h56v56H0z"/><path d="M33.36 12H31v4h2.26c1.18 0 1.74.58 1.74 1.84v20.32c0 1.26-.56 1.84-1.74 1.84H31v4h2.36c3.77 0 5.64-1.93 5.64-5.84V17.84c0-3.9-1.87-5.84-5.64-5.84ZM21 38.16V17.84c0-1.26.56-1.84 1.78-1.84H25v-4h-2.36C18.87 12 17 13.93 17 17.84v20.32c0 3.9 1.87 5.84 5.64 5.84H25v-4h-2.22c-1.22 0-1.78-.58-1.78-1.84Z" fill="#fff"/><path d="M24.79 24.57a.63.63 0 0 0-.92 0 .69.69 0 0 0 0 .95c.25.26.66.26.92 0a.69.69 0 0 0 0-.95ZM23.24 17a.53.53 0 0 0-.77 0 .58.58 0 0 0 0 .8c.21.21.56.21.77 0a.58.58 0 0 0 0-.8ZM23.23 19.33c.2-.21.2-.56 0-.78a.52.52 0 0 0-.75 0c-.21.22-.21.57 0 .78.2.22.54.22.75 0ZM22.48 20.88c.2.21.54.21.75 0 .2-.22.2-.57 0-.79a.52.52 0 0 0-.75 0c-.21.22-.21.57 0 .79ZM23.96 20.87c.2.2.53.2.74 0 .2-.21.2-.56 0-.77a.51.51 0 0 0-.74 0c-.2.21-.2.56 0 .77ZM26.19 20.1a.51.51 0 0 0-.74 0c-.2.21-.2.56 0 .77.2.2.53.2.74 0 .2-.21.2-.56 0-.77ZM27.65 20.11a.5.5 0 0 0-.72 0c-.2.21-.2.54 0 .75.2.2.52.2.72 0 .2-.2.2-.54 0-.75ZM29.1 20.13a.47.47 0 0 0-.69 0 .51.51 0 0 0 0 .7c.2.2.5.2.69 0a.51.51 0 0 0 0-.7ZM30.56 20.16a.43.43 0 0 0-.62 0 .47.47 0 0 0 0 .65c.18.17.45.17.62 0a.47.47 0 0 0 0-.65ZM32.05 20.15a.45.45 0 0 0-.65 0 .49.49 0 0 0 0 .67c.18.19.47.19.65 0a.49.49 0 0 0 0-.67ZM33.53 20.15a.44.44 0 0 0-.65 0 .48.48 0 0 0 0 .67c.18.18.47.18.65 0a.48.48 0 0 0 0-.67ZM32.9 21.67a.47.47 0 0 0 0 .65c.17.18.45.18.62 0a.47.47 0 0 0 0-.65.44.44 0 0 0-.63 0ZM32.03 22.31a.46.46 0 0 0 0-.63.42.42 0 0 0-.61 0 .46.46 0 0 0 0 .63c.17.18.44.18.6 0ZM29.97 21.7a.43.43 0 0 0 0 .59.4.4 0 0 0 .57 0 .43.43 0 0 0 0-.59.4.4 0 0 0-.57 0ZM28.46 21.69a.44.44 0 0 0 0 .61.4.4 0 0 0 .6 0 .44.44 0 0 0 0-.61.4.4 0 0 0-.6 0ZM26.98 21.67a.47.47 0 0 0 0 .65c.17.18.45.18.63 0a.47.47 0 0 0 0-.65.43.43 0 0 0-.63 0ZM25.45 21.62c-.2.2-.2.54 0 .75.2.2.53.2.73 0 .2-.2.2-.54 0-.75a.5.5 0 0 0-.73 0ZM23.96 21.62c-.2.2-.2.54 0 .75.2.2.53.2.73 0 .2-.2.2-.54 0-.75a.5.5 0 0 0-.73 0ZM22.47 22.39c.21.22.55.22.77 0a.57.57 0 0 0 0-.8.53.53 0 0 0-.77 0 .57.57 0 0 0 0 .8ZM22.44 23.98c.23.24.6.24.83 0a.62.62 0 0 0 0-.85.57.57 0 0 0-.83 0 .62.62 0 0 0 0 .85ZM22.69 39.02c.09.1.24.1.33 0 .09-.1.09-.24 0-.34a.23.23 0 0 0-.33 0c-.1.1-.1.25 0 .34ZM24.33 39.03c.1 0 .17-.08.17-.18 0-.1-.07-.18-.17-.18s-.18.08-.18.18c0 .1.08.18.18.18ZM25.82 39.03c.1 0 .17-.08.17-.18 0-.1-.08-.18-.17-.18-.1 0-.18.08-.18.18 0 .1.08.18.18.18ZM27.1 38.66c-.1.1-.1.28 0 .38.1.1.28.1.38 0 .1-.1.1-.28 0-.38a.26.26 0 0 0-.37 0ZM28.52 38.61a.35.35 0 0 0 0 .48c.13.13.34.13.47 0a.35.35 0 0 0 0-.48.32.32 0 0 0-.47 0ZM30.02 38.61a.35.35 0 0 0 0 .48c.13.13.34.13.47 0a.35.35 0 0 0 0-.48.32.32 0 0 0-.47 0ZM31.5 38.62a.34.34 0 0 0 0 .46c.12.13.32.13.45 0a.34.34 0 0 0 0-.46.31.31 0 0 0-.45 0ZM32.99 38.62a.33.33 0 0 0 0 .46.3.3 0 0 0 .43 0 .33.33 0 0 0 0-.46.3.3 0 0 0-.43 0ZM33.43 37.08a.32.32 0 0 0-.45 0 .34.34 0 0 0 0 .47c.12.13.33.13.45 0a.34.34 0 0 0 0-.47ZM31.97 37.05a.35.35 0 0 0-.5 0 .38.38 0 0 0 0 .52c.14.14.36.14.5 0a.38.38 0 0 0 0-.52ZM30 37.04a.4.4 0 0 0 0 .54c.14.15.37.15.52 0a.4.4 0 0 0 0-.54.36.36 0 0 0-.53 0ZM28.52 37.07a.35.35 0 0 0 0 .49c.13.13.34.13.47 0a.35.35 0 0 0 0-.5.32.32 0 0 0-.47 0ZM27.08 37.1a.32.32 0 0 0 0 .43c.12.12.3.12.42 0a.32.32 0 0 0 0-.44.3.3 0 0 0-.42 0ZM25.63 37.12c-.1.1-.1.28 0 .38.1.1.27.1.37 0 .1-.1.1-.28 0-.38a.26.26 0 0 0-.37 0ZM24.49 37.14a.22.22 0 0 0-.32 0 .24.24 0 0 0 0 .34c.09.09.23.09.32 0a.24.24 0 0 0 0-.34ZM22.85 37.52c.11 0 .2-.1.2-.2a.2.2 0 0 0-.2-.21.2.2 0 0 0-.2.2c0 .11.1.2.2.2ZM23.03 35.62a.25.25 0 0 0-.36 0c-.1.1-.1.28 0 .38.1.1.26.1.36 0 .1-.1.1-.27 0-.38ZM24.56 35.57a.33.33 0 0 0-.47 0 .36.36 0 0 0 0 .49c.13.13.34.13.47 0a.36.36 0 0 0 0-.5ZM25.56 35.54a.4.4 0 0 0 0 .54c.14.15.37.15.52 0a.4.4 0 0 0 0-.54.36.36 0 0 0-.52 0ZM27 35.52a.43.43 0 0 0 0 .59.4.4 0 0 0 .58 0 .43.43 0 0 0 0-.6.4.4 0 0 0-.57 0ZM28.44 35.48a.48.48 0 0 0 0 .66c.17.18.46.18.63 0a.48.48 0 0 0 0-.66.44.44 0 0 0-.63 0ZM29.93 35.48a.49.49 0 0 0 0 .67c.18.18.47.18.65 0a.49.49 0 0 0 0-.67.45.45 0 0 0-.65 0ZM32.05 36.15a.49.49 0 0 0 0-.67.45.45 0 0 0-.65 0 .49.49 0 0 0 0 .67c.18.18.47.18.65 0ZM33.52 35.49a.43.43 0 0 0-.63 0 .47.47 0 0 0 0 .65c.18.17.45.17.63 0a.47.47 0 0 0 0-.65ZM32.86 34.63c.2.2.5.2.69 0a.52.52 0 0 0 0-.71.47.47 0 0 0-.69 0 .52.52 0 0 0 0 .71ZM32.86 33.08c.2.2.5.2.69 0a.51.51 0 0 0 0-.71.47.47 0 0 0-.69 0 .51.51 0 0 0 0 .7ZM32.07 33.08c.19-.2.19-.52 0-.72-.2-.2-.5-.2-.7 0-.18.2-.18.52 0 .72.2.2.5.2.7 0ZM28.35 32.3a.61.61 0 0 0 0 .84c.22.24.59.24.81 0a.61.61 0 0 0 0-.84.56.56 0 0 0-.81 0ZM29.85 32.3a.61.61 0 0 0 0 .84c.22.24.59.24.81 0a.61.61 0 0 0 0-.84.56.56 0 0 0-.81 0ZM26.9 32.3a.6.6 0 0 0 0 .84c.21.22.57.22.8 0a.6.6 0 0 0 0-.83.55.55 0 0 0-.8 0ZM25.44 32.33c-.2.22-.2.57 0 .78.2.21.54.21.75 0 .2-.22.2-.56 0-.78a.52.52 0 0 0-.75 0ZM23.98 32.36c-.19.2-.19.52 0 .72.2.2.5.2.7 0 .18-.2.18-.52 0-.72-.2-.2-.5-.2-.7 0ZM23.17 32.4a.44.44 0 0 0-.63 0 .48.48 0 0 0 0 .65c.17.18.46.18.63 0a.48.48 0 0 0 0-.66ZM23.26 30.8a.55.55 0 0 0-.8 0 .6.6 0 0 0 0 .83c.21.23.57.23.8 0a.6.6 0 0 0 0-.84ZM23.9 30.77a.63.63 0 0 0 0 .88c.24.24.62.24.85 0a.63.63 0 0 0 0-.88.58.58 0 0 0-.84 0ZM25.4 30.77a.63.63 0 0 0 0 .88c.23.24.6.24.84 0a.63.63 0 0 0 0-.88.58.58 0 0 0-.85 0ZM26.87 30.77a.63.63 0 0 0 0 .88c.23.24.61.24.84 0a.63.63 0 0 0 0-.88.58.58 0 0 0-.84 0ZM28.31 30.75a.67.67 0 0 0 0 .92c.25.25.64.25.89 0a.67.67 0 0 0 0-.92.61.61 0 0 0-.89 0ZM29.83 30.77a.63.63 0 0 0 0 .88c.24.24.61.24.85 0a.63.63 0 0 0 0-.88.58.58 0 0 0-.85 0ZM32.1 31.6a.57.57 0 0 0 0-.78.52.52 0 0 0-.76 0 .57.57 0 0 0 0 .78c.21.22.55.22.76 0ZM32.86 30.86a.51.51 0 0 0 0 .7c.2.2.5.2.69 0a.51.51 0 0 0 0-.7.47.47 0 0 0-.69 0ZM33.55 29.27a.47.47 0 0 0-.69 0 .51.51 0 0 0 0 .7c.2.2.5.2.69 0a.51.51 0 0 0 0-.7ZM32.87 28.45c.19.19.48.19.67 0a.5.5 0 0 0 0-.69.46.46 0 0 0-.67 0 .5.5 0 0 0 0 .69ZM32.88 26.25a.5.5 0 0 0 0 .68c.18.19.47.19.65 0a.5.5 0 0 0 0-.68.45.45 0 0 0-.65 0ZM33.53 24.7a.45.45 0 0 0-.65 0 .5.5 0 0 0 0 .68c.18.19.47.19.65 0a.5.5 0 0 0 0-.68ZM31.4 25.38c.18.19.47.19.65 0a.5.5 0 0 0 0-.68.45.45 0 0 0-.65 0 .5.5 0 0 0 0 .68ZM29.92 25.39c.19.2.48.2.67 0a.5.5 0 0 0 0-.7.46.46 0 0 0-.67 0 .5.5 0 0 0 0 .7ZM28.4 25.42c.2.2.52.2.72 0 .2-.2.2-.54 0-.75a.5.5 0 0 0-.73 0c-.2.2-.2.54 0 .75ZM26.9 24.64a.58.58 0 0 0 0 .8c.22.23.57.23.78 0a.59.59 0 0 0 0-.8.54.54 0 0 0-.78 0ZM26.24 25.48a.63.63 0 0 0 0-.87.58.58 0 0 0-.85 0 .63.63 0 0 0 0 .87c.24.24.61.24.85 0ZM31.38 26.94c.2.2.5.2.68 0a.51.51 0 0 0 0-.7.47.47 0 0 0-.68 0 .51.51 0 0 0 0 .7ZM29.9 26.96c.2.2.51.2.7 0 .2-.2.2-.53 0-.74a.49.49 0 0 0-.7 0c-.2.2-.2.53 0 .74ZM28.37 27c.21.22.56.22.77 0a.58.58 0 0 0 0-.81.54.54 0 0 0-.77 0 .59.59 0 0 0 0 .8ZM26.86 26.14a.66.66 0 0 0 0 .9.6.6 0 0 0 .87 0 .66.66 0 0 0 0-.9.6.6 0 0 0-.87 0ZM25.36 26.12a.69.69 0 0 0 0 .94c.25.27.66.27.91 0a.69.69 0 0 0 0-.94.63.63 0 0 0-.91 0ZM23.87 26.12a.69.69 0 0 0 0 .94c.25.27.66.27.92 0a.69.69 0 0 0 0-.94.63.63 0 0 0-.92 0ZM23.33 26.1a.66.66 0 0 0-.96 0 .72.72 0 0 0 0 .99c.27.27.7.27.96 0a.72.72 0 0 0 0-1ZM23.33 24.55a.66.66 0 0 0-.96 0 .72.72 0 0 0 0 1c.27.27.7.27.96 0a.72.72 0 0 0 0-1ZM31.36 28.48c.2.21.53.21.73 0 .2-.2.2-.54 0-.75a.5.5 0 0 0-.73 0c-.2.2-.2.54 0 .75ZM29.87 28.5c.21.22.56.22.77 0a.58.58 0 0 0 0-.8.53.53 0 0 0-.77 0 .57.57 0 0 0 0 .8ZM28.33 28.54c.24.24.61.24.85 0a.63.63 0 0 0 0-.87.58.58 0 0 0-.85 0 .63.63 0 0 0 0 .87ZM27.71 28.54a.63.63 0 0 0 0-.87.58.58 0 0 0-.84 0 .63.63 0 0 0 0 .87c.23.24.61.24.84 0ZM26.26 28.56a.67.67 0 0 0 0-.92.61.61 0 0 0-.89 0 .67.67 0 0 0 0 .92c.25.26.64.26.89 0ZM23.86 27.62a.7.7 0 0 0 0 .97c.26.26.68.26.93 0a.7.7 0 0 0 0-.97.64.64 0 0 0-.93 0Z" fill="#fff"/><path d="M23.32 27.62a.64.64 0 0 0-.93 0 .7.7 0 0 0 0 .97c.25.26.67.26.93 0a.7.7 0 0 0 0-.97ZM31.35 30c.2.22.54.22.74 0 .2-.2.2-.55 0-.76a.5.5 0 0 0-.74 0c-.2.21-.2.56 0 .77ZM29.86 30.04c.22.22.57.22.8 0a.6.6 0 0 0 0-.83.55.55 0 0 0-.8 0 .6.6 0 0 0 0 .83ZM28.33 30.07a.6.6 0 0 0 .86 0 .64.64 0 0 0 0-.89.6.6 0 0 0-.86 0 .64.64 0 0 0 0 .89ZM26.86 29.18a.64.64 0 0 0 0 .89.6.6 0 0 0 .86 0 .64.64 0 0 0 0-.89.6.6 0 0 0-.86 0ZM25.36 29.15a.68.68 0 0 0 0 .94c.25.27.66.27.91 0a.68.68 0 0 0 0-.94.63.63 0 0 0-.9 0ZM23.88 29.16a.67.67 0 0 0 0 .93c.25.25.65.25.9 0a.67.67 0 0 0 0-.93.62.62 0 0 0-.9 0ZM23.29 29.17a.6.6 0 0 0-.87 0 .66.66 0 0 0 0 .9.6.6 0 0 0 .87 0 .66.66 0 0 0 0-.9ZM32.07 34.63a.51.51 0 0 0 0-.71.47.47 0 0 0-.69 0 .51.51 0 0 0 0 .71c.19.2.5.2.69 0ZM29.88 33.9c-.2.2-.2.55 0 .76.2.21.54.21.74 0 .2-.21.2-.56 0-.77a.5.5 0 0 0-.74 0ZM28.39 33.9c-.2.2-.2.55 0 .76.2.21.53.21.74 0 .2-.21.2-.56 0-.77a.51.51 0 0 0-.74 0ZM26.94 33.9c-.2.2-.2.54 0 .74.2.2.51.2.7 0 .2-.2.2-.53 0-.73a.49.49 0 0 0-.7 0ZM25.49 33.93a.5.5 0 0 0 0 .69c.18.19.47.19.66 0a.5.5 0 0 0 0-.69.45.45 0 0 0-.66 0ZM24.03 33.97a.45.45 0 0 0 0 .61c.17.17.43.17.6 0a.45.45 0 0 0 0-.61.41.41 0 0 0-.6 0ZM23.12 34a.37.37 0 0 0-.53 0 .4.4 0 0 0 0 .55c.14.15.38.15.53 0a.4.4 0 0 0 0-.55ZM23.9 23.11a.64.64 0 0 0 0 .89.6.6 0 0 0 .86 0 .64.64 0 0 0 0-.89.6.6 0 0 0-.86 0ZM26.23 23.99a.62.62 0 0 0 0-.86.57.57 0 0 0-.83 0 .62.62 0 0 0 0 .86c.23.23.6.23.83 0ZM27.69 23.15a.54.54 0 0 0-.8 0 .6.6 0 0 0 0 .82c.23.22.58.22.8 0a.6.6 0 0 0 0-.82ZM28.4 23.93c.2.2.51.2.71 0 .2-.2.2-.54 0-.74a.5.5 0 0 0-.71 0c-.2.2-.2.53 0 .74ZM29.92 23.9c.19.19.48.19.67 0a.5.5 0 0 0 0-.69.46.46 0 0 0-.67 0 .5.5 0 0 0 0 .69ZM31.4 23.88c.18.18.46.18.64 0a.47.47 0 0 0 0-.65.43.43 0 0 0-.63 0 .47.47 0 0 0 0 .65ZM33.54 23.21a.46.46 0 0 0-.66 0 .5.5 0 0 0 0 .69c.18.19.47.19.66 0a.5.5 0 0 0 0-.69ZM24.7 19.33c.2-.22.2-.56 0-.77a.51.51 0 0 0-.74 0c-.2.21-.2.55 0 .77.2.2.53.2.74 0ZM26.2 18.55a.52.52 0 0 0-.76 0c-.2.22-.2.57 0 .78.2.22.54.22.75 0 .21-.21.21-.56 0-.78ZM27.68 18.54a.54.54 0 0 0-.78 0 .59.59 0 0 0 0 .81c.22.22.57.22.78 0a.59.59 0 0 0 0-.81ZM29.15 18.54a.54.54 0 0 0-.79 0 .59.59 0 0 0 0 .81c.22.22.57.22.79 0a.59.59 0 0 0 0-.81ZM30.65 18.53a.55.55 0 0 0-.8 0 .6.6 0 0 0 0 .82c.23.23.58.23.8 0a.6.6 0 0 0 0-.82ZM32.1 18.56a.51.51 0 0 0-.75 0c-.2.21-.2.56 0 .77.2.21.54.21.75 0 .2-.21.2-.56 0-.77ZM33.54 18.6a.45.45 0 0 0-.66 0 .5.5 0 0 0 0 .69c.18.18.47.18.66 0a.5.5 0 0 0 0-.69ZM23.94 16.99a.59.59 0 0 0 0 .8c.21.23.56.23.78 0a.59.59 0 0 0 0-.8.54.54 0 0 0-.78 0ZM26.2 17.8a.59.59 0 0 0 0-.81.54.54 0 0 0-.78 0 .59.59 0 0 0 0 .8c.22.23.57.23.79 0ZM27.7 17.82a.63.63 0 0 0 0-.86.57.57 0 0 0-.82 0 .62.62 0 0 0 0 .86c.23.24.6.24.83 0ZM28.3 16.93a.67.67 0 0 0 0 .93c.25.25.66.25.9 0a.68.68 0 0 0 0-.93.62.62 0 0 0-.9 0ZM29.82 16.94a.65.65 0 0 0 0 .9.6.6 0 0 0 .87 0 .65.65 0 0 0 0-.9.6.6 0 0 0-.87 0ZM32.14 16.96a.57.57 0 0 0-.83 0 .62.62 0 0 0 0 .86c.23.24.6.24.83 0a.62.62 0 0 0 0-.86ZM33.55 17.04a.47.47 0 0 0-.69 0 .51.51 0 0 0 0 .7c.2.2.5.2.69 0a.51.51 0 0 0 0-.7Z" fill="#fff"/><defs><linearGradient id="ajuamyh0k" x1="10.42" y1="9.71" x2="68.15" y2="76.02" gradientUnits="userSpaceOnUse"><stop stop-color="#1A1E21"/><stop offset="1" stop-color="#06060A"/></linearGradient></defs></svg>