<!-- by TradingView --><svg width="56" height="56" viewBox="0 0 56 56" xmlns="http://www.w3.org/2000/svg"><path fill="#F0F3FA" d="M0 0h56v56H0z"/><path d="m28.97 13.42-3.1-3.12c-.41-.4-1.07-.4-1.47 0l-.06.06c-.4.4-.4 1.06 0 1.46l3.11 3.12c.4.4 1.06.4 1.47 0l.05-.05c.4-.4.4-1.06 0-1.47Z" fill="#4F12ED"/><path d="m30.97 11.65-.06.02c-.53.23-.78.84-.55 1.37l1.7 4.04c.23.53.84.77 1.37.55l.06-.03c.53-.22.77-.83.55-1.36l-1.71-4.04a1.04 1.04 0 0 0-1.36-.55ZM36.59 16.35h-.08c-.57 0-1.02.46-1.02 1.03v4.4c0 .57.45 1.03 1.02 1.03h.08c.56 0 1.02-.46 1.02-1.03v-4.4c0-.57-.46-1.03-1.02-1.03Z" fill="#6C0DF3"/><path d="m20.04 19.54-1.25-.01a.99.99 0 0 0-1 .98v.13c0 .55.44 1 .99 1h1.24a.99.99 0 0 0 1-.97v-.14a.99.99 0 0 0-.98-1Z" fill="#4F12ED"/><path d="m40.66 21.9-.06-.02a1.03 1.03 0 0 0-1.35.56l-1.68 4.05c-.22.53.03 1.14.56 1.36l.06.02c.53.22 1.14-.03 1.36-.56l1.67-4.05a1.04 1.04 0 0 0-.56-1.36Z" fill="#9605F8"/><path d="m16.52 23.1-1.74.77c-.51.22-.75.82-.53 1.33l.04.1c.23.5.82.74 1.34.52l1.74-.76c.5-.22.74-.82.52-1.33l-.04-.1a1.01 1.01 0 0 0-1.33-.52ZM16.2 27.73l-.07-.07c-.4-.4-1.06-.39-1.45.02l-1.39 1.43c-.4.4-.39 1.06.02 1.45l.07.07c.4.4 1.05.39 1.45-.02l1.39-1.43c.4-.4.38-1.06-.02-1.45Z" fill="#4F12ED"/><path d="m42.72 27.72-.1-.1a.93.93 0 0 0-1.32 0l-3.24 3.25a.94.94 0 0 0 0 1.33l.1.1c.37.37.96.36 1.33 0l3.24-3.26a.94.94 0 0 0 0-1.32Z" fill="#9605F8"/><path d="m16.24 32.17-.09-.04a1.02 1.02 0 0 0-1.34.52l-.82 1.9c-.23.52.01 1.12.53 1.34l.09.04c.52.23 1.12 0 1.34-.53l.82-1.9a1.02 1.02 0 0 0-.53-1.33Z" fill="#4F12ED"/><path d="M40.78 33.3 37 34.9c-.53.23-.78.83-.55 1.36l.02.06c.22.53.83.78 1.36.55l3.78-1.6c.52-.22.77-.83.55-1.35l-.03-.07a1.03 1.03 0 0 0-1.35-.55Z" fill="#9605F8"/><path d="M17.84 36.16h-.1c-.56 0-1.02.46-1.02 1.02v2.44c0 .56.46 1.01 1.02 1.01h.1c.56 0 1.01-.45 1.01-1.01v-2.44c0-.56-.45-1.02-1-1.02Z" fill="#6C0DF3"/><path d="M38.33 38.31h-4c-.56 0-1.02.46-1.02 1.03v.08c0 .56.46 1.02 1.02 1.02h4c.56 0 1.02-.46 1.02-1.02v-.08c0-.57-.46-1.03-1.02-1.03Z" fill="#9605F8"/><path d="m20.92 39.3-.07.02c-.52.22-.77.83-.55 1.35l1.2 2.84c.23.52.83.76 1.35.54l.07-.03c.53-.22.77-.83.55-1.35l-1.2-2.83a1.02 1.02 0 0 0-1.35-.55Z" fill="#6C0DF3"/><path d="m34.01 41.81-3.34-1.4a1.03 1.03 0 0 0-1.35.56l-.03.07c-.22.53.03 1.13.56 1.35l3.34 1.4c.52.21 1.13-.04 1.35-.56l.03-.07a1.03 1.03 0 0 0-.56-1.35Z" fill="#9605F8"/><path d="m24.94 40.95-.09.09a1 1 0 0 0 0 1.41l2.24 2.26a1 1 0 0 0 1.42 0l.08-.09a1 1 0 0 0 0-1.41l-2.24-2.26a1 1 0 0 0-1.41 0Z" fill="#6C0DF3"/></svg>