<!-- by TradingView --><svg xmlns="http://www.w3.org/2000/svg" width="56" height="56" viewBox="0 0 56 56"><path fill="#F0F3FA" d="M0 0h56v56H0z"/><path d="M24.5 32.27a10 10 0 1 0-18.38-3.7 3.4 3.4 0 0 1 3.26-2.55h.24a3.44 3.44 0 0 1 3.38 3.5c0 1.93-1.52 3.5-3.38 3.5h-.24c-.62 0-1.2-.18-1.71-.49A10 10 0 0 0 24 33h-1.5v-.9c-.32.3-1.14.9-1.94.9-1 0-2.06-.82-2.06-2.2 0-1.36 1.05-2.31 4-2.31-.03-.36-.26-1.06-1.28-1.06s-1.95.33-2.22.49v-1.6c1.8-.46 5.5-.78 5.5 1.6v4.35zm-1.9-2.6v1.35c-.14.17-.57.5-1.1.5-.66 0-.94-.42-.94-.82 0-.4.54-1.03 2.05-1.03zM14 26h2v1.02c.65-.95 1.94-1 2.4-1.02h.1v2.15c-1.43-.38-2.2.09-2.5.5V33h-2v-7zm-5.75 2.78c0-.7.56-1.28 1.25-1.28s1.25.57 1.25 1.28v1.44c0 .7-.56 1.28-1.25 1.28s-1.25-.57-1.25-1.28v-1.44z" fill="#E63D20"/><path fill-rule="evenodd" d="M50 24h-2v2.69a2.48 2.48 0 0 0-1.59-.69c-1.47 0-2.78 1.79-2.78 3.58S44.4 33 46.09 33c.78 0 1.43-.41 1.91-.88V33h2v-9zm-2 3.7v3.38c-.14.14-.56.38-1.16.42-.98.06-1.34-.97-1.34-2.01 0-1.04.7-1.99 1.6-1.99.49 0 .8.14.9.2zM28 26h-2v7h2v-4.76c.22-.24.58-.41.84-.41h.23c.54 0 .93.45.93 1V33h2v-4.31c0-.53.52-.97 1.03-.97.52 0 .97.44.97.97V33h2v-5.17c0-.6-.42-1.83-1.8-1.83-1.1 0-2.01.77-2.33 1.16-.27-.39-.99-1.16-1.73-1.16-.98 0-1.66.64-2.14 1.1V26zm10.46 4h4.49c.2-1.31-.09-4-2.97-4-2.89 0-3.52 2.4-3.48 3.6-.06 1.14.62 3.4 3.81 3.4a5 5 0 0 0 2.47-.58v-1.68a4.3 4.3 0 0 1-2.47.85c-1.4 0-1.85-1.02-1.85-1.59zm1.32-2.7c-.69 0-1.24.57-1.24 1.27v.11h2.48v-.11c0-.7-.56-1.26-1.24-1.26z" fill="#E63D20"/></svg>