<!-- by TradingView --><svg width="56" height="56" viewBox="0 0 56 56" xmlns="http://www.w3.org/2000/svg"><path fill="#47A98B" d="M0 0h56v56H0z"/><path d="M41.17 24.14a8.04 8.04 0 0 0 1.83-5.3c0-2.62-1.1-5.08-3.02-6.97A10.41 10.41 0 0 0 32.74 9c-2.69 0-5.2.94-7.07 2.63-1.58 1.39-2.11 3.24-2.5 5.33-2.3.7-4.38 1.97-6.13 3.65C14.1 23.4 12 27.13 12 31.1c0 3.98 1.62 7.71 4.51 10.54A15.63 15.63 0 0 0 27.46 46c4.13 0 8-1.56 10.94-4.35 1.28-1.23 2.77-2.93 3.37-4.65H24v-1.56c0-3.53.87-6.42 3-8.35 1.83-1.64 4-2.63 6.04-3.36.08-.04.17-.04.25-.09.34.25.68.54.98.82l-.8.3c-2.05.73-4.14 1.5-5.8 2.99-1.92 1.72-2.67 4.49-2.67 7.69V36h17.23c.13-.37.22-.63.3-1H26.05c.09-2.58.85-5.04 2.43-6.43 1.49-1.36 3.5-2.1 5.4-2.8.43-.16.82-.28 1.24-.44.26.28.47.61.68.94-.5.2-1.02.37-1.49.57-1.91.7-3.7 1.36-5.02 2.55-.6.53-2.3 2.3-2 4.61h15.54c.16-.77.17-1.57.17-2.35a17.05 17.05 0 0 0-1.83-7.51Zm.6 8.86h-1.15c.04-.41.04-.9.04-1.3 0-3.41-1.36-7.15-3.88-9.57-2.3-2.22-5.5-3.5-8.69-3.7.05-.42.09-.79.22-1.12a14.9 14.9 0 0 1 9.28 4.04 14.76 14.76 0 0 1 4.22 10.34c0 .41 0 .94-.04 1.31ZM28 20.7v-1.12c2.9.2 5.93 1.36 7.97 3.37 2.26 2.17 3.54 5.67 3.54 8.74 0 .41-.04.94-.09 1.31h-1.15c.05-.41.1-.9.09-1.3-.3-6.54-4.78-10.6-10.36-11Zm9.12-1.24a16.32 16.32 0 0 0-8.26-3.17c.17-.2.34-.41.55-.58a5.15 5.15 0 0 1 3.33-1.13c1.19 0 2.3.45 3.15 1.27a4.18 4.18 0 0 1 1.32 3.04c-.04.16-.04.36-.09.57ZM23 21.59c-3.99 1.9-6.36 5.5-6.36 9.52 0 5.78 4.86 10.46 10.86 10.46 3.32 0 6.12-1.31 8.12-3.57h1.63c-.38.5-.8.86-1.23 1.27a12.2 12.2 0 0 1-8.48 3.4c-3.2 0-6.22-1.18-8.47-3.4a11.31 11.31 0 0 1-3.54-8.16c0-3.08 1.72-5.99 4.02-8.16A10.8 10.8 0 0 1 23 20.6v.98Zm14.63 19.28a14.55 14.55 0 0 1-20.27 0 13.37 13.37 0 0 1-4.21-9.76c0-3.7 1.98-7.14 4.7-9.76a14.55 14.55 0 0 1 5.15-3.2v1.19c-1.62.61-3.1 1.56-4.38 2.79-2.47 2.38-4.36 5.58-4.36 8.98 0 3.4 1.36 6.56 3.87 8.98a13.4 13.4 0 0 0 9.33 3.74 13.3 13.3 0 0 0 9.32-3.74c.68-.65 1.32-1.27 1.83-2.09h1.37a14.03 14.03 0 0 1-2.35 2.87ZM26.2 26.27C23.8 28.44 23 31.23 23 35.09V38h11.14a9.75 9.75 0 0 1-6.68 2.46c-5.37 0-9.71-4.18-9.71-9.35 0-3.84 2.66-7.38 6.25-8.72V18.8c0-2.54.52-4.8 2.35-6.44A9.5 9.5 0 0 1 32.61 10c2.43 0 4.68.93 6.43 2.57a8.56 8.56 0 0 1 2.64 6.2c0 1.63-.43 3.07-1.28 4.22-.21-.33-.47-.66-.72-.99.5-.86.85-1.92.85-3.24 0-2.05-.8-3.94-2.3-5.37a7.73 7.73 0 0 0-5.5-2.17c-2.08 0-4.04.73-5.49 2C25.67 14.67 25 16.6 25 18.85v3.29c.38-.13.62-.2 1-.25v-3.04c0-1.92.69-3.56 2.01-4.8a6.98 6.98 0 0 1 4.68-1.72c1.8 0 3.5.7 4.77 1.89a6.33 6.33 0 0 1 1.5 6.93c-.18-.2-.39-.4-.6-.57l-.3-.29a5.28 5.28 0 0 0-1.45-5.25 5.68 5.68 0 0 0-3.96-1.6c-1.49 0-2.9.5-3.92 1.44A5.15 5.15 0 0 0 27 18.84v2.96c1.71 0 3.37.29 4.93 1.06a19.58 19.58 0 0 0-5.74 3.4ZM30 30.2c1.15-1.03 2.86-1.68 4.64-2.34.56-.2 1.11-.41 1.62-.62a11.8 11.8 0 0 1 .77 5.75h-8.56c0-1.3 1.15-2.38 1.53-2.8Z" fill="#fff"/></svg>