<!-- by TradingView --><svg width="56" height="56" xmlns="http://www.w3.org/2000/svg"><path fill="#E31936" d="M0 0h56v56H0z"/><path d="M47 20h-5l-3 16h5l3-16zM7.496 26.378c1.63-5.292 7.364-6.454 10.028-6.374 2.197 0 8.709.641 7.27 7.858C23.357 35.078 18.085 36 14.728 36c-5.737 0-9.04-3.75-7.231-9.622zM30.277 20H40l-.999 4h-6.029c-1.619 0-1.668 1.128-1.467 2h4.572c.864.057 2.531 1.159 2.285 4.633-.245 3.473-2.57 5.367-3.786 5.367H24l1-4h7.154c.818 0 .974-1.367.818-2H29.39c-1.217 0-3.718-1.18-3.39-4.872.328-3.692 2.698-5.128 4.277-5.128z" fill="#fff"/><path d="M12.134 27.535c.67-2.983 3.303-3.596 4.536-3.53 3.405.237 3.596 2.886 3.16 4.28-1.096 3.512-3.94 3.934-5.288 3.637-1.082-.22-3.077-1.405-2.408-4.387z" fill="#E31936"/></svg>