<!-- by TradingView --><svg xmlns="http://www.w3.org/2000/svg" width="56" height="56"><path fill="#F0F3FA" d="M0 0h56v56H0z"/><path d="M42.88 33.9a15.96 15.96 0 00.45-10.5l-2.83 1.02a13 13 0 01-.34 8.2l2.72 1.28zm-7.71-20.2a16.07 16.07 0 017.26 7.39l-2.83 1.03a13.06 13.06 0 00-5.69-5.7l1.26-2.73zm-2.52 5.44c1.73.91 3.16 2.31 4.1 4.02l-1.9.7a8.04 8.04 0 00-3.04-2.9l.84-1.82zM20 28c0 .42.03.82.1 1.22l-1.92.7a10.05 10.05 0 01.23-4.76l1.84.86c-.16.64-.25 1.3-.25 1.98zm-6.7 6.3l2.82-1.02c1 2.25 2.62 4.17 4.65 5.53l-1.27 2.75a16.06 16.06 0 01-6.2-7.25zM12 28c0 1.38.17 2.71.5 3.99l2.84-1.03a13.04 13.04 0 01.33-7.1l-2.73-1.28c-.6 1.7-.94 3.52-.94 5.42zm6.95 4.25l1.89-.68a8.03 8.03 0 002.08 2.61l-.86 1.86a10.04 10.04 0 01-3.11-3.79zM36 28c0-.64-.08-1.27-.22-1.86l1.9-.7a10.02 10.02 0 01-.25 5.9l-1.82-.86A8 8 0 0036 28zm5.77 8.16l-2.73-1.29a13.05 13.05 0 01-6.07 5.14L34 42.84a16.06 16.06 0 007.77-6.68zM21.24 23.72a8.04 8.04 0 012.27-2.35l-.7-1.92c-1.39.84-2.56 2.02-3.4 3.42l1.83.85zm-4.55-2.13c1.2-2.1 2.96-3.84 5.08-5l-1.03-2.85a16.07 16.07 0 00-6.77 6.57l2.72 1.28zM36.3 33.58a10.04 10.04 0 01-4.35 3.61l-.69-1.88a8.03 8.03 0 003.2-2.6l1.84.87z" fill="#10568B"/><path d="M28 12a16 16 0 014.87.75l-1.28 2.75a13 13 0 00-5.66-.34l1.05 2.9a10.11 10.11 0 013.33.2l-.87 1.87a8.05 8.05 0 00-3.64.18l-.7-1.89h.01l-1.03-2.82-1.03-2.82c1.56-.5 3.22-.78 4.95-.78zm0 24c-1.03 0-2-.2-2.91-.55l-.84 1.82c1 .41 2.1.66 3.25.72l1.06 3a13.28 13.28 0 01-5.58-1l-1.26 2.73a15.95 15.95 0 009.88.87l-1.02-2.8-1.06-2.9-.7-1.93c-.27.03-.54.04-.82.04z" fill="#04AFEF"/></svg>