<!-- by TradingView --><svg xmlns="http://www.w3.org/2000/svg" width="56" height="56"><path fill="url(#a1bapqru2)" d="M0 0h56v56H0z"/><path d="M28 8l1 12.43 4.18-11.75-2.26 12.26L38 10.68l-5.35 11.26 9.5-8.08-8.09 9.49L45.32 18l-10.26 7.08 12.26-2.26L35.57 27 48 28l-12.43 1 11.75 4.18-12.26-2.26L45.32 38l-11.26-5.35 8.08 9.5-9.49-8.09L38 45.32l-7.08-10.26 2.26 12.26L29 35.57 28 48l-1-12.43-4.18 11.75 2.26-12.26L18 45.32l5.35-11.26-9.5 8.08 8.09-9.49L10.68 38l10.26-7.08-12.26 2.26L20.43 29 8 28l12.43-1-11.75-4.18 12.26 2.26L10.68 18l11.26 5.35-8.08-9.5 9.49 8.09L18 10.68l7.08 10.26-2.26-12.26L27 20.43 28 8z" fill="#fff"/><circle cx="28" cy="28" r="3" fill="#FDD822"/><ellipse cx="28.4" cy="26.99" rx="1.64" ry="1.42" transform="rotate(24.43 28.4 26.99)" fill="#FEF7DF"/><defs><linearGradient id="a1bapqru2" x1="28" y1="0" x2="28" y2="56" gradientUnits="userSpaceOnUse"><stop stop-color="#00568E"/><stop offset=".27" stop-color="#6C81AE"/><stop offset=".49" stop-color="#FCFEFF"/><stop offset=".75" stop-color="#6C81AE"/><stop offset="1" stop-color="#00568E"/></linearGradient></defs></svg>