<!-- by TradingView --><svg width="56" height="56" fill="none" xmlns="http://www.w3.org/2000/svg"><path fill="#998F8E" d="M0 0h56v56H0z"/><path fill-rule="evenodd" clip-rule="evenodd" d="M28.003 11.561c-2.341 0-4.568.488-6.584 1.367l-.225-.514A16.99 16.99 0 0128.003 11c2.42 0 4.723.504 6.809 1.414l-.225.514a16.428 16.428 0 00-6.584-1.367zm-8.502 2.365c-4.527 2.727-7.63 7.484-7.937 13.073h-.561c.323-5.9 3.66-10.941 8.498-13.73v-.002h.004v.002a18.105 18.105 0 014.047 3.243c1.292-1.452 2.8-2.577 4.45-3.512 1.676.902 3.189 1.986 4.476 3.399a18.26 18.26 0 014.026-3.132v.66a16.778 16.778 0 00-3.65 2.897c2.384 2.793 3.922 6.361 4.195 10.173h-.574c-.27-3.647-1.739-7.065-4.013-9.748a16.402 16.402 0 00-4.11 9.755h-.655a16.434 16.434 0 00-4.084-9.69C21.357 20.012 19.85 23.42 19.577 27h-.568c.275-3.746 1.85-7.302 4.216-10.11a16.807 16.807 0 00-3.724-2.96v-.004zm12.584 2.894c-1.18-1.302-2.558-2.303-4.083-3.16-1.501.89-2.878 1.933-4.065 3.276 2.018 2.293 3.486 5.111 4.079 8.178a16.723 16.723 0 014.07-8.294zM44.442 27c-.306-5.587-3.406-10.348-7.93-13.076v-.657c4.835 2.79 8.169 7.834 8.491 13.732h-.561zm-24.94 15.07c-4.528-2.726-7.631-7.48-7.938-13.07h-.561c.323 5.902 3.66 10.942 8.498 13.731v.004a19.484 19.484 0 004.006-3.096c1.294 1.384 2.815 2.437 4.496 3.361 1.704-.915 3.236-1.97 4.535-3.34a19.453 19.453 0 003.965 3.07v.003l.003-.002.003.002v-.004c4.837-2.79 8.171-7.83 8.494-13.728h-.561c-.306 5.588-3.409 10.342-7.936 13.07a17.57 17.57 0 01-3.6-2.81c2.422-2.725 3.956-6.201 4.163-10.114l.008-.15h-.574l-.006.12c-.199 3.765-1.669 7.1-3.992 9.722-2.377-2.585-4.015-5.961-4.181-9.834h-.599c-.175 3.83-1.837 7.232-4.185 9.809-2.334-2.66-3.82-6.04-3.992-9.814h-.567c.172 3.93 1.724 7.464 4.16 10.236a16.762 16.762 0 01-3.64 2.835zm12.635-2.83c-2.045-2.202-3.526-4.899-4.114-7.956-.592 3.047-2.073 5.738-4.114 7.936 1.185 1.266 2.568 2.265 4.094 3.14 1.548-.87 2.942-1.86 4.134-3.12zM21.42 43.073a16.428 16.428 0 006.584 1.367c2.341 0 4.568-.488 6.584-1.367l.225.514A16.99 16.99 0 0128.003 45a16.99 16.99 0 01-6.809-1.414l.225-.514z" fill="#E6E4E4"/></svg>