<!-- by TradingView --><svg width="56" height="56" xmlns="http://www.w3.org/2000/svg"><path fill="#101B57" d="M0 0h56v56H0z"/><path d="M24.262 30.09c-.17.4-.723 1.946-3.168 1.946-1.892 0-3.21-1.242-3.21-3.492 0-1.64.766-3.678 3.274-3.678.383 0 1.467-.047 2.296.89.83.96.872 2.47.893 3.244h-4.57c0 .843.446 1.536 1.466 1.536s1.382-.726 1.616-1.195l1.403.75zM22.526 28c-.07-.981-.473-1.698-1.41-1.698-.915 0-1.34.855-1.34 1.698h2.75z" fill="#fff"/><path d="M10.382 28.598c0 1.652-.875 3.438-3.181 3.438C5.53 32.036 4 31.009 4 28.598c0-1.986 1.153-3.526 3.42-3.393 2.425.157 2.962 2.21 2.962 3.393zm-4.314-1.25c-.219.357-.299.804-.299 1.25 0 1.005.458 1.92 1.432 1.92.954 0 1.412-.848 1.412-1.83 0-.715-.16-1.25-.498-1.585-.357-.357-.775-.38-1.033-.357-.478.022-.776.2-1.014.602z" fill="#fff"/><path d="M34 24h-2v5.963c0 .625.037 1.094.292 1.473.404.603 1.127.648 1.764.648.34 0 .54-.045.944-.112v-1.495l-.57.022c-.51 0-.43-.368-.43-.737v-3.061h.992l.85-1.34H34V24zM51 24h-2v1.37h-.47l-.829 1.34h1.3v3.102c0 .625.025 1.094.28 1.473.404.603 1.127.648 1.765.648.34 0 .55-.045.954-.112v-1.532l-.581.059c-.51 0-.419-.368-.419-.737V26.71h.981l.85-1.339h-1.83V24zM27.674 25.222c-.36.161-.472.322-.674.53V25h-2v7h2v-3.762c0-.852-.023-1.68 1.011-1.68.405 0 .742.137.9.506.066.184.089.414.089 1.013V32h2v-4.729c0-1.06-.202-1.658-.899-2.026-.337-.184-.786-.253-1.19-.253-.495 0-.922.092-1.237.23zM41.817 30.087l-.361.588c-.34.516-.957 1.338-2.764 1.338-1.891 0-3.146-1.244-3.146-3.499 0-1.644.766-3.687 3.274-3.687.383 0 1.467-.047 2.296.892.829.963.871 2.506.893 3.28h-4.55c-.02.846.383 1.511 1.382 1.511 1.02 0 1.318-.728 1.552-1.198l1.424.775zM40.074 28c0-.956-.338-1.71-1.275-1.71-.915 0-1.34.913-1.34 1.71h2.615zM13 25.71c.17-.3.66-.759 1.574-.759 1.552 0 2.657 1.24 2.657 3.468 0 1.378-.467 3.537-2.742 3.537-.808 0-1.34-.482-1.489-.758V34h-2v-9h2v.71zm1.191.78c-.34 0-.701.138-.956.505-.276.345-.383.873-.383 1.47 0 .781.213 1.263.447 1.539.212.252.531.413.85.413.914 0 1.318-1.01 1.318-1.998 0-.826-.234-1.7-1-1.883-.106-.023-.19-.046-.276-.046z" fill="#fff"/><path d="M45.878 28.32L48.216 32H46.07l-1.233-1.948L43.71 32h-2.125l2.168-3.68L41.647 25h2.126l1 1.564.913-1.564h2.126l-1.934 3.32z" fill="#fff"/></svg>