<!-- by TradingView --><svg xmlns="http://www.w3.org/2000/svg" width="56" height="56"><path fill="#F0F3FA" d="M0 0h56v56H0z"/><circle cx="28" cy="28" r="16" fill="#1BB7EA"/><path d="M19.72 14.3c6.56 6.76 14.82 12.03 17.74 13.47 1.03.51 1.54 0 1.54 0v-2.03c0-3.34-1.84-4.48-4.92-6.39-1.5-.93-3.3-2.05-5.34-3.7a53.4 53.4 0 01-4.01-3.31 16 16 0 0112.15 28.98c-6.65-7.05-15.33-12.6-18.34-14.1-1.03-.5-1.54 0-1.54 0v2.04c0 3.34 1.84 4.48 4.92 6.39 1.5.93 3.3 2.05 5.34 3.7a47.13 47.13 0 014.85 4.12A16.03 16.03 0 0112 28a16 16 0 017.72-13.7z" fill="#002A5C"/><path d="M23.65 43.4a15.93 15.93 0 01-4.62-2.15 55.95 55.95 0 014.85-4.46c3.45-2.88 7.13-5.24 10.92-7.64 1.9-1.22 3.45-2.44 4.2-4.15v5.64c0 1.7-.98 2.51-4.73 4.96l-.76.5c-2.76 1.79-7.79 5.05-9.86 7.3zM17 30v-5.36c0-1.62.98-2.38 4.73-4.71l.76-.48c2.73-1.68 7.69-4.74 9.8-6.87 1.64.46 3.18 1.17 4.56 2.1a56.26 56.26 0 01-4.73 4.11c-3.45 2.75-7.13 4.99-10.92 7.27-1.9 1.15-3.45 2.32-4.2 3.94z" fill="#F0F3FA"/></svg>