<!-- by TradingView --><svg width="56" height="56" viewBox="0 0 56 56" xmlns="http://www.w3.org/2000/svg"><path fill="#F0F3FA" d="M0 0h56v56H0z"/><path d="m26.19 29.53.19.4c.37.81.8 1.58 1.16 2.39.1.21.25.4.33.63.04.09.1.16.15.25.13.21.2.46.32.67.08.14.2.28.2.45l.07-.01c.33-.82.7-1.62 1.05-2.44.15-.35.32-.54.49-.87h3.56c-.37.81-.79 1.47-1.18 2.27l-2.1 4.1a188.22 188.22 0 0 1 .04 2.37c.02.28-.01.58.03.87l.02 1.66c-.01.24.04.48.02.73h-3.69c0-.4 0-.8-.02-1.19-.06-.37 0-.75-.06-1.12l-.1-1.97c-.08-.46-.03-.94-.17-1.38-.25-.66-.53-1.31-.8-1.96-.86-2.01-1.22-2.86-2.14-4.9-.17-.28-.09-.6-.05-.9l.71-.01c.36-.05.72-.03 1.07-.05.3 0 .6-.02.9.01Zm-9.49.34c.56.01 1.13-.02 1.68.01.3.07.6.05.9.05h.83c.07 0 .13.02.2.04a.23.23 0 0 1 .18-.04c.07.2.07.4.1.6.16 1.07.11 2.16.04 3.23v.23c-.02.17-.05.34-.05.5-.01.74-.08 1.48-.08 2.21l-.01.58c-.06.43-.02.86-.03 1.3.05.38.02.78.12 1.17.38.09.78.05 1.17.06 1.12-.01 2.24.01 3.36-.03.06.42.07.83.09 1.24.06.5.03 1.01.03 1.52-2.9.02-5.8.01-8.7.01v-1.07c0-.27.05-.53.04-.79l.02-2.16c0-.16 0-.31-.02-.47l-.14.67c-.05.24-.13.46-.22.68 0-.28-.01-.56.03-.83.02-.25 0-.5.04-.76.02-.29.01-.58.04-.87-.01-.2.08-.39.06-.58-.02-.25-.01-.5 0-.75.05-.22.02-.45.05-.67.1-1.12.07-2.24.08-3.36.03-.26.02-.53.04-.8.05-.3.02-.63.15-.92Zm4 9.97c-.08.01-.18 0-.19.09.08 0 .18.02.18-.09Zm14.59-9.99c.4.02.8 0 1.21.05.57 0 1.13.05 1.7.05.26.05.52.03.8.05.06.62.05 1.25.1 1.87.03.2.01.4.03.6.04.23.04.46.04.7 0 .28.14.58.03.86.12.15.07.34.1.51.04.5.15.99.1 1.49-.25 1.78-.18.37-.21 2.21l-.02.35h-.04c-.56.01-1.12-.08-1.68-.07-.27 0-.55-.06-.82-.05-.35 0-.69-.05-1.03-.05-.19-.02-.39.01-.57-.05 0-.5 0-1 .05-1.5 0-.9.04-1.8.07-2.71.02-.5 0-1 .05-1.49l.01-1.04c.07-.59.02-1.19.08-1.78Zm2.18 9.06c.21.09.45.1.63.25.25.17.35.46.49.71.06.12.13.23.12.36 0 .35 0 .7-.02 1.04l-.2.84c-.02.1-.11.12-.19.16-.4.15-.8.3-1.22.39-.22.03-.43.12-.65.12a2.5 2.5 0 0 1-.72-.37c-.3-.25-.52-.57-.77-.85-.1-.1-.06-.25-.06-.37.01-.26-.05-.53.04-.79.06-.2.09-.4.14-.6.22-.21.48-.38.72-.59.26-.22.6-.3.9-.43.27-.1.54.04.8.13Z"/><path d="M30.32 14.13c-.03 0-.05 0-.08-.02a2.83 2.83 0 0 1-.24-.05c-.16-.04-.32-.07-.49-.05-.05.05-.1.12-.13.19v.01l-.64 1.2c-.33.64-.65 1.28-1.01 1.9-.8 1.43-1.61 2.85-2.43 4.27l-1.24 2.14-1.36 2.33-.23.41c-.15.26-.3.52-.46.76-.16.21-.2.5-.13.75.1.04.2.03.29.02h.17c.3.02.62.01.93 0l.66.01c1.17-.04 3.5 0 3.5 0h1.4c.12.01.16-.23.17-.32V25.5c0-.07-.02-.14-.04-.2-.03-.12-.06-.23 0-.33l.14.25c.05.1.1.21.16.3l.03.05c.06.08.11.16.12.27V26.73c.02.34.02.77.02 1.13V28h5.93l-.25-.93a172 172 0 0 0-.96-2.65l-.07-.2a290.01 290.01 0 0 1-1.67-4.62 413.6 413.6 0 0 1-1.9-5.35c-.02-.09-.1-.1-.19-.12Zm-1.15 7.69c-.15-.15-.3-.3-.34-.52a2.05 2.05 0 0 1-.02-.68l.02-.27a1.8 1.8 0 0 1 1.45 1.3c-.18 0-.35-.01-.52-.06 0 .08 0 .15.02.23l.02.4a1.65 1.65 0 0 1-.6-.38c-.02 0-.02-.01-.03-.02Zm-1.42 1c-.2.01-.4 0-.6-.06.1-.25.29-.46.5-.63.28-.24.66-.23 1.01-.23H28.78c.06.01.14.02.13.1v.03c0 .3-.02.62-.2.87-.28.39-.71.68-1.19.69 0-.28.09-.54.23-.77Zm2.87 1.3c-.4 0-.83-.1-1.14-.38-.3-.34-.43-.83-.36-1.28.51-.03 1.03.12 1.46.43.12.1.22.21.31.33l.13.16c-.16.1-.34.09-.53.08h-.26c.2.16.32.4.4.66Zm-3.52.98c-.05-.31.08-.62.24-.87a1.4 1.4 0 0 1 1.01-.57l.21-.04c.13-.02.26-.04.4-.04.1.04.17.16.13.27l-.04.17c-.08.36-.17.75-.44 1.01-.21.17-.44.32-.7.41a5.1 5.1 0 0 1-.04-.64l-.04.02c-.23.12-.47.24-.73.28Zm2.56.52a1.4 1.4 0 0 1-.42-.87c-.03-.2 0-.39.04-.58l.02-.1c.35.06.7.19 1.02.34.17.07.3.2.42.34l.08.09c.13.14.26.3.36.47-.26.04-.53.03-.79-.02.13.23.27.48.3.76a1.75 1.75 0 0 1-1.03-.43ZM19.49 14.38c-.42-.1-.83-.19-1.26-.23-.78-.05-1.56 0-2.32.2a7.6 7.6 0 0 0-1.8.8c-.18.1-.34.24-.45.42l-.22.36a6.59 6.59 0 0 0-.87 1.77 9.8 9.8 0 0 0-.57 2.88c-.02 1.05.23 2.1.62 3.07A6.63 6.63 0 0 0 17 27.22c.27.04.54.06.81.07.22.02.45.03.67.06.11.01.22-.02.33-.04l.14-.04c.05 0 .09-.02.13-.03.28-.05.57-.1.82-.24a11.06 11.06 0 0 0 2.88-2.16l.25-.44c.3-.52.6-1.03.74-1.62.05-.18.05-.36.06-.55 0-.14 0-.27.02-.4.02-.16 0-.3 0-.46l-.02-.27c0-1.08-.24-2.79-.55-3.46l-.24-.54-.28-.64-.02-.06c-.09-.19-.17-.38-.34-.5-.36-.28-.73-.54-1.11-.78-.2-.12-.4-.2-.61-.27-.2-.06-.39-.13-.56-.23-.16-.1-.32-.18-.5-.21l-.13-.03Zm23.3.02c-.19.02-.37.03-.56.03l-3.2.01h-.1l-.32.02-.34.02h-1.19l-.62.03c-.2.01-.41.03-.62.02l-.58.03c-.26.01-.52.02-.78.05h-.36c-.17 0-.33 0-.5.03-.18.02-.36.02-.54.02l-.38.01v.15c-.01.43-.02.86.03 1.28v.92c.01.64.02 1.3.06 1.9l1.57.03c.9.03 1.81.05 2.64.05a38.82 38.82 0 0 1 0 3.94v2.8a14.8 14.8 0 0 0 0 1.3v.34c-.02.2-.02.42 0 .62a198.93 198.93 0 0 1 3.17 0l.03-.65c.03-.33.05-.67.02-1-.04-.37-.04-.74-.04-1.1v-.98c0-.31 0-.63.04-.94.02-.12 0-.24 0-.36s-.02-.25 0-.37v-.84c0-.38 0-.76.05-1.14.02-.11-.05-.2-.12-.27l.02-.03c.05-.1.1-.2.1-.3 0-.15 0-.3-.02-.44a3.49 3.49 0 0 1-.02-.4h.27c.15 0 .3 0 .45-.02.23-.03.47-.03.7-.03.21 0 .42 0 .62-.02l.54-.03.59-.04v-.38c0-.57.01-1.16-.05-1.73h.04l.04.01c.05.1.11.18.18.25.02-.21 0-.43-.01-.64a5.92 5.92 0 0 1-.02-.96v-1.21c-.27-.02-.53 0-.8.02ZM41 21h5v4h-5v-4Z" fill="#A1C9D6"/></svg>