<!-- by TradingView --><svg width="56" height="56" xmlns="http://www.w3.org/2000/svg"><path fill="#004890" d="M0 0h56v56H0z"/><path d="M22.909 16.045c-2.572 3.32-4.659 6.045-4.63 6.074.03.03.515-.074 1.103-.223 3.203-.834 7.832-.804 10.771.09 1.147.342 2.91 1.295 3.792 2.054.72.625 1.94 1.95 1.94 2.114 0 .045-.441-.327-.985-.834-2.38-2.203-6.084-3.23-10.17-2.828-3.07.297-5.084.923-6.95 2.188-2.234 1.489-3.306 3.752-2.528 5.285.632 1.236 2.264 2.502 3.983 3.082 2.219.76 6.657 1.013 9.478.551 4.188-.7 7.51-2.486 8.7-4.69 1.131-2.129.602-4.734-1.367-6.714-2.19-2.189-5.863-3.171-9.552-2.546-1.043.179-1.322.12-.661-.134 2.38-.923 6.143-.863 8.788.164.396.149.75.253.793.223.03-.03-1.455-1.995-3.306-4.347-1.852-2.367-3.571-4.586-3.85-4.943-.265-.343-.53-.625-.573-.61-.06 0-2.205 2.724-4.776 6.044z" fill="#fff"/><path d="M22.63 39.598C25.348 43.127 27.626 46 27.67 46c.059.015 1.807-2.174 3.894-4.868 2.087-2.68 4.32-5.539 4.952-6.343.647-.804 1.044-1.429.897-1.355-3.292 1.355-6.495 1.995-10.052 2.01-3.352 0-5.861-.444-9.664-1.846-.029 0 2.2 2.486 4.933 6z" fill="#fff"/></svg>