<!-- by TradingView --><svg width="56" height="56" viewBox="0 0 56 56" xmlns="http://www.w3.org/2000/svg"><path fill="url(#af2w3rmqo)" d="M0 0h56v56H0z"/><path d="M29 29V14.86c0-.94-.05-1.06-1.12-.6-.71.36-1.43.6-2.26.72l-.35.08c-.35.06-.72.13-.72.39 0 .35.35.35.6.35 1.66 0 1.85.83 1.85 1.89V29H13.24c-.12 0-.24.14-.24.29v1.42c0 .15.12.29.24.29H27v10.46l.03.52c.03.35.06.72-.01 1.04-.12.96.47.96.83 0 .36-.72.47-.84 1.19-.36A7.76 7.76 0 0 0 33.42 44c1.35 0 2.63-.31 3.6-1.4C39.99 39.35 39.4 32 33.68 32A8.1 8.1 0 0 0 29 33.84V31h13.76c.12 0 .24-.14.24-.29V29.3c0-.15-.12-.29-.24-.29H29Zm.87 13.35c-.47-.6-.87-1.2-.87-1.91v-4.92c0-1.32 2.18-2.16 3.5-2.16 4.28 0 6.06 6.48 3.56 9.23a3.59 3.59 0 0 1-2.7 1.16 4.33 4.33 0 0 1-3.49-1.4ZM13 22c0-1.63.61-3.13 1.84-4.25a5.84 5.84 0 0 1 4.4-1.75c1.72 0 3.07.5 4.17 1.63A5.72 5.72 0 0 1 25 21.88c0 1.75-.61 3.25-1.84 4.37a5.84 5.84 0 0 1-4.4 1.75c-1.72 0-3.07-.5-4.17-1.63A6.82 6.82 0 0 1 13 22Zm1.96-.75c0 1.75.37 3.25 1.22 4.38.86 1.12 1.84 1.75 3.06 1.75 1.23 0 2.2-.38 2.82-1.25.74-.88.98-2.13.98-3.63 0-1.75-.37-3.25-1.22-4.38a3.3 3.3 0 0 0-2.94-1.62c-1.23 0-2.2.38-2.82 1.25-.73.88-1.1 2-1.1 3.5Z" fill="#fff"/><path d="m32.75 18.43 3.6 9.03c.13.4.24.54.48.54.11 0 .11 0 .23-.13.11-.14.11-.27.23-.4l4.31-9.58c.23-.4.35-.68.47-.81.11-.14.23-.27.35-.27 0-.14.11-.14.23-.14.23 0 .35-.13.35-.27 0-.13 0-.27-.12-.27-.11-.13-.23-.13-.35-.13h-3.5c-.22 0-.34.13-.34.13-.12.14-.12.14-.12.27 0 .27.12.4.47.4h.23c.35.14.58.28.7.41.12.14.23.4.23.68 0 .4 0 .8-.11 1.21-.12.4-.24.81-.47 1.35l-1.98 4.45-.12.13h-.23s-.12 0-.12-.13l-2.67-7.01v-.4c0-.14 0-.28.11-.41.17-.2.33-.27.58-.27.47 0 .7-.27.7-.4 0-.14 0-.28-.11-.41h-4.31c-.22 0-.47.19-.47.4 0 .25.48.54.7.54.23.14.46.27.58.54.12.27.35.54.47.95Z" fill="#fff"/><defs><linearGradient id="af2w3rmqo" x1="10.42" y1="9.71" x2="68.15" y2="76.02" gradientUnits="userSpaceOnUse"><stop stop-color="#1A1E21"/><stop offset="1" stop-color="#06060A"/></linearGradient></defs></svg>