<!-- by TradingView --><svg width="56" height="56" viewBox="0 0 56 56" xmlns="http://www.w3.org/2000/svg"><path fill="#153F35" d="M0 0h56v56H0z"/><path d="M43.2 34H4v-.85h4.41c3 .11 3.58-1.38 4.92-.51 1.35.88 4.55-.15 5.23 0 .68.15 2.96-.62 4.5-.55 1.54.07 2.36-1 2.7-1.84.33-.84-.83-.21-1.55-.99-.58-.62-2.5-.73-3.4-.71-.71 1.78-2.25 1.81-2.63 1.49-.37-.33.74-.96.78-1.5.03-.53-1.11.24-1.38.54-.2.23-1.53.22-2.16.18-1.35 1.21-4.31 1-4.68.36-.37-.64 1.55 0 1.99-.84.35-.66-.35-.94-.74-.99.16.25.22.86-.88 1.29-1.1.42-1.16-.34-1.04-.77 1.71-.24-.17-1.55 1.04-1.55h2.76c-.58 0-1.68-.19-1.38-.92.3-.72 1.04-.3 1.38 0 0-1.2 1.03-1.44 1.55-1.4-.46-1.87 1.02-2.24 1.82-2.2.8-.88 1.64-.65 1.95-.43l-.63 1.54c-.6.45-1.5 1.52-.38 2.21 1.13.7.47 1.26 0 1.46-.37.8-4.38.11-4.51.77-.1.53 1.81.4 2.79.26h1.12c.27-.4 1.34-.63 1.84-.7.03-.5.22-1.56.79-1.79.71-.27 2.25 2.12 2.85 1.8.6-.34-1.54-.6-1.54-2.66s3.45-1.1 3.41-1.82c-.03-.57-1.66-.24-2.47 0-1.05-.37-1.29 1.06-1.28 1.82h-.97c-.45.74-1.39.86-1.65 0-.21-.7.69-1.03 1.16-1.1a9.7 9.7 0 0 1 .23-2.75c.27-1.11 2.5-1.09 3.6-.94.27-.75 1.58-1.18 2.21-1.3v.97l-1.28.9v.37c1.26-.76 1.73-.15 1.8.25 1.14-.07 1.38.73 1.36 1.14.84.35.7 1.29.52 1.71.54 0 1.67.15 1.88.75.2.6-.83.82-1.37.86 1.57.91 2.8-.7 3.23-1.6-.53.15-1.65.3-1.86-.36-.28-.84.27-1.14 1.3-.72 1.05.42.94-1.37 1.76-1.07.65.24.27 1.85 0 2.62h2.57c.1 1.73-.99 1.13-2.13 1.79-1.15.66.49.54 1.14.54.66 0 1.48 1.01 1.86.6.39-.42-1.31-1.14-.38-1.8.93-.65 1.86-.17 3 .66 1.15.83 1.48.42 3.29 0 1.44-.33.89.62.43 1.13.77 1.37.31 1.2-.76 1.2s-1.48 1.07 1.07 1.07c2.04 0 2.47.83 2.43 1.25 1.94.67-.21.88-1.53.9a6.22 6.22 0 0 1-5.52-1.2c.32 1.31-1.43 1.85-2.41.3-.98-1.55 1.42.48 1.42-.83 0-1.32-.82.12-2.35-.42-1.53-.54-1.31-.24-2.95-1.07-1.64-.84-2.03.35-1.97 2.02.04 1.34 1.07 1.35 1.59 1.2 2.18 1.43 1.96-.96 2.78 0 .82.95 3.07 1.19 5.96 1.19 2.32 0 2.67.7 2.55 1.04Z" fill="#fff"/><path d="M44.09 34H52v-1.04c-1.89.1-6.02.23-7.4 0-1.4-.23-.92.6-.51 1.04ZM48.39 30.04c.43-.82-.72-.62-1.35-.42-.52-.1-1.51-.16-1.28.42.3.71 2.09 1.02 2.63 0ZM45.3 29.34c.56-.22-.02-.98-.37-1.34-.11-.41-.5-1.12-1.13-.65-.8.6.8 2.27 1.5 2ZM41.32 25.56c-.5-.28-.52-.87-.47-1.13 0-.28-.31-.67-1.57 0-1.57.84-.44.95.86 1.51s1.8-.02 1.18-.38ZM39.52 22.88c.28-.01.76.07.42.52-.42.55-1.53.3-.42-.52ZM38.57 22.24l-2.9-2.06c-1.28-.53-.7.62-.25 1.26-1.12.16-1.2.8-1.42 1.74-.18.76 1.37.67 2.16.54a2.1 2.1 0 0 0 1.42 1.2c.83.19.8-.57.67-.97-.32-.35-.74-1.07.15-1.07.88 0 .48-.42.17-.64ZM34.68 19.7c.16-.62-.86-1-1.4-1.1-1.11-.34-1.13.3-1 .67-.26.1-.7.43-.38.91.32.48 1.06.02 1.39-.27.86.67 1.2.57 1.4-.2ZM32.28 21.44c-.09-.64-1.25-1.42-1.82-1.74l-1.8.48c.28-.36.6-1.06-.26-.9-.86.14-.52.66-.24.9-.4.22-.01.7.24.92.09.65.37 1.98.76 2.08.4.11.93-.67 1.15-1.07.7.05 2.06-.03 1.97-.67ZM31.22 18.98c.22-.58-.79-.76-1.32-.78-1.77-.19-1.23.64-.74 1.07.6.15 1.85.29 2.06-.29ZM27.02 18.39c.34-.3 1-.7.91 0-.1.88-1.03 1.29-.9 0ZM26.63 19.58c.53.21 1.42.65.69.77-.9.13-1.38-.4-.69-.77ZM9.14 28.67c.35-.02.99.1.7.77-.35.84-1.63.1-.7-.77Z" fill="#fff"/></svg>