<!-- by TradingView --><svg width="56" height="56" viewBox="0 0 56 56" xmlns="http://www.w3.org/2000/svg"><path fill="url(#a1k5u2aq4)" d="M0 0h56v56H0z"/><path fill-rule="evenodd" d="M51.5 24.5h-47v8h47v-8ZM4 24v9h48v-9H4Z" fill="#fff"/><path d="M9.48 27c.3 0 .56.06.78.18.22.11.4.28.52.5.12.22.18.48.18.8 0 .3-.06.57-.19.8-.12.22-.3.4-.52.53-.23.13-.48.19-.77.19-.3 0-.55-.06-.78-.18-.22-.11-.4-.28-.52-.5a1.62 1.62 0 0 1-.18-.8c0-.3.06-.57.2-.8.12-.22.3-.4.52-.53.22-.13.47-.19.76-.19Zm-.01.07a.62.62 0 0 0-.45.19c-.13.12-.22.29-.3.5-.06.22-.1.47-.1.75 0 .29.04.54.12.75.08.21.19.38.32.5.13.11.28.17.44.17a.6.6 0 0 0 .44-.19c.13-.12.22-.29.3-.5.06-.22.1-.47.1-.75 0-.29-.04-.54-.12-.75a1.15 1.15 0 0 0-.32-.5.64.64 0 0 0-.43-.17ZM13.18 27v.09c-.27 0-.32.04-.24.16l1.68 2.46c.11.16.17.2.29.2V30h-1.2v-.09c.28 0 .35-.02.27-.13l-1.7-2.5c-.11-.14-.15-.19-.28-.2V27h1.18Zm.1 1.48a23 23 0 0 0 .05.1l-.48.63a.97.97 0 0 0-.18.41c-.02.2.13.29.38.3V30H12v-.08c.2-.05.39-.2.59-.46l.7-.98ZM14.76 27v.08c-.19.05-.37.2-.53.4l-.7.98-.02-.05-.02-.05.47-.61c.1-.14.17-.3.19-.4.04-.17-.08-.26-.31-.27V27h.92ZM18.35 27l-.02 1h-.1c-.06-.44-.21-.9-.72-.9h-.18c-.24 0-.33.06-.33.3v2.1c0 .31.18.4.47.41V30h-1.39v-.08c.26-.02.34-.15.34-.4v-2.09c0-.25-.08-.34-.34-.35V27h2.27Zm-.65 1.48v.08h-.82v-.08h.82Zm.1-.54a5.18 5.18 0 0 0 0 1.16h-.09c-.01-.1-.03-.18-.07-.27a.43.43 0 0 0-.14-.2.43.43 0 0 0-.28-.07v-.08c.09 0 .16-.02.22-.06.06-.03.1-.08.14-.13a1.17 1.17 0 0 0 .12-.35h.1ZM21.13 27c.3 0 .55.06.77.18.23.11.4.28.52.5.12.22.19.48.19.8 0 .3-.07.57-.2.8-.12.22-.3.4-.52.53-.22.13-.48.19-.77.19-.3 0-.55-.06-.77-.18-.23-.11-.4-.28-.52-.5a1.62 1.62 0 0 1-.19-.8c0-.3.07-.57.2-.8.12-.22.3-.4.52-.53.22-.13.48-.19.77-.19Zm-.02.07a.62.62 0 0 0-.45.19c-.12.12-.22.29-.29.5-.07.22-.1.47-.1.75 0 .29.04.54.12.75.07.21.18.38.31.5.14.11.28.17.44.17a.6.6 0 0 0 .44-.19c.13-.12.23-.29.3-.5.07-.22.1-.47.1-.75 0-.29-.04-.54-.12-.75a1.15 1.15 0 0 0-.31-.5.64.64 0 0 0-.44-.17ZM24.06 27h1.29c.45 0 1.14.19 1.14.77 0 .65-.73.8-1.24.8h-.42v-.07h.38c.44 0 .66-.25.66-.68 0-.43-.16-.73-.6-.73-.23 0-.27.06-.27.35v2.07c0 .32.07.4.32.41V30h-1.26v-.08c.25-.01.33-.09.33-.4v-2.08c0-.26-.08-.35-.33-.35V27Zm.77 1.5a6.94 6.94 0 0 1 .75.07c.24.02.42.07.53.15.12.09.2.21.23.38l.1.42c.03.11.06.2.09.24.03.05.07.07.13.06.04 0 .07 0 .1-.02a.51.51 0 0 0 .09-.09l.06.05a.75.75 0 0 1-.23.19.72.72 0 0 1-.3.05.65.65 0 0 1-.36-.09c-.1-.06-.16-.17-.2-.35l-.08-.4a2.1 2.1 0 0 0-.08-.3.48.48 0 0 0-.12-.2c-.05-.06-.13-.08-.23-.08h-.47v-.07ZM29.37 27c1.1 0 1.63.56 1.63 1.47 0 .96-.78 1.53-1.67 1.53h-1.25v-.08c.25-.01.33-.09.33-.35v-2.14c0-.25-.08-.34-.33-.35V27h1.29Zm-.04.07c-.27 0-.33.07-.33.35v2.16c0 .29.07.35.33.35.83 0 1.05-.72 1.05-1.45 0-.72-.24-1.4-1.05-1.4ZM35.34 27v.08c-.26 0-.34.09-.34.35v2.17c0 .23.06.3.29.3h.25c.49 0 .7-.47.76-.9h.1l.02 1h-2.36v-.08c.26-.02.34-.1.34-.35v-2.14c0-.25-.08-.34-.34-.35V27h1.28ZM39.16 27l1.06 2.66c.08.2.2.25.28.26V30h-1.22v-.08c.3-.01.37-.07.26-.34l-.77-2 .08-.09-.7 1.7c-.05.13-.08.3-.1.39-.03.26.16.33.39.34V30h-.86v-.08c.13-.03.25-.18.37-.46l.99-2.46h.22Zm.38 1.77v.08h-1.3l.05-.08h1.25ZM44.36 27v.08c-.3.03-.36.23-.36.5V30h-.16L42 27.52v1.86c0 .39.03.5.4.53V30h-.85v-.1c.3-.03.33-.13.33-.48v-1.99c0-.25-.08-.34-.33-.35V27h.75l1.62 2.1v-1.5c0-.32-.06-.5-.4-.52V27h.84ZM48 27v.83h-.12c-.05-.41-.3-.74-.75-.74h-.24c-.24 0-.32.07-.32.3v2.21c0 .24.08.3.32.3h.25c.5 0 .68-.45.74-.9H48v1h-2.35v-.08c.25-.02.35-.1.35-.35v-2.14c0-.25-.1-.34-.35-.35V27H48Zm-.78 1.45v.08h-.78v-.08h.78Zm.12-.54a5.18 5.18 0 0 0 0 .8l.01.42h-.1c-.01-.1-.03-.24-.07-.32a.4.4 0 0 0-.14-.2c-.06-.05-.15-.08-.28-.08v-.08a.4.4 0 0 0 .36-.19 1.18 1.18 0 0 0 .12-.35h.1Z" fill="#fff"/><defs><linearGradient id="a1k5u2aq4" x1="10.42" y1="9.71" x2="68.15" y2="76.02" gradientUnits="userSpaceOnUse"><stop stop-color="#1A1E21"/><stop offset="1" stop-color="#06060A"/></linearGradient></defs></svg>