<!-- by TradingView --><svg width="56" height="56" viewBox="0 0 56 56" xmlns="http://www.w3.org/2000/svg"><path d="M30 30h.48a4.58 4.58 0 0 0 1.32 2.56c.6.57 1.3.86 2.09.86.76 0 1.3-.2 1.63-.59.32-.4.48-.8.48-1.24 0-.51-.17-.93-.5-1.25a6.3 6.3 0 0 0-1.36-.81l-1.08-.55a7.16 7.16 0 0 1-2.28-1.6 3.05 3.05 0 0 1-.78-1.96c0-.83.4-1.6.99-2.32.59-.72 1.49-1.08 2.7-1.08.61 0 1.2.1 1.78.29.57.18.9.28.99.28.18 0 .3-.06.38-.16.07-.11.13-.25.17-.43h.5v3.69h-.47a5.13 5.13 0 0 0-1.18-2.21 2.67 2.67 0 0 0-2.05-.93c-.57 0-1.02.16-1.35.48-.33.3-.46.68-.46 1.13 0 .53.12.93.44 1.2.3.27.98.66 2.03 1.19l1.26.63c.56.28 1 .59 1.34.93.62.64.93 1.42.93 2.33 0 .86-.34 1.67-1 2.43-.67.75-1.74 1.13-3.2 1.13a5.52 5.52 0 0 1-2.06-.39l-.33-.12a1.8 1.8 0 0 0-.4-.08c-.17 0-.3.06-.36.16s-.12.24-.17.43H30v-4ZM46 33.7c1.27 0 2.14-.77 2.62-2.3.25-.84.38-1.92.38-3.26 0-1.84-.27-3.23-.81-4.16-.54-.93-1.26-1.4-2.18-1.4-1.28 0-2.15.78-2.63 2.34-.24.82-.37 1.96-.37 3.29 0 1.34.13 2.36.38 3.18.47 1.54 1.34 2.3 2.62 2.3ZM46 22c1.71 0 3.13.56 4.26 1.69A6 6 0 0 1 52 28.14a5.88 5.88 0 0 1-4.3 5.92c.25.62.64 1.12 1.17 1.52a2.9 2.9 0 0 0 2.32.54c.16-.02.47-.05.71-.12l.1.4a8.91 8.91 0 0 1-3.19.6c-.95 0-1.88-.24-2.8-.73a3.92 3.92 0 0 1-1.88-2.1.8.8 0 0 0-.1-.2 6.12 6.12 0 0 1-2.27-1.38A5.91 5.91 0 0 1 40 28.2c0-1.78.55-3.25 1.64-4.41a5.71 5.71 0 0 1 4.37-1.8ZM10 33.43c2.71 0 3-3.42 3-5.43 0-1.93-.37-5.43-3-5.43-2.7 0-3 3.41-3 5.43 0 2.02.3 5.43 3 5.43ZM10 22c3.4 0 6 2.6 6 6s-2.6 6-6 6c-3.32 0-6-2.55-6-5.9 0-3.45 2.55-6.1 6-6.1ZM16 33.55c.45-.08.77-.17.96-.25.32-.15.6-.39.87-.73l3.07-3.93-3.48-5.16a3.36 3.36 0 0 0-.67-.78c-.2-.15-.44-.23-.73-.25V22H22v.45c-.57.03-.84.08-1.03.14-.18.06-.27.21-.27.45 0 .1.02.2.06.3l.2.35 1.7 2.67a78.8 78.8 0 0 0 1.74-2.5c.2-.32.3-.58.3-.78 0-.26-.15-.43-.43-.53a3.78 3.78 0 0 0-.86-.1V22H28v.45c-.78.08-1.6.34-2.04.8-.46.45-1.4 1.7-2.86 3.77l3.2 5.01c.41.66.72 1.06.91 1.22.2.15.46.25.79.3V34h-6v-.45c.52-.02.87-.06 1.04-.1.26-.08.38-.23.38-.46 0-.08-.02-.2-.08-.35a2.73 2.73 0 0 0-.28-.56l-1.77-2.88-.67.9c-.57.77-.95 1.3-1.15 1.61-.33.52-.5.88-.5 1.1 0 .3.2.52.6.64.24.06.51.1.82.1V34H16v-.45Z" fill="#369"/></svg>