<!-- by TradingView --><svg xmlns="http://www.w3.org/2000/svg" width="56" height="56"><path fill="#AC0D30" d="M0 0h56v56H0z"/><path d="M28 44a16 16 0 004-31.5v7.62c.33-.09.65-.12.99-.12 4.7 0 8.01 3.4 8.01 7.36 0 4.07-2.98 7.64-8.01 7.64-.68 0-1.84-.33-2.3-.55l.48-1.96A4.4 4.4 0 0033 33c3.68 0 6.01-2.38 6.01-5.64 0-3.27-2.85-5.36-6.01-5.36-.34 0-.87.14-.99.19v8.23h-2v-7.19a5.7 5.7 0 00-1.4 1.77l-.03.05a7.8 7.8 0 01.16 4.57A7.56 7.56 0 0119 34.58v6.65A15.93 15.93 0 0028 44zm-11-4.38V26.84s1.05.76 1.4.92c.36.17.52.23 1.28.29 2.78.21 5.55-.98 6.5-3.43a5.36 5.36 0 00-3.43-2.46c-1.78-.47-3.38.08-4.76 1.09l-1.11-1.7c1.83-1.23 4.2-1.91 6.38-1.34A8.3 8.3 0 0127.54 23 6.35 6.35 0 0130 20.86v-8.74a16 16 0 00-13 27.5zm2.27-9.71a1.29 1.29 0 00-.27-.08v2.58l.02.01c.18.11.41.26.8.36a5.55 5.55 0 006.92-3.62c.25-.7.24-1.05.23-1.74v-.58c-1.4 2.54-4.32 3.36-7.4 3.13a.94.94 0 01-.3-.06z" fill="#fff"/></svg>