<!-- by TradingView --><svg xmlns="http://www.w3.org/2000/svg" width="56" height="56" viewBox="0 0 56 56"><path fill="#1C95D1" d="M0 0h56v56H0z"/><path d="M37.17 14.32c2.11.45 3.78 1.69 4.98 3.69 2.25 3.75 2.24 9.48 1.08 13.18-.68 2.16-3.68 6.49-10.09 7.29-5.51.68-10.76.95-11.99 1.01h-.06L14.44 45l2.47-8c-1.29-.71-5-3.07-5.77-6.63-.47-2.15.24-4.34 2.1-6.49 5.9-6.82 14.64-9.88 20.7-9.88 1.15 0 2.24.11 3.23.32zm4.7 17.41c.13-.27.27-.64.34-.88 1.1-3.46 1.26-8.74-.82-12.2C39.79 16 36.85 15 33.93 15c-5.77 0-14.3 3.08-19.95 9.62-1.61 1.86-2.23 3.72-1.85 5.5.38 1.82 1.9 3.33 3.17 4.38.25-.88 1.07-2.94 3.38-3.44a4.44 4.44 0 0 1 4.56 1.74s.52-4.8 5.08-5.1c4.57-.3 6.1 4.18 6.1 4.18s.84-2.24 3.95-2.24c2 0 3.06 1.25 3.5 2.09zM38 29a3 3 0 1 0 0-6 3 3 0 0 0 0 6zm-6-7a4 4 0 1 1-8 0 4 4 0 0 1 8 0zm-12.5 8a2.5 2.5 0 1 0 0-5 2.5 2.5 0 0 0 0 5z" fill="#fff"/></svg>