<!-- by TradingView --><svg xmlns="http://www.w3.org/2000/svg" width="56" height="56"><path fill="#111D57" d="M0 0h56v56H0z"/><path d="M4 25h1.77l1.3 3.8 1.3-3.8h1.74l-2.3 6H6.3L4 25zm6.38 0H12v6h-1.62v-6zm4.27 0h1.57l2.41 6h-1.7l-.4-1H14.3l-.41 1h-1.66l2.41-6zm1.41 3.63l-.64-1.7-.65 1.7h1.29zm2.04-.61V28a3 3 0 013-3.13c1.17 0 1.93.52 2.43 1.25l-1.19.97c-.33-.42-.7-.7-1.25-.7-.8 0-1.37.72-1.37 1.6V28c0 .9.57 1.6 1.37 1.6.6 0 .95-.29 1.29-.72l1.2.89a2.85 2.85 0 01-2.53 1.36 2.87 2.87 0 01-2.1-.9 3.17 3.17 0 01-.86-2.21zm5.27 0V28a3.07 3.07 0 013.1-3.13 3.04 3.04 0 013.07 3.11V28a3.07 3.07 0 01-3.1 3.13 3.04 3.04 0 01-3.07-3.11zm4.54 0V28c0-.88-.59-1.62-1.46-1.62-.88 0-1.46.73-1.46 1.6V28c0 .87.6 1.62 1.47 1.62.88 0 1.45-.74 1.45-1.6zm7.35-.1v-.01c0-.82.27-1.78.74-2.33V25h-1.67l-1.36 2.32L31.6 25H30v6h1.48v-3.44l1.45 2.34h.04l1.46-2.35V31H36v-.75a3.82 3.82 0 01-.74-2.32z" fill="#1E7BFF"/><path d="M35.88 28.02V28c0-1.75 1.28-3.13 3.01-3.13 1.17 0 1.92.52 2.43 1.25l-1.2.97c-.32-.42-.7-.7-1.24-.7-.8 0-1.37.72-1.37 1.6V28c0 .9.57 1.6 1.37 1.6.6 0 .95-.29 1.29-.72l1.2.89a2.85 2.85 0 01-2.53 1.36 2.79 2.79 0 01-2.1-.9 3.07 3.07 0 01-.86-2.21zM41.72 25h2.95c.71 0 1.22.19 1.56.53a1.36 1.36 0 01.37.98v.02c0 .69-.38 1.1-.89 1.33.7.24 1.14.65 1.14 1.47v.02c0 1.02-.8 1.65-2.17 1.65h-2.96v-6zm3.31 1.85c0-.34-.25-.52-.72-.52h-1.04v1.06h1c.48 0 .76-.17.76-.52v-.02zm-.55 1.7h-1.2v1.11h1.22c.49 0 .76-.2.76-.55v-.01c0-.33-.25-.54-.78-.54zM47 30.11l.88-1.1c.58.47 1.2.72 1.86.72.44 0 .66-.16.66-.42v-.01c0-.26-.18-.39-.97-.59-1.22-.3-2.16-.65-2.16-1.88v-.02c0-1.11.85-1.92 2.22-1.92.97 0 1.73.27 2.35.8l-.79 1.18a2.73 2.73 0 00-1.6-.6c-.39 0-.57.17-.57.39v.02c0 .27.2.4 1 .58 1.3.3 2.12.75 2.12 1.87v.02c0 1.23-.92 1.96-2.31 1.96a3.91 3.91 0 01-2.69-1z" fill="#fff"/></svg>