<!-- by TradingView --><svg width="56" height="56" viewBox="0 0 56 56" xmlns="http://www.w3.org/2000/svg"><path fill="#F0F3FA" d="M0 0h56v56H0z"/><path d="m29 37 6.46-14.65c.22-.45 1.1-1.28 2.8-1.28 2.13 0 3.74 2.05 3.74 3.82 0 1.43-1.42 2.97-2.12 3.56L31.72 37H29ZM20.54 22.35 27 37h-2.72l-8.18-8.05c-.7-.6-2.1-2.63-2.1-4.06 0-1.77 1.61-3.89 3.74-3.89 1.7 0 2.58.9 2.8 1.35ZM23 37l-5.98-6.23c-.35-.38-1.36-1.32-2.53-1.32-1.48 0-4.41 1.49-4.41 4.44 0 1.3 1.2 3.11 2.42 3.11H23ZM33 37l5.98-6.47a3.88 3.88 0 0 1 2.53-1.09C43 29.44 46 31.2 46 34c0 1.24-1.77 3-3 3H33ZM33.93 23.1l-6 13.9-5.86-13.9a6.58 6.58 0 0 1-.5-2.52c-.02-3.28 2.98-6.29 6.36-6.33 3.5-.05 6.62 3.12 6.5 6.53-.02.78-.18 1.57-.5 2.32Z" fill="#D93832"/><path fill-rule="evenodd" d="M14.31 28.78c-2.66 0-4.83 2.4-4.83 5.01 0 1.6 1.48 3.72 3.3 3.72h30.36c1.82 0 3.38-2.13 3.38-3.72 0-2.6-2.17-5.01-4.83-5.01-.54 0-1.04.12-1.48.3 1.02-.96 2.29-2.62 2.29-4.08 0-2.3-1.67-4.51-4-4.51a6.3 6.3 0 0 0-3.16 1.08c.63-4.58-2.85-8.08-7.26-8.08-4.57 0-8.13 3.8-7.19 8.52a4.95 4.95 0 0 0-3.39-1.52c-2.33 0-4.02 2.2-4.02 4.51 0 1.4.97 3 1.92 3.94-.33-.1-.7-.16-1.09-.16Zm-.12-.49C11.29 28.37 9 31 9 33.8 9 35.76 10.71 38 12.78 38h30.36C45.2 38 47 35.77 47 33.8c0-2.85-2.36-5.5-5.31-5.5-.04 0 1.31-1.8 1.3-3.3 0-2.56-1.88-5-4.49-5-.78 0-2.05.44-2.6.68.1-4.42-3.46-7.68-7.82-7.68-4.45 0-8.04 3.42-7.82 7.89A6.3 6.3 0 0 0 17.5 20c-2.61 0-4.5 2.44-4.5 5 0 1.12.54 2.45 1.19 3.3Z" fill="#D93832"/></svg>