<!-- by TradingView --><svg width="56" height="56" viewBox="0 0 56 56" xmlns="http://www.w3.org/2000/svg"><path fill="#02436C" d="M0 0h56v56H0z"/><path d="M10 22.01V30h1v-7.53h1.48c1.27.01 1.5 1.02 1.52 1.52-.1 1.87-1.72 2.05-2.5 1.87l.49.54c1.29-.04 3-.46 3.01-2.55.01-1.67-1.67-1.92-2.52-1.84H10ZM18.4 22 15 30h.75l2.65-6.55L20.9 30H22l-3.3-8h-.3ZM42.4 22 39 30h.75l2.65-6.55L44.9 30H46l-3.3-8h-.3ZM27.56 22H22.7v.68c.96-.25 1.91-.1 2.29 0V30h1v-7.32h2.13l-.57-.68ZM31.61 22H28.6l.5.63c1.1-.3 3.31-.5 3.36 1.17.06 1.68-1.65 1.97-2.5 1.9l2.92 4.3h1.25l-2.82-3.93c.63-.14 2.03-.48 2.12-2.27.07-1.42-1.18-1.8-1.82-1.8ZM36 22h1v8h-1zM29.12 33c-7.63 0-19.93.59-25.12 1h48c-4.45-.26-11.06-1-22.88-1Z" fill="#fff"/></svg>