<!-- by TradingView --><svg xmlns="http://www.w3.org/2000/svg" width="56" height="56" viewBox="0 0 56 56"><path fill="#F0F3FA" d="M0 0h56v56H0z"/><path d="M20.75 25a3.25 3.25 0 1 0-3.17-2.52 3.17 3.17 0 0 1-2.77 2.36A3.3 3.3 0 0 0 11 28.06a3.3 3.3 0 0 0 4.13 3.15 3.61 3.61 0 0 1 2.43 2.4 3.25 3.25 0 1 0 2.18-2.44c-1.23-.41-1.88-1.58-2.14-2.4a3.18 3.18 0 0 0 0-1.4 4.15 4.15 0 0 1 2.42-2.45c.24.05.48.08.73.08z" fill="#001F62"/><path d="M25 15.25a3.25 3.25 0 0 0 3.98 3.17c.8.3 1.9 1.03 2.41 2.45a3.18 3.18 0 0 0 0 1.4c-.25.82-.9 1.99-2.13 2.39A3.25 3.25 0 0 0 25 28l-.01.25a3.25 3.25 0 0 0 3.98 3.17c.8.3 1.9 1.03 2.41 2.45a3.18 3.18 0 0 0 0 1.4c-.25.82-.9 1.99-2.13 2.39a3.25 3.25 0 1 0 2.18 2.44 3.61 3.61 0 0 1 2.43-2.38c.25.05.52.09.79.09A3.3 3.3 0 0 0 38 34.56a3.3 3.3 0 0 0-3.81-3.22 3.17 3.17 0 0 1-2.77-2.36 3.26 3.26 0 0 0 .07-.98 3.28 3.28 0 0 0-.05-.9 3.61 3.61 0 0 1 2.43-2.39A3.3 3.3 0 0 0 38 21.55a3.3 3.3 0 0 0-3.81-3.21 3.17 3.17 0 0 1-2.77-2.36A3.26 3.26 0 0 0 28.25 12 3.25 3.25 0 0 0 25 15.25z" fill="#04ABD6"/><circle cx="41.5" cy="28" r="3.5" fill="#75D857"/></svg>