<!-- by TradingView --><svg width="56" height="56" viewBox="0 0 56 56" xmlns="http://www.w3.org/2000/svg"><path fill="#F0F3FA" d="M0 0h56v56H0z"/><path d="M25 25 6 28l18 3v15l7-15 19-2.45L32 25V10l-7 15Z" fill="#377756"/><path d="M40 26.86c0-7.83-5.89-10.84-8.6-11.25-.3-.2-.72-.61 0-.61 11 .98 12.6 8.5 12.6 13-1.27.29-3.8-.06-4-1.14ZM16 29.24c0 7.82 5.89 10.84 8.6 11.24.3.2.72.62 0 .62-11-.98-12.6-8.5-12.6-13 1.27-.29 3.8.06 4 1.14Z" fill="#377756"/><path d="M29.82 19C23 19 16.5 22 12.9 27.66c-.22.26-.9.62-.9 0 2.44-9.04 13-12.66 18.72-12.6.3 1.1.24 3.76-.9 3.94ZM26.05 37c6.82 0 13.32-3 16.92-8.66.22-.26.9-.62.9 0-2.44 9.04-13 12.66-18.71 12.6-.3-1.1-.25-3.76.9-3.94Z" fill="#377756"/></svg>