<!-- by TradingView --><svg width="56" height="56" viewBox="0 0 56 56" xmlns="http://www.w3.org/2000/svg"><path fill="#F0F3FA" d="M0 0h56v56H0z"/><path fill-rule="evenodd" d="M25 19v15h-2v3h20c2.36 0 4-2.44 4-5s-2.55-3.32-4-3.5c1.1 0 3-.59 3-4S43 19 41.55 19H25Zm8 5v3h3c1.1 0 2-.43 2-1.5s-.9-1.5-2-1.5h-3Zm0 6v3h3c1.1 0 2-.43 2-1.5s-.9-1.5-2-1.5h-3Z" fill="#B2B3B6"/><path d="M9 19h16c2.18 0 6 2.16 6 6 0 4.8-5.18 6-5.73 6H20v3h2v3H9v-3h2V23H9v-4Zm11 8h2c1.1 0 2-.93 2-2 0-1.07-.9-2-2-2h-2v4Z"/></svg>