<!-- by TradingView --><svg width="56" height="56" viewBox="0 0 56 56" xmlns="http://www.w3.org/2000/svg"><path fill="#F0F3FA" d="M0 0h56v56H0z"/><path d="M21.54 19 28 10l6.46 9-2.7-.5 5.93 8L35 26l7 9H31.77c2.7-2.5 2.7-4.5 1.61-8-.86-2.8-.35-4.5 0-5-3.87 2-4.48 6.83-4.3 9l-.54.5c-.43-3.6 1.25-7.17 2.15-8.5-.43-1.6-1.61-3-2.15-3.5-.43 1.6.18 4.33.54 5.5l-.54.5a26.9 26.9 0 0 1-1.08-7l-1.08-1-1.07 1.5c0 3.6 1.43 6.83 2.15 8l-.54.5c-1.29-2-1.97-5.5-2.15-7L23.15 23l2.7 6.5-.54.5-2.16-5a8.02 8.02 0 0 0 2.7 10H14l7-9-3.23.5 6.46-8-2.7.5Z" fill="#047940"/><path d="M29.62 33h-.54c.43 4 4.13 9.67 5.92 12l1.62-1a23.18 23.18 0 0 1-7-11Z" fill="#047940"/></svg>