<!-- by TradingView --><svg width="56" height="56" viewBox="0 0 56 56" xmlns="http://www.w3.org/2000/svg"><path fill="#F0F3FA" d="M0 0h56v56H0z"/><path d="M33.5 12.16c1.13 0 1.96.53 2.48 1.58.1.19.1.37 0 .55-1.4.2-2.65.53-3.74 1a32.2 32.2 0 0 0-13.82 12.09l-3.1.1c2.36-5.26 6.98-9.72 11.9-12.75a20.03 20.03 0 0 1 6.29-2.57Z" fill="#741213"/><path d="m35.72 12.35.68-.02a4.55 4.55 0 0 0-2.9-.17c1.13 0 1.96.53 2.48 1.58.1.19.1.37 0 .55.17.77.03 1.57-.43 2.4a12.2 12.2 0 0 1-3.06 3.72c-.9.84-3.29 2.79-5.1 3.55a26.7 26.7 0 0 1-8.97 3.42l-3.1.1c-1.12-.04-1.97-.33-2.55-.87a2.44 2.44 0 0 1-.79-2.17c.11-.99.45-1.87 1.03-2.64 1.19-1.6 2.67-3.05 4.27-4.2a1009.42 1009.42 0 0 0 1.87-1.38v-.02c-.01-.02-.02-.02-.04-.01a32.48 32.48 0 0 0-3.84 2.52l-3 2.98a8.23 8.23 0 0 0-2.21 4.24c.17-.08.28-.28.31-.6.02-.12.08-.17.2-.16.03 0 .06 0 .08-.02a.06.06 0 0 0 .03-.05c0-.08 0-.15.03-.22a.05.05 0 0 1 .06-.04c.02 0 .03.02.04.03v.03c-.74 5.04 6.12 4.38 8.9 3.72 3.81-.9 7.61-2.65 10.82-4.96l2.25-1.6a15.48 15.48 0 0 0 3.84-4.82c.33-.67.52-1.46.57-2.4.02-.41-.1-.8-.34-1.15a4.08 4.08 0 0 0-1.17-1.18c-.16-.1-.15-.16.04-.16Z" fill="url(#amkh5wlds)"/><path d="M37.57 19a.78.78 0 0 1 .05-.03c.27.39.4.87.37 1.44-.01.33-.1.5-.26.5l-2.9.99c.85-.9 1.59-1.8 2.2-2.71.09-.13.27-.19.54-.19Z" fill="#261E5B"/><path d="m37.62 18.97 1.27.32a7.14 7.14 0 0 1-1.2 4.69 18.94 18.94 0 0 1-4.38 4.63 28.8 28.8 0 0 1-9.24 4.6c-1.66.37-3.31.55-4.96.54a7.4 7.4 0 0 1-3.45-.86 3.1 3.1 0 0 1-.6-.49c-.21-.2-.44-.34-.69-.43l-.09-1.61c.23.12.37.16.43.1.4 1.06.97 1.6 1.7 1.61 0 .13.1.21.27.26a8.9 8.9 0 0 0 3.4.23c.1-.01.19-.05.27-.1l.16-.12c0 .12.09.17.24.15a9.87 9.87 0 0 0 3.1-.87h.2c.1 0 .18 0 .26-.04a28.58 28.58 0 0 0 11.17-6.68 10.33 10.33 0 0 0 2.43-3.64.32.32 0 0 0-.05-.33c-.02-.02-.06-.02-.13-.02.16 0 .25-.17.26-.5.02-.57-.1-1.05-.37-1.44Z" fill="url(#bmkh5wlds)"/><path d="M32.5 20.41a25.17 25.17 0 0 1-4.5 3.3c-.22.2-.43.28-.61.25a21.82 21.82 0 0 1 5.1-3.55Z" fill="#261E5B"/><path d="M37.5 18.5c1.28-1.96 1.88-5.3-1.1-6.17l-.68.02c-.19 0-.2.06-.04.16.41.25.8.65 1.17 1.18.25.35.36.74.34 1.16a5.98 5.98 0 0 1-.57 2.39c-.9 1.8-2.19 3.4-3.84 4.81l-2.25 1.61c-3.2 2.31-7 4.05-10.81 4.96-2.8.66-9.65 1.32-8.9-3.72a.05.05 0 0 0-.05-.06.05.05 0 0 0-.06.04.5.5 0 0 0-.03.22c0 .02-.01.04-.03.05a.12.12 0 0 1-.07.02c-.12-.01-.2.04-.2.16-.04.32-.15.52-.32.6-.21 1.5.15 2.6 1.06 3.33.85.67 1.9 1.04 3.16 1.1.23.12.37.16.43.1l2.2-.05 5.54-1.14 5.68-2.57 4.14-2.7 2.55-2.1c.86-.9 1.6-1.8 2.21-2.71l.47-.7Z" fill="url(#cmkh5wlds)"/><path d="M38.55 25.55c.47-.08.9-.03 1.3.16.2.57.32 1.12.33 1.63a.14.14 0 0 1-.1.14l-.1.02c-1.1.07-2.32.36-3.68.87a8.17 8.17 0 0 1 2.25-2.82Z" fill="#22407D"/><path d="M28.13 26.7a38.02 38.02 0 0 0-4.28 4.92c-.9.43-1.94.73-3.1.87-.15.02-.23-.03-.24-.15l1.94-3.07 5.68-2.57Z" fill="#261E5B"/><path d="m16.92 30.41-.5 1.66c-.74-.01-1.31-.55-1.71-1.6l2.2-.06Z" fill="#741213"/><path d="M39.22 24.14c1.12-1.98 1.01-3.6-.33-4.85a7.14 7.14 0 0 1-1.2 4.69 18.94 18.94 0 0 1-4.38 4.63 28.8 28.8 0 0 1-9.24 4.6c-1.66.37-3.31.55-4.96.54a7.4 7.4 0 0 1-3.45-.86 3.11 3.11 0 0 1-.6-.49c-.21-.2-.44-.34-.69-.43.14.73.43 1.3.86 1.67a6 6 0 0 0 4.15 1.45c.74-.03 1.53-.04 2.35-.03 1.28.04 4.05-.81 4.05-.81L30.95 32a16.14 16.14 0 0 0 5.35-3.63c.9-.91 1.43-1.45 2.25-2.83.1-.31.31-.78.67-1.4Z" fill="url(#dmkh5wlds)"/><path d="M30.95 32.01a23.67 23.67 0 0 0-4.32 5.34l-2.62.54c.4-1.3.98-2.52 1.77-3.64L30.95 32Z" fill="#025358"/><path d="m41.16 37.1-.05-.25c-.03-.13-.11-.19-.25-.16l-.21.05a.4.4 0 0 0-.25.2 7.9 7.9 0 0 1-2.18 2.4c-2.85 2.06-6.6 3.7-10.25 3.74-.78.01-1.6-.17-2.45-.53-.37-.15-.7-.18-1-.08-.74-.69-.93-1.4-.56-2.15.03 0 .06-.02.08-.03.3.45.7.82 1.22 1.11 1.25.47 2.56.58 3.94.33 3.25-.6 6.16-1.92 8.73-3.97A12.8 12.8 0 0 0 41.17 34c.14-.25.23-.53.26-.84.04-.34.15-.36.34-.08.11.17.18.36.2.58a5.32 5.32 0 0 1-.81 3.43Z" fill="url(#emkh5wlds)"/><path d="M41.7 27.78a2.3 2.3 0 0 0-1.85-2.07c.2.57.32 1.12.33 1.63a.14.14 0 0 1-.1.14l-.1.02a.3.3 0 0 1 .08.03.12.12 0 0 1 .05.16c-.4.9-.76 1.54-1.08 1.93a20.22 20.22 0 0 1-5.33 4.53 27.46 27.46 0 0 1-7.07 3.2l-2.62.54c-.95.18-1.97.18-3.06 0a4.02 4.02 0 0 1-1.88-1.4c-.39 2.86 2.53 3.87 4.9 3.83l.08-.03 1.4-.03c3.6-.5 6.95-1.8 10.04-3.9 2.47-1.58 4.84-3.73 5.95-6.52.28-.69.36-1.38.26-2.06Z" fill="url(#fmkh5wlds)"/><path d="m21.8 35.22-.85 2.68a4.02 4.02 0 0 1-1.88-1.4l.31-1.41c.74-.03 1.53-.04 2.35-.03.06 0 .09.05.07.16Z" fill="#261E5B"/><path d="M41.16 37.1c-2.03 3.28-5.45 5.5-9.15 6.47-2.44.65-5.5.75-7.48-1.1.3-.1.62-.07.99.08.85.36 1.67.54 2.45.53 3.65-.03 7.4-1.68 10.25-3.73a7.9 7.9 0 0 0 2.18-2.42.4.4 0 0 1 .25-.19l.21-.05c.14-.03.22.03.25.16l.05.25Z" fill="#CFD559"/><path d="m25.44 40.26-.18 1.14a3.38 3.38 0 0 1-1.22-1.1l1.4-.04Z" fill="#025358"/><defs><linearGradient id="amkh5wlds" x1="36.13" y1="14.13" x2="12.67" y2="27.47" gradientUnits="userSpaceOnUse"><stop stop-color="#F18779"/><stop offset="1" stop-color="#F8DF8A"/></linearGradient><linearGradient id="bmkh5wlds" x1="38.8" y1="20" x2="14.27" y2="31.73" gradientUnits="userSpaceOnUse"><stop stop-color="#A490C5"/><stop offset="1" stop-color="#E2837C"/></linearGradient><linearGradient id="cmkh5wlds" x1="37.73" y1="13.07" x2="11.07" y2="29.07" gradientUnits="userSpaceOnUse"><stop stop-color="#D8332D"/><stop offset="1" stop-color="#F3CD34"/></linearGradient><linearGradient id="dmkh5wlds" x1="39.87" y1="21.6" x2="16.93" y2="34.93" gradientUnits="userSpaceOnUse"><stop stop-color="#5C429D"/><stop offset="1" stop-color="#B42336"/></linearGradient><linearGradient id="emkh5wlds" x1="41.47" y1="34.4" x2="24.93" y2="42.4" gradientUnits="userSpaceOnUse"><stop stop-color="#FDEAAD"/><stop offset="1" stop-color="#D0E38F"/></linearGradient><linearGradient id="fmkh5wlds" x1="40.93" y1="26.93" x2="19.07" y2="39.2" gradientUnits="userSpaceOnUse"><stop stop-color="#82C14E"/><stop offset="1" stop-color="#3097D8"/></linearGradient></defs></svg>