<!-- by TradingView --><svg width="56" height="56" viewBox="0 0 56 56" xmlns="http://www.w3.org/2000/svg"><path fill="#F0F3FA" d="M0 0h56v56H0z"/><path d="M23.32 12.4c3.45-.78 7.27-.46 10.36 1.33 2.1 1.26 3.92 3.1 4.74 5.47.53.77.86 2.79 1.15 2.96.62-2.9-.1-5.96-1.58-8.47 3.24 1.96 4.39 6 4.79 9.58.28 1.32 0 3.6.27 4.39 1.23-1.4 1.53-3.34 1.7-5.14.78 5.1-.2 10.72-3.46 14.8-2.65 3.25-6.6 5.14-10.55 6.17-3.73 1.01-7.76.48-11.17-1.3-6.07-2.97-9.58-10.31-8.31-17 1.05-6.2 5.97-11.5 12.06-12.8Zm4.38 3.3c1.93.62 3.94 1.53 5.09 3.3-3.43-1.58-8.06-1.18-10.59 1.86-2.23 2.91-2.1 7.08-.65 10.3 1.18 2.55 4.15 3.57 6.76 3.26 1.5-.24 3.3-.26 4.34-1.57 4.38-4.42 4.71-12.35.46-16.97-1.53-1.13-3.73-.66-5.41-.17Z" fill="#A8DEF1"/><path d="M23 12.47c3.37-.84 7.08-.58 10.2.98 2.28 1.26 4.31 3.17 5.2 5.7.56.75.89 3 1.2 2.97.6-2.88-.1-5.94-1.59-8.44 3.38 2.1 4.48 6.35 4.83 10.11.24 1.15-.08 3.33.23 3.88 1.21-1.4 1.53-3.32 1.69-5.12.76 5.17-.24 10.87-3.62 14.95-2.78 3.27-6.84 5.13-10.9 6.13-3.6.81-7.44.27-10.71-1.46-6.01-2.98-9.5-10.22-8.3-16.89 1.03-6.14 5.79-11.4 11.78-12.81Zm-.76 3.28c-3.67 1.06-6.38 4.32-7.66 7.87-1.27 3.85.39 8.02 2.82 11.03.44.6 2.18 2.55.98.74-.42-.8-1.47-3.16-.1-1.47 1.56 1.47 3.11 2.97 5.08 3.82 1.38.37-.96-.87-1.12-1.45-1.09-1.79.9.44 1.73.55 2.4 1 4.83-.58 6.6-2.13a13.16 13.16 0 0 0 5.54-9.76c.2-3.36-.8-7-3.28-9.35-1.67-.8-3.6-.37-5.3.08-1.74-.4-3.56-.4-5.29.07ZM28 36.42c-.11.07-.03-.04 0 0Zm-3.63 4.88c.04-.15.1.06 0 0Z" fill="#5AA6DB"/><path d="M38.11 13.78c3.16 2.04 4.27 6.01 4.66 9.58.15 1.49.2 2.99.12 4.48 1.38-1.32 1.68-3.36 1.87-5.18.62 4.4-.03 9.11-2.31 12.96-2.32 3.98-6.54 6.28-10.76 7.6a15.6 15.6 0 0 1-12.26-1.17c-2.2-.99-3.63-3.4-3.95-5.68 2.41 2.9 5.46 5.72 9.3 6.26.7.18 3.72-.15 1.8-.47-1.65-.46-3.4-1.2-4.32-2.75a7.72 7.72 0 0 0 6.63.8 9.18 9.18 0 0 0 3.86-2.5c-2.48.94-5.24.46-7.63-.53 2.74.17 4.86-1.92 6.8-3.57a12.9 12.9 0 0 0 3.85-12.72A11 11 0 0 0 33 15.73c1.98-.67 3.94.8 4.86 2.5.75 1.26 1.3 2.73 1.66 4.22.73-2.95.03-6.13-1.47-8.71l.05.04Zm.9.75c.04-.1.05.08 0 0Zm-.09.88c0-.09.08.07 0 0Z" fill="#3958A8"/></svg>