<!-- by TradingView --><svg width="56" height="56" xmlns="http://www.w3.org/2000/svg"><path fill="#003865" d="M0 0h56v56H0z"/><path d="M21.172 22.116c-2.837.259-6.51 1.515-8.567 2.415C8.949 26.397 6.46 28.535 5 30.048a25.43 25.43 0 012.926.088c3.46.305 6.21 1.111 8.366 2.095 1.873-1.763 4.924-4.764 8.854-5.91 6.807-1.989 11.284 1.287 11.284 1.287s-3.487-6.554-15.258-5.492z" fill="#fff"/><path d="M35.964 35.295c2.77-.252 6.36-1.477 8.368-2.357 3.572-1.821 6-3.91 7.43-5.39-.907.025-1.86.003-2.857-.085-3.38-.3-6.066-1.087-8.177-2.048-1.828 1.722-4.808 4.654-8.646 5.773-6.652 1.944-11.026-1.254-11.026-1.254s3.41 6.402 14.908 5.36z" fill="#fff"/></svg>