<!-- by TradingView --><svg width="56" height="56" viewBox="0 0 56 56" xmlns="http://www.w3.org/2000/svg"><path fill="#F0F3FA" d="M0 0h56v56H0z"/><path fill-rule="evenodd" d="M10.6 24H6.48L4 32h2.4l.62-2h2.86c1.28 0 3.12-1.78 3.12-3.93 0-1.72-1.6-2.1-2.4-2.07Zm-2.96 4h1.6c.72 0 1.44-1.13 1.44-1.82a.94.94 0 0 0-.64-.9H8.48L7.64 28Zm6.38-2h3.4c.53.04 1.58.37 1.58 1.43s-.54 2.24-1.75 2.66l.76 1.91h-1.74l-.7-1.76h-1l-.6 1.76H12l2.02-6Zm.97 3 .67-2h.87c.15.06.47.27.47.63 0 .44-.51 1.37-1.14 1.37h-.87Z" fill="#211D1F"/><path d="M25.33 28H28l-.33 1H25l.33-1Z" fill="#211D1F"/><path fill-rule="evenodd" d="M21.2 32c.8.04 2.47-.1 2.83-1 .45-1.15 1-3.25.97-3.97-.04-.7-1.28-1.03-2.45-1.03-1.17 0-2.24.32-2.76 1.53-.51 1.22-.79 2.68-.79 3.18s.38 1.28 2.2 1.28Zm1.2-5a.75.75 0 0 0-.8.56c-.2.63-.57 2.69-.6 2.97-.02.27.08.47.6.47.51 0 .7-.16.86-.75.16-.6.54-2.45.54-2.85 0-.32-.4-.4-.6-.4Z" fill="#211D1F"/><path d="M31.66 24h-2.33L27 32h5.64c2.02 0 3.36-4.76 3.36-6.32 0-1.25-1.37-1.64-2.05-1.68h-2.3Zm-1.9 6.5 1.47-5.02h1.89c.2.03.6.2.6.7 0 .63-1.08 4.32-1.9 4.32h-2.05Zm9.51-4.5c-1.6 0-2.85 1.27-3.27 2 .3-.26 1.05-.29 1.38-.36a5.45 5.45 0 0 0-.84 2.65c0 1.35.73 1.71 2.11 1.71 1.11 0 2.23-.1 2.66-.14l.34-1.47c-2.11.36-3.11.04-3.11-.28 0-.26.18-.59.27-.72h2.3l.39-1.07c-.62.01-1.94.03-2.3 0 .15-.51.47-.8.6-.9h2.74L43 26h-3.73ZM44 26h2.32L48 33h-2.32L44 26Z" fill="#211D1F"/><path d="M49.14 24 40 35l9.14-7H48l4-4h-2.86Z" fill="#0073B8"/></svg>