<!-- by TradingView --><svg xmlns="http://www.w3.org/2000/svg" width="56" height="56" viewBox="0 0 56 56"><path fill="#F0F3FA" d="M0 0h56v56H0z"/><path d="M14 17h-2v14h2V19h2.5a2.5 2.5 0 0 1 0 5h-.63l-.37 2h1a4.5 4.5 0 1 0 0-9H14ZM23 17h4.5a4.5 4.5 0 0 1 4.5 4.5v5a4.5 4.5 0 0 1-4.5 4.5H23V20.5l2 .74V29h2.2a2.8 2.8 0 0 0 2.8-2.8v-4.4a2.8 2.8 0 0 0-2.8-2.8H23v-2ZM35 17h9.5l-.5 2h-7v4h6l-.5 2H37v6h-2V17Z" fill="#316DB5"/><path d="M31 40v-4h1v4h-1ZM13.17 36c.43-.01.91.12 1.33.45l-.62.78a1.04 1.04 0 0 0-.68-.23c-.2 0-.36.08-.44.14a.2.2 0 0 0-.08.14l.01.04.03.03c.03.02.08.04.18.06a2.43 2.43 0 0 0 .2.01c.06 0 .14 0 .2.02.41.04.95.2 1.23.67.4.66.1 1.57-.79 1.8a2.65 2.65 0 0 1-1.11.06c-.39-.06-.8-.19-1.14-.45l.62-.79c.15.12.38.2.66.25.27.04.53.02.7-.03.15-.04.2-.1.22-.15a.2.2 0 0 0-.02-.18c-.03-.05-.18-.16-.46-.19l-.16-.01h-.03l-.25-.02c-.19-.03-.4-.08-.62-.23-.69-.48-.54-1.37-.04-1.79.28-.23.66-.37 1.06-.38ZM43.07 36c.43-.01.91.12 1.33.45l-.62.78a1.04 1.04 0 0 0-.68-.23c-.2 0-.36.08-.44.14a.2.2 0 0 0-.08.14l.01.04.03.03c.03.02.08.04.18.06l.17.01H43c.06 0 .14 0 .2.02.41.04.95.2 1.23.67.4.66.1 1.57-.8 1.8a2.86 2.86 0 0 1-2.24-.39l.62-.79c.15.12.38.2.66.25.27.04.53.02.7-.03.15-.04.2-.1.22-.15a.2.2 0 0 0-.02-.18c-.03-.05-.18-.16-.46-.19a3.93 3.93 0 0 0-.2-.01l-.24-.02c-.19-.03-.41-.08-.62-.23-.69-.48-.54-1.37-.04-1.79.28-.23.66-.37 1.06-.38ZM15.42 37.73c0-.95.7-1.73 1.57-1.73.87 0 1.57.78 1.57 1.73v.54c0 .95-.7 1.73-1.57 1.73-.86 0-1.57-.78-1.57-1.73v-.54ZM17 37.1c-.31 0-.57.29-.57.63v.54c0 .34.26.63.57.63.32 0 .57-.29.57-.63v-.54c0-.34-.25-.63-.57-.63ZM33.17 37.7c0-.94.7-1.7 1.57-1.7.86 0 1.57.76 1.57 1.7v.6c0 .94-.7 1.7-1.57 1.7-.87 0-1.57-.76-1.57-1.7v-.6Zm1.57-.62c-.32 0-.57.27-.57.61v.62c0 .34.25.61.57.61.31 0 .57-.27.57-.61v-.62c0-.34-.26-.61-.57-.61ZM19.7 36h1v3h1.55v1H19.7v-4ZM24 36v2.43c0 .31.2.57.5.57s.5-.25.5-.57V36h1v2.43c0 .87-.67 1.57-1.5 1.57s-1.5-.7-1.5-1.57V36h1ZM28 37h-1v-1h3v1h-1v3h-1v-3ZM37.36 40v-4h.92l1.22 1.7V36h1v4h-.63l-1.51-2.12V40h-1Z" fill="#273054"/><path fill="#316DB5" d="M11 33h34v1H11z"/></svg>