<!-- by TradingView --><svg width="56" height="56" viewBox="0 0 56 56" xmlns="http://www.w3.org/2000/svg"><path fill="#1A3665" d="M0 0h56v56H0z"/><path fill-rule="evenodd" d="M25.7 11a12.82 12.82 0 0 0-10.55 5.33 10.61 10.61 0 0 0-2.01 6.25c0 1.73.4 3.72 1.42 5.96l.5 1.08c.22.46.43.9.45 1.05l-.22.15L11 33.66s.73.3 1.44.53c.6.2 2.4.73 5.53 1.04-.34.43-.6 1.01-.6 1.78l.01.12v.06c.09 1.71.84 3.38 1.23 4.13-1.24 1.01-3.27 3.1-3.27 3.1l4.76-2.4c.72.48 1.46.42 1.8.35a2.8 2.8 0 0 0 1.78-.14l.1.15.06.05c.42.48 1.16.49 1.33.48 5.86.14 12 2.65 12.07 2.68l1 .41s-.18-.67-.3-1.04a3.54 3.54 0 0 0-.37-.79l-.13-.21a5.9 5.9 0 0 0-.86-1.07l.2-.28 1.06-1.55c.43-.63.55-1.21.55-1.68v-.14c.66.13 1.61.25 2.55.1 1.3-.19 1.97-.71 2.06-1.2 0 0-.64-.48-1.36-1.61l-.04-.06c-.54-.85-1.08-1.7-1.03-2.6.06-.77.26-1.39.29-1.47v-.01s-.43-.36-.32-.77c.17-.63.77-1.42.82-1.48 0 0-.28-.1-.31-.42 0-.05.03-.12.07-.23.23-.42.89-1.19.89-1.19l-.35-.3c-.39-.34-1.4-1.4-1.43-2.2v-.07c0-.44.13-.9.3-1.49a14.47 14.47 0 0 0 .52-3.34c.01-.3.02-.5 0-.81a29.04 29.04 0 0 0-1.5-7.7l-.81.9c-1.24 1.41-2.56 2.31-2.97 2.41a13.25 13.25 0 0 0-5.44-3.82c-1.43-.55-3-.86-4.63-.88Zm4.43 1.36c3.06 1.23 4.4 2.74 5.3 3.74l.02.02c.63.7 3.29-2.28 3.53-2.56l-3.13 3.57a12.77 12.77 0 0 0-5.72-4.77Zm6.98 21.02s.5 1.05 1.74 1.06c0 0 2.8 3.18 3.52 3.79 0 0 0 .38-1.51.6-1.54.23-3.17-.3-3.17-.3s.56 1-.28 2.23c0 0 .23-3.7-1.55-2.53 0 0-.8-1.6-.98.87 0 0-1.03-.57-.15-1.18 0 0-.2-.9-1.37.34 0 0-.07-1.06-.83-.07 0 0-.07-.68.57-.83 0 0-1.21-.46-1.78 1.05 0 0-.57-.41-.3-1.02 0 0-1.75-1.02-2.12 1.02 0 0-1.25-.18-.87-1.28 0 0-1.14-.53-1.78.64 0 0-.69-.22-.72-.94 0 0-.8-.34-1.14.56 0 0-.68-.15-.9-.9 0 0-.91-.57-1.6.9 0 0-.9-.75-.79-1.58 0 0-.23-.27-.6.11 0 0-.35-.95-1.03-.34 0 0 .66.69-.19.98 0 0-1.37-1.07-.91 1.3a9.22 9.22 0 0 0 1.27 3.41l.17.31-3.14 1.87 2.6-2s-1.26-2.13-1.37-4.29c-.09-1.86 1.5-2.34 1.5-2.34-3.9-.26-6.63-.95-6.63-.95l.54.09c1.53.23 3.68.55 7.14.52a17.68 17.68 0 0 0 11.13-3.94s-.1 1.79 1.86 2.88c1.97 1.1 3.18.98 3.18.98-4.32-1.89-4.81-4.05-4.81-4.05s1.4-1.06 3.49-4.58c2.36-3.97 4.31-11.82 4.31-11.82s1 3.81.89 6.57l-2 2.55.5 1.1-.6 1.06.27-1.11-1.22-1.5s-.55 1.4-1.21 2.22l1.88.16-.39.78 1.66 2.32s-.83-.06-1.16.44c0 0 .05.61.5.61 0 0 .6-.44 1.1-.44l.44.55s-.72.28-1 .6l.62.73-.94.83.27.5-.66.21.5.78s-.3.43-1.08.93c0 0-.46-.08-.5-.72l-.37.26Zm-1.19-3.54c.05.86.5 1.61.5 1.61 1.73-1.06.92-3.51.92-3.51l-.88-1.11h-.33l.22.44s-.73.74-1.44 0l-1.06 2.06a2.93 2.93 0 0 0 1.52 1.52c.15-.5.55-1.01.55-1.01ZM23.94 41.67l.23.35.02.02c.27.39.98.35.98.35 6.04.14 12.27 2.71 12.27 2.71a3.3 3.3 0 0 0-.31-.67l-.12-.2c-.5-.75-1.44-1.91-2.29-1.2 0 0-.56-1.4-1.5-.49 0 0-1.37-1.29-1.86-.34 0 0-2-1.4-2.8-.19 0 0-1.82-1.7-2.43-.34 0 0-1.74-.9-2.2 0ZM40.2 30.65l-.12-.23.24-.37-.23-.3.66-.7c-.57 1.02.06 1.15.06 1.15s-.45.5-.76 1.21c-.3.72.27 1.03.27 1.03s-.21.42-.27 1.4c-.09 1.33 1.3 3.04 1.3 3.04l-2.24-2.59c.11-.53.83-1.63.83-1.63l-.57-.93.83-1.08Zm-5.1 9.17s.86 1.28.6 3.02c0 0-.98-1.06-.6-3.02Zm-1.79-.65s.88 1.33.16 2.73c0 0-.76-1.86-.16-2.73Zm-2.04-.57s1.1 1.52.38 2.96c0 0-1.44-1.33-.38-2.96Zm-2.38 0s1.02 1.7-.2 2.84c0 0-.41-1.59.2-2.84Zm-2.8-.11s1.55 1.74.15 2.54c0 0-.5-1.9-.16-2.54Zm-2.62-.53s1.17 1.52.68 2.8c0 0-.72-1.13-.68-2.8Zm-1.81.19s.9.72.75 2.54c0 0-.9-1.18-.75-2.54Zm-2.8-1.36s.94.87.98 1.93c0 0-.95-.19-.99-1.93Zm1.35 2.57s.8.8.46 1.55c0 0-.64-.75-.46-1.55Zm.04 2.12s.61-.57 1.78 0c0 0 .8-.9 1.44.27 0 0-.87.37-1.55.07 0 0-.87.3-1.67-.34Zm9.4-24.46c-.34-.06-6.86-1.19-2.47-1.66 2.62-.3 5.1.6 6.17 1.05-12.06-5.4-16.77 6.21-16.77 6.21-.46-1.8.1-3.99.1-3.99-3.12 5.03.18 11.46 1.06 11.91 0 0 4.6 2.27 9.3.56 8.07-2.95 8.72-13.22 8.72-13.22s-1.06 4.19-1.96 5.3c0 0-.51-1.21-1.07-1.72 0 0 .96 7.62-5.3 4.4 0 0 1.62 7.16-6.86 3.78 0 0 .55-.5 1.26-.76 0 0 5.72-.72 2.83-4.19-.5-.6-4.84-.43-3.27 3.66 0 0-2.5.07-2.64-2.5-.15-2.83 4.2-3.08 5.66-2.32 0 0 .2-1.41-3.9-1.56 0 0 .51-2.93.16-4.04 0 0 1.35 1.37 3.82 1.07 0 0-.94 2.92 1.08 4.43 0 0-1.92-7.3 4.07-6.41Zm-2.67 6.3s-.92-3.66 3.79-3.32c.7.05 1.46 0 2.07-.2 0 0-.75.67-1.4 1.93-.75 1.45-1.58 2.94-4.46 1.6Zm-.7-.2c-.97-6.35 3.42-4.54 3.42-4.54-3.98 0-3.43 4.54-3.43 4.54Zm.5.76s3.13 2.22 5.05-1.26c0 0 .7 2.93-1.57 3.33-2.27.4-3.48-2.07-3.48-2.07Zm.4 3.84c.25-1.87-1.26-2.83-1.26-2.83s1.08 4.15-3.2 4.2c0 0-.62.15-1.02.6 0 0 4.93 2.1 5.48-1.97Zm-2.52-3.64s-2.93-.76-4.04 1.47c-.6 1.2.15 2.32.15 2.32-.45.15-2.37-1.42-1.16-3.13 1.43-2.02 5.05-.66 5.05-.66Zm-.92-4.32c-1.38-.03-2.35-.69-2.35-.69.3.86-.08 2.5-.08 2.5a4.82 4.82 0 0 1 2.74.65c-.65-1.21-.31-2.46-.31-2.46Zm-9.85 2.93a10.98 10.98 0 0 1 5.88-9.74s-9.62 4.68-4.75 15.37l.5 1.07c.62 1.3.7 1.45.03 1.87l-2.65 1.65 4.19-2.17c-1.96-2.44-3.17-4.87-3.2-8.05Zm26.66-1.61s-.12 2.24-1.6 5.04c0 0 1.86 1.81 2.16 2.34.05.1-.09.32-.09.32l.28-.4s-1.56-1.36-1.6-2.56c-.01-.55.14-1.08.32-1.72.22-.78.48-1.72.53-3.02Z" fill="#fff"/></svg>