<!-- by TradingView --><svg xmlns="http://www.w3.org/2000/svg" width="56" height="56"><path fill="#F0F3FA" d="M0 0h56v56H0z"/><circle cx="22" cy="21" r="8" fill="url(#apcfzircz)"/><circle cx="42.5" cy="41.5" r="2.5" fill="#0B263B"/><path fill-rule="evenodd" d="M23.45 33c5.77 0 10.45-4.7 10.45-10.5a10.5 10.5 0 00-4.37-8.55A14.04 14.04 0 0142 27.94c0 2.94-.9 5.68-2.45 7.94a2.5 2.5 0 00-4.19 1.84c0 .67.26 1.28.69 1.73A13.9 13.9 0 0128 42a14.03 14.03 0 01-13.97-14.95A10.45 10.45 0 0023.45 33zM35 33a2 2 0 11-4 0 2 2 0 014 0z" fill="url(#bpcfzircz)"/><defs><linearGradient id="apcfzircz" x1="16.24" y1="15.55" x2="27.59" y2="26.43" gradientUnits="userSpaceOnUse"><stop stop-color="#C4E1B1"/><stop offset="1" stop-color="#2CA87A"/></linearGradient><linearGradient id="bpcfzircz" x1="21.82" y1="20.33" x2="38.11" y2="37.83" gradientUnits="userSpaceOnUse"><stop stop-color="#178B5C"/><stop offset="1" stop-color="#134158"/></linearGradient></defs></svg>