<!-- by TradingView --><svg width="56" height="56" viewBox="0 0 56 56" xmlns="http://www.w3.org/2000/svg"><path fill="#F0F3FA" d="M0 0h56v56H0z"/><path d="M27.8 11c-5.83 0-8.96 3.17-9.8 4.76 1.02-1.48 4.14-2.76 6.33-2.76C33.98 13 38 23.43 38 28.7c0 4.45-2.06 6.05-2.94 6.3 2.64-.22 7.94-2.4 7.94-9.4C43 16.88 35.1 11 27.8 11Z" fill="#3AAF4A"/><path d="M12.7 36.85c2.67 4.95 6.83 6.16 8.57 6.15-4.18-.45-6.24-5.52-6.27-9.26-.04-6.16 4.82-11.47 8.38-13.36 1.88-1 3.37-1.38 4.46-1.38 1.13 0 1.85.41 2.16.74-1.4-2.15-5.7-5.65-11.7-2.45-7.51 3.99-8.94 13.38-5.6 19.56Z" fill="#005DA8"/><path d="M43.07 37.66c2.98-4.9 1.86-9.15.93-10.66.75 1.6.3 4.92-.8 6.76C40.61 38 36.41 38.99 32.34 39c-3.72.01-7.32-.7-9.47-1.98-3.81-2.26-4.12-4.16-3.88-5.02a8.6 8.6 0 0 0-1 3.68c-.02 2.38 1.13 5.19 4.82 7.37 7.48 4.43 16.54.75 20.25-5.39Z" fill="#8E9191"/><path d="M24.81 26.23A17.33 17.33 0 0 1 18 28c1.45-2.8 4.87-5.5 7.2-6.8 2.31-1.27 4.4-1.48 4.71-.87.63 1.21-2.16 4.28-5.1 5.9Z" fill="#005DA8"/><path d="M32 26.81c0-2.66 1.1-5.65 1.66-6.81 1.66 2.55 2.34 6.81 2.34 9.44S35.22 34 34.56 34c-1.3 0-2.56-3.86-2.56-7.19Z" fill="#3AAF4A"/><path d="M27.85 32.97A18.19 18.19 0 0 1 33 38c-3.18.15-7.34-1.45-9.67-2.82-2.34-1.36-3.63-3.06-3.27-3.65.7-1.15 4.83-.28 7.79 1.45Z" fill="#8E9191"/></svg>