<!-- by TradingView --><svg width="56" height="56" xmlns="http://www.w3.org/2000/svg"><path fill="#F0F3FA" d="M0 0h56v56H0z"/><path d="M30.08 30.779c3.584-.29 7.125.551 9.92 1.913-2.084-1.432-5.51-3.678-10-4.789-.09 1.27.012 2.343.08 2.876zm-.15 0c-4.014.392-9.371 1.718-13.737 3.397-1.074-3.763 2.31-8.404 11.507-6.872.442.074.878.156 1.3.242.218 1.328.605 2.418.93 3.233z" fill="#00A6A7"/><path d="M43.703 23.56l-.05-.024c-.004-.003-.58-.268-1.03.216l-.057.063.921.462.216-.717zm4.217 5.179s-.402.736-.582 1.008c-.18.274-.745.444-1.234.205-.224-.109-2.314-1.357-3.114-1.286-4.048.362-5.151-1.346-5.281-1.5-.13-.156-.374-.084-.2.221.888 1.56 3.726 2.716 3.726 2.716.688 1.696.77 2.884.77 2.884-.68-.544-1.416-1.001-2.195-1.381C37.726 30.174 34.49 28.112 30 27c.258-3.646 1.82-9.06 10.223-7.814 0 0 1.687.283 2.81 1.08 0 0-.27.289-.625.652-.355.362.038.595.038.595l1.775 1.428c.021.756.052.968.607 1.652.555.682 2.715 2.998 2.997 3.307.328.359.095.839.095.839zM29.005 21.67c-.444 1.874-.233 3.53-.005 4.918a36.371 36.371 0 00-1.286-.242c-9.198-1.532-12.595 3.066-11.521 6.828C13.152 34.345 10.294 35.685 8 37c3.61-8.863 11.455-16.664 18.076-17.69 2.162-.291 3.211 1.184 2.93 2.361z" fill="#1F2555"/></svg>