<!-- by TradingView --><svg width="56" height="56" viewBox="0 0 56 56" xmlns="http://www.w3.org/2000/svg"><path fill="#F0F3FA" d="M0 0h56v56H0z"/><path d="M28 42.82a14.82 14.82 0 1 0 0-29.64 14.82 14.82 0 0 0 0 29.64ZM28 46a18 18 0 1 0 0-36 18 18 0 0 0 0 36Z" fill="url(#aoztgndk4)"/><path d="M28 41.93a13.93 13.93 0 1 0 0-27.86 13.93 13.93 0 0 0 0 27.86ZM28 43a15 15 0 1 0 0-30 15 15 0 0 0 0 30Z" fill="url(#boztgndk4)"/><circle cx="28" cy="28" r="14" fill="#033D7C"/><path d="M36.85 18.82A12.12 12.12 0 0 0 28.17 15c-5.43 0-13.69 4.91-13.14 14.17l.32-.02c-.53-9.05 7.57-13.83 12.82-13.83 4.1 0 7.2 2.34 8.33 3.6l-.6.6.23.1c2 .8 2.88 2.82 3.09 4.06l-.74.4c-.53.3-1.13.64-1.71.63-.23 0-.37-.1-.5-.29l-1.15-.1v.53l.99-.1c.17.2.4.28.65.28.66.01 1.32-.35 1.9-.68l.8-.43.11-.05-.02-.12c-.17-1.24-1.03-3.39-3.08-4.34l.47-.47-.1-.12Z" fill="#FFFDFA"/><path d="M28.2 17.7c-1.83-.37-6.16.22-9.19 5.34l-1.59-.53-.07.1c-.55.74-1.63 3.07-1.63 6.55 0 4.39 3.8 11.84 12.45 11.84h.13l.53-2.15h.2a9.14 9.14 0 0 0 2.83-.39c1.14-.38 2.32-1 3.19-1.97.93-.44 2.2-1.22 2.2-1.95 0-.86-.7-1.36-1.06-1.54h-4.81c2.14.43 3.2 1.54 3.2 2.62v.89c-.79.78-1.81 1.3-2.82 1.65a8.93 8.93 0 0 1-2.92.36h-.26l-.53 2.16c-8.37-.08-12.01-7.32-12.01-11.52 0-3.28.97-5.49 1.5-6.27l1.62.54.06-.11c2.96-5.1 7.2-5.65 8.92-5.3l.06-.33Z" fill="#FFFDFA"/><path d="M31.38 22.16c-.36-.36-.86-1.18 0-1.62l-3.2 1.08c.7.18 2.34.54 3.2.54ZM31.91 22.7c.72.18 2.36.75 3.21 1.61v.54c-.53-.18-1.82-.54-2.67-.54-.44 0-.89-.18-1.4-.4-.74-.3-1.63-.67-2.88-.67-1.7 0-3.92 1.07-4.8 1.61l1.06.54c.71-.54 2.35-1.62 3.2-1.62.86 0 2.86.72 3.75 1.08L29.24 27c1.25-.18 4.06-.53 5.35-.53 1.28 0 1.96.35 2.13.53a7.5 7.5 0 0 0-3.74 1.08c.72-.18 2.46-.54 3.74-.54 1.29 0 1.96.36 2.14.54h-2.14c-.2 0-.67.07-1.28.16-1.06.16-2.51.38-3.53.38-1.28 0-3.38-.36-4.27-.54.89.36 3 1.08 4.27 1.08 1.29 0 3.03-.36 3.75-.54.35 0 1.38.21 2.67 1.08 1.28.86 2.31 1.79 2.67 2.15-.36 1.43-1.6 4.63-3.74 5.92.36-.54.96-1.94.53-3.23l-.19-.6c-.36-1.15-.49-1.55-1.41-1.55h-4.81c-.9-.72-2.89-2.16-3.74-2.16-.54 0-1.34.68-2.14 1.35S23.9 33 23.36 33H22v-3.84l-2-1.62v2.7l-.53-.54v1.07l-2.14-1.61c-.18-.18-.1-.86 1.6-2.16 1.71-1.29 2.65-1.82 2.83-2h1.07v-.69c.89-.72 3.1-2.26 4.8-2.69.72.36 2.57 1.08 4.28 1.08Z" fill="#FFFDFA"/><path d="m20.5 28.62 1 1.08v2.69l-.28-.54c.15 1.72.4 4.77.5 5.68-.06-.28-.2-.76-.38-1.33-.47-1.6-1.34-4-1.34-5.43l.5.54v-2.7Z" fill="#FFFDFA"/><defs><linearGradient id="aoztgndk4" x1="16.88" y1="14.24" x2="38.59" y2="42.82" gradientUnits="userSpaceOnUse"><stop stop-color="#FEFEFB"/><stop offset="1" stop-color="#A1A2A3"/></linearGradient><linearGradient id="boztgndk4" x1="22.64" y1="14.61" x2="33.36" y2="41.39" gradientUnits="userSpaceOnUse"><stop stop-color="#696969"/><stop offset="1" stop-color="#F8FAFF"/></linearGradient></defs></svg>