<!-- by TradingView --><svg width="56" height="56" viewBox="0 0 56 56" xmlns="http://www.w3.org/2000/svg"><path fill="#F0F3FA" d="M0 0h56v56H0z"/><path d="m26.93 35.45 9.55-3.63C40.93 29.8 42 26.77 42 24c0-2.78-.53-4.89-2.58-6.32 1.42 1.43-.98 3.37-3.74 4.46l-9.02 2.95c-4.54 1.6-7.66 4.38-7.66 8.93V48c.71-.08 1.07-9.6 7.93-12.55Z" fill="url(#amhha3hje)"/><path d="m25.79 22.39 4.72 1.68 5.17-1.94c2.76-1.1 5.16-3.03 3.74-4.46-.9-.68-2.23-1.35-3.92-1.94L19 10v5.14c0 2.78 2.25 5.81 6.79 7.25Z" fill="url(#bmhha3hje)"/><path d="m29 34.52-2.21.9C20.15 38.2 19.62 47.1 19 47.52l4.6-1.8c3.72-1.39 5.49-3.52 5.4-8.58v-2.62Z" fill="url(#cmhha3hje)"/><defs><linearGradient id="amhha3hje" x1="20.27" y1="37.87" x2="41.66" y2="23" gradientUnits="userSpaceOnUse"><stop stop-color="#349EA8"/><stop offset=".74" stop-color="#96D4CE"/></linearGradient><linearGradient id="bmhha3hje" x1="33.16" y1="21.16" x2="9.52" y2="4.94" gradientUnits="userSpaceOnUse"><stop stop-color="#0B4D85"/><stop offset=".08" stop-color="#175C94"/><stop offset=".27" stop-color="#327DB3"/><stop offset=".46" stop-color="#4595C9"/><stop offset=".63" stop-color="#50A3D6"/></linearGradient><linearGradient id="cmhha3hje" x1="24.17" y1="41.96" x2="23.18" y2="36.58" gradientUnits="userSpaceOnUse"><stop stop-color="#0B4D85"/><stop offset="1" stop-color="#05262F"/></linearGradient></defs></svg>