<!-- by TradingView --><svg xmlns="http://www.w3.org/2000/svg" width="56" height="56" viewBox="0 0 56 56"><path fill="#F0F3FA" d="M0 0h56v56H0z"/><path d="M25 31v-4h-1v-2h3v1.61c.13-.41.43-.79.72-1.1a1.74 1.74 0 0 1 1.26-.51c.26 0 .5.04.75.12l-.1 2c-1.2-.26-2.4.32-2.63 1.6V31h1v2h-4v-2h1zM31 31v-4h-1v-2h3v6h1v2h-4v-2h1zM38.1 26.64c-.27 0-.53.08-.75.24-.22.16-.38.4-.47.67-.17.46-.25.95-.24 1.45-.02.54.08 1.08.29 1.57.1.24.27.45.48.59.21.14.46.21.7.2.27.01.54-.07.76-.23.23-.17.4-.4.5-.68.16-.46.24-.96.22-1.45a3.62 3.62 0 0 0-.28-1.57c-.1-.25-.27-.47-.5-.6-.2-.15-.46-.22-.71-.2zm.06-1.64c1.2 0 2.1.38 2.7 1.14.6.8.91 1.82.87 2.86a4.4 4.4 0 0 1-1.03 3.04c-.6.64-1.46.96-2.58.96-1.22 0-2.13-.38-2.74-1.14-.61-.8-.92-1.82-.87-2.86a4.4 4.4 0 0 1 1.03-3.05c.6-.63 1.47-.95 2.62-.95M21.42 28.27c-.01-.84-.65-1.76-1.59-1.68-.93-.06-1.67.83-1.7 1.68h3.29zM18.13 30c.09 1.1.89 1.4 2.09 1.4a4.32 4.32 0 0 0 2.34-.76l.74 1.6c-.96.51-2.04.77-3.12.76-1.42 0-2.49-.36-3.2-1.1-.65-.66-.98-1.61-.98-2.86a4.3 4.3 0 0 1 .97-2.9c.65-.75 1.6-1.13 2.84-1.13.97-.07 1.93.26 2.67.91.6.65.94 1.5.97 2.4.03.33.05 1.06.05 1.68h-5.37zM43 31v-4h-1v-2h3v1.28c.24-.27.59-.51.87-.72a3.21 3.21 0 0 1 1.88-.56c2.12 0 2.25 1.47 2.25 3.17V31h1v2h-4v-2h1v-2.83c.03-.37-.04-.73-.21-1.05a.94.94 0 0 0-.83-.41c-.6 0-1.43.4-1.96 1.22V31h1v2h-4v-2h1z"/><path d="M30.86 22.38a1.25 1.25 0 1 0 2.14.86 1.2 1.2 0 0 0-.73-1.15c-.15-.06-.32-.1-.49-.09a1.23 1.23 0 0 0-.93.38" fill="#5EC6DF"/><path d="M6 19l.66 2H8v10H6v2h6v-2h-2V19H6z"/><path d="M16.75 23.56c.03-3-2.17-4.6-4.99-4.56H10v2h1.76c.72-.01 1.58.25 2.12.73.23.22.4.5.52.8a3.24 3.24 0 0 1 0 2.12 2.14 2.14 0 0 1-1.4 1.34c-.43.11-.88.2-1.32.25l.55 1.83c.6-.1 1.2-.25 1.78-.46a4.1 4.1 0 0 0 2.74-4.05z"/></svg>