<!-- by TradingView --><svg xmlns="http://www.w3.org/2000/svg" width="56" height="56" viewBox="0 0 56 56"><path fill="#F0F3FA" d="M0 0h56v56H0z"/><path d="M43.56 23.02c-3.63.24-4.9 2.83-4.9 2.82l.56-2.84h-2.95L34 33.99l2.95.01s.83-4.05.84-4.02c.01.03.12 1.41 1.01 2.52.9 1.1 2.33 1.48 3.7 1.5.5 0 1.02-.03 1.5-.1.35-.06.79-.18.79-.18l-1.43-1.75-.46.03c-.44.02-.86-.05-1.23-.3-1.13-.81-.96-2.93-.56-4.1.44-1.3 1.41-2.6 2.89-2.6 1.44 0 1.99 1.36 1.98 2.6 0 .48-.06.94-.16 1.4h-3.45l3.7 5H49L47.6 32s.9-1.15 1.23-2.75c.73-3.46-1-6.33-4.83-6.26l-.44.02Z" fill="#040404"/><path d="M8.38 23 6 34h2.95l.83-4h1.1c.8 0 1.63-.02 2.4-.2a4.01 4.01 0 0 0 2.49-1.74c.02 0-1.3 5.94-1.3 5.94h8.05l.43-2h-5.08l.54-2.5h4.63l.45-2h-4.63l.5-2.5h7.08l-1.9 9h3l1.91-9h2.8l.43-2H16.85s-.58 2.76-.6 2.8c0 .03-.02 0-.02-.05-.26-2.93-3.55-2.74-5.73-2.75H8.38Zm3.86 2.04c.63.11 1 .62 1.03 1.26.06 1.05-.6 1.57-1.84 1.7H10.25l.62-3h.58c.37 0 .66.01.79.04Z" fill="#EE631C"/></svg>