<!-- by TradingView --><svg width="56" height="56" viewBox="0 0 56 56" xmlns="http://www.w3.org/2000/svg"><path fill="#00BF8F" d="M0 0h56v56H0z"/><path d="M48 29.78v-9.55c0-.15-.1-.23-.25-.23H44.7c-.15 0-.23.08-.24.23l-.2 9.5c-.01.16.06.27.22.27h3.26c.15 0 .26-.07.26-.22ZM46.06 34c.8 0 1.94-.32 1.94-1.33 0-1.02-1.18-1.36-1.97-1.36-.78 0-2.03.3-2.03 1.3 0 1.06 1.24 1.4 2.06 1.39ZM21.7 34c.15 0 .23-.08.24-.22L23 20.23c0-.15-.07-.22-.22-.23h-3.25c-.16 0-.25.07-.25.22l-.67 8.55-1.53-6.6c-.03-.11-.1-.17-.23-.17h-2.72c-.11 0-.18.06-.2.18l-1.62 6.59-.6-8.55c-.01-.14-.09-.22-.24-.22H8.24c-.16 0-.24.08-.24.24L9.3 33.8c.01.13.08.2.22.2h3.78c.12 0 .2-.05.24-.17l1.95-5.73 2.03 5.75c.04.1.12.16.24.15h3.94Zm17.61-6.6.02 3.29-.5.04c-1.14 0-1.72-.5-1.72-1.49 0-1.2.73-1.81 2.2-1.84Zm3.6 4.48c.08-2.7.1-5.57.08-8.6 0-.17-.08-.26-.24-.26L39.5 23c-.16 0-.24.08-.24.23v.73a5.63 5.63 0 0 0-4.7 1.14A4.42 4.42 0 0 0 33 28.69c0 1.43.44 2.59 1.33 3.48.88.9 2.03 1.34 3.46 1.34a4.8 4.8 0 0 0 1.58-.25v1.39c0 1.13-.78 1.7-2.32 1.7a4.72 4.72 0 0 1-.67-.07.47.47 0 0 0-.1-.01c-.18 0-.28.08-.28.24v3.01c0 .1.06.19.18.24.4.17.81.25 1.55.25 1.27 0 2.34-.35 3.22-1.04a4.59 4.59 0 0 0 1.66-2.88c.11-.57.18-1.27.22-2.1l.08-2.1Zm-13.86-1.72-.6-.03c-1.35 0-2.02.38-2.02 1.14 0 .65.49.97 1.47.97.34 0 .69-.03 1.04-.1l.11-1.98Zm3.04-2.47a205.67 205.67 0 0 1-.38 7.06c-.03.15-.11.23-.25.23l-2.44.02c-.17 0-.26-.08-.26-.25l.02-.26.04-.68c-.8.29-1.63.43-2.47.43a4.6 4.6 0 0 1-2.61-.66 2.65 2.65 0 0 1-1.16-2.35c0-1.2.64-2.09 1.9-2.67a8.47 8.47 0 0 1 4.69-.55c0-.32.02-.5.02-.52a1.27 1.27 0 0 0-1.27-1.3c-.46 0-.81.17-1.06.5-.24.34-.38.51-.41.52l-2.85.4c-.2.02-.3-.06-.3-.24a4.53 4.53 0 0 1 1.65-2.49c.78-.59 1.7-.88 2.75-.88 2.93 0 4.4 1.23 4.4 3.7Z" fill="#fff"/></svg>