<!-- by TradingView --><svg xmlns="http://www.w3.org/2000/svg" width="56" height="56" viewBox="0 0 56 56"><path fill="#F0F3FA" d="M0 0h56v56H0z"/><path d="M47.98 23.44c.1-.48.66-1.44 2.21-1.44 1.94 0 1.99 2.85 1.65 3.67a3.93 3.93 0 0 0-.3 1.59c-.19.35-.62 1.21-.86 1.9-.23.7-.42 1.8-.49 2.26L48.82 34a4.3 4.3 0 0 0-2.78.75c.75-1.75 2.29-5.54 2.5-6.75-.6.5-2.93 1.65-7.4 2.21-.25 1.38-1.05 4.18-2.27 4.34-1.52.2-2.4-2.3-1.91-4.04.23-.83.64-1.7 1.07-2.6.48-1.02.99-2.1 1.3-3.23.62-2.16 1.43-2.36 2.27-2.3.83.04.78 1.16.39 1.73a6.8 6.8 0 0 0-.64 3.37c2.2 0 6.78-.24 7.47-1.11.22-.65.53-2.04 0-2.44-.28.05-.84 0-.84-.5zm-43 .25c-2 .31-.48 1.5.52 2.07l4.54-.2c-.62.7-1.8 4.58-2.32 6.44-.32.7-.42 2.26 1.66 2.8 2.08.53 2.3-.1 2.16-.48-.14-.25-.38-1.35-.25-3.84a8.9 8.9 0 0 1 2.27-5.25c.89-.04 3-.16 4.35-.34 1.69-.22.58-1.2-.53-2.1-.88-.71-1.79-.11-2.13.28h-3.71a90.7 90.7 0 0 1-6.56.62zm20.49 2.4c1.22-1.79.1-2.57-.61-2.74-2.74-.25-6.7 4.34-7.86 6.71-.93 1.9-.13 3.2.38 3.61.87.7 2.94 1.32 4.27-1.81 1.1-2.58 1.74-3.3 2.49-4.12.39-.42.8-.88 1.33-1.65zm2.9.43c-.23-.35-.86-.94-1.58-.52.02.35.37.94 1.58.52zm5.12-3.43a17.9 17.9 0 0 0-6.82-.12l2.79 2.72c1.46.65 4.41 1.95 4.53 1.95.83.69-.11 1.37-.69 1.62l-1.08 1.67h-.55l-.54.57c-.57.03-2.25.05-4.46-.14-2.2-.2-2.76 2.24-2.76 3.48 8.78-1.15 12.07-5.56 12.62-7.63.39-1.11.32-3.5-3.04-4.12z" fill="#ED0013"/></svg>