<!-- by TradingView --><svg width="56" height="56" viewBox="0 0 56 56" xmlns="http://www.w3.org/2000/svg"><path fill="url(#aukssec42)" d="M0 0h56v56H0z"/><path d="M45 28a17 17 0 1 1-34 0 17 17 0 0 1 34 0Z" fill="url(#bukssec42)"/><path d="M44 28a16 16 0 1 1-32 0 16 16 0 0 1 32 0Z"/><path fill-rule="evenodd" d="M28 39.09a11.09 11.09 0 1 0 0-22.18 11.09 11.09 0 0 0 0 22.18Zm0 .5a11.59 11.59 0 1 0 0-23.18 11.59 11.59 0 0 0 0 23.18Z" fill="#A1A1A1"/><path d="M28.52 36.78a11.5 11.5 0 0 1-8.13-3.13c6.75 3.68 13.22 1.4 15.61-.19-.81 1.07-3.44 3.22-7.48 3.32Z" fill="url(#cukssec42)"/><path d="M28.2 35.2c-8.62.18-12.66-8.94-13.6-13.52l12.71 7.1.88 6.42Z" fill="url(#dukssec42)"/><path d="M28 35.12c8.62.19 12.65-8.93 13.6-13.52l-12.72 7.1-.88 6.42Z" fill="url(#eukssec42)"/><path d="m27.9 26.37 2.4-.5-1.21 1.93c-.37.48-1.39.96-1.82.22-.57-.98.18-1.5.63-1.65Z" fill="url(#fukssec42)"/><path d="m17.97 20.9-1.94-1.57.78-.92c.12-.15.26-.26.4-.33a.81.81 0 0 1 .89.13c.14.11.23.24.28.39.05.14.06.3.02.46-.04.16-.12.31-.24.46l-.5.58-.4-.33.32-.4a.49.49 0 0 0 .1-.2.3.3 0 0 0 0-.18.34.34 0 0 0-.12-.15.33.33 0 0 0-.17-.08.3.3 0 0 0-.18.03.49.49 0 0 0-.16.14l-.07.06 1.52 1.22-.53.68Z" fill="url(#gukssec42)"/><path d="M20.36 18.33 19 16.22l.72-.49.49.73.46-.33-.46-.7.74-.48 1.37 2.11-.74.48-.48-.75-.47.32.47.74-.73.48Z" fill="url(#hukssec42)"/><path d="m27.71 15.66.12-2.45 1.73.08-.03.64-.81-.05-.02.25.72.03-.02.65-.73-.04-.02.25.81.05-.03.68-1.72-.09Z" fill="url(#iukssec42)"/><path d="m34.15 14.48-.9 2.37-.77-.3-.27-1.5-.01-.01-.48 1.24-.84-.33.9-2.37.78.32.29 1.5h.02l.47-1.23.8.3Z" fill="url(#jukssec42)"/><path d="m36.76 16.1-1.43 2.05-.76-.54 1.44-2.04.75.54Z" fill="url(#kukssec42)"/><path d="m38.99 18.05-.26.68.7-.18.67.75-1.54.21-.37 1.53-.64-.75.25-.7-.78.13-.67-.75 1.55-.2.4-1.5.69.78Z" fill="url(#lukssec42)"/><path d="m16.63 33.74.32.54-.68.92v.01l1.14-.17.33.54-1.61.96-.26-.42.93-.56v-.01l-1.14.2-.15-.26.7-.91v-.01l-.93.56-.26-.43 1.6-.96Z" fill="url(#mukssec42)"/><path d="m21.36 39.43.29-.48 1.3.74-.28.48-.38-.2-.62 1.12-.55-.31.61-1.13-.37-.22Z" fill="url(#nukssec42)"/><path d="m28 42.48-.05-1.78.9-.03c.15 0 .28.02.4.06a.6.6 0 0 1 .28.2c.07.09.1.2.1.32.01.13-.02.23-.08.32a.6.6 0 0 1-.27.21c-.12.05-.26.08-.41.08l-.54.02-.01-.37.42-.02c.07 0 .12-.01.17-.03a.22.22 0 0 0 .1-.07.19.19 0 0 0 .04-.12c0-.05-.02-.1-.04-.12a.21.21 0 0 0-.12-.07.54.54 0 0 0-.17-.02l-.12.02.05 1.39H28Zm1.2-.86.55.8-.7.05-.54-.8.69-.05Z" fill="url(#oukssec42)"/><path d="m37.99 38.55-1.23-1.27.64-.63c.11-.1.23-.18.34-.23a.6.6 0 0 1 .34-.04c.1.02.2.08.3.17.08.1.13.2.15.3a.6.6 0 0 1-.07.33c-.05.12-.13.23-.25.34l-.38.38-.26-.27.3-.3a.6.6 0 0 0 .1-.13.22.22 0 0 0 .04-.13.19.19 0 0 0-.06-.11.19.19 0 0 0-.11-.06c-.04 0-.09 0-.13.02a.54.54 0 0 0-.14.1l-.08.1.97 1-.47.43Zm.3-1.43.95.22-.49.5-.93-.22.48-.5Z" fill="url(#pukssec42)"/><path d="m35.4 40.55-.6.37-.42-1.9.6-.38 1.5 1.25-.57.36-.86-.86.34 1.16Zm-.59-.5.9-.54.27.38-.9.55-.27-.38Z" fill="url(#qukssec42)"/><path d="M39.85 34.24c-.13-.08-.25 0-.29.14-.02.08 0 .16.1.18.05 0 .13-.03.23-.13l.04-.03c.08-.08.16-.13.23-.17a.64.64 0 0 1 .21-.07l.2.01a.56.56 0 0 1 .36.36c.03.1.03.2 0 .32-.04.12-.1.24-.2.37s-.2.23-.31.3a.6.6 0 0 1-.35.1.67.67 0 0 1-.37-.15l.3-.39c.08.06.24.08.31-.01.07-.1.09-.17.07-.23 0-.14-.32.08-.38.14a.7.7 0 0 1-.35.18.61.61 0 0 1-.43-.11.5.5 0 0 1-.19-.26.64.64 0 0 1 0-.35c.03-.12.09-.24.18-.36.1-.12.2-.21.3-.27a.56.56 0 0 1 .63.04l-.3.4Z" fill="url(#rukssec42)"/><path fill-rule="evenodd" d="M25.13 16.1c.7-.3 1.05-1.08.78-1.74-.28-.67-1.08-.96-1.78-.67-.71.3-1.06 1.07-.78 1.74.27.66 1.07.96 1.78.66Zm-.33-.79c.25-.1.37-.37.27-.6-.1-.24-.37-.34-.62-.24-.24.1-.37.38-.27.6.1.24.38.34.62.24Z" fill="url(#sukssec42)"/><path fill-rule="evenodd" d="M18.64 39.1c.55.22 1.16-.03 1.36-.55.2-.51-.08-1.1-.63-1.32-.55-.22-1.16.03-1.36.55-.2.51.08 1.1.63 1.32Zm.24-.6c.2.07.4-.02.47-.2.07-.18-.02-.39-.22-.46-.19-.08-.4 0-.47.19-.07.18.03.39.22.46Z" fill="url(#tukssec42)"/><path fill-rule="evenodd" d="M25.06 42.32c.6 0 1.08-.43 1.1-.99 0-.55-.47-1.01-1.06-1.02-.6-.01-1.08.43-1.09.98 0 .56.46 1.02 1.05 1.03Zm.02-.66c.2 0 .37-.15.37-.34 0-.2-.16-.35-.36-.36-.2 0-.38.15-.38.35 0 .19.16.35.37.35Z" fill="url(#uukssec42)"/><path d="M32.36 39.87c-.15.01-.3.05-.44.13-.53.27-.75.9-.5 1.38.26.5.9.68 1.42.4l.13-.07-.24-.73a.38.38 0 0 1-.19.22c-.18.1-.4.03-.5-.14-.08-.17 0-.39.18-.48a.38.38 0 0 1 .38.02l-.24-.73Z" fill="url(#vukssec42)"/><defs><linearGradient id="aukssec42" x1="10.42" y1="9.71" x2="68.15" y2="76.02" gradientUnits="userSpaceOnUse"><stop stop-color="#1A1E21"/><stop offset="1" stop-color="#06060A"/></linearGradient><linearGradient id="bukssec42" x1="28" y1="11" x2="28" y2="45" gradientUnits="userSpaceOnUse"><stop stop-color="#F8F8F8"/><stop offset=".54" stop-color="#616161"/><stop offset="1" stop-color="#3B3B3B"/></linearGradient><linearGradient id="cukssec42" x1="22" y1="35.12" x2="34.24" y2="35.12" gradientUnits="userSpaceOnUse"><stop stop-color="#525252"/><stop offset=".41" stop-color="#fff"/></linearGradient><linearGradient id="dukssec42" x1="24.74" y1="29.64" x2="20.16" y2="33.89" gradientUnits="userSpaceOnUse"><stop stop-color="#fff"/><stop offset=".96" stop-color="#1A1A1A"/></linearGradient><linearGradient id="eukssec42" x1="28.84" y1="29.02" x2="32.91" y2="33.47" gradientUnits="userSpaceOnUse"><stop stop-color="#3A3A3A"/><stop offset=".63" stop-color="#F1F1F1"/><stop offset="1" stop-color="#fff"/></linearGradient><linearGradient id="fukssec42" x1="27.43" y1="26.93" x2="28.68" y2="28.4" gradientUnits="userSpaceOnUse"><stop stop-color="#474747"/><stop offset="1" stop-color="#fff"/></linearGradient><linearGradient id="gukssec42" x1="16.71" y1="18.49" x2="18.5" y2="20.11" gradientUnits="userSpaceOnUse"><stop/><stop offset=".26" stop-color="#fff"/></linearGradient><linearGradient id="hukssec42" x1="19.96" y1="15.57" x2="21.34" y2="17.69" gradientUnits="userSpaceOnUse"><stop/><stop offset=".22" stop-color="#fff"/></linearGradient><linearGradient id="iukssec42" x1="28.7" y1="13.25" x2="28.58" y2="15.7" gradientUnits="userSpaceOnUse"><stop/><stop offset=".18" stop-color="#fff"/></linearGradient><linearGradient id="jukssec42" x1="32.97" y1="14.02" x2="32.06" y2="16.41" gradientUnits="userSpaceOnUse"><stop/><stop offset=".19" stop-color="#fff"/></linearGradient><linearGradient id="kukssec42" x1="36.38" y1="15.84" x2="34.95" y2="17.88" gradientUnits="userSpaceOnUse"><stop/><stop offset=".19" stop-color="#fff"/></linearGradient><linearGradient id="lukssec42" x1="39.2" y1="18.29" x2="37.27" y2="20" gradientUnits="userSpaceOnUse"><stop/><stop offset=".18" stop-color="#fff"/></linearGradient><linearGradient id="mukssec42" x1="17.18" y1="34.66" x2="15.57" y2="35.62" gradientUnits="userSpaceOnUse"><stop offset=".75" stop-color="#fff"/><stop offset="1"/></linearGradient><linearGradient id="nukssec42" x1="22.3" y1="39.32" x2="21.39" y2="40.93" gradientUnits="userSpaceOnUse"><stop offset=".74" stop-color="#fff"/><stop offset="1"/></linearGradient><linearGradient id="oukssec42" x1="28.82" y1="40.67" x2="28.88" y2="42.47" gradientUnits="userSpaceOnUse"><stop offset=".78" stop-color="#fff"/><stop offset="1"/></linearGradient><linearGradient id="pukssec42" x1="37.38" y1="36.67" x2="38.63" y2="37.97" gradientUnits="userSpaceOnUse"><stop offset=".77" stop-color="#fff"/><stop offset="1"/></linearGradient><linearGradient id="qukssec42" x1="34.69" y1="38.83" x2="35.65" y2="40.41" gradientUnits="userSpaceOnUse"><stop offset=".76" stop-color="#fff"/><stop offset="1"/></linearGradient><linearGradient id="rukssec42" x1="39.2" y1="34.1" x2="40.72" y2="35.24" gradientUnits="userSpaceOnUse"><stop offset=".83" stop-color="#fff"/><stop offset="1"/></linearGradient><linearGradient id="sukssec42" x1="24.06" y1="13.71" x2="25.1" y2="16.09" gradientUnits="userSpaceOnUse"><stop/><stop offset=".2" stop-color="#fff"/></linearGradient><linearGradient id="tukssec42" x1="19.71" y1="37.43" x2="18.3" y2="38.9" gradientUnits="userSpaceOnUse"><stop offset=".77" stop-color="#fff"/><stop offset="1"/></linearGradient><linearGradient id="uukssec42" x1="25.49" y1="40.38" x2="24.67" y2="42.24" gradientUnits="userSpaceOnUse"><stop offset=".77" stop-color="#fff"/><stop offset="1"/></linearGradient><linearGradient id="vukssec42" x1="31.75" y1="40.12" x2="32.64" y2="41.91" gradientUnits="userSpaceOnUse"><stop offset=".67" stop-color="#FBFBFB"/><stop offset="1"/></linearGradient></defs></svg>