<!-- by TradingView --><svg width="56" height="56" viewBox="0 0 56 56" xmlns="http://www.w3.org/2000/svg"><path fill="#F0F3FA" d="M0 0h56v56H0z"/><path d="M8.03 19H12v-1h32v1h4v16.8H8L8.03 19Z" fill="url(#annupmnbp)"/><path d="M47 26.5h1v.5h-1v8.06H9V27h-.97v-.5H9V20h38v6.5Z" fill="#235B4E"/><path d="M12 32h32v8H12v-8Z" fill="url(#bnnupmnbp)"/><path d="M34 34h.49v1.73l.88-1.73h.58l-1 1.9L36 38h-.63l-.88-1.87V38H34v-4ZM29 34h.6l.94 2.99V34H31v4h-.6l-.94-2.99V38H29v-4ZM25.42 34h.51l.91 4h-.51l-.2-1h-.94l-.2 1h-.49l.92-4Zm.24.8-.34 1.65H26l-.35-1.65ZM20 33h1.25c.47 0 1.16.2 1.16 1.28 0 .58-.3 1-.71 1.12v.03c.5.07.81.5.81 1.12 0 1.25-.81 1.45-1.26 1.45H20v-5Zm.71 2.01h.3c.3 0 .66-.1.66-.61 0-.6-.37-.61-.68-.61h-.28V35Zm0 2.2h.35c.34 0 .74-.12.74-.68 0-.66-.37-.76-.74-.76h-.35v1.44Z" fill="#235B4E"/><path d="M12.73 23h1c.87 0 1.64.31 1.64 1.5 0 1.18-.67 1.6-1.52 1.6h-.32V28h-.8v-5Zm.8 2.32h.27c.4 0 .75-.16.75-.76 0-.57-.35-.78-.75-.78h-.27v1.54ZM17 25h.57c.56 0 1.22-.02 1.22.81 0 .34-.2.64-.54.69.15.02.23.17.27.3l.42 1.2h-.59l-.3-.94c-.07-.22-.14-.3-.36-.3h-.17V28H17v-3Zm.54 1.26h.17c.27 0 .57-.04.57-.4 0-.37-.3-.39-.57-.39h-.17v.8ZM31.16 25c.57 0 1.23-.02 1.23.81 0 .35-.2.65-.54.69.15.02.22.17.27.3l.42 1.2h-.59l-.32-.97c-.07-.21-.14-.3-.37-.3H31V28h-.53v-3h.7ZM31 26.26h.29c.27 0 .56-.04.56-.4 0-.37-.3-.39-.56-.39H31v.8ZM34.6 25c.56 0 1.23-.02 1.23.81 0 .35-.2.65-.54.69.14.02.22.17.26.3l.42 1.2h-.59l-.31-.97c-.08-.21-.15-.3-.37-.3h-.18V28H34v-3h.6Zm-.05 1.26h.17c.27 0 .56-.04.56-.4 0-.37-.3-.39-.56-.39h-.17v.8ZM22.4 25v.47h-.93v.73h.86v.47h-.86v.84h.96V28H21v-3h1.41Zm6.01 0v.47h-.94v.73h.86v.47h-.86v.84h.96V28H27v-3h1.42Zm11.05 0v.47h-.94v.73h.86v.47h-.86v.84h.96V28H38v-3h1.47ZM24 25h1.33v.47h-.86v.73h.84v.47h-.81V28H24v-3Zm17 0h.64c.72 0 1.33.3 1.33 1.5 0 1.18-.64 1.5-1.33 1.5H41v-3Zm.47 2.5h.27c.4 0 .77-.36.77-1.02 0-.65-.37-1.03-.77-1.03h-.27v2.06Z" fill="#fff"/><defs><linearGradient id="annupmnbp" x1="13.98" y1="13.13" x2="42.7" y2="41.22" gradientUnits="userSpaceOnUse"><stop stop-color="#F3F6F6"/><stop offset=".1" stop-color="#D4DDDD"/><stop offset=".2" stop-color="#A1B5B6"/><stop offset=".3" stop-color="#8AA3A4"/><stop offset=".5" stop-color="#fff"/><stop offset=".8" stop-color="#8AA3A4"/><stop offset="1" stop-color="#fff"/></linearGradient><linearGradient id="bnnupmnbp" x1="17.98" y1="26.05" x2="37.9" y2="46.09" gradientUnits="userSpaceOnUse"><stop stop-color="#F3F6F6"/><stop offset=".1" stop-color="#D4DDDD"/><stop offset=".2" stop-color="#A1B5B6"/><stop offset=".3" stop-color="#8AA3A4"/><stop offset=".5" stop-color="#fff"/><stop offset=".8" stop-color="#8AA3A4"/><stop offset="1" stop-color="#fff"/></linearGradient></defs></svg>