<!-- by TradingView --><svg width="56" height="56" viewBox="0 0 56 56" xmlns="http://www.w3.org/2000/svg"><path fill="#F0F3FA" d="M0 0h56v56H0z"/><path d="M12 19.97v5.18c0 .72.36 1.13 1.02.8l14.95-7.48L38 23.45v1.87l-2-1v7.07l7.46-3.74c.33-.17.54-.5.54-.86v-6.81c0-.36-.2-.68-.52-.85l-15.04-8.01c-.3-.16-.65-.16-.95 0l-14.98 8a.96.96 0 0 0-.51.85Z" fill="#012B5D"/><path d="M44 36.03v-5.71c0-.72-.75-.71-1.4-.39l-14.57 7.6L18 32.55v-1.87l2 1V24.6l-7.46 3.74a.96.96 0 0 0-.54.86v6.81c0 .36.2.68.52.85l15.04 8.01c.3.16.65.16.95 0l14.98-8c.31-.18.51-.5.51-.85Z" fill="#012B5D"/><path d="m28.08 35.35-1.67-.81.09-12.79 1.58-.75 1.42.75v12.86l-1.42.74ZM22 23.75v8.75l3 1.4V22.4l-3 1.36Zm12 .21v8.37l-3 1.52V22.43l3 1.53Z" fill="#EE3324"/></svg>