<!-- by TradingView --><svg xmlns="http://www.w3.org/2000/svg" width="56" height="56"><path fill="#3F136B" d="M0 0h56v56H0z"/><path d="M9.1 30H7v7h.5v-3h1.31c1.58 0 2.69-.66 2.69-2.03 0-1.75-1.55-1.97-2.4-1.97zm1.9 1.97c0 1.15-.86 1.53-2.31 1.53H7.5v-3h1.14c1.47 0 2.36.3 2.36 1.47zM21.5 30H17v7h4.5v-.5h-4v-2.77H21v-.46h-3.5V30.5h4V30zm8 0h.5v7h-.5v-7zm5.16 0C32.48 30 31 31.34 31 33.49c0 2.14 1.43 3.51 3.55 3.51H37v-3.5h-2.4v.5h1.9v2.5h-1.9c-1.89 0-3.1-1.12-3.1-3 0-1.87 1.27-3 3.17-3 .9 0 1.46.38 1.88.76l.37-.45a3.3 3.3 0 00-2.26-.81zm-20.82.5h-2.5L11 30h2.84c1.29 0 2.16.72 2.16 2 0 1.1-.81 2-2.05 2h-.33s.15.23 2.38 3h-.69c-.32-.4-2.5-3.08-2.82-3.5h1.35c.8 0 1.66-.53 1.66-1.5 0-1.14-.96-1.5-1.66-1.5zM44.5 30H44v7h.5v-6.25l4 6.25h.5v-7h-.5v6.22l-4-6.22zm-16 5.53A3.6 3.6 0 0125.6 37a3.54 3.54 0 01-3.6-3.5c0-1.93 1.6-3.5 3.59-3.5 1.2 0 2.26.58 2.91 1.47l-.44.26a3.16 3.16 0 00-2.47-1.23 3.04 3.04 0 00-3.09 3c0 1.72 1.44 3 3.09 3 .99 0 1.9-.53 2.47-1.22l.44.25zM43 33.25h-5v.5h5v-.5zm-5 3.25h5v.5h-5v-.5zm5-6.5h-5v.5h5V30zm-6.38-16.86l.11.1L37 13h-.38v.14zm-1.58.63l-.43.14V13h.49v.7l.17-.07V13h.49v.48l-.23.1.46.44-.35.35-.6-.6zm-1.42.51l-.36.12V13h.49v1.22l.18-.06V13h.49v.97l-.3.12.88.87-.35.35-1.03-1.03zm-1.41.53l-.3.1V13h.49v1.73l.19-.07V13h.48v1.47l-.34.15 1.35 1.27-.35.35-1.52-1.43zm-1.36.5l-.29.1V13h.49v2.22l.18-.06V13h.49v1.98l-.36.14 1.74 1.75-.35.35-1.9-1.91zm-1.32.5l-.3.1V13h.48v2.72l.17-.06V13h.5v2.49l-.34.12 2.08 2.24-.35.35-2.24-2.4zm-1.32.48l-.34.12V13h.49v3.22l.19-.07V13h.48v2.99l-.33.12 2.5 2.67-.36.35-2.63-2.84zm-.66.65l-.2.51 2.5 2.67.35-.35-2.65-2.83zm-.9 2.3l.15-.38 2.07 2.25.35-.35L27 18.34l-.16.4H24v.5h2.65zm-2.65.7h2.37l.1-.25 1.78 2.03-.35.35-1.63-1.85-.08.2H24v-.49zm3.36 2.68l-1.42-1.54.02-.06H24v.49h1.76l-.03.07 1.28 1.39.35-.35zm-2.18.37l.84.96.35-.35-.97-1.1.14-.36H24v.49h1.32l-.14.36zm-.72 1.85l.16-.42.44.5.35-.36-.6-.65-.16.44H24v.49h.46zM24 26l.3-.38-.11-.1H24V26zm0-12.7h.32V13H24v.3zm1.01.64h-1v.48h1.52l.14.13V13h-.49v1.1l-.17-.16zm-1 3.63h3.3l-.2.48h-3.1v-.48zm1.07 5.68H24v.48h.89l.19-.48zM24 16.38h3.67l-.47-.44V13h.48v3.38h.1l-.2.49H24v-.49zm2.37-1.18H24v.49h2.88l.12.1V13h-.47v2.35l-.16-.15zM24.5 13v.45l.49.43V13h-.5zm1.34 0v1.67l.49.43V13h-.49zm10.1.42V13h.49v.24l-.5.18z" fill="#fff"/></svg>