<!-- by TradingView --><svg xmlns="http://www.w3.org/2000/svg" width="56" height="56" viewBox="0 0 56 56"><path fill="#F0F3FA" d="M0 0h56v56H0z"/><path d="M43.18 23.76a6.35 6.35 0 0 0-8.77 0L30 28l4.4 4.24a6.35 6.35 0 0 0 8.78 0 5.86 5.86 0 0 0 0-8.48zm-2.2 6.4a3.22 3.22 0 0 1-4.46 0L34.28 28l2.24-2.17a3.22 3.22 0 0 1 4.46 0 3 3 0 0 1 0 4.34z" fill="#8B4098"/><path d="M21.6 23.75c0 .04 0 .04 0 0a6.37 6.37 0 0 0-8.78 0 5.87 5.87 0 0 0 0 8.5 6.37 6.37 0 0 0 8.77 0L26 28.02l-4.4-4.27zm-2.12 6.43a3.22 3.22 0 0 1-4.46 0 2.98 2.98 0 0 1 0-4.32 3.22 3.22 0 0 1 4.46 0l2.24 2.16-2.24 2.16z" fill="#007BAA"/><path d="M32.25 12.82a5.88 5.88 0 0 0-8.5 0 6.37 6.37 0 0 0 0 8.77L27.98 26l4.23-4.4a6.33 6.33 0 0 0 .04-8.78zm-2.07 6.66l-2.16 2.2-2.15-2.2a3.22 3.22 0 0 1 0-4.46 2.98 2.98 0 0 1 4.31 0 3.22 3.22 0 0 1 0 4.46z" fill="#E10F79"/><path d="M32.24 34.4L28 30l-4.24 4.4a6.36 6.36 0 0 0 0 8.78 5.9 5.9 0 0 0 8.52 0 6.4 6.4 0 0 0-.04-8.77zm-2.08 6.58a3 3 0 0 1-4.33 0 3.22 3.22 0 0 1 0-4.46L28 34.28l2.16 2.24a3.22 3.22 0 0 1 0 4.46z" fill="#13B794"/></svg>