<!-- by TradingView --><svg width="56" height="56" viewBox="0 0 56 56" xmlns="http://www.w3.org/2000/svg"><path fill="#F0F3FA" d="M0 0h56v56H0z"/><path d="M7.02 24C8.8 24 10 25.21 10 27c0 1.73-1.2 3-2.98 3H5v2.86c0 .1-.04.14-.13.14h-.74c-.09 0-.13-.05-.13-.14v-8.72c0-.1.04-.14.13-.14h2.9Zm-.1 5C8.28 29 9 28.3 9 27s-.72-2-2.08-2H5v4h1.92ZM13 26.31c.45-.2.91-.31 1.44-.31 1.64 0 2.56 1.16 2.56 2.74v4.12c0 .1-.05.14-.14.14h-.73c-.09 0-.13-.05-.13-.14v-4.08c0-1.08-.48-1.78-1.62-1.78-.51 0-1 .05-1.38.26v5.6c0 .1-.05.14-.14.14h-.73c-.09 0-.13-.05-.13-.14v-8.72c0-.1.04-.14.13-.14h.73c.1 0 .14.05.14.14v2.17ZM30 26.31c.45-.2.91-.31 1.44-.31 1.64 0 2.56 1.16 2.56 2.74v4.12c0 .1-.05.14-.14.14h-.73c-.09 0-.13-.05-.13-.14v-4.08c0-1.08-.48-1.78-1.62-1.78-.51 0-1 .05-1.38.26v5.6c0 .1-.05.14-.14.14h-.73c-.09 0-.13-.05-.13-.14v-8.72c0-.1.04-.14.13-.14h.73c.1 0 .14.05.14.14v2.17ZM18.35 26.68A3.77 3.77 0 0 1 20.6 26c1.51 0 2.39 1.06 2.39 2.52v3.9c0 .08-.04.14-.1.16a6.3 6.3 0 0 1-2.32.42c-1.34 0-2.58-.66-2.58-2.13 0-1.45 1.28-1.87 2.58-1.87.41 0 .88-.01 1.42.1v-.62c0-.93-.45-1.48-1.42-1.48-.64 0-1.26.15-1.7.44-.02.02-.05.03-.09.03-.04 0-.07-.02-.1-.07l-.34-.54c-.04-.08-.04-.14 0-.18Zm.63 4.19c0 .88.85 1.13 1.6 1.13.48 0 .94-.1 1.42-.25V30c-.51-.1-.97-.1-1.42-.1-1.06 0-1.6.24-1.6.97ZM26 30.76c0 .75.47 1.24 1.24 1.24h.6c.11 0 .16.04.16.13v.7c0 .09-.04.16-.13.17h-.68c-1.32 0-2.19-.83-2.19-2.16v-5.7c0-.1.05-.14.15-.14h.71c.08 0 .12.04.14.13V27h1.86c.1 0 .14.04.14.13v.72c0 .1-.05.15-.14.15H26v2.76ZM42 30.45c0 1.69-1.46 2.55-3 2.55s-3-.87-3-2.55v-1.87c0-1.67 1.46-2.58 3-2.58s3 .91 3 2.58v1.87Zm-5 0c0 1.08 1 1.55 2 1.55s2-.47 2-1.55v-1.87C41 27.5 40 27 39 27s-2 .5-2 1.58v1.87ZM47.78 26.65a2.78 2.78 0 0 1 1.8-.65c1.56 0 2.42 1.24 2.42 2.7v4.15c0 .1-.04.15-.13.15h-.73c-.1 0-.14-.05-.14-.15l.04-4.17c0-1.09-.5-1.68-1.48-1.68a2 2 0 0 0-1.29.43c.15.36.23.78.23 1.26v4.16c0 .1-.05.15-.13.15h-.7c-.09 0-.13-.05-.13-.15v-4.17c0-1.13-.5-1.68-1.43-1.68-.4 0-.72.06-1.11.22v5.63c0 .1-.05.15-.14.15h-.73c-.09 0-.13-.05-.13-.15V26.7c0-.09.03-.15.1-.18a4.35 4.35 0 0 1 2.01-.52c.69 0 1.25.22 1.67.65Z" fill="#2C7ABC"/></svg>