<!-- by TradingView --><svg xmlns="http://www.w3.org/2000/svg" width="56" height="56"><path fill="url(#agklzwszf)" d="M0 0h56v56H0z"/><path d="M28 46c-9.93 0-18-8.07-18-18s8.07-18 18-18 18 8.07 18 18-8.07 18-18 18zm0-34c-8.89 0-16 7.07-16 15.96C12 36.86 19.11 44 28 44s16-7.15 16-16.04C44 19.11 36.89 12 28 12z" fill="#0083FE"/><path d="M33 28c-.59 0-1 .48-1 .94v4.47l-3.14-2.92c-.35-.35-.51-.49-.86-.49s-.51.14-.86.49L24 33.4V27h6.2c2.08 0 3.8-1.9 3.8-4 0-2.06-1.68-4-3.8-4h-7.34a.87.87 0 00-.86.86v16.29c0 .46.32.85.79.85.35 0 .58-.12.93-.47l4.28-4 4.16 4c.35.35.6.47.96.47.47 0 .88-.39.88-.86v-7.16a.97.97 0 00-1-.98zm-9-7h5.83c1.21 0 2.17.9 2.17 2s-.96 2-2.17 2H24v-4z" fill="#fff"/><defs><linearGradient id="agklzwszf" x1="10.42" y1="9.71" x2="68.15" y2="76.02" gradientUnits="userSpaceOnUse"><stop stop-color="#1A1E21"/><stop offset="1" stop-color="#06060A"/></linearGradient></defs></svg>