<!-- by TradingView --><svg width="56" height="56" viewBox="0 0 56 56" xmlns="http://www.w3.org/2000/svg"><path fill="#F0F3FA" d="M0 0h56v56H0z"/><path d="M45.03 25h.43c.54.14 1.01.6 1.04 1.18.06.7-.57 1.38-1.29 1.32-.75.01-1.35-.77-1.18-1.49.08-.5.52-.87 1-1.01Z" fill="#38B549"/><path d="M48.1 25.43c.62-.46 1.45-.5 2.18-.35.74.17 1.33.75 1.65 1.44-.46.2-.93.38-1.38.6a1.9 1.9 0 0 0-.74-.72c-.3-.12-.68-.08-.88.2-.11.11-.1.29-.1.44.07.1.14.19.24.24.46.27 1 .32 1.48.53.38.16.73.38 1 .7.29.33.44.77.45 1.2v.54-.19c-.09 1.11-1.12 1.94-2.17 1.94h-.46c-.35-.02-.7-.1-1.03-.26-.61-.3-1.05-.9-1.34-1.52l1.45-.58c.16.26.32.54.58.72.36.27.9.3 1.25-.01.18-.16.28-.5.08-.69-.31-.31-.76-.43-1.17-.56-.65-.18-1.33-.5-1.69-1.12-.45-.85-.2-2.02.6-2.55ZM4 25h2.9c.86.01 1.66.6 1.96 1.39.15.4.17.85.11 1.27-.1.79-.7 1.48-1.44 1.73-.6.2-1.23.09-1.84.12V32H4v-7Zm1.69 1.52V28c.36 0 .73-.03 1.09-.07.45-.05.7-.63.49-1.01-.12-.2-.31-.36-.55-.38-.34-.03-.69 0-1.03-.02ZM10 25h1.57v2.6h1.86V25H15v7h-1.57v-2.77h-1.86V32H10v-7ZM15.5 32c.81-2.33 1.59-4.67 2.38-7h1.24l2.38 7h-1.69l-.29-1h-2.01c-.11.34-.2.66-.32 1H15.5Zm2.4-2.47h1.24l-.6-2.18c-.22.72-.42 1.45-.63 2.18ZM22 25h2.61c.57 0 1.12.31 1.47.79.4.49.53 1.17.46 1.8-.05.63-.41 1.2-.93 1.5L27 32l-1.79.01c-.37-.85-.74-1.7-1.13-2.54h-.53V32H22v-7Zm1.55 1.57V28c.34-.01.68.02 1-.02.35-.1.53-.53.45-.88-.04-.28-.27-.53-.55-.53-.3-.02-.6-.02-.9 0ZM26.93 25h1.85c.13.24.17.53.26.79.35 1.04.64 2.1 1 3.13l1.2-3.92h1.89c-.83 2.33-1.62 4.67-2.45 7h-1.33l-2.42-7ZM34.88 25h1.24l2.38 7h-1.7c-.09-.35-.18-.66-.29-1h-2l-.32 1H32.5l2.38-7Zm.03 4.53h1.23l-.6-2.19c-.22.73-.43 1.46-.63 2.2ZM39 25h2.67c.62.02 1.19.41 1.52.95.55.87.51 2.2-.27 2.91-.1.1-.2.16-.31.24.3.66.63 1.3.94 1.96.15.31.28.63.45.93-.6.02-1.19 0-1.78.01-.38-.85-.75-1.7-1.14-2.54h-.53V32H39v-7Zm1.55 1.57V28l.93-.01c.22 0 .38-.2.48-.4.14-.35.02-.88-.37-1-.34-.06-.7-.03-1.04-.02ZM44.5 28H46v4h-1.5c0-1.33.02-2.67 0-4Z" fill="#00AEEF"/></svg>