<!-- by TradingView --><svg xmlns="http://www.w3.org/2000/svg" width="56" height="56" viewBox="0 0 56 56"><path fill="#F0F3FA" d="M0 0h56v56H0z"/><path d="M6 35h2V25H6v10zm19.97-10H22v9.98h2V32h1.76c2.11 0 3.81-1.24 3.81-3.55 0-2.04-1.36-3.45-3.6-3.45zm1.49 3.5c0 .85-.6 1.5-1.64 1.5H24v-3h1.78c1.04 0 1.68.51 1.68 1.5zM42 31.52L37.05 25H35v10h2v-6.52L42.1 35H44V25h-2v6.52zM12.38 25L15 29.23 17.62 25H20v10h-2v-6.8l-3 4.54h-.06L12 28.23v6.75h-2V25h2.38zM48 25v6.53c-.02.93-.77 1.47-1.54 1.47-.42 0-.5 0-.82-.09-.01 0-.03 0-.03.04v1.92l.03.03c.29.07.52.1.82.1 1.7 0 3.54-1.07 3.54-3.39V25h-2zM31 35v-9.96c0-.03.02-.05.05-.03.6.3 1.3.3 1.9 0 .02-.02.05 0 .05.03V35h-2z" fill="#545858"/><path d="M32.56 16.56c0 .32-.26.56-.56.56a.56.56 0 0 1-.56-.56c0-.32.26-.56.56-.56.3 0 .56.26.56.56zm-4.7 1.93c.3 0 .55-.24.55-.56 0-.3-.26-.55-.56-.55-.3 0-.56.23-.56.55 0 .3.26.56.56.56zm4.89.75a.75.75 0 1 1-1.5 0 .75.75 0 0 1 1.5 0zM33 23a1 1 0 0 1-1 1 1 1 0 0 1-1-1 1 1 0 0 1 1-1 1 1 0 0 1 1 1zm-3.38-2.16a.75.75 0 1 0 0-1.5.75.75 0 0 0 0 1.5zm6.8 1.39a.75.75 0 1 1-1.5 0 .75.75 0 0 1 1.5 0zm2.03-.11c.3 0 .55-.24.55-.56 0-.3-.25-.56-.55-.56-.3 0-.56.24-.56.56 0 .3.25.56.56.56zm-12.33-.56c0 .32-.26.56-.56.56a.56.56 0 0 1-.56-.56c0-.32.26-.56.56-.56.3 0 .56.26.56.56zm10.03-3.07c.3 0 .56-.24.56-.56 0-.3-.26-.55-.56-.55a.56.56 0 0 0 0 1.12zm-1.04 1.6a.75.75 0 1 1-1.5 0 .75.75 0 0 1 1.5 0zm-6.8 2.89a.75.75 0 1 0 0-1.5.75.75 0 0 0 0 1.5z" fill="#FF2B45"/></svg>