<!-- by TradingView --><svg width="56" height="56" viewBox="0 0 56 56" xmlns="http://www.w3.org/2000/svg"><path fill="#F0F3FA" d="M0 0h56v56H0z"/><path d="M32.76 24h-5.57c.19-2.62 2.38-8 9.66-8 5.69 0 7.03 3.48 7.15 5.21 0 3.63-4.35 4.7-7.03 4.8 2.94.02 8.03 1.38 8.03 6.95 0 5.87-6.24 7.04-9.37 7.04-2.88 0-8.65-1.94-8.65-8h5.22c.07 1.18.85 4 3.43 4 3.23 0 3.37-2.81 3.37-3.28 0-.46.5-3.14-4-3.14v-3.74c1.25.11 3.69-.32 3.69-2.93-.07-.87-.75-2.91-2.92-2.91-2.7 0-3.01 3.2-3.01 4Z" fill="#58585A"/><path d="M12 40V16h11.19A7.77 7.77 0 0 1 31 23.73C31 28 27.5 31 23.19 31H18v9h-6Zm9.68-20H18v7h3.68A3.42 3.42 0 0 0 25 23.5c0-1.93-1.49-3.5-3.32-3.5Z" fill="#7A2230"/></svg>