<!-- by TradingView --><svg xmlns="http://www.w3.org/2000/svg" width="56" height="56"><path fill="#F0F3FA" d="M0 0h56v56H0z"/><path d="M21.95 32.4A4.5 4.5 0 0025 34v6c-4.32 0-7.07-2.3-8.61-4.54l5.56-3.06z" fill="#B5CBE0"/><path d="M25.57 15H26v8h-.43v-8zM21 23h-1v1.25h1V23zm-9 5.6c0 1.71 1.16 2.81 2.81 2.81 1.54 0 2.94-1 2.94-2.8 0-1.67-1.34-2.61-2.94-2.61-1.7 0-2.81.9-2.81 2.6zm0-2.35c.63-.86 1.85-1.25 3.03-1.25 2.03 0 3.82 1.5 3.76 3.6 0 2.16-1.64 3.77-3.97 3.77-1.07 0-2.31-.4-2.82-1.1V35h-1V25h1v1.25zM20 25h1v7h-1v-7zm8.75 3c-.3-1.42-1.78-2-2.96-2s-2.49.7-2.78 2h5.74zm-5.74.8c.13 1.54 1.47 2.2 3.08 2.2 1.22 0 2.32-.39 2.93-1.46l.8.48-.05.07c-.22.28-.63.81-1.29 1.24-.38.25-1.24.67-2.47.67-.43 0-1.47-.04-2.44-.69A3.47 3.47 0 0122 28.39c0-.9.36-1.84 1.06-2.45a4.13 4.13 0 012.73-.94c.49 0 1.93.07 3 1.16.16.16.48.5.71 1.03.17.36.26.86.32 1.6h-6.81zM35 26.06a2.75 2.75 0 00-.64-.07c-1.38 0-2.36.77-2.36 2.18V32h-1v-7h1v1.07c.47-.77 1.76-1.14 3-1.06v1.06zM36 25h1v7h-1v-7zm1-2h-1v1.25h1V23zm4.88 9c1.27 0 2.05-.3 2.52-.61.74-.5.86-1.16.9-1.56 0-.93-.66-1.38-.92-1.5-.53-.3-1.3-.33-2.43-.37-.27 0-.57-.02-.89-.04h-.09c-.7-.02-1.57-.04-1.67-.93 0-.99 1.51-.99 2.3-.99.94 0 1.96.16 2.63.89l.9-.32c-.14-.34-.3-.57-.59-.8-.22-.2-.43-.3-.7-.4A6.26 6.26 0 0041.6 25c-1.15 0-1.87.19-2.32.42-.88.49-.98 1.3-.98 1.66 0 1 .72 1.44 1.01 1.54.5.19 1.2.23 2.18.3.33.01.7.04 1.1.07l.22.01c.63.03 1.5.07 1.5.85C44.3 31 42.75 31 41.92 31h-.04c-1.07 0-2.3-.17-2.89-1.03l-.99.23.04.1.06.17c.04.11.12.22.2.32l.03.04c.56.72 1.65 1.17 3.55 1.17zM10 28.56H4V29h6v-.44zm36 0h6V29h-6v-.44zM26 34h-.43v8H26v-8z"/><path d="M29.56 24.53a4.54 4.54 0 00-3.06-1.51v-6a9.5 9.5 0 018.18 4.54l-5.12 2.97z" fill="#CF1D22"/></svg>