<!-- by TradingView --><svg width="56" height="56" viewBox="0 0 56 56" xmlns="http://www.w3.org/2000/svg"><path fill="#F0F3FA" d="M0 0h56v56H0z"/><path d="M25.42 22.08C18.69 21.07 5.18 19.04 5 19h48l-13.23 3.99c-.9 2.42-2.9 4.75-3.78 5.61l3.33.36 1.84 2v.68h-2.92l-6.61 3.03-2.8 5.16-2.92 2.9 1 1.27h-5.4l2.16-1.27-3.15-1.54 2.88-.36-3.7-1.9 3.38-.27-4.63-1.73 4.32-.72-6.89-2.4 6.89-.95-9.45-2.36 9.76-.72-12.32-2.63 13.67-1.08-16.82-3.08 17.8-.91Z" fill="url(#ayoidhgsd)"/><defs><linearGradient id="ayoidhgsd" x1="45.09" y1="21.06" x2="28.85" y2="43.89" gradientUnits="userSpaceOnUse"><stop offset=".19" stop-color="#01539F"/><stop offset=".4" stop-color="#FDFEFF"/><stop offset=".63" stop-color="#01539F"/></linearGradient></defs></svg>