<!-- by TradingView --><svg width="56" height="56" xmlns="http://www.w3.org/2000/svg"><path fill="#F0F3FA" d="M0 0h56v56H0z"/><path d="M28 12c-8.837 0-16 7.163-16 16 0 8.836 7.163 16 16 16 8.82 0 15.971-7.135 16-15.947v-.107C43.971 19.134 36.82 12 28 12z" fill="url(#paint0_radial)"/><path d="M29.178 14.178c-7.633-.65-14.349 5.01-15 12.643-.65 7.634 5.01 14.35 12.643 15 7.634.651 14.35-5.009 15.002-12.643.65-7.634-5.011-14.35-12.645-15z" fill="#fff"/><path d="M15.29 27.996c0 7.021 5.693 12.713 12.714 12.713 7.13 0 12.713-5.474 12.713-12.713 0-7.021-5.692-12.714-12.713-12.714-7.021 0-12.713 5.693-12.713 12.714z" fill="url(#paint1_radial)"/><path d="M27.984 34.133c-7.824 1.257-8.261-6.598-12.495-8.384a12.786 12.786 0 00.027 4.635c4.2-.002 5.467 7.246 12.549 6.763 7.882-.538 11.922-6.268 12.513-11.03-.023-.159-.05-.316-.079-.472-2.109 4.4-6.088 7.457-12.515 8.488z" fill="url(#paint3_linear)"/><path d="M28.065 37.147c-7.082.483-8.349-6.765-12.55-6.763 1.118 5.88 6.284 10.325 12.49 10.325 7.13 0 12.712-5.474 12.712-12.713 0-.639-.047-1.266-.139-1.88-.591 4.763-4.63 10.493-12.513 11.03z" fill="url(#paint4_radial)"/><path opacity=".69" d="M28.065 37.147c-7.082.483-8.349-6.765-12.55-6.763 1.118 5.88 6.284 10.325 12.49 10.325 7.13 0 12.712-5.474 12.712-12.713 0-.639-.047-1.266-.139-1.88-.591 4.763-4.63 10.493-12.513 11.03z" fill="url(#paint5_linear)"/><path d="M33.439 31.265a.098.098 0 00.014-.018c-.008.005-.016.01-.026.011-.371.111-.752.218-1.137.329.018.088.033.173.05.261l-.002-.014c.253-.072.486-.138.733-.213a.175.175 0 00.066-.035l.302-.32zM28.01 20.464a104.2 104.2 0 011.938 6.715c.02.08.11.147.202.127 1.076-.243 2.112-.464 3.096-.668a.097.097 0 00.05-.03c.009-.008.3-.376.305-.382a.162.162 0 00.014-.021.101.101 0 01-.042.021c-.985.204-2.02.424-3.097.667-.091.02-.18-.046-.202-.127a103.684 103.684 0 00-2.01-6.937c-.006-.019-.004-.036.007-.057a277.737 277.737 0 00-.287.354l.026.338zM30.494 27.884zM31.753 29.079c.325-.08.623-.153.938-.233.042-.01.056-.018.08-.041.008-.01.29-.309.295-.314a.078.078 0 00.014-.02c-.008.005-.015.01-.025.01-.444.113-.899.223-1.36.338l.059.262v-.002zM36.596 28.095a39.465 39.465 0 00-.339-1.477.133.133 0 01.012-.103l-.267.307a.13.13 0 00-.024.114c.115.456.22.913.316 1.372.02.076.038.153.054.234l-.023-.102c.024.078.069.101.11.061.008-.006.266-.301.274-.314-.045.037-.093.004-.113-.092zM23.755 35.147c.204-.023.328-.177.212-.527a53.96 53.96 0 01-1.303-4.683.16.16 0 01.036-.133.178.178 0 00-.028.031c-.007.01-.297.303-.302.309a.14.14 0 00-.033.124 53.946 53.946 0 001.304 4.682.809.809 0 01.04.201c-.013 0-.026-.002-.04-.004a.476.476 0 00.114 0zM27.266 33.786c-.137-.507-.32-.628-.62-.694-1.087-.232-1.662-.397-2.02-1.783-.217-.84-.135-1.555.29-1.965-.129.116-.297.29-.307.3-.452.398-.538 1.112-.317 1.97.33 1.272.97 1.584 2.027 1.81.397.087.479.168.621.693.063.227.102.399.099.529l-.034.008c.435-.083.415-.31.261-.868zM25.533 30.533zM26.613 23.74c.172.436.35.886.53 1.35a349.072 349.072 0 01-.432-4.971.088.088 0 01.015-.046 120.85 120.85 0 00-.365.412.093.093 0 00-.024.06c.077.963.166 2.025.269 3.176l.007.018zM26.551 28.013c.024.057.122.108.193.09.444-.108.858-.208 1.304-.313a.142.142 0 00.075-.053c.007-.009.304-.385.313-.4a.13.13 0 01-.061.04c-.447.106-.892.214-1.337.321-.07.018-.169-.033-.193-.09a369.892 369.892 0 01-2.795-6.75c-.012-.026-.007-.055.006-.082a497.792 497.792 0 00-.286.389c-.022.031-.029.066-.015.098.765 1.903 1.703 4.18 2.796 6.75zM35.37 23.39zM24.223 28.594c.026.056.12.11.188.092.332-.082.65-.167.988-.251a.161.161 0 00.076-.045l.304-.383a.154.154 0 00.015-.021.155.155 0 01-.068.036c-.338.084-.672.174-1.004.256-.068.017-.163-.036-.19-.093-.156-.392-.308-.78-.457-1.164-.5.138-.988.28-1.464.418.003.12.008.24.013.362.379-.108.776-.217 1.16-.323.148.383.282.724.439 1.116zM36.889 24.172a32.54 32.54 0 00-1.36-1.362 1.422 1.422 0 00-.145.433c.438.416.86.84 1.263 1.267a.874.874 0 00.242-.338zM35.149 21.278c.146-.272.236-.571.063-.924-.096-.192-.345-.379-.584-.382-.238-.002-.315.205-.197.457a.644.644 0 01-.036-.094l.014-.002c.238.004.488.19.583.382a.847.847 0 01.088.495l.069.068zM38.084 27.407c.128.045.214.223.26.486.012.06.02.188.032.246.009.055.043.09.081.08l.436-.138a.132.132 0 00.058-.037c.025-.026.268-.29.27-.294l-.449.143c-.038.009-.072-.026-.08-.08-.013-.06-.022-.118-.032-.178-.06-.34-.185-.541-.384-.49-.194.052-.225.269-.184.577a1.245 1.245 0 01-.008-.315zM37.183 23.247c.068-.27.133-.585.156-.689a.498.498 0 01.033-.103.053.053 0 00-.013.012l-.263.342a.362.362 0 00-.043.12l-.033.151-.083-.084.246.25z" fill="#A81C2F"/><path d="M34.382 22.348a1.937 1.937 0 00-.04.064l-.02.034-.022.034-.02.033a.935.935 0 00-.022.035c-.321.518-.514 1.098-.266 1.855.383 1.171 1.37 1.846 2.263 1.678.44-.084.791-.286 1.036-.663l.079-.129.003-.003c.06.078.141.19.23.297.077.09.157.184.207.175.268-.043.459-.08.706-.118a.065.065 0 00.041-.022c.006-.006.258-.337.263-.342a.042.042 0 00.008-.02c-.008.005-.015.01-.027.011-.246.04-.503.087-.772.13-.05.009-.13-.085-.208-.175-.088-.108-.17-.221-.23-.3-.245.467-.573.714-1.063.808-.892.168-1.88-.507-2.263-1.678-.279-.854-.052-1.493.342-2.061-.578-.485-1.063-.997-1.299-1.521-.15-.334-.154-.663-.003-.908-.008.01-.224.323-.226.324-.162.246-.15.591.01.945.236.523.718 1.033 1.293 1.517zM30.937 23.68c.367-.06.73-.117 1.086-.168.025 0 .045-.009.06-.024a40.682 40.682 0 00.315-.426l.002-.002a.085.085 0 01-.056.021c-.495.07-1.001.15-1.518.24l.11.359zM29.996 20.834c.428-.054.85-.102 1.265-.14a.08.08 0 00.06-.021c.01-.008.3-.377.304-.383a.074.074 0 00.012-.021.09.09 0 01-.05.013c-.56.05-1.134.115-1.718.198l.127.354zM35.23 29.737c.392-.107.416-.373.292-.978-.124-.61-.255-.824-.681-.727-.093.024-.188.046-.282.072.02.083.036.166.055.25l-.001-.004c.39-.078.478.037.61.687.06.292.087.517.056.684l-.05.016zM30.563 34.885l-.843.212a.118.118 0 01-.142-.082c-.4-1.667-.83-3.475-1.284-5.37-.286.07-.512.12-.797.19-.07.027-.138-.027-.154-.094-.074-.304-.146-.61-.219-.915a.143.143 0 01.026-.116 208.495 208.495 0 00-.335.323.14.14 0 00-.035.128l.101.427c.135.176.243.38.315.596.267-.064.486-.114.759-.18l1.278 5.346c.014.056.077.1.142.082l.843-.212a.096.096 0 00.03-.015 34.453 34.453 0 00.343-.336c-.009.007-.018.013-.029.016zM24.118 36.158c-.575.064-1.382-.084-1.779-1.204a41.433 41.433 0 01-1.333-4.6c-.009-.037-.004-.098.037-.13a.21.21 0 00-.034.034c-.006.008-.29.296-.297.305a.135.135 0 00-.022.11 41.424 41.424 0 001.333 4.602c.328.926 1.049 1.285 1.779 1.204a.995.995 0 00.657-.317l.304-.304c-.161.162-.38.27-.645.3zM27.265 35.683c-.817.15-1.514-.383-1.771-1.22-.033-.105-.066-.21-.096-.316a.12.12 0 01.01-.093 48.513 48.513 0 00-.316.317.112.112 0 00-.02.107c.03.106.063.211.095.316.252.819.916 1.364 1.836 1.196.357-.069.603-.205.765-.392l.255-.287c-.17.177-.417.307-.758.372zM38.328 29.828c.22.055.304.137.348.635.02.222.026.383.004.506a.273.273 0 00.086-.025c.255-.12.269-.321.225-.809-.045-.51-.197-.558-.554-.655-.506-.14-.823-.343-1.014-1.421-.123-.69-.065-1.34.243-1.685-.01.01-.278.287-.287.298a1.138 1.138 0 00-.276.548 35.841 35.841 0 00.02.083.256.256 0 01-.013.099 46.625 46.625 0 01-.051.103c-.025.27-.007.57.048.881.18 1.014.61 1.292 1.221 1.442zM36.739 28.152zM36.994 32.703c-.21.088-.424.177-.642.27a.068.068 0 01-.087-.044 46.22 46.22 0 00-.907-2.17c-.086.03-.173.056-.26.085.035.211.068.42.099.628.272.624.525 1.23.747 1.805.014.037.051.07.102.052l.61-.257a.204.204 0 00.064-.044 123.047 123.047 0 00.293-.34l-.019.015zM38.813 31.887c-.38.195-.94.141-1.035-.924a15.288 15.288 0 00-.028-.297.173.173 0 01.027-.103 173.299 173.299 0 00-.304.313.163.163 0 00-.038.117c.01.1.02.158.028.257.083.936.628 1.17 1.1.93.129-.066.236-.15.324-.25l.236-.27a1.135 1.135 0 01-.31.227zM34.037 33.84c-.682.237-1.392.458-2.122.672a.1.1 0 01-.126-.08 121.414 121.414 0 00-1.377-6.39c-.01-.039 0-.08.022-.113a18.63 18.63 0 00-.313.305h-.002c.064.265.128.53.19.795.016.066-.02.145-.083.15l-.792.192.067.283-.005-.021c.125-.03.25-.06.39-.096.015-.001.03-.005.04-.015.083-.087.324-.341.331-.352.463 1.957.865 3.863 1.193 5.62a.1.1 0 00.126.08c.73-.213 1.42-.429 2.103-.665a.211.211 0 00.07-.045l.293-.314a.132.132 0 00.014-.019c-.006.005-.012.01-.019.013zM35.352 33.366c-.229.088-.463.17-.699.258-.055.022-.105-.02-.112-.074a54.908 54.908 0 00-1.166-6.197.161.161 0 01.022-.115.088.088 0 00-.016.015l-.312.316c-.026.028-.033.073-.023.114.53 2.142.91 4.267 1.16 6.223.006.055.057.096.111.074.237-.087.45-.162.678-.25.036-.013.05-.028.068-.046.008-.008.291-.31.3-.318a.168.168 0 00.024-.025.082.082 0 01-.035.025zM34.082 33.803V33.8v.003zM25.572 31.073zM26.442 31.052l-.054-.215c-.103-.415-.28-.67-.593-.596-.153.036-.232.145-.262.291.258-.006.426.225.518.596l.064.255c.017.065.077.11.138.097.25-.059.46-.116.712-.174a.072.072 0 00.028-.013c.01-.008.32-.325.324-.33a.079.079 0 01-.026.012c-.252.058-.461.116-.711.174-.062.014-.122-.032-.138-.097zM21.276 29.524c.282-.08.658-.184.953-.262a.117.117 0 00.045-.031c.011-.012.318-.4.327-.414a.128.128 0 01-.045.033c-.296.077-.584.158-.867.237-.093.026-.167-.047-.171-.151-.116-2.687.008-5.184.296-7.347a.158.158 0 01.027-.063 144.971 144.971 0 00-.405.425.155.155 0 00-.036.074c-.287 2.163-.412 4.661-.295 7.348.003.104.078.177.17.15zM23.206 26.017l.401-.12a82.039 82.039 0 01-.956-2.886c-.018.41-.03.832-.04 1.26.182.562.377 1.145.588 1.748l.007-.002zM20.09 29.496c.01-.013.305-.372.315-.386a1.94 1.94 0 01-.959.601c-.496.147-.962.29-1.4.422-.047.014-.104-.03-.118-.098a28.291 28.291 0 01-.492-6.333.218.218 0 01.041-.104.227.227 0 00-.405.528 28.28 28.28 0 00.492 6.332c.013.069.07.113.117.099.439-.132.923-.275 1.419-.421.419-.125.75-.34.99-.64zM20.661 35.453c.437-.019.379-.273.177-.839-.198-.56-.332-.757-.728-.719-.1.007-.245.042-.343.048.033.1.068.195.101.292.306.016.47.217.644.71.075.21.123.38.132.51h-.005l.022-.002z" fill="#A81C2F"/><path d="M21.036 36.35c-.353.012-.742.037-1.07.037-.041 0-.093-.045-.113-.09a30.008 30.008 0 01-1.696-5.235c-.009-.04-.002-.091.022-.115a.048.048 0 00-.017.012l-.302.325c-.02.024-.028.069-.019.108a30.074 30.074 0 001.697 5.235c.02.046.07.091.113.091.327 0 .656-.012 1.01-.023.29-.013.51-.09.659-.224.012-.01.335-.304.34-.31-.147.114-.355.179-.624.19zM19.823 33.034l.022-.003c.36-.05.388-.288.242-.817-.136-.497-.312-.692-.667-.623-.092.02-.23.053-.318.071.021.087.045.172.068.259.284-.006.47.188.59.624.056.203.079.364.066.488l-.003.001zM19.171 31.926zM19.206 28.324c.39-.134.495-.39.416-.954a34.51 34.51 0 01-.285-2.93c-.024-.445-.147-.598-.526-.412-.116.058-.231.113-.343.172.001.107.005.215.008.324.417-.204.488-.128.518.415.05.931.144 1.911.286 2.93.022.165.027.3.017.417-.03.013-.058.027-.091.038z" fill="#A81C2F"/><path d="M33.308 20.47c.236.524.721 1.037 1.299 1.521-.394.568-.621 1.207-.342 2.061.383 1.171 1.37 1.846 2.263 1.678.49-.094.818-.341 1.062-.807.062.078.143.192.231.299.078.09.158.184.208.175.269-.043.526-.09.772-.13.07-.01.072-.072.015-.146-.29-.365-.595-.73-.915-1.095.09-.252.205-.672.256-.886.043-.185.041-.268-.068-.338-.258-.17-.36-.232-.474-.301-.118-.073-.17-.094-.201-.088-.03.006-.05.04-.075.145-.023.104-.088.418-.156.689-.445-.455-.868-.891-1.235-1.242.303-.485.408-1.147.133-1.692a2.141 2.141 0 00-1.868-1.152c-.926 0-1.204.646-.905 1.31zm1.123-.041c-.118-.252-.04-.46.197-.457.239.003.488.19.584.382.173.353.083.652-.063.924-.364-.349-.606-.615-.718-.85zm1.006 3.405c-.125-.37-.076-.685.091-1.024.473.446.927.901 1.361 1.362-.094.217-.266.425-.489.456a.528.528 0 01-.072.005c-.351 0-.732-.336-.891-.8zm-4.254-4.478c-.91.068-1.85.185-2.813.346-.08.012-.123.076-.105.127a103.649 103.649 0 012.01 6.937c.02.081.11.148.2.127a178.35 178.35 0 013.098-.667c.07-.014.108-.104.087-.18a57.94 57.94 0 00-.285-1c-.022-.075-.104-.141-.173-.127-.583.104-1.182.225-1.8.349a68.746 68.746 0 00-.576-1.947c.517-.09 1.023-.169 1.518-.24.074 0 .11-.077.086-.145-.1-.295-.202-.583-.306-.865-.023-.064-.102-.113-.175-.113-.488.057-.985.133-1.493.21a60.625 60.625 0 00-.587-1.688 32.835 32.835 0 011.718-.198c.07.003.103-.058.08-.112a35.681 35.681 0 00-.319-.724c-.021-.047-.091-.09-.153-.09h-.012zm-3.39.449c-.321.058-.642.123-.963.193-.062.011-.12.074-.119.12.115 1.448.258 3.11.433 4.972a615.427 615.427 0 00-1.835-4.631c-.019-.043-.099-.068-.15-.055-.332.089-.662.183-.989.282-.098.03-.148.109-.12.173a372.07 372.07 0 002.796 6.75c.024.056.122.107.192.09.445-.108.89-.216 1.337-.321.06-.012.123-.104.12-.166-.096-1.428-.19-2.791-.284-4.072a555.638 555.638 0 00-.244-3.235c-.002-.06-.063-.104-.138-.104a.205.205 0 00-.036.004zm-4.77 1.253c-.373.128-.738.261-1.096.4a.176.176 0 00-.113.13c-.288 2.164-.412 4.661-.296 7.348.004.104.078.177.17.151.284-.08.572-.16.868-.237.05-.017.108-.105.107-.167-.022-.416-.04-.83-.052-1.243.476-.139.965-.28 1.465-.419.148.384.3.772.457 1.164.026.057.12.11.19.093.332-.082.665-.171 1.003-.256.101-.026.15-.137.105-.237a165.558 165.558 0 01-1.539-3.72c-.43-1.08-.812-2.068-1.142-2.962a.078.078 0 00-.077-.055.153.153 0 00-.05.01zm-.371 1.953c.28.902.597 1.867.956 2.886-.34.099-.674.203-1.001.306a51.805 51.805 0 01.045-3.192zm-3.784-.209a25.65 25.65 0 00-1.342.743.237.237 0 00-.09.157 28.29 28.29 0 00.492 6.332c.013.069.071.113.117.099.44-.133.905-.275 1.401-.422 1.094-.323 1.602-1.26 1.375-2.751a40.676 40.676 0 01-.363-3.241c-.052-.732-.356-1.128-.86-1.128-.21 0-.454.07-.73.211zm-.4 1.398c.112-.058.227-.114.343-.171.379-.186.501-.034.526.411.05.932.143 1.911.285 2.93.079.565-.026.82-.416.954-.124.044-.247.085-.366.129a31.39 31.39 0 01-.373-4.253zm19.612 1.934c-.661.14-.822.995-.657 1.925.19 1.078.508 1.281 1.014 1.42.358.098.51.146.554.656.044.488.03.69-.225.81-.206.096-.298-.072-.32-.314a25.033 25.033 0 00-.02-.243c-.006-.054-.04-.096-.076-.08-.174.07-.35.146-.534.218-.043.017-.07.085-.066.14.01.1.02.199.028.297.095 1.065.654 1.12 1.035.924.637-.318.811-1.133.735-2.01-.108-1.249-.387-1.299-1.09-1.492-.252-.068-.282-.17-.346-.537-.067-.375-.056-.644.164-.703.199-.051.323.15.384.49l.031.178c.009.054.043.089.081.08l.451-.143c.03-.012.048-.064.039-.116-.02-.124-.043-.249-.066-.373-.108-.591-.524-1.14-.992-1.14a.601.601 0 00-.124.013zm-1.258.237c-.167.038-.337.074-.511.112-.048.011-.069.077-.054.135.123.49.236.984.339 1.477.025.118.091.143.143.057.128-.253.251-.503.37-.75a.256.256 0 00.014-.099c-.063-.279-.13-.557-.2-.834-.013-.052-.055-.099-.092-.099l-.01.001zm-2.178.562c-.387.086-.785.178-1.194.27-.06.014-.09.087-.074.15.53 2.143.916 4.241 1.165 6.197.007.055.058.096.112.074.236-.087.47-.17.7-.258.046-.017.08-.087.074-.141a43.936 43.936 0 00-.33-2.381l.261-.085c.335.753.64 1.476.907 2.17.01.031.047.058.087.043.218-.092.432-.18.642-.27a.13.13 0 00.058-.165 42.93 42.93 0 00-.952-2.273c.34-.464.386-1.04.248-1.722-.214-1.063-.688-1.646-1.385-1.646-.102 0-.208.012-.319.037zm-.085 1.17c.094-.025.189-.047.282-.07.426-.098.557.116.681.726.124.605.1.871-.292.978-.103.032-.207.061-.312.093a46.442 46.442 0 00-.359-1.726zm-1.775-.749c-.74.17-1.505.345-2.29.53-.065.015-.098.093-.081.159a121.185 121.185 0 011.376 6.389.1.1 0 00.127.08c.73-.214 1.439-.435 2.121-.672.048-.017.083-.086.075-.14a66.03 66.03 0 00-.117-.82c-.009-.058-.063-.108-.11-.086-.42.141-.85.28-1.29.413a80.684 80.684 0 00-.305-1.62c.386-.11.766-.218 1.137-.329.053-.006.086-.08.074-.143-.053-.284-.109-.57-.166-.858-.013-.063-.068-.105-.122-.1-.376.106-.761.208-1.151.314a94.935 94.935 0 00-.367-1.651c.461-.116.916-.226 1.36-.338.066-.017.084-.08.068-.143a55.802 55.802 0 00-.21-.88c-.015-.058-.067-.106-.117-.106l-.012.001zm-2.838.66c-.946.222-1.774.42-2.73.649-.07.017-.107.096-.092.163l.219.915c.016.067.085.12.154.095.285-.07.511-.12.798-.19.453 1.894.884 3.702 1.284 5.369.013.055.075.1.142.082l.842-.212c.057-.017.096-.083.083-.138a257.47 257.47 0 00-1.211-5.376c.287-.07.507-.122.79-.192.064-.006.1-.084.084-.15a82.31 82.31 0 00-.218-.91c-.014-.059-.07-.108-.124-.108-.007 0-.014 0-.02.002zm-4.433 1.012c-.926.227-1.182 1.139-.887 2.283.358 1.386.933 1.552 2.02 1.784.3.065.483.186.62.693.154.558.174.785-.26.868-.34.058-.479-.152-.556-.417l-.078-.27c-.017-.06-.08-.112-.133-.1-.255.053-.521.097-.773.144-.06.011-.086.078-.068.136.03.106.064.211.096.316.257.837.954 1.37 1.771 1.22 1.108-.212 1.222-1.096.958-2.132-.38-1.491-.957-1.603-2.106-1.852-.348-.073-.464-.306-.545-.626-.095-.38-.09-.758.223-.832.314-.073.49.181.593.596l.054.215c.016.065.076.111.138.097.25-.058.459-.116.711-.174.055-.011.088-.08.071-.146l-.115-.472c-.176-.722-.74-1.366-1.448-1.366-.093 0-.188.012-.286.035zm-1.986.56c-.275.067-.518.13-.783.197-.063.015-.095.09-.08.154a53.9 53.9 0 001.303 4.683c.116.35-.008.504-.212.527-.21.03-.417-.075-.534-.42a47.465 47.465 0 01-1.303-4.603c-.015-.062-.072-.115-.123-.101-.246.06-.486.125-.721.184-.055.015-.082.085-.068.146a41.44 41.44 0 001.333 4.601c.397 1.12 1.204 1.268 1.78 1.204.742-.083 1.127-.778.877-1.577a65.99 65.99 0 01-1.333-4.891c-.014-.057-.064-.107-.115-.107a.073.073 0 00-.021.004zm-4.27 1.07c-.351.091-.735.194-1.055.277-.04.01-.057.074-.045.129.418 1.852 1 3.62 1.696 5.235.02.045.072.09.114.09.327 0 .716-.024 1.069-.036.863-.036 1.09-.618.742-1.606a17.682 17.682 0 01-.107-.311c-.183-.529-.45-.873-.777-1.066.174-.257.183-.56.021-1.147l-.06-.219c-.198-.729-.626-1.385-1.302-1.385-.094 0-.193.012-.296.04zm-.155 1.006c.089-.018.227-.052.318-.07.355-.07.531.125.667.622.146.529.118.766-.242.817-.101.012-.248.047-.347.06-.143-.471-.275-.947-.396-1.429zm.665 2.281c.098-.006.243-.041.343-.048.396-.038.53.159.729.72.2.565.26.82-.178.838-.097.006-.242.024-.338.031-.195-.5-.38-1.014-.556-1.54z" fill="url(#paint6_linear)"/><path opacity=".44" d="M23.582 39.49c2.28.84 4.932.976 7.4.383 2.468-.592 4.857-1.924 6.446-3.81-1.972 1.586-4.213 2.72-6.552 3.297-2.268.56-4.701.592-7.294.13z" fill="url(#paint7_linear)"/><defs><linearGradient id="paint3_linear" x1="19.638" y1="37.054" x2="40.64" y2="26.692" gradientUnits="userSpaceOnUse"><stop stop-color="red" stop-opacity="0"/><stop offset=".2" stop-color="#DD5931"/><stop offset=".4" stop-color="#E36432"/><stop offset=".6" stop-color="#D64C2F"/><stop offset=".777" stop-color="#D3482E"/><stop offset="1" stop-color="#B42728"/></linearGradient><linearGradient id="paint5_linear" x1="18.733" y1="30.12" x2="45.49" y2="36.05" gradientUnits="userSpaceOnUse"><stop stop-color="#fff"/><stop offset="1" stop-color="#9E148D"/></linearGradient><linearGradient id="paint6_linear" x1="24.355" y1="22.844" x2="36.161" y2="39.956" gradientUnits="userSpaceOnUse"><stop stop-color="#fff"/><stop offset="1" stop-color="#BFBEBE"/></linearGradient><linearGradient id="paint7_linear" x1="30.846" y1="39.012" x2="31.074" y2="39.836" gradientUnits="userSpaceOnUse"><stop stop-color="#fff"/><stop offset="1" stop-color="#FDDB50"/></linearGradient><radialGradient id="paint0_radial" cx="0" cy="0" r="1" gradientUnits="userSpaceOnUse" gradientTransform="matrix(22.4213 0 0 22.4215 32.752 16.16)"><stop stop-color="#4BA3DB"/><stop offset=".963" stop-color="#233D74"/></radialGradient><radialGradient id="paint1_radial" cx="0" cy="0" r="1" gradientUnits="userSpaceOnUse" gradientTransform="translate(28.325 28.16) scale(13.7989)"><stop stop-color="#F6AB0D"/><stop offset=".693" stop-color="#EF511B"/><stop offset=".957" stop-color="#A21217"/></radialGradient><radialGradient id="paint4_radial" cx="0" cy="0" r="1" gradientUnits="userSpaceOnUse" gradientTransform="matrix(-.4737 8.93356 -8.2473 -.4373 29.197 28.792)"><stop stop-color="#DB5430"/><stop offset="1" stop-color="#9A1F26" stop-opacity="0"/></radialGradient></defs></svg>