<!-- by TradingView --><svg width="56" height="56" xmlns="http://www.w3.org/2000/svg"><path fill="#46A2DF" d="M0 0h56v56H0z"/><path d="M21.253 23.645c-.297.182-.678.232-.992.07-.323-.153-.546-.498-.603-.868a1.943 1.943 0 01.167-1.177.864.864 0 01.618-.473c.282-.043.588-.01.835.154.168.11.262.306.38.47.029-.193.036-.388.038-.583-.336-.12-.68-.24-1.037-.237a1.287 1.287 0 00-1.02.468c-.297.358-.436.861-.378 1.337.04.346.215.671.475.877.273.22.621.31.958.312a1.438 1.438 0 001.012-.455c0-.115 0-.23-.004-.345-.137.165-.268.341-.45.45zM46.928 22.8c-.107-.227-.317-.365-.526-.463-.196-.104-.412-.175-.578-.332a.502.502 0 01-.079-.623c.18-.268.561-.277.803-.108.163.116.201.335.236.526l.123-.004c-.002-.23 0-.46-.004-.69-.25-.047-.498-.118-.754-.104a.825.825 0 00-.584.266c-.22.236-.276.65-.086.925.277.384.781.416 1.102.741.172.185.187.52.014.71a.626.626 0 01-.96-.042c-.114-.121-.089-.354-.26-.413-.003.238-.001.476.017.713.384.097.807.167 1.18-.014.368-.173.534-.705.356-1.087zM43.919 21.166c.077.111.164.23.148.378.011.18-.147.294-.183.459.048 0 .1-.008.134-.05.135-.13.265-.29.286-.491.025-.161-.037-.317-.1-.46-.097.053-.19.109-.285.165zM8 21.005v.772l.133-.004c.018-.195.04-.449.225-.536.214-.082.446-.046.668-.06v2.307c-.006.117 0 .25-.067.347-.081.04-.171.039-.258.05l-.001.122c.328-.013.656-.01.984-.002l-.002-.12a4.01 4.01 0 01-.283-.05c-.055-.276-.039-.559-.041-.839.001-.6-.002-1.2.002-1.802.219.012.448-.039.66.045.194.082.209.348.242.544l.123-.004-.001-.772c-.795.008-1.59.005-2.384.002zM13.999 21.116v-.113c-.342.004-.684.004-1.024 0v.12c.091.01.182.024.273.038.125.38.043.792.066 1.188-.535.002-1.07 0-1.604 0 .022-.393-.051-.8.056-1.182.11-.035.282.006.305-.16-.357-.001-.715-.006-1.072.002.028.156.195.115.29.19.065.086.06.205.066.31v1.973c-.006.118.002.268-.098.347-.074.03-.153.038-.23.053l-.002.12c.34-.015.679-.015 1.017 0l.007-.125c-.088-.013-.187.001-.267-.047-.064-.085-.068-.202-.071-.306-.003-.326.002-.653-.002-.979.536.002 1.07-.003 1.606.003-.018.425.039.856-.045 1.275-.115.042-.288.005-.324.17.35.008.7-.008 1.05.008l.002-.119c-.084-.015-.174-.014-.249-.063-.101-.108-.074-.28-.081-.42.01-.684-.015-1.372.012-2.055-.001-.186.189-.209.319-.228zM16.442 23.658c-.167.155-.397.163-.604.17-.13-.005-.268.016-.394-.033-.083-.034-.104-.145-.104-.233-.005-.349 0-.698 0-1.047.22.009.446-.024.661.038.1.03.11.161.14.252h.11c-.035-.262.002-.528-.018-.79a36.838 36.838 0 00-.074-.008c-.045.1-.043.252-.153.295-.214.078-.445.036-.667.045v-1.18c.301.02.634-.052.905.133.16.102.09.381.268.458a9.787 9.787 0 00-.026-.758c-.6.01-1.2.007-1.801.003l.003.115c.078.023.168.019.236.072.088.108.066.268.072.403-.008.684.01 1.37-.009 2.053.007.187-.173.216-.3.23v.12c.652-.02 1.306-.008 1.959-.004.01-.272.07-.54.053-.813-.161.103-.119.356-.257.48zM25.11 21.175c.07-.033.146-.042.22-.059L25.324 21c-.33.01-.661-.003-.992.006.027.16.184.127.289.16.112.38.038.787.06 1.18-.51.004-1.022 0-1.533.001.02-.393-.047-.798.051-1.183l.265-.047c0-.028 0-.087-.002-.116-.323.002-.646 0-.969 0l.008.114c.071.017.145.026.214.056.088.06.085.19.089.292.001.672-.001 1.344.002 2.016-.004.094.003.196-.037.282-.049.112-.18.09-.27.12l-.005.118c.322-.012.643-.011.965.001l.006-.124c-.08-.011-.164-.007-.238-.045-.073-.08-.074-.203-.079-.31-.002-.326.002-.653 0-.979.51.002 1.022-.002 1.533.002-.002.311 0 .623 0 .935-.009.114-.002.243-.068.34-.072.06-.17.042-.254.056l.002.125c.322-.014.643-.012.965-.001v-.118c-.077-.017-.156-.025-.228-.061-.074-.075-.076-.197-.079-.3v-2.012c.002-.114 0-.255.09-.333zM27 21.122c0-.03-.004-.09-.005-.12-.328.003-.656.009-.983-.002a4.785 4.785 0 00-.012.116c.136.016.32.051.316.243.014.706 0 1.414.006 2.12-.003.117.006.26-.084.343-.074.038-.157.042-.235.058l.002.12c.332-.014.662-.014.994 0l-.001-.12c-.085-.017-.18-.015-.253-.07-.07-.075-.062-.19-.065-.287.002-.575.001-1.15.001-1.724.003-.212-.026-.436.063-.634.085-.014.17-.03.256-.043zM29.629 23.709c-.106.112-.26.12-.398.132-.196.014-.405.03-.59-.062-.132-.085-.12-.278-.121-.424.009-.67-.009-1.34.008-2.008 0-.198.193-.214.325-.23 0-.029 0-.088-.002-.117-.326.006-.652.006-.978 0l-.006.112c.08.02.165.03.242.069.076.085.065.215.07.326-.003.67 0 1.341-.001 2.012-.005.08.002.168-.032.242-.054.112-.183.095-.277.118v.12a46.892 46.892 0 012.017.001c.008-.25.017-.498.027-.747h-.126c-.033.157-.045.341-.158.456zM32.973 21.339A1.24 1.24 0 0032.09 21c-.468.002-.936.009-1.405.001l.005.117c.077.018.16.023.232.061.082.08.076.217.081.329v1.847c-.002.128.01.261-.03.384-.044.131-.186.115-.286.14l.002.117c.26-.004.522-.014.783-.006.272.005.546.028.816-.019.345-.066.682-.26.887-.585.17-.256.268-.573.263-.893a1.578 1.578 0 00-.465-1.154zm.014 1.804a.962.962 0 01-.677.63c-.261.067-.54.087-.801.015-.122-.032-.172-.184-.167-.311-.002-.763.002-1.526-.002-2.289.4-.055.846-.08 1.195.189.498.373.657 1.154.452 1.766zM36.158 23.517c-.176-.315-.345-.635-.517-.953.135-.073.28-.144.377-.277.24-.335.175-.886-.145-1.13-.163-.134-.37-.165-.568-.155-.343.01-.687 0-1.03.007.016.156.169.129.27.161a.75.75 0 01.063.294c-.003.676-.003 1.354 0 2.03-.004.1.002.217-.069.291-.069.054-.16.048-.24.066l.002.12c.325-.015.65-.012.974-.002l-.004-.12a3.441 3.441 0 01-.27-.046c-.09-.388-.032-.794-.046-1.19.134.018.309-.004.389.146.198.326.355.684.567 1 .154.227.435.256.67.236.06 0 .108-.042.157-.074-.105-.032-.215-.04-.316-.084-.126-.059-.191-.2-.264-.32zm-1.204-1.085c.003-.414-.01-.83.006-1.244a.888.888 0 01.435.014c.377.124.548.717.293 1.054-.189.215-.485.214-.734.176zM39.036 23.72c-.25.134-.54.114-.81.105a.196.196 0 01-.206-.189c-.017-.372 0-.746-.008-1.12.217.006.438-.023.65.037.107.023.118.16.152.253l.096.01c-.004-.269-.004-.538.001-.807l-.098.003c-.026.101-.021.247-.128.289-.217.08-.449.037-.672.046v-1.175c.308.015.663-.067.928.153.14.107.069.375.248.43 0-.251-.028-.5-.027-.752-.52 0-1.04.009-1.56 0-.101.002-.232-.033-.278.1.096.034.209.031.29.105.051.089.051.199.052.3-.002.548-.001 1.094-.001 1.641-.001.225.018.456-.048.674-.088.02-.176.04-.264.054l.006.12c.651-.012 1.301-.015 1.951.003.027-.27.064-.538.068-.81l-.094.072c-.061.162-.089.373-.248.458zM42.223 21l-.011.118c.071.014.142.03.214.046.136.277.09.601.1.903-.006.44.026.878.02 1.317-.237-.29-.45-.603-.674-.904-.364-.491-.723-.987-1.086-1.48-.222.007-.443 0-.664.006.029.174.21.12.323.155.045.093.08.192.076.3 0 .472-.005.944-.009 1.416-.01.305.014.618-.077.911a5.951 5.951 0 01-.233.049l.004.12c.274-.012.548-.01.822 0a3.407 3.407 0 01-.003-.116c-.127-.006-.28-.053-.29-.221-.059-.709-.034-1.423-.042-2.135.617.833 1.233 1.667 1.844 2.506l.128.009c.027-.725.036-1.45.063-2.175.009-.191-.013-.393.057-.573.036-.115.162-.11.248-.146L43.027 21c-.268.004-.536.008-.804 0zM31.223 34.434c-.455-.304-.672-.854-.868-1.359-1.068-2.69-2.141-5.38-3.204-8.073L26.892 25c-.998 2.779-2.001 5.556-3.003 8.332-.151.386-.308.804-.634 1.065-.236.186-.544.193-.826.182-.003.14-.003.28-.003.421h2.854c.002-.141.001-.282-.006-.422-.181-.003-.367.024-.543-.033a.357.357 0 01-.251-.301c-.027-.29.064-.571.142-.844.25-.783.496-1.619.747-2.4h2.97c.34.892.69 1.834 1.022 2.729.068.218.17.516-.022.698-.24.212-.572.14-.858.152V35h3.512c0-.14 0-.28-.002-.42-.26.007-.541.018-.768-.145zm-5.686-3.902c.39-1.228.8-2.45 1.178-3.681.48 1.226.957 2.453 1.426 3.683-.868 0-1.736.003-2.604-.002zM39.995 32.387c-.173.091-.264.287-.39.437-.772 1.02-1.882 1.646-3.18 1.595-2.468-.17-3.636-2.915-3.425-5.03.184-1.998 1.559-3.94 3.771-3.802 1.182.064 2.334.62 2.862 1.722.054.106.095.221.162.32.066.013.133.011.2.016.01-.614-.011-1.262.005-1.875-.36-.093-.765-.245-1.122-.352-.73-.234-1.483-.4-2.245-.417a4.108 4.108 0 00-1.967.436 4.31 4.31 0 00-1.503 1.28c-.804 1.06-1.205 2.468-1.16 3.848.033.847.265 1.69.701 2.39.608.988 1.593 1.634 2.634 1.89 1.129.27 2.357.212 3.401-.373.47-.256.882-.618 1.261-1.014-.005-.357.003-.714-.005-1.07zM13.267 25.386c-.482-.294-1.042-.4-1.589-.384H8c0 .14.001.279.003.418.28.02.53-.031.758.19.213.22.226.566.239.867v7.047c-.012.294.047.626-.15.849-.229.229-.559.189-.844.188-.005.146-.006.292-.004.439H11v-.436c-.317 0-.751 0-.879-.191-.192-.288-.103-.67-.121-1.011v-3.104c.885.084 2.03.168 2.882-.167.537-.21 1.025-.612 1.286-1.175.279-.582.334-1.276.199-1.912-.141-.674-.54-1.29-1.1-1.618zm-.33 3.635c-.213.391-.59.656-.997.734-.582.116-1.408-.02-1.94-.292-.006-1.327.003-2.654 0-3.982.667-.087 1.608-.119 2.217.247.482.275.796.82.907 1.393.125.63.125 1.333-.187 1.9zM21.304 33.705a1.17 1.17 0 01-.66.612c-.389.149-.805.166-1.212.187-.506.004-1.248-.053-1.743-.187-.216-.06-.433-.182-.548-.399-.118-.228-.141-.497-.146-.754.001-2.271 0-4.542.002-6.813.01-.309-.012-.501.234-.699.25-.182.485-.215.769-.233V25h-3c0 .14 0 .28.002.421.285.016.55-.006.774.231.199.223.211.556.224.85v6.644c0 .31.02.628-.059.93-.049.182-.158.352-.321.428-.214.113-.387.05-.616.056-.003.146-.004.293-.004.44l7-.004c.02-.83-.02-2.167 0-2.996h-.406c-.064.408-.12 1.33-.29 1.705zM47.632 32.448c-.051.337-.112.678-.252.985-.13.298-.354.546-.627.69-.318.174-.675.24-1.025.283-.508.064-1.019.034-1.528.043-.274-.005-.815-.022-1.01-.255-.173-.225-.178-.536-.187-.814.002-1.108-.013-2.27-.003-3.377L45.504 30c.295.028.62.027.867.226.196.187.202.513.231.774H47v-2.685l-.398.003c-.017.292-.006.643-.227.854-.227.183-.523.215-.796.243-.56.035-1.942.056-2.501.051-.088.018-.064-.11-.074-.167.003-1.267-.002-2.48 0-3.747.745.011 1.72-.06 2.459.063.42.07.864.216 1.149.581.256.333.303.783.359 1.197.122 0 .245 0 .368-.003-.06-.796-.09-1.593-.114-2.39L41 25.002c.002.136-.006.274.011.41.285.032.562.015.785.256.229.27.206.663.203 1.006v6.932c0 .278-.024.587-.204.8-.227.233-.499.156-.785.155-.009.146-.01.291-.011.437l6.74.002c.097-.849.17-1.7.26-2.55-.123 0-.246 0-.368-.002z" fill="#fff"/></svg>