<!-- by TradingView --><svg xmlns="http://www.w3.org/2000/svg" width="56" height="56" viewBox="0 0 56 56"><path fill="#F0F3FA" d="M0 0h56v56H0z"/><path d="M42.3 20c-5.65.05-10.09 4.02-11.6 6 1.8-1.8 5.97-5 11.6-5 4.97 0 8.54 2.59 9.7 3.76C48.57 20.9 44.5 20 42.3 20z" fill="url(#aqb5lfxnz)"/><path fill-rule="evenodd" d="M7.65 25H5v6h1v-2.3h1.65a1.85 1.85 0 0 0 0-3.7zm0 1H6v1.68h1.66a.84.84 0 1 0 0-1.68zM18 25h2a3 3 0 1 1 0 6h-2v-6zm1 1h1a2 2 0 1 1 0 4h-1v-4zm-8.46-1h1v6h-1v-6zM45 25h5v1h-2v5h-1v-5h-2v-1zm-31 0h-1v6h4v-1h-3v-1.5h3v-1h-3V26h3v-1h-3zm10.04 6H23l2.36-6h.57l1.18 2.94-.54 1.23-.93-2.26-1.6 4.09zm2.2 0h1.04l1.6-3.98 1.6 3.98h1.04l-2.4-6h-.53l-2.35 6zM38 28a3 3 0 1 1-6 0 3 3 0 0 1 6 0zm-1 0a2 2 0 1 1-4 0 2 2 0 0 1 4 0zm2 3h1v-3.88L43.65 31H44v-6h-1v3.86L39.4 25H39v6zm-6.26 1.3h.82V35h.3v-2.7h.81V32h-1.93v.3zm-1.2-.3v3h.3v-3h-.3zm-2.24 0H29v3h1.7v-.3h-1.4V32zm10.07 3v-3h.3v3h-.3zm-3.64-3h.3v1.35h1.68V32h.3v3h-.3v-1.35h-1.68V35h-.3v-3zm11.45 3l-.54-3-.97 2.26-1.01-2.23-.6 2.97h.3l.41-2 .9 2 .85-1.97.35 1.97h.31zm-5.97-3v1.89a.81.81 0 1 0 1.62 0V32h.3v1.89a1.11 1.11 0 1 1-2.22 0V32h.3z" fill="#072A48"/><defs><linearGradient id="aqb5lfxnz" x1="31.24" y1="24.52" x2="51.65" y2="24.18" gradientUnits="userSpaceOnUse"><stop offset=".03" stop-color="#639C6A"/><stop offset=".27" stop-color="#69B14E"/><stop offset="1" stop-color="#E3E065"/></linearGradient></defs></svg>