<!-- by TradingView --><svg xmlns="http://www.w3.org/2000/svg" width="56" height="56"><path d="M0 28a28 28 0 1156 0 28 28 0 01-56 0z" fill="#F0F3FA"/><path d="M8 28l10.03-10.12 11.84 11.94-10.03 10.12L8 28z" fill="#189AA9"/><path d="M26.13 26.18l3.5 1.82H48L37.97 38.12 26.13 26.18z" fill="#ADCE38"/><path d="M48 28H16.72c10.41-.1 11.16-11.6 17.26-12.92.63-.13 1-.15 1.48.33L48 28z" fill="#87BB68"/><path d="M8 28h31.28c-10.44.1-11.22 11.66-17.35 12.93-.63.12-.98.13-1.45-.34L8 28z" fill="#5EA98B"/></svg>