<!-- by TradingView --><svg width="56" height="56" viewBox="0 0 56 56" xmlns="http://www.w3.org/2000/svg"><path fill="#F0F3FA" d="M0 0h56v56H0z"/><path fill="#0033A0" d="M26 24h2v8h-2z"/><path fill="#0033A0" d="M31 30v2h-5v-2zM32 24h3.16A2.93 2.93 0 0 1 38 27c0 1.66-1.27 3-2.84 3H34v2h-2v-8Zm2.86 2H34v2h.86c.63 0 1.14-.45 1.14-1s-.51-1-1.14-1ZM19 24h3.16A2.93 2.93 0 0 1 25 27c0 1.66-1.27 3-2.84 3H21v2h-2v-8Zm2.86 2H21v2h.86c.63 0 1.14-.45 1.14-1s-.5-1-1.14-1Z"/><path d="M43.2 33a16 16 0 0 1-30.4 0H6.74c-.2-.66-.36-1.34-.48-2.03.52.19 1.16.33 1.88.33 1.04 0 1.76-.23 2.44-.44.61-.2 1.19-.38 1.92-.38.97 0 2.15.48 2.94.87a13 13 0 0 0 25.11.05c.78-.4 1.97-.89 2.95-.89.73 0 1.3.19 1.92.38.68.22 1.4.45 2.44.45.72 0 1.36-.15 1.87-.34-.11.68-.27 1.35-.46 2H43.2Zm6.77-4.05a18.11 18.11 0 0 0 .01-1.82 5.1 5.1 0 0 1-2.12.47 6.91 6.91 0 0 1-2.44-.48c-.61-.21-1.19-.4-1.92-.4-.8 0-1.76.35-2.51.72a13.2 13.2 0 0 1-.06 1.94 9 9 0 0 1 2.57-.45c.9 0 1.76.22 2.57.43.72.18 1.4.36 2.06.36.62 0 1.29-.35 1.84-.77ZM28 15a13 13 0 0 1 12.77 10.54A8.6 8.6 0 0 1 43.5 25c.9 0 1.76.24 2.57.47.72.2 1.4.39 2.06.39.56 0 1.15-.3 1.66-.7a18 18 0 0 0-.47-2.16H43.2a16 16 0 0 0-30.4 0H6.68c-.2.7-.36 1.43-.47 2.17.51.38 1.1.69 1.66.69.65 0 1.34-.2 2.06-.4.8-.22 1.66-.46 2.57-.46.96 0 2 .28 2.73.54A13 13 0 0 1 28 15ZM15.07 29.36a13.16 13.16 0 0 1-.06-1.92 6.2 6.2 0 0 0-2.5-.73c-.74 0-1.32.2-1.93.4-.68.24-1.4.5-2.44.5a5.1 5.1 0 0 1-2.12-.48 18.11 18.11 0 0 0 0 1.81c.56.41 1.23.76 1.85.76.65 0 1.34-.17 2.06-.36.8-.2 1.66-.42 2.57-.42.9 0 1.85.22 2.57.44Z" fill="#0033A0"/></svg>