<!-- by TradingView --><svg width="56" height="56" viewBox="0 0 56 56" xmlns="http://www.w3.org/2000/svg"><path fill="#F0F3FA" d="M0 0h56v56H0z"/><path d="m43.15 16.05-1.07-.49L32.1 11c-.04-.02-.1.06-.1.12l.01.04c.16.08 1.75.9 2.69 1.44.51.3 1.32.8 1.3 1.48.02.56-.33 1.09-.59 1.56-1.84 3.39-3.79 6.39-5.68 9.75-.55 1.01-1.04 2.11-2.34 2.11h-9.05c-.85 0-1.72.07-2.3.76-.65.8-1.12 2.16-1.63 3.05A849.69 849.69 0 0 0 9 41l.68-.13c6.31-11.45 7.64-14.49 0 0l.69-.12c6-10.85 6.98-13.35 0 0l4.78-.89c7.32-14.42 8.01-14.6 0 0l.68-.13c7.01-13.78 7.98-14.47 0 0 4.67-.85-4.6.86 4.02-.74 1.43-2.72 2.83-5.09 4.19-7.85.6-1.22 1.27-2.56 2.78-2.64 3.22 0 6.64.38 9.84-.14 1.22-.2 2.06-1.21 2.72-2.26 1.53-2.35 2.72-4.92 4.12-7.35.23-.4.46-.74.5-1.22.05-.63-.34-1.15-.85-1.48Z" fill="url(#awptjlcya)"/><defs><linearGradient id="awptjlcya" x1="32.17" y1="11" x2="32.17" y2="42.78" gradientUnits="userSpaceOnUse"><stop offset=".12" stop-color="#2E3A9B"/><stop offset=".49" stop-color="#08AFEF"/><stop offset=".9" stop-color="#333695"/></linearGradient></defs></svg>