<!-- by TradingView --><svg xmlns="http://www.w3.org/2000/svg" width="56" height="56"><path fill="#F34" d="M0 0h56v56H0z"/><path fill-rule="evenodd" d="M36.77 39.77c-8.04 5.99-18.49 5.57-23.33-.93-4.08-5.47-2.89-13.51 2.4-19.49-.4-.93-.89-2.72-.23-3.6.85-1.1 2.27-1.13 5.48-.77 7.73-4.64 17-3.83 21.47 2.18 4.84 6.5 2.25 16.62-5.8 22.6zm-3.73 1.08c-4.08 1.66-9.25.2-9.28-4.89-.02-5.1 3.74-5.27 4.15-5.27.41 0 1.36.08 3.92 1.14 2.04.84 3.27-.35 3.63-1.06.67-1.74 2.05-5.34 2.17-5.74V25c.16-.5.35-1.17-.34-1.62-.7-.46-1.72-2.26-1.85-3.18a4.18 4.18 0 00-.7-1.7 10.8 10.8 0 00-4.76-2.96c-1.9-.62-4.65-.7-6.66-.62 6.82-3.34 14.53-2.31 18.4 2.89 4.51 6.05 2.12 15.45-5.34 21-1.08.8-2.2 1.48-3.34 2.04z"/><path fill-rule="evenodd" d="M30.68 41.73s-9.91 1.77-7.3-8.75c-1.9 1.08-2.38 4.18-2.38 4.18-.68-3.55 2.59-8.44 7.58-8 1.02.1 1.83.44 2.6.77.83.35 1.62.68 2.6.68 1.36 0 1.86-2.2 1.86-2.2-1.2.1-3.33.1-3.62-.84-.06-.2.04-.63.62-.63.27.03.48.19.72.37.37.27.8.6 1.6.6.95 0 1.4-1.49 1.51-2.26 0-.04-.07-.14-.16-.27-.15-.21-.35-.49-.35-.68l1.09-.33c-.48-.17-1.79-1.84-2.31-3.86.23-1.65-3.93-4.68-8.77-4.68-1.24 0-2.76.26-3.9.63-.13 0-.45-.08-.88-.2-1.25-.32-3.41-.9-4.42-.3-1.09.62-.47 1.99-.1 2.81.15.34.26.59.2.66-4.99 5.6-6.11 13.19-2.26 18.35 3.44 4.62 9.88 5.98 16.07 3.95zm-16-13.55c.36.06.74-.4.83-1.02.1-.62-.14-1.17-.5-1.23-.38-.05-.75.4-.85 1.03-.09.62.14 1.17.51 1.22zm2.78-4.48c-.39.68-1.05 1.04-1.47.8-.43-.24-.45-1-.06-1.68.4-.68 1.06-1.04 1.48-.8.42.25.45 1 .05 1.68zm8.7-6.47c-.06.33.27.65.71.72.45.06.86-.14.9-.47.06-.33-.27-.65-.71-.72-.45-.07-.85.14-.9.47zm3.26 1.1c-.31-.13-.49-.41-.4-.63.1-.23.42-.3.73-.17.3.12.48.4.39.63-.1.22-.42.3-.72.17zm-2.04 2.58c1.12-.3 3.85-.71 5.83 0-.07.23-.13.81.12 1.3.33.6.36 2.3.18 2.72-.06-1.57-1.38-4.57-6.13-4.02zm-9.92-3.94c-.66.63.34 2.36.93 3.15 1.03-1.95 2.7-2.45 3.4-2.45-.36-.23-3.49-1.48-4.33-.7zM14.4 30.85c.24 0 .44-.27.44-.62 0-.34-.2-.62-.44-.62s-.44.28-.44.62c0 .35.2.62.44.62z" fill="#fff"/></svg>