<!-- by TradingView --><svg width="56" height="56" viewBox="0 0 56 56" xmlns="http://www.w3.org/2000/svg"><path fill="url(#af5fo1gzi)" d="M0 0h56v56H0z"/><path d="M40 13h1v3h3v1h-3v3h-1v-3h-3v-1h3v-3Zm-5 9.22c0 5.47-11.12 8.2-16.67 8.9-1.78 4.76 0 6.47 4.19 6.47 3.35 0 7.16-2.85 8.64-4.27l.9 1.03C30.41 36.57 25.66 41 19.75 41c-5.92 0-6.96-4.43-6.73-6.65C13.03 25.68 23.59 18 30.09 18c4.17 0 5 2.82 4.9 4.22Zm-5.07-3.15c-4.98 0-9.71 7.05-11.1 10.57l.61-.12c1.52-.28 5.14-.94 8.1-2.9 3.5-2.33 4.56-3.99 4.56-5.53s-1.26-2.08-2.17-2.02Z" fill="#fff"/><defs><linearGradient id="af5fo1gzi" x1="28" y1="0" x2="28" y2="56" gradientUnits="userSpaceOnUse"><stop stop-color="#03559F"/><stop offset="1" stop-color="#309AD6"/></linearGradient></defs></svg>