<!-- by TradingView --><svg width="56" height="56" xmlns="http://www.w3.org/2000/svg"><path fill="#C8003F" d="M0 0h56v56H0z"/><path d="M4 27a2 2 0 012-2h3a3 3 0 013 3l.007.005a3 3 0 01-3 3H7.543a1 1 0 110-2h1.464a1 1 0 001-1L10 28a1 1 0 00-1-1H6v6a1 1 0 11-2 0v-6zM14 25a1 1 0 011 1v6h2.5a1 1 0 110 2H15a2 2 0 01-2-2v-6a1 1 0 011-1zm5 2a2 2 0 012-2h3.5a1 1 0 110 2H21v5h5.5a1 1 0 110 2H21a2 2 0 01-2-2v-5z" fill="#fff"/><path d="M22 29.5a1 1 0 011-1h1.5a1 1 0 110 2H23a1 1 0 01-1-1zM26 26a1 1 0 011-1h.485a2 2 0 011.628.837L33.515 32h.985a1 1 0 110 2h-.985a2 2 0 01-1.628-.837L27.485 27H27a1 1 0 01-1-1z" fill="#fff"/><path d="M37.812 26a1 1 0 00-1-1H33.96a2 2 0 00-1.519.698L27.041 32H26.5a1 1 0 100 2h.54a2 2 0 001.519-.698L33.96 27h2.852a1 1 0 001-1z" fill="#fff"/><path d="M37 25a1 1 0 011 1v5.6c0 .22.18.4.4.4h3.2a.4.4 0 00.4-.4V26a1 1 0 112 0v5.6a2.4 2.4 0 01-2.4 2.4h-3.2a2.4 2.4 0 01-2.4-2.4V26a1 1 0 011-1zM45.11 25.542A1 1 0 0146 25h5a1 1 0 110 2h-3.057l3.87 5.419A1 1 0 0151 34h-5.5a1 1 0 110-2h3.557l-3.87-5.419a1 1 0 01-.076-1.039z" fill="#fff"/></svg>