<!-- by TradingView --><svg width="56" height="56" viewBox="0 0 56 56" xmlns="http://www.w3.org/2000/svg"><path fill="#154678" d="M0 0h56v56H0z"/><path d="M37.21 25.02c-2.54.08-5.16.48-7.97 1.21l-2.28.62c-2.92.8-3.74 1.01-4.97 1.3-1.96.47-3.79.78-5.55.95-.9.08-3.12.08-3.87 0a18.4 18.4 0 0 1-2.24-.4c-1.63-.4-2.78-.9-5.22-2.26-.6-.34-1.1-.6-1.1-.6-.03.02.5.5 1.06.93 2.6 2.1 5.52 3.46 8.58 3.99 1.23.21 1.37.22 3.38.23 1.7.02 1.92.01 2.6-.05 2.1-.2 3.74-.5 9.68-1.8l3.63-.8c2.63-.58 4.65-1 5.21-1.11 2.15-.4 4.27-.5 6.14-.28 1.66.19 2.61.47 5.17 1.53a4.8 4.8 0 0 1 1.52.8c.25.12 1.02.35 1.02.3 0-.05-.46-.48-.66-.62a5.93 5.93 0 0 1-1.07-.62c-3.55-2.4-7.84-3.5-13.06-3.32Z" fill="#8DC5E7"/></svg>