<!-- by TradingView --><svg width="56" height="56" viewBox="0 0 56 56" xmlns="http://www.w3.org/2000/svg"><path fill="#F0F3FA" d="M0 0h56v56H0z"/><path d="M7 28h42v.5H7V28Z" fill="#C52035"/><path d="m39.4 20 .2.01c.46 0 .91.1 1.36.23.03.01.06.02.06.07.02.4.09.8.17 1.18.02.06 0 .08-.04.08a.9.9 0 0 1-.19 0c-.05 0-.07-.06-.09-.1-.04-.13-.07-.26-.13-.38a1.02 1.02 0 0 0-.72-.64c-.49-.11-.97-.1-1.43.1-.58.26-.93.73-1.1 1.37a3.63 3.63 0 0 0 .46 2.83 1.96 1.96 0 0 0 2.24.78c.27-.1.47-.28.61-.54l.2-.44c.06-.18.21-.22.38-.13l-.05.16-.3 1.22c-.02.05-.04.05-.07.06-.5.08-.99.13-1.49.14-.4 0-.79-.01-1.17-.14a2.43 2.43 0 0 1-1.65-1.79c-.23-.84-.2-1.67.15-2.46a2.57 2.57 0 0 1 1.9-1.55c.14-.03.28-.03.42-.05l.05-.01h.24ZM29.4 26h-1.94c0-.08-.01-.21 0-.28 0-.03.04-.07.07-.08l.38-.1c.15-.06.2-.15.2-.31l-.08-1.55-.07-1.77a18.1 18.1 0 0 0-.05-.78l-.17.43-1.61 4.25a.75.75 0 0 1-.07.13c-.05.09-.15.07-.18-.02l-1.95-4.87a.17.17 0 0 0-.05-.06v.07l-.05 1.19-.1 2.13-.04.9c0 .14.05.24.15.29.11.05.23.1.34.13.15.05.17.06.15.24V26h-1.6l-.02-.13c0-.1.03-.14.11-.16l.2-.06c.22-.09.27-.17.28-.42l.07-1.67.08-1.97.04-.92c0-.16-.04-.24-.18-.29l-.28-.07c-.1-.02-.12-.05-.12-.16l.02-.14h.12l1 .04.13.01c.1.01.17.07.2.18l.8 1.99c.3.8.62 1.59.93 2.38l.03.07.03-.06 1.61-4.34c.07-.17.17-.22.32-.23l.78-.03.3-.02v.24c0 .02-.05.05-.08.06l-.3.08c-.14.05-.18.13-.18.28l.1 2.06.06 1.59.04.94c0 .14.06.25.19.3l.24.07c.15.04.18.1.16.25l-.02.13ZM44.4 23.13v2.16c0 .19.05.26.2.31l.3.09c.11.03.13.05.13.18l-.01.12H43v-.22c.02-.03.07-.06.11-.07l.3-.09c.17-.06.21-.13.21-.32v-4.57c0-.2-.05-.27-.21-.33l-.3-.08c-.06-.01-.1-.05-.1-.12l.02-.19H45c0 .07.02.14.01.2 0 .07-.04.1-.1.11l-.34.1c-.11.04-.16.14-.16.27v2.05H47v-2c0-.18-.07-.28-.22-.34l-.29-.08c-.08-.02-.1-.04-.1-.13V20h1.97l.02.1c.01.13-.02.18-.13.2l-.3.1c-.12.04-.17.13-.18.26v4.61c0 .2.04.27.22.33l.27.08c.11.03.13.06.13.19l-.02.12H46.4l-.02-.1c-.01-.14.01-.18.14-.21l.32-.1c.1-.04.17-.13.17-.26v-2.2h-2.59ZM11.18 32.6v-1.86c0-.19-.06-.3-.22-.35-.1-.04-.2-.06-.29-.08-.06-.01-.1-.05-.1-.12l.01-.19h1.98l.01.13c.01.13-.02.17-.13.2-.09 0-.18.03-.26.06-.16.05-.18.14-.18.32 0 1.53-.02 3.05 0 4.58 0 .2 0 .26.18.32l.3.1c.08.01.1.04.1.13 0 .16 0 .15-.13.15h-1.87l-.01-.09c-.02-.14 0-.18.13-.21l.32-.1c.1-.03.16-.13.16-.25V33H8.8v2.31c0 .17.04.24.19.3l.32.09c.1.03.11.05.11.16l-.01.14H7.45c-.02 0-.04-.02-.04-.03-.01-.06-.02-.13 0-.2 0-.03.04-.06.07-.07l.36-.1c.13-.05.16-.13.16-.29v-4.6c0-.17-.03-.26-.18-.3-.1-.05-.21-.07-.32-.1-.06-.01-.09-.05-.1-.12l.02-.18h1.97l.02.1c0 .15-.02.19-.16.22l-.3.08c-.1.04-.15.14-.15.26v1.93h2.38ZM24.36 30s1.9-.02 2.85 0a2.63 2.63 0 0 1 2.54 2.14 3.5 3.5 0 0 1-.17 2.17A2.8 2.8 0 0 1 27.07 36h-2.65c-.05 0-.06-.01-.07-.06v-.11c0-.07.03-.1.09-.13l.38-.13c.15-.05.18-.13.18-.3v-4.53c0-.21-.04-.29-.23-.35a3.1 3.1 0 0 0-.32-.08c-.07-.02-.1-.07-.1-.14V30Zm1.42.42v4.77c0 .2.06.29.25.33a3.24 3.24 0 0 0 1.62-.08 1.77 1.77 0 0 0 1.23-1.4c.14-.65.12-1.3-.03-1.94-.09-.4-.25-.73-.52-1.01-.41-.44-.92-.6-1.47-.65-.34-.02-.68-.01-1.02-.02h-.06ZM18.35 26h-.93c-.15 0-.28-.09-.38-.2a2.77 2.77 0 0 1-.32-.4c-.44-.67-.87-1.37-1.3-2.05-.03-.05-.06-.06-.1-.06h-.55V25.23c0 .2.05.28.22.33.13.04.26.08.4.09.16.01.18.1.16.25 0 .02 0 .07-.02.1h-2.2v-.24c.02-.03.06-.07.1-.08.11-.03.23-.05.33-.09.18-.06.24-.14.24-.35v-4.5c0-.21-.07-.3-.26-.36-.1-.04-.2-.05-.3-.07-.09-.02-.12-.04-.12-.13l.01-.18h2.33c.37 0 .74.14 1.05.39.31.24.49.57.54.98.12.83-.38 1.5-.97 1.75l-.06.03.04.07 1.32 2c.16.27.4.4.66.47.12.04.14.07.12.2V26Zm-3.58-5.58v2.5l.47-.01.46-.06c.38-.1.62-.36.68-.79.03-.22.04-.44 0-.65-.06-.44-.26-.74-.65-.9-.31-.12-.63-.08-.96-.09ZM18.77 33c0 .59-.12 1.14-.4 1.65a2.5 2.5 0 0 1-1.34 1.16c-.66.24-1.33.26-2 .01-.78-.29-1.28-.9-1.54-1.74a3.57 3.57 0 0 1-.14-.88 3.2 3.2 0 0 1 .75-2.3 2.42 2.42 0 0 1 2.03-.9 2.62 2.62 0 0 1 2.55 2.16c.06.28.1.56.09.84Zm-2.85-2.57c-.27 0-.53.05-.75.18-.62.35-.9.93-.96 1.65-.02.29 0 .57.03.86.03.43.13.85.31 1.25.31.69.79 1.14 1.53 1.19.35.02.69-.06 1-.27.55-.38.8-.96.84-1.65.02-.28 0-.57-.03-.85a3.5 3.5 0 0 0-.32-1.25c-.35-.72-.9-1.1-1.65-1.11ZM38 35.98c-.16.05-.27.02-.37-.12l-1.7-2.38-1.71-2.37-.05-.06V35.24c0 .18.05.25.21.3.1.05.22.07.33.1.1.02.13.05.12.16l-.01.2h-1.66l-.02-.18c0-.12.03-.16.14-.19l.32-.1c.1-.03.15-.12.15-.24V30.7c0-.2-.05-.27-.22-.32l-.24-.06c-.1-.02-.13-.05-.13-.16l.01-.14.23.01c.27.01.55.03.83.03.15 0 .26.05.36.2l2.93 4.12.05.07v-3.71c0-.2-.05-.29-.24-.34a2.51 2.51 0 0 0-.34-.08c-.07-.01-.1-.06-.1-.13V30h1.67v.2c0 .06-.03.1-.1.11l-.26.07c-.16.05-.2.14-.2.32V35.98ZM43.8 31.57c-.13.08-.29.04-.32-.13-.07-.29-.2-.54-.41-.74-.2-.18-.44-.25-.69-.3a2.38 2.38 0 0 0-1.12.09c-.66.22-1.08.7-1.26 1.4-.24.96-.15 1.88.36 2.73.32.54.8.88 1.39.98.4.06.79.01 1.18-.1h.03v-1.3l-.01-.17c-.02-.12-.07-.21-.18-.25a2.4 2.4 0 0 0-.35-.1.21.21 0 0 1-.14-.3c0-.02.04-.02.06-.02.2 0 .39.02.58.03h.9l.47-.03.02.11c0 .12-.02.2-.15.2-.06 0-.12.02-.18.04-.18.06-.24.16-.24.36v1.51c0 .17-.03.22-.18.25-.26.05-.52.1-.79.12-.38.04-.76.06-1.15.05a2.49 2.49 0 0 1-2.5-1.96c-.2-.83-.17-1.63.17-2.4.4-.89 1.04-1.42 1.93-1.6.34-.06.68-.04 1.02-.02.46.02.9.12 1.34.24.02 0 .05.03.05.05.03.42.09.84.18 1.24v.02ZM31.34 20.01h3.53c.21-.02.25 0 .29.22l.1.74.11.4c-.1.09-.23.06-.3-.08l-.16-.34a.83.83 0 0 0-.75-.5c-.45-.02-.9-.01-1.36-.01h-.03v2.3l.07.01h1.18c.16 0 .23-.05.28-.21l.1-.39c.03-.12.2-.18.27-.1l.01.05-.03 1.22.03.52-.12.01c-.1 0-.14-.04-.16-.14a6.39 6.39 0 0 0-.1-.4c-.05-.12-.14-.18-.27-.18h-1.26v2.08c0 .17.05.27.21.3a10.07 10.07 0 0 0 1.26.07c.37-.01.65-.2.86-.52.09-.14.16-.3.24-.44.05-.1.12-.13.22-.08l.1.06-.12.36-.19.8-.02.07c-.06.16-.08.18-.24.17h-3.75l-.02-.12c0-.12.03-.16.13-.18l.34-.1c.15-.06.21-.14.21-.32v-4.51c0-.14-.04-.29-.16-.33a5.5 5.5 0 0 0-.38-.11c-.12-.03-.14-.07-.14-.2l.02-.12ZM7.4 20h2.23c.3 0 .58.08.85.2.52.23.81.65.9 1.25a1.7 1.7 0 0 1-.93 1.74c-.27.14-.55.2-.84.2h-.75v1.83c0 .17.05.28.2.33.15.05.3.1.47.12.14.02.18.08.16.24 0 .03 0 .05-.02.09-.74-.06-1.48-.07-2.23 0l-.02-.15c0-.1.03-.14.12-.16l.34-.1c.14-.04.12-.12.12-.27v-4.63c0-.15 0-.24-.12-.29l-.38-.1c-.07-.01-.1-.04-.1-.12V20Zm1.46.42v2.6h.47c.16-.02.3-.03.45-.07.37-.1.62-.34.7-.75.05-.31.05-.63-.02-.93a1 1 0 0 0-.7-.79c-.3-.1-.6-.05-.9-.06ZM45 34.16c.2-.08.34-.02.43.17.07.18.14.35.24.52.17.32.43.57.8.66.37.1.74.12 1.1-.04.4-.16.63-.57.59-1a.95.95 0 0 0-.45-.72c-.27-.18-.56-.3-.85-.4a4.22 4.22 0 0 1-1.02-.5c-.4-.3-.61-.69-.63-1.18-.04-.95.64-1.54 1.43-1.64a3.8 3.8 0 0 1 1.73.21l.2.07c.07.02.1.06.1.12l.13 1.05v.02c-.19.07-.33.01-.41-.15a3.68 3.68 0 0 0-.22-.38c-.24-.36-.6-.53-1.04-.56-.28-.01-.55.01-.8.15a.8.8 0 0 0-.1 1.36c.28.22.6.37.94.5.35.15.69.29 1 .49.2.13.4.28.55.48.25.32.3.7.27 1.1-.03.29-.11.56-.28.8-.26.36-.61.56-1.03.64-.83.15-1.63.06-2.4-.3-.06-.04-.08-.08-.08-.15l-.2-1.26v-.06ZM19.57 30h2.19v.23c-.01.06-.06.08-.11.1-.14.02-.29.04-.42.09-.19.06-.22.16-.23.37V35.2c0 .23.01.31.27.36l.16.01h.95c.4 0 .7-.18.88-.56.06-.12.11-.25.15-.38.04-.13.12-.15.22-.1l.09.05c-.05.23-.1.46-.13.68l-.07.57c-.02.13-.05.18-.17.17H19.6c-.04 0-.06-.01-.06-.05v-.07c-.02-.1.01-.16.1-.18l.37-.1c.14-.06.2-.15.2-.3v-4.57c0-.2-.06-.28-.23-.34l-.3-.07c-.1-.02-.13-.07-.13-.17l.02-.15ZM30.4 36l-.02-.08c0-.14 0-.2.15-.23.1-.02.21-.06.31-.1.11-.04.16-.13.16-.25V30.74c0-.22-.05-.3-.24-.36l-.27-.06c-.08-.02-.1-.05-.11-.15v-.07l.02-.1h2v.22c0 .05-.03.08-.08.1-.1.02-.22.04-.33.08-.15.05-.2.14-.2.32v4.57c0 .18.04.25.19.31l.32.1c.09.02.11.05.11.15v.04c0 .11 0 .11-.1.1L30.4 36ZM21.4 26h-1.94c-.06 0-.08-.02-.08-.08v-.07c0-.1.03-.13.12-.16l.29-.07c.16-.06.21-.14.21-.33V20.7c0-.18-.05-.26-.2-.32a2 2 0 0 0-.32-.08c-.07-.02-.1-.06-.1-.13-.01-.17 0-.18.15-.18h1.87l.01.11c0 .15-.02.17-.14.2l-.3.1c-.13.04-.18.13-.18.28v4.63c0 .15.04.22.17.27l.3.1c.14.04.17.09.15.24 0 .02 0 .04-.02.07Z"/></svg>