<!-- by TradingView --><svg width="56" height="56" viewBox="0 0 56 56" xmlns="http://www.w3.org/2000/svg"><path fill="#F0F3FA" d="M0 0h56v56H0z"/><path d="M34.84 38h3.65a15.7 15.7 0 0 1-12.57 6C17.12 44 10 36.84 10 28s7.12-16 15.92-16c5.53 0 10.4 2.7 13.25 7h-3.4c-2.4-2.73-5.93-4-9.85-4A12.75 12.75 0 0 0 13 28c0 7.35 5.7 13 13 13 3.43 0 6.48-.83 8.84-3Z" fill="#5B7E96"/><path d="M22.62 21c.58-1.37 1.5-2.88 2.38-4.05V21h-2.38Zm-1.41 6c.08-1.36.3-2.74.66-4H25v4h-3.8Zm-1.61 0h-4.05c.13-1.4.53-2.8 1.14-4h3.49c-.3 1.26-.5 2.64-.58 4Zm.63-6h-2.7c1.1-1.31 2.5-2.57 4.1-3.25-.55.97-1.02 2.2-1.4 3.25ZM27 16.95A19.8 19.8 0 0 1 29.2 21H27v-4.05ZM25 35v4.06A20.4 20.4 0 0 1 22.62 35H25Zm0-6v4h-3.13a19.15 19.15 0 0 1-.66-4H25Zm-4.82 4h-3.5c-.6-1.2-.99-2.6-1.13-4h4.05c.08 1.36.27 2.74.58 4Zm.05 2c.38 1.05.85 2.28 1.4 3.25a11.83 11.83 0 0 1-4.1-3.25h2.7ZM27 35h2.2a19.81 19.81 0 0 1-2.2 4.06V35ZM45.32 25.44a1.7 1.7 0 0 1-1.68-1.72c0-.95.75-1.72 1.68-1.72.93 0 1.68.77 1.68 1.72a1.7 1.7 0 0 1-1.68 1.72Zm-4.07-.17c-.84 0-1.53-.7-1.53-1.56 0-.87.69-1.56 1.53-1.56.85 0 1.54.7 1.54 1.56 0 .86-.69 1.56-1.54 1.56Zm-3.85-.14a1.4 1.4 0 0 1-1.38-1.41c0-.78.62-1.4 1.38-1.4.76 0 1.38.62 1.38 1.4 0 .78-.62 1.4-1.38 1.4Zm-3.41-.17c-.68 0-1.22-.55-1.22-1.24s.54-1.25 1.22-1.25c.67 0 1.21.56 1.21 1.25s-.54 1.24-1.21 1.24Zm-3.05-.14c-.6 0-1.07-.5-1.07-1.1 0-.6.48-1.1 1.07-1.1.6 0 1.08.5 1.08 1.1 0 .6-.48 1.1-1.08 1.1ZM45.32 34a1.7 1.7 0 0 1-1.68-1.72c0-.95.75-1.72 1.68-1.72.93 0 1.68.77 1.68 1.72A1.7 1.7 0 0 1 45.32 34Zm-4.07-.15c-.84 0-1.53-.7-1.53-1.57 0-.87.69-1.57 1.53-1.57.85 0 1.54.7 1.54 1.57 0 .87-.69 1.57-1.54 1.57Zm-3.85-.16a1.4 1.4 0 0 1-1.38-1.41c0-.78.62-1.4 1.38-1.4.76 0 1.38.62 1.38 1.4 0 .78-.62 1.4-1.38 1.4Zm-3.41-.16c-.68 0-1.22-.56-1.22-1.25s.54-1.24 1.22-1.24c.67 0 1.21.55 1.21 1.24s-.54 1.25-1.21 1.25Zm-3.05-.15c-.6 0-1.07-.5-1.07-1.1 0-.6.48-1.1 1.07-1.1.6 0 1.08.5 1.08 1.1 0 .6-.48 1.1-1.08 1.1Zm14.38-3.67A1.7 1.7 0 0 1 43.64 28c0-.95.75-1.72 1.68-1.72.93 0 1.68.77 1.68 1.72a1.7 1.7 0 0 1-1.68 1.72Zm-4.07-.16c-.84 0-1.53-.7-1.53-1.57 0-.86.69-1.56 1.53-1.56.85 0 1.54.7 1.54 1.56 0 .87-.69 1.57-1.54 1.57Zm-3.85-.15a1.4 1.4 0 0 1-1.38-1.4c0-.79.62-1.42 1.38-1.42.76 0 1.38.63 1.38 1.41 0 .78-.62 1.41-1.38 1.41Zm-3.41-.16c-.68 0-1.22-.56-1.22-1.25s.54-1.24 1.22-1.24c.67 0 1.21.55 1.21 1.24 0 .7-.54 1.25-1.21 1.25Zm-3.05-.15c-.6 0-1.07-.5-1.07-1.1 0-.6.48-1.1 1.07-1.1.6 0 1.08.5 1.08 1.1 0 .6-.48 1.1-1.08 1.1Zm-3.03-.16a.92.92 0 0 1-.91-.94c0-.51.4-.93.91-.93.5 0 .92.42.92.93 0 .52-.41.94-.92.94Z" fill="#5B7E96"/></svg>