<!-- by TradingView --><svg xmlns="http://www.w3.org/2000/svg" width="56" height="56" viewBox="0 0 56 56"><path fill="#007FBE" d="M0 0h56v56H0z"/><path d="M12 23.42V24h2v-2l-2 1.42ZM43 33h2V22h-2v11ZM4 27l2-1c0-2.14-.22-2 3-2l2-.72C11 22 9.2 22 7 22H4v5ZM9 25c0 2.67.4 2.44-3 2.44L4 29v4h2v-4h2.3c1.82 0 2.7-.34 2.7-1.33V24l-2 1ZM17 25.52V25h-2v8h2v-5s0-1 1-1 1 1 1 1v5h2v-3.13c0-2.42-.01-3.38-.61-4.16-.6-.78-2.5-1.05-3.39-.2ZM24 25.53V25h-2v8h2v-5s0-1 1-1 1 1 1 1v5h2v-3.12c0-2.42-.01-3.38-.61-4.16-.6-.78-2.5-1.05-3.39-.2ZM32.01 25c-1.93 0-3 1.28-3 2v.65H31V27c.3-.99 2-.7 2 0 0 .89-.23.83-2.02 1.42-1.66.7-1.98 1.6-1.98 2.58 0 .78.1 1.16.48 1.56.32.34.89.44 1.52.44 1.02 0 1.69-.49 2-.62V33h2v-3.38C35 27 35.15 25 32.01 25Zm.99 5.81c0 .7-.71.74-.71.74-.44 0-1.29 0-1.29-.74v-.62c0-.67 1.29-1.19 2-1.19v1.81ZM36 29c0 3.02.73 4 3 4s3-.94 3-3h-2c0 .9-.13 1.61-1 1.61-1 0-.99-.87-1-2.6-.01-1.75.15-2.38 1-2.38.62 0 1 .32 1 1.37h2c0-1.99-.84-3-3-3-2.66 0-3 1.63-3 4ZM46 28.95c0 2.52.35 4.05 3.35 4.05 1.74-.09 2.36-1.47 2.65-3h-1.87c0 .84-.12 1.52-1.13 1.52-1.01 0-1-1.1-1-1.1V29h4c0-2.1-.26-4-3-4-2.56 0-3 1.87-3 3.95Zm3-2.57c1-.01 1 .7 1 1.62h-2c0-.89 0-1.6 1-1.62ZM12 33h2v-8h-2v8Z" fill="#fff"/></svg>