<!-- by TradingView --><svg width="56" height="56" viewBox="0 0 56 56" xmlns="http://www.w3.org/2000/svg"><path fill="#F0F3FA" d="M0 0h56v56H0z"/><path fill-rule="evenodd" d="M14.8 24.72a.8.8 0 0 0 .78-.81c0-.65-.45-1.91-.45-1.91S14 23.14 14 23.9c0 .46.36.82.8.82ZM5.1 24 4 30h1.73l.41-2H7.3c1.24 0 2.4-.93 2.4-2.46 0-1.22-.97-1.54-1.45-1.54H5.1Zm1.48 1.34-.24 1.38h.8c.3 0 .9-.28.9-.8 0-.41-.38-.56-.57-.58h-.9Zm5.08.66h-1.4l-.8 4h1.52l.29-1.67c.21-.55.7-.76.96-.8h.56l.32-1.53c-.84 0-1.3.24-1.57.72l.12-.72Zm1.27 4h1.53l.78-4h-1.4l-.91 4Zm2.35 0h1.54l.4-2.16c.19-.3.5-.66.84-.66.4 0 .45.38.42.58L18.01 30h1.53a66.35 66.35 0 0 0 .44-2.35c.19-.24.44-.47.7-.47.4 0 .45.38.43.58L20.6 30h1.55c.07-.36.26-1.3.4-2.16.18-1.1.08-1.84-1.03-1.84a2 2 0 0 0-1.53.8c-.08-.5-.37-.8-1.08-.8-.7 0-1.21.41-1.5.76l.14-.76h-1.38l-.89 4Zm12.44-1.66h-3.06c0 .29.16.8.67.8.4 0 .63-.24.7-.36h1.47c-.25.58-1.14 1.22-2.33 1.22-1.19 0-2.03-.57-2.03-1.47S24.05 26 25.9 26c1.86 0 1.92 1.28 1.92 1.6 0 .27-.06.6-.1.74Zm-1.36-.77h-1.43a.78.78 0 0 1 .81-.68c.59 0 .66.45.62.68ZM27.98 30l1.22-6h3.88l-.17.75h-3.26l-.29 1.6h3.06l-.18.65h-3l-.42 2.33h3.28l-.16.67h-3.96Zm6.32-4h-.57l-.84 4h.67l.48-2.6c.32-.4.82-.86 1.35-.86.7 0 .72.57.63.86l-.68 2.6h.68l.52-2.17c.28-1.18-.02-1.83-.89-1.83-.6 0-1.17.38-1.47.65l.12-.65Zm5.68 2.69h.62A2.12 2.12 0 0 1 38.54 30c-1.63 0-1.39-1.74-1.25-2.17.13-.44.8-1.83 2.25-1.83 1.46 0 1.6 1.33 1.25 2.2h-2.95c-.06.42.02 1.26.9 1.26.86 0 1.19-.51 1.24-.77Zm-1.93-1.02h2.19c.08-.39.05-1.16-.8-1.16-.86 0-1.28.77-1.39 1.16Zm4.7-1.67h-.68l-.82 4h.68l.5-2.44c.57-.9 1.2-.94 1.46-.85l.1-.7c-.55-.1-1.08.37-1.4.78l.16-.79Zm.71 4.74h.72c-.03.23.09.67.8.67.87 0 1.2-.7 1.4-1.42l.12-.56c-.31.27-.82.57-1.4.57-.97 0-1.28-.6-1.28-1.31 0-.71.52-2.69 2.19-2.69a1 1 0 0 1 1.02.7l.14-.7h.62l-.82 4.17c-.08.6-.62 1.82-2.07 1.83-1.17 0-1.45-.84-1.44-1.26Zm3.43-3.27c-.1-.4-.34-.9-.88-.9-.85 0-1.52 1.01-1.52 2.12 0 .27.16.8.8.8.62 0 1.18-.69 1.42-1.09l.18-.93ZM48.37 26h.75l.36 3.5L51.2 26h.8l-2.99 5.42c-.1.2-.47.58-1.02.58h-.42l.14-.76a.6.6 0 0 0 .42.18c.2 0 .62-.65.81-.98L48.37 26Z" fill="#11298F"/></svg>