<!-- by TradingView --><svg width="56" height="56" viewBox="0 0 56 56" xmlns="http://www.w3.org/2000/svg"><path fill="#F0F3FA" d="M0 0h56v56H0z"/><path d="M27.2 28.27C16.45 27.59 12.95 37.14 12.54 42c3.08-3.22 12.44-2.73 16.74-2.07 13.4 1.95 17.4-8.3 17.72-13.68-3.3 2.63-6.35 2.87-19.8 2.02Z" fill="#30A86A"/><path d="M25.43 22.17c-10.75-.69-14.26 8.87-14.66 13.73 3.08-3.23 12.44-2.73 16.74-2.08 13.4 1.96 17.4-8.3 17.72-13.67-3.3 2.63-6.36 2.87-19.8 2.02Z" fill="#C7CABF"/><path d="M23.66 16.01C12.91 15.33 9.41 24.88 9 29.75c3.08-3.23 12.44-2.73 16.74-2.08 13.4 1.95 17.4-8.3 17.72-13.67-3.3 2.62-6.35 2.87-19.8 2.01Z" fill="#376E8D"/></svg>