<!-- by TradingView --><svg width="56" height="56" viewBox="0 0 56 56" xmlns="http://www.w3.org/2000/svg"><path fill="#F0F3FA" d="M0 0h56v56H0z"/><path d="M16.43 34.83c.21-1.91.51-3.83.79-5.74L17.2 29H11l.06-1h6.28c.12-.9.25-1.6.38-2.5v-.15c0-.28-.13-.37-.43-.32a4 4 0 0 0-.84.3.72.72 0 0 1-.24.07 2.75 2.75 0 0 1-.17-.42c.17-.11.36-.2.55-.26a11.38 11.38 0 0 1 2.86-.7c.26 0 .31.05.35.29 0 .18 0 .37-.02.56-.03.8-.13 1.6-.23 2.4v.04a.5.5 0 0 0 0 .22l.03-.07.03-.05.06-.12.27-.5a7.3 7.3 0 0 1 1.51-1.95c.4-.38.9-.65 1.47-.77.93-.17 1.67.16 2.07.94.17.36.28.74.31 1.13.06.6.02 1.2-.14 1.86h1.46c.08-.22.15-.27.23-.48.29-.8.77-1.53 1.4-2.14A4.86 4.86 0 0 1 33 24.2c.4.12.75.33 1.04.62.28.28.48.62.58 1 .2.68.17 1.37.06 2.05-.03.09-.04.03-.03.12h1.49c.5-1.88 1.65-2.98 3.89-3.76.7-.25 1.48-.3 2.22-.15.63.14.93.5.9 1.11 0 .27-.06.54-.16.8-.13.3-.28.38-.66.33a.94.94 0 0 1-.09-.4c-.05-.3-.15-.6-.3-.87a.88.88 0 0 0-.47-.45.98.98 0 0 0-.68-.02c-.62.16-1.16.53-1.51 1.03a5.9 5.9 0 0 0-1 2.3 5.9 5.9 0 0 0-.08 2.18c.05.32.16.64.32.93a1.51 1.51 0 0 0 1.42.72 4.08 4.08 0 0 0 2-.7c.21-.13.42-.3.61-.46l.29.34.04.06c-.27.3-.6.56-.95.77-1 .6-2.16.91-3.35.87a2.9 2.9 0 0 1-1.6-.5c-.53-.38-.8-.9-.94-1.5a4.9 4.9 0 0 1-.06-1.53c.01-.04 0-.06-.02-.1H34.4c-.05.05-.08.08-.09.15a5.8 5.8 0 0 1-1.55 2.25 4.84 4.84 0 0 1-2.74 1.2 4.8 4.8 0 0 1-1.56-.07 2.43 2.43 0 0 1-1.97-1.96c-.1-.45-.11-.9-.05-1.35l.01-.22h-1.6c-.13.27-.26.5-.42.76a5.87 5.87 0 0 1-2.94 2.47c-.82.19-.65.13-2.7.34-.05.3-.1.6-.12.9l-.03.23c-.04.32-.08.65-.1.98-.01.16 0 .32.01.47.04.21.11.28.35.29.53.02 1.07 0 1.6 0a4.2 4.2 0 0 1-.08.56h-5c0-.18.03-.36.08-.54.17-.02.35-.03.52-.03a.4.4 0 0 0 .22-.06c.23-.14.16-.32.19-.54Zm13.23-9.44a4.2 4.2 0 0 0-.72 1.37 7.73 7.73 0 0 0-.36 3.36c.03.4.14.8.33 1.18.17.3.4.56.77.66a1.65 1.65 0 0 0 1.4-.28c.38-.3.68-.68.87-1.1.16-.35.3-.71.41-1.08.02-.15.06-.3.1-.46a7.13 7.13 0 0 0 .07-2.88 3.1 3.1 0 0 0-.4-1.03c-.7-.84-1.82-.58-2.47.26ZM18.9 31.94c.42.12.87.11 1.28 0 .8-.2 1.48-.66 1.9-1.3a5.8 5.8 0 0 0 1.1-4.05 1.9 1.9 0 0 0-.25-.84.69.69 0 0 0-.23-.28.77.77 0 0 0-.36-.13c-.2-.01-.4.03-.56.12-.26.13-.49.31-.67.52a7.25 7.25 0 0 0-1.5 2.52 13.73 13.73 0 0 0-.7 3.44ZM46.94 29l.06-1h-4.8c0 .25-.06.76-.03 1h4.77Zm-6.19-1h-1.33c-.03.25-.05.74-.05 1h1.33l.05-1Zm-10.97 0h1.33c0 .25-.02.75-.06 1h-1.33l.06-1Zm-9.27 1h1.32c.03-.25.05-.75.04-1h-1.33c0 .1 0 .4-.02.5a2 2 0 0 0 0 .5Z" fill="#10689F"/><path d="M12.65 38.9a9.46 9.46 0 0 1-1.5-.67c-.77-.4-1.46-.9-2.08-1.48a6.32 6.32 0 0 1-1.77-6.64c.37-1.22.96-2.36 1.74-3.38 1.06-1.4 2.3-2.65 3.7-3.71a30.94 30.94 0 0 1 6.68-3.9 38.2 38.2 0 0 1 12.32-3.04 28.37 28.37 0 0 1 6.87.33c1.51.27 2.98.75 4.36 1.43a9.07 9.07 0 0 1 2.87 2.2c.17.2.33.4.46.63.26.36.47.75.62 1.17l-.15-.22A8.2 8.2 0 0 0 43.9 19c-1-.56-2.08-1-3.2-1.29a21.19 21.19 0 0 0-3.85-.65c-1.4-.11-2.8-.12-4.19-.02-2.42.17-4.83.59-7.17 1.25-2.3.63-4.54 1.5-6.67 2.58a26.75 26.75 0 0 0-5.94 4.02 15.8 15.8 0 0 0-2.85 3.35 8.9 8.9 0 0 0-1.25 3.07 6 6 0 0 0 1.78 5.64c.82.8 1.78 1.44 2.84 1.9.22.1.45.18.68.27l.63.23a18.5 18.5 0 0 0 2.51.66l-.15-.02H17a15.38 15.38 0 0 1-4.34-1.07Z" fill="#10689F"/></svg>