<!-- by TradingView --><svg width="56" height="56" viewBox="0 0 56 56" xmlns="http://www.w3.org/2000/svg"><path fill="url(#aqqsb0sjs)" d="M0 0h56v56H0z"/><path fill-rule="evenodd" d="M16.3 35c.53 0 .96-.3 1.2-.55V35H19V23h-1.5v2.5c-.3-.28-.72-.5-1.22-.5-1.05 0-1.29.94-1.28 1.4v7.18c0 .75.49 1.42 1.3 1.42Zm1.2-8.4v6.8c-.25.17-.5.23-.62.23h-.02c-.28 0-.5-.25-.5-.57v-6.09c0-.3.22-.56.5-.56h.05c.28 0 .47.09.59.2ZM6 25h1.5v.52A1.8 1.8 0 0 1 8.7 25c.81 0 1.3.64 1.3 1.34v6.8c0 .45-.23 1.34-1.28 1.34-.5 0-.91-.2-1.22-.48v2H6V25Zm1.5 7.96v-6.44c.25-.16.5-.22.62-.22h.02c.28 0 .5.24.5.54v5.77c0 .3-.22.54-.5.54h-.05a.88.88 0 0 1-.59-.2Zm16-3.91H22v-2.18c0-.26-.1-.47-.34-.47h-.32c-.24 0-.34.21-.34.47v6.29c0 .26.1.47.34.47h.32c.24 0 .34-.21.34-.47V30.7h1.5v2.7c0 .88-.66 1.6-1.47 1.6h-1.06c-.81 0-1.47-.72-1.47-1.6v-6.8c0-.88.66-1.6 1.47-1.6h1.06c.81 0 1.47.72 1.47 1.6v2.45Zm1.9-.47H24v-2.06c0-.84.64-1.52 1.43-1.52h1.05c.84 0 1.52.72 1.52 1.62V35h-1.46v-.55c-.24.25-.68.55-1.33.55h-.07c-.63 0-1.14-.55-1.14-1.23v-2.92c-.01-.32.16-1.04.9-1.3l1.64-.62v-2c0-.31-.24-.57-.54-.57h-.07c-.3 0-.54.26-.54.57v1.65Zm1.14 1.67v3.12c-.19.14-.47.3-.7.3-.33 0-.44-.33-.45-.5v-2.04c0-.32.19-.49.29-.54l.86-.34ZM33 26.51V29h-1.44v-2.06c0-.31-.24-.57-.53-.57h-.11c-.3 0-.53.26-.53.57v1.35c0 .27.19.48.28.55.4.28 1.28.9 1.64 1.18.37.27.61.93.69 1.22v2.16c0 .88-.67 1.6-1.5 1.6h-1c-.83 0-1.5-.72-1.5-1.6v-2.16h1.4v1.96c0 .26.19.47.43.47h.33c.24 0 .44-.21.44-.47v-1.32c0-.5-.25-.77-.38-.84-.34-.23-1.16-.78-1.63-1.16a1.7 1.7 0 0 1-.58-1.26v-2.11c0-.83.63-1.51 1.41-1.51h1.12c.78 0 1.46.68 1.46 1.5ZM34 24h1.5v1h.83v1.5h-.83V35H34v-8.5h-.42V25H34v-1Z" fill="#fff"/><path fill-rule="evenodd" d="M10.5 33.74v-6.6C10.5 18.78 17.37 12 25.75 12 34.13 12 41 18.78 41 27.14v6.6c0 .7-.57 1.26-1.26 1.26h-1.57c-.8 0-1.44-.65-1.44-1.44v-7.08c0-.8.65-1.48 1.44-1.48h1.04c-.93-6.76-6.53-11.34-13.36-11.34h-.29c-6.83 0-12.5 4.58-13.43 11.34h1.05c.8 0 1.44.7 1.44 1.49v7.07c0 .8-.64 1.44-1.44 1.44h-1.42c-.7 0-1.26-.56-1.26-1.26Zm1.43-.7V26.5h.84c.25 0 .45.2.45.46v6.08c0 .25-.2.46-.45.46h-.39a.46.46 0 0 1-.45-.46Zm27.58 0V26.5h-.84c-.25 0-.45.2-.45.46v6.08c0 .25.2.46.45.46h.39c.25 0 .45-.2.45-.46ZM43 25.56a1.8 1.8 0 0 1 1.27-.56c.95 0 1.23.78 1.23 1.29V35H44v-8.09c.02-.18.04-.5-.35-.5-.2 0-.44.1-.65.23V35h-1.5V25H43v.55Zm7 5.04h-2.6v2.46c0 .31.25.57.54.57h.16c.3 0 .53-.26.53-.57v-1.53H50v1.96c0 .84-.64 1.51-1.42 1.51h-1.16c-.78 0-1.42-.67-1.42-1.5v-6.9c0-.88.68-1.6 1.51-1.6h.98c.83 0 1.51.72 1.51 1.6v4Zm-2.6-3.73c0-.26.2-.47.44-.47h.36c.25 0 .45.2.45.47v2.43h-1.26v-2.43Z" fill="#E31D1A"/><defs><linearGradient id="aqqsb0sjs" x1="10.42" y1="9.71" x2="68.15" y2="76.02" gradientUnits="userSpaceOnUse"><stop stop-color="#1A1E21"/><stop offset="1" stop-color="#06060A"/></linearGradient></defs></svg>