<!-- by TradingView --><svg width="56" height="56" xmlns="http://www.w3.org/2000/svg"><path fill="#0B1F8F" d="M0 0h56v56H0z"/><path d="M4 33.003v-1.006h2v-9.996H4V21h4.998v1H7v9.997h2v1.006H4zM11 33.003h-.989v-7.875l.989-.124v1.32-.45c.09-.058 1.202-.455 1.34-.518.14-.064.294-.12.462-.169.174-.054.36-.098.559-.132.198-.034.4-.051.603-.051.392 0 .693.056.961.183.273.122.437.31.606.545.169.235.288.518.357.85.075.333.112.704.112 1.115v5.306L15 33v-6c-.035-.19-.104-.413-.199-.535-.089-.128-.379-.277-.532-.335-.154-.06-.6-.105-.908-.039a5.99 5.99 0 00-.559.145 2.995 2.995 0 00-.513.198l-.542.214c-.154.098-.618.264-.747.357v5.998zM22.501 26.352a3.003 3.003 0 00-.32-.132 4.456 4.456 0 00-.387-.118 3.782 3.782 0 00-.41-.08 2.64 2.64 0 00-.387-.022c-.526 0-1.1.126-1.318.282-.219.152-.328.381-.328.69 0 .204.057.51.201.646.144.132.477.279.706.386.228.107.476.208.754.306.283.093.597.199.865.33.194.093.425.196.624.323s.498.43.498.43.178.293.278.508c.099.215.149.457.149.726 0 0 0 .507-.247.91-.17.341-.4.62-.693.835-.288.21-.495.386-.887.483a5.07 5.07 0 01-1.244.147c-.169 0-.36-.017-.573-.051a5.928 5.928 0 01-.64-.125 5.584 5.584 0 01-.611-.205 2.571 2.571 0 01-.484-.25l.484-.813c.119.059.26.115.424.169a7.667 7.667 0 001.02.227c.174.02.328.046.462.046.228 0 .447-.039.655-.083.214-.049.377-.07.585-.19.17-.098.316-.21.385-.32.081-.13.117-.377.126-.53a.808.808 0 00-.119-.477 1.134 1.134 0 00-.313-.36 2.403 2.403 0 00-.454-.293 7.158 7.158 0 00-.551-.249 35.517 35.517 0 00-.596-.249 5.538 5.538 0 01-1.087-.608c-.159-.118-.3-.25-.424-.396a1.84 1.84 0 01-.298-.491 1.681 1.681 0 01-.112-.63c0-.372.067-.69.201-.954.134-.268.323-.486.566-.652a2.55 2.55 0 01.879-.367 4.981 4.981 0 011.12-.117c.189 0 .387.015.57.044.184.03.36.069.529.117a2.826 2.826 0 01.82.352l-.418.805zM31 25.151l1-.146v7.999h-1v-.725l-.271.151c-.09.06-.408.182-.532.246-.119.063-.245.13-.399.184-.153.049-.383.085-.567.12-.184.034-.702.024-.905.024-.397 0-1.03-.073-1.318-.215-.283-.141-.538-.327-.671-.51C26.136 32 26 31.917 26 31.29v-6.125l1-.161v5.102c0 .527-.014 1.117.2 1.416.218.293.663.34 1.126.376.548.041.832.013 1.225-.062.31-.06.54-.145.693-.228a1.79 1.79 0 00.485-.396c.103-.126.234-.305.271-.492v-5.57zM36 30.12c0 .322.025.881.06 1.1.04.216.094.392.164.529a.724.724 0 00.268.286c.109.053.233.08.372.08.11 0 .209-.005.298-.015a1.84 1.84 0 00.23-.05c.075-.02.142-.026.202-.05l.616.584a.9.9 0 01-.194.132 2.659 2.659 0 01-.715.242c-.149.03-.31.044-.484.044-.447 0-.64.007-.917-.154-.278-.161-.475-.31-.629-.588-.154-.278-.21-.44-.271-1.104v-9.78l1-.375v9.119zM45 31.912c-.154.157-.323.3-.506.433a3.338 3.338 0 01-.611.344 3.581 3.581 0 01-.745.213c-.268.054-.572.1-1.088.1-1.018-.1-1.296-.384-1.565-.516-.27-.132-.734-.691-.842-.866a5.568 5.568 0 01-.53-1.212c-.134-.498-.113-.998-.113-1.54 0-.543.067-.87.067-.87.065-.342.16-.692.288-1 .13-.308.344-.643.344-.643.221-.355.528-.597.786-.787.258-.191.49-.324.812-.432.328-.112.537-.136.929-.136.536 0 .673.07 1.065.242.392.171.796.504.975.718.18.215.2.215.443.637.112.196.228.513.253.83.024.316.038 1.04.038 1.04v.53h-5.002c0 .366.023.924.122 1.242.104.317.248.596.432.835.184.235.431.435.431.435s.502.415.982.479c.48.063.64.045.862 0 .311-.064.412-.111.58-.175.17-.069.298-.124.402-.193.11-.068.132-.072.192-.11l.999.402zm-1-3.914s.02-.516-.044-.75c-.065-.235-.125-.4-.26-.572-.128-.175-.27-.357-.474-.455-.203-.097-.568-.22-.846-.22-.333 0-.886.066-1.124.174-.234.102-.457.304-.62.47-.16.161-.33.515-.33.515s-.134.337-.212.584l-.043.254H44zM49 30.137v.886c0 .334.036.512.11.65.073.138.149.252.253.31.11.054.32.132.459.132.109 0 .208-.005.297-.015.09-.014.167-.031.231-.05.075-.02.142-.042.201-.067l.556.616a.903.903 0 01-.194.133 2.678 2.678 0 01-.714.241c-.15.03-.314.027-.488.027-.36-.027-.722-.08-.898-.212-.15-.113-.38-.275-.535-.553-.153-.279-.226-.422-.276-.98V26H47v-1h1.002v-2l.998-.516V25L52 25l-.149 1-2.851.002v4.135z" fill="#fff"/></svg>