<!-- by TradingView --><svg width="56" height="56" xmlns="http://www.w3.org/2000/svg"><path fill="url(#paint0_linear)" d="M0 0h56v56H0z"/><path d="M48 26c-1.07-.069-2 .695-2 2.052V32h-1v-7h1v1c.465-.728 1.292-1.076 2-.983V26zM43 30c-.484 1.425-1.836 2-3.438 2C37.57 32 36 30.73 36 28.511 36 26.583 37.121 25 39.492 25 41.862 25 43 26.142 43 29h-6c.148 1.388 1.573 2.005 2.563 2.002C40.551 31 41.761 30.7 42 30h1zm-1-2c-.27-1.103-1.043-2-2.5-2s-2.203.86-2.5 2h5zM32.504 30L34 25h1l-2 7h-1l-1.5-5-1.5 5h-1l-2-7h1l1.5 5 1.5-5h1l1.504 5zM25 28.526C25 30.446 23.489 32 21.5 32c-1.973 0-3.5-1.553-3.5-3.474C18 26.583 19.527 25 21.5 25c1.989 0 3.5 1.576 3.5 3.526zm-1 0C24 27.03 22.8 26 21.508 26 20.224 26 19 26.979 19 28.526 19 30.074 20.224 31 21.508 31 22.8 31 24 30.023 24 28.526z" fill="#fff"/><path d="M12.548 29H8.453C8.198 29 8 28.773 8 28.5c0-.281.205-.5.453-.5h4.095c.255 0 .453.227.453.5.007.281-.198.5-.453.5z" fill="#0091DA"/><path d="M10.485 36a.485.485 0 01-.485-.488V29.88a.49.49 0 01.394-.48c.228-.046.515.076.606.29.417.984 1.313 1.625 2.375 1.625 1.456 0 2.625-1.198 2.625-2.664C16 27.186 14.839 26 13.375 26c-1.009 0-1.92.553-2.375 1.461-.121.244-.483.338-.718.216a.497.497 0 01-.22-.664c.622-1.244 1.933-2.01 3.313-2.01 1.994 0 3.625 1.634 3.625 3.648 0 2.015-1.623 3.648-3.625 3.648-.903 0-1.73-.336-2.375-.916v4.121a.512.512 0 01-.515.496z" fill="#fff"/><defs><linearGradient id="paint0_linear" x1="10.418" y1="9.712" x2="68.147" y2="76.017" gradientUnits="userSpaceOnUse"><stop stop-color="#1A1E21"/><stop offset="1" stop-color="#06060A"/></linearGradient></defs></svg>