<!-- by TradingView --><svg width="56" height="56" viewBox="0 0 56 56" xmlns="http://www.w3.org/2000/svg"><path fill="#F0F3FA" d="M0 0h56v56H0z"/><path d="m15.51 14.7 22.64-3.65a4.18 4.18 0 0 1 4.49 5.8l-12.4 27.68a4.21 4.21 0 0 1-7.05.96 4.1 4.1 0 0 1-.62-1.03L12.33 20.42a4.52 4.52 0 0 1-.27-.9c-.05-.31-.07-.62-.05-.94a4.23 4.23 0 0 1 1.77-3.18 4.6 4.6 0 0 1 1.74-.7ZM33 28.6v-8.93c0-1-.66-1.68-2-1.68H23v.82l1 .53v17.3l-1 .52V38h5v-.83l-1-.53V30h4.13c.96.09 1.97-.37 1.86-1.39ZM30 29h-3V19h3v10Z" fill="#0F5A3E"/></svg>