<!-- by TradingView --><svg xmlns="http://www.w3.org/2000/svg" width="56" height="56" viewBox="0 0 56 56"><path fill="url(#a0ns0sfgv)" d="M0 0h56v56H0z"/><path d="M6 27h8.5v-.13c0-1.03-.82-1.87-1.82-1.87H6v2zm11.8-2h-2.3v2H27v-.6c0-.77-.66-1.4-1.46-1.4H23.2c-.42 0-.8.17-1.06.43a1.31 1.31 0 0 0-.97-.43h-2.15c-.54 0-1.01.34-1.22.83V25zm10.7 0h2.07v.3c.2-.19.46-.3.74-.3h1.95c.36 0 .68.18.9.46.27-.28.66-.46 1.1-.46h2.37c.82 0 1.48.63 1.48 1.4v.6H28.5v-2zm13.35 0c-1.02 0-1.85.84-1.85 1.87V27h9v-.13c0-1.03-.83-1.87-1.85-1.87h-5.3z" fill="#fff"/><path fill-rule="evenodd" d="M52 28H7.03c-.57 0-1.03.4-1.03.88v1.24c0 .49.46.88 1.03.88h7.47v-1.65l.2-.03c.28-.03.69-.08.8-.12V31h3v-1.78l.3-.01c.74-.03 2.06-.08 2.2-.12V31h2v-1.95l2-.07V31h2v-2h1.5v2H31v-2.19l2-.08V31h2v-2.33l2-.09V31h2v-2.53h1v1.65c0 .49.91.88 1.48.88h6.25c.57 0 1.27-.4 1.27-.88v-1.98c1.36.02 1.99.02 3-.14zm-6 .34c-.77.07-2.32.14-3 .17v1.31c0 .1.08.18.17.18h2.66c.1 0 .17-.08.17-.18v-1.48zm-38 .94c0-.16.17-.28.37-.28h4.13v1H8.37c-.2 0-.37-.12-.37-.28v-.44z" fill="url(#b0ns0sfgv)"/><defs><linearGradient id="a0ns0sfgv" x1="10.42" y1="9.71" x2="68.15" y2="76.02" gradientUnits="userSpaceOnUse"><stop stop-color="#1A1E21"/><stop offset="1" stop-color="#06060A"/></linearGradient><linearGradient id="b0ns0sfgv" x1="29" y1="26.01" x2="29" y2="31" gradientUnits="userSpaceOnUse"><stop stop-color="#fff"/><stop offset="1" stop-color="#4B4B4D"/></linearGradient></defs></svg>