<!-- by TradingView --><svg width="56" height="56" xmlns="http://www.w3.org/2000/svg"><path fill="#F0F3FA" d="M0 0h56v56H0z"/><path d="M42 14H14v28h28V14z" fill="#002D5B"/><path d="M20 38h11v-.586h-1.334c-.502 0-2.666.206-2.666-1.97v-4.94c.837.083 2.583.083 3.755.083 4.27 0 7.703-2.763 7.703-6.195 0-3.517-2.065-6.392-7.424-6.392H20v1h1.675c1.256 0 1.293.787 1.293 1.122v16.075c0 .67-.25 1.217-1.59 1.3H20V38z" fill="#fff"/><path d="M22.968 36.03H24.14c1.173 0 2.345-.503 3.266-1.256v-.503c-1.005.754-2.763 1.507-4.438 1.256v.503z" fill="#811427"/><path d="M22.968 32.262c.084 0 .252-.084.252-.084 2.26-.67 4.605-2.093 7.451-5.358 1.34-1.507 3.098-4.103 5.526-5.945.503.586.837 1.926-.335 3.6-1.172 1.675-2.512 2.512-3.935 2.345-.167 0-.335-.168-.418-.168-.168-.084-.335-.167-.42 0-.166.168.085.335.336.335.418.084.67.084.92.084 1.508 0 3.266-.837 4.27-2.177 1.006-1.423.754-3.265-.083-4.103.168-.167.419-.25.67-.418l-.251-.335c-.251.167-.503.251-.754.418-.418-.502-1.674-1.255-3.6-1.34-3.684-.167-7.033 1.34-9.377 3.35l-.252.251v1.089c.084-.084.084-.168.168-.168l.084-.084c2.511-2.595 5.86-4.27 9.377-4.102 1.758.083 2.847.67 3.35 1.172-2.345 1.507-4.522 3.935-6.615 6.196-2.01 2.177-4.02 3.851-6.112 4.772-.084 0-.168.084-.252.084v.586z" fill="#7A303F"/><path d="M37.202 20.373s.67-.335 1.088-.503c.42-.167.67-.167.67-.25 0-.168-.418-.168-.837 0-.335.083-.754.25-1.172.418h-.084l.335.335zM27.406 34.774c.25-.252.586-.503.837-.754.502-.502.921-1.172 1.088-1.842.084-.167.084-.418 0-.418-.167-.084-.502.92-1.088 1.674l-.837.837v.503zM22.968 22.717l-.418.419c-2.177 2.26-3.517 5.274-3.517 7.87 0 .586 0 .921.168 1.507-.838.084-1.424 0-2.093 0-.67 0-1.843.168-1.759.754.084.25 1.005.335 2.68-.084.586-.167.92-.251 1.34-.335.502 1.675 1.925 2.763 3.683 3.014v-.418c-1.507-.252-2.763-1.089-3.265-2.68 0 0 2.26-.335 3.265-.586v-.586c-1.088.502-2.093.586-3.349.754-.167-.419-.167-.921-.084-1.507.084-2.345 1.172-4.69 3.517-7.117l-.168-1.005z" fill="#fff"/></svg>