<!-- by TradingView --><svg width="56" height="56" xmlns="http://www.w3.org/2000/svg"><path fill="#D9212A" d="M0 0h56v56H0z"/><path d="M45 40c-7.504-2.366-12.757-3.494-15.124-3.47 2.8-4.91 2.971-8.79 1.89-12.031-3.412-10.24-12.13-8.89-14.511-6.753 2.725-.933 4.665-.295 4.91-.196-3.805.343-7.66 2.995-7.44 8.201 2.161-3.708 10.044-5.869 13.752 1.13 1.35 2.553 1.522 5.942 0 9.625-1.966.025-9.07.784-17.477 3.494v1.057c8.695-2.111 18.062-4.095 34-.037V40zM26.88 16.297c.909-.663.958-.687 1.916-1.375-.516.909-.492 1.915-.123 2.456l1.989-3.954c-.958-.54-3.242-.86-4.96 1.056.859-.098 1.67-.196 2.406-.295-1.031.663-1.179 1.523-1.228 2.112z" fill="#F6F8FD"/><path d="M33.97 30.001c5.88-7.912 4.688-12.606.467-14.807.414-1.21.233-2.323.233-2.323l-1.994 1.936L32.004 12l-1.71 3.17S31.666 20.056 33.97 30z" fill="#F6F8FD"/></svg>