<!-- by TradingView --><svg width="56" height="56" viewBox="0 0 56 56" xmlns="http://www.w3.org/2000/svg"><path fill="#F0F3FA" d="M0 0h56v56H0z"/><path d="M24.42 13.03c6.13.04 8.42 5.71 8.8 8.55-2.75-2.43-7-2.95-8.8-2.9-9.85.34-13.32 7.45-13.82 10.97.2-8.22 6.16-16.67 13.82-16.62Z" fill="#1B2B57"/><path d="M40.87 20.15c1.77 5.93-2.93 9.8-5.5 11 1.49-3.37.72-7.63.15-9.34-3.22-9.41-10.97-10.67-14.44-10.12 7.83-2.23 17.58 1.05 19.8 8.46Z" fill="#1D4688"/><path d="M38.97 37.91c-5.05 3.52-10.14.2-12.06-1.91 3.63.4 7.41-1.65 8.85-2.72 7.88-5.98 6.68-13.82 5.1-16.99 4.5 6.84 4.41 17.22-1.9 21.62Z" fill="#1A53A2"/><path d="M21.76 41.8c-4.84-3.79-3.23-9.7-1.83-12.18.72 3.62 3.8 6.64 5.24 7.7 8.02 5.79 15.06 2.27 17.57-.2-5.1 6.4-14.92 9.43-20.98 4.69Z" fill="#416DAC"/><path d="M12.87 26.33c2.06-5.83 8.12-6.13 10.9-5.55-3.19 1.81-5.08 5.7-5.62 7.42-2.94 9.5 2.56 15.16 5.67 16.8-7.6-2.9-13.53-11.38-10.95-18.67Z" fill="#6B84BA"/></svg>