<!-- by TradingView --><svg width="56" height="56" viewBox="0 0 56 56" xmlns="http://www.w3.org/2000/svg"><path fill="#F0F3FA" d="M0 0h56v56H0z"/><path d="M26.68 11h2.46c2.2.13 4.38.42 6.5 1a8.4 8.4 0 0 1 6.3 7.15c.08.62.05 1.25.06 1.87v9.33c.01.92-.05 1.84-.22 2.74a14.53 14.53 0 0 1-2.88 6.23 22.58 22.58 0 0 1-5.53 4.96 30.92 30.92 0 0 1-5.2 2.72h-.33a29.72 29.72 0 0 1-7.1-4.06 20.14 20.14 0 0 1-4.27-4.5 14.1 14.1 0 0 1-2.25-5.35c-.1-.49-.14-1-.22-1.49V19.55a8.37 8.37 0 0 1 6.04-7.47c1.9-.53 3.86-.86 5.83-1 .27-.03.54-.04.8-.08Zm-.55 31.5c-.16.12-.36.19-.54.28.2.07.41.12.56.27.18.16.24.4.33.6.1-.21.15-.45.33-.61.17-.14.38-.2.57-.29-.21-.07-.45-.13-.61-.31-.65-.66.07-.51-.64.06Zm1.4 1.33c-.25.28-.63.36-.98.48.24.15.54.16.77.34.38.24.6.67.66 1.1l.12-.01c.07-.43.28-.86.66-1.1.23-.17.53-.17.76-.33-.25-.1-.52-.14-.74-.3a1.44 1.44 0 0 1-.58-.73c-.05-.15-.07-.32-.19-.44-.1.35-.2.73-.48.99Z" fill="#153A51"/><path d="M20.44 12.99c5-1.34 10.36-1.32 15.36.07a7.25 7.25 0 0 1 4.36 3.56c.64 1.19.9 2.8.83 4.15a16.63 16.63 0 0 1-7.79-2.14 15.27 15.27 0 0 1-4.85-4.28c-.18-.22-.57-.2-.74.03a14.98 14.98 0 0 1-4.42 4A16.6 16.6 0 0 1 15 20.77c0-.6-.02-1.45.1-2.03a7.2 7.2 0 0 1 5.34-5.75Z" fill="#AADDE2"/><path d="M27.9 16.13c.12-.09.25.01.34.1a16.9 16.9 0 0 0 4.3 3.44c.09.05.17.13.18.24-.05.16-.18.25-.28.36-.25.24-.48.5-.73.73a.32.32 0 0 1-.44 0c-.27-.24-.5-.52-.77-.75-.15-.14-.39-.09-.52.06-.59.58-1.16 1.18-1.76 1.76a.3.3 0 0 1-.44 0c-.6-.57-1.17-1.17-1.76-1.75-.13-.15-.36-.21-.52-.08-.29.23-.52.54-.8.78-.13.11-.34.08-.44-.05l-.9-.9c-.13-.11-.08-.32.08-.38 1.46-.83 2.8-1.86 3.96-3.08.17-.16.3-.36.5-.48Z" fill="#fff"/><path d="M20.94 20.78c.24-.08.47-.2.73-.26.2-.04.34.12.47.24l1.9 1.87c.14.15.36.3.56.18.37-.24.6-.63.97-.87.19-.08.33.09.45.2l1.54 1.53c.13.11.26.26.45.25.16 0 .28-.12.4-.23l1.61-1.6c.1-.1.26-.23.42-.14.36.24.6.63.96.87.2.09.4-.03.53-.17l1.9-1.87c.11-.1.22-.23.38-.26.15-.02.28.04.41.1 1.9.76 3.94 1.19 6 1.3.19 0 .37.14.37.34.02.67 0 1.34 0 2 .02.68-.22 1.35-.64 1.89a6.23 6.23 0 0 1-2.22 1.68 17.4 17.4 0 0 1-3.73 1.24c-2.26.5-4.58.72-6.89.68-.41-1.08-.8-2.18-1.2-3.26-.07-.22-.32-.38-.54-.28-.17.06-.23.26-.3.41l-.8 2.18c-.1.27-.18.55-.32.8-.11-.22-.2-.47-.28-.71l-2.29-6.19c-.06-.17-.15-.37-.35-.4-.22-.06-.41.1-.47.3l-2.71 7.33c-.37-.82-.63-1.7-.97-2.53-.06-.19-.27-.32-.47-.26-.2.04-.27.24-.33.4l-1.29 3.5c-.04.13-.1.25-.16.36l-.03-.78V22.4c0-.16.01-.34.17-.43.2-.09.43-.06.64-.08a18.5 18.5 0 0 0 5.13-1.1Z" fill="#BCC9CE"/><path d="M21.19 26.07c.07-.15.1-.4.33-.36.14 0 .18.16.23.26l1.76 4.87c.08.23.19.45.21.69-.01.2-.1.38-.17.57-.9 2.45-1.77 4.91-2.67 7.36-.39-.15-.74-.38-1.1-.6-.9-.57-1.76-1.26-2.44-2.1 1.26-3.57 2.58-7.12 3.85-10.69Z" fill="#83953C"/><path d="M40.13 27.9c.1-.1.24-.16.38-.2.01.4-.2.76-.38 1.1a7.31 7.31 0 0 1-3.34 2.87c-2.14 1-4.48 1.53-6.83 1.74-.3.02-.6.06-.9.03-.21-.02-.29-.24-.35-.4l-.48-1.33c-.05-.18-.14-.38-.03-.55.1-.14.28-.13.42-.14 1.95-.04 3.9-.26 5.8-.68 1.23-.28 2.45-.64 3.6-1.16a9.38 9.38 0 0 0 2.1-1.27Z" fill="#54B8D6"/><path d="M25.85 29.63c.2-.11.33.11.38.28l3 8.27c.32.94.7 1.86.99 2.81-2.74.4-5.6.06-8.16-.98l.1-.33 3.38-9.38c.1-.22.14-.49.3-.67Z" fill="#9AAF47"/><path d="M17.01 30.6a.2.2 0 0 1 .32.08c.15.3.25.63.36.95.09.2 0 .42-.07.61-.4 1.07-.77 2.15-1.17 3.21-.22-.3-.35-.64-.5-.98-.1-.24-.23-.5-.12-.76.33-.9.66-1.8.97-2.7.06-.14.1-.3.21-.42Z" fill="#6C7C32"/><path d="M39.63 31.34c.2-.17.38-.36.6-.52.16.18 0 .4-.06.58a8.1 8.1 0 0 1-3.71 3.75 17.62 17.62 0 0 1-5.76 1.83c-.2.02-.45.07-.58-.12-.15-.26-.22-.56-.33-.84-.1-.33-.27-.64-.34-.98-.03-.13.04-.28.17-.31.24-.06.5-.06.74-.08 2.19-.22 4.36-.71 6.38-1.57 1.03-.45 2.03-1 2.89-1.74Z" fill="#4099BC"/><path d="M39.79 34.2c.09-.11.21-.19.36-.2-.02.12-.03.24-.07.36a9.04 9.04 0 0 1-3.31 4.14 15.07 15.07 0 0 1-4.81 2.16c-.16.02-.38.12-.48-.05-.13-.19-.18-.42-.26-.63l-.44-1.21c-.05-.16-.11-.37.04-.49.3-.12.62-.12.92-.19a17.7 17.7 0 0 0 5.86-2.14c.8-.5 1.55-1.06 2.19-1.75Z" fill="#2B76A0"/><path d="m26.45 41.91.06.01c.07.18.12.38.26.52.16.18.4.24.61.31-.2.09-.4.15-.57.29-.18.16-.24.4-.33.61-.09-.2-.15-.44-.33-.6-.15-.15-.37-.2-.56-.27.18-.1.38-.16.54-.28.18-.15.24-.38.32-.59Z" fill="#DBC9A2"/></svg>