<!-- by TradingView --><svg width="56" height="56" viewBox="0 0 56 56" xmlns="http://www.w3.org/2000/svg"><path fill="#F0F3FA" d="M0 0h56v56H0z"/><path d="M28 11c2.23 7.96 12 15.34 12 24.97 0 3.68-2.83 7-6 9.03 6.21-2.73 11-8.92 11-16.29.12-9.75-7.5-17.6-17-17.71ZM16 36.05C16 26.4 25.9 19.11 28 11a17.19 17.19 0 0 0-13.16 6.56A17.51 17.51 0 0 0 11 28.66c0 7.4 4.71 13.6 11 16.34-2.91-1.9-6-5.13-6-8.95Z" fill="#53565A"/><path d="M19 33.77c1.04-7.08 8.08-12.59 9-18.77.92 6.18 7.96 11.69 9 18.77-1.27 1.8-4.85 3.23-9 3.23-4.27-.11-7.73-1.54-9-3.23Z" fill="url(#ano2o3oka)"/><path d="M28 44a9.18 9.18 0 0 1-7-3c1.7.93 4.18 1.45 7 1.45 2.82 0 5.3-.62 7-1.45a9.36 9.36 0 0 1-7 3Z" fill="url(#bno2o3oka)"/><path d="M28 38.63c4.33 0 7.86-1.63 9-3.63v.38c0 .87-.11 1.74-.34 2.62-1.48 1.75-4.79 3-8.66 3s-7.3-1.25-8.66-3a9.69 9.69 0 0 1-.34-2.63V35c1.14 2.13 4.67 3.63 9 3.63Z" fill="url(#cno2o3oka)"/><defs><linearGradient id="ano2o3oka" x1="19.3" y1="21.53" x2="34.5" y2="41.49" gradientUnits="userSpaceOnUse"><stop offset=".28" stop-color="#0076CF" stop-opacity=".3"/><stop offset=".74" stop-color="#0076CF"/></linearGradient><linearGradient id="bno2o3oka" x1="19.48" y1="23.32" x2="33.22" y2="42.51"><stop offset=".74" stop-color="#0076CF"/></linearGradient><linearGradient id="cno2o3oka" x1="19.52" y1="19.76" x2="36.85" y2="39.97" gradientUnits="userSpaceOnUse"><stop offset=".28" stop-color="#0076CF" stop-opacity=".3"/><stop offset=".74" stop-color="#0076CF"/></linearGradient></defs></svg>