<!-- by TradingView --><svg xmlns="http://www.w3.org/2000/svg" width="56" height="56" viewBox="0 0 56 56"><path fill="#218ACB" d="M0 0h56v56H0z"/><path d="M29.09 31.84c.3 5.1-2.23 9.76-3.93 12.01A16.04 16.04 0 0 1 12 28.05c0-4.7 2.01-8.92 5.22-11.86 5.42 7.2 2.05 15.07-.36 18.16h3.33c5.23-7.4.66-15.23-2.54-18.54a16.01 16.01 0 0 1 3.37-2.2l-.05.06c13.87 5.22 16.26 16.76 15.72 21.88l4-1.47c.42-12.93-12.51-19.13-19.24-20.68A16.03 16.03 0 0 1 44 28.05C44 36.3 37.8 43.1 29.82 44c1.31-1.66 2.41-4.33 2.5-8.45.16-7.98-6.74-16.17-10.2-19.27l.02.03c3.06 3.96 6.53 8.44 6.95 15.53Z" fill="#fff"/></svg>