<!-- by TradingView --><svg width="56" height="56" xmlns="http://www.w3.org/2000/svg"><path fill="#0163A0" d="M0 0h56v56H0z"/><path d="M44 20.954v17.495a1.34 1.34 0 01-.615 1.057l-.577.343-4.394 2.522L35 44.428V25.506l-16.666-9.468 7.836-4.484.722-.408a1.368 1.368 0 011.23 0l10.862 6.23 5.012 2.874v.704H44zm-13 6.651l-3.22-1.941-7.915-4.539a1.39 1.39 0 00-1.23 0l-7.024 4.028-.611.353 12 6.83V46l6.767-4.024.618-.343A1.357 1.357 0 0031 40.576v-12.97zM11 39.17l8 4.727v-9.461l-8 4.734z" fill="#45C328"/></svg>