<!-- by TradingView --><svg width="56" height="56" viewBox="0 0 56 56" xmlns="http://www.w3.org/2000/svg"><path fill="#324A83" d="M0 0h56v56H0z"/><path d="m7.44 26.35.02.27a.3.3 0 0 0 .08.16c.05.04.1.06.18.08.07.02.17.03.29.03V27H6.33v-.11l.26-.04a.29.29 0 0 0 .16-.1c.03-.04.05-.1.06-.17l.01-.3v-2.62l-.01-.26a.27.27 0 0 0-.07-.15.3.3 0 0 0-.15-.09 1.71 1.71 0 0 0-.26-.04V23H7.9c.3 0 .56.04.8.13.24.08.42.2.54.33.16.18.23.4.23.64a1.1 1.1 0 0 1-.58.96c-.13.07-.28.12-.44.15-.17.03-.37.05-.6.05h-.21l-.2-.01v1.1Zm0-1.35a8 8 0 0 0 .34.02c.7 0 1.04-.3 1.04-.89 0-.31-.1-.54-.28-.69-.2-.14-.5-.21-.9-.21-.08 0-.14.01-.16.04-.02.02-.04.08-.04.16V25ZM27 24.84v-1.18c0-.1-.01-.2-.03-.26a.28.28 0 0 0-.07-.16.28.28 0 0 0-.16-.08 1.93 1.93 0 0 0-.28-.04V23h1.68v.12l-.28.04a.31.31 0 0 0-.17.08.3.3 0 0 0-.07.16l-.01.26v2.69c0 .1 0 .2.02.26a.3.3 0 0 0 .07.15c.04.04.1.07.16.09l.28.04V27h-1.68v-.11c.11 0 .2-.02.28-.03a.3.3 0 0 0 .16-.1c.04-.04.06-.1.07-.18.02-.08.03-.18.03-.3V25.1h-1.85v1.25c0 .1 0 .2.02.26a.3.3 0 0 0 .08.15c.04.04.1.07.16.09l.28.04V27H24v-.11c.12 0 .22-.02.29-.03a.3.3 0 0 0 .16-.1c.03-.04.06-.1.07-.18l.02-.3v-2.62c0-.1-.01-.2-.03-.26a.28.28 0 0 0-.07-.16.28.28 0 0 0-.16-.08 1.94 1.94 0 0 0-.28-.04V23h1.69v.12l-.28.04a.31.31 0 0 0-.17.08.33.33 0 0 0-.07.16l-.02.26v1.18H27ZM8 33H6.53v-.11h.12a1.2 1.2 0 0 0 .14-.03l.06-.02a.18.18 0 0 0 .06-.07.16.16 0 0 0 .02-.08c0-.1-.04-.23-.11-.4l-.24-.57H5.07l-.27.69-.04.12v.11c0 .08.02.14.09.18.06.05.16.07.3.07v.1H4v-.1a.4.4 0 0 0 .33-.17l.17-.29.22-.52L5.92 29h.12l1.44 3.37.12.26c.04.07.07.12.11.16.04.03.08.06.12.07.05.02.1.02.17.03v.1Zm-1.5-1.52-.67-1.64-.67 1.64H6.5ZM41.83 30.3a2.5 2.5 0 0 0-.17-.43 1.44 1.44 0 0 0-.23-.29 1.27 1.27 0 0 0-.9-.36c-.2 0-.4.05-.58.13-.18.08-.33.2-.45.35a1.6 1.6 0 0 0-.29.55 2.55 2.55 0 0 0 .04 1.6c.1.25.23.45.4.6a1.7 1.7 0 0 0 1.63.17c.22-.1.43-.25.66-.46l.1.1c-.18.24-.41.42-.7.55-.28.13-.59.19-.93.19-.3 0-.57-.05-.81-.14a1.83 1.83 0 0 1-1.04-1.02c-.1-.24-.15-.5-.15-.8 0-.34.06-.64.18-.9.12-.28.3-.5.53-.69.18-.14.39-.25.61-.33.23-.08.46-.12.7-.12.29 0 .58.05.87.14.1.04.18.05.24.05s.1-.01.15-.05a.26.26 0 0 0 .1-.14h.12l.06 1.3h-.14ZM12.43 27H9.77v-.08c.09 0 .16-.02.22-.03.05-.01.1-.03.13-.06a.22.22 0 0 0 .06-.12.87.87 0 0 0 .02-.19v-2.03c0-.08 0-.14-.02-.2a.2.2 0 0 0-.06-.11.3.3 0 0 0-.13-.06 1.3 1.3 0 0 0-.22-.03V24h2.62v.64h-.1l-.09-.24a.33.33 0 0 0-.12-.15.5.5 0 0 0-.21-.06l-.34-.02h-.67c-.06 0-.1.01-.13.03-.02.02-.03.06-.03.12v1.04h.76l.24-.01a.34.34 0 0 0 .15-.06.28.28 0 0 0 .1-.13l.05-.22h.12v1.03H12a1.4 1.4 0 0 0-.05-.22.27.27 0 0 0-.1-.13.31.31 0 0 0-.14-.06 1.61 1.61 0 0 0-.25-.02h-.76v1.1a.4.4 0 0 0 0 .1l.04.05.16.03.32.02h.14c.17 0 .32-.01.44-.03a.9.9 0 0 0 .3-.09c.1-.04.17-.1.23-.18.06-.07.13-.17.19-.3h.14l-.23.76ZM16.26 27H15v-.08h.11a1.23 1.23 0 0 0 .12-.02l.05-.02a.14.14 0 0 0 .05-.05.1.1 0 0 0 .02-.06.77.77 0 0 0-.1-.3l-.2-.43h-1.3l-.22.52a.43.43 0 0 0-.04.18c0 .05.03.1.08.13s.14.05.26.05V27h-.98v-.08c.06 0 .1-.01.15-.03a.33.33 0 0 0 .13-.1 8.97 8.97 0 0 0 .33-.6L14.5 24h.1l1.23 2.53.1.2c.03.05.06.09.1.11.03.03.06.05.1.06l.14.02V27Zm-1.28-1.14-.57-1.23-.57 1.23h1.14ZM19.6 27h-.8l-1.18-1.42h-.27v.94l.01.2c.01.04.03.08.07.11a.3.3 0 0 0 .13.06c.06.02.13.02.23.03V27h-1.37v-.08l.22-.03c.06-.02.1-.04.13-.07a.24.24 0 0 0 .06-.13l.01-.22v-1.98l-.01-.19a.21.21 0 0 0-.06-.12.26.26 0 0 0-.13-.06 1.57 1.57 0 0 0-.22-.03V24h1.36c.25 0 .46.03.65.09.2.06.34.14.43.23.06.06.1.13.14.21.02.08.04.17.04.26 0 .2-.07.36-.21.48-.14.11-.37.2-.68.26l1.01 1.18c.07.07.14.12.2.15s.14.05.23.06V27Zm-2.25-1.58a7.69 7.69 0 0 0 .52-.03 1.48 1.48 0 0 0 .35-.12c.1-.04.16-.1.2-.2a.6.6 0 0 0 .08-.3c0-.2-.07-.36-.22-.45-.14-.1-.37-.15-.69-.15-.1 0-.16 0-.2.03-.03.02-.04.07-.04.13v1.1ZM22.63 26.23l-.24.77h-2.65v-.08c.08 0 .16-.02.21-.03.06-.01.1-.03.13-.06a.22.22 0 0 0 .07-.12.86.86 0 0 0 .01-.19v-2.03l-.01-.2a.2.2 0 0 0-.06-.11.3.3 0 0 0-.14-.06 1.3 1.3 0 0 0-.21-.03V24h1.38v.09c-.1 0-.17.01-.23.03a.25.25 0 0 0-.14.06.22.22 0 0 0-.07.12.87.87 0 0 0-.01.19V26.75l.07.05.13.02h.55c.21 0 .39-.01.52-.06a.82.82 0 0 0 .35-.2 3.19 3.19 0 0 0 .21-.33h.13ZM30.27 24a1.74 1.74 0 0 1 1.2.49c.12.13.22.28.28.45.07.17.1.36.1.56 0 .22-.04.42-.12.6-.08.2-.19.35-.33.48a1.5 1.5 0 0 1-.51.31c-.2.07-.41.11-.65.11-.24 0-.46-.04-.66-.11a1.4 1.4 0 0 1-.84-.79 1.57 1.57 0 0 1 0-1.22 1.5 1.5 0 0 1 .85-.77c.21-.07.43-.11.68-.11Zm-.05.15a.94.94 0 0 0-.39.09.98.98 0 0 0-.32.22.83.83 0 0 0-.14.2 1.78 1.78 0 0 0-.18.83c0 .27.04.5.12.7.07.2.18.36.32.46a1 1 0 0 0 .61.2 1 1 0 0 0 .65-.24c.27-.23.4-.6.4-1.13 0-.26-.04-.48-.12-.68-.08-.2-.19-.34-.33-.45-.18-.13-.39-.2-.62-.2ZM35.02 26.25l-.24.75h-2.65v-.08c.09 0 .16-.01.21-.03.06 0 .1-.03.13-.06a.21.21 0 0 0 .07-.11.82.82 0 0 0 .01-.19v-2.05l-.01-.19a.2.2 0 0 0-.06-.11.3.3 0 0 0-.14-.07 1.32 1.32 0 0 0-.21-.02V24h1.38v.09l-.23.02a.26.26 0 0 0-.14.07.21.21 0 0 0-.07.11.83.83 0 0 0-.01.19v2.27l.07.05.13.03h.55c.21 0 .39-.02.53-.06.14-.05.25-.11.34-.2a3.1 3.1 0 0 0 .21-.32h.13ZM35.63 24.48l-.01-.2a.18.18 0 0 0-.06-.1.24.24 0 0 0-.13-.07 2.33 2.33 0 0 0-.23-.02V24h1.33c.31 0 .59.03.83.1.25.06.45.16.62.28.17.12.3.27.39.45.09.18.13.43.13.66a1.34 1.34 0 0 1-.54 1.16c-.15.1-.35.2-.6.26-.23.06-.49.09-.76.09h-1.4v-.08l.23-.02.13-.06a.21.21 0 0 0 .06-.12.83.83 0 0 0 .01-.19v-2.05Zm.5 2.18c0 .07.02.12.06.15.03.02.1.03.2.03.22 0 .4-.01.55-.04.16-.03.3-.07.42-.14.4-.2.6-.62.6-1.14 0-.24-.04-.51-.15-.7-.1-.18-.25-.33-.45-.45a1.38 1.38 0 0 0-.42-.16 2.73 2.73 0 0 0-.55-.05c-.1 0-.17.02-.2.04-.04.02-.05.07-.05.13v2.33ZM39.3 24.48c0-.08 0-.15-.02-.2a.18.18 0 0 0-.07-.11.3.3 0 0 0-.14-.06 2.39 2.39 0 0 0-.25-.02V24h1.46v.09c-.1 0-.18 0-.25.02a.3.3 0 0 0-.15.06.2.2 0 0 0-.06.12.85.85 0 0 0-.02.19v2.05c0 .08 0 .14.02.2.01.04.03.08.07.11.03.03.08.05.15.06l.24.02V27h-1.46v-.08c.1 0 .18 0 .25-.02a.3.3 0 0 0 .14-.06.2.2 0 0 0 .07-.11.87.87 0 0 0 .02-.2v-2.05ZM43.36 27l-2.19-2.46v1.82l.02.27c.02.07.04.13.08.17.03.04.08.07.14.09l.23.03V27h-1.16v-.08c.1 0 .18-.02.24-.03a.26.26 0 0 0 .15-.1c.03-.03.05-.09.07-.16l.01-.27v-2.03l-.12-.12a.37.37 0 0 0-.1-.08.33.33 0 0 0-.11-.03.68.68 0 0 0-.14-.01V24h.85l1.9 2.17v-1.53c0-.26-.05-.43-.15-.49a.4.4 0 0 0-.12-.04 1.28 1.28 0 0 0-.2-.02V24h1.15v.09l-.21.02a.44.44 0 0 0-.11.05c-.1.06-.15.22-.15.48V27h-.08ZM47.53 25.48a.93.93 0 0 0-.18.03.21.21 0 0 0-.1.05.19.19 0 0 0-.05.1l-.01.15v.89a.92.92 0 0 1-.22.1 3.2 3.2 0 0 1-1.02.2c-.28 0-.53-.04-.76-.12-.23-.08-.43-.2-.6-.34a1.23 1.23 0 0 1-.3-.45 1.5 1.5 0 0 1-.1-.56 1.48 1.48 0 0 1 1-1.42 2.38 2.38 0 0 1 1.36-.02c.1.04.17.06.22.06.05 0 .1-.02.14-.05a.2.2 0 0 0 .08-.1h.1l.05.92h-.11a4.32 4.32 0 0 0-.17-.3.82.82 0 0 0-.18-.2 1.1 1.1 0 0 0-.72-.25c-.18 0-.34.03-.5.1-.15.05-.27.14-.38.26-.1.1-.18.25-.24.43a1.72 1.72 0 0 0 0 1.11 1.13 1.13 0 0 0 .66.67 1.53 1.53 0 0 0 1.01.01c.06-.02.1-.05.14-.08.04-.03.06-.07.06-.1v-.7c0-.08 0-.15-.02-.2a.17.17 0 0 0-.06-.1.24.24 0 0 0-.13-.06 1.5 1.5 0 0 0-.23-.03v-.08h1.26v.08ZM49.95 24.93h-.12a2.09 2.09 0 0 0-.13-.3 1.51 1.51 0 0 0-.18-.21.86.86 0 0 0-.6-.24.6.6 0 0 0-.37.1.35.35 0 0 0-.14.3c0 .12.06.23.17.33.11.1.3.22.55.34.33.16.57.32.71.47a.7.7 0 0 1 .22.49c0 .1-.02.21-.08.31a.8.8 0 0 1-.2.25 1.27 1.27 0 0 1-.72.23 1.93 1.93 0 0 1-.72-.13.42.42 0 0 0-.1-.02.12.12 0 0 0-.1.04.16.16 0 0 0-.04.1h-.11l-.15-.92h.12c.12.27.26.47.42.6.16.11.35.17.57.17.19 0 .33-.04.44-.13.11-.09.17-.2.17-.35a.47.47 0 0 0-.07-.26 1.08 1.08 0 0 0-.28-.25 3.47 3.47 0 0 0-.45-.26 2.83 2.83 0 0 1-.35-.2c-.1-.05-.18-.12-.25-.19a.65.65 0 0 1-.18-.45c0-.24.1-.43.3-.57.07-.06.16-.1.26-.13a.9.9 0 0 1 .29-.05 1.86 1.86 0 0 1 .66.13.5.5 0 0 0 .1.02c.07 0 .12-.05.15-.15h.1l.1.93ZM10.81 30.98a1.76 1.76 0 0 0-.14-.33 1.11 1.11 0 0 0-.52-.42 1.26 1.26 0 0 0-.89.02 1.05 1.05 0 0 0-.6.68c-.06.16-.08.34-.08.54 0 .25.03.47.11.66.08.2.2.34.33.45a1.52 1.52 0 0 0 1.34.13 2 2 0 0 0 .54-.34l.09.07a1.5 1.5 0 0 1-.58.41c-.23.1-.48.15-.77.15a2 2 0 0 1-.67-.11c-.2-.07-.37-.17-.52-.3A1.37 1.37 0 0 1 8 31.53c0-.25.05-.48.15-.68.1-.2.24-.37.43-.51A1.82 1.82 0 0 1 9.65 30c.25 0 .49.04.73.1.08.03.14.04.2.04a.2.2 0 0 0 .2-.14h.1l.05.98h-.12ZM14.66 33.7h-.2c-.4 0-.74-.03-1.03-.13-.3-.08-.52-.22-.7-.4l-.22-.23a2.8 2.8 0 0 1-.41-.16c-.06-.02-.1-.06-.15-.1a1.4 1.4 0 0 1-.58-1.18 1.42 1.42 0 0 1 .96-1.4c.2-.06.42-.1.65-.1.24 0 .45.04.65.11s.37.18.51.3a1.48 1.48 0 0 1 .45 1.08 1.4 1.4 0 0 1-.71 1.29 1.59 1.59 0 0 1-.35.14l-.23.05.3.29a1.68 1.68 0 0 0 .67.32c.12.03.25.04.39.04v.08Zm-1.7-3.55a.97.97 0 0 0-.84.5l-.1.25a1.7 1.7 0 0 0-.09.6c0 .25.04.49.12.69.08.2.18.35.32.46.18.13.38.19.61.19.15 0 .28-.03.4-.08a.87.87 0 0 0 .46-.41 1.9 1.9 0 0 0 .19-.86c0-.26-.04-.49-.12-.68-.08-.2-.19-.35-.33-.46-.18-.13-.38-.2-.62-.2ZM17.82 31.83c0 .17-.01.3-.04.42-.02.1-.06.2-.12.3-.2.3-.56.45-1.1.45-.43 0-.74-.1-.94-.27-.2-.18-.3-.46-.3-.84v-1.41c0-.08 0-.15-.02-.2a.2.2 0 0 0-.06-.1.24.24 0 0 0-.13-.07 1.49 1.49 0 0 0-.23-.02V30h1.4v.09c-.1 0-.19.02-.25.03a.27.27 0 0 0-.13.06.21.21 0 0 0-.07.1l-.01.2v1.44c0 .14 0 .25.03.34.02.09.05.17.1.24.13.2.37.3.72.3.19 0 .36-.02.5-.09a.67.67 0 0 0 .32-.24.67.67 0 0 0 .08-.24c.02-.09.03-.21.03-.36v-1.23c0-.11 0-.2-.02-.27a.33.33 0 0 0-.07-.16.26.26 0 0 0-.13-.09.98.98 0 0 0-.23-.03V30h1.14v.09c-.1 0-.18.02-.25.04a.3.3 0 0 0-.14.08.33.33 0 0 0-.07.16v1.47ZM19 30.48c0-.09-.02-.15-.04-.2a.18.18 0 0 0-.06-.11.31.31 0 0 0-.15-.06 2.39 2.39 0 0 0-.25-.02V30h1.47v.09c-.1 0-.2 0-.25.02a.31.31 0 0 0-.15.06.2.2 0 0 0-.07.12.85.85 0 0 0-.02.19v2.05c0 .08 0 .14.02.2.01.04.04.08.07.1.04.03.09.05.15.07l.25.02V33H18.5v-.08l.25-.02a.3.3 0 0 0 .14-.06.2.2 0 0 0 .07-.12c.02-.05.04-.11.04-.2v-2.04ZM22.42 30.93h-.12a2.08 2.08 0 0 0-.13-.3 1.51 1.51 0 0 0-.18-.2.86.86 0 0 0-.6-.25.6.6 0 0 0-.37.1.35.35 0 0 0-.14.3c0 .11.06.23.17.33.11.1.3.22.55.34.33.16.57.31.71.46.15.15.22.32.22.5 0 .1-.02.21-.08.3a.8.8 0 0 1-.2.26c-.1.07-.2.12-.33.17-.12.04-.25.06-.4.06a1.93 1.93 0 0 1-.71-.14.43.43 0 0 0-.1-.01.13.13 0 0 0-.1.04.16.16 0 0 0-.04.1h-.1l-.16-.92h.12c.12.27.26.46.42.59.16.12.35.18.57.18.19 0 .33-.04.44-.13.11-.1.17-.2.17-.35a.47.47 0 0 0-.07-.26 1.08 1.08 0 0 0-.28-.25 3.45 3.45 0 0 0-.45-.26 2.82 2.82 0 0 1-.35-.2c-.1-.06-.18-.12-.25-.2a.65.65 0 0 1-.18-.45c0-.23.1-.42.3-.56.07-.06.16-.1.26-.13a.9.9 0 0 1 .29-.05 1.87 1.87 0 0 1 .66.13l.1.01c.07 0 .12-.04.15-.14h.1l.11.93ZM23.46 30.48l-.01-.2a.18.18 0 0 0-.07-.11.31.31 0 0 0-.15-.06 2.4 2.4 0 0 0-.25-.02V30h1.47v.09c-.1 0-.19 0-.25.02a.31.31 0 0 0-.15.06.2.2 0 0 0-.07.12.84.84 0 0 0-.02.19v2.05l.02.2c.02.04.04.08.07.1.04.03.09.05.15.07l.25.02V33h-1.47v-.08l.25-.02a.3.3 0 0 0 .15-.06.2.2 0 0 0 .07-.12.87.87 0 0 0 .01-.2v-2.04ZM25.57 30.18c-.13 0-.25 0-.34.02a.5.5 0 0 0-.21.08c-.06.04-.1.1-.14.17l-.09.29h-.12l.03-.74h2.78l.03.74h-.12a1.44 1.44 0 0 0-.1-.29.4.4 0 0 0-.12-.17.47.47 0 0 0-.22-.08l-.34-.02h-.27v2.35c0 .08 0 .14.02.19.01.05.03.08.07.11.03.03.08.05.14.06l.24.03V33h-1.43v-.08c.1 0 .18-.02.24-.03.06 0 .1-.03.14-.06a.23.23 0 0 0 .06-.13c.02-.06.02-.13.02-.23v-2.29h-.27ZM28.21 30.48c0-.09 0-.15-.02-.2a.18.18 0 0 0-.06-.11.31.31 0 0 0-.15-.06 2.39 2.39 0 0 0-.25-.02V30h1.47v.09c-.1 0-.19 0-.25.02a.31.31 0 0 0-.15.06.2.2 0 0 0-.07.12.85.85 0 0 0-.02.19v2.05c0 .08 0 .14.02.2.02.04.04.08.07.1.04.03.09.05.15.07l.25.02V33h-1.47v-.08l.25-.02a.3.3 0 0 0 .15-.06.2.2 0 0 0 .06-.12.87.87 0 0 0 .02-.2v-2.04ZM31.14 30a1.74 1.74 0 0 1 1.21.49c.12.13.22.28.28.45.07.17.1.36.1.56 0 .22-.04.42-.12.6-.08.19-.19.35-.33.48a1.5 1.5 0 0 1-.51.3 1.88 1.88 0 0 1-1.3 0 1.4 1.4 0 0 1-.84-.79 1.57 1.57 0 0 1 0-1.2c.08-.19.19-.35.33-.48.15-.13.32-.23.52-.3.2-.07.42-.11.66-.11Zm-.04.15a.94.94 0 0 0-.39.09.98.98 0 0 0-.32.22.83.83 0 0 0-.14.2 1.8 1.8 0 0 0-.18.83c0 .26.04.5.11.7.08.2.2.35.33.46a1 1 0 0 0 .61.19 1 1 0 0 0 .65-.23c.27-.23.4-.61.4-1.14 0-.25-.04-.47-.12-.67-.08-.2-.19-.34-.33-.45-.18-.13-.39-.2-.62-.2ZM35.88 33l-2.18-2.46v1.82l.01.27c.02.07.04.12.08.16.03.05.08.07.14.1l.23.03V33H33v-.08c.1-.01.19-.02.25-.04a.27.27 0 0 0 .14-.09c.03-.04.06-.1.07-.16l.02-.27v-2.03a2.2 2.2 0 0 0-.13-.12.37.37 0 0 0-.1-.08.33.33 0 0 0-.11-.03.68.68 0 0 0-.14-.01V30h.85l1.9 2.16v-1.52c0-.26-.05-.43-.15-.49a.4.4 0 0 0-.12-.04 1.29 1.29 0 0 0-.2-.02V30h1.15v.09l-.2.02a.43.43 0 0 0-.12.05c-.1.06-.11.22-.11.48V33h-.12ZM44.19 30a1.74 1.74 0 0 1 1.2.49c.13.13.22.28.29.45.06.17.1.36.1.56 0 .22-.04.42-.12.6a1.5 1.5 0 0 1-.84.78 1.88 1.88 0 0 1-1.3 0 1.4 1.4 0 0 1-.84-.79 1.57 1.57 0 0 1 0-1.2c.07-.19.19-.35.33-.48s.31-.23.51-.3c.2-.07.43-.11.67-.11Zm-.04.15a.93.93 0 0 0-.4.09.98.98 0 0 0-.32.22.84.84 0 0 0-.13.2 1.8 1.8 0 0 0-.19.83c0 .27.04.5.12.7.08.2.19.36.32.46a1 1 0 0 0 .62.2 1 1 0 0 0 .64-.24c.27-.23.4-.6.4-1.14 0-.25-.04-.47-.12-.67-.07-.2-.18-.34-.33-.45-.18-.13-.38-.2-.61-.2ZM49.24 33h-.8l-1.17-1.46-.27.01v.98l.01.19c.01.05.03.09.06.12a.3.3 0 0 0 .14.06l.23.02V33h-1.37v-.08c.1 0 .17-.02.22-.03.06-.01.1-.03.13-.07a.23.23 0 0 0 .06-.12l.01-.22v-2l-.01-.19a.2.2 0 0 0-.06-.11.26.26 0 0 0-.13-.06 1.6 1.6 0 0 0-.22-.03v-.1h1.36c.25 0 .46.04.65.1.2.05.34.13.43.23.06.05.1.12.13.2a.7.7 0 0 1 .05.25c0 .2-.07.35-.21.47-.14.11-.37.2-.68.25l1.01 1.23c.07.07.14.12.2.15l.23.05V33ZM47 31.4a7.93 7.93 0 0 0 .52-.04 1.5 1.5 0 0 0 .35-.12c.09-.04.16-.1.2-.19a.58.58 0 0 0 .08-.3c0-.2-.07-.35-.22-.44-.14-.1-.37-.15-.7-.15-.09 0-.15.01-.19.04-.03.02-.04.06-.04.12v1.07ZM50.32 32.53c0 .08 0 .14.02.2.01.04.03.08.06.11.04.03.09.05.15.06l.24.02V33H49.4v-.08c.1 0 .17-.02.22-.03.06-.01.1-.03.13-.07a.21.21 0 0 0 .05-.12l.01-.22v-2l-.01-.2a.19.19 0 0 0-.06-.1.26.26 0 0 0-.12-.06 1.59 1.59 0 0 0-.22-.03v-.1h1.3c.25 0 .47.04.66.1.2.06.35.14.45.24.13.13.19.28.19.46a.7.7 0 0 1-.13.4.87.87 0 0 1-.35.3c-.1.04-.22.08-.36.1-.14.03-.3.04-.5.04h-.17l-.17-.01v.91Zm0-1.09a7.7 7.7 0 0 0 .28.02c.57 0 .86-.22.86-.64 0-.23-.08-.4-.24-.5-.15-.1-.4-.16-.74-.16-.06 0-.1.01-.13.03-.02.02-.03.06-.03.12v1.13Z" fill="#fff"/></svg>