<!-- by TradingView --><svg width="56" height="56" viewBox="0 0 56 56" xmlns="http://www.w3.org/2000/svg"><path fill="#F0F3FA" d="M0 0h56v56H0z"/><path fill-rule="evenodd" d="M5 20H4v10h1v-4.44c.6.87 1.58 1.44 2.68 1.44A3.41 3.41 0 0 0 11 23.5c0-1.93-1.48-3.5-3.32-3.5-1.1 0-2.08.57-2.68 1.44V20Zm0 3.5a2.5 2.5 0 1 0 5 0 2.5 2.5 0 0 0-5 0Z" fill="#1C2EE5"/><path fill-rule="evenodd" d="M20 36h1v-7h-1v2.7c-.42-.43-1-.7-1.64-.7A2.43 2.43 0 0 0 16 33.5c0 1.38 1.06 2.5 2.36 2.5.64 0 1.22-.27 1.64-.7v.7Zm0-2.5a1.5 1.5 0 1 0-3 0 1.5 1.5 0 0 0 3 0Z" fill="#2D2829"/><path d="M13 20h-1v1h1v5h-1v1h4v-1h-2v-3.64c.37-.8 1.05-1.36 1.83-1.36.97 0 1.8.87 2.04 2H19c-.28-1.71-1.52-3-3-3-.76 0-1.46.34-2 .9V20h-1ZM27 21.35V20h-1v7h1v-5c.23-.4.8-1 1.27-1s.66.33.73.5V27h1v-5c.23-.4.8-1 1.27-1s.66.33.73.5V27h1v-5.5c-.04-.43-.63-1.5-1.4-1.5-.6 0-1.32.9-1.6 1.35v.15c-.04-.43-.63-1.5-1.4-1.5-.6 0-1.32.9-1.6 1.35Z" fill="#1C2EE5"/><path d="M5 32.35V36H4v-5h1v.51c.24-.27.54-.51.82-.51.53 0 .83.36 1 .74.25-.34.65-.74 1-.74.96 0 1.15 1.16 1.18 1.5V36H8v-3.5l-.03-.08c-.04-.17-.11-.42-.4-.42-.2 0-.4.17-.59.38l.02.12V36H6v-3.5a.96.96 0 0 1-.03-.09c-.04-.16-.11-.41-.41-.41-.18 0-.38.16-.56.35ZM40 32.54V36h-1v-5h1v.62c.4-.3.93-.62 1.4-.62.88 0 1.55 1.17 1.6 1.5h-1a.52.52 0 0 1-.04-.12c-.05-.15-.13-.38-.55-.38-.38 0-.98.28-1.41.54Zm3-.04V36h-1v-3.5h1Z" fill="#2D2829"/><path fill="#1C2EE5" d="M52 29h-8v-1h8zM22.28 19.12a1.06 1.06 0 1 0 0-2.12 1.06 1.06 0 0 0 0 2.12ZM22 20h-2v1h2v5h-2v1h5v-1h-2v-6h-1Z"/><path d="M25.5 31a.5.5 0 1 0 0-1 .5.5 0 0 0 0 1Zm-.5 1h-2v1h2v2h-2v1h4v-1h-1v-3h-1ZM36.5 31a.5.5 0 1 0 0-1 .5.5 0 0 0 0 1Zm-.5 1h-2v1h2v2h-2v1h4v-1h-1v-3h-1Z" fill="#2D2829"/><path d="M42 23.7a3.5 3.5 0 0 0-3.5-3.7 3.5 3.5 0 1 0 3.26 4.77l-.93-.37a2.5 2.5 0 0 1-4.82-.7H42ZM38.5 21c1.09 0 2.01.7 2.36 1.67h-4.72A2.5 2.5 0 0 1 38.5 21Z" fill="#1C2EE5"/><path fill-rule="evenodd" d="M14.95 34a2.51 2.51 0 0 0-2.45-3 2.5 2.5 0 1 0 2.14 3.79l-1.04-.27a1.5 1.5 0 0 1-2.51-.52h3.86Zm-2.45-2c-.65 0-1.2.42-1.41 1h2.82c-.2-.58-.76-1-1.41-1ZM48.95 34a2.51 2.51 0 0 0-2.45-3 2.5 2.5 0 1 0 2.14 3.79l-1.04-.27a1.5 1.5 0 0 1-2.51-.52h3.86Zm-2.45-2c-.65 0-1.2.42-1.41 1h2.82c-.2-.58-.76-1-1.41-1Z" fill="#2D2829"/><path d="M30.56 36c1.06 0 1.97-.63 2.36-1.52l-1.03-.41a1.5 1.5 0 1 1 .07-.93l1.04-.42c-.34-1-1.3-1.72-2.44-1.72A2.53 2.53 0 0 0 28 33.5c0 1.38 1.15 2.5 2.56 2.5Z" fill="#2D2829"/></svg>