<!-- by TradingView --><svg xmlns="http://www.w3.org/2000/svg" width="56" height="56" viewBox="0 0 56 56"><path fill="#1A5289" d="M0 0h56v56H0z"/><path fill-rule="evenodd" d="M18 31a3 3 0 1 0 0-6 3 3 0 0 0 0 6Zm0-1a2 2 0 1 0 0-4 2 2 0 0 0 0 4Zm12-1.35a.67.67 0 1 0 0-1.35.67.67 0 0 0 0 1.35Zm2.96-1.15a3 3 0 1 0 0 1h-1.02a2 2 0 1 1 0-1h1.02Zm1.04 1a2.5 2.5 0 0 0 5 0h-1a1.5 1.5 0 0 1-3 0h-1Zm1-1h-1V25h1v2.5Zm3 0h1V25h-1v2.5Zm2 1V31h1v-2.5h-1Zm1-1h-1V25h1l1.8 2.5h-1.33l-.47-.62v.62Zm1.23 1 1.9 2.5H45v-2.5h-1v.67l-.48-.67h-1.3Zm1.77-1h1V25h-1v2.5Zm2 1V31h2a3 3 0 0 0 2.96-2.5h-1.02A2 2 0 0 1 48 30h-1v-1.5h-1Zm1-1h-1V25h2a3 3 0 0 1 2.96 2.5h-1.02A2 2 0 0 0 48 26h-1v1.5Zm5 .2H31v.6h21v-.6Z" fill="#fff"/></svg>