<!-- by TradingView --><svg width="56" height="56" viewBox="0 0 56 56" xmlns="http://www.w3.org/2000/svg"><path fill="#2D2E1F" d="M0 0h56v56H0z"/><path d="M9.42 28.74a.81.81 0 0 0-.07.3c0 .08.01.16.05.23.28.58.37 1.46-.06 2a.05.05 0 0 0 0 .06l.03.01c.09.01.17.05.25.1.06.05.07.1.03.18-.1.17-.08.34.03.5-.28.09-.6.1-.95.05a3 3 0 0 0-.54-.04h-.55c-.02 0-.04.02-.05.04-.02.1.01.17.1.21a.21.21 0 0 0-.01.15.19.19 0 0 1-.01.15.18.18 0 0 1-.05.05 17.53 17.53 0 0 0-.49.14.54.54 0 0 1-.32-.02.12.12 0 0 0-.08 0c-.17.08-.32.07-.45-.03a.08.08 0 0 0-.1 0 .35.35 0 0 1-.27.05.1.1 0 0 1-.07-.07.52.52 0 0 1-.03-.24.05.05 0 0 0-.01-.03.04.04 0 0 0-.04-.02c-.4 0-.81-.04-1.21-.14a2.02 2.02 0 0 1-.38-.14c-.22-.1-.24-.39.01-.48.13-.04.21-.06.33-.16.58-.5.92-1.17 1.01-2.02.06-.52.1-.95.12-1.28.03-.45.08-.91.16-1.39.15-.93.5-1.78 1.02-2.55A3.05 3.05 0 0 1 8.92 23c.23-.04.47.02.71.16l.09.04.4.1c.03 0 .05.03.07.06.09.3-.04.77-.2 1.03-.22.33-.38.62-.68.9a.08.08 0 0 0-.03.08c.06.34.07.67.06 1 0 .03 0 .06.02.08.01.03.04.05.06.06.2.06.4.11.61.15.14.02.26.08.35.16.23.21.24.62-.1.76-.17.06-.08.36-.32.4-.17.02-.36.06-.55.11-.02 0-.04.02-.03.05l.04.6Z" fill="#4C3C31"/><path d="M44.88 28.71h-6.15c-.07 0-.15-.04-.22-.03l-.16.03h-2.31c-.04 0-.06-.02-.06-.07v-.38a.04.04 0 0 1 .04-.04l.12-.02c.03 0 .05-.02.04-.06a.64.64 0 0 0-.11-.21l-.56-1a.1.1 0 0 0-.1-.05h-.6c-.04 0-.06.02-.06.06v1.04c0 .04 0 .09.02.15 0 .02.02.04.05.06l.13.02c.05 0 .08.03.08.09v.33c0 .05-.03.08-.08.08H32.9c-.04 0-.06-.02-.06-.06v-.37l.01-.05a.07.07 0 0 1 .05-.02c.1-.02.14-.07.13-.16v-3.94a.21.21 0 0 0-.08-.16.2.2 0 0 0-.17-.03 1.2 1.2 0 0 1-.26.04c-.08 0-.11.04-.11.12a344.14 344.14 0 0 1 0 3.98l.04.06c0 .04.03.07.1.07l.17.02c.04 0 .05.01.05.05v.39l-.01.04a.06.06 0 0 1-.04.02h-4.54a.06.06 0 0 1-.05-.03.3.3 0 0 1-.03-.2c0-.11.01-.2.06-.28a.12.12 0 0 0 .01-.12l-.12-.29a.1.1 0 0 0-.1-.06h-2.1a.1.1 0 0 0-.09.04c-.07.11-.13.23-.15.35v.09c.05.14.06.28.04.42a.1.1 0 0 1-.03.06.09.09 0 0 1-.06.02h-1.8c-.04 0-.07-.02-.07-.07v-.38c0-.05.02-.07.06-.05.09.03.15-.02.18-.1l1.75-4.05a.08.08 0 0 0 0-.08.07.07 0 0 0-.03-.03.07.07 0 0 1-.05-.07v-.36c0-.03.02-.05.05-.05h2.51c.03 0 .04.02.05.04.03.19 0 .35-.06.49a.1.1 0 0 0 0 .08l1.87 4.06c0 .02.03.04.05.06l.07.02.39-.02a.1.1 0 0 0 .06-.03.1.1 0 0 0 .03-.06c0-1.27 0-2.63-.02-4.07 0-.05-.07-.07-.2-.08-.07 0-.1-.05-.1-.12v-.23c0-.07.03-.1.1-.1.71-.02 1.45-.06 2.17-.02h.53c1.41-.03 2.63-.03 3.65 0a1.8 1.8 0 0 1 1.35.7c.1.18.18.38.22.61.16.9-.17 1.55-1 1.94a.05.05 0 0 0-.03.05v.03l.7 1.07c.16.37.53.37.86.3.03-.01.05-.03.05-.06a.47.47 0 0 0 .02-.22c0-1.27.03-2.54-.02-3.8 0-.09-.03-.13-.1-.14a25.68 25.68 0 0 0-.2-.05.1.1 0 0 1-.02-.06v-.29c0-.05.02-.07.06-.07l1.78-.02c.36 0 .68.02 1.05.01.87-.02 2.05-.02 3.54-.02.36 0 .72-.05 1.08-.05.04 0 .07-.02.08-.06v-.03l.03-.05a.08.08 0 0 1 .04-.02c.13-.03.25-.03.38-.02.02 0 .04.02.04.05l-.01 1.6c0 .09-.05.14-.13.15a.69.69 0 0 1-.28-.03.07.07 0 0 1-.05-.06c-.01-.08-.07-.12-.14-.12-.63-.05-1.25 0-1.85 0l-.89-.02c-.08 0-.11.03-.12.11l-.01.3c0 .08.03.12.1.12.25 0 .48 0 .73-.02.32-.04.64-.04.95-.01.04 0 .06-.01.07-.05l.04-.07a.12.12 0 0 1 .1-.06h.26c.04 0 .06.02.07.06.04.48.05 1 .01 1.53 0 .06-.03.1-.09.1a.8.8 0 0 1-.34-.02.08.08 0 0 1-.06-.07v-.02a.05.05 0 0 0-.05-.03l-1.67-.05c-.07 0-.11.04-.11.11v.52c0 .07.02.1.09.1l2.73-.02.06-.01a.14.14 0 0 0 .06-.05c.1-.15.26-.2.48-.17.03 0 .04.02.04.05.02.56.02 1.13 0 1.7 0 .04-.02.05-.05.05h-.26a.13.13 0 0 1-.1-.05l-.08-.1a.12.12 0 0 0-.1-.04h-1.18ZM32.8 23.86l.02-.04.01-.08v-.08l-.02-.04-.03.04-.01.08v.08c0 .02.02.04.03.04Zm-4.66 3.77.24.55a.14.14 0 0 1-.02.15l-.09.1a.07.07 0 0 0 0 .08s0 .02.02.02l.03.01h1.61c.23 0 .25-.06.07-.2-.07-.04-.1-.06-.13-.13a250.59 250.59 0 0 0-1.94-4.26.1.1 0 0 1 0-.07.1.1 0 0 1 .04-.05.24.24 0 0 0 .09-.1.06.06 0 0 0 0-.06.06.06 0 0 0-.06-.03h-2.17c-.02 0-.04 0-.06.02a.07.07 0 0 0-.01.06.16.16 0 0 0 .07.1c.03.02.06.06.06.1V24a845.5 845.5 0 0 1-1.79 4.13c-.05.12-.11.2-.19.23a.1.1 0 0 0-.05.05.14.14 0 0 0-.01.09c0 .03.02.04.05.04h1.56a.08.08 0 0 0 .04-.09l-.02-.04a.35.35 0 0 0-.08-.08.08.08 0 0 1-.03-.04v-.06l.25-.59a.14.14 0 0 1 .05-.06.13.13 0 0 1 .07-.02h2.3a.11.11 0 0 1 .1.07Zm6.45-.9.02-.02h.87a.15.15 0 0 1 .14.07l.76 1.38a.1.1 0 0 1 0 .12.1.1 0 0 1-.04.02l-.18.09a.07.07 0 0 0-.04.06c0 .03.01.05.03.07a181.8 181.8 0 0 0 2.17 0 .08.08 0 0 0 .03-.06c0-.06-.04-.1-.1-.12a.46.46 0 0 1-.3-.2 62.5 62.5 0 0 0-.89-1.4.1.1 0 0 1 .03-.07l.03-.02c.5-.2.98-.6 1.06-1.17.17-1.12-.53-1.83-1.59-1.84H33c-.03 0-.05.02-.05.05 0 .05.04.1.08.13.1.06.16.16.16.28v4.03c0 .1-.05.18-.14.23a.1.1 0 0 0-.04.03.1.1 0 0 0-.01.05v.04c0 .04.01.06.06.06h1.74c.03 0 .04 0 .05-.03a.12.12 0 0 0 .02-.1.08.08 0 0 0-.06-.05.3.3 0 0 1-.24-.32 22.8 22.8 0 0 0 .02-1.32Zm6.5-2.9.01-.02.01-.04a.33.33 0 0 0 .01-.1v-.02l-.01-.01h-.02v.02l-.02.03a.36.36 0 0 0 0 .11v.02l.01.01ZM40.72 28a.25.25 0 0 0 0 .13c0 .03.02.05.05.05.29.08.5.04.63-.1l-.01-3.9c0-.16-.08-.24-.23-.24h-.24c-.15 0-.22.07-.22.23l.02 3.83Z" fill="#fff"/><path d="M9.25 23.31a.86.86 0 0 0 .03.45.9.9 0 0 0-.5-.06.16.16 0 0 0-.13.13v.06c.03.2.24.17.38.21a.44.44 0 0 1-.37.04.17.17 0 0 0-.14.01.18.18 0 0 0-.09.12c-.09.42-.23.62-.65.74-.53.15-.63 1.46-.66 1.93l-.15 2.34c-.02.3-.09.63-.21.96-.48-.08-.76.13-.83.64-.02.13 0 .34.09.62a.88.88 0 0 0-.33 0c-.24.08-.5.12-.76.1.07-.12.18-.26.31-.43.37-.45.5-1.1.57-1.75.1-.94.1-1.92.32-2.8.17-.74.47-1.42.88-2.04a2.86 2.86 0 0 1 2.14-1.3l.1.03Z" fill="#7B5B43"/><path d="M9.25 23.31h.07c.12.1.25.16.4.2a.1.1 0 0 1 .06.04l.15.24c-.32.07-.52.18-.6.3-.28.44-.48.82-.95 1.11-.31.2-.5.44-.27.84.12.22.28.41.47.58.04.04.15.08.32.13-.05.01-.1.02-.12 0l-.6-.2a.07.07 0 0 0-.08 0 .08.08 0 0 0-.02.08c.03.11.09.18.18.22.29.1.54.19.76.25-.22.23-.4.3-.57.24-.14-.05-.3-.13-.43-.06s-.2.19-.22.35l-.15-.1c-.06-.03-.11-.02-.15.04-.03.03-.03.07-.01.12.02.05.05.1.1.14.18.17.37.28.56.35a.97.97 0 0 0-.53.8c-.04.34.08.71.09 1.08.01.45-.2.7-.48.99a.7.7 0 0 0-.2.39v.08c.07.18.09.37.05.56a1.13 1.13 0 0 0-.54-.11.1.1 0 0 1-.07-.02 12.36 12.36 0 0 1-.27-.78c-.06-.25 0-.44.17-.59.1-.1.25-.08.38-.13.07-.02.07-.1.01-.2.12-.34.19-.66.2-.97l.16-2.34c.03-.47.13-1.78.66-1.93.42-.12.56-.32.65-.74a.19.19 0 0 1 .09-.12.17.17 0 0 1 .14-.01c.13.04.26.03.37-.04.2-.08.28-.2.25-.34a.86.86 0 0 1-.03-.45Z" fill="#D9A97D"/><path d="M43.1 27.51h2.78c.19 0 .33.01.42-.18a.14.14 0 0 1 .09-.08.1.1 0 0 1 .1.02l.02.07a129.95 129.95 0 0 1-.02 1.38.08.08 0 0 1-.04.05.07.07 0 0 1-.06-.01l-.03-.03c-.06-.12-.15-.18-.27-.18a2686.29 2686.29 0 0 1-4.77-.02c-.05-.01-.07-.04-.07-.09a.07.07 0 0 1 .05-.06c.15-.06.27-.12.28-.32 0-.31-.03-.62-.02-.93.02-1.1.02-2.11 0-3.05 0-.16-.14-.23-.27-.27a.08.08 0 0 1-.05-.07c0-.03 0-.06.02-.08a512.71 512.71 0 0 0 4.78-.04c.13 0 .21-.04.26-.13.04-.06.1-.1.17-.09.03.01.05.03.05.07l.02 1.09c0 .1 0 .2-.03.29-.01.04-.04.07-.07.09-.03.02-.06.01-.1-.01a.09.09 0 0 1-.03-.07c0-.13-.1-.2-.26-.2h-2.92c-.07 0-.1.03-.09.1a3.21 3.21 0 0 1 .01.71.03.03 0 0 0 .02.01h1.77c.21 0 .33-.06.36-.2 0-.03.03-.05.06-.06a.1.1 0 0 1 .1.02.12.12 0 0 1 .05.1c-.02.4-.02.82 0 1.27 0 .03-.01.06-.03.08a.08.08 0 0 1-.07.04c-.02 0-.03 0-.04-.02a.08.08 0 0 1-.03-.03c-.06-.14-.18-.19-.33-.2a31.38 31.38 0 0 0-1.87.02v.01c.03.3.03.6 0 .94 0 .04.02.06.06.06Z" fill="#0099D2"/><path d="m14.67 27.04.06 1.07c0 .03.01.05.04.07.03.02.07.04.1.04.05.01.07.04.07.08v.35c0 .04-.01.06-.05.06l-2.05.01c-.07 0-.1-.03-.1-.1v-.28a.1.1 0 0 1 .05-.08.3.3 0 0 0 .1-.23 38.23 38.23 0 0 0-.01-3.67c0-.26-.08-.5-.12-.77 0-.06.02-.1.08-.1 1.14-.03 2.22-.03 3.24 0 1.15.02 1.99.67 1.87 1.98-.06.65-.4 1.1-1 1.35-.27.11-.58.16-.93.15-.44-.02-.89 0-1.35.07Zm-.07-.22h1.38c1.15 0 2.01-.64 1.8-1.95-.15-.87-.96-1.21-1.72-1.23a108.6 108.6 0 0 0-3.19.03v.05c.1.14.19.3.2.48v3.82c0 .15-.05.28-.14.36a.1.1 0 0 0-.03.09c0 .02 0 .04.02.05.02.02.03.02.06.02h1.78l.02-.04-.01-.1a.11.11 0 0 0-.07-.06c-.1-.03-.14-.1-.14-.2a19.6 19.6 0 0 1-.01-1.27c0-.03.02-.05.05-.05Z" fill="#fff"/><path d="M21.4 28.71c-.22.02-.34 0-.34-.09l.02-.35c0-.02.01-.04.04-.05l.11-.03a.04.04 0 0 0 .03-.04v-.01a14.03 14.03 0 0 0-.71-1.24.15.15 0 0 0-.08-.02h-.54a.09.09 0 0 0-.06.03.1.1 0 0 0-.03.07l.03 1.15.01.04.04.02c.08.01.15.05.2.11l-.02.37c0 .01 0 .02-.02.03l-.03.01h-2.1l-.03-.01-.01-.03v-.36c0-.03.01-.05.03-.06l.13-.06a.07.07 0 0 0 .04-.07l.02-.44v-3.62a.08.08 0 0 0-.04-.07.18.18 0 0 0-.12-.03c-.05 0-.08-.02-.08-.07v-.33c0-.05.03-.08.08-.08 1.67-.02 2.96-.02 3.86 0a1.6 1.6 0 0 1 1.6 1.34c.14.9-.2 1.54-1.03 1.92-.03.01-.04.03-.02.06l.8 1.23c.07.12.2.18.32.18.06 0 .09.03.09.08v.34c0 .06-.03.09-.09.09h-2.1Zm-1.7-1.96c0-.01 0-.02.02-.03l.03-.02h.8a.2.2 0 0 1 .17.1l.68 1.25c.06.1.1.26-.07.3a.16.16 0 0 0-.1.06.08.08 0 0 0-.01.06c0 .02 0 .04.02.05.02.02.04.02.06.02h2.06c.03 0 .05-.01.06-.04a.14.14 0 0 0 0-.11.1.1 0 0 0-.07-.05.54.54 0 0 1-.33-.25 39.57 39.57 0 0 0-.87-1.35.09.09 0 0 1 .05-.1c.85-.33 1.2-.92 1.07-1.78-.14-.83-.83-1.21-1.59-1.22H18.1c-.02 0-.04.02-.05.05 0 .03 0 .06.02.1l.04.03c.12.05.18.14.18.28v3.98c0 .13-.07.23-.18.29-.04.02-.06.06-.05.1 0 .04.02.06.06.07h1.76c.02 0 .05-.01.07-.04a.08.08 0 0 0 0-.08.12.12 0 0 0-.03-.04.11.11 0 0 0-.04-.02.25.25 0 0 1-.15-.1.15.15 0 0 1-.03-.09v-1.42Z" fill="#fff"/><path d="M30.47 23.82c-.06-.05-.09-.09-.07-.13a.11.11 0 0 1 .11-.07l2.02.02c.05 0 .07.03.07.08v.04l-.02.04a.05.05 0 0 1-.04 0c-.2 0-.3.11-.3.35v3.9c0 .21.1.29.28.32.02 0 .03 0 .05.02a.1.1 0 0 1 .02.05v.03c0 .05-.02.07-.07.07h-1.98a.17.17 0 0 1-.1-.04.07.07 0 0 1-.03-.06c0-.01 0-.02.02-.03 0-.01.01-.02.03-.02l.19-.07a.17.17 0 0 0 .08-.06.18.18 0 0 0 .03-.1c.02-1.35.01-2.72 0-4.1 0-.14-.11-.2-.24-.22a.1.1 0 0 1-.05-.02ZM14.55 26.87v1.27c0 .1.06.17.15.2a.11.11 0 0 1 .07.07v.09l-.01.03a.05.05 0 0 1-.04.01h-1.74c-.03 0-.04 0-.06-.02a.08.08 0 0 1-.02-.05.1.1 0 0 1 .03-.09c.1-.08.14-.2.14-.36V24.2a.88.88 0 0 0-.2-.48.05.05 0 0 1 .02-.07l.02-.01h3.15c.76.02 1.57.36 1.71 1.23.22 1.31-.64 1.95-1.8 1.96l-1.37-.01c-.03 0-.05.02-.05.05Zm0-2.24v1.23h.03l1.15.02a.7.7 0 0 0 .24-.04.62.62 0 0 0 .2-.11c.05-.05.1-.1.13-.17a.45.45 0 0 0 .05-.2v-.24a.45.45 0 0 0-.05-.2.52.52 0 0 0-.13-.17.63.63 0 0 0-.2-.1.7.7 0 0 0-.23-.05h-1.18v.03ZM19.7 26.75v1.42l.03.09c.04.05.09.08.15.1.02 0 .03 0 .04.02.02.01.03.02.03.04.02.03.01.06 0 .08a.08.08 0 0 1-.07.04h-1.76c-.04 0-.06-.03-.06-.06-.01-.05 0-.1.05-.11a.32.32 0 0 0 .18-.3V24.1c0-.14-.06-.23-.18-.28a.09.09 0 0 1-.04-.04.14.14 0 0 1-.02-.1c0-.02.03-.04.05-.04h3.58c.76 0 1.45.4 1.59 1.22.13.86-.22 1.45-1.07 1.78a.09.09 0 0 0-.05.06.09.09 0 0 0 .01.07l.86 1.32c.07.13.18.21.33.25a.1.1 0 0 1 .06.05c.02.03.02.07.01.11 0 .03-.03.04-.06.04H21.3c-.02 0-.04 0-.06-.02a.08.08 0 0 1-.02-.05c0-.02 0-.04.02-.06a.16.16 0 0 1 .09-.06c.16-.04.13-.2.07-.3-.2-.4-.44-.81-.69-1.25a.2.2 0 0 0-.17-.1h-.79c-.01 0-.02 0-.03.02l-.02.03Zm0-2.12v1.09l.01.02.03.02h1.48c.18 0 .35-.05.47-.15.13-.1.2-.23.2-.37v-.12a.42.42 0 0 0-.05-.2.53.53 0 0 0-.14-.17.7.7 0 0 0-.22-.11.83.83 0 0 0-.25-.04h-1.49a.03.03 0 0 0-.02 0l-.01.01v.02ZM28.14 27.63a.11.11 0 0 0-.1-.07h-2.3l-.07.02a.14.14 0 0 0-.05.06l-.25.6v.05l.03.04.08.08.02.04v.05l-.04.03a.08.08 0 0 1-.04.01H23.9c-.03 0-.05-.01-.05-.04l.01-.1a.1.1 0 0 1 .05-.04c.08-.04.14-.11.2-.23a845.5 845.5 0 0 0 1.78-4.21.14.14 0 0 0-.06-.1.16.16 0 0 1-.07-.1c-.01-.02 0-.04.01-.06a.07.07 0 0 1 .06-.03l2.17.01a.06.06 0 0 1 .05.03.06.06 0 0 1 0 .06.23.23 0 0 1-.08.1.1.1 0 0 0-.04.05 7.74 7.74 0 0 0 .23.61l1.71 3.72c.04.07.06.09.13.13.18.14.16.2-.07.2H28.3a.07.07 0 0 1-.01-.1l.08-.11a.14.14 0 0 0 .02-.15l-.24-.55Zm-2.1-.97a.03.03 0 0 0 .02.05h1.61a.03.03 0 0 0 .03-.03v-.02l-.8-1.74-.02-.01a.03.03 0 0 0-.03 0l-.01.01-.8 1.74ZM34.6 26.72a22.71 22.71 0 0 1-.02 1.32c-.01.17.07.28.23.32.03 0 .05.03.06.06 0 .03 0 .06-.02.1a.06.06 0 0 1-.05.03h-1.74c-.05 0-.07-.03-.07-.07v-.04l.02-.05a.1.1 0 0 1 .04-.03.25.25 0 0 0 .13-.23c.01-1.58.02-2.92 0-4.03a.32.32 0 0 0-.15-.28c-.04-.03-.08-.08-.08-.13 0-.03.02-.05.05-.05h3.59c1.05.01 1.76.72 1.6 1.84-.1.57-.57.97-1.07 1.17a.1.1 0 0 0-.06.1l.02.03.88 1.35c.07.11.16.18.3.21.05.02.09.06.09.12v.03l-.02.03a.07.07 0 0 1-.06.02 186.58 186.58 0 0 1-2.12-.02.07.07 0 0 1-.03-.07c0-.03.02-.05.04-.06l.18-.09a.1.1 0 0 0 .05-.06.1.1 0 0 0 0-.08l-.77-1.38a.16.16 0 0 0-.14-.08h-.85a.04.04 0 0 0-.04.02Zm0-2.1-.01 1.11v.02h.02l1.53.01c.18 0 .35-.05.47-.15a.5.5 0 0 0 .2-.39v-.07a.46.46 0 0 0-.05-.21.55.55 0 0 0-.14-.18.7.7 0 0 0-.22-.12.8.8 0 0 0-.26-.04H34.6v.02ZM38.72 23.76v-.04c0-.06.04-.09.1-.09l2.02.02h.03l.02.02a.06.06 0 0 1 .01.05v.04l-.02.03a.06.06 0 0 1-.04.02c-.28 0-.3.22-.3.44v3.88c0 .16.16.22.29.24.03.01.04.03.05.05a.1.1 0 0 1 0 .09.06.06 0 0 1-.06.04H38.8a.09.09 0 0 1-.08-.06.1.1 0 0 1 0-.04v-.05l.03-.02c.13-.02.32-.08.32-.23v-4.02c0-.2-.1-.3-.27-.31-.04 0-.07-.03-.08-.06Z" fill="#0099D2"/><path d="M9.93 23.79a.97.97 0 0 1-.18.44.11.11 0 0 1-.07.05c-.12.01-.38.06-.35.24a.07.07 0 0 0 .03.05l.08.04.02.02a.06.06 0 0 1 .01.04v.03c-.25.34-.57.6-.96.79a.22.22 0 0 0-.13.16v.07c.04.07.09.1.15.07a1.62 1.62 0 0 0 .46-.24h.02a.04.04 0 0 1 .02.03c.04.27.06.56.05.88 0 .09.02.16.08.21.18.18.63.25.87.3.04 0 .09.03.13.05.07.05.1.1.1.18-.01.13-.06.15-.15.07a1.95 1.95 0 0 0-1.05-.45l-.16-.07a.92.92 0 0 1-.32-.13 2.3 2.3 0 0 1-.47-.58c-.23-.4-.04-.64.27-.84.47-.29.67-.67.95-1.1.08-.13.28-.24.6-.31Z" fill="#fff"/><path d="M8.1 24.74a.28.28 0 0 1-.29.02.08.08 0 0 1-.05-.06l-.05-.26a.1.1 0 0 1 .02-.07.09.09 0 0 1 .06-.04c.15 0 .26.07.35.22a.14.14 0 0 1-.04.19Z" fill="#4C3C31"/><path d="M19.7 24.63v-.02a.04.04 0 0 1 .03-.02h1.5c.08 0 .17.02.25.05a.7.7 0 0 1 .22.11c.06.05.1.1.14.17.03.06.05.13.05.2v.12c0 .14-.07.27-.2.37-.12.1-.29.15-.47.15h-1.48c-.01 0-.02 0-.03-.02v-1.12Zm.15.2v.7c0 .01 0 .03.02.04l.04.02h1.31a.7.7 0 0 0 .2-.02.56.56 0 0 0 .16-.08.39.39 0 0 0 .12-.12c.02-.05.04-.1.04-.14v-.1c0-.1-.06-.19-.15-.26a.63.63 0 0 0-.37-.1h-1.31l-.04.01a.06.06 0 0 0-.02.05ZM34.6 24.62a.03.03 0 0 1 .02-.03l1.52.01a.8.8 0 0 1 .26.04.7.7 0 0 1 .22.12c.06.05.1.11.14.18.03.07.05.14.05.2v.08a.5.5 0 0 1-.2.39c-.12.1-.3.15-.47.15h-1.53l-.01-.01-.01-.02v-1.11Zm.14.21v.68a.08.08 0 0 0 .02.05.08.08 0 0 0 .05.02l1.3.02c.15 0 .29-.04.39-.12.1-.07.16-.17.16-.28v-.03c0-.05-.01-.1-.04-.15a.42.42 0 0 0-.12-.13.58.58 0 0 0-.17-.1.7.7 0 0 0-.2-.02l-1.31-.02-.06.03a.08.08 0 0 0-.02.05ZM14.55 24.63l.01-.03h1.18a.7.7 0 0 1 .23.04c.08.03.14.07.2.11.06.05.1.11.13.17.03.07.05.13.05.2v.24c0 .07-.02.14-.05.2a.52.52 0 0 1-.14.17.62.62 0 0 1-.2.1.7.7 0 0 1-.23.05l-1.15-.01-.03-.01v-1.23Zm.16.17v.89l.03.01h1a.5.5 0 0 0 .32-.11.37.37 0 0 0 .14-.28v-.15c0-.1-.05-.2-.14-.28a.5.5 0 0 0-.32-.12h-1l-.02.01-.01.03ZM26.04 26.66l.8-1.74v-.01h.04l.01.01.8 1.74a.03.03 0 0 1-.01.04h-.02l-1.59.01h-.01a.03.03 0 0 1-.02-.03v-.02Zm.25-.15a.03.03 0 0 0 .01.04H27.44a.03.03 0 0 0 .01-.05l-.56-1.18v-.02a.03.03 0 0 0-.05.02l-.55 1.19Z" fill="#fff"/><path d="M14.67 27.04c1.2.08 2.36.3 3.46.64l-.02.44c0 .03-.01.05-.04.07l-.13.06a.06.06 0 0 0-.03.06v.36l.01.03.03.01h2.13l.02-.04.02-.37.94.32c0 .08.12.11.35.1.19.07.39.13.59.16.56.09 1.09.12 1.59.1.45-.01 1.03-.06 1.56-.12l2.95-.38a.3.3 0 0 0 .03.2c.01.02.03.03.05.03h4.54c.01 0 .03 0 .04-.02a.06.06 0 0 0 .02-.04v-.4c0-.03-.02-.04-.06-.04-.04 0-.1 0-.18-.02-.06 0-.1-.03-.1-.07l.6-.07c0 .1-.05.14-.14.16a.07.07 0 0 0-.05.02.07.07 0 0 0-.01.05v.37c0 .04.02.06.06.06h2.05c.05 0 .08-.03.08-.08v-.33c0-.06-.03-.08-.08-.09a.42.42 0 0 1-.13-.02.08.08 0 0 1-.05-.06.36.36 0 0 1-.01-.15l1.3-.05c.05.05.08.12.12.21 0 .04 0 .05-.04.06l-.12.02-.03.01-.01.03v.38c0 .05.02.07.06.07a659.52 659.52 0 0 0 2.47-.03l.22.03h6.15c.34.13.68.24 1.02.35a22.38 22.38 0 0 1 6.01 2.95c.1.06.08.1-.03.1h-6.2c.26-.1.47-.27.62-.53.78-1.33-.72-2.81-1.99-1.94-.17.11-.32.3-.43.55-.35.75-.16 1.39.58 1.93l-1.48-.02a.49.49 0 0 0-.12-.41c-.02-.02-.04-.02-.06 0-.76.53-1.69-.1-1.56-1.03a1 1 0 0 1 .2-.49c.37-.47.83-.54 1.37-.2h.02v-.01c.07-.12.11-.24.14-.36v-.02c-1.17-.6-2.34.22-2.1 1.57.06.38.27.7.63.95h-3.64l.04-1.22c0-.03-.01-.05-.05-.05h-.83c-.03 0-.05.02-.05.05v.3c0 .02.02.04.05.04l.44-.01a.05.05 0 0 1 .06.05v.44c0 .05-.02.07-.06.09-.34.1-.64.1-.9-.02-.77-.34-.79-1.58.02-1.9a1.2 1.2 0 0 1 1.02.05c.06.02.1 0 .11-.05l.07-.21a.1.1 0 0 0 0-.07.09.09 0 0 0-.05-.05c-1.17-.53-2.37.3-2.1 1.65.06.35.26.66.6.91h-1.6v-2.65c0-.04 0-.05-.04-.05h-.28c-.02 0-.04.01-.05.03a.07.07 0 0 0-.02.04l.03 1.87c0 .05-.02.06-.06.02l-1.88-2c-.04-.05-.07-.04-.07.03v2.72h-1.28v-2.66c0-.03-.01-.05-.05-.05h-.3c-.02 0-.03.01-.03.04v2.67h-1.72v-2.23c0-.07.03-.1.1-.1h.58c.04 0 .07-.03.07-.07v-.24c0-.04-.01-.06-.05-.06h-1.72c-.05 0-.08.02-.08.08v.2a.09.09 0 0 0 .03.07.08.08 0 0 0 .06.03l.58-.01.04.01.01.04v2.28h-1.32l-1.13-2.78-.01-.02a.04.04 0 0 0-.04 0l-.02.02-1.13 2.78h-.81l-.57-.94a.07.07 0 0 1 .02-.1c.2-.13.31-.3.36-.54.13-.63-.23-1.1-.86-1.12a12 12 0 0 0-.77 0c-.03 0-.05.01-.05.04v2.66h-1.1c0-.08 0-.15-.02-.22 0-.02-.02-.03-.05-.04h-1.36c-.03-.01-.05-.03-.05-.06v-.73c0-.03.02-.05.05-.05l1.16-.03.04-.01a.06.06 0 0 0 .02-.04v-.26c0-.04-.02-.06-.05-.06h-1.16c-.04 0-.06-.03-.06-.08v-.67l.02-.05a.07.07 0 0 1 .05-.03l1.28-.01c.04 0 .06-.02.06-.06v-.23c0-.05-.02-.08-.07-.08h-1.66c-.02 0-.04.02-.04.05v2.67l-2.2-.01v-.92h.01l.01-.01c.52.03 1.11.02 1.23-.64.1-.57-.07-.93-.54-1.07-.31-.1-.71-.06-1.05-.06a.04.04 0 0 0-.04 0v.02l-.01.02v2.66h-1.68c.25-.12.45-.3.6-.54.53-.9-.07-2.13-1.11-2.19-1.36-.08-2.02 1.68-.99 2.55l.22.18-4 .02a.45.45 0 0 1-.03-.51c.04-.07.03-.13-.03-.18a.52.52 0 0 0-.25-.1l-.03-.01-.01-.02a.05.05 0 0 1 0-.05c.44-.53.35-1.41.07-1.99a.48.48 0 0 1-.05-.24c0-.1.03-.2.07-.29a7.77 7.77 0 0 1 3.49-1.6c.01.26.01.55-.01.9a.3.3 0 0 1-.11.22.1.1 0 0 0-.04.08l-.01.28c0 .07.03.1.1.1l2.05-.01c.04 0 .06-.02.06-.06v-.35c0-.04-.03-.07-.07-.08a.29.29 0 0 1-.11-.04.08.08 0 0 1-.04-.07l-.06-1.07Z" fill="#39B54A"/><path d="M9.02 27.1c.3.05.55.15.75.28.1.07.14.16.12.28a.05.05 0 0 1-.02.04h-.04a.29.29 0 0 0-.26.06.12.12 0 0 1-.08.03 1.24 1.24 0 0 0-.5.03c-.44.14-.82.17-1.2-.19.02-.16.1-.28.23-.35.13-.07.3.01.43.06.16.07.35-.01.57-.24Z" fill="#fff"/><path d="M38.92 27.9c.01.09 0 .16-.02.23 0 .03-.02.05-.05.05-.33.08-.7.08-.85-.3l.92.03Z" fill="#39B54A"/><path d="M7.34 32.4c-.06.02-.13-.03-.21-.13l-.05-.2c.04-.18.02-.37-.04-.55a.15.15 0 0 1-.01-.08.7.7 0 0 1 .2-.4c.29-.27.5-.53.48-.98-.01-.36-.13-.74-.1-1.07a.97.97 0 0 1 .54-.81c.31.05.6.03.9-.06.02 0 .04 0 .04.04.04.29.04.56 0 .81a.2.2 0 0 1-.06.12l-.29.28a.1.1 0 0 0-.03.08c.01.14.1.17.27.08.02 0 .03-.02.04-.03.08-.08.13-.11.14-.09.2.4.24.83.15 1.28-.03.16-.11.31-.25.47a.27.27 0 0 0-.06.2c0 .15.16.21.29.24.04 0 .05.03.04.07a.46.46 0 0 0-.02.2c0 .05-.02.07-.06.06-.34-.1-.68-.14-1.01-.13-.07 0-.08-.02-.02-.06.21-.17.38-.37.5-.6a.6.6 0 0 0 .06-.17c.04-.2.02-.28-.07-.25a.31.31 0 0 0-.18.17c-.15.3-.39.57-.72.8-.04.02-.05 0-.05-.04a.68.68 0 0 0-.12-.46.17.17 0 0 0-.1-.07c-.13-.03-.21.04-.2.17.03.16.06.3.02.47-.06.2-.06.42-.02.65Z" fill="#fff"/><path d="M38.5 28.46c0 .1 0 .18.03.18.02 0 .04-.08.04-.18 0-.1-.01-.18-.03-.18-.02 0-.04.08-.04.18Z" fill="#39B54A"/><path d="M27.18 32.1h-.46l-.2-.56c-.02-.03-.04-.04-.07-.04h-.9c-.02 0-.04 0-.06.02a.13.13 0 0 0-.05.06l-.2.53h-.39l1.13-2.78a.04.04 0 0 1 .04-.03l.02.01.01.02 1.13 2.78ZM34.64 32.1a.57.57 0 0 1-.27 0 .2.2 0 0 0-.04-.09c-.55-.55-1.1-1.12-1.62-1.68-.05-.06-.08-.05-.08.03l.02 1.75h-.39v-2.72c0-.07.03-.08.07-.03l1.88 2c.04.04.06.03.06-.02l-.03-1.87.02-.04a.06.06 0 0 1 .05-.02l.28-.01c.03 0 .05.01.05.05v2.65ZM14.96 32.11h-1.28a8.22 8.22 0 0 0-.22-.18c-1.03-.87-.37-2.63.99-2.55 1.04.06 1.64 1.28 1.1 2.2-.14.23-.34.41-.6.53ZM37.86 32.1h-1.62a1.47 1.47 0 0 1-.62-.9c-.26-1.37.94-2.2 2.11-1.66l.05.05a.1.1 0 0 1 0 .07l-.07.2c-.02.07-.05.08-.1.06a1.2 1.2 0 0 0-1.03-.06c-.8.33-.79 1.57-.02 1.91.26.12.56.12.9.02.04-.02.06-.04.06-.09v-.44a.05.05 0 0 0-.04-.05h-.46c-.03 0-.05 0-.05-.04v-.29c0-.03.02-.05.05-.05h.83c.04 0 .05.02.05.05l-.04 1.22ZM42.98 32.1H41.5a1.47 1.47 0 0 1-.63-.95c-.24-1.35.93-2.17 2.1-1.57v.02a1.82 1.82 0 0 1-.14.37h-.01c-.55-.34-1.01-.27-1.38.2a1 1 0 0 0-.2.5c-.13.93.8 1.55 1.56 1.01.02-.01.04-.01.06.01.1.12.14.26.12.41ZM45.68 32.11h-1.22c-.74-.53-.93-1.17-.58-1.92.11-.25.26-.44.43-.55 1.27-.87 2.77.6 1.99 1.94-.15.26-.36.43-.62.53ZM17.03 32.1h-.4v-2.65l.01-.02a.05.05 0 0 1 .03-.02h.02c.34 0 .73-.05 1.05.05.47.15.65.51.54 1.08-.12.66-.71.67-1.23.64a.02.02 0 0 0-.02 0v.92ZM21.07 32.11h-1.84v-2.66c0-.03.01-.05.04-.05h1.66c.05 0 .07.03.07.08v.23c0 .04-.02.06-.06.06l-1.28.01-.05.03a.08.08 0 0 0-.02.05v.67c0 .05.02.07.06.07l1.16.01c.03 0 .05.02.05.06v.26c0 .01 0 .03-.02.04a.06.06 0 0 1-.04.01l-1.16.03c-.03 0-.05.02-.05.05v.73c0 .03.02.05.05.05l1.36.01c.03 0 .04.02.05.04.02.07.02.14.02.22ZM24.04 32.1h-.46l-.53-.86a.1.1 0 0 0-.1-.05l-.34-.01c-.03 0-.05.02-.05.05v.88h-.39v-2.66c0-.03.02-.04.05-.04h.77c.63.03 1 .5.86 1.12a.83.83 0 0 1-.36.54.07.07 0 0 0-.02.1l.57.94ZM28.88 32.1h-.37v-2.27l-.02-.04a.05.05 0 0 0-.04-.01h-.58a.08.08 0 0 1-.06-.02l-.02-.03v-.24c0-.06.02-.08.07-.08h1.72c.04 0 .05.02.05.06v.24c0 .04-.03.06-.07.06l-.59.01c-.06 0-.09.03-.09.1v2.23ZM30.98 32.11h-.38v-2.67c0-.03.01-.04.03-.04h.3c.04 0 .05.02.05.05v2.66Z" fill="#fff"/><path d="M13.36 30.83c0 .58.46 1.05 1.01 1.05.55-.01 1-.49.99-1.07 0-.59-.46-1.06-1.01-1.05-.55 0-1 .48-.99 1.07ZM44.11 30.87c.03.58.5 1.03 1.05 1 .56-.02.98-.52.95-1.1a1.03 1.03 0 0 0-1.05-1.01c-.55.03-.97.52-.95 1.1ZM17.02 29.82c0-.01 0-.02.02-.03l.03-.02h.35c.14 0 .27.06.36.16.1.1.15.22.15.36v.02a.52.52 0 0 1-.52.5h-.35l-.03-.01-.01-.04v-.94ZM22.55 29.84c0-.02 0-.03.02-.04a.05.05 0 0 1 .04-.02h.34c.14 0 .27.06.37.15.1.1.16.22.16.36v.03a.48.48 0 0 1-.16.35.53.53 0 0 1-.37.15h-.35l-.03-.02a.06.06 0 0 1-.02-.04v-.92ZM25.63 31.11l.34-.86a.03.03 0 0 1 .03-.02.03.03 0 0 1 .02.02l.34.86a.03.03 0 0 1 0 .03.03.03 0 0 1-.03.01H25.64v-.01l-.01-.02v-.01ZM34.37 32.1h-1.72l-.02-1.74c0-.08.03-.09.08-.03.53.56 1.07 1.13 1.62 1.68a.2.2 0 0 1 .04.1ZM23.58 32.1l-1.03.01.01-.88c0-.03.02-.05.05-.05h.35a.1.1 0 0 1 .09.06l.53.87Z" fill="#39B54A"/><path d="m6.02 31.5.17.52c.03.1 0 .15-.1.16a3.83 3.83 0 0 1-1.68-.14c-.04-.02-.04-.04 0-.06.12-.05.22-.11.31-.2.07-.07.14-.13.21-.17.26 0 .52-.03.76-.12a.88.88 0 0 1 .33.01Z" fill="#D9A97D"/><path d="M26.72 32.1h-1.49l.2-.52a.13.13 0 0 1 .06-.06.12.12 0 0 1 .07-.02h.9c.02 0 .04.01.05.04l.21.57Z" fill="#39B54A"/><path d="M7.13 32.27c.08.1.15.15.2.14.02.08-.07.15-.26.2-.1.02-.2-.08-.34-.06a.53.53 0 0 0-.2.09H6.5l-.22-.17v-.02c.1-.05.2-.1.28-.2a.07.07 0 0 1 .08 0c.21.07.37.08.49.02Z" fill="#D9A97D"/><path d="M51.98 33H4.14l-.02-.57c0-.03 0-.04.04-.04l.39-.02a4.73 4.73 0 0 0 1.25.16.05.05 0 0 1 .01.03c-.01.09 0 .17.03.24a.1.1 0 0 0 .07.07c.1.02.19 0 .27-.05a.08.08 0 0 1 .1 0c.13.1.28.11.45.04a.12.12 0 0 1 .08 0c.11.03.22.04.32.01a17.5 17.5 0 0 1 .5-.14.19.19 0 0 0 .06-.2.21.21 0 0 1 0-.15h44.24a.07.07 0 0 1 .07.07l-.02.55Z" fill="#C3262F"/></svg>