<!-- by TradingView --><svg width="56" height="56" viewBox="0 0 56 56" xmlns="http://www.w3.org/2000/svg"><path fill="#012D6F" d="M0 0h56v56H0z"/><path d="M19.27 12.76 26.26 10l-.85 6.55-6.14-3.79ZM14.03 15l7.42 1.04-4.6 5.1L14.02 15Zm6.8 12.68 2.3-.14-1.15-1.57 2.53-3.79 1.9 4.13L31 21.2l-5.34-.74 2.79-4.17 4.48 6.74-2.27 1.78 4.39 1.42 1.06 1.6.68-.46-.49-.73 1.5.48-1.75-6.54-2.48 1.94-5.12-7.71-3.69 5.52-1.18-.16.53 1.14-2.64 3.95-2.3-3.18L15.66 28l4.16-.25-2.4 3.58-.4-.11.15.49-1.34 2 .68.47.97-1.46 1.51 4.97 5.24-4.42-5.98-1.7 2.6-3.89Zm1.33 4.3 7.46-.74-4.14-5.31-3.32 6.04ZM32.36 34h-7.5l3.57 5.73L32.35 34Zm.96 0h7.49l-3.92 5.73L33.32 34Zm-.16-.6h7.45l-3.67-5.66-3.78 5.65ZM45 40h-7.49l3.82-5.79L45 40Zm-16.05 0h7.49l-3.67-5.79L28.95 40Zm-1 0h-7.5l3.82-5.79L27.94 40ZM12 40h7.49l-3.68-5.73L12 40Zm24.12-11.97L28.71 27l2.82 6.14 4.6-5.11Z" fill="#fff"/></svg>