<!-- by TradingView --><svg width="56" height="56" viewBox="0 0 56 56" xmlns="http://www.w3.org/2000/svg"><path fill="#F0F3FA" d="M0 0h56v56H0z"/><path d="M14 22h2c1.34 0 2 .86 2 2 0 1.44-1.22 2-2.55 2-.24 0-.22.03-.45 0v3h-1v-7Zm1 3.4c.2.05.23.08.45.08 1.14 0 1.55-.35 1.55-1.48 0-.98-.38-1.62-1.33-1.62H15v3.02ZM27 22h2c1.34 0 2 .86 2 2 0 1.44-1.22 2-2.55 2-.24 0-.22.03-.45 0v3h-1v-7Zm1 3.4c.2.05.23.08.45.08 1.14 0 1.55-.35 1.55-1.48 0-.98-.38-1.62-1.33-1.62H28v3.02ZM19 29v-5h1v1.12c.35-.74.56-1.12 1.07-1.12.1 0 .2.01.29.06a3.2 3.2 0 0 0-.07.84l-.06.05a.63.63 0 0 0-.48-.17C20.1 24.78 20 26 20 26v3h-1ZM22 26.52c0-1.23.61-2.52 2-2.52 1.36 0 2 1.27 2 2.48S25.4 29 24.02 29 22 27.76 22 26.52m1-.04c0 1.38.16 2.2 1 2.2 1 0 1-1.35 1-2.18 0-.76 0-2.21-1-2.18-.85 0-1 .71-1 2.16ZM32 29v-7h1v3.05c.36-.53.75-1.07 1.4-1.05 1.04 0 1.6.44 1.6 1.55V29h-1v-3c0-.7.22-1.45-.6-1.45-.94 0-1.4.7-1.4 1.6V29h-1M37.46 25v-.5c.5-.38.97-.5 1.48-.5.94 0 1.53.67 1.53 1.59v2.14c-.01.22-.04.66.18.8a.45.45 0 0 0 .35 0v.2s-.15.27-.53.27-.95-.32-1.01-.71c-.43.47-.6.7-1.14.7-.7.03-1.35-.51-1.32-1.24-.03-1.06 1.02-1.34 1.88-1.45.4-.04.58-.11.58-.6 0-.62 0-1.31-.71-1.27-.57 0-.93.12-1.18.57h-.11Zm2 1.37c-.19.07-.38.16-.58.2-.62.11-.88.43-.88.93-.02.37 0 1.02.46 1.06.54 0 .72-.2 1-.68v-1.5ZM44.74 24.3a2 2 0 0 0-.24.7h-.11c-.14-.43-.43-.63-.85-.62a.81.81 0 0 0-.84.84c0 .56.89.65 1.3.78.59.19 1 .7 1 1.53 0 .88-.92 1.49-1.76 1.47a2.4 2.4 0 0 1-1.24-.34c.13-.23.19-.4.18-.66h.14c.23.48.59.63 1.08.63.52.02.96-.39.94-.9.01-.42-.57-.63-.94-.73-.8-.23-1.4-.5-1.4-1.5s.76-1.5 1.65-1.5c.38 0 .75.13 1.1.3M47 26.5c-.05 1.02.32 2 1.5 2 .52 0 .94-.18 1.3-.6l.03.04-.05.47c-.42.36-1 .58-1.55.59-1.3.04-2.27-1.26-2.23-2.5 0-1.31.52-2.5 2-2.5 1.18 0 2 .92 2 2.06v.44h-3Zm0-.5h2c0-.7-.1-1.54-1-1.5-.88-.04-.98.77-1 1.5Z" fill="#62BB46"/><path d="M39.58 30H40v2.65h1.5V33h-1.92v-3ZM42 33l1.07-3h.43l1 3h-.41l-.39-1h-.9l-.41 1H42Zm.88-1.36h.73l-.34-1.2-.4 1.2ZM45 33v-3h1.43c.24 0 .48.07.67.21a.67.67 0 0 1 .25.55c0 .27-.14.47-.43.61a.9.9 0 0 1 .45.3.7.7 0 0 1 .13.43.83.83 0 0 1-.28.64c-.23.19-.53.28-.82.26H45Zm.44-1.74h.8c.45 0 .68-.16.68-.47 0-.28-.23-.43-.68-.43h-.8v.9Zm0 1.38h.94c.17.01.35-.04.5-.14a.47.47 0 0 0 .18-.41c0-.34-.25-.5-.76-.5h-.86v1.05ZM48.32 32.01c.01.44.25.66.7.66a.8.8 0 0 0 .48-.13.4.4 0 0 0 .13-.16.5.5 0 0 0 .04-.21c0-.06-.01-.1-.03-.15a.39.39 0 0 0-.07-.13c-.06-.07-.2-.14-.43-.2l-.52-.14a.78.78 0 0 1-.4-.23.61.61 0 0 1-.1-.2.7.7 0 0 1-.03-.25c0-.12.01-.24.05-.35.04-.1.1-.2.18-.28.19-.17.42-.26.66-.24a1 1 0 0 1 .66.21.8.8 0 0 1 .2.3c.06.12.08.26.08.39h-.32c-.03-.37-.24-.56-.62-.56a.64.64 0 0 0-.4.12.38.38 0 0 0-.13.16.48.48 0 0 0-.03.2c0 .05 0 .1.02.13 0 .04.03.08.05.11.08.08.18.13.28.14l.66.18c.16.03.3.12.42.26.05.07.1.15.12.23l.03.27c0 .13-.02.25-.07.36a.68.68 0 0 1-.2.28c-.22.16-.48.23-.74.22-.33 0-.57-.1-.74-.27a.92.92 0 0 1-.19-.33A1.09 1.09 0 0 1 48 32l.32.01Z" fill="#00AAE7"/><path fill-rule="evenodd" d="M11.46 26.9a9.82 9.82 0 0 1-1.45-2.9l-.03.05c-.07.27-.17.54-.29.8l-.03.09c-.23.55-.56 1.06-.86 1.54l-.14.22-.19.29c-.44.7-.92 1.46-1.22 2.31-.2.55-.28 1.14-.24 1.73.03.55.19 1.09.47 1.56A2.8 2.8 0 0 0 10.02 34c1.23 0 2.05-.62 2.52-1.43.27-.47.43-1 .45-1.55.04-.6-.05-1.19-.25-1.75-.32-.9-.8-1.64-1.28-2.37ZM10 32.88c-1.2-.41-1.3-2.01-1.23-2.6.08-.7.24-1.2.4-1.7.22-.68.45-1.36.48-2.58-.01.28-.28.86-.6 1.55-.42.9-.91 1.97-1.03 2.8-.19 1.4.81 3.13 1.98 2.53Z" fill="url(#ajylqqv5c)"/><path d="M5 33c1-.5 1.5-.5 2-.52a3.09 3.09 0 0 1-.17-.48c-.33 0-1.33.5-1.83 1ZM14.01 31.1A78.94 78.94 0 0 1 36 32c-4.27-1.27-9.38-2-14.86-2-2.39 0-4.78.14-7.14.43.03.2.04.41.03.62l-.02.05Z" fill="#62BB46"/><defs><linearGradient id="ajylqqv5c" x1="7" y1="29" x2="13.01" y2="29" gradientUnits="userSpaceOnUse"><stop stop-color="#C1E2F7"/><stop offset=".08" stop-color="#9CD7F4"/><stop offset=".18" stop-color="#73CBF1"/><stop offset=".29" stop-color="#4FC1EE"/><stop offset=".4" stop-color="#32B9EB"/><stop offset=".52" stop-color="#1CB2E9"/><stop offset=".65" stop-color="#0CAEE8"/><stop offset=".8" stop-color="#03ABE7"/><stop offset="1" stop-color="#00AAE7"/></linearGradient></defs></svg>