<!-- by TradingView --><svg xmlns="http://www.w3.org/2000/svg" width="56" height="56"><path fill="#3C2384" d="M0 0h56v56H0z"/><path d="M24.5 24a.5.5 0 00-.5.5v8a.5.5 0 00.5.5h1a.5.5 0 00.5-.5v-4.55C26 27 27.46 26 28.5 26h1a.5.5 0 00.5-.5v-1a.5.5 0 00-.5-.5H29c-1.5 0-2.5 1-3 1.95V24.5a.5.5 0 00-.5-.5h-1z" fill="#fff"/><path fill-rule="evenodd" d="M10.49 33.25c2.07 0 3.75-2.13 3.75-4.75s-1.68-4.75-3.75-4.75c-.96 0-1.83.45-2.49 1.2v-.45a.5.5 0 00-.5-.5h-1a.5.5 0 00-.5.5v11a.5.5 0 00.5.5h1a.5.5 0 00.5-.5v-3.45c.66.75 1.53 1.2 2.49 1.2zM8 28.5c0 1.38.9 2.5 2 2.5s2-1.12 2-2.5-.9-2.5-2-2.5-2 1.12-2 2.5z" fill="#fff"/><path d="M15.2 31.18c1.14-1.83.8-4.68-.2-6.16v-.52c0-.07 0-.5.5-.5h1a.5.5 0 01.5.5V29a2 2 0 104 0v-4.55c0-.18.2-.4.3-.4a.5.5 0 01.2-.05h1a.5.5 0 01.5.5v8a.5.5 0 01-.5.5h-1a.5.5 0 01-.5-.5v-.94a3.19 3.19 0 01-5.8-.38z" fill="#fff"/><path fill-rule="evenodd" d="M35.49 33.25c2.07 0 3.75-2.13 3.75-4.75s-1.68-4.75-3.75-4.75c-.96 0-1.83.45-2.49 1.2v-.45a.5.5 0 00-.5-.5h-1a.5.5 0 00-.5.5v11a.5.5 0 00.5.5h1a.5.5 0 00.5-.5v-3.45c.66.75 1.53 1.2 2.49 1.2zM33 28.5c0 1.38.9 2.5 2 2.5s2-1.12 2-2.5-.9-2.5-2-2.5-2 1.12-2 2.5z" fill="#fff"/><path d="M40 20.5a.5.5 0 01.5-.5h1a.5.5 0 01.5.5v12a.5.5 0 01-.5.5h-1a.5.5 0 01-.5-.5v-.77A6.06 6.06 0 0040 25v-4.5z" fill="#fff"/><path fill-rule="evenodd" d="M51.52 29a.47.47 0 00.48-.5c0-2.62-2.02-4.75-4.5-4.75S43 25.88 43 28.5s2.02 4.75 4.5 4.75c1.44 0 2.72-.71 3.54-1.82.16-.21.09-.51-.13-.66l-.96-.64c-.25-.16-.58-.07-.79.14a2.35 2.35 0 01-1.66.73 2 2 0 01-2-2h6.02zm-4.02-3.5a2 2 0 00-2 2h4a2 2 0 00-2-2z" fill="#fff"/></svg>