<!-- by TradingView --><svg width="56" height="56" viewBox="0 0 56 56" xmlns="http://www.w3.org/2000/svg"><path fill="#F0F3FA" d="M0 0h56v56H0z"/><path d="m14.8 13.02 15.3 14.37c.13.12.1.15-.06.08l-20-7.95c-.04-.02-.05-.04-.02-.08l4.71-6.41c.03-.04.05-.04.08-.01Z" fill="#3BA640"/><path d="M33.9 15.99c-.37.88-.64 1.75-.83 2.6-.13.07-.22.26-.28.58-.01.08-.06.11-.14.09a9.53 9.53 0 0 0-6.19.24c-.14.05-.26.01-.34-.11l-2.43-3.45c-.07-.1-.05-.16.05-.21a14.26 14.26 0 0 1 10.29-.8c.12.04.16.12.13.24l-.27.82Z" fill="#28569B"/><path d="M33.9 15.99a13.41 13.41 0 0 1 7.8 7.32c.1.2.08.35-.03.44-.13.08-.26.14-.4.17l-1.86.75c-.08.03-.14-.07-.17-.14a10.59 10.59 0 0 0-6.17-5.93c.19-.86.46-1.73.82-2.61Z" fill="#1B749D"/><path d="M29.04 42.46c.06-.04.1-.12.1-.22.03-1.1.05-2.47.06-4.11v-.8c0-.06.02-.08.07-.08a8.66 8.66 0 0 0 7.12-3.47 8.48 8.48 0 0 0 1.53-7.74l-.17-.6c-.02-.07 0-.12.06-.14l3.46-1.38c.14-.03.27-.09.4-.17l1.26-.5c.08-.02.14 0 .17.09a14.55 14.55 0 0 1-6.97 18A14.64 14.64 0 0 1 29.1 43c-.1 0-.13-.05-.1-.14.04-.12.05-.26.04-.4Z" fill="#2A56A2"/><path d="M24.01 36.45a6.05 6.05 0 0 1-.16.12 62.6 62.6 0 0 0-2.36 3.4l-.74 1.08c-.08.1-.17.12-.27.04a15.54 15.54 0 0 1-6.67-12.96c0-.06.03-.09.08-.08l7.32.18a8.05 8.05 0 0 0 3.57 6.81c.06.05.07.1.03.16L24 36.36a.06.06 0 0 0-.02.04c0 .03.02.05.03.05Z" fill="#133776"/><path d="M24.01 36.45c.24.1.47.21.7.35a9 9 0 0 0 3.39 1.17l1.1.16c0 1.64-.02 3.01-.06 4.11 0 .1-.04.18-.1.22-2.77-.1-5.29-.93-7.55-2.5a62.6 62.6 0 0 1 2.44-3.46l.08-.05Z" fill="#1B749D"/></svg>