<!-- by TradingView --><svg width="56" height="56" viewBox="0 0 56 56" xmlns="http://www.w3.org/2000/svg"><path fill="#F0F3FA" d="M0 0h56v56H0z"/><path fill-rule="evenodd" d="M4 24v8h1.5v-3h2.03A2.48 2.48 0 0 0 10 26.5c0-1.38-1.1-2.5-2.47-2.5H4Zm1.5 1.5h2.02a1 1 0 0 1 .98 1 1 1 0 0 1-.98 1H5.5v-2ZM12 24v8h5v-1.5h-3.5v-2h3V27h-3v-1.5H17V24h-5Zm8 0v8h1.5v-3h1.47l1.24 3h1.67l-1.31-3.23A2.5 2.5 0 0 0 26 26.5c0-1.38-1.1-2.5-2.47-2.5H20Zm1.5 1.5h2.02a1 1 0 0 1 .98 1 1 1 0 0 1-.98 1H21.5v-2Zm7.3 6.5H27l3.97-8L35 32h-1.8l-.51-1h-3.4l-.5 1Zm2.17-4.35.95 1.85h-1.87l.92-1.85Zm10.47-2.16-1.47.52c-.08-.18-.34-.47-.93-.47-.59 0-1.1.24-1.1.6 0 .3.21.44.31.47l2.2.86c.97.39 1.55 1.09 1.55 1.92 0 .84-.47 2.61-3.08 2.61-2.08 0-2.81-1.28-2.92-1.92l1.51-.54c0 .49.54.94 1.41.94.88 0 1.54-.4 1.54-.89a.7.7 0 0 0-.47-.64c-.34-.15-1.27-.52-2.23-.89-1.2-.46-1.36-1.25-1.36-1.87 0-.62.48-2.19 2.56-2.19 1.66 0 2.34 1 2.48 1.49ZM52 28a4 4 0 1 1-8 0 4 4 0 0 1 8 0Zm-1.5 0a2.5 2.5 0 1 1-5 0 2.5 2.5 0 0 1 5 0Z" fill="url(#axdqkvopj)"/><defs><linearGradient id="axdqkvopj" x1="4" y1="28" x2="52.54" y2="28.75" gradientUnits="userSpaceOnUse"><stop stop-color="#003350"/><stop offset="1" stop-color="#00A4E1"/></linearGradient></defs></svg>