<!-- by TradingView --><svg width="56" height="56" viewBox="0 0 56 56" xmlns="http://www.w3.org/2000/svg"><path fill="#F0F3FA" d="M0 0h56v56H0z"/><path d="M7 24H5v12h2v-4.91A4.03 4.03 0 0 0 10.37 33c2.28 0 4.13-2.01 4.13-4.5S12.64 24 10.36 24c-1.4 0-2.62.75-3.37 1.91V24Zm5.42 4.54A2.7 2.7 0 0 1 9.8 31.3a2.7 2.7 0 0 1-2.62-2.77 2.7 2.7 0 0 1 2.62-2.77 2.7 2.7 0 0 1 2.62 2.77ZM17 24h-2v9h2v-4.6a3.06 3.06 0 0 1 3-2.27V24c-.7-.08-2.19.25-3 2.14V24ZM24.76 33c1.46 0 2.74-.72 3.55-1.83l-1.56-.96a2.38 2.38 0 0 1-2 1.18c-1.22 0-2.24-1.03-2.44-2.39h6.83l.02-.5c0-2.49-1.97-4.5-4.4-4.5a4.45 4.45 0 0 0-4.4 4.5c0 2.49 1.97 4.5 4.4 4.5Zm2.43-5h-4.88c.2-1.36 1.22-2.39 2.44-2.39s2.24 1.03 2.44 2.39ZM33 24c1.48.07 2.7.72 3.12 1.03l-.74 1.5a4.6 4.6 0 0 0-2.39-.94c-1.6-.08-2.38 1.4 0 1.95 2.39.55 3.3 1.53 3.36 2.82.05 1.3-1.14 2.56-3.36 2.64a6.67 6.67 0 0 1-3.96-1.3l.97-1.34a4.92 4.92 0 0 0 3 1.08c.47-.05 1.43-.28 1.4-.79-.02-.63-.33-1.08-1.66-1.32-1.33-.24-3.24-.84-3.24-2.64 0-1.79 1.63-2.76 3.5-2.69Z" fill="#012241"/><path fill-rule="evenodd" d="M47.5 33a4.5 4.5 0 1 0 0-9 4.5 4.5 0 0 0 0 9Zm0-1.8c1.38 0 2.5-1.2 2.5-2.7 0-1.5-1.12-2.7-2.5-2.7S45 27 45 28.5c0 1.5 1.12 2.7 2.5 2.7Z" fill="#012241"/><path d="m42.91 19 .74 1.5 1.66-.25-1.2 1.17.75 1.5-1.49-.78-1.19 1.17.28-1.64-1.48-.78 1.65-.24.28-1.65Zm4.26 1.82-.11.94.86.39-.93.19-.1.93-.47-.82-.93.2.64-.7-.46-.83.86.4.64-.7Zm-3.46 2.9-.16-.71-.28.66-.72-.06.54.47-.29.67.63-.37.54.48-.16-.7.63-.38-.73-.07Z" fill="#F9A600"/><path d="M38 22v2h-1.65v1.54H38v5.14c.02 1.2.43 3.23 4 1.87v-1.63c-.8.4-2 .77-2-.97v-4.41h2.02V24H40.7l.57 1.02-1.11-.52-.87.83.18-1.15-1.11-.52 1.23-.2.18-1.14.23.42V22h-2Z" fill="#012241"/></svg>