<!-- by TradingView --><svg width="56" height="56" fill="none" xmlns="http://www.w3.org/2000/svg"><path fill="#0A395F" d="M0 0h56v56H0z"/><path fill-rule="evenodd" clip-rule="evenodd" d="M8.354 37c3.547 0 6.66-1.68 8.42-4.21H15.4c-1.773 2.416-4.848 4.013-8.344 4.013-.335 0-.729-.014-1.055-.043.736.157 1.566.24 2.354.24zm6.944-13.926h1.38C14.902 20.62 11.838 19 8.354 19c-.788 0-1.618.083-2.354.24.326-.028.72-.043 1.055-.043 3.43 0 6.455 1.538 8.243 3.877z" fill="url(#paint0_linear_3205)"/><path fill-rule="evenodd" clip-rule="evenodd" d="M39.335 32.79c1.752 2.53 4.852 4.21 8.383 4.21.786 0 1.55-.083 2.282-.24a11.26 11.26 0 01-.988.043c-3.48 0-6.542-1.597-8.308-4.012h-1.37zm-.194-9.29c1.712-2.69 4.912-4.5 8.577-4.5.786 0 1.55.083 2.282.24a11.26 11.26 0 00-.988-.043c-3.619 0-6.784 1.726-8.512 4.303h-1.359z" fill="#9673A5"/><path fill-rule="evenodd" clip-rule="evenodd" d="M20.615 23.062h-1.24A8.926 8.926 0 0126.863 19c.709 0 1.475.16 2.136.315a9.238 9.238 0 00-.891-.043c-3.09 0-5.882 1.466-7.494 3.79z" fill="url(#paint1_linear_3205)"/><path d="M28.923 36.782c-.299.027-.601.041-.908.041-3.198 0-6.01-1.517-7.632-3.813h-1.258c1.61 2.404 4.458 3.99 7.702 3.99h1c.372-.035.738-.138 1.096-.218z" fill="url(#paint2_linear_3205)"/><path fill-rule="evenodd" clip-rule="evenodd" d="M36.063 23.468a9.014 9.014 0 00-7.8-4.468h-.613c-.51 0-.988.127-1.463.238.296-.028.595-.043.898-.043 3.292 0 6.17 1.714 7.742 4.273h1.236z" fill="url(#paint3_linear_3205)"/><path d="M26.125 36.785c.303.027.61.04.92.04 3.244 0 6.17-1.601 7.815-3.815l1.203.138C34.428 35.465 31.54 37 28.25 37h-.603c-.548 0-1.03-.11-1.523-.215z" fill="url(#paint4_linear_3205)"/><path d="M22.477 28.831c.348.509.523 1.152.523 1.929 0 1.04-.342 1.84-1.024 2.4-.683.56-1.677.84-2.982.84H14V22h4.694c1.196 0 2.151.274 2.804.823.652.549.979 1.31.979 2.28 0 .63-.128 1.172-.381 1.629a2.703 2.703 0 01-1.055 1.046 2.674 2.674 0 011.436 1.053zm-6.982-5.443v3.84h3.065c.767 0 1.388-.163 1.802-.488.414-.326.621-.803.621-1.431s-.207-1.106-.62-1.431c-.414-.326-1.036-.489-1.803-.489l-3.065-.001zm5.352 8.744c.428-.32.643-.824.643-1.51 0-1.337-.852-2.006-2.556-2.006h-3.439v3.995h3.439c.846 0 1.485-.16 1.913-.48z" fill="url(#paint5_linear_3205)"/><path d="M27 22h1.5v12H27V22z" fill="url(#paint6_linear_3205)"/><path d="M41.5 28H43v4.508c-.592.48-1.384.85-2.17 1.107a7.885 7.885 0 01-2.46.385c-1.206 0-2.294-.26-3.262-.78a5.836 5.836 0 01-2.28-2.145C32.276 30.165 32 29.14 32 28c0-1.14.276-2.167.828-3.084a5.742 5.742 0 012.29-2.145c.973-.514 1.851-.771 3.07-.771.956 0 1.824.153 2.604.46.78.308 1.443.758 1.99 1.35l-1.058 1.039c-.956-.906-2.106-1.443-3.536-1.443-2.448 0-4.688 1.443-4.688 4.594 0 3.083 3 4.5 4.958 4.5 1.07 0 2.245-.244 3.042-.747V28z" fill="url(#paint7_linear_3205)"/><defs><linearGradient id="paint0_linear_3205" x1="10.098" y1="18.212" x2="14.341" y2="37.579" gradientUnits="userSpaceOnUse"><stop offset=".093" stop-color="#1BA3D3"/><stop offset=".257" stop-color="#7986B2"/><stop offset="1" stop-color="#1BA3D3"/></linearGradient><linearGradient id="paint1_linear_3205" x1="25.298" y1="18.218" x2="20.689" y2="37.251" gradientUnits="userSpaceOnUse"><stop offset=".093" stop-color="#D4A048"/><stop offset=".257" stop-color="#A17AA3"/><stop offset="1" stop-color="#1BA3D3"/></linearGradient><linearGradient id="paint2_linear_3205" x1="28.923" y1="38.293" x2="19.623" y2="34.745" gradientUnits="userSpaceOnUse"><stop offset=".264" stop-color="#A17AA3"/><stop offset="1" stop-color="#1BA3D3"/></linearGradient><linearGradient id="paint3_linear_3205" x1="27.779" y1="17.939" x2="36.19" y2="27.672" gradientUnits="userSpaceOnUse"><stop offset=".021" stop-color="#D4A048"/><stop offset=".199" stop-color="#9673A5"/></linearGradient><linearGradient id="paint4_linear_3205" x1="26.125" y1="38.242" x2="35.432" y2="34.508" gradientUnits="userSpaceOnUse"><stop offset=".264" stop-color="#A17AA3"/><stop offset=".666" stop-color="#D3A04A"/></linearGradient><linearGradient id="paint5_linear_3205" x1="24.541" y1="24.066" x2="11.566" y2="34.563" gradientUnits="userSpaceOnUse"><stop offset=".231" stop-color="#A17AA3"/><stop offset=".692" stop-color="#1BA3D3"/></linearGradient><linearGradient id="paint6_linear_3205" x1="27.5" y1="22" x2="27.5" y2="34" gradientUnits="userSpaceOnUse"><stop stop-color="#DFA852"/><stop offset="1" stop-color="#C29387"/></linearGradient><linearGradient id="paint7_linear_3205" x1="43" y1="25.688" x2="30.632" y2="32.887" gradientUnits="userSpaceOnUse"><stop offset=".463" stop-color="#9673A5"/><stop offset=".755" stop-color="#DAA466"/></linearGradient></defs></svg>