<!-- by TradingView --><svg width="56" height="56" xmlns="http://www.w3.org/2000/svg"><path fill="url(#paint0_linear)" d="M0 0h56v56H0z"/><path d="M13 26.789C13 36.755 20.869 45.076 31 46V33.298c-4.746-.436-8.066-3.846-8.066-8.394 0-4.406 3.015-7.598 7.165-7.598 3.805 0 6.376 2.324 6.376 5.76 0 3.047-1.917 5.01-5.475 5.54v4.692c7.313-.192 12-4.523 12-11.06C43 15.177 37.366 10 29.657 10 20.168 10 13 17.255 13 26.789z" fill="#fff"/><defs><linearGradient id="paint0_linear" x1="9.31" y1="47.793" x2="33.067" y2="-2.643" gradientUnits="userSpaceOnUse"><stop stop-color="#0073C0"/><stop offset=".1" stop-color="#007AC3"/><stop offset=".4" stop-color="#218FCF"/><stop offset=".5" stop-color="#2D97D3"/><stop offset=".6" stop-color="#2EA1D5"/><stop offset=".7" stop-color="#30ABD6"/><stop offset=".8" stop-color="#32B4D7"/><stop offset=".9" stop-color="#35BED7"/><stop offset="1" stop-color="#37C7D8"/></linearGradient></defs></svg>