<!-- by TradingView --><svg width="56" height="56" xmlns="http://www.w3.org/2000/svg"><path fill="#0075BB" d="M0 0h56v56H0z"/><path d="M21.503 36h-1.997l-.35.962c-.086.228-.13.398-.13.51 0 .09.038.169.111.238.076.066.238.11.487.13V38H18v-.16c.215-.043.355-.1.418-.169.13-.138.273-.42.43-.843L20.662 32h.133l1.795 4.88c.145.392.276.647.392.765.12.116.284.18.495.195V38h-2.035v-.16c.205-.012.343-.05.414-.117a.314.314 0 00.11-.242c0-.127-.05-.327-.151-.601l-.312-.88zm-.107-.284l-.875-2.37-.897 2.37h1.772zM25.165 35.119v1.843c0 .369.036.598.107.688.096.127.242.19.437.19H26V38h-2.303v-.16h.194c.218 0 .374-.08.468-.242.05-.09.076-.302.076-.636v-3.924c0-.369-.034-.598-.103-.688-.099-.127-.246-.19-.44-.19h-.195V32h1.89c.462 0 .826.055 1.092.164.266.107.49.289.673.545.183.257.274.561.274.913 0 .479-.14.868-.419 1.168-.276.3-.668.45-1.175.45-.124 0-.258-.01-.403-.03-.144-.02-.299-.05-.464-.091zm0-.247c.134.03.254.05.358.065.104.015.192.022.266.022.264 0 .49-.116.68-.346.193-.234.29-.535.29-.904 0-.254-.046-.49-.137-.705a1.024 1.024 0 00-.388-.49 1.018 1.018 0 00-.57-.164c-.13 0-.296.028-.499.083v2.44zM30.212 37.84V38h-2.21v-.16h.183c.213 0 .368-.07.464-.212.061-.092.091-.314.091-.666l-.004-3.924c0-.297-.017-.493-.05-.588a.374.374 0 00-.155-.186.654.654 0 00-.35-.104h-.183V32h2.21v.16h-.187c-.21 0-.364.07-.46.212-.063.092-.095.314-.095.666l.005 3.924c0 .297.016.493.05.588a.37.37 0 00.159.186c.109.07.224.104.346.104h.186zM35.005 32l.057 1.376h-.145c-.028-.243-.066-.416-.114-.52a.81.81 0 00-.316-.367c-.129-.08-.3-.121-.513-.121h-.726l-.001 4.615c0 .36.034.586.103.675.096.121.244.182.444.182H34V38h-2.213v-.16h.182c.218 0 .373-.075.464-.225.056-.092.084-.303.084-.632v-4.615h-.62c-.24 0-.412.02-.513.06a.732.732 0 00-.338.316c-.094.156-.15.366-.168.632h-.144l.06-1.376h4.21zM38.199 36.036h-1.997l-.35.926c-.086.228-.13.398-.13.51 0 .09.038.169.111.238.076.066.238.11.487.13V38h-1.624v-.16c.215-.043.355-.1.418-.169.13-.138.273-.42.43-.843L37.358 32h.133l1.795 4.88c.145.392.275.647.392.765.12.116.284.18.494.195V38H38v-.16c.205-.012.481-.05.552-.117a.314.314 0 00.11-.242c0-.127-.05-.327-.151-.601l-.312-.844zm-.107-.32l-.875-2.37-.897 2.37h1.772zM44.883 36.378l.117.03L44.568 38H40.42v-.16h.194c.218 0 .374-.08.467-.242.054-.093.08-.306.08-.64v-3.92c0-.366-.035-.595-.106-.688-.1-.127-.246-.19-.441-.19h-.194V32h2.335v.16c-.274-.003-.467.026-.578.087a.494.494 0 00-.225.229c-.04.092-.06.313-.06.662v3.82c0 .239.02.403.06.493.03.06.078.105.141.134.063.029.416.043.748.043h.376c.396 0 .674-.033.833-.1.16-.066.306-.183.438-.35.131-.17.263-.437.395-.8zM20 27h-1.314l-1.698-2.945a7.22 7.22 0 01-.307.009h-.104a15.496 15.496 0 00-.115-.009v1.93c0 .36.035.585.104.672.094.124.234.186.422.186h.196V27H15v-.157h.223c.212 0 .364-.078.455-.236.052-.088.078-.295.078-.622v-3.97c0-.36-.035-.585-.104-.672-.096-.124-.24-.186-.43-.186H15V21h1.862c.533 0 .925.045 1.177.135.254.088.468.252.644.491.177.237.266.52.266.85 0 .353-.101.66-.303.919-.2.26-.511.443-.933.55l1.036 1.908c.237.378.44.63.61.753.171.125.367.204.641.237V27zm-3.538-3.212c.047 0 .088.002.123.005h.085c.478 0 .838-.119 1.08-.356.244-.237.366-.539.366-.905 0-.358-.098-.65-.296-.872-.194-.226-.453-.338-.777-.338-.143 0-.336.026-.58.08v2.386zM22.73 21c.652 0 1.216.284 1.692.85.478.565.718 1.27.718 2.116 0 .872-.24 1.595-.722 2.17-.481.576-1.063.864-1.746.864-.691 0-1.272-.28-1.743-.842-.469-.561-.703-1.288-.703-2.18 0-.91.271-1.654.814-2.23.47-.498 1.035-.748 1.69-.748zm-.07.309c-.448 0-.809.19-1.08.571-.338.474-.507 1.168-.507 2.082 0 .936.175 1.657.526 2.162.268.384.624.576 1.065.576.471 0 .86-.21 1.166-.63.308-.421.462-1.084.462-1.99 0-.981-.169-1.713-.507-2.196-.271-.383-.646-.575-1.125-.575zM29.001 21v2h-.137c-.044-.38-.215-.7-.331-.925a1.321 1.321 0 00-.489-.538 1.226 1.226 0 00-.658-.198.832.832 0 00-.637.27.863.863 0 00-.251.61c0 .174.053.334.159.478.153.211.517.493 1.091.846.469.288.788.51.959.664.172.153.304.333.396.542.093.209.14.427.14.656 0 .434-.148.81-.444 1.125-.293.313-.672.47-1.136.47-.145 0-.282-.013-.41-.038a3.967 3.967 0 01-.478-.152c-.24-.09-.39-.136-.455-.136-.062 0-.069.021-.106.064-.035.042-.06.13-.078.262H26v-2h.137c.064.412.109.753.217.96.109.202.274.371.496.507a1.4 1.4 0 00.736.203c.309 0 .552-.093.73-.28a.918.918 0 00.27-.66.983.983 0 00-.104-.427 1.212 1.212 0 00-.315-.402c-.096-.084-.358-.264-.788-.537-.429-.277-.735-.497-.917-.66a1.74 1.74 0 01-.411-.542 1.5 1.5 0 01-.14-.651c0-.412.137-.766.414-1.063A1.373 1.373 0 0127.378 21c.267 0 .55.075.848.224.138.07.235.106.292.106a.203.203 0 00.155-.063c.042-.046.167-.134.191-.267h.137zM31.206 24.05l.004 1.934c0 .362.035.586.104.673.094.124.236.186.426.186H32V27h-2.218v-.157h.189c.212 0 .364-.078.455-.236.05-.088.074-.295.074-.622l-.005-3.97c0-.36-.033-.585-.1-.672-.096-.124-.239-.186-.429-.186h-.189V21h1.84c.448 0 .802.054 1.061.16.26.105.478.283.655.534.178.251.267.549.267.893 0 .468-.136.849-.407 1.142-.27.294-.65.44-1.144.44-.12 0-.251-.01-.392-.03-.14-.02-.291-.049-.451-.088zm0-.24c.13.028.246.049.348.063.1.014.187.021.259.021.256 0 .477-.113.662-.338.187-.229.281-.524.281-.885 0-.248-.044-.478-.133-.69a1 1 0 00-.378-.478.986.986 0 00-.555-.16c-.125 0-.287.026-.484.08v2.387zM35.456 21.313l.002 2.524h1.103c.286 0 .477-.05.573-.148.128-.13.2-.358.215-.686h.137v1.998h-.137c-.035-.28-.07-.459-.104-.538a.495.495 0 00-.218-.233c-.101-.056-.257-.084-.466-.084h-1.103l-.03 1.898c0 .254.01.409.03.465.02.054.054.098.104.131.049.031.143.047.28.047h.852c.283 0 .49-.023.618-.068a.914.914 0 00.37-.266c.153-.175.31-.439.47-.792h.148L37.867 27H34v-.157h.178c.118 0 .23-.032.336-.097a.336.336 0 00.16-.203c.03-.09.044-.275.044-.554l.027-3.99c0-.364-.032-.589-.096-.673-.089-.113-.236-.17-.444-.17H34V21h4v1.257h-.194c-.052-.302-.11-.51-.174-.622a.605.605 0 00-.278-.258c-.099-.043-.272-.064-.521-.064h-1.377zM43.067 21l.115 2h-.115c-.153-.584-.37-1.054-.654-1.31a1.47 1.47 0 00-1.022-.385c-.333 0-.634.097-.903.292-.269.191-.48.499-.636.922-.153.423-.23.95-.23 1.578 0 .52.073.97.219 1.35.145.38.364.673.655.876a1.72 1.72 0 001.002.305c.326 0 .614-.08.863-.237.249-.161.523-.478.821-.952l.115.084c-.252.51-.545.885-.88 1.122-.336.236-.735.355-1.196.355-.831 0-1.475-.353-1.932-1.058-.34-.524-.51-1.142-.51-1.853 0-.573.112-1.099.336-1.578.225-.48.533-.85.926-1.113A2.27 2.27 0 0141.332 21c.363 0 .72.102 1.073.305.104.062.178.093.222.093a.23.23 0 00.174-.08.698.698 0 00.137-.318h.13zM47.957 21L48 22.346h-.128c-.027-.237-.064-.407-.111-.508a.792.792 0 00-.307-.36c-.126-.079-.293-.118-.5-.118h-.706v4.646c0 .352.033.572.1.66.093.118.237.177.432.177H47V27h-2.173v-.157h.177c.212 0 .363-.073.452-.22.054-.09.081-.296.081-.617V21.36h-.603c-.234 0-.401.02-.5.059a.714.714 0 00-.329.309c-.091.152-.145.358-.163.618h-.14L43.86 21h4.096zM10.616 22.785v2.622c0 .567.063.918.19 1.055.171.195.43.292.779.292h.352V27H8v-.246h.346c.388 0 .666-.123.833-.371.09-.137.136-.463.136-.976v-5.814c0-.567-.061-.918-.183-1.055-.177-.195-.439-.292-.786-.292H8V18h3.368c.822 0 1.47.084 1.945.252.474.164.874.443 1.2.837.324.393.487.86.487 1.4 0 .735-.248 1.332-.745 1.792-.493.46-1.19.69-2.094.69-.222 0-.461-.015-.719-.046a9.567 9.567 0 01-.826-.14zm0-.378c.24.044.451.078.637.1.185.022.343.033.474.033.47 0 .874-.177 1.213-.531.343-.359.515-.82.515-1.387 0-.39-.081-.75-.244-1.082a1.64 1.64 0 00-.691-.75 2.033 2.033 0 00-1.017-.252c-.23 0-.526.042-.887.126v3.743zM17.645 29l.177 3h-.177c-.237-.876-.576-1.58-1.015-1.965-.44-.386-.967-.578-1.582-.578-.517 0-.983.146-1.4.438-.416.288-.745.749-.985 1.384-.237.634-.356 1.423-.356 2.367 0 .779.113 1.453.338 2.025.226.57.564 1.009 1.015 1.313.455.305.973.457 1.554.457a2.5 2.5 0 001.335-.355c.387-.241.81-.717 1.273-1.428l.178.127c-.39.766-.845 1.326-1.364 1.682-.52.355-1.137.533-1.852.533-1.288 0-2.286-.529-2.993-1.587-.527-.787-.791-1.713-.791-2.78 0-.859.174-1.648.522-2.367.348-.72.825-1.276 1.433-1.67a3.597 3.597 0 012-.596c.563 0 1.117.152 1.663.457.16.093.276.14.344.14a.36.36 0 00.27-.121c.1-.114.17-.273.212-.476h.2z" fill="#fff"/></svg>