<!-- by TradingView --><svg width="56" height="56" xmlns="http://www.w3.org/2000/svg"><path fill="#004FA3" d="M0 0h56v56H0z"/><path d="M7.976 26H5.548v.218c0 .038.038.03.09.03.12 0 .173.037.173.128 0 .09-.571 1.942-1.308 4.113-.06.188-.157.263-.323.263-.105 0-.18.015-.18.045V31h2.428v-.173c0-.045-.038-.075-.09-.075-.12 0-.174-.037-.174-.128 0-.075.174-.74.43-1.491.007.015.112.068.42.068 1.21 0 2.608-1.06 2.608-2.18 0-.623-.616-1.021-1.646-1.021zm-1.082 2.848c-.105 0-.166-.03-.166-.09 0-.008.842-2.51.782-2.33.038-.12.158-.203.3-.203.136 0 .204.128.204.346 0 .594-.64 2.276-1.12 2.276zM13.767 30.775c-.3 0-.616-1.259-.707-1.905.76-.398 1.361-1.112 1.361-1.848 0-.624-.616-1.022-1.646-1.022h-2.428v.218c0 .038.038.03.09.03.12 0 .173.037.173.128 0 .09-.571 1.942-1.308 4.113-.06.188-.158.263-.323.263-.105 0-.18.015-.18.045V31h2.428v-.173c0-.045-.038-.075-.09-.075-.121 0-.174-.037-.174-.128 0-.075.173-.74.429-1.491.007.015.09.06.33.068.03.946.181 1.799.602 1.799h1.548l.023-.188c.007-.037-.008-.037-.128-.037zm-2.232-2.093l.759-2.209c.053-.15.173-.248.316-.248.135 0 .203.128.203.346 0 .616-.64 2.201-1.113 2.201-.105 0-.165-.03-.165-.09z" fill="#fff"/><path d="M14.152 30.49c-.06.187-.157.262-.33.262-.105 0-.173.023-.173.053V31h2.42v-.195c0-.03-.022-.053-.075-.053-.12 0-.18-.037-.18-.128 0-.09.57-1.942 1.307-4.113.06-.188.158-.263.331-.263.053 0 .105-.015.105-.045V26h-2.352v.203c0 .045.022.045.075.045.12 0 .18.037.18.128 0 .09-.57 1.942-1.308 4.113zM18.733 31c.932 0 1.518-.488 1.759-1.217l-.752-.105c-.135.526-.51.916-.819.916-.195 0-.323-.218-.323-.54 0-1.015 1-3.76 1.759-3.76.21 0 .338.217.338.615 0 .128-.008.27-.038.428l.61-.105c-.03-.12.225-.871.307-1.052.008-.015.008-.022.015-.03-.188-.165-.691-.278-1.044-.278-1.902 0-3.586 1.717-3.586 3.55 0 .947.617 1.578 1.774 1.578zM25.978 26h-3.901v.203c.007.038.03.045.083.045.12 0 .18.037.18.128 0 .045-.323 1.19-1.308 4.113-.06.188-.158.263-.33.263-.046 0-.173-.007-.173.03V31h3.825c-.09-.135.218-.894.339-1.014-.24-.015-.496-.023-.737-.038-.18.42-.519.699-.85.699h-.202c-.12 0-.18-.038-.18-.128 0-.075.142-.48.556-1.867l.744.03-.083.406.466.052c-.015-.135.36-1.247.444-1.352l-.504.09c-.068.196-.165.316-.27.33l-.677.091.571-1.683c.068-.203.158-.263.376-.263h.007c.279.008.436.203.436.526 0 .09-.015.188-.037.293.255-.015.51-.188.767-.203-.03-.082.24-.789.458-.969zM30.25 29.341c.235-1.099-.57-1.465-1.749-1.465-1.381 0-2.291.556-2.5 1.537-.131.76.032 1.199.713 1.415l1.244.392c.164.053.281.144.242.32-.04.21-.255.387-.53.387-.177 0-.282-.059-.334-.15-.052-.099-.052-.23-.026-.36h-1.794c-.262 1.23.714 1.583 1.853 1.583 1.335 0 2.383-.484 2.625-1.794.124-.569-.046-.994-.59-1.243-.438-.203-1.066-.334-1.407-.438-.183-.06-.281-.131-.242-.301.033-.144.19-.275.491-.275.242 0 .386.098.327.392h1.676zM34.797 33h1.584l1.008-5H34.79l-1.119 2.814h-.013L33.743 28h-2.599l-1.008 5h1.584l.72-3.652h.013L32.401 33h1.715l1.388-3.652h.013L34.797 33zM39.073 31L40 29.034V31h-.927zm-2.484 2h1.793l.354-1H40v1h2.048l-.51-5h-2.43l-2.52 5zM42.257 33h1.833l.36-2h.216c.301 0 .4.134.387.37-.02.406-.086 1.277-.053 1.63h1.833c-.065-.713.092-1.656.072-2.062-.013-.36-.222-.563-.668-.602v-.013c.747-.17 1.061-.582 1.179-1.125.19-.89-.34-1.198-1.355-1.198h-2.796l-1.008 5zm2.392-3l.22-1h.17c.367 0 .596.145.518.492-.072.353-.36.508-.72.508h-.188zM47.954 33h1.873l.733-4h1.165L52 28h-4.203l-.275 1h1.165l-.733 4z" fill="#fff"/><path d="M17.002 23.774l1.799-.49v1.962l-1.8.409v-1.88zM19.619 21.331l1.67-.02-.427 1.676-1.652-.049.409-1.607zM22.832 20l1.315.62-1.007 1.172-1.273-.669.965-1.123zM25.915 20.032l.9.9-1.105.654-.858-.9 1.063-.654zM28.584 20.935l.531.94-1.063.287-.49-.94 1.022-.287zM30.802 22.302l.183.9h-1.031l-.158-.915 1.006.015zM32.375 24.101v.805l-.817-.161v-.89l.817.246zM33.438 26.145l-.164.695-.572-.367.186-.653.55.325z" fill="#ED1C50"/></svg>