<!-- by TradingView --><svg xmlns="http://www.w3.org/2000/svg" width="56" height="56" viewBox="0 0 56 56"><path fill="#F0F3FA" d="M0 0h56v56H0z"/><path d="M5 29v2h3v3h2v-3h3v-2h-3v-3H8v3H5z" fill="#334049"/><path d="M8 22v2h5.1c1.1 0 1.9 1.22 1.9 2.48 0 .9-.31 1.56-1 2.02v2c1.84-.43 3-2.03 3-4.29C17 23.7 15.46 22 13.28 22H8z" fill="#C05A26"/><path d="M19 34V22h2v10h6v2h-8zM29 29.34V22h2v7.31c0 1.7 1.37 2.69 3.01 2.69 1.65 0 2.99-1 2.99-2.69V22h2v7.34A4.6 4.6 0 0 1 34.46 34h-.92A4.6 4.6 0 0 1 29 29.34zM46.04 34A9.02 9.02 0 0 1 41 32.16l1.38-1.65C43.91 32.06 45.4 32 45.75 32c.35 0 2.25.26 2.25-1.16 0-1.41-1.6-1.52-3.13-2.06-1.52-.54-3.37-1.28-3.37-3.35 0-2.08 1.96-3.43 4.17-3.43 1.76 0 3.34 1 3.91 1.5l-1.25 1.72c-1.49-.96-2.36-1.22-2.8-1.22-.43 0-2.03.1-2.03 1.22 0 1.13.92 1.39 2.87 1.92h.02c1.95.55 3.61 1.32 3.61 3.21 0 1.9-1.24 3.65-3.96 3.65z" fill="#C05B27"/></svg>