<!-- by TradingView --><svg width="56" height="56" viewBox="0 0 56 56" xmlns="http://www.w3.org/2000/svg"><path fill="#F0F3FA" d="M0 0h56v56H0z"/><path d="M44 28.67 43.53 27c-.95 1.92-2.96 4-5.56 4-2.6 0-4.26-2.08-4.97-2.85.35 1.16 2.6 3.85 5.68 3.85 2.46 0 4.57-2.22 5.32-3.33Z" fill="#75ABC4"/><path d="m44 32.27-.22 2.13a8.68 8.68 0 0 1-5.35 1.58C31.33 35.08 31 29.24 31 28c.33 2.8 3.82 6 7.65 6 3.06 0 4.84-1.02 5.35-1.73Z" fill="#339AB9"/><path d="M29 30.2c0-2.13.93-4.35 1.39-5.2-.64 1.73-.54 3.12-.54 4.04.86 8.12 7.12 9.54 10.15 9.23-.32.38-1.07 1.27-1.5 1.73-7.68-.46-9.5-7.15-9.5-9.8Z" fill="#188CB5"/><path d="M25 32.47c0-7.37 5.13-11.38 7.7-12.47-5.31 4.31-5.7 9.2-5.7 11.3 0 6.34 4.72 10.64 7 12l-3.04.7c-1.4-.7-5.96-5.36-5.96-11.53Z" fill="#4B8BAE"/><path d="M33.6 15A21.6 21.6 0 0 1 46 19.15C41.35 14.38 36.14 12 30.16 12 16.78 12 11.14 23.05 10 28.57c.55.95 1.86 3.16 2.66 4.43 2.21-13.74 13.73-18 20.93-18Z" fill="#11567D"/><path d="M18 34c1.05-14.42 12.44-17.32 18-16.97-12.51 2.32-15 12.49-15 17.25 0 3.82 2.09 8.13 3.04 9.72-1-.27-3.19-.93-4.06-1.4C18.1 40.16 18 34.93 18 34Z" fill="#0A6E90"/></svg>