<!-- by TradingView --><svg xmlns="http://www.w3.org/2000/svg" width="56" height="56" viewBox="0 0 56 56"><path fill="#F0F3FA" d="M0 0h56v56H0z"/><path d="M27.18 13.1c2.1-.46 5.3-1.42 6.61-2.1-.95 1.83-4.18 2.85-5.64 3.38-1.86.4-5.6 1.77-5.6 4.04 0 2.83 3.74 4.12 5.3 4.65 1.58.52 6.5 1.58 6.5 4.07 0 1.99-4.78 3.4-7.17 3.86C20.3 33.02 20 35.2 20 37c0 1.47.68 3.7 6.06 4.94 5.38 1.24 7.35 3.22 7.66 4.06-3.27-2.23-6.54-2.32-7.66-2.61-1.12-.3-10.56-1.74-10.56-6.39 0-4.64 5.89-6.29 8.41-6.67 2.52-.39 7.57-1.55 7.57-3.2 0-1.64-1.5-2.51-4.3-3.38-2.8-.87-7.85-2.03-7.85-5.52 0-3.48 5.24-4.54 7.85-5.12z"/><path d="M28.82 13.1c-2.1-.46-5.3-1.42-6.61-2.1.95 1.83 4.18 2.85 5.64 3.38 1.86.4 5.6 1.77 5.6 4.04 0 2.83-3.74 4.12-5.3 4.65-1.58.52-6.5 1.58-6.5 4.07 0 1.99 4.78 3.4 7.17 3.86C35.7 33.02 36 35.63 36 37c0 1.23-.68 3.7-6.06 4.94-5.38 1.24-7.35 3.22-7.66 4.06 3.27-2.23 6.54-2.32 7.66-2.61 1.12-.3 10.56-1.74 10.56-6.39 0-4.64-5.89-6.29-8.41-6.67-2.52-.39-7.57-1.55-7.57-3.2 0-1.64 1.5-2.51 4.3-3.38 2.8-.87 7.85-2.03 7.85-5.52 0-3.48-5.24-4.54-7.85-5.12z" fill="#E16319"/></svg>