<!-- by TradingView --><svg xmlns="http://www.w3.org/2000/svg" width="56" height="56" viewBox="0 0 56 56"><path fill="#DD1E27" d="M0 0h56v56H0z"/><path d="M10.02 22.01c1.5.08 2.94.15 3.69.73.73.57 1.04 1.35.88 2.2a4.78 4.78 0 0 1-1.86 2.76 6.01 6.01 0 0 1-3.9 1.35c-1.56.06-1.59.15-1.67.34l-.06.12-.47.84c-.3.55-.66 1.2-.76 1.3a2.7 2.7 0 0 0-.1.16c-.24.33-.68.97-1.06.7-.45-.33-.96-1-.57-2.1.33-.9.75-1.77 1.27-2.58.2-.29 1.63-2.62 1.63-2.62l.45-.78s.32-.45-.23-.4c0 0-1.34.08-1.67-.15-.37-.24-.42-.64-.3-1.05a1 1 0 0 1 .69-.51 21.6 21.6 0 0 1 4.02-.3h.02zm2.67 3.36l.05-.04h-.01c.4-.39.47-.8.16-1.28-.3-.5-1.38-.5-1.83-.43-.45.06-.86.71-.86.71l-1.68 2.75c-.3.48.02.42.02.42s-.2.15 1.24-.28a7.52 7.52 0 0 0 2.91-1.85zm18.13.61c-.09-.8.76-1.23.76-1.23 1-.57 1.32.04 1.44.27.11.24.15.6-.22 1.16a1.38 1.38 0 0 1-1.22.6c-.1 0-.68 0-.76-.8zm-7.28 1.1c-.38-.27-.86-.04-1.36.2-.05.01-.1.04-.14.06-.47.22-.58.13-.68.05-.02 0-.03-.02-.05-.03-.63-.3-1.02-.2-1.3-.06-.24.13-.5.58-.64.84-.03.07-.06.13-.09.16a.43.43 0 0 0-.04.11c-.04.1-.05.16-.35-.01-.29-.17-.61.06-.88.26-.1.08-.2.15-.28.19-.31.16-.33-.16-.33-.16l-.04-.65c-.07-.35-.23-.69-.48-.96-.17-.15-.53-.37-1.21-.35-.69.02-1.79.6-2.46 1.06-.9.6-1.38 1.65-1.38 1.65-.82 1.92.32 2.72.8 3.06.5.33 1.71.25 2.74-.3a3.78 3.78 0 0 0 1.68-1.95l.04-.09c.11-.25.23-.31.43-.27.2.04.67-.16.77-.22.1-.06.12-.02.13.06a.5.5 0 0 1-.06.24s-.2.45-.48 1.2c-.3.77.16 1.32.45 1.44.3.12.97.04 1.32-.82.35-.81.78-1.59 1.28-2.32a4.33 4.33 0 0 1 1.32-1.08c.15-.06.13.2.04.38a.54.54 0 0 0 .1.58c.13.14.68.02.92-.13.24-.16.6-.77.67-1.04a1.14 1.14 0 0 0-.43-1.1h-.01zm-7.5 2.65c-.1.2-.94 1.53-1.53 1.72-.6.2-1.09-.29-1.15-.55l-.01-.07c-.07-.24-.15-.54.45-1.35 0 0 .8-.95 1.16-1.22.35-.27 1.12-.66.98-.1-.02.05-.05.08-.08.12l-.12.18c-.07.14-.23.45-.05.76.16.3.19.3.26.3h.01c.08 0 .18.01.08.21zm28.9-.78c.27-.07.53-.18.77-.32l.01.01c.19-.14.66-.21.41.1-.23.3-.5.59-.79.83a1.58 1.58 0 0 1-.82.21l-.06.23c-.04.2-.3 1.33-1.18 1.93-.7.48-1.67.8-2.16.73-.5-.08-1.18-.27-1.46-.79-.17-.32-.23-.28-.32-.23l-.01.01c-.03.02-.08.1-.15.19-.15.22-.4.57-.72.74-.47.23-1.5.36-1.91-.1-.34-.38-.36-.55-.37-.83a5 5 0 0 1 0-.1c-.01-.13-.02-.15-.08-.19a.2.2 0 0 0-.26.06l-.1.13c-.15.2-.43.6-.68.77-.34.24-1.42.97-2.11.53-.51-.33-.58-.62-.62-.77l-.01-.05a.81.81 0 0 1-.02-.06c-.03-.12-.08-.3-.25-.22-.05.02-.12.08-.22.16-.34.26-.96.73-1.63.76h-.03c-.85.05-1.53.08-1.84-.6l-.15-.34c-.1-.21-.13-.29-.17-.29-.02 0-.04.03-.07.07v.01l-.06.08c-.18.28-.66 1-1.54 1.23a2.3 2.3 0 0 1-1.76-.16l-.03-.01c-.16-.08-.77-.75-.51-1.69a5.2 5.2 0 0 1 .69-1.7l.04-.07c.23-.33.53-.75.25-.79-.3-.03-.69-.11-.84-.45-.16-.33 0-.58.37-.52l1.04-.03c.1-.04.2-.13.24-.23a39.7 39.7 0 0 1 1.22-2.24c.18-.36.4-.81.71-.47.4.44.84.94.41 1.65-.32.55-.37.6-.37.6s-.13.26.1.26l.55.02a.24.24 0 0 1 .22.25v.12c0 .2.02.42-.13.47a5.9 5.9 0 0 1-.85.18.66.66 0 0 0-.43.22c-.1.13-.8 1.15-.96 1.49l-.09.17c-.2.42-.58 1.18-.44 1.4.15.25.39.37.62.3.24-.05.65-.37.83-.62l.04-.05c.16-.22.28-.4.63-.44h.02c.08-.02.14-.03.26-.25l.07-.16c.2-.4.64-1.28.83-1.57.3-.4.65-.77 1.02-1.1.26-.21.73-.23.97-.14.23.1.8.45.3 1.22-.2.3-.46.6-.7.88-.37.43-.7.82-.72 1.1-.04.45.1.88.31.88.16 0 .46-.21.72-.4a8.03 8.03 0 0 1 .5-.35c.26-.17.52-.36.65-.39h.03c.16-.04.3-.07.4-.37l.1-.36c.15-.68.48-2.06.98-2.88a44.17 44.17 0 0 1 1.76-2.56c.13-.17.5-.65.92-.63.45.01.9.27.79.74a8.9 8.9 0 0 1-1.1 1.92 44.5 44.5 0 0 0-1.58 2.67 4.76 4.76 0 0 0-.54 1.92c.02.69.1.96.54.75a5.92 5.92 0 0 0 1.77-1.79l1.51-2.96 1.4-2.75s.43-.69.74-.63c.32.06.7.18.77.36l.04.07c.09.17.22.4-.04.97l-2 4.16s-.97 1.82-.99 1.92v.03c-.05.16-.19.65.26.65.34 0 .68-.1 1.06-.47.24-.23.57-1.1.62-1.33.05-.22.34-1.2.91-1.78.57-.6 1.15-.9 1.71-1h.03c.5-.1 1.48-.26 2.02.29.44.45.47 1.13.45 1.36v.12l-.01.35c.1 0 .18-.02.27-.04zm-1.87 1.5c.13-.24.35-.55.55-.63l-.02-.01c.2-.08.12-.17.04-.24-.07-.06-.64-.5-.4-.75.08-.09.16-.15.23-.21.14-.11.25-.2.22-.34l-.01-.1c-.03-.2-.06-.4-.28-.33-.31.12-.6.27-.87.47 0 0-.9.8-1.1 1.46-.2.64-.18 1.45 0 1.6.18.16.55.12.85-.07.31-.24.58-.52.79-.85zm3.15-4.84a1.33 1.33 0 0 1 .93-.88c.44-.11 1.26 0 1.35.55.1.55-.12.9-.3 1.16l-.01.02-.08.12a2.2 2.2 0 0 1-.73.8c-.26.14-.54.26-.82.35-.3.1-.7.06-.46-.26.09-.1.2-.18.29-.24.16-.12.27-.2.07-.38-.32-.3-.4-.75-.24-1.24zm2.76 1.28c-.45.15-.85.4-1.18.72-1.02 1.26-.1 1.9.29 2.16l.08.06c.18.13.55.31.88.48.22.11.42.21.53.28.3.18.24.53.12.73-.11.2-.53.33-.8.33-.4-.03-.79-.1-1.16-.23-.36-.15-.7-.32-1.03-.51-.34-.26-.55-.08-.63.02-.07.1-.17.25-.1.62.08.37.27.75 1.6 1.1a3.22 3.22 0 0 0 2.83-.47c.5-.38.81-.95.9-1.57a1.44 1.44 0 0 0-.4-1.1 3.27 3.27 0 0 0-.68-.36c-.24-.11-.5-.23-.69-.34-.43-.25-.2-.7.04-.98.24-.28.75-.28.96-.24.22.04.3.18.06.36-.3.21-.34.43-.3.62.07.21.49.26.86.24.4-.02.55-.32.7-.63l.05-.1c.17-.34.1-.6-.2-1.06-.23-.36-.82-.35-1.25-.35h-.1c-.47 0-.94.07-1.38.22z" fill="#fff"/></svg>