<!-- by TradingView --><svg width="56" height="56" viewBox="0 0 56 56" xmlns="http://www.w3.org/2000/svg"><path fill="#F0F3FA" d="M0 0h56v56H0z"/><path fill="#3C5164" d="M4 32h29v.49H4zM7.37 23h-3.3a.08.08 0 1 0 0 .16h.18c.4 0 .73.23.75.35v4.68c0 .47-.44.57-.57.57h-.3a.12.12 0 0 0 0 .24h2.75a.12.12 0 0 0 0-.24h-.43c-.4-.02-.46-.39-.45-.57v-4.8c.58-.07 1.73.09 1.73 1.26 0 1.1-.76 1.44-1.2 1.48a.09.09 0 0 0-.08.08c0 .05.03.08.07.08 1.18.03 2.21-.51 2.27-1.81.05-1.07-.92-1.43-1.42-1.48Z"/><path fill-rule="evenodd" d="M13.17 29c1.92 0 3.3-1.34 3.3-3 0-2.06-1.35-3-3.3-3-2.07 0-3.3 1.34-3.3 3s1.27 3 3.3 3Zm.72-.48c1.2-.33 1.73-1.7 1.33-3.1-.5-1.74-1.56-2.3-2.77-1.97-1.28.36-1.72 1.7-1.33 3.1.4 1.4 1.51 2.31 2.77 1.96ZM17.35 23h2.77c.62.03 1.85.35 1.76 1.45v.01c0 .34-.01 1.07-1.1 1.72l1.76 2.1c.15.15.56.46 1.04.5.07 0 .12.05.12.1 0 .07-.05.12-.11.12h-1.05a1.7 1.7 0 0 1-1.25-.72l-1.33-1.74H19v1.92c.02.12.23.34.74.32.06 0 .12.05.12.11a.1.1 0 0 1-.11.11h-2.4a.11.11 0 0 1 0-.23h.3c.11-.01.35-.13.35-.5v-4.71a.56.56 0 0 0-.5-.33h-.15a.11.11 0 0 1 0-.23Zm1.65.44c.61-.08 1.86.07 1.85 1.34-.02 1.58-1.24 1.4-1.85 1.25v-2.6ZM33.65 31h1.22c.28.01.83.17.79.72v.01c0 .17 0 .53-.49.86l.78 1.05c.06.08.24.23.45.24.04 0 .06.03.06.06 0 .04-.02.06-.05.06h-.46a.74.74 0 0 1-.56-.36l-.58-.87h-.42v.96c.01.06.09.17.3.16.04 0 .07.02.07.06 0 .03-.02.05-.05.05h-1.06a.06.06 0 0 1 0-.11h.13c.05-.01.15-.07.15-.25v-2.36a.25.25 0 0 0-.22-.17h-.06a.06.06 0 0 1 0-.11Zm.74.22c.27-.04.81.04.8.67 0 .8-.53.7-.8.63v-1.3Z" fill="#3C5164"/><path d="M24.54 23.15a2.76 2.76 0 0 1-.74-.15c-.18.18-.29.76-.33 1.13 0 .07.05.13.12.13.06 0 .11-.05.13-.11.08-.4.48-.52.69-.53H26v4.66c0 .37-.34.47-.47.48h-.2a.12.12 0 0 0 0 .24h2.57a.12.12 0 1 0 0-.24h-.36c-.34-.01-.53-.23-.54-.34v-4.8h1.38c.58.05.76.38.78.62 0 .06.05.12.12.12a.1.1 0 0 0 .1-.1V23c-.18.08-.55.14-.71.15h-4.13ZM29.47 28.68h.17c.12-.01.37-.12.41-.45l.87-5c.05-.16.19-.38.4 0l2.3 4.19 2.26-4.19c.11-.17.35-.41.42 0l.87 5c.02.15.2.45.8.45.58 0 .81-.59.86-.88L41 23.23c.09-.16.3-.4.48 0l2.28 4.9c.09.23.41.68.97.62h.43c.11-.02.35-.17.36-.62v-4.78c0-.24.1-.59.53-.12l4.55 4.16v-3.68c-.01-.12-.13-.36-.49-.36h-.28a.17.17 0 1 1 0-.35h1.97a.17.17 0 1 1 0 .35h-.13c-.15-.01-.42.05-.4.36v5.04c-.01.16-.13.4-.55.11l-4.51-4.1v3.37c.02.21.14.62.47.62h.31a.12.12 0 1 1 0 .25h-4.3a.14.14 0 0 1-.13-.14c0-.06.04-.11.1-.15.08-.05.13-.14.05-.3l-.63-1.43h-2.15l-.58 1.34c-.05.1-.06.3.29.36h.14a.16.16 0 1 1 0 .32h-3.76a.14.14 0 0 1-.14-.14c0-.06.04-.12.09-.16.05-.06.1-.15.08-.29l-.5-3.3-2.01 3.57c-.06.12-.22.3-.41 0l-1.94-3.47-.47 3.02c-.02.15 0 .45.34.45h.22a.16.16 0 1 1 0 .32h-1.81a.16.16 0 1 1 0-.32Zm10.67-2.17h1.73L41 24.53l-.86 1.98ZM38.92 31H37.8v.15c.24 0 .32.11.33.17v2.31c0 .18-.22.22-.33.21V34h1.13v-.16h-.16c-.13 0-.15-.14-.14-.21v-2.31c0-.12.06-.17.09-.17h.21V31Z" fill="#3C5164"/><path fill-rule="evenodd" d="M40.72 31h1.75c.43.01 1.28.32 1.29 1.45 0 1.4-1.2 1.55-1.51 1.55h-1.53v-.14c.14.01.4-.03.38-.26v-2.26c0-.07-.1-.2-.38-.2V31Zm.89.24c.55-.06 1.65.11 1.61 1.29-.05 1.47-1.2 1.37-1.61 1.01v-2.3Z" fill="#3C5164"/><path d="M48.05 31.14v.73h-.1c0-.37-.37-.64-.85-.65-.5 0-1.2.22-1.12 1.28.1 1.06.92 1.3 1.24 1.3.26 0 .35-.13.36-.18v-.83c0-.17-.24-.18-.36-.16v-.13h1.15v.13c-.17-.03-.24.1-.26.16v1c-.12.07-.46.2-.89.2-.53.03-1.78-.2-1.78-1.49 0-1.28 1.17-1.52 1.66-1.5.39.01.8.1.95.14ZM51.9 31h-1.87v.18c.26 0 .35.14.36.2v2.34c.02.13-.23.15-.36.15V34h1.87l.1-.62h-.1c0 .2-.14.3-.21.34h-.56a.26.26 0 0 1-.24-.24v-.93h.64c.18 0 .18.21.16.32h.08l.08-.74h-.08l-.15.18h-.73v-1h.64c.23 0 .26.2.24.31h.13V31Z" fill="#3C5164"/></svg>