<!-- by TradingView --><svg width="56" height="56" xmlns="http://www.w3.org/2000/svg"><path fill="#FB3147" d="M0 0h56v56H0z"/><path d="M38.16 12.934a2 2 0 10-3.43-2.058l-2.897 4.826a12.87 12.87 0 00-3.828-.578c-7.111 0-12.876 5.765-12.876 12.876 0 1.366.212 2.682.606 3.917l4.375-7.292A8.586 8.586 0 0136.59 28a8.584 8.584 0 01-13.887 6.752l2.785-4.745a3.219 3.219 0 10-.528-3.052l-5.422 9.24-4.123 6.871a2 2 0 103.43 2.058l3.371-5.62a12.823 12.823 0 005.789 1.372c7.111 0 12.876-5.765 12.876-12.876a12.86 12.86 0 00-5.45-10.52l2.728-4.546z" fill="#fff"/></svg>