<!-- by TradingView --><svg xmlns="http://www.w3.org/2000/svg" width="56" height="56"><path fill="#F0F3FA" d="M0 0h56v56H0z"/><path fill-rule="evenodd" d="M17 38.37V27h7v4.97l3.16-6.24A5.8 5.8 0 0123.5 27a5.7 5.7 0 01-4.3-1.9c-5.83 4.65-9.02 9.51-7.44 11.94.8 1.22 2.69 1.63 5.24 1.33zm2.16.63c-4.82 1.43-8.52 1.38-9.74-.49-1.78-2.72 2.25-8.45 9.37-13.92A4.68 4.68 0 0118 22c0-2.76 2.46-5 5.5-5 1.72 0 3.25.71 4.26 1.83 8.88-4.73 16.9-6.27 18.82-3.34 1.74 2.66-2.1 8.22-8.94 13.59L42.6 39h-7.57l-.48-1H24v1h-4.84zm18.11-10.65c5.16-4.38 7.89-8.8 6.4-11.08-1.38-2.12-6.06-1.8-11.74.42l5.34 10.66zm-6.23-10.3c-.93.4-1.89.84-2.86 1.32A4.65 4.65 0 0129 22.1l2.04-4.04zM24 33v-1h8.4l.41 1H24zm0 2v-1h9.16l.42 1H24zm0 2v-1h9.84l.42 1H24z" fill="#EC2429"/></svg>