<!-- by TradingView --><svg width="56" height="56" viewBox="0 0 56 56" xmlns="http://www.w3.org/2000/svg"><path fill="#F0F3FA" d="M0 0h56v56H0z"/><path d="M26.61 11.02a17.67 17.67 0 0 0-11.5 5.58l.75-.37c3.1-1.54 5.93-2.5 8.66-2.9 2.77-.43 5.49-.3 8.49.4 2.35.54 4.67 1.38 7.53 2.7.22.11.4.18.4.17a17.84 17.84 0 0 0-10.39-5.45c-.9-.13-1.33-.16-2.57-.15l-1.37.02Zm-8.32 7.03c-1.76.43-3.22.93-4.4 1.52-.4.2-.5.26-.69.43-.32.31-.59.75-.85 1.4l-.54 1.33.39-.1c3.84-1.2 8.31-1.88 13.6-2.06 2.3-.08 3.2-.07 5.42.05 4.97.26 8.94.9 12.64 2.03.34.1.35.1.3-.02l-.3-.7a9.68 9.68 0 0 0-.78-1.6c-.16-.24-.2-.3-.43-.44-.35-.23-1.02-.57-1.5-.77-2.56-1.03-6.64-1.84-10.37-2.08-.65-.04-2.78-.1-2.99-.1-3.2.2-6.36.34-9.5 1.1ZM24.45 26c-4.98.11-10.27.28-12.94.64l-.5.07v.36c-.02.45.03 2.6.05 2.63.03.03 1.85.32 2.85.44 4.99.64 10.06.88 15.09.86a104.9 104.9 0 0 0 15.96-1.31l.03-1.5.01-1.48-.45-.05c-3.72-.43-8.01-.55-12.5-.66-1.42-.03-6.05-.04-7.6 0Zm-12.48 7.7.33.76c.59 1.34.87 1.77 1.36 2.08.35.22 1.04.57 1.5.76.96.4 2.5.88 3.86 1.19A40.9 40.9 0 0 0 39 37.92c1.18-.35 1.9-.63 2.62-1 .46-.23 1-.57 1.1-.69.13-.15.45-.67.58-.93.23-.46.75-1.6.74-1.6a45.28 45.28 0 0 1-12.01 2.22c-1.7.11-1.93.12-3.8.12-2.26 0-3.48-.05-5.23-.19a44.3 44.3 0 0 1-10.64-2.05c-.23-.08-.4-.13-.39-.1Zm3.4 6A17.79 17.79 0 0 0 28.04 45a17.43 17.43 0 0 0 12.16-4.92l.4-.39-.67.31a30.89 30.89 0 0 1-9.79 2.92c-.87.1-.85.1-1.69.12-2.62.1-5.36-.32-7.99-1.2a40.51 40.51 0 0 1-5.07-2.14Z" fill="#233E8E"/><path d="M27.3 15.1a15.17 15.17 0 0 0-4.9 1.13c-.47.19-1.12.5-1.08.51.01.01.77-.05 1.69-.14 2.68-.25 3.24-.28 5.01-.28 1.49 0 2.91.09 5.4.32l1.1.1a15.01 15.01 0 0 0-5.18-1.57c-.4-.05-1.73-.09-2.05-.06Zm-1.17 6.09c-2.88.08-5.41.3-8.13.72-1.1.17-1.9.36-2.03.47-.07.06-.42.77-.56 1.13-.2.53-.69 2.1-.66 2.13a252.33 252.33 0 0 1 8.04-.39c3.75-.12 9-.09 12.59.06a178.46 178.46 0 0 1 5.73.33c.06-.06-.7-2.22-1.08-3.11l-.13-.29-.85-.14a66.22 66.22 0 0 0-12.92-.91ZM14.74 30.9c0 .11.47 1.47.8 2.3.33.87.4 1 .48 1.02a59.13 59.13 0 0 0 8.83 1.12 61.5 61.5 0 0 0 15-1.09c.05-.01.42-.87.7-1.65.2-.52.52-1.48.55-1.6l.02-.1-.57.05a130.3 130.3 0 0 1-25.81-.05Zm6.5 8.79c0 .04 1.42.66 1.92.85 2.08.77 4.3 1.01 6.55.72 1.54-.2 3.26-.72 4.65-1.42l.3-.15-.37.02c-.4.02-1.9.13-2.7.21a36.1 36.1 0 0 1-6.98.03 499.11 499.11 0 0 0-3.37-.26Z" fill="#61A143"/></svg>