<!-- by TradingView --><svg width="56" height="56" viewBox="0 0 56 56" xmlns="http://www.w3.org/2000/svg"><path fill="#F0F3FA" d="M0 0h56v56H0z"/><path fill-rule="evenodd" d="M8 18v11h2v-4.1c1.65.13 5.14-.45 5-3.79-.01-1.03-.66-3.11-3.19-3.11H8Zm3.5 2H10v3h1.5a1.5 1.5 0 0 0 0-3ZM21 29c2.76 0 5-2.48 5-5.53 0-3.05-1.73-5.47-5-5.47-2.76 0-5 2.42-5 5.47S17.58 29 21 29Zm0-2c1.66 0 3-1.58 3-3.52S22.96 20 21 20c-1.66 0-3 1.54-3 3.48S18.95 27 21 27ZM43 29c2.76 0 5-2.48 5-5.53 0-3.05-1.73-5.47-5-5.47-2.76 0-5 2.42-5 5.47S39.58 29 43 29Zm0-2c1.66 0 3-1.58 3-3.52S44.96 20 43 20c-1.66 0-3 1.54-3 3.48S40.95 27 43 27Z" fill="#98022E"/><path d="M28 29V18h2.2l3.8 7.28V18h2v11h-1.93L30 21.54V29h-2Z" fill="#98022E"/><path d="m14.93 30.35.62.94-.13.3a3.2 3.2 0 0 0-2.8-1.24A3.7 3.7 0 0 0 9 34.05a3.6 3.6 0 0 0 3.62 3.56c1.52 0 2.44-.7 2.71-1.06l.22.12-.62.94a7 7 0 0 1-2.31.39C11.38 37.98 8 37.92 8 34.06 8 30.19 11.12 30 12.41 30c1.04 0 2.1.23 2.52.35ZM22.43 37.6v.4h2.1v-.4c-.4 0-.52-.45-.53-.68V30.5c.56-.06 2.24 0 2.24 1.65 0 1.31-1 1.67-1.5 1.69v.3c.35.02 2.54-.04 2.5-2.1A1.93 1.93 0 0 0 25.33 30h-2.89v.37c.42.01.55.25.57.36v6.19c-.03.57-.39.7-.57.69ZM29.59 30H27.4v.36c.37 0 .55.23.6.35v6.4c-.04.45-.41.54-.6.53V38h2.19v-.36a.55.55 0 0 1-.59-.53v-6.4c0-.4.4-.4.59-.35V30ZM30.26 31.7v-2.1l.56.43h5.23l.64-.43v2.1c-.17-.88-.76-1.14-1.04-1.16H34v6.79c.02.26.4.32.58.32V38H32.4v-.35c.34-.01.55-.22.59-.32v-6.79h-1.57c-.78.02-1.1.78-1.17 1.16Z" fill="#5F6062"/><path fill-rule="evenodd" d="M35.36 38h1.46v-.32h-.35l1.22-3.05h2l1.19 3.05h-.33V38h1.95v-.32c-.14.02-.47-.1-.7-.63L39.05 30l-2.92 7.23a.86.86 0 0 1-.77.45V38Zm4.11-3.94-.77-1.96-.78 1.96h1.55Z" fill="#5F6062"/><path d="M44.67 30h-2.35v.4c.42 0 .65.28.68.42v6.4c.07.39-.56.44-.85.42V38H48v-2h-.4c.1 1.02-.56 1.38-.9 1.48h-1.74c-.64-.1-.93-.63-.96-.89v-5.77c-.02-.44.46-.46.67-.42V30ZM15.3 38h1.46v-.32h-.35l.8-1.98c-.26.16-.5.33-.74.52l-.4 1a.86.86 0 0 1-.78.46V38ZM17 34.88l-.35.87c.23-.17.47-.32.71-.47l.43-1.07c-.28.22-.54.45-.79.67Zm2-1.83-.37-.95-.65 1.64c-.27.2-.52.4-.76.6L19 30l.99 2.54c-.34.16-.66.33-.97.51Zm.1.25.36.92c.35-.14.7-.27 1.02-.37l-.41-1.07c-.34.16-.66.34-.97.52Zm1.48.8c-.33.1-.68.23-1.02.37l1.25 3.21h-.33V38h1.94v-.32c-.13.02-.46-.1-.69-.63l-1.15-2.96Z" fill="#5F6062"/><path d="m22.94 33.38-.79-1.44c-3.5.75-6.11 3.49-6.98 4.76l.27.18c2.39-2.35 6-3.31 7.5-3.5Z" fill="#98022E"/></svg>