<!-- by TradingView --><svg xmlns="http://www.w3.org/2000/svg" width="56" height="56" viewBox="0 0 56 56"><path fill="#F0F3FA" d="M0 0h56v56H0z"/><path d="M17.29 18.27L7 31.97 26.9 27l2.85-6.36-12.46-2.37z" fill="#0E426A"/><path d="M45 23.58l-13.08-2.5-2.62 6.74L41 41l4-17.42z" fill="#257DC2"/><path d="M33.05 17.35c.37 0 .67-.3.67-.67 0-.38-.3-.68-.66-.68-.37 0-.67.3-.67.68 0 .37.3.67.66.67zm-.78 1.8c.37 0 .67-.31.67-.68 0-.38-.3-.68-.67-.68-.36 0-.66.3-.66.68 0 .37.3.67.66.67zm-.41 1.25c0 .3-.24.53-.52.53a.53.53 0 0 1-.53-.53.53.53 0 0 1 1.04 0zm-1.38 2.25c.3 0 .53-.24.53-.53 0-.3-.24-.54-.53-.54a.53.53 0 0 0-.52.54c0 .29.24.53.52.53zm-.38 1.58c0 .3-.23.54-.52.54a.53.53 0 0 1-.52-.54c0-.29.23-.53.52-.53.29 0 .52.24.52.53zm-1.56 2.6a.5.5 0 0 0 .5-.51.5.5 0 0 0-.5-.51.5.5 0 0 0-.5.5c0 .29.22.52.5.52zm-.5 1.71a.5.5 0 0 1-.5.5.5.5 0 0 1-.5-.5c0-.28.23-.5.5-.5.28 0 .5.22.5.5zm-1.35 2.5a.5.5 0 0 0 .5-.51.5.5 0 0 0-.5-.5.5.5 0 0 0-.5.5c0 .28.23.5.5.5zm-.5 1.89a.5.5 0 0 1-.5.5.5.5 0 0 1-.5-.5c0-.29.23-.51.5-.51.28 0 .5.22.5.5zm-1.49 2.55a.5.5 0 0 0 .5-.5.5.5 0 0 0-.5-.51.5.5 0 0 0-.5.5c0 .28.22.51.5.51z" fill="url(#asx0i1cpv)"/><defs><linearGradient id="asx0i1cpv" x1="34" y1="16.39" x2="25.58" y2="36.42" gradientUnits="userSpaceOnUse"><stop stop-color="#46BABD"/><stop offset="1" stop-color="#46BABD" stop-opacity="0"/></linearGradient></defs></svg>