<!-- by TradingView --><svg width="56" height="56" viewBox="0 0 56 56" xmlns="http://www.w3.org/2000/svg"><path fill="#181B1E" d="M0 0h56v56H0z"/><path fill-rule="evenodd" d="M21 10h-3v17h3v-.6a5.5 5.5 0 1 0 0-9.8V10Zm0 11.5a2.5 2.5 0 1 0 5 0 2.5 2.5 0 0 0-5 0ZM21 46h-3V29h3v.6a5.5 5.5 0 1 1 0 9.8V46Zm0-11.5a2.5 2.5 0 1 1 5 0 2.5 2.5 0 0 1-5 0Z" fill="#fff"/><path d="M30 10h3v8.71L35.47 16H39l-4.8 5.27L40 27h-3.92L33 23.96V27h-3V10ZM28 29h2.77L34 36.1l3.23-7.1H40l-4.92 11h-2.22L28 29Z" fill="#fff"/><circle cx="41" cy="38" r="2" fill="#CE2C83"/></svg>