<!-- by TradingView --><svg width="56" height="56" viewBox="0 0 56 56" xmlns="http://www.w3.org/2000/svg"><path fill="#F0F3FA" d="M0 0h56v56H0z"/><path d="M11 27c0 2.6-2.45 3.12-4 2.98 1.42-.22 2.05-1.4 2.05-2.98 0-1.61-.63-2.76-2.05-2.98 1.55-.14 4 .44 4 2.98ZM4 24h2v9H4zM52 27c0 2.6-2.45 3.12-4 2.98 1.42-.22 2.05-1.4 2.05-2.98 0-1.61-.63-2.76-2.05-2.98 1.55-.14 4 .44 4 2.98ZM45 24h2v9h-2zM14 32.84 17.58 24l.42.16L14.42 33l-.42-.16ZM37 32.84 40.58 24l.42.16L37.42 33l-.42-.16ZM24.32 24H22l3.87 9L27 30.33 24.32 24ZM29.32 24H27l3.87 9L32 30.33 29.32 24ZM34 24h-2l.97 3L34 24Z" fill="#615472"/></svg>