<!-- by TradingView --><svg xmlns="http://www.w3.org/2000/svg" width="56" height="56" viewBox="0 0 56 56"><path fill="#F0F3FA" d="M0 0h56v56H0z"/><path d="M10 23.27h1.59V25H10v-1.73zM22.7 23h1.62v8H22.7v-8zm19.66 0H44v5.29L45.57 26h1.92l-1.92 2.19L47.7 31h-1.98l-1.3-1.97-.43.48V31h-1.64v-8zm-24.19 3.58c.53-.4 1.19-.59 1.82-.58.64.03 1.32.26 1.75.8.48.58.62 1.45.47 2.2h-3.44c.03.25.14.54.35.68.3.23.69.3 1.05.32.54.01 1.07-.05 1.59-.2.06.32.14.56.2.88-.56.2-1.15.3-1.74.32a3.32 3.32 0 0 1-2.19-.63c-.23-.2-.45-.44-.57-.73a2.56 2.56 0 0 1 .72-3.05zm1 .63c-.22.18-.35.5-.4.79h1.99c-.01-.32-.13-.7-.4-.87-.37-.21-.85-.19-1.18.08zM35.27 26c.78-.04 1.62.18 2.22.74.85.77.95 2.26.27 3.18-.44.6-1.14.93-1.83 1.03-.82.1-1.7-.03-2.39-.56a2.23 2.23 0 0 1-.85-1.52c-.08-.7.1-1.47.59-1.96.5-.6 1.27-.85 1.99-.9zm-.1 1.03c-.45.1-.74.57-.8 1.04-.07.5-.03 1.18.29 1.52.37.47 1.13.55 1.51.08.27-.3.35-.8.34-1.2 0-.42-.11-.92-.4-1.21-.25-.25-.62-.3-.94-.23zm5.53-.7c.35-.26.78-.34 1.31-.34v1.42c-.45-.07-1.07-.06-1.43.28-.23.2-.3.52-.3.82V31h-1.6v-5H40l.1 1.04c.18-.26.34-.53.6-.7zm8.91-.27a3.84 3.84 0 0 1 2.17.24c-.08.33-.18.65-.27.97-.44-.16-.9-.33-1.38-.25-.2.03-.45.2-.41.45 0 .22.22.28.38.36.56.22 1.2.32 1.62.8.28.3.33.76.26 1.15-.1.34-.31.64-.6.8-.63.4-1.39.44-2.1.38a4.16 4.16 0 0 1-1.25-.31c.1-.34.2-.67.28-1.02.54.27 1.16.4 1.75.34.15-.02.34-.1.39-.28.04-.15.01-.33-.11-.42-.28-.2-.61-.25-.92-.37-.44-.15-.88-.4-1.13-.82-.2-.34-.15-.76.02-1.1.28-.48.8-.81 1.3-.92zm-43.36.2c.65-.3 1.43-.32 2.07.02.5.26.9.74 1.07 1.3.16.46.16.97.08 1.44a2.33 2.33 0 0 1-.98 1.55c-.65.43-1.49.53-2.2.25-.23-.08-.4-.25-.6-.38V33H4v-7h1.42c.03.22.05.6.09.8.23-.18.45-.41.73-.53zm.25.76c-.45.1-.83.53-.8 1.03 0 .38-.02 1.18.13 1.43.38.65 1.37.67 1.8.07.23-.34.28-1.05.23-1.46a1.28 1.28 0 0 0-.45-.88c-.26-.2-.6-.25-.91-.19zm9.4-1.03h1.71l-1.71 2.46L17.6 31H15.8l-.95-1.67-.98 1.67h-1.76l1.79-2.53L12.16 26h1.78l1.01 1.68.95-1.68zM10 26h1.6v5H10v-5zm14.9 0h1.64l.74 3.64 1-3.64h1.28l.93 3.64.82-3.64h1.58l-1.63 5h-1.51l-.9-3.27-.88 3.27h-1.53l-1.55-5z"/><path d="M22 23v2c-2.96-.26-9.44-.81-9.72-.91C12.38 24.04 22 23 22 23z" fill="#ED1C24"/></svg>