<!-- by TradingView --><svg xmlns="http://www.w3.org/2000/svg" width="56" height="56" viewBox="0 0 56 56"><path fill="#F0F3FA" d="M0 0h56v56H0z"/><path d="M36 19h-5l5-3v3z" fill="#0576C2"/><path fill-rule="evenodd" d="M8 36l3.42-16h6.99a3.61 3.61 0 0 1 3.52 4.3l-.34 1.8a4.85 4.85 0 0 1-4.94 3.9h-3.31l-1.18 6H8zm6-9l.86-4h1.56c.84 0 1.46.83 1.26 1.7l-.12.54a2.19 2.19 0 0 1-2.1 1.76H14z" fill="#FEB12C"/><path d="M25.91 27.5L23 20h4.78L29 23.57 31.14 20H36l-5.63 7.63L33.22 36h-4.85l-1.11-4.14L24.2 36H19l6.91-8.5z" fill="#0576C2"/><path d="M48 21.46l-2.4 2.8c-2.05-1.59-5.05-1.27-5.05.15 0 1.13 1.68 1.69 2.51 1.82 2.96.68 3.46 2.62 3.42 3.33 0 4.51-4.47 6.44-7.97 6.44-2.8 0-4.74-.93-5.36-1.4l2.09-2.97a7.6 7.6 0 0 0 3.58 1.2c.95 0 2.9-.28 2.9-1.53 0-1-1.1-1.44-1.65-1.53-1.58-.2-4.66-1.38-4.33-4.6.43-4.03 5.05-5.17 7.64-5.17A8.7 8.7 0 0 1 48 21.46z" fill="#42C4DA"/></svg>