<!-- by TradingView --><svg width="56" height="56" fill="none" xmlns="http://www.w3.org/2000/svg"><path fill="#F0701F" d="M0 0h56v56H0z"/><path d="M27.948 22.057a1.1 1.1 0 01.408 1.397l-.734 1.376a.137.137 0 00.078.162c.02.008.043.01.064.006l5.957-1.856a.44.44 0 00.279-.41c0-.269-.208-.388-.43-.458l-10.377-3.272a.13.13 0 00-.048 0 .144.144 0 00-.102.044.15.15 0 00-.024.176.14.14 0 00.05.051l4.88 2.784z" fill="#fff"/><path fill-rule="evenodd" clip-rule="evenodd" d="M13.409 26.475a2.486 2.486 0 01-.54.823c-1.086 1.101-2.896 1.158-4.312 1.158-.559 0-1.557-.021-1.557-.021V32H5.155A.155.155 0 015 31.845V23h3.861c1.782 0 3.272.125 4.13.982a2.123 2.123 0 01.596 1.525c.006.331-.055.66-.178.968zm-6.412-2.762v4.03s.494.024 1.053.024c1.44 0 3.397-.222 3.397-2.122 0-1.812-2.111-1.967-3.256-1.967a11.37 11.37 0 00-1.194.035zm44.89 2.147c.113.043.113.103.113.19l-.003.912a5.467 5.467 0 00-1.856-.359c-1.15 0-2.141.473-2.141 1.615V32h-1.848a.152.152 0 01-.152-.155v-6.088h1.85a.158.158 0 01.155.154v.152a8.044 8.044 0 012.424-.396c.493-.02.986.045 1.457.193zm-35.072-.31c-1.613 0-2.626.43-2.889.56a.199.199 0 00-.081.073.21.21 0 00-.032.106v.914a4.585 4.585 0 012.4-.69 1.908 1.908 0 011.39.525c.241.252.384.556.384 1.19 0 0-.947-.073-1.669-.073-1.313 0-3.818.182-3.818 2.019-.003.874.638 1.826 2.681 1.826.948-.012 1.912-.125 2.803-.458v.303c0 .042.016.08.044.11a.147.147 0 00.106.045H20v-4.119c0-1.516-.935-2.33-3.185-2.33zM18 30.775c-.547.267-1.168.347-1.774.358-.88 0-1.617-.312-1.617-1.159 0-.928.787-1.174 2.626-1.174.37 0 .765.016.765.016v1.959zm8.99-5.188a.23.23 0 01.117-.036H29l-5.088 9.242c-.061.112-.136.218-.282.208h-1.817l1.686-3.014L20 25.56h1.726a.216.216 0 01.202.116c.076.123 2.496 4.613 2.496 4.613l2.484-4.613a.227.227 0 01.082-.09zm8.553 4.664a5.135 5.135 0 01-2.504.692c-1.436 0-2.676-.863-2.676-2.282s1.238-2.442 2.866-2.442c.78-.01 1.546.219 2.192.657l.415-.736a.134.134 0 00-.065-.179l-.06-.027c-.407-.185-1.348-.613-3.076-.613-2.93 0-4.26 1.628-4.26 3.356C28.375 30.405 29.73 32 32.7 32c1.097 0 2.171-.31 3.1-.893a.14.14 0 00.074-.082.138.138 0 00-.01-.11l-.32-.665zm4.822-4.93C37.36 25.32 36 26.948 36 28.676 36 30.405 37.391 32 40.432 32 43.472 32 45 30.535 45 28.657c0-1.98-1.678-3.337-4.635-3.337zM43 28.66a2.5 2.5 0 11-5 0 2.5 2.5 0 015 0z" fill="#fff"/></svg>