<!-- by TradingView --><svg width="56" height="56" viewBox="0 0 56 56" xmlns="http://www.w3.org/2000/svg"><path d="M0 28a28 28 0 1 1 56 0 28 28 0 0 1-56 0Z" fill="#F0F3FA"/><path d="M8.27 30h1.46c.14 0 .27-.13.27-.27V26h1.66c1.8.08 3.34-1.2 3.34-3s-1.5-3-3.35-3H8.27a.27.27 0 0 0-.27.27v9.46c0 .15.13.27.27.27ZM10 21.5h1.53c.8 0 1.48.71 1.48 1.5 0 .81-.67 1.5-1.48 1.5H10v-3ZM19 25.01v4.72c0 .15.14.27.29.27h1.42c.15 0 .29-.13.29-.27V25l3.45-4.59a.26.26 0 0 0 .05-.13c0-.16-.13-.28-.28-.28h-1.48c-.1 0-.19.05-.24.13L20 23.5l-2.5-3.37a.3.3 0 0 0-.24-.13h-1.47c-.15 0-.3.12-.29.28 0 .05.02.1.05.13l3.45 4.6ZM38.71 20h-1.42c-.16 0-.29.12-.29.27v9.46c0 .15.13.27.29.27h1.42c.16 0 .29-.12.29-.27v-9.46c0-.15-.13-.27-.29-.27ZM44.43 28.5c-.99 0-2.22-.92-2.3-.96a.39.39 0 0 0-.28-.06.36.36 0 0 0-.23.16l-.55.86a.38.38 0 0 0-.07.2c0 .08.06.14.15.22.3.26 1.43 1.08 3.35 1.08 2.14 0 3.5-1.32 3.5-2.75 0-1.8-1.7-2.6-3.18-3.14-1.24-.46-1.82-.88-1.82-1.53 0-.45.5-1.08 1.36-1.08.84 0 2 .78 2.12.85a.3.3 0 0 0 .18.04.5.5 0 0 0 .35-.2l.58-.8a.32.32 0 0 0 .05-.18c0-.1-.05-.21-.15-.28a5.71 5.71 0 0 0-3.04-.93C42.03 20 41 21.4 41 22.64c0 1.64 1.45 2.5 2.88 3.03 1.28.47 2.12.95 2.12 1.66 0 .6-.77 1.17-1.57 1.17Z" fill="#0F426B"/><path d="M17.87 32h-.74a.14.14 0 0 0-.13.13V35l-2.5-3h-.38a.12.12 0 0 0-.12.13v4.74c0 .07.06.13.13.13h.74c.07 0 .13-.06.13-.13V34l2.5 3h.38c.03 0 .06-.01.08-.04a.13.13 0 0 0 .04-.09v-4.74a.14.14 0 0 0-.13-.13ZM22.55 35.6a.12.12 0 0 0-.08-.03.12.12 0 0 0-.08.03 1.46 1.46 0 0 1-2.46-1.11c0-.87.62-1.49 1.46-1.49.37 0 .73.15 1 .41a.1.1 0 0 0 .09.04.1.1 0 0 0 .08-.04l.4-.56a.13.13 0 0 0 0-.2 2.2 2.2 0 0 0-1.57-.65A2.42 2.42 0 0 0 19 34.5c0 1.28 1.01 2.5 2.36 2.5.64 0 1.17-.24 1.6-.67a.15.15 0 0 0 0-.2l-.4-.53ZM32.87 36H31v-3.86c0-.08-.07-.14-.14-.14h-.72a.15.15 0 0 0-.14.14v4.72c0 .07.07.14.14.14h2.72c.07 0 .14-.07.14-.14v-.73a.14.14 0 0 0-.13-.13Z" fill="#E00D7B"/><path d="m29 23.86 1.26-1.2-1.87-2.53a.32.32 0 0 0-.25-.13h-1.82c-.16-.02-.33.1-.32.27 0 .05.02.1.05.14l2.75 3.79c.06-.12.1-.24.2-.34ZM32.05 26.06l-1.2 1.16 1.87 2.65c.06.08.16.13.27.13h1.7c.15.02.32-.1.31-.27 0-.05-.02-.1-.05-.14l-2.68-3.9c-.07.13-.12.26-.22.37Z" fill="#0F426B"/><path d="m32 23-.73 1.25.66 1.28L35 19l-5.5 5h1.4l1.1-1Z" fill="#E00D7B"/><path d="M30.71 24.5h-1.5L26 31l5.5-5-.79-1.5Z" fill="#0F426B"/><path d="M42.88 34.5h-1.26c-.06 0-.12.06-.12.13v.25c0 .06.06.12.12.12H42v.83c-.25.1-.36.17-.63.17-.84-.01-1.38-.7-1.37-1.52.01-.8.53-1.47 1.36-1.48.37 0 .76.14 1.03.4a.1.1 0 0 0 .08.05.1.1 0 0 0 .09-.04l.4-.57a.15.15 0 0 0 .04-.1.15.15 0 0 0-.04-.1 2.46 2.46 0 0 0-1.61-.64C40 32 39 33.2 39 34.5s1 2.5 2.35 2.5c.56 0 1.1-.16 1.6-.45a.13.13 0 0 0 .04-.05l.01-.06v-1.8c0-.08-.06-.14-.12-.14ZM47.37 32h-.7a.14.14 0 0 0-.1.07L45.5 33.7l-1.08-1.64a.14.14 0 0 0-.11-.07h-.68c-.08 0-.13.07-.13.14 0 .02 0 .05.02.07L45 34.5v2.35c0 .04.01.07.04.1.02.03.05.04.09.04h.74c.04 0 .07-.02.09-.04a.15.15 0 0 0 .04-.1V34.5l1.48-2.3a.14.14 0 0 0 .02-.06c0-.07-.05-.14-.13-.14Z" fill="#E00D7B"/><path fill-rule="evenodd" d="M10.5 37a2.5 2.5 0 1 0 0-5 2.5 2.5 0 0 0 0 5Zm0-1a1.5 1.5 0 1 0 0-3 1.5 1.5 0 0 0 0 3ZM26.5 37a2.5 2.5 0 1 0 0-5 2.5 2.5 0 0 0 0 5Zm0-1a1.5 1.5 0 1 0 0-3 1.5 1.5 0 0 0 0 3ZM35.5 37a2.5 2.5 0 1 0 0-5 2.5 2.5 0 0 0 0 5Zm0-1a1.5 1.5 0 1 0 0-3 1.5 1.5 0 0 0 0 3Z" fill="#E00D7B"/></svg>