<!-- by TradingView --><svg width="56" height="56" xmlns="http://www.w3.org/2000/svg"><path fill="#AB131B" d="M0 0h56v56H0z"/><path d="M50.238 24.699c-3.39-1.939-11.203-3.91-14.508-4.171l-2.49-.198C30.585 20.114 29.12 20 28 20c-1.121 0-7.727.531-7.727.531-3.307.262-11.12 2.233-14.51 4.171C4.172 25.608 4 26.254 4 28.396v5.46c0 .444.054 1.09.52 1.58C5.058 36 5.754 36 6.56 36h42.88c.806 0 1.502 0 2.04-.564.466-.49.52-1.136.52-1.58v-5.464c0-2.141-.173-2.784-1.762-3.693z" fill="#077954"/><path d="M50.995 33.513c0 .323-.036.79-.358 1.111-.375.377-.902.377-1.632.376H6.99c-.731 0-1.257 0-1.632-.376-.321-.322-.358-.788-.358-1.111v-5.11c0-1.938.176-2.302 1.456-3.002C9.721 23.616 17.27 21.8 20.465 21.56l2.439-.186c2.593-.281 4.033-.373 5.111-.373 1.079 0 2.712.065 5.081.373l2.44.186c3.196.24 10.743 2.057 14.008 3.842 1.28.7 1.456 1.064 1.456 3.001v5.11h-.005z" fill="#fff"/><path d="M38.385 18.838l-.31-.096c-.083-.023-2.085-.556-2.75-.57l.15-.787a.214.214 0 00-.054-.174C35.14 16.834 32.193 16 27.966 16c-4.173 0-7.226.772-7.514 1.112a.19.19 0 00-.05.163l.202.896c-.664.019-2.663.55-2.75.57l-.31.095.188.211 1.182 1.233-.256 2.09-.032.284.271-.066c.249-.06.524-.141.816-.227.676-.197 1.443-.42 1.98-.42.004 0 .402-.008.794-.042.138-.012.213-.051.23-.12.044-.18-.415-.488-.535-.56.208-.18 3.396-.52 5.784-.508h.104c2.383 0 5.5.335 5.683.506-.118.074-.58.38-.537.563.017.068.092.107.23.12.392.033.79.04.795.04.536 0 1.303.224 1.98.421.291.082.568.163.814.227l.271.066-.288-2.374 1.184-1.233.183-.209z" fill="#DF2A27"/><path d="M34.221 21.02l-.063-.048c-.249-.237-3.428-.615-6.129-.578-2.705-.037-6.081.398-6.26.652l-.03.03-.02-.082c-.007-.034-.741-3.374-.783-3.55a.143.143 0 01.04-.081c.263-.333 3.349-.984 7.053-.984 1.611.008 3.22.153 4.806.436 1.167.207 2.004.427 2.147.609.016.032.02.068.01.102-.041.175-.691 3.13-.698 3.164l-.073.33zM21.366 21.419l-.684-2.914h-.015c-.526 0-2.46.509-2.46.509l1.1 1.14-.237 2.014s.664-.17.97-.252c.349-.095.677-.184.96-.244.177-.036.355-.06.535-.07l.142-.009-.064-.035-.247-.14zM34.557 21.474l.684-2.914h.015c.526 0 2.46.51 2.46.51l-1.1 1.135.236 2.014s-.663-.17-.97-.252c-.348-.095-.677-.184-.96-.244a3.48 3.48 0 00-.535-.07l-.14-.01.063-.035.247-.134z" fill="#077954"/><path d="M7.767 31.43l-.116.015.016 2.547L6.005 34v-6.737a59.507 59.507 0 011.738-.657c1.381-.512 2.243.006 2.266 1.887.023 1.863-.835 2.778-2.242 2.937zm.088-3.215l-.225.063.011 1.758.227-.045c.411-.081.588-.559.583-1.089-.005-.53-.184-.803-.596-.687zM16.728 30.584l-.14.011V34h-1.576L15 24.53s1.102-.263 1.656-.379c1.314-.284 2.32.534 2.344 2.892.022 2.332-.973 3.385-2.272 3.54zm.048-4.372c-.07.012-.184.038-.184.038s-.007 1.577 0 2.359c.706-.07.863-.438.863-1.387.003-.746-.292-1.074-.679-1.01zM46.028 27.39a90.955 90.955 0 00-.684-.122c.056-.543.128-1.104.184-1.639.297.082.6.18.896.267-.124.484-.27.985-.396 1.494z" fill="#DF2A27"/><path d="M45.062 33.155v-7.734l-.044-.012c-.508-.14-.83-.229-1.361-.372l-.018-.005v4.52c-.428-1.701-.903-3.09-1.391-4.842-.028 0-.056-.007-.083-.012l-1.527-.346v5.621c-.02 1.307-.038 2.627-.057 4.022h1.635v-4.762c.415 1.634.958 3.226 1.358 4.767H45.062v-.845z" fill="#DF2A27"/><path d="M40 24.156c-.604-.107-2-.294-2-.294v3.794h-1V23.7l-.347-.031-1.42-.201-.233-.032a378.717 378.717 0 000 5.32V34h2v-3.896h1V34h1.999v-9.844zM48.184 29.166c-.27-.302-.431-.555-.431-.767 0-.233.083-.436.337-.422.3.017.348.408.362.666 0 .058.008.117.011.172h1.505c-.046-1.38-.53-2.23-1.691-2.473-1.105-.232-2.166.289-2.183 1.726-.01.886.365 1.678.992 2.322.284.296.57.583.855.863.272.266.413.452.408.647 0 .238-.123.432-.376.432-.305 0-.44-.323-.453-.593a9.12 9.12 0 01-.01-.35h-1.513v.235C45.98 33.086 46.764 34 47.913 34c1.341 0 2.087-.885 2.084-2.071 0-.702-.387-1.243-.976-1.867a33.74 33.74 0 01-.837-.896zM12.97 25.064c-.57.151-1.14.312-1.708.483A464.893 464.893 0 0110 34l1.601-.005.093-1.021h.945s.08.666.116 1.016h1.654c-.48-3.086-.96-6.062-1.439-8.926zm-1.136 6.33s.187-2.073.274-3.11h.018c.11 1 .357 3.11.357 3.11h-.649zM22.549 23.436c-.6.073-1.615.184-2.227.256-.447 3.535-.887 6.902-1.325 10.307l1.921-.004.098-1.247h.972l.12 1.247 1.89.005c-.48-3.587-.953-7.068-1.45-10.564zm-1.35 7.41l.25-3.798h.03l.388 3.793-.668.005zM32.236 23.002c-1.246-.05-2.232 1.108-2.236 3.119-.005 1.552 0 3.105-.003 4.658-.006 1.994 1.025 3.224 2.249 3.221 1.224-.003 2.236-1.28 2.254-3.221.014-1.516-.014-2.955 0-4.47.017-1.956-.897-3.41-2.264-3.307zm.264 8.523c0 .235-.052.475-.254.475-.252 0-.246-.21-.246-.475v-6.044c0-.235.044-.481.246-.481.26 0 .254.215.254.48v6.045zM27 23v8.615c0 .164-.057.385-.225.385-.191 0-.274-.178-.275-.39V31c-.565 0-1.437-.008-2 0v.678c0 1.376.843 2.322 2.143 2.322.111 0 .222-.007.332-.021 1.423-.1 2.012-1.012 2.012-3.076l.014-7.9L27 23z" fill="#DF2A27"/><path d="M23.674 19.94l-.315-2.497.754-.091c.508-.061.903.152.962.626.06.474-.271.804-.779.866l-.198.023.127 1.006-.551.068zm.57-1.53a.323.323 0 00.225-.123.31.31 0 00.059-.247c-.023-.187-.166-.274-.363-.25l-.197.023.078.62.197-.023zM25.596 19.709l-.15-2.512.557-.032.15 2.511-.556.033zM26.72 19.638l-.004-.373.922-1.706-.912.01-.006-.448 1.558-.017.004.344-.933 1.735.98-.011.006.448-1.615.018zM28.828 19.614l.019-.373 1.028-1.648-.909-.045.023-.447 1.556.076-.017.344-1.042 1.675.979.049-.023.447-1.614-.078zM32.063 19.889l-.018-.312-.515-.065-.098.298-.552-.07.943-2.419.556.07.262 2.57-.578-.072zm-.075-1.71h-.009l-.315.943.37.046-.046-.99z" fill="#fff"/></svg>