<!-- by TradingView --><svg width="56" height="56" viewBox="0 0 56 56" xmlns="http://www.w3.org/2000/svg"><path fill="#F0F3FA" d="M0 0h56v56H0z"/><path d="M13.96 21.73c-1.46 0-2.63.41-3.53 1.24-1.12 1.04-1.68 2.62-1.68 4.76 0 2.1.57 3.7 1.71 4.84a4.87 4.87 0 0 0 3.5 1.43c1.52 0 2.73-.56 3.65-1.43C18.7 31.54 19.24 30 19.24 28c0-1.55-.3-2.85-.89-3.9a4.35 4.35 0 0 0-1.83-1.8c-.79-.4-1.67-.6-2.56-.58ZM16 34.36c.7.99 1.6 1.82 2.65 2.43 1 .53 2.1.83 3.24.89V38a17.62 17.62 0 0 1-10.04-3.63c-.96-.28-1.89-.67-2.75-1.17a6.94 6.94 0 0 1-2.27-2.28A6.05 6.05 0 0 1 6 27.73c0-1.93.8-3.54 2.37-4.81A8.84 8.84 0 0 1 14.11 21c2.02-.04 4 .64 5.55 1.92a6.07 6.07 0 0 1 .68 9.01 8.47 8.47 0 0 1-4.35 2.43Z" fill="#762123"/><path d="m36.24 21 .38 4.25h-.38a5.36 5.36 0 0 0-2.18-2.75 6.53 6.53 0 0 0-3.38-.82 6.98 6.98 0 0 0-3 .62c-2.08 1-2.68 3.22-2.68 5.4-.1 3.56 2.74 5.53 6.03 5.48.99.02 1.96-.16 2.87-.52a8.7 8.7 0 0 0 2.72-2.05l.38.2a7.7 7.7 0 0 1-2.92 2.42c-1.24.54-2.6.8-3.97.77-3.7 0-8.17-2.02-8.11-6.3-.02-4.39 4.58-6.74 8.46-6.7 1.22 0 2.42.23 3.55.66.23.1.47.17.73.2.2 0 .4-.06.57-.17.22-.18.38-.41.46-.68h.47Z" fill="#762123"/><path d="M41 27.32h.99c1.52 0 2.66-.27 3.43-.81a2.45 2.45 0 0 0 1.17-2.07 2.46 2.46 0 0 0-.93-2 3.78 3.78 0 0 0-2.48-.76c-.62.02-1.57.1-2.18.24v5.4ZM52 34h-4.55l-4.46-6.07-.98.02h-.32l-.69-.02v3.79c0 .8.43 1.3.66 1.5.3.27.74.41 1.34.41h.62V34h-6.86v-.37h.6c.67 0 1.16-.17 1.45-.53.17-.19.19-.65.19-1.38v-8.44c0-.8-.05-1.3-.27-1.5-.3-.27-.77-.41-1.37-.41h-.6V21h5.85c1.7 0 2.96.1 3.77.3a4.5 4.5 0 0 1 2.06 1.11 2.56 2.56 0 0 1 .85 1.94 2.74 2.74 0 0 1-.97 2.08c-.64.58-1.64 1-2.99 1.24l2.34 3.73A6.23 6.23 0 0 0 52 33.63V34Z" fill="#762123"/></svg>