<!-- by TradingView --><svg width="56" height="56" xmlns="http://www.w3.org/2000/svg"><path fill="#F0F3FA" d="M0 0h56v56H0z"/><path d="M36.004 44l-5-13v13h5z" fill="url(#paint0_linear)"/><path d="M41.609 44.005L31.004 31l4.988 13.005h5.617z" fill="url(#paint1_linear)"/><path d="M43.99 39.414L31.005 31l10.59 13c2.125-.502 2.483-3.267 2.397-4.586z" fill="url(#paint2_linear)"/><path d="M43.99 31H31.004l12.986 8.466V31z" fill="url(#paint3_linear)"/><path d="M36 30v-3.014l8-1.652V30h-8z" fill="url(#paint4_linear)"/><path d="M36 27.01v-2.24l8-3.762v4.387l-8 1.614z" fill="url(#paint5_linear)"/><path d="M36 24.836v-3.184l8-6.457v5.827l-8 3.814z" fill="url(#paint6_linear)"/><path d="M36.005 21.654c-.081-.908-1.288-1.51-1.782-1.654l6.508-8c2.184.134 3.09 2.193 3.27 3.206l-7.996 6.448z" fill="url(#paint7_linear)"/><path d="M34.227 20h-2.756l2.756-8h6.53l-6.53 8z" fill="url(#paint8_linear)"/><path d="M31.537 20h-2.324l.63-8h4.45l-2.756 8z" fill="url(#paint9_linear)"/><path d="M29.279 20H27.22l-1.694-8h4.317l-.564 8z" fill="url(#paint10_linear)"/><path d="M27.242 20h-2.314l-3.686-8h4.417l1.583 8z" fill="url(#paint11_linear)"/><path d="M24.985 20h-3.212l-6.37-8h5.863l3.72 8z" fill="url(#paint12_linear)"/><path d="M22 20.002c-1.468.401-1.987 1.45-2.01 1.985l-7.98-5.74c-.19-2.916 2.187-4.046 3.399-4.247L22 20.002z" fill="url(#paint13_linear)"/><path d="M20 21.901v3.1l-8-2.918v-5.921l8 5.74z" fill="url(#paint14_linear)"/><path d="M20 27.091v-2.133l-8-3.033v4.536l8 .63z" fill="url(#paint15_linear)"/><path d="M20.003 27.003L12 26.42v4.187l8.003-1.526v-2.078z" fill="url(#paint16_linear)"/><path d="M12 35.484l8-3.515c0 1.672.107 2.634.194 2.865l-7.674 7.193c-.295-.508-.52-1.326-.52-1.836v-4.707z" fill="url(#paint17_linear)"/><path d="M12 30.514l8-1.492v2.945l-8 3.516v-4.97z" fill="url(#paint18_linear)"/><path d="M22.714 36.005h2.864L22.503 44h-5.245l5.456-7.995z" fill="url(#paint19_linear)"/><path d="M12.503 41.995l7.649-7.285c.49.897 1.887 1.296 2.565 1.296l-5.326 7.999H14.86c-1.366-.288-2.115-1.5-2.356-2.01z" fill="url(#paint20_linear)"/><path d="M30 44.005v-8h-4.42l-3.183 8H30z" fill="url(#paint21_linear)"/><defs><linearGradient id="paint0_linear" x1="31.004" y1="31" x2="33.461" y2="44.008" gradientUnits="userSpaceOnUse"><stop stop-color="#1A3CED"/><stop offset="1" stop-color="#6BB4FF"/></linearGradient><linearGradient id="paint1_linear" x1="31.004" y1="31" x2="38.238" y2="43.936" gradientUnits="userSpaceOnUse"><stop stop-color="#1438EE"/><stop offset="1" stop-color="#6686EE"/></linearGradient><linearGradient id="paint2_linear" x1="43.401" y1="42.297" x2="30.799" y2="31.233" gradientUnits="userSpaceOnUse"><stop stop-color="#4C53FC"/><stop offset="1" stop-color="#152DDD"/></linearGradient><linearGradient id="paint3_linear" x1="43.99" y1="34.713" x2="31.73" y2="31.311" gradientUnits="userSpaceOnUse"><stop stop-color="#5D61FE"/><stop offset="1" stop-color="#1C2AE2"/></linearGradient><linearGradient id="paint4_linear" x1="44" y1="28.286" x2="35.995" y2="28.695" gradientUnits="userSpaceOnUse"><stop stop-color="#BE84FE"/><stop offset="1" stop-color="#E5BFFD"/></linearGradient><linearGradient id="paint5_linear" x1="44" y1="23.236" x2="35.995" y2="25.711" gradientUnits="userSpaceOnUse"><stop stop-color="#D319F0"/><stop offset="1" stop-color="#E7AEFA"/></linearGradient><linearGradient id="paint6_linear" x1="44" y1="18.072" x2="36.004" y2="23.058" gradientUnits="userSpaceOnUse"><stop stop-color="#D4135A"/><stop offset="1" stop-color="#F674DC"/></linearGradient><linearGradient id="paint7_linear" x1="42.959" y1="13.219" x2="35.157" y2="20.812" gradientUnits="userSpaceOnUse"><stop stop-color="#E41220"/><stop offset="1" stop-color="#F14C7C"/></linearGradient><linearGradient id="paint8_linear" x1="37.015" y1="12" x2="32.77" y2="20.002" gradientUnits="userSpaceOnUse"><stop stop-color="#E72225"/><stop offset="1" stop-color="#F0616E"/></linearGradient><linearGradient id="paint9_linear" x1="31.753" y1="12" x2="31.753" y2="20" gradientUnits="userSpaceOnUse"><stop stop-color="#E44323"/><stop offset="1" stop-color="#EE9175"/></linearGradient><linearGradient id="paint10_linear" x1="27.685" y1="12" x2="28.349" y2="19.999" gradientUnits="userSpaceOnUse"><stop stop-color="#E25D2A"/><stop offset="1" stop-color="#EC9E73"/></linearGradient><linearGradient id="paint11_linear" x1="24.198" y1="12" x2="26.256" y2="19.984" gradientUnits="userSpaceOnUse"><stop stop-color="#DD6D1E"/><stop offset="1" stop-color="#EBAB6C"/></linearGradient><linearGradient id="paint12_linear" x1="18.859" y1="12" x2="23.399" y2="19.92" gradientUnits="userSpaceOnUse"><stop stop-color="#C97A07"/><stop offset="1" stop-color="#EAB147"/></linearGradient><linearGradient id="paint13_linear" x1="20.866" y1="20.722" x2="12.908" y2="12.983" gradientUnits="userSpaceOnUse"><stop stop-color="#E9C943"/><stop offset="1" stop-color="#C5990B"/></linearGradient><linearGradient id="paint14_linear" x1="20" y1="23.228" x2="12.049" y2="18.857" gradientUnits="userSpaceOnUse"><stop stop-color="#ECE353"/><stop offset="1" stop-color="#E0CF10"/></linearGradient><linearGradient id="paint15_linear" x1="20" y1="26.158" x2="11.485" y2="24.512" gradientUnits="userSpaceOnUse"><stop stop-color="#F0F26D"/><stop offset="1" stop-color="#E5E82C"/></linearGradient><linearGradient id="paint16_linear" x1="20.003" y1="28.074" x2="12" y2="28.569" gradientUnits="userSpaceOnUse"><stop stop-color="#DAF269"/><stop offset="1" stop-color="#C2F12A"/></linearGradient><linearGradient id="paint17_linear" x1="20.213" y1="33.145" x2="12.047" y2="38.846" gradientUnits="userSpaceOnUse"><stop stop-color="#99FA44"/><stop offset="1" stop-color="#67F821"/></linearGradient><linearGradient id="paint18_linear" x1="20" y1="30.778" x2="12.013" y2="33.299" gradientUnits="userSpaceOnUse"><stop stop-color="#CAF768"/><stop offset="1" stop-color="#9DF730"/></linearGradient><linearGradient id="paint19_linear" x1="23.784" y1="36.005" x2="20.173" y2="44.038" gradientUnits="userSpaceOnUse"><stop stop-color="#B4FFB5"/><stop offset="1" stop-color="#92FF9A"/></linearGradient><linearGradient id="paint20_linear" x1="21.117" y1="34.825" x2="13.958" y2="43.875" gradientUnits="userSpaceOnUse"><stop stop-color="#A5FC64"/><stop offset="1" stop-color="#43E90D"/></linearGradient><linearGradient id="paint21_linear" x1="28.11" y1="36.005" x2="26.41" y2="44.049" gradientUnits="userSpaceOnUse"><stop stop-color="#D5F6FF"/><stop offset="1" stop-color="#B1FFED"/></linearGradient></defs></svg>