<!-- by TradingView --><svg width="56" height="56" viewBox="0 0 56 56" xmlns="http://www.w3.org/2000/svg"><path fill="#F0F3FA" d="M0 0h56v56H0z"/><path d="M49.67 31.29h-3.35L45.77 33H44l3.02-9h1.96L52 33h-1.78l-.55-1.71Zm-.46-1.44-1.22-3.76-1.21 3.76h2.43ZM44.5 24v1.46H42V33h-2v-7.54h-2.5V24h7ZM37 24v1.46h-2.5V33h-2v-7.54H30V24h7ZM26 25.47v2.25h2.63v1.43H26v2.38h3V33h-5v-9h5v1.47h-3ZM17 24v5.51c0 1.2.71 1.87 1.99 1.87 1.29 0 2.01-.66 2.01-1.87V24h2v5.5c0 2.27-1.94 3.5-4.04 3.5-2.11 0-3.96-1.25-3.96-3.5V24h2ZM11.61 35l-1.46-1.68a5.26 5.26 0 0 1-3.7-.46A4.62 4.62 0 0 1 4 28.73a4.62 4.62 0 0 1 2.45-4.12c.75-.4 1.57-.61 2.47-.61.9 0 1.73.2 2.47.6.75.41 1.34.98 1.77 1.7.44.72.66 1.53.66 2.43a4.67 4.67 0 0 1-2.02 3.89L14 35h-2.39Zm-5.63-6.27c0 .61.12 1.16.37 1.62.25.47.59.83 1.03 1.09.45.25.96.37 1.54.37a2.67 2.67 0 0 0 2.55-1.46c.25-.46.37-1 .37-1.62 0-.62-.12-1.16-.37-1.62-.24-.47-.59-.82-1.03-1.07a3.06 3.06 0 0 0-1.52-.37c-.58 0-1.1.12-1.54.37-.44.25-.78.6-1.03 1.07-.25.46-.37 1-.37 1.62Z"/></svg>