<!-- by TradingView --><svg width="56" height="56" viewBox="0 0 56 56" xmlns="http://www.w3.org/2000/svg"><path fill="#F0F3FA" d="M0 0h56v56H0z"/><path d="M38.37 33.07c-2.62-3.89-7.78-4.28-10.03-4 6.08 1.4 7.77 5.18 8.56 7.23-2.25-4.2-7.55-5.5-8.9-5.5 1.58 1.19 2.14 5.72 4.5 8.31 3.84 4.2 10.15 3.88 11.5 3.88-2.93-1.72-2.37-5.07-5.63-9.92Z" fill="#7ABD2F"/><path d="M30 41.55c0 .72-.52 1.34-1.24 1.4A15.5 15.5 0 1 1 43 27.65c0 .77-.65 1.35-1.42 1.35h-.17c-.8 0-1.41-.7-1.41-1.5a12.5 12.5 0 1 0-11.78 12.48c.93-.05 1.78.64 1.78 1.57Z" fill="#EE741A"/></svg>