<!-- by TradingView --><svg width="56" height="56" viewBox="0 0 56 56" xmlns="http://www.w3.org/2000/svg"><path fill="#F0F3FA" d="M0 0h56v56H0z"/><path d="M46.93 19c.57-.03 1.07.33 1.07.86V22h1.09c.41 0 .82.38.89.8.13.52-.34 1.2-.84 1.2H48v7.93c.01.4-.34 1.06-1 1.06-.64 0-1-.44-1-1.06V24h-.82c-.55 0-1.21-.33-1.18-1.04.02-.63.62-.95 1.13-.96H46v-2.14c-.02-.47.47-.84.93-.86ZM29.18 22.39c.23-.33.74-.48 1.16-.34.36.1.63.42.66.76V32.16a.97.97 0 0 1-.73.8c-.21.06-.45.04-.65-.04a.92.92 0 0 1-.52-.4.8.8 0 0 1-.1-.43v-9.16c0-.2.05-.39.18-.54ZM17.5 22.1c.42-.2 1.07-.05 1.25.24.16.25.24.49.25.77v4.3c.01 1.7.46 3.36 2.36 3.6 2.12.24 3.64-1.34 3.64-3.37v-4.75c0-.45.44-.88.92-.9.65-.03 1.08.54 1.08 1.1v9.05a.9.9 0 0 1-.6.8c-.57.22-1.38-.18-1.4-.8v-.6a4.43 4.43 0 0 1-2.96 1.43c-3.52.32-5.05-2.59-5.03-5.57v-4.3c0-.16-.01-.32.03-.48a.9.9 0 0 1 .47-.53Z" fill="#534C48"/><path fill-rule="evenodd" d="M14 23.4a4.64 4.64 0 0 0-3.27-1.4A5.69 5.69 0 0 0 5 27.66a5.36 5.36 0 0 0 4.18 5.2c.77.17 1.57.21 2.34.07A4.4 4.4 0 0 0 14 31.73v4.3c0 .45.5.95.98.97a.98.98 0 0 0 1.02-.97V22.88a.89.89 0 0 0-.46-.78c-.6-.32-1.54.14-1.54.8v.5ZM10.5 31a3.5 3.5 0 1 0 0-7 3.5 3.5 0 0 0 0 7ZM35 23.4a4.64 4.64 0 0 1 3.27-1.4A5.69 5.69 0 0 1 44 27.66a5.36 5.36 0 0 1-4.18 5.2c-.77.17-1.57.2-2.34.07A4.4 4.4 0 0 1 35 31.73v4.3c0 .45-.5.95-.98.97a.98.98 0 0 1-1.02-.97V22.88c0-.32.18-.63.46-.78.6-.32 1.54.14 1.54.8v.5Zm3.5 7.6a3.5 3.5 0 1 1 0-7 3.5 3.5 0 0 1 0 7Z" fill="#534C48"/><circle cx="30" cy="20" r="1" fill="#E65B24"/><path fill="#E65B24" fill-opacity=".7" d="M23 35h9v2h-9zM36 35h13v2H36z"/></svg>