<!-- by TradingView --><svg xmlns="http://www.w3.org/2000/svg" width="56" height="56" viewBox="0 0 56 56"><path fill="#F0F3FA" d="M0 0h56v56H0z"/><path d="M45 28a17 17 0 0 1-25.52 14.72c-4.62-3.67-5.2-7.65-5.2-11.59 0-5.5 5.24-9.63 6.18-9.85-1.9 1.75-3 3.92-3 5.94 0 4.22 5.42 9.2 11.55 9.2 3.1 0 11.23-1.45 12.57-11.9.54-5.98-3.45-9.46-5.57-11.52A17 17 0 0 1 45 28z" fill="url(#akvbxy30r)"/><path d="M11 28a17 17 0 0 1 25.52-14.72c4.62 3.67 5.2 7.65 5.2 11.59 0 5.5-5.24 9.63-6.18 9.85 1.9-1.75 3-3.92 3-5.94 0-4.22-5.42-9.2-11.55-9.2-3.1 0-11.23 1.45-12.57 11.9-.54 5.98 3.45 9.46 5.57 11.52A17 17 0 0 1 11 28z" fill="url(#bkvbxy30r)"/><path d="M26.23 25.47a.25.25 0 0 0-.48-.1l-.84 3.78a.25.25 0 0 0 .49.1l.83-3.78zm-2.63.04c.14.03.22.16.2.3l-.43 1.85a.25.25 0 0 1-.49-.11l.42-1.86a.25.25 0 0 1 .3-.18zM32.94 28c.14.02.22.16.2.3l-.4 1.89a.25.25 0 0 1-.49-.1l.4-1.9a.25.25 0 0 1 .29-.2zM28.5 25.9c.13.03.22.17.19.3l-.84 3.78a.25.25 0 1 1-.49-.1l.84-3.79a.25.25 0 0 1 .3-.19zm2.65.88a.25.25 0 0 0-.49-.11l-.84 3.78a.25.25 0 1 0 .49.1l.84-3.77z" fill="#21BDB7"/><path d="M19.45 25.47a.47.47 0 1 0 0-.93.47.47 0 0 0 0 .93zM21.22 27a.67.67 0 1 0 0-1.34.67.67 0 0 0 0 1.34zm2.55.97a.72.72 0 1 1-1.43 0 .72.72 0 0 1 1.43 0zm3.78 2.99a.68.68 0 1 0 0-1.36.68.68 0 0 0 0 1.36zm1.66-5.24a.68.68 0 1 1-1.36 0 .68.68 0 0 1 1.36 0zm1.7 1.61a.75.75 0 1 0 0-1.5.75.75 0 0 0 0 1.5zm2.76.67a.71.71 0 1 1-1.43 0 .71.71 0 0 1 1.43 0zm1.13 2.31a.69.69 0 1 0 0-1.37.69.69 0 0 0 0 1.37zm-4.24.26a.5.5 0 1 1-1 0 .5.5 0 0 1 1 0zm6.03.84a.46.46 0 1 0 0-.92.46.46 0 0 0 0 .92zM26.47 25.4a.5.5 0 1 1-1 0 .5.5 0 0 1 1 0zm-1.35 4.75a.76.76 0 1 0 0-1.52.76.76 0 0 0 0 1.52z" fill="#DF2029"/><defs><linearGradient id="akvbxy30r" x1="36.13" y1="34.44" x2="14.28" y2="30.16" gradientUnits="userSpaceOnUse"><stop stop-color="#298CAA"/><stop offset="1" stop-color="#216076"/></linearGradient><linearGradient id="bkvbxy30r" x1="19.87" y1="21.56" x2="41.72" y2="25.84" gradientUnits="userSpaceOnUse"><stop stop-color="#298CAA"/><stop offset="1" stop-color="#216076"/></linearGradient></defs></svg>