<!-- by TradingView --><svg xmlns="http://www.w3.org/2000/svg" width="56" height="56"><path fill="url(#asospfvfb)" d="M0 0h56v56H0z"/><path d="M30.38 13.98a3.06 3.06 0 013.9-1.8c2.69.96 5.06 2.54 6.93 4.57A2.97 2.97 0 0141 21a3.08 3.08 0 01-4.3-.2 11.26 11.26 0 00-4.5-2.97 2.99 2.99 0 01-1.82-3.84zm-4.84-.09a2.98 2.98 0 01-1.62 3.93A11.23 11.23 0 0017 28c0 4.46 2.97 8.55 7 10.22a2.98 2.98 0 011.62 3.93 3.07 3.07 0 01-3.99 1.6A17.26 17.26 0 0111 28c0-6.99 4.38-13.15 10.55-15.71a3.07 3.07 0 014 1.6zM41 35.01a2.97 2.97 0 01.2 4.24 17.37 17.37 0 01-6.91 4.57 3.06 3.06 0 01-3.9-1.8 2.99 2.99 0 011.82-3.84 11.26 11.26 0 004.48-2.96 3.08 3.08 0 014.3-.2z" fill="#fff"/><defs><linearGradient id="asospfvfb" x1="47.41" y1="8.21" x2="7.85" y2="48.74" gradientUnits="userSpaceOnUse"><stop stop-color="#E3256B"/><stop offset="1" stop-color="#F1533A"/></linearGradient></defs></svg>