<!-- by TradingView --><svg width="56" height="56" viewBox="0 0 56 56" xmlns="http://www.w3.org/2000/svg"><path fill="#F0F3FA" d="M0 0h56v56H0z"/><path d="M23.66 30.56c-1.03 2.72-5.35 3.18-7.43 1.3a3.97 3.97 0 0 1-1.23-3V23h2v4.6c.01 1.18.06 2.19.26 2.46.4.84 1.33 1.27 2.23 1.26.9 0 1.83-.42 2.23-1.26.3-.43.31-2.6.28-4.44V23h2v2.6s.1 4.11-.34 4.96ZM38 23h.22l1.77-.01v5l.01 5h-2V23ZM49 23h2v10h-.21L44 27.05V33h-2V23h.21L49 29.05V23Zm-24 1.83v-.16.16Zm0 0v.91-.9ZM9.28 33h5.06v-.2l-1.84-1.37c.76-.9 1.5-2.2 1.49-3.43-.02-3.23-3.7-6.06-6.96-4.59-3.14 1.25-4.06 5.7-1.76 8.12a5.38 5.38 0 0 0 4 1.47ZM12 28a3 3 0 1 1-6 0 3 3 0 0 1 6 0Zm23.6 1.96A5.04 5.04 0 0 0 30.97 23c-4.4 0-6.66 5.45-3.52 8.55a5 5 0 0 0 8.13-1.59ZM34 28a3 3 0 1 1-6 0 3 3 0 0 1 6 0Z" fill="#1C354B"/></svg>