<!-- by TradingView --><svg width="56" height="56" viewBox="0 0 56 56" xmlns="http://www.w3.org/2000/svg"><path fill="#F0F3FA" d="M0 0h56v56H0z"/><path fill-rule="evenodd" d="M8.87 29H7.55l1.26 1.63a2.69 2.69 0 0 1-2.18-.25 2.6 2.6 0 0 1-.95-1.1 4.17 4.17 0 0 1-.35-1.8c0-.71.12-1.31.35-1.8.23-.48.55-.85.95-1.1.4-.25.86-.38 1.37-.38a2.51 2.51 0 0 1 2.32 1.48c.24.49.35 1.09.35 1.8 0 .7-.11 1.3-.35 1.8-.16.32-.35.6-.6.82L8.88 29Zm1.62 2.11c.4-.32.73-.74.99-1.23.35-.67.52-1.47.52-2.4 0-.93-.17-1.73-.52-2.4A3.74 3.74 0 0 0 8 23a3.75 3.75 0 0 0-3.48 2.08 5.13 5.13 0 0 0-.52 2.4c0 .92.17 1.72.52 2.4.35.66.82 1.18 1.42 1.54a3.86 3.86 0 0 0 3.6.26l.8 1.32h1.37l-1.22-1.89ZM22 27.5a5.2 5.2 0 0 1-.52 2.41A3.79 3.79 0 0 1 18 32a3.8 3.8 0 0 1-3.48-2.1 5.2 5.2 0 0 1-.52-2.4c0-.94.17-1.74.52-2.4A3.76 3.76 0 0 1 18 23a3.75 3.75 0 0 1 3.48 2.1c.35.66.52 1.46.52 2.4Zm-1.33 0c0-.71-.11-1.31-.35-1.8A2.5 2.5 0 0 0 18 24.2c-.5 0-.97.13-1.37.39-.4.25-.72.62-.95 1.1a4.19 4.19 0 0 0-.35 1.81c0 .71.12 1.31.35 1.8.23.5.55.86.95 1.12.4.25.86.37 1.37.37.51 0 .97-.12 1.37-.37.4-.26.72-.63.95-1.11.24-.5.35-1.1.35-1.81ZM45 32v-9h3.37c.73 0 1.34.12 1.82.36.49.24.85.57 1.09 1 .24.42.36.9.36 1.46 0 .55-.12 1.04-.36 1.46a2.4 2.4 0 0 1-1.37 1.08L52 32h-1.62l-1.92-3.4h-2.03V32H45Zm3.23-4.57h-1.8v-3.07h1.79c1.05 0 1.98.4 1.98 1.46 0 .68-.25 1.16-.84 1.42-.29.12-.66.19-1.13.19Zm-5.75 2.48A5.2 5.2 0 0 0 43 27.5c0-.94-.17-1.74-.52-2.4A3.75 3.75 0 0 0 39 23a3.76 3.76 0 0 0-3.48 2.1 5.18 5.18 0 0 0-.52 2.4c0 .93.17 1.74.52 2.4.35.68.82 1.2 1.42 1.56.6.36 1.3.54 2.06.54a3.79 3.79 0 0 0 3.48-2.09Zm-1.16-4.21c.24.49.35 1.09.35 1.8s-.11 1.31-.35 1.8c-.23.5-.55.86-.95 1.12-.4.25-.86.37-1.37.37-.51 0-.97-.12-1.37-.37-.4-.26-.72-.63-.95-1.11-.23-.5-.35-1.1-.35-1.81s.12-1.31.35-1.8c.23-.5.55-.86.95-1.11.4-.26.86-.38 1.37-.38a2.5 2.5 0 0 1 2.32 1.49ZM24 23h1.62l2.83 7h.1l2.83-7H33v9h-1.27v-6.51h-.09L29.03 32h-1.06l-2.61-6.52h-.09V32H24v-9Z"/></svg>