<!-- by TradingView --><svg xmlns="http://www.w3.org/2000/svg" width="56" height="56" viewBox="0 0 56 56"><path fill="#F0F3FA" d="M0 0h56v56H0z"/><path d="m18.18 20.61 1.7 1.2-3.87.76-.77-4.01 1.6 1.1A14.85 14.85 0 0 1 42.16 23h-1.81a13.2 13.2 0 0 0-22.18-2.38ZM39.28 35.76l-1.92-.9 3.68-1.42 1.44 3.82-1.7-.8A14.85 14.85 0 0 1 14.14 32h1.71a13.2 13.2 0 0 0 23.44 3.77Z" fill="#6793CC"/><path d="M16.01 33.18a25.53 25.53 0 0 1 6.27-1.1c2.86-.04 6.8.23 14.37 6.37 1.04.96 4 2.97 8.35 3.35V43c-1.75-.22-5.47-1.01-7.86-2.79a14.85 14.85 0 0 1-22.48-6.62l1.35-.41Zm18.5 6.72c.39-.2.76-.41 1.13-.65l-4.74-2.67-.68-.37c-1.35-.75-3.57-1.99-6.4-2 .77.14 2.96.84 5.5 2.5 2.92 1.93 4.2 2.73 5.19 3.2Z" fill="#0068B2"/><path fill-rule="evenodd" d="M7.5 22A2.5 2.5 0 0 0 5 24.5v4A2.5 2.5 0 0 0 7.5 31h4a2.5 2.5 0 0 0 2.5-2.5v-4a2.5 2.5 0 0 0-2.5-2.5h-4Zm1 1.5a.5.5 0 0 0-.5.5v4.97c0 .28.22.5.5.5h2a.5.5 0 0 0 .5-.5V24a.5.5 0 0 0-.5-.5h-2Z" fill="#231F20"/><path d="M5.45 23.66a2.5 2.5 0 0 1 2.05-1.07h3.39a2.5 2.5 0 0 1 2.5 2.5v3.38c0 .48-.14.93-.38 1.32a2.5 2.5 0 0 0 .66-1.7v-3.38a2.5 2.5 0 0 0-2.5-2.5H7.72c-1 0-1.87.6-2.27 1.45Z" fill="#6793CC"/><path d="M7.39 24.38a1 1 0 0 1 .36-.77v5.49c0 .28.22.5.5.5h1.3l.14.28a1 1 0 0 1-.31.05h-.99a1 1 0 0 1-1-1v-4.55Z" fill="#6793CC"/><path d="M10.81 32 8.7 27.97h1.3L12.08 32H10.8Z" fill="#231F20"/><path d="m11.02 31.39-.44-.88h.4l.43.88h-.39ZM10.25 29.97l-.84-1.66h.4l.68 1.26.44-.12-.68.52Z" fill="#6793CC"/><path d="M18.5 24H15c.2.31.47.84.5 1.07v3.44c.07 2.03 1.13 2.5 1.73 2.49h2.57c.72 0 1.05-.44 1.13-.66l.15.66h3.37a3.3 3.3 0 0 1-.45-1.4V24h-3.46c.24.27.43.82.46 1.07v3.97c.04.38-.37.53-.55.56h-1.33c-.46-.03-.63-.39-.62-.56V24Z" fill="#231F20"/><path d="M18.25 24.35h-2.72v.31h2.45v4.55c.08.8.6 1.04.85 1.06h1.18c.47-.04.65-.34.68-.48-.1.16-.4.2-.53.2H18.9c-.5-.1-.64-.56-.65-.78v-4.86ZM20.41 30.84l.47-1.2.16.18-.63 1.02ZM23.64 24.32h-2.63v.34h2.36v5.17c.02.4.06.74.08.85h.35a6.6 6.6 0 0 1-.16-.85v-5.51Z" fill="#6793CC"/><path fill-rule="evenodd" d="M25 25.5c0-.83.67-1.5 1.5-1.5h6c.83 0 1.5.67 1.5 1.5v2.72h-6v.75c0 .2.21.6.95.62h3.43c.4-.04 1.18-.15 1.57-.35L33.86 31H26.5a1.5 1.5 0 0 1-1.5-1.5v-4Zm3 .35c0-.28.22-.5.5-.5h2c.28 0 .5.22.5.5V27h-3v-1.15Z" fill="#231F20"/><path d="M27.83 27.19h2.62v.28h-2.92V26c0-.28.26-.53.4-.62-.08.23-.1.51-.1.62v1.2Z" fill="#6793CC"/><path d="M33.5 25.87v2.04h-.26v-2.04c-.06-.96-.92-1.23-1.34-1.24h-4.92a2.75 2.75 0 0 0-1.34.38c.35-.58 1.04-.67 1.34-.64H32c1.19-.01 1.5 1 1.52 1.5ZM27.58 29.34v-1.21h.2v1.21a.8.8 0 0 0 .8.66h3.63c.4-.02.92-.1 1.13-.14v.86h-.23v-.56c-.13.07-.46.08-.61.07h-3.98c-.8-.03-.96-.6-.94-.89Z" fill="#6793CC"/><path d="m42.9 24 .3 1.76a3.01 3.01 0 0 0-1.32-.43h-3.25c-.17 0-.34.11-.34.33 0 .26.24.35.42.37h2.82c1.4 0 1.78 1 1.8 1.5v1.5c-.06 1.42-1.09 1.9-1.6 1.97h-6.38L35 29.3c.4.3 1.23.43 1.6.45h3.17c.16 0 .47-.1.49-.44.01-.44-.45-.5-.5-.5h-2.88c-1.19 0-1.51-1.03-1.53-1.55v-1.23c.02-1.67 1.18-2.05 1.76-2.03h5.79Z" fill="#231F20"/><path d="m42.56 24.32.2.89-.33-.13-.1-.5h-5.2c-.45-.01-1.08.2-1.34.32.22-.43.84-.57 1.13-.58h5.64ZM37.66 25.94a.67.67 0 0 1 .3-.65v.48c0 .33.3.5.45.53h3.05c1.08.01 1.44.8 1.49 1.18v1.99c-.08.35-.45.75-.62.9.17-.33.3-.74.35-.9V27.8c-.1-1.25-1.22-1.22-1.31-1.22H38.3a.75.75 0 0 1-.64-.64ZM38.96 30c.38 0 .94-.06 1.17-.1a.57.57 0 0 1-.46.34h-3.15c-.5.01-.97-.07-1.14-.11v-.39c.28.12.75.22.95.26h2.63Z" fill="#6793CC"/><path d="M48 23h-3v1.4h-1.6v1.33H45V29c0 1.6.88 2 1.43 1.99h4.34l.23-1.64c-.15.18-.64.26-.87.28h-1.62c-.31 0-.5-.25-.51-.37v-3.54h2.67V24.4H48V23Z" fill="#231F20"/><path fill="#6793CC" d="M43.88 24.69h.83v.2h-.83zM47.49 23.18l-2.29.13v.17h2.09V25H50v.46h.3v-.75H47.5v-1.53ZM47.34 29.5v-3.79h.26v3.66c0 .46.36.6.54.63h2.4l-.12.83h-.19v-.48H48c-.6-.08-.68-.6-.65-.84Z"/></svg>