<!-- by TradingView --><svg width="56" height="56" viewBox="0 0 56 56" xmlns="http://www.w3.org/2000/svg"><path fill="#F0F3FA" d="M0 0h56v56H0z"/><path d="M27.97 10h.07c.13.14.22.3.27.48.18.56.48 1 1.06 1.19.97.32 1.74-.2 2.16-1.08.07-.15.14-.22.3-.17a.11.11 0 0 1 .09.1c.03.65.12 1.23.65 1.65.98.8 1.93.28 2.61-.57a.11.11 0 0 1 .06-.03c.4-.09.18.62.17.78-.02 1.29 1.24 2.14 2.42 1.54.18-.1.77-.68.9-.33v.07c-.15.48-.32.83-.22 1.34.2 1.1 1.42 1.66 2.44 1.12.16-.09.44-.3.56-.03a.09.09 0 0 1 0 .07c-.03.07-.06.17-.1.23a1.69 1.69 0 0 0 0 2.19c.5.59 1.23.64 1.98.42.15-.04.28-.02.32.14a.1.1 0 0 1-.01.07c-.04.06-.07.12-.12.17-1.28 1.1-.69 3.03 1.06 3a23.44 23.44 0 0 1 .5.02l.03.03.06.16a.06.06 0 0 1-.02.07c-.72.52-1.34 1-1.14 2 .18.9.92 1.24 1.8 1.36a.1.1 0 0 1 .06.04c.03.03.06.07.07.12v.11l-.05.05a.15.15 0 0 1-.06.04c-.5.16-.93.39-1.21.84-.6.96-.1 2.03.9 2.42.16.06.27.1.35.15a.1.1 0 0 1 .05.06c.05.16-.03.24-.19.26-.75.12-1.36.37-1.66 1.11-.38.96.15 1.67.97 2.17.15.09.16.2.03.33a.08.08 0 0 1-.06.03 8.87 8.87 0 0 0-.61-.01c-1.15.06-2 1.24-1.46 2.31.14.28.35.54.63.79a.1.1 0 0 1 .03.06c.03.23-.14.27-.33.22-.8-.21-1.5-.17-2.03.5-.6.75-.37 1.46.1 2.2.08.13.06.26-.08.33a.14.14 0 0 1-.13 0c-.79-.5-1.73-.54-2.39.19-.54.6-.44 1.28-.17 2 .06.16 0 .29-.17.3a.1.1 0 0 1-.07-.02c-.62-.47-1.17-.84-2-.53-.79.3-1.18 1.04-1.02 1.9.04.2.09.52-.18.5a.09.09 0 0 1-.06-.03c-.56-.68-1.2-1.16-2.08-.9-.77.23-1.19.89-1.17 1.68 0 .16-.05.28-.14.37a.15.15 0 0 1-.24-.05c-.37-.8-.95-1.4-1.92-1.28-.91.12-1.25.85-1.42 1.66a.07.07 0 0 1-.04.05l-.09.04h-.15c-.03-.03-.08-.08-.08-.13-.1-.61-.43-1.38-1.09-1.56-1.02-.29-1.72.24-2.16 1.13-.08.16-.22.23-.36.07a.12.12 0 0 1-.02-.06c-.03-.5-.08-.93-.38-1.34-.59-.8-1.7-.83-2.45-.2-.06.07-.2.21-.4.46-.15.17-.35.09-.33-.14.05-.77.12-1.45-.59-1.96-.85-.6-1.65-.3-2.4.31a.1.1 0 0 1-.06.03c-.43 0-.04-.67 0-.87.24-1.41-1.06-2.41-2.36-1.81-.17.08-.5.3-.64.08a.16.16 0 0 1 0-.17c.46-.64.73-1.39.24-2.1-.48-.72-1.19-.94-2.12-.66-.18.06-.3.06-.34-.15a.13.13 0 0 1 .04-.12c.7-.66 1.09-1.5.48-2.4-.3-.43-.75-.67-1.34-.7-.2-.02-.76.12-.72-.21a.16.16 0 0 1 .08-.12c.45-.27.83-.58 1.01-1.07.23-.63.02-1.34-.49-1.77a2.3 2.3 0 0 0-1.26-.46.13.13 0 0 1-.12-.15l.01-.13.02-.04.03-.02c.72-.3 1.31-.57 1.47-1.4.18-.95-.5-1.72-1.4-1.97-.09-.03-.13-.07-.15-.15v-.1c.03-.08.07-.12.13-.13.96-.13 1.8-.55 1.82-1.63.02-.73-.42-1.29-1.04-1.63-.14-.09-.2-.21-.07-.34a.1.1 0 0 1 .07-.03c.97 0 1.68-.06 2.08-1.06.32-.8-.02-1.47-.64-2-.17-.16-.02-.4.23-.34.26.06.54.15.8.14 1.55-.1 2.05-1.66 1.18-2.8a.76.76 0 0 1-.07-.17.1.1 0 0 1 0-.07c.07-.15.2-.16.33-.08.71.4 1.5.49 2.15-.1.57-.5.69-1.2.4-1.94a1.71 1.71 0 0 1-.1-.4l.02-.02c.1-.13.22-.1.34 0 .67.57 1.49.82 2.27.25.67-.48.77-1.2.6-2a.17.17 0 0 1 .08-.17c.1-.08.2-.06.29.06.52.69 1.31 1.16 2.17.76.69-.32 1.02-.88 1.02-1.69 0-.05.01-.13.04-.22a.1.1 0 0 1 .04-.06c.17-.1.28 0 .34.16.35.77 1.07 1.3 1.96 1.1.86-.2 1.16-.8 1.37-1.58.02-.07.07-.1.16-.13Zm16.12 18a15.84 15.84 0 0 0-4.71-11.28A16.1 16.1 0 0 0 28 12.04a16.21 16.21 0 0 0-11.38 4.68 15.9 15.9 0 0 0 0 22.57 16.16 16.16 0 0 0 26.25-5.18c.8-1.94 1.22-4.01 1.22-6.1Z" fill="#006351"/><path d="M43.54 28c0 4.09-1.64 8-4.55 10.9a15.6 15.6 0 0 1-21.98 0 15.34 15.34 0 0 1 0-21.8 15.6 15.6 0 0 1 21.98 0s4.55 3.58 4.55 10.9Zm-6.64 0c0-2.34-.94-4.58-2.6-6.24a8.94 8.94 0 0 0-6.3-2.58c-2.36 0-6.3 2.58-6.3 2.58s-2.6 3.9-2.6 6.24c0 2.34.94 4.59 2.6 6.24a8.94 8.94 0 0 0 12.6 0A8.79 8.79 0 0 0 36.9 28Z" fill="#006351"/><path d="M30.5 15.7a4.59 4.59 0 0 0-1.14-.22.07.07 0 0 0-.03.03l-.1.2a.12.12 0 0 0 0 .11.12.12 0 0 0 .08.06l.39.06a.05.05 0 0 1 .04.06l-.03.14-.02.04a20.6 20.6 0 0 0-1.55-.1c-.09-.01-.1-.03-.14-.1a.03.03 0 0 0-.04 0h-.01c-.79.56-2.58.6-3.22-.27-.5-.68-.16-1.6.54-2.02.66-.4 1.37-.5 2.11-.28.12.04.2.01.25-.1a.09.09 0 0 1 .06-.04l.28-.06a.06.06 0 0 1 .06.02l.01.02.1.88a.06.06 0 0 1-.05.06l-.26.03a.06.06 0 0 1-.06-.03c-.2-.32-.44-.51-.73-.6-.4-.11-.82.12-.8.56.02.43.08.87.18 1.33.12.53.57.64 1.02.47.36-.14.55-.43.56-.87l.01-.04.04-.01.25-.03h.02a.06.06 0 0 1 .03.04v.02a1.12 1.12 0 0 1-.2.73.04.04 0 0 0 0 .04h.03c.33.02.51-.12.72-.4a358.95 358.95 0 0 0 1.55-2h.03l1.04.22a.06.06 0 0 1 .04.04 376.49 376.49 0 0 0 .78 2.81c.03.07.06.07.1 0 .32-.56.63-1.12.93-1.69.13-.24-.21-.4-.4-.49a.05.05 0 0 1-.02-.02v-.04l.06-.13a.05.05 0 0 1 .06-.03c1.05.4 2.05.9 3 1.5.38.24.93.71.62 1.21-.45.74-1.8-.02-2.32-.33h-.02a.07.07 0 0 0-.08.03l-.33.63a.12.12 0 0 0-.02.08c.04.2.28.3.44.4l.02.02v.03c-.03.16-.13.17-.26.1a12.09 12.09 0 0 0-4.02-1.52l-.01-.04.02-.15a.04.04 0 0 1 .02-.03h.03l.32.07h.04c.02-.01.03-.02.03-.04.06-.1.06-.2 0-.32a.1.1 0 0 0-.06-.05Zm-.9-.56v.02a.03.03 0 0 0 0 .02h.02l.79.16h.01a.03.03 0 0 0 .02-.02v-.01l-.24-.9a.03.03 0 0 0-.02-.02.03.03 0 0 0-.02 0l-.56.75Zm5.28.3a29.3 29.3 0 0 0-.42.76c0 .01 0 .02.02.03.47.4 1.02-.32.84-.69-.07-.14-.31-.33-.44-.1ZM21.3 15.2a1.32 1.32 0 0 1 1.02 2.03c-.26.45-1.05.88-1.54 1.2a8.98 8.98 0 0 0-1.43 1.22.05.05 0 0 1-.03-.02l-.07-.1a.05.05 0 0 1-.01-.03l.01-.03c.17-.17.41-.27.22-.55l-1.03-1.5a.12.12 0 0 0-.07-.05.42.42 0 0 0-.42.13.05.05 0 0 1-.08 0l-.1-.12a.05.05 0 0 1-.02-.04.05.05 0 0 1 .02-.03c.75-.7 2.39-2.21 3.53-2.1Zm-.37 1.75c-.19-.33-.87-1.52-1.34-.87a.1.1 0 0 0-.02.07c.01.07.04.14.1.22l1.09 1.58c.07.1.13.16.26.1.55-.19.09-.81-.09-1.1Z" fill="#F0F3FA"/><path d="M37.09 16.4a.08.08 0 0 1 .05-.03.08.08 0 0 1 .06.02 16.5 16.5 0 0 1 2.1 2v.02l-.02.01-.12.1a.05.05 0 0 1-.03 0l-.04-.01c-.17-.17-.39-.45-.63-.2l-1.22 1.3c-.28.29.01.48.2.66a.04.04 0 0 1 0 .07l-.1.1a.05.05 0 0 1-.08 0 12.1 12.1 0 0 0-2.06-2.01.05.05 0 0 1 0-.04l.1-.11c0-.01.01-.02.03-.02h.03l.42.3c.02.02.05.03.08.03s.05-.01.07-.04c.45-.44.88-.9 1.32-1.37.22-.23-.02-.43-.22-.62a.06.06 0 0 1 0-.07l.06-.09ZM37.95 31.98c.43-.16.85-.36.97-.8 1.13-3.98.1-8.17-2.84-11.15a11.48 11.48 0 0 0-15.17-.92 11.27 11.27 0 0 0-3.93 11.9c.07.28.2.57.42.72.13.08.54.27.59.4 0 .03 0 .04-.03.03-.47-.14-.81 0-1.04.4l-.01.01h-.05c-.04-.04-.05-.1-.02-.15.18-.4.23-.66.1-1.11a11.4 11.4 0 0 1 4.26-12.57c4.65-3.34 11-2.81 15.03 1.27A11.41 11.41 0 0 1 39 31.34c-.06.2-.08.37-.08.53 0 .22.13.66.05.75h-.01a.03.03 0 0 1-.03 0v-.01c-.18-.44-.52-.61-1-.53a.03.03 0 0 1-.04-.02v-.01l.06-.07Z" fill="#F0F3FA"/><path d="M29.42 18.03c.35.12.67.22.71.63a.06.06 0 0 0 .1.04l1.27-.99a.08.08 0 0 1 .07 0l.67.24.03.02V18l.3 1.47c.05.28.31.42.56.48a.07.07 0 0 0 .07-.02l.61-.84v-.01a.04.04 0 0 0 0-.03l-.01-.02a.66.66 0 0 0-.58-.03c-.11.05-.24.06-.29-.07a.07.07 0 0 1 .02-.06l.3-.36.04-.01h.04a10.8 10.8 0 0 1 2.16 1.6v.03l-.27.43-.02.01a.05.05 0 0 1-.04 0h-.01c-.24-.22-.02-.53-.35-.79h-.03l-.02.01-.6.83a.09.09 0 0 0 0 .12l.26.24v.01a.05.05 0 0 1 0 .04v.02l-.02.02a.04.04 0 0 1-.06 0 9.72 9.72 0 0 0-3.17-1.92.06.06 0 0 1 0-.06c.03-.07.25.02.32.02a.05.05 0 0 0 .05-.03.26.26 0 0 0 0-.22.09.09 0 0 0-.05-.05l-.67-.25a.12.12 0 0 0-.16.08c-.07.19.15.26.28.33a.03.03 0 0 1 .02.05l-.02.01c-.07.04-1.23-.23-1.5-.27a.44.44 0 0 1-.3-.2.17.17 0 0 1-.03-.07l-.06-.36a.08.08 0 0 0-.06-.07l-.16-.05h-.02a.04.04 0 0 0-.03.03l-.04.4v.04l.03.02.22.08c.01 0 .02 0 .03.02l.01.03c0 .05-.01.08-.06.07a11.01 11.01 0 0 0-1.77-.03.09.09 0 0 1-.05-.05v-.03c-.01-.04.3-.04.36-.1.15-.14.17-.84.18-1.06a.12.12 0 0 0-.02-.08.12.12 0 0 0-.08-.04c-.05 0-.3 0-.32-.09l.01-.03.03-.01a8.55 8.55 0 0 1 2.65.17c.3.07.62.48.12.6a2.7 2.7 0 0 1-.65.08Zm-.36-.68c-.07-.06-.13-.07-.18-.02-.08.07-.08.38-.09.49a.05.05 0 0 0 .04.05c.34.1.48-.32.23-.52Zm1.89 1.03-.01.01v.03h.01l.51.2h.02a.02.02 0 0 0 .01-.03l-.08-.52a.02.02 0 0 0-.02-.02h-.02l-.42.33Z" fill="#F0F3FA"/><path d="M27.24 17.76c.05.23-.06.48-.3.7-.26.23-.62.4-1.03.5-.4.08-.8.08-1.13-.02-.32-.1-.53-.29-.58-.51-.05-.23.06-.49.31-.71.25-.22.62-.4 1.02-.49.4-.08.81-.08 1.13.02.32.1.53.28.58.51Zm-1.34-.17a.27.27 0 0 0-.22-.2h-.13a.28.28 0 0 0-.17.12.27.27 0 0 0-.04.2l.2.88a.27.27 0 0 0 .22.21h.14a.28.28 0 0 0 .2-.23v-.1l-.2-.88ZM20.85 20.74v.04h.04c.26-.25.57-.3.91-.15a.1.1 0 0 0 .08 0 .64.64 0 0 0 .3-.25.05.05 0 0 0 0-.06c-.16-.27-.34-.53-.52-.79-.16-.22-.32.07-.48.06a.06.06 0 0 1-.05-.04.06.06 0 0 1 .02-.06c.3-.24 2.65-1.96 2.88-1.27.14.42-.7.95-1.02 1.13a.1.1 0 0 0-.04.1l.01.04.12.16a.15.15 0 0 0 .18.05l.29-.13a.06.06 0 0 1 .07.03v.04c0 .01 0 .02-.02.03-.8.42-1.52.92-2.15 1.52-.14.13-.3.19-.46.16a.09.09 0 0 1-.06-.03c-.13-.15-.28-.18-.45-.08a.09.09 0 0 0-.05.06.09.09 0 0 0 .03.08l.25.2a.1.1 0 0 0 .08.03c.06 0 .1-.04.14-.09a.07.07 0 0 1 .06-.03l.07.01.02.01a.04.04 0 0 1 .01.04v.02c-.42.44-.79.91-1.12 1.41-.03.04-.05.04-.07 0l-.02-.04v-.04c0-.02 0-.03.02-.04.09-.09.13-.2.12-.32a.1.1 0 0 0-.03-.07l-.73-.66a.06.06 0 0 0-.08 0c-.06.03-.25.24-.3.2h-.02v-.02a.04.04 0 0 1 0-.03 8.42 8.42 0 0 1 1.77-2c.14-.12.3-.15.47-.06a.09.09 0 0 1 .05.05c.08.26-.17.63-.32.8Zm2.04-1.48c.42-.26.11-.75-.26-.58a.13.13 0 0 0-.07.08.13.13 0 0 0 .02.1l.25.39a.04.04 0 0 0 .06.01Zm-2.62 1.92.03.01h.04c.38-.23-.16-.8-.4-.38v.03l.01.04.32.3ZM40.96 21.23l-1.9 1.17a.16.16 0 0 0-.07.2c.12.3.23.64.6.73a249.39 249.39 0 0 0 2.74.66L42.6 25v.04l-.01.03a144.72 144.72 0 0 0-2.02 1.76c-.2.19-.35.36-.31.62a.15.15 0 0 0 .14.13l1.88.15c.33.03.34-.29.36-.51l.02-.03.04-.02.14.01s.02 0 .03.02l.01.03a22.66 22.66 0 0 1-.12 2.79h-.04L42.6 30l-.03-.01-.01-.03c-.02-.22.02-.54-.28-.57-.6-.05-1.21-.1-1.82-.13-.15 0-.2.04-.24.18-.14.57.06.97.6 1.2l.02.02.01.03-.03.24-.01.02-.03.01-1.06-.16h-.02a.04.04 0 0 1-.02-.03v-.01a11.18 11.18 0 0 0-.12-5.91.04.04 0 0 1 .03-.02l.17-.02a.05.05 0 0 1 .05.04c.01.15.08.27.19.37a.07.07 0 0 0 .09 0l.28-.18a.07.07 0 0 0 .02-.07l-.3-1.05a.1.1 0 0 0-.05-.06c-.1-.06-.2-.06-.3-.01-.13.08-.08.38-.07.52v.04l-.04.02-.15.03h-.03a11 11 0 0 0-1.96-3.79.05.05 0 0 1 .02-.04l.12-.07a.05.05 0 0 1 .04 0 .04.04 0 0 1 .03.02c.11.2.3.51.57.35a1081.77 1081.77 0 0 0 1.84-1.15.05.05 0 0 0-.03-.04 1.29 1.29 0 0 0-1.15-.21.06.06 0 0 1-.06-.03l-.13-.2-.01-.02v-.01a.04.04 0 0 1 .02-.03l.84-.45a.06.06 0 0 1 .07.02 13.72 13.72 0 0 1 2 3.33l-.03.03-.78.54a.04.04 0 0 1-.05 0v-.01l-.13-.2a.07.07 0 0 1 0-.07c.26-.36.47-.73.35-1.18v-.01l-.02-.01a.03.03 0 0 0-.03 0Zm-.52 2.69h-.02v.02l.22.8v.02h.03l.75-.64a.02.02 0 0 0 0-.03h-.01l-.97-.17ZM36.9 28c0 2.34-.94 4.59-2.6 6.24a8.94 8.94 0 0 1-12.6 0 8.79 8.79 0 0 1 0-12.48 8.94 8.94 0 0 1 12.6 0A8.79 8.79 0 0 1 36.9 28Zm-.37 0c0-2.24-.9-4.4-2.5-5.98a8.57 8.57 0 0 0-12.06 0 8.42 8.42 0 0 0 0 11.96 8.57 8.57 0 0 0 12.06 0 8.42 8.42 0 0 0 2.5-5.98Z" fill="#F0F3FA"/><path d="M36.53 28c0 2.24-.9 4.4-2.5 5.98a8.57 8.57 0 0 1-12.06 0 8.42 8.42 0 0 1 0-11.96 8.57 8.57 0 0 1 12.06 0 8.42 8.42 0 0 1 2.5 5.98Zm-.22 0a8.18 8.18 0 0 0-5.13-7.61 8.37 8.37 0 0 0-9.06 1.78 8.2 8.2 0 0 0 0 11.66 8.35 8.35 0 0 0 13.56-2.68c.42-1 .63-2.07.63-3.15Z" fill="#006351"/><path d="M35.78 20.61c-.03-.02-.25-.29-.13-.33h.03l.03.01c.17.17 1.36 1.43 1.26 1.6h-.01a.04.04 0 0 1-.05 0l-.27-.24a.07.07 0 0 0-.1 0l-.73.63a.16.16 0 0 0-.03.21l.17.23a.05.05 0 0 1 0 .04.05.05 0 0 1-.02.03l-.05.03a.05.05 0 0 1-.06-.01 10.5 10.5 0 0 0-1.3-1.58l.02-.02h.02l.05-.02a.08.08 0 0 1 .07.03l.18.18a.13.13 0 0 0 .18 0l.73-.62a.12.12 0 0 0 0-.17Z" fill="#F0F3FA"/><path d="M37.89 25.05c-.21.1-.49.05-.77-.14-.28-.18-.53-.5-.72-.86a2.58 2.58 0 0 1-.2-.56 1.88 1.88 0 0 1-.05-.54c.01-.16.05-.3.11-.42.07-.12.15-.2.26-.26.2-.1.48-.05.76.14.28.18.54.5.72.86.09.18.16.38.2.56.04.2.06.37.05.54-.01.16-.05.3-.11.42a.57.57 0 0 1-.25.26Zm-.04-1.72a.28.28 0 0 0-.37-.13l-.81.4a.28.28 0 0 0-.13.37l.01.02a.28.28 0 0 0 .38.13l.8-.4a.28.28 0 0 0 .13-.37l-.01-.02ZM18.04 25.13c-.2-.1-.34-.34-.36-.68-.03-.33.06-.72.24-1.1.08-.18.2-.35.32-.5.12-.15.25-.27.39-.37.13-.09.27-.15.4-.18a.58.58 0 0 1 .36.04c.21.1.35.35.37.68.02.33-.06.73-.24 1.1-.09.18-.2.35-.32.5a1.9 1.9 0 0 1-.4.37c-.13.1-.27.16-.4.18a.58.58 0 0 1-.36-.04Zm1.34-1.09a.27.27 0 0 0-.13-.37l-.81-.39a.28.28 0 0 0-.38.13v.02a.28.28 0 0 0 .12.37l.81.39a.28.28 0 0 0 .37-.13l.02-.02Z" fill="#F0F3FA"/><path d="M23.17 23.6c-.41.02-.85-.29-.93-.7-.08-.48.29-.58.7-.58h6.23c1.14 0 2.37.13 3.27.9 1.57 1.32 1.55 3.65-.56 4.43l-.02.02a.04.04 0 0 0 0 .04l.01.01c.81.59 1.3 1.35 1.48 2.3.1.6.05 1.4.2 2.1a.08.08 0 0 0 .04.05c.34.17.54.45.6.82.05.38-1.21.57-1.5.61-.58.08-1.14.08-1.68 0-1.46-.21-2.43-1.65-2.5-3.04-.03-.78-.02-1.52-.13-2.32a.13.13 0 0 0-.13-.1h-.2a.1.1 0 0 0-.07.03.1.1 0 0 0-.03.08c.04.4.02.81.01 1.14a319.43 319.43 0 0 0 .01 2.74.1.1 0 0 0 .06.05.1.1 0 0 0 .04 0c.46-.07.77.08.93.46.2.46.03.8-.5.8h-5.42c-.57 0-1.08-.51-.8-1.09.1-.21.57-.16.77-.19a.2.2 0 0 0 .17-.18v-8.33a.04.04 0 0 0-.03-.04h-.02Zm4.3 3.97c.5 0 1.04-.1 1.17.53.1.5.15 1.03.14 1.55-.02 1.24.14 2.58 1.37 3.17.58.28 1.18.28 1.84.24.22 0 1.91-.14 1.6-.53a.1.1 0 0 0-.08-.03h-.23c-.02 0-.05 0-.07-.02-.45-.38-.28-1.95-.37-2.56-.2-1.3-1-2.23-2.36-2.4a.16.16 0 0 1-.13-.1.06.06 0 0 1 0-.04.05.05 0 0 1 .04-.03 3.73 3.73 0 0 0 1.58-.45c1.36-.73 1.35-2.6.23-3.5a4.3 4.3 0 0 0-2.52-.77c-1.63-.02-3.93-.02-6.9 0-.21 0-.25.05-.24.25a.14.14 0 0 0 .15.13c.49-.02.82.05.83.62l-.01 7c0 .33.03.96-.01 1.44-.05.48-.49.36-.8.41-.17.03-.15.42-.07.52h5.58c.57 0 .52-.49.25-.52-.5-.06-1.02.1-1.03-.61a710.83 710.83 0 0 1 .02-4.29h.03Z" fill="#006351"/><path d="M28.4 23.18c.3.24.46.56.47.95.02.6 0 1.2-.03 1.8-.07 1.03-.33 1.22-1.37 1.19a.04.04 0 0 1-.04-.04V23.1a.04.04 0 0 1 .04-.04c.38 0 .7-.05.93.13Zm-.1.41h-.27l-.03.02-.02.03v3.13a.04.04 0 0 0 0 .03.04.04 0 0 0 .04.01c.26 0 .41-.14.45-.42.08-.55.27-2.37-.09-2.76a.1.1 0 0 0-.07-.04Z" fill="#006351"/><path d="M15.06 26.75c-.5.2-.7.81-.66 1.32 0 .02 0 .02 0 0a7.07 7.07 0 0 0-.22-.82c-.08-.22-.26-.46-.5-.49-1.1-.12-.35 3.72-.23 4.38l.01.02a.05.05 0 0 0 .04.02h.02l.13-.04a.06.06 0 0 0 .04-.07c-.06-.23-.04-.5.2-.54l1.82-.23c.3-.03.34.28.37.5a7.04 7.04 0 0 0 .02.05.05.05 0 0 0 .03 0l.15-.03a.05.05 0 0 0 .04-.06 14.82 14.82 0 0 1-.36-2.53.05.05 0 0 0-.04-.01h-.09a.06.06 0 0 0-.06.06v.13c-.01.16-.01.26-.26.3a21.37 21.37 0 0 1-.89.08l-.01-.02c-.1-.38.21-.44.56-.5.32-.06.67-.12.75-.44l.08-.41a8.8 8.8 0 0 1 .34-2.3.05.05 0 0 0-.03-.02l-.1-.04a.06.06 0 0 0-.08.03l-.22.36a.1.1 0 0 1-.08.04.34.34 0 0 1-.28-.14.1.1 0 0 1-.01-.07 6 6 0 0 1 .32-1.11l.04-.01.35-.02a.06.06 0 0 1 .06.05v.02l-.1.4v.04l.02.03.14.04a.05.05 0 0 0 .06-.03 11.73 11.73 0 0 1 1.39-3.04l-.02-.03-.14-.1h-.01a.04.04 0 0 0-.04.01c-.22.33-.49.38-.8.15a26.64 26.64 0 0 0-1.02-.75l.02-.01 2.7-.32.07-.04.7-.77a.05.05 0 0 0 .02-.04.05.05 0 0 0-.02-.03l-1.6-1.17c-.31-.23-.34-.48-.1-.75a.05.05 0 0 0 0-.07l-.13-.1-.03-.01-.03.01-1.03 1.16a.05.05 0 0 0 0 .06l.12.1a.04.04 0 0 0 .03.01h.02l.01-.02c.29-.6.88-.1 1.22.17a7.87 7.87 0 0 0 .07.09l-1.93.23a.09.09 0 0 0-.07.04l-1.13 1.86a.06.06 0 0 0 .02.07l.12.1a.05.05 0 0 0 .04 0 .05.05 0 0 0 .03-.02c.1-.15.23-.27.4-.34a.1.1 0 0 1 .1.01l.2.15c.47.32 1.34.92 1.37 1.17l-.01.03-.02.03c-.1.06-.21.1-.31.1a553.64 553.64 0 0 0-2.63.32l-.02.03-.32 1a.13.13 0 0 0 .03.14c.64.59 1.27 1.17 1.88 1.76.25.24.3.48.21.8 0 .02 0 .03-.02.03l-.03.01h-.13c-.19-.02-.38-.03-.55.03Zm.16-1.7-.72-.64a.02.02 0 0 1 0-.04h.01l.96-.14m-.25.82Zm0 0h.02-.01Zm.02 0Zm0 0Zm.25-.81v.02l-.23.78h-.01m-1.87 3.84c-.27-.64 1.07-.79.95-.1 0 .02-.01.03-.02.03l-.02.02-.86.08h-.03a.05.05 0 0 1-.02-.03ZM38.26 25.8c-.37 0-.6.03-.71.08-.28.13-.08.4-.25.47h-.03a.03.03 0 0 1-.02-.02L37 25.28a.04.04 0 0 1 0-.03.04.04 0 0 1 .03-.01c.05-.01.09.01.1.07.08.39.32.3.66.25a11.11 11.11 0 0 0 .58-.1l.01-.03.03-.36a.05.05 0 0 1 .05-.04h.02c.17.15.33 1.27.35 1.49.03.21-.52.93-.66 1.13a.02.02 0 0 0 0 .03h.02l.47-.12a.1.1 0 0 0 .06-.04c.07-.12.02-.4.13-.41a.04.04 0 0 1 .03 0l.01.02v.02l.03 1.09v.02l-.02.02a.04.04 0 0 1-.04 0l-.04-.01a.05.05 0 0 1-.04-.05c0-.26-.15-.36-.4-.32a17.57 17.57 0 0 1-.97.1v-.01l-.04-.76c0-.02 0-.05.02-.07l.89-1.34c0-.02 0-.03-.02-.03Z" fill="#F0F3FA"/><path d="M18.32 25.34c.32 0 .5.47.5.71 0 .55-.2 1.5-.71 1.78-.39.2-.83 0-.98-.4a2 2 0 0 1 .1-1.72.13.13 0 0 0 .02-.07l-.02-.36a.04.04 0 0 1 .03-.05h.02l.46.07s.02 0 .03.02l.01.03c.05.37-.67.33-.53 1.07 0 .03.02.05.03.06.26.21 1.13.34 1.3 0 .16-.33.1-.76-.28-.9a.06.06 0 0 1-.03-.03.06.06 0 0 1 0-.04v-.12c0-.02 0-.03.02-.04l.03-.01ZM16.31 34.88c-.5.06-.71-.41-.43-.8a.07.07 0 0 0 .01-.06c-.16-.48-.34-.6-.58-.93a.1.1 0 0 1-.02-.07c.05-.3 0-.6-.18-.86a.05.05 0 0 1 .05-.07c.05 0 .09.02.1.07.1.28.28.5.52.67a.08.08 0 0 1 .04.07c0 .36.08.7.27 1.02a.1.1 0 0 0 .06.04c.12.03.2.02.3.09.24.17.28.39.12.65a.07.07 0 0 0 0 .07c.2.44.45.56.75.86a.09.09 0 0 1 .03.06c0 .3.1.56.3.78a.05.05 0 0 1 0 .06.05.05 0 0 1-.04.03c-.04 0-.08-.01-.1-.06a1.33 1.33 0 0 0-.62-.56.14.14 0 0 1-.08-.1 1.7 1.7 0 0 0-.46-.95h-.04ZM39.57 35.1a1.94 1.94 0 0 0-.43.97l-.03.02c-.28.13-.5.33-.65.6-.03.04-.07.06-.12.04a.04.04 0 0 1-.01-.06l.25-.43a.11.11 0 0 0 .02-.07c-.03-.24.05-.42.22-.54a1.55 1.55 0 0 0 .58-.72v-.04c-.22-.37 0-.7.42-.74a.08.08 0 0 0 .06-.03 1.87 1.87 0 0 0 .28-1.08l.02-.03c.27-.18.45-.42.56-.72l.01-.02a.04.04 0 0 1 .05 0c.01 0 .02 0 .02.02.03.04.03.1 0 .15-.14.24-.19.5-.13.78a.13.13 0 0 1-.05.13 1.76 1.76 0 0 0-.56.9l.01.03c.25.33.14.77-.32.8h-.14a.1.1 0 0 0-.06.04ZM17.73 33.58a.5.5 0 0 0 .49-.5.5.5 0 0 0-.5-.48.5.5 0 0 0-.49.49c0 .27.22.49.5.49ZM38.07 33.57a.5.5 0 0 0 .5-.5.5.5 0 0 0-.5-.48.5.5 0 0 0-.5.49c0 .27.23.49.5.49ZM18.24 34.27c.2 0 .35-.16.35-.34a.34.34 0 0 0-.35-.34.34.34 0 0 0-.34.34c0 .18.15.34.34.34ZM37.55 34.26c.2 0 .35-.15.35-.34a.34.34 0 0 0-.35-.34.34.34 0 0 0-.34.34c0 .19.15.34.34.34ZM21.32 36.83c.16.18.37.48.24.72-.36.67-2.1-1.18-2.35-1.44a.08.08 0 0 1-.02-.06.08.08 0 0 1 .02-.06c.05-.04.24.1.3.14a.06.06 0 0 0 .06-.02l.82-.87a.08.08 0 0 0 0-.1l-.15-.25a.04.04 0 0 1 .03-.06l.03.01c.5.49 1.01.95 1.54 1.4.18.16.38.45.2.68-.2.26-.5 0-.71-.1-.03-.02-.03-.01-.01 0Zm.08-.63a.13.13 0 0 0 0-.19l-.09-.08a.14.14 0 0 0-.2.01l-.2.21a.13.13 0 0 0 .01.2l.09.07a.14.14 0 0 0 .19 0l.2-.22Zm-1.03.75c.37.26.74-.3.4-.54a.06.06 0 0 0-.08 0l-.34.37a.11.11 0 0 0-.01.13c0 .02.02.03.03.04ZM36.18 35.6c.15.17.18.44.09.74-.1.29-.32.59-.6.83-.15.12-.3.22-.46.3-.16.07-.33.12-.48.14a1 1 0 0 1-.42-.03.61.61 0 0 1-.3-.19c-.15-.17-.18-.44-.08-.74.1-.3.3-.6.6-.83.14-.12.3-.22.46-.3.16-.07.32-.12.47-.14a1 1 0 0 1 .42.03c.12.03.23.1.3.18Zm-1.18.37a.25.25 0 0 0-.17-.09.25.25 0 0 0-.19.06l-.01.02a.25.25 0 0 0-.04.35l.6.71a.25.25 0 0 0 .36.03l.01-.01a.25.25 0 0 0 .04-.35l-.6-.72Z" fill="#F0F3FA"/><path d="m27.02 38.34-.1.35a.08.08 0 0 1-.08.06.08.08 0 0 1-.08-.05c-.11-.35-.36-.53-.75-.52a.05.05 0 0 0-.04.04l-.13.44v.03l.03.02c.16.04.28 0 .37-.14a.07.07 0 0 1 .07-.03l.1.02h.02a.05.05 0 0 1 .02.04v.02l-.16.6a.05.05 0 0 1-.04.03h-.02l-.1-.02a.06.06 0 0 1-.04-.06c0-.16-.09-.26-.24-.3h-.02a.05.05 0 0 0-.04.02v.02l-.12.52a.06.06 0 0 0 .03.06l.26.1a.06.06 0 0 1 .04.06c0 .2-1.56-.28-1.75-.34a.07.07 0 0 1-.05-.07c.01-.08.27-.04.3-.03a.12.12 0 0 0 .14-.1l.29-1.13a.08.08 0 0 0-.06-.1l-.25-.08a.1.1 0 0 0-.08 0c-.33.18-.36.9-.73 1.1-.43.24-1.49-.3-1.76-.64-.32-.4.1-.94.3-1.32.15-.31-.24-.24-.18-.44a.04.04 0 0 1 .04-.03h.02c.44.3.9.56 1.38.78.05.02.08.05.05.11l-.02.02h-.03l-.26-.06a.06.06 0 0 0-.07.03c-.22.41-.36.7-.43.86-.16.4.4.61.7.57.21-.03.4-.51.53-.8.1-.2.05-.36-.15-.45a.06.06 0 0 1-.03-.05v-.03a.04.04 0 0 1 .04-.04h.01c1.23.51 2.51.78 3.84.8.53.02 1.12-.04 1.68-.1l.02.01a.05.05 0 0 1 .03.03v.02l-.03.49a.05.05 0 0 1-.07.05c-.1-.03-.1-.11-.15-.16-.2-.2-.45-.28-.76-.2a.06.06 0 0 0-.04.05l-.04.46v.02a.05.05 0 0 0 .03.03h.02c.17 0 .28-.07.33-.22a.08.08 0 0 1 .05-.05c.26-.09.14.54.14.66a.05.05 0 0 1-.05.05h-.08l-.05-.01a.07.07 0 0 1-.02-.04.32.32 0 0 0-.31-.24h-.02l-.01.01a.04.04 0 0 0-.02.03v.53c0 .13.05.17.17.12.1-.04.18-.02.2.05a.05.05 0 0 1-.02.07h-.02c-.2.02-1.76.08-1.79-.08v-.02a.05.05 0 0 1 .02-.03h.02l.23-.05a.15.15 0 0 0 .12-.14l.02-1.15a.06.06 0 0 0-.06-.06l-.26-.03a.05.05 0 0 0-.05.03ZM18.18 38.46c-.2-.08-.55-.5-.72-.68l-.01-.03v-.03a.05.05 0 0 1 .05-.03.3.3 0 0 1 .2.08c.09.08.17.08.25-.01l.7-.8c.02 0 .02-.02.02-.03v-.03c-.05-.09-.24-.28-.16-.36l.01-.01a.04.04 0 0 1 .03 0h.01l1.05 1a.1.1 0 0 1 .03.05l.07 1.02a.04.04 0 0 0 .03.04.04.04 0 0 0 .04-.02l.26-.33a.1.1 0 0 0 .02-.07c-.01-.12-.22-.3-.14-.36.01-.01.02-.02.04-.01l.04.01a14.46 14.46 0 0 0 2.84 1.73.05.05 0 0 1 0 .03l-.27.47a.08.08 0 0 1-.12.01.07.07 0 0 1-.02-.04.76.76 0 0 0-.5-.78.15.15 0 0 0-.19.07l-.14.24a.09.09 0 0 0 .04.12c.14.06.27.03.37-.07a.05.05 0 0 1 .07 0l.08.06.02.03v.04l-.3.51-.03.03h-.04c-.21-.06 0-.36-.29-.49a.06.06 0 0 0-.08.03l-.22.42a.1.1 0 0 0 .02.13c.31.25.63.26.96.02a.07.07 0 0 1 .08 0l.08.05a.05.05 0 0 1 .02.07l-.3.47-.03.02h-.03a12.64 12.64 0 0 1-2.19-1.25v-.03c.05-.08.3.04.37.06h.04l.03-.03.6-1.05v-.04l-.01-.03c-.13-.12-.4-.38-.58-.2a37.8 37.8 0 0 0-.94 1c-.02 0-.03 0-.05-.02l-.41-.34a.1.1 0 0 1-.04-.08l-.11-1.68a.03.03 0 0 0-.02-.02.03.03 0 0 0-.03 0c-.21.24-.81.7-.46 1.02a.07.07 0 0 1 .02.06v.02a.04.04 0 0 1-.04.04h-.02ZM34.63 39.76c.37-.16.7-.1.97.18a.08.08 0 0 0 .09.01c.17-.08.3-.2.42-.34a.07.07 0 0 0 0-.09l-.78-.9a.07.07 0 0 0-.07-.03c-.07.02-.3.18-.34.09v-.03l.02-.03 1.3-.97a.05.05 0 0 1 .06 0c.07.06-.1.22-.13.27a.06.06 0 0 0 0 .08l.18.24a.05.05 0 0 0 .07.01l.02-.01.33-.66a.07.07 0 0 0-.06-.1h-.05l-.17.11a.05.05 0 0 1-.06 0l-.02-.03v-.05l.92-.9c.02-.02.05-.03.08-.02l.02.01v.02a.04.04 0 0 1 0 .03 2.26 2.26 0 0 0-.47 1.02l.02.01 1.18.13.07-.01.21-.09a.07.07 0 0 1 .08.03.07.07 0 0 1 0 .08c-.13.13-1.1 1.14-1.2.99a.05.05 0 0 1 .01-.07c.05-.04.06-.08.05-.13a.06.06 0 0 0-.05-.05l-.73-.1a.03.03 0 0 0-.03 0 .03.03 0 0 0 0 .04l.37.42a.08.08 0 0 0 .07.03l.13-.02a.06.06 0 0 1 .07.08l-.02.03c-.56.44-1.13.85-1.7 1.23a.96.96 0 0 1-.8.16.1.1 0 0 1-.06-.05l-.23-.33a.08.08 0 0 0-.07-.04h-.18a.05.05 0 0 0-.03.03.05.05 0 0 0 0 .05l.23.5a.06.06 0 0 0 .06.03l.23-.03.03.01.02.03v.05l-.02.02a10.85 10.85 0 0 1-1.53.67l-.01-.01V41.27c0-.01 0-.03.02-.04l.03-.01c.18-.04.25-.16.17-.33a21.9 21.9 0 0 0-.48-1 .07.07 0 0 0-.03 0c-.09-.01-.32.09-.36.03a.06.06 0 0 1 0-.07l.03-.02c.5-.2 1-.43 1.5-.67.25-.13 1.16-.54 1.17.02.01.2-.38.44-.56.55-.12.07-.12.08.02.03Zm-.56.13c.38-.06.15-.68-.17-.52a.1.1 0 0 0-.05.05.1.1 0 0 0 0 .08l.16.36.02.02h.04ZM30.83 39.31c-.09-.23-.22-.17-.4-.12a14.64 14.64 0 0 1-.5.11.09.09 0 0 0-.03.07v.03c.12.3.24.08.43.18l.02.02a.04.04 0 0 1-.03.06 4.56 4.56 0 0 1-1.05.15.05.05 0 0 1 0-.09l.29-.18a.12.12 0 0 0 .05-.08l.41-1.38a.12.12 0 0 1 .09-.08l.6-.15a.07.07 0 0 1 .06.02l1.04 1.02c.12.12.27.14.43.05a.13.13 0 0 0 .06-.18l-.52-1.02a.1.1 0 0 0-.12-.05l-.26.08h-.02a.04.04 0 0 1-.03-.04v-.06l.04-.02c.52-.19 1.02-.41 1.5-.67a.13.13 0 0 1 .1-.01c.05 0 .06.03.01.07l-.24.2a.05.05 0 0 0-.01.06c.02.06.36.9.57 1.05a.08.08 0 0 0 .06.01.65.65 0 0 0 .47-.5c.02-.08 0-.2.04-.3a.07.07 0 0 1 .05-.05c.15-.05.28.43.32.53a.1.1 0 0 1-.03.1 11.47 11.47 0 0 1-3.64 1.46.05.05 0 0 1-.02-.03l-.01-.03v-.03l.02-.02.22-.1.03-.04v-.04Zm-.84-.25a.02.02 0 0 0 .02.02h.01l.49-.12a.02.02 0 0 0 .01-.02.02.02 0 0 0 0-.02l-.37-.44h-.04v.01l-.12.57ZM24.53 41.01V41l-.02-.01a.02.02 0 0 0-.02 0l-.52.71-.03.02h-.04l-.64-.2a.06.06 0 0 1-.05-.06c0-.5-.04-1-.07-1.48-.02-.12-.09-.19-.2-.21a.06.06 0 0 1-.05-.06v-.07l.02-.01a.03.03 0 0 1 .03 0c.83.32 1.67.58 2.54.77.35.08.73.12 1.1.18l.04.01a.05.05 0 0 1-.04.09l-.19.02a.14.14 0 0 0-.06.03.66.66 0 0 0-.15.15 80.5 80.5 0 0 0-.82 1.19h-.03l-.7-.15a.06.06 0 0 1-.05-.05l-.05-.86Zm-.16-.71a.24.24 0 0 0-.21-.02.06.06 0 0 0-.04.06l.03.67a.03.03 0 0 0 .02.03.04.04 0 0 0 .04-.01c.14-.17.5-.54.16-.73Zm1.6.37a.4.4 0 0 0-.43-.12.06.06 0 0 0-.04.06l.04.67c0 .06.02.07.05.02l.38-.55.01-.04c0-.02 0-.03-.02-.04Z" fill="#F0F3FA"/><path d="M32.86 40.66a.6.6 0 0 1-.02.35.99.99 0 0 1-.22.35 2.17 2.17 0 0 1-1.93.51 1 1 0 0 1-.38-.2.6.6 0 0 1-.19-.3.6.6 0 0 1 .02-.35.99.99 0 0 1 .22-.35 2.18 2.18 0 0 1 1.93-.51 1 1 0 0 1 .38.2c.1.08.16.18.19.3Zm-1.24-.16a.25.25 0 0 0-.3-.18h-.03a.25.25 0 0 0-.18.3l.25.92a.25.25 0 0 0 .3.17h.02a.25.25 0 0 0 .18-.3l-.24-.91Z" fill="#F0F3FA"/><path d="M28.4 42.08c.03-.25.03-.47-.14-.67-.24-.29-.42-.56-.8-.68l-.02-.02v-.04l.01-.03h.03c.4 0 .9 0 1.52-.04.04 0 .06.01.07.05v.03l-.02.02-.16.1a.04.04 0 0 0-.02.04v.02l.34.39a.05.05 0 0 0 .04.01.05.05 0 0 0 .04-.01c.06-.08.39-.44.24-.53a.1.1 0 0 0-.08 0c-.07 0-.12-.02-.15-.08a.04.04 0 0 1 .01-.04h.02l.88-.15a.04.04 0 0 1 .05.02v.02c0 .05-.02.09-.07.1-.3.09-.58.58-.76.82a.1.1 0 0 0-.02.07l.04.46c0 .02.01.05.04.07.02.03.04.04.07.04l.26.03a.06.06 0 0 1 .05.06.06.06 0 0 1-.05.06 10.55 10.55 0 0 1-1.77.09.04.04 0 0 1-.01-.03c0-.1.24-.1.32-.13a.06.06 0 0 0 .04-.05Z" fill="#F0F3FA"/><path fill="#006351" fill-opacity=".5" d="M24 23h2.62v9.47H24zM32.34 25.17c.08-1.58-1.9-2.08-2.89-2.14v3.65c.93.15 2.8.07 2.89-1.51ZM32.1 30.1c-.18-1.84-1.84-2.15-2.65-2.07.07.2.03 1.82 0 2.61.32 2 2.08 2.12 2.93 1.93-.02-.05-.09-.63-.28-2.47Z"/></svg>