<!-- by TradingView --><svg xmlns="http://www.w3.org/2000/svg" width="56" height="56"><path fill="#F0F3FA" d="M0 0h56v56H0z"/><circle cx="20" cy="20" fill="#0095A8" r="7"/><circle cx="20" cy="36" fill="#FF9E1A" r="7"/><circle cx="36" cy="20" r="7" fill="#FF9E1A"/><circle cx="36" cy="36" fill="#0095A8" r="7"/><path d="M25.9 39.76L17 34.5v-4.83a7 7 0 018.9 10.09zM39 29.68v4.82l-8.9 5.26A7 7 0 0139 29.67zm-8.9-13.44L39 21.5v4.83a7 7 0 01-8.9-10.09zM20 27a7 7 0 005.9-10.76L17 21.5v4.83c.9.43 1.93.67 3 .67z" fill="#E55204"/></svg>