<!-- by TradingView --><svg width="56" height="56" xmlns="http://www.w3.org/2000/svg"><path fill="#F0F3FA" d="M0 0h56v56H0z"/><path d="M8.997 25v6h-.994v-1c-.326.64-1.001 1-1.706 1C5.057 31 4 30.368 4 29.049V25h1v3.703C5 29.77 5.489 30 6.399 30c1.189 0 1.604-.829 1.604-1.86V25h.994zM10 31v-8h1v8h-1zM12 31v-5h-.535v-1H12v-1h1v1h1v1h-1v5h-1zM17.633 25c.176 0 .206.038.367.092v.713c-.154-.076-.183-.115-.367-.115-.316 0-.455.092-.727.277-.271.184-.491.452-.66.805-.162.345-.242.756-.242 1.231V31H15v-6h1.004v1.277c.198-.399.447-.71.748-.932.308-.222.5-.345.881-.345z" fill="#781371"/><path d="M22.996 25v6H22v-1c-.298.522-1.332 1-1.79 1-1.596 0-2.72-1.1-2.72-2.997 0-1.698.993-3.003 2.72-3.003.717 0 1.395.417 1.79 1v-1h.996zm-2.786 5c1.133 0 1.79-.87 1.79-1.997C22 26.941 21.304 26 20.21 26s-1.783 1.036-1.77 2.003c.013.968.637 1.997 1.77 1.997z" fill="#781371"/><path d="M30 25v5.538C30 31.88 29.076 33 27.666 33H25v-1h2.666c1.24 0 1.334-.994 1.334-2-.176.538-1.19 1-1.994 1C25.488 31 24 29.878 24 27.876S25.564 25 27.006 25c.736 0 1.777.372 1.994 1v-1h1zm-2.994 5c1.216-.025 1.972-.85 1.994-2 .022-1.15-.964-2-1.994-2s-2.009.655-2.006 2c.003 1.345.79 2.025 2.006 2zM32.87 25c.47 0 .896.134 1.277.372.381.237.68.563.897.978.216.406.324.863.324 1.369 0 .146-.003.204-.01.281h-4.055c0 .391.054 1.03.375 1.421.321.392.758.579 1.31.579.449 0 .819-.076 1.11-.245.299-.177.538-.418.717-.725l.49.685a2.706 2.706 0 01-.975.943c-.403.223-.881.342-1.434.342-.508 0-.96-.13-1.355-.376a2.538 2.538 0 01-.93-1.024c-.224-.438-.329-1.156-.329-1.708a3.3 3.3 0 01.325-1.485c.224-.437.53-.778.919-1.024A2.51 2.51 0 0132.87 25zm1.608 2.408C34.362 26.55 33.68 26 32.87 26s-1.425.575-1.567 1.408h3.174zM38.728 25c.366 0 .964.088 1.27.241.314.154.56.38.74.679.186.3.262.652.262 1.059V31h-1v-3.348C40 26.586 39.538 26 38.612 26c-1.24 0-1.612.644-1.612 1.888V31h-1v-6h1v1.093c.18-.346.406-.61.697-.794a1.873 1.873 0 011.03-.299zM46 25h1.002l-3.003 8h-.995l.878-2L41 25h1l2.268 4.6L46 25zM49.959 27.56l-.674.703L47.454 25h.999l1.506 2.56z" fill="#709626"/><path d="M50.183 27.922c2.621-3.924 1.656-6.46.907-7.227.821 3.319-.585 5.9-1.39 6.775-3.48 4.395-3.238 6.8-2.471 7.835-.185-2.318-.322-2.478 2.954-7.383z" fill="#709626"/><path d="M49.785 29.174l.578-.612L52 31h-1l-1.215-1.826z" fill="#709626"/></svg>