<!-- by TradingView --><svg xmlns="http://www.w3.org/2000/svg" width="56" height="56" viewBox="0 0 56 56"><path fill="url(#azjouiswg)" d="M0 0h56v56H0z"/><path d="M24.5 30v-1h7v1h-7ZM34 28.76v1.55c1.07.64 2.13 1.29 3.44 1.29 4.03 0 8.56-.3 8.56-.3V31c-2.09 0-6-.02-6 0v-.43l6-.26v-.46h-6v-.48l6-.13v-.35l-6-.27v-.4h6v-.32c-2.85-.2-5.7-.5-8.56-.5-1.21 0-2.4.8-3.44 1.36ZM9 31v-3l3.5.2v2.6L9 31ZM14.5 30.74v-2.41l8 .64v1.16l-8 .6Z" fill="#D51D2D"/><path d="M39 17.5c0-.28.23-.5.5-.5h5a.5.5 0 0 1 0 1H40v9h-1v-9.5Zm0 14.48h1V39h4.5a.5.5 0 0 1 0 1h-5a.5.5 0 0 1-.5-.5v-7.52ZM24 39.5V19.86c.14-.83.81-1.86 2-1.86 1.1 0 1.83.83 2 1.86V28h1v-8.23c0-1.52-1.4-2.77-3-2.77-1.52 0-3 1.34-3 2.73V39.5a.5.5 0 0 0 1 0Zm4-8.5v8.5a.5.5 0 0 0 1 0V31h-1ZM38 17.54c0-.26-.2-.48-.47-.52l-.02-.01-.07-.01c-.28 0-.53.2-.57.49L35.4 27h1.12L38 17.67v-.13ZM35.75 32l-1.17 7.5a.58.58 0 0 1-1.16 0l-3.38-21.67v-.01l-.04-.23c0-.3.27-.59.58-.59.28 0 .53.21.57.5L34 36.25l.65-4.25h1.1ZM19 19.57V28h-1v-8.18c0-1.04-.34-1.78-1.28-1.76H14V39.5a.5.5 0 0 1-1 0V17h3.72c1.35 0 2.28 1.31 2.28 2.57ZM18 31h1v5.62c.05.44.22 1 .6 1.45.31.39.87.76 1.9.85.28.02.5.24.5.52 0 .27-.22.5-.5.48-1.3-.1-2.15-.57-2.68-1.2A3.87 3.87 0 0 1 18 36.7V31Z" fill="#fff"/><defs><linearGradient id="azjouiswg" x1="10.42" y1="9.71" x2="68.15" y2="76.02" gradientUnits="userSpaceOnUse"><stop stop-color="#1A1E21"/><stop offset="1" stop-color="#06060A"/></linearGradient></defs></svg>