<!-- by TradingView --><svg width="56" height="56" viewBox="0 0 56 56" xmlns="http://www.w3.org/2000/svg"><path fill="#F0F3FA" d="M0 0h56v56H0z"/><path d="M13 37c0-.26.04-.52.13-.77.08-.24.2-.46.36-.64.15-.19.34-.34.54-.44.2-.1.42-.15.64-.15h26.58c.22-.01.45.03.66.13.21.09.4.24.57.42.17.19.3.41.38.66a2.34 2.34 0 0 1-.38 2.24c-.16.18-.36.33-.57.42-.21.1-.44.14-.66.13H14.67c-.44 0-.87-.21-1.18-.59A2.21 2.21 0 0 1 13 37Z" fill="#03499A"/><path d="M12.63 33.98h4.6a123 123 0 0 1-4.18-5.53c-.93-1.33-2.26-3.8-.7-5.49a3.01 3.01 0 0 1 2.68-.83 8.74 8.74 0 0 0 1.75 6.93c.83 1.12 2.41 3.14 3.81 4.94h4.6c-1.5-1.94-4.32-5.54-5.5-7.1a5.22 5.22 0 0 1-1.07-4.11 3.95 3.95 0 0 1 2.12-2.7 3.5 3.5 0 0 1 4.46.85c.63.79.8 2.4.8 4.76V34h4v-8.3c0-2.37.16-3.97.78-4.77a3.48 3.48 0 0 1 4.47-.83 4 4 0 0 1 2.13 2.66 5.22 5.22 0 0 1-1.08 4.14c-1.18 1.55-3.99 5.16-5.5 7.1h4.6l3.81-4.93a8.76 8.76 0 0 0 1.75-6.92 3.03 3.03 0 0 1 2.69.84c1.55 1.69.22 4.16-.7 5.48A122.92 122.92 0 0 1 38.76 34h4.62c.87-1.14 1.73-2.3 2.55-3.47 2.6-3.7 2.76-7.44.41-10-1.68-1.82-4.28-2.45-7-1.75a8.35 8.35 0 0 0-2.78-2.08l-.26-.1-.32-.14-.16-.06c-3.18-1.08-6.22.26-7.8 1.2-1.58-.94-4.62-2.28-7.79-1.2l-.19.04-.32.12-.25.11-.49.25a8.3 8.3 0 0 0-2.32 1.85c-2.72-.7-5.31-.08-7 1.75-2.35 2.56-2.2 6.3.4 10a97.82 97.82 0 0 0 2.57 3.46Z" fill="#ED9D19"/></svg>