<!-- by TradingView --><svg width="56" height="56" viewBox="0 0 56 56" xmlns="http://www.w3.org/2000/svg"><path fill="#0079C2" d="M0 0h56v56H0z"/><path d="M32.9 34c-1.62 0-3.27.83-3.9 1.24 2.46 0 3.9 2.76 7.51 2.76s5.06-1.93 5.49-2.34c-3.61 0-7.08-1.66-9.1-1.66ZM48 31.06C46.56 29.8 43.73 28 40.49 28c-2.55 0-4.59.88-6.45 1.68-1.59.69-3.05 1.32-4.6 1.32-1.82 0-3.65-.87-5.33-1.67-1.45-.69-2.8-1.33-3.95-1.33-2 0-4.28 1.16-5.16 1.74 1.68 0 3.71.89 5.77 1.78 2.1.92 4.23 1.85 6.02 1.85 1.75 0 3.24-.58 4.76-1.17 1.54-.6 3.1-1.2 4.96-1.2 2.25 0 4.95 1.13 7.04 2 1.33.55 2.4 1 2.98 1 .73 0 1.2-.08 1.47-.17v-2.77ZM48 22.55a8.22 8.22 0 0 0-2.35-.55c-2.13 0-3.48.75-4.84 1.5-1.36.75-2.72 1.5-4.84 1.5-2.11 0-3.65-.74-5.2-1.48C29.2 22.76 27.63 22 25.4 22c-1.73 0-3.4.94-4.88 1.77-1.17.65-2.2 1.23-3.05 1.23-.84 0-1.76-.39-2.8-.82-1.31-.55-2.8-1.18-4.53-1.18-1.18 0-3.2 1.02-4.49 1.67L5 25c1.78 0 3.18.63 4.58 1.26 1.36.61 2.7 1.22 4.37 1.22 1.64 0 2.8-.58 3.98-1.18 1.26-.64 2.57-1.3 4.53-1.3 2.52 0 4.07.86 5.5 1.66 1.25.7 2.4 1.34 4.04 1.34 1.78 0 3.67-.77 5.55-1.52 1.83-.75 3.64-1.48 5.31-1.48 2.06 0 3.96.84 5.14 1.56v-4.01Z" fill="#F0F3FA"/></svg>