<!-- by TradingView --><svg xmlns="http://www.w3.org/2000/svg" width="56" height="56"><path d="M0 28a28 28 0 1156 0 28 28 0 01-56 0z" fill="#F0F3FA"/><path d="M37.21 35C35 35 34 33.97 34 31.72v-4.13c0-1.18-.21-1.62-.73-2.4-.1-.18-.24-.3-.38-.44-.23-.2-.45-.4-.45-.74 0-.39.37-.75.73-1.1.23-.21.45-.43.56-.64.03-.04.03-.05.03-.12.01-.12.04-.4.24-1.32.16-.7.58-.83 1-.83.52 0 .84.15 1 .94.1.54.14.68.65 1.75.15.3.49.5.8.67.33.2.64.37.64.66 0 .3-.14.4-.38.55-.25.17-.62.4-1.07 1.06-.26.4-.64 1.43-.64 2.4v2.35c0 .64.16 1.93 1.03 2.52l.32.2c.45.3 1.04.67 1.04 1.02.01.6-.4.88-1.18.88zM28 21.07c0 .42.26.68 1.03.68.32 0 .97-.27.97-.68 0-.51-.65-.67-1.17-.67-.57 0-.83.26-.83.67zM9.18 28.48C6.87 28.8 5 29.96 5 32.04c0 1.83 1.52 2.95 3.33 2.96a4.8 4.8 0 001.83-.37c.49-.17.96-.35 1.7-.35.45 0 .94.11 1.36.21.34.08.64.15.86.15.6 0 .91-.36.91-1.02l.01-3.7c0-5.04 0-6.92-4.95-6.92-1.82 0-3.84.66-3.84 1.67 0 .37.24.36.5.36h.1c.52 0 .93-.33 1.38-.68.51-.4 1.06-.84 1.85-.84h.4c1.31 0 2.43 1.12 2.43 2.64 0 1.07-1.31 2.02-3.69 2.33zm3.82 2.3C13 32.6 11.35 34 9.44 34 8.12 34 7 33 7 31.69c0-1.63 2.03-3.05 3.7-3.05 1.36 0 2.3.97 2.3 2.13zm9.76-2.4c-.31 1.08-.93 1.62-1.66 1.62-1.23 0-1.65-1.36-2.32-4.4-.53-2.4-.9-2.6-2.08-2.6-.83 0-1.09.47-.62 1.81l2.9 8.48c.47 1.4 1.2 1.71 2.33 1.71.9 0 1.45-.47 1.77-1.4l2.95-8.54.06-.18c.12-.3.34-.88.3-1.15-.05-.67-.78-.73-.93-.73-.78 0-1.35.4-1.6 1.27l-1.1 4.1zm7.24 4.8c0 1.2-.12 1.81-1 1.81s-1-.31-1-2.7v-7.4c0-1.24.12-1.9 1-1.9 1.02 0 1.01.5 1 2.22v7.97zm14.04-4.7c-2.38.31-4.3 1.37-4.3 3.49 0 1.86 1.55 3 3.42 3.02.85 0 1.37-.19 1.88-.37.5-.18.99-.36 1.75-.36.46 0 .96.11 1.4.21.34.08.65.15.88.15.62 0 .93-.36.93-1.03v-4.42c.02-4.46.02-6.18-5.18-6.18-1.87 0-3.94.6-3.94 1.64 0 .37.24.37.51.36h.1c.53 0 .96-.32 1.42-.66.52-.4 1.1-.82 1.9-.82h.41c1.35 0 2.6 1.04 2.6 2.58 0 1.1-1.35 2.07-3.78 2.39zm4.15 2.33c0 1.86-1.93 3.18-3.9 3.18a2.44 2.44 0 01-2.49-2.38c0-1.66 2.08-2.98 3.79-2.98 1.4 0 2.6 1 2.6 2.18z" fill="#CE0E2D"/></svg>