<!-- by TradingView --><svg width="56" height="56" viewBox="0 0 56 56" xmlns="http://www.w3.org/2000/svg"><path fill="#F0F3FA" d="M0 0h56v56H0z"/><path d="m11 18 3 1.72v3.43l-3 1.71-3-1.71v-3.43L11 18ZM8 23.5l3 1.72v3.43l-3 1.72-3-1.72v-3.43l3-1.71ZM17.5 18l3 1.75v3.5l-3 1.75-3-1.75v-3.5l3-1.75ZM14.5 23.5l3 1.72v3.43l-3 1.72-3-1.72v-3.43l3-1.71Z" fill="#BA3E31"/><path fill-rule="evenodd" d="m11 29.35-2.7 1.58v3.14l2.7 1.58 2.7-1.58v-3.14L11 29.35Zm3 1.4L11 29l-3 1.75v3.5L11 36l3-1.75v-3.5Z" fill="#BA3E31"/><path fill-rule="evenodd" d="M35 23.7c0-.38.28-.7.63-.7h.04c.35 0 .63.32.63.7v4.66l1.97-2.17c.23-.25.6-.25.83 0l.03.03c.23.26.23.66 0 .91l-1.61 1.78 1.78 1.96c.23.25.23.65 0 .9l-.04.04a.55.55 0 0 1-.82 0l-1.78-1.96-.36.4v1.04c0 .4-.28.71-.63.71h-.04c-.35 0-.63-.32-.63-.7v-7.6Zm-17 2.95c0-.36.28-.65.63-.65h.04c.35 0 .63.3.63.65v.47c.24-.48.7-1.12 1.59-1.12.26.02.8.16.8.54 0 .48-.76.6-1.16.61-.35.02-.99.46-1.23.9v3.3c0 .36-.28.65-.63.65h-.04a.64.64 0 0 1-.63-.65v-4.7ZM25 32a3 3 0 1 0 0-6 3 3 0 0 0 0 6Zm0-1.3a1.7 1.7 0 1 0 0-3.4 1.7 1.7 0 0 0 0 3.4Zm8.81.56c.24-.22.2-.58-.05-.79-.25-.2-.63-.16-.91 0a1.7 1.7 0 1 1 0-2.95c.28.17.64.21.9.01.25-.2.3-.58.06-.8a2.84 2.84 0 0 0-1.9-.73C30.3 26 29 27.34 29 29s1.3 3 2.9 3c.74 0 1.4-.28 1.91-.74ZM43 32c.62 0 1.2-.19 1.68-.52.39-.26.3-.8-.08-1.06-.26-.17-.59-.04-.9.09l-.18.07c-.16.06-.34.12-.52.12-.72 0-1.45-.54-1.6-1.2h3.69c.5 0 .95-.56.85-1.06A3 3 0 1 0 43 32Zm1.68-3.64h-3.27c.19-.77.95-1.06 1.59-1.06.64 0 1.43.33 1.68 1.06Zm3.32 2.4V27.3h-.45c-.3 0-.55-.3-.55-.65 0-.36.25-.65.55-.65H48v-1.38c0-.34.29-.62.65-.62.35 0 .65.28.65.62V26h1.15c.3 0 .55.3.55.65 0 .36-.25.65-.55.65H49.3v3c0 .34.23.53.63.53.06 0 .13 0 .2-.02.35-.07.76.08.85.41.06.2 0 .4-.2.5-.26.14-.65.28-1.1.28-1.24 0-1.63-.83-1.68-1.25Z" fill="#2A2826"/></svg>