<!-- by TradingView --><svg width="56" height="56" viewBox="0 0 56 56" xmlns="http://www.w3.org/2000/svg"><path fill="#181B1E" d="M0 0h56v56H0z"/><path d="M28.5 9 12 30h4.23L28.5 10.59l4.67 6.53.33-.83-5-7.29Z" fill="#fff"/><path fill-rule="evenodd" d="M14.39 33H11v7h2v-3h.5l1.5 3h2l-1.58-3.16c.93-.3 1.58-1.02 1.58-1.84 0-1.1-1.17-2-2.61-2ZM14 34h-1v2h1a1 1 0 1 0 0-2Z" fill="#fff"/><path d="M35 34.75V33h-2v7h2v-2.08L36.08 40H38l-2.02-3.88L38 33h-2l-1 1.75ZM40 33h1.9l1.1 2.09L44.1 33H46l-2 4v3h-2v-3l-2-4Z" fill="#fff"/><path fill-rule="evenodd" d="M20.91 33c-1.05 0-1.91.87-1.91 1.95v3.1c0 1.08.86 1.95 1.91 1.95h1.18c1.05 0 1.91-.88 1.91-1.95v-3.1c0-1.08-.86-1.95-1.91-1.95H20.9Zm.44 1c-.2 0-.35.26-.35.57v3.86c0 .31.16.57.35.57h.3c.2 0 .35-.26.35-.57v-3.86c0-.31-.16-.57-.35-.57h-.3Z" fill="#fff"/><path d="M26 34.95c0-1.08.86-1.95 1.91-1.95h1.18c1.05 0 1.91.87 1.91 1.95v.55h-2v-.93c0-.31-.16-.57-.35-.57h-.3c-.2 0-.35.26-.35.57v3.86c0 .31.16.57.35.57h.3c.2 0 .35-.26.35-.57v-.93h2v.55c0 1.08-.86 1.95-1.91 1.95H27.9A1.93 1.93 0 0 1 26 38.05v-3.1Z" fill="#fff"/><path d="M33.3 16 23 30h2.73l7.58-12.95 3.84 5.6.46-.52-4.3-6.13Z" fill="#9C5817"/><path d="M33.43 30H32l5.53-7.99L43 30h-.56l-4.91-7.35-4.1 7.35Z" fill="#fff"/></svg>