<!-- by TradingView --><svg xmlns="http://www.w3.org/2000/svg" width="56" height="56" viewBox="0 0 56 56"><path fill="#F0F3FA" d="M0 0h56v56H0z"/><path d="M13 32V22h4.88C20 22 21 23.63 21 25.18c0 1.29-.84 2.42-2.05 2.93L21 32h-1.63l-1.96-3.64H14.5V32H13Zm4.7-5c1.17 0 1.8-.95 1.8-1.82 0-.87-.58-1.78-1.8-1.78h-3.2V27h3.2ZM31 29.05C30.4 30.8 29.06 32 26.62 32 23.5 32 22 29.76 22 27s1.69-5 4.62-5c2.47 0 3.79 1.22 4.38 3.32l-1.45.32c-.41-1.48-1.3-2.28-2.96-2.28-2.15 0-3.24 1.74-3.24 3.64 0 1.9 1.07 3.64 3.24 3.64 1.44 0 2.47-.63 2.97-1.97l1.44.38ZM33.5 22H32v10h1.5v-6.82L36.58 32h.91l3.01-6.82V32H42V22h-1.5l-3.47 7.73L33.5 22Z"/><path d="M26.99 43.06c10.9 0 19.06-8.42 19.06-18.12 0-3.91-1.22-7.87-3.9-10.94C45.2 16.18 48 21.67 48 26.41 48 36.88 38.62 45 27.66 45c-8.9 0-14.98-4.52-17.66-9 4.14 5.33 11.08 7.06 16.99 7.06Z" fill="#1B69B1"/></svg>