<!-- by TradingView --><svg width="56" height="56" xmlns="http://www.w3.org/2000/svg"><path fill="#A2292C" d="M0 0h56v56H0z"/><path d="M28.785 24.742c-.872-.536-2.094-.742-3.665-.742H22v9.01h3.207c1.091 0 2.051-.082 2.837-.37 2.601-.957 3.456-6.23.741-7.898zm-1.57 6.289c-.393.289-1.004.412-1.79.412H24v-5.959h1.25c.873 0 1.572.124 2.008.454 1.125.85 1.242 4.062-.044 5.093zM32 33.01h2v-4h3v-1.568h-3V26h4v-2h-6v9.01zM40 33l2 .01V24h-2v9zm12-9h-2v5.323L45.454 24H44v9.01h2v-5.567l4.123 5.567H52V24zm-38.531 9.381c-.175-.082-.393-.206-.916-1.03l-1.048-1.609-1.222-1.897-.087-.165c.044 0 .131-.04.175-.04 1.396-.454 2.225-1.65 2.225-3.382 0-.866-.349-1.65-1.047-2.227-.087-.082-.218-.165-.306-.247-.96-.578-2.225-.784-3.883-.784H3.956c-.174 0-.218.124-.13.206.087.083.174.206.174.536v9.485c-.044.37-.13.495-.175.577-.087.083-.043.206.175.206h2v-4h1.578l.742 1.196.916 1.485.437.742c.523.825 1.003 1.36 1.832 1.484.088 0 .524.083.698.083h.175c.35 0 .698-.124.916-.206 0 0 .044-.041.088-.041.305-.165.218-.33.087-.372zM8 27H6v-3h2.014c1.22 0 2.226-.097 2.226 1.423C10.24 25.918 10.182 27 8 27zm8.5 2h3v-1.5h-3V26h4v-2h-6v9.01h6V31h-4v-2z" fill="#fff"/></svg>