<!-- by TradingView --><svg width="56" height="56" viewBox="0 0 56 56" xmlns="http://www.w3.org/2000/svg"><path fill="#F0F3FA" d="M0 0h56v56H0z"/><path d="M25.42 13.4c-.31.22-1.05.83-1.61 1.36l-1.05.95-.74 2.05-.72 2.04-2.75 1.18c-4.93 2.14-5.5 2.4-5.54 2.66-.04.2.13.15 1.04-.26 1.76-.8 6.95-2.96 6.98-2.92.01.03-1.7 4.9-3.83 10.86-3.76 10.55-4.7 13.54-3.36 10.62.83-1.8 6.38-14.46 8.25-18.82a46.01 46.01 0 0 1 1.73-3.75c.25-.2 4.62-1.72 6.27-2.18 1.68-.45 3.22-.6 3.43-.32.42.53-1.28 2.76-5.4 7.08a39.74 39.74 0 0 0-2.84 3.15c.06.21-.28.51-.48.43-.26-.1-.59.2-.43.4.18.24-.17.65-.52.6-.27-.03-.32.02-.28.33.04.4-.27.8-.43.53-.07-.1-.15-.1-.28.02-.14.12-.14.2-.04.34.21.26-.1.68-.34.47-.2-.18-.36.18-.18.37.18.2 0 .6-.24.5-.17-.07-.17-.04-.05.2.2.4.9.52 1.92.3.89-.17 1.24-.06 1.24.37 0 .25-1.35.4-1.94.22-.56-.2-.7-.13-.26.14.18.1.72.18 1.43.16h1.12l1.15 1.71c.62.94 1.11 1.75 1.07 1.78-.1.11-1.42-.37-2.14-.8-.38-.22-.7-.37-.7-.33 0 .2 1.67 1.17 2.43 1.4.65.18.95.35 1.14.63.23.33.23.38.04.38a8.7 8.7 0 0 1-2.3-1.11c-.21-.16-.42-.27-.45-.24a3 3 0 0 0 .77.64c2.17 1.48 5.92 2.48 10.65 2.8 2.03.12 5.82.06 5.82-.1a4528.9 4528.9 0 0 1-5.2-12.6 49.58 49.58 0 0 0-1.2-2.79c-.05-.04-.65.34-1.33.88a58.55 58.55 0 0 1-7.32 4.9c-1.91 1.02-2.25 1.14-2.25.82 0-.26.27-.5.55-.5.13 0 .27-.12.31-.25.13-.46.28-.65.49-.65.2 0 5.25-4.55 8.08-7.3 1.85-1.79 3.71-3.95 4.08-4.73.37-.78.3-1.51-.17-1.87-1.15-.9-5.66.04-12.65 2.66-1.2.46-2.24.83-2.3.83-.06 0-.02-.17.08-.39.33-.66 2.05-4.96 2.05-5.11 0-.24-.17-.18-.8.26Zm3.97 11.4c.51.53.64.87.33.87-.25 0-1.18-1.06-1.09-1.23.15-.23.22-.19.76.36Zm6.98.68c.25.25.39.8.3 1.07-.08.2-1.4 1.05-1.65 1.05-.21 0-.6-.9-.5-1.14.08-.21 1.36-1.2 1.56-1.2.04 0 .18.1.29.22ZM28.5 26.9c-.18.19-.26.15-.74-.36-.48-.5-.53-.6-.37-.8.16-.2.24-.17.75.37.5.53.53.6.36.79Zm-1.4.33c.54.58.55.6.32.83-.23.22-.28.19-.82-.4-.48-.5-.53-.62-.39-.82.24-.29.28-.27.9.39Zm6.62.5c.3.52.2.7-.61 1.14l-.53.27-.3-.35a1.3 1.3 0 0 1-.3-.58c0-.22 1.15-1.05 1.37-.98.07.03.24.25.37.5Zm-7.2 1.25-.26.27-.57-.62c-.57-.6-.57-.62-.33-.9l.25-.28.59.62.6.63-.28.28Zm11.13-.46c.6 1.38 2.2 5.13 2.59 6.08.26.64.27.76.12.91-.16.17-1.03.34-4.27.86-.27.04-.47-.01-.59-.17a75.96 75.96 0 0 1-3.05-6.15c.03-.04.73-.46 1.57-.92a59.6 59.6 0 0 0 2.13-1.25c.34-.22.7-.42.82-.42.13 0 .38.39.68 1.06Zm-12.25.5.55.6-.3.3-.3.3-.58-.62c-.57-.6-.57-.62-.33-.9.13-.15.28-.27.31-.27.06 0 .35.26.65.6Zm5.97-.15c.32.45.25.77-.18 1-.52.28-.73.27-.97-.1-.31-.45-.26-.63.29-.91.62-.35.63-.35.86 0Zm-6.42 1.87c-.25.42-.5.34-1.02-.31-.49-.62-.49-.65-.26-.91.23-.28.23-.27.82.36.5.5.58.66.46.86Zm4.59-.9c.33.48.26.75-.21.92-.38.15-.46.12-.66-.14-.32-.41-.28-.63.14-.87.47-.27.5-.27.73.08Zm-5.69 1.51c-.26.1-.38.04-.7-.28-.34-.35-.36-.44-.22-.73l.17-.31.53.6.53.6-.31.12Zm4.2-.83c.34.4.32.58-.07.78-.28.13-.37.12-.59-.11-.14-.16-.26-.36-.26-.46 0-.15.3-.4.61-.5.02-.01.15.13.3.3Zm4.82 2.95a22.8 22.8 0 0 1 1.4 2.97c-.09.15-2.82.16-3.03.01a54.43 54.43 0 0 1-2.79-4.77l1.04-.4c.53-.2 1.07-.44 1.18-.5.57-.4.7-.24 2.2 2.7Zm-5.94-2.34c.25.4.12.6-.37.6-.32 0-.6-.66-.34-.83.3-.2.47-.16.71.23Zm-4 .12c.1.13.13.25.1.3-.14.15-.5-.08-.5-.3 0-.26.2-.26.4 0Zm3.02.21c.15.32.08.55-.19.55-.23 0-.64-.5-.53-.67.14-.25.57-.17.72.12Zm3.01 2.44c.62 1.04 1.2 2.03 1.29 2.22l.18.35-.9-.11a6.67 6.67 0 0 1-1.03-.17 34.4 34.4 0 0 1-2.54-3.82c.12-.1 1.64-.44 1.76-.4.08.03.63.9 1.24 1.93Zm.53 3.19c.31.41.32.58.05.58-.25 0-1-.8-.9-.97.11-.2.58.01.85.39ZM41.2 37c.15.2.27.6.28.9l.01.52-.65.07c-.95.1-1.1.04-1.38-.55-.35-.72-.34-1.07.04-1.16l.55-.13c.52-.13.9 0 1.15.35Zm-10.85-.08c.18.08.59.73.59.95 0 .22-.58.02-.85-.29-.51-.58-.38-.9.26-.66Zm1.65.46c.45.48.5.84.1.84s-.74-.24-.95-.68c-.34-.69.23-.8.85-.16Zm5.95-.32c.25.1.76 1.25.65 1.45-.1.16-1.2.16-1.5-.02-.22-.12-.52-.8-.52-1.18 0-.28.9-.43 1.37-.25Zm-4.44.16c.23.17.6 1.02.48 1.14-.05.05-.3.08-.53.04-.44-.07-.95-.68-.95-1.12 0-.18.75-.23 1-.06Zm2.38.54c.36.68.3.87-.24.87s-.87-.2-1.12-.7c-.3-.62-.17-.84.5-.79.51.04.59.1.86.62Z"/></svg>