<!-- by TradingView --><svg width="56" height="56" viewBox="0 0 56 56" xmlns="http://www.w3.org/2000/svg"><path fill="#F0F3FA" d="M0 0h56v56H0z"/><path d="M42.68 21.64A14.49 14.49 0 0 0 16 29.5a14.5 14.5 0 0 0 13.28 14.45 16 16 0 1 1 13.4-22.31Z" fill="url(#a0kbf2tyg)"/><path d="M37.84 22.16a9 9 0 0 0-12.69 12.69 9 9 0 1 1 12.69-12.69Z" fill="url(#b0kbf2tyg)"/><path fill-rule="evenodd" d="M33 25v19h3v-9l3.5 9H43l-3.5-9c1.5-1 2.5-2.5 2.5-4.5 0-4-3-5.5-5.5-5.5H33Zm3 3v5h.5c1 0 2.5-.5 2.5-2.5 0-2.5-2-2.5-2.5-2.5H36Z" fill="#881A1B"/><path d="M33 38.7a10.53 10.53 0 0 1-13-10.2A10.5 10.5 0 0 1 30.75 18 10 10 0 1 0 33 37.8v.9Z" fill="url(#c0kbf2tyg)"/><defs><linearGradient id="a0kbf2tyg" x1="12" y1="24" x2="37.5" y2="35.5" gradientUnits="userSpaceOnUse"><stop stop-color="#231F20"/><stop offset=".4" stop-color="#767475"/><stop offset=".75" stop-color="#B9B9B9"/><stop offset="1" stop-color="#B2B2B2"/></linearGradient><linearGradient id="b0kbf2tyg" x1="22" y1="29.75" x2="37" y2="21" gradientUnits="userSpaceOnUse"><stop stop-color="#C1C1C1"/><stop offset=".25" stop-color="#615F60"/><stop offset=".52" stop-color="#353132"/><stop offset=".77" stop-color="#696969"/><stop offset="1" stop-color="#CBCBCB"/></linearGradient><linearGradient id="c0kbf2tyg" x1="23" y1="35.5" x2="36.5" y2="23" gradientUnits="userSpaceOnUse"><stop stop-color="#252324"/><stop offset=".55" stop-color="#858384"/><stop offset="1" stop-color="#C8C8C8"/></linearGradient></defs></svg>