<!-- by TradingView --><svg width="56" height="56" fill="none" xmlns="http://www.w3.org/2000/svg"><path fill="#295CA5" d="M0 0h56v56H0z"/><path fill-rule="evenodd" clip-rule="evenodd" d="M47.079 21.522C43.28 17.624 36.159 15 28 15c-8.228 0-15.401 2.67-19.175 6.622l-.084.008.007.074C6.997 23.569 6 25.716 6 28c0 7.18 9.85 13 22 13s22-5.82 22-13c0-2.332-1.04-4.52-2.859-6.413l.004-.06-.066-.005zm2.285 6.838h-4.7c-.08 2.305-.93 4.46-2.357 6.316 1.25-.074 2.569-.158 3.908-.252l.002.03c1.924-1.813 3.037-3.903 3.147-6.094zm-14.095 6.592c1.366-.04 3.956-.102 6.195-.228 1.556-1.855 2.485-4.041 2.572-6.364H38.5a2.651 2.651 0 00-.22-.607v-.01h5.76c-.058-2.135-.826-4.157-2.14-5.917-2.789-.169-5.01-.26-7.4-.395l.33-.6c2.068.117 4.213.204 6.55.346-2.372-2.77-6.152-4.782-10.614-5.378.6.36 1.167.834 1.69 1.406.193.21.558.614.705.858.236.387.315.718.19.687-.188-.047-1.548-1.34-1.765-1.545-.984-.933-2.084-1.477-3.22-1.573v2.109h-.627v-2.117c-1.431.008-2.357.747-3.335 1.626-.515.054-1.181.558-1.523.875-.04.037-.078.074-.116.113.56-.925 1.69-1.972 2.47-2.44-4.447.595-8.216 2.595-10.589 5.349 1.773-.116 4.185-.226 6.854-.315-.122.216-.241.43-.35.629-2.77.096-5.223.215-7.03.34-1.316 1.75-2.09 3.764-2.158 5.89h5.706c-.135.221-.24.421-.308.617h-5.398c.073 2.258.94 4.389 2.408 6.214 1.715.117 4.308.3 6.13.372.062.22.152.433.27.627-1.707-.064-4.187-.235-5.835-.343 2.385 2.585 6.03 4.453 10.3 5.023-1.206-.723-2.494-2.248-3.346-3.758h.723l.053.087c1.322 2.15 3.265 3.736 5.074 3.846V37h.627v3.368c2-.167 4.285-2.673 5.581-4.781L34 35.5h.723c-.852 1.51-2.823 4-4.123 4.701 4.16-.556 7.894-2.343 10.28-4.827-2.228.121-4.769.176-6.03.206v-.003c.05-.064.1-.132.15-.203l.269-.422zm-21.736-.49c-1.34-1.82-2.131-3.917-2.198-6.154H6.634c.09 2.08 1.082 4.07 2.815 5.82.985.093 2.427.215 4.084.335zm-3.353.352c1.04.092 2.383.2 3.868.303 1.58 1.88 3.766 3.42 6.342 4.452-2.899-.644-5.491-1.645-7.623-2.905a17.324 17.324 0 01-2.587-1.85zm3.606-13.609c1.595-2.025 3.882-3.683 6.604-4.774-2.899.644-5.491 1.645-7.623 2.905a16.84 16.84 0 00-2.97 2.198c1.243-.113 2.51-.224 3.989-.329zm-4.664 1.01l.112-.01a234.35 234.35 0 014.07-.346c-1.201 1.744-1.906 3.726-1.97 5.833h-4.7c.083-1.946.957-3.813 2.488-5.478zm33.11-.987c-1.596-2.035-3.89-3.702-6.622-4.797 2.899.644 5.491 1.645 7.623 2.905 1.101.65 2.072 1.365 2.897 2.129l-3.897-.237zm.475.647c1.204 1.754 1.907 3.75 1.96 5.868h4.701c-.071-2-.978-3.918-2.575-5.62l-3.394-.206-.692-.042zm2.785 13.217c-1.28.087-2.535.165-3.718.232-1.563 1.785-3.683 3.25-6.164 4.245 2.899-.644 5.491-1.645 7.623-2.905.83-.49 1.585-1.016 2.26-1.572z" fill="#fff"/><path fill-rule="evenodd" clip-rule="evenodd" d="M28.718 24.751c.639.168 1.253.552 1.597 1.15l-.867.498c-.18-.311-.536-.563-.984-.68-.446-.118-.92-.085-1.286.098-.42.209-.5.495-.47.666.03.17.21.457.8.562l1.276.207c.845.16 1.42.707 1.515 1.413.094.698-.307 1.375-1.031 1.735-.623.31-1.415.338-2.102.18-.68-.158-1.384-.527-1.742-1.149l.867-.498c.165.287.563.548 1.1.672.53.122 1.07.08 1.431-.1.412-.205.513-.505.486-.706-.026-.192-.194-.465-.704-.564l-1.265-.205c-.87-.153-1.492-.667-1.616-1.375-.124-.707.293-1.377 1.009-1.733.618-.308 1.346-.339 1.986-.17z" fill="#fff"/><path d="M28 20c-.47-.822-1-2-2.038-2.534-.804-.351-1.982-.234-2.613.36-.658.62-1.058 1.537-1.51 2.312-.552.945-1.26 2.261-1.26 2.261l4.651 2.57L28 20z" fill="#38783B"/><path fill-rule="evenodd" clip-rule="evenodd" d="M24.699 17.393c-.445.057-.856.222-1.134.485-.31.291-.649.742-.884 1.14-.117.199-.229.403-.34.608l-.018.033c-.105.193-.21.387-.319.573a71.134 71.134 0 00-1.169 2.093l4.317 2.385L28 20c-.5-1-.959-1.977-2.031-2.446-.366-.16-.826-.216-1.27-.16zm-4.12 5.006l-.168-.088-.087.162 4.984 2.753 3.125-5.233-.05-.089c-.595-1.038-1.074-2.175-2.26-2.693a2.695 2.695 0 00-.962-.211c-.17-.007-.342 0-.51.022-.503.063-.997.253-1.35.584-.348.328-.707.814-.949 1.224a19.91 19.91 0 00-.347.619l-.017.032c-.106.194-.209.383-.314.564a71.288 71.288 0 00-1.143 2.045l-.088.163-.032.058.168.088z" fill="#fff"/><path d="M26.903 36.83V31.22h-5.696c-.352.622-.8 1.425-1.098 2.075a1.952 1.952 0 00-.157.975c.058.755.405 1.728 1.065 2.15a2.683 2.683 0 001.392.411h4.494z" fill="#38783B"/><path fill-rule="evenodd" clip-rule="evenodd" d="M21.095 31H27v6h-4.5c-.407 0-.983-.113-1.495-.441-.72-.461-1.182-1.476-1.243-2.276a2.135 2.135 0 01.174-1.066c.154-.338.346-.909.54-1.214l.133-.208c.15-.234.298-.463.431-.699l.055-.096zm.223.375c-.125.213-.259.422-.39.627l-.13.2c-.191.303-.372.856-.515 1.169a1.767 1.767 0 00-.141.883c.054.712.471 1.607 1.07 1.99.442.282.942.381 1.288.381h4.12v-5.25h-5.302z" fill="#fff"/><path d="M24.708 29.079l-1.725-1.08a793.79 793.79 0 01-2.597 4.317c-.175.286-.382.567-.52.874a2.776 2.776 0 00-.227 1.027c-.59-1.114-1.781-3.37-2.3-4.37-.477-.924-.343-1.446.158-2.238.398-.631.77-1.279 1.15-1.921l-1.569-.925h4.913l2.717 4.316z" fill="#38783B"/><path fill-rule="evenodd" clip-rule="evenodd" d="M16.39 24.575h5.706l2.879 4.675-1.928-.988a768.308 768.308 0 01-2.498 4.15c-.058.096-.116.186-.173.273a4.332 4.332 0 00-.335.58c-.166.37-.212.776-.212.952l.07.908-.429-.821a768.997 768.997 0 01-2.3-4.373c-.249-.48-.35-.879-.308-1.272.04-.389.219-.747.473-1.149.3-.476.585-.96.87-1.448l.182-.309-1.997-1.178zm1.377.375l1.138.672-.094.16-.273.464c-.287.489-.576.98-.88 1.462-.246.39-.386.689-.417.99-.032.296.04.62.268 1.063.445.86 1.389 2.65 2.02 3.842.037-.157.09-.325.163-.489.103-.23.247-.452.38-.658.053-.082.104-.16.15-.236a797.135 797.135 0 002.597-4.315l.1-.167 1.189.743-2.224-3.53h-4.117z" fill="#fff"/><path d="M36.518 23.94l-4.546 2.57 2.821 4.881h2.09c1.5 0 2.67-1.834 1.948-3.494-.194-.448-.501-.862-.749-1.284l-1.564-2.672z" fill="#38783B"/><path fill-rule="evenodd" clip-rule="evenodd" d="M36.588 23.685l1.66 2.834c.079.135.162.267.249.403l.142.225c.133.215.265.44.367.676a2.8 2.8 0 01-.151 2.537c-.416.71-1.14 1.219-1.971 1.219h-2.201l-2.97-5.139 4.875-2.755zm-4.357 2.894l2.673 4.625h1.98c.666 0 1.277-.41 1.641-1.03a2.43 2.43 0 00.131-2.203 4.91 4.91 0 00-.342-.628l-.135-.214c-.088-.14-.18-.282-.262-.423l-1.47-2.51-4.216 2.383z" fill="#fff"/><path d="M30.979 29.49l-2.509 4.522L31 37.5l.014-1.5H33c1.589.041 1.986-.308 2.456-.976l2.577-3.736c-.366.257-.68.36-.94.36-2.039.007-4.076-.012-6.114-.051V29.49z" fill="#38783B"/><path fill-rule="evenodd" clip-rule="evenodd" d="M28.69 34.008l2.098 2.81v-1.193H32.97c.785.02 1.245-.057 1.562-.204.308-.144.501-.363.73-.688l2.039-2.969h-.2l-6.125.004h-.187v-1.544l-2.099 3.784zm2.377-4.883l.102 2.271c1.055 0 3.955 0 5.93-.007.21 0 .48-.247.824-.49l.887-.462-.615.715-2.615 3.787-.003.004c-.24.341-.48.63-.884.817-.397.184-.928.26-1.731.24h-1.793v2.2l-2.917-4.185 2.815-4.89z" fill="#fff"/><path d="M30.102 17.302h-3.867c.585.205 1.428 1.455 1.776 2.055l2.247 3.75-1.829 1.029 5.226-.257 2.352-4.265-1.568.925-1.17-1.902c-.113-.185-.223-.368-.365-.534-.678-.794-1.408-.754-2.803-.802z" fill="#38783B"/><path fill-rule="evenodd" clip-rule="evenodd" d="M26.17 17.364L25.23 17H30.108l.296.01c.551.016 1.013.03 1.408.115.481.104.87.313 1.238.743a4 4 0 01.358.52c.008.012.017.025.024.038l1.072 1.742 2.002-1.068-2.735 4.96-5.623.19 1.848-1.21-2.15-3.703v-.001c-.17-.294-.464-.749-.784-1.153a4.937 4.937 0 00-.483-.536c-.16-.15-.3-.245-.409-.283zm.671.01c.176.165.354.367.52.578.335.421.637.89.815 1.196l2.344 4.028-1.303.733 4.322-.212 1.968-3.57-1.133.668-1.267-2.175-.021-.034c-.108-.175-.205-.333-.328-.477a1.733 1.733 0 00-1.027-.618c-.358-.077-.778-.09-1.333-.107a89.844 89.844 0 01-.3-.01h-3.257z" fill="#fff"/></svg>