<!-- by TradingView --><svg width="56" height="56" viewBox="0 0 56 56" xmlns="http://www.w3.org/2000/svg"><path fill="#F0F3FA" d="M0 0h56v56H0z"/><path d="M8 28H5.54c-.27-.02-.56.2-.54.47V32H4v-3.32a2 2 0 0 1 .07-.55c.04-.15.1-.3.2-.43a1.41 1.41 0 0 1 .6-.54 1.57 1.57 0 0 1 .66-.16H8v1ZM14 28.66c-.01.96-.57 1.37-1.51 1.34H9.96v-1h2.53c.29.01.52-.2.51-.48.02-.26-.24-.52-.51-.52H10.5c-.28-.01-.52.4-.51.67v1.74c-.02.26.24.6.52.59H14v1h-3.49a1.56 1.56 0 0 1-.98-.37 1.56 1.56 0 0 1-.38-.52c-.1-.24-.16-.5-.15-.77v-1.68c.01-.85.61-1.69 1.51-1.66h1.98c.88.02 1.53.79 1.5 1.66Z" fill="#601D72"/><path d="M46 28.66c-.01.96-.57 1.37-1.51 1.34h-2.53v-1h2.53c.29.01.52-.2.51-.48.02-.26-.24-.52-.51-.52H42.5c-.28-.01-.52.4-.51.67v1.74c-.02.26.24.6.52.59H46v1h-3.49a1.56 1.56 0 0 1-.98-.37 1.56 1.56 0 0 1-.38-.52c-.1-.24-.16-.5-.15-.77v-1.68c.01-.85.61-1.69 1.51-1.66h1.98c.88.02 1.53.79 1.5 1.66Z" fill="#E50019"/><path d="M20 30.33c.01.87-.61 1.66-1.52 1.67h-1.96c-.9.01-1.51-.8-1.52-1.67v-1.6c-.03-.87.62-1.71 1.52-1.73h2.51v1h-2.5c-.27-.02-.55.26-.53.51v1.94c-.02.26.25.57.52.55h1.96c.26.02.54-.4.52-.66V25h1v5.33Z" fill="#601D72"/><path d="M29 27c-.11.42-.25.84-.4 1.25a9.64 9.64 0 0 1-1.19 2.2c-.23.3-.5.58-.8.81-.3.23-.63.41-.97.54-.37.14-.75.2-1.13.2a.44.44 0 0 1-.2-.05.52.52 0 0 1-.16-.12.59.59 0 0 1-.11-.2.68.68 0 0 1-.04-.23V27h1v3.75c.25 0 .5-.06.72-.19.23-.13.45-.3.64-.5.2-.21.4-.45.56-.7A7.4 7.4 0 0 0 27.93 27H29ZM31 26h-1v-1h1v1Zm0 6h-1v-5h1v5ZM37 30.31c0 .2-.02.38-.07.56-.04.15-.1.3-.19.43a1.37 1.37 0 0 1-.6.54 1.55 1.55 0 0 1-.66.16h-1.96a1.58 1.58 0 0 1-.99-.38 1.6 1.6 0 0 1-.38-.52c-.1-.25-.16-.52-.15-.79v-1.63c0-.27.04-.53.15-.78.1-.2.22-.38.38-.52.15-.13.31-.23.5-.3.16-.05.32-.08.49-.08h1.96a1.4 1.4 0 0 1 1.18.59c.12.16.2.35.26.54.05.18.08.37.08.55v1.63Zm-1-1.74c.02-.26-.24-.59-.52-.57h-1.95c-.27-.02-.55.31-.53.57v1.9c-.02.26.26.55.53.53h1.95c.27.02.54-.27.52-.53v-1.9ZM40 32h-.48a1.6 1.6 0 0 1-1-.37 1.53 1.53 0 0 1-.37-.52 1.8 1.8 0 0 1-.15-.77V25h1v5.48c-.01.25.26.53.52.52H40v1ZM49.8 31c-.26.02-.83-.19-.8-.47V28h3v-1.01h-3V25h-1v1.99h-1V28h1v2.53c.01.94.79 1.46 1.71 1.47H52v-1h-2.2Z" fill="#E50019"/></svg>