<!-- by TradingView --><svg xmlns="http://www.w3.org/2000/svg" width="56" height="56" viewBox="0 0 56 56"><path fill="#F0F3FA" d="M0 0h56v56H0z"/><path d="M37 20a4 4 0 1 1 8 0 4 4 0 0 1-8 0Z"/><path d="M10 20a4 4 0 1 1 8 0 4 4 0 0 1-8 0ZM19 20a4 4 0 1 1 8 0 4 4 0 0 1-8 0ZM37 29a4 4 0 1 1 8 0 4 4 0 0 1-8 0Z" fill="#D0D2D4"/><path d="M28 20a4 4 0 1 1 8 0 4 4 0 0 1-8 0Z" fill="#B4121B"/><path d="M28 29a4 4 0 1 1 8 0 4 4 0 0 1-8 0Z" fill="#FAAF3F"/><path d="M19 38a4 4 0 1 1 8 0 4 4 0 0 1-8 0Z" fill="#D0D2D4"/><path d="M28 38a4 4 0 1 1 8 0 4 4 0 0 1-8 0Z" fill="#00843F"/></svg>