<!-- by TradingView --><svg xmlns="http://www.w3.org/2000/svg" width="56" height="56"><path fill="#F0F3FA" d="M0 0h56v56H0z"/><path d="M11 31H9v-.17c.5 0 .5-.23.5-1.2v-4.69c0-.23.01-.37-.05-.46-.12-.15-.5-.11-1.7-.11H7.5v5.23c0 1 .08 1.14.9 1.23V31H5.6v-.17c.82-.09.9-.23.9-1.23v-5.23h-.19c-1.25 0-1.72.03-2.17 1.63H4l.3-2H9l1.5-1v3.87c.1-.3.57-.87 1.2-.87.72 0 1.3.56 1.3 1.85v1.81c0 .98 0 1.09.64 1.17V31h-2.22v-.17c.6-.1.6-.2.58-.9v-1.91c0-.9-.13-1.32-.71-1.32-.34 0-.6.14-.79.45v2.47c0 .95 0 1.2.5 1.2V31zm22-1.46V24.48c0-.28 0-.4-.05-.45-.05-.04-.13-.04-.28-.04l-.23.01v-.16L34 23v6.71c0 .78 0 1.03.6 1.11V31h-2.16v-.18c.58-.1.57-.29.56-.93v-.35zm-2 .78c.02.44.28.68.67.68.4 0 .6-.29.82-.6l-.07-.08-.02.02c-.1.1-.19.16-.3.16-.1 0-.1-.07-.1-.4v-2.56c0-1.27-.66-1.54-1.56-1.54-1.22 0-1.8.69-1.8 1.7h.72c-.05-.79.25-1.32.89-1.32s.75.76.75 1.23v.21l-.2.1c-.84.37-2.28 1.02-2.28 1.9 0 .85.7 1.18 1.32 1.18.61 0 .94-.34 1.16-.68zm0-.26c-.2.26-.47.44-.77.44-.48 0-.8-.44-.82-.93-.03-.4.16-.6.48-.84l.1-.06c.17-.1.47-.3 1.01-.5v1.9zm-7.76.94l-2.69-3.4H20v2c0 1.07.29 1.12.96 1.22l.04.01V31h-3v-.17h.04c.67-.11.96-.16.96-1.23v-4.18c0-1.06-.29-1.1-.96-1.22H18V24h2.55c1.38 0 2.45.53 2.45 1.81 0 .73-.24 1.45-1.36 1.7L24.45 31h-1.2zM22 25.79c0-1.09-.49-1.42-1.5-1.42H20v2.87h.5c1.01 0 1.5-.37 1.5-1.45zm5.9 3.64a2.5 2.5 0 01-1.58.57c-.98 0-1.5-.78-1.5-1.74V28h3.08c0-1.19-.81-2-1.8-2-1.41 0-2.1 1.13-2.1 2.54 0 1.18.69 2.46 2.1 2.46 1.12 0 1.7-.93 1.9-1.47l-.1-.1zm-1.94-2.93c.55 0 .92.43.95 1.02h-2c.11-.8.58-1.02 1.05-1.02zM15.8 30c.43 0 1-.1 1.58-.57l.1.1c-.2.54-.78 1.47-1.89 1.47-1.42 0-2.1-1.28-2.1-2.46 0-1.4.68-2.54 2.1-2.54.98 0 1.8.81 1.8 2h-3.1v.26c0 .96.54 1.74 1.51 1.74zm.59-2.48c-.03-.6-.4-1.02-.94-1.02-.48 0-.94.22-1.07 1.02h2zm28.51 1.91a2.5 2.5 0 01-1.58.57c-.98 0-1.5-.78-1.5-1.74V28h3.08c0-1.19-.81-2-1.8-2-1.41 0-2.1 1.13-2.1 2.54 0 1.18.69 2.46 2.1 2.46 1.12 0 1.7-.93 1.9-1.47l-.1-.1zm-1.94-2.93c.55 0 .92.43.95 1.02h-2c.12-.8.58-1.02 1.05-1.02zM50 24.84v5.06c.01.66.02.82-.56.92V31h2.16v-.18c-.6-.08-.6-.3-.6-1.1V23l-1.56.84V24h.23c.15-.01.23-.01.28.03.06.05.06.17.05.45v.36zm-2 5.48c.02.44.28.68.67.68.4 0 .6-.29.82-.6l-.07-.08-.01.02c-.12.1-.2.16-.31.16-.1 0-.1-.07-.1-.4v-2.56c0-1.16-.66-1.54-1.56-1.54-1.22 0-1.8.69-1.8 1.7h.72c-.05-.79.25-1.32.9-1.32.63 0 .74.76.74 1.23v.21l-.2.1c-.84.37-2.28 1.02-2.28 1.9 0 .85.7 1.18 1.32 1.18.61 0 .94-.34 1.16-.68zm0-.26c-.2.26-.47.44-.76.44-.49 0-.8-.44-.83-.93-.02-.4.16-.6.48-.84l.1-.06c.17-.1.47-.3 1.01-.5v1.9zm-7.76.94l-2.69-3.4H37v2c0 1.07.29 1.12.96 1.22l.04.01V31h-3v-.17h.04c.67-.11.96-.16.96-1.23v-4.18c0-1.06-.29-1.1-.96-1.22H35V24h2.55c1.38 0 2.45.53 2.45 1.81 0 .73-.23 1.45-1.35 1.7l2.8 3.49h-1.2zM39 25.79c0-1.09-.49-1.42-1.5-1.42H37v2.87h.5c1.01 0 1.5-.37 1.5-1.45z" fill="#231F20"/></svg>