<!-- by TradingView --><svg xmlns="http://www.w3.org/2000/svg" width="56" height="56" viewBox="0 0 56 56"><path fill="#F0F3FA" d="M0 0h56v56H0z"/><path d="M10 23v12H8V21h8v2h-6Zm9 4v-1.02c0-.98.03-1.75.34-2.06.62-.61 1.24-.92 2.6-.92 1.03 0 1.81.2 2.32.58.52.37.74.83.74 1.58C25 27 23.1 27 21.96 27H19Zm3.44 2c1.5 0 2.59-.32 3.4-1.03.8-.68 1.16-1.62 1.16-2.94 0-1.22-.29-2.04-.96-2.74-1.1-1.14-2.72-1.29-4.22-1.29-1.48 0-2.96.43-3.97 1.58a3.48 3.48 0 0 0-.85 2.48v5.38C17 33.6 18.85 35 21.92 35c1.93 0 3.48-.58 4.68-2.15l-1.33-1.41c-.78 1.11-1.94 1.56-3.3 1.56-1.87 0-2.97-.84-2.97-2.8V29h3.44ZM37 30.02V29h-2.96C32.9 29 31 29 31 30.84c0 .75.22 1.2.74 1.58.51.37 1.3.58 2.32.58 1.36 0 1.98-.31 2.6-.92.31-.3.34-1.08.34-2.06Zm-6.84-2c.81-.7 1.9-1.02 3.4-1.02H37v-1.28c0-1.96-1.1-2.72-2.98-2.72-1.35 0-2.51.48-3.29 1.6l-1.33-1.45c1.2-1.57 2.75-2.15 4.68-2.15 3.07 0 4.92 1.4 4.92 4.56v5.38c0 1.04-.26 1.8-.85 2.48A5.14 5.14 0 0 1 34.18 35c-1.5 0-3.13-.15-4.22-1.3-.67-.69-.96-1.51-.96-2.73 0-1.32.37-2.25 1.16-2.94ZM40 33h6V21h2v14h-8v-2Z" fill="#3D3D3B"/></svg>