<!-- by TradingView --><svg width="56" height="56" viewBox="0 0 56 56" xmlns="http://www.w3.org/2000/svg"><path fill="#F0F3FA" d="M0 0h56v56H0z"/><path d="M43 42h-9l3.18-5.34L43 33v9Z" fill="#035F88"/><path d="M31.38 42H23l5-14 15-7v8.99l-6.97 3.51-4.65 8.5Z" fill="url(#amxs2c1tt)"/><path d="M42.9 21.34 36 33.5l7-3.5-.1-8.66Z" fill="url(#bmxs2c1tt)"/><path d="M43 14H13v28h7l5-17 18-6.73V14Z" fill="url(#cmxs2c1tt)"/><path d="m25 25 18-6.5V14H27c-.54 2.7-1.37 7.58-2 11Z" fill="url(#dmxs2c1tt)"/><defs><linearGradient id="amxs2c1tt" x1="43" y1="24.65" x2="22.99" y2="24.65" gradientUnits="userSpaceOnUse"><stop offset=".22" stop-color="#045F8E"/><stop offset="1" stop-color="#02A9C6"/></linearGradient><linearGradient id="bmxs2c1tt" x1="42.9" y1="23.53" x2="36" y2="23.53" gradientUnits="userSpaceOnUse"><stop offset=".22" stop-color="#045F8E"/><stop offset="1" stop-color="#02A9C6"/></linearGradient><linearGradient id="cmxs2c1tt" x1="28" y1="13.94" x2="28" y2="42.14" gradientUnits="userSpaceOnUse"><stop stop-color="#055B8A"/><stop offset="1" stop-color="#03AACC"/></linearGradient><linearGradient id="dmxs2c1tt" x1="43" y1="15.99" x2="25.2" y2="15.99" gradientUnits="userSpaceOnUse"><stop offset=".22" stop-color="#045F8E"/><stop offset="1" stop-color="#02A9C6"/></linearGradient></defs></svg>