<!-- by TradingView --><svg width="56" height="56" fill="none" xmlns="http://www.w3.org/2000/svg"><path fill="#515153" d="M0 0h56v56H0z"/><path fill-rule="evenodd" clip-rule="evenodd" d="M11 26.3v.7H8v-.7h1.004v-5.59H8V20h3.132c2.003 0 2.56.957 2.56 1.927 0 .804-.436 1.571-1.476 1.761.608.106.747.36.979.913l.53 1.699h.65v.7h-1.46l-.737-2.24c-.327-.67-.484-.76-1.303-.76H10v2.3h1zm-1-3h.875c1.258 0 1.806-.47 1.806-1.276 0-.902-.464-1.324-1.726-1.324H10v2.6zm20.86 2.096C30.633 26.45 29.823 27 28.483 27 26.929 27 26 26.032 26 24.5c0-1.49.993-2.5 2.506-2.5 1.587 0 2.494.888 2.494 2.629h-4c.033 1.053.569 1.747 1.52 1.747.84-.006 1.392-.376 1.521-.98h.819zM30 24c-.13-.958-.817-1.378-1.494-1.378-.678 0-1.431.446-1.506 1.378h3zm-13.019 3c1.34 0 2.15-.551 2.376-1.604h-.818c-.13.604-.682.974-1.522.98-.951 0-1.487-.694-1.52-1.747h4c0-1.74-.907-2.629-2.494-2.629-1.513 0-2.505 1.01-2.505 2.5 0 1.532.928 2.5 2.483 2.5zm.022-4.378c.677 0 1.365.42 1.494 1.378h-3c.075-.932.829-1.378 1.506-1.378zm14.493 3.737H32v-3.718h-.504V22h1.5v.843c.379-.75 1.113-.843 1.55-.843 1.213 0 1.954.566 1.954 1.754v2.605h.5V27h-2v-.641h.5v-2.406c0-.737-.433-1.31-1.156-1.31-.865 0-1.348.577-1.348 1.54v2.176h.46V27h-1.96v-.641zM20 24.459c0 1.555.94 2.541 2.345 2.541.754 0 1.314-.14 1.655-.797v.4c0 1.158-.38 1.742-1.566 1.742-.77 0-1.154-.228-1.271-.834h-.867c.065 1.05.75 1.489 2.181 1.489C24.145 29 25 28.269 25 26.721v-3.94h.61V22H24v1c-.172-.594-.842-1-1.612-1-1.464 0-2.388.89-2.388 2.46zm1 0c0-1.021.546-1.764 1.491-1.759h.005c1.05 0 1.504.746 1.504 1.773s-.422 1.827-1.48 1.827c-.962 0-1.52-.675-1.52-1.84zm20.177.824c-.108.646-.616 1.04-1.366 1.04-.92 0-1.442-.666-1.442-1.832s.52-1.804 1.45-1.812c.728.012 1.23.404 1.331 1.04h.82c-.161-1.152-.892-1.711-2.187-1.719h-.016c-1.462.008-2.408.974-2.408 2.49 0 1.552.957 2.51 2.434 2.51 1.31 0 2.05-.562 2.207-1.718h-.823zM42.01 22H44.2v.672h-.625L45.06 26l1.477-3.328H46V22h2v.672h-.532l-2.353 5.197c-.273.637-.63 1.131-1.615 1.131a3.126 3.126 0 01-.5-.057v-.726c.145.034.263.052.413.056a.863.863 0 00.83-.522l.314-.707-2.008-4.384H42l.009-.66z" fill="#E76C3B"/><path fill-rule="evenodd" clip-rule="evenodd" d="M14.498 33.584C14.343 35.153 13.195 36 11.466 36 9.407 36 8 34.68 8 32.51S9.405 29 11.405 29c1.45 0 2.07.635 2.259.828.01.012.02.022.029.03V29h.736v2.507h-.777c-.07-.515-.473-1.807-2.192-1.807C9.98 29.7 9 30.733 9 32.427c0 1.827 1.024 2.873 2.526 2.873 1.015 0 1.768-.576 2.019-1.717h.953zM33.858 36c1.34 0 2.15-.551 2.377-1.604h-.819c-.13.604-.682.974-1.522.98-.95 0-1.486-.694-1.519-1.747h4c0-1.74-.907-2.629-2.495-2.629-1.512 0-2.505 1.01-2.505 2.5 0 1.532.929 2.5 2.484 2.5zm.023-4.378c.677 0 1.364.42 1.494 1.378h-3c.075-.932.828-1.378 1.505-1.378zm-15.993 4.394c1.34 0 2.15-.552 2.376-1.604h-.818c-.13.604-.682.973-1.523.98-.95 0-1.486-.695-1.519-1.747h4c0-1.741-.907-2.63-2.494-2.63-1.513 0-2.506 1.011-2.506 2.5 0 1.532.93 2.5 2.484 2.5zm.022-4.378c.677 0 1.365.42 1.494 1.378h-3c.075-.932.829-1.378 1.506-1.378zM21 35.359h.5v-3.718H21V31h1.448v.843c.299-.719 1.162-.843 1.662-.843 1.17 0 1.89.566 1.89 1.754v2.605h.5V36h-2v-.641h.5v-2.605c0-.736-.53-1.11-1.228-1.11-.834 0-1.272.576-1.272 1.538v2.177h.5V36h-2v-.641zm18 0V36h-2.13v-.64h.568v-3.721h-.568V31h1.568v.973c.398-.674.781-.973 1.578-.973.47 0 .638.137.697.185.01.009.018.015.022.016v.772c-.032.003-.077-.026-.138-.066a1.132 1.132 0 00-.657-.214c-.813 0-1.5.694-1.5 1.92v1.753l.56-.006zM48 35a1 1 0 10-2 0 1 1 0 002 0zm-2.719-.451c0 .909-.867 1.451-1.98 1.451-.975 0-1.328-.252-1.543-.405l-.056-.04V36H41v-1.6h.7v.052c0 .387.226.877 1.357.877.817 0 1.209-.3 1.209-.706 0-.406-.256-.618-.893-.712l-.831-.154c-1.046-.153-1.377-.782-1.377-1.334 0-.8.65-1.423 1.752-1.423.815 0 1.087.166 1.288.288.039.023.075.045.111.064V31H45v1.348h-.684l-.036-.076c-.11-.237-.29-.621-1.14-.621-.598 0-.974.273-.974.625 0 .353.136.572.57.643.076.016.612.1.856.137l.105.017c1.318.2 1.584.927 1.584 1.476zm-16.085.869c.74 0 .923-.469.964-.935l.84.002c-.01.62-.3 1.53-1.794 1.53-1.179 0-1.831-.58-1.831-1.54V32h-.669v-.688h.669v-.78l1-.516v1.297h2V32h-2v2.474c0 .553.143.944.82.944z" fill="#E19626"/></svg>