<!-- by TradingView --><svg width="56" height="56" viewBox="0 0 56 56" xmlns="http://www.w3.org/2000/svg"><path fill="#F0F3FA" d="M0 0h56v56H0z"/><path d="M26 17h11v21H26V17ZM24 31c0-.63-1.2-.94-1.73-1.18-.26-.12-.6-.25-1.04-.38-1.65-.52-3.89-1.37-3.89-3.43 0-2.23 2.57-3.01 4.4-3.01 2 0 4.26.71 4.26 3h-2.74c0-.91-.91-1-1.76-1-1 0-2 .19-2 1 0 1 1.36 1.4 2.12 1.7.26.1.56.2.88.3 1.72.52 3.5.9 3.5 3 0 2.25-2.33 3-4.22 3-2.2 0-4.78-1.07-4.78-3.62h2.5c0 1.2 1.37 1.62 2.5 1.62.67 0 2-.2 2-1Z" fill="#0A85C7"/><path d="M15 31c0-.63-1.2-.94-1.73-1.18-.26-.12-.6-.25-1.04-.38-1.65-.52-3.89-1.37-3.89-3.43 0-2.23 2.57-3.01 4.4-3.01 2 0 4.26.71 4.26 3h-2.74c0-.91-.91-1-1.76-1-1 0-2 .19-2 1 0 1 1.36 1.4 2.12 1.7.26.1.56.2.88.3 1.72.52 3.5.9 3.5 3 0 2.25-2.33 3-4.22 3C10.58 34 8 32.93 8 30.38h2.5c0 1.2 1.37 1.62 2.5 1.62.67 0 2-.2 2-1ZM45.5 31c-.5.5-.72 1-2.5 1s-4-1-4-3.5 2.22-3.5 4-3.5c1.5 0 2 .5 2.5 1H48a5.48 5.48 0 0 0-5-3c-3.2 0-5.99 2-6 5.5-.01 3.5 2.5 5.5 6 5.5a5.48 5.48 0 0 0 5-3h-2.5Z" fill="#0A85C7"/><path d="M31.2 32c-1.12 0-2.2-.66-2.2-1.75 0-.67.24-1.35.76-1.8.27-.24.6-.47 1-.7.46-.25 1.16-.43 1.16-1 0-.33-.18-.58-.54-.58-.38 0-.65.22-.65.58 0 .45.77 1.17.77 1.17.74 1.37 1.9 3.1 2.5 4.08l-3.59-3.7c-.43-.48-.76-1-.76-1.65 0-.94.7-1.65 1.73-1.65.95 0 1.62.63 1.62 1.5 0 .9-.72 1.58-1.5 2-.27.15-.7.4-.85.54-.3.27-.44.54-.44.88 0 .53.46.91 1 .91.32 0 .61-.16.88-.34.27-.18 0-.57-.27-.78-.13-.3-.39-.98-.32-1.21H34V32c-1.25-1.17-1.06-.72-1.48-.46-.42.26-.8.46-1.32.46Z" fill="#fff"/></svg>