<!-- by TradingView --><svg xmlns="http://www.w3.org/2000/svg" width="56" height="56" viewBox="0 0 56 56"><path fill="#0078C0" d="M0 0h56v56H0z"/><path fill-rule="evenodd" d="M32 26h-2.5v-2.88A9 9 0 0 1 36.95 31H33v3h3.78a9.01 9.01 0 0 1-7.28 6.88v-3.44L28.05 36l-1.55 1.44v3.44a9 9 0 0 1 0-17.76V26H24v3h8v-3Zm-5.5 17.9A12 12 0 0 1 16.17 34H13v-3h3.04A12 12 0 0 1 26.5 20.1v-5.7l-2.17 3.63-2.23-1.3L26.47 9h3.03v11.1A12 12 0 0 1 39.96 31H43v3h-3.17a12 12 0 0 1-10.33 9.9V47h-3v-3.1ZM26 31h-3v3h3v-3Zm.35 0h3v3h-3v-3Zm6.34 0h-3v3h3v-3Z" fill="#fff"/></svg>