<!-- by TradingView --><svg xmlns="http://www.w3.org/2000/svg" width="56" height="56" viewBox="0 0 56 56"><path fill="#222E63" d="M0 0h56v56H0z"/><path fill-rule="evenodd" d="M41.4 14.07a.95.95 0 0 1 .6.89v21.88a.96.96 0 0 1-.4.77l-12.54 9.05a1.82 1.82 0 0 1-2.12 0L14.4 37.6a.96.96 0 0 1-.4-.78V14.96a.95.95 0 0 1 .6-.89.97.97 0 0 1 .37-.07h26.06c.13 0 .26.03.37.07ZM17.6 16h21l-4.68 3.29a.53.53 0 0 1-.27.11.59.59 0 0 1-.33-.12A5.9 5.9 0 0 0 29.97 18c-2.48 0-4.29 1.35-5.92 2.56l-.05.04-6.4-4.6ZM16 36.3V17.2l6.46 4.73-2.88 2.03c-.87.65-1.58 1.71-1.58 2.81 0 1.79 1.22 3.23 3.39 3.23.99 0 2.08-.8 3.14-1.57a52.17 52.17 0 0 0 2.92-2.16c.17-.14.47-.27.67-.27.23 0 .53.13.72.27 3.82 2.72 6.8 4.9 10.61 7.71.3.22.55.64.55 1.13 0 .7-.6 1.24-1.23 1.28a1.6 1.6 0 0 1-.93-.27L32.5 32.2c-.2-.13-.4-.19-.62-.19a.9.9 0 0 0-.57.2.89.89 0 0 0-.2.28.8.8 0 0 0-.1.33.95.95 0 0 0 .43.81h.01l5.03 3.83c.14.1.26.22.35.36.12.2.18.44.18.67a1.2 1.2 0 0 1-.5.94l-.11.08a1.22 1.22 0 0 1-1.44 0l-6.03-4.62a1 1 0 0 0-.58-.16.9.9 0 0 0-.57.2.9.9 0 0 0-.3.61c0 .3.14.6.37.77l5.07 3.81a1.26 1.26 0 0 1 .53.84 1.2 1.2 0 0 1-.48 1.16l-.12.09a1.22 1.22 0 0 1-1.44 0l-1.1-.8-4.84-3.74a.96.96 0 0 0-1.15.04.86.86 0 0 0-.31.61.96.96 0 0 0 .38.77l4.83 3.64c.46.32.67.95.44 1.48a1.36 1.36 0 0 1-1.8.67L16 36.3Zm24-18.93v14.66a222.13 222.13 0 0 0-10.83-7.68c-.32-.21-.68-.35-1.05-.35-.34 0-.7.12-1 .32a58.83 58.83 0 0 0-3.4 2.42l-.81.6a2.9 2.9 0 0 1-1.62.66c-.76 0-1.29-.53-1.29-1.25s.3-.98.78-1.31l3.72-2.75.43-.35C26.2 21.32 27.84 20 29.72 20c1.44 0 2.58.86 3.44 1.7l.03.04c.13.13.26.26.5.26.19 0 .33-.1.48-.2l.13-.1 5.7-4.33Z" fill="#fff"/></svg>