<!-- by TradingView --><svg width="56" height="56" viewBox="0 0 56 56" xmlns="http://www.w3.org/2000/svg"><path fill="#F0F3FA" d="M0 0h56v56H0z"/><circle opacity=".5" cx="33.5" cy="22.5" r="10.5" fill="#76BC25"/><circle opacity=".5" cx="22.5" cy="33.5" r="10.5" fill="#1C9432"/><circle opacity=".5" cx="33.5" cy="33.5" r="10.5" fill="#2AB1B1"/><circle opacity=".5" cx="22.5" cy="22.5" r="10.5" fill="#12509C"/><path d="M22 34.71V33h-1.49c.42.63.93 1.2 1.49 1.71Zm-1.8-2.21H22v-4.17h-3a8.95 8.95 0 0 0 1.2 4.17ZM19 27.76h3V24h-2.07a8.96 8.96 0 0 0-.93 3.76Zm1.2-4.26H22v-2.21a9.04 9.04 0 0 0-1.8 2.21Zm2.3 11.63A8.96 8.96 0 0 0 27.75 37v-4H22.5v2.13ZM28.25 37a8.96 8.96 0 0 0 5.25-1.87V33h-5.25v4ZM34 34.7A9.05 9.05 0 0 0 35.49 33H34v1.71Zm1.8-2.21a8.95 8.95 0 0 0 1.2-4.17h-3v4.17h1.8Zm1.2-4.74a8.96 8.96 0 0 0-.93-3.76H34v3.76h3Zm-1.2-4.26a9.04 9.04 0 0 0-1.8-2.21v2.21h1.8Zm-2.3-2.63A8.96 8.96 0 0 0 28.25 19v4.5h5.25v-2.63ZM27.75 19a8.96 8.96 0 0 0-5.25 1.87v2.63h5.25V19Zm5.75 9.33v4.17h-5.25v-4.17h5.25Zm0-4.33v3.76h-5.25V24h5.25Zm-11 0v3.76h5.25V24H22.5Zm0 4.33v4.17h5.25v-4.17H22.5Z" fill="#EEF1F8"/></svg>