<!-- by TradingView --><svg width="56" height="56" viewBox="0 0 56 56" xmlns="http://www.w3.org/2000/svg"><path fill="#F0F3FA" d="M0 0h56v56H0z"/><path d="m28 11-3.56 17.72c1.15-.42 2.35-.66 3.56-.66 1.2 0 2.41.18 3.56.66L28 11Z" fill="#7EAF00"/><path d="M47 27.52a8.4 8.4 0 0 1-6.57-3.92c-1.4-2.3-1.21-5.9.12-8.02a5.26 5.26 0 0 1-3.44 2.05 4.8 4.8 0 0 1-3.26-.9 13.17 13.17 0 0 0-3.32-1.33l1.03 5a7.95 7.95 0 1 1-7.12 14.23 8 8 0 0 1 0-14.29l1.03-5c-1.15.3-2.3.78-3.32 1.33a4.5 4.5 0 0 1-3.26.9 5.03 5.03 0 0 1-3.44-2.05c1.33 2.11 1.51 5.73.12 8.02A8.3 8.3 0 0 1 9 27.52c1.15.18 5.19 1.44 6.63 4.16a7.92 7.92 0 0 1-.6 8.44 7.93 7.93 0 0 1 11.16.84A7.72 7.72 0 0 1 28 45a7.86 7.86 0 0 1 8.93-6.7c1.5.25 2.9.85 4.04 1.82a7.92 7.92 0 0 1-.6-8.44c1.44-2.72 5.48-3.98 6.63-4.16Z" fill="#009EBD"/></svg>