<!-- by TradingView --><svg width="56" height="56" viewBox="0 0 56 56" xmlns="http://www.w3.org/2000/svg"><path fill="#F0F3FA" d="M0 0h56v56H0z"/><path d="M18.62 36H14v7h9l-4.38-7ZM14 29v-9h4.5c1.54 0 4.5 1 4.5 4.5S20.15 29 18.62 29H14Z" fill="#E96955"/><path d="M44 20v-6.5l-.5-.5H18v.5c6.92 0 11 6.34 11 10.9 0 3.6-2.3 6.6-3.46 7.8L31.88 43H33V31h10v-5.5l-.5-.5H33v-5h11Z" fill="#E96955"/><path d="M18 13.01v.49c3 0 5.47 1.2 7.3 2.92a10.56 10.56 0 0 0-7.3-3.4ZM31.6 42.5l.28.5H33V31h10v-5.5l-.5-.5v5.5h-10v12h-.9ZM33 25h-.5v-5.5h11V13l.5.5V20H33v5ZM14 28.5h4.12c1.53 0 4.38-1 4.38-4.5 0-1.27-.4-2.21-.96-2.9.83.7 1.46 1.78 1.46 3.4 0 3.5-2.85 4.5-4.38 4.5H14v-.5ZM14 42.5v.5h9l-4.38-7h-.2l4.08 6.5H14Z" fill="#8B2021"/></svg>