<!-- by TradingView --><svg width="56" height="56" viewBox="0 0 56 56" xmlns="http://www.w3.org/2000/svg"><path fill="#F0F3FA" d="M0 0h56v56H0z"/><path d="M46.22 23 48 18H34.55l-2.06 5.53c-.01.01-.99-4.2-4.95-5.53H15.07L8 38h7.11l2.1-6h3.13c2.12 0 0 6 0 6h14.13l2.11-6h6.1l1.7-5h-6.13l1.58-4h6.39Zm-25.74 0h3.14s1.59.38 1.59 2.16c0 1.78-1.46 1.84-1.46 1.84h-4.83l1.56-4Zm7.28 13.87s.68-3.71-.08-4.95c1.14-.12 2.2-.9 2.2-.9l-2.12 5.85Z" fill="#921C59"/><path d="M27.44 30.7c-.21.2-.48.3-.81.3-.2 0-.4-.05-.6-.14-.2-.08-.4-.22-.57-.39l.47-.75c.1.14.21.24.33.32a.7.7 0 0 0 .36.12c.06 0 .1 0 .13-.03a.1.1 0 0 0 .05-.08c0-.05-.07-.1-.21-.17a.35.35 0 0 0-.06-.02h-.01c-.23-.1-.39-.22-.5-.36a.79.79 0 0 1-.15-.49c0-.3.1-.54.3-.73.2-.19.47-.28.79-.28.18 0 .36.03.52.09.16.05.3.15.43.27l-.37.7c-.11-.1-.2-.18-.3-.23a.47.47 0 0 0-.24-.08.16.16 0 0 0-.1.04c-.03.02-.04.05-.04.1 0 .06.08.12.24.2a.5.5 0 0 0 .1.05c.2.1.35.2.43.33a.8.8 0 0 1 .13.47c0 .3-.1.55-.32.76ZM18 29.44l.48 1.56h.96l.5-3h-.97l-.25 1.54a3.72 3.72 0 0 0-.16-.58l-.3-.96h-.97l-.48 3h.96l.14-.88v-.03c.05-.3.08-.51.08-.65ZM16.3 31h-.98l.49-3h.96l-.48 3ZM28.09 28h2.07l-.14 1h-.55l-.34 2h-.97l.34-2h-.56l.15-1Z" fill="#F0F3FA"/><path fill-rule="evenodd" d="M22.55 30.02c-.32.72-1.07.98-1.79.98h-.83l.49-3h.71c.83 0 1.57.4 1.57 1.35 0 .24-.06.46-.15.67Zm-1.33-1.06h.02a.5.5 0 0 1 .36.12c.08.08.12.19.12.33 0 .18-.06.34-.18.44a.73.73 0 0 1-.5.16l.18-1.05Z" fill="#F0F3FA"/><path d="M25.1 30.5c.06-.1.11-.2.16-.33.04-.13.08-.3.12-.52l.27-1.65h-.97l-.24 1.5c-.05.25-.09.41-.13.48-.04.06-.1.1-.18.1-.06 0-.11-.02-.15-.07a.28.28 0 0 1-.05-.17v-.1l.05-.3.24-1.44h-.96l-.2 1.28a29.4 29.4 0 0 0-.09.67c0 .33.1.58.3.77.2.19.48.28.84.28.2 0 .4-.04.57-.13.17-.09.31-.21.42-.38ZM31.98 29.83a.8.8 0 0 0 .48-.32.94.94 0 0 0 .17-.59c0-.28-.1-.5-.3-.64-.2-.15-.48-.28-.86-.28h-1.02l-.49 3h.96l.18-1.12.28 1.12h.98l-.38-1.17Zm-.64-1.05c.12 0 .21.02.26.05.06.04.08.1.09.18 0 .11-.03.2-.1.24-.07.05-.17.08-.32.08h-.07l.09-.55h.05ZM32.73 31l.49-3h.96l-.48 3h-.97ZM36.1 31l.13-.85h-.94l.05-.32h.8l.13-.72h-.8l.04-.28h.86l.13-.83h-1.81l-.49 3h1.9ZM38.35 28.09c.16.05.3.15.43.27l-.37.7c-.1-.1-.2-.18-.3-.23a.47.47 0 0 0-.23-.08.16.16 0 0 0-.11.04c-.03.02-.04.05-.04.1 0 .06.08.12.24.2a.5.5 0 0 0 .1.05c.2.1.35.2.43.33a.8.8 0 0 1 .13.47 1 1 0 0 1-.32.76c-.21.2-.49.3-.81.3-.21 0-.41-.05-.61-.14-.2-.08-.39-.22-.57-.39l.48-.75c.1.14.2.24.33.32a.7.7 0 0 0 .36.12c.05 0 .1 0 .13-.03a.1.1 0 0 0 .04-.08c0-.05-.06-.1-.2-.17a1.25 1.25 0 0 1-.57-.38.79.79 0 0 1-.15-.49c0-.3.1-.54.3-.73.2-.19.46-.28.78-.28.2 0 .38.03.53.09Z" fill="#F0F3FA"/></svg>