<!-- by TradingView --><svg xmlns="http://www.w3.org/2000/svg" width="56" height="56" viewBox="0 0 56 56"><path fill="#F0F3FA" d="M0 0h56v56H0z"/><path fill-rule="evenodd" d="M11.92 17.93c-.23.12-1.12.18-1.12-1.27 0-1.77 1.44-2.74 3.25-2.65 1.81.09 3.02.94 3.02 2.43 0 1.47-.78 2.38-1.78 2.74.15.16.4.71.14 1.65-.3 1.18-.37 2.16.47 2.41.85.25.67.74.15.86-.53.12-1.73-.7-1.68-1.66.04-.78.22-1.55.3-1.84.11-.37.16-1.12-.6-1.13h-1c-.1 0-.3.02-.37.2-.28 1.04-1.17 3.23-2.42 3.23-1.17 0-1.36-1.01-1.26-1.6a.86.86 0 0 1 .78-.58c.45-.02.44.58.28.72-.1.04-.28.15-.28.28 0 .15.12.35.48.35.3 0 .71-.64.88-.97l2.53-6.15c-.61-.04-1.89.23-2.05 1.6 0 .14.05.5.32.75.28.25.04.58-.04.63zm2.69-2.95c.54.09 1.63.52 1.6 1.53-.03 1.26-.94 2.22-3.05 2.02l1.45-3.55zm5 4.79c-.06 1.5-1.93 1.77-2.85 1.72.2 1.45 2.36 1.15 3-.74.65-1.89 1.9-2.34 2.54-2.34.53 0 .94.38 1.08.56l.26-.41.63.34-.8 1.9c-.25.52-.65 1.55-.16 1.55s1.04-.97 1.26-1.46l1.87-4.96.75.36-2.08 5.82c-.04.43.34.18.54 0l.38.68c-.86.84-1.53.3-1.76-.1-.84.94-1.66.4-1.97 0-1.5 1.19-2.38.27-2.64-.34-.47.62-1.3.9-1.8.9-.49.01-1.93-.15-1.95-1.84-.01-1.69.94-3.05 2.33-3 1.11.04 1.38.92 1.37 1.36zm-1.43-.6c-.8 0-1.26 1.01-1.29 1.43.92.12 1.88-.16 1.88-.8 0-.63-.56-.63-.6-.63zm2.59 3.2c.44.24 1.18-.25 1.64-1.1.46-.86.48-1.74.03-1.98-.44-.24-1.17.25-1.64 1.1-.46.85-.48 1.74-.03 1.98zm19.2.87c.6.34 1.39.15 2.06-.43.64.9 1.38.47 1.68.11l-.33-.63a.95.95 0 0 1-.41.26c-.25-.02-.19-.33-.13-.49L45 16.1l-.67-.3-1.3 3.37a1.27 1.27 0 0 0-.45-.45c-.7-.4-1.68-.05-2.41.78-.46.23-.97.46-1.3.6-.09-.62-.39-1.11-.88-1.33-.66-.28-1.48.03-2.07.73-.42.22-.87.42-1.19.55-.08-.6-.38-1.1-.87-1.32-.89-.38-2.05.32-2.6 1.57-.54 1.24-.26 2.57.62 2.96.9.39 2.05-.31 2.6-1.56.12-.3.2-.6.25-.88.2-.1.4-.18.57-.24-.4 1.18-.11 2.36.72 2.72.89.39 2.05-.31 2.6-1.56.12-.3.2-.6.24-.88.23-.1.45-.2.64-.26-.44 1.1-.27 2.23.47 2.65zm2.17-1.79c-.48.86-1.25 1.34-1.71 1.08-.47-.26-.45-1.17.03-2.02.48-.86 1.25-1.34 1.71-1.08.47.26.45 1.17-.03 2.02zm-8.4-.06c-.42.85-1.13 1.34-1.58 1.12-.45-.23-.47-1.1-.04-1.94.28-.57.7-.98 1.08-1.12-.07.08-.13.17-.18.27-.24.47-.1 1.03.32 1.24.18.09.38.1.57.04-.04.13-.1.26-.16.4zm.26-1.54l.04.22c0 .04-.02.08-.04.12-.08.15-.22.24-.33.19-.1-.06-.12-.22-.04-.38.08-.15.22-.24.33-.18l.04.03zm2.3 2.7c.45.22 1.15-.27 1.58-1.12.07-.13.12-.26.17-.39-.2.06-.4.05-.58-.04-.41-.21-.56-.77-.32-1.24.05-.1.12-.2.19-.27-.38.14-.8.55-1.09 1.12-.42.84-.4 1.7.05 1.94zm1.88-2.44l-.05-.22a.14.14 0 0 0-.04-.03c-.1-.06-.25.03-.33.18-.07.16-.05.32.05.38.1.05.25-.04.32-.19a.45.45 0 0 0 .05-.12zm-5.84 4.4v1.27a.11.11 0 1 1-.23 0v-1.26a.11.11 0 1 1 .23 0zm-.63 0a.51.51 0 0 1 1.03 0v1.27a.51.51 0 0 1-1.03 0v-1.26zm1.98 1.27v-1.26a.11.11 0 0 0-.23 0v1.26a.11.11 0 1 0 .23 0zM33.58 24a.51.51 0 0 0-.52.52v1.26a.51.51 0 1 0 1.03 0v-1.26a.51.51 0 0 0-.51-.52zm6.3.52v1.26a.11.11 0 1 1-.22 0v-1.26a.11.11 0 0 1 .23 0zm-.62 0a.51.51 0 0 1 1.03 0v1.26a.51.51 0 1 1-1.03 0v-1.26zm-4.24-.12h-.2v1.5h.2a.1.1 0 0 0 .1-.1v-1.3a.1.1 0 0 0-.1-.1zm-.6-.4v2.3h.6a.5.5 0 0 0 .5-.5v-1.3a.5.5 0 0 0-.5-.5h-.6zm-3.03 0h-.93v2.3h.4v-.67h.36v-.41h-.36v-.8h.53V24zm4.65.06a.6.6 0 0 1 .3-.06c.2 0 .34.12.42.25.06.13.08.26.07.35l-.4-.03c0-.03 0-.09-.02-.12a.08.08 0 0 0-.03-.03l-.06-.02a.2.2 0 0 0-.1.02.05.05 0 0 0-.02.02.37.37 0 0 0-.03.15l.04.1.12.14.3.23h.02c.1.09.26.3.28.59a.62.62 0 0 1-.15.47.57.57 0 0 1-.43.17.55.55 0 0 1-.42-.19.72.72 0 0 1-.16-.48h.4c0 .12.04.18.07.22.02.03.06.05.11.05.08 0 .12-.02.14-.04.02-.03.04-.07.04-.18-.01-.15-.1-.26-.14-.3a19 19 0 0 1-.3-.23.94.94 0 0 1-.21-.23.6.6 0 0 1-.1-.33c0-.07 0-.22.07-.34.04-.07.1-.14.2-.18zm2.47 1.7v-.18h.4v.18a.53.53 0 1 1-1.06 0v-1.23a.53.53 0 0 1 1.06 0v.16h-.4v-.16a.13.13 0 1 0-.26 0v1.23a.13.13 0 0 0 .26 0zm2.4.32a.21.21 0 1 1-.42 0 .21.21 0 0 1 .42 0zm-8.5 6.8c.22-.1.47-.16.72-.16h3.56A1.7 1.7 0 0 1 38 35.5a1.7 1.7 0 0 1 .5 2.93 1.69 1.69 0 0 1-.68 2.87 1.64 1.64 0 0 1-1.25 2.7l-2.54.01h-6.54a7.7 7.7 0 0 1-3.01-1H23v1h-4V33h4v1h1.01c.47-1.03 1.28-1.66 1.94-2.18l.15-.11a1.7 1.7 0 0 0 .66-1.29v-1.84a3.63 3.63 0 0 1-2.45 1.08c-.9.01-2.64-.6-2.64-2.37 0-1.81 1.5-2.58 2.96-2.6a7.87 7.87 0 0 1 3.1.78l.93-2.07c-.58.24-2.57.6-2.53-1.72.04-2.31 1.64-3.2 2.69-3.26.84-.04 1.33.5 1.47.78l.15-.45c.16-.35.46-.33.59-.27.3.13.3.43.25.57l-2.75 6.78c.9.73 5.36 2.76 10.04 2.54 4.68-.21 5.12-1.8 5.15-2.16.04-.36-.2-.54-.44-.57-.18-.02-.3.12-.33.19-.02.1-.13.31-.44.31-.3 0-.44-.2-.47-.31-.05-.34.2-1.02 1.24-1.02 1.05 0 1.36.92 1.36 1.4 0 1.18-1.39 2.95-6.26 3.05-3.89.08-7-.98-8.08-1.53v4.62c.35.62 1.44.63 2.11.53zm-.84.88a2.8 2.8 0 0 1-1.27-.27 3.83 3.83 0 0 1-.6 2.2c-.1.13-.43.32-.69.07-.2-.2-.09-.46 0-.57.36-.42.45-1.02.45-1.26v-5.91c-.02-.3-.23-.9-.93-.89a.84.84 0 0 0-.89.81v2.48c0 1.12-.88 1.95-1.31 2.22a3.8 3.8 0 0 0-1.8 3.2c-.03.1-.14.32-.36.34-.29.02-.49-.1-.47-.34 0-.19.06-.57.1-.8V35H23v7h.74c.07-.2.32-.55.79-.21l.17.13A4.6 4.6 0 0 0 27.6 43c0 .05 2.94.03 4.88 0a1.64 1.64 0 0 1 .23-1.67 1.7 1.7 0 0 1-.73-3 1.69 1.69 0 0 1 .12-2.58 1.69 1.69 0 0 1-.53-1.99zm1.53 5.02h-.08a.88.88 0 1 0 0 1.76h4.31a.88.88 0 0 0 .02-1.76H33.1zm-.85-4.37c0-.48.4-.88.88-.88h3.57a.88.88 0 1 1 0 1.76h-3.57a.88.88 0 0 1-.88-.88zm.88 1.8a.88.88 0 1 0 0 1.76h4.3a.88.88 0 1 0 0-1.76h-4.3zm.86 5.24a.85.85 0 0 0 0 1.7h2.57a.85.85 0 0 0 0-1.7H34zm-6.63-18.74c.54.3 1.4-.21 1.92-1.15.52-.93.5-1.93-.05-2.24-.55-.3-1.4.21-1.92 1.15-.52.93-.5 1.93.05 2.24zm-2.7 2.88c1.1 0 2.25.5 2.68.76-.8 1.62-2.04 2.48-3.04 2.45-1-.03-1.78-.63-1.75-1.53.03-.9.72-1.68 2.1-1.68z"/></svg>