<!-- by TradingView --><svg width="56" height="56" xmlns="http://www.w3.org/2000/svg"><path fill="#F6B541" d="M0 0h56v56H0z"/><path d="M12 43.966c.174.095 2.597-.042 3.045-.015.237-.43 6.105-15.827 6.282-16.286 1.05-2.715 2.077-5.44 3.135-8.15.832-2.134 1.82-3.679 3.818-4.8 2.723-1.53 6.058-1.572 8.937-.195 2.707 1.293 4.523 3.678 5.26 5.746.691 1.94 1.08 4.466-.002 7.269-.566 1.468-1.389 2.635-2.421 3.7-.645.664-1.44 1.259-2.21 1.724-.252.15-.558.288-.782.435.024.176.143.465.258.626.905-.331 2.59-1.578 3.323-2.286 2.366-2.283 3.382-5.043 3.356-8.261-.005-.638-.054-1.401-.16-1.97-.243-1.305-.55-2.47-1.222-3.659-1.137-2.016-2.684-3.582-4.875-4.68-3.1-1.55-5.79-1.267-8.165-.771-2.03.424-4.921 1.697-6.73 4.42-.792 1.19-1.422 3.174-1.96 4.53-2.981 7.53-5.863 15.105-8.886 22.62l-.001.003z" fill="#fff"/><path d="M25.607 43.994c.275-.547.538-1.349.775-1.94 1.794-4.488 3.548-9.005 5.343-13.492.26-.652.515-1.289.77-1.944.236-.604.493-1.353.76-1.928.633-1.361 1.895-2.326 3.228-1.587 1.843 1.022 1.749 4.04.473 5.748-.257.343-.946 1.007-1.496 1.174l.27.67c.675-.231 1.56-.925 1.87-1.354.483-.67.813-1.193 1.037-2.227a6.998 6.998 0 00-.041-2.987c-.233-.969-.626-1.565-1.147-2.086-.998-.999-3.4-1.455-4.885-.576-1.425.843-1.786 2.174-2.505 3.983-1.231 3.1-2.508 6.169-3.747 9.276a436.193 436.193 0 01-1.874 4.637c-.206.498-1.839 4.471-1.856 4.638l3.022-.006.003.001z" fill="#fff"/><path d="M33.348 29.248L27.471 44h11.755l-5.878-14.752z" fill="#fff"/><path d="M20.427 43.998c2.241-5.765 4.574-11.565 6.857-17.325.747-1.885 1.479-3.937 2.293-5.773 1.962-4.421 7.678-3.123 9.897.418 2.45 3.91.615 8.706-3.265 10.627l.27.664a8.4 8.4 0 003.758-11.944c-1.138-1.94-3.027-3.327-5.171-3.791-2.298-.498-5.116-.045-6.83 1.734-1.414 1.47-2.253 4.097-3.027 6.016-.868 2.152-1.738 4.303-2.607 6.454-1.728 4.278-3.58 8.614-5.21 12.921h3.034z" fill="#fff"/></svg>