<!-- by TradingView --><svg width="56" height="56" fill="none" xmlns="http://www.w3.org/2000/svg"><path fill="#F0F3FA" d="M0 0h56v56H0z"/><path fill-rule="evenodd" clip-rule="evenodd" d="M7 24H4.103a.1.1 0 00-.1.1L4 31.9a.1.1 0 00.1.1h.3a.1.1 0 00.1-.1V29h2.531c.01 0-.01 0 0 0l1.656 2.949a.1.1 0 00.087.051h.344a.1.1 0 00.087-.149l-1.637-2.916A2.5 2.5 0 007 24zm0 4.5H4.5v-4H7a2 2 0 110 4zM15.5 27.6a.1.1 0 00-.1-.1h-4.3a.1.1 0 00-.1.1v.3a.1.1 0 00.1.1h4.3a.1.1 0 00.1-.1v-.3z" fill="#292F7D"/><path d="M24.24 25.217a.098.098 0 00-.006-.137A4 4 0 1021.5 32c1.154 0 2.193-.305 2.923-1.074a.285.285 0 00.077-.197V28.6a.1.1 0 00-.1-.1h-2.3a.1.1 0 00-.1.1v.3a.1.1 0 00.1.1H24v1.62c-.635.594-1.52.88-2.5.88a3.5 3.5 0 112.396-6.052c.042.04.108.038.147-.006l.197-.225z" fill="#292F7D"/><path d="M26.5 24.1a.1.1 0 00-.1-.1h-.3a.1.1 0 00-.1.1V29a3 3 0 106 0v-4.9a.1.1 0 00-.1-.1h-.3a.1.1 0 00-.1.1V29a2.5 2.5 0 01-5 0v-4.9z" fill="#815473"/><path d="M40 24.1a.1.1 0 00-.1-.1h-.3a.1.1 0 00-.1.1V29a3 3 0 106 0v-4.9a.1.1 0 00-.1-.1h-.3a.1.1 0 00-.1.1V29a2.5 2.5 0 01-5 0v-4.9z" fill="#7E5372"/><path d="M34.5 24.1a.1.1 0 00-.1-.1h-.3a.1.1 0 00-.1.1v7.8a.1.1 0 00.1.1h4.8a.1.1 0 00.1-.1v-.3a.1.1 0 00-.1-.1h-4.4v-7.4z" fill="#282E84"/><path fill-rule="evenodd" clip-rule="evenodd" d="M49.358 24c.845 0 1.583.227 2.203.636a.097.097 0 01.023.14l-.186.242a.105.105 0 01-.14.022c-.53-.347-1.162-.543-1.9-.543-1.005 0-1.98.722-1.775 1.818.122.645.75 1.058 1.906 1.424l.005.002c.545.186 1.097.362 1.586.67.811.511 1.114 1.319.796 2.219-.34.966-1.519 1.37-2.47 1.37-.953 0-1.774-.48-2.363-.883a.098.098 0 01-.022-.142l.185-.241a.103.103 0 01.14-.022c.575.394 1.28.791 2.06.791.725 0 1.71-.28 1.976-1.032.242-.687.03-1.255-.59-1.645-.452-.286-.967-.445-1.47-.616-1.189-.378-2.07-.877-2.246-1.808C46.812 25 48.038 24 49.358 24z" fill="#7E5372"/><path d="M48 21.25a1.75 1.75 0 11-3.5 0 1.75 1.75 0 013.5 0z" fill="#292F7D"/><circle cx="42.1" cy="18.5" r="1.5" fill="#815473"/><path d="M39 17.25a1.25 1.25 0 11-2.5 0 1.25 1.25 0 012.5 0zM34.4 18.5a1 1 0 11-2 0 1 1 0 012 0zM30.5 21.25a.75.75 0 11-1.5 0 .75.75 0 011.5 0z" fill="#815473"/><path d="M28 34.75a1.75 1.75 0 113.5 0 1.75 1.75 0 01-3.5 0z" fill="#292F7D"/><circle cx="33.85" cy="37.5" r="1.5" transform="rotate(-180 33.85 37.5)" fill="#815473"/><path d="M37 38.75a1.25 1.25 0 112.5 0 1.25 1.25 0 01-2.5 0zM41.5 37.5a1 1 0 112 0 1 1 0 01-2 0zM45.5 34.75a.75.75 0 111.5 0 .75.75 0 01-1.5 0z" fill="#815473"/></svg>