<!-- by TradingView --><svg width="56" height="56" viewBox="0 0 56 56" xmlns="http://www.w3.org/2000/svg"><path fill="#F0F3FA" d="M0 0h56v56H0z"/><path d="M14.62 27.5c1.46 0 2.38-.5 2.38-1.98s-.92-2.02-2.32-2.02H12v4h2.62ZM9 23.5H8V21h7.03c2.88 0 4.97 1.7 4.97 4.52 0 2.7-2.02 3.82-2.7 3.95.35.17.61.47.78.8l1.53 2.4c.25.43.61.83 1.1.83H21V36h-1.52c-1.17 0-1.69-.16-2.2-1.12-.66-1.23-1.73-4.88-3.5-4.88H12v6H9V23.5ZM42.5 28.5c1.62 0 2.5-.94 2.5-2.5 0-1.54-.93-2.5-2.5-2.5H40v5h2.5Zm-5.5-5h-1V21h7.08c2.9 0 4.92 2.08 4.92 5s-2.1 5-5 5h-3v5h-3V23.5ZM33.59 28H30v2.55h1.54c.22-.02.46.1.46.45v1a4.85 4.85 0 0 1-3.5 1.5c-2.67 0-4.5-1.83-4.5-5 0-2.94 1.92-5 4.5-5 1.38.01 2.98.46 4.07 1.29l1.46-1.96S32.24 21 28.59 21c-4.13-.06-7.53 3.48-7.59 7.5 0 4.68 3.6 7.5 7.5 7.5 1.56.02 2.3-.5 3.5-1.46V36h3v-6.74c.02-.96-.4-1.26-1.41-1.26Z" fill="#C8102E"/></svg>