<!-- by TradingView --><svg width="56" height="56" viewBox="0 0 56 56" xmlns="http://www.w3.org/2000/svg"><path fill="#F0F3FA" d="M0 0h56v56H0z"/><path fill-rule="evenodd" d="M13 23v-3h3v1.82c0 .65-.52 1.18-1.16 1.18H13Zm-8 5.06V33h1.73C7.32 33 8 32.5 8 31.9v-3.88c0-.76.37-.95.66-1.02h2.27c.6 0 1.07-.65 1.07-1.26V24H8.86c-.59 0-.86.5-.86 1.1v.75c0 .6-.68 1.15-1.27 1.15h-.66c-.6 0-1.07.45-1.07 1.06ZM13 33v-9h3v7.9c0 .6-.52 1.1-1.16 1.1H13Zm34-9v9h1.84c.64 0 1.16-.5 1.16-1.1V24h-3Zm0-4v3h1.84c.64 0 1.16-.53 1.16-1.18V20h-3ZM22 33h-3.19c-1 0-1.81-.83-1.81-1.8v-5.44c0-.97.81-1.76 1.81-1.76H25v9.89c0 1.16-.97 2.11-2.18 2.11H17v-.76c0-.46.38-.74.85-.74h3.44c.46 0 .71-.45.71-.9V33Zm0-2v-5h-1.23c-.43 0-.77.38-.77.86v3.28c0 .48.34.86.77.86H22Zm11.45 1v1h-5.37A2.03 2.03 0 0 1 26 31.03v-5.06c0-1.09.93-1.97 2.08-1.97h3.84c1.15 0 2.08.88 2.08 1.97V30h-5.18v.27c0 .62.53 1.23 1.17 1.23h2.8c.37 0 .66.16.66.5ZM31 26v3h-2v-1.8c0-.66.39-1.2.86-1.2H31Zm7 0v4.47c0 .57.4 1.03.97 1.03h.52a.5.5 0 0 1 .51.5v1h-2.95A2.05 2.05 0 0 1 35 30.96v-8.94c0-.56.46-1.02 1.03-1.02H38v3h.97c.32 0 .58.3.58.69V26H38Zm6 4.47V26h1.5v-1.31c0-.38-.26-.69-.58-.69H44v-3h-1.97c-.57 0-1.03.46-1.03 1.02v8.94c0 1.13.92 2.04 2.05 2.04H46v-1a.51.51 0 0 0-.51-.5h-.52c-.56 0-.97-.46-.97-1.03Z" fill="#00B5AD"/></svg>