<!-- by TradingView --><svg xmlns="http://www.w3.org/2000/svg" width="56" height="56"><path fill="#F0F3FA" d="M0 0h56v56H0z"/><path fill="#012267" d="M16 27h3v9h-3zm29-6h3v15h-3zm-34 7.75c.18-.63 1.04-1.86 3-1.74v3.38c-.85-.5-2.63-.8-3 1.95V36H8v-9h3v1.75z"/><path fill-rule="evenodd" d="M28 35.76A3.85 3.85 0 0125.22 37C22.89 37 21 34.76 21 32s1.89-5 4.22-5c1.06 0 2.04.47 2.78 1.24V27h3v9.2c-.16 1.7-.51 4.74-4.97 4.8-3.57.04-4.71-1.77-4.87-3h3.37c-.03.33.5.98 1.68 1 1.4.02 1.75-1.88 1.79-2.52v-.72zM28 32a2 2 0 11-4 0 2 2 0 014 0z" fill="#012267"/><path d="M42.72 33A5 5 0 0138 36c-2.76 0-5-2.01-5-4.5s2.24-4.5 5-4.5 5 2.01 5 4.5c0 .17-.01.34-.03.5H36c-.02.68.35 2.04 2.03 2 .34.01 1.59-.2 1.94-1h2.75zM38 29c-1.4.04-1.92.96-2.01 1.4h4c-.08-.48-.6-1.44-2-1.4z" fill="#012267"/><path d="M8 23h3c3.9-6.7 11.17-11 19.5-11 6.85 0 12.99 2.85 17.12 7.66l.38-.3A23.51 23.51 0 0029.11 10C19.77 10 11.71 15.32 8 23z" fill="#EB8E00"/></svg>