<!-- by TradingView --><svg xmlns="http://www.w3.org/2000/svg" width="56" height="56" viewBox="0 0 56 56"><path fill="#233064" d="M0 0h56v56H0z"/><path fill-rule="evenodd" d="M14 23h-1v10h1V23zm-9 2h3.56c.8 0 1.44.7 1.44 1.58A1.6 1.6 0 0 1 9.2 28c.47.26.8.8.8 1.42C10 30.3 9.36 31 8.56 31H5v-6zm2 1.33h.47c.3 0 .53.25.53.57 0 .31-.24.57-.53.57H7v-1.14zm0 2.3h.47c.3 0 .53.26.53.57 0 .32-.24.57-.53.57H7v-1.14zm41-1.16L47 25h-2l2 3.8V31h2v-2.2l2-3.8h-2l-1 2.47zM18 25h3.66c.81 0 1.47.7 1.47 1.58 0 .67-.4 1.24-.94 1.47.5.33.84.93.84 1.6v.65c0 .38.2.62.3.7h-2.07l-.3-1.65a.5.5 0 0 0-.25-.34.44.44 0 0 0-.49.04l-.22.17V31h-2v-6zm2 1.46h.47c.3 0 .53.25.53.57 0 .31-.24.57-.53.57H20v-1.14zM26 25h2v6h-2v-6zm5 0h2v4h2v2h-4v-6zm8 0h-1v6h4v-1.5h-2v-.75h1.5v-1.5H40v-.75h2V25h-3z" fill="#fff"/></svg>