<!-- by TradingView --><svg xmlns="http://www.w3.org/2000/svg" width="56" height="56"><path fill="url(#a1s0bto14)" d="M0 0h56v56H0z"/><path fill-rule="evenodd" d="M35.33 31.21a36.1 36.1 0 000-6.4A30.44 30.44 0 0138.98 28a30.06 30.06 0 01-3.65 3.22zm-.66-3.27c0-1.29-.06-2.54-.18-3.74a39.64 39.64 0 00-6.9-3.9 39.84 39.84 0 00-6.86 3.9 37.38 37.38 0 00.02 7.64 39.5 39.5 0 006.83 3.92 39.8 39.8 0 006.89-3.91c.13-1.26.2-2.56.2-3.91zm4.74-.41a30.75 30.75 0 00-4.17-3.62c-.24-2.08-.66-4-1.22-5.7 3.92-.78 7-.3 8.1 1.54.4.66.52 1.45.39 2.31a2 2 0 00-1.61 3.6 18.6 18.6 0 01-1.49 1.87zm-4.22 4.99c1.7-1.24 3.2-2.55 4.41-3.86 2.65 2.97 3.77 5.84 2.65 7.7-1.13 1.88-4.27 2.33-8.26 1.52.54-1.6.95-3.41 1.2-5.36zm7.59 4.31c-1.3 2.15-4.76 2.73-9.09 1.9-1.46 3.83-3.68 6.27-6.17 6.27-1 0-1.95-.4-2.84-1.12A2 2 0 0122 42a2 2 0 01.34-1.11c-.36-.66-.7-1.4-1-2.18-4.19.76-7.53.15-8.8-1.95-1.27-2.13-.13-5.32 2.7-8.56-2.85-3.25-4-6.46-2.72-8.6a4.38 4.38 0 012.5-1.82 2 2 0 013.88-.41c.73.04 1.51.13 2.32.27 1.45-4.04 3.74-6.64 6.3-6.64 2.57 0 4.85 2.6 6.3 6.62 4.28-.81 7.7-.22 8.99 1.91.5.83.62 1.82.43 2.9a2 2 0 01-1.51 3.55c-.48.73-1.05 1.47-1.7 2.22 2.86 3.26 4.04 6.49 2.75 8.63zm-8.47-3.7a28.2 28.2 0 01-1.04 4.6 30.83 30.83 0 01-4.48-1.46 38.98 38.98 0 005.52-3.13zm-1.33 5.45c-1.7-.38-3.53-.98-5.4-1.78a31.02 31.02 0 01-5.36 1.73c.23.63.48 1.22.75 1.76a2 2 0 012.4 3.18c.7.55 1.45.85 2.24.85 2.15 0 4.07-2.23 5.37-5.74zm-9.32-3.72c.9.51 1.81.98 2.72 1.4-1.55.62-3.05 1.1-4.45 1.42-.44-1.37-.79-2.9-1.02-4.55a39 39 0 002.75 1.73zm-2.61 3c-.55-1.63-.96-3.49-1.21-5.49a30.1 30.1 0 01-4.18-3.7c-2.6 2.93-3.7 5.77-2.58 7.62 1.1 1.83 4.12 2.3 7.97 1.58zM16.27 28a29.5 29.5 0 003.43 3.07 36.15 36.15 0 010-6.1c-1.3 1-2.45 2.02-3.43 3.03zm3.52-3.94a30.3 30.3 0 00-3.94 3.48c-2.66-2.97-3.77-5.84-2.65-7.7a3.54 3.54 0 011.84-1.44 2 2 0 003.96-.43c.64.05 1.32.13 2.02.26-.57 1.73-1 3.7-1.23 5.83zm1.04-.75c.23-1.78.58-3.43 1.04-4.9 1.52.33 3.17.85 4.86 1.55a38.93 38.93 0 00-5.9 3.35zm12.5-4.95c-1.54.35-3.2.89-4.9 1.6a38.9 38.9 0 015.95 3.35c-.23-1.8-.58-3.47-1.05-4.95zm-11.27-.55c1.74.37 3.6.97 5.52 1.77a31.2 31.2 0 015.56-1.81c-1.3-3.78-3.3-6.2-5.53-6.2-2.25 0-4.26 2.44-5.55 6.24zM33.5 28a6 6 0 11-12 0 6 6 0 0112 0zm-10.19-2.72c.84-.73 1.52-.3 1.76 0-.15-.11-.48-.28-.6-.1a.69.69 0 01-.48.29v-.28l-.68.1zM22 26.2c.14-.25.45-.77.57-.81.12-.04-.17.63-.34.96-.07.08-.23.15-.23-.15zm.37.41l-.58.25v.28c.27-.1.5-.4.58-.53zm2.07-1.04c.11.18.46.62.94.97.6.43.1 1.53-.31 1.64-.33.08-.45-.2-.46-.34-.3-.05-.97.08-1.33 1.01-.2-.23-.6-.76-.62-1-.03-.32.62-1.8 1.04-1.96.08-.02.24.01.25.3.16.09.49.1.49-.62zm1.19 2.83a.17.17 0 11-.34 0 .17.17 0 01.34 0zm.93.7l.52-.7h.26l-.07-.67.44.25-.82 1.22-.33-.1zm-.57 1.85a1.78 1.78 0 011.4.11c-.09-.03-.23.04-.15.6.08.56.43.55.6.47a.98.98 0 01.7-.47c.37-.03.48.37.5.57.3-.06.4.13.22.25-.15.1-.06.37 0 .5-.23 0-.51-.24-.63-.36-.3-.06-.5.21-.54.35-.02.28-.31.76-1.4.5-1.08-.26-1.33-.67-1.32-.85h.44c-.6-.25-.7-.57-.68-.7.06-.23.32-.76.86-.97z" fill="#fff"/><defs><linearGradient id="a1s0bto14" x1="10.42" y1="9.71" x2="68.15" y2="76.02" gradientUnits="userSpaceOnUse"><stop stop-color="#1A1E21"/><stop offset="1" stop-color="#06060A"/></linearGradient></defs></svg>