<!-- by TradingView --><svg width="56" height="56" viewBox="0 0 56 56" xmlns="http://www.w3.org/2000/svg"><path fill="#F0F3FA" d="M0 0h56v56H0z"/><path d="M44 35c0 4.5-3 9-9 9a8.37 8.37 0 0 1-7-3.75c.2-.69.83-2.08 2-5.25 0 3.09 1.92 4.98 5 5 2.8.02 5-2.5 5-5-.02-3.08-1.91-5-5-5 2.97-.38 4.03-1.2 5.25-2A8.37 8.37 0 0 1 44 35Z" fill="url(#a2nbdaeil)"/><path d="M28 15.75c-1 1.43-2 3.37-2 5.25 0-3.1-1.9-5-5-5-2.5 0-5 2.5-5 5 0 3 2 5 5 5-1.88 0-3.82 1-5.25 2-.2-.13-.38-.28-.56-.43A8.37 8.37 0 0 1 12 21c0-4.85 3.95-9 8.8-9a8.78 8.78 0 0 1 7.2 3.75Z" fill="#E8BA5F"/><path d="M30 20.8v14.4c0 4.55-4.6 8.8-9 8.8l-.5-4c3.1 0 5.5-1.7 5.5-4.8V20.8h4Z" fill="url(#b2nbdaeil)"/><path d="M16 35.5c0 3.08 1.76 4.5 4.85 4.5.11 0 .2.1.2.2v3.6c0 .11-.09.2-.2.2-4.85 0-8.83-3.65-8.85-8.5-.01-3 1.47-5.9 3.75-7.5 1.43-1 2.87-2 4.75-2 3.1 0 5.5-2.4 5.5-5.5V28c-1.52 1.27-2.87 2-5 2-3.1 0-5 2.4-5 5.5Z" fill="url(#c2nbdaeil)"/><path d="M44 21c0 3.64-3.4 9-7.6 9h-6.8a.25.25 0 0 1-.26-.26l-.1-3.48c0-.15.12-.26.26-.26h5.56c3.12 0 4.96-1.89 4.94-5-.02-3.1-2-5-4.6-5-3.4 0-5.4 1.77-5.4 4.85a.2.2 0 0 1-.2.2h-3.6a.2.2 0 0 1-.2-.2v-.05c0-1.88.59-3.62 1.6-5.05 1.62-2.33 4.76-3.75 7.6-3.75 4.86 0 8.8 4.14 8.8 9Z" fill="#3F4969"/><defs><linearGradient id="a2nbdaeil" x1="30.69" y1="43.13" x2="43.13" y2="30.69" gradientUnits="userSpaceOnUse"><stop stop-color="#FF81CC"/><stop offset=".25" stop-color="#DB6EAF"/><stop offset=".32" stop-color="#B8659F"/><stop offset=".42" stop-color="#935D8F"/><stop offset=".52" stop-color="#745581"/><stop offset=".62" stop-color="#5D5076"/><stop offset=".73" stop-color="#4C4C6E"/><stop offset=".85" stop-color="#42496A"/><stop offset="1" stop-color="#3F4969"/></linearGradient><linearGradient id="b2nbdaeil" x1="25.2" y1="44" x2="25.2" y2="20.8" gradientUnits="userSpaceOnUse"><stop offset=".17" stop-color="#1B811D"/><stop offset=".26" stop-color="#286C38"/><stop offset=".36" stop-color="#325D4E"/><stop offset=".47" stop-color="#39515D"/><stop offset=".6" stop-color="#3D4B66"/><stop offset=".78" stop-color="#3F4969"/></linearGradient><linearGradient id="c2nbdaeil" x1="14.57" y1="41.75" x2="26.6" y2="20.91" gradientUnits="userSpaceOnUse"><stop stop-color="#1B831B"/><stop offset=".13" stop-color="#1E831C"/><stop offset=".24" stop-color="#28861F"/><stop offset=".34" stop-color="#398B24"/><stop offset=".43" stop-color="#50912C"/><stop offset=".52" stop-color="#6F9937"/><stop offset=".61" stop-color="#95A343"/><stop offset=".69" stop-color="#C1AF52"/><stop offset=".75" stop-color="#E8BA5F"/></linearGradient></defs></svg>