<!-- by TradingView --><svg width="56" height="56" viewBox="0 0 56 56" xmlns="http://www.w3.org/2000/svg"><path fill="#F0F3FA" d="M0 0h56v56H0z"/><path d="M34.68 41A7.64 7.64 0 0 1 28 44.66 7.64 7.64 0 0 1 21.32 41H18.5c1.5 3.56 5.17 6 9.5 6s8-2.44 9.5-6h-2.82Z" fill="#56BE91"/><path d="M27.67 26C24.51 26 22 23.79 22 20.48c0-3.3 2.5-5.48 5.67-5.48 3.2 0 5.33 2.18 5.33 5.48 0 3.3-2.12 5.52-5.33 5.52ZM38 37c-.2-3.75-1.65-6.79-4.37-8.98 2.3-1.71 3.37-4.42 3.37-7.54 0-5.35-3.93-9.48-9.32-9.48A9.48 9.48 0 0 0 18 20.48V37h4v-8.4c2.82 1.5 5.87 1.04 8.1 2.16 2.24 1.11 3.84 2.85 3.84 6.24H38Z" fill="#463966"/></svg>