<!-- by TradingView --><svg xmlns="http://www.w3.org/2000/svg" width="56" height="56"><path fill="#2B2B2B" d="M0 0h56v56H0z"/><path d="M36.37 33.93c3.5-1.8 5.65-5.57 5.63-9.47A10.4 10.4 0 0031.76 14H16.54a.52.52 0 00-.24.06.57.57 0 00-.28.65l1.63 5.88c.06.24.28.41.51.41H31.5a3.53 3.53 0 013.5 3.44A3.6 3.6 0 0131.5 28H16.54a.56.56 0 00-.54.56v12.88c0 .15.06.3.16.4.1.1.23.16.38.16H23v-7h6.3l3.96 6.65c.06.1.15.2.26.26.1.06.22.1.34.09h6.9a.4.4 0 00.2-.06.44.44 0 00.13-.6l-4.72-7.41z" fill="#85CE06"/></svg>