<!-- by TradingView --><svg width="56" height="56" viewBox="0 0 56 56" xmlns="http://www.w3.org/2000/svg"><path fill="#F0F3FA" d="M0 0h56v56H0z"/><path d="M50.92 33.05H5.08V25.7h5.24c2.43 0 3.96-1.99 4.03-2.74v-.7c1.6-1.02 6.34-3.32 13.52-3.32 7.17 0 12.11 2.35 13.82 3.37v.7c0 1.72 2.66 2.79 4.32 2.79h4.91v7.24Z" fill="#FEFEFE"/><path fill-rule="evenodd" d="M4 34h48v-9h-5.14c-1.74 0-3.85-.76-3.86-2.7v-.8c-1.78-1.17-7.62-3.5-15.14-3.5-7.52 0-13.18 2.33-14.86 3.5v.8c-.07.84-.42 2.7-2.96 2.7H4v9Zm1-1h46v-7h-4.93c-1.66 0-4.06-1.26-4.07-2.96v-.7C40.3 21.34 35.07 19 27.86 19c-7.2 0-12.25 2.28-13.86 3.3v.7c-.06.74-1.3 3-3.74 3H5v7Z" fill="#5F3516"/><path fill-rule="evenodd" d="M11.44 27h-.92v2h-.6v-2H9v5h.91v-2h.61v2h.92v-5Zm-2.52.8v-.73A1.04 1.04 0 0 0 8.5 27h-.05c-.34 0-1.4-.02-1.4 2.28A4.77 4.77 0 0 0 8.92 33v-1.17a3.95 3.95 0 0 1-.96-2.55c0-1.55.7-1.67.96-1.47ZM13.5 32c1.28 0 1.5-1.12 1.5-2.5s-.3-2.5-1.5-2.5-1.5 1.12-1.5 2.5.35 2.5 1.5 2.5Zm0-.76c.41 0 .48-.78.48-1.74s-.1-1.74-.48-1.74-.48.78-.48 1.74.11 1.74.48 1.74ZM20 29.5c0 1.38-.18 2.5-1.25 2.5-.96 0-1.25-1.12-1.25-2.5s.26-2.5 1.25-2.5c1 0 1.25 1.12 1.25 2.5Zm-1 0c0 .96-.04 1.74-.25 1.74-.2 0-.25-.78-.25-1.74s.05-1.74.25-1.74.25.78.25 1.74ZM41.75 32c1.07 0 1.25-1.12 1.25-2.5s-.26-2.5-1.25-2.5c-1 0-1.25 1.12-1.25 2.5s.3 2.5 1.25 2.5Zm0-.76c.21 0 .25-.78.25-1.74s-.05-1.74-.25-1.74-.25.78-.25 1.74.06 1.74.25 1.74Zm-24.75 0c.14 0 .24-.05.33-.14v.87c-.1.02-.21.03-.33.03-1.15 0-1.5-1.12-1.5-2.5S15.8 27 17 27c.1 0 .19 0 .28.02v.84a.41.41 0 0 0-.28-.1c-.5 0-.64.78-.64 1.74s.15 1.74.64 1.74Zm21-.14a.5.5 0 0 1-.36.14c-.54 0-.7-.78-.7-1.74s.14-1.74.7-1.74c.15 0 .27.05.36.16v-.89a1.9 1.9 0 0 0-.36-.03c-1.3 0-1.64 1.12-1.64 2.5s.38 2.5 1.64 2.5c.13 0 .25-.01.36-.03v-.87ZM20.5 27v5H22v-1h-.5v-4h-1Zm2 5v-3.74c0-.7.56-1.26 1.25-1.26.7 0 1.25.56 1.25 1.26V32h-1v-1.54h-.5V32h-1Zm1.5-2.35v-1.5c0-.18-.07-.33-.25-.33s-.25.15-.25.34v1.5h.5Zm9-1.39V32h1v-1.54h.5V32h1v-3.74c0-.7-.56-1.26-1.25-1.26S33 27.56 33 28.26Zm1.5-.1v1.5H34v-1.5c0-.19.07-.34.25-.34s.25.15.25.34Zm-9-1.12V28h.5v4h1v-4h.5v-.96h-2Zm13 .96v-1h2v1H40v4h-1v-4h-.5Zm-9-.19V27h-.93c-.6 0-1.07.49-1.07 1.1v2.8c0 .61.48 1.1 1.07 1.1h.93v-.79h-.71a.37.37 0 0 1-.37-.38v-.34h.87v-.85h-.87v-1.45c0-.2.16-.38.37-.38h.71Zm3.41-.81v.82h-.69c-.2 0-.35.17-.35.38v1.35h.84v.8h-.84V32h-.88v-3.9c0-.6.46-1.1 1.03-1.1h.9Zm10.59 5v-5h1.07c.48-.02 1.43.3 1.43 1.69 0 .78-.47 1.28-.7 1.43.23.23.7.92.7 1.88h-.99c.01-.32-.06-1.04-.51-1.35V32h-1Zm1-2.36V27.8c.17-.02.5.1.5.74s-.33 1-.5 1.09Zm3-2.64v2.25c.02.11.06.32.27.32.18 0 .2-.27.23-.44V27h1v2.92c.01.83-.47 2.62-2.5 3.08v-.81c.53-.18 1.5-.82 1.5-2.04l-.1.17c-.45.07-1.4-.09-1.4-1.28V27h1Z" fill="#5F3516"/><path d="M35.64 26H20.17l3.91-1.74 1.2.6 2.8-1.36 2.6 1.35 1.2-.6L35.63 26Z" fill="#AF6E4F"/><path fill-rule="evenodd" d="M25 20.87v2.41l.63-.03v-2.38c0-.12.06-.33.23-.33.11 0 .13.13.14.23v2.44l.68-.01v-2.44c0-.04.02-.26.2-.26.13 0 .12.11.12.2v2.5h.68v-2.4c0-.57-.4-.82-.76-.82-.28 0-.5.16-.58.24a.68.68 0 0 0-.48-.19c-.65 0-.84.56-.86.84Zm-2.56-.4.56-.1v1.42c0 .07.08.2.2.2.15 0 .21-.2.21-.3v-1.37l.6-.1v2.15c0 .41-.2 1.22-1.02 1.2v-.52c.15.01.45-.1.45-.68-.03.05-.15.15-.4.15-.3 0-.6-.34-.6-.73v-1.32Zm-1.78.37v3.15l.6-.12v-.88c.3.2.4.63.4.82l.57-.15c0-.66-.3-1.02-.46-1.11l.46-2.06-.57.11-.4 1.8v-1.7l-.6.14Zm-.29 2.75v.49c-.1.05-.34.15-.55.15-.27 0-.69-.14-.69-1.44 0-1.3.56-1.82 1.24-1.88v.51c-.21-.04-.64.14-.64 1.22 0 1.34.53 1.12.64.95Zm-3.2-.03c0-.67.22-2 1.14-2 .19 0 .56.25.56 1.35 0 1.38-.47 1.98-1.12 1.98-.45 0-.57-.89-.57-1.33Zm.58-.1c0-.46.07-1.36.37-1.36.06 0 .18.17.18.91 0 .94-.16 1.34-.37 1.34-.14 0-.18-.6-.18-.9Zm-2.24-.79v3.2l.49-.29v-.83l.06-.05c.15.1.33.35.33.76l.57-.28c0-.25-.1-.78-.45-1 .24-.33.45-.74.45-1.17 0-.76-.56-.7-.85-.6l-.6.26Zm.49.27v1.15c.11-.1.34-.43.34-.84s-.23-.38-.34-.3Zm13.04-2.93c-.79 0-.9 1.09-.86 1.63 0 .32 0 1.6.93 1.6.88 0 .84-1.38.84-1.58v-.04c0-.18.03-1.6-.91-1.6Zm.01.47c-.24 0-.27.77-.26 1.16 0 .22 0 1.12.28 1.12s.26-.97.26-1.11v-.03c0-.12.01-1.14-.28-1.14Zm1.24 2.02v-2.42l.63.09v2.38c0 .09.03.34.22.34.15 0 .2-.18.2-.27v-2.45l.66.08v2.3a.8.8 0 0 1-.82.83c-.65 0-.86-.59-.89-.88Zm2.08 1V20.3l.56.1v.17a.25.25 0 0 1 .24-.17c.2 0 .81.15.81 1.19v2.2l-.6-.14v-2.48c-.01-.07-.07-.23-.21-.23-.17 0-.17.16-.17.23v2.44l-.63-.12Zm2.87-2.13.47.1V21l-1.56-.35v.48l.5.11v2.68l.6.16v-2.7Zm.76.5v2.37l.59.18v-1l.4.14v1l.6.2v-2.28c0-.68-.47-1.22-1-1.22-.42 0-.57.4-.59.61Zm.99 1.22-.4-.14v-.88c-.01-.1 0-.3.18-.3s.22.21.22.32v1ZM38 24.82v-3.18l.58.22v3.18l-.58-.22ZM39 22v3.15l.56.26v-2.46c0-.06.04-.17.16-.17.16 0 .22.28.22.42v2.35l.58.26v-2.48c-.08-.33-.34-1-.8-1.04a.26.26 0 0 0-.16.08v-.15L39 22Z" fill="#562C85"/></svg>