<!-- by TradingView --><svg xmlns="http://www.w3.org/2000/svg" width="56" height="56" viewBox="0 0 56 56"><path d="M56 0H0v56h56V0Z" fill="#F0F3FA"/><path d="M9 26h1v3H9v-3ZM9 24h1v1H9v-1Z" fill="#231F20"/><path d="M4 31h48v1H4v-1Z" fill="#FFDF00"/><path fill-rule="evenodd" d="M32.5 27.46c0-1.08-1.02-1.32-1.84-1.51-.55-.13-1.02-.24-1.02-.58 0-.33.29-.54.75-.54.53 0 1.05.19 1.44.52l.54-.7A2.75 2.75 0 0 0 30.5 24c-1.09 0-1.85.6-1.85 1.46 0 1.06 1 1.3 1.8 1.48.57.14 1.07.25 1.07.64 0 .29-.28.58-.9.58a2.28 2.28 0 0 1-1.58-.64l-.53.73a2.76 2.76 0 0 0 2.05.75c1.22 0 1.95-.58 1.95-1.54ZM19 24h-1v1h1v-1ZM6.97 29H8l-.84-2.04c.55-.22.83-.78.83-1.36.06-.92-.79-1.65-1.68-1.6H4v5h1v-2h1.3l.67 2ZM5 26.33V25h1.14c.47 0 .8.18.8.67 0 .42-.33.66-.8.66H5ZM16 29v-2.46c0-.36-.22-.62-.65-.62-.17 0-.33.05-.47.13-.14.08-.27.19-.35.32V29h-1.06v-2.46c0-.36-.17-.62-.6-.62-.16 0-.32.05-.47.13a1.2 1.2 0 0 0-.4.33V29h-.95L11 25h1v.6c.16-.18.4-.32.63-.43.22-.1.47-.16.72-.17.25-.02.49.04.7.17a1 1 0 0 1 .4.54 1.76 1.76 0 0 1 1.37-.71c.74 0 1.18.38 1.18 1.18V29h-1Zm2-3h1v3h-1v-3Zm5 .64V29h1v-2.76c0-.76-.45-1.24-1.39-1.24-.28 0-.56.05-.82.16-.26.1-.6.25-.79.45V25h-1v4h1v-2.63c.1-.12.32-.23.49-.3l.05-.03c.17-.08.36-.12.55-.13.48 0 .91.19.91.73ZM25 24h1v1h-1v-1Zm1 2h-1v3h1v-3Zm8 0v1.97c0 .67.35 1.03 1.05 1.03.3.02.6-.07.84-.24l-.21-.75a.56.56 0 0 1-.35.11c-.22 0-.33-.18-.33-.41V26h1v-1h-1.02v-1H34v1h-1v1h1Zm15.5 1.97V26h-1v-1h1v-1h.98v1h1.02v1h-1v1.7c0 .24.1.42.33.42.13 0 .25-.04.35-.1l.21.74c-.23.17-.53.26-.84.24-.7 0-1.05-.36-1.05-1.03ZM37 25v4h1v-2.58c.2-.27.38-.43.75-.44.08 0 .17 0 .25.02v-1c-.21.01-.42.07-.61.18-.2.11-.36.26-.49.45V25H37Zm4.53.8c.37-.02.98.26.99.67h-1.94c.03-.41.59-.67.95-.67ZM39.5 27c0-1.1.84-2 2.03-2 1.9 0 1.97 1.5 1.97 2h-2.92c0 .5.17.8.38.97.2.16.48.25.75.23.39 0 .76-.14 1.05-.38l.46.65a2.5 2.5 0 0 1-1.62.53c-1.2 0-2.1-.78-2.1-2Zm6.53-1.2Zm-.95.67c.03-.41.59-.67.95-.67.37-.02.98.26.99.67h-1.94Zm.95-1.47c-1.2 0-2.03.9-2.03 2 0 1.22.9 2 2.1 2a2.5 2.5 0 0 0 1.62-.53l-.46-.65a1.7 1.7 0 0 1-1.05.38c-.27.02-.54-.07-.75-.23-.21-.16-.38-.47-.38-.97H48c0-.5-.07-2-1.97-2Z" fill="#231F20"/></svg>