<!-- by TradingView --><svg width="56" height="56" xmlns="http://www.w3.org/2000/svg"><path fill="url(#paint0_linear)" d="M0 0h56v56H0z"/><path d="M39 43.985V39h2.255c.583.027 1.763.397 1.745 1.687-.018 1.291-1.177 1.655-1.745 1.675H40v1.623h-1z" fill="#fff"/><ellipse cx="28.496" cy="41.5" rx="2.496" ry="2.5" fill="#fff"/><path d="M20 30v-5h2.349c.53 0 1.51.549 1.51 1.63 0 .864-.671 1.372-1.007 1.518L24 30h-1.21l-1.06-1.732H21V30h-1zM20 44v-5h2.349c.53 0 1.51.549 1.51 1.63 0 .864-.671 1.372-1.007 1.517L24 44h-1.21l-1.06-1.732H21V44h-1zM33 30v-5h2.349c.53 0 1.51.549 1.51 1.63 0 .864-.671 1.372-1.007 1.518L37 30h-1.21l-1.06-1.732H34V30h-1z" fill="#fff"/><path d="M40 41.493V40h1.022c.25 0 .752.224.767.734.016.51-.482.759-.767.759H40z" fill="#363A45"/><path d="M33 42.36V39h1v3c0 .36.085 1 1 1s1-.64 1-1v-3h1v3.36c0 .542-.33 1.639-2 1.639-1.652 0-2-1.074-2-1.639zM15.815 39c.987-.007 1.686.438 1.912.662l-.8.801c-.796-.895-2.962-.556-2.927 1.01.036 1.564 2 1.912 3 1.177V42h-1v-1h2v2c-.273.475-1.186 1-2.185 1-1.458 0-2.829-1.034-2.816-2.583.008-1.044.688-1.734 1.028-1.948.185-.153.801-.462 1.788-.469zM26 30v-5l2.5 2.5L31 25v5h-1v-2.5L28.5 29 27 27.5V30h-1z" fill="#fff"/><path d="M21.002 27.37V26h1.162c.18.022.542.167.549.686.006.518-.418.673-.63.685h-1.081zM20.995 41.37V40h1.162c.18.022.542.167.549.686.006.519-.418.673-.63.685h-1.08zM34.002 27.37V26h1.162c.18.022.542.167.549.686.006.518-.418.673-.63.685h-1.081z" fill="#363A45"/><path d="M35 12h-3v5h3v-1h-2v-1h2v-1h-2v-1h2v-1zM27 12h-1v5h1v-2h2v2h1v-5h-1v2h-2v-2zM24 12h-4v1h1.5v4h1v-4H24v-1zM12 21.004h32v1H12zM12 34h32v1H12z" fill="#fff"/><ellipse cx="28.5" cy="41.501" rx="1.5" ry="1.501" fill="#363A45"/><defs><linearGradient id="paint0_linear" x1="10.418" y1="9.712" x2="68.147" y2="76.017" gradientUnits="userSpaceOnUse"><stop stop-color="#1A1E21"/><stop offset="1" stop-color="#06060A"/></linearGradient></defs></svg>