<!-- by TradingView --><svg xmlns="http://www.w3.org/2000/svg" width="56" height="56"><path fill="#F0F3FA" d="M0 0h56v56H0z"/><path fill-rule="evenodd" d="M23 14a2 2 0 100-4 2 2 0 000 4zm0-1a1 1 0 100-2 1 1 0 000 2z" fill="url(#a0kqac3no)"/><path fill-rule="evenodd" d="M14.75 26a2.75 2.75 0 100-5.5 2.75 2.75 0 000 5.5zm0-1a1.75 1.75 0 100-3.5 1.75 1.75 0 000 3.5z" fill="url(#b0kqac3no)"/><path fill-rule="evenodd" d="M23.5 43a3.5 3.5 0 100-7 3.5 3.5 0 000 7zm0-1a2.5 2.5 0 100-5 2.5 2.5 0 000 5z" fill="url(#c0kqac3no)"/><path d="M41.56 13.52a.54.54 0 01.8.74l-8.1 8.66s-.19.21-.24.5a7.47 7.47 0 011.95 4.46c.24.12.47.12.47.12h3.75a.5.5 0 110 1h-3.76s-.22 0-.45.1a7.46 7.46 0 01-2.3 4.82 1.3 1.3 0 00.23.54l.01.02.01.01 1.67 2.23a.54.54 0 11-.87.65l-1.67-2.25a1.35 1.35 0 00-.43-.36 7.46 7.46 0 01-3.4 1.2 1.18 1.18 0 00-.23.65v9.89a.5.5 0 11-1 0v-9.92s0-.35-.19-.61a7.5 7.5 0 01-5.34-3c-.3-.03-.57.1-.65.15l-.03.01-.01.01-3.68 2.2a.54.54 0 01-.56-.92l3.69-2.21s.34-.2.46-.56a7.46 7.46 0 01-.66-2.42c-.28-.23-.65-.23-.65-.23H10.5a.5.5 0 010-1h9.87s.37 0 .67-.25a7.5 7.5 0 012.88-5.2 1.47 1.47 0 00-.2-.59l-4.65-6.93a.54.54 0 11.9-.6l4.66 6.96a1.31 1.31 0 00.5.41 7.47 7.47 0 014.6-.7 1.31 1.31 0 00.47-.69l1.12-3.99a.54.54 0 011.04.3l-1.14 4.07v.03c-.03.08-.08.4.04.7.6.24 1.16.55 1.68.93.3-.06.52-.26.52-.26l8.1-8.67zM28.5 35a6.5 6.5 0 100-13 6.5 6.5 0 000 13z" fill="url(#d0kqac3no)"/><defs><linearGradient id="a0kqac3no" x1="23" y1="10" x2="23" y2="14" gradientUnits="userSpaceOnUse"><stop stop-color="#18B7C8"/><stop offset="1" stop-color="#087986"/></linearGradient><linearGradient id="b0kqac3no" x1="14.75" y1="20.5" x2="14.75" y2="26" gradientUnits="userSpaceOnUse"><stop stop-color="#18B7C8"/><stop offset="1" stop-color="#087986"/></linearGradient><linearGradient id="c0kqac3no" x1="23.51" y1="36.09" x2="23.51" y2="43.07" gradientUnits="userSpaceOnUse"><stop stop-color="#18B7C8"/><stop offset="1" stop-color="#087986"/></linearGradient><linearGradient id="d0kqac3no" x1="26.25" y1="29.58" x2="26.25" y2="47" gradientUnits="userSpaceOnUse"><stop stop-color="#F37654"/><stop offset="1" stop-color="#EE392B"/></linearGradient></defs></svg>