<!-- by TradingView --><svg width="56" height="56" viewBox="0 0 56 56" xmlns="http://www.w3.org/2000/svg"><path fill="#F0F3FA" d="M0 0h56v56H0z"/><path d="M30.37 14.97s1.17 1.57 1.53 2.39c.35.82.94 3 1.1 3.5l-3.24 2.42s-.12-1.7-.59-2.8c-.46-1.1-1.04-2.6-1.1-2.78-.05-.17 2.3-2.73 2.3-2.73Z" fill="#01C601"/><path d="m17.03 24.58.04.56 2.4-3.15s-2.52-2.18-2.73-5.06c-.21-2.88.6-5.03 1.08-5.76 0 0-2.3 1.22-3.46 4.38-.92 2.5.19 5.4.35 5.66.16.27 1.05 1.72 1.4 2.17l.92 1.2Z" fill="url(#adknuzfpm)"/><path d="M19.52 22.06s-2.22-2.23-1.92-4.47a4.49 4.49 0 0 1 2.54-3.57 5.4 5.4 0 0 1 4.17-.14c1.64.71 3.35 2.77 3.91 4.24l2.91-2.08s-2.24-3.56-4.55-4.91a8.83 8.83 0 0 0-8.76.06s-1.33 1.97-1.24 4.45c.07 2.21.81 4.93 2.94 6.42Z" fill="url(#bdknuzfpm)"/><path d="M19.44 21.98s2.16 1.68 1.6 3.58c-.55 1.9-2.33 2.27-3.56 4.87s-1.17 5.76.2 8c0 0-2.72-1.43-3.54-4.98 0 0-.56-2.83.75-5.37.23-.46.5-.9.83-1.3.5-.6 1.45-1.8 1.45-1.8l2.27-3Z" fill="url(#cdknuzfpm)"/><path d="M38.97 31.4v-.66l-2.49 3.27s2.67 2.43 2.88 5.3c.22 2.88-.62 4.72-1.1 5.45 0 0 2.22-1.17 3.38-4.33.92-2.5-.19-5.4-.35-5.66-.16-.27-.9-1.59-1.4-2.17-.37-.43-.92-1.2-.92-1.2Z" fill="url(#ddknuzfpm)"/><path d="M36.48 34.02s2.22 2.12 1.92 4.36a4.5 4.5 0 0 1-2.54 3.57 5.4 5.4 0 0 1-4.16.14c-1.65-.7-3.37-2.76-3.93-4.23l-3.13 1.69s2.31 3.97 4.78 5.3a8.84 8.84 0 0 0 8.82-.06s1.2-1.73 1.18-4.45c-.01-2.54-.8-4.83-2.94-6.32Z" fill="url(#edknuzfpm)"/><path d="M36.53 34.03s-2.16-1.68-1.6-3.58c.55-1.89 2.34-2.27 3.56-4.86 1.22-2.59 1.18-5.95-.2-8.2a8.57 8.57 0 0 1 3.54 5.17s.57 2.84-.74 5.37c-.24.46-.51.9-.84 1.3l-1.45 1.81-2.27 2.99Z" fill="url(#fdknuzfpm)"/><path d="M36.2 28.53a9.53 9.53 0 0 0 3.03-4.84c.7-2.75-.47-5.78-.93-6.2 0 0-1.64-1.18-3.44-1.3a9.08 9.08 0 0 0-6.48 1.88 14.92 14.92 0 0 0-4.41 5.94 20.17 20.17 0 0 0-1.31 5.8c-.11 1.65.07 4.85.69 6.62.35 1.05.8 2.08 1.3 3.07.1.15 3.12-1.6 3.12-1.6s-1.32-2.73-1.43-4.66c-.11-1.93-.19-4.29.22-5.72a13.8 13.8 0 0 1 2.33-5.02c1.38-1.77 2.7-2.62 4.21-2.8 1.5-.17 3.55.53 4.03 1.34 0 0 1.25 1.26 1.29 2.8 0 0 .12 1.24-.29 1.98a9.57 9.57 0 0 1-.9 1.5c-.37.45-1.04 1.21-1.04 1.21Z" fill="url(#gdknuzfpm)"/><path d="M29.73 22.8c.1 1.92.18 4.28-.23 5.72a13.88 13.88 0 0 1-2.32 5.03c-1.39 1.78-2.71 2.6-4.22 2.8a4.96 4.96 0 0 1-4.03-1.34s-1.24-1.27-1.29-2.8c0 0-.1-1.16.3-1.99a6.5 6.5 0 0 1 .9-1.49l.97-1.25s-2.21 1.42-2.98 4.87c-.7 3.1.46 5.79.93 6.2 0 0 1.64 1.18 3.43 1.3 1.8.1 4.28-.1 6.5-1.89a14.92 14.92 0 0 0 4.4-5.93 21.17 21.17 0 0 0 1.32-5.81c.29-3.48-.6-5.97-.6-5.97s-1.07 1.47-2.04 1.03" fill="url(#hdknuzfpm)"/><defs><linearGradient id="adknuzfpm" x1="15.3" y1="13.75" x2="18.86" y2="23.08" gradientUnits="userSpaceOnUse"><stop offset=".2" stop-color="#01C401"/><stop offset="1" stop-color="#0F8A0E"/></linearGradient><linearGradient id="bdknuzfpm" x1="28.27" y1="16.11" x2="17.26" y2="15.99" gradientUnits="userSpaceOnUse"><stop offset=".3" stop-color="#01C401"/><stop offset="1" stop-color="#127F10"/></linearGradient><linearGradient id="cdknuzfpm" x1="19.31" y1="30.24" x2="12.08" y2="29.93" gradientUnits="userSpaceOnUse"><stop offset=".27" stop-color="#01C401"/><stop offset=".68" stop-color="#0F8A0E"/></linearGradient><linearGradient id="ddknuzfpm" x1="40.73" y1="42.19" x2="37.15" y2="32.82" gradientUnits="userSpaceOnUse"><stop offset=".2" stop-color="#01C401"/><stop offset="1" stop-color="#0F8A0E"/></linearGradient><linearGradient id="edknuzfpm" x1="24.57" y1="39.89" x2="35.75" y2="40.02" gradientUnits="userSpaceOnUse"><stop offset=".19" stop-color="#01C401"/><stop offset=".92" stop-color="#147712"/></linearGradient><linearGradient id="fdknuzfpm" x1="36.67" y1="25.68" x2="43.89" y2="25.99" gradientUnits="userSpaceOnUse"><stop offset=".27" stop-color="#01C401"/><stop offset=".68" stop-color="#0F8A0E"/></linearGradient><linearGradient id="gdknuzfpm" x1="20.91" y1="31.73" x2="36.64" y2="23.1" gradientUnits="userSpaceOnUse"><stop offset=".15" stop-color="#01C401"/><stop offset="1" stop-color="#147712"/></linearGradient><linearGradient id="hdknuzfpm" x1="35.62" y1="26.31" x2="20.27" y2="34.73" gradientUnits="userSpaceOnUse"><stop offset=".15" stop-color="#01C401"/><stop offset="1" stop-color="#118210"/></linearGradient></defs></svg>