<!-- by TradingView --><svg width="56" height="56" viewBox="0 0 56 56" xmlns="http://www.w3.org/2000/svg"><path fill="#F0F3FA" d="M0 0h56v56H0z"/><path fill-rule="evenodd" d="M5 33h2v-3.33h1.68L10.64 33H13l-2.29-3.6s2-.67 2-3.14-2-3.23-2.95-3.26L5 23.01V33Zm2-8.33V28h2s1.66.04 1.66-1.67c0-1.59-1.66-1.66-1.66-1.66H7Z" fill="#006637"/><path d="M23 33h2v-6.67L29 33h2V23h-2v6.67L25 23h-2v10ZM40 25h2l1.3 4.5 1.2-4.5h2l1.2 4.5L49 25h2l-2 8h-2l-1.49-4.5L44 33h-2l-2-8Z" fill="#006637"/><path fill-rule="evenodd" d="M36 27c1.14 0 1.68.83 2 1.64h-4c.32-.83.8-1.64 2-1.64Zm0-2a4 4 0 0 1 3.92 4.78H34c.32.84 1.05 1.22 2 1.22.62 0 1.04-.1 1.42-.5h2.1C38.92 31.93 37.66 33 36 33a4 4 0 1 1 0-8Z" fill="#006637"/><path d="M21.78 30.3c-1.03.04-1.9.52-2.76.82-3.27 1.17-4.52-3.6-1.54-3.69.65-.02.97.17 1.49.33-.46-.6-1.36-.65-1.98-.7.28-.18.6-.25.92-.25.95.01 1.93.71 2.09 1.68a1.42 1.42 0 0 0-.41-.06c-.83 0-1.34.57-2.11.57-.56 0-.85-.32-1.25-.59-.16.3-.08.73.03 1 .14.3.33.5.6.65 1.38.8 2.75-.51 4.35-.65.16-.02.54.03.65 0 .07 0 .13-.16.14-.41.08-2.12-1.85-3.98-3.92-4A4.07 4.07 0 0 0 14 29.1a4.04 4.04 0 0 0 4 3.9c1.34 0 3.68-1.07 3.78-2.7Z" fill="#8DC73F"/></svg>