<!-- by TradingView --><svg xmlns="http://www.w3.org/2000/svg" width="56" height="56" viewBox="0 0 56 56"><path fill="#F0F3FA" d="M0 0h56v56H0z"/><path fill-rule="evenodd" d="M5 22h2.03a1.74 1.74 0 0 1 .83 3.27L8.77 27h-.9l-.8-1.53H5.75V27H5v-5zm.75.69h1.1a1.06 1.06 0 0 1 0 2.12h-1.1V22.7zM40.53 27h2.03a1.74 1.74 0 0 1 .82 3.27L44.3 32h-.9l-.8-1.53h-1.32V32h-.75v-5zm.75.69h1.1a1.06 1.06 0 0 1 0 2.12h-1.1V27.7zM10.36 22H10v5h3.37v-.75h-2.62V25H13v-.7h-2.25v-1.55h2.62V22H10.36zm4.33 5v-5l3.56 3.7V22H19v5h-.72l-2.84-3.05V27h-.75zm8.04 0c1.5 0 2.73-1.12 2.73-2.5S24.23 22 22.73 22C21.22 22 20 23.12 20 24.5s1.22 2.5 2.73 2.5zm0-.64c1.09 0 1.97-.83 1.97-1.86 0-1.02-.88-1.86-1.97-1.86-1.08 0-1.96.84-1.96 1.86 0 1.03.88 1.86 1.96 1.86zM36 24.5c0 1.38-1.22 2.5-2.73 2.5-1.5 0-2.73-1.12-2.73-2.5s1.22-2.5 2.73-2.5c1.5 0 2.73 1.12 2.73 2.5zm-.76 0c0 1.03-.88 1.86-1.97 1.86a1.91 1.91 0 0 1-1.96-1.86c0-1.02.88-1.86 1.96-1.86 1.09 0 1.97.84 1.97 1.86zM27.99 27l-2.27-5h.88L28 25.12 29.42 22h.85L28 27zm10.76-5H38v10h.75V22zM49 27h-.9l-.93 1.7-.94-1.7h-.89l1.38 2.5-1.38 2.5h.89l.94-1.7.94 1.7H49l-1.39-2.5L49 27zM5 31.44c1.73-1.1 7-3.32 14.32-3.26 1.7 0 5.07.2 8.14 1.5 1.9.81 3.81 1.74 5.06 2.33l.97.47c.24-.13.76-.8.94-2.47.24-2.08 2.35-3.36 3.32-3.64v.4a4.63 4.63 0 0 0-2.61 3.24c-.41 1.98-.43 2.01-.64 2.4l-.16.31c2 .86 7.4 2.66 12.93 2.96.94.03 3.2-.07 4.73-.68-.48.33-2.1 1-4.73 1.05-3.29.06-9.66-1.32-12.93-2.45-.89-.3-1.93-.76-3.07-1.27-3.05-1.35-6.77-3-10.09-2.78-.1.2-.33.75-.34 1.42-.02.85.52 2.13 2.66 2.32l1.27.08c1.74.08 3.52.17 5.07 1.28A5.66 5.66 0 0 1 32.23 39a5.89 5.89 0 0 0-5.56-5.01h-2.99c-1.26-.05-3.77-.76-3.65-3.18 0-.22.05-.8.23-1.33-2.79-.01-9.51.69-14.18 3.6l-.36-.55c1.68-1.13 7.42-3.69 13.6-3.69.6 0 1.26 0 2.05.07 0 .25.19.46.44.48l.37.03c.24.02.44-.14.5-.35 2.08.32 4.94 1.11 9.22 3.07a.3.3 0 0 0-.02.03c-.06.14 0 .31.15.37l.3.14a.28.28 0 0 0 .38-.16l.23.1-.23-.1a.28.28 0 0 0-.15-.36l-.3-.13a.28.28 0 0 0-.34.08c-2.77-1.4-5.47-2.75-9.25-3.3a.47.47 0 0 0-.41-.33l-.38-.03a.47.47 0 0 0-.43.21c-.67-.06-1.38-.1-2.13-.11a29.58 29.58 0 0 0-13.89 3.49l-.43-.6z" fill="url(#asscqcr53)"/><defs><linearGradient id="asscqcr53" x1="5" y1="26" x2="52" y2="27.39" gradientUnits="userSpaceOnUse"><stop stop-color="#011789"/><stop offset="1" stop-color="#3F59C5"/></linearGradient></defs></svg>