<!-- by TradingView --><svg width="56" height="56" viewBox="0 0 56 56" xmlns="http://www.w3.org/2000/svg"><path fill="#F0F3FA" d="M0 0h56v56H0z"/><path d="M17 33a52.98 52.98 0 0 1-11 7h29.13c0-2.58.36-5.74.53-7H17.01Z"/><path d="M18.78 40a82.69 82.69 0 0 0 5.43-7h2.88a60.24 60.24 0 0 1-4.51 7h-3.8Z" fill="#FEC331"/><path d="M39.21 15c-8.5 1.92-14.65 6.14-16.66 8h16.93c2.43-4.3 8.03-7.12 10.52-8H39.21Z"/><path d="M45.03 15c-8.2 1.81-13.31 6.09-14.84 8h2.83c3.07-4.2 10.32-7.08 13.56-8h-1.55Z" fill="#FEC331"/><path d="M26.89 25.55 26.24 27H24l.56-1.15a.37.37 0 0 0-.34-.53h-.78a.38.38 0 0 0-.35.23l-2.02 4.49c-.11.24.07.52.34.52h.64c.14 0 .27-.08.34-.2l.8-1.36h2.24l-.93 1.65A2.72 2.72 0 0 1 22.27 32h-1.5A1.86 1.86 0 0 1 19 29.36l1.84-3.86a2.65 2.65 0 0 1 2.4-1.5h2.6c.81 0 1.36.81 1.05 1.55Z"/><path fill-rule="evenodd" d="m24.86 32 .67-1.4h.54l2.4-5.24h-.71l.7-1.36h4.9c.84 0 1.39.89 1.02 1.65l-1.21 2.5c-.26.52-.79.85-1.36.85h-2.74l-.71 1.6h.71l-.6 1.4h-3.61Zm4.97-4.61.9-1.96h.91c.28 0 .46.3.34.55l-.59 1.2a.38.38 0 0 1-.34.2h-1.22Z"/><path d="M39.3 24h-3.48l-.72 1.57h.72l-2.35 5.03h-.67l-.58 1.4h3.6l.64-1.4h-.76l2.25-5.03h.67L39.3 24Z"/></svg>