<!-- by TradingView --><svg width="56" height="56" xmlns="http://www.w3.org/2000/svg"><path fill="url(#paint0_linear)" d="M0 0h56v56H0z"/><path d="M7 29h3c0 .384-.063.842-.158 1.227-.38.997-.975 1.742-2.715 1.773-1.74.03-3.194-1.299-3.125-2.985C3.932 27.27 5.344 26 7.253 26c.984 0 1.872.418 2.526 1.153l-.672.73C8.701 27.308 8.253 27 7.222 27c-1.255-.061-2.292.76-2.222 2-.063 1.235 1.052 1.998 2.127 1.998 1.075 0 1.787-.41 1.873-.998H7v-1zM13 26v6h-1v-6h1zM15 31.94V26h1c.38 0 .724.03 1.069.09.241.061.483.152.69.304.206.152.344.364.448.576.103.212.172.454.172.697 0 .424-.207.818-.551 1.09.344.091.655.304.862.576.207.273.31.606.31.94 0 .454-.207.878-.552 1.181a2.248 2.248 0 01-.758.425c-.38.09-.759.121-1.138.121H15v-.06zm1-3.395c.619 0 1.453-.078 1.414-.848C17.378 27 16.404 27 16 27v1.546zM16 31h.62c.578 0 1.38-.105 1.38-.818 0-.76-.932-.91-1.517-.91H16V31zM23.064 29.446L25 32h-1.143L22 29.54V32h-1v-6h1.111c.825 0 1.429.154 1.778.462.413.338.635.8.603 1.323 0 .4-.127.769-.38 1.107-.287.277-.636.493-1.048.554zM22 28.77h.175c.889 0 1.391-.338 1.391-.984 0-.616-.502-.785-1.36-.785H22v1.77zM50.063 29.446L52 32h-1.143L49 29.54V32h-1v-6h1.111c.826 0 1.429.154 1.778.462.413.338.635.8.603 1.323 0 .4-.127.769-.38 1.107-.287.277-.636.493-1.049.554zM49 28.77h.175c.889 0 1.391-.338 1.391-.984 0-.616-.503-.785-1.36-.785H49v1.77zM29.474 31h-1.99l-.481 1H26l2.5-6 2.5 6h-.998l-.528-1zm-.322-1l-.652-2-.64 2h1.292zM44.474 31h-1.99l-.481 1H41l2.5-6 2.5 6h-.998l-.528-1zm-.322-1l-.652-2-.64 2h1.292zM34 26v5h2v1h-3v-6h1zM39 27v5h-1v-5h-1v-1h3v1h-1z" fill="#fff"/><defs><linearGradient id="paint0_linear" x1="10.418" y1="9.712" x2="68.147" y2="76.017" gradientUnits="userSpaceOnUse"><stop stop-color="#1A1E21"/><stop offset="1" stop-color="#06060A"/></linearGradient></defs></svg>