<!-- by TradingView --><svg xmlns="http://www.w3.org/2000/svg" width="56" height="56" viewBox="0 0 56 56"><path fill="#F0F3FA" d="M0 0h56v56H0z"/><path fill-rule="evenodd" d="M42 26H25v16h17V26zm-18-1v18h19V25H24z"/><path d="M41 27H26v14h15V27zm-12.68 3h4.45v.2l-1.77.21v4.4h6v-4.4l-1.68-.2V30h3.57v.2l-.57.21v9.26l1.53.33h-4.53l1.68-.33v-4.36h-6v4.36l1.77.33h-4.45l1.16-.33V30.5l-1.16-.5zm1.99.3h-.42v9.45h.42V30.3zm6.93-.03h.42v9.45h-.42v-9.45z" fill="#0E6F60"/><path d="M34.62 28.93c-.26-.28-1.3-.83-3.37-.81-2.59.03-4.53.81-4.58 2.12-.06 1.31 2.07 1.8 3.75 1.8-1 .7-3 2.52-3.03 4.2-.02 2.1 2.75 1.94 3.65 1.86.91-.08 4.46-1.02 5.36-3.54.16-.5.1-1.5-1.4-1.45a3.61 3.61 0 0 0-3.34 2.22c.5-.62 1.85-1.87 3.35-1.9.27 0 .8.18.7.88-.12.88-1.17 2.5-4.46 3.4-.85.15-2.51.08-2.33-1.47.18-1.54 2.15-3.44 3.11-4.2 2.59.2 8.08-.85 8.4-3.1.05-.4-.11-.93-1.3-.82-1.03 0-4.1.71-8.09 3.5-1.16.1-3.47-.04-3.43-1.38.05-1.68 3.96-2.1 7-1.3zm-1.92 2.72c1.45-1.12 4.87-3.3 7.02-3 .69.2-1.7 2.52-7.02 3z" fill="#FFEBA3"/><path d="M21.5 30a9.5 9.5 0 1 0 0-19 9.5 9.5 0 0 0 0 19zM21 16h4v2h-4v8h-2V16h2z" fill="#F27D00"/><path fill-rule="evenodd" d="M21.5 29a8.5 8.5 0 1 0 0-17 8.5 8.5 0 0 0 0 17zm0 1a9.5 9.5 0 1 0 0-19 9.5 9.5 0 0 0 0 19z"/></svg>