<!-- by TradingView --><svg width="56" height="56" viewBox="0 0 56 56" xmlns="http://www.w3.org/2000/svg"><path fill="#002389" d="M0 0h56v56H0z"/><path fill-rule="evenodd" d="M13.64 19H8v13h3v-4.76L16.28 32H20l-5.52-4.97a4.06 4.06 0 0 0-.84-8.03ZM13 21h-2v4h2a2 2 0 1 0 0-4Z" fill="#fff"/><path fill-rule="evenodd" d="M23.97 32c3.86 0 6.98-2.9 6.98-6.5 0-3.59-3.12-6.5-6.98-6.5-3.86 0-6.99 2.91-6.99 6.5 0 3.6 3.13 6.5 6.99 6.5Zm0-2.49c2.38 0 4.31-1.8 4.31-4 0-2.23-1.93-4.02-4.31-4.02s-4.32 1.8-4.32 4.01c0 2.22 1.94 4.01 4.32 4.01Z" fill="#fff"/><path d="M48 27c-.74 2.87-3.53 5-6.89 5-3.93 0-7.11-2.9-7.11-6.5 0-3.59 3.18-6.5 7.11-6.5 3.36 0 6.15 2.13 6.89 5h-2.82a4.4 4.4 0 0 0-4.07-2.51c-2.42 0-4.39 1.8-4.39 4.01 0 2.22 1.97 4.01 4.39 4.01A4.4 4.4 0 0 0 45.18 27H48ZM31 19h3v13h-3zM8 34h10.56l2.9 3H8v-3ZM48 34H22.28l2.66 3H48v-3Z" fill="#fff"/></svg>