<!-- by TradingView --><svg width="56" height="56" viewBox="0 0 56 56" xmlns="http://www.w3.org/2000/svg"><path fill="#F0F3FA" d="M0 0h56v56H0z"/><path d="M41.52 25.4c.86-.28 1.7-.34 2.48-.4l-1.22.5a6.91 6.91 0 0 0-3.86 3.35c-.1.2-.26.68-.53.7L33 30a52.83 52.83 0 0 1 7.08-4.03c.48-.22.96-.4 1.44-.56Z" fill="#7A1622"/><path d="M41 27.3c-.02-.04.04-.06.08-.08.35-.14 3.59-1.56 3.9-1.14H45c.03.06-.03.14-.18.26-.52.42-1.2.73-1.83 1.03-.43.2-.9.4-1.38.6-.04.02-.1.05-.13 0l-.46-.66ZM32.85 39.1c.07.32.28.55.24.9-2.67-2.37-2.44-5-1.2-7.8.06-.17.2-.23.42-.19l1.47.33c.21.04.27.15.17.3a8.26 8.26 0 0 0-1.1 6.46Z" fill="#7A1622"/><path fill-rule="evenodd" d="M18.43 27.83c.77-1.3 1.49-2.54 3.2-2.8.12-.02.16.03.12.15-.4 1.07-.93 2.12-1.59 3.15a8.4 8.4 0 0 0-1 7.7c.34.97.98 1.56 1.93 1.8a5.1 5.1 0 0 1 3 2.28c.17.27.26.58.25.91a59.07 59.07 0 0 0 0 2.98c1.46-.52 3.24-1.06 4.4-1.89-1.09-1.04-1.98-2.38-2.71-3.38-.46-.62-1.47-2.31-1.2-3.14.45-1.44 1.5-2.54 2.84-3.46l-.03.91c-.13 2.98-.05 6.7 3.02 8.1-.18-.36-.39-.72-.6-1.07-.38-.67-.77-1.33-1.02-2.05-.62-1.77-.25-4.87 1.33-6.2.48-.4.93-1.01 1.52-1.44l-1.2.2c-2.65.52-5.14-1.22-5.07-3.3.08-2.26 3.16-3.77 5.21-2.62 1.28.72 1.32 2.18.92 3.44a.26.26 0 0 1-.15.15c-.43.17-.9.3-1.43.35-.87.1-1.48-.62-1.8-1.31a.22.22 0 0 1 .08-.29c.54-.3 1.07-.38 1.58-.73.27-.18.24-.27-.07-.27h-.9c-.32 0-.62.11-.85.32-.39.35-.8.7-.8 1.43.03 1.27 1.26 2.17 2.6 1.98.61-.08 1.19-.27 1.73-.55 2.84-1.5 6.02-3.15 9.52-4.95.87-.45 1.94-.9 2.74-1.23l-3.54-3.75-6.87 6.9c-.35.35-.55.28-.59-.22v-.47c0-.46 0-.96.34-1.34 2.36-2.66 4.2-4.86 5.63-6.6.22-.27.4-.57.54-.9a.17.17 0 0 0-.18-.24.3.3 0 0 0-.17.08c-.8.7-1.55 1.4-2.3 2.08a.2.2 0 0 1-.2.05l-2.02-.61 1.58-3.46a.2.2 0 0 0-.07-.24 7.32 7.32 0 0 0-3.42-1.18c-5.68-.52-10.76.95-15.56 4.1C13.9 19.38 12 22 11.2 25.83a10.57 10.57 0 0 0-.04 3.81c.44 2.8 2.03 5.57 3.6 7.9l1.55-1.68c-.52-1.89-1.09-3.91-1.03-5.9 0-.1.05-.15.13-.19.5-.2 1-.35 1.52-.46.47-.1.85-.38 1.13-.84l.38-.63Zm-.6-5.56c.06.13.1.32-.09.36l-5.19 1.04a.28.28 0 0 0-.22.2l-.33.97 4.25-.73c.23-.04.37.38.15.44l-4.08 1.2c-.53.15-.78.5-.75 1.06l.04.53c.03.48.27.64.73.5.33-.11.64-.25.96-.39.66-.3.88-.44 1.7-.45v1.37c-.01.1.03.16.15.15.84-.05 1.87-.33 2.31-.87a84.76 84.76 0 0 0 2.43-3.08c.95-1.26 1.8-2.23 2.56-2.9 1.8-1.6 3.98-2.66 6.52-3.19 1.25-.26 2.57-.48 3.95-.64.15-.02.28-.1.35-.23l1.75-2.82a.2.2 0 0 0-.08-.28c-.65-.35-1.23-.25-1.74.28-.66.7-1.3 1.4-1.94 2.11a.38.38 0 0 1-.18.12c-.23.07-.37-.2-.28-.4l1.18-2.5c.06-.13.02-.2-.12-.22l-.57-.1a.65.65 0 0 0-.63.25c-.4.52-.75 1.07-1.08 1.64-.42.73-1 1.17-1.73 1.32a.17.17 0 0 1-.2-.23l.95-2.75c.07-.2 0-.28-.2-.25l-.9.11a.52.52 0 0 0-.42.3c-.33.64-.71 1.3-1.13 1.95-.23.38-.56.6-.98.68h-.1a.21.21 0 0 1-.15-.26l.45-1.7c.04-.12-.01-.19-.14-.2-1.24-.22-1.88.64-2.44 1.58a.62.62 0 0 1-.67.3 3.69 3.69 0 0 0-3.08.55c-.07.06-.06.17.03.2l2.54.93c.23.08.2.5-.06.5l-4.45.03c-.41 0-.73.17-.95.51l-.14.2c-.23.36-.13.55.29.58.68.05 1.36.12 2.05.2.5.07.5.19.03.35-.24.08-.5.13-.75.15l-.22.01c-1.46.1-2.83.36-3.73 1.76l4.16-.36c.1 0 .16.03.2.12Z" fill="#7A1622"/></svg>