<!-- by TradingView --><svg width="56" height="56" viewBox="0 0 56 56" xmlns="http://www.w3.org/2000/svg"><path fill="#F0F3FA" d="M0 0h56v56H0z"/><path d="M26 24.45c0-.25.21-.45.46-.45h2.67c1.9 0 2.87.95 2.87 2.52v.02c0 1.72-1.24 2.46-3.02 2.46H27v2.55c0 .25-.27.45-.54.45a.47.47 0 0 1-.46-.45v-7.1ZM29.02 28c1.39 0 1.98-.38 1.98-1.42v-.03c0-1.13-.58-1.55-1.94-1.55H27v3h2.02ZM15 31.49v-7.04c0-.25.24-.45.5-.45h5.08c.24 0 .42.27.42.5 0 .23-.18.5-.42.5H16v2.5h4.17c.24 0 .43.28.43.5 0 .23-.2.5-.43.5H16V31h4.6c.24 0 .4.27.4.5 0 .23-.16.5-.4.5h-5.1c-.26 0-.5-.26-.5-.51ZM4 24.45c0-.25.23-.45.5-.45h3.3c1.09 0 1.96.3 2.52.8.43.38.68.94.68 1.56v.02c0 1.3-.99 2.18-2.36 2.42l2.2 2.43c.1.1.16.2.16.33 0 .24-.25.44-.5.44a.6.6 0 0 1-.47-.24L7.53 29H5v2.55c0 .25-.23.45-.5.45s-.5-.2-.5-.45v-7.1ZM7.72 28c1.32 0 2.28-.56 2.28-1.58v-.03c0-.97-.84-1.39-2.27-1.39H5v3h2.72Z" fill="#002A49"/><path d="m37.98 25.04-3.11 6.66c-.09.19-.24.3-.45.3a.41.41 0 0 1-.42-.4.5.5 0 0 1 .05-.24l3.34-6.97c.12-.24.3-.39.59-.39h.05c.28 0 .47.15.57.4l3.34 6.95c.03.08.06.16.06.22 0 .24-.2.43-.45.43-.22 0-.38-.15-.46-.33l-3.11-6.63Z" fill="#88C946"/><path d="m48 28.85-2.9-4.1a.57.57 0 0 1-.1-.31c0-.24.21-.44.46-.44.2 0 .32.11.43.27l2.62 3.75 2.63-3.75c.11-.16.23-.27.42-.27.25 0 .44.2.44.44 0 .11-.07.24-.12.33L49 28.82v2.73c0 .25-.26.45-.5.45-.25 0-.5-.2-.5-.45v-2.7Z" fill="#002A49"/><path d="M42.62 29h-4.24c-.21 0-.38-.2-.38-.45v-.1c0-.25.17-.45.38-.45h4.24c.21 0 .38.2.38.45v.1c0 .25-.17.45-.38.45Z" fill="#88C946"/></svg>