<!-- by TradingView --><svg xmlns="http://www.w3.org/2000/svg" width="56" height="56" viewBox="0 0 56 56"><path fill="#F0F3FA" d="M0 0h56v56H0z"/><circle cx="17.09" cy="27.89" fill="#FB8B0E" r=".47"/><ellipse cx="20.12" cy="22.05" rx=".54" ry=".53" fill="#6A45A5"/><ellipse cx="21.44" cy="20.22" rx=".54" ry=".53" fill="#6A45A5"/><ellipse cx="23.18" cy="18.33" rx=".54" ry=".53" fill="#6A45A5"/><circle cx="24.92" cy="16.46" fill="#6A45A5" r=".58"/><circle cx="35.38" cy="13.97" fill="#82C628" r=".7"/><circle cx="26.69" cy="14.93" fill="#6A45A5" r=".58"/><circle cx="28.59" cy="13.68" fill="#6A45A5" r=".58"/><circle cx="30.26" cy="12.69" fill="#6A45A5" r=".58"/><circle cx="31.81" cy="12.03" fill="#6A45A5" r=".66"/><circle cx="33.44" cy="11.66" fill="#6A45A5" r=".66"/><circle cx="34.66" cy="11.85" fill="#6A45A5" r=".72"/><circle cx="35.55" cy="12.44" fill="#6A45A5" r=".72"/><circle cx="36.21" cy="13.4" fill="#6A45A5" r=".72"/><circle cx="17.7" cy="26.5" fill="#FB8B0E" r=".47"/><circle cx="20.66" cy="22.34" fill="#82C628" r=".55"/><circle cx="21.87" cy="20.77" fill="#82C628" r=".55"/><circle cx="21.01" cy="22.6" fill="#FB8B0E" r=".52"/><circle cx="22.23" cy="21.23" fill="#FB8B0E" r=".52"/><circle cx="23.9" cy="19.99" fill="#FB8B0E" r=".52"/><circle cx="25.64" cy="18.98" fill="#FB8B0E" r=".57"/><ellipse cx="27.27" cy="18.04" rx=".67" ry=".66" fill="#FB8B0E"/><ellipse cx="28.89" cy="17.29" rx=".67" ry=".66" fill="#FB8B0E"/><ellipse cx="30.58" cy="16.78" rx=".67" ry=".66" fill="#FB8B0E"/><ellipse cx="32.26" cy="16.37" rx=".67" ry=".66" fill="#FB8B0E"/><ellipse cx="33.94" cy="16.12" rx=".67" ry=".66" fill="#FB8B0E"/><ellipse cx="35.6" cy="16.17" rx=".67" ry=".66" fill="#FB8B0E"/><ellipse cx="17.09" cy="25.43" rx=".61" ry=".6" fill="#6A45A5"/><ellipse cx="15.79" cy="26.48" rx=".61" ry=".6" fill="#6A45A5"/><circle cx="38.6" cy="17.01" fill="#FB8B0E" r=".7"/><circle cx="39.24" cy="18.02" fill="#FB8B0E" r=".68"/><circle cx="39.61" cy="19.2" fill="#FB8B0E" r=".68"/><ellipse cx="14.52" cy="27.82" rx=".61" ry=".6" fill="#6A45A5"/><ellipse cx="13.39" cy="29.25" rx=".61" ry=".6" fill="#6A45A5"/><circle cx="12.5" cy="30.76" fill="#6A45A5" r=".65"/><circle cx="11.92" cy="32.42" fill="#6A45A5" r=".69"/><circle cx="11.69" cy="34.29" fill="#6A45A5" r=".69"/><circle cx="11.8" cy="36.02" fill="#6A45A5" r=".69"/><ellipse cx="12.42" cy="37.67" rx=".84" ry=".83" fill="#6A45A5"/><ellipse cx="13.61" cy="39.39" rx=".84" ry=".83" fill="#6A45A5"/><ellipse cx="15.59" cy="40.64" rx=".9" ry=".89" fill="#6A45A5"/><ellipse cx="17.85" cy="41.6" rx=".96" ry=".95" fill="#6A45A5"/><ellipse cx="20.78" cy="41.97" rx="1.04" ry="1.03" fill="#6A45A5"/><ellipse cx="24.09" cy="41.83" rx="1.04" ry="1.03" fill="#6A45A5"/><ellipse cx="27.62" cy="40.94" rx="1.04" ry="1.03" fill="#6A45A5"/><ellipse cx="31.3" cy="39.77" rx="1.04" ry="1.03" fill="#6A45A5"/><ellipse cx="34.72" cy="38" rx="1.1" ry="1.09" fill="#6A45A5"/><ellipse cx="37.94" cy="35.89" rx="1.14" ry="1.13" fill="#6A45A5"/><ellipse cx="42.48" cy="30.85" rx="1.17" ry="1.16" fill="#6A45A5"/><ellipse cx="43.47" cy="28.57" rx="1.05" ry="1.04" fill="#6A45A5"/><ellipse cx="44.06" cy="26.38" rx=".94" ry=".93" fill="#6A45A5"/><ellipse cx="43.98" cy="24.56" rx=".73" ry=".72" fill="#6A45A5"/><circle cx="43.45" cy="23.1" fill="#6A45A5" r=".61"/><circle cx="42.32" cy="21.7" fill="#6A45A5" r=".61"/><circle cx="40.56" cy="20" fill="#82C628" r=".61"/><circle cx="41.38" cy="20.97" fill="#82C628" r=".67"/><circle cx="41.9" cy="22.22" fill="#82C628" r=".67"/><circle cx="42.15" cy="23.78" fill="#82C628" r=".85"/><ellipse cx="41.85" cy="25.65" rx=".99" ry=".98" fill="#82C628"/><ellipse cx="41.25" cy="27.66" rx="1.08" ry="1.07" fill="#82C628"/><ellipse cx="39.94" cy="29.82" rx="1.14" ry="1.13" fill="#82C628"/><ellipse cx="38.3" cy="32.08" rx="1.14" ry="1.13" fill="#82C628"/><ellipse cx="36" cy="34.25" rx="1.05" ry="1.04" fill="#82C628"/><circle cx="33.56" cy="36.19" fill="#82C628" r=".9"/><circle cx="30.63" cy="37.85" fill="#82C628" r=".9"/><circle cx="27.62" cy="39.09" fill="#82C628" r=".9"/><ellipse cx="14.45" cy="37.71" rx=".8" ry=".79" fill="#82C628"/><circle cx="13.75" cy="36.43" fill="#82C628" r=".72"/><ellipse cx="13.52" cy="35.01" rx=".65" ry=".64" fill="#82C628"/><ellipse cx="13.52" cy="33.6" rx=".65" ry=".64" fill="#82C628"/><ellipse cx="13.8" cy="32.11" rx=".65" ry=".64" fill="#82C628"/><ellipse cx="14.44" cy="30.54" rx=".53" ry=".52" fill="#82C628"/><ellipse cx="15.13" cy="29.22" rx=".53" ry=".52" fill="#82C628"/><circle cx="15.91" cy="28.22" fill="#82C628" r=".48"/><circle cx="16.75" cy="27.26" fill="#82C628" r=".48"/><circle cx="17.42" cy="26" fill="#82C628" r=".48"/><circle cx="21.38" cy="22.82" fill="#82C628" r=".48"/><ellipse cx="22.65" cy="21.68" rx=".55" ry=".54" fill="#82C628"/><ellipse cx="24.31" cy="20.97" rx=".55" ry=".54" fill="#82C628"/><ellipse cx="25.93" cy="20.38" rx=".55" ry=".54" fill="#82C628"/><circle cx="27.69" cy="19.88" fill="#82C628" r=".64"/><circle cx="29.37" cy="19.4" fill="#82C628" r=".7"/><circle cx="30.97" cy="19.03" fill="#82C628" r=".7"/><circle cx="32.71" cy="18.77" fill="#82C628" r=".7"/><circle cx="34.33" cy="18.62" fill="#82C628" r=".7"/><circle cx="37.06" cy="14.91" fill="#82C628" r=".7"/><circle cx="37.64" cy="16.37" fill="#82C628" r=".7"/><circle cx="37.76" cy="17.84" fill="#82C628" r=".7"/><ellipse cx="37.75" cy="19.4" rx=".81" ry=".8" fill="#82C628"/><ellipse cx="37.4" cy="21.09" rx=".94" ry=".93" fill="#82C628"/><circle cx="36.48" cy="14.64" fill="#6A45A5" r=".72"/><ellipse cx="36.45" cy="16.16" rx=".85" ry=".84" fill="#6A45A5"/><circle cx="36.27" cy="17.92" fill="#6A45A5" r="1"/><ellipse cx="35.46" cy="20.16" rx="1.1" ry="1.09" fill="#6A45A5"/><ellipse cx="34.44" cy="22.23" rx="1.02" ry="1.01" fill="#6A45A5"/><ellipse cx="33.55" cy="24.26" rx=".89" ry=".88" fill="#6A45A5"/><ellipse cx="32.61" cy="26.19" rx=".89" ry=".88" fill="#6A45A5"/><circle cx="31.65" cy="28.07" fill="#6A45A5" r=".85"/><circle cx="30.66" cy="29.73" fill="#6A45A5" r=".72"/><ellipse cx="29.63" cy="31.31" rx=".7" ry=".69" fill="#6A45A5"/><ellipse cx="28.59" cy="32.77" rx=".63" ry=".62" fill="#6A45A5"/><ellipse cx="27.62" cy="34.23" rx=".63" ry=".62" fill="#6A45A5"/><ellipse cx="26.67" cy="35.58" rx=".63" ry=".62" fill="#6A45A5"/><ellipse cx="25.41" cy="36.73" rx=".63" ry=".62" fill="#6A45A5"/><circle cx="17.84" cy="37.35" fill="#6A45A5" r=".41"/><circle cx="17.42" cy="36.16" fill="#6A45A5" r=".46"/><circle cx="17.06" cy="34.98" fill="#6A45A5" r=".46"/><circle cx="16.79" cy="33.82" fill="#6A45A5" r=".48"/><circle cx="16.83" cy="32.54" fill="#6A45A5" r=".48"/><circle cx="17" cy="31.26" fill="#6A45A5" r=".48"/><circle cx="17.28" cy="29.84" fill="#6A45A5" r=".48"/><circle cx="17.63" cy="28.65" fill="#6A45A5" r=".48"/><circle cx="18.25" cy="27.34" fill="#6A45A5" r=".48"/><circle cx="19.13" cy="25.46" fill="#6A45A5" r=".48"/><circle cx="19.59" cy="23.54" fill="#FB8B0E" r=".47"/><circle cx="19.12" cy="23.3" fill="#6A45A5" r=".48"/><ellipse cx="36.71" cy="23" rx="1.04" ry="1.03" fill="#82C628"/><circle cx="35.76" cy="25.06" fill="#82C628" r=".96"/><circle cx="34.71" cy="27.15" fill="#82C628" r=".96"/><ellipse cx="33.48" cy="29.04" rx=".95" ry=".94" fill="#82C628"/><ellipse cx="32.2" cy="30.95" rx=".95" ry=".94" fill="#82C628"/><ellipse cx="30.72" cy="32.62" rx=".86" ry=".85" fill="#82C628"/><ellipse cx="29.22" cy="34.21" rx=".75" ry=".74" fill="#82C628"/><ellipse cx="27.62" cy="35.69" rx=".75" ry=".74" fill="#82C628"/><ellipse cx="25.92" cy="36.78" rx=".75" ry=".74" fill="#82C628"/><circle cx="24.39" cy="37.57" fill="#82C628" r=".63"/><circle cx="22.96" cy="38.15" fill="#82C628" r=".63"/><circle cx="21.56" cy="38.39" fill="#82C628" r=".54"/><circle cx="20.22" cy="38.39" fill="#82C628" r=".54"/><circle cx="18.71" cy="38.15" fill="#82C628" r=".54"/><circle cx="17.34" cy="37.32" fill="#82C628" r=".54"/><circle cx="16.49" cy="36.24" fill="#82C628" r=".54"/><circle cx="16.25" cy="34.91" fill="#82C628" r=".54"/><circle cx="16.25" cy="33.49" fill="#82C628" r=".54"/><circle cx="16.35" cy="31.95" fill="#82C628" r=".54"/><circle cx="16.46" cy="30.56" fill="#82C628" r=".54"/><ellipse cx="16.87" cy="29.43" rx=".47" ry=".46" fill="#82C628"/><ellipse cx="17.34" cy="28.36" rx=".47" ry=".46" fill="#82C628"/><ellipse cx="18.01" cy="26.96" rx=".47" ry=".46" fill="#82C628"/><ellipse cx="18.94" cy="25.22" rx=".47" ry=".46" fill="#82C628"/><ellipse cx="33.67" cy="13.76" rx=".66" ry=".65" fill="#82C628"/><ellipse cx="32.01" cy="13.92" rx=".66" ry=".65" fill="#82C628"/><ellipse cx="30.49" cy="14.41" rx=".66" ry=".65" fill="#82C628"/><ellipse cx="28.71" cy="15.23" rx=".66" ry=".65" fill="#82C628"/><ellipse cx="26.93" cy="16.23" rx=".63" ry=".62" fill="#82C628"/><ellipse cx="25.12" cy="17.59" rx=".63" ry=".62" fill="#82C628"/><circle cx="23.5" cy="19.03" fill="#82C628" r=".55"/><circle cx="38.69" cy="20.61" fill="#6A45A5" r=".61"/><circle cx="34.33" cy="20.49" fill="#6A45A5" r=".61"/><ellipse cx="39.77" cy="20.61" rx=".84" ry=".83" fill="#FB8B0E"/><ellipse cx="39.77" cy="22.59" rx="1.09" ry="1.08" fill="#FB8B0E"/><ellipse cx="39.43" cy="24.37" rx="1.09" ry="1.08" fill="#FB8B0E"/><ellipse cx="38.59" cy="26.3" rx="1.16" ry="1.15" fill="#FB8B0E"/><ellipse cx="37.24" cy="28.52" rx="1.16" ry="1.15" fill="#FB8B0E"/><ellipse cx="35.78" cy="30.52" rx="1.07" ry="1.06" fill="#FB8B0E"/><ellipse cx="34.12" cy="32.48" rx="1.07" ry="1.06" fill="#FB8B0E"/><ellipse cx="32.13" cy="34.23" rx="1.07" ry="1.06" fill="#FB8B0E"/><ellipse cx="29.9" cy="35.89" rx="1.07" ry="1.06" fill="#FB8B0E"/><ellipse cx="27.5" cy="37.25" rx="1.07" ry="1.06" fill="#FB8B0E"/><ellipse cx="25.51" cy="38.51" rx="1" ry=".99" fill="#FB8B0E"/><ellipse cx="23.51" cy="39.07" rx="1" ry=".99" fill="#FB8B0E"/><circle cx="21.38" cy="39.57" fill="#FB8B0E" r=".94"/><ellipse cx="19.43" cy="39.5" rx=".88" ry=".87" fill="#FB8B0E"/><ellipse cx="17.71" cy="38.78" rx=".78" ry=".77" fill="#FB8B0E"/><circle cx="16.32" cy="37.64" fill="#FB8B0E" r=".71"/><circle cx="15.36" cy="36.47" fill="#FB8B0E" r=".69"/><ellipse cx="15.04" cy="35.07" rx=".59" ry=".58" fill="#FB8B0E"/><ellipse cx="15.04" cy="33.6" rx=".59" ry=".58" fill="#FB8B0E"/><ellipse cx="15.25" cy="32.06" rx=".59" ry=".58" fill="#FB8B0E"/><ellipse cx="15.81" cy="30.58" rx=".59" ry=".58" fill="#FB8B0E"/><circle cx="16.3" cy="29.22" fill="#FB8B0E" r=".49"/><circle cx="32.69" cy="20.67" fill="#6A45A5" r=".57"/><circle cx="31.15" cy="20.89" fill="#6A45A5" r=".57"/><circle cx="18.65" cy="24.83" fill="#FB8B0E" r=".47"/><circle cx="29.66" cy="21.23" fill="#6A45A5" r=".57"/><circle cx="28.1" cy="21.46" fill="#6A45A5" r=".57"/><circle cx="26.48" cy="21.8" fill="#6A45A5" r=".57"/><circle cx="24.92" cy="22.16" fill="#6A45A5" r=".57"/><circle cx="23.3" cy="22.65" fill="#6A45A5" r=".57"/><circle cx="21.71" cy="23.07" fill="#6A45A5" r=".57"/><ellipse cx="40.66" cy="33.48" rx="1.3" ry="1.29" fill="#6A45A5"/><circle cx="20.18" cy="23.82" fill="#6A45A5" r=".52"/><circle cx="24.6" cy="40.05" fill="#82C628" r=".9"/><circle cx="21.88" cy="40.52" fill="#82C628" r=".9"/><circle cx="19.25" cy="40.35" fill="#82C628" r=".9"/><ellipse cx="17.28" cy="39.86" rx=".8" ry=".79" fill="#82C628"/><ellipse cx="15.8" cy="38.97" rx=".8" ry=".79" fill="#82C628"/><circle cx="18.42" cy="24.46" fill="#6A45A5" r=".52"/></svg>