<!-- by TradingView --><svg width="56" height="56" viewBox="0 0 56 56" xmlns="http://www.w3.org/2000/svg"><path fill="#F0F3FA" d="M0 0h56v56H0z"/><path d="M8.03 33.1C9.83 25.33 24.76 18.46 32 16c-15.2 6.73-20 13-20 16.36 0 3.34 6.9 2.2 10.91 1.55l.09-.02c-1.56.56-8.25 2.11-10.78 2.11-2.53 0-4.48-1.4-4.2-2.9Z" fill="url(#arjgp02v4)"/><path d="M14.06 31.19C15.82 24.06 28.67 18.16 35 16c-11.45 4.5-18 11.25-18 14.81 0 3.16 6.84 1.85 10 1.19-2.33.94-5.96 2-9.22 2-3.26 0-4.01-1.66-3.72-2.81Z" fill="url(#brjgp02v4)"/><path d="M19.02 29.53C20.16 23.07 33 17 39 15c-9.38 3.7-17 10.07-17 13.87 0 3.04 5.87 2.02 9 1.13-2.02.66-6.15 2-8.2 2-2.55 0-3.98-1.33-3.78-2.47Z" fill="url(#crjgp02v4)"/><path d="M47.97 22.9C46.17 30.67 31.24 37.54 24 40c15.2-6.73 20-13 20-16.36 0-3.36-7-2.3-11-1.64 1.56-.56 8.25-2 10.78-2 2.53 0 4.48 1.4 4.2 2.9Z" fill="url(#drjgp02v4)"/><path d="M41.94 24.81C40.18 31.94 27.33 37.84 21 40c11.45-4.5 18-11.25 18-14.81 0-3.16-6.84-1.85-10-1.19 2.33-.94 5.96-2 9.22-2 3.26 0 4.01 1.66 3.72 2.81Z" fill="url(#erjgp02v4)"/><path d="M36.98 26.47C35.85 32.93 23 39 17 41c9.38-3.7 17-10.07 17-13.87 0-3.04-5.87-2.02-9-1.13 2.02-.66 6.15-2 8.2-2 2.55 0 3.98 1.33 3.78 2.47Z" fill="url(#frjgp02v4)"/><defs><linearGradient id="arjgp02v4" x1="16.02" y1="21.98" x2="20.55" y2="34.63" gradientUnits="userSpaceOnUse"><stop offset=".29" stop-color="#00164B"/><stop offset=".55" stop-color="#F3F5F7"/><stop offset=".9" stop-color="#4DC23C"/></linearGradient><linearGradient id="brjgp02v4" x1="21.02" y1="21.38" x2="25.18" y2="32.69" gradientUnits="userSpaceOnUse"><stop offset=".29" stop-color="#00164B"/><stop offset=".55" stop-color="#F3F5F7"/><stop offset=".9" stop-color="#4DC23C"/></linearGradient><linearGradient id="crjgp02v4" x1="25.68" y1="20.08" x2="29.59" y2="30.79" gradientUnits="userSpaceOnUse"><stop offset=".29" stop-color="#00164B"/><stop offset=".55" stop-color="#F3F5F7"/><stop offset=".9" stop-color="#4DC23C"/></linearGradient><linearGradient id="drjgp02v4" x1="39.98" y1="34.02" x2="35.45" y2="21.37" gradientUnits="userSpaceOnUse"><stop offset=".37" stop-color="#00164B"/><stop offset=".61" stop-color="#F3F5F7"/><stop offset=".75" stop-color="#54B948"/></linearGradient><linearGradient id="erjgp02v4" x1="34.98" y1="34.62" x2="30.82" y2="23.31" gradientUnits="userSpaceOnUse"><stop offset=".37" stop-color="#00164B"/><stop offset=".61" stop-color="#F3F5F7"/><stop offset=".75" stop-color="#54B948"/></linearGradient><linearGradient id="frjgp02v4" x1="30.32" y1="35.92" x2="26.41" y2="25.21" gradientUnits="userSpaceOnUse"><stop offset=".37" stop-color="#00164B"/><stop offset=".61" stop-color="#F3F5F7"/><stop offset=".75" stop-color="#54B948"/></linearGradient></defs></svg>