<!-- by TradingView --><svg width="56" height="56" viewBox="0 0 56 56" xmlns="http://www.w3.org/2000/svg"><path fill="#F0F3FA" d="M0 0h56v56H0z"/><path d="M19 23.5h-2.09V25H19v-1.5Z" fill="#204A23"/><path d="M19 23h-2.05v1H19v-1Z" fill="#200D0D"/><path d="M17.25 23.5h-2.08V25h2.08v-1.5Z" fill="#2FB44A"/><path d="M15.5 23.5h-1.93V25h1.93v-1.5Z" fill="#147A3D"/><path d="M13.75 23.5H12V25h1.75v-1.5Z" fill="#122113"/><path d="M17.25 23h-2.08v1h2.08v-1Z" fill="#64BC46"/><path d="M15.5 23h-2.01v1h2.01v-1Z" fill="#19321A"/><path d="M13.75 23H12v1h1.75v-1Z" fill="#010101"/><path d="M19 30.5h-2.09V32H19v-1.5Z" fill="#0F1B0F"/><path d="M19 30h-2.05v1H19v-1Z" fill="#15793D"/><path d="M17.25 30.5h-2.08V32h2.08v-1.5Z" fill="#1C3D1C"/><path d="M15.5 30.5h-1.93V32h1.93v-1.5Z" fill="#3E1312"/><path d="M13.75 30.5H12V32h1.75v-1.5Z" fill="#0F1B10"/><path d="M17.25 30h-2.08v1h2.08v-1Z" fill="#3E1312"/><path d="M15.5 30h-2.01v1h2.01v-1Z" fill="#15A049"/><path d="M13.75 30H12v1h1.75v-1Z" fill="#1A351A"/><path d="M19 27.5h-2.09v1H19v-1Z" fill="#18B24B"/><path d="M17.25 27.5h-2.08v1h2.08v-1Z" fill="#1C3D1C"/><path d="M15.5 27.5h-1.93v1h1.93v-1Z" fill="#9C1C1F"/><path d="M13.75 27.5H12v1h1.75v-1Z" fill="#204A23"/><path d="M19 26.5h-2.05v1H19v-1Z" fill="#6ABD45"/><path d="M17.25 26.5h-2.08v1h2.08v-1Z" fill="#188441"/><path d="M15.5 26.5h-2.01v1h2.01v-1Z" fill="#15793D"/><path d="M13.75 26.5H12v1h1.75v-1Z" fill="#11190F"/><path d="M4 32v-9h3.41c1.05 0 1.7.12 2.16.42.65.4 1 1.11 1 1.98 0 1.18-.59 1.95-1.67 2.19.61.17.78.43 1.27 1.93L11 32H8.68L8 29.73c-.27-.93-.6-1.2-1.42-1.2H6V32H4Zm3.03-5c.9 0 1.65-.52 1.65-1.2 0-.72-.8-1.07-1.76-1.07H6V27h1.03ZM37 32v-9h3.41c1.05 0 1.7.12 2.16.42.65.4 1 1.11 1 1.98 0 1.18-.59 1.95-1.67 2.19.61.17.78.43 1.27 1.93L44 32h-2.32L41 29.73c-.27-.93-.6-1.2-1.42-1.2H39V32h-2Zm3.03-5c.9 0 1.47-.52 1.47-1.2 0-.72-.63-1.07-1.58-1.07H39V27h1.03ZM21 32v-9h2.83c1.87 0 3.17.88 3.17 2.89 0 2.14-1.52 3.11-3.43 3.11H23v3h-2Zm2.42-5c.79 0 1.6-.18 1.58-1.09 0-.94-.8-1.19-1.6-1.19H23V27h.42ZM33.63 32 33 30h-3l-.67 2H27l3.16-9h2.66L36 32h-2.37Zm-2.16-7.23c-.18 1.24-.7 2.47-1.07 3.67h2.06c-.34-1.2-.83-2.43-1-3.67ZM52 32h-6v-9h6v2h-4v1.5h3v2h-3V30h4v2Z" fill="#231F20"/></svg>