<!-- by TradingView --><svg width="56" height="56" viewBox="0 0 56 56" xmlns="http://www.w3.org/2000/svg"><path fill="#F0F3FA" d="M0 0h56v56H0z"/><path d="M32.92 35A5.33 5.33 0 0 1 29 33.5l.82-1.91A4.59 4.59 0 0 0 33 33c1.5 0 2-.94 2-2 0-1.15-1.17-1.74-2.07-2-2.01-.66-3.93-1.73-3.93-4 0-2.4 1.8-4 4.25-4 1.2 0 2.44.4 3.34 1.2l-.92 1.86A4.28 4.28 0 0 0 33 23c-1.5 0-2 .95-2 2 0 1.15 1.62 1.71 2.5 2 2 .64 3.5 1.52 3.5 3.8 0 2.4-1.66 4.2-4.08 4.2Z" fill="#F57E22"/><path fill-rule="evenodd" d="M28 41a13 13 0 1 0 0-26 13 13 0 0 0 0 26Zm0 4a17 17 0 1 0 0-34 17 17 0 0 0 0 34Z" fill="#F57E22"/><path d="M27 21h-2v14h2V21ZM20 25.5a4.5 4.5 0 0 1 4-4.47v2.02a2.5 2.5 0 0 0 0 4.9v2.02h-.03L24 30l-2 5h-2.5l2.62-5.68A4.5 4.5 0 0 1 20 25.5Z" fill="#F57E22"/></svg>