<!-- by TradingView --><svg width="56" height="56" viewBox="0 0 56 56" xmlns="http://www.w3.org/2000/svg"><path fill="#F0F3FA" d="M0 0h56v56H0z"/><path d="m24.04 25.59 5.84-5.84L25.36 15l-6.38 6.61a6.16 6.16 0 0 1 5.06 3.98ZM12.17 29.31 6 35.48 10.52 40l5.63-5.63a6.16 6.16 0 0 1-3.98-5.06Z" fill="#009CDC"/><path d="M26.82 27.66V27h-3.1v.33h.62V29h-.62v.33h3.1v-.67h-.31V29h-1.87v-.67h1.56V28h-1.56v-.67h1.87v.33h.3ZM27.26 28.66v.67h.3v-.1a2.62 2.62 0 0 0 1.02.17l.46-.03c.15-.02.3-.06.42-.11a.81.81 0 0 0 .3-.22.5.5 0 0 0 .12-.34.55.55 0 0 0-.09-.32.65.65 0 0 0-.2-.2.94.94 0 0 0-.26-.1 2.24 2.24 0 0 0-.21-.03l-1-.1a.69.69 0 0 1-.34-.1.27.27 0 0 1-.13-.24c0-.05.02-.1.05-.14a.41.41 0 0 1 .17-.12c.07-.04.17-.06.28-.09a2.54 2.54 0 0 1 .96.02c.17.04.3.08.39.14v.24h.3V27h-.3v.08a2.93 2.93 0 0 0-1.79 0 .79.79 0 0 0-.29.2.52.52 0 0 0-.11.34c0 .14.03.24.09.33.06.08.13.14.2.19.1.05.17.08.26.1l.2.04 1.02.1c.14.01.25.05.33.1.08.06.12.14.12.23 0 .05-.02.1-.05.15a.46.46 0 0 1-.18.12 2.51 2.51 0 0 1-.73.12c-.21 0-.4-.03-.58-.06a1.4 1.4 0 0 1-.42-.14v-.24h-.31ZM33.35 28.66h-.31V29h-1.86v-.66h1.55V28h-1.55v-.67h1.86v.33h.3V27h-3.1v.33h.63V29h-.62v.34h3.1v-.67ZM34.73 27.33H36a.54.54 0 0 1 .38.15.48.48 0 0 1 .15.35.48.48 0 0 1-.15.35.54.54 0 0 1-.38.15h-1.26v-1Zm.62 1.66h-.62v-.33h.94l.39.41c.07.08.16.14.27.19.1.04.21.07.33.07H37v-.34h-.32a.57.57 0 0 1-.4-.15l-.16-.18a.86.86 0 0 0 .7-.53.8.8 0 0 0-.02-.62.83.83 0 0 0-.45-.44.85.85 0 0 0-.33-.07h-2.2v.33h.61V29h-.62v.34h1.55v-.34ZM38.56 29h-.58v.33h1.87v-.34h-.58l.9-1.66h.6V27h-1.54v.33h.58l-.9 1.66-.89-1.66h.59V27h-1.56v.33h.61l.9 1.66ZM41.57 27.8a.94.94 0 0 1 .24-.3 1.27 1.27 0 0 1 .8-.28 1.28 1.28 0 0 1 .81.28c.1.09.18.19.24.3a.76.76 0 0 1 0 .7.95.95 0 0 1-.24.3c-.1.09-.22.16-.36.2a1.27 1.27 0 0 1-1.25-.2.94.94 0 0 1-.24-.3.77.77 0 0 1 0-.7Zm-.31.84c.08.15.18.28.32.4.13.11.28.2.46.27a1.68 1.68 0 0 0 1.15 0c.18-.07.34-.16.47-.27.13-.12.24-.25.32-.4a1.06 1.06 0 0 0 0-.97 1.3 1.3 0 0 0-.32-.4 1.68 1.68 0 0 0-2.08 0c-.14.11-.24.25-.32.4a1.06 1.06 0 0 0 0 .97ZM45.96 29h-.63v-1.67h.63V27h-1.57v.33h.63V29h-.63v.34h1.57v-.34ZM47.21 27.33h1.28a.56.56 0 0 1 .38.15.47.47 0 0 1 .15.35.47.47 0 0 1-.15.35.54.54 0 0 1-.38.15H47.2v-1Zm.63 1.66h-.63v-.33h.96l.38.41c.08.08.17.14.28.19.1.04.22.07.34.07h.33v-.34h-.32a.58.58 0 0 1-.4-.15l-.17-.18a.89.89 0 0 0 .54-.27.8.8 0 0 0-.03-1.15.87.87 0 0 0-.61-.24h-2.24v.33h.63V29h-.63v.34h1.57v-.34Z"/><path d="M30.58 30.69a11.47 11.47 0 1 1 .1-4.42h-4.53a7.03 7.03 0 1 0-.19 4.42h4.62Z" fill="#AAA"/><path d="M22.28 31c-.35 0-.69-.07-1-.18-.78-.29-1.42-1.27-2.02-1.82H17v1h1.6v1H14v-1h2v-4h-2v-1h6.55c1.2 0 2.45.68 2.45 2 0 1.2-1.13 1.88-2.24 2 .5.46.8 1 1.52 1H50v1H22.28ZM17 28h3.5c.73 0 1.5-.18 1.5-1 0-.86-.76-1-1.5-1H17v2Z"/></svg>