<!-- by TradingView --><svg width="56" height="56" viewBox="0 0 56 56" xmlns="http://www.w3.org/2000/svg"><path fill="#F0F3FA" d="M0 0h56v56H0z"/><path fill-rule="evenodd" d="M14.51 28.03c.07-4.23.48-12.36 4.49-14.98 3.4-2.24 9.53-1.31 16.91 3.66 7.39 4.97 10.22 8.9 9.46 12.22-.76 3.31-3.25 7.1-11.74 11.66-8.49 4.56-12.9 3.8-14.63 2.56-1.73-1.24-4.49-4.77-4.49-15.12Zm9.07-.08c.02-1.5.17-4.5 1.6-5.42 1.21-.8 3-.13 5.64 1.63 2.63 1.76 3.74 3.08 3.47 4.25-.27 1.18-1.26 2.33-4.29 3.94-3.02 1.61-4.67 1.61-5.28 1.17-.62-.44-1.14-1.9-1.14-5.57Z" fill="#85C742"/></svg>