<!-- by TradingView --><svg width="56" height="56" viewBox="0 0 56 56" xmlns="http://www.w3.org/2000/svg"><path fill="url(#akpzfhclx)" d="M0 0h56v56H0z"/><path fill-rule="evenodd" d="M5 36h6.5v-.56h-1.2c-.59 0-.8-.5-.8-1.1V29h1.9c.5.72 1.3 1.98 2 3.06L14.66 34c.57.81 1.8 2 3.48 2H21v-.56h-1.01a3.73 3.73 0 0 1-2.13-1.27c-.83-.94-3.36-4.14-4.52-5.62a5.13 5.13 0 0 0 3.16-4.8c0-2.77-2.77-3.75-4.51-3.75H5v.4h.91c.5 0 1.09.42 1.09.93v13c0 .62-.67 1.11-1.27 1.11H5V36Zm4.5-14.7v6.14c.04.19.36.56 1.3.56h.04c1.18 0 3.16 0 3.16-3.49C14 21 11.14 21 10.66 21c-.46 0-1.16.04-1.16.3Z" fill="#fff"/><path fill-rule="evenodd" d="M27.5 36c4.7 0 8.5-3.58 8.5-8s-3.8-8-8.5-8-8.5 3.58-8.5 8 3.8 8 8.5 8Zm1.25-.99c3.05-.52 4.97-4.11 4.27-8.03-.7-3.9-3.74-6.66-6.8-6.14-3.05.52-4.96 4.11-4.27 8.02.7 3.92 3.74 6.67 6.8 6.15Z" fill="#fff"/><path d="M36 28c0 4.42-3.8 8-8.5 8-1.6 0-3.1-.42-4.39-1.15l.75-1.87c1.31 1.52 3.1 2.33 4.89 2.03 3.05-.52 4.97-4.11 4.27-8.03a8.22 8.22 0 0 0-2.84-5.01c.8-.16 1.64-.26 2.47-.34A7.84 7.84 0 0 1 36 28Zm-13.92 6.17-.35-.3c-.32-.86-.72-2.34-.72-3.94 0-1.04.23-2 .8-2.93a9.1 9.1 0 0 0 1.37 5.07c-.35.6-.76 1.33-1.1 2.1Z" fill="#939598"/><path d="M35.51 21.71c-8.6-.16-12.65 3.31-13.7 5.29a9.19 9.19 0 0 0 1.35 5.04A22.14 22.14 0 0 1 27.38 27c-2 2.67-3.14 5.01-3.51 5.98 1.06 1.15 1.64 1.52 2.53 1.8 4-1.26 4.15-3.43 5.2-7.53.84-3.3 2.96-5.06 3.91-5.54Z" fill="#99A93A"/><path d="M50.54 35.07c.15-1 .46-3 .46-3.12h-.46c-.46 2.17-1.86 2.85-4.39 2.85a6.7 6.7 0 0 1-6.3-6.88c0-4.6 1.94-6.78 6.3-6.78 3.49 0 4.2 2.38 4.13 3.56H51v-3.84a13.4 13.4 0 0 0-4.85-.86C41.3 20 37 22 37 27.92S41.88 36 46.15 36c3.41 0 4.35-.62 4.39-.93Z" fill="#fff"/><defs><linearGradient id="akpzfhclx" x1="10.42" y1="9.71" x2="68.15" y2="76.02" gradientUnits="userSpaceOnUse"><stop stop-color="#1A1E21"/><stop offset="1" stop-color="#06060A"/></linearGradient></defs></svg>