<!-- by TradingView --><svg xmlns="http://www.w3.org/2000/svg" width="56" height="56" viewBox="0 0 56 56"><path fill="#F0F3FA" d="M0 0h56v56H0z"/><path d="M21.27 31.8c-2.54 4.82-8.2 6.87-12.63 4.58-4.43-2.3-5.95-8.05-3.41-12.87 2.54-4.82 8.2-6.86 12.63-4.57 4.43 2.29 5.95 8.05 3.41 12.87Z" fill="#A8AAA9"/><path d="M22.48 32.44c-2.53 4.78-8 6.88-12.22 4.7-4.22-2.19-5.6-7.83-3.07-12.61 2.52-4.78 8-6.89 12.21-4.7 4.23 2.18 5.6 7.83 3.08 12.6Z" fill="url(#apvb2vt4p)"/><path d="M18.67 19.65c-1.7 3.17-5.32 11.23-6.26 18.05l6.26-18.05Z" fill="#BEBFC1"/><path d="m12.41 37.77 6.3-18.16a77.34 77.34 0 0 1-1.92 8.46c-.81 2.54-3.26 7.52-4.38 9.7Z" fill="#FAFAFA"/><path fill-rule="evenodd" d="M10.27 23.48c1.12-.35 3.8-1.12 5.52-1.37 2.15-.32 3.57.36 3.88 1.88.32 1.53-1.53 3.48-2.7 4.04.69.76 2.3 2.66 3.22 4.2.09.05.3.07.52.08.34.02.7.05.72.2.02.19-2.53.75-3.8 1-.13-.05-.3-.2 0-.34.3-.15.95-.38 1.24-.48-.93-1.06-2.96-3.28-3.7-3.77l-1.8.41v4.31c.47.05 1.4.18 1.4.28 0 .11-2.76.74-4.13 1.05-.14-.04-.34-.16 0-.32l1.12-.56-.19-10.5c-.38.07-1.18.14-1.3-.1Zm3.2-.05c-.02-.15.07-.48.46-.63.49-.2 3.67-.87 3.78 1.9.1 2.78-2.17 3.92-3.97 4.1-.18.01-.4 0-.4-.44l.12-4.93ZM26.64 31.1c-.36.26-1.34.8-2.43.89-1.37.1-3.16-.68-3.1-3.17.05-2.49 1.93-3.82 3.1-3.82 1.17 0 2.4.62 2.62 2.7.03.22-.15.65-1.1.72l-3.28.12c0 1.08.46 3.15 2.34 2.89a4.6 4.6 0 0 0 1.65-.56c.13-.03.35-.03.2.23Zm-4.15-2.94c.03-.9.38-2.74 1.58-2.83 1.19-.1 1.46 1.5 1.45 2.33 0 .16-.14.5-.78.5h-2.25Z" fill="#1975B8"/><path d="M30.2 25h-2.95c-.04.09-.05.26.22.26s.49.31.56.46L30.2 32h1.06l2.44-5.93c.06-.2.32-.8.6-.8.22 0 .28-.18.28-.27h-2.38c-.12 0 .12.26.48.26.29 0 .35.31.34.46l-1.88 5.64-1.76-6.1h.82c.2-.11.08-.22 0-.26ZM37 31.56V25c-.64.08-2.27.26-2.25.42.02.2.34.14.74.2.32.05.5.28.51.4v5.26c-.06.24-.25.44-.7.46-.34.02-.4.18-.4.26 1.02 0 3.02 0 3-.1 0-.1-.59-.27-.9-.34Z" fill="#1975B8"/><ellipse cx="36.33" cy="23.37" rx=".72" ry=".71" fill="#1975B8"/><path d="M41.05 25h-2.71c-.15 0-.11.3.15.3.21 0 .37.25.42.37.45 1.54 1.62 4.86 2.14 6.33h1.1l2.58-6.33c.04-.25.4-.35.57-.37.22-.12.1-.25 0-.3h-2.2c-.27.14-.12.26 0 .3h.81c-.02.8-1.28 4.46-1.9 6.18l-1.78-6.18h.82c.27-.1.12-.24 0-.3Z" fill="#1975B8"/><path fill-rule="evenodd" d="M49.06 25c.63-.02 1.9.44 1.94 2.42v4.09c.33.08 1 .27 1 .38 0 .11-1.31.16-2 .11v-1.98c-.31.7-1.4 2.06-2.94 1.98-1.83-.1-1.65-2-1.61-2.44v-.06c.02-.24.37-2.08 2.6-2.08a3.5 3.5 0 0 1 1.95.78v-.78c0-.6-.45-1.83-1.67-1.87-.41.03-1.4.28-2.06 1.09-.08.07-.26.17-.32 0-.08-.21 1.23-1.64 3.1-1.64Zm.83 3.95c-.11.75-.7 2.3-2.13 2.56-.42.02-1.15-.3-1.15-1.7 0-1.64 1.1-2.1 1.79-2 .83.1 1.51 1 1.49 1.14Z" fill="#1975B8"/><defs><linearGradient id="apvb2vt4p" x1="7.42" y1="22.81" x2="20.06" y2="35.71" gradientUnits="userSpaceOnUse"><stop stop-color="#FAFAFA"/><stop offset="1" stop-color="#CFCFCF"/></linearGradient></defs></svg>