<!-- by TradingView --><svg width="56" height="56" viewBox="0 0 56 56" xmlns="http://www.w3.org/2000/svg"><path fill="#F0F3FA" d="M0 0h56v56H0z"/><path d="M33 37h.38v2H33v-2Zm1.28.01c.16-.02.32 0 .48 0l-.5.45c-.12.13-.27.24-.4.38.39.38.76.77 1.14 1.16-.15 0-.31.01-.46-.01l-1.1-1.16c.28-.28.57-.54.84-.82ZM29 37c.04.01.08.02.1.05l1.25 1.05.28.22v-1.26H31V39c-.11-.06-.2-.14-.28-.2-.45-.38-.88-.76-1.34-1.11v1.25H29V37ZM25.56 37.06c.02-.03.04-.05.07-.06l1.11 2h-.38l-.21-.4h-1.06l-.22.4h-.38l1.07-1.94Zm.04.53-.39.76h.81c-.14-.26-.26-.52-.42-.76ZM21 37c.36.01.75-.05 1.08.12.23.11.3.4.16.6-.04.07-.12.11-.18.16.14.05.3.1.38.24.1.2.1.43-.03.61-.15.19-.42.24-.66.27H21v-2Zm.36.24v.54c.16 0 .33.01.47-.06.17-.1.16-.35-.03-.42-.13-.06-.3-.05-.44-.06Zm0 .78v.71c.2 0 .4.03.57-.04.28-.1.28-.5.01-.6-.18-.09-.38-.06-.58-.07ZM6.04 38.04c.1-.02.22-.01.33-.01h12.3c.05.02.06.08.05.12-.02.06-.1.06-.17.06H6.17c-.06 0-.13 0-.17-.05 0-.04-.01-.1.04-.12Zm31.25 0c.15-.02.3-.01.44-.01h11.9l.33.01c.06.02.04.09.03.13a.22.22 0 0 1-.13.04h-12.5c-.1-.02-.08-.1-.07-.17ZM7 28h1.62c.63 0 1.29.09 1.85.4.39.2.7.54.84.95.16.48.14 1.02-.1 1.45-.21.37-.56.64-.97.77.17.08.34.18.47.31.43.45.7 1 1.14 1.45.2.22.45.4.74.5.14.04.27.05.41.06l-.24 1.02c-.01.03-.01.08-.05.09-.48 0-.97-.11-1.37-.38-.42-.29-.72-.71-1-1.13-.25-.39-.5-.8-.87-1.08-.3-.23-.67-.35-1.04-.34V35H7v-7Zm1.43 1.05v2c.36 0 .73-.02 1.07-.17.2-.09.38-.25.46-.46.1-.27.1-.58-.04-.84a.9.9 0 0 0-.52-.4c-.3-.1-.64-.13-.97-.13ZM37.9 30.35c.41-.26.9-.37 1.37-.35.57.03 1.13.26 1.5.7.32.37.49.84.52 1.32.02.26 0 .52 0 .77h-3.24c0 .27.08.53.25.73.2.25.52.39.83.43a1.85 1.85 0 0 0 1.5-.43l.56.9c-.4.3-.88.5-1.38.55-.64.08-1.34 0-1.9-.34-.45-.26-.78-.7-.93-1.19a3.13 3.13 0 0 1-.04-1.74c.15-.55.49-1.05.96-1.35Zm.72.74c-.27.16-.45.6-.52.91h2.13c-.03-.18-.08-.5-.18-.64a.94.94 0 0 0-.58-.4c-.29-.05-.6-.03-.85.13ZM35.1 27.93a.9.9 0 0 1 .7.15c.28.23.26.73-.03.94a.87.87 0 0 1-.67.12.66.66 0 0 1-.46-.3.63.63 0 0 1 .01-.63c.1-.15.27-.24.45-.28ZM34.66 30H36v5h-1.34v-5ZM28.82 30h1.37l1.19 2.8 1.2-2.8h1.36l-2.45 5h-.24l-2.43-5ZM27.7 30.13c.25-.12.54-.14.82-.13l-.16 1.17c-.32-.01-.66.06-.9.3-.25.24-.34.6-.39.94-.05.38-.07.77-.07 1.16V35h-1.2v-5h1.22v.74l.02.06.03-.06c.12-.28.36-.48.62-.6ZM22.51 30.02c.53-.06 1.1.03 1.56.33a2 2 0 0 1 .81 1.1c.14.44.13.9.1 1.34h-3.26c0 .32.13.63.37.84.33.31.82.38 1.26.33.36-.05.68-.22.96-.44l.58.9c-.4.3-.87.5-1.37.55a3.3 3.3 0 0 1-1.66-.2c-.45-.19-.85-.54-1.07-.98-.27-.51-.33-1.11-.27-1.68.06-.54.28-1.07.67-1.45.35-.36.83-.58 1.32-.64Zm-.24 1.08c-.26.17-.42.6-.5.9h2.15a1.89 1.89 0 0 0-.17-.62.96.96 0 0 0-.6-.41c-.3-.07-.62-.04-.88.13ZM15.36 30h1.34c.04 0 .04.05.06.07l1.15 2.6c.07-.1.11-.22.16-.34L19.12 30h1.35l-.68 1.34c-.59 1.15-1.18 2.52-1.76 3.66h-.21c-.82-1.59-1.64-3.4-2.46-5ZM13.95 27.93c.23-.04.5 0 .7.15a.6.6 0 0 1 .19.52c-.01.24-.2.45-.44.52a.89.89 0 0 1-.75-.1.61.61 0 0 1-.14-.84c.1-.14.27-.22.44-.25ZM13.5 30H15v5h-1.5v-5ZM45.24 30h-.2c-.37.86-.75 1.7-1.11 2.56-.02.04-.04.09-.08.1-.36-.86-.72-1.8-1.08-2.66H41.4c.8 1.64 1.57 3.36 2.36 5h.2c.4-.9.78-1.8 1.16-2.71.07.06.1.15.13.23L46.3 35h.2c.8-1.64 1.58-3.36 2.37-5H47.5c-.26.65-.53 1.37-.8 2.02-.1.22-.18.46-.3.67-.38-.9-.77-1.8-1.17-2.69Z" fill="#11263F"/><path d="M38.7 17.05c.08-.05.17-.07.25-.02.62.39 1.4.89 1.87 1.44.32.03.64-.03.96-.09.29-.03.56.1.82.23a15.21 15.21 0 0 1 3.06 2.03c.76.65 1.6 1.2 2.34 1.9a2.68 2.68 0 0 0-.1-.03c-.7-.45-1.92-.72-2.84-.97a21.07 21.07 0 0 0-4.4-.54c-.27-.03-.55-.02-.82-.02-.52.02-1.04.02-1.56.07a30.8 30.8 0 0 0-5.18.83l.12-.07.07-.02v-.02c1.06-.53 1.79-1.5 2.5-2.4l.1-.14c.62-.81 1.88-1.57 2.75-2.14l.06-.04ZM13.4 19c.11-.02.23-.01.34 0 .64.11 1.29.18 1.94.19.24.02.49 0 .74-.01.35 0 .71-.03 1.06-.07.97.92 1.99 2.1 3.24 2.78l.09.03c.01.04.24.12.3.14.52.32 1.18.64 1.62 1a.4.4 0 0 0 .24-.06l.1-.07c.1-.08.17-.17.27-.24v-.01c.82-.7 1.12-1.17 2-1.86.08-.06.16-.13.26-.17.12.01.23.07.34.12.84.24 1.6.6 2.44.87.12.03.24.07.36.08.74.09 1.42.42 2.03.71l-.77.19c-1.37.34-2.76.63-4.14.91-2.1.41-4.22.77-6.36.99-1.07.1-2.15.17-3.23.16A79.75 79.75 0 0 1 8 24.1l.01-.06.05-.07c1.34-1.9 3.36-3.45 5.24-4.9l.1-.07Zm13.99 11.93h.05l-.03.07a.58.58 0 0 1-.02-.07Z" fill="#459AC9"/><path d="M45.11 22.13c1.17.35 2.3.83 3.34 1.49.18.12.38.24.55.4-2.87-1.1-6.36-1.86-9.5-1.54-1.99.09-3.96.4-5.9.83-2.32.51-4.6 1.18-6.9 1.79a32.6 32.6 0 0 1-8.24 1.29c-3.48.03-6.88-.46-10.1-1.83-.13-.06-.26-.1-.36-.2 5.55.97 11.13.9 16.62-.22 2.36-.49 4.7-1.05 7.05-1.6 4.46-1.05 8.95-1.78 13.44-.41Zm-5.33.72a23.3 23.3 0 0 1 4.32.26c1.2.19 2.41.45 3.56.87.21.08.42.15.61.26a44.21 44.21 0 0 0-19.85.93c-.12.03-.26.02-.36-.06.06-.07.15-.11.24-.14 3.74-1.02 7.59-1.96 11.48-2.12Z" fill="#005C99"/></svg>