<!-- by TradingView --><svg width="56" height="56" viewBox="0 0 56 56" xmlns="http://www.w3.org/2000/svg"><path fill="#F0F3FA" d="M0 0h56v56H0z"/><path d="M18.32 28h1.84c1.22-.1 1.89-1.74 1.52-2.86a1.65 1.65 0 0 0-1.52-1.13l-.43-.01H9v-7h11.02c.86 0 1.73.14 2.54.44 3.75 1.36 5.9 5.26 5.54 9.18a8.82 8.82 0 0 1-4.56 7.07v.01L27.81 40V40h-7.84a.05.05 0 0 1-.05-.02l-4.57-6.74c-.34-.5-.56-1-.65-1.6A3.1 3.1 0 0 1 17.74 28h.58Z" fill="url(#aj3azdnr5)"/><path d="M47 40 29 28.5 47 17v23Z" fill="url(#bj3azdnr5)"/><defs><linearGradient id="aj3azdnr5" x1="9" y1="28.5" x2="28.14" y2="28.5" gradientUnits="userSpaceOnUse"><stop stop-color="#FD1D25"/><stop offset=".68" stop-color="#ED135D"/><stop offset="1" stop-color="#D504B1"/></linearGradient><linearGradient id="bj3azdnr5" x1="47" y1="28.5" x2="29" y2="28.5" gradientUnits="userSpaceOnUse"><stop stop-color="#F7986D"/><stop offset=".33" stop-color="#FF33AC"/><stop offset="1" stop-color="#DD02CD"/></linearGradient></defs></svg>