<!-- by TradingView --><svg width="56" height="56" viewBox="0 0 56 56" xmlns="http://www.w3.org/2000/svg"><path fill="#88A0C4" d="M0 0h56v56H0z"/><path d="M16.72 38.8c-.68-3.46 2.93-5.3 4.84-5.73l-.64 4.52-1.31 3.56a24.35 24.35 0 0 1-2.89-2.36Z" fill="#A0C3ED"/><path d="m35.6 14.6.34 9.03c4.66-.63 4.84-3.65 4.34-5.08-1-1.5-3.14-3.26-4.08-3.95h-.6Z" fill="#6FCACF"/><path d="M16.75 38.82c-.49-1.47.04-3.78 4.62-5.53.83-1.39 3.34-4.53 6.7-6 4.2-1.83 7.79-3.5 7.91-4.11.34-.44.87-2.33.34-6.46-.2-.66-.4-1.89.26-1.9a15.61 15.61 0 0 0-19.83 24Z" fill="#481442"/><path d="M16.63 37.54c.17-1.34 1.34-2.95 4.74-4.25.83-1.39 3.34-4.53 6.7-6 4.2-1.83 7.79-3.5 7.91-4.11.34-.44.87-2.33.34-6.46-.1-.3-.18-.71-.19-1.08a14.9 14.9 0 0 0-19.5 21.9Z" fill="#4B1642"/><path d="M17.03 36.37c.6-1.05 1.89-2.14 4.34-3.08.83-1.39 3.34-4.53 6.7-6 4.2-1.83 7.79-3.5 7.91-4.11.33-.42.84-2.24.37-6.15a14.1 14.1 0 0 0-19.32 19.34Z" fill="#662859"/><path d="M17.8 35.39c.74-.73 1.88-1.45 3.57-2.1.83-1.39 3.34-4.53 6.7-6 4.2-1.83 7.79-3.5 7.91-4.11.29-.37.72-1.82.5-4.82A13.3 13.3 0 0 0 17.8 35.39Z" fill="#7A356C"/><path d="M18.83 34.56c.66-.44 1.5-.87 2.54-1.27.83-1.39 3.34-4.53 6.7-6 4.2-1.83 7.79-3.5 7.91-4.11.24-.32.59-1.39.56-3.52a12.5 12.5 0 0 0-17.71 14.9Z" fill="#8C4378"/><path d="M20 33.88c.42-.2.87-.4 1.37-.59.83-1.39 3.34-4.53 6.7-6 4.2-1.83 7.79-3.5 7.91-4.11.2-.25.44-.96.53-2.3a11.73 11.73 0 0 0-16.5 13Z" fill="#9D507E"/><path d="M36.35 22.14c-.1.55-.25.88-.37 1.04-.12.62-3.7 2.28-7.9 4.12-3.33 1.44-5.82 4.53-6.68 5.94a10.93 10.93 0 0 1 14.95-11.1Z" fill="#A55683"/><path d="M34.84 24.1a78.8 78.8 0 0 1-6.77 3.2c-1.07.46-2.05 1.1-2.92 1.79a9.6 9.6 0 0 1 9.7-5Z" fill="#A65482"/><path d="M27.35 27.7a14.01 14.01 0 0 0-5.77 5.48c1.43-.74 2.56-.65 8.24-3.78 4.55-2.5 5.95-4.98 6.08-5.9-.52.65-4.51 2.17-8.55 4.2Z" fill="url(#aki2xd24f)"/><path d="M19.15 40.81c.46-.12 1-.66 1.05-2.2.1-2.63 1.1-5.2 1.43-5.45 1.68-.6 5.68-2.2 8.2-3.73 1.74-.9 5.43-3.39 6.29-6.03 1.55-.66 4.35-2.51 4.1-4.96a15.45 15.45 0 0 1-21.07 22.37Z" fill="#314B6C"/><path d="M19.68 40.45c.27-.32.49-.9.52-1.85.1-2.62 1.1-5.18 1.43-5.44 1.68-.6 5.68-2.2 8.2-3.73 1.74-.9 5.43-3.39 6.29-6.03 1.36-.58 3.68-2.08 4.07-4.1a14.95 14.95 0 0 1-20.5 21.14Z" fill="#3F5374"/><path d="M20.4 36.76a11.65 11.65 0 1 0 18-14.78 9.47 9.47 0 0 1-2.28 1.42c-.86 2.64-4.55 5.12-6.3 6.03a53.86 53.86 0 0 1-8.2 3.73c-.24.2-.88 1.72-1.21 3.6Z" fill="#536383"/><path d="M21.38 33.54a9.6 9.6 0 1 0 15.44-10.48c-.25.13-.49.25-.7.34-.86 2.64-4.55 5.12-6.3 6.03a53.87 53.87 0 0 1-8.2 3.73c-.05.05-.14.18-.24.38Z" fill="#5D6C8D"/><path d="M23.8 32.32a7.37 7.37 0 1 0 11.55-7.43c-1.43 2.05-4.11 3.8-5.52 4.54a45.87 45.87 0 0 1-6.02 2.89Z" fill="#677A9B"/><path d="M25.8 31.47a5.46 5.46 0 1 0 8.2-5.03 19.57 19.57 0 0 1-4.17 2.99 37.1 37.1 0 0 1-4.03 2.04Z" fill="#7288AD"/><path d="M27.62 30.62c-.02.18-.04.36-.04.54a3.67 3.67 0 1 0 4.92-3.45c-1 .76-1.99 1.36-2.67 1.72-.66.4-1.41.8-2.2 1.2Z" fill="#809ABF"/><defs><linearGradient id="aki2xd24f" x1="35.08" y1="24.02" x2="21.97" y2="33.18" gradientUnits="userSpaceOnUse"><stop stop-color="#B5D1E7"/><stop offset=".48" stop-color="#F2F7FA"/><stop offset="1" stop-color="#B7D6F2"/></linearGradient></defs></svg>