<!-- by TradingView --><svg xmlns="http://www.w3.org/2000/svg" width="56" height="56" viewBox="0 0 56 56"><path fill="#EB0000" d="M0 0h56v56H0z"/><path d="m20.76 30 .6-3.23L22.64 30h1.92l-1.31-3.25L25.62 24h-1.95l-2.29 2.72.89-4.72H20.5l-1.51 8h1.77ZM29 28.69c.1-.23.14-.47.13-.72 0-.81-.71-1.26-1.35-1.57-.48-.22-.71-.42-.71-.64 0-.32.3-.5.76-.5.53 0 1.06.14 1.51.41l.26-1.3c-.51-.27-1.1-.4-1.69-.37-1.58 0-2.63.8-2.63 1.99 0 .6.42 1.12 1.26 1.52.53.25.74.45.74.73 0 .31-.3.5-.74.5a4.03 4.03 0 0 1-1.66-.44l-.26 1.3c.55.26 1.15.4 1.75.4.95 0 1.73-.25 2.22-.7.18-.18.32-.39.41-.61Zm6.55-2.4c0 1.8-1.35 3.65-3.26 3.71-.63 0-.98-.24-1.19-.6l-.45 2.6h-1.78l1.51-8h1.57l-.18 1.08A2.27 2.27 0 0 1 33.62 24c1.18 0 1.94.9 1.94 2.28Zm-1.85.13c0-.28-.07-.97-.72-.97-1.33 0-2.2 3.2-.9 3.2.93 0 1.62-1.06 1.62-2.23Zm17.83 1.68a4.1 4.1 0 0 1-2.1.57c-.83 0-1.4-.42-1.34-1.15 1.34.26 2.82-.06 3.42-.62a1.57 1.57 0 0 0 .48-1.17C52 24.7 51.16 24 49.9 24a3.45 3.45 0 0 0-2.56 1.13c-.6.68-.93 1.55-.94 2.44 0 1.55.95 2.43 2.6 2.43.78 0 1.54-.15 2.24-.46l.29-1.44Zm-1.36-2.02c-.25.24-.84.34-1.88.34.13-.57.62-1.17 1.39-1.17.68 0 .77.57.5.83ZM39.77 36c.87 0 1.47-.74 1.47-1.61a1 1 0 0 0-1.04-1.05c-.87 0-1.47.75-1.47 1.61A.99.99 0 0 0 39.77 36Zm.08-.47c-.31 0-.5-.25-.5-.6 0-.47.29-1.12.77-1.12.37 0 .49.32.49.59 0 .5-.3 1.13-.76 1.13Zm4.06.47c.87 0 1.47-.74 1.47-1.61a1 1 0 0 0-1.04-1.05c-.87 0-1.47.8-1.47 1.67a.99.99 0 0 0 1.04 1Zm.08-.47c-.31 0-.5-.25-.5-.6 0-.47.29-1.12.77-1.12.37 0 .5.32.5.59 0 .5-.31 1.13-.77 1.13ZM41.5 36l.65-3.38h.6L42.12 36h-.6Zm-9.79-2.53a1.6 1.6 0 0 1 1.17-.02l-.1.56a.96.96 0 0 0-.46-.17 1.02 1.02 0 0 0-.96 1.07.53.53 0 0 0 .56.6c.24 0 .47-.07.68-.2l-.1.53c-.23.11-.49.17-.75.16-.28 0-.55-.08-.75-.27a.96.96 0 0 1-.28-.74 1.6 1.6 0 0 1 1-1.52ZM28.8 34.9a.7.7 0 0 0 .07.36.56.56 0 0 0 .52.26c.34 0 .66-.1.93-.3l-.1.54c-.3.16-.63.24-.97.24-.7 0-1.04-.43-1.04-1.06 0-.76.56-1.6 1.44-1.6.5 0 .82.29.82.72 0 .65-.69.86-1.67.84Zm1.1-.84c0-.17-.14-.27-.33-.27a.79.79 0 0 0-.7.65c.62 0 1.02-.08 1.02-.38Zm8.4-.23a2.38 2.38 0 0 1-.02.69l-.3 1.48h-.6l.28-1.44.03-.3c0-.21-.08-.37-.32-.37-.28 0-.63.34-.74.93L36.4 36h-.61l.49-2.56h.54l-.09.5a1.1 1.1 0 0 1 .93-.54.62.62 0 0 1 .62.43Zm-3.98-.32c.15-.07.31-.11.47-.11a.62.62 0 0 1 .65.7c0 .14-.02.28-.04.42L35.1 36h-.6l.27-1.44.03-.3c0-.21-.08-.37-.32-.37-.28 0-.63.34-.74.93L33.52 36h-.6l.63-3.38h.62l-.23 1.2c.1-.13.22-.24.37-.31Zm-7.18-.76h.59l-.12.65h.57l-.1.47h-.57l-.2 1.03a1.8 1.8 0 0 0-.03.45.2.2 0 0 0 .21.14c.09 0 .17 0 .25-.02l-.1.48c-.12.04-.26.05-.4.05-.41 0-.6-.23-.6-.52 0-.16.03-.32.06-.47l.22-1.14h-.34l.09-.47H27l.13-.65ZM48.6 37c-.14 0-.29-.04-.43-.1l.09-.5a.44.44 0 0 0 .63-.13l.2-.34-.45-2.5h.64l.23 1.9.97-1.9h.65l-1.7 2.99c-.23.4-.52.58-.83.58Zm-2.9-1.84c0-.8.55-1.76 1.64-1.76.53 0 .85.22.85.68 0 .15-.02.3-.05.44l-.23 1.16c-.1.5-.24.8-.53 1.04-.28.2-.61.3-.95.28-.21 0-.52-.1-.75-.2l.1-.44c.2.1.43.16.66.15.4 0 .7-.1.83-.68l.05-.23a1.02 1.02 0 0 1-.85.46c-.54 0-.77-.45-.77-.9Zm1.78-.43.05-.24.03-.3a.3.3 0 0 0-.34-.33c-.53 0-.88.69-.88 1.19 0 .28.12.51.4.51.31 0 .64-.32.74-.83ZM45.51 24c-2.23 0-3.9 1.57-3.9 3.64 0 1.43.98 2.36 2.52 2.36.59.01 1.17-.1 1.71-.3l.28-1.44c-.45.24-.97.37-1.49.37-.56 0-1.16-.3-1.16-1.18 0-1.02.75-2.08 2.02-2.08a2 2 0 0 1 .98.22l.28-1.39c-.4-.14-.81-.2-1.24-.2Zm-4.84 6 .64-3.34c.12-.63.16-1.5-.33-2.07-.34-.39-.87-.59-1.6-.59a3.53 3.53 0 0 0-2.45.96A4.25 4.25 0 0 0 35.68 28c0 1 .53 2.01 1.72 2.01.4.02.79-.1 1.12-.32.32-.23.56-.55.67-.92L38.97 30h1.7Zm-1.63-4.7c.4 0 .61.21.63.62a6.2 6.2 0 0 1-.16 1.1c-.2.94-.75 1.6-1.4 1.6-.4 0-.63-.38-.63-.98 0-.96.72-2.35 1.56-2.35Zm-24.78 2.34c0-2.07 1.68-3.64 3.91-3.64.42 0 .84.06 1.23.2l-.27 1.4a2 2 0 0 0-.99-.23c-1.26 0-2.02 1.06-2.02 2.08 0 .87.6 1.18 1.17 1.18.52 0 1.03-.13 1.49-.37l-.28 1.43c-.55.22-1.13.32-1.71.31-1.54 0-2.53-.93-2.53-2.36Zm-.3-.98L13.33 30h-1.7l.22-1.24c-.1.37-.34.7-.67.92-.32.22-.72.34-1.12.32-1.18 0-1.72-1-1.72-2.01 0-1.13.44-2.21 1.26-3.03a3.41 3.41 0 0 1 2.45-.96c.73 0 1.26.2 1.6.6.49.57.45 1.43.33 2.06Zm-1.63-.74c-.02-.4-.24-.63-.64-.63-.83 0-1.56 1.39-1.56 2.35 0 .6.23.97.64.97.65 0 1.2-.65 1.4-1.6.08-.36.14-.72.16-1.1ZM6.73 24l-.25 1.46c.2-.47.56-.87 1-1.13A2.7 2.7 0 0 1 8.97 24l-.34 1.83c-1.22-.19-2.08.2-2.36 1.7L5.78 30H4l1.17-6h1.56Z" fill="#fff"/></svg>