<!-- by TradingView --><svg xmlns="http://www.w3.org/2000/svg" width="56" height="56"><path fill="#00325C" d="M0 0h56v56H0z"/><path d="M43.1 27.9c.56-.83 1.03-1.7 1.4-2.62a14.42 14.42 0 00-2.25-1.93c-.97-.64-2.01-1.17-3.1-1.58.18-2.09-.1-4.19-.83-6.15-2.11-.19-4.23.09-6.22.8A14.38 14.38 0 0027.62 12a14.37 14.37 0 00-4.46 4.4l8.94.03c-.72.16-1.46.38-2.13.68-.77.31-1.62.73-2.31 1.18a11.4 11.4 0 00-4.5-1.83 11 11 0 00-1.89 4.43c-1.63.14-3.22.62-4.64 1.42.13 1.62.62 3.2 1.43 4.6a8.82 8.82 0 002.28 3 8.83 8.83 0 00-.85 3.74 8.8 8.8 0 003.73.85 8.83 8.83 0 001.6 3.25l-2.66-1.96-2.98-2.12c0 .86.1 1.72.28 2.56.1.76.25 1.48.5 2.2.78.08 1.59.12 2.37.04.86-.12 1.71-.34 2.53-.67.9 1.37 2.1 2.57 3.5 3.43 1.4-.88 2.6-2.06 3.49-3.44h-6.71a8.79 8.79 0 003.19-1.68 8.8 8.8 0 003.52 1.52 8.83 8.83 0 001.52-3.54A8.8 8.8 0 0037.02 33a8.83 8.83 0 00-1.06-3.65 9.02 9.02 0 002.01-3v.04l-.42 3.44-.51 3.45a11.3 11.3 0 003.82-2.63l-2.06 3.64-1.95 3.45c.37-1.46.44-2.98.19-4.46l-2.58 2.27-2.61 2.24c1.54.43 3.22.53 4.8.3l-4.14 1.6-4.14 1.54-4.2-1.38-4.2-1.42-2.36-3.73-2.33-3.74v-.05c.48.46 1 .88 1.56 1.25.73.54 1.5 1.01 2.32 1.41l-.72-3.6-.56-3.38c-.62.6-1.33 1.3-1.8 2.03-.24.37-.46.76-.66 1.15l.46-3.18.63-4.35 3.29-2.95 3.3-2.96c-2.05-.55-4.2-.66-6.3-.3a13.95 13.95 0 00-.3 6.21 14.5 14.5 0 00-5 3.77 14.3 14.3 0 003.77 4.97 14.16 14.16 0 00-1.44 6.04c1.9.91 4 1.4 6.11 1.42.51 2.03 1.46 3.93 2.8 5.56 2.05-.5 3.98-1.45 5.63-2.77a14.56 14.56 0 005.73 2.54 14.21 14.21 0 002.55-5.68c2.1-.12 4.16-.7 6.02-1.7a14.74 14.74 0 00-1.73-6.06c.82-.73 1.54-1.54 2.17-2.44zm-12.13-8.7l3.17 1.06a9.2 9.2 0 00-3.68.47 8.54 8.54 0 00-2.6-2.47l3.1.94zm-6.46.37l2.95-1.2a8.73 8.73 0 00-2.41 2.46h5.24c-.9.24-1.73.66-2.45 1.23h.06c-.64.41-1.18.96-1.58 1.59h-.02a5.46 5.46 0 00-2.03-.16l1.6-.66L27.8 22a6.9 6.9 0 00-2.77-1.14 9.13 9.13 0 00-3.66-.02l3.12-1.27zm8.9 6.7c-.3-.2-.63-.38-.97-.51l-.17-.27c.02-.35 0-.7-.05-1.04a3.52 3.52 0 00-.25-.84l1.03 1.6 1.07 1.61a5.4 5.4 0 00-.68-.54h.02zm.73 1.02l-.2 1.8-.3 1.95a5.3 5.3 0 00-.64-2.13c.47-.45.85-1.03 1.14-1.62zm-2.16.7l-.8 1.23-.26 1.42-1.43.3-1.2.82-1.24-.78-1.44-.27-.3-1.41-.84-1.2.8-1.22.26-1.41 1.44-.31 1.2-.82 1.24.78 1.43.27.31 1.42.83 1.19zm-9.21-1.52c-.2.15-.39.27-.56.44l.78-1.44.92-1.78c-.16.7-.2 1.4-.07 2.1a5.5 5.5 0 00-1.07.68zm1.14-2.9c-.8.07-1.58.29-2.31.63l1.52-1.42 1.6-1.48a6.8 6.8 0 00-.81 2.26v.01zm-4.56 2.06c-.44.35-.86.7-1.23 1.13l1.59-2.93L21.22 21a8.82 8.82 0 00-.12 3.43c.09 1 .4 1.97.9 2.84.33.66.8 1.26 1.36 1.74a5.28 5.28 0 00-.54 2.2l-.4-1.85-.45-2.07a6.84 6.84 0 00-1.56 2.43l.33-2.48.35-2.7c-.62.3-1.2.66-1.74 1.09zm11.53 9.53l-2.54.94-2.54-.78-2.57-.85-1.43-2.29-1.45-2.28a6.93 6.93 0 002.42 1.57c-.01.55.03 1.1.11 1.64.06.47.18.93.34 1.38.94.09 1.89-.02 2.79-.3.38.38.79.76 1.21 1.1.35.33.71.57 1.12.81.4-.26.77-.52 1.1-.85.4-.38.75-.79 1.08-1.22.92.24 1.88.31 2.86.05l-2.5 1.08zm3.8-3.38l-1.16 2.13c.22-.9.24-1.84.09-2.75l-1.58 1.42L30.48 34h-4.34l-1.55-1.23-1.7-1.42c.7.33 1.47.5 2.24.5.17.78.52 1.52 1.01 2.15.77-.19 1.5-.55 2.11-1.04.64.46 1.45.85 2.23 1 .47-.63.72-1.42.88-2.19a5.45 5.45 0 002.24-.62 6.88 6.88 0 002.3-1.63l-1.22 2.27zm.64-3.6a8.11 8.11 0 00-1.15-1.23c.4-.91.61-1.9.6-2.89a6.9 6.9 0 00-2.91-.6 4.43 4.43 0 00-1.96.18l-.34-.11a5.35 5.35 0 00-1.3-1.32l1.59.55 2 .7a6.73 6.73 0 00-1.07-2.37l1.87 1.42 2.15 1.6.65 2.67.48 2.47a6.83 6.83 0 00-.62-1.08h.01zm4.6.25c-.54-.73-1.17-1.4-1.87-1.99.7-1.47 1.05-3.09 1.04-4.72a13.82 13.82 0 00-4.81-1.43l1.89 3.27 1.35 2.07a8.78 8.78 0 00-.8-.63 9.37 9.37 0 00-1.9-.95 8.83 8.83 0 00-.54-3.75c-.27-.72-.62-1.42-1.03-2.07-.3-.62-.67-1.2-1.09-1.75l3.46 2.6 3.5 2.65 1.01 4.33.72 4c-.26-.57-.57-1.11-.93-1.63z" fill="#fff"/></svg>