<!-- by TradingView --><svg width="56" height="56" xmlns="http://www.w3.org/2000/svg"><path fill="#CC2131" d="M0 0h56v56H0z"/><path d="M51.53 31.173c-.595 1.67-2.22 2.822-4.86 2.822-2.194 0-4.326-1.337-3.768-4.269.409-2.485 2.677-4.118 5.28-4.118 2.901 0 4.203 1.966 3.72 4.303l-.113.52h-5.466c0 .074-.074.334-.074.593 0 .706.371.965.818.965.483 0 .93-.296 1.152-.816h3.31zM48.74 28.8l.038-.186c.111-.63-.187-1.076-.818-1.076-.595 0-1.117.408-1.265 1.262h2.045zm-6.359-3.043c-.855 0-1.525.445-1.971 1.076h-.074l.148-1.002h-3.532l-.224 1.04 1.934-.224-.037.186-1.971.334L35.209 34h3.794s.44-2.196.7-3.272c.372-1.781 1.34-2.152 1.971-2.152.559 0 .893.223.967.297l.633-2.894c-.075-.037-.372-.223-.893-.223zm-34.51 3.34c-1.525-.483-2.678-1.373-2.678-3.08 0-2.486 2.491-3.896 5.838-3.933 2.79 0 4.686 1.187 4.351 3.525h-4.016c.149-.631-.223-1.002-.93-1.002-.52 0-.93.26-1.004.594-.075.445.223.742.93.927a25.76 25.76 0 001.598.446c1.711.52 2.53 1.52 2.715 2.56l-5.02.52-1.785-.558zm.148 2.708l.323-1.806H4.028c-.298 2.671 1.834 3.995 4.586 3.995 2.603 0 5.392-.89 5.987-3.265L8.02 31.804zm22.35-5.417c.297-.223 1.042-.78 2.157-.78 1.153 0 2.046.483 2.454 1.41l-8.776.928L27.518 22h3.793l-1.016 4.387h.074zm-.223 1.818c-.223.334-.446.816-.595 1.52-.335 1.56.037 1.968.484 1.968.632 0 1.153-.594 1.413-1.93.149-.853.112-1.484-.111-1.744l3.792-.593c.186.594.224 1.373.038 2.226-.558 2.82-2.275 4.332-4.17 4.332-.856 0-1.818-.288-2.19-1.215h-.111l-.277 1.226h-3.422l.984-5.122 4.165-.668zm-9.483 2.709c-.112.593-.52 1.075-1.079 1.075-.557 0-.78-.445-.706-.927.111-.408.52-.817 1.302-.817h.632l-.15.669zm-.967-2.709c.112-.482.483-.853.967-.853.446 0 .67.408.558.816l-.037.297 3.532-.371c-.26-1.818-1.933-2.598-3.904-2.598-2.938 0-4.351 1.447-4.649 2.746l-.037.185h3.533l.037-.222zm-4.351 2.412c-.122.32-.185.66-.186 1.001 0 1.225.912 2.378 2.474 2.378 1.413 0 2.249-.67 2.62-1.08h.038l-.168 1.08h3.57l.95-4.419c.036-.148.073-.334.11-.482l-9.408 1.522z" fill="#fff"/></svg>