<!-- by TradingView --><svg width="56" height="56" xmlns="http://www.w3.org/2000/svg"><path fill="#D52027" d="M0 0h56v56H0z"/><path d="M27.46 28.317a.373.373 0 01-.33-.182c-.04-.071-2.668-6.56-3.362-7.922-.08-.16-.08-.213-.227-.213-.147 0-.2.191-.2.191l-3.233 8.713s-.614.063-.592.48a.369.369 0 00.445.366s1.48-.12 1.748-.152c.267-.03.573-.062.538-.444-.036-.383-.89-.374-.89-.374l.494-1.503.819.89.39-.032.704-.858.582 1.196s-.742.111-.734.507c.01.396.445.351.445.351s3.114-.137 3.443-.16a.444.444 0 00.476-.48c.04-.267-.312-.356-.516-.374zm-5.413-1.454l.765-2.02.765 1.904-1.53.116zM28.967 21.588s-.761-.276-.752-.698c.009-.423.28-.445.734-.503a30.239 30.239 0 013.189.044c.382.063.618.21.618.507a.596.596 0 01-.276.445c-.147.1-.309.177-.48.227v6.454s0 .351.133.445c.134.093.445.049.445.444 0 .396-.364.37-.623.365-.444 0-3.024-.107-3.024-.107s-.57.023-.57-.4c0-.422.419-.378.53-.445.111-.067.089-.235.085-.347-.005-.11-.027-.124-.01-6.431zM39.148 20.565c-.147-.031-.24.147-.24.147L33.5 28.633s-.61-.089-.672.325a.369.369 0 00.356.445c1.562.19 1.295.169 1.78.204.27.022.582.053.631-.329.049-.383-.85-.516-.85-.516l.85-1.405.632 1.045.4.044.89-.698 1.075 3.35s3.171-.152 3.398-.054c-.129-.414-2.268-8.798-2.669-10.23-.035-.165-.026-.21-.173-.25zm-3.38 6.418l1.193-1.832.484 2.099-1.676-.267z" fill="#fff"/><path d="M10.971 26.08l1.562 1.392c3.705 2.967 3.558 2.91 3.936 3.212.445.369-.236.658-.503.756h3.558c.16-.764.121-1.556-.115-2.3a3.35 3.35 0 00-1.134-1.365c-.267-.2-3.639-2.38-4.24-3.647a.578.578 0 01.09-.632c.778-.956 2.669-.422 3.558-.102.177.04.334.14.445.284a.925.925 0 01.102.516c0 .525.116 1.179.614 1.179.64 0 .654-1.019.645-2.064v-.556-.671c0-.863-.05-1.78-.645-1.78-.836 0-.516 1.455-.734 1.655-.218.2-.302.04-.65-.125-.467-.23-.95-.428-1.445-.591a5.782 5.782 0 00-2.224-.098c-1.08.107-2.846.89-3.353 2.273a2.347 2.347 0 00.422 2.53c.034.048.071.092.111.134z" fill="#fff"/><path d="M19.413 30.506s-3.558-.356-3.278-.111c.28.244-.138.378-.165.386-.026.01-7.97 2.496-7.97 5.017 0 .565 1.61 1.335 3.505 1.335 1.499 0 3.825-1.054 5.386-2.38a11.25 11.25 0 002.535-3.113l-.013-1.134zM13.36 34.89c-1.602.939-3.439.68-3.505.445-.067-.236 1.09-1.183 2.54-1.922a16.798 16.798 0 013.558-1.16s-.272 1.28-2.593 2.637zM38.592 31.551l.035.231a10.878 10.878 0 002.482 3.016c1.561 1.334 3.887 2.38 5.386 2.38 1.895 0 3.505-.757 3.505-1.335 0-2.522-8.162-5.08-8.162-5.08l-3.42-.51.174 1.298zm3.473.765a16.93 16.93 0 013.559 1.188c1.45.733 2.606 1.659 2.535 1.916-.071.258-1.9.49-3.5-.444-2.34-1.383-2.594-2.66-2.594-2.66z" fill="#fff"/><path d="M28.522 29.799c-3.5.03-8.188.515-8.846.573h-.147l-.774 1.642c1.802.19 3.587.521 5.337.991a11.77 11.77 0 014.448 2.442l-.018-5.649z" fill="#fff"/><path d="M28.522 29.799c3.51.03 8.193.515 8.85.573l1.104.08.28 1.517c-1.95.204-3.883.553-5.782 1.045a11.73 11.73 0 00-4.448 2.442l-.004-5.658z" fill="#fff"/></svg>