<!-- by TradingView --><svg width="56" height="56" xmlns="http://www.w3.org/2000/svg"><path fill="#006BB6" d="M0 0h56v56H0z"/><path d="M25.615 24.835C24.631 26.603 22.387 30 22.387 30h3.785l-.484 2h-4.322c-.066.117-1.724 2.99-1.724 2.99H16.57l8.087-13.973h3.205l1.762 13.973h-2.86s-1.134-10.056-1.149-10.155zm11.592-3.831h-3.21l-3.09 13.986h3.266l3.034-13.986zm4.11 6.801h-.003l-.627 3.56C40.5 32.5 40.5 33 41.76 33h6.346l-.523 2h-6.896c-2.496 0-3.362-1.723-3.026-3.36.052-.26 1.343-6.013 1.527-6.934.185-.921.368-3.699 3.247-3.699L50 21.006 49.434 23h-6.196c-1.076 0-1.194 1.042-1.289 1.482a111.93 111.93 0 00-.632 3.323zM9.99 25.765c-.126.658.53.564.93.564h3.742c1.774 0 2.732 1.11 2.445 2.62a52.44 52.44 0 01-.87 3.925c-.408 1.556-1.898 2.116-3.535 2.116H5L5.535 33h6.15c.81-.007 1.716.103 1.886-.646.107-.475.437-2.313.591-3.132.088-.464-.174-.46-.814-.46 0 0-2.929-.004-4.245-.004-.976 0-2.137-.38-2.047-1.638.035-.495.17-1.258.409-2.8.556-3.585 2.597-3.315 3.53-3.316h7.165l-.571 2s-4.046 0-5.904-.004c-1.277-.002-1.27.565-1.472 1.53-.124.61-.168.952-.223 1.235z" fill="#fff"/></svg>