<!-- by TradingView --><svg width="56" height="56" viewBox="0 0 56 56" xmlns="http://www.w3.org/2000/svg"><path fill="#F0F3FA" d="M0 0h56v56H0z"/><path d="M42 22.49v11.98c0 .33.34.35.58.46l3.68 1.5c.25.1 1.32.57 1.51.57.06-.01.11-.04.15-.09.04-.05.07-.1.08-.17V20.26a.34.34 0 0 0-.08-.17.28.28 0 0 0-.15-.09c-.18 0-1.25.45-1.48.56-1.1.49-2.56 1-3.66 1.49-.2.08-.63.17-.63.44" fill="url(#azzqskh3i)"/><path d="M6 26.29c0 .57.02.87.4 1.38.25.33.51.51.88.72.17.1.34.19.52.26l6 2.8H6.31c-.22.03-.3.17-.32.4v.9c0 .14.26.25.41.25h10.3c1.18 0 2.29-.91 2.29-2.08 0-.68 0-.98-.4-1.56-.5-.74-2.12-1.29-3-1.74l-.54-.24-3.77-1.8h7.1c.74.01.61-.18.61-1.21 0-.3-.24-.37-.53-.37H9.03c-.89 0-1.56.1-2.1.47-.47.32-.93.9-.93 1.65v.17Z" fill="url(#bzzqskh3i)"/><path d="M20 32.76c0 .19.15.24.4.24h8.96c.7 0 .56-.34.56-1.22 0-.27-.2-.36-.48-.37h-6.16c.13-.18 1.78-1.67 2.1-1.96l1.04-.98 1.1-.97c.22.13 1.44 1.35 1.73 1.62l1.71 1.66c.3.36.8.74 1.15 1.09.11.1.14.17.27.28.26.25.64.66.92.77.24.1 1.79.08 2.2.08H39c.54 0 1 0 1-.29 0-.24-.87-.95-1.08-1.15-.4-.37-.77-.7-1.16-1.08l-2.33-2.19-.56-.53c-.22-.2-.36-.37-.57-.57l-2.62-2.44c-.86-.9-.68-.74-2.23-.74-.37 0-1.03.74-1.28.97L27 26.08l-6.47 6.06c-.15.14-.52.39-.52.62" fill="url(#czzqskh3i)"/><defs><linearGradient id="azzqskh3i" x1="42" y1="28.5" x2="48" y2="28.5" gradientUnits="userSpaceOnUse"><stop stop-color="#006071"/><stop offset="1" stop-color="#41A6BB"/></linearGradient><linearGradient id="bzzqskh3i" x1="6" y1="28.5" x2="19" y2="28.5" gradientUnits="userSpaceOnUse"><stop stop-color="#016171"/><stop offset="1" stop-color="#1A7B8D"/></linearGradient><linearGradient id="czzqskh3i" x1="20" y1="30.64" x2="40" y2="30.82" gradientUnits="userSpaceOnUse"><stop stop-color="#238598"/><stop offset="1" stop-color="#44A9BE"/></linearGradient></defs></svg>