<!-- by TradingView --><svg width="56" height="56" viewBox="0 0 56 56" xmlns="http://www.w3.org/2000/svg"><path fill="url(#aus3zqtzw)" d="M0 0h56v56H0z"/><path fill-rule="evenodd" d="M28.21 46.93C36.46 44.15 42 37.73 42 33.46V13H14v20.46c0 4.26 5.54 10.69 13.79 13.47L28 47l.21-.07Zm-.21-.46.05-.01a24.87 24.87 0 0 0 9.79-6.06c2.38-2.45 3.66-5 3.66-6.94V13.5h-27v19.96c0 1.94 1.28 4.5 3.66 6.94a24.87 24.87 0 0 0 9.79 6.06l.05.01Z" fill="#fff"/><path d="M16 15v17.9c0 3.72 4.75 9.34 11.82 11.77l.18.06.18-.06C35.25 42.24 40 36.62 40 32.9V15H16Z" fill="#D41208"/><path d="M38.55 37 28.1 29.8l-10.61 7.26c.78 1.2 1.86 2.4 3.17 3.54l7.44-5.25 7.24 5.25a17 17 0 0 0 3.2-3.6Z" fill="#163576"/><path d="M27.2 20.73c.23-.1.18.06.17.1-.09.15-.24.48-.07.66.22.18.28 0 .25-.1-.03-.1-.15-.35.1-.59.18-.13.27-.01.31.08.3 1.08-.76 1.14-1 .73-.12-.2-.07-.75.24-.88Zm1.93.44c-.34.04-.42.52-.11.72-.8-.16-1.07.45-1.63.32-.6-.15-.74-.28-1.16 0 0-.3.14-.42.44-.54-.2-.3-.05-.5-.05-.5-.37-.06-.62-.52-.35-.8.02.16.12.18.2.2.2.05.8-.08 1.08-.36.27-.26.58-.4 1.38-.16-.68 0-.75.26-.87.5.35-.06.84.29 1.07.62Zm-6.83 5.58c-.1-.28-.16-.7-.23-1.06l.45-.01c.08.34.16.76.3 1.15-.16-.04-.35-.04-.52-.08Zm-3.36-7.03c.08-.25.4-.24.33.07-.13.64-.14 1.31.06 1.67-.61-.63-.45-1.53-.39-1.74Zm-.53.05c.13-.33.56-.3.43.1-.14.41-.14 1.44.26 1.97-.71-.58-.83-1.74-.7-2.07Zm17.36 6.24c1.3.35 1.8-.95 1.87-1.18.07-.22.03-.26-.15-.14-1.9 1.58-1.35-1.96-3.12-2.17 1.83-.51.74-4.51 2.86-3.8-.37-.94-1.4-.94-2.35.08.38-.73.4-2.27-.58-2.44.88 3.18-2.63 4.01-2.75 5.13-.19-.18-.5-.83.28-1.42 2.4-1.81 1.13-3.51 1.53-4.75-3.19 1.69-1.08 4.38-3.91 4.8.52-.08.89-.63.91-1.11-2.18-.47-4.25.65-4.61 1.13-1.83-.77-3.12-.65-4.14.03-.27-.35-.7-.62-1.24-1.06-.14 1.4-.12 2.5.32 3.32 0 0-.66-.36-.79-.9a5.4 5.4 0 0 1-.1-1.45c.05-.6.2-1.67-.44-1.73-1.53-.13-1.56 4.56 1.69 5.02l1.12.24c-.1-1.49.72-2.35 1.61-2.5-.09.66-.06 1.59.07 2.01.54-.2.67-1.96.25-2.67 1.73.63 2.23 2.57 1.34 3.53 2.8.18 3.52 1.59 2.8 2.76-.53.89-2.36.55-3.98.2-.15-.36-.33-.78-.48-1.3.83.15 1.77.44 2.77 1.07.74.3 1.09-.82.42-1.31-.94-.48-2.1-.7-3.4-.73a6.44 6.44 0 0 1-.2-2.95c-.61.6-.86 1.5-.68 3l-.48.05c0-.23-.06-.58-.07-.83-.28-.06-.46-.05-.71-.12-.03.34.02.74.05 1.14-.66.2-1.32.46-1.92.92-.55.42-.11.77.4.42.2-.13.77-.43 1.59-.6.04.26.14.67.23.93-.7-.04-1.27.52-.82 1.15.33.35 2.07.72 3.82.43.26-.06.22-.15.1-.25-.03-.01-.02-.04.02-.03 5.6.6 7.28.45 6.77.03-.04-.03-.04-.05 0-.05.41.06 1.74.41 3.38.45.86.02 2.04-.14 2.47-.77.06-.08.03-.1-.07-.06-.1.03-.22.12-.41.05-.37-.11-.78-.9-1.3-1.44-.08-.07-.08-.16.03-.13Zm-11.28-4.93c1.14 1.24.36 3.58-.93 2.96.75-.1 1.25-1.43.93-2.96Zm4.27-2.8c-.13-2.04 1.84-2.2 1.84-3.34.67 1.01.34 2.35-.06 3.45a3.22 3.22 0 0 0-1.78-.1Z" fill="#DCD5C3"/><defs><linearGradient id="aus3zqtzw" x1="10.42" y1="9.71" x2="68.15" y2="76.02" gradientUnits="userSpaceOnUse"><stop stop-color="#1A1E21"/><stop offset="1" stop-color="#06060A"/></linearGradient></defs></svg>