<!-- by TradingView --><svg xmlns="http://www.w3.org/2000/svg" width="56" height="56"><path fill="#F0F3FA" d="M0 0h56v56H0z"/><path d="M34 11H22l6 10 6-10z" fill="#FAB046"/><path d="M28 21H16l6-10 6 10z" fill="#FDE78B"/><path d="M22 31H10l6-10 6 10z" fill="#F7ADAD"/><path d="M28 41H16l6-10 6 10z" fill="#E6408B"/><path d="M46 31H34l6-10 6 10z" fill="#CBEAF1"/><path d="M40 21H28l6-10 6 10z" fill="#F0EB70"/><path d="M40 41H28l6-10 6 10z" fill="#9880BA"/><path d="M28 21H16l6 10 6-10z" fill="#F2746B"/><path d="M22 31H10l6 10 6-10z" fill="#F071A7"/><path d="M40 21H28l6 10 6-10z" fill="#A0DAE6"/><path d="M34 31H22l6 10 6-10z" fill="#CB2127"/><path d="M46 31H34l6 10 6-10z" fill="#8597CC"/></svg>