<!-- by TradingView --><svg width="56" height="56" viewBox="0 0 56 56" xmlns="http://www.w3.org/2000/svg"><path d="M0 28a28 28 0 1 1 56 0 28 28 0 1 1-56 0Z" fill="#F0F3FA"/><path d="M6 33.42V22.45C6 21.17 6.93 20 8.31 20h39.54c1.28.45 2.14 1.3 2.15 2.76V33.4c0 1.52-.86 2.59-2.23 2.59H8.61A2.48 2.48 0 0 1 6 33.42ZM47.23 35c1.1 0 1.77-.73 1.77-1.8V23.04c0-1.32-.95-2.05-2.19-2.05H8.73C7.66 21 7 21.8 7 22.76v10.08C7 33.92 7.52 35 8.83 35h38.4Z" fill="#034C8F"/><path d="M17.82 24h4.78c1.16 0 2.21.57 2.34 1.83.09.92-.3 1.4-.94 1.97.63.43 1.16.87 1.18 1.7.03 1.64-1.13 2.49-2.74 2.5h-4.66c-.25-.03.1-.26.15-.34a.7.7 0 0 0 .07-.33v-6.76c0-.15-.05-.27-.18-.35-.15-.1-.2-.22 0-.22Zm1.85 4.46c-.12 0-.16.06-.15.19v1.86c0 .18.02.21.17.21h2.5c.86-.01 1.53-.35 1.43-1.34-.06-.58-.55-.89-1.09-.92h-2.86Zm.17-3.16c-.32 0-.31-.03-.31.33L19.5 27c0 .16.04.2.18.2h2.67c.31 0 .72-.04.9-.33.2-.31.24-.68.12-1.05-.12-.38-.42-.51-.74-.53h-2.8ZM15.38 26.5c-.03-.79-1.61-1.19-2.2-1.2-.62-.02-1.3-.07-1.78.4-.3.3-.35.95.1 1.13.98.4 2.12.23 3.13.57.84.29 1.42.95 1.51 1.85.19 1.84-1.58 2.71-3.2 2.75-1 .02-1.92-.36-2.81-.78-.04-.01-.07-.08-.1-.08-.14 0-.27.04-.4.07 0-.06-.03-.12-.01-.18.18-.53.4-1.05.61-1.57.03-.1.07-.15.17-.1 0 .21.07.4.22.54.65.63 1.67.86 2.54.84.72-.02 1.74-.45 1.54-1.35-.03-.16-.23-.37-.39-.4-.9-.19-1.81-.24-2.7-.43a2.15 2.15 0 0 1-1.78-2.37c.1-1.58 1.7-2.25 3.12-2.19.85.04 1.62.34 2.4.68.26.12.49.08.77.09l-.74 1.73ZM34.18 32H31.9c-.25-.16.22-.36.11-.68-.08-.24-.32-1.31-.67-1.32h-2.93c-.26 0-.26.02-.36.3-.15.39-.37.68-.46 1.09-.08.4.68.6-.13.61h-1.32c-.83 0-.2-.26.01-.73.95-2.04 1.78-4.14 2.66-6.22.2-.46.12-.7-.17-1.05-.01.01 0-.01 0 0h2.46c.03.1 0 .15-.07.18-.23.1-.26.33-.18.54.8 2.2 1.85 4.31 2.82 6.45.1.23.2.45.41.59.08.05.33.23.09.24Zm-3.13-3-1.19-3-1.3 3h2.5Z" fill="#034C8F"/><path fill-rule="evenodd" d="M38 22a2 2 0 0 0-2 2v8c0 1.1.9 2 2 2h8a2 2 0 0 0 2-2v-8a2 2 0 0 0-2-2h-8Zm4.9.83a.5.5 0 1 0-.74.68c.7.75 1.53 2.11 1.78 3.72a6 6 0 0 1-1.78 5.2.5.5 0 1 0 .73.68 7 7 0 0 0 2.04-6.03 8.38 8.38 0 0 0-2.03-4.25ZM41 24.63a.5.5 0 0 1 .7.06 5.64 5.64 0 0 1 1.24 2.77 4.81 4.81 0 0 1-1.24 3.95.5.5 0 1 1-.75-.66 3.81 3.81 0 0 0 1-3.15 4.65 4.65 0 0 0-1-2.26.5.5 0 0 1 .05-.7Zm-.77 1.71a.5.5 0 0 0-.7.71c.17.17.39.5.45.85.05.32-.01.72-.45 1.13a.5.5 0 0 0 .7.72c.67-.64.84-1.37.73-2.02a2.64 2.64 0 0 0-.73-1.39Z" fill="#1FB25A"/></svg>