<!-- by TradingView --><svg width="56" height="56" viewBox="0 0 56 56" xmlns="http://www.w3.org/2000/svg"><path fill="#F0F3FA" d="M0 0h56v56H0z"/><path d="M35 36H23v1h12v-1ZM38 34H21v1h17v-1ZM40 32H20v1h20v-1ZM41 30H19v1h22v-1ZM40 27H18v2h22v-2ZM40 24H18v2h22v-2ZM40 21H18v2h22v-2ZM18 18h20.66L40 20H18v-2ZM23.13 14.06 34 14l2 1 1.5 2H21l2.13-2.94ZM29.03 12c1.73 0 3.26.44 3.97 1h-8c.76-.6 2.3-1 4.03-1Z" fill="#E4E400"/><path d="M37 44s-18.07-6.16-18.07-18.66c0-10.42 8.94-13.34 8.94-13.34S14 13.26 14 25.34C14 37.4 29 42.62 37 44Z" fill="#003466"/><path d="M34.03 14s5.8 2.18 5.8 11.96c0 9.78-9.75 12.36-10.71 12.67-.97.32-11.44.86-12.12 10.37 3.11-12.47 25-4.23 25-23.44 0-6.45-5.35-11.16-7.97-11.56Z" fill="#659BCA"/></svg>