<!-- by TradingView --><svg width="56" height="56" xmlns="http://www.w3.org/2000/svg"><path fill="#7DAED3" d="M0 0h56v56H0z"/><path d="M4.259 29c.141.638.353.984.659 1.268.306.283.635.425 1.035.425.377 0 .635-.095.8-.307a.917.917 0 00.235-.614c0-.26-.094-.473-.258-.614a3.825 3.825 0 00-.66-.402l-.54-.284c-.542-.26-.918-.543-1.13-.803-.212-.26-.4-.582-.4-.96C4 25.552 4.947 25 6 25c.306 0 .683.047.965.142.282.094.447.142.494.142.094 0 .165-.024.188-.071.024-.048.07-.119.094-.213h.26v2h-.236c-.118-.425-.306-.96-.588-1.268a1.541 1.541 0 00-1.106-.485c-.306 0-.66.084-.824.25a.77.77 0 00-.235.566c0 .26.07.472.235.59.141.142.494.331 1.012.591l.612.307a2.5 2.5 0 01.659.473c.306.33.47.708.47 1.157 0 1.164-1.041 1.772-2.094 1.772-.165 0-.33-.024-.518-.047a2.117 2.117 0 01-.517-.142l-.142-.024c-.047 0-.07-.023-.117-.023h-.094c-.094 0-.141.023-.189.07-.023.048-.07.119-.094.213H4v-2h.259zM9.396 30.777c.238 0 .405-.025.524-.1.166-.098.262-.272.262-.545v-4.288c0-.273-.072-.447-.238-.52-.096-.05-.286-.1-.524-.1v-.223h2.976v.223c-.262 0-.452.05-.548.1-.166.098-.262.272-.262.52v4.313c0 .248.072.422.19.496.144.074.334.124.596.124V31H9.396v-.223zM14 30.783c.317 0 .56-.072.658-.192.098-.12.147-.288.147-.504l-.024-4.271c-.269-.288-.44-.456-.488-.528a.529.529 0 00-.293-.096V25h1.878l3 3.6h.049v-2.544c0-.288-.049-.504-.17-.624-.099-.12-.44-.192-.757-.216V25h2v.216c-.268.048-.463.096-.561.192-.098.072-.146.24-.146.504v5.087H19l-3.78-4.631h-.05l.025 3.575c0 .264.049.456.122.552.122.168.342.264.683.288V31h-2v-.216zM25.48 25.212c.393.14.63.188.682.188a.517.517 0 00.335-.118.791.791 0 00.164-.282H27v2h-.288c-.236-.447-.577-.776-.812-1.012-.446-.47-.944-.706-1.494-.706-.629 0-1.074.236-1.336.73s-.393 1.153-.393 1.976c0 .612.079 1.106.236 1.483.288.729.838 1.105 1.624 1.105.472 0 .943-.117 1.336-.352.236-.142.524-.353.839-.683l.288.212c-.367.376-.681.635-.97.8a3.082 3.082 0 01-1.65.447c-.917 0-1.703-.259-2.332-.753-.707-.541-1.048-1.294-1.048-2.212 0-.917.34-1.67.996-2.235.602-.518 1.388-.8 2.28-.8.392 0 .785.07 1.204.212zM28.568 30.753c.245 0 .416-.05.514-.099.172-.098.27-.271.27-.518V25.84c0-.247-.073-.42-.245-.519-.098-.05-.27-.099-.54-.099V25h3.064v.222c-.367 0-.588.05-.71.148-.123.1-.172.297-.172.667v4.198c0 .197.049.32.147.395.098.074.294.098.588.098.54 0 .98-.123 1.323-.345.368-.247.662-.692.931-1.383h.27l-.367 2h-5.098v-.247h.025zM35.024 30.758c.22-.024.39-.097.513-.29.073-.121.195-.363.365-.726L37.854 25h.244l1.95 4.573c.22.508.391.846.489.991.097.146.268.218.463.218V31h-3v-.218c.293 0 .634-.024.732-.072.097-.049.146-.121.146-.29 0-.073-.024-.17-.073-.315-.024-.073-.073-.17-.122-.29l-.22-.533h-2c-.121.339-.22.58-.244.678-.073.217-.121.387-.121.483 0 .121.073.218.244.267.097.024.463.048.658.048V31h-2v-.242h.024zM38.293 29l-.854-2h-.073l-.78 2h1.707zM41.998 30.777c.238 0 .405-.025.524-.1.166-.099.261-.272.261-.545v-4.289c0-.273-.071-.446-.238-.52-.095-.05-.307-.1-.545-.1V25h2.998v.223c-.262 0-.453.05-.548.1-.167.099-.262.272-.262.52v4.314c0 .248.072.421.19.496.144.074.36.124.622.124V31h-3.002v-.223zM46.072 30.73c.29-.025.482-.074.603-.173.096-.098.168-.32.168-.639v-3.885c0-.345-.072-.566-.192-.664-.097-.074-.338-.123-.651-.148V25h2.843c.579 0 1.036.074 1.398.197.699.246 1.036.688 1.036 1.352 0 .492-.193.86-.554 1.131-.29.197-.578.345-.892.394l1.832 2.508a.413.413 0 00.144.148c.048.024.12.024.193.049V31h-1.807l-2.024-2.754v1.721c0 .32.048.517.144.615.097.098.313.172.603.172V31H46v-.27h.072zm3.427-2.955c.241-.147.308-.611.308-1.152 0-.344-.048-.615-.144-.812-.169-.344-.458-.516-.868-.516-.24 0-.385.025-.458.098-.072.05-.12.148-.12.27V28c.578 0 1.041-.077 1.282-.225z" fill="#fff"/></svg>