<!-- by TradingView --><svg width="56" height="56" viewBox="0 0 56 56" xmlns="http://www.w3.org/2000/svg"><path fill="#003A5D" d="M0 0h56v56H0z"/><path d="m19.16 28.43 2.95 1.8c.32.2.62.4.89.6V26.2l-1.6-.96A11.3 11.3 0 0 1 18.5 23a3.5 3.5 0 0 1-.9-2.3 2.7 2.7 0 0 1 1.22-2.27c.92-.62 2.01-.94 3.12-.9.35 0 .7.03 1.05.07v-3.55c-.32-.03-.64-.04-.97-.04a8.3 8.3 0 0 0-5.8 2.01A6.73 6.73 0 0 0 14 21.26a6.4 6.4 0 0 0 1.18 3.8c.81 1.1 2.14 2.23 3.98 3.37ZM23 38.33a5.4 5.4 0 0 1-1.6.23c-2.8 0-5.27-1.35-7.4-4.04v4.99a12.18 12.18 0 0 0 9 2.38v-3.56ZM33.53 41.99H26V14h5.44c2.26 0 4.02.31 5.29.93 1.2.54 2.2 1.43 2.9 2.57a6.8 6.8 0 0 1 1 3.78c0 2.76-1.4 4.72-4.18 5.9a8.4 8.4 0 0 1 4.77 2.56A6.66 6.66 0 0 1 43 34.39a6.92 6.92 0 0 1-1.08 3.83 7.87 7.87 0 0 1-3.16 2.74c-1.65.75-3.44 1.1-5.23 1.03Z" fill="#fff"/><path d="m29.14 29.98.05.1c1.46 1.03 2.05 3.48 2.05 4.4 0 2.24-.71 4.03-2.17 5.08l-.05.09s8-3.22 8-5.17c0-1.95-7.88-4.5-7.88-4.5Z" fill="#003A5D"/></svg>