<!-- by TradingView --><svg width="56" height="56" xmlns="http://www.w3.org/2000/svg"><path fill="#E81111" d="M0 0h56v56H0z"/><path d="M28 22.967v16.68c0 .492-.308.424-.711.076-.528-.454-3.09-2.702-5.349-3.383-2.276-.682-2.514-.637-4.852-.644-2.253-.006-4.25-.15-4.514-.263-.262-.113-.639-.15-.565-1.059l2.334-16.471c.11-.723-.075-1.1 1.128-.8 1.201.302 4.4.261 5.001.302.98.08 2.973.57 4.366 1.78C26.229 20.393 28 21.907 28 22.968zM29 22.424v15.898c0 .758.377.912.828.303.557-.754 1.003-1.368 1.857-1.777 3.01-1.448 7.146-1.753 7.67-1.791.53-.037 3.237-.265 3.613-.381.912-.276 1.156-.015.977-1.865L41.84 16.639c-.075-.726-.228-.689-.681-.577-.447.117-.324.12-2.445.498-1.01.182-2.398.035-4.02.537-1.575.479-2.804 1.336-4.18 2.584-.516.467-1.44 1.371-1.514 2.743z" fill="#fff"/></svg>