<!-- by TradingView --><svg xmlns="http://www.w3.org/2000/svg" width="56" height="56" viewBox="0 0 56 56"><path fill="#0089D1" d="M0 0h56v56H0z"/><path fill-rule="evenodd" d="M31 26.92h.04L33.53 24h2.36l-2.5 2.92L36 30h-2.47l-2.49-3H31v3h-2v-9h2v5.92zM8.56 25.08c.76.04 1.49.26 2.12.64v-1.29A4.58 4.58 0 0 0 8.63 24C7.06 24 6 24.71 6 25.78c0 1.13 1.14 1.53 2.04 1.85.61.22 1.11.4 1.11.73 0 .26-.37.43-.96.43a5.52 5.52 0 0 1-2.05-.5v1.28c.71.29 1.49.43 2.27.43 1.65 0 2.59-.68 2.59-1.88 0-1.22-1.27-1.68-2.2-2.01-.53-.2-.95-.35-.95-.58 0-.4.45-.45.71-.45zM24.8 30c.76-.01 1.5-.14 2.2-.39l.01-1.3c-.9.3-1.35.4-1.84.4-1.18 0-1.96-.68-1.96-1.7s.8-1.67 2.03-1.67c.58.01 1.25.15 1.77.39v-1.35a8.2 8.2 0 0 0-2.3-.38c-2.16 0-3.7 1.25-3.7 3.02 0 1.8 1.49 2.98 3.79 2.98zm15.62-5c-.77 0-1.3.56-1.41 1h2.76c-.15-.67-.6-1-1.35-1zm.66 3.92c.79 0 1.4-.21 2.31-.83v1.14c-.8.53-1.78.8-2.78.77-2.18 0-3.6-1.18-3.6-2.98 0-1.77 1.36-3.02 3.28-3.02 1.8 0 3.3.9 3.21 3h-4.47a2 2 0 0 0 2.05 1.92zM51 25h-3v2.64c0 .59.75.97 1.46.97a3.7 3.7 0 0 0 1.54-.35v1.36c-.67.25-1.39.38-2.12.38-1.52 0-2.88-.57-2.88-2.25V25h-1v-.47L47.74 22H48v2h3v1zm-38 2c0 1.77 1.34 3 3.26 3 .74 0 1.47-.22 2.09-.63A2.76 2.76 0 0 0 19.5 27a2.79 2.79 0 0 0-1.1-2.34 3.63 3.63 0 0 0-2.14-.67c-1.57 0-3.26.94-3.26 3zm.33 0c0-1.84 1.52-2.67 2.93-2.67 1.08 0 2.91.56 2.91 2.68 0 2.1-1.83 2.67-2.9 2.67-1.77 0-2.94-1.08-2.94-2.68zm1.51 0c0 1.73.89 1.98 1.42 1.98.52 0 1.4-.26 1.4-2.02 0-1.25-.5-1.94-1.4-1.94-.43 0-1.42.2-1.42 1.98zm.33 0c0-1.07.39-1.65 1.1-1.65.7 0 1.06.54 1.06 1.61 0 .77-.18 1.7-1.07 1.7-.73 0-1.1-.56-1.1-1.66zm-.68 11l-1.29-.68-.02-.07c-.48-1.82.02-3.86 1.21-4.97.87-.8 2.3-1.28 3.81-1.28.52 0 1.03.06 1.54.17l.26.06-.8 1.1h-.1a4.76 4.76 0 0 0-3.18 1.3 4.42 4.42 0 0 0-1.47 4.03l.04.34zm-.96-.91l.52.27c-.08-.73.03-1.47.3-2.16.29-.68.73-1.3 1.3-1.81a5.04 5.04 0 0 1 3.35-1.4l.38-.53c-.39-.07-.78-.1-1.18-.1-1.42 0-2.74.43-3.54 1.17-1.09 1-1.55 2.88-1.13 4.56zM40 31h.75v1.12c.15-.08.32-.12.5-.12.69 0 1.25.67 1.25 1.5s-.56 1.5-1.25 1.5c-.18 0-.35-.04-.5-.12V35H40v-4zm.75 2.03v.94c.1.33.28.56.5.56.3 0 .56-.46.56-1.03 0-.57-.25-1.03-.56-1.03-.22 0-.4.23-.5.56zM32.63 32H32v3h.73v-1.89c0-.26.2-.48.45-.48.24 0 .44.22.44.48V35h.76v-1.89c0-.26.2-.48.44-.48s.44.22.44.48V35H36v-1.9c0-.61-.45-1.1-1-1.1a.98.98 0 0 0-.83.46.98.98 0 0 0-.82-.46.97.97 0 0 0-.72.34V32zm5.12 3c.69 0 1.25-.67 1.25-1.5s-.56-1.5-1.25-1.5-1.25.67-1.25 1.5.56 1.5 1.25 1.5zm0-.47c.3 0 .56-.46.56-1.03 0-.57-.25-1.03-.56-1.03-.3 0-.56.46-.56 1.03 0 .57.25 1.03.56 1.03zm5.9-2.83a.35.35 0 1 0 0-.7.35.35 0 0 0 0 .7zm.35.29h-.7v3h.7v-3zm2-.99h-.7v4h.7v-4zm3.5 3.58v-.56c-.17.15-.59.45-.94.45-.43 0-.78-.33-.78-.82h1.71c.05-.55-.13-1.65-1.22-1.65-1.09 0-1.3 1.1-1.27 1.65.04.45.37 1.35 1.36 1.35.26-.02.86-.13 1.13-.42zM47.82 33v.17h1.02v-.17a.5.5 0 0 0-.51-.48.5.5 0 0 0-.5.48z" fill="#fff"/></svg>