<!-- by TradingView --><svg width="56" height="56" viewBox="0 0 56 56" xmlns="http://www.w3.org/2000/svg"><path fill="#F0F3FA" d="M0 0h56v56H0z"/><path d="M14.12 21.07c-.48 10.7 9.5 16.02 14.55 17.34.76-1.18 1.39-3.53 1.6-4.56-9.47-4.16-13.09-9.28-13.34-13.7-.25-4.4 1.91-6.99 5.42-7.24 2.81-.2 5.49 2.25 6.47 3.5h4.62c-5.37-8.01-18.76-7.66-19.32 4.66Z" fill="url(#apet3k5ex)"/><path d="M40.69 19.47c-8.98-5.71-18.48.43-22.1 4.22.63 1.25 2.35 2.96 3.13 3.66 8.26-6.28 14.45-6.92 18.37-4.97 3.92 1.96 5.08 5.13 3.56 8.34-1.21 2.57-4.64 3.71-6.2 3.96l-2.29 4.06c9.55-.76 15.86-12.7 5.53-19.27Z" fill="url(#bpet3k5ex)"/><path d="M28.97 43.44c9.37-5.03 8.82-16.41 7.37-21.48-1.39-.06-3.71.59-4.7.93 1.28 10.36-1.25 16.1-4.88 18.57-3.63 2.46-6.93 1.9-8.93-1.03-1.6-2.34-.87-5.92-.31-7.41L15.17 29c-4.1 8.75 3.02 20.22 13.8 14.44Z" fill="url(#cpet3k5ex)"/><defs><linearGradient id="apet3k5ex" x1="23.77" y1="11" x2="23.77" y2="38.41" gradientUnits="userSpaceOnUse"><stop stop-color="#A22615"/><stop offset=".45" stop-color="#AF2C1D"/><stop offset=".72" stop-color="#D93E31"/></linearGradient><linearGradient id="bpet3k5ex" x1="44.59" y1="32.92" x2="20.89" y2="19.59" gradientUnits="userSpaceOnUse"><stop stop-color="#A22615"/><stop offset=".45" stop-color="#AF2C1D"/><stop offset=".72" stop-color="#D93E31"/></linearGradient><linearGradient id="cpet3k5ex" x1="15.48" y1="40.16" x2="38.96" y2="26.44" gradientUnits="userSpaceOnUse"><stop stop-color="#A22615"/><stop offset=".45" stop-color="#AF2C1D"/><stop offset=".72" stop-color="#D93E31"/></linearGradient></defs></svg>