<!-- by TradingView --><svg xmlns="http://www.w3.org/2000/svg" width="56" height="56" viewBox="0 0 56 56"><path fill="url(#a1ejbs55l)" d="M0 0h56v56H0z"/><path fill-rule="evenodd" d="M14.3 21.98l1.3-2.05-.69-.43a3.25 3.25 0 0 0-1.73-.5h-1.39a3.47 3.47 0 0 0-3.5 3.3 2.85 2.85 0 0 0 1.98 2.8l2.07.68c.44.15.7.58.64 1.03-.1.67-.7.86-1.27.86-.52 0-1.13-.07-1.58-.42l-.84-.64L8 28.82l.47.3c.92.57 2 .88 3.1.88h.7c2 0 3.64-1.54 3.73-3.48a3.04 3.04 0 0 0-2.13-3.01l-1.78-.58a1.2 1.2 0 0 1-.41-.23.77.77 0 0 1 .45-1.36c.96-.08 1.4.13 2.17.64zM40 30V19h8v2.5h-5v2h4.5v2H43v2h5V30h-8zM17 19h3v4.5h4V19h3v11h-3v-3.5h-4V30h-3V19zm22 5.5a5.5 5.5 0 1 1-11 0 5.5 5.5 0 0 1 11 0zm-3 0a2.5 2.5 0 1 1-5 0 2.5 2.5 0 0 1 5 0z" fill="#fff"/><path d="M25 32v6h1v-3.66L30 38v-6h-1v3.59L25 32zM13 32.43v1.05c-.2-.24-.81-.48-1.68-.48-1.08 0-2.32.66-2.32 1.99C9 36.3 10.32 37 11.32 37c.64 0 1.3-.35 1.68-.6v1.16c-.33.15-.78.44-1.68.44-.98 0-3.32-.59-3.32-3.01C8 32.56 10.2 32 11.32 32c.94 0 1.4.25 1.68.43zM36.5 38l3-6h-1.12l-1.88 3.85L34.59 32H33.5l3 6zM16.5 32l-3 6h1.12l1.88-3.85L18.41 38h1.09l-3-6z" fill="#fff"/><ellipse cx="16.5" cy="36.5" rx=".75" ry=".75" fill="#BA0F3C"/><path d="M41.5 32l-3 6h1.13l1.87-3.85L43.42 38h1.08l-3-6z" fill="#fff"/><ellipse cx="41.5" cy="36.5" rx=".75" ry=".75" fill="#50AD3E"/><ellipse cx="32.5" cy="32.75" rx=".75" ry=".75" fill="#F0C62A"/><path d="M20 32v6h1v-2.4l1.72 2.4H24l-1.91-2.45c.8-.19 1.41-.9 1.41-1.75 0-1-.83-1.8-1.85-1.8H20zm1 2.5V33h.6c.5 0 .9.34.9.75s-.4.75-.9.75H21zM32 34h1v4h-1zM45 38v-6h1v5h2v1h-3z" fill="#fff"/><defs><linearGradient id="a1ejbs55l" x1="10.42" y1="9.71" x2="68.15" y2="76.02" gradientUnits="userSpaceOnUse"><stop stop-color="#1A1E21"/><stop offset="1" stop-color="#06060A"/></linearGradient></defs></svg>