<!-- by TradingView --><svg width="56" height="56" viewBox="0 0 56 56" xmlns="http://www.w3.org/2000/svg"><path fill="#F0F3FA" d="M0 0h56v56H0z"/><path d="M8.33 26.75a1.6 1.6 0 0 0-.57-1.23c-.4-.34-.93-.52-1.56-.52-1.13 0-1.93.6-2.2 1.63v.03h1.02v-.01c.2-.5.57-.73 1.19-.73.66 0 1.1.33 1.1.82 0 .52-.41.84-1.1.84H5.5v.92h.71c.68 0 1.09.3 1.09.79 0 .5-.42.8-1.07.8-.58 0-.97-.25-1.17-.74v-.02H4.03v.03C4.26 30.39 5.08 31 6.23 31c1.36 0 2.08-.86 2.08-1.71 0-.52-.24-.94-.7-1.25.48-.32.72-.75.72-1.3ZM13 25.93V25H9v1h2.8l-2.5 4.97-.01.03h1.13L13 25.94ZM17 28h-1v1h-1.84L17 25h-1.18L13 29v1h3v1h1v-1h1v-1h-1v-1ZM26.38 25.44l-1.35 4.12-1.5-4.56h-1.1l-1.47 4.57-1.5-4.55-.01-.02h-1.06l2 6h1.1l1.49-4.65 1.51 4.63V31h1.1l2-6h-.61a.64.64 0 0 0-.6.44ZM33 26h2v5h1v-5h2v-1h-5v1ZM39 31h4v-1h-3v-1.53h3v-.95h-3V26h3v-1h-4v6ZM49 26.82c0-.88-.55-1.82-2.08-1.82H44v6h1v-2.5h1.12l1.81 2.5h1.31l-1.85-2.5c1-.15 1.61-.7 1.61-1.68Zm-4 .68V26h1.88c.68 0 1.12.27 1.12.82 0 .55-.44.68-1.12.68H45ZM50.65 23a1.5 1.5 0 1 0-.3 3 1.5 1.5 0 0 0 .3-3Zm-.03 2.1a.6.6 0 1 1-.23-1.2.6.6 0 0 1 .23 1.2ZM32.3 28.8 30.67 25h-1.02l-1.63 3.8-.4.94-.55 1.26h1.05l.29-.63a.66.66 0 0 1 .24-.3c.1-.07.22-.07.35-.07h2.26c.13 0 .26-.08.36-.15l.55 1.15h1.08l-.54-1.26-.4-.95Zm-2.15-2.5 1.04 2.53a.63.63 0 0 1-.23.15.62.62 0 0 1-.27.02H29l1.15-2.7Z" fill="#1D5291"/></svg>