<!-- by TradingView --><svg width="56" height="56" viewBox="0 0 56 56" xmlns="http://www.w3.org/2000/svg"><path fill="#F0F3FA" d="M0 0h56v56H0z"/><path fill-rule="evenodd" d="M17.24 19.6a15.23 15.23 0 0 1 7.01-2.57c.78-.1 3.29.04 4.44.24 2.44.43 4.19 1.07 7.62 2.78a28.5 28.5 0 0 0 9.07 2.98c2.27.39 3.23.83 4.26 1.95a5.58 5.58 0 0 1 1.28 2.59c.26 1.25-.12 1.39-.83.3-1.5-2.3-2.32-2.78-5.76-3.37-3.57-.61-5.8-1.3-8.75-2.7-4.85-2.3-6.95-2.95-9.7-2.95-2.44 0-4.56.59-7.57 2.1-1.84.92-1.91.95-3.2 1.07-2.6.25-3.94.8-5.32 2.2a6.8 6.8 0 0 0-1.9 3.49c-.13.52-.3.96-.39 1-.08.02-.24-.18-.35-.44-.27-.67-.16-2.03.25-3.07 1.12-2.78 3.75-4.51 7.26-4.77 1.3-.1 1.73-.24 2.58-.82ZM10.32 33H9c0 1.28.47 2 2.41 2 1.94 0 3.2-1.14 3.2-2.48 0-1.15-1.02-1.38-1.9-1.59l-.4-.1c-.94-.25-1.21-.53-1.21-.73v-.02c0-.22 0-.98 1.35-.98 1.1 0 1.18.53 1.07.9h1.32c.1-.45.14-2-1.91-2-2.06 0-3.2 1.11-3.2 2.4 0 1.28 1.26 1.56 2.39 1.8 1.05.22 1.03.52 1.02.7v.04c0 .17-.11.92-1.57.92-1.17 0-1.32-.5-1.25-.86Zm7.33-5h-1.39l-.9 4.66c-.16.78.04 2.34 2.12 2.34a3.1 3.1 0 0 0 3.13-2.18l1-4.82h-1.4c-.28 1.36-.88 4.18-.99 4.56-.13.48-.33 1.25-1.57 1.25-1 0-1.06-.77-.96-1.15l.96-4.66Zm3.54 7 1.48-7h1.43l1.74 4.88.95-4.88h1.3l-1.52 7h-1.3l-1.78-4.93-.98 4.93H21.2Zm12.55-2.41h-1.33a1.9 1.9 0 0 1-1.8 1.21c-1.4 0-1.25-1.65-1.08-2.36.17-.7.75-2.24 2.14-2.24 1.11 0 1.25.75 1.18 1.13h1.42c.1-.78-.22-2.33-2.27-2.33-3.14 0-3.92 3.22-3.99 4-.07.77-.14 3 2.36 3 2 0 3.08-1.6 3.37-2.41ZM35.08 35H33.6l3.76-7h1.57l1 7h-1.48l-.23-2H36.1l-1.02 2Zm2.76-5.38.27 2.38h-1.5l1.23-2.38ZM40.5 35l1.45-7h3.36c.57.01 1.69.36 1.69 1.65 0 1.3-.95 1.86-1.43 1.98.22.08.66.38.66.97 0 .58-.24 1.45-.36 1.81-.02.12 0 .36.24.36V35h-1.6l.3-1.94c.05-.3-.02-1.06-.66-1.06H42.4l-.55 3H40.5Zm2.56-6h1.75c.27.02.79.2.79.79 0 .73-.38 1.21-1.3 1.21h-1.64l.4-2Z" fill="#13264E"/></svg>