<!-- by TradingView --><svg width="56" height="56" xmlns="http://www.w3.org/2000/svg"><path fill="#0C5AA5" d="M0 0h56v56H0z"/><path d="M4.532 29.884c.11.168.264.302.447.386.176.082.368.124.562.125.112-.001.223-.018.33-.05a.999.999 0 00.306-.152.826.826 0 00.226-.248.66.66 0 00.087-.343.513.513 0 00-.175-.42 1.513 1.513 0 00-.434-.242 8.483 8.483 0 00-.565-.188 2.296 2.296 0 01-.566-.252 1.38 1.38 0 01-.434-.434 1.348 1.348 0 01-.175-.735c.008-.33.143-.642.378-.873.144-.14.315-.25.501-.326.234-.093.485-.138.737-.131.253-.001.505.035.747.107.248.079.466.231.626.437l-.525.477a.874.874 0 00-.343-.303 1.089 1.089 0 00-.504-.114 1.228 1.228 0 00-.448.07.805.805 0 00-.286.182.64.64 0 00-.151.239.728.728 0 00-.044.235.599.599 0 00.175.464c.127.113.274.202.434.262.185.07.374.131.565.181.198.051.388.127.566.225.172.096.32.23.434.39.127.201.188.438.175.675a1.42 1.42 0 01-.132.619 1.372 1.372 0 01-.353.463c-.155.13-.333.227-.525.289a2.03 2.03 0 01-.646.1 2.352 2.352 0 01-.868-.16A1.422 1.422 0 014 30.34l.532-.457zm6.841-2.734a1.333 1.333 0 00-.511-.403c-.2-.093-.419-.14-.64-.14a1.681 1.681 0 00-1.29.564 1.9 1.9 0 00-.36.614c-.086.243-.13.499-.127.756-.002.243.039.484.12.712.077.218.196.42.35.592.155.172.346.31.559.403.235.102.49.152.747.148.25.005.498-.052.72-.168a1.55 1.55 0 00.525-.47l.545.41a2.176 2.176 0 01-.188.21 1.89 1.89 0 01-.354.276 2.528 2.528 0 01-.535.242 2.289 2.289 0 01-.724.104c-.351.005-.7-.069-1.02-.216a2.496 2.496 0 01-1.43-2.244 2.782 2.782 0 01.182-1.018c.114-.3.287-.574.508-.806.222-.23.489-.409.784-.528a2.632 2.632 0 011.935-.006c.295.114.552.307.745.557l-.54.411zM12.746 26h.662v2.076h2.532V26h.662v5h-.662v-2.288h-2.532V31h-.662v-5zm4.939.001h1.717c.264-.009.526.036.773.13.182.073.346.187.48.332.114.13.198.284.244.452.045.158.068.32.07.484a1.316 1.316 0 01-.7 1.17 1.297 1.297 0 01-.5.15L21.154 31h-.828l-1.242-2.203h-.738V31h-.662v-4.999zm.662 2.203h.87c.127 0 .255-.01.382-.032a.998.998 0 00.338-.116.63.63 0 00.238-.244.993.993 0 000-.826.63.63 0 00-.238-.243 1.01 1.01 0 00-.338-.116 2.306 2.306 0 00-.383-.032h-.87l.001 1.61zM23.907 31a2.573 2.573 0 01-1.003-.192 2.333 2.333 0 01-1.295-1.32 2.729 2.729 0 010-1.976 2.335 2.335 0 011.296-1.32 2.722 2.722 0 012.005 0 2.336 2.336 0 011.296 1.32c.246.635.246 1.34 0 1.976a2.334 2.334 0 01-1.296 1.32c-.318.13-.66.195-1.003.192zm0-.605a1.736 1.736 0 001.669-1.16 2.18 2.18 0 000-1.471 1.798 1.798 0 00-.363-.601 1.785 1.785 0 00-2.612 0 1.77 1.77 0 00-.363.601 2.18 2.18 0 000 1.472 1.733 1.733 0 001.67 1.16zM27.182 26h1.704c.306-.005.612.036.907.12.24.071.468.18.676.322.182.126.343.282.476.462.121.165.222.346.3.537a2.957 2.957 0 01.208 1.06c0 .317-.058.632-.172.928a2.383 2.383 0 01-1.349 1.359c-.368.148-.761.22-1.156.212h-1.594v-5zm.663 4.365h.834c.27.001.539-.038.797-.117.24-.071.463-.19.659-.35a1.67 1.67 0 00.448-.582c.115-.255.172-.534.166-.816a2.495 2.495 0 00-.076-.561 1.707 1.707 0 00-.286-.611 1.71 1.71 0 00-.583-.49 2.025 2.025 0 00-.966-.203h-.993v3.73zM32.894 26h-.663v5h.663v-5zm1.083 0h.869l2.69 4.11h.014V26h.662v5h-.842l-2.717-4.11h-.014V31h-.662v-5zm9.369 2.219v2.344a2.166 2.166 0 01-.397.188 4.2 4.2 0 01-1.407.249 2.743 2.743 0 01-1.08-.202 2.316 2.316 0 01-1.3-1.34 2.682 2.682 0 01-.17-.957 2.59 2.59 0 01.184-.988 2.337 2.337 0 011.296-1.32c.318-.13.659-.195 1.003-.191.366-.012.731.043 1.077.164.263.1.501.255.7.454l-.458.49a1.693 1.693 0 00-.626-.393 2.16 2.16 0 00-.693-.11 1.736 1.736 0 00-1.67 1.158 2.123 2.123 0 00.015 1.485 1.801 1.801 0 001.71 1.145c.217 0 .435-.02.649-.064a1.85 1.85 0 00.521-.185v-1.323h-1.056v-.605h1.703-.001zM44.488 26h3.153v.636h-2.49v1.49h2.317v.635h-2.317v1.604h2.614V31h-3.277v-5zm4.042.001h1.718c.263-.009.526.036.772.13.182.073.346.187.48.332.114.13.198.284.244.452.045.158.068.32.07.484a1.314 1.314 0 01-.321.866 1.36 1.36 0 01-.38.303 1.297 1.297 0 01-.5.151L52 31h-.828l-1.241-2.203h-.738V31h-.663v-4.999zm.663 2.203h.869c.128 0 .256-.01.382-.032a1.01 1.01 0 00.338-.116.629.629 0 00.239-.244.995.995 0 000-.826.63.63 0 00-.239-.243 1.01 1.01 0 00-.338-.116 2.305 2.305 0 00-.382-.032h-.87v1.61z" fill="#fff"/><path d="M23.5 25a.5.5 0 11-.998 0 .5.5 0 01.998 0zm2 0a.5.5 0 11-.998 0 .5.5 0 01.998 0z" fill="#E5823F"/></svg>