<!-- by TradingView --><svg xmlns="http://www.w3.org/2000/svg" width="56" height="56"><path fill="#EB1923" d="M0 0h56v56H0z"/><path fill-rule="evenodd" d="M51 27.93C51 34.2 40.7 39.3 28 39.3S5 34.2 5 27.93c0-6.29 10.3-11.38 23-11.38s23 5.1 23 11.38zm-7.6 7.18c3.95-1.89 6.25-4.44 6.25-7.18 0-2.74-2.3-5.3-6.24-7.18-3.93-1.89-9.37-3.06-15.41-3.06-6.04 0-11.48 1.17-15.4 3.06-3.95 1.89-6.25 4.51-6.25 7.25s2.3 5.22 6.24 7.11c3.93 1.88 9.37 3.06 15.41 3.06 6.04 0 11.48-1.18 15.4-3.06zM28 38.48c12.16 0 22-4.72 22-10.55 0-5.83-9.84-10.56-22-10.56S6 22.17 6 28c0 5.83 9.84 10.48 22 10.48zm19.9-10.55c0 2.43-2.13 4.72-5.78 6.42-3.62 1.7-8.65 2.74-14.23 2.74s-10.61-1.05-14.24-2.74c-3.64-1.7-5.77-3.99-5.77-6.42 0-2.44 2.13-4.73 5.77-6.43 3.63-1.69 8.66-2.74 14.24-2.74s10.6 1.05 14.23 2.74c3.65 1.7 5.78 4 5.78 6.43zm.35 0c0 5.24-9.12 9.48-20.36 9.48-11.25 0-20.36-4.24-20.36-9.48s9.11-9.49 20.36-9.49c11.24 0 20.36 4.25 20.36 9.49zM28.6 24h-1.32c0-.7-1.48-.6-1.54-.16-.03.09.06.28.65.36l.4.04c.8.07 1.94.17 1.99.84.04.63-1.08.92-2.34.92-.82 0-1.66-.12-2.12-.45V25h1.42s.02.52.75.52.8-.3.79-.49c-.01-.19-.29-.36-.87-.39-.57-.03-1.97-.12-1.97-.77-.02-.32.14-.87 2.05-.87.78 0 1.35.15 1.77.26l.34.09V24zm-12.44-1h2.47v.38h-.02c-.19 0-.35.17-.35.37v1.46c0 .2.16.37.35.37h.02V26h-1.88v-.42h.01c.2 0 .35-.17.35-.37V24.1L15.97 26h-.92l-1.13-1.9v1.11c0 .2.15.37.34.37h.02V26H12.4v-.42h.01c.2 0 .35-.17.35-.37v-1.46c0-.2-.16-.37-.35-.37h-.01V23h2.46l.65 1.12.65-1.12zm4.1 4h-2.47l-.65 1.12L16.5 27h-2.47v.39h.01c.2 0 .35.16.35.36v1.46c0 .2-.16.37-.35.37h-.01V30h1.88v-.42h-.02a.36.36 0 01-.34-.37V28.1l1.13 1.9h.92l1.14-1.9v1.11c0 .2-.16.37-.35.37h-.01V30h1.88v-.42h-.02a.36.36 0 01-.35-.37v-1.46c0-.2.16-.36.35-.36h.02V27zm.95-4h-2.02v.38c.2 0 .36.17.36.37v.91c0 1.27 1.24 1.34 2.09 1.34.84 0 2-.14 2-1.34v-.88c0-.22.18-.4.4-.4V23h-2.16v.38h.14c.25 0 .45.21.45.47v.77c0 .54-.42.77-.83.77-.42 0-.9-.22-.9-.77v-.77c0-.26.08-.47.32-.47h.15V23zm8.08.94c0-.94 1.59-.94 1.97-.94h.01c.77 0 2.07.02 2.07 1.03h-1.32a.77.77 0 00-.75-.56.77.77 0 00-.78.76v.54c0 .42.35.75.78.75.42 0 .77-.32.78-.73h1.29c0 1.19-1.15 1.21-2.07 1.21-.6 0-1.98 0-1.98-.93v-1.13zM36.1 23h-2.3v.4h.22c.2 0 .35.16.35.37v1.44c0 .2-.16.37-.35.37h-.22V26h4.37v-1.44h-1.13v.15c0 .5-.36.87-.83.87h-.35a.36.36 0 01-.34-.37v-1.44c0-.2.15-.37.34-.37h.24V23zm2.45 0h4.48v.79h-1.25a.33.33 0 00-.32-.34h-.84a.33.33 0 00-.32.34v.41h1.84v.45H40.3v.55c0 .16.15.28.31.28h.85c.15 0 .32-.12.32-.28v-.22h1.25V26h-4.48v-.42h.24c.2 0 .35-.17.35-.37v-1.46c0-.2-.16-.37-.35-.37h-.24V23zm-2.68 4h-4.48v.37h.2c.2 0 .35.17.35.37v1.47c0 .2-.15.37-.35.37h-.2V30h4.48v-1.01h-1.25v.21c0 .16-.17.29-.32.29h-.85c-.16 0-.31-.13-.31-.29v-.55h1.66v-.45h-1.66v-.42c0-.18.14-.33.32-.33h.84c.18 0 .32.15.32.33h1.25V27zm-6.17 4h2.28v.4h-.24c-.19 0-.34.18-.34.38v1.43c0 .2.15.37.34.37h.35c.47 0 .86-.38.86-.88v-.14h1.12V34H29.7v-.42h.24c.2 0 .35-.16.35-.37v-1.43c0-.2-.16-.38-.35-.38h-.24V31zm-.42 0H27v.4h.24c.19 0 .35.18.35.38v1.43c0 .2-.16.37-.35.37H27V34h2.28v-.42h-.24a.36.36 0 01-.35-.37v-1.43c0-.2.16-.38.35-.38h.24V31zm5.35 0h2.28v.4h-.24c-.19 0-.34.18-.34.38v1.43c0 .2.15.37.34.37h.35c.47 0 .86-.38.86-.88v-.14H39V34h-4.37v-.42h.24c.2 0 .35-.16.35-.37v-1.43c0-.2-.16-.38-.35-.38h-.24V31zm-13.51-1.64L22.18 27h2.08l.96 2.24c.09.2.3.34.52.34V30h-2v-.42c.1 0 .18-.1.14-.2l-.1-.25h-1.2l-.13.33c-.02.06.01.12.07.12h.13V30H20.7v-.42h.1c.14 0 .27-.09.33-.22zm2.06-1.7l.44 1.08h-.88l.44-1.08zm5.84-.63V27h1.88v.45h-.28a.72.72 0 00-.2.14l-.85.84.97 1c.1.1.22.15.36.15V30h-1.87v-.42c.16-.08-.01-.24-.07-.3h-.01l-.72-.64h-.45v.57c0 .2.15.37.34.37h.2V30H26.2v-.42h.03c.2 0 .35-.16.35-.37v-1.47c0-.2-.16-.37-.35-.37h-.03V27h2.1v.39h-.19c-.19 0-.34.16-.34.36v.5h.6l.56-.6c.03-.04.12-.13.12-.2h-.04v-.42zm9.46-.03h-2.1v.4c.3 0 .54.24.54.54v1.1c0 .3-.24.54-.54.54V30h2.1v-.45a.54.54 0 01-.38-.5v-.26h1.13c.18.16.23.45.23.74 0 .31.1.47.18.47h1.55v-.42c-.12 0-.18-.01-.22-.16v-.02l-.01-.02-.01-.04c-.06-.24-.16-.65-.55-.67.81-.4.84-1.67-.43-1.67h-1.49zm-.38 1.23v-.76h1.04c.23 0 .42.19.42.41 0 .2-.16.35-.35.35h-1.1zM21.7 31h3.58c1.27 0 1.24 1.26.43 1.67.4.02.5.43.55.67l.01.05.01.03c.04.15.1.16.23.16V34h-1.56c-.08 0-.18-.16-.18-.47 0-.3-.04-.58-.22-.74H23.4v.25c0 .24.16.45.38.52V34h-2.1v-.42c.3 0 .54-.24.54-.54v-1.1c0-.3-.25-.54-.54-.54V31zm1.72.47v.76h1.1c.2 0 .35-.15.35-.35a.41.41 0 00-.41-.4H23.4zm-6.12.45c0-.92 1.1-.92 1.9-.92.78 0 2.04 0 2.04.92h-1.22a.5.5 0 00-.48-.33h-.52c-.28 0-.5.21-.5.47v.88c0 .26.22.47.5.47h.52a.5.5 0 00.5-.43h-.79v-.53h1.99v.63c0 .93-1.09.92-1.9.92h-.26c-.8 0-1.78 0-1.78-.92v-1.16z" fill="#fff"/></svg>