<!-- by TradingView --><svg width="56" height="56" viewBox="0 0 56 56" xmlns="http://www.w3.org/2000/svg"><path fill="#F0F3FA" d="M0 0h56v56H0z"/><path d="m36.45 37.28 1.04.62a7.66 7.66 0 0 1 3.53-2.62l-.15-1.22a8.78 8.78 0 0 0-4.42 3.22ZM34.33 36.5l1.2.39a10.63 10.63 0 0 1 6.93-4.63l-.24-1.18a11.54 11.54 0 0 0-7.9 5.41ZM30.08 36.81l1.2-.27c-2.62-7.76-8.86-13.63-17.35-15.95l-.3 1.15A23.56 23.56 0 0 1 30.07 36.8ZM23.23 36.88l1.22-.33a14.57 14.57 0 0 0-10.72-7.76l-.18 1.16c4.21.73 7.82 3.29 9.68 6.93Z" fill="#008061"/><path d="m13.68 31.34-.18 1.17c2.96.4 5.55 2 7.16 4.37l1.14-.49a11.53 11.53 0 0 0-8.12-5.05ZM14.63 34.05l-.15 1.17a8.09 8.09 0 0 1 4.36 2.8l1.05-.58a9.31 9.31 0 0 0-5.26-3.39ZM32.92 34.55l-.44-1.07A16.5 16.5 0 0 1 44 26.68l-.31-1.16c-4.7.61-8.99 3.03-11.81 6.7l-.52-1A19.5 19.5 0 0 1 43.37 24l-.3-1.14a20.77 20.77 0 0 0-12.38 7.24L30 29.04c3.1-3.65 7.3-6.27 12-7.52l-.4-1.13a24.84 24.84 0 0 0-12.34 7.63l-.65-.83A28.1 28.1 0 0 1 40.97 19l-.44-1.13a30.12 30.12 0 0 0-4.23 1.79c.74-1.47 1.64-2.9 2.68-4.1l-.96-.76a22.62 22.62 0 0 0-3.56 5.88c-.54.33-1.08.68-1.6 1.05.86-2.93 2.3-5.8 4.23-8.09l-1.04-.67a24.3 24.3 0 0 0-4.78 9.95c-.48.39-.95.8-1.4 1.21a28.37 28.37 0 0 1 4.2-11.08l-1.08-.6a29.2 29.2 0 0 0-4.53 13.06l-.66.72a27.5 27.5 0 0 0-.39-.42c.2-5.19 1.85-10.4 4.81-14.64l-1.1-.6a28.8 28.8 0 0 0-4.88 14.06l-1.04-.95c.43-4.74 1.87-9.3 4.2-13.1L28.3 10a31.59 31.59 0 0 0-4.25 12.76 30 30 0 0 0-.96-.7c.5-3.94 1.47-7.5 2.94-10.63l-1.05-.66c-.58 1.22-1.1 2.5-1.53 3.85-.5-.96-1.1-1.86-1.76-2.72l-.93.82a16.7 16.7 0 0 1 2.16 3.68c-.19.7-.36 1.43-.51 2.18a15.5 15.5 0 0 0-3.08-5.24l-.92.8a17 17 0 0 1 3.56 6.9l-.03.24c-.44-.28-.9-.55-1.35-.81a18.03 18.03 0 0 0-3.44-5.7l-.85.9c.99 1.1 1.84 2.43 2.55 3.89a29.84 29.84 0 0 0-4.1-1.6l-.3 1.14c7.92 2.5 14.92 8.46 17.8 17.29l1.04-.05a13.3 13.3 0 0 1 9.33-6.72l-.23-1.18a14.7 14.7 0 0 0-9.47 6.1Z" fill="#008061"/><path d="M29.53 41.45c-.06-.63.02-2.8 0-3.45-2.11-7.31-8.07-13.16-16.77-14.84l-.23 1.16c5.78 1.05 12.62 4.9 15.37 12.96l-.72.24c-2.2-6.26-8.07-10.84-14.96-11.68L12 27.01c8.09.95 13.44 7.35 14 11.99v2.45c-.27 2.31-3.17 2.32-5 2.52V45c4.67-.02 9.33 0 14 0v-1.03c-1.89-.33-5.24-.14-5.47-2.52Z" fill="#008061"/></svg>