<!-- by TradingView --><svg xmlns="http://www.w3.org/2000/svg" width="56" height="56" viewBox="0 0 56 56"><path fill="#F0F3FA" d="M0 0h56v56H0z"/><path fill="#A89A69" d="M34 14h3v29h-3z"/><path d="M19.73 14.14c3.3-.56 7.74.46 10.1 5.19l-2.68 1.34a6.27 6.27 0 0 0-6.9-3.57 5.4 5.4 0 0 0-4.19 3.13c-.27.71-.32 1.44-.1 2.14.21.7.72 1.47 1.7 2.2 1 .73 2.18 1.06 3.64 1.35l.6.12c1.27.24 2.76.53 4.16 1.2 2.22 1.04 4.27 2.93 4.62 5.91a8.38 8.38 0 0 1-2.38 7.17A9.94 9.94 0 0 1 21.52 43c-2.55.05-5.44-.77-7.38-2.67a6.96 6.96 0 0 1-2.01-3.72c-.29-1.5-.1-3.18.6-4.97l2.8 1.08a6.1 6.1 0 0 0-.45 3.33c.16.85.57 1.56 1.16 2.14 1.22 1.2 3.25 1.85 5.22 1.81a6.95 6.95 0 0 0 4.74-1.82 5.38 5.38 0 0 0 1.5-4.68c-.2-1.61-1.27-2.77-2.93-3.56-1.02-.48-2.1-.7-3.39-.95l-.67-.13c-1.51-.3-3.25-.72-4.83-1.88a7.36 7.36 0 0 1-2.79-3.73 6.21 6.21 0 0 1 .17-4.1 8.4 8.4 0 0 1 6.47-5Z" fill="#8BCEE1"/><path d="M29 18h15v3H27l2-3Z" fill="#A89A69"/><path d="m33.5 17.37 2 1.15 2-1.15v4.13l-.5.5v-3.77l-1.5.87-1.5-.87V22l-.5-.5v-4.13Z" fill="#88CFE1"/></svg>