<!-- by TradingView --><svg width="56" height="56" xmlns="http://www.w3.org/2000/svg"><path fill="#08090D" d="M0 0h56v56H0z"/><path d="M47 17h-3v21h3V17zM40 20v-3H26v21h14v-3H29v-6h9.997v-3H29v-6h11zM7 34.88l1.943-2.377c1.256 1.471 3.227 2.92 6.258 2.92 3.64 0 4.358-1.572 4.358-3.106 0-5.309-11.883-2.27-11.883-9.753 0-3.42 3.11-5.784 7.262-5.784 3.18 0 5.671 1.079 7.472 2.967l-1.972 2.291c-1.587-1.775-3.49-2.433-5.788-2.433-2.44 0-3.782.95-3.782 2.803 0 4.622 11.991 1.902 11.991 9.744 0 2.865-2.049 6.067-7.765 6.067-3.617 0-6.343-1.367-8.094-3.34z" fill="#fff"/></svg>