<!-- by TradingView --><svg width="56" height="56" viewBox="0 0 56 56" xmlns="http://www.w3.org/2000/svg"><path fill="#F0F3FA" d="M0 0h56v56H0z"/><path d="M39.42 16.8a18.67 18.67 0 0 0-21.77 23.4 16 16 0 1 1 21.77-23.41Z" fill="url(#auf0yskkw)"/><path d="M38.92 39.7a16 16 0 1 0-22.61-22.61A18.67 18.67 0 0 1 38.92 39.7Z" fill="url(#buf0yskkw)"/><path d="M44 27.5A19.11 19.11 0 0 1 28 36a19.11 19.11 0 0 1-16-8.5v.5a16 16 0 1 0 32-.5Z" fill="url(#cuf0yskkw)"/><defs><linearGradient id="auf0yskkw" x1="25.69" y1="12" x2="25.69" y2="39.36" gradientUnits="userSpaceOnUse"><stop offset=".38" stop-color="#5A987B"/><stop offset=".58" stop-color="#005930"/></linearGradient><linearGradient id="buf0yskkw" x1="30.13" y1="12" x2="30.13" y2="38.87" gradientUnits="userSpaceOnUse"><stop offset=".27" stop-color="#005930"/><stop offset=".53" stop-color="#5A987B"/></linearGradient><linearGradient id="cuf0yskkw" x1="44" y1="33.73" x2="12" y2="33.73" gradientUnits="userSpaceOnUse"><stop offset=".27" stop-color="#005930"/><stop offset=".53" stop-color="#5A987B"/></linearGradient></defs></svg>