<!-- by TradingView --><svg width="56" height="56" viewBox="0 0 56 56" xmlns="http://www.w3.org/2000/svg"><path fill="#F0F3FA" d="M0 0h56v56H0z"/><path d="m42.15 37.96.5.04h.94l.53-.05c1.48-.07 2.9-.5 4.15-1.28a6.7 6.7 0 0 0 2.28-2.5c.11-.21.2-.43.3-.64l.15-.33c-.27.27-.6.5-.95.64a5.5 5.5 0 0 1-2.2.47c-1.06.01-2.11-.12-3.14-.4-1.42-.38-2.8-.88-4.12-1.51a43.23 43.23 0 0 0-7.54-2.73c-1.16-.3-2.34-.52-3.53-.68a20.76 20.76 0 0 0-7.67.36 17.72 17.72 0 0 0-5.56 2.4c-.8.54-1.58 1.12-2.32 1.74l-.4.36.09-.03c.49-.24.99-.45 1.5-.62 1.68-.54 3.42-.83 5.18-.86a23.31 23.31 0 0 1 4.58.36c1.7.32 3.37.82 4.97 1.5.46.19.9.39 1.35.6l1.08.48a33.84 33.84 0 0 0 7.77 2.44c.68.12 1.37.2 2.06.24ZM5.02 32.91 5 33v.37a1.88 1.88 0 0 0 .63 1.2 4.46 4.46 0 0 0 5.14.5c.74-.38 1.32-1 1.65-1.74.3-.75.4-1.55.27-2.34-.1-.71-.31-1.4-.64-2.05a16.34 16.34 0 0 0-1.58-2.5c-.36-.5-.72-1.02-1.06-1.54-.21-.3-.31-.65-.27-1a.96.96 0 0 1 .2-.52c.12-.15.28-.27.46-.33a1.06 1.06 0 0 1 1.1.14c.27.23.46.51.56.83l.04.15.04.12c.02.1.06.12.14.1l.87-.35a.1.1 0 0 0 .06-.04.1.1 0 0 0 .02-.07v-3.06c0-.14-.03-.16-.17-.1l-.95.4c-.17.07-.19.1-.19.27v.29c-.01.08-.08.1-.15.08a.83.83 0 0 1-.05-.02l-.13-.03a4.21 4.21 0 0 0-2.25.17 3.72 3.72 0 0 0-1.98 4.22c.18.71.48 1.39.88 2 .33.55.72 1.07 1.1 1.59l.28.37c.42.55.71 1.17.87 1.84.14.5.08 1.05-.16 1.52-.13.3-.37.52-.67.65-.3.12-.64.13-.95.03-.18-.06-.2-.14-.1-.3a.63.63 0 0 0 .1-.17c.13-.4.13-.84 0-1.25a1.62 1.62 0 0 0-.8-.8 1.7 1.7 0 0 0-1.13-.11 1.48 1.48 0 0 0-1.1 1.12 3.6 3.6 0 0 0-.06.26ZM27.6 18.05V18h-2.4a.5.5 0 0 0-.06.14v.4c0 .13 0 .2.02.23.03.03.09.03.23.03.26 0 .67.18.61.47v5.01l-3.05-5.87a.19.19 0 0 0-.07-.09.2.2 0 0 0-.12-.03l-.14.01-.18.01-1.38.23-.72.1c-.11.03-.14.05-.14.17v.4c0 .14.16.15.3.15.1-.01.18 0 .26.04.07.04.13.11.16.2a1 1 0 0 1 .08.33v7c0 .15-.07.3-.17.43-.09.12-.3.21-.47.28a5.6 5.6 0 0 0-.09.04.18.18 0 0 0-.1.07.17.17 0 0 0-.02.1v.51c0 .1 0 .13.12.1l2.18-.5a.08.08 0 0 0 .06-.02.07.07 0 0 0 .01-.06v-.52c0-.08-.01-.11-.11-.11-.4 0-.4-.11-.4-.51-.05-1.78 0-5.39 0-5.39l2.4 4.87c.2.35.37.71.54 1.08l.1.2c.05.1.07.14.1.16.04.02.08.02.18.02l1.45-.06c.16 0 .22-.02.22-.18V19.2c-.02-.32.22-.45.48-.5.1-.02.12-.05.12-.14v-.5Zm1.92.03-.45-.04-.02.03h-.6v.11a4.64 4.64 0 0 0 0 .37c-.02.14 0 .18.14.22.25.09.4.41.41.65v6.62c.03.32-.15.47-.34.62-.1.08-.2.16-.26.27a.16.16 0 0 0-.02.1v.62c0 .1 0 .13.14.1h.36c.68.01.97.02 1.63.1.92.12 1.83.28 2.73.48l.53.13c.17.03.22-.01.22-.18v-1.6a.16.16 0 0 0-.03-.12.17.17 0 0 0-.11-.06l-.54-.15c-.1-.03-.13-.02-.13.09a2.93 2.93 0 0 1-.14.52.34.34 0 0 1-.23.14h-.13l-.15-.02-.16-.02-1.2-.19c-.15-.02-.17-.06-.17-.2v-2.92c0-.11.04-.14.15-.14h.29c.15.02.23.04.34.07l.14.04c.26.09.4.34.37.6 0 .1.03.16.13.16l.51.05a.3.3 0 0 0 .07 0V22.2c0-.08-.03-.11-.1-.11l-.45-.04h-.01c-.11-.02-.11-.02-.14.1a.52.52 0 0 1-.52.46c-.24.01-.4.02-.64 0-.11 0-.14-.06-.14-.18v-3.06c0-.23 0-.27.24-.23a63.4 63.4 0 0 0 1.67.28c.1.02.18.07.26.13.07.07.12.15.15.25.06.19.09.39.09.59 0 .13.04.17.17.17l.38.02.1.01c.16.02.16.02.16-.25v-1.49c0-.15 0-.18-.16-.2l-.3-.06-1.5-.25a29.94 29.94 0 0 0-2.15-.22c-.16 0-.34-.02-.59-.04Zm11.25 9.64c-.2.55-.3 1.13-.3 1.72v.02a3.05 3.05 0 0 0 .4 1.59c.18.36.5.64.88.8a.95.95 0 0 0 .83-.03.8.8 0 0 0 .33-.36c.06-.15.09-.3.06-.47a.73.73 0 0 0-.25-.57.78.78 0 0 0-.61-.2.32.32 0 0 1-.24-.06.3.3 0 0 1-.12-.2c-.1-.37-.16-.74-.18-1.1-.02-.25 0-.5.06-.72.03-.11.08-.13.18-.08l.61.28 1.65.75h.01c.07.03.14.06.14.15.14.74.39 1.47.72 2.15a4.9 4.9 0 0 0 1.12 1.55 2.42 2.42 0 0 0 2.56.5 1.33 1.33 0 0 0 .66-.88c.04-.19.04-.38 0-.56a1.3 1.3 0 0 0-.58-.9 1.4 1.4 0 0 0-1.08-.2.28.28 0 0 1-.26-.09 1.01 1.01 0 0 1-.15-.19 7.68 7.68 0 0 1-.37-.7c-.4-.98-.72-1.99-.96-3.02-.26-1.07-.5-2.15-.74-3.23-.1-.42-.17-.83-.24-1.24l-.06-.36v-.02c-.05-.27-.06-.27-.34-.38a156.3 156.3 0 0 0-2.66-1.01l-.23-.08c-.06-.03-.1 0-.1.07l.01.08c.02.13.03.27.03.4 0 .04.02.09.04.12l.1.08c.22.1.42.23.6.4a1.16 1.16 0 0 1 .36 1.02c-.02.16-.06.33-.12.49l-.79 1.97-.13.32c-.3.72-.6 1.44-.84 2.19Zm3.23.32a.6.6 0 0 1 0 .08l-.1-.04-1.89-.83c-.12-.05-.14-.06-.09-.2l.03-.09c.1-.3.21-.6.34-.88a58.37 58.37 0 0 1 .97-2.02.34.34 0 0 1 .09-.05l.04.08.05.32.04.33.08.54a136.88 136.88 0 0 0 .32 2l.12.76Zm-30.7 3.05v.01h-.01v-.01Zm0 0 .1-.05a20.3 20.3 0 0 1 6.23-2.4c.13-.02.13-.05.13-.18v-.14l.08-.99.04-.51.04-.33c0-.1-.02-.1-.1-.1l-.78.18a.12.12 0 0 0-.08.04.11.11 0 0 0-.03.08l-.01.17-.02.23c0 .18-.05.36-.16.5a.83.83 0 0 1-.45.3l-2.06.73c-.14.05-.23.03-.23-.12v-3.41c0-.13.08-.18.2-.21h.02c.31-.1 1.03-.32 1.12.14v.14c-.01.08.03.08.1.08.1 0 .21-.03.3-.06l.12-.04c.11-.02.14-.07.14-.19v-2.33l-.16.04-.36.07c-.12.02-.15.07-.15.16 0 .17-.05.34-.15.47-.2.25-.59.4-.9.5l-.11.05c-.13.04-.17 0-.17-.12v-3.05c0-.06.02-.12.06-.16.04-.05.1-.08.15-.09l.37-.1.28-.08.66-.19c.3-.1.6-.18.84-.24a.37.37 0 0 1 .33.03.36.36 0 0 1 .17.27c.02.14.04.28.04.42 0 .1.02.11.12.1l.15-.04.4-.08c.13-.02.13-.02.13-.14v-1.66c0-.2 0-.2-.2-.16l-.32.06c-.3.06-.62.12-.93.2-1.48.37-2.95.8-4.4 1.3-.19.06-.35.13-.51.2l-.13.05a.15.15 0 0 0-.08.06.14.14 0 0 0-.03.1V21.04c0 .15.04.17.18.15l.3-.04c.28-.04.42.05.42.32v7.9c0 .08-.04.15-.07.22l-.03.07c-.04.09-.1.17-.17.24-.1.1-.2.18-.3.25a.27.27 0 0 0-.13.25v.69Zm26.46-4.27-.12-.06v.1c-.06.48-.28.94-.63 1.31a1.1 1.1 0 0 1-.9.4 1.13 1.13 0 0 1-.87-.48c-.2-.28-.36-.6-.45-.93a9.04 9.04 0 0 1-.3-2.38 9.64 9.64 0 0 1 .49-3.2c.11-.35.3-.67.56-.94a.94.94 0 0 1 .98-.24c.24.07.45.21.6.4.3.38.5.82.6 1.3.05.16.07.34.1.5l.03.18c.03.14.06.19.21.19.1 0 .18.01.27.03.08.01.1-.02.1-.08l.05-.34.08-.71.1-.81v-.12l.06-.5a.16.16 0 0 0-.03-.12.17.17 0 0 0-.1-.08l-.14-.04-.18-.06c-.14-.04-.17-.02-.2.11a.2.2 0 0 1-.03.11.22.22 0 0 1-.32.04.9.9 0 0 1-.15-.15c-.22-.26-.47-.5-.76-.7a2.25 2.25 0 0 0-2.44-.06c-.42.26-.77.61-1.05 1.02a6.73 6.73 0 0 0-1.14 3.71c-.02.51.02 1.02.1 1.52.09.67.3 1.31.6 1.91a3.5 3.5 0 0 0 3.2 1.9 1.9 1.9 0 0 0 1.52-.68c.38-.5.62-1.07.7-1.68a.14.14 0 0 0-.06-.11 9.93 9.93 0 0 0-.48-.26Z" fill="#C10335"/></svg>