<!-- by TradingView --><svg width="56" height="56" viewBox="0 0 56 56" xmlns="http://www.w3.org/2000/svg"><path fill="#F0F3FA" d="M0 0h56v56H0z"/><path d="m21.53 40.8.08.06-.02.04-.12-.04a3.39 3.39 0 0 1-2.99-1.95l-.04-.08-.87-1.34c-.2-.3-.45-.58-.75-.8a.96.96 0 0 0-.74-.19c-.27.05-.44.25-.39.52.03.17.09.34.17.5l.59 1.1c.22.4.45.82.66 1.24A8.15 8.15 0 0 0 20 43a16.75 16.75 0 0 0 11.63 1.6c4.08-.92 7.4-3.03 9.93-6.37a16.6 16.6 0 0 0 3.4-9.08 16.82 16.82 0 0 0-7.05-14.93A16.5 16.5 0 0 0 27.93 11a16.3 16.3 0 0 0-6.56 1.35A16.49 16.49 0 0 0 15 17a16.74 16.74 0 0 0-3.94 9.57 14.4 14.4 0 0 0 .44 4.92c.18.68.41 1.34.82 1.92.21.3.47.57.77.8.82.58 1.68.56 2.46-.07.53-.45 1-.96 1.42-1.52l.68-.9c.62-.83 1.25-1.66 1.95-2.42a18.86 18.86 0 0 1 3.9-3.37c.74-.47 1.52-.85 2.33-1.14.3-.1.58-.13.86.05l.24.12c.48.24 1 .4 1.54.45l1.29.1 1.29.1c.16.02.33.06.48.12a37.56 37.56 0 0 1 1.75.82c.46.23.93.45 1.44.56.31.06.61.09.89-.12a.36.36 0 0 1 .38-.05.5.5 0 0 0 .51-.04c.14-.11.27-.24.37-.38a.39.39 0 0 0 .03-.46 5.79 5.79 0 0 0-.32-.47.7.7 0 0 1-.1-.25.85.85 0 0 0-.24-.5l-2.17-2.16a4.44 4.44 0 0 0-1.6-1.1c-1.15-.44-2.35-.7-3.56-.8-1.98-.12-3.96.2-5.8.93-1.8.72-3.49 1.6-5.02 2.8-.34.26-.68.54-1.01.83l-.45.37c-.08.06-.16.12-.26.06s-.1-.16-.07-.26l.07-.28c.07-.26.13-.52.24-.76a11.94 11.94 0 0 1 5.77-5.98 11.8 11.8 0 0 1 7.87-.97c3.22.66 5.87 2.23 7.84 4.88a11.66 11.66 0 0 1 2.23 6 12.47 12.47 0 0 1-1.23 6.53 12.11 12.11 0 0 1-5.69 5.47 10.89 10.89 0 0 1-5.16 1.17 3.47 3.47 0 0 1-1.87-.53c-.44-.3-.93-.5-1.45-.63l-.44-.11a21.5 21.5 0 0 1-.52-.13c-.72-.2-1.4-.5-2.08-.8l-.43-.18c-.3-.13-.61-.24-.93-.33a.5.5 0 0 0-.5.79c.14.17.3.32.48.45.19.14.4.27.6.4l.28.18.16.11Zm4.78-6.1c.4.6.98.83 1.68.85l.25-.03.51-.1c.34-.07.66-.22.95-.42.14-.1.26-.22.23-.42-.03-.22-.14-.33-.41-.39l-2.75-.6a.54.54 0 0 0-.6.25.51.51 0 0 0-.02.6l.08.13.08.13Z" fill="url(#acbplxhzw)"/><defs><linearGradient id="acbplxhzw" x1="37.19" y1="13.71" x2="21.51" y2="42.71" gradientUnits="userSpaceOnUse"><stop stop-color="#94B7B9"/><stop offset=".3" stop-color="#39797F"/></linearGradient></defs></svg>