<!-- by TradingView --><svg width="56" height="56" viewBox="0 0 56 56" xmlns="http://www.w3.org/2000/svg"><path fill="#F0F3FA" d="M0 0h56v56H0z"/><path d="M30.82 16.07A7.43 7.43 0 0 0 23 23.5a7.37 7.37 0 0 0 2.44 5.28 3 3 0 0 1 .1 4.3 3.1 3.1 0 0 1-4.35.09A13.41 13.41 0 0 1 31.04 10 3.05 3.05 0 0 1 34 13.15a3.06 3.06 0 0 1-3.18 2.92Z" fill="#0BB48B"/><path d="M25.18 39.93A7.43 7.43 0 0 0 33 32.5a7.37 7.37 0 0 0-2.44-5.28 3 3 0 0 1-.1-4.3 3.1 3.1 0 0 1 4.35-.09A13.41 13.41 0 0 1 24.96 46 3.05 3.05 0 0 1 22 42.85a3.06 3.06 0 0 1 3.18-2.92Z" fill="#0BB48B"/></svg>