<!-- by TradingView --><svg width="56" height="56" viewBox="0 0 56 56" xmlns="http://www.w3.org/2000/svg"><path fill="#F0F3FA" d="M0 0h56v56H0z"/><path d="M27.58 46A8.66 8.66 0 0 1 25 40c0-2 .95-4.14 2.58-5.73L40.5 21.73a8.12 8.12 0 0 1 0 11.73L27.58 46Z" fill="url(#ahoooxmue)"/><path d="M15.5 34.27a8.12 8.12 0 0 1 0-11.73L28.42 10c1.7 1.65 2.58 4 2.58 6s-.95 4.14-2.58 5.73L15.5 34.27Z" fill="url(#bhoooxmue)"/><path d="M15.5 34.27a8.72 8.72 0 0 0 12.08 0L40.5 21.73a8.72 8.72 0 0 0-12.08 0L15.5 34.27Z" fill="url(#choooxmue)"/><path d="M28.04 22.1c-.3.4-.74 2.1-.04 5.66.74 3.73.65 5.16.33 5.79L40.5 21.73a8.72 8.72 0 0 0-12.08 0l-.38.36Z" fill="url(#dhoooxmue)"/><defs><linearGradient id="ahoooxmue" x1="42.85" y1="29.63" x2="24.35" y2="38.77" gradientUnits="userSpaceOnUse"><stop stop-color="#FF5F00"/><stop offset=".91" stop-color="#FCD579"/></linearGradient><linearGradient id="bhoooxmue" x1="34.46" y1="15.86" x2="12.33" y2="27.13" gradientUnits="userSpaceOnUse"><stop stop-color="#96F2D5"/><stop offset=".91" stop-color="#01B875"/></linearGradient><linearGradient id="choooxmue" x1="31.02" y1="30.93" x2="25.16" y2="24.9" gradientUnits="userSpaceOnUse"><stop stop-color="#CB5BCB"/><stop offset="1" stop-color="#932CD6"/></linearGradient><linearGradient id="dhoooxmue" x1="27.54" y1="23.81" x2="39.15" y2="22.98" gradientUnits="userSpaceOnUse"><stop stop-color="#FE595F"/><stop offset="1" stop-color="#FB9F8C"/></linearGradient></defs></svg>