<!-- by TradingView --><svg width="56" height="56" xmlns="http://www.w3.org/2000/svg"><path fill="#D83831" d="M0 0h56v56H0z"/><path d="M12 22.891V42h23.376c6.62 0 8.508-5.783 8.624-8.675V14.013c-5.053-.01-16.807-.024-23.398 0-6.591.024-8.481 5.929-8.602 8.878z" fill="#000"/><path d="M22.22 21H38l-2 3H23.38c-.424.045-1.38.456-1.38 1.546s.956 1.418 1.38 1.454c3.186-.027 9.25 0 10.776 0 1.722 0 3.844.94 3.844 4.51 0 2.857-2.562 4.23-3.844 4.485H18.001L20 33h12.63c.488-.027 1.415-.334 1.37-1.49-.045-1.155-.92-1.5-1.37-1.51H21.61c-1.222-.227-3.654-.9-3.61-4.454.046-3.555 2.832-4.512 4.22-4.546z" fill="#D83831"/><path d="M26 35.995L34 21h-3.003c-1.67 2.374-4.316 2.97-5.341 2.995L24 26.998h3l-5 8.997h4z" fill="#fff"/></svg>