<!-- by TradingView --><svg width="56" height="56" viewBox="0 0 56 56" xmlns="http://www.w3.org/2000/svg"><path fill="#F0F3FA" d="M0 0h56v56H0z"/><path d="M28.16 30.97c5.8 0 10.51-4.47 10.51-9.98 0-5.52-4.7-9.99-10.5-9.99s-10.51 4.47-10.51 9.99c0 5.51 4.7 9.98 10.5 9.98Z" fill="url(#aaupuglwv)"/><path d="M34.5 34.62c5.8 0 10.5-4.47 10.5-9.98 0-5.52-4.7-9.99-10.5-9.99s-10.51 4.47-10.51 9.99c0 5.51 4.7 9.98 10.5 9.98Z" fill="url(#baupuglwv)"/><path d="M34.3 41.65c5.8 0 10.5-4.47 10.5-9.98 0-5.52-4.7-9.99-10.5-9.99s-10.5 4.47-10.5 9.99c0 5.51 4.7 9.98 10.5 9.98Z" fill="url(#caupuglwv)"/><path d="M27.8 45c5.8 0 10.5-4.47 10.5-9.99 0-5.51-4.7-9.98-10.5-9.98S17.29 29.5 17.29 35c0 5.52 4.7 9.99 10.5 9.99Z" fill="url(#daupuglwv)"/><path d="M21.5 41.3c5.8 0 10.51-4.48 10.51-10 0-5.5-4.7-9.98-10.5-9.98S11 25.8 11 31.31c0 5.51 4.7 9.98 10.5 9.98Z" fill="url(#eaupuglwv)"/><path d="M21.76 34.27c5.8 0 10.5-4.48 10.5-9.99 0-5.52-4.7-9.99-10.5-9.99s-10.5 4.47-10.5 9.99c0 5.51 4.7 9.99 10.5 9.99Z" fill="url(#faupuglwv)"/><path d="M33.53 30 33 32.5c0 .17-.2.5-1 .5h-1l.67-3H27.5l.5-1h3.89l.44-2H28.5l.5-1h3.56l.22-1H29v-1h4c.17-.33.6-1 1-1h1l-.21 1H43l.5 1h-8.92l-.21 1H38l1 1h-4.84l-.42 2h3.76l.5 1h-4.47ZM16.63 32l.37-1.5c0-.5.4-1.5 2-1.5h6c.83 0 2.4.4 2 2l-.33 1H28l1 1H13l-1-1h4.63Zm2.47 0h.5l.4-2h-.5l-.4 2Zm2.5 0h.5l.4-2H22l-.4 2Zm2.5 0h.5l.4-2h-.5l-.4 2ZM19.5 28.5h-2L18 26c.4-2.4 1.83-3 2.5-3H23l-.5-1h2l.5 1h1l-.5-1H27l1 2h-3l1 2 .5-1H28l-2 3.5h-1.5l-1-3.5h-3v.5h3L23 27c-.4 1.2-1.17 1.5-1.5 1.5H20V28h.5l.5-1.5h-1l-.5 2Z" fill="#FFE100"/><defs><linearGradient id="aaupuglwv" x1="19.68" y1="20.42" x2="35.95" y2="20.42" gradientUnits="userSpaceOnUse"><stop stop-color="#4C282A"/><stop offset="1" stop-color="#4F2D2D" stop-opacity="0"/></linearGradient><linearGradient id="baupuglwv" x1="28.36" y1="17.32" x2="36.89" y2="33.16" gradientUnits="userSpaceOnUse"><stop stop-color="#4C2929"/><stop offset="1" stop-color="#4C2929" stop-opacity="0"/></linearGradient><linearGradient id="caupuglwv" x1="40.29" y1="24.54" x2="30.67" y2="38.92" gradientUnits="userSpaceOnUse"><stop stop-color="#5A3A3C"/><stop offset="1" stop-color="#4F2C2E" stop-opacity="0"/></linearGradient><linearGradient id="daupuglwv" x1="37.58" y1="33.82" x2="22.39" y2="33.82" gradientUnits="userSpaceOnUse"><stop stop-color="#523132"/><stop offset="1" stop-color="#553435" stop-opacity="0"/></linearGradient><linearGradient id="eaupuglwv" x1="30.53" y1="31.76" x2="11.04" y2="34.61" gradientUnits="userSpaceOnUse"><stop stop-color="#533233"/><stop offset="1" stop-color="#523132" stop-opacity="0"/></linearGradient><linearGradient id="faupuglwv" x1="14.25" y1="30.73" x2="22.32" y2="17.47" gradientUnits="userSpaceOnUse"><stop stop-color="#563537"/><stop offset="1" stop-color="#5A3B3D" stop-opacity="0"/></linearGradient></defs></svg>