<!-- by TradingView --><svg xmlns="http://www.w3.org/2000/svg" width="56" height="56"><path fill="#F0F3FA" d="M0 0h56v56H0z"/><path d="M42 14.5v9.7l-3 1.57v-6.3L28 25.8v-3.35l14-7.96z" fill="#0092C8"/><path d="M39 25.76v-6.4l-3 1.8v3.24l3 1.36z" fill="#0072A6"/><path d="M39.24 13L42 14.5l-14 8-14-8.02L16.74 13l11.22 6.33L39.24 13z" fill="#2AACE3"/><path d="M28 22.46v3.34l-11-6.26v6.26l11 6.27V45l-14-8.02v-3.36l11 6.4v-6.2l-11-6.45v-12.9l14 7.99z" fill="#0072A6"/><path d="M20 21.24l-3-1.74v6.32l3-1.56v-3.02z" fill="#0092C8"/><path d="M31 30.51l-11-6.29-3 1.58 11 6.34 3-1.63zm-14 1.52l-3 1.63 11 6.36v-3.47l-8-4.52zm19.08 1.67l-5.3 3.03v3.45l8.35-4.86-3.05-1.61zM42 27.35l-2.77-1.61-6.23 3.1 3.08 1.72L42 27.35z" fill="#2AACE3"/><path d="M33 32.15v-3.3l3 1.57v3.31l-3-1.58zm6 .02l-3 1.6 3 1.52v-3.12z" fill="#0072A6"/><path d="M42 27.35l-6 3.08v3.35l3-1.61v3.12l-8 4.72V30.5l-3 1.61V45l14-8.04v-9.61z" fill="#0092C8"/></svg>