<!-- by TradingView --><svg width="56" height="56" viewBox="0 0 56 56" xmlns="http://www.w3.org/2000/svg"><path fill="url(#a2myegpbv)" d="M0 0h56v56H0z"/><path fill-rule="evenodd" d="M28 44a16 16 0 1 0 0-32 16 16 0 0 0 0 32Zm0 1a17 17 0 1 0 0-34 17 17 0 0 0 0 34Z" fill="#454772"/><path d="M33.61 37.51c1.2-.32 2.47-.76 3.39-1.3v-4.94c0-1.31.48-1.9 1.62-2.35l.38-.15a7.46 7.46 0 0 0-.03-.77h-7.9c0 .06 0 .17-.02.33v.44c.15.07.43.14.84.22 1.86.32 2.21 1.71 2.21 3.49 0 1.5-.05 2.25-.16 3.26a6 6 0 0 1-1.8.75 8 8 0 0 1-1.93.2c-.79 0-1.52-.12-2.21-.37v1.53a13.74 13.74 0 0 0 5.61-.34ZM20.23 25.87a9.78 9.78 0 0 1 5.01-6.6A11 11 0 0 1 30.48 18a14.13 14.13 0 0 1 5.78 1.18l.4 4.47a7.1 7.1 0 0 1-.77.04 1.97 1.97 0 0 1-.34-.46 26.84 26.84 0 0 1-.69-1.42 5.3 5.3 0 0 0-4.73-2.68c-1.33 0-2.53.38-3.6 1.12a7.38 7.38 0 0 0-2.48 3.06c-.56 1.2-.86 2.54-.9 4.02l-2.92-1.46Z" fill="url(#b2myegpbv)"/><path d="M18.83 32.36a8.37 8.37 0 0 1 .54 1.63c.33 1.19.95 2.1 1.88 2.74a5.4 5.4 0 0 0 4.96.6c.6-.24 1.08-.6 1.46-1.1.38-.49.58-1.09.58-1.8 0-.6-.2-1.17-.6-1.7-.38-.53-.87-1-1.45-1.41-.57-.43-1.37-.95-2.38-1.57a36.06 36.06 0 0 1-2.91-1.93 8.24 8.24 0 0 1-1.9-1.98 4.62 4.62 0 0 1-.77-2.62c0-1.2.3-2.2.92-2.97a5.27 5.27 0 0 1 2.37-1.7 8.68 8.68 0 0 1 3.06-.55 11.36 11.36 0 0 1 5.38 1.44l.18 4.43h-.87a8.25 8.25 0 0 1-.4-1.14l-.14-.45a4.11 4.11 0 0 0-1.66-2.3 4.73 4.73 0 0 0-4.3-.49c-.55.2-1 .5-1.36.92-.36.4-.54.9-.54 1.5 0 .56.19 1.08.56 1.57.38.49.85.93 1.4 1.33.56.4 1.32.9 2.3 1.5a36.4 36.4 0 0 1 3.04 2.03 8.28 8.28 0 0 1 1.99 2.1c.55.84.83 1.77.83 2.82 0 1.3-.32 2.37-.97 3.24a5.7 5.7 0 0 1-2.53 1.9c-1.03.4-2.12.6-3.28.6-1.03 0-2.15-.14-3.34-.42A8.9 8.9 0 0 1 18 37.4V32.4l.83-.03Z" fill="#FDFDFD"/><defs><linearGradient id="a2myegpbv" x1="10.42" y1="9.71" x2="68.15" y2="76.02" gradientUnits="userSpaceOnUse"><stop stop-color="#1A1E21"/><stop offset="1" stop-color="#06060A"/></linearGradient><linearGradient id="b2myegpbv" x1="29.5" y1="18" x2="29.5" y2="38" gradientUnits="userSpaceOnUse"><stop stop-color="#2CC1E2"/><stop offset="1" stop-color="#373B9C"/></linearGradient></defs></svg>