<!-- by TradingView --><svg xmlns="http://www.w3.org/2000/svg" width="56" height="56" viewBox="0 0 56 56"><path fill="#30A5A7" d="M0 0h56v56H0z"/><path d="M12.2 34c-1.81 0-3.5-.59-5.07-1.45a.5.5 0 0 0-.21-.07c-.13 0-.22.08-.28.22l-.6 1.28a.71.71 0 0 0-.04.2c0 .13.06.23.2.3.79.47 1.72.84 2.77 1.11 1.05.27 2.13.41 3.23.41 2.77 0 6.3-1.16 6.3-4.5 0-3.4-3.17-3.92-6.03-4.4-2.34-.38-4.47-.73-4.47-2.6 0-1.92 2.83-2.5 4.32-2.5 1.73 0 3.27.56 4.62 1.36a.5.5 0 0 0 .21.07c.13 0 .22-.07.28-.22l.58-1.28a.72.72 0 0 0 .04-.2.31.31 0 0 0-.2-.3A11.43 11.43 0 0 0 12.33 20c-2.71 0-6.21 1.25-6.21 4.5 0 1.3.45 2.31 1.34 3.05.9.74 2.32 1.23 4.25 1.48l.84.11c2.36.33 3.96 1.1 3.96 2.33 0 1.97-2.78 2.53-4.3 2.53zm7.8-6c0-1.6.35-3 1.04-4.2a7.05 7.05 0 0 1 2.95-2.81 9.57 9.57 0 0 1 4.45-.99c.9 0 1.79.12 2.68.36.9.24 1.76.6 2.6 1.05.14.06.21.16.21.3a.4.4 0 0 1-.06.2l-.64 1.28a.31.31 0 0 1-.3.2.35.35 0 0 1-.2-.05c-1.35-.71-2.75-1.34-4.29-1.34-3.4 0-6.44 2.63-6.44 6 0 3.44 3.12 6 6.44 6 1.08 0 2.54-.39 3.56-.77v-1.91c0-.25.14-.32.4-.32h1.23c.25 0 .37.07.37.32v2.75c0 .33-.14.57-.42.72A10.3 10.3 0 0 1 28.44 36c-1.69 0-3.17-.33-4.45-.99a7.05 7.05 0 0 1-2.95-2.8A8.31 8.31 0 0 1 20 28zm9 .68c0 .25.1.32.35.32h4.28c.25 0 .37-.07.37-.32v-1.3c0-.25-.12-.38-.37-.38h-4.28c-.24 0-.35.13-.35.38v1.3zm8-8.3c0-.25.12-.38.36-.38h1.32c.24 0 .32.13.32.39v6.6h5.63c.24 0 .37.14.37.4v1.32c0 .26-.13.29-.37.29H39v6.61c0 .26-.12.39-.36.39h-1.28c-.24 0-.36-.13-.36-.39V20.4zm10 0c0-.25.19-.38.43-.38h1.2c.25 0 .37.13.37.39V35.6c0 .26-.12.39-.36.39h-1.3c-.25 0-.34-.13-.34-.39V20.4z" fill="#fff"/></svg>