<!-- by TradingView --><svg width="56" height="56" viewBox="0 0 56 56" xmlns="http://www.w3.org/2000/svg"><path fill="#F0F3FA" d="M0 0h56v56H0z"/><path d="M16.3 16.09a6.9 6.9 0 0 0-.09 3.74c1.48 5.21 7.7 6.3 12.31 6.54 4.11.22 8.98 1.58 10.9 5.66l.45.97.08-.52c.04-.28.05-.62.05-.98-.08-4.52-4.22-7.33-8.35-8.17A27.3 27.3 0 0 0 28.2 23c-2.5-.11-3.8-.13-5-.54-.9-.32-2.2-.8-2.2-.96 0-1.63 6.68-2.5 7.52-2.5 4.5-.04 8.47 2.34 11.47 5.51v-3.67c0-4.1-.04-4.43-.7-5.69-2.11-3.97-7.2-5.13-11.29-5.15-4.39-.03-10.01 1.51-11.7 6.09Zm20.75 2.23v.6l-.55-.42a13.38 13.38 0 0 0-8-2.5c-3.66-.02-6.63.77-8.57 2.54-.26.25-.52.45-.56.45-.14 0-.37-.8-.37-1.3 0-3.88 6.1-4.7 9-4.69 3.42 0 9.05.73 9.05 5.32Z" fill="#133157"/><path d="M39.7 39.91a6.9 6.9 0 0 0 .09-3.74c-1.48-5.21-7.7-6.3-12.31-6.54-4.11-.22-8.98-1.58-10.9-5.66l-.45-.97-.08.52a6.8 6.8 0 0 0-.05.98c.07 4.52 4.22 7.33 8.35 8.17.74.14 1.9.25 3.45.33 2.5.11 3.8.13 5 .54.9.32 2.2.8 2.2.96 0 1.63-6.68 2.5-7.52 2.5-4.5.04-8.47-2.34-11.47-5.51v3.67c0 4.1.04 4.43.7 5.69 2.11 3.97 7.2 5.13 11.29 5.15 4.39.03 10.01-1.51 11.7-6.09Zm-20.75-2.23v-.6l.55.42a13.38 13.38 0 0 0 8 2.5c3.66.02 6.63-.77 8.57-2.54.26-.25.52-.45.56-.45.14 0 .37.8.37 1.3 0 3.88-6.1 4.7-9 4.69-3.42 0-9.05-.73-9.05-5.32Z" fill="#133157"/></svg>