<!-- by TradingView --><svg xmlns="http://www.w3.org/2000/svg" width="56" height="56" viewBox="0 0 56 56"><path fill="#F0F3FA" d="M0 0h56v56H0z"/><path fill-rule="evenodd" d="M33.03 26h1.14l.77 2.7h-.12c-1.44 0-3.79 0-3.79-2.06 0-.62 1.15-3.64 5.23-3.64a7.4 7.4 0 0 1 4.57 1.42h.78L42 25h-.9s-.06-.29-.27-.34a9 9 0 0 0-4.3-1.16c-1.99 0-4.6 1.07-4.58 3.23 0 .29.17.45.23.4.1-.1.56-.7.85-1.13Zm-.17 1.82.6-.82.31 1c-.2 0-.7 0-.91-.18Z" fill="#83B329"/><path d="m8.22 27 .7-1H5.57c-.6 0-1.26.42-1.38 1h4.02Zm-.59 3c.64 0 1.2-.41 1.37-1H4.73L4 30h3.63Zm-.01-2.5c.66 0 1.23.41 1.38 1H5.54c-.66 0-1.22-.42-1.34-1h3.42ZM9.5 26h1v4h-1v-4Zm2 .54c0-.3.22-.54.5-.54.18 0 .32.07.5.27l2.84 2.78a.57.57 0 0 1 .02.77.55.55 0 0 1-.4.18.54.54 0 0 1-.37-.14l-2.1-2.01V30h-1v-3.46Zm2-.54h2v1.7l-2-1.7Zm28 0h1v4h-1v-4Zm6.77 0H47l2 2.53V30h1v-1.36L52 26h-1.3l-1.15 1.7-1.28-1.7Zm-.77 1-.81-1H43v1h1.5v3h1v-3h2ZM26 26h1v3h2.5l-.76 1H26v-4Zm10 4v-2h3.26s.51.03.51-.47-.51-.53-.51-.53H36l.75-1h2.67s1.3.15 1.3 1.53c0 .96-.84 1.28-.84 1.28L41 30h-1.49l-.94-1H37v1h-1Zm-14-4h-1v2.52c0 .62.55 1.48 1.5 1.48h1.34c1.5 0 1.66-1.3 1.66-1.61v-2.4h-1v2.17c0 .68-.8.83-1.31.84-.52 0-1.19-.22-1.19-.86V26Zm-1.5 1.5h-3l.75 1h1.25v.5h-1.53s-.97-.12-.97-1.03c0-.9 1.15-.97 1.15-.97h1.75l.6-1h-2.64S16 26.3 16 27.97c0 1.96 1.97 2.03 1.97 2.03h2.53v-2.5Zm9.16 2.5h1.25l.63-.77s.9.35 1.5.52c.38.11.98.25.98.25h1.26L35 29s-1.4.07-2.45-.12c-1.9-.33-2.11-1.88-2.11-1.88-.14.47-.18 1.16.24 1.63L29.66 30Z" fill="url(#aid3ifvg2)"/><defs><linearGradient id="aid3ifvg2" x1="-3.25" y1="30" x2="54" y2="30" gradientUnits="userSpaceOnUse"><stop offset=".13" stop-color="#2A3166"/><stop offset=".46" stop-color="#2D4B82"/><stop offset=".88" stop-color="#3695CA"/></linearGradient></defs></svg>