<!-- by TradingView --><svg xmlns="http://www.w3.org/2000/svg" width="56" height="56" viewBox="0 0 56 56"><path fill="#034273" d="M0 0h56v56H0z"/><path fill-rule="evenodd" d="M18.67 30l.87-4h2.16l.71 1.87L24 26h2.34l-.28 2.45L28.13 26h2.04l1.38 3.08.77-3.58h-1.97l1.97-1.5h4.22l-.34 1.5h-2.08l-.94 4.5h-3l-.37-1h-2.23l-.73 1H24v-2l-1.18 2H21.5l-.84-2-.46 2h-1.53zm9.63-2h1.15l-.38-1.07L28.3 28zM7.39 25.5l2-1.5h2.65l-.42 1.5H7.4zM4 30l.3-1.5h4.83c.18 0 .33-.28.36-.47.03-.24-.14-.53-.36-.53H4.75L6.63 26h4.4c.23 0 .4.22.36.47l-.43 2.85c-.06.4-.37.68-.74.68H4zm7.93-4l-.76 4h1.4l.8-4h-1.44zM19 26h-4.7a.75.75 0 0 0-.73.62l-.48 2.46c-.1.47.26.92.73.92h3.97c.37 0 .7-.29.74-.67l.2-1.63h-2.16a.19.19 0 0 0-.18.15l-.06.22a.2.2 0 0 0 .18.24h.49l-.13.47h-1.85a.38.38 0 0 1-.37-.48l.23-.99c.04-.17.19-.3.36-.3h2.96c.36 0 .64-.15.71-.52l.1-.49zm19.4 0h-3.93l-.79 4h1.53l.29-1h2.04v1h1.29c.23-.48.16-1.37.09-1.76l.12-.14c.27-.2.44-.5.47-.83a1.14 1.14 0 0 0-1.1-1.27zm-1.05 1h-1.42l-.2 1h1.62c.18 0 .34-.13.4-.32.1-.33-.1-.68-.4-.68zm3.01 3h3.92c.34 0 .63-.27.69-.65l.36-2.45c.07-.47-.26-.9-.69-.9h-4.02c-.36 0-.66.3-.7.68l-.25 2.46c-.05.46.27.86.7.86zm1.03-1h1.92c.16 0 .3-.14.33-.32l.18-1.23c.04-.24-.13-.45-.34-.45h-1.96c-.18 0-.32.15-.34.34l-.13 1.23c-.02.23.14.43.34.43zm5.63 1H45.5l.77-4h1.78l1.91 2.56.52-2.56H52l-.8 4h-2.16l-1.6-2.05-.4 2.05z" fill="#fff"/></svg>