<!-- by TradingView --><svg xmlns="http://www.w3.org/2000/svg" width="56" height="56" viewBox="0 0 56 56"><path fill="#F0F3FA" d="M0 0h56v56H0z"/><path d="M10.88 25.46c-.25-.93-.64-1.92-1.89-1.92-1.1 0-1.62.79-1.62 1.58 0 1.06.69 1.57 1.87 2.17 1.15.61 2.52 1.25 2.52 2.93 0 1.52-1.3 2.78-3.21 2.78-.61 0-1.08-.15-1.42-.22-.4-.17-.62-.25-.74-.32-.12-.3-.27-1.58-.39-2.3l.44-.12c.2.9.88 2.37 2.38 2.37 1.1 0 1.74-.7 1.74-1.75 0-1.08-.79-1.58-1.89-2.17-.93-.51-2.38-1.23-2.38-2.88 0-1.4 1.1-2.61 3-2.61.66 0 1.27.17 1.83.34.05.52.13 1.11.25 2.02l-.5.1Zm1.8 7.54v-.4c1.18-.1 1.32-.2 1.32-1.4v-6.38c0-1.25-.12-1.33-1.32-1.4V23h4.06v.42c-1.18.1-1.24.2-1.24 1.4v6.36c0 1.25.04 1.35 1.24 1.43V33h-4.06Zm14.23-4.6c-.88.13-.91.2-.91 1.06v1.62c0 .52 0 .98.1 1.4-.9.2-2.08.52-3.26.52-3.19 0-5.34-2-5.34-4.9 0-3.38 2.7-5.1 5.56-5.1 1.23 0 2.3.32 2.8.42l.2 2.29-.43.1c-.34-1.8-1.44-2.3-2.84-2.3-2.23 0-3.79 1.73-3.79 4.42 0 2.11 1.2 4.58 3.99 4.58.49 0 .95-.1 1.25-.25.27-.17.46-.34.46-.96v-1.62c0-1.06-.28-1.15-1.7-1.25V28h3.86l.05.4ZM36 33v-.42c1.18-.12 1-.44 1-2v-6.2h-.07L33.63 30h-.27L30 24.6h-.05l-.2 4.41c-.05 1.2-.05 2.1-.05 2.66.05.69.34.79 1.3.91V33h-3.33v-.42c.86-.1 1.13-.27 1.25-.89.1-.51.2-1.37.27-2.93l.2-3.27c.12-1.9-.1-1.95-1.39-2.1V23h2.51l3.39 4.83L37.05 23h2.45v.42c-1.3.12-1.15.15-1.07 1.65l.12 5.54c.05 1.55.02 1.87 1.27 2V33H36Zm8.96-7.67c-.46 1.26-.92 2.35-1.36 3.53h2.51l-1.15-3.53Zm1.3 7.67v-.47c.93-.12 1.05-.22.86-.79-.2-.56-.5-1.35-.79-2.24h-2.92c-.22.64-.45 1.26-.64 1.9-.3.94-.2 1.06.93 1.18V33h-3.16v-.44c.93-.13 1.13-.2 1.62-1.5l3.01-7.86.44-.2c.9 2.49 1.89 5.57 2.8 8.1.44 1.26.63 1.4 1.59 1.48V33h-3.74Z" fill="#5E9440"/><path d="m27.35 37.08-.22.92h-2.8v-.18c.52-.05.57-.07.57-.58v-2.5c0-.49-.05-.53-.54-.58V34h1.62v.19c-.5.04-.54.04-.54.57v2.48c0 .33.05.42.12.49.12.07.34.07.61.07.35 0 .57-.05.69-.19.12-.11.22-.3.32-.58l.17.05Zm.32.92v-.2c.51-.05.56-.08.56-.59v-2.47c0-.49-.05-.53-.56-.58V34h1.64v.19c-.51.04-.56.06-.56.57v2.48c0 .48.05.53.56.57V38h-1.64Zm5.37-2.96a1.32 1.32 0 0 0-.2-.53c-.12-.14-.2-.19-.69-.19h-.44v2.94c0 .46.05.53.64.55V38h-1.79v-.19c.57-.04.61-.11.61-.55v-2.94h-.39c-.51 0-.64.05-.7.19-.08.11-.13.25-.2.53h-.2c.05-.35.05-.72.07-1.04h.13c.1.12.17.14.34.14h2.45c.17 0 .2-.05.32-.14h.12c0 .25.05.7.07 1.04h-.14Zm4.85-.85c-.51.04-.56.06-.56.55v2.52c0 .49.05.53.56.55V38h-1.64v-.19c.51-.04.59-.06.59-.55V36h-2.11v1.26c0 .49.05.53.56.55V38h-1.64v-.19c.49-.04.54-.06.54-.55v-2.52c0-.49-.05-.53-.56-.55V34h1.61v.19c-.46.04-.51.06-.51.55v1.04h2.1v-1.04c0-.49-.04-.5-.5-.55V34h1.61l-.05.19Zm.55 3.81v-.2c.51-.05.56-.08.56-.59v-2.47c0-.49-.05-.53-.56-.58V34h1.62v.19c-.52.04-.55.06-.55.57v2.48c0 .48.03.53.55.57V38h-1.62Zm6.27-3.8c-.37.05-.52.12-.54.35-.02.17-.05.5-.05 1.02v.49c0 .7-.12 1.18-.46 1.55-.27.27-.72.39-1.1.39-.38 0-.72-.1-1.01-.28-.37-.25-.55-.7-.55-1.38V34.8c0-.53-.04-.56-.53-.6V34h1.6v.2c-.5.05-.52.08-.52.6v1.4c0 .94.39 1.48 1.17 1.48.89 0 1.18-.72 1.18-1.7v-.43c0-.53-.02-.86-.05-1.04-.05-.23-.17-.3-.61-.32V34h1.47v.2Zm3.7 3.8v-.2c.51-.05.51-.08.51-.7l-.02-2.52h-.05l-1.5 3.3h-.1l-1.4-3.21h-.02l-.1 1.76c-.04.48-.04.78-.02 1.02.02.27.15.32.56.36V38h-1.44v-.19c.37-.04.49-.11.51-.34.05-.19.08-.51.13-1.11l.1-1.32c.04-.76.02-.79-.57-.83V34h1.03l1.4 3.03L48.85 34h1.05v.19c-.56.04-.59.04-.56.64l.05 2.25c.02.62.1.64.61.69V38h-1.6Z" fill="#818187"/><path d="M37.94 14.66c-.05-.37-.27-.66-1-.66l-6.33.05 2.67 3.63a6.16 6.16 0 0 1 4.66-3.02Z" fill="#3DB54A"/><path d="M37.72 15.42c.15-.24.24-.51.22-.78a6.2 6.2 0 0 0-4.69 3l1.5 2c0 .02 2.6-3.6 2.97-4.22Z" fill="#79C371"/><path d="M32.55 22h-2.01l3.28 4.46.74-1.03A7.42 7.42 0 0 1 32.55 22Z" fill="#8BC63F"/><path d="M35.56 22h-3.01c.27 1.35 1 2.56 2 3.44.61-.88 1.45-2.02 1.62-2.29.27-.51.32-1.15-.6-1.15Z" fill="#AAD376"/><path d="m32.94 18.34-3.19-4.32s-3.53 4.9-4 5.72c-.48.78-.56 1.93 1.04 1.93.93 0 3.62-.05 5.73-.05-.05-.27-.05-.54-.05-.83-.03-.86.13-1.67.47-2.45Z" fill="#8BC63F"/><path d="M32.94 18.34a5.86 5.86 0 0 0-.47 3.28l2.87-.05-2.4-3.23Z" fill="#A9D26A"/></svg>