<!-- by TradingView --><svg width="56" height="56" viewBox="0 0 56 56" xmlns="http://www.w3.org/2000/svg"><path fill="#F0F3FA" d="M0 0h56v56H0z"/><path d="m12.87 20.29-.3.61a2.51 2.51 0 0 1-4.05.13 2.5 2.5 0 0 1 .9-3.78 2.5 2.5 0 0 1 3.45 3.04Z" fill="#76ADB7"/><path d="m27.49 27.04-.3.6a6.53 6.53 0 0 1-6.84 3.25 6.5 6.5 0 0 1-5.06-8.3c1.72-5.58 9.46-6.28 12.04-.96a6.5 6.5 0 0 1 .16 5.4Z" fill="#76B7A6"/><path d="M12.84 20.21c.67.3 1.33.62 1.99.94.42.2.2.81-.32.6-.42-.18-1.08-.5-1.97-.94l.3-.6Z" fill="#5B7F89"/><path d="m38 31.34-.13.67a4 4 0 0 1-1.24 2.02l-.55.4c-3.08 1.78-6.89-.9-5.93-4.45.81-3.02 4.58-4 6.74-1.74a4.08 4.08 0 0 1 1.1 3.1Z" fill="#51A59E"/><path d="M27.64 27.25c.66.3 1.3.6 1.93.92.53.26.26.85-.18.65-.68-.3-1.37-.63-2.05-.98l.3-.59Z" fill="#5B7F89"/><path d="M45.5 35a2.5 2.5 0 1 0 0-5 2.5 2.5 0 0 0 0 5Z" fill="#0095AF"/><path d="m38.27 31.09 3.61.6c.58.1.5.75-.08.67-1.22-.19-2.44-.4-3.65-.61l.12-.66ZM36.9 33.74l1.8 2.4c.3.41-.26.78-.6.33l-1.75-2.33.55-.4Z" fill="#5B7F89"/><path d="M39.5 40a1.5 1.5 0 1 0 0-3 1.5 1.5 0 0 0 0 3Z" fill="#6099AC"/></svg>