<!-- by TradingView --><svg xmlns="http://www.w3.org/2000/svg" width="56" height="56" viewBox="0 0 56 56"><path d="M55.87.29h-56v56h56v-56Z" fill="#F0F3FA"/><path d="M11.45 32.98H3.97l1-3h6l-3.46-4.53a2.32 2.32 0 0 1-.35-2.2 2 2 0 0 1 2-1.25h6.81l-1 2.98h-3l1.87 2.77c1.25 1.68 1.23 2.58.97 3.53-.52 1.84-2.61 1.72-3.36 1.7ZM23.47 28c.83 0 1.5-.66 1.5-1.5 0-.83-.67-1.5-1.5-1.5l-3.5.04c-1.93 7.83.03 0-1.97 7.96h-3c2.97-11 0 0 3-11h5.97c2.27 0 4 1.93 4 4.38 0 2.33-1.85 4.3-4.25 4.3h-2.88c-.88-2.68.02 0-.87-2.68h3.5ZM39.52 33.01l-4.5-.03c-3.32-2.31 0-.03-3.32-2.34 1.1-1.42.36-.49 1.46-1.9l1.81 1.28-.96-3.53c-5 6.46 0 .02-4.99 6.52h-4c.26-.42 0 .49 8-11.01h3l3.7 10.74c.03.12-.08.27-.2.27Z" fill="#001C85"/><path d="M49.21 36.02h-3.22l-1.51-7.96h2.55c1.34 0 1.45-1.12 1.45-1.5 0-.87-.52-1.43-1.45-1.48h-2.54L42 33h-3c-.32 0 2-7.56 3-10.99h6.01c2.27 0 3.94 1.97 3.94 4.4 0 2.3-1.8 4.6-3.96 4.63l1.22 4.98Z" fill="#001C85"/></svg>