<!-- by TradingView --><svg xmlns="http://www.w3.org/2000/svg" width="56" height="56" viewBox="0 0 56 56"><path fill="#F0F3FA" d="M0 0h56v56H0z"/><path d="M24.9 12H22v8.92c0 .63-.56 1.08-1.09 1.08H12v2.9c0 1.16.94 2.1 2.1 2.1h10.59c1.26 0 2.3-1.05 2.3-2.3V14.1A2.1 2.1 0 0 0 24.9 12z" fill="#C0CDD5"/><path d="M31.1 12H34v8.92c0 .63.56 1.08 1.08 1.08H44v2.9a2.1 2.1 0 0 1-2.1 2.1H31.3a2.33 2.33 0 0 1-2.3-2.3V14.1c0-1.15.94-2.1 2.1-2.1z" fill="#487D93"/><path d="M24.9 44H22v-8.92c0-.63-.56-1.08-1.09-1.08H12v-2.9c0-1.16.94-2.1 2.1-2.1h10.59c1.26 0 2.3 1.05 2.3 2.3v10.6A2.1 2.1 0 0 1 24.9 44z" fill="#C0CDD5"/><path d="M31.1 44H34v-8.92c0-.63.56-1.08 1.08-1.08H44v-2.9a2.1 2.1 0 0 0-2.1-2.1H31.3a2.33 2.33 0 0 0-2.3 2.3v10.6c0 1.16.94 2.1 2.1 2.1z" fill="#487D93"/></svg>