<!-- by TradingView --><svg width="56" height="56" viewBox="0 0 56 56" xmlns="http://www.w3.org/2000/svg"><path fill="#F0F3FA" d="M0 0h56v56H0z"/><path d="M17.94 16.28a.7.7 0 0 1 .77.62c.58 5.35 2.95 10.8 5.7 15.45A56.4 56.4 0 0 0 32.3 42.8c.19.2.24.47.16.72.77.27 1.55.53 2.37.76a.7.7 0 1 1-.39 1.33C18.7 41.14 11.46 27.8 9.8 21.63a.7.7 0 0 1 1.35-.36c1.41 5.22 7.1 16 19.05 21.32a60.8 60.8 0 0 1-6.98-9.54c-2.8-4.73-5.28-10.38-5.89-16a.7.7 0 0 1 .62-.77Z" fill="#0F4782"/><path d="M38.24 12c.38.06.65.4.6.79-.7 5.15-4.4 17.46-13.7 25.73a.7.7 0 0 1-.98-.05.69.69 0 0 1 .05-.98c8.96-7.98 12.57-19.94 13.24-24.89a.7.7 0 0 1 .79-.6Zm3.06 6.13c.39 0 .7.32.7.7-.02 5.02-2.3 17.53-11.2 27.93a.7.7 0 0 1-1 .08.69.69 0 0 1-.07-.98c8.65-10.1 10.85-22.27 10.87-27.04 0-.38.32-.69.7-.69Z" fill="#93C83C"/><path d="M39.98 16.09c-15.07-1-26.15 6.97-29.76 11.01a.7.7 0 0 1-.98.06.69.69 0 0 1-.06-.98c3.82-4.29 15.3-12.5 30.9-11.47a.7.7 0 0 1 .64.73.7.7 0 0 1-.74.65ZM36.7 25.3c-8.35-2.58-16.33-.67-19.13.6a.7.7 0 0 1-.93-.35.69.69 0 0 1 .35-.92c3.06-1.38 11.4-3.35 20.12-.65a.7.7 0 1 1-.41 1.32Z" fill="#09AFD9"/><path d="M13.49 24.63c0 .96-.78 1.73-1.75 1.73-.96 0-1.74-.77-1.74-1.73 0-.95.78-1.73 1.74-1.73.97 0 1.75.78 1.75 1.73ZM20.25 19.98c0 .96-.78 1.73-1.74 1.73-.97 0-1.75-.77-1.75-1.73 0-.95.78-1.73 1.75-1.73.96 0 1.74.78 1.74 1.73ZM21.53 24.42c0 .95-.78 1.73-1.75 1.73-.96 0-1.74-.78-1.74-1.73 0-.96.78-1.73 1.74-1.73.97 0 1.75.77 1.75 1.73Z" fill="#09AFD9"/><path d="M27.93 36.42c0 .96-.78 1.73-1.75 1.73-.96 0-1.74-.77-1.74-1.73 0-.95.78-1.73 1.74-1.73.97 0 1.75.78 1.75 1.73Z" fill="#0F4782"/><path d="M36.38 24.13c0 .95-.78 1.73-1.74 1.73-.97 0-1.75-.78-1.75-1.73 0-.96.78-1.73 1.75-1.73.96 0 1.74.77 1.74 1.73ZM39.44 15.24c0 .96-.79 1.73-1.75 1.73s-1.75-.77-1.75-1.73.79-1.73 1.75-1.73 1.75.77 1.75 1.73Z" fill="#93C83C"/><path d="M33.68 43.74c0 .96-.78 1.73-1.75 1.73-.96 0-1.74-.77-1.74-1.73s.78-1.73 1.74-1.73c.97 0 1.75.77 1.75 1.73Z" fill="#0F4782"/></svg>