<!-- by TradingView --><svg width="56" height="56" viewBox="0 0 56 56" xmlns="http://www.w3.org/2000/svg"><path fill="#06BEA4" d="M0 0h56v56H0z"/><path d="M27.5 43c3.62 0 7.15-1.16 10.05-3.31L38.9 43H46l-5.63-6A15.64 15.64 0 0 0 44 27c0-8.84-7.38-16-16.5-16C18.4 11 11 18.16 11 27s7.38 16 16.5 16ZM40 27c0 6.8-5.5 12-12.5 12C20.48 39 15 33.8 15 27s5.49-12 12.5-12c7 0 12.5 5.2 12.5 12Zm-12.53 9.8c5.8-3.93 9.27-8.59 9.27-12.13-.11-6.33-7.47-6.56-9.27-3.5-1.74-3.06-9.14-2.78-9.26 3.5 0 3.5 3.78 8.43 9.26 12.14Z" fill="#fff"/></svg>