<!-- by TradingView --><svg width="56" height="56" xmlns="http://www.w3.org/2000/svg"><path fill="#F0F3FA" d="M0 0h56v56H0z"/><path d="M28.324 20.574c-2.403 2.96-5.768 7.638-8.846 11.926 2.141-4.097 5.314-9.538 8.14-13.275-.129-.245-.257-.483-.383-.713C25.633 20.515 23.138 23.74 21 27c2.11-4.761 3.869-8.12 5.083-10.502-.156-.257-.305-.49-.443-.696l-.118-.175S15.688 33.06 12.267 39.495L12 40h4.2l.094-.207c1.792-3.634 8.576-13.267 12.44-18.42-.14-.272-.274-.537-.41-.8z" fill="#FDB813"/><path d="M44 40l-2.255-4h-6.769c-6.53-.111-11.258-1.141-15.403-1.625-.168.254-.334.508-.495.755 3.774.58 9.726 1.368 14.922 1.87-1.759.075-3.944 0-5.82 0-2.867 0-6.675-.21-9.915-.597-.148.235-.295.469-.431.692 2.562.374 6.784.781 10.611.993-5.096.55-9.09.765-11.773.912-.142.26-.27.575-.378.794l-.095.206H44z" fill="#00446A"/><path d="M35.525 36l.002.004h.88c-1.384-3.584-3.839-8.999-6.033-13.818 2.493 3.874 5.751 9.471 7.583 13.818l.777-.003C37.831 33.698 35.795 29.517 34 26c3.075 4.195 5.313 7.76 6.779 10.004l.953-.003C37.834 29.347 31.357 18.135 27.5 12l-1.98 3.644c2.268 3.375 7.449 14.427 10.007 20.36" fill="#E4701E"/></svg>