<!-- by TradingView --><svg width="56" height="56" viewBox="0 0 56 56" xmlns="http://www.w3.org/2000/svg"><path fill="#F0F3FA" d="M0 0h56v56H0z"/><path d="M27.5 27.15V9L15 24.16l3.22 15.54 9.28-12.55Z"/><path d="M27.5 32.02V13.3L15 28.46 18.22 44l9.28-11.98Z" fill="url(#abkdk54jl)"/><path d="M28.5 27.15V9L41 24.16 37.78 39.7 28.5 27.15Z"/><path d="M28.5 31.85V13.3L41 28.46 37.78 44 28.5 31.85Z" fill="url(#bbkdk54jl)"/><path d="M38 44H18l10-13.38L38 44Z" fill="url(#cbkdk54jl)"/><defs><linearGradient id="abkdk54jl" x1="15.83" y1="33.18" x2="27.26" y2="33.18" gradientUnits="userSpaceOnUse"><stop stop-color="#004889"/><stop offset="1" stop-color="#617FB9"/></linearGradient><linearGradient id="bbkdk54jl" x1="40.17" y1="33.18" x2="28.74" y2="33.18" gradientUnits="userSpaceOnUse"><stop stop-color="#004889"/><stop offset="1" stop-color="#617FB9"/></linearGradient><linearGradient id="cbkdk54jl" x1="19.77" y1="43.45" x2="36.58" y2="43.45" gradientUnits="userSpaceOnUse"><stop stop-color="#A29A96"/><stop offset=".51" stop-color="#E6E8E7"/><stop offset="1" stop-color="#9FA8AD"/></linearGradient></defs></svg>