<!-- by TradingView --><svg xmlns="http://www.w3.org/2000/svg" width="56" height="56"><path fill="#F0F3FA" d="M0 0h56v56H0z"/><path d="M8.93 28.98c0-.8-.74-1.27-1.45-1.58-.51-.22-.78-.42-.78-.65 0-.31.34-.5.83-.5.57 0 1.03.14 1.3.24l.44-1.2c-.3-.15-.9-.29-1.64-.29-1.67 0-2.84.79-2.84 1.98 0 .72.62 1.2 1.36 1.53.31.13.52.26.65.39.75.27 1.43.45 2.07.56.04-.15.06-.31.06-.48zm-2.79.79c-.62 0-1.32-.24-1.68-.4L4 30.55c.38.25 1.16.44 1.97.45 1.05.01 1.92-.26 2.45-.77-.58-.1-1.2-.28-1.87-.52-.11.03-.25.06-.4.06zm3.89.63c.47.38 1.15.6 2.02.6.71 0 1.65-.12 2.4-.46l-.13-1.23-.36.14a8.22 8.22 0 01-3.93.95zm2.73-4.17c.44 0 .7.2.7.49 0 .53-.73.7-2.2.7.12-.53.63-1.19 1.5-1.19zm-1.26 3.2a1.16 1.16 0 01-.24-.2c-.13-.16-.2-.42-.2-.59 2.59.06 4.19-.46 4.19-1.91 0-1.07-.93-1.73-2.25-1.73a3.64 3.64 0 00-3.76 3.57c0 .35.06.68.17.96.77.07 1.45.03 2.09-.1zm10.32-3.73l.09-.42a8.24 8.24 0 00-2.12-.28c-2.4 0-3.82 1.2-4.36 2.61 1.76-1.08 3.6-2.15 6.4-1.91zm-.18.82c-.7-.05-1.34 0-1.93.1l-.2 1.04c-.3 1.4-1.02 1.98-1.58 1.98-.52 0-.78-.39-.78-.95 0-.42.14-.9.4-1.3a27.73 27.73 0 00-2.37 1.38V29c0 1.2.78 2 1.94 2 .75 0 1.58-.32 2.2-1.27h.02c-.03.42-.07.82-.08 1.14h1.75c-.03-.72.1-1.85.26-2.59l.37-1.76z" fill="#1B3281"/><path d="M26.65 25c-.85 0-1.65.35-2.26 1.1h-.03l.12-1.1H22.8l-1.16 6h1.9l.53-2.6c.28-1.3.99-2 1.6-2 .5 0 .66.28.66.7 0 .22-.03.44-.07.65L25.58 31h1.9l.72-3.4c.05-.3.1-.72.1-1 .01-1.01-.6-1.6-1.65-1.6zm5.49 1.24c.44 0 .7.2.7.48 0 .53-.75.7-2.22.7.13-.53.63-1.18 1.52-1.18zm2.47.49c0-1.07-.93-1.73-2.24-1.73a3.64 3.64 0 00-3.76 3.57c0 1.5.95 2.43 2.8 2.43.71 0 1.64-.12 2.4-.46l-.13-1.22a4.5 4.5 0 01-1.8.36c-.56 0-1-.15-1.24-.45-.14-.16-.2-.42-.2-.58 2.58.06 4.17-.47 4.17-1.92zm4.41-.03l.37-1.7h-.35c-.89 0-1.6.55-2.05 1.34h-.05c.05-.42.1-.94.11-1.34h-1.64l-1.07 6h1.92l.45-2.18c.24-1.15.82-2.12 2.01-2.12h.3zm4.05 1.32c-.2.99-.82 1.62-1.44 1.62-.58 0-.88-.43-.88-1.03 0-1.1.82-2.28 1.97-2.28.27 0 .54.04.69.11l-.34 1.58zm0-3.02c-2.81 0-4.34 1.93-4.33 3.87.01 1.16.8 2.11 2.08 2.11.76 0 1.34-.27 1.84-.87h.03l-.1.5c-.28 1.18-1.04 2.01-1.98 2.01-.55 0-1.33-.13-1.7-.32l-.44 1.32c.45.23 1.23.38 2.11.38.86 0 1.8-.16 2.5-.67.76-.56 1.18-1.97 1.41-3.06l.98-4.86c-.7-.25-1.5-.41-2.4-.41zM50 25l-1.18 2.72-.57 1.44h-.03l-.2-1.47-.4-2.68h-2l1.27 5.59c.03.13.03.2-.03.3a3.4 3.4 0 01-1.06 1.06c-.37.26-.78.4-1.09.5l.42 1.54a4.4 4.4 0 002.07-1.05c.86-.77 1.63-1.89 2.49-3.52L52 25h-2z" fill="#7E8691"/></svg>