<!-- by TradingView --><svg width="56" height="56" xmlns="http://www.w3.org/2000/svg"><path fill="url(#paint0_linear)" d="M0 0h56v56H0z"/><path d="M8 28.987L11 29l.995 7L13 29l3 .045V40h-2v-7l-1 7h-1.998L10 33v7H8V28.987zM16.545 40l2-11c0-.02 2 0 2 0l2 11h-2l-.286-1.976h-1.413L18.545 40h-2zm3.714-4l-.714-4-.7 4h1.415zM23 29h2.667c1.705.045 2.055-.001 2.444.205 1.045.55 1.145.528 1.089 5.323-.044 4.05-.056 4.141-.767 4.841-.51.493-1.055.62-3.066.63H23V29zm4 8.253v-2.989C27 32 27 31 26.156 31H25v7h1.01c.603 0 .99-.309.99-.747zM30 29h2.256c2.222 0 2.883.146 3.266.618.382.472.522.344.478 4.646v4.015c0 .598-.5 1.174-.975 1.468-.476.295-.88.207-2.77.253H30V29zm4 8.004v-2.877C34 31.677 34 31 33 31h-.967L32 38h.667c1.027 0 1.333-.53 1.333-.996zM37 29h5v2h-3v2h2v2h-2v3h3v2h-5V29zm6 11V29h2l2 6v-6h2v11h-2l-2-6v6h-2zM14.767 26.908c-.656-.172-1.2-.562-1.49-1.09-.244-.424-.277-.62-.277-1.583V23h2c0 .635-.194 1.663.28 2.153.312.322.83.365 1.131-.035.841-1.194-.508-2.438-1.244-3.143C14.01 20.867 13 20.418 13 18.755c0-1.25.222-1.801.867-2.26.877-.608 2.6-.62 3.51-.035.69.448.879.872.934 2.1l.045.998h-1.86c0-.619.176-1.704-.596-1.893-.767-.172-1.256.505-1.078 1.48.21 1.109 2.699 1.974 3.278 3.22.567.864.604 2.788-.078 3.74-.378.528-1.078.849-2.022.895-.467.023-1.011-.035-1.233-.092zM20.5 18H19v-1.998h5V18h-1.5v9h-2v-9zm4.5-1.998h5V18h-3v2h2v2h-2v3h3v2h-5V16.002zM33 27l-2-10.998h2L34 23l1-6.998h1.997L35 27h-2zm5-10.998h5V18h-3v2h2v2h-2v3h3v2h-5V16.002z" fill="#fff"/><defs><linearGradient id="paint0_linear" x1="10.418" y1="9.712" x2="68.147" y2="76.017" gradientUnits="userSpaceOnUse"><stop stop-color="#1A1E21"/><stop offset="1" stop-color="#06060A"/></linearGradient></defs></svg>