<!-- by TradingView --><svg xmlns="http://www.w3.org/2000/svg" width="56" height="56" viewBox="0 0 56 56"><path fill="#1F2640" d="M0 0h56v56H0z"/><path d="M24.89 24h7.85c-.1-2.7-2.57-8-11.6-8-11.19 0-11.18 6.21-11.18 8.03v.06c0 1.74 1.1 6.93 9.86 6.93 1.86-.02 5.5.23 5.5 1.37 0 1.13-2.5 1.6-3.8 1.61-1.44.08-4.3-.23-4.3-2H9c-.15 2.71 2.06 8 12.12 8C31.2 40 33 35.13 33 31.86c0-2.93-1.1-6.21-9.12-6.9-2.29-.04-6.87-.39-6.87-1.5 0-1.12 2.75-1.49 4.12-1.46 1.25 0 3.76.46 3.76 2zM33 17h3.11l.72 16.74v-3L38.34 17h2.3l1.38 13.05v3.43l.9-16.48H46l-2.03 22h-2.89l-1.53-13.14v-3.21l-.27 3.21L37.88 39h-2.83L33 17z" fill="#FF4A5B"/></svg>