<!-- by TradingView --><svg width="56" height="56" viewBox="0 0 56 56" xmlns="http://www.w3.org/2000/svg"><path fill="#F0F3FA" d="M0 0h56v56H0z"/><path d="M31.88 28.7h-1.82c.56 1.44.94 2.98.94 4.57 0 2.01-1.95 3.21-3 3.56 0 .04 0 .12.12.17 3.65 0 4.85-2.74 4.85-5.06 0-.96-.5-2.06-1.1-3.25Z" fill="#80BE00"/><path d="M7.52 32c-2.23 0-3.43-.95-3.52-2.52h1.76c.06.9.73 1.29 1.77 1.29 1 0 1.47-.37 1.47-1.06 0-.5-.25-.79-1.4-1.08l-.62-.16C5.04 27.97 4 27.34 4 26.27 4 24.9 5.44 24 7.5 24c2.14 0 3.25.86 3.33 2.38H9c-.05-.74-.57-1.15-1.5-1.15-.98 0-1.5.4-1.5.92 0 .5.23.8 1.44 1.11l.63.16c2 .5 2.93 1.1 2.93 2.2C11 31.1 9.67 32 7.52 32ZM12 24h2v8h-2v-8ZM17 28v1h-2v-1h2ZM31.03 32c-2.9 0-4.03-2.09-4.03-3.93v-.11c0-1.83 1.13-3.96 4.03-3.96 2.9 0 3.97 2.13 3.97 3.96v.1c0 1.85-1.06 3.94-3.97 3.94Zm0-1.3c1.68 0 1.97-1.45 1.97-2.63v-.12c0-1.16-.29-2.65-1.97-2.64-1.73 0-2.03 1.48-2.03 2.64v.12c0 1.18.3 2.61 2.03 2.62ZM22.86 32H18v-8h4.63c2 0 3.09.74 3.09 2.11 0 .88-.65 1.5-1.38 1.75v.04c.89.28 1.66.96 1.66 1.9 0 1.38-1.17 2.2-3.14 2.2Zm-.44-6.64H20v1.93h2.42c.8 0 1.31-.36 1.31-1 0-.6-.46-.93-1.31-.93Zm.22 3.21H20v2.07h2.68c.8 0 1.32-.37 1.32-1s-.61-1.07-1.36-1.07Z"/><path d="M33 19.2c-.98.43-3 1.85-3 4.07 0 1.78.92 3.5 1.7 5.07l.18.35h-1.82l-.22-.56c-.55-1.4-1.34-2.73-1.34-3.93 0-2.57 1.97-4.18 4.41-5.2.07.05.09.15.09.2Z" fill="#80BD00"/><path d="M38.03 26.56H38V32h-2v-8h2.17l3.79 5.42H42V24h2v8h-2.18l-3.79-5.44ZM47 30.64h5V32h-7v-8h7v1.36h-5v1.93h4v1.36h-4v1.99Z"/></svg>