<!-- by TradingView --><svg width="56" height="56" viewBox="0 0 56 56" xmlns="http://www.w3.org/2000/svg"><path fill="#181B1E" d="M0 0h56v56H0z"/><path d="M29.52 19c-8.68 0-14.63 1.75-16.52 2.63 2.2-.63 8.6-1.9 16.52-1.9 9.9 0 15.57 2.7 18.48 4.27-2.18-1.97-7.64-5-18.48-5Z" fill="#fff"/><path d="M22.14 17.57c7.43 0 12.34.86 13.86 1.29-1.93-.72-6.21-1.86-13.86-1.86C11 17 8 19.5 8 22c0 2 2.33 4.17 3.5 5l.5-.71c-1.05-.74-3.14-2.63-3.14-4.29 0-2.64 4-4.43 13.28-4.43Z" fill="#A1A6A9"/><path d="M10 22h2.73L20 32h-2.73L10 22Z" fill="#673098"/><path d="M12.6 26H19l-1.6 2H11l1.6-2ZM47 39h-4v-7h4v1h-3v2h2.43v1H44v2h3v1ZM37 35.49c0-2.28 1.43-3.49 2.97-3.49.7 0 1.42.25 2.03.76l-.33.93a2.39 2.39 0 0 0-1.65-.69c-1.2 0-2.02.67-2.02 2.53 0 1.81.85 2.47 2.04 2.47.58 0 1.17-.23 1.65-.7l.31.92a3.2 3.2 0 0 1-2.05.78C38.41 39 37 37.75 37 35.49ZM31.94 39H31l2.65-7h.7L37 39h-.85l-.8-2h-2.63l-.78 2ZM34 33.29 33.04 36h2.02L34 33.29ZM28 37v2h-1v-7h2.53c1.54 0 2.5.7 2.47 2.5-.04 1.62-1.14 2.5-2.5 2.5H28Zm0-1h1.23c1.37 0 1.77-.5 1.77-1.46 0-1.04-.4-1.54-1.74-1.54H28v3ZM38.5 31c-1.42 0-2.5-1.13-2.5-2.88V24h1v4.04C37 29 37.5 30 38.5 30c1.07 0 1.5-.5 1.5-1.96V24h1v4.12C41 29.9 39.91 31 38.5 31ZM31.54 31H29v-7h2.54c2 0 3.46 1.54 3.46 3.51A3.37 3.37 0 0 1 31.54 31ZM30 25v5h1.48c1.74 0 2.52-.98 2.52-2.48C34 26 33.21 25 31.48 25H30ZM28 24v7h-1v-7h1ZM21 30.4l.24-1c.57.32 1.54.6 2.38.6.85 0 1.33-.05 1.38-.9.09-1.68-3.83-.78-4-3.06v-.2c0-1.38 1.28-1.84 2.5-1.84.73 0 1.5.17 2.03.41l-.26.96a4.57 4.57 0 0 0-1.78-.37c-.83 0-1.46.01-1.49.8v.1c.05 1.62 4.03.73 4 3.1-.01 1.5-1.18 2-2.44 2-.93 0-1.92-.27-2.56-.6ZM21 38.4l.24-1c.57.32 1.54.6 2.38.6.85 0 1.33-.05 1.38-.9.09-1.68-3.83-.78-4-3.06v-.2c0-1.38 1.28-1.84 2.5-1.84.73 0 1.5.17 2.03.41l-.26.96a4.57 4.57 0 0 0-1.78-.37c-.83 0-1.46.01-1.49.8v.1c.05 1.62 4.03.73 4 3.1-.01 1.5-1.18 2-2.44 2-.93 0-1.92-.27-2.56-.6ZM42 30.4l.24-1c.57.32 1.54.6 2.38.6.85 0 1.33-.05 1.38-.9.09-1.68-3.83-.78-4-3.06v-.2c0-1.38 1.28-1.84 2.5-1.84.73 0 1.5.17 2.03.41l-.26.96a4.57 4.57 0 0 0-1.78-.37c-.83 0-1.46.01-1.49.8v.1c.05 1.62 4.03.73 4 3.1-.01 1.5-1.18 2-2.44 2-.93 0-1.92-.27-2.56-.6Z" fill="#fff"/></svg>