<!-- by TradingView --><svg width="56" height="56" viewBox="0 0 56 56" xmlns="http://www.w3.org/2000/svg"><path fill="#0066A6" d="M0 0h56v56H0z"/><path d="M14.16 21.69c-.1.25-.16.54-.16.84 0 .2.03.39.08.57.05.18.12.34.22.48.09.13.2.24.32.31.12.08.25.11.38.11.2 0 .4-.09.56-.26.16-.16.3-.4.37-.67.07-.28.09-.58.05-.87-.04-.3-.14-.56-.28-.77a.95.95 0 0 0-.52-.4.7.7 0 0 0-.58.1c-.18.11-.33.3-.44.56ZM27 22h-2v11h2v-1.1a2.6 2.6 0 0 0 2 1.1c1.7 0 3-1.46 3-4.12 0-2.56-1.29-3.88-3-3.88-.78-.01-1.51.2-2 .9V22Zm3.03 6.88c0 1.19-.65 1.92-1.52 1.92-.5 0-1.18-.26-1.51-.7v-2.4c.33-.43 1-.7 1.5-.7.88 0 1.53.7 1.53 1.88Zm-20.8 1.98c-1.1 0-2.17-.46-2.96-1.28L5 31.46A5.56 5.56 0 0 0 9.13 33c2.5 0 3.87-1.29 3.87-3.24 0-2.19-2.12-2.65-3.65-2.99-1.03-.2-1.6-.38-1.6-.89 0-.42.3-.75 1.1-.75.95.02 1.87.37 2.62 1l1.3-1.78A5.53 5.53 0 0 0 9 23c-2.38 0-3.7 1.4-3.7 3.03 0 2.25 2.07 2.68 3.6 3l.07.01c1 .22 1.6.44 1.6 1 0 .46-.51.82-1.33.82ZM16 25h-2v8h2v-8Zm4.57 0c1.99 0 3.43 1.66 3.43 4.25V30h-4.78c.12.71.7 1 1.7 1 .6 0 1.18-.1 1.65-.52l.9 1.5a4.03 4.03 0 0 1-2.8 1.02C18.59 33 17 31.47 17 29c0-2.22 1.47-4 3.57-4Zm-1.38 3h2.77c-.06-.54-.4-1-1.4-1-.6-.04-1.3.38-1.37 1Zm17.38-3c1.98 0 3.43 1.66 3.43 4.25V30h-4.78c.12.71.7 1 1.7 1 .6 0 1.18-.1 1.65-.52l.9 1.5a4.04 4.04 0 0 1-2.8 1.02C34.58 33 33 31.47 33 29c0-2.22 1.47-4 3.57-4Zm-1.37 3h2.76c-.06-.54-.4-1-1.4-1-.61-.04-1.3.38-1.37 1Zm7.8-3h-2v8h2v-4.94c.26-.46.98-.73 1.5-.73.17 0 .34.02.5.08V25c-.38.02-.75.13-1.09.34a3 3 0 0 0-.91.85V25Zm4 5.74V27h-1v-2h1v-2h2v2h1.5v2H49v3.05c0 .45.4.78.78.78.2.01.4-.05.57-.19l.65 1.85c-.28.29-1.04.51-1.87.51-1.42 0-2.13-.78-2.13-2.26Z" fill="#fff"/></svg>