<!-- by TradingView --><svg width="56" height="56" viewBox="0 0 56 56" xmlns="http://www.w3.org/2000/svg"><path fill="#546676" d="M0 0h56v56H0z"/><path d="M12.58 23c1.28-.04 3 .55 3.7.85l-.92 2.36c-2.1-1.56-4.19-.77-4.24 0-.05.78.33 1.45 2.02 1.95s3.8 1.54 3.86 4.05c.05 2.52-2.58 3.81-4.93 3.79A9.11 9.11 0 0 1 8 34.98l1.13-2.34c1.81 1.37 4.84 1.32 4.87-.18.02-1.2-1.63-1.94-2.4-2.16-1.2-.38-3.62-1.7-3.6-3.89.03-2.74 2.97-3.36 4.58-3.4ZM20 23h-2v2.56h2V36h3V23h-3ZM46 18h4v4h-4zM27 25.43V36h3V25.43h2.97c.73 0 1.07.45 1.14.67l3.15 8.19c1.04 2.33-.87 3.09-1.94 3.17H34V40h1.97a4.22 4.22 0 0 0 3.73-2.83L45 23h-6v2.43h2.19l-2.1 5.95-2.89-7.27A1.6 1.6 0 0 0 34.8 23H30c.14-3.02 2.48-2.86 3.54-2.41l.8-2.14C29.07 16.63 27.12 20.72 27 23h-2v2.43h2Z" fill="#BDD62E"/></svg>