<!-- by TradingView --><svg xmlns="http://www.w3.org/2000/svg" width="56" height="56" viewBox="0 0 56 56"><path fill="#F0F3FA" d="M0 0h56v56H0z"/><path d="M28 14s-8.52-.18-15.98 3.8a44.2 44.2 0 0 0 .07 4.2c.8 12.28 6.95 19.81 15.91 23 9.94-3.53 16.42-12.42 15.98-27.2C36.52 13.83 28 14 28 14Z" fill="#7AC1E1"/><path d="M12.02 17.82v-.01a31.63 31.63 0 0 1 8.01-2.89l.88.2c2.23.5 4.52 1 6.43 2.23 2.42 1.56 3.15 4.94 1.81 7.7-1.57 3.25-5.59 3.82-5.59 3.82C24.98 29.32 27 30.74 27 35h-7c0-.5-.49-2-2.12-2-1.42 0-2.14 1-2.4 1.53C13.64 31.2 12.42 27 12.1 22h6.23c0 1.18.36 3 2.13 3 1.32 0 1.9-1.35 1.94-2.12.04-.95-1.13-1.27-1.97-1.5l-.4-.13c-.82-.26-1.65-.5-2.47-.74-.78-.23-1.56-.46-2.33-.71-1.9-.61-2.66-1.2-3.2-1.91v-.07Z" fill="#005787"/><path d="M18.71 39.02a25.7 25.7 0 0 1-.12-.14V37H28v7.72L33.33 28H32V14.25c2.19.26 5.05.78 8 1.82V28h3.02a25.2 25.2 0 0 1-4.1 9.05l-.71-4.38-1.55 7A23.28 23.28 0 0 1 28 45a23.1 23.1 0 0 1-9.29-5.98Z" fill="#005787"/></svg>