<!-- by TradingView --><svg width="56" height="56" xmlns="http://www.w3.org/2000/svg"><path fill="#423C3C" d="M0 0h56v56H0z"/><path d="M4.029 30.357l.376-.605a.152.152 0 01.204-.037c.024.012.291.285.758.285.242 0 .633-.154.633-.5 0-.259-.426-.412-.836-.579C4.648 28.711 4 28.24 4 27.5c0-.61.485-1.5 1.408-1.5.623 0 1.104.364 1.284.5.069.043.06.154.036.197l-.309.436c-.042.071-.15.123-.204.08C6.16 27.183 5.866 27 5.5 27a.49.49 0 00-.5.478c0 .228.135.416.609.613.474.198 1.386.55 1.391 1.409.004.736-.632 1.5-1.592 1.5-.908 0-1.29-.415-1.35-.474-.06-.058-.078-.083-.03-.169zM10 26.117c0-.03.012-.06.033-.083a.113.113 0 01.081-.034H12.5c.03 0 .06.012.081.034a.119.119 0 01.034.083v.766c0 .03-.012.06-.034.083a.113.113 0 01-.08.034H11v1h1.206c.03.001.058.014.08.035.02.022.033.051.034.082v.766c0 .03-.012.06-.033.083a.113.113 0 01-.08.034H11v1h1.5c.03 0 .06.012.081.034a.119.119 0 01.034.083v.766c0 .03-.012.06-.034.083a.112.112 0 01-.08.034h-2.387a.113.113 0 01-.08-.034.119.119 0 01-.034-.083v-4.766zM21 26.117c0-.03.012-.06.033-.083a.113.113 0 01.081-.034H23.5c.03 0 .06.012.081.034a.119.119 0 01.034.083v.766c0 .03-.012.06-.034.083a.113.113 0 01-.08.034H22v1h1.206c.03.001.058.014.08.035.02.022.033.051.034.082v.766c0 .03-.012.06-.033.083a.113.113 0 01-.08.034H22v1h1.5c.03 0 .06.012.081.034a.119.119 0 01.034.083v.766c0 .03-.012.06-.034.083a.112.112 0 01-.08.034h-2.387a.113.113 0 01-.08-.034.119.119 0 01-.034-.083v-4.766zM49 26.117c0-.03.012-.06.033-.083a.113.113 0 01.081-.034H51.5c.03 0 .06.012.081.034a.119.119 0 01.034.083v.766c0 .03-.012.06-.034.083a.113.113 0 01-.08.034H50v1h1.206c.03.001.059.014.08.035.02.022.033.051.034.082v.766c0 .03-.012.06-.033.083a.113.113 0 01-.08.034H50v1h1.5c.03 0 .06.012.081.034a.119.119 0 01.034.083v.766c0 .03-.012.06-.034.083a.112.112 0 01-.08.034h-2.387a.113.113 0 01-.08-.034.119.119 0 01-.034-.083v-4.766zM15 26.117c0-.03.012-.06.033-.083a.113.113 0 01.081-.034h.772c.03 0 .058.014.08.035a.123.123 0 01.034.082V30h1.886c.03 0 .06.012.08.034a.119.119 0 01.034.083v.766c0 .03-.012.06-.033.083a.113.113 0 01-.081.034h-2.772a.112.112 0 01-.08-.034.119.119 0 01-.034-.083v-4.766zM28.199 26.004a1.97 1.97 0 01.782.136c.25.098.478.247.67.436a.115.115 0 01.034.133.114.114 0 01-.027.04l-.468.497a.105.105 0 01-.075.032.104.104 0 01-.075-.032c-.224-.202-.543-.246-.841-.246-.839 0-1.145.762-1.145 1.533 0 .967.504 1.485 1.182 1.485.293 0 .578-.105.805-.296a.117.117 0 01.155.007l.468.51a.126.126 0 01-.006.166c-.39.389-.915.603-1.46.595a2.151 2.151 0 01-1.552-.634c-.486-.49-.646-1.14-.646-1.817 0-.71.133-1.396.646-1.914A2.15 2.15 0 0128.2 26v.004zM33 27h-.883a.112.112 0 01-.083-.033.119.119 0 01-.034-.084v-.766c0-.03.012-.06.033-.083a.113.113 0 01.081-.034h2.772c.03 0 .06.012.08.034a.119.119 0 01.034.083v.766c0 .03-.012.06-.033.083a.113.113 0 01-.081.034H34v3.883c-.001.03-.013.06-.035.082a.116.116 0 01-.08.035h-.775a.116.116 0 01-.08-.035.122.122 0 01-.034-.082L33 27zM38 26.117c0-.03.013-.06.035-.082a.116.116 0 01.08-.035h.77c.03.001.06.014.08.035.022.022.034.051.035.082v4.766a.123.123 0 01-.035.082.117.117 0 01-.08.035h-.77a.116.116 0 01-.08-.035.123.123 0 01-.035-.082v-4.766zM42.013 26.16a.111.111 0 01.004-.111.108.108 0 01.042-.038.103.103 0 01.055-.01h.798a.115.115 0 01.06.02.12.12 0 01.042.05l.986 2.43h.036l.993-2.43a.12.12 0 01.041-.05.115.115 0 01.061-.02h.798a.104.104 0 01.099.047.11.11 0 01.005.112l-1.884 4.77a.117.117 0 01-.04.05.112.112 0 01-.062.02h-.06a.113.113 0 01-.06-.02.117.117 0 01-.041-.05l-1.873-4.77z" fill="#fff"/><path d="M43.931 24.456a.944.944 0 00.932-.956.944.944 0 00-.931-.956.944.944 0 00-.932.956c0 .528.417.956.931.956zM41.698 25.388c.385 0 .697-.32.697-.716a.707.707 0 00-.697-.716.707.707 0 00-.698.716c0 .396.312.716.698.716zM46 25.431c.385 0 .697-.32.697-.715A.707.707 0 0046 24a.707.707 0 00-.698.716c0 .395.313.715.698.715z" fill="#FFD11B"/></svg>