<!-- by TradingView --><svg width="56" height="56" viewBox="0 0 56 56" xmlns="http://www.w3.org/2000/svg"><path fill="#F0F3FA" d="M0 0h56v56H0z"/><path d="M11.75 25.19V26H9.66v-.11c0-.52-.4-.89-.89-.89H6.98c-.5 0-.98.37-.98.89v.09c0 .51.49 1.02.98 1.02h2.34A2.67 2.67 0 0 1 12 29.73v1.08c0 1.21-.93 2.19-2.09 2.19H6.1A2.14 2.14 0 0 1 4 30.81V30h2.09c0 .52.4 1 .89 1h2.1c.49 0 .92-.48.92-1v-.07a.93.93 0 0 0-.92-.93h-2.4A2.76 2.76 0 0 1 4 26.18v-1c0-1.2.93-2.18 2.09-2.18h3.57c1.16 0 2.09.98 2.09 2.19ZM13 26h2v7h-2zM21 26h2v7h-2zM17 23h2v10h-2z" fill="#7D7E80"/><path fill="#E61F2A" d="M13 23h2v2h-2zM21 23h2v2h-2z"/><path fill-rule="evenodd" d="M35.2 26c-1.21 0-2.2.97-2.2 2.17v2.66c0 1.2.99 2.17 2.2 2.17h2.6c1.21 0 2.2-.97 2.2-2.17v-2.66C40 26.97 39 26 37.8 26h-2.6Zm1.12 1.64c-.73 0-1.32.49-1.32 1.09v1.53c0 .6.6 1.08 1.32 1.08h.36c.73 0 1.32-.49 1.32-1.08v-1.53c0-.6-.59-1.09-1.32-1.09h-.36Z" fill="#7D7E80"/><path d="M25 28.17c0-1.2.99-2.17 2.2-2.17h2.6c1.21 0 2.2.97 2.2 2.17v.5h-2c-.04-.57-.62-1.03-1.32-1.03h-.36c-.73 0-1.32.49-1.32 1.09v1.53c0 .6.6 1.08 1.32 1.08h.36c.73 0 1.32-.49 1.32-1.08v-.03h2v.6c0 1.2-.99 2.17-2.2 2.17h-2.6C26 33 25 32.03 25 30.83v-2.66ZM41 26v7h2v-4.45c.04-.25.48-.75 1.24-.75.77 0 1.26.54 1.26.82V33h2v-4.38c0-.28.44-.82 1.26-.82.82 0 1.22.54 1.24.82V33h2v-5.2c-.02-.6-.49-1.8-2.22-1.8-1.74 0-2.24.87-2.28 1.3.02-.43-.57-1.3-2.14-1.3-1.58 0-2.25.68-2.36 1.01V26h-2Z" fill="#7D7E80"/></svg>