<!-- by TradingView --><svg width="56" height="56" viewBox="0 0 56 56" xmlns="http://www.w3.org/2000/svg"><path fill="#F0F3FA" d="M0 0h56v56H0z"/><path d="M25.9 25h-1.4v3h1.4c.7 0 1.1-.9 1.1-1.59 0-.69-.4-1.41-1.1-1.41Zm-.3 4h-1.1v3H23v-8h3c1.44 0 2.5 1 2.5 2.41 0 .97-.5 1.86-1.36 2.19l-.1.03L28.73 32h-1.58l-1.53-3Zm17.9 2h1.09c1.43 0 1.42-1.58 1.41-2.73v-.54c.01-1.15.02-2.73-1.41-2.73H43.5v6ZM42 24h2.73c2.39 0 2.77 2.07 2.77 4 0 1.93-.38 4-2.77 4H42v-8Zm-.11 8-2.62-7.28a2 2 0 0 1-.02-.04c-.08-.21-.25-.68-1-.68-.74 0-.94.54-1.02.75v.02L34.5 32h1.45l2.3-6.15 2.3 6.15h1.34ZM32 25.2c.51 0 .82.17 1.09.44.35.36.4.76.4 2.36 0 1.6-.05 2-.4 2.35-.27.27-.58.46-1.1.46-.5 0-.76-.2-1.04-.46-.36-.36-.46-.75-.46-2.35s.1-2 .46-2.36c.28-.27.53-.45 1.05-.45ZM32 32c.94 0 1.62-.3 2.17-.83.8-.78.83-1.67.83-3.17s-.02-2.39-.83-3.17A2.94 2.94 0 0 0 32 24c-.94 0-1.63.3-2.18.83-.8.78-.82 1.67-.82 3.17s.01 2.39.82 3.17c.55.53 1.24.83 2.18.83Z" fill="#616365"/><path d="M4 31.03c.69.68 1.51.97 2.74.97 1.72 0 2.83-.92 2.83-2.35 0-.73-.19-1.26-.58-1.63-.33-.33-.77-.5-1.45-.6l-.94-.15a1.35 1.35 0 0 1-.77-.33.85.85 0 0 1-.25-.65c0-.67.51-1.29 1.3-1.29.49 0 1.1.24 1.6.7l.85-.85a3.23 3.23 0 0 0-2.4-.85c-1.62 0-2.66.92-2.66 2.35 0 .65.18 1.16.54 1.52.34.34.81.54 1.47.64l.94.14c.4.06.58.13.76.3a1 1 0 0 1 .27.73c0 .71-.53 1.32-1.5 1.32-.8 0-1.43-.43-1.88-.86l-.87.89Zm6 .97h1.5v-8H10v8Zm8 0h-1.5v-8H18v3.88l3.07-3.62a.6.6 0 0 1 .9-.1.64.64 0 0 1 .04.93L19.53 28l2.48 2.91.04.04c.22.27.2.67-.07.9a.6.6 0 0 1-.9-.11L18 28.12V32Zm-6 0h4v-1h-2.5v-7H12v8ZM48.17 25.09a.68.68 0 0 1 .02-.93.54.54 0 0 1 .85.1L52 28l-2.96 3.74a.54.54 0 0 1-.84.1.68.68 0 0 1-.02-.93l2.3-2.91-2.3-2.91Z" fill="#F26012"/></svg>