<!-- by TradingView --><svg width="56" height="56" viewBox="0 0 56 56" xmlns="http://www.w3.org/2000/svg"><path fill="#F0F3FA" d="M0 0h56v56H0z"/><path fill-rule="evenodd" d="M27.15 18.94c-.2-.11-.4-.26-.59-.44l-.01-.02L23 15l3.2 3.87a3.2 3.2 0 0 1 .42.66 3.45 3.45 0 0 1-.43 3.6L23 27l3.55-3.48.01-.02c.19-.18.38-.33.6-.44a2.71 2.71 0 0 1 3.28.44l.01.02L34 27l-3.2-3.87-.01-.02a3.45 3.45 0 0 1 .02-4.24L34 15l-3.55 3.48-.01.02c-.19.18-.38.33-.6.44-.83.48-1.85.48-2.69 0Zm.4 1.02c.17.68.17 1.4 0 2.08a3.37 3.37 0 0 1 1.9 0 4.35 4.35 0 0 1 0-2.08c-.62.19-1.28.19-1.9 0Z" fill="#2194CB"/><path fill-rule="evenodd" d="M23.02 19.63c-.15-.08-.3-.18-.43-.3h-.01L20 17l2.32 2.58.02.01a2.12 2.12 0 0 1 0 2.82l-.02.01L20 25l2.58-2.32.01-.02a2.12 2.12 0 0 1 2.82 0l.01.02L28 25l-2.32-2.58-.02-.01a2.12 2.12 0 0 1 0-2.82l.02-.01L28 17l-2.58 2.32-.01.02a2.12 2.12 0 0 1-2.4.29Zm.29.68c.12.45.12.93 0 1.38.45-.12.93-.12 1.38 0a2.66 2.66 0 0 1 0-1.38c-.45.12-.93.12-1.38 0ZM32.02 19.63c-.15-.08-.3-.18-.43-.3h-.01L29 17l2.32 2.58.02.01a2.12 2.12 0 0 1 0 2.82l-.02.01L29 25l2.58-2.32.01-.02a2.12 2.12 0 0 1 2.82 0l.01.02L37 25l-2.32-2.58-.02-.01a2.12 2.12 0 0 1 0-2.82l.02-.01L37 17l-2.58 2.32-.01.02a2.12 2.12 0 0 1-2.4.29Zm.29.68c.12.45.12.93 0 1.38.45-.12.93-.12 1.38 0a2.66 2.66 0 0 1 0-1.38c-.45.12-.93.12-1.38 0Z" fill="#FAAD1E"/><path d="M7.3 29.35a1.22 1.22 0 0 0-1.1-.62c-.67 0-1.2.42-1.2 1.12 0 1.64 3 1.14 3 3.2C8 34.25 6.99 35 5.87 35c-.73 0-1.48-.28-1.87-.92l.62-.56c.26.5.76.75 1.29.75.66 0 1.09-.46 1.09-1.16 0-1.11-3-1.18-3-3.2C4 28.65 5.18 28 6.2 28c.69 0 1.25.2 1.7.78l-.6.57ZM9 28.5a.5.5 0 0 1 .5-.5c.14 0 .26.05.35.15.1.1.15.22.15.35 0 .15-.05.27-.14.36-.1.1-.21.14-.36.14a.49.49 0 0 1-.36-.14.49.49 0 0 1-.14-.36ZM10 30H9v5h1v-5ZM11 28h1v7h-1v-7Z" fill="#2194CB"/><path fill-rule="evenodd" d="M15.5 30a2.46 2.46 0 0 0-2.5 2.5c0 1.39 1.09 2.5 2.5 2.5 1.39 0 2.5-1.08 2.5-2.5S16.92 30 15.5 30Zm0 1c-.9 0-1.5.7-1.5 1.5 0 .82.6 1.5 1.5 1.5s1.5-.69 1.5-1.5c0-.8-.61-1.5-1.5-1.5Z" fill="#2194CB"/><path d="M19 28h2.47c1.37 0 2.53.62 2.53 2.13 0 1.5-1.07 2.18-2.46 2.18H20.5V35H19v-7Zm1.5 3h.94c.54 0 1.04-.27 1.04-.87 0-.7-.71-.82-1.26-.82h-.72V31ZM26.5 28l.02 2.72c.22-.53 1.05-.72 1.56-.72 1.36 0 1.92.85 1.92 2.13V35h-1.5v-2.6c0-.58-.23-1.18-.94-1.18s-1.06.5-1.06 1.15V35H25v-7h1.5ZM33.5 34.28h-.02c-.28.5-.47.72-1 .72-.83 0-1.48-.62-1.48-1.47 0-1.49 1.31-1.53 2.5-1.53 0-.46-.03-1-.5-1-.42 0-.77.2-1.05.57l-.68-.8A2.5 2.5 0 0 1 33.1 30c1.48 0 1.9 1.2 1.9 2.46V35h-1.5v-.72Zm-.32-1.49c-.47 0-.95.06-.95.69 0 .33.3.52.61.52.5 0 .66-.35.66-.9v-.3h-.32ZM50.5 34.28h-.02c-.28.5-.47.72-1 .72-.83 0-1.48-.62-1.48-1.47 0-1.49 1.31-1.53 2.5-1.53 0-.46-.03-1-.5-1-.42 0-.77.2-1.05.57l-.68-.8A2.5 2.5 0 0 1 50.1 30c1.48 0 1.9 1.2 1.9 2.46V35h-1.5v-.72Zm-.32-1.49c-.47 0-.95.06-.95.69 0 .33.3.52.61.52.5 0 .66-.35.66-.9v-.3h-.32ZM36 30h1.5v.9c.15 0 .48-.9 1.06-.9.15 0 .31.01.44.05v1.38a1.6 1.6 0 0 0-1.16.02c-.21.11-.34.99-.34 1.51V35H36v-5ZM40 30h1.45l.01.78c.23-.49.65-.78 1.18-.78.63 0 1.13.28 1.37.87.32-.63.75-.87 1.41-.87 1.2 0 2.08 1.09 2.08 2.12V35H46v-2.84c0-.4-.32-.83-.78-.83-.63 0-.72.54-.72 1.09V35H43v-2.58c0-.43-.23-1.1-.8-1.1-.7 0-.7.68-.7 1.25V35H40v-5Z" fill="#FAAD1E"/></svg>