<!-- by TradingView --><svg xmlns="http://www.w3.org/2000/svg" width="56" height="56"><path fill="url(#aiu2zorz1)" d="M0 0h56v56H0z"/><path d="M30.5 38.27v-7.06l6-3.52 6 3.53v7.06l-6 3.52-6-3.53zM11 26.78v-7.05l6-3.53 6 3.53v7.08l-6 3.5-6-3.53zm13 .03v-7.08l6-3.53 6 3.53v7.05l-6 3.53-6-3.5zM30 15l-6.42 3.83L17 15l-7 4.13v8.26l7 4.12 6.58-3.8 5.92 3.51v7.65l7 4.13 7-4.12v-8.26L37 26.78v-7.65L30 15z" fill="#BEB51B"/><path d="M20 22h-1v5h1v-5zm-3.53.87l-.67-.28c-.48-.2-.73-.46-.73-.8a.75.75 0 01.28-.59 1.16 1.16 0 011.26-.1c.19.14.34.32.44.53l.82-.5A2.01 2.01 0 0016.06 20a2.08 2.08 0 00-1.44.52 1.62 1.62 0 00-.58 1.27c0 .75.46 1.32 1.38 1.7l.65.28a2.9 2.9 0 01.43.23c.11.07.21.16.3.26.07.09.13.19.17.3.04.11.06.24.06.36a1.1 1.1 0 01-.32.8 1.15 1.15 0 01-1.7-.11 1.76 1.76 0 01-.24-.82l-1.02.23c.05.55.3 1.07.7 1.46.4.35.9.54 1.44.52a2.1 2.1 0 002-1.32 2.07 2.07 0 00.16-.83 1.83 1.83 0 00-.38-1.17 2.85 2.85 0 00-1.2-.81M19.5 21a.47.47 0 00.35-.15.48.48 0 00.15-.35.47.47 0 00-.15-.35.5.5 0 10-.7.7.5.5 0 00.35.15zm8.5 6v-4.72L33 27v-7h-1v4.73L27 20v7h1zm4 5h2v6h1v-6h2v-1h-5v1z" fill="#fff"/><path d="M38.13 35.3L36 38h1.36l1.44-1.87L40.2 38h1.33l-2.06-2.7 1.78-2.3h-1.36l-1.09 1.46L37.73 33h-1.32l1.72 2.3z" fill="#fff"/><defs><linearGradient id="aiu2zorz1" x1="10.42" y1="9.71" x2="68.15" y2="76.02" gradientUnits="userSpaceOnUse"><stop stop-color="#1A1E21"/><stop offset="1" stop-color="#06060A"/></linearGradient></defs></svg>