<!-- by TradingView --><svg xmlns="http://www.w3.org/2000/svg" width="56" height="56" viewBox="0 0 56 56"><path fill="#F0F3FA" d="M0 0h56v56H0z"/><path d="M16.35 14A2.37 2.37 0 0 0 14 16.38V42h6.24a7.53 7.53 0 0 1-2.83-1.16l1.24-3.03a8.8 8.8 0 0 0 4.72 1.36c2.02 0 3.85-1.1 3.85-3.15 0-1.39-.9-2.33-2.92-3.44-2.42-1.32-4.25-2.99-4.25-5.54 0-4.06 3.48-6.58 7.7-6.58a9 9 0 0 1 4.66 1.07l-1.18 3.02a7.77 7.77 0 0 0-3.8-.94c-2.29 0-3.6 1.35-3.6 2.77 0 1.45 1.19 2.33 3.14 3.43 2.55 1.36 4.07 3.06 4.07 5.64 0 3.4-2.18 5.74-5.43 6.55h6.76l2.83-15h3.6L36 42h3.65c1.3 0 2.35-1.07 2.35-2.38V14H16.35zm21.27 10.46h-.03c-1.09 0-1.83-.79-1.83-1.95 0-1.3.99-2.2 2.17-2.2 1.15 0 1.92.78 1.92 1.95a2.17 2.17 0 0 1-2.23 2.2z" fill="#BA0C2F"/></svg>