<!-- by TradingView --><svg width="56" height="56" viewBox="0 0 56 56" xmlns="http://www.w3.org/2000/svg"><path fill="#F0F3FA" d="M0 0h56v56H0z"/><path d="M20.43 38.12c-.69 0-1.03-.87-1.09-.9l-4.22-.87c.42 1.13 1.75 3.4 3.64 3.4 5.79 0 16.59-13.33 21.26-19.99-2.2-4.81-5.6-7.18-7.04-7.76-6.54 19.16-11.86 26.12-12.55 26.12Z" fill="url(#acunkpl3c)"/><path d="m20.27 37.1-5.19-1.26c-1.03-1.01-1.59-3.05-1.73-3.95l5.35 3.26c.22.73 1.13 1.6 1.57 1.95Z" fill="url(#bcunkpl3c)"/><path d="m20.81 35.55-8.47-5.03c-.42-1.79-.36-5.14-.28-6.6l6.85 8.45c-.15 1.33 1.2 2.67 1.9 3.18Z" fill="url(#ccunkpl3c)"/><path d="M22.38 34.43c-3.07-5.33-5.74-13.75-6.7-17.29-1.96 3.66-2.27 6.49-2.18 7.45l8.2 10.69.68-.85Z" fill="url(#dcunkpl3c)"/><path d="m30.3 32.58-1.05 1.3c.09-.11 7.38-4.07 12.48-7.63.13-2.27-.61-5-1-6.1A91.42 91.42 0 0 1 30.3 31.9v.69Z" fill="url(#ecunkpl3c)"/><path d="m44 25.76-13.5 8.02c-.35 1.31-1.35 1.66-1.8 1.67 5.2.13 11.46-1.42 13.93-2.21 1.12-1.73 1.38-5.7 1.37-7.48Z" fill="url(#fcunkpl3c)"/><path d="M30.15 36.08c-.7.98-2.17 1.02-2.82.9 1.35.7 5.38 2.22 10.71 2.77 2.66-2.28 3.57-4.62 3.7-5.5-2.4.77-8.73 1.54-11.6 1.83Z" fill="url(#gcunkpl3c)"/><path d="M37.6 40.37c-3.51-.47-7-1.7-8.3-2.25-1.96 1.7-3.95.22-4.7-.73l-.42.54c2.06 2.3 5.35 5.07 8.31 5.07 2.37 0 4.4-1.75 5.11-2.63Z" fill="url(#hcunkpl3c)"/><defs><linearGradient id="acunkpl3c" x1="15.91" y1="39.2" x2="30.16" y2="12.6" gradientUnits="userSpaceOnUse"><stop stop-color="#048DD9"/><stop offset=".11" stop-color="#004297"/><stop offset=".53" stop-color="#2DA5DF"/><stop offset="1" stop-color="#19318D"/></linearGradient><linearGradient id="bcunkpl3c" x1="14.43" y1="33.88" x2="19.1" y2="33.79" gradientUnits="userSpaceOnUse"><stop stop-color="#0392DC"/><stop offset="1" stop-color="#163591"/></linearGradient><linearGradient id="ccunkpl3c" x1="11.28" y1="29.74" x2="19.19" y2="29.74" gradientUnits="userSpaceOnUse"><stop stop-color="#019CE5"/><stop offset="1" stop-color="#143F99"/></linearGradient><linearGradient id="dcunkpl3c" x1="11.68" y1="20.63" x2="21.34" y2="34.37" gradientUnits="userSpaceOnUse"><stop stop-color="#0296E0"/><stop offset="1" stop-color="#182C8A"/></linearGradient><linearGradient id="ecunkpl3c" x1="41.92" y1="24.5" x2="30.25" y2="27.82" gradientUnits="userSpaceOnUse"><stop stop-color="#182C8A"/><stop offset="1" stop-color="#23A6E2"/></linearGradient><linearGradient id="fcunkpl3c" x1="42.55" y1="27.9" x2="30.86" y2="31.61" gradientUnits="userSpaceOnUse"><stop stop-color="#19318D"/><stop offset="1" stop-color="#2DA7E0"/></linearGradient><linearGradient id="gcunkpl3c" x1="28.17" y1="37" x2="41.08" y2="35.91" gradientUnits="userSpaceOnUse"><stop offset=".13" stop-color="#10A2E6"/><stop offset="1" stop-color="#182C8A"/></linearGradient><linearGradient id="hcunkpl3c" x1="24.03" y1="38.79" x2="31.07" y2="35.59" gradientUnits="userSpaceOnUse"><stop offset=".42" stop-color="#153995"/><stop offset="1" stop-color="#019AE3"/></linearGradient></defs></svg>