<!-- by TradingView --><svg xmlns="http://www.w3.org/2000/svg" width="56" height="56" viewBox="0 0 56 56"><path fill="#FCA400" d="M0 0h56v56H0z"/><path fill-rule="evenodd" d="M20.52 40.32c.46.45.98.68 1.5.68s1.03-.23 1.5-.7l1.68-1.64L28 35.9l1.91 1.88 2.58 2.54c.46.45.98.68 1.5.68.51 0 1.03-.23 1.5-.69l1.68-1.65c1.46-1.42 2.9-2.85 4.35-4.28l.67-.66.12-.11c.9-.9 1.84-1.83 2.7-2.82 1.87-2.15 2.68-4.4 2.45-6.88-.15-1.72-.6-3-1.43-4.07-1.7-2.2-4.18-3.12-7.36-2.72a7.15 7.15 0 0 0-3.5 1.58c-.4.3-.78.61-1.17.93l-.38-.32a6.99 6.99 0 0 0-4.55-2.24 8.06 8.06 0 0 0-3.35.25 6.82 6.82 0 0 0-3.5 2.15l-.19.15a16.5 16.5 0 0 0-2.07-1.52 7.54 7.54 0 0 0-5.7-.9 6.73 6.73 0 0 0-5.4 4.95 8.4 8.4 0 0 0 .48 6.08 13.44 13.44 0 0 0 2.82 3.86l5.78 5.69 2.58 2.54zm8.35-20.88a5 5 0 0 1 1.85.7c.46.27.88.57 1.28.88l.25.3c.53.7.82 1.56.93 2.82.16 1.79-.45 3.45-1.88 5.09-.84.96-1.78 1.9-2.7 2.8l-.6.58-2.26-2.23a11.14 11.14 0 0 1-2.35-3.17 6.02 6.02 0 0 1 .43-6l.76-.6a4.99 4.99 0 0 1 2.4-1.13c.7-.09 1.32-.1 1.9-.04zm.8 14.81l.55-.54.12-.11c.9-.9 1.84-1.83 2.7-2.82 1.87-2.14 2.68-4.4 2.45-6.87-.07-.8-.2-1.5-.4-2.13l.16-.14c.44-.35.86-.7 1.3-1.03a4.99 4.99 0 0 1 2.4-1.14c2.4-.3 4.07.28 5.27 1.84.53.7.82 1.56.93 2.82.16 1.79-.45 3.46-1.88 5.09-.84.96-1.78 1.9-2.7 2.8l-.68.67-4.3 4.24-.03.03L34 38.5l-2.47-2.44-1.85-1.82zm-3.33 0l-2.21-2.16a13.44 13.44 0 0 1-2.82-3.86 8.44 8.44 0 0 1-.38-6.42c-.63-.6-1.34-1.15-2.18-1.67a4.94 4.94 0 0 0-2.68-.77c-.43 0-.87.05-1.34.15a4.42 4.42 0 0 0-3.65 3.3 5.98 5.98 0 0 0 .34 4.39c.52 1.1 1.29 2.13 2.35 3.17l3.82 3.76 1.96 1.93 2.47 2.44 1.57-1.55 2.75-2.7z" fill="#fff"/></svg>