<!-- by TradingView --><svg width="56" height="56" viewBox="0 0 56 56" fill="none" xmlns="http://www.w3.org/2000/svg">
<rect width="56" height="56" fill="#F0F3FA"/>
<path fill-rule="evenodd" clip-rule="evenodd" d="M28 44C36.8365 44 44 36.8365 44 28C44 19.1634 36.8365 12 28 12C19.1634 12 12 19.1634 12 28C12 36.8365 19.1634 44 28 44ZM28 38C33.5228 38 38 33.5228 38 28C38 22.4772 33.5228 18 28 18C22.4772 18 18 22.4772 18 28C18 33.5228 22.4772 38 28 38Z" fill="url(#paint0_linear_5071_140142)"/>
<path fill-rule="evenodd" clip-rule="evenodd" d="M44 28C44 36.8366 36.8365 44 28 44C21.6032 44 16.0832 40.2462 13.5227 34.8212C18.1182 39.5189 23.8322 39.0952 27.3504 37.9793C27.5652 37.993 27.7818 38 28 38C33.5228 38 38 33.5229 38 28C38 23.0833 34.4516 18.9953 29.7759 18.1572C36.479 17.3042 40.4817 18.7887 42.2038 20.6272C43.3514 22.8336 44 25.3411 44 28Z" fill="url(#paint1_linear_5071_140142)"/>
<defs>
<linearGradient id="paint0_linear_5071_140142" x1="34.1218" y1="14.0125" x2="28" y2="44" gradientUnits="userSpaceOnUse">
<stop offset="0.0178396" stop-color="#F0B700"/>
<stop offset="0.154715" stop-color="#EF9922"/>
<stop offset="0.327672" stop-color="#FB7737"/>
<stop offset="0.523499" stop-color="#E75F2D"/>
<stop offset="0.702608" stop-color="#F26515"/>
<stop offset="0.876159" stop-color="#FF8230"/>
<stop offset="1" stop-color="#D9D9D9" stop-opacity="0"/>
</linearGradient>
<linearGradient id="paint1_linear_5071_140142" x1="28.7614" y1="17.91" x2="17.633" y2="40.9207" gradientUnits="userSpaceOnUse">
<stop stop-color="#FF7734"/>
<stop offset="0.220112" stop-color="#ED582D"/>
<stop offset="0.546669" stop-color="#EC6140"/>
<stop offset="0.801228" stop-color="#EC822C"/>
<stop offset="1" stop-color="#EBC403"/>
</linearGradient>
</defs>
</svg>
