<!-- by TradingView --><svg width="56" height="56" viewBox="0 0 56 56" xmlns="http://www.w3.org/2000/svg"><path fill="#F0F3FA" d="M0 0h56v56H0z"/><path d="M27 26.59V25h-2.08L21 29.45V21h-3v14h3v-2.35l1.56-1.5 2.9 3.85H29l-4.56-5.52 2.56-2.9Z" fill="#181A43"/><path d="m34.16 21-1.2 3.82L31.68 21H23v2h6.38l1.25 4h1.71l-.66 2H28v2h2.31c2.9 0 3.75-1.27 4.58-3.74L37 21h-2.84ZM42.15 29.08c-1.34 0-1.98-.58-2.15-2.37h6.96c.03-.24.05-.46.04-.71 0-2.65-1.33-5-4.9-5-3.5 0-5.1 2.26-5.1 4.98 0 2.65 1.4 5.02 5.1 5.02 3.4 0 4.61-1.5 4.88-3h-2.69c-.26.7-.9 1.08-2.14 1.08ZM42.13 23c1.4 0 2.1.57 2.2 2H40c.23-1.6.8-2 2.13-2ZM9.8 31.64c.08.9.83 1.36 2.39 1.36 1.39 0 1.81-.34 1.81-1 0-.56-.23-.8-1.4-.94l-2.32-.26c-1.95-.23-3-1.17-3-2.74 0-2.09 1.94-3.06 4.7-3.06 2.8 0 4.83.94 5.02 3h-3c-.1-.77-.73-1.25-2.02-1.25-1.33 0-1.98.45-1.98 1.05 0 .47.38.84 1.42.95l2.18.23c2.47.28 3.4 1.24 3.4 2.9 0 1.84-1.29 3.12-4.86 3.12-3.69 0-5.08-1.58-5.14-3.36h2.8ZM50 21h-2v2h2v-2Z" fill="#181A43"/></svg>