<!-- by TradingView --><svg width="56" height="56" viewBox="0 0 56 56" xmlns="http://www.w3.org/2000/svg"><path fill="#F0F3FA" d="M0 0h56v56H0z"/><path d="M31.77 21S29.03 14.9 13 14c13.66 0 21.03 2.03 26 5.76-4.14-1.52-7.23 1.24-7.23 1.24ZM31.77 36S29.03 42.1 13 43c13.66 0 21.03-2.03 26-5.76-4.14 1.48-7.23-1.24-7.23-1.24ZM37.5 35a6.5 6.5 0 1 0 0-13 6.5 6.5 0 0 0 0 13Z" fill="#4D5D7A"/><path d="M40.5 25.29a.43.43 0 0 1 0-.65c.19-.19.48-.19.68 0A5.44 5.44 0 0 1 43 28.56c0 1.45-.69 2.78-1.76 3.8a.49.49 0 0 1-.68 0 .43.43 0 0 1 0-.65A4.43 4.43 0 0 0 42 28.56a4.6 4.6 0 0 0-1.5-3.27Z" fill="#F0F3FA"/><path d="M39.11 26.4a.46.46 0 0 1-.03-.65c.2-.18.49-.18.68-.03a3.79 3.79 0 0 1 0 5.6.49.49 0 0 1-.68-.04.43.43 0 0 1 .03-.65c.62-.52.88-1.29.88-2.07 0-.76-.23-1.67-.88-2.16Z" fill="#F0F3FA"/><path d="M37.6 27.45a.43.43 0 0 1 0-.65c.2-.18.49-.18.68 0 .5.47.72 1.04.72 1.7 0 .69-.32 1.3-.78 1.82-.16.19-.49.25-.68.06-.2-.15-.27-.46-.07-.64.3-.37.53-.76.53-1.24 0-.43-.08-.74-.4-1.05Z" fill="#F0F3FA"/></svg>