<!-- by TradingView --><svg width="56" height="56" viewBox="0 0 56 56" xmlns="http://www.w3.org/2000/svg"><path fill="#F0F3FA" d="M0 0h56v56H0z"/><path fill-rule="evenodd" d="M28 43a15 15 0 1 0 0-30 15 15 0 0 0 0 30Zm0 2a17 17 0 1 0 0-34 17 17 0 0 0 0 34Z" fill="#132545"/><path fill-rule="evenodd" d="M28 41.5a13.5 13.5 0 1 0 0-27 13.5 13.5 0 0 0 0 27Zm0 .5a14 14 0 1 0 0-28 14 14 0 0 0 0 28Z" fill="#069BD6"/><path d="M17.32 24h.9v1.31h-.57c-.13 0-.22.1-.22.22v1.03c.6.14 1.83.42 1.91.42 1.16.15 1.59.98 1.66 1.38v1.33c0 .72-.59 1.31-1.32 1.31h-.9v-1.35h.51c.12 0 .22-.1.22-.22v-1.07l-1.96-.4c-1.15-.23-1.51-.96-1.55-1.3v-1.35c0-.72.59-1.31 1.32-1.31Zm.9 5.65h-.57a.22.22 0 0 1-.22-.22V29H16v.69c0 .72.59 1.31 1.32 1.31h.9v-1.35Zm1.24-4.34h-.68V24h.9c.73 0 1.32.59 1.32 1.31V26h-1.32v-.47c0-.12-.1-.22-.22-.22ZM22 24h1.47v7H22v-7ZM24 29.65h2v1.33h-2v-1.33Z" fill="#132545"/><path d="M31.22 31h1.43l-3.83-12h-1.2l2.7 9h-1.05l-.34 1.26h1.77l.52 1.74Zm-5.54 4 3.27-10.85.63 2.05-2.54 8.8h-1.36Z" fill="#069BD6"/><path d="M40 24v7h-1.43v-3.55L40 24Zm-6.44.01V31H35v-3.53L33.56 24Zm.46-.01h1.09l1.64 4.1 1.69-4.1h1.1l-2.3 6h-.96l-2.26-6ZM29 32.44c0-.24.19-.44.42-.44h.54c.24 0 .43.2.43.44v.23h-.43v-.23h-.54v1.12h.54v-.26h.43v.26c0 .24-.2.44-.43.44h-.54a.43.43 0 0 1-.42-.44v-1.12ZM31.59 32.44c0-.24.19-.44.42-.44h.54c.23 0 .42.2.42.44v1.12c0 .24-.19.44-.42.44h-.54a.43.43 0 0 1-.42-.44v-1.12Zm.96 0h-.54v1.12h.54v-1.12ZM34 32h.96c.24 0 .43.2.43.46v.42c0 .22-.14.4-.33.46l.41.66h-.5l-.4-.65h-.15V34H34v-2Zm.42.88h.54v-.42h-.54v.42ZM36.58 32h.96c.24 0 .43.2.43.46v.42c0 .22-.14.4-.33.46H37V34h-.42v-2Zm.42.88h.54v-.42H37v.42Z" fill="#132545"/></svg>