<!-- by TradingView --><svg width="56" height="56" viewBox="0 0 56 56" xmlns="http://www.w3.org/2000/svg"><path fill="#F0F3FA" d="M0 0h56v56H0z"/><path d="M28 12c-8.78 0-16 7.22-16 16 0 8.78 7.22 16 16 16 8.78 0 16-7.22 16-16 0-8.78-7.22-16-16-16Zm9.12 27.65a2.19 2.19 0 0 0-3.62 1.7c0 .12.02.25.05.38a14.75 14.75 0 0 1-11.07 0 2.2 2.2 0 0 0-3.26-2.29l-.31.23a14.8 14.8 0 0 1-5.58-9.61 2.2 2.2 0 0 0 .36-3.96l-.36-.16a14.8 14.8 0 0 1 5.55-9.59 2.19 2.19 0 0 0 3.62-1.65v-.02c0-.13-.02-.26-.05-.39a14.75 14.75 0 0 1 11.07 0 2.2 2.2 0 0 0 3.26 2.3l.31-.24a14.8 14.8 0 0 1 5.55 9.6 2.2 2.2 0 0 0-.36 3.95l.37.16a14.8 14.8 0 0 1-5.53 9.59Z" fill="#F63"/><path d="M36 26a2 2 0 1 0 0-4 2 2 0 0 0 0 4ZM36 35a2 2 0 1 0 0-4 2 2 0 0 0 0 4ZM36 29a1 1 0 1 0 0-2 1 1 0 0 0 0 2ZM32 22a1 1 0 1 0 0-2 1 1 0 0 0 0 2ZM40 27a1 1 0 1 0 0-2 1 1 0 0 0 0 2ZM36 38a1 1 0 1 0 0-2 1 1 0 0 0 0 2ZM32 18a1 1 0 1 0 0-2 1 1 0 0 0 0 2ZM28 21a2 2 0 1 0 0-4 2 2 0 0 0 0 4ZM24 22a1 1 0 1 0 0-2 1 1 0 0 0 0 2ZM20 20a1 1 0 1 0 0-2 1 1 0 0 0 0 2ZM20 26a2 2 0 1 0 0-4 2 2 0 0 0 0 4ZM20 29a1 1 0 1 0 0-2 1 1 0 0 0 0 2ZM16 31a1 1 0 1 0 0-2 1 1 0 0 0 0 2ZM24 36a1 1 0 1 0 0-2 1 1 0 0 0 0 2ZM24 40a1 1 0 1 0 0-2 1 1 0 0 0 0 2ZM28 39a2 2 0 1 0 0-4 2 2 0 0 0 0 4ZM32 36a1 1 0 1 0 0-2 1 1 0 0 0 0 2ZM20 35a2 2 0 1 0 0-4 2 2 0 0 0 0 4Z" fill="#F63"/></svg>