<!-- by TradingView --><svg xmlns="http://www.w3.org/2000/svg" width="56" height="56" viewBox="0 0 56 56"><path fill="#F0F3FA" d="M0 0h56v56H0z"/><path d="M34 28a6 6 0 1 1-12 0 6 6 0 0 1 12 0z" fill="#626463"/><path d="M40.35 24.44c-.77 0-2.73-.08-4.2-.8a8.14 8.14 0 0 1-3.61-3.38 9.68 9.68 0 0 1-1.06-4.98l.07-.73a.61.61 0 0 1 .6-.55h9.24a.6.6 0 0 1 .6.61v9.19a.61.61 0 0 1-.58.6l-.78.04h-.28zM23.85 42H14.6a.61.61 0 0 1-.6-.6v-9.18a.61.61 0 0 1 .59-.61l.78-.03h.27c.78 0 2.74.08 4.22.81a8.14 8.14 0 0 1 3.6 3.37 9.62 9.62 0 0 1 1.06 4.97l-.07.73a.61.61 0 0 1-.6.54zM41.38 42H32.2a.6.6 0 0 1-.6-.59l-.04-.77v-.27c0-.77.08-2.74.8-4.23a8.15 8.15 0 0 1 3.37-3.6 9.74 9.74 0 0 1 4.99-1.07l.73.07a.61.61 0 0 1 .55.61v9.23a.61.61 0 0 1-.62.62zM15.82 24.56c-.2 0-.38 0-.54-.02l-.73-.07a.61.61 0 0 1-.55-.61v-9.25a.61.61 0 0 1 .61-.61h9.17a.61.61 0 0 1 .6.59l.04.78v.28c0 .78-.08 2.74-.8 4.22a8.13 8.13 0 0 1-3.37 3.6 9.77 9.77 0 0 1-4.43 1.1z" fill="#3499CD"/></svg>