<!-- by TradingView --><svg width="56" height="56" viewBox="0 0 56 56" xmlns="http://www.w3.org/2000/svg"><path fill="#F0F3FA" d="M0 0h56v56H0z"/><path d="M37 15.2c0-2.6-1.48-5.22-2.23-6.2.43 1.22-.78 4.17-9.01 6.2C15.47 17.75 16 22.22 16 23.44c0 1.22.43 2.95 1.07 3.56 0-1.83 3.5-2.54 10.5-3.97 7-1.42 9.43-4.57 9.43-7.83Z" fill="url(#amsvzr53w)"/><path d="M19 40.8c0 2.6 1.48 5.22 2.23 6.2-.43-1.22.78-4.17 9.01-6.2C40.53 38.25 40 33.78 40 32.56c0-1.22-.43-2.95-1.06-3.56 0 1.83-3.5 2.54-10.5 3.97-7 1.42-9.44 4.57-9.44 7.83Z" fill="url(#bmsvzr53w)"/><path d="M21.9 29.85c-4.08-.9-4.96-2.09-4.9-2.57 0-1.56 5.17-2.84 7.76-3.28A4.29 4.29 0 0 1 27 27.7c0 2.04-.88 3.72-1.33 4.3a9.73 9.73 0 0 0-3.77-2.15Z" fill="url(#cmsvzr53w)"/><path d="M34.1 26.15c4.08.9 4.96 2.09 4.9 2.57 0 1.56-5.17 2.84-7.76 3.28A4.29 4.29 0 0 1 29 28.3c0-2.04.88-3.72 1.33-4.3a9.73 9.73 0 0 0 3.77 2.15Z" fill="url(#dmsvzr53w)"/><defs><linearGradient id="amsvzr53w" x1="34.14" y1="10.32" x2="16.7" y2="27.12" gradientUnits="userSpaceOnUse"><stop stop-color="#65C5EA"/><stop offset="1" stop-color="#03A7E4"/></linearGradient><linearGradient id="bmsvzr53w" x1="21.86" y1="45.68" x2="39.3" y2="28.88" gradientUnits="userSpaceOnUse"><stop stop-color="#C4DD02"/><stop offset=".95" stop-color="#7FBD01"/></linearGradient><linearGradient id="cmsvzr53w" x1="22" y1="24" x2="22" y2="32" gradientUnits="userSpaceOnUse"><stop stop-color="#005E9B"/><stop offset="1" stop-color="#63BDE2"/></linearGradient><linearGradient id="dmsvzr53w" x1="34" y1="32" x2="34" y2="24" gradientUnits="userSpaceOnUse"><stop stop-color="#077140"/><stop offset="1" stop-color="#B3CE12"/></linearGradient></defs></svg>