<!-- by TradingView --><svg width="56" height="56" viewBox="0 0 56 56" xmlns="http://www.w3.org/2000/svg"><path fill="#F0F3FA" d="M0 0h56v56H0z"/><path d="M35.36 28a43.43 43.43 0 0 1 3.6-17.36.43.43 0 0 0 0-.34.5.5 0 0 0-.25-.25.57.57 0 0 0-.37-.03.52.52 0 0 0-.3.2c-1.07 1.65-1.95 2.97-2.63 4.78h-6.34c-.6 0-1.06 1.12-1.06 1.97v.3c0 .87.49 1.73 1.07 1.73h5.26a36.44 36.44 0 0 0-.06 18h-5.21c-.6 0-1.07 1.12-1.07 1.96v.32c0 .87.49 1.72 1.07 1.72h6.27c.7 1.88 1.6 3.07 2.7 4.78.07.1.18.17.3.2s.25.02.37-.03a.5.5 0 0 0 .25-.24.43.43 0 0 0 .01-.34A43.47 43.47 0 0 1 35.37 28Z" fill="#7E8AB2"/><path d="M26.96 26h-4.3c-.29-6.18-2.03-11.57-4.72-15.78a.5.5 0 0 0-.3-.2.54.54 0 0 0-.36.03.49.49 0 0 0-.24.25.44.44 0 0 0 0 .34 44.26 44.26 0 0 1 0 34.7.44.44 0 0 0 0 .33c.05.11.14.2.25.25.11.05.24.06.36.03a.5.5 0 0 0 .29-.2A30.95 30.95 0 0 0 22.66 30h4.3c.57 0 1.04-1.1 1.04-1.95v-.3c0-.87-.47-1.75-1.04-1.75Z" fill="#013B4C"/><path d="M18 17.5a3.5 3.5 0 1 1 7 0 3.5 3.5 0 0 1-7 0ZM30 28.5a3.5 3.5 0 1 1 7 0 3.5 3.5 0 0 1-7 0ZM18 38.5a3.5 3.5 0 1 1 7 0 3.5 3.5 0 0 1-7 0Z" fill="#EA561D"/></svg>