<!-- by TradingView --><svg width="56" height="56" viewBox="0 0 56 56" xmlns="http://www.w3.org/2000/svg"><path fill="url(#ak3xluunj)" d="M0 0h56v56H0z"/><path d="M30.24 23.5a1.25 1.25 0 0 0 1.16-.76 1.26 1.26 0 0 0-2.05-1.36 1.25 1.25 0 0 0-.35.88 1.22 1.22 0 0 0 .76 1.15c.16.06.32.1.48.09Z" fill="#fff"/><path d="M49.8 31.57a1.5 1.5 0 0 1-1.04.43.77.77 0 0 1-.44-.32.8.8 0 0 1-.13-.52c0-.14.03-.28.06-.41l1.15-5.54a.18.18 0 0 0-.09-.2.17.17 0 0 0-.07-.01h-2.08a.2.2 0 0 0-.13.05.21.21 0 0 0-.07.12l-.13.63c-.22-.56-.72-.81-1.39-.8-2.81 0-4.23 3.04-4.35 5.5-.32.65-.96 1.82-1.53 1.82-.57 0-.67-.3-.67-.76 0-1.02.8-3.21.8-4.66.01-1.45-.78-1.9-1.87-1.9-.77 0-1.52.31-1.98.94l.14-.73a.18.18 0 0 0-.03-.14.17.17 0 0 0-.13-.07h-2.05c-.06 0-.1.02-.15.06-.04.04-.06.1-.07.15l-1.08 5.3c-.74 1.12-1.31 1.48-2 1.47a.73.73 0 0 1-.5-.26.76.76 0 0 1-.19-.55l.07-.43 1.14-5.45a.24.24 0 0 0-.04-.2.23.23 0 0 0-.18-.09H28.8a.2.2 0 0 0-.13.05.22.22 0 0 0-.07.13l-1.1 5.05c-.73 1.09-1.34 1.75-2 1.75a.74.74 0 0 1-.5-.27.77.77 0 0 1-.18-.55c.01-.15.03-.3.06-.44l1.9-9.51a.19.19 0 0 0-.04-.17.18.18 0 0 0-.07-.05l-.09-.01-2.06.3a.28.28 0 0 0-.15.08.3.3 0 0 0-.07.16l-1.6 7.98c-1.18 1.84-2.33 2.65-3.65 2.65-.64 0-1.21-.48-1.21-1.45 0-.37.03-.67.03-.68h.28c.24-.03.47-.08.7-.15h.04c.79-.23 1.5-.7 2-1.36.52-.66.82-.9.85-1.74 0-.9-.5-1.77-1.83-1.77-2.7 0-3.97 2.1-4.4 4.25h-.78c-.2-3.63-3.84-4.08-3.84-6.67a1.54 1.54 0 0 1 .4-1.19 1.48 1.48 0 0 1 1.15-.46c.33 0 .64.14.88.37.23.23.37.54.39.88a1.66 1.66 0 0 1-.43 1.25.16.16 0 0 0-.03.13.17.17 0 0 0 .07.11c.19.1.4.14.61.12a1.37 1.37 0 0 0 1.24-.92c.07-.2.1-.4.1-.6 0-1.82-2.09-2.27-2.89-2.27-2.19 0-3.91 1.38-3.92 3.27 0 2.22 2.43 3.37 3.23 5.5-.6-.12-1.2-.2-1.8-.25-.84-.06-1.68.1-2.43.47A2.44 2.44 0 0 0 6 31.04a2.38 2.38 0 0 0 .7 1.9c.92.94 2.23 1.06 3.05 1.06.36.01.73-.01 1.08-.07 1.92-.28 3.6-1.5 3.86-3.76h.66c0 .26-.03.5-.03.71 0 1.8 1.05 3.12 2.64 3.12.88.01 1.74-.43 2.51-.85a5.19 5.19 0 0 0 1.9-1.8v.24c0 1.4.74 2.41 1.82 2.41 1.3 0 2.04-.45 3.16-2.15 0 .25.03.5.12.72.26.7.93 1.43 1.68 1.43.96 0 1.82-.02 2.94-1.6l-.28 1.34a.18.18 0 0 0 .1.2c.02.01.04.06.07.06h2.02c.06 0 .11-.06.16-.1a.26.26 0 0 0 .08-.14l1.1-5.53c.05-.34.16-.67.3-.98.08-.21.2-.4.38-.54.17-.14.38-.22.6-.23.46 0 .66.36.67.91 0 1.17-.77 3.35-.77 4.58a1.92 1.92 0 0 0 .53 1.5c.2.2.42.35.68.44.25.1.52.07.8.04.72 0 1.7-.46 2.63-2.1.06.53.32 1.02.72 1.37.4.35.91.54 1.44.52a3.01 3.01 0 0 0 2.52-1.68c.02.44.2.86.5 1.18.32.3.73.49 1.16.5 1.09.07 2.08-.58 2.49-2.03a.14.14 0 0 0-.06-.13.13.13 0 0 0-.14-.01Zm-29.85-5.45c.29 0 .48.25.48.7-.01.68-.27.76-.7 1.28-.45.5-1.06.85-1.72.95.34-1.8 1.07-2.93 1.94-2.93Zm-9.29 6.42c-.4.15-.85.17-1.27.07a1.28 1.28 0 0 1-.97-1.36c.05-.3.19-.57.39-.79.2-.22.47-.36.75-.42.79-.2 1.6-.2 2.38 0v.13c0 1.17-.5 2.03-1.28 2.36v.01Zm35.93-5.53-.76 3.4c-.21 1.04-.92 1.6-1.42 1.6-.3 0-.84 0-.84-1.43 0-1.7.83-4.43 2.28-4.43a.77.77 0 0 1 .55.27.8.8 0 0 1 .19.59Z" fill="#fff"/><defs><linearGradient id="ak3xluunj" x1="10.42" y1="9.71" x2="68.15" y2="76.02" gradientUnits="userSpaceOnUse"><stop stop-color="#1A1E21"/><stop offset="1" stop-color="#06060A"/></linearGradient></defs></svg>