<!-- by TradingView --><svg width="56" height="56" viewBox="0 0 56 56" xmlns="http://www.w3.org/2000/svg"><path fill="#F0F3FA" d="M0 0h56v56H0z"/><path d="M29.2 37.73c9.64 1.27 18.04-2.04 18.75-7.41.71-5.38-6.52-10.77-16.16-12.05-5.62-.74-10.8.07-14.3 1.94 3.3-1.53 8.15-2.16 13.4-1.46 9.2 1.22 16.15 6.04 15.52 10.76-.62 4.73-8.6 7.57-17.8 6.35-8.83-1.18-15.6-5.67-15.57-10.2v.02c-.71 5.38 6.52 10.77 16.16 12.05Z" fill="url(#aple4livl)"/><path d="M43.45 27.9c-.2-.15-.42-.33-.66-.55-1.75-1.54-2.01-3.32 1.46-6.35-.65 2.27.2 3.76.92 5 .32.56.61 1.06.72 1.56.34 1.6.03 2.97-2.79 4.43 1.86-2.86 1.58-3.09.35-4.08Zm-.36 4.1c0-.62-.5-1.05-1.76-1.6-1.18-.52-2-1.64-.6-4.06-.07 1.95 2.02 2.67 2.02 2.67s1.44.62.34 2.99Z" fill="url(#bple4livl)"/><path d="M22.17 24.63v6.46l.18-.04.2-.03.18-.02h.36l.19.02h.09l.09.01a4.86 4.86 0 0 0 .62.05c.33 0 .66-.05.96-.16a2.25 2.25 0 0 0 1.32-1.23c.13-.28.2-.56.24-.86v-.12a3.12 3.12 0 0 0-.11-1.02 2 2 0 0 0-.44-.79 2.01 2.01 0 0 0-.6-.47c-.24-.13-.5-.19-.75-.19-.27 0-.51.04-.74.12a4.41 4.41 0 0 0-1 .53v-1.5a28.6 28.6 0 0 1 .12-2.3l-.22-.08c-.21.12-.42.24-.64.34-.21.1-.44.19-.68.24v.3h.08c.25 0 .4.05.45.14.06.09.1.29.1.6Zm.8 4.6v-2c.19-.1.38-.19.57-.25.2-.07.4-.1.62-.1h.1a1.6 1.6 0 0 1 1.37 1.09c.1.26.14.53.14.8 0 .5-.14.94-.42 1.33-.28.38-.7.58-1.25.58a1.16 1.16 0 0 1-.92-.47c-.1-.14-.16-.3-.18-.46a3.73 3.73 0 0 1-.03-.51Zm-8.1-4.08h.27v1.42h1.46l-.16.44H15.1V29.74l.05.32c.04.18.12.32.25.41.14.1.3.15.48.15.11 0 .21-.01.31-.03l.3-.1.11.29a3.67 3.67 0 0 1-1.13.3h-.2l-.07-.01c-.14 0-.28-.04-.4-.1a.71.71 0 0 1-.33-.25.93.93 0 0 1-.13-.33 1.91 1.91 0 0 1-.04-.36V27.02h-.63l.08-.31c.27-.18.5-.4.7-.66.2-.26.35-.56.42-.88v-.01Zm6.55 5.27.14.21c-.15.12-.31.22-.49.31-.17.09-.35.13-.55.13-.22 0-.37-.07-.45-.2-.08-.14-.13-.3-.14-.49-.2.2-.4.38-.64.53-.24.14-.5.21-.8.21-.3 0-.57-.1-.77-.3-.2-.2-.3-.46-.3-.76v-.07l.01-.07c0-.1.03-.19.07-.28.04-.09.1-.17.17-.23.1-.09.2-.16.32-.22a3.34 3.34 0 0 1 .54-.21l.16-.07 1.23-.45v-.27a7.29 7.29 0 0 0-.07-.82.86.86 0 0 0-.2-.4.54.54 0 0 0-.43-.18c-.06 0-.12 0-.18.02l-.22.07c-.13.05-.26.12-.38.21-.12.1-.18.2-.18.3l-.03.16a.2.2 0 0 1-.11.17.86.86 0 0 1-.2.1.92.92 0 0 1-.25.04c-.04 0-.07 0-.09-.03a.12.12 0 0 1-.01-.09v-.05a.92.92 0 0 1 .08-.3.7.7 0 0 1 .18-.22.74.74 0 0 1 .08-.07l.1-.06.45-.3a7.02 7.02 0 0 1 .94-.49h.18l.1.01c.15.02.3.06.43.14.15.06.26.16.35.29.13.2.2.4.22.63.03.21.04.44.04.66v.48l-.01.23v.2l-.01.4v.83a1 1 0 0 0 .09.33c.04.1.13.16.25.16.05 0 .09-.01.13-.04l.12-.06h.01l.03-.03h.02l.02-.03h.03l.02-.02v-.01Zm-1.5-1.64-.55.2a.3.3 0 0 1-.07.03 4.73 4.73 0 0 0-.76.38.58.58 0 0 0-.2.25c-.03.1-.05.2-.05.3 0 .18.06.33.18.45.13.13.28.2.46.2.19 0 .35-.05.5-.15.16-.1.3-.22.43-.34l.02-.02.04-.03v-1.27Zm7.68-1.34v-.29a4.25 4.25 0 0 0 1.37-.58l.2.08a38.1 38.1 0 0 1-.07.64l-.03.32V30.01l.04.3c.02.1.05.17.09.2.04.05.08.07.14.09a1.22 1.22 0 0 0 .28.04h.1l.06-.01V31a347.24 347.24 0 0 1-1.1-.04c-.2 0-.4 0-.6.02l-.58.02v-.37h.13l.1.01a.6.6 0 0 0 .12-.01c.05 0 .1 0 .16-.02.05-.02.1-.05.14-.1.04-.03.07-.1.09-.18l.03-.3V28.2c0-.23-.03-.4-.1-.53-.06-.14-.23-.2-.5-.2l-.07-.02Zm1.52-2.87a.52.52 0 0 0-.15-.36.48.48 0 0 0-.38-.17.54.54 0 0 0-.39.17c-.1.1-.16.23-.16.38 0 .14.06.25.16.35a.54.54 0 0 0 .74 0c.12-.1.18-.22.18-.37v.01-.01ZM32.59 31v-.37l-.1.01h-.1a.6.6 0 0 1-.12-.01.6.6 0 0 1-.16-.02.43.43 0 0 1-.14-.1.42.42 0 0 1-.09-.2l-.02-.3v-5.79c.02-.38.05-.75.1-1.12l-.22-.1c-.2.13-.42.25-.64.35-.22.1-.45.19-.7.24l.01.3h.07c.24 0 .4.06.46.18.08.12.12.28.12.49V30.03c0 .1-.02.2-.04.3-.01.09-.04.15-.09.19a.43.43 0 0 1-.14.09.6.6 0 0 1-.16.02.6.6 0 0 1-.22 0h-.09V31a391.62 391.62 0 0 0 1.17-.04c.18 0 .37 0 .55.02l.55.02Zm.83-3.56.01-.29a4.25 4.25 0 0 0 1.36-.58l.21.08a38.1 38.1 0 0 1-.08.64l-.02.32V30.01l.03.3c.02.1.05.17.1.2.03.05.08.07.13.09a1.22 1.22 0 0 0 .29.04h.1l.06-.01V31a342.9 342.9 0 0 1-1.11-.04c-.2 0-.39 0-.59.02l-.58.02v-.37h.12l.1.01a.6.6 0 0 0 .12-.01c.05 0 .1 0 .16-.02.05-.02.1-.05.14-.1.04-.03.07-.1.09-.18l.03-.3V28.2c0-.23-.03-.4-.1-.53-.06-.14-.22-.2-.5-.2l-.07-.02Zm1.52-2.87c0 .15-.06.27-.17.37a.54.54 0 0 1-.74 0 .45.45 0 0 1-.16-.35c0-.15.05-.28.16-.38a.54.54 0 0 1 .39-.17c.15 0 .27.06.37.17.1.1.15.22.15.36Zm0 0v.01Zm-21.99.41-.17-.66a8.88 8.88 0 0 1-.1-.69 6.48 6.48 0 0 0-1.53-.22h-.2c-.36.01-.7.07-1.03.18-.34.1-.63.26-.88.5a1.78 1.78 0 0 0-.42 2.01 2.68 2.68 0 0 0 .9 1 12.68 12.68 0 0 0 .67.39l.12.06a.2.2 0 0 0 .06.04l.06.03a.2.2 0 0 1 .05.03l.05.03a.2.2 0 0 0 .05.03c.03 0 .05.02.07.03.35.2.67.41.95.64.3.24.44.55.44.96 0 .4-.18.74-.53 1-.34.25-.73.38-1.17.38h-.09c-.54-.02-.94-.19-1.2-.5a2.66 2.66 0 0 1-.56-1.1l-.49.1v.04l.01.03v.05l.02.02.11.55a6.6 6.6 0 0 1 .12.81 5.85 5.85 0 0 0 1.98.4c.37 0 .74-.05 1.09-.14.36-.1.67-.25.94-.48.23-.2.41-.42.54-.68.13-.25.2-.52.2-.8 0-.54-.18-.97-.51-1.28-.33-.3-.72-.59-1.17-.85l-.18-.09-.17-.1a3.47 3.47 0 0 1-.23-.12l-.23-.14c-.3-.16-.56-.35-.8-.56a1.05 1.05 0 0 1-.36-.8c0-.38.16-.69.47-.92.31-.24.67-.36 1.08-.36h.12c.42.03.74.16.98.4.25.25.42.54.5.86l.44-.08V25Zm26.44 2.42-.11-.96v.01a5.94 5.94 0 0 0-.9-.2h-.15l-.16-.01c-.46 0-.85.12-1.18.35a1.1 1.1 0 0 0-.49.96c0 .36.13.65.38.87a6.32 6.32 0 0 0 .94.62l.08.04.13.07.13.08c.15.09.29.2.42.32s.2.26.2.43c0 .23-.1.41-.3.55-.18.13-.41.2-.67.2-.38 0-.65-.11-.81-.34a2.27 2.27 0 0 1-.34-.75l-.35.06.17 1.15a4.98 4.98 0 0 0 .99.2l.2.02h.2c.48 0 .9-.11 1.24-.36.36-.25.54-.59.54-1.01 0-.34-.13-.61-.38-.82a4.64 4.64 0 0 0-1.17-.74c-.19-.1-.36-.23-.51-.37a.67.67 0 0 1-.24-.52c0-.2.08-.35.24-.46a.95.95 0 0 1 .57-.18c.27 0 .48.09.64.26.17.16.28.35.35.55v.02h.02l.32-.04Z"/><defs><linearGradient id="aple4livl" x1="46.8" y1="30.6" x2="16.92" y2="24.54" gradientUnits="userSpaceOnUse"><stop stop-color="#0070AF"/><stop offset="1" stop-color="#0070AF" stop-opacity="0"/></linearGradient><linearGradient id="bple4livl" x1="41.79" y1="22.62" x2="44.77" y2="29.94" gradientUnits="userSpaceOnUse"><stop stop-color="#84C440"/><stop offset="1" stop-color="#4EB948"/></linearGradient></defs></svg>