<!-- by TradingView --><svg xmlns="http://www.w3.org/2000/svg" width="56" height="56"><path fill="#F0F3FA" d="M0 0h56v56H0z"/><path d="M31.54 18.9l-.41 2.01c.35.28.71.2.85.1l.37-1.9a2.5 2.5 0 01-.8-.22z" fill="#BCCFEF"/><path d="M32.2 15.79l-.67 3.12c.16.11.61.2.82.22l.66-3.19c-.21-.16-.63-.17-.8-.15z" fill="#2E81C5"/><path d="M31.78 17.76c.08.05.58.14.82.17l-.08.37a2.8 2.8 0 01-.81-.2l.07-.34zm2.5-4.81l-2.18 8.13c.3.33.67.26.82.18l2.2-8.08c-.25-.22-.66-.24-.84-.23z" fill="#9ABA79"/><path d="M33.1 20.6a3.7 3.7 0 01-.81-.25l-.2.74c.1.2.56.31.82.2l.19-.7zm.63-2.42a3.37 3.37 0 01-.77-.25l-.14.51c.07.16.52.4.79.28l.12-.54z" fill="#2E81C5"/><path d="M35.1 18.07l-2.05 3.45c.13.33.56.47.76.5l2.01-3.47c-.09-.39-.52-.48-.73-.48zm1.15.6L34 22.13c.11.33.53.5.73.53l2.25-3.48c-.08-.4-.51-.5-.72-.51z" fill="#9ABA79"/><path d="M35.62 17.13l-.56 1c.12.27.55.43.74.46l.55-.98c-.1-.4-.53-.48-.73-.48zm1.22.65l-.63.95c.1.28.52.46.72.5l.62-.94c-.07-.4-.5-.5-.7-.5z" fill="#BCCFEF"/><path d="M36.24 17.77c-.29-.15-.6-.38-.72-.48l-.17.33c.08.16.55.42.74.42l.15-.27zm1.2.67c-.28-.16-.58-.4-.7-.5l-.19.31c.08.17.54.45.73.46l.16-.27z" fill="#9ABA79"/><path d="M34.81 20.23c-.3-.16-.61-.39-.73-.48l-.27.48c.04.12.5.4.71.51l.3-.5zm.86-1.43a.76.76 0 00-.72-.48l-.28.48c.04.12.5.39.71.5l.3-.5zm.17 2.06c-.3-.18-.6-.41-.71-.5l-.3.46c.04.12.48.4.7.53l.3-.5zm.94-1.41a.74.74 0 00-.7-.51l-.3.46c.04.13.48.41.7.54l.3-.5z" fill="#2E81C5"/><path d="M28.59 8.14V20.9c.39.27.77.11.92 0V8.14c-.35-.25-.76-.1-.92 0zm-4.75 1.01l2.58 12.24a.8.8 0 00.9-.18l-2.6-12.25c-.38-.17-.75.05-.89.19zm-5.22 2.09l5.98 11.32a.8.8 0 00.8-.45l-5.98-11.32c-.42-.06-.71.27-.8.45zm-4.2 3.44L23 24.15a.81.81 0 00.67-.63l-8.58-9.47c-.43.04-.63.44-.67.63zm15.36-6.54V20.9c.39.27.77.11.92 0V8.14c-.35-.25-.76-.1-.92 0zm-4.83.77l2.58 12.25a.8.8 0 00.9-.19L25.84 8.72c-.38-.17-.75.06-.89.2zm-5.33 1.77L25.61 22a.8.8 0 00.8-.45l-5.98-11.32c-.42-.06-.71.27-.8.45zm-4.37 3.21l8.59 9.47a.81.81 0 00.67-.64l-8.59-9.47c-.42.05-.62.45-.67.64zm-1.69 6.54l8.9 4.71c.42-.23.46-.65.42-.83l-8.9-4.7c-.39.19-.44.63-.42.82zm-2.02 4.33l9.72 2.5c.35-.3.3-.7.22-.86l-9.72-2.5c-.33.26-.29.68-.22.86zm-.4 4.67l10.03.19a.76.76 0 00.02-.9l-10.03-.18c-.26.33-.12.73-.02.9zm2.91 9.99l8.23-5.72a.76.76 0 00-.5-.73l-8.23 5.71c-.03.43.32.67.5.74zm-2.27-4.9l9.47-2.83a.71.71 0 00-.25-.82l-9.47 2.83c-.15.38.1.7.25.82zm5 8.58l6.57-7.63a.72.72 0 00-.66-.56l-6.57 7.63c.08.41.47.55.66.57zm4 2.61l4.6-8.85a.69.69 0 00-.74-.4l-4.6 8.85c.16.38.56.42.74.4zm4.06 1.73l2.55-9.5a.76.76 0 00-.86-.22L24 47.23c.25.32.67.28.85.21zm4.92-1.98l-.04-7.12a1 1 0 00-.88.02l.04 7.13c.37.15.73.05.88-.03zm5.29-.97l-2.82-6.5a.99.99 0 00-.8.37l2.82 6.47c.36-.02.7-.21.8-.34zm3.3-1.7l-3.96-5.88a1 1 0 00-.71.52l3.94 5.83c.35-.09.64-.32.73-.47zm1.95-4l-4.06-3.46c-.34.2-.5.54-.55.69l4.07 3.45c.31-.17.5-.52.55-.68zm2.13-3.69l-5.07-1.64c-.24.31-.26.7-.25.84l5.07 1.64c.22-.27.26-.68.25-.84zm-.51-12.02l-4.66 2.5c.06.39.31.67.43.77l4.65-2.48a1.45 1.45 0 00-.42-.79zm-2.13-2.79l-3.96 3.32c.14.36.44.6.57.66l3.96-3.32a1.4 1.4 0 00-.57-.66zm-8.77 25.17l-.04-7.12a1 1 0 00-.88.02l.04 7.13c.34.17.73.05.88-.03zm5.18-1.48l-2.82-6.5a.99.99 0 00-.8.38l2.82 6.47c.37-.01.7-.21.8-.35zm3.19-1.91l-3.96-5.87a1 1 0 00-.71.52l3.94 5.84c.35-.12.65-.34.73-.5zm1.88-4.45l-4.33-3.07a1.3 1.3 0 00-.49.73l4.32 3.06c.29-.2.46-.56.5-.72zm1.46-3.65l-5.06-1.57c-.24.32-.26.7-.24.85l5.06 1.57c.22-.28.25-.68.24-.85zm-1.39-11.99l-4.58 2.64c.07.38.33.66.45.75l4.57-2.62a1.4 1.4 0 00-.44-.77zm-2.44-2.71l-3.8 3.53c.16.36.47.57.6.63l3.8-3.51a1.39 1.39 0 00-.61-.64zm-25.95 2.29l8.87 4.64c.4-.23.44-.65.41-.83l-8.88-4.64c-.37.2-.42.63-.4.83zm-1.41 4.34l9.67 2.46c.34-.3.29-.7.21-.87l-9.67-2.45c-.32.26-.28.69-.21.87zm-.34 4.74l9.98.15a.76.76 0 00.01-.9l-9.97-.14c-.26.33-.11.73-.01.9zm3.82 9.96l7.83-5.98a.79.79 0 00-.51-.74l-7.83 5.98c0 .43.34.68.51.74zm-2.82-4.79l9.42-2.97a.76.76 0 00-.26-.85l-9.42 2.97c-.14.4.12.73.26.85zm5.5 8.14l6.6-7.7a.78.78 0 00-.69-.59L17 43.36c.1.42.5.57.7.59zm4.13 2.37l4.62-8.92a.75.75 0 00-.79-.41l-4.61 8.92c.17.38.6.43.78.41zm4.3 1.54l2.4-9.66a.74.74 0 00-.85-.22l-2.4 9.67c.26.32.67.28.85.21z" fill="#9ABA79"/><path d="M29.5 14.61h-.9v.87c.3.12.71.06.9 0v-.87z" fill="#BCCFEF"/><path d="M25.67 13.42l-.88.18.17.84c.32.05.71-.1.89-.19l-.18-.83z" fill="#2E81C5"/><path d="M21.44 14.6l-.8.45.41.77c.32-.04.66-.3.8-.44l-.4-.78z" fill="#BCCFEF"/><path d="M17.98 17.24l-.66.63.58.65c.3-.13.56-.46.67-.64l-.59-.64z" fill="#2E81C5"/><path d="M30.7 14.61h-.92v.87c.3.12.72.06.92 0v-.87z" fill="#BCCFEF"/><path d="M26.78 13.18l-.88.19.17.83c.32.05.71-.1.89-.18l-.18-.84z" fill="#2E81C5"/><path d="M22.45 14.04l-.8.45.4.77c.33-.04.66-.3.8-.45l-.4-.77z" fill="#BCCFEF"/><path d="M18.82 16.44l-.67.63.59.65c.3-.12.56-.46.67-.63l-.6-.65zm-1.72 4.82l-.4.83.77.4c.24-.22.37-.62.4-.82l-.76-.4zm-2.07 3.48l-.22.86.84.21c.19-.25.23-.66.22-.85l-.84-.22zm-.49 3.86l-.02.9h.86c.13-.28.07-.69.02-.88l-.86-.01zm1.79 8.16l.5.73.42-.3c-.07-.31-.34-.61-.5-.74l-.42.3zm-1.61-4l.25.8.82-.24c.02-.3-.15-.65-.25-.81l-.82.25zm3.4 7.47l.65.56.57-.66a1.44 1.44 0 00-.65-.56l-.57.66zm3.55 1.96l.73.4.17-.33c-.19-.24-.55-.37-.73-.4l-.17.33zm3.23 1.69l.83.2.1-.35a1.5 1.5 0 00-.84-.2l-.1.35zm3.97-.86h.88v.27c-.3.07-.7.04-.89 0v-.27zm4.42-.42l.8-.32.1.24c-.23.19-.61.3-.8.33l-.1-.24zm-.79-1.83l.8-.32.1.24c-.24.18-.62.3-.8.33l-.1-.25zm3.27-.26l.73-.47.15.22c-.2.23-.56.4-.73.48l-.15-.23z" fill="#2E81C5"/><path d="M37.42 37.47l.57-.65.34.3c-.08.3-.4.56-.57.65l-.34-.3z" fill="#BCCFEF"/><path d="M40.46 35.38l.3-.83.42.15c.04.32-.16.67-.29.83l-.43-.15zm1.27-11.19l-.39-.8.6-.32c.33.17.4.59.4.8l-.6.32zM39.1 22l-.54-.69.35-.29c.29.15.48.5.54.7l-.35.28z" fill="#2E81C5"/><path d="M39.51 21.66l-.53-.7.85-.71c.44 0 .56.43.55.68l-.87.73z" fill="#BCCFEF"/><path d="M30.13 43.02H31v.27c-.3.07-.7.04-.88 0v-.27zm4.31-.92l.8-.32.1.24c-.23.19-.61.3-.8.33l-.1-.24zm-.8-1.84l.8-.32.1.24c-.23.19-.61.3-.8.33l-.1-.25zm3.16-.46l.74-.47.14.22c-.2.23-.55.4-.73.47l-.15-.22z" fill="#2E81C5"/><path d="M38.35 36.62l.52-.7.38.27c-.06.32-.36.6-.53.7l-.37-.27z" fill="#BCCFEF"/><path d="M40.87 34.31l.28-.83.44.14c.04.32-.16.68-.28.84l-.44-.15zm.43-11.28l-.42-.78.5-.28c.29.17.4.58.4.79l-.49.27zm-2.97-2.04l-.57-.67.34-.3c.28.1.51.48.57.65l-.34.32z" fill="#2E81C5"/><path d="M38.75 20.6l-.57-.68.76-.69c.44 0 .57.42.58.67l-.77.7zm-9.87 23.54h.87v.26c-.3.08-.69.05-.87 0v-.26zm4.85-.51l.8-.33.1.24c-.23.19-.61.3-.8.33l-.1-.24zm3.17-1.45l.73-.48.15.22c-.2.23-.57.4-.74.48l-.15-.22zm-6.76 1.96H31v.26c-.3.08-.69.05-.87 0v-.26zm4.74-1.02l.8-.33.1.25c-.23.18-.61.29-.8.32l-.1-.24zm3.04-1.65l.75-.48.14.22c-.2.23-.56.41-.74.48l-.15-.22zM28.88 45h.87v.48c-.29.13-.65.1-.87.01V45zm5.19-.58l.81-.33.18.41c-.22.24-.61.32-.81.33l-.18-.41z" fill="#BCCFEF"/><path d="M37.4 42.92l.73-.47.23.35c-.17.27-.54.43-.73.47l-.23-.35zm2.05-3.72l.57-.66.32.28c-.1.3-.4.55-.58.65l-.31-.28z" fill="#2E81C5"/><path d="M30.15 45h.87v.5c-.3.14-.69.08-.87 0V45zm5.09-1.05l.8-.33.17.4c-.22.22-.6.3-.8.32l-.17-.39z" fill="#BCCFEF"/><path d="M38.42 42.2l.74-.48.24.37c-.17.27-.55.43-.74.47l-.24-.36zm2-4.11l.52-.7.35.25c-.06.31-.36.6-.52.7l-.35-.25zm-20.15-.36l.66.56.56-.66a1.45 1.45 0 00-.65-.56l-.57.66zm2.93 1.47l.74.4.22-.4a1.4 1.4 0 00-.74-.4l-.22.4zm2.55 1.48l.83.2.13-.43a1.49 1.49 0 00-.84-.2l-.12.43zm-9.28-18.31l-.4.82.77.4c.24-.22.36-.62.4-.83l-.77-.4zm-1.44 3.51l-.21.86.83.2c.18-.25.22-.65.21-.85l-.83-.21zm-.49 3.92v.88l.85.01c.12-.29.07-.68.01-.87l-.86-.01zm2.62 8.02l.51.74.41-.29a1.59 1.59 0 00-.5-.74l-.42.3zm-2.08-3.85l.26.85.81-.26c.03-.31-.15-.68-.26-.85l-.8.26zm3.88 7.11l.7.58.57-.67c-.16-.28-.51-.5-.7-.58l-.57.67zm3.7 1.7l.78.4.16-.28c-.2-.24-.59-.37-.78-.41l-.16.3zm3.44 1.48l.86.21.09-.31a1.51 1.51 0 00-.85-.22l-.1.32zm-4.98-5.7l.7.58.57-.66a1.6 1.6 0 00-.7-.58l-.57.66zm3.1 1.21l.78.41.21-.4c-.2-.25-.58-.38-.77-.41l-.22.4zm2.7 1.23l.84.22.12-.45a1.5 1.5 0 00-.84-.21l-.12.44zm2.58-22.3h-.91v.87c.3.12.72.06.91 0v-.87zm-2.63.4l-.89.2.18.83c.32.05.7-.1.88-.19l-.17-.84zm-2.49 1.07l-.8.44.4.78c.32-.05.66-.3.8-.45l-.4-.77zM22.2 21.9l-.67.63.58.64c.3-.12.57-.45.67-.63l-.59-.65zm8.5-3.2h-.92v.87c.3.12.72.06.91 0v-.87zm-2.72.17l-.89.19.18.83c.32.05.7-.1.88-.19l-.17-.83zm-2.6.73l-.8.45.4.78c.33-.05.67-.3.81-.45l-.4-.77zm-2.35 1.5l-.67.63.59.65c.3-.13.56-.46.67-.63l-.59-.65z" fill="#2E81C5"/><path d="M16.77 36.44l1.37-.95.53.71-1.38.96a2.68 2.68 0 00-.52-.72zm.83 1.06l1.32-1 .54.7-1.32 1.02a2.72 2.72 0 00-.53-.73z" fill="#BCCFEF"/><path d="M25.41 28.23c.2-.16.45-.24.73-.23.46 0 .83.29.96.43l-.36.34a1 1 0 00-.61-.28.58.58 0 00-.4.12.3.3 0 00-.1.26c0 .06.05.15.2.24.15.08.32.14.43.16.14.03.36.08.55.2.2.14.36.37.36.7 0 .35-.21.56-.42.67-.2.1-.4.13-.49.15a1 1 0 01-.28 0c-.1-.02-.21-.04-.33-.08-.22-.07-.5-.2-.65-.43l.41-.28c.07.1.21.18.4.24a1.46 1.46 0 00.36.06c.1-.02.23-.04.34-.1.1-.05.16-.12.16-.23a.3.3 0 00-.15-.28 1 1 0 00-.36-.13c-.15-.03-.38-.1-.58-.23-.2-.11-.43-.31-.45-.63a.8.8 0 01.28-.67z" fill="#2E81C5"/><path fill-rule="evenodd" d="M29.24 30.5a1 1 0 001-1 1 1 0 00-1-1 1 1 0 00-.99 1 1 1 0 001 1zm0 .5a1.5 1.5 0 001.5-1.5 1.5 1.5 0 00-2.98 0c0 .83.66 1.5 1.48 1.5zm11.89-.5a1 1 0 00.99-1 1 1 0 00-.99-1 1 1 0 00-.99 1 1 1 0 001 1zm0 .5a1.5 1.5 0 001.49-1.5c0-.83-.67-1.5-1.49-1.5a1.5 1.5 0 00-1.49 1.5c0 .83.67 1.5 1.5 1.5z" fill="#2E81C5"/><path d="M31.32 28h.5v2.5h1.4v.5h-1.9v-3zm2.43 0h2.1v.5h-1.6v.75h1.38v.5h-1.38v.75h1.6v.5h-2.1v-3zm2.75 0h.5l1.51 2.05V28h.5v3h-.43L37 28.9V31h-.5v-3z" fill="#2E81C5"/></svg>