<!-- by TradingView --><svg width="56" height="56" viewBox="0 0 56 56" xmlns="http://www.w3.org/2000/svg"><path fill="#F0F3FA" d="M0 0h56v56H0z"/><path d="M28.02 13A15.17 15.17 0 0 0 13 27.98 15 15 0 1 0 43 28c0-8.17-6.8-15-14.98-15Zm4.18 28.49c-.16.04-.34.07-.52.07-1.4 0-2.68-1.13-2.68-2.55v-5.24c0-2.32 3.08-4.4 3.96-4.91.05-.03.02-.1-.02-.1-1.8.16-3.09.89-3.43 1.09-.02.02-.07 0-.07-.05.07-.24.25-.97.59-1.64a.05.05 0 0 0-.07-.07c-.9.54-1.58 1.3-1.76 1.51-.02.02-.04.02-.06 0a8.77 8.77 0 0 0-1.67-2.64c-.05-.02-.1 0-.1.05.19.8.41 2.19.34 3.13 0 .03-.02.05-.06.03-.34-.2-2.2-1.25-3.59-1.47-.04 0-.09.07-.04.09.74.54 3.98 2.73 3.98 4.98v5.24c0 1.4-1.3 2.6-2.72 2.6-.18 0-.36-.03-.52-.08A14.29 14.29 0 0 1 14 27.98a14 14 0 0 1 28 0c0 6.34-4.05 11.7-9.8 13.5Z" fill="#151B22"/><path d="M40.03 15.97a17 17 0 0 0-29.03 12c0 9.39 7.62 17 17 17.03a17.01 17.01 0 0 0 12.03-29.03ZM28 44c-8.9 0-16-7.1-16-16 0-8.88 7.12-16 16-16 8.88 0 16 7.1 16 16 0 8.88-7.12 16-16 16Z" fill="#151B22"/><path d="M34.91 23.05c0-.02-.03-.02-.05-.04-.24-.02-1.6-.1-2.87 1.24-1.28 1.34-.97 2.49-.92 2.7 0 .02.03.02.05.04.24.03 1.62.07 2.88-1.24 1.3-1.31.99-2.49.91-2.7ZM28.32 22.05c-.71 1.7-.03 2.76.1 2.93l.05.02c.23-.05 1.5-.36 2.21-2.05.71-1.67.03-2.76-.1-2.93l-.05-.02c-.23.05-1.5.39-2.21 2.05ZM37.03 28.4c-1.69-.79-2.8-.18-3-.08-.03 0-.03.02-.03.05.02.22.3 1.46 1.97 2.24 1.69.78 2.8.17 3 .07.03 0 .03-.02.03-.05-.02-.24-.27-1.48-1.97-2.24ZM23.08 19.03c-.02 0-.04.02-.04.03-.05.17-.23 1.12 1.08 2.1s2.57.85 2.8.81c.02 0 .04-.02.04-.03.05-.17.23-1.12-1.08-2.1a3.83 3.83 0 0 0-2.8-.81ZM22.1 23c-.02 0-.04.03-.04.05-.06.21-.27 1.36.69 2.7.96 1.33 1.97 1.26 2.15 1.24.02 0 .04-.02.04-.04.06-.21.27-1.36-.69-2.7-.94-1.33-1.95-1.26-2.15-1.24ZM18.97 28.4c-1.7.77-1.95 2.01-1.97 2.23 0 .02 0 .05.02.05.2.12 1.32.7 3.01-.08 1.7-.77 1.95-1.99 1.97-2.23 0-.02 0-.05-.02-.05-.2-.12-1.35-.7-3.01.08Z" fill="#151B22"/></svg>