<!-- by TradingView --><svg xmlns="http://www.w3.org/2000/svg" width="56" height="56" viewBox="0 0 56 56"><path fill="#E86931" d="M0 0h56v56H0z"/><path d="M17.26 26c-1.54 0-3.07-.7-3.96-1.97L10 29.31c2 1.1 4.18 1.69 6.47 1.69 3.92 0 8.3-2.23 9.4-6.62.13-.58.13-1.1.13-1.57 0-2.07-1.33-3.14-3.48-3.65l-.5-.1c-.83-.14-2.02-.35-2.02-1.15 0-.76 1.1-.91 1.67-.91 1.3.03 2.53.46 3.49 1.33L28 13.69A8.86 8.86 0 0 0 22.77 12c-4.2 0-9.77 2.38-9.77 7.97 0 2.15 1.63 3.33 3.75 3.73l1.26.24.09.02c.45.1.9.18.9.68.01.93-.91 1.36-1.74 1.36Zm16.8-3h-6.17L21 41h5.88l2.92-9v9h3.55s4.87-8.4 5.15-9l-1.4 9h5.88L45 23h-6.1l-5.05 9.55.2-9.55Z" fill="#FEFEFE"/></svg>