<!-- by TradingView --><svg width="56" height="56" viewBox="0 0 56 56" xmlns="http://www.w3.org/2000/svg"><path fill="#F0F3FA" d="M0 0h56v56H0z"/><path d="M30 23v-2.9l-4-2.14v5.65a3.17 3.17 0 0 0 1.64 2.73c1.64.78 3.66 1.9 3.66 1.9C33.35 29.38 33 29.82 33 31v9.86A1.16 1.16 0 0 1 31.85 42h-7.7A1.13 1.13 0 0 1 23 40.86V35l-4-2v8.25c0 1.26.5 2.47 1.4 3.36.9.89 2.12 1.39 3.4 1.39h8.4c1.28 0 2.5-.5 3.4-1.4.9-.88 1.4-2.09 1.4-3.35V29.76c0-3.7-4.43-5.04-7-6.76Z" fill="#3A6178"/><path d="M32.2 10h-8.4c-1.28 0-2.5.5-3.4 1.4-.9.88-1.4 2.09-1.4 3.35v14.13s3.87 2.1 7 3.62v3.3l4 2.11v-7.58l-7-3.67V15.14A1.16 1.16 0 0 1 24.15 14h7.7A1.13 1.13 0 0 1 33 15.14v5.88l4 1.72v-8c0-1.25-.5-2.46-1.4-3.35A4.83 4.83 0 0 0 32.2 10Z" fill="#74B22E"/></svg>