<!-- by TradingView --><svg width="56" height="56" viewBox="0 0 56 56" xmlns="http://www.w3.org/2000/svg"><path fill="#F0F3FA" d="M0 0h56v56H0z"/><path d="M27.34 47.72c-5.65-4.01-9.67-9.92-12.08-16.22a48.97 48.97 0 0 1-2.45-8.84c-.45-2.5-.77-5-.81-7.47-.01-.6.3-.9.91-.9a35.65 35.65 0 0 0 14.88-3.25c.25-.11.5.03.74.14 1.8.83 3.65 1.5 5.57 1.98a36.4 36.4 0 0 0 7.87 1.1l1.15.06c.5.04.87.22.88.75a51.48 51.48 0 0 1-2.9 15.46 40.18 40.18 0 0 1-4.55 9.02 32.24 32.24 0 0 1-8 8.26c-.44.3-.78.22-1.21-.09Z" fill="url(#a1gam3r1z)"/><path d="M28.07 12.63a35.97 35.97 0 0 0 14.3 3.17c.04 0 .06.02.06.06 0 .33-.02.74-.06 1.22-.6 7.26-2.66 14.63-6.54 20.77a31.46 31.46 0 0 1-7.74 8.41.14.14 0 0 1-.18 0c-.3-.24-.66-.49-.94-.72a32.5 32.5 0 0 1-7.9-9.55 47.52 47.52 0 0 1-5.52-20.12c0-.03.02-.05.05-.05.75-.03 1.49-.07 2.22-.13 4.24-.32 8.3-1.34 12.16-3.06a.1.1 0 0 1 .1 0Z"/><path d="M22.42 22.84c.86 2 2.84 2.45 4.85 2.27a.05.05 0 0 1 .05.02.05.05 0 0 1 0 .06c-.34.42-.34.85-.01 1.29a.06.06 0 0 1 0 .06.06.06 0 0 1-.05.03c-2.87-.05-6.74-.36-7.37-3.82-.28-1.57-.51-3.07-1.78-4.14a3.36 3.36 0 0 0-2.3-.82c-.27 0-.3-.07-.07-.23 1.63-1.13 3.58-.36 4.67 1.04.02.03.05.04.08.05h.1c1.05-.43 2.3-.67 3.33-.13a2.6 2.6 0 0 1 1.34 1.95l-.02.02a.06.06 0 0 1-.07-.01c-.19-.22-.4-.4-.64-.55-.8-.49-1.84-.32-2.26.5-.38.76-.18 1.64.15 2.4ZM33.57 22.91c.39-.86.6-2-.04-2.76-.76-.92-2-.45-2.7.31 0 .01 0 .02-.02.02h-.03l-.02-.02v-.03c0-.05 0-.1.02-.17.68-2.3 2.7-2.37 4.62-1.63a.16.16 0 0 0 .18-.04c1.16-1.36 3.19-2.23 4.8-.96l.01.03a.06.06 0 0 1-.02.06l-.03.02c-2.98.29-3.64 1.97-4.15 4.54a8.42 8.42 0 0 1-.34 1.31c-1.14 2.76-4.55 2.92-7.12 2.98h-.01l-.02-.01a.03.03 0 0 1 0-.03c.23-.5.44-.9-.03-1.34a.05.05 0 0 1-.01-.05s0-.02.02-.02h.03c2 .15 3.95-.22 4.86-2.2Z" fill="#5091CC"/><path fill-rule="evenodd" d="M30.4 23.8c.42.16.8.38 1.15.66.05.03.05.06-.01.08l-.64.18a.16.16 0 0 1-.14-.02l-.65-.5a.16.16 0 0 0-.2 0c-1.28.95-2.56.95-3.84 0-.06-.04-.11-.04-.17 0l-.61.47a.28.28 0 0 1-.25.04l-.53-.15c-.1-.03-.1-.07-.03-.13.33-.25.68-.46 1.07-.61.07-.03.08-.08.04-.14-.81-1.35-.63-2.94.63-3.91 1-.77 2.7-.76 3.7.12a2.89 2.89 0 0 1 .45 3.85.05.05 0 0 0 .02.05l.02.01Zm.1-1.76c0 .65-.27 1.28-.73 1.73a2.53 2.53 0 0 1-3.54 0 2.42 2.42 0 0 1 0-3.46 2.53 2.53 0 0 1 3.54 0c.46.46.73 1.08.73 1.73Zm-.22.01A2.25 2.25 0 0 1 28 24.27c-1.25 0-2.27-1-2.27-2.22A2.25 2.25 0 0 1 28 19.83c1.25 0 2.27 1 2.27 2.22Z" fill="#5091CC"/><path d="M23.54 27.31c-.56.28-1.03.4-1.57.84a.1.1 0 0 1-.1.01l-.29-.13a.07.07 0 0 1-.04-.04.07.07 0 0 1 0-.05c.3-.6.67-1.16 1.1-1.68.01-.02.04-.03.07-.02l1.09.32a.06.06 0 0 1 .03.03.05.05 0 0 1 0 .04l-.22.6a.14.14 0 0 1-.07.08ZM33.88 28.22c-.15-.53-1-.7-1.44-.92a.12.12 0 0 1-.07-.07l-.2-.57a.09.09 0 0 1 .04-.1.1.1 0 0 1 .03-.01l1.06-.3c.04-.02.07 0 .09.02.4.52.76 1.07 1.05 1.65a.1.1 0 0 1-.04.14l-.37.22c-.08.05-.13.03-.15-.06Z" fill="#5091CC"/><path d="M29.49 26.8a9.86 9.86 0 0 1 3.7.98.07.07 0 0 1-.02.1c-.59.38-1.2.64-1.9.82-2.36.6-4.7.53-7-.23-.56-.19-1.08-.32-1.61-.5a.06.06 0 0 1-.04-.04.06.06 0 0 1 .03-.06 9.99 9.99 0 0 1 4.59-1.08c.03 0 .05.01.05.05.02.78-.17 1.53.66 2.05a.1.1 0 0 0 .1 0c.82-.5.65-1.25.65-2.05 0-.03.01-.05.04-.05l.75.01Z" fill="#5091CC"/><path d="M25.45 28.97c2.2.42 4.49.33 6.64-.33.5-.15.97-.35 1.41-.6.05-.03.07-.02.09.03l.1.28a.07.07 0 0 1-.04.08 13.62 13.62 0 0 1-11.54-.1.08.08 0 0 1-.01-.08l.02-.03.21-.16a.22.22 0 0 1 .23-.02c1.17.48 2.14.79 2.9.93ZM21.17 28.75c0-.13.14-.45.22-.56.02-.03.04-.03.07-.02l.47.3a.09.09 0 0 1 .04.08l-.18 1.36a.03.03 0 0 1-.03.03h-.01l-.02-.02a7.07 7.07 0 0 0-.43-.77.7.7 0 0 1-.13-.4ZM34.06 28.48l.54-.32a.03.03 0 0 1 .03 0 .03.03 0 0 1 .02.01l.25.66a.03.03 0 0 1 0 .03l-.62 1.02-.02.02h-.02l-.01-.01-.01-.02-.18-1.36v-.02l.02-.01Z" fill="#5091CC"/><path d="M23.45 30.71c.4-.85-.39-1.48-1.05-1.84h-.01v-.02a.03.03 0 0 1 0-.02v-.02h.01a13.07 13.07 0 0 0 11.1 0l.04.02.01.03a.03.03 0 0 1 0 .03c-.55.35-.92.75-1.1 1.21-.06.16-.02.36.1.6a.04.04 0 0 1 0 .03.04.04 0 0 1-.03.02c-1.46-.16-3.16.08-3.9 1.5-.01.03-.04.05-.08.04-.4-.07-.52-.26-.92-.02a.15.15 0 0 1-.1.02.15.15 0 0 1-.1-.07c-.8-1.3-2.47-1.73-3.94-1.47-.03 0-.04 0-.03-.04Z" fill="#5091CC"/><path d="M33.06 31.2c-.2-.37-.48-.77-.36-1.2.12-.4.7-.79 1.07-.95a.1.1 0 0 1 .09 0 .1.1 0 0 1 .05.07c.19 1.4.05 2.82-.08 4.24a.02.02 0 0 1-.01.02h-.02v-.02a6.74 6.74 0 0 0-.74-2.16ZM23.1 30.9a6.44 6.44 0 0 0-.9 2.53h-.01a.03.03 0 0 1-.02-.02c-.14-1.41-.27-2.88-.08-4.3.01-.06.05-.09.12-.06.46.2 1.18.65 1.14 1.22-.01.12-.1.33-.25.62ZM23.63 32.28l-.77-.04h-.02v-.04c0-.02 0-.03.02-.02.76.05.86-.45 1.43-.72 1-.47 1.56.52 2.18 1.03a.13.13 0 0 1 .05.14.13.13 0 0 1-.13.1c-.3.01-.6.06-.9.13-.61.13-1.45.06-1.8-.54a.09.09 0 0 0-.06-.04ZM32.56 32.1c.18.05.37.08.55.1v.03h-.02l-.67.06a.15.15 0 0 0-.1.06c-.26.3-.57.48-.93.55-.18.03-.48.01-.9-.06-.3-.05-.61-.1-.92-.12a.13.13 0 0 1-.07-.03.13.13 0 0 1-.03-.15.13.13 0 0 1 .06-.06c.1-.05.2-.13.28-.23.3-.45.89-.92 1.46-.91.46.01.92.4 1.2.71.03.03.06.05.1.05ZM28.51 32.76a.84.84 0 0 1 .6-.27c.07 0 .12.03.15.1l.05.12c.03.07 0 .1-.08.1-.86-.1-.83 1.05-.53 1.55.01.02.02.05.01.08-.07.49-.36.7-.87.6-.33-.04-.51-.24-.55-.58 0-.04 0-.06.02-.09.2-.27.25-.59.18-.93-.1-.45-.32-.65-.68-.62-.08 0-.12-.03-.1-.1v-.06c0-.03.02-.06.04-.09a.17.17 0 0 1 .1-.05c.3-.05.47.1.7.24.04.02.07.01.08-.04l.1-.35c0-.03.03-.06.06-.08a.4.4 0 0 1 .4-.03l.03.03.18.45c.03.06.06.07.11.02ZM24.66 33.52c.7.1 1.09-.3 1.64-.5a.09.09 0 0 1 .11.03.08.08 0 0 1-.02.11l-2.83 2.11a.08.08 0 0 1-.08.01c-.28-.12-.5-.26-.65-.41-.12-.12-.06-.27-.02-.42.12-.45.56-1.16 1.09-1.21.3-.03.47.24.76.28ZM31.32 33.51c.35-.02.53-.34.9-.25.52.13.95.98 1.06 1.41a.19.19 0 0 1-.06.2c-.19.15-.73.5-.97.3-.58-.49-1.2-.95-1.82-1.38-.3-.2-.55-.42-.81-.64a.08.08 0 0 1-.02-.1c0-.01.02-.03.04-.03h.05c.3.1.57.32.85.4.25.09.51.12.78.1ZM31.7 39.53c.35-1.27.75-3.08-.34-4.11-.3-.28-.77-.52-1.14-.8-.29-.23-.47-.56-.76-.8-.06-.06-.07-.12-.03-.2l.07-.12c.04-.08.1-.08.16-.02.4.37.74.72 1.21 1.03.48.3 1.42.86 1.51 1.38.25 1.27.1 2.45-.42 3.53-.03.08-.11.13-.22.16a.04.04 0 0 1-.04-.02.04.04 0 0 1 0-.03ZM24.63 35.43c-1.04.96-.66 2.96-.32 4.12a.04.04 0 0 1-.02.04l-.02.01h-.02c-.8-.68-.72-2.3-.7-3.21.02-.77.46-1.19 1.1-1.56.6-.36 1.13-.78 1.61-1.28.06-.06.12-.1.17-.08.07 0 .13.07.16.18.03.1 0 .18-.1.23a.7.7 0 0 0-.28.24c-.4.65-1.09.87-1.58 1.31Z" fill="#5091CC"/><path d="M26.75 35.35v.14c0 .03-.02.05-.05.04-.66-.08-.47-1.21-.05-1.26.3-.04.4.3.5.51.18.35.83.56.6.96-.03.08-.1.11-.16.1l-.04-.01a.07.07 0 0 1-.03-.07l.01-.03.1-.13a.08.08 0 0 0 0-.1.8.8 0 0 0-.83-.22.07.07 0 0 0-.04.02.07.07 0 0 0-.01.05ZM29.22 35.3c-.26-.1-1.12-.02-.73.47v.02a.05.05 0 0 1-.01.04l-.03.01c-.29 0-.38-.42-.1-.57.34-.18.56-.45.67-.8a.26.26 0 0 1 .19-.18c.59-.15.5.69.44 1.06a.1.1 0 0 1-.05.07l-.28.13h-.03l-.02-.01V35.37l-.01-.05a.08.08 0 0 0-.04-.03ZM23.35 37.86a.01.01 0 0 1-.01.01h-.05l-.05-.01a14.72 14.72 0 0 1-.6-2.57.04.04 0 0 1 .04 0l.72.45c.02 0 .03.03.02.05-.1.69-.12 1.38-.07 2.07ZM32.59 35.74l.76-.47h.02v.01c-.08.8-.25 1.56-.5 2.31-.17.48-.23.47-.2-.04a7.35 7.35 0 0 0-.08-1.81ZM30.49 37.1c.1.2.14.38.15.55 0 .04-.01.06-.04.08a.55.55 0 0 1-.35.06c-1.49-.26-3.01-.26-4.57 0a.46.46 0 0 1-.34-.07.1.1 0 0 1-.04-.09c.03-.48.26-1.03.88-.93 1.2.19 2.4.19 3.6 0 .33-.05.57.08.71.4ZM27.38 38.53c.79-.12 1.85-.03 2.37.66.01.01.02.03.01.04l-.01.05c-.13.15-.3.26-.5.34-1 .37-1.95.31-2.88-.17a.22.22 0 0 1-.1-.14.21.21 0 0 1 .03-.18 1.7 1.7 0 0 1 1.08-.6Z" fill="#5091CC"/><defs><linearGradient id="a1gam3r1z" x1="12" y1="13.76" x2="30.84" y2="45.43" gradientUnits="userSpaceOnUse"><stop stop-color="#808185"/><stop offset=".28" stop-color="#E4E5E7"/><stop offset=".48" stop-color="#828387"/><stop offset=".75" stop-color="#E3E4E6"/><stop offset="1" stop-color="#848589"/></linearGradient></defs></svg>