<!-- by TradingView --><svg xmlns="http://www.w3.org/2000/svg" width="56" height="56" viewBox="0 0 56 56"><path fill="url(#aj5ap0ivp)" d="M0 0h56v56H0z"/><path d="M17.5 18.5H17c-.74-2.28-1.06-3.2-2.43-3.2-1.36 0-2.07.61-2.07 1.61 0 1.08 1.1 1.5 2.3 1.96 1.5.57 3.2 1.21 3.2 3.3 0 2.34-1.4 3.83-3.85 3.83A5.83 5.83 0 0 1 11 25v-3h.55c.49 2.84 1.17 3.7 2.93 3.7.99 0 2.02-.7 2.02-1.88 0-1.13-1.1-1.57-2.31-2.05-1.5-.6-3.19-1.27-3.19-3.43 0-1.9 1.34-3.34 3.55-3.34.96 0 2.07.2 2.95.59v2.91Zm1-.2h.5v7.4h-.5v.3H20v-.3h-.7v-7.19L21.61 26h.64l2.26-7.49v7.19h-.91v.3H27v-.3h-.49v-7.4H27V18h-2.63l-1.63 5.4h-.02l-1.5-5.4H18.5v.3Zm12 7.7h-3v-.3h.5v-7.4h-.5V18h3v.3H30v7.4h.5v.3Zm1.5-.3v.3h4v-.3h-1v-7.4h.36c.73 0 .98 1.26 1.16 2.15l.12.55H37v-3h-6v3h.4l.11-.55c.18-.9.43-2.15 1.16-2.15H33v7.4h-1Zm9 .3h-3v-.3h.44v-7.4H38V18h3v.3h-.56v3.4h2v-3.4H42V18h3v.3h-.56v7.4H45v.3h-3v-.3h.44V22h-2v3.7H41v.3ZM16.47 36.4 13.9 27H11v.3h1v11.4h-1v.3h2.5v-.3h-1V27.56L15.64 39h.5l3.36-11.44V38.7H18v.3h4v-.3h-1V27.3h1V27h-2.78l-2.68 9.4h-.07ZM23 39v-.3h.7v-8.4H23V30h2.7v.3H25v8.4h.7v.3H23Zm8-6h.3v-2.53a3.96 3.96 0 0 0-1.9-.47c-1.9 0-3.4 1.74-3.4 4.5s1.5 4.5 3.4 4.5c.7 0 1.29-.18 1.9-.52V35.5H31c-.28 2.31-.66 3.19-1.6 3.2-1.37 0-2.1-.97-2.1-4.2 0-3.23.83-4.2 2-4.2.88 0 1.3.17 1.7 2.7Zm1 6v-.3h.7v-8.4H32V30h3.5c2 0 2.5 1.15 2.5 2.28 0 1.26-.7 2.28-2.42 2.4l2.84 4.02H39v.3h-1.9L34 34.67v4.03h1v.3h-3Zm2-4.5h.73c1.42 0 1.97-.92 1.97-2.22 0-.9-.28-1.98-1.59-1.98H34v4.2Zm11 0c0-2.74-1.52-4.5-3.21-4.5-1.7 0-3.09 1.77-3.09 4.5s1.4 4.5 3.09 4.5c1.7 0 3.21-1.76 3.21-4.5Zm-1.3 0c0 3.26-.66 4.2-1.91 4.2S40 37.76 40 34.5c0-3.26.54-4.2 1.79-4.2s1.91.94 1.91 4.2Z" fill="#fff"/><defs><linearGradient id="aj5ap0ivp" x1="28" y1="0" x2="26" y2="56" gradientUnits="userSpaceOnUse"><stop offset=".29" stop-color="#125AAC"/><stop offset=".79" stop-color="#0A3663"/></linearGradient></defs></svg>