<!-- by TradingView --><svg width="56" height="56" viewBox="0 0 56 56" xmlns="http://www.w3.org/2000/svg"><path fill="#F0F3FA" d="M0 0h56v56H0z"/><circle cx="22.61" cy="19.86" fill="#284D6A" r="1.05"/><circle cx="22.61" cy="22.59" fill="#284D6A" r="1.05"/><circle cx="25.17" cy="20.91" fill="#0082B0" r="1.05"/><circle cx="28.05" cy="20.48" fill="#284D6A" r="1.05"/><circle cx="30.92" cy="20.91" fill="#284D6A" r="1.05"/><circle cx="33.48" cy="22.59" fill="#284D6A" r="1.05"/><circle cx="35.07" cy="25.04" fill="#284D6A" r="1.05"/><circle cx="21.09" cy="25.04" fill="#284D6A" r="1.05"/><circle cx="1.05" cy="1.05" transform="matrix(1 0 0 -1 21.56 34.34)" fill="#284D6A" r="1.05"/><circle cx="1.05" cy="1.05" transform="matrix(1 0 0 -1 24.12 36.01)" fill="#284D6A" r="1.05"/><circle cx="1.05" cy="1.05" transform="matrix(1 0 0 -1 27 36.44)" fill="#284D6A" r="1.05"/><circle cx="1.05" cy="1.05" transform="matrix(1 0 0 -1 29.87 36.01)" fill="#284D6A" r="1.05"/><circle cx="1.05" cy="1.05" transform="matrix(1 0 0 -1 32.43 34.34)" fill="#284D6A" r="1.05"/><circle cx="1.05" cy="1.05" transform="matrix(1 0 0 -1 34.02 31.89)" fill="#284D6A" r="1.05"/><circle cx="1.05" cy="1.05" transform="matrix(1 0 0 -1 34.71 28.96)" fill="#0082B0" r="1.05"/><circle cx="1.05" cy="1.05" transform="matrix(1 0 0 -1 19.45 28.96)" fill="#284D6A" r="1.05"/><circle cx="1.05" cy="1.05" transform="matrix(1 0 0 -1 20.04 31.89)" fill="#284D6A" r="1.05"/><circle cx="18.56" cy="26.09" fill="#284D6A" r="1.05"/><circle cx="18.56" cy="29.79" fill="#284D6A" r="1.05"/><circle cx="22.61" cy="36.01" fill="#284D6A" r="1.05"/><circle cx="26.09" cy="37.49" fill="#0082B0" r="1.05"/><circle cx="30" cy="37.49" fill="#284D6A" r="1.05"/><circle cx="33.48" cy="36.02" fill="#0082B0" r="1.05"/><circle cx="36.13" cy="33.29" fill="#0082B0" r="1.05"/><circle cx="37.39" cy="29.86" fill="#0082B0" r="1.05"/><circle cx="18.13" cy="23.87" fill="#0082B0" r=".91"/><circle cx="20.5" cy="20.48" fill="#0082B0" r=".91"/><circle cx="23.87" cy="18.04" fill="#0082B0" r=".91"/><circle cx="28.05" cy="17.13" fill="#0082B0" r=".91"/><circle cx="30.41" cy="15.32" fill="#0082B0" r=".91"/><circle cx="25.69" cy="15.45" fill="#0082B0" r=".91"/><circle cx="20.95" cy="17.33" fill="#0082B0" r=".91"/><circle cx="17.3" cy="20.91" fill="#0082B0" r=".91"/><circle cx="15.32" cy="25.47" fill="#0082B0" r=".91"/><circle cx="17.22" cy="27.9" fill="#0082B0" r=".91"/><circle cx="38.63" cy="20.91" fill="#0082B0" r=".91"/><circle cx="35.22" cy="17.27" fill="#0082B0" r=".91"/><circle cx="33.3" cy="15.51" fill="#0082B0" r=".72"/><circle cx="28.05" cy="14.41" fill="#0082B0" r=".72"/><circle cx="22.94" cy="15.51" fill="#284D6A" r=".72"/><circle cx="15.5" cy="22.68" fill="#0082B0" r=".72"/><circle cx="40.53" cy="22.91" fill="#0082B0" r=".72"/><circle cx="41.52" cy="27.97" fill="#0082B0" r=".72"/><ellipse cx="37.58" cy="18.52" rx=".65" ry=".64" fill="#0082B0"/><ellipse cx="41.08" cy="19.36" rx=".65" ry=".64" fill="#0082B0"/><ellipse cx="43.4" cy="25.04" rx=".65" ry=".64" fill="#0082B0"/><ellipse cx="36.77" cy="15.06" rx=".65" ry=".64" fill="#0082B0"/><ellipse cx="31.05" cy="12.68" rx=".65" ry=".64" fill="#0082B0"/><ellipse cx="25.04" cy="12.68" rx=".65" ry=".64" fill="#0082B0"/><ellipse cx="19.39" cy="15.06" rx=".65" ry=".64" fill="#0082B0"/><ellipse cx="12.76" cy="25.04" rx=".65" ry=".64" fill="#0082B0"/><ellipse cx="14.67" cy="27.97" rx=".65" ry=".64" fill="#284D6A"/><ellipse cx="15.58" cy="32.99" rx=".65" ry=".64" fill="#0082B0"/><ellipse cx="14.93" cy="36.67" rx=".65" ry=".64" fill="#0082B0"/><ellipse cx="19.45" cy="40.89" rx=".65" ry=".64" fill="#0082B0"/><ellipse cx="25.04" cy="43.19" rx=".65" ry=".64" fill="#0082B0"/><ellipse cx="31.31" cy="43.19" rx=".65" ry=".64" fill="#0082B0"/><ellipse cx="36.77" cy="40.93" rx=".65" ry=".64" fill="#0082B0"/><ellipse cx="40.96" cy="36.44" rx=".65" ry=".64" fill="#0082B0"/><ellipse cx="43.29" cy="30.96" rx=".65" ry=".64" fill="#0082B0"/><ellipse cx="18.34" cy="37.49" rx=".65" ry=".64" fill="#0082B0"/><ellipse cx="22.86" cy="40.29" rx=".65" ry=".64" fill="#0082B0"/><ellipse cx="27.92" cy="41.57" rx=".65" ry=".64" fill="#0082B0"/><ellipse cx="33.22" cy="40.29" rx=".65" ry=".64" fill="#0082B0"/><ellipse cx="37.42" cy="37.56" rx=".65" ry=".64" fill="#0082B0"/><circle cx="12.29" cy="27.97" fill="#0082B0" r=".48"/><circle cx="13.55" cy="34.11" fill="#0082B0" r=".48"/><circle cx="16.79" cy="39.05" fill="#0082B0" r=".48"/><circle cx="13.24" cy="38.04" fill="#0082B0" r=".48"/><circle cx="24.59" cy="45.52" fill="#0082B0" r=".48"/><circle cx="28.09" cy="43.66" fill="#0082B0" r=".48"/><circle cx="34.02" cy="42.54" fill="#0082B0" r=".48"/><circle cx="38.15" cy="43.02" fill="#0082B0" r=".48"/><circle cx="39.23" cy="39.28" fill="#0082B0" r=".48"/><circle cx="42.5" cy="34.03" fill="#0082B0" r=".48"/><circle cx="45.52" cy="31.41" fill="#0082B0" r=".48"/><circle cx="13.53" cy="22.01" fill="#0082B0" r=".48"/><circle cx="13.05" cy="18.04" fill="#0082B0" r=".48"/><circle cx="16.79" cy="16.9" fill="#0082B0" r=".48"/><circle cx="18.13" cy="13.21" fill="#0082B0" r=".48"/><circle cx="22.13" cy="13.48" fill="#0082B0" r=".48"/><circle cx="28.05" cy="12.26" fill="#0082B0" r=".48"/><circle cx="31.4" cy="10.48" fill="#0082B0" r=".48"/><circle cx="37.96" cy="13" fill="#0082B0" r=".48"/><circle cx="42.92" cy="18.04" fill="#0082B0" r=".48"/><circle cx="42.5" cy="21.96" fill="#0082B0" r=".48"/><circle cx="45.52" cy="24.46" fill="#0082B0" r=".48"/><circle cx="43.88" cy="27.97" fill="#0082B0" r=".48"/><circle cx="10.48" cy="24.56" fill="#0082B0" r=".48"/><circle cx="32.22" cy="18.04" fill="#0082B0" r=".91"/><circle cx="35.62" cy="20.34" fill="#284D6A" r=".91"/><circle cx="38.03" cy="23.87" fill="#0082B0" r=".91"/><circle cx="38.81" cy="27.97" fill="#0082B0" r=".91"/><circle cx="40.62" cy="30.69" fill="#0082B0" r=".91"/><circle cx="25.43" cy="40.67" fill="#284D6A" r=".91"/><circle cx="38.63" cy="35.11" fill="#0082B0" r=".91"/><circle cx="35.07" cy="38.62" fill="#0082B0" r=".91"/><circle cx="30.41" cy="40.43" fill="#0082B0" r=".91"/><circle cx="20.95" cy="38.62" fill="#0082B0" r=".91"/><circle cx="17.27" cy="35.12" fill="#0082B0" r=".91"/><circle cx="37.96" cy="32.08" fill="#0082B0" r=".91"/><circle cx="35.44" cy="35.53" fill="#0082B0" r=".91"/><circle cx="32.22" cy="37.83" fill="#0082B0" r=".91"/><circle cx="23.87" cy="37.83" fill="#0082B0" r=".91"/><circle cx="20.36" cy="35.53" fill="#0082B0" r=".91"/><circle cx="18.08" cy="32" fill="#0082B0" r=".91"/><circle cx="15.49" cy="30.34" fill="#0082B0" r=".91"/><circle cx="20.04" cy="22.59" fill="#284D6A" r="1.05"/><circle cx="26.22" cy="18.38" fill="#284D6A" r="1.05"/><circle cx="33.48" cy="19.86" fill="#284D6A" r="1.05"/><circle cx="36.13" cy="22.59" fill="#284D6A" r="1.05"/><circle cx="37.58" cy="26.09" fill="#0082B0" r="1.05"/></svg>