<!-- by TradingView --><svg width="56" height="56" viewBox="0 0 56 56" xmlns="http://www.w3.org/2000/svg"><path fill="#F0F3FA" d="M0 0h56v56H0z"/><path fill-rule="evenodd" d="m22.37 29.87 3.9-2.26 1.5 2.6-3.9 2.25-1.5-2.6Zm-.38 1.35L21 29.5l5.65-3.26 2.5 4.33h-.02l2.6 4.35 1.6-.92 2.5 4.33-1.98 1.15 1.58 2.77-.86.5-1.59-2.77-1.48.85L29 36.5l1.87-1.08-2.6-4.34-4 2.3 1.03 1.64.03-.02.4.68 5.7 9.05-.85.54-3.48-5.52-3.6 2.08L21 37.5l3.44-1.98-2.1-3.34-4.58 2.75-.52-.86L22 31.22Zm.38 6.65 2.6-1.5 1.5 2.6-2.6 1.5-1.5-2.6Zm10.6-2.5-2.6 1.5 1.5 2.6 2.6-1.5-1.5-2.6Z" fill="#76BF4F"/><path fill-rule="evenodd" d="M28 45a10 10 0 0 0 10-10c0-1.55-.63-3.9-1.66-6.67C34 22.05 29.81 15.27 28 12.03c-1.8 3.24-6 10.02-8.34 16.3C18.63 31.1 18 33.45 18 35a10 10 0 0 0 10 10Zm-.57-33.99C25.16 15.03 17 28.97 17 35a11 11 0 0 0 22 0c0-6.03-8.16-19.97-10.43-23.99L28 10l-.57 1.01Z" fill="#58585A"/></svg>