<!-- by TradingView --><svg width="56" height="56" viewBox="0 0 56 56" xmlns="http://www.w3.org/2000/svg"><path fill="#F0F3FA" d="M0 0h56v56H0z"/><path d="M39.87 13c.21 18.46-9.48 26.98-14.4 28.94 7.91 2.48 11.04 2.79 12.52 3.06 4.97-10.44 2.42-28.3 1.88-32Z" fill="#E9E632"/><path d="M37.99 45C19.52 42.7 10.97 33.3 9 29c2.15-2.47 8.91-7.92 11-8.72C17.18 33.46 37.05 44.04 37.99 45Z" fill="#9FA0A0"/><path d="M39.87 13C25.9 14.43 14.37 23.34 9 29c4.3-2.88 11-6 19.46-6S39.93 26.18 41 27c-.13-9.75-.86-12.9-1.13-14Z" fill="#2D9CD3"/><path d="M40.97 25.46c-.14-5.8-.85-10.7-1.1-12.46.05 4.65-.53 8.68-1.5 12.13 1.1.6 1.82 1.2 2.3 1.6L41 27a91.8 91.8 0 0 0-.03-1.54Z" fill="#339ABF"/><path d="M25.45 41.95c1.24-.5 2.76-1.42 4.35-2.79 4.02 3.31 7.8 5.44 8.2 5.84a53.96 53.96 0 0 1-12.54-3.05Z" fill="#4D9636"/><path d="M19.79 24.12c-.13-1.25-.07-2.66.21-3.97A57.28 57.28 0 0 0 9 29a35.76 35.76 0 0 1 10.79-4.88Z" fill="#314090"/></svg>