<!-- by TradingView --><svg width="56" height="56" viewBox="0 0 56 56" xmlns="http://www.w3.org/2000/svg"><path fill="#F0F3FA" d="M0 0h56v56H0z"/><path d="M16.15 33.17c0 8.09 6.29 11.26 9.32 11.83C16.14 43.44 14 36.28 14 31.72c0-3.89 1.4-6.5 6.53-11.78a21.68 21.68 0 0 0 5.6-11.1c0-.45.31-.84.74-.84.34 0 .43.37.43.56-.55 2.72-1.6 8.4-2 9.86 5.2-3.9 6.2-8.2 6.44-8.59.24-.39.6-1.83 1.1-1.83.48 0 .54.44.54.89-.24 2.61-3.34 10.05-3.76 11.05C34.43 20.28 42 24.5 42 31.9s-6.16 12.08-11.1 12.08c-4.94 0-11.52-3.08-11.52-10.2 0-6.6 6.47-8.3 9.63-8.3 2.93 0 7.6 1.64 7.6 6.97 0 5.34-4.26 6.4-6.46 6.4-2.69 0-5.38-1.97-5.38-5.08 0-3.6 2.86-4.18 4.3-4.18 2.16 0 3.24 1.75 3.24 3.59 0 2.33-2.15 2.07-2.7 2.07.5-.34 1.08-.42 1.08-1.48 0-1.05-.58-2.12-1.61-2.12-1.04 0-2.16.96-2.16 2.12 0 1.67 1.46 3.3 3.42 3.3 1.95 0 4.12-1.45 4.12-4.4 0-2.94-2.34-5.13-5.45-5.13-3.54 0-7.47 2.34-7.47 6.23 0 4.56 3.93 8.16 9.36 8.16s8.95-5.86 8.95-9.48c0-10.27-11.8-10.33-14-10.05 1.89-2.78 3.28-4.78 3.77-6.17-2.08 2.72-5.07 4.4-5.93 4.63.49-1.11.81-3.33 1.08-4.63-.8 1.9-2.68 5.47-4.24 7.11-1.95 2.06-4.38 5.95-4.38 9.84Z" fill="url(#av3hhqfns)"/><defs><linearGradient id="av3hhqfns" x1="28" y1="8" x2="28" y2="45" gradientUnits="userSpaceOnUse"><stop stop-color="#F2C820"/><stop offset="1" stop-color="#E58414"/></linearGradient></defs></svg>