<!-- by TradingView --><svg xmlns="http://www.w3.org/2000/svg" width="56" height="56" viewBox="0 0 56 56"><path fill="#3C2666" d="M0 0h56v56H0z"/><path fill-rule="evenodd" d="M31 24.98c-.2-1.66-2.16-1.26-3-.86v6.38a1.7 1.7 0 0 0 1.67 1.77c1.42-.02 2.11-2.12 2.33-3.05v7.19l1.87-.4c1.07-.27 1.16-1.04 1.13-1.4V23.82l.73 1.65c.54 1.2 1.15 2.57 1.38 3.2.34.96 1.2 1 1.6.9l1.6-.49.92-4.31 1.08.37c.6 2.33 2.29 2.72 3.06 2.63 2.98-.2 3.66-3.13 3.63-4.57l-1.02.27c-.25 1.1-1.03 1.74-1.63 1.8-.48.04-.82-.32-.92-.5.35-.08 2.81-1.6 2.6-3.72-.18-1.7-1.45-2.07-2.06-2.05-3.1.15-3.82 3.28-3.79 4.82l-.74-.35c.1-.29.3-1.03.32-1.7.02-.85-.52-1.43-1.33-1.49-.82-.05-1.55.67-1.56 1.66 0 .78.59 1.58.89 1.88l-.56 2.63-2.06-4.92-4.81 1.4c-.3 4.63-.73 5.78-1.1 5.78-.23 0-.25-.37-.23-.61v-3.12Zm14.95-4.45c-1.09.19-1.14 2.1-1.03 3.02 1-.53 1.4-1.39 1.5-2.26.07-.7-.28-.8-.47-.76ZM10.93 32.5c-.2-.26-.76-.8-1.5-.77-.93.02-2.3.54-2.43 2.8-.13 2.28 2.43 4.63 4.91 4.45 2.5-.18 4.3-2.07 4.36-4.79a6 6 0 0 0-2.22-4.87 114.5 114.5 0 0 0-2.82-2.4 2.48 2.48 0 0 1-.84-1.8c.03-1.08.88-1.39 1.45-1.37.56.01 1.8.65 1.33 3.07.11.15.63.39 1.78.1L17 26.3v7.5c0 .7.8 1.9 3 .9v-9.15l3.07-.86c.32-.1.95-.48.93-1.2v-1.15l-4 1.14v-.64c-.08-.58-1-1.53-3-.6v1.99l-1.17.46a4.04 4.04 0 0 0-4-3.64c-3.61-.1-4.35 3.07-4.3 4.27.05 1.2.73 2.77 2.3 4l2.71 2.5c.37.34.9 1.18.9 2.2 0 1.27-.94 1.94-1.76 1.98-.8.04-1.85-.48-1.85-1.8 0-1.06.73-1.57 1.1-1.69ZM22 25.93c.59-.29 1.77-.62 2.51-.1.27-.54.8-.9 1.4-.9.87 0 1.57.76 1.57 1.68 0 .93-.7 1.68-1.58 1.68a1.5 1.5 0 0 1-.9-.3v5.62c-.97.41-3 .84-3-.91v-6.77Z" fill="#fff"/></svg>