<!-- by TradingView --><svg xmlns="http://www.w3.org/2000/svg" width="56" height="56" viewBox="0 0 56 56"><path fill="#F0F3FA" d="M0 0h56v56H0z"/><path d="M36.13 21.11L22.31 34.8l18.11 4.8c.34.1.66-.22.56-.55L36.13 21.1z" fill="#0096D5"/><path d="M39.3 17.05l-22.74-6.03a.44.44 0 0 0-.54.53L22.3 34.8l17.18-17.02a.44.44 0 0 0-.2-.73z" fill="#00C9E8"/><path d="M22.3 34.8l1.86 6.84-6.07-1.61a.5.5 0 0 1-.23-.84l4.45-4.4z" fill="#1D3AB2"/><path d="M22.3 34.8l12.77 3.38-8.77 8.68a.47.47 0 0 1-.78-.2L22.3 34.8z" fill="#206BCE"/></svg>