<!-- by TradingView --><svg xmlns="http://www.w3.org/2000/svg" width="56" height="56"><path fill="#F0F3FA" d="M0 0h56v56H0z"/><path d="M39.4 32.96l-4.34-.88a5.94 5.94 0 000-1.78v-.14l4.34 2.8zm-8.73 3.7l.26-.12c.35-.13.7-.3 1.05-.48l.82 3.78-2.13-3.18zm-7.3 3.27l.62-3.45 1.2.42-1.82 3.03zm-6.82-6.88l4.6-3.03s-.1.52-.1.6c0 0 .05.92.06 1.39l-4.56 1.04zm.05-9.96l4.32 1.05a5.07 5.07 0 00-.18 1.8L16.6 23.1zm9.14-3.13l-1.54.5-.97-4.32 2.51 3.82zm6.29.36c-.35-.07-.69-.16-1-.24-.19-.05-.38-.1-.58-.13l2.45-3.56-.87 3.93zm7.35 2.82l-5.49 3.34c.26-.25.36-.55.4-.76l.02-.46c-.04-.27-.07-.6-.1-.96l5.17-1.16zm-4.82 5.82c-.29-.5-.7-.97-1.2-1.37l-.8-.59H45.5l-3.14-2.53c-.64-2.75-2-5.2-3.86-7.15l-4.34 5.73-.17-2.37 5.79-6.15-4.04.53a14.33 14.33 0 00-7.73-2.26l1 6.92-2.01.1V10l-2.23 3.17c-2.74.63-5.2 2.04-7.13 4.02l5.19 4.22c-.55.43-.96.89-1.27 1.34l-6.5-6.95.42 4.18a15.55 15.55 0 00-2.22 8.06L20.9 27s.73 1.28 1.36 1.82l.12.17H10.5l3.13 2.45a15.42 15.42 0 004.19 7.61l3.3-4.55.04 1.37.98.13-5.57 5.67 3.96-.5a14.36 14.36 0 007.92 2.08l-.84-6.06L29 37v9l2.83-3.24c3.7-.76 6.84-4.2 6.84-4.2l-4.84-3.9c.42-.46.74-.98.96-1.55l6.66 6.83-.54-4.55.07-.08a15.54 15.54 0 001.78-7.27v-.16l-8.2 1.08z" fill="#F47E28"/><path d="M30 27.01a15.9 15.9 0 012.73 1.71c.84.66 1.27 1.5 1.27 2.5 0 1.45-.63 2.59-1.87 3.41a8.4 8.4 0 01-4.7 1.37c-1.17 0-1.55-.17-2.37-.44-.83-.27-2-.57-3.05-.74-.02-.49 0-1.14 0-1.96V30.7c0-.05-.03-.09.1-.12.15-.03.27-.06.37-.06.11 0 .22.02.33.05.11.03.17.07.19.13.3 1.2 1.2 2.22 2.18 3.01.98.78 1.33 1.29 2.22 1.29.99 0 1.63-.3 2.05-.66.41-.34.55-.81.55-1.4 0-.74-.35-1.36-1.2-1.86s-1.77-1-2.75-1.47c-1-.47-1.92-1.04-2.77-1.7a2.96 2.96 0 01-1.27-2.4c0-1.28.57-2.34 1.72-3.21 1.16-.87 2.74-1.3 4.75-1.3.9 0 1.67.1 2.33.27.65.19 1.44.34 2.2.46v3.79a1.73 1.73 0 01-.72.01c-.1-.03-.18-.07-.21-.12a5.77 5.77 0 00-1.39-2.5 3.08 3.08 0 00-2.24-.91c-.77 0-1.37.18-1.81.52-.44.34-.64.77-.64 1.28 0 .68.39 1.26 1.21 1.74.83.48 1.76.97 2.8 1.47z" fill="#13377D"/></svg>