<!-- by TradingView --><svg width="56" height="56" viewBox="0 0 56 56" xmlns="http://www.w3.org/2000/svg"><path fill="#F0F3FA" d="M0 0h56v56H0z"/><path d="M41.75 42.53c.91 0 1.66-.76 1.66-1.7 0-.95-.75-1.7-1.66-1.7-.91 0-1.66.75-1.66 1.7 0 .94.75 1.7 1.66 1.7ZM38.53 44.26c.92 0 1.66-.76 1.66-1.7s-.74-1.7-1.66-1.7c-.91 0-1.66.76-1.66 1.7s.75 1.7 1.66 1.7ZM35.16 45.2c.9 0 1.62-.75 1.62-1.68 0-.92-.73-1.67-1.62-1.67-.9 0-1.63.75-1.63 1.67 0 .93.73 1.68 1.63 1.68ZM31.97 45.77c.83 0 1.5-.69 1.5-1.54 0-.85-.67-1.54-1.5-1.54s-1.5.69-1.5 1.54c0 .85.67 1.54 1.5 1.54ZM28.9 46c.8 0 1.44-.66 1.44-1.48s-.64-1.48-1.43-1.48c-.8 0-1.44.66-1.44 1.48S28.1 46 28.9 46ZM25.72 45.55c.74 0 1.34-.62 1.34-1.38 0-.77-.6-1.38-1.34-1.38-.74 0-1.34.61-1.34 1.38 0 .76.6 1.38 1.34 1.38ZM22.75 44.59c.7 0 1.28-.6 1.28-1.32a1.3 1.3 0 0 0-1.28-1.32c-.7 0-1.28.59-1.28 1.32 0 .73.57 1.32 1.28 1.32ZM20.16 43.04c.67 0 1.21-.56 1.21-1.25 0-.7-.54-1.25-1.21-1.25-.68 0-1.22.56-1.22 1.25 0 .7.54 1.25 1.22 1.25ZM17.62 40.99a1.2 1.2 0 0 0 1.2-1.23 1.2 1.2 0 0 0-1.2-1.22 1.2 1.2 0 0 0-1.18 1.22c0 .68.53 1.23 1.18 1.23ZM15.5 38.35c.6 0 1.1-.5 1.1-1.13 0-.62-.5-1.12-1.1-1.12-.6 0-1.1.5-1.1 1.13 0 .62.5 1.12 1.1 1.12ZM14.16 35.33c.6 0 1.09-.5 1.09-1.13 0-.62-.49-1.12-1.1-1.12-.6 0-1.09.5-1.09 1.12 0 .62.5 1.13 1.1 1.13ZM13.28 31.99c.57 0 1.03-.48 1.03-1.06 0-.6-.46-1.07-1.03-1.07-.57 0-1.03.48-1.03 1.07 0 .58.46 1.06 1.03 1.06ZM12.94 28.51c.52 0 .94-.43.94-.96a.95.95 0 0 0-.94-.96.95.95 0 0 0-.94.96c0 .53.42.96.94.96ZM13.19 24.95c.46 0 .84-.4.84-.87a.86.86 0 0 0-.84-.87.86.86 0 0 0-.85.87c0 .48.38.87.85.87ZM14.19 21.73c.45 0 .81-.37.81-.83a.82.82 0 0 0-.81-.84.82.82 0 0 0-.81.84c0 .46.36.83.8.83ZM15.72 18.36c.3 0 .53-.25.53-.55 0-.3-.24-.55-.53-.55-.3 0-.53.25-.53.55 0 .3.24.55.53.55ZM17.72 15.88c.3 0 .53-.24.53-.54 0-.3-.24-.55-.53-.55-.3 0-.53.24-.53.55 0 .3.24.54.53.54ZM20.13 13.73a.5.5 0 0 0 .5-.52.5.5 0 0 0-.5-.51.5.5 0 0 0-.5.51c0 .29.22.52.5.52ZM22.81 12.06c.26 0 .47-.22.47-.49a.48.48 0 0 0-.47-.48.48.48 0 0 0-.47.48c0 .27.21.49.47.49ZM25.63 10.77c.2 0 .37-.17.37-.38a.38.38 0 0 0-.38-.39c-.2 0-.37.17-.37.39 0 .2.17.38.38.38ZM42.66 35.14c.74 0 1.34-.62 1.34-1.39 0-.76-.6-1.38-1.34-1.38-.75 0-1.35.62-1.35 1.38 0 .77.6 1.39 1.35 1.39ZM40.56 37.32c.71 0 1.28-.59 1.28-1.32a1.3 1.3 0 0 0-1.28-1.31c-.7 0-1.28.59-1.28 1.31 0 .73.57 1.32 1.28 1.32ZM38.34 38.96c.71 0 1.28-.59 1.28-1.32a1.3 1.3 0 0 0-1.28-1.31c-.7 0-1.28.59-1.28 1.31 0 .73.58 1.32 1.28 1.32ZM36.1 40.5c.67 0 1.21-.56 1.21-1.25 0-.7-.54-1.25-1.22-1.25-.67 0-1.22.56-1.22 1.25 0 .7.55 1.25 1.22 1.25ZM33.81 41.6A1.2 1.2 0 0 0 35 40.37a1.2 1.2 0 0 0-1.19-1.22 1.2 1.2 0 0 0-1.19 1.23c0 .67.54 1.22 1.2 1.22ZM31.38 42.14c.6 0 1.09-.5 1.09-1.12 0-.62-.5-1.13-1.1-1.13-.6 0-1.09.5-1.09 1.13 0 .62.5 1.12 1.1 1.12ZM28.81 42.34c.6 0 1.1-.5 1.1-1.13 0-.62-.5-1.12-1.1-1.12-.6 0-1.1.5-1.1 1.12 0 .62.5 1.13 1.1 1.13ZM26.34 41.95c.57 0 1.04-.47 1.04-1.06 0-.59-.47-1.06-1.04-1.06-.57 0-1.03.47-1.03 1.06 0 .59.46 1.06 1.03 1.06ZM23.88 41.02c.51 0 .93-.43.93-.97a.95.95 0 0 0-.93-.96.95.95 0 0 0-.94.96c0 .54.42.97.93.97ZM21.6 39.6c.46 0 .84-.38.84-.86a.86.86 0 0 0-.85-.87.86.86 0 0 0-.84.87c0 .48.38.86.84.86ZM19.66 37.67c.45 0 .8-.37.8-.83a.82.82 0 0 0-.8-.84.82.82 0 0 0-.82.84c0 .46.37.83.82.83ZM17.97 35.46c.45 0 .81-.38.81-.84a.82.82 0 0 0-.81-.83.82.82 0 0 0-.81.83c0 .46.36.84.8.84ZM16.81 32.92c.45 0 .82-.38.82-.84a.82.82 0 0 0-.82-.83.82.82 0 0 0-.81.83c0 .46.36.84.81.84ZM16.06 30.03c.35 0 .63-.3.63-.65a.63.63 0 0 0-.63-.64.63.63 0 0 0-.62.64c0 .36.28.65.62.65ZM15.9 27.26a.6.6 0 0 0 .6-.61.6.6 0 0 0-.6-.61.6.6 0 0 0-.59.61c0 .34.27.61.6.61ZM16.22 24.56c.3 0 .53-.24.53-.55 0-.3-.24-.54-.53-.54-.3 0-.53.24-.53.54 0 .3.24.55.53.55ZM17 21.93a.5.5 0 0 0 .5-.52.5.5 0 0 0-.5-.51.5.5 0 0 0-.5.51c0 .28.22.52.5.52ZM18.38 19.58c.25 0 .46-.22.46-.48a.48.48 0 0 0-.46-.49.48.48 0 0 0-.47.49c0 .26.2.48.46.48ZM19.9 17.36c.21 0 .38-.17.38-.39a.38.38 0 0 0-.37-.38c-.21 0-.38.17-.38.38 0 .22.17.4.38.4ZM21.75 15.66c.2 0 .38-.18.38-.39a.38.38 0 0 0-.38-.38c-.2 0-.38.17-.38.38s.17.39.38.39ZM40.25 31.18c.6 0 1.1-.5 1.1-1.12 0-.62-.5-1.13-1.1-1.13-.6 0-1.1.5-1.1 1.13 0 .62.5 1.12 1.1 1.12ZM39.13 33.3c.56 0 1.03-.47 1.03-1.06 0-.58-.47-1.06-1.03-1.06-.57 0-1.04.48-1.04 1.06 0 .59.47 1.06 1.03 1.06ZM37.6 35.04c.56 0 1.02-.48 1.02-1.06 0-.59-.46-1.06-1.03-1.06-.57 0-1.03.47-1.03 1.06 0 .58.46 1.06 1.03 1.06Z" fill="#1AB7EA"/><path d="M36.1 36.55c.56 0 1.02-.47 1.02-1.06 0-.59-.46-1.06-1.03-1.06-.57 0-1.03.47-1.03 1.06 0 .59.46 1.06 1.03 1.06Z" fill="#1AB7EA"/><path d="M34.44 37.74c.52 0 .94-.43.94-.96a.95.95 0 0 0-.94-.97.95.95 0 0 0-.94.97c0 .53.42.96.94.96ZM32.66 38.67c.51 0 .93-.43.93-.96a.95.95 0 0 0-.93-.97.95.95 0 0 0-.94.97c0 .53.42.96.94.96ZM30.72 39.12c.46 0 .84-.39.84-.87a.86.86 0 0 0-.84-.86.86.86 0 0 0-.85.86c0 .48.38.87.85.87ZM28.78 39.25c.47 0 .84-.39.84-.87a.86.86 0 0 0-.84-.87.86.86 0 0 0-.84.87c0 .48.38.87.84.87ZM26.69 39.02c.45 0 .81-.37.81-.83a.82.82 0 0 0-.81-.84.82.82 0 0 0-.82.84c0 .46.37.83.82.83ZM24.69 38.16c.34 0 .62-.3.62-.65a.63.63 0 0 0-.62-.64.63.63 0 0 0-.63.64c0 .36.28.65.63.65ZM22.81 37.03c.35 0 .63-.29.63-.64a.63.63 0 0 0-.63-.64.63.63 0 0 0-.62.64c0 .35.28.64.62.64ZM21.28 35.52c.35 0 .63-.29.63-.64a.63.63 0 0 0-.63-.64.63.63 0 0 0-.62.64c0 .35.28.64.62.64ZM19.97 33.79c.34 0 .62-.3.62-.65a.63.63 0 0 0-.62-.64.63.63 0 0 0-.63.64c0 .36.28.65.63.65ZM19.03 31.8c.35 0 .63-.3.63-.65a.63.63 0 0 0-.63-.64.63.63 0 0 0-.62.64c0 .36.28.64.62.64ZM18.37 29.57c.3 0 .54-.24.54-.54 0-.3-.24-.55-.54-.55-.29 0-.53.25-.53.55 0 .3.24.54.53.54ZM18.16 27.23a.5.5 0 0 0 .5-.52.5.5 0 0 0-.5-.51.5.5 0 0 0-.5.51c0 .29.22.52.5.52ZM18.5 25.07c.26 0 .47-.21.47-.48a.48.48 0 0 0-.47-.48.48.48 0 0 0-.47.48c0 .27.21.48.47.48ZM38.28 26.04c.52 0 .94-.43.94-.96a.95.95 0 0 0-.94-.97.95.95 0 0 0-.94.96c0 .54.42.97.94.97ZM38.03 27.97c.52 0 .94-.43.94-.97a.95.95 0 0 0-.94-.96.95.95 0 0 0-.94.96c0 .54.42.97.94.97ZM37.44 29.67c.45 0 .81-.37.81-.83a.82.82 0 0 0-.81-.84.82.82 0 0 0-.81.84c0 .46.36.83.8.83ZM36.72 31.31c.45 0 .81-.37.81-.83a.82.82 0 0 0-.81-.84.82.82 0 0 0-.81.84c0 .46.36.83.8.83ZM35.97 32.6c.34 0 .62-.3.62-.65a.63.63 0 0 0-.62-.64.63.63 0 0 0-.63.64c0 .36.28.65.63.65ZM34.81 33.95c.35 0 .63-.3.63-.65a.63.63 0 0 0-.63-.64.63.63 0 0 0-.62.64c0 .36.28.65.62.65ZM33.62 34.88c.35 0 .63-.29.63-.64a.63.63 0 0 0-.63-.65.63.63 0 0 0-.62.65c0 .35.28.64.62.64ZM32.19 35.68c.34 0 .62-.29.62-.64a.63.63 0 0 0-.62-.64.63.63 0 0 0-.63.64c0 .35.28.64.63.64ZM30.63 36.13c.34 0 .62-.29.62-.64a.63.63 0 0 0-.63-.64.63.63 0 0 0-.62.64c0 .35.28.64.63.64ZM28.84 36.3c.35 0 .63-.3.63-.65a.63.63 0 0 0-.63-.64.63.63 0 0 0-.62.64c0 .36.28.64.62.64ZM27.22 36c.34 0 .62-.28.62-.64a.63.63 0 0 0-.62-.64.63.63 0 0 0-.63.64c0 .36.28.64.63.64ZM25.56 35.33c.3 0 .53-.25.53-.55 0-.3-.23-.54-.53-.54-.3 0-.53.24-.53.54 0 .3.24.55.53.55ZM24.03 34.4c.3 0 .53-.25.53-.55 0-.3-.24-.55-.53-.55-.3 0-.53.25-.53.55 0 .3.24.55.53.55ZM22.69 33.24c.3 0 .53-.25.53-.55 0-.3-.24-.54-.53-.54-.3 0-.53.24-.53.54 0 .3.23.55.53.55ZM21.56 31.8c.3 0 .53-.25.53-.55 0-.3-.23-.55-.53-.55-.3 0-.53.24-.53.55 0 .3.24.54.53.54ZM20.78 30.22c.26 0 .47-.22.47-.48a.48.48 0 0 0-.47-.49.48.48 0 0 0-.47.49c0 .26.21.48.47.48ZM20.4 28.64c.27 0 .48-.21.48-.48a.48.48 0 0 0-.47-.48.48.48 0 0 0-.47.48c0 .27.2.48.47.48ZM20.22 26.88c.26 0 .47-.22.47-.49a.48.48 0 0 0-.47-.48.48.48 0 0 0-.47.48c0 .27.21.49.47.49ZM32.88 21.99s2.28 2.8 2.21 6.14c-.03 3.08-2.4 6.23-6.68 6.36-3.22.1-5.66-3.73-5.66-3.73s2.31 3.09 5.56 3.06c3.9 0 5.85-3.25 5.85-5.66S31.8 22.6 31.8 22.6s0-1.1 1.07-.61Z" fill="#1AB7EA"/><path d="M29.69 22.47s3.37 2.57 3.37 5.53a5.02 5.02 0 0 1-4.78 5.05c-2.31 0-4.16-1.77-4.16-1.77s1.6 1.32 4.35 1.22c1.53-.03 3.9-2 3.9-4.6 0-2.6-3.28-4.56-3.28-4.72 0-.13-.15-.77.6-.7Z" fill="#1AB7EA"/><path d="M27.9 23.82s3.63 1.9 3.63 4.27c0 2.38-2.28 3.45-3.56 3.45a4.94 4.94 0 0 1-2.94-1.16c1.22.45 1.75.77 2.94.77 1.22 0 3.03-1.13 3.03-2.9 0-2.24-3.53-3.56-3.56-3.88-.07-.3.06-.68.47-.55Z" fill="#1AB7EA"/></svg>