<!-- by TradingView --><svg xmlns="http://www.w3.org/2000/svg" width="56" height="56" viewBox="0 0 56 56"><path fill="#F0F3FA" d="M0 0h56v56H0z"/><path d="M6.3 31a4.9 4.9 0 0 1-2.3-.55l.13-.9c.53.35 1.33.67 2.2.67 1.03 0 1.67-.58 1.67-1.58 0-.87-.3-1.3-1.63-1.88C4.72 26.02 4 25.45 4 24.22 4 22.9 5.17 22 6.6 22c.83 0 1.46.19 1.92.46l-.13.88c-.5-.33-1.1-.56-1.82-.56-1.02 0-1.58.62-1.58 1.4 0 .78.4 1.16 1.74 1.77C8.34 26.66 9 27.29 9 28.59 8.99 30.08 7.81 31 6.3 31ZM12.54 31.57c-.4 1.1-.94 1.43-1.76 1.43-.16 0-.28-.02-.36-.03l-.19-.76c.14.02.3.04.48.04.5 0 .8-.21 1.04-.85l.22-.72L9.83 25h1.05l1.54 4.53 1.6-4.53h1.01l-2.5 6.57ZM20 30.98v-4.03c0-.75-.26-1.21-1.06-1.21-.68 0-1.24.38-1.94 1.02V31h-1v-6h.83l.15.99c.46-.58 1.1-.99 2.13-1 1.27 0 1.89.68 1.89 1.8V31h-1ZM26 26.05c-.46-.23-.7-.35-1.3-.35-1.05 0-1.7.73-1.7 2.38 0 1.43.5 2.19 1.43 2.19.7 0 1.05-.42 1.57-1.05v-3.17Zm.24 4.95-.15-.87c-.28.48-.89.87-1.74.87-1.28 0-2.35-.92-2.35-2.88 0-2.14 1.24-3.12 2.66-3.12.59 0 .93.11 1.34.3V22h1v9h-.76ZM32 27.82c-2.53.23-3 .78-3 1.56 0 .63.37.94 1.05.94.7 0 1.33-.34 1.95-.87v-1.63Zm.17 3.18-.17-.79c-.49.48-1.16.79-2.08.79-1.12 0-1.92-.55-1.92-1.57 0-1.36 1.1-1.98 4-2.24v-.38c0-.77-.4-1.1-1.2-1.1-.77 0-1.52.2-2.22.5l-.12-.7c.74-.3 1.48-.51 2.38-.51 1.42 0 2.16.6 2.16 1.78V31h-.83ZM37.87 31l-1.37-2.04L35.13 31H34l2.06-3.08L34 25h1.13l1.37 2.02L37.87 25H39l-2.06 2.9L39 31h-1.13Z" fill="#5C6670"/><path d="m48.16 24.4.5.65 1.65.78 1.6-.08-3.75-1.36Z" fill="#8B9298"/><path d="m48.59 28.1.37-.96 1.41-1.06 1.63-.1-3.41 2.12Z" fill="#5C6670"/><path d="m45.15 23.25.28.5 1.16.58 1.24-.12-2.68-.96Z" fill="#FF8C44"/><path d="m44.9 26.09.43-.73 1.26-.85 1.25-.12-2.94 1.7Z" fill="#FF5000"/><path d="m44.88 26.3.34.78 1.42 1h1.56l-3.32-1.77Z" fill="#EE666C"/><path d="m44.5 30.66.56-1.12 1.58-1.18h1.58l-3.71 2.3Z" fill="#D70036"/><path d="m42.89 22.43.17.4.84.44 1-.12-2.01-.72Z" fill="#43B6C2"/><path d="m42.3 24.72.45-.6 1.13-.71 1.01-.1-2.6 1.4Z" fill="#0096A9"/><path d="m42.26 24.88.15.6.98.71 1.2-.06-2.33-1.25Z" fill="#FFC25C"/><path d="m41.4 28.17.58-.84 1.37-.92 1.22-.07-3.17 1.83Z" fill="#F7A800"/><path d="m41.34 28.42.15.94 1.13 1.27h1.53l-2.81-2.2Z" fill="#508898"/><path d="m40 33.57.79-1.3 1.77-1.3h1.6L40 33.56Z" fill="#00586F"/></svg>