<!-- by TradingView --><svg width="56" height="56" viewBox="0 0 56 56" xmlns="http://www.w3.org/2000/svg"><path d="M0 28a28 28 0 1 1 56 0 28 28 0 0 1-56 0Z" fill="#F0F3FA"/><path d="M25 10a3 3 0 1 1 0 6 3 3 0 0 1 0-6ZM29.61 40c.14 0 .26 0 .39.02v5.96l-.39.02a3.06 3.06 0 0 1-3.12-3c0-1.66 1.4-3 3.12-3ZM14.5 30.08a3.3 3.3 0 0 1 3.17 4.2l-2.3 2.32a3.3 3.3 0 0 1-4.15-3.2 3.3 3.3 0 0 1 3.28-3.32Z" fill="#A6A8AB"/><path d="M43 24a3 3 0 1 1 0 6 3 3 0 0 1 0-6ZM16 27c-.3 1.15-1.53 2-3 2s-2.7-.85-3-2h6Z" fill="#A4CD39"/><path d="M43.5 20a1.5 1.5 0 1 1 0 3 1.5 1.5 0 1 1 0-3ZM31 10a1 1 0 1 1 0 2 1 1 0 0 1 0-2Z" fill="#48C7F4"/><path d="M44.5 31a1.5 1.5 0 1 1 0 3 1.5 1.5 0 0 1 0-3ZM19 11a1 1 0 0 1 1 1 1 1 0 0 1-1 1 1 1 0 1 1 0-2ZM35.55 43c.63 0 1.14.54 1.14 1.2 0 .68-.5 1.21-1.14 1.21-.2 0-.39-.05-.55-.14v-2.12c.16-.1.35-.15.55-.15Z" fill="#A4CD39"/><path d="M34.5 13c3.59 0 6.5 2.92 6.5 6.53 0 3.31-2.82 6.04-6 6.47v-.79c0-1.8-1.1-3.21-2.9-3.21h-3.65a6.9 6.9 0 0 1-.45-2.47c0-3.6 2.92-6.53 6.5-6.53ZM18 15a6.1 6.1 0 0 1 5.95 7h-11.9A6.1 6.1 0 0 1 18 15ZM38.07 34A3.96 3.96 0 0 1 42 38c0 2.21-1.76 4-3.93 4A3.9 3.9 0 0 1 35 40.5v-5a3.88 3.88 0 0 1 3.07-1.5Z" fill="#48C7F4"/><path d="M22.5 39a2.5 2.5 0 1 1-2.48 2.15l2.15-2.13.33-.02ZM35.9 27a2.56 2.56 0 0 1 2.6 2.5c0 1.38-1.17 2.5-2.6 2.5-.32 0-.62-.05-.9-.15v-4.7c.28-.1.59-.15.9-.15Z" fill="#A6A8AB"/><path d="M30 36.74a5.93 5.93 0 0 1-6 .76l6-6.5v5.74ZM19 31.18c0 .63.09 1.24.25 1.82L25 27h-4.5a6.52 6.52 0 0 0-1.5 4.18Z" fill="#A4CD39"/></svg>