<!-- by TradingView --><svg width="56" height="56" viewBox="0 0 56 56" xmlns="http://www.w3.org/2000/svg"><path fill="#40C5E6" d="M0 0h56v56H0z"/><path fill-rule="evenodd" d="M29.46 16.53a2.49 2.49 0 0 1-2.83.06l-4.8 4.02a2.5 2.5 0 0 1 .08 1.55L26.5 26a2.5 2.5 0 0 1 3.81 2.97l4.2 3.52a2.5 2.5 0 1 1 .53 4.3L30.4 40.7l-.03-.02A2.5 2.5 0 0 1 28 44a2.5 2.5 0 0 1-2.36-3.33l-4.82-4.05a2.5 2.5 0 1 1 .93-1.03l4.7 3.95a2.49 2.49 0 0 1 3.14.03l4.35-3.66a2.49 2.49 0 0 1-.28-2.3l-4.23-3.56a2.5 2.5 0 0 1-3.77-2.93l-4.48-3.77A2.5 2.5 0 1 1 21 19.5l4.71-3.96a2.5 2.5 0 1 1 4.6-.1l4.72 4.03a2.5 2.5 0 1 1-.86 1.1l-4.72-4.04Zm-.24-2.03a1.22 1.22 0 1 1-2.44 0 1.22 1.22 0 0 1 2.44 0Zm-9.72 8.22a1.22 1.22 0 1 0 0-2.44 1.22 1.22 0 0 0 0 2.44Zm0 13a1.22 1.22 0 1 0 0-2.44 1.22 1.22 0 0 0 0 2.44Zm8.5-6.5a1.22 1.22 0 1 0 0-2.44 1.22 1.22 0 0 0 0 2.44Zm1.22 12.28a1.22 1.22 0 1 1-2.44 0 1.22 1.22 0 0 1 2.44 0Zm7.28-18.78a1.22 1.22 0 1 0 0-2.44 1.22 1.22 0 0 0 0 2.44Zm.72 11.78a1.22 1.22 0 1 1-2.44 0 1.22 1.22 0 0 1 2.44 0Z" fill="#fff"/></svg>