<!-- by TradingView --><svg width="56" height="56" xmlns="http://www.w3.org/2000/svg"><path fill="#444492" d="M0 0h56v56H0z"/><path d="M43.42 23.664l.462 2.064c.808 6.437-2.603 13.098-8.23 16.296-4.776 2.698-10.947 2.625-15.664-.169l-1.092-.715-1.092-.843c6.348 1.708 10.926-1.381 14.026-6.948 2.25-5.052 5.133-10.764 11.59-9.685zm-.168-.463c-3.698-4.634-8.283-3.468-13.48-1.979-2.955.604-6.057.275-7.265-2.905-.93-4.662 4.36-7.15 8.23-6.064 5.895 1.502 10.325 5.358 12.515 10.948zm-31.2 3.793c-.504 5.082 2.69 14.08 9.28 12.422 2.377-1.073 3.732-3.99 1.931-6.274-1.248-1.42-3.025-2.08-4.83-2.753-1.784-.664-3.595-1.338-4.954-2.764l-.714-.715-.63-.8-.083.884z" fill="#fff"/></svg>