<!-- by TradingView --><svg width="56" height="56" viewBox="0 0 56 56" xmlns="http://www.w3.org/2000/svg"><path fill="#F0F3FA" d="M0 0h56v56H0z"/><path d="m13.8 35.07-.6.35c-.2.1-.25.3-.15.49l.46.83c.13.25.47.34.73.19l.52-.3c.22-.13.3-.39.19-.6l-.43-.77a.53.53 0 0 0-.71-.2Zm2-2-.6.35c-.2.1-.25.3-.15.49l.46.83c.13.25.47.34.73.19l.52-.3c.22-.13.3-.39.19-.6l-.43-.77a.53.53 0 0 0-.71-.2Zm.6-2.04-.3.18c-.1.05-.13.15-.08.24l.23.42c.07.12.24.17.37.1l.26-.15c.11-.07.15-.2.1-.3l-.22-.4a.27.27 0 0 0-.36-.09Zm3.5 3.82-.57-.69a.46.46 0 0 0-.6-.08l-.55.38a.42.42 0 0 0-.1.58l.5.76c.14.22.44.26.65.1l.6-.45a.4.4 0 0 0 .07-.6ZM15 39.24 14.44 38l-1.44.55.56 1.45 1.44-.76Zm3 1.82L17.2 40l-1.2.87.58 1.13 1.42-.94Zm.91-3.66-.86-1.2a.5.5 0 0 0-.7-.11l-1.14.78a.47.47 0 0 0-.14.63l.74 1.26a.5.5 0 0 0 .72.15l1.26-.85a.47.47 0 0 0 .12-.67Z" fill="#29348F"/><path d="m25.61 39 1.39.76L25.24 41 24 40.18 25.61 39ZM24 41.82 22.91 41 21 42.18l1.09.82L24 41.82Zm1-3.05L23.47 38 22 39.13l1.26.87L25 38.77Zm-3-.3L20.53 37 19 38.47 20.19 40 22 38.47ZM22 36l-1-1-1 1 1 1 1-1Zm-1 5.96L19.96 41l-1.96.96.86 1.04L21 41.96Z" fill="#008B49"/><path d="M40 23v-.1c-.06-1.65-2.87-4.9-11.15-4.9-9.02 0-11.68 3.6-11.85 5.22v-6.38c.44-1.61 2.59-4.84 11.85-4.84 8.37 0 10.94 3.23 11.15 4.84V23Z" fill="url(#axymusngq)"/><path d="M28.33 24.82c-8.6-3.4-11.14-6.5-11.33-7.82v6.76c.04.9 2.4 3.67 11.5 7.42 9.72 4 11.46 6.78 11.5 7.82v-6.37c0-1.45-2.41-4.15-11.67-7.81Z" fill="url(#bxymusngq)"/><path d="m25.67 37.83 2.73 2.13-4.74 3.61c1.42.27 3.13.43 5.2.43 8.4 0 10.93-3.23 11.14-4.84v-6.37.1C39.94 34.54 37.17 38 28.86 38c-1.17 0-2.23-.06-3.2-.17Z" fill="url(#cxymusngq)"/><path d="M14.94 31.82c.19.54-.07 1.06-.59 1.16-.51.1-1.09-.25-1.29-.8-.19-.54.07-1.06.59-1.16.51-.1 1.09.25 1.29.8Zm-1.97 2c.1.54-.03 1.06-.3 1.16-.25.1-.54-.25-.64-.8-.1-.54.03-1.06.3-1.16.25-.1.54.25.64.8Zm3.01-4.92a.9.9 0 0 1-.8 1.1 1.12 1.12 0 0 1-1.16-.9.9.9 0 0 1 .8-1.1c.53-.05 1.06.36 1.16.9Z" fill="#29348F"/><path d="M13 28.45a.45.45 0 0 1-.4.55.56.56 0 0 1-.6-.45.45.45 0 0 1 .4-.55c.28-.02.54.18.6.45Zm1-1.91a.56.56 0 0 1-.6.46.45.45 0 0 1-.4-.54.56.56 0 0 1 .6-.46c.26.03.44.27.4.54Z" fill="#3F9DD6"/><defs><linearGradient id="axymusngq" x1="40.4" y1="19.23" x2="17.06" y2="19.23" gradientUnits="userSpaceOnUse"><stop stop-color="#2A3992"/><stop offset=".6" stop-color="#449DD6"/></linearGradient><linearGradient id="bxymusngq" x1="17.06" y1="23.2" x2="40.06" y2="23.2" gradientUnits="userSpaceOnUse"><stop stop-color="#243889"/><stop offset=".52" stop-color="#032740"/><stop offset="1" stop-color="#27338B"/></linearGradient><linearGradient id="cxymusngq" x1="40.33" y1="40.01" x2="23.66" y2="40.01" gradientUnits="userSpaceOnUse"><stop stop-color="#032F41"/><stop offset=".56" stop-color="#118C44"/></linearGradient></defs></svg>