<!-- by TradingView --><svg xmlns="http://www.w3.org/2000/svg" width="56" height="56"><path fill="#02AAD1" d="M0 0h56v56H0z"/><path fill-rule="evenodd" d="M23 18.5a4.5 4.5 0 11-9 0 4.5 4.5 0 019 0zM18.5 41a3.5 3.5 0 100-7 3.5 3.5 0 000 7zm0 1a4.5 4.5 0 100-9 4.5 4.5 0 000 9zm0-9.5a4.5 4.5 0 100-9 4.5 4.5 0 000 9zm19-10.5a3.5 3.5 0 100-7 3.5 3.5 0 000 7zm0 1a4.5 4.5 0 100-9 4.5 4.5 0 000 9zm0 19a4.5 4.5 0 100-9 4.5 4.5 0 000 9zM42 28a4.5 4.5 0 11-9 0 4.5 4.5 0 019 0zm-14-5a4.5 4.5 0 100-9 4.5 4.5 0 000 9zm4.5 14.5a4.5 4.5 0 11-9 0 4.5 4.5 0 019 0zm-1-9.5a3.5 3.5 0 11-7 0 3.5 3.5 0 017 0zm1 0a4.5 4.5 0 11-9 0 4.5 4.5 0 019 0z" fill="#fff"/></svg>