<!-- by TradingView --><svg width="56" height="56" viewBox="0 0 56 56" xmlns="http://www.w3.org/2000/svg"><path fill="url(#a4tlzihph)" d="M0 0h56v56H0z"/><path d="M33.34 12.1c-.12.18-.35.33-.68.44l-.28.11a29.87 29.87 0 0 0-3.9 2.4c-.19.11-.35.19-.5.22a82.63 82.63 0 0 0-4.02-2.46c-.19-.1-.4-.29-.66-.54a.28.28 0 0 0-.16-.08.67.67 0 0 1-.36-.18L33.04 12a.6.6 0 0 1 .3.1Z" fill="#EF92B3"/><path d="M22.78 12c.11.1.23.17.36.19.06 0 .12.04.16.08.25.25.47.43.66.54 1.36.78 2.7 1.6 4.03 2.46l-2.93 3.82c-.54-.18-1.07-.34-1.6-.49-.6-.16-1.45-.43-2.55-.8-.14-.06-.26-.06-.34-.01a.21.21 0 0 0-.12.2l-.1 4.49-4.33 1.44c-.18 0-.29-.08-.32-.22-.45-1.6-.86-3.22-1.22-4.84-.02-.12-.1-.26-.25-.42a3.66 3.66 0 0 1-.08-.1l.12-.2c.02.08.07.12.15.1.14-.02.27-.05.4-.1.16-.05.3-.08.4-.09 1.65-.15 3.31-.26 4.98-.34.17 0 .29-.09.35-.25a40.5 40.5 0 0 1 1.6-3.72 6.61 6.61 0 0 0 .46-1.43c.01-.05 0-.1-.06-.11a.2.2 0 0 0-.06-.02.96.96 0 0 1 .3-.17Z" fill="#F6BFD7"/><path d="M33.34 12.1c.06 0 .12.03.2.11l-.12.32a.23.23 0 0 0 0 .17c.1.25.22.5.35.74.5.98.94 1.98 1.29 3 .12.35.26.69.43 1.02.07.13.03.22-.11.27l-4.43 1.4L28.59 16a.33.33 0 0 1-.07-.18l-.04-.77a29.88 29.88 0 0 1 3.9-2.4l.28-.1c.33-.12.56-.27.68-.44Z" fill="#EC7B99"/><path d="m22.49 12.18.06.02c.05.02.07.06.06.1l-.06.22c-.14.55-.27.95-.4 1.22a40.5 40.5 0 0 0-1.6 3.72.36.36 0 0 1-.35.25c-1.67.08-3.33.19-4.97.34a1.8 1.8 0 0 0-.4.1l-.4.1c-.1 0-.14-.03-.16-.11l8.22-5.96Z" fill="#FADCE9"/><path d="M33.54 12.21c.28.16.55.35.82.54 2.4 1.75 4.8 3.48 7.22 5.2.07.04.12.12.16.23l-5.87-.46c-.18-.01-.26.07-.26.24l.04 4.55a817.95 817.95 0 0 1-7 5.02c-.13.07-.21.15-.25.25a.26.26 0 0 1-.12.13l-.15.1-.05-.02.18-.4a.23.23 0 0 0 0-.18.57.57 0 0 1 .03-.4c.19-.43.42-1.1.7-1.99a1013.73 1013.73 0 0 1 1.96-5.88l4.43-1.41c.14-.05.18-.14.11-.27a7.98 7.98 0 0 1-.43-1.01 21.7 21.7 0 0 0-1.3-3.01l-.34-.74a.23.23 0 0 1 0-.17l.12-.32Z" fill="#EA6081"/><path d="m28.48 15.05.04.77c0 .07.03.13.07.18l2.36 3.14a1024.21 1024.21 0 0 0-2.66 7.88.57.57 0 0 0-.02.4c.01.05.01.1-.01.16l-.18.4-.09.04-9.15-.01a.6.6 0 0 0-.51.26l-2.46 3.44c-.1.13-.2.15-.33.05a88.18 88.18 0 0 1-3.16-2.64 3.95 3.95 0 0 1-.28-.27c-.3-.34-.64-.49-1-.45a.97.97 0 0 1 .02-.9l.02.1c.03.13.1.15.2.08.3-.23.73-.57 1.29-1.03.55-.46.98-.8 1.3-1.03.38-.28.77-.63 1.18-1.03.04-.04.1-.09.2-.15.15-.1.25-.19.3-.27.04-.06.08-.1.14-.12l.27-.13 4.34-1.44 7.1 5.08c.06.04.1.08.12.14.06.13.16.19.3.18.07 0 .1-.04.12-.1l.03-.22c.02-.07-.01-.1-.08-.08-.04.01-.07 0-.08-.05l-.02-.05c-.14-.28-.3-.73-.49-1.34-.12-.39-.2-.67-.28-.84-.16-.4-.36-1.03-.62-1.9l-.39-1.22c-.35-1.03-.7-2.02-1.01-2.99l2.93-3.82c.14-.03.3-.1.49-.22Z" fill="#EE85A2"/><path d="m25.06 19.1 1.01 2.98c.1.25.22.66.39 1.23.26.86.46 1.5.62 1.89.07.17.16.45.28.84a8.79 8.79 0 0 0 .5 1.4c.02.04.05.05.09.04.07-.01.1.01.08.08l-.03.22c-.01.06-.05.1-.11.1-.15 0-.25-.05-.31-.18a.31.31 0 0 0-.11-.14l-7.11-5.08.09-4.5c0-.08.04-.15.12-.2.08-.04.2-.04.34.01 1.1.38 1.96.65 2.56.81.52.15 1.05.31 1.59.5Z" fill="#F1A9C1"/><path d="M41.74 18.18c.08.03.14.15.2.38l-.3.07c-.06.02-.1.06-.1.13-.04.45-.12.89-.25 1.32-.2.74-.32 1.11-.32 1.12-.2.8-.39 1.59-.6 2.38-.02.1-.07.22-.16.38l-4.56-1.45-.04-4.55c0-.17.08-.25.26-.24l5.87.46Z" fill="#E7456E"/><path d="m14.15 18.34.09.1c.13.16.22.3.24.42.36 1.62.77 3.24 1.22 4.84.03.14.14.21.32.22l-.27.13a.32.32 0 0 0-.14.12c-.05.08-.15.17-.3.27-.1.06-.16.11-.2.15-.4.4-.8.75-1.19 1.03-.31.23-.74.57-1.3 1.03-.55.46-.98.8-1.28 1.03-.1.07-.17.05-.2-.08l-.02-.1 3.03-9.16Z" fill="#EF92B3"/><path d="m41.94 18.56 2.99 9.05v.12c-.06.08-.13.09-.2.03l-1.64-1.3c-.17-.13-.6-.5-1.27-1.14a7.72 7.72 0 0 0-1.64-1.16.42.42 0 0 0 .03-.2c.09-.16.14-.28.17-.38l.6-2.38.31-1.12c.13-.43.2-.87.25-1.32 0-.07.04-.11.1-.13l.3-.07Z" fill="#DB3564"/><path d="m35.65 22.51 4.56 1.45c0 .08 0 .15-.03.2l-2.6 3.85h-9.45l.15-.1c.06-.03.1-.07.12-.13.04-.1.12-.18.25-.25l.15-.08c2.3-1.64 4.58-3.28 6.85-4.94Z" fill="#E13965"/><path d="M40.18 24.16c.6.32 1.15.7 1.64 1.16a32 32 0 0 0 2.9 2.44c.08.06.15.05.2-.03.02-.02.02-.06 0-.12.08.22.1.41.06.59a52.8 52.8 0 0 0-4.42 3.51c-.17.16-.31.17-.42.04L37.57 28l2.61-3.85Z" fill="#D0235C"/><path d="M28 28.02v-.03l-7.74 5.52-4.18-1.44c-.3-.1-.48 0-.52.31-.12.96-.34 1.9-.65 2.8-.1.3-.22.73-.33 1.31l-.12.59a.41.41 0 0 0 0 .2c.08.27.06.5-.07.69a.9.9 0 0 1-.3-.43c-.99-3.05-1.98-6.1-3-9.14.37-.04.7.11 1.01.45a88.17 88.17 0 0 0 3.44 2.91c.13.1.24.08.33-.05l2.46-3.44a.6.6 0 0 1 .51-.26H28Z" fill="#EA6081"/><path d="m28 28.02.08-.04.06.02h9.43l2.57 3.75c.01.2-.12.33-.38.4-1.3.36-2.64.79-4.03 1.28a3.5 3.5 0 0 1-.57-.22c-.18-.08-.33-.2-.46-.35a3.58 3.58 0 0 0-.7-.55c-.25-.17-.44-.3-.56-.41-.21-.2-.56-.45-1.04-.76-.35-.21-.6-.38-.76-.5-.53-.41-1.09-.77-1.7-1.09a2.9 2.9 0 0 1-.62-.52l-.06-.06a.27.27 0 0 0-.2-.08c-.26-.01-.35.1-.28.35.02.07 0 .13-.04.19a.26.26 0 0 0-.07.23 25.16 25.16 0 0 0 1.38 4.26c.39.93.59 2.02.6 3.3a30.17 30.17 0 0 1-1.33 1.8c-.33.28-.65.73-.97 1.34a.43.43 0 0 1-.36.23l-2.94-3.62 2.94-8.98a.2.2 0 0 0 0 .03Z" fill="#D50050"/><path d="m28 27.99-2.95 8.98-4.4 1.3a1.04 1.04 0 0 0-.45 0c.1-.08.16-.2.16-.36.03-1.5 0-2.98-.1-4.4L28 27.99Z" fill="#E13965"/><path d="m44.98 28.2-3 9.14-1.05.26a.33.33 0 0 0-.14.08.12.12 0 0 1-.15.03.12.12 0 0 0-.08 0 6.6 6.6 0 0 1-1.92.23c-.23-.01-.57.01-1.02.06-.36.04-.62.06-.8.06-.3.01-.55.07-.8.17-.23.1-.44.4-.6.87a3.9 3.9 0 0 1-.18.41c-.32.62-.62 1.27-.9 1.95-.12.27-.25.5-.4.7-.18.23-.3.48-.37.74-.08.33-.2.63-.34.9a.17.17 0 0 1-.13.1l-.57.09-9.4-.05c.13-.02.2-.07.24-.14.1-.19.2-.33.34-.4 1.22-.75 2.44-1.5 3.66-2.23.34-.2.54-.4.62-.58.16-.02.28-.1.36-.23.32-.61.64-1.06.97-1.34a.73.73 0 0 0 .16-.19l.14-.2c.35-.46.7-.93 1.02-1.42.6-.15 1.18-.07 1.74.25.14.08.37.13.68.16.24.01.42.04.54.09.78.27 1.4.33 1.9.17.06-.02.1-.06.12-.13.14-.7.19-1.36.15-2a23.4 23.4 0 0 1-.04-2.32 61.4 61.4 0 0 1 4.03-1.28c.26-.07.4-.2.38-.4.1.13.25.12.42-.04a52.8 52.8 0 0 1 4.42-3.51Z" fill="#B91154"/><path d="M35.73 33.43c-.03.57-.01 1.34.04 2.32.04.64-.01 1.3-.15 2a.17.17 0 0 1-.12.13c-.5.16-1.12.1-1.9-.17a2.2 2.2 0 0 0-.54-.1c-.3-.02-.54-.07-.68-.15a2.27 2.27 0 0 0-1.73-.25c-.01-1.27-.21-2.36-.6-3.29a25.16 25.16 0 0 1-1.38-4.26.26.26 0 0 1 .07-.23.18.18 0 0 0 .04-.19c-.07-.24.02-.36.29-.35.07 0 .13.03.19.08l.06.06c.26.26.47.44.63.52.6.32 1.16.68 1.7 1.08.15.13.4.3.75.51.48.3.83.56 1.04.76.12.1.3.24.57.41.33.22.56.4.69.55.13.15.28.27.46.35.2.1.39.17.57.22Z" fill="#C80A54"/><path d="M20.26 33.5c.1 1.43.13 2.9.1 4.41 0 .16-.06.28-.16.35-.57-.06-1.15-.09-1.73-.09-.63 0-1.2-.04-1.72-.11a9.45 9.45 0 0 0-1.86-.14c-.07 0-.21.04-.43.12-.06-.03-.08-.06-.07-.07.13-.19.15-.42.07-.68a.4.4 0 0 1 0-.21l.12-.59c.11-.58.22-1.02.33-1.31.31-.9.53-1.84.65-2.8.04-.31.22-.42.52-.31l4.18 1.44Z" fill="#E7456E"/><path d="m25.05 36.97 2.94 3.62c-.08.18-.28.38-.62.58l-3.66 2.22a.96.96 0 0 0-.34.4c-.03.08-.11.13-.24.15a.84.84 0 0 1-.49-.02 3.47 3.47 0 0 0-.33-1.22c-.31-.64-.49-1.01-.52-1.11a31.55 31.55 0 0 0-1.3-3c-.04-.08-.06-.14-.04-.2.02-.09.1-.13.2-.13l4.4-1.3Z" fill="#D0235C"/><path d="M41.99 37.34c-.1.34-.26.6-.51.77-2.6 1.86-5.19 3.71-7.78 5.58-.34.24-.73.34-1.17.3l.57-.09c.06 0 .1-.04.13-.1.14-.27.26-.57.34-.9.07-.26.2-.51.38-.75.14-.2.27-.42.39-.7.28-.67.58-1.32.9-1.94.05-.08.1-.22.17-.4.18-.49.38-.78.62-.88.24-.1.5-.16.79-.17.18 0 .44-.02.8-.06.45-.05.79-.07 1.02-.06.66.01 1.3-.07 1.92-.24h.08c.05.03.1.02.15-.02.04-.04.09-.07.15-.08l1.05-.26Z" fill="#A51A57"/><path d="M20.2 38.26c.18-.03.33-.03.46 0-.12 0-.19.04-.21.13-.02.06 0 .12.04.2.48.98.92 1.98 1.3 3 .03.1.2.47.52 1.1.18.4.3.81.33 1.23l-8.18-5.88c.22-.08.36-.12.43-.12.36-.03.98.01 1.86.14.52.07 1.1.1 1.72.11.58 0 1.16.03 1.73.1Z" fill="#DB3564"/><defs><linearGradient id="a4tlzihph" x1="10.42" y1="9.71" x2="68.15" y2="76.02" gradientUnits="userSpaceOnUse"><stop stop-color="#1A1E21"/><stop offset="1" stop-color="#06060A"/></linearGradient></defs></svg>