<!-- by TradingView --><svg width="56" height="56" viewBox="0 0 56 56" xmlns="http://www.w3.org/2000/svg"><path fill="#F0F3FA" d="M0 0h56v56H0z"/><path fill-rule="evenodd" d="M45 28a17 17 0 1 1-34 0 17 17 0 0 1 34 0Zm-1 0a16 16 0 1 1-32 0 16 16 0 0 1 32 0ZM17 38h1.73l.75-2.45A10 10 0 0 0 25.97 38c3.98 0 7.03-2.54 7.03-6.14 0-3.6-3.55-5.14-5.42-5.54-1.49-.32-4.05-.93-5.14-1.19-.78-.16-2.33-.89-2.33-2.54 0-2.07 2.13-2.59 4.34-2.59s4.84 1.93 5.55 6h2v-7h-1.55l-1.06 1.05c-.58-.69-2.52-2.05-5.6-2.05-3.83 0-6.79 1.9-6.79 5.93 0 3.86 4.2 4.94 5.3 5.22l.14.04c.43.11 1.1.26 1.77.4.67.15 1.35.3 1.78.42l.3.07c1.07.25 3.39.8 3.39 2.93 0 2.35-2.63 2.68-4.34 2.68s-5.55-.7-6.27-5.69H17v8Zm20.63-9a3.5 3.5 0 1 0 0-7 3.5 3.5 0 0 0 0 7Zm-.13-2a1.5 1.5 0 1 0 0-3 1.5 1.5 0 0 0 0 3Zm3.5 3h-7v2h7v-2Z" fill="#E1892A"/></svg>