<!-- by TradingView --><svg xmlns="http://www.w3.org/2000/svg" width="56" height="56"><path fill="#FDD000" d="M0 0h56v56H0z"/><path d="M15.2 32.82c.2-.1.45-.06.66.05.18.1.29.28.4.44.1.13.26.22.3.4.08.34.12.71.24 1.06.04.14.1.3.08.45-.02.19-.1.36-.16.53-.1.22-.02.47-.12.7-.07.14-.2.26-.29.4-.14.17-.32.31-.5.45a.59.59 0 01-.65.04 2.2 2.2 0 01-.56-.49c-.3-.39-.4-.9-.4-1.4.02-.35.21-.73.05-1.08.1-.18.11-.39.13-.58h-.07c.14-.08.2-.21.28-.34.15-.26.33-.5.6-.63z" fill="#D70C19"/><path d="M45.47 18.03c-.15-.03-.33-.06-.46.05-.24.2-.52.4-.81.53-.2.15-.43.15-.66.15h-.07c-.13 0-.24.07-.34.15-.1.08-.21.16-.35.16-.26.04-.55 0-.83-.02-.34-.04-.68-.08-.99 0-.59.13-.85.58-.92 1.17-.07.66.1 1.3.28 1.96.19.7.38 1.43.28 2.2a6.7 6.7 0 01-.69 2.54c0 .24-.07.32-.2.45l-.13.13c-.18.22-.2.43-.22.71-.02.36.2.79.6.79.53-.18.7-.6.84-1.09.18-.55.26-1.11.34-1.67.06-.38.11-.76.2-1.14.01-.26.05-.5.08-.75.09-.55.16-1.08-.04-1.66l-.18-.44c-.26-.57-.6-1.32-.1-1.7.11 0 .25-.13.39-.26.1-.1.2-.2.28-.24.2-.12.44-.1.66-.1l.2.01c.16.01.3-.05.45-.12.13-.06.25-.12.38-.13.34-.13.85-.13 1.21-.13.58-.13 1.3-.37 1.2-1.1-.03-.22-.2-.41-.39-.45h-.01zM15.29 18c.18-.01.4.01.5.18.06.14.05.29.05.43v.18c0 .47-.04.94-.08 1.41a9.4 9.4 0 00-.05 1.84c0 .22.44.5.62.5.4 0 .82 0 1.2-.16.07-.03.13-.08.14-.17.02-.11.02-.23.02-.35v-.18c-.42 0-.85-.08-1.25-.24-.22-.09-.18-.24-.06-.4.36-.17.83-.17 1.23-.17h.14v-.73c-.01-.05-.02-.1-.06-.14-.1-.05-.22-.06-.33-.07l-.09-.01c-.24 0-.55-.08-.78-.17-.17-.12-.23-.46-.07-.61.21-.08.44-.09.67-.06l.2.06c.25.07.55.16.7.29.33.2.52.44.61.81v.32c0 .6 0 1.19-.02 1.78 0 .2-.13.48-.3.6a3.1 3.1 0 01-.84.46c-.2.02-.42-.02-.63-.06-.27-.05-.55-.1-.81-.04-.14.03-.4.37-.36.5l.08.03c.49.12 1.27.31 1.5.77.08.26.1.53.12.8 0 .38-.2.56-.43.75-.1.08-.19.16-.27.27-.07.13-.1.3 0 .42.06.13.18.13.3.13.07 0 .15 0 .21.04l.05.02c.25.1.48.2.68.4h.24c.15-.01.3-.02.41.08.14.1.3.17.47.17h.13c.14.03.29.04.39.16.3.4.14.99-.34 1.15-.36.04-.71-.07-1.05-.21-.23-.1-.44-.22-.64-.35-.26-.15-.5-.3-.8-.4-.13-.06-.24-.14-.35-.22-.26-.19-.5-.37-.89-.29-.19 0-.31.14-.44.27-.08.07-.15.15-.23.2-.19.07-.38.17-.58.27a4 4 0 01-1.28.5c-.23.02-.5.03-.7-.08-.25-.33-.33-.53-.18-.9.7 0 1.47-.07 2.1-.4.26-.14.52-.37.35-.68l-.32-.46-.14-.2c0-.1-.12-.36-.23-.36l-.36-.18c-.2-.1-.4-.2-.58-.35-.18-.24.24-.43.42-.42.15-.01.28.06.41.14.28.17.51.39.74.61.33.3.65.61 1.07.77.13.03.28.01.37-.08l.19-.2.1-.11.08-.1c.13-.12.19-.3.16-.48a.74.74 0 00-.33-.58c-.18-.1-.42-.06-.62-.03h-.07l-.17.03c-.21.03-.5.08-.54-.13a.8.8 0 01.08-.46c.07-.15.3-.22.46-.27l.08-.02c-.12-.35-.35-.51-.72-.5-.16 0-.32.03-.48.04-.16.02-.32.04-.48.04-.3 0-1-.21-1-.59l-.02-.32c-.05-.6-.12-1.35.1-1.83a.3.3 0 01.53-.06c.1.16.17.34.24.53h.31c.3 0 .6.01.88.1.1 0 .08.25.04.3-.16.24-.7.36-.95.36l-.29.03v.04c-.02.22-.03.44.05.65.04.09.13.1.21.1.24 0 .47-.05.7-.12.26-.08.56-.2.63-.5.13-.63.04-1.29-.05-1.95a6.37 6.37 0 01-.08-1.84c.01-.16.23-.3.38-.3zm23.84 0c.37.06.48.42.59.75l.05.14c.13.34.05.87-.2 1.14l-.02.01c-.06.04-.13.09-.16.16-.03.08-.03.15-.04.23 0 .08 0 .16-.04.23-.03.05-.08.09-.12.13-.09.07-.17.14-.18.27-.03.41.1.8.24 1.18l.11.34a6.57 6.57 0 01-.72 5.68l-.06.06c-.15.16-.31.35-.56.32-.44-.08-.57-.3-.75-.6l-.15-.25a.58.58 0 00-.17-.14c-.06-.05-.12-.09-.16-.15-.45-.59.35-.9.8-.5l.09.09c.08.09.16.18.28.15.25-.12.53-.34.55-.62l-.03-.43a3.44 3.44 0 01-.04-.41c.28-.68.29-1.2.1-1.94-.24.05-.26.14-.3.33-.02.03-.02.06-.03.1-.08.3-.4.58-.68.83-.12.1-.23.2-.32.3a.62.62 0 01-.36.18c-.08 0-.15-.02-.23-.04a1.35 1.35 0 00-.27-.04c-.2-.09-.36-.42-.17-.6.13-.13.28-.21.43-.3.11-.06.23-.12.33-.2.54-.4.87-.89 1.22-1.47.12-.2.05-.43 0-.64a3.1 3.1 0 01-.05-.17c-.02-.06-.01-.13 0-.2v-.18c-.03-.08-.12-.1-.18-.09-.22.07-.33.2-.45.33-.08.08-.16.17-.26.24-.4.29-.88.4-1.21-.07 0-.17.06-.37.23-.46a7.1 7.1 0 011.21-.7c.16-.05.1-.6.07-.71l-.15-.16c-.28-.3-.53-.55-.63-1-.11-.4.34-.52.66-.58.16 0 .32.07.4.21l.2.4c.08.18.17.36.28.53.1.15.24.13.32 0 .13-.2.2-.42.26-.64.05-.16-.09-.3-.2-.37-.28-.3.15-.72.47-.66zm-28.53.51c.31-.06.53.35.53.61v1.26c-.03.14.06.48.25.48.08.01.16 0 .23-.02h.05c.4 0 .7.28.6.71-.2.2-.59.27-.86.27-.14.02-.3.06-.39.19-.15.23-.22.58-.18.86 0 .16.02.38.17.47.13.06.27.03.41 0l.14-.03c.34-.09.19.58.1.7a.82.82 0 01-.26.15c-.13.06-.26.12-.33.26-.05.18-.02.37.02.55l.03.15c.05.53.04 1.07.04 1.6l-.01.58c-.14.99-.47 1.9-1.67 1.68-.56-.1-1.24-1.3-.63-1.64.16-.08.34-.02.45.09l.36.5c.09.13.27.1.39.03.23-.16.25-.53.27-.78v-.02l.01-.47.02-.47v-.83c0-.38-.27-.52-.64-.47-.17.04-.32.15-.46.25-.17.12-.33.23-.53.26s-.35-.07-.5-.17a.59.59 0 00-.17-.1c-.08-.21.03-.41.14-.57.13-.17.3-.19.5-.2l.05-.01c.14 0 .25-.07.36-.15.07-.04.14-.1.22-.12.08-.03.17-.02.25-.02.1 0 .18 0 .27-.03.23-.17.5-.57.52-.86.03-.28 0-.57-.06-.85a1.5 1.5 0 00-.3-.67c-.13-.15-.35-.12-.52-.04-.29.16-1.14.4-1.33.02-.05-.2-.04-.58.17-.7.24-.15.49-.14.75-.13h.18c.22.04.46.06.66-.04l.06-.04c.16-.09.22-.12.22-.33 0-.2 0-.4-.02-.6-.01-.23-.03-.48-.02-.72l.01-.05c.07-.28.11-.47.45-.54zm2.84.64l-.18.12c-.07 0-.15.12-.22.22a.8.8 0 01-.07.1l-.12.12c-.1.08-.2.16-.2.3.08.22.32.34.54.29.34-.09.66-.26.95-.45.16-.12.35-.4.2-.6a1.1 1.1 0 00-.4-.27c-.2-.03-.35.07-.5.17zm31.95 1.29c.16 0 .37.17.41.31.08.32-.14.78-.3 1.14l-.14.3c-.05.15-.1.3-.1.46.05.39-.37.67-.56.26-.16-.69-.39-2.47.7-2.47zm-2.23.47l-.04-.01c-.48 0-.7.48-.65.9.02.25.11.48.2.71l.1.24c.17.44.05.72-.1 1.05l-.12.3-.17.56a4 4 0 01-.4 1.03c-.3.56-.33 2.05.36 2.29a1.7 1.7 0 001.52-.08c.09-.05.12-.14.15-.23.04-.08.07-.17.14-.22.06.05.1.13.13.2s.05.13.1.18c.27.11.65 0 .56-.37l-.01-.09c-.07-.37-.13-.76-.3-1.1-.17-.33-.5-.58-.86-.63-.14 0-.16.22-.13.32l.18.75c.08.3-.38.45-.59.45-.54.05-.66-.67-.62-1.06.03-.28.15-.51.26-.75.06-.1.1-.21.15-.32a.66.66 0 00.04-.24v-.08c0-.24.11-.5.22-.74.1-.2.18-.38.21-.57v-.53c.01-.56.02-1.13-.04-1.7-.02-.15-.16-.2-.29-.26zm1.77 2.52c.4-.06.46.5.5.87 0 .1.02.2.03.25.05 1.2.7 2.08 1.38 2.98l.1.13c.12.17.33.22.53.27.13.03.25.05.36.1.1.11.15.3.17.45.04.5-.55.55-.93.5l-.16-.04c-.15-.05-.3-.1-.44-.2a2.6 2.6 0 01-.44-.45c-.08-.1-.16-.2-.25-.28a1.55 1.55 0 01-.3-.7c-.1-.5-.28-.88-.51-1.34-.1-.19-.13-.4-.15-.61v-.02c0-.1-.04-.25-.07-.44-.1-.56-.26-1.38.18-1.47zm-16.56 6.6c-.34-.04-.7-.05-1.04.05l-.07.03c-.11.06-.25.12-.26.27-.01.23.3.25.46.25l.47.03c.32.02.64.05.95.05H31c.36.02.7.02.99-.19l-.03-.32-.04-.02-.03-.03-.4.07c-.2.04-.4.07-.61.07l-.11.02-.2.02c-.21.03-.42.02-.63.01h-.1c-.3 0-.6-.09-.9-.17-.2-.06-.39-.11-.58-.14zm15.56 0c.43-.1.87.04 1.27.18h.02c.17.07.38.15.4.36a2.2 2.2 0 01-.41.15c-.39.05-.77.04-1.16.04h-.35l-.09-.01c-.21-.03-.57-.06-.61-.27.06-.28.6-.38.87-.44h.06zm-2.45-.02H41c-.29.16-.78.3-1.1.3-.23.02-.36 0-.52-.18-.12 0-.23 0-.35.02a86.17 86.17 0 01-3.47-.06h-.27a3.83 3.83 0 00-.83.01l-.1.03c-.14.04-.31.1-.36.22 0 .07 0 .14.04.2.28.23 1.03.2 1.6.19.2-.01.37-.02.5 0 1.86.07 3.82.07 5.66-.21a.54.54 0 00.16-.1l.04-.04c0-.26-.3-.36-.52-.38zM9.05 30h.64c.53 0 1.07.07 1.6.13.47.06.93.12 1.39.13 1.13.08 2.26.03 3.39-.02a42.6 42.6 0 013.18-.03c1.1.04 2.22.08 3.33.08.46.03.93.03 1.4.03h.84c.05 0 .09.03.13.06l.05.02c-.02.16-.06.18-.17.21l-.07.03h-.64c-.43-.01-.86-.02-1.28.02-1.89.12-3.77.16-5.66-.02a42.73 42.73 0 00-5.92.14l-.36.01a1.4 1.4 0 01-.35-.05c-.2-.05-.4-.1-.57-.02l-.22.1c-.2.08-.43.18-.62.18-.36 0-.7-.02-1.07-.05-.07-.15-.1-.34-.01-.5.19-.26.66-.45.99-.45zm38.78.21c-.33-.15-.7-.24-1.05-.2-.18 0-.48.22-.48.42.3.17.73.16 1.1.16h.14a5.47 5.47 0 01.39 0l.02-.06c.03-.05.06-.11.05-.17-.02-.07-.09-.1-.14-.13l-.03-.02zM22.04 32c.18.02.37.09.47.25.1.21.03.62-.05.83-.07.31-.2.47-.38.72.1.2.26.37.36.57.01.29-.05.56-.05.85-.06.39.01.74.01 1.12.03.44.06.87.05 1.3 0 .13-.07.28-.2.32a.67.67 0 01-.4-.02c-.41-.13-.18-1.3-.16-1.6.02-.33.02-.66 0-1-.02-.14-.1-.3-.24-.33-.32-.04-.61-.02-.92-.12-.03-.15-.05-.3.15-.34.28-.07.58-.02.86-.1.18-.1.3-.29.36-.48.06-.15-.19-.43-.25-.57a.97.97 0 01.05-.34c.07-.23-.06-.47-.02-.7.05-.14.2-.39.36-.35zm3.19.06c.08-.05.2-.05.24.03.23.36.2.8.2 1.2-.18.94-.2 1.94-.13 2.89.02.4.5.95.91.87.38-.07.73-.42.73-.82.04-.31 0-.63.02-.93 0-.19.2-.29.36-.29.16.1.3.29.3.49-.02.33 0 .67 0 1-.03.28-.12.54-.27.78-.27.3-.7.63-1.11.7h-.19a3.3 3.3 0 01-1.22-.66.68.68 0 01-.19-.46c0-.34-.14-.66-.1-1 0-.28.04-.62.11-.9.04-.18.1-.39.07-.57-.05-.3-.03-.57-.03-.85.03-.22.03-.31-.1-.48-.06-.1-.13-.22-.12-.35.03-.22.34-.54.52-.65zm-5.29.07c.39.48.03 1.21-.02 1.75-.02.1 0 .23.05.33.1.2.23.4.3.6.1.35-.31.33-.3.6v1.78c-.04.25-.02.53-.2.74-.13.15-.4.05-.45-.12-.05-.18-.14-.42-.14-.6-.04-.28.07-.53.12-.8l.02-1.1c.06-.3-.02-.63.1-.91.07-.17.19-.32.19-.5 0-.6-.4-1.03-.34-1.66.02-.24.55-.28.67-.11z" fill="#211814"/><path d="M27.65 32.06c.14.03.21.17.25.3.13.64.15 1.36-.15 1.96-.09.13-.2.28-.36.3-.37.07-.28-.48-.3-.68 0-.41-.09-.84-.02-1.25.07-.31.16-.68.58-.63zm-17.83-.05c.25 0 .52-.03.75.1.2.08.2.44.02.56-.1.07-.2.13-.32.18-.22.12-.78.28-.78.61-.01.3-.02.61.12.89.04.13.17.27.12.42-.05.13-.22.18-.35.14-.42-.13-.72-.33-.8-.79 0-.24.08-.47.15-.7.14-.14.26-.25.26-.47 0-.2.02-.3.16-.47.14-.15.44-.47.67-.47zm1.11.09c.19-.37.9.17 1 .36.23.32.04 1.17-.44.76-.18-.15-.3-.37-.44-.56-.11-.16-.2-.36-.12-.55zm4.05.22c.15-.1.25-.28.43-.31.22-.03.39.14.6.15.4.07.63.4.85.75.14.2.14.5.27.73.16.28.26.8.05 1.08-.09.15-.27.28-.22.48.05.17.2.32.22.5a2.3 2.3 0 01-.26 1.46c-.14.26-.53.2-.67.46-.16.2-.37.4-.66.37-.18-.02-.43.1-.54-.1-.08-.13-.14-.28-.29-.32-.38-.16-.66-.3-.9-.65a2.9 2.9 0 01-.4-1.8c.02-.22.12-.4.23-.58.1-.15.3-.23.47-.28.04.03.08.07.11.12.15.35-.04.7-.04 1.05-.02.75.26 1.44.92 1.83.19.12.45.09.63-.04.29-.21.63-.5.77-.83.1-.22.02-.46.12-.68.07-.16.15-.33.16-.5.02-.16-.04-.3-.09-.45-.1-.34-.14-.7-.23-1.03a1.9 1.9 0 00-.68-.81c-.19-.1-.44-.15-.64-.05a1.5 1.5 0 00-.6.6c-.07.12-.14.26-.27.32-.07.02-.15 0-.19-.06-.1-.17-.07-.38-.07-.57-.03-.52.55-.69.92-.84zm29.45 1.46c.14-.24.56-.77 1.14-.78 1.34-.03 1.8.88 1.8 1.96L47.34 38h-.8v-3.16c0-.61-.27-1.06-.93-1.06-.65-.03-1.03.65-1.05 1.22v3h-.78v-3.37c0-.54-.36-.85-.9-.85-1.13.04-1.07 1.4-1.1 2.25V38H41v-5h.76v.83c.25-.38.65-.83 1.24-.83s.97.13 1.43.78zm-34.65.98l.37-.08c.13 0 .27.09.4.1.15.02.3-.01.45 0 .19.02.35.12.5.22.06.08.14.14.2.21.25.3.23.58.23.93-.01.2.12.38.1.58-.06.49-.45.73-.77 1.06-.1.1-.24.18-.4.16l-.34.02c-.25.04-.5.02-.76.04-.14 0-.3.02-.4-.07-.07-.08-.19-.25-.19-.36-.03-.09-.1-.1-.15-.15-.18-.2-.35-.47-.38-.76 0-.11.03-.27.15-.3.16-.03.34.02.44.16.07.11.06.66.2.67.13 0 .25-.04.37-.05.13.13.36.13.54.17.26.06.7-.29.9-.44.21-.15.18-.5.18-.74s-.24-.42-.44-.52a.41.41 0 00-.25-.08c-.41 0-.9-.34-.95-.77z" fill="#211814"/><path d="M37.85 33.61c.4-.07.85-.03 1.2.16.33.17.54.44.66.73.25.58.28 1.22.07 1.8-.12.37-.36.72-.76.91-.62.3-1.51.22-1.98-.26a2.06 2.06 0 01-.53-1.42c0-.48.1-.97.42-1.38.2-.27.53-.47.92-.54z" fill="#FEE793"/><path d="M29.36 36.52c.2-.07.43-.06.62.04.44.26.49.96.12 1.29-.2.16-.48.17-.71.1-.3-.1-.48-.44-.46-.76 0-.28.16-.58.43-.67z" fill="#D70C19"/><path d="M34.74 36c-.2.79-.83 1.3-1.49 1.3-.79 0-1.55-.73-1.55-1.8s.76-1.8 1.55-1.8c.66 0 1.3.51 1.5 1.3h.7c-.2-1.14-1.11-2-2.2-2-1.24 0-2.25 1.12-2.25 2.5s1 2.5 2.25 2.5c1.09 0 2-.86 2.2-2h-.7z" fill="#211814"/><path fill-rule="evenodd" d="M38.25 37.3c.79 0 1.55-.73 1.55-1.8s-.76-1.8-1.55-1.8-1.55.73-1.55 1.8.76 1.8 1.55 1.8zm0 .7c1.24 0 2.25-1.12 2.25-2.5s-1-2.5-2.25-2.5C37.01 33 36 34.12 36 35.5s1 2.5 2.25 2.5z"/></svg>