<!-- by TradingView --><svg width="56" height="56" viewBox="0 0 56 56" xmlns="http://www.w3.org/2000/svg"><path fill="#F0F3FA" d="M0 0h56v56H0z"/><path d="M25.28 23.94A11.02 11.02 0 0 0 15 34.96c0 2.86 1.08 5.47 2.86 7.43l.76.04C27.28 42.93 31 37.5 31 34.5c0-1.9-1.32-3.63-2.72-5.46-1.2-1.56-2.45-3.2-3-5.1Zm-5.72 19.97A11.02 11.02 0 0 0 37 34.96c0-4.4-2.56-8.2-6.28-9.98.3.37.62.72.93 1.08 1.7 1.92 3.35 3.8 3.35 6.43 0 7.27-9.89 10.57-15.44 11.42Z" fill="#69C5BA"/><path d="M34.8 30.9a11 11 0 0 0 2.44-18.18c-4.13-.43-9.24 1.05-9.24 6.05 0 3.14 1.85 5.24 3.65 7.29 1.34 1.51 2.65 3 3.14 4.84ZM30.3 32H30a11 11 0 1 1 5.1-20.75c-4.14.91-10.1 3.92-10.1 10.73 0 2.78 1.7 4.99 3.28 7.06.77 1 1.5 1.97 2.02 2.96Z" fill="#6776B3"/></svg>