<!-- by TradingView --><svg xmlns="http://www.w3.org/2000/svg" width="56" height="56"><path fill="url(#abhss0qtj)" d="M0 0h56v56H0z"/><path d="M30 28.8L24 24v9h2v-4.5l6 4.5v-9h-2v4.8zM16.5 24a4.38 4.38 0 00-4.5 4.5c0 2.42 1.99 4.5 4.5 4.5 2.63 0 4.5-1.96 4.5-4.5S19.13 24 16.5 24zm0 7a2.4 2.4 0 01-2.5-2.5c0-1.37.9-2.5 2.5-2.5s2.5 1.08 2.5 2.5-.96 2.5-2.5 2.5zm-9.03-3.3C6 27.22 6 26.84 6 26.61c0-.4.4-.62 1.23-.62a3.07 3.07 0 011.56.5l.12.12 1.31-1.35-.12-.12S9.03 24 7.23 24C5.76 24 4 24.85 4 26.54c0 1.76 1.4 2.5 2.87 2.9 1.26.35 1.43.75 1.43.98 0 .34-.35.58-1.19.58-.64 0-1.18-.28-1.46-.42l-.1-.04-.11-.12-1.32 1.2.12.11s1.08 1.16 2.87 1.16c1.41 0 3.11-.82 3.11-2.47 0-1.63-1.41-2.36-2.75-2.73zm41.78.04c-1.47-.47-1.47-.86-1.47-1.09 0-.4.39-.62 1.23-.62.6 0 1.13.28 1.42.43l.13.07.12.12L52 25.29l-.12-.12S50.8 24 49.01 24c-1.48 0-3.23.86-3.23 2.57 0 1.78 1.4 2.53 2.87 2.94 1.25.35 1.42.76 1.42 1 0 .34-.34.58-1.18.58-.64 0-1.19-.28-1.47-.42l-.09-.05-.12-.12-1.32 1.21.12.12S47.1 33 48.9 33c1.4 0 3.11-.83 3.11-2.5 0-1.65-1.42-2.39-2.75-2.76zM35 28.5c0-2.54 1.87-4.5 4.5-4.5s4.5 1.96 4.5 4.5-1.87 4.5-4.5 4.5a4.52 4.52 0 01-4.5-4.5zm2 0c0 1.37.96 2.5 2.5 2.5s2.5-1.08 2.5-2.5-.9-2.5-2.5-2.5-2.5 1.13-2.5 2.5z" fill="#fff"/><defs><linearGradient id="abhss0qtj" x1="10.42" y1="9.71" x2="68.15" y2="76.02" gradientUnits="userSpaceOnUse"><stop stop-color="#1A1E21"/><stop offset="1" stop-color="#06060A"/></linearGradient></defs></svg>