<!-- by TradingView --><svg xmlns="http://www.w3.org/2000/svg" width="56" height="56" viewBox="0 0 56 56"><path fill="#399" d="M0 0h56v56H0z"/><path d="M7.41 26h3.09v-1H7.22c-.77 0-1.34.15-1.69.44-.35.3-.53.76-.53 1.4 0 .6.17 1.03.5 1.3.34.28.87.42 1.6.42h1.57c.34 0 .59.05.73.16.14.1.21.28.21.53s-.08.42-.23.52c-.16.1-.42.23-.8.23H5.5v1h3.29c.76 0 1.32-.14 1.68-.43.35-.3.53-.75.53-1.37 0-.6-.15-1.04-.46-1.3-.31-.26-.83-.4-1.56-.4H7.23c-.28 0-.5-.05-.63-.16-.14-.1-.21-.27-.21-.49 0-.27.08-.47.25-.6.16-.12.42-.25.77-.25zm4.09 1.94c0-1.99.98-2.94 3-2.94 2.04 0 3 .96 3 3 0 2.03-.96 3-3 3-1.95 0-3-1.13-3-3.06zm3-1.95c-.54 0-.95.16-1.21.48-.27.33-.4.82-.4 1.47 0 .72.12 1.24.38 1.57.26.33.67.5 1.23.5.55 0 .96-.17 1.23-.5.26-.33.4-.83.4-1.51 0-.69-.14-1.2-.4-1.52-.27-.33-.68-.5-1.23-.5zm5.13-.99H18v6h1.33v-4.54L21.9 31h1.5v-6H22v4.31L19.63 25zm4.87 2.94c0-1 .25-1.73.74-2.21.5-.49 1.25-.73 2.26-.73 1.02 0 1.78.25 2.27.73.49.5.73 1.25.73 2.27s-.24 1.77-.73 2.26c-.5.5-1.25.74-2.27.74-1.03 0-1.79-.25-2.27-.74-.49-.5-.73-1.27-.73-2.32zm3-1.95c-.54 0-.95.16-1.21.48-.27.33-.4.82-.4 1.47 0 .72.12 1.24.38 1.57.26.33.67.5 1.23.5.55 0 .96-.17 1.23-.5.26-.33.4-.83.4-1.51 0-.69-.14-1.2-.4-1.52-.27-.33-.68-.5-1.23-.5zM34 26h2v5h1.31v-5h1.98v-1H34v1zm8.9 0c-.47 0-.82.16-1.05.39-.24.23-.37.58-.4 1.05H45v1.05h-3.55c0 .52.11.9.33 1.12.23.23.6.39 1.12.39H45v1h-2.17a4.2 4.2 0 0 1-1.12-.12 2.25 2.25 0 0 1-1.47-1.36c-.16-.4-.24-.87-.24-1.41 0-1.07.23-1.85.7-2.35s1.2-.76 2.17-.76H45v1h-2.1zm3.1-1h1.3v2.88L49.5 25h1.48l-2.34 2.93L51 31h-1.56l-2.14-2.98V31H46v-6z" fill="#fff"/><path d="M33 26.5a1.5 1.5 0 0 1 0 3 1.5 1.5 0 0 1 0-3z" fill="#05CFDC"/></svg>