<!-- by TradingView --><svg width="56" height="56" viewBox="0 0 56 56" xmlns="http://www.w3.org/2000/svg"><path fill="url(#a01zt3wj4)" d="M0 0h56v56H0z"/><path fill="#fff" fill-opacity=".21" d="M20 23h2v10h-2zM27 13h2v29h-2zM34 18h2v20h-2zM41 11h2v34h-2zM49 21h2v14h-2z"/><path d="m8.87 25.8-.79.76c-.3-.15-.7-.34-1.07-.34-.36 0-.6.12-.6.49 0 .36.34.44 1 .68 1.14.44 1.59.98 1.59 1.95C9 30.32 8.08 31 7.07 31c-.8 0-1.71-.62-2.07-.93.17-.18.57-.57.81-.73.2.17.82.49 1.26.49.45 0 .84-.2.84-.49 0-.3-.3-.56-1.16-.8-.85-.25-1.56-.76-1.56-1.74 0-.97.94-1.8 1.88-1.8a3 3 0 0 1 1.8.8Z" fill="#F0F3FA"/><path fill-rule="evenodd" d="M12 31a2 2 0 1 0 0-4 2 2 0 0 0 0 4Zm0-1a1 1 0 1 0 0-2 1 1 0 0 0 0 2ZM36 31a2 2 0 1 0 0-4 2 2 0 0 0 0 4Zm0-1a1 1 0 1 0 0-2 1 1 0 0 0 0 2Z" fill="#F0F3FA"/><path d="M16 27h-1v2.5c0 .99.67 1.5 1.5 1.5s1.5-.51 1.5-1.5V27h-1v2.5c0 .4-.22.5-.5.5s-.5-.1-.5-.5V27ZM40 27h-1v2.5c0 .99.67 1.5 1.5 1.5s1.5-.51 1.5-1.5V27h-1v2.5c0 .4-.22.5-.5.5s-.5-.1-.5-.5V27ZM20 31h-1v-2.5c0-.99.67-1.5 1.5-1.5s1.5.51 1.5 1.5V31h-1v-2.5c0-.4-.22-.5-.5-.5s-.5.1-.5.5V31ZM44 31h-1v-2.5c0-.99.67-1.5 1.5-1.5s1.5.51 1.5 1.5V31h-1v-2.5c0-.4-.22-.5-.5-.5s-.5.1-.5.5V31Z" fill="#F0F3FA"/><path fill-rule="evenodd" d="M27 25h-1v2.27A2 2 0 1 0 27 29v-4Zm-1 4a1 1 0 1 0-2 0 1 1 0 0 0 2 0ZM51 25h-1v2.27A2 2 0 1 0 51 29v-4Zm-1 4a1 1 0 1 0-2 0 1 1 0 0 0 2 0Z" fill="#F0F3FA"/><path d="M28 25h1v3h3v-3h1v6h-1v-2h-3v2h-1v-6Z" fill="#F0F3FA"/><defs><linearGradient id="a01zt3wj4" x1="45" y1="5.5" x2="7" y2="48" gradientUnits="userSpaceOnUse"><stop offset=".25" stop-color="#5A4C7D"/><stop offset=".75" stop-color="#E90030"/></linearGradient></defs></svg>