<!-- by TradingView --><svg width="56" height="56" viewBox="0 0 56 56" xmlns="http://www.w3.org/2000/svg"><path fill="#181B1E" d="M0 0h56v56H0z"/><circle cx="28" cy="28" r="16" fill="url(#acbopf54r)"/><path fill-rule="evenodd" d="M27.11 20.3a9.35 9.35 0 0 1-5.45 2.04c-.64 0-1.2-.05-1.67-.13-.5-.07-1 .3-.99.81.35 10.61 6.09 14.4 9 14.98 2.91-.57 8.65-4.37 9-14.98.02-.5-.48-.88-.99-.8-.46.07-1.03.12-1.67.12-1.05 0-3.42-.39-5.45-2.03a1.43 1.43 0 0 0-1.78 0ZM28 24a3 3 0 0 0-3 3v1.02c-.57.12-1 .6-1 1.19v2.58c0 .67.56 1.21 1.25 1.21h5.5c.69 0 1.25-.54 1.25-1.2v-2.6c0-.58-.43-1.06-1-1.18V27a3 3 0 0 0-3-3Zm-3 5h6v3h-6v-3Zm1-2v1h4v-1a2 2 0 1 0-4 0Z" fill="#2C2C2C"/><defs><linearGradient id="acbopf54r" x1="44" y1="28" x2="12" y2="28" gradientUnits="userSpaceOnUse"><stop stop-color="#B1B1B1"/><stop offset="1" stop-color="#E5E5E5"/></linearGradient></defs></svg>