<!-- by TradingView --><svg width="56" height="56" viewBox="0 0 56 56" xmlns="http://www.w3.org/2000/svg"><path fill="url(#asunsrulg)" d="M0 0h56v56H0z"/><path d="M30.68 30.77A20.94 20.94 0 0 0 35.02 18H46c0 5.57-2.22 10.9-6.17 14.84a21.13 21.13 0 0 1-20.39 5.44 21.1 21.1 0 0 0 11.24-7.51Zm-6.66 4.7a20.52 20.52 0 0 1-4.86 1.87l-1.52.38A21.06 21.06 0 0 1 8 31h11.08a20.4 20.4 0 0 0 4.94 4.47Z" fill="#C2A967"/><defs><linearGradient id="asunsrulg" x1="10.42" y1="9.71" x2="68.15" y2="76.02" gradientUnits="userSpaceOnUse"><stop stop-color="#1A1E21"/><stop offset="1" stop-color="#06060A"/></linearGradient></defs></svg>