<!-- by TradingView --><svg width="56" height="56" viewBox="0 0 56 56" xmlns="http://www.w3.org/2000/svg"><path fill="#F0F3FA" d="M0 0h56v56H0z"/><path d="M8 36H6l1-15 1 15Z" fill="url(#angb1cfug)"/><path d="M44 34.25 42 36l.7-21L44 34.25Z" fill="url(#bngb1cfug)"/><path d="M4 31c7.92-5.18 26.63-14.87 48-7.96C44.87 19 23.8 13.74 4 31Z" fill="url(#cngb1cfug)"/><path d="M10.56 29c.39 0 .83.03 1.18.19.05 0 .07.02.08.04l.03.1.08.8c0 .01-.01.02-.03.02l-.05-.01c-.26-.64-.82-1-1.56-1a1.6 1.6 0 0 0-1.62 1.67c0 1 .73 2.07 1.83 2.07.62 0 1.1-.34 1.42-1.03 0-.02.02-.03.04-.02.03 0 .04.01.04.02l-.1.8-.04.1-.07.03c-.4.15-.83.22-1.29.22-1.2 0-2.5-.67-2.5-2.02C8 29.66 9.42 29 10.56 29ZM17.12 33c-.28 0-.53-.07-.75-.2a1.46 1.46 0 0 1-.51-.55 1.59 1.59 0 0 1 .05-1.55c.16-.23.36-.4.6-.52.25-.12.5-.18.76-.18.28 0 .52.07.74.21.21.14.38.32.49.55a1.49 1.49 0 0 1-.03 1.47 1.58 1.58 0 0 1-1.35.77Zm.14-.13c.25 0 .45-.12.6-.34.15-.22.23-.53.23-.93 0-.26-.04-.5-.12-.73-.09-.22-.2-.4-.36-.53a.82.82 0 0 0-.54-.2c-.26 0-.46.1-.6.31-.14.2-.2.5-.2.88 0 .29.04.55.12.79.09.23.2.41.36.54.15.14.32.2.51.2ZM19.77 30.54c0 .16.09.3.26.4.18.1.44.22.8.33.25.1.46.18.6.25.16.06.3.15.4.25.12.11.17.23.17.38s-.07.3-.2.43a1.4 1.4 0 0 1-.57.31 3.98 3.98 0 0 1-2.1-.11c-.04-.02-.07-.06-.08-.13L19 32c0-.02.01-.03.05-.03.03 0 .05 0 .06.02.16.25.37.46.61.63.25.17.53.26.84.26.19 0 .35-.04.48-.11.13-.08.2-.2.2-.35 0-.19-.1-.34-.28-.45a3.96 3.96 0 0 0-.8-.37 9.78 9.78 0 0 1-.59-.23 1.48 1.48 0 0 1-.36-.25.48.48 0 0 1-.15-.35c0-.23.15-.42.44-.55.3-.14.65-.21 1.07-.21a3.67 3.67 0 0 1 1.15.19l.04.07.01.56-.04.03-.07-.01a1.45 1.45 0 0 0-.65-.58 1.3 1.3 0 0 0-.6-.14.83.83 0 0 0-.48.12.35.35 0 0 0-.16.3ZM22.77 30.54c0 .16.09.3.26.4.18.1.44.22.8.33.25.1.46.18.6.25.17.06.3.15.4.25.12.11.17.23.17.38s-.07.3-.2.43a1.4 1.4 0 0 1-.57.31 3.98 3.98 0 0 1-2.1-.11c-.04-.02-.07-.06-.08-.13L22 32c0-.02.02-.03.05-.03.03 0 .05 0 .06.02.16.25.37.46.62.63.24.17.52.26.83.26.19 0 .35-.04.48-.11.13-.08.2-.2.2-.35 0-.19-.1-.34-.28-.45a3.96 3.96 0 0 0-.8-.37 9.78 9.78 0 0 1-.59-.23 1.48 1.48 0 0 1-.36-.25.48.48 0 0 1-.15-.35c0-.23.15-.42.44-.55.3-.14.65-.21 1.07-.21a3.67 3.67 0 0 1 1.15.19l.04.07.01.56-.04.03-.07-.01a1.45 1.45 0 0 0-.65-.58 1.3 1.3 0 0 0-.6-.14.83.83 0 0 0-.48.12.35.35 0 0 0-.16.3ZM36.54 30.75c.44.04.8.16 1.06.35.27.2.4.44.4.72a.9.9 0 0 1-.24.6c-.15.18-.36.32-.64.43-.27.1-.57.15-.9.15H33.8v-.1s.5-.04.5-.44v-2.93c0-.36-.31-.4-.5-.4V29h2.22c.48 0 .85.07 1.1.22.26.14.4.35.4.6 0 .2-.1.38-.27.55-.17.16-.4.29-.71.38Zm-.66-1.62c-.2 0-.9.2-.9.42v1.2h.8c.31 0 .55-.08.72-.24a.86.86 0 0 0 .24-.63.7.7 0 0 0-.22-.56c-.15-.13-.36-.2-.64-.2Zm.2 3.72c.73 0 1.1-.29 1.1-.88 0-.32-.1-.57-.33-.77-.2-.2-.52-.29-.93-.29l-.93.01v1.54c0 .32.84.4 1.1.4Z" fill="#002A54"/><path d="m41.98 32.92.02.04c0 .03 0 .04-.02.04h-1.12c-.08 0-.22-.13-.43-.38-.21-.26-.45-.61-.73-1.05a7.06 7.06 0 0 1-.7.01v.9c0 .4.37.44.7.44l.01.04c0 .03 0 .04-.02.04h-1.67c-.02 0-.02-.01-.02-.04 0-.02 0-.04.02-.04.32 0 .5-.04.5-.44v-1.94a.77.77 0 0 0-.03-.29.21.21 0 0 0-.14-.12c-.07-.02-.2-.02-.35-.02V30h1.78c.37 0 .65.05.84.16.2.1.3.26.3.46 0 .16-.07.32-.19.46-.12.15-.28.26-.5.35.28.38.51.68.7.9.2.21.38.37.54.46.16.09.33.13.5.13ZM39 31.5h.23c.3 0 .7-.09.82-.2.11-.12.17-.29.17-.51 0-.45-.2-.68-.62-.68-.17 0-.47.03-.52.1-.05.05-.08.16-.08.34v.95ZM15.98 32.92l.02.04c0 .03 0 .04-.02.04h-1.12c-.08 0-.22-.13-.43-.38-.21-.26-.45-.61-.73-1.05a7.06 7.06 0 0 1-.7.01v.9c0 .4.37.44.7.44l.01.04c0 .03 0 .04-.02.04h-1.67c-.01 0-.02-.01-.02-.04 0-.02 0-.04.02-.04.32 0 .5-.04.5-.44v-1.94a.77.77 0 0 0-.03-.29.21.21 0 0 0-.14-.12c-.07-.02-.2-.02-.35-.02V30h1.78c.37 0 .65.05.84.16.2.1.3.26.3.46 0 .16-.06.32-.19.46-.12.15-.28.26-.5.35.28.38.51.68.7.9.2.21.38.37.54.46.16.09.33.13.5.13ZM13 31.5h.23c.3 0 .7-.09.82-.2.11-.12.17-.29.17-.51 0-.45-.2-.68-.62-.68-.17 0-.47.03-.52.1-.05.05-.08.16-.08.34v.95ZM45.47 33H44v-.06l.01-.04c.33 0 .45-.15.45-.48V30.5c0-.31-.12-.4-.44-.4l-.01-.04v-.04L45.4 30c.87 0 1.6.6 1.6 1.5 0 .87-.67 1.5-1.53 1.5Zm-.07-.12c.63 0 1-.52 1-1.37 0-.67-.28-1.4-1.05-1.4-.15 0-.2 0-.26.06s-.09.17-.09.33v1.85c0 .18.03.3.09.38.06.08.12.15.3.15ZM48.76 33c-.32 0-.6-.07-.84-.2a1.43 1.43 0 0 1-.73-1.25c0-.32.07-.6.2-.82.15-.24.36-.42.62-.54a2.43 2.43 0 0 1 1.42-.14c.15.03.29.08.4.14.02.02.04.03.04.05l.02.08.04.58s-.01.02-.04.02c-.02 0-.03 0-.03-.02-.26-.52-.61-.78-1.08-.78-.3 0-.55.12-.73.36-.18.23-.27.56-.27.99 0 .28.05.52.14.74.09.2.22.37.39.5.17.1.36.17.6.17a1 1 0 0 0 .38-.06.3.3 0 0 0 .16-.2 1.83 1.83 0 0 0 .01-.68c-.01-.05-.05-.07-.11-.09a1.25 1.25 0 0 0-.3-.02c-.03 0-.04-.02-.04-.05v-.03l.03-.02a8.13 8.13 0 0 0 1.13.03l.02.03c0 .03-.01.04-.03.04-.07 0-.12 0-.15.02-.02.01-.04.05-.05.1v.27a4.07 4.07 0 0 0 .01.58l-.06.03c-.27.11-.65.17-1.15.17Z" fill="#002A54"/><path d="M52.92 32.15c0-.02.02-.02.04-.02.03 0 .04 0 .04.02a6.9 6.9 0 0 0-.08.83c-.01.01-.04.02-.09.02h-2.81c-.01 0-.02-.01-.02-.04 0-.02 0-.04.02-.04.15 0 .26 0 .33-.03a.21.21 0 0 0 .14-.12.83.83 0 0 0 .04-.29v-1.96a.78.78 0 0 0-.04-.28.21.21 0 0 0-.14-.12 1.05 1.05 0 0 0-.33-.04l-.02-.04c0-.03 0-.04.02-.04h2.68c.05 0 .07.02.07.05l.01.4v.3c0 .02 0 .03-.04.03l-.04-.02a.96.96 0 0 0-.37-.48 1 1 0 0 0-.59-.2h-.1c-.13 0-.42.01-.48.04a.21.21 0 0 0-.13.12.95.95 0 0 0-.03.28v.87c.42 0 .9-.01 1.08-.03l.31-.03c.02 0 .03.01.03.04a.3.3 0 0 1 .02.1c0 .04 0 .07-.02.1 0 .04-.01.06-.03.06a12.82 12.82 0 0 0-1.4-.09v.9a1 1 0 0 0 .04.3c.03.05.07.1.13.12.06.02.35.04.48.04h.17c.23 0 .45-.07.65-.21.2-.15.36-.32.46-.54ZM26.17 32.48c0 .34.16.44.61.44V33H25v-.08c.46 0 .62-.1.62-.44v-1.96c0-.34-.17-.44-.62-.44V30h1.78v.08c-.33 0-.5.04-.57.17a.68.68 0 0 0-.04.28v1.95ZM29.98 30c.01 0 .02.01.02.04 0 .02 0 .03-.02.03-.14 0-.25.06-.31.17-.07.11-.1.28-.1.52v2.22l-.03.02h-.04l-1.92-2.49-.01-.01v1.66c0 .23 0 .48.06.58.07.11.16.16.3.16v.1H27v-.1c.14 0 .26-.05.32-.16.07-.1.14-.35.14-.58v-1.8c-.1-.1-.18-.18-.25-.22a.39.39 0 0 0-.21-.07V30h.76c.03 0 .06.01.08.03l.09.13.12.16 1.4 1.82v-1.38c0-.24-.03-.42-.09-.52-.06-.11-.17-.17-.3-.17-.02 0-.02 0-.02-.03l.01-.04h.93ZM31.57 33c-.32 0-.6-.07-.84-.2a1.43 1.43 0 0 1-.73-1.25c0-.32.07-.6.21-.82.15-.24.35-.42.6-.54a2.43 2.43 0 0 1 1.42-.14c.17.03.3.08.4.14l.06.05.01.08.04.58s-.01.02-.04.02c-.02 0-.03 0-.03-.02-.25-.52-.61-.78-1.07-.78-.31 0-.56.12-.74.36-.18.23-.26.56-.26.99 0 .28.04.52.13.74.1.2.22.37.39.5.17.1.37.17.6.17a1 1 0 0 0 .38-.06.3.3 0 0 0 .17-.2 1.83 1.83 0 0 0 0-.68c0-.05-.05-.07-.1-.09a1.25 1.25 0 0 0-.3-.02c-.03 0-.04-.02-.04-.05v-.03l.03-.02a8.13 8.13 0 0 0 1.13.03l.01.03c0 .03-.01.04-.03.04-.07 0-.12 0-.14.02-.03.01-.04.05-.05.1l-.01.27a4.12 4.12 0 0 0 .01.58l-.06.03c-.27.11-.65.17-1.15.17Z" fill="#002A54"/><defs><linearGradient id="angb1cfug" x1="7" y1="22.36" x2="7" y2="36" gradientUnits="userSpaceOnUse"><stop stop-color="#002A54" stop-opacity=".22"/><stop offset="1" stop-color="#002A54"/></linearGradient><linearGradient id="bngb1cfug" x1="42.69" y1="18.23" x2="42.69" y2="34.4" gradientUnits="userSpaceOnUse"><stop stop-color="#002A54" stop-opacity=".13"/><stop offset="1" stop-color="#002A54"/></linearGradient><linearGradient id="cngb1cfug" x1="-2.42" y1="30.63" x2="40.71" y2="21.11" gradientUnits="userSpaceOnUse"><stop stop-color="#F1911E"/><stop offset=".39" stop-color="#F3AD26"/><stop offset="1" stop-color="#F9F33B"/></linearGradient></defs></svg>