<!-- by TradingView --><svg width="56" height="56" viewBox="0 0 56 56" xmlns="http://www.w3.org/2000/svg"><path fill="#F0F3FA" d="M0 0h56v56H0z"/><path d="M28.15 22.09c-1.48.26-2.74 1.44-2.87 2.7l-.07.65 1.29.06c1.24.04 1.3.02 1.65-.6l.37-.67 2.57.15c2.53.15 2.58.15 2.47-.3C33.2 22.77 32 22 28.99 22c-.47 0-.56.04-.84.09ZM46.4 22.13c-2.06.35-2.98 1.2-2.98 2.81V26l2.46.73c1.38.42 3.27 1.11 4.21 1.52.94.4 1.91.75 1.91.75v-.5s-.77-1.6-2.75-2.18c-2.87-.86-3.06-.97-3-1.48.13-.88 2.4-.73 2.75.19.19.5.32.54 1.52.54h1.33l-.13-.8c-.3-1.74-1.9-2.77-4.14-2.74-.38 0-.77.04-1.18.1ZM34 22c.99 1.7 1.35 2.36 2.12 2.36.43.02 1.8.2 3.02.4l2.24.37.66-.94c.37-.52.84-1.22 1.05-1.57l.41-.62h-3.45l-.67 1.18c-.36.64-.7 1.18-.75 1.18-.04 0-.37-.54-.73-1.18L37.23 22H34ZM28.43 26.88C25.8 27.64 25 28.3 25 30c0 1.1.3 2.03 1 2.5.43.28 1.6.51 2.5.5.82-.01 1.57-.02 2.04-.28.46-.22.47-.22.47-.04V33H32c.5 0 .6-.21 1.24-1.18.75-1.16.76-1.2.76-3.33v-2.14l-1.85.02c-1.31 0-2.47.17-3.72.51Zm2.58 2.28C31 30.29 30 31 29 31c-.5 0-.7-.1-.87-.27-.7-.71-.21-1.44 1.23-1.8l1.11-.33c.45-.17.54-.08.54.56ZM36.23 27.16l.47.8-1.55 2.34A27.12 27.12 0 0 0 33.5 33H37l.45-.99c1.07-1.8.96-1.78 1.76-.43L40 33h3.5l-1.63-2.55c-1.48-2.21-1.61-2.5-1.4-2.99.15-.27.22-.55.2-.58-.11-.12-3.41-.53-4.16-.53h-.76l.48.81ZM44.28 27.42c.35.39 2.09 1.05 3.65 1.4.82.17 1.07.2 1.07.68 0 .47-.3.93-1.5.93-.94 0-1.6-.41-1.6-.97 0-.2-.37-.34-1.02-.43-.57-.06-1.26-.17-1.54-.23 0 0-.43.1-.34.81.15 1.16.53 2.17 1.73 2.85.8.45 1.23.54 2.77.54 1.48 0 2-.09 2.73-.5C51.36 31.88 52 31 52 30.44c0-.43-.17-.67-.46-.82a59.67 59.67 0 0 0-6.05-2.17c-1.53-.4-1.57-.4-1.2-.02ZM11.06 18.28a10.32 10.32 0 0 0-4.01 2.17c-1.01.9-2.23 2.68-2.53 3.73l-.16.54.71-.5c.41-.25 1.35-.77 2.13-1.13a5.24 5.24 0 0 0 1.59-1.01c.34-.6 2.55-2.83 3.43-3.48.75-.55.8-.62.32-.6-.28 0-.94.13-1.48.28ZM13.76 18.9c-.68.37-1.88 1.27-2.68 2l-1.41 1.33 1.28-.21c1.46-.24 3.74-.07 5.22.36.53.17 1 .28 1.03.26.13-.13-1-2.6-1.57-3.48l-.6-.94-1.27.68ZM15.57 18.26c0 .04.42.73.94 1.5.51.78 1.1 1.83 1.29 2.34.28.73.58 1.05 1.3 1.44.52.26 1.53.96 2.24 1.54.73.58 1.37.92 1.44.92.06 0 .06-.23-.03-.68-.43-2.34-2.64-5.17-4.89-6.24-1.35-.65-2.3-1-2.3-.82ZM10.89 23.13c-2.1.5-2.53.8-3.22 2.32-.97 2.1-1.33 3.8-1.33 6.14 0 1.13.04 2.06.1 2.06.05 0 1-.58 2.09-1.31a52.04 52.04 0 0 1 8-4.17l1.29-.49-.02-1.16c0-.62-.07-1.59-.17-2.14-.15-1-.15-1.01-1.23-1.23a19.8 19.8 0 0 0-5.51-.02ZM18.76 25.43c.17.92.35 1.7.35 1.71.02.03.73-.17 1.58-.42l1.57-.48-.51-.47c-.5-.47-2.94-2-3.18-2-.06 0 .02.76.2 1.66Z" fill="#0A344F"/><path d="M6 25.45c-1.96 1.57-2.1 1.8-1.96 3.2a9.1 9.1 0 0 0 1.53 4.24l.43.61c-.04-2.56-.06-5.07.79-7.54.21-.64.25-.92.21-.96-.04-.04-.42 0-1 .45ZM21.34 28.17c-2.15.76-2.34.88-2.34 1.7a18 18 0 0 1-1.46 5.3c-.34.69-.54 1.27-.47 1.27.38 0 2.77-1.74 3.47-2.54.84-.92 1.68-2.42 2.06-3.69.35-1.13.54-2.57.33-2.55-.09 0-.82.24-1.6.51ZM14.92 30.99a33.18 33.18 0 0 0-5.21 3.28l-1.68 1.18 1.03.53c1.2.6 2.97 1.02 3.94 1.02.58 0 .76-.11 1.6-1.14a14.14 14.14 0 0 0 2.49-4.55c.45-1.29.5-1.53.26-1.53-.11 0-1.18.54-2.43 1.2Z" fill="#0A344F"/></svg>