<!-- by TradingView --><svg xmlns="http://www.w3.org/2000/svg" width="56" height="56"><path fill="#F0F3FA" d="M0 0h56v56H0z"/><path d="M6 34l2.41-3h2.18l-2.38 3H6z" fill="#92278F"/><rect x="43" y="22" width="4" height="3" rx="1.5" fill="#92278F"/><path d="M10 25.5a3.5 3.5 0 013.5-3.5h24.75a4.17 4.17 0 014.01 3H15a1 1 0 000 2h7.5a3.5 3.5 0 110 7H8.71l2.46-3H21a1 1 0 000-2h-7.5a3.5 3.5 0 01-3.5-3.5zM37.95 30c4.57-.17 4.77-3.14 4.37-4.5H38.1c.16 0 .47.12.47.61 0 .63-.52.88-.78.89h-9.11c-1.39-.04-1.7.97-1.67 1.48V34h4v-3.2c-.02-.67.33-.8.52-.8h6.43zM47 25.5h-4V34h4v-8.5z" fill="#FFCA18"/></svg>