<!-- by TradingView --><svg width="56" height="56" viewBox="0 0 56 56" xmlns="http://www.w3.org/2000/svg"><path fill="#F0F3FA" d="M0 0h56v56H0z"/><path d="m42 24.46-7.88.44 7.56-1.76.32 1.32Z" fill="#27BB05"/><path d="m36.95 26.96-6.16-.5 5.86 1.7.3-1.2Z" fill="#0A06C4"/><path d="m24.76 22.05-.52.57 1.53 1.83-1.01-2.4Z" fill="#F6004F"/><path d="m24.1 21.72-1.58-2.06.53-.53 1.04 2.59Z" fill="#27BB05"/><path d="m25.79 22.78-1.34-3.18.66-.56.68 3.74Z" fill="#FA6C18"/><path d="m26.83 20.8-.75.36.56 2.85.2-3.21Z" fill="#27BB05"/><path d="m26.62 16.23-.73.38.53 3.41.2-3.79Z" fill="#FA6C18"/><path d="M28.64 17.74h-.9l-.38 4.6 1.28-4.6Z" fill="#F6004F"/><path d="M31.9 15h-.96l-1.46 4.5L31.9 15Z" fill="#0A06C4"/><path d="m29.4 20.83-.87-.23-.9 3.24 1.78-3Z" fill="#FA6C18"/><path d="m32.9 18.38-.87-.43-2.97 4.81 3.85-4.38Z" fill="#27BB05"/><path d="m31.76 22.47-.78-.75-2.65 2.84 3.43-2.1Z" fill="#0A06C4"/><path d="m37.95 17.42-.86-.74-4.67 4.54 5.53-3.8Z" fill="#FA6C18"/><path d="m35.79 21.14-5.56 3.14 6.15-2.01-.6-1.13ZM20.9 22.8l-.28.64 2 .59-1.73-1.23Z" fill="#F6004F"/><path d="m23.4 24.09-.26.64 2 .6-1.73-1.24Z" fill="#FA6C18"/><path d="m22.67 21.72-.44.64 2.38 1.73-1.94-2.37Z" fill="#0A06C4"/><path d="m21.36 28.28 2.66-.82-2.47 1.57-.19-.75Z" fill="#F6004F"/><path d="M20 26.7h2.14l-2.14.9v-.9Z" fill="#0A06C4"/><path d="M22.9 26.37h2.13l-2.14.89v-.9Z" fill="#FA6C18"/><path d="M21.38 25.77h2.45l-2.45-.9v.9Z" fill="#27BB05"/><path d="M32.8 25.77h-4.09l4.1-1.21v1.21Z" fill="#FA6C18"/><path d="m47.83 30.57-.05.23c-.03.14-.2.2-.32.13-.21-.13-.5-.25-.82-.25-.6 0-.64.34-.64.66s.26.53.74.77c.92.39 1.26.89 1.26 1.54 0 1.1-1 1.35-1.74 1.35-.39 0-1.26-.42-1.26-.7 0-.21.07-.4.1-.48.2.16.71.49 1.16.49.55 0 .74-.3.74-.66 0-.38-.01-.6-.65-.92-.65-.33-1.35-.6-1.35-1.4 0-.78.77-1.33 1.64-1.33.6 0 1 .25 1.15.42.04.04.05.1.04.15ZM39 34.93v-3.79c0-.4-.56-1.14-1.9-1.14-1.17 0-1.86.54-1.86.73 0 .2.04.76.21.76.18 0 .91-.49 1.65-.49.73 0 .9.1.9.37V32c-1.1 0-3 0-3 1.6 0 .72.79 1.4 1.6 1.4.58 0 1.11-.4 1.45-.67.1.26.45.6.95.6Zm-1-1.23c-.22.2-.6.3-1.24.3-.33 0-.76-.08-.76-.4 0-.52.45-.6 1.43-.6H38v.7ZM31.15 29.1a.2.2 0 0 0-.15.19V35h3.8a.2.2 0 0 0 .2-.2v-.6a.2.2 0 0 0-.2-.2H32v-4.87a.2.2 0 0 0-.25-.2l-.6.16Z"/><path fill-rule="evenodd" d="M40.14 28.2a.2.2 0 0 0-.14.19V35h1v-.5c.31.31.7.5 1.13.5 1.03 0 1.87-1.12 1.87-2.5s-.84-2.5-1.87-2.5c-.43 0-.82.19-1.13.5v-2.3a.2.2 0 0 0-.26-.2l-.6.2Zm.86 4.3c0 .83.45 1.5 1 1.5s1-.67 1-1.5-.45-1.5-1-1.5-1 .67-1 1.5Z"/><path d="M10.27 29.95c-.69 0-1 .22-1 .69 0 .64.72.73 1.31.91.8.25 1.42.65 1.42 1.7C12 34.3 11.43 35 9.9 35a3.2 3.2 0 0 1-1.35-.25c-.4-.2-.55-.46-.55-.86 0-.2.03-.27.12-.27.05 0 .13.03.24.08.46.2.84.35 1.45.35.55 0 .9-.11.9-.73 0-.67-.45-.82-1.02-.97-.82-.22-1.69-.67-1.69-1.66C8 29.5 9.01 29 10.22 29c.58 0 1.07.11 1.37.36.26.22.3.47.3.67 0 .22-.05.3-.27.21-.41-.16-.77-.29-1.35-.29ZM15.19 35.09c-.5 0-.67-.15-.93-.4v1.88c0 .36-.05.43-.4.43h-.45c-.35 0-.41-.07-.41-.43v-5.13c0-.3 0-.38.2-.38.43 0 .88.14.99.43.28-.3.45-.49 1-.49 1.16 0 1.81.84 1.81 2.06 0 1.2-.63 2.03-1.81 2.03Zm-1-2.04c0 .54.08 1.03.73 1.03s.74-.5.74-1.03c0-.54-.1-1.04-.74-1.04-.66 0-.73.5-.73 1.04ZM18 33.76c0-.8.5-1.16 1.77-1.16.4 0 .7.05 1.03.07v-.1c0-.58-.59-.65-1.03-.65-.38 0-.65.02-1.04.09-.35.07-.39.03-.39-.16 0-.46.2-.64.52-.73.3-.09.73-.12 1.14-.12.59 0 2 .12 2 1.4v2.21c0 .29 0 .37-.23.37-.46 0-.74-.11-.88-.38-.24.2-.62.4-1.34.4-1.05 0-1.55-.45-1.55-1.24Zm1.9.38c.41 0 .67-.09.9-.25v-.41a4.4 4.4 0 0 0-.74-.05c-.57 0-.87.05-.87.33 0 .26.24.38.72.38ZM25.27 31.94c-.75 0-1.07.47-1.08 1.29v1.04c0 .44-.73.65-.73.65s-.46.35-.46-.41v-3.03c0-.28 0-.37.23-.37.54 0 .82.16.91.51.24-.46.63-.62 1.08-.62.6 0 .78.28.78.77 0 .2-.03.24-.25.22-.25-.03-.35-.05-.48-.05ZM28 27.07v5.05l.74-1.14c.32-.5.36-.56.7-.56h.3c.27 0 .33.22.18.45l-1.12 1.55 1.12 2.13c.05.1.08.2.08.27 0 .1-.06.18-.22.18h-.33c-.27 0-.38-.03-.54-.38L28 32.67v1.36c0 .5-.41.97-.76.97-.24 0-.24-.08-.24-.51v-6.9c.09-.43.87-.74 1-.52Z"/></svg>