<!-- by TradingView --><svg width="56" height="56" fill="none" xmlns="http://www.w3.org/2000/svg"><path fill="#F0F3FA" d="M0 0h56v56H0z"/><path d="M13 31h-2l2-7h3l2 7h-2l-1.5-5.5L13 31Z" fill="#00287B"/><path fill-rule="evenodd" clip-rule="evenodd" d="M26 26.5c0-1.993-1.88-2.5-3.5-2.5H19v7h2v-2c.34.012 1.52 0 2-.004l-.288.006c1.777-.014 3.288-.4 3.288-2.502Zm-2 0c0 1.014-.752.997-1.5 1-.437.002-1.433.006-1.5 0v-2c.148-.018 1.106-.006 1.5 0 .727.01 1.5.035 1.5 1Z" fill="#00287B"/><path d="M27 24h2v7h-2v-7ZM36 24h-5v7h5v-1.5h-3v-1.25h3v-1.5h-3V25.5h3V24ZM39 31h-2v-7h2l3 4v-4h2v7h-2l-3-4v4ZM10 25.5V24H6.5c-1 0-2.5 0-2.5 2 0 2.5.5 2.5 3 2.5 1 0 1.5-.125 1.5.5 0 .5 0 .5-1.5.5H4V31h4.5c1.5 0 1.5-.656 1.5-2 0-1.344 0-2-1.5-2-3 0-3 0-3-1 0-.5.5-.5 1.5-.5h3ZM51 25.5V24h-3.5c-1 0-2.5 0-2.5 2s.5 2.5 3 2.5c1 0 1.5-.125 1.5.5 0 .5 0 .5-1.5.5h-3V31h4.5c1.5 0 1.5-1 1.5-2s0-2-1.5-2c-3 0-3 0-3-1 0-.5.5-.5 1.5-.5h3Z" fill="#00287B"/><path d="M14.294 29.941c-2.117.367-4.412-1.07-5.294-1.834.882.306 2.965.917 4.235.917 1.588 0 3.177-1.376 3.706-1.834.53-.459 1.059 0 1.059.458 0 .459-1.059 1.835-3.706 2.293Z" fill="#00BDFF"/></svg>