<!-- by TradingView --><svg width="56" height="56" viewBox="0 0 56 56" xmlns="http://www.w3.org/2000/svg"><path fill="#ED1C24" d="M0 0h56v56H0z"/><path d="M24.43 12.4a16.03 16.03 0 0 0-11.2 9.42l13.1 14.44 11.2 3.22-1.07-11.3L24.43 12.4ZM12.9 22.7a15.98 15.98 0 0 0-.74 7.57l4.7 3.27 7.93 2.28-11.9-13.12Zm-.53 8.75.22.86 1.75.5-1.97-1.36Zm.52 1.83a16 16 0 0 0 3.58 5.82l7.37.33-7.35-5.12-3.6-1.03Zm4.5 6.7a15.94 15.94 0 0 0 12.8 3.87l-5.05-3.52-7.74-.35Zm13.99 3.66.41-.1-2.76-3.04-2.31-.1 4.66 3.24Zm1.32-.34a15.94 15.94 0 0 0 4.79-2.42l-7.27-.32 2.48 2.74Zm6.17-3.55c1.3-1.2 2.39-2.62 3.23-4.18l-2.31-3.04-.92 7.21Zm3.65-5.02c.1-.2.19-.41.27-.62l-2.51-5.42-.34 2.65 2.58 3.39Zm.69-1.74a15.99 15.99 0 0 0-1.74-13.63l-.99 7.76 2.73 5.87Zm-2.46-14.65a16.08 16.08 0 0 0-4.76-4.2l.39 4.14 3.43 7.4.94-7.34Zm-5.65-4.68c-.36-.18-.72-.35-1.1-.5L35.32 16l-.22-2.33Zm-2.21-.9a16 16 0 0 0-7.54-.54L36.3 26.59l-.76-8.09-2.66-5.74Zm5.35 25.26-.81-8.58 1.63 2.14-.82 6.44Zm1.37-10.77-.4 3.14-1.93-2.53-.67-7.07 3 6.46ZM29.42 39.68l6.8.3-8.82-2.53 2.02 2.23ZM19 35.03l6.86 1.98 2.38 2.62-2.82-.13L19 35.03Z" fill="#fff"/></svg>