<!-- by TradingView --><svg xmlns="http://www.w3.org/2000/svg" width="56" height="56" viewBox="0 0 56 56"><path fill="#F0F3FA" d="M0 0h56v56H0z"/><path fill-rule="evenodd" d="M49 15.69c-1.78-.18-5.97-.57-8.18-.67-2.76-.13-5.3.4-5.35 2.41-.04 2.01 2.6 2.5 5.03 2.48 2.44-.02 6.1-.69 8.5-4.22Zm-1.15.42c-1.56-.14-5.16-.44-7.1-.51-2.42-.1-4.65.3-4.69 1.84-.04 1.54 2.27 1.92 4.41 1.9 2.14-.01 5.28-.53 7.38-3.23Z" fill="#3D4643"/><path fill-rule="evenodd" d="M41.45 17.63c-1.5-.15-4.95-.47-6.8-.56-2.32-.1-4.46.35-4.5 2.03-.03 1.69 2.18 2.1 4.23 2.09 2.04-.02 5.05-.58 7.07-3.56Zm-1.01.41c-1.27-.11-4.2-.35-5.77-.41-1.96-.08-3.78.25-3.8 1.5-.04 1.24 1.84 1.55 3.57 1.54 1.74-.01 4.3-.43 6-2.63Z" fill="#12A6B3"/><path fill-rule="evenodd" d="M35.13 19.4c-1.23-.13-4.08-.4-5.62-.47-1.92-.09-3.69.28-3.72 1.68-.03 1.4 1.8 1.74 3.5 1.72a6.82 6.82 0 0 0 5.84-2.94Zm-1.04.35c-1.01-.09-3.34-.28-4.59-.33-1.56-.06-3 .2-3.03 1.2-.02.99 1.47 1.23 2.85 1.22 1.38-.01 3.41-.34 4.77-2.09ZM40 31.38c-2.12 1.18-4.65.62-5.64-1.25-1-1.87-.1-4.33 2.02-5.51 1.85-1.04 4.02-.73 5.2.62l-1.33 1.66c-.5-.78-1.66-.97-2.66-.42-1.04.58-1.5 1.75-1.04 2.62.46.86 1.68 1.1 2.72.52.34-.2.62-.45.83-.74l.67 1.97c-.24.2-.5.38-.78.53ZM22.86 28.5l-.6 3.5h-2.4l1.35-8h2.41l-.27 1.62c1.05-1.47 2.3-1.69 2.82-1.6l-.46 2.64c-1.36-.29-2.33.83-2.85 1.84ZM12.79 24h2.41l-.15.89c1-.86 2.25-1.15 3.3-.64 1.58.78 2.11 3.08 1.18 5.15-.93 2.07-2.97 3.12-4.56 2.35-.4-.2-.72-.49-.98-.84l-.63 3.59h-2.42L12.8 24Zm2.42 5.8c.7.34 1.62-.18 2.06-1.17.44-.98.24-2.05-.46-2.39-.7-.34-1.61.19-2.06 1.17-.44.98-.23 2.05.46 2.39Zm-3.48-4.9a4.46 4.46 0 0 0-2.59-.9c-1.53-.02-3.04.79-3.21 2.52-.14 1.38 1.6 2.3 2.5 2.59.16.06.47.22.42.42-.06.26-.76 1.05-2.64-.28L5 30.92A4.8 4.8 0 0 0 8.23 32c2.1-.03 2.9-1.48 2.87-2.47-.04-.99-.5-1.83-2.48-2.67-.13-.04-.4-.17-.4-.41 0-.3.92-.9 2.45.17l1.06-1.72ZM26.9 24l-.92 5.05c-.2.98-.06 2.95 2.14 2.95a3.1 3.1 0 0 0 2.38-1.24L30.3 32h2.38l1.39-8h-2.42l-.63 3.5c-.16.7-.74 2.08-1.76 2.13-.98.05-.76-1.1-.63-1.82l.02-.1.7-3.71H26.9Zm14.36 6.05c1 1.9 3.43 2.52 5.43 1.38.35-.2.66-.43.93-.7l-.67-1.61c-1.03.95-3.16 1.6-3.58-.67h4.62c.3-.5.72-1.95-.13-3.39a4 4 0 0 0-4.78-.5c-2 1.14-2.82 3.6-1.82 5.5Zm3.85-4.12c-.81-.03-1.25.7-1.36 1.07h2.17c.07-.34 0-1.05-.81-1.07Z" fill="#3D4643"/><path fill-rule="evenodd" d="M17.04 33h-1.5l-.7 4h1.41c.67-.03 1.11-.66 1.14-1.26a.97.97 0 0 0-.42-.86c.19-.08.56-.4.6-1.04.04-.64-.34-.83-.53-.84Zm-.25.33h-.95l-.25 1.38h.95a.89.89 0 0 0 .65-.82c.02-.44-.26-.56-.4-.56Zm-1.24 1.74h1.01c.16.02.48.18.46.66-.02.6-.48.9-.77.9h-.98l.28-1.56Z" fill="#12A6B3"/><path d="M18.58 33h.38l-.68 4h-.37l.67-4ZM30.12 33h.37l-.67 4h-.38l.68-4Z" fill="#12A6B3"/><path fill-rule="evenodd" d="M19.69 36.56c.68.69 1.85.56 2.62-.3.77-.86.84-2.12.15-2.82-.68-.69-1.85-.56-2.62.3-.76.86-.83 2.12-.15 2.82Zm.21-.25c.58.58 1.57.47 2.22-.26.64-.72.7-1.78.13-2.37-.58-.59-1.57-.47-2.21.25-.65.73-.71 1.79-.14 2.38Z" fill="#12A6B3"/><path d="M24.8 33c.45.01.8.26.9.38l-.2.28c-.17-.24-.53-.29-.7-.28-.54 0-.9.33-.9.62 0 .17 0 .51.51.77.76.38.94.66.98 1.07.04.41-.4 1.17-1.18 1.16-.63 0-1.03-.33-1.16-.5l.25-.28c.12.13.45.44.91.41a.84.84 0 0 0 .78-.79c0-.29-.25-.5-.39-.56-.36-.18-1.1-.43-1.07-1.16.03-.8.73-1.14 1.28-1.12ZM44.91 33c.44.01.79.26.9.38l-.2.28c-.18-.24-.54-.29-.7-.28-.55 0-.9.33-.9.62 0 .17 0 .51.51.77.76.38.93.66.97 1.07.04.41-.4 1.17-1.18 1.16-.62 0-1.03-.33-1.16-.5l.26-.28c.12.13.45.44.9.41a.84.84 0 0 0 .79-.79c0-.29-.26-.5-.4-.56-.35-.18-1.1-.43-1.06-1.16.03-.8.73-1.14 1.27-1.12ZM28.87 36.38c-.76.75-1.86.84-2.5.18-.68-.7-.61-1.96.15-2.82.77-.86 1.94-.99 2.62-.3l.12.14-.22.23a1.29 1.29 0 0 0-.11-.13c-.58-.59-1.57-.47-2.22.25-.64.73-.7 1.79-.13 2.38.55.55 1.47.48 2.11-.15l.18.22ZM40.15 36.38c-.76.75-1.85.84-2.5.18-.68-.7-.61-1.96.16-2.82.76-.86 1.94-.99 2.62-.3l.11.14-.22.23a1.28 1.28 0 0 0-.11-.13c-.57-.59-1.57-.47-2.21.25-.65.73-.7 1.79-.13 2.38.54.55 1.46.48 2.1-.15l.18.22ZM31.7 33h-.36l-.68 4h2.07l.09-.34h-1.73l.26-1.52h1.33l.08-.34H31.4l.25-1.46h1.65l.08-.34h-1.67ZM43.43 33H41.4l-.68 4h2.07l.09-.34h-1.73l.26-1.52h1.33l.08-.34h-1.35l.24-1.46h1.66l.07-.34ZM34.1 33l-.7 4h.37l.57-3.35L35.86 37h.36l.65-4h-.35l-.56 3.34L34.44 33h-.33Z" fill="#12A6B3"/></svg>