<!-- by TradingView --><svg width="56" height="56" xmlns="http://www.w3.org/2000/svg"><path fill="#00ABE6" d="M0 0h56v56H0z"/><path d="M43.93 26.62c-.022-.269-.056-.515-.079-.728-.033-.212-.056-.402-.09-.548-.045-.268-.079-.414-.079-.414 0-.022-.011-.045-.011-.067a.158.158 0 00-.023-.067c-.845-3.369-2.648-6.044-5.105-7.532-1.883-1.142-4.047-1.5-6.098-.996l-7.123 1.746a2.166 2.166 0 00-.237.044l-3.213.795a5.32 5.32 0 00-1.566.716c-.462.314-.89.672-1.263 1.075-.371.403-.687.839-.935 1.31-.248.47-.406.917-.462 1.364-.068.493-.034.918.101 1.287.136.37.35.66.643.884.282.224.642.359 1.048.426s.857.045 1.33-.067l1.296-.336c.282-.056.519-.023.71.123.192.145.26.358.226.66-.046.291-.192.56-.44.817-.248.258-.53.426-.811.504l-4.024 1.052a1.932 1.932 0 00-.541.235c-1.578.85-1.42 2.608-1.42 2.608l4.88-1.287.744-.19c.496-.146.98-.359 1.442-.661.316-.201.61-.425.88-.683l-.508 3.525-.597 4.108s2.243-.157 2.728-2.563a.855.855 0 00.022-.168c.045-.112.068-.224.09-.336l.102-.56 2.017-.514a6.313 6.313 0 001.815-.795c.068-.044.124-.078.18-.123-.01.045-.022.09-.022.135-.068.492-.034.917.101 1.287.147.369.35.66.643.884.293.224.642.358 1.048.425s.857.045 1.33-.067l1.296-.336c.282-.056.53-.022.71.123.192.146.26.358.226.66-.045.291-.192.56-.44.817-.248.258-.53.426-.811.504l-4.712 1.153h-.011l-6.943 1.678c-1.477.359-2.998.101-4.373-.727-1.961-1.186-3.415-3.402-4.103-6.234v-.01c-.011-.057-.045-.18-.09-.37a5.59 5.59 0 00-.102-.436c-.033-.18-.079-.381-.112-.616a13.977 13.977 0 01-.056-3.906c.1-.806.281-1.678.563-2.574a13.52 13.52 0 011.195-2.708 14.479 14.479 0 011.882-2.574l.135-.157.023-.022c-.023.022 0 0 0 0l.011-.011.034-.034.079-.078.304-.303c.101-.111.203-.19.304-.29l.305-.28c.203-.18.428-.358.642-.537.226-.168.44-.336.676-.493a14.958 14.958 0 012.953-1.578c1.037-.414 2.108-.671 3.168-.84.135-.022.259-.033.394-.055.068-.011.147-.023.214-.023a.335.335 0 00.282-.369c-.011-.156-.146-.28-.293-.302-.09 0-.18.011-.27.011l-.418.034c-1.115.1-2.265.313-3.392.682a16.5 16.5 0 00-3.269 1.489c-.259.157-.507.324-.766.492-.248.18-.485.347-.733.537l-.36.291c-.124.101-.237.19-.35.291l-.26.28-.078.067-.045.045-.056.045-.158.157a15.752 15.752 0 00-3.753 5.64 15.977 15.977 0 00-.823 2.854c-.17.906-.248 1.757-.27 2.507-.023.75.01 1.41.067 1.958.022.269.056.515.079.728.033.212.056.402.09.537.045.268.079.414.079.414 0 .022.01.045.01.067 0 .022.012.045.024.056.845 3.368 2.648 6.043 5.105 7.532 1.33.806 2.796 1.22 4.26 1.22.61 0 1.23-.068 1.838-.213l5.895-1.421a5.42 5.42 0 01.18-.034l2.018-.492.732-.18c.023 0 .034-.01.057-.01l1.916-.47a5.39 5.39 0 001.443-.66 6.56 6.56 0 001.25-1.042 6.01 6.01 0 00.925-1.287c.248-.47.406-.929.473-1.399.068-.48.034-.906-.101-1.276a2.124 2.124 0 00-.643-.906 2.216 2.216 0 00-1.048-.448 3.043 3.043 0 00-1.296.079l-1.274.324c-.304.079-.54.045-.721-.1-.18-.146-.26-.359-.225-.627a1.71 1.71 0 01.44-.862c.236-.257.506-.436.8-.503l4.406-1.12c.18-.044.35-.123.508-.212 1.6-.828 1.454-2.608 1.454-2.608l-1.454.37c-.057.01-.102.022-.158.033l-4.407 1.12c-.372.089-.733.245-1.093.436.078-.258.135-.515.169-.773.09-.593.045-1.13-.113-1.6a2.417 2.417 0 00-.778-1.141 2.658 2.658 0 00-1.319-.56c-.518-.09-1.093-.045-1.724.112l-3.28.84a1.114 1.114 0 00-.18.055v-.011a2.032 2.032 0 00-.643-.906 2.216 2.216 0 00-1.048-.448 3.043 3.043 0 00-1.296.078l-1.274.325c-.304.078-.54.045-.721-.101-.18-.145-.26-.347-.226-.627a1.71 1.71 0 01.44-.861c.237-.258.507-.437.8-.504l2.581-.66 8.96-2.171c1.477-.359 2.999-.101 4.374.727 1.961 1.186 3.415 3.402 4.103 6.234v.01c.011.057.045.18.09.37.023.123.056.269.101.448.034.179.08.391.113.615.068.47.135 1.041.158 1.701a14.163 14.163 0 01-1.882 7.52c-.519.896-1.15 1.78-1.894 2.586l-.135.146-.147.156c-.101.112-.203.202-.293.291-.191.19-.406.38-.608.56a14.92 14.92 0 01-1.342 1.007 14.552 14.552 0 01-2.998 1.533 15.742 15.742 0 01-3.178.85c-.27.046-.53.08-.8.113a.354.354 0 00-.237.358c.011.157.135.28.282.302.281-.011.563-.034.845-.067a18.65 18.65 0 003.392-.694 16.518 16.518 0 003.303-1.444c.53-.302 1.037-.638 1.522-1.007.236-.19.473-.37.71-.57.112-.101.236-.202.338-.303l.158-.145.169-.168a15.505 15.505 0 002.254-2.708 15.91 15.91 0 002.344-5.809c.18-.906.248-1.757.27-2.518.012-.75-.022-1.41-.067-1.947zm-17.459-.224l2.018-.515c.27-.067.53-.09.766-.044.237.033.428.123.598.257.157.134.281.302.349.515.067.212.09.447.056.716a2.2 2.2 0 01-.27.806 3.245 3.245 0 01-.53.727 3.99 3.99 0 01-.71.593c-.26.168-.53.28-.812.358l-2.028.515.563-3.928z" fill="#fff"/></svg>