<!-- by TradingView --><svg xmlns="http://www.w3.org/2000/svg" width="56" height="56"><path fill="#055A2C" d="M0 0h56v56H0z"/><path d="M14.43 30.32c-.1.03-.13.06-.13.17v.1l.3 1.25c.1-.49.16-.94.26-1.42-.03-.2-.1-.28-.26-.17v-.38c.36-.14.72-.32 1.08-.45v.38c-.03 0-.03.03-.06.03-.13.04-.16.07-.16.17v.1c.1.42.19.87.26 1.29l.3-1.49v-.1c0-.1-.07-.07-.2-.04v-.38l.85-.31v.38c-.13.03-.19.14-.26.35-.16.76-.3 1.52-.46 2.25-.23.1-.45.17-.69.28-.06-.35-.12-.7-.23-1.04-.06.42-.16.8-.23 1.22l-.69.31-.45-1.8c-.07-.2-.13-.28-.27-.2v-.39c.33-.17.66-.3 1.01-.45a1 1 0 01.03.34zm3.82.58c.03 0 .06-.03.1-.03.12-.04.19-.07.19-.14v-.1c-.04-.1-.07-.17-.07-.28-.19.07-.39.1-.58.17-.03.1-.03.17-.07.28-.03.07-.03.1-.03.17 0 .03.07.07.16.03l.1-.03v.38c-.33.1-.66.2-.98.32v-.39l.1-.03c.13-.03.19-.17.23-.35l.58-2.25.82-.24c.16.62.36 1.28.52 1.93.06.2.06.28.23.25.03 0 .07-.04.13-.04v.39c-.46.1-.91.24-1.37.38-.06-.17-.06-.32-.06-.42zm-.13-1.7c-.06.32-.13.59-.2.9l.4-.1c-.04-.27-.14-.52-.2-.8zm2.45-.65c0-.2 0-.25-.2-.2-.03 0-.06.03-.12.03V28a24.7 24.7 0 011.57-.35c.55-.1.81.07.81.55 0 .32-.16.55-.49.7.36 0 .4.2.4.73 0 .17.03.24.1.24.06 0 .09-.1.09-.31v-.1c.06 0 .16-.04.23-.04v.1c0 .52-.16.77-.55.84-.43.07-.59-.1-.59-.55v-.25c0-.35-.03-.42-.32-.38-.07 0-.13.03-.2.03v.62c0 .2 0 .25.2.2.03 0 .1 0 .12-.03v.38c-.45.1-.9.17-1.36.28v-.38c.03 0 .06-.03.12-.03.16-.04.2-.07.2-.28l-.01-1.42zm.94.31c.27-.03.4-.13.4-.41 0-.28-.1-.35-.37-.32-.06 0-.16.04-.23.04v.73c.07 0 .14-.04.2-.04zm4.63-.69c-.12 0-.23 0-.36.03-.03-.24-.1-.38-.16-.48-.1-.14-.26-.14-.45-.1h-.07c-.1 0-.19.03-.3.03v.76h.1c.2-.03.3-.13.3-.45v-.03c.1 0 .2 0 .3-.03v1.24c-.1 0-.2 0-.3.04 0-.35-.03-.45-.26-.45h-.1v.86l.33-.03h.06c.23-.03.4-.03.46-.17s.1-.35.13-.59c.12 0 .26 0 .39-.03v1.15c-.82.03-1.63.1-2.42.2v-.38h.13c.2-.04.2-.07.2-.25v-1.52c0-.2 0-.24-.2-.2h-.1v-.38c.82-.1 1.6-.17 2.42-.2-.1.3-.1.63-.1.98zm2.16-.69h-.04c-.16 0-.16.03-.16.25v.48h.66v-.48c0-.17 0-.25-.16-.25h-.03v-.38l1.27.03v.38h-.13c-.16 0-.19.04-.19.25v1.49c0 .2 0 .24.2.24h.12v.38c-.42-.03-.85-.03-1.27-.03v-.38h.03c.16 0 .16-.04.16-.25v-.62h-.66v.62c0 .17 0 .25.16.25h.04v.38h-1.28v-.38h.13c.2 0 .2-.07.2-.25v-1.48c0-.2 0-.25-.2-.25h-.13v-.38c.43 0 .85-.04 1.28 0v.38zm3.55-.25c.85.1 1.33.73 1.33 1.63 0 .9-.48 1.39-1.33 1.29-.85-.1-1.34-.7-1.34-1.6.03-.9.52-1.42 1.34-1.32zm-.43 1.39c0 .7.13 1.03.46 1.1.33.04.46-.28.46-.97 0-.7-.13-1.07-.46-1.1-.33-.03-.46.28-.46.97zm3.85 1.66c.33.07.43-.07.43-.45v-1.25c0-.2 0-.24-.2-.28-.03 0-.06 0-.12-.03v-.38c.36.07.68.17 1.04.24v.39c-.04 0-.07-.04-.1-.04-.16-.03-.2 0-.2.17v1.32c0 .58-.35.8-1.03.65-.62-.14-.98-.52-.98-1.04v-1.34c0-.2-.03-.25-.19-.28-.03 0-.06 0-.13-.04v-.38c.46.07.91.17 1.37.28v.38l-.13-.03c-.16-.04-.19 0-.19.2v1.21c.07.42.14.63.43.7zm2.28-.1c.1.45.36.8.69.9.2.07.33 0 .33-.17 0-.25-.23-.35-.59-.59a2.3 2.3 0 01-.55-.41.98.98 0 01-.26-.7c0-.55.36-.83.91-.65.26.07.49.2.75.45.03-.04.03-.07.07-.1l.32.1v.97c-.12-.04-.26-.07-.36-.14-.06-.42-.26-.65-.61-.76-.2-.07-.36.03-.36.17 0 .2.19.28.52.48.61.38.91.73.91 1.25 0 .55-.36.8-.94.58-.27-.06-.5-.24-.76-.45a.47.47 0 00-.1.14l-.29-.1V30.1c.13 0 .23.04.32.07zm4.79 1.07c-.1-.03-.23-.1-.32-.14a1.2 1.2 0 00-.16-.55c-.1-.17-.27-.24-.43-.35-.03 0-.03-.03-.06-.03l-.3-.1v.76c.03 0 .07.04.1.04.19.06.26 0 .26-.32v-.03l.27.1v1.25l-.27-.1c0-.35-.03-.49-.26-.56l-.1-.03v.87l.33.13c.03 0 .03.04.06.04.24.1.36.13.43.03.06-.1.1-.28.13-.55.12.07.23.1.36.17v1.14c-.76-.34-1.54-.65-2.32-.96v-.39c.04 0 .07.04.1.04.16.07.16.03.16-.14v-1.52c0-.2 0-.24-.2-.31-.02 0-.06-.04-.09-.04v-.38c.79.28 1.54.59 2.28.94.03.3.03.64.03.99zM6.8 23.53c0-.8.27-1.38.7-1.41.72-.07 1.24 1.03 1.33 3.21.2-.03.36-.1.55-.13V21H8.9l-.2.67c-.32-.62-.78-.97-1.3-.97-.91 0-1.63 1.63-1.57 3.88.03 1.18.23 2.04.66 2.8.3.52.78.97 1.37 1.63.48.55.72 1.14.72 1.93 0 .84-.27 1.6-.7 1.87-.68.52-1.17-.7-1.3-3.7-.2.1-.39.17-.58.28v6.05c.13-.13.29-.24.42-.38l.19-1.1c.33.58.89.62 1.34.2.88-.76 1.54-2.53 1.57-4.46.03-2.04-.46-2.74-1.4-3.74-.8-.9-1.31-1.36-1.31-2.43zm5.09-2.83h-1.73v.97c.33-.04.42.13.42.65 0 2.08 0 4.33-.03 6.37 0 .48-.1.73-.42.9v.93c.61-.35 1.24-.7 1.85-1v-.87h-.03c-.33.14-.42.04-.42-.45 0-.83.03-1.66.03-2.45.2-.03.33-.07.36-.1 1.18-.35 1.7-1.07 1.76-2.63.07-1.6-.49-2.35-1.8-2.32zm.81 2.42c-.03 1.07-.23 1.52-.84 1.7l-.27.06.03-3.28.3-.03c.62 0 .82.37.78 1.55zm3.27-2.49c-.59 0-1.01.31-1.27.9-.3.62-.4 1.66-.4 3.18 0 1.52.07 2.53.33 3.02.27.45.69.55 1.24.34.55-.2 1.01-.62 1.3-1.2.3-.6.4-1.5.43-2.81.03-1.32-.03-2.22-.33-2.7-.33-.5-.75-.73-1.3-.73zm.49 3.63c-.04 1.94-.07 2.8-.62 3.02-.55.17-.55-.73-.52-2.77.03-2.04.06-2.98.62-3.01.55-.04.55.82.52 2.76zm5.48.76v.38c0 .2-.1.35-.24.38-.23.04-.23-.28-.26-.86-.06-.83-.23-1.25-.88-1.32.72-.2 1.14-.65 1.11-1.48 0-1.04-.58-1.49-1.82-1.46h-1.86v.66c.33-.04.43.1.43.45 0 1.42-.04 2.77-.04 4.18 0 .35-.12.49-.45.59v.65c.65-.2 1.33-.38 1.99-.55v-.59h-.03c-.33.07-.46 0-.46-.34v-1.77c.07-.03.13-.03.16-.03.59-.07.75.17.79.83.03.62-.04 1.14.19 1.48.16.25.39.32.78.25.66-.14.91-.52.91-1.28v-.25a.7.7 0 01-.32.08zm-2.19-1.73c-.1 0-.19.03-.3.03v-1.97h.3c.66-.03.88.17.88.94.03.7-.2.9-.88 1zm2.61-.59l.49-.03v-.62c0-.7.19-.83.65-.83h.16v3.91c0 .31-.12.42-.48.45h-.1v.55c.75-.1 1.54-.2 2.31-.24v-.52h-.1c-.35.03-.51-.07-.51-.35-.04-1.32-.04-2.45-.07-3.8h.16c.46 0 .62.28.62.9v.45h.49V20.7h-3.62v2zm6.22 0c-.72-.45-1.17-.65-1.17-1.07 0-.31.26-.52.61-.52.62 0 1.04.49 1.15 1.39h.49c0-.62-.04-1.22-.04-1.84h-.42l-.16.32c-.3-.28-.69-.42-1.14-.42-.76 0-1.4.59-1.4 1.35 0 .42.16.77.52 1.07.26.25.72.49 1.27.83.45.32.69.62.69.94 0 .35-.27.55-.7.55-.71 0-1.17-.59-1.26-1.7h-.52c0 .73-.04 1.42-.04 2.15h.43l.23-.35c.33.32.75.45 1.27.45.91 0 1.54-.52 1.5-1.38.07-.8-.43-1.25-1.3-1.77zm6.36 2.8v-3.88c0-.31.13-.31.43-.31v-.59H33.5c-.23 1.25-.45 2.36-.69 3.54-.23-1.25-.55-2.32-.78-3.54h-1.76v.52c.33 0 .46.07.42.38 0 1.18.04 2.15 0 3.32 0 .28-.1.42-.45.42v.52c.52.03 1.04.1 1.57.13v-.55c-.36-.03-.52-.2-.52-.52v-3.7c.3 1.63.72 3.12 1.04 4.81.19.04.39.07.61.07.33-1.63.69-3.15 1.01-4.88v4.03c0 .28-.1.41-.42.38v.55c.61.1 1.27.25 1.88.38V26c-.28-.05-.48-.18-.48-.5zm4.51.52c-.4-1.87-.75-3.6-1.15-5.33h-1.1c-.3 1.73-.56 3.28-.86 4.88-.06.42-.06.59-.48.52v.58c.52.1 1.04.25 1.56.39v-.62l-.12-.04c-.24-.07-.33-.17-.36-.38 0-.07 0-.17.03-.28l.1-.76c.39.06.75.13 1.14.24.06.28.1.59.16.9.03.14.03.2.03.28 0 .25-.1.28-.4.2v.66c.66.2 1.34.42 2 .65v-.7h-.06c-.3-.11-.36-.46-.5-1.19zm-2.22-1.62c.13-.87.27-1.73.36-2.63.2.9.36 1.83.55 2.76-.32-.03-.62-.1-.9-.13zm5.51-2.98c.3.03.42.35.42.76l.1 4.64c-.46-2.15-.92-4.19-1.4-6.12h-1.7v.73c.33.03.49.17.49.55l.16 4.95c0 .42-.1.52-.43.38 0 .25 0 .49.04.73.48.17.97.38 1.46.59 0-.28 0-.52-.03-.8-.3-.14-.4-.31-.43-.73-.03-1.55-.1-3.15-.12-4.7.52 2.08 1.04 4.28 1.56 6.64l1.08.52c-.03-2.42-.06-4.95-.12-7.37 0-.48.1-.62.42-.58v-.9h-1.5v.71zm2.38-.79c-.33 0-.52.35-.52.9 0 .52.2.83.52.87h.13c-.1.51-.3.93-.62 1.24.1.2.16.42.27.62.55-.48.84-1.38.84-2.28 0-.87-.26-1.35-.62-1.35zm1.86 2.59c-.04-.7.23-1.18.65-1.18.72.03 1.21 1.32 1.37 3.8.2.04.36.1.55.14V21h-.49l-.19.77c-.36-.73-.88-1.07-1.4-1.07-.91.03-1.57 1.32-1.47 3.08.03.93.3 1.73.73 2.67.3.65.85 1.41 1.43 2.63.49 1.03.75 1.97.75 2.83 0 .94-.45 1.39-.88 1.07-.69-.52-1.24-2.28-1.44-4.98-.2-.07-.4-.14-.59-.25v5.05c.13.1.3.2.43.32l.2-.66a5.3 5.3 0 001.5 2.12c.85.76 1.66-.35 1.66-2.84a9.5 9.5 0 00-1.46-5.57c-.8-1.42-1.32-1.98-1.35-2.95zM14.8 37.68c.45-.24 1-.48 1.33-.86.72-.49 1.4-.83 2.15-1.35.46-.32.52-.94 1.27-.97.03.03.07.03.1.07l-.23.1c0 .49-.22.6-.5.98v.17c.27 0 .43.03.56.1-.06.03-.46.17-.46.28-.11.14-.52.52-.52.69-.03.03.04.06.04.03.23-.25.63-.48.97-.48.43-.1.95-.2 1.27-.38.1-.1.2-.13.33-.2.49-.14.4-.28.55-.66.27-.24.56-.28.82-.51.2-.17.3-.39.52-.55l.23-.04c.16-.17.4-.38.62-.38.06 0 .03-.1.06-.14.17 0 .39-.19.55-.23.13-.25.07-.14.24-.35.12-.14.23-.28.3-.45.12-.07.22-.07.38-.1.15-.1.28-.17.46-.17l-.16.2s.3.25 0 .45c-.06 0-.13.03-.2.03-.06 0-.02.07 0 .07a2.19 2.19 0 001.38-.7c.19-.34.42-.61.88-.69.23.55-.24.76-.5 1.18.34.03.56.07.86.14l-.16.1c.3.1.61.07.75.31-.46.35-1.34.35-1.7.77h1.37c.66.06 1.14.2 1.43.55-.26.06-.52.1-.69.24.24.1.88.07.88.32 0 .13-.3.28-.39.35-.3.41.36.3 1.5.34 1.01-.1 1.86.49 2.22.59v-.04c.2.07.36.1.55.2.07.04.1-.06.04-.06-.24-.07-.3-.17-.52-.28-.27-.42-.2-.42-.62-.65-.42-.25-1.14-.25-1.46-.62a2.26 2.26 0 01-.33-.45c.13-.04.36-.1.42-.17.2-.2.49-.31.75-.38.19-.12.28-.33.5-.39l.29-.38c.33-.07.45-.07.58 0 0 .04-.03.14 0 .17.3.62-.1.7-.16.9.36.04.79.14.98.25l-.36.28s.06.1.19.1c.58.1.75-.03 1.18 0 .45.03.75.1 1 .28v.17c-.23.07-.42.1-.61.25l.26.06c-.3.25-.58.28-.85.49.88.38 1.8.17 2.28.93 1.3 1 2.88.87 2.88.87.34 0 .72-.24 1.04-.35-.51 0-.6-.5-.9-.8-.38-.31-.87-.38-1.42-.45l-.36-.03-.27-.25c-.42-.55-.81-1.03-1.53-1.25-.33-.17-.51-.53-.82-.73-.22-.12-.53-.06-.78-.06-.33 0-.7-.41-1-.52-.17 0-.21-.26-.32-.38-.27-.17-.4-.28-.66-.28-.13 0-.26.04-.49.07-.1 0-.15.1-.22.17-.1.1-.16.17-.29.2l.06.1c-.2.22-.38.33-.65.42-.13.07-.27.14-.4.25-.09 0-.15.1-.25.1a1.95 1.95 0 00-.23-.38 4.33 4.33 0 00-1.15-1.45l-.03.03c-.38-.08-.7-.15-.91-.52a1.94 1.94 0 00-.55-.51h-.29c-.49.06-.85.31-1.14.73-.06.05-.11.1-.16.17-.13-.07-.2-.21-.32-.28-.32 0-.55.04-.84.14-.2.04-.38.09-.52.24-.1.17-.16.28-.3.41-.1.2-.28.38-.51.38a.48.48 0 00-.23.28c-.27 0-.46.1-.66.31-.24.05-.35.2-.52.38a3 3 0 01-.66.56c-.14.08-.36.28-.52.28 0 .12-.04.3-.12.39-.23-.25-.55-.43-.82-.62-.26-.2-.52-.42-.88-.59-.51 0-.86.29-1.18.65-.12.14-.23.28-.36.35-.36.25-.72.45-1.08.66-.25.14-.85.7-1.1.7 0 .27-.84.6-1.05.72-.22.12-.5.18-.69.37l.4.14c.01-.03.1-.1.17-.13z" fill="#fff"/><path d="M5.4 25.3A6 6 0 004 29c0 1.42.58 2.77 1.66 4.01v-3.04a5.5 5.5 0 01.23-2.77 5.48 5.48 0 01-.49-1.9zm8.36-3.98c.26-.1.52-.17.78-.28.5-.59 1.34-.77 2.08-.62A42.38 42.38 0 0127.97 19c4.21 0 8.12.52 11.48 1.42l2.9-.24c-4-1.38-8.97-2.18-14.38-2.18A45 45 0 0013 20.39c.2.1.4.24.55.41.1.1.2.4.2.52zM52 29c0-1.55-.72-3.05-2-4.4v2.32c.3.65.46 1.35.46 2.04 0 .48-.06.97-.23 1.45.03.41.03.83.03 1.31 0 .56-.03 1.07-.12 1.52C51.34 31.9 52 30.5 52 29zm-4.85 5.08a21.08 21.08 0 01-6.64 3.17c-.07 0-.1.04-.16.04-.2.07-.36.1-.55.17-.16.03-.3.07-.46.13-.03 0-.06 0-.1.04A44.8 44.8 0 0128 39c-4.34 0-8.39-.54-11.84-1.5l-.36-.11-.36-.1a21.76 21.76 0 01-6.79-3.26c-.08.15-.14.29-.41.54-.2.13-.4.24-.55.31C11.93 37.96 19.46 40 28 40c8.34 0 15.72-1.94 20.02-4.91a.67.67 0 01-.19-.14c-.2-.2-.5-.56-.68-.87z" fill="#fff"/></svg>