<!-- by TradingView --><svg width="56" height="56" xmlns="http://www.w3.org/2000/svg"><path fill="#0671B9" d="M0 0h56v56H0z"/><path fill-rule="evenodd" d="M9 25h1v4c0 .478.185.805.445 1.022.272.227.653.353 1.055.353.402 0 .783-.127 1.055-.353.26-.217.445-.544.445-1.022v-4h1v4c0 .772-.315 1.382-.805 1.79-.478.399-1.097.585-1.695.585-.598 0-1.217-.186-1.695-.585C9.315 30.382 9 29.772 9 29v-4zm7-.207l4 4V25h1v6.207l-4-4V31h-1v-6.207zm8 2.707h.75a.75.75 0 000-1.5H24v1.5zm0 3.5v-2.5h.75a1.75 1.75 0 100-3.5H23v6h1z" fill="#fff"/><path fill-rule="evenodd" d="M30.5 31a3 3 0 100-6 3 3 0 000 6zm0-1a2 2 0 100-4 2 2 0 000 4z" fill="#F7921E"/><path fill-rule="evenodd" d="M34 25h1l1.55 3.78 1.68-3.898 1.669 3.898 1.55-3.78h1L40 31.22l-1.769-4.102-1.78 4.102L34 25zm9.5 0H47v1h-2.5v1.5h2v1h-2V30H47v1h-3.5v-6zm5.5 0v6h1v-2.099L51.3 31h1.2l-1.572-2.509A1.75 1.75 0 0050.75 25H49zm1.75 1H50v1.5h.75a.75.75 0 000-1.5zM5.523 24.96c.74-.097 1.635.177 2.109.988l-.864.504c-.227-.389-.68-.558-1.116-.5C5.2 26.01 5 26.257 5 26.5c0 .198.08.355.261.524.2.185.48.344.832.539l.025.014c.32.177.702.39 1 .665.324.3.582.706.582 1.258 0 .98-.793 1.648-1.638 1.754-.897.111-1.85-.378-2.326-1.568l.928-.372c.324.81.871.997 1.274.947.454-.056.762-.388.762-.761 0-.198-.08-.355-.262-.524-.2-.185-.48-.344-.83-.539l-.027-.014c-.319-.177-.701-.39-.999-.665-.324-.3-.582-.706-.582-1.258 0-.943.8-1.446 1.523-1.54z" fill="#fff"/></svg>