<!-- by TradingView --><svg width="56" height="56" viewBox="0 0 56 56" xmlns="http://www.w3.org/2000/svg"><path fill="#F0F3FA" d="M0 0h56v56H0z"/><path d="M14 44V19l14-4-10 5.75V25l10-5.5-8 7-2 1.1V32l10-5.75-8 7.25-2 1V38l10-5 10 5v-3.5l-2-1-8-7.5 10 6v-4.4l-2-1.1-8-7L38 25v-4.25L28 15l14 4v25l-14-7.5L14 44Z" fill="#A8927E"/><path d="M28 15.5V11l-14 8 4 2 10-5.5ZM18 25l2 1.5 8-4.5v-2.5L18 25ZM18 32l2 1.5 8-4.5v-3l-10 6ZM18 38l3.5 2 6.5-3.5V33l-10 5ZM28 15.5V11l14 8-4 2-10-5.5ZM38 25l-2 1.5-8-4.5v-2.5L38 25ZM36 33.5 28 29v-3l10 6-2 1.5ZM28 36.5l6.5 3.5 3.5-2-10-5v3.5Z" fill="#0050A0"/></svg>