<!-- by TradingView --><svg xmlns="http://www.w3.org/2000/svg" width="56" height="56"><path fill="url(#aywexffdy)" d="M0 0h56v56H0z"/><path d="M4 28.78h.52v.16c0 .21.06.33.18.43.13.1.33.14.62.14h1.2c.42 0 .7-.01.88-.08.19-.08.24-.27.24-.46 0-.16-.03-.3-.13-.38-.11-.08-.3-.13-.64-.13H5.09c-.4 0-.67-.06-.84-.2-.18-.15-.25-.38-.25-.7v-.2c0-.28.08-.5.33-.64a3.1 3.1 0 011.41-.22h.87c.63 0 1 .1 1.2.25.2.15.24.36.24.6v.18h-.52c0-.2-.04-.37-.24-.46-.16-.06-.4-.07-.72-.07H5.55c-.4 0-.67 0-.82.07-.14.07-.17.17-.17.36v.13c0 .14.03.25.12.32.1.08.27.12.56.12h1.54c.42 0 .77.02 1.02.16.32.17.4.53.4.86 0 .47-.22.72-.52.84-.3.13-.69.14-1.03.14H5.6c-.41 0-.82 0-1.12-.13-.3-.12-.49-.38-.49-.89v-.2zm5-2.23h.52v.54h.01c.09-.2.24-.35.44-.45.2-.1.44-.14.69-.14h1.06c.4 0 .8.06 1.08.28.28.2.47.56.47 1.15v.6c0 .54-.12.91-.38 1.14-.27.23-.68.32-1.26.32h-1.07c-.3 0-.52-.04-.67-.12a.63.63 0 01-.31-.38h-.01V31H9v-4.45zm3.7 1.38c0-.32-.03-.54-.18-.7-.15-.16-.4-.23-.8-.23H10.6c-.37 0-.63.1-.79.26a.92.92 0 00-.25.68v.65c0 .4.13.63.33.76.2.14.47.17.77.17h1c.33 0 .6-.04.77-.17.18-.14.28-.36.28-.75v-.67zm7.74-1.38H21v.46c.1-.22.25-.32.44-.4.18-.08.39-.11.59-.11h.54c.54 0 .9.09 1.12.28.22.2.31.49.31.91V28h-.53c0-.3.04-.61-.22-.83-.17-.14-.47-.17-.98-.17h-.36c-.3 0-.53.1-.68.25a.83.83 0 00-.23.58V30h-.56v-3.45zm4.56.65h-.72v-.44H25V26h.58v.76h2.23v.44h-2.23v1.59c0 .3.05.49.18.6.13.13.34.17.65.17h.18c.37 0 .59-.04.7-.16.13-.12.16-.32.16-.66v-.24h.46v.35c0 .32-.02.61-.18.82-.17.2-.5.33-1.1.33h-.31c-.53 0-.86-.12-1.05-.3A.94.94 0 0125 29v-1.8zm3.74-.65h1.18v.66h.01c.14-.55.66-.71 1.23-.71.91 0 1.27.4 1.27 1.36l-.01.14h-1.09c0-.14-.1-.49-.6-.49-.43 0-.73.17-.73.58V30h-1.26v-3.45zm19.56 0h1.18v.66h.01c.15-.55.66-.71 1.23-.71.92 0 1.28.4 1.28 1.36l-.01.14H50.9c0-.14-.1-.49-.6-.49-.44 0-.74.17-.74.58V30h-1.25v-3.45zM33 28.76c0-.47.16-.71.47-.84.3-.13.77-.14 1.38-.14.34 0 .6 0 .82.04.21.04.37.1.49.23v-.3c0-.17-.03-.28-.11-.35-.09-.07-.24-.1-.48-.1h-.74c-.37 0-.47.03-.49.27h-1.22c0-.46.12-.73.36-.88.24-.15.62-.19 1.15-.19h1.46c.87 0 1.32.42 1.32 1.22V30h-1.19v-.44c-.17.18-.29.3-.45.36-.15.06-.34.08-.65.08h-.86c-.39 0-.7-.04-.92-.18-.22-.14-.34-.39-.34-.79v-.27zm2.24.44c.43 0 .67-.03.8-.1.12-.06.14-.15.14-.26 0-.12-.01-.21-.12-.27-.1-.05-.3-.07-.64-.07h-.56c-.27 0-.43.03-.52.1-.1.06-.12.16-.12.3 0 .1.04.18.15.23.1.05.26.07.51.07h.36zm7.98-.44c0-.47.16-.71.47-.84.31-.13.77-.14 1.38-.14.35 0 .61 0 .82.04.22.04.37.1.5.23v-.3c0-.17-.03-.28-.12-.35-.08-.07-.23-.1-.48-.1h-.74c-.36 0-.47.03-.48.27h-1.22c0-.46.11-.73.35-.88.25-.15.63-.19 1.16-.19h1.46c.86 0 1.32.42 1.32 1.22V30h-1.2v-.44c-.17.18-.29.3-.44.36-.16.06-.35.08-.66.08h-.86c-.38 0-.7-.04-.91-.18-.22-.14-.35-.39-.35-.79v-.27zm2.24.44c.44 0 .67-.03.8-.1.13-.06.15-.15.15-.26 0-.12-.02-.21-.12-.27-.1-.05-.3-.07-.65-.07h-.55c-.27 0-.43.03-.52.1-.1.06-.13.16-.13.3 0 .1.05.18.15.23.1.05.27.07.51.07h.36zM38 27.97c0-.44.05-.81.3-1.07s.7-.4 1.49-.4h.37c.26 0 .52.03.73.13.2.1.36.28.4.56h.01V25h1.26v5h-1.18v-.7h-.01a.89.89 0 01-.38.51c-.19.12-.46.19-.83.19h-.37c-.8 0-1.24-.15-1.5-.4-.24-.27-.29-.64-.29-1.08v-.55zm1.22.44c0 .39.06.6.66.6h.74c.5 0 .76-.11.76-.64v-.34c0-.45-.38-.56-.76-.56h-.74c-.6 0-.66.22-.66.61v.33z" fill="#fff"/><path d="M16.88 26h.51c.68 0 1.27.08 1.7.35.41.26.66.7.66 1.42v.96c0 .72-.25 1.16-.67 1.42-.42.27-1 .35-1.69.35h-1.03c-.68 0-1.27-.08-1.7-.35-.41-.26-.66-.7-.66-1.42v-.96c0-.72.25-1.16.67-1.42a3.24 3.24 0 011.7-.35h.5zm1.72 3.74c.33-.2.53-.55.53-1.12v-.74c0-.57-.2-.91-.53-1.12-.32-.2-.79-.27-1.32-.27h-.8c-.54 0-1 .07-1.33.27-.33.2-.52.55-.52 1.12v.74c0 .57.2.91.52 1.12.33.2.79.27 1.32.27h.81c.53 0 1-.07 1.32-.27zm-1.72-2.78h.57c.33 0 .6.04.8.18.2.13.31.37.31.77v.68c0 .4-.11.64-.3.77-.2.14-.48.18-.81.18H16.3c-.32 0-.6-.04-.8-.18-.2-.13-.31-.37-.31-.77v-.68c0-.4.11-.64.31-.77.2-.14.48-.18.8-.18h.58z" fill="#FF0406"/><defs><linearGradient id="aywexffdy" x1="10.42" y1="9.71" x2="68.15" y2="76.02" gradientUnits="userSpaceOnUse"><stop stop-color="#1A1E21"/><stop offset="1" stop-color="#06060A"/></linearGradient></defs></svg>