<!-- by TradingView --><svg width="56" height="56" viewBox="0 0 56 56" xmlns="http://www.w3.org/2000/svg"><path fill="#F0F3FA" d="M0 0h56v56H0z"/><path d="M33.2 37.18a.83.83 0 0 0-.6-.19c.22-.3.36-.56.44-.79.77-2.18 1.46-4.07 2.29-6.07.47-1.14 1-2.14 1.54-3.18.35-.66.7-1.35.95-2.04.74-2.01.8-4.06.19-6.15-1.7-5.8-8.32-8.6-13.92-6.52a10.09 10.09 0 0 0-5.99 6.17 10.1 10.1 0 0 0 .4 7.63c.4.84.82 1.66 1.29 2.47 1.26 2.2 2.65 4.45 3.07 6.98l.1.76c.04.31.59.58.82.71a.16.16 0 0 1-.1.03c-.33-.02-.63 0-.91.06-.26-.22-.47-.8-.58-1.14A41.6 41.6 0 0 0 18.76 28a15.49 15.49 0 0 1-1.73-5.78 10.42 10.42 0 0 1 3.88-8.88c3.04-2.4 7.1-2.9 10.78-1.76a9.95 9.95 0 0 1 5.55 4.16 10.44 10.44 0 0 1 .92 9.88c-.26.6-.6 1.33-.9 1.91-1.3 2.54-2.75 5.16-3.41 7.87-.17.69-.28 1.23-.65 1.78Z" fill="#DED341"/><path d="m32.64 16.48-.13.28v.04l.13 1.08v.03l-.02.02-.85.56a.03.03 0 0 1-.03 0l-.84-.56a.48.48 0 0 0-.55.04 53.35 53.35 0 0 1-.78.62l-.9-.46c-.02 0-.02-.02-.02-.03l.22-.93-.01-.04-.18-.21a.05.05 0 0 0-.03-.02l-1.03-.11a.03.03 0 0 1-.02-.02l-.21-.99v-.02l.01-.02.83-.64c.1-.08.15-.24.2-.36l.01-.04-.2-1.14v-.02l.8-.63h.04l.9.49c.13.07.38.02.53 0l.03-.02.76-.69h.04l.94.38c.02 0 .03.02.03.04v1.03c0 .18.09.3.26.35a71.19 71.19 0 0 1 .98.36l.13 1a.05.05 0 0 1-.03.04l-.98.56a.07.07 0 0 0-.03.03Zm-.81-.83c0-.35-.15-.7-.4-.94a1.36 1.36 0 0 0-1.91 0 1.32 1.32 0 0 0 0 1.88 1.36 1.36 0 0 0 1.91 0c.25-.25.4-.59.4-.94Z" fill="#231F20"/><path d="m32.06 22.87 1.97.04a.02.02 0 0 1 .01.02l.02 2.86v.01h-.01l-1.96.09h-.01l-.49 1.14v.02l1.39 1.36v.02l-2.05 2.04h-.02l-1.43-1.29h-.02l-1.14.45a.02.02 0 0 0 0 .02l-.05 1.92a.02.02 0 0 1-.02.01l-2.9.02h-.02v-.02l.09-1.93a.02.02 0 0 0-.01-.02l-1.32-.48h-.02l-1.4 1.39a.02.02 0 0 1-.02 0l-2.08-2.01v-.02l1.38-1.43v-.02l-.48-1.1h-.01l-2-.05h-.01v-.01l-.03-2.86v-.02h.01l2-.05h.02l.46-1.14v-.02l-1.4-1.4a.02.02 0 0 1 0-.02l2.05-2.04a.02.02 0 0 1 .02 0l1.44 1.33h.02l1.14-.47.01-.01.02-1.94v-.01h.02l2.9-.03a.02.02 0 0 1 .03.02l.05 1.9.01.01 1.16.47h.02l1.4-1.33h.03l2.08 2.01v.02l-1.34 1.43v.02l.47 1.1h.02Zm-1.77 1.55c0-.93-.37-1.82-1.04-2.48a3.6 3.6 0 0 0-5.05 0 3.47 3.47 0 0 0 0 4.96 3.6 3.6 0 0 0 5.05 0 3.48 3.48 0 0 0 1.04-2.48Z" fill="#939192"/><path d="m29.9 35.16-.96.5a.03.03 0 0 1-.03 0l-.79-.65v-.03l.41-.87v-.03l-.12-.24a.06.06 0 0 0-.04-.03l-.97-.33c-.01 0-.02-.01-.02-.03l.02-1c0-.02 0-.03.02-.04l.92-.43c.14-.07.32-.29.32-.45a45.28 45.28 0 0 0 .05-1.07l.04-.03.9-.43h.03l.83.72.03.01.43.06h.02l.9-.52h.04l.84.58c.02 0 .02.02.02.03L32.54 32v.03c.04.1.07.19.16.25a96.1 96.1 0 0 0 .92.57l-.1 1c0 .02 0 .03-.02.03l-1.02.32c-.15.04-.31.26-.33.42a58.87 58.87 0 0 1-.12 1.04l-.95.36a.03.03 0 0 1-.03 0l-.77-.8h-.03l-.3-.07h-.04Zm1.89-2.18a1.3 1.3 0 0 0-.4-.94 1.35 1.35 0 0 0-1.47-.29 1.36 1.36 0 0 0-.73.72 1.3 1.3 0 0 0 .29 1.45 1.36 1.36 0 0 0 1.91 0c.26-.25.4-.59.4-.94Z" fill="#231F20"/><path d="m23.84 37 .07.02h1.2l.66-.02 5.27.02 1.81.01c.21-.01.42.05.6.19l.54.42v.03l-.36.45a.95.95 0 0 1-.52.34l-1.26.42c-2.32.77-4.66 1.53-7 2.26l-.42.13-1.35.42c-.22.07-.7-.17-.97-.3a7.62 7.62 0 0 0-.1-.07l.11-.2c.18-.32.34-.62.63-.73l1.2-.41.42-.15 3.7-1.2h.02v-.02l-.04-.25c0-.01-.01-.02-.03-.02h-3.6c-.7 0-1.18-.01-1.4-.03-.23-.02-.56-.26-.86-.48l-.15-.1v-.03l.8-.6c.28-.07.59-.1.92-.07.03 0 .07 0 .1-.03Z" fill="url(#abqxfczjj)"/><path d="m32.23 42.22.2-.06c.38-.12.76-.24 1-.57a221.09 221.09 0 0 0 .51-.7l-.28-.08c-.38-.1-.78-.22-1.16-.1l-1.03.31-.78.24c-2.09.65-4.17 1.32-6.25 2l-.61.21-.29.1c-.6.18-1.1.34-1.44.77-.28.36.26.93.53 1.12a8.75 8.75 0 0 0 3.53 1.38 10.96 10.96 0 0 0 5.5-.5c.3-.12.6-.25.87-.41h.01c.47-.27.76-.44.95-.87a155.18 155.18 0 0 0 .36-.86l-.27.02c-.5.03-.9.05-1.28.27a8.4 8.4 0 0 1-7.6.2c1.46-.54 2.94-1 4.43-1.47l2.37-.75.73-.25Zm-.96 2.82Z" fill="url(#bbqxfczjj)"/><defs><linearGradient id="abqxfczjj" x1="22" y1="38.67" x2="33.61" y2="38.67" gradientUnits="userSpaceOnUse"><stop stop-color="#939192"/><stop offset=".43" stop-color="#C8C9CB"/><stop offset=".67" stop-color="#C8C9CB"/><stop offset="1" stop-color="#939192"/></linearGradient><linearGradient id="bbqxfczjj" x1="22" y1="38.67" x2="33.61" y2="38.67" gradientUnits="userSpaceOnUse"><stop stop-color="#939192"/><stop offset=".43" stop-color="#C8C9CB"/><stop offset=".67" stop-color="#C8C9CB"/><stop offset="1" stop-color="#939192"/></linearGradient></defs></svg>