<!-- by TradingView --><svg xmlns="http://www.w3.org/2000/svg" width="56" height="56" viewBox="0 0 56 56"><path fill="#F0F3FA" d="M0 0h56v56H0z"/><path d="M41.42 32H39.6v-.96a2.7 2.7 0 0 1-.83.74c-.28.15-.62.22-1.03.22-.54 0-.96-.16-1.27-.49-.3-.33-.46-.83-.46-1.51v-3.3h1.98v2.85c0 .33.05.56.17.7.12.13.3.2.5.2a.7.7 0 0 0 .58-.27c.15-.19.23-.51.23-.98v-2.5h1.96V32ZM29.66 30.44l1.94-.18c.08.23.19.4.33.5.15.1.34.15.58.15.26 0 .47-.06.6-.17a.38.38 0 0 0 .18-.32c0-.14-.08-.25-.22-.33-.1-.05-.39-.12-.84-.2a9 9 0 0 1-1.42-.34c-.26-.1-.49-.27-.67-.52a1.37 1.37 0 0 1-.27-.83c0-.34.1-.64.3-.89.19-.24.46-.43.8-.55.34-.12.8-.18 1.38-.18.6 0 1.06.04 1.35.14.29.1.53.24.72.44.2.2.36.46.49.8l-1.86.19a.65.65 0 0 0-.24-.37.97.97 0 0 0-.56-.15c-.22 0-.38.04-.48.12a.35.35 0 0 0-.15.29c0 .12.06.22.2.28.12.07.4.13.83.18.65.07 1.13.18 1.45.31.32.14.56.33.72.57.17.25.26.52.26.82 0 .3-.09.59-.27.87-.18.29-.46.51-.84.68a4 4 0 0 1-1.56.25c-.93 0-1.6-.14-2-.4-.39-.28-.64-.66-.75-1.16ZM42.1 30.44l1.95-.18c.08.23.19.4.33.5.15.1.34.15.58.15.26 0 .46-.06.6-.17a.38.38 0 0 0 .18-.32c0-.14-.08-.25-.22-.33-.11-.05-.39-.12-.84-.2a8.99 8.99 0 0 1-1.42-.34c-.26-.1-.49-.27-.67-.52a1.37 1.37 0 0 1-.27-.83c0-.34.1-.64.3-.89.19-.24.46-.43.8-.55.34-.12.8-.18 1.38-.18.6 0 1.06.04 1.35.14.29.1.53.24.72.44.2.2.36.46.49.8l-1.86.19a.65.65 0 0 0-.24-.37.97.97 0 0 0-.56-.15c-.22 0-.38.04-.48.12a.35.35 0 0 0-.15.29c0 .12.06.22.2.28.12.07.4.13.83.18.65.07 1.13.18 1.45.31.32.14.56.33.72.57.17.25.26.52.26.82 0 .3-.1.59-.27.87-.18.29-.46.51-.84.68a4 4 0 0 1-1.56.25c-.93 0-1.6-.14-2-.4-.39-.28-.64-.66-.76-1.16ZM23.58 26.82h1.83v.84c.27-.34.55-.59.83-.73.28-.15.62-.23 1.02-.23.55 0 .97.17 1.28.5.3.32.46.82.46 1.5V32h-2v-2.85c0-.32-.06-.55-.18-.69a.58.58 0 0 0-.48-.2c-.23 0-.43.09-.58.27-.14.18-.22.51-.22.98V32h-1.96v-5.18ZM22.55 29.78H18.7c.04.32.12.56.25.71a.9.9 0 0 0 .73.34c.19 0 .37-.05.54-.14.1-.07.21-.18.33-.33l1.9.18c-.3.52-.64.9-1.05 1.12-.41.23-1 .34-1.76.34-.66 0-1.19-.1-1.57-.29-.38-.2-.7-.5-.95-.92a2.9 2.9 0 0 1-.37-1.5c0-.8.25-1.46.75-1.96s1.2-.75 2.08-.75c.72 0 1.29.1 1.7.33.42.23.73.55.95.98.22.43.32.98.32 1.67v.22Zm-1.95-.95c-.04-.39-.14-.66-.3-.83a.84.84 0 0 0-.64-.25c-.3 0-.55.13-.73.38-.12.16-.19.39-.22.7h1.9Z" fill="#252324"/><path d="M13.88 24.47c.27-.33.54-.64.77-.87.09-.09.03-.24-.09-.24-.86.05-2.4.3-4.12 1.03-.32.13-.72.33-1.01.54-.76.55-.23.88.45 1.09.9.28 1.85.4 2.77.6 1.01.23 2.1.58 2.73 1.22.6.62.6 1.55.3 2.25-.56 1.27-1.82 1.93-3.22 2.31-1.59.43-3.28.64-4.93.6-.76-.03-2.43-.07-2.53-1-.02-.14 0-.3.07-.5.14-.37.44-.72.7-.95.5-.45 1.1-.65 1.61-.65.1 0 .15.11.1.19l-.26.34c-.05.08 0 .2.1.2 1.2.08 3.2.01 4.9-.54a7.9 7.9 0 0 0 1.32-.58c2.08-1.22-2.5-1.85-3.19-1.97-1.01-.17-2.39-.1-2.93-1.16a2.17 2.17 0 0 1-.16-.94c.02-1.45.73-2.36 1.99-3.05a12.6 12.6 0 0 1 5.8-1.38c1.3-.03 2.65 0 2.52 1.21-.18 1.06-.93 1.45-1.81 1.9-.45.22-.84.53-1.28.76-.18.1-.36.16-.5.1-.18-.08-.26-.3-.1-.51Z" fill="#8CC540"/><path d="M49 25v-3l-.7 2.49.7.51Z" fill="#749743"/><path d="M49 25v-3l.7 2.49-.7.51Z" fill="#87BD43"/><path d="M49 25v3l.7-2.49L49 25Z" fill="#8ABF4D"/><path d="M49 25v3l-.7-2.49.7-.51Z" fill="#6B8D40"/><path d="m49 25 3-.06-2.3-.45-.7.51Z" fill="#DCF0BF"/><path d="m49 25 3-.06-2.3.57L49 25Z" fill="#B2CB87"/><path d="m49 25-3-.06 2.3-.45.7.51Z" fill="#C0DD9D"/><path d="m49 25-3-.06 2.3.57.7-.51Z" fill="#93BC56"/></svg>