<!-- by TradingView --><svg width="56" height="56" viewBox="0 0 56 56" xmlns="http://www.w3.org/2000/svg"><path fill="#F0F3FA" d="M0 0h56v56H0z"/><path d="M26.13 28.8c-1.22-1.6-4.35-5.53-4.46-10.05 0 0-2.32 5.33 1.3 10.15.99 1.3 1.9 2.64 2.74 4.03.6 1 2.34 3.92-.6 5.53-1.73.7-4.14 1.3-7.48-2.82-.7-.9-1.28-1.87-1.74-2.9a12.78 12.78 0 0 1 4-14.85 12.96 12.96 0 0 1 4.93-2.39l1.39-3.24a16.03 16.03 0 0 0-8.84 3.89 15.87 15.87 0 0 0-4.97 8.23l-.1.53a15.64 15.64 0 0 0 2.87 12.53c.15.22.3.43.47.64 2.53 3.22 6.17 4.63 8.8 4.43 1.33-.15 5.5-1.78 5.36-5.84-.13-3.14-2.46-6.26-3.67-7.87Z" fill="url(#aq2rsdeno)"/><path d="M36.6 14.65c-.38-.24-.77-.46-1.17-.67a9.28 9.28 0 0 0-1.3-.54c-4.04-1.46-6.3-.47-6.59 3.3-.3 3.92 6.16 11.06 6.16 11.06-3.9-6.54-3.83-8.45-3.53-9.86.4-1.8 2.8-2 5.91-.04a12.84 12.84 0 0 1 4.74 12.27 12.8 12.8 0 0 1-8.6 9.98l-4.23 3.65c3.45.02 6.82-1.07 9.6-3.12a15.8 15.8 0 0 0 5.39-18.25 15.82 15.82 0 0 0-6.38-7.78Z" fill="url(#bq2rsdeno)"/><path d="M30.68 10s-4.62 1.81-4.92 6.05c0 1.8.56 4.03 4 8.74 1.49 1.76 4.82 6.05 5.28 9.92.3 2.41.1 7.38-7.8 9.29.91-.73 7.6-3.8 3.85-10.47a98.56 98.56 0 0 0-5.73-8.77c-2.13-3.03-3.26-7.22-2.06-10.14 1.43-3.48 5.16-4.32 7.38-4.62Z" fill="url(#cq2rsdeno)"/><defs><linearGradient id="aq2rsdeno" x1="20.64" y1="44.06" x2="21.07" y2="21.99" gradientUnits="userSpaceOnUse"><stop stop-color="#0094D9"/><stop offset="1" stop-color="#003D73"/></linearGradient><linearGradient id="bq2rsdeno" x1="35.34" y1="44.34" x2="35.77" y2="22.28" gradientUnits="userSpaceOnUse"><stop stop-color="#0094D9"/><stop offset="1" stop-color="#003D73"/></linearGradient><linearGradient id="cq2rsdeno" x1="28.48" y1="10.36" x2="29.23" y2="36.1" gradientUnits="userSpaceOnUse"><stop stop-color="#0094D9"/><stop offset="1" stop-color="#003D73"/></linearGradient></defs></svg>