<!-- by TradingView --><svg width="56" height="56" viewBox="0 0 56 56" xmlns="http://www.w3.org/2000/svg"><path fill="#F0F3FA" d="M0 0h56v56H0z"/><path d="M27.35 10a18.17 18.17 0 0 0-2.08 8.45c0 3.07.98 5.15 1.93 7.17.1.18.18.37.26.55a18.28 18.28 0 0 1 2 8.56A8.9 8.9 0 0 1 27.02 41H13.2c-.93 0-1.51-1.12-1.05-2l15-28.72c.05-.1.12-.2.19-.28Zm1.97.41a15.78 15.78 0 0 0-2.19 8.04c0 2.54.78 4.2 1.74 6.24l.25.53a20.5 20.5 0 0 1 2.2 9.5c0 2.56-.74 4.64-1.83 6.28h13.3c.93 0 1.5-1.1 1.05-2L29.32 10.41Z" fill="url(#a4kfmasrv)"/><defs><linearGradient id="a4kfmasrv" x1="28" y1="10" x2="28" y2="41" gradientUnits="userSpaceOnUse"><stop offset=".59" stop-color="#6AB842"/><stop offset="1" stop-color="#6AB842" stop-opacity="0"/></linearGradient></defs></svg>