<!-- by TradingView --><svg width="56" height="56" xmlns="http://www.w3.org/2000/svg"><path fill="#0033A1" d="M0 0h56v56H0z"/><path d="M44 12H12v32h32V12z" fill="#fff"/><path d="M14 23.302v3.44l9-3.44h-9zM28 15l4.8 5.803 9.196-3.123V14H14v3.68l9.58 3.123L28 15zM14 19v3h9l-9-3zM42 22v-3l-9 3h9zM41.995 26.75v-3.48L33 23.28l8.995 3.47z" fill="#0033A1"/><path d="M28.043 17.49L26 20h4l-1.957-2.51zM24.129 24.44L14 28.171V38h9.375l.754-13.56zM25.597 25l-.548 13h5.856l-.539-13h-4.769z" fill="#0033A1"/><path d="M32.545 38H38v2H14v1.996h27.997V28.129l-10.033-3.655.58 13.526z" fill="#0033A1"/></svg>