<!-- by TradingView --><svg width="56" height="56" xmlns="http://www.w3.org/2000/svg"><path fill="#23415A" d="M0 0h56v56H0z"/><path d="M15.5 40c2.957 0 4.867-1.639 4.867-4.17 0-2.488-2.036-3.519-4.161-4.072-.701-.18-1.82-.413-2.127-1.114-.325-.74.639-1.04 1.182-1.04.886 0 1.852.371 2.952 1.134l.319.221 1.819-2.636-.28-.225c-1.354-1.086-2.96-1.639-4.775-1.639-2.743 0-4.658 1.672-4.658 4.065 0 2.777 1.627 3.717 4.122 4.354.585.15 2.167.354 2.167 1.213 0 .708-1.051.764-1.374.764-1.182 0-2.23-.43-3.397-1.394l-.297-.244L9.786 37.7l.28.249A8.14 8.14 0 0015.5 40zM26.714 40c2.957 0 4.867-1.639 4.867-4.17 0-2.488-2.035-3.519-4.161-4.072-.701-.18-1.82-.413-2.128-1.114-.324-.74.64-1.04 1.183-1.04.886 0 1.852.371 2.952 1.134l.319.221 1.819-2.636-.28-.225c-1.354-1.086-2.96-1.639-4.775-1.639-2.743 0-4.658 1.672-4.658 4.065 0 2.777 1.627 3.717 4.122 4.354.585.15 2.167.354 2.167 1.213 0 .708-1.051.764-1.374.764-1.182 0-2.23-.43-3.397-1.394l-.297-.244L21 37.7l.28.249A8.14 8.14 0 0026.713 40zM38.02 36l2.603 4H44.7l-3.128-4.967.045-.022c1.53-.75 2.371-2.146 2.371-3.933v-.034C43.988 28.32 42.077 27 39 27h-5.965v13H36v-4h2.02zM36 30h2.772c1.143 0 1.723.6 1.723 1.5 0 .851-.662 1.5-1.723 1.5H36v-3z" fill="#fff"/><path d="M37.563 25a7 7 0 100-14 7 7 0 000 14z" fill="#E16928"/><path d="M29 25c-1.801 0-3.738-.836-5.011-2.14A7.03 7.03 0 0122 17.949a7.03 7.03 0 011.989-4.913C25.262 11.732 27.199 11 29 11v14z" fill="#CED8D8"/></svg>