<!-- by TradingView --><svg width="56" height="56" xmlns="http://www.w3.org/2000/svg"><path fill="#F0F3FA" d="M0 0h56v56H0z"/><path d="M28 33l-6.5-5-6.5 5h13zM28 23l6.5 5 6.5-5H28z" fill="#173249"/><path d="M34.5 17.449L28 12v11h13l-6.5-5.551z" fill="#81CAE0"/><path d="M28 33v11l13-11H28z" fill="#3FABD1"/><path d="M28 33H15l13 11V33z" fill="#53B6D8"/><path d="M28 23H15l13 10V23z" fill="#3FABD1"/><path d="M34.5 27.953L28 23v10h13l-6.5-5.047z" fill="#2595C7"/><path d="M28 12L15 23h13V12z" fill="#53B6D8"/></svg>