<!-- by TradingView --><svg width="56" height="56" xmlns="http://www.w3.org/2000/svg"><path fill="#005BAA" d="M0 0h56v56H0z"/><path d="M28 17v4h6v10h3.013l-.397 1.324c-.36 1.14-.67 1.777-1.266 2.797L38 38.486V21h6v-3.996L28 17zM23.044 34.89c0-1.744.877-2.865 1.975-3.746-.854-.976-1.284-1.826-1.284-3.057a3.815 3.815 0 01.295-1.49c-.79-.402-1.606-.74-2.443-1.012C18.467 24.557 18 24.012 18 22.682c0-1.093 1.142-1.685 2.386-1.682 1.604.004 3.152.555 4.36 1.682L27 19.69C25.224 17.94 23.115 17 20.055 17 15.898 17 13 19.361 13 23.053c0 3.115 1.482 5.051 5.957 6.511 2.919.936 3.667 1.632 3.667 3.178 0 1.6-1.066 2.258-3.03 2.258a7.048 7.048 0 01-5.026-2.058L12 36c1.647 1.662 4.129 2.995 7.593 2.995a9.728 9.728 0 004.7-1.066c-.4-.38-.72-.849-.936-1.374a4.206 4.206 0 01-.313-1.666z" fill="#fff"/><path d="M32.474 27.968c0 1.559-.988 2.56-2.397 3.506l2.45 2.354c.4-.603.694-.994.872-1.828h2.416c-.398 1.257-.968 2.25-1.692 3.336L37 38.53h-3.101l-1.445-1.432a5.988 5.988 0 01-3.974 1.391c-2.683 0-4.48-1.429-4.48-3.598 0-1.54.816-2.54 2.45-3.633-1.252-1.241-1.742-1.985-1.742-3.17 0-1.594 1.25-3.085 3.884-3.085 2.45.007 3.882 1.285 3.882 2.965zm-4.392 4.866c-.744.555-1.086 1.148-1.086 1.892 0 1.028.777 1.686 1.975 1.686a3.207 3.207 0 002.05-.706l-2.939-2.872zm-.616-4.747c0 .648.27 1.077 1.034 1.855.833-.556 1.235-1.114 1.235-1.892.047-.616-.372-1.046-1.107-1.05-.734-.004-1.202.447-1.162 1.087z" fill="#fff"/></svg>