<!-- by TradingView --><svg width="56" height="56" viewBox="0 0 56 56" xmlns="http://www.w3.org/2000/svg"><path fill="#F0F3FA" d="M0 0h56v56H0z"/><path fill-rule="evenodd" d="m11 35.08 15.36 8.86c.28.17.64-.04.64-.37v-9.53L15 26.8v-1.52l12 7.01v-4.22l-15.14-8.99a.57.57 0 0 0-.86.49v9.35l12 7.13v1.56l-11.14-6.49a.57.57 0 0 0-.86.5v3.46Zm18 8.49V28.4c0-.1.05-.2.14-.25l15.22-9.1c.28-.17.64.04.64.37v6.9L32 33.8v1.66l12.36-7.18c.28-.16.64.05.64.38v6.5l-15.36 8.78a.43.43 0 0 1-.64-.37Zm3-11.44v-1.57l10-5.63v1.64l-10 5.56Zm0 6.48v-1.57l10-5.8v1.64l-10 5.73Z" fill="#293267"/><path d="m26 22.77-1.62-3.1a.43.43 0 0 0-.31-.24l-4.79-.8a.35.35 0 0 1-.28-.36c0-.14.08-.27.21-.32l4.59-1.78c.16-.07.2-.23.2-.42v-3.38c0-.12.12-.23.2-.3.11-.08.25-.1.37-.03l4.12 2.24c.1.04.2.05.29.03L34.3 13c.13-.03.27 0 .36.1a.4.4 0 0 1 .05.48l-1.62 2.77a.46.46 0 0 0 .1.57l2.69 2.38c.11.1.15.27.1.4-.06.14-.18.3-.32.3h-5.38c-.1 0-.2-.04-.27.03l-3.35 2.87a.42.42 0 0 1-.65-.13Z" fill="#28BDFE"/></svg>