<!-- by TradingView --><svg width="56" height="56" viewBox="0 0 56 56" xmlns="http://www.w3.org/2000/svg"><path fill="#F0F3FA" d="M0 0h56v56H0z"/><path d="M12.44 25.48c-.1.37.18.73.56.73.25 0 .48-.16.57-.39 2.02-5.1 6.9-8.7 12.6-8.7 5.08 0 9.5 2.85 11.85 7.07a27.3 27.3 0 0 0 1.55-3.78 15.26 15.26 0 0 0-12.33-6.32 15.47 15.47 0 0 0-14.8 11.4Zm29.82.88a18.15 18.15 0 0 1-2.5 3.82 14.04 14.04 0 0 1-6.07 12.55c-.3.19-.4.57-.26.88.17.35.58.5.91.31a15.86 15.86 0 0 0 8.3-14.03c0-1.21-.13-2.4-.38-3.53Z" fill="#93C93D"/><path d="M36.4 32.29c9.02-6.97 7.05-16.8 4.26-21.29.51 3.39 1.54 11.02-5.81 17.98C27.5 35.93 15.22 33.3 10 31.1c.74 1.18 15.15 9.87 26.4 1.18Z" fill="#2E328D"/></svg>