<!-- by TradingView --><svg xmlns="http://www.w3.org/2000/svg" width="56" height="56" viewBox="0 0 56 56"><path fill="#F0F3FA" d="M0 0h56v56H0z"/><path d="M12.22 28.07c1.55 7.7 9.2 12.06 15.56 10.57-10.76-2.6-12.6-13.25-9.04-19.7-3.32 1.81-5.96 5.88-6.52 9.13Z" fill="url(#at1k5mlsk)"/><path d="M17.3 28c-.57-3.1-.07-6.36 1.44-9.06 3.44-2.39 8.83-1.7 9.24-1.52-4.17.48-9.37 4.26-10.67 10.58Z" fill="url(#bt1k5mlsk)"/><path d="M26.75 43.95a16 16 0 1 0-.41-31.87c2.4.23 4.39.92 6.02 1.9 6.03 3.6 6.88 10.2 6.3 14.09.44 3.4-.04 6-.94 8.03a13.1 13.1 0 0 1-4.2 5.21c-2.87 2.1-6 2.53-6.77 2.64Z" fill="url(#ct1k5mlsk)"/><path d="M38.66 28.07c.44 3.4-.04 6-.94 8.03a13.1 13.1 0 0 1-4.2 5.21c-2.82 2.07-5.9 2.52-6.73 2.64h-.04a16.01 16.01 0 0 1-14.67-14.04c-.12-.98.14-1.91.14-1.84 1.55 7.7 9.2 12.06 15.56 10.57h.07c6.57-.75 10.81-7.55 10.81-10.57Z" fill="url(#dt1k5mlsk)"/><path d="M27.98 17.42c3.43.28 9.59 3.85 10.68 10.65a14.6 14.6 0 0 0-1.57-9.2c-4.25-2.54-9.1-1.45-9.1-1.45Z" fill="#D9D663"/><path d="M12.1 29.3s-.15-1.55-.09-2.54a15.88 15.88 0 0 1 1.62-5.88 16.07 16.07 0 0 1 12.5-8.78c.42-.04 1.79.17 1.79.17-3.9.84-7.2 3.3-9.18 6.67-3.76 2.06-6.65 7-6.64 10.36Z" fill="#DFD36B"/><path d="M18.74 18.94c3.44-2.38 8.83-1.7 9.24-1.52 0 0 4.86-1.1 9.1 1.45a12.87 12.87 0 0 0-9.25-6.58c-3.85.86-7.12 3.3-9.09 6.65Z" fill="#DFC516"/><defs><linearGradient id="at1k5mlsk" x1="20" y1="18.94" x2="20" y2="38.93" gradientUnits="userSpaceOnUse"><stop stop-color="#F9C309"/><stop offset="1" stop-color="#B9601C"/></linearGradient><linearGradient id="bt1k5mlsk" x1="26.61" y1="18.39" x2="17.01" y2="25.77" gradientUnits="userSpaceOnUse"><stop stop-color="#CE9109"/><stop offset=".92" stop-color="#924A0C"/></linearGradient><linearGradient id="ct1k5mlsk" x1="35.17" y1="12" x2="35.17" y2="44" gradientUnits="userSpaceOnUse"><stop stop-color="#98C044"/><stop offset="1" stop-color="#457A3E"/></linearGradient><linearGradient id="dt1k5mlsk" x1="12.1" y1="29.3" x2="25.49" y2="43.91" gradientUnits="userSpaceOnUse"><stop stop-color="#047195"/><stop offset="1" stop-color="#6EBFDB"/></linearGradient></defs></svg>