<!-- by TradingView --><svg width="56" height="56" viewBox="0 0 56 56" xmlns="http://www.w3.org/2000/svg"><path d="M20.4 25.17c-3.14-.52-5.5-1.03-5.5-3.26 0-1.99 1.7-3.27 4.38-3.27a4.51 4.51 0 0 1 2.9.83c.83.6 1.42 1.55 1.68 2.53h4.5c-.78-4.16-4.17-7-8.88-7-5.43 0-9.09 2.94-9.09 7.23 0 5.3 5.04 6.07 8.44 6.58 3.4.51 6.17 1.15 6.17 3.7C25 34.7 22.68 36 19.61 36a5.12 5.12 0 0 1-3.06-.73A4.65 4.65 0 0 1 14.58 33H10c.98 4.22 4.64 7 9.54 7 5.82 0 9.46-3.32 9.46-7.93-.13-5.05-4.16-6.2-8.6-6.9ZM35 22h-4v-4h4v4Zm7.75 11c-.13 1.77-2.21 2.96-3.86 2.84A3.75 3.75 0 0 1 35 32.01V26h-4v6.14c0 4.73 3.25 7.86 7.63 7.86 4.64 0 7.72-2.72 8.37-7h-4.25Z" fill="#333F48"/><path d="M45 22v4h-4v-4h4Zm-6 0h-4v4h4v-4Z" fill="#FF4700"/></svg>