<!-- by TradingView --><svg width="56" height="56" viewBox="0 0 56 56" xmlns="http://www.w3.org/2000/svg"><path fill="#F0F3FA" d="M0 0h56v56H0z"/><path d="m6.88 25.97-.57.42c-.16-.33-.35-.39-.7-.39-.36 0-.61.24-.61.54 0 1.12 2 1.01 2 2.62C7 30.14 6.39 31 5.5 31c-.88 0-1.39-.77-1.5-1.7l.82-.2c.05.55.17.9.6.9.35 0 .58-.28.58-.78 0-1.07-2-1.09-2-2.68 0-.89.86-1.54 1.62-1.54.53 0 .96.32 1.26.97ZM9.5 28v3h-1v-3h-1v-1h1v-1h1v1h1v1h-1ZM14 27h1v4h-1v-.5c-.37.33-.69.5-1.12.5-1.12 0-1.88-.93-1.88-2.01 0-1.06.76-1.99 1.85-1.99.46 0 .79.18 1.15.54V27Zm-2 1.99c0 .63.33 1.23 1.02 1.23.68 0 .98-.55.98-1.21 0-.66-.3-1.22-.98-1.22-.65 0-1.02.57-1.02 1.2ZM16 27h1v.46c.31-.28.7-.46 1.12-.46.28 0 .58.08.88.23l-.49.82c-.2-.12-.4-.18-.58-.18-.58 0-.93.37-.93 1.11V31h-1v-4ZM22 27h2v-2h1v6h-1v-3h-2v3h-1v-6h1v2Z"/><path fill-rule="evenodd" d="M28 27c-1.09 0-2 .88-2 1.97A2 2 0 0 0 27.98 31a2 2 0 1 0 .02-4Zm-1 1.99c0 .55.36 1.01 1 1.01.62 0 1-.45 1-1 0-.54-.38-1-1-1-.6 0-1 .45-1 .99Z"/><path d="M32 25v6h-1v-6h1ZM36 25h1v6h-1v-.53c-.36.35-.68.53-1.13.53-1.16 0-1.87-1.03-1.87-2.11 0-1.06.72-1.89 1.85-1.89.46 0 .79.19 1.15.57V25Zm-2 3.89c0 .61.31 1.11 1.02 1.11.7 0 .98-.48.98-1.1 0-.6-.27-1.07-.98-1.07-.68 0-1.02.43-1.02 1.06ZM38 24.5c0-.14.05-.26.15-.35.1-.1.21-.15.35-.15.14 0 .26.05.35.15.1.1.15.21.15.35 0 .14-.05.26-.15.35-.1.1-.2.15-.35.15a.48.48 0 0 1-.35-.15.49.49 0 0 1-.15-.36ZM39 31v-5h-1v5h1ZM40 27h.8v.47c.29-.31.6-.47.96-.47.93 0 1.24.8 1.24 1.61V31h-1v-2.17c0-.49 0-1.02-.46-1.02-.54 0-.54.78-.54 1.31V31h-1v-4ZM51.73 27.94l-.8.48c-.13-.3-.29-.42-.48-.42-.17 0-.45.13-.45.34 0 .66 2 .85 2 2.08 0 .45-.15.83-.45 1.14-.29.3-.64.44-1.05.44-.7 0-1.2-.39-1.5-1.16l.83-.43c.15.29.3.59.66.59.33 0 .51-.15.51-.48 0-.52-1.78-.91-1.78-2.1 0-.74.53-1.42 1.3-1.42.55 0 .95.31 1.2.94ZM48.01 30.97c0 1.2-.53 2.03-1.92 2.03-1 0-1.8-.62-1.92-1.64h.92c.1.51.48.82 1 .82.67 0 .91-.19.91-1v-.74c-.36.37-.68.56-1.16.56-1.13 0-1.84-.93-1.84-2 0-1.08.7-2 1.85-2 .5 0 .82.19 1.15.56V27h1.01v3.97ZM47 29.09c0-.65-.27-1.27-.97-1.27-.72 0-1.03.51-1.03 1.17 0 .65.32 1.2 1.03 1.2.7 0 .97-.44.97-1.1Z"/></svg>