<!-- by TradingView --><svg xmlns="http://www.w3.org/2000/svg" width="56" height="56" viewBox="0 0 56 56"><path fill="#F0F3FA" d="M0 0h56v56H0z"/><path fill-rule="evenodd" d="M28 39a11 11 0 1 0 0-22 11 11 0 0 0 0 22zm0-4a7 7 0 1 0 0-14 7 7 0 0 0 0 14z" fill="#0169B4"/><path d="M28.06 10c-1 1.12-2.38 3.85 0 5.84.9-.85 2.17-3.21 0-5.84zm-5.58.87c-.6 1.37-1.07 4.4 1.8 5.55.6-1.09 1.08-3.73-1.8-5.55zm-8.95 6.43c.31 1.46 1.7 4.2 4.7 3.45-.14-1.23-1.3-3.65-4.7-3.45zm4.03-3.96c-.16 1.49.3 4.52 3.4 4.74.24-1.22-.1-3.87-3.4-4.74zm24.91 3.96c-.31 1.46-1.7 4.2-4.7 3.45.14-1.23 1.3-3.65 4.7-3.45zm-4.03-3.96c.16 1.49-.3 4.52-3.4 4.74-.24-1.22.1-3.87 3.4-4.74zm-4.92-2.47c.6 1.37 1.07 4.4-1.8 5.55-.6-1.09-1.08-3.73 1.8-5.55zm11.61 11.6c-1.37-.6-4.4-1.06-5.55 1.82 1.09.6 3.73 1.07 5.55-1.81zm.87 5.59c-1.12-1-3.85-2.38-5.84 0 .85.9 3.21 2.17 5.84 0zm-36 0c1.12-1 3.85-2.38 5.84 0-.85.9-3.21 2.17-5.84 0zm.9-5.7c.76 1.3 2.93 3.47 5.55 1.82-.52-1.13-2.37-3.07-5.55-1.81z" fill="#0169B4"/><path d="M27.12 33.06c0 .69-.16 1.32-.38 1.83a7 7 0 0 1-5.67-5.92l-1.76.02-2.26.03a11 11 0 0 0 21.88.17c-.98-.1-2.37-.17-4-.21a7 7 0 0 1-5.72 5.92 4.18 4.18 0 0 1-.33-2.24 2.3 2.3 0 0 1 .85-1.59c.4-.35 1.4-.2 1.84-.07.45.9 1.43.73 1.87.52-.4-1.02-1.35-.97-1.78-.81a1.48 1.48 0 0 0-.67-.27c-.32-.04-.42-.16-.42-.21a7.34 7.34 0 0 1 1.89-1.47c.97.6 1.77-.16 2.04-.61-1.17-.73-1.92-.06-2.14.36-.11.06-.39.18-.57.2-.19.04-.18-.06-.16-.12l.3-1.18c.16-.04.46-.25.46-.74s-.24-.88-.36-1.02c-.18.16-.55.58-.55 1 0 .4.2.65.3.71-.13.7-1.07 2.02-1.21 1.96-.12-.05-.08-.34-.05-.48a1.18 1.18 0 0 0-.46-1.64c-.6.84-.1 1.45.24 1.64 0 .11 0 .39-.04.62-.04.24-.56.6-.82.76-.32.24-.92.36-.69-1.11a5.4 5.4 0 0 1 1.77-3.06c1.11-.1 1.14-.67 1.14-.84l.01-.04c-.93-.12-1.25.43-1.3.72-.19.13-.31.27-.41.38-.1.1-.16.18-.25.2-.14.05-.12-.02-.09-.05.14-.6.76-1.39 1.05-1.7 1.1.04 1.52-.71 1.59-1.1-1.1-.38-1.62.42-1.74.87-1.05.92-1.54 1.93-1.8 2.48-.12.25-.2.4-.25.4-.15-.02-.17-.4-.16-.58.35-.86-.12-1.25-.4-1.34-.5.73-.07 1.23.2 1.39.05.56.09 1.65-.11 1.6-.26-.06-.6-1.33-.72-1.97-.09-.5.04-1.91.11-2.55.88-.55.55-1.52.27-1.93-.51.3-.74.85-.74 1.22 0 .3.16.6.24.71-.3.55-.45 2.14-.5 2.87a8.95 8.95 0 0 0-2.2-1.15c-.73-.99-1.68-.63-2.06-.32.74 1.12 1.64.85 2 .57a5.27 5.27 0 0 1 2.88 3.97c0 .26-.13.29-.2.27l-1.32-1.2c-.21-.18-.3-.47-.32-.6a1.21 1.21 0 0 0-.6-1.67c-.48.96.08 1.55.42 1.72.05.05.05.3.04.41-.29-.15-1.2-.43-1.62-.55-.67-1.08-1.97-.4-2.19-.3l-.02.02c.7.94 1.74.78 2.15.55a4.78 4.78 0 0 1 2.71 2.02 4.04 4.04 0 0 0-2 .15 1.42 1.42 0 0 0-1.83.86c1.18.47 1.8-.2 1.96-.59 1.69-.02 2.66.53 2.66 2.11zm-2.85-5.3c-.4 0-1.15-.28-.98-1.38.43.09 1.24.5.98 1.38zM24 29.2c-.1.41-.6 1.11-1.7.63.22-.42.86-1.14 1.7-.63zm1.02-3.76c-.38-.16-.98-.73-.38-1.72.38.26 1 .98.39 1.72zm2.84-.58c-.14-.39-.12-1.22 1.02-1.43.06.46-.06 1.39-1.02 1.43zm-1.34-.28c-.4-.08-1.14-.5-.76-1.58.43.17 1.2.73.76 1.58zm-.21 1.52c-.32-.08-.86-.43-.53-1.26.33.16.9.62.53 1.26zm.12 3c-.26-.1-.7-.46-.31-1.15.26.17.7.63.31 1.15zm3.04.7c-.22-.16-.5-.65.07-1.18.2.24.47.82-.07 1.19zm3.44.55c.18-.22.66-.5 1.2.07-.25.2-.83.47-1.2-.07zm-7.61-.52c-.14.25-.56.62-1.19.14.2-.24.73-.6 1.19-.14zm-.2 1.71c.08.32.01.99-.89 1.05 0-.37.16-1.1.9-1.05zm.51-.01c.4.15 1.03.7.45 1.68-.4-.26-1.04-.95-.45-1.68zm4.38.24c.2.27.37.91-.44 1.3-.15-.34-.27-1.08.44-1.3zm.54-.35c.42-.07 1.25.06 1.28 1.2-.48-.01-1.39-.27-1.28-1.2zm2.3-5.22c-.23-.23-.52-.8.2-1.35.2.3.45 1-.2 1.35zm-1.65 1.79c-.28-.1-.74-.5-.33-1.26.29.18.75.68.33 1.26zm1.44-.41c-.06-.36.09-1.1 1.17-1.12-.03.42-.29 1.22-1.17 1.12zm-.92 2.5c.08-.36.5-.98 1.5-.59-.18.38-.73 1.02-1.5.6zm-2.82-4.34c-.19-.2-.41-.71.21-1.14.16.26.35.86-.2 1.14zm.92-1.1c-.36-.24-.86-.96-.01-1.88.33.35.8 1.22.01 1.88zm-18.9 9c.75-1.29 2.92-3.46 5.54-1.8-.52 1.12-2.37 3.06-5.55 1.8zm2.55 4.98c1.5.14 4.52-.36 4.7-3.45-1.22-.23-3.87.14-4.7 3.45zm29.08 0c-1.5.14-4.52-.36-4.7-3.45 1.22-.23 3.87.14 4.7 3.45zM22.37 45.1c1.29-.76 3.46-2.93 1.8-5.55-1.12.52-3.06 2.37-1.8 5.55zm11.26 0c-1.29-.76-3.46-2.93-1.8-5.55 1.12.52 3.06 2.37 1.8 5.55zm-5.57.9c-1-1.12-2.38-3.85 0-5.84.9.85 2.17 3.21 0 5.84zm10.47-3.4c-1.45-.34-4.18-1.75-3.4-4.75 1.23.16 3.64 1.34 3.4 4.75zm-21.06 0c1.45-.34 4.18-1.75 3.4-4.75-1.23.16-3.64 1.34-3.4 4.75zm27.66-9.08c-1.37.6-4.4 1.07-5.55-1.8 1.09-.6 3.73-1.08 5.55 1.8z" fill="#73AC41"/></svg>