<!-- by TradingView --><svg xmlns="http://www.w3.org/2000/svg" width="56" height="56" viewBox="0 0 56 56"><path fill="#F0F3FA" d="M0 0h56v56H0z"/><path d="M4 26h3.7v.3H6V31h-.3v-4.7H4V26zm4.3 0H8v5h.3v-2.7h3.07V31h.3v-5h-.3v2H8.3v-2zm4 .3h2.95V26H12v5h3.25v-.3H12.3v-2.16H15v-.3h-2.7V26.3z"/><path fill-rule="evenodd" d="M18.25 31c1.4 0 2.25-1.12 2.25-2.5s-.73-2.5-2.25-2.5c-1.4 0-2.25 1.12-2.25 2.5s.84 2.5 2.25 2.5zm0-.61c.97 0 1.55-.84 1.55-1.88 0-1.03-.5-1.87-1.55-1.87-.97 0-1.55.84-1.55 1.87 0 1.04.58 1.88 1.55 1.88zM21 26v5h.68v-3.97L24.22 31H25v-5h-.68v4.02L21.8 26H21zm5 5v-5h3.4v.64h-2.7v1.49h2.53v.62H26.7v1.6h2.7V31H26zM41.25 31c1.4 0 2.25-1.12 2.25-2.5s-.73-2.5-2.25-2.5c-1.4 0-2.25 1.12-2.25 2.5s.84 2.5 2.25 2.5zm0-.33c1.2 0 1.93-.97 1.93-2.17s-.62-2.17-1.93-2.17c-1.2 0-1.93.97-1.93 2.17s.72 2.17 1.93 2.17zM34 30.02c-.37.6-.99.98-1.8.98-1.37 0-2.2-1.12-2.2-2.5s.83-2.5 2.2-2.5c1.16 0 1.85.67 2.1 1.62h-.33a1.74 1.74 0 0 0-1.77-1.3c-1.18 0-1.89.98-1.89 2.18 0 1.2.71 2.17 1.9 2.17.93 0 1.56-.6 1.8-1.45V29H32.3v-.3h2V31H34v-.98zm1 .98v-5h2.31c.69 0 1.2.62 1.2 1.37 0 .55-.39 1.01-.91 1.23.46.03.82.46.82.97v.56c0 .36.15.73.22.87h-.4a1.8 1.8 0 0 1-.14-.7v-.45c0-.87-.47-1.12-1.04-1.13h-1.77V31H35zm.3-4.73v2.17h1.73c.74 0 1.16-.49 1.16-1.09 0-.6-.44-1.08-.99-1.08h-1.9zM48.5 31v-5h2.3c.68 0 1.2.62 1.2 1.37 0 .76-.75 1.35-1.55 1.35H48.8V31h-.29zm.3-4.73v2.17h1.72c.73 0 1.16-.49 1.16-1.09 0-.6-.44-1.08-.99-1.08H48.8zM44 26v3.33c0 .92.75 1.67 1.67 1.67h.66c.92 0 1.67-.75 1.67-1.67V26h-.32v3.35c0 .71-.59 1.3-1.3 1.3h-.66a1.3 1.3 0 0 1-1.3-1.3V26H44z"/></svg>