<!-- by TradingView --><svg width="56" height="56" xmlns="http://www.w3.org/2000/svg"><path fill="#BF2F37" d="M0 0h56v56H0z"/><path d="M32.119 44L48 28 32.061 12H21l15.939 16-15.881 16h11.06z" fill="#F6F8FD"/><path d="M12.832 33.214l1.933-1.934.702.701c.291.292.56.456.806.493.245.04.477-.048.69-.262.199-.199.29-.42.28-.668-.015-.248-.123-.475-.332-.683a1.447 1.447 0 00-.707-.376c-.291-.069-.638-.081-1.041-.035-.18.018-.445.049-.79.096-1.122.143-1.93.21-2.426.2a3.2 3.2 0 01-1.31-.292 4.037 4.037 0 01-1.173-.831c-.723-.724-1.063-1.51-1.023-2.358.04-.85.46-1.674 1.26-2.474.799-.799 1.582-1.214 2.354-1.252.771-.038 1.523.312 2.259 1.047l.71.71-1.849 1.85-.595-.596c-.277-.277-.529-.431-.76-.464-.228-.03-.447.06-.658.27a.751.751 0 00-.24.59c.008.221.11.428.303.62.324.325 1.264.41 2.826.255.043-.004.074-.006.088-.006l.28-.027c1.385-.126 2.287-.126 2.708 0 .283.084.558.212.83.38.27.169.528.378.778.627.745.745 1.094 1.555 1.05 2.434-.047.878-.486 1.734-1.32 2.567-.825.826-1.663 1.243-2.51 1.252-.85.011-1.676-.386-2.476-1.187l-.647-.647zm3.339-11.7l-.248.246 5.688 5.689.248-.248c.378-.378.567-.678.565-.896-.002-.221-.162-.49-.477-.804l-4.07-4.071c-.317-.317-.585-.477-.806-.478-.222-.006-.522.183-.9.561zm-3.679.727l2.42-2.42c1.043-1.043 1.914-1.579 2.614-1.605.698-.03 1.493.403 2.382 1.291l3.973 3.974c.475.475.797.908.968 1.298.17.393.232.819.187 1.278-.043.38-.18.755-.412 1.128-.232.372-.703.915-1.417 1.63l-.28.278-1.791 1.792-8.644-8.644zm14.06 3.228l-8.644-8.643 1.955-1.956 8.644 8.644-1.955 1.955z" fill="#231F20"/></svg>