<!-- by TradingView --><svg width="56" height="56" viewBox="0 0 56 56" xmlns="http://www.w3.org/2000/svg"><path fill="#450099" d="M0 0h56v56H0z"/><path d="M28 25.54C27.75 24.1 26.64 23 24.78 23H24v8.15C24 32.8 25.1 34 26.9 34H28v-3.52c0-3.22.8-4 2.28-4 1.09 0 2.03-.69 2.3-1.67L33 23.3c-.66-.28-1.2-.3-1.7-.3-1.37 0-2.64.78-3.3 2.54ZM10.86 27.47l-2-.52c-.7-.15-.84-.4-.84-.67 0-.43.45-.6.93-.6.43 0 .74.11.93.32.34.38.8.64 1.34.64h2.47c0-2.74-2.54-3.64-4.93-3.64C6.25 23 4 24.58 4 26.14c0 .77.12 2.64 3.65 3.55l1.42.36c.85.2.93.27.93.6 0 .44-.44.7-1.1.7-.38 0-.67-.1-.88-.25-.69-.53-1.54-1.05-2.43-1.05H4C4 32.49 6.51 34 8.9 34c2.4 0 5.1-1 5.1-3.34 0-.66-.24-2.46-3.14-3.19ZM20.81 23H20v-.84c0-1.98-1.12-3.16-3.25-3.16H16v4h-2v.55c0 1.55.55 2.43 2 2.45v5.1c0 1.68 1.36 2.9 3.1 2.9h.9v-8h3v-.72C23 24 22.07 23 20.81 23ZM47.67 23.05c-1.52 0-2.82.67-3.4 2.15-.65-1.42-1.9-2.2-3.75-2.2-1.12 0-2.34.24-3.15 1.65A2.8 2.8 0 0 0 34.74 23H34v8.11c0 1.64 1.04 2.89 2.74 2.89H38v-3.6c0-2.8.14-3.73 1.32-3.87.97-.12 1.68.46 1.68 1.85v2.73A2.8 2.8 0 0 0 43.9 34H45v-3.68c.01-2.7.3-3.6 1.47-3.74.97-.12 1.53.46 1.53 1.85v2.74C48 32.8 49.34 34 51.04 34H52v-5.68c0-3.32-1.4-5.27-4.33-5.27Z" fill="#fff"/></svg>