<!-- by TradingView --><svg xmlns="http://www.w3.org/2000/svg" width="56" height="56"><path fill="#3568AF" d="M0 0h56v56H0z"/><path d="M43.5 25.5a.75.75 0 11-1.5 0 .75.75 0 011.5 0z" fill="#fff"/><path fill-rule="evenodd" d="M7.44 22a6.12 6.12 0 00-1.53.15c-.8.19-1.45.65-1.75 1.26-.09.19-.14.38-.16.59a1.57 1.57 0 00.62 1.33c.5.39 1.12.55 1.7.61.49.06 1 .06 1.42.06h.19c.47 0 1.2.03 1.77.2.29.09.49.2.6.32.1.1.15.22.13.42-.05.42-.34.7-.87.88-.53.18-1.2.2-1.72.18a5.97 5.97 0 01-3.21-.9l-.6.8A6.93 6.93 0 007.82 29c.55.01 1.36 0 2.06-.23.71-.24 1.43-.74 1.54-1.71.06-.5-.1-.92-.4-1.23a2.4 2.4 0 00-1.03-.58A7.45 7.45 0 007.72 25c-.42 0-.86 0-1.29-.05a2.4 2.4 0 01-1.2-.4.58.58 0 01-.22-.34.57.57 0 01.05-.37c.14-.28.5-.58 1.08-.72.37-.09.81-.13 1.28-.12 1.2.02 2.48.35 3.2.9l.6-.78A6.94 6.94 0 007.45 22zM15 22h-1v4c0 2.36 2.07 3 4 3 1.93 0 4-.64 4-3v-4h-1v4c0 1.77-1.64 2-3 2s-3-.23-3-2v-4zm12 0h-3v1h3v6h1v-6h3v-1h-4zm7 0h-1v7h1v-2.5h3.8l1.76 2.5h1.22l-1.76-2.5a2 2 0 001.98-2V24a2 2 0 00-2-2h-5zm0 1v2.5h4.75a1.25 1.25 0 000-2.5H34zm13.25 6c2.62 0 4.75-1.41 4.75-3.5S49.87 22 47.25 22c-1.37 0-2.6.43-3.47 1.11.76-.38 1.7-.61 2.72-.61 2.49 0 4.5 1.24 4.5 3s-2.01 3-4.5 3a6.07 6.07 0 01-2.72-.61c.87.68 2.1 1.11 3.47 1.11zM5 31h2.61a.77.77 0 01.45 1.41.82.82 0 01-.3 1.6H5V31zm.48.48h2.04a.39.39 0 110 .78H5.48v-.77zm0 1.26h2.23a.39.39 0 010 .78H5.48v-.78z" fill="#fff"/><path d="M10.7 31h.42v3h-.43v-3z" fill="#fff"/><path fill-rule="evenodd" d="M15.5 33.53c.7 0 1.13-.55 1.13-1.03s-.43-1.03-1.13-1.03-1.13.55-1.13 1.03.43 1.03 1.13 1.03zm0 .47a1.5 1.5 0 100-3 1.5 1.5 0 000 3z" fill="#fff"/><path d="M20.04 31h-.43v3h.43v-3zm0 0h1.62a.92.92 0 110 1.84h-1.62v-.48h1.68a.44.44 0 000-.88h-1.68V31zm4.92 0h.43v3h-.43v-3zm2.55 0h.43v3h-.43v-1.36h-2.12v-.48h2.12V31z" fill="#fff"/><path fill-rule="evenodd" d="M31.72 31l-1.45 3h.48l.33-.68h1.82l.33.68h.48l-1.45-3h-.54zm.94 1.84L32 31.45l-.68 1.39h1.35zM49 31l-1.44 3h.48l.33-.68h1.82l.33.68H51l-1.45-3H49zm.95 1.84l-.67-1.39-.68 1.39h1.35zM36 31h2.06a.92.92 0 01.2 1.82l.69 1.18h-.52l-.67-1.16h-1.33V34H36v-3zm.43 1.36v-.88h1.69a.44.44 0 010 .88h-1.69z" fill="#fff"/><path d="M41.95 31h-.42v3h.42v-2.23l1.36 1.9 1.36-1.9V34h.42v-3h-.42l-1.36 1.9-1.36-1.9z" fill="#fff"/></svg>