<!-- by TradingView --><svg xmlns="http://www.w3.org/2000/svg" width="56" height="56" viewBox="0 0 56 56"><path fill="#F0F3FA" d="M0 0h56v56H0z"/><path d="M28 28.62V9l4.72 13.52-4.72 6.1Z" fill="#002D62"/><path d="M28 28.62V9l-4.72 13.52 4.72 6.1Z" fill="#CDCCCC"/><path d="M23.28 22.5H9l19.02 6.1-4.74-6.1Z" fill="#002D62"/><path d="M32.72 22.5H47l-19 6.1 4.72-6.1ZM20.66 31.3 9 22.5l19 6.08-7.34 2.72Z" fill="#CDCCCC"/><path d="M35.22 31.3 47 22.5l-19 6.08 7.22 2.72Z" fill="#002D62"/><path d="M20.65 31.3 16.32 45l11.7-16.42-7.37 2.71Z" fill="#002D62"/><path d="M35.22 31.3 39.56 45 28.02 28.58l7.2 2.71ZM28 36.6l-11.67 8.38L28 28.57v8.02Z" fill="#CDCCCC"/><path d="M28 36.6 39.57 45 28 28.56v8.03Z" fill="#002D62"/></svg>