<!-- by TradingView --><svg width="56" height="56" viewBox="0 0 56 56" xmlns="http://www.w3.org/2000/svg"><path fill="#F0F3FA" d="M0 0h56v56H0z"/><path d="M9 26.67v.28l-1 .25v-.52H5v.9h3.25c.42 0 .75.3.75.67v1.08c0 .37-.33.67-.75.67h-3.5c-.42 0-.75-.3-.75-.67v-.38l1-.25v.54h3v-.9H4.76c-.41 0-.76-.3-.76-.67v-1c0-.37.35-.67.76-.67h3.5c.4 0 .74.3.74.67ZM52 26.67v.28l-1 .25v-.52h-3v.9h3.25c.42 0 .75.3.75.67v1.08c0 .37-.33.67-.75.67h-3.5c-.42 0-.75-.3-.75-.67v-.38l1-.25v.54h3v-.9h-3.24c-.41 0-.76-.3-.76-.67v-1c0-.37.35-.67.76-.67h3.5c.4 0 .74.3.74.67ZM13 26h-2v.74h2V30h1v-3.26h2V26h-3ZM34 26h-2v.74h2V30h1v-3.26h2V26h-3ZM41 26v3.3h3V26h1v3.24c0 .42-.37.76-.83.76h-3.34c-.46 0-.83-.34-.83-.76V26h1ZM18 30v-4h3.94c.34 0 .62.28.62.63v1.45c0 .35-.28.63-.62.63h-.54L23 30h-1.47l-1.48-1.29H19V30h-1Zm1-2h2.37c.14 0 .26-.12.26-.27v-.75a.27.27 0 0 0-.26-.27H19V28ZM25 30l2.49-4h.94L31 30h-1.2l-.59-1H26.7l-.6 1H25Zm2.15-1.78h1.6l-.8-1.37-.8 1.37Z" fill="#6E6E70"/></svg>