<!-- by TradingView --><svg width="56" height="56" viewBox="0 0 56 56" xmlns="http://www.w3.org/2000/svg"><path fill="#F0F3FA" d="M0 0h56v56H0z"/><path d="M23 33a1.92 1.92 0 0 1-2-1.96A2 2 0 0 1 23 29a2.03 2.03 0 0 1 1.85 2.78A1.97 1.97 0 0 1 23 33Z" fill="#C89C6C"/><path d="M27.95 24a1.94 1.94 0 0 1-1.81-1.25 2 2 0 0 1 .02-1.54A2 2 0 0 1 28.02 20c1.07.03 2.01 1 1.98 2.04a2.03 2.03 0 0 1-.62 1.4 2 2 0 0 1-1.43.56Z" fill="#B98976"/><path d="M22.92 26c-1.14-.02-1.95-.88-1.92-2.05A2 2 0 0 1 23 22a2.03 2.03 0 0 1 2 2.03A1.96 1.96 0 0 1 22.92 26Z" fill="#C89C6C"/><path d="M32.99 26A1.94 1.94 0 0 1 31 24 2 2 0 0 1 33 22a2.03 2.03 0 0 1 2 2.01A2 2 0 0 1 32.99 26Z" fill="#AC787E"/><path d="M28.02 26a2 2 0 0 1 1.42.56 1.87 1.87 0 0 1 .55 1.37 1.87 1.87 0 0 1-.53 1.46 2 2 0 0 1-1.48.61 2.06 2.06 0 0 1-1.47-.64 1.92 1.92 0 0 1-.5-1.47 1.83 1.83 0 0 1 .6-1.36 1.96 1.96 0 0 1 1.41-.53ZM28 36a2.02 2.02 0 0 1-1.42-.55 1.88 1.88 0 0 1-.57-1.36 1.87 1.87 0 0 1 .52-1.47A2 2 0 0 1 28 32a2.06 2.06 0 0 1 1.47.62A1.92 1.92 0 0 1 30 34.1a1.83 1.83 0 0 1-.58 1.36A1.96 1.96 0 0 1 28 36Z" fill="#B98976"/><path d="M32.97 33a1.89 1.89 0 0 1-1.4-.56A1.94 1.94 0 0 1 31 31a2 2 0 0 1 1.21-1.86c.24-.1.5-.15.76-.15a1.95 1.95 0 0 1 1.87 1.22 2.02 2.02 0 0 1-1.1 2.64c-.24.1-.5.15-.77.14Z" fill="#AC787E"/><path d="M18 33.97a1 1 0 0 1-.62.96 1 1 0 0 1-1.1-.24 1 1 0 0 1 .33-1.63.96.96 0 0 1 .39-.06.93.93 0 0 1 .93.58c.05.12.07.25.07.39ZM13 30.97a1 1 0 0 1-.62.96 1 1 0 0 1-1.1-.24 1 1 0 0 1 .33-1.63.96.96 0 0 1 .39-.06.93.93 0 0 1 .93.58c.05.12.07.25.07.39ZM13 24.97a1 1 0 0 1-.62.96 1 1 0 0 1-1.1-.24 1 1 0 0 1 .33-1.63.96.96 0 0 1 .39-.06.93.93 0 0 1 .93.58c.05.12.07.25.07.39ZM18 22.03a.99.99 0 0 1-1.02.97 1.03 1.03 0 0 1-.98-1.02 1.05 1.05 0 0 1 1.04-.98 1 1 0 0 1 .96 1.03ZM18 28a1 1 0 0 1-1.06 1c-.5-.02-.93-.5-.94-1.01a1 1 0 0 1 1-.99 1 1 0 0 1 1 1ZM17.01 17a.97.97 0 0 1-.93-.6A1 1 0 0 1 16 16c-.01-.52.47-1 1.01-1.01a.98.98 0 0 1 .92.62A1 1 0 0 1 18 16a.98.98 0 0 1-.6.93.94.94 0 0 1-.39.07ZM24 13.02a1.09 1.09 0 0 1-1.04.98 1 1 0 0 1-.96-1.08.99.99 0 0 1 1.02-.92 1.05 1.05 0 0 1 .98 1.02ZM23 36a1.03 1.03 0 0 1 1 1.01c0 .5-.52.99-1.03.99a1.02 1.02 0 0 1-.9-1.4.98.98 0 0 1 .94-.6ZM18 39.98a1 1 0 0 1-.97 1.02c-.5.02-1.04-.47-1.03-.97 0-.5.5-1.02.99-1.03a1 1 0 0 1 1.01.98Z" fill="#C89C6C"/><path d="M34 37a1.07 1.07 0 0 1-1.04 1 1.03 1.03 0 0 1-.96-1 1 1 0 0 1 1.7-.7c.2.19.3.44.3.7Z" fill="#AC787E"/><path d="M29 40a1.05 1.05 0 0 1-.96 1 1.04 1.04 0 0 1-1.04-.97 1 1 0 1 1 2-.03Z" fill="#B98976"/><path d="M23 44a.94.94 0 0 1-.7-.29A1 1 0 0 1 22 43a1 1 0 0 1 .29-.73.94.94 0 0 1 .7-.27.94.94 0 0 1 .71.28 1 1 0 0 1 .3.71c-.01.27-.12.53-.3.71a1 1 0 0 1-.7.3Z" fill="#C89C6C"/><path d="M28 17a.98.98 0 0 1-1-.98 1 1 0 0 1 .99-1.02A1 1 0 0 1 29 16a1 1 0 0 1-.6.93.98.98 0 0 1-.4.07Z" fill="#B98976"/><path d="M34 13a1.08 1.08 0 0 1-1.02 1 1.03 1.03 0 0 1-.98-.98.99.99 0 0 1 .98-1.02A1.03 1.03 0 0 1 34 13ZM34 18.98c0 .27-.1.53-.3.72a1 1 0 0 1-1.4 0 1.03 1.03 0 0 1-.23-1.1.98.98 0 0 1 .53-.53.94.94 0 0 1 .37-.07.98.98 0 0 1 .71.27 1.02 1.02 0 0 1 .32.71ZM45 25c-.01.26-.13.5-.31.7-.2.18-.45.29-.71.3a1.03 1.03 0 0 1-.7-.3 1 1 0 0 1 0-1.4c.19-.18.44-.29.7-.3.27 0 .52.11.71.3.2.18.3.43.31.7Z" fill="#AC787E"/><path d="M22.98 20c-.25 0-.5-.1-.68-.28a1.01 1.01 0 0 1-.3-.7.98.98 0 0 1 .26-.73.93.93 0 0 1 .7-.29c.56 0 1.05.45 1.04.99 0 .27-.12.52-.3.71a1 1 0 0 1-.72.3Z" fill="#C89C6C"/><path d="M40 16a.99.99 0 0 1-1 1 .98.98 0 0 1-1-.95 1 1 0 0 1 .97-1.05A1 1 0 0 1 40 16ZM45 31a1.01 1.01 0 0 1-1.02 1c-.26 0-.5-.1-.68-.28a1 1 0 0 1-.23-1.07 1.01 1.01 0 0 1 .52-.56.99.99 0 0 1 .38-.09c.27 0 .52.1.71.3.2.18.3.43.32.7ZM33 42a.98.98 0 0 1 .92.6A1.01 1.01 0 0 1 33 44a1 1 0 0 1-1-1 .97.97 0 0 1 .6-.93.96.96 0 0 1 .4-.07ZM40 27.98a1 1 0 0 1-.96 1.02 1 1 0 0 1-1.04-.95.98.98 0 0 1 1.35-.99 1 1 0 0 1 .65.92ZM39 33a.98.98 0 0 1 1 1.01 1.02 1.02 0 0 1-1.03.99 1 1 0 0 1-.97-1 .98.98 0 0 1 1-1ZM38 40.03a.93.93 0 0 1 .26-.73.97.97 0 0 1 .72-.3 1.03 1.03 0 0 1 .72.29 1 1 0 0 1 .3.7c0 .27-.12.52-.3.71-.2.19-.46.3-.73.3a.99.99 0 0 1-.69-.29.95.95 0 0 1-.28-.68ZM38 21.97a.95.95 0 0 1 .28-.68.97.97 0 0 1 .69-.3 1.02 1.02 0 0 1 .95.61c.05.12.08.25.08.39 0 .26-.11.52-.3.7-.2.2-.45.3-.72.3-.58 0-.99-.42-.98-1.02Z" fill="#AC787E"/></svg>