<!-- by TradingView --><svg width="56" height="56" xmlns="http://www.w3.org/2000/svg"><path fill="#102668" d="M0 0h56v56H0z"/><circle cx="28" cy="28" r="16" fill="#DBDD58"/><circle cx="29.815" cy="24.866" r="12.536" fill="#102668"/><path d="M37.732 26.81c-1.367 1.096-3.167 1.763-5.14 1.763-4.275 0-7.74-3.128-7.74-6.985 0-1.78.738-3.406 1.953-4.64-1.594 1.28-2.598 3.145-2.598 5.222 0 3.857 3.465 6.985 7.74 6.985 2.3 0 4.368-.907 5.785-2.346z" fill="#DBDD58"/><path d="M39.139 27.169a9.237 9.237 0 01-15.35-10.214 9.196 9.196 0 00-1.892 5.602 9.237 9.237 0 0017.242 4.612z" fill="#DBDD58"/><path d="M40.488 28.67a11.035 11.035 0 01-8.859 4.443c-6.104 0-10.77-4.277-10.77-10.38a11 11 0 011.533-5.62 11.003 11.003 0 00-2.193 6.609c0 6.104 4.667 10.381 10.77 10.381 4.052 0 7.595-2.18 9.519-5.433z" fill="#DBDD58"/><path d="M39.69 31.25a11.523 11.523 0 01-8.886 4.173c-6.377 0-11.546-5.17-11.546-11.547 0-3.574 1.623-6.768 4.173-8.886a11.7 11.7 0 00-5.163 9.711c0 6.468 5.244 11.711 11.712 11.711a11.7 11.7 0 009.71-5.163z" fill="#DBDD58"/></svg>