<!-- by TradingView --><svg xmlns="http://www.w3.org/2000/svg" width="56" height="56" viewBox="0 0 56 56"><path fill="#C51620" d="M0 0h56v56H0z"/><path d="M9 25.72V25h1v6H9v-5.28Zm12.36 4.49c.47-.54.7-1.27.7-2.2 0-.96-.21-1.7-.68-2.22A2.55 2.55 0 0 0 19.4 25c-.85 0-1.52.27-1.99.8-.47.51-.7 1.26-.7 2.21 0 .94.23 1.66.7 2.2.5.52 1.14.79 1.99.79.83 0 1.5-.25 1.96-.8Zm-.95-3.63c.23.35.36.83.36 1.43s-.13 1.06-.36 1.43c-.24.34-.58.52-1.01.52-.45 0-.8-.18-1.03-.52A2.54 2.54 0 0 1 18 28c0-.6.12-1.08.36-1.43.25-.35.6-.52 1.03-.52.43 0 .77.17 1 .52ZM26.18 25h1.37l-1.82 6h-1.6l-1.85-6h1.4l1.24 4.32L26.18 25ZM4.1 29.65v1.14c.54.13 1.08.2 1.62.21.65 0 1.15-.14 1.55-.4.49-.33.73-.82.73-1.43 0-.43-.14-.8-.38-1.06a4.6 4.6 0 0 0-1.27-.81c-.44-.22-.7-.35-.8-.43a.37.37 0 0 1-.18-.33c0-.36.28-.54.87-.54.42 0 .89.1 1.4.23v-1.02A6.82 6.82 0 0 0 6.1 25c-.62 0-1.13.15-1.5.46-.4.31-.6.74-.6 1.31 0 .45.14.82.4 1.1.2.22.66.49 1.34.8.38.17.63.3.71.4.09.1.14.21.14.35 0 .36-.31.54-.94.54-.45 0-.95-.1-1.55-.31ZM10.97 31v-6h1.83l2.04 4.03V25H16v6h-1.74l-2.19-4.07V31h-1.1Zm16.25 0h1.37l1.26-4.32L31.1 31h1.37l-1.82-6h-1.6l-1.83 6Zm10.23-1.24v-.01h.03-.03Zm-1.25.2c.23 0 .83-.07 1.25-.2v1.03c-.18.06-.36.1-.58.13-.25.06-.52.08-.81.08-.94 0-1.7-.27-2.24-.8a2.9 2.9 0 0 1-.8-2.17c0-.93.26-1.68.82-2.22a3 3 0 0 1 2.22-.81 4.16 4.16 0 0 1 1.07.15c.13.03.24.06.34.1v1.04c-.6-.21-1.1-.25-1.34-.25-.54 0-.97.18-1.3.54-.32.37-.48.85-.48 1.43s.16 1.06.5 1.4c.34.37.8.55 1.35.55Zm5.8-3.61V27h-1v4h-.85v-4H39v-.65h1.15v-.5l-.98.06v-.76l2.77-.15v.75l-.94.06v.54h1Zm-2.42 1.1H39v3.3h.58v-3.3Zm1.84 0H42v3.3h-.58v-3.3Zm3.91 1.04-.33.06V25h-.83v3.65l-2 .25v.9l2-.26V31H45v-1.55l.33-.06v-.9Zm-2.98-2.99 1.65.66v.75l-1.65-.66v-.75ZM44 27.5l-1.65-.64v.75l1.65.64v-.75Zm2-.36h6V28h-6v-.87Zm.45 3.87h.86l1.14-2.87h-.87L46.45 31Zm4.05 0-1.15-2.87h.88L51.4 31h-.89Zm-2.01-4-1.57-2H46l1.57 2h.92Zm2.33-2h.89l-1.56 2h-.89l-1.55-2h.9l1.1 1.42L50.8 25Z" fill="#fff"/></svg>