<!-- by TradingView --><svg width="56" height="56" viewBox="0 0 56 56" xmlns="http://www.w3.org/2000/svg"><path fill="#F0F3FA" d="M0 0h56v56H0z"/><path d="M17.41 16a16 16 0 1 1 20.01 24.92c.34-2.1.1-4.37-1.14-6.14-1.42-2.02-4.12-3.5-6.28-4.57v3.03c1.66.86 3.9 2.3 4.5 4.17.68 2.05.2 4.77-1.83 5.87A15.98 15.98 0 0 1 17.42 16Zm4.23 3.11a7.16 7.16 0 0 0-.87 8.13c1.14 2 3.25 3.16 5.23 4.18v-3.07c-.7-.42-1.44-.84-2.05-1.4-1.46-1.35-1.7-3.71-.8-5.43.55-1.14 1.7-1.8 2.85-2.21V16.8a7.94 7.94 0 0 0-4.36 2.31ZM30 16.95v2.56a8.04 8.04 0 0 1 3.7 2.83L35.8 21c-1.18-1.96-3.56-3.48-5.8-4.04Z" fill="#7FBC02"/></svg>