<!-- by TradingView --><svg width="56" height="56" viewBox="0 0 56 56" xmlns="http://www.w3.org/2000/svg"><path fill="#F0F3FA" d="M0 0h56v56H0z"/><path d="M20.92 13.25c-1.57 2.4-2.64 4.97-2.42 7.47.25 2.81 3.43 4.86 6.52 6.84C28.05 29.51 31 31.4 31 33.92c0 4.05-5.53 6.81-9.96 8.53A16.27 16.27 0 0 1 12 27.82c0-6.39 3.64-11.92 8.92-14.57Z" fill="#0070C0"/><path d="M31.64 12C27.92 13.5 24 15.84 24 18.69c0 2.35 2.69 4.05 5.62 5.9 3.4 2.15 7.11 4.5 7.38 8.31.29 4.1-3.73 8.27-7.5 11.1A16.15 16.15 0 0 0 44 27.82 16.2 16.2 0 0 0 31.64 12Z" fill="#00B050"/></svg>