<!-- by TradingView --><svg width="56" height="56" viewBox="0 0 56 56" xmlns="http://www.w3.org/2000/svg"><path fill="#F0F3FA" d="M0 0h56v56H0z"/><path d="m40 19-6 4.06L32 37l8-18Z" fill="#004687"/><path d="M42 23.06 48 19l-8 18 1.34-9.3-.15.39L35 30l6.55-3.74.46-3.2ZM21.07 23.19 22 19c-9.13 1.55-11.78 3.96-11.78 6.19 0 2.23 3.65 3.24 3.65 4.45 0 1.57-3.91 5.56-5.87 7.36a255.3 255.3 0 0 0 7.09-5.2c1.29-1.06 1.75-1.67 1.75-2.69 0-2.03-2.86-2.75-2.86-4.11 0-1.27 4.73-1.74 7.09-1.81ZM25.02 37 23 20.32l3.67 7.28L34 19l-8.98 18Z" fill="#004687"/></svg>