<!-- by TradingView --><svg xmlns="http://www.w3.org/2000/svg" width="56" height="56" viewBox="0 0 56 56"><path fill="#F0F3FA" d="M0 0h56v56H0z"/><path d="M14 23.61c.74-10.08 19.64-10.3 29-9.14-.34.65-1.35.86-1.82.88-16.99.89-19.23 5.27-19.44 7.62-.2 2.2.95 3.9 2.7 6.49 1.4 2.07 1.71 3.26 1.7 3.6-.16 2.8-3.98 3.66-5.05 3.9-.86.2-1.6-.42-1.85-.75C14.38 29.52 14 26.33 14 23.6z" fill="url(#a2hnimr3e)"/><path d="M42 30.86C41.15 40.16 23.85 42 13 42c-.14-1.04 1.33-1.4 1.83-1.43 15.35-2.86 18.8-7.13 19.02-9.48.17-1.88-1.15-3.03-3-5.62-1.48-2.07-1.98-3.03-1.91-4.07.17-2.8 4.08-3.2 5.23-3.35 2.1-.27 2.61.53 2.89.86C42.22 25.6 42 28.14 42 30.86z" fill="url(#b2hnimr3e)"/><defs><linearGradient id="a2hnimr3e" x1="28.5" y1="14" x2="28.5" y2="37" gradientUnits="userSpaceOnUse"><stop offset=".07" stop-color="#68C07E"/><stop offset=".42" stop-color="#64BF7F"/><stop offset=".91" stop-color="#02A1A8"/></linearGradient><linearGradient id="b2hnimr3e" x1="41.05" y1="33.52" x2="26.71" y2="22.09" gradientUnits="userSpaceOnUse"><stop offset=".14" stop-color="#0584B1"/><stop offset="1" stop-color="#47BB89"/></linearGradient></defs></svg>