<!-- by TradingView --><svg xmlns="http://www.w3.org/2000/svg" width="56" height="56" viewBox="0 0 56 56"><path fill="#005B8A" d="M0 0h56v56H0z"/><path d="M15.9 25.9c.22 1 .97 1.91 2.02 2.07v.05c-.97.37-1.82 1-2.1 2.05h-.05c-.36-.96-.9-1.63-1.9-1.97v-.06a2.93 2.93 0 0 0 2-2.15h.03zM39.57 25.9c-.22 1-.97 1.91-2.02 2.07v.05c.97.37 1.82 1 2.1 2.05h.05c.36-.96.9-1.63 1.9-1.97v-.06a2.93 2.93 0 0 1-2-2.15h-.03zM35.48 29.7c.22.19.43.42.63.7a6.86 6.86 0 0 1 1.29 4.58 7.28 7.28 0 0 1-4.6 6 11.11 11.11 0 0 1-10.6-1.04c-.77-.55-1.54-1.04-1.59-.64-.05.43-.29.61-.55.6-.8 0-1.06-.83-.87-1.49-.76-.36-1.15-1.9 0-2.36-.7-.9-.8-2.38.3-3.02.74-.44 1.68.25 1.74 1.17.04.5-.15 1.02-.47 1.5.15.87 1.62 2.38 2.31 2.88a8.1 8.1 0 0 0 4.97 1.68 8.1 8.1 0 0 0 6.05-2.46 3.84 3.84 0 0 0 .44-4.33l.95-3.78z" fill="#fff"/><path d="M27.42 26.7c.25.06.49.12.73.15h.06a6.11 6.11 0 0 0 3.16-.42c.46-.18.9-.39 1.32-.63l.24-.13a7.3 7.3 0 0 0 1.1 2.64l-.09.36-.9 3.55a3.37 3.37 0 0 0-.22-.08l-.17-.05a4.1 4.1 0 0 0-2.51.17l-.13.05c-.25.11-.5.25-.74.42a5.32 5.32 0 0 0-2.53-3.43l.68-2.6z" fill="#fff"/><path d="M26 30.93l1.6-6.15c.27.58.52 1.18.77 1.78.78.09 1.56 0 2.34-.23a120.4 120.4 0 0 0-2.14-5.48l-.5-1.23c-.12-.26-.2-.28-.27.02l-.26.92L25 29.58c.14.32.32.62.54.9.1.12.27.31.46.45zm.11-13.67a4.83 4.83 0 0 0-2.76 5.2 5.01 5.01 0 0 0 2.34 3.5l-.63 2.27c-.28-.2-.57-.41-.86-.66a6.62 6.62 0 0 1-2.28-6.54 1.04 1.04 0 0 0-1.25.34c-.62.85.03 1.9.24 2.74.52 1.3 1.16 2.59 2.09 3.75.04.05.2.23.28.29-.12.23-.18.34-.24.6-.2.76-.23 1.67-.14 2.54.1.87.28 1.74.66 2.37.11.19.24.19.3 0l.56-2.02c.31.42.68.8 1.1 1.13l-1.22 4.66c-.53.05-1.14.13-1.55.12-.2-1.82-.58-3.7-1.34-5.35a8.98 8.98 0 0 0-2.6-3.38c1.34-1.8.56-5.57-1.1-7.06-.37-.33-.66-.1-.65.35.03.7-.72 1.13-1.22.8-.9-.59-.98-2.11-.1-2.6.49-.26 1.2-.19 1.88.02.54-.75 1.61-.9 2.3-.08.53-.4 1.63-.24 2.12.3a6.66 6.66 0 0 1 3.92-4.4 4 4 0 0 0 .15 1.1z" fill="#fff"/><path d="M34.4 19.54c-.03-.18-.6-.07-.41.3.3.64.3 1.35 0 1.87-.18.33-.64.83-1.11.78-.56-.06-.82-.6-.5-1.06.3-.43.78-.38.78-.72 0-.92-.57-1.66-1.21-2.35a5.2 5.2 0 0 0-4.44-1.52 2.39 2.39 0 0 1-.14-1.07c.27-.04.53-.06.8-.06-.04-.3-.15-.59-.36-.75-.15-.12-.36-.04-.46.08-.4.47-.37 1.35-.12 1.98l.07.17h.01l.1.18c-.15.27-.33.53-.51.78-.22-.27-.37-.6-.47-.92l-.02-.05v-.04l-.02-.04-.02-.1c-.21-.9-.1-2.05.58-2.71.24-.25.55-.38.9-.36.37.02.67.28.87.63.23.4.34.8.36 1.21.67.1 1.32.3 1.99.59 1.07.47 2.06 1.13 3.14 1.57.2.08.46.04.63-.07.42-.27.05-.87.6-1.12.26-.12.82-.2 1.15.4.24.45-.11 1.07-.58 1.31-.28.14-.54.06-.9.22-.12.05-.22.3-.12.35l.25.14c.37-.13.8-.14 1.17-.07a.9.9 0 0 1 .77-.5c.45.02.85.43.9.71.66-.14 1.23-.07 1.61.3.94.88.89 2.83-.43 2.44-.47-.14-.6-.63-.66-1.1-.07-.48-.51-.42-.86-.19-.19.14-.37.34-.47.64l-4.1 16.2c-.42.02-1.2-.07-1.8-.1a29.63 29.63 0 0 0-.98-4.99c.7-.24 1.47-.29 2.16-.11.06.26.12.52.16.77.04.2.3.29.44-.11l3.03-11.94c.16-.67-.6-.44-.85-.36-.61.18-.86-.3-.83-.66 0-.08.02-.15.04-.22-.05-.09-.1-.2-.13-.33zM30.3 33.37a5.62 5.62 0 0 1-1.7 1.53c-.74.4-1.28.43-1.44-.08-.15-.5-.63-1.07-.84-.51a1.5 1.5 0 0 0 .3 1.52c-.47.83-.42 1.58.56 1.83-.39.64.03 1.28.64 1.56 1.22.56 2.12-.51.82-1.28-.4-.23.37-1.38.7-1.79l1.25-1.55a32.4 32.4 0 0 0-.29-1.23z" fill="#fff"/><path d="M23.37 27.22c.01.86.16 1.74.47 2.63a5.65 5.65 0 0 0 2.08 2.82c.69.48 1.48 1.07 1.7 1.9.45-.21.3-1.3.19-1.56.44-.25.85-.54.22-.98.1-.57-.04-1.43-.63-1.64-.14.4-.46.92-.92 1-.46.07-.91-.39-1.18-.72a4.98 4.98 0 0 1-1.02-2.63L24 27.8a7.36 7.36 0 0 1-.63-.6zM27.9 17.12c-.33.68-.82 1.3-1.27 1.9-1.05 1.4-2 2.95-2.61 4.6.16.37.37.71.63 1.03.52-1.82 1.5-3.71 2.57-5.04.18-.23.38-.45.58-.66.09-.1.14-.1.23 0 .5.54.98 1.12 1.44 1.74a13.83 13.83 0 0 1 2.39 5.2c.23-.12.46-.23.68-.36l.33-.18a11.84 11.84 0 0 0-1.26-3.1 15.33 15.33 0 0 0-2.52-3.27c-.3-.3-.48-.44-.74-.8.2-.34.38-.69.5-1.04a4.86 4.86 0 0 0-.95-.02z" fill="#fff"/><path fill-rule="evenodd" d="M28 12.5c8.59 0 15.5 6.91 15.5 15.5S36.59 43.5 28 43.5 12.5 36.59 12.5 28 19.41 12.5 28 12.5zm0-1.5a17 17 0 1 1 0 34 17 17 0 0 1 0-34z" fill="#fff"/></svg>