<!-- by TradingView --><svg width="56" height="56" viewBox="0 0 56 56" xmlns="http://www.w3.org/2000/svg"><path fill="#F0F3FA" d="M0 0h56v56H0z"/><path d="M12 27.84c0 .73.05 1.45.15 2.16H19l-2.23-4h-1.62A13 13 0 0 1 40 23h3.22c-2.06-6.38-8.1-11-15.23-11C19.16 12 12 19.09 12 27.84ZM44 28.16c0-.73-.05-1.45-.15-2.16h-4.62L37 30h3.55A12.64 12.64 0 0 1 28 40.72c-5.27 0-9.79-3.19-11.7-7.72h-3.53c2.06 6.38 8.1 11 15.23 11C36.84 44 44 36.91 44 28.16Z" fill="#114368"/><path d="M18.22 24.89A1.99 1.99 0 0 1 19.99 22h.46c.75 0 1.43.42 1.77 1.09l4.56 9.02A1.99 1.99 0 0 1 25.01 35h-.46c-.75 0-1.43-.42-1.77-1.09l-4.56-9.02Z" fill="#114368"/><path d="M24.22 24.89A1.99 1.99 0 0 1 25.99 22h.46c.75 0 1.43.42 1.77 1.09l4.56 9.02A1.99 1.99 0 0 1 31.01 35h-.46c-.75 0-1.43-.42-1.77-1.09l-4.56-9.02Z" fill="#B2C1E3"/><path d="M37.78 24.89A1.99 1.99 0 0 0 36.01 22h-.46c-.75 0-1.43.42-1.77 1.09l-4.56 9.02A1.99 1.99 0 0 0 30.99 35h.46c.75 0 1.43-.42 1.77-1.09l4.56-9.02Z" fill="#114368"/></svg>