<!-- by TradingView --><svg width="56" height="56" viewBox="0 0 56 56" xmlns="http://www.w3.org/2000/svg"><path fill="#FF002E" d="M0 0h56v56H0z"/><path d="M47.59 32c-.03 0-.05-.02-.07-.04a.1.1 0 0 1-.03-.07v-12.8a.09.09 0 0 0-.04-.08.08.08 0 0 0-.08 0s-.86.6-1.8 1.4c-.5.43-.99.89-1.45 1.37 0 0-.12.11-.12.2v9.7c0 1.07.27 1.9.8 2.47.53.56 1.58.85 2.72.85h1.37a.11.11 0 0 0 .08-.04.12.12 0 0 0 .03-.08V32.1a.12.12 0 0 0-.03-.08c-.03-.02-.06-.02-.1-.02H47.6Z" fill="#fff"/><path d="M42.96 22h-3.27c-.03 0-.06.03-.09.05a.16.16 0 0 0-.06.08 386 386 0 0 1-1.42 5.1l-1.1 4.35c-.35-1.45-.71-2.9-1.08-4.34-.5-1.7-1.03-3.41-1.55-5.12a.17.17 0 0 0-.05-.09.16.16 0 0 0-.1-.03c-.54 2.06-1.08 4.13-1.64 6.2l2.1 6.69c0 .03.03.06.05.08.03.02.06.03.1.03h4.1c.03 0 .07-.02.1-.04a.17.17 0 0 0 .05-.08c1.4-4.22 2.76-8.44 4.01-12.64.03-.1-.05-.24-.15-.24Z" fill="#FFDE14"/><path d="M34.24 22h-3.42a.16.16 0 0 0-.1.04.16.16 0 0 0-.06.09l-1.19 5.11-.74 3.41-.89-3.41-1.42-5.12a.16.16 0 0 0-.05-.09.16.16 0 0 0-.1-.03h-3.14a.17.17 0 0 0-.1.04.17.17 0 0 0-.06.09l-1.43 5.1-.87 3.41-.74-3.4c-.4-1.7-.78-3.4-1.15-5.1-.02-.07-.08-.14-.15-.14h-3.34c-.1 0-.18.14-.15.24 1.05 4.2 2.22 8.4 3.43 12.62 0 .04.03.07.05.09.03.02.07.05.1.05h3.54c.04 0 .07-.02.1-.04a.16.16 0 0 0 .05-.09l1.47-5.35.73-2.8.74 2.8 1.51 5.36.06.09c.03.02.06.03.1.03h3.61c.03 0 .07-.01.1-.03a.17.17 0 0 0 .05-.1l1.8-6.7.02.02L34.24 22Z" fill="#fff"/><path d="m34.7 23.18-1.8 6.04-.32-1.04L34.24 22c.04 0 .07.02.1.04l.05.09.32 1.05Z" fill="#FDBC2C"/><path d="M15 30.84c-.06-1.27-.54-2.67-3.59-3.64l-.48-.15c-1.09-.34-2.14-.62-2.16-1.26-.03-.59.64-.93 1.53-.96.77-.03 1.58.25 2.55.86a.2.2 0 0 0 .26-.05 7761.96 7761.96 0 0 1 1.51-2.15.2.2 0 0 0 0-.08.18.18 0 0 0-.08-.12A7.5 7.5 0 0 0 10.1 22c-2.96.1-5.06 1.64-4.95 4.03.07 1.65 1.45 2.75 3.72 3.5l.43.15c1.13.38 2.13.74 2.16 1.42.02.64-.53 1.03-1.54 1.06h-.13a5.4 5.4 0 0 1-3.07-1.1.2.2 0 0 0-.2.08l-1.48 2.18a.19.19 0 0 0 .04.26A8.5 8.5 0 0 0 9.9 35c3.23-.1 5.2-1.66 5.09-4.16Z" fill="#fff"/></svg>