<!-- by TradingView --><svg width="56" height="56" viewBox="0 0 56 56" xmlns="http://www.w3.org/2000/svg"><path fill="#F0F3FA" d="M0 0h56v56H0z"/><path d="M36.69 12.04a18 18 0 0 1 3.15.06c.36.05.74.24 1.08.4.07.02.07.1 0 .14-.57.26-1 .36-1.63.36h-3.24c-.05 0-.09-.04-.07-.08.1-.21.23-.5.38-.71.07-.1.19-.17.33-.17ZM42 23.95c0 .04-.05.06-.08.04-.44-.3-.7-.67-.8-1.08-.06-.24-.12-.7-.12-1.36v-5.98c0-1.07 0-1.57.1-2.49.03-.09.07-.1.13-.05l.15.16c.56.77.6 1.47.62 2.59v8.17Z" fill="#B42220"/><path fill-rule="evenodd" d="M15 30.8V15.2c0-1.26.84-2.18 2.09-2.2h18.43l.26-.88a.1.1 0 0 0-.09-.12h-.73a4419.61 4419.61 0 0 0-11.98.03.1.1 0 0 0-.03.06l-.09.58a.15.15 0 0 1-.14.13h-.66a.25.25 0 0 1-.24-.18l-.17-.47a.2.2 0 0 0-.2-.14h-2.21L17.92 12c-.43 0-.86.03-1.3.06l-.28.02c-2.37.68-2.35 3-2.34 5.06v23.52c.03 1.4.79 3.13 2.4 3.26.67.05 1.46.08 2.36.08 6.17-.01 12.61-.01 19.34 0 2.14 0 3.9-.85 3.9-3.3V25.5c0-.07-.06-.11-.13-.1-.75.12-.87.93-.87 1.6v9H15v-5.2Zm4.87 6.88c-.03.05-.06.05-.1 0a.57.57 0 0 1-.04-.05c-.05-.09-.11-.2-.25-.1l-.13.1c-.15.13-.3.25-.55.26-.04 0-.07 0-.1-.03a.13.13 0 0 1-.06-.07l-.09-.33c-.02-.08-.12-.11-.2-.07a.25.25 0 0 0-.1.08c-.4.57-.36 1.18.39 1.51a.2.2 0 0 0 .12.02c.11-.03.2-.16.26-.26l.06-.1a.3.3 0 0 1 .2-.1c.31-.03.53-.17.76-.32l.07-.05c.11-.08.24-.1.39-.09.03 0 .05.02.07.05l.1.18c.01.03.06.06.1.05h.05l.17-.12c.11-.09.22-.18.42-.13l.33.09h.1c.07-.03.09-.1.1-.15.03-.06.05-.12.12-.14.24-.07.34.06.45.2.08.11.17.23.35.24.03 0 .06-.01.08-.03a.09.09 0 0 0 .03-.06c.03-.4.03-.8 0-1.2 0-.03-.02-.05-.04-.05a.5.5 0 0 0-.2 0c-.04.01-.08.05-.08.08v.05c0 .09 0 .18-.12.2l-.14.04c-.2.05-.34.09-.52-.11-.1-.11-.34-.14-.4.02-.06.12-.12.25-.2.36-.05.08-.13.12-.24.1-.27-.01-.37-.12-.5-.27l-.07-.1a.19.19 0 0 0-.1-.05h-.12a.65.65 0 0 0-.37.35Zm-1.65 3.42c0-.01-.02-.02-.02 0-.38.6-.66.95-.87 1.06a.11.11 0 0 1-.07 0 .12.12 0 0 1-.06-.02c-.25-.23-.26-.5-.03-.8.36-.47.8-.89 1.29-1.25a.1.1 0 0 1 .1-.02c.02 0 .05.03.07.06.08.16.2.22.35.18.29-.08.76-.4.58-.8a.18.18 0 0 0-.09-.1.14.14 0 0 0-.12 0l-.08.05c-.16.1-.37.22-.48.03a.18.18 0 0 1 .02-.21c.22-.24.47-.32.75-.26.29.06.45.42.58.7l.01.04c.18.38.47.56.84.36.13-.07.18-.28.06-.4a5.18 5.18 0 0 1-.45-.5c-.1-.12-.07-.18.06-.18l1.17.02c.08 0 .13.05.14.15a.74.74 0 0 1-.2.6c-.03.03-.03.1 0 .12l.19.17c.06.05.04.17-.03.2-.12.06-.27.13-.28.32-.02.46-.02.9 0 1.34 0 .1-.03.16-.12.16l-.17.02c-.1 0-.15-.04-.15-.16l-.02-1.08c0-.08-.03-.12-.1-.12s-.15.03-.14.12v1c0 .15-.05.22-.17.23h-.1c-.1.01-.16-.05-.17-.17a6.82 6.82 0 0 1 0-.97c.02-.14-.02-.16-.1-.07l-.36.35a.3.3 0 0 0-.08.28l.09.47v.12a.23.23 0 0 1-.06.1c-.3.3-.88.75-1.3.76a.1.1 0 0 1-.08-.03c-.25-.23-.27-.53-.05-.89a22.92 22.92 0 0 1-.35-.99Zm3.92.78c.4.39 1.26-.28.64-.7a1.07 1.07 0 0 0-.57-.18.18.18 0 0 0-.11.03.15.15 0 0 0-.06.09c-.06.24-.09.58.1.76Zm4.34-5-.04.39c0 .05-.04.07-.09.07l-.49-.03c-.1 0-.14.06-.11.17a.14.14 0 0 0 .11.1l.35.07c.13.02.16.13.2.23v.03c.03.07 0 .1-.08.1l-.79.03c-.04 0-.07.02-.07.07l-.02 1.58c0 .04.01.06.04.08.22.13.46.23.72.3.06.02.08.1.03.14-.12.1-.24.21-.36.34-.22.23-.17.6-.12.88.01.03.03.06.06.08l.43.23c.08.04.07.16 0 .2-.21.09-.42.2-.6.34-.1.07-.1.1.02.11.22.02.44.02.67.01.04 0 .08.04.08.09v.42c0 .07.04.11.12.1h.4c.1 0 .16-.05.16-.16l.01-.5a.28.28 0 0 1 .17-.26l.6-.25c.11-.05.15-.17.12-.27a.16.16 0 0 0-.17-.13l-.72.04h-.02c-.07-.03 0-.12.04-.14l.11-.06c.2-.1.45-.22.48-.44a1.4 1.4 0 0 0-.03-.59.07.07 0 0 0-.07-.05l-.28-.05c-.05 0-.06-.02 0-.05a.31.31 0 0 1 .19-.03c.06.01.08 0 .08-.07v-.33c0-.06-.03-.09-.1-.08l-.31-.01c-.22-.04-.23-.1-.03-.2.14-.07.28-.16.42-.27.2-.16.16-.77.11-1.02a.14.14 0 0 0-.12-.12l-.28-.02c-.07-.01 0-.1.03-.12a6.55 6.55 0 0 0 .38-.21.1.1 0 0 0 .02-.05.4.4 0 0 0-.06-.27.07.07 0 0 0-.04-.03l-.47-.08c-.02 0-.03 0-.04-.02a.05.05 0 0 1 0-.03l-.02-.25c0-.06-.03-.09-.08-.09h-.45c-.06 0-.09.03-.1.09Zm-.17 1.51-.26.04a.12.12 0 0 0-.1.12v.1a.13.13 0 0 0 .1.12l.27.03a.12.12 0 0 0 .14-.14l-.02-.15a.13.13 0 0 0-.04-.09.12.12 0 0 0-.1-.03Zm.96 0h-.2a.15.15 0 0 0-.15.14v.17c0 .08.06.15.14.15h.2c.08 0 .14-.06.14-.14v-.16a.15.15 0 0 0-.13-.15Zm-1.2.55h.27c.06 0 .1.05.1.1v.27a.1.1 0 0 1-.1.1h-.27a.1.1 0 0 1-.1-.1v-.26c0-.06.04-.1.1-.1Zm.33.62h-.28a.1.1 0 0 0-.1.08v.08c0 .05.05.1.1.1h.28a.1.1 0 0 0 .1-.1v-.07a.1.1 0 0 0-.1-.1Zm.76.93h.26c.05 0 .1.04.1.1v.02a.1.1 0 0 1-.1.1l-.26.01a.1.1 0 0 1-.1-.1v-.02c0-.06.04-.1.1-.1Zm-.79.13-.22.01a.12.12 0 0 0-.11.13v.04c0 .07.06.12.12.11h.22c.07 0 .12-.07.12-.13v-.04a.12.12 0 0 0-.13-.12Zm-.23.49h.25c.06 0 .11.05.11.1v.04a.1.1 0 0 1-.1.1h-.26a.1.1 0 0 1-.1-.1v-.04c0-.06.04-.1.1-.1Zm2.23-.97c-.1.01-.18.1-.16.18.01.1.24.35.4.54.1.11.19.2.17.2-.2 0-.4-.01-.62-.05-.1-.01-.16.02-.17.11-.02.2.14.29.32.38.17.08.35.18.37.4l.03.6c.01.26.22.4.5.48.27.07.4-.02.41-.25v-1c0-.03.05-.06.09-.06.49.03 1.15-.06 1.27-.51.03-.15-.04-.22-.22-.21a7.95 7.95 0 0 0-1.09.07c-.1-.03-.15-.07-.16-.13-.02-.1.03-.14.14-.14.36 0 .63-.1.83-.26.12-.1.14-.2.04-.32-.16-.18-.54-.18-.77-.16l-1.38.13Zm7.9.89v.09c-.01.12.06.15.2.1.4-.14.97-.26 1.4-.11.08.02.12.1.1.16-.13.34-.86.43-1.24.46-.53.04-1.1.12-1.71.23-.2.04-.42.05-.65.03-.33-.02-.45-.16-.36-.4.18-.47.67-.44 1.17-.36.17.03.16-.12.16-.2v-.01c0-.09-.07-.13-.17-.14h-.1c-.21-.02-.52-.04-.47-.25a.2.2 0 0 1 .08-.12c.05-.04.1-.06.17-.06h.05c.18-.01.36-.02.48-.16l.02-.02c.1-.13.28-.34.51-.25.38.16.79.28 1.22.37.17.04.17.08.02.14l-.69.26c-.12.05-.19.13-.2.24Zm-1.05-2.93.03 1.13c0 .04-.06.18-.11.09a2.69 2.69 0 0 0-.54-.6c-.19-.17-.6-.29-.82-.09-.3.28-.05.65.16.94l.13.22c.05.07-.03.16-.14.15l-.7-.09c-.09 0-.19.05-.2.13-.14.49.06.83.6 1.01h.06c.07 0 .12-.05.12-.1-.05-.49.44-.76.9-.93.75-.27 1.51-.44 2.3-.48.71-.04 1.13.12.79.78-.03.04.02.1.08.09.4-.03 1.04-.22 1.09-.62.02-.2-.03-.5-.27-.6-.48-.2-1.16-.12-1.67-.03-.29.05-.31 0-.08-.15l.1-.06c.2-.1.47-.27.41-.45-.13-.46-.63-.34-1-.18a.1.1 0 0 1-.1 0 2.7 2.7 0 0 0-1-.26c-.08 0-.14.04-.14.1Z" fill="#B42220"/><path d="M26.17 32.98a1.2 1.2 0 0 0-.2-.7 1.3 1.3 0 0 1-.23-.88c.05-.09.15-.03.2.03a.1.1 0 0 1 .01.06c.02.28.09.48.2.6.24.25.38.55.41.89.01.09-.07.24-.16.23-.15 0-.22-.08-.23-.23ZM37.58 32.98c.02.02 0 .06-.03.06a.29.29 0 0 1-.21-.05l-.65-.48c-.06-.04-.08-.1-.06-.17l.01-.02a.17.17 0 0 1 .11-.04l.12.03c.26.19.5.4.7.67ZM35.2 34.76c-.26-.73-.49-1.48-.76-2.2-.06-.15 0-.22.16-.2l.1.01c.18.01.3.1.35.28.2.7.34 1.43.39 2.18 0 .1-.03.12-.11.07a.27.27 0 0 1-.13-.14ZM38.73 34.65h-.02l-.35-.66c-.04-.07-.26-.49-.13-.55l.02-.01c.03-.02.1.01.16.1.07.07.15.19.22.31l.35.66v.03l-.25.12ZM36.94 34.91c-.05-.15-.06-.27-.2-.37a.06.06 0 0 1 0-.1c.13-.08.28-.13.44-.16.03 0 .05 0 .06.02.15.14.3.36.25.57a.1.1 0 0 1-.05.06.55.55 0 0 1-.43.05.1.1 0 0 1-.07-.07Z" fill="#B42220"/><path fill-rule="evenodd" d="M32.7 33.1c-.02-.13-.04-.13-.09 0-.16.48-.08.84.25 1.1a.1.1 0 0 1 .04.09.65.65 0 0 1-.15.31c-.19.23-.58.12-.68.13-.57.05-1.11.06-1.64.04a.07.07 0 0 1-.06-.08c.04-.39.3-.6.56-.83l.02-.02.1-.08a.13.13 0 0 0 0-.2c-.2-.13-.42-.08-.63-.03-.05.01-.1-.04-.08-.08l.13-.34c.1-.25.22-.5.26-.77.07-.4.1-.82.07-1.26 0-.1-.02-.2-.06-.29-.16-.46-.64-.2-.64.18 0 .84 0 1.64-.03 2.4a.6.6 0 0 1-.13.35c-.25.3-.51.61-.8.92-.05.05-.49.23-.43.05v-.01c.16-.28.34-.58.54-.88.28-.44.28-1.01-.31-1.17-.06-.02-.1-.05-.1-.1-.03-.2.4-.14.47-.15a.15.15 0 0 0 .13-.1c.12-.35.2-.7.26-1.04.01-.1-.03-.14-.13-.1l-.37.14h-.03c-.07-.01 0-.1.02-.13l1.01-1.1c.08-.08.06-.11-.05-.1-.52.1-1.05.2-1.57.33-.12.04-.23.01-.3-.11-.08-.2-.14-.39-.16-.57-.02-.25.96-.04 1.07-.03l.12-.02c.04-.02.05-.08.02-.1-.36-.28-.97-.63-1.42-.43-.44.2-.6.73-.4 1.16l.3.58c.02.04-.02.08-.06.08l-.46-.13c-.09-.03-.13-.1-.13-.18-.01-.38-.02-.75-.01-1.1 0-.28-.04-.53-.17-.78-.3-.54-.7-1.04-1.22-1.48a.07.07 0 0 0-.1.03 8.65 8.65 0 0 0 0 3.53c0 .1-.04.14-.13.14h-.39c-.09 0-.13-.04-.12-.13.05-.35.04-.68 0-1a7.3 7.3 0 0 1-.04-1.7.06.06 0 0 0-.09-.05 1.6 1.6 0 0 0-.71.85c-.1.23-.08.47.03.7.24.46.45.94.47 1.47l.05 1.91c.02.62.15 1.2.4 1.76.02.06 0 .1-.07.1h-.25c-.08 0-.12-.04-.13-.11a22.09 22.09 0 0 1-.22-3.23 2.43 2.43 0 0 0-.54-1.74c-.1-.1-.13-.09-.12.05 0 .12.05.25.1.37l.07.25c.12.59.22 1.15.24 1.78.03.9.04 1.72.04 2.46 0 .1-.05.15-.15.15l-1.3.01c-.03 0-.05-.02-.05-.05-.12-.76-.22-1.5-.3-2.23-.03-.27 0-.57.08-.9.09-.38-.03-.72-.28-1.02-.29-.37-.27-.94-.24-1.4v-.04c-.04-.1-.2-.03-.26 0l-2.02.85c-.3.13-.58.29-.85.47-.54.38-1.08.75-1.65 1.06-.08.04-.13.05-.17.03-.08-.04-.08-.1-.01-.15.43-.36.78-.74 1.05-1.13.37-.55.92-.86 1.64-.92a5.47 5.47 0 0 0 2-.57c.31-.15.62-.24.93-.27.07 0 .17-.07.2-.13.33-.52.75-.96 1.25-1.3a.2.2 0 0 0 .09-.21.88.88 0 0 0-.2-.37c-.33-.39-.62-.85-.65-1.37v-.36c0-.36 0-.75-.16-1.07-.08-.17.12-.64.13-.84A4.7 4.7 0 0 0 23 20.8c-.24-.6-.67-.94-1.28-1.04a.12.12 0 0 1-.09-.16c.37-.79.66-1.47.86-2.04.17-.5.36-1.02.56-1.55.12-.3.54-.25.78-.33a7.3 7.3 0 0 1 1.23-.26c.25-.05.47-.17.68-.31.44-.3.88-.6 1.31-.93a.83.83 0 0 1 .48-.17h1.27c.57 0 1.07.25 1.38.72.18.28.37.56.61.78.16.14.34.24.53.34l.21.12c.6.34.86.84 1.06 1.46.1.32.27.56.5.78.2.18.22.58.24.84v.02c.01.22.1.43.25.6.27.32.5.78.54 1.2.03.33.08.64.17.95.12.37.1.73-.08 1.1-.19.4-.19-.02-.23-.22a.33.33 0 0 0-.11-.19c-.07-.06-.14.04-.14.11.05.36 0 .66-.11.92-.1.22-.33.26-.55.26-.09 0-.13.04-.13.13l.02.35c0 .07.04.1.1.08l.46-.06c.1-.02.06.14-.01.16a1.3 1.3 0 0 1-.45.1c-.06 0-.1.03-.11.1-.07.25 0 .36.1.48.27.37.1.39-.22.53-.37.16.23.77.69.25.48-.53.65-1.14.52-1.84-.02-.1-.06-.2-.11-.3-.1-.19-.08-.81.1-.36.3.7.33 1.5-.02 2.18l-.1.2c-.14.3-.3 1.63-.56 1.88a.1.1 0 0 1-.12 0l-.2-.15a.13.13 0 0 0-.19.05c-.3.61-.59 1.2-.84 1.79-.03.07-.39.82-.1.81l.56-.02c.23-.01.34.16.44.33l.12.18c.05.06.14.05.18-.02a.28.28 0 0 0 .04-.17c-.05-.52-.3-.88-.74-1.1-.14-.08.37-.43.55-.24.16.16.3.35.52.41l.17.04c.77.18.89.72 1.35 1.3.16.18.28.4.37.66.03.1.01.1-.05.03a6.34 6.34 0 0 0-.77-.72 1.37 1.37 0 0 1-.48-.72.18.18 0 0 0-.07-.1.18.18 0 0 0-.11-.03c-.2.01-.33.12-.4.33-.07.24-.13.49-.17.73-.02.1-.14.13-.2.06l-.14-.16a.09.09 0 0 0-.13 0 .09.09 0 0 0-.02.05l-.19 1.13c0 .07.02.11.1.13l.24.05c.1.02.15.08.13.19l-.2 1.12c-.01.08-.12.08-.15.02a1.46 1.46 0 0 1-.16-.55Zm-4.1-17.67c.47.13.94.37 1.39.6l.22.12c.14.07.29.1.45.07.03 0 .05-.02.06-.05l.1-.2a.05.05 0 0 1 .07-.01c.52.42.9.96 1.12 1.61.05.16.01.18-.1.07-.32-.27-.61-.54-.88-.8-.1-.1-.21-.1-.33 0-.22.17-.49.27-.8.29-.07 0-.12-.03-.15-.1-.06-.14-.04-.27.05-.38a.07.07 0 0 0 0-.08.47.47 0 0 0-.2-.23c-.63-.34-1.1-.62-1.45-.84-.1-.06-.2-.15-.3-.26-.22-.23-.57-.01-.47-.52.02-.12.2-.14.3-.13.05 0 .07.03.07.07v.44c-.01.19.7.3.84.33Zm-1.97 2.43c.01.16 0 .3-.05.42-.03.1-.07.1-.11 0-.16-.4-.03-.5-.51-.48-.08 0-.12.04-.13.12-.03.3-.1.54-.24.74-.23.34-.42.67-.39 1.1.01.14.06.15.15.07 3.17-2.26 1.26-2.29 1.28-1.97Zm5.29.83a.18.18 0 0 0-.18-.15c-.56-.02-1.13 0-1.71.04-.04 0-.07-.04-.05-.07.18-.3.97-.5 1.3-.54.36-.05.65.08.87.36.16.2.3.2.48.2h.2c.06.01.1.05.12.12l.03.17c.01.05-.02.08-.08.08a6.38 6.38 0 0 0-.7-.03c-.13 0-.26-.04-.28-.18Zm-7.46 4.12c.14-.05.28-.12.43-.22.21-.13.35 0 .49.12l.1.1c.06.04.08.03.07-.05-.04-.2-.21-.65-.48-.63l-.58.05c-.15 0-.22.08-.23.22l-.01.25c-.01.15.06.2.2.16Zm-.56 1.11h-.01c-.08 0-.14-.05-.2-.15-.1-.23-.09-.6.04-.83a.36.36 0 0 1 .09-.11.17.17 0 0 1 .1-.04h.01l-.03 1.13Zm1.36-.28.03.42c.01.07-.06.13-.13.11-.2-.05-.28-.23-.36-.4-.02-.05-.05-.11-.12-.09a.73.73 0 0 0-.43.43c-.04.1.4.07.41.27 0 .03-.02.06-.04.07-.13.06-.18.16-.16.3 0 .05.02.08.06.1.03.03.07.04.1.04.26-.03.5-.12.71-.29.2-.14.19-.55.19-.83v-.17c0-.19-.28-.16-.26.04Zm.66-.06.26.67v.06l-.27.67a.08.08 0 0 1-.15.02.08.08 0 0 1-.01-.05V23.6c.01-.1.14-.11.17-.03Zm2.01 3.15a3.48 3.48 0 0 1-.2-.52c-.02-.06 0-.08.06-.08.29.02.16-.1.04-.32-.17-.3-.32-.57-.33-.93a.16.16 0 0 0-.16-.15c-.32-.02-.84-.87-.85-.57v.19c-.01.5-.17.85-.36 1.3-.29.64-.14 1.16.44 1.55.08.05.4.24.47.08a.1.1 0 0 0 .01-.04l.02-.95c0-.1.04-.15.13-.18h.04c.06 0 .1.04.1.1.07.44.15.86.27 1.23.05.18.17.36.34.45.1.05.22 0 .25-.1.09-.28-.1-.7-.27-1.06Zm3.3 4.11a.28.28 0 0 1-.1-.2c-.02-.28.13-.37.4-.38.07 0 .13.05.13.12.02.23 0 .84-.44.46Zm.06.75-.03.53.01.07c.1.2.43.88.52-.61.02-.21-.27-.13-.38-.12a.14.14 0 0 0-.12.13Zm.5-5.75v.02a.16.16 0 0 1-.12.06c-.25.02-.48.11-.7.28-.17.12-.15.18.06.15.42-.05.78.01 1.1.2.18.1.31.14.5.08a.08.08 0 0 0 .06-.1c-.14-.38-.36-.6-.67-.7-.11-.04-.17-.1-.23-.18-.07-.08-.14-.16-.3-.17a19.76 19.76 0 0 0-1.4-.02.08.08 0 0 1-.04-.09c.1-.39.33-.45.68-.53.33-.07.14.45.33.43.24-.01 1.4.38 1.45.3.18-.32-.01-1.26-.01-1.63 0-.58.33-.8.79-1.04.14-.08.13-.12-.03-.13-.35-.02-.6.12-.76.4-.05.09-.1.09-.14.01a.14.14 0 0 1-.02-.05.44.44 0 0 1 .02-.27c.14-.38.4-.64.76-.8.16-.06.35-.07.53-.08h.1c.1-.01.2-.08.18-.2l-.11-.95c-.16-1.05-1.02-1.63-2-1.89-.15-.04-.3-.05-.47-.03-.54.07-1.1.18-1.71.32-.94.23-1.7.63-2.38 1.31-.1.11-.08.18.06.2l.27.05c.43.08.57-.5.93-.62a.6.6 0 0 1 .26-.04l.1.01c.2.02.23.1.11.25-.26.32-.52.65-.77.99-.09.12-.16.25-.22.4-.05.11-.17.21-.3.17a.17.17 0 0 1-.08-.05.71.71 0 0 0-.17-.17.2.2 0 0 0-.26.04c-.18.24-1 1.6-.64 1.85a.1.1 0 0 0 .07.02c.22-.03.44-.03.66-.02.11 0 .15.06.12.16a.11.11 0 0 1-.06.08l-.26.12a.11.11 0 0 0-.04.18c.08.1.31.1.48.11l.1.01c.13.01.2.12.28.22l.13.1.23.06c.3.08.6.16.64.52.03.22-.43.16-.42.44.02.35.11.63.28.85.32.42.4.89.36 1.44-.03.4.19.53.45.7l.09.05.75.47c.15.1.15-.34.16-.38 0-.1.06-.14.15-.13.08 0 .1.09.13.14.08.15.16.31.38.24.1-.04.16-.12.22-.2.16-.23.36.35.49.07l.78-1.72a.16.16 0 0 0 .02-.07.16.16 0 0 0-.12-.15 13.1 13.1 0 0 1-.36-.1c-.37-.1-.74-.2-1.14-.2-.08 0-.09.03-.03.08s.13.09.2.1l.65.19c.09.02.12.14.06.22-.14.15-.4.37-.61.2a1.9 1.9 0 0 1-.43-.47c-.35-.52-.67-.13-.92.17l-.08.1c-.11.13-.26.08-.34-.05-.13-.2-.38-.86-.14-1.06.08-.06.17-.1.27-.1.51-.02.99-.09 1.44-.2a1.5 1.5 0 0 1 .6-.01v.04Z" fill="#B42220"/><path d="M31.87 24.93c-.34 0-.6-.18-.93-.24a.06.06 0 0 1-.05-.04c-.04-.13.02-.27.1-.37a.9.9 0 0 0 .26-.54c.02-.2.41-.3.57-.34.15-.04.26.02.32.17v.02c.06.14.02.23-.13.27-.24.07-.65.3-.57.58.06.22.4.16.5.37.03.05-.01.12-.07.12ZM30.21 23.89c-.42.22-.78.17-1.06-.14-.03-.03 0-.08.03-.08.26-.02.5.03.77-.01l.64-.1c.05-.01.06 0 .02.04-.1.1-.24.2-.4.29ZM30.2 24.72c.12-.1.2-.23.16-.27-.04-.04-.17.02-.3.13-.12.1-.2.23-.16.27.04.04.17-.02.3-.13ZM29.91 21.35l.08.42-.01.04c-.04.05-.17.03-.27.01h-.07c-.08 0-.13.03-.15.1v.03c-.02.07 0 .12.08.13.14.02.3.03.46.02.06 0 .1.06.1.11 0 .08-.05.12-.12.13-.28.02-.53.02-.77-.03-.12-.03-.2-.1-.23-.24a.08.08 0 0 0-.1-.06c-.31.1-.54.29-.7.56-.03.07.03.15.1.14.3-.05.68-.06.9.16.33.33.78.46 1.23.38.5-.1.45-.54.38-.9-.01-.07.06-.12.11-.09s.1.07.14.12c.13.12.27.26.41.12.15-.15.27-.3.38-.44.07-.1 0-.23-.13-.23a.68.68 0 0 1-.4-.12c-.37-.24-.82-.39-1.35-.43a.06.06 0 0 0-.07.07Zm.82 1.39c0 .09-.07.16-.17.16a.17.17 0 0 1-.17-.16c0-.1.08-.17.17-.17.1 0 .17.07.17.17Z" fill="#B42220"/></svg>