<!-- by TradingView --><svg width="56" height="56" viewBox="0 0 56 56" xmlns="http://www.w3.org/2000/svg"><path fill="#F0F3FA" d="M0 0h56v56H0z"/><path d="M10 37.65V39h17v-2H12.35l8.54-12.86-1.37-.85L10 37.65Z" fill="#0056B8"/><path d="M46 37.65V39H29v-2h14.4L38 28.56l1.38-.85L46 37.65Z" fill="#092C74"/><path d="m21.62 23.01-1.34-.77L27.68 11h.64l7.83 11.24-1.24 1.03-6.93-9.8-6.36 9.54ZM20.52 29.03l-.05.07h.01A4 4 0 1 0 24 27h-.02l1.98-3h-2.1l-3.03 4.56a4 4 0 0 0-.31.47ZM26 31a2 2 0 1 1-4 0 2 2 0 0 1 4 0Z" fill="#166936"/><path fill-rule="evenodd" d="M32 35c2.2 0 4-2.46 4-5.5S34.2 24 32 24s-4 2.46-4 5.5 1.8 5.5 4 5.5Zm.07-2c1.1 0 2-1.57 2-3.5s-.9-3.5-2-3.5-2 1.57-2 3.5.9 3.5 2 3.5Z" fill="#166936"/><path fill-rule="evenodd" d="M37.1 27.46c1 0 1.81-.8 1.81-1.78a1.8 1.8 0 0 0-1.8-1.77c-1 0-1.82.8-1.82 1.77 0 .99.81 1.78 1.81 1.78Zm0-1.08a.7.7 0 0 0 .71-.7.7.7 0 0 0-.7-.7.7.7 0 0 0-.72.7c0 .39.32.7.71.7Z" fill="#166936"/></svg>