<!-- by TradingView --><svg width="56" height="56" viewBox="0 0 56 56" xmlns="http://www.w3.org/2000/svg"><path fill="#F0F3FA" d="M0 0h56v56H0z"/><path d="M6.63 32C5.25 32 4.1 31.26 4 29.56l.3-.03c.13 1.54 1.17 2.16 2.32 2.16 1.28 0 2.06-.73 2.06-1.73 0-2.53-4.68-1.3-4.68-4.07C4 24.66 5.07 24 6.41 24c1.33 0 2.2.7 2.38 2.08l-.28.05c-.13-1.18-.9-1.82-2.1-1.82-1.17 0-2.09.58-2.09 1.54C4.32 28.3 9 27.13 9 29.98 9 31.23 8.06 32 6.63 32Zm8.95-8H16l-4.41 11h-.43l1.2-3h-.18L9 24h.44l3.06 7.73L15.58 24Zm4.55 0c1.8 0 2.87 1.1 2.87 2.88V32h-.37v-5.2c0-1.54-.97-2.49-2.57-2.49-1.65 0-2.7 1.06-2.7 2.77V32H17v-7.78h.36l-.02 1.48c.4-1.06 1.43-1.7 2.79-1.7ZM25 32V20h.3v12H25Zm5.5 0c-2.16 0-3.5-1.55-3.5-4s1.34-4 3.5-4 3.5 1.55 3.5 4-1.34 4-3.5 4Zm0-.3c1.94 0 3.14-1.43 3.14-3.7 0-2.27-1.2-3.7-3.14-3.7-1.92 0-3.14 1.43-3.14 3.7 0 2.27 1.22 3.7 3.14 3.7Zm11.17-7.48H42v7.72c0 1.89-1.14 3.06-2.92 3.06-1.52 0-2.52-.88-2.76-2.27l.3-.04c.3 1.3 1.17 2 2.46 2 1.6 0 2.59-1.08 2.59-2.81v-1.91c-.44 1.37-1.4 2.03-2.7 2.03-1.83 0-2.97-1.44-2.97-3.94S37.14 24 38.96 24c1.3 0 2.28.81 2.72 2.2l-.01-1.98Zm-2.68 7.47c1.64 0 2.68-1.32 2.68-3.63 0-2.31-1.04-3.75-2.68-3.75-1.64 0-2.66 1.44-2.66 3.75 0 2.32 1.02 3.63 2.66 3.63Zm5.37.31H44v-8h.36v8Zm4.76-8a2.76 2.76 0 0 1 2.86 2.58l-.3.05a2.45 2.45 0 0 0-2.53-2.32c-1.7 0-2.8 1.43-2.8 3.72 0 2.26 1.08 3.66 2.81 3.66a2.4 2.4 0 0 0 2.53-2.37l.31.05c-.1 1.61-1.24 2.63-2.84 2.63-1.94 0-3.16-1.52-3.16-3.97 0-2.48 1.24-4.03 3.12-4.03Z" fill="#375274"/></svg>