<!-- by TradingView --><svg width="56" height="56" viewBox="0 0 56 56" xmlns="http://www.w3.org/2000/svg"><path fill="#F0F3FA" d="M0 0h56v56H0z"/><path d="M21.06 41.78a13.47 13.47 0 0 0 15.4-.4l6.75-4.99a4.4 4.4 0 0 0-.13-7.16L28.16 19l-5.78 3.8L37 32.75 28 39 13.5 29l-.35.23A4.52 4.52 0 0 0 11 33a4.28 4.28 0 0 0 2.04 3.5l8.02 5.28Z" fill="#76BD43"/><path d="M34.94 14.22a13.47 13.47 0 0 0-15.4.4l-6.75 4.99a4.4 4.4 0 0 0 .13 7.16L27.84 37l5.78-3.8L19 23.25 28 17l14.5 10 .35-.23A4.52 4.52 0 0 0 45 23a4.28 4.28 0 0 0-2.04-3.5l-8.02-5.28Z" fill="#4F5354"/></svg>