<!-- by TradingView --><svg width="56" height="56" xmlns="http://www.w3.org/2000/svg"><path fill="#B5121B" d="M0 0h56v56H0z"/><path d="M19.39 36.489c-.052-3.548 2.435-6.902 5.959-6.894.933-.008 1.639.139 1.884.437.042.059.076.18-.317.22-.735-.006-1.977.414-3.03 1.423a5.949 5.949 0 00-1.779 4.05c.052 4.188 3.84 5.725 6.481 5.692 5.397.033 9.357-6.494 9.412-15.106-.022-5.534-2.03-10.975-3.006-13.311h-.045c-.742.394-1.75.93-2.565 1.445-2.916 1.843-6.48 3.407-10.382 8.145-2.327 2.828-5.454 7.273-5.434 13.134a8.647 8.647 0 00.21 2.078c.096.133-.03.176-.106.113-.332-.294-1.514-3.065-1.46-5.804-.04-9.713 10.54-16.237 16.44-19.111H15.344C13.504 13 12 14.576 12 16.502v22.995c0 1.924 1.505 3.5 3.344 3.5h7.726c-2.26-1.531-3.71-3.934-3.68-6.508z" fill="#fff"/><path d="M40.745 13h-3.763c1.453 3.157 3.994 9.96 4.018 16.372-.024 5.877-2.4 11.153-6 13.625h5.745c1.79 0 3.255-1.576 3.255-3.5V16.502C44 14.576 42.535 13 40.745 13z" fill="#fff"/></svg>