<!-- by TradingView --><svg width="56" height="56" viewBox="0 0 56 56" xmlns="http://www.w3.org/2000/svg"><path fill="#F0F3FA" d="M0 0h56v56H0z"/><path fill-rule="evenodd" d="m41 28 2.7-.78a.5.5 0 0 0 .06-.03.34.34 0 0 0 .24-.28v-.07c-.3-4-2.05-7.59-4.7-10.25A15.6 15.6 0 0 0 29.06 12c-.14.02-.26.12-.28.26L28 15l-.76-2.65v-.01a.38.38 0 0 0-.05-.16.32.32 0 0 0-.12-.12.38.38 0 0 0-.2-.06 15.75 15.75 0 0 0-10.17 4.6A16.15 16.15 0 0 0 12 26.83c0 .12.17.36.3.38L15 28l-2.7.77c-.18.07-.3.19-.3.39.3 4 2.05 7.58 4.7 10.24A15.73 15.73 0 0 0 26.94 44c.14-.03.26-.13.28-.27L28 41l.76 2.64c0 .05.01.1.03.14.03.08.1.15.17.17.06.03.11.04.17.04A15.63 15.63 0 0 0 39.3 39.4 16.15 16.15 0 0 0 44 29.16c0-.15-.14-.34-.28-.36L41 28ZM28.35 16.5l.65-2.47.26 1.42 1.44 9.32L28.35 27V16.5ZM29 28.42l2.27 2.36L42 29l-2.24-.62c-3.26 0-7.59.04-10.76.04Zm10.73-.8 2.26-.66-10.74-1.75L29 27.63h10.73ZM28.38 29l-.03 10.5L29 42l1.66-10.82L28.38 29Zm3.04 2.5-1.88 11.73a14.86 14.86 0 0 0 9.27-4.36 15.47 15.47 0 0 0 4.43-9.3l-11.82 1.92Zm-6.68-6.26L27 27.58c-3.2 0-7.5.05-10.8.05L14 27l10.74-1.76Zm1.72 18.01L24.58 31.5l-11.82-1.93c.37 3.64 2 6.9 4.43 9.34a14.86 14.86 0 0 0 9.27 4.35Zm-1.71-12.47L27 28.4l-10.76-.01-2.23.62 10.74 1.78ZM27 42l-.27-1.44-1.43-9.31L27.65 29v10.52L27 42Zm4.43-17.47-1.89-11.76c3.6.3 6.84 1.91 9.27 4.35a15.47 15.47 0 0 1 4.43 9.33l-11.81-1.92ZM27.63 27c.02-.33.02-10.5.02-10.5L27 14.03l-1.66 10.78L27.62 27Zm-1.17-14.23-1.88 11.76-11.82 1.92c.37-3.63 2-6.89 4.43-9.33a14.86 14.86 0 0 1 9.27-4.35Z" fill="#CE1141"/></svg>