<!-- by TradingView --><svg width="56" height="56" viewBox="0 0 56 56" xmlns="http://www.w3.org/2000/svg"><path fill="#F0F3FA" d="M0 0h56v56H0z"/><path d="M44.38 27.05c.95-1.09.79-2.7-.36-3.6L33.54 15.2a10.46 10.46 0 0 0-14.22 1.28A9.28 9.28 0 0 0 20.66 30L25 33.41c1.14.9 2.84.75 3.79-.34.94-1.09.78-2.7-.36-3.6l-4.26-3.35a4.34 4.34 0 0 1-.63-6.32 4.78 4.78 0 0 1 3.7-1.59 4.8 4.8 0 0 1 2.94 1l10.41 8.18c1.15.9 2.84.75 3.8-.34Z" fill="#374A5E"/><path d="M31.2 34.73a3.5 3.5 0 1 1-5.4-4.46 3.5 3.5 0 0 1 5.4 4.46Z" fill="#F58555"/><path d="M11.62 28.95a2.47 2.47 0 0 0 .36 3.6l10.48 8.25a10.46 10.46 0 0 0 14.22-1.28A9.28 9.28 0 0 0 35.34 26L31 22.59a2.79 2.79 0 0 0-3.79.34 2.47 2.47 0 0 0 .36 3.6l4.26 3.35c2 1.58 2.29 4.4.63 6.32a4.78 4.78 0 0 1-3.7 1.6 4.81 4.81 0 0 1-2.94-1L15.4 28.6a2.79 2.79 0 0 0-3.8.35Z" fill="#374A5E"/><path d="M24.8 21.27a3.5 3.5 0 1 1 5.4 4.46 3.5 3.5 0 0 1-5.4-4.46Z" fill="#69C6B3"/></svg>