<!-- by TradingView --><svg width="56" height="56" viewBox="0 0 56 56" xmlns="http://www.w3.org/2000/svg"><path fill="#F0F3FA" d="M0 0h56v56H0z"/><path d="m45.22 33.13 1.78 3.1a19.4 19.4 0 0 1-8.41 1.76 9.32 9.32 0 0 1-9.46-8.12c-1.27-.08-2.7-.18-4.62-.34-1.14-.1-2.3-.23-3.43-.37-5.4-.64-10.31-1.22-10.31 3.46C9.84 32.28 8 31.08 8 29c0-2.61 4.35-3.32 7.6-3.32 1.46 0 4.65.32 8.16.67l5.3.52c.58-5.36 4.81-8.83 10.28-8.83 5.88 0 6.98 3.2 6.98 4.48 0 1.02-2.09 2.37-3.13 2.91.08-.12.26-.62.26-1.64 0-1.27-.98-2.48-3.92-2.48-2.65 0-5.71 1.39-6.27 5.89.9.05 1.7.08 2.37.08 4.93 0 10.18-.41 12.28-3.4.43 2.05-.44 6.14-7.43 6.14A4736.47 4736.47 0 0 0 33.3 30c.96 4.64 7.22 5.66 11.92 3.13Z" fill="#9CCB3D"/><path d="M10.9 22.72c-.35-.2-1.03-.9-1.03-2.12 0-1.53 1.89-2.6 6.51-2.6 4.63 0 9.4 1.76 9.62 7.52l-4-.44c-.1-1.24-1.45-3.74-5.43-3.74-3.98 0-5.45.92-5.68 1.38ZM8 32c.96 1.42 5.16 3.9 14 2.47v-4.08l4 .47v6.36c-1 .27-4.03.79-8.7.79-5.85 0-8.87-1.43-9.3-6Z" fill="#707E7F"/></svg>