<!-- by TradingView --><svg xmlns="http://www.w3.org/2000/svg" width="56" height="56"><path fill="#F0F3FA" d="M0 0h56v56H0z"/><path d="M24.34 21.8a.7.7 0 00-.59-.8.72.72 0 00-.8.52.7.7 0 00.51.86h.07a.7.7 0 00.81-.57zm-3.58-.27c.34-.03.64.21.67.55a.6.6 0 01-.55.65h-.03a.6.6 0 01-.64-.57.6.6 0 01.55-.63zm-1.79 1.32a.49.49 0 00-.61-.33.5.5 0 00-.34.61c.07.27.34.42.6.35h.03a.5.5 0 00.32-.63zm-2.7.95a.5.5 0 11.47.88l-.03.01a.5.5 0 01-.45-.9zm-3.2 2.78a.24.24 0 01.35-.01c.1.08.1.23.03.33l-.01.01-.02.02c-.09.09-.24.1-.33 0h-.01a.24.24 0 01-.02-.34h.01zm16.74-4.37c.39.2.53.67.33 1.05l-.01.02a.82.82 0 01-1.1.33l-.07-.04a.78.78 0 01-.22-1.1h.01a.83.83 0 011.06-.26zm2.97 2.72a.85.85 0 00-.26-.67.9.9 0 00-1.22-.04v.01a.85.85 0 00-.07 1.21l.04.04a.9.9 0 001.25 0h.01a.85.85 0 00.25-.55zm1.92 1.93a1 1 0 01-.13 1.4v.01l-.02.01a1 1 0 01-1.4-.15l-.04-.05a1 1 0 01.23-1.39h.01a1 1 0 011.35.17zm1.28 4.1a1 1 0 00.1-1.4 1 1 0 00-1.53 1.3 1 1 0 001.41.1h.01zm2.31.08a1 1 0 01.68 1.23v.01a1 1 0 01-1.24.68h-.02a1 1 0 01-.67-1.24 1 1 0 011.25-.68zm3.53-.62a1 1 0 00-1.4-.24l-.01.01a1 1 0 101.4.23zm-14.99-9.21a.7.7 0 01.59.8.7.7 0 01-.82.58l-.06-.01a.7.7 0 01-.52-.86c.1-.34.45-.56.8-.5z" fill="#002D73"/><path d="M37.45 23.82c-.02.47.35.86.83.87h.02c.47 0 .86-.36.87-.83a.84.84 0 00-.84-.86c-.51 0-.87.35-.88.82zm2.76 1.8a1 1 0 01.17-1.4h.01a1 1 0 11-.15 1.43l-.03-.03zm.8 2.27a1 1 0 110 .01v-.01zm-4.8-2.33a.81.81 0 01-1.14-.04c-.3-.31-.28-.8.02-1.1.31-.3.82-.3 1.14 0 .3.3.31.8 0 1.11v.01l-.02.02zm-6.53 5.04c.14.24.44.33.7.21h.02v-.01a.5.5 0 00.18-.69.54.54 0 00-.7-.18.5.5 0 00-.2.67zm2.25-1.13a.62.62 0 01-.83-.26.6.6 0 01.24-.8c.3-.17.66-.07.84.22.17.28.07.65-.22.81l-.03.03zm-5.58 2.62c.03.2.22.34.43.31h.02c.2-.03.34-.23.3-.43a.38.38 0 00-.43-.3.37.37 0 00-.32.42z" fill="#00A1DF"/><path d="M50 27h2c0-2.41-2.34-3-3.96-3-2.2 0-3.64 1.07-3.64 2.72 0 1.37.82 2.22 2.73 2.55l1.56.27c1.03.17 1.31.5 1.31.89 0 .47-.6.87-1.9.87-.92 0-1.94-.4-2.1-1.3h-2c.14 1.86 1.8 2.99 4.18 3 2.27 0 3.82-1.09 3.82-2.72 0-1.43-1.13-2.09-3.02-2.43l-1.13-.2c-.92-.17-1.45-.43-1.45-1.06 0-.62.92-.9 1.6-.9 1.22 0 1.87.49 2 1.3zm-40 0h2c0-2.4-2.34-3-3.96-3-2.2 0-3.64 1.07-3.64 2.73 0 1.36.82 2.22 2.73 2.54l1.56.27c1.03.17 1.31.5 1.31.89 0 .47-.6.87-1.9.87-.92 0-1.94-.4-2.1-1.3H4c.14 1.86 1.8 2.99 4.18 3 2.27 0 3.82-1.09 3.82-2.72 0-1.43-1.13-2.08-3.02-2.43l-1.13-.2c-.92-.17-1.45-.43-1.45-1.05 0-.63.92-.9 1.6-.9 1.22 0 1.87.48 2 1.3zm11.55-3L18 30.01V33h-2v-2.99l-3.45-6h2.3l2.2 3.99 2.2-4h2.3zM25 30h1.31l2.31 3H31l-2.6-3.24c1.04-.45 1.62-1.58 1.6-2.76 0-1.85-1.35-3-3.3-3h-3.68v9H25v-3zm1.7-2H25v-2h1.63c.96 0 1.37.43 1.37 1 0 .57-.35 1-1.3 1z" fill="#00A1DF"/></svg>