<!-- by TradingView --><svg xmlns="http://www.w3.org/2000/svg" width="56" height="56" viewBox="0 0 56 56"><path fill="#F0F3FA" d="M0 0h56v56H0z"/><path fill-rule="evenodd" d="M36 19.65l1.53-1.15v3.41h1.58v1.16h-1.58v6.08c0 .21.17.39.38.39h1.18l.15 1.46h-1.7c-.85 0-1.54-.69-1.54-1.54v-6.4h-1.06v-1.15H36v-2.26zm-22.7 4.96l1.44-.28c-.15-.77-1-2.33-3.28-2.33-2.83 0-3.17 2.05-3.17 2.33v.05c-.01.38-.06 1.77 3.03 2.68.76.15 2.28.65 2.26 1.41-.03.95-1.12 1.38-1.97 1.38-.86 0-2.25-.78-2.25-1.84l-1.36.3c.19.9 1.17 2.69 3.6 2.69 3.06 0 3.4-2.27 3.4-2.8v-.04c0-.55 0-1.67-3.15-2.5-2.66-.7-2.75-2.07-.94-2.5 1.53-.36 2.4.58 2.4 1.45zM17.5 22H16v9h1.5v-9zm1.4 0h1.7l2.43 7.15L25.6 22h1.6l-4.33 11.06c-.18.38-.83 1.2-1.98 1.43-.22.02-.74 0-1.14-.2l-.2-1.34c.17.07.66.2 1.26.1.75-.1 1.35-1.2 1.55-2.15L18.9 22zm8 2.6l1.49.27c.14-.58.86-1.75 2.55-1.75 1.7 0 2.1 1.5 2.1 2.23-.54.12-1.84.38-2.75.5-1.15.15-3.53.79-3.53 2.89s2.9 2.29 3.33 2.26h.09c.53-.04 1.98-.13 2.8-1.23.1.23.34.78.57 1.1h1.5c-.2-.4-.6-1.32-.6-1.94v-4.77c0-.72-.71-2.16-3.7-2.16-3 0-3.82 1.73-3.86 2.6zm5.92 1.85c-.63.16-2.13.52-3.07.7-1.17.23-1.45.99-1.45 1.49s.8 1.43 2.16 1.25c1.37-.17 2.82-1.35 2.36-3.44zm8.52-1.58l-1.5-.27c.04-.87.86-2.6 3.85-2.6 3 0 3.71 1.44 3.7 2.16v4.77c0 .62.4 1.55.61 1.93h-1.5a5.63 5.63 0 0 1-.57-1.1c-.83 1.1-2.28 1.2-2.8 1.23h-.09c-.44.04-3.33-.16-3.33-2.25 0-2.1 2.38-2.74 3.52-2.9.92-.11 2.22-.37 2.75-.48.01-.75-.4-2.24-2.09-2.24-1.7 0-2.4 1.17-2.55 1.75zm1.36 2.28c.94-.18 2.44-.54 3.07-.7.46 2.09-1 3.27-2.36 3.45-1.36.17-2.16-.76-2.16-1.26s.28-1.26 1.45-1.49zM35.54 33.5c.3-.28.68-.5 1.1-.5.9 0 1.64.84 1.64 1.82v.4c0 .99-.73 1.78-1.64 1.78-.42 0-.8-.17-1.1-.46V37H35v-5.26h.54v1.76zm1.1.07c-.54 0-.98.58-.98 1.3v.3c0 .72.44 1.3.98 1.3s.98-.58.98-1.3v-.3c0-.72-.44-1.3-.98-1.3zM26 34.22c.28-.78 1.4-1 1.4-.02V37h.6l.02-2.6c0-.89 1.38-1.25 1.38-.18V37h.6v-2.8c0-1.4-1.46-1.47-2.2-.75-.04-.31-1.03-.85-1.8 0V33h-.61v4h.6l.01-2.78zM32.5 33c-1 0-1.8.84-1.8 1.82v.4c0 .99.8 1.78 1.8 1.78.98 0 1.79-.8 1.79-1.77v-.41c0-.98-.8-1.82-1.8-1.82zm0 .57c-.6 0-1.08.58-1.08 1.3v.3c0 .72.48 1.3 1.07 1.3.6 0 1.08-.58 1.08-1.3v-.3c0-.72-.48-1.3-1.08-1.3zM39.24 32h-.5v.48h.5V32zm0 1h-.5v4h.5v-4zm.79-1h.57v5h-.57v-5zm1.25 2.82c0-.98.8-1.82 1.8-1.82.99 0 1.79.84 1.79 1.82V35.23H42c.03.69.5 1.25 1.08 1.25.42 0 .8-.31.97-.75h.74c-.21.73-.9 1.27-1.71 1.27-1 0-1.8-.8-1.8-1.77v-.41zm.73-.12c.07-.64.52-1.13 1.07-1.13.54 0 .99.5 1.06 1.13h-2.13z" fill="#251F21"/><path d="M16.53 18c-1.66 0-2.36 1.04-2.53 1.83-.02.13.13.18.2.09a3.08 3.08 0 0 1 2.33-1.17 3 3 0 0 1 2.28 1.2c.08.09.22.02.19-.1-.2-.8-.8-1.85-2.47-1.85z" fill="url(#agwadd4go)"/><path d="M16.52 19.8c-.99 0-1.4.63-1.5 1.1-.01.08.1.13.15.07.25-.31.72-.6 1.35-.6.64 0 1.02.28 1.28.6.04.06.2.02.18-.05a1.38 1.38 0 0 0-1.46-1.12z" fill="url(#bgwadd4go)"/><defs><linearGradient id="agwadd4go" x1="14.54" y1="19.51" x2="18.42" y2="19.51" gradientUnits="userSpaceOnUse"><stop stop-color="#4FBDEE"/><stop offset="1" stop-color="#284B67"/></linearGradient><linearGradient id="bgwadd4go" x1="15.34" y1="20.63" x2="17.65" y2="20.63" gradientUnits="userSpaceOnUse"><stop stop-color="#4CB4E4"/><stop offset="1" stop-color="#284B67"/></linearGradient></defs></svg>