<!-- by TradingView --><svg width="56" height="56" viewBox="0 0 56 56" xmlns="http://www.w3.org/2000/svg"><path fill="#002F97" d="M0 0h56v56H0z"/><circle cx="28" cy="28" r="17" fill="#013BC0"/><circle cx="28" cy="28" r="12" fill="#0244E1"/><path d="M9 25H4v1h2v6h1v-6h2v-1ZM18.5 26.92 17.96 29h1.08l-.54-2.08ZM18 25h1.17L21 32h-1.17l-.53-2h-1.6l-.53 2H16l1.83-7H18ZM23 26.85V32h-1v-7h1.22L26 30.15V25h1v7h-1.22L23 26.85ZM32.88 26.26l-.78.7c-.26-.3-.93-.91-1.51-.91-.72 0-1.2.28-1.2.91s.72.49 1.8.91c1.09.42 1.81 1.05 1.81 2.1S32.28 32 30.53 32c-1.4 0-2.27-.89-2.53-1.33l.9-.7c.37.49 1.03.98 1.69.98.66 0 1.27-.28 1.27-.84 0-.56-.25-.77-1.63-1.19-1.39-.42-1.93-1.05-1.93-1.96 0-.91.84-1.96 2.29-1.96 1.16 0 2 .84 2.29 1.26ZM11 29v3h-1v-7h3a2 2 0 0 1 .28 3.98L15 32h-1.32L12 29h-1Zm0-1h2a1 1 0 1 0 0-2h-2v2ZM36.48 25h1.04L40 32h-.91l-.8-2.27h-2.57l-.8 2.27H34l2.48-7Zm-.5 4h2.04L37 26.1 35.98 29ZM47 30.07a3.16 3.16 0 0 1-2.82 1.89c-1.76 0-3.18-1.56-3.18-3.48S42.42 25 44.18 25c1.15 0 2.16.67 2.71 1.67l-.79.25c-.4-.74-1.08-1.22-1.85-1.22-1.24 0-2.43 1.24-2.43 2.78 0 1.54 1.2 2.78 2.43 2.78.83 0 1.56-.57 1.95-1.42l.8.23ZM52 25h-5v.67h2V32h.77v-6.33H52V25Z" fill="#FEFBFE"/></svg>