<!-- by TradingView --><svg width="56" height="56" viewBox="0 0 56 56" xmlns="http://www.w3.org/2000/svg"><path fill="#F0F3FA" d="M0 0h56v56H0z"/><path d="m12 44 .4-2.53a12269.9 12269.9 0 0 0 2.46-15.82c.16-1.04.33-2.08.48-3.13a.58.58 0 0 1 .5-.55l.45.2c-.03.3-.03.57-.07.83l-.7 4.46a225 225 0 0 0-.27 1.75c-.03.17-.04.34-.06.61a3 3 0 0 0 .27-.22 7.84 7.84 0 0 1 4.42-2.37c.88-.18 1.8-.23 2.7-.35 1.48-.2 2.96-.03 4.44.04 1.28.06 2.55.25 3.83.38 3.74.38 7.25-.25 10.42-2.4l.53-.34-.58 3.32-.8 4.66c-.24 1.32-.46 2.64-.68 3.97-.07.39-.23.75-.47 1.07a6.1 6.1 0 0 1-2.53 1.94c-1.17.48-2.4.8-3.67.92-1.85.23-3.71.09-5.57.09-2.05 0-4.1-.07-6.16-.11-.66-.02-1.32-.1-1.98-.08a9.14 9.14 0 0 0-7.05 3.3L12 44Z" fill="#00A356"/><path d="M16.8 25.2c.1-.59.17-1.12.27-1.64l.94-4.85a2.6 2.6 0 0 1 1.1-1.66 5.6 5.6 0 0 1 2.38-.92c1.72-.3 3.45-.28 5.18-.18 2.41.14 4.8.49 7.23.36 2.24-.11 4.44-.42 6.5-1.38a8.67 8.67 0 0 0 3.37-2.67L44 12l-1.34 7.83a8.83 8.83 0 0 1-4.72 3.47c-1.38.44-2.81.7-4.26.75-1.95.1-3.9.06-5.84-.12-1.03-.09-2.05-.26-3.08-.34a14.75 14.75 0 0 0-5.27.35c-.46.13-.91.3-1.35.5-.44.2-.84.47-1.34.76Z" fill="#EA2214"/></svg>