<!-- by TradingView --><svg width="56" height="56" viewBox="0 0 56 56" xmlns="http://www.w3.org/2000/svg"><path fill="#F0F3FA" d="M0 0h56v56H0z"/><path d="M41.29 24.82c-2.19-2.15-4.4-4.27-6.59-6.42-.39-.39-.85-.7-1.4-.95-1.75-.79-3.45.01-4.7 1.23-2.07 2.01-4.1 4.06-6.15 6.07-1.64 1.6-2.13 3.64-.67 5.58.12.16.31.37.59.64a2068.72 2068.72 0 0 1 4.77 4.71.04.04 0 0 1 0 .03c-.54.48-1.1.92-1.7 1.32-.31.2-.69.43-1.07.5a.12.12 0 0 1-.1-.04c-1.6-1.63-3.2-3.26-4.78-4.9a7.01 7.01 0 0 1-1.8-5.86 6.95 6.95 0 0 1 1.79-3.63l7.36-7.07a7.24 7.24 0 0 1 6.6-1.83 7.34 7.34 0 0 1 3.53 2.07l6.45 6.31a7.93 7.93 0 0 1 2.53 4.6 6.4 6.4 0 0 1-1.9 5.35l-4.88 4.86c-.89.89-1.8 1.78-2.67 2.68l-.25.18c-1.83 1.21-4.35 2.12-6.5 1.02-.02 0-.02-.02-.01-.03l.13-.14c1.22-1.23 2.05-2.05 2.48-2.47.02-.02.1-.05.13-.05a4.17 4.17 0 0 0 2.42-1.32c.3-.33.55-.6.84-.88 1.91-1.86 3.8-3.73 5.7-5.62.26-.26.46-.48.57-.64 1.31-1.82.76-3.84-.72-5.3Z" fill="url(#ajrw5xosh)"/><path d="M27.08 37.64a4.9 4.9 0 0 1-1.33.87c-1.67.72-3.22.29-4.48-.95-2.18-2.1-4.35-4.23-6.5-6.35a4.56 4.56 0 0 1-1.5-2.7 3.93 3.93 0 0 1 1.2-3.17c2.22-2.16 4.41-4.35 6.6-6.54a4.29 4.29 0 0 1 2.58-1.4l2.6-2.58c.03-.03.02-.06-.02-.09-.23-.13-.5-.24-.78-.32-1.99-.52-4.06.26-5.7 1.34-.1.08-.2.15-.26.22-2.66 2.65-5.36 5.27-7.98 7.96a6.48 6.48 0 0 0-1.51 4.4c.08 2 1.19 3.71 2.59 5.08l6.64 6.5a6.86 6.86 0 0 0 3.5 1.94 7.25 7.25 0 0 0 5.72-1.29c.35-.24.66-.53.97-.82 2.47-2.37 7.48-7.24 7.48-7.24a7.29 7.29 0 0 0 1.4-3.17c.25-1.4.06-2.77-.56-4.08a6.74 6.74 0 0 0-1.06-1.68 767.22 767.22 0 0 0-4.78-4.9c-.09-.1-.2-.21-.33-.18-.28.06-.54.2-.8.37a15.2 15.2 0 0 0-1.9 1.48c1.77 1.73 5.43 5.43 5.43 5.43 1.26 1.77.97 3.65-.47 5.2l-6.75 6.67Z" fill="url(#bjrw5xosh)"/><defs><linearGradient id="ajrw5xosh" x1="31.79" y1="14" x2="31.79" y2="41.77" gradientUnits="userSpaceOnUse"><stop stop-color="#F6DD89"/><stop offset="1" stop-color="#BF8838"/></linearGradient><linearGradient id="bjrw5xosh" x1="24.21" y1="14.25" x2="24.21" y2="42" gradientUnits="userSpaceOnUse"><stop stop-color="#BC833A"/><stop offset="1" stop-color="#F1D783"/></linearGradient></defs></svg>