<!-- by TradingView --><svg width="56" height="56" viewBox="0 0 56 56" xmlns="http://www.w3.org/2000/svg"><path fill="#F0F3FA" d="M0 0h56v56H0z"/><path d="M12 27.95c0-1 .1-2 .27-2.95H27L15.63 38.07A15.92 15.92 0 0 1 12 27.95Z" fill="#67C4C2"/><path d="M27 25v19a16.4 16.4 0 0 1-11.38-5.94L27 25Z" fill="#017C88"/><path d="M44 27.95c0-1-.1-2-.27-2.95H29l11.37 13.07A15.91 15.91 0 0 0 44 27.95Z" fill="#1C6273"/><path d="M29 25v19a16.4 16.4 0 0 0 11.38-5.94L29 25Z" fill="#051E3F"/><path d="M28 12v10l8.17-7.84A16.4 16.4 0 0 0 28 12Z" fill="#FFCC01"/><path d="M19.83 14.16 28 22V12c-3 0-5.78.79-8.17 2.16Z" fill="#FFE655"/><path d="M13 22h15l-8.17-7.84A15.58 15.58 0 0 0 13 22Z" fill="#FECC2E"/><path d="M28 22h15a15.58 15.58 0 0 0-6.83-7.84L28 22Z" fill="#E6A500"/></svg>