<!-- by TradingView --><svg xmlns="http://www.w3.org/2000/svg" width="56" height="56" viewBox="0 0 56 56"><path fill="#F0F3FA" d="M0 0h56v56H0z"/><path d="M8.03 26H5l.58-3H15l-.58 3h-3.03l-1.68 8H6.34l1.69-8zM26.44 26H23.4l.58-3h9.42l-.58 3H29.8l-1.68 8h-3.37l1.69-8zM17.28 30h2.1L19 26.77h-.03L17.28 30zm.83-7h3.3l1.69 11h-3.3l-.18-1.58h-3.56L15.22 34H11.8l6.3-11z" fill="#050505"/><path d="M30.42 31l-.58 3h6.7a7.02 7.02 0 0 0 5.97-3H30.42z" fill="#0265A1"/><path d="M34.3 27l-.58 3h7.64a7 7 0 0 0 5.95-3h-13z" fill="#0094C9"/><path d="M38.06 23l-.59 3h8.58c2.6 0 4.55-1.08 5.95-3H38.06z" fill="#86D0E6"/></svg>