<!-- by TradingView --><svg width="56" height="56" viewBox="0 0 56 56" xmlns="http://www.w3.org/2000/svg"><path fill="#F0F3FA" d="M0 0h56v56H0z"/><path fill-rule="evenodd" d="M21 30v-6h2.18c.97 0 1.82.52 1.82 1.58 0 .64-.33 1.1-.94 1.26v.06c.76.04 1.23.78 1.23 1.49 0 1.13-1 1.61-2 1.61H21Zm.7-.7h1.5c.56 0 1.2-.29 1.2-.96 0-.64-.57-1.04-1.17-1.04H21.7v2Zm0-2.7h1.4c.2 0 .39-.04.55-.12.33-.16.65-.45.65-.83 0-.6-.63-.95-1.17-.95H21.7v1.9Zm6.18 3.4c-.28 0-.53-.05-.75-.14-.23-.09-.4-.22-.53-.4-.13-.17-.2-.38-.2-.64 0-.22.05-.4.15-.54a1 1 0 0 1 .38-.33c.16-.08.34-.14.54-.19a6 6 0 0 1 .6-.1l.64-.06c.17-.02.4-.05.48-.09.07-.04.11-.1.11-.2 0-.45-.4-.7-.95-.7-.43 0-1.07.15-1.23.51l-.57-.46c.38-.46 1.01-.66 1.79-.66.17 0 .36.02.55.06.7.12 1.11.58 1.11 1.29V30h-.68v-.61c-.25.45-.96.61-1.44.61Zm.18-.6c.43 0 1.24-.33 1.24-.88v-.5a.65.65 0 0 1-.18.05l-.11.03a3.05 3.05 0 0 1-.62.1l-.26.03c-.16.02-.31.05-.45.1a.79.79 0 0 0-.32.18.44.44 0 0 0-.12.32c0 .19.07.33.23.43.15.09.35.14.6.14Zm3.64.6v-2.18c0-.6.75-1.09 1.28-1.09.64 0 1.02.37 1.02 1V30h.7v-2.37c0-.97-.42-1.63-1.4-1.63-.74 0-1.38.3-1.6.76V26H31v4h.7Zm6.82-.68A2 2 0 0 1 35 28a2 2 0 0 1 3.55-1.27l-.54.45a1.3 1.3 0 1 0-.02 1.65l.53.48ZM43 28a2 2 0 1 1-4 0 2 2 0 0 1 4 0Zm-.7 0a1.3 1.3 0 1 1-2.6 0 1.3 1.3 0 0 1 2.6 0Zm4.16-2h-.18c-.5 0-1.35.27-1.58.76V26H44v4h.7v-2.18c0-.58.76-1.09 1.28-1.09.18 0 .35.03.48.1v-.82Zm.54 0h.7v.6c.35-.37.84-.6 1.38-.6 1.06 0 1.92.9 1.92 2s-.86 2-1.92 2c-.54 0-1.03-.23-1.38-.6V33H47v-7Zm.7 2Z" fill="#7DA42D"/><path d="M41.64 20c-6.32 0-11.73 3.74-13.64 5.62 2.15-1.38 7.33-4.14 10.82-4.14s2.57 2.47 1.68 3.71c2.05-.18 2.82.47 2.95.81 1.5-2 3.24-6-1.8-6Z" fill="#0061AE"/><path d="M26.57 36c6.28 0 11.53-3.7 13.43-5.38-2.14 1.23-7.43 4.03-10.9 4.03-3.46 0-2.58-2.38-1.69-3.49-2.03.16-2.23-.85-2.36-1.16-2.47 1.71-3.5 6 1.52 6Z" fill="#7DA42D"/><path d="M5 24v.77h2V30h1v-5.23h1.86V24H5Zm6 3.92V30h-1v-6h1v2.77c.11-.22.27-.39.48-.52.23-.14.53-.25.9-.25.32 0 .6.1.85.23.24.12.43.31.57.57.13.25.2.56.2.93V30h-1v-2.16c0-.33-.01-.59-.2-.77a1 1 0 0 0-.74-.27c-.66 0-1.06.46-1.06 1.12ZM17.1 30c-.43 0-.8-.08-1.12-.24-.31-.17-.56-.4-.73-.7a2.1 2.1 0 0 1-.25-1.05c0-.4.08-.74.25-1.05.17-.3.41-.54.72-.7a2.44 2.44 0 0 1 1.8-.15c.23.07.44.18.63.34.18.15.33.35.44.6.1.25.16.54.16.9v.26h-3.14c0 .24.06.44.15.61.1.18.26.32.44.42.2.09.41.14.66.14.17 0 .31-.02.45-.06a1 1 0 0 0 .35-.19.8.8 0 0 0 .22-.3l.82.12c-.07.21-.19.4-.36.56-.16.15-.37.27-.63.36-.25.09-.53.13-.86.13ZM16 27.18c-.08.15-.13.3-.14.47h2.3a.98.98 0 0 0-.53-.9 1.2 1.2 0 0 0-.58-.13c-.24 0-.45.05-.63.16-.18.1-.32.24-.42.4Z" fill="#0062A8"/></svg>