<!-- by TradingView --><svg xmlns="http://www.w3.org/2000/svg" width="56" height="56" viewBox="0 0 56 56"><path fill="#104D93" d="M0 0h56v56H0z"/><path d="M32.86 23.97c.01-1.61.33-3.76 2.6-3.74 2.27 0 2.56 2.15 2.55 3.77-.01 1.61-.33 3.79-2.6 3.77-2.27-.01-2.56-2.19-2.55-3.8zM28 28.34c1.28 2.15 3.7 3.64 7.39 3.66 5.9.03 8.58-3.74 8.61-7.97.02-4.22-2.62-8-8.52-8.03-3.73-.02-6.18 1.47-7.48 3.64-1.29-2.14-3.7-3.62-7.39-3.64-5.9-.03-8.58 3.7-8.61 7.94-.03 4.22 2.61 8.03 8.52 8.06 3.73.02 6.18-1.48 7.48-3.66zm-10-4.37c0-1.61.32-3.76 2.59-3.74 2.27.01 2.56 2.15 2.55 3.77-.01 1.62-.33 3.79-2.6 3.77-2.27 0-2.56-2.19-2.55-3.8z" fill="#fff"/><path d="M15.03 32A32.56 32.56 0 0 0 28 35c4.82.03 8.37-1.27 13-3l-.03 4.91A29.63 29.63 0 0 1 27.86 40c-4.88-.03-8.4-1.01-12.86-3.09l.03-4.91z" fill="#fff"/></svg>