<!-- by TradingView --><svg width="56" height="56" viewBox="0 0 56 56" xmlns="http://www.w3.org/2000/svg"><path fill="#F0F3FA" d="M0 0h56v56H0z"/><path d="m34.27 18.24-.25.86a54.55 54.55 0 0 1-8.79 17.1 43.38 43.38 0 0 1-2.59 3.05l-.18.2a12.5 12.5 0 0 0 13.97-1.77 13.31 13.31 0 0 0 2.7-16.54 66.77 66.77 0 0 0 .67-4.33c.57.4 2.07 2.68 2.73 4.14 1.39 3.06 1.8 6.5 1.2 9.8-.55 3-1.91 5.78-3.93 8.02a15.83 15.83 0 0 1-7.5 4.66c-2.87.8-5.9.76-8.76-.12a15.85 15.85 0 0 1-7.36-4.85c.02-.04.06-.05.1-.07a27.46 27.46 0 0 0 4.15-2.7 42.7 42.7 0 0 0 6.2-5.88 52.53 52.53 0 0 0 7.48-11.35l.12-.24.04.02Z" fill="#469941"/><path d="M35.82 14a53.54 53.54 0 0 1-.83 3.1 12.73 12.73 0 0 0-8.64-1.88 12.74 12.74 0 0 0-10.78 15.16c-.96.36-1.95.66-2.96.93a15.78 15.78 0 0 1 4.9-15.27 15.9 15.9 0 0 1 18.31-2.03Z" fill="#818284"/><path d="M29.47 39.94a19.87 19.87 0 0 1-3.27-.22 5.57 5.57 0 0 1-1.23-.34.55.55 0 0 1-.24-.15l.18-.2a39.84 39.84 0 0 0 3.17-3.94 57.59 57.59 0 0 0 4.68-7.86A62.42 62.42 0 0 0 38.36 10c.03.08.05.16.04.25.01.61.02 1.23 0 1.84-.03.41-.04.83-.06 1.24a58.65 58.65 0 0 1-.57 5.4 55.11 55.11 0 0 1-3.55 12.6 46.7 46.7 0 0 1-4.72 8.56l-.03.05Z" fill="#486E35"/><path d="M29.43 23.34a40 40 0 0 1-5.47 7 33.84 33.84 0 0 1-5.15 4.34 24.96 24.96 0 0 1-6.3 3.13c-.76.25-1.55.45-2.34.61a.28.28 0 0 1-.17 0l2.21-5.3.63-.15c1.22-.28 2.43-.63 3.6-1.06a33.63 33.63 0 0 0 7.8-3.9 26.7 26.7 0 0 0 5.07-4.53l.12-.14Z" fill="#818284"/></svg>