<!-- by TradingView --><svg width="56" height="56" viewBox="0 0 56 56" fill="none" xmlns="http://www.w3.org/2000/svg">
<rect width="56" height="56" fill="#21265D"/>
<path d="M13.9016 25.7134C13.1934 25.0228 12.4094 24.571 11.6002 24.571C9.37454 24.571 8.0349 26.2137 8.0349 28C8.0349 29.7854 9.37555 31.428 11.6002 31.428C12.5357 31.428 13.3955 31.0476 13.9522 30.357L15.9747 32.4049C14.7361 33.571 12.662 34 11.6002 34C7.93387 34 5 31.5954 5 28C5 24.4046 7.93387 22 11.6002 22C13.1429 22 14.8372 22.5241 16 23.7378L13.9016 25.7134Z" fill="white"/>
<path d="M18 22H21.004V24.1003H21.0541C21.9324 22.6502 23.371 22 25.0524 22C28.7672 22 31 24.252 31 27.8025C31 31.3519 28.6158 34 25.1778 34C22.9189 34 21.7147 33.0528 21.0871 32.2778H21V40H18V22ZM24.4499 24.7006C22.2411 24.7006 20.9116 25.9279 20.9116 27.8035C20.9116 29.6781 22.2421 31.4029 24.4499 31.4029C26.6576 31.4029 27.9881 29.6781 27.9881 27.8035C27.9881 25.9279 26.6576 24.7006 24.4499 24.7006Z" fill="white"/>
<path d="M39.5887 25.4518C39.0047 24.6899 38.2442 24.2857 37.2028 24.2857C36.3906 24.2857 35.4263 24.6433 35.4263 25.5003C35.4263 27.5472 42 25.8808 42 30.3332C42 33.0469 39.2338 34 36.7465 34C34.8686 34 33.2442 33.5472 32 32.2384L34.031 30.4521C34.8179 31.2616 35.6301 31.857 36.924 31.857C37.8122 31.857 39 31.4528 39 30.5472C39 28.1902 32.3802 30.0469 32.3802 25.6906C32.3802 23.1433 34.8169 22 37.2788 22C38.9033 22 40.6291 22.4765 41.6187 23.7378L39.5887 25.4518Z" fill="white"/>
<path d="M48 22H45V34H48V22Z" fill="white"/>
<path d="M46.4741 20C47.617 20 48.5 19.3544 48.5 18.4995C48.5 17.6456 47.617 17 46.4741 17C45.3313 17 44.5 17.7083 44.5 18.4995C44.5 19.2917 45.3313 20 46.4741 20Z" fill="#0071B9"/>
</svg>
