<!-- by TradingView --><svg width="56" height="56" viewBox="0 0 56 56" xmlns="http://www.w3.org/2000/svg"><path fill="#F0F3FA" d="M0 0h56v56H0z"/><path d="M33.52 27h4.06c.06 0 .1-.02.1-.08l.38-2.73c.01-.05.04-.1.07-.13.04-.03.08-.06.13-.06h2.8c.03 0 .05.02.07.03a.15.15 0 0 1 .08.1c0 .02.01.05 0 .07l-.37 2.7a.1.1 0 0 0 .05.1h5.85c.13 0 .18.08.16.2l-.38 2.62c0 .05-.03.09-.06.11-.03.03-.08.07-.12.07h-5.9c-.05 0-.08 0-.09.04l-.3 1.87c0 .06.02.1.09.1L46.1 32h.07a.14.14 0 0 1 .07.11v.07c-.13.34-.11.67-.2 1.02-.25 1.15-.76 1.8-2 1.8h-4.28c-.06 0-.1.01-.1.07l-.39 2.84c0 .06-.04.09-.1.09h-2.98c-.06 0-.09-.04-.08-.1l.39-2.84c0-.04-.03-.06-.06-.06h-7.58c-.03 0-.05-.02-.06-.03a.14.14 0 0 1-.08-.1v-.05l.38-2.57c.02-.17.12-.25.3-.25h7.31a.22.22 0 0 0 .22-.2l.25-1.74c0-.05-.02-.06-.07-.06h-5c-.72 0-1.21-.08-1.5-.24-1.08-.63-.91-2-.34-2.95.76-1.28 1.56-2.41 2.4-3.73.02-.01.02-.03.02-.04 0-.05-.03-.04-.08-.04h-1.89c-.06 0-.09-.06-.08-.13l.4-2.82c.01-.05.06-.05.11-.05h3.22c.06 0 .11-.06.15-.12l1.01-1.72a.3.3 0 0 1 .28-.16h2.92a.09.09 0 0 1 .08.09l-.01.04-1.02 1.73c-.04.07-.02.14.06.14h10.03c.06 0 .1-.02.12.07v.06l-.4 2.64c0 .05-.03.1-.07.14-.04.03-.1.09-.15.09H36.09c-.02 0-.05-.03-.07-.02a.15.15 0 0 0-.06.06l-2.5 3.89c-.01.04.01.07.06.07ZM8.43 32.4c.56-3.77 1.09-7.45 1.58-11.05.2-1.35.66-2.53 1.93-3.1.37-.16.92-.25 1.64-.25h11.06a2 2 0 0 1 2.05 1.48c.14.42.16 1 .06 1.72l-2.38 16.6c-.02.13-.09.2-.2.2H10.31c-.23 0-.55-.07-.96-.22a1.94 1.94 0 0 1-1.25-1.14 3.25 3.25 0 0 1-.06-1.47c.1-.8.23-1.72.38-2.76Zm2.82.63c-.04.27-.07.53-.08.79-.05.75.71 1.18 1.38 1.18h9.23c.05 0 .07 0 .08-.04.61-4.3 1.15-7.92 1.75-12.2.17-1.17-.27-1.76-1.3-1.76h-7.87c-.64 0-1.1.25-1.38.7-.14.24-.26.7-.37 1.38-.53 3.54-.93 6.41-1.44 9.95Z" fill="#FF3C3B"/><path d="m17.47 26.32-2.61 7.57a.16.16 0 0 1-.06.08.18.18 0 0 1-.1.03h-2.64a.1.1 0 0 1-.07-.04.09.09 0 0 1-.02-.07l2.88-7.77a.08.08 0 0 0-.02-.08.09.09 0 0 0-.07-.04h-1.55c-.12 0-.17-.05-.15-.16l.33-2.18c.02-.1.08-.15.2-.15h4.82c.07 0 .1-.02.12-.09l.16-1.3c0-.04.02-.07.04-.09a.14.14 0 0 1 .1-.03h2.72a.06.06 0 0 1 .04.02.05.05 0 0 1 .01.05l-.23 1.3a.12.12 0 0 0 .03.1l.05.04.06.01 1.12-.02c.14 0 .2.07.19.2l-.35 2.2c-.01.08-.05.1-.12.1h-1.27c-.06 0-.1.03-.1.08-.31 1.95-.6 3.88-.88 5.78A2.41 2.41 0 0 1 17.55 34h-1.39c-.33 0 .29-2.29.32-2.5l.04-.07a.16.16 0 0 1 .06-.04c.54-.22.75-.24.85-.86l.41-2.64c.08-.5.16-1.21-.28-1.6l-.02-.01a.06.06 0 0 0-.07.04Z" fill="#FF3C3B"/></svg>