<!-- by TradingView --><svg width="56" height="56" viewBox="0 0 56 56" xmlns="http://www.w3.org/2000/svg"><path fill="#003057" d="M0 0h56v56H0z"/><path fill-rule="evenodd" d="M42 14H14v28h28V14Zm-29-1v30h30V13H13Z" fill="#fff"/><path d="M34 18H23v3h.5c0-1.6.67-2 1-2h3v12.5c0 .8-1.67 1-2.5 1v.5h7v-.5c-.8 0-2.5-.5-2.5-1V25c1.6 0 2.33 1.33 2.5 2h1v-4h-.5c0 .8-.67 1.33-1 1.5a5 5 0 0 0-2-.5v-5h3c.8 0 1 1.33 1 2h.5v-3Z" fill="#fff"/><path d="M27 25.5v-1c-2 .33-6 2.5-6 7 0 5.5 4 7.5 8 7.5a8.89 8.89 0 0 0 5.5-2l-.5-.5c-.67.5-3 1.5-5 1.5-2.5 0-6-2-6-6.5 0-3.6 2.67-5.5 4-6Z" fill="#fff"/></svg>