<!-- by TradingView --><svg width="56" height="56" viewBox="0 0 56 56" fill="none" xmlns="http://www.w3.org/2000/svg">
<rect width="56" height="56" fill="#F0F3FA"/>
<path d="M35.0896 27.955C32.1289 25.4103 29.1589 22.8588 26.1797 20.3004C25.7621 19.9418 25.1831 19.5509 24.4428 19.1277C24.4057 19.1067 24.4039 19.0828 24.4374 19.056C29.6866 14.938 37.4123 14.9956 42.5877 19.1451C45.6018 21.5622 47.4167 25.365 46.9176 29.3091C46.2955 34.2216 42.4733 37.9549 37.8922 39.3384C33.2897 40.7285 28.2735 39.9253 24.4396 36.955C24.4046 36.9282 24.4061 36.9035 24.4438 36.8811C25.2483 36.4022 25.792 36.041 26.0749 35.7975C29.0763 33.2152 32.0812 30.6333 35.0896 28.0517C35.1267 28.0191 35.1267 27.9868 35.0896 27.955Z" fill="#00A652"/>
<path d="M24.2057 35.3812C19.6118 38.2755 12.7689 37.4821 9.54314 32.8142C7.24403 29.4863 7.53476 25.2455 10.2764 22.2719C14.2472 17.9648 21.2011 17.8703 25.5482 21.6209C27.9973 23.7351 30.4496 25.8461 32.9051 27.9539C32.9329 27.9778 32.9343 28.0035 32.9094 28.031C32.8253 28.1252 32.7362 28.2125 32.6422 28.2929C30.3919 30.2123 28.1458 32.1367 25.9041 34.0662C25.1951 34.6763 24.629 35.1146 24.2057 35.3812Z" fill="#00ADEE"/>
</svg>
