<!-- by TradingView --><svg width="56" height="56" viewBox="0 0 56 56" xmlns="http://www.w3.org/2000/svg"><path fill="#635E87" d="M0 0h56v56H0z"/><path d="M16 21H5v3h4v11h3V24h4v-3ZM28.14 33.16a7.38 7.38 0 0 1-4.9 1.84c-4.01 0-7.26-3.13-7.26-7s3.25-7 7.25-7c1.97 0 3.74.75 5.05 1.97l-1.87 2.2a4.38 4.38 0 0 0-3.18-1.34A4.25 4.25 0 0 0 18.91 28c0 2.3 1.94 4.17 4.32 4.17 1.2 0 2.3-.48 3.08-1.24l1.83 2.23ZM37 30.39V21h-3v8.52c-.53 3.29-3.48 2.66-4.59 2.09L28 33.96c1 .83 2.78 1.04 3.55 1.04 4.04-.3 5.45-3.07 5.45-4.61ZM39 21h3v5h5v-5h3v14h-3v-6h-5v6h-3V21Z" fill="#fff"/></svg>