<!-- by TradingView --><svg width="56" height="56" xmlns="http://www.w3.org/2000/svg"><path fill="#032B3F" d="M0 0h56v56H0z"/><path d="M45 37v-4.998h1V36h2v1h-3zM39 37l1.5-4.998h1L43 37h-1l-.288-1h-1.435L40 37h-1z" fill="#fff"/><path d="M40.414 34.995l.57-2 .588 2h-1.158z" fill="#032B3F"/><path d="M33.003 34.431c0-2.555 2.816-2.649 3.997-2.258l-.165 1c-.427-.19-1.023-.192-1.268-.173-.544 0-1.567.261-1.567 1.519s1.22 1.489 1.863 1.5c.512.009.861-.11.972-.17l.165.958c-3.338.85-3.997-1.36-3.997-2.376zM23 36.891v-4.777c3.36-.582 4 1.211 4 2.23 0 2.717-2.647 2.838-4 2.547z" fill="#fff"/><path d="M24 35.96v-2.919c.699-.131 2.076-.025 1.997 1.456-.08 1.48-1.365 1.592-1.997 1.464z" fill="#032B3F"/><path d="M18 37v-5h3v1h-2v1h2v1h-2v1h2v1h-3zM39 20v10h1.5v-8.28c-.087-.962-1.01-1.547-1.5-1.72zM30.5 22.5V20c-1.27.415-1.482 1.33-1.5 1.735v6.112c-.033 1.647.964 2.13 2.006 2.152.834.018 1.677-.362 1.994-.555l-.41-1.39c-1.578.836-2.121.303-2.09-.207V24h1.927v-1.5H30.5zM25.455 22.007c1.151-.064 1.954.304 2.212.496v1.613c-.755-.487-1.054-.616-1.821-.616-.722 0-2.346.395-2.346 2.6 0 2.026 1.41 2.4 2.346 2.4.748 0 1.435-.375 1.68-.558l.474 1.29c-.338.256-1.32.768-2.545.768-1.53 0-3.393-1.119-3.454-3.9-.06-2.782 2.015-4.013 3.454-4.093zM18.51 22.011c-1.296-.092-2.51.415-2.955.68l.44 1.175c.534-.401 1.446-.531 1.835-.546 1.34-.1 1.79 1.084 1.721 1.72-.38-.04-1.647-.091-2.643.105-1.245.246-1.968 1.323-1.904 2.7.063 1.377 1.22 2.113 2.376 2.154.925.033 1.738-.591 2.03-.907l.27.908H21c-.069-.194-.07-1.303 0-3.459.07-2.155-.304-3.118-.44-3.328-.143-.362-.755-1.11-2.05-1.202z" fill="#fff"/><path d="M16.506 27.681c-.13-1.437 1.943-1.489 2.995-1.335v1.633c-.173.423-2.832 1.499-2.995-.298z" fill="#032B3F"/><path d="M16 20H8v1.5h2.744V30h1.519v-8.5c.46.005 1.558.012 2.278 0S15.813 20.435 16 20z" fill="#fff"/><circle cx="35.75" cy="21" r="1" fill="#fff"/><path d="M35 23h1.5v7H35v-7zM45.17 22.001c2.611 0 2.824 2.208 2.824 4.5H43.5c.07 1.838 1.288 2.015 2.224 2 .75-.013 1.358-.403 1.59-.56l.467 1.383c-.76.553-1.925.681-2.412.676-3.008-.1-3.485-3.049-3.348-4.51.042-1.184.731-3.49 3.15-3.489z" fill="#fff"/><path d="M45.115 23.5c-1.28.01-1.643.921-1.658 1.5h3.122c0-.629-.183-1.51-1.464-1.5z" fill="#032B3F"/><path d="M11 32.003v5h1V34l1 3 1 .003L15 34v3.003h1v-5h-1l-1.49 4.361-1.51-4.36h-1zM30 32h.995v5H30z" fill="#fff"/></svg>