<!-- by TradingView --><svg width="56" height="56" viewBox="0 0 56 56" xmlns="http://www.w3.org/2000/svg"><path fill="#10354F" d="M0 0h56v56H0z"/><circle cx="34.5" cy="30.5" r="2.5" fill="#225980"/><circle cx="34.5" cy="23.5" r="2.5" fill="#225980"/><path d="M30 16.5a2.5 2.5 0 1 1-5 0 2.5 2.5 0 0 1 5 0Zm-7 7a2.5 2.5 0 1 1-5 0 2.5 2.5 0 0 1 5 0Zm-7 7a2.5 2.5 0 1 1-5 0 2.5 2.5 0 0 1 5 0Zm7 0a2.5 2.5 0 1 1-5 0 2.5 2.5 0 0 1 5 0Zm4.5 2.5a2.5 2.5 0 1 0 0-5 2.5 2.5 0 0 0 0 5Zm0-7a2.5 2.5 0 1 0 0-5 2.5 2.5 0 0 0 0 5Zm-14 14a2.5 2.5 0 1 0 0-5 2.5 2.5 0 0 0 0 5Zm9.5-2.5a2.5 2.5 0 1 1-5 0 2.5 2.5 0 0 1 5 0Zm4.5 2.5a2.5 2.5 0 1 0 0-5 2.5 2.5 0 0 0 0 5Z" fill="#6E99B9"/><circle cx="34.5" cy="37.5" r="2.5" fill="#225980"/><path d="M44 16.5a2.5 2.5 0 1 1-5 0 2.5 2.5 0 0 1 5 0ZM41.5 26a2.5 2.5 0 1 0 0-5 2.5 2.5 0 0 0 0 5Zm0 7a2.5 2.5 0 1 0 0-5 2.5 2.5 0 0 0 0 5Zm0 7a2.5 2.5 0 1 0 0-5 2.5 2.5 0 0 0 0 5Z" fill="#86A45A"/></svg>