<!-- by TradingView --><svg width="56" height="56" viewBox="0 0 56 56" xmlns="http://www.w3.org/2000/svg"><path fill="#F0F3FA" d="M0 0h56v56H0z"/><path fill="#E53B2C" d="M29.39 30.24h4.93v5.52h-4.93zM13.92 21.6c1.45-3.2 6.55-9.45 15.36-8.9l.43.02V22H13.62l.3-.4Z"/><path fill-rule="evenodd" d="M28 42c7.66 0 14-6.34 14-14s-6.34-14-14-14-14 6.34-14 14 6.34 14 14 14Zm0 2a16 16 0 1 0 0-32 16 16 0 0 0 0 32Z"/><path d="M41 22H7v-1h34v1Z"/><path d="M30 13v30h-1V13h1ZM35 14v34h-1V14h1Z"/><path d="M42.77 31h-29.6v-1h29.6v1ZM40.85 36H15.12v-1h25.73v1Z"/></svg>