<!-- by TradingView --><svg width="56" height="56" xmlns="http://www.w3.org/2000/svg"><path fill="#079BB4" d="M0 0h56v56H0z"/><path d="M40.06 16.975c.09.332.416 1.546.725 2.704l2.451 9.14c.315 1.16.64 2.377.726 2.71a1.546 1.546 0 01-.37 1.4c-.247.251-1.136 1.14-1.982 1.986l-6.7 6.691c-.844.85-1.735 1.74-1.983 1.98-.37.346-.904.49-1.397.375-.334-.085-1.553-.417-2.708-.723l-9.148-2.449c-1.157-.31-2.378-.636-2.71-.731-.248-.058-.457-.208-.636-.382a1.51 1.51 0 01-.39-.644c-.087-.328-.415-1.549-.726-2.701l-2.45-9.147c-.308-1.159-.634-2.373-.723-2.707l.351-.095.35-.093.721 2.704 2.457 9.15c.305 1.156.633 2.37.726 2.71l.192.31.319.197c.333.093 1.552.419 2.71.723l9.144 2.45c1.154.31 2.373.64 2.709.728l.7-.186c.243-.24 1.134-1.135 1.984-1.985l6.692-6.693c.848-.834 1.735-1.73 1.98-1.981l.19-.696c-.092-.338-.416-1.558-.727-2.715l-2.453-9.135a316.156 316.156 0 00-.725-2.707l-.198-.316-.315-.198c-.332-.091-1.55-.419-2.709-.731l-9.143-2.449-2.707-.723-.703.186c-.244.244-1.135 1.139-1.981 1.983l-6.698 6.689c-.844.848-1.739 1.742-1.98 1.985l-.185.698-.35.093-.351.095a1.56 1.56 0 01.375-1.402c.246-.245 1.139-1.135 1.985-1.983l6.691-6.691c.85-.846 1.743-1.737 1.986-1.98.37-.35.904-.494 1.4-.381.331.095 1.55.425 2.708.73l9.147 2.453c1.155.31 2.372.635 2.707.726.247.068.46.21.64.388.172.18.315.392.381.64z" fill="#fff"/><path d="M28.6 14.552c.242.137 1.144.66 1.998 1.154l6.761 3.898c.858.49 1.757 1.008 2.007 1.154.353.22.578.62.598 1.038V34.22a1.29 1.29 0 01-.598 1.028c-.252.146-1.149.666-2.005 1.157l-6.763 3.901-1.997 1.16-.6.146-.598-.146a688.94 688.94 0 01-2-1.16l-6.762-3.901c-.85-.491-1.752-1.011-1.999-1.157l.146-.254.15-.26c.25.144 1.148.662 2.002 1.158l6.761 3.902c.85.493 1.757 1.015 2 1.154l.298.072.301-.072 2.001-1.154 6.756-3.902c.855-.496 1.758-1.014 2.006-1.158l.301-.514V21.796l-.299-.524c-.25-.138-1.152-.662-2.008-1.15L30.3 16.224c-.854-.5-1.756-1.015-2-1.156l-.304-.066-.295.066c-.244.141-1.149.655-1.999 1.156l-6.763 3.898c-.854.488-1.753 1.012-2.003 1.15l-.295.524V34.22l.295.514-.15.26-.145.254a1.261 1.261 0 01-.6-1.028c0-.281 0-1.323-.002-2.318l.003-7.801v-2.305c.01-.417.238-.819.6-1.038.246-.144 1.148-.662 1.998-1.154l6.762-3.898c.854-.495 1.756-1.015 2-1.154l.594-.154.604.154z" fill="#fff"/><path d="M19.904 19.07c.247-.061 1.14-.302 1.985-.53l6.713-1.797c.85-.226 1.743-.468 1.986-.534.366-.08.755.023 1.028.276.179.18.835.836 1.454 1.453l4.916 4.912c.619.62 1.273 1.278 1.451 1.451.257.274.36.67.274 1.028-.066.245-.307 1.139-.53 1.987l-1.8 6.707c-.23.851-.468 1.748-.532 1.986l-.288.474-.465.285c-.247.064-1.144.302-1.988.53l-6.71 1.798c-.849.225-1.744.464-1.99.53l-.068-.258-.072-.257c.249-.07 1.141-.306 1.99-.53l6.712-1.796c.849-.234 1.743-.475 1.988-.535l.233-.146.143-.233c.068-.248.303-1.14.532-1.988l1.797-6.71c.231-.848.468-1.743.534-1.987l-.136-.516-1.46-1.452-4.91-4.91c-.62-.62-1.279-1.273-1.451-1.451l-.516-.142c-.247.068-1.142.303-1.992.53l-6.703 1.808c-.848.225-1.745.468-1.985.53l-.231.15-.144.234c-.068.244-.305 1.139-.537 1.985l-1.8 6.708c-.229.854-.465 1.742-.53 1.989l.137.512c.182.178.834.836 1.457 1.451l4.914 4.916c.617.62 1.271 1.27 1.454 1.453l.51.136.072.256.068.258a1.103 1.103 0 01-1.023-.28c-.184-.174-.836-.828-1.46-1.452l-4.91-4.909c-.62-.62-1.279-1.274-1.457-1.45a1.148 1.148 0 01-.277-1.033c.065-.242.31-1.137.533-1.985l1.801-6.71c.23-.848.47-1.738.532-1.983l.285-.473.466-.285z" fill="#fff"/><path d="M18.135 37.865c-5.448-5.45-5.448-14.274.002-19.72 5.447-5.448 14.282-5.448 19.731 0 5.448 5.446 5.448 14.27 0 19.723-5.45 5.447-14.284 5.447-19.733-.003zm19.271-.43c5.201-5.202 5.22-13.625.031-18.815-5.187-5.178-13.61-5.166-18.815.037-5.201 5.201-5.213 13.623-.027 18.807 5.185 5.184 13.61 5.174 18.811-.03z" fill="#fff"/><path d="M28.442 17.907c.184.106.85.494 1.483.851l5.007 2.893c.63.364 1.3.753 1.486.855.263.165.431.456.441.765v9.205a.945.945 0 01-.44.765c-.187.106-.856.49-1.487.855l-5.007 2.889c-.633.365-1.299.749-1.483.858l-.442.106-.443-.106c-.182-.11-.844-.495-1.48-.858l-5.008-2.889c-.627-.364-1.3-.75-1.48-.855l.108-.19.115-.193 1.48.854 5.007 2.893c.631.364 1.3.745 1.483.852l.22.052.219-.053c.188-.106.854-.488 1.483-.851l5.007-2.893 1.484-.854.225-.38v-9.207l-.223-.384c-.186-.103-.852-.49-1.486-.856l-5.007-2.885c-.627-.37-1.299-.75-1.483-.855l-.22-.055-.219.055c-.182.106-.852.485-1.486.855l-5.004 2.887c-.634.365-1.296.753-1.48.856l-.224.384v9.205l.224.38-.115.193-.108.19a.933.933 0 01-.443-.765v-9.205a.94.94 0 01.442-.765c.183-.102.854-.489 1.481-.855l5.007-2.893c.637-.357 1.3-.745 1.481-.851l.443-.11.442.11z" fill="#fff"/><path d="M20.695 35.182c-4.034-4.037-4.034-10.577 0-14.608 4.037-4.034 10.575-4.034 14.612 0 4.037 4.033 4.037 10.571 0 14.608a10.328 10.328 0 01-14.612 0zm14.269-.324c3.854-3.854 3.866-10.084.025-13.93-3.843-3.84-10.08-3.827-13.932.024-3.857 3.853-3.868 10.09-.026 13.93 3.843 3.841 10.08 3.831 13.933-.023z" fill="#fff"/></svg>