<!-- by TradingView --><svg width="56" height="56" viewBox="0 0 56 56" fill="none" xmlns="http://www.w3.org/2000/svg">
<rect width="56" height="56" fill="#F0F3FA"/>
<path fill-rule="evenodd" clip-rule="evenodd" d="M7 32V25H4V24H11V25H8V31.6104C8.71489 31.4875 10.5892 31.3586 13 31.235V24H19V25H14.5V27H18V28H14.5V31H18.3133C19.203 30.9652 20.105 30.9316 21 30.8997V24H22.8605L27.3 29.7209V24H29V30.6468C29.011 30.6465 29.0221 30.6462 29.0331 30.6459L29 30.6479V30.6562L28.4286 30.683L7 32ZM26.3716 30.7227L22.7 26.0002V30.8405C23.9842 30.797 25.2278 30.7574 26.3716 30.7227ZM27.3 32V31.8084C24.4335 31.9272 21.1407 32 17.3967 32C22.276 31.6909 32.8599 30.9848 36.1609 30.6334C40.2871 30.1943 46.0126 28.8897 46.0126 27.4537C46.0126 25.8043 43.4761 24.4297 42.2079 24H44.8873L47.0573 26.4973L49.2006 24H51.6943L48.3479 27.8383L52 32H49.3937L46.9643 29.128L44.5993 32H40.5128L42.363 30.1943C41.7626 30.3769 40.6297 30.6149 38.9177 30.8579L39.4413 32H37.2735L36.8874 31.1147C35.5899 31.2612 34.0705 31.403 32.3188 31.5286L32.1197 32H30.0063L30.154 31.668C29.7783 31.6896 29.3936 31.7103 29 31.7303V32H27.3ZM38.4408 24H41.0286C42.2244 24.5029 44.6162 25.9105 44.6162 27.193C44.6162 27.7211 44.1947 28.0836 43.9839 28.1989C44.2192 27.5807 43.4399 25.8106 38.4408 24ZM30.6598 30.531L33.5649 24H35.7737L38.3694 29.6619C37.8015 29.7676 37.1195 29.8692 36.3857 29.9641L34.6557 25.9962L32.8166 30.3501C32.0205 30.4232 31.2761 30.4845 30.6598 30.531Z" fill="black"/>
</svg>
