<!-- by TradingView --><svg xmlns="http://www.w3.org/2000/svg" width="56" height="56"><path fill="#F0F3FA" d="M0 0h56v56H0z"/><path d="M36.93 17c-1.28 0-6.6 1.27-9.49 2h12.63c-1.05-2-2.27-2-3.14-2z" fill="#093852"/><path d="M35.34 20H44c-3.43 1.23-7.97 4.33-9.82 5.52a4 4 0 00.3-3.85c-.2-.35-.28-.68-.3-.8.02-.7.78-.9 1.16-.87z" fill="url(#a315r2wbe)"/><path d="M22.64 25.3c1.5.34 2.9.54 3.43.6L26 20l-3.36 5.3z" fill="url(#b315r2wbe)"/><path d="M31.18 20H26v26l7.8-21.23c.16-.52.5-1.7 0-2.91-.6-1.45-2-1.84-2.62-1.86z" fill="url(#c315r2wbe)"/><path d="M26 20H8c4.66 2.5 11.66 4.55 14.74 5.32 2.28-.64 3.14-3.74 3.26-5.32z" fill="url(#d315r2wbe)"/><defs><linearGradient id="a315r2wbe" x1="34.18" y1="20.45" x2="37.83" y2="23.33" gradientUnits="userSpaceOnUse"><stop stop-color="#1284AE"/><stop offset="1" stop-color="#1A93CD"/></linearGradient><linearGradient id="b315r2wbe" x1="25.01" y1="23.21" x2="26.06" y2="25.9" gradientUnits="userSpaceOnUse"><stop stop-color="#1180B5"/><stop offset="1" stop-color="#0E6E96"/></linearGradient><linearGradient id="c315r2wbe" x1="34.07" y1="22.94" x2="25.94" y2="26.5" gradientUnits="userSpaceOnUse"><stop stop-color="#1284AE"/><stop offset="1" stop-color="#189CD0"/></linearGradient><linearGradient id="d315r2wbe" x1="25.95" y1="18.37" x2="22.25" y2="28.7" gradientUnits="userSpaceOnUse"><stop stop-color="#1078A4"/><stop offset=".58" stop-color="#189CD0"/><stop offset=".89" stop-color="#1586B6"/></linearGradient></defs></svg>