<!-- by TradingView --><svg width="56" height="56" viewBox="0 0 56 56" xmlns="http://www.w3.org/2000/svg"><path fill="#F0F3FA" d="M0 0h56v56H0z"/><path d="M19 28v3h6.65c2.4 0 4.35-1.94 4.35-4.36v-6.25A4.37 4.37 0 0 0 25.65 16H12v3h13.57c1.9 0 3.45 1.36 3.45 3.28v2.55c0 1.92-1.54 3.17-3.45 3.17H19Z" fill="url(#aa4fkviuc)"/><path d="M19 31v-3h6.72c.38 0 .74-.05 1.08-.16l1.2 2.3c-.65.38-1.4.86-2.2.86H19Z" fill="url(#ba4fkviuc)"/><path d="M19 32v3h6.65c2.4 0 4.35-2.24 4.35-4.64v-6.03c0-2.4-1.95-4.33-4.35-4.33H12v3h13.57c1.9 0 3.45 1.3 3.45 3.2v2.37c0 1.9-1.54 3.43-3.45 3.43H19Z" fill="url(#ca4fkviuc)"/><path d="M19 35v-3h6.75c.37 0 .73-.25 1.06-.36L28 33.92c-.64.37-1.38 1.08-2.17 1.08H19Z" fill="url(#da4fkviuc)"/><path d="M19 39v-3h6.57c.37 0 .73-.03 1.07-.14l1.19 2.56c-.64.37-1.39.58-2.18.58H19Z" fill="#0153A5" fill-opacity=".5"/><path d="M19 36v3h6.65c2.4 0 4.35-1.94 4.35-4.34v-6.32c0-2.4-1.95-4.34-4.35-4.34H12v3h13.57c1.9 0 3.45 1.31 3.45 3.21v2.66c0 1.9-1.54 3.13-3.45 3.13H19Z" fill="url(#ea4fkviuc)"/><path d="M19 39v-3h6.57c.37 0 .73-.08 1.07-.18l1.19 2.6c-.64.37-1.39.58-2.18.58H19Z" fill="url(#fa4fkviuc)"/><path d="M37.06 32v3h-6.71c-2.4 0-4.35-2.52-4.35-4.95v-5.38c0-2.43 1.95-4.67 4.35-4.67H44v3H30.43a3.53 3.53 0 0 0-3.45 3.56v1.68c0 1.92 1.54 3.76 3.45 3.76h6.63Z" fill="url(#ga4fkviuc)"/><path d="M37.06 35v-3h-6.63c-.37 0-1.02-.12-1.38-.34l-.87 2.2c.63.37 1.38 1.14 2.17 1.14h6.71Z" fill="url(#ha4fkviuc)"/><path d="M37 36.02V39h-6.65c-2.4 0-4.35-2.22-4.35-4.65v-6.38c0-2.42 1.95-3.97 4.35-3.97H44v3H30.43c-1.9 0-3.45.94-3.45 2.86v2.68a3.46 3.46 0 0 0 3.45 3.48H37Z" fill="url(#ia4fkviuc)"/><path d="M37 39v-2.98h-6.57c-.37 0-.73-.06-1.07-.17l-1.18 2.3c.63.38 1.38.85 2.17.85H37Z" fill="url(#ja4fkviuc)"/><path d="M37 40v3h-6.65A4.37 4.37 0 0 1 26 38.61v-6.38A4.23 4.23 0 0 1 30.35 28H44v3H30.43c-1.9 0-3.45 1.2-3.45 3.12v2.68c0 1.92 1.54 3.2 3.45 3.2H37Z" fill="url(#ka4fkviuc)"/><path d="M37 43v-3h-6.57c-.37 0-.73-.06-1.07-.17l-1.18 2.58a4.3 4.3 0 0 0 2.17.59H37Z" fill="url(#la4fkviuc)"/><defs><linearGradient id="aa4fkviuc" x1="28.69" y1="16.88" x2="22.88" y2="23.14" gradientUnits="userSpaceOnUse"><stop stop-color="#140E5C"/><stop offset="1" stop-color="#0350A1"/></linearGradient><linearGradient id="ba4fkviuc" x1="19" y1="29.68" x2="23.75" y2="29.68" gradientUnits="userSpaceOnUse"><stop stop-color="#192A60"/><stop offset="1" stop-color="#0153A5" stop-opacity=".5"/></linearGradient><linearGradient id="ca4fkviuc" x1="28.69" y1="21.36" x2="22.94" y2="27.61" gradientUnits="userSpaceOnUse"><stop stop-color="#140E5C"/><stop offset="1" stop-color="#0350A1"/></linearGradient><linearGradient id="da4fkviuc" x1="19.11" y1="33.47" x2="23.81" y2="33.47" gradientUnits="userSpaceOnUse"><stop stop-color="#192A60"/><stop offset="1" stop-color="#0153A5" stop-opacity=".5"/></linearGradient><linearGradient id="ea4fkviuc" x1="28.69" y1="25.86" x2="22.94" y2="32.11" gradientUnits="userSpaceOnUse"><stop stop-color="#140E5C"/><stop offset="1" stop-color="#0350A1"/></linearGradient><linearGradient id="fa4fkviuc" x1="18.94" y1="37.97" x2="23.63" y2="37.97" gradientUnits="userSpaceOnUse"><stop stop-color="#192A60"/><stop offset="1" stop-color="#0153A5" stop-opacity=".5"/></linearGradient><linearGradient id="ga4fkviuc" x1="27.31" y1="21.16" x2="33.12" y2="27.42" gradientUnits="userSpaceOnUse"><stop stop-color="#140E5C"/><stop offset="1" stop-color="#0350A1"/></linearGradient><linearGradient id="ha4fkviuc" x1="37.06" y1="33.4" x2="32.37" y2="33.4" gradientUnits="userSpaceOnUse"><stop stop-color="#192A60"/><stop offset="1" stop-color="#0153A5" stop-opacity=".5"/></linearGradient><linearGradient id="ia4fkviuc" x1="27.31" y1="25.46" x2="33.12" y2="31.72" gradientUnits="userSpaceOnUse"><stop stop-color="#140E5C"/><stop offset="1" stop-color="#0350A1"/></linearGradient><linearGradient id="ja4fkviuc" x1="37.06" y1="37.7" x2="32.37" y2="37.7" gradientUnits="userSpaceOnUse"><stop stop-color="#192A60"/><stop offset="1" stop-color="#0153A5" stop-opacity=".5"/></linearGradient><linearGradient id="ka4fkviuc" x1="27.31" y1="29.72" x2="33.12" y2="35.98" gradientUnits="userSpaceOnUse"><stop stop-color="#140E5C"/><stop offset="1" stop-color="#0350A1"/></linearGradient><linearGradient id="la4fkviuc" x1="37.06" y1="41.96" x2="32.37" y2="41.96" gradientUnits="userSpaceOnUse"><stop stop-color="#192A60"/><stop offset="1" stop-color="#0153A5" stop-opacity=".5"/></linearGradient></defs></svg>