<!-- by TradingView --><svg width="56" height="56" xmlns="http://www.w3.org/2000/svg"><path fill="#0177BF" d="M0 0h56v56H0z"/><path d="M18.415 20H21.268L22 24h-1c0-.566-.331-1.202-.739-1.644-.408-.443-1.846-.356-1.846-.356h-2.416v10.385c0 1.15.068 2.025.196 2.336.081.21.854.209 1.805.279v1.004h-7V35c.951-.07 1.739-.069 1.82-.279.128-.31.18-1.185.18-2.336V22h-2.47s-1.172.006-1.656.356c-.357.258-.751.864-.872 1.642H7L7.672 20h10.743zM26.473 20h4.069s3.51.008 3.808 0l.657 4H34c-.145-.365-.14-.317-.277-.566a3.9 3.9 0 00-.52-.723 1.861 1.861 0 00-.725-.536c-.275-.117-.944-.175-.944-.175h-3.539V26.762c0 .07.105.132.315.186.218.047.661.052.927.052L31 26.999c.71 0 1.45.068 1.709-.134.258-.202.291-.86.291-.86h1V30h-1s.063-.708-.291-.863C32.435 29.028 30.95 29 30 29c-1.16 0-2.005.148-2.005.366v5.355c.081.202.909.201 2.005.279v1.005h-7.001V35c.951-.07 1.92-.069 2.001-.279V22c-.073-.179-1.04-.682-2-.752V20h3.473zM41.873 20.14c.339 0 .693.023 1.064.07.37.047.673.093.907.14.242.046.624.125.988.248.68.23 1.168.402 1.168.402v3h-.996l-.172-.496c-.17-.389-.335-.736-.601-1.102a3.205 3.205 0 00-.98-.92 2.375 2.375 0 00-1.257-.363c-.556 0-1.04.16-1.451.479-.403.318-.543.835-.543 1.55 0 .28.019.568.18.864.161.295.343.56.544.793.21.225.5.486.87.781.372.288.67.513.896.676a59.869 59.869 0 001.439.922c.258.163.427.272.508.326.08.055.237.163.471.327.234.163.395.291.484.385.096.085.238.217.423.396.185.179.318.338.399.478.08.132.181.303.302.513.13.21.218.416.266.618.057.195.105.42.145.677.049.249.073.509.073.781 0 .824-.258 1.575-.774 2.25a4.96 4.96 0 01-1.959 1.54 6.255 6.255 0 01-2.54.525c-1.265 0-2.345-.17-4.143-.574L37 31h1c.056.334.21 1.028.419 1.44.217.412.487.817.81 1.213.33.397.733.73 1.209 1.003.484.264.607.309 1.123.309.678 0 1.163-.127 1.606-.493.443-.365.665-.937.665-1.714 0-.202-.04-.404-.121-.606a3.06 3.06 0 00-.254-.56 2.732 2.732 0 00-.447-.56c-.202-.202-.371-.365-.508-.49a5.992 5.992 0 00-.593-.478c-.266-.194-.46-.33-.58-.408-.113-.078-.31-.206-.593-.385a143.32 143.32 0 00-.483-.315c-.992-.637-1.395-1.104-1.725-1.4-.96-.831-1.463-1.803-1.528-2.915-.008-.093 0-.186 0-.28 0-.77.234-1.484.742-2.145.516-.661.91-1.17 1.7-1.528a5.73 5.73 0 012.431-.548z" fill="#F6F8FD"/></svg>