<!-- by TradingView --><svg width="56" height="56" viewBox="0 0 56 56" xmlns="http://www.w3.org/2000/svg"><path fill="#F0F3FA" d="M0 0h56v56H0z"/><path d="M44 28a16 16 0 0 1-18 15.88V30h4v9.83a12 12 0 0 0 7.73-18.85l2.15-3.7A15.94 15.94 0 0 1 44 28ZM33.93 17.56l1.97-3.48a16 16 0 0 0-20.85 23.27l2.11-4.2A12 12 0 0 1 26 16.17V27h4V16.17c1.4.23 2.73.71 3.93 1.4Z" fill="#28537F"/><path d="M28 44a16 16 0 0 0 11.88-26.72l-2.15 3.7A12 12 0 0 1 30 39.83V30h-4V43.88c.66.08 1.32.12 2 .12Z" fill="#90BB50"/></svg>