<!-- by TradingView --><svg width="56" height="56" viewBox="0 0 56 56" xmlns="http://www.w3.org/2000/svg"><path fill="#F0F3FA" d="M0 0h56v56H0z"/><path d="M31.13 14h.72c.29.03.54.04.87.1l.45.08a7.3 7.3 0 0 1 3.66 2.04A50631 50631 0 0 0 49 28.01a31869.42 31869.42 0 0 0-12.61 12.17 7.31 7.31 0 0 1-5.46 1.8 7.27 7.27 0 0 1-4.78-2.2 3949151.21 3949151.21 0 0 1-12.17-11.8A25447.93 25447.93 0 0 0 26.6 15.82 7.31 7.31 0 0 1 31.13 14Zm3.65 25.03.03-.02a7.23 7.23 0 0 0 .46-.4 44708.38 44708.38 0 0 1 10.97-10.63L35.28 17.4a5.38 5.38 0 0 0-4.68-1.44c-.1.02-.21.03-.31.06a5.44 5.44 0 0 0-2.64 1.43l-.82.8A19450.01 19450.01 0 0 1 16.73 28a47369.35 47369.35 0 0 1 11.29 10.88 5.37 5.37 0 0 0 2.73 1.18l.38.04a3.33 3.33 0 0 0 .59 0h.07a3.58 3.58 0 0 0 .73-.09c.85-.16 1.6-.49 2.26-1Z" fill="url(#a23ms0rvw)"/><path d="M9.76 27.99V28l7.8 7.54a3.7 3.7 0 0 0 4.15.7h.02l1.41 1.36v.02a5.76 5.76 0 0 1-7.16-.94A8236.48 8236.48 0 0 0 7 27.99l.01-.01.1-.1 9-8.7c.17-.16.3-.29.41-.37a5.67 5.67 0 0 1 2.86-1.23c.11 0 .23-.03.35-.03a6.52 6.52 0 0 1 1.48.08 5.59 5.59 0 0 1 1.93.76l-1.4 1.36h-.04a3.86 3.86 0 0 0-2.27-.27c-.67.13-1.27.42-1.77.88l-.4.38a58541.68 58541.68 0 0 1-7.5 7.25Z" fill="url(#b23ms0rvw)"/><path d="M40.16 27.13a589.51 589.51 0 0 1 .88.88v.01A36396.74 36396.74 0 0 1 34 34.8a4.6 4.6 0 0 1-3.68 1.01 4.64 4.64 0 0 1-2.75-1.42A4436.8 4436.8 0 0 0 21 28.02v-.04A40317.64 40317.64 0 0 0 28 21.21c.58-.48 1.25-.8 2.01-.97l.37-.06.15-.02a4.62 4.62 0 0 1 3.74 1.29l5.88 5.68Zm-11.3-3.95A569.05 569.05 0 0 1 23.89 28l.02.02 5.29 5.11a2.57 2.57 0 0 0 2.35.7c.5-.11.93-.34 1.3-.7a35635.7 35635.7 0 0 0 5.3-5.14 3738.94 3738.94 0 0 1-5.54-5.33 2.68 2.68 0 0 0-2.66-.3l-.07.02c-.19.1-.35.2-.49.31a6.4 6.4 0 0 0-.51.49Z" fill="url(#c23ms0rvw)"/><path d="m30.52 27.98-2.9-2.8c-.02-.02-.02-.03 0-.04l1.34-1.3h.03l4.3 4.14V28l-.04.04a6326 6326 0 0 0-4.3 4.12l-1.34-1.3a.02.02 0 0 1 0-.04l2.91-2.8v-.04Z" fill="url(#d23ms0rvw)"/><path d="m24.03 21.69 1.36-1.31h.02l1.32 1.28v.02l-1.35 1.3h-.02l-1.33-1.27v-.02ZM25.37 33l1.37 1.32v.02l-1.34 1.28h-.01l-1.37-1.31v-.02L25.36 33h.01Z" fill="url(#e23ms0rvw)"/><defs><linearGradient id="a23ms0rvw" x1="14.65" y1="28" x2="48.55" y2="28" gradientUnits="userSpaceOnUse"><stop stop-color="#8CC545"/><stop offset="1" stop-color="#0B6F3E"/></linearGradient><linearGradient id="b23ms0rvw" x1="7" y1="28" x2="23.15" y2="28" gradientUnits="userSpaceOnUse"><stop stop-color="#2A3384"/><stop offset=".35" stop-color="#262563"/><stop offset="1" stop-color="#269CD4"/></linearGradient><linearGradient id="c23ms0rvw" x1="22.14" y1="28" x2="40.1" y2="28" gradientUnits="userSpaceOnUse"><stop stop-color="#264783"/><stop offset=".14" stop-color="#264985"/><stop offset="1" stop-color="#269AD2"/></linearGradient><linearGradient id="d23ms0rvw" x1="27.6" y1="28" x2="33.29" y2="28" gradientUnits="userSpaceOnUse"><stop stop-color="#2B4396"/><stop offset="1" stop-color="#26A9E0"/></linearGradient><linearGradient id="e23ms0rvw" x1="24.02" y1="29.12" x2="26.74" y2="29.12" gradientUnits="userSpaceOnUse"><stop stop-color="#2A4699"/><stop offset="1" stop-color="#2887C7"/></linearGradient></defs></svg>