<!-- by TradingView --><svg xmlns="http://www.w3.org/2000/svg" width="56" height="56"><path fill="#F0F3FA" d="M0 0h56v56H0z"/><path fill-rule="evenodd" d="M19 13.36l3 1.7v3.39l-3 1.7-3-1.7v-3.4l3-1.7zM15.5 31.5l4.5 2.62v5.25L15.5 42 11 39.37v-5.25l4.5-2.62zm2.5-7.01l4.5-2.56L27 24.5v5.06l-4.5 2.55-4.5-2.55V24.5zm4.5-4.86l6.5 3.7v7.38l-6.5 3.7-6.5-3.7v-7.39l6.5-3.69z" fill="#9C3"/><path d="M38 23h-7v1.5h2.75V31h1.5v-6.5H38V23zm4.95 0c1.33.01 2.65.6 3.05.88v1.48c-.55-.36-1.7-1-3.05-1-1.01 0-2.95.43-2.95 2.67 0 2.23 2.17 2.56 2.95 2.56a3 3 0 001.52-.37V28H42v-1.5h4v3.6a5.9 5.9 0 01-3.05.9c-1.48 0-4.49-.76-4.45-3.97.04-3.22 2.8-4.05 4.45-4.03z" fill="#003494"/></svg>