<!-- by TradingView --><svg width="56" height="56" viewBox="0 0 56 56" xmlns="http://www.w3.org/2000/svg"><path fill="#F0F3FA" d="M0 0h56v56H0z"/><path d="M23.56 14.52c1.27 0 2.93-.79 4.44-4.52 1.5 3.73 3.17 4.52 4.44 4.52 1.02 0 2.27-.33 2.56-.52l-1 11c.82-1.08 2.37-3.36 3-4 .56 1.98 2.18 3 3.6 3 1.15 0 3.58-.6 4.4-1-.4.5-2 1.86-2 3.83s2.1 3.2 3 3.57l-10 7.94L39 41h-6v2.58c-2.8-.7-4.34.68-5 1.42a4.73 4.73 0 0 0-5-1.42V41h-6l3-2.66-10-7.94c.9-.37 3-1.6 3-3.57 0-1.97-1.6-3.33-2-3.83.82.4 3.25 1 4.4 1 1.42 0 3.04-1.02 3.6-3 .63.64 2.18 2.92 3 4l-1-11c.3.19 1.54.52 2.56.52Z" fill="#D00A2D"/><path d="m19.35 36.27 1.82-7.09c.06-.21-.16-.4-.4-.34l-2.9.86a.33.33 0 0 1-.35-.1l-.46-.58c-.13-.16-.04-.39.17-.44L27.16 26c.13-.03.26 0 .33.1l.44.52c.14.16.06.4-.16.45l-4.58 1.2a.3.3 0 0 0-.22.22l-1.9 8.27c-.04.17-.24.27-.41.21l-1.12-.37c-.15-.05-.23-.2-.2-.34Z" fill="#fff"/><circle cx="25" cy="30" r="1" fill="#fff"/><path d="M23 35.7c0-.67.6-3.08.91-4.2.17-.23.6 0 .98.1.37.09.4.38.4.64-.27.65-.67 2.56-.67 2.85 0 .3 0 .61.17.61.87 0 2.42-4.7 2.56-4.7.15 0 .97.14 1.17.24.17.07.16.35.14.48L28.24 34c.6-.9 1.78-2.73 1.97-2.96.23-.29.8-.2 1.04-.1s.47.26.4.56l-.5 2.2c.6-.91 1.84-2.77 2.06-2.98.27-.26.57-.23.87-.1.3.13.57.42.5.71-.7 1.65-.7 2.95-.4 2.95.3 0 1.01-1.26 1.62-2.56A9.34 9.34 0 0 1 37.85 29c.14-.03.75.39.78.55.03.16-.78.68-.78 1.17 0 .71 1.15 1.03 1.15 2.3 0 1.26-1.38 1.98-1.92 1.98s-1.28-.46-1.28-.81c0-.36.17-.69.6-.91.04.45.34.72.68.72s.54-.24.54-.5-.2-.71-.54-1c-.34-.3-.44-.68-.44-.9-1.48 3.49-2.46 3.78-3.16 3.78-.71 0-1.01-.58-1.01-1.33 0-.6.15-1.37.23-1.68-.63 1.08-1.9 3.26-1.99 3.33-.1.1-.7-.12-1.04-.32-.27-.15 0-1.92.17-2.78a96.28 96.28 0 0 0-2.2 3.69c-.03.16-.46.06-.9-.16-.44-.23-.27-.62-.14-1.72-.87 2.1-1.92 2.59-2.52 2.59-.6 0-1.08-.45-1.08-1.3Z" fill="#fff"/></svg>