<!-- by TradingView --><svg width="56" height="56" viewBox="0 0 56 56" xmlns="http://www.w3.org/2000/svg"><path fill="#F0F3FA" d="M0 0h56v56H0z"/><path d="M27.85 46.67c-7.23-3.21-11.47-9.37-12.68-12.05a44.07 44.07 0 0 1-1.83-6.56c0-7.18 1.53-12.6 2.3-14.4a24.6 24.6 0 0 0 6.57 1.1 7.34 7.34 0 0 0 4.9-1.72l.96-.7c1.21.8 4.24 2.41 6.64 2.41 2.4 0 4.91-.56 5.86-.84.7 1.4 2.11 5.9 2.11 12.73 0 8.53-6.36 15.03-8.54 16.52a63.93 63.93 0 0 1-6.29 3.5Z" fill="#FCF004"/><path d="M27.11 12.46a9.86 9.86 0 0 1-5.24 1.72c-1.6.09-3.26-.18-5.4-.89a8.4 8.4 0 0 0-.61-.18c-.42-.08-.62.05-.83.55-.12.28-.57 1.67-.72 2.23A37.21 37.21 0 0 0 13 25.93c0 2.68.48 5.2 1.48 7.74.65 1.7 1.35 3.02 2.31 4.4 2.69 3.84 5.76 6.11 9.74 8.3l1.13.63h.21c.2 0 .22 0 .27-.05.02-.03.19-.12.4-.2a33.82 33.82 0 0 0 3.93-2.05 22.98 22.98 0 0 0 9.1-11.16A21.23 21.23 0 0 0 42.92 24a66.15 66.15 0 0 0-.5-4.38 28.25 28.25 0 0 0-1.68-6.13c-.15-.17-.28-.16-1.34.12-3.86 1.04-7.58 1.08-10.97-1.45-.5-.37-.85-.03-1.33.3Zm1.65.75c3.24 2.23 7.08 2.24 10.71 1.15.41-.12.63-.15.74-.1.09.05.17.22.32.7 1.08 3.23 1.47 6.6 1.8 9.97.83 8.34-4.98 16.41-11.85 20.23-.96.54-2.26 1.17-2.48 1.21-.2.04-.28.01-1.06-.39a25.18 25.18 0 0 1-9.65-8.32 18.7 18.7 0 0 1-2.91-6.17 25.97 25.97 0 0 1-.75-5.75c-.15-3.05.68-6.51 1.5-9.35.26-.89.6-1.9.7-2.05.08-.12.2-.17.36-.16.06 0 .4.08.73.16 1.5.35 2.36.51 3.42.63a16 16 0 0 0 2.27 0 11.1 11.1 0 0 0 4.96-1.85c.5-.34.7-.25 1.2.1Zm-1.36.88a9.5 9.5 0 0 1-2.8 1.38 12.1 12.1 0 0 1-7.3-.17c-.4-.13-.45-.14-.58-.13-.16 0-.25.06-.34.2-1.54 2.34-1.77 7.05-1.81 9.82a21.7 21.7 0 0 0 1.59 8.22c2 5.16 5.97 8.83 10.7 11.31.74.4.9.46 1.12.46.19 0 .23-.02 1.07-.44 1.34-.69 2.3-1.24 3.25-1.88 7.03-4.79 10.04-13.27 8.77-21.51a38.5 38.5 0 0 0-1.11-5.2c-.16-.52-.23-.68-.32-.76-.1-.1-.24-.08-.85.06-3.5.85-7.01.74-10.1-1.38-.59-.4-.74-.37-1.29.02Zm10.68 5.7c.2.12.25.3.25.84 0 .33 0 .37.1.47.1.12.21.13.48.07.4-.1.63-.01.72.28.05.17.03.3-.07.71-.16.7-.22.84-.34.96-.1.1-.22.15-.48.2-.6.1-.99.26-1.38.59-.5.4-.82.96-1.14 1.95l-.34.97c-.28.77-.4 1.12-.5 1.54-.08.28-.08.33-.06.37.07.15.25.19.38.08.04-.04.28-.4.68-1.02.72-1.15.8-1.26.87-1.3.09-.06.16-.05.23.02.05.06.06.08.05.16-.01.13-.47 1.44-.67 1.91a4.9 4.9 0 0 1-1.01 1.6c-.36.34-.68.35-1 .02a2.55 2.55 0 0 1-.58-1.06 3.24 3.24 0 0 1 .08-1.63c.2-.8.46-1.56.78-2.31.21-.49.23-.56.12-.65-.06-.05-.1-.07-.33-.11-.23-.05-.38-.23-.43-.51-.04-.2-.01-.6.04-.78.09-.28.28-.53.53-.7.14-.1.56-.27.89-.38.53-.17.7-.36.98-1.12.2-.5.36-.78.62-1.03.22-.2.34-.24.53-.13Zm-10.63 1.78c.23.06.4.2.49.37.25.52-.17 1.09-.54 1.4a6.37 6.37 0 0 0-2.07 2.95c-.16.49-.09.65.32.73.09.01.2.05.23.07.19.12.26.63.15 1.06-.05.18-.19.42-.34.57a1 1 0 0 1-.34.25c-.1.05-.26.1-.34.13-.24.06-.47.18-.61.33-.16.16-.23.3-.39.75a8.94 8.94 0 0 1-1.7 3.15 2.73 2.73 0 0 1-2.08 1.03c-.83 0-1.57-.67-1.76-1.59a2.7 2.7 0 0 1-.01-.79c.06-.63.18-.98.45-1.33.16-.2.23-.24.33-.2.07.03.08.06.16.48.13.67.24.97.44 1.16.17.15.3.2.63.2.24.01.31 0 .45-.03.47-.12.72-.36 1.14-1.1.15-.27.32-.66.44-.97.09-.25.09-.33 0-.4-.05-.04-.08-.04-.54-.04s-.5 0-.57-.05c-.22-.11-.32-.33-.34-.68-.02-.44.12-.63.59-.84.23-.1.86-.32 1.23-.43.33-.1.48-.17.6-.3.14-.13.18-.22.3-.6.09-.3.45-1.37.52-1.53.05-.12.04-.2-.03-.27-.05-.06-.07-.07-.15-.07-.1 0-1.83.63-3.12 1.13-.6.23-.94.3-1.28.24a1.52 1.52 0 0 1-1-.78 2.18 2.18 0 0 1-.2-1.54c.05-.24.17-.6.24-.73a.6.6 0 0 1 .31-.26c.13-.04.19 0 .3.2.15.23.25.35.42.47.2.15.37.2.62.18.11 0 .23-.02.3-.05.17-.06.73-.3 2.02-.9a21.4 21.4 0 0 1 2.25-.94c.68-.24 1.52-.44 1.91-.47.2-.02.44 0 .57.04Zm6.85 4.11c0 .17-.02.3-.15.95l-.53 2.67c-.16.82-.4 1.37-.77 1.76-.24.23-.47.33-.73.3a1.46 1.46 0 0 1-.5-.23.78.78 0 0 0-.41-.16c-.14 0-.27.06-.47.23-.5.43-.73.55-1 .53-.3-.03-.46-.22-.61-.7a1.26 1.26 0 0 1-.01-.88c.08-.26.1-.55.05-.64l-.03-.06-.08.1c-.1.1-.14.17-.24.44a9.1 9.1 0 0 1-.9 1.69c-.35.55-.51.7-.81.75a.48.48 0 0 1-.26-.01c-.25-.07-.44-.25-.6-.58a1.6 1.6 0 0 1-.17-.75 11.57 11.57 0 0 1 .87-2.9c.17-.34.24-.45.36-.52.16-.11.4-.07.49.1.1.2.02.6-.34 1.63a38.6 38.6 0 0 0-.4 1.18c-.09.25-.04.4.16.47.12.05.22.02.32-.1.18-.2.65-1.15 1.17-2.34.2-.45.29-.79.32-1.22.03-.26.1-.43.26-.6.18-.2.34-.25.54-.15.11.05.5.38.71.61.3.33.32.52.07 1.32-.14.45-.3 1.15-.3 1.3 0 .1.12.19.2.14.06-.03.44-.47.68-.77.57-.72.93-1.38 1.6-2.87.35-.79.54-1.17.59-1.23.36-.43.92.12.92.54Zm-5.83.27c.14.09.14.3.01.56-.1.2-.23.37-.36.44-.1.07-.13.07-.23.02-.3-.16-.32-.52-.05-.81.21-.24.47-.32.63-.21Zm4.12 2.5c-.1.05-.45.63-.64 1.04-.23.5-.26.63-.18.8.08.16.29.28.43.26.07-.02.15-.1.2-.2.05-.1.18-.49.22-.68.05-.2.19-1.03.19-1.12 0-.1-.12-.16-.22-.1Zm3.15 4.2c.25.05.4.16.5.38.14.33.01.76-.29.9-.18.1-.92.28-2.5.6-1.78.37-2.03.43-3.55.88a46.82 46.82 0 0 0-7.37 2.61c-.9.44-.95.45-1.17.45-.18 0-.33-.08-.52-.29a2.2 2.2 0 0 1-.42-.61 1.3 1.3 0 0 1-.14-.67c0-.23 0-.25.05-.34.06-.1.12-.15.24-.22a110.13 110.13 0 0 1 7.54-2.37 35.42 35.42 0 0 1 7.14-1.32c.16-.02.37-.01.5 0Z"/><path d="M27.4 14.1a9.5 9.5 0 0 1-2.8 1.37 12.1 12.1 0 0 1-7.3-.17c-.4-.13-.45-.14-.58-.13-.16 0-.25.06-.34.2-1.54 2.34-1.77 7.05-1.81 9.82a21.7 21.7 0 0 0 1.59 8.22c2 5.16 5.97 8.83 10.7 11.31.74.4.9.46 1.12.46.19 0 .23-.02 1.07-.44 1.34-.69 2.3-1.24 3.25-1.88 7.03-4.79 10.04-13.27 8.77-21.51a38.5 38.5 0 0 0-1.11-5.2c-.16-.52-.23-.68-.32-.76-.1-.1-.24-.08-.85.06-3.5.85-7.01.74-10.1-1.38-.59-.4-.74-.37-1.29.02Zm10.68 5.7c.2.1.25.28.25.83 0 .33 0 .37.1.47.1.12.21.13.48.07.4-.1.63-.01.72.28.05.17.04.3-.07.71-.16.7-.22.84-.34.96-.1.1-.22.15-.48.2-.6.1-.99.26-1.38.59-.5.4-.82.96-1.14 1.95l-.34.97c-.28.77-.4 1.12-.5 1.54-.08.28-.08.33-.06.37.07.15.25.19.38.08.04-.04.28-.4.68-1.02.72-1.15.8-1.26.87-1.3.09-.06.16-.05.23.02.06.06.06.08.05.16-.01.13-.47 1.44-.67 1.91a4.9 4.9 0 0 1-1.01 1.6c-.36.34-.68.35-1 .02a2.55 2.55 0 0 1-.58-1.06 3.24 3.24 0 0 1 .08-1.63c.2-.8.46-1.56.78-2.31.21-.49.23-.56.12-.65-.06-.05-.1-.07-.33-.11-.23-.05-.38-.23-.43-.51-.04-.2-.01-.6.04-.78.09-.28.28-.53.53-.7.14-.1.56-.27.89-.38.53-.17.7-.36.98-1.12.2-.5.36-.78.62-1.03.22-.2.34-.24.53-.13Zm-10.63 1.77c.23.06.4.2.49.37.25.52-.17 1.09-.54 1.4a6.37 6.37 0 0 0-2.07 2.95c-.16.49-.09.65.32.73.09.01.2.05.23.07.19.12.26.63.15 1.06-.05.18-.19.42-.34.57a1 1 0 0 1-.34.25c-.1.05-.26.1-.34.13-.24.06-.47.18-.61.33-.16.16-.23.3-.39.75a8.95 8.95 0 0 1-1.7 3.15 2.73 2.73 0 0 1-2.08 1.03c-.83 0-1.57-.67-1.76-1.59a2.7 2.7 0 0 1-.01-.79c.06-.63.18-.98.45-1.33.16-.2.23-.24.33-.2.07.03.08.06.16.48.13.67.24.97.44 1.16.17.15.3.2.63.2.24.01.31 0 .45-.03.47-.12.72-.36 1.14-1.1.15-.27.32-.66.44-.97.09-.25.09-.33 0-.4-.05-.04-.08-.04-.54-.04s-.5 0-.57-.05c-.22-.11-.32-.33-.34-.68-.02-.44.12-.63.59-.84.23-.1.86-.32 1.23-.43.33-.1.48-.17.6-.3.14-.13.18-.22.3-.6l.52-1.53c.05-.12.04-.2-.03-.27-.05-.06-.07-.07-.15-.07-.1 0-1.83.63-3.12 1.13-.6.23-.94.3-1.28.24a1.52 1.52 0 0 1-1-.78 2.18 2.18 0 0 1-.2-1.54c.05-.24.17-.6.24-.73a.6.6 0 0 1 .31-.26c.13-.04.19 0 .3.2.15.23.25.35.42.47.2.15.37.2.62.18.11 0 .23-.02.3-.05.17-.06.73-.3 2.02-.9a21.4 21.4 0 0 1 2.25-.94c.68-.24 1.52-.44 1.92-.47.18-.02.43 0 .56.04Zm6.85 4.11c0 .17-.02.3-.15.95l-.53 2.67c-.16.82-.4 1.37-.77 1.76-.24.23-.47.33-.73.3a1.46 1.46 0 0 1-.5-.23.78.78 0 0 0-.41-.16c-.14 0-.27.06-.47.23-.5.43-.73.55-1 .53-.3-.03-.46-.22-.61-.7a1.26 1.26 0 0 1-.01-.88c.08-.26.1-.55.05-.64l-.03-.06-.08.1c-.1.1-.14.17-.24.44a9.1 9.1 0 0 1-.9 1.69c-.35.55-.51.7-.81.75a.48.48 0 0 1-.26-.01c-.25-.07-.44-.25-.6-.58a1.6 1.6 0 0 1-.17-.75 11.57 11.57 0 0 1 .87-2.9c.17-.34.24-.45.36-.52.16-.11.4-.07.49.1.1.2.02.6-.34 1.63a38.38 38.38 0 0 0-.4 1.18c-.09.25-.04.4.16.47.12.05.22.02.32-.1.18-.2.65-1.15 1.17-2.34.2-.45.29-.79.32-1.22.03-.26.1-.43.26-.6.18-.2.34-.25.54-.15.11.05.5.38.71.61.3.33.32.52.07 1.32-.14.45-.3 1.15-.3 1.3 0 .1.12.19.2.14.06-.03.44-.47.68-.77.57-.72.93-1.38 1.6-2.87.35-.79.54-1.17.59-1.23.36-.43.92.12.92.54Zm-5.83.27c.14.09.14.3.01.56-.1.2-.23.37-.36.44-.1.07-.13.07-.23.02-.3-.16-.32-.52-.05-.81.21-.24.47-.32.63-.21Zm4.12 2.5c-.1.05-.45.63-.64 1.04-.23.5-.26.63-.17.8.07.16.28.28.42.26.07-.02.15-.1.2-.2.05-.1.18-.49.22-.68.05-.2.19-1.03.19-1.12 0-.1-.12-.16-.22-.1Zm3.15 4.2c.25.05.4.16.5.38.14.33.01.76-.29.9-.18.1-.92.28-2.5.6-1.78.37-2.03.43-3.55.88a46.83 46.83 0 0 0-7.37 2.61c-.9.44-.95.45-1.17.45-.18 0-.33-.08-.52-.29a2.2 2.2 0 0 1-.42-.61 1.3 1.3 0 0 1-.14-.67c0-.23 0-.25.05-.34.06-.1.12-.15.24-.22a110.2 110.2 0 0 1 7.54-2.37 35.43 35.43 0 0 1 7.14-1.32c.16-.02.37-.01.5 0Z" fill="url(#ajsf0pag5)"/><defs><linearGradient id="ajsf0pag5" x1="14.56" y1="26.25" x2="39.82" y2="33.94" gradientUnits="userSpaceOnUse"><stop offset=".01" stop-color="#4D4D4D"/><stop offset=".51"/><stop offset="1" stop-color="#4C4C4C"/></linearGradient></defs></svg>