<!-- by TradingView --><svg width="56" height="56" xmlns="http://www.w3.org/2000/svg"><path fill="#F0F3FA" d="M0 0h56v56H0z"/><path d="M43.334 26.04c-.28-3.785-3.932-8.52-5.959-9.866 1.73.732 5.646 3.701 6.486 9.867.87 6.383-2.54 10.732-4.46 12.263 3.77-4.274 4.297-7.31 3.933-12.264z" fill="#D27A42"/><path d="M41.834 27.878c-.551-5.145-3.527-9.813-4.945-11.504 4.02 3.068 5.54 8.948 5.796 11.504.519 7.734-5.053 12.17-7.904 13.422 4.053-2.516 7.742-6.99 7.053-13.422z" fill="#DE7C33"/><path d="M39.443 28.757c.227-5.496-2.743-10.306-4.257-12.024 1.743.773 5.294 4.259 5.554 12.024C41 36.523 35.82 40.621 33.2 41.7c3.851-3.036 5.959-6.072 6.243-12.943z" fill="#F17F26"/><path d="M35.22 20.29c-.697-1.751-.71-3.095-.63-3.549 2.808 4.022 3.279 10.123 3.163 12.671-.085 8.97-4.824 12.05-7.183 12.468 8.009-4.965 5.52-19.402 4.65-21.59z" fill="#F68E21"/><path d="M29.79 40.633c4.433-9.097 3.253-19.712 2.109-23.883 1.042.809 3.012 4.38 2.556 12.2-.456 7.818-3.363 11.955-4.76 13.046-.49-.038-.141-.924.095-1.363z" fill="#EA7826"/><path d="M29.938 20.691c.183-2.949.916-3.912 1.26-4.025-.154.723 0 1.522 0 2.07.228 7.108-1.26 16.474-2.215 19.559-.763 2.467-2.099 3.335-2.672 3.46 1.336-.902 3.398-17.378 3.627-21.064z" fill="#DB4A2D"/><path d="M27.462 18.628c.608-1.388.668-2.211.622-2.45.663.627.552 2.144.414 2.825-.219.975-.932 4.491-2.037 10.752-1.105 6.261-1.197 10.48-1.105 11.807-1.326-.762-1.565-2.88-1.52-3.845-.137-5.92 2.867-17.353 3.626-19.089z" fill="#C01D41"/><path d="M21.35 26.898c2.229-8.276 4.974-10.695 6.068-10.871-5.381 8.689-5.819 18.719-5.305 21.849.413 2.518.086 3.065 0 2.977-1.183-1.204-2.497-7.518-.763-13.955z" fill="#8C2361"/><path d="M18.084 26.664c1.441-5.575 5.08-9.825 6.72-11.253 0 .799-.779 1.967-1.168 2.451-2.237 3.023-3.667 7.128-4.102 8.802-2.178 7.376.088 12.25 1.493 13.764-3.118-1.861-4.743-6.795-2.943-13.764z" fill="#6C2A6A"/><path d="M15.291 25.724c2.689-7.914 7.095-10.363 8.962-10.599-2.528 1.394-5.252 4.324-7.728 10.39-2.235 5.474.544 11.97 2.261 14.119-4.947-4.734-4.391-11.246-3.495-13.91z" fill="#682672"/><path d="M13.678 24.179c2.365-5.935 7.067-9.089 9.122-9.924-5.5 4.073-7.776 8.49-8.226 10.189-2.617 7.489 1.09 12.894 3.27 14.66-1.344-.927-7.124-7.507-4.167-14.925z" fill="#493172"/><path d="M13.65 33.874C8.321 22.447 17.144 15.418 22.49 14c-11.592 5.877-10.942 15.1-8.84 19.874.162.348.337.7.526 1.057a11.92 11.92 0 01-.527-1.057z" fill="#323262"/></svg>