<!-- by TradingView --><svg width="56" height="56" xmlns="http://www.w3.org/2000/svg"><path fill="#00377B" d="M0 0h56v56H0z"/><path d="M29.435 10.346c-1.538 1.396-2.925 2.563-3.076 2.563-.15 0-1.568-.634-3.136-1.396-1.538-.761-2.835-1.294-2.835-1.193 0 .076.573 1.574 1.266 3.275l1.297 3.096-2.533 2.158c-1.418 1.193-2.503 2.208-2.413 2.26.06.05 1.146 0 2.383-.103 1.236-.101 2.744-.203 3.317-.203l1.056-.025 1.658 5.737c1.9 6.6 1.75 6.65 2.594-.863.301-2.666.633-5 .724-5.128.12-.152 2.02-.457 4.222-.71L38 19.382l-.875-.533c-.512-.28-2.11-1.142-3.558-1.878s-2.684-1.422-2.745-1.498c-.09-.076.272-1.751.754-3.68.483-1.955.845-3.656.785-3.783-.03-.126-1.358.914-2.926 2.336zm-3.511 23.876c-1.367.542-3.04 2.073-3.747 3.415-.33.66-.518 1.531-.589 2.85-.094 1.72 0 2.015.542 3.368C23.356 46.54 25.618 48 28.61 48c2.145 0 3.63-.612 5.114-2.049 1.414-1.39 2.05-2.968 2.05-5.134 0-2.78-1.272-4.946-3.652-6.241-1.697-.919-4.43-1.084-6.198-.354z" fill="#fff"/></svg>