<!-- by TradingView --><svg width="56" height="56" fill="none" xmlns="http://www.w3.org/2000/svg"><path d="M0 0h56v56H0V0z" fill="#F4D923"/><path fill-rule="evenodd" clip-rule="evenodd" d="M27.887 44H28a15.802 15.802 0 006.078-1.177 15.85 15.85 0 005.166-3.423 16.017 16.017 0 004.429-8.175c.636-3.106.34-6.33-.853-9.267a15.987 15.987 0 00-5.846-7.222A15.898 15.898 0 0028.113 12H28a15.802 15.802 0 00-6.078 1.177 15.85 15.85 0 00-5.166 3.423 16.017 16.017 0 00-4.429 8.175c-.636 3.106-.34 6.33.853 9.267a15.987 15.987 0 005.846 7.222A15.897 15.897 0 0027.887 44zm-5.584-29.817A14.83 14.83 0 0128 13.067h.106a14.85 14.85 0 0110.505 4.411 14.962 14.962 0 014.32 10.575 14.961 14.961 0 01-4.395 10.544A14.85 14.85 0 0128 42.933h-.106a14.85 14.85 0 01-10.505-4.411 14.948 14.948 0 01-3.907-7.027c.216.849.504 1.68.86 2.483a15.88 15.88 0 011.388-3.581c.693.239 1.404.419 2.127.538.134 2.346.43 4.679.881 6.982h-.376a13.712 13.712 0 01-1.582-.086c.35.412.725.803 1.122 1.169h.46c.868-.003 1.735-.07 2.594-.2 5.025-.757 9.11-2.657 12.144-5.633 2.685-2.657 4.539-6.085 5.771-10.523a3.761 3.761 0 00-.327-2.772 3.61 3.61 0 00-2.13-1.74 3.41 3.41 0 00-.96-.132c-.785 0-1.549.265-2.174.752a3.691 3.691 0 00-1.289 1.945 12.78 12.78 0 01-4.102 6.443 12.279 12.279 0 01-6.972 2.851c-.146 0-.294.009-.441.017a7.882 7.882 0 01-.44.017 12.17 12.17 0 01-6.966-2.19 14.961 14.961 0 014.394-10.432 14.875 14.875 0 014.839-3.22zm2.18 17.343a21.445 21.445 0 012.347 4.544v.014a18.4 18.4 0 003.696-2.113 48.202 48.202 0 00-4.383-4.385c-1.6.855-3.35 1.37-5.148 1.515a23.572 23.572 0 00-.227 6.643h.078a27.15 27.15 0 003.67-.817 53.254 53.254 0 00-1.005-4.736c-.234-.937.427-1.389.972-.665zm7.314 1.429c2.853-2.552 4.876-6.066 6.095-10.584a2.66 2.66 0 00-.25-1.974 2.58 2.58 0 00-.651-.765 2.511 2.511 0 00-.889-.45 2.33 2.33 0 00-.648-.1 2.497 2.497 0 00-1.532.534c-.44.344-.759.827-.906 1.374a13.94 13.94 0 01-1.478 3.487c.995.723 1.94 1.515 2.827 2.372.83.804.136 1.282-.305 1.03a45.186 45.186 0 00-3.586-1.86 14.326 14.326 0 01-1.776 1.847 41.913 41.913 0 013.099 5.089z" fill="#040000"/></svg>