<!-- by TradingView --><svg width="56" height="56" viewBox="0 0 56 56" xmlns="http://www.w3.org/2000/svg"><path fill="#F0F3FA" d="M0 0h56v56H0z"/><path d="M33.85 18.3c.08.64.64 1.1 1.26 1.03a1.15 1.15 0 0 0 .99-1.3 1.15 1.15 0 0 0-1.26-1.02c-.62.07-1.06.65-.99 1.29ZM37.98 19.92a1.2 1.2 0 0 0 1.3 1.07 1.2 1.2 0 0 0 1.03-1.34 1.2 1.2 0 0 0-1.3-1.07 1.2 1.2 0 0 0-1.03 1.34ZM29.5 19.73c.06.57.56.98 1.12.92.56-.07.96-.59.89-1.16a1.03 1.03 0 0 0-1.13-.93c-.56.07-.96.59-.89 1.17ZM40.77 24.27c.14.7.8 1.16 1.48 1.02.68-.14 1.12-.82.98-1.52-.14-.7-.8-1.15-1.48-1.01-.68.13-1.12.81-.98 1.51ZM27.5 24.46c.46 0 .83-.37.83-.82a.82.82 0 0 0-.83-.81.82.82 0 0 0-.82.82c0 .45.37.82.82.81ZM30.98 23h-.96c-.01 0-.02 0-.02.02v10.96c0 .01 0 .02.02.02h.96l.02-.02V23.02c0-.01 0-.02-.02-.02ZM22.97 27h-1.31l-.02-.01-.01-.01V26h.01l.01-.01h1.31l.02-.01.02-.01V23h.99v.01l.01.01v2.96l.02.01h1.53l.02.01V26.95l-.01.05H24v.02L24 33.98l-.03.02H23v-6.98l-.02-.02h-.01ZM4.98 23h-.96c-.01 0-.02 0-.02.02v10.96s0 .02.02.02h.96l.02-.02V23.02c0-.01 0-.02-.02-.02ZM8 27.53c-.02.02 0 .02 0 0 .2-.26.48-.49.72-.69a3.5 3.5 0 0 1 2.87-.8c.32.05.63.16.95.35a2.7 2.7 0 0 1 1.32 1.93 6.05 6.05 0 0 1 .12 1.22l.02.49a1450.94 1450.94 0 0 1-.01 3.97H13v-3.9c0-.76-.02-1.7-.45-2.36-.4-.64-1.1-.86-1.86-.82-.52.02-.99.19-1.4.5C8.25 28.18 8 29.4 8 30.6V34h-.99L7 33.97V26c-.02 0 0-.02 0 0h1c0-.02.02 0 0 0v1.53ZM17.36 27.09c-.43.29-.63.75-.42 1.24.14.33.4.55.7.75l.48.28c.5.26.97.5 1.4.87.38.32.64.76.7 1.25a2.2 2.2 0 0 1-1.55 2.4c-.49.15-1 .16-1.53.02a2.92 2.92 0 0 1-1.52-.93l.01-.04.6-.66a.02.02 0 0 1 .02 0c.45.5 1.04.88 1.73.83.82-.06 1.54-.83 1.24-1.67a1.28 1.28 0 0 0-.48-.6 4.57 4.57 0 0 0-.5-.32c-.5-.28-1.04-.53-1.52-.91a1.97 1.97 0 0 1-.75-1.84c.04-.4.2-.76.46-1.05.38-.43.87-.67 1.46-.7.33-.03.64.01.93.1.52.17.98.5 1.39.86.01.01.02.03 0 .04l-.6.6c-.02.03-.04.03-.06 0a2.94 2.94 0 0 0-.85-.58c-.42-.18-.96-.21-1.34.06ZM27.98 26h-.96a.02.02 0 0 0-.02.02v7.96l.02.02h.96l.02-.02v-7.96a.02.02 0 0 0-.02-.02Z" fill="#0F75BB"/><path d="M42.98 26h-1.96c-.01 0-.02 0-.02.02v7.96c0 .01 0 .02.02.02h1.96c.01 0 .02 0 .02-.02v-7.96c0-.01 0-.02-.02-.02Z" fill="#243F75"/><path fill-rule="evenodd" d="M45.08 32.75c.62.66 1.4 1.1 2.3 1.2a4.1 4.1 0 0 0 3.27-.94 3.99 3.99 0 0 0-.79-6.54c-.77-.4-1.6-.55-2.48-.43a3.7 3.7 0 0 0-1.6.62 3.93 3.93 0 0 0-1.74 3.93c.1.82.45 1.54 1.04 2.16Zm2.57-4.96c-.72.1-1.31.61-1.58 1.28-.1.24-.15.52-.16.82-.03.88.3 1.67 1.1 2.11a1.85 1.85 0 0 0 1 .22l.28-.01c.88-.13 1.54-.8 1.71-1.66.09-.39.08-.78 0-1.18a2 2 0 0 0-1.8-1.6c-.2 0-.39 0-.55.02ZM37.74 27.98c.39.19.78.46 1.07.78.39.44.62.96.7 1.56.1.93-.1 1.75-.62 2.45-.44.6-1.04.98-1.77 1.13a4.98 4.98 0 0 1-1.18.1h-2.9c-.03 0-.04-.02-.04-.05V23.01c.76-.02 1.51-.01 2.27 0 .3.01.65.04 1.04.1 1.3.18 2.4 1.14 2.46 2.57.02.43-.03.83-.2 1.22-.18.42-.48.76-.83 1.03-.02.02-.02.04 0 .05ZM35 25.01l.01-.01h.7c.3 0 .6.11.8.31.22.2.34.47.34.76v.14c0 .29-.12.56-.33.76-.22.2-.5.31-.81.31H35l-.01-.01v-2.26Zm2.58 5.58a1.31 1.31 0 0 0-.83-1.17 4.04 4.04 0 0 0-1.04-.2 23.59 23.59 0 0 0-.71 0v2.72c0 .03.02.05.04.04h.71c.24 0 .47-.03.7-.07.17-.03.33-.07.48-.13.38-.16.64-.51.65-.95v-.24Z" fill="#243F75"/></svg>