<!-- by TradingView --><svg width="56" height="56" viewBox="0 0 56 56" xmlns="http://www.w3.org/2000/svg"><path d="M0 28a28 28 0 1 1 56 0 28 28 0 1 1-56 0Z" fill="#037C9B"/><path d="M4 32h2v-9H4v9Zm39.3-1.39c-.83 0-1.3-.74-1.3-2.14 0-1.34.22-2.12 1.31-2.12.58 0 .94.46 1.07.84l1.27-.63C45.27 25.5 44.3 25 43.09 25 41.4 25 40 26.23 40 28.42 40 30.6 41.02 32 43.1 32c1.07 0 2.17-.4 2.61-1.43l-1.17-.75c-.2.5-.62.8-1.24.8Zm-7.27-.08c.57 0 .97-.32.97-.94v-.97l-.11.01c-.75.1-1.58.2-1.58 1.17 0 .48.24.73.72.73Zm-2.32-4.6c.65-.65 1.7-.93 2.6-.93 1.22 0 2.67.33 2.69 1.84V32h-1.76l-.05-.8c-.55.51-1.1.8-1.88.8-1.18 0-1.92-.82-1.92-1.96 0-2 1.72-2.22 3.26-2.42l.35-.05v-.6c0-.54-.43-.64-.85-.64a2.17 2.17 0 0 0-1.7.71l-.74-1.1ZM30 24.8v.84h-.6V27h.6v5h2v-5h1.04v-1.36H32v-.56c0-.61.13-.9.72-.9.19 0 .38.03.56.08v-1.15a3.8 3.8 0 0 0-1-.1c-1.13 0-2.28.5-2.28 1.79Zm-3.15.2.08 1.16A2.12 2.12 0 0 1 29 25v1.83a1.7 1.7 0 0 0-.57-.1c-.86 0-1.43.6-1.43 1.44V32h-2v-7h1.85ZM20 28v-.04c.03-.79.06-1.66 1-1.66.96 0 1 1 1 1.7h-2Zm1-3c-2.1 0-3 1.42-3 3.47 0 1.88 1.11 3.53 3.06 3.53a3.5 3.5 0 0 0 2.76-1.08l-.88-1.1c-.4.5-.94.81-1.55.79-.98 0-1.39-.64-1.39-1.61h3.97c.03-.17.04-.31.03-.48-.01-1.9-.72-3.52-3-3.52Zm27 2.96V28h2c0-.7-.04-1.7-1-1.7-.94 0-.97.87-1 1.66Zm-2 .51c0-2.05.9-3.47 3-3.47 2.28 0 2.99 1.63 3 3.52 0 .17 0 .3-.03.48H48c0 .97.4 1.6 1.39 1.6a1.9 1.9 0 0 0 1.55-.77l.88 1.1A3.5 3.5 0 0 1 49.06 32C47.11 32 46 30.34 46 28.47Zm-30 1.27V27h1.38v-1.47H16V24h-1c-.23.84-.66 1.53-1.54 1.79V27H14v3.18C14 31.4 15.18 32 16 32c.5 0 1.15-.11 1.6-.32v-1.16c-.25.12-.53.19-.82.2-.67 0-.78-.4-.78-.98Zm-7.19-3.9c.53-.53 1.74-.86 2.48-.84 1.14 0 1.71.74 1.71 1.88V32h-2v-4.41c0-.46 0-1.15-.99-1.15-.76 0-1.01.5-1.01 1.26V32H7v-7h1.7l.11.84Z" fill="#fff"/></svg>