<!-- by TradingView --><svg width="56" height="56" viewBox="0 0 56 56" xmlns="http://www.w3.org/2000/svg"><path d="M5 25v-1h5v1H8v7H7v-7H5Zm6.96-1H11v1h.96v-1ZM11 26h1v6h-1v-6Zm2 0h1v1.01c.42-.61 1.03-1.01 1.7-1.01 1.66 0 2.3 1.4 2.3 3.04 0 1.63-.52 2.96-2.3 2.96a2.1 2.1 0 0 1-1.7-.97V34h-1v-8Zm2.5 5c1.16 0 1.5-.88 1.5-1.97 0-1.1-.42-2.03-1.5-2.03-.83 0-1.5.94-1.5 2.03 0 1.09.67 1.97 1.5 1.97Zm3.5-4v3.87c-.02.38.28 1.13 1.52 1.13.18 0 .64-.06.85-.09V31h-.77c-.19 0-.6-.3-.6-.5V27h1v-1h-1v-2h-1v2h-1v1h1Zm3-1h1v.55a2.3 2.3 0 0 1 1.45-.55c.3 0 .47.03.55.05v1.05c-1.08-.23-1.69.1-2 .53V32h-1v-6Zm7.98 3.5L30 29c0-1.66-1.12-3-2.5-3S25 27.34 25 29s.95 3 2.5 3c1.37 0 2.13-.83 2.4-2h-1.05c-.22.6-.65 1-1.35 1-.79 0-1.31-.64-1.46-1.5H29.97ZM27.5 27c.7 0 1.29.64 1.45 1.5h-2.9c.16-.86.75-1.5 1.45-1.5Zm8.5 2c0 .17 0 .34-.02.5h-3.94c.15.86.67 1.5 1.46 1.5.7 0 1.13-.4 1.35-1h1.04c-.26 1.17-1.02 2-2.39 2-1.55 0-2.5-1.34-2.5-3s1.12-3 2.5-3 2.5 1.34 2.5 3Zm-1.05-.5c-.16-.86-.75-1.5-1.45-1.5s-1.29.64-1.45 1.5h2.9Z" fill="#097D59"/><path d="M38 24h-1v8h1v-8Zm8.53 8c1.38 0 2.16-.83 2.42-2h-1.1c-.22.6-.65 1-1.35 1-.93 0-1.5-.9-1.5-2s.67-2 1.5-2c.56 0 1.04.4 1.3 1h1.12c-.35-1.17-1.29-2-2.39-2-1.4 0-2.53 1.34-2.53 3s.96 3 2.53 3ZM40 26h-1v6h1v-4.43c.25-.32.58-.57 1-.57.87 0 1 .77 1 1.14V32h1v-4c0-.83-.08-2-1.59-2-.64 0-1.1.24-1.41.53V26Zm11 5h-1v1h1v-1Z" fill="#6E7073"/></svg>