<!-- by TradingView --><svg xmlns="http://www.w3.org/2000/svg" width="56" height="56" viewBox="0 0 56 56"><path fill="#F0F3FA" d="M0 0h56v56H0z"/><path fill-rule="evenodd" d="M28 44a16 16 0 1 0 0-32 16 16 0 0 0 0 32zm0 1a17 17 0 1 0 0-34 17 17 0 0 0 0 34z" fill="#3271AF"/><path d="M43 28.03a14.98 14.98 0 0 1-23.42 12.39c0-8.47 6.02-12.91 8.42-13.97 4.15-1.83 10.84-1.27 15 1.58z" fill="#9ED5B6"/><path d="M36.5 40.37A14.98 14.98 0 0 1 13 28.03c5.06-3.44 12.12-3.03 15.36-1.47a15.3 15.3 0 0 1 8.13 13.81z" fill="#2B75BC"/><path d="M28.07 26.42l.3.14a15.3 15.3 0 0 1 8.12 13.81A14.96 14.96 0 0 1 28 43c-3.12 0-6.02-.95-8.42-2.58a15.47 15.47 0 0 1 8.49-14z" fill="#17A5A5"/><circle cx="28" cy="19" r="6" fill="#9E90C4"/></svg>