<!-- by TradingView --><svg width="56" height="56" viewBox="0 0 56 56" xmlns="http://www.w3.org/2000/svg"><path fill="#950B3E" d="M0 0h56v56H0z"/><path d="M25.28 39h7.24c.23 0 .48.26.48.5s-.25.5-.48.5h-7.06c-.26.07-.46.3-.46.56 0 .24.22.4.46.44h6.19c.67 0 1.35.79 1.35 1.5 0 .75-.5 1.5-1.2 1.5h-7.4c-.22 0-.4-.26-.4-.5s.18-.5.4-.5h7.1c.3 0 .5-.18.5-.5 0-.25-.31-.5-.53-.5h-6.19c-.69 0-1.28-.75-1.28-1.44 0-.7.56-1.56 1.28-1.56Zm-7.78 2c-1.52 0-2.42-.74-3.5-1.8-.18-.18-.43-.26-.67-.15-.31.14-.44.51-.22.76A5.57 5.57 0 0 0 17.5 42c1 0 2.72-.24 4.4-2.19.2-.25.08-.62-.23-.76-.25-.1-.49-.03-.68.15-1.07 1.06-1.97 1.8-3.49 1.8Z" fill="#FEFEFE"/><circle cx="17.5" cy="43.5" r=".5" fill="#FEFEFE"/><path d="M34.55 39c-.3 0-.55.2-.55.5s.25.5.55.5H38v3.45c0 .3.2.55.5.55s.5-.25.5-.55V40h3.45c.3 0 .55-.2.55-.5s-.25-.5-.55-.5h-7.9Z" fill="#FEFEFE"/><path fill-rule="evenodd" d="M17 12h22v22H25.97L30 30h-1.88l-4.02 4h-1.15l4.35-4.18-1.47-.32-4.7 4.5h-1.2L25 28.92l-.93-.92-6 6H17V12Zm2.53 8H18l6.53 6.98A7 7 0 0 0 29 29c2.5 0 4.12-1.66 5.48-3.23.34-.4.68-.86 1-1.3.58-.78 1.08-1.47 1.38-1.47.2 0 .3.17.39.34l.03.06.72-.89c-.13-.22-.55-.51-1.14-.51-.71 0-1.55 1-2.92 2.65l-.19.23C32.26 26.68 30.78 28 29 28c-1.78 0-3.4-1.42-4.02-2.01L19.53 20ZM21 20h1.4l3.53 4.1c.54.6 1.8 1.9 3.03 1.9 1.55 0 2.74-1.35 4.03-3.18C34.28 20.98 35.1 20 35.75 20c.51 0 1.13.37 1.25.6l-.75.6c-.14-.18-.3-.2-.5-.2-.29 0-.84.81-1.43 1.7l-.7 1c-1.17 1.62-2.49 3.3-4.66 3.3-1.46 0-3.21-1.48-3.74-2.17L21 20Zm9.5 3c-.27.62-.7 1-1.46 1-.9 0-1.68-1.02-2.2-1.71l-.04-.05L25 20h-1.43l2.33 2.65c.75.94 1.93 2.35 3.14 2.35.73 0 1.58-.4 2.39-1.83L30.5 23Z" fill="#FEFEFE"/></svg>