<!-- by TradingView --><svg xmlns="http://www.w3.org/2000/svg" width="56" height="56"><path d="M0 28a28 28 0 1156 0 28 28 0 01-56 0z" fill="#F0F3FA"/><path d="M31.76 21l-1.45 9H32l1.5-9h-1.74zm-21.89.84c-.08.14-.66 1.33-1.28 2.64L6 30h2.2l.8-2h2.5l.3 2h2.09s-.72-5.3-1.24-7.9c-.28-1.43-2.09-1.38-2.78-.26zM42.5 21l2.6 5.48L41 32h2l4-5.52L44.42 21H42.5zm-26 3.44a93.5 93.5 0 00-.62 3.87c-.09.75.1 1.46.96 1.64.18.04.56.05 1.73.05h1.5l.25-2-2.27-.02c-.42 0-.44-.2-.38-.62.1-.68.43-1.97.47-2.09.05-.16.17-.2.31-.27.87-.36 2.69-1 2.69-1l.08-1h-3.17c-.91.05-1.4.59-1.56 1.44zm6.7-.2c-.02.1-.18 1.03-.34 2.07-.13.8-.21 1.7-.25 2.05-.1.79.17 1.46 1.06 1.6.13.03.98.04 2.2.04h1.99l.36-2h-3.43c-.49 0-.55-.48-.4-.64l2.03-.73 2.02-.74a9.84 9.84 0 00.24-1.82C28.61 22.95 27.9 23 27 23H24.93c-.81 0-1.48.37-1.72 1.23zM11.3 26H9.76l1.1-2.57.43 2.57zm15.5-1.3c.07.05.1.1.1.17 0 .1 0 .1-1.12.49l-1.13.38c-.03-.02.1-.7.15-.79a.6.6 0 01.37-.3c.08-.02.46-.03.84-.03.65 0 .7.01.79.08z" fill="#0175CA"/><path d="M36.6 21h4.14c.93 0 1.63.87 1.47 1.78l-.5 2.97A1.5 1.5 0 0140.23 27h-.6l1.34 3h-2.2l-1.37-3.03c-.3-.98.44-1.97 1.46-1.97h.73a.5.5 0 00.5-.43l.14-1a.5.5 0 00-.5-.57h-2.1l-1.18 7h-1.69l1.46-9h.38zm9.4 7.36l.72 1.64h2.05l-1.1-2.7h-.01l-.36-.72-1.3 1.78zm1.36-1.9l-.82-1.68L47.95 23H50l-2.64 3.46zM30.77 32.3l-.43 2.7h.69l.42-2.7h-.68zm.16-1a.43.43 0 00-.14.31c0 .12.04.21.11.3.08.07.17.11.28.11.13 0 .24-.04.33-.13a.4.4 0 00.14-.3.45.45 0 00-.11-.3.34.34 0 00-.27-.13.48.48 0 00-.34.14zm-23 3.7l.59-3.71h.68l-.16 1h.93c.16 0 .3.05.4.15.1.1.14.22.14.38v.1L10.16 35H9.5l.28-1.81.02-.1c0-.07-.05-.1-.15-.1h-.5c-.08 0-.14.01-.17.04s-.05.08-.07.16L8.62 35h-.69zM5 35l.57-3.6h1.8a.7.7 0 01.49.16c.12.1.18.24.18.43l-.01.13-.14.88a.83.83 0 01-.27.52.81.81 0 01-.55.18h-1.1l-.2 1.3H5zm1.22-2.83l-.11.74H7l.08-.04c.03-.03.06-.08.07-.15l.05-.33.01-.06c0-.1-.07-.16-.21-.16h-.79zm6.42.13h-1.56l-.1.65h1.38c.11 0 .16.03.16.11v.07l-.02.06h-.9a.78.78 0 00-.53.18.75.75 0 00-.24.47l-.09.55v.1c0 .34.2.51.6.51h.94c.18 0 .33-.06.47-.18a.71.71 0 00.25-.45l.23-1.43v-.12c0-.35-.2-.52-.6-.52zm-1.14 2a.14.14 0 01-.04-.1v-.02l.03-.17c.01-.07.03-.12.05-.14.03-.03.08-.04.15-.04h.53c.05 0 .09.01.12.03.03.02.05.04.05.07v.06l-.04.19c-.02.1-.09.16-.2.16h-.54a.18.18 0 01-.11-.04zm1.88.7l.31-2c.07-.47.34-.7.8-.7h.47l-.1.69h-.26c-.15 0-.23.07-.26.21l-.28 1.8h-.68zm1.73-2.05L14.8 35h.69l.27-1.81c.02-.14.1-.2.23-.2h.3c.05 0 .09 0 .11.03.03.02.04.05.04.1v.04l-.3 1.84h.68l.29-1.82s.01-.18.2-.18h.33c.14 0 .14.15.14.15v.04l-.3 1.81h.69l.33-2.05.01-.17a.45.45 0 00-.15-.35.56.56 0 00-.39-.13h-.53c-.2 0-.35.04-.45.12l-.05.05a.27.27 0 00-.07.06.52.52 0 00-.1-.14.29.29 0 00-.13-.05 1.06 1.06 0 00-.27-.05h-.52a.75.75 0 00-.73.65zm3.97-.65h1.55c.4 0 .6.17.6.52v.12L21 34.37a.71.71 0 01-.25.45.71.71 0 01-.48.18h-.93c-.4 0-.61-.17-.61-.52v-.09l.1-.55c.03-.2.1-.37.24-.48.13-.1.3-.16.52-.16h.9l.02-.07v-.07c0-.08-.05-.12-.15-.12h-1.38l.1-.64zm.37 1.9c0 .04.02.07.04.1.03.02.07.04.12.04h.53c.12 0 .19-.06.2-.16l.04-.19v-.06c0-.03-.01-.05-.05-.07a.23.23 0 00-.12-.03h-.53c-.07 0-.12.01-.14.04-.03.02-.04.07-.06.14l-.02.17v.02zm4.02-1.22l.1-.68h-1.24a.61.61 0 00-.45.17.8.8 0 00-.22.47l-.22 1.37-.01.18c0 .34.2.51.62.51h1.1l.1-.69h-.93c-.1 0-.16-.05-.16-.16v-.02l.15-.95v-.09c.02-.04.04-.07.07-.09a.48.48 0 01.17-.02h.92zM25.8 35h-1.51c-.15 0-.26-.01-.33-.03a.46.46 0 01-.18-.14.54.54 0 01-.1-.15.42.42 0 01-.04-.17v-.13l.02-.09.22-1.36a.7.7 0 01.25-.46.8.8 0 01.52-.17h.93a.6.6 0 01.41.13c.1.08.14.2.14.38v.14l-.09.54-1.65.59v.05l-.01.04c0 .05.01.08.03.11.02.02.05.03.08.03h1.41l-.1.69zm-1.28-1.81l-.05.28.92-.32v-.02c0-.04-.01-.06-.04-.08a.15.15 0 00-.1-.03h-.48a.28.28 0 00-.17.04.18.18 0 00-.08.13zm4.06 1.16l.33-2.05h-.7l-.28 1.83c-.02.12-.1.18-.25.18h-.43c-.13 0-.2-.04-.2-.14v-.05l.3-1.82h-.69l-.32 2.05-.01.14c0 .34.18.51.55.51h.95c.2 0 .37-.05.5-.16a.78.78 0 00.25-.49zm.37.65l.58-3.71h.69l-.16 1h.46l-.11.7h-.46L29.63 35h-.68zm4.79-2.7l-.1.69h-.93c-.08 0-.14 0-.17.02-.03 0-.05.04-.06.09l-.01.08-.15.95v.02c0 .11.05.16.16.16h.94l-.1.69h-1.1c-.42 0-.63-.17-.63-.5l.01-.2.22-1.36a.8.8 0 01.22-.47.61.61 0 01.45-.17h1.25zm1.96 0h-1.55l-.1.65h1.38c.1 0 .16.03.16.11v.07l-.02.06h-.9a.78.78 0 00-.53.18.75.75 0 00-.24.47l-.09.55v.1c0 .34.2.51.6.51h.94c.17 0 .33-.06.47-.18a.71.71 0 00.25-.45l.23-1.43v-.12c0-.35-.2-.52-.6-.52zm-1.13 2a.14.14 0 01-.04-.1v-.02l.03-.17c0-.07.03-.12.05-.14.03-.03.08-.04.15-.04h.53l.12.03c.03.02.05.04.05.07v.06l-.04.19c-.02.1-.09.16-.2.16h-.54a.18.18 0 01-.11-.04zm1.88.7l.58-3.71h.69L37.13 35h-.68zm1.22-.69l-.11.69h1.41c.1 0 .2-.01.26-.03a.87.87 0 00.22-.15.7.7 0 00.25-.42l.1-.5v-.06a.53.53 0 00-.5-.54h-.58c-.12 0-.18-.04-.18-.13l.01-.08c.02-.07.09-.1.22-.1h1.17l.1-.7h-1.37a.79.79 0 00-.46.13.73.73 0 00-.3.49l-.09.5v.09c0 .13.05.25.16.34.1.1.24.15.4.15h.58c.03 0 .05.01.07.03l.03.09v.02l-.01.05c-.02.1-.08.13-.19.13h-1.2z" fill="#8A898E"/></svg>