<!-- by TradingView --><svg xmlns="http://www.w3.org/2000/svg" width="56" height="56"><path fill="#F0F3FA" d="M0 0h56v56H0z"/><path d="M29.34 14.18c-6.07-.84-13.51 1.54-16.47 2.83 6.45 1.5 12.58 7.04 15.22 10.12l13.19-12a88.3 88.3 0 01-11.94-.95z" fill="url(#ademg2qmo)"/><path d="M15.34 31.08c-1.77-3.8-3.23-6.89-4.34-9.18l16.89 5.72c-2.93 9.63-1.04 17.62-1.04 18.38-5.02-3.5-8.5-8.42-11.51-14.92z" fill="url(#bdemg2qmo)"/><path d="M32.25 45.33l-3.83-17.69c5.67-.53 13.42-5.72 16.58-8.24-2.77 15.19-8.43 17.88-12.75 25.93z" fill="url(#cdemg2qmo)"/><defs><linearGradient id="ademg2qmo" x1="27.07" y1="14" x2="27.07" y2="27.13" gradientUnits="userSpaceOnUse"><stop stop-color="#08586A"/><stop offset=".51" stop-color="#2BA5B3"/><stop offset="1" stop-color="#CBE8EC"/></linearGradient><linearGradient id="bdemg2qmo" x1="27.89" y1="28.2" x2="17.47" y2="35.01" gradientUnits="userSpaceOnUse"><stop stop-color="#D0EAEB"/><stop offset=".44" stop-color="#29A0AE"/><stop offset="1" stop-color="#075366"/></linearGradient><linearGradient id="cdemg2qmo" x1="28.42" y1="28.33" x2="40.54" y2="33.57" gradientUnits="userSpaceOnUse"><stop stop-color="#CAE7EB"/><stop offset=".4" stop-color="#33B7C0"/><stop offset="1" stop-color="#0A5E6F"/></linearGradient></defs></svg>