<!-- by TradingView --><svg width="56" height="56" viewBox="0 0 56 56" xmlns="http://www.w3.org/2000/svg"><path fill="#F0F3FA" d="M0 0h56v56H0z"/><path d="M24.06 20.79c6-4.98 13.3-8.36 20.94-9.79-1.36.75-2.85 1.25-4.23 1.97-6.3 3.23-11.96 7.87-15.92 13.78-2.82 4.17-5.42 8.53-7.21 13.25H9c3.68-6.39 9.27-14.47 15.06-19.21Z" fill="#E63A26"/><path d="M30.03 24.23A53.78 53.78 0 0 1 32.8 21c3.45 4.71 6.9 9.43 10.36 14.13.46.64 1.02 1.4.76 2.24-.23 1.15-1.53 1.92-2.63 1.52-.6-.17-.96-.72-1.32-1.19-.92-1.26-1.84-2.45-2.77-3.7H24c.63-1.2 1.28-2.81 1.92-4 2.9-.03 5.79.01 8.69 0-1.55-2.02-2.97-3.8-4.58-5.77Z" fill="#A5A9AB"/></svg>