<!-- by TradingView --><svg width="56" height="56" fill="none" xmlns="http://www.w3.org/2000/svg"><path fill="#A30D33" d="M0 0h56v56H0z"/><path fill-rule="evenodd" clip-rule="evenodd" d="M29.931 20l8.287.003c1.303 0 1.783.748 1.782 1.497 0 .75-.484 1.5-1.782 1.5h-3.99C31.95 23.01 30 24.485 30 26.612v11.463C30 39.139 29.137 40 28 40s-2-.86-2-1.925V26.612C26 24.414 24.061 23 21.786 23l-4.003.01c-1.301 0-1.785-.756-1.783-1.51.002-.75.481-1.496 1.783-1.496L26.11 20c-.9-3.03-3.886-6-7.41-6C14.493 14 11 17.553 11 21.484v14.489C11 38.296 13.011 40 15.5 40c2.488 0 4.5-1.71 4.5-4.034v-9.522c0-.86.58-1.444 1.5-1.444s1.5.585 1.5 1.444v12.34C23 41.108 25.512 43 28 43s4.997-1.892 4.997-4.216L33 26.44c0-.859.58-1.44 1.5-1.44s1.5.581 1.5 1.44v9.747C36 38.511 38.012 40 40.5 40s4.5-1.49 4.5-3.813v-14.98c0-3.933-3.531-7.173-7.697-7.173-3.506 0-6.457 2.954-7.372 5.966z" fill="#fff"/></svg>