<!-- by TradingView --><svg width="56" height="56" viewBox="0 0 56 56" xmlns="http://www.w3.org/2000/svg"><path fill="#243A63" d="M0 0h56v56H0z"/><path d="m43 19-4.6-4.97a.08.08 0 0 0-.06-.03H17.98l-.08.01-.08.02a.11.11 0 0 0-.08.03L13 19h11.3l3.66 10.97A.04.04 0 0 0 28 30h.02l.02-.03L31.57 19H43ZM19 42V27.65l5.92 14.25c.02.07.07.1.14.1h5.51a.1.1 0 0 0 .05-.02.1.1 0 0 0 .04-.04L37 27.64V42l5.95-5.44a.18.18 0 0 0 .05-.13V22.07c0-.02 0-.04-.02-.05a.07.07 0 0 0-.05-.02h-8.6l-.05.01a.08.08 0 0 0-.03.04l-6.38 14.4a.03.03 0 0 1-.03.02.03.03 0 0 1-.02-.01l-6.2-14.4a.09.09 0 0 0-.08-.06h-8.5l-.03.01-.01.03v14.72c0 .04.01.07.04.1L19 42Z" fill="#fff"/></svg>