<!-- by TradingView --><svg width="56" height="56" viewBox="0 0 56 56" xmlns="http://www.w3.org/2000/svg"><path fill="#F0F3FA" d="M0 0h56v56H0z"/><path d="M11.5 26h-7v2H7v6h2v-6h2.5v-2ZM18 26h-5v8h5v-2h-3v-1.19a7.2 7.2 0 0 0 1.7-1.04c.21-.17.72-.56 1.09-.77H15v-1h3v-2ZM20 26v8h2.06v-4.03L26.44 34H27v-8h-2.1v4.23L20.48 26H20ZM31.53 26l-3.61 8h2.14l2.41-5.74L33.6 31h-1.94c1.21.23 2.03.81 2.3 1.12a6.17 6.17 0 0 0 3.1 1.88l-3.66-8h-1.86ZM46.49 26l-3.62 8h2.15l2.4-5.74L48.56 31H46.6c1.2.23 2.03.81 2.29 1.12A6.17 6.17 0 0 0 52 34l-3.66-8H46.5ZM38.2 26H36l3 4.33V34h2v-3.67L44 26h-2.19L40 28.8 38.2 26Z" fill="#366DEB"/><path d="m35.97 20-4.06 5h8.15l-4.09-5Z" fill="#BAD9EE"/><path d="m41.22 20-4.06 5h8.15l-4.09-5Z" fill="#DC421E"/><path d="m38.79 20-4.06 5h8.14l-4.08-5Z" fill="#DC421E"/><path d="M37.38 21.73 34.71 25h5.34l-2.67-3.27Z" fill="#366DEB"/><path d="m44.04 20-4.06 5h8.14l-4.08-5Z" fill="#BAD9EE"/><path d="M42.63 21.74 39.98 25h5.33l-2.68-3.26Z" fill="#366DEB"/></svg>