<!-- by TradingView --><svg xmlns="http://www.w3.org/2000/svg" width="56" height="56" viewBox="0 0 56 56"><path fill="#F0F3FA" d="M0 0h56v56H0z"/><path d="M27.16 47C36.46 47 44 38.5 44 28S36.46 9 27.16 9c-6.41 0-12 4.05-14.83 10.01 2.81-4.61 7.61-7.65 13.06-7.65 8.68 0 15.7 7.7 15.7 17.2s-7.02 17.2-15.7 17.2c-3.23 0-6.23-1.08-8.72-2.9A15.62 15.62 0 0 0 27.17 47Z" fill="#A66E3B"/><path d="M35.16 16.8a11.79 11.79 0 0 0-7.87-3.08c-7.04 0-12.75 6.46-12.75 14.44 0 7.97 5.7 14.44 12.75 14.44 5.18 0 9.64-3.5 11.63-8.53C36.96 40.1 31.87 44.4 25.9 44.4 18.22 44.4 12 37.32 12 28.58s6.22-15.82 13.89-15.82c3.56 0 6.81 1.53 9.27 4.04Z" fill="#99C8D8"/><path d="M27 35.4c-.39 3.9-3.97 3.54-5.72 2.88 2.6.05 3.3-1.9 3.31-2.89l.1-3.05c.36-.13.6-.34.68-.44-4.34.53-6.34-1.56-6.8-2.67a4.07 4.07 0 0 0 1.97 1.22c-.5-.13-1.58-1.07-1.8-1.22a1.44 1.44 0 0 1-.39-.47c-.06-.15-.26-.6-.48-1.25-.23-.66.02-.8.18-.77a4.59 4.59 0 0 0 3.26 3.12c-2.28-.91-3.06-2.68-3.16-3.45.56-.83 1.18.21 1.24.53.05.26.23.48.31.57l.92.76c.38.21 1.34.71 2.1.96.78.24.99.06 1-.07-.18-.4-.6-.58-.9-1.26-.31-.68.03-.8.25-.77a7.53 7.53 0 0 0 2.45 1.42c1.59.23 1.6 1.72 1.48 2.44v4.4Z" fill="#99C8D8"/><path d="M29 35.09c.39 3.9 3.99 3.55 5.75 2.89-2.61.04-3.3-1.9-3.32-2.9l-.1-3.05c-.35-.12-.6-.34-.68-.43 4.35.52 6.79-1.8 7.22-3.08a5.77 5.77 0 0 1-2.38 1.62c.5-.12 1.57-1.06 1.8-1.21.17-.13.33-.37.38-.48.07-.14.26-.59.49-1.25.23-.66-.03-.79-.18-.77a4.59 4.59 0 0 1-3.26 3.12c2.27-.9 3.05-2.68 3.15-3.45-.55-.82-1.18.22-1.24.54a1.2 1.2 0 0 1-.3.56l-.93.76c-.38.22-1.33.72-2.1.97-.77.24-.98.05-1-.07.18-.4.6-.58.91-1.26.31-.68-.04-.8-.25-.77a7.53 7.53 0 0 1-2.45 1.42c-1.6.23-1.64 1.72-1.51 2.44v4.4Z" fill="#A66E3B"/><path d="m18.48 24.46 8.54 3.76-5.71-7.85a10 10 0 0 0-2.83 4.09Z" fill="#C0DDE5"/><path d="m37.24 24.4-8.55 3.76 5.72-7.85a10 10 0 0 1 2.83 4.08Z" fill="#C29C78"/><path d="m22.34 19.54 5.18 8.18-.43-9.79a8.94 8.94 0 0 0-4.75 1.6Z" fill="#C0DDE5"/><path d="m33.38 19.47-5.18 8.18.42-9.78a8.94 8.94 0 0 1 4.76 1.6Z" fill="#C29C78"/></svg>