<!-- by TradingView --><svg xmlns="http://www.w3.org/2000/svg" width="56" height="56" viewBox="0 0 56 56"><path fill="#F0F3FA" d="M0 0h56v56H0z"/><path d="M10 21H7v2.5h3V35h3V23.5h3V21h-6zM45 21h-4.16L38 30.28 35.16 21H31v14h3v-8.01L36.45 35h3.1L42 26.99V35h3V21zM46.01 21H49v14h-2.99z"/><path fill-rule="evenodd" d="M23 35a7 7 0 1 0 0-14 7 7 0 0 0 0 14zm0-2.5a4.5 4.5 0 1 0 0-9 4.5 4.5 0 0 0 0 9z" fill="url(#azh03btrz)"/><path d="M20.87 31.32l.08.67.4.06c-.05-.24-.15-.74-.14-.78a2.7 2.7 0 0 0 2.64-1.65c.67-1.46.64-4 .55-5.07a6.92 6.92 0 0 1-2.33 1.83c-1.2.47-2.71 1.09-2.71 2.99 0 1.04.6 1.56 1.18 1.82l-.04-.04a4.17 4.17 0 0 1 0-1.8c.23-.6 1.76-2.02 2.55-2.45-.64.6-1.98 2.02-2.13 2.96a5.03 5.03 0 0 0-.06 1.46z" fill="url(#bzh03btrz)"/><defs><linearGradient id="azh03btrz" x1="16.66" y1="30.75" x2="30" y2="26.47" gradientUnits="userSpaceOnUse"><stop stop-color="#9CC94C"/><stop offset="1" stop-color="#6F9D41"/></linearGradient><linearGradient id="bzh03btrz" x1="19.36" y1="31.28" x2="24.99" y2="28.16" gradientUnits="userSpaceOnUse"><stop offset=".18" stop-color="#C1D994"/><stop offset="1" stop-color="#719F41"/></linearGradient></defs></svg>