<!-- by TradingView --><svg width="56" height="56" viewBox="0 0 56 56" xmlns="http://www.w3.org/2000/svg"><path fill="#F0F3FA" d="M0 0h56v56H0z"/><path d="M21 25v-5H9.2C8 20 7 20.88 7 21.97V25h14ZM12 26h4v12h-4zM36 20h4v18h-4zM45.86 20H40.5v4H49v-.42C49 21.6 47.82 20 45.86 20ZM45.86 33H40.5v-4H49v.42C49 31.4 47.82 33 45.86 33ZM45 24.44h4v4.11h-4z" fill="#1263B2"/><path d="M30.05 20 34 25H25.5v-4.67c0-.18.15-.33.33-.33h4.23ZM25 38l-3.92-5h8.41v4.67c0 .18-.15.33-.33.33H25Z" fill="#F90217"/><path d="M25 20.2v11.82h-3.63c-.2 0-.37-.15-.37-.34V25.8l4-5.6ZM30 38V26h3.63c.2 0 .37.15.37.34v5.97L30 38Z" fill="#1263B2"/></svg>