<!-- by TradingView --><svg width="56" height="56" viewBox="0 0 56 56" xmlns="http://www.w3.org/2000/svg"><path fill="#F0F3FA" d="M0 0h56v56H0z"/><path d="M17.36 20.96a321.37 321.37 0 0 1-2.65 12.1h19.98l3.23-15.4c-.41-4.18-1.43-5.52-1.9-5.66a.98.98 0 0 0-.94.86c-.11.68-.87 2.22-1.23 2.9-.71-.36-2.76-.76-5.26-.76s-5.24.4-6.3.76C21.96 14.51 21.04 12 20 12c-1.02 0-1.43 3.78-1.51 5.67-1.85-.62-5.4-1.2-5.5 1.05-.07 1.79 2.88 2.24 4.36 2.24Z"/><path d="M29.35 19.62c0 3.74-3.04 7.34-4.55 8.67l16.82 6.24-2.8-13.58c.4-.09 1.45-.28 2.5-.33 1.3-.06 1.82-1.16 1.65-2.32-.18-1.16-.92-1.27-1.66-1.3-.6-.03-2.41.34-3.25.53A16.5 16.5 0 0 0 29 15c.2.13.35.89.35 4.62Z" fill="#F08300"/><circle cx="22.5" cy="23.5" r="2.5" fill="#fff"/><ellipse cx="22.99" cy="23.5" rx="1.49" ry="1.5"/><circle cx="2.5" cy="2.5" r="2.5" transform="matrix(-1 0 0 1 36 21)" fill="#fff"/><circle cx="1.5" cy="1.5" r="1.5" transform="matrix(-1 0 0 1 34.5 22)"/><ellipse cx="28.03" cy="35.5" rx="14" ry="8.5" fill="#FEEAB4"/><path d="M35.9 36.17c.16.2.12.48-.08.63-1 .77-3.91 2.2-7.93 2.2s-6.8-1.43-7.73-2.2a.44.44 0 0 1-.05-.64.46.46 0 0 1 .64-.05c.76.62 3.32 2 7.14 2 3.81 0 6.53-1.38 7.37-2.02.2-.15.49-.11.64.08Z"/></svg>