<!-- by TradingView --><svg width="56" height="56" viewBox="0 0 56 56" xmlns="http://www.w3.org/2000/svg"><path fill="#F0F3FA" d="M0 0h56v56H0z"/><path d="m22.76 21.14-1.4.66c-1.7-2.45-4.02-8.05.17-10.8 7.36 2.28 10.96 7.71 11.84 10.14l-1-.24c-2.4-4.56-6.3-6.97-7.93-7.6-3.64 1.8-2.64 5.98-1.68 7.84ZM20.3 24.3c-6.71 5.3-7.61 14.61-7.22 18.61 11.66.83 17.24-4.47 18.58-7.22l-1.44-1.37a13.58 13.58 0 0 1-13.93 2.99c-.1-6.8 3.26-10.77 4.96-11.9l-.95-1.1ZM45 34.49c-3.01 4.2-8.14 2.05-10.33.45L35 34c1.79 1.15 5.91 2.78 8.07 0-1.53-5.18-5.81-8.5-7.76-9.53v-1.13c6.57 2.91 9.19 8.64 9.68 11.14Z" fill="#D1D2D4"/><path fill-rule="evenodd" d="M33.46 33.01a11.38 11.38 0 0 1-.7 1.3c-6.06-3.76-9.7-8.9-10.75-11 2.12-1.42 7.52-3.5 12.18-.45 1.33 3.96.32 7.87-.73 10.15Zm-.52-9.17c.91 3.22.12 6.4-.73 8.35a31.55 31.55 0 0 1-8.17-8.32c.9-.42 2.05-.81 3.32-1a8.61 8.61 0 0 1 5.58.97Z" fill="#006AB5"/></svg>