<!-- by TradingView --><svg xmlns="http://www.w3.org/2000/svg" width="56" height="56" viewBox="0 0 56 56"><path fill="#F0F3FA" d="M0 0h56v56H0z"/><path d="M20.5 22v3h.41c.18-1.14.44-1.69.97-2.13.47-.4.83-.4 1.74-.4H24v10.05h-1.5V33h5v-.48H26V22.48h.4c.74 0 1.24 0 1.8.54.32.26.62.79.93 1.98h.37v-3h-9zM37.32 22.21c-.7-.21-1.5-.21-2.43-.21H30.5v.46H32v10.06h-1.5V33h5v-.48H34V22.5h.64c1.47 0 2.14 0 2.55.81.09.21.22.62.22 1.7 0 1.1-.23 1.58-.57 1.95-.43.49-1 .5-1.87.52h-.5V28c1.26 0 2.11-.03 2.93-.31 1.04-.37 2.16-1.27 2.16-2.67 0-1.34-.86-2.41-2.24-2.8zM46 28h1.23c0 .84 0 2.98-.4 3.63-.25.4-.74.86-1.66.86-.88 0-1.96-.39-2.2-2.23-.13-.88-.14-2.39-.14-3 0-1.26.05-2.8.46-3.62.39-.76 1.05-.99 1.27-1.06.29-.08.57-.12.86-.12 2.24 0 3.02 2.37 3.15 3.08H49V22h-.47s-.43.7-.5.78a4.86 4.86 0 0 0-2.58-.78c-2.78 0-4.95 2.7-4.95 5.36 0 2.75 1.8 5.64 4.8 5.64 1.97 0 3.16-.93 3.71-2.14.23-.5.3-1.94.34-2.6l.02-.26H50v-.45h-4V28z" fill="#003768"/><path d="M17.3 20H6.39c-.11 0-.39-.23-.39-.51 0-.26.28-.49.39-.49h11.04c.12 0 .14 0 .08.51-.03.26-.1.49-.21.49zm-.74 2H6.36c-.12 0-.36-.2-.36-.5 0-.26.24-.5.35-.5h10.48c.2 0 .22.03.1.48-.1.45-.25.52-.37.52zM6.34 24h9.68c.13 0 .26-.27.33-.5l.01-.05c.05-.16.14-.45.03-.45H6.34c-.12 0-.34.24-.34.5 0 .27.22.5.34.5zm9 2H6.37c-.18 0-.36-.19-.36-.5 0-.27.25-.5.36-.5h9.35c.16 0 .07.28.02.43l-.02.08c-.1.4-.24.49-.36.49zm-9.01 2h4.47c.4 0-.02-.4-.2-.54-.48-.39-.63-.46-.74-.46H6.33c-.12 0-.33.24-.33.5s.21.5.33.5zm7.32 2h-7.3c-.11 0-.35-.24-.35-.5s.24-.5.34-.5h6c.28 0 .54.14 1 .52.2.15.55.48.3.48zm-7.28 2h7.02c.12 0 .24-.2.35-.51l.03-.1c.05-.17.13-.39-.03-.39H6.37c-.11 0-.37.24-.37.5 0 .3.26.5.37.5zm6.34 2H6.36c-.12 0-.36-.23-.36-.5 0-.26.24-.5.36-.5h6.74c.13 0 .1.11.03.31a5 5 0 0 0-.06.19c-.11.36-.23.5-.36.5zm5.06-1h-.6c-.23 0-.38.12-.57.29l-.16.14h-.02c-.16.14-.67.54-.34.57h1.69c.12 0 .23-.23.23-.5 0-.28-.11-.5-.23-.5zm-5.79 3h-5.6c-.1 0-.38-.24-.38-.5s.27-.5.39-.5h6.05c.14 0 .06.2-.02.38l-.05.14c-.1.3-.22.48-.39.48zm1.8-.57c-.23.2-.65.57-.29.57h4.26c.12 0 .25-.24.25-.5s-.1-.5-.24-.5h-3.3c-.12 0-.4.2-.67.43zM12.26 37h5.53c.12 0 .22.23.22.49 0 .25-.1.51-.22.51H6.34c-.12 0-.34-.23-.34-.49 0-.25.22-.5.34-.5h5.12c.14 0 .09.17.05.32-.03.1-.05.17-.03.19.02 0 .03 0 .04-.02h.01a.84.84 0 0 0 .17-.2c.2-.3.24-.3.48-.3h.07z" fill="#9FA1A4"/></svg>