<!-- by TradingView --><svg xmlns="http://www.w3.org/2000/svg" width="56" height="56"><path fill="#01568C" d="M0 0h56v56H0z"/><path d="M15.8 18h3.62l-.7 4H22l-.56 3h-3.35l-1 5.93c-.47 2.22 1.75 2.33 3.25 1.81l-.56 3c-.93.2-2.17.26-2.68.26-4.35.08-4.64-2.98-4.24-4.52L14.12 25H12l.53-3h2.35l.93-4zm7.94 4h3.48l-.33 2.61c.35-.93 1.62-2.75 3.88-2.6 2.82.18 4.48 3.3 3.76 7.74-.72 4.44-3.67 6.25-5.68 6.25-1.96 0-3.15-1.66-3.23-2.14L24.54 41H20.7l3.04-19zm5.48 2.82a2.08 2.08 0 00-2.41 1.69l-.79 4.51a2.1 2.1 0 001.7 2.42c1.13.2 2.2-.55 2.4-1.68l.8-4.52a2.1 2.1 0 00-1.7-2.42zM37.38 22h4.12l-2.32 14H35l2.38-14z" fill="#fff"/><path d="M37.7 19.39l-.13 1.02c2.35-.13 3.78-1.08 4.2-1.54l4.97-5.25c.33-.43.6-1.08-.89-.13-1.5.94-6.05 4.32-8.14 5.9z" fill="url(#auc1sydp0)"/><defs><linearGradient id="auc1sydp0" x1="47" y1="13" x2="37.39" y2="20.17" gradientUnits="userSpaceOnUse"><stop stop-color="#0E6C2E"/><stop offset=".8" stop-color="#72BC51"/></linearGradient></defs></svg>