<!-- by TradingView --><svg width="56" height="56" viewBox="0 0 56 56" xmlns="http://www.w3.org/2000/svg"><path fill="#F0F3FA" d="M0 0h56v56H0z"/><path d="M30.29 37.27c-7.2 0-11.86-2.85-13.29-4.27 3.43 7.33 11.57 8 13 8 1.43 0 2-.93 2-1.87 0-.93-.86-1.86-1.71-1.86Z" fill="url(#al11tvmrf)"/><path d="M31.98 39.42c-.1.83-.7 1.58-1.98 1.58-1.43 0-9.57-.67-13-8l.32.3a15.53 15.53 0 0 0 14.66 6.12Z" fill="#083782"/><path d="M27.43 42.71c-2.97.12-6.2-2.42-7.43-3.71 1.86 5.57 6 7 7.14 7 1.15 0 1.86-.71 1.86-1.57 0-.86-1-1.72-1.57-1.72Z" fill="url(#bl11tvmrf)"/><path d="M28.97 44.72c-.35.1-1.1.28-1.54.28-.53 0-4.12-.74-7.03-5.61L20 39c1.86 5.57 6 7 7.14 7 1.01 0 1.69-.56 1.83-1.28Z" fill="#083782"/><path d="M35 33.7c0-1.63-1.4-2.18-2.23-2.18-1.9.24-3.66.48-5.27.48-7.86.02-12.2-2.54-13.5-4 4.45 8.27 16.13 8 17.8 8 1.67 0 3.2-.68 3.2-2.3Z" fill="url(#cl11tvmrf)"/><path d="M35 33.52c-1.03.45-2.83.99-5.15.99-3.46 0-9.66-.58-15.3-5.58C19.21 36.05 29.6 36 31.65 36h.15c1.67 0 3.2-.68 3.2-2.3v-.18Z" fill="#083782"/><path d="M19.7 26.57c-4.93 0-7.19-1.03-7.7-1.54 3.7 6.18 18.14 5.32 24.9 4.12.7-.05 2.1-.62 2.1-2.58 0-1.95-1.77-2.53-2.66-2.57-3.5.86-11.72 2.57-16.65 2.57Z" fill="url(#dl11tvmrf)"/><path d="M38.93 25.94C37.07 27.22 32.56 29 24.45 29a21.9 21.9 0 0 1-12.05-3.39c4.23 5.54 17.96 4.7 24.5 3.54.7-.05 2.1-.62 2.1-2.58 0-.23-.02-.44-.07-.63Z" fill="#083782"/><path d="M11 21.97c0-2.98 8.82-4.6 13-4.97-4.88.55-9 3.03-9 3.72 0 .7 1.25.83 1.95.83 6.83 0 23.31-8.55 24.7-8.55 1.4 0 3.35.97 3.35 3.17 0 1.77-1.3 2.85-1.95 3.17C36.96 21.23 23.55 25 18.52 25 12.25 25 11 23.07 11 21.97Z" fill="url(#el11tvmrf)"/><path d="m11.01 21.76-.01.2c0 1.1 1.25 3.04 7.52 3.04 5.02 0 18.44-3.77 24.53-5.66A3.68 3.68 0 0 0 45 16.17c0-.36-.05-.7-.15-1-4.16 2.94-15.33 8.83-28 8.83-1.89 0-4.17-1.18-5.84-2.24Z" fill="#083782"/><defs><linearGradient id="al11tvmrf" x1="32" y1="34.84" x2="17" y2="34.84" gradientUnits="userSpaceOnUse"><stop offset=".43" stop-color="#072D6B"/><stop offset=".62" stop-color="#83A9E4"/><stop offset=".74" stop-color="#8FB5F0"/><stop offset=".89" stop-color="#083782"/></linearGradient><linearGradient id="bl11tvmrf" x1="29" y1="40.61" x2="20" y2="40.61" gradientUnits="userSpaceOnUse"><stop offset=".43" stop-color="#072D6B"/><stop offset=".62" stop-color="#83A9E4"/><stop offset=".74" stop-color="#8FB5F0"/><stop offset=".89" stop-color="#083782"/></linearGradient><linearGradient id="cl11tvmrf" x1="35" y1="29.84" x2="14" y2="29.84" gradientUnits="userSpaceOnUse"><stop offset=".43" stop-color="#072D6B"/><stop offset=".62" stop-color="#83A9E4"/><stop offset=".74" stop-color="#8FB5F0"/><stop offset=".89" stop-color="#083782"/></linearGradient><linearGradient id="dl11tvmrf" x1="39" y1="25.38" x2="12" y2="25.38" gradientUnits="userSpaceOnUse"><stop offset=".43" stop-color="#072D6B"/><stop offset=".62" stop-color="#83A9E4"/><stop offset=".74" stop-color="#8FB5F0"/><stop offset=".89" stop-color="#083782"/></linearGradient><linearGradient id="el11tvmrf" x1="45" y1="15.76" x2="11" y2="15.76" gradientUnits="userSpaceOnUse"><stop offset=".43" stop-color="#072D6B"/><stop offset=".62" stop-color="#83A9E4"/><stop offset=".74" stop-color="#8FB5F0"/><stop offset=".89" stop-color="#083782"/></linearGradient></defs></svg>