<!-- by TradingView --><svg width="56" height="56" fill="none" xmlns="http://www.w3.org/2000/svg"><path fill="#F0F3FA" d="M0 0h56v56H0z"/><path d="M44 22.318c.083 2.137-1.509 4.042-2.315 4.727.29-.896-.137-2.603-.411-3.083-2.367-4.83-6.175-5.446-8.645-5.6-2.47-.154-9.005.463-8.902 4.88.082 3.536 5.077 5.618 7.564 6.217-12.555-1.15-15.42-6.576-15.282-9.145-.052-2.585 2.294-7.665 12.092-7.295 12.246.463 15.797 6.628 15.9 9.3z" fill="#5D9732"/><path d="M17.369 38.168c.182-4.725 2.806-8.594 4.095-9.938-1.365 3.313-2.707 9.825 2.844 9.37 6.94-.567 9.078-7.494 9.272-10.733.137-2.272-1.08-3.635-1.706-4.033 4.14.5 4.952 4.654 4.857 6.547-1.195 12.778-10.854 15.367-13.447 15.603-1.877.17-6.143-.91-5.915-6.816z" fill="#005568"/></svg>