<!-- by TradingView --><svg width="56" height="56" xmlns="http://www.w3.org/2000/svg"><path fill="#D7002A" d="M0 0h56v56H0z"/><path d="M43 14v27.986H29.46c8.978-11.058 9.29-17.112 9.29-20.73 0-3.329-1.808-6.606-4.925-6.79-2.494-.148-4.572 1.087-5.3 1.723 5.536.492 6.449 5.31 6.235 7.321-1.247 11.715-9.539 16.9-13.529 18.028-3.512.984-10.474 1.046-10.225-6.584.25-7.63 5.05-12.736 7.42-14.335v1.968c-4.926 6.4-5.416 18.592 1.879 17.73 7.294-.861 10.714-10.1 10.776-15.76.05-4.53-3.015-6.525-4.554-6.956l-3.87 3.655V14H43z" fill="#fff"/></svg>