<!-- by TradingView --><svg width="56" height="56" viewBox="0 0 56 56" xmlns="http://www.w3.org/2000/svg"><path fill="#F0F3FA" d="M0 0h56v56H0z"/><path d="M26.3 12c.24 0 .47.12.6.33.95 1.82 3.6 2.8 6.69 3.92l1.08.4.31.12C39.76 18.57 45 21.1 45 28c0 7.04-5.47 9.53-10.33 11.34l-.31.12-.77.28c-3.08 1.13-5.74 2.1-6.7 3.93a.72.72 0 0 1-.85.28.5.5 0 0 1-.35-.7c1.15-2.21 4.17-3.31 7.36-4.48l.15-.05.3-.11.16-.06.46-.17.46-.17.3-.12c2.63-1.01 5.23-2.24 6.92-4.32-2.41 2.22-6.23 3.32-9.88 4.29l-.37.1-.36.09-.45.12c-3.9 1.02-7.52 2.04-8.8 4.26a.6.6 0 0 1-.73.21.41.41 0 0 1-.26-.59c1.48-2.56 5.31-3.64 9.44-4.72l.46-.12 2.36-.64.36-.1.36-.1c3.11-.91 5.98-2.04 7.67-4.05-2.07 1.96-5.58 2.95-9.34 3.73l-.41.08-2.5.5c-5.24 1-10.18 1.94-11.9 4.75a.47.47 0 0 1-.58.16.33.33 0 0 1-.19-.48c1.9-3.11 7.04-4.1 12.47-5.13l1.45-.28.41-.08c5.02-.99 9.53-2.15 11.08-5.22-2.28 2.65-8.31 3.47-14.18 4.27l-.5.07-.98.13-.5.07-.48.07c-5.06.73-9.79 1.66-11.26 3.97a.37.37 0 0 1-.44.1.25.25 0 0 1-.14-.35c1.87-2.9 7.85-3.72 14.2-4.59l.64-.08.21-.03.43-.06.22-.03.43-.06.43-.06c5.55-.8 10.75-1.84 11.96-4.65-1.66 2.23-7.75 2.86-14.29 3.46l-.71.07-1.95.18-.49.04-.48.05c-5.9.58-11.36 1.37-12.8 3.55a.25.25 0 0 1-.3.07.16.16 0 0 1-.09-.24c1.6-2.42 7.59-3.2 13.86-3.8l.49-.05.24-.02.74-.07.73-.07 2-.18.45-.04c6.55-.64 12.61-1.5 12.61-4.27 0-2.78-6.06-3.64-12.61-4.27l-.45-.04-2-.19-.73-.06-.5-.05-.48-.04-.49-.05c-6.27-.6-12.25-1.38-13.86-3.8a.16.16 0 0 1 .1-.24.25.25 0 0 1 .1-.03c.07 0 .14.04.19.1 1.44 2.18 6.9 2.97 12.8 3.55l.48.04.49.05 1.95.18.24.02.47.05c6.54.6 12.63 1.22 14.3 3.46-1.24-2.86-6.55-3.88-12.19-4.68l-.43-.06-.64-.1-.43-.05-.65-.09-.78-.1-.51-.08c-5.85-.8-11.16-1.7-12.9-4.4a.25.25 0 0 1 .14-.36l.15-.03c.12 0 .23.05.3.14 1.56 2.45 6.82 3.35 12.23 4.1l.74.1.74.1.44.07.45.06.9.12.44.07c5.1.72 9.95 1.64 11.95 3.95-1.63-3.19-6.44-4.32-11.7-5.33l-.61-.12-.63-.12c-5.43-1.04-10.56-2.02-12.47-5.13a.33.33 0 0 1 .19-.48.47.47 0 0 1 .2-.04c.14 0 .29.07.37.2 1.67 2.72 6.36 3.7 11.4 4.66l.5.1 1.05.2.63.12.41.08c4.07.81 7.96 1.8 10.18 3.9-1.91-2.28-5.35-3.43-8.94-4.41l-.36-.1-1.46-.38-.46-.12c-4.13-1.09-7.96-2.17-9.44-4.73a.41.41 0 0 1 .26-.59.6.6 0 0 1 .23-.04c.2 0 .39.09.5.25 1.33 2.3 5.17 3.31 9.25 4.38.98.26 1.98.52 2.97.8l.37.12c2.76.82 5.41 1.86 7.25 3.55-1.82-2.24-4.7-3.48-7.51-4.54l-.3-.11-.92-.33-.41-.16c-3.04-1.1-5.85-2.2-6.95-4.33a.5.5 0 0 1 .35-.7.76.76 0 0 1 .25-.04Z" fill="url(#asrfmexsf)"/><defs><linearGradient id="asrfmexsf" x1="46.71" y1="27.2" x2="21.05" y2="27" gradientUnits="userSpaceOnUse"><stop stop-color="#F9A032"/><stop offset=".92" stop-color="#55A196"/></linearGradient></defs></svg>