<!-- by TradingView --><svg width="56" height="56" xmlns="http://www.w3.org/2000/svg"><path fill="#5E6A71" d="M0 0h56v56H0z"/><path d="M10.997 24.545v8.06L27.867 44l16.441-12.041V23.05L28.022 12 10.997 24.545z" fill="#fff"/><path d="M30.903 13.89L28 16.1v-.626l-3.73 2.627-6.977 5.131-5.364 3.98c-.291.222-.64.465-.933.687v-.667l1.264-.95 10.28-7.596 7.41-5.442.953.646zm1.927 1.31L28 18.827v-.667l-11.445 8.323-5.559 4.101v-.666l14.907-10.99 5.975-4.396.952.666zM10.996 32.632l2.76-2.048L29.48 19.03l4.321-3.186.952.646L28 21.555v-.667l-9.52 6.91v1.454l-1.75 1.313-4.205 3.1-1.529-1.032zm1.937 1.315l22.836-16.81.934.647L28 24.262v-.647l-9.52 6.91v1.433l-4.07 3-1.477-1.01zm1.924 1.313l10.113-7.464 12.688-9.31.953.627L28 26.989v-.666l-9.52 6.908v1.435l-2.146 1.585-1.477-.99zm1.873 1.288l22.836-16.77.952.627L28 29.696v-.647l-9.52 6.89-.079 1.742-1.671-1.132zm1.908 1.302l22.888-16.767.932.626-6.527 4.774-7.346 5.395.544.362-8.995 6.621-1.496-1.01zm1.905 1.293l22.752-16.851.922.627-6.207 4.756.564.364-1.496 1.09v-.787l-6.589 4.829.545.382-8.975 6.6-1.516-1.01zm1.948 1.28l14.82-10.869 7.081-5.232v1.313l-4.477 3.334.564.383-3.401 2.465v-.789l-4.684 3.454.564.385-8.97 6.586-1.497-1.03zm1.925 1.313l16.471-12.082 3.505-2.625v1.313l-2.553 1.92.564.402-5.325 3.859v-.807l-2.78 2.06.584.383-8.97 6.587-1.496-1.01zm1.857 1.39l13.759-10.139 4.587-3.433v1.293l-.143.342-.084.23-7.315 5.324v-.34c-.233.18-.602.484-.855.665h.466l-9.326 6.83-1.09-.773zM29.051 12.66c-.35.263-.7.492-1.051.755v-.626l-5.771 4.12-7.832 5.778-3.402 2.505v-.646l8.532-6.343 8.506-6.24 1.018.697z" fill="#5E6A71"/></svg>