<!-- by TradingView --><svg width="56" height="56" viewBox="0 0 56 56" xmlns="http://www.w3.org/2000/svg"><path fill="#F0F3FA" d="M0 0h56v56H0z"/><path d="M8 26v1H6.5v4h-1v-3.5L6 27H4v-1h4Zm15.94 1.53c0 .74-.44 1.47-1.2 1.47H21v2h-1v-4l1 .67V28h.97c.59 0 1.03 0 1.03-.47 0-.46-.45-.53-1.03-.53H20v-1h2c.94 0 1.94.48 1.94 1.53Zm-2.07 1.97.89 1.5H24l-.95-1.5h-1.18ZM35.9 31H37l-2.5-5-.5 1 .5 1h-1L32 31h1.1l1.4-3 1.39 3Zm2.61-1h2v1h-3l1-1Zm0 0h-1v-4h1v4Zm3.5-3v-1h-1v5h1v-3l-1-1h1Zm6 4h-1l-3-3.43V31h-1v-3.5h1l-1-1V26h1l3 3.43V26h1v5Zm2-4h2v-1h-3v1h1Zm0 2h2v-1h-2v-1l-1 1v1h1Zm0 0-1 1v1h3v-1h-2v-1Zm-19 2v-5h-1.14L28 29l-1.85-3H25l1 1.5h-1V31h1v-3.5l2 3 2-2.75V31h1ZM9 28.5c0 1.4 1.1 2.5 2.5 2.5s2.5-1.11 2.5-2.5c0-1.4-1.1-2.5-2.5-2.5-1.38 0-2.5 1.1-2.5 2.5Zm4 0c0 .88-.58 1.5-1.5 1.5-.93 0-1.5-.61-1.5-1.5 0-.5.18-.9.5-1.17L10 27h1.5c.92 0 1.5.61 1.5 1.5Zm3-2.5v3l-1-.67V26h1Zm-1 3h1v.06c0 .67.36.94 1 .94.65 0 1-.27 1-.94V26h1v3.06c0 1.16-.88 1.94-2.02 1.94-1.15 0-1.98-.79-1.98-1.94V29Z" fill="url(#an4rr4lon)"/><defs><linearGradient id="an4rr4lon" x1="6" y1="29" x2="52.5" y2="28.5" gradientUnits="userSpaceOnUse"><stop stop-color="#00A6AC"/><stop offset=".47" stop-color="#009BD6"/><stop offset="1" stop-color="#20254C"/></linearGradient></defs></svg>