<!-- by TradingView --><svg width="56" height="56" viewBox="0 0 56 56" xmlns="http://www.w3.org/2000/svg"><path fill="#00529B" d="M0 0h56v56H0z"/><path fill-rule="evenodd" d="M52 23h-5.7v2H48v7h2v-7h2v-2ZM6 23H4v2h2v7h2v-7h1.7v-2H6Zm4 9v-9h4.16c.8.1 2.34.9 2.34 3.3 0 1.57-.94 2.44-1.9 2.88l.4.65L19.62 23h1.89v9h-2v-1h-2.72l-.52.82.1.18h-2.08l-1.93-2.3H12V32h-2Zm2-7h1.12c.76 0 1.38.6 1.38 1.35 0 .75-.62 1.35-1.38 1.35H12V25Zm7.5 4v-2.23L18.07 29h1.43Zm2.5 3v-9h1.71L27 27.67V23h2v9h-1.78L24 27.33V32h-2Zm9.66-3h-2.24c0 2.48 2.24 3 3.02 3 .76 0 3.02-.24 3.1-2.34a4.38 4.38 0 0 0 3.7 2.34h1.27l.67-1H44v1h2v-9h-2.06l-4.66 7a2.5 2.5 0 1 1 1.93-4.32l1.06-1.58a4.32 4.32 0 0 0-6.75 1.27C35.36 23.69 34 23 32.78 23c-1.28 0-3.01.91-3.01 2.6 0 1.7 1.6 2.44 2.55 2.84.95.4 1 .7 1 .92 0 .22-.1.64-.88.64-.63 0-.78-.59-.78-1Zm3.7-3.29h-1.83c.03-.29-.07-.71-.75-.71-.67 0-.77.35-.74.6 0 .14.14.48.74.77l.31.14c.56.25 1.39.61 1.92 1.34a4.66 4.66 0 0 1 .35-2.14ZM42.51 29 44 26.77V29h-1.49Z" fill="#fff"/></svg>