<!-- by TradingView --><svg width="56" height="56" viewBox="0 0 56 56" xmlns="http://www.w3.org/2000/svg"><path fill="#F0F3FA" d="M0 0h56v56H0z"/><path d="M13.48 24.91c.36-1.47-.5-3.87-.99-4.88-.78-2.18.83-3.16 1.42-3.41s5.15-1.35 6.26-1.72c1.1-.38 1.59-1.25 1.97-1.48.39-.22 1.39-.7 2.51-1.22 1.13-.53 2-1.2 3.06-1.2 1.05 0 2.15.9 2.74 1.2.6.3 2.51 1.42 4.03 2.25 1.51.82 6.82 2.27 8.43 2.87 1.3.48 1.17 2.45.95 3.38-.6 3.53-1.85 11.05-2.09 12.93-.29 2.36-3.18 5.88-3.57 6.07-.39.19-2.13 2.1-2.74 2.7-.6.6-1.34.83-1.93 1.09-.59.25-1.1 1.1-1.87 1.6-.76.51-1.89.7-2.32.96-.44.25-1.22.95-1.98.95s-1.59-.85-1.98-1.2c-.4-.37-.83-.3-1.65-.7-.83-.4-2.16-1.15-4.42-2.7-2.26-1.57-1.02-1.2-3.78-3.65A12.42 12.42 0 0 1 12 33.63v-4.48c0-2.04 1.03-2.4 1.48-4.24Z" fill="#C32A2B"/><path d="M30.24 27.39h1.3c-.48-.17-1.36-.51-.98-.51h2.29c.17 0-1.23-.27-1.96-.4l2.72-.18-2.72-.33 2.05-.17-3.38-.69 1.87-.18-1.01-.4 1.01-.12-1.34-.37c.4 0 1.25-.03 1.34-.1.1-.09.35-.26.46-.34l-1.33-.34c.26-.25.88-.76 1.33-.81.57-.06.64.2.38.37-.2.12-.33.26-.38.31a6.97 6.97 0 0 0 1.53-.41c.15-.13.4-.3.5-.38h.99l-.57.48a5.98 5.98 0 0 1 1.2-.48c.22 0 .7.1.57.1-.12 0-.88.34-.98.52-.05.09-.05.09.1.06.14-.02.43-.06.96-.06h1.65c.27 0 .8-.24.5-.24-.3 0-1.18-.27-1.05-.27h1.52c.3.02.52.02.18-.11a6.87 6.87 0 0 0-.58-.18c-.43-.12-.77-.22-.08-.17a4.14 4.14 0 0 0 2-.26c.13-.1.5-.48.67-.65-.19-.2-.63-.58-.89-.56-.1.01-.68-.03-1.58-.1-2.15-.14-6.1-.42-9.27-.42H18.79c-.39 0-1.85.17-1.79 1.77l.02.44c.06 1.52.12 3.36.7 5.04.62 1.84 1.48 2.23 2.69 2.25.96.01 2.3-.18 2.86-.28v.73c0 .13-.17.43-.39.22-.21-.22-.52-.12-.44.37l.04.28c.04.24.05.29-.04.35a.43.43 0 0 1-.17.05c-.15.03-.33.06-.36.3-.02.24-.01.37 0 .48v.13c0 .05.04.11.07.18.07.12.14.26.06.4-.07.12-.17.22-.27.31-.08.07-.15.14-.2.21 0 .16.06.19.11.21.07.03.1.05 0 .28-.2.42-.22.47-.22.72l-.03.33c-.05.33-.12.78.03.9l.1.07c.18.12.3.2.12.47a3.82 3.82 0 0 0-.45 1.56c0 .26.07.56.14.82.05.2.1.38.1.51v.04c0 .32 0 .94.27 1.48.3.57.77 1.27 1 1.33.19.06.39-.15.46-.27.12.16.39.43.48.27.07-.1.1-.2.13-.28.03-.08.05-.14.08-.13h.03c.12.03.54.13.52 0a1.35 1.35 0 0 0-.25-.43c.12.07.33.14.25-.2-.08-.32-.15-.75-.2-1.12l-.05-.27c-.04-.23-.07-.7-.1-1.13-.02-.37-.04-.7-.06-.81-.04-.25-.18 1.1-.2 1.52-.02.42-.15-1-.15-1.72s.15-1.55.15-1.55c-.1.1-.35.3-.44.38-.04.03-.07.02-.1 0-.05-.03-.1-.06-.16.3-.09.54-.1.64-.24.59-.14-.06-.3-.23-.15-.48a.72.72 0 0 0 .08-.17c.02-.08.03-.11.25-.24a.83.83 0 0 0 .43-.84c0-.07-.01-.12.06-.18.05-.04.06-.03.07.02.01.07.03.18.2.28l.12.08c.07.04.1.07.13.06.03 0 .05-.06.09-.18l.02-.07.17-.68a5.05 5.05 0 0 1 .22-.8c.07-.22.15-.45.17-.02.01.24-.02.43-.05.56-.03.18-.04.24.1.15.19-.1.27-.3.33-.45a.71.71 0 0 1 .07-.16c.03-.03.03-.03.03-.01 0 .02 0 .07.17-.09.32 0 .1.35 0 .49a.35.35 0 0 1-.14.1c-.07.04-.11.06 0 .12.2.1.4-.06.57-.29.06-.08.15-.26.25-.47.19-.38.4-.83.52-.8.13.02.1.18.08.32a.66.66 0 0 0-.02.15l-.01.1c-.02.04-.02.07.09.12.06.03.09.08.12.13.04.08.07.14.24.03.26-.16.37-.34.23-.5a1.76 1.76 0 0 0-.1-.1c-.08-.08-.13-.13-.13-.25 0-.07-.05-.07-.1-.07-.08 0-.16 0-.06-.25l.14-.42c.08-.28.15-.53.25-.5.1.05 0 .47-.06.72l-.04.2c.01.06.2.12.3-.09.12-.21.12-.21.27-.23.16 0 .4-.06.28-.26-.06-.1.14-.3.32-.47.16-.15.3-.3.27-.36-.04-.09-.14-.08-.22-.08-.07 0-.13.01-.13-.05 0-.04.1-.14.21-.28.24-.26.6-.67.68-1.07.05-.23.04-.38.03-.5 0-.18 0-.3.18-.57.16-.22.35-.4.5-.55.15-.15.26-.25.26-.33 0-.11.04-.37.06-.48Zm-9 7.13c-.17 0-.3-.1-.2-.3.05-.1.06-.15.07-.2.02-.07.03-.1.13-.15.06-.02.1-.07.15-.11.08-.07.12-.1.08.11-.05.27-.18.55-.23.65Zm.25-1.97c.01.13.04.2.08.23.03 0 .1 0 .14-.04.06-.03.06-.46 0-.59-.05-.1-.09-.06-.17.01l-.05.05c-.08.07-.05.15-.03.22l.03.12Zm.62-1.54c-.02-.09-.05-.2.01-.3.08-.1.2-.16.24-.02.04.14.04.21 0 .3-.03.07-.17.09-.24.09l-.01-.07Zm.44-1.16c.08.1.27.1.35.07.04-.14.09-.44 0-.49-.09-.04-.13-.01-.28.09a6.6 6.6 0 0 1-.13.09c-.16.1-.13.12-.07.15.04.02.1.04.13.1Zm2.3 9.68c-.08-.2-.3-.87-.23-1.16.06-.28.1-.45.17-.47a.2.2 0 0 0 .05-.04c.08-.09.22-.23.25.24.01.22.04.44.07.64.04.36.08.66.02.74l-.03.04c-.1.15-.25.38-.3.01Zm-.28-2.31c0 .1.16.14.48.21.1-.06.05-.31.02-.5l-.02-.15c0-.12-.48-.06-.68.06-.13.07-.02.16.08.25.06.05.12.1.12.13Zm.4-1.6c-.08-.01-.1-.02-.07-.12a.25.25 0 0 0 0-.13c-.01-.06-.02-.1.14-.15l.1-.04c.17-.07.26-.11.23.04-.02.07-.07.13-.11.17-.06.07-.1.1.03.1a.4.4 0 0 1 .17.04c.07.03.11.05.23-.14.08-.12.14-.29.2-.44.07-.2.13-.37.2-.33.14.07.12.26.08.43l-.02.1c-.02.13-.04.24-.16.35l-.12.09c-.1.07-.18.11-.18.27 0 .08.04.18.08.27.05.12.1.25.05.35-.08.17-.34.28-.53.12-.18-.16-.2-.3-.18-.53.02-.17.01-.36 0-.43a.54.54 0 0 0-.14-.03Z" fill="#F0F3FA"/></svg>