<!-- by TradingView --><svg width="56" height="56" viewBox="0 0 56 56" xmlns="http://www.w3.org/2000/svg"><path d="m33.46 39.28-2.03 2.03-1.88-1.88-5.46-5.46-3.9 3.9L14.04 44l-2.03-2.03 9.15-9.14.89-.89-1.52-1.52 2.03-2.03 10.89 10.89Z" fill="#FEFFF9"/><path d="m31.53 14.7 1.9 1.89-3.07 3.06-1.9-1.9 3.07-3.06Zm-2.13 8.73-6.16-6.15-.66-.66 1.9-1.9 2.9 2.92 3.68 3.67.75.75 10.04-10.03L44 14.18 33.97 24.22l1.4 1.39-1.9 1.89-4.07-4.07Zm11.9 8.12-1.89 1.9-3.09-3.1 1.9-1.89 3.09 3.1Zm-19.9-6.74.63-.63-1.3-1.3L12 14.14 14.15 12 24.2 22.03l1.42-1.42 1.9 1.9s-.26.24-.67.66L16.59 33.4l-1.9-1.9 6.71-6.7Zm-6.68-.2 2.03-2.04 2.97 2.97-2.03 2.03-2.97-2.97Zm24.66-2.06 1.9 1.89-1.94 1.94-4.16 4.15-1.24 1.25 1.1 1.1 8.93 8.93-2.15 2.15-10.04-10.03-1.35 1.36-1.9-1.9 10.85-10.84ZM24.44 41.27l-1.9-1.9 3-2.99 1.9 1.9-3 2.99Z" fill="#FEFFF9"/></svg>