<!-- by TradingView --><svg xmlns="http://www.w3.org/2000/svg" width="56" height="56" viewBox="0 0 56 56"><path fill="url(#aj0pwhifr)" d="M0 0h56v56H0z"/><path d="M16 18H9v4h7v18h4V22h7v-4H16z" fill="#fff"/><path d="M26 29a11 11 0 0 1 20-6.33l-3.21 2.39A7 7 0 0 0 30 29h-4z" fill="url(#bj0pwhifr)"/><path d="M37 40c3.3 0 6.25-1.45 8.27-3.74l-2.97-2.68A6.98 6.98 0 0 1 30 29h-4a11 11 0 0 0 11 11z" fill="url(#cj0pwhifr)"/><circle cx="28" cy="29" r="2" fill="#08C2F3"/><circle cx="43.71" cy="35" r="2" fill="#FFAE81"/><defs><linearGradient id="aj0pwhifr" x1="10.42" y1="9.71" x2="68.15" y2="76.02" gradientUnits="userSpaceOnUse"><stop stop-color="#1A1E21"/><stop offset="1" stop-color="#06060A"/></linearGradient><radialGradient id="bj0pwhifr" cx="0" cy="0" r="1" gradientUnits="userSpaceOnUse" gradientTransform="rotate(-10.33 175.95 -137) scale(20.5035 37.4775)"><stop stop-color="#2A4298"/><stop offset=".61" stop-color="#0EBFD1"/><stop offset="1" stop-color="#44F38F"/></radialGradient><linearGradient id="cj0pwhifr" x1="27.63" y1="30.61" x2="43.36" y2="40" gradientUnits="userSpaceOnUse"><stop stop-color="#5E1E8A"/><stop offset=".52" stop-color="#EC087D"/><stop offset="1" stop-color="#FA780C"/></linearGradient></defs></svg>