<!-- by TradingView --><svg width="56" height="56" viewBox="0 0 56 56" xmlns="http://www.w3.org/2000/svg"><path fill="#F0F3FA" d="M0 0h56v56H0z"/><path d="M16.94 24H14v-8h2.97c2.4 0 4.03 1.64 4.03 4 0 2.4-1.66 4-4.06 4Zm-1.44-1.5h1.62c1.59 0 2.38-.97 2.38-2.5 0-1.54-.8-2.5-2.38-2.5H15.5v5ZM4 28h1.5L8 33.5l2.5-5.5H12v8h-1.5v-4.48L8.52 36H7.48L5.5 31.5V36H4v-8ZM16.12 36c-1.8 0-3.12-1.16-3.12-3 0-1.76 1.3-3 3.05-3A2.84 2.84 0 0 1 19 32.95v.44h-4.72v-1h3.22c0-.71-.74-1.39-1.42-1.39-.71 0-1.57.71-1.58 1.45v.95c0 .84.81 1.4 1.65 1.4.49 0 1-.19 1.2-.68l1.61.1c-.3 1.29-1.66 1.78-2.84 1.78ZM25.12 24c-1.8 0-3.12-1.16-3.12-3 0-1.76 1.3-3 3.05-3A2.84 2.84 0 0 1 28 20.95v.44h-4.72v-1h3.22c0-.71-.74-1.39-1.42-1.39-.71 0-1.57.71-1.58 1.45v.95c0 .84.81 1.4 1.65 1.4.49 0 1-.19 1.2-.68l1.61.1c-.3 1.29-1.66 1.78-2.84 1.78ZM32.12 24c-1.8 0-3.12-1.16-3.12-3 0-1.76 1.3-3 3.05-3A2.84 2.84 0 0 1 35 20.95v.44h-4.72v-1h3.22c0-.71-.74-1.39-1.42-1.39-.71 0-1.57.71-1.58 1.45v.95c0 .84.81 1.4 1.65 1.4.49 0 1-.19 1.2-.68l1.61.1c-.3 1.29-1.66 1.78-2.84 1.78ZM49.12 36c-1.8 0-3.12-1.16-3.12-3 0-1.76 1.3-3 3.05-3A2.84 2.84 0 0 1 52 32.95v.44h-4.72v-1h3.22c0-.71-.74-1.39-1.42-1.39-.71 0-1.57.71-1.58 1.45v.95c0 .84.81 1.4 1.65 1.4.49 0 1-.19 1.2-.68l1.61.1c-.3 1.29-1.66 1.78-2.84 1.78ZM22.7 36C21 36 20 34.47 20 32.95c0-1.51 1.02-2.95 2.7-2.95.78 0 1.48.5 1.78.97V28H26v8h-1.5v-1.05c-.5.55-.98 1.05-1.8 1.05Zm.34-1c.94 0 1.48-1.25 1.48-2.06 0-1.06-.66-1.94-1.48-1.94-.94 0-1.54 1.13-1.54 1.94 0 1.03.7 2.06 1.54 2.06ZM39.3 18c1.7 0 2.7 1.53 2.7 3.05 0 1.51-1.02 2.95-2.7 2.95-.78 0-1.48-.5-1.78-.97V26H36v-8h1.5v1.05c.5-.55.98-1.05 1.8-1.05Zm-.34 1c-.94 0-1.48 1.25-1.48 2.06 0 1.06.66 1.94 1.48 1.94.94 0 1.54-1.13 1.54-1.94 0-1.03-.7-2.06-1.54-2.06ZM27.75 29.5a.73.73 0 0 1-.53-.22.73.73 0 0 1-.22-.53c0-.2.07-.38.22-.53a.72.72 0 0 1 .53-.22c.2 0 .38.07.53.22.15.15.22.32.22.53 0 .2-.07.38-.22.53a.72.72 0 0 1-.53.22ZM27 30v6h1.5v-6H27ZM36.75 29.5a.73.73 0 0 1-.53-.22.73.73 0 0 1-.22-.53c0-.2.07-.38.22-.53a.72.72 0 0 1 .53-.22c.2 0 .38.07.53.22.15.15.22.32.22.53 0 .2-.07.38-.22.53a.72.72 0 0 1-.53.22ZM36 30v6h1.5v-6H36ZM32.62 36c-1.7 0-2.62-1.42-2.62-3 0-1.57.93-3 2.61-3 1.32 0 2.33.9 2.39 2.22h-1.4c-.07-.58-.42-.96-.96-.96-.89 0-1.14 1-1.14 1.72s.24 1.75 1.14 1.75c.51 0 .88-.37.97-.97H35A2.3 2.3 0 0 1 32.62 36ZM40.5 32.58V36H39v-6h1.42v1.12h.07c.29-.69 1.1-1.12 2.07-1.12 1.31 0 1.94.91 1.94 2.23V36H43v-3.48c0-.73-.44-1.16-1.16-1.16s-1.33.44-1.34 1.22Z"/></svg>