<!-- by TradingView --><svg xmlns="http://www.w3.org/2000/svg" width="56" height="56"><path fill="#F0F3FA" d="M0 0h56v56H0z"/><path d="M28.17 44c-17.12 0-19.08-9.68-15.92-28h5.76c-5.14 23.29 2.65 25.14 5.91 25a3.22 3.22 0 003.24-3.11l-.23-.15c-.97-.64-2.36-1.56-2.36-2.36 0-1.33 2.14-1.38 3.38-1.38 1.4 0 3.22.31 3.24 1.38.02.85-1.67 2.03-2.52 2.5.4 2.36 2.57 3.25 3.6 3.12 9.67-.27 7.87-16.96 5.77-25h5.6c5.49 26.74-6.82 28-15.47 28zm5.49-11.67c-1.5 0-1.83-.76-1.83-1.26 0-2.38 1.8-3.82 3.6-3.82 1.13 0 1.92.6 2.43 1.16.32.34.4.63.18.94-.18.23-.67.15-.98-.17-1-1.03-2.32-.8-2.86-.54 1.56.2 1.87 1.3 1.83 1.83a2.37 2.37 0 01-2.37 1.86zM24 31.07c0 .5-.33 1.26-1.83 1.26a2.37 2.37 0 01-2.38-1.86c-.03-.52.28-1.63 1.84-1.83a2.57 2.57 0 00-2.87.54c-.3.32-.8.4-.97.17-.23-.3-.14-.6.17-.94a3.27 3.27 0 012.44-1.16c1.8 0 3.6 1.44 3.6 3.82z" fill="#847C6F"/></svg>