<!-- by TradingView --><svg width="56" height="56" xmlns="http://www.w3.org/2000/svg"><path fill="#F0F3FA" d="M0 0h56v56H0z"/><path d="M36 20.98c1.176 1.558 2.161 3.648 3 6.5 2.206 7.5-2 13-7 13-8.5 0-15-5.596-15-12.5s5.149-11 11.5-11h1c3.5 0 3.5-7-1.887-6.98C17.608 10.453 11 18.553 11 28.48c0 10.217 10.335 18 20 18s14.5-7.783 14.5-18c0-4.466-2.389-8.563-5.454-11.76-3.068-2.261-6.576-.121-4.046 4.26z" fill="#5DCEEE"/><path d="M44.996 24.995c.324 1.16.504 2.357.504 3.583 0 10.217-4.835 18-14.5 18s-20-7.783-20-18c0-8.197 4.506-15.15 11.71-17.578C17.904 13.736 15 19.117 15 25.308c0 8.963 8.987 15.79 17.391 15.79C40.796 41.098 45 34.27 45 25.308c0-.104-.002-.209-.004-.313z" fill="#F5C850"/><path d="M12.592 20.446A21.215 21.215 0 0012 25.467c0 10.217 10.335 18 20 18 6.312 0 10.564-3.32 12.755-8.469C43.059 41.833 38.474 46.487 31 46.487c-9.665 0-20-7.783-20-18 0-2.882.557-5.61 1.592-8.04z" fill="#D97062"/></svg>