<!-- by TradingView --><svg width="56" height="56" viewBox="0 0 56 56" xmlns="http://www.w3.org/2000/svg"><path fill="#F0F3FA" d="M0 0h56v56H0z"/><path d="M22 10h9v7h5v7h-5v13.18S30.96 39 32.5 39H36v7h-5.5s-8.5-.99-8.5-8.3V24h-3v-7h3v-7Z" fill="url(#az4tp2ulq)"/><path d="M31 30v6.04c-.74.76-1 2.04-1 4.11 0 2.61 1.56 4.67 3 5.85h-2.5c-2.06-1.43-4.5-3.94-4.5-7.62 0-4.13 3-6.99 5-8.38Z" fill="#6C91A5"/><path d="M31 26v1.63c-1.7.64-6.35 2.8-9 6.37v-2.87c1.6-1.26 4.15-3.48 9-5.13Z" fill="#5F889E"/><path d="M22 27v-.6c2.76-.56 7.25-1.47 6.99-1.4L22 27Z" fill="#57839A"/><path d="M36 21v.65c-2.46.67-5.18 1.43-4.99 1.34.23-.08 3-1.2 4.99-1.99Z" fill="#618A9E"/><path d="M29.14 34.85s.5-1.24 1.53-2.44v.95c-.48.4-.97.89-1.53 1.49Z" fill="#235B79"/><defs><linearGradient id="az4tp2ulq" x1="20.35" y1="8.2" x2="36.13" y2="48.22" gradientUnits="userSpaceOnUse"><stop stop-color="#046"/><stop offset="1" stop-color="#3E6F87"/></linearGradient></defs></svg>