<!-- by TradingView --><svg width="56" height="56" viewBox="0 0 56 56" xmlns="http://www.w3.org/2000/svg"><path fill="#F0F3FA" d="M0 0h56v56H0z"/><path d="M16.13 34.26s-1.68-4.02 1.84-5.34c3.5-1.31 4.16-2.74.27-6.07-3.91-3.34-4.16-10.3 2.78-9.83 7.67.53 6.47 6.98 6.42 8.35-.06 1.37-.58 6.87 3.57 6.55 4.15-.32 5.71-6.59 6.36-8.14.84-2 3.26-5.8 7.68-4.33 3.72 1.25 1.15 5.76.2 6.24 0 0 1.56-3.94-1.86-3.94s-5.73 7.29-5.94 8.03c-.21.74-1.63 6.92-6.41 6.44-4.79-.47-5.05-5.17-5.16-10.3-.1-5.12-2.68-6.69-5.15-6.6-2.23.08-3.65 3.14.05 6.44 3.4 3.04 3.37 6.6 1.37 8.09-2 1.48-4.65.08-6.02 4.4Z" fill="#F57F29"/><path d="M16 35.55s1.16 2.64 2.68 1.48c1.53-1.16-.31-5.39-5-8.6-4.67-3.23-5.38-4.95-4.14-6.24 1.7-1.78 19.55.47 17.19 20.81l-3.79-1.43s.29-9.48-2.2-12.46c-2.4-2.87-5.71-5.15-6.92-3.51-.76 1.02 2.08 2.77 3.44 4.46 1.37 1.69 6.63 8.45 2.84 9.88-3.78 1.42-4.1-4.39-4.1-4.39Zm30.18-13.2s-.14 1.66-4.95 2.1c-4.52.43-8.77.59-5.25 7.09 3.52 6.5.73 6.86-.84 6.07-1.58-.79-6.26-5.15-.8-15.61h-4.72s-4 19.1 6.38 18.7c4.37-.16 5-3.43 2.13-8-2.86-4.57-.73-5.34 2.74-6.13 3.6-.82 5.25-1.32 5.3-4.22Z" fill="#008599"/></svg>