<!-- by TradingView --><svg width="56" height="56" viewBox="0 0 56 56" xmlns="http://www.w3.org/2000/svg"><path fill="#F0F3FA" d="M0 0h56v56H0z"/><path fill-rule="evenodd" d="M23.57 11.74c-.4 0-.5.68-.5 1.02-.17-.17-.6-.5-1-.5-.3 0-.43.19-.59.46-.1.16-.22.36-.4.55-.24.24-.36.15-.52.04-.2-.14-.44-.31-.98-.04-.54.28-.5.4-.42.63.06.18.15.44-.08.9-.4.83-.83 0-1-.5-.5.34-1.6 1.23-2 2.04-.3.64-.23.68-.13.75.07.04.14.08.14.28 0 .31-.2.24-.46.14-.16-.07-.35-.14-.54-.14-.17 0-.28 0-.38.04-.18.08-.29.31-.62.98l-1 2.05c.17.17.4.61 0 1.02-.24.26-.37.26-.5.26-.12 0-.24 0-.49.25-.5.52-.5 2.56-.5 3.59 0 .6.17.67.31.73.1.04.19.08.19.29 0 .51-.5 1.02-1 1.53-.27.29.07.9.34 1.37.21.38.38.68.16.68-.33 0-.22.46-.1.91a3 3 0 0 1 .1.63c0 .25.25.25.5.25s.5 0 .5.26c0 .5 0 .5-.5 1.02-.32.33-.23.45 0 .76.14.17.32.4.5.78.4.81.83 1.36 1 1.53.33-.17 1-.4 1 0 0 .41-.34.85-.5 1.02 1 1.2 3.08 3.69 3.48 4.1.4.4.5-.17.5-.51.24.73.25 1.01.19 1.09l-.19-.07c.07.07.15.12.19.07.57.2 1.6.59 2.3.95l2 1.03c.56.29.65.08.7-.05.05-.1.08-.18.3.05.5.5 3.48 1.02 3.98 1.02.25 0 .25-.13.25-.26 0-.12 0-.25.25-.25.2 0 .24.09.29.19.05.14.12.32.7.32.8 0 2.67-.34 3.5-.51-.17-.17-.4-.62 0-1.02.4-.41.83.5 1 1.02l3.98-2.05c-.16-.17-.4-.61 0-1.02.4-.41.83.17 1 .51l2.5-2.56c.27-.29.08-.41-.14-.56-.17-.11-.37-.24-.37-.46 0-.41.67-.17 1 0a9.29 9.29 0 0 0 1.5-2.05c.33-.68.22-.9.1-1.14-.05-.11-.1-.22-.1-.4 0-.31.19-.24.45-.13.16.06.35.14.54.14.5 0 .5-2.56.5-3.59 0-.59 0-.84-.1-1.04-.06-.15-.19-.28-.4-.5-.4-.4.5-.84 1-1.01v-2.56c0-.51-.5-1.03-1-1.03s0-.5.5-1.02c.41-.42-.53-2.24-1.16-3.43l-.33-.66c-.34-.69-.67-.46-1-.23-.17.11-.33.23-.5.23-.5 0-.5-.52 0-1.03.5-.5-2-3.07-2.5-3.58-.3-.32-.42-.24-.58-.14a.7.7 0 0 1-.4.14c-.4 0-.5-.68-.5-1.02-1-.51-3.1-1.64-3.5-2.05-.28-.29-.4-.09-.54.14-.11.18-.23.37-.45.37-.5 0-.5-.5-.5-1.02 0-.34-.44-.23-.89-.11-.22.05-.44.1-.6.1-.5 0-2 0-2-.5 0-.32-.2-.05-.45.32-.17.24-.36.5-.55.7-.3.32-.42.05-.59-.33a2.3 2.3 0 0 0-.4-.7c-.35-.35-.94-.2-1.44-.1-.21.06-.4.1-.56.1-.25 0-.25.26-.25.52s0 .51-.25.51c-.2 0-.24-.09-.28-.19-.06-.15-.13-.32-.71-.32ZM28 43a15 15 0 1 0 0-30 15 15 0 0 0 0 30Z" fill="#005432"/><path fill-rule="evenodd" d="M28 40.5a12.5 12.5 0 1 0 0-25 12.5 12.5 0 0 0 0 25Zm0 .5a13 13 0 1 0 0-26 13 13 0 0 0 0 26Z" fill="#005432"/><path fill-rule="evenodd" d="M28 34.5a6.5 6.5 0 1 0 0-13 6.5 6.5 0 0 0 0 13Zm0 .5a7 7 0 1 0 0-14 7 7 0 0 0 0 14Z" fill="#005432"/><path fill-rule="evenodd" d="M28 36.5a8.5 8.5 0 1 0 0-17 8.5 8.5 0 0 0 0 17Zm0 .5a9 9 0 1 0 0-18 9 9 0 0 0 0 18Z" fill="#005432"/><path fill-rule="evenodd" d="M28 38.5a10.5 10.5 0 1 0 0-21 10.5 10.5 0 0 0 0 21Zm0 .5a11 11 0 1 0 0-22 11 11 0 0 0 0 22Z" fill="#005432"/><path d="m24 26.5.44-2.5h7.12l.44 2.5h-.44c-.06-1-.9-1.5-1.34-1.5h-.89c-.35 0-.33.33-.33.5v6c0 .4.7.83 1 1v.5h-4v-.5c.71 0 1-.67 1-1v-6c0-.4-.19-.5-.33-.5h-.9c-.7 0-1.18 1-1.33 1.5H24Z" fill="#005432"/></svg>