<!-- by TradingView --><svg width="56" height="56" xmlns="http://www.w3.org/2000/svg"><path fill="url(#paint0_linear)" d="M0 0h56v56H0z"/><path d="M4.154 21C4 21 4 21.121 4 21.221v2.423c.023.293.092.334.194.356h6.966s2.126.012 2.672.012c.093 0 .168-.107.168-.185V22.69v-1.493C14 21 13.92 21 13.82 21l-4.907.004c-2.59 0-4.76-.004-4.76-.004zM7.297 25c-.226 0-.275.295-.266.5v9.915s0 .585.695.585H10.53c.5 0 .5-.565.5-.565v-2.127c.47 1.192 1.667 2.332 3.596 2.688 2.967.548 6.21-1.122 6.568-4.271.016-.133.036-.278.048-.322.018-.066 1.021 3.938 1.16 4.323.045.126.16.274.242.274h3.628c.104 0 .2-.122.214-.25.044-.398.237-1.667.527-3.233.447-2.426.535-2.857.608-2.917a.337.337 0 01.112-.069c.016 0 .069.033.113.069.068.06.157.483.587 2.849.278 1.525.528 3.197.548 3.277.055.193.05.274.55.274.307.008.91 0 1.587 0h1.412c.5 0 .621-.274.621-.274s.18-.629.639-2.279l.563-2.024.089.535c.148 1.397 1.492 3.205 3.002 3.706 2.426.807 6.087.526 7.555-1.83v1.941c0 .194.257.225.257.225h2.562S48 36 48 35.843V32.36c.02-2.813.014-3.15.078-3.336.241-.716 1.47-1.018 3.108-1.09.362-.015.845 0 .845-.246V25.15c0-.221-.35-.224-.672-.221-.82.012-1.918.209-2.674.7-.576.374-.645.435-.685.37V25.5c0-.245.017-.5-.217-.5H45.5c-.5 0-.5.33-.5 1.46v1.04l-.15-.323c-.829-1.457-2.733-2.153-4.986-2.153-.777 0-1.284.049-1.868.181-.789.177-1.453.471-1.976.886l-.225.177.236-1.099s-.041-.169-.5-.169H34.19h-1.158c-.5 0-.504.109-.504.109s-.145.342-.708 2.793c-.716 3.139-.676 2.99-.809 3.022-.072.02-.125.004-.177-.049-.052-.056-.221-.784-.644-2.812-.551-2.652-.658-2.874-.658-2.874s-.03-.189-.5-.189H26.27c-.175 0-.365.092-.406.19-.016.04-.253 1.404-.527 2.905-.274 1.505-.515 2.756-.543 2.789-.073.084-.23.068-.294-.037-.032-.048-.314-1.303-.628-2.784-.314-1.485-.628-2.894-.628-2.894S23.137 25 23.042 25h-3.51c-.164 0 .355 1.014.355 1.248 0 .016-.1-.06-.221-.17-1.274-1.17-3.35-1.344-4.986-1.058-1.914.213-3.649 2.238-3.649 2.238v-2.025s0-.223-.193-.225C10.208 25 9.496 25 9.496 25c-1.312-.008-2.199 0-2.199 0zm33.798 4h-2.938c-.099-.837.588-1.388 1.374-1.396 1.124-.012 1.564.896 1.564 1.396zm-24.4-.853c.564.234.862.712.979 1.558.18 1.363-.09 3.2-1.856 3.074-.62-.048-1.014-.298-1.263-.805-.414-.835-.425-1.623-.057-2.479.097-.23.097-.314-.004-.415-.076-.076-.132-.08-1.61-.08h-1.853v-1h2.892c2.515.012 2.567.063 2.773.147zM45 32h-2.046c-1.423 0-1.83-.063-1.923.303-.092.367-.145.532-.37.738-.254.225-.52.314-.93.314-.841 0-1.308-.387-1.538-1.28-.088-.35-.124-1.035-.048-1.063C38.17 31 39.655 31 41.41 31H45v1z" fill="#fff"/><defs><linearGradient id="paint0_linear" x1="0" y1="28" x2="56" y2="28" gradientUnits="userSpaceOnUse"><stop stop-color="#00529C"/><stop offset=".141" stop-color="#005D98"/><stop offset=".247" stop-color="#006496"/><stop offset=".385" stop-color="#006A92"/><stop offset=".523" stop-color="#00748D"/><stop offset=".624" stop-color="#007B89"/><stop offset=".724" stop-color="#008085"/><stop offset=".82" stop-color="#008681"/><stop offset=".904" stop-color="#008F79"/><stop offset="1" stop-color="#009E68"/></linearGradient></defs></svg>