<!-- by TradingView --><svg width="56" height="56" viewBox="0 0 56 56" xmlns="http://www.w3.org/2000/svg"><path fill="#F0F3FA" d="M0 0h56v56H0z"/><path opacity=".5" fill="#1F1F1F" d="M28 31h13v1H28z"/><path fill="#2FA5E2" d="M15 31h.77v1H15zm2.37 0h.77v1h-.77z"/><path fill="#83BA5D" d="M19.19 31h.77v1h-.77z"/><path fill="#EEAF68" d="M20.83 31h.77v1h-.77z"/><path fill="#83BA5D" d="M21.92 31h.77v1h-.77z"/><path fill="#2FA5E2" d="M23.71 31h.77v1h-.77z"/><path fill="#EEAF68" d="M25.43 31h.77v1h-.77zM16 31h.42v1H16z"/><path fill="#83BA5D" d="M16.64 31h.42v1h-.42z"/><path fill="#EEAF68" d="M18.46 31h.42v1h-.42z"/><path fill="#2FA5E2" d="M20.19 31h.42v1h-.42z"/><path fill="#EEAF68" d="M22.98 31h.42v1h-.42z"/><path fill="#83BA5D" d="M24.71 31h.42v1h-.42z"/><path fill="#2FA5E2" d="M26.5 31h.42v1h-.42z"/><path fill="#83BA5D" d="M27.14 31h.42v1h-.42z"/><path fill-rule="evenodd" d="M14.8 25h3.7v.7H17V30h-.7v-4.3h-1.5V25Zm4.44 5h-.85l2.05-5h.8l2.02 5h-.83l-.38-1h-2.42l-.39 1Zm1.62-4.14.92 2.44H19.9l.96-2.44ZM36 30h.87l.4-1h2.48l.39 1H41l-2.07-5h-.83L36 30Zm0 0h-.7v-2.3h-2.6V30H32v-5h.7v2h2.6v-2h.7v5Zm3.48-1.7-.95-2.44-.98 2.44h1.93ZM23.23 25 25 27.96V30h.7v-2.04L27.5 25h-.9l-1.25 2.2L24.1 25h-.87Zm7.58.62-.43.54c-.12-.15-.53-.46-1.2-.46-.82 0-1.05.4-1.05.67 0 .26.2.59 1.15.72.93.12 1.7.64 1.7 1.44 0 .8-.77 1.47-1.82 1.47a3.1 3.1 0 0 1-1.85-.68l.38-.62c.24.19.87.56 1.42.56.7 0 1.13-.21 1.13-.68 0-.47-.6-.7-1.16-.79-.57-.08-1.67-.4-1.67-1.36 0-.96.8-1.43 1.7-1.43.73 0 1.44.41 1.7.62Z" fill="#242424"/><path fill-rule="evenodd" d="M28 45a17 17 0 1 0 0-34 17 17 0 0 0 0 34Zm0-1a16 16 0 1 0 0-32 16 16 0 0 0 0 32Z"/></svg>