<!-- by TradingView --><svg xmlns="http://www.w3.org/2000/svg" width="56" height="56" viewBox="0 0 56 56"><path fill="#F0F3FA" d="M0 0h56v56H0z"/><path fill-rule="evenodd" d="M30.47 24h-1v5.11c0 1.82 1.46 2 2.19 1.85v-1.18c-.9.1-1.04-.47-1-.77v-2.36h1.5l1.34 4.44-.65 1.91h1.13a.2.2 0 0 0 .19-.14l2.2-7.34h-1.18a.2.2 0 0 0-.19.15l-.88 3.39-.84-3.17a.5.5 0 0 0-.49-.37h-2.12V24.2a.2.2 0 0 0-.2-.2zM6 25.5c-1.73-.03-2 1.28-1.92 1.94h.46c0-1.21.88-1.4 1.46-1.43.58-.03 1.2.4 1.2 1.04 0 .65-.69.94-1.94 1.21-1 .22-1.27.83-1.27 1.1V31h3.7v-.5H4.55v-1.02c.03-.5.77-.75 1.14-.82 1.48-.27 1.93-.88 2.01-1.22.16-.63.04-1.9-1.69-1.94zm4.05 0c1.6-.02 1.92 1.2 1.88 1.83h-.98c-.11 0-.2-.1-.23-.2a.7.7 0 0 0-.67-.55c-.5-.03-.77.24-.77.49s.27.53 1.47.9c.98.3 1.23 1.01 1.24 1.36.02.56-.2 1.66-1.94 1.67-1.73 0-2.1-1.23-2.06-1.85h.95c.12 0 .2.1.24.2.1.29.37.62.87.6.5-.03.68-.36.7-.53.03-.27-.2-.47-1.31-.8-1.12-.33-1.38-1.17-1.35-1.55-.01-.51.37-1.54 1.96-1.57zm2.26 1.93a1.93 1.93 0 1 1 3.86 0v1.27h-2.7v.52a.77.77 0 0 0 1.51.2c.03-.1.12-.2.23-.2h.95a1.93 1.93 0 0 1-3.85-.15v-1.64zm2.7-.15v.33h-1.55v-.33a.77.77 0 0 1 1.55 0zm7.56-1.78c-1.06 0-1.93.86-1.93 1.93v1.64a1.93 1.93 0 0 0 3.86.16h-.96c-.1 0-.2.09-.22.2a.78.78 0 0 1-1.52-.21v-.52h2.7v-1.27c0-1.07-.86-1.93-1.93-1.93zm.78 2.1v-.32a.77.77 0 0 0-1.55 0v.33h1.55zm-7.12-2.1L17.8 31h1.23l1.56-5.5h-1.3l-.85 3.5-.9-3.5h-1.3zm25.24 0h.55V31h-.55v-5.5zm-15.46 0c.11 0 .2.09.2.2v.32A1.6 1.6 0 0 1 29 27.1V31h-1a.2.2 0 0 1-.2-.2v-3.47a.79.79 0 1 0-1.58 0V31H25v-5.5h1.02zm15.74-.75a.37.37 0 1 0 0-.75.37.37 0 0 0 0 .75zM37.3 24h-.55v6.9h.55v-.72a1.83 1.83 0 0 0 3.35-1v-1.85a1.83 1.83 0 0 0-3.35-1.01V24zm0 5.69v-2.84a1.51 1.51 0 0 1 2.87.66v1.52a1.51 1.51 0 0 1-2.87.66zm5.5-2.28a1.9 1.9 0 0 1 3.83 0v1.68a1.9 1.9 0 0 1-3.82 0v-1.68zm.49 0a1.43 1.43 0 0 1 2.86 0v1.68a1.43 1.43 0 0 1-2.86 0v-1.68z"/><path d="M51.26 21.89l-3.6 6.79 1.84-7.24c.37-.2 1.33.22 1.76.45z" fill="#6ABF4A"/><path d="M51.24 20.04l-5.52 1.1 4.37.46c.84.12.9.6.84.9l.97-1.86c.1-.21.16-.38 0-.53-.18-.16-.48-.1-.66-.07z" fill="#146F44"/></svg>