<!-- by TradingView --><svg width="56" height="56" xmlns="http://www.w3.org/2000/svg"><path fill="#0099FA" d="M0 0h56v56H0z"/><path d="M20 11v5h6v14h5V11H20z" fill="#fff"/><path d="M17.183 28.894c0-4.124 2.276-8.046 5.634-9.894h-7.688C13.163 21.674 12 25.312 12 28.894c0 7.107 4.655 13.137 11 15.275v-5.66c-3.413-1.833-5.817-5.45-5.817-9.615zM33 13.657v5.675c3.358 1.85 5.82 5.437 5.82 9.563 0 6.012-4.846 10.889-10.82 10.889-.891 0-2.172-.11-3-.314v5.32c.842.136 2.12.21 3 .21 8.836 0 16-7.21 16-16.105 0-7.07-4.708-13.07-11-15.238z" fill="#fff"/></svg>