<!-- by TradingView --><svg width="56" height="56" xmlns="http://www.w3.org/2000/svg"><path fill="#2B3A42" d="M0 0h56v56H0z"/><path d="M43.934 23.001c2.968 0 4.81 2.214 5.037 3.554.056.33-.08.427-.183.44-.382.003-1.2.007-1.42 0a.623.623 0 01-.443-.239c-.3-.509-1.072-1.731-2.99-1.756-1.92-.025-3.968 1.537-3.931 4 .037 2.463 1.71 4 3.93 4s2.754-1.337 2.987-1.678c.173-.252.308-.32.415-.322a52.872 52.872 0 011.409 0c.275.009.265.314.226.463C48.338 33.862 46.01 35 43.934 35c-4.12 0-5.904-2.898-5.934-6-.03-3.102 2.174-5.999 5.934-5.999zM13.726 18H12.26c-.195 0-.254.196-.259.293v12.334C12 33.784 14.66 35 15.969 35h.702c.237 0 .32-.204.333-.307v-1.347c0-.235-.107-.33-.16-.347h-.32c-2.062-.01-2.502-1.555-2.527-2.372V23c.469.004 1.642 0 1.78 0 .165 0 .222-.19.222-.306v-1.346c0-.234-.115-.346-.222-.346h-1.78v-2.709c0-.213-.18-.284-.27-.293zM20.733 20h-1.475c-.194 0-.253.172-.258.259V31.14C19 33.927 21.517 35 22.962 35h.701c.236 0 .332-.168.332-.27v-1.418c0-.207-.073-.312-.16-.312h-.32c-2.057-.01-2.487-1.258-2.512-1.98v-6.024c.468.004 1.603 0 1.765 0 .161 0 .232-.168.232-.259v-1.439c0-.207-.145-.298-.232-.298h-1.765v-2.741c0-.188-.18-.251-.27-.259zM16.663 36.998c-4 .331-5.386-2.273-5.655-3.616-.048-.278-.2-.37-.27-.382-.307.005-1.142.017-1.42.025s-.327.242-.317.357c.914 6.094 7.338 5.609 7.662 5.609.258 0 .332-.235.337-.353v-1.287c0-.25-.225-.339-.337-.353zM30.597 23.001c4.133 0 5.403 4.168 5.403 6.542 0 .392-.246.469-.369.459H27C27.542 32.517 29.246 33 30.782 33c1.907 0 2.578-1.262 2.766-1.628.15-.293.368-.378.452-.372h1.357c.294.03.305.328.274.461-.949 2.9-3.243 3.539-5.034 3.539C26.283 35 25 31.267 25 28.79c0-2.078 1.504-5.789 5.596-5.789z" fill="#fff"/><path d="M30.556 25c-2.362.01-3.355 2.004-3.556 3h7c-.164-1.004-1.082-3.01-3.444-3z" fill="#2B3A42"/><path d="M10.787 21.001h-1.53c-.257 0-.252.284-.257.366v1.313c0 .239.164.301.257.321h1.464c.23 0 .279-.186.279-.32v-1.314c0-.236-.05-.334-.213-.366z" fill="#fff"/></svg>