<!-- by TradingView --><svg width="56" height="56" xmlns="http://www.w3.org/2000/svg"><path fill="#004680" d="M0 0h56v56H0z"/><path d="M36 32c0 .391-.852.601-1.462.601-.817 0-1.538-.782-1.538-1.6v-2h5v-3h-5v-6H17v4h6v10h4V24h3v2h-2v3h2v3c0 2.16 1.355 4 4.233 4 2.776 0 4.683-1.784 4.76-4H36zm6 6.961c0 1.8-1.2 3.04-3 3.04H17.039C15.239 42 14 40.76 14 38.96V17.035c0-1.8 1.2-3.035 3-3.035h21.965c1.8 0 3.035 1.2 3.035 3v21.961zM39.163 12H16.836A4.836 4.836 0 0012 16.837v22.326A4.835 4.835 0 0016.836 44h22.327A4.836 4.836 0 0044 39.163V16.837A4.837 4.837 0 0039.163 12z" fill="#fff"/></svg>