<!-- by TradingView --><svg xmlns="http://www.w3.org/2000/svg" width="56" height="56" viewBox="0 0 56 56" fill="none"><path fill="#008681" d="M0 0h56v56H0z"/><path d="M35.5 29.5a7.5 7.5 0 1 1-15 0 7.5 7.5 0 0 1 15 0Z" stroke="#fff" stroke-width="2"/><path d="M30.5 29.5a2.5 2.5 0 1 1-5 0 2.5 2.5 0 0 1 5 0Z" stroke="#fff" stroke-width="2"/><path d="m48 27.23-.14-.13C46.76 26.1 39.13 19 28 19c-12 0-20 8.23-20 8.23v1.24s6.35-5.37 16.19-6.57c3.8-.47 7.42-.03 7.42-.03C41.6 23.03 48 28.47 48 28.47v-1.24Z" fill="#fff"/></svg>