<!-- by TradingView --><svg width="56" height="56" xmlns="http://www.w3.org/2000/svg"><path fill="#005291" d="M0 0h56v56H0z"/><path d="M48.01 27c1.125 0 1.318.772 1.318 1.219 0 .256-.055.547-.055.547l-.08.049s-.32-.005-.853.005c-.533.01-.858.02-.858.02s-.02.397.656.397c.575 0 .896-.28.896-.28l.097.078s-.072.247-.122.445c-.05.199-.088.296-.088.296l-.048.048s-.375.18-.958.18c-.582 0-1.598-.069-1.598-1.33 0-1.134.855-1.674 1.692-1.674zm-.464 1.14s.16 0 .37-.004c.197-.003.328-.008.328-.008s.021-.056.021-.125a.274.274 0 00-.291-.272c-.341 0-.428.41-.428.41zm-2.66-1.135l.066.063-.287 1.2c-.13.544-.216.947-.416 1.842-.201.895-1.003 1.89-1.95 1.89-.95 0-1.274-.368-1.274-.368l-.012-.084s.039-.24.136-.492c.098-.251.157-.393.157-.393l.12-.02s.238.355.785.355c.667 0 .882-1.14.882-1.14s-.272.139-.603.139c-.531 0-1.065-.237-1.065-.99 0-.584.242-1.091.58-1.425.488-.482 1.208-.57 1.652-.582a15.51 15.51 0 011.23.005zm-1.348.87s-.287-.042-.487.11c-.201.152-.358.486-.358.838 0 .35.152.455.314.455.141 0 .228-.1.228-.1s.06-.24.14-.602c.082-.36.163-.701.163-.701zM46.672 26l.066.088c-.032.126-.185.6-.185.6l-.073.068c-.38.052-.759.107-1.137.162l-.07-.076c.001.025.155-.58.162-.622l.065-.058c.391-.051.784-.092 1.172-.162zm-.247 1l.086.068-.646 2.867-.067.062-1.223.003-.05-.065.61-2.69.072-.065c.407-.057.81-.13 1.218-.18zm-7.763-1l.077.078-.887 3.854-.067.068c-.391-.017-.785 0-1.177 0l-.05-.068.806-3.677.07-.065c.411-.057.822-.106 1.228-.19zm1.368 1c.752 0 1.44.296 1.44 1.27 0 1.336-.89 1.73-1.79 1.73-.79 0-1.403-.285-1.403-1.16 0-.696.37-1.84 1.753-1.84zm0 .773c-.386 0-.534.967-.534 1.221 0 .335.18.328.228.328.394 0 .53-.979.53-1.24 0-.185-.072-.309-.224-.309zM35.343 27c.752 0 1.418.296 1.418 1.27 0 1.336-.882 1.727-1.783 1.727-.79 0-1.409-.282-1.409-1.157 0-.696.39-1.84 1.774-1.84zm-.02.773c-.386 0-.534.967-.534 1.221 0 .335.18.328.227.328.394 0 .53-.979.53-1.24 0-.185-.072-.309-.223-.309zM31.93 27l.069.072-.035.2s.379-.272.791-.272c.67 0 .808.534.808.77s-.084.53-.218 1.143c-.134.612-.205 1.022-.205 1.022l-.067.062-1.166.003-.04-.058.204-.874c.131-.573.188-.874.188-.949 0-.074-.014-.199-.185-.199-.148 0-.262.075-.262.075-.144.642-.29 1.285-.401 1.934l-.067.068c-.39-.008-.78.014-1.169.003l-.05-.055s.165-.643.304-1.268c.246-1.102.252-1.446.252-1.446l.074-.068c.393-.04.784-.107 1.175-.163zm-3.013-1l.068.074c-.084.349-.099.903-.301 1.197 0 0 .379-.27.79-.27.67 0 .808.533.808.769s-.084.53-.218 1.143c-.134.612-.205 1.01-.205 1.01l-.075.077h-1.158l-.04-.071c.138-.58.4-1.239.4-1.835 0-.075-.017-.22-.188-.22-.147 0-.258.103-.258.103a35.306 35.306 0 00-.41 1.939l-.063.084c-.39-.015-.782.012-1.174 0l-.05-.068s.455-1.873.654-2.786c.198-.913.134-.903.134-.903l.053-.051c.41-.069.82-.143 1.233-.192zm-1.966 2.102s-.142-.254-.472-.254c-.33 0-.671.27-.671.82 0 .551.402.573.522.573.31 0 .513-.199.513-.199l.127.05c-.064.235-.098.494-.194.719l-.045.049s-.317.14-.734.14c-.918 0-1.46-.435-1.46-1.286 0-.88.653-1.714 1.825-1.714.605 0 .903.24.903.24l.028.07c-.079.257-.149.517-.219.777l-.123.015zM23.214 27c1.126 0 1.319.772 1.319 1.219 0 .256-.055.547-.055.547l-.08.049s-.32-.005-.852.005c-.533.01-.859.02-.859.02s-.02.397.656.397c.575 0 .896-.28.896-.28l.097.078s-.072.164-.122.363c-.05.198-.088.374-.088.374l-.048.049s-.375.18-.957.18-1.598-.066-1.598-1.326c0-1.135.854-1.675 1.691-1.675zm-.462 1.14s.159 0 .369-.004c.197-.003.328-.008.328-.008.072-.194-.055-.397-.27-.397-.34 0-.427.41-.427.41zM21.599 27s-.26.948-.438 1.77c-.18.822-.247 1.096-.258 1.16l-.048.07c-.081 0-.288-.005-.586 0s-.61 0-.653 0l-.054-.065c.016-.058.136-.448.363-1.38.228-.931.39-1.555.39-1.555-.296-.015-.592 0-.888 0l-.049-.089c.005-.026.058-.206.111-.38.044-.145.112-.424.123-.461l.065-.07h2.942l.068.074c-.022.068-.085.334-.129.508-.043.172-.083.3-.094.358l-.076.06c-.263-.003-.526.006-.789 0zm-11.466-.003s-.227.951-.406 1.773a49.427 49.427 0 00-.252 1.196L9.41 30c-.08 0-.269.003-.567.008-.298.005-.606-.008-.65-.008l-.06-.028c.017-.058.13-.485.358-1.417.228-.931.357-1.555.357-1.555-.296-.004-.592 0-.888 0l-.05-.071c.006-.026.074-.305.127-.48.044-.144.1-.348.11-.385L8.214 26h5.885l.067.068c-.021.069-.073.26-.116.432-.043.173-.099.4-.11.458l-.075.042c-.263 0-.526.003-.789-.003 0 0-.227.951-.405 1.773a48.37 48.37 0 00-.253 1.197l-.083.033c-.081 0-.25-.005-.547 0-.299.005-.608 0-.652 0l-.058-.028c.016-.058.13-.484.357-1.416.228-.932.357-1.556.357-1.556-.553-.007-1.106.009-1.658-.003zm3.075 2.957s.236-.807.561-1.985c.325-1.178.472-1.896.472-1.896l.062-.073c.523 0 1.046-.003 1.569 0l.055.057c0 .037.113 2.237.113 2.237s.292-.586.53-1.089c.239-.503.456-1.091.477-1.138l.069-.067c.518 0 1.037 0 1.556.004l.055.06c-.005.036-.18 1.13-.347 2.22-.168 1.088-.247 1.633-.252 1.664L18.05 30H16.949l-.065-.042s.136-.648.272-1.355c.135-.707.233-1.168.233-1.168s-.466.917-.753 1.513c-.287.597-.47.963-.491 1.01l-.072.042h-.927l-.052-.036s-.046-.66-.073-1.235c-.027-.576-.08-1.33-.08-1.33s-.223.905-.37 1.487l-.268 1.069-.062.045s-.277-.005-.472 0h-.468l-.093-.046zM4 26.172c.071-1.577 4.68-3.41 10.207-3.176C18.704 23.186 22 25 22 25s-2.114-.843-6.906-1c-5.561-.181-10.27 1.051-10.34 2.582-.012.289.039.739.325 1.013-.756-.429-1.099-.962-1.078-1.423zM52 27.32s-.058.16-.11.35c-.05.19-.092.367-.092.367l-.124.018s-.176-.323-.627-.323c-.15 0-.298.03-.298.143 0 .115.301.212.554.35.254.14.52.353.52.785 0 .433-.344.992-1.467.992-.773 0-1.17-.201-1.17-.201l-.021-.092s.024-.088.09-.312c.068-.224.107-.387.107-.387l.116-.04s.251.366.741.366c.137 0 .345-.035.345-.18 0-.143-.302-.237-.527-.358-.224-.122-.502-.297-.502-.738 0-.514.39-1.06 1.396-1.06.624 0 1.023.24 1.023.24l.046.08z" fill="#fff"/></svg>