<!-- by TradingView --><svg xmlns="http://www.w3.org/2000/svg" width="56" height="56"><path d="M0 28a28 28 0 1156 0 28 28 0 01-56 0z" fill="#F0F3FA"/><path d="M26.5 24h.5v6h-.5v-6zm-3.3.5V24h-5v.5h2.3V30h.5v-5.5h2.2zm12.2 0V24h-5v.5h2.3V30h.5v-5.5h2.2z" fill="#636567"/><path fill-rule="evenodd" d="M39.2 24l-2.1 6h.46l.7-2h2.58l.7 2h.45l-2.1-6h-.7zm1.46 3.5l-1.11-3.2-1.12 3.2h2.23z" fill="#636567"/><path d="M45.5 30h.5v-5.13L49.5 30h.5v-6h-.5v5L46 24h-.5v6z" fill="#636567"/><path d="M18.44 32.3v.7h-.23v-1.78h.65c.2 0 .35.05.46.15.1.1.16.23.16.39a.5.5 0 01-.16.4.7.7 0 01-.46.13h-.42zm0-.2h.42c.13 0 .22-.03.29-.08.07-.06.1-.15.1-.26 0-.1-.03-.19-.1-.25a.4.4 0 00-.28-.1h-.43v.7zm3.41.9h-.24v-.81h-.9V33h-.23v-1.78h.24V32h.9v-.78h.23V33zm2.12-.48h-.75l-.16.48h-.25l.68-1.78h.2l.69 1.78h-.24l-.17-.48zm-.68-.19h.6l-.3-.82-.3.82zm2.68-.06h-.42V33h-.24v-1.78h.6c.2 0 .35.05.45.14.11.09.17.22.17.4 0 .1-.03.2-.1.28a.53.53 0 01-.24.18l.41.77V33h-.25l-.38-.73zm-.42-.2h.36a.4.4 0 00.28-.08.3.3 0 00.1-.24c0-.1-.03-.2-.1-.25-.06-.06-.16-.09-.28-.09h-.36v.67zm2.31-.85l.58 1.44.58-1.44h.3V33h-.23v-.7l.02-.74-.58 1.44h-.18l-.58-1.44.02.74v.7h-.23v-1.78h.3zm3.58 1.3h-.74l-.17.48h-.24l.68-1.78h.2l.68 1.78h-.24l-.17-.48zm-.67-.19h.6l-.3-.82-.3.82zm3.31.09a.64.64 0 01-.2.43.69.69 0 01-.47.15.63.63 0 01-.5-.22.9.9 0 01-.2-.6v-.17a1 1 0 01.1-.43.66.66 0 01.62-.38c.19 0 .34.05.45.16.12.1.18.24.2.43h-.23a.47.47 0 00-.14-.3.4.4 0 00-.28-.1.42.42 0 00-.35.16.75.75 0 00-.13.47v.17c0 .2.04.34.12.46.08.1.2.16.34.16.13 0 .23-.02.3-.08.07-.06.11-.16.14-.3h.23zm2.02-.25h-.76v.64h.9v.2H35.1v-1.79h1.12v.2h-.88v.56h.77v.19zm2.37-.95v1.2c0 .16-.05.3-.15.4-.1.1-.25.17-.43.18h-.06a.67.67 0 01-.47-.15.55.55 0 01-.17-.43v-1.2h.23v1.2c0 .12.03.22.1.29.08.07.18.1.3.1.14 0 .24-.03.31-.1a.4.4 0 00.1-.3v-1.19h.24zm2.3.19h-.54v1.6H40v-1.6h-.57v-.19h1.34v.2zM42 33h-.23v-1.78H42V33zm2.42-.58a.65.65 0 01-.2.43.69.69 0 01-.47.15.63.63 0 01-.5-.22.9.9 0 01-.2-.6v-.17a1 1 0 01.1-.43.66.66 0 01.62-.38c.19 0 .34.05.45.16.12.1.18.24.2.43h-.23a.47.47 0 00-.14-.3.4.4 0 00-.28-.1.42.42 0 00-.35.16.75.75 0 00-.13.47v.17c0 .2.04.34.12.46.08.1.2.16.34.16.13 0 .23-.02.3-.08.07-.06.11-.16.14-.3h.23zm2 .1h-.74l-.17.48h-.24l.68-1.78h.2l.68 1.78h-.24l-.17-.48zm-.67-.19h.6l-.3-.82-.3.82zm2.25.48h.84V33h-1.08v-1.78H48v1.59zm2.34-.61c-.2-.06-.35-.13-.44-.21a.4.4 0 01-.13-.31c0-.14.05-.26.16-.35.11-.09.26-.13.44-.13.12 0 .23.02.32.07.1.04.18.1.23.2.05.07.08.16.08.26h-.24c0-.1-.03-.19-.1-.25a.42.42 0 00-.3-.1c-.1 0-.2.03-.26.09a.25.25 0 00-.1.2c0 .08.03.14.1.19.06.05.16.09.3.13.16.04.27.09.35.14.09.05.15.1.19.17.04.07.06.14.06.23 0 .15-.06.26-.17.35a.73.73 0 01-.45.12.85.85 0 01-.34-.06.58.58 0 01-.25-.2.46.46 0 01-.08-.27h.23c0 .1.04.2.12.25.08.06.19.1.32.1s.22-.03.29-.08c.06-.05.1-.12.1-.2a.24.24 0 00-.1-.2.867.867 0 00-.33-.14z" fill="#221E1F"/><path d="M9 20h11L9 36V24H4v-2h5v-2zm7 2H9.2v10h1.3v-8.5H16V22zm-3.14 5.14a1.5 1.5 0 100-3 1.5 1.5 0 000 3z" fill="#D31F45"/></svg>