<!-- by TradingView --><svg width="56" height="56" viewBox="0 0 56 56" xmlns="http://www.w3.org/2000/svg"><path fill="#F0F3FA" d="M0 0h56v56H0z"/><path d="M30.5 11.8a1 1 0 0 1-.43 1.36l-14.53 7.52a1 1 0 0 0-.54.9v12.84c0 .5.2.83.45 1.08.27.27.6.42.8.46l-.5 1.95c-.86-.22-2.75-1.2-2.75-3.49V21.57c0-1.13.63-2.16 1.63-2.68l14.52-7.52a1 1 0 0 1 1.35.43Z" fill="url(#akmdakcj2)"/><path d="M25 27.52v2.38l5-3.02v-3.52l-4.03 2.43c-.6.37-.97 1.02-.97 1.73Z" fill="url(#bkmdakcj2)"/><path d="m30.96 15.71-12.42 6.48a1 1 0 0 0-.54.89v12.35h-2V23.08c0-1.13.62-2.16 1.62-2.68l12.42-6.48.92 1.79Zm.49 3.02-9.9 4.98a1 1 0 0 0-.55.9v9.81h-2v-9.81c0-1.15.64-2.19 1.66-2.7l9.9-4.98.89 1.8Zm0 3.02-6.9 3.47a1 1 0 0 0-.55.9v7.3h-2v-7.3c0-1.15.64-2.2 1.66-2.7l6.9-3.47.89 1.8Z" fill="url(#ckmdakcj2)"/><path d="M28.5 11.8c1-.5 1.5-.03 1.5.48v20.37l10.1 5.08a2 2 0 0 0 2.9-1.8V20.47c0-.7-.36-1.35-.95-1.72l-11.2-7.45a2 2 0 0 0-1.31-.28c-.32.04-.58.25-.8.5l-.24.28Z" fill="url(#dkmdakcj2)"/><path d="M40.78 36.6 30 30.9l-4-2.5-10.76 7.65a1 1 0 0 0 .06 1.68l11.19 6.83a3 3 0 0 0 3.05.05c2.7-1.53 6.84-3.84 9.46-5.16 3.2-1.6 4-2.68 4-3.02-.8.4-1.89.33-2.22.16Z" fill="url(#ekmdakcj2)"/><path d="m30 30.9-4-2.5 4-2.02v4.52Z" fill="#F47822"/><defs><linearGradient id="akmdakcj2" x1="21.98" y1="10.91" x2="12.91" y2="35.4" gradientUnits="userSpaceOnUse"><stop stop-color="#E5E6E8"/><stop offset=".32" stop-color="#888B92"/><stop offset=".66" stop-color="#B9BABE"/><stop offset="1" stop-color="#9FA2A7"/></linearGradient><linearGradient id="bkmdakcj2" x1="30" y1="24.37" x2="25.98" y2="27.36" gradientUnits="userSpaceOnUse"><stop stop-color="#EFEFEF"/><stop offset="1" stop-color="#D2D3D5"/></linearGradient><linearGradient id="ckmdakcj2" x1="30.5" y1="18.34" x2="18.43" y2="30.34" gradientUnits="userSpaceOnUse"><stop stop-color="#F1F1F1"/><stop offset=".47" stop-color="#C2C3C7"/><stop offset=".97" stop-color="#8E9197"/></linearGradient><linearGradient id="dkmdakcj2" x1="35.25" y1="11.3" x2="35.5" y2="34.42" gradientUnits="userSpaceOnUse"><stop stop-color="#B6B7BB"/><stop offset=".3" stop-color="#8A8D92"/><stop offset="1" stop-color="#F0F0F0"/></linearGradient><linearGradient id="ekmdakcj2" x1="21" y1="32.41" x2="35.05" y2="41.89" gradientUnits="userSpaceOnUse"><stop stop-color="#ECECEE"/><stop offset=".73" stop-color="#898C91"/><stop offset="1" stop-color="#C1C2C6"/></linearGradient></defs></svg>