<!-- by TradingView --><svg width="56" height="56" viewBox="0 0 56 56" xmlns="http://www.w3.org/2000/svg"><path fill="#F0F3FA" d="M0 0h56v56H0z"/><path d="M23.32 15.34A16.95 16.95 0 0 1 29.91 11l1.18 3.8c-1.36.13-3.96 2.16-5.04 3.1l2.31 1.96-2.31 1.5-2.12-.3c.48-1.24 1.59-2.6 2.1-3.14l-2.7-2.58Zm-3.06-2.61a17.02 17.02 0 0 0-2.98 7.25l3.64.6c.36-1.37 1.35-4.34 2.4-5.22l-3.06-2.63Zm-6.98 6.76c-.12 1.32-.02 4.7 1.36 7.74l3.38-1.47c-.43-1.35-1.18-4.4-.76-5.71l-3.98-.56Zm3.14 15.21A16.87 16.87 0 0 1 11 29.07l3.6-1.8c.38 1.31 2.64 3.37 3.77 4.27l1.7-2.56 1.95 2.31-.1 2.12a13.97 13.97 0 0 1-3.53-1.82l-1.97 3.11Zm-2.08 3.56c1.14.64 4.24 1.9 7.53 1.84v3.94c1.31-.06 4.62-.63 7.4-2.42l-1.86-3.13c.64-.4 2.28-1.4 3.06-2.47l-2.19-.86-2.67.84-.97-1.7-2.7-1v3.1c.7.08 2.44.14 3.72-.22l1.7 2.26c-1.28.62-4.1 1.76-5.46 1.55l.03-3.6c-1.4-.16-4.47-.68-5.49-1.6l-2.1 3.47ZM31.5 45a16.9 16.9 0 0 0 4.95-6.06l-3.22-1.6c.37-.68 1.16-2.17 1.37-3.42l2.85-.67c0 1.43-.21 4.55-1 5.66l3.61 1.76a17.09 17.09 0 0 0 1.06-7.78l-3.62.34v-.02c-.1-.72-.32-2.54-.93-3.7l2.18-2.05-.01-.02c-.44-.59-1.57-2.1-2.69-2.79l.68-2.8c1.32.6 3.97 2.03 4.65 3.2l3.06-2.64a16.75 16.75 0 0 0-6.61-4.13l1.04-3.7a16.6 16.6 0 0 0-7.77.19l.92 3.6c1.39-.22 4.5-.53 5.8-.07l-1.15 3.46a11.8 11.8 0 0 0-3.65-.83l-.98-2.55-.28.08c-.84.23-2.48.7-3.4 1.44l1.9 1.4 2.73-.1.64 2 2.33 1.57-.58 2.14 1.07 2.54-1.6 1.61-.32 2.68-2.23.35-1.95 2.13 2.74 1.17c-.78 1.24-2.53 3.67-3.76 4.19L31.5 45ZM45 32.17a17 17 0 0 0-3.62-6.95l-2.78 2.43c.81 1.16 2.44 3.83 2.44 5.21l3.96-.7Zm-24.44-7.79c-.2-1.33.1-3.07.27-3.78l3.04.42-1.33 2.57-1.8.74.42 2.82-1.1 1.84a11.5 11.5 0 0 1-2.03-3.21l2.53-1.4Z" fill="#FF6A4E"/></svg>