<!-- by TradingView --><svg width="56" height="56" viewBox="0 0 56 56" xmlns="http://www.w3.org/2000/svg"><path fill="#F0F3FA" d="M0 0h56v56H0z"/><path fill-rule="evenodd" d="M40.83 18.58c-2.71-2-5.97-3.88-9.76-5.64-1.29-.6-2.66-1.24-4.08-.8-1.26.4-2.43.98-3.6 1.56l-.63.32a54.37 54.37 0 0 0-7.24 4.28 4.85 4.85 0 0 0-2.3 4.14 75.51 75.51 0 0 0-.01 11.32c.12 1.64.46 2.59 1.82 3.6a54.86 54.86 0 0 0 10.18 5.8c1.47.68 2.76 1.2 4.4.51a68.8 68.8 0 0 0 9.14-4.71c1.12-.69 2.1-1.42 2.93-2.19 1.15-1.06 1.24-2.9 1.27-4.34l.05-6.26c0-1.84-.1-3.42-.31-4.74a4.37 4.37 0 0 0-1.86-2.85ZM22.84 15.6a157.2 157.2 0 0 1 4.57 2.63c.2.1.4.15.62.13.6-.04 1.13.07 1.59.35.86.52.32 1.41-.41 1.66-.73.24-1.4.2-2.04-.12-.38-.2-.47-.48-.58-.84l-.02-.06a.38.38 0 0 0-.17-.21l-4.77-2.7a.62.62 0 0 0-.62 0c-1.33.79-2.78 1.7-4.35 2.75-1.13.76-1.95 1.46-2.08 2.86a66.02 66.02 0 0 0 0 12.2c.07.74.36 1.33.89 1.77a25.3 25.3 0 0 0 4.05 2.72.07.07 0 0 0 .07-.04v-4.84c0-.48-.09-.86-.28-1.14a2.07 2.07 0 0 1-.36-1.5c.11-.91 1.17-.8 1.68-.34.69.62 1.39 2 .45 2.7a.29.29 0 0 0-.12.23l.06 5.55a.35.35 0 0 0 .18.3c1.53.84 3.15 1.66 4.86 2.47 1.07.5 2.03.82 3.16.32a71.16 71.16 0 0 0 9.52-5.06c.37-.23.71-.5 1.06-.77l.58-.45a2.3 2.3 0 0 0 1-1.66 126.45 126.45 0 0 0 .34-4.66.1.1 0 0 0-.04-.04.1.1 0 0 0-.1 0l-4.62 2.66a.68.68 0 0 0-.29.33c-.2.48-.52.86-.96 1.14-.57.36-1.39.2-1.44-.55-.08-.96.3-1.7 1.13-2.23.29-.18.6-.21.93-.1a.55.55 0 0 0 .44-.05l4.78-2.64a.32.32 0 0 0 .18-.3c.01-1.85-.09-3.85-.3-6-.1-1-.49-1.75-1.3-2.35a51.7 51.7 0 0 0-10.96-6.11 2.82 2.82 0 0 0-2.08-.07 58.58 58.58 0 0 0-4.27 1.93.1.1 0 0 0 .02.13Z" fill="#D80927"/><path d="M27.31 28.26c-2.97-1.7-5.9-3.35-8.78-4.98-.27-.15-.57-.2-.9-.12a.5.5 0 0 1-.25-.01c-1.68-.5-.58-2.87.95-1.88.1.06.17.14.2.24.16.38.4.67.73.85a857 857 0 0 0 8.7 4.91c.03.02.06.03.1.03a2061.5 2061.5 0 0 1 8.86-4.95c.32-.18.53-.44.65-.78.03-.1.1-.2.2-.26.55-.38 1.05-.35 1.5.07.79.74.01 1.95-1.03 1.77-.2-.04-.4 0-.58.1l-8.86 5.01a.4.4 0 0 0-.15.15.37.37 0 0 0-.05.2l.03 9.97c0 .1.03.19.08.27l.32.53c.49.88-.58 1.8-1.46 1.36a1.03 1.03 0 0 1-.59-1.08c.04-.44.44-.6.45-1.09.1-3.47.1-6.83.04-10.07 0-.05-.02-.1-.05-.14a.3.3 0 0 0-.1-.1Z" fill="#D80927"/></svg>