<!-- by TradingView --><svg xmlns="http://www.w3.org/2000/svg" width="56" height="56" viewBox="0 0 56 56"><path fill="#F0F3FA" d="M0 0h56v56H0z"/><path d="M27.37 18.31c.5-.28 1.08-.32 1.64-.26 1.23.18 2.43.63 3.42 1.37a6.32 6.32 0 0 1 2.46 5.04c-.13-.4-.17-.82-.32-1.22l-.23-.08c-.53-.18-1.03-.45-1.53-.7 0-.33.12-.66.18-.99l.13-.45a6.83 6.83 0 0 0-1.84-1.4 8.87 8.87 0 0 0-2.27-.86c-.3-.04-.6-.1-.9-.03-.44.05-.84.3-1.05.69-.36.6-.4 1.33-.55 2-.04.1.11.1.17.12 1.05.22 2.19.2 3.16-.3-.15.14-.3.26-.48.35-.3.15-.62.3-.95.38-.88.25-1.8.2-2.7.08.1-.26.21-.5.28-.77.2-.6.23-1.23.46-1.82.18-.46.49-.9.92-1.15Zm-2.68-.86c1.38-.2 2.47-1.26 3.09-2.45 4.75.71 9.96 2.76 11.9 6.8.1 2.2-.86 5.17-2.11 6.68-.24.06-.38.08-.64.17-1 1.39-1.6 2.87-1.38 3.97.54.18 1.08.16 1.63.08 1.7-1.64 3.53-3.89 5.78-4.7.5-.16 1.13-.3 1.64-.29.2 0 .3.04.32.12.02.11-.1.24-.26.31-.38.18-1.01.43-1.22.56a10.96 10.96 0 0 0-2.8 2.75c-.17.24-.37.47-.53.72 1.23-.28 3.19-.27 4.4.05.65-1.04.9-1.92 1-2.83.05-.36.02-.74.07-1.07.03-.24.2-.22.31-.01.4.82.42 1.78.37 2.68-.07.56-.2 1.12-.42 1.65.17.06.31.12.48.2.24.1.5.21.72.34.32.18.72.36.92.69.14.33-.1.66-.36.83-.25.17-.4.45-.59.67-.2.22-.49.07-.66-.11a1.73 1.73 0 0 1-.3-.4c-.06-.1-.1-.24-.22-.3a3.78 3.78 0 0 0-.87-.29c-2.02 3.15-5.64 3.98-9 2.62-1.48 1.11-2.95 1.12-5.43 1.11l-3.35-.01c.03-1 .14-2.24.23-3.18-.16.06-.33.1-.49.15.14-.48.26-1.16.4-1.65-.75-.13-1.6-.5-1.93-.7.51 1.66.75 3.68 1.01 5.39h-8.58c.21-.9.45-2.1.68-2.99-.23.02-.47.08-.71.07.3-.37.6-.76.77-1.22-.2.04-.41.1-.63.1.15-.16.28-.33.4-.51a20.6 20.6 0 0 0 1.77-3.13c-.18-.12-.4-.2-.58-.3l-.1.23c-.46 1-1.01 1.97-1.77 2.77.01-.21.06-.43.07-.64-.27.2-.49.47-.78.64-.19.13-.4.19-.6.3.27 1.45.5 3.22.74 4.68H9a53.9 53.9 0 0 1 1.23-4.23c-.22.06-.46.07-.69.1.33-.33.65-.68.86-1.1-.19-.01-.37 0-.55.02.8-.86 1.47-1.85 2.01-2.89.25-.5.5-1 .77-1.5.25-.47.53-.92.8-1.38.47-.71.97-1.41 1.53-2.05.87-1.05 1.99-1.86 3.15-2.56.6-.37 1.21-.71 1.83-1.04l.85-.44c.51-.28 1.03-.53 1.54-.8.42-.22.84-.43 1.25-.66.44-.21.85-.5 1.3-.7-.17-.03-.33-.08-.5-.08-.22-.1-.5-.12-.68-.29.4-.06.77-.24 1.15-.38l.45-.21a.32.32 0 0 0 .17-.12c-.28 0-.52-.14-.78-.2v-.04Zm8.8 3.97c-.02.24-.07.5.02.74.13.35.5.55.87.57a4.92 4.92 0 0 0-.89-1.32Zm-5.1-5.16c-.95 1.86-3.58 3.45-5.33 4.5l-1.5.86-.96.52c-1.07.61-2.2 1.12-3.14 1.93a5.03 5.03 0 0 0-1.38 2.36c-.08.21-.1.44-.18.65-.08-.36-.18-.72-.17-1.1-.23.19-.6 1.92-.64 2.27-.16.02-.3-1.16-.3-1.33a24.22 24.22 0 0 0-1.88 3.02c-.18.34-.36.67-.52 1.02l-.59 1.3c-.2.46-.4.9-.54 1.37l-.02-.05a30.24 30.24 0 0 0-.98 3.15h2.13c.22-.23.52-.38.81-.5.75-.28 1.54-.37 2.32-.49-.15-.93-.32-2.35-.42-3.26.12 0 .26-.03.37-.05a4.14 4.14 0 0 0 2.05-1.04 5.7 5.7 0 0 0 1.34-2.05c.14-.3.23-.6.33-.92.34-1.22.5-2.5.48-3.76.23.65.32 1.28.32 1.96.47.38.95.65 1.52.86a20.62 20.62 0 0 1 3.18-3.98c.15-.15.68-.7.86-.78a26.97 26.97 0 0 0-4.3 6.62 28.62 28.62 0 0 0-1.73 4.84c-.22.84-.37 1.7-.52 2.54h2.21a5.13 5.13 0 0 1 3.9-1.17c-.09-.47-.1-.94-.17-1.41-.04-.42-.14-.84-.22-1.25-.22.12-.31.38-.44.58-.02-.54-.09-1.1.06-1.62-.22.13-.36.36-.55.53.23-2.9 1.42-5.36 4.62-6a6.99 6.99 0 0 1-.1-1.63 3.8 3.8 0 0 1 1.78-3.14c.44-.28 1.62-.8 2.05-.7-.63.11-1.37.52-1.84.94-.33.29-.6.64-.8 1.03a4.8 4.8 0 0 0-.17 3.4c.74-.02 1.5.27 1.98.84.47.53.77 1.21.92 1.9-.15-.12-.22-.31-.37-.43-.48 1-.82 2.12-.61 3.22.12.78.52 1.52 1.11 2.04.64.59 1.5.92 2.37.97.58-.38 1.49-1.14 1.97-1.65-1.18.2-2.5-.12-2.8-1.33-.15-.65 0-1.43.36-2.07.88-1.58 2.57-1.88 2.93-2 .77-1.13 1.89-3.74 1.63-5.99-2.05-3.41-6.71-5.06-10.44-5.52Zm1.28 11.06a14.26 14.26 0 0 0-.99 5.03c.05.8.17 1.6.52 2.32.4.88 1.13 1.58 2 2a4.1 4.1 0 0 0 3.06.04 7.4 7.4 0 0 0 2.06-1.23c1.2-.99 2.2-2.29 3.11-3.46.3-.36 1.15-1.45 1.71-2.11.26-.3.14-.4-.27-.1-.47.34-1.05.86-1.56 1.38-1.4 1.41-3.03 3.32-4.12 3.98-1.2.74-2.7 1.03-4.01-.11a3.29 3.29 0 0 1-1.1-2.48 9.65 9.65 0 0 1 .88-3.89l.28-.71a1.85 1.85 0 0 0-.57-.34c-.55 1.34-1.38 3.47-1.45 5.65-.22-2.46.46-4.74.93-5.9-.17-.03-.32-.06-.48-.07Zm10.05 5.35c-.17.23-.73.92-.81 1.11 1.13-.3 2.25-.44 3.42-.42a8.65 8.65 0 0 1 3.7.7c.05.03.13.07.14.14.04.25.14.5.31.7-.01-.33.1-.65.28-.93.09-.12.16-.26.3-.34-1.87-1.33-5.63-1.5-7.34-.96Zm-1.88 2.4c1.13.26 2.88.6 5.02-.98-.93-.1-4.4.6-5.02.98Z"/><path d="M19.35 23.78c.18.27.24.58.32.88.03 1.27-.14 2.54-.48 3.76-.1.31-.2.63-.33.92a5.7 5.7 0 0 1-1.34 2.05 4.14 4.14 0 0 1-2.42 1.1c.1.9.27 2.32.42 3.25-.78.12-1.57.21-2.32.49-.3.12-.59.27-.81.5h-2.13a30.25 30.25 0 0 1 .95-3.03c.88-.18 2-.54 2.61-1.2a10.1 10.1 0 0 1-1.08-.16c1.39-.53 2.7-1.1 3.55-2.3-.46.11-.92.08-1.37-.07.35-.17.68-.37.99-.58 1.84-1.26 3.44-3.2 3.44-5.6Zm7.09-.5a8.7 8.7 0 0 0 3.4-2.04c-.15.14-.3.26-.48.35-.3.15-.62.3-.95.38-.67.2-1.37.2-2.06.15-.1.2-.3.47-.4.6.23.02.47-.01.7-.02-.06.2-.13.38-.21.57Zm8.75 9.21c-.3-1.15.46-2.74.9-3.48-.15.1-.32.18-.43.32a5.73 5.73 0 0 0-.72 2.06c-.06-.44-.04-.88.02-1.32-.42.62-.69 2.12.23 2.42Zm9.68-.15.29.07c.14-.3.34-.82.4-1.21.06-.3-.04-.22-.1-.08-.16.4-.36.83-.59 1.22Zm-1.39 1.75a5.85 5.85 0 0 1-5.23 1.77c1.92.66 4.26.07 5.6-1.73a.85.85 0 0 0-.37-.04ZM31.56 18.32c.74.1 1.47.35 2.14.7.36.18.67.44.97.7l.01-.48c.15.04.24.18.35.28.42.47.82 1 .93 1.63.07-.22.11-.44.17-.66.12.17.15.38.2.58a5.18 5.18 0 0 1-.82 3.7c-.12.18-.2.39-.37.53a5.4 5.4 0 0 0-.49-4.33 6.9 6.9 0 0 0-2.77-2.47c-.1-.06-.24-.08-.32-.18Zm7.82 14.8c.82-.23 1.68-.29 2.53-.35 1.3-.03 2.62.08 3.83.58.36.16.73.34 1.02.62-.17.28-.3.6-.28.93-.17-.2-.27-.45-.31-.7-.01-.07-.09-.11-.14-.14a8.65 8.65 0 0 0-3.7-.7c-1.17-.02-2.29.13-3.42.42.05-.11.26-.4.47-.66Zm-12-12.5c.03-.68.62-.9 1.2-.87 1 .05 2.3.64 3.06 1.2-.4.1-.87.3-1.22.47a5.6 5.6 0 0 0-1.54-1.07c-.59-.23-1.03-.22-1.5.26Zm-7.39 6c0-.3-.02-.6-.06-.9.6-.06 1.18-.33 1.65-.68a1.9 1.9 0 0 1-.88-.36 3.08 3.08 0 0 0 1.58-.43 1.57 1.57 0 0 1-.88-.36c1.32-.22 2.88-1.17 4.15-1.17-.18.07-.71.63-.86.78a20.62 20.62 0 0 0-3.18 3.98 5.15 5.15 0 0 1-1.52-.86Zm7.43-.9c.2-1.3 1.04-3.2 2.14-3.73a3.81 3.81 0 0 0-1.25 2.76c-.05.54.02 1.1.1 1.63-3.2.64-4.39 3.1-4.62 6 .2-.17.33-.4.55-.53-.15.53-.08 1.08-.06 1.62.13-.2.22-.46.44-.58.08.41.18.83.22 1.25.08.47.08.94.16 1.41-1.49-.1-2.86.24-3.89 1.17H19c.11-.64.23-1.28.37-1.92 1.74-.6 2.7-1.81 3.4-3.5-.35.02-.71.01-1.07-.05a4.45 4.45 0 0 0 1.63-1.46c-.3.08-.62.1-.92 0a5.43 5.43 0 0 0 1.7-1.7 5.4 5.4 0 0 1 3.3-2.36Zm2.57-2.34a4.5 4.5 0 0 1 3-1.89v.01l-.01.04v.03l-.01.01v.03l-.01.02v.03l-.01.01v.03l-.01.02v.01l-.01.02v.03l-.01.02v.03l-.01.01v.03l-.01.02v.01l-.01.02v.03l-.01.02V22l-.01.02v.02l-.01.02v.04l-.01.01v.05l-.01.01v.05l-.01.01v.08l-.01.02v.13c.5.24.99.51 1.52.7l.23.07v.02l.01.01v.03l.02.02v.03l.01.02v.01l.01.01v.03h.01v.02l.01.02v.02l.01.01v.04h.01v.03l.01.01v.03l.01.02v.02l.01.02v.02l.01.01v.04h.01v.04l.01.01v.03l.01.02v.03h.01v.04l.01.02v.03a1.9 1.9 0 0 0-1.05.87c-.1-.35-.12-.72-.1-1.09a2.8 2.8 0 0 0-.6 1.62c-.18-.2-.25-.45-.32-.7-.19.23-.27.52-.3.81-.07.6.06 1.2.26 1.76.35.99.57 2.07.33 3.1a1.27 1.27 0 0 0-.3-.55c-.83 2.47.79 4.48 3.28 4.1l-.02.02-.01.01-.03.02-.04.04-.02.01-.01.02-.03.02-.02.01-.02.02-.02.02-.01.01-.03.02-.02.02-.02.01-.03.03-.04.03v.01l-.03.02-.02.01-.01.02-.03.02-.04.03-.02.01-.02.02-.02.01v.01l-.02.01-.02.02-.02.01-.02.02-.02.01v.01h-.02l-.02.02-.01.02-.04.03h-.02v.01l-.02.02h-.02l-.02.02-.03.03-.03.02h-.02l-.01.02-.04.03-.02.01-.02.01-.01.02-.04.02-.02.01v.01h-.01l-.02.02-.04.02-.01.01-.01.01h-.01l-.02.02-.03.02a3.86 3.86 0 0 1-2.37-.97 3.47 3.47 0 0 1-1.11-2.04c-.2-1.1.13-2.23.6-3.22.16.12.23.3.38.44l-.01-.04a4.2 4.2 0 0 0-.9-1.87 2.53 2.53 0 0 0-1.96-.84 5.3 5.3 0 0 1 .63-2.9Zm6.16 12.24a7.2 7.2 0 0 1-1.89 1.1 4.1 4.1 0 0 1-3.07-.05 4.19 4.19 0 0 1-1.99-2 6.1 6.1 0 0 1-.52-2.32c-.02-1.72.4-3.42 1-5.03.15 0 .3.04.47.07a13.44 13.44 0 0 0-.93 5.9c.2 1.18.8 2.17 1.67 2.75 2.1 1.38 4.27.15 5.26-.42Z" fill="#B3B4B5"/></svg>