<!-- by TradingView --><svg xmlns="http://www.w3.org/2000/svg" width="56" height="56" viewBox="0 0 56 56"><path fill="#F0F3FA" d="M0 0h56v56H0z"/><path d="M25 25a3 3 0 1 1-6 0 3 3 0 0 1 6 0Z" fill="#002D5B"/><path d="M25.38 44.73c.4.38 1.05.36 1.43-.04a1 1 0 0 0-.04-1.42 1.02 1.02 0 0 0-1.43.04 1 1 0 0 0 .04 1.42ZM37.8 39.91c.41.38 1.05.37 1.44-.04a.99.99 0 0 0-.04-1.41 1.02 1.02 0 0 0-1.43.04 1 1 0 0 0 .04 1.41ZM42.3 25.24c.4.37 1.04.36 1.42-.04a1 1 0 0 0-.04-1.42 1.02 1.02 0 0 0-1.43.04 1 1 0 0 0 .04 1.42ZM35.33 37.6a1.3 1.3 0 0 0 1.84-.06c.49-.52.47-1.33-.05-1.82a1.31 1.31 0 0 0-1.84.06c-.49.51-.46 1.32.05 1.81ZM38.85 25.01a1.3 1.3 0 0 0 1.84-.05c.49-.52.47-1.33-.05-1.82a1.3 1.3 0 0 0-1.84.05c-.5.52-.47 1.33.05 1.82ZM23.9 42.4c.52.5 1.34.47 1.83-.05.5-.51.47-1.33-.05-1.81a1.3 1.3 0 0 0-1.83.05c-.5.51-.47 1.33.05 1.81ZM33.22 14.64c.43.4 1.1.38 1.5-.04.4-.42.37-1.08-.05-1.48a1.06 1.06 0 0 0-1.5.04c-.4.42-.37 1.08.05 1.48ZM14.36 38.3a.74.74 0 1 0 1.04-1.08.76.76 0 0 0-1.07.04c-.29.3-.27.76.03 1.05ZM11.24 28.61c.3.29.77.27 1.06-.03a.74.74 0 0 0-.03-1.05.76.76 0 0 0-1.07.03c-.28.3-.27.77.04 1.05ZM14.7 35.9c.41.38 1.05.36 1.43-.04a1 1 0 0 0-.03-1.42 1.02 1.02 0 0 0-1.44.04.99.99 0 0 0 .05 1.41ZM22.51 39.46c.62.57 1.59.54 2.17-.06a1.5 1.5 0 0 0-.06-2.14 1.54 1.54 0 0 0-2.16.06 1.5 1.5 0 0 0 .05 2.14ZM32.28 35.04c.61.57 1.58.54 2.16-.07a1.5 1.5 0 0 0-.06-2.13 1.54 1.54 0 0 0-2.16.06 1.5 1.5 0 0 0 .06 2.14ZM30.19 16.48c.55.53 1.44.5 1.97-.05.52-.56.5-1.43-.06-1.95a1.4 1.4 0 0 0-1.97.05c-.53.56-.5 1.43.06 1.95ZM22.13 13.86c.43.4 1.12.39 1.53-.05.42-.43.4-1.1-.04-1.52a1.1 1.1 0 0 0-1.54.05c-.4.43-.39 1.1.05 1.52ZM13.78 27.76c.62 0 1.12-.5 1.12-1.1 0-.62-.5-1.11-1.12-1.11-.62 0-1.12.5-1.12 1.1 0 .62.5 1.11 1.12 1.11ZM15.45 33.01a1.3 1.3 0 0 0 1.83-.05c.5-.52.47-1.33-.05-1.81a1.3 1.3 0 0 0-1.83.05c-.5.51-.48 1.32.05 1.81ZM21.25 35.89c.68.63 1.75.6 2.39-.07.64-.67.61-1.73-.07-2.36a1.7 1.7 0 0 0-2.39.07c-.64.66-.61 1.73.07 2.36ZM28.86 32.44c.67.63 1.75.6 2.39-.07.64-.67.6-1.73-.07-2.36a1.7 1.7 0 0 0-2.39.06c-.64.68-.61 1.73.07 2.37ZM30.76 24.91c.68.64 1.75.6 2.39-.06.64-.68.61-1.73-.07-2.37a1.7 1.7 0 0 0-2.39.07c-.64.67-.6 1.73.07 2.36ZM26.99 18.73c.65.6 1.69.58 2.31-.07a1.6 1.6 0 0 0-.06-2.29 1.65 1.65 0 0 0-2.32.07c-.62.65-.59 1.67.07 2.29ZM20.72 17.15c.56.52 1.44.5 1.97-.06.52-.55.5-1.42-.06-1.94a1.4 1.4 0 0 0-1.96.06c-.53.55-.5 1.42.05 1.94ZM13.9 21.38c.45.4 1.13.38 1.54-.05.42-.43.4-1.11-.04-1.52a1.1 1.1 0 0 0-1.53.05c-.42.43-.4 1.1.04 1.52ZM20.88 21.62c.92-.1 1.58-.93 1.47-1.84a1.67 1.67 0 0 0-1.86-1.45 1.66 1.66 0 1 0 .4 3.3ZM21.73 32.44a1.98 1.98 0 0 0 1.75-2.19 2 2 0 0 0-3.97.46 2 2 0 0 0 2.22 1.73ZM27.3 26.3c1.11 0 2.02-.9 2.02-2 0-1.12-.9-2.02-2.03-2.02-1.12 0-2.03.9-2.03 2.01 0 1.1.91 2 2.03 2ZM26.26 21.85c.86-.74.96-2.02.22-2.87a2.07 2.07 0 0 0-2.9-.22 2.02 2.02 0 0 0-.21 2.87c.74.85 2.03.94 2.9.22ZM18.8 29.85c.65-.55.73-1.5.17-2.15a1.55 1.55 0 0 0-2.17-.16c-.64.55-.71 1.5-.16 2.15.55.63 1.53.7 2.17.16ZM24.56 30.2c.8.76 2.08.72 2.85-.08.77-.8.73-2.07-.08-2.82a2.03 2.03 0 0 0-2.86.08c-.76.8-.72 2.06.09 2.82ZM16.57 23.04c.61.57 1.57.55 2.15-.06a1.5 1.5 0 0 0-.06-2.13 1.53 1.53 0 0 0-2.15.06 1.5 1.5 0 0 0 .06 2.13ZM15.63 26.44c.61.58 1.58.55 2.16-.06a1.5 1.5 0 0 0-.06-2.14 1.54 1.54 0 0 0-2.16.06 1.5 1.5 0 0 0 .06 2.14ZM35 24.83c.61.57 1.58.55 2.16-.06a1.5 1.5 0 0 0-.06-2.14 1.55 1.55 0 0 0-2.17.06c-.57.6-.55 1.57.07 2.14Z" fill="#00B6DE"/></svg>