<!-- by TradingView --><svg width="56" height="56" viewBox="0 0 56 56" xmlns="http://www.w3.org/2000/svg"><path fill="#fff" d="M0 0h56v56H0z"/><path fill-rule="evenodd" d="M52 28c0 5.9-10.75 10.69-24 10.69S4 33.9 4 28c0-5.9 10.75-10.69 24-10.69S52 22.1 52 28Zm-3.03 3.54c1.12-1.12 1.7-2.3 1.7-3.52 0-1.22-.58-2.41-1.7-3.53a15.2 15.2 0 0 0-4.81-3.03c-4.12-1.75-9.83-2.84-16.16-2.84-6.34 0-12.05 1.1-16.17 2.84a15.2 15.2 0 0 0-4.81 3.03c-1.12 1.12-1.7 2.31-1.7 3.53 0 1.21.58 2.4 1.7 3.52a15.2 15.2 0 0 0 4.81 3.03c4.12 1.75 9.83 2.84 16.17 2.84 6.33 0 12.04-1.1 16.16-2.84a15.2 15.2 0 0 0 4.81-3.03ZM28 37.82c12.74 0 23.08-4.4 23.08-9.8 0-5.42-10.34-9.8-23.08-9.8-12.75 0-23.08 4.38-23.08 9.8 0 5.4 10.33 9.8 23.08 9.8ZM12 26H8v1h1v4h1v-4h1.15l1.27 4h1l1.06-3.42L15.5 31h1.03L18 26.27V31h1v-5h-1.98L16 29.3 15.08 26h-1.09l-1.01 3.29-.98-3.2V26Zm24 5v-5h1v5h-1Zm-5 0v-5h2a2.5 2.5 0 0 1 0 5h-2Zm1-1v-3h1a1.5 1.5 0 0 1 0 3h-1Zm-12 1v-5h1.3l2.7 3.57V26h1v5h-1.18L21 27.35V31h-1Zm19.81-5c.84 0 1.38.34 1.54.5l-.75.76c-.85-.65-1.48-.1-1.46.12v.06c0 .2.01.39.91.63.99.27 1.3.71 1.3 1.5 0 .78-.73 1.42-1.82 1.43a2.38 2.38 0 0 1-1.66-.58l.76-.85c.18.25.57.48.9.48.27 0 .76-.13.76-.48 0-.36-.27-.48-.84-.65-.56-.18-1.46-.46-1.43-1.38.03-.92.75-1.54 1.8-1.54Zm4.67 5c.72 0 1.36-.3 1.82-.8l-.84-.63a1.4 1.4 0 0 1-1.02.45c-.8 0-1.44-.68-1.44-1.52s.64-1.52 1.44-1.52c.36 0 .68.14.94.37l.82-.65a2.46 2.46 0 0 0-1.72-.7A2.49 2.49 0 0 0 42 28.5c0 1.38 1.1 2.5 2.48 2.5Zm-12.01.73c-.52.97-1.23 1.57-2.02 1.57-1.58 0-2.86-2.42-2.86-5.4 0-2.99 1.28-5.4 2.86-5.4.86 0 1.64.71 2.16 1.85h-.33c-.43-.8-1-1.29-1.63-1.29-1.32 0-2.4 2.17-2.4 4.84 0 2.66 1.08 4.83 2.4 4.83.55 0 1.06-.37 1.46-1h.36Zm-6.07-3.82c0 2.44.87 4.47 2.01 4.85l.87.5c-.2.1-.42.14-.64.14-1.58 0-2.86-2.42-2.86-5.4 0-2.98 1.28-5.4 2.86-5.4.12 0 .23.01.34.04-.16.08-.38.21-.63.43-1.1.43-1.95 2.43-1.95 4.84Z" fill="#B42C33"/></svg>