<!-- by TradingView --><svg xmlns="http://www.w3.org/2000/svg" width="56" height="56"><path fill="#003D4F" d="M0 0h56v56H0z"/><path d="M18.92 16L8 37h5.07L24 16h-5.08z" fill="#E85C78"/><path d="M27.52 33.67a1.43 1.43 0 01-.52-1.22V26.4h2.03l1.19-2.4H27v-4h-3v4h-2l-1.18 2.4H24v7.54c-.1 2.43 1.6 3.07 3.76 3.06.74 0 1.5 0 2.24-.13v-3c-.76.16-1.82.26-2.48-.2z" fill="#fff"/><path d="M44.69 24l-2.6 8.8h-.05L39.88 24h-3.4l-2.1 8.82h-.05L32 24l-2.14 4.27L32.34 37h3.6l2.22-8.73L40.42 37H44l4-13h-3.31z" fill="#fff"/></svg>