<!-- by TradingView --><svg xmlns="http://www.w3.org/2000/svg" width="56" height="56"><path fill="#313538" d="M0 0h56v56H0z"/><path d="M29.23 12.23a1.23 1.23 0 11-2.46 0 1.23 1.23 0 012.46 0zm-6.91 1.22a1.23 1.23 0 11-2.45 0 1.23 1.23 0 012.45 0zm-7.1 4.89a1.23 1.23 0 100-2.45 1.23 1.23 0 000 2.45zm0 19.32a1.23 1.23 0 110 2.45 1.23 1.23 0 010-2.45zm5.87 3.66a1.23 1.23 0 110 2.45 1.23 1.23 0 010-2.45zM28 42.55A1.23 1.23 0 1128 45a1.23 1.23 0 010-2.45zm8.13-29.1a1.23 1.23 0 11-2.45 0 1.23 1.23 0 012.45 0zm-1.22 27.87a1.23 1.23 0 110 2.45 1.23 1.23 0 010-2.45zM42 17.12a1.23 1.23 0 11-2.45 0 1.23 1.23 0 012.45 0zm-1.22 20.54a1.23 1.23 0 110 2.45 1.23 1.23 0 010-2.45z" fill="#20DA9F"/><path d="M33 22H23v2h10v-2zm-6 2v12h2V24h-2z" fill="#fff"/></svg>