<!-- by TradingView --><svg xmlns="http://www.w3.org/2000/svg" width="56" height="56"><path fill="#0D2C58" d="M0 0h56v56H0z"/><path d="M25.5 16c-5.14 0-6.5 4.02-6.5 8.5s1.53 8.5 6.5 8.5 6.5-4.08 6.5-8.5c0-4.41-1.53-8.5-6.5-8.5zm0 2c2.81 0 4.5 1.32 4.5 6.5 0 5.17-1.83 6.5-4.5 6.5S21 29.55 21 24.5c0-5.06 1.9-6.5 4.5-6.5zM10 19.24l1.28 1.57L14 18.7V33h2V16h-2l-4 3.24z" fill="#fff"/><path d="M42.88 20l-2.65 4.07c-.2.3-.26.64-.2.84.15.5.37 1.09.37 1.09h1.08c.2-.01.48-.21.67-.5l3.58-5.5h-2.85z" fill="#FAC319"/><path d="M36.13 20l2.66 4.07c.19.3.26.64.2.84-.15.5-.37 1.09-.37 1.09h-1.08c-.2-.01-.48-.21-.67-.5L33.28 20h2.85z" fill="#71BE4B"/><path d="M43.15 33l-2.92-4.2c-.19-.27-.25-.59-.2-.78.15-.47.38-1.02.38-1.02h1.07c.2.01.48.2.67.48L46 33h-2.85z" fill="#00A1DF"/><path d="M35.85 33l2.94-4.2c.19-.27.26-.59.2-.78-.15-.47-.37-1.02-.37-1.02h-1.08c-.2.01-.48.2-.67.48L33 33h2.85z" fill="#E84B50"/><path d="M15.71 37.24h1.88v-.6H15.7v-.98h2.2v-.6h-2.94v3.87h2.96v-.6H15.7v-1.09zm6.28.5l-1.94-2.68h-.7v3.87h.71v-2.7l1.95 2.7h.7v-3.87h-.72v2.69zM25.95 35c-.85 0-1.71.49-1.71 1.42v1.24c0 .93.87 1.34 1.73 1.34s1.7-.5 1.7-1.43v-1.2c0-.8-.7-1.37-1.72-1.37zm-.97 1.4c0-.55.48-.8.96-.8.6 0 1 .3 1 .76v1.24c0 .55-.5.8-.97.8-.6 0-1-.31-1-.78v-1.21zm6.25.88l-1.19-2.21h-.84v3.86h.72v-2.6l1.02 1.89h.57l1.01-1.88v2.6h.73v-3.87h-.85l-1.17 2.2zM39.07 35c-1 0-1.7.58-1.7 1.4v1.26c0 .8.68 1.34 1.72 1.34.95 0 1.6-.5 1.6-1.23v-.2h-.71v.14c0 .42-.35.69-.89.69-.59 0-.98-.31-.98-.78V36.4c0-.55.48-.8.95-.8.42 0 .92.19.92.7v.17h.7v-.24c0-.72-.66-1.22-1.6-1.22zm4.97 1.76l-.77-.2c-.55-.13-.61-.34-.61-.5 0-.36.39-.48.72-.48.43 0 .73.15.9.44l.03.06.64-.23-.03-.07c-.2-.5-.75-.78-1.52-.78-.87 0-1.47.46-1.47 1.11 0 .55.31.87 1.01 1.04l.77.19c.4.1.56.26.56.53 0 .4-.46.54-.86.54-.5 0-.89-.22-1.04-.59l-.03-.07-.67.23.02.06c.2.6.83.95 1.7.95.95 0 1.61-.48 1.61-1.17 0-.56-.32-.92-.96-1.06zm-8.95-1.7h.74v3.87h-.74v-3.86zm-23.6 2.42h1.14v.24c0 .5-.49.68-.9.68-.6 0-.99-.31-.99-.78V36.4c0-.55.48-.8.96-.8.44 0 .91.18.91.66v.17h.72v-.23c0-.82-.82-1.19-1.63-1.19-1 0-1.7.58-1.7 1.4v1.27c0 .8.7 1.33 1.73 1.33.96 0 1.6-.5 1.6-1.23v-.9H11.5v.61z" fill="#fff"/></svg>