<!-- by TradingView --><svg width="56" height="56" xmlns="http://www.w3.org/2000/svg"><path fill="#00ACB3" d="M0 0h56v56H0z"/><path d="M7.58 25.999H4v.644h1.486V31h.607v-4.356H7.58V26zM8 30.999v-5h.597v1.878c.412-.46.912-.546 1.111-.531 1.047-.028 1.297.886 1.292 1.346v2.307h-.605v-2.178c-.008-.298-.191-.894-.858-.9-.667-.008-.905.597-.94.9v2.178H8zM13.324 27c1.34-.007 1.588 1.517 1.545 2.28h-2.605c.04.524.46 1.13 1.116 1.13.525 0 .893-.367 1.012-.551l.372.368c-.388.654-1.122.787-1.44.772-1.334-.03-1.667-1.367-1.667-2.032-.003-.652.327-1.96 1.667-1.967zM26.724 27c1.34-.007 1.59 1.517 1.546 2.28h-2.605c.04.524.46 1.13 1.116 1.13.524 0 .893-.367 1.012-.551l.372.368c-.389.654-1.122.787-1.44.772-1.334-.03-1.667-1.367-1.667-2.032-.003-.652.326-1.96 1.666-1.967z" fill="#003559"/><path d="M13.274 27.623c-.712-.021-.96.727-.996 1.104h1.975c-.03-.359-.267-1.082-.98-1.104zM26.676 27.597c-.712-.022-.96.739-.995 1.122h1.974c-.03-.365-.267-1.1-.979-1.122z" fill="#00ACB3"/><path d="M15.418 31v-3.995h.59v.8a1.334 1.334 0 011.324-.8v.674c-1.03.043-1.312 1.009-1.324 1.487V31h-.59zM19.227 27.01c-.54-.062-1.13.198-1.358.335l.17.64c.047-.08.257-.265 1.017-.325.76-.061.944.61.94.954-.107-.076-.47-.213-1.063-.152-.741.076-1.359.466-1.359 1.345 0 .878.76 1.204 1.359 1.193.478-.009.909-.322 1.064-.477V31h.56c.003-.517.008-1.816 0-2.614-.01-.997-.655-1.301-1.33-1.377z" fill="#003559"/><path d="M18.194 29.76c-.033-.926 1.188-.803 1.806-.626v.517c0 .256-.205.477-.311.555-.404.298-1.466.406-1.495-.446z" fill="#00ACB3"/><path d="M21.197 32v-4.903h.607v.586c.194-.236.583-.708 1.212-.682.63.026 1.602.568 1.594 1.949-.008 1.38-.868 2.019-1.594 2.019-.629 0-1.05-.408-1.212-.647V32h-.607z" fill="#003559"/><ellipse cx="22.884" cy="29.034" rx="1.119" ry="1.369" fill="#00ACB3"/><path d="M28.781 29.523V27h.57v2.32c.015.359.212 1.078.886 1.078.673 0 .87-.719.885-1.078V27h.631v3.927h-.63v-.529c-.267.52-.843.617-1.097.6-.982.04-1.239-.966-1.245-1.475zM32.732 27.12V26h.602v1.12h.992v.61h-.992c-.002.635-.006 1.965 0 2.194.008.287.183.457.476.44.235-.015.442-.114.516-.162v.609c-.159.1-.484.167-.627.188-.786.029-.973-.669-.967-1.021v-2.249h-.476v-.61h.476zM35.111 26h.682v.727h-.682zM35.111 27h.682v4h-.682zM37.97 27c.751.015 1.22.488 1.36.723l-.404.494c-.132-.186-.508-.564-.956-.586-.56-.027-1.144.421-1.16 1.354-.017.933.642 1.363 1.16 1.4.416.029.838-.348.997-.54l.362.375c-.395.68-1.07.802-1.359.777-.905-.009-1.795-.777-1.795-2.012 0-1.235.857-2.003 1.795-1.985zM40.956 27.003a1.924 1.924 0 011.323.461l-.296.537c-.192-.136-.666-.405-1.027-.393-.45.015-.605.257-.605.53 0 .217.286.367.43.415l.998.378c.195.073.582.36.57.923-.014.704-.436 1.082-1.245 1.142-.647.049-1.311-.378-1.562-.597l.338-.492c.373.386.893.492 1.224.492.33 0 .612-.16.633-.492.017-.266-.237-.428-.366-.476l-1.02-.356c-.21-.108-.634-.448-.64-.938-.007-.612.464-1.089 1.245-1.134z" fill="#003559"/><path d="M43 30.998v-4.996h.506l1.694 2.699 1.704-2.699h.53v4.496h2.04c.708-.034 2.096-.499 1.982-2.085-.115-1.585-1.3-1.9-1.878-1.858H49V30h-.519v-3.998h.992c.861-.038 2.572.407 2.526 2.494-.046 2.086-1.633 2.537-2.42 2.502h-2.675v-3.994L45.2 29.652l-1.694-2.648v3.994H43z" fill="#fff"/></svg>