<!-- by TradingView --><svg width="56" height="56" viewBox="0 0 56 56" xmlns="http://www.w3.org/2000/svg"><path fill="#F0F3FA" d="M0 0h56v56H0z"/><path d="M4.77 21a.76.76 0 0 0-.77.75v1.5c0 .41.35.75.77.75h2.74c.27 0 .49.22.49.48v9.77c0 .41.35.75.77.75h2.46c.42 0 .77-.34.77-.75v-9.77c0-.26.22-.48.5-.48h3.73c.42 0 .77-.34.77-.75v-1.5a.76.76 0 0 0-.77-.75H4.77Z" fill="#F26C52"/><path d="M17.22 21.33a.62.62 0 0 0-.54-.33h-2.56c-.47 0-.77.5-.54.91l1.34 2.45h1.35l-.58.32-.17.1c-.17.1-.23.3-.14.47L18 30v4.23c0 .43.35.77.79.77h2.42c.44 0 .79-.34.79-.77V30l4.42-8.08a.62.62 0 0 0-.54-.91h-2.56a.62.62 0 0 0-.54.33L20 26.53l-2.78-5.2Z" fill="#F26C52"/><path d="M26 22.85c0-1.02.88-1.85 1.96-1.85h4.7c2.4 0 4.34 2.01 4.34 4.5 0 1.6-.81 3.01-2.03 3.81L38 35h-3.33c-.38 0-.73-.2-.91-.54l-1.7-3.16a.47.47 0 0 1 .16-.61l1.14-.75c-.23.04-.46.06-.7.06H30v4.52c0 .26-.23.48-.5.48h-3c-.27 0-.5-.22-.5-.48V22.85Zm4 4.66c0 .27.19.49.41.49h1.9c.93 0 1.69-.9 1.69-2s-.76-2-1.69-2H30v3.51Z" fill="#F26C52"/><path d="M42.17 21.5c.11-.3.4-.5.73-.5h3.44c.33 0 .63.2.74.5l4.88 12.76c.14.36-.13.74-.53.74h-2.67a.71.71 0 0 1-.68-.47l-.87-2.52c-.07-.2-.3-.29-.49-.21-1.67.61-3.88.8-4.9.8l-.01-.01-1.67-.05.9.28c.39.13.59.53.44.9l-.29.72a.85.85 0 0 1-.8.56H37l5.17-13.5Zm.66 8.5c1.58-.1 2.55-.68 3.17-1l-1.38-4.5-1.79 5.5Z" fill="#F26C52"/></svg>