<!-- by TradingView --><svg width="56" height="56" viewBox="0 0 56 56" xmlns="http://www.w3.org/2000/svg"><path fill="#F0F3FA" d="M0 0h56v56H0z"/><path d="M26.1 9.86c-3.31 3.38-6.3 7.07-9.45 10.6-.8.9-1.52 2.03-1.94 3.06-.3.75-.56 1.8-.66 2.7-.07.63-.07 2.16 0 2.89.17 1.75.5 2.97 1.23 4.4 1.31 2.6 3.83 5.16 5.93 7.18.27.26.66.48 1.1.63.36.12 1.08.13 1.48.02.37-.1.84-.36 1.1-.59.2-.18.9-.94 1.59-1.74 2.52-2.92 5.1-5.78 7.65-8.67.21-.24.38-.5.5-.72.3-.6.44-1.46.35-2.04a3.75 3.75 0 0 0-.89-1.98c-.45-.54-1.2-1.39-1.24-1.4L23.46 34.7l-.24.26-.22-.24a154.9 154.9 0 0 1-2.35-2.67c-1-1.12-1.14-1.33-1.4-2.02a6.08 6.08 0 0 1-.03-3.9 4.9 4.9 0 0 1 1.07-1.85l.82-.93c2.81-3.21 5.67-6.38 8.48-9.6.5-.58 1.04-.89 1.74-.99.36-.05.83-.03 1.1.04.06.02.12.03.12.01a208.43 208.43 0 0 1-2.42-2.84 2.66 2.66 0 0 0-4.02-.12Zm5.32 5.18c-.3.19-.74.65-1.51 1.55-2.43 2.83-4.94 5.6-7.43 8.38-.94 1.04-1.02 1.16-1.22 1.68-.4 1.02-.3 2.27.24 3.2.2.32.69.92 1.25 1.53l.43.45.22-.24.93-1.04c2.04-2.32 4.12-4.6 6.13-6.95a189.95 189.95 0 0 1 2.32-2.6c.03 0 .36.35.73.78a231.82 231.82 0 0 0 2.17 2.47c.23.27.52.61.63.77.6.86.91 2.18.8 3.31a8.54 8.54 0 0 1-.39 1.72c-.09.26-.43.9-.6 1.15-.2.25-.87 1.04-1.61 1.86a619.74 619.74 0 0 0-8.1 9.16 2.8 2.8 0 0 1-2.16 1c-.27 0-.71-.08-.82-.14-.03-.02-.05-.02-.04.01.04.1 2.59 3.05 2.82 3.26.27.23.56.4.97.54.4.15 1.18.15 1.58 0 .74-.26.94-.44 2.87-2.64 2.79-3.15 6.26-6.28 8.57-9.82 1.2-1.83 1.8-4 1.8-6.43a11.7 11.7 0 0 0-2.69-7.63c-1.5-1.67-2.9-3.57-4.55-5.09a2.75 2.75 0 0 0-3.34-.24Z" fill="url(#as1ihjr2s)"/><defs><linearGradient id="as1ihjr2s" x1="28" y1="9" x2="28" y2="47" gradientUnits="userSpaceOnUse"><stop stop-color="#0084CC"/><stop offset="1" stop-color="#005FAC"/></linearGradient></defs></svg>