<!-- by TradingView --><svg width="56" height="56" viewBox="0 0 56 56" xmlns="http://www.w3.org/2000/svg"><path fill="#F0F3FA" d="M0 0h56v56H0z"/><path d="M42.45 29.22a8.4 8.4 0 0 1-6.16 7.94 8.46 8.46 0 0 1-8.72-13.65 8.62 8.62 0 0 1 9.87-2.23l3.32-3.4a13.03 13.03 0 0 0-18.12 17.5 12.92 12.92 0 0 0 14.65 6.17C42.99 40.1 47 34.85 47 29c0-.47 0-.85-.08-1.31l-4.47 1.54Z" fill="#231815"/><path d="M32.9 35.91c.71-1.46 1.1-3 1.1-4.62v-9.32a8.9 8.9 0 0 0-5 1.54v7.24a6.7 6.7 0 0 1-.84 3 8.97 8.97 0 0 0 4.75 2.16ZM23.23 38.3a20 20 0 0 1-1.17-1.3A6.17 6.17 0 0 1 16 30.82V16h-5v15.37C11 37.22 15.9 42 21.99 42h.62c1.4 0 2.8-.23 4.13-.77a12.86 12.86 0 0 1-3.5-2.93ZM43.5 27a3.5 3.5 0 1 0 0-7 3.5 3.5 0 0 0 0 7Z" fill="#C7000B"/></svg>