<!-- by TradingView --><svg width="56" height="56" viewBox="0 0 56 56" xmlns="http://www.w3.org/2000/svg"><path fill="#F0F3FA" d="M0 0h56v56H0z"/><path d="M47.89 32.34c1.08-11-5.98-15.47-9.65-16.34.6 1.25 1.32 4.61-.67 8.12-2 3.5-5.61 4.44-7.17 4.47l1.67 2.07a6.14 6.14 0 0 1 4.58 3.06c-.1-.89.92-6.09 5.55-6.09a5.74 5.74 0 0 1 5.69 4.71Zm-39.7.04c-1.44-11.08 5.93-15.51 9.8-16.34-1.28 2.58-.53 5.7 0 6.94.53 1.4 2.85 4.48 7.81 5.67a7.23 7.23 0 0 1 5.92 7.24c-.35 6.67-6.68 7.55-9.54 6.96l1.54-1.45.43.92c3.82-.04 6.23-3.13 6.23-5.83 0-2.69-2.25-5.75-5.64-5.75a6 6 0 0 0-5.15 2.95c.07-.56-.64-6.09-5.6-6.09a5.79 5.79 0 0 0-5.8 4.78Zm23.73-8.75A6.28 6.28 0 0 1 30 21.28c-.63-1.44-1.18-1.6-2.45-1.6l-1.96-1.85.81 1.86-3-1.55 1.04 1.77-3-.22c.78.33 2.13 1.3 1.18 2.57-1.19 1.6-.15 4.13 1.82 4.92l.57.23c1.98.78 4.8 1.89 6.52 4.43.12-.7-.68-2.8-4.87-5.53-.26-.18-.8-.68-.77-1.15.02-.6.5-1.12 1.26-1.17.76-.05 1.4.68 1.45 1.5l1.1-.63-.4-1.44-1.19-.11c-.22-.35-.82-1.05-1.45-1.05.23-.25.88-.5 1.73.5h1.18l.74 1.93 1.62-1.06Z" fill="#4DB848"/></svg>