<!-- by TradingView --><svg width="56" height="56" xmlns="http://www.w3.org/2000/svg"><path fill="#00754A" d="M0 0h56v56H0z"/><path fill-rule="evenodd" d="M17.037 13.623c-.033.136-.07.308-.11.517a40.61 40.61 0 00-.375 2.52 98.618 98.618 0 00-.624 8.12c-.2 5.447.01 11.605 1.212 16.141 1.692-1.087 3.447-2.714 7.86-3.836v-4.463c-1.368.938-2.34 2.044-4.34 2.044-.514 0-.93-.4-.93-.895 0-.494.416-.895.93-.895.676 0 1.643-.345 2.695-.925C24.22 31.474 25 30.5 25 30.39v-3.343c-.944.553-1.386 1.1-2.362 1.56-.755.357-1.488.67-2.123.895-.596.211-1.224.39-1.716.39-.514 0-.931-.4-.931-.895 0-.494.417-.894.93-.894.128 0 .478-.07 1.073-.28a21.92 21.92 0 001.947-.822C23.094 26.4 25 24.952 25 24.952v-2.355c-1.173.664-2.269 1.468-3.507 2.01-.664.29-1.384.514-2.074.514-.514 0-.93-.4-.93-.895 0-.494.416-.895.93-.895.302 0 .738-.106 1.303-.353.55-.241 1.154-.584 1.773-.983C23.575 21.3 24.173 20.643 25 20v-4.121c-.469.57-1.065 1.2-1.622 1.652-.548.446-1.182.835-1.872 1.001-.499.12-1.004-.171-1.128-.65-.125-.48.178-.966.677-1.086.303-.073.682-.275 1.121-.632.431-.35.87-.808 1.29-1.32.519-.633.988-1.32 1.363-1.929-1.86.088-3.583.213-4.98.347a43.79 43.79 0 00-2.242.264c-.228.035-.418.067-.57.098zM27 14.668c.334.373.909.978 1.264 1.342.54.556 1.104 1.09 1.639 1.523.513.415 1.083.805 1.631.981.488.156 1.015-.097 1.177-.566.163-.469-.1-.975-.588-1.132-.197-.063-.542-.264-1.022-.652a17.59 17.59 0 01-1.478-1.377 37.804 37.804 0 01-1.778-1.974c2.107-.044 4.247-.027 6.18.084 2.22.127 4.09.375 5.328.763.065.165.138.432.211.815.15.78.27 1.892.361 3.252.183 2.712.24 6.302.202 9.942a194.57 194.57 0 01-.252 8.168c-5.083-.153-9.71.207-12.875.832V32.5c.453.306 1.51.732 2.027 1.009 1.183.632 2.578 1.157 4.042 1.157.514 0 .931-.4.931-.895 0-.494-.417-.895-.93-.895-1.018 0-2.09-.37-3.137-.931-.893-.477-2.237-1.063-2.933-1.593v-3.728c1.895 1.13 4.624 2.673 7.31 2.673.514 0 .931-.4.931-.895 0-.494-.417-.895-.93-.895-2.613 0-5.213-1.253-7.311-2.576v-2.986c1.758 1.034 4.5 2.176 6.507 2.562.504.097.995-.217 1.095-.702.101-.485-.226-.956-.73-1.053-2.117-.407-5.23-1.878-6.872-2.962v-5.123zM25 38.93c-3.85 1.04-5.244 2.465-6.854 3.498a78.2 78.2 0 01-.447.285l.097.255c.01.01.03.027.062.05.095.068.255.155.5.25.493.19 1.203.363 2.102.507 1.498.24 2.483.384 4.54.424V38.93zm2 5.277V38.49c3.041-.63 7.64-1.017 12.766-.866l-.015.215c-.101 1.434-.218 2.654-.346 3.563-.064.456-.13.82-.193 1.085a3.861 3.861 0 01-.049.188c-.97.445-2.613.827-4.682 1.097-2.041.267-5.18.413-7.481.436zm-9.882-30.872l.002-.005a.153.153 0 01-.002.005zm17.019-2.226c2.383.137 4.576.418 6.075.942.307.107.5.315.608.461.114.155.198.327.262.485.129.319.23.717.313 1.154.169.883.295 2.077.388 3.46.186 2.774.244 6.414.206 10.075-.04 3.663-.176 7.367-.38 10.273-.103 1.451-.224 2.716-.36 3.682-.068.482-.141.904-.222 1.245-.072.299-.175.662-.358.926l-.122.176-.19.105c-1.257.69-3.335 1.152-5.626 1.451-2.332.305-5.021.456-7.595.456-2.57 0-5.058-.15-6.983-.46-.958-.154-1.816-.353-2.486-.61a4.138 4.138 0 01-.923-.478c-.265-.19-.535-.456-.678-.822-1.933-4.955-2.231-12.572-1.998-18.913.117-3.194.371-6.108.636-8.267.132-1.078.268-1.977.393-2.632.062-.326.124-.606.185-.823.03-.108.064-.217.104-.315l.001-.004c.025-.062.104-.256.271-.417l.107-.103.135-.064c.189-.091.427-.15.62-.192.222-.048.491-.095.798-.142a45.597 45.597 0 012.346-.277c1.863-.179 4.28-.34 6.828-.423 2.546-.082 5.237-.087 7.645.052z" fill="#fff"/></svg>