<!-- by TradingView --><svg width="56" height="56" viewBox="0 0 56 56" xmlns="http://www.w3.org/2000/svg"><path fill="#F0F3FA" d="M0 0h56v56H0z"/><path d="M36.29 16c0 1.3-1.04 2-2.3 2H21.85c-1.26 0-2.3-.7-2.3-2H12v5h32v-5h-7.71ZM36.29 22c0 1.3-1.04 2-2.3 2H21.85c-1.26 0-2.3-.7-2.3-2H12v5h32v-5h-7.71ZM36.33 28c0 1.3-1.04 2-2.3 2H21.86c-1.26 0-2.3-.7-2.3-2H12v5h32v-5h-7.67ZM36.37 34c0 1.1-1.04 2.01-2.3 2.01H21.88c-1.26 0-2.3-.9-2.3-2.01H12c.33 4.46 4.56 8 9.77 8h12.46c5.21 0 9.5-3.54 9.77-8h-7.63Z" fill="#005BAA"/></svg>