<!-- by TradingView --><svg xmlns="http://www.w3.org/2000/svg" width="56" height="56" viewBox="0 0 56 56"><path fill="url(#avf11f23n)" d="M0 0h56v56H0z"/><path d="M23 16h-1v11h1v-1.35A3.99 3.99 0 0 0 30 23a4 4 0 0 0-7-2.65V16zm6 7a3 3 0 1 1-6 0 3 3 0 0 1 6 0zM8 19v4.9c0 1.72 1.34 3.1 2.98 3.1h1.04c.76 0 1.45-.3 1.98-.78V27h1v-3-5h-1v4.4a2.6 2.6 0 0 1-2.53 2.6A2.55 2.55 0 0 1 9 23.4V19H8zm40 8v-4.9c0-1.72-1.34-3.1-2.98-3.1h-1.04c-.76 0-1.45.3-1.98.78V19h-1v8h1v-4.4a2.6 2.6 0 0 1 2.53-2.6A2.55 2.55 0 0 1 47 22.6V27h1zm-31 0v-8h1v1.46A2.8 2.8 0 0 1 20.5 19v1c-.82-.09-2.5.4-2.5 2.54V27h-1zm22-8h-1v1.35A3.99 3.99 0 0 0 31 23a4 4 0 0 0 7 2.65V27h1v-8zm-4 7a3 3 0 1 1 0-6 3 3 0 0 1 0 6z" fill="#fff"/><path fill-rule="evenodd" d="M31 30h1v7.5c0 1.03-1.2 3.5-3.9 3.5-2.67 0-3.63-1.62-3.77-2.43h1.25c.25.5 1.12 1.5 2.53 1.5 1.76 0 2.89-1.85 2.89-2.57v-.85A3.99 3.99 0 0 1 24 34a4 4 0 0 1 7-2.65V30zm-6 4a3 3 0 1 0 6 0 3 3 0 0 0-6 0zm10-4h-1v8h1v-4.46c0-2.15 1.68-2.63 2.5-2.54v-1a2.8 2.8 0 0 0-2.5 1.46V30zm7 8a4 4 0 1 0 0-8 4 4 0 0 0 0 8zm0-1a3 3 0 1 0 0-6 3 3 0 0 0 0 6z" fill="#C1D82F"/><defs><linearGradient id="avf11f23n" x1="10.42" y1="9.71" x2="68.15" y2="76.02" gradientUnits="userSpaceOnUse"><stop stop-color="#1A1E21"/><stop offset="1" stop-color="#06060A"/></linearGradient></defs></svg>