<!-- by TradingView --><svg width="56" height="56" fill="none" xmlns="http://www.w3.org/2000/svg"><path fill="#34414C" d="M0 0h56v56H0z"/><path fill-rule="evenodd" clip-rule="evenodd" d="M45.25 25h-2.531s.294-.725.281-1.458C43 22.35 42.437 21 38.656 21 30.625 21 22 23.813 22 23.813l-.172-.357S32.156 19 40.375 19c1.746 0 3.183.269 4.281.937.924.562 1.32 1.392 1.344 2.412.018.784-.133 1.68-.75 2.651zm-33.844 8H9s-.999.903-1 2.063C7.997 38.306 11.406 39 14.375 39 23.75 39 35 33 35 33h-1.156c-5.895 2.457-12.907 4-17.875 4C13.125 37 11 36.75 11 34.734c.004-.472.142-1.118.406-1.734zm9.09-8a1 1 0 100-2 1 1 0 000 2z" fill="#C80139"/><path fill-rule="evenodd" clip-rule="evenodd" d="M11.28 29.248C10.95 30.789 10.26 32 8.123 32c-2.138 0-2.324-1.21-1.995-2.752L7.348 24H9.19l-1.33 5.787c-.131.616.033.913.526.913s.811-.296.943-.913L10.658 24H12.5l-1.22 5.248zM13.143 26h1.872l-.168.803h.024c.409-.513 1.045-.803 1.765-.803.901 0 1.363.306 1.364 1.023 0 .102-.008.345-.057.55L16.911 32h-1.944l.937-4.043c.108-.416-.036-.657-.397-.657-.373 0-.756.251-.9.817l-.9 3.883h-1.944l1.38-6zm7.86 0h-1.82l-1.381 6h1.82l1.38-6zm.711 0h1.887l-.45 4.431h.022L25.05 26h1.82l-3 6h-2.156v-6zm6.244 3.627l.08-.37h3.132c.446-1.94.596-3.257-1.71-3.257-2.018 0-2.798 1.191-3.166 2.794-.4 1.698-.561 3.206 1.779 3.206 1.537 0 2.534-.587 2.89-2h-1.721c-.207.717-.437 1-.918 1-.539 0-.573-.487-.366-1.373zM29.265 27c.517 0 .529.487.345 1.288h-1.343c.172-.77.39-1.288.998-1.288zm3.513-1h1.752l-.252.93h.022c.418-.606 1.104-.93 1.936-.93l-.488 1.7c-.89 0-1.631.132-1.829 1.007L33.234 32h-1.82l1.364-6zm4.519 4.681c-.056-.169-.034-.428.022-.681h-1.617l-.067.291c-.246 1.14.303 1.709 1.932 1.709 1.504 0 2.48-.717 2.75-1.866.295-1.32-.663-1.606-1.435-1.836-.466-.14-.865-.258-.882-.572a.457.457 0 01.012-.123c.067-.305.228-.603.71-.603.382 0 .562.205.45.7h1.595l.045-.097C40.991 26.78 40.677 26 38.97 26c-1.46 0-2.448.58-2.707 1.72-.268 1.2.394 1.475 1.775 1.95.516.179.595.431.539.695-.08.327-.241.635-.787.635-.29 0-.437-.16-.493-.319zm4.302-2.981c.298-1.268 1.564-1.7 2.856-1.7 1.518 0 2.078.453 1.804 1.656l-.673 3.08c-.103.431-.229 1.012-.069 1.264h-1.781c-.023-.2.011-.463.045-.685h-.023c-.275.4-.684.685-1.325.685-.949 0-1.83-.701-1.62-1.844.235-1.287 1.5-1.548 2.536-1.763.134-.028.264-.055.388-.083.593-.137.708-.222.81-.654.08-.347-.045-.656-.456-.656-.513 0-.719.205-.845.7H41.6zm1.475 3.088c.387 0 .787-.211.925-.78a23.016 23.016 0 01.24-1.002c-.347.152-.581.226-.755.28a1.584 1.584 0 00-.353.141c-.229.137-.355.317-.434.633-.104.454.033.728.377.728zM50 24h-1.82l-1.707 8h1.82L50 24z" fill="#fff"/></svg>