<!-- by TradingView --><svg width="56" height="56" xmlns="http://www.w3.org/2000/svg"><path fill="#003C6E" d="M0 0h56v56H0z"/><path d="M4 26.482c.028 3.758.036 3.583.455 4.457.143.306.676.845 1.082 1.1.505.313 1.836.721 2.669.823 2.141.255 5.673.11 6.619-.233.746-.275 1.67-.533 2.242-1.1.455-.466.833-1.107.933-1.74.05-.277.014-1.669 0-3.613V23h-5v4.05c0 1.824 0 2.922-2 2.95-2 .027-2-1.383-2-2.95V23H4v3.482zM19 33h5v-5c.586 1.696 1.402 3.305 2 5h3l2-5v5h5V23h-6l-2.5 6-2.5-6h-6v10zM37 23s-.007 2.3 0 5v5h11.873l1.16-.124c1.288-.354 1.95-.858 1.967-2.564-.007-1.705-.302-2.283-1.775-2.75l-.285-.09.257-.121c.348-.151.825-.619.996-.966.185-.384.326-1.154.22-1.622-.186-.814-.398-1.286-1.38-1.64L49.158 23h-6.035C38.242 22.985 37 23 37 23zm10 3c0 .994-.379 1.003-2.004 1.003H42V25h2.996c1.012 0 2.004.006 2.004 1zm0 4c0 .92-.314 1.005-2.004 1.005H42v-2.003h2.996c1.165 0 2.004.078 2.004.998z" fill="#fff"/><path d="M4 36h48" stroke="#9E9E9E" stroke-width="2"/></svg>