<!-- by TradingView --><svg width="56" height="56" viewBox="0 0 56 56" xmlns="http://www.w3.org/2000/svg"><path fill="#F0F3FA" d="M0 0h56v56H0z"/><path d="M23 20.49c0-.82-.2-1.49-1-1.49s-1 .67-1 1.49v11.26A4.19 4.19 0 0 0 25.12 36h5.76c2.28 0 4.12-1.9 4.12-4.25V20.49c0-.82-.2-1.49-1-1.49s-1 .67-1 1.49v11.39A2.1 2.1 0 0 1 30.94 34h-5.88A2.1 2.1 0 0 1 23 31.87V20.5Z" fill="#4D1260"/><path d="M43.92 22c.23.6.42 1.23.58 1.87a1 1 0 1 1-.58-1.86Zm-4.8-6.87.69.63a1.5 1.5 0 1 1-.69-.63Zm-6.75-3.57c.68.18 1.35.4 2 .67a1.06 1.06 0 1 1-2-.67Zm-10.73.67c.64-.26 1.3-.49 1.99-.67a1.06 1.06 0 1 1-1.99.66Zm-5.44 3.53c.22-.22.45-.42.68-.63A1.5 1.5 0 0 1 19 16.5a1.5 1.5 0 1 1-2.8-.74Zm-4.7 8.1c.16-.63.35-1.25.58-1.86a1 1 0 1 1-.58 1.87ZM43.92 34c.23-.6.42-1.23.58-1.87a1 1 0 1 0-.58 1.86ZM34 43.92a1 1 0 1 0-1.87.58c.64-.16 1.26-.35 1.87-.58Zm-10.13.58a1 1 0 1 0-1.86-.58c.6.23 1.22.42 1.86.58ZM12.08 34a1 1 0 1 0-.58-1.87c.16.64.35 1.26.58 1.87ZM28 18a1.5 1.5 0 1 0 0-3 1.5 1.5 0 0 0 0 3Zm2 3a2 2 0 1 1-4 0 2 2 0 0 1 4 0Zm-2 7a2 2 0 1 0 0-4 2 2 0 0 0 0 4Zm0 5a2 2 0 1 0 0-4 2 2 0 0 0 0 4Zm1.5 5.5a1.5 1.5 0 1 1-3 0 1.5 1.5 0 0 1 3 0Zm-12-4.5a1.5 1.5 0 1 0 0-3 1.5 1.5 0 0 0 0 3Zm1.5-6.5a1.5 1.5 0 1 1-3 0 1.5 1.5 0 0 1 3 0Zm0-5a1.5 1.5 0 1 1-3 0 1.5 1.5 0 0 1 3 0ZM12 29a1 1 0 1 0 0-2 1 1 0 0 0 0 2Zm16 16a1 1 0 1 1 0-2 1 1 0 0 1 0 2Zm16-16a1 1 0 1 0 0-2 1 1 0 0 0 0 2ZM28 13a1 1 0 1 1 0-2 1 1 0 0 1 0 2ZM17.5 40a1.5 1.5 0 1 0 0-3 1.5 1.5 0 0 0 0 3ZM40 32.5a1.5 1.5 0 1 1-3 0 1.5 1.5 0 0 1 3 0Zm-16-16a1.5 1.5 0 1 1-3 0 1.5 1.5 0 0 1 3 0Zm9.5 1.5a1.5 1.5 0 1 0 0-3 1.5 1.5 0 0 0 0 3Zm6.5 9.5a1.5 1.5 0 1 1-3 0 1.5 1.5 0 0 1 3 0ZM38.5 24a1.5 1.5 0 1 0 0-3 1.5 1.5 0 0 0 0 3ZM40 38.5a1.5 1.5 0 1 1-3 0 1.5 1.5 0 0 1 3 0ZM22.5 40a1.5 1.5 0 1 0 0-3 1.5 1.5 0 0 0 0 3ZM35 38.5a1.5 1.5 0 1 1-3 0 1.5 1.5 0 0 1 3 0Z" fill="#44D097"/></svg>