<!-- by TradingView --><svg width="56" height="56" viewBox="0 0 56 56" xmlns="http://www.w3.org/2000/svg"><path fill="#F0F3FA" d="M0 0h56v56H0z"/><circle cx="16" cy="21" r="2" fill="#50B1E0"/><circle cx="40" cy="21" r="2" fill="#50B1E0"/><circle cx="21" cy="16" r="2" fill="#50B1E0"/><circle cx="35" cy="16" r="2" fill="#50B1E0"/><circle cx="28" cy="14" r="2" fill="#50B1E0"/><circle cx="28" cy="28" r="2" fill="#50B1E0"/><circle cx="24" cy="22" r="2" fill="#50B1E0"/><circle cx="31" cy="22" r="2" fill="#50B1E0"/><circle cx="21" cy="28" r="2" fill="#50B1E0"/><circle cx="35" cy="28" r="2" fill="#50B1E0"/><circle cx="24" cy="34" r="2" fill="#50B1E0"/><circle cx="31" cy="34" r="2" fill="#50B1E0"/><circle cx="28" cy="42" r="2" fill="#50B1E0"/><circle cx="21" cy="40" r="2" fill="#50B1E0"/><circle cx="35" cy="40" r="2" fill="#50B1E0"/><circle cx="16" cy="34" r="2" fill="#50B1E0"/><circle cx="39" cy="34" r="2" fill="#50B1E0"/><circle cx="14" cy="28" r="2" fill="#50B1E0"/><circle cx="42" cy="28" r="2" fill="#50B1E0"/></svg>