<!-- by TradingView --><svg width="56" height="56" viewBox="0 0 56 56" xmlns="http://www.w3.org/2000/svg"><path fill="#F0F3FA" d="M0 0h56v56H0z"/><path d="m35.24 33.88 1.4 1.14 6.88 1.86-5-4.87-1.52-.73c.24-.53.43-1.07.56-1.63l1.63.12 6.8-1.7-6.88-1.84-1.33.21a9.32 9.32 0 0 0-.37-1.83l1.28-.62 5-4.87-6.89 1.86-.9.73a9.59 9.59 0 0 0-1.4-1.47l.73-1.04 1.94-6.66-5.08 4.95-.42 1.08a9.63 9.63 0 0 0-1.92-.5l.1-1.35L28.13 10l-1.85 6.8.21 1.3c-.62.12-1.23.3-1.82.53l-.52-1.34-5.08-4.95L21 19l.9 1.3c-.49.42-.93.9-1.33 1.41l-1.13-.92-6.88-1.87 4.99 4.88 1.54.74a9.3 9.3 0 0 0-.36 1.6l-1.84-.3L10 27.67l6.8 1.7 2.01-.14c.11.55.27 1.09.48 1.61l-1.9.91-4.99 4.88 6.88-1.87 1.58-1.28c.36.42.75.8 1.17 1.16L20.5 36.8l-1.93 6.66 5.07-4.95.92-2.34c.58.23 1.17.41 1.79.53l-.42 2.5L27.8 46l1.73-6.72-.19-2.46c.56-.06 1.1-.17 1.64-.33l.79 2.02 5.07 4.95-1.93-6.66-1.15-1.64c.54-.38 1.03-.8 1.48-1.28Z" fill="#2A4280"/><path d="m32.23 13.35-3.7 5.77.79 4.02 2.91-2.79v-7ZM23.77 13.35l3.56 5.77-.78 4.02-2.78-2.79v-7ZM17.4 17.17l5.92 3.39 1.26 3.9-3.8-1.13-3.39-6.16ZM13.24 23.77h6.85l3.01 2.86-3.88.81-5.98-3.67ZM13.19 32.23l5.93-3.73 4.06.87-2.9 2.86h-7.1ZM16.86 38.37l3.54-5.78 3.98-1.17-1.22 3.72-6.3 3.23ZM23.77 42.48v-6.75l2.8-3.01.87 3.82-3.67 5.94ZM38.95 17.26l-6 3.26-1.35 3.87 3.82-1.05 3.53-6.08ZM42.72 23.77h-6.85l-3.16 2.88 3.83 1.03 6.18-3.91ZM42.78 32.23l-5.82-3.74-4.08.75 2.8 3h7.1ZM38.59 38.75l-3.23-5.96-3.91-1.38 1.02 3.78 6.12 3.56ZM32.23 42.52v-6.75l-2.98-3.1-1 3.78 3.98 6.07Z" fill="#059E96"/></svg>