<!-- by TradingView --><svg xmlns="http://www.w3.org/2000/svg" width="56" height="56" viewBox="0 0 56 56"><path fill="url(#audxtg4vx)" d="M0 0h56v56H0z"/><path d="M14.83 26.04A25.37 25.37 0 0 1 6 21.2c1.8 15.43 12 17.04 14.9 16.7 2.56-4.8-1.22-10.54-6.07-11.87z" fill="url(#budxtg4vx)"/><path d="M6.18 21.37c.94.8 2.75 2.1 4.92 3.2 2.74 9.6 6.79 11.74 9.2 13.02l.58.32-.16.01c-8.69-2.6-13.1-11.64-14.54-16.55z" fill="url(#cudxtg4vx)"/><path d="M20.98 38c-2.54-2.66-9.25-8.16-.15-23 8.35 10.29 3.58 19.62.15 23z" fill="url(#dudxtg4vx)"/><path d="M20.94 37.96c1.03-1.43 2.78-5.42 2.6-11.55-.14-5.28-1.53-9.22-2.57-11.24 8.48 10.22 3.56 19.47.01 22.83l-.04-.04z" fill="url(#eudxtg4vx)"/><path d="M22.6 34a3.38 3.38 0 0 1-2.6-1.1c-.67-.73-1-1.61-1-2.65 0-1.04.35-1.92 1.06-2.65.71-.73 1.6-1.1 2.68-1.1 1.05 0 1.88.28 2.47.83l-.98 1.64a2.1 2.1 0 0 0-1.5-.55c-.5 0-.93.19-1.25.56-.33.37-.49.8-.49 1.27s.14.9.43 1.27c.28.37.68.56 1.19.56.37 0 .61-.06.89-.17v-.72h-1V29.3H25v3.95c-.93.5-1.44.74-2.4.74zM28.54 29.38c.29-.55.77-.88 1.46-.88v1.67a1.4 1.4 0 0 0-1.35 1.35V34H27v-5.5h1.54v.88zM33.17 34c-1.6 0-2.67-1.37-2.67-2.8 0-1.42 1.07-2.7 2.67-2.7 1.61 0 2.83 1.28 2.83 2.7 0 1.43-1.22 2.8-2.83 2.8zm0-2c.59 0 .83-.42.83-.81 0-.48-.25-.9-.83-.9s-.86.43-.86.91c0 .38.28.8.86.8zM39.03 31.95l.9-3.45h1.93l-1.7 5.5H37.9l-1.69-5.5h1.93l.9 3.45zM44.75 34c-1.66 0-2.68-1.37-2.68-2.82.02-1.35.96-2.68 2.54-2.68 1.52 0 2.39 1.28 2.39 2.57 0 .22-.02.35-.06.59h-3.09a1 1 0 0 0 .95.8c.45 0 .91-.08 1.2-.34l.75 1.09c-.59.53-1.26.79-2 .79zm.51-3.28c-.02-.38-.2-.72-.65-.72a.76.76 0 0 0-.77.72h1.42z" fill="#fff"/><path d="M20.9 37.9c-.12-.1-.23-.22-.35-.34-1.83-1.87-4.9-4.99-4.25-10.98 4.1 1.96 6.9 7.03 4.6 11.33z" fill="url(#fudxtg4vx)"/><defs><linearGradient id="audxtg4vx" x1="10.42" y1="9.71" x2="68.15" y2="76.02" gradientUnits="userSpaceOnUse"><stop stop-color="#1A1E21"/><stop offset="1" stop-color="#06060A"/></linearGradient><linearGradient id="budxtg4vx" x1="11.18" y1="25.57" x2="18.73" y2="38.53" gradientUnits="userSpaceOnUse"><stop stop-color="#94DB00"/><stop offset=".73" stop-color="#228D00"/></linearGradient><linearGradient id="cudxtg4vx" x1="9.09" y1="25.36" x2="16.76" y2="36.86" gradientUnits="userSpaceOnUse"><stop stop-color="#8ED700"/><stop offset="1" stop-color="#66C000"/></linearGradient><linearGradient id="dudxtg4vx" x1="18.41" y1="31.93" x2="23.19" y2="28.76" gradientUnits="userSpaceOnUse"><stop stop-color="#3E9903"/><stop offset="1" stop-color="#4BC000"/></linearGradient><linearGradient id="eudxtg4vx" x1="23.3" y1="15.17" x2="23.3" y2="38" gradientUnits="userSpaceOnUse"><stop stop-color="#48B700"/><stop offset=".49" stop-color="#59E300"/><stop offset="1" stop-color="#42A700"/></linearGradient><linearGradient id="fudxtg4vx" x1="21.72" y1="28.59" x2="15.95" y2="34.44" gradientUnits="userSpaceOnUse"><stop offset=".19" stop-color="#4BAF00"/><stop offset="1" stop-color="#61BC00"/></linearGradient></defs></svg>