<!-- by TradingView --><svg width="56" height="56" viewBox="0 0 56 56" xmlns="http://www.w3.org/2000/svg"><path fill="#FFDC00" d="M0 0h56v56H0z"/><path d="M27 20.92c-.06 4.3-3.23 6.08-7.37 6.08-1 0-1.99-.1-2.97-.32C13.68 26 12 24 12 20.92V14h4v6.7c0 2.83 1.77 3.64 3.63 3.64 2.25 0 3.43-1.25 3.37-3.31V14h4v6.92Zm.28 17.2c0 2.94-2.58 3.83-5.13 3.86H12V29h9.59c2.24.06 4.94.66 4.94 3.37 0 1.5-1.02 2.5-2.43 2.85.92.23 3.18.22 3.18 2.9Zm12.37-16.3L43.92 27h-4.4l-4.02-5H33v5h-4V14h9.16c1.6 0 3.05.13 4.22 1.43.72.8.92 1.8.92 2.58 0 1.03-.36 2.25-1.35 2.97-.76.55-1.74.74-2.3.83ZM44 42h-3.49L33 33.96V42h-4V29h3.5l7.5 8.01V29h4v13Zm-4.48-23.95c0-.27-.04-.72-.28-1.05-.26-.32-.6-.64-2-.64H33v3.29h4.4c.76 0 2.12-.1 2.12-1.6Zm-16.3 20.17c-.08-1.4-1.4-1.52-1.94-1.52H16v2.92h4.83c.83 0 2.45 0 2.38-1.4Zm-.59-5.36c0-1.42-1.18-1.44-1.76-1.44H16v2.94h4.58c.43 0 .85-.02 1.18-.13.87-.32.87-1.22.87-1.37Z" fill="#fff"/></svg>