<!-- by TradingView --><svg width="56" height="56" viewBox="0 0 56 56" xmlns="http://www.w3.org/2000/svg"><path fill="#F0F3FA" d="M0 0h56v56H0z"/><path d="M44.38 23.42a16.86 16.86 0 0 0-23.45-10.8 15.1 15.1 0 0 1 19.59 8.63 15.25 15.25 0 0 1-8.59 19.7 15.1 15.1 0 0 1-19.58-8.63c-.2-.47-.34-.96-.5-1.43a15.08 15.08 0 0 1-.53-4.8 16.97 16.97 0 0 0 14.9 18.8 16.92 16.92 0 0 0 18.67-14.98c.25-2.19.08-4.4-.51-6.5Z" fill="#0074BE"/><path d="M29.41 19.48c0 2.12-.58 3.37-2.12 3.57h-.17c-.81 0-1.91-.72-2.4-1.11-3.84-3.2-7.87-4.75-12.23-4.75-1.9 0-2.49.32-2.49 1.18 0 1.09 1.08 1.18 2.62 1.18 3.84 0 7.14 1.36 10.51 4.11.61.52 1.42 1.28 1.3 2.36-.15 1.5-1.5 2.32-3.52 2.32-.5 0-.96-.05-1.45-.15-.39-.08-.8-.1-1.2-.1-1.6 0-2.1.81-1.76 2.41.13.6.52 1.4 1.37 1.4.42 0 .93-.2 1.57-.66.66-.5 1.47-.74 2.3-.74 2.32 0 4.5 1.9 3.13 3.86-1.6 2.27-.61 3.45.95 3.45h.17c1.71-.1 2.74-1.11 1.4-3.7-1.45-2.75 1.44-5.36 3.83-5.36.64-.02 1.25.2 1.72.62 1 .9 1.76 1.33 2.34 1.33.54 0 .96-.32 1.32-.91.5-.74 1.03-3.13-1.27-3.13-.32 0-.66.05-.98.13-.27.05-.56.1-.83.1-3.32 0-3.62-4.92-1.49-6.18 2.18-1.28 2.2-2.88.22-3.74-.41-.2-.88-.32-1.34-.34-.96-.05-1.52.76-1.5 2.85Z" fill="url(#ai1o01x0l)"/><defs><linearGradient id="ai1o01x0l" x1="11.5" y1="17.01" x2="36.05" y2="31.58" gradientUnits="userSpaceOnUse"><stop offset=".03" stop-color="#00AEEB" stop-opacity="0"/><stop offset=".39" stop-color="#00AEEB" stop-opacity=".65"/><stop offset=".72" stop-color="#00AEEB"/></linearGradient></defs></svg>