<!-- by TradingView --><svg width="56" height="56" viewBox="0 0 56 56" xmlns="http://www.w3.org/2000/svg"><path fill="#F0F3FA" d="M0 0h56v56H0z"/><path d="M11 17.95c.17-3.68 4.13-4.83 6-4.95v22.85c0 4.08 2.6 6.47 4 7.15h-4.82c-4.2-.5-5.2-3.56-5.18-5.02V17.95Z" fill="url(#ach0mtmdh)"/><path d="M45 17.95c-.17-3.68-4.13-4.83-6-4.95v22.85c0 4.08-2.6 6.47-4 7.15h4.82c4.2-.5 5.2-3.56 5.18-5.02V17.95Z" fill="url(#bch0mtmdh)"/><path d="M23 13h10v22.14c0 2.13-1.6 3.86-3.57 3.86h-2.86C24.6 39 23 37.27 23 35.14V13Z" fill="url(#cch0mtmdh)"/><defs><linearGradient id="ach0mtmdh" x1="16" y1="13" x2="16" y2="43" gradientUnits="userSpaceOnUse"><stop stop-color="#0165A3"/><stop offset="1" stop-color="#015581"/></linearGradient><linearGradient id="bch0mtmdh" x1="40" y1="13" x2="40" y2="43" gradientUnits="userSpaceOnUse"><stop stop-color="#0165A3"/><stop offset="1" stop-color="#015581"/></linearGradient><linearGradient id="cch0mtmdh" x1="28" y1="13" x2="28" y2="39" gradientUnits="userSpaceOnUse"><stop stop-color="#F13224"/><stop offset="1" stop-color="#FFB858"/></linearGradient></defs></svg>