<!-- by TradingView --><svg width="56" height="56" viewBox="0 0 56 56" xmlns="http://www.w3.org/2000/svg"><path fill="#143C5F" d="M0 0h56v56H0z"/><path d="M8.01 23.52c.15-.06.69-.29 1.1-.63a.7.7 0 0 0 .24-.32c.07-.15.12-.27.71-.36.95-.16 1.77.15 1.77.53 0 .12-.02.27-.05.44-.05.4-.12.86.05 1.1l.18.2c.14.16.23.26.24.58 0 .23-.08.57-.16.95-.08.31-.16.66-.2 1-.1.7-.03.78.13.97l.04.05c.13.15.07.22-.02.33-.04.06-.1.13-.15.23-.12.23.16.27.5.33l.37.07c.36.08.56.5.67.74l.09.15c.07.06 1.04.54 1.34.67l.12.05c.31.12.77.3.9.53l.15.22c.12.18.23.34.26.48.05.2.39.6.41.3l.02-.19c.04-.36.1-.94-.02-1.21a3.97 3.97 0 0 0-.4-.66c.01-.13 0-.4-.19-.38-.18.02-.67.13-.89.19-.32-.2-.9-.58-.59-.66.25-.07.74-.33 1.14-.54l.52-.27c.2-.08.58-.03.74 0 .1-.13.37-.44.72-.68.2-.14.41-.4.62-.64.25-.31.5-.6.68-.64.22-.05.35-.04.48-.02l.18.02h.07c.26 0 .88.01.9-.36.03-.4-.07-1.4-.25-1.6l-1.05-1.26c-.12.11-.42.21-.66-.34a2.56 2.56 0 0 0-.72-.97l1.2-.94c.12.13.32.44.18.66-.08.12-.25.2-.4.28-.2.1-.36.17-.26.29.05.06.08.17.11.3.09.3.2.7.7.56.72-.18.9-.24.9-.55 0-.16-.11-.53-.22-.89-.1-.34-.2-.66-.2-.8 0-.22-.42-.74-.63-.98h-.33l1.38-.75c.24.1.76.34.87.53.05.09.14-.04.23-.16.12-.16.22-.3.1.38-.06.3-.12.6-.2.89-.2.86-.38 1.68-.13 2.15.18.35.2.67.21.92.02.2.03.37.12.46.2.21.56.4.64 0 .07-.4.28-1.44.63-1.75.17-.15.49-.26.82-.39.38-.14.78-.29.97-.5.27-.28.32-.52.38-.81l.08-.31c.08-.3.1-.33.17-.42l.16-.24c.1-.16.06-.32.03-.5-.05-.22-.1-.45.2-.66l.16-.1c.43-.3.7-.49.3-.58a.66.66 0 0 0-.3-.02c-.06.02-.08.02-.39-.18-.22-.14-.41-.32-.57-.48-.21-.2-.38-.36-.53-.35-.25.03-.69.38-.79.6 0 .03-.02.06-.03.08-.07.18-.1.24-.66-.07A5.68 5.68 0 0 1 21.47 16c-.58.32-1.82 1.04-2.09 1.38a2.2 2.2 0 0 1-.92.63c-.18-.54-.63-1.51-.92-1.03-.16.28-.6.47-1 .64-.48.2-.88.38-.65.62l.14.16c.34.38.62.7.8.7.06 0 .14-.03.22-.07.17-.06.35-.14.5.07.13.2.02.39-.1.6-.06.13-.13.26-.16.4-.05.18.14.44.28.63.18.24.28.37-.28.1-.68-.32-.87-1.04-1-1.52-.06-.22-.1-.38-.18-.44a1.16 1.16 0 0 1-.2-.32c-.2-.36-.43-.8-.69 0-.18.55.02 1.09.15 1.46.14.36.21.57-.15.5-.6-.13-.65-.15-.93-.3l-.24-.1a.69.69 0 0 0-.52-.06c-.16.04-.29.07-.53-.2-.43-.48-1.2-1.16-1.4-1.16-.2 0-1.84.91-2.04 1.16-.2.25-.74.9-.6 1.13.07.1 0 .2-.1.33-.11.17-.25.36-.12.6-.1 1.05-.53 1.52-.74 1.62h.01Zm9.54 8.37c-.28.35-1.2 1.75-.92 2.03.12.12.26.19.4.26.18.1.36.19.52.4l.21.23c.26.25.54.52.43 1.56-.14 1.34-.28 3.26 0 3.79.22.4.6.58.83.68l.17.09a.2.2 0 0 1 .06.07 3.48 3.48 0 0 1-.06-.84c0-1.05 0-1.61.35-2.31.29-.56.89-1.21 1.4-1.76l.34-.38.36-.37c.42-.42.8-.8.75-1.42l-.03-.45c-.02-.6-.04-1.05-.61-1.16-.24-.05-.43 0-.61.06-.36.11-.7.21-1.38-.48-1.03-1.05-1.78-.42-2.2 0Zm11.23 3.64a5.25 5.25 0 0 1-.25-2.35c-.1-.32-.29-1.03-.32-1.22-.03-.25-.88-.42-1.67-.42-.78 0-1.49 0-1.88-.42-.3-.34-.04-.89.2-1.4l.2-.4a4.56 4.56 0 0 1 2.27-1.99c.55-.14.73 0 1.13.29.2.16.47.36.9.59 1.2.66 1.52 0 1.48 0-.03 0-1.49-.67-1.74-1.09-.12-.21-.44-.3-.8-.41-.35-.1-.73-.22-.97-.47-.35-.34.13-.46.62-.58.21-.06.43-.11.58-.19.5-.24.82-.98.57-1.01l-.16-.02c-.42-.02-1.36-.08-1.33-.69.04-.7 1.17-1.68 1.74-2.1.45-.33.66-.3.81-.26l.12.02c.06 0 .25.14.47.32.35.27.8.62 1.05.62.38 0 1.21-.75 1.64-1.14l.14-.12c.36-.31.36-.31.71-.84.12-.18.28-.35.43-.53.28-.32.57-.65.64-1.01.08-.45-.35-.54-.76-.63l-.3-.07c-.47-.14-.22-1.06 0-1.06.16 0 1.41.94 2.02 1.4.43.17 1.35.5 1.49.5.14 0 .22-.1.25-.14l1.56.77c.08-.07.41-.32 1.07-.77.58-.4.82-.23 1.07-.05.1.07.22.15.35.19.32.1.43.06.68-.02a12.06 12.06 0 0 1 2.7-.47c.42.03 1.02.14 1.06.9.02.47-.05.58-.15.73-.06.1-.13.22-.2.47l-.08.27c-.1.35-.1.36-.39.68-.3.32-.27.61-.25.82a1.6 1.6 0 0 1 0 .2c.02.38.05 1.74-.64 1.32a4.85 4.85 0 0 1-.35-1.85c-.15.03-.58.17-1.03.45-.38.24-.5.53-.62.87-.06.17-.13.35-.23.53-.21.37.01.64.25.94.13.16.27.34.35.54.12.3.14.56.16.8.01.18.02.36.09.53.14.38.21.98.25 1.82.03.84-.78-.17-1.1-.84-.32-.67-.5-.63-.79-.42-.18.14-.12.25.02.51.07.14.17.32.27.58.23.6.18.66-.1.92l-.19.2c-.24.25-.4.3-.59.35-.15.04-.31.1-.54.24-.3.2-.22.3-.07.48.12.15.29.36.35.72.14.8-1 .7-1.35.42a2.43 2.43 0 0 1-.71-1.23c-.06-.28-.6-.77-.85-.98a18.7 18.7 0 0 1-.93 1.79c-.14.14-.32 0-.81-.46-.4-.36-.38-1.16-.32-1.5-.3 0-.96.03-1.25.17-.17.08-.4.32-.67.59a4.8 4.8 0 0 1-1.42 1.1c-.2.12-.36.23-.54.3-.22.1-.13.3.05.72.08.18.17.4.27.69.22.62-.06.85-.33 1.07-.12.1-.24.2-.3.33l-.22.42c-.3.62-.78 1.58-1 1.93-.28.45-1.06.66-1.24.6-.11-.05-.25-.5-.37-.93a8.3 8.3 0 0 0-.2-.62Zm12.42 2.08V36c0-.5 0-.94.34-1 .17-.02.28-.07.38-.11.12-.05.22-.1.36-.07.19.03.32-.08.46-.18l.11-.09.16-.12c.3-.24.87-.7 1.14-.55.2.12.28.29.36.43.06.1.1.19.18.24.08.07.13-.02.19-.13.06-.1.12-.22.25-.23.17-.01.22.13.31.38.05.12.1.27.19.44.11.21.2.3.26.37.09.1.16.17.24.46l.06.2c.16.5.36 1.12-.25 1.57-.33.25-.4.42-.44.52-.05.12-.07.17-.37.15-.38-.03-.54-.18-.76-.4a3.5 3.5 0 0 0-.46-.36 1.33 1.33 0 0 1-.42-.53c-.12-.24-.2-.38-.52-.16-.54.38-1.46.78-1.77.78Zm-8.93-2.34c-.42.55-.04.75.2.78.28-.31.9-1.08 1.25-1.66.44-.72-.18-.63-.43-.5-.15.1-.3.32-.52.65-.14.2-.3.46-.5.73ZM28.34 20.1c-.15-.19-.42-.54-.38-.8v-.19c-.01-.15-.02-.24.33-.44l.3-.18c.28-.18.44-.29.5-.08a.8.8 0 0 1-.08.75c-.08.12 0 .19.09.25.1.07.18.13 0 .28-.28.23-.6.4-.73.45l-.03-.04Zm2.06-1.82c-.14.17.13.43.23.46.2-.05.7-.23 1.05-.46.44-.3.44-.62.28-.83-.11-.15-.24-.05-.45.11a4.14 4.14 0 0 1-.52.37c-.06.04-.08.06-.1.06h-.06c-.12-.02-.29.12-.43.29Zm1.84 3.24c-.12 0-.35-.03-.42-.5a1.05 1.05 0 0 0-.14-.36c-.11-.22-.2-.39.14-.74.2-.2.29-.37.35-.5.12-.24.19-.36.6-.31l.17.02c.19.02.28.03.3.08.04.05-.01.14-.11.33l-.2.38c-.28.57-.32.85-.36 1.06l-.06.26c-.08.22-.21.28-.27.28Zm-5.17 3.42c.04.4-.1.6-.23.8-.04.05-.08.1-.1.16-.3 0-.93-.07-1.11-.33-.16-.21.09-.48.38-.8.16-.17.33-.36.45-.56.36-.56.56.22.6.73Zm-2.58-1.97c.08-.2.57-.77.75-.64l.04.03c.2.14.6.41.06.61-.45.18-.76.08-.85 0Zm15.61-5.77c-.22-.19-.86-.11-1.23 0 0 .2.08.66.4.8.42.2.6.04.83-.8Zm7.16 22.5c.12-.13.28-.31.53-.54.43-.38.71-.83.85-1.05l.07-.12.05-.07c.12-.19.36-.55.17.28l-.1.43c-.13.7-.21 1.1-.71 1.23-.2.05-.43.18-.64.3-.42.24-.75.43-.58-.14.13-.06.22-.16.36-.32Z" fill="#1E4E72"/><path d="M10 28.36v1.33c.22.1.98.31 1.87.31 1.12 0 2.55-.55 2.55-2.03 0-1.2-1.5-1.44-2.25-1.42-.45 0-1.35-.19-1.35-.98 0-1 .83-1.13 1.57-1.13.6 0 1.01.23 1.15.35v.82H14v-1.09c-.21-.17-.9-.52-1.78-.52-1.08 0-2.22.7-2.22 1.88s1.2 1.39 2.11 1.5c.92.1 1.52.4 1.52 1.02 0 .63-.66 1.2-1.76 1.2-.88 0-1.32-.28-1.38-.42v-.82H10Zm4.18-4.06V24h2.8v.3H16V28c0 .98.85 1.43 1.87 1.43 1.01 0 1.72-.8 1.72-1.78V24.3h-.96V24h2.14v.3H20v3.8c0 1.05-.7 1.9-1.8 1.9h-.98c-1.09 0-2.22-.85-2.22-1.9v-3.8h-.82Zm7 5.33V30h2v-.37h-.76V25l2.17 5h.26L27 25v4.63h-.44V30h2.22v-.37H28v-5.34h.78V24H27l-2.04 4.68L22.79 24h-1.6v.29H22v5.34h-.82Zm8.55.37v-.37h.85v-5.34h-.85V24h1.67l2.25 4.68 2.3-4.68h1.66v.29H37v5.34h.6V30h-2.29v-.37H36V25l-2.46 5h-.28L31 25v4.63h.8V30h-2.07Zm8.53-6v.27H39v5.47h-.74V30h2.4v-.26H40v-5.47h.67V24h-2.4ZM41 25.37V24h5v1.37h-.24v-.54a.5.5 0 0 0-.5-.49H44v5.28h.78V30h-2.57v-.38H43v-5.28h-1.17a.5.5 0 0 0-.5.5v.53H41Z" fill="#fff"/></svg>