<!-- by TradingView --><svg width="56" height="56" viewBox="0 0 56 56" xmlns="http://www.w3.org/2000/svg"><path fill="#F0F3FA" d="M0 0h56v56H0z"/><path d="m29.32 21.7 2.54-.7-.44 2h1.87l-.39 2h-1.86l-.59 3.02c-.1.44-.14.97-.14 1.25 0 .49.25.73.75.73.32 0 .55-.01.7-.04l-.29 1.85c-.36.13-.86.19-1.52.19-1.18 0-2.28-.57-2.28-1.88 0-.46.06-1 .2-1.6l.65-3.52h-.88l.36-2h1l.32-1.3ZM39.75 29.48l.18 1.83c-.9.46-1.98.69-3.22.69-1.2 0-2.13-.32-2.76-.95a3.69 3.69 0 0 1-.95-2.7c0-2.77 2.11-5.35 5.01-5.35 1.54 0 2.99.93 2.99 2.59 0 2.02-1.86 2.98-5.6 2.89.08 1.05.94 1.52 1.94 1.52.86 0 1.66-.15 2.41-.52Zm-1.12-3.9c0-.5-.51-.58-.94-.58-1.03 0-1.81.66-2.04 1.63a7.76 7.76 0 0 0 2.26-.21c.48-.17.72-.45.72-.85ZM49.45 19H52l-1.59 9.38A24.74 24.74 0 0 0 50 32h-2.35l.12-1.62h-.03A3.57 3.57 0 0 1 44.69 32C42.87 32 42 30.29 42 28.66c0-3.23 2.25-5.66 5.49-5.66.43 0 .83.07 1.2.22l.76-4.22Zm-1.59 8.42.47-2.11c-.24-.2-.58-.31-1.02-.31-1.73 0-2.64 1.75-2.64 3.25 0 1.06.46 1.75 1.2 1.75 1.2 0 1.8-1.62 2-2.58ZM22 32h2.68l1.22-6.35a9.5 9.5 0 0 0-2.62-.29L22 32Zm4.11-7.47.3-1.53h-2.68l-.23 1.21h.1c.58 0 1.53.07 2.51.32ZM24.37 21.63c.25.25.57.37.96.37.44 0 .86-.12 1.19-.43.32-.3.48-.68.48-1.17 0-.42-.13-.76-.4-1-.26-.27-.6-.4-1-.4a1.56 1.56 0 0 0-1.6 1.62c0 .4.12.74.37 1ZM13 32h2.56l.73-3.9.16-.7-.78.36-.29.14c-.58.27-1.17.55-1.77.8L13 32Zm.86-4.61.24-1.33.1-.45c.14-.57.36-1.5.54-2.61H17l-.32 1.66h.04c.8-1.1 1.8-1.66 3.04-1.66.71 0 1.27.21 1.66.63.23.25.39.55.48.91-1.03.13-2.01.37-2.94.67a.9.9 0 0 0-.5-.12c-.43 0-.86.26-1.28.8-.67.27-1.32.57-1.95.86l-.22.1-1.15.54Zm5.47-1.14c0 .28-.03.57-.08.87L18.32 32h2.58l.96-5.11c.08-.47.13-.89.14-1.24-.93.1-1.81.32-2.67.6ZM13 23h-2.56l-.77 4.07c-.13.63-.31 1.17-.56 1.61 1.02-.17 2-.5 3-.9L13 23Zm-1.15 6.14c-1.36.5-2.77.86-4.28.86a6 6 0 0 1-3.52-1.26 7.1 7.1 0 0 0-.05.78c0 .82.2 1.44.6 1.87.39.4.94.61 1.66.61 1.16 0 2.16-.55 3.01-1.64l.04.01L9.15 32h2.27c.12-.92.27-1.98.43-2.86Zm-7.58-1.7c.57.5 1.4 1.05 2.4 1.27.02-.27.06-.61.13-1.01l.9-4.7H5.1l-.84 4.44Z" fill="#002F87"/><path d="M13.08 38H12l.47-2.63c.08-.44.14-.86.2-1.27h.95l-.07.63h.02c.33-.49.77-.73 1.3-.73.28 0 .5.07.64.22.16.15.24.33.26.52.33-.5.77-.74 1.3-.74.3 0 .52.1.68.28.17.19.25.44.25.77 0 .18-.02.4-.06.67L17.53 38h-1.09l.38-2.14c.04-.18.06-.33.06-.47 0-.3-.13-.46-.38-.46-.19 0-.37.12-.53.36-.17.23-.29.55-.36.94L15.3 38h-1.07l.4-2.15.04-.44c0-.32-.12-.48-.36-.48-.19 0-.37.12-.55.37-.17.25-.3.56-.36.94L13.08 38ZM22.45 37.91H21.4l.03-.4.02-.36h-.01c-.32.57-.75.85-1.3.85-.34 0-.62-.12-.83-.37a1.41 1.41 0 0 1-.32-.96 2.85 2.85 0 0 1 .66-1.82c.21-.25.5-.46.86-.62a3 3 0 0 1 1.21-.23c.45 0 .87.06 1.27.19l-.4 2a8.06 8.06 0 0 0-.15 1.72Zm-.89-2.14.17-.89a1.73 1.73 0 0 0-.3-.03c-.34 0-.64.18-.9.52-.24.34-.36.7-.36 1.09 0 .2.04.34.12.46.08.11.2.17.34.17.19 0 .37-.1.54-.33.18-.22.3-.55.4-1ZM25.13 38H24l.43-2.33c.02-.1.09-.63.2-1.58h.98a10.17 10.17 0 0 1-.07.8h.02c.32-.6.73-.89 1.23-.89H27l-.22 1.13-.18-.01c-.63 0-1.03.47-1.2 1.42L25.13 38ZM28.3 38h-1.06l.69-3.48H29L28.3 38ZM28.44 34h.02c.15 0 .28-.05.38-.14a.5.5 0 0 0 .16-.4.44.44 0 0 0-.13-.33.44.44 0 0 0-.34-.13.52.52 0 0 0-.53.54c0 .14.04.25.12.34.09.08.2.12.32.12ZM30.61 33.32l.9-.32-.15 1.04H32l-.13.87h-.64l-.2 1.31c-.03.2-.05.37-.05.5 0 .2.09.32.26.32.11 0 .19 0 .24-.02l-.1.9c-.12.05-.3.08-.52.08-.25 0-.45-.08-.58-.23a.9.9 0 0 1-.2-.6c0-.21.03-.45.07-.73l.23-1.53H30l.12-.87h.38l.11-.72ZM33.3 38h-1.06l.69-3.48H34L33.3 38ZM33.44 34h.02c.15 0 .28-.05.38-.14a.5.5 0 0 0 .16-.4.44.44 0 0 0-.13-.33.44.44 0 0 0-.34-.13.52.52 0 0 0-.53.54c0 .14.04.25.12.34.09.08.2.12.32.12ZM35.08 38H34l.47-2.63c.08-.44.14-.86.2-1.27h.95l-.07.63h.02c.33-.49.77-.73 1.3-.73.28 0 .5.07.64.22.16.15.24.33.26.52.33-.5.77-.74 1.3-.74.3 0 .52.1.68.28.17.19.25.44.25.77 0 .18-.02.4-.06.67L39.53 38h-1.09l.38-2.14c.04-.18.06-.33.06-.47 0-.3-.13-.46-.38-.46-.19 0-.37.12-.53.36-.17.23-.29.55-.36.94L37.3 38h-1.07l.4-2.15.04-.44c0-.32-.12-.48-.36-.48-.19 0-.37.12-.55.37-.17.25-.3.56-.36.94L35.08 38ZM43.53 36.88l.07.81c-.34.2-.74.31-1.2.31-.46 0-.8-.14-1.04-.42a1.83 1.83 0 0 1-.36-1.2c0-.4.07-.77.22-1.13.15-.36.37-.66.66-.89.3-.24.63-.36 1-.36.33 0 .6.1.8.31.21.21.32.5.32.84 0 .9-.7 1.33-2.1 1.28.01.17.05.3.1.4.14.2.34.3.63.3.32 0 .62-.09.9-.25Zm-.42-1.74c0-.1-.03-.17-.1-.22a.34.34 0 0 0-.25-.1c-.2 0-.37.08-.5.24-.14.17-.22.35-.26.55.38 0 .66-.02.84-.1.18-.06.27-.19.27-.37Z" fill="#5B6670"/></svg>