<!-- by TradingView --><svg xmlns="http://www.w3.org/2000/svg" width="56" height="56"><path fill="url(#ak3szt023)" d="M0 0h56v56H0z"/><path d="M30.84 25L29 29.65 27.17 25H26v6h1v-3.86L28.5 31h1l1.5-3.86V31h1v-6h-1.16zm2.84 0h-1v6h1v-6zm7 0h-1v6h1v-6zM45 25v4.18L42.28 25h-1.1v.08l.32.63V31h1v-3.77L45 31h1v-6h-1zm-7 0v4.18L35.3 25h-1.1v.08l.31.63V31h1v-3.77L38 31h1v-6h-1z" fill="#F3F4F4"/><path d="M12.77 25c1.67 0 2.94 1.3 2.94 3s-1.27 3-2.94 3a2.91 2.91 0 01-2.94-3c0-1.7 1.27-3 2.94-3zm0 4.55c.83 0 1.47-.7 1.47-1.55a1.5 1.5 0 00-1.47-1.55c-.84 0-1.47.7-1.47 1.55 0 .85.63 1.55 1.47 1.55zM16 31v-6h1.36v4.55h1.82l.46 1.45H16zm4-6h2.16c1.74 0 2.81 1.24 2.81 3s-1.07 3-2.8 3H20v-6zm1.42 1.45v3.1h.72c.91 0 1.37-.67 1.37-1.55 0-.87-.46-1.55-1.37-1.55h-.72zm-11.84 2.2v-1.3H7.64l-.48 1.3h.95v.22c-.26.4-.7.68-1.2.68-.84 0-1.46-.7-1.46-1.55 0-.85.62-1.55 1.45-1.55.47 0 .87.23 1.13.58l1.04-1.07A2.9 2.9 0 004 28c0 1.7 1.25 3 2.9 3 1.24 0 2.24-.72 2.68-1.8v-.55z" fill="#EEC580"/><path d="M52 27.6v-.02h-1.97l-.47.87h1.45c-.19.9-.92 1.55-1.83 1.55-1.08 0-1.88-.87-1.88-2s.8-2 1.88-2c.67 0 1.24.34 1.57.89l.69-.73A2.74 2.74 0 0049.18 25c-1.61 0-2.83 1.3-2.83 3s1.22 3 2.83 3c1.46 0 2.6-1.08 2.8-2.55v-.02l.02-.23v-.6z" fill="#F3F4F4"/><defs><linearGradient id="ak3szt023" x1="10.42" y1="9.71" x2="68.15" y2="76.02" gradientUnits="userSpaceOnUse"><stop stop-color="#1A1E21"/><stop offset="1" stop-color="#06060A"/></linearGradient></defs></svg>