<!-- by TradingView --><svg width="56" height="56" viewBox="0 0 56 56" xmlns="http://www.w3.org/2000/svg"><path fill="#F0F3FA" d="M0 0h56v56H0z"/><path d="M16.69 13H26v15.23c0 .67.4 1.77 2 1.77s2-1.1 2-1.77V13h9.31A18.34 18.34 0 0 1 46 27.21c0 6.74-3.59 12.62-8.93 15.79l-3.57-5.64C36 36.35 39 32.8 39 29.24c0-5.36-2-8.63-3-9.13v8.12c0 2.7-1.6 7.77-8 7.77s-8-5.07-8-7.77V20.1c-1 1.01-3 4.75-3 8.63 0 3.24 2.5 7.6 5.5 8.62L18.93 43A18.32 18.32 0 0 1 10 27.21c0-5.74 2.6-10.86 6.69-14.21Z" fill="#369"/><path d="m17.5 13.5-.81-.5A18.34 18.34 0 0 0 10 27.21c0 6.74 3.59 12.62 8.93 15.79l-.43-1C14 39 11 33.64 11 27.21c0-5.74 2.42-10.35 6.5-13.7Z" fill="url(#azfs13feu)"/><path d="M28 30c2.5 0 3-1.1 3-1.77V13.5L30 13v15.23c0 .5-.16 1.42-2 1.77Z" fill="url(#bzfs13feu)"/><path d="m37.5 42-3-4.64C37 36.35 40 32.3 40 28.74c0-5.07-2.07-8.05-3.35-9.2-.27-.25-.65-.04-.65.33v.24c1.5 1.01 3 5.07 3 8.63 0 3.55-3 7.6-5.5 8.62L37.07 43c.24-.14.2-.85.43-1Z" fill="url(#czfs13feu)"/><path d="M28 36c-5.98-.25-7-5.14-7-7.77v-8.14c0-.18-.2-.26-.32-.12-.2.26-.42.6-.65 1a.2.2 0 0 0-.03.1v7.16c0 2.7 1.6 7.77 8 7.77.17 0-.16 0 0 0Z" fill="url(#dzfs13feu)"/><path d="M26 13h-9.3l.8.5H25l1-.5ZM30 13h9.3l-.8.5H31l-1-.5Z" fill="#6E92B6"/><path d="m38.5 13.5.81-.5A18.34 18.34 0 0 1 46 27.21c0 6.74-3.59 12.62-8.93 15.79l.43-1c4.66-3.5 7.5-8.36 7.5-14.79 0-5.74-2.42-10.35-6.5-13.7Z" fill="url(#ezfs13feu)"/><path d="M28 30c-2.5 0-3-1.1-3-1.77V13.5l1-.51v15.23c0 .6.5 1.77 2 1.77Z" fill="url(#fzfs13feu)"/><path d="m18.5 42 2.5-4.64c-2.5-1.01-5-5.07-5-8.62 0-4.69 1.9-8.16 3.39-9.32.27-.22.61 0 .61.35v.34c-1 1.52-3 4.75-3 8.63 0 3.04 2.28 7.46 5.5 8.62L18.93 43c-.24-.14-.2-.85-.43-1Z" fill="url(#gzfs13feu)"/><path d="M28 36c5.98-.25 7-5.14 7-7.77v-9.06c0-.18.2-.26.32-.11.2.27.44.63.68 1.05v8.12c0 2.7-1.6 7.77-8 7.77Z" fill="url(#hzfs13feu)"/><defs><linearGradient id="azfs13feu" x1="14.5" y1="14.02" x2="36.34" y2="36.53" gradientUnits="userSpaceOnUse"><stop stop-color="#ADC2D6"/><stop offset=".64" stop-color="#94B0CB" stop-opacity=".58"/><stop offset="1" stop-color="#A6BCD3"/></linearGradient><linearGradient id="bzfs13feu" x1="14.5" y1="14.02" x2="36.34" y2="36.53" gradientUnits="userSpaceOnUse"><stop stop-color="#ADC2D6"/><stop offset=".64" stop-color="#94B0CB" stop-opacity=".58"/><stop offset="1" stop-color="#A6BCD3"/></linearGradient><linearGradient id="czfs13feu" x1="14.5" y1="14.02" x2="36.34" y2="36.53" gradientUnits="userSpaceOnUse"><stop stop-color="#ADC2D6"/><stop offset=".64" stop-color="#94B0CB" stop-opacity=".58"/><stop offset="1" stop-color="#A6BCD3"/></linearGradient><linearGradient id="dzfs13feu" x1="14.5" y1="14.02" x2="36.34" y2="36.53" gradientUnits="userSpaceOnUse"><stop stop-color="#ADC2D6"/><stop offset=".64" stop-color="#94B0CB" stop-opacity=".58"/><stop offset="1" stop-color="#A6BCD3"/></linearGradient><linearGradient id="ezfs13feu" x1="26.5" y1="15.03" x2="44.81" y2="36.08" gradientUnits="userSpaceOnUse"><stop stop-color="#112335"/><stop offset=".5" stop-color="#162C42" stop-opacity=".54"/><stop offset="1" stop-color="#111C27" stop-opacity=".64"/></linearGradient><linearGradient id="fzfs13feu" x1="26.5" y1="15.03" x2="44.81" y2="36.08" gradientUnits="userSpaceOnUse"><stop stop-color="#112335"/><stop offset=".5" stop-color="#162C42" stop-opacity=".54"/></linearGradient><linearGradient id="gzfs13feu" x1="26.5" y1="15.03" x2="44.81" y2="36.08" gradientUnits="userSpaceOnUse"><stop stop-color="#112335"/><stop offset=".5" stop-color="#162C42" stop-opacity=".54"/><stop offset="1" stop-color="#111C27" stop-opacity=".64"/></linearGradient><linearGradient id="hzfs13feu" x1="26.5" y1="15.03" x2="44.81" y2="36.08" gradientUnits="userSpaceOnUse"><stop stop-color="#112335"/><stop offset=".5" stop-color="#162C42" stop-opacity=".54"/><stop offset="1" stop-color="#111C27" stop-opacity=".64"/></linearGradient></defs></svg>