<!-- by TradingView --><svg xmlns="http://www.w3.org/2000/svg" width="56" height="56"><path fill="url(#a351g4410)" d="M0 0h56v56H0z"/><path d="M17.1 28.25c0-.79-.13-1.55-.36-2.25l-.2-.56a6.25 6.25 0 00-5.69-3.94c-3.45 0-6.25 3.02-6.25 6.75S7.4 35 10.85 35a5.9 5.9 0 003.58-1.21c-.9.55-1.95.86-3.06.86-3.45 0-6.25-3.02-6.25-6.75v-.03l.05.07c.37 3.34 3 5.93 6.2 5.93 3.01 0 5.73-2.3 5.73-5.62zM33 26h-1v4h1v-4z" fill="#C8000A"/><path d="M36 26.5a.5.5 0 00-.5-.5H32v1h3v1h-3v1h1.72l.83 1h1.3l-.83-1h.48a.5.5 0 00.5-.5v-2zm4.5-.5c.28 0 .5.22.5.5v1h-1V27h-2v2h2v-.5h1v1a.5.5 0 01-.5.5h-3a.5.5 0 01-.5-.5v-3c0-.28.22-.5.5-.5h3z" fill="#C8000A"/><path fill-rule="evenodd" d="M42.5 26a.5.5 0 00-.5.5v3c0 .28.22.5.5.5h3a.5.5 0 00.5-.5v-3a.5.5 0 00-.5-.5h-3zm2.5 1h-2v2h2v-2z" fill="#C8000A"/><path fill="#C8000A" d="M47 26h1v4h-1zm4 0h1v4h-1z"/><path d="M48 26l-.82.58 2.32 3.22 2.32-3.22L51 26l-1.5 2.12L48 26zm-24 1h1v3h-1zm-1.5-1h4v1h-4v-1zm-.5 0v1h-3v.5h2.5c.28 0 .5.22.5.5v1.5a.5.5 0 01-.5.5h-3a.5.5 0 01-.5-.5V29h3v-.5h-2.5a.5.5 0 01-.5-.5v-1.5c0-.28.22-.5.5-.5H22z" fill="#C8000A"/><path fill-rule="evenodd" d="M25.88 30l2.09-4h1.01l2.1 4h-1.12l-.53-1h-1.89l-.53 1h-1.13zm2.73-3.28c0 .34 0 .69.52.69v.22c-.52 0-.52.35-.52.69h-.26c0-.34 0-.69-.52-.69v-.22c.52 0 .52-.35.52-.69h.26z" fill="#C8000A"/><path d="M13 26h3.77c.1.32.17.66.22 1H15.5v3h-1v-3H13v-1zm-4 0H8v3.5c0 .28.22.5.5.5h3a.5.5 0 00.5-.5V26h-1v3H9v-3z" fill="#fff"/><defs><linearGradient id="a351g4410" x1="10.42" y1="9.71" x2="68.15" y2="76.02" gradientUnits="userSpaceOnUse"><stop stop-color="#1A1E21"/><stop offset="1" stop-color="#06060A"/></linearGradient></defs></svg>