<!-- by TradingView --><svg width="56" height="56" viewBox="0 0 56 56" xmlns="http://www.w3.org/2000/svg"><path fill="#303B44" d="M0 0h56v56H0z"/><path fill-rule="evenodd" d="m9.22 18.06 1.7.39 1.22.78L13.39 21l5.71 9.3v2.74h-.3v.76h-.76v.47h-.31V35h4.3l5.85 9.85h.27L33.6 35h4.76v-.79h-.36v-.47h-1l-.22-4.3 7.19-11 2.89-.47v-.8h-6.72v.8l.66.15.33.33.08.34-.17.46-4.25 6.77v-1l.62-1.35h.55v-2.85h.64v-.5L28.15 16.1 17.6 20.3v.5h.63v2.95h.6v.65h.26v.65h.34l-.18 1.52-5.02-8.13 1.17-.54h.43v-.74H9.22v.89Zm11.86 5.75c-.07.15-.37 1.11-.51 1.58l.22 7.4.3.86.84.12.09-.31v-.37l.17-.13.4-7.86-.24-.13-.1-.46-.17-.21-.19-.6-.81.11Zm3.28 0c-.07.15-.37 1.11-.51 1.58l.22 7.4.3.86.84.12.09-.31v-.37l.18-.13.38-7.86-.23-.13-.1-.46-.16-.21-.2-.6-.81.11Zm2.63 1.58c.15-.47.45-1.43.51-1.58l.82-.1.19.59.17.21.1.46.23.13-.39 7.86-.18.13v.37l-.08.3-.84-.11-.3-.87-.23-7.4Zm3.66-1.58c-.07.15-.37 1.11-.51 1.58l.22 7.4.3.86.84.12.09-.31v-.37l.18-.13.38-7.86-.23-.13-.1-.46-.16-.21-.2-.6-.81.11Zm2.63 1.58c.15-.47.47-1.43.54-1.58l.86-.1.2.59.17.21.1.46.13.13-.28 7.86-.2.13v.37l-.08.3-.89-.11-.31-.87-.24-7.4Z" fill="#6D747A"/><path fill-rule="evenodd" d="M38 21h.7v-.77L28.1 16l-10.68 4.23V21H18v2.88h.64v.64H19v.65h.31l-.04.85c-1.32-2.03-4-6.41-4.28-7.08-.28-.67.56-.88 1.02-.9V17H9v1.22c2.67 0 3.66 1.8 3.66 1.8l6.36 10.5-.13 2.42h-.2v.7H18V34h-.48v1h4.24l6.07 10h.32l6.09-10h4.24v-1H38v-.36h-.47v-.7h-.45l-.07-2.52 5.1-8.54 1.23-1.86s.99-1.8 3.66-1.8V17h-7v1.04c.46.02 1.3.23 1.02.9-.27.64-2.78 4.88-4.14 7.01l-.02-.78h.31v-.65h.35v-.64H38V21Zm-.21 0h-19.4v.5h.55v-.28h2.09v.29h1.08v-.29h2.23v.29h.99v-.29h2.1v.29h1.04v-.29h2.27v.29h1v-.39h2.22v.39H35v-.39h2.2v.39h.59V21Zm0 .74h-.84v-.38h-1.7v.38h-1.53v-.38h-1.74v.38h-1.49v-.28h-1.78v.28H27.2v-.28h-1.62v.28H24.1v-.28h-1.74v.28h-1.57v-.28h-1.61v.28h-.78v1.83h19.39v-1.83ZM17.66 20.4l10.44-4.13 10.35 4.13v.25H17.66v-.25Zm18.86 3.49H34.9v.4h1.62v-.4Zm-2.2 0h.32v.64h.34v.65h.14l-.26 7.77h-.1v.7h-.5v-.7H34l-.22-7.77h.18v-.65h.37v-.64Zm-1 0H31.7v.4h1.62v-.4Zm-2.2 0h.32v.64h.32v.65h.26l-.25 7.77h-.28v.7h-.44v-.7h-.35l-.22-7.77h.3v-.65h.35v-.64Zm-.99 0h-1.62v.4h1.62v-.4Zm-2.12 0h.23v.64h.34v.65h.16l-.26 7.77h-.2v.7h-.33v-.7h-.27l-.22-7.77h.2v-.65h.35v-.64Zm-1 0H25.4v.4h1.63v-.4Zm-2.24 0h.36v.64h.35v.65h.24l-.26 7.77h-.27v.7h-.55v-.7h-.38l-.22-7.77h.37v-.65h.36v-.64Zm-1 0h-1.62v.4h1.62v-.4Zm-2.24 0h.36v.64h.33v.65h.23l-.4 7.77h-.18v.7h-.41v-.7h-.35l-.23-7.77h.3v-.65h.35v-.64Zm-1 0h-1.62v.4h1.62v-.4Zm16.45 4.1v-1.73c1.22-1.92 3.12-5.01 4.26-7.22.1-.22.1-.42.02-.6a.84.84 0 0 0-.36-.39c-.2-.12-.46-.19-.68-.22v-.04c.32-.02.8.01 1.25.17.44.15.84.41 1.06.85l-5.55 9.18Zm5.72-9.37a5.82 5.82 0 0 1 4.06-.9v-.4h-6.54v.23c.34-.01.85.02 1.33.19.45.15.89.42 1.15.88Zm-23.51 5.91v.4h1.23v-.4H19.2Zm4.47 0h-1.24v.4h1.24v-.4Zm2.02 0v.4h1.23v-.4h-1.23Zm4.34 0h-1.24v.4h1.24v-.4Zm1.94 0v.4h1.24v-.4h-1.24Zm4.46 0h-1.24v.4h1.24v-.4Zm-.18 8.42-.11-7.77h-.75l-.2 7.77h1.06Zm-4.15 0h1.05l-.1-7.77h-.75l-.2 7.77Zm-2.24 0-.1-7.77H29l-.2 7.77h1.05Zm-4.07 0h1.06l-.12-7.77h-.74l-.2 7.77Zm-2.36 0v-7.77h-.75l-.3 7.77h1.05Zm-3.16-7.77v7.77h-1.05l.31-7.77h.74Zm-7.49-5.58c-.8-1-2.3-1.56-3.53-1.6v-.35c.47-.02 1.21.02 1.99.2.83.2 1.69.57 2.32 1.19l5.47 8.88v2.22l-6.25-10.54Zm.6-1.03c.47-.79 1.73-.95 2.4-.93v-.32H9.25v.1a7.8 7.8 0 0 1 2.04.2c.72.18 1.47.47 2.1.95ZM28 44.74 22.07 35h10.65L28 42.87v-1.5l3.74-6.34h-.33l-3.4 6-3.16-6H23.51L28 43.07v1.67Zm10.24-10.51H17.76v.54h20.48v-.54Zm-20-.43h19.52v.15H18.24v-.15Zm2.42-.62h-1.75v.45h1.75v-.45Zm1.43 0h1.75v.45H22.1v-.45Zm5.07 0H25.4v.45h1.75v-.45Zm1.34 0h1.75v.45H28.5v-.45Zm4.97 0h-1.75v.45h1.75v-.45Zm1.52 0h1.75v.45h-1.75v-.45Zm-16.7-12.72h19.65l-9.88-3.89-9.78 3.89Zm1.23-.24h17.17l-8.63-3.39-8.54 3.4Zm1.18 1.58h-1.44v1.4h1.44v-1.4Zm-.2.3h-1.04v.8h1.04v-.8Zm2.04-.3h1.43v1.4h-1.43v-1.4Zm.2.3h1.03v.8h-1.03v-.8Zm4.42-.3h-1.43v1.4h1.43v-1.4Zm-.2.3h-1.03v.8h1.03v-.8Zm2-.3h1.44v1.4h-1.43v-1.4Zm.2.3h1.04v.8h-1.03v-.8Zm4.44-.3h-1.44v1.4h1.44v-1.4Zm-.2.3h-1.04v.8h1.04v-.8Zm1.96-.3h1.43v1.4h-1.43v-1.4Zm.2.3h1.03v.8h-1.03v-.8Z" fill="#D9D9D9"/></svg>