<!-- by TradingView --><svg width="56" height="56" viewBox="0 0 56 56" xmlns="http://www.w3.org/2000/svg"><path fill="#F0F3FA" d="M0 0h56v56H0z"/><path fill-rule="evenodd" d="M26.09 12h-5.34l7.53 18.9-2.2-18.9Zm4.78 0h5.34l-7.54 18.9 2.2-18.9ZM17.4 19h2.95l7.77 14.12L17.4 19Zm19.05 0h2.95L28.67 33.12 36.45 19ZM6 31h17v.5H6V31Zm27 0h17v.5H33V31Zm-23 3H9l2.07 4h.55l2.02-4h-.93l-1.35 2.52L10 34Zm6 0h1v4h-1v-4Zm3 0h1v3h2.5v1H19v-4Zm7 0h-1v4h3.5v-1H26v-3Zm4.72 4H29.7l1.97-4h.9l1.94 4h-1.2l-.42-1h-1.7l-.47 1Zm1.39-2.91.37.91h-.8l.43-.91ZM36 37.2c0 .44.38.79.84.79h3.28c.46 0 .88-.35.88-.8v-1.49h-2.5v.65H40V37h-3v-2h3v.5h1v-.7c0-.45-.42-.8-.88-.8h-3.28c-.46 0-.84.35-.84.8v2.4ZM47 34h-4v4h4v-1h-3v-.5h1.96v-1H44V35h3v-1Zm-31 5v3h2.4c.33 0 .6-.3.6-.68v-.19a.7.7 0 0 0-.37-.63.7.7 0 0 0 .37-.63v-.19c0-.37-.27-.68-.6-.68H16Zm.63.37h1.45c.23 0 .41.2.41.44s-.18.43-.4.43h-1.46v-.87Zm.04 1.29h1.41c.23 0 .41.2.41.43 0 .24-.18.44-.4.44h-1.42v-.87ZM23 42h.7l.35-.64h1.84l.34.64H27l-1.62-3h-.76L23 42Zm2.65-1.08-.68-1.25-.68 1.25h1.36ZM30 42v-3h.42l2.04 2.11V39H33v3h-.54l-1.96-1.99V42H30Zm7 0v-3h.57v1.32L39.08 39h.83l-1.75 1.53L40 42h-.92l-1.5-1.22V42H37Z" fill="#012F6B"/></svg>