<!-- by TradingView --><svg width="56" height="56" xmlns="http://www.w3.org/2000/svg"><path fill="#33626E" d="M0 0h56v56H0z"/><path d="M15 25h-1v8h1v-8zM47.852 25c-1.231 0-2.224.467-2.852.88V25h-1v7.998h1v-6.35c.445-.22 1.91-.648 2.852-.648.917 0 1.148.677 1.148 1.776v5.222h1v-2.199-3.408c0-1.1-.498-2.391-2.148-2.391zM24 25l.398-1.998H25V25h3v1h-3v4c0 1.42.327 2 1.634 2 .658 0 .91-.229 1.366-.339v.902c-.573.272-1.086.437-1.717.437C24.796 33 24 32.072 24 30.679V26h-.979v-1H24zM22 26.412v-.877c-.545-.24-1.494-.535-2.39-.535-1.223 0-2.61.533-2.61 2.02 0 1.415 1.243 1.802 2.31 2.336.597.318 1.69.821 1.69 1.644s-.794 1-1.745 1c-1.006 0-1.468-.17-2.255-.303v.877a6.28 6.28 0 002.31.426c1.113 0 2.69-.398 2.69-2.259 0-1.063-.867-1.645-1.6-2.046-.74-.384-2.435-.689-2.406-1.676.03-.987 1.1-1.019 1.832-1.019.842 0 1.517.14 2.174.412zM30 28.001C30 26.63 31.198 26 32.151 26c1.063 0 1.852.7 1.852 2.001H30zM32.151 25C30.966 25 29 25.902 29 29.28c0 3.348 2.32 3.72 3.53 3.72.934 0 1.713-.31 2.47-.63v-.843c-1.066.302-1.48.473-2.34.473-1.663 0-2.66-.942-2.66-3h5v-.702C35.002 25.716 33.312 25 32.151 25zM37 29c0 2.444 1.625 3.005 2.513 3C40.4 31.995 42 31.444 42 29c0-2.419-1.447-3.003-2.487-3-1.041.003-2.513.553-2.513 3zm6-.014c0 2.472-1.363 4.012-3.487 4.012-2.125 0-3.513-1.542-3.513-4.012C36 26.542 37.39 25 39.513 25 41.637 25 43 26.54 43 28.986zM5 23l3.5 9.998h1L13 23h-1l-3 9-3-9H5z" fill="#FF951C"/></svg>