<!-- by TradingView --><svg width="56" height="56" viewBox="0 0 56 56" xmlns="http://www.w3.org/2000/svg"><path fill="#F0F3FA" d="M0 0h56v56H0z"/><path d="M26.76 22c-6.54 0-11.45-3.18-13.09-4.72-.22.86-.67 3.26-.67 6.02 0 9.18 5.06 16.96 7.59 19.7.32-.1 1.06-.3 1.41-.3-3.42-4.26-4-7.93-4-9.92 0-5.58 6.75-8.37 13.3-9.48 8.93-1.35 12.63-2.86 13.7-3.3.45-1.45 2-4.24 2-5-6.25 4.12-12.05 7-20.24 7Z" fill="#143D8D"/><path d="M38.65 31.6 22.6 35.48l14.93-2.46 1.12-1.44ZM36.79 33.61l-14.34 3.6 12.77-2.16 1.57-1.44ZM34.47 35.7 22 39.02l10.75-1.88 1.72-1.44ZM31.1 38.08l-8.95 2.53 7.69-1.52 1.27-1ZM45 22l-21.2 4.98 20.3-3.25L45 22ZM43.88 24.1l-20.46 4.75 19.64-3.24.82-1.52ZM42.84 26.04l-19.35 4.25 18.3-2.74 1.05-1.51ZM41.64 27.84 23.2 32.02l17.25-2.66 1.19-1.52ZM40.3 29.72l-17.26 4.1 16.06-2.66 1.2-1.44ZM28.12 40.68l-5.6 1.59 4.86-1.01.74-.58Z" fill="#AFCAE7"/></svg>