<!-- by TradingView --><svg width="56" height="56" viewBox="0 0 56 56" xmlns="http://www.w3.org/2000/svg"><path fill="#0D1729" d="M0 0h56v56H0z"/><path fill-rule="evenodd" d="m11.47 19.76.18-.25c.37.19 1.09.72 1.62 1.6-.1-.36-.33-.77-.73-1.16l.17-.25c.38.18 1.06.81 1.37 2.05.01-.36-.1-.85-.48-1.44l.22-.22c.3.2.8.85.96 1.96a3.1 3.1 0 0 0 .11-.43c.02-.11.01-.2 0-.25l.3-.1a3.34 3.34 0 0 1 .16 1.11 2.35 2.35 0 0 0 .18-.38v-.08l.31-.02v.13a6 6 0 0 1-.08.76l.47-.57-.02.48a2.82 2.82 0 0 1-.22.9l.6-.27-.13.35c-.04.1-.12.28-.23.44l-.02.02.64-.14-.67.86h.5l-.07.2c-.05.15-.13.39-.24.62-.1.22-.25.46-.42.59l-.2-.25c.11-.08.23-.26.33-.48.06-.12.12-.25.16-.37h-.58c.03.85-.33 1.45-.77 1.85l.14-.06c.26-.12.5-.24.7-.37.2-.12.33-.24.4-.34v-.02l.02-.02c.18-.15.45-.44.69-.82.23-.37.43-.81.46-1.26v-.1l.1-.04c.52-.17 1.21-.55 1.61-1.15.2-.29.33-.63.34-1.03 0-.4-.11-.86-.42-1.38l.23-.2c.36.28.78.83.87 1.57.06.56-.06 1.22-.53 1.94.39-.35.74-.88.77-1.58l.31-.03c.09.37.1.96-.12 1.55-.16.39-.42.77-.83 1.09l.19-.07c.36-.16.7-.44.87-.91l.3.05c0 .52-.38 1.47-1.67 1.9l.26-.01c.39-.05.8-.21 1.13-.6l.35-.43-.07.54c-.04.3-.24.7-.7.97a2.3 2.3 0 0 1-.8.29c.37.02.81-.02 1.3-.13l.54-.13-.38.39c-.32.33-1.17.79-2.39.65.4.16.97.29 1.72.22l.47-.04-.35.31c-.44.39-1.52.83-2.8.08.27.3.8.63 1.8.73l.46.05-.39.24c-.28.18-.77.34-1.32.22a2.3 2.3 0 0 1-1.31-.86c.11.33.4.73 1.04 1.02l.05.02.06-.01h.84c1.3.95 3 1 3.05.49.03-.31-.1-.36-.38-.46-.2-.07-.46-.17-.8-.38-.67-.43-.15-.92.2-1.1-.2.23.19.65.4.83.99.1 1.21.67 1.2.94.11 1.48-1.77 1.37-2.72 1.14 1.28.68 1.5 1.73 1.12 2.4-.3.55-1.34.23-1.83 0 .24-.15.58-.74.71-1.02-.83.45-1.85-.3-2.26-.73.2.35-.73 1.24-1.39 1.43-.65.2-1.57.25-1.93-.35-.28-.48.97-.6 1.63-.6-.8-.17-1-.63-1-.83-.24.06-1-.17-1.34-.3-.85.37-2.14 1.53-2.87 2.18l-.47.42c-.39.3-1.5.64-2.02 0-.41-.52.94-1.2 1.66-1.46l1.5-1.82-.4-.46c-.14.29-.99.43-1.4.46.16.55.24 1.69-.65 1.82-1.12.16-.84-1.2-.7-1.82.1-.5.5-.85.7-.97l1.3-1.03c-.08-1 .46-1.69.74-1.92-.46-.28-.42-.84-.35-1.08.17.23 1.3.54 1.33 0 .02-.44-.88-.52-1.33-.51l-.17-.7c.29-.78 1.65-1.12 2.29-1.2l.38.03a6.21 6.21 0 0 0-1.56-2.9Zm1.75 2.93c.4.07.88.21 1.3.48v-.48c-.01-.37-.05-.7-.12-.98 0 .37-.11.66-.23.81l-.24.31-.04-.38c-.05-.4-.13-.74-.24-1.03.03.22.02.4 0 .53l-.11.54-.2-.51c-.2-.51-.47-.94-.75-1.28.45.78.69 1.56.76 1.96l-.13.03Zm1.35.51a2.3 2.3 0 0 1 1.08 1.83l.42-.53-.35.07-.1-.3c.12-.06.23-.17.33-.3l-.37.16-.16-.27a1.15 1.15 0 0 0 .37-.6l-.32.38a.74.74 0 0 1-.08.1l-.24-.21.07-.08a2.63 2.63 0 0 0 .21-.61l-.12.17-.02.03-.08.12-.03.04v.01l-.3-.12.02-.02c.1-.24.14-.52.14-.8-.08.2-.16.37-.23.5l-.24.43Zm2.16 6.25a1.62 1.62 0 0 1-.4-.33l.04.33h.36Zm-.78 0a4.73 4.73 0 0 1-1.04-1l-.15.12-.18-.15c-.45.33-1.4.88-1.55.49-.14-.37.35-1.18.66-1.6v.5c.37-.12.95-.32 1.48-.56.26-.12.52-.26.73-.4.2-.12.37-.26.48-.42.2-.17.48-.48.72-.87.24-.37.45-.82.5-1.3.55-.2 1.25-.61 1.67-1.24a2.17 2.17 0 0 0 .38-1.53l.07.34c.07.64-.14 1.47-1.02 2.42l.17.25c.37-.14.98-.52 1.36-1.15a2.27 2.27 0 0 1-1.47 1.54l.05.3a2.54 2.54 0 0 0 1.42-.36 2.8 2.8 0 0 1-1.7.78l-.6.08.56.22a2.46 2.46 0 0 0 1.75-.04l-.1.07c-.38.23-1 .38-1.98.24l-.1.28c.29.18 1.02.42 2.02.34-.5.2-1.27.3-2.22 0l-.5-.15.33.4c.23.29.9.73 1.99.78-.55.2-1.4.21-2.37-.57l-.28-.22.02.36c.03.42.47 1.11 1.72 1.4-.17.02-.36.03-.56-.02-.45-.1-.97-.41-1.44-1.2l-.2-.35-.09.4c-.08.37.03 1.13.87 1.68-.1 0-.2-.02-.3-.06-.28-.1-.6-.35-.84-.9l-.3.09.14 1.01h-.1Zm-3.08-6.49c.63-.08 1.35.4 1.62.65l-.16.1c-.28-.18-1.1-.57-1.46-.75Zm-1.64 8.62 1.78-1.02a5.2 5.2 0 0 1 1.21-1.36h.11c-.23.21-.67.68-.59.8.09.1.36.11.48.1l.34-.3c-.16.16-.41.49-.23.55.19.05.52-.22.66-.36-.15.2-.4.57-.18.57.22 0 .55-.3.7-.46-.07.15-.17.46 0 .46s.45-.3.57-.46a9.73 9.73 0 0 1-1.52-1.33c-.38.24-1.2.68-1.35.57-.2-.14-1-.8-1-1.19 0-.3.44-.74.66-.92-.22.08-.73.32-1.01.7.04-.23.31-.74 1.01-1.07.87-.4 1.69-.83 1.69-1.71.02.28.01.97-.23 1.38.22-.15.66-.62.66-1.38.02.36-.03 1.2-.43 1.59.3-.17.86-.72.79-1.6-.07-.87-.47-1.08-.66-1.07-.12.27-.46.86-.86 1.08-.05.16-.34.58-1.07.93-.72.36-.9.59-.9.66l1.67-.66c-.77.36-2.3 1.23-2.3 1.84 0 .61.14.82.22.85l.16-.85.14 1.28.1-.63 1.02 1.23c.07.13.08.46-.4.76-.61.37-1.24.81-1.24 1.02Zm-2.64-1.9 1.58-1.1c.15 0 .13.56.1.85l-1.05.13c-.05.22-.13.75-.1 1.15.03.49-.53.82-.68.55-.12-.2.05-1.13.15-1.57Zm-.15 3.36c-.12-.19.61-.46 1-.58.11-.04.37-.28.61-.5.18-.16.35-.32.45-.38.07-.03.2-.22.38-.46.46-.62 1.18-1.59 1.58-1.32.55.37-.68 1-.85 1.04-.15.03-.47.6-.61.88l.08.22c-.45.42-1.42 1.3-1.65 1.37-.2.07-.17-.2-.12-.4-.06.18-.2.43-.42.4-.26-.02-.04-.31.11-.47-.15.15-.45.37-.56.2Zm5.49-9.21c.13-.02.4.02.4.31 0 .37-.65.68-.8.34-.15-.34 0-.54.4-.65Zm-1.38-.64Zm.21.42c-.01-.12-.07-.33-.15-.4.3.12.8.38.75.62-.03.12-.1.18-.17.24-.1.1-.18.17.02.41.17.21-.02.3-.2.38-.16.07-.3.14-.14.29.34.3.29.7-.1.54-.15-.06-.3.01-.46.1-.3.17-.67.37-1.29-.02.41 0 1.26-.11 1.38-.48.09-.26.02-.55-.04-.79-.04-.18-.07-.33-.04-.43.08-.24.21-.46.44-.46Zm-.55 1.33c-.13-.13-.4-.5-.42-.98h-.18c-.26.15-.76.32-.69-.13.08-.45.7-.33 1-.22.03-.14.1-.42.24-.42.13 0 .01.52-.07.77l.12.98Zm4.16 6.64c.24-.28.59-.11.73 0-.24.3-.82.91-1.18 1.03-.45.14-1.8-.15-.85-.27.8-.1.97-.32 1.18-.6l.12-.16Zm3.96.42-.76 1.04c.27.03.84.04.98-.17.17-.26.25-.76-.22-.87Zm-3.02-2.2c-.59 0-1.07.37-1.23.55.67-.07 1.34.47 1.88.9.24.2.45.38.63.47.6.3 1.4-.14 1.46-.3.05-.13-.64-.56-.99-.76a.76.76 0 0 1-.54.62c.4-.52.07-.93-.24-1.05-.24-.1-.21-.2-.17-.24.34-.3.46-.22.73-.02.24.17.6.42 1.34.59 1.58.36 1.96-.3 2.1-.76.1-.36-.22-.55-.4-.6.26.12.28.45.26.6-.05.63-1.23.7-1.8.65a8.02 8.02 0 0 0-1.75-.84c-.38-.1-.51-.03-.67.05a1.2 1.2 0 0 1-.61.14ZM44.53 19.76l-.18-.25c-.37.19-1.09.72-1.62 1.6.1-.36.33-.77.73-1.16l-.17-.25c-.38.18-1.06.81-1.37 2.05-.01-.36.1-.85.48-1.44l-.22-.22c-.3.2-.8.85-.96 1.96a3.1 3.1 0 0 1-.11-.43.58.58 0 0 1 0-.25l-.3-.1a3.34 3.34 0 0 0-.16 1.11 2.35 2.35 0 0 1-.18-.38v-.08l-.31-.02v.13c0 .21.03.49.08.76l-.47-.57.02.48a2.82 2.82 0 0 0 .22.9l-.6-.27.13.35c.04.1.12.28.23.44l.02.02-.64-.14.67.86h-.5l.07.2c.05.15.13.39.24.62.1.22.25.46.42.59l.2-.25c-.11-.08-.23-.26-.33-.48a4.3 4.3 0 0 1-.16-.37h.58c-.03.85.33 1.45.77 1.85l-.14-.06c-.26-.12-.5-.24-.7-.37-.2-.12-.33-.24-.4-.34v-.02l-.02-.02a3.98 3.98 0 0 1-.69-.82 2.78 2.78 0 0 1-.46-1.26v-.1l-.1-.04a3.24 3.24 0 0 1-1.61-1.15c-.2-.29-.33-.63-.34-1.03 0-.4.11-.86.42-1.38l-.23-.2c-.36.28-.78.83-.87 1.57-.06.56.06 1.22.53 1.94a2.22 2.22 0 0 1-.77-1.58l-.31-.03c-.09.37-.1.96.12 1.55.16.39.42.77.83 1.09a2.05 2.05 0 0 1-.19-.07c-.36-.16-.7-.44-.87-.91l-.3.05c0 .52.38 1.47 1.67 1.9l-.26-.01a1.7 1.7 0 0 1-1.13-.6l-.35-.43.07.54c.04.3.24.7.7.97.2.13.48.23.8.29a4.8 4.8 0 0 1-1.3-.13l-.54-.13.38.39c.32.33 1.17.79 2.39.65-.4.16-.97.29-1.72.22l-.47-.04.35.31c.44.39 1.52.83 2.8.08-.27.3-.8.63-1.8.73l-.46.05.39.24c.28.18.77.34 1.32.22.44-.1.9-.35 1.31-.86-.11.33-.4.73-1.04 1.02l-.05.02-.06-.01h-.84c-1.3.95-3 1-3.05.49-.03-.31.1-.36.38-.46.2-.07.46-.17.8-.38.67-.43.15-.92-.2-1.1.2.23-.19.65-.4.83-.99.1-1.21.67-1.2.94-.11 1.48 1.77 1.37 2.72 1.14-1.28.68-1.5 1.73-1.12 2.4.3.55 1.34.23 1.83 0a3.31 3.31 0 0 1-.71-1.02c.83.45 1.85-.3 2.26-.73-.2.35.73 1.24 1.39 1.43.65.2 1.57.25 1.93-.35.28-.48-.97-.6-1.63-.6.8-.17 1-.63 1-.83.24.06 1-.17 1.34-.3.85.37 2.14 1.53 2.87 2.18l.47.42c.39.3 1.5.64 2.02 0 .41-.52-.94-1.2-1.66-1.46l-1.5-1.82.41-.46c.13.29.98.43 1.39.46-.16.55-.24 1.69.65 1.82 1.12.16.85-1.2.7-1.82-.1-.5-.5-.85-.7-.97l-1.3-1.03c.08-1-.46-1.69-.74-1.92.46-.28.42-.84.35-1.08-.17.23-1.3.54-1.33 0-.02-.44.88-.52 1.33-.51l.17-.7c-.29-.78-1.65-1.12-2.29-1.2l-.38.03c.13-.61.6-1.97 1.56-2.9Zm-1.75 2.93a3.6 3.6 0 0 0-1.3.48v-.48c.01-.37.05-.7.12-.98 0 .37.11.66.23.81l.24.31.04-.38c.05-.4.13-.74.24-1.03-.03.22-.02.4 0 .53l.11.54.2-.51c.2-.51.47-.94.75-1.28a6.7 6.7 0 0 0-.76 1.96l.13.03Zm-1.35.51a2.3 2.3 0 0 0-1.08 1.83l-.42-.53.35.07.1-.3a1.05 1.05 0 0 1-.33-.3l.37.16.16-.27a1.15 1.15 0 0 1-.37-.6l.32.38.08.1.24-.21-.07-.08a1.02 1.02 0 0 1-.1-.21 2.63 2.63 0 0 1-.11-.4l.12.17.02.03.08.12.03.04v.01l.3-.12-.02-.02a1.9 1.9 0 0 1-.14-.8c.08.2.16.37.23.5l.24.43Zm-2.16 6.25c.14-.08.28-.19.4-.33l-.04.33h-.36Zm.78 0 .13-.09c.24-.17.55-.45.91-.9l.15.1.18-.14c.45.33 1.4.88 1.55.49.14-.37-.35-1.18-.66-1.6v.5c-.37-.12-.95-.32-1.48-.56a5.93 5.93 0 0 1-.73-.4c-.2-.12-.37-.26-.48-.42-.2-.17-.48-.48-.72-.87a3.17 3.17 0 0 1-.5-1.3c-.55-.2-1.25-.61-1.67-1.24a2.17 2.17 0 0 1-.38-1.53l-.07.34c-.07.64.14 1.47 1.02 2.42l-.17.25a2.92 2.92 0 0 1-1.36-1.15l.07.21c.2.52.6 1.03 1.4 1.32l-.05.3a2.54 2.54 0 0 1-1.42-.35c.32.34.85.66 1.7.78l.6.08-.56.22a2.46 2.46 0 0 1-1.75-.04l.1.07c.38.23 1 .38 1.98.24l.1.28c-.29.18-1.02.42-2.02.34.5.2 1.27.3 2.22 0l.5-.15-.33.4c-.23.29-.9.73-1.99.78.55.2 1.4.21 2.37-.57l.28-.22-.02.36c-.03.42-.47 1.11-1.72 1.4.17.02.36.03.56-.02.45-.1.97-.41 1.44-1.2l.2-.35.09.4c.08.37-.03 1.13-.87 1.68.1 0 .2-.02.3-.06.28-.1.6-.35.84-.9l.3.09-.14 1.01h.1Zm3.08-6.49c-.63-.08-1.35.4-1.62.65l.16.1c.28-.18 1.1-.57 1.46-.75Zm1.64 8.62-1.78-1.02a5.2 5.2 0 0 0-1.21-1.36h-.11c.23.21.67.68.59.8-.09.1-.36.11-.48.1l-.34-.3c.16.16.41.49.23.55-.19.05-.52-.22-.66-.36.15.2.4.57.18.57-.22 0-.55-.3-.7-.46.07.15.17.46 0 .46s-.45-.3-.57-.46c.4-.29 1.25-.96 1.52-1.33.38.24 1.2.68 1.35.57.2-.14 1-.8 1-1.19 0-.3-.44-.74-.66-.92.22.08.73.32 1.01.7-.04-.23-.31-.74-1.01-1.07-.87-.4-1.69-.83-1.69-1.71-.02.28-.01.97.23 1.38a1.68 1.68 0 0 1-.66-1.38c-.02.36.03 1.2.43 1.59a1.7 1.7 0 0 1-.79-1.6c.07-.87.47-1.08.66-1.07.12.27.46.86.86 1.08.05.16.34.58 1.07.93.72.36.9.59.9.66l-1.67-.66c.77.36 2.3 1.23 2.3 1.84 0 .61-.14.82-.22.85l-.16-.85-.14 1.28-.1-.63-1.02 1.23c-.07.13-.08.46.4.76.61.37 1.24.81 1.24 1.02Zm2.64-1.9-1.58-1.1c-.15 0-.13.56-.1.85l1.05.13c.05.22.13.75.1 1.15-.03.49.53.82.68.55.12-.2-.05-1.13-.15-1.57Zm.15 3.36c.12-.19-.61-.46-1-.58a3.04 3.04 0 0 1-.61-.5 4.13 4.13 0 0 0-.45-.38c-.07-.03-.2-.22-.38-.46-.46-.62-1.18-1.59-1.58-1.32-.55.37.68 1 .85 1.04.15.03.47.6.61.88l-.08.22c.45.42 1.42 1.3 1.65 1.37.2.07.17-.2.12-.4.06.18.2.43.42.4.26-.02.04-.31-.11-.47.15.15.45.37.56.2Zm-5.49-9.21c-.13-.02-.4.02-.4.31 0 .37.65.68.8.34.15-.34 0-.54-.4-.65Zm1.38-.64Zm-.21.42c.01-.12.07-.33.15-.4-.3.12-.8.38-.75.62.03.12.1.18.17.24.1.1.18.17-.02.41-.17.21.02.3.2.38.16.07.3.14.14.29-.34.3-.29.7.1.54.15-.06.3.01.46.1.3.17.67.37 1.29-.02-.41 0-1.26-.11-1.38-.48-.09-.26-.02-.55.04-.79.04-.18.08-.33.04-.43-.08-.24-.21-.46-.44-.46Zm.55 1.33c.13-.13.4-.5.42-.98h.18c.26.15.76.32.69-.13-.08-.45-.7-.33-1-.22-.03-.14-.1-.42-.24-.42-.13 0-.01.52.07.77l-.12.98Zm-4.16 6.64c-.24-.28-.59-.11-.73 0 .24.3.82.91 1.18 1.03.45.14 1.8-.15.85-.27-.8-.1-.97-.32-1.18-.6l-.12-.16Zm-3.96.42.76 1.04c-.27.03-.84.04-.98-.17-.17-.26-.25-.76.22-.87Zm3.02-2.2c.59 0 1.07.37 1.23.55-.67-.07-1.34.47-1.88.9-.24.2-.45.38-.63.47-.6.3-1.4-.14-1.46-.3-.05-.13.64-.56.99-.76.06.4.39.58.54.62-.4-.52-.07-.93.24-1.05.24-.1.21-.2.17-.24-.34-.3-.46-.22-.73-.02-.24.17-.6.42-1.34.59-1.58.36-1.96-.3-2.1-.76-.1-.36.22-.55.4-.6-.26.12-.28.45-.26.6.05.63 1.23.7 1.8.65a8.02 8.02 0 0 1 1.75-.84c.38-.1.51-.03.67.05.13.06.29.14.61.14Z" fill="#fff"/><path d="M28.16 12h-.33v.34h-.34v.32h.34v.16a.67.67 0 0 0-.3 1.14h-1.34a1.1 1.1 0 0 0-1.08.82h-1.2c-1.05.27-1 1.21-.85 1.68-.21.08-.4.18-.51.25a2.95 2.95 0 0 1 2.05 2.3c1.1-.4 2.3-.53 3.4-.52v-.45c-.53 0-1.12.03-1.7.1l-.44-.57c.38-.1 1.16-.2 2.14-.19V16.3v1.08c.6 0 1.27.06 1.98.19l-.19.57c-.34-.04-1-.1-1.8-.1v.45c1.1-.01 2.3.12 3.4.52.07-.56.56-1.8 2.05-2.3-.11-.07-.3-.17-.51-.25.16-.47.2-1.4-.86-1.68h-1.2a1.1 1.1 0 0 0-1.07-.82h-1.34a.67.67 0 0 0-.3-1.14v-.16h.34v-.32h-.34V12Zm-.25 2.14a.7.7 0 0 0 .16 0c.15.34.33.89.28 1.26.16-.1.47-.4.39-.77.29 0 .9.18 1.06.93.14-.17.3-.65-.24-1.15.36 0 1.07.23 1.12 1.15.06 0 .12-.06.2-.12.18-.16.43-.38.82-.04.44.4.5.71.47.82.16-.14.38-.54 0-1.01.24.24.71.82.74 1.24a1.56 1.56 0 0 0-1.07-.03c-.05.54-.27 1.36-.78.3-.33.25-.96.56-.78-.3v-.1l.02-.16.34.06.05-.32-.34-.05.05-.34-.32-.05-.05.34-.34-.05-.05.32.34.05-.02.17c-.1.3-.28.72-.52.56-.28-.18-.36-.53-.36-.68-.28.43-.84 1-.92.06v-.28h.34v-.32h-.34v-.34h-.33v.34h-.34v.32h.34v.32c-.1.89-.64.32-.92-.1 0 .15-.08.5-.35.68-.26.17-.45-.28-.53-.6l-.03-.13.35-.05-.05-.32-.34.05-.05-.34-.32.05.05.34-.34.05.04.32.35-.05.02.18v.07c.18.86-.44.55-.78.3-.5 1.06-.73.24-.78-.3a1.56 1.56 0 0 0-1.08.03c.04-.41.5-1 .75-1.24-.38.47-.16.87 0 1.01-.03-.1.03-.43.47-.82.39-.34.64-.12.82.04.08.06.14.12.2.12.05-.92.76-1.15 1.12-1.15-.54.5-.38.98-.24 1.15.16-.75.77-.93 1.06-.93-.08.37.23.67.4.77-.06-.37.12-.92.26-1.26Zm.45-.67c0 .2-.17.36-.37.36a.36.36 0 0 1-.36-.36.36.36 0 0 1 .73 0Z" fill="url(#aua3epptx)"/><path fill-rule="evenodd" d="M23.01 20.78v-.46a11 11 0 0 1 9.9 0v1.08c-.23-.15-.52-.3-.84-.44l-.3-.16v.03a9.8 9.8 0 0 0-8.76.57v-.62Zm-.31.1v-.74l.07-.05a11.28 11.28 0 0 1 10.38 0l.08.04v.74c.53.18 1.42.52 1.82.67l.5.19-1.46.3 1.01 1.1-.17.26-3.15-1.36v-.86a9.61 9.61 0 0 0-7.59-.03v.9l-3.15 1.35-.18-.25 1.02-1.11-1.46-.3.5-.2 1.78-.64Zm0 .34-1.16.42.95.2-.9.97 2.29-.98v-.5l-1 .51-.18.13v-.75Zm10.17.51-.78-.4v.5l2.29.98-.9-.98.95-.2-1.16-.41v.72l-.04-.02v.05l-.24-.16a5.44 5.44 0 0 0-.12-.08Z" fill="#fff"/><path fill-rule="evenodd" d="M27.96 20.67c-.65 0-2.15.14-3.29.67l-.09.04v.97l-1.88.6v2.53l-.02-.01a.83.83 0 0 0-.4-.15.5.5 0 0 0-.42.18c-.1.14-.18.33-.22.6v2.78l.3.06c.07-.16.16-.32.24-.46.1-.15.18-.24.25-.27a.1.1 0 0 1 .03-.02l.02.01.03.04c.06.08.13.28.19.65v3.02c.06.5.44 1.63 1.51 2.3h.01a33.62 33.62 0 0 1 3.09 1.87 5.72 5.72 0 0 1 .43.39l.16.12.06.07.02-.01.01.01.06-.07.16-.12-.01-.02a15.8 15.8 0 0 1 1.48-1.05c.74-.47 1.54-.91 2.05-1.18h.01a3.4 3.4 0 0 0 1.52-2.31V28.89c.05-.37.12-.57.19-.65a.17.17 0 0 1 .03-.04h.05c.06.04.15.13.24.28.1.14.17.3.24.46l.3-.06V26.1a1.2 1.2 0 0 0-.22-.6.49.49 0 0 0-.42-.2.82.82 0 0 0-.4.16v.01-2.53l-1.9-.6v-.97l-.09-.04a8.98 8.98 0 0 0-3.28-.67h-.04Zm.02.32c-.6 0-2 .12-3.08.6v.99l-1.88.6v3.07l-.28-.31a1.28 1.28 0 0 0-.24-.21.51.51 0 0 0-.23-.1c-.06 0-.1.01-.16.07a.9.9 0 0 0-.15.43v2.11a1 1 0 0 1 .31-.3.38.38 0 0 1 .27-.05c.1.02.17.09.23.17.11.15.2.41.24.8v3.02c.06.44.41 1.46 1.37 2.07a33.94 33.94 0 0 1 3.12 1.88 6 6 0 0 1 .48.4 16.07 16.07 0 0 1 1.52-1.09c.75-.48 1.56-.92 2.08-1.2a3.1 3.1 0 0 0 1.36-2.06V28.86c.06-.39.13-.65.25-.8a.4.4 0 0 1 .23-.17c.1-.02.19 0 .26.04a1 1 0 0 1 .32.31v-2.1a.9.9 0 0 0-.15-.44c-.05-.06-.1-.07-.16-.07a.51.51 0 0 0-.23.1c-.09.06-.17.13-.24.2l-.28.32v-3.08l-1.88-.6v-.99a8.81 8.81 0 0 0-3.08-.6Z" fill="#fff"/><path d="M28 21.21c.31.02.8.05 1.3.13.52.08 1.08.2 1.47.4l.1.03v1.06l1.84.5v2.7h-.32v-2.46l-1.85-.5v-1.1a5.9 5.9 0 0 0-1.29-.32c-.49-.07-.96-.11-1.26-.12-.3 0-.78.05-1.27.12a5.9 5.9 0 0 0-1.29.32v1.1l-1.85.5v2.45h-.31v-2.69l1.84-.5v-1.06l.1-.04c.39-.18.94-.3 1.46-.39.5-.08 1-.11 1.3-.13a25.92 25.92 0 0 0 .03 0Zm4.7 7.73v2.61c.02.56-.3 1.8-1.65 2.36a9.63 9.63 0 0 0-3.02 2.01l-.04-.04-.05.04a9.63 9.63 0 0 0-3.02-2 2.63 2.63 0 0 1-1.65-2.37v-2.6h.31v2.6c0 .48.28 1.58 1.47 2.08a9.96 9.96 0 0 1 2.94 1.9 9.96 9.96 0 0 1 2.94-1.9 2.32 2.32 0 0 0 1.46-2.08v-2.6h.32Z" fill="#fff"/><path d="M27.34 25h-3.39v.38h.47c.38 0 .62.32.7.48L27.85 32h.55l2.57-6.14c.25-.48.8-.52 1.05-.48V25H29.6v.38h.51c.4 0 .4.32.36.48l-2.06 4.47-1.87-4.06c-.36-.63-.01-.86.2-.89h.6V25Z" fill="url(#bua3epptx)"/><path d="M10.08 33.82c5.94-1.38 10.32-.44 11.8.21l.4.18-3.17.85-1.14.64v1.54c.45.06 1.1.19 1.79.36.75.2 1.55.46 2.12.79l-.15.27c-.54-.3-1.3-.56-2.05-.75a17.8 17.8 0 0 0-1.88-.38l-.14-.02v-2l.95-.52c-3.37-.66-7.14-.01-8.65.41l-.13-.28 1.13-.7-1.41-.48.53-.12Zm8.97.94 2.26-.61c-1.68-.58-5.52-1.22-10.6-.15l.99.34-.87.53a20.9 20.9 0 0 1 8.22-.11ZM45.9 33.82c-5.95-1.38-10.33-.44-11.8.21l-.4.18 3.16.85 1.14.64v1.54c-.44.06-1.1.19-1.78.36-.76.2-1.55.46-2.13.79l.16.27c.53-.3 1.3-.56 2.05-.75.74-.2 1.45-.32 1.88-.38l.14-.02v-2l-.96-.52c3.37-.66 7.15-.01 8.66.41l.12-.28-1.13-.7 1.42-.48-.54-.12Zm-8.97.94-2.26-.61c1.67-.58 5.51-1.22 10.6-.15l-1 .34.87.53a20.9 20.9 0 0 0-8.21-.11Z" fill="#fff"/><path fill-rule="evenodd" d="m17.85 34.73 1.63-1.14c.52.05 1.77.2 2.66.4l1.56-.4.76.52c1.37.92 3.3 2.23 3.52 2.5-.75-.5-3.21-1.3-6.28-.44 1 .37 3.22 1.36 4 2.35h-4l-1.22-.72h3.48a14.85 14.85 0 0 0-6.1-2.12l1.27-.72-1.28-.23Zm2.27.23 2.92-.69 1.85 1.12-3.06.26-1.71-.69ZM37.94 34.82l-1.63-1.14c-.51.05-1.77.2-2.66.4l-1.55-.4-.9.61c-1.33.89-3.05 2.03-3.22 2.35.76-.5 3.04-1.24 6.12-.38-1 .37-3.22 1.36-4.01 2.35h4l1.23-.71h-3.49a15.7 15.7 0 0 1 6.28-2.2l-1.27-.67 1.1-.21Zm-2.26.23-2.93-.68-1.84 1.1 3.06.27 1.7-.69Z" fill="#fff"/><path d="M15.05 36.82c.95-.47 1.85-1 2.37-1.34l.18.26a23.37 23.37 0 0 1-3.28 1.75l.18.03c.14.02.34-.02.6-.1.24-.1.53-.22.81-.36a14.8 14.8 0 0 0 1.51-.89l.18.26c-.37.25-.96.61-1.55.9-.29.16-.59.29-.85.38-.27.09-.53.15-.73.12-.21-.02-.41-.08-.58-.16-.54.2-1.05.34-1.5.39-.8.08-1.25-.11-1.45-.46-.19-.33-.1-.74.03-1l.28.13c-.1.23-.15.51-.03.72.1.18.39.37 1.14.3.36-.04.78-.15 1.23-.3a.67.67 0 0 1-.15-.26c-.07-.2-.01-.4.16-.59.17-.17.44-.32.84-.45l.1.3c-.38.12-.6.25-.71.37-.1.11-.12.2-.1.28.03.07.09.15.19.22.37-.15.76-.32 1.13-.5Zm-3.3-1.07-.05.3c-.02 0-.07 0-.1-.02a2.73 2.73 0 0 0-.15-.04c-.11-.03-.24-.05-.36-.04a.5.5 0 0 0-.32.13c-.1.08-.18.23-.22.5-.15.8.36 1.22.62 1.32l-.12.3a1.45 1.45 0 0 1-.83-1.54.43.43 0 0 0-.18 0 .15.15 0 0 0-.09.05c-.02.03-.04.07-.05.16l-.31-.01c0-.14.04-.25.11-.34a.47.47 0 0 1 .26-.17c.1-.02.22-.02.31 0 .06-.22.16-.38.28-.5.16-.15.34-.2.52-.22a1.45 1.45 0 0 1 .61.1h.01l.05.02a.4.4 0 0 0 .02 0Zm4.2 1.87a6.37 6.37 0 0 0 1.46-.87l.2.24c-.32.26-.88.64-1.53.92a3.4 3.4 0 0 1-2.05.3l.07-.31a3.1 3.1 0 0 0 1.86-.28ZM40.96 36.83c-.95-.46-1.84-1-2.37-1.34l-.17.26a23.36 23.36 0 0 0 3.27 1.76l-.18.03c-.13.01-.33-.03-.59-.11a6.6 6.6 0 0 1-.82-.36 14.8 14.8 0 0 1-1.5-.89l-.19.26c.37.25.96.61 1.55.91.3.15.59.28.86.37.26.1.52.15.73.13.2-.02.4-.08.58-.17.53.2 1.05.34 1.5.39.79.08 1.25-.1 1.44-.46.2-.33.1-.74-.02-1l-.29.14c.1.22.15.5.04.7-.1.2-.4.38-1.14.3a5.55 5.55 0 0 1-1.23-.3.67.67 0 0 0 .15-.25c.06-.2 0-.4-.17-.58a1.99 1.99 0 0 0-.83-.46l-.1.3c.38.12.6.25.7.37.11.11.12.2.1.28a.47.47 0 0 1-.18.22 15.4 15.4 0 0 1-1.14-.5Zm3.3-1.07.05.31a.89.89 0 0 0 .11-.03l.15-.04c.1-.03.23-.05.35-.04a.5.5 0 0 1 .32.13c.1.09.18.24.23.5.14.81-.37 1.22-.62 1.33l.11.29c.34-.14.94-.63.84-1.54a.43.43 0 0 1 .18 0c.04.01.07.03.09.05.02.03.04.08.04.17l.32-.02a.58.58 0 0 0-.12-.34.47.47 0 0 0-.25-.16.74.74 0 0 0-.32 0 1.05 1.05 0 0 0-.28-.5.82.82 0 0 0-.51-.22 1.46 1.46 0 0 0-.62.1h-.05l-.02.01Zm-4.2 1.87a6.36 6.36 0 0 1-1.46-.87l-.2.24c.33.27.89.64 1.53.92a3.4 3.4 0 0 0 2.06.3l-.07-.31a3.1 3.1 0 0 1-1.86-.28ZM30.14 37.15c-.58.43-1.16.93-1.51 1.25l-.21-.23a24.88 24.88 0 0 1 2.39-1.87 3 3 0 0 1 .72-.35l.08.3c-.15.04-.37.15-.63.32-.26.16-.55.36-.84.58Zm-6.5-1.19a16.9 16.9 0 0 1 3.13 2.2l-.2.24a16.62 16.62 0 0 0-3.06-2.16l.14-.28Zm3.6 2.43a13.84 13.84 0 0 0-2.88-2.15l.15-.27c.65.36 2.15 1.32 2.97 2.2l-.23.22Zm3.49-1.42c.6-.41 1.22-.78 1.6-1l.15.27c-.37.21-.98.58-1.58.99-.6.4-1.19.83-1.54 1.16l-.22-.22c.37-.36.98-.8 1.59-1.2Zm-2.7.95-2.48-1.94-.2.24 2.68 2.1 2.62-2.1-.2-.24-2.42 1.94Zm-1.72-1.55.2-.25 1.52 1.14 1.39-1.14.2.24-1.58 1.3-1.73-1.3Z" fill="#fff"/><path fill="#fff" d="M10 38.4h36v.6H10z"/><defs><linearGradient id="aua3epptx" x1="21.97" y1="15.5" x2="32.9" y2="16.93" gradientUnits="userSpaceOnUse"><stop stop-color="#BD780F"/><stop offset="1" stop-color="#FFE669"/></linearGradient><linearGradient id="bua3epptx" x1="25.02" y1="25.57" x2="29.57" y2="27.02" gradientUnits="userSpaceOnUse"><stop stop-color="#6F4615"/><stop offset="1" stop-color="#FFEA83"/></linearGradient></defs></svg>