<!-- by TradingView --><svg width="56" height="56" viewBox="0 0 56 56" xmlns="http://www.w3.org/2000/svg"><path fill="#F0F3FA" d="M0 0h56v56H0z"/><path d="m4.69 23.01 7.96 11.4a.03.03 0 0 1 0 .04l-.38.54-.02.01a.02.02 0 0 1-.02-.01L4 23.04a.03.03 0 0 1 .01-.04h.66a.02.02 0 0 1 .02.01ZM6.45 23l7.1 10.26a.02.02 0 0 1 0 .01l-.54.77H13a.02.02 0 0 1-.01 0L5.44 23.02a.02.02 0 0 1 0-.01l.01-.01h.99a.01.01 0 0 1 .01 0ZM14.56 32h32.08l.01.01.01.01v.02l-.71.96H13.88l-.02-.01-6.57-9.95a.02.02 0 0 1 0-.03.02.02 0 0 1 .01-.01h1.2a.02.02 0 0 1 .02.01l6.04 9s0-.01 0 0Z" fill="#133D6F"/><path d="m20.7 23.04-5.76 8.35h-.03l-1.92-2.9v-.03L17.13 23V23h3.57a.02.02 0 0 1 .01.03v.01ZM49.03 26.79 51 23.74h.01l.97-.29.02.01a.02.02 0 0 1 0 .03l-2.66 4.04a.02.02 0 0 0 0 .03l1.52 3.4v.02l-.01.01h-1.37l-.96-2.16h-.03L47.08 31h-.76l-.01-.01a.02.02 0 0 1 0-.03l1.87-2.87v-.02l-1.36-3.03a.02.02 0 0 1 0-.02l.01-.01V25h1.36l.01.02.8 1.76v.01a.02.02 0 0 0 .02 0ZM24.74 26.82a5.3 5.3 0 0 0-.36 2.15c.03.73.38 1.52 1.16 1.49.7-.04 1.25-.58 1.62-1.18v-.01h.02a.02.02 0 0 1 .02 0l.33.26.01.02.01.02a.06.06 0 0 1 0 .04c-.38.54-.82.94-1.32 1.17-1 .45-2.14.23-2.74-.75a3.1 3.1 0 0 1-.29-2.16 3.65 3.65 0 0 1 1.91-2.61c.4-.2.85-.28 1.34-.25a1.65 1.65 0 0 1 1.58 1.26l-.02.02-.46.24h-.02a.03.03 0 0 1-.01-.02c-.13-.53-.44-.95-.98-1.02-.86-.1-1.49.52-1.8 1.33ZM31.2 25.52c-1.18.29-1.59 1.95-1.65 3.06-.04.77.22 1.87 1.13 1.86.73-.01 1.28-.56 1.67-1.18h.03l.35.27.01.02v.02c-.62.92-1.55 1.52-2.61 1.39-.31-.04-.6-.14-.85-.3-.92-.61-1.11-1.83-.87-2.91a3.55 3.55 0 0 1 2.16-2.6c.37-.14.77-.18 1.2-.13a1.62 1.62 0 0 1 1.44 1.25l-.02.02-.44.23h-.02a.03.03 0 0 1-.02 0v-.02c-.05-.15-.1-.3-.18-.43-.28-.53-.8-.67-1.33-.55ZM40.02 28.59c.06 0 .1-.03.1-.1l.55-3.49h.53c-.3 1.8-.59 3.74-.87 5.47-.04.2-.12.43-.3.5-.26.08-.47 0-.57-.26a7409.48 7409.48 0 0 0-1.75-4.56l-.02-.01h-.03a.09.09 0 0 0-.05.08L36.86 31h-.53c.27-1.62.53-3.43.79-5 .03-.18.09-.36.17-.53.18-.38.47-.5.84-.47.46.03.74.48.9.9a3495.07 3495.07 0 0 0 .96 2.68l.03.01ZM17.5 30.99l3.98-5.95a.03.03 0 0 0 0-.03h-.01l-.02-.01-.95.27h-.01l-3.83 5.7a.03.03 0 0 0 0 .02H17.5Zm3.47-4.15.15 1.22c0 .04-.01.06-.05.06h-1.05l-.03.01-.02.02-.4.6v.02l.01.01h1.6c.02 0 .02 0 .03.02l.26 2.16c0 .03.02.04.04.04h1.15l.01-.01v-.03a97.06 97.06 0 0 0-.61-4.76 6.69 6.69 0 0 0-.22-.87h-.03l-.78 1.25c-.06.08-.07.15-.06.26ZM43.66 27.49h1.85v.02l-.08.57c0 .02-.01.04-.04.04h-1.86v.02l-.3 1.88c-.05.35.11.42.38.42h1.9c.02 0 .03.02.03.05l-.08.47-.01.03h-2.73c-.3 0-.67-.05-.7-.48 0-.16 0-.33.02-.5l.64-4.08c.02-.17.07-.32.13-.47.14-.34.41-.41.71-.44.12-.02.22-.02.33-.02h2.44c.02 0 .03 0 .03.03l-.07.5h-.01l-.01.01h-1.8c-.28 0-.5.06-.57.43l-.23 1.48c0 .03 0 .04.03.04ZM34.46 25.41l1.22-.49v-.01l.29-.88a.02.02 0 0 0 0-.02l-.02-.01h-.01l-1.26.54-.01.01-.24.84.01.02h.02Zm.26 5.57.92-5.48a.03.03 0 0 0-.01-.03h-.03l-1.25.57h-.01v.02l-.81 4.9v.02a.03.03 0 0 0 .01.02h1.17v-.02Z" fill="#133D6F"/></svg>