<!-- by TradingView --><svg xmlns="http://www.w3.org/2000/svg" width="56" height="56" viewBox="0 0 56 56"><path fill="#F0F3FA" d="M0 0h56v56H0z"/><path d="M26.45 35c11.36 0 20.57-3.2 20.57-7.15 0-3.04-5.45-5.64-13.13-6.68 8.73 1.05 14.98 3.87 14.98 7.2 0 4.21-10.05 7.63-22.44 7.63S4 32.58 4 28.37c0-3.37 6.42-6.23 15.34-7.24-7.85 1-13.45 3.63-13.45 6.72 0 3.95 9.2 7.15 20.56 7.15Z" fill="#13B6B3"/><path d="M13.43 20H9.5v.41h1.21c1.12 2.37 3.47 8.71 4.5 11.59l3.83-8a27.6 27.6 0 0 1 2.05-3.59h.8V20H18.8v.41h1c.05.58-.64 2.27-1 3.05l-3.16 6.65L12.9 23c-.54-1.55-.7-2.59-.7-2.59h1.22V20ZM20.65 26.82h6.32a1.23 1.23 0 0 1-.03-.04C26.6 24.8 25.14 24 23.49 24a3.83 3.83 0 0 0-3.93 3.98c0 2.2 1.64 4.02 4.01 4.02 1.48 0 2.54-.36 3.24-.96l-.26-.24c-.87.6-1.95.79-2.38.81-3.25-.06-3.7-3.22-3.52-4.79Zm.09-.36c.12-.72.81-2.17 2.55-2.17 1.74 0 2.22 1.45 2.25 2.17h-4.8ZM28.61 26.82h6.23a1.2 1.2 0 0 1-.04-.04C34.48 24.8 33.02 24 31.36 24a3.83 3.83 0 0 0-3.93 3.98c0 2.2 1.64 4.02 4.01 4.02 1.48 0 2.54-.36 3.25-.97l-.25-.23c-.86.6-1.93.79-2.35.81-3.2-.06-3.65-3.22-3.48-4.79Zm.09-.36c.12-.72.8-2.17 2.52-2.17s2.2 1.45 2.22 2.17H28.7ZM42.37 24.42v1.5h-.27v-.67a3.5 3.5 0 0 0-2.36-.81 3.2 3.2 0 0 0-3.13 3.5c.1 2.4 1.65 3.62 3.64 3.64.4-.01 1.38-.14 2.12-.57l.2.32a5.7 5.7 0 0 1-2.94.67 3.99 3.99 0 0 1-4.14-4c0-2.2 1.82-4 4.27-4 .75 0 1.82.13 2.61.42Z" fill="#236997"/><path fill-rule="evenodd" d="M47.5 32c2.87 0 4.5-1.8 4.5-4s-1.63-4-4.5-4c-2.64 0-4.5 1.8-4.5 4s1.63 4 4.5 4Zm0-.33c2.23 0 3.5-1.64 3.5-3.67 0-2.03-1.27-3.67-3.5-3.67-2.05 0-3.5 1.64-3.5 3.67 0 2.03 1.27 3.67 3.5 3.67Z" fill="#236997"/></svg>