<!-- by TradingView --><svg width="56" height="56" viewBox="0 0 56 56" xmlns="http://www.w3.org/2000/svg"><path fill="#181B1E" d="M0 0h56v56H0z"/><path d="M31 19h4.5l-3 8H28l3-8ZM36.57 19H42v4.86L43.55 19H48l-2.55 8h-6.01l-.14-2.5-.8 2.5H34l2.57-8ZM12.44 30H8l2.56 7h7.89L21 30h-4.45l-2.05 5.63L12.44 30ZM26.06 30H22.5L20 37h11.56l.65-1.85h-7.2l.27-.72h7.18l.65-1.86h-7.18l.26-.72h7.16L34 30h-7.94ZM8.68 19H21l-.8 3.92L22 19h3l-.73 5.1L26.5 19H30l-3 8h-5l.7-4.52L20.56 27H16l1.06-6H15.4l-1.79 6H9.5l1.79-6H8l.68-2ZM39.06 30H35.5L33 37h11.56l.65-2h-7.14l.2-.57h7.19l.65-1.86h-7.17l.2-.57h7.2l.66-2h-7.94Z" fill="#fff"/></svg>