<!-- by TradingView --><svg xmlns="http://www.w3.org/2000/svg" width="56" height="56" viewBox="0 0 56 56"><path fill="#F0F3FA" d="M0 0h56v56H0z"/><path d="M10.54 34L4 23h2.29l4.25 7.18L14.82 23H17l-6.46 11zM25.95 33.42a5.5 5.5 0 1 1 2.8-6.54l-2.01.29a3.5 3.5 0 1 0-1.8 4.52l1.01 1.73z" fill="#03196B"/><path d="M16.6 32.76l12.12-5.85-1.89-1.36-10.22 4.93v2.28z" fill="url(#adiwqpcvz)"/><path d="M30 28.35V34h2v-5.68c0-1.96 1.43-3.32 3.4-3.32 1.06 0 1.6.34 2.38 1L39 24.78C37.89 23.06 35.85 23 35.5 23h-.1c-2.98 0-5.4 2.4-5.4 5.35z" fill="#03196B"/><path fill-rule="evenodd" d="M48 32.74a5.5 5.5 0 1 1 2-4.27V34h-2v-1.26zm0-4.24a3.5 3.5 0 1 1-7 0 3.5 3.5 0 0 1 7 0z" fill="#03196B"/><defs><linearGradient id="adiwqpcvz" x1="24.64" y1="27.62" x2="15.39" y2="32.76" gradientUnits="userSpaceOnUse"><stop stop-color="#03196B"/><stop offset=".86" stop-color="#03196B" stop-opacity="0"/></linearGradient></defs></svg>