<!-- by TradingView --><svg xmlns="http://www.w3.org/2000/svg" width="56" height="56" viewBox="0 0 56 56"><path fill="url(#acrflwbs4)" d="M0 0h56v56H0z"/><path fill-rule="evenodd" d="M44 28a16 16 0 1 1-32 0 16 16 0 0 1 32 0zm1 0a17 17 0 1 1-34 0 17 17 0 0 1 34 0zM28 43a15 15 0 1 0 0-30 15 15 0 0 0 0 30zM15.07 26.14l2.74 5.8a.1.1 0 0 0 .1.06h1.9a.1.1 0 0 0 .1-.06l2.73-5.8a.1.1 0 0 0-.09-.14h-1.9a.1.1 0 0 0-.08.06l-1.68 3.8-1.7-3.8a.1.1 0 0 0-.1-.06h-1.93a.1.1 0 0 0-.1.14zM29 29.17V29c0-1.66-1.57-3-3.5-3S22 27.34 22 29s1.57 3 3.5 3c1.3 0 2.64-.55 3.25-1.45l.1-.2a.1.1 0 0 0-.06-.12l-1.6-.42c-.05 0-.1.02-.13.07v.01c-.37.51-1 .7-1.55.7-.73 0-1.34-.46-1.56-1.08h4.95a.1.1 0 0 0 .1-.1v-.24zm-3.5-1.72c.7 0 1.3.42 1.53 1h-3.05c.24-.58.83-1 1.53-1zm4.03-1.35c0-.06.04-.1.1-.1h1.8c.05 0 .1.04.1.1v.47c.66-.6 1.5-.62 1.92-.53a.1.1 0 0 1 .08.1v1.34a.1.1 0 0 1-.11.1c-1.12-.06-1.66.42-1.9.92v3.4a.1.1 0 0 1-.1.1h-1.8a.1.1 0 0 1-.1-.1v-5.8zM34.1 24a.1.1 0 0 0-.1.1v7.8c0 .06.04.1.1.1h1.8a.1.1 0 0 0 .1-.1v-.48c.52.36 1.16.58 1.86.58A3.07 3.07 0 0 0 41 29c0-1.66-1.4-3-3.14-3-.7 0-1.34.22-1.86.58V24.1a.1.1 0 0 0-.1-.1h-1.8zm1.9 5c0 .81.71 1.47 1.59 1.47.87 0 1.59-.66 1.59-1.47 0-.81-.72-1.47-1.6-1.47-.87 0-1.58.66-1.58 1.47z" fill="#fff"/><defs><linearGradient id="acrflwbs4" x1="10.42" y1="9.71" x2="68.15" y2="76.02" gradientUnits="userSpaceOnUse"><stop stop-color="#1A1E21"/><stop offset="1" stop-color="#06060A"/></linearGradient></defs></svg>