<!-- by TradingView --><svg xmlns="http://www.w3.org/2000/svg" width="56" height="56" viewBox="0 0 56 56"><path fill="#F0F3FA" d="M0 0h56v56H0z"/><path fill-rule="evenodd" d="M34.4 23h-2.9l3.66 10h2.7l3.64-10h-2.74l-2.15 6.65-2.2-6.65zM8.9 23H6l3.66 10h2.7L16 23h-2.74l-2.15 6.65L8.91 23zm11.26 0c3.8 0 4.47 4.08 4.32 6h-6.14c0 .92 1.14 2 2.5 2 .93 0 1.95-.55 2.51-.86l.23-.12v2.42c-1.01.5-2.7.58-3.42.56-3.81 0-4.7-3.25-4.66-4.87-.03-1.71.86-5.13 4.66-5.13zm1.62 4h-3.5c.14-.67.57-2 1.8-2s1.59 1.33 1.7 2zm28.2 2c.15-1.92-.52-6-4.32-6-3.8 0-4.69 3.42-4.66 5.13-.03 1.62.85 4.87 4.66 4.87.72.02 2.4-.07 3.42-.56v-2.42l-.23.12c-.56.3-1.58.86-2.52.86-1.35 0-2.5-1.08-2.5-2h6.15zm-6.2-2h3.5c-.11-.67-.47-2-1.7-2s-1.66 1.33-1.8 2zM25 33v-8.79a7.35 7.35 0 0 1 6.17-.88v2.18A5.85 5.85 0 0 0 28 25.4V33h-3z" fill="#ED1F24"/><path d="M20.07 22.27a14.8 14.8 0 0 1 3.52-4.55c1.93-1.63 4.42-2.64 7.41-1.83.87.33 2.16 1.4 3.2 3.24.83 1.48 1.48 3.45 1.6 5.87l.59 1.6c.16-3.27-.61-5.88-1.68-7.77-1.08-1.92-2.47-3.12-3.51-3.5l-.02-.01c-3.24-.9-5.94.21-7.97 1.93a15.47 15.47 0 0 0-3.82 5.05 6.52 6.52 0 0 1 .68-.03z" fill="url(#acpbdoy1y)"/><path d="M19.5 22.3a15.26 15.26 0 0 1 4.43-4.15c2.2-1.29 4.82-1.87 7.59-.54.97.45 2.95 2.27 3.83 6.19l.97 2.62h.01c-.42-5.94-3.14-8.7-4.56-9.35-3-1.44-5.83-.8-8.14.56a15.92 15.92 0 0 0-4.94 4.79c.25-.06.52-.1.8-.12z" fill="url(#bcpbdoy1y)"/><path d="M21.88 22.6a16.12 16.12 0 0 1 4.58-4.55c2.35-1.48 5.2-2.11 8.29-.5.99.67 2.76 2.81 2.8 6.38l.46-1.28h.05c-.39-3.04-1.98-4.93-3-5.62l-.02-.01c-3.32-1.74-6.41-1.04-8.9.52a16.78 16.78 0 0 0-4.85 4.87c.2.05.4.11.6.19z" fill="url(#ccpbdoy1y)"/><path d="M25.26 38.13a30.83 30.83 0 0 1-4.46-4.5c.23 0 .48-.03.75-.06a29 29 0 0 0 4.08 4.1c1.08.88 2.2 1.67 3.26 2.2 1.06.55 2.02.82 2.79.73.57-.1 2.44-2.82 3.42-4.85l.4-.41c-.4 4.42-2.9 5.72-3.73 5.86h-.02a5.69 5.69 0 0 1-3.13-.78 19.45 19.45 0 0 1-3.36-2.29z" fill="url(#dcpbdoy1y)"/><path d="M24.92 39.54a41.4 41.4 0 0 1-3.97-5.91l.65-.06c.87 1.55 2.4 3.95 3.78 5.58.78.92 1.6 1.74 2.4 2.32.8.59 1.57.92 2.27.93.79-.1 3.1-2.26 4.43-6.37h.66c-1.65 5.19-3.97 6.84-5.04 6.97h-.03c-.88 0-1.78-.41-2.64-1.03a14.7 14.7 0 0 1-2.5-2.43z" fill="url(#ecpbdoy1y)"/><path d="M23.38 38.64a36.14 36.14 0 0 1-4.31-5.06c.25.04.51.06.78.07 1 1.36 2.4 3.08 3.95 4.55.94.9 1.93 1.7 2.9 2.28.96.58 1.89.92 2.71.92.85-.03 5.03-3.32 6.25-8.61h.65c-1.18 5.85-5.76 9.17-6.88 9.21h-.01a6.1 6.1 0 0 1-3.03-1 17.47 17.47 0 0 1-3-2.36z" fill="url(#fcpbdoy1y)"/><defs><linearGradient id="acpbdoy1y" x1="18.26" y1="21.04" x2="36.69" y2="24.45" gradientUnits="userSpaceOnUse"><stop stop-color="#DB222D"/><stop offset=".68" stop-color="#30318D"/></linearGradient><linearGradient id="bcpbdoy1y" x1="20.04" y1="20.96" x2="33.76" y2="24.39" gradientUnits="userSpaceOnUse"><stop stop-color="#008762"/><stop offset="1" stop-color="#0484C6"/></linearGradient><linearGradient id="ccpbdoy1y" x1="20.38" y1="23.41" x2="35.91" y2="21.17" gradientUnits="userSpaceOnUse"><stop stop-color="#E36E27"/><stop offset=".86" stop-color="#04AC4D"/></linearGradient><linearGradient id="dcpbdoy1y" x1="21.08" y1="34.03" x2="33.74" y2="40.44" gradientUnits="userSpaceOnUse"><stop stop-color="#CF242A"/><stop offset="1" stop-color="#4F3088"/></linearGradient><linearGradient id="ecpbdoy1y" x1="22.07" y1="33.06" x2="28.34" y2="42.64" gradientUnits="userSpaceOnUse"><stop stop-color="#CA742B"/><stop offset="1" stop-color="#0AA34C"/></linearGradient><linearGradient id="fcpbdoy1y" x1="20.13" y1="35.52" x2="33.55" y2="38.69" gradientUnits="userSpaceOnUse"><stop stop-color="#0484C6"/><stop offset="1" stop-color="#008762"/></linearGradient></defs></svg>