<!-- by TradingView --><svg xmlns="http://www.w3.org/2000/svg" width="56" height="56" viewBox="0 0 56 56"><path fill="#F0F3FA" d="M0 0h56v56H0z"/><path d="M50 31.49v1.09c0 .23-.19.42-.42.42h-8.61A2.96 2.96 0 0 1 38 30.06v-4.12A2.96 2.96 0 0 1 40.97 23h8.6c.24 0 .43.19.43.42v1.17c0 .23-.19.41-.42.41h-7.13c-.82 0-1.45.69-1.45 1.5v3c0 .81.63 1.5 1.45 1.5h7.13c.23 0 .42.26.42.49zM6.66 23H4.44c-.34 0-.55.35-.38.63l5.29 8.36c.4.63 1.11 1.01 1.88 1.01h.65c.78 0 1.5-.4 1.9-1.03l5.16-8.34c.17-.28-.04-.63-.38-.63h-2.04a.22.22 0 0 0-.2.1l-4.66 7.58a.23.23 0 0 1-.38 0L6.85 23.1a.22.22 0 0 0-.2-.11zM19 32.37v-6.43A2.96 2.96 0 0 1 21.98 23h12.04A2.96 2.96 0 0 1 37 25.94v6.43c0 .35-.29.63-.64.63h-1.7c-.35 0-.66-.28-.66-.63v-5.46c0-.93-.28-1.91-1.22-1.91h-3.13c-.12 0-.15.07-.15.19v7.18c0 .35-.35.63-.7.63h-1.69a.61.61 0 0 1-.61-.63v-7.18c0-.12-.12-.19-.24-.19h-2.84c-.94 0-1.42.98-1.42 1.91v5.46c0 .35-.3.63-.66.63h-1.7a.63.63 0 0 1-.64-.63z" fill="#169348"/></svg>