<!-- by TradingView --><svg width="56" height="56" viewBox="0 0 56 56" xmlns="http://www.w3.org/2000/svg"><path fill="#F0F3FA" d="M0 0h56v56H0z"/><path d="M12.49 15h-.2c-.54.18-.2.96-.02 1.37l.03.08c3.22 7.56 6.74 14.99 10.56 22.28 1.07 2.05 2.42 4.34 4.3 5.91.53.44 1.04.48 1.56.1 1.78-1.26 3.22-3.75 4.35-5.91 3.9-7.47 7.5-15.09 10.79-22.84.15-.36.3-.87-.21-.99h-.13c-.29.1-.55.26-.8.42-.28.18-.57.35-.89.43-1.53.4-2.38 1.34-3.28 2.59l-6.77 9.4a45.47 45.47 0 0 1-3.2 3.96 4.1 4.1 0 0 1-.51.49c-.05.03-.1.03-.14 0-.18-.15-.35-.3-.5-.47a51.87 51.87 0 0 1-3.71-4.63c-3.35-4.7-5.66-7.91-6.94-9.62a4.66 4.66 0 0 0-2.62-1.71c-.32-.09-.6-.26-.88-.44-.25-.16-.5-.32-.8-.42Zm25.96 4.17c.84-1.24 1.85-2.67 3.43-3.03.39-.1.74-.34 1.08-.57.16-.12.32-.23.47-.32a.2.2 0 0 1 .26.04.2.2 0 0 1 .01.25l-.4.5a5.3 5.3 0 0 0-.6.74 74.4 74.4 0 0 0-2.28 4.08l-6.05 11.69a75.25 75.25 0 0 1-4.91 8.2l-.06.08c-.23.34-.91 1.34-1.36 1.5a.18.18 0 0 1-.16-.02c-.58-.42-1.11-1.22-1.57-1.9-.04-.08-.09-.14-.13-.2a85.86 85.86 0 0 1-5.03-8.58c-2.5-4.9-4.63-9-6.36-12.27-.4-.73-.88-1.58-1.47-2.53-.14-.23-.32-.44-.5-.66-.2-.23-.4-.46-.55-.7a.17.17 0 0 1 .03-.22.18.18 0 0 1 .22-.02l.4.27c.43.27.83.54 1.34.68 1.62.44 2.73 2.12 3.65 3.52l.1.16c2.28 3.44 4.64 6.82 7.1 10.14l.07.1c.69.92 1.68 2.26 2.66 2.81.04.03.1.04.15.03.59-.1 1.31-.99 1.73-1.5l.02-.02c2.69-3.27 5.06-6.81 7.42-10.32l1.3-1.93Zm-11.37 15.8-.02-.01A19.94 19.94 0 0 1 25 32.47c-1.7-2.6-4.13-6.5-7.29-11.7a31.04 31.04 0 0 0-2.52-3.63 1.39 1.39 0 0 0-.43-.4c-.22-.1-.27-.04-.17.17 3.01 5.6 6.14 11.12 9.38 16.55 1 1.67 1.9 3 3.07 4.38.25.3.5.54.76.7a.42.42 0 0 0 .5-.05 21.58 21.58 0 0 0 3.5-4.67 397.54 397.54 0 0 0 9.65-17.03.1.1 0 0 0-.03-.14.11.11 0 0 0-.14.02c-.73.73-1.38 1.57-1.96 2.49-2.36 3.75-4.7 7.5-7.05 11.27a23.42 23.42 0 0 1-3.81 4.95c-.53.5-1.03-.03-1.38-.4Z" fill="#3D3D3D"/></svg>