<!-- by TradingView --><svg width="56" height="56" viewBox="0 0 56 56" xmlns="http://www.w3.org/2000/svg"><path fill="#F0F3FA" d="M0 0h56v56H0z"/><path d="M37 29c-1.61 2-5.46 7.2-8 12 1.54-.74 8.2-3.68 8-12Zm-17.5 2.11c0 2.46.98 7.62 1.5 9.89a8.26 8.26 0 0 1-5-7.69c0-4.57 4.13-9.96 6.19-12.08L30.36 12 36 22.98a12.7 12.7 0 0 1-1.88 1.54c-.33-1.64-3.42-7.25-4.42-9-9.72 9.88-10.2 12.52-10.2 15.6Z" fill="#009B62"/><path d="M46.47 21c1.8 0 3.1.38 3.53.49-.64-.53-3.53-1.49-5.56-1.49-10.9 0-17.77 16.2-18.63 18C24.48 33.54 24 30.17 24 27.93c0-1.78.31-3.36.42-3.93-1.14 1.06-3.42 3.72-3.42 6.95 0 4.04 2.57 13.07 3.63 16.05 12.4-24.87 19.6-26 21.84-26Z" fill="#58C300"/></svg>