<!-- by TradingView --><svg width="56" height="56" viewBox="0 0 56 56" xmlns="http://www.w3.org/2000/svg"><path fill="#F0F3FA" d="M0 0h56v56H0z"/><path d="M19 16v17.97L28.24 16h1.17L19.16 36H18V16h1ZM32.47 26l-.33 1H28l-.74 3h4.05l-.3 1h-4.05l-1.03 4h5.38l-.25 1h-6.62l2.57-10h5.46ZM38.09 26c2.07 0 3.06.9 3.06 2.56 0 1.24-.74 2.23-2.15 2.65L40 36h-1.33l-.91-4.55h-2.73L33.87 36h-1.32l2.56-10h2.98Zm-2.73 4.46h1.9c1.74 0 2.57-.58 2.57-1.9 0-.99-.66-1.56-1.82-1.56h-1.82l-.83 3.46ZM50 26l-.33 1h-2.9l-2.23 9h-1.32l2.31-9h-2.97l.33-1h7.1ZM12.3 33.17C9.35 33.17 7.11 35 6 36h10v-1.42a5.52 5.52 0 0 0-3.7-1.41ZM16 25.08V16L6 34.58l10-9.5Z" fill="#003D71"/><path d="M12.3 32.08c1.51 0 2.78.5 3.7 1.09v-6.5l-6.13 5.75c.75-.25 1.6-.34 2.43-.34Z" fill="#89C65A"/></svg>