<!-- by TradingView --><svg width="56" height="56" viewBox="0 0 56 56" xmlns="http://www.w3.org/2000/svg"><path fill="#F0F3FA" d="M0 0h56v56H0z"/><path d="M39.24 21c-1.94.76-4.1 2-5.65 3.5 3.6-2 8.22-3 10.27-4 1.65-.8 3.43-2.67 4.11-3.5-3.6 2-6.16 3-8.73 4ZM34.1 23c-2.46-.4-3.76-1.83-4.1-2.5 0 1.5 1.54 3 2.57 3 .82 0 1.37-.33 1.54-.5ZM32.57 24.5c-1.23 0-2.23-1.33-2.57-2 .17.83.72 2.5 1.54 2.5.82 0 1.03-.33 1.03-.5Z" fill="#8EC045"/><path d="M30.51 20v-1.5c.41 1.6 3.6 3 5.14 3.5l-.51.5c-2.88-.4-4.63-1.5-4.63-2.5Z" fill="#21AAE2"/><path d="M48.49 24c-1.65 1.6-8.22 2-11.3 2 .86.33 3.39 1 6.68 1 3.28 0 4.45-2 4.62-3Z" fill="#64318A"/><path d="M34.94 24.83c1.32-.72 3.82-1.96 5.33-2.33C42.32 22 46.95 21 49 18a5.76 5.76 0 0 1-4.1 4.5c-3.46.96-7.38 1-9.96 2.33Z" fill="#1575BB"/><path d="M49 21c-3.7 2.4-10.1 4-12.84 4.5 1.89 0 6.27-.2 8.73-1A6.87 6.87 0 0 0 49 21Z" fill="#1575BB"/><path d="M8 25H7l1 8h1l1-8H9l-.5 6-.5-6ZM13 25h-1v1h1v-1ZM13 27h-1v5c0 .8.67 1 1 1v-6ZM15 33v-6h2c.8 0 1 .67 1 1v5h-1v-5h-1v5h-1ZM21.5 27c-1.2 0-1.5.67-1.5 1v4c0 .33.3 1 1.5 1s1.5-.67 1.5-1v-1h-1v1h-1v-4h1v1h1v-1c0-.33-.3-1-1.5-1ZM25 28c0-.33.3-1 1.5-1s1.5.67 1.5 1v2h-2v2h1v-1h1v1c0 .33-.3 1-1.5 1s-1.5-.67-1.5-1v-4Zm1 1h1v-1h-1v1ZM31 33h-1v-5c0-.8.67-1 1-1h1v1h-1v5ZM35 27h-1l1 3-1 3h1l.5-2 .5 2h1l-1-3 1-3h-1l-.5 2-.5-2Z" fill="#231F20"/></svg>