<!-- by TradingView --><svg width="56" height="56" viewBox="0 0 56 56" xmlns="http://www.w3.org/2000/svg"><path fill="#F0F3FA" d="M0 0h56v56H0z"/><path d="M7 22H4l4.5 12h3L7 22Z" fill="#BABCBE"/><path d="M13 22h3l-4.5 12h-3L13 22Z" fill="#00AEEE"/><path d="M11.5 34 10 30l-1.48 3.94 2.98.06Z" fill="#1082B6"/><path fill="#BABCBE" d="M17 22h3v12h-3z"/><path fill="#00AEEE" d="M48 22h3v12h-3zM22 22h3v12h-3zM31 22h3v12h-3z"/><path d="M25 22h-3l9 12h3l-9-12Z" fill="#BABCBE"/><path d="M31 34v-4l3 4h-3ZM25 22h-3l3 4v-4Z" fill="#1082B6"/><path d="M44.03 30.21A2.99 2.99 0 0 1 39 28a3 3 0 0 1 5.12-2.12l2.12-2.12a6 6 0 1 0-.19 8.67l-2.02-2.22Z" fill="#BABCBE"/></svg>