<!-- by TradingView --><svg width="56" height="56" viewBox="0 0 56 56" xmlns="http://www.w3.org/2000/svg"><path fill="#F0F3FA" d="M0 0h56v56H0z"/><path d="M11 16h9.53L32 35h-9.53L11 16Z" fill="#072E67"/><path d="M33.47 35 22 16h23L33.47 35Z" fill="#537DB9"/><path d="M14.86 37H13l2 5h2l2-5h-1.86L16 39.84 14.86 37ZM20 37h2v5h-2zM27.54 37c.8 0 1.46.66 1.46 1.5a1.5 1.5 0 0 1-1.13 1.46L29 42h-2.17l-1.11-2H25v2h-2v-5h4.54ZM25 39h1.37c.35 0 .63-.22.63-.5s-.28-.5-.63-.5H25v1Z" fill="#072E67"/><path fill-rule="evenodd" d="M40 42c1.66 0 3-1.12 3-2.5S41.66 37 40 37s-3 1.12-3 2.5 1.34 2.5 3 2.5Zm0-1c.55 0 1-.67 1-1.5s-.45-1.5-1-1.5-1 .67-1 1.5.45 1.5 1 1.5Z" fill="#072E67"/><path d="M36 40c-.29 1.14-1.5 2-2.97 2-1.67 0-3.03-1.12-3.03-2.5s1.36-2.5 3.03-2.5c1.46 0 2.68.86 2.96 2h-2.05c-.13-.58-.5-1-.94-1-.55 0-1 .67-1 1.5s.45 1.5 1 1.5c.44 0 .8-.42.94-1H36Z" fill="#072E67"/></svg>