<!-- by TradingView --><svg width="56" height="56" xmlns="http://www.w3.org/2000/svg"><path fill="#00306E" d="M0 0h56v56H0z"/><path d="M38.206 13c-.329 0-.652.083-.938.238-.287.156-.527.38-.699.651L21.133 37.71a.84.84 0 000 .906l3.794 5.928a.954.954 0 00.352.334.996.996 0 00.956.003.955.955 0 00.355-.332L47 13h-8.794z" fill="#0C9"/><path d="M19.004 22.023L11.8 22a.822.822 0 00-.797.86c.007.146.05.287.13.41L14.64 29l4.364-6.977z" fill="#0E7A77"/><path d="M20.379 37.439L33.582 17h-9.174c-.329 0-.666.087-.953.243a1.9 1.9 0 00-.7.652l-7.212 11.116a.845.845 0 000 .91l4.836 7.518z" fill="#099D91"/></svg>