<!-- by TradingView --><svg xmlns="http://www.w3.org/2000/svg" width="56" height="56" viewBox="0 0 56 56"><path fill="#F0F3FA" d="M0 0h56v56H0z"/><path d="M29.79 36.92c.1 0 .2.02.22.11a.33.33 0 0 1-.04.32c-.16.22-.4.23-.64.29a.1.1 0 0 1-.06-.02c-.08-.07-.03-.53.06-.56.16-.06.32-.1.46-.14zM25.83 38.54c.16.2.22.42.33.62.04.06.01.1-.06.1l-.04.01c-.16.02-.35.16-.45.07-.1-.08.06-.27.08-.42a.86.86 0 0 1 .14-.38zM36.63 28.06c0-.05 0-.1.02-.14.25-.4.32-.86.45-1.3.17-.52.37-1.05.5-1.6.06-.36.2-.7.38-1.02.12-.19.06-.44.17-.64.12-.21.15-.46.31-.65a.19.19 0 0 0 .04-.1c.05-.66.45-1.17.7-1.74v-.02c.03-.36.33-.6.44-.93a.73.73 0 0 1 .12-.21c.04-.05.06-.15.17-.1a.16.16 0 0 1 .08.21c-.09.42-.16.83-.29 1.24-.21.67-.37 1.35-.6 2-.13.45-.35.86-.52 1.28-.14.37-.26.75-.43 1.1-.15.32-.26.66-.48.93-.16.2-.22.46-.33.68a4.1 4.1 0 0 1-.73 1.01z" fill="#DB2E27"/><path d="M19.48 23.87c.3-.22.6-.16.87-.18.3-.02.56-.19.86-.14.08 0 .08-.08.09-.14.02-.27.1-.54.09-.82a.8.8 0 0 1 .19-.48c.16-.24.31-.5.54-.69.16-.12.2-.34.38-.46.3-.19.62-.35.95-.46.12-.05.17 0 .17.1.02.16.02.32 0 .47-.07.55-.12 1.1-.24 1.65v.04c-.05.31-.03.32.26.25.85-.22 1.72-.42 2.6-.55.22-.02.44-.1.62-.23.17-.13.4-.08.6-.1.48-.07.5-.13.62-.49.23-.64.43-1.3.59-1.96.11-.53.38-1.01.48-1.55l.06-.2c.06-.9.68-1.3 1.44-1.56.26-.08.51-.17.76-.28.12-.06.17-.02.15.1a.9.9 0 0 1-.12.41c-.15.23-.23.5-.23.77 0 .06 0 .12-.02.18-.37.72-.54 1.52-.85 2.27-.21.49-.32 1.02-.48 1.54-.02.1.01.13.1.12.06 0 .1 0 .16-.02.33-.12.67-.2 1.02-.24.38-.07.76-.16 1.13-.28.68-.21 1.36-.45 2.08-.54.47-.07.93-.24 1.4-.39.3-.1.65-.12.96-.24.26-.1.43.03.42.3a.75.75 0 0 1-.37.67c-.3.17-.54.42-.87.55a3.3 3.3 0 0 1-.52.2c-.22.04-.39.22-.64.26-.57.07-1.1.35-1.66.45-.57.1-1.1.43-1.7.35a.1.1 0 0 0-.05 0c-.58.27-1.23.2-1.82.43a.47.47 0 0 0-.28.25c-.18.35-.25.73-.4 1.1-.2.5-.33 1.03-.5 1.56-.03.13-.1.24-.14.37-.25.77-.56 1.5-.74 2.3-.12.53-.38 1.04-.48 1.59-.15.79-.43 1.56-.33 2.4a.66.66 0 0 0 .8.6c.06-.01.13-.04.17-.09.19-.26.43-.46.61-.72.45-.64.45-1.39.53-2.1.08-.58.22-1.14.43-1.67.13-.41.31-.81.53-1.19.19-.29.34-.6.47-.92.1-.22.3-.38.44-.58.32-.47.69-.9 1.1-1.29a1.87 1.87 0 0 1 2.6.03c.48.45.42 1 .41 1.55 0 .33-.1.66-.27.95-.21.35-.5.43-.9.28-.44-.17-.63-.54-.78-.95a.3.3 0 0 1 .15-.34.2.2 0 0 1 .16-.06.2.2 0 0 1 .14.09c.1.11.53.1.67.01a.2.2 0 0 0 .07-.08c.18-.41-.2-1.06-.66-1.1-.04 0-.08-.02-.11 0-.2.12-.45.22-.56.4-.18.3-.48.5-.65.82-.22.43-.5.83-.68 1.29-.02.06-.03.14-.08.18-.23.15-.22.41-.33.62-.26.47-.33 1-.58 1.48a.38.38 0 0 0-.04.24c.02.06.02.12 0 .18-.16.3-.11.63-.2.94a.7.7 0 0 0 0 .28c.02.25.12.49.1.74a.26.26 0 0 0 .32.25c.05-.01.1-.04.13-.08.4-.34.67-.77.96-1.2.26-.37.46-.78.6-1.22.2-.57.48-1.1.67-1.66a.48.48 0 0 1 .4-.32c.2-.02.4-.05.6-.05a.35.35 0 0 1 .33.32c0 .05 0 .1-.02.16-.26.59-.33 1.23-.54 1.84-.15.44-.1.92-.05 1.38.01.2.16.22.34.17.6-.17.82-.68 1.05-1.17a.7.7 0 0 1 .13-.21.43.43 0 0 0 .12-.14c.2-.54.5-1.04.5-1.66.01-.45.08-.9.2-1.33.1-.44.13-.88.24-1.31.11-.48.18-.98.35-1.45.17-.44.35-.88.4-1.36.03-.22.23-.36.26-.6.06-.62.37-1.16.65-1.7.14-.26.2-.53.3-.79.18-.43.5-.78.74-1.19.08-.12.15-.26.18-.4.03-.18.2-.25.3-.36.26-.32.26-.31.6-.08.15.11.26.26.34.43.16.27.27.56.34.87.04.3.04.6 0 .89-.1.7-.32 1.36-.46 2.04a5.81 5.81 0 0 1-.58 1.59c-.16.32-.3.66-.39 1-.07.23-.17.45-.3.65-.34.47-.48 1.04-.79 1.52-.2.3-.3.65-.5.95l-.53.78a6.3 6.3 0 0 0-.4.82.76.76 0 0 0-.04.34c0 .27.15.5.3.72.15.23.41.2.65.13.2-.08.39-.22.52-.39l.3-.33c.41-.43.73-.94.95-1.49.14-.4.34-.79.42-1.21l.06-.15a.3.3 0 0 1 .31-.17.25.25 0 0 1 .21.26c.04.43.05.87-.1 1.27-.15.41-.33.8-.56 1.18-.12.2-.27.36-.44.5-.19.14-.28.39-.46.53-.5.41-1.05.78-1.74.74-.4-.02-.78-.2-.94-.64a2.8 2.8 0 0 0-.17-.32c-.23.31-.45.64-.64.99-.3.57-.78.84-1.38.98-.43.1-.8-.03-1.15-.24-.18-.12-.21-.32-.3-.5a4.1 4.1 0 0 1-.14-.4.35.35 0 0 0-.17.2c-.11.33-.34.58-.55.83-.3.38-.7.67-1.14.86-.36.13-1.05-.11-1.29-.43l-.21-.32c-.26.44-.55.88-.98 1.13-.59.33-1.23.46-1.86.05-.24-.16-.35-.44-.47-.7-.03-.06-.03-.17-.11-.17s-.12.09-.15.15a3.13 3.13 0 0 1-1.47 1.65c-.37.18-.78.25-1.19.2-.37-.05-.73-.45-.77-.82-.03-.25-.1-.49-.12-.74-.04-.62.04-1.24.22-1.83a8.78 8.78 0 0 0 .34-1.4c.28-.36.21-.86.44-1.23.27-.45.37-.96.59-1.42a.86.86 0 0 1 .1-.17c.15-.17.25-.18.4 0 .22.25.35.56.37.89 0 .3.03.62-.14.92a.92.92 0 0 0-.12.59.34.34 0 0 1-.08.27c-.1.14-.17.3-.18.47a8.7 8.7 0 0 1-.5 1.53c-.18.4-.25.85-.2 1.3.02.1.01.2-.01.3a.47.47 0 0 0 .2.57c.18.12.33.03.46-.07a2 2 0 0 0 .67-.69c.4-.77.77-1.54.97-2.4.11-.44.28-.88.37-1.34.14-.7.42-1.37.64-2.06.21-.68.38-1.35.57-2.03.16-.57.3-1.14.5-1.7.04-.1.1-.26.03-.31a.37.37 0 0 0-.38 0c-.24.12-.53 0-.78.1-.65.26-1.35.17-2.02.28-.3.07-.6.1-.9.13-.12 0-.15.06-.17.17-.1.38-.2.77-.28 1.15-.09.45-.32.87-.26 1.34 0 .03 0 .07-.02.1-.3.36-.36.8-.45 1.22-.16.74-.5 1.42-.73 2.14a4.6 4.6 0 0 1-.5 1.1c-.12.18-.2.38-.26.6-.05.23-.12.46-.33.62a.53.53 0 0 0-.13.18l-.76 1.36a.44.44 0 0 1-.16.15.9.9 0 0 0-.24.26c-.21.29-.45.55-.72.8-.06.05-.14.09-.18.16a.53.53 0 0 1-.4.3.21.21 0 0 0-.13.05c-.3.36-.72.34-1.11.37-.26.02-.53.07-.79-.02a.48.48 0 0 1-.33-.22.18.18 0 0 0-.05-.07c-.47-.28-.48-.78-.58-1.24-.06-.27-.1-.56-.14-.84a.4.4 0 0 1-.01-.2c.18-.42.15-.85.18-1.3.03-.13.08-.27.15-.39.15-.36.12-.76.25-1.13l.24-.6c.14-.45.16-.94.4-1.34.22-.4.17-.88.42-1.27.08-.12.04-.28.08-.42l.48-1.77c.07-.25.14-.51.07-.78-.03-.15.08-.29.1-.43.04-.33-.07-.63-.13-.94-.06-.24-.46-.3-.7-.1-.24.2-.53.36-.75.57-.21.2-.48.44-.63.75-.1.2-.22.37-.36.54-.2.2-.36.44-.46.71-.13.4-.39.76-.49 1.18a3.3 3.3 0 0 0 .01 1.81c.1.28.34.43.58.59.07.04.18.06.15.19-.02.13-.08.25-.22.28-.28.08-.58.11-.87.08a1.13 1.13 0 0 1-.86-.7c-.2-.43-.25-.91-.15-1.38.1-.51.3-.97.45-1.46.06-.2.2-.34.3-.5.26-.5.63-.93.88-1.44a1 1 0 0 1 .24-.3c.43-.38.77-.85 1.23-1.2.43-.35.96-.57 1.51-.65.18-.02.35-.1.53-.1.42-.03.85.33 1.04.7.2.36.14.75.2 1.13.1.62-.08 1.21-.16 1.8-.06.49-.27.94-.39 1.42-.1.4-.22.8-.36 1.18-.15.38-.19.8-.32 1.17-.12.37-.18.79-.36 1.15a.67.67 0 0 0-.07.35c.02.26-.19.43-.23.68-.04.27-.14.56-.17.82-.05.53-.14 1.07-.07 1.62l.04.36c.02.46.51.73.94.62.39-.1.49-.45.73-.67.36-.32.6-.74.7-1.21.05-.18.21-.28.28-.44.24-.57.5-1.12.64-1.73.04-.12.08-.24.14-.35a3 3 0 0 0 .33-1.03c.02-.12.06-.25.11-.36.3-.71.41-1.47.51-2.23 0-.08.03-.16.08-.23a.34.34 0 0 0 .06-.15c0-.53.22-1.05.14-1.6a3 3 0 0 1 .05-.67c.01-.12 0-.2-.15-.15a.49.49 0 0 1-.37-.04.3.3 0 0 0-.25-.03c-.31.14-.56-.1-.91-.13zm17.15 4.2c.29-.3.54-.65.73-1.02.12-.22.17-.48.33-.68.22-.27.33-.61.48-.92.17-.36.3-.74.43-1.11.17-.43.39-.83.53-1.27.22-.66.38-1.34.6-2 .12-.42.2-.83.28-1.25a.16.16 0 0 0-.08-.2c-.1-.06-.13.04-.17.09a.73.73 0 0 0-.12.21c-.11.33-.41.56-.43.93l-.01.02c-.25.57-.65 1.08-.7 1.73 0 .04-.02.08-.04.1-.16.2-.2.45-.3.66-.12.2-.05.45-.18.64-.19.32-.32.66-.39 1.02-.12.55-.32 1.08-.49 1.6-.13.44-.2.9-.45 1.3a.42.42 0 0 0-.02.14zM34.45 36.63c-.26.26-.5.54-.73.83-.14.17-.25.18-.4.03-.16-.15-.33-.27-.5-.4-.03-.03-.06-.08-.11-.05a.14.14 0 0 0-.04.1v1.28c0 .28-.03.36-.3.43-.6.16-.62.16-.62-.45l.01-2.5c0-.19.1-.27.26-.34.37-.16.65-.1.9.24.14.2.36.37.53.55.09.09.14.09.21-.01.23-.33.49-.63.7-.97.2-.34.49-.49.86-.5.16 0 .18.08.18.2l.01 1.67a65 65 0 0 0 0 1.31.27.27 0 0 1-.26.2l-.45.08c-.17.03-.22-.05-.21-.22l.01-1.19c0-.1-.02-.2-.05-.3zM28.31 38.28v-1.42a.27.27 0 0 1 .24-.3c.48-.12.95-.29 1.44-.37.34-.06.64.02.84.3a.88.88 0 0 1 .04.95c-.1.2-.26.37-.46.48-.15.09-.15.2-.05.32.12.14.22.3.45.28.1 0 .12.06.12.15v.3c0 .34-.17.48-.51.45-.4-.03-.63-.3-.83-.6a1.82 1.82 0 0 1-.1-.2.13.13 0 0 0-.17-.07c-.09.02-.09.09-.09.16v.83a.21.21 0 0 1-.1.21c-.21.11-.45.17-.69.17-.14 0-.12-.12-.12-.22v-1.42zm1.48-1.36c-.14.04-.3.08-.46.14-.1.04-.14.5-.06.56a.1.1 0 0 0 .06.02c.23-.05.49-.07.64-.28a.33.33 0 0 0 .04-.32c-.03-.1-.12-.12-.22-.12zM24.3 40.8c-.17 0-.14-.12-.1-.22l.39-.99.82-2.14a.34.34 0 0 1 .32-.27 1.49 1.49 0 0 0 .4-.06.2.2 0 0 1 .2.15l.83 1.6.53 1.01c.09.15.05.22-.1.26l-.64.17a.22.22 0 0 1-.28-.14c-.07-.15-.12-.35-.25-.41-.12-.06-.29.1-.44.1-.46 0-.75.18-.8.67a.2.2 0 0 1-.17.17l-.7.1zm1.53-2.26a.86.86 0 0 0-.14.38c-.02.15-.2.32-.08.42.11.1.3-.05.45-.07h.04c.07-.01.1-.05.06-.11-.11-.2-.17-.43-.33-.62zM36.94 37.93l-.56-.01c-.17-.01-.25-.07-.2-.26l.1-.5c.04-.17.15-.17.28-.12.17.05.33.12.5.07a.3.3 0 0 0 .24-.15c.05-.11-.03-.18-.1-.26-.17-.23-.43-.36-.65-.54a.95.95 0 0 1 0-1.46c.35-.3.76-.35 1.2-.34l.07.01c.55.07.56.08.43.62-.03.14-.09.2-.24.16a1.35 1.35 0 0 0-.35-.07c-.16 0-.32.03-.39.18-.06.16.02.31.15.42.21.2.47.32.66.54.13.13.22.29.28.46a.79.79 0 0 1-.35.96c-.32.19-.69.29-1.07.29zM21.77 40.36v-2.35c0-.3.02-.33.33-.35l1.6-.1c.3-.02.34.02.32.32-.01.36-.03.37-.38.4l-.74.06c-.15.01-.22.07-.21.23 0 .16.1.2.24.19l.45-.03c.06 0 .14-.02.17.03.07.18.08.37.04.55-.01.12-.14.17-.26.17l-.18.01c-.46.03-.46.03-.46.5a23 23 0 0 0 .01.86.22.22 0 0 1-.23.16c-.16.02-.33.01-.5.02-.12 0-.18-.05-.18-.17v-.5h-.02zM38.73 39.35c-2.91-.04-5.7.58-8.44 1.45.27-.19.56-.34.85-.46.94-.43 1.93-.7 2.91-1 .83-.23 1.66-.4 2.51-.53.5-.08 1-.09 1.5-.04.34.02.7.22.67.58zM28.36 35.3c-.22.2-.51.22-.77.3-.6.2-1.22.4-1.85.55-.63.14-1.24.3-1.86.4-.75.15-1.5.21-2.26.18-.35-.01-.67-.1-.89-.5a68.5 68.5 0 0 0 7.63-.93z" fill="#fff"/><path d="M25.14 25.67c.01.22-.04.45-.15.64-.25.45-.76.5-1.04.08-.31-.48-.47-1-.17-1.55a.6.6 0 0 1 1.05-.08c.2.26.31.58.31.9z" fill="#fff"/><path d="M44.1 22.91c.03 0 .06 0 .08-.03-.14-.24-.26-.5-.34-.76-.2-.8-.47-1.56-.92-2.26a.83.83 0 0 1-.14-.33 1.48 1.48 0 0 0-.5-.8c-.19-.17-.36-.34-.42-.6a.31.31 0 0 0-.12-.16c-.39-.28-.7-.74-.92-1.16-.09-.16-.18-.33-.38-.38a.46.46 0 0 1-.32-.29c-.18-.36-.51-.61-.84-.82-.18-.12-.22-.31-.38-.44-.12-.1-.28-.1-.41-.17-.31-.17-.59-.4-.82-.66-.34-.33-.74-.6-1.18-.79a1.14 1.14 0 0 1-.4-.25.74.74 0 0 0-.3-.19l-.32-.1c-.21-.08-.42-.15-.62-.26a3.83 3.83 0 0 0-1.26-.5 2.1 2.1 0 0 1-.7-.22.6.6 0 0 0-.46-.11.36.36 0 0 1-.32-.08c-.3-.22-.68-.32-1.05-.29-.42.02-.8-.05-1.2-.13l-.15-.03a3.5 3.5 0 0 0-1.01-.1l-.22.03c-.4.05-.8.1-1.21-.03-.06 0-.12 0-.18.03-.2.08-.43.1-.65.11-.19.01-.38.03-.56.08-.12.03-.23.01-.35-.01a.7.7 0 0 0-.32-.01c-.28.08-.56.14-.84.18-.46.07-.9.22-1.33.36-.4.14-.8.27-1.2.35a1 1 0 0 0-.4.15c-.22.17-.47.29-.71.41l-.55.3c-.2.12-.4.22-.6.32a5.61 5.61 0 0 0-1.29.83c-.24.19-.47.38-.74.53-.27.14-.52.34-.71.57-.2.27-.43.5-.66.73l-.32.33c-.17.2-.38.36-.61.46a.36.36 0 0 0-.19.2c-.08.13-.17.26-.27.38-.07.1-.15.19-.24.28-.2.23-.41.47-.48.8a5.8 5.8 0 0 1-.72 1c-.14.17-.25.38-.37.6-.09.16-.18.33-.28.48-.14.2-.2.44-.28.68-.06.23-.13.47-.27.68-.15.22-.21.48-.27.73-.06.27-.13.54-.3.77-.02.03-.02.08-.02.13v.03l-.02.3c-.03.39-.06.78-.2 1.16-.13.36-.2.75-.17 1.13a.8.8 0 0 1-.06.4c-.14.29-.12.6-.1.89.05.6.03 1.21.04 1.82.01.67.36 1.31.29 1.99-.07.7.38 1.57.57 2.24.2.78.57 1.96 1.15 2.57.29.3.31.85.56 1.2.38.52.92.96 1.19 1.57.22.5.92.58 1.1 1.11.03.08.06.17.17.16a.1.1 0 0 0 .07-.03c.07.07.12.13.17.21.26.43.68.52.96.87.14.18.3.32.56.28a.05.05 0 0 1 .06.03v.02c.02.23.22.3.36.43.39.35.9.49 1.29.82.1.08.19.16.32.2.43.11.83.33 1.15.64.06.06.15.1.24.1.18 0 .34.06.48.18.08.06.18.1.27 0 .1-.1.19-.16.2.07 0 .1.55.28.65.37.05.04.12.07.18.07.25 0 .5.06.73.12.35.08.7.15 1.05.13.27 0 .56.1.8.2.45.16.92.23 1.38.17.2-.03.43 0 .62.05.16.03.32.06.47.04l.74-.07c.5-.05 1-.1 1.5-.2.62-.12 1.24-.25 1.87-.35l.26-.03c.39-.04.7-.18 1.06-.3.2-.08.5-.35.71-.32.37.05.64-.12.85-.4.34-.4 1.12-.53 1.56-.79.43-.26.91-.45 1.23-.86.08-.1.32-.16.43-.21.6-.27.87-.87 1.41-1.2.32-.2.66-.45.8-.85.14-.35.72-.91 1.02-1.1.09-.06.11-.15.14-.24v-.04c.22-.7.9-1.63 1.36-2.18.28-.3.46-.68.53-1.09.07-.37.4-.64.4-1.04 0-.04.04-.1.07-.13.33-.36.3-.88.45-1.31.23-.69.34-1.46.38-2.18.03-.5.28-1.21.06-1.68a3.47 3.47 0 0 0-.17-3.02c-.03-.1-.06-.2-.07-.3-.03-.17-.04-.35-.04-.52-.02-.43-.04-.86-.32-1.24a.51.51 0 0 1-.06-.15c-.06-.17-.39-.25-.17-.28zm-24.26 1.05c-.11-.04-.23-.08-.36-.1.24-.17.47-.17.69-.17h.18c.12-.01.24-.04.35-.08.17-.04.34-.1.52-.07.08.02.08-.07.08-.13 0-.1.03-.21.05-.32.02-.17.05-.33.04-.5a.8.8 0 0 1 .2-.48l.08-.13c.13-.2.27-.4.46-.56.07-.06.11-.13.16-.2.06-.1.11-.2.22-.26.3-.2.61-.35.94-.46.13-.05.17 0 .18.1v.47l-.06.5c-.05.39-.1.77-.18 1.15l-.01.04c-.04.31-.03.32.26.25a26.6 26.6 0 0 1 2.6-.55c.22-.02.43-.1.62-.22.12-.09.26-.1.4-.1h.19c.49-.08.5-.13.63-.48.23-.65.42-1.3.58-1.97.13-.6.4-1.15.54-1.75.06-.9.68-1.3 1.44-1.57.26-.07.51-.16.76-.28.12-.06.17-.02.15.11a.9.9 0 0 1-.12.41c-.2.31-.14.62-.25.94-.61 1.22-.93 2.52-1.32 3.82-.04.17.15.12.25.1.33-.12.67-.2 1.02-.25 1.1-.18 2.1-.66 3.22-.81.75-.1 1.65-.36 2.36-.63.26-.1.42.03.42.3 0 .14-.03.27-.1.39-.13.25-.4.36-.62.52-.47.33-1.1.69-1.68.77-.57.07-1.1.35-1.67.45-.56.1-1.09.43-1.7.35a.1.1 0 0 0-.04 0c-.3.15-.64.2-.97.24-.29.05-.58.09-.85.2a.47.47 0 0 0-.28.24c-.11.21-.18.44-.25.66l-.14.44c-.16.38-.28.78-.4 1.18l-.1.38-.09.21-.06.16-.26.74c-.18.51-.36 1.02-.48 1.55-.06.25-.15.5-.23.73-.1.29-.2.57-.25.87l-.13.6c-.14.59-.28 1.17-.2 1.8a.66.66 0 0 0 .8.6c.06-.01.12-.04.17-.09l.3-.35c.11-.12.22-.24.31-.37.38-.53.43-1.14.5-1.75l.03-.36c.07-.57.22-1.13.43-1.66.13-.41.31-.81.53-1.19.18-.3.34-.6.47-.92.06-.13.15-.24.25-.35l.2-.23c.3-.47.67-.9 1.09-1.29a1.88 1.88 0 0 1 2.59.02c.44.43.43.91.42 1.42v.14c0 .33-.1.66-.27.95-.22.35-.5.43-.9.28-.44-.17-.63-.54-.78-.95a.3.3 0 0 1 .15-.34.2.2 0 0 1 .24-.03.2.2 0 0 1 .06.06c.1.11.53.1.66.01a.2.2 0 0 0 .08-.08c.18-.41-.2-1.06-.66-1.1a.3.3 0 0 1-.04 0c-.03-.01-.05-.01-.07 0l-.18.1c-.15.08-.3.17-.38.3-.08.14-.2.27-.31.39-.13.13-.26.27-.34.43l-.26.47c-.15.26-.3.53-.42.82l-.02.06c-.01.04-.03.1-.06.12-.15.1-.2.25-.25.4-.02.07-.04.15-.08.22-.14.24-.22.5-.3.76-.08.25-.16.49-.28.72a.38.38 0 0 0-.04.24c.02.06.02.12 0 .18-.1.17-.12.36-.14.55-.01.13-.03.26-.07.39a.7.7 0 0 0 0 .28l.05.29c.04.15.07.3.06.45a.26.26 0 0 0 .32.25c.05-.01.1-.04.13-.08a5.65 5.65 0 0 0 .95-1.2c.27-.38.48-.8.63-1.24l.33-.84c.12-.27.24-.54.33-.81a.48.48 0 0 1 .4-.33c.07 0 .14 0 .2-.02l.4-.02a.35.35 0 0 1 .3.48c-.14.34-.23.7-.31 1.05a8.4 8.4 0 0 1-.22.78c-.14.43-.1.89-.06 1.33v.06c.02.19.17.22.35.17.56-.16.77-.6 1-1.05l.02-.05.03-.08a.7.7 0 0 1 .13-.2.44.44 0 0 0 .12-.15c.05-.15.11-.3.18-.44.16-.38.33-.77.32-1.21.01-.46.08-.9.2-1.34l.11-.65.13-.65.1-.45c.06-.34.13-.67.25-1.01l.06-.15a5 5 0 0 0 .34-1.2c.01-.11.07-.2.13-.29.05-.1.11-.19.13-.3.06-.59.33-1.1.6-1.6l.05-.12c.09-.16.14-.32.2-.49l.1-.3c.11-.25.27-.48.43-.7a5.56 5.56 0 0 0 .5-.89c.01-.11.1-.18.17-.25a.79.79 0 0 0 .12-.1c.25-.32.26-.32.58-.1l.02.02c.15.1.26.26.34.43.16.27.27.56.34.87.04.29.04.59 0 .89-.06.42-.17.84-.27 1.25l-.2.79c-.1.55-.3 1.08-.57 1.58a5.9 5.9 0 0 0-.39 1c-.07.24-.17.46-.3.66-.18.25-.3.52-.43.8-.1.25-.21.49-.36.72-.1.14-.16.3-.24.45-.07.17-.15.34-.26.5l-.2.3-.33.48c-.15.26-.29.54-.4.82a.76.76 0 0 0-.04.33c0 .28.15.51.3.72.15.24.4.2.65.13.2-.08.39-.21.52-.38l.18-.2.12-.14c.41-.43.73-.93.95-1.48l.14-.37c.11-.27.22-.55.28-.84.01-.06.03-.1.06-.15a.3.3 0 0 1 .31-.17.25.25 0 0 1 .21.26c.04.43.05.87-.11 1.27-.14.4-.33.8-.55 1.18-.12.19-.27.36-.44.5-.1.07-.17.18-.25.28-.06.09-.13.18-.2.24-.51.42-1.06.78-1.75.75-.4-.02-.78-.2-.94-.64a2.8 2.8 0 0 0-.17-.33c-.23.32-.45.65-.64 1-.3.57-.78.83-1.38.97-.43.1-.8-.02-1.15-.24-.13-.08-.18-.22-.24-.35a4.1 4.1 0 0 1-.2-.53.35.35 0 0 0-.18.2c-.1.3-.3.53-.5.76l-.04.05c-.3.38-.7.68-1.14.86-.37.14-1.05-.1-1.29-.43l-.14-.21-.07-.1c-.26.44-.55.88-.98 1.13-.59.33-1.23.46-1.86.05-.22-.15-.33-.4-.44-.63l-.03-.07a.44.44 0 0 1-.02-.06c-.02-.06-.04-.11-.09-.12-.07 0-.1.07-.14.14l-.01.02a3.13 3.13 0 0 1-1.47 1.65c-.37.17-.78.24-1.19.19-.37-.05-.73-.44-.77-.82a4.72 4.72 0 0 0-.06-.33 5.13 5.13 0 0 1 .16-2.23 8.77 8.77 0 0 0 .34-1.4c.15-.2.2-.43.25-.66.04-.2.09-.4.2-.58.15-.25.25-.53.34-.81.07-.2.14-.4.24-.6a.86.86 0 0 1 .1-.17c.15-.18.25-.18.4 0 .22.24.35.55.37.88v.07c.01.3.02.58-.14.85a.92.92 0 0 0-.12.59.34.34 0 0 1-.08.28c-.1.13-.17.3-.18.47a8.68 8.68 0 0 1-.5 1.53c-.18.4-.25.85-.2 1.3.02.1.01.2-.02.3a.47.47 0 0 0 .21.57c.17.12.33.03.46-.06a2 2 0 0 0 .67-.7c.39-.77.77-1.54.97-2.39.05-.2.1-.4.17-.6.07-.25.15-.5.2-.74.1-.49.25-.95.41-1.41.08-.22.16-.44.22-.65.14-.42.25-.85.37-1.27l.2-.77.14-.46c.11-.41.23-.83.37-1.23v-.02c.05-.1.1-.25.03-.3a.36.36 0 0 0-.38 0 .82.82 0 0 1-.42.06c-.12 0-.24 0-.36.04-.41.17-.85.2-1.28.22-.25.01-.5.02-.74.06-.3.07-.6.11-.9.13-.12 0-.15.06-.18.17l-.1.44-.17.71c-.03.15-.07.29-.12.43-.09.3-.18.59-.15.9.01.05 0 .08-.02.12-.26.3-.34.7-.41 1.08l-.03.13c-.1.44-.25.85-.42 1.27-.1.29-.22.57-.3.87a4.6 4.6 0 0 1-.5 1.11c-.13.18-.21.39-.27.6-.05.23-.11.47-.33.62a.53.53 0 0 0-.12.18c-.1.16-.18.33-.27.49l-.5.87a.44.44 0 0 1-.15.15.9.9 0 0 0-.25.26 5.26 5.26 0 0 1-.9.96.53.53 0 0 1-.4.3.21.21 0 0 0-.12.05c-.26.31-.62.34-.97.36l-.15.01-.12.01c-.22.02-.44.05-.67-.02a.49.49 0 0 1-.33-.22.18.18 0 0 0-.06-.08c-.4-.23-.46-.62-.54-1a10.38 10.38 0 0 1-.15-.87v-.01l-.03-.2a.4.4 0 0 1 0-.2c.13-.32.14-.66.16-1l.01-.29c.03-.14.08-.27.15-.4.08-.18.1-.38.13-.58.03-.19.06-.37.12-.55l.1-.25.14-.36c.05-.16.09-.33.12-.5.06-.28.13-.57.28-.83.1-.2.15-.4.2-.62.04-.22.1-.45.22-.65.05-.07.05-.16.06-.24 0-.06 0-.12.02-.18l.48-1.77c.07-.25.14-.5.07-.78-.02-.1.02-.18.05-.26l.05-.17c.03-.26-.03-.5-.09-.75l-.04-.18c-.06-.25-.45-.32-.7-.11-.1.09-.21.17-.33.24a2.8 2.8 0 0 0-.54.46c-.2.18-.39.37-.5.62-.1.2-.22.38-.37.54-.2.2-.35.45-.46.71-.05.18-.13.34-.22.5-.1.22-.21.44-.27.68a3.3 3.3 0 0 0 .01 1.82c.09.26.32.4.54.55l.04.03.05.03c.06.03.12.06.1.16-.02.13-.07.25-.22.28-.28.09-.58.11-.87.09a1.13 1.13 0 0 1-.86-.7c-.2-.44-.24-.92-.15-1.39.07-.33.18-.65.29-.96l.16-.5c.04-.12.1-.23.18-.33l.11-.17c.13-.23.27-.44.41-.66.17-.25.34-.5.48-.78a1 1 0 0 1 .24-.3c.2-.16.36-.34.53-.53.22-.24.44-.47.7-.67.43-.35.96-.57 1.51-.65.08 0 .16-.03.24-.05.1-.02.2-.05.29-.05.42-.03.85.33 1.04.7.14.25.15.51.17.77 0 .12.02.24.04.36.07.46-.01.9-.09 1.33l-.08.48a5 5 0 0 1-.23.88l-.16.53c-.1.4-.22.8-.36 1.18-.08.2-.13.42-.18.63-.03.18-.07.36-.13.54-.05.14-.1.29-.13.44-.06.24-.13.49-.24.71a.67.67 0 0 0-.07.35.72.72 0 0 1-.11.39c-.05.1-.1.18-.11.29l-.08.35c-.04.16-.08.32-.1.48l-.02.24c-.05.45-.1.9-.04 1.37l.03.36c.02.46.51.74.94.62.26-.07.4-.25.52-.42l.21-.25c.36-.32.61-.75.72-1.22.02-.1.08-.17.14-.25.05-.06.1-.12.13-.19l.12-.28c.2-.47.4-.94.52-1.45.04-.12.08-.24.14-.35a3 3 0 0 0 .33-1.03c.01-.12.05-.25.11-.36.3-.71.41-1.47.5-2.23.02-.08.04-.16.08-.23a.34.34 0 0 0 .07-.15c0-.22.04-.44.08-.66.05-.31.1-.62.06-.94a3 3 0 0 1 .05-.67c.01-.12 0-.2-.15-.15a.49.49 0 0 1-.38-.04.3.3 0 0 0-.24-.03c-.2.09-.37.03-.56-.04zM34.5 36.92l-.05-.3c-.26.27-.5.54-.73.84-.15.16-.26.17-.41.02l-.37-.3-.12-.1-.02-.02c-.03-.02-.06-.05-.1-.02a.14.14 0 0 0-.03.1v1.27c0 .28-.04.36-.31.43-.6.16-.61.16-.61-.45a106.34 106.34 0 0 1 0-2.5c0-.19.1-.26.27-.33.37-.16.64-.1.89.24.09.13.2.23.33.34l.2.2c.1.09.14.09.22 0 .07-.12.16-.23.24-.33.15-.21.31-.42.45-.65.2-.35.5-.48.87-.5.15 0 .17.08.17.2v.74l.01.93v.58a27.75 27.75 0 0 0 0 .73.27.27 0 0 1-.26.2l-.28.05-.16.03c-.17.03-.22-.04-.22-.21.02-.4.02-.8.02-1.2zm-6.2 1.36h.01v-.19l-.01-1.23a.27.27 0 0 1 .23-.3l.6-.16c.28-.08.56-.16.84-.21.34-.06.64.02.84.3a.88.88 0 0 1 .04.95c-.1.2-.26.37-.46.48-.15.09-.15.2-.05.32l.02.03c.11.14.22.27.43.25.1 0 .13.05.13.15v.3c0 .34-.17.48-.52.45-.4-.03-.62-.3-.83-.6a1.84 1.84 0 0 1-.1-.2.13.13 0 0 0-.17-.07c-.09.02-.09.09-.09.16v.83a.21.21 0 0 1-.1.21c-.2.11-.45.17-.69.17-.12 0-.12-.1-.12-.2v-1.44zm-3.7 2.49l-.3.04c-.17 0-.14-.12-.1-.23l.17-.43.22-.56.16-.4.66-1.74a.34.34 0 0 1 .32-.26 1.48 1.48 0 0 0 .4-.07.21.21 0 0 1 .2.15l.54 1.05.3.55.16.32.36.7c.09.15.05.22-.1.25l-.63.17a.22.22 0 0 1-.3-.14c0-.02 0-.03-.02-.05-.05-.15-.12-.32-.21-.36-.06-.03-.14 0-.23.04a.6.6 0 0 1-.22.07c-.46 0-.75.18-.8.67a.2.2 0 0 1-.16.16l-.42.07zm13.42-3.13c-.32.2-.7.3-1.07.3v-.01h-.56c-.17-.02-.25-.1-.2-.26l.06-.3.04-.2c.04-.17.15-.17.28-.13h.02l.04.02c.15.05.29.1.45.06a.3.3 0 0 0 .23-.16c.04-.1-.01-.16-.07-.23l-.02-.02a2.02 2.02 0 0 0-.43-.38c-.08-.05-.16-.1-.23-.17a.95.95 0 0 1 0-1.45 1.7 1.7 0 0 1 1.21-.34h.06c.55.07.55.08.43.63-.03.13-.1.2-.24.15a1.35 1.35 0 0 0-.35-.07c-.16 0-.32.03-.39.19-.06.16.02.3.15.42.08.07.17.14.27.2.14.1.28.2.4.33.11.14.2.3.27.46a.79.79 0 0 1-.35.96zm-16.24 2.72v-.47l-.01-1.88c0-.31.02-.33.32-.35l.91-.06.69-.05c.3-.02.34.03.33.33-.02.36-.03.37-.39.4l-.27.02-.47.04c-.15.01-.22.07-.2.23 0 .17.09.2.24.19.12-.02.24-.02.37-.03h.1c.06-.01.12-.02.15.03.06.18.07.37.03.55-.01.12-.14.16-.26.16l-.09.01h-.09c-.45.04-.45.04-.45.5v.76a.22.22 0 0 1-.22.27l-.32.02h-.18c-.12 0-.19-.05-.19-.17v-.5zm16.28-1.6c.34.03.7.23.67.6-2.91-.05-5.7.57-8.43 1.44.26-.19.55-.34.85-.46.83-.39 1.71-.65 2.6-.9l.3-.1c.83-.23 1.66-.4 2.5-.53.5-.08 1-.09 1.5-.04zm-17.33-2.52c2.59-.13 5.11-.52 7.63-.94-.16.14-.36.2-.55.24l-.22.06c-.61.2-1.23.4-1.85.55l-.14.03c-.57.13-1.14.27-1.72.38-.75.15-1.5.2-2.26.17-.35-.01-.68-.1-.89-.5zm4.1-11.48c.2.26.31.58.31.9.01.23-.04.46-.15.65-.26.44-.76.5-1.04.08-.31-.48-.47-1-.17-1.55a.6.6 0 0 1 1.05-.08z" fill="#DB2E27"/></svg>