<!-- by TradingView --><svg width="56" height="56" viewBox="0 0 56 56" xmlns="http://www.w3.org/2000/svg"><path fill="#F0F3FA" d="M0 0h56v56H0z"/><path d="M25.03 19.95a5.4 5.4 0 0 0-2.75 1.93l10.93 2.53c.27.08 1.82.1 2.55.1a8.64 8.64 0 0 0-2.12-2.96c-1.2-.9-3.79-2.04-4.86-2.14-1.08-.11-2.09.13-3.75.54Z" fill="#007EC1"/><path d="m25.36 24.23-3.83-1.56c.2-.27.64-.86.83-1.04.23-.23.83-.32 2.03-.6 1.2-.26 1.41 0 1.64 0 .23 0 .84-.28 1.36-.5.53-.2 2.54.33 3.03.5.48.18.94.75 1.3 1.23.37.49 1.65.7 2.01.96.36.25 1.04.36 1.53.58.5.21.97 1.46 1.14 2.16.12.56.23 1.52.27 1.92l-11.31-3.65Z" fill="#FCFCFC"/><path d="m31.46 28.26-.36-.37 2.47-2.4.07.46-1.92 2.12-.26.2Z" fill="url(#aaqjkrgx0)"/><path d="m31.1 29.72-.54.72.46 1.16.88 1.64.3 1.83.53-1.5 1-2.84.11-.85-.22-3.98-2.19 2.4-.33 1.42Z" fill="url(#baqjkrgx0)"/><path d="M20.95 28.21c.03.1.26 1.34.38 1.95l-.3.18-.9.62-.2-.14-.39-2.2-.08-2.61c0-.07.53-.99.8-1.44l.28.67.41 2.97Z" fill="url(#caqjkrgx0)"/><path d="M26.34 29.8c-.4-.5-.97-.8-1.2-.88l.83-.1a4.75 4.75 0 0 1 2.84.58c1.03.5 1.56 1.84 1.8 2.47.23.63.35 2.12.3 2.6-.03.38-.25 1.23-.36 1.6-.45.16-1.54.5-2.3.53a8.13 8.13 0 0 1-2.87-.46c-.49-.2-.8-.46-.89-.57a4.4 4.4 0 0 0 1.58-1.65c.12-.26.4-.86.5-1.22.11-.36.22-1.04.26-1.34 0-.31-.1-1.06-.5-1.56Z" fill="url(#daqjkrgx0)"/><path d="M26.8 31.05a3.8 3.8 0 0 1-.1 1.26c-.17.45-.57 1.42-.88 2-.27.49-.82.94-1.2 1.19a.46.46 0 0 1-.42.03l-.27-.1a18.65 18.65 0 0 1-2.3-1.86l-1.48-2.24c-.1-.14-.1-.32.02-.43.12-.11.3-.26.58-.4a39.2 39.2 0 0 1 1.99-.98c.57-.2 1.83-.6 2.3-.6.6.01 1.26.84 1.4 1.06.15.21.28.59.36 1.07Z" fill="url(#eaqjkrgx0)"/><path d="M19.74 26.4c0 .03.13.25.27.32s.25-.1.2-.31a5.6 5.6 0 0 0-.27-.76l-.24.6.04.16Zm.46 2.05c0-.03.05-.32-.05-.58-.08-.2-.34-.46-.46-.56l-.2.65.17.84.54-.35Z" fill="#00794B"/><path d="m20.37 28.3-.81.5.04.3.4 1.9.37-.22V28.3Z" fill="url(#faqjkrgx0)"/><path d="m20.41 24.46.89 5.73 1.18-.61.88-.28-.08-2.73h-.62l-.14-.1.62-.85v-1.97l-2.73.81Z" fill="url(#gaqjkrgx0)"/><path d="m21.73 29.95-.27-1.68 1.42-.14.24 1.21-.61.23-.78.38Z" fill="url(#haqjkrgx0)"/><path d="m21.4 27.84-.17-1.08.66-.14.13 1.02-.62.2Z" fill="url(#iaqjkrgx0)"/><path d="M22.55 27.8v-1.12l.63-.03v1.01l-.63.13Z" fill="url(#jaqjkrgx0)"/><path d="m21.13 25.9-.23-1.06.65-.16.14 1.01-.56.2Z" fill="url(#kaqjkrgx0)"/><path d="m22.2 25.59-.1-1.07.67-.07.07 1.02-.65.12Z" fill="url(#laqjkrgx0)"/><path d="m23.09 23.66-2.6.76v-.43l2.56-.79.04.46Z" fill="#D75639"/><path d="m23.13 23.21-2.67.8.19-.56 2.34-.65.14.41Z" fill="#EFE644"/><path d="m23.01 22.75-2.08.54.26-.48 1.82-.54v.48Z" fill="#EB8D4D"/><path d="m23.01 22.29.03-.6 2.63-.12.28.72H23Z" fill="url(#maqjkrgx0)"/><path d="M23.05 22.83v-.54h2.92l.07.18-.22.8V25l.1.45-2.82.22.03-2.12-.08-.73Z" fill="url(#naqjkrgx0)"/><path d="M23.7 23.7v-1h.48v1h-.49Z" fill="#5EA5CC"/><path d="m24 24.26-.48.14-.06.77 2.04-.18-.05-.79h-.44l-.14-.25-.87-.03v.34Z" fill="url(#oaqjkrgx0)"/><path d="m23.4 26.6-.83-.12.58-.8 2.72-.22.65 1.18-3.13-.04Z" fill="url(#paqjkrgx0)"/><path d="m27.79 21.7-1.13-.02c.02-.06.08-.2.17-.27.1-.08.38-.15.51-.18l.11-.25c.1-.14.39-.42.7-.45.31-.03.6.22.72.35.51-.16.75.15.8.33-.12.04-.38.16-.46.22-.09.05-.23.34-.3.47-.11.03-.38.1-.46.14a.6.6 0 0 0-.2.2l-.46-.53Z" fill="url(#qaqjkrgx0)"/><path d="M27.83 21.66h-1.16l-.62.7-.12.5h2.71l-.8-1.2Z" fill="url(#raqjkrgx0)"/><path d="m28.67 22.87-.4-.6.2-.22.43-.12.25-.42.42-.26.5.03.35.4.1.17h.45l.45.3.16.54-.09.58-.78.06-.16-.08-.18.14-.78.78-.46.5-.09 1.55-.04 1.3-.05.45-.42 1.03v-.88l.14-1.28v-3.97Z" fill="url(#saqjkrgx0)"/><path d="M29.19 23.06c.1.26.3.72.37.93v.19l.4-.38.35-.47.2-.58s-.1-.1-.27 0c-.13.07-.4.2-.53.24l-.15-.14c-.12-.1-.4-.31-.53-.26-.15.07.02.16.16.47Z" fill="url(#taqjkrgx0)"/><path d="M23.31 29.29v-2.73l2.7.06v2.2h-.22l-.88.1-1.6.37Z" fill="url(#uaqjkrgx0)"/><path fill="#0E94D3" d="M23.53 26.82h.54v1.53h-.54zM24.47 27.14l-.08 1.88.25-.05.15-1.31h.36l.1.13v1.12l.42-.06-.15-1.7h-1.05Z"/><path d="m24.8 27.68-.16 1.3.65-.12-.06-1.13-.44-.05Z" fill="#AABE7B"/><path d="M25.84 25v-1.67l.13-.48 2.67-.04V27l-.12 1.1v1.04l-.34-.05-.6-.21-.9-.12-.63.03v-2.15h.43l-.04-.11-.47-1.1-.13-.44Z" fill="url(#vaqjkrgx0)"/><path fill="url(#waqjkrgx0)" d="M26.27 23.65H27v1.34h-.73z"/><path fill="url(#xaqjkrgx0)" d="M27.5 23.65h.73v1.34h-.73z"/><path fill="url(#yaqjkrgx0)" d="M27.5 25.21h.73v.98h-.73z"/><path fill="url(#zaqjkrgx0)" d="M26.27 25.21H27v.98h-.73z"/><path d="m27.18 26.46-.68.62 1.66.09-.6-.71h-.38Z" fill="#A23B2A"/><path d="M26.45 27.13v1.64l.73.04 1 .27v-1.95h-1.73Z" fill="#DDD47E"/><path d="M26.86 27.6v1.17l.95.18V27.6h-.95Z" fill="url(#aaaqjkrgx0)"/><path d="m28.96 27.8-.39 1.38.92.7.5.68.56-.85.37-1.16.64-2.37-.93-2.81-.12-.1-.12.1-1.25 1.3-.18 3.13Z" fill="url(#abaqjkrgx0)"/><path d="m29.44 27.55-.17 1.15.45.17.27-1.18-.55-.14Z" fill="#DC753C"/><path d="m30.2 30.2-1.09-1.04-.18.3.56.38.45.74.26-.38Z" fill="#6B7016"/><path d="m30.47 24.01-.78.97v.1l1.05.47.08-.11-.2-1.38-.15-.05Z" fill="url(#acaqjkrgx0)"/><path d="m29.98 25.94-.56-.15-.22 1.27.6.22.18-1.34Z" fill="url(#adaqjkrgx0)"/><path d="m30.96 26.22-.57-.15-.22 1.27.6.22.19-1.34Z" fill="url(#aeaqjkrgx0)"/><path d="m32.28 23.2-1.64.1.88 2.84 1.26.05.59-.63-1.1-2.37Z" fill="url(#afaqjkrgx0)"/><path d="m31.91 24.88.16-.83c.2.06.6.18.6.22 0 .04-.2.51-.29.74l-.47-.13Z" fill="#D75639"/><path d="m31.06 27.85.52-1.66h1.24l-1.46 1.52-.3.14Z" fill="url(#agaqjkrgx0)"/><path d="m30.81 30.06-.26-.37.11-.33.37-1.45.41.34-.36 1.46-.27.35Z" fill="#5EA5CC"/><path d="m30.76 30.04-.2-.33-.2.24-.32.56.14.35.14-.25.47.76-.22.4.22.72.26-.39.29.45-.45.54.06.73.5-.52.15.66-.65.66-.1.44-.05.55.86-.7v.7l.43-.11v-.84l.3-.25c.1-.26.27-.78.27-.8l-.04-.25-.38.06-.28.2-.19-.64.32-.31v-.33l-.07-.33-.14-.12-.36.37-.35-.37.35-.44-.11-.26-.24-.4-.18.24-.42-.64.2-.35Z" fill="#fff"/><path d="m30.8 31.37-.4-.77-.28.21.47 1 .21-.44Z" fill="#37481B"/><path d="m31.33 32.6-.29-.52-.3.37.15.64.44-.5Z" fill="#739049"/><path d="M30.98 34.69v-.9l.45-.44.19.65-.64.69Z" fill="#3A7442"/><path d="m30.76 35.61-.19.35 1.12-.32v-.7l-.93.67Z" fill="#0C3621"/><path d="m31.79 29.9-.43-.27.43-1.19.51.25-.51 1.2Z" fill="#5F737E"/><path d="m33 29.44-.48-.41-.67 1.1.3.33.85-1.02ZM33.7 30.35l-.48-.41-.67 1.1.3.33.85-1.02Z" fill="#57636C"/><path d="m32.38 31.82-.3.2.04.49-.23.33.37.56.12-.27.43-1.02-.43-.3Z" fill="#8BBBBC"/><path d="M32.67 23.27c-.22-.02-.34.02-.38.04l1.04 2.22 1.63-.05.1-.32a.5.5 0 0 0-.12-.3.71.71 0 0 0-.35-.15l.04-.3-.23-.58a1.21 1.21 0 0 0-.5-.34c-.22-.06-.47.11-.57.21l-.19-.2a.88.88 0 0 0-.47-.23Z" fill="url(#ahaqjkrgx0)"/><path d="m33.77 29.78-.14-4.27h1.63l1.3 2.89-.12.83-2.58.66-.1-.11Z" fill="url(#aiaqjkrgx0)"/><path d="m33.74 30.73-1.77 4.94 2.5-1.92c.29-.45.97-1.5 1.33-2.09.35-.59.65-1.84.76-2.4l-2.68.65-.14.82Z" fill="url(#ajaqjkrgx0)"/><path d="M34.44 31.83h-.5l.24-1.56.67-.02-.4 1.58Z" fill="url(#akaqjkrgx0)"/><path d="M35.43 31.55h-.5l.24-1.56.67-.03-.4 1.6Z" fill="url(#alaqjkrgx0)"/><path d="m33.3 32.88-.32 1.93.33-.1.24-1.47 1.2.06.18-.38-1.21-.04h-.41Z" fill="#8BBBBC"/><path d="m34.65 33.3-1.1-.08-.3 1.48.73-.63.67-.78Z" fill="#AE6A4B"/><path d="M28 11.95a16.14 16.14 0 1 0 0 32.27 16.14 16.14 0 0 0 0-32.27Zm0 25.39a9.31 9.31 0 1 1 0-18.63 9.31 9.31 0 0 1 0 18.63Zm3.43-17.44a8.82 8.82 0 1 0-6.88 16.26 8.82 8.82 0 0 0 6.87-16.26Zm4.94 8.1a8.33 8.33 0 1 1-16.65 0 8.33 8.33 0 0 1 16.65 0Zm8.29-3.43a17 17 0 1 0-33.32 6.86 17 17 0 0 0 33.32-6.86Zm-.42 6.77a16.57 16.57 0 0 1-31.52 3.11 16.48 16.48 0 0 1-.96-9.8 16.64 16.64 0 0 1 19.58-12.9 16.64 16.64 0 0 1 12.9 19.58Z" fill="#000101"/><path d="m19.87 21.57-4.74-1.26.54-1.02 2.4.8h.01l-1.32-2.18.87-.75 2.25 4.4-.01.01Zm1.9-2.08-2.88-3.52-.8.79 2.9 3.52.79-.79Zm2.56-1.38-.2-1.04-1.32.67-1.63-3.2-.95.6 2.04 4.01 2.06-1.04Zm.58-4.88-1.07.33.92 4.4 2.25-.47.08-1.06-1.45.3-.73-3.5Zm3.35 4.3-1.04-.39 3.05-4.06h.01l1.73 4.8-1.16.05-.3-1.02-1.7-.26-.59.88Zm.99-1.66 1.18.18-.43-1.18-.75 1Zm4.29 3.35c.56.35 1.2.55 1.86.6l1.22-1.99-1.68-1.02-.77.65 1 .6-.34.56c-.18.05-.49-.1-.64-.2-.66-.4-.96-1.16-.52-1.87a1.3 1.3 0 0 1 1.85-.44c.33.2.57.53.68.9l.98-.35a2.72 2.72 0 0 0-2.05-1.8 2.36 2.36 0 0 0-1.6 4.36Zm3.36 3.12.91-.39-1.12-1.37.67-.55.74.9.73-.6-.74-.9.6-.5 1.04 1.26.61-.75-1.62-1.97-3.47 2.86 1.65 2.01Zm-20.6 1.19.79-.78-.78-.78-.78.78.78.78Zm8.58 17.07.78.78.78-.78-.78-.78-.78.78ZM39 22.65l.78.78.78-.78-.78-.78-.78.78Zm-24.73 4.93c1.67.25 1.5-1.85 2.23-1.74.24.03.31.35.28.55-.05.35-.2.53-.47.75l.69.74c.4-.36.66-.85.74-1.38.13-.82-.25-1.73-1.15-1.86-1.62-.25-1.5 1.84-2.22 1.74-.29-.05-.34-.43-.3-.66a1.1 1.1 0 0 1 .49-.8l-.76-.8c-.43.39-.7.92-.77 1.49-.15.94.22 1.81 1.24 1.97Zm.83 4.75 3.05-.56-.3-1.1-2.48.45c-.62.12-1.14.12-1.28-.6-.1-.56.28-.77.76-.86l2.81-.52-.3-1.1-3.03.56c-1.1.2-1.46 1.03-1.27 2.08.21 1.13.98 1.84 2.04 1.65Zm1.34 2.47-.2-.34-1.38.8-.67-.92 4-2.34.7 1.2c.58.97.66 1.78-.32 2.35-.78.45-1.65.08-2.13-.74Zm1.56-.24c.27-.16.31-.45.1-.81l-.17-.28-.85.5.16.28c.21.37.48.47.76.31Zm1.73 3.8.66-.7-.87-.8.55-.59 1.2 1.13.53-.84-1.9-1.77-3.14 3.35 1.94 1.81.87-.52-1.31-1.23.6-.65.87.82Zm4.49 1.05c-.2.43-.68.77-1.17.72l.35 2.11-1.2-.17-.25-2.53h-.02l-.88 1.8-1.06-.39L22 36.77l1.17.56c.96.47 1.5 1.15 1.05 2.09v-.01Zm-1.61-1.28-.56 1.16c.43.24.84.26 1.07-.23.24-.48-.08-.73-.51-.92Zm8.3-.04-1.1 3-1.82-2.6h-.01l-.61 4.78h1.17l.09-2.24h.01l1.39 2.03h.01l.9-2.35.7 2.13 1.11-.32-1.84-4.42v-.01Zm1.98-.93 4.34 2.85-.91.76-.88-.65-1.54.83.06 1.09-1.08.32-.01-5.19h.02Zm.86 2.9 1.07-.57-1.07-.7v1.28Zm4.21-3.6 2.12.32-.52 1.08-2.5-.52 1.45 1.39-.7.9-3.36-3.2.89-.94c.73-.77 1.54-1.08 2.3-.36.33.33.52.89.32 1.35v-.01Zm-1-.39c-.39-.37-.73-.14-1.03.2l.93.9c.35-.34.5-.72.1-1.1Zm1.57-5.41-.75.88 1.22 2.27-.02.03-1.87-.89-.39 1.08 4.2 1.98.39-1.07-1.92-.91.02-.03 2.7-.39.24-1.2-2.66.46-1.16-2.21Zm3.63-2.64-.2 1.78-.88-.1.13-1.17-.97-.1-.13 1.16-.79-.09.2-1.64-1 .08-.29 2.58 4.56.52.3-2.63-.93-.4Zm-3.2-3.87-1.02.2.6 3.07 1.07.08-.22-1.15 3.53-.68-.32-1.1-3.42.66-.21-1.08Z" fill="#fff"/><path d="M26.58 21.64a.1.1 0 0 1 .07-.03h1.15a.1.1 0 0 1 .08.03l.85 1.12a.1.1 0 0 1-.08.16h-2.74v-.16h2.6l-.75-.99h-1.08l-.62.74-.12-.1.64-.77ZM20.19 31.05l-.03.02-.07-.15.03-.02s.01-.02.03-.02a12.29 12.29 0 0 1 .41-.32 10.38 10.38 0 0 1 5.92-1.85c1.98 0 3.1.93 3.73 2.02.63 1.09.77 2.34.83 2.99a5.12 5.12 0 0 1-.56 2.55l-.15-.08c.22-.4.63-1.45.54-2.46a7.12 7.12 0 0 0-.8-2.91c-.6-1.05-1.67-1.94-3.59-1.94a10.21 10.21 0 0 0-6.16 2.07l-.07.06-.03.02-.03.02Z"/><path d="M26.07 29.64c-.36-.36-.8-.59-1.1-.68l.06-.16c.3.1.77.34 1.16.72.39.4.7.93.7 1.63 0 1.7-.83 3.72-2.47 4.58l-.08-.15c1.57-.82 2.39-2.77 2.39-4.43a2.1 2.1 0 0 0-.66-1.5Z"/><path fill-rule="evenodd" d="m25.77 21.52.25.74.08.22-.19.89v1.62l.11.46.6 1.21-.15.07-.58-1.16-2.73.16-.57.83-.13-.1.57-.83v-1.8l-2.53.67.89 5.7-.16.03-.92-5.85 2.72-.72v-.27l-2.4.58-.04-.16 2.43-.59-.06-.32-1.96.46-.04-.16 1.98-.47v-.35l-.2.04-.45.14c-.34.1-.72.23-.95.32l-.06-.16a27.62 27.62 0 0 1 1.66-.5v-.62l2.83-.08Zm-2.66.85v.42l.09.49v2.28l2.64-.16-.1-.4v-1.65l.19-.86-.04-.12H23.1Zm2.72-.17H23.1v-.44l2.55-.07.17.51Z"/><path d="M23.94 23.85h.95l.14.26h.48l.08 1-2.16.15v-.97l.51-.06v-.38Zm.17.17v.35l-.51.06v.65l1.81-.13-.06-.67h-.42l-.14-.26h-.68ZM23.59 22.62h.67v1.12h-.67v-1.12Zm.16.17v.79h.34v-.8h-.34ZM24.72 22.62h.66v1.12h-.66v-1.12Zm.16.17v.79h.34v-.8h-.34ZM20.42 28.18a.1.1 0 0 1 .07.1v2.49h-.16v-2.32c-.16.16-.42.33-.77.38l-.02-.17c.4-.05.66-.3.77-.44a.1.1 0 0 1 .1-.04Z"/><path d="M19.54 27.1c.74.32.8 1.03.75 1.34l-.16-.02c.05-.28-.02-.9-.66-1.17l.07-.15ZM20.26 26.7a.16.16 0 0 1-.1.1.28.28 0 0 1-.2-.04.72.72 0 0 1-.17-.13c-.1-.1-.18-.23-.23-.32l.14-.08c.05.08.13.2.21.29l.13.1c.03.02.05.02.07.02l.01-.08c0-.08 0-.19-.03-.31a6.49 6.49 0 0 0-.2-.75l.17-.05a6.64 6.64 0 0 1 .23 1.12c0 .05-.01.1-.03.13ZM22.85 28.22l.18 1.15.16-.03-.19-1.21a.1.1 0 0 0-.1-.09l-1.43.18a.1.1 0 0 0-.08.12l.24 1.65.17-.03-.24-1.58 1.29-.16ZM21.49 24.77l-.5.12.17.9.45-.14-.12-.88Zm.03-.18a.1.1 0 0 1 .12.09l.15 1a.1.1 0 0 1-.07.11l-.58.18a.1.1 0 0 1-.13-.07l-.19-1.04c0-.06.03-.1.08-.12l.62-.15ZM22.73 24.53l-.5.05.04.92.47-.09-.01-.88Zm.05-.18c.06 0 .11.04.11.1l.02 1.02a.1.1 0 0 1-.09.1l-.6.1a.1.1 0 0 1-.11-.09l-.05-1.05c0-.06.03-.1.09-.1l.63-.08ZM21.83 26.74l-.5.1.13.9.46-.12-.09-.88Zm.04-.18a.1.1 0 0 1 .12.09l.1 1.01a.1.1 0 0 1-.08.1l-.58.16a.1.1 0 0 1-.13-.08l-.14-1.05c0-.05.03-.1.08-.11l.63-.12ZM23.13 26.73l-.5.02-.02.92.48-.05.04-.89Zm.07-.16c.06 0 .1.04.1.1l-.05 1.02a.1.1 0 0 1-.09.09l-.6.07a.1.1 0 0 1-.11-.1l.02-1.06c0-.05.04-.1.1-.1l.63-.02Z"/><path d="m26.54 26.75-4.03-.12v-.16l4.04.11v.17Z"/><path d="M23.25 29.3v-2.77h.17v2.77h-.17ZM26.1 26.63v2.15h-.16v-2.15h.17ZM26.17 25.25c0-.06.05-.1.1-.1H27c.05 0 .1.04.1.1v.91a.1.1 0 0 1-.1.1h-.72a.1.1 0 0 1-.1-.1v-.91Zm.17.07v.78h.58v-.78h-.58ZM27.4 25.25c0-.06.05-.1.1-.1h.72c.06 0 .1.04.1.1v.91a.1.1 0 0 1-.1.1h-.71a.1.1 0 0 1-.1-.1v-.91Zm.17.07v.78h.59v-.78h-.59ZM27.1 26.4h.48l.67.69v2.02h-.16v-1.9h-1.5v1.57h-.17v-1.7l.68-.67Zm-.4.64h1.27l-.46-.47h-.34l-.46.47Z"/><path d="M26.8 27.52h1.1v1.43h-.16v-1.26h-.78v1.08h-.17v-1.25ZM28.58 26.87v-4.03h.16v4.04l-.15 1.29v1.03h-.16v-1.04l.15-1.3Z"/><path d="M30.43 23.23a.17.17 0 0 1 .27.06l.92 2.83c.01.03.02.07 0 .1l-.95 3.4-.02.05-.57.94-.14-.08.57-.95.96-3.4-.92-2.84-1.34 1.39-.16 3.06v.04l-.45 1.46-.16-.05.45-1.46.15-3.06c0-.04.02-.08.05-.11l1.34-1.38Z"/><path d="M32.22 23.15c.07 0 .13.04.16.1l1.08 2.35-.15.07-1.08-2.35-1.67.07v-.17l1.66-.07ZM31.54 26.25l-.02-.16h.02a3.3 3.3 0 0 1 .16 0 50.73 50.73 0 0 1 1.17 0v.16a237.32 237.32 0 0 0-1.32 0Z"/><path d="M33.39 25.47a.17.17 0 0 1 .12-.05h1.67c.07 0 .13.04.15.1l1.32 2.96c.01.03.02.07 0 .1l-.17.73a.17.17 0 0 1-.13.13l-2.48.53a.17.17 0 0 1-.2-.15l-.12-3.7-1.99 2.2-.08-.08-.08.08-.26-.26a.17.17 0 0 1 0-.23l2.25-2.36Zm-1.91 2.7 2.06-2.28v-.3h-.03l-2.25 2.35.22.22Zm2.22-2.58.14 4.22 2.48-.53.18-.74-1.32-2.95H33.7Z"/><path d="m31 29.69.35-1.56.16.04-.34 1.55c0 .03-.02.05-.04.07l-.88 1.12-.13-.1.88-1.12ZM33.65 30.72l.14-.9.16.02-.13.9-.01.04-1.73 4.8-.16-.05 1.73-4.8ZM31.68 28.47c.03-.1.14-.14.23-.09l.4.23c.08.04.11.13.08.21l-.49 1.06a.17.17 0 0 1-.23.07l-.33-.19a.17.17 0 0 1-.07-.2l.15.06.33.19.49-1.06-.4-.22-.42 1.09-.15-.06.4-1.1Z"/><path d="M32.43 29.05c.06-.09.17-.1.25-.04l.34.32c.07.05.08.15.02.22l-.7.92a.17.17 0 0 1-.25.02l-.28-.26a.17.17 0 0 1-.02-.21l.13.09.28.26.71-.92-.34-.31-.65.97-.13-.1.64-.96ZM33.1 29.96c.05-.08.17-.1.25-.03l.34.31c.07.06.08.16.02.23l-.7.92a.17.17 0 0 1-.25.02l-.28-.26a.17.17 0 0 1-.03-.22l.14.1.28.26.71-.92-.34-.31-.65.97-.14-.1.65-.97ZM31.04 30.82a.17.17 0 0 1 .3 0l.23.49c.03.05.02.11-.01.16l-.7 1.08-.14-.09.7-1.08-.23-.49-.51.97-.15-.08.51-.96ZM30.76 30.12l-.29-.41.14-.1.29.42-.14.1Z"/><path d="m30.94 31.15-.45-.7.14-.09.45.7-.14.09ZM30.74 31.45l-.44-.77.15-.08.43.77-.14.08ZM31.81 31.85c.08-.1.24-.08.29.04l.1.3c.02.02.02.04.02.06v.27c0 .04-.01.08-.04.11l-1.15 1.29-.12-.11 1.14-1.29v-.27l-.1-.3-.97 1.21-.13-.1.96-1.21Z"/><path d="m31.5 32.33-.37-.46.13-.1.38.46-.13.1ZM31.27 32.64l-.28-.5.14-.08.29.5-.15.08ZM32.26 33.29a.17.17 0 0 1 .13-.05l.39.04-.01.16-.4-.03-1.41 1.38-.12-.12 1.42-1.38ZM32.5 34.4l-1.86 1.47-.1-.13 1.86-1.47.1.13Z"/><path d="m31.9 33.7-.17-.7.16-.04.18.7-.16.04ZM31.52 34.02l-.14-.67.16-.03.14.66-.16.04ZM34.1 30.3a.17.17 0 0 1 .17-.13h.5c.1 0 .18.1.15.2l-.38 1.44a.17.17 0 0 1-.16.12h-.37c-.1 0-.18-.09-.16-.2l.26-1.42Zm.66.04h-.5l-.25 1.43h.37l.38-1.43ZM35.1 30.01a.17.17 0 0 1 .17-.14h.5c.1 0 .18.1.16.21l-.39 1.44a.17.17 0 0 1-.16.12h-.37c-.1 0-.18-.1-.16-.2l.26-1.43Zm.67.03h-.5l-.26 1.43h.37l.39-1.43ZM27.69 20.81c-.11.12-.18.27-.22.39a.18.18 0 0 1-.16.12c-.39 0-.55.27-.58.4l-.16-.04a.74.74 0 0 1 .74-.53c.05-.14.12-.3.25-.45a.74.74 0 0 1 .56-.26c.4 0 .61.18.7.34l.03.02h.02c.12-.04.3-.06.46 0 .16.04.32.17.41.4l-.15.07c-.08-.2-.2-.28-.31-.32a.6.6 0 0 0-.36.01.2.2 0 0 1-.24-.1c-.06-.1-.22-.25-.56-.25a.57.57 0 0 0-.43.2Z"/><path d="M29.77 21.32c-.45 0-.66.33-.72.56a.18.18 0 0 1-.17.13c-.36 0-.54.23-.58.34l-.15-.07c.06-.15.29-.43.73-.44h.01a.9.9 0 0 1 .88-.69c.25 0 .43.09.56.22.12.12.17.27.2.4v.01h.01c.26-.03.61 0 .85.22s.34.63.17 1.28l-.16-.04c.17-.63.06-.96-.12-1.12-.19-.18-.47-.2-.71-.17a.18.18 0 0 1-.21-.15.6.6 0 0 0-.15-.32.58.58 0 0 0-.44-.16Z"/><path d="M29.13 22.76c.05.14.16.33.27.53.2.34.24.78.23.96h-.16c0-.17-.04-.58-.21-.88a4.25 4.25 0 0 1-.31-.66.25.25 0 0 1 0-.1c0-.03.03-.07.07-.09a.18.18 0 0 1 .12 0c.09.02.2.1.32.17a4.27 4.27 0 0 1 .3.23 3.05 3.05 0 0 1 .53-.3.33.33 0 0 1 .17-.02c.06.02.09.07.1.11v.12l-.1.3-.31.63-.15-.08a6.56 6.56 0 0 0 .4-.91l-.06.01a2.9 2.9 0 0 0-.48.28.17.17 0 0 1-.2-.01 4.1 4.1 0 0 0-.55-.37l.02.08ZM32.1 21.51a.14.14 0 0 0-.04.1l-.17.03c0-.07.01-.16.08-.24.07-.08.19-.13.36-.13.13 0 .22.06.28.15.06.09.09.2.09.32 0 .24-.1.53-.24.76l-.42.63-.13-.1.41-.62c.13-.2.21-.47.21-.67 0-.1-.02-.18-.05-.23a.16.16 0 0 0-.15-.07c-.14 0-.2.04-.24.07ZM32.8 23.4a1.21 1.21 0 0 0-.46 0l-.03-.16c.13-.03.33-.05.52 0 .19.03.39.12.5.32l.02.02h.01c.14-.1.33-.18.52-.18.2 0 .41.1.57.34.24.39.27.7.22.9l.01.05.03.03c.13.03.28.1.36.23.08.15.07.34-.04.6l-.15-.08c.1-.22.09-.36.04-.44-.04-.08-.13-.13-.24-.15a.22.22 0 0 1-.14-.1.24.24 0 0 1-.03-.18c.04-.15.02-.42-.2-.77-.13-.2-.28-.26-.43-.26a.8.8 0 0 0-.43.14c-.1.07-.22.02-.27-.07-.08-.14-.22-.21-.38-.25ZM36 26.35c-.1.09-.18.2-.21.26l-.15-.08c.05-.08.13-.2.25-.3.12-.1.28-.2.47-.2v.16a.59.59 0 0 0-.36.16ZM24.51 27.22h.9l.1 1.61h.16l-.1-1.62a.17.17 0 0 0-.16-.16h-.9a.17.17 0 0 0-.17.16L24.3 29h.17l.05-1.77Z"/><path d="M24.67 27.65c0-.1.09-.16.18-.15l.31.03c.08 0 .15.07.15.16l.05 1.17h-.17l-.05-1.17-.3-.03-.08 1.27-.16-.01.07-1.27ZM29.31 27.65c.01-.09.1-.15.2-.14l.44.07c.1.02.16.11.13.2l-.26 1.03.14.06c.06.03.1.09.1.15v.51l.4.29-.1.13-.4-.28a.17.17 0 0 1-.06-.14v-.5l-.14-.06a.17.17 0 0 1-.1-.2l.26-1.02-.44-.08-.13 1.06c0 .02 0 .04-.02.05l-.32.7-.15-.08.32-.69.13-1.06Z"/><path d="m29.74 28.92-.48-.15.05-.16.49.16-.06.15ZM30.4 24c.1-.12.27-.07.3.07l.2 1.35a.17.17 0 0 1-.23.18l-.97-.45a.17.17 0 0 1-.06-.26l.77-.9Zm.13.1-.76.9.97.45-.2-1.35ZM29.28 25.85c0-.1.1-.17.2-.15l.42.1c.09.01.15.09.14.17l-.14 1.21a.17.17 0 0 1-.2.15l-.44-.13a.17.17 0 0 1-.12-.18l.14-1.17Zm.6.1-.44-.08-.14 1.17.44.13.13-1.21ZM30.32 26.1c.02-.1.12-.15.21-.12l.42.14c.08.02.13.1.11.19l-.26 1.19a.17.17 0 0 1-.22.12l-.42-.18a.17.17 0 0 1-.1-.19l.26-1.15Zm.58.17-.42-.13-.26 1.15.42.17.26-1.19ZM21.22 31.67c-.1-.07-.2-.16-.27-.23l.12-.12a3.1 3.1 0 0 0 .37.3l.03-.03a2.38 2.38 0 0 0 .23-.26l.13.1a5.68 5.68 0 0 1-.32.35.12.12 0 0 1-.1.01.28.28 0 0 1-.06-.03.98.98 0 0 1-.13-.09Zm.24-.04ZM24.31 29.92l-.13.08a.24.24 0 0 1-.18.02.7.7 0 0 1-.18-.07 1.8 1.8 0 0 1-.3-.22l.12-.12c.06.05.17.14.27.2l.13.05h.06l.12-.08.13-.09.13-.07a.3.3 0 0 1 .12-.04v.17h-.01a1.14 1.14 0 0 0-.15.08l-.13.09ZM23.3 34.03a.1.1 0 0 0-.02.05v.08c.01.03.03.05.06.07.06.04.17.08.3.1.2.03.43.03.6.02a3.09 3.09 0 0 0-.6-.3.62.62 0 0 0-.27-.05.12.12 0 0 0-.06.03Zm.39-.14c.24.08.52.24.72.37.04.03.08.08.07.14-.01.06-.07.1-.12.1-.17.02-.49.04-.76 0a.9.9 0 0 1-.35-.14.29.29 0 0 1-.13-.32c.01-.05.04-.1.08-.14.04-.03.1-.05.15-.06.1-.02.22 0 .34.05Z"/><path d="M25.14 33.79c.01 0 .05.01.06.13.02.13-.01.22-.06.27a.43.43 0 0 1-.22.14c-.16.04-.35.03-.46.01.15-.18.34-.38.5-.49a.52.52 0 0 1 .11-.05.13.13 0 0 1 .07-.01Zm-.27-.07c-.2.12-.42.37-.57.56a.14.14 0 0 0-.03.1c0 .06.04.1.08.1.12.04.39.07.61 0a.6.6 0 0 0 .3-.18.5.5 0 0 0 .1-.4c0-.14-.07-.25-.19-.28a.3.3 0 0 0-.15.02.68.68 0 0 0-.15.08ZM23.74 33.45l.02.04c.03.04.08.1.15.15a3.83 3.83 0 0 0 .4.26 46.17 46.17 0 0 0 .54-.56l-.02-.02a1.38 1.38 0 0 0-.51-.33c-.03 0-.08 0-.13.03a.95.95 0 0 0-.18.13c-.11.1-.22.22-.27.3Zm0 0Zm.37-.57a.41.41 0 0 1 .23-.06c.07 0 .15.04.22.08a1.72 1.72 0 0 1 .45.38l.02.04a.1.1 0 0 1-.01.08l-.03.04a3 3 0 0 1-.2.2l-.35.38a.18.18 0 0 1-.22.03c-.09-.06-.27-.17-.41-.28a1 1 0 0 1-.19-.18c-.04-.05-.08-.15-.02-.23a2 2 0 0 1 .3-.34l.21-.14ZM27.68 30.04a18.7 18.7 0 0 1-.65-.83l.13-.1c.17.22.53.7.64.82l-.12.11ZM28.47 31.76c-.09-.5-.34-.87-.45-1l.12-.1c.13.13.4.54.49 1.07l-.16.03ZM28.65 33.35c0-.25-.03-.48-.05-.62l.16-.03c.02.15.05.4.05.64.01.25 0 .51-.05.7l-.16-.05c.05-.16.06-.4.05-.64ZM28.01 36c-.15.25-.33.5-.44.64l-.13-.1c.1-.15.28-.38.43-.63.15-.25.28-.5.3-.66l.17.03c-.04.2-.18.47-.33.72Z"/><defs><linearGradient id="aaqjkrgx0" x1="33.47" y1="25.99" x2="31.66" y2="28.23" gradientUnits="userSpaceOnUse"><stop stop-color="#AE3031"/><stop offset=".62" stop-color="#AE6A4B"/><stop offset="1" stop-color="#C4C4C4"/></linearGradient><linearGradient id="baqjkrgx0" x1="31.88" y1="27.2" x2="33.34" y2="31.64" gradientUnits="userSpaceOnUse"><stop stop-color="#E59F6D"/><stop offset=".37" stop-color="#F2D292"/><stop offset="1" stop-color="#FCFCFC"/></linearGradient><linearGradient id="caqjkrgx0" x1="20.39" y1="24.57" x2="20.39" y2="30.96" gradientUnits="userSpaceOnUse"><stop stop-color="#FDFBE9"/><stop offset="1" stop-color="#E59F6D"/></linearGradient><linearGradient id="daqjkrgx0" x1="27.71" y1="28.8" x2="27.71" y2="36.61" gradientUnits="userSpaceOnUse"><stop stop-color="#57636C"/><stop offset=".19" stop-color="#5F737E"/><stop offset=".43" stop-color="#667C89"/><stop offset=".8" stop-color="#BCDBEE"/><stop offset="1" stop-color="#fff"/></linearGradient><linearGradient id="eaqjkrgx0" x1="22.13" y1="29.83" x2="25.5" y2="33.89" gradientUnits="userSpaceOnUse"><stop stop-color="#9BC13F"/><stop offset=".27" stop-color="#FDFBE9"/><stop offset=".51" stop-color="#DFDB23"/><stop offset="1" stop-color="#00794B"/></linearGradient><linearGradient id="faqjkrgx0" x1="19.97" y1="28.29" x2="19.97" y2="31.01" gradientUnits="userSpaceOnUse"><stop stop-color="#F0F0F0"/><stop offset="1" stop-color="#005E93"/></linearGradient><linearGradient id="gaqjkrgx0" x1="20.72" y1="24.78" x2="23.53" y2="25.81" gradientUnits="userSpaceOnUse"><stop stop-color="#F1E855"/><stop offset=".45" stop-color="#FFF490"/><stop offset="1" stop-color="#FDFBE9"/></linearGradient><linearGradient id="haqjkrgx0" x1="21.55" y1="28.42" x2="22.21" y2="29.45" gradientUnits="userSpaceOnUse"><stop stop-color="#5C5448"/><stop offset="1" stop-color="#D9D7C2"/></linearGradient><linearGradient id="iaqjkrgx0" x1="21.57" y1="26.74" x2="21.63" y2="27.84" gradientUnits="userSpaceOnUse"><stop stop-color="#8BBBBC"/><stop offset="1" stop-color="silver"/></linearGradient><linearGradient id="jaqjkrgx0" x1="22.86" y1="26.65" x2="22.86" y2="27.79" gradientUnits="userSpaceOnUse"><stop stop-color="#8CA7B7"/><stop offset=".69" stop-color="#E1E1E1"/></linearGradient><linearGradient id="kaqjkrgx0" x1="21.18" y1="24.83" x2="21.43" y2="25.78" gradientUnits="userSpaceOnUse"><stop stop-color="#6E9893"/><stop offset="1" stop-color="#F3F3F3"/></linearGradient><linearGradient id="laqjkrgx0" x1="22.47" y1="24.45" x2="22.47" y2="25.59" gradientUnits="userSpaceOnUse"><stop stop-color="#8BBBBC"/><stop offset="1" stop-color="#EAEAEA"/></linearGradient><linearGradient id="maqjkrgx0" x1="23.14" y1="21.83" x2="25.08" y2="22.29" gradientUnits="userSpaceOnUse"><stop stop-color="#5C5448"/><stop offset="1" stop-color="#A4A187"/></linearGradient><linearGradient id="naqjkrgx0" x1="23.26" y1="22.72" x2="25.75" y2="25.32" gradientUnits="userSpaceOnUse"><stop stop-color="#AE3031"/><stop offset="1" stop-color="#E6A59A"/></linearGradient><linearGradient id="oaqjkrgx0" x1="23.84" y1="24.26" x2="24.48" y2="25.17" gradientUnits="userSpaceOnUse"><stop stop-color="#34799F"/><stop offset="1" stop-color="#fff"/></linearGradient><linearGradient id="paqjkrgx0" x1="24.54" y1="25.46" x2="24.54" y2="26.64" gradientUnits="userSpaceOnUse"><stop offset=".31" stop-color="#E1E179"/><stop offset=".47" stop-color="#F7F4BC"/><stop offset=".72" stop-color="#104F1F"/><stop offset="1" stop-color="#79AA55"/></linearGradient><linearGradient id="qaqjkrgx0" x1="27.72" y1="20.68" x2="28.38" y2="21.95" gradientUnits="userSpaceOnUse"><stop stop-color="#FDFBE9"/><stop offset=".57" stop-color="#A9C63C"/><stop offset="1" stop-color="#00794B"/></linearGradient><linearGradient id="raqjkrgx0" x1="27.29" y1="21.66" x2="27.29" y2="22.86" gradientUnits="userSpaceOnUse"><stop offset=".66" stop-color="#D75639"/><stop offset=".79" stop-color="#6B4B77"/></linearGradient><linearGradient id="saqjkrgx0" x1="29.92" y1="21.25" x2="28.72" y2="28.46" gradientUnits="userSpaceOnUse"><stop stop-color="#fff"/><stop offset=".11" stop-color="#F8F6D3"/><stop offset=".15" stop-color="#AECA6D"/><stop offset=".2" stop-color="#013822"/><stop offset=".58" stop-color="#0E6942"/><stop offset=".75" stop-color="#739049"/><stop offset="1" stop-color="#A8A651"/></linearGradient><linearGradient id="taqjkrgx0" x1="29.74" y1="22.58" x2="29.74" y2="24.18" gradientUnits="userSpaceOnUse"><stop stop-color="#EAEAEA"/><stop offset=".65" stop-color="#CBA884"/></linearGradient><linearGradient id="uaqjkrgx0" x1="23.44" y1="27.75" x2="25.96" y2="27.72" gradientUnits="userSpaceOnUse"><stop stop-color="#E6A59A"/><stop offset="1" stop-color="#6C6C6C"/></linearGradient><linearGradient id="vaqjkrgx0" x1="26.09" y1="23.45" x2="28.71" y2="27.6" gradientUnits="userSpaceOnUse"><stop stop-color="#764B6C"/><stop offset=".29" stop-color="#8C5578"/><stop offset=".45" stop-color="#A06E80"/><stop offset=".73" stop-color="#F5BBAB"/><stop offset="1" stop-color="#CBCBCB"/></linearGradient><linearGradient id="waqjkrgx0" x1="26.34" y1="23.81" x2="26.86" y2="24.92" gradientUnits="userSpaceOnUse"><stop stop-color="#E3E16A"/><stop offset="1" stop-color="#F8F6D3"/></linearGradient><linearGradient id="xaqjkrgx0" x1="27.57" y1="23.81" x2="28.09" y2="24.92" gradientUnits="userSpaceOnUse"><stop stop-color="#E3E16A"/><stop offset="1" stop-color="#F8F6D3"/></linearGradient><linearGradient id="yaqjkrgx0" x1="27.57" y1="25.33" x2="27.87" y2="26.21" gradientUnits="userSpaceOnUse"><stop stop-color="#E3E16A"/><stop offset="1" stop-color="#F8F6D3"/></linearGradient><linearGradient id="zaqjkrgx0" x1="26.34" y1="25.33" x2="26.65" y2="26.21" gradientUnits="userSpaceOnUse"><stop stop-color="#E3E16A"/><stop offset="1" stop-color="#F8F6D3"/></linearGradient><linearGradient id="aaaqjkrgx0" x1="27.34" y1="27.6" x2="27.19" y2="28.59" gradientUnits="userSpaceOnUse"><stop stop-color="#6B4B77"/><stop offset="1" stop-color="#C19DAE"/></linearGradient><linearGradient id="abaqjkrgx0" x1="29.31" y1="25.08" x2="30.68" y2="27.12" gradientUnits="userSpaceOnUse"><stop stop-color="#007EC1"/><stop offset="1" stop-color="#D1E4F1"/></linearGradient><linearGradient id="acaqjkrgx0" x1="30.1" y1="24.58" x2="30.53" y2="25.16" gradientUnits="userSpaceOnUse"><stop stop-color="#8ECCCF"/><stop offset="1" stop-color="#E4F0FA"/></linearGradient><linearGradient id="adaqjkrgx0" x1="29.59" y1="25.79" x2="29.63" y2="27" gradientUnits="userSpaceOnUse"><stop stop-color="#6F8591"/><stop offset="1" stop-color="#DCDCDC"/></linearGradient><linearGradient id="aeaqjkrgx0" x1="30.56" y1="26.07" x2="30.6" y2="27.28" gradientUnits="userSpaceOnUse"><stop stop-color="#6F8591"/><stop offset="1" stop-color="#DCDCDC"/></linearGradient><linearGradient id="afaqjkrgx0" x1="30.71" y1="23.76" x2="32.66" y2="26.19" gradientUnits="userSpaceOnUse"><stop stop-color="#3A3A3A"/><stop offset=".21" stop-color="#5C5448"/><stop offset=".75" stop-color="#D4C7A7"/><stop offset="1" stop-color="#D9D7C2"/></linearGradient><linearGradient id="agaqjkrgx0" x1="31.46" y1="26.44" x2="31.97" y2="26.97" gradientUnits="userSpaceOnUse"><stop offset=".58" stop-color="#007EC1"/><stop offset="1" stop-color="#A4BFD2"/></linearGradient><linearGradient id="ahaqjkrgx0" x1="34.37" y1="24.07" x2="33.47" y2="25.46" gradientUnits="userSpaceOnUse"><stop stop-color="#FDFBE9"/><stop offset=".34" stop-color="#BBCD73"/><stop offset="1" stop-color="#00794B"/></linearGradient><linearGradient id="aiaqjkrgx0" x1="34.28" y1="27.59" x2="36.31" y2="28.36" gradientUnits="userSpaceOnUse"><stop stop-color="#D43B33"/><stop offset=".71" stop-color="#E2AB59"/><stop offset="1" stop-color="#fff"/></linearGradient><linearGradient id="ajaqjkrgx0" x1="33.67" y1="31.6" x2="35.19" y2="33.11" gradientUnits="userSpaceOnUse"><stop stop-color="#C19D73"/><stop offset="1" stop-color="#fff"/></linearGradient><linearGradient id="akaqjkrgx0" x1="34.39" y1="30.25" x2="34.39" y2="31.83" gradientUnits="userSpaceOnUse"><stop stop-color="#8CA7B7"/><stop offset="1" stop-color="#A7A7A7"/></linearGradient><linearGradient id="alaqjkrgx0" x1="35.38" y1="29.96" x2="35.38" y2="31.55" gradientUnits="userSpaceOnUse"><stop stop-color="#8CA7B7"/><stop offset="1" stop-color="#A7A7A7"/></linearGradient></defs></svg>