<!-- by TradingView --><svg width="56" height="56" xmlns="http://www.w3.org/2000/svg"><path fill="#F0F3FA" d="M0 0h56v56H0z"/><path d="M25 28L15 11.996 8.998 21 13 28l-4.002 7L15 44l10-16z" fill="#FBD80E"/><path d="M20 12.013h16.666c.74-.098 2.646.315 4.343 2.751l5.404 9.15c.019.03.036.058.05.086l-.05-.086C45.96 23.21 44.346 22 41.01 22H26l-6-9.987zM36.684 43.986H20L26 34h15c3.478 0 5.058-1.58 5.334-2.065l-5.302 9.3c-1.698 2.437-3.606 2.85-4.348 2.751z" fill="#002A4E"/><path d="M37 28l-4-6h9.316c4.132 0 6.125 3.92 6.684 6-2.043 4.993-5.245 6.116-6.675 6H33l4-6z" fill="#778C9A"/></svg>