<!-- by TradingView --><svg width="56" height="56" viewBox="0 0 56 56" xmlns="http://www.w3.org/2000/svg"><path fill="#14161A" d="M0 0h56v56H0z"/><path d="M36.09 32.14 30.27 41c2.91 0 8.79-4.26 10.47-7.68 1.16-2.37 1.84-6.54 0-11.23C39.57 19.14 35.5 15 33.18 15c.78.4 2.67 1.54 4.07 2.95 1.74 1.78 2.9 5.32 2.9 8.87 0 3.54-3.48 7.09-4.06 7.68-.47.47-.2-1.38 0-2.36Z" fill="url(#a2hzw2gen)"/><path d="M41.9 25.64C41.38 20.34 36.09 15 33.18 15c3.49.6 6.98 5.9 7.56 7.68.58 1.77 1.2 6 0 8.87-1.75 4.13-5.37 5.51-7.56 6.5L30.28 41c1.74-.2 5.23-1.18 7.55-3.55 2.63-2.67 4.65-5.9 4.07-11.81Z" fill="url(#b2hzw2gen)"/><path d="M33.18 38.05 30.28 41l5.8-8.86-2.9 5.9Z" fill="url(#c2hzw2gen)"/><path d="M19.91 32.14 25.73 41c-2.91 0-8.79-4.26-10.47-7.68-1.16-2.37-1.84-6.54 0-11.23C16.43 19.14 20.5 15 22.82 15c-.78.4-2.67 1.54-4.07 2.95-1.74 1.78-2.9 5.32-2.9 8.87 0 3.54 3.48 7.09 4.06 7.68.47.47.2-1.38 0-2.36Z" fill="url(#d2hzw2gen)"/><path d="M14.1 25.64c.52-5.3 5.81-10.64 8.72-10.64-3.49.6-6.98 5.9-7.56 7.68-.58 1.77-1.2 6 0 8.87 1.75 4.13 5.37 5.51 7.56 6.5l2.9 2.95c-1.74-.2-5.23-1.18-7.55-3.55-2.63-2.67-4.65-5.9-4.07-11.81Z" fill="url(#e2hzw2gen)"/><path d="m22.82 38.05 2.9 2.95-5.8-8.86 2.9 5.9Z" fill="url(#f2hzw2gen)"/><path d="m28.53 32.73-7.56-9.46 9.89 5.91-2.33 3.55Z" fill="url(#g2hzw2gen)"/><path d="m35.5 23.27-6.97 9.46L25.5 29l10-5.73Z" fill="url(#h2hzw2gen)"/><defs><linearGradient id="a2hzw2gen" x1="41.32" y1="11.45" x2="26.39" y2="43.18" gradientUnits="userSpaceOnUse"><stop stop-color="#CDCBCC"/><stop offset=".4" stop-color="#6C6A6B"/><stop offset=".55" stop-color="#F0F5F5"/><stop offset=".66" stop-color="#D0D3D5"/><stop offset=".75" stop-color="#535152"/></linearGradient><linearGradient id="b2hzw2gen" x1="40.74" y1="16.18" x2="32.35" y2="43.29" gradientUnits="userSpaceOnUse"><stop stop-color="#FDFDFD"/><stop offset=".57" stop-color="#C2C0C1"/><stop offset=".77" stop-color="#292829"/><stop offset=".89" stop-color="#CBCBCB"/></linearGradient><linearGradient id="c2hzw2gen" x1="34.34" y1="32.73" x2="30.16" y2="41.54" gradientUnits="userSpaceOnUse"><stop stop-color="#585657"/><stop offset=".43" stop-color="#726E70"/><stop offset=".62" stop-color="#B1ACAF"/><stop offset=".78" stop-color="#605E5F"/><stop offset="1" stop-color="#D4D2D3"/></linearGradient><linearGradient id="d2hzw2gen" x1="14.68" y1="11.45" x2="29.61" y2="43.18" gradientUnits="userSpaceOnUse"><stop stop-color="#CDCBCC"/><stop offset=".34" stop-color="#444343"/><stop offset=".4" stop-color="#6C6A6B"/><stop offset=".57" stop-color="#8C8A8B"/><stop offset=".67" stop-color="#CCC"/><stop offset=".81" stop-color="#B0B0B2"/></linearGradient><linearGradient id="e2hzw2gen" x1="15.26" y1="16.18" x2="23.65" y2="43.29" gradientUnits="userSpaceOnUse"><stop stop-color="#FDFDFD"/><stop offset=".57" stop-color="#C2C0C1"/><stop offset=".77" stop-color="#292829"/><stop offset=".89" stop-color="#CBCBCB"/></linearGradient><linearGradient id="f2hzw2gen" x1="21.66" y1="32.73" x2="25.84" y2="41.54" gradientUnits="userSpaceOnUse"><stop stop-color="#585657"/><stop offset=".43" stop-color="#726E70"/><stop offset=".62" stop-color="#B1ACAF"/><stop offset=".78" stop-color="#605E5F"/><stop offset="1" stop-color="#D4D2D3"/></linearGradient><linearGradient id="g2hzw2gen" x1="19.81" y1="23.86" x2="28.07" y2="31.41" gradientUnits="userSpaceOnUse"><stop stop-color="#C1C1C1"/><stop offset=".41" stop-color="#ECEAEB"/><stop offset=".68" stop-color="#8F8B8A"/></linearGradient><linearGradient id="h2hzw2gen" x1="25.04" y1="30.36" x2="36.68" y2="28.07" gradientUnits="userSpaceOnUse"><stop stop-color="#666465"/><stop offset=".15" stop-color="#504C4E"/><stop offset=".38" stop-color="#CECCCD"/><stop offset=".67" stop-color="#EFEDEE"/><stop offset=".99" stop-color="#524E50"/></linearGradient></defs></svg>