<!-- by TradingView --><svg xmlns="http://www.w3.org/2000/svg" width="56" height="56"><path fill="#96151D" d="M0 0h56v56H0z"/><path d="M9.76 24v.06c.74.26.46.93.46.93l-1.35 3.97-1.84-4.95H4.47v.07c.44.1.65.8.65.8l1.68 4.3c.47 1.2 1.34 1.44 1.34 1.44l1.08.38 2.58-7H9.76zM20 31h2.47v-.06s-.49-.01-.47-.82v-2.46c0-1.72-1.83-1.66-1.83-1.66-.77.02-1.15.46-1.27.58V26h-2.36v.07c.49.02.46.82.46.84v3.35h-.61c-.8-.05-.8-.81-.79-.83l-.02-1.54c0-1.1-.7-1.46-.68-1.47-1.32-.77-3.22-.24-3.22-.24s-.4 1.2-.41 1.2c2-.83 2.34-.01 2.33-.04a.34.34 0 01.02.22c-.07.36-.76.45-.77.45-.83.14-1.27.29-1.27.29-1.27.4-1.1 1.42-1.1 1.43.21 1.3 2.08 1.27 2.08 1.27h.8l.4-.78c-.82.15-1.08-.27-1.08-.27-.35-.54.18-.86.18-.86.2-.15.85-.29.85-.29v.8c.07 1.45 1.72 1.4 1.77 1.4h3.87v-.06s-.33-.02-.35-.71v-2.26c-.02-.84.52-.85.52-.85.7 0 .48.6.48.72V31zm10.7-5h-5.46c-.64.03-1.36.15-1.93.67 0 0-.99.91-.14 2.07 0 0 .4.54 1.07.74h.01c.05 0-.48.06-.7.2-.14.07-.18.16-.14.37.03.22.23.91 1 .96.56.02 1.35-.07 1.77.22 0 0 .3.2.3.56 0 .26-.03.8-1.19.86-.05 0-.96 0-1.13-.62 0 0-.1-.52.43-.59 0 0-.7-.15-1.28 0-.8.21-1.04.9-.59 1.4 0 0 .65.74 2.42.73 1.79.04 3.58-.46 3.26-2.16 0 0-.22-1.22-2.15-1.21h-.95s-.41.03-.5-.16c0 0-.17-.27.4-.29l.1-.01s1.66-.2 2.18-.89c0 0 .79-.86-.02-1.85h1.31v2.36c0 1.71 1.87 1.64 1.87 1.64.8-.01 1.26-.48 1.36-.58V31h2.44v-.05c-.5-.02-.44-.8-.44-.82V26h-2.4v.07c.49.03.4.82.4.84v2.13c-.03.95-.66.84-.66.85-.66 0-.65-.69-.65-.69V26zm-5.38 2.72c-.05.02-.74-.04-.67-.95.01 0-.02-.82.67-.82 0 0 .62-.02.63.8 0 .02.09.97-.63.97zM43 26.7V26h-2.51v.06c.5.03.51.86.51.88v3.32a7.8 7.8 0 01-.51 0c-.8-.04-.8-.8-.8-.82l-.03-1.53c.01-1.1-.7-1.45-.69-1.46-1.34-.77-3.27-.24-3.27-.24s-.4 1.2-.42 1.2c2.04-.83 2.38-.02 2.37-.05.03.09.04.16.02.22-.07.36-.78.45-.78.45-.85.14-1.29.29-1.29.29-1.3.4-1.12 1.41-1.12 1.42.22 1.3 2.11 1.26 2.11 1.26h.82l.4-.78c-.83.16-1.1-.26-1.1-.26-.35-.54.19-.86.19-.86.2-.15.87-.28.87-.28v.78c.07 1.45 1.74 1.4 1.8 1.4h3.82v-.06c-.02 0-.4.03-.39-.8v-2s-.15-1.13 1.47-.88v-1.22s-.94-.28-1.47.65zm7 3.45V24h-2.34v.06c.4 0 .34.8.34.82v1.52c-1.66-1-2.79.26-2.78.24-.78.72-.74 1.87-.75 1.86 0 1.2.75 1.82.75 1.82.98 1 2.17.6 2.17.6l.52-.86c-1.47.23-1.47-1.55-1.46-1.56 0-1.53.87-1.44.88-1.45.74 0 .67.81.67.78V31h2.47v-.06s-.48.04-.47-.8z" fill="#fff"/></svg>