<!-- by TradingView --><svg width="56" height="56" viewBox="0 0 56 56" xmlns="http://www.w3.org/2000/svg"><path fill="#F0F3FA" d="M0 0h56v56H0z"/><path d="M6 24h2.5l.42 6.43C10.6 25.63 17.46 16 31.42 16c6.63 0 13.63 3.36 16.3 5.04-2.78-1.19-9.66-3.57-14.88-3.57-6.53 0-17.29 1.7-23 16.46H7.3L6 24Zm9.23 2.06 1.67-1.94c.13.37.26 1.2-.28 1.61-.53.42-1.15.4-1.4.33Zm-.66.94-1.22 7h1.91l1.2-7h-1.9Zm8.77 2.03c0 2.18-3 2.42-4.5 2.27 0 .37.22 1.35 1.49 1.35 1.01 0 1.75-.41 2-.62v1.5c-.42.16-1.44.47-2.22.47-.98 0-3.23-.25-3.23-2.42 0-2.16 1.6-4.58 4-4.58 1.9 0 2.43 1.35 2.46 2.03Zm-2.72-.68c-.71 0-1.37 1.04-1.62 1.56 1.7 0 2.3-.5 2.38-.76.04-.27-.05-.8-.76-.8Z" fill="#2B67B3"/><path d="M46.4 29.92c-.07.42-.12.85-.16 1.27-1.24 1.91-2.43 1.47-2.43.04 0-1.53 1.15-2.75 2.07-2.75a1 1 0 0 1 .72.28l-.2 1.16ZM43.93 34c1.12 0 1.85-.52 2.2-.92-.02.4-.02.71-.01.92h1.76c0-1.22.27-3.23.41-4.08L50 21h-1.97c-.27 1.46-.76 4.03-1.14 6.13-.27-.08-.6-.13-1.01-.13-2.54 0-4.13 2.67-4.13 4.31 0 1.64.48 2.69 2.18 2.69ZM25.68 24l-2.39 10h1.86l1.8-7.82.6 7.82h1.36l3.66-7.82L31.5 34h1.94l1.2-10h-2.78l-2.96 6.95-.56-6.95h-2.67Zm10.92 7.3c1.5.15 4.5-.09 4.5-2.27-.03-.68-.55-2.03-2.47-2.03-2.4 0-3.99 2.42-3.99 4.58 0 2.17 2.25 2.42 3.23 2.42.78 0 1.72-.3 2.13-.46v-1.51c-.24.2-.9.62-1.91.62-1.27 0-1.49-.98-1.49-1.35Zm.16-1.39c.25-.52.9-1.56 1.62-1.56.7 0 .8.53.76.8-.09.25-.68.76-2.38.76Z" fill="#319741"/></svg>