<!-- by TradingView --><svg width="56" height="56" fill="none" xmlns="http://www.w3.org/2000/svg"><path fill="#00ADEF" d="M0 0h56v56H0z"/><path d="M39.104 15.022c-4.722-.143-8.476 2.958-9.596 7.597.865-.353 1.707-.532 2.521-.532 1.735 0 2.5.926 2.295 2.772-.103 1.12-.868 2.936-2.294 5.077-1.429 2.139-2.5 3.208-3.212 3.208-.92 0-1.76-1.647-2.524-4.947-.183-.689-.469-2.446-.858-4.838-.156-.964-.33-2.03-.52-3.171-.612-3.687-2.244-5.408-4.896-5.166-1.122.098-2.806 1.065-5.047 2.907A426.922 426.922 0 0110 22.139l1.604 1.963c1.528-1.015 2.42-1.525 2.674-1.525 1.17 0 2.263 2.337 3.283 5.818l2.747 9.579c1.373 3.484 3.055 5.36 5.04 5.36 3.01 0 7.124-2.996 11.757-8.714 2.906-3.55 4.902-7.086 5.986-9.76 1.605-3.962 1.54-9.67-3.987-9.838z" fill="#fff"/></svg>