<!-- by TradingView --><svg xmlns="http://www.w3.org/2000/svg" width="56" height="56"><path fill="#F0F3FA" d="M0 0h56v56H0z"/><path fill-rule="evenodd" d="M11.62 24h1.16l-.48 2h1.49l-.29 1h-1.44l-.72 3h-3.9l.72-3H6.52l-1.04 4h7.14l-.3 1H4l1.29-5H4l.3-1h1.25l.51-2H7.3l-.52 2H8.4l.48-2h1.17l-.48 2h1.57l.48-2zm-1.2 5H8.83l.49-2h1.57l-.49 2z" fill="#1E5189"/><path d="M19.72 24.9l-.92-.9s-.84.99-1.44 1.6c-.5.52-1.36 1.3-1.36 1.3v.59l1.27-.15.09.25-1.88 1.55V30l4.41-.66.3-.93-2.44.18L20.7 26l-.7-.73-1.67 1.51h-.58l1.97-1.87zM15 32v-1.16l4.67-.7-.3.86L15 32zm6.8-8l-.3 1h4.06l-.51 2h-4.11l-1.26 4.36a.5.5 0 00.48.64h4.18a1 1 0 00.82-.43l.84-1.21-1.05-.36-.48.61a1 1 0 01-.79.39H21.2a.2.2 0 01-.19-.26L21.8 28h4.23l.95-4H21.8z" fill="#1E5189"/><path fill-rule="evenodd" d="M40 24H29.98l-.3 1h3.36l-3.25 5h3.43l-.66 1h-4.6l-.27 1h10l.28-1h-3.78l3.13-5h-3.36l.65-1h5.08l.31-1zm-6.7 3L32 29h1.87l1.31-2h-1.87zm8.7-2l.33-1h4.96l-.32 1h-.67l-1.37 4.42.78-.14-.18.61-.82.25-.58 1.86h-1.17l.45-1.44-2.7.7v-.96l.54-.18L42.87 25H42zm3.15 0h-1.13l-.33 1h1.15l.31-1zm-1.76 2h1.15l-.32 1h-1.16l.33-1zm.48 2h-1.12l-.31 1 1.2-.25.23-.75z" fill="#1E5189"/><path d="M47.35 24.44l1.01-.44.63 1.5h.42L50.5 24l.88.6-.71.9H52l-.2 1h-2.22c-.07.33-.22 1.02-.3 1.5h2.15l-.2 1H49.2c.15 1.73 1.79 2 1.79 2l-.46 1s-1.14-.27-1.62-.84c-.48-.57-.65-1.4-.65-1.4s-.45.79-1.35 1.4C46.1 31.72 45 32 45 32v-1s1.8-.32 2.65-2h-2.3l.3-1H48l.35-1.5H46.1l.32-1h1.36l-.43-1.06z" fill="#1E5189"/></svg>