<!-- by TradingView --><svg width="56" height="56" viewBox="0 0 56 56" xmlns="http://www.w3.org/2000/svg"><path fill="#F0F3FA" d="M0 0h56v56H0z"/><path d="M25.44 21.37c1 .25 1.45.89 1.33 1.92a.27.27 0 0 1-.11.2.26.26 0 0 1-.22.03l-.6-.15c-.81-.3-1.45-.98-1.36-1.93 0-.02 0-.04.02-.06a.09.09 0 0 1 .06-.02l.88.01Z" fill="#fff"/><path d="m25.57 23.56 3.22 2.38c.03.03.07.04.1.04.28 0 .52 0 .73-.05.54-.1 1.05-.17 1.51-.2a27.28 27.28 0 0 0 4.21-.64c.44-.1 1.03-.16 1.77-.16 1.61 0 2.98.66 3.68 2.2.15.32.22.66.35 1a.07.07 0 0 1 0 .06l-.03.02h-.04a.25.25 0 0 1-.1-.04.25.25 0 0 1-.1-.17 3.37 3.37 0 0 0-2.1-2.59c-.39-.16-.78-.25-1.17-.28-.7-.05-1.4-.03-2.1.1-.64.13-1.26.29-1.9.38-.84.12-1.67.25-2.51.29-.7.04-1.4.23-2.11.22a.08.08 0 0 0-.08.04.09.09 0 0 0 0 .08c.36.75.18 1.53-.23 2.22-.46.78-.96 1.53-1.51 2.24-.49.61-1.1 1.3-1.84 2.06a2.5 2.5 0 0 1-.53.42c-.04.03-.05.02-.04-.03.04-.1.1-.21.2-.31a21.71 21.71 0 0 0 3.68-4.74c.16-.28.25-.57.28-.86a1.6 1.6 0 0 0-.32-1.17c-.08-.1-.4-.36-.95-.75-.55-.4-1.08-.78-1.64-1.22-.62-.5-1.2-.92-1.7-1.27-.32-.22-.72-.41-1.2-.59a1.45 1.45 0 0 0-.45-.17 3.09 3.09 0 0 1-.47-.14 2.01 2.01 0 0 0-.96-.12.06.06 0 0 1-.04-.05v-.03l.02-.04.01-.02.02-.01c.27-.02.58-.02.83.08.35.13.69.17 1.04.32.88.37 1.7.87 2.47 1.5Z" fill="#fff"/><path d="M25.33 22.44c0 .3.18.54.39.54.2-.01.36-.26.35-.57 0-.3-.18-.54-.39-.53-.2 0-.36.26-.35.56Z" fill="#121212"/><path d="M23.08 33.5c-.13.12-.3.2-.48.25-.13.03-.14 0-.05-.1a10.04 10.04 0 0 0 1.74-1.69c1-1.23 1.93-2.53 2.78-3.89 0-.02.03-.02.05 0l.03.02.02.05v.05c-.97 1.6-2 3.06-3.1 4.38-.22.28-.56.59-.99.93Z" fill="#fff"/><path d="m26.26 21.22-.82.15-.88-.01c-.02 0-.04 0-.06.02a.09.09 0 0 0-.02.06c-.1.95.55 1.63 1.37 1.93-.2-.04-.29.03-.28.2a9.93 9.93 0 0 0-2.47-1.51 3.68 3.68 0 0 0-.55-.18 4.08 4.08 0 0 1-.49-.14 1.98 1.98 0 0 0-.85-.07v.02l-.02.04a.06.06 0 0 0 0 .03v.03l.03.02h.03c.33-.03.64.01.93.12.14.06.3.1.47.14.17.03.32.1.46.17.47.18.87.37 1.18.59.52.35 1.09.77 1.71 1.27.53.42 1.05.79 1.57 1.16l.08.06c.54.4.86.64.94.75.26.34.37.73.32 1.17-.03.3-.12.58-.28.86a21.72 21.72 0 0 1-3.68 4.74c-.1.1-.16.2-.2.31-.01.05 0 .06.04.03.17-.1.35-.23.53-.42.74-.76 1.35-1.45 1.84-2.06-.03.15.02.26.14.32.04.02.05.05.06.09l.2 1.18c-.48.56-1 1.1-1.56 1.61a.72.72 0 0 1-.22.14c-.82.34-1.66.54-2.52.61-.35.02-.68 0-1-.05-.03 0-.09.01-.16.05-.01-.05-.05-.07-.12-.07.08-.04.1-.08.06-.13a.98.98 0 0 0-.35-.19c-.3-.83.05-1.5 1.03-1.99A9.51 9.51 0 0 0 25.07 29c.33-.74.53-1.52.59-2.32.13-1.8-1.29-3.05-2.59-3.96h-.04a.04.04 0 0 0-.02.02v.01l-.02.05-.14 2.3c0 .08-.02.08-.05.02-.05-.11-.1-.23-.12-.35-.15-.58-.27-1.18-.38-1.83a.28.28 0 0 0-.08-.15.26.26 0 0 0-.16-.07l-1.02-.11a.08.08 0 0 0-.07.02.09.09 0 0 0-.03.06c-.05.68-.07 1.26-.06 1.77 0 .26-.04.27-.13.03-.22-.54-.45-1.17-.7-1.9-.2-.57.11-1.27.5-1.67.18-.2.35-.42.5-.68.35-.64 1-.93 1.6-.4.35.29.84.38 1.27.46.2.04.39.07.54.12.42.14 1.02.41 1.8.81ZM22.99 33.3c-.15.1-.3.22-.44.36-.1.1-.07.12.05.09.19-.05.35-.13.48-.25.43-.34.77-.65 1-.93a35.25 35.25 0 0 0 3.1-4.43.07.07 0 0 0-.03-.05l-.03-.03c-.02-.01-.04 0-.05.01a40.14 40.14 0 0 1-2.78 3.9c-.38.47-.8.91-1.3 1.33Z" fill="url(#a3urs5bhd)"/><path d="M21.69 34.26c.18.07.3.13.35.2.04.04.02.08-.06.12-.47.17-.95.38-1.3.75-.26.27-.41.7-.59 1.07.09-.48.17-.78.25-.92.22-.4.5-.69.82-.87.26-.15.44-.27.53-.35Z" fill="#121212"/><path d="M21.98 34.58c.07 0 .1.02.11.07l-1.9 1.88a.06.06 0 0 1-.06.01.06.06 0 0 1-.04-.04v-.1c.18-.37.33-.8.59-1.07.35-.37.83-.58 1.3-.75Z" fill="#fff"/><path d="m14.92 34.23.53.75a16.14 16.14 0 0 0 3.71 3.53 15.23 15.23 0 0 0 9.1 2.66c1.7-.05 3.3-.37 4.8-.98a11.59 11.59 0 0 0 4.45-3.03c.02-.02.03-.02.05 0 .02.02.02.05 0 .07a14.33 14.33 0 0 1-8.47 6.44c-.95.27-2.07.46-3.35.57-.35.02-.7.01-1.08-.04-.24-.04-.48-.06-.71-.08-.32-.03-.64-.06-.96-.12a14.25 14.25 0 0 1-9.93-6.89 15.03 15.03 0 0 1-2.04-6.54c-.04-1.41-.05-2.88.23-4.23.23-1.09.58-2.18 1.06-3.28.1-.24.23-.46.36-.68.1-.16.13-.15.08.04a14.58 14.58 0 0 0 2.17 11.8Z" fill="url(#b3urs5bhd)"/><path d="M28.88 22.65a29.65 29.65 0 0 0-2.62-1.43l-.82.15c1 .25 1.45.89 1.33 1.92a.28.28 0 0 1-.11.2.26.26 0 0 1-.22.03l-.6-.15c-.19-.04-.28.03-.27.2l3.22 2.37c.03.03.07.04.1.04.28 0 .52 0 .73-.05.54-.1 1.05-.17 1.51-.2a27.28 27.28 0 0 0 4.21-.64c.44-.1 1.03-.16 1.77-.16 1.61 0 2.98.66 3.68 2.2.08.17.14.35.2.53a4.92 4.92 0 0 0 .16.5.07.07 0 0 1-.04.05h-.04a.25.25 0 0 1-.1-.04.25.25 0 0 1-.1-.17 3.37 3.37 0 0 0-2.1-2.59c-.39-.16-.78-.25-1.17-.28a8.05 8.05 0 0 0-2.78.25c-.4.08-.81.17-1.22.23l-.2.03c-.76.1-1.53.22-2.31.26-.3.02-.6.06-.9.1-.4.06-.8.12-1.22.12a.08.08 0 0 0-.07.04.09.09 0 0 0 0 .08c.36.75.18 1.53-.23 2.22-.46.78-.96 1.53-1.51 2.24-.03.15.02.26.14.32.03.02.05.05.06.09l.2 1.18 1.64-1.95c.69-.85 1.2-1.42 1.55-1.73 2.28-2.03 5.18-2.6 8.17-2.1.39.07.63.31.9.59h.01a4.14 4.14 0 0 1 1.29 2.33c.04.29-.01.57-.16.84-.49.9-.83 1.7-1.2 2.77a16.92 16.92 0 0 1-3.27 6.2c-2.36 2.83-5.77 4.85-9.42 5.12l-1.2.1a.93.93 0 0 1-.47-.08c-.04-.02-.05 0-.03.03.07.1.15.16.26.19a11.67 11.67 0 0 0 3.48.4h.71c.73 0 1.4-.07 2.1-.22a13.9 13.9 0 0 0 8.2-5.08 14.75 14.75 0 0 0 2.01-3.38c.72-1.97 1.37-3.84 1.38-5.95v-.38c0-.38-.04-.77-.14-1.16-.83-3.31-2.36-6.09-6.01-6.43a8.6 8.6 0 0 0-3.41.5c-.95.32-2.08.51-3.39.6-.31.01-.61-.04-.9-.17a.2.2 0 0 1-.08-.07c-.13-.2-.37-.41-.7-.61Z" fill="url(#c3urs5bhd)"/><path d="M37.3 13.57c-9.91-4.78-16.54 1.4-18.61 5.08 2.03-2.4 10.21-6.76 18.6-.6a15.5 15.5 0 0 1 6.05 15.65c4.83-10.6-2.02-17.84-6.05-20.13Z" fill="url(#d3urs5bhd)"/><path d="M13.4 20.26c4.97-10.23 14.09-9.96 18.02-8.55-4.48 0-13.08 1.8-15.23 12.02-1.72 8.17 2.73 13.92 5.17 15.77-10.14-4.78-9.53-14.82-7.96-19.24Z" fill="url(#e3urs5bhd)"/><defs><linearGradient id="a3urs5bhd" x1="27.34" y1="27.11" x2="21.1" y2="27.11" gradientUnits="userSpaceOnUse"><stop stop-color="#0E0E0E"/><stop offset="1" stop-color="#7F7F7F"/></linearGradient><linearGradient id="b3urs5bhd" x1="11" y1="29.52" x2="20.84" y2="40.54" gradientUnits="userSpaceOnUse"><stop stop-color="#8C8C8C"/><stop offset="1" stop-color="#060606"/></linearGradient><linearGradient id="c3urs5bhd" x1="34.44" y1="21.22" x2="34.44" y2="45" gradientUnits="userSpaceOnUse"><stop offset=".5" stop-color="#0D0D0D"/><stop offset="1" stop-color="#8C8C8C"/></linearGradient><linearGradient id="d3urs5bhd" x1="33.1" y1="14.75" x2="44.11" y2="28.77" gradientUnits="userSpaceOnUse"><stop stop-color="#050505"/><stop offset="1" stop-color="#757575"/></linearGradient><linearGradient id="e3urs5bhd" x1="21.96" y1="11" x2="16.58" y2="20.67" gradientUnits="userSpaceOnUse"><stop stop-color="#8C8C8C"/><stop offset="1" stop-color="#060606"/></linearGradient></defs></svg>