<!-- by TradingView --><svg width="56" height="56" xmlns="http://www.w3.org/2000/svg"><path fill="#EE3023" d="M0 0h56v56H0z"/><path d="M44 28c0 8.836-7.161 16-15.998 16C19.163 44 12 36.836 12 28s7.164-16 16.002-16C36.838 12 44 19.164 44 28z" fill="#fff"/><path d="M28.186 37c-4.49.015-9.165-3.814-9.186-9.965-.015-4.067 2.184-7.983 4.99-10.305 2.74-2.263 6.491-3.718 9.892-3.73.439 0 .898.036 1.178.132-2.974.615-5.342 3.382-5.333 6.518 0 .105.01.216.021.267 4.978 1.212 7.237 4.213 7.252 8.363.012 4.153-3.268 8.702-8.814 8.72z" fill="#EE3023"/></svg>