<!-- by TradingView --><svg xmlns="http://www.w3.org/2000/svg" width="56" height="56"><path fill="#B24794" d="M0 0h56v56H0z"/><path fill-rule="evenodd" d="M27.94 8L44 28 27.94 48 12 28 27.94 8zm0 2.46L42 28 27.95 45.54 14 28l13.95-17.54z" fill="#fff"/><path d="M27.96 13L40 28 27.96 43 16 28l11.96-15zm0 .8L16.65 28l11.3 14.2L39.36 28l-11.4-14.2z" fill="#fff"/><path d="M23.19 25H22v1h.48l2.02 6h1l2.5-7h-1l-2 5.5-1.81-5.5z" fill="#fff"/><path fill-rule="evenodd" d="M28.5 25h3.22c.57.02 1.7.38 1.74 1.65.01.26-.11.9-.75 1.33.44.2 1.3.89 1.29 1.99-.02 1.37-1.1 2.05-2.28 2.03H29v-6h-.5v-1zm1.5 1h1.85c.27 0 .62.23.64.73.01.5-.37.77-.64.77H31v1h1.02c.32 0 .98.4.98 1.26 0 .87-.65 1.24-1.04 1.24H30v-5z" fill="#fff"/></svg>