<!-- by TradingView --><svg width="56" height="56" viewBox="0 0 56 56" xmlns="http://www.w3.org/2000/svg"><path fill="#F0F3FA" d="M0 0h56v56H0z"/><path d="M36.3 33.81 46 16.68c-5.5-1.65-8.75 1.24-9.69 2.9l-8.86 15.08 1.87 1.1 6.98-1.95Z" fill="url(#ae0oky0xl)"/><path d="M28.1 48 10 16.55a9.08 9.08 0 0 1 10.72 3.87l6.48 11.27c2.72 4.39 8.1 1.58 10.53-.37L28.1 48Z" fill="url(#be0oky0xl)"/><circle cx="24.5" cy="14.5" r="2.5" fill="#0077A2"/><circle cx="24.14" cy="14.06" r="1.82" fill="#008DBD"/><circle cx="23.88" cy="13.8" r="1.27" fill="#3DC7F4"/><circle cx="31.5" cy="14.5" r="2.5" fill="#56175F"/><circle cx="31.14" cy="14.06" r="1.82" fill="#73367C"/><circle cx="30.88" cy="13.8" r="1.27" fill="#B884BB"/><circle cx="28.5" cy="20.5" fill="#56175F" r="2.5"/><circle cx="28.14" cy="20.06" fill="#73367C" r="1.82"/><circle cx="27.88" cy="19.8" fill="#B884BB" r="1.27"/><defs><linearGradient id="ae0oky0xl" x1="35.67" y1="25.97" x2="30.2" y2="35.73" gradientUnits="userSpaceOnUse"><stop offset=".2" stop-color="#00AEEF"/><stop offset="1" stop-color="#0075A2"/></linearGradient><linearGradient id="be0oky0xl" x1="10" y1="25.51" x2="33.03" y2="40.93" gradientUnits="userSpaceOnUse"><stop offset=".78" stop-color="#863695"/><stop offset="1" stop-color="#4F0E58"/></linearGradient></defs></svg>