<!-- by TradingView --><svg width="56" height="56" xmlns="http://www.w3.org/2000/svg"><path fill="#007AFF" d="M0 0h56v56H0z"/><path d="M4 25h2l2 5 2-5h2l-3 8H7l-3-8zM14 25h6v2h-4v1h3v2h-3v1h4v2h-6v-8zM24 28.32h1.058c.17 0 .357-.008.552-.016a1.93 1.93 0 00.527-.104.915.915 0 00.39-.268c.104-.119.153-.29.153-.506 0-.2-.049-.365-.138-.484a.819.819 0 00-.349-.275 1.532 1.532 0 00-.478-.127 4.278 4.278 0 00-.527-.037H24v1.816zM22 25h3.374c.446 0 .868.037 1.266.12a3.18 3.18 0 011.046.393c.3.186.535.432.714.745.178.312.267.7.267 1.168 0 .566-.162 1.042-.478 1.444-.317.394-.787.647-1.403.751L29 33h-2l-2-3h-1v3h-2v-8zM33 25h-2v8h2v-8zM35 25h2l4 4.996V25h2v8h-2l-4-5v5h-2v-8zM47 27h-3v-2h8v2h-3v6h-2v-6z" fill="#fff"/></svg>