<!-- by TradingView --><svg width="56" height="56" xmlns="http://www.w3.org/2000/svg"><path fill="#A9C145" d="M0 0h56v56H0z"/><path d="M21.25 15.739l-.507-1.366L24.877 11l.59 1.687-2.193 1.687 2.784.08.591 1.687-5.4-.402zM14.95 21.785l-1.249-.826 1.285-5.038 1.515 1.04-.746 2.59 2.31-1.484 1.514 1.04-4.629 2.678zM13.664 30.255l-1.52.052L10 25.54l1.867-.031 1.034 2.497.914-2.505 1.867-.031-2.018 4.784zM17.994 37.835l-1.197.893-4.68-2.65 1.49-1.072 2.38 1.44-.81-2.538 1.489-1.072 1.328 4.999zM26.021 41.78l-.45 1.383-5.431.359.583-1.69 2.818-.107-2.184-1.646.583-1.69 4.081 3.39zM34.92 40.24l.515 1.363L31.322 45l-.601-1.683 2.183-1.7-2.785-.064-.601-1.683 5.402.37zM41.064 34.178l1.249.826-1.283 5.038-1.515-1.04.744-2.59-2.308 1.485-1.515-1.04 4.628-2.679zM42.421 25.64l1.52-.026 2.059 4.8h-1.868l-.989-2.514-.958 2.49-1.868.002 2.104-4.752zM38.18 18.04l1.195-.896 4.684 2.644-1.488 1.074-2.383-1.436.815 2.536-1.489 1.074-1.335-4.997zM30.175 14.211l.448-1.384 5.43-.367-.58 1.69-2.817.112 2.187 1.642-.58 1.69-4.087-3.383z" fill="#fff"/></svg>