<!-- by TradingView --><svg width="56" height="56" xmlns="http://www.w3.org/2000/svg"><path fill="#F0F3FA" d="M0 0h56v56H0z"/><path d="M43.857 33.705l-5.078-16.117c-.23-.733-.722-1.38-1.402-1.846A4.346 4.346 0 0035.002 15a4.38 4.38 0 00-2.405.658c-.7.442-1.22 1.072-1.483 1.796L26.733 31.32l-1.979-5.736a2.732 2.732 0 00-1.127-1.4 3.345 3.345 0 00-1.856-.517 3.32 3.32 0 00-1.833.577 2.697 2.697 0 00-1.068 1.436l-2.251 7.194-.434-1.609c-.131-.482-.474-.9-.954-1.159a2.366 2.366 0 00-1.604-.225c-.547.116-1.02.419-1.314.842a1.686 1.686 0 00-.255 1.415l1.211 4.476c.111.41.375.774.75 1.035.374.26.836.403 1.313.403.16-.001.318-.02.472-.054.329-.07.634-.207.89-.402.255-.196.454-.442.58-.72.05-.105.086-.215.108-.328l2.29-7.036 2.609 7.572c.192.554.58 1.038 1.108 1.383A3.35 3.35 0 0025.21 39a3.52 3.52 0 00.895-.12 3.085 3.085 0 001.536-.94c.388-.448.607-.991.627-1.554l3.848-13.454 3.99 12.66c.235.744.739 1.4 1.436 1.867a4.368 4.368 0 002.423.722c.363 0 .724-.044 1.074-.133.509-.12.986-.329 1.403-.613a3.703 3.703 0 001.029-1.042c.262-.403.43-.849.496-1.31a3.13 3.13 0 00-.111-1.378z" fill="url(#paint0_linear)"/><defs><linearGradient id="paint0_linear" x1="9.764" y1="33.298" x2="40.488" y2="23.738" gradientUnits="userSpaceOnUse"><stop offset=".11" stop-color="#0A2D3B"/><stop offset=".42" stop-color="#0089C6"/><stop offset=".46" stop-color="#068CC0"/><stop offset=".51" stop-color="#1793AE"/><stop offset=".58" stop-color="#329F90"/><stop offset=".65" stop-color="#59B067"/><stop offset=".72" stop-color="#8AC633"/><stop offset=".78" stop-color="#B3D807"/></linearGradient></defs></svg>