<!-- by TradingView --><svg width="56" height="56" viewBox="0 0 56 56" xmlns="http://www.w3.org/2000/svg"><path fill="#F0F3FA" d="M0 0h56v56H0z"/><path fill-rule="evenodd" d="M27.73 43.83h.03c.03 0-.03.02-.03 0L30.28 14l16.67 12.4a.13.13 0 0 1 .05.1.12.12 0 0 1-.05.09l-.29.24-18.41 17c-.29.23-.46.22-.52 0ZM38.58 31.2l-7.51-1.5c.33-3.97.64-7.76.94-11.2a5.72 5.72 0 0 0 .03-.67.1.1 0 0 1 .1-.04.1.1 0 0 1 .04.02l11.57 8.73c.07.05.07.1.01.16l-4.81 4.4c-.1.1-.23.1-.37.1Zm-1.73 1.74-5.96-1.17c-.23 2.5-.41 4.81-.56 6.64 0 .07-.02.15-.04.22l-.03.22c-.01.08.02.1.07.04l6.52-5.95Z" fill="#B3B5B3"/><path d="M28.98 29.32 7.08 25c-.05 0-.07 0-.08.05 0 .05.01.1.06.13.1.06.21.15.35.28a37772.17 37772.17 0 0 1 20.35 18.37c.03 0 .04-.02.04-.04l.17-2.6c-4.66-4.2-9.43-8.45-14.02-12.6-.14-.12-.12-.17.06-.13l14.8 2.9.17-2.05ZM31.07 29.7l7.5 1.5c.06.04.08.08.09.12a.1.1 0 0 1-.03.08 346.86 346.86 0 0 0-1.71 1.56l-.07-.01-5.96-1.16.18-2.1Z" fill="#4D4D4D"/></svg>