<!-- by TradingView --><svg width="56" height="56" viewBox="0 0 56 56" xmlns="http://www.w3.org/2000/svg"><path fill="#007BE2" d="M0 0h56v56H0z"/><path d="M41.7 15c-1.18.04-3.83.94-4.95 4.16-1 2.91-4.92 15.04-7.29 22.3a.75.75 0 0 1-.7.54.75.75 0 0 1-.74-.52L20.13 18.6c-.04-.7.33-2.08 2.87-2.08V16H11v.52c1.01-.04 3.2.34 3.8 2.2.46 1.4 4.78 13.56 8.42 23.89a3.59 3.59 0 0 0 6.78-.05l7.51-22.36c.17-.52.58-1.33 1.16-1.66a3.2 3.2 0 0 0 3.16 2.96A3.21 3.21 0 0 0 45 18.25 3.21 3.21 0 0 0 41.7 15Z" fill="#fff"/></svg>