<!-- by TradingView --><svg xmlns="http://www.w3.org/2000/svg" width="56" height="56"><path fill="#F0F3FA" d="M0 0h56v56H0z"/><path d="M35.14 35.44c-12.38 9.62-24.65-6.9-22.8-16.15a.05.05 0 00-.08-.03 18.01 18.01 0 006.47 24.17c.23.14.49.25.75.32 2.35.6 10.25 1.57 15.73-8.24a.05.05 0 10-.07-.07z" fill="#703E97"/><path d="M30.88 18.1c14.52 5.91 6.34 24.8-2.6 27.81a.04.04 0 10.02.09A18.01 18.01 0 0046 28.32c0-.27-.03-.55-.11-.8-.66-2.34-3.75-9.67-15-9.5a.04.04 0 00-.01.08z" fill="#F1CB14"/><path d="M17.99 30.46c-2.15-15.53 18.3-17.9 25.39-11.66a.04.04 0 00.06-.06 18.02 18.02 0 00-24.16-6.49c-.24.14-.46.3-.65.5-1.69 1.74-6.49 8.08-.73 17.74a.05.05 0 00.09-.03z" fill="#2A276E"/><path fill-rule="evenodd" d="M27.5 32v2.88c-.44-.21-.96-.72-1.43-1.67a8.5 8.5 0 01-.49-1.21h1.92zm-1.73 2.64A8.36 8.36 0 0124.54 32h-2.29a7.02 7.02 0 003.52 2.64zM27.5 31h-2.19c-.17-.76-.27-1.6-.3-2.5h2.49V31zm0-3.5H25c.04-.9.14-1.74.31-2.5h2.19v2.5zm1 1V31h2.19c.17-.76.27-1.6.3-2.5H28.5zm2.5-1h-2.5V25h2.19c.17.76.27 1.6.3 2.5zm1 1c-.03.88-.13 1.72-.3 2.5h2.63c.36-.77.59-1.61.65-2.5H32zm2.98-1H32c-.02-.88-.12-1.72-.28-2.5h2.62c.36.77.59 1.61.65 2.5zm-10.97 0c.02-.88.12-1.72.28-2.5h-2.62c-.36.77-.59 1.61-.65 2.5H24zm-3 1c.07.89.3 1.73.66 2.5h2.62c-.16-.78-.26-1.62-.28-2.5h-3zm7.49 6.38V32h1.92c-.14.44-.3.85-.49 1.21-.47.95-.99 1.46-1.43 1.67zm1.73-.24c.5-.68.93-1.59 1.23-2.64h2.29a7.02 7.02 0 01-3.52 2.64zm.2-10.64H28.5v-2.88c.44.21.96.72 1.43 1.67.18.36.35.77.49 1.21zm3.33 0h-2.29a8.36 8.36 0 00-1.23-2.64A7.02 7.02 0 0133.76 24zm-6.25 0h-1.92c.14-.44.3-.85.49-1.21.47-.95.99-1.46 1.43-1.67V24zm-2.96 0c.3-1.05.72-1.96 1.23-2.64A7.02 7.02 0 0022.25 24h2.29zM28 20a8 8 0 110 16 8 8 0 010-16z" fill="#2A276E"/></svg>