<!-- by TradingView --><svg width="56" height="56" viewBox="0 0 56 56" xmlns="http://www.w3.org/2000/svg"><path fill="#F0F3FA" d="M0 0h56v56H0z"/><path fill-rule="evenodd" d="M26.74 15.72c-.97-2.26-3.61-3.4-5.89-3.65-.95-.1-1.9-.1-2.87.03-1.4.18-2.77.86-3.8 1.9-1.84 1.82-2.41 4.34-2.1 6.91.34 2.75 1.58 5.36 3.96 6.81a6.8 6.8 0 0 0 4.05 1 7.26 7.26 0 0 0 5.38-3.05 10.69 10.69 0 0 0 1.79-4.26c.39-1.93.25-3.9-.52-5.69ZM19.8 22c-.02.03-.04.03-.06.02a1559.55 1559.55 0 0 1-1.78-4.98c-.19-.5-.47-.89-1.06-.93a1.1 1.1 0 0 0-.8.26c-.7.58-.4 1.38-.15 2.08l2.27 6.12c.17.46.54.96 1.02 1.07.77.2 1.48-.07 1.8-.8.05-.08.08-.17.12-.25l2.5-6.26c.28-.72.46-1.5-.3-2-.42-.27-.84-.26-1.26.04-.3.22-.44.65-.57 1.03l-.1.32-1.35 3.54-.09.25c-.05.16-.1.33-.2.5Zm9.34 1.88c.36 2.78 1.57 5.37 4.2 6.57a8.61 8.61 0 0 0 6.47.12c2.3-.99 3.59-3.12 4-5.6a14.26 14.26 0 0 0 .12-3.97c-.21-2.12-1.02-4.3-2.97-5.3a10.23 10.23 0 0 0-8.37-.17c-1.95.9-3.05 2.62-3.42 4.72-.22 1.25-.2 2.4-.03 3.63ZM38 26.64V21h1.76c.83 0 1.73-.56 1.2-1.46-.25-.43-.66-.54-1.14-.54h-6.2c-1.57 0-1.64 1.96-.06 2h1.99v5.54c0 .31.05.68.23.94.26.35.61.53 1.07.52.28 0 .53-.1.74-.27.35-.28.4-.67.41-1.09Zm-8.04 3.76a6.18 6.18 0 0 1 3.7 4.76c.1.83.1 1.72-.03 2.66-.44 2.99-2 6.55-4.99 7.7-2.91 1.1-6.66.3-8.47-2.37a7.9 7.9 0 0 1-.63-1.16 12.6 12.6 0 0 1-1.18-5.84c.03-.92.19-1.78.46-2.57a5.84 5.84 0 0 1 4.32-3.84c1.37-.33 2.81-.32 4.22-.12.9.13 1.76.39 2.6.78Zm-3.96 9h.03l.02-.02c.09-.17.15-.35.21-.53l.1-.26 1.3-3.44.13-.36c.19-.58.39-1.2 1.1-1.26.5-.04.9.19 1.16.64.09.17.12.39.1.66-.02.24-.08.47-.17.7a2759.8 2759.8 0 0 1-2.66 6.68 1.5 1.5 0 0 1-1.51.88c-.75-.09-1.13-.59-1.37-1.25l-2.27-6.13c-.26-.69-.48-1.42.19-1.95.4-.32.83-.36 1.3-.12.28.14.46.51.56.8A1159.87 1159.87 0 0 0 26 39.4Z" fill="#1A429A"/></svg>