<!-- by TradingView --><svg width="56" height="56" viewBox="0 0 56 56" xmlns="http://www.w3.org/2000/svg"><path fill="#F0F3FA" d="M0 0h56v56H0z"/><path d="M36.27 11c6.86-.06 7.71 16.5 7.71 16.5.5 15.33-11.88 12.1-6.06 1.18C43.68 17.82 36.27 11 36.27 11Z" fill="url(#agxoyvuo2)"/><path d="M19.73 45c-6.86.06-7.72-16.5-7.72-16.5-.49-15.33 11.89-12.1 6.13-1.18C12.32 38.18 19.74 45 19.74 45Z" fill="url(#bgxoyvuo2)"/><path d="M20.53 33.52S27.33 11.06 36.27 11c6.98 0 7.72 16.5 7.72 16.5s-1.47-7.88-7.48-8.12c-5.94-.31-12.5 5.15-15.98 14.14Z" fill="url(#cgxoyvuo2)"/><path d="M35.47 22.48S28.67 44.94 19.73 45c-6.86.06-7.72-16.5-7.72-16.5s1.47 7.81 7.48 8.12c6 .25 12.5-5.2 15.98-14.14Z" fill="url(#dgxoyvuo2)"/><defs><linearGradient id="agxoyvuo2" x1="44.96" y1="32.38" x2="35.38" y2="21.5" gradientUnits="userSpaceOnUse"><stop stop-color="#A8D8E1"/><stop offset="1" stop-color="#04A387"/></linearGradient><linearGradient id="bgxoyvuo2" x1="11.05" y1="23.61" x2="20.62" y2="34.49" gradientUnits="userSpaceOnUse"><stop stop-color="#A8D8E1"/><stop offset="1" stop-color="#04A387"/></linearGradient><linearGradient id="cgxoyvuo2" x1="44.24" y1="23.21" x2="21.21" y2="21.86" gradientUnits="userSpaceOnUse"><stop stop-color="#A8D8E1"/><stop offset=".11" stop-color="#A1D1DE"/><stop offset=".28" stop-color="#8EBDD6"/><stop offset=".49" stop-color="#6D9CC6"/><stop offset=".75" stop-color="#4272AF"/><stop offset="1" stop-color="#184894"/></linearGradient><linearGradient id="dgxoyvuo2" x1="11.76" y1="32.8" x2="34.79" y2="34.14" gradientUnits="userSpaceOnUse"><stop stop-color="#A8D8E1"/><stop offset=".11" stop-color="#A1D1DE"/><stop offset=".28" stop-color="#8EBDD6"/><stop offset=".49" stop-color="#6D9CC6"/><stop offset=".75" stop-color="#4272AF"/><stop offset="1" stop-color="#184894"/></linearGradient></defs></svg>