<!-- by TradingView --><svg width="56" height="56" xmlns="http://www.w3.org/2000/svg"><path fill="url(#paint0_linear)" d="M0 0h56v56H0z"/><path d="M10.028 31C6.283 29.078 4.448 25.532 4 24h2c.985 2.834 3.308 4.646 4 5 2.106-1.503 3.787-4.091 4-5h1.996c-1.163 3.846-4.463 6.27-5.968 7zM17 29.753V24h2v4.501c1.744.982 4.317.409 5 0V24h2v5.753c-.999.95-3.373 1.227-4.435 1.247-2.579-.032-4.118-.845-4.565-1.247zM37 24H27l1.562 2H32l-5 5h10l-1.526-2H32l5-5zm1 0h2v7h-2zm5.5 0H41l3.516 3.5L41 31h2.5l2.5-2.5 2.5 2.5H51l-3.538-3.5L51 24h-2.5L46 26.5 43.5 24z" fill="#fff"/><defs><linearGradient id="paint0_linear" x1="10.418" y1="9.712" x2="68.147" y2="76.017" gradientUnits="userSpaceOnUse"><stop stop-color="#1A1E21"/><stop offset="1" stop-color="#06060A"/></linearGradient></defs></svg>