<!-- by TradingView --><svg width="56" height="56" viewBox="0 0 56 56" xmlns="http://www.w3.org/2000/svg"><path fill="#F0F3FA" d="M0 0h56v56H0z"/><path d="M51.22 21.34c.38.25.64.65.74 1.1.1.45.02.93-.22 1.32l-1.17 1.94c0-.38-.11-.76-.3-1.08l-1.5-2.49.14-.24c.24-.4.62-.67 1.05-.77.43-.1.89-.02 1.26.22" fill="#90ABA0"/><path d="m46.86 24.62 1.5-2.49-.15-.24a1.73 1.73 0 0 0-1.05-.84 1.6 1.6 0 0 0-1.3.22 1.71 1.71 0 0 0-.75 1.14 1.84 1.84 0 0 0 .27 1.35l1.17 1.94c.01-.38.12-.76.31-1.08" fill="#AAC27F"/><path d="M49.45 27.23a1.83 1.83 0 0 0 .52-2.42l-1.4-2.34-1.42 2.34a1.8 1.8 0 0 0 .35 2.29c.2.18.45.3.71.36l.08.02h.55l.07-.02c.2-.04.38-.12.54-.23" fill="#F3C300"/><path d="M17 25h1v10h-1V25ZM19.66 25h1.2l3.15 8.77L27.24 25h1.13l-3.74 10H23.4l-3.75-10ZM32.25 35c-.62 0-1.23-.11-1.8-.35-1.78-.77-2.47-2.8-2.45-4.6-.02-1.86.73-3.9 2.53-4.7a4.35 4.35 0 0 1 1.78-.35c2.78-.04 4.3 2.37 4.27 4.94.03 2.6-1.5 5.1-4.33 5.06Zm.03-.91c.58 0 1.07-.11 1.47-.33 1.37-.71 1.8-2.36 1.8-3.79 0-1.97-1-4.05-3.27-4.05-.57 0-1.05.1-1.46.32-1.36.7-1.83 2.34-1.82 3.75-.02 2.03.98 4.1 3.28 4.1ZM17.5 23.7c.4 0 .74-.35.74-.78a.76.76 0 0 0-.74-.77c-.4 0-.74.35-.74.77 0 .43.33.78.74.78ZM42.54 29.52l-1.42-.24a5.65 5.65 0 0 1-1.02-.26c-.22-.07-.42-.2-.6-.35a.96.96 0 0 1-.29-.46c-.05-.2-.08-.4-.07-.6 0-.22.04-.43.12-.64.1-.21.24-.4.43-.54.23-.18.5-.3.78-.38.4-.1.8-.15 1.2-.14.37 0 .73.03 1.09.11.26.06.5.17.72.33.2.14.35.32.47.53.1.15.17.3.23.47h1.04a4.3 4.3 0 0 0-.33-.87c-.15-.3-.37-.56-.63-.77a3.09 3.09 0 0 0-1.04-.52 5.7 5.7 0 0 0-2.97 0c-.4.1-.78.28-1.11.51a2.36 2.36 0 0 0-1 1.96c-.01.45.06.82.2 1.12.13.3.34.55.6.74.31.22.65.38 1 .49.43.13.88.23 1.32.31l1.14.18c.34.06.67.15 1 .28.22.09.42.22.59.4.13.15.23.33.28.52.05.2.07.4.07.61a1.68 1.68 0 0 1-.56 1.28c-.37.34-1 .51-1.9.51-.9 0-1.58-.15-2.06-.45-.48-.3-.78-.92-.91-1.65h-1.03c.03.47.16 1.02.4 1.43.2.36.5.66.84.9.38.24.8.41 1.23.5a6.93 6.93 0 0 0 3.1-.04c.4-.12.77-.31 1.1-.57.28-.23.51-.52.67-.85.15-.33.22-.68.22-1.04 0-.87-.24-1.51-.72-1.93a4.43 4.43 0 0 0-2.18-.88ZM14.31 22l-4.05 11.64L6.25 22H5l4.64 13h1.2l4.62-13H14.3Z" fill="#3D4543"/></svg>