<!-- by TradingView --><svg width="56" height="56" xmlns="http://www.w3.org/2000/svg"><path fill="#FF341D" d="M0 0h56v56H0z"/><path fill-rule="evenodd" d="M31.51 12h-6.974c-.688 0-1.011.598-1.011.598a42.519 42.519 0 00-2.682 8.245 42.519 42.519 0 00-8.245 2.682s-.598.407-.598.84v7.118c0 .598.45.944.45.944 1.522 1 4.476 2.12 8.172 2.836.73 3.735 1.98 6.598 3.086 8.285 0 0 .346.452.73.452h7.096c.66 0 .941-.532.941-.532 1.396-2.64 2.307-5.4 2.852-8.141 2.742-.545 5.502-1.456 8.14-2.852 0 0 .533-.35.533-.83v-7.05c0-.479-.452-.887-.452-.887-1.687-1.106-4.55-2.356-8.285-3.086-.715-3.696-1.837-6.65-2.836-8.171 0 0-.258-.451-.917-.451zm1.643 8.281c-.6-2.795-1.418-5.006-2.127-6.281h-4.931c.734 1.561 1.466 3.601 2.007 6.005a35.02 35.02 0 015.05.276zm-4.663 1.72a32.736 32.736 0 015.046.353 38.884 38.884 0 01.417 4.052 34.15 34.15 0 01-5 .537 35.882 35.882 0 00-.463-4.942zm-2.418-1.905a27.956 27.956 0 00-1.536-4.693 40.051 40.051 0 00-1.555 5.045 37.867 37.867 0 013.09-.352zm-3.524 2.452a35.95 35.95 0 013.927-.475 33.85 33.85 0 01.476 4.878 33.848 33.848 0 01-4.878-.476 35.95 35.95 0 01.475-3.927zm-2.1.433a40.034 40.034 0 00-5.045 1.555 27.955 27.955 0 004.693 1.536c.072-1.003.188-2.034.352-3.09zm-.443 5.121c-2.404-.54-4.444-1.273-6.005-2.007v4.932c1.275.708 3.486 1.527 6.281 2.126a35.019 35.019 0 01-.276-5.05zm2.733 7.512c.457 2.062 1.075 3.792 1.7 5.123a35.225 35.225 0 001.546-4.804 40.867 40.867 0 01-3.246-.32zm3.668-1.661a38.816 38.816 0 01-4.052-.417A32.75 32.75 0 0122 28.49c1.537.253 3.193.42 4.942.462a34.204 34.204 0 01-.537 5zm1.62 2.046A37.258 37.258 0 0126.08 42h4.9a27.712 27.712 0 002.227-6.322 37.22 37.22 0 01-5.183.321zm5.575-2.398c-1.749.27-3.486.392-5.17.399.301-1.741.463-3.432.514-5.055A36.151 36.151 0 0034 28.43a34.711 34.711 0 01-.399 5.171zm2.077-.393A27.712 27.712 0 0042 30.981v-4.9a37.258 37.258 0 01-6.001 1.944c.011 1.68-.085 3.42-.32 5.183zm.255-7.224a35.14 35.14 0 004.804-1.546c-1.33-.625-3.06-1.243-5.123-1.7a40.946 40.946 0 01.319 3.246z" fill="#fff"/></svg>