<!-- by TradingView --><svg xmlns="http://www.w3.org/2000/svg" width="56" height="56" viewBox="0 0 56 56"><path fill="#F0F3FA" d="M0 0h56v56H0z"/><path d="M22.1 32.52c-2.13 1.18-4.3 3.67-3.3 10.44 2.36-6.54 5.84-10.93 6.53-11.83-.41.26-.68.35-.97.45-.77.26-1.54.55-2.25.94Z" fill="#F5A800"/><path d="m25.33 31.13-.07.1c-.85 1.1-4.17 5.4-6.46 11.73l.64-.37c2.54-1.45 8.21-4.68 6.36-9.93-.18-.5-.33-1-.47-1.53Z" fill="#FDBD50"/><path d="M26.8 28.56c.05.44.02.92 0 1.1 2.5-1.6 7.08-6.25 9.24-9.73-4.45 1.25-9.97 2.85-9.25 8.63Z" fill="#8DC6EB"/><path d="M36.04 19.93c-2.16 3.48-6.74 8.14-9.25 9.74 7.52-.26 8.27-4.37 9.05-8.68l.2-1.06Z" fill="#5EB3E4"/><path d="M25.82 28.7c-.06.33-.12 1.2-.14 1.6 0 0-1.38-3.45-4.03-7.73A76.07 76.07 0 0 0 13.52 12a41.84 41.84 0 0 1 7.16 3.34c5.28 3.24 6.1 7.58 5.14 13.36Z" fill="#EE7623"/><path d="M13.52 12a76.07 76.07 0 0 1 8.13 10.57 55.2 55.2 0 0 1 4.03 7.73c-.28-.12-1-.24-1.32-.28-.24-.06-.54-.11-.88-.17-3.24-.55-10.4-1.76-9.96-17.85Z" fill="#F8995C"/><path d="M26.59 31.76c-.01-.34-.26-.84-.35-1.05C32.98 38.78 42.5 44 42.5 44s-5.72 0-9.8-1.9c-4-1.85-6.02-6.04-6.12-10.34Z" fill="#00205C"/><path d="M26.58 31.76c.1 4.3 2.12 8.49 6.12 10.34 4.08 1.9 9.8 1.9 9.8 1.9-3.34-11.4-8-14.82-14.87-13.29-.64.13-1.2.05-1.4 0C32.99 38.78 42.5 44 42.5 44s-5.72 0-9.8-1.9c-4-1.85-6.02-6.04-6.12-10.34Z" fill="#686F9A"/></svg>