<!-- by TradingView --><svg width="56" height="56" xmlns="http://www.w3.org/2000/svg"><path fill="#00548E" d="M0 0h56v56H0z"/><path d="M19.972 15l3.062 10h9.91l-8.017 5.746L27.989 40l-8.017-5.537L11.955 40l3.062-9.254L7 25h9.91l3.062-10z" fill="#fff"/><path d="M27.317 15H22.42l3.148 9h4.896l-3.147-9zM35.01 15h-4.896l3.148 9h4.896l-3.147-9zM40.706 25H36.16l-8.494 5.889L30.814 40h5.246l-3.498-9.111L40.706 25z" fill="#fff"/><path d="M48.75 25h-4.547l-8.493 5.889L38.858 40h5.246l-3.498-9.111L48.75 25z" fill="#fff"/></svg>