<!-- by TradingView --><svg xmlns="http://www.w3.org/2000/svg" width="56" height="56"><path fill="#F0F3FA" d="M0 0h56v56H0z"/><path fill-rule="evenodd" d="M11.97 33.4l-.97.8c.29.42.77.64.97.7l-.31.72h3.3c.88 6.71 6.27 8.38 9.52 8.38 2.4 0 4.42-.92 5.24-1.38l-.37-.29 2.76-.5a12.31 12.31 0 01-3.67-1.5l-.36-1.59h.36c-.29-.58-1.16-1.06-1.56-1.23-.09-.4-.5-.8-.69-.94l.38-.26-.38-.43-.29-1.13-.22-1.35a32.25 32.25 0 0012.18-7.28h-.51c3.83-2.43 4.7-5.82 4.65-7.21-.09-3.54-2.8-4.14-4.14-4-5.61.44-10.58 6.6-12.14 8.53-.33.4-.5.63-.5.56 0-.28.3-1 .46-1.32l-.46.24c.02-.52 1.38-2.5 2.06-3.41-3.1 2.25-5.02 6.07-5.6 7.7.29-2.41 1.99-4.88 2.8-5.8.11-.9.36-1.46.46-1.63v.65a22.52 22.52 0 015.1-5.15 13.85 13.85 0 00-3.47 4.06C29 15.8 33.87 12.97 36 12l-3.2 1.06v-.32l-3.04 1.65.64-1.33c-10.74 6-14.48 15.25-15 19.12a5.74 5.74 0 00-3.43.7v.52zm16.13-9.87c-1.48 1.8-2.74 5.22-3.19 6.71 11.66-3.59 15.67-9.12 15.62-11.64-.04-2-1.72-2.46-2.72-2.4-4.6.24-9.01 5.19-10.64 7.63l.93-.3zm4.47 7.69l2.28 4.25.79-1.05 1.44 1.24.5-.58-1.45-1.3.9-.93-4.46-1.63z" fill="#D6000F"/></svg>