<!-- by TradingView --><svg width="56" height="56" viewBox="0 0 56 56" xmlns="http://www.w3.org/2000/svg"><path fill="url(#adwtlbfro)" d="M0 0h56v56H0z"/><path d="m28.07 22.38-1.26 3.59L30.44 37h2.36l2.96-9 2.96 9h2.36L47 19h-2.37L39.9 32.5 37 24.23 38.72 19h-2.37l-.59 1.69-.59-1.69H32.8l1.72 5.23-2.9 8.27-3.55-10.12Z" fill="#fff"/><path d="M9 34.75V37c2.38 0 4.95-8.25 5.94-12.38a94.44 94.44 0 0 1 3.56 7.32c.6 1.68 1.78 5.06 4.16 5.06 2.37 0 3.56-3.38 3.56-5.06 0-1.69 2.37-7.88 2.37-9 0-1.13 1.2-3.94 0-3.94-1.18 0-2.37 5.63-2.97 6.75-.59 1.13-2.37 7.31-2.96 7.87-.6.57-3.57-5.06-4.16-7.3-.6-2.26-2.38-7.32-4.16-7.32C12.92 19 10.2 29.5 9 34.75Z" fill="#BCAB98"/><defs><linearGradient id="adwtlbfro" x1="10.42" y1="9.71" x2="68.15" y2="76.02" gradientUnits="userSpaceOnUse"><stop stop-color="#1A1E21"/><stop offset="1" stop-color="#06060A"/></linearGradient></defs></svg>