<!-- by TradingView --><svg xmlns="http://www.w3.org/2000/svg" width="56" height="56"><path fill="#F0F3FA" d="M0 0h56v56H0z"/><path d="M28.19 12c8.38.24 13.77 7.35 14.22 11h.09a3.5 3.5 0 110 7h-17a3.5 3.5 0 110-7h9.7a10.84 10.84 0 00-10.34-6.77c-4.29 0-9.72 2.94-11.78 4.47 5.26-7.48 11.78-8.7 15.1-8.7zm13.07 21.52c.62 1.03 1.26 3.5-1.18 5.1-.29.2-.58.4-.9.6C36.22 41.24 32.13 44 25.83 44 19.45 44 11 39.76 11 30.5c0-8.93 9.18-11.33 11.89-11.76-2.35.98-7.24 4.26-7.24 9.48 0 6.64 6.7 9.09 10.17 9.09 3.48 0 6.9-1.35 10.18-4.41 2.19-2.04 4.64-.41 5.26.62z" fill="#3C8E33"/></svg>