<!-- by TradingView --><svg width="56" height="56" viewBox="0 0 56 56" xmlns="http://www.w3.org/2000/svg"><path fill="#F0F3FA" d="M0 0h56v56H0z"/><path fill-rule="evenodd" d="m20.85 28.58 4.62-10.22A.6.6 0 0 1 26 18h3.85a.6.6 0 0 1 .53.37l4.23 9.67 3.35-9.62a.6.6 0 0 1 .56-.42h5.75c.5 0 .86.54.69 1.06l-7.01 21.32a.87.87 0 0 1-.8.62H34.6C32.7 40.32 29 37.89 29 33.66c0-2.77.54-3.9 1-4.16-.76 0-4.56.77-6.21 7.07-1.32 5.04-2.51-3.22-2.94-7.99Zm10.43 8.24A5.27 5.27 0 0 1 30 33.26c0-2.12.88-3.54 1.7-3.76.12-.03.25.22.29.41.04.23-.05.35-.18.47a4.2 4.2 0 0 0-1.2 3.1c0 1.89.44 3.01.67 3.34Z" fill="#1E3265"/><path d="M17.91 18.38a.53.53 0 0 0-.5-.38H11.8c-.54 0-.93.58-.74 1.14l6.82 21c.17.52.62.86 1.12.86h4.34c-.05-1.86.2-3.39.48-4.48l-5.9-18.14Z" fill="url(#aapdcgxrv)"/><defs><linearGradient id="aapdcgxrv" x1="11.3" y1="18.46" x2="23.21" y2="39.51" gradientUnits="userSpaceOnUse"><stop stop-color="#3768AB"/><stop offset=".89" stop-color="#1E3169"/></linearGradient></defs></svg>