<!-- by TradingView --><svg width="56" height="56" viewBox="0 0 56 56" xmlns="http://www.w3.org/2000/svg"><path fill="#F0F3FA" d="M0 0h56v56H0z"/><path d="M28.29 12c10.1 0 12.68 6.33 12.71 9.49-.34-1.67-1.85-3.13-2.7-3.92 1.33 2.04 1.33 3.53 1.33 4.4V22c-.73-2.27-1.74-2.79-2.87-3.64C38.18 19.95 38.1 21.99 38 23c-.37-1.64-2.51-6-8.34-6S19 22.86 19 28.94C19 38.97 28.07 42 31.55 42c3.47 0 5.4-1.27 7.45-2.3-1.2 1.34-6.32 4.3-10.93 4.3C15.75 44 12 32.34 12 27.88 12 23.42 15.65 12 28.29 12Z" fill="#10ADCE"/><path d="M20 28.99c0-2.08.49-4.28.73-4.99-.84 10.15 7.43 11 8.99 11 1.56 0 3.1-.78 4.28-1.35-.83 1.24-3.7 2.35-5.32 2.35-1.63 0-2.7 0-4.68-1 1.89 2.6 5.72 4 8.4 4a9.66 9.66 0 0 0 5.6-2 9.32 9.32 0 0 1-7.28 3.5C22.61 40.5 20 32.27 20 28.99Z" fill="#10ADCE"/><path fill-rule="evenodd" d="M29.5 30a4.5 4.5 0 1 0 0-9 4.5 4.5 0 0 0 0 9Zm0-2a2.5 2.5 0 1 0 0-5 2.5 2.5 0 0 0 0 5Z" fill="#1FAB4B"/><circle cx="29.5" cy="25.5" r="1.5" fill="#10ADCE"/></svg>