<!-- by TradingView --><svg width="56" height="56" viewBox="0 0 56 56" xmlns="http://www.w3.org/2000/svg"><path fill="#014A96" d="M0 0h56v56H0z"/><path d="M29.17 25.27H28V25h3.82v.27h-.88l3.14 9.12h.03l1.24-3.46-1.96-5.66h-.99V25h6.7v.27h-.43c-.67 0-1.06.15-1.3.9l-.98 2.7 1.83 5.52h.03l2.82-7.92c.1-.23.17-.49.2-.74 0-.25-.17-.46-.73-.46h-.48V25H43v.27h-.15c-.86 0-1.17.36-1.43 1.1L37.62 37h-.23l-1.86-5.64h-.03L33.48 37h-.22l-4.1-11.73Zm7.02 3.2h.03l.76-2.12c.1-.21.14-.44.15-.67 0-.2-.06-.41-.66-.41H35.1l1.1 3.2ZM44.87 33.5h-3.3l-.64 1.8c-.12.33-.2.67-.23 1.03 0 .22.19.41.68.41h.8V37H39v-.26h.5c.47 0 .68-.05.97-.99L43.79 25h.17l3.76 11.74H49V37h-4.53v-.26H46l-1.12-3.24Zm-1.66-5.62h-.03L41.66 33h3.14l-1.59-5.12Z" fill="#fff"/><path d="M27.11 15.35c0 .67-1.53 1.35-3.42 1.35-1.88 0-3.43-.68-3.43-1.35 0-.68 1.54-1.35 3.42-1.35s3.43.67 3.43 1.35Zm6.18 3.1c-1.36-1.48-3.92-2.73-5.72-3.24v.18l-.01.25-.04.06a2 2 0 0 0-.03.05 16.92 16.92 0 0 1 4.74 4.12c.58-.44.93-.83 1.06-1.42Zm-6.01-2.4c1.26.6 3.54 2.57 4.66 4.06-.89.67-2.74 1.24-3.23 1.35-.3-.9-2.05-4.28-2.55-4.73.43-.12.82-.35 1.12-.67Zm-3.47 6V17.1a7.77 7.77 0 0 0 1.92-.24c.66.6 2.34 3.9 2.55 4.69a18.3 18.3 0 0 1-4.47.5Zm-4.2-6.86c-1.8.5-4.37 1.75-5.73 3.23.14.6.49.98 1.07 1.43.4-.7 2.8-3.09 4.74-4.12l-.03-.05a.37.37 0 0 1-.04-.06c-.02-.04-.02-.1-.02-.27v-.16Zm-4.37 4.88a16.6 16.6 0 0 1 4.66-4.05c.3.33.69.56 1.12.68-.5.45-2.25 3.82-2.55 4.72-.5-.1-2.35-.67-3.23-1.35Zm8.13-2.99v4.95a18.4 18.4 0 0 1-4.48-.5c.23-.78 1.9-4.09 2.55-4.7.48.18 1.48.23 1.93.25Zm10.32 1.71a3.22 3.22 0 0 1-1.14 1.43c.63.7 2.1 3.28 2.4 4.28H37a13.15 13.15 0 0 0-3.31-5.71Zm.81 5.71h-4.72c-.25-.9-.54-1.78-.89-2.65.62-.1 2.72-.86 3.32-1.4.56.72 2.04 3.05 2.3 4.05Zm-7.34 0h2.14c-.12-.77-.42-1.46-.66-2.03-.08-.17-.15-.33-.2-.48-.6.23-3.88.6-4.61.51v6.82c.46.01 4.5-.21 6-.66L28.77 26h-1.61v-1.5Zm3.67 6.99 1.14 3.25s-.98.33-1.3.38c.18-1.2.23-2.42.16-3.63Zm1.26 3.68s-1.4.41-1.52.43a9.16 9.16 0 0 1-1.86 4.34c1.18-.47 3.41-1.8 4.08-2.7 0 0-.55-1.53-.7-2.07Zm-8.26 1.22v4.6c4.14.09 5.5-1.37 6.3-5.31-2.08.52-5.29.69-6.3.7Zm-.5 4.6v-4.6a33.07 33.07 0 0 1-6.3-.72c.8 3.95 2.16 5.4 6.3 5.33Zm-6.28-12.4c.9.45 5.84.76 6.3.75v-6.82c-.73.1-4-.28-4.6-.5-.36.8-1.6 4.62-1.7 6.57Zm6.3 7.36V29.8c-.13.09-4.97-.3-6.37-.72-.3 2.28-.27 5.07 0 6.14.3.15 3.58.73 6.37.73Zm-8.71-15.7a3.2 3.2 0 0 1-1.14-1.43c-.74.58-2.88 3.54-3.3 5.7.08.32.84 1.48 1.46 1.76.31-1.43 1.63-4.4 2.98-6.03Zm1.91 8.22a13.12 13.12 0 0 1-4.52-1.92c.2-1.79 2.28-5.3 2.95-6.05.6.54 2.7 1.3 3.3 1.4a34.57 34.57 0 0 0-1.73 6.57Zm.02 7.1c-.12-.02-3.67-1.12-4.52-1.86 1.65 3.68 4.9 5.7 6.52 6.38-1.06-.92-1.97-3.7-2-4.52Zm-.07-.5c-.28-1.16-.23-4.5-.02-6.1-1.74-.43-3.6-1.2-4.55-1.9-.52 1.83-.43 4.72.03 6.07.32.43 3.5 1.82 4.54 1.94Zm7.33-5.29v6.15c2.8 0 6.07-.58 6.37-.73.28-1.16.21-4.5.13-4.92 0 0-.2-.66-.38-1.16-1.28.42-5.99.75-6.12.66ZM10.29 25.5c-.19-.23-.3-.37-.23-.25-.32 4.1.73 6.47 1.44 7.74-.45-2.04-.43-4.14.06-6.17-.28-.06-.92-.87-1.27-1.32Z" fill="#BFBFBF"/></svg>