<!-- by TradingView --><svg width="56" height="56" viewBox="0 0 56 56" xmlns="http://www.w3.org/2000/svg"><path fill="#F0F3FA" d="M0 0h56v56H0z"/><path d="M25.84 12.26a15.6 15.6 0 0 1 4.68-.15c7.17.8 12.65 6.85 13.4 13.84.51 4.85-1.4 9.36-4.88 12.71A15.9 15.9 0 0 1 28.1 43H13.65a.52.52 0 0 1-.43-.25c-.18-.3-.25-.65-.2-1.04.02-.3 1.7-1.15 3.06-1.85.79-.4 1.47-.75 1.7-.92.1-.08.13-.18.08-.3a16.15 16.15 0 0 1-4.8-10.11 9.07 9.07 0 0 1 .02-2.06c.7-7.4 5.32-12.78 12.76-14.21ZM13.12 26.57Zm11 9.15c.57.08 1.14 0 1.71-.21.06-.02.12 0 .18.01.09.03.17.05.2-.03.12-.24.2-.47.25-.7.43-1.99.9-4.07 1.44-6.25.06-.23.23-.8.54-.77.36.01.59.21.67.6.57 2.41 1.1 4.75 1.62 7 0 .07.04.12.1.15.08.06.15.03.22 0 .06-.02.13-.05.2-.02.62.25 1.49.44 2.04.02.12-.1.32 0 .47.07l.11.05c.14.05.18 0 .14-.14a2.2 2.2 0 0 0-.04-.14c-.06-.16-.13-.36-.06-.5.67-1.42 1.4-3.58 2.17-6.47.7-2.61 1.17-4.7 1.4-6.25.26-.14.36-.32.3-.54-.03-.14-.34-.13-.6-.13-.17 0-.32.01-.4-.02-.55-.21-1.2-.15-1.92.2a.63.63 0 0 0-.38.55c-.19 2.4-.83 5-1.72 7.47-.05.13-.2.2-.33.16-.32-.11-.74-.37-.72-.77 0-.2 0-.4-.04-.6a46.99 46.99 0 0 0-1.4-6.04 4.93 4.93 0 0 1-.16-.86c-.01-.1-.05-.17-.16-.14a.48.48 0 0 0-.15.07c-.08.05-.16.1-.25.06-.6-.3-1.2-.32-1.8-.06a.48.48 0 0 1-.48-.04c-.2-.13-.26.34-.3.66-.01.1-.02.2-.04.24-.63 2-1.12 4.24-1.47 6.75a.86.86 0 0 1-.77.73c-.12.01-.2-.04-.23-.15-.2-.6-.39-1.2-.57-1.82-.62-2.01-1.05-4.04-1.3-6.1a3.71 3.71 0 0 0-2.08-.44c-.1 0-.17.08-.25.14-.1.1-.2.18-.35.11a1.12 1.12 0 0 0-.37-.1c-.37-.02-.44.11-.21.41.32.42.46.95.44 1.61.47 2.47 1.18 5.2 2.13 8.2.4 1.27.81 2.32 1.23 3.15.07.15-.02.36-.1.53l-.05.15c.03.18.57.19.9.19h.23Z" fill="url(#axgqb2bqf)"/><defs><linearGradient id="axgqb2bqf" x1="18.28" y1="14.97" x2="36.45" y2="40.09" gradientUnits="userSpaceOnUse"><stop stop-color="#0C76FD"/><stop offset=".48" stop-color="#4D62FF"/><stop offset="1" stop-color="#943AFF"/></linearGradient></defs></svg>