<!-- by TradingView --><svg width="56" height="56" xmlns="http://www.w3.org/2000/svg"><path fill="#F0F3FA" d="M0 0h56v56H0z"/><path d="M22.154 40.815c.71.473 1.884-1.764 1.856-1.74-.475.395-.649.124-.812-.233-.028-.06-.116-.116-.116-.116s-.232.696-.58 1.16c-.227.303-.696.697-.348.928zM24.019 41.627c.92.348 1.884-1.764 1.856-1.74-.476.395-.649.124-.812-.233-.028-.06-.116-.116-.116-.116s-.232.696-.58 1.16c-.227.303-.74.78-.348.928zM32.132 41.743c-.92.348-1.767-1.88-1.74-1.857.476.396.65.125.813-.232a.358.358 0 01.116-.116s.115.812.463 1.276c.227.303.74.78.348.929zM34.104 40.815c-.92.348-1.89-1.752-1.856-1.74.348.115.649.124.812-.233.028-.06.116-.116.116-.116s.232.696.58 1.16c.227.303.74.78.348.928z" fill="#15A0D9"/><path d="M18.325 25.963l7.542-8.354 3.597-.696 5.221 4.293 2.32 4.99-1.74 5.336-2.204 3.017c-.078.657-.023 2.019-.116 2.204-.093.186-.039 1.083.116 1.509l-.464.58-.697-.58-.232.928-.928.696-.928-.464-1.508.928-1.277-.232-.812-.928-.58.696-.464-.464-.58-1.16-1.16.58-.465-1.276c.155-1.006.256-3.087-.58-3.365-.835-.279-3.055-5.608-4.06-8.238z" fill="#F1C9D1"/><path d="M26.767 10.072a9.122 9.122 0 00-2.291.465c-1.84.6-3.232 1.53-4.373 2.931a4.255 4.255 0 00-.274.355c-.009.02-.139.11-.291.199-.603.357-1.24.79-1.822 1.24a18.125 18.125 0 00-3.018 3.037 16.55 16.55 0 00-2.802 5.628c-.263.928-.421 1.781-.542 2.905-.064.585-.072 2.46-.015 3.013.098.948.24 1.804.421 2.536.055.222.095.41.09.415-.024.02-.384-.288-.591-.507-.119-.124-.32-.352-.447-.507-.13-.156-.234-.25-.26-.25-.072 0-.112.082-.092.356.035.467.291 1.116.611 1.54l.2.207h-.188c-.225 0-.542-.023-.764-.13-.242-.116-.624-.347-.812-.58-.216-.265-.252-.35-.353-.154-.207.409-.115 1.308.202 1.945.297.6.69.946 1.358 1.19.115.044.213.093.219.113.017.05-.18.18-.381.154-.19-.023-.637-.249-.663-.29-.023-.037-.15-.037-.173 0-.144.234.83.98 1.701 1.307.571.213 1.113.294 1.816.27.286-.011.554-.025.597-.037.07-.017.09.003.256.254a16.956 16.956 0 004.348 4.413c.896.628 2.196 1.338 3.176 1.733a16.823 16.823 0 008.859 1.037c.83-.12 1.91-.383 2.744-.66a17.182 17.182 0 003.883-1.9 17.133 17.133 0 004.647-4.623c.141-.21.21-.291.242-.283.121.038.57.075.882.075a4.688 4.688 0 002.822-.937c.358-.268.533-.49.502-.64-.015-.063-.033-.043-.252.05-.256.106-.65.263-.812.231-.072-.014-.147-.142-.15-.157-.003-.017.118-.075.268-.132.363-.136.574-.26.799-.47.412-.386.674-.902.787-1.537.046-.25.026-.908-.032-1.034-.046-.11-.141-.217-.187-.217-.023 0-.137.227-.325.415-.294.297-.366.36-.58.464-.25.12-.65.13-.877.13h-.197l.249-.268c.1-.15.222-.354.271-.455.291-.608.418-1.444.216-1.404-.029.006-.158.138-.291.297-.311.374-.666.735-.897.91a1.35 1.35 0 01-.204.142c-.012 0 .011-.112.049-.254.104-.389.285-1.303.351-1.764.283-1.98.217-4.001-.201-5.961-.946-4.451-3.78-8.386-7.752-10.764l-.472-.283-.165-.273a5.132 5.132 0 00-.847-1.099c-.528-.53-1.012-.824-1.741-1.06a3.314 3.314 0 00-1.226-.153c-.29.011-.392.028-.61.103-.148.05-.272.09-.28.09-.009 0-.032-.05-.052-.11-.153-.467-.686-.824-1.54-1.032a8.363 8.363 0 00-1.916-.228 20.914 20.914 0 00-.808.003zm10.565 6.256c1.07.839 2.194 1.995 2.972 3.067 1.597 2.194 2.54 4.655 2.854 7.437.06.54.087 2.027.043 2.638-.08 1.156-.317 2.444-.637 3.459a18.77 18.77 0 00-.118.375c-.069.233-.075.239-.297.285-.34.075-.775.107-1.424.104-.438-.003-.625.006-.657.029-.063.054-.05.184.032.26.098.092.118.227.06.411-.046.142-.216.537-.248.568-.008.009-.052.07-.098.136-.112.17-.372.406-.498.458-.058.026-.037.035-.106.038-.167.009-.229.07-.116.232.066.09.028.145.155.183.121.034.214.092.36.225.26.23.554.446.816.6.113.068.293.03.293.037 0 .04-.73.991-1.04 1.36-2.057 2.465-4.813 4.22-7.852 5.005-1.484.383-2.568.507-4.191.48-1.13-.016-1.73-.077-2.698-.267a15.313 15.313 0 01-9.008-5.486c-.268-.334-.736-.939-.736-.976 0-.012.023-.065.116-.116.294-.168.657-.34.908-.565.135-.121.3-.24.369-.269l-.001-.095-.025-.008c-.162-.06-.314-.179-.314-.242 0-.02-.012-.038-.023-.038-.058 0-.418-.723-.447-.893a.286.286 0 00-.026-.075 2.585 2.585 0 01-.08-.326c-.05-.24-.056-.317-.03-.395.02-.055.043-.098.055-.098.012 0 .049-.083.078-.13l-.126.117h-.687c-.671 0-.934-.192-1.338-.284l-.155-.035-.124-.389a15.43 15.43 0 01-.453-7.71 15.37 15.37 0 015.24-8.819c.128-.104.234-.184.24-.181.003.005-.043.138-.11.296a24.65 24.65 0 00-.62 1.825c-.215.74-.426 1.747-.573 2.721-.046.303-.098.548-.141.649-.3.71-.54 1.68-.623 2.525-.046.435-.02 1.482.04 1.874a6.98 6.98 0 00.71 2.208c.245.496.406.75.87 1.378.375.502.802 1.11.802 1.133 0 .014-.026.026-.055.026-.032 0-.162.055-.291.12-.286.145-.56.404-.77.724l-.147.225.04.15c.024.084.05.268.061.415.017.263.017.265-.072.378-.087.106-.087.115-.04.155.026.023.126.033.178.036.357.023.71.366.928 1.044a.841.841 0 01-.046.598c-.043.084-.063.156-.052.196.01.038.168.22.35.407l.444.191.063.131c.772-.083 1.337-.224 1.853-.464.372-.172.64-.357.949-.654l.262-.254.072.095c.04.052.104.162.141.24.06.135.067.184.075.836.003.38-.003.787-.014.905l-.023.213-.156-.135c-.274-.23-.539-.317-.605-.193-.02.034-.023.245-.012.567.032 1-.147 1.75-.565 2.353a2.606 2.606 0 01-.59.61l-.11.076.08.032c.113.043.404-.03.612-.156.233-.141.562-.459.723-.698.159-.239.3-.58.363-.882.05-.233.06-.256.116-.256.273 0 .472.779.657.997.23.272.588.274.784.173a2.11 2.11 0 00.28-.222c.11-.095.201-.173.207-.167l.09.213c.043.11.135.291.198.4.067.11.142.24.17.29.081.132.289.328.404.377.136.054.346.054.533 0 .11-.035.19-.087.315-.21l.167-.165.274.274c.256.256.4.354.671.458.067.026.06.035-.152.26-.246.253-.433.585-.494.867-.051.24-.02.655.061.825.15.311.51.573.951.691.254.067.758.07 1.006.003.793-.213 1.251-.85 1.127-1.57-.054-.33-.19-.566-.47-.83l-.236-.226.193-.095c.245-.124.465-.323.577-.519.115-.202.164-.202.38.018.364.369.845.423 1.154.135.099-.1.128-.16.21-.28.112-.164.3-.539.383-.77.072-.192.101-.198.19-.03.047.091.248.238.367.267.152.038.273-.011.426-.164.133-.133.214-.254.488-.724.057-.098.12-.175.14-.175.027 0 .102.16.191.406.084.225.208.504.274.62.158.27.585.703.804.813.167.083.334.1.357.04.015-.038-.12-.265-.12-.265s-.355-.482-.49-.744c-.274-.539-.393-.992-.436-1.704-.032-.498-.052-.614-.127-.758-.12-.236-.418-.268-.524-.057a7.533 7.533 0 00-.214.579c-.193.57-.27.755-.412.977-.133.205-.193.24-.34.196-.08-.026-.153-.083-.26-.213-.224-.271-.322-.3-.521-.159-.118.084-.196.22-.352.612-.228.576-.328.726-.548.81-.115.043-.132.043-.213.002-.049-.026-.181-.158-.297-.294-.372-.444-.476-.426-.905.145-.332.44-.464.562-.836.758-.173.095-.343.187-.375.207-.052.032-.092.02-.331-.098-.649-.323-.943-.59-1.145-1.046-.092-.214-.14-.265-.25-.265-.119 0-.182.043-.482.337-.305.294-.366.305-.53.115-.116-.132-.271-.426-.415-.784-.159-.4-.338-.59-.545-.59-.107 0-.2.08-.591.515-.098.11-.153.147-.199.141-.04-.005-.124-.1-.248-.276l-.184-.268.023-1.24.026-1.242.331.268c1.51 1.22 2.626 1.865 3.603 2.081.358.078.94.084 1.312.009 1.015-.2 2.176-.85 3.583-2.004.193-.158.352-.28.355-.268 0 .012.006.046.011.078.006.032.026.219.044.418.04.427.123.948.178 1.11.058.173.139.158.202-.032.09-.274.196-1.266.196-1.86 0-.34.052-.48.3-.841.21-.306.216-.311.256-.245.24.39.398.605.588.804.514.536 1.05.787 1.776.825l.337.017.139-.112c.075-.064.254-.19.395-.286.288-.193.418-.308.418-.375 0-.026-.044-.086-.098-.138-.182-.173-.2-.418-.058-.85.234-.71.631-1.102 1.173-1.15a.497.497 0 00.182-.04c.009-.015-.006-.064-.032-.113-.063-.124-.086-.424-.043-.603.035-.141.032-.15-.043-.24-.35-.426-.755-.74-1.107-.858a.89.89 0 01-.205-.09c0-.011.084-.109.185-.219a5.42 5.42 0 00.694-.89c.505-.758.885-1.71 1.139-2.837.035-.15.092-.398.13-.547.161-.638.199-.97.199-1.759.002-.761-.012-.928-.159-1.975-.141-1.006-.326-1.824-.58-2.594a11.492 11.492 0 00-.648-1.542 40.4 40.4 0 01-.39-.822 91.374 91.374 0 01-.705-1.651c-.032-.073.043-.03.351.213zm-8.1 3.416c-.308 1.461-1.017 2.721-2.246 3.986-.181.188-.239.266-.213.283.02.014.193.02.384.011.386-.014.712-.092 1.15-.268.827-.331 2.012-1.161 2.6-1.813a9.41 9.41 0 001.343-1.937l.21-.404a3.2 3.2 0 01.113.303c.257.735.764 1.655 1.617 2.92.68 1.006.986 1.62 1.165 2.347l.142.095c.222-.331.639-.113.812.343.141.378.196 1.06.118 1.51-.092.53-.32 1.038-.582 1.3-.199.2-.383.28-.53.234-.055-.014-.05-.028-.05-.022 0 .008-.058.266-.116.58-.277 1.548-.59 2.475-1.014 3.285-.374.72-.824 1.257-1.893 2.263-.995.934-1.24 1.13-2.024 1.596-.505.3-.73.41-1.07.522-.403.13-.709.173-1.199.17a3.451 3.451 0 01-1.372-.273c-.997-.398-2.862-1.776-3.84-2.834-1.026-1.11-1.59-2.14-1.934-3.52a53.577 53.577 0 01-.378-1.793c0-.006-.028.009-.063.032-.075.055-.233.06-.372.014-.236-.08-.328-.21-.6-.841-.184-.43-.233-.67-.233-1.136.003-.753.19-1.18.611-1.39.214-.11.352-.115.41-.026.049.078.103.358.103.53 0 .188.05.177.07-.014.031-.274.152-.686.28-.94.184-.371.466-.668.835-.876.147-.08.92-.386.94-.369a.642.642 0 01-.078.136c-.098.15-.135.34-.086.432.046.087.138.07.6-.118.697-.285.838-.317 1.417-.317.387-.003.439.006.692.083.652.208.949.2.787-.017-.063-.086-.585-.42-.893-.57a1.704 1.704 0 00-.444-.145 2.185 2.185 0 01-.248-.052c-.006-.005.032-.026.083-.046a29.674 29.674 0 001.48-.692c1.544-.807 2.671-1.677 3.406-2.631a.731.731 0 01.142-.156 1.14 1.14 0 01-.032.225zm-.968 21.159c.27.06.556.363.63.665.113.444-.068.773-.498.917-.545.182-1.058-.133-1.072-.654-.009-.34.147-.68.389-.842.17-.115.323-.141.55-.086z" fill="#453736"/><path d="M18.557 30.836c-3.524-4.06-2.204-7.194-1.624-8.934.232-3.133 1.508-6.613 3.597-8.934 1.371-1.497 3.42-2.535 4.873-2.784 2.768-.475 4.446.061 5.221.58.362.242.464.58.464.58s.928-.464 2.553.116c.639.337 1.633 1.088 2.32 2.204.928 1.509 1.43 3.12 1.857 4.177.928 1.973 1.173 2.707 1.624 5.685.287 1.895-.052 3.732-.696 5.106-.658 1.402-1.624 2.32-1.624 2.32s.348.116.696.348c.426.226.696.696.696.696.02.083-.014.29 0 .465.012.151.08.265.036.395-.036.069-.331.051-.384.069-1.044.464-1.277 1.74-.813 1.856.177.206-.655.787-.696.812-.098.06-.224.232-.232.232-1.8.113-2.363-1.083-2.748-1.685-.02-.03-.068.017-.055 0 .483-.635 1.18-2.144 1.411-3.072.232-.928.232-2.436.232-2.436.098 0 .148.03.232 0 .417-.152.716-.698.812-1.277.422-2.532-.812-2.436-.928-1.856.116-1.276-2.784-4.525-2.9-5.917-2.089 4.06-4.758 4.64-5.802 4.409 1.857-1.625 2.553-4.41 2.553-4.41s-2.205 2.901-6.846 4.061c-1.578.395-1.89 1.764-1.972 2.205-.013.07-.105.127-.116.116-.116-.116-.077-.31-.116-.58-.039-.27-.348-.116-.348-.116-1.276.812-.207 2.996-.116 3.133.232.348.503.309.696.232 0 0 .116 1.74.464 2.9.25.835.744 1.748 1.044 2.205.167.254.464.696.464.696-.278.742-2.552 1.74-3.017 1.508-.464-.232-.884-.59-1.044-.812-.036-.05.109-.102.116-.116.039-.077.117-.186.117-.464-.04-.433-.349-.812-.58-1.044-.106-.105-.172-.225-.39-.225-.13 0-.274-.068-.191-.123.348-.232 0-1.045 0-1.045s.137-.142.176-.221c.161-.334.63-.729 1.1-.823h.001c.023-.013.057-.032-.117-.232zM40.022 33.62c.116-.231 1.449.03 2.32-.115.696-.117 1.042-.238 1.625-.697.705-.556 1.487-1.551 1.508-1.276.038.5-.161 1.616-.805 2.083.16-.099 1.05.152 1.733-.807.03-.042.191-.232.232-.232.041 0 .18.082.232.348.091.458.08 1.339-.464 2.089-.248.342-.385.537-.696.696-.321.164-.752.33-.696.348.348.116.812-.116.812-.116s.587-.245.464 0c-.232.464-1.764 1.787-4.177 1.508a6.922 6.922 0 01-1.624-.58c-.417-.214-1.18-.637-1.508-.928l-.232-.116c-.078-.077-.209-.255-.116-.348.116-.116.928.232 1.392-1.044.177-.488-.116-.58 0-.813zM15.773 33.736s-1.16.117-2.205-.231c-.67-.224-1.042-.238-1.624-.697-.706-.556-1.487-1.551-1.509-1.276-.038.5.161 1.616.805 2.083-.16-.099-1.05.152-1.733-.807-.03-.042-.19-.232-.232-.232-.04 0-.179.082-.232.348-.09.458-.08 1.339.464 2.089.249.342.386.537.696.696.321.164.752.33.697.348-.349.116-.813-.116-.813-.116s-.586-.245-.464 0c.232.464 1.764 1.787 4.177 1.508.33-.07.978-.247 1.624-.58.417-.214.485-.289.813-.58.35-.21.464-.348.464-.348s-.464-.116-.928-1.392c-.095-.26-.186-.464-.116-.58.062-.103.116-.233.116-.233z" fill="#BA242C"/><path d="M13.989 30.79c-.404.833.97 2.168 1.778 2.585.027.028 0 .362 0 .362s-.162.083-.162.167c-.052.91.347 1.582.727 1.918a.876.876 0 00.242.167c.064.033.488-.082.359.184a.8.8 0 000 .697c.215.64.6 1.797 1.015 1.926.807.25 2.1-.584 2.343-1 .194-.334.152-.65-.081-.918-.727-.834-1.769-1.615-1.769-1.749 0-.166.067-.151.116-.348.18-.712-.61-1.534-1.014-1.617-.03-.007-.093-.026-.03-.123.162-.25-.13-1.501-.454-2.669-.158-.414-.341-.622-.565-.75-.453-.26-2.101.333-2.505 1.167zM41.683 30.495c.404.834-.97 2.169-1.778 2.586-.027.028 0 .362 0 .362s.233.326.233.41c.052.91-.316 1.288-.696 1.624a1.714 1.714 0 01-.345.218c-.063.032-.487-.082-.358.185a.8.8 0 010 .696c-.215.64-.6 1.798-1.015 1.926-.808.25-2.1-.584-2.343-1-.194-.334-.152-.65.081-.918.727-.834 1.776-1.554 1.776-1.687 0-.167-.116-.232-.116-.464 0-.734.603-1.48 1.007-1.563.03-.007.093-.025.03-.123-.162-.25.13-1.501.454-2.669.158-.414.341-.622.565-.75.452-.26 2.101.333 2.505 1.167z" fill="#15A0D9"/><path d="M16.16 33.75c0 .117.022.153.077.219.054.066.34-.233.464-.291.043-.02.303-.096.386-.146.151-.09.215-.171.232-.218.026-.073-.676-.02-.928.146-.115.075-.232.174-.232.29zM39.519 33.519c0 .116-.023.152-.077.218-.055.066-.34-.233-.464-.291-.044-.02-.303-.096-.387-.146-.15-.09-.215-.17-.232-.218-.025-.072.677-.02.928.146.116.076.232.174.232.29z" fill="#fff"/><path d="M18.041 35.169c-.054.086-.351.253-.628.354-.23.087-.36.179-.36.257 0 .1.158.15.337.106.072-.02.138-.028.144-.02.009.009.06.121.113.251.123.303.294.528.432.574.118.04.26.02.331-.046.075-.067.015-.271-.13-.436-.147-.167-.342-.466-.15-.654.108-.101.162-.28.113-.36-.037-.058-.17-.075-.201-.026zM16.061 31.68c-.074.122-.112.378-.098.69.012.262.026.323.104.475.168.332.39.444.577.286.104-.087.1-.095-.084-.462-.127-.247-.285-.665-.285-.755 0-.057-.113-.297-.144-.297-.015 0-.046.03-.07.064zM39.69 32.113c-.34.326-.363.349-.478.49a.639.639 0 00-.127.236c-.014.093-.006.116.09.205.12.113.245.156.389.13.12-.017.204-.133.34-.461.132-.318.153-.395.153-.574 0-.164-.032-.234-.11-.234-.02 0-.138.096-.257.208zM37.44 35.255a.703.703 0 00-.061.116c-.026.066-.018.09.052.158.109.113.204.286.204.378 0 .066-.043.179-.274.709-.046.104-.028.173.058.22.098.051.352-.03.47-.154.1-.106.245-.383.291-.556.046-.176.13-.268.268-.288.225-.038.37-.248.22-.323a1.673 1.673 0 00-.335-.05c-.28-.017-.473-.074-.588-.172-.081-.07-.26-.092-.306-.038z" fill="#453736"/><path d="M27.375 41.278c-.382.574 0 1.122.464 1.276.464.155.86-.1 1.045-.348.296-.398.054-1.027-.348-1.276-.36-.222-.85-.119-1.16.348z" fill="#15A0D9"/><path d="M31.582 23.073a2.262 2.262 0 00-.542.144c-.159.07-.715.447-.905.614-.116.101-.145.214-.064.245.075.03.38-.037.646-.14.38-.148.45-.162.88-.18.518-.02.72.012 1.3.208.256.087.512.159.57.159h.104v-.133c0-.274-.188-.499-.557-.677a2.402 2.402 0 00-1.029-.243 3.263 3.263 0 00-.403.003z" fill="#453736"/><path d="M23.827 28.092c-.09.032-.173.136-.173.21 0 .09.067.162.179.188.115.029.184-.006.24-.118.043-.096.043-.107 0-.173-.035-.055-.165-.139-.197-.124l-.049.017zM33 28.118c-.095.066-.09.248.011.326.104.08.196.075.268-.015.127-.158.046-.357-.14-.357-.041 0-.105.02-.14.046zM21.97 28.694c-.025.023-.045.09-.045.142 0 .12.063.187.184.187.19 0 .297-.23.156-.329-.084-.057-.236-.057-.294 0zM24.686 28.928c-.107.124-.084.3.05.36.094.043.2-.012.241-.124.038-.112.009-.193-.086-.242-.107-.055-.153-.055-.205.006zM32.031 29.026c-.118.092-.098.256.044.329.112.06.16.054.242-.03.201-.198-.06-.475-.286-.299zM33.331 29.133c-.049.055-.063.196-.026.253.032.047.139.098.208.098.083 0 .202-.127.202-.216 0-.164-.272-.26-.384-.135zM22.957 29.265c-.119.09-.116.271.008.335.075.04.22.017.291-.05.168-.15-.12-.423-.3-.285z" fill="#BA242C"/><path d="M26.952 29.654c-.046.03-.15.127-.228.217-.09.106-.17.17-.222.181-.066.012-.08.032-.08.098 0 .093.08.162.218.188.098.017.188-.018.292-.11.095-.086.178-.049.354.153a.989.989 0 00.366.28c.193.089.23.098.392.086.21-.017.433-.115.64-.283.257-.204.355-.265.54-.331.213-.078.256-.127.178-.205a1.672 1.672 0 01-.127-.164c-.144-.213-.357-.216-.66-.009-.23.156-.314.19-.478.19-.222 0-.401-.057-.652-.201-.268-.159-.386-.179-.533-.09z" fill="#453736"/><path d="M23.083 25.731c.185-.278 1.16-.27 1.624-.232.425.387 1.041.93.696 1.16-.348.232-1.624.465-2.32.348l-.58-.232c.116-.232.394-.765.58-1.044zM32.814 25.634c-.186-.278-1.16-.27-1.625-.232-.425.387-.983.992-.68 1.277.347.328 1.608.348 2.305.232l.58-.232a12.396 12.396 0 00-.58-1.044z" fill="#fff"/><path d="M23.749 25.074c-.525.095-.868.349-1.19.88-.237.388-.326.772-.214.93.095.136.516.294.781.294.127 0 .153-.008.153-.052 0-.08-.037-.112-.17-.15-.156-.04-.262-.144-.262-.25 0-.113.144-.401.276-.554.162-.184.427-.349.565-.349.222 0 .36.142.286.286-.058.106-.139.13-.314.086-.182-.043-.225-.026-.303.121a.514.514 0 00.032.459c.08.106.193.138.262.075.1-.093.265-.13.57-.133.352 0 .361-.006.427-.36.05-.254.078-.303.176-.303.084 0 .17.112.326.427.066.132.181.3.257.38.132.136.146.144.29.144.174 0 .292-.052.373-.164.06-.087.072-.136.066-.306-.003-.095-.012-.106-.08-.106a.558.558 0 00-.171.034c-.164.058-.24-.054-.329-.481-.103-.505-.253-.675-.74-.839-.185-.063-.289-.078-.571-.086a3.348 3.348 0 00-.496.017zM31.7 25.06c-.211.045-.43.17-.655.365-.26.228-.378.384-.57.767-.14.271-.211.38-.277.418-.096.058-.145.046-.145-.037 0-.162-.112-.19-.256-.07-.15.124-.147.358.008.459.04.026.133.046.22.049.219 0 .331-.087.49-.384.095-.175.198-.31.389-.504.285-.288.424-.37.62-.372.259 0 .371.173.221.349l-.066.078-.24-.035c-.212-.032-.244-.032-.29.012-.08.072-.167.276-.19.444l-.02.147h.112a.483.483 0 00.184-.044c.101-.057.3-.052.591.018.136.031.277.049.312.037.164-.049.276-.256.28-.51 0-.141.008-.164.054-.164.144 0 .291.219.291.43 0 .166-.02.198-.176.276-.124.063-.225.17-.19.204.006.006.118.026.25.047.425.06.704-.04.845-.303.052-.101.064-.167.064-.38 0-.237-.009-.28-.095-.453a1.66 1.66 0 00-.536-.611c-.335-.222-.848-.32-1.226-.234z" fill="#453736"/><path d="M25.867 33.156l-.928-.812h5.917l-.812 1.044-1.857.58-2.32-.812z" fill="#fff"/><path d="M31.4 31.56c-.083.014-.15.063-.288.21-.13.136-.21.196-.294.22-.193.05-.712.034-1.352-.044-.911-.113-1.36-.107-2.28.034-.53.081-.816.11-1.081.11-.352.003-.366 0-.634-.107-.646-.256-.883-.32-1.056-.274-.12.032-.14.119-.066.274.078.165.28.332.545.461.205.101.23.107.634.127.23.015.568.038.75.058.233.023.472.026.807.009.262-.015 1.02-.026 1.686-.03.827 0 1.248-.01 1.326-.034.193-.054.199-.04.04.144-.478.563-.743.753-1.193.85-.331.076-1.608.073-1.9 0-.29-.071-.593-.201-.974-.411a3.211 3.211 0 00-.369-.185c-.017 0-.029.078-.029.193v.19l.254.248c.39.387.798.649 1.188.767.392.115 1.41.11 1.888-.011.326-.084.671-.263.879-.456.1-.092.265-.3.39-.487.247-.378.558-.74.783-.917.084-.066.32-.204.522-.308.216-.11.415-.234.49-.306.124-.115.124-.12.078-.19-.092-.144-.41-.202-.744-.136z" fill="#453736"/></svg>