<!-- by TradingView --><svg width="56" height="56" viewBox="0 0 56 56" xmlns="http://www.w3.org/2000/svg"><path fill="#F0F3FA" d="M0 0h56v56H0z"/><path d="M13.6 15.58c-2.18.76-3.52 2-3.56 3.33-.08 2.52-.04 4.73.13 5.65.08.56.2 1.28.2 1.64.13 1.17 6.06 6.58 8.53 7.75 1.83.88 2.42 1.4 2.63 2.28.17.64.88 1.6 1.59 2.17.75.56 1.58 1.2 1.88 1.44.25.2.5.8.5 1.28 0 1.6.83 3.77 1.88 4.86 1.67 1.72 4.05 1.2 4.63-1.09.21-.96.13-1.08-.83-1.08-1.05 0-1.09-.08-1.09-2.16 0-2 .13-2.33 1.67-3.85.92-.93 1.67-1.85 1.67-2.05 0-.36 1.42-1.16 4.8-2.69.97-.44 2.97-2 4.48-3.45 2.46-2.44 2.75-2.88 3-4.77.38-2.6.38-3 .04-4.5-.12-.67-.33-1.6-.46-2.08-.45-2.2-6.47-3.53-10.52-2.4-2 .6-2.38.6-4.3 0-1.76-.56-2.43-.6-3.97-.2a9.6 9.6 0 0 1-6.18-.12c-2.5-.73-4.56-.73-6.73.04Zm8.76.96a6.8 6.8 0 0 0 3.85-.24c2.25-.68 5.1-.48 3.84.28-.38.24-.42.36-.08.36.58 0 3 3.49 3.04 4.3 0 .27-.16.51-.41.51-.55 0-2.1 1.29-2.1 1.77 0 .2.34 1.08.8 2a43.8 43.8 0 0 1 1.38 3.5l.59 1.84-1.17-.04c-1.17-.04-1.17-.08-1.17-2.65 0-1.76-.13-2.45-.42-2.17-.25.25-.5 2.73-.59 5.62-.04 2.85-.29 5.53-.54 5.98-.25.44-.38 1.2-.33 1.72.04.52-.09 1-.25 1.12-.17.08-.09.89.25 1.77.33.88.46 1.6.29 1.6-.17.04.12.36.67.8 1.17.93.87 1.69-.55 1.45-1.75-.32-1.96-.64-1.2-1.77.7-1.08.7-1.08-.13-.36-.84.68-.88.68-1.09-.2-.17-.56 0-1.2.46-1.68.67-.72.67-.76 0-.52-1.13.4-.92-.89.21-1.37.84-.36.84-.36-.2-.16-1.43.28-1.51-.32-.22-1.2l.92-.68-1 .28c-1.3.36-1-.6.42-1.33l1-.52-1.17.16c-1.71.24-1.3-.92.54-1.6l1.46-.52-1.8.24c-1.5.2-1.7.12-1.5-.4.13-.36.84-.8 1.6-1l1.29-.37-1.67-.08c-.92-.04-1.42-.16-1.09-.28.46-.16.46-.28 0-.52-.38-.24-.08-.48.92-.72l1.42-.4-1.34-.04c-.92-.04-1.38-.24-1.38-.64 0-.45.5-.65 1.8-.69l1.75-.04-1.8-.16c-2.16-.2-2.16-1-.03-1.36l1.42-.24-1.55-.08c-1.96-.04-2.05-.68-.2-1.24l1.33-.4-1.55.24c-1.83.24-2.17-.45-.54-1.05a3 3 0 0 1 2.13.04c1.42.48 1.8.2.54-.44-.5-.28-1.54-.4-2.3-.28-1.54.24-1.87-.24-.66-.88.67-.4.67-.4-.13-.44-1.04 0-.33-.68 1.05-.93.87-.16.83-.16-.3-.24-.7 0-1.46-.24-1.62-.48-.5-.76.79-1.2 2.96-1 1.42.16 1.88.08 1.46-.16-.33-.2-1.54-.4-2.67-.4-1.75 0-1.96-.08-1.5-.6.29-.36 1.3-.6 2.46-.64l1.92-.04-2.09-.49c-1.88-.44-2-.52-1.25-.96.8-.44.75-.44-.33-.48-.67 0-1.09.16-.92.36.12.2.04.48-.17.64-.67.36-1.71 2.65-1.71 3.7 0 .55-.17.84-.42.71-.75-.44-.46-2 .67-3.44l1.04-1.37-.96-.12c-.54-.04-2.13-.4-3.55-.76-2.88-.68-5.55-.52-7.77.48l-1.33.64 1.04-.8a7.36 7.36 0 0 1 2.5-1.08c.8-.12 1.64-.28 1.89-.32.46-.12 3.5.36 5.84.96Zm18.8 0c.54.24.13.28-1.17.12-1.3-.16-2.92 0-4.72.48-3.17.8-4.13.56-1.13-.32 2.26-.68 5.77-.8 7.02-.28Zm-25.9 1.4c-.67.32-1.46.56-1.71.6-.58 0-1.55 1.09-1.67 1.85-.13.72-.13.72 2.76-.44 1.37-.56 2.8-1 3.21-.96.46 0 .3.2-.5.48-.67.28-2.21.96-3.42 1.6-2.97 1.49-3.64 1.45-3.3-.2.33-1.64.96-2.25 3-2.93 2.1-.72 3.26-.72 1.63 0Zm27.7.6c.96.4 1.75.97 1.75 1.2 0 .33-3.84-1.24-4.55-1.84-.5-.44 1.2-.04 2.8.64Zm.41 2.77c.96.48 1.76 1.12 1.76 1.45 0 .92-.67 1.04-1.5.16a15.48 15.48 0 0 0-2.97-2 15.57 15.57 0 0 1-2.22-1.37c0-.24 3.05.84 4.93 1.76Zm-27.48.76c-.59.36-1.71 1.29-2.5 2.05-1.34 1.24-1.39 1.28-.26.64l1.21-.68-.7.92c-.97 1.37-.84 1.85.29.88.5-.44 1.5-1.12 2.17-1.52.96-.56.75-.24-.88 1.36-1.92 1.89-2.25 2.09-3.05 1.69-1.08-.6-1.59-2.25-.83-3.09.62-.72 4.55-2.97 5.18-2.93.25 0-.05.32-.63.68Zm27.9 2.21c.5.44.92 1.08.92 1.44 0 .73-1.63 2.45-2.3 2.45-.25 0-1.04-.8-1.8-1.8-.7-1-1.25-1.8-1.12-1.8.08 0 .88.6 1.75 1.27l1.55 1.33-.92-1.57-.96-1.56 1.04.68c1.6.96 1.34.36-.46-1.24l-1.58-1.4 1.46.68c.8.4 1.88 1.08 2.42 1.52Zm-11.61-1.16c0 .12-.17.32-.42.44-.2.12-.42.04-.42-.16 0-.24.21-.44.42-.44.25 0 .42.08.42.16Zm.67 2.12c-.3.68-.8.44-.92-.48-.04-.32.08-.52.3-.36.2.12.37-.04.4-.32 0-.4.1-.4.26 0 .12.28.08.8-.04 1.16Zm-9.82 1.85c-.42.36-.46.32-.2-.24.12-.4.37-.6.5-.48.12.12 0 .44-.3.72Zm1.21 2.16c0 2.09-.12 2.57-.5 2.2-.29-.27-.83-.47-1.25-.47-.84 0-1.05-1.77-.34-2.81.34-.44.38-.24.21.68-.16 1-.04 1.4.63 1.73.8.4.84.32.84-1.8 0-1.21.08-2.21.2-2.21.13 0 .21 1.2.21 2.68Zm-8.18-1.28c-1.05 1.52-.34 1.72 1.17.36 1.37-1.24 1.25-.76-.38 1.32l-.96 1.29-.96-.88-.96-.89L15 28.05c1.3-1.36 1.97-1.4 1.05-.08Zm23.8 2.2c.13 0 .05-.44-.16-.96-.34-.92-.34-.92.88-.52 1.46.56 1.46.64.04 1.73l-1.13.84L37.9 29l-1.59-2.24 1.63 1.68c.92.96 1.76 1.73 1.92 1.73ZM38 32.15c-.3.08-.76-.16-1.1-.6-.91-1.2-.62-1.56.55-.52.67.6.88 1 .55 1.12Zm-18.55-.36c-.67 1.2-1.09 1.44-1.63.92-.12-.16.25-.68.88-1.2 1.5-1.16 1.5-1.16.75.28Zm17.08 1.16c-.29.28-.5-.12-.75-1.36l-.25-1.2.59 1.2c.33.64.5 1.28.41 1.36ZM23.2 34c0 1.32.25 2.8.54 3.28.71 1.2.63 1.4-.29.93-1.96-1-2.8-7.1-.96-6.74.58.12.7.6.7 2.53Zm10.02-.69c-.12.32-.2 1-.2 1.57 0 .6-.59 1.56-1.47 2.4-1.54 1.49-2.63 1.57-1.25.12.5-.52.84-1.64.96-3.12.13-1.25.42-2.41.67-2.57.58-.4 1.59.88 1.3 1.6Zm-8.18 4.9c0 .36-.25.16-.59-.4a4.15 4.15 0 0 1-.58-1.6c0-.37.25-.17.58.4.34.55.59 1.28.59 1.6Zm6.6 6.25c-.13.12-.5.16-.8.04-.33-.12-.2-.24.25-.24.46-.04.71.08.55.2Z"/></svg>