<!-- by TradingView --><svg width="56" height="56" viewBox="0 0 56 56" xmlns="http://www.w3.org/2000/svg"><path fill="#294C5A" d="M0 0h56v56H0z"/><path d="M36.64 20.06a4.1 4.1 0 0 1 3.27.76c.1.04.12.18.05.26-.26.36-.45.77-.61 1.2-.08.03-.15-.02-.21-.07-.02 0-.03-.02-.05-.03a2.95 2.95 0 0 0-1.83-.6c-1.25.04-1.77 1.26-1.76 2.42 0 1.1.43 2.25 1.6 2.4.73.07 1.48-.17 2.07-.63.06-.07.19-.06.2.05.15.38.34.75.57 1.1l-.02.14c-.62.57-1.43.89-2.26.92a3.82 3.82 0 0 1-2.67-.77A4.04 4.04 0 0 1 33.5 24c0-1.87 1.24-3.63 3.14-3.95Zm7.5.02a4.26 4.26 0 0 1 2.82.39c.75.4 1.37 1.07 1.7 1.87.35.79.43 1.68.25 2.52a3.93 3.93 0 0 1-1.44 2.31 4.15 4.15 0 0 1-4.95.02 3.88 3.88 0 0 1-1.38-2.1 4.2 4.2 0 0 1 .44-3.2 3.9 3.9 0 0 1 2.56-1.8Zm.52 1.52c-1.18.16-1.67 1.27-1.66 2.4 0 1.28.74 2.44 2.04 2.42 1.26-.02 2-1.17 1.96-2.47-.03-1.39-.91-2.55-2.34-2.35ZM7.63 20.03H7L9.7 28h1.52L13 22.85l.48 1.4 1.3 3.75h1.52a4122 4122 0 0 1 2.7-7.97H17.16l-1.62 5.32A660.33 660.33 0 0 1 13.77 20h-1.5l-.6 1.82c-.4 1.18-.78 2.36-1.16 3.53l-1.05-3.41-.58-1.91H7.63Zm24.4-.03h2.04l-.94 1.48L31 24.81V28h-2V24.85c-.47-.75-.92-1.51-1.36-2.27-.5-.86-1-1.72-1.55-2.58h2.1l.67 1.13 1.23 2.06.65-1.06 1.3-2.13ZM20 25.71V28h6v-1.58h-4v-1.84H25.43V23H22v-1.42h4V20h-6v5.71ZM34 30h.55V34.39c-.01.72.1 1.49.5 2.09.34.53.9.85 1.5.94.6.1 1.26.02 1.8-.31.45-.28.77-.76.93-1.28.13-.43.17-.88.17-1.32V30H40v4.74c-.02 1-.35 2.04-1.1 2.65-.56.45-1.28.63-1.96.6-.78.01-1.59-.28-2.14-.9s-.79-1.5-.8-2.35V30Zm-14 0h-2v8h.57v-3.45h2.42c.4.55.78 1.12 1.17 1.7.4.6.8 1.2 1.2 1.75h.73c-.4-.55-.8-1.13-1.18-1.71-.43-.63-.85-1.26-1.28-1.85.57-.09 1.16-.3 1.58-.74.73-.72.79-1.9.19-2.72-.37-.52-.96-.8-1.55-.92-.3-.06-.6-.06-.9-.06H20Zm-1.43 4v-3.44H21c.62-.01 1.29.1 1.76.56.63.6.62 1.63.01 2.24-.42.44-1.02.62-1.6.64h-2.61Zm9.33-3.9a3.65 3.65 0 0 1 4.07 1.8c.52.93.66 2.08.4 3.13A3.7 3.7 0 0 1 26.2 37a4.33 4.33 0 0 1-.78-4.88 3.68 3.68 0 0 1 2.48-2.03Zm.4.46c-.84.11-1.62.61-2.1 1.33-.6.89-.76 2.06-.48 3.1.2.74.62 1.43 1.23 1.87.52.4 1.15.6 1.78.6C30.6 37.5 32 35.8 32 34.02c0-1.94-1.64-3.75-3.7-3.45Zm-16.8-.32c.7-.27 1.49-.29 2.23-.17.75.1 1.43.47 2 .95l-.2.22-.19.22a3.82 3.82 0 0 0-1.38-.78 3.52 3.52 0 0 0-2.55.19 3.36 3.36 0 0 0-1.72 2.38c-.17.93-.04 1.93.45 2.75a3 3 0 0 0 1.64 1.3c1.23.4 2.64.1 3.64-.7v-2.06H13V34h3v2.84A4.71 4.71 0 0 1 12.9 38c-.88 0-1.76-.26-2.45-.8a3.8 3.8 0 0 1-1.37-2.33 4.4 4.4 0 0 1 .34-2.7 3.79 3.79 0 0 1 2.07-1.93ZM43.22 30H42v8h.5v-3H44.11c.3.01.62.02.92-.05.55-.11 1.09-.4 1.47-.89.5-.63.61-1.6.4-2.41a2.15 2.15 0 0 0-1.04-1.33 2.77 2.77 0 0 0-1.4-.32h-1.23Zm-.73 3.15V30.5h2.06c.51.02 1.05.23 1.44.63.64.67.65 1.99.02 2.67-.46.5-1.1.67-1.71.66H42.5v-1.31Z" fill="#fff"/></svg>