<!-- by TradingView --><svg width="56" height="56" viewBox="0 0 56 56" xmlns="http://www.w3.org/2000/svg"><path fill="#F0F3FA" d="M0 0h56v56H0z"/><path d="M11.44 28a16.56 16.56 0 1 1 33.12 0 16.56 16.56 0 0 1-33.12 0Z" fill="#00AAA7"/><path d="M28 12c-8.9 0-16 7.1-16 16s7.1 16 16 16 16-7.1 16-16-7.1-16-16-16ZM11 28a17 17 0 1 1 34 0 17 17 0 0 1-34 0Z" fill="#27953D"/><path d="M16.59 28a11.41 11.41 0 1 1 22.82 0 11.41 11.41 0 0 1-22.82 0Z" fill="#B2E089"/><path d="M28 16.9a11.1 11.1 0 1 0 0 22.2 11.1 11.1 0 0 0 0-22.2ZM16 28a12 12 0 1 1 24 0 12 12 0 0 1-24 0Z" fill="#27953D"/><path d="m15.8 28.17-2.77 1.2c-.3.11-.5.21-.7.32l.03-.66.56-.21 1.93-.79-.95-.44-.83.35c-.35.15-.5.22-.69.33l.02-.6c.15-.04.3-.1.63-.23l.3-.12-.3-.13-.6-.27.02-.55c.12.09.32.19.66.37l.74.37 1-.4-1.73-.82c-.37-.18-.53-.24-.65-.29l.02-.57c.2.1.35.2.68.36l2.67 1.34v.05l-1.44.61 1.4.7v.08ZM15.1 23.79c-.33-.1-.57 0-.64.24-.08.27.1.47.41.56l.75.21c.14.04.36.1.49.12l-.16.53a5.48 5.48 0 0 0-.47-.15l-2.65-.75-.06.21-.27-.22.17-.6c.13.06.3.11.47.16l1.1.3a.7.7 0 0 1-.15-.67c.14-.48.6-.6 1.16-.44l.74.21c.14.04.35.1.49.12l-.16.53a6.17 6.17 0 0 0-.47-.15l-.76-.21ZM15.8 22.58c.32.13.7.03.87-.32.1-.22.15-.38.11-.6l.43.2c-.05.14-.03.33-.19.67a1.1 1.1 0 0 1-1.5.5c-.6-.28-.86-.9-.61-1.41.27-.58.97-.64 1.4-.43l.12.06-.64 1.33Zm-.35-.16.41-.85c-.2-.06-.48-.02-.6.23-.1.21-.01.45.2.62ZM16.32 19.27l.49.33a.54.54 0 0 0-.25.2c-.14.22.04.55.29.71l.52.35.42.26-.3.46-.4-.29-1.19-.78-.12.19-.18-.3.3-.46.42.28c-.23-.25-.28-.56-.14-.78l.14-.17ZM17.65 19.52c.28.22.68.22.93-.07.16-.19.25-.33.27-.55l.36.31c-.09.12-.12.31-.36.6-.42.48-1.1.5-1.6.07s-.58-1.1-.2-1.53c.42-.48 1.1-.36 1.47-.04l.1.1-.97 1.11Zm-.29-.24.63-.71c-.18-.12-.46-.15-.64.05-.16.19-.13.44.01.66ZM19.5 17.87l-.97-1.27c-.2-.27-.44-.57-.54-.68l.73-.55c.26-.19.5-.39.6-.48l.32.41c-.13.08-.38.26-.63.45l-.28.21.6.79.26-.2.51-.41.31.4-.54.39-.26.2.32.42c.2.27.44.57.55.69l-.47.35a14.6 14.6 0 0 0-.52-.72ZM21.16 15.08c.54-.29 1.22-.06 1.52.5.3.56.1 1.25-.44 1.54-.53.29-1.21.07-1.51-.5-.3-.55-.12-1.25.43-1.54Zm.86 1.62c.3-.15.4-.55.22-.88-.18-.34-.57-.47-.87-.32-.3.16-.4.56-.21.9.18.33.56.46.86.3ZM23.6 14.05c.59-.19 1.22.15 1.42.77.19.61-.13 1.25-.72 1.43a1.13 1.13 0 0 1-1.4-.76c-.2-.6.12-1.25.7-1.44Zm.56 1.75c.32-.1.49-.47.38-.83-.12-.36-.47-.56-.8-.46-.31.1-.48.47-.37.84.11.35.47.55.79.45ZM27.56 15.11l.08.49-.54.06-.03-.36a.83.83 0 0 1-.68.48c-.58.07-1.07-.4-1.15-1.02-.07-.65.3-1.2.91-1.28.3-.04.58.06.73.28l-.15-1.33-.22.03c.04-.08.08-.25.1-.34l.61-.07.04.47.3 2.6Zm-1.26-1.17c-.33.04-.57.38-.53.76.05.39.36.66.7.62.33-.04.57-.38.52-.76-.04-.39-.35-.66-.69-.62ZM30.2 15.38c.32.04.6 0 .83-.16l-.08.63c-.28.03-.5.07-.86.03-.96-.14-1.57-1-1.44-1.95.13-.94.94-1.62 1.91-1.48.38.05.56.16.79.23l-.1.65a1.07 1.07 0 0 0-.72-.37A1.2 1.2 0 0 0 29.2 14a1.2 1.2 0 0 0 1.01 1.37ZM32.73 14.16c.59.2.89.85.68 1.46-.21.6-.85.92-1.43.72-.58-.2-.88-.84-.67-1.44.2-.6.85-.94 1.42-.74Zm-.6 1.74c.33.1.69-.09.8-.44.13-.36-.03-.74-.35-.85-.32-.1-.68.09-.8.45-.13.35.03.73.36.84ZM34.55 16.95l.44-.7c.17-.27.17-.5-.04-.62-.17-.11-.41-.05-.6.24l-.42.68-.25.43-.47-.3c.07-.08.2-.27.28-.41l.74-1.18-.19-.12a2 2 0 0 0 .3-.2l.5.33-.16.26c.2-.12.45-.13.7.02.27.17.33.4.28.64a.63.63 0 0 1 .73 0c.38.23.45.65.13 1.16l-.45.72c-.1.15-.2.31-.25.43l-.47-.29.28-.42.41-.66c.2-.32.18-.53-.02-.65-.17-.11-.42-.04-.6.25l-.42.68c-.1.15-.18.3-.25.43l-.47-.3c.08-.12.18-.26.27-.42ZM36.98 18.07c-.23.27-.26.67.02.94a1 1 0 0 0 .54.3l-.34.35c-.12-.1-.3-.14-.57-.4-.46-.45-.44-1.13.01-1.6.47-.47 1.13-.52 1.54-.11.46.44.3 1.12-.05 1.47l-.1.09-1.05-1.04Zm.27-.27.67.67c.13-.17.17-.45-.02-.64-.17-.18-.43-.16-.66-.03ZM38.65 20.64c-.3.24-.7.2-.99-.18-.15-.2-.22-.48-.28-.6l.46-.35c-.06.2.01.52.13.67.1.13.23.16.34.07.28-.21-.2-.88.33-1.28.32-.25.69-.18.97.2.14.17.18.35.25.45l-.42.33c.06-.16-.03-.42-.11-.53-.11-.14-.23-.14-.33-.07-.27.2.22.86-.35 1.3ZM39.39 21.32l1.42-.71a15 15 0 0 0 .77-.41L42 21l.37.68-.46.23c-.05-.13-.18-.42-.33-.7l-.15-.31-.88.44.14.29.31.58-.45.23-.28-.6-.15-.3-.48.25c-.3.14-.64.33-.77.4l-.26-.52c.14-.04.5-.2.79-.36ZM41.92 23.72l-.55.2a.55.55 0 0 0-.02-.32c-.09-.24-.46-.3-.74-.2l-.6.22-.45.18-.2-.52.48-.16 1.33-.47-.07-.2c.1.02.25.03.35.02l.19.52-.48.17c.34-.04.62.1.71.35.04.12.03.15.05.21ZM42.23 24.97c.13.6-.28 1.19-.91 1.32a1.13 1.13 0 0 1-1.35-.86c-.12-.6.28-1.18.9-1.31.63-.13 1.24.25 1.36.85Zm-1.8.37c.08.33.43.54.8.46.36-.07.6-.4.54-.73-.07-.33-.42-.54-.8-.47-.36.07-.6.4-.53.74ZM40.76 27.95l.82.03c.32 0 .51-.1.52-.36 0-.2-.18-.38-.52-.39l-.8-.02h-.5l.01-.55.5.03 1.41.03v-.23c.08.06.23.12.32.15l-.01.6h-.32c.2.13.35.32.34.6 0 .33-.17.5-.4.58.2.1.38.3.38.63-.01.44-.34.72-.94.7l-.85-.02h-.5l.01-.54.5.02.78.02c.39.01.56-.12.56-.35 0-.2-.18-.38-.51-.39l-.8-.02h-.5v-.55c.14.02.31.03.5.03Z" fill="#fff"/><path d="m22.48 31.46.05-.36c0-.46-.12-.93-.22-1.22.79-.06 1.35.12 1.57.22.26.2.83.5 1.14.83l1 .95c.5.57.95 1.04.98 2.05v3.69c-.05.47-.5 1.8-2.58 1.8h7.17c-2.1 0-2.55-1.35-2.59-1.81V34c0-1.1.47-1.7.95-2.23l.77-.67c.21-.16.43-.3.67-.46.25-.17.5-.34.76-.54.23-.1.79-.28 1.57-.22-.1.3-.16.65-.17 1.02-.32.18-.83.56-1.03 1.23l.74.22c.08-.25.24-.45.4-.59.12.42.36.8.77 1.13l.47-.61c-.85-.67-.58-1.77-.4-2.27.6.16 1.22.46 1.84.88-.45.92-.54 2.63.79 3.68l.44-.64c-.21-.17-.6-.44-.7-.65.17-.03.66.26.9.38.14-.23.26-.45.38-.68-.29-.14-.99-.55-1.44-.46 0-.45.14-.88.25-1.16.4.32.96.88 1.34 1.3l.33-.78a50 50 0 0 0-.51-.53 1 1 0 0 1 .51-.2l.21-.78c-.4-.03-.88.07-1.3.45a8.48 8.48 0 0 0-1.79-1.17c.37-.71.8-1.24 1.23-1.64.3.69.93 1.56 1.97 1.86.05-.25.1-.5.13-.77a1.8 1.8 0 0 1-.43-.21c.14-.23.32-.39.5-.5v-.85c-.33.12-.75.36-1.07.81a3.01 3.01 0 0 1-.45-.83 4.11 4.11 0 0 1 1.5-.57 12.2 12.2 0 0 0-.08-.77c-.2.03-.43.08-.68.16.07-.35.33-.6.58-.76a9.42 9.42 0 0 0-.19-.79c-.6.32-1.25.93-1.19 1.87a5.93 5.93 0 0 0-2.53 2.7 5.11 5.11 0 0 0-1.76-.27 5.81 5.81 0 0 0 1.09-1.7l.24-.81c.1-.53.08-1.04-.04-1.53A8 8 0 0 0 36 24.2c1.1.62 2.08.47 2.67.26a9.22 9.22 0 0 0-.25-.73c-.4.14-1.04.25-1.79-.07.4-.4.74-.83 1.12-1.34-.13-.24-.28-.48-.43-.7l-.06.08-.28.37c-.15-.33-.07-.66.04-.9-.16-.22-.33-.44-.51-.65-.37.54-.64 1.38-.05 2.19a6.06 6.06 0 0 1-2.13 1.58 7 7 0 0 0-.5-.96l-.53-.75-.2-.27c-.04-.62.1-1.21.3-1.74 1 .11 1.82-.1 2.37-.31l.26-.26-.5-.48c-.4.16-1.01.34-1.77.3.28-.47.58-.85.8-1.1-.2-.15-.42-.3-.64-.43a6.47 6.47 0 0 0-1.56 3.17l-.87-.94a4.91 4.91 0 0 1-.32-.37 5.05 5.05 0 0 0 2.05-2.26l-.7-.34c-.12.27-.31.62-.6.97-.26-.39-.18-.95-.11-1.26a9.17 9.17 0 0 0-.74-.24c-.1.45-.25 1.39.3 2.06-.19.15-.4.3-.62.43a3.35 3.35 0 0 1-.32-2.65c-.25-.05-.5-.1-.77-.13-.09.32-.17.8-.14 1.35-.69-.24-.96-.97-1.06-1.47H27.56c-.1.5-.37 1.23-1.07 1.47a4.07 4.07 0 0 0-.14-1.35c-.25.03-.5.08-.76.13a3.4 3.4 0 0 1-.32 2.65 4.22 4.22 0 0 1-.62-.43c.54-.67.4-1.61.3-2.06-.25.07-.5.15-.74.24.07.32.14.87-.1 1.26-.3-.35-.5-.7-.62-.97-.24.1-.47.22-.7.34.3.63.9 1.6 2.05 2.26l-.31.37c-.3.31-.6.62-.87.94a6.43 6.43 0 0 0-1.56-3.17l-.65.43c.22.25.53.63.8 1.1a4.17 4.17 0 0 1-1.77-.3c-.2.18-.4.38-.59.58.52.26 1.48.6 2.73.47.2.52.34 1.11.3 1.74-.06.1-.13.18-.2.27l-.52.75c-.2.31-.37.63-.5.96a6.1 6.1 0 0 1-2.14-1.58c.59-.8.32-1.65-.05-2.2l-.51.66c.12.25.19.57.04.9l-.28-.37-.06-.09c-.16.23-.3.47-.43.71.38.52.72.95 1.12 1.34-.75.32-1.39.21-1.78.07-.1.24-.18.48-.25.73.6.21 1.57.37 2.67-.26a8 8 0 0 0 1.43.84l-.08 1.18.15.77a6.1 6.1 0 0 0 1.22 2.08 5.02 5.02 0 0 0-1.76.28 5.93 5.93 0 0 0-2.54-2.7c.07-.94-.58-1.55-1.19-1.87a13 13 0 0 0-.18.79c.25.16.5.4.58.76a4.94 4.94 0 0 0-.68-.16c-.04.25-.07.5-.08.77.37.06.91.2 1.5.57-.07.2-.2.51-.45.83-.32-.45-.74-.7-1.07-.81v.21c0 .22 0 .43.02.65.17.1.35.26.49.49-.13.08-.27.15-.43.21.03.26.07.52.12.77a3.24 3.24 0 0 0 1.97-1.86c.43.4.86.93 1.23 1.64-.55.26-1.15.64-1.79 1.17-.42-.38-.9-.48-1.3-.45.06.26.13.52.21.77.16.02.34.07.52.2l-.33.34c.1.26.2.52.33.78.37-.42.76-.78 1.15-1.1.12.29.26.71.25 1.16-.45-.09-.96.11-1.25.26l.37.68c.26-.12.55-.21.72-.18-.1.2-.25.4-.47.58.14.22.3.43.45.64 1.33-1.05 1-2.69.56-3.61a5.98 5.98 0 0 1 1.84-.88c.18.5.44 1.6-.4 2.27l.47.6c.41-.31.6-.68.77-1.12l.1-.3Zm.48-6.63-.56-.21c.48-1.2 1.54-2.34 2.7-3.57.31-.34.57-.68.76-1 .3.14.98.36 1.78-.01l-.33-.7c-.51.24-.93.1-1.1.01l.14-.44a2.2 2.2 0 0 0 1.66-1.26c.3.6.83 1.14 1.66 1.26l.15.44c-.18.09-.6.23-1.11-.01l-.33.7c.8.37 1.47.15 1.78 0 .2.33.45.67.77 1.01.7.75 1.37 1.47 1.9 2.18.33.46.6.92.8 1.39l-.56.21-.73.27-.52.17-.17.06a4.24 4.24 0 0 0-.54-1.25 3.22 3.22 0 0 0-.28-.34c.83-.72.7-1.67.47-2.12l-.7.34c.07.13.32.77-.4 1.3l-.02-.03c-1.01-.57-.61-1.44-.52-1.61l-.68-.38a2.1 2.1 0 0 0-.25.92 2.06 2.06 0 0 0-1.43 0c0-.37-.12-.7-.24-.92l-.68.38c.1.17.49 1.04-.53 1.61l-.02.02c-.71-.52-.46-1.16-.4-1.29l-.7-.34c-.22.45-.35 1.4.48 2.12l-.28.34c-.3.42-.46.87-.55 1.25l-.17-.06-.51-.18-.74-.26Zm1.9 4.92a8.8 8.8 0 0 1-1.4-1.07c.8-.76.52-1.9.5-1.96l-.74.18c0 .04.17.74-.27 1.19a3.47 3.47 0 0 1-.19-.27 3.4 3.4 0 0 1-.56-2.46c.54.22 1.2.46 1.96.71 1.44.47 2.28 1.75 2.77 3.08.34.92.51 1.86.6 2.6l-.06.45c-.18-.4-.72-.97-1.15-1.39l-1.47-1.06Zm3.16-.15a9.47 9.47 0 0 0-1.21-2.46c.7-.8.7-1.92.7-1.98h-.76c0 .01-.01.8-.45 1.39a4.78 4.78 0 0 0-1.2-.9c.12-.55.4-1.32 1.14-1.73.35-.2.6-.43.76-.67a1.43 1.43 0 0 1 2.08.05c.16.22.4.44.73.62.56.32.86.85 1.02 1.33.05.14.09.27.1.4-.44.23-.84.54-1.19.9a2.72 2.72 0 0 1-.45-1.39h-.77a3.44 3.44 0 0 0 .71 1.99 8.62 8.62 0 0 0-1.2 2.46l-.01-.01Zm4.56-.92c-.44.43-.93.76-1.39 1.07-.44-.88.17-2.08.17-2.09l-.68-.35c-.04.07-.83 1.63-.14 2.87-.23.16-.46.32-.68.5l-.6.52c-.26.28-.5.61-.68 1l-.06-.44c.22-1.83.95-4.89 3.37-5.68.77-.25 1.41-.5 1.96-.72a3.4 3.4 0 0 1-.57 2.46c-.05.1-.12.18-.18.27l-.52.59Z" fill="#27953D"/></svg>