<!-- by TradingView --><svg xmlns="http://www.w3.org/2000/svg" width="56" height="56" viewBox="0 0 56 56"><path fill="#D4E7ED" d="M0 0h56v56H0z"/><path d="M11.13 27H7.1c-.06 0-.11-.02-.11-.08v-.82c0-.03.02-.05.03-.07a.1.1 0 0 1 .08-.03H13v-2H6.75C5.68 24 5 25.07 5 25.9V27c0 .77.7 2 1.72 2h4.19c.05 0 .09.03.09.08v.82a.1.1 0 0 1-.03.07.1.1 0 0 1-.07.03H5v2h6.13A1.9 1.9 0 0 0 13 30.1V29c0-.95-.68-2-1.87-2Z" fill="url(#amj2qhqxn)"/><path d="M20.13 24h-4.26c-.5 0-.97.2-1.32.56-.35.36-.55.84-.55 1.34v4.2c0 .5.2.98.55 1.34.35.36.83.56 1.32.56H22v-2h-5.9c-.04 0-.06 0-.08-.02-.02-.02-.02-.05-.02-.07V29h6v-3.1c0-.5-.2-.98-.55-1.34a1.86 1.86 0 0 0-1.32-.56ZM20 27h-4v-.9c0-.03.02-.05.03-.07a.1.1 0 0 1 .08-.03h3.8a.1.1 0 0 1 .08.03c.01.02.02.04.01.07v.9Z" fill="url(#bmj2qhqxn)"/><path d="M35.87 32h4.26c.5 0 .97-.2 1.32-.56.35-.36.55-.84.55-1.34v-4.2c0-.5-.2-.98-.55-1.34a1.86 1.86 0 0 0-1.32-.56H34v2h5.9c.04 0 .06 0 .08.02.02.02.02.05.02.07V27h-6v3.1c0 .5.2.98.55 1.34.35.36.83.56 1.32.56Zm.13-3h4v.9c0 .03-.02.05-.03.07a.1.1 0 0 1-.08.03h-3.8a.1.1 0 0 1-.08-.03c-.01-.02-.02-.04-.01-.07V29Z" fill="url(#cmj2qhqxn)"/><path d="M31.4 24h-2c-.35 0-.69.14-.96.4l-.29.26-.2-.22a1.4 1.4 0 0 0-1.01-.44H23v8h2v-5.9c0-.02 0-.05.02-.07a.08.08 0 0 1 .06-.03h1.86c.02 0 .04.02.05.03.02.02.01.05.01.08V32h2v-5.92c0-.02 0-.04.02-.06a.07.07 0 0 1 .05-.02h1.84l.06.03c.02.02.03.05.03.08V32h2v-6.1c0-.5-.17-.98-.47-1.34a1.5 1.5 0 0 0-1.14-.56Z" fill="url(#dmj2qhqxn)"/><path d="M50 28v-6h-1.3L43 28v2h5v2h2v-2h1v-2h-1Zm-2 0h-2.56L48 25.25V28Z" fill="url(#emj2qhqxn)"/><defs><linearGradient id="amj2qhqxn" x1="5" y1="22.75" x2="10.25" y2="35.88" gradientUnits="userSpaceOnUse"><stop offset=".44" stop-color="#848B95"/><stop offset=".68" stop-color="#52555B"/></linearGradient><linearGradient id="bmj2qhqxn" x1="14.56" y1="22.69" x2="18" y2="33.69" gradientUnits="userSpaceOnUse"><stop offset=".4" stop-color="#848B95"/><stop offset=".6" stop-color="#4F5157"/><stop offset=".71" stop-color="#848B95"/></linearGradient><linearGradient id="cmj2qhqxn" x1="41.25" y1="33.25" x2="36.25" y2="22.19" gradientUnits="userSpaceOnUse"><stop offset=".19" stop-color="#848B95"/><stop offset=".37" stop-color="#484A50"/><stop offset=".52" stop-color="#848B95"/></linearGradient><linearGradient id="dmj2qhqxn" x1="24.13" y1="20.88" x2="29.75" y2="35.19" gradientUnits="userSpaceOnUse"><stop offset=".08" stop-color="#848B95"/><stop offset=".33" stop-color="#4B4D53"/><stop offset=".49" stop-color="#848B95"/><stop offset=".85" stop-color="#53565C"/></linearGradient><linearGradient id="emj2qhqxn" x1="41.56" y1="18.63" x2="50.56" y2="36.94" gradientUnits="userSpaceOnUse"><stop offset=".37" stop-color="#848B95"/><stop offset=".5" stop-color="#44464C"/><stop offset=".6" stop-color="#848B95"/></linearGradient></defs></svg>