<!-- by TradingView --><svg width="56" height="56" viewBox="0 0 56 56" xmlns="http://www.w3.org/2000/svg"><path fill="#F0F3FA" d="M0 0h56v56H0z"/><path d="M25.8 14.13c.81-.18 1.65-.13 2.48-.1 1.32.06 2.66.04 3.95.33 1.12-.05 2.26-.18 3.37.04.71.12 1.43.04 2.14-.09.99-.13 2-.15 3-.05.7.07 1.15.8 1.15 1.47.03 1.06.15 2.11.1 3.17-.23 2.83.13 5.66-.04 8.49-.04.6-.08 1.2-.06 1.8.16 2.57.13 5.15 0 7.72-.02 1 .18 1.98.08 2.97-.08.54-.26 1.07-.4 1.6-1.54.54-3.18.39-4.78.42-1.65.07-3.31-.25-4.96.04-1.01.23-1.98-.27-2.99-.19-1.58.06-3.18-.14-4.75.12-.73.1-1.45-.07-2.16-.22-.65-.14-1.32-.09-1.99-.14-1.58-.17-3.18.2-4.76.01-.87-.24-.9-1.3-.91-2.04.16-1.25.11-2.52.03-3.77-.13-1.05.13-2.1-.01-3.16.34-1.76-.12-3.54-.29-5.29.45.25.87.56 1.36.73.65.11 1.31.2 1.98.2.55-.09 1.06-.31 1.6-.45.02.58-.06 1.18.06 1.75.24.8 1.11 1.17 1.48 1.9.16.46.25.99.12 1.47-.35.62-1.06.93-1.4 1.54-.2.5-.06 1.03.12 1.5.43 1.04.67 2.2 1.42 3.07l-.43.63-.05.88c.69.2 1.42.21 2.06-.13a2.8 2.8 0 0 0-.74-1.13c-.6-.47-.71-1.25-.9-1.93-.13-.65-.38-1.28-.36-1.94a4.86 4.86 0 0 1 2.3-.93c-.1.53-.56 1.31.14 1.62.82.43 1.46 1.1 2.08 1.76l-.16 1.03c.52.47 1.21.48 1.87.43-.28-.79-.71-1.54-1.26-2.17-.7-.48-1.43-.94-2-1.59.98-.99 1.85-2.16 2.11-3.55.12-.59-.17-1.14-.35-1.69 1.56.37 2.94 1.4 4.59 1.4 1.04-.06 2.06-.38 3.11-.4.6.63 1.47 1.13 1.62 2.06.28 1.38.6 2.75.76 4.15.4.33.73.73.84 1.26l.27.27.1.5c.63.06 1.27.06 1.9.03-.12-.5-.18-1.12-.7-1.37-.5-.34-1.27-.56-1.35-1.26-.13-1.38-.51-2.74-.5-4.13.28-1.19.53-2.4.96-3.54a4.95 4.95 0 0 1 1.77-1c.41-.17 1.01-.08 1.19.38.16.66-.02 1.33-.16 1.98-.33.08-.8-.11-1 .25a2.37 2.37 0 0 0-.42 1.9c.85-.14 1.45-.95 2.3-1.19.16-1.02.46-2 .71-3 .21-.68-.14-1.43-.71-1.8-1.32-.19-2.87.67-4.04-.2-.44-2.09-1.05-4.38-.1-6.42.52.46 1 .96 1.6 1.35.49.3.68.89 1.06 1.3.46.41 1.33.1 1.35-.52-.03-.83-.35-1.61-.6-2.4-.32-.93-.33-1.94-.42-2.91l-.84-.64.45-.62-.9-.08c-.3.2-.55.5-.92.55-.95.17-1.9.4-2.79.76-.68.32-1.27.82-1.99 1.08l-.2.9-.89.57.49.4-.85.67.58.1-1.1.99.47.17c-.38.8-.92 1.57-1.77 1.9-1.73.75-3.63.32-5.43.3-1.97 0-3.57 1.35-4.77 2.76-.85-.38-2.27-.37-2.43-1.53-.14-.59.46-.9.83-1.21.8-.56 1.22-1.48 1.9-2.16-.59-.44-.38-1.4-1.16-1.7.1.34.2.67.33 1-.25.58-.42 1.38-1.2 1.42.18-.42.44-.81.73-1.17-.19-.54-.42-1.06-.68-1.56-.05.61.03 1.27-.3 1.82-.6-.26-.3-1.19-.83-1.6-.17.84-.05 1.81-.64 2.5-.24.34-.54.63-.92.8-.5-1.32-.09-2.7-.12-4.06.2-1.15-.24-2.34.2-3.45.2-.65.45-1.62 1.3-1.63 1.26-.02 2.52.08 3.78 0 .98-.1 1.97.06 2.96-.1 1.1.13 2.23.21 3.33 0Zm-9.65 9.93c-.32-.26-.38-.86.18-.8-.05.27-.11.54-.18.8Zm-1.07 1.07c.02-.36.05-.76.53-.74-.05.33-.15.66-.53.74Zm.53.09c.32.31 1.1.84.44 1.21-.23-.24-.45-.5-.66-.77l.22-.44Zm-.13 1.46c.38.12 1.26.06 1.05.7-.48.25-1.11-.15-1.05-.7Z" fill="#C72D41"/></svg>