<!-- by TradingView --><svg width="56" height="56" viewBox="0 0 56 56" xmlns="http://www.w3.org/2000/svg"><path fill="#F0F3FA" d="M0 0h56v56H0z"/><path d="M26.64 38.6c12.13 1.61 22.57-1.84 23.32-7.7a6.34 6.34 0 0 0-1.2-4.37c.14.48.21.97.21 1.47 0 5.6-9.42 10.14-21.03 10.14-2.15 0-4.21-.16-6.16-.45 1.55.39 3.18.7 4.86.92ZM7.03 29.13A5.02 5.02 0 0 1 6.9 28c0-5.6 9.42-10.13 21.04-10.13 2.28 0 4.47.17 6.53.5a45.17 45.17 0 0 0-5.11-.98c-12.13-1.6-22.57 1.85-23.32 7.7a6.17 6.17 0 0 0 .99 4.03Z" fill="#006CB7"/><path fill-rule="evenodd" d="M47.8 28c0 4.86-8.86 8.8-19.8 8.8-10.94 0-19.8-3.94-19.8-8.8 0-4.86 8.86-8.8 19.8-8.8 10.94 0 19.8 3.94 19.8 8.8Zm-2.7 2.71c.89-.89 1.32-1.8 1.32-2.71 0-.9-.43-1.82-1.32-2.71-.9-.89-2.21-1.71-3.89-2.42-3.35-1.41-8.02-2.3-13.21-2.3-5.19 0-9.86.89-13.21 2.3-1.68.7-3 1.53-3.89 2.42-.89.89-1.32 1.8-1.32 2.71 0 .9.43 1.82 1.32 2.71.9.89 2.21 1.71 3.89 2.42 3.35 1.41 8.02 2.3 13.21 2.3 5.19 0 9.86-.89 13.21-2.3 1.68-.7 3-1.53 3.89-2.42ZM28 36c10.5 0 19-3.58 19-8s-8.5-8-19-8-19 3.58-19 8 8.5 8 19 8Zm-9-5h1v-6h-1v6Zm4-1v1H21v-6h1v5h1Zm3 1v-1h-1v-5h-1v6h2Zm2 0h-1v-6h1v6Zm3-3.5V26h1v-1h-2v6h1v-2.5h1v-1h-1Zm5 .36v.28c0 1.37-.46 2.86-1.5 2.86-1.03 0-1.5-1.49-1.5-2.86v-.28c0-1.36.46-2.86 1.5-2.86 1.03 0 1.5 1.5 1.5 2.86Zm-1 .28v-.28c0-.76 0-1.86-.5-1.86s-.5 1.12-.5 1.86v.31c0 .75 0 1.83.5 1.83s.5-1.11.5-1.86Zm5 0v-.28c0-1.37-.47-2.86-1.5-2.86-1.04 0-1.5 1.5-1.5 2.86v.28c0 1.37.47 2.86 1.5 2.86 1.04 0 1.5-1.49 1.5-2.86Zm-1-.28V28.16c0 .75 0 1.84-.5 1.84s-.5-1.1-.5-1.85v-.29c0-.74 0-1.86.5-1.86s.5 1.1.5 1.86ZM14.5 31l-.5-6h1l.25 3.6.25-3.6h1l.25 3.6L17 25h1l-.5 6h-1l-.5-2.4-.5 2.4h-1ZM42 31h.2c1.08 0 1.8-1.28 1.8-2.86v-.28c0-1.56-.71-2.86-1.79-2.86H41v6h1Zm0-1h.21c.71 0 .79-.9.79-1.85v-.29c0-.94-.08-1.86-.79-1.86H42v4Z" fill="#EE1B2E"/></svg>