<!-- by TradingView --><svg width="56" height="56" viewBox="0 0 56 56" xmlns="http://www.w3.org/2000/svg"><path fill="#172339" d="M0 0h56v56H0z"/><path d="M5.58 25.2c-.1 0-.15.08-.15.22l.01.14.08.26L6.62 29h.01l1.08-3.22.07-.22.02-.13c0-.14-.05-.22-.14-.22V25h1.75v.2a.11.11 0 0 0-.1.06.26.26 0 0 0-.03.13c0 .07.03.2.1.38l1.1 3.22h.01l1.1-3.28a.8.8 0 0 0 .07-.31.2.2 0 0 0-.05-.13.16.16 0 0 0-.12-.07V25H13v.2c-.08 0-.13.05-.17.14l-.13.34-1.47 4.36-.1.32a.77.77 0 0 0-.05.23c0 .05.02.1.05.14.04.04.08.07.14.07v.2h-1.6v-.2a.63.63 0 0 0 .12-.07.15.15 0 0 0 .07-.13.64.64 0 0 0-.04-.2l-.12-.32-1.17-3.37H8.5l-1.11 3.3c-.1.3-.16.48-.16.56 0 .12.05.2.13.23v.2H5.8v-.2c.04 0 .08-.01.12-.04.04-.02.06-.06.06-.11a.56.56 0 0 0-.04-.2l-.07-.21-1.63-4.72a1.48 1.48 0 0 0-.1-.2.22.22 0 0 0-.14-.12V25h1.58v.2ZM13.69 30.8c.2 0 .3-.07.3-.2v-5.2c0-.13-.1-.2-.3-.2V25h1.8v.2c-.2 0-.29.07-.29.2v5.2c0 .13.1.2.3.2v.2h-1.81v-.2ZM16.8 30.8c.14 0 .2-.08.2-.21V25.4c0-.14-.06-.2-.2-.2V25h1.93v.2c-.06 0-.08.04-.08.12 0 .06.06.17.2.32l2.95 3.4V25.4c0-.14 0-.2-.32-.2V25h1.71v.2c-.13 0-.19.07-.19.2v5.18c0 .14.06.2.2.2V31h-1.83v-.2c.08 0 .13-.04.13-.1 0-.06-.06-.15-.16-.27L18.2 26.8v3.8c0 .13.14.2.3.2v.2H16.8v-.2ZM23.76 30.8c.06 0 .12-.02.17-.06.05-.03.07-.08.07-.15v-5.2c0-.07-.02-.12-.07-.14a.36.36 0 0 0-.17-.05V25h2.52v.2a.3.3 0 0 0-.13.04c-.04.02-.07.05-.07.1a5 5 0 0 0 .16.34l1.74 2.97 1.75-2.93.13-.23c.03-.06.05-.11.05-.16 0-.08-.06-.12-.16-.12V25h2.5v.2a.34.34 0 0 0-.18.04c-.05.02-.07.07-.07.14v5.2c0 .07.02.12.07.15.05.04.11.06.18.06v.2H30.5v-.2c.22 0 .3-.07.3-.2v-3.8L27.95 31h-.04l-2.71-4.2v3.79c0 .14.07.2.3.2v.2h-1.74v-.2Z" fill="#fff"/><path d="M32 30.8c.1-.02.17-.07.23-.15l.17-.3 2.09-4.43.14-.27a.53.53 0 0 0 .06-.22c0-.07-.02-.13-.08-.16a.65.65 0 0 0-.17-.07V25h1.91v.2a.76.76 0 0 0-.15.07c-.06.02-.08.08-.08.16 0 .07.01.13.04.19l.12.24 2.35 4.64c.04.08.09.14.15.18l.22.11v.2h-1.99v-.2c.03 0 .07 0 .12-.03.04-.02.06-.06.06-.1a.71.71 0 0 0-.09-.3l-.43-.84h-2.76l-.4.8a.95.95 0 0 0-.12.35c0 .08.07.13.22.13v.2H32v-.2H32Zm4.26-2.13-.95-2.12-1.06 2.12h2ZM43.06 25c1.16 0 2.2.48 2.2 1.77 0 .94-.6 1.51-1.5 1.7l1.39 2.16c.04.08.1.12.17.14.07.02.12.02.18.02V31h-1.94v-.2c.06 0 .11-.02.16-.04.04-.02.06-.05.06-.1a.27.27 0 0 0-.04-.12 3.12 3.12 0 0 0-.12-.2l-1.15-1.78H41v2.03c0 .07 0 .12.05.15.04.04.12.05.24.05V31H39.5v-.2c.2 0 .3-.07.3-.2V25.4c0-.14-.1-.2-.3-.2V25h3.56V25Zm-.27 2.67c.57 0 1.3-.14 1.3-.84 0-.71-.73-.83-1.3-.83H41v1.67h1.79ZM47.2 30.6c0 .06.11.11.15.14.04.04.1.06.15.06v.2h-1.73v-.2c.15 0 .23-.07.23-.2v-5.2c0-.13-.08-.2-.23-.2V25h1.73v.2c-.06 0-.1.02-.15.06-.04.03-.15.08-.15.15v2.17l2.36-1.86.23-.22c.06-.06.09-.1.09-.15 0-.05-.02-.09-.05-.11a.18.18 0 0 0-.11-.04V25h2.19v.2c-.13 0-.25.06-.38.18l-2.4 2.08 2.2 2.78c.09.11.19.22.31.33a1 1 0 0 0 .36.23v.2h-1.93v-.2c.1 0 .14-.03.14-.08 0-.04-.05-.13-.14-.25l-1.79-2.25-1.08.74v1.63Z" fill="#fff"/></svg>