<!-- by TradingView --><svg width="56" height="56" viewBox="0 0 56 56" xmlns="http://www.w3.org/2000/svg"><path fill="#F0F3FA" d="M0 0h56v56H0z"/><path fill-rule="evenodd" d="m5 23 2.37 9h1.3l1.8-6.74h.06l1.8 6.74h1.3L16 23h-1.36l-1.66 6.97h-.08L11.17 23H9.83L8.1 29.97h-.08L6.36 23H5Zm12 9v-7h1.3v7H17Zm.76-7.5a.8.8 0 0 1-.57-.21.71.71 0 0 1-.23-.53c0-.21.08-.39.23-.54a.8.8 0 0 1 .57-.22c.22 0 .41.07.57.22a.7.7 0 0 1 .23.54.7.7 0 0 1-.23.53.8.8 0 0 1-.57.22Zm9.7-1.5 2.49 7.33h.1l2.5-7.33H34l-3.22 9h-1.56L26 23h1.46ZM51 25v1h-1.7v4.04c0 .53.5.85.97.85a1.8 1.8 0 0 0 .48-.05l.25 1.03-.34.08a2.98 2.98 0 0 1-1.57-.13A1.67 1.67 0 0 1 48 30.3V26h-1v-1h1v-1h1.3v1H51Zm-5.12 1.74-1.09.21c-.04-.15-.11-.3-.21-.43-.2-.28-.52-.52-1.01-.52-.53 0-1.2.32-1.2.94 0 .22.08.4.24.54.15.14.4.25.73.34l.98.25c.56.14.99.37 1.26.67.28.3.42.69.42 1.16 0 1.37-1.28 2.1-2.51 2.1-1.21 0-2.28-.62-2.49-1.87l1.16-.2c.14.66.6 1.07 1.32 1.07.56 0 1.3-.33 1.3-1a.72.72 0 0 0-.23-.53 1.36 1.36 0 0 0-.65-.33l-1.04-.25c-.57-.14-1-.37-1.27-.69-.27-.31-.41-.71-.41-1.2 0-1.29 1.19-2 2.37-2 1.14 0 2.07.6 2.33 1.74ZM34 28.52c0 1.9 1.15 3.48 3.16 3.48 1.2 0 2.43-.59 2.76-1.83l-1.22-.23A1.62 1.62 0 0 1 37.17 31c-1.15 0-1.8-.94-1.88-2H40v-.6c0-1.79-1-3.4-2.94-3.4C35.1 25 34 26.7 34 28.52Zm1.29-.52h3.45c0-1-.58-2-1.67-2-1.04 0-1.78.99-1.78 2Zm-13.9 4v-4.1c0-.37.08-.68.22-.94.15-.26.35-.46.6-.6.25-.13.54-.2.86-.2.48 0 .85.15 1.12.43.27.28.41.68.41 1.18V32H26v-4.4c0-.57-.1-1.04-.3-1.43-.2-.39-.5-.68-.86-.87-.37-.2-.8-.3-1.29-.3-.54 0-.99.11-1.34.33a2 2 0 0 0-.78.88h-.09V25H20v7h1.4Z"/></svg>