<!-- by TradingView --><svg width="56" height="56" viewBox="0 0 56 56" xmlns="http://www.w3.org/2000/svg"><path fill="url(#ai1ef5412)" d="M0 0h56v56H0z"/><circle cx="28" cy="28" r="16" fill="url(#bi1ef5412)"/><path d="M24.88 36.33c-.86.33-1.74.66-2.66.84-.2.04-.39.01-.55-.08a.98.98 0 0 1-.54-1.02 66.11 66.11 0 0 1 .07-.9l-.6-.45a.22.22 0 0 1-.07-.23c0-.03.02-.05.04-.08l.22-.29v-.01a7.52 7.52 0 0 0-.5-.21c-.13-.05-.2-.12-.2-.26.03-.2.05-.52.09-.93 0-.02-.01-.04-.03-.04l-.63-.06a1.13 1.13 0 0 1-.5-.12.83.83 0 0 1-.4-.69c0-.07.01-.14.06-.2.18-.25.34-.5.5-.76.3-.54.63-1.07.95-1.6.17-.27.15-.64.1-.94a7.4 7.4 0 0 0-.39-1.35 1.42 1.42 0 0 1-.09-.4 6.2 6.2 0 0 1 .97-3.98 6.96 6.96 0 0 1 3.45-2.76c1.1-.38 2.2-.61 3.33-.8l.5-.08c.02 0 0 16 0 16 0 .01.02-.01 0 0l-3.12 1.4ZM32.6 19.31a1.28 1.28 0 0 0-2.18 1c.07.55.36.91.88 1.09.02 0 .03.02.03.04v2.3h-2.3c-.02 0-.03.01-.03.04v.62c0 .02 0 .03.03.03h2.34c.16 0 .29-.03.37-.08.19-.1.26-.29.26-.54v-2.37c0-.02.03-.03.04-.04.4-.14.67-.39.8-.73.2-.5.11-.95-.25-1.36Zm-.33.88a.58.58 0 1 1-1.16 0 .58.58 0 0 1 1.16 0Z" fill="#2C2C2C"/><path d="M29.03 26h4.96c.29 0 .48-.05.63-.3a.84.84 0 0 0 .06-.4 216.96 216.96 0 0 1 .01-2.44h.02a1.26 1.26 0 1 0-.83-2.4c-1.12.42-1.06 2.05.08 2.39.02 0 .04.02.04.04v2.4l-.01.01h-4.96c-.02 0-.03.02-.03.04V26l.03.01Zm5.9-4.36a.58.58 0 1 1-1.15 0 .58.58 0 0 1 1.15 0Z" fill="#2C2C2C"/><path d="M29.03 27.34h5.84c.01 0 .02 0 .03.02.14.4.4.67.77.81.72.27 1.53-.15 1.69-.91.14-.7-.31-1.39-1.03-1.51a1.27 1.27 0 0 0-1.43.87c0 .02-.02.03-.03.03h-5.83c-.03 0-.04.01-.04.03v.63c0 .02.01.03.03.03Zm7.68-.35a.58.58 0 1 1-1.16 0 .58.58 0 0 1 1.16 0Z" fill="#2C2C2C"/><path d="M33.94 28h-4.91c-.02 0-.03 0-.03.03v.63c0 .01 0 .02.03.02h4.96l.01.03v2.32a1.26 1.26 0 1 0 .92 2.34 1.26 1.26 0 0 0-.2-2.34L34.7 31v-2.35c0-.25-.08-.45-.3-.57a1.04 1.04 0 0 0-.46-.07Zm1.01 4.24a.58.58 0 1 1-1.16 0 .58.58 0 0 1 1.16 0Z" fill="#2C2C2C"/><path d="M31.23 29.56h-2.2c-.02 0-.03 0-.03.03v.62c0 .02.01.03.04.03h2.26c.02 0 .03.01.03.03v2.28c0 .02-.01.03-.03.04a1.26 1.26 0 0 0-.63 1.97c.53.7 1.6.66 2.08-.09.45-.72.09-1.62-.7-1.88-.02 0-.05-.02-.05-.04v-2.36c0-.28-.07-.46-.26-.56a1.2 1.2 0 0 0-.5-.07Zm1.04 4.24a.58.58 0 1 1-1.16 0 .58.58 0 0 1 1.16 0Z" fill="#2C2C2C"/><defs><linearGradient id="ai1ef5412" x1="10.42" y1="9.71" x2="68.15" y2="76.02" gradientUnits="userSpaceOnUse"><stop stop-color="#1A1E21"/><stop offset="1" stop-color="#06060A"/></linearGradient><linearGradient id="bi1ef5412" x1="12" y1="24.1" x2="42.46" y2="34.14" gradientUnits="userSpaceOnUse"><stop stop-color="#DBDBDB"/><stop offset="1" stop-color="#B1B1B1"/></linearGradient></defs></svg>