<!-- by TradingView --><svg width="56" height="56" viewBox="0 0 56 56" xmlns="http://www.w3.org/2000/svg"><path fill="#0176BC" d="M0 0h56v56H0z"/><path fill-rule="evenodd" d="M40 16H16v24h24V16Zm-25-1v26h26V15H15Z" fill="#FEFEFE"/><path d="M46.78 14.2c-.76.42-3.1 1.85-6.47 5.46a67.22 67.22 0 0 0-7.35 9.67s-3.1-6.92-4.83-9.09c-.11-.15-.24-.3-.38-.43-.7-.64-2.25.5-2.67.8-.35.27-1.36 3.9-2.22 7.76l-.37 1.68c-.08-1.04-2.58-5.24-4.26-6.77a2.56 2.56 0 0 0-.72-.51c-.39-.15-.87-.05-1.36.2a10.69 10.69 0 0 0-3.15 2.8c-.03.18.51.6 1.54-.1.29-.2.9.27 1.61 1.1 1.69 2 3.97 6.05 4.2 8 .14 1.3.94 1.77 1.79 1.77.9 0 1.88-.5 2.2-1.07.2-.37 1.76-8.25 2.48-8.96.26.03.59.55.94 1.34 1 2.27 2.15 6.75 2.22 8.02.05.76.74 1.05 1.52 1.12.94.07 2-.2 2.17-.42.3-.4 6.05-16.13 13.82-21.06.94-.6.52-2.02-.71-1.32Z" fill="#FEFEFE"/></svg>