<!-- by TradingView --><svg xmlns="http://www.w3.org/2000/svg" width="56" height="56" viewBox="0 0 56 56"><path fill="#E5FE54" d="M0 0h56v56H0z"/><path fill-rule="evenodd" d="M28 44c-8.22 0-12.49-1.84-15.05-6.17C11.51 35.34 11 30.87 11 28s.51-7.34 1.95-9.83C15.51 13.84 19.78 12 28 12s12.5 1.84 15.05 6.17C44.49 20.67 45 25.13 45 28s-.51 7.34-1.95 9.83C40.49 42.16 36.22 44 28 44Zm4.13-7c-.93 0-2.27-.42-2.92-1.93l-3.99-9.7A3.17 3.17 0 0 1 28.06 21c.92 0 2.27.43 2.92 1.93l3.99 9.7A3.17 3.17 0 0 1 32.13 37Zm-8.22 0c-.93 0-2.27-.42-2.92-1.93L17 25.37A3.17 3.17 0 0 1 19.83 21c.93 0 2.28.43 2.93 1.93l3.98 9.7A3.17 3.17 0 0 1 23.91 37Zm13.35-7.53c-.92 0-2.27-.43-2.92-1.93l-.9-2.16A3.16 3.16 0 0 1 36.27 21c.93 0 2.28.43 2.93 1.93l.9 2.16a3.17 3.17 0 0 1-2.84 4.38Z" fill="#002E91"/></svg>