<!-- by TradingView --><svg width="56" height="56" viewBox="0 0 56 56" xmlns="http://www.w3.org/2000/svg"><path fill="#F0F3FA" d="M0 0h56v56H0z"/><path d="M16.13 20H9.4a.41.41 0 0 0 0 .82h.64c1.02.13 1.7 1.13 1.92 1.62l8.71 19.32c.48.36.86.15.99 0l4.04-9.05 4.1 9.29 1.24-3.45-3.78-8.27c-.22-.42-.17-.75-.12-.87l3.74-7.44a2.43 2.43 0 0 1 2.09-1.15h.26a.41.41 0 0 0 0-.82h-5.68a.41.41 0 0 0 0 .82h.58c1.14 0 1 1 .8 1.49l-2.61 5.9-2.7-6.11c-.62-1.1.26-1.3.78-1.28h.64a.41.41 0 1 0 0-.82h-6.57a.41.41 0 0 0 0 .82h.54c.98 0 1.73 1.08 1.98 1.62l3.79 8.36c.17.21.07.65 0 .84l-2.93 6.17-7.15-15.84c-.51-1.04.5-1.2 1.07-1.15h.35a.41.41 0 1 0 0-.82Z" fill="#25406B"/><path d="M31.33 35.89a6.5 6.5 0 0 0-.34 2.21l1.56-4.8a31.76 31.76 0 0 1 4.93-8.72c3.4-4.24 8.12-5.39 10.06-5.44-4.47.69-6.92 2.71-9.9 6.1-2.39 2.73-4.19 6.83-4.8 8.54.16-.12.73-.38 1.77-.47 1.05-.09 1.48-.44 1.57-.6l-1.4-.26a7.98 7.98 0 0 0 3.24-2.86l1.67-2.87c-.36.02-.62-.08-.7-.13.63.04 1.22-.56 1.43-.86a4.3 4.3 0 0 1-2.22-.48c1.8.22 3.38-.76 3.94-1.27l3.55-3.2c-.59 0-.78-.23-.8-.34.5.07 2.34.07 3.3-.34.75-.33 2.85-.5 3.81-.55-4.88-1.85-7.22-1.34-7.79-.86l.68-.69c-1.51.03-3.23 1.04-3.9 1.55l.85-1.24c-.78-.08-1.76 1-2.16 1.54l.57-1.16c-1.47.33-3 1.53-3.59 2.1l-.7 2.2.26-1.8c-4.45 4.46-4.3 9.15-3.67 10.94l-.52-1.25c.19 2.8-.29 3.66-.7 5Z" fill="#BC0B28"/></svg>