<!-- by TradingView --><svg xmlns="http://www.w3.org/2000/svg" width="56" height="56"><path fill="#001952" d="M0 0h56v56H0z"/><path d="M30 29.93V26h1.99l.01-2h-1.99L30 21h-2v1.36c0 .8-.49 1.64-1.5 1.64h-.49L26 26h2v4.29c0 1.7.86 2.71 2.61 2.71.83 0 1.26-.15 1.39-.2V31h-.02c-.13.02-.47.06-.77.06-.82.02-1.21-.32-1.21-1.13zM11.16 23c-1.45 0-2.7.66-3.16 1.46V23H6v13h.78c.94 0 1.18-.55 1.22-1.28v-2.99c.48.7 1.72 1.27 3.07 1.27 2.71 0 4.43-2.45 4.43-5.2 0-2.72-1.56-4.8-4.34-4.8zm-.3 8C9.38 31 8 30 8 28c0-1.91 1.26-3 2.74-3 1.5 0 2.71 1.13 2.71 3s-1.25 3-2.6 3zM42 28c0-2.9 2.11-5 4.99-5 2.9 0 5.01 2.1 5.01 5s-2.12 5-5.01 5A4.85 4.85 0 0142 28zm2.2 0c0 1.94 1.38 3 2.79 3 1.43 0 2.82-1.05 2.81-3 0-1.97-1.38-3-2.81-3-1.4 0-2.79 1.05-2.79 3zm-18.6-.1c0-2.98-1.72-4.9-4.64-4.9-2.41 0-4.63 1.97-4.63 4.95 0 3.19 2.28 5.05 4.86 5.05a4.3 4.3 0 004.3-2.98l.07-.26h-2.12c-.36.76-1.05 1.24-2.25 1.24-1.41 0-2.6-.96-2.66-2.39h7.02c.01-.04.06-.35.06-.72zm-7.07-.9c.07-1 1.02-2 2.44-2 1.57 0 2.33.9 2.36 2h-4.8zm21.02 2h2.12c.09 0-.04.67-.07.87l-.01.06A4.4 4.4 0 0137.2 33a4.83 4.83 0 01-4.91-5c0-2.91 2.09-5 4.86-5 2.55 0 3.94 1.57 4.34 3.07v.02c.03.1.19.91.1.91h-2.05a2.3 2.3 0 00-2.38-2c-1.56 0-2.67.97-2.67 3 0 2.01 1.11 3 2.71 3 1.6 0 2.17-1.19 2.34-2z" fill="#fff"/></svg>