<!-- by TradingView --><svg width="56" height="56" viewBox="0 0 56 56" xmlns="http://www.w3.org/2000/svg"><path fill="#F0F3FA" d="M0 0h56v56H0z"/><path d="M37 17.5a2.5 2.5 0 0 0-2.42-2.5H21.63A9.57 9.57 0 0 0 12 24.5c0 5.25 4.31 9.5 9.63 9.5h12.95a2.5 2.5 0 0 0 0-5H21.76c-2.65 0-4.8-1.89-4.8-4.5 0-2.61 2.15-4.5 4.8-4.5h12.82A2.5 2.5 0 0 0 37 17.5Z" fill="url(#ahzp0mysk)"/><path d="M19 24.5a2.5 2.5 0 0 1 2.42-2.5h12.95A9.57 9.57 0 0 1 44 31.5c0 5.25-4.31 9.5-9.63 9.5H21.42a2.5 2.5 0 0 1 0-5h12.82c2.65 0 4.8-1.89 4.8-4.5 0-2.61-2.15-4.5-4.8-4.5H21.42A2.5 2.5 0 0 1 19 24.5Z" fill="url(#bhzp0mysk)"/><defs><linearGradient id="ahzp0mysk" x1="37" y1="31.46" x2="13.47" y2="18.64" gradientUnits="userSpaceOnUse"><stop stop-color="#75BF42"/><stop offset="1" stop-color="#9FCC3B"/></linearGradient><linearGradient id="bhzp0mysk" x1="42" y1="25.78" x2="19.17" y2="39.82" gradientUnits="userSpaceOnUse"><stop stop-color="#00B2F0"/><stop offset="1" stop-color="#00869A"/></linearGradient></defs></svg>