<!-- by TradingView --><svg width="56" height="56" viewBox="0 0 56 56" xmlns="http://www.w3.org/2000/svg"><path fill="#F0F3FA" d="M0 0h56v56H0z"/><path d="M14.39 36.47A16.27 16.27 0 0 1 12 28.03a15.98 15.98 0 0 1 25.87-12.59c-3.22 1.62-6.97 4.37-10.64 9.56h-7.68L16 31h7.03a18.47 18.47 0 0 1-8.64 5.47Z" fill="#00539B"/><path d="M18.06 40.56A26.16 26.16 0 0 0 29.48 31h7.23l3.68-6H33.8c3.22-3.44 5.93-4.95 7.74-5.6A16.02 16.02 0 0 1 44 27.97C44 36.86 36.84 44 28.06 44a14.77 14.77 0 0 1-10-3.44Z" fill="#CC2030"/></svg>