<!-- by TradingView --><svg xmlns="http://www.w3.org/2000/svg" width="56" height="56"><path fill="#162536" d="M0 0h56v56H0z"/><path d="M22 34v-3h-3l.7-2H22v-5h6.71c.77 0 2.25.26 2.29 1.85v3.28c0 .6-.48 1.87-2.17 1.87h-1.45l2.67 1.77L34.32 24h2.3l5 10h-2.66l-3.57-7.67L34.32 29h1.45l.86 2h-3.24l-1.47 3h-3.5l-3.98-3H24v3h-2zm6-8h-4v3h4a1 1 0 001-1v-1a1 1 0 00-1-1zM8 34L4 24h2.4L9 30.5l2.5-6.5h2l2.5 6.5 2.75-6.5H21l-4 10h-2l-2.5-6.5L10 34H8zm34-3v3h2.04v-3h4.79c1.7 0 2.18-1.27 2.17-1.87v-3.28c-.04-1.59-1.52-1.85-2.3-1.85H42v5h-2l.83 2H42zm2-5h4a1 1 0 011 1v1a1 1 0 01-1 1h-4v-3z" fill="#fff"/></svg>