<!-- by TradingView --><svg width="56" height="56" viewBox="0 0 56 56" xmlns="http://www.w3.org/2000/svg"><path fill="#F0F3FA" d="M0 0h56v56H0z"/><path d="M11 28a17 17 0 0 0 16.85 17h.3A17 17 0 1 0 11 28Z" fill="url(#awbtvx4pl)"/><path d="M13 28a15 15 0 1 0 30.01 0A15 15 0 0 0 13 28Z" fill="url(#bwbtvx4pl)"/><path d="M38.2 28.1c.47 0 .84.41.8.9a10.97 10.97 0 0 1-13.3 9.74.92.92 0 0 1-.7-1 .83.83 0 0 1 1.04-.71c.8.18 1.63.25 2.46.21 4.13-.17 8.13-3.8 8.7-7.88l.06-.5c.04-.44.4-.77.82-.76h.11Zm-2.86-6.98c0 .51-.4.85-.83.85-.45 0-.49-.22-.9-.22-.41 0-.7.33-.76.87L32.71 24h.81c.47 0 .85.27.78.86-.05.58-.49.83-.95.83h-.81l-.65 6.25c-.06.53-.4 1.06-1.07 1.06-.65 0-.89-.53-.83-1.06l.65-6.25h-.24c-.46 0-.85-.25-.8-.83.07-.59.51-.86.98-.86h.23l.16-1.45c.15-1.34.93-2.55 2.74-2.55.54 0 1.03.12 1.34.4.18.17.29.41.29.72ZM19.84 29.5c.16.95.42 1.5 1.28 1.5h.04c.84 0 1.23-.67 1.56-1.5l1.12-3.14h.03l.46 3.14c.16.95.4 1.5 1.27 1.5h.04c.8-.02 1.2-.62 1.58-1.5l1.66-4.15c.3-.76.01-1.35-.77-1.35-.56 0-.8.37-.94.8l-1.37 3.98h-.01l-.52-3.36c-.16-1.06-.47-1.38-1.15-1.42h-.07c-.72 0-1.03.34-1.42 1.43l-1.19 3.35h-.03l-.59-3.98c-.06-.46-.25-.8-.84-.8-.73 0-1.1.59-.95 1.35l.8 4.15Z" fill="#F0F3FA"/><defs><linearGradient id="awbtvx4pl" x1="16.9" y1="15.12" x2="41.76" y2="43.95" gradientUnits="userSpaceOnUse"><stop stop-color="#4FB8E6"/><stop offset="1" stop-color="#2A78BC"/></linearGradient><linearGradient id="bwbtvx4pl" x1="15.29" y1="14.69" x2="40.6" y2="41.2" gradientUnits="userSpaceOnUse"><stop offset=".11" stop-color="#1C5EA6"/><stop offset="1" stop-color="#122F5D"/></linearGradient></defs></svg>