<!-- by TradingView --><svg width="56" height="56" viewBox="0 0 56 56" xmlns="http://www.w3.org/2000/svg"><path fill="#3C6E8E" d="M0 0h56v56H0z"/><path d="M11 24.54V19h22c-.5.17-2.4 1.05-6 3.04-4.5 2.5-8.5 3.5-11 3.5-2 0-4.17-.67-5-1Z" fill="#fff"/><path d="M11 31.02v-5.49c.5.67 2.8 2 8 2 6.5 0 10.5-4 15.5-6.49 4-2 6.5-2.04 10.5-2.04v6.03c-1-.16-3.3-.5-4.5-.5-1.5 0-5.5 0-11.5 3.5-6 3.49-8.5 4.49-12 4.49-2.8 0-5.17-1-6-1.5Z" fill="#fff"/><path d="M19 34.51c-4 0-7-1.66-8-2.5v5.5c.33.5 2.2 1.49 7 1.49 9 0 14-7.48 23-7.48 2 0 3.5.33 4 .5v-6.49c-7 0-12.5 4-15 5.49-2.5 1.5-6 3.5-11 3.5Z" fill="#fff"/></svg>