<!-- by TradingView --><svg width="56" height="56" xmlns="http://www.w3.org/2000/svg"><path fill="#036A37" d="M0 0h56v56H0z"/><path d="M48.439 32v-6h.978v3.105L50.541 28h1.25l-1.563 1.563L52 32h-1.137l-1.446-1.967V32h-.978zM6 32l-2-8h2l1 4 1.5-4h2l1.5 4 1-4h2l-2 8h-2l-1.5-5L8 32H6zM19.33 24c.93 0 1.886.195 2.248.293a140.41 140.41 0 000 2.06c-1.38-.44-2.332-.353-2.533-.353-.201 0-1.045.06-1.045.526 0 .374.636.591.938.646 1.036.19 3.043.348 3.06 2.225.02 2.347-2.288 2.592-3.294 2.603-.805.009-2.157-.241-2.704-.367v-2.236c1.048.492 2.726.583 2.938.583.211 0 1.062.065 1.062-.414 0-.338-.335-.487-.504-.51-1.037-.14-3.498-.593-3.498-2.468 0-2.344 2.17-2.588 3.332-2.588zM32.333 24c.93 0 1.885.195 2.247.293a140.41 140.41 0 000 2.06c-1.38-.44-2.331-.353-2.533-.353-.2 0-1.045.06-1.045.526 0 .374.636.591.938.646 1.036.19 3.043.348 3.06 2.225.021 2.347-2.287 2.592-3.294 2.603-.804.009-2.157-.241-2.704-.367v-2.236c1.049.492 2.726.583 2.938.583.211 0 1.062.065 1.062-.414 0-.338-.335-.487-.504-.51-1.037-.14-3.498-.593-3.498-2.468C29 24.244 31.17 24 32.333 24zM23 32v-8h5v2h-3v1h3v2h-3v3h-2zM37 32v-6h1v2.57c.133-.205.638-.57 1.106-.57.467 0 1.535.044 1.535 1.867 0 1.74-.86 2.133-1.535 2.133-.47 0-.92-.329-1.106-.5v.5h-1zM44.5 32v-4h1.014v.585c.338-.47.993-.594 1.278-.585 1.088.033 1.24.968 1.208 1.419v2.58h-1v-1.87c0-.527.022-1.274-.63-1.208-.653.066-.852.534-.87.825V32h-1zM42.605 28.001c-.507-.018-1.03.166-1.227.26v1.058c.105-.117.359-.429.976-.456.618-.027.67.403.646.678h-.8c-.921.046-1.228.691-1.198 1.314.03.623.375 1.145 1.127 1.145.741 0 .871-.498.871-.647V32h1v-2.77c0-.986-.762-1.206-1.395-1.229z" fill="#fff"/><path d="M42.457 30.268h.553c0 .732-.414.899-.553.924-.225.041-.64 0-.633-.381.007-.381.33-.543.633-.543zM38.037 30.006c.034-.742.608-.98.89-1.006.279 0 .835.201.835 1.006 0 .804-.556.998-.834.994-.311-.022-.925-.253-.891-.994z" fill="#036A37"/></svg>