<!-- by TradingView --><svg width="56" height="56" xmlns="http://www.w3.org/2000/svg"><path fill="#194881" d="M0 0h56v56H0z"/><path d="M9.533 25.581c-.066-.213-.17-.485-.17-.67 0-.232.247-.533.522-.698.067-.038.143-.058.21-.077V24h-2.9v.136c.37.048.865.456 1.036.815.047.097.276.747.276.844 0 .058-.02.126-.105.368l-1.036 3.178h-.02L6.14 25.523c-.057-.175-.152-.466-.152-.572 0-.272.409-.796.723-.815V24H4v.136l.333.194c.295.174.475.475.542.689L6.833 31h.095l1.645-5.011h.02L10.245 31h.077l1.825-5.555c.057-.184.21-.426.37-.591l.638-.64c.057-.059.133-.078.218-.078V24h-2.348v.136l.4.077c.2.03.646.582.646.883 0 .117-.076.369-.143.582l-1.17 3.624h-.018l-1.208-3.72zM16.187 31v-.109c-.107 0-.251-.007-.35-.062a.69.69 0 01-.35-.559v-4.36c0-.172.251-.389.396-.412.09-.016.175-.024.25-.024v-.108h-2.342v.108c.076.008.19.008.281.016.175.016.442.357.442.505v4.462c0 .155-.282.388-.411.411a1.458 1.458 0 01-.259.023V31h2.343zM18.881 31v-.109l-.38-.007c-.32-.008-.814-.8-.814-1.234v-3.555L22.144 31h.13v-4.447c0-.442.387-.923.608-1.016a.806.806 0 01.297-.063v-.108h-2.26v.108c.115 0 .305 0 .427.055.357.163.821.807.821 1.063v3.05l-3.902-4.276H16.66v.108c.091 0 .19.016.297.032.16.023.624.426.624.52v3.725c0 .388-.305 1.117-.92 1.14V31h2.22zM23.587 25.366v1.459h.138C24 26 24.781 25.482 25.26 25.482c.213 0 .517.272.517.427v4.377c0 .427-.435.605-.777.605V31h2.489v-.109c-.358 0-.791-.17-.791-.613V25.94c0-.194.236-.458.471-.458.533 0 1.408.427 1.667 1.343h.128v-1.46h-5.377zM31.241 26.041c0-.419.365-.582.83-.582.79 0 1.231.535 1.231 1.311 0 .474-.205.83-.494.978-.198.101-.434.124-.677.124h-.89v-1.831zm3.963 4.718a.826.826 0 01-.282.055c-.471 0-.722-.474-.927-.893l-.267-.543c-.258-.528-.692-1.195-1.384-1.358v-.016c.943-.03 1.955-.085 1.955-1.21 0-.745-.791-1.451-2.008-1.451-.312 0-.632.023-.943.023h-1.742v.108c.121 0 .25 0 .365.04.175.061.32.31.32.465v4.392c0 .21-.305.396-.427.45a.697.697 0 01-.258.07V31h2.449v-.109h-.243c-.29 0-.57-.225-.57-.527V27.98h.448c.296 0 .51.124.799.753l.395.854c.304.66.852 1.412 1.75 1.412.235 0 .41-.039.578-.109l-.008-.132zM35.621 25.366v.108c.1 0 .229 0 .312.024.168.046.411.256.411.403v2.942c0 1.358 1.012 2.165 2.107 2.165 1.377 0 2.206-1.032 2.206-2.43V26.53c0-.17.334-.854.707-.986.107-.038.22-.07.297-.07v-.108H39.25v.108c.114 0 .327.008.425.04.419.131.875.783.875 1v2.003c0 1.218-.67 2.227-1.703 2.227-.738 0-1.567-.644-1.567-1.42V26.01c0-.295.25-.481.334-.505.1-.03.259-.03.441-.03v-.11h-2.434zM42.228 30.783a4.9 4.9 0 001.46.217c1.118 0 2.138-.582 2.138-1.84 0-1.994-2.845-1.396-2.845-2.855 0-.536.426-.893 1.011-.893.776 0 1.202.846 1.499 1.46l.106-.04a20.414 20.414 0 01-.16-1.528c-.19.039-.364.054-.547.054-.289 0-.586-.054-.882-.054-.837 0-1.689.52-1.689 1.459 0 1.792 2.868 1.397 2.868 2.786 0 .83-.51 1.342-1.27 1.342-.852 0-1.514-1.164-1.72-1.901l-.137.016.168 1.777zM46.546 25.366v1.467h.16c.251-.42 1.035-1.35 1.514-1.35.213 0 .517.27.517.426v4.377c0 .427-.472.605-.814.605V31h2.525v-.109c-.357 0-.79-.17-.79-.613V25.91c0-.194.235-.427.47-.427.533 0 1.568.846 1.743 1.343H52v-1.46h-5.454z" fill="#fff"/></svg>