<!-- by TradingView --><svg xmlns="http://www.w3.org/2000/svg" width="56" height="56" viewBox="0 0 56 56"><path fill="#F0F3FA" d="M0 0h56v56H0z"/><path d="M5 29.48V22h2v6.82c0 .74.82 2.18 2.58 2.18 1.6 0 2.42-1.12 2.42-2.02v-3.43c.02-2.84 1.91-3.55 3.09-3.55H24v2h-3v9h-2v-9h-3.13c-1.76.08-1.9 1.19-1.87 1.73v4.03c0 1.16-.76 3.24-4.42 3.24C6.05 33 5 30.82 5 29.48Z" fill="#EB9C35"/><path fill="#323232" d="M26 22h2v2h-2zM26 25h2v8h-2zM34.32 25c-.99 0-1.85.53-2.32 1.33V25h-2v8h2.02v-5.02a1.49 1.49 0 1 1 2.98 0V33h2v-5.1a1.5 1.5 0 0 1 3 .09V33h2v-5.32a2.68 2.68 0 0 0-5.18-.98c-.4-1-1.37-1.7-2.5-1.7Z"/><path fill-rule="evenodd" d="M47.25 33c1.53 0 2.84-.97 3.43-2.37l-1.95-.31c-.32.68-.86 1.13-1.48 1.13-.85 0-1.56-.86-1.72-1.99H50.97c.02-.15.03-.3.03-.46 0-2.2-1.68-4-3.75-4-2.07 0-3.75 1.8-3.75 4s1.68 4 3.75 4Zm1.66-4.8c-.24-.96-.9-1.65-1.66-1.65-.77 0-1.42.7-1.66 1.65h3.32Z" fill="#323232"/></svg>