<!-- by TradingView --><svg xmlns="http://www.w3.org/2000/svg" width="56" height="56"><path fill="#F0F3FA" d="M0 0h56v56H0z"/><path d="M21 20h1l-4.5 11-3.5-8.5-3.5 8.5L6 20h1l3.5 8.5L14 20l3.5 8.5L21 20zm10 11l-5-11-5 11h1l4-8.5 4 8.5h1zm4 0l5-11h-1l-4 8.5-4-8.5h-1l5 11zm13-11h-7v11h7v-1h-6v-4h5v-1h-5v-4h6v-1z" fill="#231F20"/><path d="M26.53 36.86c.32-.15.58-.4.74-.7l-.2-.05c-.11.22-.29.4-.5.52a1.4 1.4 0 01-.73.18 1.4 1.4 0 01-.97-.38c-.25-.25-.4-.58-.4-.93 0-.35.15-.68.4-.93.26-.24.61-.38.98-.38.25-.01.5.05.7.18.22.13.39.31.5.53l.19-.05a1.42 1.42 0 00-.57-.63 1.52 1.52 0 00-.83-.22 1.6 1.6 0 00-1.12.43 1.46 1.46 0 00-.1 2c.22.27.53.45.87.53.35.08.72.04 1.04-.1zM7.2 34H7v3h2v-.2H7.21V34zm3.13 0h.21v3h-.21v-3zm2.01.2v1.2h1.43v.19h-1.43V37h-.22v-3h2.12v.2h-1.9zm5.34-.2h-2.13v3h2.16v-.2h-1.95v-1.27h1.53v-.2h-1.53V34.2h1.92V34zm3.34 2.18c.05.42.42.64.94.64.5 0 .82-.2.82-.62 0-.5-.47-.59-.92-.67l-.1-.02c-.35-.07-.85-.19-.85-.75 0-.49.36-.76.99-.76.57 0 .96.22 1.06.69l-.18.05c-.09-.35-.33-.56-.86-.56-.52 0-.8.2-.8.57 0 .43.39.53.84.61H22c.38.08 1 .19 1 .84 0 .53-.4.8-1.03.8-.44 0-1.02-.13-1.13-.77l.2-.05zm7.9-2.18h-.22v3h.22v-3zm3.7 0H30.5v3h2.16v-.2H30.7v-1.27h1.53v-.2H30.7V34.2h1.92V34zm3.71 3l-2.12-2.7V37H34v-3h.22l2.11 2.67V34h.22v3h-.22zm3.93-.14c.32-.15.58-.4.74-.7l-.2-.05c-.11.22-.29.4-.5.52a1.4 1.4 0 01-.73.18 1.4 1.4 0 01-.97-.38c-.25-.25-.4-.58-.4-.93 0-.35.15-.68.4-.93.27-.24.61-.38.98-.38.25-.01.5.05.7.18.22.13.39.31.5.53l.19-.05a1.42 1.42 0 00-.56-.63 1.51 1.51 0 00-.84-.22 1.6 1.6 0 00-1.12.43 1.46 1.46 0 00-.1 2 1.65 1.65 0 001.91.42zM42.4 34h2.13v.2h-1.91v1.13h1.52v.2h-1.52v1.28h1.94V37H42.4v-3zm4.56 2.82c-.51 0-.89-.22-.94-.64l-.19.05c.11.64.7.77 1.14.77.62 0 1.02-.27 1.02-.8 0-.65-.62-.76-1-.83h-.02c-.46-.09-.86-.2-.86-.62 0-.37.29-.57.81-.57.53 0 .78.21.86.56l.19-.05c-.1-.47-.5-.69-1.07-.69-.63 0-.99.27-.99.76 0 .56.5.68.86.75l.1.02c.45.08.92.17.92.67 0 .42-.33.62-.83.62z" fill="#0193AB"/></svg>