<!-- by TradingView --><svg width="56" height="56" viewBox="0 0 56 56" xmlns="http://www.w3.org/2000/svg"><path fill="#322F2C" d="M0 0h56v56H0z"/><path fill-rule="evenodd" d="M5.19 24.14V24H6.3v.14H6.1l.22.78.34-.78h-.3V24h.76v.14h-.2l-.52 1.1.37 1.33.75-2.43h-.3V24h.76v.14h-.22L6.76 27h-.45l-.3-.95-.43.95h-.45l-.9-2.86H4V24h1.13v.14H4.9l.68 2.43.35-.8-.52-1.63H5.2ZM8.7 25v.14H9v1.73h-.3V27h1v-.13h-.26v-1.73h.27V25h-1Zm2 .14V25h1v.14h-.26v1.73h.7l.19-.55h.1l-.1.68H10.7v-.13h.3v-1.73h-.3Zm2.57-.14v.14h.32v1.73h-.32V27h1.62l.1-.68h-.1l-.18.55H14v-1.73h.27V25h-1Zm3.45 2h-.67v-.13h.23l.77-1.87h.39l.6 1.87h.27V27h-1v-.13h.28l-.22-.71h-.6l-.3.71h.25V27Zm.4-1.69.2.69h-.49l.3-.69Zm2.32-.31v.13h.29v1.76h-.29V27h.68v-.1h-.26v-1.38l.8 1.48h.1l.86-1.75v1.64h-.32V27h.98v-.1H22v-1.77h.28V25h-.73l-.74 1.37-.7-1.37h-.67Zm3.8.12V25h1.61v.49h-.1l-.14-.37H24v.75h.43c.07 0 .13-.05.13-.13v-.15h.11v.74h-.1v-.19c0-.07-.07-.14-.14-.14H24v.88h.75l.25-.55h.14l-.13.67h-1.76v-.12h.3v-1.76h-.3ZM31.7 25v.12h.3v1.76h-.3V27h1.76l.14-.67h-.15l-.24.55h-.76V26h.43c.08 0 .12.07.12.14v.19h.12v-.74H33v.15c0 .08-.04.13-.12.13h-.43v-.75h.62l.14.37h.1V25H31.7Zm-5.9.57h.15c0-.15.06-.44.23-.44h.42v1.76h-.27V27h1.02v-.1H27v-1.77h.46c.06 0 .19.1.19.44h.15l-.06-.57H25.9l-.1.57Zm3.16 0h-.15l.11-.57h1.83l.06.57h-.16c0-.33-.12-.43-.18-.44H30v1.76h.36V27h-1.03v-.1h.28v-1.77h-.42c-.17 0-.22.3-.23.44ZM36.32 24v.24h.32L37.5 27h.46l1.1-2.76h.36V24h-1.04v.24h.4l-.82 2.29-.73-2.3h.42V24h-1.33Zm3.39 3h.67v-.13h-.26l.3-.71h.62l.21.71h-.27V27h1v-.13h-.28L41.1 25h-.39l-.77 1.87h-.23V27Zm1.28-1-.2-.69-.3.69h.5Zm8.63-1v.14h.28l.69 1.11v.6h-.45V27h1.3v-.15H51v-.6l.79-1.1H52V25h-.81v.14h.3l-.52.9-.55-.9h.35V25h-1.15Zm-2.37.12V25h1.6v.49h-.1l-.13-.37H48v.75h.44c.07 0 .13-.05.13-.13v-.15h.1v.74h-.1v-.19c0-.07-.06-.14-.13-.14H48v.88h.76l.24-.55h.15l-.13.67h-1.77v-.12h.3v-1.76h-.3Zm-4.56.02V25h1v.14h-.27v1.73h.7l.2-.55h.09l-.1.68H42.7v-.13H43v-1.73h-.31Zm2.57-.14v.14h.32v1.73h-.32V27h1.63l.09-.68h-.1l-.18.55H46v-1.73h.26V25h-1Zm-16.5 4c-8.82 0-16.18.32-18.76.47 4.71.18 15.06.53 18.76.53 3.7 0 14.37-.35 19.24-.53-2.74-.15-10.42-.47-19.24-.47ZM15 32.16V32h1.1v.16h-.35l.6 1.52.68-1.52h-.32V32h.86v.16h-.3L16.37 34h-.38l-.72-1.84H15Zm8.7-.04V32h1.64v.49h-.1l-.15-.37h-.63v.75h.45c.07 0 .13-.05.13-.13v-.15h.1v.74h-.1v-.19c0-.07-.06-.14-.13-.14h-.45v.88h.77l.25-.55h.15l-.13.67h-1.8v-.12h.3v-1.76h-.3ZM21.4 34h-.82v-.18H21v-1.5l-.1-.13h-.32V32h.74l1.15 1.36v-1.17h-.28V32h.74v.19h-.28V34h-.24l-1.27-1.52v1.34h.26V34Zm-2.73-1.86V32h1.03v.14h-.27v1.73h.27V34h-1.03v-.13H19v-1.73h-.33ZM29.3 34H30v-.13h-.26l.3-.71h.63l.22.71h-.28V34h1.01v-.13h-.27L30.72 32h-.4l-.78 1.87h-.24V34Zm1.31-1-.2-.69-.3.69h.5Zm-3.89-.86V32h1.03v.14h-.3l.48.9.47-.9h-.27V32h.73v.14h-.2L28 33.26v.6h.36V34H27.2v-.15h.4v-.6l-.62-1.1h-.25Zm6-.14v.15H33v1.7h-.29V34h.97v-.15h-.29v-.74h.25l.6.89h.7v-.14h-.21l-.69-.87c.25-.1.5-.28.5-.53 0-.35-.32-.45-.48-.46h-1.35Zm.67.22v.7c.47.08.66-.1.66-.39 0-.28-.18-.4-.38-.4-.17 0-.25.06-.28.1ZM37.1 34h-1.42v-.15H36v-1.69h-.33V32h1.43c.16 0 .9 0 .9.94 0 .74-.6 1.02-.9 1.06Zm-.68-1.76v1.55c.02.02.1.07.28.07.22 0 .83-.03.83-.82 0-.8-.5-.94-.79-.94-.23 0-.3.1-.32.14ZM39 34v-.61h.15c0 .42.3.51.46.5.16 0 .47-.07.47-.35 0-.16-.22-.28-.46-.41-.27-.15-.55-.31-.55-.55 0-.45.5-.58.8-.58.24 0 .46.07.53.1v.46h-.1c0-.05-.06-.41-.43-.41-.3 0-.38.2-.39.3 0 .25.25.3.5.37.3.08.6.16.6.52 0 .55-.59.67-.88.66H39Z" fill="#fff"/></svg>