<!-- by TradingView --><svg xmlns="http://www.w3.org/2000/svg" width="56" height="56" viewBox="0 0 56 56"><path fill="#F0F3FA" d="M0 0h56v56H0z"/><path d="M43 25h-2l.5.5-.5.5h1v6h1v-7Z" fill="#ABA6A7"/><path fill-rule="evenodd" d="M17 29h5v-1.28c0-1.9-1.44-2.72-2.84-2.72-1.94 0-3.16 1.25-3.16 3.58 0 2.6 1.31 3.42 3.47 3.42.84 0 2.16-.45 2.16-.45s.02-.33-.22-.53c-.35-.29-.62-.23-1.03-.13a4.4 4.4 0 0 1-.9.13c-.72.02-1.5-.15-1.84-.47C17.01 29.95 17 29 17 29Zm0-1h4s.02-.69-.36-1.27c-.29-.44-.8-.73-1.56-.73a2 2 0 0 0-1.6.73A2.29 2.29 0 0 0 17 28ZM31 29h5v-1.28c0-1.9-1.44-2.72-2.84-2.72-1.94 0-3.16 1.25-3.16 3.58 0 2.6 1.31 3.42 3.47 3.42a8.7 8.7 0 0 0 2.16-.45s.02-.33-.22-.53c-.35-.29-.62-.23-1.03-.13a4.4 4.4 0 0 1-.9.13c-.72.02-1.5-.15-1.84-.47C31.01 29.95 31 29 31 29Zm0-1h4s.02-.69-.36-1.27c-.29-.44-.8-.73-1.56-.73a2 2 0 0 0-1.6.73A2.29 2.29 0 0 0 31 28Z" fill="#ABA6A7"/><path d="m38 22-1 1.08v7.39S37.19 32 38.91 32c1.08 0 2.1-.67 2.1-.67l-.04-.08c-.15-.43-.5-.62-.9-.5-.34.1-.7.25-1.02.25-1.06 0-1.06-1.14-1.06-1.14L38 26h2l.5-.5-.5-.5h-2v-3ZM12.29 27l-.93 1.31L14.13 32H16l-3.71-5ZM16.03 21h-1.78l-2.81 3.75.92 1.25 3.67-5Z" fill="#ABA6A7"/><path d="M8 21H6l4.06 5.5L6 32h2l4-5.5L8 21Z" fill="#05ADEC"/><path d="M24 26v-1h-1v7h1v-3.63c0-1.4.84-2.37 2-2.37 1.56 0 2 1.25 2 2.38v2.59c0 .62.31 1.03 1 1.03v-4.38C29 25.6 27.25 25 26.37 25c-.65 0-1.9.19-2.37 1ZM47.37 32H50c0-.4-.19-1-.91-1h-1.4c-1.46 0-2.29-1.42-2.29-2.56 0-1.14.56-2.44 1.97-2.44h1.5c.35 0 .66-.13.84-.44L50 25h-2.3c-.94 0-1.6.13-2.3.78-.73.67-1 1.49-1 2.66 0 1.87.98 3.48 2.97 3.56Z" fill="#ABA6A7"/></svg>