<!-- by TradingView --><svg width="56" height="56" viewBox="0 0 56 56" xmlns="http://www.w3.org/2000/svg"><path fill="#0043FE" d="M0 0h56v56H0z"/><path d="M18.5 35.96h.01Zm0 0v-3.48H21V31h-4v1.13l-7.28-7.05L17 17.9V19h10.38c.57 0 1.12.25 1.53.67.4.42.63.98.63 1.57V22H31v-.76c0-.98-.4-1.93-1.07-2.63-.68-.7-1.6-1.1-2.56-1.1H18.5V14L8.24 24.49a.86.86 0 0 0-.18.92c.05.1.1.2.19.27L18.5 35.96Zm19 6.02V42h-.01v-.02Zm0 0 10.26-10.37a.85.85 0 0 0 0-1.2l-10.27-9.93v3.03H26.2c-2 0-3.62 1.68-3.62 3.73V34h.72c.92 0 1.73-.9 2.16-1.37l.12-.14h5.87c2 0 3.54-1.39 3.54-3.44V27h-1.37v2.06c0 .59-.23.87-.63 1.29-.4.42-.96.65-1.53.65h-6.12c-.24 0-.46.1-.64.28l-.04.05c-.19.22-.44.42-.67.59v-4.68A2.3 2.3 0 0 1 26.2 25H39v-.78l7.26 6.8L39 38.16V37h-8.4c-.57 0-1.12-.21-1.53-.63-.4-.42-.63-.99-.63-1.58V34H27v.8c0 1 .38 1.94 1.05 2.64.68.7 1.6 1.1 2.56 1.1h6.88v3.45Z" fill="#fff"/></svg>