<!-- by TradingView --><svg xmlns="http://www.w3.org/2000/svg" width="56" height="56"><path fill="url(#aw03cpbmo)" d="M0 0h56v56H0z"/><path d="M52 29a5 5 0 10-5 5c1.16 0 2.1-.4 3-1.16V34h2v-4.63l-.02-.02c.02-.1.02-.22.02-.34zm-5 3c-1.63 0-3-1.23-3-3a2.9 2.9 0 013-3c1.73 0 3 1.24 3 3a2.94 2.94 0 01-3 3zm-8-.6V21h-2v11.18c0 1.7 1.12 1.82 1.77 1.82H40v-2h-.35c-.35 0-.65-.26-.65-.6zM34.92 30a5 5 0 10-4.93 4 5.05 5.05 0 004.46-2.5h-2.5c-1.22.83-3.7.72-4.64-.77A2.52 2.52 0 0127 30h7.92zM30 26c1.32 0 2.6.64 3 2h-6c.4-1.36 1.68-2 3-2zm-16.08 4a5 5 0 10-4.93 4 5.05 5.05 0 004.46-2.5h-2.5c-1.22.83-3.7.72-4.64-.77A2.52 2.52 0 016 30h7.92zM9 26c1.32 0 2.6.64 3 2H6c.4-1.36 1.68-2 3-2z" fill="#fff"/><path d="M24 26v-2a4.91 4.91 0 00-4.61 3.29v3.43A4.92 4.92 0 0024 34v-2c-1.74 0-3-1.24-3-3s1.26-3 3-3z" fill="#49C6F3"/><path d="M16 32v2a5 5 0 000-10v2c1.77 0 3 1.24 3 3 0 1.77-1.23 3-3 3z" fill="#fff"/><defs><linearGradient id="aw03cpbmo" x1="10.42" y1="9.71" x2="68.15" y2="76.02" gradientUnits="userSpaceOnUse"><stop stop-color="#1A1E21"/><stop offset="1" stop-color="#06060A"/></linearGradient></defs></svg>