<!-- by TradingView --><svg xmlns="http://www.w3.org/2000/svg" width="56" height="56" viewBox="0 0 56 56"><path fill="#F0F3FA" d="M0 0h56v56H0z"/><path d="M14.3 21H17a312.96 312.96 0 0 1-4.59 6.46L17.67 35H14.3c.29-.25.69-1 0-1.91-.3-.41-1.48-2.12-2.91-4.21-1.52 2.1-2.78 3.8-3.08 4.21-.69.92.02 1.66.3 1.91H6c1.3-1.84 3.2-4.43 4.94-6.76L6 21h3.38c-.25.23-.73.76-.62 1.07.05.15 1.45 2.2 3.22 4.76l.12-.15c1.67-2.25 2.97-4 3.02-4.14.1-.32-.58-1.31-.83-1.54zm14.13 3.04c-.8-.96-2.3-2.72-4.93-2.74-1.66.08-5 1.47-5 6.44.13 2.3 1.45 6.76 5.5 6.76.8 0 2.84-.11 4.68-2.5H29v1.12c-.82.62-2.97 1.88-5 1.88-2.53 0-7-1.46-7-7.26C17 25.6 18.9 21 23.54 21c1.12-.03 3.67.22 4.95 1.5v1.62l-.06-.08zM38.5 21h-8.48c.4.12.9.73.98.98v11.73c0 1.07-.74 1.28-1 1.29h8.45l.55-2.07c-.72 1.16-1.83 1.44-2.33 1.56l-.02.01H32.5V28h2.67c.6 0 1.05.54 1.2.84V26.5c0 .49-.8.84-1.2.95H32.5V21.5h3.86c.81 0 2.1 1.2 2.64 1.79L38.5 21zm2.5 0h3c-.27.19-.5.73-.5 1.4v12.1h4.33l.03-.01c.5-.22 1.57-.69 2.14-1.77L49.48 35H41.1c.26-.12.91-.57.91-1.35V22.4c.02-.34-.25-1.1-1-1.41z"/></svg>