<!-- by TradingView --><svg width="56" height="56" viewBox="0 0 56 56" xmlns="http://www.w3.org/2000/svg"><path fill="#F0F3FA" d="M0 0h56v56H0z"/><path d="M19 31h-4v-2.5h4v-1h-4V25h4v-1h-5v8h5v-1ZM23.41 29.4l1.46-2.4H23.5l-1 1.9-.99-1.9h-1.38l1.45 2.4L20 32h1.39l1.1-2.06L23.61 32H25l-1.59-2.6ZM28.1 32c1.48 0 1.9-.56 1.9-1.85V30h-1v.1c0 .67-.24.9-.9.9h-.15c-.77 0-.95-.12-.95-1.29v-.43c0-1.18.18-1.28.95-1.28h.15c.66 0 .9.25.9.9v.1h1v-.18c0-1.23-.44-1.82-1.9-1.82h-.18c-1.55 0-1.92.45-1.92 2.28v.43c0 1.81.38 2.29 1.92 2.29h.19ZM33.14 32c1.37 0 1.86-.38 1.86-1.58v-.11h-1v.1c0 .6-.15.59-.88.59H33c-.81 0-1-.01-1-1.06v-.2l3-.03v-.67c0-1.65-.43-2.04-1.91-2.04h-.18c-1.43 0-1.91.41-1.91 2.28v.43c0 1.84.38 2.29 1.93 2.29h.21ZM32 29.01c0-.51 0-1.01.99-1.01h.08c.93 0 .93.5.93.86v.15h-2ZM37 25h-1v7h1v-7Z" fill="#0074B7"/><path d="M39 29h4v-1h-4v-2h4v-1h-5v7h1v-3ZM45 27h-1v5h1v-5Zm0-2h-1v1h1v-1ZM50 28.96c0-1.55-.33-1.96-1.53-1.96h-.07c-.77 0-1.19.27-1.4.85V27h-1v5h1v-2.85c0-.95.37-1.15 1.05-1.15h.07c.74 0 .88.15.88 1.15V32h1v-3.04Z" fill="#153057"/><path d="m12.34 24 .66-3.3s-.06-.7-.75-.7c-.7 0-.76.69-.76.69l.66 3.3.19.01ZM12.16 32l-.67 3.3s.06.7.75.7c.7 0 .76-.69.76-.69l-.65-3.3-.2-.01ZM8 27.88 4.7 27s-.7.08-.7 1c0 .91.69 1 .69 1l3.3-.87.01-.25ZM9 24.88l-1.79-2.7s-.51-.43-.99.04c-.47.48-.05.99-.05.99L8.86 25l.14-.12ZM9 31.12l-1.79 2.7s-.51.43-.99-.04c-.47-.48-.05-.99-.05-.99L8.86 31l.14.12ZM12 29c-.56-.02-1-.46-1-1s.44-.98 1-1v2ZM12 31a3.98 3.98 0 0 1-1.56-.54l1.19-1.01c.11.05.24.1.37.13V31Zm-2.34-1.2A2.8 2.8 0 0 1 9 28.48h1.7c.03.12.1.23.16.33l-1.2 1ZM9 27.52c.1-.48.32-.92.64-1.3l1.2 1-.15.3H9Zm1.4-1.95c.47-.3 1-.5 1.6-.57v1.42c-.14.04-.28.09-.4.15l-1.2-1ZM10.73 33a5.03 5.03 0 0 1-1.45-.62l.75-1.1c.3.17.62.31.97.4L10.73 33Zm-3.12-2.3A5.15 5.15 0 0 1 7 29.21l1.3-.27c.1.35.23.67.4.98l-1.1.76ZM7 26.73c.12-.5.32-.98.59-1.42l1.1.77c-.17.29-.3.6-.39.93l-1.3-.28Zm2.25-3.12c.44-.28.93-.49 1.45-.62l.28 1.32c-.35.09-.67.23-.97.41l-.76-1.1Z" fill="#0074B7"/></svg>