<!-- by TradingView --><svg xmlns="http://www.w3.org/2000/svg" width="56" height="56" viewBox="0 0 56 56"><path fill="#F0F3FA" d="M0 0h56v56H0z"/><path d="M24.08 16h5.36l-7 9.18 7.5 9.82h-5.37l-4.81-6.31L14.94 35H9.58l7.5-9.82-7-9.18h5.36l4.32 5.66L24.08 16Z" fill="#69A8BD"/><circle cx="41.5" cy="22.5" r="2.5" fill="#BA1D4A"/><path d="M42.76 16H37.9L28 30.4l3.47 4.6H39v5h5v-5h3v-4h-3v-5h-5v5h-5.65l4.2-6.7a4.18 4.18 0 0 1 3.89-6.2l1.32-2.1Z" fill="#69A8BD"/><path d="M9.87 38.47H9.3v-.36h.57c.09 0 .16-.01.21-.04.06-.03.1-.07.12-.12a.45.45 0 0 0 0-.36.31.31 0 0 0-.12-.14.4.4 0 0 0-.21-.06h-.41v1.88H9V37h.87c.52 0 .83.34.83.77 0 .29-.13.5-.38.62-.13.05-.28.08-.45.08ZM12.47 37.94v.36h-1.16v-.36h1.16ZM11.45 37v2.27H11V37h.45Zm1.35 0v2.27h-.46V37h.46ZM14.1 37.41l-.6 1.86H13l.83-2.27h.3l-.04.41Zm.5 1.86L14 37.4l-.05-.41h.31l.84 2.27h-.5Zm-.02-.83v.36H13.4v-.36h1.18ZM15.27 37h.83c.52 0 .83.27.83.7 0 .13-.02.23-.06.32a.58.58 0 0 1-.17.2.88.88 0 0 1-.26.14l-.15.08h-.72v-.36h.54c.08 0 .14-.01.2-.04.05-.03.09-.07.12-.12a.37.37 0 0 0 .04-.18.4.4 0 0 0-.04-.19.27.27 0 0 0-.12-.12.44.44 0 0 0-.2-.04h-.38v1.88h-.46V37Zm1.25 2.27-.51-1h.49l.5.98v.02h-.48ZM17.46 37h.39l.57 1.67.57-1.67h.4l-.81 2.27h-.32l-.8-2.27Zm-.21 0h.39l.07 1.63v.64h-.46V37Zm1.95 0h.4v2.27h-.47v-.64L19.2 37ZM20.9 37.41l-.6 1.86h-.5l.83-2.27h.31l-.04.41Zm.5 1.86-.6-1.86-.06-.41h.32l.83 2.27h-.49Zm-.03-.83v.36H20.2v-.36h1.17ZM23.33 38.53h.46c-.01.15-.05.28-.13.4a.74.74 0 0 1-.3.27c-.13.07-.29.1-.47.1a.96.96 0 0 1-.38-.07.82.82 0 0 1-.3-.22.96.96 0 0 1-.18-.34 1.46 1.46 0 0 1-.06-.44v-.16c0-.16.02-.3.06-.44.05-.13.11-.25.2-.34.07-.1.17-.16.28-.21a.93.93 0 0 1 .38-.08 1 1 0 0 1 .47.1c.13.07.23.16.3.28.07.12.12.25.13.4h-.46a.6.6 0 0 0-.05-.22.3.3 0 0 0-.14-.15.52.52 0 0 0-.25-.04.44.44 0 0 0-.2.04.37.37 0 0 0-.14.13.65.65 0 0 0-.09.22c-.02.09-.03.2-.03.31v.16c0 .11.01.22.03.3a.7.7 0 0 0 .08.23c.04.06.08.1.14.13a.54.54 0 0 0 .45 0 .32.32 0 0 0 .14-.14.53.53 0 0 0 .06-.22ZM25.55 38.91v.36h-1.18v-.36h1.18ZM24.52 37v2.27h-.46V37h.46Zm.88.94v.35h-1.03v-.35h1.03Zm.15-.94v.4h-1.18V37h1.18ZM27 37h.48v1.51a.8.8 0 0 1-.11.44.68.68 0 0 1-.3.26c-.13.06-.28.09-.45.09-.16 0-.31-.03-.44-.09a.69.69 0 0 1-.3-.26.82.82 0 0 1-.11-.44V37h.46v1.51c0 .1.01.18.05.25a.3.3 0 0 0 .13.14c.06.03.13.04.21.04.09 0 .16-.01.22-.04a.3.3 0 0 0 .13-.14c.03-.07.03-.15.03-.25V37ZM28.82 37v2.27h-.46V37h.46Zm.69 0v.4h-1.82V37h1.82ZM30.22 37v2.27h-.45V37h.45ZM31.91 38.53h.46c0 .15-.05.28-.12.4a.74.74 0 0 1-.3.27c-.14.07-.3.1-.47.1a.96.96 0 0 1-.39-.07.82.82 0 0 1-.29-.22.96.96 0 0 1-.18-.34 1.47 1.47 0 0 1-.06-.44v-.16c0-.16.02-.3.06-.44.04-.13.1-.25.19-.34.08-.1.18-.16.29-.21a.93.93 0 0 1 .38-.08 1 1 0 0 1 .47.1c.13.07.23.16.3.28.07.12.11.25.12.4h-.45a.6.6 0 0 0-.06-.22.3.3 0 0 0-.14-.15.52.52 0 0 0-.24-.04.44.44 0 0 0-.2.04.37.37 0 0 0-.15.13.65.65 0 0 0-.08.22c-.02.09-.03.2-.03.31v.16c0 .11 0 .22.03.3a.7.7 0 0 0 .07.23c.04.06.09.1.15.13.05.03.12.05.2.05.1 0 .18-.02.24-.05a.32.32 0 0 0 .14-.14.54.54 0 0 0 .06-.22ZM33.55 37.41l-.6 1.86h-.5l.83-2.27h.31l-.04.41Zm.5 1.86-.6-1.86-.05-.41h.3l.84 2.27h-.49Zm-.03-.83v.36h-1.17v-.36h1.17ZM36.15 38.91v.36h-1.12v-.36h1.12ZM35.18 37v2.27h-.46V37h.46ZM37.54 38.68a.3.3 0 0 0-.02-.1.2.2 0 0 0-.06-.1.57.57 0 0 0-.13-.07 1.88 1.88 0 0 0-.23-.09l-.28-.1a1.18 1.18 0 0 1-.24-.15.64.64 0 0 1-.17-.2.53.53 0 0 1-.05-.25c0-.09.02-.17.06-.25.04-.08.1-.14.17-.2.07-.05.16-.1.26-.12a1.17 1.17 0 0 1 .76.04c.12.06.22.14.29.24.06.1.1.23.1.36h-.46a.35.35 0 0 0-.04-.17.28.28 0 0 0-.12-.12.44.44 0 0 0-.2-.04.47.47 0 0 0-.2.03.27.27 0 0 0-.12.1.24.24 0 0 0-.04.14c0 .03 0 .07.02.1s.05.06.09.08c.04.03.08.06.14.08a2 2 0 0 0 .19.07l.32.12c.1.05.17.1.23.16a.58.58 0 0 1 .19.44c0 .1-.02.19-.06.26a.54.54 0 0 1-.16.2.77.77 0 0 1-.26.12 1.23 1.23 0 0 1-.95-.14.66.66 0 0 1-.29-.55h.47c0 .07 0 .13.03.18a.3.3 0 0 0 .1.11c.03.03.08.05.13.07l.18.02c.08 0 .15-.01.2-.04a.24.24 0 0 0 .15-.23Z" fill="#1A2C35"/></svg>