<!-- by TradingView --><svg width="56" height="56" viewBox="0 0 56 56" xmlns="http://www.w3.org/2000/svg"><path fill="#F0F3FA" d="M0 0h56v56H0z"/><path d="M28.03 26.08 38 41h-3.97l-9.97-14.92h3.97Z" fill="#003E71"/><path fill-rule="evenodd" d="M39.26 11.2c.34.25.74.71.74 1.4 0 3.1-3.93 10.34-9.56 17.98C23.6 39.86 16.47 46.23 14.5 44.8c-1.96-1.43 1.99-10.1 8.82-19.38 6.23-8.45 12.7-14.49 15.29-14.42.25 0 .47.07.65.2Zm-1.55.92c.2.14.3.4.3.78.03 2.42-3.63 9.14-9.15 16.67C22.95 37.63 17.42 43 15.42 43a.67.67 0 0 1-.4-.12c-.2-.14-.3-.4-.3-.79-.04-2.42 3.34-8.8 8.86-16.34 5.9-8.04 11.7-13.72 13.7-13.75.18 0 .32.04.43.12Z" fill="#059155"/><path d="M28.03 26.08h-3.97L18 17h3.97l6.06 9.08Z" fill="#003D73"/><path d="M30.5 14a2.5 2.5 0 1 1 0 5 2.5 2.5 0 0 1 0-5Z" fill="url(#atbocmrsv)"/><defs><linearGradient id="atbocmrsv" x1="30.5" y1="14" x2="30.5" y2="19" gradientUnits="userSpaceOnUse"><stop stop-color="#0A9056"/><stop offset=".26" stop-color="#F4F9EF"/><stop offset="1" stop-color="#059155"/></linearGradient></defs></svg>