<!-- by TradingView --><svg width="56" height="56" viewBox="0 0 56 56" xmlns="http://www.w3.org/2000/svg"><path fill="#F0F3FA" d="M0 0h56v56H0z"/><path d="M6 23h2.63L18 36h-2.63L6 23Z" fill="#020202"/><path d="M17 23h-2.41L6 36h2.41L17 23Z" fill="#020202"/><circle cx="18" cy="29" r="1" fill="#020202"/><circle cx="22" cy="21" r="1" fill="#020202"/><path fill="#020202" d="M21 23h2v13h-2zM26 33.18V19h2v13.63c0 .99.7 1.33.99 1.37H30v2h-1.6c-1.74 0-2.33-1.93-2.4-2.82Z"/><path fill-rule="evenodd" d="M33 22a1 1 0 1 0 0-2 1 1 0 0 0 0 2Zm1 14V23h-2v13h2Zm3-16h13v2H37v-2Zm13 9.5a6.5 6.5 0 1 1-13 0 6.5 6.5 0 0 1 13 0Zm-2 0a4.5 4.5 0 1 1-9 0 4.5 4.5 0 0 1 9 0Z" fill="url(#a5jnkbrme)"/><defs><linearGradient id="a5jnkbrme" x1="32.12" y1="22.89" x2="41.82" y2="22.74" gradientUnits="userSpaceOnUse"><stop stop-color="#E92100"/><stop offset="1" stop-color="#FFAB08"/></linearGradient></defs></svg>