<!-- by TradingView --><svg width="56" height="56" xmlns="http://www.w3.org/2000/svg"><path fill="#1A4F5E" d="M0 0h56v56H0z"/><path d="M35.965 11.01C34.366 13.064 32.66 15 32.66 15h-6.625c-3.199 0-3.32 5 .107 5h7.082l6.168 8.143-4.797 6.625c-2.056 2.513 1.827 5.026 3.426 3.426.389-.388 5.712-8.338 5.94-8.68.914-1.371 1.054-2.285 0-3.656-1.483-1.928-6.853-8.68-6.853-8.68l2.513-3.2c1.827-2.055-1.474-5.774-3.656-2.969z" fill="#20BDC1"/><path d="M19.735 45.965c.203-.26 3.198-4.007 3.198-4.007h6.625c3.198 0 3.426-4.958 0-4.958h-7.082l-6.397-8.5 4.921-7c1.5-2.5-1.722-4.597-3.321-2.998-.389.389-5.712 8.339-5.94 8.681-.914 1.37-1.054 2.285 0 3.655 1.483 1.928 6.853 8.96 6.853 8.96l-2.513 3.197c-1.827 2.056 1.717 5.463 3.656 2.97z" fill="#fff"/></svg>