<!-- by TradingView --><svg xmlns="http://www.w3.org/2000/svg" width="56" height="56"><path fill="#F0F3FA" d="M0 0h56v56H0z"/><path fill-rule="evenodd" d="M12.34 22.08C7.75 24.49 6.2 28.78 6 30.63c-.03.26.05.41.1.48.14.27.64.5 1.45-.74.74-1.13 2.02-1.3 3.1-1.45.41-.06.8-.11 1.1-.2 1.15-.36 2.06-1.04 2.1-2.49.04-1.44.27-1.75 1.46-2.87.84-.8 3.38-2.05 5.74-3.22 1.7-.84 3.31-1.64 4.16-2.2.3-.15.87-.51.8-.76-.06-.25-.56-.19-.8-.12-2.38.67-8.3 2.6-12.88 5.02zm2.35 7.68c-3.2-.8-5.75.6-6.62 1.4-.12.12-.15.23-.16.28-.04.19.1.5 1.01.26.83-.23 1.52.23 2.1.62.22.15.42.29.61.37.7.32 1.42.38 2.05-.3.62-.67.86-.72 1.9-.75.74-.02 2.48.45 4.1.9 1.17.31 2.28.61 2.92.7.2.06.63.13.7-.02.07-.15-.19-.33-.33-.4a48.63 48.63 0 00-8.28-3.06zm-5.7 3.15a3.81 3.81 0 013.23 1.12 24.81 24.81 0 012.8 3.5c.04.07.11.22.04.26-.07.05-.24-.1-.31-.17-.26-.21-.66-.63-1.08-1.07a11.07 11.07 0 00-1.55-1.47c-.45-.26-.57-.3-1.02-.17-.44.13-.74-.08-.96-.4l-.17-.32c-.15-.33-.33-.7-.75-.83-.46-.12-.43-.3-.37-.37.02-.02.06-.06.14-.08zM23.8 21.04l-.8 1.28c.44.09 1.57.81 2.07 1.16l.93-.96a7.75 7.75 0 00-2.2-1.48zM23 24h3v5.32c.01.47.52 1.52 2.44 1.68H36v1h-8.21c-.64.01-2.1-.18-2.8-1.07-.27.36-.96 1.07-1.66 1.07l-.68-1.7c.43-.03 1.33-.29 1.35-1.11V25h-1v-1zm5 1h-1.53v1H28v4h2v-4h1.44v-1H30v-2h-2v2zm-1.5-4h6.23c.38 0 1.22.2 1.27 1.12v6.1c0 .28.07.78.7.78H36v1h-2.37c-.52 0-1.58-.3-1.63-1.61v-5.55c0-.4 0-.84-.75-.84H26.5v-1zM38 27h10v5H38v-5zm2 1h2v1h-2v-1zm6 0h-2v1h2v-1zm-6 2h2v1h-2v-1zm6 0h-2v1h2v-1zm-15 3h1.26l.6.86.72-.86h.57l-1.04 1.24L34.3 36h-1.26l-.64-.93-.78.93h-.57l1.1-1.3L31 33zm4.63 0H34.6v2.5c0 .28.22.5.5.5h1.84a.5.5 0 00.5-.5V33h-.42v2.34a.3.3 0 01-.3.3h-.8a.3.3 0 01-.3-.3V33zM38 36v-3h.7l1.67 1.98V33h.42v3h-.84l-1.52-1.87V36H38zm5.77-.36h-1.08a.3.3 0 01-.3-.3V33h-1.02v2.5c0 .28.23.5.5.5h1.9v-.36zm1.53 0h1.1V36a.5.5 0 01-.06 0H44.5a.5.5 0 01-.5-.5V33h2.4v.39H45v.85h1.17v.38H45v.72c0 .17.13.3.3.3zM47 36v-3h1v3h-1zM37 21h12v1h-5v1h4.12c.28 0 .85.18.88.87v2.63h-1.5v-1.95c0-.17-.12-.56-.68-.55H44v2.5h-2V24h-3.5v2.5H37V23h5v-1h-5v-1zm4.25 3.3h-2v.7h2v-.7zm3.5 0h2v.7h-2v-.7zm-5.5 1.51h2v.69h-2v-.69zm7.5 0h-2v.69h2v-.69z" fill="#2087EC"/></svg>