<!-- by TradingView --><svg width="56" height="56" viewBox="0 0 56 56" xmlns="http://www.w3.org/2000/svg"><path fill="#F0F3FA" d="M0 0h56v56H0z"/><path d="m36.07 23.16.02-1.1c.11-4.54 1.97-9 5.5-11.9.27-.23.3-.21.07.07-.8.97-1.3 2.36-1.6 3.68-.44 2.01-.6 4.03-.77 6.05-.03.36.04.73.15 1.05.3.89.57 1.78.83 2.67.52 1.76.64 3.8.22 5.54a11.33 11.33 0 0 1-2.45 4.82 7.58 7.58 0 0 1-6.41 2.69 14.36 14.36 0 0 1-6.64-2.13c-.12-.07-.11-.09.03-.06l1 .22c1.3.28 2.63.37 3.97.28a7.37 7.37 0 0 0 3.65-1.16 5.53 5.53 0 0 0 2.37-4.6c.08-4.06-5.52-6.12-8.74-6.81a.07.07 0 0 1-.03-.12c1.45-1.14 3.26-1.8 5.06-1.4a7.18 7.18 0 0 1 3.68 2.25c.06.06.09.05.09-.04Z" fill="#1B4594"/><path d="M16.22 22.58a15.22 15.22 0 0 0 6.01 18.35 15.31 15.31 0 0 0 17.98-1.09c.51-.41 1.03-.97 1.54-1.45h.05v.04a16.57 16.57 0 0 1-19.63 5.32 16.49 16.49 0 0 1 .75-30.77 16.59 16.59 0 0 1 13.65 1.1 19.89 19.89 0 0 0-1.54-.53 15.3 15.3 0 0 0-18.81 9.03Z" fill="#1B4594"/><path d="M32.5 20a2.5 2.5 0 1 0 0-5 2.5 2.5 0 0 0 0 5Z" fill="#1B4594"/><path d="M42.28 24.65c.04.05.07.12.1.18a12.62 12.62 0 0 1-12.76 16.5 12.61 12.61 0 0 1-2.5-24.76l.03.01.01.04a11.52 11.52 0 0 0-4.64 18.68 11.57 11.57 0 0 0 19.75-10.65c0-.02 0-.02.01 0Z" fill="#3070B6"/></svg>