<!-- by TradingView --><svg xmlns="http://www.w3.org/2000/svg" width="56" height="56"><path fill="#323D40" d="M0 0h56v56H0z"/><path d="M31.56 26.26L30.02 24h-2.38l2.73 4-2.73 4h2.38l1.54-2.26 1.2-1.73-1.2-1.75zm.3 0l1.05 1.53L35.49 24h-2.37l-1.4 2.05.14.21zm1.04 1.97l-1.04 1.5-.15.22L33.12 32h2.37l-2.58-3.77zM4 23.94V32h2v-8.06H4zM13 32v-3.8c0-1.2-.68-2.2-1.96-2.2C9.82 26 9 27 9 28.2V32H7v-8h1.78L9 25.18c.82-.78 1.55-1.18 2.57-1.18 1.9 0 3.43 1.4 3.43 3.86V32h-2zm37 0v-3.8c0-1.2-.68-2.2-1.96-2.2-1.22 0-2.04 1-2.04 2.2V32h-2v-8h1.78l.22 1.18c.82-.78 1.55-1.18 2.57-1.18 1.9 0 3.43 1.4 3.43 3.86V32h-2zm-34 3V24h1.76l.24 1.22A2.6 2.6 0 0120.22 24C22.5 24 24 25.75 24 28c0 2.23-1.43 4-3.78 4-.78 0-1.86-.3-2.22-1.02V35h-2zm6-7c0-1.19-.9-2-2-2s-2 .81-2 2 .91 2 2 2c1.09 0 2-.81 2-2zm3-4v8h2v-8h-2z" fill="#fff"/><path d="M37.88 29.14c0 .03-.02.04-.05.04h-.38c-.03 0-.05-.03-.05-.04v-1.4c0-.03.02-.04.05-.04h.38c.03 0 .05.01.05.05v1.39z" fill="#2DCCD3"/><path d="M38.63 28.8c0 .04-.02.06-.05.06h-.38c-.04 0-.05-.02-.05-.05v-2.24c0-.03.01-.05.05-.05h.38c.03 0 .05.02.05.05v2.24z" fill="#00A3E1"/><path d="M39.37 29.13c0 .04-.01.05-.05.05h-.38c-.03 0-.05-.03-.05-.05v-1.9c0-.04.02-.06.05-.06h.38c.04 0 .05.02.05.05v1.91z" fill="#FF8200"/><path d="M40.13 29.54c0 .04-.01.05-.04.05h-.39c-.03 0-.05-.01-.05-.05v-2.4c0-.03.04-.05.05-.05h.39c.03 0 .04.02.04.05v2.4z" fill="#97D700"/><path d="M40.88 28.9c0 .04-.02.06-.05.06h-.4c-.03 0-.05-.02-.05-.05v-1.05c0-.03.02-.05.05-.05h.38c.04 0 .05.02.05.05v1.05h.02z" fill="#7E93A7"/><path d="M42.59 25.66l-.95 1.1c.1.22.19.46.24.7.03.17.03.32.03.45 0 .49-.12.93-.33 1.34-.15.26-.32.5-.52.75-.53.64-1.14 1.21-1.77 1.75-.1.08-.17.08-.27 0-.68-.59-1.35-1.21-1.9-1.93a3.4 3.4 0 01-.7-1.45c-.1-.56 0-1.11.23-1.6l-.94-1.11a4.01 4.01 0 00-.45 3.59c.23.69.67 1.26 1.13 1.8.78.9 1.67 1.68 2.6 2.4.13.1.22.1.33 0 .73-.57 1.43-1.18 2.07-1.83.39-.4.75-.79 1.07-1.23a4 4 0 00.13-4.74z" fill="#fff"/><path d="M38.44 23.9a4.12 4.12 0 00-2.47 1.41l.34.4.18.2.11-.12c.53-.6 1.25-1 2.01-1.11.17-.04.35-.04.53-.04 1.04 0 2 .46 2.65 1.24l.04.04.4-.46.1-.13a4.2 4.2 0 00-3.89-1.42z" fill="#00A3E1"/><path d="M41.62 26.05a3.33 3.33 0 00-2.98-1.16c-.7.11-1.51.62-2 1.17l.24.28a2.79 2.79 0 014.5-.01l.24-.28z" fill="#00A3E1"/><circle cx="5" cy="22" r="1" fill="#fff"/><circle cx="26" cy="22" r="1" fill="#fff"/></svg>