<!-- by TradingView --><svg width="56" height="56" viewBox="0 0 56 56" xmlns="http://www.w3.org/2000/svg"><path fill="#F0F3FA" d="M0 0h56v56H0z"/><path d="M4 22h2.81L16 33h-2.81L4 22Z" fill="#00449C"/><path d="M16 22h-2.81L4 33h2.81L16 22Z" fill="#00449C"/><path d="M14 22h13v2H14v-2ZM25 31h8v2h-8v-2Z" fill="#00449C"/><path d="M27 22h-2v11h2V22ZM21 22h-2v11h2V22Z" fill="#00449C"/><path fill-rule="evenodd" d="M52 29a4 4 0 1 0-8 0 4 4 0 0 0 8 0Zm-1 0a3 3 0 1 0-6 0 3 3 0 0 0 6 0ZM41 29a4 4 0 1 0-8 0 4 4 0 0 0 8 0Zm-1 0a3 3 0 1 0-6 0 3 3 0 0 0 6 0Z" fill="#0099F1"/><path d="M33 29h1v-7h-1v7ZM42 33h1v-8h-1v8ZM42.5 23a.5.5 0 1 1 0 1 .5.5 0 0 1 0-1Z" fill="#0099F1"/></svg>