<!-- by TradingView --><svg xmlns="http://www.w3.org/2000/svg" width="56" height="56"><path fill="#0C3D80" d="M0 0h56v56H0z"/><path fill-rule="evenodd" d="M4.38 31.21c-.06.45-.28.75-.38.79h2.03c-.27-.1-.26-.6-.22-.79l.92-4.78L9.5 32l2.66-5.57.92 4.78c.08.37-.1.72-.19.79H15c-.21-.15-.34-.62-.38-.79L12.72 22 9.5 28.87 6.28 22l-1.9 9.21zM15 28a3 3 0 116 0v1h-4.5c-.03.54.33 1.6 1.49 1.64.28 0 1.04-.1 1.31-.64h1.53A3 3 0 0115 29v-1zm1.5-.22c.01-.44.5-1.28 1.49-1.28.94 0 1.5.8 1.51 1.28h-3zm10-4.78H28v9h-1.5v-1.5c-.47.9-1.26 1.5-2.15 1.5-1.45 0-2.62-1.57-2.62-3.5S22.9 25 24.35 25c.89 0 1.68.6 2.15 1.5V23zm-1.66 7.58c.85 0 1.54-.92 1.54-2.06 0-1.14-.69-2.06-1.54-2.06-.85 0-1.55.92-1.55 2.06 0 1.14.7 2.06 1.55 2.06zM29 23h1.5v1.38H29V23zm1.5 2H29v7h1.5v-7zm18.42 0c2.17 0 2.9 1.32 2.9 2h-1.67c-.09-.51-.8-.71-1.23-.71-.27 0-1.01.12-1.03.67-.02.45.97.7 1.46.77 2.2.34 2.69 1.57 2.65 2.13 0 .69-.63 2.14-2.89 2.14-2.41 0-3.04-1.2-3.11-2h1.63c.14.55 1.12.71 1.57.71.2 0 1.08-.06 1.08-.69 0-.48-.96-.72-1.53-.78-2.18-.31-2.6-1.4-2.6-2.09 0-.62.63-2.15 2.77-2.15zm-8.62 6.46c-.8 1.79-2.32 3-4.06 3.04a2.73 2.73 0 002.17-2.58V25h-1.63v1.03c-.48-.76-1.18-1.24-1.97-1.24-1.45 0-2.62 1.63-2.62 3.63s1.17 3.63 2.62 3.63c.79 0 1.5-.48 1.97-1.24v1.31c0 .45-.53 1.12-1.38 1.14a1.2 1.2 0 01-1.14-.65h-1.58a6.88 6.88 0 01-1.3-4.11c0-3.31 2.14-6 4.78-6 1.6 0 3 .99 3.87 2.5h1.26v4.56c.03.34.3 1.01 1.12.96 1.03-.07 1.22-1.02 1.22-1.38V25h1.68v7h-1.68v-1.13c-.2.36-.77 1.09-1.77 1.13-.65.02-1.2-.26-1.56-.54zm-3.52-2.41c-.19.88-.78 1.53-1.48 1.53-.85 0-1.54-.96-1.54-2.14 0-1.18.69-2.14 1.54-2.14.7 0 1.3.65 1.48 1.53v1.22z" fill="#fff"/></svg>