<!-- by TradingView --><svg width="56" height="56" viewBox="0 0 56 56" xmlns="http://www.w3.org/2000/svg"><path fill="#F0F3FA" d="M0 0h56v56H0z"/><path d="M39.75 19a4.85 4.85 0 0 1-2.12 2.01l.2.4c.53-.3 1-.62 1.39-.94a6.47 6.47 0 0 0 1.33-1.4 8.56 8.56 0 0 0-.8-.07ZM38.73 19.03a4.22 4.22 0 0 1-1.84 1.38c-.86.34-1.77.39-2.52.31a8.44 8.44 0 0 1 4.36-1.69ZM33.53 21.46c-.27.26-.52.54-.75.83.42.05.88.08 1.38.07a7.58 7.58 0 0 0 2.91-.56l-.23-.47c-1.21.39-2.44.3-3.31.13ZM32.24 23.08l-.24.42a9.13 9.13 0 0 0 5.75-.34l-.3-.6a8.38 8.38 0 0 1-3.28.65c-.72.01-1.38-.05-1.93-.13ZM31.64 24.27c-.09.2-.16.42-.23.63.6.5 2.96.57 4.76.23l-.06-.6a9.92 9.92 0 0 1-4.47-.26ZM31.17 25.79c-.06.31-.1.63-.14.96 1.76.28 4.55.27 7.75-.96l-.25-.6c-2.18.91-4.98 1.04-7.36.6ZM31 27.6c0 .24.01.48.04.71 1.1.47 3.33.6 6.15-.1.7-.2 1.46-.46 2.28-.81l-.35-.83A16.19 16.19 0 0 1 31 27.61Z" fill="#7E7E7E"/><path d="M31.18 29.27c.07.31.15.62.25.92 1.15.3 3.1.4 5.8-.36l-.21-.68c-2.62.7-4.55.54-5.84.12ZM31.8 31.14c.11.24.24.47.37.7 1.36.2 3.49.18 6.2-.61.76-.23 1.58-.52 2.43-.88l-.21-.85c-.96.43-1.87.77-2.72 1.03-2.6.8-4.65.84-6.07.6ZM32.8 32.76c.24.3.5.59.77.86 1.3-.04 3.08-.23 5.01-.72l-.33-.76c-2.2.6-4.06.72-5.45.62ZM34.52 34.42c.18.14.38.26.57.38.7-.05 1.51-.13 2.36-.27a17.1 17.1 0 0 0 4.18-1.17l-.16-.49a24.87 24.87 0 0 1-6.95 1.55Z" fill="#05AADF"/><path d="m36.56 35.52.54.17a21.67 21.67 0 0 0 4.94-1.08l-.14-.44a18.12 18.12 0 0 1-5.34 1.35ZM40.3 36a8.44 8.44 0 0 0 4.07-1.5c-.6.31-1.18.58-1.64.76-.68.27-1.54.53-2.42.74ZM46.57 32.25c.23-.35.43-.7.61-1.08a60.08 60.08 0 0 1-4.5 2.63l.15.5a28.08 28.08 0 0 0 3.74-2.05Z" fill="#7E7E7E"/><path d="m47.69 29.82.14-.61c-.53.42-1.15.87-1.85 1.33v.39c.67-.42 1.25-.8 1.7-1.11Z" fill="#07A9E0"/><path d="M47.99 27.97a8.7 8.7 0 0 0 0-.75 18.9 18.9 0 0 1-2.75 1.89 38.12 38.12 0 0 1-3.77 1.88c-.83.37-1.64.67-2.4.91l.34.77a24.83 24.83 0 0 0 8.57-4.7ZM47.9 26.16a8.5 8.5 0 0 0-.27-1.14c-.23.25-.5.51-.83.8-.52.43-1.17.91-1.98 1.43l.4.88a16.23 16.23 0 0 0 2.67-1.97Z" fill="#7E7E7E"/><path d="M47.29 24.1a8.5 8.5 0 0 0-.44-.86c-.18.3-.43.62-.74.97l.48.65c.3-.28.53-.54.7-.76Z" fill="#07A9E0"/><path d="M46.32 22.43c-.21-.28-.44-.55-.68-.8a8.1 8.1 0 0 1-2.69 2.93c-.8.57-1.8 1.15-3.05 1.69l.35.8a17.57 17.57 0 0 0 5-3.18 4.8 4.8 0 0 0 1.06-1.43v-.01ZM44.98 21a8.6 8.6 0 0 0-.4-.32c-.2.45-.53.94-1.03 1.44-.31.32-.7.65-1.16.99l.4.51a6.42 6.42 0 0 0 2.2-2.61ZM43.86 20.2c-.3-.18-.61-.34-.93-.48-.17.26-.37.55-.6.85l.87.68c.35-.4.55-.76.66-1.05ZM42.11 19.4a8.4 8.4 0 0 0-.67-.18 6.8 6.8 0 0 1-1.31 1.6l.46.42a10.76 10.76 0 0 0 1.52-1.83ZM38.51 22.78l-.3-.6c.46-.27.88-.54 1.25-.82l.48.45c-.42.35-.9.68-1.43.97ZM40.87 22.14c.34-.3.64-.61.91-.91l.82.63a14.7 14.7 0 0 1-5.4 3.02c-.1.02-.17.05-.25.08v-.62a8.5 8.5 0 0 0 1.57-.6c.9-.46 1.7-1.02 2.35-1.6ZM39.3 24.86c.94-.43 1.73-.86 2.39-1.28l.4.53c-.68.46-1.52.92-2.52 1.36l-.26-.61ZM40.2 28.01a20.34 20.34 0 0 0 5.3-3.2l.44.6c-.5.4-1.11.84-1.88 1.31a35.1 35.1 0 0 1-3.36 1.8c-.95.44-1.84.8-2.67 1.06l-.2-.67a22.3 22.3 0 0 0 2.37-.9ZM41.37 29.13c1.05-.5 1.94-.98 2.72-1.43l.39.86c-.82.46-1.77.94-2.89 1.45l-.22-.88ZM42.25 32.54a25.7 25.7 0 0 0 2.88-1.47v.38a49.5 49.5 0 0 1-2.73 1.53l-.15-.44Z" fill="#7E7E7E"/><path fill="#010101" d="M32 26h3v10h-3zM30 26h-9v2h3v8h3v-8h3v-2ZM18.97 30H16v-2h-5v6h5v-2h3l-.03 2.18A1.68 1.68 0 0 1 17.28 36h-7.6C8.35 36 8 34.79 8 34.18v-6.36A1.68 1.68 0 0 1 9.69 26h7.6c1.34 0 1.68 1.21 1.68 1.82V30Z"/><path d="M8.75 21H8l1.13 1.88V24h.72v-1.13L11 21h-.75l-.75 1.5-.75-1.5ZM12.75 21H12v2.25c0 .6.5.75.75.75h1.13c.3 0 .37-.25.37-.38V24H15v-3h-.75v2.25c0 .3-.25.38-.38.38h-1.12V21ZM16.75 21H16v3h.75v-2.25l1.5 2.25H19v-3h-.75v2.25L16.75 21ZM28.75 21H28v3h.75v-2.25l1.5 2.25H31v-3h-.75v2.25L28.75 21ZM35 21.38V21h-2.25c-.6 0-.75.5-.75.75v1.5c0 .6.5.75.75.75H35v-1.88h-1.5v.38h.75v1.13h-1.13c-.3 0-.37-.25-.37-.38v-1.88H35ZM20.75 21H20v3h.75v-1.13h1.5V24H23v-3h-.75v1.5h-1.5V21Z"/><path fill-rule="evenodd" d="M24 21.75c0-.25.38-.75.75-.75h1.5c.25 0 .75.15.75.75v1.5c0 .38-.45.75-.75.75h-1.5c-.38 0-.75-.45-.75-.75v-1.5Zm.75-.38h1.5v2.25h-1.5v-2.25Z"/></svg>