<!-- by TradingView --><svg width="56" height="56" viewBox="0 0 56 56" xmlns="http://www.w3.org/2000/svg"><path fill="#DD0031" d="M0 0h56v56H0z"/><path fill-rule="evenodd" d="M30.32 30H46v-2h-6v-1h6v-2h-6v-1h6v-2h-6v-1h6v-2h-5.94l-.39-1h-3.5l.62 1h-3.88l.68-1h-3.5l-2.13 6.41H29V29c0 .56.73 1.01 1.32 1.01ZM37 28h-4.43c-.3 0-.54-.17-.54-.45V27H37v1Zm-4.97-4v1H37v-1h-4.97ZM37 22h-4.97v-1H37v1Zm-11-3H12v2h14v-2ZM9 27h19v2H17.26l-3.21 7.17c-.25.57.16.83.78.83h7.8c.63 0 1.05-.3.76-.86L21.04 32h3.17l1.89 3.71A2.34 2.34 0 0 1 23.94 39H13.36a2.34 2.34 0 0 1-2.2-3.2l2.68-6.8H9v-2Zm22.39 12h-2.47l1.77-4h3.3l-2.6 4ZM46 39h-2.46l-2.6-4h3.3L46 39Zm-7-8h-3v1h-7v2h7v5h3v-5h7v-2h-7v-1Z" fill="#fff"/></svg>