<!-- by TradingView --><svg width="56" height="56" viewBox="0 0 56 56" xmlns="http://www.w3.org/2000/svg"><path fill="#F0F3FA" d="M0 0h56v56H0z"/><path d="M21.57 27a1.4 1.4 0 0 1-1-.44l-7.15-7.97a1.56 1.56 0 0 1-.42-1.07c0-.4.15-.8.42-1.08a1.4 1.4 0 0 1 1.01-.44c.38 0 .75.16 1.02.44l7.14 7.98c.2.21.33.48.39.77.02.13.02.2.02.4 0 .18-.05.32-.1.48-.22.55-.76.93-1.33.93Zm12.86 0c-.28 0-.56-.09-.8-.26a1.5 1.5 0 0 1-.52-.67 1.6 1.6 0 0 1 .3-1.65l7.14-7.97a1.4 1.4 0 0 1 1.02-.45c.38 0 .74.16 1.01.45.27.28.42.67.42 1.07s-.15.79-.42 1.07l-7.14 7.97c-.27.28-.63.44-1.01.44Z" fill="#385A7E"/><path d="M18.68 28.51c0-.87.11-1.67.34-2.51L17 24a12.32 12.32 0 0 0-.12 9.22C18.07 36.27 20.11 38.7 23 40v-3c-1.4-.86-2.3-2.22-3.1-3.68a10.04 10.04 0 0 1-1.22-4.8Zm18.64 0c0 1.69-.42 3.34-1.22 4.8-.8 1.47-1.7 2.83-3.1 3.69v3a11.55 11.55 0 0 0 5.02-4.62A12.92 12.92 0 0 0 40 28.51c0-1.64-.4-3-1-4.51l-2.02 2c.23.84.34 1.64.34 2.51ZM28 18.65c.84 0 1.67.12 2.47.35l2.1-2c-1.46-.63-3.01-1-4.57-1-1.55 0-3.1.37-4.57 1l2.11 2c.8-.23 1.63-.35 2.46-.35Z" fill="#6287AE"/><path d="M17.87 13.43a1.42 1.42 0 0 0-1.01-.43 1.46 1.46 0 0 0-1.02 2.48l3.58 3.63c.72-.66 1.51-1.23 2.36-1.71l-3.91-3.97Zm22.28 2.05A1.46 1.46 0 0 0 39.14 13c-.38 0-.75.16-1.02.43l-3.87 3.93a12.7 12.7 0 0 1 2.36 1.7l3.54-3.58Z" fill="#A0CE00"/><path d="M24 45.62c.04.75.74 1.38 1.5 1.38s1.46-.63 1.5-1.38V23.4c0-.38-.3-.75-.56-1.03l-4.66-4.98c-.84.48-1.63 1.05-2.35 1.7L24 24v21.62Zm5-22.1v22.03c0 .78.71 1.45 1.5 1.45s1.5-.67 1.5-1.45V24l4.6-4.93a12.7 12.7 0 0 0-2.36-1.71l-4.83 5.13c-.27.27-.41.64-.41 1.03Z" fill="#055946"/></svg>