<!-- by TradingView --><svg width="56" height="56" viewBox="0 0 56 56" xmlns="http://www.w3.org/2000/svg"><path fill="#F0F3FA" d="M0 0h56v56H0z"/><path d="M39.16 35.02c.1-.28.04-.33-.21-.17l-.3.19c-.5.32-.98.64-1.55.83l-1.03.4c-.42.18-.84.35-1.27.49-.4.12-.78.3-1.15.5-.42.2-.84.41-1.3.54a8.87 8.87 0 0 1-3.03.3c-.72-.06-1.43-.06-2.15-.07a16.2 16.2 0 0 1-3.71-.3A16.64 16.64 0 0 1 17.84 35c-1.17-.83-2-1.8-2.87-2.95-.42-.55-.7-1.1-.84-1.62-.13-.5-.28-.97-.45-1.43a10.48 10.48 0 0 1-.68-3.57c0-1.82.34-3.7 1.03-5.61a10.89 10.89 0 0 1 3.61-5.03c1.2-.93 2.33-1.77 3.73-2.35a18.2 18.2 0 0 1 11.21-.97c1.07.24 2 .61 2.8 1.1.26.17.5.31.75.45.08.04.15.03.2-.03l.45-.44c.07-.07.15-.08.22-.02l.51.41a.2.2 0 0 1 .03.28l-.42.5a.13.13 0 0 0 .02.18 17.42 17.42 0 0 1 3.2 4.02 5.52 5.52 0 0 0 .77.91.1.1 0 0 0 .07-.01l1.09-.7a.23.23 0 0 1 .3.05l.39.55c.07.1.05.19-.06.26l-4.7 2.9c-.18.13-.33.09-.44-.1l-.1-.18c-.11-.2-.07-.37.12-.5l2-1.36c.11-.09.13-.18.03-.3a28.05 28.05 0 0 0-4.11-3.8.25.25 0 0 0-.32.03c-.35.36-.69.74-1 1.12-.16.18-.35.32-.53.45l-.15.11c-.06.05-.12.04-.18-.01l-.37-.4c-.06-.07-.06-.14 0-.2l1.26-1.5c.14-.17.11-.3-.07-.41-1.52-.9-3.3-1.23-5.07-1.26-1.54-.03-3.02.06-4.45.27-.26.04-.52.1-.77.2-2.27.8-4.26 2.04-5.97 3.72a2.1 2.1 0 0 0-.37.49l-.32.58c-.43.77-.87 1.56-1.13 2.42l-.2.59c-.15.47-.3.93-.38 1.47-.21 1.7-.09 3.4.36 5.1.1.37.24.72.43 1.06l.23.45c.17.34.34.68.58 1a11.08 11.08 0 0 0 6.53 4.2c2.34.42 4.94.77 7.33.37 2.4-.41 4.95-1.24 7.04-2.54.56-.35 1.1-.66 1.62-.94.7-.37 1.46.35 1.36 1.04a34.9 34.9 0 0 1-.73 3.97c-.25.95-.8 1.96-1.51 2.75-.2.2-.38.42-.57.64-.7.8-1.4 1.61-2.36 2.15-.58.32-1.15.66-1.72 1.03-.42.27-.89.48-1.4.61-1.97.54-3.92.8-5.85.8-1.06 0-2.35-.24-3.87-.72-1.38-.44-2.72-1.33-3.97-2.16l-.38-.25a4.33 4.33 0 0 1-1.62-1.72 1.8 1.8 0 0 0-.31-.52c-.67-.8-1.32-1.64-1.35-2.7 0-.1-.04-.2-.1-.27a1.04 1.04 0 0 1-.28-.72c.01-.47-.17-.95-.35-1.4l-.14-.38c-.01-.04 0-.07.04-.1l.05-.01h.06c.19.17.31.37.38.59.04.14.13.26.2.38.1.15.21.3.24.49.02.15.08.27.15.39.07.12.14.24.16.4.03.17.08.33.15.48.11.22.2.44.28.67.1.25.19.51.32.76.22.41.46.81.72 1.2a.57.57 0 0 0 .4.24c.24.03.45.17.58.38.35.58.74 1.13 1.5 1.13.08 0 .15.02.21.05.07.03.12.08.16.13a.4.4 0 0 1 .08.19c.01.06 0 .13-.02.2-.03.06-.01.13.06.2a15.45 15.45 0 0 1 2.8 1.06c2.1 1.02 4.53.99 6.88.59.62-.1.94-.4 1.35-.74l.22-.2a.26.26 0 0 1 .2-.06c1.32.16 2.72-.86 3.66-1.75.13-.12.27-.2.42-.3.2-.13.4-.26.54-.46.42-.6.86-1.15 1.32-1.67.25-.27.3-.55.37-.85.04-.2.08-.42.2-.64a20 20 0 0 0 .83-1.9Zm-5.7-17.58c.13.08.14.18.04.29L21.77 30.85a.24.24 0 0 1-.31.05.42.42 0 0 1-.14-.14c-.06-.1-.05-.2.03-.29l11.34-13.31c.1-.11.2-.12.32-.04l.45.32ZM22.63 31.66l15.16-9.44a.13.13 0 0 0 .03-.19l-.43-.55a.13.13 0 0 0-.18-.03l-14.89 9.7a.13.13 0 0 0-.04.17l.16.3a.13.13 0 0 0 .08.06.14.14 0 0 0 .1-.02Z" fill="url(#adptv4z3i)"/><defs><linearGradient id="adptv4z3i" x1="28" y1="11" x2="28" y2="45" gradientUnits="userSpaceOnUse"><stop stop-color="#DD0F18"/><stop offset=".59" stop-color="#F37E47"/><stop offset="1" stop-color="#E7A670"/></linearGradient></defs></svg>