<!-- by TradingView --><svg width="56" height="56" viewBox="0 0 56 56" xmlns="http://www.w3.org/2000/svg"><path fill="#F0F3FA" d="M0 0h56v56H0z"/><path d="M11.8 30.2S8.88 24 8.32 23.07C7.73 22.11 6.98 21 6.1 21c-.88 0-1.1.91-1.1 1.24 0 .33.3.76.8 1.2.54.43 3.13 5.6 4.88 9.56l1.32-.89-.2-1.9Z" fill="url(#a33l3c1g4)"/><path d="M26 28.9v1.09S25.98 34 21.13 34c-4.85 0-4.63-4.09-4.63-4.09l1.7-.6.3.6S18.43 32 21.09 32c2.65 0 2.91-1.65 2.91-2.23v-2.58l1.28.02.72 1.68Z" fill="url(#b33l3c1g4)"/><path d="M26 28.9s-2.4-.9-4.87-.9c-2.46 0-2.63 1.5-2.63 2h-2s.03-4 4.49-4c1.9 0 3.01.25 3.01.25v-1.23S23.43 23 20.53 23a5.25 5.25 0 0 0-5.04 3.29c-.72 1.55-3.19 9.18-6.2 11-.87.52-1.5.71-1.98.71-1.2 0-1.35-1.2-1.3-1.36.07-.22.12-.95.99-.95s2.05-.47 3.3-2.98c1.26-2.5 3-7.13 3.48-8 .48-.88 2-3.71 6.41-3.71 4.42 0 5.81 2.68 5.81 4.26v3.63Z" fill="#EA2330"/><path d="M29.02 21H31v9.47c0 1.18.8 1.53 1.35 1.53h1.47c.55 0 1.18.5 1.18 1 0 1-.67 1-2.55 1C29 34 29 30.47 29 30.47l.02-9.47Z" fill="url(#c33l3c1g4)"/><path d="M32.4 23s4.6.62 4.6 5.54 2.3-2.9 2.3-2.9l-.81-.58S36.45 21 32.72 21H31v-1.92c0-.6-.38-1.08-.96-1.08S29 18.48 29 19.08V21h-.96c-.58 0-1.04.4-1.04 1s.46 1 1.04 1h4.36Z" fill="url(#d33l3c1g4)"/><path d="M51 28.68v1.08S51 34 46.45 34C41.91 34 42 30 42 30l1.7-.6.3.6s-.08 2 2.41 2c2.46 0 2.59-1.87 2.59-2.45V27l1.34.02.66 1.66Z" fill="url(#e33l3c1g4)"/><path d="M39 32.9c0 .6-.36 1.1-.93 1.1A1.1 1.1 0 0 1 37 32.9v-3.34A8.65 8.65 0 0 1 45.44 21c4.24 0 5.56 2.9 5.56 4.47v3.57S48.7 28 46.34 28C43.98 28 44 29.78 44 30h-2s-.08-4 4.2-4c1.83 0 2.8.26 2.8.26v-1.03S49 23 45.76 23C41.22 23 39 26.79 39 29v3.9Z" fill="#EA2330"/><defs><linearGradient id="a33l3c1g4" x1="5.5" y1="22" x2="10.5" y2="32.5" gradientUnits="userSpaceOnUse"><stop offset=".75" stop-color="#EA2330"/><stop offset=".9" stop-color="#A71A23"/></linearGradient><linearGradient id="b33l3c1g4" x1="25" y1="28.5" x2="21.25" y2="34" gradientUnits="userSpaceOnUse"><stop stop-color="#A71A23"/><stop offset=".52" stop-color="#EA2330"/></linearGradient><linearGradient id="c33l3c1g4" x1="32" y1="23" x2="32" y2="34" gradientUnits="userSpaceOnUse"><stop stop-color="#AB1A23"/><stop offset=".22" stop-color="#EA2330"/></linearGradient><linearGradient id="d33l3c1g4" x1="28" y1="19.5" x2="39" y2="26" gradientUnits="userSpaceOnUse"><stop offset=".68" stop-color="#EA2330"/><stop offset="1" stop-color="#AB1A24"/></linearGradient><linearGradient id="e33l3c1g4" x1="50.05" y1="28.35" x2="46.1" y2="33.7" gradientUnits="userSpaceOnUse"><stop stop-color="#A71A23"/><stop offset=".52" stop-color="#EA2330"/></linearGradient></defs></svg>