<!-- by TradingView --><svg width="56" height="56" xmlns="http://www.w3.org/2000/svg"><path fill="#FDF800" d="M0 0h56v56H0z"/><path d="M46.449 22c-.478 0-.903.207-1.19.533L38.586 30l-6.678-7.467A1.57 1.57 0 0030.718 22c-.858 0-1.551.669-1.551 1.49 0 .366.135.7.365.961l7.03 8.048-3.215 3.02c-.227.261-.347.596-.347.961 0 .825.677 1.52 1.532 1.52.478 0 .906-.236 1.19-.562L47.636 24.45c.227-.258.363-.595.363-.958C48 22.67 47.304 22 46.449 22zm-20.994-.003c-.478 0-.903.207-1.19.533L17.404 30l-6.663-7.467A1.57 1.57 0 009.552 22C8.693 22 8 22.669 8 23.49c0 .366.136.7.366.961l7.029 8.048-3.009 3.053c-.227.26-.386.595-.386.96 0 .825.714 1.491 1.572 1.491a1.57 1.57 0 001.189-.532l11.882-13.023c.227-.258.357-.595.357-.957 0-.825-.69-1.494-1.546-1.494z" fill="#08090D"/></svg>