<!-- by TradingView --><svg width="56" height="56" viewBox="0 0 56 56" xmlns="http://www.w3.org/2000/svg"><path fill="#F0F3FA" d="M0 0h56v56H0z"/><path d="M34 20.38c0-4.49-5.14-7.25-8.91-4.93L13 22.2v-2.26c0-1.6 1.1-3.1 2.45-3.93l7.3-4.5c6.78-4.18 15.25.8 15.25 8.87V32c0 1.27-.75 2-2 2s-2-.73-2-2V20.38Z" fill="#D2E403"/><path d="M18.42 27.2a5.33 5.33 0 0 0 .1 9.48l11.75 6.67-1.94 1.07a4.75 4.75 0 0 1-4.48.04l-7.53-3.96a9.6 9.6 0 0 1-.19-17.08l9.47-5.22c1.1-.6 2.49-.25 3.12.8a2.13 2.13 0 0 1-.84 2.97l-9.46 5.22Z" fill="#D2E403"/><path d="M31.8 36.38c3.85 2.18 9.2 0 9.2-4.95V17.9c1.95 1.2 3.94 2.42 4 5.02v8.41c.16 7.84-8.56 12.84-15.47 8.92l-9.46-5.35a2.21 2.21 0 0 1-.83-3.06 2.3 2.3 0 0 1 3.11-.81l9.45 5.35Z" fill="#D2E403"/></svg>