<!-- by TradingView --><svg width="56" height="56" viewBox="0 0 56 56" xmlns="http://www.w3.org/2000/svg"><path fill="#F0F3FA" d="M0 0h56v56H0z"/><path d="M31.76 17.02a213.9 213.9 0 0 0-14.54 2.53c-3.16.64-8.16 1.71-8.22 1.76a70.33 70.33 0 0 1 2.4 2.32l.4.41 1.08-.32a208.6 208.6 0 0 1 16.01-4.1 20.45 20.45 0 0 1 1.85-.31c-.12.04-2.7 1.73-4.04 2.64a208.15 208.15 0 0 0-15.9 12.16l-.5.42-.42 2.73A99.9 99.9 0 0 0 9.46 40l.18-.05a270.5 270.5 0 0 1 18.86-5.66 965.5 965.5 0 0 1 20.23-5.25c.02-.02-.13 0-1.45.22a773.01 773.01 0 0 0-31.7 6.09 29.7 29.7 0 0 1 1.95-2.17c.65-.67 2.61-2.59 3.5-3.42A230.89 230.89 0 0 1 33.71 19l.08-.06-.13-.25a5.03 5.03 0 0 0-1.26-1.47c-.33-.25-.3-.24-.64-.2Zm14.85 3.51-.34.06c-.35.05-12.86 2.57-12.88 2.6-.02.01-.21 1.2-.2 1.22l2.27-.45c2.5-.5 2.73-.55 2.98-.52.4.03.63.3.68.82.07.86-.75 1.83-2.16 2.57l-.3.13.14-1.07c.08-.58.15-1.05.14-1.06l-.95.18-.94.2-.07.46a5.5 5.5 0 0 1-.08.49l-2.97.6.23-1.69c.14-.92.24-1.68.23-1.68-.03-.02-2.77.55-2.8.58-.02.02-.48.83-1.01 1.82l-1.02 1.83a2.5 2.5 0 0 1-.56.14c-1.3.25-2.16.52-2.99.92-.69.34-1.17.67-1.58 1.09-.52.53-.8 1.07-.8 1.59 0 .8.54 1.23 1.52 1.23.7 0 1.41-.22 2.14-.66a9.1 9.1 0 0 0 2.84-3.24c.1-.17.2-.32.23-.33.1-.04 1.53-.32 1.54-.3.01.01-.09.74-.22 1.63-.13.88-.24 1.6-.23 1.63a29.04 29.04 0 0 0 1.87-.35l.25-1.67.23-1.64 1.47-.3c.81-.16 1.48-.29 1.5-.28l-.22 1.64a35.8 35.8 0 0 0-.22 1.63c.01.02 1.86-.36 1.89-.39.01 0 .08-.43.15-.94l.15-.95.35-.16c2.11-.91 3.77-2.22 4.24-3.33.2-.45.25-.96.15-1.4a.82.82 0 0 1-.03-.22l2.2-.46c2.27-.45 2.59-.5 2.83-.44.19.05.32.17.42.37.08.16.1.2.1.46.02.42-.06.69-.33 1.08-.26.39-.73.8-1.29 1.16a4.4 4.4 0 0 1-.81.43c-.01-.01.05-.52.14-1.14.09-.61.16-1.12.15-1.13a31.1 31.1 0 0 0-1.88.36l-.36 2.48-.37 2.56c-.01.08 0 .1.03.1.06 0 1.87-.36 1.88-.38l.12-.86c.06-.47.12-.86.13-.87l.35-.16c1.95-.83 3.6-2.08 4.16-3.15.28-.53.36-1 .26-1.5a1.54 1.54 0 0 0-1.15-1.29c-.16-.04-1-.07-1.2-.05Zm-16.27 4.65-.33 1.97c-.02.02-1.12.23-1.13.22A23.47 23.47 0 0 1 30 25.23l.15-.04c.1-.03.18-.03.18-.01Zm-3.36 3.5c0 .08-.33.61-.59.95-.7.91-1.38 1.46-1.91 1.56-.26.04-.46-.05-.53-.26-.12-.35.06-.82.47-1.23.37-.37 1-.67 1.85-.9.75-.2.71-.19.71-.12Z" fill="#EC2028"/></svg>