<!-- by TradingView --><svg width="56" height="56" viewBox="0 0 56 56" xmlns="http://www.w3.org/2000/svg"><path fill="#F0F3FA" d="M0 0h56v56H0z"/><path d="M18.2 14a4.62 4.62 0 0 0-4.2 3h15.38c.47 0 .93-.18 1.28-.49L33.43 14H18.2ZM20.3 20a4.62 4.62 0 0 0-4.2 3h7.76c.47 0 .93-.18 1.28-.49L27.9 20H20.3ZM42 42H20.62l8.28-8h4.44A8.97 8.97 0 0 1 42 42Z" fill="#6CB645"/><path d="m27.71 34-6.84 6.83A4 4 0 1 1 18.05 34h9.66Z" fill="#2F8F45"/><path d="M35 15.16a4.08 4.08 0 0 1 5.72.03 4.04 4.04 0 0 1 0 5.74L28.54 33H16.8L35 15.16Z" fill="#6CB645"/></svg>