<!-- by TradingView --><svg width="56" height="56" xmlns="http://www.w3.org/2000/svg"><path fill="url(#paint0_linear)" d="M0 0h56v56H0z"/><path d="M34.48 16.012c-4.264-.168-7.332 1.49-8.278 2.366l1.541 3.865c4.22-2.787 8.467-2.708 9.144 1.314.531 3.162-7.304 9.701-10.983 12.935V40H43v-5h-8.95s8.436-5.84 8.436-11.443c0-4.364-2.678-7.335-8.007-7.545zM24 16h-5v15.497c-.379 3.365-1.752 4.574-7 3.549v4.522s2.3.972 6.763 0C23.618 38.51 24 33.524 24 31.5V16z" fill="#fff"/><defs><linearGradient id="paint0_linear" x1="10.418" y1="9.712" x2="68.147" y2="76.017" gradientUnits="userSpaceOnUse"><stop stop-color="#1A1E21"/><stop offset="1" stop-color="#06060A"/></linearGradient></defs></svg>