<!-- by TradingView --><svg width="56" height="56" viewBox="0 0 56 56" xmlns="http://www.w3.org/2000/svg"><path fill="#181B1E" d="M0 0h56v56H0z"/><path fill-rule="evenodd" d="M13 13h30v30H13V13Zm.93.95h28.08v28.1H13.93v-28.1Z" fill="#F0F3FA"/><path d="M16 16h7v4h-6v2h16v-6h7v13H17v7.5l2.5 2.5 2.5-2.5V33h18v7h-1v-6H23v3l-3 3h-1l-3-3v-9h23V17h-5v6H16v-4h6v-2h-6v-1Z" fill="#F0F3FA"/><path d="M25 39h8v-5h1v6h-9v-1Z" fill="#F0F3FA"/><path d="M28 34v5h-1v-5h1ZM34 36h5v1h-5v-1ZM31 17h-5v5h-1v-6h6v1Z" fill="#F0F3FA"/><path d="M30 20h-5v-1h5v1Z" fill="#F0F3FA"/></svg>