<!-- by TradingView --><svg xmlns="http://www.w3.org/2000/svg" width="56" height="56"><path fill="#004F2F" d="M0 0h56v56H0z"/><path fill-rule="evenodd" d="M10.82 25h-1.5c-.03 0-.1.02-.1.08 0 .07.1.1.15.12.4.05.46.33.46.48v3.7c0 .29-.23.4-.38.46l-.1.05c-.07.08.03.1.08.11h2.73c.32-.05.81-.54.83-.85.02-.25-.1-.17-.17-.1-.48.63-1.51.65-1.97.66h-.05c-.34 0-.4-.21-.4-.32v-3.71c0-.32.28-.46.42-.48.05-.01.1-.05.1-.12.01-.06-.06-.08-.1-.08zM6.5 30a2.5 2.5 0 100-5 2.5 2.5 0 000 5zm.57-.3c1.06-.29 1.65-1.5 1.33-2.7-.33-1.22-1.44-1.97-2.5-1.7-1.05.29-1.64 1.5-1.32 2.7.32 1.22 1.44 1.97 2.5 1.7zm4.88-4.7h1.37c.08 0 .2.08.04.16-.15.05-.4.2-.21.46l.94 1.47c.03.04.11.1.2 0l.9-1.43c.04-.12.06-.37-.18-.42-.3-.05-.34-.07-.34-.13s.06-.1.11-.1h2.04c.04-.01.12.02.18.17l1.76 3.7c.02.05.09.12.17 0l1.88-3.75c.02-.04.08-.13.18-.13h.63c.02 0 .06.03.07.1 0 .06-.07.1-.1.1-.15.03-.43.16-.42.49l.08 3.68c0 .14.1.42.44.42.05 0 .09.04.09.1 0 .07-.07.1-.1.11h-1.35c-.03 0-.1-.1 0-.16.12-.04.36-.18.37-.44.01-.25-.04-2.05-.06-2.92-.01-.07-.06-.2-.16-.05l-1.72 3.41c-.03.04-.1.1-.16 0-.06-.09-1.05-2.21-1.54-3.26-.04-.08-.11-.19-.17 0l-.07 2.67c0 .16.08.5.47.54.06 0 .17.05.17.13s-.08.08-.17.08h-1.26c-.08 0-.18-.08-.05-.16.15-.04.46-.22.48-.59l.17-3.08c-.03-.33-.18-1-.62-1-.07.01-.23.08-.38.32L14.4 27.4a.46.46 0 00-.1.27v1.69c0 .12.08.38.4.43.3.04.24.21.16.21h-1.58c-.07 0-.16-.1-.04-.16.17-.01.5-.13.5-.48v-1.59a.66.66 0 00-.12-.37c-.1-.12-.85-1.32-1.21-1.9-.06-.1-.23-.3-.46-.32-.04-.01-.12-.05-.1-.1 0-.06.07-.08.1-.08zm11.83 0h-1.93c-.04 0-.12.02-.12.09 0 .07.04.1.12.13.38.01.46.27.46.4v3.58c-.01.45-.26.57-.4.58-.08 0-.12.07-.12.13s.05.08.08.09h1.51c.07 0 .26 0 .26-.1 0-.06-.17-.1-.26-.12-.39-.05-.5-.4-.5-.58v-3.75c0-.15.15-.2.22-.2h.28c.68.06 1.36.42 1.36 1.33 0 .9-.88.95-1.07.95-.18 0-.48-.04-.53-.05-.05-.01-.17.07-.04.15.13.07.43.09.57.09.2 0 1.63-.11 1.61-1.38 0-1.01-1-1.32-1.5-1.34zm1.56 0h1.5c.03 0 .08.02.08.07s-.05.08-.08.1c-.15.02-.45.13-.45.4v3.85c0 .11.08.33.4.36.09.01.22.07.22.15 0 .07-.1.07-.17.07h-1.46c-.07 0-.14-.04-.14-.1 0-.07.08-.1.22-.12.1-.02.33-.1.36-.36v-3.84c0-.12-.1-.37-.48-.42-.03 0-.1-.03-.11-.09 0-.06.07-.07.11-.07zm6.2.54l.07 1.05c-.1.1-.17 0-.19-.07-.53-1.12-1.47-1.33-1.87-1.3-1.88.1-1.96 1.6-1.96 2.38 0 .78.67 2.24 2.07 2.16 1.13-.06 1.64-.7 1.76-1 .15-.18.19-.07.19 0l-.19.72c-.18.11-.78.45-1.76.51-1.02.08-2.66-.46-2.66-2.39 0-1.95 1.58-2.6 2.55-2.6.77 0 1.49.36 1.75.54.12-.12.22-.05.25 0zm4.63-.12c-.2-.14-.77-.42-1.44-.42-.83 0-2.07.47-2.08 1.73 0 1.02.95 1.35 1.43 1.39.18.01.53.1.52.29-.01.24-.27.28-.43.28-.16 0-.67-.07-1.13-.5l-.53 1.34c.26.16 1 .49 1.82.47 1.01-.02 2.01-.68 2.01-1.67 0-1-.8-1.34-1.27-1.44-.48-.1-.69-.16-.69-.34 0-.14.14-.25.35-.25.21 0 .55.05.95.38l.49-1.26zm4.14-.42h-3.64v1.6h.98V30h1.68v-3.4h.98V25zm.69 5v-5h3v1.37h-1.4v.44H44v1.37h-1.4v.46H44V30h-3zm4-5v5h3v-1.36h-1.4v-.46H48V26.8h-1.4v-.44H48V25h-3zm4 5v-5h1.6v3.36H52V30h-3z" fill="#fff"/></svg>