<!-- by TradingView --><svg width="56" height="56" xmlns="http://www.w3.org/2000/svg"><path fill="#F6F8FD" d="M0 0h56v56H0z"/><path d="M15.562 26.43L12 30.096 18.03 29l-2.67 7.584c4.978-4.972 14.951-14.899 15.016-14.831-6.185 1.146-12.453 3.595-14.814 4.677z" fill="#8AC63F"/><path d="M30.533 14c-.972.37-7.214 5.07-10.236 7.458 6.72-2.36 11.576-2.781 16.47-3.244-2.106-1.377-6.299-4.147-6.234-4.214zM37.581 18.72L25.276 31.317c4.76-1.652 11.32-2.458 14.005-2.655l.912-2.821L46 25.334 37.58 18.72z" fill="#0074E3"/><path d="M38.338 32.208c-6.523-.188-18.503 3.186-23.596 5.748A543.884 543.884 0 0013.457 42c11.378-3.69 20.267-4.93 23.135-5.097 0 0 1.643-4.669 1.746-4.695z" fill="#8AC63F"/></svg>