<!-- by TradingView --><svg xmlns="http://www.w3.org/2000/svg" width="56" height="56"><path fill="#F44238" d="M0 0h56v56H0z"/><path d="M18 18h11.55c.25 0 .45-.15.45-.4v-2.16c0-.24-.2-.44-.45-.44h-14.1c-.25 0-.45.2-.45.44v6.11c0 .25.2.45.45.45h2.1c.24 0 .45-.2.45-.45V18zm20 20H27.45c-.25 0-.45.2-.45.45v2.1c0 .25.2.45.45.45h13.1c.25 0 .45-.2.45-.44v-6.12c0-.24-.2-.44-.45-.44h-2.07c-.25 0-.48.2-.48.44V38zm2.54-23h-7.09c-.25 0-.45.2-.45.45v2.12c0 .25.2.43.45.43h2.39L15 37.93v2.61c0 .25.2.46.46.46h8.1c.25 0 .44-.2.44-.46v-2.06c0-.25-.2-.48-.45-.48h-4.3L38 20.07v1.5c0 .26.23.43.48.43h2.06c.25 0 .46-.18.46-.43v-6.11c0-.26-.2-.46-.46-.46z" fill="#fff"/></svg>