<!-- by TradingView --><svg width="56" height="56" viewBox="0 0 56 56" xmlns="http://www.w3.org/2000/svg"><path fill="#F0F3FA" d="M0 0h56v56H0z"/><path d="M13 22a1 1 0 1 0 0-2 1 1 0 0 0 0 2Z" fill="#E69026"/><path d="M8 30.93V25.4c0-1.22.56-2.34 1.94-2.4.04 0 .06.01.06.05v8.08c0 1.1-.85 1.87-1.95 1.87h-4c-.03 0-.04-.02-.04-.05 0-.41-.07-.98.13-1.34.23-.4.58-.6 1.06-.61h2.74c.04 0 .06-.02.06-.07ZM13.97 23h-1.94a.03.03 0 0 0-.03.03v9.93c0 .02.01.03.03.03h1.94c.02 0 .03-.01.03-.03v-9.93a.03.03 0 0 0-.03-.03ZM18.12 26.26c-.1.2-.12.46-.12.69v3.75c-.02 1.1-.7 2.28-1.95 2.3h-.02a.04.04 0 0 1-.03-.05V27.8c0-.66.05-1.2.15-1.6.43-1.72 1.89-3.14 3.72-3.19 2.03-.05 3.62 1.44 4.02 3.38.08.38.12.97.1 1.78v4.8c0 .03-.01.04-.04.04h-1.92c-.02 0-.03 0-.03-.03V26.9c0-1-.83-1.74-1.76-1.88a2.1 2.1 0 0 0-2.12 1.24ZM30.8 26.93a3.09 3.09 0 0 1 4.71.34c.36.49.5 1.09.49 1.7v3.31c0 .52-.5.81-.96.66a.74.74 0 0 1-.53-.71v-3.41c0-.4-.2-.8-.5-1.04-.65-.5-1.3-.51-1.95-.05a1.3 1.3 0 0 0-.55 1.06l.01 3.39c0 1.1-1.52 1.07-1.52.05V28.7c0-.35-.24-.74-.52-.94-.65-.48-1.3-.49-1.95 0-.36.25-.53.64-.53 1.13v3.34c0 .95-1.51 1.03-1.51.02v-3.43c0-.66.23-1.25.68-1.76a3.1 3.1 0 0 1 4.53-.13c.03.03.06.03.1 0ZM49.53 23.77v2.78c0 .05-.02.06-.07.03a3.34 3.34 0 0 0-4 .18c-.77.61-1.2 1.45-1.3 2.51-.02.18-.1.28-.2.41-.7.89-1.57 1.63-2.66 1.78-.6.09-1.12 0-1.57-.26-1.21-.68-1.3-2.43-.18-3.29.8-.63 2.26-.64 2.63.55v.01a.02.02 0 0 1-.01.02h-1.11c-1.1-.02-1.1 1.53.01 1.5l1.31.01c.19 0 .36-.03.53-.11 1.3-.62.86-2.16.05-2.96a3.05 3.05 0 0 0-3.22-.77 3.31 3.31 0 0 0-2.34 2.37c-.18.74-.13 1.61.14 2.31.36.96 1.05 1.6 2.06 1.94 2 .66 3.46-.29 4.89-1.64.03-.03.05-.03.07.01a3.4 3.4 0 0 0 6.24-.45c.12-.33.2-.7.2-1.06v-5.88c0-1.01-1.47-1.02-1.47.01Zm-1.96 7.87c-1.08 0-1.95-.96-1.95-2.15 0-1.18.87-2.14 1.95-2.14s1.96.96 1.96 2.14c0 1.19-.88 2.15-1.96 2.15Z" fill="#113044"/></svg>