<!-- by TradingView --><svg width="56" height="56" xmlns="http://www.w3.org/2000/svg"><path fill="#B4252D" d="M0 0h56v56H0z"/><path d="M24.568 20.027c-.771.197-1.185.963-1.185 1.709 0 .68.312 1.339.936 1.66.332.166.85.173 1.181 0 .783-.41 1.129-1.445.828-2.27-.16-.449-.501-.839-.876-1.01-.23-.107-.65-.148-.884-.089zM44 22v7.689c0 .668.5 1.311 1.608 1.327L48.24 31c1.687.007 2.259.016 2.259.016.5-.016 1.084-.384 1.296-.777.19-.364.204-.512.204-2.239v-1.5c0-1-.5-1.5-1.255-1.5-.02 0-1.026-.007-2.615 0H46v1h4.5c.62 0 .5 1 .5 2s0 2-.5 2h-2.259c-2.136.007-2.633 0-2.633 0-.608 0-.608-.5-.606-.5v-3.715C44.987 23.934 45 22 45 22h-1zM16.342 24c-1.537.279-2.848 1.545-3.443 3.328-.4 1.196-.464 3.018-.167 4.3.249 1.091.814 2.105 1.66 2.974.695.71 1.513 1.025 2.5 1.051 1.303.041 2.186-.479 3.108-1.378V35h2V24h-2v1.362s-.817-.783-1.329-1.035a3.315 3.315 0 00-.98-.327 4.553 4.553 0 00-1.349 0zm1.731 2.526c.335.089.584.234.895.527.706.665 1.007 1.736 1.015 2.854.007.832-.123 1.404-.446 1.958-.334.572-.817 1.021-1.293 1.2-.494.185-1.233.13-1.757-.13-.639-.32-1.21-1.089-1.422-1.899-.153-.605-.153-1.522.003-2.143.348-1.384 1.408-2.803 3.005-2.367z" fill="#fff"/><path d="M5 26h4.895L4 35c0 .03 8 0 8 0l.019-2h-4.11l5.248-9H5v2zM24 29.558V35h2.026V24H24v5.558zM27 25v4.235C27 30.5 27.994 31 29 31c0 0-.01.011 2.95 0H34v-1h-5c-.5 0-1-.332-1-.765V25h-1zM36 25v1h5c1 0 1 .493 1 1.697C42 29.061 42 30 41 30h-4c-.922 0-.802-2 0-2h4v-1h-4c-2 0-2.091 4 0 4h4c1 0 1.559-.387 1.81-.891.171-.346.19-.9.19-2.412.004-1.043-.011-1.47-.048-1.634-.149-.672-.876-1.063-1.32-1.063H36z" fill="#fff"/><path fill-rule="evenodd" d="M48.626 32.48h-1.043v-.272H51.5v.273h-2.566l-.87 1.09h.48l.493-.513.139.21-1.075 1.122h.788v.273H47.5l.784-.819h-.746l1.088-1.363zm1.505.682l.14-.176-.154-.192-.87 1.09.154.193.512-.642h1.043c.06 0 .108 0 .146.025.025.017.072.062.072.248V34.8a.195.195 0 01-.028.087c-.018.029-.042.05-.081.05h-1.197v.272h1.197c.116 0 .2-.07.253-.155a.51.51 0 00.073-.254v-1.09c0-.252-.068-.41-.187-.49-.09-.06-.196-.058-.25-.057H50.131zm-.014 1.46l-.435-.545.154-.193.435.546-.154.193zm-2.332.315l1.524-.273.03.27-1.523.273-.03-.27zM41.773 32.208h2.772v.273h-1.622l-.185.273h1.623v.272h-1.015v.546h1.2v.272H43.54l1.293 1.364h-3.057c-.104 0-.178-.067-.223-.159a.599.599 0 01-.054-.25v-2.182c0-.17.04-.29.114-.355.061-.054.13-.054.16-.054zm1.388 1.364v-.546h-.608l-.342.506-.13-.193.58-.858h-.884c-.034 0-.055.003-.068.014a.049.049 0 00-.013.024.328.328 0 00-.011.098v.955h1.476zm-1.476.272h1.314l-.886 1.091h-.336a.074.074 0 01-.073-.045.23.23 0 01-.02-.091v-.955zm.716 1.091h1.856l-1-1.055-.856 1.055zM27.5 32.462v-.254h4.013v.254h-1.795v.254h.95c.12 0 .204.062.255.148a.47.47 0 01.062.232v1.143h.528v.253h-.528v.127a.471.471 0 01-.062.233.288.288 0 01-.254.148h-.423v-.254h.423c.05 0 .07-.022.083-.042a.18.18 0 00.022-.085v-.127H28.24v.635h-.21v-.635H27.5v-.253h.528v-1.143a.39.39 0 01.123-.306.303.303 0 01.194-.074h1.162v-.254H27.5zm2.007.507h-1.162a.116.116 0 00-.07.027c-.017.015-.036.04-.036.1v.381h1.268v-.508zm0 .762h-1.268v.508h1.268v-.508zm.211.508v-.508h1.056v.508h-1.056zm1.056-.762h-1.056v-.508h.95c.05 0 .072.023.084.043a.18.18 0 01.022.084v.381zm4.647-1.269h2.112v1.27h-2.112v-1.27zm.211.254v.254h1.69v-.254h-1.69zm1.69.507h-1.69v.254h1.69v-.254zm-2.535.635v-1.269H35v1.268-.002s.021.13.316.13h.95v1.396h-.21v-.635h-.585l-.496.716-.162-.162.384-.554h-.514v-.253h1.373v-.254h-.74c-.357 0-.528-.188-.528-.38zm3.169.127v-1.396h.21v1.65H36.9v.254h.744c.07 0 .211 0 .33.127.12.131.193.367.193.76h-.211c0-.366-.069-.512-.124-.571-.055-.06-.12-.063-.193-.063h-.74v.635h-.21V33.73h1.267z" fill="#fff"/></svg>