<!-- by TradingView --><svg width="56" height="56" viewBox="0 0 56 56" xmlns="http://www.w3.org/2000/svg"><path fill="#F0F3FA" d="M0 0h56v56H0z"/><path d="M29 24h2.5v9H29v-9Z"/><path d="M32.7 23 27 33H15v-4.36h5.5l-.5-4.28L17.64 23H32.7Z" fill="#757679"/><path d="M7 27.77 4 23h3l1.5 2.5L10 23h3l-3 4.73L13 33h-3l-1.5-2.54L7 33H4l3-5.23ZM14 23h3.95c2.21 0 4.05 1.13 4.05 3.5 0 2.35-1.7 3.5-3.94 3.5H16.5v3H14V23Zm2.5 5h1.91c.85 0 1.59-.36 1.59-1.5 0-1.14-1.08-1.5-1.95-1.5H16.5v3ZM33 25h2.5v1.25S35.91 25 37.3 25c2.22 0 2.7 1.53 2.7 3.7V33h-2.5v-3.94c0-.93-.13-2.06-.91-2.06-.94 0-1.09.93-1.09 2v4H33v-8ZM46 28c-.24-.37-.44-1-1.03-1-1.11 0-1.47.83-1.47 2s.36 2 1.47 2c.53 0 1.1-.54 1.33-1l1.7 1.18c-.6.86-1.5 1.82-3.03 1.82-2.43 0-3.97-1.57-3.97-4 0-2.4 1.49-4 3.97-4 1.03 0 2.51.7 3.03 1.63L46 28ZM50.5 30a1.5 1.5 0 1 1 0 3 1.5 1.5 0 0 1 0-3Z"/></svg>