<!-- by TradingView --><svg xmlns="http://www.w3.org/2000/svg" width="56" height="56"><path fill="url(#aoqzpat3o)" d="M0 0h56v56H0z"/><path fill-rule="evenodd" d="M12 33H4v-1.33L9 25H4v-2h10v6a2 2 0 104 0v-6h2v10h-2v-1.52a3.25 3.25 0 01-6-1.73v-5.42L7 31h5v2zm11-9.24V23h-2v10h2v-6.5a1.5 1.5 0 013 0V33h2v-6.5a1.5 1.5 0 013 0V33h2v-7a3 3 0 00-5.5-1.66 3 3 0 00-4.5-.58zM34 23h2v10h-2V23zm10 1.86A4.34 4.34 0 0040.5 23c-2.49 0-4.5 2.24-4.5 5s2.01 5 4.5 5a4.51 4.51 0 004.13-3h-2.27c-.45.61-1.12 1-1.86 1-1.09 0-2.01-.83-2.36-2h6.77a5.56 5.56 0 00-.81-4H49l-5 6.67V33h8v-2h-5l5-6.67V23h-8v1.86zm-3.5.14c-1.09 0-2.01.83-2.36 2h4.72c-.35-1.17-1.27-2-2.36-2z" fill="#fff"/><defs><linearGradient id="aoqzpat3o" x1="10.42" y1="9.71" x2="68.15" y2="76.02" gradientUnits="userSpaceOnUse"><stop stop-color="#1A1E21"/><stop offset="1" stop-color="#06060A"/></linearGradient></defs></svg>