<!-- by TradingView --><svg xmlns="http://www.w3.org/2000/svg" width="56" height="56"><path fill="#F0F3FA" d="M0 0h56v56H0z"/><path d="M4 34l2-2H4v-1h4v1l-2 2h2v1H4v-1zm5.5 1h.2c.56 0 .92-.08.92-.5h-.5L8.4 31H10l1 2.63L12 31h1.62l-2.1 4.4c-.3.44-.65.6-1.37.6-.26 0-.51-.02-.65-.03V35zm4.5-4h1.1l.1.74c.2-.54.56-.74 1.15-.74h.32c.51 0 1.13.4 1.13 1 .1-.72.65-1 1.34-1h.35c1.03 0 1.51.55 1.51 1.72V35h-1.27v-2.17c0-.56-.42-.83-.86-.83-.43 0-.87.26-.87.8V35h-1.13v-2.2c0-.5-.39-.8-.8-.8-.4 0-.84.2-.84.83V35H14v-4zm7.64 1.8c0-1.45.69-1.8 1.66-1.8h.93c1.42 0 1.77.36 1.77 1.7v.6h-3v.27c0 .41.1.43.66.43h.4c.73 0 .8-.06.8-.28H26v.1c0 .97-.71 1.18-1.68 1.18h-1c-.88 0-1.68-.18-1.68-1.83v-.36zm3.23-.36c0-.46-.12-.44-.9-.44-.87 0-.97-.02-.97.44h1.87z" fill="#7FB900"/><path d="M27 31h.6l1.26 3.46L29.9 31h.78l1.04 3.46L32.98 31h.58l-1.48 4h-.78l-1.01-3.43L29.25 35h-.75L27 31zm7 1.58c0-1.28.7-1.58 1.64-1.58h.72c.95 0 1.64.3 1.64 1.58v.85c0 1.28-.7 1.57-1.64 1.57h-.72c-.95 0-1.64-.3-1.64-1.57v-.85zm3.5.03c0-.9-.4-1.08-.99-1.08h-1.02c-.59 0-1 .18-1 1.08v.78c0 .9.41 1.08 1 1.08h1.02c.58 0 .98-.18.98-1.08v-.78zM39 31h.5v.62c.21-.5.68-.62 1.06-.62h.52c1.03 0 1.42.41 1.42 1.36V33H42v-.34c0-.96-.23-1.16-1.21-1.16h-.34a.94.94 0 00-.95.97V35H39v-4zm4.48-1h.53v2.47h.33l1.8-1.47H47l-2.14 1.73L47.55 35l-.87.01-2.34-2h-.33v1.98h-.53V30zM48 33.62h.52v.19c0 .47.2.67.75.67h1.14c.8 0 1.05-.04 1.05-.61v-.04c0-.37-.08-.57-.72-.57H49.1c-.75 0-.93-.3-.93-1.03V32c0-.62.2-1 1.52-1h.8c1.21 0 1.37.44 1.37.98v.2h-.5v-.03c0-.59-.32-.6-.9-.6h-.93c-.76 0-.83.09-.83.52v.15c0 .32-.01.5.55.5h1.4c.81 0 1.35.1 1.35 1.13v.02c0 1.08-.82 1.13-1.47 1.13h-.97c-.79 0-1.56-.01-1.56-1.17v-.21z" fill="#1768AF"/><path d="M25.03 18.7l-5.3 5.3.24.23 5.3-5.3-.24-.23zm.85.5l-.3.16 3.53 6.59.3-.15-3.53-6.6zm9.78 1.1l-5.3 5.3.24.23 5.3-5.3-.24-.23z" fill="#7FB900"/><path d="M27.81 21.03a1.5 1.5 0 11-1.78 1.16 1.5 1.5 0 011.78-1.16zm2 4a1.5 1.5 0 11-1.78 1.16 1.5 1.5 0 011.78-1.16zm-10-2a1.5 1.5 0 11-1.78 1.16 1.5 1.5 0 011.78-1.16z" fill="#7FB900"/><path d="M32.81 22.03a1.5 1.5 0 11-1.78 1.16 1.5 1.5 0 011.78-1.16zm-10-2a1.5 1.5 0 11-1.78 1.16 1.5 1.5 0 011.78-1.16z" fill="#1768AF"/><path d="M35.81 19.03a1.5 1.5 0 11-1.78 1.16 1.5 1.5 0 011.78-1.16zm-10-2a1.5 1.5 0 11-1.78 1.16 1.5 1.5 0 011.78-1.16z" fill="#7FB900"/></svg>