<!-- by TradingView --><svg xmlns="http://www.w3.org/2000/svg" width="56" height="56"><path fill="url(#ayzarune5)" d="M0 0h56v56H0z"/><path d="M11 26H4v1h4.92L4 34h7v-1H6.08L11 26zm2.3 0h-1.33l2.92 4 .56-1.06L13.29 26zm7.7 0v8h1v-6.28L27 34h1v-8h-1v6.23L22 26h-1zm9 0h5v1h-4v2.5h4v1h-4V33h4v1h-5v-8zm7.22 0H36l3 4-3 4h1.22L40 30.5l2.81 3.5H44l-3-4 3-4h-1.19L40 29.5 37.22 26z" fill="#fff"/><path d="M14.14 32.65A6.16 6.16 0 0017.11 38a6.38 6.38 0 01-1.59-5.36c2.76-8.76 14.4-11.49 19.88-11.76 3.56-.2 10.96.68 12.12 5.83 1.16 5.15-4.83 9.67-7.97 11.29 11-4.85 12.84-10.7 12.39-13.02-1.08-6.83-10.96-7.39-15.76-6.8C20.25 20.2 14.2 28.94 14.14 32.63z" fill="#3853FF"/><path d="M19.89 24.26c-5.25 4.07-5.63 7.39-5.16 8.54.21-4.2 4.88-7.86 7.18-9.16 7.65-4.36 16.77-5.03 22.06-3.77 4.22 1 5.67 4.02 5.86 5.4.06-3.8-3.73-5.67-5.63-6.14-7.03-1.44-17.75.04-24.31 5.13z" fill="#B0D0FF"/><defs><linearGradient id="ayzarune5" x1="10.42" y1="9.71" x2="68.15" y2="76.02" gradientUnits="userSpaceOnUse"><stop stop-color="#1A1E21"/><stop offset="1" stop-color="#06060A"/></linearGradient></defs></svg>